<svg width="493" height="368" viewBox="-1 -1 493 368" xmlns="http://www.w3.org/2000/svg"><g stroke-width="2"><path fill="#9FF" stroke="#CFF" d="M0 0h479v290L.95 275 0 0z" transform="matrix(1.00405 0 0 1 -.95 0)"/><path fill="#0C4" stroke="#0C4" d="M443.991 247.426c12.053-.534 25.619 4.246 33.003 13.548 7.863 9.859 5.709 24.563 5.044 37.038.324 12.836 1.653 27.54-6.053 37.975-7.12 9.666-20.087 16.72-31.994 16.645-17.713-.11-37.896-5.894-50.94-15.416-13.044-9.523-21.119-22.674-21.119-37.187 0-14.512 8.075-27.663 21.12-37.186 13.043-9.522 33.239-14.646 50.94-15.417z" stroke-width="2.882"/><path fill="#0C4" stroke="#0C4" d="M52 269c13.795 0 26.295 4.09 35.346 10.697C96.397 286.305 102 295.43 102 305.5s-5.603 19.195-14.654 25.803C78.295 337.91 65.795 342 52 342c-13.795 0-26.295-4.09-35.346-10.697C7.603 324.695 2 315.57 2 305.5s5.603-19.195 14.654-25.803C25.705 273.09 38.205 269 52 269z" transform="matrix(1.11765 0 0 .94118 20.9 -15.6)"/><path fill="#0C4" stroke="#0C4" d="M192.491 229.876c19.881 0 37.896 5.895 50.94 15.417 13.044 9.523 21.119 22.674 21.119 37.186 0 14.513-8.075 27.664-21.119 37.187-13.044 9.522-31.059 15.416-50.94 15.416-19.88 0-37.896-5.894-50.94-15.416-13.044-9.523-21.119-22.674-21.119-37.187 0-14.512 8.075-27.663 21.12-37.186 13.043-9.522 31.058-15.417 50.94-15.417z" stroke-width="2.882"/><path fill="#0C4" stroke="#0C4" d="M320.491 237.876c19.881 0 37.896 5.895 50.94 15.417 13.044 9.523 21.119 22.674 21.119 37.186 0 14.513-8.075 27.664-21.119 37.187-13.044 9.522-31.059 15.416-50.94 15.416-19.88 0-37.896-5.894-50.94-15.416-13.044-9.523-21.119-22.674-21.119-37.187 0-14.512 8.075-27.663 21.12-37.186 13.043-9.522 31.058-15.417 50.94-15.417z" stroke-width="2.882"/><path fill="#0C4" stroke="#0C4" d="M55.1 259.3c8.487-3.414 23.124 10.966 32.246 20.397C94.22 286.788 102 295.619 102 305.5s-5.756 21.512-14.654 25.803L57.95 327.3l-1.4-37.15c-.459-12.371-8.361-29.037-1.45-30.85z" transform="matrix(.70051 0 0 .94118 -41.6 .95)"/><path fill="#0C4" stroke="#0C4" d="M1 279l470-3 8 60-480 5 2-62z"/><path fill="#663B00" stroke="#663B00" d="M1 344h479v16H1v-16z" transform="matrix(1.01247 0 0 1.55833 -7 -197.45)"/></g></svg>