<svg width="482" height="362" viewBox="-1 0 482 362" xmlns="http://www.w3.org/2000/svg"><path fill="#D0BDEA" d="M-.4.2h480v360H-.4V.2z"/><path fill="#EAD6FF" d="M224.2 336.5c-8.4-9.4-29.5-27.9-46.8-40.9-51.2-38.7-58.2-44.3-79-63.4-38.4-35.4-54.6-70.9-54.6-119 0-23.5 1.6-32.5 8.2-46.4 11.2-23.5 27.6-40.9 48.6-51.6 14.9-7.6 22.2-10.9 47.1-11.1 26-.1 31.5 2.9 46.8 11.3 18.6 10.2 37.8 32.1 41.7 47.6l2.4 9.6 6-13.2c34.1-74.6 142.9-73.5 180.8 1.9 12 23.9 13.3 74.9 2.7 103.7-13.9 37.5-40 66.1-100.3 109.9-39.6 28.7-84.4 72.2-87.5 78.3-3.6 7.1-.2 1.2-16.1-16.7z"/><path fill="#F2E9FF" d="M226.5 302.6c-7.1-7.4-24.9-21.8-39.5-32.1-43.3-30.3-49.2-34.7-66.8-49.7-32.4-27.7-46.2-55.5-46.1-93.2 0-18.4 1.4-25.5 6.9-36.3 9.4-18.4 23.3-32.1 41.1-40.4 12.6-5.9 18.8-8.6 39.8-8.7 22-.1 26.6 2.3 39.5 8.8 15.7 8 31.9 25.1 35.3 37.3l2.1 7.5 5.1-10.3C272.7 27.1 364.6 28 396.6 87c10.2 18.7 11.3 58.7 2.3 81.3-11.7 29.4-33.8 51.8-84.8 86.1-33.4 22.5-71.3 56.6-73.9 61.4-3.1 5.6-.2.9-13.7-13.2z"/><path fill="none" stroke="#306" stroke-width="2" stroke-linecap="round" d="M122 299l.3.3"/></svg>