<svg width="496" height="370" viewBox="-1 -1 496 370" xmlns="http://www.w3.org/2000/svg"><path fill="#DBFFE2" d="M1 0h479v360H1V0z"/><path d="M236.5 39.2L169 4.9l-65.5 34.7L34.6 4.9l-58.4 29.7v37.8l59.8-30L104.8 77l65.5-34.6 66.9 33.9-.7-37.1m242.2-17.7L445.9 4.8l-65.5 34.7-68.9-34.7-66.8 34-1.4 1 .7 37.1 68.9-34.6 68.8 34.6 65.5-34.6 31.5 16V21.5M240.8 132.1l-67.6-34.3-65.5 34.6-68.8-34.6-62.7 31.8v37.8l64-32.2 68.9 34.7 65.5-34.7 66.8 34-.6-37.1m237.9-19.9l-28.6-14.6-65.5 34.7-68.8-34.7-66.9 34-1.3 1 .6 37.1 68.9-34.6 68.9 34.6 65.5-34.6 27.2 13.8v-36.7M-21.9 316l.7 37.1 68.9-34.6 68.9 34.6 65.5-34.6 66.8 33.9-.7-37.1-67.6-34.3-65.5 34.6L46.3 281l-66.9 34-1.3 1zm500.6-24.3l-21.2-10.8-65.5 34.7-68.8-34.7-66.9 34-1.3 1 .6 37.1 68.9-34.6 68.9 34.6 65.5-34.6 19.8 10.1v-36.8m-234.8-69.2l-67.5-34.3-65.5 34.7L42 188.2l-65.8 33.4v37.9l67.2-33.8 68.8 34.6 65.5-34.6 66.9 33.9-.7-37.1m234.8-21.4l-25.4-13-65.5 34.7-68.9-34.7-66.8 34-1.4 1 .7 37.1 68.9-34.6 68.8 34.6 65.5-34.6 24.1 12.2v-36.7" transform="matrix(.95523 0 0 1 23.7 0)" fill="#FFF" stroke="#FFF" stroke-width="15" stroke-linecap="round"/><path fill="none" stroke="#000" stroke-width="2" stroke-linecap="round" d="M480 21l.3.3"/></svg>