<svg width="616" height="503" viewBox="-141 -78 616 503" xmlns="http://www.w3.org/2000/svg"><defs><linearGradient id="a" x1="232.211" y1="212.952" x2="248.103" y2="758.87" gradientUnits="userSpaceOnUse"><stop offset="0" stop-color="#FFF"/><stop offset="1" stop-color="#29ABE2"/></linearGradient></defs><path fill="#A9EBFF" stroke="#000" stroke-width=".5" d="M585.666 455.667a2 2 0 0 1-2 2H-105a2 2 0 0 1-2-2V-75a2 2 0 0 1 2-2h688.667a2 2 0 0 1 2 2v530.667z"/><path fill="url(#a)" d="M-141.001 251.843s431.133-95.999 756.667 22.923V503h-756.667V251.843z"/><g stroke="#000" stroke-width=".25"><path fill="#13600F" d="M438.543 90.109s9.583 63.783-10.181 97.319c0 0 4.692 1.506 10.081-3.885 0 0 .277 39.816-17.775 59.577 0 0 10.688 0 19.671-4.789 0 0-8.2 31.141-29.552 45.514 0 0 14.581 2.396 23.563 0 0 0-14.332 28.742-32.017 42.517 0 0 88.909 47.909 187.121-35.931 0 0-22.756-3.894-46.111-16.619 0 0 22.159-15.718 22.754-21.707 0 0-34.731-9.583-41.918-20.363 0 0 14.97-2.393 19.164-4.788 0 0-37.729-23.956-53.299-54.498 0 0 13.279-1.196 16.219-4.79.001.001-28.197-17.975-67.72-77.557z"/><path fill="#FDFDFD" d="M473.576 175.218c4.366.184 8.712-1.203 12.608-3.168 2.172-1.096 4.23-3.45 6.855-3.45 2.531 0 2.014 1.874 3.568.231 1.494-1.579 3.551-1.766 5.604-1.752.008-.016.011-.03.016-.046a3.766 3.766 0 0 1 .856-1.451c-.863-.606-1.125-2.087-.256-2.8 3.826-3.133 8.146-1.835 9.847 2.804 1.456 3.961-1.259 5.875-4.362 6.158-.491 1.42-1.585 2.378-3.298 2.471-1.153.065-3.719-.572-4.673.232-.984.825-1.898 1.613-3.167 1.965-2.209.606-4.038-1.104-5.028-2.834.178.311-7.501 2.303-7.718 2.367-3.54 1.058-7.421 1.318-10.993.32-.572-.16-.47-1.072.141-1.047zm-47.785 6.817c5.536-2.134 11.814-2.219 16.415-6.261 2.506-2.203 5.144-3.417 8.32-4.287 3.604-.989 6.039-.754 9.344-3.158 2.433-1.771 4.073-1.783 6.99-1.286.726.125.546 1.29-.172 1.269-6.674-.197-4.963 4.07-9.447 5.716-2.664.977-5.193 1.457-7.722 2.853-3.12 1.72-5.444 5.599-8.346 7.825-2.675 2.053-6.442 2.715-9.782 3.782-.72 1.417-2.253 2.385-4.379 1.86-.8-.199-1.481-.506-2.187-.927-3.208-1.931-2.195-6.164.966-7.386zm26.998-33.993c3.742-.849 5.488-3.204 8.528-5.019 2.214-1.323 4.73-1.324 6.932-2.789 2.298-1.533 5.305-1.818 8.029-1.153.726-.547 1.645-.809 2.521-.616 1.057-.281 2.23.051 2.987 1.378.727 1.274.936 2.126 1.118 3.57.105.848-.179 1.498-.645 1.982-.759 2.054-3.98 3.109-5.675 1.295-1.495-1.602-4.805-.763-6.8-.781-2.569-.022-5.126-1.633-7.583-.003-3.181 2.113-5.674 4.636-9.528 3.01-.387-.164-.258-.788.116-.874zm-17.577-56.505c.667 1.152 1.312 2.24 1.909 3.311-.092.368-.074.792.103 1.269 1.831 4.958 1.255 9.637 2.199 14.725.527 2.833 4.922 2.096 4.916-.666-.16-.849-.052-1.232.31-1.175.372.231.74.502 1.097.861l.05-.065c.145.138.295.285.46.459 1.087.616 2.187.335 2.916-.346.902 1.497 2.078 2.697 4.092 2.982 1.154.164 2.322-.91 1.606-2.092-2.105-3.478-2.659-7.307-5.187-10.618-3.046-3.996-6.968-7.164-9.604-11.489-1.891-3.097-6.691-.311-4.867 2.844zm-16.571 146.02l1.185-.347c1.092-.32 2.036-.158 2.808.273 5.262.154 11.319.316 15.368-3.036 1.782-1.471 4.608-3.78 7.129-3.521 4.539.466 8.736-.072 13.435-.391.023-.141.066-.278.081-.422.165-.889 1.057-1.727 1.923-1.923 2.607-.593 5.849.172 8.025-1.393.325-.235.834-.262 1.206-.157 5.436 1.494 6.479 2.307 11.39.286.613-.251 1.074.663.628 1.082-2.333 2.188-5.203 4.045-8.613 2.991-3.316-1.023-2.337-1.294-4.397.767-1.12 1.121-3.368 1.234-5.186 1.452-.063.257-.109.498-.193.771-.405 1.31-1.423 1.938-2.727 2.078-5.817.626-10.285 5.678-15.923 1.586-1.421-1.032-8.121 3.891-10.027 4.688-4.81 2.009-9.946 2.375-15.073 2.891-4.518.456-5.13-6.475-1.039-7.675zm84.554-4.718c4.933 1.497 5.841-3.567 10.204-3.567 1.735 0 2.673.459 3.971 1.462-.002-.002 4.312-.842 4.656-.854 7.038-.234 13.91-5.349 20.991-6.414 1.851-.281 3.748.142 4.729 1.923.068.123.137.245.203.368.793 1.439.614 3.25-.571 4.425-2.366 2.348-7.4 1.814-10.522 2.475-3.57.753-7.203 2.143-10.881 2.183-3.399.038-8.531 1.937-11.377-.512-2.028-1.748-5.554 1.203-7.795 1.646-1.542.307-3.097-.623-4.408-1.237-1.078-.503-.31-2.236.8-1.898zm-43.369-28.147c2.9-.746 6.313-.045 8.61-2.42.606-.626 1.936-1.191 2.744-1.11 4.309.44 7.208 2.421 11.79-1.624 2.04-1.802 2.907-4.686 5.823-5.488 1.27-.351 2.989.116 4.13.61 2.958 1.284 3.108-1.931 4.414-3.236 2.505-2.506 5.472-1.567 7.828.201 4.348-.657 7.883 2.251 7.575 7.183-.149 2.405-3.198 3.061-4.317 1.151a.193.193 0 0 1-.036.028c-.74-.127-1.484-.252-2.226-.377-1.571.91-3.624.661-4.908-.634-.729-.737-5.27 1.56-7.55 1.256-5.458-.721-7.665 3.641-12.287 5.521-3.245 1.318-6.702.197-9.671-1.133-1.178-.527-3.409 1.918-4.369 2.182-2.205.607-5.002-.148-7.275-.068-1.178.04-1.404-1.751-.275-2.042zm-47.015 73.842c1.009.806 2.05.929 3.129.374 1.434-1.291 3.662-1.824 5.384-.695 5.802 3.812 15.952-.365 22.759-.031 3.115.153 3.763-2.614 6.622-3.399 1.687-.465 6.916 1.79 7.735.205.62-1.197 2.438-2.054 3.741-1.522 2.911 1.187 14.882 2.69 16.898-.682.283-.473 1.058-.285 1.047.283-.064 3.247-1.055 4.888-4.407 5.446-3.878.646-8.154 1.656-12.24 1.598-1.076 2.061-2.619 3.154-5.574 3.477-2.368.259-3.979-2.509-6.06.097-1.011 1.264-2.73 2.146-4.32 2.3-5.75.562-11.238.693-16.996 1.693-3.808.661-7.443.766-10.893-.472-2.786 1.669-5.441 1.479-9.258.154-5.579-1.938-3.042-10.924 2.433-8.826zm81.726 7.726c4.336.461 6.925-4.383 10.936-5.219 1.005-.208 2.028.491 2.888.861 2.631 1.139 6.302-1.185 8.595-2.258 4.369-2.047 7.624-8.234 12.195-9.177 3.541-.73 6.095-.046 8.71 1.542 1.188-.88 2.507-1.393 4.25-1.753 5.311-1.092 6.43-6.567 9.772-9.91 2.454-2.455 5.376-2.791 7.395-6.318.758-1.32 1.771-2.327 2.926-3.16.515-2.329 2.573-4.354 5.515-3.535 2.519.702 3.402 2.104 4.229 4.47.867 2.478-.975 4.734-3.15 5.554-4.747 1.787-5.747 7.54-11.273 8.998-1.84.484-4.439 3.414-6.243 4.386-3.467 1.867-7.738 4.056-10.102 7.327-1.117 1.544-2.882 2.146-4.636 1.216-4.562-2.417-10.612 4.724-15.23 5.495-3.629.605-7.401 1.233-11.093 1.172-3.975-.067-4.889-1.575-8.957.853-2.627 1.567-4.215 1.448-6.868-.021-.234-.13-.146-.554.141-.523zm-94.15 35.214a34.759 34.759 0 0 0-.471-.021 5.442 5.442 0 0 1 2.297.851c-.878-1.442 6.676.875 8.026 1.509a15.886 15.886 0 0 1 4.236 2.9c9.205-2.18 21.64 6.753 29.737 9.021 9.595 2.687 21.927-1.002 31.734-1.122 5.563-.069 10.552-.749 15.96-2.007 4.848-1.13 9.884-.37 14.356-3.04 6.079-3.624 12.775-4.527 19.024-7.56 1.584-.768 7.448-.422 8.336-1.76 1.217-1.836 2.796-3.79 5.039-4.407 2.893-.796 5.238.582 7.579-1.902 2.504-2.663 6.087-2.911 8.663-5.441 3.525-3.464 7.846-7.21 12.744-8.397 2.369-2.874 5.653-2.304 9.588-5.414 2.147-1.699 4.321-2.464 6.925-3.088 3.096-.743 4.36-3.044 6.941-4.362 2.249-1.15 5.183 1.267 3.648 3.647-.947 1.471-1.217 5.565-4.943 8.115-4.123 2.82-9.604 5.173-14.639 6.91-.719 2.033-2.396 3.314-4.58 3.401-2.746.109-5.343 3.963-7.399 5.435-3.536 2.523-9.647 1.859-12.059 5.61-3.007 4.679-8.827 1.642-11.213 5.735-2.944 5.051-8.254 2.393-12.047 5.244-2.217 1.669-4.421 2.537-7.066 3.283-3.743 1.056-7.021 3.034-10.683 4.098-16.34 4.744-32.824 3.327-49.572 3.698-7.741.171-15.113.464-22.566-1.853-2.564-.796-7.048-.317-9.932-.83-2.778-.49-8.304-4.338-10.788-1.406-2.716 3.205-7.145 1.558-9.268-1.195-3.666-4.747-12.201-2.604-13.992-9.271-1.033-3.865 2.557-7.369 6.385-6.381z"/></g><g stroke="#000" stroke-width=".25"><path fill="#13600F" d="M66.413 87.544s-9.583 63.783 10.181 97.319c0 0-4.692 1.506-10.081-3.885 0 0-.277 39.816 17.775 59.577 0 0-10.688 0-19.671-4.789 0 0 8.2 31.141 29.552 45.514 0 0-14.581 2.396-23.563 0 0 0 14.332 28.742 32.017 42.517 0 0-88.909 47.909-187.121-35.931 0 0 22.756-3.894 46.111-16.619 0 0-22.159-15.718-22.754-21.707 0 0 34.731-9.583 41.918-20.363 0 0-14.97-2.393-19.164-4.788 0 0 37.729-23.956 53.299-54.498 0 0-13.279-1.196-16.219-4.79-.001 0 28.196-17.975 67.72-77.557z"/><path fill="#FDFDFD" d="M31.379 172.652c-4.366.184-8.712-1.203-12.608-3.168-2.172-1.096-4.23-3.45-6.855-3.45-2.531 0-2.014 1.874-3.568.231-1.494-1.579-3.551-1.766-5.604-1.752-.008-.016-.011-.03-.016-.046a3.766 3.766 0 0 0-.856-1.451c.863-.606 1.125-2.087.256-2.8-3.826-3.133-8.146-1.835-9.847 2.804-1.456 3.961 1.259 5.875 4.362 6.158.491 1.42 1.585 2.378 3.298 2.471 1.153.065 3.719-.572 4.673.232.984.825 1.898 1.613 3.167 1.965 2.209.606 4.038-1.104 5.028-2.834-.178.311 7.501 2.303 7.718 2.367 3.54 1.058 7.421 1.318 10.993.32.572-.159.471-1.071-.141-1.047zm47.786 6.818c-5.536-2.134-11.814-2.219-16.415-6.261-2.506-2.203-5.144-3.417-8.32-4.287-3.604-.989-6.039-.754-9.344-3.158-2.433-1.771-4.073-1.783-6.99-1.286-.726.125-.546 1.29.172 1.269 6.674-.197 4.963 4.07 9.447 5.716 2.664.977 5.193 1.457 7.722 2.853 3.12 1.72 5.444 5.599 8.346 7.825 2.675 2.053 6.442 2.715 9.782 3.782.72 1.417 2.253 2.385 4.379 1.86.8-.199 1.481-.506 2.187-.927 3.207-1.931 2.195-6.165-.966-7.386zm-26.998-33.993c-3.742-.849-5.488-3.204-8.528-5.019-2.214-1.323-4.73-1.324-6.932-2.789-2.298-1.533-5.305-1.818-8.029-1.153-.726-.547-1.645-.809-2.521-.616-1.057-.281-2.23.051-2.987 1.378-.727 1.274-.936 2.126-1.118 3.57-.105.848.179 1.498.645 1.982.759 2.054 3.98 3.109 5.675 1.295 1.495-1.602 4.805-.763 6.8-.781 2.569-.022 5.126-1.633 7.583-.003 3.181 2.113 5.674 4.636 9.528 3.01.386-.164.258-.789-.116-.874zm12.71-59.35c-2.637 4.325-6.559 7.494-9.604 11.489-2.527 3.312-3.081 7.14-5.187 10.618-.716 1.182.452 2.255 1.606 2.092 2.014-.285 3.189-1.485 4.092-2.982.729.682 1.829.962 2.916.346.165-.175.315-.321.46-.459.017.021.035.043.05.065.356-.359.725-.63 1.097-.861.361-.057.47.326.31 1.175-.006 2.761 4.389 3.498 4.916.666.944-5.087.368-9.767 2.199-14.725.177-.476.194-.901.103-1.269.598-1.071 1.242-2.159 1.909-3.311 1.824-3.154-2.976-5.94-4.867-2.844zm21.438 148.864l-1.185-.347c-1.092-.32-2.036-.158-2.808.273-5.262.154-11.319.316-15.368-3.036-1.782-1.471-4.608-3.78-7.129-3.521-4.539.466-8.736-.072-13.435-.391-.023-.141-.066-.278-.081-.422-.165-.889-1.057-1.727-1.923-1.923-2.607-.593-5.849.172-8.025-1.393-.325-.235-.834-.262-1.206-.157-5.436 1.494-6.479 2.307-11.39.286-.613-.251-1.074.663-.628 1.082 2.333 2.188 5.203 4.045 8.613 2.991 3.316-1.023 2.337-1.294 4.397.767 1.12 1.121 3.368 1.234 5.186 1.452.063.257.109.498.193.771.405 1.31 1.423 1.938 2.727 2.078 5.817.626 10.285 5.678 15.923 1.586 1.421-1.032 8.121 3.891 10.027 4.688 4.81 2.009 9.946 2.375 15.073 2.891 4.517.456 5.13-6.475 1.039-7.675zM1.76 230.273c-4.933 1.497-5.841-3.567-10.204-3.567-1.735 0-2.673.459-3.971 1.462.002-.002-4.312-.842-4.656-.854-7.038-.234-13.91-5.349-20.991-6.414-1.851-.281-3.748.142-4.729 1.923-.068.123-.137.245-.203.368-.793 1.439-.614 3.25.571 4.425 2.366 2.348 7.4 1.814 10.522 2.475 3.57.753 7.203 2.143 10.881 2.183 3.399.038 8.531 1.937 11.377-.512 2.028-1.748 5.554 1.203 7.795 1.646 1.542.307 3.097-.623 4.408-1.237 1.078-.502.311-2.235-.8-1.898zm43.369-28.146c-2.9-.746-6.313-.045-8.61-2.42-.606-.626-1.936-1.191-2.744-1.11-4.309.44-7.208 2.421-11.79-1.624-2.04-1.802-2.907-4.686-5.823-5.488-1.27-.351-2.989.116-4.13.61-2.958 1.284-3.108-1.931-4.414-3.236-2.505-2.506-5.472-1.567-7.828.201-4.348-.657-7.883 2.251-7.575 7.183.149 2.405 3.198 3.061 4.317 1.151.012.011.022.02.036.028.74-.127 1.484-.252 2.226-.377 1.571.91 3.624.661 4.908-.634.729-.737 5.27 1.56 7.55 1.256 5.458-.721 7.665 3.641 12.287 5.521 3.245 1.318 6.702.197 9.671-1.133 1.178-.527 3.409 1.918 4.369 2.182 2.205.607 5.002-.148 7.275-.068 1.179.04 1.404-1.751.275-2.042zm47.016 73.842c-1.009.806-2.05.929-3.129.374-1.434-1.291-3.662-1.824-5.384-.695-5.802 3.812-15.952-.365-22.759-.031-3.115.153-3.763-2.614-6.622-3.399-1.687-.465-6.916 1.79-7.735.205-.62-1.197-2.438-2.054-3.741-1.522-2.911 1.187-14.882 2.69-16.898-.682-.283-.473-1.058-.285-1.047.283.064 3.247 1.055 4.888 4.407 5.446 3.878.646 8.154 1.656 12.24 1.598 1.076 2.061 2.619 3.154 5.574 3.477 2.368.259 3.979-2.509 6.06.097 1.011 1.264 2.73 2.146 4.32 2.3 5.75.562 11.238.693 16.996 1.693 3.808.661 7.443.766 10.893-.472 2.786 1.669 5.441 1.479 9.258.154 5.579-1.939 3.042-10.925-2.433-8.826zm-81.727 7.725c-4.336.461-6.925-4.383-10.936-5.219-1.005-.208-2.028.491-2.888.861-2.631 1.139-6.302-1.185-8.595-2.258-4.369-2.047-7.624-8.234-12.195-9.177-3.541-.73-6.095-.046-8.71 1.542-1.188-.88-2.507-1.393-4.25-1.753-5.311-1.092-6.43-6.567-9.772-9.91-2.454-2.455-5.376-2.791-7.395-6.318-.758-1.32-1.771-2.327-2.926-3.16-.515-2.329-2.573-4.354-5.515-3.535-2.519.702-3.402 2.104-4.229 4.47-.867 2.478.975 4.734 3.15 5.554 4.747 1.787 5.747 7.54 11.273 8.998 1.84.484 4.439 3.414 6.243 4.386 3.467 1.867 7.738 4.056 10.102 7.327 1.117 1.544 2.882 2.146 4.636 1.216 4.562-2.417 10.612 4.724 15.23 5.495 3.629.605 7.401 1.233 11.093 1.172 3.975-.067 4.889-1.575 8.957.853 2.627 1.567 4.215 1.448 6.868-.021.234-.129.147-.554-.141-.523zm94.151 35.214c.156-.008.312-.015.471-.021a5.442 5.442 0 0 0-2.297.851c.878-1.442-6.676.875-8.026 1.509a15.886 15.886 0 0 0-4.236 2.9c-9.205-2.18-21.64 6.753-29.737 9.021-9.595 2.687-21.927-1.002-31.734-1.122-5.563-.069-10.552-.749-15.96-2.007-4.848-1.13-9.884-.37-14.356-3.04-6.079-3.624-12.775-4.527-19.024-7.56-1.584-.768-7.448-.422-8.336-1.76-1.217-1.836-2.796-3.79-5.039-4.407-2.893-.796-5.238.582-7.579-1.902-2.504-2.663-6.087-2.911-8.663-5.441-3.525-3.464-7.846-7.21-12.744-8.397-2.369-2.874-5.653-2.304-9.588-5.414-2.147-1.699-4.321-2.464-6.925-3.088-3.096-.743-4.36-3.044-6.941-4.362-2.249-1.15-5.183 1.267-3.648 3.647.947 1.471 1.217 5.565 4.943 8.115 4.123 2.82 9.604 5.173 14.639 6.91.719 2.033 2.396 3.314 4.58 3.401 2.746.109 5.343 3.963 7.399 5.435 3.536 2.523 9.647 1.859 12.059 5.61 3.007 4.679 8.827 1.642 11.213 5.735 2.944 5.051 8.254 2.393 12.047 5.244 2.217 1.669 4.421 2.537 7.066 3.283 3.743 1.056 7.021 3.034 10.683 4.098 16.34 4.744 32.824 3.327 49.572 3.698 7.741.171 15.113.464 22.566-1.853 2.564-.796 7.048-.317 9.932-.83 2.778-.49 8.304-4.338 10.788-1.406 2.716 3.205 7.145 1.558 9.268-1.195 3.666-4.747 12.201-2.604 13.992-9.271 1.033-3.864-2.557-7.368-6.385-6.381z"/></g></svg>