<svg version="1.1" width="155" height="200" xmlns="http://www.w3.org/2000/svg" xmlns:xlink="http://www.w3.org/1999/xlink">
  <!-- Exported by Scratch - http://scratch.mit.edu/ -->
  <g id="ID0.1154214246198535" transform="matrix(1.0499999523162842, 0, 0, 1.0499999523162842, 0.05, 0)">
    <g id="Bottom_1_">
      <path id="ID0.8444251050241292" fill="#20891D" d="M 51.912 114.308 C 27.683 114.306 5.741 98.429 2.742 96.169 C 32.439 84.114 49.386 33.975 51.789 26.418 C 61.880 77.803 84.061 98.412 86.504 100.548 C 76.696 109.678 65.061 114.308 51.916 114.308 C 51.916 114.308 51.913 114.308 51.912 114.308 Z " transform="matrix(1.7060633897781372, 0, 0, 1.7060633897781372, -1.9, -3.95)"/>
      <path id="ID0.994631611276418" d="M 51.732 27.416 C 57.280 55.046 66.280 73.404 72.927 84.016 C 79.274 94.148 84.594 99.203 86.127 100.555 C 76.410 109.516 64.901 114.058 51.911 114.058 C 28.547 114.058 7.302 99.232 3.243 96.232 C 19.766 89.305 32.150 70.705 39.674 56.195 C 46.204 43.603 50.285 31.863 51.732 27.416 M 51.845 25.396 C 51.845 25.396 34.742 83.345 2.241 96.100 C 2.241 96.100 25.567 114.558 51.913 114.558 C 63.563 114.558 75.802 110.951 86.880 100.539 C 86.879 100.539 62.483 80.816 51.845 25.396 L 51.845 25.396 Z " transform="matrix(1.7060633897781372, 0, 0, 1.7060633897781372, -1.9, -3.95)"/>
    </g>
    <path id="Snow_10_" fill="#FFFFFF" stroke="#000000" stroke-width="0.5" d="M 89.855 97.357 C 88.469 96.482 83.858 95.586 82.948 97.470 C 82.776 97.826 82.964 98.182 83.217 98.428 C 84.272 99.457 81.114 100.144 80.590 100.840 C 80.242 101.302 80.075 101.885 79.954 102.441 C 79.480 104.610 78.663 105.249 76.451 105.506 C 74.426 105.741 72.033 107.241 71.265 109.283 C 69.612 108.999 67.955 108.970 67.318 109.071 C 66.321 109.229 65.463 109.735 64.638 110.280 C 64.198 110.643 63.765 111.020 63.343 111.407 C 61.930 112.672 61.219 112.125 59.895 112.173 C 58.686 112.217 57.527 112.497 56.507 113.046 C 56.336 112.938 56.154 112.842 55.962 112.763 C 53.026 111.543 49.959 113.790 46.886 112.707 C 45.479 112.212 44.108 111.402 42.546 111.620 C 41.943 111.706 40.876 112.014 39.885 112.094 C 39.041 111.306 38.637 110.311 37.858 109.278 C 36.344 107.274 33.231 107.376 31.219 108.379 C 30.228 108.872 28.680 107.703 27.558 107.858 C 27.487 107.869 27.401 107.857 27.325 107.859 C 26.925 107.633 26.492 107.453 26.099 107.293 C 25.124 106.897 24.151 106.330 23.118 106.331 C 22.598 106.026 22.122 105.721 21.741 105.461 C 21.328 105.179 20.900 104.423 20.408 103.803 C 22.020 104.148 23.824 104.009 25.012 102.803 C 25.084 102.730 25.020 102.582 24.912 102.636 C 22.801 103.699 20.097 102.546 18.137 101.554 C 17.649 101.307 17.164 101.112 16.679 100.938 C 15.883 100.564 15.035 100.292 14.234 100.113 C 13.748 99.884 13.147 99.792 12.665 99.709 C 12.011 99.597 11.475 99.303 10.925 99.022 C 10.336 98.322 9.892 97.486 9.150 96.877 C 8.113 96.027 7.411 95.343 7.473 94.114 C 7.547 94.091 7.620 94.072 7.692 94.059 C 8.156 93.982 8.574 93.775 8.836 93.384 C 9.442 92.484 5.736 91.434 3.667 92.210 C 2.093 92.800 1.460 94.378 1.310 95.855 C 1.191 97.022 2.119 98.488 3.140 98.998 C 4.894 99.873 6.729 100.204 7.855 101.945 C 8.555 103.026 9.136 103.694 10.376 104.195 C 11.073 104.476 11.896 104.441 12.639 104.407 C 17.363 104.189 17.602 106.770 19.533 109.719 C 20.454 111.126 20.630 111.074 22.272 111.804 C 22.907 112.086 25.274 114.497 26.304 114.810 C 29.170 115.677 31.491 113.974 34.268 114.513 C 35.570 115.106 36.343 116.878 37.649 117.520 C 39.534 118.447 41.126 117.868 43.060 117.389 C 45.401 116.808 48.204 118.916 50.639 119.115 C 52.582 119.274 54.520 118.778 56.164 117.762 C 56.484 117.566 56.742 117.339 56.955 117.097 C 57.705 117.355 58.407 117.816 59.283 118.222 C 61.109 119.067 62.679 118.410 64.299 117.391 C 65.227 116.808 65.978 115.883 66.797 115.162 C 68.415 113.732 70.435 114.307 72.352 114.424 C 73.719 114.506 74.848 113.784 75.325 112.541 C 75.507 112.065 75.475 111.656 75.314 111.293 C 75.433 111.080 75.552 110.874 75.679 110.689 C 77.110 108.616 79.835 109.351 81.926 108.616 C 83.463 108.074 84.151 106.112 84.915 104.856 C 85.978 103.108 88.462 103.543 90.137 102.832 C 92.611 101.778 91.631 98.479 89.855 97.357 Z " transform="matrix(1.7060633897781372, 0, 0, 1.7060633897781372, -1.9, -3.85)"/>
    <path id="Snow_9_" fill="#FFFFFF" stroke="#000000" stroke-width="0.5" d="M 73.542 97.159 C 73.637 96.925 73.350 96.709 73.151 96.868 C 71.410 98.236 70.067 99.981 67.621 99.892 C 65.738 99.823 64.062 98.265 62.107 98.863 C 61.391 99.082 60.830 99.387 60.200 99.776 C 58.823 100.625 58.039 100.126 56.712 99.585 C 55.466 99.077 53.819 100.008 52.909 100.749 C 52.802 100.836 52.905 101.015 53.034 100.957 C 53.759 100.632 54.453 100.593 55.130 100.703 C 56.381 101.372 57.695 102.515 59.096 102.677 C 59.485 102.722 59.921 102.581 60.277 102.426 C 61.536 101.872 62.673 101.340 64.115 101.482 C 66.396 101.706 68.681 102.474 70.303 100.921 C 71.756 100.161 72.910 98.749 73.542 97.159 Z " transform="matrix(1.7060633897781372, 0, 0, 1.7060633897781372, -1.9, -3.85)"/>
    <path id="Snow_8_" fill="#FFFFFF" stroke="#000000" stroke-width="0.5" d="M 46.040 94.256 C 42.154 94.927 38.707 91.405 34.765 90.978 C 32.327 90.712 30.195 89.779 28.075 88.615 C 26.845 87.939 19.341 88.599 20.213 85.609 C 20.411 84.931 20.084 84.176 19.313 84.090 C 15.075 83.624 17.287 89.645 19.383 91.015 C 22.008 92.730 27.263 91.692 29.637 94.038 C 33.022 97.384 34.691 94.412 38.967 94.750 C 41.621 95.791 43.206 96.448 46.216 94.861 C 46.524 94.700 46.411 94.193 46.040 94.256 Z " transform="matrix(1.7060633897781372, 0, 0, 1.7060633897781372, -1.9, -3.85)"/>
    <path id="Snow_7_" fill="#FFFFFF" stroke="#000000" stroke-width="0.5" d="M 76.823 84.096 C 76.089 83.631 75.325 83.757 74.744 84.392 C 74.647 84.498 74.551 84.606 74.451 84.713 C 74.183 85.008 74.201 85.425 74.363 85.763 C 73.771 85.884 73.188 86.042 72.710 86.233 C 71.032 86.899 70.070 88.426 68.009 88.358 C 66.090 88.296 64.416 88.482 62.496 88.102 C 62.059 88.014 61.642 88.014 61.235 88.059 C 60.444 87.765 59.691 87.476 59.096 87.277 C 56.539 86.421 54.346 88.864 51.594 87.995 C 49.662 87.385 48.316 87.684 46.538 88.488 C 46.373 88.562 46.451 88.800 46.624 88.784 C 52.841 88.180 48.867 90.442 52.689 90.526 C 55.374 90.586 57.838 89.106 60.509 90.843 C 61.331 91.377 62.188 91.712 63.069 91.920 C 64.712 94.276 68.978 92.800 71.269 92.572 C 74.513 92.246 77.103 91.276 77.876 87.842 C 78.704 86.598 78.662 85.260 76.823 84.096 Z " transform="matrix(1.7060633897781372, 0, 0, 1.7060633897781372, -1.9, -3.85)"/>
    <g id="Middle_1_">
      <path id="ID0.028397698886692524" fill="#20891D" d="M 61.164 79.793 C 40.054 79.792 22.109 67.775 19.456 65.913 C 40.246 55.495 52.023 23.732 54.013 17.975 C 63.432 65.613 73.750 75.914 76.037 77.672 C 71.305 79.079 66.304 79.793 61.165 79.793 C 61.166 79.793 61.165 79.793 61.164 79.793 Z " transform="matrix(1.7060633897781372, 0, 0, 1.7060633897781372, -1.9, -3.95)"/>
      <path id="ID0.5585026354528964" d="M 53.946 18.919 C 62.876 63.579 72.610 75.032 75.517 77.564 C 70.941 78.877 66.118 79.543 61.163 79.543 C 40.879 79.543 23.519 68.401 19.942 65.946 C 39.708 55.745 51.260 26.426 53.946 18.919 M 54.077 17.002 C 54.077 17.002 42.164 54.596 18.972 65.874 C 18.972 65.874 38.045 80.043 61.164 80.043 C 66.174 80.043 71.371 79.378 76.608 77.760 C 76.608 77.760 64.663 71.154 54.077 17.002 L 54.077 17.002 Z " transform="matrix(1.7060633897781372, 0, 0, 1.7060633897781372, -1.9, -3.95)"/>
    </g>
    <path id="Snow_3_" fill="#FFFFFF" stroke="#000000" stroke-width="0.5" d="M 69.802 65.633 C 69.800 65.165 69.535 64.609 69.092 64.397 C 68.941 64.326 68.789 64.253 68.637 64.184 C 68.176 63.964 67.614 64.039 67.341 64.519 C 66.584 65.843 65.111 65.329 63.713 65.591 C 63.073 65.712 62.382 65.976 61.904 66.441 C 60.613 67.701 59.543 66.551 58.108 66.569 C 55.544 66.604 54.041 68.434 51.354 67.644 C 49.474 67.089 48.010 67.506 46.642 68.801 C 46.492 68.944 46.608 69.191 46.804 69.193 C 48.738 69.230 50 69.669 51.806 70.275 C 52.646 70.555 53.623 70.923 54.533 70.677 C 55.973 70.281 57.220 69.335 58.841 69.950 C 60.106 70.431 60.974 70.496 62.259 70.067 C 63.159 69.767 63.682 68.701 64.700 68.628 C 65.543 68.564 66.360 68.508 67.198 68.385 C 68.712 68.162 69.812 67.171 69.802 65.633 Z " transform="matrix(1.7060633897781372, 0, 0, 1.7060633897781372, -1.9, -3.85)"/>
    <path id="Snow_2_" fill="#FFFFFF" stroke="#000000" stroke-width="0.5" d="M 57.338 60.946 C 55.299 63.112 53.180 59.976 51.205 59.830 C 49.558 59.710 48.272 60.427 46.849 60.140 C 46.787 60.091 46.723 60.045 46.646 60.003 C 46.296 59.816 45.959 59.698 45.627 59.627 C 45.521 59.559 45.413 59.487 45.302 59.405 C 43.968 58.384 41.841 59.743 40.479 59.896 C 40.274 59.919 40.062 59.909 39.863 59.909 C 38.770 59.510 37.728 58.803 36.828 58.222 C 36.725 58.155 36.592 58.265 36.624 58.377 C 37.097 60.087 38.200 61.400 39.702 62.304 C 40.510 62.787 41.438 62.919 42.358 62.829 C 42.958 62.769 43.813 62.319 44.537 62.239 C 45.614 62.899 46.598 64.088 48.123 63.372 C 49.486 62.728 50.769 61.590 52.338 61.978 C 53.174 62.188 53.906 62.408 54.759 62.507 C 55.940 62.644 56.883 61.943 57.478 61.055 C 57.535 60.972 57.408 60.873 57.338 60.946 Z " transform="matrix(1.7060633897781372, 0, 0, 1.7060633897781372, -1.9, -3.85)"/>
    <path id="Snow_1_" fill="#FFFFFF" stroke="#000000" stroke-width="0.5" d="M 77.030 74.276 C 75.873 72.981 74.211 73.485 72.740 73.220 C 72.282 73.140 70.103 74.844 69.659 75.951 C 69.206 77.071 64.672 76.921 64.292 77.005 C 61.845 77.537 61.128 77.806 58.499 77.048 C 58.386 77.015 58.279 76.999 58.167 76.973 C 58.047 76.820 55.427 76.653 54.174 76.838 C 51.561 77.222 52.148 76.498 50.005 76.284 C 46.955 75.974 44.382 76.181 41.352 74.830 C 40.321 74.372 38.948 73.800 37.800 73.796 C 37.607 73.796 37.425 73.784 37.242 73.775 C 35.811 73.359 34.116 72.775 32.614 72.025 C 31.465 71.175 30.401 70.125 29.085 69.105 C 29.085 69.103 29.084 69.103 29.084 69.103 C 28.084 67.115 23.057 65.099 22.890 64.923 C 22.862 64.894 22.993 63.424 22.133 63.431 C 20.332 63.444 16.243 63.437 17.055 66.419 C 17.316 67.372 18.597 67.671 19.399 67.898 C 21.109 68.380 22.700 70.724 24.689 70.447 C 25.202 70.372 25.654 70.479 26.066 70.711 C 26.258 70.854 26.450 70.996 26.641 71.138 C 27.072 71.539 31.124 79.749 34.332 78.858 C 37.513 77.970 39.717 78.018 41.305 79.334 C 43.191 80.894 45.220 83.272 47.381 83.410 C 49.563 83.553 51.467 82.652 52.731 84.971 C 53.353 86.110 54.483 86.339 55.616 86.402 C 56.508 86.452 57.359 85.525 57.940 84.979 C 58.751 84.215 63.118 84.483 63.267 84.395 C 64.130 84.430 65.146 84.320 65.621 83.512 C 65.697 83.382 65.761 83.224 65.825 83.068 C 67.060 82.273 69.885 81.404 69.935 81.392 C 71.195 81.289 72.507 81.089 73.561 80.613 C 74.093 80.546 74.615 80.407 75.209 80.176 C 76.362 79.730 77.463 79.078 77.958 77.897 C 78.486 76.641 77.881 75.227 77.030 74.276 Z " transform="matrix(1.7060633897781372, 0, 0, 1.7060633897781372, -1.9, -3.85)"/>
    <g id="Top_1_">
      <path id="ID0.8162294235080481" fill="#20891D" d="M 62.987 51.989 C 47.063 51.988 33.768 43.195 31.597 41.680 C 43.335 34.671 51.922 23.349 57.125 8.022 C 57.375 7.288 57.729 5.707 57.991 4.461 C 61.114 41.981 67.552 49.892 69.576 51.474 C 67.430 51.816 65.218 51.989 62.991 51.989 C 62.991 51.989 62.989 51.989 62.987 51.989 Z " transform="matrix(1.7060633897781372, 0, 0, 1.7060633897781372, -1.9, -3.95)"/>
      <path id="ID0.5223679905757308" d="M 57.882 6.123 C 60.860 39.977 66.623 48.980 69.026 51.306 C 67.053 51.594 65.027 51.739 62.988 51.739 C 47.781 51.739 34.974 43.675 32.059 41.694 C 43.678 34.639 52.189 23.341 57.363 8.102 C 57.513 7.660 57.700 6.917 57.882 6.123 M 58.098 2.680 C 58.098 2.680 57.324 6.663 56.889 7.941 C 53.819 16.986 47.167 32.248 31.139 41.661 C 31.139 41.661 45.361 52.239 62.987 52.239 C 65.363 52.239 67.798 52.048 70.270 51.612 C 70.271 51.611 61.705 48.616 58.098 2.680 L 58.098 2.680 Z " transform="matrix(1.7060633897781372, 0, 0, 1.7060633897781372, -1.9, -3.95)"/>
    </g>
    <path id="Snow_6_" fill="#FFFFFF" stroke="#000000" stroke-width="0.5" d="M 72.163 52.206 C 71.576 48.732 67.028 45.965 63.829 45.053 C 62.281 44.611 59.590 45.863 60.629 47.786 C 61.092 48.650 60.396 47.963 59.508 47.902 C 58.775 47.853 58.281 47.944 57.652 48.080 C 56.502 47.863 55.357 47.603 54.214 47.350 C 53.080 46.094 51.683 44.939 49.854 45.124 C 48.074 45.306 46.027 45.707 44.319 44.946 C 42.600 44.179 41.400 42.526 39.751 41.800 C 38.122 41.081 36.178 39.337 34.474 39.060 C 31.868 38.635 26.788 38.926 29.451 43.184 C 30.474 44.821 33.807 44.336 35.188 45.857 C 35.513 46.213 36.076 46.506 36.547 46.608 C 38.451 47.021 39.839 47.421 41.383 48.735 C 42.888 50.013 44.995 49.648 46.896 49.944 C 47.479 50.155 48.824 50.620 48.905 50.676 C 49.664 51.196 50.910 51.292 51.768 51.393 C 53.255 51.566 54.206 52.687 55.736 52.626 C 57.252 52.566 59.834 52.226 60.941 52.404 C 62.586 52.668 63.476 53.191 65.148 52.964 C 67.658 52.624 69.007 54.785 71.565 53.350 C 71.923 53.150 72.236 52.627 72.163 52.206 Z " transform="matrix(1.7060633897781372, 0, 0, 1.7060633897781372, -1.9, -3.85)"/>
    <path id="Snow_5_" fill="#FFFFFF" stroke="#000000" stroke-width="0.5" d="M 62.478 35.080 C 61.320 34.978 60.153 35.391 59.223 36.063 C 58.902 36.296 57.631 35.376 57.342 35.207 C 56.796 34.889 56.066 34.932 55.466 34.978 C 53.768 35.116 52.782 35.811 50.973 35.291 C 49.787 34.951 48.861 35.111 48.013 35.976 C 47.965 36.025 47.999 36.093 48.055 36.112 C 49.744 36.674 51.344 37.979 53.083 38.200 C 53.697 38.279 54.273 38.121 54.854 37.944 C 56.341 37.489 56.922 38.657 58.153 38.911 C 59.660 39.775 62.151 39.712 63.506 39.213 C 66.055 38.275 64.662 35.271 62.478 35.080 Z " transform="matrix(1.7060633897781372, 0, 0, 1.7060633897781372, -1.9, -3.85)"/>
    <path id="Snow_4_" fill="#FFFFFF" stroke="#000000" stroke-width="0.5" d="M 54.196 27.653 C 54.279 27.557 54.249 27.438 54.148 27.371 C 53.518 26.950 52.932 26.970 52.377 26.364 C 51.902 25.843 51.407 25.248 50.689 25.062 C 49.898 24.857 49.240 25.081 48.525 25.418 C 48.378 25.496 48.245 25.592 48.125 25.709 C 48.064 25.758 48.023 25.797 47.997 25.829 C 47.767 25.800 47.539 25.787 47.305 25.861 C 45.652 26.378 46.076 28.886 47.707 29.095 C 48.389 29.182 48.951 29.061 49.561 28.749 C 49.803 28.624 50.040 28.482 50.291 28.380 C 50.606 28.252 50.963 28.353 51.295 28.213 C 51.399 28.170 51.497 28.107 51.588 28.034 C 52.455 28.466 53.526 28.454 54.196 27.653 Z " transform="matrix(1.7060633897781372, 0, 0, 1.7060633897781372, -1.9, -3.85)"/>
  </g>
</svg>