<svg version="1.1" width="26" height="36" xmlns="http://www.w3.org/2000/svg" xmlns:xlink="http://www.w3.org/1999/xlink">
  <!-- Exported by Scratch - http://scratch.mit.edu/ -->
  <g id="ID0.9087742972187698">
    <path id="ID0.6687679593451321" fill="#39B54A" d="M 84 84 L 105 84 L 105 126 L 84 126 L 84 84 Z " transform="matrix(0.2387952208518982, 0, 0, 0.2387952208518982, 0, 0.25)"/>
    <path id="ID0.41478168312460184" fill="#39B54A" d="M 21 63 L 84 63 L 84 84 L 21 84 L 21 63 Z " transform="matrix(0.2387952208518982, 0, 0, 0.2387952208518982, 0, 0.25)"/>
    <path id="ID0.1601519174873829" fill="#39B54A" d="M 0 126 L 84 126 L 84 147 L 0 147 L 0 126 Z " transform="matrix(0.2387952208518982, 0, 0, 0.2387952208518982, 0, 0.25)"/>
    <path id="ID0.0315268742851913" fill="#39B54A" d="M 21 63 L 0 63 L 0 0 L 105 0 L 105 21 L 21 21 L 21 63 " transform="matrix(0.2387952208518982, 0, 0, 0.2387952208518982, 0, 0.25)"/>
  </g>
</svg>