<svg width="61" height="76" xmlns="http://www.w3.org/2000/svg"><path fill="#0CC" d="M57.36 61.07c-1.64 4.61-5.25 8.32-11.05 11.38-.05.02-.1.05-.14.07-4.43 2.26-9.07 3.4-13.79 3.4-6.53 0-12.76-2.2-18.5-6.53l-.12-.09c-1.36-1.06-2.62-2.39-6.08-7.11-.32-.42-.6-.87-.85-1.34l-.97-1.84c-.67-.88-1.3-1.9-1.94-3.1-.34-.64-.61-1.3-.81-1.99-.6-1.98-1.34-4.82-2.27-8.67-.05-.2-.09-.41-.13-.61C.23 42.03 0 39.02 0 35.45c0-4.9.07-5.88.2-6.83.04-.23.08-.47.13-.7.29-1.39.87-3.44 3.16-8.92.27-.66.61-1.29 1.01-1.89.29-.43.69-1.04 1.2-1.83 2.56-4.55 6.36-8.29 11.28-11.1C21.24 1.78 25.66.4 30.18.04c.29-.03.59-.04.88-.04.62 0 1.13.02 5.17.4.38.04.75.09 1.12.17.46.09 1.05.23 4.44 1.09l.12.03c3.01.81 5.71 2.55 8.01 5.18 3.32 3.77 4.01 7.53 4.01 10.02 0 3.02-1.04 5.95-2.94 8.29 2.53 2.4 4.56 5.1 6.03 8.04.44.77.94 1.74 1.56 3.04.23.49.43 1 .59 1.52.52 1.71.81 3.62.91 6.01v.13c.04 1.3.07 2.24.08 2.82.3 3.58-.56 7.93-2.8 14.33z"/><path fill="#FFF" d="M49.178 47.417c.234 1.818-.498 5.16-2.198 10.027-.646 1.818-2.581 3.576-5.806 5.277-2.874 1.465-5.806 2.199-8.796 2.199-4.105 0-8.064-1.438-11.875-4.311-.528-.41-1.848-2.051-3.958-4.926l-1.496-2.814c-.41-.41-.879-1.113-1.407-2.111-.527-1.759-1.231-4.455-2.11-8.092-.353-1.936-.528-4.34-.528-7.213 0-3.107.029-4.867.088-5.277.233-1.113 1.085-3.432 2.551-6.949.353-.527.85-1.289 1.495-2.287 1.584-2.932 4.017-5.336 7.301-7.213 2.815-1.584 5.688-2.492 8.62-2.727.293 0 1.672.118 4.135.352.293.059 1.583.383 3.87.968.88.235 1.744.835 2.595 1.804.85.967 1.275 1.891 1.275 2.77 0 .528-.176.998-.527 1.408-.527.586-1.291.91-2.287.967-.938.119-1.672 0-2.199-.352-.294-.645-1.086-1.465-2.375-2.463-1.467-.586-2.902-.879-4.31-.879-4.165 0-7.8 2.346-10.907 7.037-2.757 4.221-3.93 8.092-3.519 11.609 3.928-3.811 8.884-5.717 14.865-5.717a24.9 24.9 0 0 1 2.902.176c.058 0 .234.088.528.264 2.228 0 4.603 1.057 7.125 3.167 2.287 1.878 3.987 3.988 5.102 6.333.293.471.732 1.319 1.319 2.551.233.764.381 1.848.439 3.255.057 1.935.088 2.991.088 3.167zm-5.366.047c.176-3.882-.675-6.971-2.551-9.266-2.815-3.588-6.363-5.383-10.644-5.383-3.988 0-8.151 2.501-12.49 7.501a21.2 21.2 0 0 0-.968.529c1.231 6.767 3.107 11.59 5.63 14.472 2.814 3.178 5.951 4.678 9.411 4.502 1.349.176 2.888-.016 4.618-.574 1.729-.557 3.005-1.338 3.827-2.338 1.936-2.295 2.992-5.441 3.167-9.443z"/></svg>