<svg width="64" height="86" xmlns="http://www.w3.org/2000/svg"><path fill="#0CC" d="M63.416 17.69c0 1-.1 2.01-.3 3-.06.3-.13.59-.21.88-1.14 4.03-3.73 10.7-8.13 21l-5.69 16.62c-.7 2.41-1.71 5.81-3.02 10.2-.03.11-.07.22-.11.33-.01.05-.08.28-.12.79-.13 2.02-.41 3.76-.84 5.31-.78 2.88-2.54 5.43-4.99 7.18-1.24.9-2.65 1.52-4.13 1.83-.26.07-.67.18-1.25.34-1.22.36-2.49.54-3.78.54-1.52 0-3.06-.25-4.58-.75-1.92-.64-3.62-1.79-4.92-3.31a11.035 11.035 0 0 1-2.9-3.89c-1.24-2.77-1.47-5.85-.68-9.15.42-1.89 1.1-4.51 2.09-8 .05-.18.11-.37.17-.55.85-2.49 2.1-6.3 3.72-11.35.17-.5.36-.98.59-1.44.35-1.35.72-2.67 1.12-3.97-2.54 1.87-5.66 2.89-9.11 2.89-1.85 0-3.7-.29-5.5-.88-4.92-1.58-8.31-5.45-9.06-10.38-.01-.04-.02-.08-.02-.12-.29-2.02-.28-4.7.04-8.84-.06-.79-.16-2.21-.3-4.26 0-.05-.01-.1-.01-.15-.06-1.09-.22-2.02-.47-2.75-.02-.04-.03-.07-.04-.1-.59-1.78-2.39-7.16 1.13-12.07C5.096 2.42 9.766 0 14.946 0c4.31 0 8.22 1.76 10.97 4.81.56.02 1.12.07 1.67.16 3.87.6 7.59 1.89 11.1 3.85 2.51-2.92 6.27-4.68 10.65-4.68 8.16 0 14.08 5.7 14.08 13.55z"/><path fill="#FFF" d="M52.325 18.569c-.998 3.518-3.606 10.203-7.829 20.055-.118.352-2.082 6.1-5.894 17.24a2035.19 2035.19 0 0 1-3.078 10.379c-.353 1.057-.572 2.229-.66 3.52-.088 1.289-.25 2.344-.483 3.166-.118.469-.382.85-.792 1.145-.059 0-.733.176-2.022.527-.528.176-1.144.145-1.848-.088-.235-.412-.646-.822-1.231-1.232-.235-.527-.235-1.26 0-2.197.354-1.641 1.003-4.131 1.949-7.475.879-2.579 2.14-6.42 3.783-11.521.058 0 .176-.146.352-.44 1.053-4.341 2.371-8.417 3.952-12.229 1.11-2.58 2.574-6.509 4.39-11.787-.235.059-.587.088-1.056.088-2.581-.293-4.429-.689-5.542-1.188-1.114-.498-2.785-1.334-5.014-2.508-2.405-1.583-4.134-2.375-5.189-2.375-.587 0-1.1.338-1.539 1.012-.44.675-.836 1.335-1.188 1.979-.06.118-.323.587-.792 1.407-.352 1.115-1.086 3.254-2.199 6.421-.763 1.818-2.11 2.728-4.046 2.728a6.607 6.607 0 0 1-2.111-.353c-.938-.292-1.466-.82-1.583-1.583-.176-1.231-.118-3.635.176-7.213 0-.058-.118-1.76-.352-5.102-.118-2.111-.47-4.016-1.056-5.718-.411-1.231-.527-1.964-.352-2.198.938-1.35 2.228-2.023 3.87-2.023 1.524 0 2.639.646 3.343 1.936.409.762.557 1.965.439 3.605-.235 1.818-.206 3.05.088 3.694 2.814-3.224 5.189-4.69 7.125-4.397 2.639.41 5.189 1.318 7.652 2.727a89.65 89.65 0 0 1 3.958 2.375c1.584.938 2.873 1.495 3.871 1.671.703.118 1.904-.321 3.606-1.319.879-.527 1.348-1.686 1.407-3.475.058-1.787 1.025-2.683 2.902-2.683 2.052 0 3.079.851 3.079 2.551.002.292-.028.585-.086.878z"/></svg>