<svg width="62" height="81" xmlns="http://www.w3.org/2000/svg"><path d="M28.454.912h1.861c-.42 1.52 5.073 1.52 4.654 0h.931c.025.905 1.14.722 1.862.93-.464 7.982 5.39 13.315 3.723 19.546 8.249 13.469 9.252 34.184 19.546 45.608v1.862c-5.304-.207-.517 4.836-2.793 6.515-2.55 3.033-9.987 1.182-12.1 4.654h-2.792c-3.76-9.076-3.15-17.742-8.377-26.062-12.837-2.287-12.807 8.29-14.892 16.754-2.2 2.144-4.323 4.365-4.654 8.377-5.146-.44-10.608-.561-14.892-1.861v-1.862C6.149 53.378 11.733 31.35 16.354 8.358c8.943 2.427 4.704-8.327 12.1-7.446zM24.73 5.565C20.259 27.155 13.94 46.9 9.838 68.858c3.6-.498 4.544 1.661 8.377.93 1.26-8.047 3.729-14.886 4.654-23.269 6.264.059 10.08-2.33 15.823-2.792 2.832 8.958 7.096 16.484 10.239 25.13 3.451.66 3.995-1.59 7.446-.93-3.441-8.844-8.616-19.234-9.308-27.923-6.412-9.101-8.117-22.91-11.169-35.37-5.38.567-8.139-1.984-11.17.931z"/><path fill="none" d="M30.315.912h4.654c.42 1.52-5.073 1.52-4.654 0zm5.585 0h25.13v66.084c-10.293-11.424-11.296-32.14-19.545-45.608 1.668-6.231-4.187-11.564-3.723-19.546-.723-.208-1.837-.025-1.862-.93z"/><path fill="#FF9400" d="M35.9 4.635c3.052 12.46 4.757 26.268 11.17 35.369.69 8.69 5.866 19.079 9.307 27.923-3.451-.66-3.995 1.59-7.446.93-3.143-8.646-7.407-16.172-10.239-25.13-5.743.463-9.559 2.85-15.823 2.792-.925 8.383-3.393 15.222-4.654 23.27-3.833.73-4.776-1.43-8.377-.931C13.941 46.899 20.26 27.155 24.731 5.565c3.03-2.915 5.788-.364 11.169-.93zm-10.238 36.3c5.262-1.38 8.207-1.923 13.03-.931-1.128-8.8-4.916-14.94-6.515-23.27-.206-.724-.78-1.082-1.862-.93-2.755 6.647-4.924 18.525-4.653 25.13z"/><path d="M30.315 15.804c1.082-.152 1.656.206 1.862.93 1.599 8.33 5.387 14.47 6.515 23.27-4.823-.992-7.768-.449-13.03.93-.271-6.605 1.898-18.483 4.653-25.13zm0 20.477c.15-2.941.033-5.617-1.861-6.516.678 2.114-1.677 7.262 1.861 6.516z"/><path fill="none" d="M28.454 29.765c1.894.899 2.01 3.575 1.861 6.516-3.538.746-1.183-4.402-1.861-6.516zm14.892 50.262c-13.963-.618-30.402 1.238-42.815-.93v-1.862c4.284 1.3 9.746 1.422 14.892 1.861.331-4.012 2.454-6.233 4.654-8.377 2.085-8.464 2.055-19.041 14.892-16.754 5.227 8.32 4.618 16.986 8.377 26.062zM61.03 68.858v11.169H46.139c2.113-3.472 9.55-1.62 12.1-4.654 2.276-1.679-2.51-6.722 2.793-6.515z"/></svg>