<svg width="74" height="75" xmlns="http://www.w3.org/2000/svg"><path fill="#0CC" d="M73.78 52.06c-.03-.35-.07-.69-.12-1.03-.19-1.12-.77-4.52-3.51-7.26-.26-.26-.54-.51-.83-.74-2.88-2.36-6.37-3.5-9.96-3.23-.43-1.12-.8-2.1-1.11-2.93-.05-.13-.11-.26-.16-.39-2.87-6.86-4.98-11.9-6.33-15.12-.05-.12-.1-.23-.15-.35-.69-1.5-.87-2.02-.88-2.04-.11-.34-.24-.68-.39-1.01-.37-.83-.66-1.48-.86-1.95-.09-.27-.31-1-.76-2.66-.75-2.8-1.56-4.89-2.58-6.6C43.95 3.05 40.23.63 35.95.09 35.49.03 35.03 0 34.57 0c-.44 0-.44 0-3.36.2-4.05.27-7.46.67-10.43 1.22l-.15.03c-1.34.27-2.32.45-2.95.56-2.9.51-5.58 1.92-7.73 4.07-3.48 3.49-4.68 8.53-3.14 13.16.64 1.9 1.79 3.6 3.32 4.9.89.76 3.34 2.84 6.95 3.42-.95 4.56-1.87 8.62-2.76 12.16-.06.22-.11.44-.15.66-.03.16-.06.31-.08.46-.87.01-1.72.06-2.53.17-.09.02-.17.03-.26.04C4.54 42.18 0 47.53 0 54.37c0 4.23 2.13 8.18 5.69 10.55.1.08.21.15.32.21 2.32 1.43 5.11 2.22 9.35 2.64.06.01.12.02.18.02 5.91.49 7.24.62 7.52.65 1.36.19 2.24.31 2.66.37.62.11 1.25.16 1.91.16 1.77 0 3.5-.32 5.11-.94.77 1.29 1.77 2.46 2.98 3.45 2.48 2.04 5.4 3.12 8.44 3.12.13 0 .26 0 .39-.01 3.92-.13 7.02-1.08 9.5-2.87.14-.1.27-.2.4-.31 2.55-2.03 5.73-3.8 9.44-5.26 1.96-.72 4.76-1.97 6.92-4.44.13-.14.24-.28.35-.42 1.38-1.74 2.95-4.75 2.62-9.23zM20.99 66.75c1.02.77 2.19 1.37 3.44 1.76-1.26-.37-2.42-.98-3.44-1.76z"/><path fill="#FFF" d="M62.546 54.454c-.412.47-1.262.938-2.551 1.407-4.811 1.877-8.943 4.193-12.402 6.949-.646.469-1.791.732-3.432.791-.47 0-.954-.206-1.451-.615-.499-.41-.748-.88-.748-1.407 0-.704.792-1.612 2.375-2.728a110.784 110.784 0 0 0 3.344-2.199c.057-.292-.91-3.752-2.906-10.379-3.228-.058-8.305.996-15.229 3.165-.412.118-.647.352-.705.704-.059.352-.147.937-.264 1.758-.113.176-.225.439-.337.791 0 .235.337.485 1.012.749.673.265 1.1.515 1.275.748.176.235.264.527.264.88 0 .703-.308 1.364-.924 1.98a3.054 3.054 0 0 1-2.242.923c.058 0-.998-.146-3.167-.439-.411-.058-3.079-.293-8.005-.703-2.346-.234-3.9-.586-4.661-1.056-.528-.352-.792-.821-.792-1.407 0-1.408.704-2.229 2.111-2.463.82-.117 1.876-.059 3.166.176.293.118 2.608.322 6.949.615.352-2.463.938-5.894 1.759-10.291 1.817-7.213 3.724-16.361 5.718-27.444a9.504 9.504 0 0 0-1.847-.176c-1.115 0-2.771.323-4.971.968-2.198.646-3.826.968-4.882.968-.41 0-.997-.321-1.759-.968-.235-.704-.074-1.333.483-1.891.557-.557 1.173-.894 1.848-1.012a140.83 140.83 0 0 0 3.211-.616c2.521-.469 5.57-.82 9.147-1.056 1.7-.116 2.58-.176 2.639-.176.938.118 1.642.572 2.111 1.363.469.792.938 2.067 1.407 3.826.586 2.171.981 3.49 1.188 3.959.205.47.542 1.231 1.012 2.287.233.703.673 1.759 1.319 3.166 1.349 3.226 3.459 8.269 6.334 15.129 1.055 2.815 2.727 7.097 5.014 12.843.996-.117 2.287-.616 3.869-1.495 1.584-.88 2.756-1.319 3.52-1.319.703 0 1.377.264 2.023.791.176.176.32.616.439 1.319.059.764-.029 1.292-.262 1.585zM43.018 41.703c-1.001-1.935-2.264-4.869-3.792-8.8-.588-1.349-2.174-4.868-4.761-10.56l-4.35 22.176c5.267-.996 9.391-1.759 12.376-2.288.351-.233.527-.41.527-.528z"/></svg>