<svg width="62.218" height="63.375" xmlns="http://www.w3.org/2000/svg"><path fill="#EC1C2C" d="M59.083 34.402c0 14.527-12.525 26.307-27.978 26.307-15.453 0-27.977-11.775-27.977-26.307 0-14.527 12.523-21.275 27.977-21.275 15.452-.001 27.978 6.749 27.978 21.275z"/><g fill="#231F20"><path d="M34.285 11.96c-4.608-.391-9.136.189-9.136.189C10.821 13.473 0 19.883 0 34.121c0 16.156 13.928 29.254 31.107 29.254 17.182 0 31.109-13.098 31.109-29.254 0-15.144-12.247-21.431-27.931-22.161zm-3.177 47.373c-14.559 0-26.357-11.099-26.357-24.785 0-12.064 9.169-18.433 21.314-19.774.249-.029 8.456-.144 8.456-.144 12.942.936 22.949 7.318 22.949 19.92-.006 13.686-11.804 24.783-26.362 24.783z"/><path d="M40.332 19.062c-2.303-.761-4.617-.241-6.929.389-1.916.608-6.112 1.162-6.19 1.098-1.198-.058-2.389-.358-3.571-1.099-.48-.303-.982.378-.598.773 1.768 1.803 4.068 1.782 6.455 1.514 3.575-.401 6.993-.491 10.561-.672 1.16-.061 1.373-1.639.272-2.003z"/></g><path fill="#FFF" d="M12.555 34.261c0 3.431 1.85 6.212-.084 6.212-1.934 0-3.5-2.781-3.5-6.212 0-3.43 1.566-6.211 3.5-6.211s.084 2.782.084 6.211z"/><path fill="#99661D" d="M29.515 20.766c.371-.066.973-.13 1.348-.219.062-4.827.538-9.648-1.624-14.212-.592-1.253-1.33-2.354-2.064-3.482-1.02.611-2.038 1.223-3.059 1.833 4.194 4.296 5.657 9.932 5.399 16.08z"/><path fill="#231F20" d="M28.602.6c-.393-.523-1.078-.782-1.658-.435-1.805 1.084-3.607 2.168-5.414 3.252-.637.383-.838 1.371-.242 1.898 3.477 3.091 4.617 6.041 4.9 6.557.592 1.081 1.592 4.534 1.562 7.749l.046 1.609c1.479.562 5.25-.562 5.25-.562.021-.354.251-2.23.251-2.23.169-.761.833-10.48-4.695-17.838zm2.153 19.78l-1.109.141v-1.152c.05-5.714-1.568-10.625-5.53-14.683 1.021-.61 2.039-1.222 3.059-1.833.734 1.128 1.472 2.229 2.064 3.482 2.012 4.247 1.634 8.375 1.522 12.817l-.006 1.228z"/></svg>