<svg xmlns="http://www.w3.org/2000/svg" viewBox="0 0 39.9 51.5"><path fill="#F7941E" d="M39.9 32.1c-.2-2-.6-3.9-2.1-5.3-.3-.3-.6-.7-.9-1-1-.9-1.9-1.8-3-2.5-.9-.6-2-1.1-3.1-1.6.2-.1.3-.2.5-.2 3.8-1.6 5.2-4.8 5.4-8.7 0-.7-.2-1.4-.3-2.1-.3-1.3-.6-2.5-.9-3.8-.3-1.3-1.4-2.1-2.3-2.9-1.5-1.3-2.8-2.8-4.9-3.1-1.8-.2-3.6-.7-5.4-.8-1.9-.1-3.7 0-5.6 0-2.8.1-5.6.2-8.4.2H4.4C3.9.3 3.3.4 3 .7 2 1.9 1.1 3.2.1 4.4c-.1.1-.1.3-.1.4C0 6 0 6 1.3 6.3c.4.1.9.1 1.3.2.6.1 1 .4 1 1.2v4.1c0 5.8 0 11.6-.5 17.4v.2C3 32 3 34.4 3 36.9c0 1.5.1 2.9 0 4.4-.1 1.6-.2 3.1-.4 4.6 0 .3-.3.5-.4.7-.6.8-1.3 1.6-1.8 2.5-.4.4-.4 1.1-.3 1.6 0 .2.7.2 1.1.3.5.1 1 .1 1.5.1l13.8.3c2.5 0 5.1.2 7.6 0 1.8-.1 3.6-.6 5.4-1.2 2.1-.7 3.6-2.4 5.1-4 1.5-1.6 2.9-3.3 3.7-5.4 1.1-2.8 1.8-5.7 1.6-8.7zm-2.2 8.3c-.5 1.2-1.5 2.2-2.5 3.2-.7.8-1.6 1.5-2.5 2-1.7 1-3.7 1.4-5.7 1.5-5.4.2-10.8.3-16.2.3-2.1 0-4.2-.2-6.3-.3-.3 0-.5-.3-.8-.5.2-.2.4-.6.7-.7.3-.1.7-.1 1.1-.1 1.5-.1 1.9-.5 2-2.1.1-2.1.2-4.2.3-6.4.2-2.1.2-4.2.3-6.2V17.2c0-3.7.2-7.4.1-11.1 0-1-.4-2-.8-2.9-.3-.8-1.2-1-2-1.2-.5-.1-1-.2-1.5-.4v-.3c.1-.1.3-.3.6-.3l8.7-.3c3 0 6 .1 8.9 0 2.2-.1 4.2.4 6.2.9.6.2 1.4.2 1.8.5 1.3 1.1 2.6 2.2 3.8 3.5 1.2 1.2 1.6 2.8 1.9 4.5.3 1.9.4 3.8-.2 5.7-.8 2.5-2.5 4-4.8 5-.8.3-1.6.5-2.6.7.4.2.5.2.8.3 2.3.7 4.6 1.5 6.4 3.2 1.6 1.5 3.2 3 3.7 5.3.2 1 .3 2.1.4 3.1-.1 2.5-.8 4.9-1.8 7z"/><path fill="#FFF" d="M39 30.4c-.5-2.3-2.1-3.8-3.7-5.3-1.8-1.7-4.1-2.5-6.4-3.2-.2-.1-.4-.1-.8-.3 1-.3 1.8-.4 2.6-.7 2.3-1 4-2.4 4.8-5 .6-1.9.5-3.8.2-5.7-.2-1.7-.7-3.3-1.9-4.5-1.2-1.2-2.4-2.4-3.8-3.5-.5-.4-1.2-.4-1.8-.5-2-.5-4.1-1-6.2-.9-3 .1-6 0-8.9 0-2.9 0-5.8.2-8.7.3-.2-.1-.4.1-.6.1v.3c.5.1 1 .3 1.5.4.8.2 1.6.4 2 1.2.4.9.8 1.9.9 2.9 0 3.7-.1 7.4-.2 11.1V31c0 2.1 0 4.2-.1 6.2-.1 2.1-.2 4.2-.3 6.4-.1 1.5-.5 2-2 2.1-.4 0-.8 0-1.1.1-.3.1-.5.5-.7.7.3.2.6.5.8.5 2.1.1 4.2.3 6.3.3 5.4 0 10.8-.1 16.2-.3 2-.1 3.9-.5 5.7-1.5.9-.5 1.8-1.2 2.5-2 .9-1 1.9-2 2.5-3.2 1-2.2 1.7-4.5 1.6-6.9-.1-.9-.2-2-.4-3zM10.6 4.7s.1 0 .2-.1c0 .3.2.6.2.9.1 1.1.3 2.2.2 3.3-.4 4 0 8 .2 12 0 .8 0 .8-.8.9v-17zm.6 31.5v5.3c0 .9-.2 1.8-.2 2.6h-.3c0-.8-.1-1.5-.1-2.3 0-5.1.1-10.1.2-15.2 0-.2.2-.4.4-.6.1.2.3.4.3.6-.2 3.3-.2 6.5-.3 9.6zM11 24.6c-.5.1-.8-.3-.8-.8 0-.2.3-.5.4-.7h.3c.2.3.5.6.6.9.1.2-.3.5-.5.6zM34.9 37c-.3 1.4-1 2.7-1.8 3.9-.8 1-1.8 1.9-2.9 2.6-3.8 2.2-7.9 2.6-12.2 1.9-.6-.1-1.2 0-1.8 0-1.7.1-2.3-.5-2.3-2.1 0-4 .1-7.9.1-11.9 0-2.5-.3-5.1-.3-7.7 0-5.5.1-11 .1-16.5V4.5c-.1-1.4.5-2 1.8-2.1 2.2-.1 4.5-.1 6.7 0 1.5.1 3 .4 4.4.9 1.4.6 2.6 1.6 3.4 3 1.4 2.5 2 5.3 1.7 8.1-.2 1.6-1 3-1.9 4.3-.1.1-.3.2-.5.3-3 1.6-6.1 2.8-9.5 2.5-.6 0-1.1.1-1.7.2v.4c1.1.1 2.3.2 3.4.3 1.8.2 3.6.1 5.3.9.8.4 1.7.8 2.4 1.4 1.8 1.5 3.4 3.2 4.8 5.1 1.6 2.3 1.4 4.8.8 7.2z"/><path fill="#F7941E" d="M34 29.8c-1.4-1.9-3-3.6-4.8-5.1-.7-.6-1.6-1-2.4-1.4-1.7-.8-3.5-.7-5.3-.9-1.1-.1-2.3-.2-3.4-.3v-.4c.5-.1 1.1-.2 1.7-.2 3.5.3 6.6-.9 9.5-2.5.2-.1.3-.2.5-.3.9-1.3 1.8-2.8 1.9-4.3.3-2.9-.3-5.6-1.7-8.1-.8-1.4-2-2.4-3.4-3-1.4-.5-2.9-.8-4.4-.9-2.2-.2-4.5-.2-6.7 0-1.3.1-1.9.6-1.8 2.1v2.7c0 5.5-.1 11-.1 16.5 0 2.6.2 5.1.3 7.7 0 4 0 7.9-.1 11.9 0 1.7.5 2.2 2.3 2.1.6 0 1.2-.1 1.8 0 4.3.8 8.4.4 12.2-1.9 1.1-.6 2.2-1.5 2.9-2.6.8-1.1 1.4-2.5 1.8-3.9.7-2.4.9-4.9-.8-7.2zM14.4 6.1c.7 0 1.3 0 2 .1 1.7.2 3.5.4 5.1.8 2.8.7 4.2 2.9 4.8 5.6.2 1 .3 2.1.3 3.2-.1 1.9-.7 3.3-2.5 4.3-.9.5-1.8.5-2.7.6-.4.1-.9.1-1.3 0-2-.2-3.5.7-4.7 2.2-.2.3-.5.6-.8.8-.1 0-.1-.1-.2-.1V6.1zm12 37.9c-2.5.8-5 1-7.6.8-1.1-.1-2.2-.1-3.3-.2-.9-.1-1.1-.7-1.1-1.5.1-1.9.2-3.7.1-5.6 0-3.4-.1-6.8-.1-10.1V27c.1 0 .2-.1.3-.1 3.4.2 6.7.3 10 1.2 1.8.5 3 1.7 4 3.2 1.4 2 1.7 4.3 1.7 6.5.1 2.1-1.4 5.4-4 6.2zM11.3 26.7c0 3.2-.1 6.4-.1 9.6v5.3c0 .9-.2 1.8-.2 2.6h-.3c0-.8-.1-1.5-.1-2.3 0-5.1.1-10.1.2-15.2 0-.2.2-.4.4-.6-.1.2.1.4.1.6zm-.7-5v-17s.1 0 .2-.1c0 .3.2.6.2.9.1 1.1.3 2.2.2 3.3-.4 4 0 8 .2 12 .1.8 0 .8-.8.9zm1 2.3c0 .1-.3.5-.6.5-.5.1-.8-.3-.8-.8 0-.2.3-.5.4-.7h.3c.3.4.6.7.7 1z"/></svg>