<svg width="150" height="150" xmlns="http://www.w3.org/2000/svg"><path fill="#FF9CD1" d="M74.877 91.977c8.803 3.314 22.496 13.125 25.498 15.205 3.661 2.566 8.968 4.741 7.896 7.668 3.043 1.166 5.881 1.006 8.638.389 2.467-.553 1.012-2.875-3.454-4.809-3.456-1.494-10.283-7.018-13.244-9.486-5.021-4.187-6.868-7.243-12.01-11.305-2.057-1.623-3.659-2.957-6.579-2.856-3.333.125-8.268 2.79-6.745 5.194zm-25.006-.259c-1.932 2.435-.082 7.405-.493 10.265-1.687 11.145 2.797 15.074 4.112 25.341 2.714.194 5.552-.065 6.416-2.08.988-2.208-2.015-2.563-2.961-4.808-2.015-4.679-.329-8.479.658-13.385.986-4.904.823-7.893 2.796-12.605.782-1.913-.166-4.223-2.632-4.807-3.085-.746-6.169-.099-7.896 2.079z"/><path fill="#FF5BA1" d="M54.477 68.587c-2.735 0-5.075-.297-7.074.39-1.744.6-2.543 2.308-4.36 3.25-1.079.558-3.013.426-4.36.778-1.81.478-4.485.666-5.922 1.755-3.36 2.547-4.16 6.989-1.48 9.811 2.098 2.209 6.046.357 8.554 2.34 2.509 1.982 2.304 5.459 5.759 5.847 3.248.39 5.099-.26 8.39-.26 3.208 0 4.482 2.144 7.567 1.495 3.331-.684 4.03-2.729 7.486-3.055 3.331-.324 6.786 2.502 9.128.648 4.731-3.736 14.065-1.494 14.808-6.757.369-2.664 3.742-3.995 2.633-6.496-1.15-2.632-3.826-3.509-7.238-4.289-2.676-.618-3.66-1.853-5.924-3.119-3.536-1.982-6.579-1.234-10.732-2.307V51.434c-3.579 0-5.594.326-9.172.52-3.084.162-7.073.423-7.073 2.858-.002 5.361-.99 8.415-.99 13.775z"/><path fill="#CF8C6E" d="M54.807 58.451c-4.03-.324-7.403-3.995-9.542-7.927-2.386-4.32-4.977-5.977-6.169-10.59-.699-2.632-1.48-4.125-1.727-6.822-.124-1.429.083-2.664-.988-3.768-1.85-1.918-2.878-2.405-3.947-4.678-.412-.909-1.069-2.923.165-2.923 1.152 0 1.398.714 2.303 1.234 1.152-1.853.247-3.769 2.304-5.068 1.233.78 1.975 1.787 2.222 3.054 1.193-.683 2.715-1.961 2.715-.78 0 .78-.166 2.501-.742 3.638 1.087 0 2.816-.181 2.879.455.15 1.504-2.633 4.204-2.633 6.238 0 3.378.535 5.49 2.633 8.446 4.359 6.172 9.007 11.305 17.932 11.305 8.884 0 15.341-5.36 16.779-12.28.657-3.184.739-6.107.247-9.356-.328-2.242-3.62-1.43-5.347-3.184-.45-.454.156-1.3 1.317-1.559.748-.167 1.981.131 2.467.196.657-1.559-1.728-3.087-2.139-4.678-.246-.942.123-1.852 1.315-1.624.862.163 1.027.812 1.48 1.429 0-1.461-.042-3.704 1.811-3.507 1.604.162 2.098 1.981 2.221 3.248 1.316-.812 1.152-1.689 2.879-1.689.41 4.191-2.633 6.205-2.467 10.396.164 4.255.82 6.66.82 10.916 0 8.577-2.384 15.204-11.515 20.012.781-1.917.166-3.151-.164-5.166-2.028.454-2.255 2.206-3.208 3.542-1.098 1.537-2.905 2.655-5.347 2.794-3.227.184-4.689-2.469-5.757-5.392-.713-.809-1.459-.861-2.796-.976.779 1.88-.001 3.081-.001 5.064z"/><path fill="#272525" d="M82.729 17.68c.424-.629 1.525-1.721 2.76-.747 1.244.984-.658 6.919-2.658 9.419 2.072 8.149 2.822 26.835-9.266 32.381-.082 2.697.789 12.542-.604 14.401-.263.353-.93.39-1.359.556-1.64-.244-.96-2.086-.856-3.022.759-6.877 1.222-12.125.603-19.094.319-.451.933-.213 1.108.159.158.334.803 4.388.856 4.972 9.379-4.426 10.694-22.1 8.393-30.611 1.15-2.047 4.188-7.102 2.586-7.578-1.6-.478-.82 2.625-2.503 4.233-.054-2.049.304-6.442-1.576-6.421-1.879.021 1.021 6.233-.401 7.08-.453-.298-1.029-5.184-3.021-4.773-1.991.41 2.473 4.037 1.965 6.285-1.312.342-3.657-1.618-3.979.279.318.624 1.275.87 2.016 1.075 1.479.409 1.962-.983 2.695.666 2.771 6.219-.92 17.473-6.322 22.526l-.604-.198c-.381-2.266 9.5-10.833 5.817-21.742-2.76-.56-6.539-1.365-4.607-3.917.367-.485 1.153-.696 2.819-.199.253-1.908-3.053-3.571-1.21-5.648.939-1.058 2.051-.493 2.871.278.041-1.011.48-2.836 2.064-3.023 1.95-.233 2.027 2.506 2.413 2.663zM39.59 20.377c.699-1.365 2.735-1.379 3.151-.51.259.536-.206 2.327-.806 3.336.74-.421 1.347-.825 2.016-.55 3.228 1.325-1.702 5.444-1.813 6.763-.416 4.943 3.121 10.871 7.251 14.4 1.551 1.326 3.571 2.388 4.935 3.819.06.419.039.927-.502 1.153-.745-.132-1.666-.779-2.268-1.153-7.306-4.556-11.042-12.399-11.028-19.572 1.108-.899 3.893-3.221 2.568-3.699-1.325-.479-1.775 1.591-2.67 2.386-1.538-.189 2.534-6.667.705-6.324-1.829.341-2.75 4.252-2.856 5.02 0 0 1.057-7.341-.87-6.253-1.927 1.089-.3 6.081-.706 6.683 0 0-2.569-4.31-3.564-3.321-.997.988 2.641 5.448 4.975 6.742.345 9.006 6.992 24.997 16.115 28.005.313-2.327.323-4.665.455-7 .266-.144.363-.494.755-.358 1.616 3.899.782 18.208-.857 22.316-1.39-.098-1.545-.688-1.36-1.592.676-3.288 1.17-7.779 1.007-11.099-9.779-4.864-17.597-20.424-17.425-29.398-3.219-1.982-5.795-5.024-5.086-8.394.264-1.263 1.523-2.253 2.77-.875l.748 1.001c.042-1.624.65-3.351 1.217-3.865.76-.691 2.379-.589 2.77.318.203.472.496 1.046.373 2.021zm30.951 32.31c-.306 2.933-.759 6.093-4.734 7.28-1.684.503-4.546.226-6.043-.596-2.321-1.275-2.704-4.656-2.571-6.637.193-.305 1.318-.666 1.562-.064-2.006 5.362 9.195 10.546 10.428-.26.48-.093.956.09 1.358.277z"/><path fill="#272525" d="M52.259 68.36c.144 2.03-3.043.12-4.582 1.631-4.602 4.514-7.61 2.041-12.338 4.495-2.051 1.065-3.738 2.81-3.979 4.774-.268 2.194.861 4.499 3.273 5.729 1.825.931 4.987.017 6.296 1.712 1.255 1.624 3.491 5.139 6.144 5.25 3.189.132 6.233-1.932 9.316-.396 2.256 1.119 3.467 2.006 6.296 1.352 2.804-.648 4.755-3.592 7.958-2.506 2.287.776 4.224 1.553 6.546.317 1.369-.727 2.109-1.961 3.728-2.387 3.267-.856 9.917.334 10.022-2.388.086-2.233 3.156-2.963 3.625-5.252.467-2.268-.607-3.864-2.869-5.25-2.609-1.598-6.491-.596-8.834-2.312-.522-.383-.674-.835-1.086-1.229-1.252-1.194-4.912-1.964-6.8-1.909-.46-.376.037-.871.252-1.233 2.171-.873 5.136-.085 7.151.756 2.245.938.974 2.841 7.252 3.7 3.761.515 8.526 2.714 8.31 6.404-.164 2.8-4.418 2.823-4.582 6.403-.056 1.218-1.564 3.049-3.123 3.343-3.52.663-6.75-.328-9.944 1.735-.706.459-1.077 1.062-1.69 1.525-2.789 2.111-6.979-2.361-10.122-.874-1.75.829-2.539 1.823-4.583 2.308-4.16.984-4.454.071-8.108-.955-2.363-.664-10.918 2.805-15.259-2.107-1.033-1.169.426-3.477-1.914-4.098-2.292-.607-4.677.891-7.001-.6-5.871-3.755-2.699-12.716 4.484-14.119 2.027-.397 4.058.303 5.893 0 2.091-.346 2.378-3.314 4.985-4.019.903-.243 4.776-.496 5.283.2z"/><path fill="#272525" d="M69.452 70.059c.438.014.697.185.485.769-2.075 1.634-11.461.311-14.051-.477-.206-.217-.284-.51-.101-.756 2.981.492 11.277 1.007 13.667.464zm-.27 3.552c.503 0 1.158-.041 1.36.397.05.556-.555.835-1.108 1.034-5.036.357-10.475.438-14.605-1.511 0-.317 0-.716.453-.796 4.23 1.354 9.166 1.354 13.9.876zm-16.923.557c-.902.571-2.292.111-3.122.796-1.975 1.632-1.393 5.123-5.339 5.251-1.842.059-3.165-1.627-5.086-1.074-1.822.521-2.686 4.446-4.936 3.144-.551-.32-.604-1.283-.251-1.712 3.936-4.782 9.665-.971 11.834-3.422 3.443-3.887 5.763-4.73 6.9-2.983zm22.361.398c3.541-.687 2.721 4.148 4.835 4.694 1.793.462 3.828-.417 6.396.356 4.096 1.234 2.854 6.682 0 4.416-.785-.624.297-2.658-1.41-3.182-2.084-.641-7.402 1.451-8.36-1.035-.569-1.476 1.263-3.301-1.461-5.249zM44.757 88.014c1.149-2.971 7.296-3.179 7.856-6.087.253-1.323.219-5.088 6.042-5.928-.806.19-3.392 2.226-3.978 3.739-.635 1.633 1.327 3.604-1.059 4.775-1.718.844-3.767.663-4.834 2.269-.549.819-.5 2.135-1.812 2.504-.638.18-2.694-.039-2.215-1.272zm24.172 1.072c-2.51-1.005 1.45-2.453-.201-3.54-1.167-.771-4.661-1.993-3.525-3.619.851-1.218 1.85-2.936 1.108-4.417-.143-.281-.44-.408-.504-.756.185-.247.549-.221.856-.277 6.364 2.809-1.877 5.809 3.021 7.834 3.298 1.369 3.2 4.557-.755 4.775zm19.21-.08c5.443 4.566 22.475 21.573 30.004 22.723 2.906.442 8.022 1.799 10.651 3.653 3.295 2.322-8.879 7.651-21.151 2.108-1.883-.85-.609-3.362-.354-4.973-6.479-4.885-24.215-16.77-31.591-19.894 1.21-.267 1.862-1.092 3.122-.478 6.77 3.297 22.48 14.107 28.216 18.539.847.653 2.864 1.436 2.567 2.506 2.836 1.186 4.908 3.115 6.146-.596-.652-.438-1.448-.609-2.165-.955-8.306-4.021-20.467-17.289-28.317-22.279.001.004 1.922-.178 2.872-.354zm-36.704 3.75c-.161 2.279-1.108 5.781-1.339 8.064-.826 8.168 1.312 15.254 3.625 23.113.206.7-.175 1.854.957 2.107 2.166.488 3.891-2.695 3.273-4.018-5.388-2.123.001-24.295 1.238-28.314.75-.312 1.46.104 2.165.279-1.254 3.182-6.012 23.712-3.655 26.683 1.515.548 5.121.856 5.625 2.296 2.138 6.107-7.158 15.09-12.274 13.18-1.658-.621 1.203-8.441 1.37-9.799.61-4.94-2.231-8.591-3.183-13.515-1.055-5.458-1.341-11.308-.518-19.562.251-1.54-.618-1.193 2.716-.514z"/><path fill="#FF5BA1" d="M119.627 116.615c3.45.699 3.368-1.186 3.879-1.987 1.299.413 4.73 1.067 3.977 1.649-6.416 4.937-13.572 2.207-17.774.537a2.812 2.812 0 0 1-.705-2.388c2.779 1.663 8.093 2.345 8.31-1.511 1.954.758-2.023 2.819 2.313 3.7z"/><path fill="#FF9CD1" d="M122.338 114.198c-.822 1.753-1.893 1.559-2.96 1.104-.757-.638-.103-1.154-.103-1.91l3.063.806z"/><path fill="#FF5BA1" d="M52.384 135.186c-.387-.886.474-2.391.63-3.254 3.022 1.252 6.231-4.082 1.058-4.576v-.558c3.036.849 6.464-1.339 5.439-4.416.732.101 2.455.72 2.66 1.367.925 2.923-2.137 10.591-9.787 11.437z"/><path fill="#FF9CD1" d="M53.368 130.895l.604-2.307c2.094-.451 2.082 2.594-.604 2.307z"/><path fill="#272525" d="M44.114 39.024c-.452-1.737-3.106-1.818-5.346-1.689-1.029.065-1.522-.389-2.468-.714-1.666-.585-3.208-.585-4.606.585-1.074.898-1.419 1.704-2.797 2.338-1.315.601-2.405.114-3.866.455-1.398.325-2.591.698-2.961 1.818-.371 1.122.802 2.177 2.221 2.405.844 0 1.604-.374 2.138.129.555.537.103 1.137.33 1.819.205.617 1.068.779 1.892.779 3.003 0 3.66-3.054 6.663-3.054 2.303 0 4.051 1.04 5.922 0 1.11-.617.33-1.656.083-2.728-.229-.99 3.042-1.152 2.795-2.143zm40.14-.585c2.057-2.599 4.133.162 6.251-.974 1.213-.65 2.488-.894 3.783-.325.966.423 1.274 1.073 2.386 1.235 2.879.454 3.676-1.205 6.088.065 1.233.649 1.705 3.345.575 3.833-1.131.487-2.634.602-2.634 1.624 0 .812.352 1.43-.246 2.08-1.109 1.202-3.371 1.396-4.852.456-1.502-.96-1.049-2.6-2.797-3.249-.865-.308-4.936 3.767-7.322-.196-.361-.603.371-1.039.164-1.689-.185-.617-2.321-1.121-2.631-1.689-.307-.537.495-1.041 1.235-1.171z"/><path fill="#272525" d="M80.891 42.326c.702.277 3.817.043 4.494-.625.811-.798-.779-3.871-1.867-4.084-.856-.17-3.639.821-3.869 1.635-.09.316.169 2.65 1.242 3.074z"/><path fill="#FF9CD1" d="M80.245 39.446c.082-.292 2.22-1.169 2.714-1.071.494.097 1.688 2.566 1.357 2.891-.33.325-2.92.585-3.33.423-.412-.164-.824-1.951-.741-2.243z"/><path fill="#272525" d="M46.84 42.326c-.703.277-3.818.043-4.495-.625-.81-.798.78-3.871 1.866-4.084.86-.17 3.641.821 3.87 1.635.09.316-.17 2.65-1.241 3.074z"/><path fill="#FF9CD1" d="M47.485 39.446c-.082-.292-2.22-1.169-2.714-1.071-.493.097-1.686 2.566-1.358 2.891.329.325 2.921.585 3.332.423.411-.164.822-1.951.74-2.243z"/><path fill="#272525" d="M46.348 43.896c-.95-.618-1.473-1.608-1.113-2.664.376-1.072 2.044-.52 2.488-1.558.359-.846.016-1.528.458-2.34.638-1.153 1.915-1.462 3.207-1.169 2.537.585 1.734-1.804 4.19-2.664 2.225-.779 3.142.796 4.189.91 1.359.146 1.833-1.495 4.189-1.495 2.357 0 2.717 1.641 4.076 1.495 1.047-.114 1.964-1.689 4.189-.91 2.456.86 1.653 3.249 4.191 2.664 1.291-.292 2.566.016 3.206 1.169.44.813.098 1.495.458 2.34.441 1.039 2.111.487 2.488 1.558.358 1.056-.164 2.046-1.112 2.664H46.348zm33.732 3.758c-.754-.919-.284-2.217 1.048-2.901 1.334-.684 3.026-.494 3.78.423.756.919.285 2.217-1.047 2.901-1.334.684-3.026.494-3.781-.423z"/><path fill="#CF8C6E" d="M80.312 47.457c.457.557 1.537.644 2.416.194.875-.449 1.215-1.265.756-1.822-.455-.556-1.539-.644-2.416-.194-.875.449-1.214 1.264-.756 1.822z"/><path fill="none" d="M80.08 47.654c-.754-.919-.284-2.217 1.048-2.901 1.334-.684 3.026-.494 3.78.423.756.919.285 2.217-1.047 2.901-1.334.684-3.026.494-3.781-.423z"/><path fill="none" d="M80.08 47.654c-.754-.919-.284-2.217 1.048-2.901 1.334-.684 3.026-.494 3.78.423.756.919.285 2.217-1.047 2.901-1.334.684-3.026.494-3.781-.423z"/><path fill="#272525" d="M47.731 47.654c.753-.919.284-2.217-1.049-2.901-1.334-.684-3.025-.494-3.781.423-.754.919-.285 2.217 1.049 2.901 1.333.684 3.026.494 3.781-.423z"/><path fill="#CF8C6E" d="M47.5 47.457c-.457.557-1.539.644-2.415.194-.876-.449-1.216-1.265-.759-1.822.458-.556 1.541-.644 2.416-.194.876.449 1.215 1.264.758 1.822z"/><path fill="none" d="M47.731 47.654c.753-.919.284-2.217-1.049-2.901-1.334-.684-3.025-.494-3.781.423-.754.919-.285 2.217 1.049 2.901 1.333.684 3.026.494 3.781-.423z"/><path fill="none" d="M47.731 47.654c.753-.919.284-2.217-1.049-2.901-1.334-.684-3.025-.494-3.781.423-.754.919-.285 2.217 1.049 2.901 1.333.684 3.026.494 3.781-.423z"/><ellipse fill="#272525" cx="63.937" cy="46.171" rx="18.179" ry="8.641"/><path fill="#CF8C6E" d="M80.221 46.171c0 3.352-6.33 7.731-16.284 7.731-9.951 0-16.283-4.379-16.283-7.731s6.332-7.145 16.283-7.145c9.952 0 16.284 3.793 16.284 7.145z"/><path fill="#272525" d="M63.685 45.996h-.051c-1.48.015-1.769.72-1.868 1.03-.1.314-1.092.411-1.171-.008-.042-.216.572-1.758 3.042-1.778h.045c2.474.019 3.083 1.562 3.042 1.778-.079.419-1.073.322-1.172.008-.1-.311-.389-1.016-1.867-1.03zm-5.284 2.46c3.237 1.703 7.096 1.75 10.277.126.218-.111.65.294.48.547-1.738 2.579-9.254 2.275-11.223.03-.22-.25.211-.837.466-.703zm16.191-5.06c-1.653 1.439-4.728 2.164-6.321.68-.709-.661.544-1.501 1.255-.84 1.141 1.062 3.379.833 4.562-.199.303-.266.806.093.504.359zm-21.781 0c1.651 1.439 4.727 2.164 6.318.68.711-.661-.544-1.5-1.253-.84-1.141 1.062-3.378.832-4.562-.199-.304-.266-.808.093-.503.359z"/></svg>