<svg width="78" height="140" xmlns="http://www.w3.org/2000/svg"><defs><linearGradient id="a" y2="1"><stop offset="0" stop-color="#7F3F98"/><stop offset="1" stop-color="#60C"/></linearGradient><radialGradient id="b" cx=".52" cy=".293" r=".919"><stop offset="0" stop-color="#DB50F0"/><stop offset="1" stop-color="#7F3F98"/></radialGradient></defs><path fill="url(#a)" d="M83 184.5c-3.49 4.157-4.43 8.884-3.538 14.175.726 4.298 7.75 6.117 7.949.672a71.19 71.19 0 0 0-.034-5.602c-.198-4.579-4.116 2.843-4.252 4.821-.387 5.615-.505 11.953 4.542 15.601.01-.113.014-.228.013-.342.017-1.154.109-1.99.654-2.992.5-.919-.73-4.451 0-5-8.636 6.488-4.93 22.308 1.333 29-.813-.869.849-4.093 0-5-5.466-5.84-8.514-13.605-1.333-19v-5c-.519.954-.653 1.888-.669 2.967-.007.483-2.278-1.752-2.315-1.797-.714-.849-1.141-1.913-1.559-2.923-.891-2.149-.589-1.76.259-3.83.435-1.062 1.232-1.894 2.018-2.697 1.551-1.586 1.28.633 1.33 1.794l.007-4.911c-.252 3.105-2.755 4.099-5.404 2.731-1.354-.699-2.123-2.095-2.538-3.492.727 2.449-.082 1.943.699.002.628-1.563 1.771-2.904 2.839-4.177.835-.996-.806-4.041-.001-5z" transform="rotate(1.12 4922.294 -2377.69)"/><path fill="none" stroke="#60C" stroke-width="2" stroke-linecap="round" d="M39.35 111.85s.109 3.016-.1 4.5c-.096.68-.8 1.9-.8 1.9"/><path fill="url(#b)" d="M493.075 212.752c-4.552 24.615-34.956 41.056-43.872 40.332-9.723-.789-32.514-29-27.963-53.617 4.553-24.615 24.324-41.597 44.16-37.929 19.836 3.668 32.227 26.599 27.675 51.214z" transform="rotate(-2.66 -3164.053 9138.731)"/></svg>