<svg width="115" height="285" viewBox="5 -1 115 285" xmlns="http://www.w3.org/2000/svg"><path fill="#010101" d="M76.966 1.453L71.144.622l-5.48 19.227 11.184 1.597.118-19.993"/><path fill="#653614" d="M43.653 214.536c-32.129-4.9-43.139-23.041-36.914-47.478 1.772-6.39 8.556-13.942 8.556-13.942.722-1.225.372-2.057-.066-3.37 0 0 2.9 1.04 8.141-.088 5.23-1.051 9.705-21.438 7.352-24.666-2.353-3.228-3.645-3.49-6.807-3.786 2.429-2.78 3.25-5.789 2.385-9.039-1.063-8.984.042-17.268 7.767-23.2 6.138-4.126 13.032-8.066 17.322-9.095 4.366-1.018 10.001-4.903 12.944-8.547 1.817 4.245 5.746 9.574 9.653 11.773 3.907 2.2 9.423 7.911 14.085 13.58 5.757 7.856 4.51 16.041.965 24.446-1.663 2.889-1.794 5.996-.24 9.345-3.108-.678-4.432-.711-7.67 1.719-3.163 2.44-4.573 23.265.155 25.737 4.727 2.473 7.791 2.363 7.791 2.363-.776 1.062-1.356 1.839-1.006 3.218 0 0 4.4 9.147 4.313 15.779-.873 25.278-16.52 39.615-48.726 35.251z"/><path d="M67.657 158.09c.448-4.234 1.214-8.502.809-12.78a8.838 8.838 0 0 0-.406-2.09c-.36-.756-.514-1.872-1.816-1.51-1.302.36-1.171 1.083-.602 2.024.383.602.132 1.27-.47 1.652a1.352 1.352 0 0 1-1.335.044c-.646-.405-.8-.974-.7-1.663.207-1.456.83-2.539 2.308-3.032 1.805-.602 3.02.197 4.005 1.51 1.489 2.167 1.828 4.716 1.774 7.288-.077 3.82-.613 7.573-1.083 11.414-.328 2.298-.185 4.585.931 6.62.306.59 1.16 1.182 1.904.897 1.073-.394 1.073-.394 1.149-1.477.077-.537-.24-1.05-.24-1.598.163-1.149.546-2.189 2.012-2.057 1.478.054 2.058.919 1.85 2.374-.394 2.758-2.396 4.191-4.683 4.881-2.605.175-4.706-1.532-5.384-4.442-.548-2.736-.57-5.319-.023-8.054zm-31.253-4.461c.754-4.191 1.213-8.503 2.8-12.497.251-.668.58-1.324.974-1.893.558-.624 1.017-1.653 2.166-.942 1.15.711.821 1.368.011 2.112-.536.47-.481 1.182-.01 1.718a1.35 1.35 0 0 0 1.269.416c.733-.208 1.04-.711 1.138-1.4.208-1.456-.088-2.67-1.368-3.557-1.565-1.083-2.955-.656-4.268.329-2.035 1.663-3.075 4.016-3.742 6.5-.995 3.688-1.531 7.441-2.155 11.26-.328 2.298-1.104 4.454-2.746 6.096-.46.481-1.444.81-2.079.328-.92-.678-.92-.678-.69-1.74.077-.536.526-.94.679-1.466.164-1.149.087-2.254-1.357-2.539-1.434-.36-2.233.307-2.44 1.762-.394 2.758 1.127 4.695 3.13 5.997 2.451.897 4.946-.154 6.412-2.758 1.291-2.473 2.035-4.947 2.276-7.726z" fill="#251711"/><path fill="#010101" d="M63.32 123.862l-13.328-1.903L67.809 20.155l6.894.984L63.32 123.862m-7.666 53.698l-13.328-1.904-1.211 42.973 3.6.514 10.94-41.584m-12.03-28.527l18.308 2.614-.383 2.68-18.307-2.613.382-2.68z"/><path d="M71.539 5.524L45.598 179.563m.087-.613a.46.46 0 0 1 .306.181.46.46 0 0 1-.093.65.46.46 0 0 1-.65-.093.46.46 0 0 1 .093-.65.46.46 0 0 1 .344-.088zM73.454 5.798L48.585 179.989m.088-.613a.46.46 0 0 1 .305.182.46.46 0 0 1-.092.65.46.46 0 0 1-.65-.094.46.46 0 0 1 .093-.65.46.46 0 0 1 .344-.088zM75.369 6.071L51.573 180.416m.087-.613a.46.46 0 0 1 .306.181.46.46 0 0 1-.093.65.46.46 0 0 1-.65-.093.46.46 0 0 1 .093-.65.46.46 0 0 1 .344-.088zM71.604 5.065a.46.46 0 0 1 .306.18.46.46 0 0 1-.093.65.46.46 0 0 1-.65-.092.46.46 0 0 1 .093-.65.46.46 0 0 1 .344-.088zm1.916.273a.46.46 0 0 1 .305.181.46.46 0 0 1-.093.65.46.46 0 0 1-.65-.093.46.46 0 0 1 .093-.65.46.46 0 0 1 .344-.088zm1.915.273a.46.46 0 0 1 .305.182.46.46 0 0 1-.093.65.46.46 0 0 1-.65-.094.46.46 0 0 1 .093-.65.46.46 0 0 1 .345-.088z" stroke-width=".774" fill="#CCC" stroke="#CCC"/></svg>