<svg width="150" height="150" xmlns="http://www.w3.org/2000/svg"><path fill="#936C54" d="M85.957 102.975c7.309 2.935 7.697 10.17 3.76 15.656 6.229 3.775 10.896 5.172 15.566 10.206 3.375 3.634 2.898 6.604 5.537 10.903 1.041-2.098-.435-3.495-.865-5.73-.648-3.425-.174-5.384-.174-8.808 0-6.187 1.428-9.541 2.941-15.659 1.256-5.205-6.314-6.639-11.068-10.204-1.859-1.397-2.424-3.321-5.016-3.495-2.726-.175-3.072 2.482-5.363 3.637-1.988.975-4.541 1.746-5.318 3.494z"/><path fill="#CF9F70" d="M92.486 96.822c5.967 2.376 12.455 6.849 15.049 9.365 0 0-10.896-2.518-14.184-2.168 1.987 2.236 13.146 5.035 13.146 5.035-4.974 3.006-8.394 5.275-12.108 9.297 5.797-1.33 8.434-2.729 13.491-5.174.263 16.705 3.547 26.562 3.547 26.562-.086-15.521 4.24-31.141 3.201-33.833-.994-2.584-11.067-6.709-16.948-11.322-1.407-1.1-3.766 1.085-5.194 2.238z"/><path fill="#272525" d="M116.104 105.6c-1.369 9.049-3.998 17.522-3.385 26.739.182 2.726.42 5.523.311 8.252-.579.468-1.561.466-2.215.099-1.403-.789-3.082-5.89-3.998-7.504-5.075-8.963-16.516-13.021-19.063-14.664.687-1.728 2.19-2.058 2.812-3.834 2.666-4.662-1.738-8.185-4.584-11.438-.191-.216-.299-.727.125-.844 8.002 2.963 8.291 13.131 4.293 16.115 8.469 2.473 16.461 9.302 18.942 16.306-1.461-7.017-3-14.222-1.477-21.324-2.554 1.424-12.326 6.063-15.464 4.99-.584-.199 13.248-9.166 13.248-9.166-2.694-.97-12.211-1.947-13.037-6.213 4.796.102 14.021 2.387 14.021 2.387-3.439-2.824-10.395-4.996-13.633-8.001l.188-.843c1.588-.028 16.41 9.765 16.156 10.284-3.969.019-10.572-2.535-14.639-2.385 4.395 2.365 13.635 4.045 13.525 4.361-3.578 2.5-9.338 5.781-12.711 8.457 2.303-.436 12.309-4.995 13.946-6.406 0 0-.688 19.945 2.052 26.326-1.298-7.828 1.047-27.584 2.93-31.098-4.631-1.647-14.541-8.272-17.885-11.442-.25-.233-.035-.776.307-.942 1.385.334 17.16 10.441 19.235 11.788z"/><path fill="#CF9F70" d="M102.057 79.334c0-2.555 2.45-4.022 2.937-6.493 1.604-8.129 3.534-15.253-2.251-21.287-2.651 3.729-8.924 15.084-8.924 15.084s-3.295-.671-5.272-.851c-1.396-3.087-4.168-6.521-6.38-10.211-2.01-3.352-5.626-7.039-7.073-6.872-1.647.191-2.531 4.317-2.732 7.375-.444 6.161.078 10.224.963 15.756-6.028 3.854-9.806 6.452-13.342 12.651-3.417 5.951-1.447 9.472-1.447 16.345 0 5.403-2.09 12.065-9.806 9.386-2.8-.975-4.14-2.934-7.073-2.851-1.407.042-2.652.084-3.375 1.343-.804 1.382 1.647 2.514 3.214 2.514-1.286 1.508-3.416 3.229-2.089 4.692 1.206 1.341 2.893.671 4.501 0-.12 1.718.482 4.19 2.089 3.856 3.135-.672 3.858-4.36 7.073-4.36 4.943 0 8.117-.837 11.253-6.201 2.742 1.883 5.585 2.075 8.785 2.276l-.364 1.332c-1.791 2.977-4.974 3.636-8.118 3.274-.745-.086-1.964.179-1.657 1.552.308 1.371 5.212-.688 5.372-.121.161.569-4.249 1.639-3.028 3.576 1.22 1.938 5.31-2.421 6.058-1.729.749.692-2.857 2.239-1.657 3.458 1.2 1.215 5.34-3.779 2.857-6.021.177-.494 1.766-3.312 2.865-5.179 4.076.202 7-.196 10.586-2.755 3.537-2.514 5.666-4.566 7.557-8.548 1.889-3.979 2.169-8.718 6.431-9.218 1.89-.211 3.493 0 4.66-1.508.966-1.261.201-3.021-.319-4.526-.887-2.471-2.294-3.098-2.294-5.739z"/><path d="M103.27 78.098c.267-.5.518-1.007.768-1.513.345-.558 1.146-1.935 1.146-2.012 2.363-6.422 3.227-16.449-.121-22.545-.514-.936-1.439-2.288-2.627-1.609-2.91 5.121-5.217 10.638-8.804 15.314-1.506-.673-3.209-.491-4.801-.713-1.36-4.036-9.878-19.893-14.916-17.462-2.4 4.834-3.189 18.591-.943 23.429-.656.438-1.298.89-1.902 1.36l.004.002c-2.938 1.6-8.387 6.461-11.896 12.388-5.358 9.049 1.507 19.183-4.066 24.495-3.174 3.025-7.112-1.541-10.002-2.443-5.664-1.77-11.572 2.798-4.981 5.312-3.212 2.334-1.624 6.845 3.209 5.236-.358.561-.808 1.346-.457 1.906 1.95 3.121 6.933.688 8.401-3.338 5.947 1.318 11.199-3.001 12.725-5.975l.018.016c.936.642 3.544 1.499 6.561 2.09-2.566 3.216-6.917-.328-9.674 3.638-.774 1.113-.367 4.097 2.567 3.886-1.045 1.131.12 6.242 4.501 3.771 3.696 3.094 6.791-1.383 6.309-6.245.312-1.407 1.898-2.913 3.306-4.384 1.052-.034 2.039-.146 2.894-.368 6.23-1.669 12.574-6.911 14.518-13.587 0 0 .901-2.485.895-3.854a16.305 16.305 0 0 0 4.19-2.819c.707-.168.261-.606 3.777-.933 1.008-.26 2.172-.683 2.567-.975-.216-1.884-1.824-4.282-2.563-6.571-.014-.033-1.316-4.154-.603-5.497zm-30.701 38.711c2.483 2.241-1.657 7.235-2.857 6.021-1.2-1.218 2.406-2.766 1.657-3.458-.748-.69-4.838 3.668-6.058 1.729-1.221-1.938 3.189-3.007 3.028-3.576-.16-.567-5.064 1.492-5.372.121-.307-1.373.912-1.638 1.657-1.552 3.144.36 6.327-.299 8.118-3.274l.203-.392c.628.085 1.259.158 1.884.207-.874 1.403-2.035 3.543-2.26 4.174zm31.232-28.073c-3.062.242-6.251 1.543-9.314.596-5.912-1.829-12.723-2.744-18.004 1.429v1.013c1.871-.059 3.504-1.438 5.261-2.022 1.95-.651 4.297-.627 6.001-.299 2.988.062 5.457 2.19 8.4 2.442-5.336 4.521-15.064 2.354-15.375 2.562-.084 1.898 2.273 2.046 3.146 2.146 3.636.404 7.435.107 10.847-1.221-.596 1.2-1.228 2.901-1.357 3.241-3.543 7.929-9.963 11.7-18.231 12.008-3.202.12-7.901-1.056-11.146-2.11-.29-.097-.514.009-.613.209-.004.004-.009.006-.013.011-1.849 2.056-4.625 7.55-13.489 5.321-.218 3.483-4.437 5.791-4.973 4.17-.535-1.617 2.505-3.113 1.944-3.991s-4.342 1.298-5.372 1.431c-1.031.132-1.14-.594-.4-1.431.739-.835 4.043-2.851 3.828-3.576-.213-.724-5.508.914-4.8-1.31.433-1.36 2.632-1.199 3.786-.883 3.565.985 6.478 6.344 12.275 2.428 6.792-4.588-.307-16.532 4.515-25.267 4.009-7.268 11.363-12.237 11.847-12.548 1.762-1.369 10.19-4.391 11.071-6.043 1.462-2.745-7.66-15.492-7.66-15.492 2.324 4.491 4.523 9.073 6.176 13.883-1.383 1.163-4.81 2.8-8.081 4.845.14-1.519-.804-4.302-.838-4.845-.303-4.84.435-11.114 2.344-15.552 7.82 4.674 11.128 16.001 13.146 17.281 1.927-.191 3.77.029 5.601.417.387-.258 6.38-10.498 8.688-15.435 3.056 5.968 2.675 11.581 1.886 17.998-.156 1.279-.354 2.612-.836 3.794-.348.851-.778 1.685-1.168 2.519-.168-.795-.639-2.209-.664-2.498-.195-2.208-2.168-4.293-3.653-5.067 2.172-3.159 3.93-9.377 3.827-14.004-1.541 4.528-2.854 9.176-5.2 13.407 0 0 1.573 1.355 2.854 3.456 1.096 1.793 1.896 4.217 2.666 5.085-.759 1.701-1.256 3.414-.399 5.291.01.021.636 1.765.68 1.813.684 1.63 1.501 3.412.797 4.798z"/><path d="M88.145 75.865c1.465 1.93 1.643 5.785-1.084 6.732-2.557.891-7.377-.246-9.029-2.562-2.644-3.702 3.222-13.254 10.113-4.17z"/><path fill="#FFF" d="M87.459 78.009c.95 4.197-9.715 4.058-7.943-1.548 1.125-3.558 7.392-.893 7.943 1.548z"/><ellipse cx="85.378" cy="79.545" rx="1.606" ry="1.676"/><path d="M90.773 76.163c-.455.356-1.258 0-1.771-.298-.629-1.729-4.87-6.545-4.87-6.545 2.46.716 6.186 4.22 6.641 6.843zm8.631-3.159c-1.543 1.072-2.057 3.219-3.543 4.053-.285 0-.514-.061-.688-.3.231-1.845 1.86-3.455 4.231-3.753zm-2.691 8.049c-.128-.635.035-1.93.916-3.271 1.484-2.264 4.255-4.296 6.577-1.317 2.106 2.703-1.134 7.228-4.614 6.554-.979-.199-2.559-.373-2.879-1.966z"/><path fill="#FFF" d="M103.861 78.604c.172 2.523-4.479 3.998-5.279 2.434-1.451-2.843 5.035-6.067 5.279-2.434z"/><ellipse cx="102.154" cy="80.357" rx="1.229" ry="1.28"/><path fill="#FFF" d="M85.473 92.416c-.933 0-1.377-1.186-1.732-2.139-.094-.246-.174-.467-.249-.612l-.246-.474.487-.215c.281-.125.633-.188 1.041-.188.675 0 1.309.173 1.334.18l.466.13-.111.469c-.015.078.011.357.029.562.075.821.188 2.062-.81 2.267-.069.012-.14.02-.209.02z"/><path d="M84.771 89.288c.615 0 1.203.162 1.203.162-.113.478.409 2.288-.396 2.454a.51.51 0 0 1-.108.012c-.785 0-1.211-1.854-1.537-2.482.247-.109.546-.146.838-.146m0-1c-.479 0-.896.078-1.241.229l-.978.432.493.945c.056.106.142.336.224.558.391 1.04.924 2.464 2.201 2.464.105 0 .211-.012.315-.033 1.43-.295 1.274-1.986 1.2-2.801a6.023 6.023 0 0 1-.03-.441l.213-.897-.93-.256a5.895 5.895 0 0 0-1.467-.2z"/><path fill="#FFF" d="M103.538 93.789c-1.213 0-1.741-1.479-1.968-2.107l-.063-.177-.233-.58.617-.1c.146-.024.349-.042.574-.062.434-.037 1.239-.104 1.459-.276l1.283-1.009-.498 1.555c-.037.115-.061.372-.08.619-.064.755-.146 1.693-.805 2.07l-.106.061-.18.006z"/><path d="M104.232 90.881c-.172.536-.027 2.049-.656 2.407l-.038.001c-.978 0-1.401-1.559-1.567-1.971.519-.084 1.804-.079 2.261-.437m1.77-2.637l-2.367 1.835c-.208.103-.908.161-1.212.187-.241.021-.457.041-.61.065l-1.235.2.467 1.16c.017.039.035.094.058.156.238.668.873 2.44 2.438 2.44h.021l.06-.002.243-.011.211-.119c.888-.506.984-1.637 1.056-2.463.015-.172.037-.434.06-.514l.81-2.934z"/><path fill="#936C54" d="M16.042 149.107c4.265-6.664 8.803-9.502 9.284-16.973.273-4.012.608-7.421-1.82-11.031-1.937-2.926-2.91-4.33-5.008-7.379 9.582-.098 14.422.197 21.731-4.477 3.418-2.188 6.224-5.497 5.8-9.132-.439-3.882-3.246-5.634-4.341-9.484 6.62.736 10.982.235 16.623-2.372 2.121-.979 5.452-3.793 7.265-4.678 1.383.084 2.741-.398 5.223-2.372-2.793 9.078-.892 14.282-1.105 23.646-.26 9.781 4.406 15.154 4.705 25 .127 4.338-6.151 4.836-11.26 5.779-6.218 1.139-9.667 1.635-15.967 2.727-12.116 2.137-22.571 3.823-31.13 10.746z"/><path fill="#CF9F70" d="M76.408 78.88c-.521 4.688-2.475 7.004-3.892 11.522-1.882 5.979-1.458 9.613-1.417 15.878.076 7.146 2.142 12.053 4.428 18.073 1.134 2.981 4.023 4.142 4.418 7.246.63 4.885-7.853 4.467-13.792 5.075-6.426.658-10.154 2.107-16.388 3.382-12.866 2.614-18.583 6.693-31.774 8.706.623-2.46 5.46-5.069 9.851-7.2 11.775-5.727 26.589-5.912 35.272-8.883-3.313-1.492-29.013-8.289-34.362-11.837 1.897-1.79 33.097 6.001 40.438 8.856-3.789-5.062-8.938-15.096-10.759-17.512-2.993-3.989-4.548-7.609-4.046-12.125l15.419 22.533c-1.64-8.729-3.126-12.587-3.077-23.975.017-3.971.858-6.163 1.298-10.122.523-4.654 2.624-10.258 8.383-9.617z"/><path fill="#272525" d="M81.341 130.697c-3.17-4.84-6.228-5.926-7.644-12.504-2.612-12.145-1.345-23.647 2.008-35.332.287-.992.702-2.287-.392-3.146-1.282.798-1.872 2.362-2.315 3.595-3.782 10.446-3.677 26.114-.393 36.912.979 3.217 5.316 9.969 5.596 12.024.523 3.84-6.34 3.121-9.412 3.403-15.471 1.426-32.248 6.498-47.943 11.574l-.215-.272c10.995-8.204 29.778-11.549 44.518-13.058.665-.295 2.135-.283 1.864-1.192-.71-.244-8.987-2.39-12.335-3.313-8.308-2.285-16.464-5.033-24.226-8.449 7.481.058 38.628 9.889 40.731 9.328-.089-.082-.327-.214-.651-.373l.001.002c-3.567-5.764-14.913-21.744-15.549-27.586 5.917 8.593 9.576 17.993 17.636 25.614l1.038.116c.461-.915-.519-1.6-.909-2.402-5.176-10.671-6.799-28.15-2.862-38.824.471-1.278 2.022-4.392.928-5.746-.974.402-2.199 2.672-2.597 3.51-4.973 10.453-2.618 23.607.311 34.49-6.064-7.912-15.866-24.95-16.31-22.978-1.956 8.702 10.211 26.66 15.683 32.675-2.114-.842-4.659-1.761-5.788-2.062-11.312-3.024-22.726-5.914-34.475-7.181-1.8 1.382 2.927 2.998 4.359 3.638 8.771 3.899 19.228 6.801 28.67 9.287-12.311 2.215-29.504 5.567-40.03 12.241 4.377-5.477 6.479-13.719 5.192-19.467-.594-3.017-1.886-5.857-4.251-8.521-.569-.697-1.087-1.812-1.708-2.479 1.31.375 3.051.729 3.811.812 13.508 1.507 28.014-10.654 21.146-21.556-.498-.789-1.194-1.578-1.632-2.582 5.349.785 11.112.418 15.627-1.963 2.386-1.261 5.825-3.021 7.127-5.108-.045-.273-.278-.591-.685-.526-.772 1.241-2.57 1.962-3.897 2.768-4.305 2.611-13.783 3.955-20.906 3.828 3.788 7.666 6.673 13.058-1.414 19.396-3.657 2.865-11.207 3.88-16.184 4.203-.928.057-4.016-.643-4.367.229 5.667 7.479 8.687 18.699 2.991 26.621-1.081 1.506-3.683 5.156-4.715 7.271-.563.607-.993 1.386-.474 2.104 1.643.098 3.334-.543 4.861-.91 13.082-3.145 24.823-8.199 38.5-10.123 4.906-.69 15.708-1.166 19.555-2.229.967-.266 2.291-1.337 2.646-2.105.52-1.112.175-2.59-.52-3.654z"/></svg>