<svg width="243" height="178" xmlns="http://www.w3.org/2000/svg"><g stroke="#000"><path fill="#FFF" d="M68.425 122.403c-.062-.031-.139-.055-.205-.085V98.656a3.33 3.33 0 0 0-3.332-3.332h-2.873a3.332 3.332 0 0 0-3.332 3.332v23.662c-.064.03-.143.054-.205.085-1.273.642-2.062 1.526-2.062 2.503 0 .977.789 1.861 2.062 2.502 1.273.642 3.033 1.038 4.975 1.038 1.939 0 3.699-.396 4.973-1.038 1.273-.641 2.062-1.525 2.062-2.502 0-.977-.79-1.861-2.063-2.503z"/><path fill="none" d="M63.622 125.858v2.588m-3.004-2.588v2.588m5.668-2.588v2.588"/></g><g stroke="#000"><path fill="#FFF" d="M43.097 122.403c-.062-.031-.14-.055-.205-.085V98.656a3.332 3.332 0 0 0-3.332-3.332h-2.874a3.332 3.332 0 0 0-3.332 3.332v23.662c-.065.03-.142.054-.205.085-1.274.642-2.062 1.526-2.062 2.503 0 .977.788 1.861 2.062 2.502 1.274.642 3.033 1.038 4.974 1.038 1.941 0 3.7-.396 4.974-1.038 1.274-.641 2.062-1.525 2.062-2.502 0-.977-.788-1.861-2.062-2.503z"/><path fill="none" d="M38.123 125.858v2.588m-3.003-2.588v2.588m5.667-2.588v2.588"/></g><path fill="#FFF" stroke="#010101" d="M74.915 125.335c.471 1.946-.401 3.98-2.146 4.568l-1.842.619c-1.744.588-3.811-.817-4.379-3.166-3.676-18.042 1.231-34.846 14.043-48.071 1.743-1.673 4.241-1.745 5.396-.311l1.219 1.514c1.153 1.434.793 3.618-.651 5.005-10.62 11.129-14.601 24.747-11.64 39.842z" transform="matrix(.95458 .42863 -.45287 .90348 -2.45 -64.7)"/><path fill="#FFF" stroke="#010101" d="M93.47 18.456c.95-1.625 2-3.701 3.931-3.565l2.039.145c1.93.136 3.368 2.336 2.968 4.846-3.736 19.003-15.308 33.32-33.097 40.97-2.37.918-4.824-.024-5.364-1.883-.226-.785-.34-1.177-.57-1.963-.537-1.859 1.295-3.353 2.66-4.594 5.661-5.06 12.333-8.627 16.966-14.41 4.668-5.73 6.605-12.809 10.466-19.546z" stroke-width="1.052"/><path fill="#FFF" stroke="#000" d="M50.782 34.66c8.338 0 15.895 4.327 21.367 11.316 5.471 6.991 8.857 16.644 8.857 27.297 0 10.653-3.387 20.307-8.857 27.296-5.473 6.99-13.029 11.316-21.367 11.316-8.339 0-15.896-4.326-21.368-11.316-5.471-6.989-8.858-16.643-8.858-27.296 0-10.653 3.387-20.306 8.858-27.297 5.472-6.989 13.029-11.316 21.368-11.316z"/><path fill="#FFF" stroke="#000" d="M63.292 22.588c.045-.596.07-1.2.07-1.812 0-4.473-1.227-8.55-3.242-11.627.92-.222 1.875-.748 2.693-1.555 1.828-1.802 2.277-4.309 1.004-5.6-1.271-1.291-3.785-.876-5.611.926-.771.76-1.293 1.645-1.549 2.511-1.754-1.281-3.754-2.01-5.877-2.01-2.225 0-4.314.8-6.128 2.199-.231-.926-.772-1.885-1.599-2.7-1.827-1.803-4.34-2.217-5.613-.926-1.272 1.291-.823 3.797 1.004 5.599.897.885 1.961 1.434 2.96 1.611-1.993 3.071-3.207 7.125-3.207 11.57 0 .612.024 1.216.069 1.812-2.599 2.143-4.19 4.948-4.19 8.026 0 3.353 1.871 6.391 4.896 8.59 3.023 2.2 7.2 3.561 11.809 3.561 4.607 0 8.783-1.361 11.807-3.561 3.023-2.199 4.896-5.238 4.896-8.59-.001-3.077-1.592-5.882-4.192-8.024z"/><path fill="#FFF" d="M50.78 28.567c-6.99 0-12.657 4.282-12.657 9.564 0 .139.006.276.014.413 3.063 2.58 7.59 4.215 12.644 4.215 5.055 0 9.582-1.635 12.645-4.215a7.06 7.06 0 0 0 .014-.413c-.002-5.282-5.668-9.564-12.66-9.564z"/><path fill="#010101" d="M45.159 12.967c.438 0 .836.194 1.124.509.288.314.466.748.466 1.227 0 .478-.178.913-.466 1.226a1.52 1.52 0 0 1-1.124.509 1.52 1.52 0 0 1-1.125-.509 1.811 1.811 0 0 1-.466-1.226c0-.479.178-.913.466-1.227a1.52 1.52 0 0 1 1.125-.509zm11.406 0c.439 0 .838.194 1.125.509.289.314.467.748.467 1.227 0 .478-.178.913-.467 1.226a1.52 1.52 0 0 1-1.125.509c-.438 0-.836-.194-1.123-.509a1.807 1.807 0 0 1-.467-1.226c0-.479.178-.913.467-1.227a1.518 1.518 0 0 1 1.123-.509z"/><path fill="#231F20" d="M50.784 22.004c1.803 0 3.438.541 4.623 1.414 1.186.874 1.916 2.08 1.916 3.411s-.73 2.537-1.916 3.411c-1.186.874-2.82 1.414-4.623 1.414-1.807 0-3.442-.541-4.627-1.414-1.184-.874-1.917-2.08-1.917-3.411s.733-2.537 1.917-3.411c1.185-.874 2.82-1.414 4.627-1.414z"/><path fill="#1F1F1F" d="M50.23 30.772c.02 1.651.391 3.576-.46 5.08-1.147 2.028-4.44.462-5.274-.999-.319-.56-1.184-.056-.863.505 1.055 1.847 3.884 3.123 5.887 2.011 2.311-1.283 1.736-4.401 1.711-6.597-.008-.644-1.008-.645-1.001 0z"/><path fill="#1F1F1F" d="M50.635 30.554c-.026 2.196-.6 5.313 1.711 6.597 2.003 1.112 4.832-.164 5.887-2.011.32-.561-.544-1.064-.863-.505-.932 1.632-3.931 2.834-5.274.999-.958-1.308-.479-3.572-.46-5.08.006-.645-.994-.644-1.001 0z"/><path fill="none" stroke="#1F1F1F" stroke-width="2" stroke-linecap="round" d="M51 36l.3.3"/><path fill="none" stroke="#000" stroke-linecap="round" d="M50.9 36.85l.3.3m-.6-.3l.3.3m.7-.05l.3.3"/><path fill="none" stroke="#1F1F1F" stroke-width="2" stroke-linecap="round" d="M51.6 37.1l.3.3"/><path fill="none" stroke="#000" stroke-linecap="round" d="M50.6 37.2l.3.3"/><path fill="none" stroke="#1F1F1F" stroke-width="2" stroke-linecap="round" d="M50 37.1l.3.3"/><g fill="none" stroke="#1F1F1F" stroke-width="2" stroke-linecap="round"><path d="M238.35 175.3s.714.42 1.1.45a3.104 3.104 0 0 0 1.5-.15c.23-.092.5-.55.5-.55" transform="matrix(1 0 0 1.25714 -188.85 -182.4)"/><path d="M51.65 38.05l.3.3"/></g></svg>