<svg width="101" height="95" xmlns="http://www.w3.org/2000/svg"><path fill="#FFD351" d="M47.783 30.163c6.037 1.49 11.486 5.999 14.789 11.127 2.267 3.723.63 8.644.356 12.94-.287 4.488-1.882 8.801-2.01 13.164-.125 3.107.624 6.064 1.258 9.033.673 3.15 4.441 6.776 2.48 9.315-2.503 3.433-7.871 3.544-12.151 3.624-6.692.124-13.32-1.665-19.87-3.043-4.486-1.161-8.897-2.632-13.089-4.564-3.895-1.79-8.048-3.45-11.117-6.423-1.096-1.077-1.017-3.457-.15-4.92 1.52-2.332 4.784-3.114 6.648-5.408 2.03-2.5 3.41-5.491 4.77-8.414 1.563-3.33 2.74-7.076 4.245-10.591 1.81-4.218 1.853-10.025 5.728-12.564 5.075-3.41 12.155-4.747 18.113-3.276z"/><path fill="#FFD351" d="M48.929 22.97c.673.155 1.147.885 1.37 1.937.223 1.052.194 2.427-.14 3.875-.335 1.449-.91 2.697-1.572 3.546-.662.848-1.408 1.295-2.081 1.14-.674-.156-1.148-.885-1.371-1.937-.223-1.052-.193-2.427.14-3.876.335-1.448.911-2.697 1.572-3.545.662-.848 1.408-1.295 2.082-1.14z"/><path fill="#EAC24D" d="M38.16 71.66c7.476 1.726 14.074 4.055 18.694 6.425 4.62 2.37 7.262 4.78 6.827 6.665-.435 1.886-3.866 2.894-9.057 3-5.192.105-12.143-.693-19.62-2.418-7.476-1.726-14.074-4.055-18.694-6.425-4.62-2.37-7.262-4.78-6.827-6.665.435-1.886 3.866-2.894 9.057-3 5.192-.105 12.143.693 19.62 2.418z"/><path fill="#FFD351" d="M37.81 73.375c.606.14 1.045.745 1.264 1.61.22.865.219 1.99-.053 3.17-.272 1.178-.765 2.19-1.341 2.87-.576.683-1.236 1.034-1.842.894-.607-.14-1.046-.745-1.265-1.61-.219-.865-.218-1.99.054-3.17.272-1.178.764-2.19 1.34-2.871.577-.682 1.236-1.033 1.843-.893z"/><path fill="#FFF1C8" d="M33.251 35.592c2.55-2.278 6.952-2.374 10.48-1.953 1.623.195 3.407 2.456 2.798 3.474-.415 1.188-3.155.283-4.845.94-2.634 1.039-5.433 2.165-7.4 4.206-2.297 2.384-2.456 6.33-5.014 8.356-.83.803-3.263-.484-2.949-1.709 1.243-4.84 3.212-9.976 6.93-13.314z"/><path fill="#EDC54F" d="M50.422 32.686c5.131.798 10.45 2.506 14.327 5.83 2.742 2.35 4.953 6.235 4.59 9.83-.82 8.132-1.31 18.284-7.892 22.925-6.042 4.42-15.057.42-22.3-1.253-1.81-.418-.546-2.172-.751-3.758-.801-6.168-3.009-12.485-2.255-18.54.607-4.888 3.125-9.706 6.514-13.28 1.906-2.008 5.195-2.378 7.767-1.754z"/><path fill="#FFD351" d="M53.78 29.643c5.91-1.93 12.92-.987 18.436 1.617 3.894 1.96 5.11 7.001 7.15 10.79 2.131 3.961 3.06 8.465 5.26 12.235 1.538 2.702 3.738 4.815 5.847 6.999 2.238 2.317 7.354 3.4 7.033 6.592-.307 4.237-4.803 7.172-8.393 9.505-5.612 3.646-12.184 5.635-18.47 7.931-4.421 1.39-8.942 2.475-13.52 3.054-4.254.542-8.656 1.33-12.833.433-1.5-.335-2.692-2.396-2.731-4.096.056-2.784 2.412-5.174 2.78-8.107.4-3.194-.012-6.464-.405-9.663-.436-3.652-1.42-7.454-2.003-11.233-.696-4.536-3.732-9.487-1.787-13.692 2.502-5.578 7.802-10.46 13.635-12.365z"/><path fill="#FFD351" d="M50.946 22.934c.653-.224 1.442.143 2.188.918.745.775 1.448 1.957 1.93 3.363.483 1.406.655 2.77.543 3.84-.113 1.07-.509 1.844-1.162 2.069-.654.224-1.442-.143-2.189-.918-.745-.775-1.448-1.958-1.93-3.363-.483-1.406-.655-2.77-.543-3.84.113-1.07.509-1.845 1.163-2.069z"/><path fill="#EAC24D" d="M67.67 69.91c7.257-2.492 14.088-4.006 19.262-4.44 5.175-.434 8.692.213 9.32 2.043.629 1.83-1.75 4.501-6.098 7.338-4.35 2.836-10.67 5.838-17.927 8.33s-14.088 4.006-19.263 4.44c-5.174.434-8.69-.213-9.32-2.043-.628-1.83 1.75-4.501 6.1-7.338 4.348-2.836 10.669-5.838 17.926-8.33z"/><path fill="#FFD351" d="M68.182 71.587c.59-.202 1.282.08 1.925.698.644.618 1.24 1.573 1.632 2.717.393 1.144.51 2.263.382 3.146-.128.884-.502 1.531-1.09 1.733-.59.202-1.282-.079-1.925-.697-.644-.618-1.24-1.573-1.632-2.717-.393-1.144-.51-2.263-.382-3.147.128-.883.502-1.53 1.09-1.733z"/><path fill="#FFF1C8" d="M44.372 41.868c.958-3.283 4.643-5.693 7.858-7.203 1.481-.693 4.19.281 4.213 1.468.277 1.227-2.528 1.909-3.614 3.36-1.685 2.276-3.464 4.713-4.053 7.485-.687 3.239 1.265 6.671.167 9.744-.28 1.12-3.025 1.316-3.406.11-1.507-4.764-2.554-10.164-1.165-14.964z"/><path fill="#ED5555" d="M50.163 16.661c1.256 0 2.54.476 3.277 1.395 1.228 3.99.84 5.26 0 6.731-.64.98-2.02 1.395-3.277 1.395-1.255 0-2.634-.407-3.276-1.395-.387-3.98-.754-5.243 0-6.73.577-1.025 2.02-1.396 3.276-1.396z"/><path fill="#ED5555" d="M30.115 8.393c4.816 1.114 9.605 3.379 14.031 6.013 1.82.978 3.522 2.702 4.385 4.635.577 1.314 1.38 3.236.125 4.135-5.615 3.696-12.206 5.8-18.29 8.017-4.62 1.682-10.11 6.384-14.282 3.759-4.648-2.926-3.883-10.676-4.384-15.91-.4-4.076-1.666-10.103 1.879-12.152 4.787-2.768 11.149.262 16.536 1.503zM67.569 6.19c-4.544 1.946-8.858 5.02-12.75 8.394-1.62 1.284-2.99 3.28-3.498 5.336-.336 1.395-.787 3.428.606 4.091 6.18 2.648 13.037 3.556 19.418 4.665 4.845.841 11.077 4.5 14.72 1.18 4.06-3.7 1.94-11.193 1.51-16.434-.326-4.082-.144-10.238-3.994-11.63-5.2-1.88-10.928 2.225-16.012 4.398z"/><path fill="#ED5555" d="M63.443 30.943c2.574 1.394 5.076 2.753 7.767 3.758 14.893 4.623 22.88 4.223 26.81 7.767 1.745 1.75-7.528 1.744-9.522 4.76-1.157 1.872 4.274 6.804 2.255 6.515-5.301-.77-11.095-5.9-16.536-9.02-3.428-1.965-7.046-3.505-10.023-6.013a96.875 96.875 0 0 1-13.78-14.282c-.999-1.18 1.298-.704 2.255-.25 3.825 1.814 7.057 4.747 10.774 6.765zm-24.376-1.454c-3.972 2.875-7.69 6.317-12.026 8.268-5.205 2.343-10.954 3.525-16.537 4.51-3.48.726-10.4-.371-10.523.601-.119.979 7.527 1.744 9.52 4.76 1.158 1.872-4.38 6.381-2.254 6.515 5.895.373 12.527-2.706 18.29-5.362 3.509-1.615 6.497-4.215 9.02-7.015 4.875-5.238 9.258-10.977 13.029-16.938.942-1.487-1.585-.61-2.255-.25-2.43 1.3-4.142 3.395-6.264 4.91z"/><path fill="#CF4C4C" d="M72.087 23.426c6.09.642 7.347-.062 9.387.587 1.721.586 3.938 1.765 4.268 3.422.17 1.3-1.759 2.594-3.257 2.506-5.961-.362-11.717-2.544-17.539-3.759-3.331-.695-9.814-1.653-10.022-2.004-.372-.21 5.162-.041 7.776-.165 3.128-.145 6.254-.652 9.387-.587zm-42.012 1.972c-5.924 1.549-7.273 1.042-9.192 1.99-1.614.838-3.628 2.336-3.706 4.024.027 1.312 2.129 2.3 3.597 1.988 5.839-1.253 11.202-4.274 16.775-6.35 3.19-1.187 9.454-3.108 9.607-3.487.337-.263-5.11.735-7.712 1.005-3.114.327-6.281.295-9.369.83zm21.122-6.406c.531-.288 1.7.898 2.224 1.68.398.648.444 1.536.345 2.305-.08.618-.152 1.493-.72 1.703-1.101.39-3.01.666-3.508 0-.44-.71 1.353-1.79 1.628-2.756.29-.938-.51-2.634.031-2.932zm-12.534-.202c2.09.517 4.154 1.124 6.138 1.63.66.166 1.614.112 2.005.438.2.17-.465.362-.877.313-1.625.115-3.238.02-4.886-.125-2.128-.187-4.207-.345-6.39-.627-1.347-.171-3 .102-4.008-.751-.786-.665-1.816-2.863-.752-3.007 2.923-.388 5.896 1.394 8.77 2.13zm25.907-2.505c1.212-.365 2.783-1.475 4.01-.877.913.45.91 2.093.375 2.882-.439.776-1.664.437-2.514.558a157.86 157.86 0 0 1-4.251.57c-1.11.12-2.126.036-3.132.125-1.63.288-4.762 1.179-4.76 1.002.002-.177 3.043-1.612 4.635-2.255 1.8-.728 3.73-1.428 5.637-2.005z"/></svg>