<svg width="61" height="38" viewBox="-1 -1 61 38" xmlns="http://www.w3.org/2000/svg"><path fill="#65CBEB" d="M29.646 36.72c-.417 0-.65-.01-.662-.01C.54 34 1.069 15.986 1.105 15.22c.122-2.551 1.373-5.156 2.294-6.753 1.37 1.889 3.974 3.356 7.758 4.365 3.418.913 8.585 2.292 17.442 2.37l.578.003c.252 0 23.555-.086 27.631-7.03 1.323 2.15 1.905 6.477 1.964 9.216-4.158 18.396-24.984 19.33-29.126 19.33z"/><path d="M56.618 9.948c.745 2.054 1.146 5.13 1.206 7.348-4.061 17.586-24.173 18.479-28.178 18.479-.298 0-.496-.005-.578-.009-10.778-1.034-18.536-4.346-23.061-9.844-4.017-4.88-4-9.734-3.957-10.657.087-1.826.81-3.703 1.537-5.156 1.608 1.546 4.061 2.765 7.326 3.637 3.466.925 8.702 2.323 17.679 2.403l.585.002c2.471 0 21.53-.199 27.44-6.203M3.706 6.351s0 .001 0 0h-.078S.371 10.763.161 15.175c-.21 4.412 2.31 19.958 28.781 22.479 0 0 .25.011.704.011 4.187 0 25.809-.94 30.073-20.179 0 0-.143-8.962-3.274-11.099-.739 6.101-18.329 7.873-27.268 7.873-.194 0-.383 0-.57-.003-8.737-.077-13.852-1.442-17.206-2.338-3.355-.896-6.303-2.311-7.548-4.489a1.358 1.358 0 0 1-.148-1.079l52.913 3.597z"/><path fill="#600" d="M28.516 15.203c-8.84-.083-13.998-1.545-17.411-2.513-3.695-1.047-6.175-2.579-7.171-4.429a.619.619 0 0 1-.07-.487C4.08 6.95 5.671 5.973 7.06 5.412l.157-.062c6.685-2.367 14.212-3.574 22.33-3.574 12.154 0 21.971 2.714 23.987 3.65 1.99.924 2.477 1.905 2.58 2.195-.89 5.23-16.264 7.585-27.02 7.585l-.577-.003z"/><path d="M29.546 2.72c12.103 0 21.896 2.777 23.588 3.563 1.267.588 1.782 1.158 1.979 1.45-.6 1.808-4.009 3.572-9.294 4.778-5.648 1.29-12.344 1.749-16.727 1.749-.194 0-.383 0-.568-.003-8.713-.081-13.797-1.522-17.16-2.476-3.362-.953-5.617-2.284-6.535-3.857.248-.368 1.18-1.064 2.556-1.624l.036-.014.03-.013.017-.007.108-.04c6.602-2.326 13.993-3.505 21.97-3.505m0-1.891c-7.095 0-14.997.92-22.688 3.645l-.032.012-.01.004-.103.04c-.002.002-.006.003-.009.004-.67.27-3.347 1.44-3.755 2.998-.098.373-.069.767.152 1.176 1.277 2.373 4.303 3.915 7.746 4.89 3.443.977 8.691 2.465 17.66 2.549.19.002.385.003.584.003 9.175 0 27.226-1.93 27.983-8.579 0 0-.164-1.62-3.144-3.005C52.03 3.685 42.04.83 29.546.83v1.89z"/><path fill="#C70" d="M30.33 37.055a24.3 24.3 0 0 1-1.351-.03C.214 34.286.754 15.985.79 15.206c.136-2.86 1.65-5.774 2.593-7.33 1.23 2.025 3.87 3.59 7.854 4.653 3.403.909 8.547 2.282 17.364 2.36l.575.002c.257 0 24.598-.089 27.617-7.376 2.256 2.389 2.547 7.556 2.299 9.906-1.927 18.217-22.5 19.635-28.763 19.635z"/><path d="M56.881 8.654c1.462 2.26 1.847 6.222 1.585 8.7-1.872 17.695-22.009 19.07-28.136 19.07-.733 0-1.195-.022-1.294-.027C18.072 35.35 10.16 31.96 5.52 26.323 1.356 21.265 1.374 16.2 1.42 15.235c.109-2.284 1.15-4.622 2.021-6.202 1.474 1.765 4.035 3.143 7.634 4.104 3.435.917 8.624 2.303 17.521 2.381.19.002.382.003.58.003 1.024 0 23.075-.085 27.705-6.867M3.705 6.351s0 .001 0 0h-.078S.371 10.763.161 15.175c-.21 4.412 2.31 19.958 28.781 22.479 0 0 .506.03 1.388.03 5.737 0 27.386-1.262 29.39-20.198.303-2.877-.144-8.962-3.275-11.099-.739 6.101-18.329 7.873-27.268 7.873-.194 0-.383 0-.57-.003-8.737-.077-13.852-1.442-17.206-2.338-3.355-.896-6.303-2.311-7.548-4.489a1.358 1.358 0 0 1-.148-1.079L56.88 8.654z"/></svg>