<svg version="1.1" width="20" height="14" viewBox="-1 -1 20 14" xmlns="http://www.w3.org/2000/svg" xmlns:xlink="http://www.w3.org/1999/xlink">
  <!-- Exported by Scratch - http://scratch.mit.edu/ -->
  <g id="ID0.6919244332239032">
    <path id="ID0.40924413595348597" fill="#006666" stroke="#000000" stroke-width="1" stroke-linecap="round" d="M 82.500 97.750 L 90.500 96 L 88.500 106.250 L 82 101 L 82.500 97.750 Z " transform="matrix(-1.0214861631393433, 0, 0, 1.0214861631393433, 93.75, -96.7)"/>
    <path id="ID0.40924413595348597" fill="#006666" stroke="#000000" stroke-width="1" stroke-linecap="round" d="M 82.500 97.750 L 88.300 97.900 L 84.850 105.800 L 82 101 L 82.500 97.750 Z " transform="matrix(0.9236775040626526, -0.43618106842041016, 0.43618106842041016, 0.9236775040626526, -106.8, -50.95)"/>
    <path id="ID0.26820674212649465" fill="#006666" stroke="#000000" stroke-width="1" d="M 81.150 97.150 C 81.771 97.150 82.333 97.402 82.741 97.809 C 83.148 98.217 83.400 98.779 83.400 99.400 C 83.400 100.021 83.148 100.583 82.741 100.991 C 82.333 101.398 81.771 101.650 81.150 101.650 C 80.529 101.650 79.967 101.398 79.559 100.991 C 79.152 100.583 78.900 100.021 78.900 99.400 C 78.900 98.779 79.152 98.217 79.559 97.809 C 79.967 97.402 80.529 97.150 81.150 97.150 Z " transform="matrix(-1.0214861631393433, 0, 0, 1.0214861631393433, 93.75, -96.7)"/>
  </g>
</svg>