<svg width="118" height="171" viewBox="-1 -1 118 171" xmlns="http://www.w3.org/2000/svg"><defs><linearGradient id="a" x1="191.016" y1="337.454" x2="193.863" y2="228.108" gradientUnits="userSpaceOnUse"><stop offset="0" stop-color="#81D3F1"/><stop offset=".308" stop-color="#7FD0EF"/><stop offset=".495" stop-color="#78C7E8"/><stop offset=".65" stop-color="#6DBBDF"/><stop offset=".787" stop-color="#5DABD3"/><stop offset=".91" stop-color="#4998C4"/><stop offset="1" stop-color="#4A99C5"/><stop offset="1"/></linearGradient><linearGradient id="b" x1="202.172" y1="337.745" x2="205.019" y2="228.399" gradientUnits="userSpaceOnUse"><stop offset="0" stop-color="#81D3F1"/><stop offset=".308" stop-color="#7FD0EF"/><stop offset=".495" stop-color="#78C7E8"/><stop offset=".65" stop-color="#6DBBDF"/><stop offset=".787" stop-color="#5DABD3"/><stop offset=".91" stop-color="#4998C4"/><stop offset="1" stop-color="#4A99C5"/><stop offset="1"/></linearGradient><linearGradient id="c" x1="204.716" y1="337.811" x2="207.564" y2="228.465" gradientUnits="userSpaceOnUse"><stop offset="0" stop-color="#81D3F1"/><stop offset=".308" stop-color="#7FD0EF"/><stop offset=".495" stop-color="#78C7E8"/><stop offset=".65" stop-color="#6DBBDF"/><stop offset=".787" stop-color="#5DABD3"/><stop offset=".91" stop-color="#4998C4"/><stop offset="1" stop-color="#4A99C5"/><stop offset="1"/></linearGradient><linearGradient id="d" x1="213.327" y1="338.035" x2="216.175" y2="228.689" gradientUnits="userSpaceOnUse"><stop offset="0" stop-color="#81D3F1"/><stop offset=".308" stop-color="#7FD0EF"/><stop offset=".495" stop-color="#78C7E8"/><stop offset=".65" stop-color="#6DBBDF"/><stop offset=".787" stop-color="#5DABD3"/><stop offset=".91" stop-color="#4998C4"/><stop offset="1" stop-color="#4A99C5"/><stop offset="1"/></linearGradient><linearGradient id="e" x1="214.861" y1="338.075" x2="217.708" y2="228.729" gradientUnits="userSpaceOnUse"><stop offset="0" stop-color="#81D3F1"/><stop offset=".308" stop-color="#7FD0EF"/><stop offset=".495" stop-color="#78C7E8"/><stop offset=".65" stop-color="#6DBBDF"/><stop offset=".787" stop-color="#5DABD3"/><stop offset=".91" stop-color="#4998C4"/><stop offset="1" stop-color="#4A99C5"/><stop offset="1"/></linearGradient><linearGradient id="f" x1="226.016" y1="338.366" x2="228.863" y2="229.02" gradientUnits="userSpaceOnUse"><stop offset="0" stop-color="#81D3F1"/><stop offset=".308" stop-color="#7FD0EF"/><stop offset=".495" stop-color="#78C7E8"/><stop offset=".65" stop-color="#6DBBDF"/><stop offset=".787" stop-color="#5DABD3"/><stop offset=".91" stop-color="#4998C4"/><stop offset="1" stop-color="#4A99C5"/><stop offset="1"/></linearGradient><linearGradient id="g" x1="224.483" y1="338.326" x2="227.331" y2="228.98" gradientUnits="userSpaceOnUse"><stop offset="0" stop-color="#81D3F1"/><stop offset=".308" stop-color="#7FD0EF"/><stop offset=".495" stop-color="#78C7E8"/><stop offset=".65" stop-color="#6DBBDF"/><stop offset=".787" stop-color="#5DABD3"/><stop offset=".91" stop-color="#4998C4"/><stop offset="1" stop-color="#4A99C5"/><stop offset="1"/></linearGradient><linearGradient id="h" x1="235.639" y1="338.616" x2="238.487" y2="229.27" gradientUnits="userSpaceOnUse"><stop offset="0" stop-color="#81D3F1"/><stop offset=".308" stop-color="#7FD0EF"/><stop offset=".495" stop-color="#78C7E8"/><stop offset=".65" stop-color="#6DBBDF"/><stop offset=".787" stop-color="#5DABD3"/><stop offset=".91" stop-color="#4998C4"/><stop offset="1" stop-color="#4A99C5"/><stop offset="1"/></linearGradient><linearGradient id="i" x1="237.17" y1="338.656" x2="240.018" y2="229.31" gradientUnits="userSpaceOnUse"><stop offset="0" stop-color="#81D3F1"/><stop offset=".308" stop-color="#7FD0EF"/><stop offset=".495" stop-color="#78C7E8"/><stop offset=".65" stop-color="#6DBBDF"/><stop offset=".787" stop-color="#5DABD3"/><stop offset=".91" stop-color="#4998C4"/><stop offset="1" stop-color="#4A99C5"/><stop offset="1"/></linearGradient><linearGradient id="j" x1="246.795" y1="338.907" x2="249.642" y2="229.561" gradientUnits="userSpaceOnUse"><stop offset="0" stop-color="#81D3F1"/><stop offset=".308" stop-color="#7FD0EF"/><stop offset=".495" stop-color="#78C7E8"/><stop offset=".65" stop-color="#6DBBDF"/><stop offset=".787" stop-color="#5DABD3"/><stop offset=".91" stop-color="#4998C4"/><stop offset="1" stop-color="#4A99C5"/><stop offset="1"/></linearGradient><linearGradient id="k" x1="248.325" y1="338.947" x2="251.172" y2="229.601" gradientUnits="userSpaceOnUse"><stop offset="0" stop-color="#81D3F1"/><stop offset=".308" stop-color="#7FD0EF"/><stop offset=".495" stop-color="#78C7E8"/><stop offset=".65" stop-color="#6DBBDF"/><stop offset=".787" stop-color="#5DABD3"/><stop offset=".91" stop-color="#4998C4"/><stop offset="1" stop-color="#4A99C5"/><stop offset="1"/></linearGradient><linearGradient id="l" x1="259.479" y1="339.237" x2="262.327" y2="229.891" gradientUnits="userSpaceOnUse"><stop offset="0" stop-color="#81D3F1"/><stop offset=".308" stop-color="#7FD0EF"/><stop offset=".495" stop-color="#78C7E8"/><stop offset=".65" stop-color="#6DBBDF"/><stop offset=".787" stop-color="#5DABD3"/><stop offset=".91" stop-color="#4998C4"/><stop offset="1" stop-color="#4A99C5"/><stop offset="1"/></linearGradient><linearGradient id="m" x1="247.916" y1="254.31" x2="248.675" y2="165.462" gradientUnits="userSpaceOnUse"><stop offset="0" stop-color="#81D3F1"/><stop offset=".308" stop-color="#7FD0EF"/><stop offset=".495" stop-color="#78C7E8"/><stop offset=".65" stop-color="#6DBBDF"/><stop offset=".787" stop-color="#5DABD3"/><stop offset=".91" stop-color="#4998C4"/><stop offset="1" stop-color="#4A99C5"/><stop offset="1"/></linearGradient><linearGradient id="n" x1="244.082" y1="254.277" x2="244.841" y2="165.429" gradientUnits="userSpaceOnUse"><stop offset="0" stop-color="#81D3F1"/><stop offset=".308" stop-color="#7FD0EF"/><stop offset=".495" stop-color="#78C7E8"/><stop offset=".65" stop-color="#6DBBDF"/><stop offset=".787" stop-color="#5DABD3"/><stop offset=".91" stop-color="#4998C4"/><stop offset="1" stop-color="#4A99C5"/><stop offset="1"/></linearGradient><linearGradient id="o" x1="192.167" y1="337.484" x2="195.014" y2="228.138" gradientUnits="userSpaceOnUse"><stop offset="0" stop-color="#81D3F1"/><stop offset=".308" stop-color="#7FD0EF"/><stop offset=".495" stop-color="#78C7E8"/><stop offset=".65" stop-color="#6DBBDF"/><stop offset=".787" stop-color="#5DABD3"/><stop offset=".91" stop-color="#4998C4"/><stop offset="1" stop-color="#4A99C5"/><stop offset="1"/></linearGradient><linearGradient id="p" x1="203.245" y1="337.773" x2="206.093" y2="228.427" gradientUnits="userSpaceOnUse"><stop offset="0" stop-color="#81D3F1"/><stop offset=".308" stop-color="#7FD0EF"/><stop offset=".495" stop-color="#78C7E8"/><stop offset=".65" stop-color="#6DBBDF"/><stop offset=".787" stop-color="#5DABD3"/><stop offset=".91" stop-color="#4998C4"/><stop offset="1" stop-color="#4A99C5"/><stop offset="1"/></linearGradient><linearGradient id="q" x1="214.257" y1="338.06" x2="217.105" y2="228.714" gradientUnits="userSpaceOnUse"><stop offset="0" stop-color="#81D3F1"/><stop offset=".308" stop-color="#7FD0EF"/><stop offset=".495" stop-color="#78C7E8"/><stop offset=".65" stop-color="#6DBBDF"/><stop offset=".787" stop-color="#5DABD3"/><stop offset=".91" stop-color="#4998C4"/><stop offset="1" stop-color="#4A99C5"/><stop offset="1"/></linearGradient><linearGradient id="r" x1="225.27" y1="338.346" x2="228.117" y2="229" gradientUnits="userSpaceOnUse"><stop offset="0" stop-color="#81D3F1"/><stop offset=".308" stop-color="#7FD0EF"/><stop offset=".495" stop-color="#78C7E8"/><stop offset=".65" stop-color="#6DBBDF"/><stop offset=".787" stop-color="#5DABD3"/><stop offset=".91" stop-color="#4998C4"/><stop offset="1" stop-color="#4A99C5"/><stop offset="1"/></linearGradient><linearGradient id="s" x1="236.282" y1="338.633" x2="239.129" y2="229.287" gradientUnits="userSpaceOnUse"><stop offset="0" stop-color="#81D3F1"/><stop offset=".308" stop-color="#7FD0EF"/><stop offset=".495" stop-color="#78C7E8"/><stop offset=".65" stop-color="#6DBBDF"/><stop offset=".787" stop-color="#5DABD3"/><stop offset=".91" stop-color="#4998C4"/><stop offset="1" stop-color="#4A99C5"/><stop offset="1"/></linearGradient><linearGradient id="t" x1="247.294" y1="338.92" x2="250.141" y2="229.574" gradientUnits="userSpaceOnUse"><stop offset="0" stop-color="#81D3F1"/><stop offset=".308" stop-color="#7FD0EF"/><stop offset=".495" stop-color="#78C7E8"/><stop offset=".65" stop-color="#6DBBDF"/><stop offset=".787" stop-color="#5DABD3"/><stop offset=".91" stop-color="#4998C4"/><stop offset="1" stop-color="#4A99C5"/><stop offset="1"/></linearGradient><linearGradient id="u" x1="258.328" y1="339.207" x2="261.175" y2="229.861" gradientUnits="userSpaceOnUse"><stop offset="0" stop-color="#81D3F1"/><stop offset=".308" stop-color="#7FD0EF"/><stop offset=".495" stop-color="#78C7E8"/><stop offset=".65" stop-color="#6DBBDF"/><stop offset=".787" stop-color="#5DABD3"/><stop offset=".91" stop-color="#4998C4"/><stop offset="1" stop-color="#4A99C5"/><stop offset="1"/></linearGradient></defs><path fill="#C3E8F3" d="M89.1.7l-49.5 4-8.5 34.2H10.6L1.4 57.3.9 170h88.2V.7zM41.3 14.8l7.9-.6.1.1 36.3-2.6v38.5l-43.8 1.4-.5-36.8zM7.4 62.2h8.1v80.6H7.4V62.2zm13.4 80.6h-2.1V62.2h8.1v80.5h-6zm9.3 0V62.3h8.1V143h-8.1zm11.3 0V62.2h8.1v80.6h-8.1zm11.3 0V62.3h8.1v80.5h-8.1zm11.3 0V62.2h8.1v80.6H64zm11.3-53.2V62.2h8.1v80.5h-8.1V89.6z"/><path fill="#C3E8F3" d="M15.6 62.2H7.4v64l8.2-7.8V62.2"/><path fill="url(#a)" d="M196.6 252.2h-8.2v64l8.2-7.8v-56.2" transform="translate(-181 -190)"/><path fill="#C3E8F3" d="M26.9 62.2h-8.2v53.1l8.2-7.9V62.2"/><path fill="url(#b)" d="M207.9 252.2h-8.2v53.1l8.2-7.9v-45.2" transform="translate(-181 -190)"/><path fill="#C3E8F3" d="M20.8 142.8h6.1v-5.9l-6.1 5.9"/><path fill="url(#c)" d="M201.8 332.8h6.1v-5.9l-6.1 5.9" transform="translate(-181 -190)"/><path fill="#C3E8F3" d="M38.2 62.2h-8.1v42.1l8.1-7.8V62.2"/><path fill="url(#d)" d="M219.2 252.2h-8.1v42.1l8.1-7.8v-34.3" transform="translate(-181 -190)"/><path fill="#C3E8F3" d="M30.1 133.7v9.1h8.1v-17l-8.1 7.9"/><path fill="url(#e)" d="M211.1 323.7v9.1h8.1v-17l-8.1 7.9" transform="translate(-181 -190)"/><path fill="#C3E8F3" d="M41.4 122.7v20.1h8.1v-28l-8.1 7.9"/><path fill="url(#f)" d="M222.4 312.7v20.1h8.1v-28l-8.1 7.9" transform="translate(-181 -190)"/><path fill="#C3E8F3" d="M49.5 62.2h-8.1v31.2l8.1-7.9V62.2"/><path fill="url(#g)" d="M230.5 252.2h-8.1v31.2l8.1-7.9v-23.3" transform="translate(-181 -190)"/><path fill="#C3E8F3" d="M60.8 62.2h-8.1v20.2l8.1-7.8V62.2"/><path fill="url(#h)" d="M241.8 252.2h-8.1v20.2l8.1-7.8v-12.4" transform="translate(-181 -190)"/><path fill="#C3E8F3" d="M52.7 111.7v31.1h8.1v-39.1l-8.1 8"/><path fill="url(#i)" d="M233.7 301.7v31.1h8.1v-39.1l-8.1 8" transform="translate(-181 -190)"/><path fill="#C3E8F3" d="M72.1 62.2H64v9.3l8.1-7.9v-1.4"/><path fill="url(#j)" d="M253.1 252.2H245v9.3l8.1-7.9v-1.4" transform="translate(-181 -190)"/><path fill="#C3E8F3" d="M64 100.6v42.2h8.1V92.7l-8.1 7.9"/><path fill="url(#k)" d="M245 290.6v42.2h8.1v-50.1l-8.1 7.9" transform="translate(-181 -190)"/><path fill="#C3E8F3" d="M83.4 81.6l-8.1 8v53.2h8.1V81.6"/><path fill="url(#l)" d="M264.4 271.6l-8.1 8v53.2h8.1v-61.2" transform="translate(-181 -190)"/><path fill="#40B4E5" d="M89.1 170h28L115.9 7.1 89.1.7V170"/><path fill="#C3E8F3" d="M66.4 41.9l11.5-29.5 7.6-.7-36.3 2.6 11.3 27.8 5.9-.2zM71 12.7l-8.3 18.4L54.8 14 71 12.7z"/><path fill="url(#m)" d="M247.4 231.9l11.5-29.5 7.6-.7-36.3 2.6 11.3 27.8 5.9-.2zm4.6-29.2l-8.3 18.4-7.9-17.1 16.2-1.3z" transform="translate(-181 -190)"/><path fill="#C3E8F3" d="M41.7 51.6l43.8-1.4V16.5l-15 34.1-14.3.3-14.9-36h-.1l.5 36.7"/><path fill="url(#n)" d="M222.7 241.6l43.8-1.4v-33.7l-15 34.1-14.3.3-14.9-36h-.1l.5 36.7" transform="translate(-181 -190)"/><path fill="#9BDBF1" d="M70.5 50.6l15-34.1v-4.8l-7.6.7-11.5 29.5-6 .2-11.2-27.8-.1-.1-7.8.6v.1l14.9 36 14.3-.3"/><path fill="#9BDBF1" d="M71 12.7L54.8 14l7.9 17.1L71 12.7"/><path fill="#C3E8F3" d="M15.6 142.8v-24.4l-8.2 7.8v16.6h8.2"/><path fill="url(#o)" d="M196.6 332.8v-24.4l-8.2 7.8v16.6h8.2" transform="translate(-181 -190)"/><path fill="#D9F0F6" opacity=".56" d="M15.6 142.8v-24.4l-8.2 7.8v16.6h8.2"/><path fill="#C3E8F3" d="M26.9 107.4l-8.2 7.9v27.5h2.1l6.1-5.9v-29.5"/><path fill="url(#p)" d="M207.9 297.4l-8.2 7.9v27.5h2.1l6.1-5.9v-29.5" transform="translate(-181 -190)"/><path fill="#D9F0F6" opacity=".56" d="M26.9 107.4l-8.2 7.9v27.5h2.1l6.1-5.9v-29.5"/><path fill="#C3E8F3" d="M38.2 96.5l-8.1 7.8v29.4l8.1-7.9V96.5"/><path fill="url(#q)" d="M219.2 286.5l-8.1 7.8v29.4l8.1-7.9v-29.3" transform="translate(-181 -190)"/><path fill="#D9F0F6" opacity=".56" d="M38.2 96.5l-8.1 7.8v29.4l8.1-7.9V96.5"/><path fill="#C3E8F3" d="M49.5 85.5l-8.1 7.9v29.3l8.1-7.9V85.5"/><path fill="url(#r)" d="M230.5 275.5l-8.1 7.9v29.3l8.1-7.9v-29.3" transform="translate(-181 -190)"/><path fill="#D9F0F6" opacity=".56" d="M49.5 85.5l-8.1 7.9v29.3l8.1-7.9V85.5"/><path fill="#C3E8F3" d="M60.8 74.6l-8.1 7.8v29.3l8.1-8V74.6"/><path fill="url(#s)" d="M241.8 264.6l-8.1 7.8v29.3l8.1-8v-29.1" transform="translate(-181 -190)"/><path fill="#D9F0F6" opacity=".56" d="M60.8 74.6l-8.1 7.8v29.3l8.1-8V74.6"/><path fill="#C3E8F3" d="M72.1 63.6L64 71.5v29.1l8.1-7.9V63.6"/><path fill="url(#t)" d="M253.1 253.6l-8.1 7.9v29.1l8.1-7.9v-29.1" transform="translate(-181 -190)"/><path fill="#D9F0F6" opacity=".56" d="M72.1 63.6L64 71.5v29.1l8.1-7.9V63.6"/><path fill="#C3E8F3" d="M83.4 62.2h-8.1v27.4l8.1-8V62.2"/><path fill="url(#u)" d="M264.4 252.2h-8.1v27.4l8.1-8v-19.4" transform="translate(-181 -190)"/><path fill="#D9F0F6" opacity=".56" d="M83.4 62.2h-8.1v27.4l8.1-8V62.2"/></svg>