<svg width="50" height="199" viewBox="-1 -1 50 199" xmlns="http://www.w3.org/2000/svg"><path fill="#E7F5F5" d="M49.1 0v197H.9V43.1L49.1 0"/><path fill="none" stroke="#FFBCCB" stroke-width="3.916" d="M45.1 12.5v28.9H11l34.1-28.9"/><path fill="#7ADED4" d="M49.1 57.7v7.5l-35.5-4.8 1.5-7.3 34 4.6m0 18.2v7.5l-35.5-4.9 1.5-7.3 34 4.7m0 18.1v7.5l-35.5-4.8 1.5-7.3 34 4.6m0 18.2v7.5l-35.5-4.9 1.5-7.3 34 4.7m0 25.6L13.6 133l1.5-7.3 34 4.6v7.5m0 10.7v7.5l-35.5-4.8 1.5-7.4 34 4.7m0 18.1v7.5l-35.5-4.8 1.5-7.3 34 4.6m0 18.2v7.5l-35.5-4.8 1.5-7.3 34 4.6"/></svg>