<svg width="58" height="214" viewBox="-1 -1 58 214" xmlns="http://www.w3.org/2000/svg"><path fill="#40B4E5" d="M.9.1h56.3V213H.9V.1z"/><path fill="#79CEF3" d="M11.1 11.1h7.8v16.1h-7.8V11.1zm29.2 0h7.8v16.1h-7.8V11.1zM20.8 29.4h7.8v16.1h-7.8V29.4zm0 54.1h7.8v16.1h-7.8V83.5zm-11.1 0h7.8v16.1H9.7V83.5zm32.1 70.2h7.8v16.1h-7.8v-16.1zm-11.1 0h7.8v16.1h-7.8v-16.1zm-9.9-88.1h7.8v16.1h-7.8V65.6zm0 35.9h7.8v16.1h-7.8v-16.1zm0 31.2h7.8v16.1h-7.8v-16.1zm.9 42.6h7.8v16.1h-7.8v-16.1zm-12-42.6h7.8v16.1H9.7v-16.1zm-.3 42.5h7.8v16.1H9.4v-16.1zM40.3 29.4h7.8v16.1h-7.8V29.4z"/></svg>