<svg width="92" height="170" viewBox="-1 -1 92 170" xmlns="http://www.w3.org/2000/svg"><path fill="#C3E8F3" d="M48.5 49l42.4 7-1 112.3H2.1l-1-108.8L48.5 49"/><path fill="#C3E8F3" d="M9.6 62.5l-1-13 40.4-10L86.4 46l.5 10.5"/><path fill="#C3E8F3" d="M13.6 50.5l2-13 32.9-7 29.9 7 2 8"/><path fill="#7DC9E4" d="M71 37.5l-4.6-34L55.5.3l-2 35.7"/><path fill="#C3E8F3" d="M53.5 33.5L54.1.1 27 6.1 20.6 39"/><path fill="none" stroke="#64C7EA" stroke-width="2.233" d="M55 .4C54.2 8 52.8 32 52.8 32"/><path fill="#7DC9E4" d="M48 49.1V169h41.9l1-113-42.4-7-.5.1"/><g fill="#7DC9E4"><path d="M86.4 46l-6.1-1 .1.5L48 47.9v11.6l38.9-3-.5-10.5"/><path d="M80.3 45l-1.9-7.5-29.9-7-.5.2v17.2l32.4-2.4-.1-.5"/></g><path fill="none" stroke="#64C7EA" stroke-width="1.489" d="M.9 59.5l47.3-10.8 42.9 7.1m-83-6.5c8.3-2 39.4-10.8 39.4-10.8L86.4 46m-71-8c6.6-1.4 32.3-7.8 32.3-7.8l30.8 6.7m-44.6-25l-2.4 13.7m13-15l-2.3 13.6M63.5 8.3l.3 17.9"/><path fill="none" stroke="#C3E8F3" stroke-width="2.233" d="M50.8 79.1l4.7.5 34.6 3.8M57.8 169V79.8M69.5 169V81.1M81.1 169V81.8"/><path fill="#FFF" d="M8.9 65.8H14v13.3H8.9V65.8zm20-3.3H34v13.3h-5.1V62.5zm-20 68.9H14v13.3H8.9v-13.3zm20-3.4H34v13.3h-5.1V128zM17.6 96.1h5.1v13.3h-5.1V96.1zm19.9-3.3h5.1v13.3h-5.1V92.8zM17.6 160h5.1v8.4h-5.1V160zm19.9-3.4h5.1v11.7h-5.1v-11.7z"/></svg>