<svg width="66" height="317" viewBox="-1 -1 66 317" xmlns="http://www.w3.org/2000/svg"><path fill="#40B4E5" d="M.8.7l64.4 57.7V316H.8V.7"/><path fill="#79CEF3" d="M15.6 49.1H19v7h-3.4v-7zm0 12.2H19v7h-3.4v-7zm0 10.9H19v7h-3.4v-7zm0 11.6H19v7h-3.4v-7zm0 12.8H19v7h-3.4v-7zm-7.3 7h3.4v7H8.3v-7zm0-13h3.4v7H8.3v-7zm0-13h3.4v7H8.3v-7zm0-10.6h3.4v7H8.3v-7zm0 72.3h3.4v7H8.3v-7zm0-13h3.4v7H8.3v-7zm0-10.6h3.4v7H8.3v-7zm0-59.9h3.4v7H8.3v-7zm34.3 8.9H46v7h-3.4v-7zm0 12.2H46v7h-3.4v-7zm0 10.9H46v7h-3.4v-7zm0 11.6H46v7h-3.4v-7zm0 12.9H46v7h-3.4v-7zm-7.3 7h3.4v7h-3.4v-7zm0-13h3.4v7h-3.4v-7zm0-13.1h3.4v7h-3.4v-7zm0-10.6h3.4v7h-3.4v-7zm0-11.2h3.4v7h-3.4v-7zm14.1 47.9h3.4v7h-3.4v-7zm0-13h3.4v7h-3.4v-7zm0-13.1h3.4v7h-3.4v-7zm0-10.6h3.4v7h-3.4v-7zm0-11.2h3.4v7h-3.4v-7zM29.1 90.7h3.4v7h-3.4v-7zm0 12.2h3.4v7h-3.4v-7zm0 11h3.4v7h-3.4v-7zm0 24.4h3.4v7h-3.4v-7zm-7 7h3.4v7h-3.4v-7zm0-26h3.4v7h-3.4v-7zm0-10.6h3.4v7h-3.4v-7z"/></svg>