<svg version="1.1" id="butterfly2" x="0px" y="0px" width="150px" height="150px" viewBox="0 0 150 150" enable-background="new 0 0 150 150" xml:space="preserve" xmlns="http://www.w3.org/2000/svg" xmlns:xlink="http://www.w3.org/1999/xlink">
  <g>
    <g id="R_Wing">
      <path id="Wing_Fill_1_" fill="#D90000" d="M86.759,88.973c7.897-1.172,15.981,1.899,19.974,3.612&#xD;&#xA;&#x9;&#x9;c5.871,2.506,10.289,8.304,6.896,16.254c-4.885,11.454-20.711,6.193-27.207,0.429c0.273,3.711-2.229,8.09-5.454,7.293&#xD;&#xA;&#x9;&#x9;c-3.171-0.802-5.243-6.19-2.735-11.562c-3.832,4.26-4.665,11.501-9.583,13.922c-2.464,1.213-5.928-0.116-6.312-3.098&#xD;&#xA;&#x9;&#x9;c-0.449-3.544,0.709-6.265,3.279-8.479c4.776-4.131,10.896-5.884,13.069-13.642C79.17,91.971,84.43,90.995,86.759,88.973z"/>
      <path id="Design_11_" fill="#FFD100" d="M108.65,99.704c-2.241-0.203-3.146,2.203-4.021,4.507&#xD;&#xA;&#x9;&#x9;c-0.665,1.753-1.631,2.619-1.631,4.523c0.003,1.678,1.148,3.115,2.646,3.022c3.123-0.188,5.222-4.145,5.662-8.188&#xD;&#xA;&#x9;&#x9;C111.544,101.477,110.523,99.874,108.65,99.704z"/>
      <path id="Design_10_" fill="#FFD100" d="M93.682,91.174c-4.578,1.104-8.187,6.852-7.342,11.863&#xD;&#xA;&#x9;&#x9;c0.91,5.457,6.428,8.327,11.124,6.312c3.949-1.697,7.499-8.188,5.708-13.106C101.667,92.15,98.423,90.032,93.682,91.174z"/>
      <path id="Design_9_" fill="#FFD100" d="M82.807,106.729c-1.225-0.668-2.512,0.604-3.002,2.045c-0.548,1.595,0.002,3.342,1.355,4.08&#xD;&#xA;&#x9;&#x9;c1.292,0.705,2.527-1.076,2.833-2.676C84.275,108.71,83.997,107.378,82.807,106.729z"/>
      <path id="Design_8_" fill="#FFD100" d="M76.064,105.227c-2.135,2.529-2.887,6.703-6.07,5.922c-1.237-0.303-1.309-2.184-0.73-3.463&#xD;&#xA;&#x9;&#x9;c0.682-1.498,1.736-1.922,3.108-2.559c1.302-0.605,2.032-1.156,3.124-2.182C76.527,101.986,78.133,102.775,76.064,105.227z"/>
      <path id="Design_7_" fill="#FFD100" d="M67.257,111.706c-1.146-0.22-2.004,0.858-2.319,2.118c-0.311,1.216,0.079,2.552,1.144,2.959&#xD;&#xA;&#x9;&#x9;c1.25,0.1,2.12-0.738,2.633-2.006C69.218,113.535,68.462,111.941,67.257,111.706z"/>
      <path id="Design_6_" fill="#FFD100" d="M80.654,97.471c-1.894,1.146-2.86,3.098-2.342,4.784c0.426,1.388,1.971,3.167,3.754,2.625&#xD;&#xA;&#x9;&#x9;c1.998-0.592,3.289-2.675,2.926-4.942C84.682,97.986,82.2,96.534,80.654,97.471z"/>
    </g>
    <g id="L_Wing">
      <path id="Wing_Fill" fill="#D90000" d="M77.948,71.427c7.561-12.776,9.415-29.069,10.059-37.258&#xD;&#xA;&#x9;&#x9;c0.966-12.039-3.698-24.044-17.217-24.168C51.32,9.821,46.656,41.15,49.711,56.725c-4.906-3.268-12.831-2.239-14.158,3.938&#xD;&#xA;&#x9;&#x9;c-1.287,6.088,4.589,13.736,13.875,13.438c-8.754,3.417-19.367-0.594-26.411,6.092c-3.528,3.349-4.305,10.339-0.482,13.246&#xD;&#xA;&#x9;&#x9;c4.545,3.444,9.17,3.492,14.159,0.718c9.292-5.146,16.315-14.409,28.651-12.33C68.099,82.29,73.401,73.933,77.948,71.427z"/>
      <path id="Design_5_" fill="#FFD100" d="M79.634,25.493c-1.405,4.028-5.403,3.778-9.239,3.553c-2.918-0.171-4.839,0.85-7.467-0.584&#xD;&#xA;&#x9;&#x9;c-2.308-1.27-3.429-4.339-2.178-6.857c2.613-5.259,9.645-5.907,15.555-3.623C79.373,19.15,80.811,22.124,79.634,25.493z"/>
      <path id="Design_4_" fill="#FFD100" d="M80.123,57.798c-4.969,7.085-15.607,8.996-21.883,3.76&#xD;&#xA;&#x9;&#x9;c-6.838-5.684-6.64-17.383-0.321-23.988c5.31-5.549,16.935-6.802,22.366,0C84.789,43.253,85.271,50.459,80.123,57.798z"/>
      <path id="Design_3_" fill="#FFD100" d="M50.491,64.889c0,2.619-2.725,3.886-5.08,3.651c-2.605-0.251-4.603-2.518-4.603-5.417&#xD;&#xA;&#x9;&#x9;c0-2.766,3.387-3.562,5.82-2.885C48.863,60.857,50.491,62.344,50.491,64.889z"/>
      <path id="Design_2_" fill="#FFD100" d="M47.484,77.68c-5.097,1.788-11.417-0.058-12.737,6.037&#xD;&#xA;&#x9;&#x9;c-0.513,2.367,2.025,3.906,4.224,3.871c2.581-0.051,3.957-1.557,5.868-3.449c1.818-1.797,3.124-2.643,5.359-3.761&#xD;&#xA;&#x9;&#x9;C52.296,79.318,52.418,75.945,47.484,77.68z"/>
      <path id="Design_1_" fill="#FFD100" d="M31.917,88.027c-0.563,2.146-2.695,2.82-4.666,2.414c-1.911-0.379-3.46-2.062-3.218-4.205&#xD;&#xA;&#x9;&#x9;c0.805-2.236,2.615-3.109,4.746-3.043C30.873,83.261,32.501,85.768,31.917,88.027z"/>
      <path id="Design" fill="#FFD100" d="M61.631,75.586c-3.001,2.406-6.423,2.611-8.357,0.445c-1.592-1.782-2.885-5.794-0.796-8.468&#xD;&#xA;&#x9;&#x9;c2.321-3.007,6.168-3.676,9.021-1.337C63.953,68.232,64.085,73.618,61.631,75.586z"/>
    </g>
    <path id="R_Arm" d="M93.475,86.229c7.229,2.449,17.644-0.814,25.113-3.752c0.153-3.03,3.825-8.405,5.523-6.055&#xD;&#xA;&#x9;c1.689,2.339-2.851,8.072-5.262,6.771c-7.806,4.222-19.479,8.455-27.021,3.475L93.475,86.229z"/>
    <path id="L_Leg" d="M56.856,94.305c-4.511,3.787-9.385,3.713-14.459,0.892c-1.526,2.938-3.184,3.563-5.837,6.391&#xD;&#xA;&#x9;c-1.597,1.701-1.094,5.687,1.061,6.239c4.212,1.074,6.964-5.272,6.633-10.104c1.458,1.485,4.444,2.637,7.428,2.229&#xD;&#xA;&#x9;c1.963-0.255,5.254-2.45,6.102-4.087C58.184,95.096,57.375,95.146,56.856,94.305z"/>
    <path id="R_Leg" d="M59.971,100.241c-3.001,4.28-7.076,5.438-11.863,4.354c-0.686,2.823-1.404,4.399-1.695,7.271&#xD;&#xA;&#x9;c-0.204,2.116,0.222,5.006,2.127,4.932c3.722-0.155,2.855-6.625,1.617-10.563c1.511,0.873,4.226,1.087,6.631,0&#xD;&#xA;&#x9;c1.583-0.697,3.887-3.354,4.267-4.926C61.233,100.566,60.571,100.812,59.971,100.241z"/>
    <g id="Body">
      <path fill="#FF7B00" d="M95.322,74.695c0.126-3.319-4.309-4.754-6.102-7.428c-1.239-0.048-2.515-0.101-3.816-0.13&#xD;&#xA;&#x9;&#x9;c-2.347-0.054-4.787-0.019-7.303,0.292c-1.61,0.2-3.251,0.516-4.917,0.998c-3.239,0.936-6.569,2.495-9.953,5.073&#xD;&#xA;&#x9;&#x9;c-0.003,0.002-0.006,0.004-0.009,0.006c-8.822,6.759-10.811,24.957-1.194,30.007c8.018,4.166,15.29,3.672,22.081-1.521&#xD;&#xA;&#x9;&#x9;c0.961-0.735,1.913-1.564,2.856-2.488c0.936-0.917,1.766-1.838,2.511-2.757c1.941-2.396,3.27-4.78,4.169-7.058&#xD;&#xA;&#x9;&#x9;c0.798-2.021,1.261-3.956,1.519-5.743C95.769,79.764,95.26,76.397,95.322,74.695z"/>
      <path fill="#FFFF00" d="M85.245,77.963c-1.74-3.898-1.204-7.198,0.159-10.826c-2.347-0.054-4.787-0.019-7.303,0.292&#xD;&#xA;&#x9;&#x9;c-1.596,4.686-1.581,10.343-0.02,14.1c2.08,4.987,9.049,8.956,15.562,8.16c0.798-2.021,1.261-3.956,1.519-5.743&#xD;&#xA;&#x9;&#x9;C90.927,83.645,87.246,82.476,85.245,77.963z"/>
      <path fill="#FFFF00" d="M69.789,88.841c-3.786-7.218-2.854-14.997,3.396-20.414c-3.239,0.936-6.569,2.495-9.953,5.073&#xD;&#xA;&#x9;&#x9;c-4.102,5.9-4.833,13.358-1.998,19.171c3.359,6.857,13.07,11.439,22.875,9.32c0.961-0.735,1.913-1.564,2.856-2.488&#xD;&#xA;&#x9;&#x9;c0.936-0.917,1.766-1.838,2.511-2.757C81.164,96.691,73.542,96.042,69.789,88.841z"/>
    </g>
    <path id="L_Arm" d="M73.104,74.695c-1.856,2.375-4.509,10.77,2.521,14.409c1.824-2.246,6.831-1.764,6.831,1.268&#xD;&#xA;&#x9;c0,3.007-5.886,2.188-7.029-0.521c-8.092-3.789-5.688-13.131-3.847-15.972L73.104,74.695z"/>
    <g id="Head">
      <path id="Head_1_" fill="#FF7B00" d="M88.835,73.682c-2.592-4.575-3.724-8.704-3.037-14.226&#xD;&#xA;&#x9;&#x9;c1.179-9.454,8.128-17.596,15.804-16.661c7.787,0.936,15.479,9.914,15.211,22.987c-7.562,4.308-15.121,4.604-23.875,0.593&#xD;&#xA;&#x9;&#x9;c3.979,12.182,18.086,8.991,20.52,8.991c-0.268,4.071-3.607,6.131-6.839,6.927C102.626,83.275,94.458,83.604,88.835,73.682z"/>
      <g id="L_Eye">
        <path fill="#FFFFFF" d="M93.109,57.979c-0.047-3.122,1.832-5.691,4.195-5.739c2.359-0.048,4.312,2.442,4.357,5.562&#xD;&#xA;&#x9;&#x9;&#x9;c0.047,3.122-1.832,5.691-4.192,5.74C95.107,63.591,93.154,61.1,93.109,57.979z"/>
        <path d="M98.072,57.599c0.582-1.48,2.066-2.121,3.316-1.43s1.791,2.451,1.206,3.932c-0.581,1.479-2.065,2.121-3.315,1.43&#xD;&#xA;&#x9;&#x9;&#x9;C98.029,60.84,97.49,59.08,98.072,57.599z"/>
      </g>
      <g id="R_Eye">
        <path id="White" fill="#FFFFFF" d="M108.331,59.028c-0.034-2.32,1.362-4.23,3.119-4.266c1.756-0.036,3.208,1.816,3.241,4.136&#xD;&#xA;&#x9;&#x9;&#x9;c0.035,2.32-1.36,4.23-3.116,4.266C109.816,63.2,108.366,61.348,108.331,59.028z"/>
        <path id="Pupil" d="M111.975,58.66c0.437-1.1,1.537-1.576,2.467-1.063c0.93,0.514,1.33,1.822,0.896,2.922&#xD;&#xA;&#x9;&#x9;&#x9;c-0.436,1.101-1.537,1.577-2.466,1.064C111.943,61.069,111.542,59.761,111.975,58.66z"/>
      </g>
      <path id="L_Antenna" fill="#D90000" d="M101.841,44.639c3.091-8.663,5.442-22.712-1.353-26.663&#xD;&#xA;&#x9;&#x9;c-3.719-2.161-13.383,1.939-11.452,10.085c0.796,3.359,4.426,4.478,7.354,3.347c2.289-0.882,5.002-4.312,3.539-6.453&#xD;&#xA;&#x9;&#x9;c-1.326-1.969-4.52-1.222-5.683,1.546c-0.699,1.666,1.356,3.259,1.778,0.924c0.216-1.178,0.604-2.164,2.166-2.123&#xD;&#xA;&#x9;&#x9;c1.881,0.047-0.105,4.421-1.916,4.99c-1.62,0.528-4.094,0.161-4.549-2.627c-0.942-5.798,5.898-8.857,8.117-5.965&#xD;&#xA;&#x9;&#x9;C105.038,28.463,101.549,38.826,101.841,44.639z"/>
      <path id="R_Antenna" fill="#D90000" d="M108.316,46.45c-0.088-7.521,1.766-18.856,7.896-19.631&#xD;&#xA;&#x9;&#x9;c3.354-0.424,9.572,5.79,6.021,11.296c-1.465,2.271-4.484,1.938-6.398,0.139c-1.495-1.405-2.65-4.864-0.998-6.002&#xD;&#xA;&#x9;&#x9;c1.505-1.053,3.715,0.542,3.876,3.001c0.099,1.481-1.86,2.014-1.578,0.12c0.146-0.955,0.105-1.822-1.083-2.299&#xD;&#xA;&#x9;&#x9;c-1.426-0.572-1.062,3.363,0.156,4.377c1.084,0.922,3.038,1.445,4.104-0.506c2.205-4.058-2.156-8.576-4.572-7.116&#xD;&#xA;&#x9;&#x9;C110.085,33.24,110.037,42.167,108.316,46.45z"/>
    </g>
  </g>
</svg>