<svg width="73" height="60" xmlns="http://www.w3.org/2000/svg"><path fill="#284A00" d="M70.4 3.069A8.644 8.644 0 0 0 64.264.537a8.645 8.645 0 0 0-6.173 2.567L22.896 38.49l-6.961-7.207a8.637 8.637 0 0 0-6.263-2.658 8.66 8.66 0 0 0-6.045 2.443C.174 34.403.078 39.925 3.412 43.377L16.5 56.926a8.654 8.654 0 0 0 1.695 1.355l.083.05a8.73 8.73 0 0 0 4.55 1.281c2.332 0 4.521-.91 6.165-2.563l41.442-41.67c3.384-3.402 3.37-8.925-.034-12.31z"/><path fill="#3CF300" d="M69.133 4.342a6.907 6.907 0 0 0-9.768.028L22.878 41.056l-8.236-8.526a6.908 6.908 0 1 0-9.938 9.6L17.79 55.676c.372.385.78.712 1.21.991.057.038.115.07.173.107.113.068.224.137.339.199a6.908 6.908 0 0 0 8.205-1.19l41.443-41.67a6.909 6.909 0 0 0-.027-9.772z"/></svg>