<svg width="150" height="150" xmlns="http://www.w3.org/2000/svg"><path fill="#00B900" d="M80.021 102.439c-3.258 2.922-7.417 5.316-13.861 4.752-5.583-.513-9.787-3.196-8.598-6.104-2.722.677-5.556.906-7.436-.254-1.933-1.192-2.079-2.438-.076-4.021-3.222.138-4.16 1.514-6.257 2.771-3.241 1.933-7.523 2.498-12.167 1.64-3.746-.703-5.331-2.976-3.948-4.916 1.366-1.932 6.017-4.388 15.919-3.41 4.914.479 12.178-2.08 14.729-4.34 2.017-1.785 12.367-1.229 16.716-1.125 5.769.127 2.608-1.373 8.21-.789 9.432.965 21.534 5.812 24.691 10.596 2.742 4.154-.308 7.562-8.004 9.266-7.75 1.713-15.364-.543-19.918-4.066z"/><path fill="#FF0" d="M63.311 88.426c-3.475 2.956-12.87 6.122-19.682 5.555-3.815-.312-9.093-.217-10.525 2.23-1.83 3.129 7.032 3.77 10.358 1.645 4.598-2.938 6.744-2.897 13.981-3.314-4.781 2.212-6.201 3.636-4.287 4.796 1.914 1.16 6.743-.047 11.035-2.272-4.23 4.399-1.572 7.66 1.397 8.141 4.242.684 11.038-1.195 14.196-6.449 1.64 1.336 3.356 2.598 3.356 2.598 8.146 5.901 24.562 1.918 20.193-4.604-2.811-4.191-13.475-6.561-22-8.262-5.161 2.199-12.356-1.573-18.022-.064z"/><path fill="#00B900" d="M82.898 92.053c-2.685.584-2.121 2.32.252 3.188 2.496.901 4.469.062 5.957 1.438 1.588 1.483.678 2.11 1.91 3.688 1.146 1.479 4.104 1.942 6.676 1.083 4.926-1.649.123-5.715-5.104-5.706-5.36-.008-4.728-4.764-9.691-3.691zm-14.664 6.815c-1.858.528-2.442 1.428-2.094 2.495.3.963 2.504 1.396 4.289 1.121 2.174-.326 3.221-1.573 2.597-2.707-.464-.858-2.585-1.536-4.792-.909zm4.392-8.197c.659 1.772-2.355 2.548-3.291 4.265-.711 1.321 1.704 3.028 4.302 2.738 2.693-.312 3.414-2.139 2.437-3.492-1.079-1.509.382-2.509 1.465-4.06l-4.913.549zm-8.268 4.538c-1.128.832-4.925 2.521-6.263 1.762-1.77-1.008 1.788-2.348 3.919-3.222 2.495-1.022 4.168.115 2.344 1.46zm-20.317.296c-.872.572-1.099.897-2.25 1.449-1.583.757-4.729 1.287-5.89-.011-.961-1.075 1.571-1.702 3.292-1.931 1.721-.224 3.227.133 4.848.493zm13.727-43.499c-7.305-2.368-14.722-3.411-20.068 1.331-4.608 4.133-4.784 10.657.514 14.247-3.566.648-6.613 2.015-6.749 4.873-.134 2.943 1.506 4.876 5.69 6.014-3.277 1.746-6.146.271-9.961-.335-5.861-.898-10.776.845-13.981 4.931-2.577 3.312-.843 7.638 3.267 9.687 4.067 2.033 12.035 2.865 20.113-4.562 4.008-3.688 14.628-4.275 20.31-2.463 4.485 1.428 13.59-5.654 17.598-8.441 5.338-3.674 4.462.463 8.985-3.792 7.636-7.133 12.271-21.638 8.438-30.645-3.328-7.822-11.13-11.034-20.932-8.908-9.866 2.133-13.918 10.082-13.224 18.063z"/><path fill="#FF0" d="M61.857 82.895c-7.558-2.282-21.083-1.301-26.784 3.66-3.194 2.778-8.389 5.818-13.265 3.053-6.233-3.529 1.326-9.842 7.552-8.695 8.609 1.575 10.611.229 18.132-3.525-7.743-.393-11.14-1.646-10.972-4.521.169-2.878 6.517-4.009 13.818-3.294-10.356-3.979-12.483-10.42-10.327-12.924 3.08-3.577 12.272-4.899 22.821.986a115.003 115.003 0 0 1-.511-5.881c-.661-13.686 20.752-17.703 25.924-5.38 3.323 7.916-3.492 17.872-9.212 25.551-8.114-.161-9.594 9.783-17.176 10.97z"/><path fill="#00B900" d="M51.608 64.43c-2.534.34-4.382-.643-5.577-2.434-1.095-1.613.392-3.589 2.496-4.258 2.545-.831 5.334.386 6.361 2.445.784 1.552-.271 3.842-3.28 4.247zm15.943 9.502c-1.91-3.027-5.901-2.354-9.256-4.334-2.572-1.53-2.709-5.523.19-6.665 3.024-1.164 6.331 1.109 7.334 3.708 1.131 2.892 3.96 3.491 7.22 5.139l-5.488 2.152zM53.142 72.2c-2.273-.554-8.324-.763-8.513 1.175-.251 2.564 5.071 2.4 8.364 2.407 3.851.01 3.821-2.689.149-3.582zM33.283 84.045c-1.654-.322-2.339-.67-4.229-.791-2.6-.165-6.37.948-5.619 3.577.621 2.175 3.94 1.573 5.912.871 1.972-.703 2.904-2.141 3.936-3.657zm17.533-3.214c5.968-1.448 9.797.17 12.026-.12-4.157-3.118-9.966-3.064-12.72-2.602-3.222.541-2.588 3.518.694 2.722zm24.581-15.157c-3.398.753-5.352-2.16-4.322-4.88 1.091-2.85 4.183-2.795 3.636-5.734-.61-3.165-2.378-3.545-3.452-6.623-1.02-2.89 1.139-5.365 4.834-5.643 7.074-.531 8.306 8.402 3.298 11.549-5.128 3.249 2.293 9.92-3.994 11.331z"/><path fill="#6600A1" d="M99.975 76.752c-7.173-4.523-17.088-6.541-30.312-5.451C57.169 72.35 46.431 82.993 54.15 89.604c7.371 6.259 16.604 8.379 28.14 6.461 16.104-2.676 18.744-10.305 20.577-12.479 1.705-2.031-2.278-4.522-2.892-6.834z"/><path fill="#FFB400" d="M70.786 75.335c0 3.655 5.188 5.388 9.698 5.542 3.951.135 7.66-2.811 7.043-6.004-.283-1.451-1.211-2.526-2.503-3.286-3.514-.5-7.378-.672-11.603-.508-1.597.944-2.635 2.462-2.635 4.256zm-15.418 8.237c0-2.463 1.807-4.504 4.756-4.772 3.473-.308 7.421 1.193 7.421 4.003 0 2.463-1.998 4.465-4.947 4.926-3.377.537-7.23-1.319-7.23-4.157zm23.241 8.46c-2.027.187-4.111-.282-4.633-1.875-.869-2.529.405-4.731 3.474-5.716 2.315-.741 5.849.375 6.254 2.343.581 2.53-1.91 4.919-5.095 5.248zm15.202-4.241c-1.977-.913-4.59-.43-5.688 1.168-1.062 1.547-.763 4.121 1.312 4.809.277.092.576.164.886.221 2.294-.857 4.139-1.833 5.634-2.843.107-1.346-.631-2.647-2.144-3.355zm-.006-3.45c-2.115-.075-4.305-1.29-3.996-3.002.381-2.001 2.379-3.31 4.854-3.31 2.354 0 3.974 2.175 3.426 4.002-.48 1.559-2.286 2.387-4.284 2.31zm-28.399 11.47c-1.903-.174-3.615-1.502-3.235-3.002.381-1.463 2.236-2.252 4.091-2.002 1.808.096 3.163 1.385 3.044 2.852-.118 1.477-2.068 2.323-3.9 2.152z"/><path fill="#00B900" d="M142.314 43.189c2.086.274 4.176 2.393-.162 2.535-9.771.32.289 6.538-2.411 9.998-3.666 4.693-15.858-.675-15.216 5.844l-1.586-.144c-1.338-10.084 16.25-1.226 11.936-12.224-1.605-4.093 2.227-6.695 7.439-6.009z"/><path fill="#6600A1" d="M101.202 82.227c-2.538-4.136-3.407-7.744-1.998-12.353 2.42-7.889 11.468-14.093 20.362-12.536 9.021 1.569 17.056 9.94 15.307 20.985-9.34 2.896-18.236 2.393-28.062-1.878 3.326 10.716 20.22 9.42 23.068 9.662-.76 3.422-4.904 4.832-8.779 5.184-4.786.436-14.397-.102-19.898-9.064z"/><path fill="#FFF" d="M113.999 66.557c3.127-.636 6.358.197 7.224 1.859.862 1.663-.972 3.525-4.097 4.161-3.127.636-6.36-.198-7.224-1.86-.863-1.662.971-3.525 4.097-4.16z"/><path fill="#6600A1" d="M113.236 68.838c.516-.945 1.828-1.354 2.934-.914 1.104.441 1.583 1.566 1.068 2.511-.516.945-1.829 1.355-2.934.915-1.105-.441-1.581-1.566-1.068-2.512z"/><path fill="#FFF" d="M126.381 71.523c-1.977-.717-2.697-2.057-1.609-2.991 1.088-.935 3.57-1.112 5.547-.396 1.979.717 2.697 2.056 1.611 2.991-1.089.937-3.575 1.114-5.549.396z"/><path fill="#6600A1" d="M126.846 69.302c.35-.621 1.238-.889 1.986-.599.747.289 1.07 1.027.723 1.645-.349.621-1.236.89-1.984.6-.751-.289-1.073-1.027-.725-1.646z"/><path fill="#00B900" d="M127.232 43.55c-.297-3.641-5.777-5.367-7.072-8.626-.713-1.791 7.152-5.905.451-5.889l-.027.002a1.465 1.465 0 0 0-.484.062c-2.947.876-6.438 2.202-5.838 5.886.62 3.822 6.291 6.476 5.957 10.331-.279 3.22-6.388 4.512-7.666 7.562-.709 1.683-.527 3.389.497 4.941 1.007 1.526 1.925 1.308 3.726 1.612.312.052 1.82-.167 1.562-.78-4.092-9.587 9.544-7.096 8.894-15.101z"/></svg>