<svg xmlns="http://www.w3.org/2000/svg" viewBox="0 0 44.9 52.5"><path fill="#F7941E" d="M44.9 35.9c-.4-.8-1.6-1.4-2.3-1-2.1 1.2-4.2 2.4-6.3 3.7-.1.1-.2.3-.2.5-.2.5-.4 1.1-.7 1.4-1.7 1.7-3.9 2.6-6.2 3.2-1.3.4-2.6.5-4 .3-2.1-.3-4-1.3-5.9-2.1-.5-.2-1-.4-1.3-.8-1-1.1-1.9-2.2-2.8-3.3-1.9-2.7-2.7-5.9-3.3-9.1-.3-1.8-.5-3.7-.4-5.6.3-3.7 1.2-7.4 2.6-10.9.6-1.4 1.4-2.8 2.6-3.7 3.5-2.6 7.5-3.3 11.8-2.6 2 .3 3.6 1.1 5.1 2.5 1.2 1.1 2.2 2.4 2.5 4.1.1.9.2 1.8.2 2.8 0 .7.4 1 1.1 1.1 1.9.2 3.8.1 5.1-1.7.1-.1.3-.2.4-.3.4-.5 1.1-1 1.2-1.6.2-1.7.1-3.4.1-5.1 0-2 0-4 .1-6.1 0-.7-.3-1.1-.8-1.1-1.4 0-2.9-.5-3.8 1.1-.3.3-.6.4-.7.6-.3.4-.6.4-1 .1C35.9 1 33.7 0 31.2 0h-3c-2.8-.1-5.5.3-8.2 1-3 .8-5.6 2.3-8 4.3-.8.8-1.5 1.7-2.3 2.5-2.2 1.9-4.1 4-5.7 6.4C1.7 17.7.7 21.6.2 25.8-.3 30 0 34 1.9 37.7c1.9 3.9 4.4 7.4 8 9.8 1.8 1.2 3.7 2.3 5.7 3.2 2.6 1.3 5.5 1.9 8.4 1.7 1.5-.1 3.1-.5 4.6-.8 3.3-.7 6-2.4 8.3-4.7 1.2-1.2 2.4-2.4 3.7-3.6 2.1-1.9 3.4-4.3 4.3-7v-.4zm-.9 1c-1.3 2.7-3 5.1-5.3 7.2-2.7 2.4-5.7 3.5-9.2 3.8-4.2.3-8.2-.7-11.8-2.7C15.2 43.8 13 42 11 40c-1.8-1.8-3.1-4-4-6.4-.8-1.8-1.4-3.6-2-5.4-.9-2.3-.7-4.7-.3-7 .3-2 .8-4 1.4-5.9.8-2.8 2.4-5 4.4-7.1.7-.7 1.4-1.5 2.1-2.2 2.9-2.9 6.5-4.4 10.5-5 3.5-.5 7-.6 10.4 0 .8.2 1.6.5 2.4.9 1.6.8 3.1 1.7 4.6 2.5.5-.3.5-.3.8-3.5.5 0 1.1-.1 1.7 0 .2 0 .5.4.5.5 0 3.5-.1 7-.2 10.5-.3 0-.6.1-.9.1-.6 0-1-.1-1.1-1-.1-.7-.5-1.3-.7-2-1-2.3-2.6-3.8-4.9-4.9-3-1.5-6.2-1.8-9.4-1.5-2.2.5-4.3.9-6.3 1.9-2.9 1.6-5.3 3.8-6.5 6.9-1.6 3.8-2.7 7.8-2.8 11.9-.1 2.4.2 4.8.8 7.1.6 2.6 1.3 5.2 2.9 7.4.9 1.3 1.9 2.5 3 3.6.5.6 1.4.9 2.1 1.3 3 1.5 6.2 2.2 9.5 2.1 3.3-.1 6.2-1.3 8.8-3.2 2.2-1.6 4.1-3.4 5.3-5.8l.3-.3c1.1.5 1.1.6.6 1.4z"/><path fill="#FFF" d="M43.5 35.6l-.3.3c-1.2 2.4-3.1 4.3-5.3 5.8-2.7 1.9-5.5 3.1-8.8 3.2-3.4.1-6.5-.5-9.5-2.1-.7-.4-1.5-.7-2.1-1.3-1.1-1.1-2.1-2.4-3-3.6-1.6-2.2-2.3-4.8-2.9-7.4-.5-2.3-.8-4.8-.8-7.1.1-4.1 1.2-8.1 2.8-11.9 1.3-3.1 3.6-5.3 6.5-6.9 1.9-1 4-1.5 6.2-1.6 3.3-.3 6.4 0 9.4 1.5 2.2 1.1 3.9 2.6 4.9 4.9.3.6.7 1.3.7 2 .1.8.5 1 1.1 1 .3 0 .6-.1.9-.1.1-3.6.2-7 .2-10.5 0-.2-.3-.5-.5-.5-.6-.1-1.1 0-1.7 0-.4 3.1-.4 3.1-.8 3.5-1.5-.9-3.1-1.7-4.6-2.5-.8-.4-1.5-.7-2.4-.9-3.5-.7-7-.6-10.4 0-4 .6-7.6 2.1-10.5 5-.7.7-1.4 1.5-2.1 2.2-2 2-3.6 4.3-4.4 7.1-.6 1.9-1.1 3.9-1.4 5.9-.3 2.3-.5 4.7.3 7 .7 1.8 1.2 3.5 1.9 5.3.9 2.4 2.2 4.6 4 6.4 2 2 4.2 3.9 6.7 5.2 3.7 2 7.6 3 11.8 2.7 3.5-.2 6.6-1.4 9.2-3.8 2.3-2 4-4.5 5.3-7.2.6-1.1.6-1.2-.4-1.6zM7.6 20.5c.4-1.6.6-3.3 1.2-4.8.8-2.2 1.9-4.3 3-6.4.4-.7 1-1.3 1.5-2 .1 0 .2.1.2.1-.2.5-.5 1-.8 1.5-1.8 3-3.3 6.2-4.2 9.7-.2.9-.3 1.8-.5 2.8-.5 0-.5-.5-.4-.9zm-.8 3.3c0-.4.2-.7.4-1.1h.4c.3.3.7.7.7 1 0 .2-.4.7-.7.8-.5.2-.8-.2-.8-.7zm6.7 16.7c-.5-.5-1.1-1-1.5-1.6-2.4-3.4-3.9-7.3-4.5-11.5 0-.2.2-.5.3-.8.1 0 .2.1.3.1.6 5.1 2.7 9.5 5.8 13.6-.2 0-.3.1-.4.2z"/><path fill="#F7941E" d="M13.8 40.3c-.1.1-.2.1-.3.2-.5-.5-1.1-1-1.5-1.6-2.4-3.4-3.9-7.3-4.5-11.5 0-.2.2-.5.3-.8.1 0 .2.1.3.1.6 5.1 2.7 9.5 5.7 13.6zm-.2-32.8c-.2.5-.5 1-.8 1.5-1.8 3-3.3 6.2-4.2 9.7-.2.9-.3 1.8-.5 2.8-.6-.1-.6-.6-.5-1 .4-1.6.6-3.3 1.2-4.8.8-2.2 1.9-4.3 3-6.4.4-.7 1-1.3 1.5-2 .1.1.2.1.3.2zM8.3 23.7c0 .2-.4.7-.7.8-.5.2-.8-.2-.7-.7 0-.4.2-.7.4-1.1h.4c.1.3.5.6.6 1z"/></svg>