<svg width="128" height="97" xmlns="http://www.w3.org/2000/svg"><path fill="#B2B2B2" stroke="#B2B2B2" stroke-width="1.629" d="M63.831 68.425c17.304 0 32.983 1.552 44.337 4.058 11.353 2.507 18.38 5.969 18.38 9.789 0 3.82-7.027 7.282-18.38 9.789-11.354 2.506-27.033 4.058-44.337 4.058-17.303 0-32.982-1.552-44.336-4.058-11.353-2.507-18.38-5.969-18.38-9.79 0-3.82 7.027-7.28 18.38-9.788 11.354-2.506 27.033-4.058 44.336-4.058z"/><g stroke-linecap="round"><path fill="#600" stroke="#703D00" stroke-width="1.995" d="M221.3 166.3c14.181 0 24.707 2.282 36.336 6.206 5.526 1.869 10.343 5.525 13.864 9.994 2.772 3.524 4.815 8.045 4.5 12.25-.601 4.732.571 11.302-7 12.15-30.28 3.39-61.125 3.256-91.5-.6-7.594-.964-5.956-8.11-7-12.5-.754-3.562-1.158-7.856.8-10.95 3.081-4.773 8.09-8.355 13.664-10.344 11.563-4.103 22.155-6.206 36.336-6.206z" transform="matrix(.8145 0 0 1.27089 -117.8 -179.45)"/><path fill="#FF99E5" stroke="#FF00BF" stroke-width="2" d="M200.75 137.65c12.149-.369 24.34-.165 36.25 1.6 6.876 1.385 16.028 1.831 19.5 7.75 4.511 7.675 1.098 17.417.5 26.75-.261 2.485-1.173 7.537-3.5 6.8-5.283-2.39-7.121-13.27-12.45-15-2.763-.893-.438 7.684-3.6 9.3-4.3 2.174-12.044-4.568-14.45-1.05-2.726 3.995 5.332 10.527 3.6 15.5-.853 3.228-7.367 5.247-9.3 2.6-3.684-5.05.54-13.195-2.6-18.6-1.649-2.845-6.852-2.975-9.3-1.05-4.601 3.631-4.068 11.637-8.75 15-2.505 1.797-6.482.54-8.8-1.05-5.86-4.952-7.327-16.19-14.45-17.55-5.374-1.033-8.221 12.954-11.9 11.35-4.157-1.832.514-17.898-3.1-19.1-3.393-1.099-7.393 16.102-10.4 15.3-3.443-1.023-2.782-12.871-2.5-18.95.23-4.991-1.193-12.926 3.5-14.6 16.326-5.787 34.451-4.473 51.75-5z" transform="matrix(.8145 0 0 .8379 -100.25 -84.1)"/><path fill="none" stroke="#9B4976" stroke-width="1.625" d="M41.64 40.854l4.194-.814m9.245 10.914h5.05m28.181-4.602v-3.787M71.899 34.99l4.235 2.525m26.919 16.412v-4.643m-7.575-9.692h3.38m-69.436 6.312l3.787-3.787"/><path fill="none" stroke="#FFF" stroke-width="1.625" d="M34.065 50.954l3.34-.814M53.41 34.99l3.38 2.932m-1.263 26.105l3.34-2.973m14.294-4.602l3.38 2.525m7.168.407l.407-2.525zm.814-23.132h3.788m6.76 12.625l3.34-.855M24.78 40.04l4.642-1.71m6.72-2.078l1.262 2.933zm35.757 10.1l.447 2.077z"/><path fill="none" stroke="#6148A4" stroke-width="1.625" d="M44.98 51.81l2.524-5.458m14.743-12.217h5.05m-2.525 23.132l5.05-1.67m9.651-6.313l4.643 1.67m-49.644 7.168l4.195-1.67m-14.702-11.81v3.38m20.2-14.295l3.787-.407m60.151 17.634v4.643M79.921 42.972h3.788m-4.643-9.652h2.525z"/></g><path fill="#FFF" d="M34.028 40.57c.421-.416.984-.83 1.57-.83.66-.002 1.293.256 1.73.489-.074-10.75-.166-21.195-.28-31.177-.414-.397-.836-.939-1.244-.958-.638-.027-1.406.108-2.009 1.145.094 8.966.17 19.838.233 31.331z"/><path fill="#42B5E8" d="M33.49 22.547c.044.675.013 1.423.017 1.95.01 1.068-.237 2.158-.067 3.223l.076.003a61.719 61.719 0 0 0 3.885-.026c-.02-1.563.394-3.495.185-5.17-.542-.005-1.325-.011-2.144-.01a84.87 84.87 0 0 0-1.952.03zm.2-9.55c.044.675.013 1.423.017 1.95.01 1.068-.237 2.158-.067 3.223l.076.003a61.719 61.719 0 0 0 3.885-.026c-.02-1.563.394-3.495.185-5.17-.542-.005-1.325-.011-2.144-.01a84.87 84.87 0 0 0-1.952.03zm-.3 19.95c.044.675.013 1.423.017 1.95.01 1.068-.237 2.158-.067 3.223l.076.003a61.719 61.719 0 0 0 3.885-.026c-.02-1.563.394-3.495.185-5.17-.542-.005-1.325-.011-2.144-.01a84.87 84.87 0 0 0-1.952.03z"/><path fill="#231F20" d="M38.329 8.511c.181.086.208.188.145.277-.511 9.527-.218 21.648-.617 31.13 0 .011-.007.019-.01.028v.017c-.092.485-1.75.501-2.358.505-.803.004-2.377-.07-2.69-.602-.004-.005-.002-.013-.003-.02-.013-.015-.03-.03-.031-.046-.211-5.53-.435-11.027-.41-16.534.019-4.022-.017-10.59.171-14.61.011-.224.286-.346.585-.37.53-.208 1.536-.256 2.002-.268 1.102-.027 2.38.098 3.216.493zm-4.457.23c-.079 1.5-.134 3.07-.172 4.685-.198 8.502.102 18.303.06 26.234a8.803 8.803 0 0 0 1.732.202c.475.007.945-.031 1.4-.108.021-.004.04-.01.06-.015.155-5.405-.024-10.939.002-16.357.012-2.673 0-6.471.048-9.899.023-1.727.061-3.36.125-4.708-.607-.157-1.375-.178-2.014-.176-.407.003-.828.084-1.24.142z"/><path fill="#FFF" d="M50.522 38.87c-.421-.416-.984-.83-1.57-.83-.66-.002-1.293.256-1.73.489.074-10.75.166-21.195.28-31.177.414-.397.836-.939 1.244-.958.638-.027 1.406.108 2.009 1.145-.094 8.966-.17 19.838-.233 31.331z"/><path fill="#42B5E8" d="M51.11 20.797c-.044.675-.013 1.423-.017 1.95-.01 1.068.237 2.158.067 3.223l-.076.003c-.563.014-1.147.02-1.735.018a67.289 67.289 0 0 1-2.15-.044c.02-1.563-.394-3.495-.185-5.17.542-.005 1.325-.011 2.144-.01a84.87 84.87 0 0 1 1.952.03zm-.2-9.5c-.044.675-.013 1.423-.017 1.95-.01 1.068.237 2.158.067 3.223l-.076.003c-.563.014-1.147.02-1.735.018a67.289 67.289 0 0 1-2.15-.044c.02-1.563-.394-3.495-.185-5.17.542-.005 1.325-.011 2.144-.01a84.87 84.87 0 0 1 1.952.03zm.25 19.9c-.044.675-.013 1.423-.017 1.95-.01 1.068.237 2.158.067 3.223l-.076.003c-.563.014-1.147.02-1.735.018a67.289 67.289 0 0 1-2.15-.044c.02-1.563-.394-3.495-.185-5.17.542-.005 1.325-.011 2.144-.01a84.87 84.87 0 0 1 1.952.03z"/><path fill="#231F20" d="M52.029 6.911c.181.086.208.188.145.277-.511 9.527-.218 21.648-.617 31.13 0 .011-.007.019-.01.028v.017c-.092.485-1.75.501-2.358.505-.803.004-2.377-.07-2.69-.602-.004-.005-.002-.013-.003-.02-.013-.015-.03-.03-.031-.046-.211-5.53-.435-11.027-.41-16.534.019-4.022-.017-10.59.171-14.61.011-.224.286-.346.585-.37.53-.208 1.536-.256 2.002-.268 1.102-.027 2.38.098 3.216.493zm-4.457.23c-.079 1.5-.134 3.07-.172 4.685-.198 8.502.102 18.303.06 26.234a8.803 8.803 0 0 0 1.732.202c.475.007.945-.031 1.4-.108.021-.004.04-.01.06-.015.155-5.405-.024-10.939.002-16.357.012-2.673 0-6.471.048-9.899.023-1.727.061-3.36.125-4.708-.607-.157-1.375-.178-2.014-.176-.407.003-.828.084-1.24.142z"/><path fill="#FFF" d="M62.328 38.22c.421-.416.984-.83 1.57-.83.66-.002 1.293.256 1.73.489-.074-10.75-.166-21.195-.28-31.177-.414-.397-.836-.939-1.244-.958-.638-.027-1.406.108-2.009 1.145.094 8.966.17 19.838.233 31.331z"/><path fill="#42B5E8" d="M61.79 20.197c.044.675.013 1.423.017 1.95.01 1.068-.237 2.158-.067 3.223l.076.003a61.719 61.719 0 0 0 3.885-.026c-.02-1.563.394-3.495.185-5.17-.542-.005-1.325-.011-2.144-.01a84.87 84.87 0 0 0-1.952.03zm.2-9.6c.044.675.013 1.423.017 1.95.01 1.068-.237 2.158-.067 3.223l.076.003a61.719 61.719 0 0 0 3.885-.026c-.02-1.563.394-3.495.185-5.17-.542-.005-1.325-.011-2.144-.01a84.87 84.87 0 0 0-1.952.03zm-.3 19.95c.044.675.013 1.423.017 1.95.01 1.068-.237 2.158-.067 3.223l.076.003a61.719 61.719 0 0 0 3.885-.026c-.02-1.563.394-3.495.185-5.17-.542-.005-1.325-.011-2.144-.01a84.87 84.87 0 0 0-1.952.03z"/><path fill="#231F20" d="M66.679 6.261c.181.086.208.188.145.277-.511 9.527-.218 21.648-.617 31.13 0 .011-.007.019-.01.028v.017c-.092.485-1.75.501-2.358.505-.803.004-2.377-.07-2.69-.602-.004-.005-.002-.013-.003-.02-.013-.015-.03-.03-.031-.046-.211-5.53-.435-11.027-.41-16.534.019-4.022-.017-10.59.171-14.61.011-.224.286-.346.585-.37.53-.208 1.536-.256 2.002-.268 1.102-.027 2.38.098 3.216.493zm-4.457.23c-.079 1.5-.134 3.07-.172 4.685-.198 8.502.102 18.303.06 26.234a8.803 8.803 0 0 0 1.732.202c.475.007.945-.031 1.4-.108.021-.004.04-.01.06-.015.155-5.405-.024-10.939.002-16.357.012-2.673 0-6.471.048-9.899.023-1.727.061-3.36.125-4.708-.607-.157-1.375-.178-2.014-.176-.407.003-.828.084-1.24.142z"/><path fill="#FFF" d="M77.228 39.27c.421-.416.984-.83 1.57-.83.66-.002 1.293.256 1.73.489-.074-10.75-.166-21.195-.28-31.177-.414-.397-.836-.939-1.244-.958-.638-.027-1.406.108-2.009 1.145.094 8.966.17 19.838.233 31.331z"/><path fill="#42B5E8" d="M76.64 21.197c.044.675.013 1.423.017 1.95.01 1.068-.237 2.158-.067 3.223l.076.003a61.719 61.719 0 0 0 3.885-.026c-.02-1.563.394-3.495.185-5.17-.542-.005-1.325-.011-2.144-.01a84.87 84.87 0 0 0-1.952.03zm.2-9.5c.044.675.013 1.423.017 1.95.01 1.068-.237 2.158-.067 3.223l.076.003a61.719 61.719 0 0 0 3.885-.026c-.02-1.563.394-3.495.185-5.17-.542-.005-1.325-.011-2.144-.01a84.87 84.87 0 0 0-1.952.03zm-.2 19.9c.044.675.013 1.423.017 1.95.01 1.068-.237 2.158-.067 3.223l.076.003a61.719 61.719 0 0 0 3.885-.026c-.02-1.563.394-3.495.185-5.17-.542-.005-1.325-.011-2.144-.01a84.87 84.87 0 0 0-1.952.03z"/><path fill="#231F20" d="M81.529 7.311c.181.086.208.188.145.277-.511 9.527-.218 21.648-.617 31.13 0 .011-.007.019-.01.028v.017c-.092.485-1.75.501-2.358.505-.803.004-2.377-.07-2.69-.602-.004-.005-.002-.013-.003-.02-.013-.015-.03-.03-.031-.046-.211-5.53-.435-11.027-.41-16.534.019-4.022-.017-10.59.171-14.61.011-.224.286-.346.585-.37.53-.208 1.536-.256 2.002-.268 1.102-.027 2.38.098 3.216.493zm-4.457.23c-.079 1.5-.134 3.07-.172 4.685-.198 8.502.102 18.303.06 26.234a8.803 8.803 0 0 0 1.732.202c.475.007.945-.031 1.4-.108.021-.004.04-.01.06-.015.155-5.405-.024-10.939.002-16.357.012-2.673 0-6.471.048-9.899.023-1.727.061-3.36.125-4.708-.607-.157-1.375-.178-2.014-.176-.407.003-.828.084-1.24.142z"/><path fill="#FFF" d="M93.772 40.32c-.421-.416-.984-.83-1.57-.83-.66-.002-1.293.256-1.73.489.074-10.75.166-21.195.28-31.177.414-.397.836-.939 1.244-.958.638-.027 1.406.108 2.009 1.145-.094 8.966-.17 19.838-.233 31.331z"/><path fill="#42B5E8" d="M94.31 22.297c-.044.675-.013 1.423-.017 1.95-.01 1.068.237 2.158.067 3.223l-.076.003c-.563.014-1.147.02-1.735.018a67.289 67.289 0 0 1-2.15-.044c.02-1.563-.394-3.495-.185-5.17.542-.005 1.325-.011 2.144-.01a84.87 84.87 0 0 1 1.952.03zm-.2-9.55c-.044.675-.013 1.423-.017 1.95-.01 1.068.237 2.158.067 3.223l-.076.003c-.563.014-1.147.02-1.735.018a67.289 67.289 0 0 1-2.15-.044c.02-1.563-.394-3.495-.185-5.17.542-.005 1.325-.011 2.144-.01a84.87 84.87 0 0 1 1.952.03zm.35 19.95c-.044.675-.013 1.423-.017 1.95-.01 1.068.237 2.158.067 3.223l-.076.003c-.563.014-1.147.02-1.735.018a67.289 67.289 0 0 1-2.15-.044c.02-1.563-.394-3.495-.185-5.17.542-.005 1.325-.011 2.144-.01a84.87 84.87 0 0 1 1.952.03z"/><path fill="#231F20" d="M95.279 8.311c.181.086.208.188.145.277-.511 9.527-.218 21.648-.617 31.13 0 .011-.007.019-.01.028v.017c-.092.485-1.75.501-2.358.505-.803.004-2.377-.07-2.69-.602-.004-.005-.002-.013-.003-.02-.013-.015-.03-.03-.031-.046-.211-5.53-.435-11.027-.41-16.534.019-4.022-.017-10.59.171-14.61.011-.224.286-.346.585-.37.53-.208 1.536-.256 2.002-.268 1.102-.027 2.38.098 3.216.493zm-4.457.23c-.079 1.5-.134 3.07-.172 4.685-.198 8.502.102 18.303.06 26.234a8.803 8.803 0 0 0 1.732.202c.475.007.945-.031 1.4-.108.021-.004.04-.01.06-.015.155-5.405-.024-10.939.002-16.357.012-2.673 0-6.471.048-9.899.023-1.727.061-3.36.125-4.708-.607-.157-1.375-.178-2.014-.176-.407.003-.828.084-1.24.142z"/><path fill="none" stroke="#000" stroke-width="1.629" stroke-linecap="round" d="M36.138 4.894s-.536 1.194-.61 1.832c-.064.544.153 1.085.203 1.63.019.202 0 .61 0 .61m12.625-5.701c.204.61.492 1.2.61 1.832.088.467 0 1.426 0 1.426m15.069-4.887s-.233-.065-.407.203c-.307.49-.54 1.054-.611 1.63a3.561 3.561 0 0 0 .204 1.628c.098.27.61.611.61.611M78.289 2.45s.696.331 1.018.815c.306.467.372 1.07.407 1.629.035.546-.143 1.086-.203 1.629a.674.674 0 0 0 0 .203m13.032 1.629s-.65-1.19-.611-1.832c.034-.546.511-.971.814-1.426.107-.16.408-.407.408-.407"/></svg>