<svg width="318" height="247" viewBox="20 47 318 247" xmlns="http://www.w3.org/2000/svg"><path fill="#B2B2B2" stroke="#B2B2B2" stroke-width="1.629" d="M63.881 76.275c17.304 0 32.983 1.552 44.337 4.058 11.353 2.507 18.38 5.969 18.38 9.789 0 3.82-7.027 7.282-18.38 9.789-11.354 2.506-27.033 4.058-44.337 4.058-17.303 0-32.982-1.552-44.336-4.058-11.353-2.507-18.38-5.969-18.38-9.79 0-3.82 7.027-7.28 18.38-9.788 11.354-2.506 27.033-4.058 44.336-4.058z"/><g stroke-linecap="round"><path fill="#600" stroke="#703D00" stroke-width="1.995" d="M221.3 166.3c14.181 0 24.707 2.282 36.336 6.206 5.526 1.869 10.343 5.525 13.864 9.994 2.772 3.524 4.815 8.045 4.5 12.25-.601 4.732.571 11.302-7 12.15-30.28 3.39-61.125 3.256-91.5-.6-7.594-.964-5.956-8.11-7-12.5-.754-3.562-1.158-7.856.8-10.95 3.081-4.773 8.09-8.355 13.664-10.344 11.563-4.103 22.155-6.206 36.336-6.206z" transform="matrix(.8145 0 0 1.27089 -117.753 -171.62)"/><path fill="#FF99E5" stroke="#FF00BF" stroke-width="2" d="M200.75 137.65c12.149-.369 24.34-.165 36.25 1.6 6.876 1.385 16.028 1.831 19.5 7.75 4.511 7.675 1.098 17.417.5 26.75-.261 2.485-1.173 7.537-3.5 6.8-5.283-2.39-7.121-13.27-12.45-15-2.763-.893-.438 7.684-3.6 9.3-4.3 2.174-12.044-4.568-14.45-1.05-2.726 3.995 5.332 10.527 3.6 15.5-.853 3.228-7.367 5.247-9.3 2.6-3.684-5.05.54-13.195-2.6-18.6-1.649-2.845-6.852-2.975-9.3-1.05-4.601 3.631-4.068 11.637-8.75 15-2.505 1.797-6.482.54-8.8-1.05-5.86-4.952-7.327-16.19-14.45-17.55-5.374-1.033-8.221 12.954-11.9 11.35-4.157-1.832.514-17.898-3.1-19.1-3.393-1.099-7.393 16.102-10.4 15.3-3.443-1.023-2.782-12.871-2.5-18.95.23-4.991-1.193-12.926 3.5-14.6 16.326-5.787 34.451-4.473 51.75-5z" transform="matrix(.8145 0 0 .8379 -100.242 -76.241)"/><path fill="none" stroke="#9B4976" stroke-width="1.625" d="M41.686 48.704l4.195-.814m9.245 10.914h5.05m28.181-4.602v-3.787M71.945 42.84l4.236 2.525M103.1 61.777v-4.643m-7.575-9.692h3.38m-69.436 6.312l3.787-3.787"/><path fill="none" stroke="#FFF" stroke-width="1.625" d="M34.111 58.804l3.34-.814m16.005-15.15l3.38 2.932m-1.262 26.105l3.339-2.973m14.295-4.602l3.38 2.525m7.167.407l.408-2.525zm.815-23.132h3.787m6.761 12.625l3.34-.855M24.826 47.89l4.643-1.71m6.719-2.078l1.263 2.933zm35.757 10.1l.448 2.077z"/><path fill="none" stroke="#6148A4" stroke-width="1.625" d="M45.026 59.66l2.525-5.458m14.742-12.217h5.05m-2.525 23.132l5.05-1.67m9.652-6.313l4.643 1.67m-49.644 7.168l4.194-1.67m-14.702-11.81v3.38m20.2-14.295L48 41.17m60.15 17.634v4.643M79.968 50.822h3.787m-4.642-9.652h2.525z"/></g><path fill="#FFF" d="M34.112 48.47c.422-.417.985-.83 1.57-.832.66-.001 1.293.258 1.73.49-.074-10.75-.166-21.195-.28-31.176-.413-.398-.836-.94-1.243-.959-.639-.027-1.407.108-2.01 1.145.094 8.966.17 19.838.233 31.332z"/><path fill="#42B5E8" d="M33.567 30.44c.043.676.013 1.425.017 1.951.01 1.068-.237 2.159-.067 3.223.026.001.048.003.075.003a61.759 61.759 0 0 0 3.885-.026c-.02-1.562.395-3.494.186-5.17-.542-.005-1.326-.01-2.145-.009a84.87 84.87 0 0 0-1.95.029zm.203-9.57c.044.676.014 1.424.018 1.951.009 1.068-.237 2.158-.068 3.223l.076.003a61.759 61.759 0 0 0 3.885-.026c-.02-1.563.395-3.495.185-5.17-.542-.005-1.325-.011-2.144-.01a84.87 84.87 0 0 0-1.951.03zm-.284 19.956c.043.675.013 1.424.017 1.95.009 1.068-.237 2.159-.068 3.223l.076.003a61.759 61.759 0 0 0 3.885-.026c-.02-1.562.395-3.494.185-5.17-.542-.005-1.325-.01-2.144-.009a84.87 84.87 0 0 0-1.951.029z"/><path fill="#231F20" d="M38.4 16.471c.182.086.209.188.146.277-.511 9.527-.218 21.648-.617 31.13 0 .011-.007.019-.01.028v.017c-.092.485-1.75.501-2.358.505-.803.004-2.377-.07-2.69-.602-.004-.005-.002-.013-.003-.02-.013-.015-.03-.031-.031-.046-.211-5.53-.435-11.027-.41-16.534.019-4.022-.017-10.59.171-14.61.011-.224.286-.346.585-.37.53-.208 1.536-.256 2.002-.268 1.102-.027 2.38.097 3.216.493zm-4.456.23c-.079 1.5-.134 3.07-.172 4.685-.198 8.502.102 18.303.06 26.234a8.803 8.803 0 0 0 1.732.202c.475.007.945-.031 1.4-.108.021-.004.04-.01.06-.015.155-5.405-.024-10.939.002-16.357.012-2.673 0-6.471.048-9.899.023-1.727.061-3.36.125-4.708-.607-.157-1.375-.178-2.014-.176-.408.003-.828.083-1.24.142z"/><path fill="#FF9400" stroke="#FF9400" stroke-width="2" stroke-linecap="round" d="M66.6 139.85c.014-.3-.212-.809.1 0 1.265 3.256 2.707 6.629 3.5 10.1.212.918-.149 1.983-.6 2.9-.449.797-.998 2.026-2 2.05-1.052.024-1.861-1.201-2.25-2.15-.635-1.185-.852-2.612-.65-3.9.262-1.673 1.463-3.236 1.8-4.75.31-1.387.051-3.059.1-4.25z" transform="matrix(1.17173 0 0 .86921 -43.226 -118.595)"/><path fill="#FF9" d="M35.455 12.1c.12-.133.13-.205.204-.12.32.606.655 1.227.733 1.767.052.373-.19.736-.287 1.1-.109.437.069 1.446-.243 1.483-.348-.037-.876-1.015-1.138-1.484-.193-.342-.368-.728-.287-1.1.126-.534.592-1.143 1.018-1.646z"/><path fill="#FFF" d="M50.604 46.76c-.421-.417-.985-.83-1.57-.832-.66-.002-1.293.257-1.73.49.074-10.75.166-21.195.28-31.177.414-.397.836-.939 1.244-.958.638-.027 1.406.108 2.009 1.145-.094 8.966-.17 19.838-.233 31.331z"/><path fill="#42B5E8" d="M51.19 28.69c-.043.675-.013 1.424-.017 1.95-.01 1.068.237 2.159.067 3.223l-.075.003c-.564.014-1.147.02-1.735.018a67.289 67.289 0 0 1-2.15-.044c.02-1.562-.395-3.494-.186-5.17.542-.005 1.326-.01 2.145-.01a84.87 84.87 0 0 1 1.951.03zm-.204-9.49c-.043.676-.013 1.425-.017 1.951-.009 1.068.237 2.159.068 3.223l-.076.003c-.564.014-1.147.02-1.735.018a67.289 67.289 0 0 1-2.15-.044c.02-1.562-.395-3.494-.185-5.17.542-.005 1.325-.01 2.144-.01a84.87 84.87 0 0 1 1.951.03zm.244 19.875c-.043.675-.012 1.423-.016 1.95-.01 1.068.237 2.159.067 3.223l-.076.003c-.563.014-1.147.02-1.735.018a67.289 67.289 0 0 1-2.15-.044c.02-1.562-.395-3.494-.185-5.17.542-.005 1.325-.011 2.144-.01a84.87 84.87 0 0 1 1.952.03z"/><path fill="#231F20" d="M52.085 14.801c.181.086.207.189.145.277-.512 9.527-.218 21.648-.617 31.13 0 .011-.007.019-.01.028v.017c-.092.485-1.75.501-2.359.505-.802.004-2.377-.07-2.69-.602-.003-.005-.001-.013-.002-.02-.014-.015-.03-.03-.031-.046-.212-5.53-.435-11.027-.41-16.534.019-4.021-.017-10.59.171-14.61.011-.223.285-.346.584-.37.53-.208 1.537-.256 2.003-.267 1.102-.028 2.379.097 3.216.492zm-4.457.23c-.08 1.5-.135 3.07-.173 4.685-.197 8.502.103 18.303.06 26.234a8.803 8.803 0 0 0 1.733.202c.474.008.945-.031 1.399-.108.022-.004.04-.01.061-.015.155-5.404-.024-10.938.002-16.356.012-2.673 0-6.472.047-9.9.023-1.727.062-3.36.125-4.708-.606-.156-1.375-.178-2.013-.175-.408.002-.829.083-1.24.142z"/><path fill="#FF9400" d="M49.952 1.186c-.017-.268.255-.723-.12 0-1.524 2.908-3.26 5.92-4.215 9.02-.255.82.18 1.772.723 2.591.54.712 1.201 1.81 2.408 1.831 1.266.022 2.24-1.073 2.709-1.92.764-1.059 1.026-2.333.782-3.484-.315-1.494-1.761-2.89-2.167-4.242-.373-1.24-.061-2.733-.12-3.796z"/><path fill="#FF9" d="M49.22 10.471c-.12-.133-.13-.205-.203-.12-.32.606-.655 1.227-.733 1.767-.052.373.19.736.286 1.1.11.437-.068 1.446.243 1.483.349-.037.877-1.016 1.139-1.484.193-.342.368-.728.287-1.1-.126-.534-.593-1.143-1.019-1.646z"/><path fill="#FFF" d="M62.416 46.108c.422-.417.985-.83 1.57-.832.66-.001 1.293.258 1.731.49-.075-10.75-.167-21.195-.28-31.176-.414-.398-.837-.94-1.244-.959-.639-.027-1.407.108-2.01 1.145.095 8.966.17 19.838.233 31.332z"/><path fill="#42B5E8" d="M61.871 28.079c.043.675.013 1.424.017 1.95.01 1.068-.237 2.159-.067 3.223l.075.003a61.759 61.759 0 0 0 3.885-.026c-.019-1.562.395-3.494.186-5.17-.542-.005-1.325-.01-2.145-.009a84.87 84.87 0 0 0-1.95.029zm.204-9.571c.043.676.013 1.424.017 1.95.009 1.068-.237 2.16-.068 3.224.026 0 .049.002.076.003a61.759 61.759 0 0 0 3.885-.026c-.02-1.563.395-3.495.186-5.17-.542-.005-1.326-.011-2.145-.01a84.87 84.87 0 0 0-1.951.03zm-.285 19.956c.043.675.013 1.424.017 1.95.009 1.068-.237 2.159-.068 3.223l.076.003a61.759 61.759 0 0 0 3.885-.026c-.02-1.562.395-3.494.185-5.17-.542-.005-1.325-.01-2.144-.009a84.87 84.87 0 0 0-1.951.029z"/><path fill="#231F20" d="M66.746 14.15c.181.085.208.188.145.277-.512 9.526-.218 21.648-.617 31.13 0 .01-.007.018-.01.028v.017c-.092.484-1.75.5-2.358.504-.803.005-2.378-.07-2.69-.601-.004-.005-.002-.013-.003-.02-.013-.016-.03-.031-.031-.047-.211-5.53-.435-11.027-.41-16.533.019-4.022-.017-10.59.171-14.61.011-.224.285-.346.584-.37.53-.208 1.537-.256 2.003-.268 1.102-.028 2.379.097 3.216.493zm-4.457.23c-.079 1.5-.135 3.07-.172 4.684-.198 8.503.102 18.304.06 26.235a8.803 8.803 0 0 0 1.732.202 7.82 7.82 0 0 0 1.4-.108c.021-.004.04-.01.06-.015.155-5.405-.024-10.939.002-16.357.012-2.673 0-6.471.047-9.9.024-1.726.062-3.36.125-4.707-.606-.157-1.375-.179-2.013-.176-.408.003-.828.083-1.24.142z"/><path fill="#FF9400" d="M63.067.454c.017-.275-.263-.742.123 0 1.565 2.988 3.349 6.083 4.33 9.268.262.843-.184 1.82-.742 2.662-.556.73-1.235 1.859-2.474 1.88-1.302.023-2.303-1.101-2.784-1.972-.785-1.088-1.054-2.397-.804-3.58.324-1.534 1.81-2.969 2.227-4.358.383-1.273.063-2.807.124-3.9z"/><path fill="#FF9" d="M63.76 9.86c.12-.133.129-.205.203-.12.32.606.655 1.227.733 1.767.052.373-.19.736-.287 1.1-.109.437.069 1.446-.242 1.483-.349-.037-.877-1.015-1.14-1.484-.192-.342-.367-.728-.286-1.1.126-.534.592-1.143 1.018-1.646z"/><path fill="#FFF" d="M77.322 47.166c.421-.416.984-.83 1.57-.83.66-.002 1.293.256 1.73.489-.075-10.75-.166-21.195-.28-31.176-.414-.398-.836-.94-1.244-.959-.638-.027-1.406.108-2.01 1.145.095 8.966.17 19.838.234 31.331z"/><path fill="#42B5E8" d="M76.736 29.097c.043.675.013 1.424.017 1.95.01 1.068-.237 2.159-.067 3.223.026.001.048.003.075.003a61.759 61.759 0 0 0 3.885-.025c-.02-1.563.395-3.495.186-5.17-.542-.006-1.326-.012-2.145-.01a84.87 84.87 0 0 0-1.951.029zm.204-9.489c.043.675.013 1.424.017 1.95.009 1.068-.237 2.159-.068 3.223.026.001.049.003.076.003a61.759 61.759 0 0 0 3.885-.025c-.02-1.563.395-3.495.185-5.17a163.36 163.36 0 0 0-2.144-.01 84.87 84.87 0 0 0-1.951.029zm-.245 19.874c.043.675.013 1.424.017 1.95.01 1.068-.237 2.159-.067 3.223.026.001.048.003.075.003a61.759 61.759 0 0 0 3.885-.026c-.019-1.562.395-3.494.186-5.17-.542-.005-1.325-.01-2.145-.009a84.87 84.87 0 0 0-1.95.029z"/><path fill="#231F20" d="M81.61 15.209c.182.085.208.188.146.277-.512 9.526-.218 21.648-.617 31.13 0 .01-.007.018-.01.027v.018c-.092.484-1.75.5-2.359.504-.802.004-2.377-.07-2.69-.602-.003-.004-.002-.013-.002-.02-.014-.015-.03-.03-.032-.046-.21-5.53-.435-11.027-.41-16.533.02-4.022-.017-10.59.172-14.61.011-.224.285-.346.584-.37.53-.209 1.537-.256 2.003-.268 1.102-.028 2.379.097 3.215.493zm-4.456.23c-.08 1.5-.135 3.069-.173 4.684-.198 8.503.102 18.304.06 26.235a8.803 8.803 0 0 0 1.733.202c.474.007.944-.032 1.399-.108l.06-.016c.156-5.404-.023-10.938.003-16.356.011-2.673 0-6.472.047-9.9.023-1.727.062-3.36.125-4.707-.606-.157-1.375-.179-2.013-.176-.408.002-.829.083-1.241.142z"/><path fill="#FF9400" d="M77.79 2.343c.017-.26-.247-.701.118 0 1.478 2.823 3.164 5.748 4.09 8.758.248.796-.174 1.72-.7 2.514-.526.691-1.167 1.757-2.338 1.778-1.23.02-2.176-1.041-2.63-1.864-.743-1.028-.996-2.265-.76-3.382.306-1.45 1.71-2.806 2.104-4.119.362-1.202.06-2.652.117-3.685z"/><path fill="#FF9" d="M78.665 10.878c.12-.133.13-.205.203-.12.32.606.655 1.227.733 1.767.053.373-.19.736-.286 1.1-.11.437.068 1.447-.243 1.483-.349-.036-.876-1.015-1.139-1.484-.193-.342-.368-.728-.286-1.1.125-.534.592-1.143 1.018-1.646z"/><path fill="#FFF" d="M93.854 48.225c-.421-.416-.984-.83-1.57-.83-.66-.002-1.292.256-1.73.488.075-10.75.166-21.194.28-31.176.414-.397.836-.939 1.244-.958.638-.027 1.406.108 2.01 1.145-.095 8.966-.17 19.838-.234 31.331z"/><path fill="#42B5E8" d="M94.4 30.197c-.044.675-.013 1.423-.017 1.95-.01 1.068.236 2.158.067 3.223l-.076.003c-.564.014-1.147.02-1.735.018a67.289 67.289 0 0 1-2.15-.044c.02-1.563-.395-3.495-.185-5.17.542-.005 1.325-.011 2.144-.01a84.87 84.87 0 0 1 1.952.03zm-.204-9.53c-.043.675-.013 1.424-.017 1.95-.01 1.068.237 2.159.067 3.223l-.075.003c-.564.014-1.147.02-1.735.018a67.289 67.289 0 0 1-2.15-.044c.02-1.562-.395-3.494-.186-5.17.542-.005 1.326-.01 2.145-.009a84.87 84.87 0 0 1 1.95.029zm.326 19.915c-.044.675-.013 1.423-.017 1.95-.01 1.068.237 2.158.067 3.223l-.076.003c-.563.014-1.147.02-1.735.018a67.289 67.289 0 0 1-2.15-.044c.02-1.563-.395-3.495-.185-5.17.542-.005 1.325-.011 2.144-.01a84.87 84.87 0 0 1 1.952.03z"/><path fill="#231F20" d="M95.376 16.267c.181.086.207.189.145.277-.512 9.527-.218 21.649-.617 31.13 0 .011-.007.019-.01.028v.018c-.092.484-1.75.5-2.359.504-.802.004-2.377-.07-2.69-.602-.003-.005-.001-.013-.002-.02-.014-.015-.03-.03-.031-.046-.212-5.53-.435-11.027-.41-16.533.019-4.022-.017-10.59.171-14.61.011-.224.285-.347.584-.371.53-.208 1.537-.255 2.003-.267 1.102-.028 2.379.097 3.216.492zm-4.457.23c-.08 1.5-.135 3.07-.173 4.685-.197 8.502.103 18.304.06 26.234a8.803 8.803 0 0 0 1.733.202 7.71 7.71 0 0 0 1.399-.107l.061-.016c.155-5.404-.024-10.938.002-16.356.012-2.673 0-6.472.047-9.9.023-1.727.062-3.36.125-4.708-.606-.156-1.375-.178-2.013-.175-.408.002-.829.083-1.24.142z"/><path fill="#FF9400" d="M91.947 3.458c.016-.26-.248-.702.116 0 1.479 2.822 3.164 5.746 4.09 8.756.248.795-.173 1.719-.7 2.514-.525.69-1.167 1.756-2.338 1.777-1.23.02-2.175-1.041-2.63-1.864-.741-1.027-.995-2.264-.759-3.381.306-1.45 1.71-2.805 2.104-4.118.362-1.202.06-2.652.117-3.684z"/><path fill="#FF9" d="M92.593 11.896c.12-.132.13-.204.203-.12.32.606.655 1.227.734 1.767.052.373-.191.736-.287 1.1-.11.437.068 1.447-.243 1.483-.349-.036-.876-1.015-1.139-1.483-.193-.342-.368-.728-.286-1.1.125-.535.592-1.144 1.018-1.647z"/></svg>