<svg width="117" height="12" viewBox="-1 -1 117 12" xmlns="http://www.w3.org/2000/svg"><path fill="#FFF" stroke="#E3DEEE" d="M11.344 18.907h152.302c12.57 0 35.807-1.533 35.01-6.193-.674-3.801-21.766-2.023-22.256-2.207-1.227-.43-3.127-4.476-19.13-5.273-14.96-.736-34.458 3.801-38.321 4.537-7.664-1.655-22.992-8.093-37.217-8.768C65.974.267 51.443 3.64 48.377 7.012c-1.655 1.84 0 3.433-.122 4.353-.123.736-6.683 2.76-14.838 3.679-9.442-.552-27.407-7.848-31.822-3.679-2.023 1.962 2.269 7.542 9.75 7.542z" stroke-width=".613"/><path fill="#E3DEEE" d="M119.317 11.733c-9.381-2.76-21.582-8.032-36.236-9.197-14.654-1.165-26.855 1.84-31.331 3.74-1.901.797-3.005 1.778-3.373 2.514-.551 1.104.123 2.146-.183 2.636-.123.736-6.684 2.76-14.838 3.68-7.91 1.41-16.555 2.758-21.46 2.636-4.905-.062-7.787-1.84-9.197-3.802-1.349-2.023-.061-3.188 2.269-3.74-1.472.123-2.698.49-3.434 1.226-2.023 1.901 2.269 7.542 9.749 7.542h152.302c2.882 0 6.254-.061 9.871-.245-23.85.184-44.697-4.292-54.14-6.99z"/></svg>