<svg width="179" height="35" viewBox="-1 -1 179 35" xmlns="http://www.w3.org/2000/svg"><path fill="#FFF" stroke="#E3DEEE" d="M11.001 18.379c-.983-6.916 5.502-17.058 16.444-17.058 15.829 0 29.076 18.84 63.53 15.09l6.916 9.099-12.14 2.581-18.012 1.015H50.404s-14.999-1.168-22.836-1.015C14.75 28.337 12.108 23.942 11 18.38z" stroke-width=".307"/><path fill="#E3DEEE" d="M150.265 7.099c-3.566-4.641-8.914-6.67-16.229-6.547-11.28.185-17.12 5.533-20.87 5.348-4.21-.215-6.546-2.366-12.078-.4-4.949 1.783-11.096 8.914-15.03 11.865-3.135 2.336-10.45 9.005-18.257 11.71 24.804 0 49.392-.03 54.494-.03 10.481 0 21.976-2.583 26.525-6.547 4.518-3.935 5.41-10.235 1.445-15.399zM1.688 20.561c-3.073 4.55 3.965 8.453 9.498 8.514 2.766.03 19.517.03 39.218.03-7.315-1.751-11.956-5.347-19.609-9.527-10.88-5.963-24.927-5.164-29.107.983z"/></svg>