<svg width="150" height="150" xmlns="http://www.w3.org/2000/svg"><path fill="#007B00" d="M35.463 108.984c23.826-5.019 61.596-3.998 67.816 0 1.218.783-.452 2.084-.604 3.4-.148 1.361.15 2.766-1.203 3.402-2.459 1.191-4.363-.766-7.223-1.021-6.521-.638-10.133-1.274-16.652-1.531-15.199-.594-23.727-1.443-38.924.682l-3.21-4.932z"/><path fill="#1CCC42" d="M17.106 106.688c-3.812-1.189-7.875.979-11.537-2.125-3.06-2.594-.201-8.761 4.113-9.016-.552-5.697.2-11.013 6.821-12.162 7.825-1.361 14.797 0 22.772.936 14.797 1.787 20.113 0 34.911 0 0-4.295 1.103-11.651 1.103-11.651s12.841 8.846 13.342 11.65c.352 1.963 13.442-2.041 18.86-2.041 9.079 0 14.495.511 22.37 4.423 3.712 1.827 4.766 3.358 7.123 6.464 2.007 2.636 1.154 6.208 4.814 6.208 3.713 7.653-4.814 9.228-11.234 10.205-6.371.979-3.461-8.589-9.229-11.142-7.224-3.23-13.394-2.764-19.16 2.127-3.661 3.104-3.411 7.144-4.014 11.396-21.567-2.892-37.468-1.955-53.67-1.955-.602-2.638-1.053-3.828-2.006-6.464-1.605-4.338-4.965-6.721-10.232-7.4-7.674-1.019-15.147 3.957-15.147 10.547z"/><path fill="#272525" d="M89.789 83.605c6.746-.797 23.105-3.242 31.383-1.549 11.493 2.351 14.999 7.572 19.531 16.23 1.318-.133 2.486-.11 3.253.939 1.369 1.871 1.513 5.541-.289 7.295-2.554 2.48-12.685 3.363-16.528 3.984-.723-1.531-1.81-10.102-8.914-12.382-4.442-1.426-10.056-.116-13.649 2.321-4.665 3.166-4.875 7.4-5.271 12.064-2.89.119-6.01-.771-8.908-1.05-15.642-1.498-31.389-1.469-47.105-.651.278-2.014-.824-8.147-4.772-11.535-4.997-4.289-18.631-1.682-20.407 4.268-.466 1.557-.255 2.499-.301 4.082-2.658.298-4.89.244-7.537-.053-4.873-.545-5.518-3.211-6.07-5.147-.531-1.86-.06-4.22 1.963-5.278.484-.254 1.168-.584 1.546.021.66 1.06-1.193 2.173-1.34 3.312-.674 5.236 5.397 5.693 10.033 5.19-.201-8.08 14.52-14.442 22.25-8.478 3.394 2.619 6.395 7.152 6.641 11.965 12.22-1.405 37.083-.897 51.344 1.623.398-3.782 2.441-8.949 5.664-11.767 3.945-3.448 10.864-4.265 15.233-3.384 5.798 1.166 9.258 7.282 10.224 12.005 1.188.036 9.863-.636 11.172-1.036 3.766-1.16 3.092-5.887 3.092-5.887s-3.047.363-3.463-.025c-.414-.39-1.086-3.009-1.086-3.009l-9.084.99-1.156-7.263 6.062-.992c-10.486-10.805-43.965-4.613-44.496-4.75-3.797-4.107-11.925-11.415-12.686-11.354-.762.061-1.404 7.615-1.477 11.444-1.608.229-13.364.525-17.719.465-10.449-.146-20.843-1.087-31.217-2.084-5.64-.541-12.235-.004-15.149 4.782 1.374.716 6.236 1.8 6.236 1.8l-.394 5.732-8.579-.639c-1.767-1.92-1.112-4.711.028-6.773.96-1.739 3.466-4.577 5.407-5.568 6.116-3.119 21.093-.431 24.569-.056 9.728 1.05 31.129 1.097 34.646.812.548-.38.451-11.875 2.338-12.214 1.888-.338 14.982 11.6 14.982 11.6z"/><path fill="#272525" d="M86.51 85.628l-10.066.183s-.344-9.256.541-9.511c.885-.257 9.525 9.328 9.525 9.328z"/><path fill="#9FF" d="M83.124 84.289l-4.74-.016c-.185-1.654-.552-4.616-.028-4.784.52-.169 3.289 3.24 4.768 4.8z"/><path fill="#272525" d="M52.587 87.939c-.024 1.02-.191 15.362-.207 16.147-.016.786-1.854 1.044-1.851.125.003-.918.643-15.098.61-16.123-.031-1.024 1.473-1.167 1.448-.149z"/><path fill="#FA0" d="M14.82 94.143l-4.872-.416.104-2.623 4.735.782z"/><path fill="#272525" d="M89.25 87.887c.012.682.083 15.127-.068 15.937-.15.81-1.715.663-1.762-.058-.046-.721.512-15.07.628-15.824.119-.756 1.193-.736 1.202-.055zm-41.941 16.64c-.667.623-3.919-7.077-6.625-9.819-3.35-3.396-9.94-2.888-14.421-1.526-.866.264-3.432 1.842-4.096 1.808-.529-.026-.203-.572-.044-.72 2.243-2.078 6.276-3.274 9.465-3.672 10.364-1.289 15.496 6.192 15.721 13.929zM61.962 91.73l.134 3.877-8.193.139.026-3.885zm61.493 3.997c.126.574-1.207.271-1.551-.065-7.786-7.687-22.471-4.734-26.014 9.057-.179.693-2.466.357-2.236-.85 3.64-19.286 28.267-15.124 29.801-8.142z"/><path fill="#007B00" d="M60.875 92.811l-.328 2.014-5.325-.018.172-2.094z"/><path fill="#FFF400" d="M137.021 96.389l-6.244.639-.527-4.221s3.973-.586 4.675-.279c.712.309 2.096 3.861 2.096 3.861z"/><path fill="#272525" d="M16.424 103.73l-8.681-.212.571-5.206 7.15.226z"/><path fill="#FFF400" d="M14.438 100.027l.231 2.022-5.71.01.494-2.579z"/><path fill="#272525" d="M97.66 106.857c.701.176.13 1.672-.434 1.482-2.593-.861-13.599-1.919-15.343-1.975-12.477-.398-25.118.553-37.52 1.644-.556.05-.928-.698-.274-.981 2.307-.996 42.468-2.948 53.571-.17zm28.069 1.118c.576 8.765-10.371 13.201-18.728 8.713-1.534-.823-2.44-1.979-3.498-3.209-6.685-7.776 3.412-16 13.728-13.928 4.015.806 8.232 4.408 8.498 8.424z"/><path fill="#3815D9" d="M116.133 116.716c-3.762.414-9.324-1.653-11.021-4.583-1-1.722-1.443-5.562-.014-7.17 4.063-4.564 12.898-5.48 17.237-.15 4.129 5.07-.097 11.23-6.202 11.903z"/><path fill="#272525" d="M121.031 107.508c1.422 2.812-2.237 7.295-5.785 7.518-4.444.276-7.771-2.349-8.407-4.952-.94-3.854 4.623-8.892 10.08-6.343 2.626 1.224 3.647 2.86 4.112 3.777z"/><path fill="#FFF" d="M108.889 109.448c-.242-3.78 6.109-6.255 9.172-3.483 1.112 1.008 1.461 2.202 1.297 3.503-.792 6.283-10.161 4.875-10.469-.02z"/><path fill="#272525" d="M105.586 110.516l16.051-3.063.502 1.276-16.553 2.55z"/><path fill="#272525" d="M116.375 116.055l-5.27-13.212 1.445-.557 4.721 13.691zm-74.112-9.271c.577 8.764-10.372 13.2-18.726 8.712-1.534-.823-2.164-1.114-3.221-2.346-6.685-7.776 3.134-16.863 13.45-14.791 4.016.809 8.233 4.411 8.497 8.425z"/><path fill="#3815D9" d="M32.668 115.525c-3.729.592-9.324-1.653-11.023-4.584-.999-1.721-1.399-5.532-.012-7.17 5.103-6.015 12.898-5.48 17.237-.15 4.129 5.07-1.337 11.132-6.202 11.904z"/><path fill="#272525" d="M37.566 106.316c1.423 2.812-2.237 7.295-5.784 7.518-4.446.275-7.771-2.348-8.407-4.952-.941-3.854 4.623-8.892 10.08-6.343 2.626 1.227 3.648 2.861 4.111 3.777z"/><path fill="#FFF" d="M25.423 108.258c-.621-3.75 6.111-6.255 9.173-3.482 1.113 1.007 1.46 2.201 1.297 3.502-.789 6.284-9.759 4.279-10.47-.02z"/><path fill="#272525" d="M22.582 104.918l15.428 4.842-.399 1.302-15.521-5.503z"/><path fill="#272525" d="M28.072 114.544l4.069-13.515 1.568.2-4.833 13.664z"/><path fill="#272525" d="M34.071 107.084c.712 1.406-1.118 3.646-2.892 3.759-2.223.14-3.885-1.174-4.204-2.477-.471-1.929 2.312-4.446 5.04-3.171 1.313.614 1.823 1.431 2.056 1.889z"/><path fill="#A4B9BC" d="M27.999 108.055c-.31-1.875 3.055-3.128 4.587-1.742.556.504.73 1.103.648 1.752-.394 3.141-4.879 2.139-5.235-.01z"/><path fill="#272525" d="M117.535 108.275c.712 1.406-1.118 3.646-2.893 3.758-2.223.138-3.886-1.174-4.203-2.477-.471-1.928 2.312-4.445 5.039-3.172 1.315.614 1.827 1.43 2.057 1.891z"/><path fill="#A4B9BC" d="M111.464 109.245c-.414-1.861 3.056-3.128 4.587-1.741.555.503.729 1.102.648 1.75-.394 3.142-4.937 1.329-5.235-.009z"/></svg>