<svg width="131" height="184" xmlns="http://www.w3.org/2000/svg"><path fill="#CCE2EA" d="M13.446 111.86s-14.33.994 1.413 57.894c0 0-4.051 4.974-2.644 10.08 0 0 0 .69 3.166.787 0 0 .176 1.465 3.166 1.924 2.99.461 16.892 1.505 15.833-2.71 0 0 2.698.39 3.899-1.033 1.2-1.423 1.159-5.59-.403-6.761 0 0 3.614-17.154 7.407-21.58 3.792-4.426-20.748-43.455-31.837-38.602z"/><path d="M43.811 141.785c-4.929-10.712-18.989-30.694-28.294-30.694-.79 0-1.533.15-2.093.418-.07.004-1.721.145-3.313 2.393-2.966 4.193-6.34 17.015 4.364 55.776-.673.88-3.92 5.45-2.61 10.158 0 .374.433 1.009 3.257 1.13.217.516.948 1.555 3.373 1.93 1.207.183 4.116.46 7.175.46 4.782 0 7.716-.654 8.722-1.943a1.8 1.8 0 0 0 .398-1.19c.123.009.265.014.421.014 1.058 0 2.496-.21 3.338-1.209.829-.983 1.034-2.877.87-4.314-.086-.747-.348-2.058-1.154-2.805.426-1.955 3.817-17.169 7.285-21.217 1.267-1.483-.246-5.66-1.739-8.907zm1.205 8.446c-3.806 4.443-7.337 21.032-7.485 21.735l-.045.22.18.135c.537.404.92 1.303 1.054 2.47.17 1.5-.126 3.092-.71 3.783-.702.833-2.055.96-2.799.96-.118 0-.225-.003-.322-.009.028-.712-.089-2.006-.863-4.08 0 0 .368 2.283.204 4.034l-.052.432c-.069.423-.176.799-.34 1.072-.842 1.078-3.74 1.672-8.168 1.672-2.998 0-5.926-.278-7.067-.454-1.1-.17-1.767-.478-2.19-.78-1.547-1.39-.268-6.442-.268-6.442-1.286 1.926-1.057 5.254-1.055 5.276-2.201-.104-2.536-.51-2.533-.51-.771-4.32.928-8.042 2.692-9.908 1.08-1.14 8.005-6.066 14.5-1.954 0 0-1.217-1.385-4.164-1.877-2.664-.442-6.727-.168-10.507 3.21-10.495-38.133-7.291-50.734-4.432-54.847 1.396-2.01 2.817-2.157 2.944-2.186a4.777 4.777 0 0 1 1.929-.387c8.248 0 22.108 18.229 27.655 30.285 1.929 4.196 2.619 7.244 1.842 8.15z"/><path fill="#CCE2EA" d="M93.488 111.86s14.33.994-1.413 57.894c0 0 4.05 4.974 2.644 10.08 0 0 0 .69-3.166.787 0 0-.176 1.465-3.166 1.924-2.99.461-16.891 1.505-15.833-2.71 0 0-2.699.39-3.898-1.033-1.201-1.424-1.159-5.59.401-6.761 0 0-3.613-17.154-7.406-21.58-3.793-4.426 20.747-43.455 31.837-38.602z"/><path d="M61.385 150.69c3.468 4.048 6.86 19.261 7.286 21.216-.805.747-1.07 2.058-1.154 2.805-.165 1.437.04 3.331.87 4.315.842.997 2.279 1.208 3.337 1.208.156 0 .3-.005.42-.014-.01.438.122.836.399 1.19 1.006 1.29 3.941 1.944 8.723 1.944 3.059 0 5.966-.277 7.176-.462 2.424-.374 3.154-1.412 3.371-1.929 2.826-.12 3.256-.755 3.256-1.13 1.312-4.708-1.937-9.278-2.609-10.158 10.701-38.76 7.33-51.581 4.362-55.776-1.591-2.25-3.243-2.389-3.312-2.393-.56-.267-1.306-.418-2.094-.418-9.305 0-23.365 19.982-28.292 30.694-1.495 3.25-3.006 7.427-1.74 8.907zm2.378-8.61c5.548-12.057 19.408-30.286 27.655-30.286a4.8 4.8 0 0 1 1.929.387c.127.03 1.548.176 2.944 2.187 2.857 4.113 6.063 16.714-4.433 54.846-3.78-3.377-7.843-3.653-10.507-3.21-2.946.493-4.163 1.877-4.163 1.877 6.493-4.111 13.42.814 14.5 1.955 1.764 1.866 3.463 5.587 2.693 9.907.003 0-.332.407-2.534.511.003-.022.23-3.35-1.055-5.277 0 0 1.277 5.052-.27 6.442-.42.303-1.087.61-2.187.781-1.143.176-4.071.453-7.068.453-4.427 0-7.327-.594-8.168-1.672-.165-.271-.272-.648-.34-1.072l-.053-.432c-.162-1.75.204-4.034.204-4.034-.772 2.076-.89 3.37-.862 4.08a5.558 5.558 0 0 1-.323.01c-.744 0-2.096-.127-2.797-.96-.585-.69-.882-2.281-.712-3.783.135-1.168.52-2.067 1.055-2.47l.18-.136-.045-.22c-.147-.703-3.68-17.291-7.485-21.735-.778-.904-.09-3.952 1.842-8.15z"/><path fill="#CCE2EA" d="M48.052 34.667S29.411 38.504 16.45 72.649c-13.13 34.6-2.006 51.065 5.68 63.5l.177-6.883s.515 7.825 10.581 15.798v-4.348s17.26 27.436 39.811 2.174l-1.869 5.015s11.052-6.813 14.1-15.616v5.09s17.902-19.62 12.548-44.917c-5.535-26.145-18.177-51.874-35.766-57.795l-4.454-5.453v3.05S53.74 28.51 50.222 26.4c0 0 1.174 1.642 1.877 6.567l-4.047 1.7z"/><path fill="#FFF" d="M53.772 79.409c-.264.322-2.1-2.58-4.562-3.166 0 0 1.374 1.581 1.331 3.195 0 0-2.27-1.524-4.145-1.597 0 0 1.988 1.569 1.991 2.273 0 0-27.562 4.573-27.85 27.907-.289 23.333 24.417 37.29 30.004 38.46 5.588 1.173 8.284.118 18.604-8.325 10.317-8.442 19.815-23.1 17.47-34.474C84.271 92.31 68.91 82.81 63.048 81.284l-5.862-1.524s.352-1.64 1.759-2.579c0 0-3.076-.353-5.173 2.228z"/><path d="M97.865 92.282c-5.051-23.871-17.133-51.626-35.9-58.026l-5.016-6.138v3.17c-1.162-1.165-3.723-3.84-6.503-5.299-.393-.205-1.127-.4-1.127-.4.4.3.865 1.01.865 1.01.328.622.888 1.5 1.57 6.039l-3.73 1.574c-.187.038-18.979 4.27-31.86 38.202-12.855 33.873-2.472 50.615 5.111 62.842l1.22 1.97.135-5.257c.998 3.019 3.555 8.091 10.08 13.264l.572.45v-3.953c2.178 2.988 9.672 12.093 20.085 12.093 6.208 0 12.4-3.191 18.422-9.492l-1.603 4.304.871-.539c.426-.262 9.847-6.139 13.563-14.114v4.196l.614-.672c.178-.197 17.96-20.042 12.631-45.224zm-13.224 39.783c-2.468 7.126-10.386 13.016-13.06 14.844l1.494-4.008c.352-.986.736-2.855.736-2.855l-1.33 2.5c-6.263 7.014-12.693 10.574-19.111 10.574-12.003 0-20.06-12.574-20.14-12.7l-.649-1.03v4.832c-6.823-5.605-9.116-11.724-9.795-14.307a40.004 40.004 0 0 1-.242-1.242 28.065 28.065 0 0 1-.302-2.125L22 129.15l-.146 5.703c-7.503-12.098-17.751-28.671-5.03-62.188 12.728-33.534 31.16-37.725 31.408-37.784l4.298-1.805-.038-.269c-.396-2.762-.937-4.512-1.35-5.533 3.06 2.101 5.874 5.086 5.903 5.12l.608.648v-2.95l3.831 4.688.16.111c18.542 6.243 30.514 33.816 35.534 57.538 4.686 22.146-8.771 40.13-11.853 43.885v-4.132l.017-2.385-.7 2.267z"/><path fill="#FFF" stroke="#000" stroke-width=".704" d="M72.903 58.363s1.673-6.62 3.023.273l-3.023-.273zm-36.533.967s-1.674-6.618-3.022.274l3.021-.273z"/><path d="M80.44 57.781s.921.452 1.82 1.405c-18.963-3.301-50.485.177-56.529.897.926-1.015 1.906-1.497 1.906-1.497-4.582.82-3.527 4.689-3.473 4.879a.415.415 0 0 1 .006-.092A5.819 5.819 0 0 1 25.035 61c40.43-4.378 56.114-1.26 57.984-.837.418.657.764 1.444.888 2.405a.285.285 0 0 1 .005.091c.055-.187 1.11-4.056-3.471-4.877z"/><path fill="#FFF" d="M38.68 43.61c1.012-.114 2 .403 2.778 1.329.778.927 1.345 2.263 1.518 3.79.173 1.526-.081 2.956-.632 4.033-.552 1.077-1.399 1.801-2.411 1.916-1.012.114-2-.402-2.779-1.328-.777-.927-1.345-2.264-1.518-3.79-.173-1.527.082-2.956.633-4.034.552-1.076 1.399-1.8 2.41-1.915z"/><path fill="#3579BC" d="M39.237 47.678c.768-.087 1.509.226 2.084.8.576.577.987 1.416 1.096 2.379.11.963-.104 1.872-.536 2.563-.432.689-1.084 1.16-1.852 1.246-.767.087-1.508-.225-2.083-.8-.576-.577-.987-1.415-1.096-2.378-.11-.964.103-1.873.536-2.563.432-.69 1.084-1.16 1.851-1.247z"/><path d="M39.497 49.83c.51-.058 1.002.16 1.387.556.384.397.659.973.734 1.636.075.663-.064 1.286-.349 1.759-.286.473-.717.795-1.227.853-.51.057-1.002-.16-1.387-.557-.384-.397-.659-.973-.734-1.636-.075-.662.064-1.286.349-1.758.286-.473.717-.795 1.227-.853z"/><path fill="#FFF" d="M38.205 49.576a.965.965 0 0 1 .74.235c.203.172.345.428.379.723.033.295-.048.576-.207.79a.965.965 0 0 1-.669.394.965.965 0 0 1-.74-.235 1.114 1.114 0 0 1-.378-.723 1.114 1.114 0 0 1 .206-.79.965.965 0 0 1 .67-.394z"/><path d="M40.046 55.085l-.089.013c-1.102.124-2.198-.39-3.088-1.45-.854-1.02-1.424-2.432-1.6-3.979-.366-3.227 1.068-6.008 3.263-6.329 1.192-.136 2.288.379 3.179 1.438.854 1.02 1.423 2.433 1.6 3.98.364 3.229-1.07 6.008-3.265 6.327zM38.7 44.03c-1.855.27-3.05 2.76-2.731 5.56.159 1.41.67 2.692 1.436 3.606.733.873 1.611 1.301 2.471 1.203l.118.339-.05-.35c1.788-.26 2.983-2.751 2.665-5.55-.16-1.411-.672-2.692-1.437-3.605-.736-.874-1.613-1.302-2.472-1.203z"/><path fill="#FFF" d="M71.895 43.018c1.009.144 1.834.894 2.353 1.987.519 1.093.73 2.53.512 4.05-.218 1.522-.825 2.84-1.63 3.744-.807.902-1.81 1.39-2.818 1.245-1.008-.145-1.833-.895-2.353-1.987-.518-1.094-.73-2.53-.512-4.051.219-1.521.826-2.84 1.631-3.744.806-.902 1.809-1.389 2.817-1.244z"/><path fill="#3579BC" d="M71.443 47.128c.765.11 1.402.6 1.813 1.3.413.704.598 1.619.46 2.579-.137.96-.572 1.785-1.166 2.344-.591.558-1.341.848-2.106.739-.764-.11-1.402-.6-1.813-1.301-.413-.703-.598-1.618-.46-2.578.137-.96.572-1.786 1.166-2.345.592-.557 1.341-.848 2.106-.738z"/><path d="M71.073 49.317c.508.072.93.406 1.202.887.27.48.391 1.108.297 1.768-.095.66-.386 1.228-.781 1.614-.397.385-.895.587-1.403.514-.508-.073-.93-.406-1.202-.887-.27-.481-.391-1.108-.297-1.769.095-.66.386-1.228.781-1.613.397-.386.895-.587 1.403-.514z"/><path fill="#FFF" d="M69.97 48.603c.274.04.505.195.657.413.152.22.225.501.183.795a1.116 1.116 0 0 1-.4.712.968.968 0 0 1-.745.212.968.968 0 0 1-.656-.413 1.116 1.116 0 0 1-.183-.795c.042-.294.192-.544.4-.712a.968.968 0 0 1 .745-.212z"/><path d="M70.467 54.362l-.09-.01c-1.099-.157-2.03-.933-2.624-2.183-.568-1.202-.761-2.713-.542-4.253.462-3.216 2.55-5.542 4.755-5.299 1.19.169 2.122.944 2.716 2.195.568 1.202.76 2.713.541 4.254-.463 3.215-2.55 5.541-4.756 5.296zm1.49-11.037c-1.862-.206-3.65 1.9-4.048 4.69-.2 1.404-.03 2.773.482 3.851.49 1.031 1.228 1.666 2.085 1.788l.03.358.037-.35c1.794.2 3.581-1.91 3.98-4.699.2-1.406.03-2.773-.482-3.851-.486-1.03-1.227-1.665-2.083-1.787z"/><path d="M34.627 45.523s2.592-5.091 7.303-2.854c.001 0-4.818-6.712-7.303 2.854zm40.332-1.155s-2.561-4.45-7.22-2.494c0-.001 4.763-5.867 7.22 2.494z"/><path fill="#1F519B" d="M38.22 88.057l3.443 27.09 16.69 6.876 19.144-10.041.058-26.626-21.48-4.255-17.856 6.956"/><path fill="#3579BC" d="M38.22 88.057l18.528 4.575 20.95-7.285L56.077 81.1 38.22 88.056"/><path fill="#2964AA" d="M56.748 92.632l1.606 29.39 19.143-10.04.202-26.635-20.95 7.285"/><path d="M58.373 122.408l-17.033-7.014-3.502-27.565 18.205-7.094 21.865 4.333-.058 27.126-19.477 10.214zM41.986 114.9l16.352 6.736 18.812-9.867.055-26.123-21.098-4.179-17.502 6.818 3.381 26.615z"/><path fill="#CECECE" stroke="#000" stroke-width=".704" d="M45.078 85.264L64.23 90.03s1.127 28.713 1.047 28.757c-.083.046 6.733-3.3 6.733-3.3l-.66-27.934-20.23-4.778-6.042 2.488z"/><path fill="#CECECE" stroke="#000" stroke-width=".704" d="M63.04 82.386l-18.91 7.13 2.38 28.005 5.726 2.361-2.072-28.876 19.669-7.235-6.794-1.385"/><path fill="#CECECE" d="M61.779 85.784c2.182-.952 11.306-4.697 19.68-4.697 2.196 0 4.185.258 5.939.766a8.63 8.63 0 0 0-1.621.69l-.445.245.387.33c.02.018 1.81 1.562 2.482 3.069-1.363-.621-4.587-1.74-10.138-1.74-4.545 0-9.685.757-15.274 2.248l-1.01-.91z"/><path d="M81.461 81.439c1.727 0 3.322.16 4.772.481a8.747 8.747 0 0 0-.63.315l-.884.493.772.658c.418.358 1.28 1.198 1.9 2.096-1.721-.627-4.752-1.386-9.328-1.386-4.527 0-9.633.743-15.181 2.21l-.459-.415c2.82-1.192 11.255-4.452 19.038-4.452m-.003-.704c-9.737 0-20.317 4.948-20.317 4.948l1.554 1.401c6.39-1.72 11.46-2.285 15.368-2.285 7.503 0 10.712 2.083 10.712 2.083-.269-1.846-2.828-4.032-2.828-4.032a8.384 8.384 0 0 1 2.74-.937c-2.22-.843-4.695-1.178-7.229-1.178z"/><path fill="#CECECE" d="M42.548 89.914c-3.313 0-6.083-.708-8.257-2.108a4.885 4.885 0 0 0 1.25-.432l.348-.177-.214-.328c-.012-.02-1.101-1.705-1.507-3.273 1.529 1.265 5.439 3.716 12.839 3.716 1.688 0 3.482-.13 5.333-.39l.66 1.064c-1.319.474-5.751 1.928-10.452 1.928z"/><path d="M34.864 84.547c1.992 1.341 5.825 3.117 12.141 3.117 1.637 0 3.369-.121 5.155-.363l.31.498c-1.657.564-5.681 1.763-9.92 1.763-2.9 0-5.372-.551-7.377-1.642.172-.065.35-.142.528-.232l.7-.355-.43-.657a13.904 13.904 0 0 1-1.107-2.129m-1.195-1.91c.042 1.865 1.712 4.423 1.712 4.423a4.582 4.582 0 0 1-1.988.496c-.045 0-.069-.002-.069-.002 2.665 2.053 6.018 2.712 9.225 2.712 5.724 0 10.974-2.1 10.974-2.1l-1.006-1.626c-2.022.294-3.855.42-5.512.42-9.711 0-13.336-4.322-13.336-4.322z"/><path fill="#CECECE" stroke="#000" stroke-width=".704" d="M55.748 84.032s4.729-4.273 6.427-6.506c1.699-2.232 5.89-4.45 6.632-1.987.742 2.461.704 2.26 2.322 3.383 1.62 1.123 2.894 4.252-1.814 6.295-4.708 2.042-9.218 2.69-12.01 2.485-2.788-.205-2.394-2.906-1.557-3.67zm-2.8-.313s-2.748-2.597-4.119-3.324c-1.373-.729-3.045-2.817-4.188-1.036-1.14 1.783-2.866 2.312-4.013 3.595-1.146 1.284.435 2.056 2.756 2.896 2.318.842 7.78 1.2 9.79 1.18 2.014-.02.868-2.573-.226-3.311z"/><path fill="#CECECE" stroke="#000" stroke-width=".704" d="M52.912 88.135c.918.434 1.46.928 4.06-.01.481-.174.525-.834-.272-2.189-.796-1.356.79-2.227-1.047-2.455-1.841-.227-3.405.056-3.261 1.28.138 1.226-.82 2.74.52 3.374z"/><path fill="#3579BC" d="M69.99 37.643s2.004-8.315-7.176-14.972c-9.174-6.657-13.947-12.73-14.568-13.83-.47-.834-1.302-3.77-2.894-2.48-1.598 1.29-2.382 6.94-1.801 12.97.574 6.03-3.187 9.188-3.415 13.595 0 0 14.887-4.445 29.854 4.717z"/><path d="M69.931 33.102s-12.551-9.315-28.814-4.006l1.173-2.575s12.584-4.51 26.793 3.726l.848 2.855zm-4.821-8.721s-12.373-5.355-21.299-1.21l-.184-2.253s9.608-3.809 18.195.435l3.287 3.028zm-11.771-9.028s-6.716-.88-9.417 2.731l-.557-2.098s1.853-3.647 8.454-2.65l1.721 2.216m-5.294-6.711s-3.354.12-4.491 2.023l.677-2.552 3.43-1.34.384 1.87z" fill="#1F519B"/><path d="M70.294 38.383l-.553-.338a38.644 38.644 0 0 0-14.953-5.34c-8.26-1.146-14.456.656-14.518.674l-.64.19.032-.665c.1-1.946.841-3.616 1.622-5.385 1.04-2.347 2.114-4.777 1.791-8.14-.523-5.436-.01-11.778 1.976-13.382.415-.335.837-.472 1.252-.415 1.057.147 1.652 1.485 2.081 2.46.102.23.19.432.27.57.472.843 5.156 6.948 14.433 13.68 9.325 6.765 7.373 15.378 7.358 15.464l-.15.627zm-24.12-31.87c-.15-.02-.322.053-.526.216-1.268 1.022-2.252 6.112-1.631 12.557.346 3.61-.829 6.267-1.869 8.611-.653 1.48-1.275 2.885-1.484 4.402 1.842-.443 7.274-1.499 14.256-.528a39.585 39.585 0 0 1 14.717 5.112c.254-2.04.344-8.433-7.101-13.83-9.534-6.92-14.183-13.058-14.702-13.983a7.634 7.634 0 0 1-.307-.648c-.285-.64-.81-1.832-1.353-1.908z"/><path fill="#FFF" stroke="#000" stroke-width=".704" d="M45.31 7.472a3.478 3.478 0 0 1-2.245-1.266 3.136 3.136 0 0 1-.67-2.393c.122-.88.61-1.626 1.298-2.12a3.478 3.478 0 0 1 2.505-.604 3.478 3.478 0 0 1 2.245 1.265 3.14 3.14 0 0 1 .67 2.394 3.136 3.136 0 0 1-1.298 2.12 3.478 3.478 0 0 1-2.505.604z"/><path fill="#FFF" d="M70.594 35.289s1.272-1.452-.087-2.619c-1.36-1.163-8.685-4.294-16.569-3.94-7.877.355-10.44 1.378-12.433 2.38-1.988 1-5.856 3.561-4.089 5.656 0 0-2.263 4.032-.127 3.96.483-.017 1.921-.65 1.921-.65s11.75-7.128 29.828-.99c-.002-.002 5.596 2.087 1.556-3.797z"/><path d="M36.141 40.004c.16.616.467 1.07 1.165 1.07.617 0 2.22-.783 2.22-.783 1.004-.547 5.984-3.048 13.696-3.304 4.997-.166 10.16.628 15.36 2.361 0 0 2.944 1.347 3.556-.43.36-1.051-.02-2.275-1.13-3.643.201-.31.481-.861.435-1.49-.036-.53-.289-1-.75-1.398-1.424-1.215-8.654-4.304-16.504-4.042l-.327.013c-7.885.354-10.54 1.388-12.585 2.417-.705.356-4.26 2.243-4.705 4.404a2.04 2.04 0 0 0 .322 1.606c-.326.555-1.076 1.996-.753 3.22zm1.52-3.027l.084-.128.02.002s.532-.726 1.683-1.324c0 0-.906.04-1.94.762-.182-.302-.273-.616-.2-.96.268-1.323 2.358-2.906 4.305-3.886 1.976-.993 4.548-1.99 12.283-2.34l.32-.012c7.719-.256 14.796 2.843 15.985 3.865.314.264.473.553.499.88.03.398-.151.755-.292.977-1.154-.762-2.136-.737-2.136-.737 1.188.522 1.768 1.21 1.768 1.21l.21.246c1.07 1.243 1.468 2.3 1.18 3.137-.33.965-2.062.152-2.062.152l-.268-.093c-5.375-1.825-10.73-2.662-15.902-2.49-8.835.293-14.027 3.383-14.243 3.516 0 0-1.739 1.011-2.09.057-.357-.955.488-2.378.796-2.834z"/><path fill="#CCE2EA" d="M30.296 117.464c-7.023 1.201-12.59.574-16.547-1.863l-.74-.456.215.843c.017.066.323 1.253.928 2.257-1.735-.635-5.07-2.212-6.274-5.28l-.678.124c0 .091-.023 1.825.343 3.274-1.888-1.436-6.01-4.832-6.502-7.425l-.059-.318c-.671-3.492-1.59-8.278 4.952-20.728 3.192-6.079 9.828-18.713 11.345-19.025.001.02.046.107.07.329.382 3.332-.083 12.59-2.31 22.739l-.062.284.265.115c.298.13 7.464 3.124 21.504.72h.003c.677-.116 1.37-.244 2.078-.386l.74 3.2.188.064c.183.06 4.533 1.503 9.127 1.254 2.42-.132 3.753.93 3.971 1.971.209 1.008-.59 1.98-2.084 2.533-1.167.433-2.248.734-3.21.9-1.565.268-2.281.074-2.29.07l-.305.623c.107.079 2.669 1.925 4.925 2.448 1.577.366 2.82 1.057 3.253 1.803.159.27.195.529.115.79-.305 1.012-.838 2.083-2.465 2.362-.732.125-1.634.08-2.68-.137l-.793-.165.42.691s.074.148-.012.37c-.095.252-.457.746-1.787 1.241-.205.076-.505.197-.892.352-2.485.994-8.306 3.321-14.752 4.426z"/><path d="M50.892 102.018c4.028-1.493 2.55-5.433-2.03-5.185-4.578.247-8.995-1.237-8.995-1.237l-.775-3.343c-.822.168-1.621.319-2.405.453-14.1 2.411-21.308-.697-21.308-.697 2.308-10.507 2.678-19.705 2.318-22.855-.054-.477-.214-.681-.469-.638-1.426.244-5.843 8.232-11.61 19.21C-1.179 100.666.022 105.456.694 109c.67 3.543 7.582 8.338 7.582 8.338-.719-1.289-.728-3.831-.726-4.177h.031c1.776 4.373 7.57 5.769 7.57 5.769-1.045-.894-1.59-3.031-1.59-3.031 4.702 2.896 10.983 2.901 16.791 1.91 7.496-1.284 14.206-4.236 15.71-4.795 2.664-.992 1.975-2.123 1.975-2.123 1.172.242 2.09.263 2.811.14 1.903-.324 2.457-1.653 2.745-2.607.399-1.317-1.415-2.524-3.627-3.038-2.212-.513-4.797-2.39-4.797-2.39s.752.228 2.447-.062c.851-.144 1.935-.418 3.276-.916zm-11.208-.066l4.326 1.037.748.578c.11.08 2.727 1.967 5.053 2.508 1.46.339 2.653.98 3.03 1.635.14.242.112.409.083.513-.289.954-.756 1.872-2.19 2.118-.688.117-1.548.072-2.55-.135l-1.62-.276.067.07-.04-.025-.027-.045-4.752-1.047s2.877 1.52 5.585 1.922l.016.018c-.042.123.344.88-1.594 1.536-.207.077-.51.198-.899.353-2.476.992-8.272 3.308-14.682 4.404-6.937 1.188-12.42.577-16.304-1.814l-1.479-.91.43 1.683c.03.126.202.77.526 1.497-1.358-.588-3.137-1.611-4.328-3.203-.124-.191-.394-.634-.873-1.532-.69-1.294-1.135-3.453-1.135-3.453-.206 1.017-.224 3.698-.224 3.698a15.62 15.62 0 0 0 .166 2.431c-2.215-1.768-5.239-4.578-5.628-6.64l-.06-.32c-.662-3.44-1.566-8.156 4.916-20.496 2.686-5.114 8.747-16.655 10.78-18.595.331 3.472-.155 12.444-2.305 22.29-.769-.3-2.058-.804-3.086-1.216 0 0 2.03 1.672 3.325 2.058l.146.062c.301.131 7.559 3.165 21.702.745a76.179 76.179 0 0 0 1.754-.322l.553 2.383-2.292-.069 2.449.747.372.126c.186.062 4.6 1.524 9.26 1.272 2.113-.114 3.413.764 3.606 1.691.173.826-.542 1.642-1.86 2.132-1.147.425-2.207.722-3.147.882-1.455.249-2.125.082-2.126.083-.567-.01-5.692-.374-5.692-.374z"/><path fill="#CCE2EA" d="M112.766 77.104C94.474 60.57 86.894 60.325 87.351 62.416c.617 2.826 5.06 11.764 5.06 11.764s-1.234.38-2.792 1.024c-2.817-.096-8.517.192-10.066 3.922 0 0-.55 2.442 2.474 1.806.069.517.346 1.081.928 1.704 0 0-1.445 2.038 1.212 3.397 0 0 2.393 4.203 8.374 4.233 0 0 5.452 14.276 19.083 23.861 0 0 1.23-2.293 2.286-2.686 0 0-.527 1.894 2.375 5.588l1.408-2.11s.175 1.493 1.407 2.9c0 0 1.055-1.142 3.078-1.846 2.024-.703 5.98-1.677 7.123-4.532 1.143-2.855 1.758-17.804-16.535-34.337z"/><path d="M113.003 76.842c-12.777-11.545-20.983-15.69-24.397-15.69-.675 0-1.153.167-1.42.498a.962.962 0 0 0-.18.842c.553 2.542 4.054 9.745 4.908 11.48-.398.13-1.069.365-1.863.678-1.046.017-8.283.252-10.47 3.48-1.124 1.661-.322 2.572.528 2.971.522.245 1.182.19 1.618.11.115.481.369.972.79 1.47-.175.347-.431 1.016-.247 1.77.185.742.736 1.364 1.644 1.848.398.639 2.86 4.19 8.385 4.314.766 1.862 6.485 14.917 19.12 23.801l.323.228.19-.35c.256-.48.945-1.604 1.597-2.192.069.914.513 2.645 2.476 5.144l.3.381 1.231-1.846a6.62 6.62 0 0 0 1.295 2.273l.259.291.266-.286c.008-.01 1.027-1.09 2.935-1.753.228-.08.484-.162.758-.253 2.191-.716 5.502-1.801 6.577-4.482 1.15-2.867 1.804-18.07-16.623-34.727zm-31.328 3.474c-.02.101-.008.206-.011.31-.652.145-1.682.21-1.762-.853-.115-1.553 1.121-2.163 1.56-2.468.63-.438 1.947-1.37 6.838-1.91a24.55 24.55 0 0 0-1.56.787c-.287.158-.595.318-.913.484-1.816.947-3.875 2.024-4.152 3.65zm47.297 30.996c-.951 2.375-4.075 3.398-6.142 4.073-.277.092-.536.176-.77.258-1.493.519-2.476 1.263-2.932 1.664-.929-1.211-1.088-2.416-1.088-2.43l-.115-.942-1.66 2.49c-2.397-3.208-2.021-4.875-2.018-4.888l.184-.664-.646.24c-.917.342-1.869 1.808-2.278 2.504-13.15-9.41-18.586-23.336-18.641-23.476l-.086-.226-.242-.001c-4.257-.021-6.649-2.257-7.592-3.4 2.87.762 7.355-.44 7.355-.44 1.965 3.225 5.073 3.59 5.073 3.59-4.045-1.806-4.749-4.675-4.749-4.675-5.043 1.32-6.788 1.095-8.302.732-.839-.201-1.228-.874-1.366-1.431-.19-.76.277-1.442.28-1.45l.164-.235s3.207-3.25 6.704-4.68c0 0-2.814-.118-7.116 4.206-.498-.612-.715-1.172-.623-1.698.22-1.283 2.198-2.316 3.786-3.146.323-.17.635-.332.926-.493 2.488-1.372 5.403-2.27 5.433-2.278l.083-.025.107-.033c2.498-.665 3.927-.125 5.023.189 1.872.533 9.08 4.756 12.797 7.293 7.21 4.926 13.323 11.433 13.323 11.433-8.09-12.048-24.717-19.095-26.6-19.62-1.366-.38-3.506-.281-4.647.019-.698-1.419-4.362-8.93-4.905-11.43-.03-.142.008-.211.038-.252.118-.146.444-.235.874-.235 3.12 0 11.26 4.062 23.923 15.509 18.133 16.387 17.558 31.167 16.445 33.948z"/></svg>