<svg xmlns="http://www.w3.org/2000/svg" viewBox="0 0 51.5 52.7"><path fill="#53AD4E" d="M49 13.9c-.6-1.6-1.5-3.2-2.5-4.7-2-2.8-4.7-4.7-7.7-6.2C35.6 1.4 32.2.4 28.6.3L9.7 0c-1 0-2 .1-3.1.3-.3 0-.8.2-1 .4C3.8 2.3 2.1 4 .3 5.7c-.1.1-.1.2-.1.4-.1.8-.2 1.7-.2 2.5 0 .2.2.5.4.5 1.2.1 2.5.2 3.7.1 1.3-.1 1.7.4 1.5 1.6-.1.7-.1 1.4-.1 2.1 0 1.1.2 2.2.2 3.3-.1 1.7-.4 3.5-.4 5.2-.1 4.7-.1 9.3-.1 14 0 3.1.1 6.2.2 9.2.1 1.1-.3 1.8-1.2 2.4C3 47.7 2 48.6.9 49.5c-.2.2-.4.5-.4.8 0 .5.1 1.1.2 1.6s.2.7.8.7l4.5-.3c2.9-.1 5.7-.2 8.6-.2 3.1 0 6.2.2 9.6.2 1.2-.3 2.8-.7 4.3-1.2 2-.8 4.1-1.7 6-2.8 2.6-1.7 5.2-3.5 7.6-5.5 2.7-2.1 5.2-4.5 6.6-7.7 1.2-2.7 2.3-5.4 2.5-8.4.1-1.2.4-2.4.3-3.5-.3-3.2-1.3-6.3-2.5-9.3zM1.5 5.5C2.8 4.4 4 3.2 5.3 2.1c.2-.2.3-.4.5-.5.2.9.2 1.6-.6 2.3-1.3 1-2.5 2.3-3.7 3.4-.2.1-.4.3-.7.6-.4-1.6-.3-1.6.7-2.4zm2.8 3c-1 .1-2 .2-3 .2 0-.1-.1-.2-.1-.3 1-.9 1.9-1.8 2.8-2.7.7-.7 1.6-1.3 2.2-2 .7-.8 1.6-.7 2.5-.7.8 0 1.2.5 1.2 1.3v11.1c0 2.5.3 4.9.3 7.4 0 5-.2 10.1-.2 15.2 0 1.3 0 2.7.1 4 .1 2.1-.3 2.8-2.4 3.2-.5.1-1.1.2-1.6.3 0-.1-.1-.3-.1-.4 0-4-.1-8-.1-12.1 0-3.8 0-7.6.1-11.4 0-1.8.4-3.6.4-5.4 0-1.4-.2-2.8-.3-4.2 0-.5 0-1 .1-1.5.1-1.5-.4-2.1-1.9-2zm-3 43.2c-.4-1.3-.4-1.4.6-2.1 1.4-1.1 2.9-2.1 4.3-3.2.3.6.3 1.1-.2 1.5-1.6 1.2-3.1 2.5-4.7 3.8zm30.1-2.4c-3.1 1.6-6.5 2.3-10 2.4-3.9 0-7.8-.1-11.8-.1-2.4 0-4.8.2-7.3.3 1.1-.9 2.1-1.7 3.1-2.6.4-.3.8-.5 1-.9.5-.7 1.3-.9 2.1-.9 1.6 0 3.2-.1 4.9-.2 4 0 7.9-.1 11.8-.1 1.4 0 2.7.1 4.1.1 2 .1 3.9.1 5.8-.6 0 .1.1.2.1.2-1.2.9-2.5 1.7-3.8 2.4zm-3.1-4.7c-2.9.1-5.8 0-8.8 0-.3 0-.6 0-.9-.1-1-.3-1.2-.5-1.2-1.6.1-6.4.2-12.7.2-19.1 0-4.9-.1-9.7-.2-14.6v-.4c3.1 0 6.1.1 9.2.1 2.3 0 4.3.5 6.2 1.9 1.5 1.2 3.3 2.3 4.3 4 1 1.8 2 3.8 2.7 5.8.4 1.3.4 2.8.4 4.2-.1 2.7-.1 5.5-.6 8.2-.5 3-1.6 6-3.7 8.3-2.2 2.1-4.7 3.2-7.6 3.3zM44 24.7c-.3 2.2-.6 4.4-1 6.6-.1.5-.3 1.1-.5 1.5-1.4 2.8-2.7 5.6-4.8 7.8l-.6.6c-.1.1-.2.1-.2.2-.1 0-.1-.1-.2-.1.2-.3.3-.6.5-.9.5-.8 1-1.7 1.4-2.5 2.2-4.6 2.7-9.5 2.3-14.4-.1-1.8-.6-3.6-1-5.3-.2-.7-.6-1.3-1-1.9-1.1-1.6-2.1-3.3-3.5-4.6-1.6-1.4-3.4-2.7-5.5-3.2-2.8-.7-5.7-.2-8.5-.3h-4V5c0-1.1.9-2 2.1-2 4.2-.1 8.4-.6 12.5.7 3.2 1 6 2.8 7.6 5.9 1.3 2.5 2.6 4.9 3.6 7.5.9 2.4 1.1 5 .8 7.6z"/><path fill="#FFF" d="M44 24.7c-.3 2.2-.6 4.4-1 6.6-.1.5-.3 1.1-.5 1.5-1.4 2.8-2.7 5.6-4.8 7.8l-.6.6c-.1.1-.2.1-.2.2-.1 0-.1-.1-.2-.1.2-.3.3-.6.5-.9.5-.8 1-1.7 1.4-2.5 2.2-4.6 2.7-9.5 2.3-14.4-.1-1.8-.6-3.6-1-5.3-.2-.7-.6-1.3-1-1.9-1.1-1.6-2.1-3.3-3.5-4.6-1.6-1.4-3.4-2.7-5.5-3.2-2.8-.7-5.7-.2-8.5-.3h-4V5c0-1.1.9-2 2.1-2 4.2-.1 8.4-.6 12.5.7 3.2 1 6 2.8 7.6 5.9 1.3 2.5 2.6 4.9 3.6 7.5.9 2.4 1.1 5 .8 7.6zm-8.7 22.4c-1.3.7-2.5 1.6-3.9 2.2-3.1 1.6-6.5 2.3-10 2.4-3.9 0-7.8-.1-11.8-.1-2.4 0-4.8.2-7.3.3 1.1-.9 2.1-1.7 3.1-2.6.4-.3.8-.5 1-.9.5-.7 1.3-.9 2.1-.9 1.6 0 3.2-.1 4.9-.2 4 0 7.9-.1 11.8-.1 1.4 0 2.7.1 4.1.1 2 .1 3.9.1 5.8-.6.1.2.1.3.2.4zM6 47.8c-1.6 1.3-3.1 2.6-4.7 3.9-.4-1.3-.4-1.4.6-2.1 1.4-1.1 2.9-2.1 4.3-3.2.4.5.3 1-.2 1.4zM5.2 3.9c-1.3 1-2.5 2.3-3.7 3.4-.2.1-.4.3-.7.6-.4-1.6-.3-1.6.7-2.4C2.8 4.4 4 3.2 5.3 2.1c.2-.2.3-.4.5-.5.2.9.2 1.6-.6 2.3zm4.9 38.2c.1 2.1-.3 2.8-2.4 3.2-.5.1-1.1.2-1.6.3 0-.1-.1-.3-.1-.4 0-4.1-.1-8.1-.1-12.2 0-3.8 0-7.6.1-11.4 0-1.8.4-3.6.4-5.4 0-1.4-.2-2.8-.3-4.2 0-.5 0-1 .1-1.5.1-1.5-.4-2.1-1.9-2-1 .1-2 .2-3 .2 0-.1-.1-.2-.1-.3 1-.9 1.9-1.8 2.8-2.7.7-.7 1.6-1.3 2.2-2 .7-.8 1.6-.7 2.5-.7.8 0 1.2.5 1.2 1.3v11.1c0 2.5.3 4.9.3 7.4 0 5-.2 10.1-.2 15.2 0 1.4 0 2.7.1 4.1z"/></svg>