<svg xmlns="http://www.w3.org/2000/svg" viewBox="0 0 45.5 47.6"><path fill="#41A2F2" d="M45.5 23.1c-.2-3-1.1-5.9-2.2-8.7-.9-2.3-2-4.4-3.6-6.3-1.4-1.7-3.2-2.8-4.9-4-2.6-1.9-5.7-2.8-8.8-3.5-2.1-.5-4.3-.4-6.5-.5-2.7 0-5.4-.1-8.1-.1C8.2 0 5.1 0 2 .1 0 .2 0-.1 0 2.4c0 .5.2.6.6.6h1.9c1 0 1.5.4 1.5 1.4 0 1.8-.1 3.7-.1 5.5 0 1.2-.1 2.5 0 3.7.2 5.2.4 10.3.7 15.5h-.3v13.4c0 1.6-.5 2.2-2 2.6-.3.1-.6.1-.9.2-.7.1-1 .4-.9 1.1.1 1.2.2 1.3 1.5 1.2 2.8-.1 5.6-.3 8.4-.3 4.5 0 9 0 13.5.1 2.6.1 5.1-.4 7.5-1.2 1.9-.7 3.3-2 4.8-3.2 2.7-2.2 5.2-4.5 6.6-7.7 1.2-2.7 2.3-5.4 2.5-8.4-.1-1.3.3-2.6.2-3.8zM38 24.6c-.3 2.2-.6 4.4-1 6.6-.1.6-.3 1.1-.6 1.6-1.1 2-2.2 4.1-3.4 6.1-1.8 3-4.8 4.6-8.1 5.2-2.5.5-5.1.5-7.7.8v-.3h-3.8c-.5 0-1-.1-1.4-.3-.3-.2-.7-.7-.7-1 0-4.9.1-9.7.1-14.6V13.3c0-2.6-.1-5.2-.1-7.8 0-1.7.8-2.6 2.5-2.7 2.3-.1 4.6 0 6.9 0 2.4 0 4.8.4 7 1.5 2.3 1.1 4.4 2.5 5.6 4.8 1.3 2.6 2.8 5.2 3.9 7.9 1 2.4 1.1 5 .8 7.6z"/></svg>