<svg width="48" height="191" xmlns="http://www.w3.org/2000/svg"><path fill="#D8AD8C" d="M35.906 19.573c-.16.095.424-.05.518.124.206.382.233-.105.6.148.542.37-.055 1.206-.003 1.888.058.733-.81 1.067-.71 1.79.023.164.021.404.126.54.082.106-.703 1.762-.713 1.858-.033.373.214 1.108.197 1.34-.095 1.295.323.423-.017 1.71-.17.641-.378 1.043-.637 1.66-.142.339-.438.642-.58.981-.2.475-.534.972-.783 1.409-.406.71-.24.38-.765 1.04-.2.25-.731 1.144-.901 1.418-.113.181-.078.156-.258.335-.087.087-.5.578-.601.633-1.254.665-2.175 1.309-3.57 1.751-.65.205-.65.205-1.306.065-.255-.055-.666-.008-.882-.117-.325-.167-.777-.605-.977-.302-.322.487-.722 1.06-.463 1.45.313.474.238.376.583.838.21.28.758.503.857.84.107.366.694.688.853 1.031.284.611.3.971.508 1.599.232.698 1.322 1.833 1.13 2.574-.138.54-.497 1.974-1.115 2.263-.304.143-1.524.866-1.844.86-.652-.016-1.117-.265-1.602-.321-.818-.094-1.853-.4-2.291-1.204-.156-.284-.976-1.273-1.129-1.563-.672-1.283-1.111-.343-1.592-1.867-.232-.736-.563-1.14-1.013-1.777-.432-.611-.417-.805-.913-1.353-.523-.578-1.297-1.316-1.81-1.92-.207-.243-.565-1.149-.82-1.352-.234-.188 2.17-2.261 2.015-2.922.233-.449.029-.86.29-1.693.377-1.209-.17-1.882.178-3.112.177-.63-.288-.909-.179-1.561.049-.296-.254-.76-.267-1.066-.011-.28.1-.574-.031-.798-.028-.146.368.04.017-.636-.193-.375.648-1.408.154-1.302-.543.118-1.772.476-2.312-.431-.364-.611-.837-.885-1.034-1.541a12.893 12.893 0 0 1-.426-1.972c-.219-1.541.74-3 1.46-3.075.653-.07 1.618.522 2.14.854.5.322.951 2.098 1.311 2.559.75.955.386 1.164.533 1.467.058-.363.179.458.378.754.325.525.049-.198.107.448.032.332.076.225.041.544-.035.304.299-.853.321-.544.205-.932.04.34.246-.61.1-.448.118.032.1-.448-.024-.6.235.05.194-.556.086.315-.065-2.675.175-1.884.165.546.163-2.296.1-1.734.103-.437.33 4.09.358 3.619.023-.414.658-1.18.642-1.604-.058-1.323.654-1.996.523-3.315-.066-.626.11-1.078.145-1.688.025-.506-.212-.912.204-1.291.09.603.275-2.535.572-2.008.288.508.31 2.493.751 2.873 1.054.904.933 1.747 2.21 2.262-.39-.23 1.127.575.898.269a9.472 9.472 0 0 1-.77-1.3c-.175-.366-.059-.467-.274-.823-.277-.461-.453-.573-.242-1.046.403.514-.248-1.616.022-1.03.323.702.652 1.194 1.296 1.712.623.5 1.647 1.63 2.288 1.794.757.194 1.401.885 2.258 1.015.728.11 1.672.778 2.373.713-.32.205 0 0 .915.276l1.028.322c1.163-.057-.243.047.896.067"/><g fill="#010101"><path d="M15.16 18.216c.137.07.593.051.298-.1-.974-.5-2.155-.688-2.9.32-.711.962-.54 2.023-.3 3.15.3 1.436.714 2.372 1.905 3.284.859.658 1.707.303 2.36-.428.102-.113-.37-.287-.466-.18-.998 1.12-2.482.044-2.875-1.044a10.029 10.029 0 0 1-.485-1.841c-.101-.613-.261-1.325-.118-1.941.254-1.101 1.43-1.813 2.58-1.22z"/><path d="M16.088 23.85c-.058.098.416.276.499.134.337-.582-.188-.865-.713-.96a5.525 5.525 0 0 0-.97-.074c-.76-.007-1.328-.423-1.51-1.16-.037-.14-.53-.219-.495-.075.189.764.85 1.279 1.612 1.417.486.09 2.072-.134 1.577.718zm-3.376-4.07c-.029.147.472.27.5.135.186-.873 1.274-.746 1.72-.137.438.6.712 1.3 1.168 1.888.082.107.572.167.455.017-.68-.875-.936-2.093-2.067-2.506-.655-.24-1.603-.218-1.776.604zm1.69-1.9c-.333-.02.054.227.206.236 1.701.105 2.358 2.562 2.622 3.928.027.14.525.227.495.076-.35-1.802-1.19-4.11-3.323-4.24zm23.051 2.304c-.02-.14-.516-.234-.494-.076.212 1.521-.605 2.71-1.026 4.108-.23.757-.662 1.73-.584 2.538.013.136.51.238.495.076-.097-.98.503-2.293.818-3.2.413-1.187.976-2.125.791-3.446zM26.734 38.38c.35.036.14-.2-.083-.222-6.342-.63-11.127-7.482-10.197-13.475.021-.154-.48-.265-.5-.134-.978 6.326 4.273 13.185 10.78 13.832zm4.363-11.289c.074.138.549.179.495.075-.746-1.376.52-4.28 1.805-4.98.095-.051-.329-.255-.466-.18-1.341.731-2.599 3.671-1.834 5.085zm.501.798c-.076-.136-.551-.175-.495-.077.428.767 1.207 1.883.463 2.707-.315.35-.987.202-1.425.394-.177.077.28.268.405.214.57-.25 1.223.041 1.59-.574.555-.928-.078-1.838-.538-2.664z"/><path d="M29.991 30.675c.33.029-.058-.222-.206-.236-.473-.041-1.211.277-1.555-.166-.343-.444-.095-.942.348-1.187.095-.051-.328-.256-.465-.18-.579.32-.775 1.099-.163 1.514.278.189.613.332.955.33.362-.002.724-.105 1.086-.075zm5.799-3.905c-.098-.085-.593-.133-.389.044.8.69-.09 2.713-.393 3.458-.462 1.138-.993 2.326-1.785 3.278-.099.12.376.289.467.18.925-1.11 1.58-2.55 2.034-3.909.277-.824.886-2.344.067-3.05zm-19.073 2.733c-.004-.167-.5-.244-.497-.133.076 3.133.04 6.168-2.603 8.298-.106.082.347.277.465.18 2.648-2.134 2.713-5.18 2.635-8.345zm7.736 12.9c.09.1.578.154.456.017-1.188-1.328-.435-2.973-.151-4.496.026-.15-.474-.268-.498-.134-.294 1.588-1.032 3.243.193 4.613zm6.572-9.261c.334.015-.053-.23-.206-.237-1.552-.071-3.343.138-4.712-.732-.105-.068-.61-.097-.389.042 1.579 1.004 3.518.844 5.307.927z"/><path d="M30.93 33.134c.101-.11-.368-.287-.466-.18-.473.508-1.11.813-1.612 1.29-.104.098.358.282.467.18.501-.476 1.136-.782 1.61-1.29z"/><path d="M31.59 32.532c.02-.155-.48-.263-.497-.134-.056.42-.352.495-.748.53-.263.023.19.243.316.232.284-.025.543-.123.816-.203a.067.067 0 0 0 .048-.04c.017-.13.049-.254.065-.385zm-6.15-.106c.044.143.535.211.495.076-.073-.229-.084-.396.18-.47.17-.048-.275-.249-.406-.213-.327.092-.364.301-.27.607zm4.393 5.091c.104-.101-.36-.285-.465-.18-.802.794-1.902.81-2.963.81-.335 0 .05.236.206.236 1.138 0 2.36-.01 3.222-.866z"/></g><path fill="#A15927" d="M35.707 26.175c.13-.7.232-.83.376-1.336.166-.578.164-.602.436-1.38.2-.57.577-1.386.687-2.004.115-.65-.066-.797-.044-1.472-.041-.023-.693-.29-.738-.285a24.761 24.761 0 0 1-1.717-.399c-.635-.175-1.575-.45-2.198-.62-1.14-.312-2.11-.508-3.207-.966-1.119-.466-2.157-.97-3.052-1.831-.903-.868-1.334-1.483-1.845-2.525-.174.861.16 1.539.345 2.319.106.445.258.993.557 1.362.259.316.69.757.775 1.15-1.088-.317-2.704-1.386-3.325-2.395-1.03-1.666-.757-3.647-.542-4.535-.26.756-.664 2.346-.85 3.147-.182.777-.2 1.496-.297 2.322-.195 1.712-.642 4.71-1.129 5.642.138-.947-.26-2.693-.453-3.685-.035.902-.099 1.356-.273 3.62-.089 1.168-.365 1.436-.858 2.157.054-1.245-.084-.804-.46-1.705-.257-.28-.205-.82-.257-.28-.013-.04-.025-.502-.04-.53-.18-.389-.287-1.278-.464-1.74-.18-.468-.958-1.568-1.328-1.83-.72-.511-.85-.575-1.517-.575-2.746 0-2.244 2.923-1.73 4.535.326 1.026.82 2.403 2.244 2.733.455.105 1.288-.667 1.273-.33-.087 2.053.004 1.891.018 2.284.05 1.827.235 2.191.375 3.795-.375.102-3.812 1.454-4.174 1.451.85-1.107 1.175-2.78 1.468-3.272.33-.556-1.96 1.235-1.026.818-.922.237-1.81 1.214-3.136 1.085.199-.335 1.494-1.41 1.79-1.667.448-.393.56-1.207.725-1.724.302-.95.103-.96.139-2.043-.286.943-1.011 3.173-2.674 3.19.756-1.115.857-3.695.583-4.892-.257-1.095-.218-2.359-.401-3.48-.166-.987-.074-1.782-.34-2.9-.275-1.15-.473-2.166-.492-3.384-.01-.598.266-1.148.164-1.73-.117-.64.092-1.306.257-1.937.275-1.022.539-1.49 1.166-2.143 2.554-2.662 2.45-1.858 3.58-2.288 2.046-.778.087-1.554 4.082-3.76 1.082-.596 4.53-1.17 5.494-1.326 1.312-.214 1.46.097 2.966.34 1.314.21 2.2.606 3.45 1.016 1.263.414 1.857.94 3.28 1.71-.005-.005.802.654 1.192 1.064 1.014.498.51.481 1.347 1.174.019.038.79.845 1.09 1.221.974.909.31.572 1.129 1.625a145 145 0 0 1 2.514 3.371c.667 1.116.944 1.803 1.273 2.803.339 1.03.558 2.124.387 3.14-.638-.861-1.193-1.525-2.978-2.31.339 1.306 1.287 2.26 1.93 3.192.491.715 1.37 1.478 1.294 2.411-.709-.089-1.614-.576-2.317-.768-.646-.176-.946-.393-1.54-.546-.705-.02.03 1.863.19 2.979.094.648.222 1.041.166 1.737-.062.794.065 1.4.16 2.099-.15-.24-.292-.544-.467-.787-.258-.356-.509-.813-.781-1.173.013.713-.07 1.026-.05 1.758.018.692-.143 2.094-.2 2.79-.098-.32-.69-1.453-.994-1.81-.486-.568-.395-.59-.942-1.042"/><g fill="#010101"><path d="M22.662 11.198c.037-.144-.337-.244-.375-.101-.954 3.711.909 5.708 4.035 7.378.091.05.368.02.228-.124.808.846-3.751-6.223-1.256-3.432.937 1.048 1.969 1.96 3.266 2.552 4.452 2.032 9.415 2.446 13.94 4.35.059.024.292.065.264-.066-.208-1.003-.635-1.687-1.27-2.516-.339-.438-.675-.879-1.008-1.322-.841-1.088-.275-.823 1.701.796.06.092.36.184.362.011.093-4.664-2.778-9.059-6.5-11.714-.126-.09-.443-.02-.237.128 3.031 2.161 6.46 6.565 6.383 10.524.002-.122-2.272-1.458-2.745-1.663-.043-.02-.313-.062-.263.065.473 1.225 1.18 2.137 1.956 3.193.928 1.259 1.283 2.179-.757 1.49-5.112-1.727-13.365-1.762-15.64-7.592-.046-.115-.375-.224-.376-.04-.011 1.414.017 3.363 1.09 4.49-2.167-2.272-3.69-2.943-2.798-6.407zm-6.226 19.716c.16-.104-.181-.263-.291-.193-1.153.74-2.911 1.259-4.262 1.509.086.067.175.136.26.204 1.027-.685 1.853-2.286 1.8-3.519-.003-.128-.285-.179-.36-.097-1.085 1.186-2.38 1.6-3.894 1.996-.798.21-.149.363.373.007.302-.207.609-.42.857-.696 1.27-1.407 1.853-3.296 1.248-5.134-.04-.121-.376-.219-.375-.04.01 1.839-.72 3.25-2.498 3.926-.165.063.173.237.296.19 1.833-.695 2.587-2.161 2.577-4.076l-.375-.04c.792 2.409-.506 5.279-2.957 6.094-.218.073.098.253.224.217 1.822-.502 3.54-.843 4.867-2.29-.121-.033-.24-.066-.36-.097.046 1.18-.744 2.715-1.724 3.369-.169.113.173.221.26.204 1.371-.253 3.153-.774 4.334-1.534z"/><path d="M22.615 11.294c.061-.12-.302-.237-.371-.1-1.258 2.46-1.166 5.061-1.596 7.72-.132.815-.614 2.267-.594 2.795-.052-1.264-.263-2.473-.523-3.71-.03-.138-.409-.196-.376-.04.314 1.491.548 2.906.5 4.44-.005.147.31.241.374.1 1.595-3.586.792-7.688 2.586-11.205zm15.744 8.986c-.041-.135-.42-.187-.376-.039.536 1.734.693 3.326.906 5.111.09.756.272 1.335.584 1.893a29.489 29.489 0 0 0-1.341-2.141c-.043-.064-.357-.19-.362-.041-.058 1.33-.092 2.668-.205 3.996-.076.898.538 1.497.092.397-.407-1-.84-1.767-1.598-2.538-.095-.097-.462-.084-.304.076.989 1 1.721 2.155 1.662 3.639-.005.149.358.24.375.1.168-1.587.247-3.176.318-4.769.039-.912.605.562.707.745.213.353.4.72.564 1.098.046.098.39.174.362.012-.425-2.524-.621-5.079-1.384-7.539zM23.6.7c-.252.003-.011.23.141.23 5.132-.048 11.814 3.079 14.14 7.928.06.12.435.154.351-.02C35.82 3.809 28.95.652 23.6.7z"/><path d="M14.132 7.165c-.022.15.352.241.375.1.73-4.803 5.194-5.7 9.278-6.34C24 .888 23.69.686 23.56.706c-4.16.651-8.688 1.595-9.43 6.458z"/><path d="M9.258 28.923c-.05.134.32.243.374.1 2.742-7.175-5.116-20.005 4.968-23.12.216-.067-.093-.258-.224-.217C4.13 8.85 12.004 21.74 9.258 28.923zM19.58 18.17c.035-.146-.34-.243-.373-.101-.218.93-.016 1.81-.008 2.75.01 1.353-.453 2.7-1.14 3.855l.357.127c.36-.952-.257-2.028-.71-2.85-.063-.117-.442-.147-.349.02.432.789 1.034 1.813.687 2.73-.05.128.296.232.358.126.56-.936 1.06-2.065 1.145-3.166.092-1.168-.238-2.337.033-3.49z"/></g><path fill="#0B1938" d="M35.034 163.471c.475.312 1.238.775 1.762 1.01.891.398 1.865.897 2.772 1.186.846.266 1.805.635 2.694.852.38.095 1.573.453 1.956.51.62.093.212.644.325 1.098.602 2.403-2.118 3.448-4.113 3.505-.548.019-1.01-.13-1.525-.238-.41-.087-1.184.146-1.45-.17-.439-.524-.66-1.564-1.636-1.886-2.39-.786-5.58-1.423-7.563-1.75.613-.725 2.438-1.352 3.298-1.845 1.075-.614 2.436-1.748 3.48-2.272m-.104 8.242c-.132-.267-.1-.613-.256-.87-.158-.257-.134-.26-.378-.399-.205-.117-.813-.181-1.04-.257-.942-.327-1.939-.5-2.898-.8-.733-.232-1.462-.37-2.22-.568-.625-.162-1.549-.355-2.176-.219-.547.115-1.31.466-1.874.475-.32 1.518 3.425 1.303 4.212 1.35 1.684.103 3.312.986 4.986 1.198.517.067 1.008-.095 1.506-.028"/><path fill="#A2C6DD" d="M44.408 167.107c-.056.163.156.504.123.757-.043.315-.158.541-.091.876.12.613-.056 1.04-.337 1.573-.235.444-1.022.891-1.485 1.049-.904.306-1.92.24-2.858.189-.436-.026-.88-.049-1.306-.091-.219-.02-.568.03-.769-.061-.161-.07-.14-.095-.224-.27-.308-.643-.61-1.1-1.129-1.605-.267-.26-.449-.297-.829-.4-.446-.122-.748-.12-1.195-.231-.395-.1-.926-.33-1.338-.388-.484-.064-.73-.154-1.21-.273a16.692 16.692 0 0 0-1.986-.337c-.472-.05-.99-.204-1.451-.204-.288-.002-.77.148-.993.302-.423.29-.592.47-1.092.574.759.066 1.4.102 2.149.261.662.139 1.048.34 1.729.495.716.165 1.269.453 2 .562.303.045.679.191.983.264.33.078.924.185 1.21.363.234.145.614.915.6 1.182-1.117.056-2.304-.064-3.352-.456a30.32 30.32 0 0 0-2.683-.83c-1.172-.295-2.424.01-3.243-.124-.546-.087-.968-.124-1.362-.521-.212-.214-.266-.62-.581-.613-.226.006-.605.041-.811.128-.509.21.344.785.492 1.169.176.455.054 1.24.508 1.395a3.585 3.585 0 0 0 1.68.121 10.192 10.192 0 0 1 1.705-.175c1.19-.035 2.38.662 3.508 1.088.775.292 1.573.538 2.33.853.633.265 1.293.316 1.965.416.843.129 1.618.014 2.47.1.9.09 1.852.17 2.76.096.838-.067 1.875.202 2.662-.139.278-.12.498-.134.77-.257.524-.24 1.11-.487 1.65-.681.842-.304.996-1.026 1.231-1.877.197-.703.14-1.146.082-1.8a5.239 5.239 0 0 0-.465-1.674c-.12-.252-.382-.461-.622-.593-.196-.106-1.133-.435-1.224-.219"/><path fill="#0B1938" d="M22.11 178.198c.596.099 1.207.51 1.72.824.576.354.846.68 1.376 1.066.323.234.703.7 1.024.945.356.269.694.545 1.089.763.712.391 1.378.259 2.135.422.28.061.557.193.79.372.283.218.233.426.242.771.011.353.082.672-.113.972a6.93 6.93 0 0 1-1.067 1.215c-.371.316-.658.32-1.028.627-.34.292-.99.765-1.425.85-1.098.219-1.284.314-2.378.572-.805.186-2.187.618-3.028.575-.577-.024-1.195-.245-1.743-.393-.617-.167-1.068-.487-1.586-.869-.534-.395-.633-.725-.693-1.37-.02-.251-.272-.592-.395-.815-.119-.22-.178-.496-.393-.607-.506-.26-1.096-.426-1.592-.706-.574-.325-1.089-.685-1.683-.974-.56-.273-1.084-.664-1.649-.911-.341-.147-.605-.401-.664-.822-.04-.304.255-.488.24-.81.807.285 1.483.834 2.287 1.155.343.138.623.31.998.362.421.059.89.043 1.272-.113.391-.158.658-.451 1.068-.59.49-.165.896-.444 1.347-.664.945-.46 1.9-.976 2.866-1.39.185-.08 1.051-.3 1.045-.485m-7.778 6.413c-.068-.286-.625-.427-.876-.543-.284-.13-.504-.303-.759-.477-.49-.337-.981-.693-1.51-.974-.489-.261-1.118-.333-1.329-.876-.085-.219-.074-.45-.132-.694-.05-.228-.167-.453-.222-.695-.124-.53.177-.952.45-1.39-.388-.296-.832-.586-1.305-.73-.352-.103-.547.02-.597.357-.041.273-.228.382-.39.614-.167.24-.006.434-.04.745-.038.323.018.655.03.974.024.582-.37 1.293.115 1.698.472.393 1.091.742 1.548 1.144.59.524 1.238.984 1.939 1.327.368.18.81.109 1.199.243.432.152.989.417 1.466.336.235-.04.378-.169.447-.419.041-.152.045-.62-.093-.666"/><path fill="#A2C6DD" d="M30.32 182.529c.79.183.271 1.472.023 1.874-.26.423-.35.737-.78 1.032-.254.173-.387.429-.62.635-.268.235-.561.2-.921.36-1.043.46-2.334 1.024-3.442 1.295-.71.174-1.546.324-2.275.393-1.468.139-2.442-.111-3.75-.85-.958-.542-1.018-1.572-1.382-2.474-.193-.471-.7-.568-1.129-.822-.621-.37-1.213-.765-1.846-1.12-.658-.372-1.269-.583-1.942-.941-.534-.288-1.2-.58-1.104-1.285.031-.234.326-.675.257-.822-.065-.144-.494-.235-.629-.302-.146-.072-.382-.311-.543-.325-.44-.03-.57.847-.565 1.208.004.458.253.998.437 1.41.126.282.2.426.455.578.344.206.651.464 1.006.644.572.288 1.055.643 1.604.967.414.247 1.114.567 1.238 1.04.05.2.162.508-.056.617-.152.078-.655-.06-.851-.06-.655 0-1.359-.232-1.933-.51-.737-.359-1.42-.67-2.06-1.19-.503-.412-1.207-1.07-1.684-1.287-.041.245.089.517.153.751.073.261.084.48.084.755 0 .575.14.97.553 1.384.726.74 2.019.966 3.015 1.132 1.017.17 2.04.531 3.03.88.654.226 1.174.553 1.785.876.644.344 1.084.779 1.653 1.197.286.211.58.38.85.612.208.184.403.224.664.335.34.142.716.348 1.056.46.25.08.478.196.73.235.667.106 1.366-.07 2.031-.091.96-.033 1.813-.368 2.712-.703.855-.323 1.647-.56 2.462-.993.371-.198.963-.362 1.295-.625.336-.265.896-.757 1.273-.954 1.413-.747 2.631-1.96 2.232-3.65-.14-.595-.63-1.098-1.21-1.29-.556-.188-1.37-.462-1.964-.433"/><g fill="#010101"><path d="M8.627 178.501c.11-.18-.374-.341-.462-.19-1.466 2.407-1.285 7.43 2.044 8.173 2.249.499 5.077 1.092 6.93 2.418-.068-.053 2.204 1.785 2.765 2.022 1.525.652 3.216.508 4.792.08 2.78-.76 11.35-3.658 8.18-7.8-.696-.912-2.62-.752-3.485-.89-2.648-.42-4.374-2.948-6.742-4.017-.224-.1-.513.074-.198.215 1.905.857 3.661 3.557 5.836 3.9.777.153 1.56.246 2.353.28 2.293 2.014 2.566 3.575.816 4.672-2.019 1.586-4.509 2.9-7.062 3.36-4.128.747-7.093-2.451-10.661-3.578-3.982-1.257-7.914-4.03-5.106-8.645z"/><path d="M14.3 185.774c.338-.005 0-.293-.188-.29-2.42.043-4.577-1.483-6.156-3.157-.117-.125-.605-.129-.403.087 1.729 1.835 4.126 3.407 6.748 3.36zm15.697-3.368c-.299-.072-.372.182-.07.258 1.072.26-.207 2.108-.43 2.371-.732.86-1.882 1.47-2.946 1.84-3.29 1.146-8.46 2.168-9.28-2.403-.027-.173-.532-.258-.494-.06.332 1.864.759 2.832 2.688 3.426 2.254.697 4.443.235 6.658-.43 1.75-.526 3.831-1.474 4.524-3.318.337-.908.312-1.452-.65-1.684z"/><path d="M11.35 181.186c-.223-.113-.507.058-.2.213 1.083.546 2.116 1.159 3.164 1.762.769.442 1.715.818 2.395 1.382.128.104.623.097.401-.087-.835-.693-1.92-1.123-2.856-1.665-.958-.557-1.914-1.107-2.905-1.605zm-1.042.924c-.167-.091-.605-.008-.31.154 1.437.796 2.828 1.664 4.216 2.542.164.104.596.026.312-.154-1.388-.878-2.78-1.747-4.218-2.542z"/><path d="M9.891 182.253c.076.146.577.2.465-.018-.412-.8-.712-2.182-.146-2.97.12-.17-.362-.337-.462-.197-.622.868-.308 2.307.143 3.185zm1.122-.983c.058.17.557.237.497.058-.147-.443-.111-.86.048-1.295.063-.167-.43-.313-.497-.134-.169.457-.204.903-.048 1.37zm3.127 4.362c.003.169.502.272.496.06-.005-.285-.037-.573.022-.858.045-.186-.455-.314-.495-.136-.068.306-.031.623-.024.934z"/></g><g fill="#010101"><path d="M23.558 171.45c-.08-.054-.577-.134-.377-.004.273.177.693.57 1.102.614 2.44.27 4.63.043 7.047 1.043 3.015 1.244 6.5 1.437 9.724 1.262 2.562-.132 7.184-1.25 6.093-4.936-.167-.566-.368-1.93-1.061-2.17-3.698-1.287-7.251-1.694-10.734-3.682-.08-.046-.58-.118-.375-.001 2.149 1.226 4.41 2.25 6.813 2.88 1.1.289 4.19.585 4.555 1.821.631 2.126.206 4.581-2.258 5.353-5.273 1.646-10.493-.47-15.515-1.816-1.553-.42-3.665.518-5.014-.364z"/><path d="M44.847 167.14c-.013-.138-.502-.18-.499-.132.138 1.547.228 3.223-1.487 3.998-1.72.778-3.553.308-5.355.227-.234-.012.233.181.326.185 1.609.074 3.582.617 5.132-.084 1.893-.855 2.052-2.307 1.883-4.194z"/><path d="M36.411 169.32c-.09-.113-.508-.117-.49-.095.53.664 1.082 1.312 1.503 2.05.068.121.516.143.49.1-.422-.744-.975-1.389-1.503-2.055z"/><path d="M28.015 167.57c-.323-.039.106.168.22.179 2.658.323 5.405.859 7.957 1.643.181.053.508.014.167-.089-2.696-.83-5.544-1.395-8.344-1.733zm-2.058.841c-.237.004.232.187.327.185 2.622-.042 5.47 1.293 7.995 1.916.288.072.325-.058.036-.13-2.634-.649-5.606-2.016-8.358-1.97zm9.205 3.299c.111-.008-.3-.188-.414-.18-2.108.176-4.217-.862-6.247-1.265-1.201-.237-3.693.38-4.117-1.088-.035-.117-.513-.177-.49-.097.364 1.261 2.357 1.275 3.4 1.295 2.682.055 5.181 1.556 7.868 1.334z"/><path d="M34.687 170.494c-.076-.116-.512-.13-.49-.095.25.382.412.808.623 1.21.063.12.516.144.49.095-.209-.4-.372-.83-.623-1.21z"/></g><path fill="#F5F6F6" d="M27.549 23.806c.467.773-1.696 1.128-2.138 1.095-.947-.066-2.21-.385-2.87-1.1-.42-.455-.76-1.103-.387-1.732.362-.616 1.499-.509 2.108-.445 1.392.146 2.432.918 3.298 2.069m4.418 1.167c-.523-.23-.732.834-.437 1.075.23.19.877.317 1.187.346.705.063 1.828-.318 2.351-.812.477-.449.625-1.072.004-1.608-.508-.438-1.273-.46-1.863-.26-.371.124-1.388.76-1.427 1.195"/><path fill="#33512E" d="M33.739 23.706c0 1.945-1.127 1.637-1.958 1.408-.804-.221.66-.35.597-1.029.452-.374.42-.423.87-.351M25.2 21.875c.171.152.127.552.002.751-.175.282-.826.804-1.205.784-.671-.036-.715-.048-1.137-.367-.393-.294-.56-.351-.706-.973-.095-.386.636-1.493 3.046-.195"/><path d="M27.235 24.174c.017.224.524.297.506.038-.137-1.877-5.518-4.497-6.015-1.98-.46 2.327 4.444 3.773 5.787 2.162.164-.195-.311-.392-.455-.219-1.018 1.22-5.473.009-4.835-1.81.684-1.947 4.9.243 5.012 1.809zm3.865 1.407c-.027.24.474.361.498.134.103-.887.88-1.519 1.688-1.791.63-.213 2.04-.43 2.024.635-.022 1.4-2.935 1.874-3.753 1.016-.152-.16-.633-.081-.416.146 1.065 1.117 5.135.69 4.627-1.374-.24-.972-1.484-1.085-2.286-.896-1.059.25-2.243.95-2.381 2.13z" fill="#010101"/><path d="M31.831 25.064c-.113-.048-.257.035-.099.103.512.22 1.217.421 1.717.05.429-.319.564-.856.473-1.365-.015-.085-.267-.128-.249-.03.063.352.02.776-.215 1.065-.424.524-1.06.418-1.627.177zm-6.334-3.013c.02-.09-.23-.154-.25-.066-.116.523-.44 1.051-.96 1.256-.952.374-1.625-.401-2.018-1.174-.037-.073-.29-.101-.231.006.395.782 1.016 1.455 1.952 1.415.779-.035 1.349-.725 1.507-1.437z" fill="#010101"/><path fill="#244764" d="M22.636 168.99c.074.017.145-.01.222.011.018.718.236 1.343.464 1.956.258.695.214 1.25.323 2.013.102.709.277 1.403.393 2.11.107.652.549 1.09.725 1.694.326 1.133-2.076 1.186-2.986 1.604-1.452.658-2.93 1.524-4.39 2.135-1.224.51-2.297 1.287-3.475.716-1.54-.743-1.382-.628-3.033-1.805-1.77-.957-2.247-.81-3.13-2.334-.475-.818-.333-1.34-.253-2.24.115-1.288.056-2.508.317-3.742.24-1.133.861-2.234 1.262-3.362.397-1.117.577-2.21.455-3.51-.117-1.227-.43-2.274-.483-3.559-.097-2.49.16-5.114.304-7.52.158-2.589.516-5.046.894-7.57.193-1.281.296-2.444.47-3.752.17-1.297.605-2.405.742-3.876.052-.579-.143-1.15-.012-1.774.139-.68.575-1.18.983-1.676.882-1.072.683-2.358.683-3.69 0-1.478-.035-2.864-.16-4.351-.135-1.665-.281-3.333-.548-5.126-.378-2.52-.343-4.958-.127-7.54.234-.312.364-.407.89-.233.46.154 1.107-.176 1.565 0 .588.225.382 1.344 1.932.34.762-.495-1.225-5.097-.702-5.07-.109.322-.074-3.293-.334-3.503-2.314-1.848-3.657-5.922-3.344-5.754.049.059 2.607 1.484 5.398 2.06 1.03-.086 2.128.278 3.158.172 1.547-.161 1.68-.33 3.15-.738 3.225-.89 10.629-7.052 13.694-7.826.783-.199 1.53 13.783-.241 17.92-.29.679-.257 1.88-.376 2.495-.16.822-.27 1.756-.31 2.578-.07 1.473.067 2.99-.085 4.427-.17 1.58-.462 2.93-.304 4.464.138 1.328-.236 2.65-.236 3.981.002 1.307-.249 2.7-.245 4.019.013 5.186-1.024 10.277-.77 15.393.062 1.236.354 2.56.235 3.764-.124 1.256-.82 2.356-1.188 3.574-.373 1.233-.245 2.442.195 3.602.376.996 1.336 1.964 1.07 3.126-.215.94-1.422 1.592-2.185 2.145-1.082.789-2.9 1.724-4.08 2.313-2.223 1.11-3.72 2.104-6.302 2.122"/><g fill="#010101"><path d="M33.075 105.514c.193-.064-.26-.276-.4-.228-.873.3-1.886.516-2.532 1.23-1.006 1.11-1.421 2.702-1.844 4.099-.046.154.45.294.499.134.406-1.35.816-3.154 1.911-4.149.664-.602 1.538-.802 2.366-1.086z"/><path d="M30.642 106.866c.015-.176-.487-.278-.497-.134-.384 5.034-1.117 10.523-2.673 15.34-1.063 3.296-3.242 7.155-3.242 10.66 0 .182.498.272.498.135 0-4.117 2.8-8.163 3.652-12.148.98-4.57 1.906-9.185 2.262-13.853zm-18.035 6.372c.02-.175-.48-.282-.495-.136-.572 4.828.337 9.086.629 13.868.218 3.52.085 5.138-1.141 8.16-.732 1.804-.905 4.712-1.032 6.678-.013.179.487.279.497.134.143-2.247.337-5.672 1.612-7.518.833-1.203.763-2.881.713-4.255-.21-5.72-1.46-11.194-.783-16.931z"/><path d="M25.952 127.737c-.01-.148-.507-.257-.497-.069.111 2.31 1.13 4.688.917 7.003-.205 2.234-.886 4.378-.917 6.63-.004.18.495.273.497.134.037-2.555.934-4.974.907-7.534-.025-2.07-.81-4.084-.907-6.164zM38.025 93.07c-.017-.154-.514-.253-.495-.069.43 4.202 1.112 8.5.655 12.728-.421 3.897-1.676 7.573-1.85 11.507-.007.18.492.275.499.134.217-4.974 2.061-9.624 1.954-14.645-.071-3.241-.433-6.428-.763-9.656zm-2.178 59.094c.059-.136-.427-.293-.499-.132-1.041 2.278-1.447 5.201-3.106 7.121-1.746 2.02-3.123 2.837-5.919 2.965-.334.014.026.267.2.26 2.699-.123 4.188-.732 5.929-2.747 1.82-2.106 2.246-4.956 3.395-7.467z"/><path d="M35.347 152.544c.035.156.536.238.497.069-1.534-6.791-.216-15.115.343-22.016.399-4.917.504-9.802.707-14.729.007-.18-.492-.274-.497-.135a742.957 742.957 0 0 1-.99 18.384c-.39 5.89-1.37 12.616-.06 18.427zm-1.457 4.821c-.034-.155-.533-.237-.494-.068.218.96.329 2.24.91 3.062 1.584 2.236.56 3.352-1.597 4.481-3.292 1.727-6.24 4.076-10.1 4.255-.336.015.024.269.2.26 4.22-.2 8.008-2.87 11.531-4.988 1.246-.752 1.799-1.698 1.12-3.023-.715-1.396-1.213-2.431-1.57-3.979zM10.707 170.97c.02.151.52.246.495.068-.722-5.465-2.492-10.042-1.66-15.708.654-4.47.4-9.196 1.502-13.606.041-.16-.456-.294-.497-.136-1.193 4.772-1.434 10.34-1.8 15.23-.37 4.969 1.322 9.318 1.96 14.151z"/><path d="M25.126 176.812c-.02-.154-.518-.25-.499-.074.115.93-4.066 1.933-4.769 2.271-1.232.592-2.406 1.386-3.66 1.92-2.076.884-3.42-.345-4.946-1.289-2.044-1.27-3.954-2.25-3.679-5.093.113-1.156.284-2.264.613-3.386.63-2.152 1.575-4.119 1.598-6.393.002-.184-.495-.273-.497-.134-.04 3.91-3.422 8.08-1.982 12.044.579 1.596 1.041 1.48 2.616 2.455 1.242.77 2.674 2.005 4.102 2.388 2.494.668 4.99-1.857 7.18-2.687.854-.325 4.091-.632 3.923-2.022zm.713-35.565c-.002-.182-.5-.267-.497-.134.04 2.583.348 5.227.046 7.796-.313 2.654-1.361 4.548-2.193 7.005-.82 2.427-.206 3.184.319 5.581.672 3.064-1.013 4.049-2.288 6.355-.066.12.413.291.5.134 1.077-1.955 2.334-2.669 2.61-4.906.3-2.453-1.916-4.318-.642-7.028 2.337-4.982 2.228-9.417 2.145-14.803z"/><path d="M20.855 165.612c.02-.174-.48-.282-.497-.134-.247 2.105 1.97 2.66 2.453 4.46.65 2.413.751 4.745 1.82 7.042.07.15.557.204.496.068-.517-1.113-.961-2.166-1.142-3.39-.166-1.138-.183-2.596-.676-3.65-.725-1.532-2.675-2.523-2.454-4.396z"/></g><path fill="#555D7B" d="M14.687 36.979c-1.295.47-.834.806-.296 1.45.7.832 1.867 2.242 2.307 3.254.486 1.12 1.73 2.25 2.18 3.384.427 1.073 1.789 1.709 2.392 2.711.808 1.338 1.911 1.328 3.543 1.49 1.536.153 3.005-1.903 3.311-3.089.358-1.392-.11-.815-.617-2.016-.219-.518-1.536-2.692-1.875-3.187-.387-.567-.979-.76-1.442-1.678.464-1.45 4.654.596 5.571 1.323 1.893 1.5 4.56 2.637 4.849 5.22.14 1.272 1.608 3.461 2.243 4.213.81.964 1.345 1.123 2.034 2.168.615.934.136-.279.777.76.577.931-.65 3.162-.629 6.862.004.629-2.17 2.439-3.093 2.965-.536.306-1.57.582-2.167.68-.82.13-1.516-.326-1.423.977.105 1.46-.241 2.526.195 3.583.525 1.271.298 2.471.515 3.82.108.656.335 1.268.52 1.914.22.76.605 1.37.798 2.066.173.614.1 1.187.317 1.767.225.607.592 1.167.863 1.765.551 1.205 1.321 2.096 1.7 3.389.185.63.5 1.197.399 1.91-.082.59-.514 1.151-.557 1.75-.095 1.309.707 2.359 1.03 3.42.215.713.352 1.323.231 1.96-.17.89-.268.917-1.103 1.445-1.196.755-2.095 1.224-3.244 2.036-1.243.878-2.556 1.845-3.864 2.606-1.225.71-2.7 1.453-3.952 2.125-1.005.54-2.712 1.386-3.817 1.524-2.66.338-4.692.652-6.987-.455-1.314-.634-2.992-.948-3.375-2.492-.314-1.261-.62-2.709-.62-4.056.004-3.253-.28-6.523-.077-9.784.155-2.541.554-5.459-.485-7.906-.512-1.2-.744-2.024-.473-3.389.255-1.306.462-2.827.892-4.06.82-2.337 1.618-4.833 2.116-7.231-.892.447-2.494.624-3.504.72-1.115.104-2.282-.242-3.329-.654-1.15-.455-2.149-1.109-3.178-1.825-.678-.47-2.605-2.06-2.451-2.866.107-.59.973-.96 1.19-1.6.207-.59.5-1.219.702-1.822.399-1.187 1.016-2.25 1.129-3.556.224-2.586.235-1.938.798-4.598.278-1.316 1.39-4.383 2.135-5.553.857-1.345 1.704-2.205 2.995-2.66 2.219-.782 1.202-.142 3.517-.782"/><g fill="#010101"><path d="M39.431 52.962c.08.093.559.158.453.034-2.026-2.374-3.946-4.053-5.026-7.091-.781-2.199-1.795-3.214-3.62-4.54-1.934-1.402-4.272-2.055-6.536-2.749-.29-.089-.33.074-.043.162 3.04.933 7.633 2.173 9.039 5.363.724 1.64 1.054 3.596 2.196 5.021 1.088 1.354 2.411 2.479 3.537 3.8zm-.041 6.863c.043-.084-.434-.26-.498-.134-.962 1.926-4.197 4.097-6.411 3.75-.349-.055-.111.16.091.19 2.42.38 5.76-1.686 6.818-3.806z"/><path d="M33.44 50.39c-.009-.151-.502-.211-.496-.133.373 5.458-1.423 10.999-.813 16.377.018.154.507.203.497.135-.61-5.38 1.185-10.92.813-16.378z"/><path d="M32.624 66.745c-.02-.123-.51-.212-.49-.086.623 3.967 1.161 8.272 2.83 11.964.786 1.738 3.005 4.494 2.31 6.524-.63 1.83-1.637 3.333-2.617 4.988-.044.076.421.263.497.136 1.25-2.114 2.58-3.826 2.66-6.354.055-1.757-1.762-3.62-2.359-5.209-1.455-3.864-2.191-7.896-2.831-11.963zM24.582 39.78c-.09-.083-.563-.136-.45-.034 1.398 1.274 4.051 4.273 3.611 6.448-.734 3.632-4.3 3.588-6.648 1.13-2.68-2.811-4.683-6.405-7-9.524-.09-.12-.531-.137-.492-.085 2.135 2.876 3.95 6.335 6.422 8.926 1.022 1.072 2.33 2.493 3.898 2.69 1.603.2 3.762-.263 4.15-2.17.573-2.835-1.502-5.57-3.491-7.382z"/><path d="M37.255 86.717c0-.147-.497-.22-.497-.134.004 2.115 2.628 4.836.668 6.626-.084.074.367.263.467.171 2.019-1.842-.634-4.516-.638-6.663zM21.957 99.239c.249-.01-.214-.214-.321-.208-4.66.167-7.557-2.948-9.862-6.557-.082-.125-.533-.148-.494-.086 2.515 3.934 5.754 7.03 10.677 6.85z"/><path d="M38.01 93.119c.074-.046-.345-.246-.467-.17-7.507 4.805-15.724 12.027-25.17 6.63-.095-.053-.597-.105-.383.02 9.692 5.533 17.787-1.208 26.02-6.48zM.604 57.621c-.041.054.404.258.497.134 2.873-3.774 3.356-8.476 4.2-13.035 1.015-5.51 4.143-6.978 9.248-7.574.25-.03-.214-.222-.323-.208-3.793.441-7.229 1.016-8.76 5.093-1.973 5.248-1.32 10.935-4.862 15.59z"/><path d="M14.622 61.659c.08-.06-.358-.257-.467-.171-4.12 3.19-10.456-.226-13.055-3.759-.088-.12-.531-.138-.492-.085 2.73 3.71 9.601 7.437 14.014 4.015z"/><path d="M14.123 61.41c.02.124.512.212.489.087-.433-2.568-.61-7.503 2.226-8.804.063-.029-.332-.233-.465-.171-2.896 1.325-2.692 6.28-2.25 8.889z"/></g><path fill="#D8AD8C" d="M13.664 62.367c-.64-.117-.985 2.326-1.187 2.891-.405 1.132-.685 2.22-1.038 3.344-.39 1.246-.153 2.466-.46 3.694-.066.267-.301.5-.36.755-.062.28.084.618-.009.893-.204.614-.65.887-.358 1.633.197.497.559.945.74 1.484.2.598.34 1.204.518 1.783.387 1.275.05 2.329-.07 3.56-.23 2.374-.168 4.753-.047 7.188.058 1.208.195 2.418.195 3.645 0 1.255.325 2.202.373 3.415.078 2.1.693 4.917 1.91 6.698.582.853 1.46 1.327 1.876 2.277.473 1.068.128 2.276.296 3.418.076.508.069 1.23.21 1.721.145.518.503.874.662 1.338.297.855.065 2.406-1.23 2.196-.34.015-.839-.883-1.643-.802-.764.078-1.265-.18-2.003-.298a5.023 5.023 0 0 1-1.503-.497c-.53-.263-1-.267-1.542-.484-.859-.337-1.334-1.986-1.563-2.872-.302-1.16-.502-2.3-.443-3.565.059-1.248.654-2.365.52-3.636-.25-2.356-.852-4.192-1.416-6.46-.277-1.101-.783-2.436-1.009-3.57-.245-1.234-.732-2.459-1.172-3.665-.203-.555-.23-1.116-.462-1.67-.226-.535-.269-1.057-.45-1.629a88.472 88.472 0 0 1-.979-3.418c-.584-2.147-1.238-4.84-.391-7.063.482-1.271.375-2.201.315-3.528a11.47 11.47 0 0 1 .575-4.051c.403-1.188.33-2.2.47-3.384.077-.684.064-1.065.336-1.674.256-.574.397-.915.416-1.513.693.218 1.337 1.028 2.06 1.346.758.335 1.654.617 2.446.802.776.18 1.78.11 2.587.07.409-.02.754-.071 1.13-.147.243-.048.495-.09.744-.15.157-.037.783-.1.516-.148"/><g fill="#010101"><path d="M13.627 62.342c.045-.147-.453-.286-.497-.134-1.269 4.279-2.36 8.561-3.15 12.957-.031.161.471.278.497.134.789-4.396 1.877-8.679 3.15-12.957zM1.653 73.2c-.012.17.488.268.495.135.296-4.294.883-8.503 1.658-12.734.032-.161-.471-.28-.495-.135-.78 4.232-1.362 8.442-1.658 12.734z"/><path d="M14.5 104.31c.09.111.584.165.461.007-3.434-4.362-3.806-11.813-3.438-17.203.143-2.107.503-4.292.382-6.405-.156-2.74-1.226-4.885-2.225-7.403-.059-.149-.55-.208-.495-.072 1.488 3.76 2.433 6.353 2.08 10.559a51.58 51.58 0 0 0-.074 7.7c.29 4.58.363 9.075 3.308 12.817zm-7.295-1.756c.03.15.528.236.495.072-.996-5.089-2.377-9.883-3.822-14.86-.706-2.43-1.796-4.876-2.213-7.377-.429-2.548.161-4.736.458-7.22.02-.166-.479-.273-.497-.133-.308 2.569-1.108 4.676-.456 7.28.621 2.488 1.445 4.93 2.213 7.376 1.552 4.948 2.828 9.779 3.822 14.862zm8.168 4.641c-.074-.143-.556-.187-.498-.07.592 1.135.967 2.326 1.273 3.568.161.656.777 2.056.517 2.74-.181.478-.628.667-1.1.791-.436.111-1-1.314-1.128-1.594-.494-1.084-.882-2.208-1.36-3.3-.061-.146-.55-.202-.495-.07.777 1.774 1.299 3.656 2.55 5.173.095.113.294.15.43.115 1.112-.288 1.842-.67 1.544-1.91-.445-1.857-.843-3.736-1.733-5.443z"/><path d="M14.832 113.693c.334 0-.037-.253-.202-.253h-1.978c-.337 0 .037.253.202.253h1.978z"/><path d="M12.522 113.483c.083.119.578.179.46.01-.707-1.015-1.077-2.155-1.524-3.292-.06-.148-.55-.208-.495-.07.457 1.16.84 2.318 1.559 3.352z"/><path d="M12.459 113.298c.334.004-.037-.251-.2-.253a7.067 7.067 0 0 1-1.77-.217c-.296-.08-.355.133-.058.213a8.14 8.14 0 0 0 2.028.257z"/><path d="M10.386 113.008c.09.113.584.17.46.01-.687-.893-.863-1.982-1.089-3.055-.031-.15-.53-.235-.495-.072.232 1.1.423 2.206 1.124 3.117z"/><path d="M10.323 112.585c.335 0-.037-.25-.202-.25-.432-.002-1.002.057-1.359-.244-.453-.385-.615-1.014-.745-1.575-.034-.15-.533-.23-.495-.07.16.689.404 1.527 1.096 1.865.536.263 1.116.274 1.705.274z"/><path d="M7.52 110.446c.028.148.526.237.496.074-.23-1.226-.71-2.468-.769-3.716-.059-1.443.316-2.811.375-4.244.008-.173-.494-.267-.496-.134-.053 1.248-.45 2.5-.396 3.748.066 1.465.526 2.837.79 4.272zm7.519-6.249c-.078-.119-.572-.185-.46-.008.434.681 1.086 1.219 1.184 2.067a7.18 7.18 0 0 1-.134 2.457c-.039.156.462.284.495.134.189-.798.273-1.701.134-2.517-.155-.887-.753-1.4-1.219-2.133z"/></g><path fill="#D8AD8C" d="M32.579 63.584c.052.021-.06-.005 0 0 1.345.139 2.464-.295 3.603-.926.263-.145.754-.534.983-.718.279-.226.544-.358.817-.614.406-.379 1.031-1.017 1.202-1.566.19-.608.006-1.446.095-2.064.099-.666.345-1.263.345-1.976.002-1.41.095-2.887-.052-4.254-.152-1.409-.497-2.757-.635-4.168-.035-.359-.064-.625-.343-.857-.276-.232-.727-.313-1.04-.463-.293-.14-.515-.03-.808-.137-.417-.152-.711-.464-1.077-.767-.523-.433-.926-.95-1.406-1.428-.51-.51-1.133-.885-1.729-1.278-.692-.455-1.03-.85-1.106-1.653-.05-.537.218-1.618-.354-1.841-.317-.125-.712.047-.989-.213-.292-.276-.181-.652-.256-.99-.1-.456-.242-.506-.646-.687-.321-.142-.674-.339-.509-.73.106-.252.58-.496.776-.678.226-.21.59-.364.812-.563.486-.438.93-.848 1.52-1.12 1.423-.655 2.351.227 3.597.76 1.468.626 3.057 1.592 4.15 2.76a14.543 14.543 0 0 1 1.556 1.933c.41.614.516 1.14.728 1.85.107.362.33.724.391 1.105.056.351-.076.74-.005 1.086.062.309.305.701.43.986.15.343.265.678.39 1.031.26.747.66 1.424.957 2.148.265.649.371 1.299.685 1.967.302.64.607 1.312.851 1.985.306.844.33 1.857.514 2.742.15.716.257 1.451.527 2.16.164.429.335.82.377 1.286.029.362.291.841.344 1.192.123.81.104 1.506.286 2.297.244 1.05.23 2.24.175 3.3-.048.942-.024 1.58-.195 2.491-.146.783-.517 1.429-.543 2.213-.05 1.616-2.989 1.787-4.44 1.208-2.151-.859-2.904-1.412-4.888-2.593-1.006-.597-2.438-1.787-3.418-2.417-.492-.318-2.276-1.135-1.798-1.803"/><g fill="#010101"><path d="M42.11 43.508c.007.136.383.208.375.043-.258-5.49-5.383-8.59-10.03-10.23-.174-.063-.397.084-.152.17 4.56 1.61 9.552 4.636 9.806 10.017z"/><path d="M28.848 36.063c-.107.11.247.252.345.15.97-1.003 2.194-1.706 3.223-2.642.112-.099-.24-.246-.344-.15-1.031.935-2.254 1.638-3.224 2.642z"/><path d="M32.093 35.89c.108-.113-.248-.253-.344-.15-.56.606-2.463 2.021-2.734.549-.025-.139-.402-.199-.375-.043.349 1.901 2.704.455 3.453-.355z"/><path d="M31.638 35.768c-.254-.047-.135.19.049.225 1.199.224 2.395.569 3.508 1.07.175.078.39-.066.152-.172-1.176-.532-2.441-.888-3.709-1.123z"/><path d="M31.218 37.921c.01.137.387.207.375.043-.052-.696.05-1.506.734-1.86.164-.085-.178-.25-.296-.19-.745.386-.871 1.242-.813 2.007z"/><path d="M34.94 38.995c.174.065.395-.08.152-.17-1.157-.427-2.54-.207-3.569-.945-.126-.091-.441-.02-.235.126 1.086.78 2.447.545 3.652.99z"/><path d="M31.74 40.455c.13.07.455-.008.235-.127-.657-.352-.588-1.478-.382-2.078.046-.136-.325-.242-.374-.1-.247.718-.243 1.897.52 2.305z"/><path d="M31.025 38.958c.252-.005.011-.231-.14-.228-.883.017-.973-.982-.838-1.64.03-.146-.345-.24-.375-.1-.21 1.01.216 1.99 1.353 1.968zm.786 2.795c.08.104.458.124.35-.017-.31-.404-.48-.845-.439-1.36.011-.152-.364-.235-.375-.099-.042.558.124 1.038.464 1.476z"/><path d="M38.763 46.706c.13.08.452.007.236-.127-.444-.275-.88-.36-1.373-.516-.98-.306-1.69-.864-2.395-1.584-1.02-1.042-1.954-2.163-3.256-2.863-.13-.07-.458.008-.236.127 1.542.83 2.442 2.271 3.748 3.37 1.022.862 2.19.918 3.276 1.593z"/><path d="M42.137 66.362c.13.071.456-.007.235-.125-4.373-2.341-2.701-8.587-2.56-12.404.09-2.434-.339-4.772-.744-7.17-.023-.138-.4-.2-.375-.042.294 1.741.726 3.544.777 5.31.074 2.56-.638 5.136-.52 7.673.117 2.516.8 5.482 3.187 6.758zm.335-22.842c-.052-.123-.424-.161-.352.016 3.21 7.75 7.625 17.859 4.412 26.266-.05.132.322.241.376.1 3.25-8.507-1.185-18.53-4.436-26.383z"/><path d="M46.893 69.928c.107-.109-.246-.251-.345-.152-3.073 3.104-11.883-3.807-14.074-5.896-.097-.093-.463-.08-.302.074 2.54 2.423 5.791 4.442 9.006 5.839 1.948.846 4.017 1.85 5.715.135zM31.447 40.215c-.257-.016-.146.213.045.225 1.115.07 2.227.187 3.301.506.226.066.279-.14.056-.206-1.106-.328-2.253-.454-3.402-.525z"/></g><path d="M28.208 20.03c.32.202 1.19.061.617-.299-2.585-1.632-4.878-1.428-7.292.344-.274.204.64.602.926.392 1.905-1.4 3.617-1.784 5.749-.437zm5.338.56c-.672.063.004.602.386.568.967-.09 1.76.123 2.308.972.177.275 1.18.369.928-.022-.793-1.225-2.223-1.649-3.622-1.518z" fill="#010101"/></svg>