<svg width="144" height="152" xmlns="http://www.w3.org/2000/svg"><path fill="#96C93D" d="M35.008 103.711a8.397 8.397 0 0 1 .902 4.364c-.023.166-.28 1.876-.68 3.167-.464 1.347-1.106 2.682-1.787 4.026-1.232 2.422-2.618 4.647.38 6.546 1.554.987 3.232 1.798 4.893 2.62 4.805 2.374 12.675 5.92 14.498 11.254 1.338-1.688.48-3.924-.78-5.387-.419-.481.015-1.192.68-1.115 1.735.202 3.358.562 4.921 1.189-.544-1.393-1.504-2.74-2.783-3.541-.542-.34-.334-1.238.34-1.27 1.519-.073 2.96.234 4.421.555-2.28-3.957-9.808-7.15-13.725-8.581a.762.762 0 0 1-.425-.352c-.784-.434-1.174-1.506-.252-2.172 6.492-4.673 15.47-8.942 18.566-16.388 1.788-4.303 1.025-9.26-3.617-12.055-4.58-2.756-9.775-2.898-14.95-2.108-.338.052-.57-.088-.682-.29-8.704 2.656-10.197 17.214-10.367 19.336.167-.032.356.021.447.202z"/><path fill="#231F20" d="M48.186 116.595c4.432-2.974 10.179-6.33 14.22-10.54.752-.754 2.458-3.02 2.458-3.02 1.607-2.395 2.578-5.048 2.48-8.02-.151-4.705-2.71-8.012-6.351-10.025-4.398-2.433-10.372-2.971-15.602-1.77-.522.119-.654.62-.465.951.112.203.344.342.681.29 5.177-.79 10.375-.647 14.95 2.108 4.642 2.795 5.406 7.752 3.618 12.054-3.095 7.446-12.075 11.714-18.566 16.387-.923.666-.531 1.74.253 2.173.08.143.209.277.425.352 3.917 1.432 11.445 4.623 13.724 8.58-1.46-.32-2.903-.627-4.42-.554-.675.032-.882.93-.341 1.27 1.28.8 2.236 2.145 2.783 3.54-1.563-.624-3.186-.984-4.92-1.188-.665-.078-1.1.636-.68 1.117 1.259 1.462 2.118 3.698.78 5.386-1.823-5.334-9.695-8.88-14.499-11.254-1.66-.822-3.339-1.632-4.893-2.619-2.997-1.9-1.614-4.124-.38-6.547.681-1.342 1.324-2.678 1.787-4.026.398-1.291.657-3 .68-3.167a8.407 8.407 0 0 0-.903-4.364c-.089-.18-.279-.236-.448-.206-.188.033-.35.18-.315.398.011.072.018.14.029.21.152 1.006.096 1.924.065 2.798-.074 1.972-2.348 6.493-2.33 6.563-.719 1.491-1.41 3.045-1.777 4.865-.33 1.683.542 3.119 1.94 4.251 6.446 5.232 15.676 7.015 20.26 14.132-.021.545.661 1.082 1.214.624 2.1-1.736 2.125-4.333.94-6.525 1.512.3 2.945.773 4.333 1.496.529.278 1.126-.262 1.039-.74-.281-1.525-1.037-3.161-2.161-4.45 1.17.196 2.315.534 3.465.775.498.104 1.024-.396.9-.846-1.334-4.815-8.888-8.414-13.973-10.459z"/><path fill="#96C93D" d="M20.382 78.914c.372-6.609 2.45-12.72 5.55-18.609 3.732-7.09 8.547-13.38 10.82-21.175 2.271-7.78.828-16.386-3.445-23.183-3.525-5.607-8.873-8.858-14.589-11.67 4.892 6.006 8.253 13.56 8.642 21.278.524 10.4-4.932 20.453-9.994 29.145-5.818 9.99-12.41 19.77-13.968 31.495-1.364 10.267 2.46 21.868 12.02 26.784 0 0 3.547 1.743 7.256 1.108.99-1.276 1.232-2.805 1.232-2.805l4.417-17.336c-.003 0-6.889-2.911-7.941-15.032z"/><path fill="#231F20" d="M32.966 53.418c3.987-6.897 7.412-14.3 6.882-22.482-.834-12.787-9.69-26.025-22.93-28.569-.444-.087-.795.48-.493.774.01.056.025.11.058.165 2.843 4.755 6.364 8.965 7.884 14.427 1.547 5.565 1.364 11.327-.25 16.87-3.404 11.704-10.683 21.393-16.41 31.981C3.016 75.256-.804 85.016.61 95.067c1.203 8.536 5.491 16.554 13.314 20.555 4.639 3.174 8.749.832 8.749.832v-2.367c-3.708.634-7.255-1.108-7.255-1.108-9.561-4.916-13.385-16.517-12.021-26.784 1.557-11.726 8.15-21.506 13.968-31.494 5.061-8.692 10.518-18.745 9.994-29.145-.39-7.716-3.75-15.272-8.642-21.278 5.716 2.812 11.064 6.062 14.59 11.67 4.272 6.797 5.716 15.402 3.445 23.183-2.274 7.795-7.089 14.085-10.821 21.175-3.1 5.888-5.178 12-5.55 18.609 1.052 12.12 7.937 15.031 7.94 15.032l1.06-3.448c-6.302-2.85-5.59-16.86-5.59-16.86 1.64-7.235 5.328-13.572 9.174-20.22z"/><path fill="#96C93D" d="M93.432 73.812c-2.97 2.581-6.784 7.396-4.453 11.441a.856.856 0 0 1 .111.45c8.643 1.5 14.832 7.056 18.047 15.278 1.598-1.583 2.008-3.394.846-5.65-.17-.332.133-.742.496-.705 2.15.219 3.825.807 5.312 2.19.367-2.184-.7-4.364-1.819-6.223-.27-.45.212-.867.62-.883 1.262-.056 2.59.172 3.854.532-4.195-6.4-12.156-8.954-19.649-8.065a.538.538 0 0 1-.6-.399c-.021-.036-.054-.063-.07-.111-1.009-2.555 1.342-5.543 3.005-7.269.46-4.839-5.868-1.364-5.87-1.363.301.104.487.503.17.777z"/><path fill="#231F20" d="M92.835 73.105c-3.84 2.863-8.23 7.924-5.587 12.945.033.067.086.104.132.158a.565.565 0 0 0 .439.394c3.392.696 6.243 1.812 8.676 3.365 0 0 1.58 1.03 2.444 1.826 2.913 2.542 5.13 5.923 6.927 10.211.264.628.954.534 1.285.13.015-.01.03-.012.047-.025 2.165-1.756 2.91-3.905 2.029-6.358 1.773.32 3.142.989 4.423 2.522.278.33.797.215.948-.174.916-2.398.153-4.875-.975-7.072 1.385.148 2.774.572 4.044 1.1.577.342 1.468-.21 1.117-.97-1.316-2.833-3.464-5.116-6.056-6.827-.258-.173-2.364-1.347-2.364-1.347-3.997-1.937-8.655-2.658-12.899-2.017-.696-1.951 1.096-4.612 2.198-6.088a.306.306 0 0 0 .057-.145c.042-.289-.341-.581-.585-.331-1.663 1.724-4.014 4.714-3.006 7.27.018.046.049.073.07.11.07.238.277.437.6.4 7.492-.889 15.454 1.664 19.65 8.064-1.264-.36-2.59-.589-3.854-.532-.408.017-.89.432-.62.882 1.118 1.86 2.185 4.04 1.818 6.224-1.487-1.381-3.163-1.97-5.313-2.19-.362-.037-.664.372-.495.705 1.162 2.256.753 4.065-.845 5.65-3.215-8.223-9.407-13.782-18.048-15.279a.86.86 0 0 0-.11-.449c-2.33-4.047 1.48-8.861 4.452-11.442.317-.275.132-.673-.168-.775a.441.441 0 0 0-.431.065z"/><path fill="#96C93D" d="M132.703 25.408c-1.437-3.155-4.213-5.67-6.832-7.843-5.548-4.604-11.907-7.043-18.625-9.295-6.733-2.258-18.811-3.954-21.592 5.113-1.707 5.566-.936 12.111-.667 17.823.546 11.624 2.574 27.082-5.31 36.87a.425.425 0 0 1-.254.155c-.244.22-.589.32-.91.107C58.884 55.326 25.977 65.35 19.868 88.69c0 0-3.788 21.94 7.962 27.628a117.938 117.938 0 0 0 3.08.516h.007l.11.018c.51.078 1.032.155 1.564.229l.064.009c.557.077 1.125.152 1.704.223l.069.009c.528.065 1.067.127 1.61.186a110.01 110.01 0 0 0 3.756.344c.116.01.232.017.348.025.554.04 1.113.076 1.678.106l.132.009a108.5 108.5 0 0 0 1.845.082l.356.012c.518.017 1.04.029 1.563.038l.384.006c.62.008 1.247.011 1.876.007l.275-.004c.54-.006 1.083-.017 1.63-.032l.488-.015c.626-.02 1.256-.047 1.89-.082h.022a81.63 81.63 0 0 0 1.91-.132l.521-.044a78.34 78.34 0 0 0 1.57-.15c.134-.014.269-.027.403-.042a69.34 69.34 0 0 0 1.901-.236c.16-.021.319-.046.477-.068a68.989 68.989 0 0 0 1.52-.236c.175-.029.352-.057.527-.088.635-.11 1.27-.227 1.903-.357.104-.02.208-.045.314-.066a68.05 68.05 0 0 0 1.625-.361l.561-.136c.56-.136 1.118-.28 1.674-.433l.255-.069a55.449 55.449 0 0 0 1.867-.56l.53-.174c.494-.162.987-.33 1.477-.507.153-.056.306-.107.458-.164a53.393 53.393 0 0 0 1.822-.714c.144-.06.286-.123.431-.185.484-.206.966-.42 1.445-.64.171-.08.343-.158.513-.24a47.581 47.581 0 0 0 1.782-.89l.173-.094a45.471 45.471 0 0 0 3.547-2.107c.094-.062.19-.121.282-.183.56-.374 1.11-.765 1.657-1.167.143-.105.285-.216.429-.324a43.71 43.71 0 0 0 1.29-1.016c.132-.11.267-.216.397-.325a41.93 41.93 0 0 0 1.557-1.373c.099-.092.194-.187.291-.28.425-.4.843-.813 1.255-1.237.135-.14.272-.28.406-.422.494-.522.98-1.054 1.454-1.61 2.91-3.295 5.456-6.931 7.66-10.735 3.608-6.22 4.37-13.526 4.392-20.745.009-2.822-.093-5.632-.186-8.357-.33-9.633-1.294-19.497-3.38-28.93l-.001-.017a1.212 1.212 0 0 1-.014-.138c-.001-.024-.006-.05-.005-.073-.009-.89.877-1.765 1.813-1.128 3.37 2.294 8.987 6.894 13.052 3.189a10.368 10.368 0 0 1-1.47-1.717c-1.86-2.704-2.105-4.97-6.893-4.136-4.584.797-2.445-5.34-6.71-3.95-1.386.452-2.01-1.822-.6-2.177 1.827-.458 3.47-.676 4.865.786.532.557.51 2.21.761 2.912.64 1.791 2.578-.6 5.158-.092 2.518.499 3.466 2.676 4.738 4.766 2.648 4.348 10.28 5.775 14.832 4.63 4.57-1.15 5.868-6.36 4.185-10.055z"/><path fill="#FFED00" d="M92.549 76.843c-2.701 8.553-10.203 15.905-21.906 25.614-11.703 9.71-32.109 3.045-38.41 6.945-4.281 2.65-2.746 5.73-1.321 7.434h.006l.11.018c.51.078 1.032.155 1.564.228l.064.01c.557.077 1.125.152 1.704.223l.069.009c.528.065 1.067.127 1.61.186a110.01 110.01 0 0 0 5.781.475c.045.003.09.007.133.008.609.034 1.225.06 1.845.083l.356.012c.518.017 1.04.029 1.563.038l.384.006c.62.008 1.247.01 1.876.006.092 0 .183-.002.275-.003.54-.006 1.083-.017 1.63-.032l.488-.015c.626-.02 1.256-.047 1.89-.082h.022a81.63 81.63 0 0 0 1.91-.132l.521-.044a78.34 78.34 0 0 0 1.57-.15c.134-.014.269-.027.403-.042a69.34 69.34 0 0 0 1.901-.236l.477-.068a68.989 68.989 0 0 0 1.52-.236c.175-.03.352-.057.527-.088.635-.11 1.27-.227 1.903-.357.104-.02.208-.045.314-.067a68.05 68.05 0 0 0 1.625-.36l.561-.136a54.1 54.1 0 0 0 1.674-.434l.255-.068a55.449 55.449 0 0 0 1.867-.56l.53-.174c.494-.162.987-.33 1.477-.507.153-.056.306-.108.458-.164a53.393 53.393 0 0 0 1.822-.714c.144-.06.286-.123.431-.185.484-.206.966-.42 1.445-.64.171-.08.343-.158.513-.24a47.581 47.581 0 0 0 1.782-.89l.173-.094a45.471 45.471 0 0 0 3.547-2.108c.094-.06.19-.12.282-.182.56-.374 1.11-.765 1.657-1.167.143-.105.285-.216.429-.324a43.71 43.71 0 0 0 1.29-1.016c.132-.11.267-.216.397-.325a41.93 41.93 0 0 0 1.557-1.373c.099-.092.194-.187.291-.28.425-.4.843-.813 1.255-1.237.135-.14.272-.28.406-.422.494-.522.98-1.054 1.454-1.61 2.91-3.295 5.456-6.931 7.66-10.735 3.608-6.22 4.37-13.526 4.392-20.745-2.354-1.438-7.905.282-10.01 6.947z"/><path fill="#231F20" d="M113.23 8.84c-7.076-2.42-17.296-6.97-24.491-2.406-5.026 3.188-5.799 8.06-5.965 13.68-.243 8.19.37 16.374.294 24.565-.069 7.445-.209 15.488-3.918 22.15-9.418-7.529-23.466-7.828-34.633-4.628-7.416 2.124-14.171 5.91-19.225 11.284-2.806 3.19-5.693 8.4-6.16 9.258a34.2 34.2 0 0 0-.987 2.47c-.318.9-.6 1.82-.84 2.77-.017.138-.024.265-.04.4-1.637 15.191 1.837 22.952 5.39 26.878v.001c2.7 2.984 5.434 3.759 6.003 3.891l.116.022c47.123 9.281 64.611-17.248 64.611-17.248a69.39 69.39 0 0 0 1.571-1.941l.084-.106a53.375 53.375 0 0 0 1.51-2.037c.01.003.018.008.028.01.262-.363.52-.725.763-1.08-.02-.008-.035-.016-.054-.023a64.9 64.9 0 0 0 2.645-4.248c.013-.023.024-.048.037-.072a41.6 41.6 0 0 0 2.06-4.459c.167-.444.326-.89.475-1.337l.011.003c.122-.355.229-.684.315-.962h-.017c2.205-7.34 2.104-15.268 1.783-23.003-.385-9.27-1.152-18.775-2.982-27.926 4.244 2.57 9.998 4.902 13.391.612l.001.001c5.413 3.435 16.104 5.66 19.794-1.624 6.139-12.104-12.728-21.871-21.57-24.895zm15.29 26.623c-4.553 1.145-12.183-.281-14.832-4.63-1.273-2.09-2.22-4.267-4.739-4.766-2.579-.509-4.518 1.883-5.157.092-.25-.702-.229-2.355-.76-2.912-1.397-1.462-3.04-1.244-4.867-.786-1.408.355-.786 2.63.6 2.177 4.266-1.39 2.127 4.746 6.71 3.95 4.789-.833 5.035 1.432 6.894 4.136.44.64.926 1.21 1.47 1.717-4.065 3.705-9.682-.895-13.052-3.189-.936-.637-1.821.239-1.813 1.128-.001.023.003.049.004.073.003.046.007.093.015.138.002.005 0 .012.002.017 2.084 9.433 3.05 19.297 3.379 28.93.332 9.695.811 20.45-4.206 29.102-2.205 3.804-4.75 7.44-7.66 10.736-.474.555-.96 1.087-1.454 1.609-.134.142-.271.281-.406.422-.412.424-.83.836-1.255 1.238l-.29.279c-.511.473-1.031.93-1.558 1.373-.132.11-.265.216-.397.325-.426.348-.855.687-1.29 1.016-.143.108-.286.219-.43.324-.545.402-1.097.793-1.656 1.167l-.282.183a45.864 45.864 0 0 1-3.548 2.107c-.057.03-.115.064-.173.095-.587.311-1.182.605-1.781.889-.17.082-.342.16-.513.24-.48.22-.96.434-1.445.64-.144.062-.286.126-.431.185a54.9 54.9 0 0 1-1.822.714c-.153.056-.306.108-.458.164-.49.176-.983.346-1.477.507-.177.058-.353.117-.53.173-.62.197-1.243.386-1.867.561l-.255.069a60.892 60.892 0 0 1-2.236.569 65.41 65.41 0 0 1-1.624.36c-.105.022-.208.046-.314.067a66.66 66.66 0 0 1-1.903.357l-.527.088a67.36 67.36 0 0 1-1.52.236c-.16.022-.319.047-.477.068a69.34 69.34 0 0 1-1.901.236l-.403.042a78.34 78.34 0 0 1-1.57.15l-.522.044c-.638.05-1.276.095-1.91.131l-.022.001a89.95 89.95 0 0 1-1.89.082c-.162.006-.325.01-.487.015a99.52 99.52 0 0 1-1.63.032c-.092 0-.184.003-.275.004a92.87 92.87 0 0 1-1.877-.007c-.128 0-.254-.004-.383-.006a98.715 98.715 0 0 1-1.563-.038c-.119-.004-.238-.007-.356-.012a108.5 108.5 0 0 1-1.845-.082c-.045-.002-.09-.006-.132-.009a96.914 96.914 0 0 1-2.026-.13c-1.199-.09-2.371-.197-3.51-.319l-.246-.026c-.543-.06-1.082-.121-1.61-.186l-.07-.01c-.578-.07-1.145-.145-1.703-.222l-.065-.01a111.74 111.74 0 0 1-1.563-.228l-.11-.017a123.178 123.178 0 0 1-3.085-.516h-.001l-.001-.001c-11.75-5.688-7.962-27.628-7.962-27.628 6.107-23.341 39.014-33.365 58.64-20.354.322.212.666.113.911-.107a.418.418 0 0 0 .253-.154c7.886-9.788 5.858-25.247 5.31-36.87-.268-5.713-1.039-12.258.668-17.824 2.782-9.066 14.86-7.37 21.592-5.113 6.719 2.253 13.077 4.691 18.625 9.295 2.62 2.173 5.396 4.688 6.832 7.843 1.684 3.696.387 8.905-4.182 10.056z"/><path fill="#96C93D" d="M77.738 85.088c-3.743 3.27-8.367 9.58-4.69 15.557.14.232.193.446.207.645 11.987 3.163 21.117 11.734 26.51 23.696 1.989-2.032 2.327-4.531.466-7.847-.272-.49.093-1.03.592-.933 2.962.57 5.322 1.602 7.521 3.728.237-3.027-1.486-6.226-3.24-8.979-.424-.666.183-1.192.74-1.167 1.715.075 3.556.559 5.326 1.218-6.508-9.516-17.691-14.08-27.817-13.74-.434.016-.744-.292-.869-.635-.033-.054-.08-.097-.11-.166-1.688-3.718 1.159-7.636 3.22-9.862.04-6.753-8.18-2.635-8.182-2.632.424.187.725.77.326 1.117z"/><path fill="#231F20" d="M76.836 84.02c-4.895 3.561-10.275 10.149-6.054 17.536.053.098.129.157.198.239.1.263.318.512.648.608 4.717 1.393 8.748 3.31 12.26 5.792 0 0 2.283 1.641 3.56 2.868 4.288 3.932 7.726 8.959 10.704 15.21.436.916 1.37.869 1.77.341.02-.014.041-.014.062-.032 2.742-2.206 3.497-5.139 1.996-8.7 2.46.667 4.412 1.774 6.35 4.088.418.499 1.113.4 1.271-.13.959-3.263-.383-6.842-2.193-10.073 1.91.379 3.86 1.145 5.658 2.041.83.552 1.979-.118 1.406-1.23-2.14-4.144-5.352-7.618-9.101-10.342-.373-.275-3.393-2.183-3.393-2.183-5.696-3.213-12.144-4.793-17.863-4.409-1.188-2.831.936-6.357 2.262-8.298a.39.39 0 0 0 .06-.198c.022-.401-.537-.858-.84-.538-2.06 2.224-4.909 6.144-3.22 9.863.03.068.075.11.108.166.125.342.431.648.87.635 10.124-.338 21.31 4.223 27.818 13.74-1.77-.66-3.61-1.143-5.328-1.217-.556-.026-1.164.5-.74 1.166 1.754 2.753 3.475 5.95 3.24 8.979-2.197-2.124-4.558-3.158-7.522-3.727-.5-.098-.862.442-.59.931 1.861 3.317 1.523 5.811-.467 7.847-5.392-11.96-14.526-20.536-26.51-23.695a1.432 1.432 0 0 0-.206-.647c-3.674-5.978.947-12.286 4.689-15.558.399-.347.099-.93-.322-1.11-.189-.087-.396-.096-.581.037z"/><path fill="#96C93D" d="M12.523 107.053c.838 1.674 1.107 3.297 1.01 4.888-.026.187-.316 2.102-.761 3.547-.52 1.51-1.239 3.007-2.003 4.51-1.38 2.715-2.933 5.206.426 7.335 1.74 1.105 3.62 2.013 5.481 2.934 5.383 2.66 14.198 6.633 16.242 12.607 1.5-1.891.537-4.396-.875-6.034-.469-.54.017-1.336.763-1.25 1.943.226 3.76.63 5.512 1.332-.61-1.56-1.684-3.069-3.117-3.966-.608-.38-.375-1.386.38-1.422 1.702-.082 3.316.261 4.953.621-2.554-4.433-10.987-8.008-15.375-9.613a.854.854 0 0 1-.476-.394c-.879-.487-1.314-1.687-.282-2.434 7.272-5.235 17.33-10.016 20.799-18.359 2.003-4.82 1.147-10.372-4.052-13.503-5.13-3.09-10.95-3.247-16.748-2.362-.377.058-.637-.098-.764-.325-9.75 2.976-11.422 19.284-11.612 21.662.185-.037.398.024.5.226z"/><path fill="#231F20" d="M27.286 121.487c4.965-3.331 11.403-7.092 15.93-11.808.842-.845 2.753-3.382 2.753-3.382 1.802-2.682 2.89-5.655 2.78-8.985-.17-5.27-3.036-8.976-7.115-11.23-4.927-2.725-11.62-3.329-17.478-1.983-.584.133-.732.694-.52 1.066.126.226.385.382.763.323 5.799-.882 11.623-.723 16.749 2.363 5.198 3.132 6.055 8.683 4.05 13.502-3.467 8.343-13.526 13.123-20.798 18.36-1.033.745-.595 1.947.283 2.433.09.161.235.31.476.395 4.387 1.603 12.82 5.179 15.375 9.612-1.636-.359-3.252-.703-4.953-.62-.756.036-.989 1.042-.381 1.422 1.435.896 2.505 2.403 3.117 3.965-1.752-.698-3.57-1.103-5.512-1.331-.745-.088-1.23.712-.763 1.251 1.411 1.638 2.374 4.144.876 6.034-2.044-5.974-10.86-9.95-16.243-12.607-1.86-.92-3.74-1.829-5.481-2.934-3.357-2.129-1.808-4.62-.426-7.335.763-1.503 1.483-3 2.003-4.51.446-1.445.735-3.36.762-3.547a9.43 9.43 0 0 0-1.011-4.888c-.1-.203-.314-.265-.504-.23-.21.037-.391.202-.353.446.014.08.02.157.033.236.17 1.127.108 2.155.074 3.134-.083 2.21-2.63 7.273-2.61 7.353-.806 1.67-1.58 3.41-1.99 5.45-.371 1.886.606 3.494 2.173 4.762 7.221 5.86 17.562 7.858 22.696 15.832-.024.61.74 1.211 1.36.698 2.352-1.944 2.382-4.855 1.054-7.309 1.693.335 3.299.865 4.852 1.676.593.31 1.262-.294 1.164-.83-.314-1.708-1.16-3.541-2.42-4.985 1.31.219 2.594.599 3.882.868.558.118 1.147-.444 1.008-.947-1.495-5.397-9.958-9.43-15.655-11.72z"/><path fill="#FFF" d="M114.064 5.888c-1.939-.668-4.167.691-4.837 2.638-.67 1.944.248 4.395 2.19 5.063 1.938.667 4.17-.702 4.84-2.646.668-1.947-.253-4.387-2.193-5.055z"/><path fill="#231F20" d="M118.018 11.547a5.934 5.934 0 0 0 .042-3.753c-.531-1.649-1.775-3.025-3.507-3.623-2.965-1.019-6.22.63-7.27 3.683-1.05 3.055.5 6.356 3.469 7.375 2 .688 4.13.158 5.628-1.195a5.958 5.958 0 0 0 1.638-2.487zm-1.761-.604c-.67 1.944-2.902 3.314-4.84 2.646-1.941-.668-2.86-3.119-2.19-5.063.67-1.947 2.898-3.306 4.837-2.638 1.94.668 2.86 3.108 2.193 5.055z"/><path fill="#231F20" d="M110.474 12.872c2.235 0 2.235-3.466 0-3.466-2.236.001-2.236 3.466 0 3.466z"/><path fill="#FFF" d="M105.372 3.147c-2.166-.747-4.656.772-5.405 2.946-.747 2.173.279 4.913 2.447 5.66 2.167.745 4.661-.785 5.408-2.958.747-2.173-.281-4.902-2.45-5.648z"/><path fill="#231F20" d="M109.791 9.472a6.626 6.626 0 0 0 .046-4.194c-.592-1.843-1.983-3.382-3.92-4.048-3.313-1.14-6.95.702-8.125 4.114-1.172 3.413.56 7.102 3.877 8.242 2.235.769 4.616.176 6.29-1.335a6.66 6.66 0 0 0 1.832-2.78zm-1.97-.676c-.747 2.173-3.241 3.702-5.408 2.957-2.168-.746-3.194-3.486-2.447-5.659.749-2.174 3.239-3.694 5.405-2.946 2.17.745 3.198 3.474 2.45 5.648z"/><path fill="#231F20" d="M101.36 10.952c2.499 0 2.499-3.874 0-3.874-2.498.001-2.498 3.874 0 3.874z"/></svg>