<svg width="101" height="182" xmlns="http://www.w3.org/2000/svg"><path fill="#96C93D" d="M57.593 116.749c-1.014-.43-4.59-2.243-4.59-6.439 0-4.174 3.507-6.147 4.216-6.504 1.15-.09 7.503-.905 10.867-7.98l.054-.116.015-.127c.538-4.58 2.479-17.027 4.959-19.587 3.939-4.061 7.152-6.413 11.918-6.413.312 0 .632.01.959.031l-.364.21c-2.71 1.551-7.244 4.149-8.027 8.412-.476 2.59-.446 6.165-.416 9.949.046 5.522.097 11.78-1.478 15.832-2.366 6.086-15.985 11.862-18.113 12.732z"/><path d="M82.955 70.526c-2.54 1.646-5.477 4.1-6.114 7.57-.49 2.663-.46 6.273-.429 10.095.045 5.453.095 11.632-1.427 15.546-1.932 4.97-12.683 10.25-17.372 12.172-1.143-.549-3.836-2.204-3.836-5.598 0-3.524 2.854-5.311 3.667-5.748 1.603-.164 7.943-1.257 11.341-8.406l.11-.23.03-.253c.735-6.267 2.674-17.003 4.745-19.138 3.258-3.36 5.866-5.43 9.285-6.01m2.078-1.717c-5.261 0-8.676 2.732-12.474 6.648-3.208 3.309-5.172 20.036-5.172 20.036-3.468 7.297-10.366 7.55-10.366 7.55s-4.792 2.143-4.792 7.268c0 5.417 5.369 7.271 5.369 7.271s16.121-6.32 18.83-13.285c2.708-6.964.773-19.602 1.934-25.921 1.16-6.32 11.943-9.012 8.899-9.415-.78-.103-1.52-.152-2.228-.152l-2.078 1.717z"/><path fill="#96C93D" d="M47.416 76.707c-2.292-3.088-4.443-5.662-6.702-8.727-1.04-1.41-3.282-4.667-3.69-6.37-.738-2.76-1.511-7.48-1.875-10.569-.546-4.628-1.008-9.284-1.059-13.947 0 0-.239-8.417-5.47-7.514-5.232.903-3.974 7.395-3.974 7.395.93 8.16 2.242 16.72-.158 24.788-.641 2.155-.838 2.084-2.755 6.271-1.942 3.603-4.048 7.248-6.085 10.96 0 0-5.737 7.54-9.339 23.83a39.632 39.632 0 0 0-.497 4.767c-.381 9.376 4.65 20.074 12.434 23.998 2.243 1.13 23.791 9.133 36.528-9.07 2.342-3.641 3.8-7.9 4.034-12.627.206-4.17-.238-8.23-1.172-12.159-3.394-13.16-10.22-21.026-10.22-21.026z"/><path fill="#FFED00" d="M48.31 105.066c-.162-3.9-8.414-27.798-10.638-36.837-2.224-9.038-6.388-8.423-6.388-8.423h-.06s-4.166-.616-6.389 8.423c-2.223 9.04-10.476 32.937-10.638 36.837-.16 3.88-1.906 21.24 16.91 22.354v.023c.05-.003.097-.01.147-.012.05.002.096.01.146.012v-.023c18.817-1.114 17.071-18.475 16.91-22.354z"/><path fill="#231F20" d="M47.987 74.033c.002-.014.01-.02.013-.034a80.492 80.492 0 0 0-3.908-4.743c-3.397-4.085-5.307-7.404-5.518-8.311-1.676-8.247-2.885-16.517-3.248-24.955 0 0-.525-8.448-6.706-7.507-6.181.941-5.318 7.423-5.256 8.034.823 7.998.673 20.095-.379 24.492-.47 1.967-2.67 5.389-3.802 7.144a152.698 152.698 0 0 0-5.04 8.243c-7.867 13.453-9.905 26.228-9.905 26.228-.45 2.986-.64 5.983-.47 8.965.515 9.046 6.237 18.428 13.97 21.744 24.819 10.64 38.007-9.102 38.007-9.102 2.472-3.557 4.148-7.625 4.638-11.974.562-4.978.185-9.862-.864-14.595 0 0-1.75-11.738-11.532-23.629zm10.82 35.857c-.234 4.728-1.691 8.986-4.033 12.627-12.737 18.203-34.284 10.2-36.528 9.07-7.783-3.923-12.815-14.621-12.434-23.998a39.69 39.69 0 0 1 .497-4.766c3.602-16.29 9.339-23.831 9.339-23.831 2.037-3.711 4.143-7.357 6.085-10.96 1.917-4.186 2.113-4.116 2.755-6.27 2.4-8.068 1.088-16.628.158-24.788 0 0-1.258-6.492 3.974-7.395 5.231-.903 5.47 7.513 5.47 7.513.051 4.664.513 9.32 1.059 13.948.364 3.089 1.138 7.809 1.875 10.568.408 1.704 2.65 4.96 3.69 6.37 2.259 3.065 4.41 5.64 6.702 8.728 0 0 6.826 7.865 10.22 21.024.934 3.93 1.377 7.99 1.172 12.16z"/><path fill="#96C93D" d="M44.948 132.512c13.245 11.222 24.546 24.496 37.685 35.78.097-1.257.023-2.461-.382-3.756-.188-.601.338-1.389 1.006-1.32 2.563.259 4.944.747 7.303 1.565-.725-1.606-1.602-3.027-3.111-4.224-.588-.465-.254-1.55.445-1.691 1.47-.296 2.883-.847 4.24-1.504-4.202-1.667-8.67-2.483-13.162-3.007-1.702-.197-4.98.225-6.337-1.017-2.002-1.831-3.529-4.445-5.086-6.637-4.886-6.884-9.858-13.823-14.202-21.064-.255-.424-.73-1.884-.489-2.173-11.413-3.143-10.875 7.695-10.875 7.695v.016c.302-.371 1.292-.08 2.965 1.337z"/><path fill="#231F20" d="M82.674 170.962c.513.47 1.516.336 1.668-.44.347-1.762.53-3.379.261-5.059 2.532.34 4.862.941 7.266 2 .71.312 1.853-.212 1.49-1.144-.85-2.208-1.692-4.26-3.204-5.955 1.68-.551 3.304-1.362 4.822-2.205.628-.349.7-1.422.006-1.745-6.34-2.964-13.176-3.904-20.066-4.715-2.532-.299-4.953-5.341-6.356-7.309-4.428-6.217-8.93-12.478-12.933-18.989a11.22 11.22 0 0 0-1.05-1.382c-1.307-1.42-1.725-.564-1.721-.554-.242.29.233 1.75.488 2.173 4.343 7.24 9.316 14.18 14.202 21.064 1.558 2.193 3.084 4.806 5.087 6.638 1.357 1.242 4.635.82 6.336 1.016 4.493.524 8.96 1.34 13.162 3.007-1.357.658-2.768 1.209-4.24 1.504-.699.142-1.033 1.226-.445 1.691 1.51 1.198 2.387 2.619 3.111 4.224-2.36-.818-4.74-1.306-7.302-1.564-.668-.07-1.194.719-1.006 1.32.404 1.294.479 2.498.382 3.756-13.139-11.284-24.44-24.559-37.686-35.78-1.672-1.418-2.663-1.708-2.965-1.337-.146.18-.136.511.05.958.256.613.825 1.426 1.72 2.31.042-.02 25.836 24.495 38.923 36.517z"/><path fill="#96C93D" d="M19.632 131.686c-.92 8.28.286 14.738 6.142 21.009.254.27.32.581.27.865a.689.689 0 0 1-.08.272 1.19 1.19 0 0 1-.203.293c-.007.008-.016.015-.024.022-.08.084-.17.153-.27.21 0 0-2.106 1.316-3.679 2.397-.257.208-.508.423-.755.643-.035.03-.068.065-.104.096a18.112 18.112 0 0 0-1.262 1.249l-.041.043a16.98 16.98 0 0 0-.645.751c-.98 1.213-2.014 2.625-2.433 4.157-.07.253-.116.507-.155.762.795-.585 1.716-.96 2.821-1.145.509-.088.998.21 1.009.765.022 1.573.216 3.03.632 4.466a8.725 8.725 0 0 1 3.757-4.124c.461-.258 1.101-.034 1.232.5.413 1.691.738 3.67 1.907 4.985-.191-5.572 4.405-12.74 8.599-15.805-5.628-4.032-7.9-12.98-4.268-18.992.286-.58.818-1.095.981-1.307.016-.02.042-.035.062-.052-6.75-10.845-14-2.854-14-2.854.313.117.554.385.507.794z"/><path fill="#231F20" d="M37.75 152.516c-5.407-3.09-7.49-10.9-4.643-16.382-.019-.06 1.298-2.014.682-2.431a.552.552 0 0 0-.664.042c-.02.017-.046.032-.062.052-.163.212-.695.727-.981 1.307-3.633 6.013-1.36 14.96 4.268 18.992-4.194 3.066-8.79 10.233-8.6 15.805-1.168-1.315-1.493-3.294-1.906-4.985-.13-.534-.77-.757-1.232-.5a8.725 8.725 0 0 0-3.757 4.124c-.416-1.435-.61-2.892-.632-4.466-.011-.556-.5-.853-1.009-.765-1.105.186-2.026.561-2.82 1.145.038-.255.084-.509.154-.762.42-1.531 1.453-2.944 2.433-4.157.208-.256.423-.506.645-.75.013-.015.028-.028.041-.044a18.112 18.112 0 0 1 1.262-1.249c.035-.031.068-.065.104-.096.246-.22.498-.435.755-.643a123.715 123.715 0 0 1 3.679-2.397c.1-.056.19-.125.27-.21.009-.008.017-.014.024-.022.08-.088.152-.184.202-.292a.682.682 0 0 0 .082-.273.98.98 0 0 0-.27-.865c-5.857-6.271-7.062-12.73-6.143-21.009.047-.409-.194-.677-.507-.794-.797-.704-1.447 1.317-1.436 1.323-1.766 7.932.662 15.21 5.93 21.2-2.46 1.511-4.758 3.397-6.496 5.696-1.51 2.003-3.692 5.45-2.339 8.001.221.417.755.401 1.044.113a.782.782 0 0 0 .418-.328c.65-.98 1.429-1.515 2.422-1.827.147 2.229.648 4.289 1.634 6.355.355.746 1.383.307 1.433-.389.123-1.769 1.136-3.692 2.692-4.673.51 2.404 1.177 4.832 3.514 6.06a.9.9 0 0 0 1.072-.142.564.564 0 0 0 .39-.472c.454-3.153.73-5.797 2.065-8.774 1.054-2.352 2.498-4.472 4.115-6.46a25.102 25.102 0 0 1 2.263-2.317l-.002-.003c.489-.437.643-1.316-.094-1.738z"/><path fill="#96C93D" d="M37.638 30.627c3.213-5.491.327-11.164-2.44-16.38-1.668-3.69-3.308-8.77-3.308-8.77-.743-1.454-1.846-2.69-3.7-2.63-1.896.057-3.895.92-4.73 2.762-1.61 3.55-2.425 7.65-3.812 11.333-2.271 6.033-2.488 14.143 4.483 17.118 4.47 1.906 10.85 1.11 13.507-3.433z"/><path fill="#231F20" d="M33.65 36.051a7.65 7.65 0 0 0 1.375-.61c.91-.5 1.698-1.098 1.953-1.32 7.172-6.208 2.94-14.838-.763-21.907L33.53 5.138a5.232 5.232 0 0 0-.442-1.164v-.002c-.914-1.716-2.741-2.767-4.9-3.044-3.78-.483-6.236 2.746-7.269 5.892-.94 2.857-1.376 5.804-2.421 8.657-.964 2.643-1.764 5.308-2.072 8.109-.408 3.757 1.22 7.57 3.923 10.11a11.122 11.122 0 0 0 2.925 1.952l.004.037c.093.028.184.06.277.087.46.142.915.294 1.358.48 2.825.873 5.995.824 8.738-.2zm-14.003-19.11c1.387-3.684 2.202-7.783 3.812-11.333.835-1.843 2.834-2.705 4.73-2.763 1.854-.06 2.957 1.177 3.7 2.631 0 0 1.64 5.08 3.308 8.769 2.768 5.217 5.653 10.89 2.44 16.38-2.657 4.543-9.037 5.339-13.508 3.433-6.97-2.974-6.753-11.085-4.482-17.117z"/><path fill="#231F20" d="M20.274 26.491c2.274 3.33 4.455 6.293 8.759 6.576 4.24.28 6.781-3.029 8.497-6.42.521-1.03-1.028-1.94-1.55-.906-1.552 3.062-3.066 5.934-6.949 6.037-3.592.095-5.8-3.404-7.567-5.98-.499-.73-1.693-.042-1.19.693zM32.413 8.15c-2.148.001-2.148 3.33 0 3.33 2.145 0 2.145-3.33 0-3.33z"/><path fill="#FFF" d="M35.654 9.292c-.274-1.845-2.036-3.42-3.873-3.146-1.838.275-3.06 2.298-2.785 4.143.276 1.84 2.037 3.426 3.875 3.151 1.838-.273 3.058-2.305 2.783-4.148zm-3.241 2.188c-2.148 0-2.148-3.33 0-3.331 2.145 0 2.145 3.331 0 3.331z"/><path fill="#231F20" d="M37.499 9.014c-.434-2.892-3.06-4.897-5.87-4.476-1.752.262-3.16 1.406-3.867 2.932a5.376 5.376 0 0 0-.09 4.308c.891 2.197 3.14 3.59 5.523 3.234 2.808-.42 4.737-3.106 4.304-5.998zm-4.628 4.427c-1.838.274-3.599-1.312-3.875-3.151-.275-1.846.947-3.868 2.785-4.143 1.837-.274 3.6 1.302 3.873 3.146.275 1.842-.945 3.874-2.783 4.148zM23.428 8.15c-2.148.001-2.148 3.33 0 3.33 2.146 0 2.146-3.33 0-3.33z"/><path fill="#FFF" d="M26.67 9.292c-.274-1.845-2.037-3.42-3.874-3.146-1.838.275-3.06 2.298-2.784 4.143.276 1.84 2.037 3.426 3.874 3.151 1.838-.273 3.058-2.305 2.784-4.148zm-3.242 2.188c-2.148 0-2.148-3.33 0-3.331 2.146 0 2.146 3.331 0 3.331z"/><path fill="#231F20" d="M28.514 9.014c-.434-2.892-3.06-4.897-5.869-4.476-1.752.262-3.16 1.406-3.868 2.932a5.376 5.376 0 0 0-.09 4.308c.892 2.197 3.14 3.59 5.524 3.234 2.808-.42 4.737-3.106 4.303-5.998zm-4.628 4.427c-1.837.274-3.598-1.312-3.874-3.151-.275-1.846.946-3.868 2.784-4.143 1.837-.274 3.6 1.302 3.874 3.146.274 1.842-.946 3.874-2.784 4.148z"/><path fill="#96C93D" d="M39.462 66.11c.174-.238.28-.225.57-.2.132.012.297.025.531.019 7.76.776 12.008 7.85 7.344 14.73-2.502 3.692-4.442 7.417-3.091 12.076 1.254 4.325 4.485 6.81 8.685 6.762-.82-1.143-.845-2.627-.609-4.347.082-.59.825-.732 1.262-.514 2.656 1.315 7.358.719 8.363-2.578-2.083-.088-5.724-.475-5.723-2.562 0-.396.26-.681.616-.809 1.662-.596 3.33-1.391 4.357-2.802-2.017.372-3.991-.083-5.556-1.757-1.842-1.973-1.003-4.705-.15-6.857 1.373-3.46 3.565-8.525 1.228-12.036-3.914-5.885-12.119-4.645-17.827-2.247-.33.139-.681.234-.967.426a.914.914 0 0 1-.944.042c-.18.497-.249 1.24.363 2.071.64.87 1.196 1.121 1.55 1.091-.08-.17-.114-.357-.002-.508z"/><path fill="#231F20" d="M63.525 90.395c-1.206-.016-2.295-.093-3.492-.34-2.17-.447-.896-.184.65-1.032 1.72-.945 2.898-2.396 3.445-4.247.227-.765-.596-1.208-1.217-.937-2.978 1.3-7.06-.157-6.038-4.096.355-1.362 1.01-2.676 1.5-3.991 1.167-3.112 1.887-6.405 1.015-9.678-2.267-8.522-13.439-6.958-19.928-4.379-.359.143-1.039.417-1.041.408-1.317.525-1.28 1.114-.87 1.354.25.146.638.163.944-.042.286-.193.636-.288.967-.427 5.709-2.398 13.914-3.638 17.827 2.247 2.338 3.512.146 8.576-1.227 12.037-.854 2.151-1.693 4.884.15 6.857 1.563 1.674 3.537 2.13 5.555 1.757-1.027 1.41-2.694 2.205-4.357 2.802-.355.128-.615.413-.616.808-.001 2.087 3.64 2.474 5.723 2.562-1.005 3.298-5.707 3.893-8.362 2.579-.437-.218-1.18-.077-1.262.513-.236 1.721-.21 3.205.609 4.348-4.2.048-7.432-2.437-8.686-6.762-1.35-4.66.589-8.385 3.091-12.076 4.665-6.88.416-13.954-7.344-14.73a4.21 4.21 0 0 1-.53-.02c-.29-.024-.397-.037-.57.2-.112.152-.079.34 0 .51.108.232.303.431.354.458 1.16.613 2.822 1.004 2.809.989.373.107 1.557.558 1.602.626 1.84.906 3.3 2.403 3.964 4.621.87 2.904-1.613 6.215-2.177 7.046-2.303 3.395-3.475 6.282-3.237 10.471.405 7.096 6.29 11.434 13.147 10.142.714-.134.87-1.272.21-1.581-1.534-.716-1.76-1.725-1.694-2.822a8.961 8.961 0 0 0 2.436.392c.697-.003 2.07-.142 2.06-.182 2.745-.566 5.114-2.416 5.433-5.538.051-.466-.418-.841-.843-.847z"/><path fill="#96C93D" d="M22.636 66.212c-.203-.214-.307-.187-.591-.125a4.33 4.33 0 0 1-.525.085c-7.596 1.762-10.906 9.322-5.4 15.549 2.954 3.34 5.354 6.788 4.61 11.582-.692 4.45-3.58 7.327-7.75 7.817.665-1.238.501-2.714.047-4.389-.156-.575-.911-.621-1.317-.349-2.466 1.645-7.204 1.654-8.623-1.487 2.055-.353 5.616-1.203 5.349-3.273-.051-.391-.346-.642-.715-.723-1.724-.379-3.48-.955-4.679-2.221 2.049.11 3.948-.593 5.285-2.455 1.576-2.192.394-4.795-.728-6.82-1.804-3.256-4.625-7.998-2.755-11.78 3.129-6.336 11.425-6.156 17.394-4.507.345.096.704.145 1.013.3.33.164.712.098.941-.079.243.47.406 1.197-.095 2.1-.523.945-1.042 1.265-1.398 1.28.058-.179.067-.369-.063-.505z"/><path fill="#231F20" d="M1.875 93.373c1.193-.17 2.264-.385 3.42-.783 2.094-.721.865-.296-.776-.94-1.826-.717-3.181-2.006-3.96-3.771-.323-.73.436-1.276 1.087-1.086 3.12.907 6.982-1.06 5.465-4.835-.526-1.305-1.344-2.525-1.999-3.766-1.555-2.936-2.69-6.111-2.245-9.468 1.16-8.743 12.44-8.619 19.205-6.89.374.096 1.084.28 1.085.271 1.373.353 1.411.942 1.034 1.232a.916.916 0 0 1-.94.078c-.309-.154-.668-.203-1.014-.299-5.968-1.648-14.265-1.83-17.394 4.507-1.87 3.782.95 8.524 2.755 11.78 1.122 2.026 2.304 4.628.728 6.82-1.337 1.862-3.236 2.565-5.284 2.455 1.199 1.266 2.954 1.842 4.679 2.221.368.08.662.332.714.723.268 2.07-3.293 2.92-5.349 3.273 1.419 3.14 6.158 3.132 8.623 1.487.406-.272 1.161-.226 1.317.35.454 1.674.619 3.15-.048 4.388 4.172-.49 7.06-3.367 7.75-7.817.745-4.793-1.655-8.24-4.609-11.582-5.505-6.227-2.196-13.787 5.4-15.549.233-.024.395-.058.525-.085.284-.062.388-.089.591.125.13.136.121.326.064.505-.078.244-.245.466-.291.5-1.073.755-2.672 1.356-2.66 1.339-.356.154-1.473.753-1.509.826-1.708 1.134-2.966 2.805-3.34 5.09-.492 2.99 2.394 5.957 3.06 6.71 2.717 3.071 4.248 5.785 4.548 9.971.504 7.088-4.777 12.145-11.742 11.74-.726-.041-1.027-1.15-.411-1.541 1.429-.907 1.525-1.938 1.32-3.017a8.926 8.926 0 0 1-2.367.701c-.692.086-2.07.124-2.065.082-2.796-.21-5.382-1.741-6.098-4.797-.107-.457.31-.887.73-.948z"/></svg>