<svg width="146" height="161" xmlns="http://www.w3.org/2000/svg"><path fill="#96C93D" d="M121.64 59.795c5.773-3.138 6.577-8.687 3.803-14.675-2.483-5.364-10.673-14.46-4.805-19.495-2.382-.29-5.298 1.646-5.472 4.052-.036.492-.606.561-.932.318l-.005.006c-.008-.006-.015-.016-.022-.022a.56.56 0 0 1-.072-.074c-1.603-1.451-2.188-3.854-1.686-5.748-2.999.957-4.328 4.59-2.97 7.746.276.647-.647 1.337-1.333.986-1.8-.916-3.321-2.512-4.36-4.404-1.242 4.782 2.68 9.984 5.894 13 2.841 2.667 5.612 5.142 6.68 9.113 1.761 6.54-4.919 10.01-9.763 6.753-.4-.268-.292-.968.122-1-4.811-1.365-5.563 1.627-5.654 3.095 7.058 3.347 13.713 4.075 20.575.35z"/><path fill="#231F20" d="M128.88 54.85c.696-1.978.599-4.126.095-6.22 0 0-.465-1.852-1.26-3.713-.007.005-.012.012-.017.017a29.99 29.99 0 0 0-.902-1.836c-2.33-4.38-10.154-12.974-3.398-16.49.997-.519.417-1.903-.487-2.125-2.91-1.808-7.182.233-8.499 3.348-1.04-1.431-1.13-2.537-.636-4.289.089-.317-.22-.704-.532-.675-3.867.38-6.548 3.678-5.863 7.441-1.352-1.016-2.574-2.266-3.097-3.88a1.15 1.15 0 0 0-.161-.315c-.004-.002-.006-.007-.009-.01-.43-.575-1.366-.756-1.743.07-2.084 4.57.316 10.987 3.67 14.494 2.392 2.498 5.703 4.663 7.44 7.76.687 1.225 1.265 2.98 1.268 4.607.33 2.28-.832 2.784-.832 2.784-.08.125-.193.233-.32.336-.215.212-.45.41-.743.568-1.18.64-2.285.667-3.398.445-1.903-1.14-2.551-.925-2.699-.84-.01.01-.027.016-.037.025-.414.032-.52.732-.122 1 4.843 3.258 11.523-.214 9.764-6.753-1.07-3.971-3.84-6.446-6.681-9.114-3.213-3.016-7.136-8.217-5.894-13 1.039 1.893 2.56 3.488 4.36 4.405.686.35 1.609-.34 1.333-.986-1.359-3.156-.029-6.79 2.97-7.746-.502 1.894.083 4.297 1.686 5.748a.56.56 0 0 0 .072.074l.021.022.006-.006c.326.243.896.174.931-.319.175-2.405 3.09-4.34 5.473-4.052-5.869 5.036 2.322 14.132 4.805 19.496 2.773 5.988 1.97 11.537-3.803 14.675-6.862 3.725-13.518 2.998-20.575-.349l-.193-.088a.585.585 0 0 0-.582.012c-.028.005-.053.026-.081.038-.002.112-.012.22-.029.33.068.185.125.375.157.569l.067.063c.17.141.304.312.418.494.343.218.7.42 1.068.617 8.638 4.645 23.356 3.666 26.988-6.632z"/><path fill="#96C93D" d="M33.049 101.938a1.252 1.252 0 0 1-.82-.133C21.713 96.307 8.054 93.588 15.953 78.92c1.69-3.136 2.103-6.41 2.236-10.008.177-4.83-2.469-7.52-5.253-10.971-2.486-3.081-2.231-6.7-.271-9.927 3.517-5.795 13.792-9.496 17.746-2.277 1.875 3.43-.88 7.02-4.19 8.141 3.222 1.362 6.591.566 8.205-3.972 2.286-6.425-3.537-11.675-8.84-13.23-11.961-3.51-24.594 8.288-20.62 20.537 1.85 5.71 5.04 9.757 4.567 16.101-.173 2.321-1.126 4.45-2.194 6.478-2.147 4.077-4.303 7.444-4.713 12.187-.697 8.003 4.264 16.183 10.997 20.105 4.82 2.808 11.25 3.076 15.602 6.546a.717.717 0 0 1 .266.549c1.065-.827 7.726-6.558 3.841-17.716a2.39 2.39 0 0 0-.284.474z"/><path fill="#231F20" d="M29.227 118.63c-4.352-3.469-10.782-3.736-15.602-6.545C6.891 108.163 1.931 99.983 2.627 91.98c.411-4.743 2.567-8.11 4.713-12.187 1.068-2.027 2.021-4.157 2.194-6.478.475-6.344-2.716-10.39-4.567-16.101-3.974-12.249 8.66-24.047 20.62-20.538 5.305 1.555 11.128 6.806 8.841 13.231-1.614 4.538-4.983 5.334-8.204 3.972 3.31-1.122 6.065-4.712 4.19-8.141-3.954-7.22-14.23-3.518-17.747 2.277-1.959 3.228-2.214 6.846.271 9.927 2.785 3.451 5.43 6.14 5.253 10.971-.133 3.599-.547 6.872-2.235 10.008-7.899 14.667 5.76 17.386 16.274 22.884.286.15.566.18.82.133a2.36 2.36 0 0 1 .286-.475c.023-.031.045-.065.069-.095.014-.15.04-.297.077-.443-.376-.769-.986-1.635-1.468-2.235a32.647 32.647 0 0 0-2.301-1.329c-7.12-3.784-16.477-6.566-12.38-16.822 2.419-6.059 4.526-9.511 2.561-15.968-1.018-3.35-5.186-5.814-6.622-8.817-1.737-3.63 1.197-7.33 4.282-9.398 2.292-1.536 6.088-3.4 8.806-1.685 5.462 3.446-.715 8.953-3.625 6.815a14.12 14.12 0 0 1-.736-.779c-.466-.532-1.072-.45-1.486-.101-.518.289-.813.892-.37 1.531.266.38.56.698.876.97 3.28 3.354 8.298 5.834 12.465 2.286 3.604-3.069 4.953-8.784 2.473-13-6.142-10.433-23.363-10.06-30.321-.77-4.157 5.55-4.731 12.484-1.71 18.7C6.518 65.655 9.32 71.764 6.194 77.59 4.175 81.356 1.51 84.777.78 89.11c-1.29 7.636 1.357 17.237 7.38 22.45 2.9 2.507 6.229 4.225 9.818 5.538 3.302 1.212 6.942 2.847 10.483 3.068.042.002.085.01.126.013.522.026.926-.506.906-.998a.717.717 0 0 0-.266-.55z"/><path fill="#96C93D" d="M60.064 111.715a8.528 8.528 0 0 1 1.46 4.21c0 .168-.022 1.898-.237 3.232-.272 1.398-.72 2.805-1.203 4.227-.876 2.566-1.929 4.954 1.245 6.446 1.647.775 3.389 1.359 5.118 1.956 4.998 1.725 13.137 4.21 15.628 9.262 1.079-1.85-.058-3.956-1.481-5.243-.471-.42-.143-1.184.513-1.195 1.718-.027 3.347.117 4.955.532-.718-1.309-1.832-2.519-3.187-3.146-.573-.266-.489-1.184.162-1.304 1.47-.27 2.914-.157 4.38-.03-2.75-3.625-10.51-5.804-14.517-6.71a.757.757 0 0 1-.462-.293c-.822-.328-1.344-1.34-.536-2.123 5.7-5.488 13.876-10.901 15.895-18.695 1.167-4.502-.238-9.32-5.134-11.484-4.828-2.133-9.91-1.592-14.845-.128-.322.096-.567-.014-.703-.198-8.124 3.776-7.632 18.416-7.513 20.543.157-.054.348-.027.462.141z"/><path fill="#231F20" d="M74.623 122.766c3.92-3.533 9.068-7.617 12.445-12.324.63-.845 1.99-3.318 1.99-3.318 1.245-2.588 1.835-5.346 1.342-8.281-.776-4.648-3.71-7.593-7.527-9.113-4.61-1.835-10.5-1.585-15.434.295a.65.65 0 0 0-.328 1.004c.138.186.381.294.704.197 4.937-1.461 10.02-2.003 14.845.128 4.896 2.164 6.303 6.981 5.135 11.484-2.02 7.794-10.198 13.206-15.895 18.695-.81.782-.286 1.795.537 2.123a.75.75 0 0 0 .46.293c4.007.906 11.768 3.083 14.518 6.71-1.465-.125-2.913-.24-4.38.03-.654.122-.734 1.04-.162 1.304 1.354.626 2.465 1.836 3.186 3.147-1.608-.414-3.236-.557-4.954-.534-.657.011-.985.776-.514 1.198 1.423 1.285 2.56 3.391 1.482 5.241-2.49-5.052-10.632-7.538-15.63-9.261-1.728-.597-3.47-1.182-5.116-1.956-3.174-1.49-2.124-3.878-1.245-6.446.483-1.42.931-2.83 1.202-4.227.214-1.333.238-3.064.238-3.233a8.535 8.535 0 0 0-1.462-4.208c-.111-.17-.304-.2-.464-.147-.18.057-.317.225-.254.436.02.07.035.135.055.205.283.978.351 1.894.439 2.767.192 1.966-1.42 6.75-1.393 6.817-.5 1.572-.967 3.205-1.082 5.058-.097 1.713.947 3.024 2.458 3.963 6.98 4.343 16.21 4.901 21.626 11.359.053.544.789.986 1.267.46 1.814-1.998 1.491-4.577.045-6.596 1.512.097 2.972.38 4.419.915.553.206 1.062-.41.913-.87a9.695 9.695 0 0 0-2.7-4.13c1.166.04 2.328.225 3.48.312.5.038.946-.527.764-.957-1.943-4.601-9.783-7.18-15.01-8.54z"/><path fill="#96C93D" d="M134.478 21.21c-1.822-2.943-4.862-5.071-7.704-6.883-6.02-3.84-12.54-5.424-19.386-6.776-6.86-1.355-18.854-1.452-20.35 7.907-.92 5.746.706 12.138 1.732 17.77 2.087 11.459 6.13 26.527-.243 37.273a.419.419 0 0 1-.226.187c-.21.25-.531.395-.873.226C66.567 60.58 35.85 74.846 33.02 98.804c0 0-.758 22.262 11.449 26.36a120.258 120.258 0 0 0 3.071.108h.006l.109.004c.507.012 1.027.018 1.553.021h.065a79.435 79.435 0 0 0 1.757-.003 96.412 96.412 0 0 0 1.594-.026l.243-.006c1.126-.03 2.281-.076 3.461-.145l.343-.022a88.38 88.38 0 0 0 1.648-.114l.13-.009a106.926 106.926 0 0 0 2.157-.196c.505-.05 1.015-.11 1.526-.168.127-.015.25-.028.374-.044a88.422 88.422 0 0 0 1.83-.24l.268-.04c.524-.077 1.052-.158 1.583-.244l.472-.08a83.962 83.962 0 0 0 1.852-.334 70.977 70.977 0 0 0 1.843-.38l.503-.112c.503-.114 1.007-.23 1.51-.355.128-.031.257-.061.385-.094a65.502 65.502 0 0 0 1.821-.483c.153-.043.304-.088.456-.13.483-.14.966-.283 1.45-.434.165-.053.334-.102.5-.157a66.444 66.444 0 0 0 1.805-.603c.1-.035.197-.073.298-.108a69.02 69.02 0 0 0 1.535-.571l.528-.207c.526-.21 1.051-.427 1.573-.651.08-.035.159-.066.238-.102a48.4 48.4 0 0 0 1.744-.802c.165-.079.33-.161.493-.24.46-.225.917-.458 1.371-.697.143-.077.284-.147.425-.223.564-.305 1.125-.62 1.68-.946.13-.08.262-.162.395-.24.445-.268.884-.544 1.32-.827.158-.101.315-.2.47-.304a47.938 47.938 0 0 0 1.616-1.117c.053-.037.104-.078.156-.115a43.69 43.69 0 0 0 1.878-1.455c.438-.358.872-.725 1.298-1.102.083-.073.168-.144.25-.218.494-.445.98-.906 1.458-1.375.125-.124.248-.252.375-.377.378-.384.752-.777 1.12-1.178.115-.126.232-.247.344-.375a42.27 42.27 0 0 0 1.333-1.567c.084-.104.164-.21.247-.314.36-.454.712-.918 1.056-1.393.112-.157.229-.312.34-.471a43 43 0 0 0 1.2-1.788c2.393-3.651 4.388-7.593 6.026-11.656 2.683-6.644 2.45-13.991 1.505-21.156-.368-2.801-.843-5.574-1.297-8.266-1.61-9.514-3.869-19.172-7.16-28.257-.003-.004-.003-.012-.005-.017-.015-.045-.023-.09-.033-.135-.004-.024-.013-.05-.014-.07-.127-.88.618-1.867 1.616-1.358 3.59 1.833 9.676 5.66 13.14 1.45a10.332 10.332 0 0 1-1.66-1.51c-2.173-2.44-2.716-4.655-7.27-3.198-4.358 1.392-3.094-4.979-7.064-3.038-1.29.63-2.2-1.545-.876-2.082 1.72-.693 3.29-1.125 4.845.141.592.482.794 2.126 1.13 2.79.862 1.693 2.43-.935 5.012-.769 2.52.164 3.734 2.2 5.254 4.106 3.16 3.965 10.785 4.38 15.067 2.646 4.302-1.743 4.868-7.081 2.736-10.526z"/><path fill="#FFED00" d="M102.237 77.507c-1.486 8.839-7.811 17.117-17.915 28.285-10.103 11.167-30.872 7.234-36.49 11.933-3.816 3.19-1.91 6.043-.293 7.546l.006.002a101.032 101.032 0 0 0 1.727.024c.553.004 1.116.003 1.69-.002h.069a147.03 147.03 0 0 0 1.593-.026l.242-.008a98.205 98.205 0 0 0 3.461-.146c.114-.006.23-.014.343-.019.544-.035 1.093-.07 1.648-.115.045-.005.088-.006.13-.01.597-.047 1.2-.102 1.808-.16a99.736 99.736 0 0 0 1.875-.204c.127-.015.25-.028.375-.044a87.662 87.662 0 0 0 1.828-.24l.269-.04c.525-.077 1.053-.159 1.583-.245l.473-.079c.609-.102 1.218-.21 1.831-.329l.02-.006a74.731 74.731 0 0 0 1.843-.379l.503-.112c.504-.113 1.007-.23 1.51-.355l.386-.094a63.33 63.33 0 0 0 1.82-.484c.153-.041.305-.087.456-.13.483-.138.967-.283 1.45-.434.165-.051.335-.101.501-.156a62.72 62.72 0 0 0 1.805-.604 63.605 63.605 0 0 0 3.934-1.536c.08-.035.158-.066.238-.1a53.284 53.284 0 0 0 1.744-.803c.164-.079.33-.161.493-.242.46-.225.916-.457 1.37-.696.142-.075.284-.146.425-.224.564-.305 1.125-.62 1.68-.946.13-.078.262-.161.395-.24a47.84 47.84 0 0 0 1.79-1.129 47.117 47.117 0 0 0 1.616-1.117c.053-.037.105-.079.156-.117a46.167 46.167 0 0 0 3.425-2.775c.495-.444.981-.903 1.459-1.375.125-.123.248-.252.375-.376.378-.383.753-.777 1.12-1.178.115-.125.232-.249.345-.375.454-.51.898-1.03 1.332-1.567.084-.103.165-.21.247-.316.361-.452.713-.916 1.056-1.392.114-.155.23-.312.34-.472.41-.581.814-1.173 1.2-1.787 2.394-3.65 4.388-7.592 6.027-11.655 2.683-6.644 2.45-13.991 1.505-21.157-2.483-1.119-7.66 1.317-8.819 8.206z"/><path fill="#231F20" d="M113.292 7.33c-7.216-1.47-17.78-4.643-24.18.83-4.469 3.821-4.57 8.756-3.982 14.354.86 8.155 2.55 16.195 3.571 24.33.929 7.394 1.867 15.393-.856 22.489-10.181-6.233-23.906-4.685-34.356-.045-6.94 3.08-13.016 7.723-17.22 13.717-2.306 3.533-4.422 9.082-4.764 9.992-.24.845-.451 1.705-.63 2.582a30.656 30.656 0 0 0-.448 2.858c.003.138.012.265.015.403.436 15.284 4.858 22.526 8.843 25.955 3.03 2.605 5.797 3.016 6.368 3.072l.117.007c47.146 3.02 60.636-25.593 60.636-25.593a68.854 68.854 0 0 0 1.338-2.247c.415-.73.816-1.47 1.198-2.22.011.002.019.006.028.007.208-.396.41-.788.6-1.173-.02-.005-.036-.011-.056-.015a65.09 65.09 0 0 0 2.01-4.56l.026-.076a42.246 42.246 0 0 0 1.411-4.695c.103-.463.198-.926.283-1.39.004 0 .008.003.011.002.072-.368.133-.708.179-.995l-.017.002c1.166-7.572.008-15.423-1.339-23.055-1.613-9.145-3.632-18.472-6.638-27.311 4.48 1.99 10.395 3.55 13.127-1.151l.002.001c5.732 2.697 16.445 3.5 19.065-4.21 4.362-12.813-15.323-20.026-24.342-21.864zm18.454 24.403c-4.281 1.734-11.905 1.322-15.067-2.646-1.519-1.905-2.733-3.942-5.253-4.105-2.582-.166-4.15 2.461-5.012.768-.337-.664-.539-2.307-1.13-2.79-1.556-1.266-3.126-.834-4.846-.14-1.324.537-.412 2.71.876 2.08 3.97-1.94 2.707 4.43 7.065 3.04 4.553-1.456 5.096.758 7.268 3.197a10.372 10.372 0 0 0 1.662 1.51c-3.465 4.208-9.552.383-13.14-1.45-.998-.509-1.742.477-1.616 1.358 0 .021.01.047.013.07.01.046.019.093.034.135a.055.055 0 0 1 .003.017c3.293 9.085 5.552 18.743 7.161 28.257 1.62 9.574 3.523 20.18-.206 29.422-1.64 4.062-3.633 8.003-6.028 11.656a42.404 42.404 0 0 1-1.2 1.787c-.112.158-.228.314-.34.472-.343.475-.696.939-1.056 1.392l-.246.315a41.497 41.497 0 0 1-1.334 1.566c-.112.127-.23.25-.343.375-.369.401-.74.795-1.121 1.177-.126.126-.25.255-.375.378-.478.47-.964.932-1.459 1.376-.082.074-.166.145-.249.218a46.116 46.116 0 0 1-1.743 1.46c-.472.376-.947.742-1.433 1.096-.052.039-.103.079-.156.117-.53.386-1.07.754-1.617 1.116-.153.104-.311.203-.467.304a50.31 50.31 0 0 1-1.322.827c-.132.08-.263.161-.395.24-.555.327-1.117.641-1.68.947-.14.075-.282.145-.424.222-.453.239-.91.472-1.372.697-.162.08-.327.162-.492.24-.578.277-1.16.548-1.745.802l-.238.102a56.751 56.751 0 0 1-2.101.857c-.51.198-1.022.388-1.535.572-.1.035-.196.073-.297.108-.599.21-1.201.41-1.805.603-.167.053-.336.104-.502.157-.481.15-.965.294-1.449.435-.152.043-.304.088-.456.13-.606.169-1.212.33-1.82.482-.128.033-.257.063-.386.094-.503.125-1.007.241-1.51.355-.168.039-.336.075-.502.112a77.392 77.392 0 0 1-4.168.794c-.53.086-1.058.168-1.583.245l-.268.04c-.612.086-1.224.166-1.828.24-.126.016-.248.028-.375.043-.511.06-1.02.118-1.526.168-.118.01-.233.024-.35.034-.605.06-1.21.114-1.807.162l-.13.01a74.45 74.45 0 0 1-1.648.113l-.343.022c-1.18.069-2.335.116-3.461.145l-.243.006c-.537.014-1.07.022-1.594.027h-.067a111.3 111.3 0 0 1-1.69.002h-.064c-.527-.004-1.047-.01-1.554-.02-.038-.004-.074-.004-.11-.005a113.529 113.529 0 0 1-3.044-.104h-.032v-.003c-12.207-4.099-11.45-26.361-11.45-26.361C35.853 74.844 66.57 60.578 87.43 70.91c.34.167.661.025.871-.227a.41.41 0 0 0 .228-.185c6.374-10.746 2.33-25.816.243-37.275-1.025-5.63-2.652-12.023-1.733-17.769 1.497-9.359 13.491-9.263 20.351-7.907 6.846 1.352 13.366 2.937 19.386 6.775 2.842 1.813 5.882 3.943 7.704 6.884 2.13 3.448 1.564 8.786-2.734 10.526z"/><path fill="#96C93D" d="M28.318 117.98a9.563 9.563 0 0 1 1.637 4.718c0 .189-.026 2.127-.267 3.618-.304 1.568-.804 3.147-1.348 4.737-.982 2.875-2.161 5.551 1.395 7.22 1.843.869 3.795 1.524 5.733 2.193 5.599 1.932 14.718 4.715 17.507 10.375 1.207-2.073-.065-4.432-1.658-5.873-.53-.472-.162-1.327.575-1.339 1.922-.032 3.747.13 5.547.597-.803-1.468-2.05-2.824-3.565-3.525-.643-.298-.552-1.326.18-1.46 1.647-.305 3.265-.178 4.908-.034-3.081-4.065-11.774-6.503-16.263-7.52a.845.845 0 0 1-.517-.328c-.921-.368-1.507-1.5-.6-2.377 6.385-6.147 15.544-12.212 17.807-20.943 1.308-5.044-.268-10.44-5.752-12.864-5.41-2.39-11.1-1.783-16.63-.144-.36.107-.635-.014-.788-.222-9.099 4.23-8.55 20.63-8.416 23.013a.433.433 0 0 1 .515.158z"/><path fill="#231F20" d="M44.63 130.363c4.39-3.957 10.16-8.533 13.94-13.806.706-.948 2.23-3.717 2.23-3.717 1.395-2.897 2.056-5.99 1.506-9.277-.87-5.206-4.158-8.507-8.433-10.208-5.163-2.055-11.764-1.775-17.29.33a.727.727 0 0 0-.366 1.125c.153.207.427.326.789.22 5.53-1.637 11.224-2.245 16.63.144 5.483 2.425 7.059 7.82 5.751 12.864-2.263 8.732-11.422 14.793-17.806 20.943-.908.875-.32 2.01.6 2.378.11.147.27.277.517.329 4.487 1.015 13.182 3.452 16.262 7.517-1.641-.141-3.261-.27-4.907.035-.732.136-.824 1.163-.182 1.46 1.518.701 2.762 2.056 3.567 3.525-1.8-.463-3.625-.625-5.548-.597-.737.01-1.104.869-.575 1.34 1.591 1.441 2.866 3.8 1.658 5.873-2.788-5.66-11.909-8.445-17.506-10.374-1.938-.67-3.89-1.325-5.734-2.194-3.554-1.669-2.379-4.345-1.396-7.219.544-1.591 1.044-3.17 1.348-4.738.241-1.49.267-3.43.268-3.618a9.59 9.59 0 0 0-1.639-4.718c-.124-.188-.34-.22-.52-.161-.2.066-.355.253-.284.489.023.078.041.152.063.23.317 1.095.393 2.124.49 3.1.215 2.202-1.59 7.56-1.558 7.636-.562 1.763-1.083 3.59-1.21 5.668-.11 1.92 1.057 3.385 2.753 4.44 7.817 4.863 18.16 5.489 24.227 12.726.058.607.882 1.103 1.418.514 2.032-2.237 1.67-5.128.05-7.39 1.694.112 3.329.426 4.95 1.025.618.232 1.19-.456 1.023-.975-.534-1.653-1.605-3.361-3.024-4.628 1.306.046 2.607.254 3.898.352.558.044 1.058-.59.854-1.072-2.177-5.158-10.958-8.047-16.815-9.57z"/><path fill="#FFF" d="M113.71 4.293c-1.977-.409-3.966 1.233-4.36 3.251-.39 2.018.83 4.327 2.81 4.736 1.978.406 3.97-1.244 4.362-3.261.392-2.018-.833-4.32-2.812-4.726z"/><path fill="#231F20" d="M118.32 9.388a6.059 6.059 0 0 0-.462-3.73c-.737-1.565-2.133-2.768-3.901-3.133-3.024-.621-5.974 1.441-6.59 4.609-.614 3.167 1.338 6.238 4.367 6.86 2.04.42 4.044-.386 5.323-1.924a5.983 5.983 0 0 0 1.263-2.682zm-1.797-.37c-.392 2.018-2.385 3.67-4.362 3.262-1.98-.41-3.2-2.72-2.81-4.736.393-2.018 2.383-3.66 4.36-3.25 1.978.405 3.203 2.707 2.812 4.725z"/><path fill="#231F20" d="M115.433 12.55c2.179-.294 1.715-3.733-.462-3.44-2.179.296-1.716 3.733.462 3.44z"/><path fill="#FFF" d="M104.877 2.715c-2.21-.456-4.433 1.376-4.871 3.632-.438 2.254.928 4.836 3.14 5.292 2.209.455 4.435-1.39 4.873-3.643.437-2.253-.93-4.826-3.142-5.281z"/><path fill="#231F20" d="M110.027 8.41a6.757 6.757 0 0 0-.516-4.168c-.824-1.75-2.384-3.095-4.36-3.5-3.38-.697-6.677 1.608-7.365 5.147-.687 3.54 1.494 6.971 4.878 7.667 2.28.47 4.52-.43 5.948-2.151a6.647 6.647 0 0 0 1.415-2.996zm-2.01-.413c-.436 2.253-2.661 4.099-4.873 3.644-2.21-.455-3.577-3.04-3.14-5.294.44-2.255 2.662-4.088 4.873-3.632 2.211.455 3.578 3.028 3.14 5.282z"/><path fill="#231F20" d="M106.3 11.84c2.433-.328 1.914-4.17-.518-3.842-2.434.33-1.917 4.17.518 3.843z"/><path fill="#96C93D" d="M70.461 58.627c-6.471-.898-10.233 2.79-11.321 8.81-.976 5.394.62 16.769-6.992 17.233 1.783 1.552 5.25 1.742 6.737.047.304-.347.81-.08.941.286l.006-.003.006.03c.01.032.014.061.018.095.496 1.982-.372 4.1-1.842 5.232 2.984.968 6.104-.996 6.764-4.11.136-.638 1.275-.635 1.639.011.957 1.693 1.306 3.737 1.095 5.73 3.693-2.87 3.402-8.95 2.466-13-.829-3.583-1.705-6.981-.354-10.542 2.224-5.862 9.623-4.705 11.755.44.175.424-.304.887-.66.678 3.164 3.716 5.454 1.906 6.35.862-3.89-6.455-8.918-10.73-16.608-11.799z"/><path fill="#231F20" d="M61.782 58.255c-1.677 1.084-2.8 2.741-3.56 4.584 0 0-.66 1.642-1.05 3.475.007-.001.014-.003.022-.003-.122.634-.22 1.263-.293 1.875-.549 4.572 1.03 15.368-6.457 14.201-1.105-.171-1.406 1.185-.792 1.857 1.366 2.981 5.996 3.853 8.816 2.27.048 1.65-.497 2.525-1.882 3.554-.25.188-.215.65.058.803 3.37 1.886 7.406.93 8.954-2.26.535 1.515.833 3.13.356 4.63a.98.98 0 0 0-.044.325v.013c.03.669.693 1.328 1.464.924 4.261-2.239 5.894-8.37 5.118-12.865-.554-3.204-2.047-6.675-1.732-9.958.126-1.3.638-2.931 1.545-4.146 1.007-1.887 2.238-1.61 2.238-1.61.134-.05.287-.066.449-.071a3.4 3.4 0 0 1 .925-.006c1.322.184 2.24.782 3.023 1.573.916 1.916 1.565 2.12 1.733 2.14.015-.001.031.004.046.002.355.209.835-.253.66-.677-2.132-5.146-9.531-6.302-11.755-.44-1.35 3.56-.475 6.96.354 10.542.935 4.05 1.226 10.129-2.466 12.998.212-1.991-.138-4.036-1.095-5.729-.364-.646-1.503-.649-1.64-.012-.659 3.115-3.779 5.08-6.763 4.112 1.47-1.131 2.338-3.25 1.842-5.233a.455.455 0 0 0-.018-.095l-.006-.03-.006.003c-.132-.365-.636-.633-.941-.285-1.488 1.696-4.954 1.504-6.737-.047 7.611-.465 6.016-11.84 6.992-17.234 1.088-6.02 4.85-9.708 11.321-8.81 7.69 1.07 12.718 5.344 16.608 11.797.035.059.072.114.107.174.125.21.303.3.482.318.026.012.058.01.088.018.063-.084.133-.16.208-.231a2.71 2.71 0 0 1 .19-.511c-.006-.032-.016-.07-.018-.085a1.89 1.89 0 0 1-.065-.603 17.353 17.353 0 0 0-.527-1.06c-4.453-8.307-17.021-15.83-25.752-10.187z"/></svg>