<svg width="132" height="82" xmlns="http://www.w3.org/2000/svg"><path fill="#D0E7F0" d="M89.451 10.47c4.524 1.738 6.382 6.95 8.125 11.22 1.263 3.102.086 6.327.387 9.286.73 7.356 6.316 16.638 2.708 21.666-2.661 3.688-10.343-1.952-15.089-3.482-5.44-1.758-12.564-1.668-16-6.237-6.542-8.698-5.831-21.55-12.243-30.518C53.174 6.46 34.36.317 39.155.025 49.293-.597 73.48 4.352 89.451 10.47z"/><path fill="#FFF" d="M95.25 49.13c6.039-2.792 8.736-11.138 15.09-13.154 6.677-2.117 16.182-.13 21.279 1.934 1.867.643-6.094 1.148-7.351 3.482-3.879 7.212-3.607 16.228-7.545 23.407-2.628 4.794-7.052 8.516-11.8 11.027-5.25 3.116-11.339 5.15-17.41 5.416-9.118.403-18.344-1.662-27.253-2.905-9.88-1.382-19.743-4.073-29.62-4.446-4.436-.214-9.412 5.468-12.767 2.708-5.003-4.12-6.038-12.328-6.964-18.957-.21-1.68 2.727-1.836 4.256-1.548 5.773 1.74 10.651 6.39 16.636 7.351 3.89.625 7.711-1.477 11.607-2.321 6.049-1.31 12.341-2.496 18.183-3.87 11.226-2.625 23.04-3.645 33.66-8.124z"/><path fill="#FFF" d="M66.234 16.631c5.561 1.276 10.48 5.213 13.928 9.286 2.978 3.528 3.248 8.715 5.417 12.767 2.948 5.515 13.183 11.744 10.059 15.863-4.313 5.663-16.351 5.405-24.568 4.256-5.634-.794-9.922-6.097-14.121-10.06-3.935-3.716-6.008-9.007-10.06-12.767-5.085-4.712-10.723-9.107-17.023-11.994-9.225-4.029-28.05-6.551-29.016-8.511-.964-1.957 15.691-2.86 23.6-2.708 14.237.273 28.311.65 41.784 3.868z"/><path fill="#D0E7F0" d="M61.591 24.37c1.745.272 3.765.606 5.06 1.587 1.296.98 1.262 2.64 2.098 3.829 2.556 3.629 7.652 8.153 8.705 11.22.46 1.34-4.148-.86-5.803-1.935-3.224-2.618-5.383-6.312-8.512-8.898-1.602-1.323-3.631-2.312-5.417-3.096-4.468-1.958-14.517-4.26-13.928-4.642.597-.384 12.226 1.061 17.797 1.934z"/></svg>