<svg width="186" height="126" xmlns="http://www.w3.org/2000/svg"><path fill="#EFCF38" d="M76.045 58.637c.49-7.317 4.768-10.358 9.11-16.233-4.79-.35-8.823 1.807-12.275-1.026 4.967-.895 7.774-1.335 12.447-3.347-1.207-1.83-2.843-1.82-4.751-2.798-3.64-1.878-4.633-5.498-4.657-9.756l11.84 7.573c1.688-5.423-.337-9.247 1.833-14.442 1.582-3.786 2.264-6.187 4.945-9.314 1.236-1.457 2.045-3.397 3.902-2.94-.352 5.264 5.857 30.548 1.751 34.699-4.965 5.023-17.101 17.97-20.58 17.846-1.387-.069-2.23-.84-3.565-.262z"/><path fill="#769100" d="M81.36 56.706c-3.046-.437-4.235-1.763-6.705-3.134.406-1.906-.68-4.503-1.752-7.03-.503-1.23-3.838-2.602-4.059-3.908-.296-1.57 1.195-2.17 1.846-3.606 1.584-3.367 2.58-5.357 2.953-9.072.294-3.009-2.28-7.422.594-7.954 3.187-.575 4.49-1.155 7.402-2.685 6.335-3.342 8.822-6.385 13.44-10.82-.584 2.279-2.78 8.312-2.974 11.2-.393 5.904.923 9.29 2.33 15.003.581 2.397 4.494 4.787 2.519 6.158-2.362 1.634-4.549 1.646-7.155 2.778-4.768 2.07-8.11 6.48-8.44 13.07z"/><path fill="#272525" d="M82.234 55.385c-.842.532-1.33-.544-2.045-.641 2.617-8.723 9.199-12.693 16.495-14.885-4.359-5.982-6.39-19.781-3.273-28.145-5.275 7.799-4.806 16.354-2.269 25.067-4.716-1.313-10.159-6.735-14.902-10.48.059 5.582 9.197 9.974 13.451 11.508.13 1.046-11.432 3.083-16.245 3.664 2.76 1.954 13.097-.884 14.737-1.038-5.484 4.564-9.23 11.718-10.007 15.213-.676-.021-1.161-.537-1.612-.995 1.134-3.611 4.822-9.223 7.58-11.87-3.772 1.015-9.277 1.192-12.867-1.365 3.716-1.173 12.414-3.714 12.608-3.93-6.627-2.8-9.037-6.216-8.907-13.757.82-.046 12.104 8.196 13.663 9.291-2.28-11.524 1.184-17.186 7.091-25.73.378-.126.662.368.548.658-.643 1.643-1.437 3.082-1.933 4.818-2.041 7.128-1.232 15.131 1.765 21.839.699 1.57 1.791 2.96 2.48 4.471.315.694.427 2.214-.28 2.714-.134.097-4.648.775-5.378 1.128-5.09 2.463-9.722 4.229-10.7 12.465z"/><path fill="#272525" d="M95.903 7.265c.135 1.662-12.232 14.909-21.773 15.166 1.263 10.037-2.072 15.484-4.48 18.972 2.287 2.746 6.322 6.395 5.25 12.251l-.491-.036c-.067-6.39-5.373-9.68-6.949-11.24 4.183-4.635 6.42-14.752 4.548-20.72 9.916-.128 23.204-14.392 23.895-14.393z"/><path fill="#EFCF38" d="M52.586 43.419c-.461-4.647-2.368-7.495-6.135-10.041-2.402-1.62-3.773-2.985-6.61-3.204-7.492-.578-8.07 1.923-11.51 4.546a1.6 1.6 0 0 1 .296-.06c.096-.064.186-.134.312-.175.65-.21 1.278-.475 1.952-.602a1.14 1.14 0 0 1 .632-.197c.185-.145.409-.251.71-.251.072 0 .127.02.191.03.164-.1.353-.172.59-.177.161-.09.348-.154.579-.154.014 0 .023.006.036.007.147-.068.32-.108.518-.108.134 0 .239.04.35.073.112-.033.22-.073.356-.073.01 0 .017.005.026.006.091-.02.171-.055.276-.055.13 0 .228.044.335.075.115-.037.229-.075.37-.075.203 0 .375.046.524.117.03-.001.05-.017.081-.017.13 0 .248.02.356.05.211 0 .389.052.543.129.075.008.137.034.203.053.054-.006.098-.031.157-.031.347 0 .607.126.797.31.137.033.252.093.354.163.078.023.146.057.212.093.225.057.403.172.538.32.122.039.225.1.317.173.327.068.554.257.704.495.15.058.266.151.368.256.186.1.326.248.424.419.028.026.038.068.063.098a.968.968 0 0 1 .28.31c.27.13.445.36.541.621.293.181.447.49.5.815.023.02.037.047.058.07.12.097.207.222.277.355.05.063.065.146.1.217.21.18.33.433.378.7.108.125.181.276.228.436.182.198.276.457.298.723.019.044.015.092.029.138.12.168.181.37.206.576.204.24.293.557.279.872.007.01.008.028.014.041.096.079.109.243.072.42.004.018-.002.042 0 .06.1.03.136.127.148.24a.49.49 0 0 1 .016.166c.183.07.179.344.082.603.02.022.014.063.026.09.025.045.04.097.043.16v.012a.936.936 0 0 1-.066.347c.076.045.152.086.225.14.198.15.156.493.02.763.127.343.161.82.041.82-.063 0-.118-.048-.168-.115-.013 0-.02.018-.036.008a12.504 12.504 0 0 0-.278-.155c.319.55.636 1.13.953 1.796.68 1.443.578 2.563 1.498 3.846 1.245-.534 1.431-1.692 2.522-2.564.99-.801 2.572-.16 2.863-1.424.292-1.25.054-1.997-.064-3.28zM85.232 66.78c-3.919-.32-6.032.605-9.95 1.425.307 1.993-.92 3.488.139 5.13 1.056 1.637 2.998.212 4.907.212.158 0 .291-.007.441-.01.18-.336.5-.594 1-.594.047 0 .086.011.13.016.192-.272.493-.47.929-.47.123 0 .22.038.322.066.386-.487.98-.821 1.794-.821.098 0 .181.018.273.027.274-.11.582-.178.936-.178.136 0 .246.036.37.053.166-.034.346-.053.538-.053.57 0 1.028.168 1.386.432.53.171.93.505 1.186.932.888-.01 1.767.06 2.618.35-1.19-3.276-3.696-6.25-7.02-6.517z"/><path fill="#769100" d="M5.15 14.08c4.259-.996 7.53-1.246 11.177 1.282 4.36 3.027 3.17 7.941 8.315 9.258 8.997 2.35 15.096-4.13 24.127-2.564 6.235 1.068 7.973 6.266 12.268 11.11 2.59 2.92 4.157 4.629 6.133 8.12 1.534 2.705 2.18 4.379 3.817 6.979.477.782 1.5.214 2.317.57 2.147.925 3.545 1.139 5.59 2.277 2.76 1.532 4.464 2.316 7.361 3.562.818-1.923.306-3.42 1.362-5.271 1.433-2.493 4.533-2.955 6.953-1.565 1.907 1.104 2.553 3.808 4.769 4.059 2.624.32 3.373.071 5.862-.784-1.874-3.951 2.66-8.402 6.678-8.26 2.216.071 3.303 2.172 3.815 4.414.58 2.421 2.998 3.064 2.998 5.555 2.183 0 3.508 1.104 5.587.427 1.6-.498 1.6-2.207 2.728-3.56 1.638-1.958 3.2-2.492 5.453-3.56 2.862-1.353 5.967-1.71 8.04.711 1.771 2.066 2.043 3.062 3.137 5.555 2.043 4.56-2.246 10.327-6.272 13.104-5.998 4.167-10.633 6.41-17.721 5.27-6.064-.962-9.164-6.624-15.132-4.559-2.45.856-3.988 6.125-1.84 7.549 1.057.712 3.852.605 4.019 1.924.206 1.493-1.02 1.743-2.315 2.349-2.965 1.388-7.363 1.567-9.678-.856-2.081-2.172-3.548-4.985-6.274-6.123-3.101-1.283-2.897-1.104-6.135-.143-2.59.784-4.703.713-6.27 2.992 3.747 3.525 7.257 1.532 10.907 5.128 1.637 1.6 1.67 5.376-.134 6.836-1.602 1.282-3.956 0-4.909-1.993-.75 1.743-.443 3.881-2.18 4.412-1.194.36-2.522-.46-2.863-1.708-.75-2.704.443-5.696-2.046-6.98-1.942-.997-2.555-2.67-4.634-3.133-4.158-.928-6.646.462-10.906 0-3.339-.357-4.702-2.707-8.041-3.134-3.033-.393-6.1-1.424-7.36-4.273-1.568-3.49-2.66-4.237-3.68-7.976-.784-2.885-.273-5.128-2.318-7.264l-6.952 7.833c-2.454-2.03-2.828-4.343-5.724-5.84 1.874-3.382 2.18-5.804 2.18-9.685 3.442.57 5.214 2.849 8.587 2.279 2.863-.498 4.192-1.958 7.089-2.279.92-.107 1.602.285 2.454 0 1.397-.463.783-1.603.817-3.133.07-2.28-.068-3.705-1.09-5.698-1.806-3.49-4.976-3.88-8.724-4.7-7.873-1.744-15.097 5.662-20.584-.57C13.387 29.14 12.431 25.51 11 21.913c-1.591-4.057-2.853-4.7-5.85-7.832z"/><path fill="#EFCF38" d="M67.376 69.698L56.879 68.56c.341 2.21-.221 3.173-1.908 4.486-.681.535-1.857 1.246-1.295 1.923.758.912 1.38 1.414 2.268 1.96.082.014.156.007.244.04 3.924 1.499 7.896.99 11.975.662.011-.001.017.004.028.004.1-.055.22-.084.345-.108.192-.208.466-.35.837-.35.215 0 .393.052.549.132l-2.546-7.61z"/><path fill="#272525" d="M101.263 70.87c.961-.853 5.052-2.17 6.007-.684.78 1.21-1.335 3.297-2.547 4.292-.713-.399-3.19-3.052-3.46-3.608z"/><path fill="#FFF" d="M105.806 71c.256.444-1.085 1.976-1.857 2.172-.492-.574-.993-1.506-.993-1.506s2.296-1.631 2.85-.666z"/><path fill="#272525" d="M109.124 67.392c1.184.154 3.636.304 4.788.669-.08 1.316-2.016 5.304-3.7 4.99-1.654-.31-1.273-4.642-1.088-5.659z"/><path fill="#FFF" d="M110.669 71.382c-.483-.116-.61-2.19-.208-2.904.737.03 1.727.299 1.727.299s-.473 2.86-1.52 2.605z"/><path fill="#272525" d="M119.073 71.664c1.185.152 3.636.305 4.79.67-.082 1.316-2.014 5.303-3.703 4.989-1.65-.307-1.27-4.638-1.087-5.66z"/><path fill="#FFF" d="M120.619 75.659c-.483-.118-.609-2.192-.208-2.904.735.025 1.73.297 1.73.297s-.475 2.86-1.522 2.607z"/><path fill="#272525" d="M137.115 66.734c.845-.882 2.468-2.803 3.452-3.53.941.877 2.758 4.925 1.485 6.12-1.249 1.17-4.282-1.813-4.937-2.59z"/><path fill="#FFF" d="M141.076 67.92c-.384.327-2.024-.846-2.317-1.618.478-.587 1.29-1.237 1.29-1.237s1.864 2.15 1.027 2.856z"/><path fill="#272525" d="M129.261 70.554c1.143-.366 3.442-1.268 4.635-1.424.438 1.235.227 5.703-1.437 6.13-1.63.423-2.968-3.697-3.198-4.706z"/><path fill="#FFF" d="M132.226 73.546c-.489.099-1.406-1.742-1.319-2.564.685-.288 1.694-.462 1.694-.462s.682 2.812-.375 3.026z"/><path fill="#EFCF38" d="M71.397 59.8c0-8.12 4.498-11.823 8.86-18.659-5.316 0-9.61 2.706-13.631-.142 5.418-1.389 8.485-2.101 13.495-4.7-1.465-1.923-3.272-1.78-5.454-2.707-4.158-1.78-5.52-5.696-5.86-10.398l13.63 7.407c1.465-6.125-1.057-10.183.954-16.095 1.466-4.308 2.044-7.014 4.771-10.682 1.262-1.71 2.012-3.917 4.09-3.56 0 5.84 8.724 33.258 4.499 38.172-5.112 5.945-17.55 21.22-21.401 21.363-1.534.038-2.522-.747-3.953 0z"/><path fill="#769100" d="M77.121 57.238c-3.393-.237-4.805-1.603-7.632-2.921.306-2.135-1.084-4.915-2.454-7.62-.649-1.317-4.43-2.564-4.772-3.987-.442-1.71 1.16-2.494 1.772-4.132 1.5-3.846 2.454-6.124 2.59-10.256.103-3.346-3.066-8.01.069-8.83 3.477-.891 4.872-1.638 7.973-3.56 6.748-4.202 9.27-7.762 14.04-13.033-.48 2.564-2.452 9.4-2.452 12.605 0 6.551 1.703 10.183 3.68 16.379.818 2.6 3.715 5.164 1.636 6.837-2.487 1.994-2.86 2.529-5.657 3.989-5.111 2.669-8.349 8.582-8.793 14.529z"/><path fill="#272525" d="M78.217 57.01c-.891.655-1.656.222-2.454.172 2.245-9.844 7.92-16.818 15.814-19.827-5.254-6.253-7.298-21.28-4.472-30.766-5.251 9.036-4.098 18.445-.653 27.86-5.308-1.07-11.714-6.616-17.23-10.37.478 6.16 10.893 10.271 15.7 11.623.224 1.143-12.393 4.327-17.664 5.356 3.191 1.936 14.395-2.033 16.194-2.336-5.716 5.483-9.323 13.684-9.924 17.605-.747.031-1.322-.498-1.854-.969.983-4.08 4.643-10.571 7.493-13.717-4.09 1.424-10.156 2.065-14.308-.47 4.015-1.596 13.43-5.102 13.631-5.354-7.522-2.558-10.437-6.135-10.85-14.472.903-.116 12.593 7.407 14.395 8.49C78.667 17.291 83.45 11.43 89.34 1.518c.407-.17.759.354.655.683-.588 1.866-1.356 3.518-1.778 5.476-1.729 8.036-.24 16.807 3.56 23.971.886 1.678 2.195 3.122 3.069 4.738.399.741.635 2.41-.112 3.02-.141.117-4.173 1.804-4.958 2.253-5.43 3.126-11.086 6.178-11.559 15.351z"/><path fill="#272525" d="M89.528 1.475c.27 1.823-12.407 17.447-22.925 18.504 2.136 10.98-1.145 17.262-3.545 21.307 2.726 2.847 7.451 6.552 6.703 13.102h-.546c-.545-7.05-6.647-10.253-8.502-11.847 4.277-5.457 5.998-16.807 3.49-23.246 10.942-.943 24.56-17.763 25.325-17.82z"/><path fill="#272525" d="M63.49 35.728c-.29-1.992-2.66-6.2-3.649-7.691-10.914-16.472-29.862.452-36.64-5.924-3.718-3.497-4.707-6.763-10.032-9.287-5.022-2.38-12.43 1.48-12.432 2.45 10.886-1.98 9.487 15.361 17.012 19.828 3.247 1.928 6.447 1.07 9.698-.073.05-.025.108-.037.165-.055.179-.063.358-.129.537-.194.048-.025.104-.039.158-.057l.566-.202c.026-.01.04-.028.067-.037.36-.116.716-.245 1.075-.362.33-.112.658-.22.988-.323.026-.012.056-.014.081-.024 2.213-.68 4.463-1.08 6.784-.439 4.668 1.288 7.697 7.162 7.547 13.43.47.404 1.105.372 1.58 0 .222-5.203-.134-10.414-3.747-13.674-8.993-8.11-20.234 4.121-26.59-1.808-5.469-5.103-3.403-13.266-8.997-17.092 7.127-1.718 10.1 7.866 15.16 10.938 11.03 6.7 23.63-17.105 39.13 12.434 1.004-.068 1.674-.912 1.539-1.838z"/><path fill="#272525" d="M53.404 48.265l-1.755-1.026c.471-6.052-2.13-14.5-13.24-17.278 9.133-.284 18.659 11.015 14.995 18.304z"/><path fill="#FF1816" d="M154.258 109.202c.704 1.453-7.313 6.88-12.14 3.31-2.94-2.179-2.452-8.635-6.535-9.718 2.787-2.665 9.573-3.345 11.553-.11.837 1.373-.226 3.163 1.076 4.397 1.524 1.459 4.153 1.433 6.046 2.121z"/><path fill="#FFEA00" d="M151.996 110.373c-12.726 6.031-8.062-7.242-12.76-7.497 7.358-3.71 5.053 5.794 8.518 7.322 1.198.527 4.242.175 4.242.175z"/><path fill="#272525" d="M116.385 46.726c-3.127.513-1.93-2.295-5.616-2.848-2.403-.359-7.202 1.537-3.437 8.205-2.544-.472-7.571 1.205-7.571 1.205s-1.062-.882-1.38-1.962c.704-.503 4.909-1.072 5.676-1.41-2.318-8.937 9.22-11.05 12.052-4.786.193.422.35 1.137.276 1.596zm-70.888-1.311c1.255.614 1.965 1.76 2.186 3.134 1.398-1.65 5.87-2.584 6.434.229-6.74-.672-5.138 3.783-7.53 6.892-.785 1.019-1.298 1.354-.977-.17.45-2.123 1.363-8.177-1.744-8.888-1.943-.444-5.28 2.548-7.85 2.62-2.842.081-4.808-1.16-7.417-1.937.793 2.612.406 6.004-1.745 7.806 1.672 1.158 3.91 2.573 4.36 4.787.92-1.073 5.97-6.539 6.926-6.837.502-.158 1.485 2.013 1.69 2.734 1.544 5.46 2.96 14.212 9.433 15.839 2.628.661 5.859-.232 7.198-2.736 1.553-2.9 2.559-5.768 2.323-9.154-.045-.639-.639-3.038-.633-3.15.03-.555.496-.682.928-.571 2.938 6.596.73 17.32-6.706 19.029-3.631.834-8.318-3.962-10.196-6.836-2.235-3.417-3.326-9.226-4.035-13.274-2.642 2.653-4.505 6.053-7.361 8.488-.686-2.123-3.958-6.538-6.76-7.407 2.051-2.138 3.893-7.962 2.07-12.136 12.907 6.84 12.818-1.676 19.406 1.538zm60.31 29.625c-10.302-1.154-5.868-11.244 3.76-9.455 4.61.854 7.126 5.577 12.05 5.354 6.53-.294 13.851-3.52 18.07-8.646 2.69-3.267 6.273-12.605-2.258-15.795-4.707-1.76-10.082 3.155-12.162 7.236-1.187.085-5.396-.035-6.436-.7.411-.893.243-.793.719-1.654.817.09 4.518.387 5.35.3 7.905-12.747 24.307-8.248 18.31 8.72-3.179 8.995-16.956 15.292-25.518 12.59-3.902-1.232-10.7-8.255-14.504-3.419-1.568 1.998 2.104 4.163 2.619 5.47z"/><path fill="#272525" d="M99.483 50.998l-.763.513c3.99 1.347 6 3.717 4.571 7.007-3.05 7.042-15.722-.584-9.27-6.41.796-.718 2.453-.926 3.343-.64-4.543-7.031-12.255-2.398-8.737 4.715 0 0-7.49-2.799-10.146-3.932-.35-.59.998-1.479 1.467-1.438 1.704.143 5.408 2.507 6.435 2.934-.336-1.496-1.082-5.004 2.134-7.135 4.28-2.837 8.77.504 10.966 4.386zm19.652 4.603c-3.366 2.492-10.127-.629-8.82-4.991 1.025-3.413 5.22-3.296 8.139-1.313 2.29 1.549 2.108 5.25.68 6.304z"/><path fill="#FFF" d="M118.288 51.68c1.17 1.831-.34 3.846-2.998 3.42-1.681-.273-3.954-1.78-3.476-3.918.293-1.31 1.59-1.904 3.272-1.495 1.063.258 2.516.92 3.202 1.993z"/><path fill="#272525" d="M117.403 50.97c.395 0 .753.168 1.012.44.259.27.42.644.42 1.056 0 .413-.161.788-.42 1.057-.259.271-.617.44-1.012.44-.396 0-.754-.169-1.012-.44a1.525 1.525 0 0 1-.42-1.057c0-.412.16-.787.42-1.057.258-.27.616-.439 1.012-.439zm20.907-.165c.952.28 1.668 2.215 1.813 3.424.172 1.38-.249 2.78-1.46 3.041-1.615.347-2.897-1.312-3.312-3.001-.494-2.017.657-4.145 2.96-3.464z"/><path fill="#A1BF00" d="M136.443 54.21c-.174-.707.023-1.75.829-1.938.805-.187 1.288.586 1.67 1.32.763 1.469.144 2.78-.7 2.85-.628.052-1.397-.586-1.799-2.233z"/><path fill="#FFF" d="M94.829 55.869c-.51-4.26 6.819-3.522 7.468.394.7 4.238-6.762 5.5-7.468-.394z"/><path fill="#272525" d="M100.564 54.32a1.94 1.94 0 0 1 1.402.606c.359.375.581.893.581 1.464a2.11 2.11 0 0 1-.581 1.463c-.36.375-.855.607-1.402.607a1.937 1.937 0 0 1-1.402-.607 2.11 2.11 0 0 1-.582-1.463c0-.571.223-1.089.582-1.464.36-.374.855-.607 1.402-.607z"/><path fill="#FF1816" d="M167.907 62.008c-3.191 3.347-3.987 12.773-8.365 14.456-5.56 2.14-8.743-8.547-15.321-7.121 4.24-6.861 9.455-2.159 11.885-2.906 2.81-.86 5.597-6.922 11.8-4.43z"/><path fill="#FFEA00" d="M147.491 68.26c3.17-2.91 7.365 1.249 9.922.23 2.523-1.01 2.24-4.737 7.361-5.985-3.314 2.77-2.722 13.25-9.049 11.223-2.693-.86-4.252-5.263-8.234-5.468z"/><path fill="#272525" d="M133.775 62.679c-1.386 3.62-6.969 1.527-8.123-1.655-1.775-4.88 5.098-4.04 7.175-2.125 1.466 1.349 1.322 2.806.948 3.78z"/><path fill="#A1BF00" d="M132.747 60.664c1.184 3.338-3.67 3.391-4.87.8-1.686-3.637 4.078-3.033 4.87-.8z"/><path fill="#272525" d="M90.618 70.198c-6.477-5.2-10.498-1.792-14.589-.997-.359.07-.017-.35-.219-.67-1.48-2.34 8.643-3.831 11.942-2.109 2.047 1.07 2.866 3.776 2.866 3.776z"/><path fill="#272525" d="M89.178 81.994c-.535-3.112-2.494-4.542-4.816-5.488-.219-.05-.41-.13-.587-.23-2.673-.981-5.696-1.475-7.573-3.172-.562-1.837.525-4.265.65-5.826.136-1.709-2.045-2.135-2.726 0-3.006 9.424 8.445 8.352 11.617 12.663.904 1.229 1.134 3.404.433 4.787-2.158 4.265-3.124-3.563-5.888-3.419 1.127 2.275.838 6.339-1.853 6.324-2.95-1.27.313-6.29-.763-7.808-1.115-1.567-6.94-1.448-8.397-8.09-.593-2.702.433-3.74 1.58-5.98-.943-1.474-3.48-1.183-4.091.968-.362 1.28-.571 3.232-.381 4.5.361 2.428 1.737 4.457 3.528 6.076.157.077.28.19.377.321 1.716 1.454 3.752 2.556 5.637 3.289-.643 3.678-1.53 8.945 3.927 8.491 1.24-.104 2.45-2.679 2.38-4.246.088-.013 2.688 4 5.363 1.91 1.37-1.07 1.877-3.367 1.583-5.07z"/><path fill="#272525" d="M67.621 68.93c0 .571.164 1.483-.654 1.483l-8.274-.827c-.436-.341-.273-1.14-.109-1.595 0-.001 7.783-.258 9.037.94zm39.332 7.365c-.192-.443-.962-.305-1.31-.284-1.743 1.562-3.449 1.644-5.617 1.481-10.355-.786-4.694-12.837-21.204-6.154-.73.297-2.224 1.332-2.93 1.71-.042.944-.04 1.413 1.035 1.567.532.075 2.354-.658 4.115-1.408a1.07 1.07 0 0 1 .52-.222l.539-.231c.138-.113.31-.187.514-.222.392-.168.758-.325 1.072-.453.225-.14.48-.245.774-.298.044-.014.095-.034.131-.045a5.099 5.099 0 0 1 2.35-.142c.04-.002.075-.012.117-.012.56 0 1.008.166 1.365.425.387.121.707.324.951.593 1.835 1.195 3.377 3.163 4.653 4.778 4.237 5.36 14.278 2.084 12.925-1.083z"/><path fill="#FF1816" d="M150.264 80.15c-3.253-3.928-8.752-4.414-11.535.472-1.502 2.635-2.793 5.533-5.069 7.614-2.783 2.544-8.894 1.816-11.863-.028-1.135-.705-2.646-1.974-3.49-3.031-.303 1.73.597 4.096 1.916 5.18 3.87 3.182 12.93-3.485 17.317 8.305-.693.631-1.3-.313-1.913-.53-8.92-3.212-12.362 7.26-21.636.379-7.685-5.698.674-12.836-2.464-19.718-1.032-2.261-2.392-4.241-4.652-5.303 6.982-2.895 10.815 3.691 14.923 6.734 6.477 4.809 10.372-8.482 19.032-8.176 3.99.143 8.13 3.135 9.434 8.101z"/><path fill="#FFEA00" d="M146.468 75.532c-7.001-4.09-10.73 5.864-13.379 9.59-5.106 7.183-13.983-.718-15.748-2.665-.673 3.228-1.46 7.556 1.448 9.787 5.428 4.16 11.666-3.063 16.058 4.528-1.356-.486-2.545-1.305-4.006-1.433-5.06-.44-7.449 4.237-13.385 2.646-2.36-.633-4.344-3.02-4.61-5.642-.119-1.156 1.076-6.081 1.299-7.712.844-6.135-2.06-9.063-5.125-11.148 7.447-.03 8.545 13.426 18.88 9.482 6.163-2.35 8.364-12.364 16.344-8.638.738.341 1.604.666 2.224 1.205z"/><path fill="#272525" d="M68.874 75.11c-4.498 1.285-11.422-.426-14.639-2.477-.872.684-1.854 1.366-2.126 2.335 2.632 1.866 6.21 2.768 9.471 2.995 1.651.052 3.314-.06 4.995-.2.73-.108 1.523-.246 2.203-.42.148-.086.32-.141.527-.152.462-.15.832-.318 1.002-.513.598-.57-1.378-1.054-1.433-1.567z"/><path fill="#FF1816" d="M134.633 92.115c.209-2.692 2.017-5.018 4.265-6.25 3.46-1.892 6.87.867 9.847 2.356 2.758 1.384 6.022.767 8.794-.212.208 3.87-2.237 10.056-6.072 9.739-4.525-.375-8.992-10.146-16.834-5.633z"/><path fill="#FFEA00" d="M137.923 89.423c5.03-6.036 9.494 4.107 15.86 1.73l2.465-.92c-.666 1.634-2.794 3.95-4.484 4.348-4.72 1.108-7.987-7.908-13.84-5.158z"/></svg>