<svg width="131" height="97" viewBox="-1 -1 131 97" xmlns="http://www.w3.org/2000/svg"><path fill="#C00" stroke="#000" stroke-width="7" d="M278.5 18c36.832 0 70.207 17.873 94.374 46.746C397.041 93.62 412 133.495 412 177.5c0 44.005-14.959 83.88-39.126 112.754C348.707 319.127 315.332 337 278.5 337c-36.832 0-70.207-17.873-94.374-46.746C159.959 261.38 145 221.505 145 177.5c0-44.005 14.959-83.88 39.126-112.754C208.293 35.873 241.668 18 278.5 18z" transform="matrix(.28262 0 0 .28535 -38.45 -1.95)"/><path fill="none" stroke="#666" stroke-width="3.109" stroke-linecap="round" d="M35.295 93.863l20.887 1.045"/><path fill="#FFF" stroke="#666" stroke-width="2.008" d="M59.024 3.212c10.564 0 20.136 5.126 27.067 13.407 6.931 8.281 11.222 19.718 11.222 32.338 0 12.621-4.29 24.057-11.222 32.339-6.931 8.28-16.503 13.406-27.067 13.406-10.563 0-20.135-5.126-27.066-13.406-6.931-8.282-11.222-19.718-11.222-32.339 0-12.62 4.29-24.057 11.222-32.338C38.888 8.34 48.46 3.212 59.024 3.212z"/><path fill="none" stroke="#666" stroke-width="11" stroke-linecap="round" d="M86 79h89" transform="matrix(.2223 0 0 .28262 -10.5 -1.75)"/><path fill="none" stroke="#666" stroke-width="11" stroke-linecap="round" d="M154 21h86" transform="matrix(.25715 -.01907 .0209 .28184 -8.5 1.1)"/><path fill="none" stroke="#666" stroke-width="11" stroke-linecap="round" d="M66 177h75" transform="matrix(.24811 0 0 .28262 -14.45 -1.2)"/><path fill="none" stroke="#666" stroke-width="11" stroke-linecap="round" d="M96 273h74" transform="matrix(.26623 0 0 .28262 -17.9 -1.75)"/><path fill="#FFC" stroke="#000" stroke-width="2.008" d="M60.774 2.612c10.564 0 20.136 5.126 27.067 13.407 6.931 8.281 11.222 19.718 11.222 32.338 0 12.621-4.29 24.057-11.222 32.339-6.931 8.28-16.503 13.406-27.067 13.406-10.563 0-20.135-5.126-27.066-13.406-6.931-8.282-11.222-19.718-11.222-32.339 0-12.62 4.29-24.057 11.222-32.338C40.638 7.74 50.21 2.612 60.774 2.612z"/><path fill="none" stroke="#000" stroke-width="1.548" stroke-linecap="round" d="M107.424 32.836l14.702-11.607m-12.211 23.186l18.73-.136m-20.821 10.835l14.702 11.607"/></svg>