<svg width="123" height="104" viewBox="-1 -1 123 104" xmlns="http://www.w3.org/2000/svg"><path fill="#E476AE" d="M89.1 37.117c-3.416 7.877-6.83 15.762-10.245 23.639h-.007L66.794 50.448c1.208-2.905 2.416-5.817 3.624-8.729h.008c.146.007.278.014.419.028 1.857.104 3.275.217 4.637.217 1.368 0 2.674-.112 4.099-.273 1.417-.167 2.947-.384 4.092-.656 1.145-.273 1.906-.6 2.563-1.04.656-.434 1.201-.978 1.746-1.579.384-.426.768-.872 1.117-1.299z"/><path fill="#FFDA8A" d="M66.794 50.45l12.054 10.307c-.126.3-.259.6-.385.9L66.396 51.392l.398-.943z"/><path fill="#E15FA3" d="M78.463 61.657c-.677 1.564-1.354 3.121-2.032 4.686l-12.095-9.987c.684-1.655 1.377-3.31 2.06-4.965l12.067 10.266z"/><path fill="#C4BDDE" d="M76.794 25.476c.056.656-.273 1.096-.761 1.48-.496.377-1.152.706-1.857.978a9.525 9.525 0 0 1-2.403.6c-.928.112-2.018.112-3.163.056a43.169 43.169 0 0 1-3.604-.328 40.684 40.684 0 0 1-3.764-.656c-1.2-.273-2.297-.6-3.603-1.034-1.313-.44-2.841-.984-4.316-1.64-1.473-.65-2.89-1.418-4.308-2.18-1.418-.768-2.843-1.529-4.149-2.297-1.312-.761-2.514-1.523-3.491-2.347-.985-.817-1.753-1.69-2.403-2.45-.656-.769-1.2-1.425-1.529-2.13-.328-.713-.44-1.474-.328-2.13.112-.657.433-1.202.985-1.53.544-.328 1.305-.433 2.178-.545a39.556 39.556 0 0 1 2.898-.272 30.933 30.933 0 0 1 3.22 0c1.09.056 2.179.16 3.324.328 1.152.16 2.353.384 3.443.706 1.09.328 2.074.768 3.331 1.257 1.25.495 2.78 1.04 4.197 1.585 1.425.544 2.731 1.09 3.988 1.746 1.257.656 2.459 1.417 3.548 2.13 1.09.705 2.074 1.361 3.058 2.018.978.656 1.963 1.313 2.724 2.018.768.712 1.313 1.473 1.801 2.29.496.825.929 1.698.984 2.347z"/><path fill="#702671" d="M76.431 66.343c-.265.607-.53 1.208-.789 1.815l-12.116-9.853c.265-.65.538-1.299.81-1.948l12.095 9.986z"/><path fill="#8C55A2" d="M74.33 73.25c5.3-12.229 10.6-24.457 15.907-36.692a.787.787 0 0 1 .223-.3 1.8 1.8 0 0 1 .608-.356 1.56 1.56 0 0 1 .51-.084c.3 0 .593.084.865.217.266.132.51.307.706.523.104.12.195.252.25.399.091.195.12.405.14.621a.802.802 0 0 1-.07.384c-5.293 12.221-10.586 24.442-15.88 36.656-.19.329-.44.628-.775.79-.147.07-.314.11-.468.153-.09.028-.174.05-.265.063-.056.007-.119.007-.175.015-.16.014-.306.035-.46.027a1.387 1.387 0 0 1-.692-.188 1.642 1.642 0 0 1-.475-.503 1.534 1.534 0 0 1-.216-.426 1.227 1.227 0 0 1-.015-.594 2.36 2.36 0 0 1 .258-.663c0-.007.007-.015.007-.021.01-.008.01-.014.016-.022z"/><path fill="#702671" d="M78.855 60.756c3.415-7.877 6.83-15.762 10.244-23.639.154-.349.307-.698.454-1.047a.847.847 0 0 1 .196-.273c.09-.084.174-.153.258-.223l.23-.168c.056-.035.111-.063.16-.09a2.232 2.232 0 0 1 1.627-.266c.608.112 1.006.335 1.439.691.413.336.859.79.9 2.04a.732.732 0 0 1-.062.349c-5.328 12.283-10.65 24.567-15.978 36.851-.489.894-1.145 1.215-1.802 1.382-.655.16-1.312.16-1.801 0-.49-.167-.817-.488-1.146-.984-.272-.405-.544-.929-.251-1.858a4.46 4.46 0 0 1 .251-.6c.692-1.585 1.376-3.178 2.067-4.763.259-.607.524-1.207.79-1.815.677-1.565 1.354-3.122 2.032-4.686.125-.3.258-.6.384-.901h.008zm11.382-24.198C84.93 48.793 79.63 61.021 74.33 73.25c-.007.008-.007.015-.014.021 0 .007-.007.015-.007.021-.112.21-.217.433-.259.663a1.21 1.21 0 0 0 .015.594c.042.147.126.293.216.426.126.195.28.377.475.503.203.126.448.181.692.188.154.008.3-.014.46-.027.056-.008.12-.008.175-.015.09-.014.175-.034.265-.062.154-.043.322-.084.468-.154.336-.16.587-.46.776-.79a159681.08 159681.08 0 0 0 15.88-36.656.81.81 0 0 0 .07-.384c-.021-.216-.05-.426-.14-.621a1.336 1.336 0 0 0-.25-.398 2.377 2.377 0 0 0-.707-.524 1.985 1.985 0 0 0-.865-.216c-.175 0-.35.027-.51.083-.223.07-.426.203-.607.356a.791.791 0 0 0-.225.301z"/><path fill="#8C55A2" d="M53.435 78.76a2.607 2.607 0 0 1-.684.21 1.686 1.686 0 0 1-1.076-.175 1.703 1.703 0 0 1-.341-.252c-.064-.056-.12-.119-.175-.174a3.363 3.363 0 0 1-.223-.223 1.134 1.134 0 0 1-.252-.33.934.934 0 0 1-.084-.46c0-.16.028-.32.071-.481 5.245-12.62 10.495-25.238 15.748-37.864a.806.806 0 0 1 .244-.328 2.23 2.23 0 0 1 .482-.321c.126-.07.258-.12.398-.133.11-.014.223.007.334.028.273.063.531.174.769.307.273.154.523.335.768.538.12.098.245.202.343.328.132.16.222.356.285.559a.753.753 0 0 1-.027.551L54.428 78.02a.752.752 0 0 1-.307.363 5.266 5.266 0 0 1-.686.377z"/><path fill="#E38EBC" d="M64.462 41.252c.042.007.076.014.125.02-.488 1.18-.984 2.368-1.473 3.548L44.426 59.429l-11.878-20.86c1.18-2.849 2.367-5.698 3.554-8.547a63.642 63.642 0 0 0 4.12 2.332c1.697.873 3.772 1.858 6.174 2.947a243.426 243.426 0 0 0 7.095 3.115c1.962.817 3.163 1.257 4.853 1.69 1.697.44 3.876.873 6.118 1.146z"/><path fill="#E476AE" d="M57.946 77.007c-.656.048-1.25.02-2.185-.036 2.583-6.221 5.174-12.443 7.765-18.666l12.116 9.853c-.691 1.586-1.376 3.178-2.067 4.763-.112.217-.19.42-.251.6-1.062.971-2.04 1.299-2.808 1.572-.76.272-1.306.489-2.13.698-.817.203-1.906.391-3.275.53-1.362.133-2.996.217-4.253.343-1.257.12-2.13.287-2.912.343z"/><path fill="#E38EBC" d="M56.997 59.527c-2.36 5.671-4.714 11.348-7.082 17.019-1.194-.126-2.039-.258-2.94-.335-1.02-.084-2.109-.084-3.15-.245-1.033-.16-2.017-.488-3.107-.928-1.096-.433-2.29-.985-3.547-1.53-1.257-.544-2.57-1.09-4.044-1.69-1.473-.6-3.107-1.257-4.525-1.857a55.228 55.228 0 0 1-3.84-1.774c-1.174-.6-2.361-1.277-3.723-2.053A10844309869084740 10844309869084740 0 0 1 29.035 47l10.713 21.404a.772.772 0 0 0 .335.35v-.008c.908.503 1.809.481 2.71.182l14.204-9.4z"/><path fill="#702671" d="M50.6 77.356a.942.942 0 0 0 .084.46c.055.127.153.23.251.33.07.075.147.153.223.222.056.056.112.119.175.175.104.098.217.182.342.25.32.182.713.231 1.075.175a2.59 2.59 0 0 0 .684-.209 4.96 4.96 0 0 0 .684-.377.745.745 0 0 0 .307-.364L70.012 40.54a.753.753 0 0 0 .027-.552 1.643 1.643 0 0 0-.285-.558 2.199 2.199 0 0 0-.342-.329 5.244 5.244 0 0 0-.77-.537 2.947 2.947 0 0 0-.767-.308c-.112-.02-.224-.041-.335-.028-.14.014-.273.063-.398.133a2.23 2.23 0 0 0-.482.321.812.812 0 0 0-.244.329c-5.252 12.626-10.503 25.245-15.748 37.863-.04.162-.068.322-.068.483zm4.218 1.543c-1.41.999-2.34.992-2.968.83-.656-.16-.977-.488-1.39-.9-.412-.405-.9-.901-.572-2.207a.335.335 0 0 0 .028-.076c2.367-5.67 4.72-11.348 7.081-17.019.287-.684.573-1.375.86-2.06l3.142-7.563 2.115-5.084 1.48-3.547c.147-.37.301-.733.454-1.103l.713-1.711a.723.723 0 0 1 .23-.308c.992-.824 1.614-.817 2.179-.663.6.16 1.146.489 1.67.9.475.378.935.832 1.09 1.81a.788.788 0 0 1-.057.44.1.1 0 0 0-.014.041c-.07.168-.146.343-.217.51-.077.175-.147.35-.223.53l-4.023 9.673c-.683 1.655-1.376 3.31-2.06 4.965-.272.65-.544 1.299-.81 1.948-2.59 6.223-5.182 12.445-7.765 18.666-.223.524-.44 1.048-.656 1.572a.759.759 0 0 1-.287.356z"/><path fill="#FFDA8A" d="M44.426 60.735L32.017 39.848c.175-.426.35-.852.53-1.278l11.88 20.859 18.687-14.61c-.705 1.698-1.41 3.388-2.115 5.085l-16.573 10.83z"/><path fill="#E15FA3" d="M42.297 66.224c-.49-.245-.817-.573-1.474-1.557L29.74 45.309v-.007c.762-1.823 1.516-3.639 2.277-5.454l12.41 20.887 16.571-10.831-3.142 7.563-13.758 8.84c-.65.329-1.306.161-1.801-.083z"/><path fill="#B13894" d="M41.808 31.922c1.2.649 2.402 1.305 3.876 2.074 1.473.76 3.219 1.634 5.132 2.402 1.906.761 3.98 1.417 5.782 1.962 1.802.545 3.332.985 4.588 1.257 1.256.273 2.235.377 3.765.545.035 0 .062.007.097.007-.153.37-.307.733-.454 1.103h-.007l-.125-.02a48.634 48.634 0 0 1-6.118-1.145c-1.69-.433-2.891-.873-4.853-1.69a243.426 243.426 0 0 1-7.095-3.115c-2.402-1.09-4.477-2.074-6.173-2.947a63.642 63.642 0 0 1-4.12-2.332c.146-.363.3-.734.446-1.104.028-.056.05-.104.07-.16.74.51 1.23.873 1.914 1.306.872.544 2.074 1.2 3.275 1.857z"/><path fill="#5D53A3" d="M49.72 9.38a35.196 35.196 0 0 0-3.324-.329 30.933 30.933 0 0 0-3.22 0 39.52 39.52 0 0 0-2.898.272c-.873.112-1.634.217-2.178.545-.552.328-.873.873-.985 1.53-.112.656 0 1.417.328 2.13.328.705.873 1.361 1.53 2.13.649.76 1.417 1.633 2.402 2.45.977.824 2.179 1.586 3.491 2.347 1.306.768 2.73 1.53 4.149 2.297 1.417.762 2.835 1.53 4.308 2.18 1.474.656 3.003 1.2 4.316 1.64 1.306.433 2.402.761 3.603 1.034 1.202.272 2.507.496 3.764.656 1.258.168 2.46.273 3.604.328 1.146.056 2.235.056 3.163-.055a9.517 9.517 0 0 0 2.403-.601c.705-.272 1.36-.6 1.857-.978.488-.384.817-.824.761-1.48-.055-.65-.488-1.523-.984-2.347-.49-.817-1.034-1.578-1.802-2.29-.761-.705-1.746-1.362-2.723-2.018-.985-.657-1.97-1.313-3.06-2.018-1.089-.713-2.29-1.474-3.547-2.13-1.257-.657-2.563-1.202-3.987-1.746-1.418-.545-2.947-1.09-4.197-1.585-1.257-.49-2.242-.93-3.332-1.257-1.089-.322-2.29-.545-3.442-.706zm-5.622-2.02h2.73c.985 0 2.075 0 3.22.16 1.146.168 2.347.49 3.5.818 1.145.328 2.233.656 3.38 1.096 1.145.433 2.345.978 3.442 1.418 1.09.433 2.074.76 3.22 1.306 1.145.551 2.45 1.312 3.651 2.025a112.23 112.23 0 0 1 3.332 2.018 88.253 88.253 0 0 1 2.891 1.906c.873.601 1.641 1.146 2.242 1.746.6.6 1.033 1.257 1.417 1.914.384.656.713 1.313.985 1.962.272.656.488 1.313.488 1.97 0 .656-.216 1.305-.544 1.85-.329.552-.769.985-1.313 1.369-.544.384-1.202.705-1.857.984a7.529 7.529 0 0 1-2.347.594c-1.033.112-2.45.112-3.651.056a49.75 49.75 0 0 1-3.22-.273c-1.04-.104-2.13-.216-3.219-.433-1.096-.223-2.186-.544-3.275-.872-1.096-.329-2.185-.657-3.17-.93-.978-.272-1.85-.495-2.78-.816-.928-.329-1.912-.768-2.946-1.257a59.094 59.094 0 0 1-3.115-1.586 58.806 58.806 0 0 1-2.73-1.634c-.873-.544-1.746-1.096-2.675-1.801-.929-.713-1.907-1.586-2.78-2.347-.872-.768-1.64-1.424-2.185-2.018a7.182 7.182 0 0 1-1.145-1.697 12.933 12.933 0 0 1-.657-1.578c-.16-.496-.272-.929-.216-1.53.055-.6.272-1.368.6-2.018.328-.656.761-1.2 1.362-1.53.6-.327 1.369-.439 2.186-.544.817-.112 1.69-.223 2.563-.28.87-.048 1.743-.048 2.616-.048z"/><path fill="#8C55A2" d="M33.19 25.748c.126-.063.266-.119.405-.132.105-.007.224.007.329.034.279.056.53.168.775.308.272.146.523.335.76.53.127.105.245.21.35.336.133.167.223.363.286.572a.754.754 0 0 1-.028.552c-5.188 12.48-10.384 24.966-15.573 37.445a.76.76 0 0 1-.307.37 4.72 4.72 0 0 1-.698.384 2.713 2.713 0 0 1-.691.217c-.364.056-.748 0-1.069-.174a1.837 1.837 0 0 1-.35-.259 3.111 3.111 0 0 0-.174-.167c-.07-.076-.146-.147-.223-.224a1.327 1.327 0 0 1-.252-.334c-.062-.14-.083-.3-.083-.461.007-.16.035-.314.07-.475 5.251-12.633 10.51-25.259 15.76-37.892a.853.853 0 0 1 .26-.335c.139-.106.293-.21.453-.295z"/><path fill="#F9D5E6" d="M41.48 7.41c-.873.056-1.746.167-2.563.28-.817.104-1.586.216-2.186.544-.6.328-1.034.873-1.362 1.53-.328.649-.545 1.417-.6 2.017-.056.601.055 1.034.216 1.53.168.489.384 1.033.656 1.578a7.2 7.2 0 0 0 1.146 1.697c.544.594 1.313 1.25 2.185 2.018.873.761 1.851 1.634 2.78 2.347.929.705 1.802 1.257 2.674 1.801.873.545 1.746 1.09 2.731 1.634.985.545 2.074 1.09 3.115 1.586 1.033.489 2.018.928 2.947 1.257.928.32 1.801.544 2.779.817.985.272 2.074.6 3.17.929 1.09.328 2.18.649 3.275.872 1.09.217 2.179.329 3.22.433 1.033.112 2.017.217 3.219.273 1.2.056 2.618.056 3.651-.056a7.524 7.524 0 0 0 2.347-.594c.655-.279 1.312-.6 1.857-.984.544-.384.984-.817 1.313-1.37.328-.544.544-1.193.544-1.85 0-.656-.216-1.313-.488-1.969a16.73 16.73 0 0 0-.985-1.962c-.384-.657-.817-1.313-1.417-1.914-.6-.6-1.37-1.145-2.242-1.746-.873-.6-1.85-1.25-2.891-1.906a111.334 111.334 0 0 0-3.332-2.018c-1.201-.713-2.507-1.474-3.652-2.025-1.145-.545-2.13-.873-3.219-1.306-1.096-.44-2.297-.985-3.443-1.418-1.146-.44-2.234-.768-3.38-1.096-1.152-.329-2.353-.65-3.499-.817-1.145-.161-2.235-.161-3.22-.161h-2.73c-.873 0-1.744 0-2.616.049zm-9.45 18.157a.777.777 0 0 0-.23.307c.027-.056.055-.112.09-.168-.007 0-.007-.007-.014-.007-1.2-.768-1.857-1.2-2.57-1.857-.705-.657-1.473-1.53-2.346-2.507-.873-.985-1.85-2.081-2.507-2.954-.656-.873-.985-1.523-1.369-2.235-.377-.712-.817-1.473-1.09-2.29a7.913 7.913 0 0 1-.383-2.403c0-.58.077-1.047.216-1.564 0-.007.007-.014.007-.021.14-.321.28-.635.42-.957a.713.713 0 0 0 .062-.342v-.007c.175-.377.377-.747.608-1.096.433-.657.984-1.201 1.473-1.634.489-.44.929-.769 1.474-1.146.544-.384 1.2-.824 1.857-1.096.65-.272 1.306-.377 1.963-.489a19.117 19.117 0 0 1 2.241-.272c.922-.056 2.123-.056 3.22-.056h3.275c1.194 0 2.619 0 3.98.056 1.369.056 2.675.16 4.037.384 1.368.216 2.786.545 4.26.929 1.473.377 3.002.817 4.476 1.25 1.473.44 2.891.873 4.091 1.257a80.87 80.87 0 0 1 3.22 1.09c1.04.383 2.13.823 3.114 1.256.978.44 1.858.873 2.78 1.362.929.496 1.912 1.04 2.897 1.64a97.96 97.96 0 0 1 2.947 1.914c.978.65 1.963 1.306 2.892 2.019.929.705 1.802 1.473 2.786 2.234.977.768 2.074 1.53 2.996 2.29a19.68 19.68 0 0 1 2.402 2.347 23.53 23.53 0 0 1 1.97 2.626c.599.929 1.144 1.906 1.472 2.675.329.76.433 1.305.545 1.85.104.545.217 1.097.273 1.641.055.545.055 1.09-.056 1.69a6.885 6.885 0 0 1-.706 1.97 11.01 11.01 0 0 1-1.48 2.074c-.545.593-1.09 1.033-1.69 1.473-.6.433-1.258.873-1.906 1.145-.657.273-1.313.378-2.075.49-.768.111-1.641.216-2.674.272-1.04.055-2.242.055-3.66.055-1.305 0-2.793 0-4.462-.083 0-.014.007-.028.014-.042a.788.788 0 0 0 .056-.44c-.154-.978-.615-1.432-1.09-1.809-.523-.412-1.068-.74-1.67-.9-.565-.154-1.186-.161-2.178.663a.723.723 0 0 0-.23.307l-.713 1.71c-.035 0-.063-.006-.097-.006-1.53-.168-2.508-.272-3.765-.545-1.257-.272-2.787-.712-4.588-1.257-1.801-.545-3.876-1.201-5.782-1.962-1.913-.768-3.66-1.641-5.133-2.402-1.473-.769-2.674-1.425-3.875-2.074-1.202-.657-2.403-1.313-3.276-1.858-.684-.433-1.173-.796-1.913-1.306.098-.237.203-.482.3-.72a.731.731 0 0 0 .056-.44c-.147-.984-.607-1.438-1.09-1.822-.516-.405-1.06-.733-1.661-.894-.57-.16-1.192-.167-2.191.685z"/><path fill="#702671" d="M56.997 59.527l-14.205 9.4c-.9.3-1.801.321-2.71-.181v.007a.772.772 0 0 1-.334-.35L29.035 47c.196-.468.384-.928.58-1.389.042-.098.084-.202.125-.3l11.083 19.357c.657.985.985 1.314 1.474 1.558.495.244 1.152.412 1.801.083l13.758-8.84c-.287.684-.573 1.374-.86 2.06z"/><path fill="#E15FA3" d="M27.178 36.978c-.734 1.774-1.474 3.548-2.207 5.322h-.007l-17.326.334c.705-1.634 1.418-3.268 2.123-4.902l17.417-.754z"/><path fill="#B13894" d="M55.18 5.392a133.819 133.819 0 0 0-4.475-1.25c-1.474-.384-2.892-.712-4.26-.928-1.362-.224-2.668-.329-4.037-.385-1.361-.055-2.786-.055-3.98-.055h-3.275c-1.097 0-2.298 0-3.22.055-.929.056-1.585.161-2.241.273-.657.112-1.313.216-1.963.489-.656.272-1.313.712-1.857 1.096-.545.377-.985.705-1.474 1.145-.489.433-1.04.978-1.473 1.634-.23.35-.433.72-.608 1.097-.042-1.25-.489-1.704-.9-2.04-.029-.02-.05-.041-.078-.062a5.74 5.74 0 0 1 .329-.524 9.2 9.2 0 0 1 1.585-1.746c.656-.544 1.418-.977 2.13-1.306.705-.328 1.362-.544 2.032-.852.67-.3 1.362-.691 2.828-.887 1.46-.195 3.708-.195 6.188-.195 2.479 0 5.202 0 7.283.14 2.081.14 3.527.419 5.23.782 1.705.356 3.675.789 5.525 1.34 1.857.545 3.603 1.202 5.349 1.851 1.746.657 3.499 1.313 5.02 1.914 1.53.6 2.842 1.145 4.372 1.906 1.53.768 3.275 1.753 4.91 2.73 1.64.985 3.163 1.97 4.364 2.843 1.202.873 2.074 1.634 3.115 2.563 1.033.928 2.234 2.018 3.38 3.163 1.152 1.152 2.242 2.347 3.17 3.548a23.874 23.874 0 0 1 2.235 3.443c.544 1.033.873 1.906.984 2.779.105.873 0 1.746-.167 2.619-.16.88-.377 1.752-.65 2.402-.048.119-.104.23-.154.342-.049.028-.104.056-.16.09a2.313 2.313 0 0 0-.23.169c-.084.07-.168.14-.258.223a.847.847 0 0 0-.196.272c-.147.35-.3.699-.454 1.048-.349.426-.733.873-1.117 1.299-.545.6-1.09 1.145-1.746 1.578-.656.44-1.418.768-2.563 1.04-1.145.273-2.675.49-4.092.657-1.425.16-2.73.272-4.1.272-1.36 0-2.778-.111-4.636-.216-.14-.015-.273-.021-.42-.028.07-.175.147-.356.217-.53.07-.168.147-.343.217-.51 1.67.083 3.157.083 4.463.083 1.417 0 2.618 0 3.659-.056a29.132 29.132 0 0 0 2.675-.272c.76-.112 1.416-.217 2.074-.489.65-.272 1.306-.712 1.905-1.145.601-.44 1.146-.88 1.69-1.474a11.01 11.01 0 0 0 1.48-2.074 6.885 6.885 0 0 0 .707-1.969c.11-.6.11-1.145.056-1.69-.056-.545-.168-1.096-.273-1.641-.112-.545-.217-1.09-.545-1.85-.328-.769-.873-1.747-1.473-2.675a23.616 23.616 0 0 0-1.97-2.626 19.731 19.731 0 0 0-2.4-2.346c-.923-.762-2.02-1.523-2.997-2.291-.984-.761-1.857-1.53-2.786-2.235-.929-.712-1.913-1.368-2.892-2.018A93.93 93.93 0 0 0 71.285 12a58.085 58.085 0 0 0-2.897-1.641 46.64 46.64 0 0 0-2.78-1.362 56.776 56.776 0 0 0-3.114-1.257 81.253 81.253 0 0 0-3.22-1.09 227.59 227.59 0 0 0-4.093-1.257zM31.8 25.875c-.14.342-.279.684-.425 1.02a11.91 11.91 0 0 1-.643-.49 25.954 25.954 0 0 1-3.547-3.324 37.74 37.74 0 0 1-2.675-3.33 34.124 34.124 0 0 1-2.186-3.444c-.6-1.089-1.04-2.074-1.313-2.995a8.925 8.925 0 0 1-.23-1c.349-.802.698-1.612 1.047-2.422a5.66 5.66 0 0 0-.216 1.564c0 .705.112 1.578.384 2.402.272.817.712 1.578 1.09 2.29.383.713.712 1.363 1.368 2.235.656.873 1.634 1.97 2.507 2.954.873.978 1.641 1.851 2.346 2.507.713.657 1.37 1.09 2.57 1.858.007 0 .007.007.014.007a1.61 1.61 0 0 0-.09.168z"/><path fill="#E476AE" d="M10.264 36.565c3.505-8.086 7.011-16.173 10.517-24.253.056.328.132.664.23.999.273.922.713 1.906 1.313 2.996a34.124 34.124 0 0 0 2.186 3.442 37.74 37.74 0 0 0 2.675 3.332 25.954 25.954 0 0 0 3.547 3.324c.203.167.42.328.643.488-.88 2.123-1.767 4.246-2.647 6.37l-18.464 3.302z"/><path fill="#702671" d="M16.514 66.224c-.412-.412-.9-.901-.58-2.214.098-.237.203-.482.3-.72 2.724-6.543 5.448-13.093 8.171-19.636.189-.454.377-.901.559-1.354h.007c.733-1.774 1.473-3.548 2.207-5.322h.007c.516-1.236 1.026-2.479 1.543-3.715.88-2.123 1.767-4.246 2.647-6.369.146-.335.286-.677.426-1.02a.777.777 0 0 1 .23-.307c.999-.852 1.62-.845 2.193-.684.6.16 1.145.489 1.662.894.482.384.943.838 1.09 1.823a.731.731 0 0 1-.057.44c-.097.237-.202.481-.3.719a1.598 1.598 0 0 1-.07.16c-1.334 3.213-2.667 6.425-4.008 9.637v.007c-.175.426-.35.852-.53 1.278-.755 1.823-1.516 3.638-2.27 5.461v.007l-.126.301c-.196.46-.384.921-.58 1.382V47l-7.877 18.94a.611.611 0 0 1-.119.195 1.227 1.227 0 0 1-.167.153c-1.418.999-2.34.992-2.968.838-.657-.168-.985-.49-1.39-.901zm17.081-40.608c-.14.013-.279.07-.405.132-.16.084-.314.189-.454.294a.853.853 0 0 0-.258.335c-5.252 12.633-10.51 25.259-15.762 37.891-.034.16-.062.315-.07.475 0 .161.022.322.084.461.063.126.154.238.252.335.077.077.153.147.223.223.063.056.119.112.175.168.105.098.223.188.35.258.32.175.704.23 1.068.175.237-.035.467-.119.69-.217.238-.104.476-.238.7-.384a.763.763 0 0 0 .306-.37c5.19-12.48 10.385-24.966 15.573-37.445a.754.754 0 0 0 .028-.552 1.698 1.698 0 0 0-.286-.573 2.642 2.642 0 0 0-.35-.335 4.79 4.79 0 0 0-.76-.53 2.57 2.57 0 0 0-.775-.308 1.094 1.094 0 0 0-.329-.033z"/><path fill="#FFDA8A" d="M10.264 36.565l18.464-3.303c-.517 1.236-1.027 2.48-1.543 3.715h-.007l-17.417.755.503-1.167z"/><path fill="#702671" d="M24.405 43.654L7.22 43.598l.42-.964 17.325-.334c-.182.453-.37.9-.559 1.354z"/><path fill="#E476AE" d="M5.103 46.922a2.43 2.43 0 0 0 .629-.432c.049-.043.097-.091.146-.147v-.008c.07-.076.14-.16.203-.25.007-.007.007-.015.014-.021.063-.091.125-.189.181-.294.315-.726.629-1.445.943-2.172l17.186.056-8.17 19.638c-.755-.517-1.25-.957-2.053-1.725-.971-.936-2.396-2.354-3.59-3.723-1.201-1.361-2.186-2.674-3.087-4.308-.9-1.641-1.718-3.604-2.402-6.614z"/><path fill="#8C55A2" d="M19.021 6.684c.16-.056.335-.084.51-.077.3 0 .593.084.866.217.265.126.51.3.705.524.105.118.196.251.258.39.091.217.12.455.133.7a.863.863 0 0 1-.063.37c-5.3 12.2-10.594 24.4-15.887 36.6-.188.321-.44.628-.775.781a2.07 2.07 0 0 1-.468.16c-.09.022-.175.043-.265.057a1.47 1.47 0 0 1-.175.014c-.154.014-.307.035-.46.035a1.408 1.408 0 0 1-.692-.195c-.196-.119-.35-.307-.475-.503a1.644 1.644 0 0 1-.217-.426 1.19 1.19 0 0 1-.013-.587c.048-.237.153-.454.258-.67 0-.008.007-.008.007-.015.007-.007.007-.014.014-.02 5.3-12.236 10.6-24.463 15.908-36.691a.812.812 0 0 1 .223-.308c.189-.147.385-.28.608-.356z"/><path fill="#702671" d="M19.53 6.607a1.391 1.391 0 0 0-.509.077c-.223.076-.419.21-.608.356a.812.812 0 0 0-.223.307A56337.341 56337.341 0 0 0 2.282 44.038c-.007.007-.007.014-.014.02 0 .008-.007.008-.007.015-.105.217-.21.433-.258.67a1.19 1.19 0 0 0 .013.587c.05.154.126.294.217.426.126.195.28.384.475.503.202.126.447.189.691.196.154 0 .307-.021.461-.036.056 0 .119-.007.175-.014.09-.015.174-.035.265-.056.16-.042.321-.084.468-.16.335-.154.587-.46.775-.782 5.293-12.2 10.587-24.4 15.887-36.6a.863.863 0 0 0 .063-.37c-.014-.245-.042-.482-.133-.699a1.583 1.583 0 0 0-.258-.391 2.164 2.164 0 0 0-.705-.524 1.985 1.985 0 0 0-.866-.216zm-1.829-.028c.929-.86 1.704-.852 2.284-.747.565.104.95.314 1.354.628.028.021.05.042.077.063.412.335.86.79.901 2.04v.006a.713.713 0 0 1-.063.342l-.419.957c0 .007-.007.014-.007.021-.349.81-.698 1.62-1.047 2.423-3.506 8.08-7.012 16.167-10.517 24.253l-.503 1.167C9.056 39.366 8.343 41 7.638 42.634l-.419.964c-.314.726-.628 1.445-.943 2.172a2.986 2.986 0 0 1-.181.293c-.007.007-.007.015-.014.02a2.243 2.243 0 0 1-.203.251v.008l-.146.147a2.413 2.413 0 0 1-.629.433 2.705 2.705 0 0 1-.628.223c-.657.167-1.306.167-1.802 0-.489-.16-.817-.489-1.145-.977-.329-.496-.657-1.146 0-2.46C6.856 31.426 12.184 19.142 17.513 6.852a.745.745 0 0 1 .188-.272z"/><g fill="none" stroke="#000" stroke-width=".392" stroke-linecap="round" stroke-linejoin="round"><path d="M21.04 66.134c1.36.775 2.548 1.452 3.721 2.052a55.228 55.228 0 0 0 3.841 1.774c1.418.6 3.052 1.258 4.525 1.858 1.474.6 2.787 1.145 4.044 1.69 1.257.544 2.45 1.096 3.547 1.529 1.09.44 2.074.768 3.108.929 1.04.16 2.13.16 3.15.244.9.077 1.745.21 2.94.335M5.103 46.922c.684 3.01 1.502 4.973 2.402 6.614.901 1.634 1.886 2.947 3.087 4.308 1.194 1.37 2.619 2.787 3.59 3.723.803.768 1.298 1.207 2.053 1.725M55.76 76.971c.936.056 1.53.084 2.186.036.782-.056 1.655-.224 2.912-.342 1.257-.127 2.891-.21 4.253-.343 1.369-.14 2.46-.328 3.275-.53.824-.21 1.37-.426 2.13-.699.769-.273 1.746-.6 2.808-1.57M63.114 44.82l1.48-3.548m5.825.448l-4.023 9.671M29.615 45.61c-.196.46-.384.92-.58 1.389m7.067-16.976a4430.12 4430.12 0 0 0-3.554 8.547c-.182.426-.356.852-.531 1.278-.761 1.816-1.515 3.632-2.277 5.454M5.878 46.343a1.528 1.528 0 0 1-.146.147m.348-.406a2.215 2.215 0 0 1-.202.251m.398-.565a2.986 2.986 0 0 1-.181.293"/><path d="M70.419 41.72l-3.624 8.73-.398.942c-.684 1.655-1.376 3.31-2.06 4.965-.273.65-.544 1.299-.81 1.948-2.59 6.223-5.182 12.445-7.765 18.666-.224.524-.44 1.048-.657 1.572a.753.753 0 0 1-.286.356c-1.41.999-2.34.992-2.968.83-.656-.16-.977-.488-1.389-.9-.412-.405-.9-.901-.572-2.207a.335.335 0 0 0 .028-.076c2.367-5.67 4.72-11.348 7.08-17.019.287-.684.573-1.375.86-2.06L61 49.904l2.115-5.084c.49-1.179.985-2.367 1.474-3.547m6.053-.083c-.07.174-.147.355-.216.53m-5.378-1.551l.713-1.711a.723.723 0 0 1 .23-.307c.992-.824 1.614-.817 2.179-.664.6.16 1.146.49 1.67.901.475.377.935.831 1.09 1.809a.788.788 0 0 1-.057.44.1.1 0 0 0-.014.042m-41.119 4.63c-.041.098-.083.202-.125.3-.196.46-.384.922-.58 1.383m3.505-8.429c-.174.426-.348.852-.53 1.278-.754 1.823-1.515 3.638-2.27 5.461m6.81-16.383c-1.335 3.212-2.668 6.424-4.01 9.637m-.74-12.681a.777.777 0 0 1 .231-.308c.999-.852 1.62-.845 2.193-.684.6.16 1.145.489 1.662.894.482.384.943.838 1.09 1.823a.731.731 0 0 1-.057.44c-.097.237-.202.481-.3.719m-9.434 8.219c.516-1.236 1.026-2.479 1.543-3.715.88-2.123 1.767-4.246 2.647-6.369M24.97 42.3c.734-1.774 1.474-3.548 2.208-5.322m1.857 10.021l-7.877 18.939a.611.611 0 0 1-.119.195 1.227 1.227 0 0 1-.167.154c-1.418.998-2.34.991-2.968.838-.657-.168-.985-.49-1.39-.901-.412-.412-.9-.901-.58-2.214.098-.237.203-.482.3-.72 2.724-6.543 5.448-13.093 8.171-19.636.189-.454.377-.901.559-1.354m53.891 18.456c3.415-7.877 6.83-15.762 10.244-23.639"/><path d="M90.398 35.316a2.232 2.232 0 0 1 1.627-.265c.608.111 1.006.335 1.439.691.412.335.859.79.9 2.04a.732.732 0 0 1-.062.348c-5.329 12.284-10.65 24.568-15.978 36.852-.489.894-1.145 1.215-1.802 1.382-.656.16-1.313.16-1.802 0-.488-.167-.817-.488-1.145-.984-.272-.405-.545-.93-.251-1.858a4.46 4.46 0 0 1 .251-.6c.691-1.586 1.376-3.178 2.067-4.763.259-.607.524-1.207.79-1.816.677-1.564 1.354-3.121 2.031-4.686.126-.3.259-.6.385-.9m11.159-25.183l.23-.168M20.78 12.312c-3.505 8.08-7.01 16.167-10.516 24.253l-.503 1.167C9.056 39.366 8.343 41 7.638 42.634l-.419.964c-.314.726-.628 1.445-.943 2.172a2.986 2.986 0 0 1-.181.293c-.007.007-.007.015-.014.02a2.243 2.243 0 0 1-.203.251v.008l-.146.147a2.413 2.413 0 0 1-.629.433 2.705 2.705 0 0 1-.628.223c-.657.167-1.306.167-1.802 0-.489-.16-.817-.489-1.145-.977-.329-.496-.657-1.146 0-2.46C6.856 31.426 12.184 19.142 17.513 6.852a.736.736 0 0 1 .188-.273c.929-.859 1.704-.852 2.284-.747.565.105.95.314 1.354.628m43.255 34.812c.147-.37.301-.732.454-1.103-.035 0-.062-.007-.097-.007-1.53-.168-2.508-.272-3.765-.545-1.257-.272-2.786-.712-4.588-1.257-1.801-.545-3.876-1.201-5.782-1.962-1.913-.768-3.659-1.641-5.132-2.402-1.474-.769-2.675-1.425-3.876-2.074-1.201-.657-2.403-1.313-3.275-1.858-.685-.433-1.174-.796-1.914-1.306a1.598 1.598 0 0 1-.07.16c-.146.37-.3.74-.447 1.104a63.642 63.642 0 0 0 4.12 2.332c1.697.873 3.772 1.858 6.174 2.947a243.426 243.426 0 0 0 7.095 3.115c1.962.817 3.163 1.257 4.853 1.69a48.53 48.53 0 0 0 6.118 1.145c.042.007.076.014.125.02h.007v.001zM21.828 9.889c-.349.81-.698 1.62-1.047 2.423.056.328.132.664.23.999.273.922.713 1.906 1.313 2.996a34.124 34.124 0 0 0 2.186 3.442 37.74 37.74 0 0 0 2.675 3.332 25.954 25.954 0 0 0 3.547 3.324c.203.167.42.328.643.488.146-.335.286-.677.426-1.02.027-.055.055-.11.09-.167-.007 0-.007-.007-.014-.007-1.2-.768-1.857-1.2-2.57-1.857-.705-.657-1.473-1.53-2.346-2.507-.873-.985-1.85-2.081-2.507-2.954-.656-.873-.985-1.523-1.369-2.235-.377-.712-.817-1.473-1.09-2.29a7.913 7.913 0 0 1-.383-2.403c0-.579.077-1.047.216-1.564"/><path d="M22.317 8.563a8.46 8.46 0 0 1 .608-1.097c.433-.656.984-1.2 1.473-1.634.489-.44.929-.768 1.474-1.145.544-.384 1.2-.824 1.857-1.096.65-.273 1.306-.377 1.963-.49a19.117 19.117 0 0 1 2.241-.272c.922-.055 2.123-.055 3.22-.055h3.275c1.194 0 2.619 0 3.98.055 1.369.056 2.675.161 4.037.385 1.368.216 2.786.544 4.26.928 1.473.377 3.002.817 4.476 1.25 1.473.44 2.891.873 4.091 1.257a80.87 80.87 0 0 1 3.22 1.09c1.04.384 2.13.824 3.114 1.257.978.44 1.858.873 2.78 1.362.929.495 1.912 1.04 2.897 1.64.978.601 1.963 1.258 2.947 1.914.978.65 1.963 1.306 2.892 2.018.929.706 1.802 1.474 2.786 2.235.977.768 2.074 1.53 2.996 2.29a19.68 19.68 0 0 1 2.402 2.347 23.53 23.53 0 0 1 1.97 2.626c.599.928 1.144 1.906 1.472 2.674.329.761.433 1.306.545 1.85.104.546.217 1.097.273 1.642.055.545.055 1.09-.056 1.69a6.885 6.885 0 0 1-.706 1.97 11.01 11.01 0 0 1-1.48 2.073c-.545.594-1.09 1.034-1.69 1.474-.6.433-1.258.873-1.906 1.145-.657.272-1.313.377-2.075.489-.768.112-1.641.216-2.674.272-1.04.056-2.242.056-3.66.056-1.305 0-2.793 0-4.462-.084-.07.168-.146.343-.217.51-.077.175-.147.35-.223.53h.007c.147.008.279.015.42.029 1.857.104 3.274.216 4.636.216 1.369 0 2.675-.111 4.1-.272 1.417-.168 2.947-.384 4.092-.656 1.144-.273 1.905-.601 2.563-1.041.656-.433 1.2-.978 1.745-1.578.384-.426.769-.873 1.118-1.3.154-.348.307-.697.454-1.047a.847.847 0 0 1 .195-.272c.091-.084.175-.154.259-.223a2.13 2.13 0 0 1 .23-.168c.055-.035.111-.063.16-.09.049-.113.105-.224.154-.343.273-.65.488-1.522.65-2.402.167-.873.272-1.746.167-2.62-.111-.872-.44-1.745-.984-2.778a23.874 23.874 0 0 0-2.235-3.443c-.929-1.201-2.019-2.396-3.17-3.548-1.146-1.145-2.347-2.235-3.38-3.163-1.04-.93-1.914-1.69-3.115-2.563-1.202-.873-2.724-1.858-4.365-2.842-1.634-.978-3.38-1.963-4.909-2.73-1.53-.762-2.842-1.307-4.372-1.907-1.523-.601-3.275-1.257-5.02-1.914-1.746-.65-3.492-1.306-5.35-1.85-1.85-.552-3.82-.985-5.524-1.341-1.703-.363-3.15-.643-5.23-.782-2.081-.14-4.805-.14-7.284-.14s-4.728 0-6.187.195c-1.467.196-2.158.587-2.828.887-.67.308-1.327.524-2.033.852-.712.329-1.473.762-2.13 1.306a9.2 9.2 0 0 0-1.585 1.746 5.74 5.74 0 0 0-.328.524c.028.02.049.042.077.063.413.335.86.789.902 2.039v.007a.713.713 0 0 1-.063.342l-.419.957c0 .007-.007.014-.007.02m-.335-1.453a.863.863 0 0 1-.063.37c-5.3 12.2-10.594 24.4-15.887 36.601-.188.321-.44.628-.775.782a2.173 2.173 0 0 1-.468.16c-.09.021-.175.042-.265.056a1.47 1.47 0 0 1-.175.014c-.154.015-.307.036-.46.036a1.408 1.408 0 0 1-.692-.196c-.196-.119-.35-.307-.475-.503a1.644 1.644 0 0 1-.217-.426 1.19 1.19 0 0 1-.013-.586c.048-.238.153-.454.258-.67 0-.008.007-.008.007-.015.007-.007.007-.014.014-.02A52657.7 52657.7 0 0 1 18.19 7.347a.812.812 0 0 1 .223-.307c.189-.147.385-.28.608-.356.16-.056.335-.084.51-.077.3 0 .593.084.866.216.265.126.51.3.705.524.105.119.196.251.258.391.091.217.12.454.133.698zm-.999 56.957a.76.76 0 0 1-.307.37 4.72 4.72 0 0 1-.698.384 2.713 2.713 0 0 1-.691.217c-.364.056-.748 0-1.069-.174a1.837 1.837 0 0 1-.35-.259 3.111 3.111 0 0 0-.174-.167c-.07-.076-.146-.147-.223-.224a1.327 1.327 0 0 1-.252-.334c-.062-.14-.083-.3-.083-.461.007-.16.035-.314.07-.475 5.251-12.633 10.51-25.259 15.76-37.892a.853.853 0 0 1 .26-.335c.139-.105.293-.21.453-.293.126-.063.266-.12.405-.133.105-.007.224.007.329.035.279.056.53.167.775.307.272.147.523.335.76.53.127.106.245.21.35.336.133.168.223.363.286.573a.754.754 0 0 1-.028.551C30.88 40.427 25.683 52.914 20.494 65.393z"/><path d="M70.042 39.988a.753.753 0 0 1-.028.552L54.427 78.019a.752.752 0 0 1-.307.364c-.216.14-.447.272-.684.377a2.607 2.607 0 0 1-.684.21 1.686 1.686 0 0 1-1.075-.175 1.703 1.703 0 0 1-.342-.252c-.063-.056-.12-.119-.174-.174a3.363 3.363 0 0 1-.224-.223 1.134 1.134 0 0 1-.251-.33.934.934 0 0 1-.084-.46c0-.16.028-.32.07-.481 5.245-12.62 10.496-25.238 15.748-37.864a.806.806 0 0 1 .244-.328 2.23 2.23 0 0 1 .482-.321c.126-.07.259-.12.398-.133a1.09 1.09 0 0 1 .335.028c.272.063.53.174.768.307.273.154.524.335.769.538.119.098.244.202.342.328.13.16.22.355.284.558zM74.33 73.25c5.3-12.229 10.6-24.457 15.907-36.692a.787.787 0 0 1 .223-.3 1.8 1.8 0 0 1 .608-.356 1.56 1.56 0 0 1 .51-.084c.3 0 .593.084.865.217.266.132.51.307.706.523.104.12.195.252.25.399.091.195.12.405.14.621a.802.802 0 0 1-.07.384c-5.293 12.221-10.586 24.442-15.88 36.656-.19.329-.44.628-.775.79-.147.07-.314.11-.468.153-.09.028-.174.05-.265.063-.056.007-.119.007-.175.015-.16.014-.306.035-.46.027a1.387 1.387 0 0 1-.692-.188 1.642 1.642 0 0 1-.475-.503 1.534 1.534 0 0 1-.216-.426 1.227 1.227 0 0 1-.015-.594 2.36 2.36 0 0 1 .258-.663c0-.007.007-.015.007-.021.01-.008.01-.014.016-.022zm-34.582-4.847a.772.772 0 0 0 .335.35m0-.007c.908.502 1.809.48 2.71.181M29.035 46.992v.007l10.713 21.404m23.778-10.098l12.116 9.853M64.336 56.357l12.095 9.986m-35.608-1.676c.657.984.985 1.313 1.474 1.557.495.244 1.152.412 1.801.084m-1.306 2.619l14.205-9.4m-12.899 6.781l13.758-8.841M29.74 45.302v.007l11.083 19.358M7.22 43.598l17.185.056m-16.767-1.02l17.326-.334h.007m41.823 8.15l12.054 10.306h.007m-12.459-9.365l12.067 10.266m-34.037-.922l16.572-10.831m-16.572 9.525l18.688-14.61M32.54 38.556v.007l.008.007 11.878 20.859M32.01 39.841l.007.007 12.41 20.887M9.761 37.732l17.417-.754h.007m-16.921-.413l18.464-3.303M38.1 9.868c.544-.328 1.305-.433 2.178-.545a39.556 39.556 0 0 1 2.898-.272 30.933 30.933 0 0 1 3.22 0c1.09.056 2.179.16 3.324.328 1.152.16 2.353.384 3.443.706 1.09.328 2.074.768 3.331 1.257 1.25.495 2.78 1.04 4.197 1.585 1.425.544 2.731 1.09 3.988 1.746 1.257.656 2.459 1.417 3.548 2.13 1.09.705 2.074 1.361 3.058 2.018.978.656 1.963 1.313 2.724 2.018.768.712 1.313 1.473 1.801 2.29.496.824.93 1.697.985 2.347.055.656-.273 1.096-.762 1.48-.496.377-1.151.706-1.857.978a9.525 9.525 0 0 1-2.402.6c-.929.112-2.018.112-3.163.056a43.169 43.169 0 0 1-3.604-.328 40.684 40.684 0 0 1-3.764-.656c-1.201-.273-2.297-.6-3.603-1.034-1.313-.44-2.842-.984-4.316-1.64-1.473-.65-2.891-1.418-4.309-2.18-1.417-.768-2.842-1.529-4.148-2.297-1.313-.761-2.514-1.523-3.492-2.347-.984-.817-1.752-1.69-2.402-2.45-.656-.769-1.201-1.425-1.53-2.13-.327-.713-.44-1.474-.327-2.13.11-.657.432-1.202.984-1.53z"/><path d="M35.37 9.763a5.989 5.989 0 0 0-.602 2.018c-.055.601.056 1.034.217 1.53.168.489.384 1.033.656 1.578a7.2 7.2 0 0 0 1.146 1.697c.544.594 1.313 1.25 2.185 2.018.873.761 1.851 1.634 2.78 2.347.929.705 1.802 1.257 2.674 1.801.873.545 1.746 1.09 2.731 1.634.985.545 2.074 1.09 3.115 1.586 1.033.489 2.018.928 2.947 1.257.928.32 1.801.544 2.779.817.985.272 2.074.6 3.17.929 1.09.328 2.18.649 3.275.872 1.09.217 2.179.329 3.22.433 1.033.112 2.017.217 3.219.273 1.2.056 2.618.056 3.651-.056a7.524 7.524 0 0 0 2.347-.594c.655-.279 1.312-.6 1.857-.984.544-.384.984-.817 1.313-1.37.328-.544.544-1.193.544-1.85 0-.656-.216-1.313-.488-1.969a16.73 16.73 0 0 0-.985-1.962c-.384-.657-.817-1.313-1.417-1.914-.6-.6-1.37-1.145-2.242-1.746-.873-.6-1.85-1.25-2.891-1.906a111.334 111.334 0 0 0-3.332-2.018c-1.201-.713-2.507-1.474-3.652-2.025-1.145-.545-2.13-.873-3.219-1.306-1.096-.44-2.297-.985-3.443-1.418-1.146-.44-2.234-.768-3.38-1.096-1.152-.329-2.353-.65-3.499-.817-1.145-.161-2.235-.161-3.22-.161h-2.73c-.873 0-1.746 0-2.619.049a35.29 35.29 0 0 0-2.562.28c-.818.104-1.586.216-2.186.544-.599.329-1.032.873-1.36 1.53z"/></g></svg>