<svg version="1.1" width="303" height="188" viewBox="-1 -1 303 188" xmlns="http://www.w3.org/2000/svg" xmlns:xlink="http://www.w3.org/1999/xlink">
  <!-- Exported by Scratch - http://scratch.mit.edu/ -->
  <g id="ID0.7039105915464461" transform="matrix(0.7737809419631958, 0, 0, 0.7737809419631958, -135.15, -96.25)">
    <g id="ID0.558777361176908" transform="matrix(1, 0, 0, 1, 175, 125)">
      <g id="ID0.7402975359000266">
        <path id="ID0.20894866762682796" fill="none" stroke="#000000" stroke-width="2" d="M 208.800 182.200 L 254.400 208.700 " transform="matrix(1, 0, 0, 1, -175, -125)"/>
        <path id="ID0.4165946766734123" fill="none" stroke="#000000" stroke-width="2" d="M 301 168.500 L 254.400 208.700 " transform="matrix(1, 0, 0, 1, -175, -125)"/>
        <path id="ID0.16853598644956946" fill="none" stroke="#000000" stroke-width="2" d="M 276.500 179.300 L 254.400 208.700 " transform="matrix(1, 0, 0, 1, -175, -125)"/>
      </g>
      <g id="ID0.48939482774585485">
        <path id="ID0.9035294633358717" fill="#FF9400" stroke="#000000" d="M 299.200 150 L 301.800 166.900 C 302.700 172.700 282.500 180.700 256.600 184.600 C 230.800 188.500 209.100 187 208.200 181.200 L 205.600 164.300 C 206.500 170.100 228.200 171.700 254 167.700 C 279.900 163.800 300.100 155.900 299.200 150 Z " transform="matrix(1, 0, 0, 1, -175, -125)"/>
      </g>
      <path id="ID0.9226274066604674" fill="none" stroke="#000000" stroke-width="2" d="M 254.400 208.700 L 254.400 262 " transform="matrix(1, 0, 0, 1, -175, -125)"/>
      <path id="ID0.9375987756066024" fill="none" stroke="#000000" stroke-width="2" d="M 254.400 262 L 214.900 285.400 " transform="matrix(1, 0, 0, 1, -175, -125)"/>
      <path id="ID0.27987909922376275" fill="none" stroke="#000000" stroke-width="2" d="M 254.400 262 L 267.300 288.900 " transform="matrix(1, 0, 0, 1, -175, -125)"/>
      <path id="ID0.18838985497131944" fill="none" stroke="#000000" stroke-width="2" d="M 254.400 262 L 286.100 282.200 " transform="matrix(1, 0, 0, 1, -175, -125)"/>
    </g>
    <path id="ID0.22352483216673136" fill="none" stroke="#000000" stroke-linecap="round" d="M 206.600 165.300 L 224.300 185.700 "/>
    <path id="ID0.03857615264132619" fill="#FFFFCC" stroke="#000000" d="M 252.400 146.500 C 265.450 146.500 277.275 147.699 285.837 149.636 C 294.400 151.573 299.700 154.248 299.700 157.200 C 299.700 160.152 294.400 162.827 285.837 164.764 C 277.275 166.701 265.450 167.900 252.400 167.900 C 239.350 167.900 227.525 166.701 218.963 164.764 C 210.400 162.827 205.100 160.152 205.100 157.200 C 205.100 154.248 210.400 151.573 218.963 149.636 C 227.525 147.699 239.350 146.500 252.400 146.500 Z " transform="matrix(0.9884999990463257, -0.15109999477863312, 0.15109999477863312, 0.9884999990463257, -20.85, 39.8)"/>
    <path id="ID0.388675969094038" fill="none" stroke="#000000" stroke-linecap="round" d="M 235.500 169.900 L 224.600 185.700 "/>
    <path id="ID0.43572661094367504" fill="none" stroke="#000000" stroke-linecap="round" d="M 235.500 169.900 L 252.400 185.200 "/>
    <path id="ID0.05912744486704469" fill="none" stroke="#000000" stroke-linecap="round" d="M 265 165.800 L 252.400 185.200 "/>
    <path id="ID0.3816235833801329" fill="none" stroke="#000000" stroke-linecap="round" d="M 265 165.800 L 280.200 179.500 "/>
    <path id="ID0.7488025720231235" fill="none" stroke="#000000" stroke-linecap="round" d="M 208.600 167.600 L 206.900 172.700 "/>
    <path id="ID0.19978509889915586" fill="none" stroke="#000000" stroke-linecap="round" d="M 286.800 159.500 L 280.200 179.500 "/>
    <path id="ID0.049085416831076145" fill="none" stroke="#000000" stroke-linecap="round" d="M 286.800 159.500 L 300.600 169.900 "/>
    <path id="ID0.7357262005098164" fill="none" stroke="#000000" stroke-linecap="round" d="M 300.300 157.200 L 300.600 169.500 "/>
    <g id="ID0.09616521233692765" transform="matrix(1, 0, 0, 1, 175, 125)">
      <path id="ID0.3045292622409761" fill="#995900" d="M 242.800 155.800 L 242.800 155.800 C 241.400 156.200 240.700 154.700 240.200 152.800 L 217.300 75.400 C 216.800 73.500 217.500 71.600 218.900 71.200 L 218.900 71.200 C 220.300 70.800 221.900 72 222.500 73.900 L 243.500 151.900 C 244 153.800 244.200 155.400 242.800 155.800 Z " transform="matrix(0.01487149577587843, -0.9998894333839417, 0.9998894333839417, 0.01487149577587843, -74.25, 245.2)"/>
      <path id="ID0.8629519487731159" fill="#995900" d="M 243.200 152.200 C 243.945 152.200 244.620 152.760 245.109 153.665 C 245.597 154.571 245.900 155.821 245.900 157.200 C 245.900 158.579 245.597 159.829 245.109 160.735 C 244.620 161.640 243.945 162.200 243.200 162.200 C 242.455 162.200 241.780 161.640 241.291 160.735 C 240.803 159.829 240.500 158.579 240.500 157.200 C 240.500 155.821 240.803 154.571 241.291 153.665 C 241.780 152.760 242.455 152.200 243.200 152.200 Z " transform="matrix(-0.2573576271533966, -0.9663342237472534, 0.9663342237472534, -0.2573576271533966, -2.8, 279.8)"/>
    </g>
    <g id="ID0.658003724180162" transform="matrix(1, 0, 0, 1, 175, 125)">
      <path id="ID0.7160823177546263" fill="#995900" d="M 262.800 150.900 L 262.800 150.900 C 263.200 149.500 261.700 148.800 259.800 148.300 L 182.400 125.300 C 180.500 124.800 178.600 125.500 178.200 126.900 L 178.200 126.900 C 177.800 128.300 179 129.900 180.900 130.500 L 258.800 151.600 C 260.800 152.100 262.400 152.300 262.800 150.900 Z " transform="matrix(1, 0, 0, 1, -175, -125)"/>
      <path id="ID0.07802767539396882" fill="#995900" d="M 264.200 146.300 C 264.945 146.300 265.620 146.860 266.109 147.765 C 266.597 148.671 266.900 149.921 266.900 151.300 C 266.900 152.679 266.597 153.929 266.109 154.835 C 265.620 155.740 264.945 156.300 264.200 156.300 C 263.455 156.300 262.780 155.740 262.291 154.835 C 261.803 153.929 261.500 152.679 261.500 151.300 C 261.500 149.921 261.803 148.671 262.291 147.765 C 262.780 146.860 263.455 146.300 264.200 146.300 Z " transform="matrix(0.273499995470047, -0.961899995803833, 0.961899995803833, 0.273499995470047, -128.6, 239)"/>
    </g>
  </g>
</svg>