<svg width="303" height="188" viewBox="-1 -1 303 188" xmlns="http://www.w3.org/2000/svg"><path d="M26.415 44.733L61.7 65.238m36.058-31.106L61.7 65.238m17.1-22.749l-17.1 22.75" stroke-width="1.548" fill="none" stroke="#000"/><path fill="#FF9400" stroke="#000" d="M96.365 19.817l2.012 13.077c.696 4.488-14.934 10.678-34.975 13.696-19.963 3.018-36.754 1.857-37.45-2.63l-2.013-13.078c.697 4.488 17.488 5.726 37.451 2.631 20.041-3.018 35.672-9.13 34.975-13.696z" stroke-width=".774"/><path fill="none" stroke="#000" stroke-width="1.548" d="M61.7 65.238v41.243m0-.001l-30.564 18.107M61.7 106.48l9.982 20.815M61.7 106.48l24.529 15.631"/><path fill="none" stroke="#000" stroke-linecap="round" d="M24.713 31.656L38.41 47.441" stroke-width=".774"/><path fill="#FFC" stroke="#000" d="M58.902 17.092c9.981-1.526 19.166-1.992 25.942-1.511 6.776.48 11.142 1.907 11.487 4.165.346 2.258-3.395 4.923-9.719 7.406-6.322 2.483-15.227 4.782-25.208 6.308-9.982 1.526-19.167 1.991-25.942 1.51-6.777-.48-11.143-1.906-11.488-4.164-.346-2.258 3.396-4.924 9.719-7.406 6.322-2.483 15.227-4.783 25.209-6.308z" stroke-width=".774"/><path fill="none" stroke="#000" stroke-linecap="round" d="M47.075 35.215l-8.434 12.226m8.434-12.226l13.077 11.84m9.75-15.012l-9.75 15.011m9.75-15.011l11.761 10.6M26.26 33.436l-1.315 3.946M86.77 27.168l-5.107 15.476m5.107-15.476l10.679 8.047m-.233-9.827l.233 9.518" stroke-width=".774"/><g fill="#995900"><path d="M66.144 4.143c.294 1.088-.875 1.612-2.35 1.977L3.645 22.947C2.17 23.312.708 22.75.414 21.661c-.293-1.088.654-2.312 2.13-2.754l60.59-15.35c1.477-.365 2.717-.501 3.01.586z"/><path d="M63.47 4.82c-.15-.558.135-1.174.715-1.72.58-.545 1.454-1.02 2.485-1.295 1.031-.275 2.026-.297 2.801-.113.774.186 1.327.579 1.476 1.136.148.557-.136 1.173-.716 1.72-.58.545-1.454 1.02-2.485 1.295-1.032.274-2.027.297-2.801.112s-1.327-.578-1.476-1.136z"/></g><g fill="#995900"><path d="M68.2 20.514c.31-1.084-.852-1.625-2.322-2.012L5.988.705c-1.47-.387-2.94.155-3.25 1.238-.31 1.083.619 2.321 2.089 2.785l60.278 16.327c1.547.387 2.785.542 3.095-.541z"/><path d="M65.557 19.724c.158-.555.717-.939 1.494-1.111.778-.172 1.772-.133 2.799.16 1.026.29 1.892.781 2.464 1.336.57.555.844 1.176.686 1.73-.158.555-.717.94-1.494 1.112-.778.171-1.773.132-2.799-.16-1.026-.292-1.893-.782-2.464-1.337-.57-.555-.844-1.176-.686-1.73z"/></g></svg>