<svg width="68" height="77" xmlns="http://www.w3.org/2000/svg"><path fill="#0CC" d="M67.299 59.225c.85 3.81.01 6.71-1.05 8.65-2.71 5.17-7.69 8.25-13.39 8.25-1.09 0-2.23-.11-3.46-.35h-4.47c-1.17 0-3.37-.07-8.85-.68-3.25-.37-6-.55-8.16-.55h-5.44c-.14.01-.63.04-1.8.16-1.83.19-3.22.28-4.39.28-3.4 0-6.44-.7-9.03-2.07-.17-.09-.33-.19-.5-.28-1.74-1.05-5.79-4.18-5.79-10.76 0-3.55 1.32-6.83 3.71-9.24 1.16-1.18 2.5-2.14 3.97-2.87-3.31-3.62-4.31-8.75-2.52-13.6.7-1.85 1.73-3.47 3.05-4.84-6-2.02-8.89-7.09-9.08-11.99-.51-3.77.96-7.6 4.01-10.05 3.02-2.43 6.66-3.85 10.52-4.13.25-.01.51-.02.77-.02h3.07c6.61-.12 17.83-1.75 33.34-4.85 2-.45 4.07-.37 6.27.26 1.02.29 3.33.96 5.4 2.99.44.43.83.89 1.19 1.38 1.38 1.9 2.33 4.04 2.83 6.36.21 1.01.28 2.03.21 3.05-.12 1.89-.05 3.98.21 6.21a11 11 0 0 1-1.92 7.65c-2.39 3.38-6.04 5.52-10.24 6.04.01.18.02.37.02.55v.85c3.09.29 5.93 1.6 8.1 3.76 3.57 3.59 3.6 8.03 3.44 10.32.18 1.2.24 1.98.24 2.75 0 .93-.09 1.95-.29 3.33-.02.15-.04.27-.06.39v2.67l.09.38z"/><path fill="#FFF" d="M57.002 21.849c-.703.998-1.789 1.496-3.254 1.496-.763 0-1.438-.146-2.023-.44-.059-1.583-.206-3.928-.439-7.037-4.985.939-12.931 2.317-23.837 4.135-.528.059-.968.206-1.32.439.293 5.396.44 10.674.44 15.833.594.118 2.467-.146 5.618-.792 1.546-.233 3.926-.791 7.136-1.671.058-.938-.059-2.507-.352-4.706-.294-2.199-.411-3.826-.352-4.882 0-1.113.761-1.671 2.287-1.671 1.759 0 2.696.733 2.814 2.199.233 2.229.585 5.571 1.056 10.027v13.634c.176.235.292.411.352.527-.176.704-.675 1.306-1.495 1.804-.822.499-1.643.747-2.463.747-1.056 0-1.76-.468-2.111-1.407.117-.585.205-1.495.264-2.727v-8.092c-3.721.118-7.913.879-12.578 2.286 0 1.056-.03 3.754-.088 8.093-.06 3.577-.06 6.012 0 7.301 0 .294.233.822.704 1.583 1.231.06 3.136.176 5.717.353l8.972.879c3.576.411 6.567.559 8.973.44.058-.762.204-1.965.439-3.606v-5.19c-.352-.585-.528-1.144-.528-1.671 0-.88.366-1.627 1.1-2.243.732-.615 1.54-.924 2.419-.924.704 0 1.261.207 1.672.616.233.235.292.998.176 2.287-.06.294-.03.807.088 1.539.117.734.176 1.218.176 1.451 0 .353-.059.924-.176 1.716-.118.791-.176 1.218-.176 1.275v5.277c0 .06.116.352.352.88.117.527.117.879 0 1.056-.823 1.643-2.058 2.463-3.701 2.463-.412 0-.911-.058-1.499-.176-.589-.117-.94-.176-1.058-.176h-5.376c-1.41 0-3.951-.205-7.624-.616-3.672-.409-6.802-.615-9.386-.615h-5.552c-.471 0-1.41.074-2.82.22-1.41.146-2.498.22-3.262.22-1.586 0-2.88-.264-3.877-.792-.294-.176-.441-.615-.441-1.319 0-.645.175-1.144.523-1.495.755-.762 1.801-1.201 3.138-1.319h2.702c.638.118 1.509.059 2.614-.176.349-.177.553-.586.61-1.231.058-.41.058-1.025 0-1.848a55.07 55.07 0 0 1-.087-1.583c0-6.099-.028-9.588-.087-10.468-1.037-.116-2.479-.497-4.323-1.144-.813-.645-1.016-1.524-.604-2.639.352-.938 1.144-1.612 2.375-2.023a45.314 45.314 0 0 1 2.639-.791c.176-.645.204-1.437.088-2.375a35.684 35.684 0 0 1-.264-2.375c-.118-2.521-.323-6.391-.616-11.611-.235 0-1.026.074-2.375.221-1.35.146-2.405.22-3.166.22-2.698 0-4.047-.807-4.047-2.422 0-.229.029-.489.088-.778-.059-.115-.116-.173-.176-.173a7.74 7.74 0 0 1 4.398-1.729h3.166c7.33-.117 19.205-1.817 35.624-5.102.176-.059.469-.029.88.088.409.118.645.206.703.264.469.646.792 1.378.968 2.199-.177 2.581-.089 5.335.262 8.267z"/></svg>