<svg width="71" height="83" xmlns="http://www.w3.org/2000/svg"><path fill="#0CC" d="M70.109 20.47c-.05.65-.08 1.2-.1 1.66.19.78.32 1.66.32 2.64 0 .22.02.52.04.91.12 1.62-.13 3.25-.73 4.77-.48 1.23-1.14 2.39-2.09 3.67-.82 1.11-1.84 2.06-3.01 2.79-2.52 1.57-5.44 2.37-8.69 2.37-.57 0-1.14-.03-1.69-.09-.08 1.01-.28 1.98-.58 2.9-.15.44-.32.88-.52 1.3.04.66.11 1.52.21 2.62.96 7.29-3.09 11.05-4.91 12.35-.38.26-.76.52-1.16.75 1.48 2.57 1.83 4.95 1.83 6.6 0 4.6-2.46 8.69-6.74 11.21-.24.14-.49.27-.74.4-.47.23-.97.49-1.49.76-1.6.86-3.38 1.31-5.2 1.31h-6.63c-.29.05-1.31.25-3.48.99-4.45 1.53-7.48 2.18-10.12 2.18-2.11 0-4.13-.38-6.02-1.14-.54-.21-1.06-.47-1.56-.77-.81-.49-1.62-1.07-2.47-1.79-2.59-2.19-4.2-5.34-4.51-8.87-.25-2.69.18-5.18 1.28-7.38.05-.1.1-.2.15-.29 1.98-3.69 5.14-6.3 9.01-7.54.02-.57.04-1.17.07-1.81v-.07c-4.16-2.25-6.78-6.66-6.78-12.02 0-4.22 1.82-7.97 5.01-10.41a14.214 14.214 0 0 1-5.43-4.94c-1.45-2.1-2.21-4.53-2.21-7.1 0-5.32 3.21-9.93 8.61-12.37 2.54-1.19 5.05-1.82 7.47-1.88.53-.03 1.63-.13 3.61-.46 2.73-.48 4.49-.78 5.28-.91l.26-.03c2.83-.37 6.92-.82 12.49-1.36.24-.03.47-.04.71-.05 3.18-.11 7.7-.46 13.45-1.05 1.27-.22 2.44-.32 3.56-.32 2.02 0 3.9.36 5.6 1.06.04.02.08.03.13.05 4.28 1.84 7.22 5.71 7.92 10.39.21 1.25.21 2.55.14 4.48-.01.6-.06 1.63-.29 4.49z"/><path fill="#FFF" d="M59.399 26.437c-.115.294-.346.675-.692 1.144-.751.47-1.704.703-2.858.703-1.213 0-1.892-.469-2.037-1.407-.146-.938-.159-2.287-.041-4.046.233-2.345.352-3.752.352-4.223 0-1.113-.178-1.964-.529-2.551-2.412.176-6.235.44-11.471.792-7.177.352-12.616 1.056-16.322 2.111a5.556 5.556 0 0 1-.44 1.759v5.277c0 3.343.469 6.892 1.407 10.644 2.169.118 5.277-.058 9.323-.527 0-.938-.059-2.257-.176-3.959-.176-1.992-.278-3.342-.308-4.046a14.91 14.91 0 0 0-.22-2.023c-.06-.82.028-1.495.264-2.022.233-.528.908-.82 2.023-.88 1.056-.117 1.816 0 2.287.352.469.353.732.896.791 1.628.058.733.117 1.422.176 2.066.177 1.994.293 4.692.353 8.093 1.289.352 1.935 1.231 1.935 2.639 0 .294-.03.528-.088.704-.294.294-.675.791-1.144 1.495-.059.118-.059.587 0 1.407 0 1.231.117 3.138.353 5.718.176 1.114.058 1.818-.353 2.11-.997.704-2.082 1.056-3.254 1.056-1.174 0-1.848-.469-2.023-1.407V43.15c-.061-.469-.148-1.144-.267-2.022-.415-.234-1.36-.293-2.84-.176a55.053 55.053 0 0 1-3.283.439c-.829-.058-2.012.176-3.549.703-.061-.352-.089 1.379-.089 5.19v7.213c0-.059-.044.807-.132 2.595-.088 1.789-.132 3.152-.132 4.09v2.287l.262.264c1.396 0 3.549-.117 6.46-.352.115 0 .61-.088 1.484-.264.581-.177 1.047-.205 1.396-.088.465.173.915.548 1.353 1.125.437.578.655 1.096.655 1.558 0 .635-.439 1.212-1.319 1.73-.587.288-1.202.605-1.848.952h-6.861c-1.467 0-3.738.528-6.817 1.583-3.078 1.056-5.264 1.584-6.553 1.584-.704 0-1.35-.118-1.936-.353a7.983 7.983 0 0 1-1.011-.747c-.383-.323-.603-.807-.66-1.451-.059-.645 0-1.144.176-1.496.88-1.641 2.375-2.491 4.486-2.551 3.4-.176 5.131-.277 5.189-.308.058-.028.205-.189.439-.484-.059-1.055.029-4.719.265-10.995v-9.675h-4.75c-1.35-.116-2.023-.988-2.023-2.618 0-.815.26-1.398.781-1.747.346-.232.895-.553 1.646-.96.808-.115 1.992-.378 3.554-.786-.206-1.512-.411-3.723-.616-6.634 0-.581.103-1.818.309-3.709.204-1.892.308-3.274.308-4.148 0-1.221-.176-2.035-.527-2.443-.471 0-1.247.103-2.331.308-1.086.206-1.892.308-2.419.308-1.35 0-2.347-.557-2.991-1.671a1.518 1.518 0 0 1-.352-.968c0-.938.732-1.729 2.199-2.375 1.231-.585 2.315-.879 3.254-.879 1.29-.059 2.991-.265 5.103-.616 2.639-.469 4.339-.762 5.102-.88 2.696-.352 6.742-.791 12.139-1.319 3.518-.116 8.385-.497 14.601-1.144 1.584-.292 2.727-.292 3.431 0 .82.353 1.289 1.027 1.407 2.023.058.235.058 1.056 0 2.463 0 .47-.088 1.789-.264 3.958-.118 1.76-.176 3.167-.176 4.223 0 .118.061.278.183.483.122.206.185.338.185.396-.001.411.023.967.071 1.671z"/></svg>