<svg xmlns="http://www.w3.org/2000/svg" viewBox="0 0 37.3 52"><path fill="#53AD4E" d="M37.2 6.1c-.1-.9-.3-1.8-.4-2.7-.2-1-.4-2-.5-3-.7 0-1.1-.1-1.6-.1-2.6 0-5.2.1-7.8.1C21.4.3 16 .1 10.7 0 9.2 0 7.8.2 6.4 0 4.7-.1 3.6.3 2.7 1.8 2 3 1.1 4 .4 5.2-.4 6.5.1 7.3 1.6 7.4c.8 0 1.5.1 2.3.1.6 0 1 .3 1 1 0 2.7 0 5.5-.1 8.2 0 2.9-.4 5.9-.2 8.8.5 6.2.2 12.5-.4 18.7 0 .1-.1.3-.2.4-.7.8-1.3 1.5-2 2.3-1 1-2 2-1.6 3.7.2 1 .1 1.1 1.2 1 4.6-.4 9.1-.3 13.7.5.4.1.7 0 .9-.4.5-.9 1.1-1.9 1.7-2.7.7-.8 1.2-1.6 1.1-2.7 0-1.4 0-1.4-1.3-1.6-.2 0-.4-.1-.5-.1-1.3-.3-1.5-.6-1.6-1.9V34c0-1.3.2-2.5.4-3.9.6 0 1 .1 1.5.1 1.7.1 3.3.1 5 .3.7.1 1.4.1 1.7 1 .2.8.4 1.6.5 2.4.2 1.6-.1 1.4 1.6 1.4h.5c.3-.1.8-.2 1-.5.9-1.6 2-3.1 1.5-5.1-.2-.7 0-1.5 0-2.3.1-1.8.2-3.7.2-5.5 0-1.4-.1-2.8-.2-4.3h-2.1c-.2 0-.3.2-.4.3-.8 1.3-1.6 2.6-2.5 3.8-.1.2-.4.4-.7.4-2.4.1-4.9.1-7.3.1-.6 0-.8-.2-.7-.8.1-1 .2-1.9.2-2.8V7h.7c2.6.1 5.2.3 7.8.3 3 0 6.2 1.5 7.3 5 .3.9.5 1.6 1.6 1.2h.3c1.2.3 2.1 0 2.6-1.2.4-1.1 1.5-1.7 1.5-3-.3-1.2-.3-2.2-.4-3.2zM27.4 32c.1-.2.6-.2.9-.3-.9 2.6-1.1 2.8-2.4 2.7.5-.9.9-1.7 1.5-2.4zm-.8-13.1c.5 2-.2 3-1.9 2.9.7-1 1.3-1.9 1.9-2.9zm-10.1 7.7c2.4.3 4.8.1 7.2-.3 2.2-.3 3.2-.1 3.3 2.9 0 2.4-.3 3.4-1.7 4.6-.2-.8-.4-1.5-.5-2.3-.2-1.5-.8-2-2.3-2.1-2-.1-3.9-.1-5.9-.1H16c-.1-.9-.1-1.8-.2-2.7h.7zM1 6.6c-.1 0-.1 0-.2-.1 0-.3 0-.7.1-.9.6-.8 1.1-1.5 1.7-2.3.4-.7.9-1.3 1.3-2h.2C3.4 3.3 2.3 5 1 6.6zm3.3.4c-.8-.1-1.6-.2-2.5-.3.7-.9 1.4-1.7 1.8-2.6.5-1.2 1.1-1.5 2.4-1.3 1.7.3 2.3.8 2.3 2.5v7.2c0 1.6.2 3.2.3 4.9.1 3.6.2 7.2.2 10.7v8.6c0 2.3-.2 4.5-.4 6.8 0 .6-.4 1-1 1H5.6c-.6 0-.7-.3-.6-.8.2-4.3.5-8.6.6-12.8 0-1.8-.3-3.6-.3-5.4 0-2.5 0-4.9.1-7.3l.3-6.9c0-.6-.2-1.2-.3-1.9 0-.3-.1-.5-.1-.8.1-.9-.2-1.4-1-1.6zM1.1 50.3c-.5-1.1.3-1.7.8-2.3.3-.4.8-.7 1.1-1.1.4-.5.7-.9 1.1-1.5 0 .7.2 1.4-.5 2.1-.8.8-1.6 1.8-2.5 2.8zm16.7-2.8c-.7 1.1-1.5 2.4-2.4 3.6-.1.1-.5.1-.7.1-3.1-.2-6.3-.4-9.4-.6-.9 0-1.9.1-2.8.1h-.9c1.1-1.3 2.1-2.4 3.2-3.7 4.3.3 8.7.4 13 .5zm14.4-34.9c-.4-.8-.7-1.5-1-2.2-.8-1.9-2.4-2.9-4.2-3.5-.9-.3-2-.4-3-.4-2.8-.1-5.6 0-8.5 0-.1-1.2-.2-2.2-.2-3.2h3.3c3.5.1 7 .1 10.4.5 2.9.3 4.6 1.6 5.6 4.6.1.3.2.6.2.9 0 .3-.1.7-.2.9-.7.8-1.5 1.6-2.4 2.4zm.9 0c1.1-.7 1.5-2 3-2.3-.8 2.1-1.3 2.5-3 2.3z"/><path fill="#FFF" d="M4.1 1.4C3.4 3.3 2.3 5 1 6.6c-.1 0-.1 0-.2-.1 0-.3 0-.7.1-.9.6-.8 1.1-1.5 1.7-2.3.4-.7.9-1.3 1.3-2 .1 0 .1.1.2.1zm30.8 7.9c0 .3-.1.7-.2.9-.7.8-1.5 1.5-2.4 2.4-.4-.8-.7-1.5-1-2.2-.8-1.9-2.4-2.9-4.2-3.5-.9-.3-2-.4-3-.4-2.8-.1-5.6 0-8.5 0-.1-1.2-.2-2.2-.2-3.2h3.3c3.5.1 7 .1 10.4.5 2.9.3 4.6 1.6 5.6 4.6 0 .3.2.6.2.9zm1.2.9c-.8 2.2-1.3 2.5-3 2.3 1.1-.6 1.6-1.9 3-2.3zM24.7 21.8c.7-1 1.2-1.9 1.9-2.9.5 2.1-.1 3.1-1.9 2.9zm3.6 9.8c-.9 2.6-1.1 2.8-2.4 2.7.5-.8 1-1.6 1.5-2.3.1-.2.6-.3.9-.4zm-1.4-2.4c0 2.4-.3 3.4-1.7 4.6-.2-.8-.4-1.5-.5-2.3-.2-1.5-.8-2-2.3-2.1-2-.1-3.9-.1-5.9-.1h-.6c-.1-.9-.1-1.8-.2-2.7.3 0 .5-.1.7 0 2.4.3 4.8.1 7.2-.3 2.3-.3 3.3 0 3.3 2.9zM3.7 47.4c-.9.9-1.7 1.9-2.6 2.9-.5-1.1.3-1.7.8-2.3.3-.4.8-.7 1.1-1.1.4-.5.7-.9 1.1-1.5.1.7.2 1.4-.4 2zm14.1.1c-.7 1.1-1.5 2.4-2.4 3.6-.1.1-.5.1-.7.1-3.1-.2-6.3-.4-9.4-.6-.9 0-1.9.1-2.8.1h-.9c1.1-1.3 2.1-2.4 3.2-3.7 4.3.3 8.7.4 13 .5zm-9-10.8c0 2.3-.2 4.5-.4 6.8 0 .6-.4 1-1 1H5.6c-.6 0-.7-.3-.6-.8.2-4.3.5-8.6.6-12.8 0-1.8-.3-3.6-.3-5.4 0-2.5 0-4.9.1-7.3l.3-6.9c0-.6-.2-1.2-.3-1.9 0-.3-.1-.5-.1-.8.1-.9-.1-1.4-1-1.5-.8-.2-1.6-.3-2.5-.4.7-.9 1.4-1.7 1.8-2.6.5-1.2 1.1-1.5 2.4-1.3 1.7.3 2.3.8 2.3 2.5v7.2c0 1.6.2 3.2.3 4.9.1 3.6.2 7.2.2 10.7 0 2.8.1 5.7 0 8.6z"/></svg>