<svg width="150" height="150" xmlns="http://www.w3.org/2000/svg"><path fill="#272525" d="M82.971 111.811c-4.609.28-10.252.056-14.748-1.531-.313-3.387 4.809-2.967 2.894-7.297-.495-1.117.903-1.543 1.125-2.377.011-.04.011-.083.015-.125a78.882 78.882 0 0 1-1.95-2.825c-.639.05-1.062.544-1.521.981-2.109 2.016-.981 3.896-.401 6.313-4.289 1.737-5.293 5.221-4.016 8.28 3.404 1.707 20.726 2.886 20.399-.41l-.017-.021a21.755 21.755 0 0 1-1.614-.996l-.166.008z"/><path fill="#9400DF" d="M71.117 102.982c1.915 4.33-3.207 3.91-2.894 7.297 4.496 1.587 10.138 1.812 14.748 1.531l.168-.008c-4.33-2.945-8.251-7.686-10.881-11.322-.004.042-.004.085-.015.125-.223.834-1.621 1.26-1.126 2.377zm-2.63-69.686c1.818 6.876-7.443 5.944-5.382 10.002 1.45 2.856 9.567 3.655 7.068 9.265-.953 2.138-3.717 2.797-1.928 5.493.46.693 1.767 1.56 2.834 2.431 3.539-7.086 9.907-18.469 17.114-25.019-5.51-3.049-19.707-10.293-26.052-11.026.238 3.939 5.26 4.75 6.346 8.854z"/><path fill="#272525" d="M91.268 33.01c-5.164-4.23-22.78-10.623-28.405-11.685-2.521-.475-4.965-1.737-5.381 1.312-.916 6.717 2.632 5.843 5.623 9.838 2.271 3.033-2.834 6.422-3.534 9.101-1.081 4.136 2.407 5.457 4.971 6.898 1.017.572 1.884 1.165 2.266 1.959.063.131.118.265.152.408.794 3.247-5.013 6.825 2.093 13.868a147.447 147.447 0 0 1 2.027-4.222c-1.067-.871-2.374-1.738-2.834-2.431-1.789-2.696.975-3.355 1.928-5.493 2.499-5.61-5.618-6.409-7.068-9.265-2.061-4.058 7.2-3.126 5.382-10.002-1.086-4.104-6.108-4.915-6.346-8.854 6.345.732 20.542 7.977 26.052 11.026.465-.423.934-.826 1.404-1.208.496-.403.996-.782 1.498-1.129l.172-.121z"/><path fill="#FF5600" d="M103.364 86.706c2.252-2.94 15.444-9.62 19.276-10.985-4.605-12.48-18.189-34.477-31.406-38.371-9.09 10.636-22.458 31.472-26.585 44.848 4.701 13.69 26.171 35.394 40.483 37.796 6.896-9.227 23.614-31.457 26.187-42.143-9.957 1.183-18.617 5.26-27.393 9.838-.238-.127-.828-.636-.562-.983z"/><g fill="#FFF"><ellipse cx="77.247" cy="85.678" rx="6.125" ry="6.251"/><ellipse cx="88.793" cy="96.849" rx="3.615" ry="3.689"/><ellipse cx="100.439" cy="108.533" rx="5.623" ry="5.739"/><ellipse cx="112.287" cy="98.693" rx="4.018" ry="4.099"/><ellipse cx="114.596" cy="85.269" rx="3.715" ry="3.792"/><ellipse cx="99.536" cy="86.703" rx="4.92" ry="5.021"/><ellipse cx="106.865" cy="66.104" rx="5.421" ry="5.534"/><ellipse cx="86.082" cy="62.722" rx="4.719" ry="4.817"/><ellipse cx="96.625" cy="47.861" rx="5.422" ry="5.533"/><path d="M80.561 100.129c-1.224 0-2.334.447-3.225 1.168a93.158 93.158 0 0 0 7.476 7.238c.606-.87.971-1.928.971-3.077-.001-2.943-2.339-5.329-5.222-5.329zm-7.948-23.211c2.606 0 4.719-2.157 4.719-4.817 0-2.661-2.113-4.817-4.719-4.817-.553 0-1.075.115-1.568.293-1.061 2-2.046 3.971-2.936 5.885.578 1.993 2.364 3.456 4.504 3.456zm11.153-24.597c1.996 0 3.614-1.651 3.614-3.689 0-1.559-.95-2.885-2.289-3.425a188.726 188.726 0 0 0-4.062 5.809c.662.792 1.636 1.305 2.737 1.305zm36.15 41.659c0 1.308.509 2.489 1.324 3.371 1.778-2.731 3.464-5.45 4.94-8.041a4.681 4.681 0 0 0-1.444-.25c-2.662.001-4.82 2.203-4.82 4.92z"/></g><path fill="#272525" d="M137.5 71.949c-4.079.183-8.848 1.533-11.96 2.661-3.354-10.044-8.802-22.568-16.795-29.635-5.295-4.68-11.94-9.916-18.476-12.544-13.97 13.791-22.447 32.251-30.841 49.767 4.469 8.413 9.672 16.338 15.934 23.033a72.112 72.112 0 0 0 5.729 5.501c7.023 6.02 15.241 10.543 25.003 12.785 5.566-5.74 12.898-15.114 19.083-24.662a163.936 163.936 0 0 0 4.061-6.594c3.114-5.351 5.645-10.5 7.058-14.82.511-1.562 1.204-5.492 1.204-5.492zm-11.319 17.362c-1.477 2.591-3.162 5.31-4.94 8.041-5.705 8.761-12.358 17.625-16.108 22.643-6.092-1.022-13.479-5.548-20.32-11.459a93.325 93.325 0 0 1-7.476-7.238c-5.96-6.453-10.75-13.456-12.687-19.099.821-2.662 2.013-5.622 3.46-8.736a124.794 124.794 0 0 1 2.936-5.885c2.941-5.546 6.444-11.294 9.985-16.562a188.205 188.205 0 0 1 4.062-5.809c2.152-2.957 4.242-5.632 6.144-7.857 13.217 3.894 26.801 25.89 31.406 38.371-3.832 1.365-17.024 8.045-19.276 10.985-.267.347.323.856.562.983 8.775-4.578 17.436-8.655 27.393-9.838-.741 3.064-2.644 7.077-5.141 11.46z"/><path fill="#272525" d="M97.227 109.352c-10.643 1.435-16.774 13.191-16.595 20.316 3.229-.22 7.187-1.63 9.8-3.605 3.222-2.44 7.597-9.127 6.795-16.711zm-11.616 16.137c.322-4.759 4.418-10.25 9.238-11.972-1.204 4.754-4.579 9.674-9.238 11.972z"/><path fill="#9400DF" d="M85.611 125.489c4.658-2.298 8.033-7.218 9.238-11.972-4.82 1.722-8.915 7.213-9.238 11.972zM22.4 49.895c-1.625 1.846-1.768 4.555-1.365 6.887.923 5.346 12.056 9.66 6.185 15.578-8.648 8.717 4.994 7.806 5.943 15.742.664 5.545-7.676 6.557-3.855 10.986 2.901 3.365 10.852 4.359 8.514 10.822-.519 1.434-4.249 2.927-2.49 8.691 2.258-.308 4.752-3.277 6.506-4.759 8.096-6.824 14.62-21.267 17.765-31.315-5.919-13.722-22.921-30.1-37.203-32.632z"/><path fill="#272525" d="M61.725 82.704c-.319-3.196-1.659-6.175-3.052-9.02-5.603-11.422-23.496-29.146-37.076-26.907-2.651.436-4.917 3.809-5.381 6.312-1.226 6.598 3.025 9.002 6.345 13.528 3.342 4.556-4.389 6.217-3.213 11.806 1.246 5.923 6.788 7.019 7.872 10.659.751 2.523-2.616 4.754-3.052 7.296-1.213 7.06 4.446 7.151 7.871 11.149 2.718 3.175-.59 5.839-.402 11.479.128 3.873 3.16 7.442 5.952 5.102 9.095-7.625 24.446-28.354 24.297-40.992-.002-.123-.066-.267-.161-.412zm-19.887 31.139c-1.754 1.481-4.248 4.451-6.506 4.759-1.759-5.765 1.971-7.258 2.49-8.691 2.338-6.463-5.613-7.457-8.514-10.822-3.821-4.43 4.519-5.441 3.855-10.986-.949-7.936-14.591-7.024-5.943-15.742 5.871-5.918-5.262-10.232-6.185-15.578-.403-2.332-.26-5.041 1.365-6.887 14.282 2.532 31.284 18.91 37.203 32.632-3.145 10.048-9.669 24.491-17.765 31.315z"/><path fill="#FFF" d="M98.984 69.314l-11.967-.637c.946 6.803 10.797 6.348 11.967.637z"/><ellipse fill="#272525" cx="97.126" cy="70.921" rx="2.71" ry="2.767"/><path fill="#FF5600" d="M87.82 65.858c3.746.002 7.443.723 11.164 1.091-1.702-4.287-9.279-5.927-11.164-1.091z"/><path fill="#272525" d="M84.777 65.672c-3.413-.455-5.448-.383-5.631 1.733-.193 2.245 3.314.641 4.658 1.271.035 10.935 14.096 11.23 18.074 2.457 3.409-7.522-10.575-15.808-17.101-5.461zm2.241 3.005l11.967.637c-1.171 5.711-11.022 6.166-11.967-.637zm.802-2.819c1.885-4.836 9.462-3.196 11.164 1.091-3.72-.368-7.418-1.089-11.164-1.091z"/><path fill="#FFF" d="M124.23 66.193l-8.857 2.029c1.398 4.41 8.783 3.521 8.857-2.029z"/><ellipse fill="#272525" cx="123.582" cy="67.897" rx="2.359" ry="2.408"/><path fill="#FF5600" d="M115.154 66.334c2.738-.767 5.427-1.812 8.218-2.29-1.851-3.619-7.345-1.348-8.218 2.29z"/><path fill="#272525" d="M129.979 64.178c-.33-1.666-1.854-1.464-4.354-.668-5.818-7.429-15.473.962-12.234 6.532 3.77 6.496 14.219 4.474 13.234-4.257.941-.675 3.705.161 3.354-1.607zm-6.607-.134c-2.791.478-5.479 1.523-8.218 2.29.873-3.638 6.367-5.909 8.218-2.29zm-7.999 4.178l8.857-2.029c-.074 5.55-7.459 6.439-8.857 2.029z"/></svg>