<svg version="1.1" id="fish3" x="0px" y="0px" width="150px" height="150px" viewBox="0 0 150 150" enable-background="new 0 0 150 150" xml:space="preserve" xmlns="http://www.w3.org/2000/svg" xmlns:xlink="http://www.w3.org/1999/xlink">
  <g>
    <g id="Top_Fin">
      <path id="Fill" fill="#4B79EF" d="M96.253,29.401c-7.883-2.042-14.201-11.256-16.208-18.612c-2.734,5.024-7.063,8.434-13.807,8.777&#xD;&#xA;&#x9;&#x9;c0.444,3.904,3.53,9.961-4.205,18.833c1.77,1.279,5.144,3.473,5.53,7.492C69.922,42.186,77.021,34.269,96.253,29.401z"/>
      <path id="Outline_1_" fill="#272525" d="M67.563,45.891c-0.386-4.019-3.76-6.213-5.53-7.492c7.735-8.872,4.649-14.929,4.205-18.833&#xD;&#xA;&#x9;&#x9;c6.744-0.343,11.073-3.753,13.807-8.777c2.007,7.356,8.325,16.57,16.208,18.612c1.196-0.303,2.442-0.593,3.734-0.87&#xD;&#xA;&#x9;&#x9;c-6.644-4.654-9.508-6.214-13.817-14.085C84.331,11.087,81.654,3.584,80.867,0c-0.812,7.385-9.982,17.46-17.92,16.274&#xD;&#xA;&#x9;&#x9;c2.478,6.282-0.851,18.92-6.217,22.766c0,0,8.032,3.088,10.302,7.747C67.174,46.526,67.349,46.226,67.563,45.891z"/>
    </g>
    <g id="Tail_Fin">
      <path id="Fill_2_" fill="#39B54A" d="M54.29,70.57c-21.665,6.18-22.54-21.445-22.54-21.445c-5.25,7.625-16.5,5.164-16.5,5.164&#xD;&#xA;&#x9;&#x9;c1,11.164-6.625,18.461-6.625,18.461c14,3.625,8.625,19.125,8.625,19.125c0.48,0.024,0.964,0.031,1.449,0.022&#xD;&#xA;&#x9;&#x9;c0.147-0.002,0.297-0.015,0.445-0.021c0.345-0.013,0.69-0.025,1.038-0.054c0.128-0.01,0.258-0.027,0.386-0.04&#xD;&#xA;&#x9;&#x9;c0.384-0.037,0.769-0.076,1.155-0.131c0.048-0.007,0.097-0.017,0.145-0.023C36.526,89.466,52.288,74.984,54.9,72.5&#xD;&#xA;&#x9;&#x9;c0.481-0.358,0.297-0.319,1.141-0.812c-0.167-0.542-0.375-1-0.625-1.542C55.108,70.229,54.29,70.57,54.29,70.57z"/>
      <path id="Outline_5_" fill="#272525" d="M54.9,72.5c-2.612,2.485-18.375,16.966-33.033,19.129&#xD;&#xA;&#x9;&#x9;c-0.048,0.007-0.096,0.017-0.145,0.023c-0.386,0.055-0.771,0.094-1.155,0.131c-0.129,0.013-0.258,0.03-0.386,0.04&#xD;&#xA;&#x9;&#x9;c-0.347,0.028-0.692,0.041-1.038,0.054c-0.148,0.006-0.297,0.018-0.445,0.021c-0.485,0.009-0.969,0.002-1.449-0.022&#xD;&#xA;&#x9;&#x9;c0,0,5.375-15.5-8.625-19.125c0,0,7.625-7.297,6.625-18.461c0,0,11.25,2.461,16.5-5.164c0,0,0.875,27.625,22.54,21.445&#xD;&#xA;&#x9;&#x9;c0,0,0.011-0.018,0.031-0.052c0.012-0.02,0.032-0.054,0.051-0.085c-0.107-0.189-0.24-0.375-0.386-0.558&#xD;&#xA;&#x9;&#x9;c-0.262-0.329-0.58-0.648-0.974-0.952c-4.529,0.677-8.156-0.144-11.352-2.683c-6.169-4.902-7.899-16.028-6.583-24.32&#xD;&#xA;&#x9;&#x9;c-5.467,4.711-11.602,10.349-23.68,8.32c-0.496,4.975,3.164,17.116-10.148,23.68c15.598,1.435,16.512,11.721,10.331,21.577&#xD;&#xA;&#x9;&#x9;c17.405,2.107,33.436-9.73,42.829-20.43c0.183-0.522,0.318-1.043,0.401-1.559C54.867,73.169,54.903,72.832,54.9,72.5z"/>
    </g>
    <g id="Body">
      <path id="Green_Fill" fill="#39B54A" d="M67.235,56.689c0.876-4.415,3.474-9.673,6.38-13.911c-0.013,0.013-0.026,0.027-0.038,0.04&#xD;&#xA;&#x9;&#x9;c-1.548,1.562-3.107,3.302-4.638,5.13c-0.013,0.015-0.025,0.029-0.037,0.044C68.6,48.354,68.299,48.718,68,49.085l-0.021,0.025&#xD;&#xA;&#x9;&#x9;c-4.604,5.646-8.863,11.913-11.646,16.208c-0.004,0.007-0.008,0.013-0.012,0.02c-4.902,6.86,2.43,14.529,2.829,15.079&#xD;&#xA;&#x9;&#x9;c0.093,0.128,0.904,1.207,1.217,1.605c0.12,0.152,0.989,1.219,1.304,1.586c0.091,0.106,0.183,0.217,0.274,0.321&#xD;&#xA;&#x9;&#x9;c0.414,0.473,0.828,0.93,1.243,1.364c0.015,0.016,0.029,0.029,0.044,0.045c0.396,0.413,0.792,0.806,1.188,1.186&#xD;&#xA;&#x9;&#x9;c0.094,0.09,0.187,0.177,0.281,0.265c0.336,0.316,0.673,0.621,1.01,0.914c0.083,0.072,0.166,0.146,0.249,0.217&#xD;&#xA;&#x9;&#x9;c0.846,0.722,1.692,1.373,2.536,1.956c0.043,0.03,0.086,0.058,0.129,0.087c0.382,0.262,0.764,0.509,1.145,0.743&#xD;&#xA;&#x9;&#x9;c0.06,0.037,0.12,0.074,0.18,0.11c1.287,0.778,2.566,1.408,3.832,1.907c0.03,0.013,0.061,0.023,0.09,0.035&#xD;&#xA;&#x9;&#x9;c0.418,0.163,0.835,0.313,1.25,0.449c0,0,0,0,0.001,0C68.456,83.324,63.752,68.828,67.235,56.689z"/>
      <path id="Yellow_Fill" fill="#FFDC00" d="M96.887,74.261c8.887-9.239,29.338-10.677,29.338-10.677&#xD;&#xA;&#x9;&#x9;c1.35-17.041-4.563-25.917-15.295-30.553c-13.767-5.947-27.422,1.719-32.778,5.723c-0.053,0.04-0.106,0.085-0.159,0.125&#xD;&#xA;&#x9;&#x9;c-7.218,13.129-8.275,26.114-7.239,36.467c0.498,6.118,4.185,12.856,6.679,18.487c0.012,0.002,0.023,0.004,0.036,0.007&#xD;&#xA;&#x9;&#x9;c0.369,0.078,0.737,0.145,1.104,0.203c0.102,0.016,0.202,0.03,0.304,0.045c0.288,0.042,0.575,0.078,0.861,0.109&#xD;&#xA;&#x9;&#x9;c0.103,0.011,0.205,0.021,0.308,0.031c0.329,0.031,0.656,0.055,0.981,0.07c0.044,0.002,0.089,0.007,0.133,0.009&#xD;&#xA;&#x9;&#x9;c0.378,0.017,0.753,0.022,1.125,0.021c0.066,0,0.131-0.003,0.196-0.004c0.3-0.004,0.599-0.014,0.895-0.029&#xD;&#xA;&#x9;&#x9;c0.099-0.005,0.196-0.011,0.294-0.017c0.277-0.019,0.554-0.041,0.828-0.067c0.083-0.009,0.166-0.016,0.248-0.024&#xD;&#xA;&#x9;&#x9;c0.707-0.077,1.4-0.184,2.079-0.315c0.081-0.016,0.161-0.033,0.241-0.05c0.262-0.053,0.521-0.109,0.777-0.17&#xD;&#xA;&#x9;&#x9;c0.086-0.021,0.172-0.04,0.258-0.062c0.278-0.068,0.555-0.141,0.828-0.217c0.047-0.013,0.094-0.025,0.141-0.038&#xD;&#xA;&#x9;&#x9;c0.327-0.093,0.649-0.19,0.967-0.293c0.037-0.013,0.074-0.025,0.111-0.037c0.271-0.089,0.54-0.182,0.805-0.276&#xD;&#xA;&#x9;&#x9;c0.077-0.028,0.154-0.057,0.231-0.085c0.234-0.086,0.466-0.175,0.694-0.265c0.067-0.027,0.136-0.054,0.203-0.081&#xD;&#xA;&#x9;&#x9;c0.584-0.235,1.148-0.483,1.69-0.739c0.054-0.025,0.106-0.051,0.16-0.076c0.216-0.104,0.429-0.208,0.637-0.313&#xD;&#xA;&#x9;&#x9;c0.065-0.032,0.13-0.065,0.194-0.099c0.211-0.107,0.418-0.216,0.62-0.325c0.044-0.023,0.088-0.047,0.132-0.07&#xD;&#xA;&#x9;&#x9;c0.248-0.135,0.491-0.271,0.728-0.406c0.012-0.007,0.022-0.013,0.034-0.02c0.219-0.126,0.431-0.251,0.638-0.376&#xD;&#xA;&#x9;&#x9;c0.054-0.033,0.105-0.064,0.158-0.098c0.17-0.104,0.336-0.207,0.498-0.309c0.049-0.031,0.098-0.062,0.146-0.093&#xD;&#xA;&#x9;&#x9;c0.19-0.122,0.377-0.243,0.556-0.362c0.01-0.006,0.021-0.013,0.029-0.019c0.194-0.13,0.382-0.258,0.562-0.383&#xD;&#xA;&#x9;&#x9;c0.031-0.021,0.061-0.043,0.092-0.064c0.143-0.1,0.281-0.198,0.414-0.294c0.042-0.03,0.085-0.062,0.126-0.092&#xD;&#xA;&#x9;&#x9;c0.124-0.09,0.244-0.179,0.358-0.265c0.031-0.023,0.064-0.048,0.096-0.07c0.286-0.216,0.541-0.416,0.766-0.596&#xD;&#xA;&#x9;&#x9;c0.03-0.023,0.058-0.046,0.086-0.069c0.082-0.065,0.159-0.129,0.231-0.189c0.026-0.021,0.053-0.043,0.078-0.063&#xD;&#xA;&#x9;&#x9;c0.076-0.064,0.148-0.125,0.214-0.181c0.011-0.009,0.023-0.02,0.033-0.028c0.075-0.064,0.142-0.122,0.2-0.173&#xD;&#xA;&#x9;&#x9;c0.015-0.014,0.026-0.023,0.04-0.036c0.041-0.036,0.079-0.07,0.11-0.098c0.012-0.012,0.024-0.022,0.035-0.032&#xD;&#xA;&#x9;&#x9;c0.023-0.021,0.045-0.041,0.061-0.056c0.008-0.007,0.019-0.017,0.024-0.021c0.01-0.01,0.021-0.021,0.021-0.021&#xD;&#xA;&#x9;&#x9;C100.195,85.773,88,83.5,96.887,74.261z"/>
      <path id="Outline" fill="#272525" d="M99.838,76.57c7.305-8.248,29.85-10.128,30.354-10.697&#xD;&#xA;&#x9;&#x9;c-0.084-8.115-1.785-18.115-6.215-25.051c-8.855-13.86-27.466-17.809-45.623-5.943c-8.717,5.696-20.397,22.348-25.962,33.281&#xD;&#xA;&#x9;&#x9;c0,0-2.579,3.322,0.64,7.965c11.694,16.871,27.709,30.769,47.082,15.805c2.375-1.835,5.729-4.42,6.582-7.404&#xD;&#xA;&#x9;&#x9;C102.109,84.716,94.672,82.405,99.838,76.57z M75.124,93.208c-0.415-0.136-0.832-0.286-1.25-0.449&#xD;&#xA;&#x9;&#x9;c-0.03-0.012-0.06-0.022-0.09-0.035c-1.266-0.499-2.545-1.129-3.832-1.907c-0.06-0.036-0.12-0.073-0.18-0.11&#xD;&#xA;&#x9;&#x9;c-0.381-0.234-0.763-0.481-1.145-0.743c-0.043-0.029-0.086-0.057-0.129-0.087c-0.844-0.583-1.69-1.234-2.536-1.956&#xD;&#xA;&#x9;&#x9;c-0.083-0.071-0.166-0.145-0.249-0.217c-0.336-0.293-0.673-0.598-1.01-0.914c-0.094-0.088-0.188-0.175-0.281-0.265&#xD;&#xA;&#x9;&#x9;c-0.396-0.38-0.792-0.772-1.188-1.186c-0.015-0.016-0.029-0.029-0.044-0.045c-0.415-0.435-0.83-0.892-1.243-1.364&#xD;&#xA;&#x9;&#x9;c-0.092-0.104-0.183-0.215-0.274-0.321c-0.315-0.367-1.184-1.434-1.304-1.586c-0.313-0.398-1.125-1.478-1.217-1.605&#xD;&#xA;&#x9;&#x9;c-0.399-0.55-7.731-8.219-2.829-15.079c0.004-0.006,0.008-0.013,0.012-0.02c2.783-4.296,7.042-10.562,11.646-16.208L68,49.085&#xD;&#xA;&#x9;&#x9;c0.299-0.367,0.6-0.731,0.902-1.092c0.012-0.015,0.024-0.03,0.037-0.044c1.53-1.828,3.09-3.568,4.638-5.13&#xD;&#xA;&#x9;&#x9;c0.012-0.013,0.025-0.026,0.038-0.04c-2.906,4.238-5.503,9.496-6.38,13.911C63.752,68.828,68.456,83.324,75.124,93.208&#xD;&#xA;&#x9;&#x9;C75.124,93.208,75.124,93.208,75.124,93.208z M101.826,86.282c-0.007,0.006-0.013,0.012-0.024,0.021&#xD;&#xA;&#x9;&#x9;c-0.016,0.015-0.037,0.034-0.061,0.056c-0.012,0.011-0.021,0.02-0.035,0.032c-0.031,0.027-0.069,0.062-0.11,0.098&#xD;&#xA;&#x9;&#x9;c-0.014,0.013-0.025,0.022-0.04,0.036c-0.059,0.051-0.125,0.108-0.2,0.173c-0.011,0.009-0.022,0.02-0.033,0.028&#xD;&#xA;&#x9;&#x9;c-0.065,0.056-0.138,0.116-0.214,0.181c-0.025,0.021-0.052,0.042-0.078,0.063c-0.072,0.061-0.149,0.124-0.231,0.189&#xD;&#xA;&#x9;&#x9;c-0.028,0.023-0.056,0.045-0.086,0.069c-0.225,0.18-0.479,0.38-0.766,0.596c-0.031,0.023-0.063,0.047-0.096,0.07&#xD;&#xA;&#x9;&#x9;c-0.114,0.086-0.234,0.175-0.358,0.265c-0.042,0.03-0.083,0.061-0.126,0.092c-0.133,0.096-0.271,0.194-0.414,0.294&#xD;&#xA;&#x9;&#x9;c-0.031,0.021-0.061,0.043-0.092,0.064c-0.18,0.125-0.367,0.253-0.562,0.383c-0.009,0.006-0.02,0.013-0.029,0.019&#xD;&#xA;&#x9;&#x9;c-0.179,0.119-0.365,0.24-0.556,0.362c-0.048,0.031-0.097,0.062-0.146,0.093c-0.162,0.102-0.328,0.205-0.498,0.309&#xD;&#xA;&#x9;&#x9;c-0.053,0.033-0.104,0.064-0.158,0.098c-0.207,0.125-0.419,0.25-0.638,0.376c-0.012,0.007-0.022,0.013-0.034,0.02&#xD;&#xA;&#x9;&#x9;c-0.236,0.136-0.479,0.271-0.728,0.406l-0.132,0.07c-0.202,0.109-0.409,0.218-0.62,0.325c-0.064,0.033-0.129,0.066-0.194,0.099&#xD;&#xA;&#x9;&#x9;c-0.208,0.105-0.421,0.21-0.637,0.313c-0.054,0.025-0.106,0.051-0.16,0.076c-0.542,0.256-1.106,0.504-1.69,0.739&#xD;&#xA;&#x9;&#x9;c-0.067,0.027-0.136,0.054-0.203,0.081c-0.229,0.09-0.46,0.179-0.694,0.265c-0.077,0.028-0.153,0.057-0.231,0.085&#xD;&#xA;&#x9;&#x9;c-0.265,0.095-0.533,0.188-0.805,0.276c-0.037,0.012-0.074,0.024-0.111,0.037c-0.317,0.103-0.64,0.2-0.967,0.293l-0.141,0.038&#xD;&#xA;&#x9;&#x9;c-0.273,0.076-0.55,0.148-0.828,0.217c-0.086,0.021-0.172,0.041-0.258,0.062c-0.257,0.061-0.516,0.117-0.777,0.17&#xD;&#xA;&#x9;&#x9;c-0.081,0.017-0.16,0.034-0.241,0.05c-0.679,0.132-1.372,0.238-2.079,0.315c-0.082,0.009-0.165,0.016-0.248,0.024&#xD;&#xA;&#x9;&#x9;c-0.274,0.026-0.551,0.049-0.828,0.067c-0.098,0.006-0.195,0.012-0.294,0.017c-0.296,0.016-0.595,0.025-0.895,0.029&#xD;&#xA;&#x9;&#x9;c-0.065,0.001-0.13,0.004-0.196,0.004c-0.372,0.002-0.747-0.004-1.125-0.021c-0.044-0.002-0.089-0.007-0.133-0.009&#xD;&#xA;&#x9;&#x9;c-0.325-0.016-0.652-0.039-0.981-0.07c-0.103-0.01-0.205-0.021-0.308-0.031c-0.286-0.031-0.573-0.067-0.861-0.109&#xD;&#xA;&#x9;&#x9;c-0.102-0.015-0.202-0.029-0.304-0.045c-0.366-0.059-0.734-0.125-1.104-0.203c-0.013-0.003-0.024-0.004-0.036-0.007&#xD;&#xA;&#x9;&#x9;c-2.494-5.631-6.181-12.369-6.679-18.487c-1.036-10.353,0.021-23.338,7.239-36.467c0.053-0.04,0.106-0.085,0.159-0.125&#xD;&#xA;&#x9;&#x9;c5.356-4.004,19.012-11.67,32.778-5.723c10.731,4.636,16.645,13.512,15.295,30.553c0,0-20.451,1.438-29.338,10.677&#xD;&#xA;&#x9;&#x9;s3.309,11.512,4.961,12C101.848,86.262,101.836,86.272,101.826,86.282z"/>
    </g>
    <g id="Little_Fin">
      <path id="Fill_1_" fill="#4B79EF" d="M62.043,94.898c1.585,2.17,1.141,5.588-0.366,7.68c5.219,1.664,6.378,4.584,7.749,9.691&#xD;&#xA;&#x9;&#x9;c5.359-1.773,10.82-16.183,9.932-21.526C75.022,94.152,67.374,96.113,62.043,94.898z"/>
      <path id="Outline_4_" fill="#272525" d="M83.107,87.268c-0.192-0.965-1.114-2.849-2.194-2.012&#xD;&#xA;&#x9;&#x9;c-7.716,5.985-12.06,8.499-25.234,4.391c1.606,3.748,5.176,6.051,0.915,14.445c9.288,2.807,10.66,6.692,12.251,11.885&#xD;&#xA;&#x9;&#x9;C78.225,110.689,85.297,98.188,83.107,87.268z M69.426,112.27c-1.371-5.107-2.53-8.027-7.749-9.691&#xD;&#xA;&#x9;&#x9;c1.507-2.092,1.951-5.51,0.366-7.68c5.331,1.215,12.979-0.746,17.314-4.155C80.246,96.087,74.785,110.496,69.426,112.27z"/>
    </g>
    <g id="L_Eye">
      <path id="White_1_" fill="#FFFFFF" d="M84.609,55.876c2.703,3.923,14.762,2.812,13.832-2.483&#xD;&#xA;&#x9;&#x9;C97.377,47.312,80.927,50.53,84.609,55.876z"/>
      <ellipse id="Pupil_1_" fill="#272525" cx="96.163" cy="54.047" rx="3.206" ry="3.708"/>
      <path id="Outline_3_" fill="#272525" d="M80.896,53.681c-3.176,10.097,20.17,10.223,20.392-0.115&#xD;&#xA;&#x9;&#x9;C101.452,45.915,83.795,44.473,80.896,53.681z M84.609,55.876c-3.683-5.346,12.768-8.564,13.832-2.483&#xD;&#xA;&#x9;&#x9;C99.371,58.688,87.312,59.799,84.609,55.876z"/>
    </g>
    <g id="R_Eye">
      <path id="White" fill="#FFFFFF" d="M119.43,54.02c2.078,3.081,11.354,2.209,10.641-1.951&#xD;&#xA;&#x9;&#x9;C129.25,47.293,116.598,49.821,119.43,54.02z"/>
      <ellipse id="Pupil" fill="#272525" cx="128.648" cy="52.691" rx="2.537" ry="2.936"/>
      <path id="Outline_2_" fill="#272525" d="M115.139,52.532c-2.703,8.59,17.159,8.696,17.348-0.099&#xD;&#xA;&#x9;&#x9;C132.628,45.923,117.604,44.696,115.139,52.532z M119.43,54.02c-2.832-4.199,9.82-6.727,10.641-1.951&#xD;&#xA;&#x9;&#x9;C130.784,56.229,121.508,57.101,119.43,54.02z"/>
    </g>
  </g>
</svg>