<svg width="150" height="150" xmlns="http://www.w3.org/2000/svg"><path fill="#2B8E91" d="M28.727 76.568s-15.524-4.396-17.344 3.093C9.401 87.814 23.97 89.364 26.25 90.596c-1.078 2.619-9.713 10.657-5.527 14.246 3.44 2.949 8.654-1.666 9.815-1.767-.658 4.026-1.496 7.972-.191 12.368.59 1.988 2.009 3.351 3.906 3.203 5.907-.461 9.847-11.244 11.149-16.896 1.87-8.111 1.907-18.908.287-27.06-5.93-29.827-27.822-26.29-16.962 1.878z"/><path fill="#272525" d="M37.875 50.834c-2.979-3.213-8.941-5.404-12.769-2.65-7.333 5.276-3.329 21.74-3.908 23.304-15.765-.837-22.639 12.791-3.906 22.751-5.299 8.633-1.57 17.304 7.528 17.782-.824 19.16 22.228 22.278 25.444-14.58 1.497-17.177-1.047-34.378-12.389-46.607zm7.527 50.916c-1.302 5.652-5.242 16.436-11.149 16.896-1.897.146-3.316-1.215-3.906-3.203-1.305-4.396-.467-8.342.191-12.368-1.161.101-6.375 4.716-9.815 1.767-4.186-3.589 4.449-11.627 5.527-14.246-2.28-1.23-16.849-2.781-14.867-10.935 1.82-7.489 17.344-3.093 17.344-3.093C17.867 48.4 39.759 44.863 45.689 74.69c1.62 8.152 1.583 18.949-.287 27.06z"/><path fill="#2B8E91" d="M103.578 52.497c.204-7.099-2.029-27.457-8.661-25.712-6.633 1.745-2.963 18.864-2.963 18.864-2.874-5.886-8.034-19.283-15.381-15.55-7.348 3.733-1.73 14.993.036 21.404-2.419-.972-9.366-4.452-11.566 1.899-1.146 3.31 2.131 10.71 3.43 13.696 9.881-8.18 23.129-13.311 35.105-14.601z"/><path fill="#272525" d="M68.443 67.03c-1.467-3.401-4.434-10.645-3.4-13.628 2.2-6.351 9.147-2.871 11.566-1.899-1.768-6.411-7.384-17.671-.036-21.404 7.347-3.733 12.507 9.664 15.381 15.55 0 0-3.67-17.119 2.963-18.864 6.364-1.675 8.665 17.927 8.661 25.712 1.459-.163 2.921-.148 4.386-.182.034-8.094-1.792-21.024-6.196-27.099-2.246-3.096-6.793-5.535-10.101-3.423-2.655 1.698-3.243 4.798-3.905 7.951-2.613-4.892-8.422-7.644-13.248-4.748-5.934 3.562-7.471 12.005-4.764 19.88-3.183-2.352-6.279-2.076-8.672.773-3.523 4.197 1.662 15.78 4.943 23.09.791-.6 1.664-1.065 2.422-1.709z"/><path fill="#BC8EFF" d="M88.247 59.747c-12.782 5.198-28.244 18.66-35.497 26.782 10.938 13.727 30.613 36.722 52.887 29.406 4.236-1.392 10.121-8.822 10.329-14.076-9.024.026-16.29-.479-24.489-5.521 20.235 2.893 35.318.616 43.7-8.704 3.63-4.032 4.171-12.223 2.384-17.671-5.813-17.719-37.538-15.005-49.314-10.216z"/><path fill="#272525" d="M139.218 64.75c-4.302-7.878-18.843-12.25-29.468-13.253-.06-.005-21.25-2.372-43.659 16.395-7.295 6.109-15.366 13.252-19.059 19.049 5.122 6.904 21.338 21.871 23.942 24.16 13.512 11.879 34.374 16.53 45.85.586 2.699-3.75 3.345-6.385 3.716-10.822 15.722-3.676 29.321-16.631 18.678-36.115zm-4.041 22.884c-8.382 9.32-23.465 11.597-43.7 8.704 8.199 5.042 15.465 5.549 24.489 5.521-.208 5.254-6.093 12.686-10.329 14.076-22.272 7.314-41.949-15.681-52.887-29.406 7.253-8.122 22.715-21.584 35.497-26.782 11.776-4.789 43.501-7.503 49.313 10.216 1.788 5.448 1.247 13.639-2.383 17.671z"/><path fill="#2B8E91" d="M64.356 123.951c10.905 2.753 16.576-12.044 17.876-20.158-8.399 3.309-15.898 10.214-17.876 20.158z"/><path fill="#272525" d="M83.566 101.143c-11.638.297-22.308 12.442-21.727 25.953 16.97 7.645 23.668-17.371 21.727-25.953zm-19.21 22.808c1.978-9.944 9.477-16.85 17.876-20.158-1.3 8.114-6.971 22.911-17.876 20.158z"/><path fill="#FFF" d="M86.665 82.311c4.79 4.325 18.201-1.199 14.864-7.953-3.828-7.751-21.392 2.059-14.864 7.953z"/><ellipse fill="#272525" cx="99.324" cy="76.452" rx="3.216" ry="3.728"/><path fill="#272525" d="M105.562 72.879c-3.07-10.225-24.377-6.114-23.849 7.113.585 14.503 27.996 6.697 23.849-7.113zm-18.897 9.432c-6.528-5.894 11.036-15.704 14.864-7.953 3.337 6.753-10.074 12.278-14.864 7.953z"/><path fill="#FFF" d="M122.402 76.023c1.309 4.795 10.867 5.881 11.209-.072.391-6.836-12.991-6.464-11.209.072z"/><ellipse fill="#272525" cx="132.081" cy="75.209" rx="2.382" ry="2.761"/><path fill="#272525" d="M119.137 73.114c-4.516 10.36 13.857 15.028 16.09 3.834 1.656-8.286-11.972-13.282-16.09-3.834zm3.265 2.909c-1.782-6.538 11.6-6.908 11.209-.072-.341 5.953-9.9 4.867-11.209.072z"/></svg>