<svg version="1.1" id="Layer_1" x="0px" y="0px" width="150px" height="150px" viewBox="0 0 150 150" enable-background="new 0 0 150 150" xml:space="preserve" xmlns="http://www.w3.org/2000/svg" xmlns:xlink="http://www.w3.org/1999/xlink">
  <g>
    <path fill="#992300" d="M82.837,66.947c-6.004-1.301-9.331-3.505-15.008-5.653c-11.221-4.239-18.528-6.047-30.141-3.166&#xD;&#xA;&#x9;c-16.18,4.07-21.661,18.767-15.396,34.479c-2.872,1.018-6.59,1.978-7.047,4.636c-0.588,3.276,2.675,4.804,4.436,7.687&#xD;&#xA;&#x9;c1.436,2.317,3.785,3.844,2.871,6.331c-0.979,2.824-5.35,3.617-0.26,7.688c1.821,1.455,4.175-0.735,6.523,0&#xD;&#xA;&#x9;c3.262,1.018,10.49,2.926,7.698-5.539c-0.261-0.791,3.067-1.641,1.436-4.408c-1.305-2.205-4.436-2.434-7.176-1.584v-5.877&#xD;&#xA;&#x9;c4.11,0,7.242-0.396,9.655-3.28c1.435,2.487,3.524,2.317,3.784,5.091c0.197,2.201-2.087,2.937-0.26,5.086&#xD;&#xA;&#x9;c1.205,1.418,2.03,0.129,4.306,0c1.171-0.065,2.131,1.834,3.262,1.471c1.958-0.623,1.566-2.715,1.566-4.522&#xD;&#xA;&#x9;c1.958,0.902,3.849-0.905,3.132-2.034c-0.914-1.472-3.132-1.414-4.959-0.906c-0.586-1.639-0.521-2.769-0.521-4.521&#xD;&#xA;&#x9;c3.587,2.036,6.785,1.812,10.961,2.714c2.152,7.461-1.175,11.926-2.609,19.444c-0.458,2.431,1.238,3.844,1.564,6.33&#xD;&#xA;&#x9;c0.262,2.204-2.087,3.562-1.304,5.651c0.783,2.147,5.35,0.453,6.524-1.584c1.263,0.631,4.721,2.508,6.134,2.147&#xD;&#xA;&#x9;c1.509-0.382,0.938-3.063,1.173-4.405c2.415,0.168,5.743-1.416,4.959-3.395c-0.98-2.434-5.417-1.244-6.524-3.617&#xD;&#xA;&#x9;c-1.306-2.771,0.782-4.689,0.782-7.688c0-4.015,0.783-8.818,1.566-10.174c1.981-3.434,7.765-1.074,10.961-3.844&#xD;&#xA;&#x9;c7.568,2.485,12.332,5.085,18.854,8.251c4.177,2.034,0.393,8.084,5.154,8.251c2.281,0.059,4.106-1.809,6.197-2.599&#xD;&#xA;&#x9;c2.676-1.019,3.326,1.583,5.807-0.452c2.479-2.035,1.894-4.977-0.914-6.275c7.047-1.017,3.264-5.594,0.393-6.725&#xD;&#xA;&#x9;c-2.221-0.872-4.258,1.119-6.264,1.244c-1.118,0.066-2.131-1.52-3.394-1.924c-7.696-2.487-11.353-5.596-19.571-6.782&#xD;&#xA;&#x9;c0.662-1.159,1.451-3.394,2.609-3.616c3.521,1.921,11.945,4.827,15.137,1.129c-2.608-1.808-4.438-3.844-4.438-6.781&#xD;&#xA;&#x9;c10.372-1.074,17.939,4.521,26.617-0.453c2.351-1.355,4.828-2.315,4.695-4.748c-0.129-2.484-4.107-1.979-6.783-2.71&#xD;&#xA;&#x9;c-4.307-1.246-8.938-1.979-9.654-5.879c-0.456-2.6-3.066-3.391-3.914-5.879c-0.521-1.47,2.936-11.588,1.043-16.052&#xD;&#xA;&#x9;c-1.305-3.052-6.784-1.696-9.654,0.452c-3.863,2.922-4.796,7.303-6.656,10.965c-0.371,0.731-0.979-0.008-1.437,0.792&#xD;&#xA;&#x9;c-3.782-1.583-4.175-6.388-7.045-10.854c-2.022-3.165-8.61-8.308-10.699-5.2c-2.282,3.393-3.002,7.575-2.87,11.531&#xD;&#xA;&#x9;C78.334,59.996,79.966,63.896,82.837,66.947z"/>
    <path fill="#E9CD88" d="M92.751,87.635l-9.914,3.504c1.336,0.452,2.151,0.678,3.522,0.904l-9.004,2.939l4.307,0.791&#xD;&#xA;&#x9;c-2.479,0.537-3.654,1.354-6.852,0.451c-2.128-0.603-0.195,4.269-0.195,6.217c5.121,0.257,8.123-1.724,12.007-4.633&#xD;&#xA;&#x9;C90.535,94.87,91.773,91.932,92.751,87.635z"/>
    <path fill="#E9CD88" d="M61.11,94.87c-2.349-1.354-5.415-5.312-5.415-5.312c-0.393,0.902-0.131,1.524-0.131,2.485&#xD;&#xA;&#x9;c-2.74-0.679-6.394-5.539-6.394-5.539c-0.326,1.583,0.131,2.544,0.262,4.183c-3.23-1.156-4.437-3.164-6.133-5.766&#xD;&#xA;&#x9;c-1.11,1.471-1.272,5.514,0.26,8.594c0.686,1.412,2.904,2.092,4.566,2.6c5.448,1.64,7.732,4.578,13.506,4.578L61.11,94.87z"/>
    <path fill="#E9CD88" d="M106.389,96.453c1.027,0,3.395,3.886,3.783,5.256c-1.5-1.188-2.513-1.852-4.307-2.314&#xD;&#xA;&#x9;c1.24,1.81,1.826,3.928,1.826,5.426c0,0-2.217-1.641-3.475-1.752c0.215,1.072,0.018,1.979-0.111,2.713&#xD;&#xA;&#x9;c-0.785-0.622-1.83-0.904-2.808-1.188c-0.213,2.515-2.332,9.736-0.262,11.531c2.838,2.459,18.528,2.601,23.813,0.056&#xD;&#xA;&#x9;c1.319-0.636,3.963-17.111-0.197-19.726C121.02,94.163,109.064,94.913,106.389,96.453z"/>
    <path fill="#E9CD88" d="M71.484,114.879c0.872,0.471-1.566,3.504-2.75,5.24c-0.546-1.695-0.998-2.725-2.234-3.942&#xD;&#xA;&#x9;c-0.055,2.104-0.854,4.171-1.769,5.44c0,0-0.879-2.407-1.875-3.08c-0.477,1.007-1.196,1.686-1.756,2.249&#xD;&#xA;&#x9;c-0.284-0.888-0.996-1.606-1.653-2.295c-1.719,2.034-7.933,7.186-7.274,9.657c0.902,3.391,14.123,10.713,20.16,10.979&#xD;&#xA;&#x9;c1.509,0.065,13.829-12.69,11.899-16.817C82.547,118.701,74.693,114.801,71.484,114.879z"/>
    <path fill="#E9CD88" d="M32.358,101.266c0.881,0.457,0.598,4.844,0.118,6.192c-0.58-1.688-1.052-2.708-2.312-3.908&#xD;&#xA;&#x9;c-0.013,2.104-0.77,4.183-1.659,5.466c0,0-0.928-2.395-1.937-3.052c-0.456,1.017-1.162,1.703-1.71,2.276&#xD;&#xA;&#x9;c-0.302-0.885-1.029-1.592-1.699-2.27c-1.678,2.059-7.788,7.305-7.079,9.768c0.971,3.371,14.337,10.494,20.379,10.673&#xD;&#xA;&#x9;c1.51,0.043,8.592-9.583,6.581-13.681C41.281,109.146,35.565,101.137,32.358,101.266z"/>
    <path fill="#E9CD88" d="M48.497,96.168c0.685,0.357,0.465,3.77,0.091,4.818c-0.451-1.312-0.819-2.105-1.798-3.038&#xD;&#xA;&#x9;c-0.011,1.636-0.599,3.253-1.292,4.251c0,0-0.721-1.863-1.506-2.374c-0.355,0.79-0.904,1.325-1.331,1.771&#xD;&#xA;&#x9;c-0.234-0.688-0.799-1.238-1.321-1.767c-1.304,1.604-6.057,5.682-5.507,7.598c0.756,2.624,11.152,8.163,15.852,8.302&#xD;&#xA;&#x9;c1.174,0.035,6.682-7.455,5.118-10.641C55.436,102.3,50.992,96.073,48.497,96.168z"/>
    <path fill="#992300" d="M30.12,62.425c-1.305-3.448-2.153-5.087-0.783-8.479c2.871-7.179,10.699-7.97,17.746-12.548&#xD;&#xA;&#x9;c8.808-5.708,10.57-15.035,6.002-23.966c-3.001,3.052-4.437,4.013-8.09,5.2c-13.571,4.41-22.77,2.601-31.839,12.436&#xD;&#xA;&#x9;c-4.501,4.917-6.654,13.904-3.001,19.331C14.917,61.521,20.986,64.688,30.12,62.425z"/>
    <path fill="#E9CD88" d="M31.821,26.447l4.692,0.99l-1.958,3.787l3.393,0.678l-4.176,6.331l7.177-2.149l-1.304,3.958l5.61-2.6&#xD;&#xA;&#x9;c0.881,2.345-0.847,5.312,1.827,6.104c1.403,0.396,2.219-0.734,3.523-1.356c2.381-1.159,12.332-15.77,8.873-22.384&#xD;&#xA;&#x9;c-2.087-3.985-4.24-7.149-9.264-7.8C47.54,11.667,32.083,24.583,31.821,26.447z"/>
    <path fill="#272525" d="M29.187,60.293c12.176-8.229,28.502-5.48,40.846,0.874c1.119,0.576,7.986,3.688,10.137,4.93&#xD;&#xA;&#x9;c0.217,0.397,0.887,1.015,0.237,1.387c-9.386-2.528-17.286-8.433-27.151-9.759c-18.228-2.448-34.729,8.81-32.724,25.269&#xD;&#xA;&#x9;c0.445,3.656,1.189,6.982,3.557,10.119l-0.711,0.718c-10.806-6.326-6.515-24.351,2.728-30.916c1.079-1.053,1.969-1.528,2.845-2.466&#xD;&#xA;&#x9;c-0.506-0.031-0.812-0.484-0.889-0.873c-1.115-5.599,3.511-12.121,8.833-15.048c5.996-3.298,13.043-4.936,15.769-11.35&#xD;&#xA;&#x9;c1.885-4.438,2.809-10.667,0.179-14.997c-0.752,3.743-5.74,6.61-9.842,7.14c-9.196,1.186-18.394,0.953-25.313,7.396&#xD;&#xA;&#x9;c-5.573,5.187-9.595,12.745-6.818,19.824c2.034,5.182,7.885,8.826,14.05,9.501l0.178,0.617C8.493,65.505,3.58,48.586,9.268,38.003&#xD;&#xA;&#x9;c8.859-16.487,33.438-9.162,42.838-22.21c3.98,2.374,5.175,9.675,4.587,12.965c-1.026,5.729-1.913,11.397-11.56,15.767&#xD;&#xA;&#x9;c-3.981,1.803-7.281,1.767-10.671,4.828C31.063,52.423,29.125,55.984,29.187,60.293z"/>
    <path fill="#272525" d="M98.785,58.958c2.971-0.886,4.535-1.451,7.529-1.49c-0.155,0.119-9.071,3.441-9.071,3.441&#xD;&#xA;&#x9;c-0.942,0.312-1.433-1.654-1.601-2.055c-1.771-4.166-6.732-15.591-13.104-15.048c-5.972,6.867-3.636,17.097,1.305,23.882&#xD;&#xA;&#x9;c0.019,0.292-0.067,0.641-0.413,0.771c-1.923-1.718-3.813-4.573-5.156-6.677c-3.672-5.742-1.481-21.941,5.453-20.801&#xD;&#xA;&#x9;C87.168,41.548,96.406,50.33,98.785,58.958z"/>
    <path fill="#272525" d="M116.271,45.143c2.787,4.366,1.246,17.771,0,18.746c-0.711-0.051-1.244-0.359-1.836-0.616&#xD;&#xA;&#x9;c-0.121-5.342,2.072-10.529,0.297-15.922c-0.534-1.18-1.838-0.359-2.551-0.205c-4.686,2.312-7.647,6.472-10.554,10.067&#xD;&#xA;&#x9;c-0.476,0-1.008,0-1.127-0.463c1.603-4.57,5.22-9.399,10.376-11.864C112.42,44.063,115.205,43.755,116.271,45.143z"/>
    <path fill="#272525" d="M93.389,61.525c-2.025-0.001-4.55-0.683-6.703-0.739c0.588,0.734,1.646,2.643,1.312,3.616&#xD;&#xA;&#x9;c-0.817-0.099-1.604-0.355-2.433-0.41c-0.451,1.021,1.578,2.447-0.178,3.081c-1.437-0.345-2.527-4.257-1.423-5.136l2.004,0.601&#xD;&#xA;&#x9;c0.118-0.974-1.213-2.358-0.997-3.323c1.521-0.389,2.995,0.091,4.447,0.462c-0.893-3.596-6.041-13.128-6.284-14.637&#xD;&#xA;&#x9;C83.82,44.796,93.66,59.027,93.389,61.525z"/>
    <path fill="#272525" d="M111.471,62.554c2.135,1.078,4.445,1.797,6.641,2.67c0.354,0.514-0.354,0.873-0.828,1.027&#xD;&#xA;&#x9;c-2.967-0.668-6.049-1.489-8.241-3.492c-1.125-5.291,1.661-9.81,4.089-14.175C113.783,48.377,111.708,57.726,111.471,62.554z"/>
    <path fill="#272525" d="M124.229,65.901c1.901,2.971-5.004,7.31-7.707,5.546C112.344,68.722,121.213,61.188,124.229,65.901z"/>
    <path fill="#FFFFFF" d="M122.688,66.875c-0.176,2.614-4.636,4.146-5.158,3.185C116.955,69,120.771,64.654,122.688,66.875z"/>
    <ellipse fill="#272525" cx="121.57" cy="67.978" rx="1.635" ry="1.417"/>
    <path fill="#272525" d="M107.734,59.832c-1.936,0.446-4.207,1.694-4.684,1.591c-1.101,0.042-1.066-0.821-0.297-1.232&#xD;&#xA;&#x9;C104.355,59.882,106.076,59.214,107.734,59.832z"/>
    <path fill="#272525" d="M107.32,71.387c1.973,4.561-16.865,7.109-14.938-1.592C93.783,63.466,104.521,64.919,107.32,71.387z"/>
    <path fill="#FFFFFF" d="M103.846,73.166c-10.553,2.854-9.99-4.693-5.771-5.323c2.249-0.335,6.565,2.316,7.229,4.059&#xD;&#xA;&#x9;C105.559,72.563,104.866,72.889,103.846,73.166z"/>
    <ellipse fill="#272525" cx="103.051" cy="71.533" rx="2.471" ry="2.14"/>
    <path fill="#272525" d="M105.896,84.482c0.004,2.492,3.744,3.646,5.275,5.395c-0.589,1.262-2.207,1.689-3.558,2.104&#xD;&#xA;&#x9;c-4.82,1.481-9.765,0.17-13.693-2.465l-1.246,2.211c5.776,1.84,19.192,7.324,21.347,8.514c3.783-2.771,10.713-1.047,11.203,2.115&#xD;&#xA;&#x9;c0.174,1.14,1.146,2.879-3.05,4.554c2.334,2.426,2.404,7.168-2.052,7.876c-1.655,0.264-2.906-0.075-4.27-0.977&#xD;&#xA;&#x9;c-0.397,0.844-0.658,1.465-1.304,2.105c-4.019,4.002-11.884-0.415-10.077-5.906c-2.608-2.152-14.85-8.393-18.443-9.714&#xD;&#xA;&#x9;c-2.742,2.072-6.457,2.826-10.309,3.037c-0.764,4.672-3.479,15.46-3.458,17.198c2.285,0.34,8.676,1.131,7.958,5.428&#xD;&#xA;&#x9;c-0.576,3.455-1.826,4.125-4.916,3.516c0.498,4.565-4.366,4.936-7.945,3.082c-1.029,1.209-2.492,2.198-4.268,2.312&#xD;&#xA;&#x9;c-1.964,0.124-3.443-0.942-4.446-2.312c-1.808-2.462,1.062-4.522-0.712-7.652c-2.138-3.769,1.292-9.482,1.837-13.457&#xD;&#xA;&#x9;c0.747-5.43,0.915-12.254-0.427-17.594c0.496-0.744,1.908-0.846,2.371-0.213c3.484,4.745,1.443,11.959,0.903,17.19&#xD;&#xA;&#x9;c-0.453,4.374-5.243,9.569-1.126,13.456c0.268,1.785-2.292,6.498,1.304,7.037c1.551,0.232,2.942-0.958,3.379-2.364&#xD;&#xA;&#x9;c1.586,2.085,5.585,4.379,6.415,0.615c0.21-0.954-0.761-2.394-1.849-2.823c3.479,1.977,6.844,0.219,5.046-2.377&#xD;&#xA;&#x9;c-1.507-2.174-6.068-1.3-6.003-2.939c-0.185-7.191,3.784-24.305,3.653-26c-0.131-1.693,2.536-1.312,2.415,0.508&#xD;&#xA;&#x9;c-0.119,1.822-0.22,3.183-0.252,4.309c3.508-0.148,7.213-0.451,10.258-2.104c0,0,14.263,6.771,21.164,9.76&#xD;&#xA;&#x9;c-0.506,1.662-0.645,4.152,0.593,5.289c2.79,2.564,6.651,1.479,6.224-2.465c1.878,0.93,4.391,3.611,6.405,0.514&#xD;&#xA;&#x9;c1.631-2.508-0.091-3.881-1.593-4.784c3.197-0.508,5.232-2.933,2.185-4.358c-2.274-1.062-4.599-0.672-7.112,0.517&#xD;&#xA;&#x9;c-7.441-4.39-15.211-7.183-23.596-9.86c0.73-0.937,2.424-3.484,2.548-5.188c1.185-0.387,2.505,1.055,3.56,1.488&#xD;&#xA;&#x9;c3.895,1.608,7.547,1.457,11.681,0.616c-2.418-1.211-6.964-6.155-3.144-7.909c7.125,1.697,20.696,3.998,27.149-0.104&#xD;&#xA;&#x9;c0.718-0.453,1.731-1.67,1.306-2.465c-1.25-2.312-10.936-3.764-13.517-7.293c-0.297-0.403-0.103-0.821,0.413-0.977&#xD;&#xA;&#x9;c1.223-0.363,3.995,1.551,5.102,2.106c2.446,1.233,14.299,4.993,9.84,8.729c-5.105,4.277-16.651,4.631-23.356,3.955&#xD;&#xA;&#x9;C109.84,85.527,107.803,84.785,105.896,84.482z"/>
    <path fill="#272525" d="M142.484,77.068c3.589,7.16-9.75,10.291-13.043,4.416C126.202,75.71,139.854,71.819,142.484,77.068z"/>
    <path fill="#4B05B1" d="M139.801,80.92c-1.896,1.576-7.361,1.975-7.854-0.85c-0.707-4.069,6.476-5.096,8.421-1.883&#xD;&#xA;&#x9;C140.959,79.167,140.641,80.059,139.801,80.92z"/>
    <path fill="#272525" d="M45.015,93.111c4.178,2.916,9.091,4.887,14.228,6.162c0.285,0.596,0.062,1.689-0.712,1.951&#xD;&#xA;&#x9;c-2.665,0.906-11.574-4.8-13.931-6.162c-2.473,4.285-7.444,7.703-13.102,7.91c-0.24,1.125-0.319,2.481,0.533,3.44&#xD;&#xA;&#x9;c4.477-1.617,8.18,2.192,7.482,5.978c-0.34,1.844-2.502,1.674-2.502,1.674c4.996,6.713-4.807,10.426-8.656,5.55&#xD;&#xA;&#x9;c-6.855,3.733-13.574-5.862-6.521-9.503c0.389-4.053-11.317-9.637-6.996-14.688c1.07-1.25,3.822-2.221,5.573-2.312&#xD;&#xA;&#x9;c0.513,0.482,1.598,0.695,1.837,1.334c-1.68,0.889-4.678,0.561-5.275,2.621c-0.941,3.244,8.639,8.906,6.697,14.176&#xD;&#xA;&#x9;c-6.831,4.484,1.99,9.638,5.099,6.01c1.218,1.132,3.225,1.99,4.862,1.387c4.055-1.498,1.771-4.324,0.661-5.341&#xD;&#xA;&#x9;c3.524-0.34,2.767-3.077,2.302-3.903c-1.207-2.146-4.65-1.521-6.224-0.615c-1.292-2.618-1.312-5.635-1.008-8.424&#xD;&#xA;&#x9;c3.594,0.446,8.959-0.946,11.063-3.846c2.567-3.533,1.639-9.607-0.986-13.258c-0.475-0.661,1.116-0.873,1.602,0&#xD;&#xA;&#x9;C43.165,87.073,44.688,88.954,45.015,93.111z"/>
    <path fill="#272525" d="M42.625,98.139c-0.304,2.211,1.36,4.172,3.438,5.291c-0.743,1.161-2.504,2.688-0.416,4.045&#xD;&#xA;&#x9;c0.997,0.646,2.7-0.58,2.964-1.684c0.754,1.117,0.978,1.951,2.312,2.21c2.327,0.45,2.161-2.278,1.127-3.34&#xD;&#xA;&#x9;c2.534,1.004,4.1-0.185,3.187-1.767c-0.534-0.924-2.871-0.228-4.077,0.069c-0.647-1.058-2.409-4.003-1.469-5.271&#xD;&#xA;&#x9;c1.791-0.461,2.127,3.004,3.07,3.783c3.128-1.354,7.434,3.621,1.497,4.807c0.995,3.639-3.861,5.507-5.765,2.588&#xD;&#xA;&#x9;c-4.769,3.689-8.084-1.59-5-4.622c-0.979-1.412-4.283-2.551-2.826-5.341C41.059,98.166,41.754,98.076,42.625,98.139z"/>
  </g>
</svg>