<svg width="150" height="150" xmlns="http://www.w3.org/2000/svg"><path fill="#992300" d="M82.837 66.947c-6.004-1.301-9.331-3.505-15.008-5.653-11.221-4.239-18.528-6.047-30.141-3.166-16.18 4.07-21.661 18.767-15.396 34.479-2.872 1.018-6.59 1.978-7.047 4.636-.588 3.276 2.675 4.804 4.436 7.687 1.436 2.317 3.785 3.844 2.871 6.331-.979 2.824-5.35 3.617-.26 7.688 1.821 1.455 4.175-.735 6.523 0 3.262 1.018 10.49 2.926 7.698-5.539-.261-.791 3.067-1.641 1.436-4.408-1.305-2.205-4.436-2.434-7.176-1.584v-5.877c4.11 0 7.242-.396 9.655-3.28 1.435 2.487 3.524 2.317 3.784 5.091.197 2.201-2.087 2.937-.26 5.086 1.205 1.418 2.03.129 4.306 0 1.171-.065 2.131 1.834 3.262 1.471 1.958-.623 1.566-2.715 1.566-4.522 1.958.902 3.849-.905 3.132-2.034-.914-1.472-3.132-1.414-4.959-.906-.586-1.639-.521-2.769-.521-4.521 3.587 2.036 6.785 1.812 10.961 2.714 2.152 7.461-1.175 11.926-2.609 19.444-.458 2.431 1.238 3.844 1.564 6.33.262 2.204-2.087 3.562-1.304 5.651.783 2.147 5.35.453 6.524-1.584 1.263.631 4.721 2.508 6.134 2.147 1.509-.382.938-3.063 1.173-4.405 2.415.168 5.743-1.416 4.959-3.395-.98-2.434-5.417-1.244-6.524-3.617-1.306-2.771.782-4.689.782-7.688 0-4.015.783-8.818 1.566-10.174 1.981-3.434 7.765-1.074 10.961-3.844 7.568 2.485 12.332 5.085 18.854 8.251 4.177 2.034.393 8.084 5.154 8.251 2.281.059 4.106-1.809 6.197-2.599 2.676-1.019 3.326 1.583 5.807-.452 2.479-2.035 1.894-4.977-.914-6.275 7.047-1.017 3.264-5.594.393-6.725-2.221-.872-4.258 1.119-6.264 1.244-1.118.066-2.131-1.52-3.394-1.924-7.696-2.487-11.353-5.596-19.571-6.782.662-1.159 1.451-3.394 2.609-3.616 3.521 1.921 11.945 4.827 15.137 1.129-2.608-1.808-4.438-3.844-4.438-6.781 10.372-1.074 17.939 4.521 26.617-.453 2.351-1.355 4.828-2.315 4.695-4.748-.129-2.484-4.107-1.979-6.783-2.71-4.307-1.246-8.938-1.979-9.654-5.879-.456-2.6-3.066-3.391-3.914-5.879-.521-1.47 2.936-11.588 1.043-16.052-1.305-3.052-6.784-1.696-9.654.452-3.863 2.922-4.796 7.303-6.656 10.965-.371.731-.979-.008-1.437.792-3.782-1.583-4.175-6.388-7.045-10.854-2.022-3.165-8.61-8.308-10.699-5.2-2.282 3.393-3.002 7.575-2.87 11.531.196 4.805 1.828 8.705 4.699 11.756z"/><path fill="#E9CD88" d="M92.751 87.635l-9.914 3.504c1.336.452 2.151.678 3.522.904l-9.004 2.939 4.307.791c-2.479.537-3.654 1.354-6.852.451-2.128-.603-.195 4.269-.195 6.217 5.121.257 8.123-1.724 12.007-4.633 3.913-2.938 5.151-5.876 6.129-10.173zM61.11 94.87c-2.349-1.354-5.415-5.312-5.415-5.312-.393.902-.131 1.524-.131 2.485-2.74-.679-6.394-5.539-6.394-5.539-.326 1.583.131 2.544.262 4.183-3.23-1.156-4.437-3.164-6.133-5.766-1.11 1.471-1.272 5.514.26 8.594.686 1.412 2.904 2.092 4.566 2.6 5.448 1.64 7.732 4.578 13.506 4.578l-.521-5.823zm45.279 1.583c1.027 0 3.395 3.886 3.783 5.256-1.5-1.188-2.513-1.852-4.307-2.314 1.24 1.81 1.826 3.928 1.826 5.426 0 0-2.217-1.641-3.475-1.752.215 1.072.018 1.979-.111 2.713-.785-.622-1.83-.904-2.808-1.188-.213 2.515-2.332 9.736-.262 11.531 2.838 2.459 18.528 2.601 23.813.056 1.319-.636 3.963-17.111-.197-19.726-3.631-2.292-15.587-1.542-18.262-.002zm-34.905 18.426c.872.471-1.566 3.504-2.75 5.24-.546-1.695-.998-2.725-2.234-3.942-.055 2.104-.854 4.171-1.769 5.44 0 0-.879-2.407-1.875-3.08-.477 1.007-1.196 1.686-1.756 2.249-.284-.888-.996-1.606-1.653-2.295-1.719 2.034-7.933 7.186-7.274 9.657.902 3.391 14.123 10.713 20.16 10.979 1.509.065 13.829-12.69 11.899-16.817-1.685-3.609-9.539-7.509-12.748-7.431zm-39.126-13.613c.881.457.598 4.844.118 6.192-.58-1.688-1.052-2.708-2.312-3.908-.013 2.104-.77 4.183-1.659 5.466 0 0-.928-2.395-1.937-3.052-.456 1.017-1.162 1.703-1.71 2.276-.302-.885-1.029-1.592-1.699-2.27-1.678 2.059-7.788 7.305-7.079 9.768.971 3.371 14.337 10.494 20.379 10.673 1.51.043 8.592-9.583 6.581-13.681-1.759-3.584-7.475-11.593-10.682-11.464z"/><path fill="#E9CD88" d="M48.497 96.168c.685.357.465 3.77.091 4.818-.451-1.312-.819-2.105-1.798-3.038-.011 1.636-.599 3.253-1.292 4.251 0 0-.721-1.863-1.506-2.374-.355.79-.904 1.325-1.331 1.771-.234-.688-.799-1.238-1.321-1.767-1.304 1.604-6.057 5.682-5.507 7.598.756 2.624 11.152 8.163 15.852 8.302 1.174.035 6.682-7.455 5.118-10.641-1.367-2.788-5.811-9.015-8.306-8.92z"/><path fill="#992300" d="M30.12 62.425c-1.305-3.448-2.153-5.087-.783-8.479 2.871-7.179 10.699-7.97 17.746-12.548 8.808-5.708 10.57-15.035 6.002-23.966-3.001 3.052-4.437 4.013-8.09 5.2-13.571 4.41-22.77 2.601-31.839 12.436-4.501 4.917-6.654 13.904-3.001 19.331 4.762 7.122 10.831 10.289 19.965 8.026z"/><path fill="#E9CD88" d="M31.821 26.447l4.692.99-1.958 3.787 3.393.678-4.176 6.331 7.177-2.149-1.304 3.958 5.61-2.6c.881 2.345-.847 5.312 1.827 6.104 1.403.396 2.219-.734 3.523-1.356 2.381-1.159 12.332-15.77 8.873-22.384-2.087-3.985-4.24-7.149-9.264-7.8-2.674-.339-18.131 12.577-18.393 14.441z"/><path fill="#272525" d="M29.187 60.293c12.176-8.229 28.502-5.48 40.846.874 1.119.576 7.986 3.688 10.137 4.93.217.397.887 1.015.237 1.387-9.386-2.528-17.286-8.433-27.151-9.759-18.228-2.448-34.729 8.81-32.724 25.269.445 3.656 1.189 6.982 3.557 10.119l-.711.718c-10.806-6.326-6.515-24.351 2.728-30.916 1.079-1.053 1.969-1.528 2.845-2.466-.506-.031-.812-.484-.889-.873-1.115-5.599 3.511-12.121 8.833-15.048 5.996-3.298 13.043-4.936 15.769-11.35 1.885-4.438 2.809-10.667.179-14.997-.752 3.743-5.74 6.61-9.842 7.14-9.196 1.186-18.394.953-25.313 7.396-5.573 5.187-9.595 12.745-6.818 19.824 2.034 5.182 7.885 8.826 14.05 9.501l.178.617C8.493 65.505 3.58 48.586 9.268 38.003c8.859-16.487 33.438-9.162 42.838-22.21 3.98 2.374 5.175 9.675 4.587 12.965-1.026 5.729-1.913 11.397-11.56 15.767-3.981 1.803-7.281 1.767-10.671 4.828-3.399 3.07-5.337 6.631-5.275 10.94z"/><path fill="#272525" d="M98.785 58.958c2.971-.886 4.535-1.451 7.529-1.49-.155.119-9.071 3.441-9.071 3.441-.942.312-1.433-1.654-1.601-2.055-1.771-4.166-6.732-15.591-13.104-15.048-5.972 6.867-3.636 17.097 1.305 23.882.019.292-.067.641-.413.771-1.923-1.718-3.813-4.573-5.156-6.677-3.672-5.742-1.481-21.941 5.453-20.801 3.441.567 12.679 9.349 15.058 17.977z"/><path fill="#272525" d="M116.271 45.143c2.787 4.366 1.246 17.771 0 18.746-.711-.051-1.244-.359-1.836-.616-.121-5.342 2.072-10.529.297-15.922-.534-1.18-1.838-.359-2.551-.205-4.686 2.312-7.647 6.472-10.554 10.067-.476 0-1.008 0-1.127-.463 1.603-4.57 5.22-9.399 10.376-11.864 1.544-.823 4.329-1.131 5.395.257zM93.389 61.525c-2.025-.001-4.55-.683-6.703-.739.588.734 1.646 2.643 1.312 3.616-.817-.099-1.604-.355-2.433-.41-.451 1.021 1.578 2.447-.178 3.081-1.437-.345-2.527-4.257-1.423-5.136l2.004.601c.118-.974-1.213-2.358-.997-3.323 1.521-.389 2.995.091 4.447.462-.893-3.596-6.041-13.128-6.284-14.637.686-.244 10.526 13.987 10.255 16.485z"/><path fill="#272525" d="M111.471 62.554c2.135 1.078 4.445 1.797 6.641 2.67.354.514-.354.873-.828 1.027-2.967-.668-6.049-1.489-8.241-3.492-1.125-5.291 1.661-9.81 4.089-14.175.651-.207-1.424 9.142-1.661 13.97z"/><path fill="#272525" d="M124.229 65.901c1.901 2.971-5.004 7.31-7.707 5.546-4.178-2.725 4.691-10.259 7.707-5.546z"/><path fill="#FFF" d="M122.688 66.875c-.176 2.614-4.636 4.146-5.158 3.185-.575-1.06 3.241-5.406 5.158-3.185z"/><ellipse fill="#272525" cx="121.57" cy="67.978" rx="1.635" ry="1.417"/><path fill="#272525" d="M107.734 59.832c-1.936.446-4.207 1.694-4.684 1.591-1.101.042-1.066-.821-.297-1.232 1.602-.309 3.323-.977 4.981-.359zm-.414 11.555c1.973 4.561-16.865 7.109-14.938-1.592 1.401-6.329 12.139-4.876 14.938 1.592z"/><path fill="#FFF" d="M103.846 73.166c-10.553 2.854-9.99-4.693-5.771-5.323 2.249-.335 6.565 2.316 7.229 4.059.255.661-.438.987-1.458 1.264z"/><ellipse fill="#272525" cx="103.051" cy="71.533" rx="2.471" ry="2.14"/><path fill="#272525" d="M105.896 84.482c.004 2.492 3.744 3.646 5.275 5.395-.589 1.262-2.207 1.689-3.558 2.104-4.82 1.481-9.765.17-13.693-2.465l-1.246 2.211c5.776 1.84 19.192 7.324 21.347 8.514 3.783-2.771 10.713-1.047 11.203 2.115.174 1.14 1.146 2.879-3.05 4.554 2.334 2.426 2.404 7.168-2.052 7.876-1.655.264-2.906-.075-4.27-.977-.397.844-.658 1.465-1.304 2.105-4.019 4.002-11.884-.415-10.077-5.906-2.608-2.152-14.85-8.393-18.443-9.714-2.742 2.072-6.457 2.826-10.309 3.037-.764 4.672-3.479 15.46-3.458 17.198 2.285.34 8.676 1.131 7.958 5.428-.576 3.455-1.826 4.125-4.916 3.516.498 4.565-4.366 4.936-7.945 3.082-1.029 1.209-2.492 2.198-4.268 2.312-1.964.124-3.443-.942-4.446-2.312-1.808-2.462 1.062-4.522-.712-7.652-2.138-3.769 1.292-9.482 1.837-13.457.747-5.43.915-12.254-.427-17.594.496-.744 1.908-.846 2.371-.213 3.484 4.745 1.443 11.959.903 17.19-.453 4.374-5.243 9.569-1.126 13.456.268 1.785-2.292 6.498 1.304 7.037 1.551.232 2.942-.958 3.379-2.364 1.586 2.085 5.585 4.379 6.415.615.21-.954-.761-2.394-1.849-2.823 3.479 1.977 6.844.219 5.046-2.377-1.507-2.174-6.068-1.3-6.003-2.939-.185-7.191 3.784-24.305 3.653-26-.131-1.693 2.536-1.312 2.415.508-.119 1.822-.22 3.183-.252 4.309 3.508-.148 7.213-.451 10.258-2.104 0 0 14.263 6.771 21.164 9.76-.506 1.662-.645 4.152.593 5.289 2.79 2.564 6.651 1.479 6.224-2.465 1.878.93 4.391 3.611 6.405.514 1.631-2.508-.091-3.881-1.593-4.784 3.197-.508 5.232-2.933 2.185-4.358-2.274-1.062-4.599-.672-7.112.517-7.441-4.39-15.211-7.183-23.596-9.86.73-.937 2.424-3.484 2.548-5.188 1.185-.387 2.505 1.055 3.56 1.488 3.895 1.608 7.547 1.457 11.681.616-2.418-1.211-6.964-6.155-3.144-7.909 7.125 1.697 20.696 3.998 27.149-.104.718-.453 1.731-1.67 1.306-2.465-1.25-2.312-10.936-3.764-13.517-7.293-.297-.403-.103-.821.413-.977 1.223-.363 3.995 1.551 5.102 2.106 2.446 1.233 14.299 4.993 9.84 8.729-5.105 4.277-16.651 4.631-23.356 3.955-1.868-.191-3.905-.933-5.812-1.236z"/><path fill="#272525" d="M142.484 77.068c3.589 7.16-9.75 10.291-13.043 4.416-3.239-5.774 10.413-9.665 13.043-4.416z"/><path fill="#4B05B1" d="M139.801 80.92c-1.896 1.576-7.361 1.975-7.854-.85-.707-4.069 6.476-5.096 8.421-1.883.591.98.273 1.872-.567 2.733z"/><path fill="#272525" d="M45.015 93.111c4.178 2.916 9.091 4.887 14.228 6.162.285.596.062 1.689-.712 1.951-2.665.906-11.574-4.8-13.931-6.162-2.473 4.285-7.444 7.703-13.102 7.91-.24 1.125-.319 2.481.533 3.44 4.477-1.617 8.18 2.192 7.482 5.978-.34 1.844-2.502 1.674-2.502 1.674 4.996 6.713-4.807 10.426-8.656 5.55-6.855 3.733-13.574-5.862-6.521-9.503.389-4.053-11.317-9.637-6.996-14.688 1.07-1.25 3.822-2.221 5.573-2.312.513.482 1.598.695 1.837 1.334-1.68.889-4.678.561-5.275 2.621-.941 3.244 8.639 8.906 6.697 14.176-6.831 4.484 1.99 9.638 5.099 6.01 1.218 1.132 3.225 1.99 4.862 1.387 4.055-1.498 1.771-4.324.661-5.341 3.524-.34 2.767-3.077 2.302-3.903-1.207-2.146-4.65-1.521-6.224-.615-1.292-2.618-1.312-5.635-1.008-8.424 3.594.446 8.959-.946 11.063-3.846 2.567-3.533 1.639-9.607-.986-13.258-.475-.661 1.116-.873 1.602 0 2.124 3.821 3.647 5.702 3.974 9.859z"/><path fill="#272525" d="M42.625 98.139c-.304 2.211 1.36 4.172 3.438 5.291-.743 1.161-2.504 2.688-.416 4.045.997.646 2.7-.58 2.964-1.684.754 1.117.978 1.951 2.312 2.21 2.327.45 2.161-2.278 1.127-3.34 2.534 1.004 4.1-.185 3.187-1.767-.534-.924-2.871-.228-4.077.069-.647-1.058-2.409-4.003-1.469-5.271 1.791-.461 2.127 3.004 3.07 3.783 3.128-1.354 7.434 3.621 1.497 4.807.995 3.639-3.861 5.507-5.765 2.588-4.769 3.689-8.084-1.59-5-4.622-.979-1.412-4.283-2.551-2.826-5.341.392-.741 1.087-.831 1.958-.768z"/></svg>