<svg width="106" height="67" xmlns="http://www.w3.org/2000/svg"><path fill="#DD1A5A" d="M89.326 18.255c-5.323 3.815-8.424-.734-12.065-1.064-5.26-.477-6.955 4.22-12.065 5.146-4.147.751-5.01-2.256-9.948-2.902-.187.587-.528 1.143-1.016 1.652.728-.057 1.457-.029 2.19.163 3.143.82 5.134 4.158 8.575 4.276 3.776.13 6.073-3.407 8.948-5.225 3.442-2.178 5.033-.102 8.007 1.798 3.338 2.135 9.259 3.435 12.316-.095 3.075-3.551-1.874-5.947-4.942-3.749z"/><path fill="#6CBD45" d="M47.097 5.963a3.108 3.108 0 0 0-.636-1.982c-1.391-1.86-5.196-1.827-6.488.656-.292.562-1.015.652-1.317-.014-2.973-6.535-10.938-.533-9.748 5.35.093.462-.128.99-.627 1.105C18.93 13.204 15 26.296 17.04 34.745c-.093-.11-.177-.204-.264-.3-.016.714-.177 9.787 1.91 10.444a254.23 254.23 0 0 1 5.353-.17l6.746-.042 16.603-.12c1.608-.007 3.213-.002 4.819.027 1.45.253 2.344-9.848 2.344-9.848.168-2.398.382-8.088-1.456-11.81a1.837 1.837 0 0 1-.08-.19c-3.681 2.569-8.295 3.855-12.784 3.645-4.73-.222-11.037-2.725-13.198-6.277-.475-.782.586-2 1.315-1.315 1.732 1.629 3.163 2.882 5.14 3.91 2.61 1.356 4.48 1.787 6.795 1.889 4.15.182 8.748-.695 12.165-3.265 3.022-2.273 6.44-7.577 1.585-9.815-1.718-.792-3.586-1.12-5.373-1.69-2.095-.98-1.564-3.855-1.564-3.855z"/><path d="M53.837 22.132l.039-.03c2.763-2.173 5.597-6.742 3.192-10.095-1.885-2.628-5.31-2.115-8.173-3.104l-.045-.04c-.188-.174-.92-.94-.925-2.287.027-.057.049-.119.07-.18.849-2.485-3.716-8.175-8.57-2.933-4.015-6.119-12.957-.702-12.376 6.092-4.755 1.444-7.995 5.622-9.956 10.042-1.15 2.595-1.747 5.373-1.961 8.194-.116 1.528-.008 2.859.286 4.151-.037-.021-.06-.032-.06-.032.799 3.726.178 7.896.976 11.267.798 3.371 2.967 2.923 2.967 2.923a75.6 75.6 0 0 0 5.159.144l6.817-.08 15.753-.126a94.5 94.5 0 0 0 5.384-.255s1.98 1.032 2.512-6.687l.807-5.184c.494-2.706.3-7.872-1.766-11.588a1.327 1.327 0 0 0-.13-.192zM48.66 9.817c1.787.57 3.655.898 5.373 1.69 4.855 2.238 1.437 7.543-1.585 9.815-3.417 2.57-8.014 3.447-12.165 3.265-2.315-.101-4.185-.533-6.794-1.888-1.978-1.029-3.409-2.282-5.141-3.91-.73-.685-1.79.532-1.315 1.314 2.16 3.552 8.469 6.055 13.198 6.277 4.488.21 9.103-1.076 12.784-3.646.022.061.048.125.08.19 1.838 3.723 1.624 9.413 1.456 11.811 0 0-.894 10.1-2.344 9.848a216.96 216.96 0 0 0-4.819-.027l-16.603.12-6.746.042c-1.824.036-3.76.107-5.345.172l-.008-.002c-2.087-.657-1.926-9.73-1.91-10.445.087.098.17.191.264.3-2.04-8.449 1.89-21.54 11.24-23.666.5-.114.72-.643.627-1.105-1.19-5.882 6.775-11.884 9.748-5.35.302.667 1.025.577 1.317.015 1.292-2.483 5.097-2.516 6.488-.656.474.632.665 1.355.636 1.982 0 0-.531 2.875 1.564 3.854z"/><path fill="#6CBD45" d="M56.154 38.914c.472-.667.792-1.424 1.263-2.078.39-.542 1.49-.443 1.407.38-.159 1.591-1.558 2.967-2.568 4.12-.766.876-1.607 1.738-2.254 2.71-.176.263-.339.519-.523.753.032.032.06.066.088.106 2.713 4.08 4.77 8.556 7.651 12.52.946-2.927 3.156-4.077 6.288-4.028-1.675-2.386-1.584-4.833.444-6.769-3.187-.346-6.434-1.13-9.349-2.321-.569-.231-.82-1.045-.182-1.395 2.17-1.19 5.8-3.722 4.995-6.756-1.1-4.155-5.668-2.231-8.079-.412-.527.397-1.2-.383-.896-.869-2.886 2.262-9.087 7.873-2.23 9.71.13-1.232 1.252-2.384 1.995-3.278.655-.788 1.357-1.557 1.95-2.393z"/><path d="M70.047 45.267c-3.15-.144-6.476-.8-9.514-1.857 2.828-1.91 5.46-4.95 4.087-8.49-1.565-4.043-5.967-2.824-8.887-1.008l-1.18.824-.093.095c-.01.013-.012.03-.02.044-.305.485.367 1.266.895.868 2.41-1.819 6.978-3.742 8.079.412.804 3.035-2.824 5.567-4.995 6.756-.638.35-.387 1.165.182 1.395 2.915 1.192 6.161 1.975 9.349 2.322-2.028 1.936-2.119 4.382-.444 6.769-3.132-.05-5.342 1.1-6.288 4.028-2.88-3.964-4.938-8.44-7.651-12.52a.728.728 0 0 0-.088-.107c.185-.234.347-.49.523-.753.648-.971 1.488-1.833 2.254-2.71 1.01-1.152 2.41-2.528 2.568-4.119.082-.823-1.017-.922-1.407-.38-.471.654-.79 1.41-1.263 2.077-.593.837-1.296 1.605-1.95 2.392-.744.895-1.865 2.046-1.996 3.278l.09.518.117.682c2.906 4.664 5.166 9.661 8.632 13.971.478.596 1.244.03 1.32-.545.188-1.476.344-2.695 1.66-3.647 1.4-1.01 3.43-.775 5.018-.549.698.1 1.324-.68.735-1.262-1.316-1.3-2.354-2.494-2.004-4.502.23-1.317 1.633-1.972 2.654-2.552.693-.392.357-1.396-.383-1.43z"/><path fill="#6CBD45" d="M17.041 34.745a.075.075 0 0 1 .003.01c.02.026.045.047.066.074.396.499-.236 1.18-.715.715-2.087-2.029-5.714-2.95-8.137-.755-3.161 2.862.778 7.015 3.435 8.569a.76.76 0 0 1 .312.333c.33.271.331.952-.206 1.164-2.744 1.089-5.736 1.176-8.571 1.875 1.13.602 2.028 1.312 2.35 2.826.297 1.396-.336 2.69-1.19 3.794 1.644-.044 3.205.24 4.658 1.289.912.659 1.334 1.651 1.576 2.703 2.73-3.79 4.71-8.035 7.21-11.978-1.033-.963-1.864-2.21-2.74-3.297-.935-1.164-2.551-2.663-2.91-4.137-.187-.77.764-1.37 1.345-.783.539.545.832 1.312 1.256 1.951.55.828 1.116 1.641 1.693 2.45.73 1.023 1.767 2.117 2.21 3.341 8.475-2.902-1.645-10.144-1.645-10.144z"/><path d="M14.783 39.098c-.424-.64-.717-1.406-1.256-1.952-.58-.587-1.532.012-1.345.783.359 1.475 1.975 2.974 2.91 4.138.876 1.086 1.707 2.334 2.74 3.296-2.5 3.944-4.48 8.189-7.21 11.979-.242-1.053-.664-2.044-1.576-2.703-1.453-1.05-3.014-1.334-4.657-1.29.853-1.103 1.486-2.397 1.188-3.794-.32-1.513-1.22-2.223-2.35-2.825 2.836-.7 5.828-.787 8.572-1.875.537-.213.535-.894.206-1.165a.757.757 0 0 0-.312-.333c-2.657-1.554-6.596-5.706-3.435-8.569 2.423-2.194 6.05-1.273 8.137.756.479.464 1.111-.217.715-.716-.02-.026-.045-.047-.066-.073a.075.075 0 0 0-.003-.01 21.155 21.155 0 0 0-1.189-1.278c.034.099.065.197.1.297-2.535-1.778-6.604-1.719-8.888.288C3.5 37.19 6.8 41.782 9.92 44.069c-2.953.713-6.071.668-8.94 1.762-.566.214-.824 1.064-.183 1.39.787.404 1.601.748 2.378 1.175 2.585 1.415-.213 4.367-1.205 5.345-.6.589.037 1.382.744 1.28 1.774-.253 3.373-.312 5.018.536 1.362.7 1.504 2.34 1.672 3.648.072.565.826 1.122 1.298.538 3.382-4.2 5.677-9.023 8.374-13.655.074.005.152.008.226.012l-.614-1.212c-.444-1.225-1.48-2.318-2.21-3.342a86.977 86.977 0 0 1-1.694-2.448z"/><path fill="#6CBD45" d="M25.55 37.564c-.403 2.168-1.037 3.998-.386 6.24.37 1.274.857 2.506 1.279 3.763.162.483-.26.902-.711.935-1.083.077-2.44.38-3.301 1.057-.83.654.123 1.981 1.15 1.576.175-.07 1.54-.878 1.905-1.064.398-.19.972.232.666.666-.356.504-.934 1.531-1.108 2.128-.45.899.732 2.15 1.771 1.08.748-.84 1.122-1.853 1.522-2.885.245-.63 1.164-.553 1.197.163a4.8 4.8 0 0 0 .162 1.215c.157 1.218 1.78 1.558 2.116.149.21-.886.313-1.873-.001-2.755-.519-1.46-1.459-2.685-2.043-4.114-1.021-2.5-.683-5.408.306-7.858.387-.958 1.778-.73 1.893.052.32-2.814-1.473-4.143-3.833-4.228-2.484-.089-3.194 3.283-3.194 3.283-.009.043-.014.085-.023.128a.428.428 0 0 1 .632.47z"/><path d="M32.518 48.713c-.445-.899-.888-1.71-1.24-2.55l-.492-1.486a7.954 7.954 0 0 1-.21-1.421c-.087-1.707.684-3.353 1.327-4.891a.84.84 0 0 0 .064-.452c-.114-.783-1.506-1.01-1.893-.053-.99 2.45-1.327 5.358-.306 7.859.584 1.428 1.524 2.652 2.043 4.113.314.883.212 1.87 0 2.756-.335 1.408-1.958 1.069-2.115-.149a4.804 4.804 0 0 1-.162-1.215c-.033-.716-.952-.793-1.197-.164-.4 1.032-.774 2.046-1.522 2.886-1.039 1.07-2.22-.182-1.77-1.08.173-.597.751-1.625 1.107-2.129.306-.433-.268-.855-.666-.665-.366.185-1.73.994-1.906 1.063-1.026.405-1.98-.92-1.149-1.576.861-.677 2.218-.98 3.3-1.057.453-.033.874-.451.712-.934-.422-1.257-.909-2.49-1.279-3.763-.651-2.243-.017-4.072.385-6.24a.428.428 0 0 0-.632-.469.452.452 0 0 0-.2.24c-1.008 2.708-1.135 4.952-.64 7.383h-.037l.42 1.525c.095.326.197.656.31.996-1.707.448-4.557 1.418-4.157 3.272.408 1.893 2.314 1.72 3.884 1.125-.677 1.46-1.08 3.381.748 3.732 1.825.35 2.82-.825 3.526-2.248.767 1.737 2.37 2.837 3.841.477.81-1.297.554-3.58-.094-4.885z"/><path fill="#6CBD45" d="M46.066 37.83c.403 2.168 1.037 3.998.385 6.24-.37 1.274-.857 2.506-1.278 3.764-.163.482.259.9.71.934 1.084.077 2.44.38 3.302 1.057.83.655-.123 1.981-1.15 1.576-.176-.07-1.54-.878-1.906-1.064-.397-.19-.972.233-.665.666.355.504.934 1.531 1.108 2.128.449.9-.732 2.151-1.771 1.08-.748-.84-1.122-1.852-1.523-2.885-.245-.63-1.163-.553-1.196.163a4.8 4.8 0 0 1-.163 1.216c-.156 1.218-1.78 1.557-2.115.148-.21-.886-.313-1.872 0-2.755.52-1.46 1.46-2.685 2.043-4.114 1.022-2.5.684-5.408-.305-7.858-.387-.958-1.779-.73-1.893.053-.32-2.815 1.472-4.144 3.833-4.229 2.484-.088 3.193 3.283 3.193 3.283.01.043.015.085.023.128a.428.428 0 0 0-.632.47z"/><path d="M39.098 48.979c.445-.898.888-1.71 1.24-2.55l.493-1.486c.106-.446.18-.915.208-1.421.089-1.707-.683-3.353-1.326-4.891a.84.84 0 0 1-.063-.452c.113-.783 1.505-1.01 1.892-.053.99 2.45 1.327 5.358.306 7.859-.584 1.429-1.524 2.652-2.043 4.113-.314.883-.211 1.87 0 2.756.335 1.408 1.958 1.07 2.115-.149.106-.399.161-.806.163-1.215.033-.716.95-.793 1.196-.163.4 1.032.774 2.045 1.522 2.885 1.04 1.07 2.22-.181 1.771-1.08-.174-.597-.752-1.625-1.108-2.129-.306-.433.268-.855.666-.665.366.185 1.73.994 1.906 1.064 1.026.405 1.98-.921 1.15-1.577-.862-.677-2.218-.98-3.302-1.057-.452-.033-.873-.451-.71-.934.42-1.257.908-2.49 1.278-3.763.651-2.242.017-4.072-.385-6.24a.428.428 0 0 1 .632-.468.452.452 0 0 1 .2.24c1.009 2.707 1.135 4.952.64 7.382h.038l-.42 1.525c-.096.327-.198.657-.311.996 1.707.448 4.557 1.418 4.158 3.272-.41 1.893-2.315 1.72-3.885 1.125.677 1.46 1.08 3.381-.748 3.733-1.824.35-2.82-.826-3.526-2.249-.767 1.737-2.37 2.837-3.841.477-.81-1.297-.554-3.58.094-4.885z"/><path fill="#FFF" d="M45.641 12.698c-1.92 0-3.484-1.703-3.484-3.796s1.563-3.796 3.484-3.796 3.485 1.703 3.485 3.796-1.563 3.796-3.485 3.796z"/><path d="M45.641 5.639c1.63 0 2.952 1.46 2.952 3.263s-1.321 3.264-2.952 3.264c-1.63 0-2.952-1.461-2.952-3.264 0-1.802 1.322-3.263 2.952-3.263m0-1.065c-2.215 0-4.017 1.941-4.017 4.328 0 2.387 1.802 4.328 4.017 4.328 2.215 0 4.017-1.94 4.017-4.328 0-2.387-1.802-4.328-4.017-4.328V5.64z"/><path fill="#231F20" d="M47.197 7.951c.343 0 .654.166.879.435.225.268.365.64.365 1.049 0 .409-.14.78-.365 1.048-.225.27-.536.435-.879.435-.343 0-.654-.166-.879-.435a1.633 1.633 0 0 1-.364-1.048c0-.41.14-.78.364-1.049.225-.269.536-.435.88-.435z"/><path fill="#FFF" d="M36.096 14.029c-2.43 0-4.407-2.07-4.407-4.612 0-2.544 1.977-4.613 4.407-4.613 2.43 0 4.407 2.07 4.407 4.613 0 2.543-1.977 4.612-4.407 4.612z"/><path d="M36.096 5.336c2.14 0 3.875 1.827 3.875 4.08 0 2.254-1.735 4.08-3.875 4.08-2.14 0-3.874-1.826-3.874-4.08 0-2.253 1.735-4.08 3.874-4.08m0-1.064c-2.723 0-4.939 2.308-4.939 5.145 0 2.836 2.216 5.144 4.94 5.144 2.723 0 4.939-2.308 4.939-5.144 0-2.837-2.216-5.145-4.94-5.145v1.064z"/><path fill="#231F20" d="M38.273 8.133c.454 0 .866.203 1.163.532.298.329.482.783.482 1.284 0 .5-.184.955-.482 1.284a1.566 1.566 0 0 1-1.163.532c-.454 0-.866-.203-1.163-.532a1.909 1.909 0 0 1-.482-1.284c0-.501.184-.955.482-1.284a1.566 1.566 0 0 1 1.163-.532z"/></svg>