<svg xmlns="http://www.w3.org/2000/svg" viewBox="0 0 46.8 51.7"><path fill="#F7941E" d="M46.8 25c0-.2-.8-.4-1.3-.4-3.9.1-7.8.2-11.7.4-.9 0-1.9-.1-2.7.7-.9.9-1.9 1.8-2.9 2.6s-1.6 1.7-.9 3v.2c0 .6.4.8.9.7 1.1-.1 2.3-.1 3.4-.2s1.8.4 1.9 1.5c.2 1.7.3 3.4.3 5 0 2-.8 3.2-2.6 4-1.6.7-3.3 1.1-5 1.3-1.9.1-3.7-.2-5.4-1.2-1.8-1.1-3.2-2.6-4.6-4.2-1.2-1.3-1.8-3-2.4-4.7-2.4-5.7-2.7-11.6-.8-17.6.3-.9.5-1.8 1-2.6 1-1.4 2.1-2.7 3.2-3.9C18.7 8 20.8 7.3 23 7c1.1-.1 2.3-.1 3.4.2 2.2.6 4.1 1.6 5.3 3.6.6 1 1.3 2 1.7 3.1.2.5.4.7.9.7 1 0 2 0 2.9-.1.3 0 .7-.2.9-.4l2.1-2.1c.6-.5.9-1.2.9-2-.1-3.1-.1-6.3-.2-9.4 0-.2-.3-.5-.4-.5-1.4 0-2.8-.3-4.1.4-1 .6-2 .6-3.1.3-1.8-.4-3.7-.8-5.5-.8-1.5-.1-3 .3-4.5.6-2.8.5-5.5 1.2-7.9 2.9-2.5 1.7-5.1 3.5-7.6 5.4-2.5 1.9-4.3 4.6-5.7 7.4C.7 18.9.2 21.8.2 24.8H0c.2 1.8.3 3.6.6 5.3 1 5 2.8 9.7 6.2 13.7 1.3 1.5 2.2 3.2 4 4.2.9.5 1.9.9 2.8 1.3 1.2.5 2.3 1.3 3.6 1.5 2.7.5 5.4 1.2 8.3.9 3-.3 6-.8 8.7-2.3 3-1.6 5.4-4.1 7.8-6.4.8-.7 1.2-1.7 1.1-2.9-.1-1.7 0-3.5-.1-5.2 0-1.3-.3-2.6-.2-3.9 0-2.1 1-3.1 3.1-3.3.2 0 .6-.1.7-.2.2-1 .3-1.7.2-2.5zm-1.5 1.9c-1.6.1-2.7 1.3-2.8 3.1-.1 1 0 1.9 0 2.9.1 2.4.3 4.7.2 7.1 0 .8-.6 1.5-1.1 2.2-1.3 1.8-3.2 2.9-5.2 3.7-2.8 1-5.7 1.5-8.6 1.7-3.6.2-6.9-.8-10-2.5-1.3-.7-2.7-1.4-3.8-2.4-1.5-1.3-2.8-2.7-4-4.2-2.7-3.2-4-7.1-4.5-11.3-.2-1.8-.4-3.5-.6-5.3-.2-3.4 1.1-6.3 2.7-9.2 1-1.8 2.1-3.6 3.7-5 2.1-1.8 4-3.8 6.6-4.9C21.5 1.3 25.2.4 29.1.5c3 .1 5.8.9 8.5 2.3.1.2.3.2.8.3-.2-.4-.4-.7-.5-.9-.3-1.2 0-1.5 1.2-1.6h1.2c.1 3.2.2 6.5.4 9.8h-2c-.1 0-.4-.3-.4-.5-.2-2.3-1.3-4.1-3.2-5.2-1.3-.8-2.9-1.3-4.4-1.5-2.4-.3-4.9-.2-7.3.6-2.5.8-4.5 2.3-6.4 4.1-3.3 3.4-5 7.5-5.8 12.1-.8 5 0 9.6 1.9 14.2.7 1.7 1.3 3.4 2.5 4.8 1.1 1.2 2.3 2.4 3.6 3.5 1.7 1.4 3.7 1.9 5.8 2.1 2.7.3 5.3.1 7.9-.8 1.5-.5 2.6-1.4 3.2-2.9.2-.4.2-.8.2-1.2.1-3.1.1-6.2.2-9.2.1-2.4-.8-3.3-3.2-3.1-.6 0-.8-.1-.8-.7 0-.2 0-.6-.1-1 4-.1 7.9-.3 11.9-.4.6 0 1.3 0 1.9.1.2 1.4.2 1.4-.9 1.5z"/><path fill="#FFF" d="M46.3 25.4c-.6 0-1.3-.1-1.9-.1-4 .1-7.9.2-11.9.4 0 .4.1.8.1 1 0 .6.2.7.8.7 2.4-.2 3.3.7 3.2 3.1-.1 3.1-.1 6.2-.2 9.2 0 .4-.1.8-.2 1.2-.6 1.5-1.7 2.4-3.2 2.9-2.6.9-5.2 1-7.9.8-2.1-.2-4.2-.7-5.8-2.1-1.3-1.1-2.5-2.3-3.6-3.5-1.3-1.3-1.8-3.1-2.5-4.8-1.9-4.6-2.7-9.3-1.9-14.2.8-4.6 2.5-8.7 5.8-12.1 1.8-1.8 3.8-3.4 6.4-4.1 2.4-.7 4.8-.8 7.3-.6 1.5.2 3.1.7 4.4 1.5 1.9 1.1 2.9 3 3.2 5.2 0 .2.2.5.4.5h2c-.1-3.3-.2-6.5-.4-9.8h-1.2C38 .7 37.7 1 38 2.2c.1.3.2.5.5.9-.6-.1-.8-.1-1.1-.2C34.8 1.5 31.9.7 28.9.6c-3.9-.2-7.6.7-11.2 2.3C15.2 4 13.3 6 11.2 7.7c-1.6 1.3-2.7 3.1-3.7 5-1.6 2.9-2.9 5.8-2.7 9.2.1 1.8.3 3.6.6 5.3.5 4.2 1.8 8 4.5 11.3 1.2 1.5 2.6 2.9 4 4.2 1.1 1 2.5 1.7 3.8 2.4 3.1 1.7 6.3 2.7 10 2.5 3-.2 5.8-.7 8.6-1.7 2.1-.8 3.9-1.8 5.2-3.7.5-.7 1.1-1.5 1.1-2.2.1-2.4-.1-4.7-.2-7.1 0-1-.1-1.9 0-2.9.2-1.8 1.3-2.9 2.8-3.1 1.2-.1 1.2-.1 1.1-1.5zM8.1 19.8c.7-2.6 1.3-5.3 2.8-7.7.8-1.3 1.6-2.7 2.4-4 .2-.3.6-.5.9-.8.1.1.2.1.2.2-2.7 4-4.8 8.4-5.7 13.2h-.4c-.1-.3-.3-.7-.2-.9zm-.2 2.6c.5-.1.8.4.7.9 0 .3-.4.6-.7.6-.3 0-.5-.3-1-.7.5-.4.7-.8 1-.8zm4.9 16.9c-.3-.3-.6-.6-.8-1-1.5-2.1-2.3-4.6-3.2-7-.6-1.8-1.1-3.6-1.1-5.5 0-.5 0-.5.6-.7.3 5.1 2.5 9.6 4.7 14 0 .1-.1.2-.2.2z"/><path fill="#F7941E" d="M13.1 39.2c-.1 0-.2.1-.2.1-.3-.3-.6-.6-.8-1-1.5-2.1-2.3-4.6-3.2-7-.6-1.8-1.1-3.6-1.1-5.5 0-.5 0-.5.6-.7.2 5.1 2.5 9.6 4.7 14.1zm1.2-31.7c-2.7 4-4.8 8.4-5.7 13.2h-.3c-.1-.3-.3-.7-.2-.9.7-2.6 1.3-5.3 2.8-7.7.8-1.3 1.6-2.7 2.4-4 .2-.3.6-.5.9-.8 0 0 0 .1.1.2zM8.6 23.3c0 .3-.4.6-.7.6-.3 0-.5-.3-1-.7.4-.4.7-.8.9-.9.6 0 .9.5.8 1z"/></svg>