<svg width="150" height="150" xmlns="http://www.w3.org/2000/svg"><path fill="#FFF" d="M104.482 102.611c2.229 5.01 7.834 12.349 13.187 12.563 8.196.341 6.39-15.86 2.271-20.319.623-.963 1.592-1.527 2.537-1.994-.067-.127-.133-.254-.207-.383-7.352 0-11.602-4.812-20.734 10.586.227.375.461.756.701 1.139.23-.844.931-1.428 2.245-1.592z"/><path fill="#272525" d="M122.65 92.773c-.059.026-.116.061-.174.088-.947.467-1.916 1.031-2.537 1.994 4.119 4.459 5.926 20.66-2.271 20.319-5.354-.216-10.958-7.555-13.188-12.563-1.313.164-2.016.748-2.246 1.592-1.174 4.268 9.94 15.324 17.391 14.062 9.441-1.598 7.133-23.454 3.025-25.492z"/><path fill="#FFF" d="M111.335 8.063c-13.046-2.121-24.533 5.324-32.29 17.342-5.518 8.546-2.722 15.869-4.417 25.133-1.342 7.339-10.915 6.836-13.568 14.181-2.897 8.021 2.454 17.283-4.915 23.375-4.283 3.541-7.678.791-11.923-1.146-4.05-1.851-8.738-1.189-12.301 1.724-5.104 4.176-6.654 15.621-14.51 14.438-3.124-.473-7.003-4.479-7.444-8.26-1.366 1.787-1.719 4.383-1.514 6.68.443 4.937 4.387 9.815 8.327 11.562 6.961 3.085 11.949-3.897 18.358-1.723 14.051 4.767 15.039 29.586 36.725 27.301 13.575-1.433 17.952-26.298 23.079-32.117 5.513-6.245 11.104-7.493 17.412-10.125 27.383-11.411 30.15-42.578 24.371-67.759-1.239-5.387-6.036-17.458-25.39-20.606z"/><path fill="#272525" d="M133.958 14.649C120.889-3.95 85.757.749 75.827 21.46c-2.245 4.684-3.673 7.441-3.911 12.926-.157 3.646.933 14.322-.314 16.875-1.68 3.438-9.609 4.448-12.996 8.617-4.24 5.218-.346 12.524-1.199 18.455-.411 2.86-2.529 6.347-5.047 7.181-4.308 1.43-9.359-7.438-18.951-3.334-7.547 3.23-8.523 18.232-16.754 16.764-3.232-.574-5.116-4.604-5.995-8.18-2.869 3.256-6.5 9.771-5.484 14.571 1.547 7.33 6.365 12.899 13.752 14.004 4.809.718 9.205-4.825 19.052-1.582 12.573 4.144 14.981 28.796 34.254 25.494 7.3-1.252 13.018-8.571 16.211-15.87 3.301-7.544 6.767-12.843 12.238-18.6 15.129-15.92 34.53-6.858 41.065-44.057 2.4-13.655 2.107-35.991-7.79-50.075zm-21.604 81.776c-6.31 2.632-11.899 3.88-17.412 10.125-5.127 5.819-9.504 30.685-23.079 32.117-21.686 2.285-22.674-22.534-36.725-27.301-6.409-2.175-11.397 4.808-18.358 1.723-3.94-1.745-7.884-6.625-8.327-11.562-.205-2.297.148-4.893 1.514-6.68.441 3.781 4.32 7.787 7.444 8.26 7.856 1.185 9.406-10.262 14.51-14.438 3.563-2.913 8.251-3.572 12.301-1.724 4.245 1.938 7.64 4.688 11.923 1.146C63.514 82 58.163 72.738 61.06 64.717c2.653-7.345 12.226-6.842 13.568-14.181 1.695-9.264-1.101-16.587 4.417-25.133 7.757-12.018 19.244-19.463 32.29-17.342 19.354 3.148 24.151 15.219 25.39 20.603 5.779 25.183 3.011 56.35-24.371 67.761z"/><path fill="#426EB9" d="M114.562 66.825c.179-1.612-.029-3.341.504-4.883-3.236-.957-8.051-2.767-10.773-5.086 0 0-.621 6.06 1.131 9.442 4.488-4.76 6.534 1.418 9.138.527z"/><path fill="#93659B" d="M114.121 69.411c-.564 1.058-.094 1.898-1.072 3.231-.332-3.054-2.915-7.82-6.367-3.911 1.801 3.883 4.023 6.581 9.678 7.725 1.274-2.128.68-7.7-2.239-7.045z"/><path fill="#272525" d="M122.891 60.797c1.846-.922 6.668-4.605 5.805-7.469-.18-.597-.975-1.617-1.389-1.148-8.731 9.917-17.641 4.466-24.896.815-2.136 14.592 1.132 19.315 6.604 24.819 3.732 3.756 15.156 4.793 14.064-.146-.428-1.922-3.227-.904-4.415-1.363 1.709-2.964 1.343-7.504-1.733-9.006 0-1.931.312-3.362 1.029-5.093 1.554-.272 3.463-.681 4.931-1.409zm-17.467 5.501c-1.752-3.382-1.131-9.442-1.131-9.442 2.723 2.319 7.537 4.129 10.773 5.086-.533 1.542-.325 3.271-.504 4.883-2.604.891-4.65-5.287-9.138-.527zm10.935 10.158c-5.654-1.144-7.877-3.842-9.678-7.725 3.451-3.909 6.034.857 6.366 3.911.979-1.333.509-2.173 1.072-3.231 2.921-.655 3.515 4.917 2.24 7.045z"/><path fill="#FFF" d="M129.128 34.396c-4.724-3.114-7.926 7.714-3.219 10.725 6.295 4.025 7.84-7.678 3.219-10.725z"/><ellipse fill="#272525" cx="127.973" cy="40.258" rx="1.18" ry="2.146"/><path fill="#272525" d="M131.309 31.674c-6.357-6.681-13.41 4.909-9.086 13.423 1.324 2.61 4.537 4.174 7.062 3.785 6.631-1.022 6.022-13.006 2.024-17.208zm-5.4 13.447c-4.707-3.011-1.505-13.839 3.219-10.725 4.621 3.047 3.076 14.75-3.219 10.725z"/><path fill="#FFF" d="M96.16 42.57c5.332 7.155 11.261-4.488 7.38-9.838-3.965-5.464-11.366 4.491-7.38 9.838z"/><ellipse fill="#272525" cx="99.96" cy="38.257" rx="1.571" ry="2.861"/><path fill="#272525" d="M106.887 30.867c-4.434-9.989-16.266-1.002-14.699 9.981.479 3.367 3.379 6.5 6.244 7.253 7.536 1.983 11.239-10.953 8.455-17.234zM96.16 42.57c-3.986-5.347 3.415-15.302 7.38-9.838 3.881 5.35-2.048 16.993-7.38 9.838z"/><path fill="#FFF" d="M70.844 73.163c.404 3.958-3.706 12.442.314 19.461 1.854 3.235 6.296 5.784 9.715 4.812 7.266-2.064 7.598-14.812 8.58-21.398.625-.661 1.163-1.068 1.625-1.268-8.212-13.383-17.791-5.692-20.886-2.599.338.181.6.487.652.992z"/><path fill="#272525" d="M91.078 74.769c-.462.2-1 .607-1.625 1.268-.982 6.588-1.314 19.334-8.58 21.398-3.419.974-7.861-1.576-9.715-4.812-4.02-7.019.09-15.503-.314-19.461-.052-.505-.312-.811-.651-.993a2.1 2.1 0 0 0-.863-.227c-7.108 4.114-3.757 32.385 9.716 32.385 11.001.001 17.906-32.094 12.032-29.558z"/></svg>