<svg width="150" height="150" xmlns="http://www.w3.org/2000/svg"><path fill="#272525" d="M82.727 8.559c2.688-1.259 4.953-1.409 7.387.68 3.818 3.276 1.613 7.358 4.425 10.419 6.259 6.817 11.019 12.22 10.653 22.706-.107 3.11-.24 5.876-1.148 8.861-.188.607-1.523 3.756-1.516 3.765 4.562 4.757-.789 15.182 3.367 21.742 6.848 10.809 15.434 7.617 17.34 9.908.486 3.67.365 7.656-.805 11.155.508.453 2.088.195 2.766.169 1.013-.035.994-1.086 1.81-1.527-.004-1.938.065-3.896.703-5.721 2.356-1.812 7.634-2.796 10.401-2.037 1.148.313 2.146 1.387 3.117 2.037 2.139 1.434 2.994 3.455 3.269 6.286.032.356-.101.916-.504.962-1.037.125-3.429-1.994-5.882-1.357-.91-.371-2.199-.981-3.164-.565 1.154.319 2.152 1.343 3.268 1.823.491.21 2.283.458 2.662.611 3.52 1.43 3.486 4.726 3.27 8.152-1.131-.518-5.189-3.35-6.031-2.55 1.794.989 2.229 3.123 3.016 4.983-.393 1.285-.646 2.636-1.206 3.852-.647.098-3.217-3.256-3.769-3.852l-2.768-.679c-1.994 1.724-5.26 2.318-7.486.849-1.188-.784-.912-1.69-1.657-2.719-1.541-.324-3.339.752-4.726-.396-.396.085-4.547 5.689-5.451 6.711-.926-.203-3.646-2.831-4.651-2.124-.429-.829-1.171-.511-1.606-1.474-.479-1.06-.871-2.166-1.66-3.002l.104-.111c-.646-.416-1.328-1.391-2.161-1.133 2.036 2.062 4.843 7.525 2.414 10.191-2.31.219-3.878-2.939-4.927-4.869-1.738-.047-4.186-.248-4.223-2.832-1.236-.215-2.342.656-3.521.908.138 3.438 1.031 6.189-.853 9.286-2.815 4.619-6.664 8.824-11.912 9.343-6.445.635-8.494 5.897-12.816 10.19-4.318 4.29-8.753 5.805-13.996 5.21-10.725-1.219-9.769-11.922-17.014-15.4-4.954-2.383-13.246 3.221-21.561-4.361-8.291-7.557-5.132-18.469-2.479-23.678.194-.384 1.314-2.42 1.373-2.65.339-1.314-1.301-3.744-2.513-2.209-1.407 1.783.184 4.988-.502 5.721-2.372 2.521-8.838-1.561-7.337-8.551 1.282-5.986 8.881-12.727 12.664-5.151l1.458 2.999c4.249-1.072 8.328 2.062 9.146 6.514 1.271 6.916-12.963 10.912-10.354 17.496 3.71 9.361 9.078-22.188 21.812-10.021 1.812.341 4.445-.395 5.428-2.321 1.428-2.803-.307-8.675 4.473-14.382-1.041-7.312.032-14.811 2.764-21.517 3.143-7.716 9.619-16.019 16.786-19.139.226-.098.78.017.705-.396-.339-1.825.101-2.887.855-4.302-1.973-4.351 3.195-8.9 4.471-12.402.976-2.675.168-6.4.454-9.286-.402-.729-1.285-.171-1.56-1.189-.407-1.509.16-3.29-1.307-4.36-1.496-1.091-5.809.259-5.829-2.773-.041-5.637 7.027-7.752 11-6.852 1.418.32 4.578 1.755 5.534 4.359z"/><path fill="#733E4B" d="M81.77 10.994c4.217-1.972 7.027-1.131 8.42 1.543 1.633 3.133 1.627 8.515 4.349 10.801 3.642 3.058 7.61 7.355 8.239 12.626.865 7.237.084 16.229-4.822 21.63-1.837 2.022-5.852 4.701-8.441 4.87-4.176.271-8.869-.666-12.565-4.587.243 1.898 2.188 4.093 4.577 5.833 5.899 4.306 16.434 1.973 19.548-6.002 1.825 1.84-1.509 15.861 5.325 23.781 3.045 3.524 5.156 5.271 9.5 6.396 1.734.451 4.479-.908 4.572 1.928.139 4.063-1.463 11.311-3.115 14.945-.731 1.611-2.791 4.434-4.168 5.523-.854-.549-3.318-.545-3.319-1.896 2.541-3.266-1.306-7.718-3.365-9.74 2.021-.633 2.802 3.158 4.923 2.943.699-.656.305-1.711.252-2.549-.588-9.568-5.973-7.273-12.414-7.359-1.957 1.451-3.511 3.875-3.869 6.512l-.705.682c-.347-12.198-2.983-14.854.354-27.689.274-1.069.931-2.607.954-3.681-.26-.346-.596-.349-.954-.283-8.379 13.125-2.243 20.086-2.767 31.821l-.953-.168c.216-2.182.225-4.559-.506-6.625-7.327 0-14.655-4.175-18.794-11.041-1.937-3.216-2.788-7.131-3.519-10.873.772 1.251 2.653 3.616 4.223 3.171 3.322-.942-.221-6.577 2.764-5.889 2.021-1.479-.003-7.668-2.061-7.7.681 1.671 1.727 3.929.252 5.265-.721-.083-1.079-.551-2.162-.396 1.397 2.464.603 4.87.603 4.87-.892 1.263-2.154-.002-3.116-.396l-.754-.283c-.218-.848.182-2.706-.955-2.831l-.251.283c-.838 10.615 2.664 20.157 10.757 25.932 3.725 2.658 6.672 1.763 10.604 2.722 1.254.305.479 1.446.853 2.435-1.389 12.868-13.102 11.293-15.681 23.557-.593.843-.468 1.641-1.558 1.188-1.561-.646-3.33-2.119-3.619-4.076-.868-5.869-1.493-7.877-5.679-11.666-8.86-8.021-12.975-23.867-10.002-36.012 1.946-7.95 6.83-16.867 13.62-20.554 1.049-.57 2.25-.527 3.368-.793.477 1.038 1.298 1.772 2.312 2.039-.488-.934-2.501-3.863-1.106-6.002.704-1.078 1.246 1.105 3.067 1.035-.831-2.545-1.843-4.393-1.359-7.263.921-5.449 4.996-10.111 4.674-15.741-.195-3.436-1.617-6.157 2.162-10.079-.996.181-2.462.595-3.972 3.114.988-5.861-3.11-2.542-5.023-5.208-2.582-3.6 5.572-4.31 7.938-2.946 1.399.803 2.168 1.984 3.364 2.883z"/><path fill="#272525" d="M101.07 34.096c-.18 1.375-1.114 3.323-1.811 4.474-4.07 6.751-10.242-1.684-15.076-2.322-1.681-.221-3.416.379-4.324 2.151-3.282 6.417 7.645 13.503 11.662 15.402 4.619-2.321 7.592-8.422 7.025-14.368.618-.812 1.004 1.691 1.062 2.136.645 4.655-1.229 11.002-5.073 13.307-3.022 1.812-8.108 3.378-10.856.283 0 0 4.117.126 5.932-.679-4.233-1.754-9.1-5.333-11.559-9.683-1.189-2.103-1.781-6.269-.152-8.267 1.565-1.921 4.484-3.349 6.785-2.718 2.888.791 4.955 3.382 7.59 4.473 4.575 1.897 7.148-6.881 8.795-4.189z"/><path fill="#272525" d="M94.686 57.877c-8.518 4.56-19.108-2.229-20.654-10.645h.604c.517.836.757 1.794 1.206 2.605 2.974 5.356 10.703 10.193 18.844 8.04z"/><path fill="#733E4B" d="M16.736 90.718c2.338-.644 4.563.417 5.93 2.606 5.195 8.309-12.814 13.601-7.84 22.025.851 1.441 3.06 1.893 4.474 1.642 6.138-1.087 7.294-12.271 13.871-13.08 4.37-.539 10.473 4.084 13.72-1.474 1.99-3.403.082-8.401 2.916-11.722 3.1 6.411 6.051 12.956 10.503 18.347 1.605 1.942 3.473 4.4 4.674 6.684 2.102 3.984 2.174 9.049 7.137 10.304 3.003-2.077 4.045-5.803 6.384-8.55 2.981-3.499 7.386-5.201 9.647-9.512 1.024.085 2.021.41 3.017.68-.247 2.564.185 5.357-.853 7.757-1.008 2.326-3.692 7.267-6.232 7.478-.876.07-1.918-.221-2.848-.186-5.575.236-8.182 3.194-11.427 7.771-2.61 3.68-9.955 7.062-14.073 7.359-6.445.463-8.846-7.428-11.71-11.552-2.74-3.944-8.796-5.444-12.816-3.682-4.661 2.049-10.195 1.038-14.223-2.321-1.803-1.501-4.001-5.168-4.674-7.586-1.783-6.411 4.361-11.67 5.176-17.271.75-5.15-5.241-7.793-7.488-3.793-1.052 1.871.024 3.029-.251 4.645-1.156-.785-2.886-1.033-3.468-2.604-1.54-4.156 5.961-12.209 9.398-6.399.48.812.65 1.595 1.056 2.434z"/><path fill="#BBB36C" d="M142.082 94.965c-1.277-.931-2.914-.021-4.573-1.074-1.433-.908-4.313-1.062-5.429.51-1.173 1.648-2.393 3.164-3.618 4.756-.215.279-1.021.822-.604 1.246.352.354 2.222-.188 2.613-.396.771-.404.693-1.574 1.709-1.812 1.897-.445 5.967.078 5.68 3.171-1.1-.283-2.226-.736-3.364-.565-1.438 1.733-3.64 2.36-5.685 2.037-.713-.111-1.73-1.32-2.158-.111 2.768 5.237 8.173.272 9.498 1.473.729.656 1.824 1.461 2.584 2.416.33.414 1.104 1.257 1.211 2.186.104.879-.438 1.84-.562 2.338-.396-.656-1.613-3.391-3.06-4.22-1.528-.878-2.685-.888-3.413-1.019-.821 1.642-4.299 2.246-5.905 1.694-1.188-.405-.808-3.1-1.709-4.073-1.396.614-3.112.116-4.571.109.934-1.027 1.383-2.404 1.51-3.679 2.287.171 4.479-.632 5.339-2.123 1.122-1.951.722-4.854 2.901-5.978 3.139-1.609 8.799-2.235 11.006 1.588.271.477.265 1.077.6 1.526zm-32.066 3.514c-1.477-.127-2.617-2.498-4.021-2.438-2.209.102-5.792-.566-6.986 2.039l-.252.111c.375 2.047 6.597-.086 8.345 3.853-.393 1.815 2.349 2.604 1.205 4.474l-.854-.963.15-.283c-1.246-1.461-10.01-4.795-8.443-2.15 1.01 1.707 4.482 2.318 5.881 5.152.039 1.586 1.254 2.844.955 4.473-2.121-1.584-1.281-4.628-4.423-5.266-3.146-.639-1.192-1.16-3.269-3.285-3.166-.288-4.896 4.246-8.596.965l1.206-4.645c1.787.133 4.196 2.24 5.431-.283 1.197-2.455 1.984-5.852 4.822-6.51 1.696-.396 4.553.476 6.283.848 1.425.303 2.48 2.411 2.566 3.908z"/><path fill="#BBB36C" d="M143.137 103.912c-1.056.169-1.812-1.357-3.117-1.076-.149-1.415-1.104-2.436-1.306-3.794 2.211.228 3.768 2.774 4.423 4.87z"/><path fill="#272525" d="M98.294 39.009c1.569 1.963 1.209 3.733.754 6.37-.708 3.999-1.946 6.9-5.215 8.422-2.308 1.08-4.021-.088-6.345-1.132-3.252-1.452-4.965-3.115-7.1-6.229-1.65-2.425-1.822-4.513-1.822-7.574 0-2.902 2.826-4.317 5.401-4.317 2.481 0 3.236 1.646 5.343 3.114 1.885 1.327 3.357 1.84 5.526 2.336 1.4.319 2.062-.601 3.458-.99z"/><path fill="#FFE700" d="M89.5 41.77c-1.18-2.654-3.863-3.468-6.473-3.68.598 3.149 3.677 4.458 6.473 3.68zm5.656.211c.703-1.38 1.476-2.354 2.889-2.478-.19 1.346-1.792 1.965-2.889 2.478z"/></svg>