<svg version="1.1" width="37" height="41" xmlns="http://www.w3.org/2000/svg" xmlns:xlink="http://www.w3.org/1999/xlink">
  <!-- Exported by Scratch - http://scratch.mit.edu/ -->
  <g id="Hat" transform="matrix(1.4071003198623657, 0, 0, 1.4071003198623657, 0.65, 0.55)">
    <g id="Hat_Base">
      <path id="Fill_1_" fill="#BA2915" d="M 25.742 18.600 C 25.742 18.600 25.295 14.085 30.605 11.258 C 35.914 8.430 38.864 5.588 39.270 5.055 C 39.579 4.650 40.229 3.169 40.971 3.964 C 41.717 4.758 41.717 7.784 40.971 10.910 C 40.229 14.035 41.975 15.971 41.772 18.303 C 41.772 18.302 34.276 14.879 25.742 18.600 Z " transform="matrix(1.8856489658355713, 0, 0, 1.8856489658355713, -45.4, -2)"/>
      <g id="Stripes_3_">
        <path id="ID0.4795656418427825" fill="#871212" d="M 26.104 16.218 C 26.104 16.218 33.381 12.240 41.536 16.218 L 41.108 14.780 C 41.108 14.780 34.825 11.491 26.758 14.781 L 26.104 16.218 Z " transform="matrix(1.8856489658355713, 0, 0, 1.8856489658355713, -45.4, -2)"/>
        <path id="ID0.2848444706760347" fill="#871212" d="M 29.274 11.988 C 29.274 11.988 36.167 10.078 40.553 12.908 L 40.815 11.738 C 40.815 11.738 36.046 9.035 31.223 10.636 L 29.274 11.988 Z " transform="matrix(1.8856489658355713, 0, 0, 1.8856489658355713, -45.4, -2)"/>
        <path id="ID0.9288907898589969" fill="#871212" d="M 36.121 8.104 C 36.121 8.104 39.714 8.132 40.868 10.227 L 41.313 9.165 C 41.313 9.165 40.606 7.113 37.066 7.154 L 36 8.193 " transform="matrix(1.8856489658355713, 0, 0, 1.8856489658355713, -45.4, -2)"/>
        <path id="ID0.18686081282794476" fill="#871212" d="M 39.270 5.055 C 39.270 5.055 41.024 5.363 41.483 6.446 L 41.313 5.055 L 39.608 4.100 L 39.270 5.055 Z " transform="matrix(1.8856489658355713, 0, 0, 1.8856489658355713, -45.4, -2)"/>
      </g>
      <path id="Outline_6_" d="M 25.527 18.966 L 25.493 18.624 C 25.488 18.578 25.092 13.910 30.487 11.037 C 35.855 8.178 38.760 5.312 39.070 4.904 C 39.123 4.837 39.183 4.737 39.254 4.624 C 39.551 4.143 39.961 3.483 40.527 3.483 C 40.750 3.483 40.961 3.587 41.154 3.793 C 42.082 4.781 41.886 8.150 41.215 10.968 C 40.801 12.712 41.188 14.066 41.563 15.376 C 41.844 16.363 42.112 17.294 42.022 18.324 L 41.991 18.677 L 41.669 18.531 C 41.638 18.517 38.513 17.116 34.089 17.116 C 31.225 17.116 28.450 17.693 25.842 18.829 L 25.527 18.966 L 25.527 18.966 Z M 40.528 3.983 C 40.239 3.983 39.876 4.571 39.678 4.887 C 39.598 5.016 39.528 5.129 39.469 5.206 C 39.129 5.653 36.239 8.539 30.722 11.478 C 26.417 13.770 25.997 17.136 25.980 18.226 C 28.553 17.157 31.278 16.615 34.088 16.615 C 37.828 16.615 40.605 17.566 41.539 17.934 C 41.541 17.122 41.316 16.338 41.082 15.513 C 40.707 14.205 40.283 12.723 40.728 10.852 C 41.525 7.511 41.380 4.764 40.789 4.135 C 40.696 4.034 40.608 3.983 40.528 3.983 L 40.528 3.983 Z " transform="matrix(1.8856489658355713, 0, 0, 1.8856489658355713, -45.4, -2)"/>
    </g>
    <path id="Puff" fill="#FFFFFF" stroke="#000000" stroke-width="0.5" d="M 40.868 1.173 C 41.364 1.173 41.814 1.365 42.140 1.674 C 42.465 1.983 42.667 2.411 42.667 2.882 C 42.667 3.353 42.465 3.781 42.140 4.090 C 41.814 4.399 41.364 4.591 40.868 4.591 C 40.372 4.591 39.922 4.399 39.596 4.090 C 39.271 3.781 39.069 3.353 39.069 2.882 C 39.069 2.411 39.271 1.983 39.596 1.674 C 39.922 1.365 40.372 1.173 40.868 1.173 Z " transform="matrix(1.8856489658355713, 0, 0, 1.8856489658355713, -45.4, -2)"/>
    <g id="Brim">
      <path id="Brim_Fill" fill="#FFFFFF" d="M 25.016 19.989 C 25.016 19.989 24.315 19.241 25.016 18.599 C 25.718 17.958 29.545 16.169 33.730 16.218 C 37.914 16.267 39.291 16.764 40.365 17.260 C 41.437 17.756 43.533 19.046 42.633 20.187 C 42.633 20.187 43.904 22.285 42.770 22.285 C 42.514 22.285 41.741 21.973 41.741 21.973 C 41.741 21.973 35.387 18.401 25.909 21.973 C 25.909 21.974 22.978 23.181 25.016 19.989 Z " transform="matrix(1.8856489658355713, 0, 0, 1.8856489658355713, -45.4, -2)"/>
      <path id="Brim_Outline" d="M 42.909 20.190 C 43.077 19.924 43.124 19.636 43.052 19.333 C 42.779 18.195 40.861 17.257 40.480 17.081 C 39.378 16.572 37.953 16.071 33.765 16.021 L 33.592 16.020 C 29.426 16.020 25.647 17.784 24.915 18.454 C 24.676 18.673 24.550 18.927 24.540 19.208 C 24.527 19.542 24.685 19.830 24.797 19.990 C 24.232 20.735 24.052 21.391 24.262 21.942 C 24.617 22.873 26.155 22.108 26.155 22.108 C 28.880 21.098 31.605 20.586 34.258 20.586 C 38.351 20.586 41.035 21.823 41.576 22.096 C 41.576 22.096 42.441 22.482 42.767 22.472 C 43.138 22.460 43.292 22.214 43.367 21.884 C 43.516 21.229 43.092 20.478 42.909 20.190 Z M 42.979 21.795 C 42.809 22.307 41.870 21.801 41.870 21.801 C 41.753 21.735 38.946 20.188 34.257 20.188 C 31.510 20.188 28.688 20.726 25.871 21.789 L 25.728 21.843 C 25.728 21.843 24.825 22.304 24.632 21.799 C 24.465 21.360 24.657 20.793 25.202 20.115 L 25.310 19.980 C 25.310 19.980 25.605 19.605 26.226 19.308 C 26.226 19.308 25.704 19.312 25.106 19.736 C 25.027 19.621 24.926 19.434 24.935 19.223 C 24.942 19.049 25.022 18.893 25.182 18.747 C 25.795 18.185 29.493 16.416 33.591 16.416 L 33.760 16.417 C 37.868 16.466 39.249 16.950 40.313 17.441 C 41.364 17.926 42.499 18.728 42.665 19.424 C 42.710 19.606 42.667 19.774 42.577 19.938 C 42.015 19.572 41.534 19.567 41.534 19.567 C 42.155 19.864 42.450 20.240 42.450 20.240 L 42.460 20.239 L 42.507 20.305 C 42.678 20.541 43.151 21.281 42.979 21.795 Z " transform="matrix(1.8856489658355713, 0, 0, 1.8856489658355713, -45.4, -2)"/>
    </g>
  </g>
</svg>