<svg width="68.27" height="120.339" viewBox="42 9 68.27 120.339" xmlns="http://www.w3.org/2000/svg"><path fill="#272525" d="M42 118.79c.619-24.146 19.605-33.536 16.923-56.546C56.446 40.987 80.18 29.019 70.479 9c20.431 10.525 5.262 28.273 14.858 43.751 9.804 15.787 1.754 32.503 15.685 44.576 7.326 6.295 8.254 13.825 8.254 23.526-.001 8.978-57.37 14.24-67.276-2.063z"/><path fill="#5B76DF" d="M104.324 119.615c-11.691 5.654-45.608 12.176-58.609-3.508.825-12.383 5.786-15.676 10.161-23.742 5.918-10.913 8.752-17.941 7.775-30.616-.338-4.384-.329-10.056 1.256-14.157 3.334-8.633 12.382-17.748 11.764-29.924 3.509 9.08.052 18.45.492 24.313.673 8.965 8.015 14.643 9.825 23.151 1.275 5.995-.232 12.688 1.055 18.677 3.614 16.817 16.037 18.214 16.281 35.806z"/><path fill="#FFE400" d="M97.684 114.943l12.586.306-10.213 4.125 1.183 8.796-6.002-8.869-11.649 1.637 8.14-4.006-4.07-8.549 7.297 3.858 3.205-6.148z"/><path fill="#FFE400" d="M87.828 90.989c-8.885-2.759-20.242 2.766-19.157 13.089 1.137 10.812 11.513 15.261 20.604 14.305-6.207-3.683-10.125-8.307-10.394-14.811-.315-6.995 3.398-8.593 8.947-12.583zM76.257 71.736l2.27-12.382 2.477 10.732 8.874.206-9.698 4.541-.207 11.763-2.684-8.666-9.08 2.679 4.953-6.602-5.572-4.127zm-21.462 33.846l.413-8.049 3.921 6.604 8.461.413-8.255 5.984.825 8.049-3.921-9.699-8.874 4.953 4.541-6.605-3.302-4.953zm18.59-61.427l4.767 1.401-3.893 3.893 2.098 4.529-4.846-3.911-6.707 5.264 5.627-8.113-6.846-6.673 6.481 3.538 2.373-7.738z"/></svg>