<svg width="117" height="105" viewBox="-1 -1 117 105" xmlns="http://www.w3.org/2000/svg"><defs><linearGradient id="a" y2="1"><stop offset="0" stop-color="#FF00BF"/><stop offset="1" stop-color="red"/></linearGradient></defs><path fill="#FFCCF2" stroke="#231F20" stroke-width="2" d="M47.545 39.447s10.347 3.054 14.217 3.896c3.867.842 10.851 1.684 10.851 1.684s-7.989 10.245-17.327 7.645c-9.339-2.597-9.171-8.485-7.741-13.225z" transform="matrix(.71457 -.4696 .654 .99516 -11.65 49.75)"/><path fill="url(#a)" d="M297.297 550.868c-13.775-15.436-48.17-45.529-76.434-66.874-83.744-63.242-95.142-72.394-129.144-103.703-62.684-57.72-89.305-115.71-89.214-194.34.044-38.384 2.661-53.172 13.41-75.797 18.236-38.386 45.1-66.909 79.445-84.355 24.325-12.355 36.323-17.845 76.944-18.069 42.494-.235 51.439 4.719 76.435 18.451 30.425 16.715 61.74 52.436 68.213 77.811l3.999 15.672 9.859-21.584c55.716-121.973 233.599-120.148 295.502 3.032 19.638 39.076 21.794 122.513 4.381 169.512-22.716 61.31-65.38 108.051-164.007 179.677-64.681 46.974-137.885 118.046-142.98 128.028-5.916 11.588-.283 1.816-26.409-27.461z" transform="translate(.3 -.75) scale(.1807)"/><path fill="#FFF" stroke="#231F20" d="M47.545 39.447s10.347 3.054 14.217 3.896c3.867.842 10.851 1.684 10.851 1.684s-7.989 10.245-17.327 7.645c-9.339-2.597-9.171-8.485-7.741-13.225z" transform="matrix(.64712 -.42527 .59226 .90123 -3.55 49)"/><g stroke-width="2"><path fill="#FFF" stroke="#FFF" d="M46.763 31.905c1.913 0 3.647 1.06 4.902 2.771 1.255 1.712 2.032 4.075 2.032 6.684s-.777 4.972-2.032 6.684c-1.255 1.711-2.989 2.77-4.902 2.77-1.913 0-3.646-1.059-4.901-2.77-1.256-1.712-2.032-4.075-2.032-6.684s.776-4.972 2.032-6.684c1.255-1.71 2.988-2.77 4.901-2.77z" stroke-width="1.681"/><path stroke="#000" d="M233.125 172.5c.241 0 .46.168.619.44.158.271.256.646.256 1.06 0 .414-.098.789-.256 1.06-.159.272-.378.44-.619.44s-.46-.168-.619-.44c-.158-.271-.256-.646-.256-1.06 0-.414.098-.789.256-1.06.159-.272.378-.44.619-.44z" transform="matrix(2.06775 0 0 1.58933 -435.25 -231.6)"/></g><g stroke-width="2"><path fill="#FFF" stroke="#FFF" d="M71.013 32.505c1.913 0 3.647 1.06 4.902 2.771 1.255 1.712 2.032 4.075 2.032 6.684s-.777 4.972-2.032 6.684c-1.255 1.711-2.989 2.77-4.902 2.77-1.913 0-3.646-1.059-4.901-2.77-1.256-1.712-2.032-4.075-2.032-6.684s.776-4.972 2.032-6.684c1.255-1.71 2.988-2.77 4.901-2.77z" stroke-width="1.681"/><path stroke="#000" d="M233.125 172.5c.241 0 .46.168.619.44.158.271.256.646.256 1.06 0 .414-.098.789-.256 1.06-.159.272-.378.44-.619.44s-.46-.168-.619-.44c-.158-.271-.256-.646-.256-1.06 0-.414.098-.789.256-1.06.159-.272.378-.44.619-.44z" transform="matrix(2.06775 0 0 1.58933 -411 -231)"/></g></svg>