<svg width="52" height="54" xmlns="http://www.w3.org/2000/svg"><path fill="#216D2F" d="M17.376 5.433c.32-.626.85-1.59 1.332-1.229 1.497 1.12 1.41 3.754 2.994 4.508 1.55.766 3.416-.275 4.989-.637.507-.117 1.527-1.534 1.407-.68-.484 3.384-3.601 6.59-2.776 9.92.869 3.505 4.313 5.962 7.055 8.355.9.645 3.683-.749 3.341.313-1.112 3.47-4.362 6.071-6.397 9.197-.99 1.524-1.954 3.208-2.56 4.965-.593 1.733.188 4.055-.81 5.714-.482.587-1.798-.527-2.198-1.148-1.165-1.805-1.028-4.34-2.4-5.991-5.113-3.949-6.089-3.993-7.863-4.73-.686-.229-2.458.744-2.092-.09 1.461-3.333 6.478-5.643 6.132-9.35-.316-3.386-5.105-4.445-7.634-6.618-.659-.599-1.542-.524-1.124-.999 1.673-1.896 4.396-2.527 5.826-4.477 1.546-2.026 1.639-4.78 2.778-7.023z"/><path fill="#288439" d="M46.297 17.68c.608-.158 1.567-.376 1.612.161.14 1.665-1.672 3.17-1.236 4.675.407 1.49 2.21 2.12 3.385 2.956.38.27 1.932.11 1.29.537-2.548 1.684-6.54 1.504-8.276 4.03-1.827 2.662-1.425 6.421-1.397 9.674.103.983 2.686 2.016 1.774 2.418-2.98 1.315-6.646.687-9.942 1.182-1.606.243-3.303.598-4.836 1.236-1.51.63-2.598 2.531-4.3 2.848-.678.027-.714-1.514-.537-2.15.515-1.849 2.29-3.261 2.58-5.158-.396-5.76-.945-6.438-1.505-8.061-.255-.594-1.956-1.2-1.182-1.45 3.095-1.003 7.615.98 9.887-1.452 2.075-2.22-.059-6.049-.107-9.028.009-.795-.565-1.341 0-1.343 2.26-.008 4.297 1.438 6.449 1.236 2.27-.17 4.166-1.741 6.34-2.311z"/><path fill="#216D2F" d="M31.841 35.145c1.497-1.508 3.181-3.137 4.622-4.837 1.987-2.344 5.668-8.09 5.373-7.254-.154.814-3.783 8.534-6.717 12.198-2.78 3.473-9.383 8.812-9.941 8.92-.56.11 3.316-5.05 5.105-7.522.454-.567 1.05-.994 1.558-1.505z"/><path fill="#C00" d="M28.079 43.272c2.153 0 4.104.853 5.517 2.233a7.509 7.509 0 0 1 2.287 5.387 7.509 7.509 0 0 1-2.287 5.387 7.875 7.875 0 0 1-5.517 2.234 7.875 7.875 0 0 1-5.517-2.234 7.509 7.509 0 0 1-2.287-5.387c0-2.102.874-4.007 2.287-5.387a7.875 7.875 0 0 1 5.517-2.233z"/><path fill="#FFADAD" d="M26.686 44.711c.287-.108.614-.088.919-.055.487.053.99.11 1.395.368.234.148.479.49.312.697-.301.465-.951.563-1.414.882-.58.4-1.165.789-1.652 1.322-.596.65-.747 1.836-1.524 2.167-.427.18-.775-.711-.863-1.212-.14-.633-.011-1.32.22-1.965.185-.516.518-.969.955-1.34.473-.403 1.054-.637 1.652-.864z"/><path fill="#BD2E2E" d="M29.107 52.855c1.094-.336 1.982-1.207 3.085-1.396.52-.095 1.357.107 1.432.606.13.882-.386 1.814-.918 2.516-.516.668-1.297 1.138-2.075 1.395-.875.29-1.846.394-2.755.22-.845-.118-1.79-.387-2.332-1.064-.344-.43-.389-1.354.074-1.653 1.001-.646 2.36-.278 3.489-.624z"/></svg>