<svg xmlns="http://www.w3.org/2000/svg" viewBox="0 0 19.8 53.1"><path fill="#53AD4E" d="M17.8 45.2h-.2c-.9-.1-1.5-.4-1.6-1.4 0-.5-.1-.9-.1-1.4 0-4.5-.1-9-.1-13.4 0-3.5-.2-7-.1-10.5.1-3.7.3-7.4.5-11.1 0-.9.1-1.8.2-2.7 0-1.1.6-1.8 1.7-2 .3-.1.7-.2 1-.2.9 0 .8-.6.8-1.2s-.2-1-.8-.9c-.2 0-.4-.1-.6-.1H8.6V0H6.1c-.7 0-1.4.2-1.9.8-1 1-1.9 2.1-3 3-.8.7-.6 1.6-.6 2.4 0 .4.2.5.7.5.8 0 1.6.1 2.3.3.6.1 1.1.5 1.1 1.1 0 .9-.1 1.8-.1 2.7-.1 3.8-.1 7.5-.2 11.3-.2 5.1.4 10.2.1 15.3-.2 2.5.1 5 .1 7.6 0 .2-.1.5-.2.7-1.3 1.1-2.7 2.2-4 3.2-.5.4-.6 2.6-.1 3 .1.1.2.1.3.1 1 .2 2 .5 3 .5 4.1.2 8.3.4 12.4.5.2 0 .6-.2.7-.4.9-1.6 1.8-3.2 2.6-4.8.9-1.5.3-2.5-1.5-2.6zM1.2 5.8c-.1-.4 0-.8.5-1.3C2.8 3.4 3.8 2.2 4.8 1c0 0 .1-.1.3-.2.1.8.2 1.5-.5 2.1-1.2.9-2.3 2-3.4 2.9zm2.2.4c-.4-.1-.9 0-1.3 0C2.1 6.1 2 6 2 6c1.2-1 2.4-1.9 3.4-3 .5-.5 1-.6 1.6-.6 1.3 0 1.6.4 1.6 1.7.1 7.1.1 14.3.2 21.4.1 4.6.3 9.3.4 13.9 0 1.1 0 2.2-.2 3.2-.2.8-.6 1.6-1.1 2.2-.7.8-1.8.6-2.8.7.1-1 .2-1.9.2-2.8 0-3.4-.1-6.8-.2-10.2 0-4-.1-7.9-.1-11.8 0-3.5.2-7 .2-10.6 0-.8.1-1.6 0-2.4-.1-1-.9-1.4-1.8-1.5zM.6 51c0-.8 0-1.3.7-1.8 1.2-.9 2.3-1.9 3.4-2.8.4.9-.3 1.6-.9 2.1-1 .9-2.1 1.7-3.2 2.5zm17.6-2c-.6 1-1.1 2-1.7 2.9-.1.2-.5.5-.7.5-3.8-.1-7.6-.3-11.4-.4-1 0-2-.2-3.1-.3 1.2-1.5 3.4-2.1 4-4.2 4.4.2 8.8.4 13.4.6-.2.3-.3.6-.5.9z"/><path fill="#FFF" d="M4.5 2.9c-1.2.9-2.2 2-3.3 2.9-.1-.4 0-.8.5-1.3C2.8 3.4 3.8 2.2 4.8 1c0 0 .1-.1.3-.2.1.8.1 1.5-.6 2.1zm-.7 45.6c-1 .9-2.1 1.6-3.2 2.5 0-.8 0-1.3.7-1.8 1.2-.9 2.3-1.9 3.4-2.8.4.9-.3 1.6-.9 2.1zm14.9-.5c-.2.4-.3.7-.5 1-.6 1-1.1 2-1.7 2.9-.1.2-.5.5-.7.5-3.8-.1-7.6-.3-11.4-.4-1 0-2-.2-3.1-.3 1.2-1.5 3.4-2.1 4-4.2 4.5.1 8.9.3 13.4.5zM9 42.6c-.2.8-.6 1.6-1.1 2.2-.7.8-1.8.6-2.8.7.1-1 .2-1.9.2-2.8 0-3.4-.1-6.8-.2-10.2 0-4-.1-7.9-.1-11.8 0-3.5.2-7 .2-10.6 0-.8.1-1.6 0-2.4-.1-1-.9-1.4-1.9-1.5-.4-.1-.9 0-1.3 0 .1-.1 0-.2 0-.2 1.2-1 2.4-1.9 3.4-3 .5-.5 1-.6 1.6-.6 1.3 0 1.6.4 1.6 1.7.1 7.1.1 14.3.2 21.4.1 4.6.3 9.3.4 13.9 0 1.1 0 2.1-.2 3.2z"/></svg>