<svg xmlns="http://www.w3.org/2000/svg" viewBox="0 0 25.1 48.4"><path fill="#41A2F2" d="M25 1.6c.1.6-.2.7-.8.8-.7.1-1.4.2-2 .5-.5.2-.7.8-.7 1.4 0 3.8.1 7.7.1 11.5 0 5.1.2 10.1.1 15.2-.1 4.2-1 8.4-2.8 12.2-1.2 2.6-3.3 4.4-6.3 4.7-1.6.2-3.2.3-4.8.5-2 .2-6-1.6-6.9-4.3-.3-1-.8-2-.9-3-.4-3.6 1.5-4.9 4.8-4.5 2 .3 2.2 1.8 2.5 3.2.4 1.4-.3 2.8-1.4 3.5-.3.2-.6.4-1 .7 2.8 1.1 5 .6 6.8-1.5 2-2.4 2.8-5.1 2.7-8.1-.1-5.2-.1-10.3.1-15.5.1-3.3-.2-6.6-.3-9.9 0-1.3 0-2.6-.1-3.9-.1-1.5-.8-2.4-1.9-2.7-.4-.1-.8-.1-1.2-.1-.6 0-.8-.2-.8-.8V-.1c.7 0 1.4-.1 2.1-.1h11.8c.8 0 1.2.2 1 1-.1.4-.1.6-.1.8z"/></svg>