<svg xmlns="http://www.w3.org/2000/svg" viewBox="0 0 28.7 51.3"><path fill="#53AD4E" d="M27.9 0c-1.6.1-3.2.1-4.7.1-3 0-6 0-8.9-.1-.6 0-.9.2-1.3.6-1.1 1.3-2.2 2.6-3.3 3.8-.1.2-.3.4-.3.6 0 1.8.2 2 2 2.1.3 0 .6.1.9.1.9 0 1.4.5 1.7 1.3.3.8.6 1.6.7 2.4.2 2.2.2 4.4.2 6.5 0 3 0 5.9-.1 8.9-.1 2.3-.1 4.5-.3 6.8-.2 2.8-.4 5.6-.9 8.3-.4 2.5-2.7 3.4-5.1 2.6.6-.6 1.3-1 1.8-1.7.9-1.4.8-3.6-.3-5-.2-.3-.7-.6-1.1-.7-1.9-.6-3.7-.3-5.3.9-1.1.8-2.2 1.7-3 2.8-1.5 2-.5 6 1.1 7.5 2.1 2.1 4.7 3.2 7.6 3.3 3 .1 5.7-.8 8.1-2.5 2.3-1.6 4.1-3.6 5.1-6.2 1.6-3.7 2.5-7.6 2.5-11.6.1-5.1 0-10.1-.1-15.2 0-3.8-.1-7.7-.1-11.5 0-.9.4-1.4 1.2-1.7.4-.2.9-.2 1.3-.2 1-.1 1 0 1-1.1V.6c.4-.4.2-.6-.4-.6zM10.2 5.8c.1-.3 0-.7.2-1C11.5 3.4 12.6 2 13.8.6c.2 1 .1 1.7-.7 2.4-1.1.9-1.9 2-2.9 2.8zm3.7 44.3c-2.5.8-5 .7-7.4 0-2.5-.8-4.7-2.2-5.5-5-.2-.8-.4-1.6-.4-2.4 0-.9.4-1.7 1.1-2.3.6-.5 1.2-1.1 2-1.8-.7 3 .1 5.4 1.9 7.4 1.5 1.6 3.5 2.6 5.9 2.4 2-.2 4.1-.4 6-.6-.4.7-2.4 1.9-3.6 2.3zm4.2-17.5c0 2.4.1 4.9-1 7.1-.8 1.7-1.8 3.3-3.4 4.3-.3.2-.6.3-1 .4 1.8-1.5 2-3.7 2.1-5.8.3-4.6.5-9.2.7-13.8.1-3.3.1-6.5.1-9.8 0-1.6-.1-3.2-.3-4.7-.2-1-.7-2-1.3-2.9-.3-.4-1-.6-1.6-.7-.4-.2-1-.2-1.4-.3 1-1 1.9-2.2 3-3.2.3-.3.3-.8 1-.7 1.4.1 2.3.6 2.6 2 .2 1.1.3 2.3.3 3.4.1 2.4.2 4.8.2 7.2v7.7c-.1 3.3-.1 6.5 0 9.8z"/><path fill="#FFF" d="M13 3.1c-1 .8-1.7 1.8-2.8 2.7.1-.3 0-.7.2-1C11.5 3.4 12.6 2 13.8.6c.2 1.1 0 1.8-.8 2.5zm4.6 44.7c-.4.7-2.5 1.9-3.7 2.3-2.5.8-5 .7-7.4 0-2.5-.8-4.7-2.2-5.5-5-.2-.8-.4-1.6-.4-2.4 0-.9.4-1.7 1.1-2.3.6-.5 1.2-1.1 2-1.8-.7 3 .1 5.4 1.9 7.4 1.5 1.6 3.5 2.6 5.9 2.4 2.1-.2 4.2-.4 6.1-.6zm.5-15.2c0 2.4.1 4.9-1 7.1-.8 1.7-1.8 3.3-3.4 4.3-.3.2-.6.3-1 .4 1.8-1.5 2-3.7 2.1-5.8.3-4.6.5-9.2.7-13.8.1-3.3.1-6.5.1-9.8 0-1.6-.1-3.2-.3-4.7-.2-1-.7-2-1.3-2.9-.3-.4-1-.6-1.6-.7-.4-.2-1-.2-1.4-.3 1-1 1.9-2.2 3-3.2.3-.3.3-.8 1-.7 1.4.1 2.3.6 2.6 2 .2 1.1.3 2.3.3 3.4.1 2.4.2 4.8.2 7.2v7.7c-.1 3.3-.1 6.5 0 9.8z"/></svg>