<svg xmlns="http://www.w3.org/2000/svg" viewBox="0 0 48.4 52.7"><path fill="#53AD4E" d="M45.5 45.1c-2.3-.4-4.4-1.4-6.2-3-2.5-2.3-5-4.5-7.4-6.9-3.6-3.6-7.2-7.3-10.8-10.9-.3-.3-.2-.5.1-.8 1-.9 2-1.8 2.9-2.8 1.1-1.1 2.2-2.4 3.4-3.5.7-.6 1.5-1.1 2.2-1.7.7-.5 1.4-1.1 2-1.7 2-2.1 3.8-4.3 5.8-6.5.4-.5.9-.9 1.4-1.2.8-.6 1.6-1.2 2.4-1.7.8-.5 1.6-1 2.5-1.3 1.2-.5 1.3-.4 1.4-1.7v-.3c.1-.6-.1-.8-.7-.9-1 0-2-.2-2.9-.1-3.3.2-6.7.5-10 .8-.2 0-.4.1-.5.2-1.3.8-2.5 1.6-3.8 2.4-.5.3-.8 1.3-.5 2 .3.7.8.4 1.3.3.5-.1 1-.1 1.7-.2-.2.4-.2.5-.3.6-.7.7-1.5 1.3-2.2 2-1.2 1.1-2.4 2.3-3.6 3.4-.4.4-.8.8-1.1 1.2-1.5 1.8-3 3.6-4.4 5.4L17 19.7c-.1-.1-.2-.1-.4-.2v-4.4c0-3 0-5.9-.1-8.8-.1-1.9.7-2.9 2.6-2.9h.6c.6.1.9-.3.9-.8v-.9c0-.4-.2-.6-.6-.6-.7 0-1.4-.1-2-.1-4-.1-8-.2-12-.2-.5 0-1.2.2-1.5.6C3.1 2.2 2 3.3.9 4.5.2 5.2-.2 6 .1 7.1c.1.5.3.7.8.8.9 0 1.7.1 2.6.1 2 .1 2 .5 2.1 2.2.1 1.9 0 3.8 0 5.8 0 4.1-.1 8.2-.1 12.3 0 5.1-.1 10.2 0 15.2 0 1.7-.4 2.7-1.7 3.8-1.2 1.1-2.4 2.3-2.2 4.2.1.8.3 1 1 1 1.1-.1 2.3-.2 3.4-.1l7.8.3c1.3.1 2.6.2 3.4-1.2.8-1.5 2.2-2.7 2.9-4.5.4-1 .2-1.3-.9-1.2h-.4c-1.7 0-2.5-.5-2.5-1.9v-7c0-.1 0-.2.1-.4l.4.4c.8.9 1.6 1.9 2.4 2.8 1 1 2.1 2 3.1 3 1.3 1.2 2.5 2.6 3.8 3.8 3.1 2.6 6.6 4.4 10.6 5 1.1.2 2.2.1 3.3.3 1.6.3 2.8-.4 4-1.1 1.1-.7 2.2-1.5 3.1-2.5.7-.8.9-1.5 1.1-2.4-.8-.3-1.7-.5-2.7-.7zM27.6 4.9c-.3-.6 0-.8.3-1 1.2-.8 2.4-1.6 3.6-2.3.1.5.2 1.1-.6 1.6-1.1.6-2.1 1.3-3.3 1.7zM16.9 20c1.1-1 2.1-2.2 3.2-3.2 1.7-1.7 2.9-3.9 4.8-5.5.8-.6 1.5-1.4 2.3-2.2.9-.8 1.8-1.6 2.6-2.5.8-.8.7-1.1-.2-1.8 1.5-.9 2.9-2.6 5.1-1.4-.9.9-1.8 1.8-2.6 2.7-1.6 1.7-3.3 3.3-4.9 5l-1.8 1.8c-1.5 1.6-2.9 3.2-4.3 4.8-1.5 1.5-2.9 3-4.4 4.6-.6-.9-.3-1.8.2-2.3zM.8 7c-.3-.4-.3-.6 0-1 .8-1 1.7-1.8 2.5-2.7.5-.5.9-1.1 1.3-1.7.1-.2.3-.3.5-.6.5 1.8-.8 2.7-1.7 3.6C2.7 5.5 1.7 6.2.8 7zm2.8.3c-.6 0-1.2-.1-1.9-.1 0-.1-.1-.2-.1-.3.1-.1.3-.1.4-.2 1.3-.8 2.4-1.8 3.3-3 .3-.5.8-.5 1.3-.4 2.7.5 2.5.6 2.7 3.4.3 3.2.1 6.5.1 9.7 0 3.4-.2 6.8-.2 10.2.1 4 .3 8 .5 12.1 0 1.8-.1 3.6-.2 5.4 0 .6-.3 1-.9 1.2-.9.3-1.7.8-2.6.6.1-2.5.1-5 .2-7.5 0-2-.1-4 0-6 0-5.2.1-10.4.1-15.6 0-1.9-.1-3.7-.2-5.6 0-.6.1-1.1 0-1.7-.3-1.6-.9-2.1-2.5-2.2zM2.3 51.5c.1-.4 0-.9.2-1.1.9-1.2 1.8-2.4 2.8-3.7.7 1.2-.2 1.8-.7 2.5-.7.7-1.5 1.4-2.3 2.3zM18 48.4c.2 0 .3.1.7.2-1 1.2-2 2.3-3 3.4-.2.2-.5.2-.8.1-3.1-.1-6.2-.2-9.2-.3H3.3c.3-.5.6-1 .9-1.4.4-.5.8-1.1 1.3-1.6.2-.2.5-.3.8-.3 1.2-.1 2.5-.2 3.8-.2 2.6-.1 5.3 0 7.9.1zm23.4 2.7c-1 .3-2.1 0-3.1-.1-2.7-.1-5-1.2-7.4-2.3-2.2-1-3.9-2.5-5.6-4.2-2.1-2-4.3-4-6.3-6.1-.9-.9-1.6-2-2.3-3.1-.1-.2-.1-.5-.1-.8-.1-1.8-.2-3.7-.3-5.5 0-.4-.2-.7-.3-1.3 1.6 1.8 3.1 3.5 4.6 5.1.7.7 1.4 1.4 2.1 2 1.3 1.2 2.7 2.3 3.9 3.5 1.1 1 2 2.1 3.1 3.1 1.4 1.2 2.7 2.6 4.3 3.5 1.5.8 3.2 1.3 4.8 1.7 2.5.6 4.9 1 7.5 1.5-1.4 1.2-3 2.5-4.9 3z"/><path fill="#FFF" d="M3.5 4.6C2.7 5.5 1.7 6.2.8 7c-.3-.4-.3-.6 0-1 .8-1 1.7-1.8 2.5-2.7.5-.5.9-1.1 1.3-1.7.1-.2.3-.3.5-.6.6 1.8-.7 2.7-1.6 3.6zm27.4-1.5c-1.1.7-2.2 1.3-3.4 1.8-.3-.6 0-.8.3-1 1.2-.8 2.4-1.6 3.6-2.3.2.4.3 1-.5 1.5zm3.9.4c-.9.9-1.8 1.8-2.6 2.7-1.6 1.7-3.3 3.3-4.9 5L25.5 13c-1.5 1.6-2.9 3.2-4.3 4.8-1.5 1.5-2.9 3-4.4 4.6-.5-1-.3-1.8.3-2.4 1.1-1 2.1-2.2 3.2-3.2 1.7-1.7 2.9-3.9 4.8-5.5.8-.6 1.5-1.4 2.3-2.2.9-.8 1.8-1.6 2.6-2.5.8-.8.7-1.1-.2-1.8 1.4-.9 2.7-2.5 5-1.3zM4.6 49.1c-.7.8-1.5 1.5-2.3 2.4.1-.4 0-.9.2-1.1.9-1.2 1.8-2.4 2.8-3.7.7 1.1-.2 1.7-.7 2.4zm5-5.1c0 .6-.3 1-.9 1.2-.9.3-1.7.8-2.6.6.1-2.5.1-5 .2-7.5 0-2-.1-4 0-6 0-5.2.1-10.4.1-15.6 0-1.9-.1-3.7-.2-5.6 0-.6.1-1.1 0-1.7-.2-1.5-.9-2-2.4-2.1-.8 0-1.4-.1-2.1-.1 0-.1-.1-.2-.1-.3.1-.1.3-.1.4-.2 1.3-.8 2.4-1.8 3.3-3 .3-.5.8-.5 1.3-.4 2.7.5 2.5.6 2.7 3.4.3 3.2.1 6.5.1 9.7 0 3.4-.2 6.8-.2 10.2.1 4 .3 8 .5 12.1.1 1.7-.1 3.5-.1 5.3zm9.1 4.5c-1 1.2-2 2.3-3 3.4-.2.2-.5.2-.8.1-3.1-.1-6.2-.2-9.2-.3H3.3c.3-.5.6-1 .9-1.4.4-.5.8-1.1 1.3-1.6.2-.2.5-.3.8-.3 1.2-.1 2.5-.2 3.8-.2 2.7 0 5.3.1 8 .2.1 0 .3 0 .6.1zm27.7-.3c-1.5 1.1-3 2.4-4.9 2.9-1 .3-2.1 0-3.1-.1-2.7-.1-5-1.2-7.4-2.3-2.2-1-3.9-2.5-5.6-4.2-2.1-2-4.3-4-6.3-6.1-.9-.9-1.6-2-2.3-3.1-.1-.2-.1-.5-.1-.8-.1-1.8-.2-3.7-.3-5.5 0-.4-.2-.7-.3-1.3 1.6 1.8 3.1 3.5 4.6 5.1.7.7 1.4 1.4 2.1 2 1.3 1.2 2.7 2.3 3.9 3.5 1.1 1 2 2.1 3.1 3.1 1.4 1.2 2.7 2.6 4.3 3.5 1.5.8 3.2 1.3 4.8 1.7 2.4.7 4.9 1.1 7.5 1.6z"/></svg>