<svg width="229" height="63" viewBox="-1 -1 229 63" xmlns="http://www.w3.org/2000/svg"><g stroke="#010101" stroke-width=".774"><path fill="#FFF" d="M1.269.696h12.535v46.582H1.27V.696zm12.535 0H26.34v46.582H13.804V.696z"/><path fill="#FFF" d="M26.262.696h12.535v46.582H26.262V.696zm12.535 0h12.536v46.582H38.797V.696zm12.536 0h12.535v46.582H51.333V.696zm12.535 0h12.535v46.582H63.868V.696z"/><path fill="#FFF" d="M76.326.696H88.86v46.582H76.326V.696z"/><path fill="#FBD43F" d="M88.861.696h12.535v46.582H88.861V.696z"/><path fill="#FFF" d="M101.396.696h12.536v46.582h-12.536V.696z"/><path fill="#FFF" d="M113.854.696h12.535v46.582h-12.535V.696zm12.536 0h12.535v46.582h-12.536V.696zm12.535 0h12.535v46.582h-12.535V.696zm12.535 0h12.535v46.582H151.46V.696z"/><path fill="#FFF" d="M163.918.696h12.535v46.582h-12.535V.696z"/></g><path d="M10.554.696h6.423v31.261h-6.423V.697zm12.536 0h6.422v31.261H23.09V.697zm24.993 0h6.422v31.261h-6.422V.697zm12.38 0h6.423v31.261h-6.423V.697zm12.69 0h6.423v31.261h-6.423V.697zm24.993 0h6.423v31.261h-6.423V.697zm12.536 0h6.422v31.261h-6.422V.697zm24.993 0h6.422v31.261h-6.422V.697zm12.535 0h6.422v31.261h-6.422V.697zm12.535 0h6.423v31.261h-6.423V.697z" fill="#010101"/></svg>