<svg width="150" height="150" xmlns="http://www.w3.org/2000/svg"><path d="M113.537 77.195c.447.213-.018 1.625.302 2.312.33.701 1.451.667 2.112-.049 2.967-3.209-1.108-7.125-5.391-4.369.359.743.965 1.413.967 2.266.65-.041 1.388-.455 2.01-.16zm1.207 3.775c.652.708.4 2.925 1.611 2.729 1.211-.198 1.014-2.324.605-3.549-.55.507-1.112 1.008-2.216.82zm-1.16.276l-2.055-.075c.115-.667 1.146-.594 1.647-.832-.657-.462-.096-2.124-1.325-1.812-.002 1.789-2.287 4.352-3.862 2.188-.396.23-.929.864-1.447.646-.08-.521.619-.645.845-1.021-.211-.766-.719-1.445-.684-2.264l.684-.34c.646.682.861 2.865 2.336 2.34 1.543-.549.547-4.125-.686-4.719-1.329-.645-3.529.608-4.268 1.624-.808 1.108-.586 2.244-.644 3.623-1.109.068-2.303.233-3.42.058-3.824-.36-6.875-2.316-8.048-3.171l-3.866 2.927-3.062 2.576c1.049 2.541 6.409 3.802 6.409 3.802 5.643 1.33 10.891-1.294 13.237-3.172 2.539 2.919 4.09.604 4.843-.199.655.145 2.896.361 3.083.917.261.763-.368 2.052.282 2.796 1.396 1.592 3.421-1.031 2.494-2.453-2.237.561-1.934-2.453-2.493-3.439zm-18.72-7.384c-.316-.627-.719-1.215-1.036-1.843-1.531.296-2.834 1.382-4.135 2.189L82 77.75c.435 2.133 2 4.181 2 4.181l4.524-3.506 6.34-4.563zm-5.974-1.536c.646-.356 1.425-.694 1.425-.694l-1.567-2.595c-.427.092-.848.198-1.261.326 0 0-2.881 1.732-5.547 2.709l1.259 2.812 5.691-2.558zm-3.691-18.691c-1.412-.514-3.143-.146-4.826.416-.117.118-5.498.949-5.373 5.699s1.328 8.258 4.602 10.441c0 0 3.877-.281 7.325-2.611 5.976-3.715 3.044-12.206-1.728-13.945z" fill="#B1C7FF"/><path fill="#272525" d="M109.6 74.45c-1.418-1.258-3.146.003-4.51.643-1.826.856-1.72 2.423-1.932 4.078-.56.496-1.674.2-2.452.293 0 0-5.257-1.635-6.631-2.886l2.218-1.427s.34-.953 0-1.832c-.469-1.266-1.079-2.724-1.568-2.892-.617-.21-1.934.544-2.91.746-.76-.972-.899-2.202-1.535-3.229 4.27-4.014 1.734-15.058-4.445-16.445-1.958-.439-4.32-.229-6.225.658a.192.192 0 0 0-.008-.007c-7.024 2.653-6.352 4.85-5.988 11.39s5.231 9.174 5.231 9.174c.415.033.909-.03 1.44-.147l.986 3.183-1.669.75s1.273 5.641 4.023 8.633l1.111-1.13c.533.823 2.413 3.185 6.762 4.165 4.44 1.462 10.969-.651 13.445-2.626 1.943 1.849 4.119 1.138 5.459-.938.617.006 1.152.305 1.729.453-.387 1.485-.707 3.652 1.449 4.002 2.153.349 3.928-1.152 3.661-4.72 1.589-1.118 1.425-3.606.367-5.401 2.419-2.028-.226-9.418-8.008-4.488zm6.351 5.009c-.661.716-1.782.75-2.112.049-.319-.688.146-2.1-.302-2.312-.622-.295-1.36.119-2.01.16-.002-.853-.607-1.522-.967-2.266 4.283-2.756 8.358 1.16 5.391 4.369zm-36.349-9.268C76.328 68.008 75.125 64.5 75 59.75s5.256-5.581 5.373-5.699c1.684-.562 3.414-.93 4.826-.416 4.771 1.739 7.704 10.23 1.728 13.945-3.448 2.33-7.325 2.611-7.325 2.611zm7.884-.828c.413-.127.834-.233 1.261-.326l1.567 2.595s-.778.338-1.425.694l-5.691 2.558-1.259-2.812c2.666-.977 5.547-2.709 5.547-2.709zM84 81.931s-1.565-2.048-2-4.181l7.693-3.542c1.301-.807 2.604-1.893 4.135-2.189.317.627.72 1.215 1.036 1.843l-6.34 4.563L84 81.931zm29.584 5.206c-.65-.744-.021-2.033-.282-2.796-.187-.556-2.428-.772-3.083-.917-.753.803-2.304 3.118-4.843.199-2.347 1.878-7.595 4.502-13.237 3.172 0 0-5.36-1.261-6.409-3.802l3.062-2.576 3.866-2.927c1.173.854 4.224 2.811 8.048 3.171 1.117.176 2.311.011 3.42-.058.058-1.379-.164-2.515.644-3.623.738-1.016 2.938-2.269 4.268-1.624 1.232.594 2.229 4.17.686 4.719-1.475.525-1.69-1.658-2.336-2.34l-.684.34c-.035.818.473 1.498.684 2.264-.226.377-.925.5-.845 1.021.519.219 1.051-.415 1.447-.646 1.575 2.163 3.86-.399 3.862-2.188 1.229-.312.668 1.35 1.325 1.812-.501.238-1.532.165-1.647.832l2.055.075c.559.986.256 4 2.494 3.438.926 1.422-1.099 4.046-2.495 2.454zm2.771-3.438c-1.211.195-.959-2.021-1.611-2.729 1.104.188 1.666-.312 2.217-.819.408 1.224.605 3.35-.606 3.548z"/><path d="M46.501 121.669c-1.43-1.888-2.837-4.087-5.88-4.336-1.219 6.41-1.192 17.267.065 21.301 3.494-2.633 7.147-8.569 6.82-12.594 2.454.564 5.522.654 8.019.386a220.33 220.33 0 0 1-1.004-3.583c-2.682-.075-5.51-.345-8.02-1.174zm14.663-2.976c1.837 2.067 3.425 4.322 5.242 6.408 6.213-2.613 9.376-8.84 10.401-14.881-.904-1.938-3.504-2.258-5.391-2.138-1.626.104-4.674 1.25-5.093 2.816.525 2.479-2.852 7.523-5.159 7.795zm-22.428-1.954l-1.094.036c-2.281 5.613-1.057 16.748-.141 21.115.118.564.515 1.012 1.165.596-1.23-6.578-1.392-15.181.07-21.747zm19.619 1.713c-.473-.036-2.493.559-2.515.931-.022.373 2.311 9.748 2.713 10.186.402.434 6.948-1.24 7.217-1.588.269-.347-6.942-9.493-7.415-9.529z" fill="#B1C7FF"/><path fill="#272525" d="M80.116 109.6c-.792-.647-2.322-.848-3.177-.197-.038.271-.086.545-.132.818-1.025 6.041-4.188 12.268-10.401 14.881-1.817-2.086-3.405-4.341-5.242-6.408 2.307-.272 5.684-5.316 5.16-7.794-.055-.262-.141-.504-.289-.699-.675-.013-2.306-.709-2.329.146-.057 2.149.131 5.098-4.16 6.682-.336-.156-.728-.743-1.028-.719-.301.023-5.06 1.151-5.06 2.146 0 .218.235 1.227.587 2.593-3.452-.51-6.668-.875-8.925-3.899-.8-1.066-3.839-3.414-9.048-1.834-2.002 5.5-2.17 18.677.159 24.938 1.43.496 2.637.155 4.125-.25 5.664-1.539 8.051-7.055 9.216-11.922 2.018 0 4.286.349 6.508.219.548 1.802 1.01 3.158 1.167 3.26.481.312 11.166-2.605 11.329-3.08.163-.472-.636-1.59-.636-1.59 7.366-2.974 10.929-10.259 12.176-17.291zm-32.61 16.44c.327 4.024-3.326 9.961-6.82 12.594-1.257-4.034-1.284-14.891-.065-21.301 3.043.249 4.45 2.448 5.88 4.336 2.51.829 5.338 1.099 8.02 1.174a220.33 220.33 0 0 0 1.004 3.583c-2.497.268-5.565.178-8.019-.386zm-10.005 11.851c-.916-4.367-2.14-15.502.141-21.115l1.094-.036c-1.462 6.565-1.3 15.169-.07 21.747-.65.415-1.047-.032-1.165-.596zm21.052-8.323c-.402-.438-2.735-9.812-2.713-10.186.022-.372 2.042-.967 2.515-.931s7.684 9.182 7.415 9.528c-.269.349-6.815 2.023-7.217 1.589z"/><path d="M131.098 121.993c-6.724 3.728-13.555 7.202-21.229 8.844.211.247.157.597.425.795 7.463-1.937 14.452-4.92 21.332-8.194-.212-.5-.053-1.196-.528-1.445zm-21.787 6.583c4.896-1.061 18.028-6.033 21.418-9.312-3.584-3.195-9.236-3.05-13.693-1.884-.989.261-2.133.869-3.09 1.039-.946.166-3.275-2.59-4.486-4.111a360.573 360.573 0 0 1-5.082 2.661c1.546 1.517 4.044 4.803 4.536 6.266-.794 2.235-.463 4.035.397 5.341zm2.78-18.01c-1.112-1.338-1.798-2.879-2.907-4.272-3.444 3.091-7.285 6.383-10.395 9.612.424.346.925.746 1.445 1.268 3.599-2.184 7.995-4.768 11.857-6.608zm-6.248-4.024c-2.795-1.931-5.504-3.982-8.459-5.7-1.967-.425-4.036.245-5.376 1.268-1.471 1.123-2.866 2.522-2.866 4.94 3.405 1.027 7.18 4.198 9.977 5.701 1.319-1.44 5.729-5.265 6.724-6.209z" fill="#B1C7FF"/><path fill="#272525" d="M114.209 116.281c-1.382-.572-2.121-1.873-3.177-2.82 2.181-1.186 3.811-2.125 3.864-2.296.164-.524-4.863-7.742-5.35-7.851-.482-.109-1.525 1.021-2.273 1.539-2.645-2.297-5.479-3.941-8.524-5.713-.86.09-1.59.641-1.8 1.438.148.083.288.178.435.263 2.955 1.718 5.664 3.77 8.459 5.7-.995.944-5.405 4.769-6.725 6.209-2.797-1.503-6.571-4.674-9.977-5.701-.647-.196-1.283-.322-1.895-.336-.505.417-1.464.417-1.692 1.095 4.701 1.363 8.059 3.903 11.768 6.933-.323.391-.754.825-1.15 1.259l3.212 3.413c.186-.031 1.656-.747 3.62-1.743 1.121 1.46 3.291 3.955 3.596 6.246-1.192 4.473.928 7.845 3.271 10.1 3.753-.563 22.365-8.246 24.773-10.58-.496-8.441-13.964-10.945-20.435-7.155zm-9.832.688c1.624-.834 3.43-1.778 5.082-2.661 1.211 1.521 3.54 4.277 4.486 4.111.957-.17 2.101-.778 3.09-1.039 4.457-1.166 10.109-1.312 13.693 1.884-3.39 3.279-16.521 8.252-21.418 9.312-.859-1.307-1.19-3.106-.397-5.342-.492-1.463-2.99-4.749-4.536-6.265zm-5.588-1.063c3.109-3.229 6.95-6.521 10.395-9.612 1.109 1.394 1.795 2.935 2.907 4.272-3.862 1.84-8.258 4.424-11.856 6.607-.521-.521-1.022-.921-1.446-1.267zm11.504 15.726c-.268-.198-.214-.548-.425-.795 7.675-1.642 14.506-5.116 21.229-8.844.476.249.316.944.527 1.444-6.879 3.275-13.868 6.258-21.331 8.195z"/><path fill="#B1C7FF" d="M97.163 98.001c-2.116-3.078-5.722-6.56-7.974-9.353l-2.729-3.474.003-.003c-2.264 1.113-5.222 2.267-8.024 2.629-3.976 1.073-13.353.96-17.044.246-1.168 2.887-1.029 9.307-1.029 9.307.264 3.33.569 8.312.798 11.627 7.412-.547 16.792-.586 23.623-1.28 4.867-2.731 7.563-6.52 12.376-9.699zM64.5 66.693c13.588 2.595 20.607-6.181 20.693-8.437.052-1.316-2.269-1.5-2.955-.706.318.1 1.266.505 1.162.854-3.834 5.911-11.925 7.792-19.133 6.514-3.974-.377-9.392-2.419-10.142-2.795-.279-.14.094-1.015.672-2.058-1.121.146-3.138.608-3.047 2.058.125 2.002 6.875 3.389 12.75 4.57z"/><path fill="#B1C7FF" d="M64.43 68.727s-4.491-.709-8.59-1.899c-1.409 12.324 4.496 19.2 4.496 19.2 5.577 1.148 14.112 1.861 20.2.07-.549-5.276-2.935-13.246-4.578-18.105-3.731 1.162-7.852 1.462-11.528.734zm24.094 13.204s-.244-2.646-.801-4.538c-1.226-3.707-4.918-12.531-5.596-12.431-1.661 1.21-3.608 2.171-5.687 2.868 2.284 2.417 5.69 13.349 6.254 17.511 1.723-.69 4.433-1.935 5.83-3.41zm-9.148-21.838c.464-.296.948-.665 1.11-1.192-2.061-1.657-4.02-3.421-5.931-5.229l-.011-.01c-8.212-5.162-13.749.377-13.749.377-.649.821-1.207 1.702-1.727 2.602l-.416.724-1.904 3.328c.5.568 7.371 2.362 7.371 2.362 4.974.749 11.156-.332 15.257-2.962z"/><path fill="#272525" d="M90.462 87.555l-2.264-3.3c1.178-.671 1.959-1.225 2.081-1.422.095-.152.061-.651-.039-1.301a2.645 2.645 0 0 1-.064-.396 46.593 46.593 0 0 0-.552-2.58c-.806-2.953-2.223-6.972-2.5-7.75-.374-.988-.747-1.939-1.098-2.797-.037-.133-.08-.265-.108-.399-.591-1.411-1.063-2.873-1.882-4.188 1.512-1.306 3.729-3.496 2.812-5.965-1.056-2.842-5.414-1.928-5.664-.471-.539-.297-1.035-.707-1.514-1.117-.008-.007-.016-.008-.023-.015a2.365 2.365 0 0 0-.053-.049c-.253-.217-4.175-3.146-4.175-3.146s-9.757-6.626-16.154.65c-.53.987-1.227 1.888-1.94 2.773.008.001.015.004.023.006l-.001.001-.022-.007s-.159.229-.401.588l-.002.003c-.28.415-.672 1.005-1.082 1.653-3.16-.924-5.965.924-6.59 4.416-.243 1.357 1.998 2.562 4.825 3.529 0 0-2.697 10.647 5.114 22-.542 1.648-1.316 4.525-1.376 8.805-.061 4.282.069 10.113.705 14.488 2.043-.219 4.252-.405 6.542-.576 4.396-.326 9.092-.589 13.503-.88 2.225-.146 4.376-.301 6.379-.474.969-.507 2.038-1.153 3.148-1.879 3.557-2.325 7.54-5.474 10.062-7.538a150.518 150.518 0 0 0 2.554-2.132c-2.914-3.129-6.91-7.551-10.244-10.53zm-2.738-10.162c.557 1.893.801 4.538.801 4.538-1.397 1.476-4.107 2.721-5.829 3.41-.563-4.162-3.97-15.094-6.254-17.511 2.078-.696 4.025-1.658 5.687-2.868.677-.1 4.369 8.724 5.595 12.431zm-29.07-20.028l.416-.724c.52-.9 1.078-1.781 1.727-2.602 0 0 5.537-5.539 13.749-.377l.011.01c1.911 1.808 3.87 3.572 5.931 5.229-.162.527-.646.896-1.11 1.192-4.101 2.63-10.283 3.711-15.255 2.962 0 0-6.871-1.794-7.371-2.362l1.902-3.328zm-6.904 4.759c-.091-1.45 1.927-1.912 3.047-2.058-.578 1.042-.952 1.917-.672 2.058.75.376 6.168 2.418 10.142 2.795 7.208 1.278 15.299-.603 19.133-6.514.104-.349-.844-.754-1.162-.854.687-.794 3.007-.61 2.955.706-.086 2.255-7.105 11.031-20.693 8.437-5.875-1.182-12.625-2.569-12.75-4.57zm4.09 4.703c4.099 1.19 8.59 1.899 8.59 1.899 3.676.728 7.797.429 11.528-.734 1.644 4.859 4.029 12.829 4.578 18.105-6.088 1.791-14.624 1.078-20.2-.07 0 0-5.905-6.876-4.496-19.2zM84.787 107.7c-6.831.694-16.211.733-23.623 1.28-.229-3.315-.534-8.297-.798-11.627 0 0-.14-6.42 1.029-9.307 3.692.714 13.069.827 17.044-.246 2.803-.362 5.761-1.516 8.024-2.629l-.003.003 2.729 3.474c2.252 2.793 5.857 6.274 7.974 9.353-4.813 3.179-7.509 6.968-12.376 9.699z"/><path fill="#9400FF" d="M52.455 7.384c-5.689 2.106-5.42 8.297-8.893 8.793-3.472.496-6.5-1.494-10.005-.795-7.099 1.416-9.614 5.887-9.423 10.93.167 4.445 4.412 7.328 3.335 9.34-1.077 2.011-8.245 1.375-10.694 6.558-1.604 3.395 3.066 5.779 3.441 7.601.163.792-.115 2.323-1.536 2.881-1.555.56-3.403-.17-4.465-.966 1.578 1.643 4.473 4.861 8.621 3.226 4.491-1.851-.534-6.958 3.546-7.85 2.258-.493 6.275 1.815 8.101 1.043 2.517-1.065-.909-6.791 2.541-8.346 3.026-1.365 5.492 1.896 9.052.249 2.506-1.16 3.737-4.397 4.396-5.253.463-.85 1.134-2.196 1.604-3.599a8.738 8.738 0 0 1 .506-2.112l.008-.052c.185-1.669 2.257-4.343 4.106-6.472-.138-1.49-.737-4.03-3.212-4.458-1.729.242-2.912 1.333-3.801 2.705-.355 1.558-.865 4.636-.206 7.505a7.765 7.765 0 0 1 .252.917l-.002-.001c.358 1.672.357 3.921-.583 4.983-3.034 3.427-7.468-.603-10.799 1.192-1.754.944-1.764 2.197-2.435 3.676-.245-.585-.036-1.629.106-2.235.388-1.647 2.611-3.703 4.447-3.826 4.456-.298 8.596 3.117 7.872-4.682-.004-.018-.407-1.608-.564-3.411-.363.937-.696 1.769-1.07 2.328-2.694 4.029-6.129-5.255-10.847-2.301-6.335 3.967.435 11.076-2.5 14.227-1.901 2.039-10.408-1.513-10.848 5.858-3.683-8.42 8.655-6.598 10.126-8.093s-3.642-8.732.259-12.583c1.19-1.176 3.616-2.312 5.387-2.033 1.443.228 3.967 2.835 5.896 2.632 1.929-.204 2.415-7.672 8.107-8.189.647-.059 1.729.124 2.534.513l.001-.001s2.654.918 2.984 4.032c.911-1.005 1.623-1.75 1.788-1.978h.001c.813-1.135 1.866-2.499 2.022-3.36.759-4.162-4.658-10.258-9.156-8.593z"/><path fill="#272525" d="M54.734 5.001c-9.045.104-8.32 8.829-11.73 9.686-3.41.858-7.498-4.648-14.263-1.241-4.582 2.306-7.566 6.993-7.783 11.823-.183 4.068 4.509 8.855 3.548 10.234-.962 1.379-12.511 1.237-11.435 7.899.431 2.675 6.378 6.145 4.234 8.097-.818.745-1.962.484-3.335-.215l-.15-.079c-.106-.056-.211-.109-.32-.169.785 1.208 1.75 4.381 6.266 5.954 2.032.72 4.75.597 6.352-.844 2.555-2.298-.718-6.124.742-7.005 1.461-.881 6.557 4.052 9.794 2.385 3.871-1.995-.733-8.335.9-9.44 1.632-1.105 6.264 3.196 8.893 2.284 1.155-.4 2.322-1.852 3.197-3.548v.001l.02-.042c.3-.586.561-1.199.779-1.809 1.417-3.324 4.275-10.076 4.958-11.449.9-1.811 5.443-7.739 5.448-7.745.53-.44.834-.906 1.136-1.065 3.597-5.678.431-13.803-7.251-13.712zm4.856 14.337c-.165.228-.876.972-1.788 1.978-.331-3.114-2.984-4.032-2.984-4.032l-.001.001c-.804-.389-1.887-.571-2.534-.513-5.692.517-6.178 7.985-8.107 8.189-1.929.203-4.453-2.404-5.896-2.632-1.771-.279-4.197.857-5.387 2.033-3.901 3.851 1.212 11.088-.259 12.583-1.471 1.495-13.809-.327-10.126 8.093.44-7.371 8.947-3.819 10.848-5.858 2.935-3.151-3.835-10.26 2.5-14.227 4.718-2.954 8.153 6.33 10.847 2.301.374-.559.707-1.391 1.07-2.328.157 1.803.56 3.393.564 3.411.724 7.799-3.417 4.384-7.872 4.682-1.836.123-4.059 2.178-4.447 3.826-.142.606-.351 1.65-.106 2.235.671-1.479.681-2.732 2.435-3.676 3.331-1.795 7.765 2.235 10.799-1.192.94-1.062.941-3.311.583-4.983l.002.001-.009-.033a7.51 7.51 0 0 0-.243-.884c-.659-2.869-.149-5.948.206-7.505.889-1.372 2.072-2.463 3.801-2.705 2.475.428 3.074 2.968 3.212 4.458-1.849 2.129-3.921 4.803-4.106 6.472l-.008.052c-.081.682-.269 1.403-.506 2.112-.471 1.403-1.141 2.749-1.604 3.599-.66.856-1.89 4.093-4.396 5.253-3.56 1.647-6.026-1.614-9.052-.249-3.45 1.555-.024 7.281-2.541 8.346-1.826.772-5.843-1.536-8.101-1.043-4.08.892.945 5.999-3.546 7.85-4.148 1.635-7.043-1.583-8.621-3.226 1.062.796 2.911 1.525 4.465.966 1.421-.558 1.699-2.089 1.536-2.881-.375-1.822-5.045-4.206-3.441-7.601 2.449-5.183 9.617-4.547 10.694-6.558 1.077-2.012-3.168-4.895-3.335-9.34-.191-5.043 2.324-9.514 9.423-10.93 3.505-.699 6.533 1.291 10.005.795 3.473-.496 3.204-6.687 8.893-8.793 4.498-1.665 9.915 4.431 9.159 8.595-.156.861-1.209 2.225-2.022 3.36l-.004-.002z"/><path fill="#B1C7FF" d="M64.765 40.023c-.421-.343-5.545-11.612-4.871-12.021 2.023-1.23 13.235-.011 15.881.497-3.229-2.642-7.64-6.392-12.281-5.962-1.416.13-2.87.699-4.206 1.529-.429-.798-1.031-1.513-1.63-2.214l.034-.023c-.595-.994-.972-1.928-1.654-2.049-.681-.121-5.02 3.713-5.095 4.409-.058.538.645 1.06 1.354 1.528.117.162.267.305.446.414a19.419 19.419 0 0 1 1.638 1.146l.233.181c.111.087.223.175.326.272.093.088.196.158.303.219a8.908 8.908 0 0 0-.906 1.743c-3.004 8.019 2.39 15.33 7.464 21.312 3.384-.044 6.802.213 10.165-.249.742-1.983 7.092-11.823 9.424-14.655-1.849.152-12.811 3.326-16.625 3.923z"/><path fill="#A48458" d="M66.14 37.54c2.061-.41 7.054-2.234 11.446-3.229l-1.54-4.617c-3.953.006-11.377.027-13.718.097.567 2.064 3.504 7.81 3.812 7.749z"/><path fill="#272525" d="M77.586 34.311c-4.392.995-9.385 2.82-11.446 3.229-.308.061-3.245-5.685-3.812-7.75 2.341-.069 9.765-.09 13.718-.097l2.535-.002c-5.302-7.319-9.478-9.816-18.793-8.347-.809-1.562-3.282-4.421-3.283-4.428-3.124 2.182-6.749 4.41-8.153 7.999.898 1.416 2.511 2.175 3.706 3.328-4.35 8.995 2.24 17.088 7.562 24.115.626.392 1.352.763 2.09.903 3.446-.343 8.795-.725 12.055-.322l.032.03c.325-.341.637-.694.941-1.052 2.338-5.576 10.104-16.772 10.09-17.605-1.199-1.011-4.063-.722-7.242-.001zM50.943 24.188c.075-.696 4.414-4.53 5.095-4.409.682.121 1.059 1.055 1.654 2.049-1.482.994-3.675 2.795-4.786 4.286-.839-.56-2.038-1.23-1.963-1.926zM61.8 51.003c-5.074-5.982-10.468-13.293-7.464-21.312 1.24-3.312 5.353-6.803 9.158-7.154 4.642-.43 9.053 3.32 12.281 5.962-2.646-.508-13.858-1.727-15.881-.497-.674.409 4.45 11.678 4.871 12.021 2.055-.322 6.179-1.39 9.84-2.332-1.279 2.813-3.268 9.811-4.063 13.215-2.902.24-5.834.059-8.742.097zm10.165-.249c-.351.048-.703.084-1.056.118 1.402-2.912 4.679-9.925 5.583-13.665 2.319-.59 4.221-1.052 4.896-1.108-2.331 2.832-8.681 12.672-9.423 14.655z"/><path fill="#FFF" d="M75.585 30.623c-.783.163-.971 1.072-.804 1.688.391 1.435 1.139 1.993 1.746 1.948.822-.06 1.422-1.205.68-2.485-.37-.639-.84-1.315-1.622-1.151z"/><ellipse fill="#272525" cx="77.057" cy="32.442" rx=".918" ry=".862"/><path fill="#272525" d="M78.359 32.328c-.146-1.052-.838-2.739-1.762-2.984-2.239-.595-3.355 1.259-2.873 3.019.403 1.474 1.648 2.921 3.214 2.617 1.178-.228 1.585-1.449 1.421-2.652zm-1.832 1.931c-.607.045-1.355-.513-1.746-1.948-.167-.616.021-1.525.804-1.688.782-.164 1.252.512 1.622 1.151.742 1.28.143 2.425-.68 2.485z"/><path fill="#FFF" d="M68.6 31.306c-.925.192-1.149 1.262-.95 1.988.462 1.69 1.346 2.348 2.066 2.294.969-.072 1.677-1.419.801-2.927-.436-.754-.993-1.548-1.917-1.355z"/><ellipse fill="#272525" cx="70.398" cy="33.192" rx="1.257" ry="1.181"/><path fill="#272525" d="M71.878 33.314c-.169-1.241-.992-3.226-2.082-3.516-2.646-.699-3.967 1.485-3.398 3.557.477 1.736 1.947 3.44 3.799 3.084 1.393-.269 1.875-1.709 1.681-3.125zm-2.162 2.274c-.72.054-1.604-.604-2.066-2.294-.199-.726.025-1.796.95-1.988.924-.193 1.481.601 1.917 1.355.876 1.508.168 2.855-.801 2.927z"/><path d="M72.648 101.126c.588-.466 1.658.796 2.733.614 2.633-.246 2.887-3.831 2.119-4.664s-2.167.091-2.5 1.258-2.333-.084-3.083-.75-.417-1.75.667-2.25S72.25 92.667 71 92.5s-1.568 1.54-1.568 1.54c-.184.681.079 1.478-.486 2.022-.25.022-.496.021-.738.004-.08-.005-.157-.021-.236-.031a5.122 5.122 0 0 1-.481-.076c-.09-.021-.178-.049-.267-.074a5.479 5.479 0 0 1-.429-.137c-.091-.034-.18-.073-.269-.111a6.838 6.838 0 0 1-.665-.335 7.258 7.258 0 0 1-.398-.247c-.08-.053-.16-.105-.239-.161a9.72 9.72 0 0 1-.407-.31c-.068-.055-.137-.106-.204-.162a14.125 14.125 0 0 1-.452-.402c-.045-.042-.091-.081-.135-.123a16.358 16.358 0 0 1-1.116-1.189l-.138-.165a32.47 32.47 0 0 1-.382-.466c-.056-.07-.109-.141-.164-.211a33.116 33.116 0 0 1-.332-.432l-.165-.222a46.158 46.158 0 0 1-.783-1.094l-.113-.161-.439-.634c-.252-.365-.49-.708-.71-1.011-1.276 1.701-2.923 3.133-4.077 4.918.309.191.684.444 1.104.728l.285.192.38.254.163.108c.178.117.36.237.549.358l.008.006c.197.126.401.255.61.384.029.018.06.035.089.054.174.105.351.212.532.318.057.033.116.065.173.099.159.091.319.182.483.271l.203.109c.163.087.329.172.496.256l.198.099c.194.094.391.185.59.273l.12.055c.244.106.492.207.742.302.025.01.052.018.077.027.217.081.436.156.656.226a19.62 19.62 0 0 0 .75.209 10.76 10.76 0 0 0 1.048.205c.176.024.353.042.529.057.081.007.162.017.244.021.257.014.514.019.771.009.148 2.082 1.38 6.467 2.669 6.32 1.287-.152.323-1.665.617-1.936.985-.897 2.506 1.981 3.966.633-.001 0-1.65-1.232-1.011-1.741zM53.501 91.61a88.598 88.598 0 0 1 5.414-5.867 83.132 83.132 0 0 1 2.037-1.952c-.052-.546-.423-.943-.634-1.441-.941.492-1.895.949-2.855 1.393-2.685 1.24-5.432 2.322-8.193 3.384l-1.922.739c1.166 2.039 3.019 3.578 5.083 5.018.344-.426.712-.849 1.07-1.274zm2.211-13.185c-2.541.451-5.294.847-7.835.847-.02.778.059 1.535.17 2.279v.001c.12.803.284 1.585.484 2.337.113.423.23.84.35 1.244.969-.515 7.423-3.479 7.423-3.479l-.592-3.229zm-8.059-1.215c3.185-.047 6.344-.466 9.489-.921 1.389-2.703 2.722-5.31 3.916-8.097.613-1.43-.139-3.014-.9-4.323-1.401-2.411-4.514-3.456-7.252-3.179-8.051.816-10.01 10.94-6.3 16.542.35.005.698-.016 1.047-.022z" fill="#B1C7FF"/><path fill="#272525" d="M78.846 96.334c-2.596-3.417-3.896.025-4.329.221s-1.517.362-1.267-.138 2.5-2.44.333-3.929c-2.167-1.488-5.122-2.721-5.853.021-.079.381-.05.8-.213 1.166-2.845-1.83-4.912-4.767-5.559-7.946l2.17-2.039c-.846-1.24-1.658-2.506-2.541-3.727-1.084.105-1.971.736-2.964 1.094-.365-.791-.112-1.671-.371-2.481.644.074 2.848-4.202 4.482-7.466 0 0 2.362-5.234.222-8.565-1.115-1.735-1.76-3.125-4.506-4.712-1.684-.684-1.514-.755-3.124-.726-4.986.149-9.74 2.417-12.165 6.657-2.341 4.092-1.961 9.23.074 13.363.149.304.819 1.61 1.037 1.79.284.232.766 0 1.166.248.317 2.288.735 4.322 1.534 6.756 0 0-2.254.86-2.7 1.591-.446.736 4.4 7.878 7.782 9.142 1.451.544 1.024-1.107 2.117-1.536 3.2 2.674 7.09 3.049 10.8 4.521.444 2.363 1.884 6.98 5.347 5.959 1.127-.33.653-1.252 1.906-.939 1.767.439 2.436.033 3.708-.945.199-.153.393-.24.582-.276.002-.003 4.927-3.687 2.332-7.104zm-32.24-19.102c-3.71-5.603-1.751-15.727 6.3-16.542 2.738-.277 5.851.768 7.252 3.179.761 1.309 1.513 2.893.9 4.323-1.194 2.787-2.527 5.394-3.916 8.097-3.146.455-6.304.874-9.489.921-.349.006-.697.027-1.047.022zm2.276 7.901a46.84 46.84 0 0 1-.35-1.244 21.16 21.16 0 0 1-.484-2.338c-.112-.744-.19-1.501-.17-2.279 2.541 0 5.294-.396 7.835-.847l.593 3.229c-.001 0-6.455 2.964-7.424 3.479zm3.548 7.75c-2.064-1.439-3.917-2.979-5.083-5.018l1.922-.739c2.761-1.062 5.509-2.144 8.193-3.384.959-.443 1.914-.9 2.855-1.393.211.498.582.896.634 1.441a88.327 88.327 0 0 0-7.451 7.819c-.357.426-.725.849-1.07 1.274zm17.262 9.351c-.294.271.67 1.783-.617 1.936-1.289.146-2.521-4.238-2.669-6.32-.257.01-.515.005-.771-.009-.082-.005-.163-.015-.244-.021a9.293 9.293 0 0 1-.529-.057 12.3 12.3 0 0 1-.777-.143c-.09-.02-.181-.04-.271-.062a11.834 11.834 0 0 1-.522-.142c-.076-.022-.152-.043-.228-.067-.22-.069-.439-.145-.656-.226l-.077-.027c-.25-.095-.498-.195-.742-.302l-.12-.055c-.199-.089-.396-.18-.59-.273l-.198-.099a23.076 23.076 0 0 1-.496-.256l-.203-.109c-.164-.089-.324-.18-.483-.271-.058-.033-.116-.065-.173-.099-.181-.106-.358-.213-.532-.318-.029-.019-.06-.036-.089-.054a44.93 44.93 0 0 1-.61-.384l-.008-.006a44.681 44.681 0 0 1-.549-.358l-.163-.108-.38-.254a75.134 75.134 0 0 0-.285-.192c-.42-.283-.795-.536-1.104-.728 1.154-1.785 2.801-3.217 4.077-4.918a173.855 173.855 0 0 1 1.149 1.645l.113.161a43.602 43.602 0 0 0 .469.662c.103.144.208.287.314.432l.165.222c.108.144.219.288.332.432.055.07.108.141.164.211.125.156.253.312.382.466l.138.165c.355.416.728.816 1.116 1.189.044.042.09.081.135.123.148.138.298.273.452.402.067.056.136.107.204.162.134.107.27.211.407.31.079.056.159.108.239.161a7.258 7.258 0 0 0 .656.389c.134.07.27.134.407.193.089.038.178.077.269.111.141.053.285.096.429.137.089.025.177.054.267.074.158.035.32.057.481.076.079.01.156.026.236.031.243.018.488.019.738-.004.564-.545.302-1.342.486-2.022 0 0 .318-1.707 1.568-1.54s2.667 2.334 1.583 2.834-1.417 1.584-.667 2.25 2.75 1.917 3.083.75 1.731-2.091 2.5-1.258.515 4.418-2.119 4.664c-1.076.182-2.146-1.08-2.733-.614-.639.509 1.01 1.741 1.01 1.741-1.458 1.349-2.979-1.53-3.964-.633z"/><path fill="#FFC900" d="M75.031 93.861c.463.437.74 1.09.99.994 7.98-3.021 24.686-15.463 28.767-21.446-11.626 3.749-22.976 9.653-29.757 20.452z"/><path fill="#FFC900" d="M98.043 76.627c-2.979 2.979-7.06 5.708-10.58 7.941-4.061 2.576-7.627 5.878-11.652 8.417-.288-.34-.581-.675-.854-1.025a.952.952 0 0 0-.295-.256.088.088 0 0 0 .002-.017c-1.27-1.717-2.373-6.819-5.607-6.11-3.495.769.804 7.522 1.905 8.458.641.545 1.248 1.207 1.836 1.935.301.466.624.915 1.001 1.319 2.183 3.016 4.2 4.581 6.852 5.925.707.36 1.545-.048 2.117-.448 1.346-2.32-4.703-7.161-4.994-7.393-.217-.289-.457-.561-.687-.839 3.943-2.554 7.231-5.891 11.386-8.239 3.685-2.082 8.038-5.307 10.984-8.254.913-.913-.501-2.327-1.414-1.414z"/><path fill="#272525" d="M97.844 73.772c-.575.262-1.687.819-2.598 1.051.003.009.008.018.01.027-1.422.757-2.926 1.362-4.366 2.121a47.25 47.25 0 0 0-2.812 1.662c.009.044.026.105.031.141C83.5 81.805 79.566 85.684 76.2 89.9c-1.184-1.892-3.995-6.606-6.248-7.303-1.317-.406-3.983.896-4.552 2.034-1.022 2.05.759 4.946 2.197 6.719 1.069 1.377 7.217 9.255 10.39 12.536.043.072.092.143.134.215.22.184.441.379.665.569l.061.057-.003-.009c.438.369.89.698 1.38.782 1.444.246 3.543-.271 4.34-1.541 2.246-3.576-3.021-7.12-5.082-9.438 10.01-4.771 20.209-12.183 27.315-20.365.728-.841 2.157-2.249 2.272-3.331-3.637.19-8.389 1.847-11.225 2.947zm-15.076 28.994c-.572.4-1.41.809-2.117.448-3.744-1.897-7.196-6.998-9.984-10.797-.855-1.165-5.104-6.071-1.609-6.84 3.234-.709 4.337 4.394 5.607 6.11.016.73-1.029 1.403-1.165 2.235l2.437 2.138 1.811-.709c-.002.001 6.398 5.038 5.02 7.415zm-6.747-7.911c-.141.054-.291-.132-.478-.381 3.418-2.322 21.102-14.397 22.996-16.894-.75-.64-19.121 13.51-23.046 16.828a4.195 4.195 0 0 0-.463-.548c6.781-10.799 18.131-16.703 29.757-20.452-4.08 5.985-20.785 18.427-28.766 21.447z"/></svg>