<svg xmlns="http://www.w3.org/2000/svg" viewBox="0 0 35.6 47.8"><path fill="#41A2F2" d="M35.4 38.2c-.3 1.9-.6 3.7-.9 5.6-.2 1.2-.5 2.3-.8 3.4 0 .1-.4.3-.6.3-2.2.1-4.3.2-6.5.1-3.9 0-7.8-.2-11.8-.2-4 0-7.9.3-11.9.4H.1V47c0-1.7 0-1.7 1.7-2 1.4-.2 2.1-1.1 2-2.5 0-.2-.1-.4 0-.5.9-1.9.5-3.9.5-5.8-.1-8.6-.3-17.2 0-25.7.1-1.3-.1-2.6-.1-3.9v-2c0-1.2-.3-1.7-1.6-2-.6 0-1.2-.1-1.8-.1-.6 0-.8-.2-.8-.7C0-.3-.2 0 1.7 0h10.5c.8 0 1.5 0 2.3.1.2 0 .5.3.5.5.1.4.1.9 0 1.3 0 .2-.3.4-.5.5-.7.2-1.3.4-2 .5-.7.1-.9.5-1 1.2-.1 2.8-.3 5.6-.4 8.4-.1 2.6-.2 5.1-.3 7.7v2.2c0 3.7-.1 7.5-.1 11.2 0 2.3.1 4.6.1 6.9 0 .8-.1 1.6-.1 2.4-.1.7.4.9.9.8 3.9-.6 7.8-.1 11.7-.3 2.1-.1 4.3 0 6.3-.8.9-.3 1.6-.8 1.9-1.7.4-1.2.8-2.5 1.2-3.7.2-.7.4-1 1.2-1 1.9 0 1.9 0 1.5 2z"/></svg>