<svg xmlns="http://www.w3.org/2000/svg" viewBox="0 0 39.9 52.2"><path fill="#53AD4E" d="M39.6 36.3c-1 0-2.1-.3-2.9.6-.9 1.1-1.9 2.2-2.9 3.2-.5.6-1 1.1-1.4 1.8-.3.6-1 1.1-1.7 1.2-1.1.2-2.4.2-3.5.3l-11.3.3c-.5 0-1-.2-.9-.9.1-.8.1-1.6.1-2.4 0-2.3-.1-4.6-.1-7 0-3.7 0-7.4.1-11.1 0-2.4.1-4.8.2-7.2 0-1.3 0-2.6.1-4 .1-2 .4-4 .3-6 0-1.8.8-2.3 2.4-2.5 1.3-.2 1.3-.3 1.2-1.7V.7c-.2-.2-.4-.6-.6-.6-.9-.1-1.9-.1-2.8-.2-3.3 0-6.7 0-10-.1-1.6.1-2.5.9-3.4 1.9-.3.3-.5.7-.8 1C.8 3.6.1 4.6.3 5.9V6c-.1.5.1.7.7.7.8 0 1.5-.1 2.3-.1 1.2 0 1.6.3 1.7 1.5 0 2 .2 3.9.2 5.7 0 5.5-.1 11-.1 16.4v6.5c-.1 2.9-.4 5.7.1 8.5-.4.2-.8.2-1.1.5C2.9 46.8 1.9 48 .8 49c-.8.8-.8 1.6-.8 2.5 0 .5.3.7.8.7 2.8 0 5.6.1 8.4 0 4.4 0 8.8-.1 13.2-.1 3 0 6 .1 9.1.1.7 0 1.4 0 2.1-.1.2 0 .6-.1.7-.2 1.1-1.2 2.1-2.5 3.2-3.7.2-.3.6-.5.7-.9.3-.9.4-1.8.6-2.7.2-1.6.4-3.1.7-4.7.2-1 .3-2 .5-3-.1-.2-.3-.6-.4-.6zm-2.8 1.4c0 1.6-.6 3-1.5 4.2-.5.6-1.5.8-2.2 1.1.6-2.2 2.7-3.4 3.7-5.3zM1.4 3.9c1-.9 1.8-1.8 2.8-2.7.1.1.2.1.3.2C3.6 3 2.3 4.3 1.1 5.8c-.4-.8-.3-1.3.3-1.9zm2.2 2.2H1.8C2.7 5 3.5 3.9 4.4 3c.2-.3.6-.4.9-.5.4-.1.8 0 1.2 0 1.8.3 2 .7 2 2.5 0 1.1.1 2.2.1 3.2 0 5.1-.2 10.3-.1 15.4 0 5.3.3 10.6.4 15.9 0 .7-.2 1.4-.4 2.1 0 .2-.1.4-.1.6 0 2.1-.5 2.6-2.7 2.8v-3.4c.1-4.2.2-8.3.2-12.5 0-4.7.1-9.4 0-14.1 0-2.4-.1-4.8-.2-7.2-.1-1.2-.7-1.7-2.1-1.7zM.7 50.9c0-.2 0-.6.1-.8 1.1-1.3 2.3-2.7 3.5-4 .4 1.4.2 1.9-.9 2.7-.9.7-1.7 1.4-2.7 2.1zm33.3.4c-.1.2-.5.3-.7.3-3.2 0-6.4-.1-9.5-.2-2.7 0-5.3.1-8 .1H1.3c1-1.6 3.2-1.9 4.1-3.8 10.4 0 20.8-.1 31.4-.1-.9 1.3-1.8 2.5-2.8 3.7z"/><path fill="#FFF" d="M4.4 1.4C3.6 3 2.3 4.3 1.1 5.8c-.4-.8-.3-1.3.3-1.9 1-.9 1.8-1.8 2.8-2.7 0 .1.1.2.2.2zm4.4 38.2c0 .7-.2 1.4-.4 2.1 0 .2-.1.4-.1.6 0 2.1-.5 2.6-2.7 2.8v-3.4c.1-4.2.2-8.3.2-12.5 0-4.7.1-9.4 0-14.1 0-2.4-.1-4.8-.2-7.2 0-1.3-.6-1.8-2-1.8H1.8C2.7 5 3.5 3.9 4.4 3c.2-.3.6-.4.9-.5.4-.1.8 0 1.2 0 1.8.3 2 .7 2 2.5 0 1.1.1 2.2.1 3.2 0 5.1-.2 10.3-.1 15.4 0 5.4.2 10.7.3 16zm-5.3 9.2c-.9.7-1.8 1.4-2.8 2.1 0-.2 0-.6.1-.8 1.1-1.3 2.3-2.7 3.5-4 .5 1.5.2 2-.8 2.7zm33.3-11.1c0 1.6-.6 3-1.5 4.2-.5.6-1.5.8-2.2 1.1.6-2.2 2.7-3.4 3.7-5.3zm.1 9.9c-1 1.4-2 2.6-2.9 3.8-.1.2-.5.3-.7.3-3.2 0-6.4-.1-9.5-.2-2.7 0-5.3.1-8 .1H1.3c1-1.6 3.2-1.9 4.1-3.8 10.4-.2 20.9-.2 31.5-.2z"/></svg>