<svg width="102" height="61" xmlns="http://www.w3.org/2000/svg"><path fill="#74BF44" stroke="#000" stroke-width="2.321" d="M26.966 9.821S24.65 3.8 20.661 3.655c-3.99-.144-11.208 4.66-9.002 6.674 2.209 2.015 7.448-1.889 8.415-1.816.967.073 4.14 4.72 4.14 4.72l2.752-3.412zM20.66 20.146s-5.957-6.258-9.412-5.464c-3.455.793-11.68 13.444-6.843 14.701 4.836 1.258 6.48-8.318 7.931-8.318 1.451 0 6.77 4.686 6.77 4.686l1.555-5.605zm1.786 14.189s-4.125-3.587-8.078-2.947C10.416 32.025-1.37 43.865 2.92 46.67c4.29 2.805 10.965-8.705 12.996-8.802 2.031-.097 11.051 5.39 11.051 5.39l-.412-4.046-4.11-4.877zm48.25-24.514S73.012 3.8 77 3.655c3.988-.144 11.208 4.66 9.002 6.674-2.209 2.015-7.448-1.889-8.415-1.816-.968.073-4.142 4.72-4.142 4.72l-2.75-3.412zm6.306 10.325s5.956-6.258 9.412-5.464c3.455.793 11.68 13.444 6.844 14.701-4.837 1.258-6.48-8.318-7.932-8.318-1.45 0-6.77 4.686-6.77 4.686l-1.554-5.605zm-1.785 14.409s4.125-3.586 8.077-2.947c3.952.638 15.739 12.477 11.448 15.282-4.29 2.805-10.964-8.705-12.995-8.802-2.031-.096-11.051 5.391-11.051 5.391l.411-4.046 4.11-4.878z"/><path fill="#A6479A" d="M49.111 25.784l-.88-24.48 1.229.028c1.213.026 2.477.136 3.757.327 2.254.336 4.493.928 6.655 1.757 3.965 1.523 7.63 3.837 10.601 6.691 1.974 1.897 3.602 3.99 4.842 6.221 1.78 3.206 2.683 6.53 2.683 9.88 0 .426-.02.882-.06 1.392a17.913 17.913 0 0 1-1.757 6.468c-.875 1.804-2.063 3.514-3.53 5.084-.46.533-1.227 1.266-2.262 2.159a10.08 10.08 0 0 1-.265 2.635l-.096.405-.334.253c-.438.33-.925.674-1.493 1.049-3.665 2.432-8.011 4.14-12.567 4.94a36.24 36.24 0 0 1-5.332.532l-1.19.031V25.784z"/><path d="M49.434 2.491c1.214.027 2.42.137 3.612.315 2.204.33 4.355.905 6.409 1.693 3.863 1.484 7.373 3.715 10.214 6.444 1.864 1.793 3.436 3.798 4.63 5.948 1.612 2.902 2.536 6.063 2.536 9.315 0 .44-.021.873-.055 1.304a16.737 16.737 0 0 1-1.644 6.05c-.842 1.735-1.972 3.34-3.335 4.799-.638.74-1.763 1.731-2.61 2.445a8.864 8.864 0 0 1-.199 2.874c-.462.35-.944.684-1.434 1.009-3.48 2.308-7.609 3.97-12.126 4.763a34.95 34.95 0 0 1-5.161.515V25.784L49.434 2.49M47.026.117l.088 2.458.837 23.25v26.523l2.38-.061a37.627 37.627 0 0 0 5.504-.55c4.712-.827 9.21-2.596 13.008-5.115.586-.39 1.093-.746 1.55-1.091l.667-.503.192-.814a11.27 11.27 0 0 0 .3-2.377c.859-.758 1.521-1.402 1.975-1.923 1.534-1.646 2.778-3.442 3.698-5.338a19.079 19.079 0 0 0 1.87-6.885c.042-.54.062-1.026.062-1.482 0-3.55-.95-7.063-2.828-10.443-1.295-2.333-2.994-4.517-5.051-6.494-3.081-2.961-6.882-5.36-10.99-6.938a32.791 32.791 0 0 0-6.9-1.822 31.115 31.115 0 0 0-3.903-.339L47.026.117l2.408 2.374z"/><path fill="#F4EB43" d="M54.646 11.473c.745 0 1.42.319 1.908.833.49.515.792 1.226.792 2.01 0 .785-.302 1.496-.792 2.01a2.627 2.627 0 0 1-1.908.834c-.746 0-1.42-.319-1.91-.833a2.911 2.911 0 0 1-.79-2.01c0-.785.302-1.496.79-2.01a2.627 2.627 0 0 1 1.91-.834zm11.189 11.219c.745 0 1.42.319 1.91.833.488.515.79 1.226.79 2.01 0 .785-.302 1.496-.79 2.01a2.627 2.627 0 0 1-1.91.834c-.745 0-1.42-.319-1.909-.833a2.911 2.911 0 0 1-.791-2.01c0-.785.302-1.496.791-2.01a2.627 2.627 0 0 1 1.91-.834zM55.814 9.459c2.083 0 3.772-1.78 3.772-3.972 0-.343-.054-.67-.131-.988a30.347 30.347 0 0 0-6.409-1.693 4.061 4.061 0 0 0-1.004 2.68c0 2.194 1.689 3.973 3.772 3.973zm7.185 6.776c0 2.97 2.54 5.378 5.673 5.378 2.898 0 5.285-2.061 5.627-4.721-1.194-2.15-2.766-4.156-4.63-5.948a6.035 6.035 0 0 0-.997-.088c-3.133 0-5.673 2.408-5.673 5.379zm-3.414 18.638c-4.559 0-8.253 3.503-8.253 7.823 0 2.885 1.65 5.398 4.101 6.755 4.518-.793 8.647-2.455 12.127-4.764a7.43 7.43 0 0 0 .28-1.99c0-4.32-3.696-7.824-8.255-7.824zm13.699-9.07c-2.378 0-4.304 1.826-4.304 4.08 0 2.253 1.926 4.08 4.304 4.08a4.46 4.46 0 0 0 1.853-.403c.91-1.874 1.478-3.9 1.644-6.05a4.371 4.371 0 0 0-3.497-1.707zm-16.938-6.524c1.188 0 2.264.457 3.043 1.195a3.962 3.962 0 0 1 1.261 2.884 3.962 3.962 0 0 1-1.261 2.884 4.413 4.413 0 0 1-3.043 1.195 4.413 4.413 0 0 1-3.042-1.195 3.962 3.962 0 0 1-1.261-2.884c0-1.126.482-2.146 1.26-2.884a4.413 4.413 0 0 1 3.043-1.195z"/><path fill="#A6479A" d="M47.145 51.073c-7.336-.442-14.224-3.102-19.397-7.49l-.347-.293-.054-.452a9.183 9.183 0 0 1-.068-1.677c-.28-.258-.57-.528-.856-.797l-.082.256-1.332-1.468a22.25 22.25 0 0 1-.888-1.014c-1.973-2.382-3.31-5.028-3.975-7.868a17.847 17.847 0 0 1-.484-4.062c0-5.085 2.06-10.091 5.954-14.474 3.786-4.262 9.021-7.522 14.74-9.18A30.61 30.61 0 0 1 48.2 1.331l1.23-.027-.883 24.52-.18 25.32-1.222-.072z"/><path d="M48.226 2.493l-.48 13.29-.256 7.125-.104 2.876-.042 5.841-.114 16.035-.016 2.253c-7.317-.44-13.884-3.116-18.715-7.214a9.018 9.018 0 0 1-.071-1.079c0-.313.021-.624.053-.934a86.405 86.405 0 0 1-1.586-1.476c-.36-.34-.707-.674-.998-.954-.011.034-.028.068-.04.103a21.358 21.358 0 0 1-.843-.962v-.001c-1.81-2.184-3.102-4.67-3.739-7.39a16.571 16.571 0 0 1-.452-3.798c0-4.983 2.156-9.76 5.66-13.703 3.599-4.05 8.622-7.22 14.196-8.837a29.467 29.467 0 0 1 7.547-1.175M50.634.119l-2.46.053a31.747 31.747 0 0 0-8.141 1.266c-5.927 1.719-11.356 5.102-15.285 9.525-4.086 4.6-6.246 9.87-6.246 15.245 0 1.414.174 2.87.515 4.328.706 3.014 2.122 5.82 4.21 8.341l.065.079.002.002c.313.375.59.69.868.987l1.953 2.09c.013.298.04.609.08.941l.109.904.694.59c5.362 4.548 12.492 7.304 20.077 7.76l2.443.148.018-2.448.016-2.253.114-16.035.04-5.808.103-2.842.257-7.125.478-13.29.09-2.458-2.408 2.374z"/><path fill="#F4EB43" d="M45.533 15.198c-2.378 0-4.304 1.827-4.304 4.08s1.926 4.08 4.304 4.08a4.46 4.46 0 0 0 1.957-.45l.257-7.125a4.466 4.466 0 0 0-2.214-.585zm-5.893 9.397c.745 0 1.42.318 1.909.833a2.91 2.91 0 0 1 .791 2.01c0 .785-.302 1.496-.791 2.01a2.627 2.627 0 0 1-1.91.834c-.745 0-1.42-.319-1.908-.834a2.911 2.911 0 0 1-.792-2.01c0-.784.303-1.496.792-2.01a2.627 2.627 0 0 1 1.909-.833zm-5.811 12.88c.745 0 1.42.319 1.908.833.49.515.792 1.226.792 2.01 0 .785-.303 1.496-.792 2.01a2.627 2.627 0 0 1-1.908.834c-.746 0-1.42-.319-1.91-.833a2.911 2.911 0 0 1-.791-2.01c0-.785.303-1.496.792-2.01a2.627 2.627 0 0 1 1.909-.834zM29.621 19.28c1.188 0 2.264.457 3.043 1.195a3.962 3.962 0 0 1 1.261 2.884 3.962 3.962 0 0 1-1.261 2.884 4.413 4.413 0 0 1-3.043 1.195 4.413 4.413 0 0 1-3.042-1.195 3.962 3.962 0 0 1-1.261-2.884c0-1.126.482-2.146 1.261-2.884a4.413 4.413 0 0 1 3.042-1.196zm-.969 14.57c-.638-2.95-3.434-4.849-6.246-4.24-.4.087-.777.223-1.129.396.637 2.72 1.928 5.207 3.738 7.39v.001c.272.327.55.65.844.963.011-.035.028-.069.04-.104.29.281.637.614.997.955 1.46-1.24 2.206-3.283 1.756-5.36zm5.177-17.34c4.7 0 8.511-3.611 8.511-8.068 0-1.79-.621-3.436-1.66-4.774-5.575 1.617-10.597 4.786-14.196 8.837 1.476 2.394 4.208 4.006 7.345 4.006zm5.885 23.142c0 4.137 3.285 7.54 7.517 8.009l.114-16.035c-4.288.418-7.631 3.851-7.631 8.026z"/><path fill="#74BF44" stroke="#000" stroke-width="2.321" d="M39.067 28.634s-2.163-4.57-1.873-8.245c.29-3.675-.358-6.837-2.839-6.562-2.48.276-4.985 3.925-4.028 8.643.957 4.717 4.266 7.888 4.266 7.888l4.474-1.724zm19.527 0s2.164-4.57 1.874-8.245c-.29-3.675.358-6.837 2.839-6.562 2.48.276 4.985 3.925 4.028 8.643-.957 4.717-4.266 7.887-4.266 7.887l-4.475-1.723z"/><path fill="#74BF44" d="M48.83 55.541c-12.292 0-21.562-5.984-21.562-13.92 0-8.273 9.672-15.005 21.562-15.005s21.564 6.73 21.564 15.005c0 7.936-9.27 13.92-21.564 13.92z"/><path d="M48.83 27.777c11.122 0 20.403 6.298 20.403 13.844 0 7.543-9.28 12.76-20.403 12.76-11.122 0-20.402-5.216-20.402-12.76 0-7.546 9.28-13.844 20.402-13.844m0-2.321c-12.53 0-22.723 7.25-22.723 16.165 0 8.597 9.769 15.08 22.723 15.08 12.954 0 22.724-6.483 22.724-15.08 0-8.914-10.194-16.165-22.724-16.165v2.321z"/><path fill="#FFF" d="M41.578 32.528c-2.396-.36-4.695 1.698-5.054 4.103-.358 2.403 1.234 5.057 3.631 5.415 2.397.358 4.695-1.713 5.055-4.117.36-2.406-1.234-5.044-3.632-5.4z"/><path fill="#231F20" d="M40.84 35.574c.503 0 .958.216 1.287.567.33.35.533.833.533 1.367s-.204 1.018-.533 1.367c-.33.35-.784.568-1.286.568-.503 0-.958-.217-1.287-.568a1.992 1.992 0 0 1-.533-1.367c0-.534.204-1.017.533-1.367.33-.35.784-.567 1.287-.567z"/><path fill="#231F20" d="M41.775 30.43c-3.664-.547-7.096 2.067-7.659 5.84-.563 3.776 1.951 7.28 5.615 7.828 3.665.547 7.093-2.068 7.657-5.843.565-3.774-1.947-7.278-5.613-7.825zm3.435 7.498c-.36 2.404-2.659 4.475-5.055 4.117-2.398-.358-3.989-3.012-3.631-5.415.36-2.404 2.658-4.462 5.054-4.103 2.398.358 3.992 2.996 3.632 5.401z"/><path fill="#FFF" d="M57.732 32.528c-2.396-.36-4.694 1.698-5.054 4.103-.358 2.403 1.234 5.057 3.631 5.415 2.397.358 4.695-1.713 5.055-4.117.36-2.406-1.234-5.044-3.632-5.4z"/><path fill="#231F20" d="M56.995 35.574c.502 0 .957.216 1.287.567.328.35.533.833.533 1.367s-.205 1.018-.533 1.367c-.33.35-.785.568-1.287.568-.502 0-.957-.217-1.287-.568a1.992 1.992 0 0 1-.533-1.367c0-.534.204-1.017.533-1.367.33-.35.785-.567 1.287-.567z"/><path fill="#231F20" d="M57.93 30.43c-3.665-.547-7.097 2.067-7.66 5.84-.563 3.776 1.951 7.28 5.615 7.828 3.665.547 7.093-2.068 7.658-5.843.564-3.774-1.947-7.278-5.614-7.825zm3.434 7.498c-.36 2.404-2.658 4.475-5.055 4.117-2.398-.358-3.989-3.012-3.631-5.415.36-2.404 2.659-4.462 5.054-4.103 2.398.358 3.992 2.996 3.632 5.401zm-12.643 7.803c2.049 0 3.904.338 5.248.877 1.344.547 2.176 1.297 2.176 2.121 0 .825-.832 1.574-2.176 2.122-1.344.54-3.2.876-5.248.876s-3.903-.337-5.247-.876c-1.345-.548-2.176-1.297-2.176-2.122 0-.824.831-1.574 2.176-2.12 1.344-.54 3.199-.878 5.247-.878z"/></svg>