<svg xmlns="http://www.w3.org/2000/svg" viewBox="0 0 60.3 51.6"><path fill="#F7941E" d="M60.2.8c-.1-.2-.7-.4-1.1-.5-2.4-.1-4.8-.1-7.3-.1-.8 0-1.7.1-2.5.1-.2 0-.4.1-.5.2l-1.5 1.2C45.7 3 43.9 4 42.9 5.9c-.6 1.2-1.4 2.3-1.9 3.5-.5 1.2-.8 2.5-1.1 3.7-.4 1.3-.8 2.5-1.2 3.7-1 2.7-1.8 5.4-2.9 8-1.2 2.8-2.6 5.6-3.9 8.4-.2.4-.5.8-.8 1.4-.3-.8-.5-1.4-.7-2-.9-2-1.8-4-2.6-6-.9-2.2-1.8-4.5-2.7-6.7-.9-2.4-1.6-4.8-2.6-7.2-1.5-3.8-3.1-7.5-4.6-11.3-.5-1.2-.7-1.4-2-1.4H6.3c-.3 0-.8.2-1 .5-1.3 1.4-2.5 3-3.8 4.4C.3 6.1 0 7.4 0 9c0 .6.2.9.8.9h1.5c1.1 0 1.5.4 1.6 1.5.1 1.3.3 2.7.3 4.1 0 3.7 0 7.3-.1 11-.1 6.3-.3 12.7-.4 19.1 0 .7-.2 1.2-.8 1.5-1.3.8-1.9 1.8-1.6 3.4.2.7.3 1 1.1 1h11.5c.6 0 .9-.3 1.2-.7.5-.8 1.1-1.4 1.7-2.2.2-.3.4-.6.5-.9.1-.7.1-1.4.2-2 .1-.6-.1-.8-.7-.8-.5 0-1 0-1.4-.2-.5-.2-1.2-.6-1.4-1.1-.3-.9-.3-1.9-.3-2.9.1-4.5.2-9 .3-13.4v-5.5c.1.2.2.3.3.5 1.7 3.4 3.4 6.8 5.1 10.3.1.3.3.6.4.9 1.4 3.4 2.8 6.8 4.4 10.2 1.2 2.5 2.6 5 3.4 7.7 0 .1.3.3.5.3.3.1.6 0 .9 0 1.1.2 1.8 0 2.4-1.2.9-1.9 2.2-3.6 3.1-5.4 1.2-2.4 2.4-4.8 3.4-7.2 1.1-2.6 2.1-5.2 3.2-7.8 1.2-2.9 2.5-5.8 3.7-8.7.3-.7.5-1.5.8-2.2h.3v7.1c-.1 4.2-.4 8.4.1 12.5.2 1.9.3 3.7.4 5.6 0 .2 0 .6-.2.7-.8.6-1.6 1.3-2.4 1.8-1.1.8-1.7 1.8-1.5 3.2.1.8.2 1 1.1 1.1 1.9.1 3.7.2 5.6.3 2.6.1 5.3 0 7.9 0 .1-.2.1-.5.2-.6.9-1.1 2-2.2 2.8-3.4.3-.5.3-1.3.3-1.9 0-.2-.6-.3-1-.4-.3-.1-.6-.1-.9-.1-1.4-.1-1.8-.5-1.7-1.9.1-2.5.2-4.9.2-7.3.1-7.4.1-14.7.1-22.1 0-1-.1-2-.1-3.1V3.9c0-.6.4-.9 1-.9h2c.2 0 .5-.1.5-.2 0-.8.1-1.4-.1-2zm-.6 1.5h-2.2c-.9 0-1.3.4-1.4 1.3V21c0 5-.1 10-.1 14.9 0 2.4-.1 4.8-.2 7.3 0 1.6.5 2.2 2.1 2.3.5 0 1 .1 1.6.2-.1.4-.1.8-.2 1.2-4.4.8-8.8.5-13.2.6-.5-1.2-.2-1.8 1-2 .5-.1 1.1-.2 1.6-.4 1.1-.3 1.7-1.1 1.7-2.4-.1-5-.1-10-.3-14.9-.2-5.5-.2-10.9 0-16.3.1-1-.1-2-.3-3 0-.2-.1-.5-.3-.9-.7 1.3-1.5 2.3-1.9 3.5-1.3 3.6-2.5 7.2-3.8 10.8-1 2.6-2.2 5.1-3.3 7.6-.7 1.6-1.4 3.1-2 4.7-1.5 4-3.2 7.8-5.3 11.6-.2.4-.4.5-.8.5-1.5.2-2.2-.3-2.9-1.8-3.4-6.8-6-13.9-8.4-21-.6-1.9-1.6-3.7-2.4-5.5-1.2-2.7-2.4-5.3-3.6-8l-1.5-3c0-.1-.3-.2-.4-.2-.1.1-.3.3-.3.5v7.3c0 2.7.1 5.4.1 8.1.1 2.3.1 4.7.1 7 0 3-.2 6-.2 9.1 0 1.5 0 3 .1 4.5 0 1.1 1 2 2.1 2h1.5c-.1.8-.2 1.4-.2 2.2-.2 0-.5.1-.9.1-2.2.1-4.5.1-6.7.2-.6 0-1.3.1-1.9.1-.8.1-1.1-.2-.9-1 .1-.4.2-.8.2-1.1 1.1-.4 2-.6 2.9-.8.6-.2.9-.6.9-1.3 0-2.7 0-5.3.1-8 .1-2.1.3-4.2.4-6.3 0-1.3-.2-2.6-.2-3.9 0-2.4 0-4.9-.1-7.3v-4.8c0-2.2 0-4.4-.1-6.6 0-1-.1-1.9-.2-2.9C9.7 3 9.1 2.5 8 2.3c-.5-.1-1-.1-1.6-.2V.5h8.9c.9.1 1.5.2 1.9 1.3 1.2 3.4 2.8 6.7 4.1 10.1 1.1 2.7 2 5.5 3 8.2.9 2.3 1.8 4.6 2.7 6.8.8 2 1.8 4 2.7 6 .5 1.2 1 2.5 1.5 3.7l1.5 3.6c0 .1.2.3.3.3.1 0 .4-.1.4-.3 1.1-2.2 2.2-4.4 3.1-6.6.8-1.8 1.3-3.8 2-5.6.5-1.2 1.2-2.3 1.7-3.6 1.2-3.1 2.3-6.2 3.5-9.3 1.6-4.2 3.5-8.3 5-12.5.5-1.5 1.3-1.8 2.7-1.8 2.7.1 5.4 0 8.2 0v1.5z"/><path fill="#FFF" d="M57.5 2.3h2.2V.9c-2.8 0-5.5.1-8.2 0-1.4 0-2.1.3-2.7 1.8-1.5 4.2-3.4 8.3-5 12.5-1.2 3.1-2.3 6.2-3.5 9.3-.5 1.2-1.2 2.3-1.7 3.6-.7 1.9-1.3 3.8-2 5.6-1 2.2-2.1 4.4-3.1 6.6-.1.1-.3.2-.4.3-.1 0-.3-.2-.3-.3l-1.5-3.6c-.5-1.2-1-2.5-1.5-3.7l-2.7-6c-1-2.3-1.9-4.5-2.7-6.8-1-2.7-2-5.5-3-8.2-1.3-3.4-2.8-6.7-4.1-10.1-.4-1.1-1-1.2-1.9-1.3H6.3v1.5c.6.1 1.1.1 1.7.2 1.1.2 1.7.7 1.9 1.7.1 1 .2 1.9.2 2.9.1 2.2.1 4.4.1 6.6v4.8c0 2.4 0 4.9.1 7.3 0 1.3.2 2.6.2 3.9-.1 2.1-.3 4.2-.4 6.3-.1 2.7-.1 5.3-.1 8 0 .7-.2 1.1-.9 1.3-.9.2-1.8.4-2.7.7-.2.2-.3.6-.4 1-.1.8.2 1.1.9 1 .6 0 1.3-.1 1.9-.1 2.2-.1 4.5-.1 6.7-.2.3 0 .6-.1.9-.1.1-.8.2-1.4.2-2.2h-1.5c-1.1 0-2-.9-2.1-2 0-1.5-.1-3-.1-4.5 0-3 .2-6 .2-9.1 0-2.3-.1-4.7-.1-7 0-2.7-.1-5.4-.1-8.1V7.2c0-.2.2-.3.3-.5 0 0 .3.1.4.2l1.5 3c1.2 2.7 2.4 5.3 3.6 8 .8 1.8 1.8 3.6 2.4 5.5 2.4 7.2 5 14.2 8.4 21 .7 1.4 1.4 2 2.9 1.8.4-.1.6-.1.8-.5 2-3.7 3.7-7.6 5.3-11.6.6-1.6 1.3-3.2 2-4.7 1.1-2.5 2.3-5 3.3-7.6 1.3-3.6 2.5-7.2 3.8-10.8.4-1.1 1.2-2.2 1.9-3.5.2.5.3.7.3.9.1 1 .3 2 .3 3-.2 5.5-.3 10.9 0 16.3.2 5 .2 9.9.3 14.9 0 1.3-.6 2.1-1.7 2.4-.5.1-1.1.2-1.6.4-1.2.2-1.5.8-1 2 4.4-.1 8.8.1 13.2-.6.1-.4.1-.7.2-1.2-.6-.1-1.1-.2-1.6-.2-1.6-.1-2.2-.7-2.1-2.3.1-2.4.2-4.8.2-7.3.1-5 .1-10 .1-14.9v-9.2c0-2.8-.1-5.5 0-8.2 0-.8.5-1.2 1.4-1.2zM22.6 22.1c-.1.1-.6-.3-.7-.5-.9-2.1-1.8-4.3-2.7-6.4-.8-2-1.7-4-2.6-5.9-.4-.8-.7-1.7-1-2.5.1 0 .2-.1.2-.1.2.2.4.5.5.7 1.4 3 2.7 6.1 4 9.2l2.1 4.8c.4.2.7.5.2.7zm.8 2.6c-.2 0-.6-.4-.6-.5.1-.3.4-.5.7-1 .3.5.6.8.6 1 0 .2-.4.5-.7.5zm7.4 17.2c-.1 0-.2.1-.3.1-.4-.9-.8-1.7-1.2-2.6-.9-2.1-1.8-4.2-2.7-6.4-.8-2.1-1.5-4.2-2.1-6.3-.1-.2.1-.4.2-.6.2.1.4.2.5.4.5 1.4.9 2.7 1.4 4.1.4 1.1.8 2.1 1.2 3.2 1 2.6 2 5.3 3 7.9v.2zM52.2 7.8c0-.2 0-.4.1-.6.1 0 .1 0 .2-.1.1.2.2.4.2.6.1 3.3.2 6.6.2 9.9V23c0 .2-.2.5-.4.7-.1-.2-.3-.5-.3-.7v-9.6c.1-1.9 0-3.7 0-5.6zm1 26.9c0 2.2 0 4.3-.1 6.5 0 .9 0 1.8-.1 2.8 0 .1-.1.3-.2.4h-.2c0-.4-.1-.9-.1-1.3-.5-3.6-.3-7.1.1-10.7.1-.9-.1-1.7-.1-2.6 0-.2.2-.4.3-.6.1.2.4.4.4.5.1 1.6.1 3.3 0 5zm-.3-7.3c-.3 0-.6-.4-1.1-.7.5-.4.7-.7 1-.9.3.3.6.7.8 1 0 .1-.5.6-.7.6z"/><path fill="#F7941E" d="M30.8 41.9c-.1 0-.2.1-.3.1-.4-.9-.8-1.7-1.2-2.6-.9-2.1-1.8-4.2-2.7-6.4-.8-2.1-1.5-4.2-2.1-6.3-.1-.2.1-.4.2-.6.2.1.4.2.5.4.5 1.4.9 2.7 1.4 4.1.4 1.1.8 2.1 1.2 3.2 1 2.6 2 5.3 3 7.9v.2zm-8.2-19.8c-.1.1-.6-.3-.7-.5-.9-2.1-1.8-4.3-2.7-6.4-.8-2-1.7-4-2.6-5.9-.4-.8-.7-1.7-1-2.5.1 0 .2-.1.2-.1.2.2.4.5.5.7 1.4 3 2.7 6.1 4 9.2l2.1 4.8c.4.2.7.5.2.7zm30.3.9c0 .2-.2.5-.4.7-.1-.2-.3-.5-.3-.7V7.8c0-.2 0-.4.1-.6.1 0 .1 0 .2-.1.1.2.2.4.2.6.1 3.3.2 6.6.2 9.9V23zm.4 6.6c0 1.7 0 3.4-.1 5.1 0 2.2 0 4.3-.1 6.5 0 .9 0 1.8-.1 2.8 0 .1-.1.3-.2.4h-.2c0-.4-.1-.9-.1-1.3-.5-3.6-.3-7.1.1-10.7.1-.9-.1-1.7-.1-2.6 0-.2.2-.4.3-.6.2 0 .5.2.5.4zm.2-2.8c0 .1-.4.6-.6.6-.3 0-.6-.4-1.1-.7.5-.4.7-.7 1-.9.2.3.6.6.7 1zm-29.4-2.6c0 .2-.4.5-.7.5-.2 0-.6-.4-.6-.5.1-.3.4-.5.7-1 .3.5.7.8.6 1z"/></svg>