<svg xmlns="http://www.w3.org/2000/svg" viewBox="0 0 60.3 51.6"><path fill="#53AD4E" d="M59.2 45.1c-.3 0-.7-.1-1-.1-1.4-.1-1.8-.5-1.7-2 .1-2.4.2-4.9.2-7.3.1-7.8.1-15.7.1-23.5 0-.5-.1-1-.1-1.5V3.9c0-.6.4-.9 1-.9h1.9c.2 0 .5-.1.6-.2.1-.6.2-1.2 0-1.8-.1-.2-.7-.5-1.1-.5-2.4-.1-4.8-.1-7.3-.1-.9 0-1.7.1-2.6.1-.2 0-.3.1-.5.2l-1.5 1.2C45.7 3 43.9 4 43 5.9c-.6 1.2-1.4 2.3-1.9 3.5-.5 1.2-.8 2.5-1.2 3.8-.4 1.2-.8 2.5-1.2 3.7-1 2.7-1.8 5.4-2.9 8-1.2 2.8-2.6 5.6-3.9 8.4-.2.4-.5.8-.7 1.2-.1 0-.1 0-.2-.1l-.6-1.8c-.9-2-1.8-3.9-2.6-5.9-.9-2.2-1.8-4.5-2.7-6.7-1-2.5-1.8-5.1-2.7-7.6L17.9 1.3c-.6-1.1-.8-1.3-2-1.3H6.2c-.3 0-.7.2-.9.4C3.7 2.2 2.2 4 .7 5.9c-.3.4-.5 1-.6 1.6-.2 2.5-.4 2.4 2.2 2.4 1.1 0 1.6.4 1.7 1.5.1 1.7.3 3.4.3 5.1 0 3.2 0 6.4-.1 9.6-.2 6.5-.3 13.2-.5 19.8 0 .4-.3.8-.5 1-.3.3-.8.6-1.1.9-.9.8-.8 1.8-.6 2.8.1.6.3.8.9.8h11.8c.3 0 .7-.3 1-.6.4-.5.7-1.2 1.2-1.7.7-.7 1.1-1.3 1.1-2.4 0-2 .1-2-2-2.1-.7 0-1.3-.5-1.4-1.2-.2-.9-.3-1.8-.2-2.7l.3-12.4c0-2-.1-4.1-.1-6.2 0-.2 0-.4.1-.8.3.6.4.9.6 1.2 1.1 2.4 2.1 4.8 3.3 7.1 1.9 3.4 3.4 7.1 5 10.7.9 2 1.6 4.1 2.8 6 .8 1.4 1.2 3 1.9 4.6.1.2.3.4.5.5.2.1.5 0 .8 0 1.1.1 1.9.1 2.5-1.2.8-1.8 2.1-3.4 3-5.2 1.3-2.5 2.4-5 3.6-7.5 1.1-2.6 2.1-5.2 3.2-7.7 1.2-2.9 2.4-5.8 3.6-8.6.3-.7.5-1.5.8-2.3l.2.2c0 2.4.1 4.7.1 7.1 0 4.1-.3 8.2.1 12.3.2 1.9.3 3.8.4 5.7 0 .2-.1.6-.2.8-.8.7-1.7 1.4-2.6 2-1.1.8-1.4 1.7-1.3 3 .1.9.2 1.1 1.2 1.1 1.8.1 3.7.2 5.5.2 2.7.1 5.3 0 7.9 0 .2-.3.4-.7.6-.9.5-.7 1.2-1.3 1.7-2 .5-.6.9-1.3 1.1-2-.1-.8-.4-1.2-1.3-1.3zM2.3 9.3H.7c.1-1.3 0-2.4.9-3.4 1.3-1.5 2.6-3.1 3.9-4.6.1 1.4.1 1.4 1.5 1.4 1.7.1 2.3.7 2.3 2.4.1 3.4.2 6.7.2 10.1 0 2-.2 4-.2 6 0 2.4.3 4.7.3 7.1 0 1.9-.1 3.9-.2 5.8-.1 1.2-.1 2.4-.1 3.5-.1 2.1-.1 4.2-.2 6.3 0 .2-.2.4-.4.5-.5.2-1 .4-1.5.4-1 .1-2 .1-2.6 1.1-.1 0-.2-.1-.2-.1v-2.7c.1-3.1.3-6.3.3-9.4.1-3.4.1-6.8.1-10.2 0-2.7.1-5.4.1-8.1 0-1.4-.2-2.8-.4-4.2-.1-1.3-.9-1.9-2.2-1.9zm-.2 41.2c-.4-.9-.1-1.7.5-2.2.9-.8 1.8-1.4 2.8-2.1.4 1.3.2 2-1 2.8-.7.6-1.5 1-2.3 1.5zm13.8-2.3c-.5.7-1 1.5-1.5 2.3-.1.2-.4.3-.6.3-3.4 0-6.9 0-10.3.1-.1 0-.3-.1-.4-.1 1-.8 2-1.6 3.1-2.2.6-.3 1.3-.3 2-.4h7.7zm33.3-39c.1 0 .2 0 .3.1-.1 2.4-.3 4.9-.3 7.3 0 3.5.1 7 .1 10.4l.3 13.2c0 1.1-.1 2.2-.2 3.4 0 .3-.2.6-.5.7-.6.3-1.3.5-2 .7-.2-2.1-.2-3.9-.4-5.8-.5-4.6-.2-9.1-.1-13.7.1-2.7-.2-5.4-.2-8 0-.5.1-.9.2-1.4.4-1.1.8-2.2 1.3-3.3l1.5-3.6zM27.7 50c-.2-.4-.2-.8-.4-1.1-.9-1.9-1.8-3.8-2.6-5.6-1.5-3.4-2.9-6.8-4.3-10.2-.1-.3-.3-.6-.4-.9-2-4-4-8.1-6-12.1-.1-.3-.2-.6-.2-.9V9.7c0-.1 0-.2.1-.5.6 1.3 1.1 2.3 1.6 3.4.9 2 1.8 4.1 2.7 6 1.9 3.8 3.2 7.8 4.6 11.8C24 34 25.4 37.6 27.1 41c.6 1.2 1.2 2.5 1.8 3.8.5 1 .4 1.8-.1 2.7-.3.8-.7 1.6-1.1 2.5zm2.1 1.1c-.4 0-1-.1-1.6-.2.5-1.1 1-2 1.3-3 .3-1 .9-1.4 1.9-1.2.4.1.8 0 1.4-.1-1 1.6-2 3-3 4.5zm11.8-32.3c-.7 1.8-1.1 3.6-2 5.3-2 3.9-3.1 8.1-4.8 12.1-.5 1.1-1.1 2.1-1.6 3.1-.1 0-.2-.1-.2-.1-.5-1.3-1-2.6-1.5-3.8.4-.7.8-1.2 1-1.9 1.3-2.8 2.7-5.5 3.9-8.4 1.1-2.6 2-5.4 3-8.1.3-.9.6-1.8.8-2.6.5-1.7 1-3.3 1.6-5 .2-.7.6-1.3 1-1.9.2-.5.5-1 .9-1.6.3-.4.6-.9 1-1.2 1.1-.9 2.2-1.7 3.5-2.4-.2.5-.4.9-.6 1.4-2 5-4 10.1-6 15.1zm1 31.7c.1-.7.1-1.4.4-1.8.6-.9 1.4-1.7 2.2-2.5.7 1.4-.9 3.5-2.6 4.3zm13.4.2c-.2.2-.6.3-1 .3-3.5-.1-7-.2-10.5-.4 0 0-.1 0-.2-.1.6-.8 1.2-1.6 1.9-2.4.1-.1.4-.1.6-.1 1.6 0 3.2 0 4.8-.1 2.1-.1 4.2-.3 6.3-.4H59c-1.1 1.2-2 2.2-3 3.2z"/><path fill="#FFF" d="M4.4 49c-.7.5-1.5 1-2.3 1.5-.4-.9-.1-1.7.5-2.2.9-.8 1.8-1.4 2.8-2.1.3 1.3.1 2-1 2.8zm11.5-.8c-.5.7-1 1.5-1.5 2.3-.1.2-.4.3-.6.3-3.4 0-6.9 0-10.3.1-.1 0-.3-.1-.4-.1 1-.8 2-1.6 3.1-2.2.6-.3 1.3-.3 2-.4h7.7zm16.9-1.6c-1.1 1.6-2 3-3 4.5-.4 0-1-.1-1.6-.2.5-1.1 1-2 1.3-3 .3-1 .9-1.4 1.9-1.2.4 0 .8-.1 1.4-.1zm9.8 3.9c.1-.7.1-1.4.4-1.8.6-.9 1.4-1.7 2.2-2.5.7 1.4-.9 3.5-2.6 4.3zm16.4-3c-1.1 1.2-2 2.2-3 3.2-.2.2-.6.3-1 .3-3.5-.1-7-.2-10.5-.4 0 0-.1 0-.2-.1.6-.8 1.2-1.6 1.9-2.4.1-.1.4-.1.6-.1 1.6 0 3.2 0 4.8-.1 2.1-.1 4.2-.3 6.3-.4H59zm-9.3-7.3c0 1.1-.1 2.2-.2 3.4 0 .3-.2.6-.5.7-.6.3-1.3.5-2 .7-.2-2.1-.2-3.9-.4-5.8-.5-4.6-.2-9.1-.1-13.7.1-2.7-.2-5.4-.2-8 0-.5.1-.9.2-1.4.4-1.1.8-2.2 1.3-3.3l1.5-3.6c.1 0 .2 0 .3.1-.1 2.4-.3 4.9-.3 7.3 0 3.5.1 7 .1 10.4l.3 13.2zm-1.5-38c-.2.5-.4.9-.6 1.4-2 5.1-4 10.1-6 15.2-.7 1.8-1.1 3.6-2 5.3-2 3.9-3.1 8.1-4.8 12.1-.5 1.1-1.1 2.1-1.6 3.1-.1 0-.2-.1-.2-.1-.5-1.3-1-2.6-1.5-3.8.4-.7.8-1.2 1-1.9 1.3-2.8 2.7-5.5 3.9-8.4 1.1-2.6 2-5.4 3-8.1.3-.9.6-1.8.8-2.6.5-1.7 1-3.3 1.6-5 .2-.7.6-1.3 1-1.9.2-.5.5-1 .9-1.6.3-.4.6-.9 1-1.2 1-.9 2.2-1.7 3.5-2.5zM28.9 47.5c-.4.8-.8 1.6-1.2 2.5-.2-.4-.2-.8-.4-1.1-.9-1.9-1.8-3.8-2.6-5.6-1.5-3.4-2.9-6.8-4.3-10.2-.1-.3-.3-.6-.4-.9-2-4-4-8.1-6-12.1-.1-.3-.2-.6-.2-.9V9.7c0-.1 0-.2.1-.5.6 1.3 1.1 2.3 1.6 3.4.9 2 1.8 4.1 2.7 6 1.9 3.8 3.2 7.8 4.6 11.8C24 34 25.4 37.6 27.1 41c.6 1.2 1.2 2.5 1.8 3.8.6.9.4 1.8 0 2.7zM9.7 28.3c0 1.9-.1 3.9-.2 5.8-.1 1.2-.1 2.4-.1 3.5-.1 2.1-.1 4.2-.2 6.3 0 .2-.2.4-.4.5-.5.2-1 .4-1.5.4-1 .1-2 .1-2.6 1.1-.1 0-.2-.1-.2-.1v-2.7c.1-3.1.3-6.3.3-9.4.1-3.4.1-6.8.1-10.2 0-2.7.1-5.4.1-8.1 0-1.4-.2-2.8-.4-4.2-.2-1.3-1-1.9-2.3-2H.7c.1-1.3 0-2.4.9-3.4 1.3-1.5 2.6-3.1 3.9-4.6.1 1.5.1 1.5 1.5 1.5 1.7.1 2.3.7 2.3 2.4.1 3.4.2 6.7.2 10.1 0 2-.2 4-.2 6 .2 2.4.4 4.7.4 7.1z"/></svg>