<svg width="274" height="249" viewBox="9 22 274 249" xmlns="http://www.w3.org/2000/svg"><g stroke="#000" stroke-width=".973"><path fill="#594A42" d="M58.557 73.415c1.492.246 7.146 1.225 9.424 4.409 2.876 4.022 3.85 7.164 3.852 7.199.084 2.669 4.825 4.047 4.825-.606-.023-.203-.651-4.998-5.078-9.866-5.038-5.54-12.533-6.205-14.712-6.044 0 0-1.494.21-1.329 1.913.163 1.702 3.018 2.995 3.018 2.995z"/><path fill="#9B8579" d="M70.64 86.979s-1.59 5.327.36 5.797c1.95.472 2.051-2.69 2.051-2.69s3.62 6.377 7.42 3.302c3.8-3.073-2.015-8.607-2.015-8.607s-1.888-1.21-4.12-.76c-2.23.449-3.695 2.958-3.695 2.958z"/></g><g stroke="#000" stroke-width=".973"><path fill="#594A42" d="M44.804 70.737c-.038-1.711-1.547-1.74-1.547-1.74-2.183.098-9.545 1.65-13.889 7.749-3.816 5.36-3.87 10.195-3.87 10.4.554 4.62 5.097 2.688 4.864.028-.003-.035.591-3.271 2.97-7.606 1.881-3.431 7.38-5.077 8.832-5.499 0 0 2.68-1.623 2.64-3.332z"/><path fill="#9B8579" d="M27.757 86.475c-2.27-.181-4 1.245-4 1.245s-5.115 6.187-.977 8.787c4.138 2.601 6.974-4.162 6.974-4.162s.476 3.128 2.357 2.428c1.88-.7-.333-5.8-.333-5.8s-1.753-2.316-4.021-2.498z"/></g><path fill="#594A42" stroke="#000" stroke-width=".973" d="M37.629 111.19c-4.075 1.404-9.09 2.15-15.193 1.578C8.58 111.468 2.07 99.98.562 94.088a2.919 2.919 0 1 1 5.655-1.445c.138.523 3.595 13.078 16.764 14.314 18.205 1.709 24.411-10.436 24.667-10.954a2.926 2.926 0 0 1 3.897-1.342 2.91 2.91 0 0 1 1.361 3.877c-.233.486-4.406 8.907-15.277 12.652z"/><g stroke="#000" stroke-width=".973"><path fill="#594A42" d="M40.92 122.312c-1.509-.924-2.577-3.26-3.09-5.19-.78-2.94-1.292-5.016-.486-10.29.465-3.046 2.637-7.252 2.637-7.252s1.578-3.537 4.176-2.16c1.377.74 0 4.797 0 4.797s-1.091 3.377-1.392 8.79c-.219 3.956 2.15 9.243 1.55 11.385-.224.805-1.883.844-3.394-.08z"/><path fill="#C2B59B" stroke-linecap="round" stroke-linejoin="round" d="M45.036 123.536s-1.464-9.524-12.16-9.085c-10.696.44-10.308 6.73-10.184 8.351.294 3.809 5.422 3.737 5.422 3.737l16.996-1.758-.074-1.245z"/></g><g stroke="#000" stroke-width=".973"><path fill="#594A42" d="M59.35 122.392c-.598-2.142 1.77-7.428 1.551-11.385-.3-5.412-1.392-8.79-1.392-8.79s-1.377-4.058 0-4.796c2.598-1.377 4.176 2.159 4.176 2.159s2.172 4.207 2.637 7.252c.806 5.275.294 7.351-.486 10.29-.513 1.931-1.581 4.267-3.091 5.19-1.51.924-3.17.885-3.395.08z"/><path fill="#C2B59B" stroke-linecap="round" stroke-linejoin="round" d="M58.557 124.78l16.995 1.758s5.128.072 5.422-3.737c.125-1.62.512-7.911-10.184-8.351-10.696-.439-12.16 9.085-12.16 9.085l-.073 1.246z"/></g><g stroke="#000" stroke-width=".973"><path fill="#594A42" d="M64.315 98.548c2.668-3.682 3.47-8.86 2.148-13.851-1.12-4.226-.663-2.598-3.26-8.466-5.889-13.306-18.094-14.888-22.847-5.136-1.832 3.759-2.236 5.56-2.234 5.581l.006.095-.03.095c-.026.077-2.575 7.736-1.76 14.408.76 6.215 6.684 12.507 16.54 12.507.459 0 .929-.014 1.397-.04 4.284-.246 7.755-2.042 10.04-5.193z"/><path fill="#C2B59B" d="M42.674 100.881c-.428-.992-2.068-5.183-1.474-9.893.682-5.399 4.089-9.33 9.591-9.854 5.502-.523 10.167 3.512 11.687 8.91 1.035 3.677 1.183 8.326 1.203 9.338l-.007.094c-2.18 2.334-5.295 3.906-9.373 4.141-4.682.27-8.58-.793-11.572-2.635l-.055-.1z"/></g><g stroke="#000"><path fill="#9B8579" stroke-width=".973" d="M72.666 39.878s2.806-.184 4.889-1.573c3.102-2.071 3.736-6.765.805-11.323-2.93-4.557-5.417-4.704-7.65-3.604-1.585.78-1.957 2.835-2.022 3.29l-.013.052c2.62 6.535 2.974 12.352 2.974 12.352s.74.345 1.017.806z"/><path fill="none" stroke-width="1.946" stroke-linecap="round" d="M74.685 30.155s-.768 2.169-3.983 3.245"/></g><g stroke="#000"><path fill="#9B8579" stroke-width=".973" d="M19.986 32.48s-.384-2.453-1.917-2.837c-1.533-.383-5.213-.613-7.513 4.293-2.3 4.906-1.049 9.474 2.3 11.116 1.834.899 4.044.79 4.795.72 0 0 1.309-1.405 1.647-1.704 0 0-.305-5.013.714-11.262l-.026-.327z"/><path fill="none" stroke-width="1.946" stroke-linecap="round" stroke-linejoin="round" d="M15.087 36.78s1.05 2.049 4.378 2.688"/></g><path fill="#726658" stroke="#000" stroke-width=".973" d="M72.636 39.332c-1.69-.975-3.36-1.55-4.501-1.868l-.01-.05S63.089 17.12 52.205 17.12c-5.3 0-8.27 9-8.27 9s-3.73-8.594-11.716-7.257c-8.983 1.506-9.894 21.201-9.955 22.834l.003.103a21.055 21.055 0 0 0-3.363 2.47l-.003-.112c-.094-1.97-1.081-29.488 17.792-34.482l.014-.057c-.05-.623-.073-1.944.326-3.96.574-2.9 2.33-5.32 2.33-5.32s.461 2.504 1.714 4.316c1.29 1.866 2.42 2.42 2.42 2.42s-.392-1.448-.33-2.6C43.298 2.131 44.422.97 44.422.97s1.363 3.333 3.066 5.254c1.82 2.056 4.026 3.4 4.026 3.4l.032.008c19.58 4.87 21.077 29.44 21.077 29.44l.014.26z"/><path fill="#C2B59B" stroke="#000" stroke-width=".973" d="M68.125 37.415S63.089 17.12 52.205 17.12c-5.3 0-8.27 9-8.27 9s-3.73-8.594-11.716-7.257c-9.013 1.51-9.9 21.332-9.955 22.85l-.03.108c-3.182 1.897-7.03 5.647-6.466 12.939.79 10.216 13.929 17.79 34.082 15.688 21.568-2.25 29.685-12.602 27.242-23.44-1.417-6.29-6.045-8.728-8.928-9.535l-.039-.058z"/><path d="M54.468 56.686a.98.98 0 0 0-1.345-.27c-.016.011-1.747 1.095-6.736 1.484-.767-2.828-.271-4.618-.263-4.647a.487.487 0 0 0-.932-.28c-.027.088-.571 1.981.206 4.992-4.678.247-6.576-.502-6.628-.523a.974.974 0 0 0-.787 1.78c.197.088 1.747.726 5.408.742a37.97 37.97 0 0 0 2.857-.1c5.757-.408 7.762-1.695 7.972-1.84a.968.968 0 0 0 .248-1.338z"/><path fill="#726658" stroke="#000" stroke-width=".8" d="M45.29 47.541c1.647-.059 3.153.227 4.254.735 1.1.51 1.797 1.242 1.827 2.076.03.834-.613 1.614-1.675 2.2-1.061.586-2.543.978-4.19 1.037-1.649.059-3.154-.226-4.255-.735-1.101-.51-1.798-1.241-1.827-2.076-.03-.834.612-1.614 1.674-2.2 1.062-.586 2.543-.978 4.191-1.037z"/><path fill="#F1F2F2" d="M62.891 45.217c.124-3.015.136-13.81-6.104-13.164-6.922.716-3.99 12.465-3.712 13.52l.005.077a30.883 30.883 0 0 1 4.394-.538c2.791-.146 4.7.051 5.396.144l.021-.04z"/><path fill="#594A42" stroke="#000" stroke-width=".973" d="M55.917 44.892s-1.792-9.365 1.387-9.365c3.178 0 3.41 9.365 3.41 9.365"/><path d="M60.688 32.503c-1.076-1.054-2.414-1.505-3.976-1.345-1.662.173-2.955.92-3.844 2.224-2.276 3.333-1.153 9.415-.663 11.543-.46.108-.724.187-.755.196l.426 1.396c.022-.007 2.204-.664 5.637-.844 2.096-.111 3.685-.02 4.61.067l-.002.02.686.056c.146.02.223.033.227.034l.003-.015.538.043c.033-.4.75-9.82-2.887-13.375zm1.494 11.775c-.99-.091-2.612-.176-4.747-.063-1.526.08-2.81.25-3.797.42-.44-1.912-1.512-7.58.435-10.43.645-.946 1.557-1.467 2.788-1.594 1.128-.12 2.043.189 2.806.934 2.371 2.317 2.566 8.018 2.515 10.733z"/><path fill="#F1F2F2" d="M37.645 46.917c.124-3.015.136-13.81-6.104-13.164-6.923.716-3.99 12.465-3.712 13.52l.004.077a30.883 30.883 0 0 1 4.395-.538c2.79-.146 4.7.051 5.395.144l.022-.04z"/><path fill="#594A42" stroke="#000" stroke-width=".973" d="M30.67 46.592s-1.792-9.365 1.388-9.365c3.178 0 3.41 9.365 3.41 9.365"/><path d="M35.443 34.203c-1.077-1.054-2.415-1.505-3.977-1.345-1.662.173-2.955.92-3.844 2.224-2.275 3.333-1.153 9.415-.663 11.543-.46.108-.724.187-.755.196l.426 1.396c.022-.007 2.204-.664 5.637-.844 2.096-.111 3.685-.02 4.61.067l-.002.02.687.056c.145.02.222.033.226.034l.003-.015.539.043c.032-.4.748-9.82-2.887-13.375zm1.493 11.775c-.99-.091-2.612-.176-4.746-.063a32.41 32.41 0 0 0-3.798.42c-.439-1.912-1.512-7.58.435-10.43.645-.946 1.557-1.467 2.789-1.594 1.127-.12 2.042.189 2.805.934 2.371 2.317 2.567 8.018 2.515 10.733z"/></svg>