<svg width="247" height="209" viewBox="146 125 247 209" xmlns="http://www.w3.org/2000/svg"><path fill="#703D00" d="M46.66 51.172c6.112 0 11.651 1.006 15.662 2.632 4.01 1.625 6.494 3.87 6.494 6.348 0 2.478-2.483 4.723-6.494 6.348-4.01 1.626-9.55 2.632-15.663 2.632-6.113 0-11.652-1.006-15.663-2.632-4.01-1.625-6.493-3.87-6.493-6.348 0-2.477 2.483-4.723 6.493-6.348 4.011-1.626 9.55-2.632 15.663-2.632z"/><path fill="#A85B00" stroke="#A85B00" stroke-width="1.995" stroke-linecap="round" d="M197.8 176.4a471.469 471.469 0 0 1 31.55.5c2.626.132 6.619-1.583 6.45 1-.676 10.327-5.044 20.644-8.85 30.55-2.104 5.623-3.082 14.022-8.8 16.6-9.456 3.986-20.86 2.573-31.1 1-3.722-.599-6.05-4.022-8.1-6.7-3.451-4.497-5.951-9.711-8.15-14.5-3.71-8.179-9.069-16.385-10.2-24.9-.308-2.32 3.935-2.19 6.55-2.55 10.112-1.314 20.556-.828 30.65-1z" transform="matrix(.8981 0 0 .8145 -137.434 -120.843)"/><path fill="#703D00" d="M42.151 25.646c8.612 0 16.416.945 22.067 2.47 5.651 1.527 9.15 3.635 9.15 5.96 0 2.326-3.499 4.434-9.15 5.96-5.65 1.526-13.455 2.47-22.067 2.47-8.611 0-16.416-.944-22.067-2.47-5.65-1.526-9.149-3.634-9.149-5.96 0-2.325 3.498-4.433 9.15-5.96 5.65-1.525 13.455-2.47 22.066-2.47z"/><path fill="#F0C444" stroke="#A85B00" stroke-width="1.995" stroke-linecap="round" d="M194.95 126.15c11.565.368 22.701 5.975 32.65 11.9 4.427 3.003 9.204 8.504 8.6 13.725-.606 5.21-4.645 7.902-12.148 10.621-7.504 2.72-17.866 4.404-29.302 4.404s-21.798-1.684-29.302-4.404c-7.503-2.719-12.61-5.283-12.148-10.621.675-7.078 7.814-12.407 13.65-16.325 8.528-4.919 18.346-9.61 28-9.3z" transform="matrix(.95937 0 0 .86034 -145.782 -106.752)"/></svg>