<svg width="60" height="81" xmlns="http://www.w3.org/2000/svg"><path fill="#FF9400" d="M56.214 6.088c-.538 22.823.863 36.3 0 58.938-2.102 1.64-7.036.448-9.355 1.87-6.786-11.3-15.754-20.419-23.388-30.872-3.26 10.83-.015 21.55.935 32.744-2.277 1.777-7.826.281-10.29 1.87-2.819-22.05-4.178-37.781-5.613-58.937 3.302-1.063 5.832-2.9 10.29-2.807 10.996 9.586 13.485 27.679 26.195 35.55 3.238-11.048-.833-27.383-.936-38.356 4.383-3.259 7.376-2.077 12.162 0z"/><path d="M59.956 21.056c.074 14.022.078 28.07 0 42.099-.253.875-.624 0-.935 0 .672 5.349-4.676 4.68-2.807 11.226-4.76 1.164-11.437.412-15.904 1.87-3.154-9.318-8.55-16.396-14.032-23.387-3.277 6.356 2.69 10.831.935 18.71-2.644-.772-2.424 1.318-4.678.936.29 2.187 1.726 3.995 0 5.613-2.15.841-5.881-.193-7.484.935-2.803.083-6.63 2.582-8.42 0-4.84-32.609-2.63-47.194-5.613-60.808-.267-3.137-.137-1.916 0-2.807 4.45-.522 5.412-4.568 7.485-7.484 6.724-.851 11.43-3.137 16.839-.936 5.145 8.53 9.801 23.002 14.033 24.324.232-2.63-3.707-14.89-4.678-22.453 1.8-1.882 3.674.777 6.549-.935.538-1.645-1.131-5.496.935-5.613 2.9.093 4.972-.684 6.55-1.871 1.24-.056 2.503-.106 3.741 0 2.077.723 3.66.006 5.613.935 1.12 1.974.897 4.869 1.871 6.549.104 1.316-.336 2.678-.467 4.116-.069 3.017-.151 5.696.467 8.981zM44.052 6.088c.103 10.973 4.174 27.308.936 38.356-12.71-7.871-15.199-25.964-26.195-35.55-4.458-.092-6.988 1.744-10.29 2.807 1.435 21.156 2.794 36.888 5.613 58.938 2.464-1.59 8.013-.094 10.29-1.871-.95-11.195-4.194-21.915-.935-32.744 7.634 10.453 16.602 19.572 23.388 30.873 2.32-1.423 7.253-.231 9.355-1.871.863-22.638-.538-36.115 0-58.938-4.786-2.077-7.779-3.259-12.162 0z"/></svg>