<svg xmlns="http://www.w3.org/2000/svg" viewBox="0 0 50 50.6"><path fill="#53AD4E" d="M48.5 16c-1.6-3.8-3.1-7.6-6.5-10.3-2.9-2.2-5.7-4.5-9.5-5-1.8-.3-3.7-.7-5.6-.7-1.5 0-3 .3-4.5.6-1.6.3-3.2.6-4.6 1.3C13.4 4 9.4 6.6 6.2 10.3 2.4 14.7-.2 19.5 0 25.6c.1 1.6.3 3.3.3 5 .2 4 1.8 7.4 3.9 10.7 1.8 2.9 4.5 4.8 7.3 6.5C15 50 19 50.7 23.1 50.7c.2 0 .4 0 .6-.1 2.5-.7 5-1.3 7.4-2.2 3.4-1.2 6.5-3.1 9.3-5.4 2.3-1.9 4.2-4.2 5.7-6.8 1.9-3.4 3.2-7 3.6-10.8.5-3.3.1-6.4-1.2-9.4zM19.2 6.6c1.8-1.3 3.9-2 6.2-1.8 3.5.2 5.9 2.1 7.6 5.1 1 1.9 1.6 4 2.1 6.1.8 3.3 1.4 6.7 1.1 10.2.4 3.2-.3 6.3-1.2 9.3-1 3-2.5 5.6-4.7 7.8-1.6 1.6-3.5 1.9-5.6 1.4-2.7-.6-4.4-2.4-6.2-4.3-2.8-3-4.3-6.7-5.2-10.5-.7-2.7-.6-5.5-.4-8.2.3-4.1 1.7-7.9 3.6-11.5.7-1.4 1.6-2.7 2.7-3.6zm8 42.5c-3.4 1.1-6.9 1.1-10.4.1-2.5-.7-4.7-2-6.8-3.5-2.5-1.8-4.5-4.2-6.3-6.7-1.3-1.9-1.9-4.1-2.3-6.3-.6-3.1-.7-6.2-.6-9.4 0-2 .7-3.8 1.4-5.7 1.1-3.1 3.3-5.5 5.5-7.8 1.8-1.9 3.9-3.5 6.1-4.8.2-.1.3-.2.6-.2-8.8 7.4-10.8 16.7-7.6 27.4 4.1 9.2 11.9 16.2 23.6 16-1.1.3-2.1.6-3.2.9zm13.1-14c-.8 2.7-2.2 5-4.4 6.8-.5.4-1 .8-1.5 1.3-1.5 1.4-3.4 1.8-5.5 2 3.1-2.2 5-5.2 6.3-8.4.6-1.5.9-3.3 1.2-5 .3-1.8.5-3.5.7-5.3.3-2.9-.2-5.7-.8-8.5-.4-2.2-1-4.3-1.7-6.5C33.7 9 32 7.2 30 5.7c-2.3-1.7-4.9-1.8-7.6-1.3-.2 0-.5.1-.7.1C23 3.5 24.4 3 26 2.7c2.1-.4 4-.3 6 .9 2.4 1.4 4.7 2.8 6.2 5.1 1.7 2.6 3 5.5 3.6 8.6 1.2 6.1.3 12-1.5 17.8z"/><path fill="#FFF" d="M40.3 35.1c-.8 2.7-2.2 5-4.4 6.8-.5.4-1 .8-1.5 1.3-1.5 1.4-3.4 1.8-5.5 2 3.1-2.2 5-5.2 6.3-8.4.6-1.5.9-3.3 1.2-5 .3-1.8.5-3.5.7-5.3.3-2.9-.2-5.7-.8-8.5-.4-2.2-1-4.3-1.7-6.5C33.7 9 32 7.2 30 5.7c-2.3-1.7-4.9-1.8-7.6-1.3-.2 0-.5.1-.7.1C23 3.5 24.4 3 26 2.7c2.1-.4 4-.3 6 .9 2.4 1.4 4.7 2.8 6.2 5.1 1.7 2.6 3 5.5 3.6 8.6 1.2 6.1.3 12-1.5 17.8z"/><path fill="#FFF" d="M30.4 48.1c-1.1.3-2.1.7-3.2 1-3.4 1.1-6.9 1.1-10.4.1-2.5-.7-4.7-2-6.8-3.5-2.5-1.8-4.5-4.2-6.3-6.7-1.3-1.9-1.9-4.1-2.3-6.3-.6-3.1-.7-6.2-.6-9.4 0-2 .7-3.8 1.4-5.7 1.1-3.1 3.3-5.5 5.5-7.8 1.8-1.9 3.9-3.5 6.1-4.8.2-.1.3-.2.6-.2-8.8 7.4-10.8 16.7-7.6 27.4 4.1 9.2 11.9 16.2 23.6 15.9z"/></svg>