<svg width="65" height="80" xmlns="http://www.w3.org/2000/svg"><path fill="#0CC" d="M63.97 25.358c-.03.29-.07.57-.12.85-1.33 6.97-4.99 12.53-10.59 16.1-3.37 2.16-7.82 3.69-13.56 4.65-.02.01-.04.01-.06.01.03.98.06 2.07.08 3.26 5.61.21 8.83 3.11 10.36 5.01 1.39 1.71 2.97 4.56 2.97 8.67 0 6.59-4.26 11.97-10.6 13.38-2.47.55-5.16.68-8 .37h-.06c-.17 0-.5.01-1.06.07-2.94.33-3.85.41-4.43.43-.51.03-1.83.15-4.83.59-3.45.51-5.77.73-7.53.73-4.46 0-8.16-1.19-11.01-3.55-4.81-3.88-6.08-10.27-3.15-15.56 2.04-3.9 4.93-5.71 7.16-6.55.96-.38 2-.68 3.1-.91v-.01c-.29-1.66-.39-3.63-.33-6.25v-4.17c-.19-.79-.35-1.71-.35-2.8v-5.5c-.02-.26-.04-.53-.05-.8-.04-.72-.09-1.81-.15-3.25-.02-.68-.05-1.44-.09-2.27-3.44-.62-6.51-2.33-8.84-4.97-1.41-1.6-2.33-3.59-2.63-5.71-.14-.92-.2-1.83-.2-2.7 0-3.77 1.62-7.29 4.45-9.66.12-.1.23-.19.35-.28 3.02-2.33 6.83-3.67 11.64-4.1l.35-.03 6.26-.35c.2-.01.41-.01.61-.01h6.32c1.95-.07 3.5-.06 4.85.01l.34.03c3.34.29 7.36 1.05 12.29 2.33.25.07.51.15.76.23.88.3 1.54.61 4.11 1.94 2.05 1.04 4.02 2.49 5.85 4.31 3.02 2.91 4.82 6.16 5.38 9.67 0 .05.01.1.02.16.47 3.29.57 5.03.39 6.63z"/><path fill="#FFF" d="M53.042 24.149c-.76 3.988-2.66 6.949-5.697 8.884-2.104 1.35-5.26 2.375-9.466 3.079-5.144.88-8.298 1.525-9.466 1.936v4.573c.175 1.878.292 5.484.35 10.819.058 3.577.379 6.48.962 8.708.058.118.495.118 1.311 0 1.106-.058 2.796-.205 5.069-.439a39.115 39.115 0 0 1 2.098-.44c1.631-.176 2.737.118 3.32.88.349.411.524.998.524 1.76 0 1.467-.659 2.346-1.979 2.639-1.319.294-2.802.352-4.442.176-.938-.116-2.142-.088-3.606.088-2.111.235-3.284.352-3.519.352-1.231.06-3.24.295-6.025.704s-4.765.616-5.937.616c-1.878 0-3.227-.359-4.047-1.074-.703-.537-.851-1.134-.439-1.79.409-.836.88-1.343 1.407-1.521 1.173-.478 2.814-.717 4.926-.717 1.465 0 3.4-.174 5.806-.526-.118-.995-.147-2.457-.088-4.39 0-.467-.06-1.171-.176-2.108 0-.058-.044-.203-.133-.437-.088-.234-.132-.41-.132-.528 0-2.166-.03-3.482-.088-3.951-.234-.819-.322-2.369-.264-4.653v-5.355c0-.352-.059-.717-.176-1.098-.118-.379-.176-.6-.176-.658v-5.883c0 1.055-.235-4.564-.704-16.856 0-.409-.176-.731-.527-.966-.763.059-1.95.264-3.562.615-1.613.352-2.801.527-3.562.527-1.467 0-2.639-.497-3.519-1.495a8.045 8.045 0 0 1-.088-1.144c0-.527.176-.937.527-1.231 1.29-.996 3.255-1.612 5.894-1.847 2.052-.117 4.135-.233 6.245-.352h6.51c1.641-.059 2.99-.059 4.046 0 2.696.234 6.187.909 10.468 2.022.176.06 1.055.499 2.639 1.319 1.055.528 2.111 1.319 3.166 2.375 1.289 1.231 2.023 2.405 2.199 3.519.293 2.051.41 3.341.351 3.868zm-5.277-1.194c-1.057-5.008-7.271-7.542-18.647-7.602-.294 0-.734.178-1.319.53 0 .59.088 2.77.264 6.541.058 2.476.205 6.188.438 11.137.115 0 .933-.088 2.452-.266.466 0 1.107-.088 1.925-.265a506.51 506.51 0 0 0 8.495-1.503c3.443-.824 5.486-2.68 6.129-5.568.351-1.237.439-2.237.263-3.004z"/></svg>