<svg xmlns="http://www.w3.org/2000/svg" viewBox="0 0 40.8 51.8"><path fill="#F7941E" d="M40.3 10.5c-.5-1.6-.9-3.2-1.8-4.5-1.3-1.8-2.9-3.4-5-4.4C31.2.4 28.7-.1 26 0c-3 .2-5.9.2-8.9.1C13.2-.1 9.4 0 5.5.3c-.4 0-.9.2-1.1.5C3.2 2 2.1 3.4.9 4.5c-.9.9-1 1.8-.8 2.8 0 .2.4.5.6.5 1.2.1 2.3 0 3.4 0 .8 0 1 .4.9 1.2-.1 1.1-.1 2.3-.1 3.4 0 2.4.3 4.8.1 7.2-.5 5.7-.1 11.5-.2 17.2 0 2.1-.1 4.2-.2 6.3v2.7c-1.3 1-2.5 2-3.8 3-.4.3-.4 2.3 0 2.7.1.1.3.2.4.2 1.5.1 2.9.2 4.4.2 2.6 0 5.3-.1 7.9-.2 1.8-.1 3.8.2 4.8-2l.1-.1c.7-.9 1.6-1.6 1.6-2.9 0-1 0-1.1-1-1.3-.4-.1-.9-.2-1.3-.3-.8-.1-1-.6-1.1-1.4-.1-2.4-.3-4.9-.4-7.3-.1-1.9-.3-3.7-.4-5.8 1.2.1 2.4.2 3.5.2 3.4.1 6.7 0 10-.9 1.2-.3 2.4-.8 3.4-1.5 1-.8 1.8-1.9 2.7-2.9.8-1 1.6-2 2.3-3.1.9-1.5 1.8-3.1 2.5-4.7.9-2.4.8-4.8.1-7.2zM16 26.9l-.2-.2c.1-1.3.2-2.6.2-3.8.1-2.5 0-5 .1-7.5.1-2.9.2-5.8.3-8.8.6 0 1.4.1 2.2.1 2.6.1 5.3.1 7.8 1.1 2.7 1.1 4 3 4.2 5.9.2 2.3.2 4.5-.4 6.7-.2.8-.8 1.5-1.3 2.1-1.7 2-4.2 2.1-6.5 2.4-2.2.4-4.6.1-6.4 2zm24-11.1c-.2 1.3-1 2.6-1.5 3.9-1.1 2.6-3.1 4.5-5.5 5.7-1.5.8-3.2 1.2-4.9 1.4-2.6.3-5.2.2-7.8.2-.3 0-.6-.6-.9-1 .1-.1.1-.2.2-.2 1 0 2 .1 2.9 0 2.8-.4 5.5-1 8-2.3 3.1-1.7 4.5-4.6 4.8-7.9.2-2.8 0-5.6-1.6-8-1-1.5-2.1-2.9-3.9-3.5-.6-.2-1.1-.5-1.7-.8-1.8-.8-3.7-.6-5.6-.6-1.6 0-3.1.3-4.7.4-.4 0-.8.1-1.1.3-.6.2-1 .6-1 1.4 0 2.1 0 4.2-.1 6.4l-.3 6v.4c-.1 3.1-.3 6.2-.2 9.3.1 3.6.3 7.2.5 10.8l.3 6.3c0 1 .3 1.4 1.2 1.6.7.2 1.4.4 2.1.5.3 1.2.1 1.5-1.1 1.5-1.9-.1-3.7-.2-5.6-.2-1.7 0-3.3.1-5 .1-.4 0-.9-.1-1.3-.1-.2-1.5-.2-1.6 1.1-1.6 2.4 0 2.8-.6 2.6-3-.1-.9 0-1.8 0-2.7-.1-2-.2-4-.1-6.1 0-2.2.1-4.4.3-6.5.4-5.3.4-10.5-.2-15.8-.2-1.6 0-3.1 0-4.7 0-.7.1-1.5.1-2.2 0-1.3-1-2.4-2.4-2.6-.7-.1-1.3-.2-2.1-.3v-1C7.7.8 9.8.6 11.9.6c4.8 0 9.6.6 14.4.1 2-.2 3.8.4 5.7 1 2.6.9 4.2 2.9 5.8 4.8 1 1.3 1.5 3.1 1.9 4.8.4 1.5.5 3 .3 4.5z"/><path fill="#FFF" d="M39.8 11.3c-.4-1.7-.9-3.5-1.9-4.8-1.6-1.9-3.2-3.9-5.8-4.8-1.9-.6-3.7-1.2-5.7-1-4.8.5-9.6 0-14.4-.1-2.1 0-4.2.2-6.4.3v.9c.7.2 1.3.3 2 .4C9 2.4 10 3.5 9.9 4.9c0 .7-.1 1.5-.1 2.2 0 1.6-.2 3.2 0 4.7.7 5.3.6 10.5.2 15.8-.2 2.2-.3 4.4-.3 6.5 0 2 .1 4.1.1 6.1 0 .9-.1 1.8 0 2.7.2 2.4-.3 2.9-2.6 3-1.3 0-1.3.1-1.1 1.4.4 0 .9.1 1.3.1 1.7 0 3.3-.1 5-.1 1.9 0 3.7.2 5.6.2 1.2 0 1.4-.3 1.1-1.5-.7-.2-1.4-.3-2.1-.5-.9-.2-1.1-.7-1.2-1.6l-.3-6.3c-.2-3.6-.4-7.2-.5-10.8 0-3.1.2-6.2.2-9.3v-.4c.1-2 .3-4 .3-6 .1-2.1.1-4.2.1-6.4 0-.7.4-1.1 1-1.4.5-.2.9-.3 1.3-.3 1.6-.2 3.1-.4 4.7-.4 1.9-.1 3.8-.2 5.6.6.6.3 1.1.6 1.7.8 1.8.6 2.9 2 3.9 3.5 1.6 2.4 1.8 5.3 1.6 8-.3 3.3-1.7 6.2-4.8 7.9-2.5 1.4-5.2 2-8 2.3-1 .1-2 0-2.9 0l-.2.2c.3.3.6 1 .9 1 2.6 0 5.2.1 7.8-.2 1.7-.2 3.4-.6 4.9-1.4 2.4-1.3 4.4-3.1 5.5-5.7.5-1.3 1.3-2.5 1.5-3.9.1-1.4 0-2.9-.3-4.4zm-27.6 9.9c.1-3.1.2-6.1.2-9.1 0-1.7-.1-3.5-.1-5.2 0-.9.1-1.9.1-2.8h.3c.1 1.3.3 2.6.3 3.9 0 1.9 0 3.7-.1 5.6 0 2.4 0 4.9-.1 7.3 0 .2 0 .4-.1.6 0 .1-.2.2-.3.2-.1 0-.2-.1-.3-.3.1.1.1 0 .1-.2zm-.4 4.3c0-.1.4-.6.5-.5.3 0 .6.3.9.5v.3c-.3.1-.6.5-.8.4-.2-.1-.4-.4-.6-.7zm1.4 8.1c-.1 3.2-.3 6.4-.4 9.5 0 .2-.1.5-.1.7h-.3c-.1-.8-.2-1.6-.2-2.5.1-4.1.2-8.2.3-12.2v-.4c.1-.2.2-.3.4-.4.1.2.3.3.3.5.1 1.6.1 3.2 0 4.8zm22-27c.1 0 .2-.1.2-.1 1.1 1.3 2.1 2.7 2.4 4.5.1.4.2.9-.3 1-.8-1.9-1.6-3.6-2.3-5.4zm-.5 15.2c-.1 0-.2-.1-.3-.1.9-1.7 1.9-3.5 2.9-5.4.1.3.4.6.3.8-.7 1.7-1.5 3.4-2.9 4.7zm3.3-6.9c-.3-.5-.6-.7-.6-1 0-.2.3-.4.5-.7.2.2.6.4.6.7.1.3-.2.6-.5 1z"/><path fill="#F7941E" d="M13.1 8c0 1.9 0 3.7-.1 5.6 0 2.4 0 4.9-.1 7.3 0 .2 0 .4-.1.6 0 .1-.2.2-.3.2-.1 0-.2-.1-.3-.3-.1-.1 0-.2 0-.3.1-3.1.2-6.1.2-9.1 0-1.7-.1-3.5-.1-5.2 0-.9.1-1.9.1-2.8h.3c.2 1.4.4 2.7.4 4zm.1 25.6c-.1 3.2-.3 6.4-.4 9.5 0 .2-.1.5-.1.7h-.3c-.1-.8-.2-1.6-.2-2.5.1-4.1.2-8.2.3-12.2v-.4c.1-.2.2-.3.4-.4.1.2.3.3.3.5.1 1.6.1 3.2 0 4.8zM37.6 17c-.7 1.8-1.5 3.5-2.9 4.8-.1 0-.2-.1-.3-.1.9-1.7 1.9-3.5 2.9-5.4.1.3.4.6.3.7zm-.1-5.1c-.8-1.8-1.6-3.6-2.4-5.3.1 0 .2-.1.2-.1 1.1 1.3 2.1 2.7 2.4 4.5.2.3.3.8-.2.9zM13.3 25.4v.3c-.3.1-.6.5-.8.4-.3-.1-.5-.4-.7-.7 0-.1.4-.6.5-.5.4.1.7.3 1 .5zM38.5 14c0 .2-.3.5-.5.9-.3-.5-.6-.7-.6-1 0-.2.3-.4.5-.7.2.4.5.6.6.8z"/></svg>