<svg width="115" height="135" xmlns="http://www.w3.org/2000/svg"><path fill="#FF9400" d="M97.63 2.927c.696-.691 1.472-1.247 2.354-1.273 1.918-.023 3.949.22 5.63 1.133a19.783 19.783 0 0 1 6.164 5.287c1.146 1.48 1.63 3.426 1.907 5.211.103.667.078.952-.698 1.903-3.102 3.8-6.056 7.85-9.776 11.084-1.151.96-3.12 1.916-4.399 1.117-4.637-2.893-9.146-6.638-11.867-11.34-.86-1.484 1.76-2.961 2.837-4.296 2.458-3.047 5.05-6.058 7.848-8.826z"/><path fill="#FF0" d="M83.023 19.459c1.49-1.552 1.693-2.084 2.749-1.846 3.158.832 6.215 2.526 8.564 4.72 2.06 1.921 2.985 4.812 4.2 7.342.355.728 1.639.432.346 2.032C94 38.43 88.172 44.44 82.876 50.79c-17.734 21.272-35.12 42.86-53.04 63.881-4.505 5.312-1.807 1.793-2.895 1.784-2.766-.025-5.632-.565-8.13-1.877-2.005-.85-3.442-2.774-4.93-4.39-.955-1.044-2.323-2.34-2.362-3.842-.042-1.627-2.055.77 2.257-4.591 16.983-21.202 34.416-42.173 51.975-63.06A389.67 389.67 0 0 1 83.023 19.46z"/><path fill="#F6E575" d="M66.256 53.64c8.109-9.626 16.2-19.385 24.417-29.054 2.02-2.32 1.513-2.801 2.978-3.02 1.152-.176 2.036 1.18 2.76 2.217 1.362 1.954 2.353 4.12 3.006 6.494.23.868 1.424-.981-1.179 2.428a3948.586 3948.586 0 0 1-32.681 40.121c-11.805 14.302-23.606 28.71-35.843 42.62-3.13 3.462-1.83.975-2.847 1.024-1.844.028-3.993.334-5.75-.437-1.789-.787-3.843-1.992-4.44-3.856-.264-1.32-.363.1 2.505-3.301 11.471-13.61 23.126-27.111 34.677-40.66 4.125-4.844 8.293-9.704 12.397-14.576z"/><path fill="#C0C8C9" d="M91.748 8.995c.632-.68.637-.657 1.243-.506 2.27.733 4.57 1.584 6.596 2.913 2.19 1.437 4.073 3.368 5.758 5.356 1.102 1.298 1.843 2.858 2.52 4.405.169.388.468.24-.122.944-2.394 2.921-4.964 5.7-7.565 8.396-.648.673-.614.513-.824.288-.838-.895-1.028-2.32-1.857-3.252-2.056-2.31-4.222-4.687-6.77-6.537-1.529-1.065-3.51-1.366-5.258-2.058-.5-.198-1.255-.214-1.553-.67-.15-.255.06-.046.66-.752 2.398-2.824 4.647-5.808 7.172-8.527z"/><path fill="none" stroke="#ACB3B4" stroke-width="2" stroke-linecap="round" d="M103.042 26.51c-3.155-6.382-3.708-6.663-6.579-9.03-2.356-1.942-8.514-3.41-8.514-3.41"/><path fill="#FFC" d="M13.816 107.775c.858.549 2.29-1.107 3.037-.37 1.223 1.217-.078 4.116 1.32 5.017 1.285.822 3.277-1.802 4.487-.96 1.218.853-.17 3.335.917 4.383 1.025.99 3.233.085 4.2.823.47.358.67.437-1.227 1.611-7.587 4.697-15.103 9.629-23.106 13.573-2 .986-1.872.163-1.37-1.76 2.01-7.694 4.987-14.998 7.73-22.324.692-1.918.948-2.379 1.749-3.176.286-.28.996-.308 1.204-.008.633.923.15 2.606 1.059 3.19z"/><path fill="#464646" d="M1.013 132.819c.432-1.636 1.01-3.222 1.571-4.794.161-.407.156-.468.334-.426.695.175 1.376.483 1.933.95a4.719 4.719 0 0 1 1.312 1.857c.074.198-.112.2-.483.414-1.48.854-2.943 1.796-4.502 2.463-.39.167-.274-.052-.165-.464z"/><path fill="none" stroke="#EDD571" stroke-width="2" stroke-linecap="round" d="M87.278 29.363l-60.958 72.3"/></svg>