<svg width="118" height="188" xmlns="http://www.w3.org/2000/svg"><path fill="#FF9248" d="M47.367 177.639c-1.14-1.03-4.239-3.247-8.896-2.31-2.102.423-4.272 1.453-6.45 3.066-.082-.962-.414-2.493-1.63-3.583-1.184-1.06-2.906-1.446-5.132-1.157l17.54-14.29c.006 0 1.994-1.304 4.142-1.737 1.82-.367 3.2-.004 4.093 1.073 2.09 2.51-1.74 13.986-3.667 18.938z"/><path fill="#E87528" d="M34.436 176.784s18.45-31.125 12.749.136c0 0-5.524-4.01-12.749-.136z"/><path fill="#E87528" d="M26.508 173.152s4.047.454 5.447 4.129c0 0 25.215-29.094-5.447-4.129z"/><path d="M47.026 158.051c1.674-.336 2.877-.033 3.677.927 1.71 2.047-1.103 11.63-3.518 17.942-1.471-1.152-4.5-2.879-8.8-2.015-1.975.396-4.002 1.308-6.036 2.724-.186-.984-.627-2.206-1.667-3.14-1.023-.913-2.394-1.366-4.096-1.36L43 159.746c.022-.01 1.953-1.279 4.025-1.695m-.17-.847c-2.273.457-4.332 1.827-4.332 1.827l-18.869 15.375c.268-.068.52-.123.77-.175 7.764-1.56 7.176 5.027 7.176 5.027 2.598-2.065 4.924-3.098 6.953-3.506 5.679-1.14 8.971 2.653 8.971 2.653s6.663-16.588 3.84-19.98c-1.173-1.41-2.895-1.544-4.509-1.221z"/><path fill="#B7B7B7" d="M45.65 182.379s-.742 3.01-6.751 4.878l.618 5.263s10.905-5.566 13.037-18.455l-.722-3.591 1.037-4.57 1.184 4.122s.513-3.615 1.097-4.752c.487-.948 1.796-.635 1.099 4.312-.234 1.644-1.584 27.551-26.12 27.351l5.895-3.2-2.631-6.264s-6.352-.138-6.146-5.68c-.004-.002 6.367 6.306 18.403.586z"/><path d="M36.337 196.805c-1.94.392-4.03.578-6.211.562l5.35-3.821-2.382-5.661c-.834-.067-3.305-.406-4.899-2.099-.978-1.035-1.443-2.388-1.382-4.011l.038-.976.699.689c.04.04 4.25 4.069 12.115 2.487 1.87-.375 3.821-1.042 5.803-1.982l.822-.392-.218.883c-.033.128-.841 3.15-6.702 5.074l.501 4.265c2.216-1.33 10.46-6.945 12.26-17.677l-.723-3.59 1.042-4.75.835-.021.66 2.293c.21-1.095.498-2.376.823-3.002.34-.667 1.041-.853 1.499-.42.814.77.673 3.135.41 4.986l-.042.396c-.71 6.965-4.1 23.512-20.298 26.767zm19.358-31.53c-.02.007-.087.055-.163.197-.451.877-1.245 4.758-1.384 5.744l-.697-1.72-.534-1.86-.646 2.845.705 3.655c-2.144 12.957-13.154 18.715-13.265 18.77l-.55.283-.733-6.237.342-.104c3.493-1.087 5.132-2.566 5.879-3.545-1.636.695-3.253 1.206-4.814 1.52-6.446 1.294-10.521-.932-12.129-2.092.12.976.49 1.8 1.111 2.463 1.657 1.756 4.554 1.846 4.58 1.85l.28.005 2.897 6.883-3.84 2.496c1.49-.067 2.076-.19 3.433-.463 15.633-3.142 18.92-19.235 19.609-26.008l.045-.432c.515-3.657-.14-4.233-.126-4.25z"/><path fill="#FFF" d="M53.099 164.464s-2.043 14.014-5.635 18.034c-3.592 4.019-14.756 4.233-18.902 2.207-4.144-2.025-5.417-9.452-4.065-11.483 1.35-2.032 15.726-12.816 15.726-12.816s7.467-7.611 12.28-2.2c.002.002 1.329 3.356.596 6.258z"/><path d="M41.279 185.885c-4.56.917-10.106.576-12.907-.788-1.968-.964-3.556-3.207-4.358-6.151-.662-2.454-.616-4.847.123-5.958 1.378-2.071 15.241-12.481 15.78-12.88.134-.136 3.36-3.39 7.024-4.124 2.345-.47 4.32.18 5.968 2.067.055.141 1.364 3.519.618 6.479-.084.576-2.109 14.186-5.74 18.259-1.61 1.797-4.427 2.679-6.508 3.096zm10.9-27.39c-1.345-1.513-3.05-2.073-5.07-1.667-3.4.683-6.547 3.85-6.626 3.924-3.984 2.988-14.553 11.094-15.63 12.71-.59.888-.592 3.098-.006 5.256.73 2.705 2.152 4.746 3.903 5.601 2.605 1.271 8.032 1.59 12.355.719 2.801-.564 4.886-1.539 6.034-2.827 3.467-3.88 5.512-17.671 5.54-17.852.681-2.686-.524-5.86-.5-5.864z"/><path d="M36.412 163.364s6.372-2.18 9.442 1.053c0 0 1.543 1.667-.59 1.988-2.138.32-1.892-3.445-10.757-1.564l1.905-1.477zm-5.106 3.633s7.464-2.735 11.218 1.784c0 0 1.893 2.332-.622 2.686-2.518.353-2.37-4.763-12.796-2.534l2.2-1.936z" stroke-width=".495" fill="#5BDDDD" stroke="#000"/><path fill="#FF9248" d="M98.802 175.07c.467-1.46 2.023-4.937 6.52-6.475 2.033-.697 4.42-.897 7.117-.602-.415-.872-.898-2.358-.396-3.917.488-1.512 1.782-2.714 3.85-3.583l-22.35-3.51c-.006.001-2.378-.124-4.453.585-1.756.602-2.764 1.608-2.997 2.99-.541 3.223 8.549 11.206 12.709 14.513z"/><path fill="#E87528" d="M109.54 167.818s-31.613-17.593-10.94 6.542c0-.002 2.75-6.247 10.94-6.542z"/><path fill="#E87528" d="M114.564 160.69s-3.27 2.428-2.63 6.31c0 0-36.434-12.435 2.63-6.31z"/><path d="M89.229 157.978c2.001-.683 4.308-.56 4.332-.558l20.924 3.288c-1.475.854-2.434 1.937-2.853 3.24-.43 1.33-.198 2.607.138 3.554-2.469-.198-4.678.033-6.587.687-4.15 1.417-5.896 4.437-6.583 6.171-5.27-4.237-12.523-11.095-12.08-13.729.208-1.23 1.095-2.1 2.709-2.653m-.277-.816c-1.559.535-2.978 1.519-3.281 3.327-.733 4.35 13.38 15.324 13.38 15.324s.935-4.936 6.413-6.809c1.956-.669 4.493-.948 7.775-.47 0 0-3.829-5.398 3.67-7.962.239-.081.488-.16.752-.236l-24.049-3.775c-.002-.002-2.467-.149-4.66.601z"/><path fill="#B7B7B7" d="M102.672 178.304s2.157 2.224 8.29.812l2.117 4.859s-12.222.685-20.56-9.377l-1.186-3.467-3.197-3.425 1.053 4.16s-2.265-2.866-3.342-3.555c-.899-.574-1.871.357 1.222 4.279 1.03 1.303 15.245 23.003 36.341 10.472l-6.704.206-.879-6.74s5.415-3.318 2.447-8c.004-.005-2.322 8.652-15.602 9.776z"/><path d="M117.985 186.073c-15.633 5.346-26.897-7.238-31.015-12.9l-.236-.32c-1.158-1.467-2.47-3.439-2.154-4.512.174-.606.875-.798 1.503-.394.596.376 1.492 1.339 2.225 2.178l-.586-2.315.733-.4 3.288 3.58 1.188 3.47c6.96 8.362 16.91 9.057 19.495 9.09l-1.715-3.935c-6.033 1.287-8.254-.913-8.347-1.008l-.632-.655.907-.076c2.186-.184 4.205-.592 6.01-1.207 7.59-2.596 9.2-8.2 9.215-8.253l.256-.944.525.824c.869 1.372 1.148 2.773.827 4.161-.528 2.267-2.489 3.802-3.176 4.281l.794 6.088 6.546.61c-1.879 1.107-3.778 1.998-5.65 2.637zm-32.603-17.488c.02.008-.26.837 2.025 3.734l.26.348c4.005 5.504 14.95 17.752 30.04 12.59 1.31-.447 1.878-.637 3.197-1.33l-4.574-.22-.964-7.403.237-.146c.026-.018 2.483-1.552 3.026-3.903.204-.887.11-1.785-.281-2.686-.802 1.81-3.202 5.787-9.423 7.913-1.51.517-3.164.89-4.924 1.113 1.134.467 3.299.919 6.86.1l.353-.08 2.508 5.756-.62.035c-.122.006-12.536.578-20.913-9.533l-1.23-3.514-1.99-2.129.476 1.873.267 1.836c-.618-.78-3.26-3.735-4.09-4.263-.135-.087-.222-.093-.24-.091z"/><path fill="#FFF" d="M87.213 166.581s8.827 11.076 13.953 12.74c5.128 1.666 14.879-3.775 17.443-7.612 2.56-3.837-.085-10.896-2.273-11.97-2.19-1.074-20.043-3.149-20.043-3.149s-10.28-2.815-11.717 4.285c-.002 0 .542 3.568 2.637 5.706z"/><path d="M108.214 179.13c-.002 0-.002 0 0 0-2.011.687-4.886 1.348-7.183.602-5.187-1.687-13.792-12.424-14.154-12.882-2.137-2.18-2.705-5.76-2.727-5.908.467-2.459 1.851-4.02 4.11-4.793 3.537-1.208 7.962-.024 8.144.027.67.074 17.887 2.083 20.118 3.176 1.198.586 2.447 2.632 3.109 5.087.792 2.946.55 5.682-.666 7.508-1.728 2.59-6.35 5.678-10.75 7.183zM85 160.958c.025-.01.584 3.34 2.522 5.322.117.14 8.83 11.024 13.778 12.632 1.638.533 3.933.327 6.635-.598h.002c4.172-1.427 8.702-4.433 10.312-6.845 1.08-1.62 1.279-4.098.55-6.807-.582-2.158-1.699-4.066-2.655-4.538-1.742-.855-14.958-2.53-19.902-3.106-.11-.022-4.42-1.176-7.704-.054-1.947.666-3.138 2.01-3.538 3.994z"/><path d="M101.075 157.222s-6.6 1.326-7.625 5.664c0 0-.495 2.218 1.513 1.42 2.005-.8-.103-3.928 8.503-6.77l-2.391-.314zm6.24.566s-7.824 1.398-8.79 7.193c0 0-.462 2.966 1.89 2.006 2.353-.96-.352-5.306 9.777-8.633l-2.877-.566z" stroke-width=".495" fill="#5BDDDD" stroke="#000"/><path fill="#303A82" stroke="#000" stroke-width=".99" d="M87.04 76.371s22.303-10.022 25.687-15.15c3.385-5.126 8.549-9.383 9.396-2.855.846 6.53-.305 27.709-17.787 41.228-.002.002-21.605-6.201-17.295-23.223zm-52.62 3.061S15.878 95.37 9.796 96.254c-6.079.883-12.125 3.754-6.575 7.292 5.553 3.538 25.214 11.493 44.88 1.404 0 0 3.56-22.191-13.68-25.518z"/><path fill="#303A82" d="M106.789 107.256c-2.515-27.442-16.327-26.077-17.86-37.37-1.534-11.294-1.31-36.958-22.959-36.733-21.646.226-21.779 26.07-23.076 37.391-1.296 11.322-15.095 10.38-17.035 37.867-1.94 27.487 9.868 43.25 13.458 49.126 3.59 5.88 11.501 2.964 12.537.887 1.035-2.077 3.401-6.875 3.401-6.875 2.68 2.33 10.717 2.63 11.696 2.644 0 0 9.107-.292 11.74-2.68 0 0 2.464 4.749 3.543 6.804 1.083 2.057 9.048 4.807 12.517-1.145 3.463-5.951 14.554-22.48 12.038-49.916z"/><path d="M107.284 107.21c-1.566-17.06-7.417-23.07-12.12-27.896-2.892-2.968-5.177-5.313-5.741-9.494-.178-1.309-.333-2.812-.5-4.445-1.256-12.236-3.355-32.717-22.667-32.717l-.287.002c-20.033.208-22.021 21.514-23.207 34.243-.123 1.305-.236 2.51-.36 3.588-.48 4.193-2.707 6.603-5.53 9.656-4.588 4.964-10.298 11.143-11.508 28.232-1.792 25.369 8.21 41.06 12.486 47.76.394.62.748 1.174 1.043 1.659 1.871 3.069 4.69 3.712 6.724 3.712 3.092 0 6.001-1.508 6.678-2.86.824-1.654 2.49-5.03 3.136-6.34 3.388 2.245 11.426 2.381 11.531 2.383.36-.011 8.306-.29 11.52-2.397v.014c.016-.008.031-.024.041-.032.673 1.295 2.406 4.639 3.267 6.274.693 1.317 3.485 2.725 6.536 2.725 2.97 0 5.4-1.366 6.848-3.85l.723-1.223c4.12-6.914 13.76-23.096 11.387-48.993zm-12.232 48.485l-.727 1.232c-1.62 2.776-4.154 3.358-5.993 3.358-2.75 0-5.19-1.3-5.657-2.194-.924-1.758-2.849-5.465-3.391-6.504.924-1.077 1.863-2.833 1.863-2.833l-2.301 1.988-.012-.022-.475.431c-2.467 2.238-11.335 2.549-11.4 2.55-.086-.001-8.69-.184-11.38-2.52l-.484-.422-2.32-2.005s.961 1.793 1.894 2.867c-.51 1.035-2.366 4.803-3.257 6.585-.471.942-2.962 2.312-5.793 2.312-1.78 0-4.247-.562-5.88-3.237-.3-.49-.656-1.05-1.056-1.677-4.22-6.619-14.101-22.116-12.33-47.158 1.183-16.742 6.763-22.777 11.245-27.63 2.83-3.059 5.27-5.7 5.79-10.216.122-1.081.235-2.297.36-3.608 1.156-12.396 3.092-33.146 22.23-33.346l.278-.002c18.419 0 20.383 19.154 21.682 31.83.166 1.645.325 3.158.503 4.476.612 4.507 3.116 7.077 6.013 10.053 4.593 4.716 10.313 10.584 11.844 27.295 2.342 25.58-7.18 41.569-11.246 48.397z"/><path fill="#FFF" d="M87.607 74.34c-2.803-4.455-3.457-5.067-3.38-7.013C85.96 23.109 66.57 46.71 66.57 46.71S44.767 24.677 48.05 67.163c.149 1.926-.073 2.722-2.877 7.177-2.807 4.455-16.338 23.595-11.222 42.404 5.116 18.81 24.341 25.028 32.26 25.066 7.208.034 27.502-6.257 32.618-25.066 5.117-18.81-8.414-37.95-11.222-42.404z"/><path fill="#FFF" stroke="#000" stroke-width=".495" d="M55.356 45.556c1.143.202 2.037 1.195 2.553 2.638.52 1.441.663 3.33.31 5.325-.354 1.995-1.138 3.72-2.12 4.895-.982 1.178-2.162 1.803-3.305 1.6-1.142-.202-2.036-1.195-2.553-2.638-.518-1.441-.662-3.33-.309-5.325.354-1.995 1.138-3.72 2.12-4.895.981-1.177 2.162-1.803 3.304-1.6z"/><path fill="#5BDDDD" stroke="#000" stroke-width=".495" d="M54.103 50.227c.923.108 1.692.756 2.194 1.716s.732 2.232.573 3.587c-.158 1.355-.676 2.54-1.385 3.358-.71.818-1.608 1.271-2.53 1.164-.922-.108-1.692-.756-2.194-1.716-.501-.96-.731-2.232-.573-3.587.158-1.355.676-2.54 1.385-3.358.71-.819 1.608-1.272 2.53-1.164z"/><path d="M53.811 52.184c.584.068 1.069.496 1.384 1.134.315.639.456 1.488.352 2.393-.104.905-.435 1.7-.887 2.25s-1.022.856-1.606.789c-.584-.068-1.069-.496-1.384-1.134-.315-.639-.456-1.488-.352-2.393.105-.904.435-1.7.887-2.25.452-.549 1.022-.856 1.606-.789z"/><path fill="#FFF" d="M52.774 51.541c.323 0 .614.13.824.343.212.21.342.5.342.823 0 .323-.13.614-.342.824-.21.212-.501.342-.824.342-.322 0-.614-.13-.823-.342a1.155 1.155 0 0 1-.343-.824c0-.323.13-.614.343-.823.21-.212.5-.343.823-.343z"/><path fill="#FFF" stroke="#000" stroke-width=".495" d="M77.17 44.255c1.153-.149 2.3.532 3.227 1.754.925 1.22 1.627 2.981 1.885 4.99.259 2.009.025 3.89-.561 5.304-.586 1.417-1.524 2.366-2.677 2.514-1.153.149-2.3-.532-3.226-1.754-.925-1.22-1.627-2.981-1.886-4.99-.258-2.009-.025-3.89.562-5.304.586-1.417 1.524-2.366 2.677-2.514z"/><path fill="#5BDDDD" stroke="#000" stroke-width=".495" d="M77.445 49.066c.912-.173 1.842.215 2.608.981s1.365 1.912 1.619 3.252c.254 1.34.114 2.626-.318 3.619-.433.992-1.157 1.694-2.069 1.866-.912.173-1.842-.215-2.608-.98-.765-.767-1.365-1.913-1.619-3.253s-.114-2.626.318-3.619c.433-.992 1.157-1.694 2.07-1.866z"/><path d="M77.819 51.027c.578-.11 1.168.154 1.66.669.49.515.88 1.283 1.05 2.178.17.894.092 1.752-.175 2.412-.267.66-.719 1.122-1.297 1.233-.577.11-1.168-.154-1.66-.67-.49-.514-.879-1.283-1.05-2.178-.17-.894-.092-1.752.175-2.411.267-.66.72-1.123 1.297-1.233z"/><path fill="#FFF" d="M76.56 51.151c.322 0 .613.13.823.342.212.21.342.501.342.824 0 .323-.13.614-.342.824-.21.212-.501.342-.824.342a1.15 1.15 0 0 1-.823-.342 1.155 1.155 0 0 1-.343-.824c0-.323.13-.614.343-.824.21-.211.5-.342.823-.342z"/><path fill="#DD5900" stroke="#000" stroke-width=".495" d="M72.669 60.419c-2.386 2.156-6.146 5.07-12.185.329h-.038s-.051 4.698 6.077 4.742c5.89.043 6.316-4.49 6.146-5.071z"/><path fill="#FF822E" d="M66.57 63.757c3.424-.043 5.905-3.05 7.142-3.669.503-.247.778-.423.778-.423-2.227-1.204-1.813-1.519-4.207-3.224-2.394-1.704-5.308-1.045-6.93 0-1.671 1.077-4.702 3.647-4.702 3.647.303.145.637.186.897.38 1.744 1.31 4.971 3.317 7.022 3.29z"/><path d="M74.583 58.63c.186.35.19.696.174.898l-.146-.08c-1.222-.658-1.616-1.03-2.164-1.55a16.74 16.74 0 0 0-2.02-1.657c-2.049-1.459-5.082-1.376-7.209-.006-1.494.965-4.001 3.055-4.59 3.548-.009-.207.009-.52.177-.839 0 0-1.857.705-1.546 2.782l1.516-1.325c.054.02.11.044.163.062.174.057.336.11.461.205 2.055 1.539 5.154 3.337 7.132 3.337h.043c2.576-.034 4.645-1.695 6.011-2.796.497-.398.927-.742 1.24-.899.329-.164.523-.275.65-.348l1.655 1.447c.308-2.075-1.547-2.78-1.547-2.78zm-.978 1.239c-.364.18-.788.522-1.33.956-1.392 1.12-3.303 2.655-5.707 2.685l-.04.247v-.247c-1.854 0-4.838-1.745-6.832-3.237a1.757 1.757 0 0 0-.505-.24l.016-.014h-.042c-.011-.002-.02-.01-.031-.014.827-.687 3.035-2.504 4.354-3.356 1.956-1.261 4.763-1.352 6.65-.006 1.04.74 1.53 1.204 1.966 1.614.493.465.895.843 1.881 1.41-.107.06-.233.126-.38.202z"/><path fill="#AF2020" d="M49.596 35.294s-.883-8.94 9.627-14.537c10.511-5.6 16.354-11.226 17.158-12.281.612-.802 1.899-3.735 3.368-2.16 1.477 1.571 1.477 7.563 0 13.752-1.47 6.187 1.988 10.02 1.586 14.638 0 0-14.842-6.78-31.739.588z"/><path d="M50.311 30.578s14.406-7.877 30.556 0l-.847-2.848s-12.44-6.512-28.414.002l-1.295 2.846zm6.279-8.376s13.647-3.781 22.331 1.822l.519-2.317s-9.444-5.351-18.994-2.181l-3.856 2.676zm13.554-7.69s7.116.056 9.4 4.204l.882-2.103s-1.4-4.063-8.41-3.982l-2.111 2.058m6.476-6.213s3.473.61 4.382 2.754l-.337-2.754-3.376-1.891-.669 1.89z" fill="#871212"/><path d="M49.17 36.018l-.067-.677c-.007-.09-.792-9.333 9.888-15.022 10.627-5.66 16.38-11.335 16.996-12.142.105-.133.224-.331.364-.555.588-.952 1.4-2.259 2.52-2.259.442 0 .86.206 1.242.614 1.838 1.956 1.45 8.626.12 14.206-.819 3.453-.053 6.134.69 8.727.556 1.955 1.087 3.798.909 5.837l-.062.7-.637-.29c-.062-.028-6.249-2.802-15.008-2.802a40.631 40.631 0 0 0-16.327 3.392l-.627.271zM78.873 6.353c-.572 0-1.291 1.164-1.683 1.79-.159.255-.297.479-.414.632-.673.885-6.395 6.599-17.318 12.418-8.524 4.538-9.356 11.202-9.387 13.36a41.595 41.595 0 0 1 16.051-3.19c7.405 0 12.905 1.883 14.752 2.612.004-1.608-.441-3.16-.904-4.793-.743-2.59-1.582-5.524-.701-9.229 1.578-6.615 1.29-12.054.12-13.299-.184-.2-.358-.301-.516-.301z"/><path fill="#FFF" stroke="#000" stroke-width=".99" d="M79.545.791c.982 0 1.873.38 2.518.992a3.295 3.295 0 0 1 1.044 2.392c0 .933-.4 1.78-1.044 2.392a3.654 3.654 0 0 1-2.518.992c-.982 0-1.873-.38-2.519-.992a3.295 3.295 0 0 1-1.043-2.392c0-.932.4-1.78 1.043-2.392a3.654 3.654 0 0 1 2.519-.992z"/><path fill="#FFF" d="M48.159 38.046s-1.388-1.481 0-2.752c1.388-1.27 8.965-4.812 17.253-4.715 8.286.098 11.013 1.082 13.139 2.064 2.122.982 6.272 3.536 4.49 5.795 0 0 2.517 4.154.272 4.154-.507 0-2.038-.618-2.038-.618s-12.582-7.072-31.346 0c-.002.002-5.807 2.39-1.77-3.928z"/><path d="M83.586 38.442a2.142 2.142 0 0 0 .283-1.697c-.54-2.253-4.338-4.11-5.092-4.459-2.182-1.008-5.004-2-13.296-2.099l-.344-.002c-8.248 0-15.73 3.493-17.182 4.82-.471.433-.72.936-.742 1.492-.026.662.289 1.232.51 1.549-1.118 1.475-1.473 2.774-1.059 3.865.703 1.843 3.75.328 3.75.328 5.395-2 10.79-3.013 16.044-3.013 8.105 0 13.418 2.449 14.489 2.99 0 0 1.712.764 2.358.744.734-.024 1.04-.51 1.188-1.164.295-1.297-.545-2.784-.907-3.354zm.139 3.178c-.337 1.013-2.196.011-2.196.011-.232-.13-5.79-3.193-15.073-3.193-5.437 0-11.027 1.065-16.606 3.17l-.283.107s-1.788.912-2.17-.087c-.33-.87.05-1.992 1.128-3.335l.214-.267s.584-.742 1.812-1.33c0 0-1.032.007-2.216.847-.154-.228-.356-.598-.34-1.016.016-.344.174-.653.49-.942 1.214-1.113 8.536-4.615 16.648-4.615l.335.002c8.133.097 10.867 1.055 12.976 2.027 2.081.96 4.328 2.548 4.657 3.926.089.36.004.693-.174 1.018-1.113-.725-2.065-.735-2.065-.735 1.23.588 1.813 1.333 1.813 1.333l.02-.002.093.13c.34.468 1.277 1.933.937 2.95z"/><path fill="#871212" d="M19.02 137.579c-.233-.054-1.005-.275-1.09-.88-.088-.603.554-.957.766-1.076.204-.06 3.581-.533 6.999-2.861a31.48 31.48 0 0 1-.937-.81c-1.43 1.346-5.328 2.758-8.375 3.031-.41-.083-1.168-.344-1.222-.952-.053-.608.608-.93.824-1.036.206-.05 3.667-.342 7.239-2.538a22.302 22.302 0 0 1-.974-1.105c-1.297 1.204-5.457 2.485-8.623 2.596-.406-.107-1.148-.408-1.168-1.02-.02-.61.657-.893.879-.986.214-.04 3.865-.134 7.664-2.29a16.82 16.82 0 0 1-.613-1.032c-1.379.986-5.081 1.871-8.108 1.871-.196 0-.388-.004-.578-.012-.398-.134-1.113-.493-1.09-1.105.026-.61.721-.841.951-.918l.51-.018c.912 0 4.085-.129 7.457-1.76-.146-.43-.251-.816-.323-1.15-1.611.942-4.995 1.7-7.798 1.7-.195 0-.387-.004-.577-.012-.398-.134-1.114-.493-1.09-1.105.03-.601.724-.833.954-.91l.505-.018c.936 0 4.25-.137 7.72-1.889l.09-.046c.208-.54.967-.932 1.3-1.083l.623-.28.07.682c.674 6.621 8.174 12.131 8.25 12.187l.677.49-2.337 1.104-.223-.19c-1.347 1.38-5.156 2.993-8.171 3.427l-.094.014-.087-.02z"/><path d="M20.513 120.617c.707 6.926 8.455 12.537 8.455 12.537l-1.291.61-.369-.313c-.015.027-.015.043-.033.073-.63 1.146-4.814 3.093-8.144 3.574 0 0-1.467-.333-.196-1.04 0 0 3.833-.5 7.577-3.267a29.192 29.192 0 0 1-1.791-1.544c-.022.042-.03.071-.058.119-.689 1.11-4.971 2.827-8.323 3.128 0 0-1.448-.412-.137-1.05 0 0 3.89-.292 7.799-2.892a21.36 21.36 0 0 1-1.768-2.01c-.04.076-.073.153-.14.25-.751 1.07-5.12 2.548-8.487 2.665 0 0-1.42-.491-.077-1.053 0 0 4.013-.072 8.126-2.554l.069-.004a14.902 14.902 0 0 1-1.21-2.07c-.04.062-.067.123-.128.197-.785.952-4.822 2.029-8.104 2.029-.188 0-.375-.004-.557-.012 0 0-1.38-.596 0-1.057 0 0 .123.008.355.008 1.069 0 4.411-.159 7.94-1.94h.013c.024 0 .08.001.149.01-.39-.993-.555-1.806-.618-2.369-.022.026-.028.042-.05.072-.782.952-4.819 2.029-8.102 2.029-.188 0-.374-.004-.556-.012 0 0-1.382-.596 0-1.055 0 0 .123.008.349.008 1.065 0 4.41-.157 7.943-1.943h.004c.02 0 .212.002.382.062.004-.04.004-.062.004-.062-.433-.493.974-1.124.974-1.124m.848-1.465l-1.252.562c-.44.198-1.142.586-1.467 1.168-3.352 1.675-6.54 1.806-7.44 1.806-.179 0-.28-.006-.293-.006l-.187-.01-.182.057c-1.031.345-1.273.933-1.289 1.365-.041.928.92 1.413 1.212 1.538l.166.073.187.008c.194.008.394.012.595.012 2.45 0 5.592-.578 7.479-1.445.012.043.025.09.04.136-3.129 1.412-6.002 1.527-6.851 1.527-.18 0-.285-.006-.3-.006l-.187-.01-.18.057c-1.032.347-1.274.935-1.29 1.367-.039.928.92 1.413 1.212 1.538l.167.073.186.008c.194.008.394.012.598.012 2.657 0 6.131-.681 7.93-1.675.03.052.06.105.092.156-3.51 1.848-6.76 1.939-6.795 1.939l-.19.004-.174.079c-1.004.42-1.198 1.026-1.184 1.457.03.927 1.02 1.34 1.322 1.444l.173.059.184-.006c2.782-.097 6.75-1.154 8.537-2.408.085.101.177.204.268.305-3.27 1.852-6.289 2.109-6.322 2.113l-.186.018-.17.083c-.979.475-1.14 1.09-1.103 1.522.083.925 1.094 1.281 1.401 1.369l.177.05.184-.015c.659-.06 1.382-.176 2.124-.34l-.097.053c-.95.53-1.079 1.152-1.018 1.58.131.919 1.16 1.222 1.473 1.291l.179.042.182-.026c2.704-.39 6.446-1.83 8.131-3.245l.117.099.576-.273 1.291-.61 1.515-.713-1.356-.982c-.074-.054-7.395-5.44-8.047-11.838l-.138-1.362zm-2.497 15.914c2.269-.532 4.657-1.46 5.914-2.433.032.026.061.052.093.077-2.89 1.812-5.591 2.29-6.007 2.356z"/><path fill="#AF2020" d="M66.695 84.323s-12.085-.907-21.243 8.084c-9.157 8.99-5.692 17.984-25.905 28.297 0 0-1.566 6.106 8.498 13.778 0 0 17.19-9.57 21.464-22.852 4.275-13.281 15.913-20.756 22.094-20.797l6.738-.982-11.646-5.528z"/><path d="M24.822 117.839s-.472 8.143 9.03 12.893l2.277-1.859s-8.827-8.745-8.496-12.953l-2.811 1.919zm7.183-5.631s.578 6.269 9.735 11.466l2.722-2.887s-8.929-4.916-10.13-11.349l-2.327 2.77zm4.906-6.593s2.107 6.346 11.676 8.573l1.32-3.548s-10.022-3.146-11.737-7.306l-1.259 2.28zm4.734-8.532s1.703 5.414 11.127 7.423l2.085-2.94s-10.359-4.663-11.45-6.91l-1.762 2.427zm6.059-6.653l11.937 5.855 3.32-2.928s-11.262-5.385-11.95-5.148c-.69.238-3.307 2.222-3.307 2.222zm10.529-4.686l9.836 5.64 4.643-.72-9.804-6.31-4.675 1.39" fill="#871212"/><path d="M28.003 135.072l-.257-.196c-10.209-7.783-8.743-14.033-8.678-14.297l.057-.216.198-.1c12.91-6.586 16.052-12.625 19.097-18.463 1.663-3.198 3.385-6.504 6.686-9.746 7.799-7.656 17.77-8.252 20.639-8.252.633 0 .988.028.988.028l13.3 6.274-8.356 1.218c-6.364.047-17.638 7.85-21.694 20.458-4.287 13.315-20.988 22.74-21.695 23.136l-.285.156zm-8.007-14.041c-.132 1.093-.267 6.379 8.09 12.857 2.232-1.308 17.085-10.392 20.952-22.409 4.36-13.544 16.109-21.098 22.563-21.141l5.057-.74-10.133-4.808c-.02.02-.32.004-.782.002-2.776 0-12.414.576-19.942 7.967-3.19 3.132-4.801 6.225-6.504 9.496-3.099 5.944-6.298 12.09-19.3 18.776z"/><path fill="#AF2020" d="M59.64 87.374s11.47 5.2 22.627 2.847c11.157-2.352 14.745-5.201 18.83-2.847 0 0 2.227-4.206-5.073-7.175 0 0 2.475-5.073-1.485-7.178-.002 0-15.222-6.068-34.898 14.353z"/><path d="M74.765 75.797s5.82 4.136 3.578 15.036h-1.782s1.636-9.249-3.43-14.1l1.634-.936zm6.285-2.528s5.05 4.043 4.102 15.788l2.235-.574s1.087-9.647-3.74-15.895l-2.597.68zm-12.995 6.557s3.713 4.703 2.723 10.61l-1.277-.2s-1.014-8.063-2.808-9.267l1.362-1.143zm26.482-.247c-.135-.337-.297-5.692-1.57-6.991l-2.824-.41s2.861 2.607 2.204 7.14c0 0 3.412 3.02 3.016 6.993h2.08c.002 0 .125-4.628-2.906-6.732z" fill="#871212"/><path d="M101.637 84.319c-.634-1.747-2.3-3.22-4.958-4.382.82-2.043 1.287-5.656-1.956-7.377-.093-.036-2.247-.877-5.971-.877-6.699 0-17.244 2.663-29.468 15.346l-.487.505.64.29c.077.035 7.828 3.502 16.7 3.502 2.182 0 4.277-.208 6.233-.62 3.77-.796 6.69-1.65 9.037-2.336 4.552-1.333 7.015-1.964 9.44-.569l.445.256.24-.454c.032-.057.762-1.47.105-3.284zm-.812 2.352c-2.54-1.22-5.181-.572-9.694.748-2.328.681-5.229 1.53-8.963 2.317-1.887.398-3.918.6-6.029.6-7.177 0-13.61-2.329-15.633-3.138 11.763-11.987 21.837-14.525 28.25-14.525 3.484 0 5.545.784 5.553.784 2.873 1.526 1.94 4.827 1.47 6.055-1.2-.385-4.07-.838-8.047 1.615 0 0 4.154-2.079 8.476-.29 2.382 1.037 3.948 2.34 4.49 3.8.315.852.238 1.584.127 2.034z"/><path fill="#AF2020" d="M40.709 70.794s-2.475-1.857-1.238-4.083c1.238-2.225 3.465-3.182 3.465-2.952 0 .23 21.407 17.841 45.538-.802v-2.536s9.033 4.188 6.063 12.602c0 0-5.417-1.732-10.44 3.713-5.027 5.444-9.482 17.077-47.968 6.062 0 0-3.093-.99-1.485-3.96 1.608-2.97 6.435-5.817 6.065-8.044z"/><path d="M45.258 65.49s-3.375 1.203-1.643 6.688c0 0-.123 3.132-2.598 5.732-2.475 2.6-2.413 4.455-2.847 5.445l3.96.944s.186-3.42 1.794-5.336c1.608-1.917 1.903-4.694 2.065-5.936.162-1.241-1.57-4.211 1.091-6.252l-1.822-1.285zm6.645 3.583c.036-.514-1.196 2.15-.784 5.65.414 3.498-1.69 5.285-2.495 7.608-.804 2.322-.92 3.322-.92 3.322l2.884.553s1.372-5.017 2.56-7.08c1.188-2.064.53-4.08.53-6.123s.639-2.946.639-2.946l-2.414-.984zm7.737 1.978c0 .157-1.4 3.786-.576 7.415.824 3.63-1.382 8.185-1.382 8.185l2.764.182s1.67-4.197 1.258-7.89c-.412-3.692-.529-4.843.065-7.609l-2.128-.283zm7.611.299s1.858 5.198.31 9.839c0 0 1.362 2.75-.868 5.644h1.483s2.168-1.855 1.548-5.326c0 0 2.52-2.239.113-10.155h-2.586zm8.14-1.404s3.758 4.725 1.988 11.118c0 0 .453.948-.414 2.639l2.146-1.443s.503-1.125.373-1.527c-.131-.402 2.296-3.611-1.283-11.725l-2.81.938zm8.67-3.896s3.507 2.516 2.641 8.498l2.186-1.238s0-6.229-3.011-8.331L84.06 66.05zm4.909-2.853s5.805 1.825 5.317 8.98l.028.765s4.103-6.686-5.839-12.337l.493 2.592z" fill="#871212"/><path d="M88.682 59.97l-.703-.327v3.067c-7.2 5.508-14.857 8.302-22.759 8.302-12.384 0-20.896-6.72-21.815-7.49l-.033-.295h-.495c-.592 0-2.67 1.136-3.84 3.24-1.059 1.91.187 3.701 1.15 4.537l-.015.043c.018.014.038.022.055.036-.035 1.018-1.439 2.4-2.801 3.74-1.23 1.21-2.5 2.46-3.216 3.78-.56 1.031-.673 1.978-.336 2.813.536 1.339 2.041 1.834 2.118 1.857 10.656 3.05 19.594 4.596 26.567 4.596 12.967 0 17.285-5.253 20.437-9.088.503-.61.978-1.19 1.461-1.71 2.909-3.153 5.936-3.816 7.961-3.816 1.192 0 1.96.238 1.968.24l.456.144.158-.451c3.087-8.74-6.225-13.175-6.318-13.218zm5.53 12.463c-1.512-.305-6.223-.65-10.48 3.964-.495.535-.982 1.129-1.496 1.754a60.24 60.24 0 0 1-1.505 1.772c-9.037 2.982-17.936-.097-17.936-.097 6.284 3.576 14.192 1.998 16.764 1.339-3.051 2.997-7.633 5.714-17 5.714-6.88 0-15.727-1.533-26.276-4.552-.011-.004-1.132-.38-1.492-1.287-.218-.546-.121-1.208.289-1.966.643-1.19 1.86-2.388 3.039-3.544 1.372-1.35 2.669-2.64 3.005-3.89 2.802 1.54 6.142 1.443 6.142 1.443-3.496-.873-5.263-1.88-6.09-2.49l-.012-.076-.158-.12c-.086-.064-2.111-1.629-1.103-3.446.954-1.72 2.518-2.584 2.914-2.717 1.905 1.818 10.838 7.768 22.401 7.768 8.197 0 16.125-2.913 23.56-8.657l.19-.148V61.24c1.973 1.136 7.204 4.835 5.244 11.192z"/></svg>