<svg width="119" height="188" xmlns="http://www.w3.org/2000/svg"><path fill="#FF9248" d="M78.74 176.956c1.141-1.03 4.24-3.247 8.897-2.31 2.102.423 4.272 1.452 6.45 3.066.081-.962.414-2.493 1.63-3.584 1.184-1.059 2.906-1.445 5.132-1.156l-17.54-14.291c-.006 0-1.994-1.303-4.142-1.736-1.82-.367-3.2-.004-4.093 1.073-2.09 2.51 1.74 13.986 3.667 18.938z"/><path fill="#E87528" d="M91.674 176.1s-18.45-31.124-12.749.137c-.002.002 5.522-4.01 12.749-.137z"/><path fill="#E87528" d="M99.601 172.47s-4.047.453-5.446 4.127c0 0-25.217-29.093 5.446-4.128z"/><path d="M79.081 157.368c2.073.416 4.002 1.685 4.026 1.697l16.415 13.383c-1.703-.008-3.075.447-4.096 1.36-1.038.934-1.481 2.156-1.667 3.14-2.034-1.416-4.061-2.329-6.035-2.724-4.3-.866-7.33.863-8.801 2.015-2.417-6.312-5.231-15.895-3.518-17.942.8-.96 2.005-1.265 3.676-.929m.17-.845c-1.613-.323-3.336-.19-4.508 1.22-2.823 3.391 3.84 19.979 3.84 19.979s3.292-3.794 8.97-2.653c2.028.408 4.356 1.443 6.954 3.506 0 0-.588-6.587 7.175-5.027.252.05.503.107.77.175l-18.868-15.375s-2.057-1.368-4.332-1.825z"/><path fill="#B7B7B7" d="M80.46 181.696s.742 3.01 6.751 4.878l-.618 5.263s-10.905-5.566-13.038-18.455l.723-3.592-1.037-4.57-1.184 4.123s-.513-3.615-1.097-4.752c-.487-.948-1.796-.635-1.1 4.312.235 1.644 1.585 27.551 26.12 27.351l-5.894-3.2 2.631-6.264s6.352-.138 6.146-5.68c.004 0-6.368 6.306-18.404.586z"/><path d="M89.773 196.124c-16.2-3.257-19.59-19.802-20.296-26.767l-.042-.396c-.263-1.851-.404-4.215.41-4.986.455-.433 1.158-.247 1.499.42.325.624.614 1.907.823 3.002l.66-2.293.835.022 1.042 4.75-.723 3.59c1.8 10.73 10.044 16.346 12.26 17.676l.5-4.265c-5.86-1.926-6.668-4.946-6.701-5.074l-.218-.883.822.392c1.981.94 3.932 1.607 5.803 1.982 7.864 1.582 12.077-2.448 12.115-2.487l.699-.69.037.977c.06 1.623-.403 2.976-1.382 4.011-1.593 1.691-4.064 2.03-4.898 2.099l-2.382 5.66 5.35 3.822c-2.184.016-4.273-.17-6.213-.562zm-19.36-31.53c.014.017-.641.593-.126 4.246l.045.432c.691 6.773 3.976 22.866 19.61 26.008 1.358.275 1.942.396 3.433.463l-3.842-2.496 2.897-6.883.281-.005c.028-.004 2.925-.094 4.58-1.85.62-.663.992-1.487 1.11-2.463-1.607 1.16-5.682 3.386-12.128 2.091-1.56-.31-3.176-.824-4.814-1.519.747.978 2.386 2.458 5.879 3.544l.342.105-.732 6.237-.55-.283c-.114-.055-11.122-5.815-13.266-18.77l.705-3.655-.646-2.845-.534 1.86-.697 1.72c-.139-.986-.935-4.867-1.384-5.744-.076-.138-.143-.186-.163-.194z"/><path fill="#FFF" d="M73.009 163.783s2.043 14.014 5.635 18.034c3.591 4.019 14.756 4.233 18.902 2.207 4.144-2.025 5.417-9.452 4.065-11.483-1.35-2.032-15.727-12.817-15.727-12.817s-7.466-7.61-12.28-2.2c-.001 0-1.328 3.357-.595 6.26z"/><path d="M84.831 185.202c-2.083-.418-4.9-1.297-6.508-3.096-3.631-4.073-5.657-17.683-5.74-18.26-.746-2.96.563-6.337.618-6.478 1.647-1.887 3.623-2.538 5.968-2.067 3.664.735 6.888 3.988 7.024 4.124.537.398 14.4 10.809 15.78 12.88.739 1.11.784 3.504.123 5.958-.802 2.944-2.39 5.187-4.358 6.151-2.801 1.364-8.35 1.705-12.907.788zm-10.901-27.39c.025.004-1.182 3.178-.503 5.868.027.18 2.073 13.973 5.54 17.851 1.148 1.287 3.233 2.263 6.034 2.828 4.325.869 9.75.55 12.355-.719 1.75-.855 3.172-2.897 3.903-5.601.586-2.158.584-4.368-.006-5.257-1.077-1.616-11.646-9.721-15.63-12.71-.08-.072-3.225-3.242-6.627-3.923-2.017-.41-3.724.15-5.066 1.663z"/><path d="M89.698 162.68s-6.372-2.18-9.442 1.054c0 0-1.543 1.667.59 1.988 2.138.32 1.892-3.445 10.756-1.564l-1.904-1.477zm5.104 3.634s-7.464-2.735-11.218 1.784c0 0-1.893 2.332.621 2.686 2.519.353 2.37-4.763 12.797-2.534l-2.2-1.936z" stroke-width=".495" fill="#5BDDDD" stroke="#000"/><path fill="#FF9248" d="M26.197 175.918c-.467-1.46-2.023-4.938-6.52-6.476-2.033-.697-4.42-.897-7.117-.602.415-.871.899-2.358.396-3.916-.487-1.513-1.782-2.715-3.85-3.584l22.35-3.51c.006.002 2.378-.123 4.453.586 1.756.602 2.764 1.607 2.998 2.99.542 3.223-8.548 11.208-12.71 14.512z"/><path fill="#E87528" d="M15.46 168.666s31.614-17.594 10.941 6.542c0 0-2.752-6.245-10.94-6.542z"/><path fill="#E87528" d="M10.435 161.54s3.271 2.427 2.63 6.31c.002-.002 36.436-12.436-2.63-6.31z"/><path d="M35.77 158.828c1.614.552 2.503 1.423 2.709 2.653.445 2.631-6.807 9.491-12.08 13.729-.689-1.735-2.433-4.754-6.583-6.172-1.909-.653-4.118-.883-6.587-.687.336-.946.568-2.223.138-3.554-.421-1.303-1.378-2.386-2.853-3.24l20.924-3.288c.026-.004 2.333-.125 4.332.559m.28-.816c-2.194-.75-4.661-.604-4.661-.604l-24.046 3.776c.263.075.512.154.752.235 7.496 2.564 3.669 7.962 3.669 7.962 3.282-.476 5.817-.198 7.775.47 5.48 1.874 6.413 6.81 6.413 6.81s14.113-10.975 13.38-15.325c-.305-1.808-1.724-2.792-3.282-3.324z"/><path fill="#B7B7B7" d="M22.327 179.152s-2.156 2.223-8.29.811l-2.117 4.86s12.222.684 20.56-9.378l1.186-3.467 3.197-3.425-1.053 4.16s2.265-2.865 3.342-3.554c.899-.574 1.871.356-1.221 4.278-1.03 1.303-15.246 23.003-36.342 10.472l6.704.206.879-6.74s-5.415-3.318-2.447-8c-.004-.002 2.322 8.654 15.602 9.777z"/><path d="M7.016 186.923c-1.873-.64-3.772-1.53-5.649-2.641l6.546-.61.794-6.089c-.69-.479-2.65-2.015-3.176-4.28-.32-1.386-.042-2.788.828-4.162l.524-.824.256.945c.017.053 1.625 5.656 9.214 8.252 1.806.618 3.827 1.026 6.011 1.208l.907.075-.631.656c-.094.095-2.315 2.294-8.348 1.007l-1.715 3.936c2.584-.033 12.535-.728 19.495-9.091l1.188-3.47 3.289-3.579.732.4-.586 2.314c.733-.839 1.63-1.8 2.225-2.177.626-.404 1.329-.21 1.503.394.317 1.073-.996 3.045-2.154 4.512l-.236.319c-4.12 5.666-15.384 18.25-31.017 12.905zm32.603-17.489c-.017-.002-.105.004-.237.09-.834.53-3.473 3.484-4.09 4.262l.267-1.837.475-1.873-1.99 2.128-1.23 3.514c-8.377 10.112-20.793 9.54-20.914 9.534l-.62-.036 2.51-5.756.352.08c3.562.82 5.726.37 6.86-.1-1.762-.223-3.415-.597-4.924-1.112-6.22-2.127-8.62-6.104-9.422-7.914-.39.901-.484 1.8-.282 2.687.543 2.35 3.002 3.885 3.026 3.902l.237.147-.964 7.403-4.578.224c1.32.693 1.887.883 3.198 1.33 15.09 5.16 26.032-7.086 30.04-12.59l.259-.349c2.287-2.896 2.008-3.726 2.027-3.734z"/><path fill="#FFF" d="M37.788 167.428s-8.827 11.076-13.953 12.741c-5.128 1.665-14.879-3.775-17.443-7.613-2.56-3.837.085-10.895 2.273-11.97 2.19-1.073 20.043-3.148 20.043-3.148s10.28-2.816 11.717 4.284c.002.002-.544 3.568-2.637 5.706z"/><path d="M16.785 179.977c-4.402-1.505-9.023-4.591-10.753-7.183-1.216-1.826-1.457-4.562-.665-7.508.66-2.455 1.91-4.5 3.108-5.086 2.231-1.095 19.449-3.103 20.118-3.176.184-.05 4.607-1.236 8.144-.028 2.26.774 3.643 2.334 4.11 4.794-.022.148-.59 3.73-2.726 5.908-.365.455-8.968 11.194-14.155 12.881-2.295.747-5.17.085-7.181-.602.002 0 .002 0 0 0zm23.217-18.17c-.4-1.984-1.594-3.328-3.54-3.995-3.283-1.12-7.596.034-7.705.053-4.943.576-18.16 2.253-19.902 3.107-.954.473-2.07 2.382-2.653 4.54-.728 2.706-.53 5.185.55 6.807 1.61 2.411 6.14 5.417 10.312 6.844h.002c2.7.925 4.995 1.129 6.635.598 4.948-1.607 13.661-12.491 13.778-12.632 1.938-1.983 2.497-5.332 2.523-5.322z"/><path d="M23.926 158.071s6.6 1.327 7.625 5.665c0 0 .495 2.217-1.512 1.42-2.006-.8.102-3.929-8.504-6.77l2.391-.315zm-6.24.566s7.824 1.398 8.79 7.194c0 0 .462 2.966-1.89 2.005-2.352-.96.352-5.306-9.777-8.632l2.877-.567z" stroke-width=".495" fill="#5BDDDD" stroke="#000"/><path fill="#303A82" stroke="#000" stroke-width=".99" d="M35.273 78.874S12.972 68.852 9.588 63.724C6.202 58.597 1.038 54.34.19 60.868c-.845 6.53.305 27.71 17.788 41.229.002 0 21.605-6.202 17.294-23.223zM89.771 83.8s18.542 15.937 24.624 16.822c6.079.883 12.126 3.753 6.576 7.294-5.554 3.536-25.215 11.491-44.881 1.401 0 0-3.56-22.189 13.681-25.517z"/><path fill="#303A82" d="M97.53 107.252c-2.514-27.442-16.326-26.077-17.859-37.37-1.534-11.294-1.31-36.958-22.959-36.733-21.646.226-21.78 26.07-23.076 37.391-1.297 11.322-15.095 10.38-17.035 37.867-1.94 27.487 9.868 43.25 13.457 49.126 3.59 5.88 11.502 2.964 12.537.887 1.036-2.077 3.402-6.875 3.402-6.875 2.68 2.33 10.717 2.63 11.695 2.644 0 0 9.108-.291 11.741-2.68 0 0 2.463 4.749 3.542 6.804 1.083 2.057 9.049 4.807 12.517-1.145 3.465-5.951 14.555-22.48 12.038-49.916z"/><path d="M98.025 107.207C96.46 90.146 90.61 84.137 85.906 79.31c-2.892-2.968-5.177-5.313-5.742-9.494-.178-1.309-.332-2.812-.499-4.445-1.257-12.236-3.355-32.717-22.668-32.717l-.287.002C36.68 32.864 34.691 54.17 33.503 66.9c-.122 1.305-.235 2.51-.36 3.588-.48 4.193-2.707 6.603-5.53 9.656-4.587 4.964-10.298 11.143-11.507 28.232-1.792 25.369 8.21 41.06 12.485 47.76.394.62.749 1.174 1.044 1.659 1.87 3.069 4.69 3.712 6.723 3.712 3.093 0 6.002-1.508 6.679-2.86.823-1.654 2.49-5.03 3.136-6.34 3.388 2.245 11.426 2.382 11.531 2.384.36-.012 8.306-.292 11.52-2.398v.014c.015-.008.031-.024.04-.032.674 1.295 2.407 4.639 3.268 6.274.693 1.317 3.484 2.725 6.536 2.725 2.97 0 5.399-1.366 6.848-3.85l.723-1.223c4.12-6.914 13.76-23.096 11.386-48.993zM85.793 155.69l-.726 1.232c-1.62 2.776-4.154 3.358-5.994 3.358-2.75 0-5.189-1.299-5.656-2.194-.925-1.758-2.85-5.465-3.392-6.504.925-1.077 1.863-2.833 1.863-2.833l-2.3 1.988-.012-.022-.475.431c-2.467 2.238-11.336 2.549-11.4 2.55-.086-.001-8.69-.184-11.38-2.52l-.485-.422-2.32-2.005s.962 1.794 1.895 2.867c-.511 1.035-2.366 4.803-3.257 6.585-.472.942-2.962 2.312-5.794 2.312-1.78 0-4.247-.562-5.88-3.237-.299-.49-.655-1.05-1.055-1.677-4.22-6.619-14.101-22.116-12.331-47.158 1.184-16.742 6.763-22.777 11.246-27.63 2.83-3.059 5.27-5.7 5.789-10.216.123-1.081.236-2.297.36-3.608 1.157-12.396 3.093-33.146 22.231-33.346l.277-.002c18.42 0 20.384 19.154 21.682 31.83.167 1.645.325 3.158.503 4.476.612 4.507 3.117 7.077 6.013 10.053 4.594 4.716 10.314 10.584 11.844 27.295 2.343 25.58-7.177 41.569-11.246 48.397z"/><path fill="#FFF" d="M78.349 74.336c-2.804-4.455-3.457-5.067-3.38-7.013 1.733-44.218-17.657-20.617-17.657-20.617S35.51 24.673 38.792 67.159c.148 1.926-.073 2.722-2.877 7.177-2.808 4.455-16.338 23.595-11.222 42.404 5.116 18.81 24.341 25.03 32.259 25.066 7.209.034 27.503-6.256 32.62-25.066 5.115-18.81-8.416-37.95-11.223-42.404z"/><path fill="#FFF" stroke="#000" stroke-width=".495" d="M46.257 45.654c1.142.203 2.036 1.196 2.552 2.638.52 1.442.663 3.331.31 5.326-.354 1.994-1.138 3.72-2.12 4.894-.982 1.178-2.162 1.803-3.305 1.6-1.142-.202-2.036-1.195-2.552-2.638-.52-1.44-.663-3.33-.31-5.325.354-1.994 1.138-3.72 2.12-4.895.982-1.177 2.162-1.802 3.305-1.6z"/><path fill="#5BDDDD" stroke="#000" stroke-width=".495" d="M45.108 50.274c.922.108 1.692.756 2.194 1.715.501.96.731 2.233.573 3.588-.159 1.355-.676 2.54-1.385 3.358-.71.818-1.608 1.271-2.53 1.163-.923-.107-1.692-.756-2.194-1.715-.502-.96-.732-2.233-.573-3.587.158-1.355.675-2.54 1.385-3.359.71-.818 1.608-1.27 2.53-1.163z"/><path d="M44.868 52.231c.584.067 1.07.496 1.384 1.134.315.638.456 1.488.352 2.393-.104.904-.435 1.7-.887 2.249-.452.55-1.021.857-1.606.79-.584-.068-1.068-.496-1.383-1.135-.316-.638-.457-1.487-.353-2.392.105-.905.436-1.7.888-2.25s1.021-.856 1.605-.789z"/><path fill="#FFF" d="M43.516 51.539c.323 0 .614.13.824.343.211.21.342.5.342.823 0 .323-.13.614-.342.824-.21.212-.501.342-.824.342-.323 0-.614-.13-.824-.342a1.154 1.154 0 0 1-.342-.824c0-.323.13-.614.342-.823.21-.212.501-.343.824-.343z"/><path fill="#FFF" stroke="#000" stroke-width=".495" d="M67.912 44.41c1.153-.148 2.3.533 3.226 1.755.925 1.22 1.627 2.98 1.885 4.99.259 2.008.026 3.889-.56 5.304-.587 1.417-1.525 2.366-2.678 2.514-1.152.148-2.3-.533-3.226-1.755-.925-1.22-1.627-2.98-1.885-4.99-.259-2.008-.025-3.889.561-5.304.586-1.416 1.524-2.366 2.677-2.514z"/><path fill="#5BDDDD" stroke="#000" stroke-width=".495" d="M68.134 49.275c.912-.173 1.842.215 2.608.981.765.766 1.365 1.912 1.619 3.252.253 1.34.114 2.626-.319 3.619-.432.993-1.156 1.694-2.068 1.866-.913.173-1.843-.215-2.608-.98-.766-.767-1.365-1.913-1.62-3.253-.253-1.34-.114-2.626.32-3.619.432-.992 1.155-1.693 2.068-1.866z"/><path d="M68.455 51.183c.578-.11 1.168.154 1.66.67.491.514.88 1.283 1.05 2.177.17.895.093 1.752-.175 2.412-.267.66-.719 1.123-1.296 1.233-.578.11-1.169-.154-1.66-.669-.491-.515-.88-1.283-1.05-2.178-.171-.895-.093-1.752.174-2.412.268-.66.72-1.123 1.297-1.233z"/><path fill="#FFF" d="M67.3 51.147c.324 0 .615.13.824.343.212.21.343.5.343.823 0 .323-.13.614-.343.824-.21.212-.5.342-.823.342-.323 0-.614-.13-.824-.342a1.154 1.154 0 0 1-.342-.824c0-.323.13-.614.342-.823.21-.212.501-.343.824-.343z"/><path fill="#DD5900" stroke="#000" stroke-width=".495" d="M63.41 60.415c-2.386 2.156-6.145 5.07-12.184.329h-.038s-.051 4.698 6.077 4.742c5.89.043 6.316-4.49 6.145-5.07z"/><path fill="#FF822E" d="M57.312 63.753c3.423-.043 5.904-3.05 7.142-3.669.503-.247.778-.423.778-.423-2.228-1.204-1.814-1.519-4.208-3.224-2.393-1.704-5.308-1.045-6.93 0-1.67 1.077-4.702 3.647-4.702 3.647.303.145.638.187.897.38 1.745 1.31 4.972 3.317 7.023 3.29z"/><path d="M65.325 58.625c.186.35.19.697.174.9l-.146-.08c-1.222-.66-1.616-1.032-2.164-1.55-.424-.4-.953-.9-2.02-1.658-2.05-1.459-5.083-1.376-7.209-.006-1.495.965-4.001 3.056-4.59 3.549-.01-.208.008-.521.177-.84 0 0-1.857.705-1.547 2.782l1.517-1.325c.054.02.109.044.162.062.175.057.337.11.462.206C52.196 62.203 55.295 64 57.272 64h.044c2.576-.034 4.645-1.695 6.011-2.796.497-.398.927-.742 1.24-.899.328-.164.522-.275.649-.348l1.655 1.447c.311-2.075-1.546-2.78-1.546-2.78zm-.978 1.24c-.365.18-.788.522-1.33.956-1.393 1.12-3.303 2.655-5.707 2.685l-.04.247v-.247c-1.855 0-4.838-1.745-6.832-3.237a1.757 1.757 0 0 0-.505-.24l.016-.014h-.042c-.012-.002-.02-.01-.032-.014.828-.687 3.036-2.504 4.354-3.356 1.956-1.26 4.764-1.352 6.65-.006 1.04.74 1.531 1.204 1.967 1.614.493.465.895.843 1.88 1.41-.104.06-.233.126-.38.202z"/><path fill="#AF2020" d="M40.338 35.29s-.883-8.94 9.627-14.537c10.511-5.6 16.354-11.226 17.158-12.281.611-.802 1.898-3.735 3.367-2.16 1.478 1.572 1.478 7.563 0 13.752-1.469 6.187 1.988 10.02 1.586 14.638 0 0-14.841-6.78-31.738.588z"/><path d="M41.053 30.574s14.406-7.877 30.556 0l-.847-2.848s-12.44-6.512-28.414.002l-1.295 2.846zm6.278-8.376s13.648-3.781 22.332 1.822l.519-2.317s-9.445-5.351-18.994-2.181l-3.857 2.676zm13.555-7.688s7.116.056 9.4 4.204l.882-2.103s-1.4-4.063-8.411-3.982l-2.11 2.058m6.476-6.215s3.472.61 4.381 2.754l-.336-2.754-3.376-1.89-.67 1.89z" fill="#871212"/><path d="M39.912 36.014l-.067-.677c-.008-.09-.792-9.333 9.888-15.021C60.359 14.655 66.113 8.98 66.729 8.173c.105-.133.223-.331.364-.555.588-.952 1.4-2.259 2.52-2.259.442 0 .86.206 1.242.614 1.837 1.956 1.45 8.626.12 14.206-.82 3.453-.053 6.134.69 8.727.556 1.955 1.087 3.798.908 5.837l-.061.7-.638-.29c-.06-.028-6.248-2.801-15.007-2.801a40.631 40.631 0 0 0-16.327 3.391l-.628.271zM69.613 6.35c-.572 0-1.29 1.164-1.683 1.79-.158.255-.297.48-.413.632-.674.885-6.396 6.599-17.319 12.418-8.523 4.538-9.355 11.202-9.387 13.36a41.595 41.595 0 0 1 16.052-3.19c7.405 0 12.905 1.883 14.752 2.612.004-1.608-.441-3.16-.905-4.793-.742-2.59-1.582-5.524-.7-9.229 1.577-6.615 1.29-12.054.12-13.299-.184-.2-.358-.3-.517-.3z"/><path fill="#FFF" stroke="#000" stroke-width=".99" d="M70.287.787c.982 0 1.873.38 2.518.992a3.295 3.295 0 0 1 1.043 2.392c0 .933-.4 1.78-1.043 2.392a3.654 3.654 0 0 1-2.518.992c-.982 0-1.873-.38-2.519-.992a3.295 3.295 0 0 1-1.043-2.392c0-.932.4-1.78 1.043-2.392a3.654 3.654 0 0 1 2.519-.992z"/><path fill="#FFF" d="M38.9 38.042s-1.387-1.481 0-2.752c1.389-1.27 8.966-4.811 17.254-4.714 8.286.097 11.012 1.08 13.139 2.063 2.122.982 6.272 3.536 4.49 5.795 0 0 2.517 4.154.271 4.154-.506 0-2.037-.618-2.037-.618s-12.582-7.072-31.346 0c-.002.002-5.807 2.39-1.77-3.928z"/><path d="M74.328 38.438a2.142 2.142 0 0 0 .283-1.697c-.54-2.253-4.338-4.11-5.093-4.459-2.182-1.008-5.003-2-13.295-2.099l-.344-.001c-8.249 0-15.731 3.492-17.182 4.819-.471.433-.72.936-.743 1.493-.025.66.29 1.231.511 1.548-1.119 1.475-1.473 2.774-1.06 3.865.704 1.843 3.75.328 3.75.328 5.396-2 10.791-3.013 16.044-3.013 8.106 0 13.418 2.45 14.49 2.99 0 0 1.712.764 2.357.744.735-.024 1.04-.51 1.188-1.164.295-1.297-.542-2.782-.906-3.354zm.138 3.178c-.336 1.013-2.196.012-2.196.012-.231-.131-5.789-3.194-15.073-3.194-5.437 0-11.026 1.065-16.605 3.17l-.284.107s-1.787.912-2.17-.087c-.33-.87.05-1.992 1.129-3.335l.214-.267s.584-.742 1.811-1.33c0 0-1.031.007-2.215.847-.155-.228-.356-.598-.34-1.016.015-.344.174-.653.49-.942 1.214-1.113 8.536-4.615 16.648-4.615l.334.002c8.134.097 10.868 1.055 12.977 2.027 2.08.96 4.328 2.548 4.657 3.926.089.36.003.693-.175 1.018-1.112-.725-2.065-.735-2.065-.735 1.23.588 1.814 1.333 1.814 1.333l.02-.002.093.13c.34.47 1.277 1.933.936 2.95z"/><path fill="#871212" d="M14.466 145.699c-.24-.004-1.04-.06-1.249-.634-.21-.572.345-1.053.527-1.212.186-.1 3.395-1.259 6.262-4.24-.378-.2-.74-.403-1.087-.605-1.132 1.624-4.65 3.8-7.57 4.693h-.023c-.424 0-1.194-.107-1.368-.681-.178-.584.402-1.034.594-1.184.192-.091 3.516-1.09 6.563-3.974a23.036 23.036 0 0 1-1.184-.879c-1.023 1.445-4.827 3.554-7.905 4.314-.42-.022-1.208-.166-1.353-.76-.144-.592.46-1.008.66-1.144.202-.082 3.754-.927 7.028-3.818a16 16 0 0 1-.81-.883c-1.23 1.35-5.068 3.093-8.12 3.606-.413-.05-1.189-.252-1.288-.856-.099-.602.535-.972.742-1.095.21-.065 3.907-.655 7.431-3.375a10.05 10.05 0 0 1-.55-1.058c-1.483 1.35-5.01 2.895-7.85 3.372-.416-.05-1.195-.251-1.294-.855-.1-.6.535-.97.743-1.093.214-.067 4.065-.685 7.656-3.558l.081-.063c.092-.573.753-1.113 1.048-1.327l.554-.404.208.654c2.024 6.34 10.496 10.192 10.58 10.23l.765.342-2.061 1.559-.253-.137c-1.026 1.616-4.428 3.986-7.298 5.033l-.086.034-.093-.002z"/><path d="M12.439 128.792c2.116 6.633 10.85 10.531 10.85 10.531l-1.139.862-.423-.23c-.008.03-.006.045-.016.079-.38 1.251-4.075 4.013-7.235 5.17 0 0-1.504-.024-.406-.978 0 0 3.647-1.28 6.744-4.754a29.319 29.319 0 0 1-2.071-1.145c-.012.044-.014.078-.032.127-.445 1.228-4.284 3.79-7.504 4.774 0 0-1.5-.105-.35-1 0 0 3.746-1.087 7.039-4.433a21.845 21.845 0 0 1-2.143-1.604c-.021.081-.041.164-.087.273-.515 1.2-4.486 3.546-7.755 4.352 0 0-1.491-.19-.293-1.016 0 0 3.914-.895 7.425-4.17l.067-.017a14.852 14.852 0 0 1-1.61-1.776c-.026.07-.041.133-.087.218-.604 1.156-4.74 3.195-8.06 3.756 0 0-1.473-.3-.218-1.036 0 0 3.968-.596 7.718-3.595 0 0 .067-.018.162-.026-.586-.89-.915-1.653-1.09-2.19-.017.03-.019.048-.035.081-.603 1.156-4.738 3.196-8.058 3.754 0 0-1.477-.297-.218-1.031 0 0 3.968-.6 7.716-3.598 0 0 .123-.028.265-.028a.88.88 0 0 1 .125.008c-.004-.04-.01-.061-.01-.061-.518-.388.729-1.297.729-1.297m.525-1.61l-1.11.808c-.387.285-.995.81-1.195 1.443-3.465 2.75-7.16 3.347-7.197 3.353l-.186.03-.163.096c-.94.549-1.053 1.174-.982 1.602.153.915 1.19 1.194 1.503 1.257l.178.038.18-.032c2.473-.416 5.798-1.732 7.605-3.069.022.042.046.087.07.129-3.305 2.417-6.647 2.954-6.683 2.96l-.186.03-.164.095c-.938.55-1.051 1.176-.98 1.603.152.915 1.188 1.196 1.5 1.26l.18.037.183-.031c2.665-.452 6.322-1.947 8.003-3.384l.125.137c-3.071 2.544-6.215 3.286-6.249 3.294l-.186.042-.157.105c-.894.617-.962 1.249-.859 1.67.22.902 1.273 1.104 1.59 1.143l.182.024.178-.044c2.703-.667 6.368-2.516 7.86-4.11l.327.244c-2.833 2.498-5.72 3.358-5.751 3.365l-.182.054-.15.117c-.86.669-.89 1.303-.763 1.716.27.887 1.332 1.03 1.651 1.052l.182.012.174-.052a17.3 17.3 0 0 0 2.008-.768l-.083.071c-.822.713-.816 1.348-.667 1.754.319.872 1.386.955 1.706.96l.185.003.172-.062c2.566-.94 5.932-3.116 7.292-4.847l.133.072.508-.383 1.139-.86 1.336-1.01-1.528-.686c-.083-.04-8.357-3.805-10.312-9.93l-.417-1.308zm.847 16.083c2.105-.986 4.243-2.384 5.273-3.593.035.022.07.041.104.06-2.425 2.337-4.934 3.363-5.377 3.533z"/><path fill="#AF2020" d="M50.168 83.778S38.156 85.374 31.042 96.06c-7.112 10.682-1.873 18.768-19.532 33.017 0 0-.277 6.298 11.15 11.737 0 0 14.853-12.901 16.304-26.776C40.417 100.16 50.269 90.453 56.31 89.14l6.393-2.346-12.535-3.016z"/><path d="M16.082 125.189s1.214 8.066 11.488 10.76l1.847-2.288s-10.436-6.742-10.977-10.93l-2.358 2.458zm5.872-6.989s1.856 6.014 11.886 9.218l2.071-3.386s-9.75-2.976-12.25-9.024l-1.707 3.191zm3.446-7.461s3.367 5.777 13.19 5.99l.562-3.747s-10.456-1.017-12.988-4.738l-.764 2.495zm2.878-9.322s2.78 4.948 12.417 4.976l1.435-3.306s-11.096-2.434-12.626-4.41l-1.226 2.74zm4.56-7.755l12.888 3.273 2.645-3.548s-12.127-2.954-12.753-2.58c-.628.374-2.78 2.855-2.78 2.855zm9.342-6.755l10.786 3.498 4.396-1.66-10.892-4.157-4.29 2.319" fill="#871212"/><path d="M22.739 141.398l-.292-.136c-11.59-5.518-11.442-11.935-11.432-12.207l.012-.223.172-.139c11.278-9.1 13.114-15.655 14.892-21.995.97-3.47 1.975-7.059 4.538-10.911 6.058-9.098 15.692-11.732 18.5-12.322.62-.13.972-.176.972-.176l14.31 3.406-7.929 2.91c-6.217 1.356-15.647 11.31-17.023 24.482-1.457 13.911-15.861 26.57-16.473 27.101l-.247.21zm-10.722-12.093c.093 1.097 1.05 6.298 10.561 10.92 1.915-1.741 14.582-13.684 15.895-26.239 1.481-14.15 11.426-23.961 17.732-25.33l4.796-1.763-10.904-2.62c-.014.024-.313.07-.764.163-2.719.572-12.03 3.116-17.877 11.899-2.477 3.722-3.42 7.078-4.413 10.63-1.808 6.449-3.677 13.121-15.026 22.34z"/><path fill="#AF2020" d="M50.382 87.37s11.47 5.2 22.627 2.847c11.157-2.352 14.745-5.201 18.83-2.847 0 0 2.227-4.206-5.073-7.175 0 0 2.474-5.073-1.485-7.178-.002 0-15.222-6.068-34.899 14.353z"/><path d="M65.507 75.793s5.819 4.136 3.578 15.036h-1.782s1.635-9.248-3.43-14.1l1.634-.936zm6.284-2.528s5.051 4.043 4.103 15.788l2.235-.574s1.087-9.647-3.74-15.895l-2.598.68zm-12.994 6.557s3.712 4.703 2.722 10.61l-1.277-.2s-1.013-8.063-2.807-9.267l1.362-1.143zm26.482-.247c-.135-.337-.297-5.692-1.57-6.991l-2.824-.41s2.861 2.607 2.204 7.14c0 0 3.411 3.02 3.015 6.993h2.081c.002 0 .125-4.627-2.906-6.732z" fill="#871212"/><path d="M92.379 84.315c-.634-1.746-2.301-3.22-4.958-4.382.82-2.043 1.287-5.656-1.956-7.377-.093-.036-2.248-.877-5.972-.877-6.698 0-17.243 2.663-29.467 15.346l-.487.505.64.29c.077.035 7.828 3.502 16.7 3.502 2.182 0 4.277-.208 6.233-.62 3.77-.796 6.69-1.65 9.036-2.336 4.552-1.333 7.015-1.964 9.44-.568l.446.255.24-.453c.031-.058.762-1.472.105-3.285zm-.812 2.352c-2.54-1.22-5.182-.572-9.694.748-2.328.681-5.229 1.53-8.963 2.317-1.887.398-3.918.6-6.029.6-7.177 0-13.61-2.329-15.633-3.138 11.762-11.987 21.836-14.525 28.25-14.525 3.484 0 5.545.784 5.553.784 2.873 1.526 1.94 4.827 1.469 6.055-1.196-.385-4.065-.838-8.042 1.613 0 0 4.153-2.079 8.476-.29 2.381 1.037 3.948 2.34 4.49 3.8.313.854.236 1.587.123 2.036z"/><path fill="#AF2020" d="M31.45 70.79s-2.475-1.857-1.237-4.083c1.237-2.225 3.465-3.181 3.465-2.952 0 .23 21.407 17.841 45.538-.802v-2.536s9.032 4.188 6.063 12.602c0 0-5.417-1.732-10.44 3.713-5.028 5.444-9.482 17.077-47.968 6.062 0 0-3.093-.99-1.485-3.96 1.607-2.97 6.434-5.817 6.064-8.044z"/><path d="M36.002 65.486s-3.376 1.203-1.643 6.688c0 0-.123 3.132-2.598 5.732-2.475 2.6-2.413 4.455-2.847 5.445l3.96.944s.186-3.42 1.794-5.336c1.607-1.916 1.902-4.694 2.065-5.936.162-1.241-1.57-4.211 1.09-6.252l-1.82-1.285zm6.643 3.584c.035-.515-1.196 2.15-.784 5.648.413 3.499-1.691 5.287-2.495 7.609s-.92 3.322-.92 3.322l2.884.553s1.372-5.017 2.56-7.08c1.188-2.064.529-4.08.529-6.122 0-2.044.64-2.947.64-2.947l-2.414-.984zm7.737 1.977c0 .157-1.4 3.786-.576 7.415.824 3.63-1.382 8.185-1.382 8.185l2.764.182s1.67-4.197 1.257-7.89c-.411-3.692-.528-4.843.066-7.609l-2.129-.283zm7.611.299s1.857 5.198.309 9.839c0 0 1.362 2.75-.867 5.644h1.483s2.168-1.855 1.548-5.326c0 0 2.52-2.239.113-10.155h-2.586zm8.14-1.403s3.758 4.724 1.988 11.117c0 0 .453.948-.414 2.64l2.146-1.444s.503-1.125.372-1.527c-.13-.402 2.297-3.611-1.283-11.725l-2.81.939zm8.67-3.897s3.506 2.516 2.641 8.498l2.186-1.238s0-6.228-3.012-8.331l-1.815 1.071zm4.908-2.853s5.805 1.825 5.318 8.98l.028.765s4.102-6.686-5.839-12.337l.493 2.592z" fill="#871212"/><path d="M79.424 59.966l-.703-.327v3.067c-7.2 5.508-14.857 8.302-22.76 8.302-12.384 0-20.895-6.72-21.814-7.49l-.034-.295h-.495c-.592 0-2.669 1.136-3.839 3.24-1.06 1.91.186 3.701 1.15 4.537l-.015.043c.017.014.037.022.055.036-.036 1.018-1.44 2.4-2.802 3.74-1.23 1.21-2.5 2.46-3.215 3.78-.56 1.031-.673 1.978-.337 2.813.537 1.339 2.042 1.834 2.119 1.857 10.656 3.05 19.593 4.596 26.567 4.596 12.966 0 17.285-5.253 20.437-9.088.502-.61.978-1.19 1.46-1.71 2.91-3.153 5.937-3.816 7.962-3.816 1.192 0 1.96.238 1.968.24l.456.144.158-.451c3.087-8.74-6.225-13.175-6.318-13.218zm5.53 12.463c-1.513-.305-6.223-.65-10.48 3.964-.495.535-.982 1.129-1.497 1.754a60.24 60.24 0 0 1-1.504 1.772c-9.037 2.982-17.937-.097-17.937-.097 6.285 3.576 14.192 1.998 16.764 1.339-3.05 2.997-7.632 5.714-17 5.714-6.88 0-15.726-1.533-26.275-4.552-.012-.004-1.132-.38-1.493-1.287-.218-.546-.12-1.208.29-1.966.643-1.19 1.86-2.388 3.038-3.544 1.373-1.35 2.67-2.64 3.006-3.89 2.802 1.54 6.142 1.443 6.142 1.443-3.497-.873-5.263-1.88-6.09-2.49l-.012-.076-.159-.12c-.085-.064-2.11-1.629-1.103-3.446.955-1.72 2.519-2.584 2.915-2.717 1.905 1.818 10.838 7.768 22.4 7.768 8.198 0 16.125-2.913 23.56-8.657l.19-.148v-1.956c1.974 1.136 7.205 4.835 5.245 11.192z"/></svg>