<svg width="107" height="164" xmlns="http://www.w3.org/2000/svg"><path fill="#F7941E" d="M76.183 137.463c-.177 0-.356-.013-.535-.04-2.081-.313-3.863-1.744-5.33-3.1-3.325-3.08-4.928-6.722-4.764-10.825l.043-1.068 1.422.016c1.91 0 3.59-.18 5.138-.551l.668-.16.437.53c.84 1.02 3.184 1.02 4.066 1.02a25.99 25.99 0 0 0 2.387-.1c.663-.05 1.352-.102 2.053-.102h.107c2.073.013 3.137.689 3.21 2.016a1.52 1.52 0 0 1-.416 1.132c-.45.475-1.153.64-1.914.69a2.835 2.835 0 0 1 1.396 2.587c-.066 1.294-1.084 2.605-2.906 2.605-.23 0-.473-.021-.717-.065-1.145-.2-2.304-.717-3.544-1.576-.041.04-.08.107-.08.145.75.672 1.389 1.444 1.94 2.321.612.983.675 2.06.175 2.96-.54.966-1.624 1.565-2.836 1.565z"/><path d="M72.413 122.964c1.051 1.277 3.208 1.42 4.914 1.42.214 0 .42-.002.618-.005 1.277-.012 2.543-.197 3.822-.197h.099c.646.005 2.066-.013 2.12.975.035.626-1.138.686-1.967.686-.195 0-.37-.003-.506-.003-.089 0-.163.001-.213.006-.876.082-1.226.674-1.024 1.147-.08.008-.156.017-.224.03h.019c.076 0 .152.011.229.016.137.27.459.492.973.545 2.414.246 2.342 3.428-.029 3.428-.166 0-.342-.015-.529-.047-1.147-.201-2.202-.765-3.144-1.423a1.015 1.015 0 0 0-.586-.194c-.902 0-1.64 1.292-.843 2.035.69.645 1.265 1.338 1.768 2.14.964 1.548-.273 2.84-1.726 2.84a2.56 2.56 0 0 1-.37-.028c-1.83-.275-3.443-1.613-4.75-2.822-2.963-2.744-4.567-6.04-4.412-9.972l.366.002c1.873.002 3.668-.166 5.395-.579m.825-2.459l-1.337.32c-1.464.351-3.06.521-4.881.521-.113 0-.228 0-.341-.002l-2.139-.024-.085 2.137c-.176 4.437 1.544 8.365 5.116 11.673 1.592 1.472 3.538 3.026 5.916 3.383.228.034.463.05.697.05 1.61 0 3.066-.815 3.795-2.13.572-1.03.626-2.212.175-3.335a5.399 5.399 0 0 0 1.09.115c2.213 0 3.896-1.534 4.004-3.649a3.865 3.865 0 0 0-.46-2.05c.245-.137.474-.311.678-.528.502-.53.755-1.223.716-1.95-.048-.908-.562-3.033-4.255-3.053h-.159c-.742 0-1.45.052-2.135.105a25.86 25.86 0 0 1-2.302.097c-2.357 0-3.028-.387-3.219-.62l-.874-1.06z"/><path fill="#F7941E" d="M60.604 154.525a4.201 4.201 0 0 1-1.641-.338c-2.362-1.007-3.986-3.172-5.39-5.361-3.033-4.734-3.823-9.603-2.35-14.47l.309-1.023 1.032.28c2.52.686 4.79 1.038 6.938 1.08l.688.015.29.624c.789 1.697 3.896 2.46 5.565 2.872a33.8 33.8 0 0 0 2.223.452c.862.156 1.755.318 2.64.554.918.245 3.521.938 3.072 3.142-.066.321-.404 1.377-2.005 1.377-.791 0-1.72-.25-2.334-.415-.178-.048-.321-.089-.41-.106-.007 0-.015-.002-.02-.003 1.957.727 2.584 2.431 2.339 3.799-.275 1.53-1.561 2.6-3.128 2.6-.583 0-1.19-.142-1.803-.421-1.307-.597-2.538-1.584-3.764-3.017-.065-.076-.1-.076-.126-.076-.132 0-.337.121-.437.3-.072.132-.041.2 0 .265a14.54 14.54 0 0 1 1.6 3.425c.357 1.146.214 2.238-.406 3.08-.627.854-1.705 1.365-2.882 1.365z"/><path d="M52.275 134.675c2.437.662 4.827 1.072 7.207 1.117.989 2.126 4.14 2.946 6.3 3.477 1.602.4 3.246.574 4.843 1 .786.21 2.525.64 2.276 1.86-.076.373-.448.497-.928.497-.907 0-2.195-.445-2.567-.505a2.343 2.343 0 0 0-.372-.032c-.86 0-1.325.54-1.24 1.106a3.839 3.839 0 0 0-.283-.034c.1.023.199.065.298.1.083.372.404.747 1.014.972 2.615.971 1.934 4.268-.402 4.268-.403 0-.854-.099-1.346-.322-1.336-.61-2.444-1.63-3.384-2.731a1.242 1.242 0 0 0-.962-.46c-1.017 0-2.032 1.2-1.365 2.253a13.31 13.31 0 0 1 1.479 3.169c.589 1.878-.734 3.014-2.239 3.014-.4 0-.814-.08-1.207-.25-2.145-.914-3.688-3.057-4.898-4.943-2.745-4.284-3.658-8.812-2.224-13.556m-1.485-2.684l-.62 2.047c-1.57 5.19-.736 10.365 2.477 15.382 1.426 2.227 3.243 4.654 5.886 5.781a5.234 5.234 0 0 0 2.071.426c1.525 0 2.934-.68 3.77-1.818.832-1.131 1.033-2.572.568-4.054a12.734 12.734 0 0 0-.102-.31c.433.286.872.531 1.322.736.759.346 1.518.521 2.26.521 2.108 0 3.839-1.442 4.21-3.505a4.302 4.302 0 0 0-.245-2.387c1.656-.155 2.464-1.23 2.67-2.243.244-1.2.076-3.371-3.804-4.405l-.06-.015c-.932-.25-1.847-.415-2.732-.575-.75-.137-1.461-.264-2.147-.436-1.392-.343-4.272-1.051-4.84-2.27l-.579-1.246-1.373-.026c-2.059-.041-4.24-.381-6.673-1.041l-2.06-.562z"/><path fill="#0062A3" d="M72.88 78.874c-.162 0-.322-.004-.481-.015l-.43-.022-9.01-18.574 1.422.262c.706.13 1.42.195 2.122.195 4.715 0 8.724-2.884 12.97-5.936 4.52-3.25 9.195-6.611 15.053-6.611.648 0 1.305.042 1.957.124 1.962.25 3.081.888 3.422 1.952.676 2.114-2.319 4.88-4.962 7.319-.793.733-1.542 1.425-2.045 1.974-3.023 3.721-5.392 7.394-8.224 12.104-2.136 3.552-7.133 7.228-11.795 7.228z"/><path d="M94.527 48.905c.608 0 1.23.04 1.864.12 7.338.933-1.345 7.088-4.033 10.021-3.178 3.911-5.637 7.777-8.31 12.221-2.097 3.486-6.879 6.874-11.169 6.874-.147 0-.293-.005-.44-.013l-8.19-16.882c.77.141 1.52.207 2.253.207 10.117 0 17.014-12.548 28.025-12.548m0-1.466c-6.095 0-10.866 3.43-15.48 6.749-4.149 2.982-8.066 5.798-12.544 5.798-.657 0-1.327-.061-1.987-.183l-2.85-.523 1.265 2.606 8.189 16.882.377.777.861.048c.174.01.349.014.523.014 5.107 0 10.214-3.907 12.425-7.584 2.806-4.667 5.153-8.308 8.164-12.017.481-.521 1.207-1.192 1.973-1.9 2.94-2.714 5.98-5.522 5.162-8.081-.648-2.025-3.193-2.349-4.028-2.455a16.224 16.224 0 0 0-2.05-.131z"/><path fill="#0062A3" d="M48.03 137.555c-4.792 0-9.88-.944-14.802-1.857-.138-.025-.328-.07-.602-.13a84.877 84.877 0 0 0-1.344-.3c-3.997-.858-7.804-1.31-11.006-1.31-.742 0-1.463.024-2.145.071-.016.002-1.145.064-1.605.064-8.495 0-15.221-9.941-15.34-18.493l.003-.1c.429-5.578 3.647-7.119 6.486-8.477 2.479-1.186 4.619-2.21 5.26-5.808.428-2.407.565-5.228.711-8.214.182-3.734.37-7.594 1.12-11.475.594-3.063 1.325-5.741 2.17-8.844 1.414-5.184 3.015-11.06 4.648-21.088.62-3.808-1.153-7.327-3.031-11.05-2.346-4.655-5.005-9.93-3.34-16.676 4.682-22.13 32.11-22.386 33.275-22.386.536 0 .947.02 1.219.06 1.996.29 4.212 1.262 5.157 1.678l.314.136c3.955 1.64 7.666 5.195 9.526 7.168 1.094 1.16 1.863 2.102 2.06 2.4.33.504.666 1.064 1.027 1.716.014.02.046.076.078.134l.205.386c.396.753.727 1.44 1.011 2.103.038.087.072.18.1.272.179.419.354.84.529 1.264l.055.135.017.146c.475 3.83-.347 10.6-1.661 13.667-1.257 2.936-2.852 4.787-4.258 6.42-4.783 5.557-7.672 8.91 17.315 54.475a29.547 29.547 0 0 1 2.274 5.296l.02.076c1.228 5.21.735 10.434-1.468 15.529-2.091 4.838-5.728 9.512-10.81 13.892-9.743 8.394-17.802 9.047-20.042 9.047-.291 0-.51-.01-.652-.018-.811.06-1.644.091-2.474.091z"/><path d="M48.488 2.581c.332 0 .786.009 1.058.049 2.14.31 4.63 1.5 5.212 1.741 3.59 1.489 7.062 4.697 9.145 6.906 1.085 1.149 1.798 2.032 1.941 2.251a25.4 25.4 0 0 1 .984 1.644c.028.046.055.09.08.137l.194.364c.382.726.7 1.387.972 2.023.03.07.054.141.076.214.185.432.367.867.545 1.304.463 3.72-.367 10.264-1.58 13.1-5.69 13.295-18.953 3.398 13.105 61.855a28.145 28.145 0 0 1 2.187 5.097c1.175 4.977.709 9.944-1.407 14.837-2.026 4.689-5.566 9.228-10.519 13.497-9.455 8.145-17.18 8.78-19.324 8.78h-.001c-.32 0-.54-.014-.656-.022-.787.062-1.617.095-2.472.095-4.705 0-9.76-.94-14.646-1.847-.198-.037-.872-.201-1.872-.416-2.428-.52-6.816-1.334-11.235-1.334-.743 0-1.486.024-2.221.076 0 0-1.086.06-1.53.06-7.856 0-14.128-9.276-14.24-17.408.734-9.532 10.195-5.544 11.732-14.176.968-5.445.478-12.695 1.83-19.673 1.562-8.064 4.198-13.84 6.823-29.963 1.488-9.146-9.266-15.989-6.388-27.64C20.79 2.827 47.36 2.582 48.488 2.582m0-2.2c-1.201 0-29.458.262-34.35 23.258-1.746 7.122 1.005 12.58 3.433 17.397 1.873 3.716 3.49 6.924 2.927 10.38-1.623 9.97-3.216 15.816-4.623 20.974-.852 3.123-1.587 5.821-2.188 8.923-.766 3.96-.965 8.035-1.14 11.631-.144 2.95-.28 5.737-.695 8.076-.541 3.042-2.265 3.865-4.651 5.007-2.798 1.339-6.63 3.172-7.108 9.386l-.008.1.002.1c.127 9.242 7.185 19.577 16.439 19.577.49 0 1.534-.057 1.65-.065a30.713 30.713 0 0 1 2.1-.07c3.127 0 6.852.444 10.774 1.285.555.12 1.007.223 1.33.296.295.068.5.113.6.132l.046.009c4.97.922 10.11 1.876 15.003 1.876.833 0 1.668-.03 2.484-.09.2.012.415.016.643.016 2.336 0 10.732-.672 20.761-9.312 5.21-4.49 8.944-9.3 11.102-14.29 2.299-5.316 2.813-10.77 1.53-16.216l-.019-.078-.024-.077a30.547 30.547 0 0 0-2.357-5.492c-11.878-21.66-17.994-34.736-19.831-42.4-1.512-6.306-.045-8.009 2.385-10.83 1.385-1.609 3.11-3.612 4.434-6.705 1.398-3.265 2.245-10.183 1.742-14.235l-.037-.292-.11-.27a85.65 85.65 0 0 0-.514-1.231 3.643 3.643 0 0 0-.125-.33 29.742 29.742 0 0 0-1.044-2.172l-.195-.368-.012-.022-.013-.022a3.826 3.826 0 0 0-.103-.173 27.03 27.03 0 0 0-1.045-1.742c-.262-.4-1.096-1.404-2.18-2.553-1.921-2.037-5.761-5.711-9.903-7.429-.074-.03-.17-.074-.295-.128-.987-.432-3.298-1.447-5.444-1.757-.113-.02-.482-.075-1.37-.075z"/><path fill="#FFF" d="M48.03 136.455c.854 0 1.685-.034 2.472-.094.115.008.335.02.655.02h.002c2.144 0 9.87-.633 19.324-8.78 4.953-4.269 8.492-8.81 10.518-13.496 2.116-4.894 2.582-9.86 1.407-14.838a28.237 28.237 0 0 0-2.187-5.096C48.161 35.713 61.426 45.61 67.114 32.314c1.214-2.836 2.043-9.378 1.58-13.099-.178-.437-.36-.872-.544-1.304a1.618 1.618 0 0 0-.077-.214 28.085 28.085 0 0 0-.972-2.023l-.193-.364c-.025-.046-.053-.09-.081-.137a25.63 25.63 0 0 0-.984-1.644c-.143-.219-.857-1.102-1.94-2.251C55.3 3.64 39.006-.465 36.403 23.768c-1.51 14.053 22.075 43.436 7.594 52.617-5.58 3.537-17.216 14.271-17.216 25.433 0 11.161 5.3 23.971 4.795 31.57-.018.283-.041.545-.065.804 1 .214 1.674.38 1.872.415 4.887.907 9.942 1.848 14.647 1.848z"/><path fill="#0062A3" stroke="#000" stroke-width="2.2" stroke-linecap="round" stroke-linejoin="round" d="M38.109 70.622s-8.405 15.98-4.473 29.987c3.933 14.008 9.881 22.785 18.184 10.49 10.671-15.801 2.382-39.937-4.868-54.13"/><path fill="#F7941E" d="M65.676 51.609c-5.05 0-13.072-2.894-15.099-9.326-1.58-5.012 2.193-10.284 5.637-13.824l.626-.647c2.201-2.287 4.476-4.653 7.164-4.9a8.31 8.31 0 0 1 .8-.037c2.937 0 5.44 1.44 7.86 2.832 1.777 1.024 3.455 1.988 5.135 2.273 1.455.248 2.819.3 4.02.344 2.875.108 5.591.21 6.662 3.36.346 1.02.208 2.22-.39 3.382-1.116 2.171-3.695 3.96-7.26 5.034-1.736.522-4 .81-6.374.81h-.001c-4.227 0-8.285-.882-11.426-2.484a.372.372 0 0 0-.064-.025c.011.096.041.24.113.435 1.386 3.716 4.987 4.787 7.879 5.647 2.126.632 3.806 1.131 4.215 2.63.177.653.078 1.29-.286 1.84-1.018 1.538-3.757 2.016-7.822 2.57l-.159.022c-.415.045-.816.064-1.23.064z"/><path d="M64.803 23.975c4.74 0 8.575 4.372 12.81 5.09 5.009.852 8.635-.524 9.825 2.973.62 1.827-.92 5.199-6.927 7.01-1.569.472-3.704.763-6.058.763-3.546 0-7.589-.662-10.927-2.364a1.454 1.454 0 0 0-.654-.159c-.704 0-1.339.56-.826 1.934 2.532 6.79 11.409 5.774 12.063 8.18.546 2.008-3.778 2.567-7.353 3.055-.342.034-.703.052-1.08.052-4.815 0-12.248-2.84-14.049-8.556-1.31-4.155 1.617-8.863 5.376-12.726 2.254-2.319 4.59-4.988 7.1-5.22.236-.021.469-.032.7-.032m0-2.2c-.3 0-.603.015-.901.042-3.095.286-5.515 2.8-7.856 5.233a95.1 95.1 0 0 1-.62.644c-5.239 5.384-7.277 10.543-5.897 14.92C51.72 49.579 60.29 52.71 65.676 52.71c.45 0 .89-.02 1.302-.063l.037-.004.038-.005.16-.021c4.362-.596 7.317-1.13 8.59-3.054.536-.81.689-1.783.43-2.736-.569-2.09-2.704-2.724-4.963-3.395-2.025-.601-4.243-1.261-5.768-2.792 2.706.894 5.787 1.373 8.95 1.373 2.481 0 4.857-.304 6.693-.856 4.94-1.49 7.036-3.859 7.924-5.584.734-1.43.896-2.935.452-4.24-1.315-3.865-4.687-3.992-7.662-4.105-1.226-.046-2.492-.093-3.876-.329-1.486-.252-3.082-1.17-4.772-2.142-2.428-1.397-5.178-2.98-8.408-2.98zm-14.235-5.227c.767 0 1.462.4 1.965 1.046.503.645.815 1.537.815 2.52 0 .985-.312 1.876-.815 2.522-.503.646-1.198 1.045-1.965 1.045-.767 0-1.462-.4-1.965-1.045-.503-.646-.814-1.537-.814-2.521s.311-1.876.814-2.521c.503-.646 1.198-1.046 1.965-1.046z"/></svg>