<svg width="123" height="159" viewBox="-2 -2 123 159" xmlns="http://www.w3.org/2000/svg"><path fill="#F7941E" d="M61.6 123.05c-2.555 0-5.923-1.986-6.066-2.07a1.772 1.772 0 0 1-.08-.052c-1.181-.843-5.828-5.906-6.647-7.143a1.159 1.159 0 0 1 .782-1.783c2.994-.48 11.259-1.961 13.516-3.042a69.522 69.522 0 0 0 8.01-4.523c.19-.126.467-.23.695-.23.245 0 .477.078.668.212 4.721 1.01 6.258 3.167 6.1 4.895-.12 1.316-1.353 2.826-4.363 3.169.416.507.75 1.073.954 1.686.369 1.102.47 2.8-1.136 4.63-.823.936-2.019 1.41-3.553 1.41-1.92 0-4.096-.746-5.919-1.636.46 1.453.481 3.023-1.119 4.005-.478.309-1.105.472-1.842.472z"/><path d="M71.81 105.365l-.112.08c7.59 1.4 7.289 5.953 1.188 5.953-.883 0-1.885-.095-3.004-.308 2.31.479 6.27 3.543 3.28 6.946-.64.727-1.59 1.017-2.682 1.017-3.005 0-7.067-2.194-8.58-3.483.611 1.538 3.04 4.73.937 6.02-.331.214-.757.303-1.238.303-1.822 0-4.418-1.28-5.474-1.908-1.041-.742-5.606-5.71-6.353-6.838 0 0 10.93-1.752 13.833-3.142 4.698-2.247 8.198-4.64 8.205-4.64m0-2.316c-.7 0-1.162.307-1.336.424a68.417 68.417 0 0 1-7.867 4.442c-1.897.908-9.103 2.289-13.201 2.945a2.313 2.313 0 0 0-1.564 3.564c.801 1.21 5.581 6.478 6.94 7.446.052.037.106.072.161.105.385.228 3.838 2.233 6.657 2.233.952 0 1.783-.22 2.47-.657 1.349-.835 1.856-1.951 1.918-3.106 1.493.55 3.062.923 4.493.923 2.344 0 3.698-.981 4.422-1.804 1.538-1.752 2.022-3.798 1.366-5.764a5.844 5.844 0 0 0-.202-.518c2.462-.76 3.532-2.402 3.666-3.863.201-2.199-1.509-4.895-6.817-6.09a2.33 2.33 0 0 0-1.106-.28z"/><path fill="#8A8FC6" d="M48.812 113.797c-4.933 0-10.233-.785-15.357-1.544-.792-.117-1.581-.235-2.369-.348a168.626 168.626 0 0 0-4.85-.64l-.74-.084c-.276-.03-1.031-.101-1.031-.101-.314-.03-.625-.06-.934-.085-.314-.026-.626-.047-.936-.07-.335-.022-.67-.041-1.002-.058a47.065 47.065 0 0 0-.847-.038c-.37-.012-.733-.016-1.096-.02l-.707-.005c-.528.005-1.048.02-1.56.048l-.124.005c-.537.03-1.013.045-1.48.045-8.236 0-13.848-4.57-13.966-11.37-.016-.976.085-1.984.302-2.999.975-4.549 3.166-7.27 5.285-9.902.786-.977 1.598-1.985 2.352-3.09 2.56-4.148 3.9-9.659 5.317-15.493 1.638-6.74 3.328-13.7 7.153-18.92-5.631-6.94-8.326-13.69-8.235-20.614.036-2.749.718-5.532 1.538-8.624C20.25 2.078 48.11 1.873 49.293 1.873c.348 0 .824.007 1.11.04 2.243.26 6.391 1.255 7.002 1.456 5.722 1.893 11.185 7.123 11.624 7.656.33.4.666.85 1.03 1.375.032.038.06.075.087.114l.202.305c.4.606.734 1.158 1.02 1.691.031.058.056.118.077.178 2.277 4.242 4.329 8.888 2.794 11.747-1.438 2.682-3.64 4.378-5.58 5.874-6.066 4.674-11.305 8.71 13.303 44.493 4.21 6.124 4.689 12.285 1.42 18.311-2.124 3.918-5.835 7.714-11.028 11.283-9.912 6.81-18.014 7.341-20.262 7.341-.336 0-.567-.012-.688-.018a42.22 42.22 0 0 1-2.592.078z"/><path d="M49.293 3.031c.481 0 .817.014.977.033 2.214.257 6.265 1.238 6.773 1.405 5.498 1.818 10.79 6.924 11.093 7.292.34.414.661.851.973 1.3.027.039.058.074.085.112.064.094.126.19.188.284a20.4 20.4 0 0 1 .966 1.601l-.029-.019c1.233 2.284 4.382 8.089 2.9 10.849-5.799 10.808-24.891 4.052 7.789 51.57 9.02 13.116-2.298 23.165-9.31 27.984-9.6 6.596-17.33 7.137-19.607 7.137-.446 0-.684-.02-.684-.02-.852.054-1.717.08-2.595.08-5.597 0-11.673-1.028-17.56-1.881-1.648-.239-3.28-.46-4.885-.644-.25-.029-.5-.06-.749-.086-.35-.037-.696-.07-1.044-.102-.318-.031-.634-.06-.95-.086a52.512 52.512 0 0 0-1.976-.13 42.463 42.463 0 0 0-.863-.039 42.588 42.588 0 0 0-1.124-.02c-.201-.003-.405-.007-.606-.007h-.123a35.5 35.5 0 0 0-1.61.05c-.06.004-.122.003-.181.007a22.75 22.75 0 0 1-1.361.042c-7.963 0-12.709-4.384-12.809-10.233-.015-.883.076-1.797.276-2.736 1.267-5.908 4.631-8.44 7.461-12.582 5.918-9.58 5.533-25.77 12.993-35.093v-.001c-4.889-5.827-8.66-12.622-8.556-20.572.034-2.65.71-5.365 1.5-8.342C20.748 4.71 43.976 3.03 49.292 3.03m0-2.315c-1.22 0-29.937.213-34.887 18.876-.84 3.167-1.538 6.024-1.576 8.905-.092 6.976 2.51 13.754 7.946 20.674-3.6 5.3-5.24 12.053-6.832 18.603-1.39 5.72-2.703 11.126-5.178 15.158-.72 1.05-1.507 2.027-2.268 2.972C4.295 88.642 2.016 91.472.983 96.29a14.458 14.458 0 0 0-.327 3.26c.128 7.483 6.207 12.51 15.124 12.51.49 0 .995-.016 1.499-.046.07-.001.13-.004.189-.007.47-.026.976-.041 1.483-.046h.104c.122 0 .246 0 .369.003l.216.002c.353.004.707.008 1.066.02.271.01.547.022.822.037a51.353 51.353 0 0 1 1.905.125c.306.025.61.053.917.083l.213.02c.269.025.537.05.807.08.16.017.317.036.475.054l.257.03c1.417.163 2.948.365 4.818.634.785.114 1.575.231 2.365.348 5.166.765 10.508 1.557 15.527 1.557.894 0 1.766-.025 2.595-.076.15.008.382.016.684.016 2.332 0 10.73-.544 20.919-7.544 5.346-3.674 9.179-7.606 11.39-11.685 3.445-6.35 2.931-13.1-1.484-19.52-11.186-16.264-17.094-27.36-18.06-33.923-.73-4.956 1.354-6.563 4.51-8.995 2.034-1.567 4.339-3.343 5.895-6.244 1.786-3.328-.36-8.299-2.755-12.77a2.454 2.454 0 0 0-.117-.25 22.703 22.703 0 0 0-1.073-1.782l-.05-.075c-.052-.08-.106-.162-.16-.241a4.013 4.013 0 0 0-.118-.16c-.374-.539-.722-1-1.062-1.414-.538-.654-6.135-6.03-12.155-8.02-.656-.216-4.874-1.234-7.233-1.508a11.92 11.92 0 0 0-1.245-.047z"/><path fill="#FFF" d="M51.408 112.558s8.808.775 20.29-7.116c7.013-4.819 18.33-14.868 9.31-27.984-32.68-47.518-13.587-40.763-7.787-51.57 1.48-2.76-1.668-8.566-2.901-10.849l.029.019c-.3-.559-.627-1.088-.966-1.6-.063-.096-.124-.191-.188-.285-.027-.04-.058-.074-.085-.113-9.15-3.626-23.163-2.39-28.94 11.391-4.944 11.79 18.675 31.088 3.913 38.55-5.687 2.875-17.55 11.601-17.55 20.673 0 9.073 5.403 19.486 4.889 25.661-.044.522-.103.985-.169 1.423 6.81.986 13.87 2.207 20.155 1.8z"/><path fill="#F7941E" d="M70.894 51.665c-4.958 0-11.142-3.483-14.382-8.101-1.948-2.776-2.545-5.62-1.682-8.006 2.257-6.25 9.453-13.515 15.348-13.515.415 0 .822.037 1.21.111 4.466.768 6.852 2.188 8.957 3.441 1.256.748 2.442 1.454 4.012 2.009 1.795.634 3.331.899 4.686 1.133 2.667.459 4.97.856 5.644 4.097A7.284 7.284 0 0 1 93.6 38.35c-.93 1.385-2.85 3.186-6.719 3.899-.942.173-2.033.261-3.241.261-4.115 0-9.27-1.034-13.105-2.23 2.838 4.587 8.335 5.878 8.603 5.938a1.157 1.157 0 0 1 .722 1.761c-1.226 1.889-3.592 3.068-7.034 3.506a10.01 10.01 0 0 1-1.932.182c.002-.002.001-.002 0-.002z"/><path d="M70.178 23.201c.34 0 .672.03.993.09 6.873 1.182 8.363 3.836 12.8 5.403 5.495 1.941 8.801.612 9.584 4.374.57 2.73-.68 6.898-6.882 8.04-.91.168-1.936.243-3.032.243-5.098 0-11.72-1.622-15.3-3.073 2.38 7.333 10.546 9.067 10.549 9.07-.997 1.534-3.049 2.59-6.25 2.991a8.832 8.832 0 0 1-1.746.168c-7.477 0-17.19-8.432-14.976-14.555 2.24-6.2 9.188-12.751 14.26-12.751m0-2.316c-6.456 0-14.003 7.54-16.437 14.28-.995 2.751-.348 5.97 1.824 9.065 3.493 4.98 9.941 8.593 15.33 8.593.729 0 1.44-.066 2.116-.196 3.775-.488 6.405-1.84 7.82-4.018a2.315 2.315 0 0 0-1.439-3.522c-.179-.04-2.939-.686-5.415-2.672 3.173.737 6.65 1.252 9.664 1.252 1.278 0 2.44-.095 3.452-.28 4.263-.786 6.416-2.823 7.47-4.392a8.448 8.448 0 0 0 1.259-6.4c-.834-4.01-3.887-4.537-6.581-5-1.309-.226-2.794-.482-4.498-1.084-1.461-.516-2.547-1.162-3.805-1.91-2.189-1.304-4.67-2.78-9.356-3.588a7.63 7.63 0 0 0-1.404-.128zm-14.26-.866c.807 0 1.54.42 2.069 1.1.53.68.857 1.618.857 2.654 0 1.036-.328 1.974-.857 2.654-.53.68-1.262 1.1-2.069 1.1-.807 0-1.539-.42-2.068-1.1-.53-.68-.858-1.618-.858-2.654 0-1.036.328-1.974.858-2.654.529-.68 1.26-1.1 2.068-1.1z"/><path fill="#8A8FC6" stroke="#000" stroke-width="2.316" stroke-linecap="round" stroke-linejoin="round" d="M40.198 63.51s-5.39 14.251 0 25.349c5.389 11.097 11.883 17.623 17.672 6.432 7.44-14.383-3.2-33.319-11.58-44.16"/></svg>