<svg version="1.1" width="118" height="188" xmlns="http://www.w3.org/2000/svg" xmlns:xlink="http://www.w3.org/1999/xlink">
  <!-- Exported by Scratch - http://scratch.mit.edu/ -->
  <g id="ID0.3423005910590291" transform="matrix(1.0499999523162842, 0, 0, 1.0499999523162842, 0, 0.25)">
    <g id="ID0.18509940709918737">
      <g id="ID0.34680211497470737">
        <g id="R_Foot_4_">
          <g id="R_Foot_5_">
            <path id="Foot_Fill_6_" fill="#FF9248" d="M 24.613 90.495 C 24.037 89.975 22.472 88.855 20.120 89.328 C 19.058 89.542 17.962 90.062 16.862 90.877 C 16.821 90.391 16.653 89.618 16.039 89.067 C 15.441 88.532 14.571 88.337 13.447 88.483 L 22.306 81.265 C 22.309 81.265 23.313 80.607 24.398 80.388 C 25.317 80.203 26.014 80.386 26.465 80.930 C 27.521 82.198 25.586 87.994 24.613 90.495 L 24.613 90.495 Z " transform="matrix(1.8856488466262817, 0, 0, 1.8856488466262817, -1.3, -1.7)"/>
            <path id="Shadow_12_" fill="#E87528" d="M 18.082 90.063 C 18.082 90.063 27.400 74.343 24.521 90.132 C 24.521 90.132 21.731 88.107 18.082 90.063 Z " transform="matrix(1.8856488466262817, 0, 0, 1.8856488466262817, -1.3, -1.7)"/>
            <path id="Shadow_11_" fill="#E87528" d="M 14.078 88.229 C 14.078 88.229 16.122 88.458 16.829 90.314 C 16.829 90.314 29.564 75.620 14.078 88.229 Z " transform="matrix(1.8856488466262817, 0, 0, 1.8856488466262817, -1.3, -1.7)"/>
            <path id="Outline_26_" d="M 24.441 80.602 C 25.286 80.432 25.894 80.585 26.298 81.070 C 27.162 82.104 25.741 86.944 24.521 90.132 C 23.778 89.550 22.248 88.678 20.076 89.114 C 19.079 89.314 18.055 89.775 17.028 90.490 C 16.934 89.993 16.711 89.376 16.186 88.904 C 15.669 88.443 14.977 88.214 14.117 88.217 L 22.408 81.458 C 22.419 81.453 23.394 80.812 24.441 80.602 M 24.355 80.174 C 23.207 80.405 22.167 81.097 22.167 81.097 L 12.637 88.862 C 12.772 88.828 12.899 88.800 13.026 88.774 C 16.947 87.986 16.650 91.313 16.650 91.313 C 17.962 90.270 19.137 89.748 20.162 89.542 C 23.030 88.966 24.693 90.882 24.693 90.882 C 24.693 90.882 28.058 82.504 26.632 80.791 C 26.040 80.079 25.170 80.011 24.355 80.174 L 24.355 80.174 Z " transform="matrix(1.8856488466262817, 0, 0, 1.8856488466262817, -1.3, -1.7)"/>
          </g>
          <g id="R_Skate_3_">
            <g id="Blade_10_">
              <path id="Blade_11_" fill="#B7B7B7" d="M 23.746 92.889 C 23.746 92.889 23.371 94.409 20.336 95.353 L 20.648 98.011 C 20.648 98.011 26.156 95.200 27.233 88.690 L 26.868 86.876 L 27.392 84.568 L 27.990 86.650 C 27.990 86.650 28.249 84.824 28.544 84.250 C 28.790 83.771 29.451 83.929 29.099 86.428 C 28.981 87.258 28.299 100.343 15.907 100.242 L 18.884 98.626 L 17.555 95.462 C 17.555 95.462 14.347 95.392 14.451 92.593 C 14.449 92.592 17.667 95.778 23.746 92.889 Z " transform="matrix(1.8856488466262817, 0, 0, 1.8856488466262817, -1.3, -1.7)"/>
              <path id="Blade_Outline_5_" d="M 19.042 100.175 C 18.062 100.373 17.007 100.467 15.905 100.459 L 18.607 98.529 L 17.404 95.670 C 16.983 95.636 15.735 95.465 14.930 94.610 C 14.436 94.087 14.201 93.404 14.232 92.584 L 14.251 92.091 L 14.604 92.439 C 14.624 92.459 16.751 94.494 20.723 93.695 C 21.667 93.506 22.653 93.169 23.654 92.694 L 24.069 92.496 L 23.959 92.942 C 23.942 93.007 23.534 94.533 20.574 95.505 L 20.827 97.659 C 21.946 96.987 26.110 94.151 27.019 88.731 L 26.654 86.918 L 27.180 84.519 L 27.602 84.508 L 27.935 85.666 C 28.041 85.113 28.187 84.466 28.351 84.150 C 28.523 83.813 28.877 83.719 29.108 83.938 C 29.519 84.327 29.448 85.521 29.315 86.456 L 29.294 86.656 C 28.935 90.174 27.223 98.531 19.042 100.175 L 19.042 100.175 Z M 28.819 84.250 C 28.809 84.254 28.775 84.278 28.737 84.350 C 28.509 84.793 28.108 86.753 28.038 87.251 L 27.686 86.382 L 27.416 85.443 L 27.090 86.880 L 27.446 88.726 C 26.363 95.270 20.802 98.178 20.746 98.206 L 20.468 98.349 L 20.098 95.199 L 20.271 95.146 C 22.035 94.597 22.863 93.850 23.240 93.356 C 22.414 93.707 21.597 93.965 20.809 94.123 C 17.553 94.777 15.495 93.653 14.683 93.067 C 14.743 93.560 14.930 93.976 15.244 94.311 C 16.081 95.198 17.544 95.243 17.557 95.245 L 17.699 95.248 L 19.162 98.724 L 17.222 99.985 C 17.975 99.951 18.271 99.889 18.956 99.751 C 26.852 98.164 28.512 90.036 28.860 86.615 L 28.883 86.397 C 29.143 84.550 28.812 84.259 28.819 84.250 L 28.819 84.250 Z " transform="matrix(1.8856488466262817, 0, 0, 1.8856488466262817, -1.3, -1.7)"/>
            </g>
            <g id="Boot_10_">
              <g id="Boot_11_">
                <path id="Fill_11_" fill="#FFFFFF" d="M 27.508 83.841 C 27.508 83.841 26.476 90.919 24.662 92.949 C 22.848 94.979 17.209 95.087 15.115 94.064 C 13.022 93.041 12.379 89.290 13.062 88.264 C 13.744 87.238 21.005 81.791 21.005 81.791 C 21.005 81.791 24.776 77.947 27.207 80.680 C 27.208 80.681 27.878 82.375 27.508 83.841 Z " transform="matrix(1.8856488466262817, 0, 0, 1.8856488466262817, -1.3, -1.7)"/>
                <path id="Outline_25_" d="M 21.538 94.660 C 19.235 95.123 16.434 94.951 15.019 94.262 C 14.025 93.775 13.223 92.642 12.818 91.155 C 12.484 89.916 12.507 88.707 12.880 88.146 C 13.576 87.100 20.578 81.842 20.850 81.641 C 20.918 81.572 22.547 79.929 24.398 79.558 C 25.582 79.320 26.580 79.649 27.412 80.602 C 27.440 80.673 28.101 82.379 27.724 83.874 C 27.682 84.165 26.659 91.039 24.825 93.096 C 24.012 94.004 22.589 94.449 21.538 94.660 L 21.538 94.660 L 21.538 94.660 Z M 27.043 80.826 L 27.043 80.826 C 26.364 80.062 25.503 79.779 24.483 79.984 C 22.765 80.329 21.176 81.929 21.136 81.966 C 19.124 83.475 13.786 87.569 13.242 88.385 C 12.944 88.834 12.943 89.950 13.239 91.040 C 13.608 92.406 14.326 93.437 15.210 93.869 C 16.526 94.511 19.267 94.672 21.450 94.232 L 21.450 94.232 C 22.865 93.947 23.918 93.455 24.498 92.804 C 26.249 90.845 27.282 83.879 27.296 83.788 C 27.640 82.431 27.031 80.828 27.043 80.826 L 27.043 80.826 Z " transform="matrix(1.8856488466262817, 0, 0, 1.8856488466262817, -1.3, -1.7)"/>
              </g>
              <g id="Laces_5_">
                <path id="Lace_11_" fill="#5BDDDD" stroke="#000000" stroke-width="0.25" d="M 19.080 83.285 C 19.080 83.285 22.298 82.184 23.849 83.817 C 23.849 83.817 24.628 84.659 23.551 84.821 C 22.471 84.983 22.595 83.081 18.118 84.031 L 19.080 83.285 Z " transform="matrix(1.8856488466262817, 0, 0, 1.8856488466262817, -1.3, -1.7)"/>
                <path id="Lace_10_" fill="#5BDDDD" stroke="#000000" stroke-width="0.25" d="M 16.501 85.120 C 16.501 85.120 20.271 83.739 22.167 86.021 C 22.167 86.021 23.123 87.199 21.853 87.378 C 20.581 87.556 20.656 84.972 15.390 86.098 L 16.501 85.120 Z " transform="matrix(1.8856488466262817, 0, 0, 1.8856488466262817, -1.3, -1.7)"/>
              </g>
            </g>
          </g>
        </g>
        <g id="L_Foot_4_">
          <g id="L_Foot_5_">
            <path id="Foot_Fill_5_" fill="#FF9248" d="M 50.591 89.198 C 50.827 88.460 51.613 86.704 53.884 85.927 C 54.911 85.575 56.117 85.474 57.479 85.623 C 57.269 85.183 57.025 84.432 57.279 83.645 C 57.525 82.881 58.179 82.274 59.223 81.835 L 47.935 80.062 C 47.932 80.063 46.734 80 45.686 80.358 C 44.799 80.662 44.290 81.170 44.172 81.868 C 43.899 83.496 48.490 87.528 50.591 89.198 L 50.591 89.198 Z " transform="matrix(1.8856488466262817, 0, 0, 1.8856488466262817, -1.3, -1.7)"/>
            <path id="Shadow_10_" fill="#E87528" d="M 56.015 85.535 C 56.015 85.535 40.048 76.649 50.489 88.839 C 50.489 88.838 51.878 85.684 56.015 85.535 Z " transform="matrix(1.8856488466262817, 0, 0, 1.8856488466262817, -1.3, -1.7)"/>
            <path id="Shadow_9_" fill="#E87528" d="M 58.552 81.935 C 58.552 81.935 56.900 83.161 57.224 85.122 C 57.224 85.122 38.822 78.841 58.552 81.935 Z " transform="matrix(1.8856488466262817, 0, 0, 1.8856488466262817, -1.3, -1.7)"/>
            <path id="Outline_24_" d="M 45.756 80.565 C 46.767 80.220 47.932 80.282 47.944 80.283 L 58.512 81.944 C 57.767 82.375 57.283 82.922 57.071 83.580 C 56.854 84.252 56.971 84.897 57.141 85.375 C 55.894 85.275 54.778 85.392 53.814 85.722 C 51.718 86.438 50.836 87.963 50.489 88.839 C 47.827 86.699 44.164 83.235 44.388 81.905 C 44.493 81.284 44.941 80.844 45.756 80.565 M 45.616 80.153 C 44.829 80.423 44.112 80.920 43.959 81.833 C 43.589 84.030 50.717 89.573 50.717 89.573 C 50.717 89.573 51.189 87.080 53.956 86.134 C 54.944 85.796 56.225 85.655 57.883 85.896 C 57.883 85.896 55.949 83.170 59.736 81.875 C 59.857 81.834 59.983 81.794 60.116 81.756 L 47.970 79.849 C 47.969 79.848 46.724 79.774 45.616 80.153 L 45.616 80.153 Z " transform="matrix(1.8856488466262817, 0, 0, 1.8856488466262817, -1.3, -1.7)"/>
          </g>
          <g id="L_Skate_2_">
            <g id="Blade_8_">
              <path id="Blade_9_" fill="#B7B7B7" d="M 52.546 90.831 C 52.546 90.831 53.635 91.954 56.733 91.241 L 57.802 93.695 C 57.802 93.695 51.629 94.041 47.418 88.959 L 46.819 87.208 L 45.204 85.478 L 45.736 87.579 C 45.736 87.579 44.592 86.132 44.048 85.784 C 43.594 85.494 43.103 85.964 44.665 87.945 C 45.185 88.603 52.365 99.563 63.020 93.234 L 59.634 93.338 L 59.190 89.934 C 59.190 89.934 61.925 88.258 60.426 85.893 C 60.428 85.891 59.253 90.263 52.546 90.831 Z " transform="matrix(1.8856488466262817, 0, 0, 1.8856488466262817, -1.3, -1.7)"/>
              <path id="Blade_Outline_4_" d="M 60.280 94.755 C 52.384 97.455 46.695 91.099 44.615 88.239 L 44.496 88.078 C 43.911 87.337 43.248 86.341 43.408 85.799 C 43.496 85.493 43.850 85.396 44.167 85.600 C 44.468 85.790 44.921 86.276 45.291 86.700 L 44.995 85.531 L 45.365 85.329 L 47.026 87.137 L 47.626 88.889 C 51.141 93.113 56.167 93.464 57.472 93.481 L 56.606 91.493 C 53.559 92.143 52.437 91.032 52.390 90.984 L 52.071 90.653 L 52.529 90.615 C 53.633 90.522 54.653 90.316 55.565 90.005 C 59.398 88.694 60.211 85.864 60.219 85.837 L 60.348 85.360 L 60.613 85.776 C 61.052 86.469 61.193 87.177 61.031 87.878 C 60.764 89.023 59.774 89.798 59.427 90.040 L 59.828 93.115 L 63.134 93.423 C 62.185 93.982 61.226 94.432 60.280 94.755 L 60.280 94.755 Z M 43.813 85.922 C 43.823 85.926 43.682 86.345 44.836 87.808 L 44.967 87.984 C 46.990 90.764 52.518 96.950 60.139 94.343 C 60.801 94.117 61.088 94.021 61.754 93.671 L 59.444 93.560 L 58.957 89.821 L 59.077 89.747 C 59.090 89.738 60.331 88.963 60.605 87.776 C 60.708 87.328 60.661 86.874 60.463 86.419 C 60.058 87.333 58.846 89.342 55.704 90.416 C 54.941 90.677 54.106 90.865 53.217 90.978 C 53.790 91.214 54.883 91.442 56.682 91.028 L 56.860 90.988 L 58.127 93.895 L 57.814 93.913 C 57.752 93.916 51.482 94.205 47.251 89.098 L 46.630 87.323 L 45.625 86.248 L 45.865 87.194 L 46 88.121 C 45.688 87.727 44.354 86.235 43.934 85.968 C 43.866 85.924 43.822 85.921 43.813 85.922 L 43.813 85.922 Z " transform="matrix(1.8856488466262817, 0, 0, 1.8856488466262817, -1.3, -1.7)"/>
            </g>
            <g id="Boot_8_">
              <g id="Boot_9_">
                <path id="Fill_10_" fill="#FFFFFF" d="M 44.738 84.910 C 44.738 84.910 49.196 90.504 51.785 91.345 C 54.375 92.186 59.300 89.438 60.595 87.500 C 61.888 85.562 60.552 81.997 59.447 81.454 C 58.341 80.912 49.324 79.864 49.324 79.864 C 49.324 79.864 44.132 78.442 43.406 82.028 C 43.405 82.028 43.680 83.830 44.738 84.910 Z " transform="matrix(1.8856488466262817, 0, 0, 1.8856488466262817, -1.3, -1.7)"/>
                <path id="Outline_23_" d="M 55.345 91.248 C 55.344 91.248 55.344 91.248 55.345 91.248 C 54.329 91.595 52.877 91.929 51.717 91.552 C 49.097 90.700 44.751 85.277 44.568 85.046 C 43.489 83.945 43.202 82.137 43.191 82.062 C 43.427 80.820 44.126 80.032 45.267 79.641 C 47.053 79.031 49.288 79.629 49.380 79.655 C 49.718 79.692 58.414 80.707 59.541 81.259 C 60.146 81.555 60.777 82.588 61.111 83.828 C 61.511 85.316 61.389 86.698 60.775 87.620 C 59.902 88.928 57.568 90.488 55.345 91.248 L 55.345 91.248 Z M 43.620 82.070 C 43.633 82.065 43.915 83.757 44.894 84.758 C 44.953 84.829 49.354 90.326 51.853 91.138 C 52.680 91.407 53.839 91.303 55.204 90.836 C 55.204 90.836 55.204 90.836 55.205 90.836 C 57.312 90.115 59.600 88.597 60.413 87.379 C 60.959 86.561 61.059 85.309 60.691 83.941 C 60.397 82.851 59.833 81.887 59.350 81.649 C 58.470 81.217 51.795 80.371 49.298 80.080 C 49.243 80.069 47.066 79.486 45.407 80.053 C 44.424 80.389 43.822 81.068 43.620 82.070 L 43.620 82.070 L 43.620 82.070 Z " transform="matrix(1.8856488466262817, 0, 0, 1.8856488466262817, -1.3, -1.7)"/>
              </g>
              <g id="Laces_4_">
                <path id="Lace_9_" fill="#5BDDDD" stroke="#000000" stroke-width="0.25" d="M 51.739 80.183 C 51.739 80.183 48.406 80.853 47.888 83.044 C 47.888 83.044 47.638 84.164 48.652 83.761 C 49.665 83.357 48.600 81.777 52.947 80.342 L 51.739 80.183 Z " transform="matrix(1.8856488466262817, 0, 0, 1.8856488466262817, -1.3, -1.7)"/>
                <path id="Lace_8_" fill="#5BDDDD" stroke="#000000" stroke-width="0.25" d="M 54.891 80.469 C 54.891 80.469 50.939 81.175 50.451 84.102 C 50.451 84.102 50.218 85.600 51.406 85.115 C 52.594 84.630 51.228 82.435 56.344 80.755 L 54.891 80.469 Z " transform="matrix(1.8856488466262817, 0, 0, 1.8856488466262817, -1.3, -1.7)"/>
              </g>
            </g>
          </g>
        </g>
        <path id="Left_Flipper_2_" fill="#303A82" stroke="#000000" stroke-width="0.5" d="M 44.651 39.348 C 44.651 39.348 55.915 34.286 57.624 31.696 C 59.334 29.107 61.942 26.957 62.370 30.254 C 62.797 33.552 62.216 44.249 53.386 51.077 C 53.385 51.078 42.474 47.945 44.651 39.348 Z " transform="matrix(1.8856488466262817, 0, 0, 1.8856488466262817, -1.3, -1.7)"/>
        <path id="Right_Flipper_2_" fill="#303A82" stroke="#000000" stroke-width="0.5" d="M 18.074 40.894 C 18.074 40.894 8.709 48.943 5.637 49.390 C 2.567 49.836 -0.487 51.286 2.316 53.073 C 5.121 54.860 15.051 58.878 24.984 53.782 C 24.984 53.782 26.782 42.574 18.074 40.894 Z " transform="matrix(1.8856488466262817, 0, 0, 1.8856488466262817, -1.3, -1.7)"/>
        <g id="Body_4_">
          <g id="Body_5_">
            <g id="Body_Base_2_">
              <path id="ID0.3758266866207123" fill="#303A82" d="M 54.625 54.947 C 53.355 41.087 46.379 41.776 45.605 36.072 C 44.830 30.368 44.943 17.406 34.009 17.520 C 23.076 17.634 23.009 30.687 22.354 36.405 C 21.699 42.123 14.730 41.647 13.750 55.530 C 12.770 69.413 18.734 77.374 20.547 80.342 C 22.360 83.312 26.356 81.839 26.879 80.790 C 27.402 79.741 28.597 77.318 28.597 77.318 C 29.951 78.495 34.010 78.646 34.504 78.653 C 34.504 78.653 39.104 78.506 40.434 77.300 C 40.434 77.300 41.678 79.698 42.223 80.736 C 42.770 81.775 46.793 83.164 48.545 80.158 C 50.294 77.152 55.896 68.804 54.625 54.947 Z " transform="matrix(1.8856488466262817, 0, 0, 1.8856488466262817, -1.3, -1.7)"/>
              <path id="Outline_22_" d="M 54.875 54.924 C 54.084 46.307 51.129 43.272 48.754 40.834 C 47.293 39.335 46.139 38.151 45.854 36.039 C 45.764 35.378 45.686 34.619 45.602 33.794 C 44.967 27.614 43.907 17.270 34.153 17.270 L 34.008 17.271 C 23.890 17.376 22.886 28.137 22.287 34.566 C 22.225 35.225 22.168 35.834 22.105 36.378 C 21.863 38.496 20.738 39.713 19.312 41.255 C 16.995 43.762 14.111 46.883 13.500 55.514 C 12.595 68.327 17.647 76.252 19.806 79.636 C 20.005 79.949 20.184 80.229 20.333 80.474 C 21.278 82.024 22.702 82.349 23.729 82.349 C 25.291 82.349 26.760 81.587 27.102 80.904 C 27.518 80.069 28.360 78.364 28.686 77.702 C 30.397 78.836 34.457 78.905 34.510 78.906 C 34.692 78.900 38.705 78.759 40.328 77.695 L 40.328 77.702 C 40.336 77.698 40.344 77.690 40.349 77.686 C 40.689 78.340 41.564 80.029 41.999 80.855 C 42.349 81.520 43.759 82.231 45.300 82.231 C 46.800 82.231 48.027 81.541 48.759 80.287 L 49.124 79.669 C 51.205 76.177 56.074 68.004 54.875 54.924 Z M 48.697 79.412 L 48.330 80.034 C 47.512 81.436 46.232 81.730 45.303 81.730 C 43.914 81.730 42.682 81.074 42.446 80.622 C 41.979 79.734 41.007 77.862 40.733 77.337 C 41.200 76.793 41.674 75.906 41.674 75.906 L 40.512 76.910 L 40.506 76.899 L 40.266 77.117 C 39.020 78.247 34.541 78.404 34.508 78.405 C 34.465 78.404 30.119 78.312 28.761 77.132 L 28.516 76.919 L 27.344 75.906 C 27.344 75.906 27.830 76.812 28.301 77.354 C 28.043 77.877 27.106 79.780 26.656 80.680 C 26.418 81.156 25.160 81.848 23.730 81.848 C 22.831 81.848 21.585 81.564 20.760 80.213 C 20.609 79.965 20.429 79.683 20.227 79.366 C 18.096 76.023 13.105 68.196 13.999 55.548 C 14.597 47.092 17.415 44.044 19.679 41.593 C 21.108 40.048 22.341 38.714 22.603 36.433 C 22.665 35.887 22.722 35.273 22.785 34.611 C 23.369 28.350 24.347 17.870 34.013 17.769 L 34.153 17.768 C 43.456 17.768 44.448 27.442 45.104 33.844 C 45.188 34.675 45.268 35.439 45.358 36.105 C 45.667 38.381 46.932 39.679 48.395 41.182 C 50.715 43.564 53.604 46.528 54.377 54.968 C 55.560 67.888 50.751 75.963 48.697 79.412 Z " transform="matrix(1.8856488466262817, 0, 0, 1.8856488466262817, -1.3, -1.7)"/>
            </g>
            <path id="Tummy_Fill_2_" fill="#FFFFFF" d="M 44.937 38.322 C 43.521 36.072 43.191 35.763 43.230 34.780 C 44.105 12.447 34.312 24.367 34.312 24.367 C 34.312 24.367 23.300 13.239 24.958 34.697 C 25.033 35.670 24.921 36.072 23.505 38.322 C 22.087 40.572 15.253 50.239 17.837 59.739 C 20.421 69.239 30.131 72.380 34.130 72.399 C 37.771 72.416 48.021 69.239 50.605 59.739 C 53.189 50.239 46.355 40.572 44.937 38.322 Z " transform="matrix(1.8856488466262817, 0, 0, 1.8856488466262817, -1.3, -1.7)"/>
          </g>
          <g id="L_Eye_2_">
            <path id="White_5_" fill="#FFFFFF" stroke="#000000" stroke-width="0.25" d="M 28.122 23.694 C 28.708 23.694 29.240 24.109 29.624 24.781 C 30.009 25.452 30.247 26.379 30.247 27.402 C 30.247 28.425 30.009 29.352 29.624 30.023 C 29.240 30.695 28.708 31.110 28.122 31.110 C 27.536 31.110 27.004 30.695 26.620 30.023 C 26.235 29.352 25.997 28.425 25.997 27.402 C 25.997 26.379 26.235 25.452 26.620 24.781 C 27.004 24.109 27.536 23.694 28.122 23.694 Z " transform="matrix(1.8567984104156494, 0.32904571294784546, -0.32904571294784546, 1.8567984104156494, 8.3, -10.1)"/>
            <path id="Iris_5_" fill="#5BDDDD" stroke="#000000" stroke-width="0.25" d="M 27.839 26.085 C 28.308 26.085 28.732 26.365 29.040 26.817 C 29.348 27.269 29.538 27.894 29.538 28.583 C 29.538 29.272 29.348 29.897 29.040 30.349 C 28.732 30.801 28.308 31.081 27.839 31.081 C 27.370 31.081 26.946 30.801 26.638 30.349 C 26.330 29.897 26.140 29.272 26.140 28.583 C 26.140 27.894 26.330 27.269 26.638 26.817 C 26.946 26.365 27.370 26.085 27.839 26.085 Z " transform="matrix(1.872826337814331, 0.21892383694648743, -0.21892383694648743, 1.872826337814331, 5.1, -7.35)"/>
            <path id="Pupil_5_" d="M 27.839 27.093 C 28.136 27.093 28.404 27.280 28.599 27.582 C 28.794 27.884 28.914 28.302 28.914 28.762 C 28.914 29.222 28.794 29.640 28.599 29.942 C 28.404 30.244 28.136 30.431 27.839 30.431 C 27.542 30.431 27.274 30.244 27.079 29.942 C 26.884 29.640 26.764 29.222 26.764 28.762 C 26.764 28.302 26.884 27.884 27.079 27.582 C 27.274 27.280 27.542 27.093 27.839 27.093 Z " transform="matrix(1.8732035160064697, 0.2159067839384079, -0.2159067839384079, 1.8732035160064697, 4.95, -7.3)"/>
            <path id="Highlight_5_" fill="#FFFFFF" d="M 27.344 26.807 C 27.507 26.807 27.654 26.873 27.760 26.980 C 27.867 27.086 27.933 27.233 27.933 27.396 C 27.933 27.559 27.867 27.706 27.760 27.812 C 27.654 27.919 27.507 27.985 27.344 27.985 C 27.181 27.985 27.034 27.919 26.928 27.812 C 26.821 27.706 26.755 27.559 26.755 27.396 C 26.755 27.233 26.821 27.086 26.928 26.980 C 27.034 26.873 27.181 26.807 27.344 26.807 Z " transform="matrix(1.8856488466262817, 0, 0, 1.8856488466262817, -1.3, -1.7)"/>
          </g>
          <g id="R_Eye_3_">
            <path id="White_4_" fill="#FFFFFF" stroke="#000000" stroke-width="0.25" d="M 40.102 23.264 C 40.689 23.264 41.220 23.679 41.605 24.351 C 41.990 25.022 42.228 25.949 42.228 26.972 C 42.228 27.995 41.990 28.922 41.605 29.593 C 41.220 30.265 40.689 30.680 40.102 30.680 C 39.515 30.680 38.984 30.265 38.599 29.593 C 38.214 28.922 37.976 27.995 37.976 26.972 C 37.976 25.949 38.214 25.022 38.599 24.351 C 38.984 23.679 39.515 23.264 40.102 23.264 Z " transform="matrix(1.8701865673065186, -0.240608811378479, 0.240608811378479, 1.8701865673065186, -7.1, 8.05)"/>
            <path id="Iris_4_" fill="#5BDDDD" stroke="#000000" stroke-width="0.25" d="M 40.185 25.685 C 40.654 25.685 41.079 25.965 41.387 26.417 C 41.695 26.869 41.885 27.494 41.885 28.183 C 41.885 28.872 41.695 29.497 41.387 29.949 C 41.079 30.401 40.654 30.681 40.185 30.681 C 39.716 30.681 39.291 30.401 38.983 29.949 C 38.675 29.497 38.485 28.872 38.485 28.183 C 38.485 27.494 38.675 26.869 38.983 26.417 C 39.291 25.965 39.716 25.685 40.185 25.685 Z " transform="matrix(1.8526501655578613, -0.35073068737983704, 0.35073068737983704, 1.8526501655578613, -9.7, 13)"/>
            <path id="Pupil_4_" d="M 40.239 26.685 C 40.536 26.685 40.804 26.872 40.999 27.174 C 41.194 27.476 41.314 27.894 41.314 28.354 C 41.314 28.814 41.194 29.232 40.999 29.534 C 40.804 29.836 40.536 30.023 40.239 30.023 C 39.942 30.023 39.674 29.836 39.479 29.534 C 39.284 29.232 39.164 28.814 39.164 28.354 C 39.164 27.894 39.284 27.476 39.479 27.174 C 39.674 26.872 39.942 26.685 40.239 26.685 Z " transform="matrix(1.8522729873657227, -0.3533706068992615, 0.3533706068992615, 1.8522729873657227, -9.85, 13.15)"/>
            <path id="Highlight_4_" fill="#FFFFFF" d="M 39.357 26.610 C 39.520 26.610 39.667 26.676 39.773 26.783 C 39.880 26.889 39.946 27.036 39.946 27.199 C 39.946 27.362 39.880 27.509 39.773 27.615 C 39.667 27.722 39.520 27.788 39.357 27.788 C 39.194 27.788 39.047 27.722 38.941 27.615 C 38.834 27.509 38.768 27.362 38.768 27.199 C 38.768 27.036 38.834 26.889 38.941 26.783 C 39.047 26.676 39.194 26.610 39.357 26.610 Z " transform="matrix(1.8856488466262817, 0, 0, 1.8856488466262817, -1.3, -1.7)"/>
          </g>
          <g id="Beak_2_">
            <path id="Bottom_Beak_2_" fill="#DD5900" stroke="#000000" stroke-width="0.25" d="M 37.392 31.291 C 36.187 32.380 34.288 33.852 31.238 31.457 L 31.219 31.457 C 31.219 31.457 31.193 33.830 34.288 33.852 C 37.263 33.874 37.478 31.584 37.392 31.291 L 37.392 31.291 Z " transform="matrix(1.8856488466262817, 0, 0, 1.8856488466262817, -1.3, -1.7)"/>
            <g id="Top_Beak_3_">
              <path id="Fill_9_" fill="#FF822E" d="M 34.312 32.977 C 36.041 32.955 37.294 31.436 37.919 31.124 C 38.173 30.999 38.312 30.910 38.312 30.910 C 37.187 30.302 37.396 30.143 36.187 29.282 C 34.978 28.421 33.506 28.754 32.687 29.282 C 31.843 29.826 30.312 31.124 30.312 31.124 C 30.465 31.197 30.634 31.218 30.765 31.316 C 31.646 31.977 33.276 32.991 34.312 32.977 Z " transform="matrix(1.8856488466262817, 0, 0, 1.8856488466262817, -1.3, -1.7)"/>
              <path id="Outline_21_" d="M 38.359 30.387 C 38.453 30.564 38.455 30.739 38.447 30.841 L 38.373 30.801 C 37.756 30.468 37.557 30.280 37.280 30.018 C 37.066 29.816 36.799 29.564 36.260 29.181 C 35.225 28.444 33.693 28.486 32.619 29.178 C 31.864 29.665 30.598 30.721 30.301 30.970 C 30.296 30.865 30.305 30.707 30.390 30.546 C 30.390 30.546 29.452 30.902 29.609 31.951 L 30.375 31.282 C 30.402 31.292 30.430 31.304 30.457 31.313 C 30.545 31.342 30.627 31.369 30.690 31.417 C 31.728 32.194 33.293 33.102 34.292 33.102 L 34.314 33.102 C 35.615 33.085 36.660 32.246 37.350 31.690 C 37.601 31.489 37.818 31.315 37.976 31.236 C 38.142 31.153 38.240 31.097 38.304 31.060 L 39.140 31.791 C 39.296 30.743 38.359 30.387 38.359 30.387 Z M 37.865 31.013 C 37.681 31.104 37.467 31.277 37.193 31.496 C 36.490 32.062 35.525 32.837 34.311 32.852 L 34.291 32.977 L 34.291 32.852 C 33.354 32.852 31.847 31.971 30.840 31.217 C 30.760 31.157 30.672 31.126 30.585 31.096 L 30.593 31.089 L 30.572 31.089 C 30.566 31.088 30.562 31.084 30.556 31.082 C 30.974 30.735 32.089 29.817 32.755 29.387 C 33.743 28.750 35.161 28.704 36.114 29.384 C 36.639 29.758 36.887 29.992 37.107 30.199 C 37.356 30.434 37.559 30.625 38.057 30.911 C 38.003 30.941 37.939 30.975 37.865 31.013 Z " transform="matrix(1.8856488466262817, 0, 0, 1.8856488466262817, -1.3, -1.7)"/>
            </g>
          </g>
        </g>
        <g id="Hat_2_">
          <g id="Hat_Base_2_">
            <path id="Fill_8_" fill="#AF2020" d="M 25.739 18.601 C 25.739 18.601 25.293 14.086 30.601 11.259 C 35.910 8.431 38.861 5.589 39.267 5.056 C 39.576 4.651 40.226 3.170 40.968 3.965 C 41.714 4.759 41.714 7.785 40.968 10.911 C 40.226 14.036 41.972 15.972 41.769 18.304 C 41.769 18.304 34.273 14.880 25.739 18.601 Z " transform="matrix(1.8856488466262817, 0, 0, 1.8856488466262817, -1.3, -1.7)"/>
            <g id="Stripes_11_">
              <path id="ID0.4723743163049221" fill="#871212" d="M 26.100 16.219 C 26.100 16.219 33.376 12.241 41.533 16.219 L 41.105 14.781 C 41.105 14.781 34.822 11.492 26.754 14.782 L 26.100 16.219 Z " transform="matrix(1.8856488466262817, 0, 0, 1.8856488466262817, -1.3, -1.7)"/>
              <path id="ID0.6873810109682381" fill="#871212" d="M 29.271 11.989 C 29.271 11.989 36.164 10.079 40.550 12.909 L 40.812 11.739 C 40.812 11.739 36.042 9.036 31.219 10.637 L 29.271 11.989 Z " transform="matrix(1.8856488466262817, 0, 0, 1.8856488466262817, -1.3, -1.7)"/>
              <path id="ID0.1024240106344223" fill="#871212" d="M 36.117 8.105 C 36.117 8.105 39.711 8.133 40.865 10.228 L 41.310 9.166 C 41.310 9.166 40.603 7.114 37.062 7.155 L 35.996 8.194 " transform="matrix(1.8856488466262817, 0, 0, 1.8856488466262817, -1.3, -1.7)"/>
              <path id="ID0.6725794565863907" fill="#871212" d="M 39.267 5.056 C 39.267 5.056 41.021 5.364 41.480 6.447 L 41.310 5.056 L 39.605 4.101 L 39.267 5.056 Z " transform="matrix(1.8856488466262817, 0, 0, 1.8856488466262817, -1.3, -1.7)"/>
            </g>
            <path id="Outline_20_" d="M 25.524 18.967 L 25.490 18.625 C 25.486 18.579 25.090 13.911 30.484 11.038 C 35.851 8.179 38.757 5.313 39.068 4.905 C 39.121 4.838 39.181 4.738 39.252 4.625 C 39.549 4.144 39.959 3.484 40.525 3.484 C 40.748 3.484 40.959 3.588 41.152 3.794 C 42.080 4.782 41.884 8.151 41.213 10.969 C 40.799 12.713 41.186 14.067 41.561 15.377 C 41.842 16.364 42.110 17.295 42.020 18.325 L 41.989 18.678 L 41.667 18.532 C 41.636 18.518 38.511 17.117 34.087 17.117 C 31.223 17.117 28.448 17.694 25.841 18.830 L 25.524 18.967 L 25.524 18.967 Z M 40.525 3.984 C 40.236 3.984 39.873 4.572 39.675 4.888 C 39.595 5.017 39.525 5.130 39.466 5.207 C 39.126 5.654 36.236 8.540 30.719 11.479 C 26.414 13.771 25.994 17.137 25.978 18.227 C 28.550 17.158 31.276 16.616 34.085 16.616 C 37.825 16.616 40.603 17.567 41.536 17.935 C 41.538 17.123 41.313 16.339 41.079 15.514 C 40.704 14.206 40.280 12.724 40.725 10.853 C 41.522 7.512 41.377 4.765 40.786 4.136 C 40.693 4.035 40.605 3.984 40.525 3.984 L 40.525 3.984 Z " transform="matrix(1.8856488466262817, 0, 0, 1.8856488466262817, -1.3, -1.7)"/>
          </g>
          <path id="Puff_2_" fill="#FFFFFF" stroke="#000000" stroke-width="0.5" d="M 40.865 1.175 C 41.361 1.175 41.811 1.367 42.137 1.676 C 42.462 1.985 42.664 2.413 42.664 2.884 C 42.664 3.355 42.462 3.783 42.137 4.092 C 41.811 4.401 41.361 4.593 40.865 4.593 C 40.369 4.593 39.919 4.401 39.593 4.092 C 39.268 3.783 39.066 3.355 39.066 2.884 C 39.066 2.413 39.268 1.985 39.593 1.676 C 39.919 1.367 40.369 1.175 40.865 1.175 Z " transform="matrix(1.8856488466262817, 0, 0, 1.8856488466262817, -1.3, -1.7)"/>
          <g id="Brim_2_">
            <path id="Brim_Fill_2_" fill="#FFFFFF" d="M 25.013 19.991 C 25.013 19.991 24.312 19.243 25.013 18.601 C 25.714 17.960 29.541 16.171 33.727 16.220 C 37.912 16.269 39.289 16.766 40.363 17.262 C 41.435 17.758 43.531 19.048 42.631 20.189 C 42.631 20.189 43.902 22.287 42.768 22.287 C 42.512 22.287 41.739 21.975 41.739 21.975 C 41.739 21.975 35.384 18.403 25.907 21.975 C 25.906 21.976 22.974 23.182 25.013 19.991 Z " transform="matrix(1.8856488466262817, 0, 0, 1.8856488466262817, -1.3, -1.7)"/>
            <path id="Brim_Outline_2_" d="M 42.906 20.191 C 43.074 19.925 43.121 19.637 43.049 19.334 C 42.776 18.196 40.858 17.258 40.477 17.082 C 39.375 16.573 37.950 16.072 33.762 16.022 L 33.588 16.021 C 29.422 16.021 25.643 17.785 24.910 18.455 C 24.672 18.674 24.546 18.928 24.535 19.209 C 24.522 19.543 24.681 19.831 24.793 19.991 C 24.228 20.736 24.049 21.392 24.258 21.943 C 24.613 22.874 26.152 22.109 26.152 22.109 C 28.877 21.099 31.602 20.587 34.255 20.587 C 38.349 20.587 41.032 21.824 41.573 22.097 C 41.573 22.097 42.438 22.483 42.764 22.473 C 43.135 22.461 43.289 22.215 43.364 21.885 C 43.513 21.230 43.089 20.479 42.906 20.191 Z M 42.976 21.796 C 42.806 22.308 41.867 21.802 41.867 21.802 C 41.750 21.736 38.943 20.189 34.254 20.189 C 31.508 20.189 28.685 20.727 25.867 21.790 L 25.724 21.844 C 25.724 21.844 24.821 22.305 24.628 21.800 C 24.461 21.361 24.653 20.794 25.198 20.116 L 25.306 19.981 C 25.306 19.981 25.601 19.606 26.221 19.309 C 26.221 19.309 25.700 19.313 25.102 19.737 C 25.024 19.622 24.922 19.435 24.930 19.224 C 24.938 19.050 25.018 18.894 25.178 18.748 C 25.791 18.186 29.489 16.417 33.586 16.417 L 33.755 16.418 C 37.863 16.467 39.244 16.951 40.309 17.442 C 41.360 17.927 42.495 18.729 42.661 19.425 C 42.706 19.607 42.663 19.775 42.573 19.939 C 42.011 19.573 41.530 19.568 41.530 19.568 C 42.151 19.865 42.446 20.241 42.446 20.241 L 42.456 20.240 L 42.503 20.306 C 42.675 20.542 43.148 21.282 42.976 21.796 Z " transform="matrix(1.8856488466262817, 0, 0, 1.8856488466262817, -1.3, -1.7)"/>
          </g>
        </g>
        <g id="Scarf_2_">
          <g id="Bottom_2_">
            <g id="Fringe_2_">
              <path id="ID0.021968073677271605" fill="#871212" d="M 10.296 70.262 C 10.178 70.235 9.788 70.123 9.745 69.818 C 9.701 69.513 10.025 69.334 10.132 69.274 C 10.235 69.244 11.941 69.005 13.667 67.829 C 13.501 67.691 13.344 67.555 13.194 67.420 C 12.472 68.100 10.503 68.813 8.964 68.951 C 8.757 68.909 8.374 68.777 8.347 68.470 C 8.320 68.163 8.654 68 8.763 67.947 C 8.867 67.922 10.615 67.774 12.419 66.665 C 12.241 66.476 12.077 66.289 11.927 66.107 C 11.272 66.715 9.171 67.362 7.572 67.418 C 7.367 67.364 6.992 67.212 6.982 66.903 C 6.972 66.595 7.314 66.452 7.426 66.405 C 7.534 66.385 9.378 66.337 11.297 65.248 C 11.186 65.076 11.083 64.902 10.987 64.727 C 10.291 65.225 8.421 65.672 6.892 65.672 C 6.793 65.672 6.696 65.670 6.600 65.666 C 6.399 65.598 6.038 65.417 6.050 65.108 C 6.063 64.800 6.414 64.683 6.530 64.644 L 6.788 64.635 C 7.248 64.635 8.851 64.570 10.554 63.746 C 10.480 63.529 10.427 63.334 10.391 63.165 C 9.577 63.641 7.868 64.024 6.452 64.024 C 6.354 64.024 6.257 64.022 6.161 64.018 C 5.960 63.950 5.598 63.769 5.610 63.460 C 5.625 63.156 5.976 63.039 6.092 63 L 6.347 62.991 C 6.820 62.991 8.494 62.922 10.246 62.037 L 10.292 62.014 C 10.397 61.741 10.780 61.543 10.948 61.467 L 11.263 61.325 L 11.298 61.670 C 11.639 65.014 15.427 67.797 15.465 67.825 L 15.807 68.073 L 14.627 68.630 L 14.514 68.534 C 13.834 69.231 11.910 70.046 10.387 70.265 L 10.340 70.272 L 10.296 70.262 Z " transform="matrix(1.8856488466262817, 0, 0, 1.8856488466262817, -1.3, -1.7)"/>
              <path id="ID0.9627575338818133" d="M 11.050 61.695 C 11.407 65.193 15.320 68.027 15.320 68.027 L 14.668 68.335 L 14.482 68.177 C 14.474 68.191 14.474 68.199 14.465 68.214 C 14.147 68.793 12.034 69.776 10.352 70.019 C 10.352 70.019 9.611 69.851 10.253 69.494 C 10.253 69.494 12.189 69.241 14.080 67.844 C 13.747 67.579 13.447 67.319 13.175 67.064 C 13.164 67.085 13.160 67.100 13.146 67.124 C 12.798 67.685 10.635 68.552 8.942 68.704 C 8.942 68.704 8.211 68.496 8.873 68.174 C 8.873 68.174 10.838 68.026 12.812 66.713 C 12.466 66.362 12.167 66.023 11.919 65.698 C 11.899 65.736 11.882 65.775 11.848 65.824 C 11.469 66.364 9.262 67.111 7.562 67.170 C 7.562 67.170 6.845 66.922 7.523 66.638 C 7.523 66.638 9.550 66.602 11.627 65.348 C 11.627 65.348 11.641 65.347 11.662 65.346 C 11.402 64.972 11.205 64.622 11.051 64.301 C 11.031 64.332 11.017 64.363 10.986 64.400 C 10.590 64.881 8.551 65.425 6.893 65.425 C 6.798 65.425 6.704 65.423 6.612 65.419 C 6.612 65.419 5.915 65.118 6.612 64.885 C 6.612 64.885 6.674 64.889 6.791 64.889 C 7.331 64.889 9.019 64.809 10.801 63.909 C 10.801 63.909 10.804 63.909 10.808 63.909 C 10.820 63.909 10.848 63.910 10.883 63.914 C 10.686 63.413 10.603 63.002 10.571 62.718 C 10.560 62.731 10.557 62.739 10.546 62.754 C 10.151 63.235 8.112 63.779 6.454 63.779 C 6.359 63.779 6.265 63.777 6.173 63.773 C 6.173 63.773 5.475 63.472 6.173 63.240 C 6.173 63.240 6.235 63.244 6.349 63.244 C 6.887 63.244 8.577 63.165 10.361 62.263 C 10.361 62.263 10.362 62.263 10.363 62.263 C 10.373 62.263 10.470 62.264 10.556 62.294 C 10.558 62.274 10.558 62.263 10.558 62.263 C 10.339 62.014 11.050 61.695 11.050 61.695 M 11.478 60.955 L 10.846 61.239 C 10.624 61.339 10.269 61.535 10.105 61.829 C 8.412 62.675 6.802 62.741 6.347 62.741 C 6.257 62.741 6.206 62.738 6.199 62.738 L 6.105 62.733 L 6.013 62.762 C 5.492 62.936 5.370 63.233 5.362 63.451 C 5.341 63.920 5.826 64.165 5.974 64.228 L 6.058 64.265 L 6.152 64.269 C 6.250 64.273 6.351 64.275 6.453 64.275 C 7.690 64.275 9.277 63.983 10.230 63.545 C 10.236 63.567 10.243 63.591 10.250 63.614 C 8.670 64.327 7.219 64.385 6.790 64.385 C 6.699 64.385 6.646 64.382 6.639 64.382 L 6.544 64.377 L 6.453 64.406 C 5.932 64.581 5.810 64.878 5.802 65.096 C 5.782 65.565 6.266 65.810 6.414 65.873 L 6.498 65.910 L 6.592 65.914 C 6.690 65.918 6.791 65.920 6.894 65.920 C 8.236 65.920 9.991 65.576 10.899 65.074 C 10.915 65.100 10.930 65.127 10.946 65.153 C 9.173 66.086 7.532 66.132 7.514 66.132 L 7.418 66.134 L 7.330 66.174 C 6.823 66.386 6.725 66.692 6.732 66.910 C 6.747 67.378 7.247 67.587 7.400 67.639 L 7.487 67.669 L 7.580 67.666 C 8.985 67.617 10.989 67.083 11.892 66.450 C 11.935 66.501 11.981 66.553 12.027 66.604 C 10.376 67.539 8.851 67.669 8.834 67.671 L 8.740 67.680 L 8.654 67.722 C 8.160 67.962 8.079 68.273 8.097 68.491 C 8.139 68.958 8.650 69.138 8.805 69.182 L 8.894 69.207 L 8.987 69.200 C 9.320 69.170 9.685 69.111 10.060 69.028 L 10.011 69.055 C 9.531 69.323 9.466 69.637 9.497 69.853 C 9.563 70.317 10.083 70.470 10.241 70.505 L 10.331 70.526 L 10.423 70.513 C 11.789 70.316 13.679 69.589 14.530 68.874 L 14.589 68.924 L 14.880 68.786 L 15.532 68.478 L 16.297 68.118 L 15.612 67.622 C 15.575 67.595 11.877 64.874 11.548 61.643 L 11.478 60.955 L 11.478 60.955 Z M 10.217 68.993 C 11.363 68.724 12.569 68.255 13.204 67.764 C 13.220 67.777 13.235 67.790 13.251 67.803 C 11.791 68.718 10.427 68.959 10.217 68.993 L 10.217 68.993 Z " transform="matrix(1.8856488466262817, 0, 0, 1.8856488466262817, -1.3, -1.7)"/>
            </g>
            <path id="ID0.33523725625127554" fill="#AF2020" d="M 34.375 43.364 C 34.375 43.364 28.271 42.906 23.646 47.447 C 19.021 51.988 20.771 56.530 10.562 61.739 C 10.562 61.739 9.771 64.823 14.854 68.698 C 14.854 68.698 23.536 63.864 25.695 57.156 C 27.854 50.448 33.732 46.673 36.854 46.652 L 40.257 46.156 L 34.375 43.364 Z " transform="matrix(1.8856488466262817, 0, 0, 1.8856488466262817, -1.3, -1.7)"/>
            <g id="Stripes_10_">
              <path id="ID0.019771534949541092" fill="#871212" d="M 13.226 60.292 C 13.226 60.292 12.988 64.405 17.787 66.804 L 18.937 65.865 C 18.937 65.865 14.479 61.448 14.646 59.323 L 13.226 60.292 Z " transform="matrix(1.8856488466262817, 0, 0, 1.8856488466262817, -1.3, -1.7)"/>
              <path id="ID0.4061923725530505" fill="#871212" d="M 16.854 57.448 C 16.854 57.448 17.146 60.614 21.771 63.239 L 23.146 61.781 C 23.146 61.781 18.636 59.298 18.029 56.049 L 16.854 57.448 Z " transform="matrix(1.8856488466262817, 0, 0, 1.8856488466262817, -1.3, -1.7)"/>
              <path id="ID0.4048374858684838" fill="#871212" d="M 19.332 54.118 C 19.332 54.118 20.396 57.323 25.229 58.448 L 25.896 56.656 C 25.896 56.656 20.834 55.067 19.968 52.966 L 19.332 54.118 Z " transform="matrix(1.8856488466262817, 0, 0, 1.8856488466262817, -1.3, -1.7)"/>
              <path id="ID0.8163762511685491" fill="#871212" d="M 21.723 49.809 C 21.723 49.809 22.583 52.543 27.343 53.558 L 28.396 52.073 C 28.396 52.073 23.164 49.718 22.613 48.583 L 21.723 49.809 Z " transform="matrix(1.8856488466262817, 0, 0, 1.8856488466262817, -1.3, -1.7)"/>
              <path id="ID0.010687896516174078" fill="#871212" d="M 24.783 46.449 L 30.812 49.406 L 32.489 47.927 C 32.489 47.927 26.801 45.207 26.453 45.327 C 26.105 45.447 24.783 46.449 24.783 46.449 Z " transform="matrix(1.8856488466262817, 0, 0, 1.8856488466262817, -1.3, -1.7)"/>
              <path id="ID0.03235075296834111" fill="#871212" d="M 30.101 44.082 L 35.069 46.930 L 37.414 46.567 L 32.462 43.380 L 30.101 44.082 " transform="matrix(1.8856488466262817, 0, 0, 1.8856488466262817, -1.3, -1.7)"/>
            </g>
            <path id="ID0.6604129113256931" d="M 14.833 68.996 L 14.703 68.897 C 9.547 64.966 10.287 61.809 10.320 61.676 L 10.349 61.567 L 10.449 61.516 C 16.969 58.190 18.556 55.140 20.094 52.191 C 20.934 50.576 21.804 48.906 23.471 47.269 C 27.410 43.402 32.446 43.101 33.895 43.101 C 34.215 43.101 34.394 43.115 34.394 43.115 L 41.112 46.284 L 36.891 46.899 C 33.677 46.923 27.983 50.864 25.934 57.232 C 23.769 63.957 15.334 68.717 14.977 68.917 L 14.833 68.996 L 14.833 68.996 Z M 10.789 61.904 C 10.722 62.456 10.654 65.126 14.875 68.398 C 16.002 67.737 23.504 63.149 25.457 57.080 C 27.659 50.239 33.593 46.424 36.853 46.402 L 39.407 46.028 L 34.289 43.600 C 34.279 43.610 34.127 43.602 33.894 43.601 C 32.492 43.601 27.624 43.892 23.822 47.625 C 22.211 49.207 21.397 50.769 20.537 52.421 C 18.972 55.423 17.356 58.527 10.789 61.904 L 10.789 61.904 Z " transform="matrix(1.8856488466262817, 0, 0, 1.8856488466262817, -1.3, -1.7)"/>
          </g>
          <g id="Middle_2_">
            <path id="Base_Fill_5_" fill="#AF2020" d="M 30.812 44.905 C 30.812 44.905 36.605 47.531 42.240 46.343 C 47.875 45.155 49.687 43.716 51.750 44.905 C 51.750 44.905 52.875 42.781 49.188 41.281 C 49.188 41.281 50.438 38.719 48.438 37.656 C 48.437 37.656 40.750 34.591 30.812 44.905 Z " transform="matrix(1.8856488466262817, 0, 0, 1.8856488466262817, -1.3, -1.7)"/>
            <g id="Stripes_9_">
              <path id="Stripe_32_" fill="#871212" d="M 38.451 39.058 C 38.451 39.058 41.390 41.147 40.258 46.652 L 39.358 46.652 C 39.358 46.652 40.184 41.981 37.626 39.531 L 38.451 39.058 Z " transform="matrix(1.8856488466262817, 0, 0, 1.8856488466262817, -1.3, -1.7)"/>
              <path id="Stripe_31_" fill="#871212" d="M 41.625 37.781 C 41.625 37.781 44.176 39.823 43.697 45.755 L 44.826 45.465 C 44.826 45.465 45.375 40.593 42.937 37.437 L 41.625 37.781 Z " transform="matrix(1.8856488466262817, 0, 0, 1.8856488466262817, -1.3, -1.7)"/>
              <path id="Stripe_30_" fill="#871212" d="M 35.062 41.093 C 35.062 41.093 36.937 43.468 36.437 46.452 L 35.792 46.351 C 35.792 46.351 35.280 42.278 34.374 41.670 L 35.062 41.093 Z " transform="matrix(1.8856488466262817, 0, 0, 1.8856488466262817, -1.3, -1.7)"/>
              <path id="Stripe_29_" fill="#871212" d="M 48.437 40.968 C 48.369 40.798 48.287 38.093 47.644 37.437 L 46.218 37.230 C 46.218 37.230 47.663 38.547 47.331 40.836 C 47.331 40.836 49.054 42.362 48.854 44.368 L 49.905 44.368 C 49.906 44.368 49.968 42.031 48.437 40.968 Z " transform="matrix(1.8856488466262817, 0, 0, 1.8856488466262817, -1.3, -1.7)"/>
            </g>
            <path id="Outline_19_" d="M 52.023 43.362 C 51.703 42.480 50.861 41.736 49.519 41.149 C 49.933 40.117 50.169 38.292 48.531 37.423 C 48.484 37.405 47.396 36.980 45.515 36.980 C 42.132 36.980 36.806 38.325 30.632 44.731 L 30.386 44.986 L 30.709 45.132 C 30.748 45.150 34.663 46.901 39.144 46.901 C 40.246 46.901 41.304 46.796 42.292 46.588 C 44.196 46.186 45.671 45.755 46.856 45.408 C 49.155 44.735 50.399 44.416 51.624 45.121 L 51.849 45.250 L 51.970 45.021 C 51.986 44.992 52.355 44.278 52.023 43.362 Z M 51.613 44.550 C 50.330 43.934 48.996 44.261 46.717 44.928 C 45.541 45.272 44.076 45.701 42.190 46.098 C 41.237 46.299 40.211 46.401 39.145 46.401 C 35.520 46.401 32.271 45.225 31.249 44.816 C 37.190 38.762 42.278 37.480 45.517 37.480 C 47.277 37.480 48.318 37.876 48.322 37.876 C 49.773 38.647 49.302 40.314 49.064 40.934 C 48.458 40.740 47.009 40.511 45 41.750 C 45 41.750 47.098 40.700 49.281 41.603 C 50.484 42.127 51.275 42.785 51.549 43.523 C 51.708 43.953 51.669 44.323 51.613 44.550 Z " transform="matrix(1.8856488466262817, 0, 0, 1.8856488466262817, -1.3, -1.7)"/>
          </g>
          <g id="Top_2_">
            <path id="Base_Fill_4_" fill="#AF2020" d="M 21.250 36.531 C 21.250 36.531 20 35.593 20.625 34.469 C 21.250 33.345 22.375 32.862 22.375 32.978 C 22.375 33.094 33.187 41.989 45.375 32.573 L 45.375 31.292 C 45.375 31.292 49.937 33.407 48.437 37.657 C 48.437 37.657 45.701 36.782 43.164 39.532 C 40.625 42.282 38.375 48.157 18.937 42.594 C 18.937 42.594 17.375 42.094 18.187 40.594 C 18.999 39.094 21.437 37.656 21.250 36.531 Z " transform="matrix(1.8856488466262817, 0, 0, 1.8856488466262817, -1.3, -1.7)"/>
            <g id="Stripes_8_">
              <path id="Stripe_28_" fill="#871212" d="M 23.548 33.852 C 23.548 33.852 21.843 34.460 22.718 37.230 C 22.718 37.230 22.656 38.812 21.406 40.125 C 20.156 41.438 20.187 42.375 19.968 42.875 L 21.968 43.352 C 21.968 43.352 22.062 41.625 22.874 40.657 C 23.686 39.689 23.835 38.286 23.917 37.659 C 23.999 37.032 23.124 35.532 24.468 34.501 L 23.548 33.852 Z " transform="matrix(1.8856488466262817, 0, 0, 1.8856488466262817, -1.3, -1.7)"/>
              <path id="Stripe_27_" fill="#871212" d="M 26.904 35.662 C 26.922 35.402 26.300 36.748 26.508 38.515 C 26.717 40.282 25.654 41.185 25.248 42.358 C 24.842 43.531 24.783 44.036 24.783 44.036 L 26.240 44.315 C 26.240 44.315 26.933 41.781 27.533 40.739 C 28.133 39.697 27.800 38.679 27.800 37.647 C 27.800 36.615 28.123 36.159 28.123 36.159 L 26.904 35.662 Z " transform="matrix(1.8856488466262817, 0, 0, 1.8856488466262817, -1.3, -1.7)"/>
              <path id="Stripe_26_" fill="#871212" d="M 30.812 36.661 C 30.812 36.740 30.105 38.573 30.521 40.406 C 30.937 42.239 29.823 44.540 29.823 44.540 L 31.219 44.632 C 31.219 44.632 32.062 42.512 31.854 40.647 C 31.646 38.782 31.587 38.201 31.887 36.804 L 30.812 36.661 Z " transform="matrix(1.8856488466262817, 0, 0, 1.8856488466262817, -1.3, -1.7)"/>
              <path id="Stripe_25_" fill="#871212" d="M 34.656 36.812 C 34.656 36.812 35.594 39.437 34.812 41.781 C 34.812 41.781 35.500 43.170 34.374 44.632 L 35.123 44.632 C 35.123 44.632 36.218 43.695 35.905 41.942 C 35.905 41.942 37.178 40.811 35.962 36.813 L 34.656 36.813 Z " transform="matrix(1.8856488466262817, 0, 0, 1.8856488466262817, -1.3, -1.7)"/>
              <path id="Stripe_24_" fill="#871212" d="M 38.767 36.103 C 38.767 36.103 40.665 38.489 39.771 41.718 C 39.771 41.718 40 42.197 39.562 43.051 L 40.646 42.322 C 40.646 42.322 40.900 41.754 40.834 41.551 C 40.768 41.348 41.994 39.727 40.186 35.629 L 38.767 36.103 Z " transform="matrix(1.8856488466262817, 0, 0, 1.8856488466262817, -1.3, -1.7)"/>
              <path id="Stripe_23_" fill="#871212" d="M 43.146 34.135 C 43.146 34.135 44.917 35.406 44.480 38.427 L 45.584 37.802 C 45.584 37.802 45.584 34.656 44.063 33.594 L 43.146 34.135 Z " transform="matrix(1.8856488466262817, 0, 0, 1.8856488466262817, -1.3, -1.7)"/>
              <path id="Stripe_22_" fill="#871212" d="M 45.625 32.694 C 45.625 32.694 48.557 33.616 48.311 37.230 L 48.325 37.616 C 48.325 37.616 50.397 34.239 45.376 31.385 L 45.625 32.694 Z " transform="matrix(1.8856488466262817, 0, 0, 1.8856488466262817, -1.3, -1.7)"/>
            </g>
            <path id="Outline_18_" d="M 45.480 31.064 L 45.125 30.899 L 45.125 32.448 C 41.488 35.230 37.621 36.641 33.630 36.641 C 27.375 36.641 23.076 33.247 22.612 32.858 L 22.595 32.709 L 22.345 32.709 C 22.046 32.709 20.997 33.283 20.406 34.346 C 19.871 35.310 20.500 36.215 20.987 36.637 L 20.979 36.659 C 20.988 36.666 20.998 36.670 21.007 36.677 C 20.989 37.191 20.280 37.889 19.592 38.566 C 18.971 39.177 18.329 39.808 17.968 40.475 C 17.685 40.996 17.628 41.474 17.798 41.896 C 18.069 42.572 18.829 42.822 18.868 42.834 C 24.250 44.374 28.764 45.155 32.286 45.155 C 38.835 45.155 41.016 42.502 42.608 40.565 C 42.862 40.257 43.102 39.964 43.346 39.701 C 44.815 38.109 46.344 37.774 47.367 37.774 C 47.969 37.774 48.357 37.894 48.361 37.895 L 48.591 37.968 L 48.671 37.740 C 50.230 33.326 45.527 31.086 45.480 31.064 Z M 48.273 37.359 C 47.509 37.205 45.130 37.031 42.980 39.361 C 42.730 39.631 42.484 39.931 42.224 40.247 C 41.984 40.538 41.734 40.839 41.464 41.142 C 36.900 42.648 32.405 41.093 32.405 41.093 C 35.579 42.899 39.573 42.102 40.872 41.769 C 39.331 43.283 37.017 44.655 32.286 44.655 C 28.811 44.655 24.343 43.881 19.015 42.356 C 19.009 42.354 18.443 42.164 18.261 41.706 C 18.151 41.430 18.200 41.096 18.407 40.713 C 18.732 40.112 19.347 39.507 19.942 38.923 C 20.635 38.241 21.290 37.590 21.460 36.958 C 22.875 37.736 24.562 37.687 24.562 37.687 C 22.796 37.246 21.904 36.738 21.486 36.430 L 21.480 36.391 L 21.400 36.331 C 21.357 36.298 20.334 35.508 20.843 34.590 C 21.325 33.721 22.115 33.285 22.315 33.218 C 23.277 34.136 27.789 37.141 33.629 37.141 C 37.769 37.141 41.773 35.670 45.528 32.769 L 45.624 32.694 L 45.624 31.706 C 46.621 32.280 49.263 34.148 48.273 37.359 Z " transform="matrix(1.8856488466262817, 0, 0, 1.8856488466262817, -1.3, -1.7)"/>
          </g>
        </g>
      </g>
    </g>
  </g>
</svg>