<svg width="393" height="229" viewBox="-1 -1 393 229" xmlns="http://www.w3.org/2000/svg"><path fill="#653614" stroke="#010101" d="M21.143 18.186l237.705 6.731v137.347l-237.705-10.06V18.186M43.273.389L18.435 10.525l240.413 6.268 23.523-9.518L43.273.39" stroke-width=".774"/><path fill="#653614" stroke="#010101" d="M282.371 14.471l-23.523 10.446v-8.124l23.523-9.518v7.196M16.578 117.23H1.644V97.807h14.005l.929 19.421m212.17-9.748h14.083v17.487h-14.083V107.48zm0 56.718v9.904l14.083 1.47v-10.136l-14.083-1.238" stroke-width=".774"/><path fill="#653614" stroke="#010101" d="M242.831 165.436l16.172-13.696-12.69-.696-17.565 13.154 14.083 1.238" stroke-width=".774"/><path fill="#653614" stroke="#010101" d="M242.831 175.573l17.023-12.845-.85-10.988-16.173 13.696v10.137m-1.471-50.528l-.463 37.45-6.036-.077-2.244-37.373h8.744M1.644 155.222h13.154v10.214l-13.154-.232v-9.982m0 0l19.112-13.773h15.011l-20.97 13.773H1.645" stroke-width=".774"/><path fill="#653614" stroke="#010101" d="M6.75 152.282h8.048v-35.053H5.203l1.548 35.053m8.047 13.154l20.97-14.702v-9.285l-20.97 13.773v10.214m1.702-49.29l212.248 7.351v-10.755l-212.79-7.506.542 10.91m-.541-10.91l-.31-7.428 17.41-11.994.31 8.512-17.41 10.91m9.285-87.515v68.093l-5.649-.31 1.161-67.783h4.488m233.604 76.914l.155-69.95h-5.184v69.64l5.03.31" stroke-width=".774"/><path fill="#653614" stroke="#010101" d="M19.595 85.504l13.464.31-17.41 11.994H1.644l17.951-12.304m-3.636 19.732l212.79 7.506v-3.715l-207.993-6.731-4.797 2.94" stroke-width=".774"/><path fill="#FFF" stroke="#010101" d="M28.649 94.17l-7.506 5.804-.387 2.322 207.992 6.731v-1.547l9.518-7.196L28.649 94.17" stroke-width=".774"/><g fill="#010101"><path d="M238.266 100.284l-4.875 4.023-.851-.077-1.47-.232 4.797-3.792 2.399.078M53.1 94.945l-4.488 3.559-.851-.155-1.393-.155 4.333-3.327 2.399.078"/><path d="M45.285 100.516l-.155 2.785h-.31l.155-2.785 6.81-5.649h.31l-6.81 5.649m12.148-5.494l-4.41 3.56-.929-.155-1.393-.155 4.333-3.327 2.4.077"/><path d="M49.618 100.593l-.155 2.786h-.31l.155-2.863 6.81-5.571h.31l-6.81 5.648m11.994-5.571l-4.411 3.56-.851-.078-1.47-.232 4.333-3.327 2.399.077"/><path d="M53.796 100.593l-.154 2.786h-.31l.155-2.786 6.81-5.571h.309l-6.81 5.571M40.72 94.558l-4.411 3.56-.851-.156-1.47-.154 4.41-3.328 2.322.078"/><path d="M32.982 100.052l-.155 2.785h-.31l.155-2.785 6.81-5.572h.309l-6.81 5.572M44.82 94.48l-4.874 4.024-.851-.155-1.47-.155 4.797-3.791 2.399.077"/><path d="M36.541 100.438l-.077 2.4h-.31l.155-2.4 6.81-5.57h.309l-6.887 5.57m4.643 0l-.155 2.4h-.31l.155-2.4 6.81-5.57h.309l-6.81 5.57m-12.07-.541l-.155 2.863h-.31l.155-2.863 6.81-5.571h.31l-6.81 5.57m3.947-5.726l-4.411 3.56-.852-.077-1.47-.232 4.333-3.328 2.4.078"/><path d="M25.244 99.742l-.155 2.786h-.232l.077-2.786 6.81-5.571h.31l-6.81 5.571m44.183-4.565l-4.41 3.56-.852-.078-1.47-.232 4.333-3.328 2.399.078"/><path d="M61.612 100.748l-.155 2.786h-.31l.155-2.786 6.81-5.571h.309l-6.81 5.571m11.453-5.184l-4.411 3.559-.851-.077-1.47-.232 4.333-3.328 2.399.078"/><path d="M65.248 101.135l-.154 2.785h-.31l.155-2.785 6.81-5.571h.309l-6.81 5.57m4.566.001l-.155 2.785h-.232l.077-2.785 6.81-5.571h.309l-6.81 5.57m-12.07-.541l-.155 2.786h-.232l.077-2.786 6.81-5.571h.386l-6.886 5.571m23.367-4.72l-4.41 3.56-.85-.155-1.471-.155 4.333-3.327 2.399.077"/><path d="M73.296 101.444l-.078 2.786h-.31l.078-2.863 6.81-5.571h.386l-6.886 5.648m12.148-5.494l-4.41 3.56-.852-.155-1.47-.155 4.333-3.327 2.399.078"/><path d="M77.629 101.522l-.078 2.785h-.309l.077-2.863 6.81-5.57h.387l-6.887 5.648m11.993-5.572l-4.41 3.56-.851-.077-1.47-.233 4.333-3.327 2.398.078"/><path d="M81.807 101.522l-.077 2.785h-.31l.155-2.785 6.81-5.571h.309l-6.887 5.57m15.631-5.493l-4.41 3.56-.852-.155-1.47-.155 4.333-3.327 2.399.077"/><path d="M89.622 101.6l-.077 2.785h-.31l.078-2.863 6.81-5.571h.386l-6.887 5.648m11.452-5.184l-4.41 3.56-.851-.156-1.47-.154 4.333-3.328 2.398.078"/><path d="M93.26 101.986l-.078 2.786h-.31l.078-2.863 6.809-5.572h.387l-6.887 5.649m4.566 0l-.078 2.786h-.31l.155-2.863 6.732-5.572h.387l-6.886 5.649m-12.071-.542l-.078 2.786h-.31l.155-2.786 6.81-5.648h.31l-6.887 5.648m23.213-4.797l-4.41 3.56-.852-.155-1.47-.155 4.333-3.327 2.399.077"/><path d="M101.152 102.14l-.155 2.786h-.31l.155-2.785 6.81-5.571h.31l-6.81 5.57m12.148-5.416l-4.41 3.56-.852-.155-1.47-.155 4.333-3.327 2.4.077"/><path d="M105.485 102.218l-.155 2.786h-.232l.077-2.786 6.81-5.571h.31l-6.81 5.571m11.994-5.494l-4.411 3.56-.851-.155-1.47-.155 4.333-3.327 2.399.077"/><path d="M109.663 102.296l-.154 2.785h-.233l.078-2.863 6.81-5.571h.309l-6.81 5.649m15.708-5.416l-4.41 3.558-.852-.154-1.47-.155 4.333-3.327 2.4.077"/><path d="M117.556 102.45l-.155 2.786h-.232l.077-2.863 6.81-5.571h.31l-6.81 5.648m11.452-5.184l-4.41 3.56-.852-.155-1.47-.155 4.333-3.327 2.399.077"/><path d="M121.193 102.837l-.155 2.786h-.232l.077-2.863 6.81-5.571h.309l-6.81 5.648m4.566 0l-.077 2.786h-.31l.078-2.863 6.809-5.571h.387l-6.887 5.648m-12.071-.541l-.077 2.785h-.31l.078-2.785 6.809-5.65h.387l-6.887 5.65m23.368-4.643l-4.41 3.56-.851-.156-1.47-.154 4.333-3.328 2.398.078"/><path d="M129.24 103.147l-.155 2.863h-.31l.156-2.863 6.809-5.572h.31l-6.81 5.572m12.148-5.417l-4.41 3.56-.851-.155-1.47-.155 4.333-3.327 2.398.077"/><path d="M133.573 103.224l-.155 2.863h-.232l.078-2.863 6.809-5.571h.31l-6.81 5.571m11.994-5.494l-4.41 3.56-.852-.078-1.47-.232 4.333-3.327 2.399.077"/><path d="M137.752 103.301l-.155 2.786h-.232l.077-2.786 6.81-5.57h.309l-6.81 5.57m16.018-5.648l-4.41 3.56-.852-.078-1.47-.232 4.333-3.328 2.399.078"/><path d="M145.954 103.224l-.078 3.25h-.31l.078-3.25 6.81-5.571h.386l-6.886 5.571m11.452-5.184l-4.41 3.56-.852-.078-1.47-.232 4.333-3.328 2.399.078"/><path d="M149.59 103.61l-.154 2.787h-.232l.077-2.786 6.81-5.571h.386l-6.887 5.57m4.566 0l-.078 3.25h-.31l.078-3.25 6.81-5.57h.386l-6.886 5.57m-12.071-.54l-.078 2.785h-.31l.156-2.786 6.809-5.57h.31l-6.887 5.57m23.755-4.719l-4.41 3.559-.852-.155-1.47-.155 4.333-3.327 2.399.077"/><path d="M158.025 103.843l-.155 2.786h-.232l.077-2.786 6.81-5.571h.309l-6.81 5.571m12.149-5.493l-4.41 3.636-.852-.155-1.47-.155 4.333-3.327h2.4"/><path d="M162.358 103.92l-.078 2.786h-.309l.077-2.786 6.81-5.57h.387l-6.887 5.57m11.993-5.493l-4.41 3.559-.851-.155-1.47-.155 4.333-3.327 2.398.078"/><path d="M166.536 103.998l-.077 2.785h-.31l.155-2.863 6.732-5.57h.387l-6.887 5.648m15.554-5.262l-4.411 3.56-.851-.078-1.47-.232 4.333-3.327 2.398.077"/><path d="M174.274 104.307l-.155 2.786h-.232l.078-2.786 6.809-5.57h.31l-6.81 5.57m11.916-5.648l-4.875 4.023-.85-.077-1.47-.232 4.797-3.792 2.398.078"/><path d="M177.91 104.694l-.154 2.786h-.31l.155-2.786 6.81-5.571h.31l-6.81 5.571m4.565 0l-.155 2.786h-.232l.078-2.786 6.809-5.571h.31l-6.81 5.571m-12.071-.541l-.077 2.785h-.31l.078-2.785 6.809-5.572h.387l-6.887 5.572m23.523-5.03l-4.41 3.56-.852-.155-1.47-.155 4.333-3.327 2.4.077"/><path d="M186.113 104.694l-.155 2.786h-.31l.155-2.786 6.81-5.648h.31l-6.81 5.648m12.148-5.494l-4.41 3.56-.851-.155-1.47-.155 4.333-3.327 2.398.077"/><path d="M190.446 104.772l-.155 2.785h-.31l.156-2.785 6.809-5.649h.31l-6.81 5.649M202.44 99.2l-4.41 3.56-.852-.078-1.47-.232 4.333-3.327 2.399.077"/><path d="M194.625 104.772l-.155 2.785h-.232l.077-2.785 6.81-5.572h.309l-6.81 5.572m15.631-5.185l-4.41 3.637-.852-.155-1.47-.154 4.41-3.328h2.322"/><path d="M202.517 105.159l-.155 2.785h-.31l.156-2.785 6.809-5.572h.31l-6.81 5.572m11.839-5.572l-4.875 4.024-.851-.155-1.47-.155 4.797-3.791 2.399.077"/><path d="M206.076 105.545l-.077 2.786h-.31l.155-2.786 6.81-5.57h.31l-6.888 5.57m4.644 0l-.156 2.786h-.31l.156-2.786 6.809-5.57h.31l-6.81 5.57m-12.071-.541l-.155 2.785h-.31l.156-2.785 6.809-5.571h.31l-6.81 5.57m23.678-5.029l-4.41 3.56-.852-.078-1.47-.232 4.333-3.327 2.399.077"/><path d="M214.51 105.545l-.077 2.786h-.31l.156-2.786 6.809-5.57h.31l-6.887 5.57m12.149-5.493l-4.411 3.559-.852-.077-1.47-.233 4.333-3.327 2.4.078"/><path d="M218.921 105.623l-.155 2.785h-.309l.155-2.785 6.809-5.571h.31l-6.81 5.57m12.381-5.957l-4.798 3.946-.928-.077-1.393-.155 4.72-3.792 2.399.078"/><path d="M223.1 105.623l-.155 2.785h-.31l.155-2.785 6.81-5.571h.309l-6.81 5.57m4.334.465l-.155 2.786h-.31l.155-2.786 7.274-6.035h.31l-7.274 6.035"/></g><path fill="#653614" stroke="#010101" d="M29.732 90.92l214.956 4.953-4.256 4.643-210.7-6.345v-3.25" stroke-width=".774"/><path d="M122.353 162.728a2.328 2.328 0 0 1-2.321-2.322l4.952-5.958a2.328 2.328 0 0 1 2.322-2.321 2.328 2.328 0 0 1 2.32 2.321l-4.951 5.958c0 1.316-1.006 2.322-2.322 2.322zm6.113 0a2.328 2.328 0 0 1-2.321-2.322l4.952-5.958a2.328 2.328 0 0 1 2.321-2.321 2.328 2.328 0 0 1 2.322 2.321l-4.952 5.958a2.328 2.328 0 0 1-2.322 2.322zm6.114 0a2.328 2.328 0 0 1-2.322-2.322l4.952-5.958a2.328 2.328 0 0 1 2.321-2.321 2.328 2.328 0 0 1 2.322 2.321l-4.953 5.958c-.077 1.316-1.083 2.322-2.32 2.322z" stroke-width=".774" fill="#E5E5E5" stroke="#010101"/><path fill="#653614" stroke="#010101" d="M242.831 125.045V107.48l16.017-12.845-.464 21.666-15.553 8.744M18.435 10.525l240.413 6.268v8.124L18.435 17.721v-7.196m230.122 81.866l-3.869 3.482-214.956-4.952 3.327-3.56 215.498 5.03" stroke-width=".774"/><path fill="#653614" stroke="#010101" d="M247.474 93.63l11.374 1.005-16.017 12.845h-14.083l18.726-13.85" stroke-width=".774"/><path fill="#653614" stroke="#010101" d="M278.502 149.806L279.818 15.4l-21.434 9.595v138.739l20.118-13.928M33.06 79.237v8.125l215.497 5.03v-6.888L33.06 79.237" stroke-width=".774"/><path fill="#653614" stroke="#010101" d="M248.557 81.326l-4.797 4.101 1.625.077 1.78 8.667 1.624-.542-.232-12.303" stroke-width=".774"/><path fill="#653614" stroke="#010101" d="M33.06 75.523l-3.328 2.244 3.327 1.47 210.7 6.19 4.798-4.1L33.06 75.522" stroke-width=".774"/></svg>