<svg width="72" height="78" xmlns="http://www.w3.org/2000/svg"><path fill="#FAA83B" d="M60.881 57.091c.233.88-.161 2.215-1.186 4.003-1.023 1.789-2.105 3.064-3.246 3.826s-2.911 1.261-5.308 1.495c-1.931.176-3.73-.675-5.396-2.551-1.668-1.876-2.617-3.958-2.851-6.245-.645-6.45-1.464-11.083-2.458-13.898-.118-.703-.439-1.743-.966-3.122-.526-1.377-1.725-2.507-3.597-3.387a201.012 201.012 0 0 1-4.299-1.671c-.234-.058-.526-.058-.877 0-.819.234-2.517.703-5.09 1.407v8.532c0 .118.044.675.132 1.671.088.998.132 1.702.132 2.111.117.998.265 3.637.44 7.916.409.177.849.177 1.319 0 1.583-.645 2.99-.791 4.222-.439.88.294 1.319.998 1.319 2.111 0 1.643-.865 2.625-2.595 2.946-1.73.323-4.266.778-7.608 1.364-2.698.527-4.692.791-5.981.791-1.994 0-3.373-.469-4.134-1.407-.176-1.936.82-3.107 2.99-3.519 1.76-.176 3.519-.381 5.277-.616.234-.292.353-.615.353-.967-.06-1.349-.382-6.187-.968-14.514-.176-1.993-.235-3.519-.176-4.574-1.056-.058-1.76-.146-2.111-.264-.88-.293-1.438-.85-1.671-1.671v-.265c.116-.058.204-.352.264-.879.82-1.29 1.876-1.788 3.167-1.496.116-.352.088-1.289-.089-2.814-.527-5.57-.851-10.027-.967-13.37-.235-.233-.734-.293-1.496-.176-1.173.235-1.789.352-1.847.352-3.167 0-4.692-.761-4.574-2.287.117-1.407 1.319-2.256 3.606-2.551 2.052-.409 6.362-1.055 12.931-1.935-.294.059 1.788.146 6.245.264 5.159.411 8.766 1.262 10.819 2.551 2.228 1.467 3.723 3.401 4.485 5.806.233.763.293 1.906.176 3.431-.059 1.525-.294 2.609-.703 3.254-1.35 2.463-4.076 4.662-8.181 6.598 0 .176.029.294.088.352 1.466 1.056 2.463 1.994 2.991 2.814 1.523 2.463 2.551 6.041 3.078 10.731.762 6.393 1.377 10.409 1.847 12.051.059.352.469.909 1.231 1.671.762.764 1.378 1.174 1.848 1.231 1.816.118 2.932-.703 3.343-2.463-.06-.645.204-1.524.791-2.639.821-.762 1.817-1.144 2.991-1.144 1.175.002 1.937.531 2.29 1.585zM43.289 26.217c.527-.527.791-1.348.791-2.463 0-2.99-1.056-5.13-3.166-6.421-2.111-1.289-6.686-1.876-13.723-1.759-.527 0-1.319.234-2.375.703.177.88.177 1.613 0 2.199-.059.88-.059 1.701 0 2.463.029 1.583.089 3.549.177 5.894.292 3.46.439 5.396.439 5.805.996-.058 2.463-.352 4.398-.879.292-.293.703-.616 1.231-.968.409-.117 1.465-.176 3.166-.176 3.226.001 6.247-1.464 9.062-4.398z"/><path fill="#0CC" d="M50.648 77.438c-3.449 0-8.526-1.088-13.128-6.269l-.227-.259a14.999 14.999 0 0 1-4.707 1.702 779.26 779.26 0 0 1-7.614 1.365c-3.42.665-5.96.975-7.984.975-6.808 0-10.652-2.98-12.679-5.48a10.995 10.995 0 0 1-2.41-5.932c-.563-6.204 2.626-11.558 8.035-14.086a3207.25 3207.25 0 0 0-.272-3.923 13.297 13.297 0 0 1-3.694-6.104 10.998 10.998 0 0 1-.419-3.007v-.265c0-1.246.211-2.461.605-3.601.287-1.123.75-2.197 1.376-3.181.325-.511.673-.995 1.042-1.453a11.826 11.826 0 0 1-.022-.265c-1.784-.669-3.623-1.739-5.209-3.452-2.405-2.6-3.578-5.997-3.301-9.568.661-7.95 7.168-11.688 12.729-12.55 2.388-.458 6.752-1.11 13.314-1.989a11.023 11.023 0 0 1 3.026.012c.621.028 1.998.08 4.969.158.195.005.391.016.585.031 7.113.566 12.132 1.9 15.793 4.199.068.042.135.085.202.129 4.316 2.843 7.401 6.877 8.921 11.667l.033.107c.64 2.091.844 4.411.64 7.289-.15 3.249-.861 5.917-2.17 8.135a21.353 21.353 0 0 1-2.747 3.801c.916 2.609 1.583 5.57 2.017 8.929.41-.031.824-.047 1.242-.047 5.88 0 10.873 3.57 12.72 9.096.073.221.14.442.199.667 1.51 5.689-1.337 10.658-2.272 12.291-1.895 3.312-4.082 5.77-6.682 7.506-2.695 1.8-6.08 2.878-10.346 3.296-.569.054-1.07.076-1.565.076z"/><path fill="#FFF" d="M60.881 57.091c.233.88-.161 2.215-1.186 4.003-1.023 1.789-2.105 3.064-3.246 3.826s-2.911 1.261-5.308 1.495c-1.931.176-3.73-.675-5.396-2.551-1.668-1.876-2.617-3.958-2.851-6.245-.645-6.45-1.464-11.083-2.458-13.898-.118-.703-.439-1.743-.966-3.122-.526-1.377-1.725-2.507-3.597-3.387a201.012 201.012 0 0 1-4.299-1.671c-.234-.058-.526-.058-.877 0-.819.234-2.517.703-5.09 1.407v8.532c0 .118.044.675.132 1.671.088.998.132 1.702.132 2.111.117.998.265 3.637.44 7.916.409.177.849.177 1.319 0 1.583-.645 2.99-.791 4.222-.439.88.294 1.319.998 1.319 2.111 0 1.643-.865 2.625-2.595 2.946-1.73.323-4.266.778-7.608 1.364-2.698.527-4.692.791-5.981.791-1.994 0-3.373-.469-4.134-1.407-.176-1.936.82-3.107 2.99-3.519 1.76-.176 3.519-.381 5.277-.616.234-.292.353-.615.353-.967-.06-1.349-.382-6.187-.968-14.514-.176-1.993-.235-3.519-.176-4.574-1.056-.058-1.76-.146-2.111-.264-.88-.293-1.438-.85-1.671-1.671v-.265c.116-.058.204-.352.264-.879.82-1.29 1.876-1.788 3.167-1.496.116-.352.088-1.289-.089-2.814-.527-5.57-.851-10.027-.967-13.37-.235-.233-.734-.293-1.496-.176-1.173.235-1.789.352-1.847.352-3.167 0-4.692-.761-4.574-2.287.117-1.407 1.319-2.256 3.606-2.551 2.052-.409 6.362-1.055 12.931-1.935-.294.059 1.788.146 6.245.264 5.159.411 8.766 1.262 10.819 2.551 2.228 1.467 3.723 3.401 4.485 5.806.233.763.293 1.906.176 3.431-.059 1.525-.294 2.609-.703 3.254-1.35 2.463-4.076 4.662-8.181 6.598 0 .176.029.294.088.352 1.466 1.056 2.463 1.994 2.991 2.814 1.523 2.463 2.551 6.041 3.078 10.731.762 6.393 1.377 10.409 1.847 12.051.059.352.469.909 1.231 1.671.762.764 1.378 1.174 1.848 1.231 1.816.118 2.932-.703 3.343-2.463-.06-.645.204-1.524.791-2.639.821-.762 1.817-1.144 2.991-1.144 1.175.002 1.937.531 2.29 1.585zM43.289 26.217c.527-.527.791-1.348.791-2.463 0-2.99-1.056-5.13-3.166-6.421-2.111-1.289-6.686-1.876-13.723-1.759-.527 0-1.319.234-2.375.703.177.88.177 1.613 0 2.199-.059.88-.059 1.701 0 2.463.029 1.583.089 3.549.177 5.894.292 3.46.439 5.396.439 5.805.996-.058 2.463-.352 4.398-.879.292-.293.703-.616 1.231-.968.409-.117 1.465-.176 3.166-.176 3.226.001 6.247-1.464 9.062-4.398z"/></svg>