<svg xmlns="http://www.w3.org/2000/svg" viewBox="0 0 45.5 52"><path fill="#53AD4E" d="M45.2 44.8c-.3 0-.8 0-1.2-.2-.9-.3-1.9-.5-2.6-1.1-2-1.8-3-4.3-3.8-6.9-.6-2.1-1.1-4.2-1.8-6.3-.5-1.6-1.4-3.1-3.1-3.8-.8-.3-1.5-.5-2.3-.8 1.1-.5 2.1-.9 3.1-1.5.9-.6 1.9-1.1 2.6-1.9 1.6-1.8 2.6-3.9 3.2-6.2.6-2.2.4-4.5-.3-6.7-.9-3-2.6-5.3-5-7.2-.7-.5-1.7-.8-2.6-1.1C30 .7 28.5.3 27.1.2c-2.6-.1-5.2 0-7.8 0-2.3 0-4.6-.2-6.9-.3-2.4.1-5 .2-7.5.2-.2 0-.5.1-.6.2-1.5.8-2.7 1.9-3.7 3.3C0 4.3 0 5 .2 5.8c.1.5.3.6.8.6 1-.1 2-.1 3 0 .6 0 1.3.2 1.4 1 .1 1.7.2 3.3.2 5 0 1.1-.2 2.1-.2 3.1.1 3.5.3 6.9.3 10.3 0 3.2-.1 6.5-.1 9.7 0 3-.1 6-.2 9v.1c-.3.2-.7.2-.9.4L.9 48.6c-.8.8-.9 1.7-.6 2.8-.1.3.2.6.5.6 1.7-.1 3.4-.3 5.1-.3 3.2 0 6.5-.6 9.7-.1.3 0 .7-.1.9-.2.8-.9 1.5-1.8 2.2-2.7.2-.3.5-.7.6-1 .1-.7 0-1.4 0-2.1 0-.2-.3-.4-.5-.4-.7-.1-1.4-.1-2-.3-1.3-.2-1.7-.8-1.7-2V30.7c2.7.3 5.3 0 7.7 1.3 1.3.7 2.6 1.4 3.2 2.8.8 1.6 1.4 3.3 2.1 5 .5 1.3 1.1 2.6 1.7 3.8.1.2.2.5.3.7.7 1.9 1.8 3.5 3.7 4.4 2.4 1.1 5 1.7 7.7 1.8.2 0 .4 0 .6-.2.7-.7 1.5-1.4 2-2.2.7-1.1 1.9-1.8 1.1-3.3zM.6 5.5c.1-.4.1-.8.3-1C2 3.2 3.1 2 4.3.8c.1 0 .2.1.3.2-.1.4-.1 1-.3 1.2C3.1 3.3 1.9 4.3.6 5.5zm3.5.1H1.9c.4-.9 1.3-1.5 2.1-2.2.9-.8 1.8-1 2.9-.9.9.1 1.5.5 1.5 1.5 0 1.4-.1 2.8-.1 4.1 0 1.6.1 3.3.1 4.9 0 2-.1 4-.2 5.9v10.9c.1 3.7.1 7.4.1 11 0 .8-.1 1.7 0 2.5 0 .9-.4 1.2-1.2 1.4-.5.1-.9.1-1.3.2.1-.5.2-1 .2-1.5.1-5.8.3-11.7.3-17.5 0-3.5-.2-7-.3-10.6 0-.6.1-1.2.2-1.8.3-2.2.2-4.3-.2-6.4-.3-.8-.9-1.4-1.9-1.5zM.8 51c-.4-.7.1-1.2.4-1.6.9-1.1 1.9-2.2 2.8-3.3.1-.1.2-.1.4-.2.3.9-.2 1.5-.6 2.1-.8 1-1.7 1.9-2.6 2.8-.1.1-.3.2-.4.2zm17.6-3.2l.3.3-1.5 1.2c-.2.2-.5.3-.5.6-.4 1.1-1.1 1-2.1.9-1.5-.1-3 0-4.5.1-1.9 0-3.9.1-5.8.1-.8 0-1.6.1-2.5.2.5-.6.9-1.1 1.3-1.6.5-.6 1-1.1 1.5-1.7.2-.2.5-.4.8-.4 4.4.1 8.7.2 13 .3zM15.6 4.5c0-.2.2-.6.4-.7 1-.6 2.1-.9 3.2-.8 1.1.1 2.3.2 3.5.2 4.3-.2 9.1 3 10.4 7.6.8 2.6.3 5.1-.8 7.5-.7 1.5-1.7 2.8-3.1 3.8l-1.5.9-.1-.1c.6-.5 1.3-1 1.8-1.6 2.1-3 2.2-6.4 1.3-9.8-.4-1.5-1.8-2.4-3.2-3.2-1.8-1-3.7-1.1-5.6-1.1-2.1-.1-4.2 0-6.4 0 0-1.1 0-1.9.1-2.7zm.2 3h7.6c1.9 0 3.6.8 5 1.9.9.7 1.4 2 1.7 3.1.5 1.7.3 3.4-.1 5.1-.6 2.8-2.7 4.8-5.5 5.4-1.9.4-3.8.7-5.6 1.4-1.1.4-2 1.4-3 2.2-.2.2-.3.4-.6.5.1-6.5-.5-13.1.5-19.6zm.1 20c.8-.6 1.6-1.2 2.4-1.9.2.7-.1 1.1-.6 1.5-.9.7-1.7 1.5-2.5 2.3-.2-1.1-.1-1.4.7-1.9zm25.5 22.1c-.1.1-.2.1-.4.1-2.6-.3-5.2-.7-7.5-2.2-1.3-.8-2.3-1.8-2.7-3.5-.1-.3-.2-.6-.4-1-.6-1.3-1.1-2.6-1.7-3.9-.2-.4-.4-.8-.6-1.3-.3-.7-.5-1.5-.8-2.2-.5-1.4-1.3-2.6-2.4-3.4-1.8-1.3-3.8-2.2-6-2.2-1.1 0-2.2-.1-3.4-.2 1.2-1 2.4-2.1 3.6-3.1.1-.1.3-.1.5-.1 2.3.3 4.7.1 6.8 1.2 1.5.8 2.5 2.1 3.5 3.5 1.4 2 1.9 4.2 2.6 6.5.6 2.2 1.4 4.3 2.9 6.1 1.3 1.6 3.2 2.3 5.2 2.5 1.2.1 2.3.3 3.3.4-.8 1-1.6 1.9-2.5 2.8z"/><path fill="#FFF" d="M18.7 48.1l-1.5 1.2c-.2.2-.5.3-.5.6-.4 1.1-1.1 1-2.1.9-1.5-.1-3 0-4.5.1-1.9 0-3.9.1-5.8.1-.8 0-1.6.1-2.5.2.5-.6.9-1.1 1.3-1.6.5-.6 1-1.1 1.5-1.7.2-.2.5-.4.8-.4 4.3 0 8.6.1 12.9.2l.4.4zm-15-.1c-.8 1-1.7 1.9-2.6 2.8 0 .1-.2.2-.3.2-.4-.7.1-1.2.4-1.6.9-1.1 1.9-2.2 2.8-3.3.1-.1.2-.1.4-.2.3.9-.2 1.6-.7 2.1zm.9-47c-.1.4-.1 1-.3 1.2C3.1 3.3 1.9 4.3.6 5.5c.1-.4.1-.8.3-1C2 3.2 3.1 2 4.3.8c.1 0 .2.1.3.2zm3.6 17.9v10.9c.1 3.7.1 7.4.1 11 0 .8-.1 1.7 0 2.5 0 .9-.4 1.2-1.2 1.4-.5.1-.9.1-1.3.2.1-.5.2-1 .2-1.5.1-5.8.3-11.7.3-17.5 0-3.5-.2-7-.3-10.6 0-.6.1-1.2.2-1.8.3-2.2.2-4.3-.2-6.4-.3-.8-.9-1.4-1.9-1.5H1.9c.4-.9 1.3-1.5 2.1-2.2.9-.8 1.8-1 2.9-.9.9.1 1.5.5 1.5 1.5 0 1.4-.1 2.8-.1 4.1 0 1.6.1 3.3.1 4.9-.1 2-.2 4-.2 5.9zm24.1-.7c-.7 1.5-1.7 2.8-3.1 3.8l-1.5.9-.1-.1c.6-.5 1.3-1 1.8-1.6 2.1-3 2.2-6.4 1.3-9.8-.4-1.5-1.8-2.4-3.2-3.2-1.8-1-3.7-1.1-5.6-1.1-2.1-.1-4.2 0-6.4 0V4.8c0-.2.2-.6.4-.7 1-.6 2.1-.9 3.2-.8 1.1.1 2.3.2 3.5.2 4.3-.2 9.1 3 10.4 7.6.8 2.2.4 4.7-.7 7.1zm-14.6 8.9c-.9.7-1.7 1.5-2.5 2.3-.2-1 0-1.4.7-1.9.8-.6 1.6-1.2 2.4-1.9.2.7-.1 1.1-.6 1.5zm26.2 19.8c-.8.9-1.6 1.8-2.5 2.7-.1.1-.2.1-.4.1-2.6-.3-5.2-.7-7.5-2.2-1.3-.8-2.3-1.8-2.7-3.5-.1-.3-.2-.6-.4-1-.6-1.3-1.1-2.6-1.7-3.9-.2-.4-.4-.8-.6-1.3-.3-.7-.5-1.5-.8-2.2-.5-1.4-1.3-2.6-2.4-3.4-1.8-1.3-3.8-2.2-6-2.2-1.1 0-2.2-.1-3.4-.2 1.2-1 2.4-2.1 3.6-3.1.1-.1.3-.1.5-.1 2.3.3 4.7.1 6.8 1.2 1.5.8 2.5 2.1 3.5 3.5 1.4 2 1.9 4.2 2.6 6.5.6 2.2 1.4 4.3 2.9 6.1 1.3 1.6 3.2 2.3 5.2 2.5 1.2.2 2.3.4 3.3.5z"/></svg>