<svg width="271" height="249" xmlns="http://www.w3.org/2000/svg"><path fill="#764E2A" stroke="#000" d="M47.6 134.002a3.333 3.333 0 0 0 3.332 3.332h2.874a3.333 3.333 0 0 0 3.332-3.332v-25.07a3.332 3.332 0 0 0-3.332-3.332h-2.874a3.332 3.332 0 0 0-3.332 3.332v25.07z" stroke-width=".278"/><path fill="#010101" stroke="#010101" d="M52.37 131.642c1.94 0 3.7.396 4.973 1.037 1.273.641 2.061 1.526 2.061 2.503 0 .976-.788 1.86-2.061 2.501-1.274.642-3.033 1.039-4.974 1.039-1.941 0-3.7-.397-4.973-1.039-1.274-.64-2.063-1.525-2.063-2.501 0-.977.79-1.862 2.063-2.503 1.273-.64 3.032-1.037 4.973-1.037z" stroke-width=".278"/><path fill="#764E2A" stroke="#000" d="M31.823 134.002a3.332 3.332 0 0 1-3.333 3.332h-2.874a3.333 3.333 0 0 1-3.332-3.332v-25.07a3.332 3.332 0 0 1 3.332-3.332h2.874a3.331 3.331 0 0 1 3.333 3.332v25.07z" stroke-width=".278"/><path fill="#010101" stroke="#010101" d="M27.054 131.642c1.94 0 3.7.396 4.973 1.037 1.274.641 2.062 1.526 2.062 2.503 0 .976-.788 1.86-2.062 2.501-1.274.642-3.033 1.039-4.973 1.039-1.941 0-3.7-.397-4.974-1.039-1.274-.64-2.062-1.525-2.062-2.501 0-.977.788-1.862 2.062-2.503 1.274-.64 3.033-1.037 4.974-1.037z" stroke-width=".278"/><path fill="#603A17" stroke="#010101" d="M13.795 96.629c.47 1.946-.401 3.98-2.147 4.568l-1.842.62c-1.744.587-3.811-.818-4.38-3.167C1.752 80.608 6.659 63.805 19.47 50.58c1.743-1.674 4.241-1.745 5.395-.312l1.22 1.515c1.153 1.433.793 3.617-.652 5.005-10.618 11.128-14.599 24.746-11.638 39.84zm51.513 0c-.472 1.946.4 3.98 2.144 4.568l1.842.62c1.743.587 3.81-.818 4.379-3.167C77.35 80.607 72.44 63.807 59.63 50.58c-1.744-1.674-4.243-1.745-5.396-.312l-1.219 1.515c-1.153 1.433-.793 3.617.652 5.005 10.621 11.13 14.594 24.744 11.64 39.84z" stroke-width=".278"/><path d="M29.448 16.52c-1.158-.776-1.553-1.736-1.692-3.132-.138-1.393-.253-2.771-.45-4.159-.3-2.12-1.803-5.043-4.481-4.018-2.205.843-1.292 3.586-.78 5.238.048.156.159.555.22.765-.04.065-.084.553-.104.621-.08.29-.177.575-.303.848-.587 1.279-2.111.17-2.05-.935.09-1.648.243-2.82-.363-4.416-.356-.937-.742-2.005-1.478-2.72-1.601-1.555-2.951.438-3.272 1.899-.248 1.129-.283 2.485-.559 3.692-3.03-2.806-3.897-8.18-8.139-9.434C4.15.223 1.824.075.664 1.912c-.928 1.472-.293 3.56.293 5.027a19.685 19.685 0 0 0 2.607 4.628c1.632 2.139 4.059 3.729 6.327 5.119 5.773 3.538 12.592 5.74 19.339 6.247.578.044.966-.218 1.17-.596.22-.052.44-.168.644-.365 2.226-2.155.4-4.116-1.596-5.452zm20.204 0c1.158-.776 1.554-1.736 1.693-3.132.138-1.393.253-2.771.45-4.159.3-2.12 1.802-5.043 4.48-4.018 2.205.843 1.292 3.586.78 5.238-.048.156-.159.555-.22.765.041.065.085.553.104.621.08.29.177.575.303.848.587 1.279 2.112.17 2.051-.935-.092-1.648-.244-2.82.363-4.416.355-.937.74-2.005 1.477-2.72 1.602-1.555 2.951.438 3.274 1.899.247 1.129.283 2.485.558 3.692 3.03-2.806 3.897-8.18 8.139-9.434 1.846-.546 4.174-.694 5.332 1.143.93 1.472.293 3.56-.293 5.027a19.616 19.616 0 0 1-2.607 4.628c-1.631 2.139-4.059 3.729-6.326 5.119-5.773 3.538-12.592 5.74-19.338 6.247-.58.044-.967-.218-1.17-.596a1.37 1.37 0 0 1-.644-.365c-2.227-2.155-.4-4.116 1.594-5.452z" fill="#010101"/><path fill="#764E2A" stroke="#000" d="M39.56 41.954c8.339 0 15.894 4.327 21.367 11.316 5.47 6.991 8.859 16.644 8.859 27.297 0 10.654-3.388 20.307-8.859 27.296-5.473 6.99-13.028 11.317-21.367 11.317s-15.896-4.327-21.367-11.317c-5.472-6.99-8.859-16.643-8.859-27.296 0-10.653 3.387-20.306 8.859-27.297 5.471-6.99 13.028-11.316 21.367-11.316z" stroke-width=".278"/><path fill="#C2B59C" d="M20.043 97.344c0 5.933 1.332 11.43 3.6 15.931 4.654 3.74 10.163 5.906 16.068 5.906 5.906 0 11.413-2.165 16.069-5.906 2.267-4.501 3.6-9.998 3.6-15.931 0-15.256-8.806-27.623-19.669-27.623-10.862 0-19.668 12.367-19.668 27.623z"/><path fill="#764E2A" stroke="#000" d="M52.223 29.882c.045-.596.07-1.2.07-1.812 0-4.473-1.227-8.55-3.242-11.627.92-.221 1.875-.748 2.693-1.554 1.828-1.803 2.277-4.31 1.004-5.6-1.272-1.29-3.786-.876-5.612.926-.772.76-1.293 1.645-1.548 2.51-1.755-1.28-3.754-2.01-5.877-2.01-2.225 0-4.315.801-6.128 2.2-.231-.926-.773-1.885-1.6-2.7-1.826-1.803-4.34-2.217-5.612-.926-1.273 1.29-.823 3.797 1.004 5.6.898.885 1.961 1.433 2.96 1.61-1.992 3.071-3.206 7.125-3.206 11.57 0 .613.025 1.217.07 1.812-2.6 2.143-4.191 4.948-4.191 8.026 0 3.353 1.871 6.39 4.895 8.59 3.024 2.2 7.2 3.561 11.809 3.561 4.608 0 8.784-1.361 11.807-3.561 3.024-2.2 4.896-5.238 4.896-8.59 0-3.078-1.593-5.883-4.192-8.025z" stroke-width=".278"/><path fill="#010101" d="M34.65 20.26c.438 0 .836.195 1.124.51.288.313.466.747.466 1.226s-.178.913-.466 1.227a1.52 1.52 0 0 1-1.124.508c-.44 0-.837-.194-1.125-.508a1.813 1.813 0 0 1-.466-1.227c0-.479.178-.913.466-1.227a1.522 1.522 0 0 1 1.125-.508zm10.846 0c.439 0 .837.195 1.124.51.29.313.467.747.467 1.226s-.178.913-.467 1.227a1.518 1.518 0 0 1-1.124.508 1.52 1.52 0 0 1-1.124-.508 1.807 1.807 0 0 1-.466-1.227c0-.479.177-.913.466-1.227a1.52 1.52 0 0 1 1.124-.508z"/><path fill="#C2B59C" d="M39.711 35.86c-6.99 0-12.657 4.282-12.657 9.565 0 .138.006.276.013.413 3.063 2.58 7.59 4.215 12.644 4.215 5.055 0 9.581-1.635 12.645-4.215.007-.137.013-.274.013-.413 0-5.283-5.667-9.564-12.658-9.564z"/><path fill="#EC2227" stroke="#ED1C24" d="M39.711 29.517c1.038 0 1.98.47 2.661 1.229.682.759 1.103 1.807 1.103 2.964 0 1.158-.421 2.206-1.103 2.965-.681.76-1.623 1.23-2.66 1.23-1.04 0-1.98-.47-2.662-1.23-.68-.759-1.102-1.807-1.102-2.965 0-1.157.421-2.205 1.102-2.964.682-.76 1.623-1.23 2.661-1.23z" stroke-width=".278"/><path fill="#FFF" stroke="#010101" d="M47.6 43.114c0 2.612-3.533 4.728-7.889 4.728-4.357 0-7.888-2.116-7.888-4.728 0-2.612 3.531-2.231 7.888-2.231 4.356 0 7.889-.381 7.889 2.23z" stroke-width=".278"/></svg>