<svg width="35" height="81" xmlns="http://www.w3.org/2000/svg"><path d="M22.29.693h2.383c.3 5.259 3.042 8.076 3.97 12.707-1.541 5.545-5.341 6.284-8.736 11.119 5.79 6.387 14.255 10.1 15.09 21.443v3.177c-3.274 13.404-7.952 25.404-19.06 30.974h-3.972c-3.906-4.036-7.085-8.8-9.53-14.296 5.063-5.088 13.48-7.79 13.501-15.09.027-8.838-14.494-11.604-15.09-21.443v-3.971c3.88-11.476 9.42-21.29 21.444-24.62zM7.2 14.988c-.228 9.73-1.9 13.365 3.177 19.061 3.424 3.842 9.032 5.004 10.325 8.736 2.616 7.555-2.555 15.789-9.53 19.855.887 3.877 1.771 7.759 5.559 8.736 7.865-8.243 19.277-16.825 15.09-30.18-2.604-8.3-16.144-10.454-16.679-18.266-.402-5.86 5.509-9.244 10.325-9.53-1.39-3.111-1.61-7.39-3.971-9.53C16.204 7.05 10.526 9.843 7.2 14.988z"/><path fill="#FF9400" d="M21.496 3.87c2.36 2.14 2.58 6.419 3.97 9.53-4.815.286-10.726 3.67-10.324 9.53.535 7.812 14.075 9.965 16.678 18.267 4.188 13.354-7.224 21.936-15.09 30.18-3.787-.978-4.67-4.86-5.559-8.737 6.976-4.066 12.147-12.3 9.53-19.855-1.292-3.732-6.9-4.894-10.324-8.736C5.3 28.353 6.972 24.718 7.2 14.989c3.326-5.146 9.004-7.94 14.296-11.12z"/></svg>