<svg xmlns="http://www.w3.org/2000/svg" viewBox="0 0 28.9 47.8"><path fill="#41A2F2" d="M28.1 40.3c-.3.8-.7 1.6-1.3 2.3-1.7 2.1-3.7 3.8-6.5 4.5-3.6.9-7.2 1-10.8.3-2.2-.5-4.5-.9-6.3-2-.4.3-.7.6-1 .8-.1 0-.1.1-.2.1-1.9.5-2.1.4-2-1.5.1-2.8.3-5.5.5-8.3 0-.3-.1-.6-.2-1h2.3c.2 0 .4.3.4.5.6 1.6.9 3.3 1.8 4.7 1.2 1.8 2.9 3.2 5.1 4 2.4.8 4.7.6 7-.1 3-1 4.7-3.3 5.9-6.1.8-1.9.3-3.6-.1-5.4-.3-1.2-1.3-2-2.3-2.6-1.5-1-3.1-2-4.7-2.9-1.1-.6-2.2-1-3.4-1.5-2.9-1.3-5.5-3-7.9-5C2 19.2 1.1 16.6.6 13.8.4 12 .4 10.5 1 9.1c.7-1.7 1.7-3.2 2.9-4.6C5.8 2.4 8.1 1.1 10.7.4c2.9-.7 5.9-.7 8.8.5l3.6 1.5c.5.2.9.4 1.4.7 0-.2.1-.3 0-.4-.3-1.3.1-1.1 1.1-1.2 2 0 1.9 0 1.8 1.9-.2 2.3-.2 4.7-.3 7v.8c-.9-.1-1.8-.2-2.6-.3-.1 0-.3-.2-.3-.4 0-2-1.1-3.5-2.4-4.9-2-2.2-4.6-3.3-7.6-2.9C11.4 3 8.9 4 7.3 6.5c-1.8 2.9-1.8 6-.3 9 .5 1 1.6 1.8 2.6 2.5 3 2.1 6.6 3 10.1 4.2 1.3.4 2.5.9 3.7 1.6 2.9 1.6 4.5 4.2 5.2 7.5.5 3.1.5 6-.5 9z"/></svg>