<svg width="178" height="206" viewBox="-1 -1 178 206" xmlns="http://www.w3.org/2000/svg"><path fill="#FBD43F" d="M101.747 151.165S49.595 10.646 49.053 9.64c-.464-1.006-1.934-2.476-4.565-2.553-5.107.232-8.512 2.94-11.22 6.732-3.56 4.255-7.815 6.731-12.535 7.737l-1.548-3.25c1.78-.386 3.714-1.16 5.649-2.553 3.172-1.857 6.5-5.416 9.981-9.672C41.702.123 48.511-2.276 54.934 7.087c0 0 55.635 131.542 58.884 133.554 4.101 2.476 6.113 1.238 6.423-3.327-7.196-16.327-15.321-33.814-20.119-54.242-1.083-6.577-1.083-13.386.233-20.428 1.392-3.482-.387-6.345-3.637-9.053l33.814 14.237c-10.291-3.559-10.214 8.512-10.833 19.345l16.636 49.058c6.732 21.356-25.225 30.719-34.588 14.934z"/><path fill="#010101" d="M19.185 17.61l2.012 4.488c-.232.774-16.56 5.262-20.505 6.035l.773-1.78c2.4-.85 3.947-2.32 4.798-4.41l6.964-2.94 1.934.31 4.024-1.703zm50.064 18.648c.661 0 1.26.312 1.695.817.435.504.703 1.2.703 1.969 0 .768-.268 1.465-.703 1.97-.434.504-1.034.815-1.695.815-.662 0-1.262-.311-1.696-.816-.435-.504-.703-1.2-.703-1.97 0-.768.268-1.464.703-1.968.434-.505 1.034-.817 1.696-.817zm3.095 7.196c.917 0 1.75.399 2.352 1.043.602.645.975 1.535.975 2.517s-.373 1.872-.975 2.516a3.212 3.212 0 0 1-2.352 1.043c-.918 0-1.75-.398-2.353-1.043a3.679 3.679 0 0 1-.974-2.516c0-.982.372-1.872.974-2.517.603-.644 1.435-1.043 2.353-1.043zm4.178 8.666c.854 0 1.628.408 2.188 1.066.56.659.907 1.568.907 2.571 0 1.004-.346 1.913-.907 2.572-.56.657-1.334 1.065-2.188 1.065-.854 0-1.628-.408-2.188-1.065-.56-.659-.907-1.568-.907-2.572 0-1.003.347-1.912.907-2.57.56-.659 1.334-1.066 2.188-1.066zm3.637 8.822c.897 0 1.71.398 2.297 1.043.588.644.953 1.534.953 2.516s-.365 1.872-.953 2.517c-.588.644-1.4 1.043-2.297 1.043-.897 0-1.71-.399-2.297-1.043a3.727 3.727 0 0 1-.953-2.517c0-.982.365-1.872.953-2.516.588-.645 1.4-1.043 2.297-1.043zm3.946 10.988c.662 0 1.261.303 1.696.793a2.88 2.88 0 0 1 .703 1.915 2.88 2.88 0 0 1-.703 1.914c-.435.49-1.034.794-1.696.794-.661 0-1.261-.303-1.695-.794a2.88 2.88 0 0 1-.703-1.914c0-.748.268-1.425.703-1.915.434-.49 1.034-.794 1.695-.794zm4.101 7.196c1.067 0 2.035.529 2.736 1.383.7.854 1.133 2.034 1.133 3.337 0 1.302-.433 2.482-1.133 3.336-.701.855-1.669 1.384-2.736 1.384-1.067 0-2.034-.53-2.735-1.384-.7-.854-1.134-2.034-1.134-3.336 0-1.303.434-2.483 1.134-3.337.701-.854 1.668-1.383 2.735-1.383zm5.107 10.987c1.153 0 2.198.538 2.954 1.406.757.868 1.225 2.068 1.225 3.392 0 1.324-.468 2.523-1.225 3.391-.756.868-1.8 1.406-2.954 1.406-1.153 0-2.197-.538-2.953-1.406-.757-.868-1.225-2.067-1.225-3.391 0-1.324.468-2.524 1.225-3.392.756-.868 1.8-1.406 2.953-1.406zm5.03 10.756c1.067 0 2.034.538 2.735 1.406.7.868 1.134 2.067 1.134 3.391 0 1.324-.434 2.524-1.134 3.392-.7.868-1.668 1.406-2.735 1.406s-2.034-.538-2.736-1.406c-.7-.868-1.133-2.068-1.133-3.392 0-1.324.433-2.523 1.133-3.391.702-.868 1.669-1.406 2.736-1.406zm3.172 11.529c1.132 0 2.157.512 2.9 1.338.742.827 1.201 1.968 1.201 3.228 0 1.26-.46 2.4-1.201 3.227-.743.826-1.768 1.338-2.9 1.338-1.131 0-2.156-.512-2.9-1.338-.741-.826-1.2-1.968-1.2-3.227 0-1.26.459-2.401 1.2-3.228.744-.826 1.769-1.338 2.9-1.338zm6.035 11.53c.812 0 1.547.381 2.08.998.532.616.861 1.467.861 2.406 0 .94-.33 1.79-.862 2.407-.532.616-1.267.998-2.078.998-.811 0-1.546-.382-2.079-.998-.532-.616-.862-1.467-.862-2.407s.33-1.79.862-2.406c.533-.617 1.268-.998 2.079-.998z"/><path d="M69.249 39.044l-4.024 2.166m6.113 6.655l-4.024 2.166m8.357 6.269l-3.946 2.166m7.195 6.964l-4.023 2.089m9.363 7.196l-4.024 2.167m6.577 8.279l-3.946 2.167m9.208 9.208l-4.023 2.166m8.975 8.202l-4.023 2.167m7.351 9.44l-4.024 2.167m11.142 7.66l-4.023 2.09" stroke-width="1.548" fill="none" stroke="#000" stroke-linecap="round"/></svg>