<svg width="62" height="91" viewBox="-1 -1 62 91" xmlns="http://www.w3.org/2000/svg"><g stroke="#000" stroke-linecap="round" stroke-width="1.033"><path d="M31.593 72.66l.155 3.874m-2.221-4.804l.155 4.132m-2.48-5.682v4.03m-2.066-4.752l-.103 3.615m-2.221-4.958l.155 3.512m-2.221-5.062v3.77m-1.911-4.493v3.1m-1.962-4.649v3.615m-1.653-4.132v3.72" fill="none"/><path fill="#C9F" d="M27.202 15.226l-13.325-4.39.413 51.907L33.504 73.59l-.259-17.045-6.043-41.319z"/><path fill="#7F00FF" d="M24.403 20.157C17.494 16.52 11.337 10.898 3.485 9.052 1.5 8.586.223 13.117 1.419 14.733c1.767 2.371 5.733 1.292 8.264 2.583 2.91 1.588 5.098 4.133 7.85 5.94 3.869 2.545 7.47 5.724 11.88 7.23 3.337 1.299 7.11 1.583 10.754.962 2.56-.435 7.046-3 6.806-3.802-.243-.83-5.477.59-8.005-.258-4.963-1.666-9.658-4.763-14.565-7.231z"/><path fill="#C9F" d="M29.618 17.594c-5.965-1.415-11.059-5.669-17.045-6.972-1.5-.327-.308 2.314.259 3.099 2.05 2.627 4.685 4.82 7.23 6.662 3.752 2.715 7.47 5.725 11.88 7.231 3.337 1.299 7.204 1.519 10.754.962 2.884-.455 5.875-2.04 7.84-4.267.952-1.084 1.4-4.147-.259-4.649-6.608-1.968-13.936-.44-20.66-2.066z"/><path fill="#7F00FF" d="M34.24 16.22c-6.202-.968-11.077-6.07-16.785-8.006C13.33 6.816 8.799 5.56 4.542 6.148 2.89 6.376.176 9.463 1.702 10.28c4.688 2.46 11.202.951 16.27 2.582 4.384 1.437 8.29 4.251 12.395 6.198 4.102 1.947 7.931 5.91 12.396 5.682 3.3-.17 6.264-3.646 7.489-6.457.513-2.232-1.253-5.14-3.357-5.423-4.462-.601-8.433 4.036-12.654 3.357z"/><path fill="#666" d="M40.218 6.704c-.226-.225 2.201.631 1.446.207-3.285-1.706-6.5-3.751-9.968-4.7-.867-.238.587 1.418.62 2.169.022.512-.341 1.015-.62 1.498-.497 1.086-2.408 2.173-1.704 3.202 1.637 2.39 4.746 3.244 7.315 4.715.983.562 2.026 1.296 3.195 1.173 1.098-.11 1.3-1.64 2.092-2.22 1.372-.42 3.982.356 4.132-.62.177-1.194-2.225-2.477-3.512-3.513-.937-.758-2.35-1.282-2.996-1.91z"/><path fill="#C9F" d="M26.557 7.995c-4.983-1.85-8.935-6.822-14.23-7.23-2.644-.197-6.62 3.715-5.68 5.164 1.247 1.926 7.112.449 10.329 1.808 4.219 1.781 7.563 5.53 11.88 7.231 2.973 1.228 5.728 1.916 8.676 1.808 3.218-.134 6.972-.277 9.297-2.48 1.32-1.252.123-4.176-1.188-5.526-1.615-1.663-4.154-2.509-6.456-2.48-1.854.025-3.148 2.267-5.01 2.48a15.45 15.45 0 0 1-7.618-.775z"/></g></svg>