<svg width="89" height="131" viewBox="0 56 89 131" xmlns="http://www.w3.org/2000/svg"><path fill="#871212" d="M10.022 74.49c-.224-.051-.958-.263-1.04-.84-.082-.575.53-.912.73-1.024.193-.058 3.408-.509 6.665-2.724-.313-.262-.61-.519-.892-.773-1.362 1.282-5.076 2.626-7.976 2.886-.393-.077-1.113-.328-1.166-.905-.049-.579.581-.886.788-.988.197-.047 3.49-.324 6.896-2.415a22.72 22.72 0 0 1-.93-1.054c-1.234 1.148-5.194 2.368-8.213 2.472-.387-.1-1.094-.387-1.113-.97-.019-.582.628-.85.84-.938.203-.038 3.68-.129 7.299-2.184-.21-.324-.404-.652-.583-.98-1.314.938-4.84 1.781-7.722 1.781-.186 0-.371-.003-.55-.011-.377-.128-1.06-.471-1.036-1.054.025-.579.689-.8.906-.873l.486-.019c.867 0 3.89-.12 7.101-1.676-.14-.41-.239-.777-.309-1.094-1.535.896-4.757 1.62-7.425 1.62-.187 0-.37-.004-.551-.012-.377-.128-1.062-.47-1.037-1.054.024-.578.688-.8.907-.873l.48-.015c.89 0 4.05-.132 7.353-1.8l.087-.044c.196-.515.918-.888 1.235-1.031l.595-.266.066.648c.643 6.306 7.786 11.554 7.858 11.608l.645.468-2.225 1.05-.213-.18c-1.284 1.314-4.91 2.85-7.784 3.262l-.087.015-.085-.014z"/><path d="M11.444 58.333c.671 6.596 8.05 11.94 8.05 11.94l-1.23.583-.35-.298c-.014.026-.015.04-.03.07-.6 1.09-4.585 2.943-7.756 3.403 0 0-1.4-.317-.185-.99 0 0 3.649-.479 7.216-3.111a27.803 27.803 0 0 1-1.706-1.473c-.02.04-.028.07-.057.115-.656 1.058-4.735 2.693-7.927 2.98 0 0-1.378-.394-.13-1.002 0 0 3.703-.279 7.427-2.755a20.446 20.446 0 0 1-1.682-1.912c-.035.07-.07.144-.133.236-.715 1.02-4.877 2.427-8.082 2.538 0 0-1.354-.467-.076-1.001 0 0 3.822-.07 7.737-2.434 0 0 .028 0 .068-.004a13.796 13.796 0 0 1-1.152-1.97c-.038.058-.066.116-.125.188-.746.905-4.591 1.933-7.716 1.933-.179 0-.356-.004-.531-.012 0 0-1.317-.567 0-1.009 0 0 .118.008.337.008 1.018 0 4.2-.15 7.562-1.848h.01c.023 0 .078.004.144.011-.371-.946-.53-1.72-.588-2.257-.019.027-.025.04-.045.07-.747.905-4.592 1.933-7.716 1.933-.18 0-.357-.004-.532-.012 0 0-1.316-.567 0-1.005 0 0 .117.008.332.008 1.014 0 4.199-.15 7.565-1.852h.002c.02 0 .202.004.366.059l.003-.059c-.41-.467.93-1.07.93-1.07m.805-1.396l-1.192.537c-.418.189-1.09.557-1.399 1.113-3.19 1.595-6.226 1.72-7.084 1.72-.17 0-.268-.008-.28-.008l-.178-.008-.172.055c-.984.328-1.212.888-1.23 1.3-.037.884.874 1.344 1.155 1.464l.16.07.175.008c.187.007.377.011.57.011 2.332 0 5.323-.552 7.12-1.376l.038.128c-2.98 1.344-5.716 1.454-6.525 1.454-.171 0-.271-.004-.284-.004l-.18-.011-.171.054c-.983.332-1.21.892-1.228 1.303-.037.885.873 1.345 1.154 1.465l.16.07.176.008c.187.007.377.011.57.011 2.53 0 5.837-.649 7.551-1.595.03.047.059.1.09.147-3.344 1.761-6.44 1.848-6.472 1.848l-.18.004-.166.07c-.956.397-1.14.976-1.127 1.387.028.88.971 1.275 1.258 1.375l.166.064.175-.008c2.65-.092 6.428-1.097 8.13-2.29l.255.29c-3.113 1.76-5.988 2.006-6.02 2.01l-.178.017-.162.077c-.933.453-1.084 1.039-1.048 1.452.079.88 1.04 1.218 1.335 1.303l.168.047.173-.013a17.3 17.3 0 0 0 2.025-.324l-.092.05c-.907.506-1.028 1.098-.97 1.503.125.877 1.106 1.164 1.403 1.23l.17.04.172-.027c2.576-.371 6.138-1.742 7.744-3.09l.111.096.551-.263 1.23-.578 1.44-.681-1.29-.935c-.07-.051-7.044-5.182-7.665-11.275l-.132-1.295zM9.873 72.097c2.16-.51 4.435-1.392 5.635-2.32a.99.99 0 0 0 .086.074c-2.757 1.725-5.325 2.181-5.72 2.246z"/><path fill="#BA2915" d="M55.425 23.767s-11.51-.863-20.231 7.7c-8.721 8.566-5.422 17.129-24.67 26.951 0 0-1.494 5.815 8.093 13.122 0 0 16.371-9.115 20.442-21.766 4.071-12.647 15.155-19.767 21.042-19.808l6.417-.936-11.093-5.263z"/><path d="M15.547 55.69s-.45 7.755 8.599 12.279l2.17-1.77s-8.406-8.328-8.093-12.335l-2.676 1.826zm6.839-5.363s.551 5.97 9.272 10.92l2.593-2.752s-8.504-4.68-9.649-10.808l-2.216 2.64zm4.671-6.279s2.006 6.043 11.122 8.164l1.257-3.38s-9.545-2.995-11.176-6.957l-1.203 2.173zm4.513-8.128s1.621 5.16 10.599 7.072l1.983-2.799s-9.865-4.442-10.904-6.584l-1.679 2.311zm5.77-6.335l11.368 5.575 3.16-2.788s-10.725-5.13-11.381-4.903c-.656.226-3.147 2.116-3.147 2.116zm10.027-4.465l9.366 5.372 4.422-.687-9.336-6.01-4.452 1.324" fill="#871212"/><path d="M18.575 72.1l-.245-.184C8.608 64.5 10.001 58.55 10.067 58.299l.053-.205.189-.096C22.6 51.726 25.598 45.973 28.494 40.412c1.586-3.045 3.224-6.196 6.37-9.281 7.427-7.294 16.922-7.86 19.654-7.86.605 0 .943.027.943.027l12.666 5.975-7.958 1.16c-6.06.045-16.797 7.479-20.663 19.485-4.082 12.68-19.986 21.658-20.66 22.035l-.27.147zM10.95 58.727c-.126 1.043-.253 6.078 7.705 12.246 2.125-1.245 16.271-9.896 19.956-21.342 4.152-12.898 15.34-20.094 21.486-20.137l4.815-.705-9.65-4.578c-.016.018-.305.003-.744.001-2.642 0-11.823.55-18.992 7.588-3.038 2.983-4.571 5.929-6.195 9.044-2.949 5.662-5.998 11.515-18.381 17.883z"/><path fill="#BA2915" d="M48.708 26.671s10.924 4.952 21.547 2.712c10.626-2.24 14.043-4.954 17.933-2.712 0 0 2.121-4.005-4.831-6.833 0 0 2.357-4.831-1.414-6.836-.002 0-14.499-5.777-33.235 13.67z"/><path d="M63.11 15.646s5.543 3.939 3.408 14.32h-1.697s1.558-8.808-3.264-13.428l1.554-.892zm5.984-2.408s4.81 3.85 3.907 15.036l2.129-.547s1.035-9.187-3.562-15.138l-2.474.649zm-12.372 6.247s3.536 4.479 2.593 10.105l-1.216-.19s-.966-7.68-2.674-8.827l1.297-1.088zm25.218-.235c-.127-.321-.282-5.422-1.494-6.659l-2.69-.39s2.725 2.483 2.1 6.8c0 0 3.248 2.877 2.871 6.66h1.982c.002 0 .119-4.41-2.768-6.412z" fill="#871212"/><path d="M88.703 23.764c-.604-1.664-2.191-3.066-4.722-4.173.78-1.946 1.226-5.388-1.863-7.026-.089-.034-2.14-.836-5.687-.836-6.38 0-16.422 2.537-28.062 14.616l-.464.48.609.276c.073.034 7.458 3.336 15.904 3.336 2.077 0 4.073-.198 5.936-.59 3.59-.758 6.371-1.571 8.606-2.225 4.335-1.27 6.68-1.87 8.99-.542l.425.244.228-.432c.03-.057.726-1.403.1-3.128zm-.773 2.238c-2.42-1.162-4.935-.545-9.232.713-2.218.648-4.98 1.457-8.537 2.206-1.797.379-3.732.571-5.742.571-6.835 0-12.962-2.217-14.889-2.989C60.733 15.088 70.327 12.67 76.433 12.67c3.319 0 5.282.747 5.29.747 2.735 1.454 1.847 4.597 1.398 5.766-1.139-.365-3.871-.797-7.66 1.537 0 0 3.957-1.98 8.073-.277 2.269.988 3.76 2.229 4.277 3.62.298.815.224 1.51.119 1.939z"/><path fill="#BA2915" d="M30.676 10.88s-2.357-1.768-1.179-3.887c1.179-2.12 3.3-3.03 3.3-2.812 0 .219 20.388 16.992 43.368-.764V1.002s8.602 3.988 5.774 12.002c0 0-5.16-1.65-9.943 3.536-4.788 5.185-9.03 16.263-45.682 5.774 0 0-2.945-.943-1.414-3.772 1.531-2.828 6.13-5.54 5.776-7.661z"/><path d="M35.01 5.831s-3.214 1.147-1.564 6.37c0 0-.117 2.983-2.474 5.459-2.357 2.476-2.299 4.242-2.712 5.185l3.771.9s.178-3.257 1.709-5.082c1.531-1.825 1.812-4.47 1.967-5.653.154-1.183-1.496-4.011 1.039-5.955L35.01 5.83zm6.329 3.411c.034-.49-1.139 2.048-.747 5.38.393 3.332-1.61 5.035-2.377 7.247-.768 2.211-.875 3.164-.875 3.164l2.747.526s1.307-4.778 2.438-6.743c1.132-1.965.504-3.885.504-5.83 0-1.947.609-2.807.609-2.807l-2.299-.937zm7.369 1.884c0 .149-1.335 3.605-.55 7.062.784 3.456-1.317 7.795-1.317 7.795l2.633.174s1.59-3.998 1.197-7.515c-.392-3.517-.503-4.612.062-7.246l-2.025-.27zm7.249.287s1.768 4.95.294 9.37c0 0 1.295 2.619-.826 5.375h1.412s2.065-1.766 1.477-5.072c0 0 2.4-2.133.105-9.671h-2.462zm7.75-1.337s3.579 4.499 1.893 10.588c0 0 .432.903-.394 2.513l2.044-1.374s.479-1.071.354-1.454c-.124-.383 2.188-3.44-1.222-11.167l-2.675.894zm8.257-3.713s3.34 2.397 2.515 8.093l2.082-1.178s0-5.933-2.868-7.935l-1.73 1.02zm4.673-2.715S82.165 5.386 81.7 12.2l.027.728s3.907-6.368-5.561-11.75l.47 2.469z" fill="#871212"/><path d="M76.365.572l-.67-.311v2.92c-6.858 5.247-14.147 7.907-21.675 7.907-11.795 0-19.9-6.4-20.776-7.133l-.032-.281h-.472c-.561 0-2.541 1.082-3.654 3.087-1.01 1.817.175 3.524 1.096 4.32l-.015.041c.017.013.035.021.052.034-.034.97-1.369 2.286-2.668 3.562-1.17 1.152-2.381 2.342-3.064 3.6-.532.982-.64 1.884-.32 2.68.512 1.274 1.944 1.745 2.019 1.768 10.149 2.904 18.66 4.377 25.302 4.377 12.347 0 16.461-5.003 19.463-8.655.48-.581.932-1.134 1.392-1.63 2.77-3.002 5.653-3.633 7.582-3.633 1.135 0 1.867.226 1.874.228l.434.138.151-.43C85.322 4.837 76.454.615 76.365.572zm5.267 11.87c-1.441-.29-5.927-.618-9.981 3.775-.472.51-.935 1.075-1.426 1.67a57.371 57.371 0 0 1-1.433 1.689c-8.606 2.84-17.08-.093-17.08-.093 5.985 3.406 13.514 1.903 15.964 1.275-2.906 2.855-7.27 5.442-16.188 5.442-6.553 0-14.978-1.46-25.027-4.335-.011-.004-1.078-.362-1.422-1.226-.207-.52-.115-1.15.276-1.872.615-1.134 1.774-2.274 2.896-3.376 1.307-1.286 2.542-2.513 2.86-3.705 2.67 1.467 5.852 1.375 5.852 1.375-3.33-.832-5.014-1.79-5.8-2.37l-.012-.074-.15-.113c-.084-.062-2.013-1.552-1.05-3.283.908-1.639 2.398-2.46 2.773-2.587 1.812 1.73 10.32 7.397 21.334 7.397 7.805 0 15.355-2.774 22.437-8.244l.182-.141V1.783c1.88 1.082 6.861 4.604 4.995 10.66z"/></svg>