<svg width="147" height="69" xmlns="http://www.w3.org/2000/svg"><path d="M118.3 52.233c.469-1.289 2.163-3.423 2.607-3.195.45.224-.464 2.713-.977 3.91l-1.63-.715zm-4.146-.84c.47-1.287 2.16-3.42 2.609-3.192.447.226-.467 2.712-.978 3.912l-1.63-.72zm-3.736-1.018c.464-1.286 2.158-3.418 2.605-3.193.446.228-.467 2.715-.977 3.912l-1.628-.72zm-3.598-4.205c-.37.137-1.087-1.19-1.633-2.386.467-.458.963-.877 1.485-1.258.423 1.393.572 3.486.147 3.643zm-.117 3.213c.593-1.044 2.365-2.626 2.713-2.361.353.264-.8 2.283-1.416 3.24l-1.297-.879zm11.267-3.432c-.482-.203.046-2.368.562-4.056.697.277 1.391.56 2.101.803-.79 1.627-2.177 3.458-2.662 3.253zm-4.063-1.67c-.537-.116-.648-1.747-.402-3.518 0 0 2.158.1 2.669.204-.45 1.805-1.714 3.44-2.267 3.314zm-4.131.887c-.449.031-.817-1.928-1.002-3.335.578-.21 1.184-.38 1.818-.51.1 1.468-.34 3.814-.816 3.845zm13.86 1.5c-.416-.118-.305-1.651-.074-3.157.12.005.243.007.243.007l-.243-.007c1.247.012 1.76-.042 2.246-.124-.62 1.636-1.697 3.414-2.172 3.281zm16.738.766c-.41-.291.255-1.926 1.053-3.502l2.12 1.188c-1.238 1.396-2.746 2.612-3.173 2.314zm-5.221-1.746c-.51-.223-.008-2.344.568-4.208.924.054 1.715.356 2.496.68-.972 1.827-2.526 3.767-3.064 3.528zm-5.156.016c-.488-.052-.64-1.73-.649-3.517.833-.199 1.66-.452 2.51-.703-.359 2.05-1.285 4.282-1.86 4.22zm14.588 4.29c-.423-.304.304-2.04 1.135-3.665.165.091.33.186.33.186s-.085-.052-.33-.186c1.292.77 1.67 1.055 2.045 1.344-1.239 1.398-2.754 2.619-3.18 2.32z" stroke-width="1.155" fill="#FFF" stroke="#000"/><path fill="#2F8EFF" d="M99.085 47.538c2.612-5.16 9.739-9.027 15.229-8.579 4.7.386 8.537 4.459 13.513 2.446 11.75-4.757 13.555.032 22.138 6.128 2.478-17.217-8.754-32.842-20.954-39-10.375-5.239-39.293-4.34-56.807 5.276a.333.333 0 0 1-.102.11c-4.082 2.867-29.3-15.149-32.598-8.054-2.304 4.96 13.394 20.333 13.172 20.526-1.304 1.13-23.846 12.504-25.885 13.507-.626-.697-.538-1.664-.814-2.478-2.7-7.94-10.45-14.844-21.36-14.208-4.393 9.591 7.654 19.744 17.73 20.848-3.434 3.508-10.665 12.341-9.45 19.829.127.782.57 2.683.977 3.35.44.721 1.252 1.32 2.188 1.569 2.283.607 5.559-.892 7.476-1.858 5.451-2.75 7.71-13.909 5.677-20.827-.103-.35 4.486-.213 5.05-.213 10.214.002 22.526 2.189 31.84 5.552l5.391 1.983s14.67 5.35 19.821 7.8c8.139 3.615 19.484-1.326 26.443-7.626-3.15-.722-16.991-2.911-18.726-4.184-.649-.476-.238-1.322.051-1.897z"/><path d="M143.393 16.191c-3.585-3.816-8.256-7.356-14.335-10.221-11.45-5.397-41.237-3.556-57.805 6.715-6.468-3.207-28.304-15.304-33.476-8.97-.16.196-.291.403-.409.612-1.334 2.377 0 5.47 1.172 7.69 1.531 2.903 8.187 12.57 9.612 14.786C41.442 30.338 28.014 37.5 28.014 37.5 26.543 29.463 17.5 22.216 7.67 20.755a23.414 23.414 0 0 0-3.338-.291c-1.42-.013-2.972.186-3.374 1.177-.093.23-.161 2.423-.173 2.807-.124 4.419.48 7.741 3.327 11.567 1.342 1.802 2.507 3.251 4.324 4.493.533.362 1.112.71 1.779 1.04 3.515 1.742 6.16 2.611 9.51 3.1l-.084.062c-4.412 2.919-8.755 10.596-9.68 15.097-.406 1.974-.203 5.042.866 7.571.678 1.605 1.703 2.993 3.151 3.744 2.11 1.094 4.88-.246 6.865-.909.95-.316 1.815-.708 2.64-1.131 8.244-4.235 10.388-13.474 8.433-21.163-.013-.049-.02-.097-.033-.145a89.702 89.702 0 0 1 4.425.004c4.22.11 8.335.532 12.381 1.204 4.878.809 9.651 2 14.379 3.488.928.29 1.857.578 2.783.892.329.113 2.054.858 3.554 1.242h-.001c.349.122.834.301 1.418.52 5.357 2.014 19.353 7.623 19.353 7.623 9.653 4.342 22.436 1.004 29.819-7.354.253-.285.515-.56.754-.858.31-.385.618-1.012.376-1.504-5.753-2.88-12.744-2.48-18.252-5.632 1.905-5.298 10.569-7.133 14.97-4.797 5.105 2.712 7.875 1.246 12.453.218.365-.082.746-.161 1.136-.235.23-.043.458-.088.698-.127 7.905-1.301 17.425 8.103 19.692 7.986 2.754-.142 5.585-19.337-8.429-34.253zM91.317 61.244c-5.151-2.449-19.82-7.799-19.82-7.799l-5.392-1.983c-9.314-3.363-21.626-5.55-31.84-5.552-.564 0-5.153-.138-5.05.213 2.033 6.918-.226 18.078-5.677 20.827-1.917.966-5.193 2.466-7.476 1.858-.936-.25-1.748-.848-2.188-1.57-.407-.666-.85-2.569-.977-3.35-1.215-7.485 6.016-16.32 9.45-19.828C12.27 42.956.223 32.803 4.616 23.212c10.91-.636 18.66 6.268 21.36 14.208.276.813.188 1.78.814 2.478 2.039-1.003 24.58-12.376 25.885-13.507.222-.193-15.476-15.567-13.172-20.526C42.8-1.23 68.019 16.786 72.101 13.919a.333.333 0 0 0 .102-.11c17.514-9.616 46.43-10.514 56.807-5.277 12.199 6.16 23.43 21.784 20.954 39.001-8.583-6.095-10.387-10.885-22.138-6.128-4.978 2.013-8.814-2.06-13.513-2.446-5.49-.449-12.617 3.42-15.229 8.579-.289.575-.699 1.421-.05 1.898 1.735 1.273 15.577 3.462 18.727 4.184-6.961 6.298-18.306 11.24-26.445 7.624z"/><path d="M88.072 45.845c-6.824-2.706-7.875-13.934-4.73-18.67.67-1.008 2.32-3.306 3.253-2.973 1.736.618-.142 1.842-.71 2.81-2.508 4.266-2.077 10.551.282 14.794.603 1.083 1.771 1.878 2.67 2.718.924.851.194 1.7-.765 1.32zm-12.46-15.202c-.186 1.64-.443 1.962-.458 3.388-.046 4.552 1.881 6.94 5.134 9.501.795.626.604 1.61-.608 1.487-2.49-.253-3.66-2.397-4.78-3.965-1.676-2.688-2.387-6.947-1.888-10.11.316-2.014 2.813-2.181 2.6-.301z"/><path fill="#2F8EFF" d="M65.747 64.35c.634 1.13 3.55 1.279 4.88 1.405 6.32.58 13.703-2.34 17.444-6.444.842-.923 1.448-4.113 3.663-3.388-6.226-10.945-16.655-5.661-16.655-5.661v.007c.321.271.48.885.533 1.194 1.093 6.376-11.11 10.667-9.865 12.887z"/><path d="M91.734 55.923c-2.215-.726-2.821 2.465-3.663 3.388-3.741 4.104-11.126 7.025-17.444 6.444-1.33-.125-4.246-.274-4.88-1.405-1.245-2.22 10.958-6.512 9.865-12.887-.053-.31-.212-.923-.533-1.194-.216-.184-.504-.216-.89.12-1.857 8.104-13.493 10.661-13.679 13.67-.214 3.39 11.714 3.497 14.493 3.18 2.673-.305 5.151-.838 7.577-1.774 4.354-1.684 8.961-3.644 10.273-6.731.316-.75-.106-2.478-1.119-2.81z"/><path fill="#FFF" d="M98.341 13.01c.24 2.054 2.22 4.307 4.734 4.873 5.456 1.231 13.12-8.442 11.137-12.679-2.741-5.855-16.958-1.623-15.87 7.806z"/><path d="M106.13 9.776c.983 0 1.872.265 2.516.696.646.43 1.044 1.023 1.044 1.678s-.398 1.248-1.044 1.678c-.644.43-1.533.696-2.516.696-.983 0-1.872-.266-2.516-.696-.646-.43-1.044-1.023-1.044-1.678s.398-1.248 1.044-1.678c.644-.43 1.533-.696 2.516-.696z"/><path fill="#2F8EFF" d="M114.21 5.204c-2.31-4.94-12.794-2.7-15.36 3.785 4.654-1.528 11.222-2.634 15.633-2.73-.044-.375-.122-.735-.272-1.055z"/><path d="M116.09 6.271c-4.685-.22-13.533 1.236-18.714 3.237-1.644.635-2.92 1.324-3.574 2.035-.264.284-.603.803-.113 1.073 2.093-.71 3.95-1.73 6.078-2.395 4.272-1.333 8.774-2.15 13.429-2.204 1.504-.018 3.663.367 5.028.222.572-.063 1.11-.56.956-.992-.208-.589-1.369-.895-3.09-.976z"/><path d="M116.043 3.385c-5.415-8.087-22.052.67-20.292 9.416.577 2.879 3.277 6.285 6.968 6.94 7.418 1.316 17.256-10.474 13.324-16.356zm-12.968 14.498c-2.513-.566-4.495-2.819-4.734-4.873a8.247 8.247 0 0 1 .508-4.02c2.567-6.486 13.05-8.727 15.362-3.786.15.32.227.68.272 1.056.549 4.59-6.366 12.76-11.408 11.623z"/><path fill="#FFF" d="M132.736 15.732c.153 1.274 1.42 2.672 3.024 3.02 3.49.764 8.62-5.334 7.125-7.86-3.065-5.185-10.85-1.007-10.149 4.84z"/><path d="M137.682 13.301c.637 0 1.216.172 1.634.452.419.278.678.664.678 1.089 0 .425-.259.81-.678 1.088-.418.28-.997.452-1.634.452-.638 0-1.216-.172-1.634-.452-.42-.278-.678-.663-.678-1.088 0-.425.259-.811.678-1.09.418-.279.996-.45 1.634-.45z"/><path d="M144.028 10.13c-3.281.026-8.465.985-11.884 2.3-1.44.554-2.566 1.17-3.104 1.806-.184.221-.427.624-.08.834 1.489-.55 2.809-1.345 4.319-1.86 3.04-1.036 6.235-1.67 9.55-1.713 1.065-.013 2.597.287 3.57.174.409-.049.79-.433.68-.77-.179-.556-1.366-.786-3.05-.772z"/><path fill="#2F8EFF" d="M133.508 11.954c2.745-.878 6.159-1.527 8.884-1.742-2.493-3.054-7.038-1.552-8.884 1.742z"/><path d="M144.74 9.329c-5.157-8.228-15.672.46-14.423 6.488.409 1.983 2.33 4.33 4.95 4.78 5.274.907 12.08-7.11 9.473-11.268zm-8.98 9.424c-1.606-.35-2.871-1.747-3.024-3.021-.167-1.39.157-2.68.772-3.778 1.846-3.294 6.391-4.796 8.884-1.742.17.21.342.425.493.68 1.494 2.526-3.634 8.624-7.125 7.86z"/></svg>