<svg width="128" height="195" xmlns="http://www.w3.org/2000/svg"><path fill="#F1F2F2" stroke="#C2B59B" d="M104.16 137.549c2.583 0 4.922.471 6.616 1.233 1.695.761 2.743 1.813 2.743 2.975 0 1.162-1.048 2.215-2.743 2.976-1.694.762-4.033 1.233-6.616 1.233-2.583 0-4.922-.471-6.616-1.233-1.695-.761-2.744-1.814-2.744-2.976s1.049-2.214 2.744-2.975c1.694-.762 4.033-1.233 6.616-1.233z" stroke-width="1.862"/><path fill="#231F20" d="M94.81 142.048l.132 2.587c.778 1.972 4.61 3.469 9.218 3.469 4.44 0 8.162-1.39 9.37-3.255v-2.885l-.018-.084c-.151 2.27-4.281 4.084-9.352 4.084-4.99 0-9.065-1.756-9.345-3.968l-.005.052z"/><path fill="#3B2314" stroke="#C2B59B" d="M102.942 143.58a4.66 4.66 0 0 1-4.64-4.316c-.075-.965-.466-3.942-1.353-6.022-1.63-3.83-4.757-6.252-4.787-6.274-2.034-1.557-2.443-4.473-.903-6.514 1.543-2.048 4.435-2.477 6.49-.946.52.39 5.169 3.968 7.774 10.082 1.654 3.888 2.034 8.478 2.069 8.99a4.664 4.664 0 0 1-4.304 4.991c-.115.006-.23.01-.346.01z" stroke-width="1.862"/><path fill="none" stroke="#C2B59B" d="M94.81 142.048l.132 2.587c.778 1.972 4.61 3.469 9.218 3.469 4.44 0 8.162-1.39 9.37-3.255v-2.885" stroke-width="1.862"/><path fill="#CD372E" d="M109.156 81.545a53.06 53.06 0 0 1 1.468 12.432c0 28.61-22.648 51.803-50.581 51.803-27.933 0-50.239-24.263-50.239-52.872 0-8.33 1.468-15.813 4.533-22.787 3.065-6.976 7.568-13.5 18.015-26.285C42.797 31.052 48.409 26.994 53.4 17.173c4.99-9.823 5.3-16.056 7.482-16.056 2.185 0 2.81 8.574 7.02 16.527 4.21 7.953 13.872 16.527 24.945 31.028 11.07 14.497 15.011 27.408 16.257 32.708l.052.165z"/><path fill="#27AAE1" d="M41.113 61.921A20.57 20.57 0 0 1 55.7 67.97a20.57 20.57 0 0 1 6.048 14.586A20.57 20.57 0 0 1 55.7 97.143a20.57 20.57 0 0 1-14.587 6.048 20.57 20.57 0 0 1-14.586-6.048 20.57 20.57 0 0 1-6.049-14.587 20.57 20.57 0 0 1 6.049-14.586 20.57 20.57 0 0 1 14.586-6.049z"/><path fill="#E6E7E8" d="M69.903 144.42s-8.857-8.558-10.715-19.564c-2.237-13.26 1.687-27.035 4.12-33.985l.04-.084c1.21-3.145 1.88-6.637 1.88-10.307 0-13.963-9.725-25.285-21.727-25.285-11.024 0-22.231 10.453-23.782 24.265-1.516 13.487-1.05 23.039 5.586 40.972 4.404 11.9 8.8 17.031 11.423 19.19l.063.095c6.937 3.858 14.84 6.063 23.252 6.063 3.428 0 6.778-.352 10.014-1.019l-.154-.34zM40.34 102.063c-9.202 0-16.658-7.605-16.658-16.985 0-9.378 7.456-16.983 16.658-16.983 9.197 0 16.655 7.605 16.655 16.983 0 9.38-7.458 16.985-16.655 16.985z"/><path fill="#D91C5C" d="M70.538 21.929C67.043 22.94 63.175 23.5 59.104 23.5a42.29 42.29 0 0 1-8.827-.917l-.044.004a51.743 51.743 0 0 0 3.165-5.415c.31-.607.598-1.201.874-1.777l.106.013c1.527.224 3.11.341 4.728.341 2.59 0 5.087-.298 7.436-.853h.04a39.93 39.93 0 0 0 1.315 2.749c.738 1.396 1.647 2.815 2.7 4.275l-.06.008zm-24.134 5.788c3.866 1.478 8.361 2.325 13.158 2.325 5.564 0 10.725-1.141 14.967-3.085l.022-.03c2.618 3.115 5.696 6.527 9.078 10.449l-.039.01c-6.331 2.982-14.73 4.796-23.942 4.796-8.471 0-16.252-1.534-22.369-4.099"/><path fill="#A6A8AB" d="M84.352 139.411a49.387 49.387 0 0 1-24.31 6.369c-8.34 0-16.178-2.164-23.074-5.961l.069.236c.674 4.306 10.998 9.129 23.633 9.129 13.075 0 23.678-5.063 23.678-9.581 0-.076-.004-.145-.01-.222l.014.03z"/><path fill="none" stroke="#C2B59B" d="M84.34 139.383c.006.077.01.145.01.222 0 4.517-10.602 9.58-23.678 9.58-12.635 0-22.959-4.822-23.633-9.128M83.747 37.316c-6.349 3.02-14.81 4.868-24.1 4.868-8.493 0-16.292-1.544-22.418-4.12M70.633 21.9c-3.52 1.029-7.42 1.599-11.527 1.599-3.1 0-6.086-.326-8.875-.93m16.432-7.703a32.227 32.227 0 0 1-7.559.882 32.47 32.47 0 0 1-4.728-.34m20.393 11.439c-4.287 2.011-9.536 3.197-15.207 3.197-4.812 0-9.318-.854-13.192-2.339" stroke-width="1.862"/><path fill="#231F20" stroke="#C2B59B" d="M37.23 38.056c3.634-4.168 6.585-7.3 9.14-10.365" stroke-width="1.862"/><path fill="#716558" d="M47.534 69.804c-8.9.346-16.015 7.812-16.015 16.976 0 6.696 3.803 12.49 9.33 15.253l.056.019a14.28 14.28 0 0 1-.566.01c-9.201 0-16.658-7.604-16.658-16.984 0-9.378 7.457-16.983 16.658-16.983 2.6 0 5.067.607 7.259 1.692l-.064.017z"/><path fill="none" stroke="#C2B59B" d="M37.208 140.005c-2.542-1.909-7.218-6.903-11.905-19.572-6.637-17.934-7.102-27.486-5.586-40.972 1.553-13.811 12.76-24.264 23.782-24.264 12.002 0 21.728 11.322 21.728 25.285 0 3.67-.669 7.16-1.88 10.307l-.04.084c-2.434 6.95-6.358 20.724-4.121 33.985 1.858 11.006 10.715 19.564 10.715 19.564" stroke-width="1.862"/><path fill="none" stroke="#C2B59B" d="M40.34 68.093c4.596 0 8.76 1.903 11.775 4.977a17.097 17.097 0 0 1 4.883 12.008c0 4.685-1.866 8.933-4.883 12.007-3.015 3.075-7.179 4.978-11.774 4.978-4.596 0-8.76-1.903-11.775-4.978a17.097 17.097 0 0 1-4.883-12.007 17.1 17.1 0 0 1 4.883-12.008c3.015-3.074 7.179-4.977 11.775-4.977z" stroke-width="1.862"/><path fill="none" stroke="#C2B59B" d="M109.156 81.545a53.06 53.06 0 0 1 1.468 12.432c0 28.61-22.648 51.803-50.581 51.803-27.933 0-50.239-24.263-50.239-52.872 0-8.33 1.468-15.813 4.533-22.787 3.065-6.976 7.568-13.5 18.015-26.285C42.797 31.052 48.409 26.994 53.4 17.173c4.99-9.823 5.3-16.056 7.482-16.056 2.185 0 2.81 8.574 7.02 16.527 4.21 7.953 13.872 16.527 24.945 31.028 11.07 14.497 15.011 27.408 16.257 32.708l.052.165z" stroke-width="1.862"/><path fill="none" stroke="#C2B59B" d="M40.901 102.06c-5.553-2.757-9.38-8.567-9.38-15.28 0-9.162 7.114-16.63 16.015-16.976" stroke-width="1.862"/><path fill="#F1F2F2" stroke="#C2B59B" d="M13.916 152.761c3.555 0 6.778.65 9.112 1.699 2.331 1.05 3.776 2.499 3.776 4.098 0 1.6-1.445 3.049-3.776 4.099-2.334 1.048-5.557 1.698-9.112 1.698-3.555 0-6.778-.65-9.112-1.698-2.331-1.05-3.776-2.5-3.776-4.099 0-1.6 1.445-3.048 3.776-4.098 2.334-1.049 5.557-1.699 9.112-1.699z" stroke-width="1.862"/><path fill="none" stroke="#C2B59B" d="M1.039 158.616l.188 2.98c1.069 2.716 6.345 4.778 12.69 4.778 6.116 0 11.236-1.916 12.906-4.484v-3.332" stroke-width="1.862"/><path fill="#F1F2F2" stroke="#C2B59B" d="M84.806 160.635c3.555 0 6.778.65 9.112 1.698 2.331 1.05 3.776 2.499 3.776 4.099s-1.445 3.048-3.776 4.098c-2.334 1.049-5.557 1.699-9.112 1.699-3.555 0-6.778-.65-9.112-1.699-2.331-1.05-3.776-2.499-3.776-4.098 0-1.6 1.445-3.049 3.776-4.1 2.334-1.048 5.557-1.697 9.112-1.697z" stroke-width="1.862"/><path fill="none" stroke="#C2B59B" d="M71.927 166.486l.19 2.98c1.069 2.716 6.343 4.781 12.69 4.781 6.116 0 11.236-1.916 12.908-4.488v-3.327" stroke-width="1.862"/><path fill="#231F20" d="M26.802 158.558c0 3.205-5.769 5.797-12.886 5.797-6.838 0-12.43-2.393-12.862-5.415l.011.099.16 2.556c1.069 2.717 6.345 4.779 12.691 4.779 6.115 0 11.235-1.916 12.905-4.484v-3.332h-.019zm45.142 8.182l.173 2.725c1.069 2.717 6.343 4.782 12.69 4.782 6.116 0 11.236-1.916 12.908-4.488v-3.327h-.019c0 3.2-5.773 5.797-12.89 5.797-7.12 0-12.888-2.598-12.888-5.797l.026.309z"/><path fill="#3B2314" stroke="#C2B59B" d="M14.609 159.204a4.654 4.654 0 0 1-4.648-4.433c-.032-.673-.263-6.755 1.655-12.239 3.049-8.732 8.885-12.268 9.538-12.642a4.659 4.659 0 0 1 6.358 1.735 4.656 4.656 0 0 1-1.68 6.324c-.234.142-3.55 2.29-5.419 7.652-1.339 3.827-1.147 8.674-1.143 8.719a4.666 4.666 0 0 1-4.427 4.884h-.234zm70.456 9.082h-.142c-2.573-.087-4.595-2.521-4.517-5.422 0-.04.095-6.159-2.32-12.002-2.055-4.976-5.66-7.816-5.699-7.846-2.132-1.622-2.827-4.983-1.26-7.307 1.811-2.69 4.335-3.052 6.465-1.43.585.45 5.82 4.579 8.937 12.13 3.378 8.185 3.199 16.429 3.191 16.771-.078 2.859-.486 5.106-4.655 5.106z" stroke-width="1.862"/></svg>