<svg width="150" height="150" xmlns="http://www.w3.org/2000/svg"><path fill="#FF13FA" d="M88.206 27.417c-7.336-7.009-13.525-17.354-23.268-15.983-3.385.477-5.962 1.594-7.289 4.735-5.143 12.184 10.872 24.151 10.544 37.727-.028 1.185-1.017 1.772-2.594 1.722-9.163-.284-37.228-10.187-42.649-.638-4.421 7.788 10.989 18.664 16.767 21.868 4.132 2.291 15.483 6.768 21.091 7.971-2.614 5.385-9.046 14.842-14.704 25.117-3.045 5.532-6.491 12.836-3.46 19.129.9 1.867 3.407 4.086 5.589 4.398 6.611.944 18.721-1.822 25.549-8.227 7.413-6.95 19.344-25.523 21.557-25.564 2.214-.042 19.419 26.871 27.147 20.018 4.488-3.979 2.641-13.92 1.265-18.934-2.258-8.214-9.892-21.182-11.978-24.227 7.3-3.118 26.922-24.067 16.433-31.05-4.808-3.202-16.729 6.41-21.442 8.273a2.15 2.15 0 0 1-.74.147c-3.209.519-3.647-1.4-6.578-8.732-3.141-7.863-11.241-17.75-11.24-17.75z"/><path d="M134.742 48.132c-.458-3.37-2.195-5.653-5.736-6.925-4.913-1.764-16.972 5.354-22.15 9.075l-.002.001c-.299.216-.569.417-.82.607-.879.478-2.26.709-3.148-1.741-.41-1.131-1.393-3.594-2.521-6.296-1.753-4.199-3.86-8.982-4.747-10.291-.736-1.086-2.036-2.878-3.729-5.011-6.004-7.571-16.96-19.457-25.345-19.549-4.327-.047-7.451 1.383-10.378 4.499-11.282 12.009 7.122 27.946 8.168 39.866-13.517-1.476-29.316-7.857-41.185-2.423-7.185 3.29-6.95 7.19-4.913 12.751 3.66 9.989 20.019 18.463 28.997 21.231 2.924.9 5.882 1.774 8.782 2.739-3.035 3.749-13.912 21.769-16.3 31.18-1.31 5.162-2.814 14.009 4.325 18.104 3.223 1.85 12.004 1.637 15.483.581 22.398-6.802 34.323-31.927 36.083-32.27 1.759-.342 12.213 15.656 17.699 18.664 2.731 1.498 7.25 1.945 10.109.907 3.523-1.275 5.982-5.001 6.391-8.542 1.424-12.383-5.623-27.472-12.91-37.36 9.093-6.06 19.39-18.389 17.847-29.797zm-35.297-2.965c2.93 7.333 3.367 9.251 6.578 8.732a2.15 2.15 0 0 0 .74-.147c4.713-1.863 16.635-11.475 21.441-8.273 10.488 6.983-9.133 27.932-16.434 31.05 2.086 3.045 9.721 16.013 11.979 24.227 1.376 5.014 3.225 14.955-1.266 18.934-7.729 6.854-24.934-20.06-27.146-20.018-2.213.041-14.145 18.614-21.557 25.564-6.828 6.404-18.938 9.171-25.549 8.227-2.182-.312-4.689-2.531-5.589-4.398-3.031-6.293.415-13.597 3.46-19.129 5.658-10.275 12.09-19.732 14.704-25.117-5.608-1.203-16.959-5.68-21.091-7.971-5.778-3.204-21.188-14.08-16.767-21.868 5.421-9.549 33.486.354 42.649.638 1.577.05 2.566-.537 2.594-1.722.329-13.576-15.686-25.543-10.543-37.727 1.327-3.141 3.904-4.258 7.289-4.735 9.743-1.371 15.932 8.974 23.268 15.983h-.001c.001 0 8.101 9.887 11.241 17.75z"/><path fill="#9913FA" d="M74.867 57.073c-1.42 4.358-2.704 12.101 2.472 19.208 4.786 6.572 9.735 7.422 13.162 6.976-3.178-1.687-6.196-4.139-6.054-9.132.59-2.734.492-10.092 14.271-16.772-9.648-.479-15.82-1.06-22.408-3.775.001-.001-.738 1.332-1.443 3.495z"/><path fill="#FF9EFA" d="M86.18 74.107c.779-3.692-8.729-1.085-11.506-.96.774 2.396 1.874 4.083 4.818 6.055 1.871-1.295 6.227-2.903 6.688-5.095z"/><path d="M88.909 71.811c-2.919-3.192-11.315-1.683-15.171-1.275-.175.94.301 1.752.599 2.614.096.005.212.003.337-.003 2.775-.125 12.285-2.732 11.506.96-.461 2.192-4.814 3.8-6.688 5.095-.078.054-.159.108-.229.161 0 0 1.906 1.537 2.924 1.311 2.749-.615 9.553-5.767 6.722-8.863z"/><path d="M82.322 73.469c-1.758 1.426-3.969 2.87-6.389 2.614-.146-.468-.522-1.082-.135-1.53 1.716-.523 4.818-1.356 6.524-1.084z"/><path fill="#FFF" d="M98.342 63.59c-7.232 0-18.876-2.333-24.021-5.679l-.644-.419.238-.729c.727-2.228 1.488-3.612 1.52-3.67l.432-.78.824.34c6.944 2.862 13.582 3.303 23.834 3.786l.783.037 1.307 6.699-.998.18c-.87.156-1.971.235-3.275.235z"/><path d="M76.311 53.577c6.981 2.877 13.49 3.358 24.168 3.86l.961 4.933c-.826.149-1.881.221-3.098.221-6.715 0-18.34-2.178-23.475-5.518.705-2.163 1.444-3.496 1.444-3.496m-.886-2.528l-.864 1.56c-.034.061-.839 1.526-1.596 3.844l-.476 1.46 1.287.837c5.783 3.761 18.195 5.841 24.565 5.841 1.362 0 2.524-.084 3.452-.252l1.996-.36-.389-1.991-.961-4.933-.299-1.542-1.57-.074c-10.145-.477-16.706-.912-23.5-3.711l-1.645-.679z"/><path d="M105.436 52.776c-.59-1.123-3.519-5.359-4.213-6.228-.693-.869-2.223-2.798-1.777-.751S103 54.5 103 54.5l-.083.167c-11.75 1.75-29.217-4.668-29.217-4.668-4.392 9.885-4.117 22.835 3.315 30.698 7.434 7.861 16.9 4.638 16.9 4.638.083 1.917-1 4.166-2.5 5.083s0 1.667 2 .5 2.417-2.75 3.583-6.583-.833-2.917-2.287-2.341c-.556.22-2.094.988-4.212 1.264-3.427.446-8.376-.402-13.162-6.976-5.176-7.108-3.893-14.851-2.472-19.208.706-2.163 1.444-3.496 1.444-3.496 6.588 2.716 12.76 3.296 22.408 3.775.575.028 1.158.057 1.76.085l.357.017c10.898.508 5.189-3.556 4.602-4.679z"/><path d="M103.49 35.363c-7.42-5.676-12.996 6.756-9.489 11.875 1.351 1.969 4.192 3.177 6.581 2.627 4.831-1.11 6.527-11.731 2.908-14.502zm-2.892 12.17c-.996.498-2.896.436-3.754-.298-3.002-2.569-1.673-7.3.385-9.739 1.625-1.929 4.5-1.797 5.75.345 1.298 2.224.399 8.307-2.381 9.692z"/><path fill="#FFF" d="M97.229 37.496c-2.058 2.439-3.387 7.17-.385 9.739.857.734 2.758.796 3.754.298 2.78-1.385 3.68-7.468 2.381-9.692-1.25-2.142-4.125-2.274-5.75-.345z"/><ellipse cx="101.607" cy="42.755" rx="2.162" ry="2.072"/><path fill="#FFF" d="M74.354 33.796c-2.495 2.961-3.492 8.883.148 12 1.039.89 3.348.965 4.557.362 3.373-1.682 4.465-9.063 2.892-11.76-1.521-2.6-5.624-2.94-7.597-.602z"/><ellipse cx="79.812" cy="40.264" rx="3.332" ry="3.193"/><path d="M82.564 31.391c-9-6.888-15.767 8.197-11.509 14.408 1.636 2.39 5.085 3.855 7.984 3.188 5.861-1.348 7.92-14.235 3.525-17.596zm-3.505 14.767c-1.209.603-3.518.528-4.557-.362-3.64-3.117-2.643-9.039-.148-12 1.973-2.338 6.076-1.998 7.595.602 1.574 2.697.483 10.078-2.89 11.76z"/></svg>