<svg width="55.264" height="14.399" viewBox="2.098 2.87 55.264 14.399" xmlns="http://www.w3.org/2000/svg"><path fill="#272525" d="M19.726 8.551c3.962-2.076 17.218-2.408 20.939 0 .256 1.9 0 3.776 0 3.776-8.029-3.202-12.503-3.699-20.939 0 .649-1.545 0-3.776 0-3.776z"/><path fill="#272525" d="M32.668 7.965C32.438 2.39 57.124.743 57.354 6.316c.229 5.575-5.111 10.464-11.928 10.918-6.817.455-12.53-3.694-12.758-9.269zM2.105 6.316C2.336.743 27.201 2.39 26.97 7.965c-.231 5.575-5.984 9.725-12.851 9.27C7.253 16.78 1.874 11.892 2.105 6.316z"/><path fill="#FFB100" d="M35.557 8.21c3.969-2.603 14.681-3.402 18.936-1.357-.38 9.079-17.901 10.335-18.936 1.357zM4.966 6.847C9.289 4.891 20.103 5.532 24.081 8.21c-1.053 8.981-18.743 7.719-19.115-1.363z"/></svg>