<svg xmlns="http://www.w3.org/2000/svg" viewBox="0 0 44.9 54.5"><path fill="#53AD4E" d="M44.9 11.4c-.1-1.1-.3-2.2-.6-3.3-.5-2.4-1.1-4.7-1.6-7.1-.2-1.1-.8-1.4-1.9-.9-.2.1-.5.3-.7.4-1 1-2.1 1.6-3.6 1.5-3.5-.1-7.1-.2-10.6-.2-3.4.1-6.9-.3-10.3.2-1.6.2-3.3-.1-4.9-.1-.9-.1-1.7-.2-2.4-.9-.2-.3-.5-.4-.8-.6C6.7 0 6 .1 5.4.8c-.7.8-1.3 1.6-2 2.4-.6.7-1 1.5-.9 2.5 0 .6-.2 1.3-.4 1.9-.1.6-.3 1.1-.5 1.7-.4 1.2-.7 2.5-1.1 3.8-.2.7-.5 1.3-.5 2 0 .3.3.9.6 1 .6.3 1.4.7 2.1.1 1-.9 2.3-1.5 2.7-2.9v-.1c.2-.2.3-.7.5-.7.8-.2 1.5-.3 2.3-.4 2.7-.2 5.3-.4 8-.6 1-.1 1 0 1 1-.1 1.9-.4 3.7-.4 5.6-.2 8.9-.3 19.5-.4 28.4v.2c-.3.1-.7.4-1 .7-.9 1-1.9 2.1-2.9 3-.9.8-1.1 1.5-.7 2.6.2.6.3 1.2 1.2.9.2-.1.5 0 .7 0 4.1.5 8.2.7 12.3.5.8 0 1.4-.3 1.8-1 1-1.3 2.1-2.6 3.1-3.9.1-.1.2-.4.2-.6 0-.5 0-1 .1-1.6 0-.5-.2-.8-.8-.8-.7 0-1.3.1-2 0-.3 0-.7-.4-.8-.7-.1-.6-.1-1.2-.1-1.8 0-4.8.1-9.7.1-14.5-.1-5.7-.3-11.4-.4-17.1v-1.1c2 .2 3.8.3 5.6.5 3 .3 4.9 1.9 5.8 4.7 0 .1.2.3.4.3.7.1 1.4 0 2.1.1.5.1.8-.1 1-.5.1-.4.4-.8.6-1.2.7-.9 1.4-1.7 2-2.6.1-.2.3-.7.2-1.2zM1.1 15.6c.7-.8 1.3-1.7 2.1-2.3.2-.2.8 0 1.3.1-.9 1.6-2.6 2.6-3.4 2.2zm2.4-5.4c-.1.2-.1.5-.2.8-.3 1.7-1.1 2.7-2.8 3.9.3-.7.7-1.2.8-1.7.4-1.2.7-2.4 1-3.6.4-1.6 1.2-3 1-4.6 0-.4.4-.9.7-1.4.5-.6 1-1.2 1.4-1.8.1 0 .2 0 .2.1-.7 2.8-1.4 5.6-2.1 8.3zm12.6.7c-3 .1-6.1.3-9.1.5-.3 0-.6 0-1 .1 1.3-2.1 2.7-3.7 5.1-4.4 2.9-.8 5.8-.6 8.8-.7.1 0 .1 0 .3.1-.5.8-1 1.6-1.5 2.3-.2.4-.6.7-.7 1-.4 1.1-1 1.1-1.9 1.1zm1 33.6c.1-2.1.1-6.6.2-8.7.1-6.8.2-13.5.4-20.3 0-1.5-.3-3.1.6-4.6.7-1.1 1.4-2.2 2.2-3.4.2 2.8.4 5.6.4 8.3 0 6.9-.2 13.8-.2 20.8 0 2.7.1 5.4-.2 8-.2 1.4-.3 1.6-1.7 1.7-.6.1-1.3.1-1.9.2 0-.6.1-1.1.2-2zm-4.6 8.6c-.5-.8-.4-1.3.2-1.9 1.2-1.2 2.4-2.5 3.7-3.8.1.8 0 1.4-.5 2.1-.7 1.1-1.6 2-2.5 2.9-.3.3-.6.5-.9.7zm17.2-3.2c-.9 1.2-1.8 2.5-2.8 3.6-.2.3-.8.3-1.3.3l-10.2-.3h-1.9c-.1-.1-.1-.2-.2-.3l1.5-1.2c.5-.5.9-1.1 1.3-1.7.3-.4.5-.6 1.1-.6 3.2.1 6.5.2 9.7.3.9-.1 1.8-.1 2.8-.1zm8.7-35c-1.3-2.4-3.4-3.6-6.2-3.8-1.6-.1-3.3-.2-5.1-.4V6.3s.1 0 .2-.1c3.2-.4 6.5-.8 9.7.1 1.8.5 3.1 1.6 4 3.1.2.2.3.5.4.8.3.5.9 1.2.8 1.6-.3.9-.9 1.7-1.5 2.4-.5.6-1.2 1.1-1.8 1.7-.1-.4-.3-.7-.5-1zm4.1-.3c-.2.2-.4.4-.5.7-.7 1.2-.7 1.2-2.1 1l-.3-.3c.4-.3.8-.5 1.2-.8.6-.5 1.2-1.1 1.5-1.8.4-.8.9-.8 1.7-.7-.6.7-1.1 1.3-1.5 1.9z"/><path fill="#FFF" d="M20.6 36.6c0 2.7.1 5.4-.2 8-.2 1.4-.3 1.6-1.7 1.7-.6.1-1.3.1-1.9.2.1-.7.2-1.2.3-2.1.1-2.1.1-6.6.2-8.7.1-6.8.2-13.5.4-20.3 0-1.5-.3-3.1.6-4.6.7-1.1 1.4-2.2 2.2-3.4.2 2.8.4 5.6.4 8.3-.2 7.1-.3 14-.3 20.9zM5.7 1.9C5 4.7 4.2 7.5 3.5 10.2c-.1.2-.1.5-.2.8-.3 1.7-1.1 2.7-2.8 3.9.3-.7.7-1.2.8-1.7.4-1.2.7-2.4 1-3.6.4-1.6 1.2-3 1-4.6 0-.4.4-.9.7-1.4.5-.6 1-1.2 1.4-1.8.1.1.2.1.3.1zM4.5 13.3C3.6 15 1.9 16 1.1 15.6c.7-.8 1.3-1.7 2.1-2.3.2-.2.8 0 1.3 0zm39.4-.6c-.5.7-1 1.3-1.5 1.9-.2.2-.4.4-.5.7-.7 1.2-.7 1.2-2.1 1l-.3-.3c.4-.3.8-.5 1.2-.8.6-.5 1.2-1.1 1.5-1.8.4-.8.9-.9 1.7-.7zm-1.6-.9c-.3.9-.9 1.7-1.5 2.4-.5.6-1.2 1.1-1.8 1.7-.2-.3-.4-.6-.5-1-1.3-2.4-3.4-3.6-6.2-3.8-1.6-.1-3.3-.2-5.1-.4V6.3s.1 0 .2-.1c3.2-.4 6.5-.8 9.7.1 1.8.5 3.1 1.6 4 3.1.2.2.3.5.4.8.3.5.9 1.2.8 1.6zM20.2 6.6c-.5.8-1 1.6-1.5 2.3-.2.4-.6.7-.7 1-.3.9-.9 1-1.8 1-3 .1-6.1.3-9.1.5-.3 0-.6 0-1 .1 1.3-2.1 2.7-3.7 5.1-4.4 2.9-.8 5.8-.6 8.8-.7-.1.1 0 .1.2.2zm-4.3 42.9c-.7 1.1-1.6 2-2.5 2.9-.2.2-.6.5-.9.7-.5-.8-.4-1.3.2-1.9 1.2-1.2 2.4-2.5 3.7-3.8 0 .8 0 1.4-.5 2.1zm13.8.4c-.9 1.2-1.8 2.5-2.8 3.6-.2.3-.8.3-1.3.3l-10.2-.3h-1.9c-.1-.1-.1-.2-.2-.3l1.5-1.2c.5-.5.9-1.1 1.3-1.7.3-.4.5-.6 1.1-.6 3.2.1 6.5.2 9.7.3.9-.1 1.8-.1 2.8-.1z"/></svg>