<svg width="166" height="140" viewBox="3 3 166 140" xmlns="http://www.w3.org/2000/svg"><path d="M47.384 54.84c10.69 1.18 20.16 4.23 26.821 8.2 6.662 3.972 10.517 8.866 9.979 13.738-.538 4.872-5.367 8.808-12.735 11.23-7.367 2.423-17.273 3.332-27.964 2.152-10.69-1.18-20.159-4.228-26.82-8.199-6.662-3.972-10.517-8.866-9.979-13.738.538-4.872 5.367-8.808 12.735-11.23 7.367-2.423 17.273-3.332 27.963-2.152z"/><path fill="#663B00" stroke="#000" stroke-width=".713" stroke-linecap="round" d="M17.938 9.06l51.896 2.715c17.282.904 12.167 2.138 16.05 6.381 3.344 3.657 2.526 9.482 2.95 14.21.695 8.008 2.111 16.234.396 23.881-1.088 4.836-4.288 9.233-8.306 12.357-5.611 4.353-12.546 8.068-19.515 8.607-11.152.86-22.82-.267-33.347-4.04-7.617-2.732-14.276-8.158-19.384-14.355-3.29-4.004-4.909-9.26-4.775-14.105.245-7.613 3.176-15.028 5.866-21.774 1.988-4.98 2.892-12.926 8.169-13.878z"/><path fill="none" stroke="#FFE9CC" stroke-width="4.198" stroke-linecap="round" d="M32.686 18.623C26.881 36 23.163 41.298 21.916 53.337c-.638 6.153 5.575 17.812 5.575 17.812M51.14 75.57s4.872-12.692 5.483-19.609c.975-11.057-1.15-33.314-1.15-33.314m13.384 1.791s4.446 20.402 2.97 30.497c-1.105 7.542-11.173 19.57-9.756 20.042 1.462.506 16.67-8.711 19.361-16.87 3.72-11.614-1.98-36.724-1.98-36.724M40.915 75.382S38.23 59.224 39.044 51.34c1.07-9.996 6.718-29.429 6.718-29.429"/><path fill="none" stroke="#FFE9CC" stroke-width="4.198" stroke-linecap="round" d="M19.537 14.758s-5.262 10.492-6.612 16.165c-1.66 6.847-4.868 14.578-2.667 21.428 2.373 7.473 9.088 13.347 15.246 17.674 5.08 3.607 11.723 4.329 17.754 5.882 2.226.573 4.43.165 6.623.127 3.311.243 6.709.853 9.902.49 1.378-.158 3.807-1.692 3.807-1.692"/><path fill="#FFF" stroke="#000" stroke-width="3" d="M187 81c25.106 0 47.856 3.081 64.33 8.06C267.803 94.038 278 100.913 278 108.5c0 7.587-10.197 14.462-26.67 19.44-16.474 4.979-39.224 8.06-64.33 8.06s-47.856-3.081-64.33-8.06C106.197 122.962 96 116.087 96 108.5c0-7.587 10.197-14.462 26.67-19.44C139.144 84.081 161.894 81 187 81z" transform="matrix(.38703 .04273 -.035 .31711 -17.674 -29.222)"/><path stroke="#000" stroke-width=".713" d="M52.054 9.543c2.983.33 5.643 1.005 7.533 1.83 1.89.826 3.008 1.801 2.905 2.73-.102.93-1.407 1.637-3.43 2.03-2.025.394-4.769.473-7.751.144-2.983-.33-5.643-1.005-7.533-1.83-1.89-.826-3.008-1.801-2.905-2.73.102-.93 1.407-1.637 3.43-2.03 2.025-.394 4.769-.473 7.751-.144z"/><path fill="none" stroke="#FFF" stroke-width="2.399" stroke-linecap="round" d="M7.784 66.56s3.41 6.162 6.066 7.91c5.647 3.716 11.79 7.047 18.352 8.664 9.264 2.282 18.857 3.418 28.317 3.126 5.86-.37 11.683-2.332 16.852-5.079 2.644-1.406 5.89-6.892 5.89-6.892"/><path d="M100.257 82.203c7.55-1.325 14.647-1.061 20.016.434 5.369 1.497 9.008 4.225 9.64 7.83.633 3.605-1.86 7.41-6.398 10.644-4.538 3.235-11.122 5.9-18.671 7.224-7.55 1.325-14.648 1.062-20.016-.434-5.369-1.496-9.008-4.225-9.64-7.83-.633-3.604 1.86-7.409 6.398-10.644 4.538-3.234 11.122-5.9 18.671-7.224z"/><path fill="#663B00" stroke="#000" stroke-width="2" stroke-linecap="round" d="M281.5 136l.3.3c-.067.599 39.821-.046 59.7-.3 4.97-.063 2.004-.319 3-.5 2.667-.485 5.342-.968 8-1.5 1.505-.301 2.983-.767 4.5-1 .658-.101 1.334 0 2 0 1.498 0 3.005-.107 4.5 0 .847.06 1.656.406 2.5.5.662.074 1.347-.131 2 0 1.033.207 1.967.793 3 1 .653.131 1.334 0 2 0 .666 0 1.345.123 2 0 2.024-.38 4.125-.648 6-1.5.469-.213-.811-4.728-.5-1 1.244 14.914 2.741 29.851 4.15 44.75 2.52 26.643 9.957 53.338 7.65 80-.839 9.691-9.461 17.448-16.65 24-6.885 6.274-15.737 10.346-24.5 13.5-5.668 2.035-11.776 1.866-17.7 2.05-7.347-.268-15.076.011-21.95-2.3-8.828-2.969-17.666-7.17-24.5-13.5-7.536-6.98-16.614-15.167-17.5-25.4-2.27-26.228 5.786-52.414 8.5-78.6 1.448-13.974 2.678-28.013 4-42z" transform="matrix(.3512 -.06164 .06127 .34913 -30.828 17.669)"/><path fill="none" stroke="#FFE9CC" stroke-width="2.999" stroke-linecap="round" d="M98.232 48.03s8.116 23.648 10.51 35.605c.927 4.608-2.011 14.25-.568 14.105 1.444-.144 8.416-9.21 8.056-14.81-.84-13.105-11.22-37.915-11.22-37.915m-14.153 4.757s.42 24.998 2.241 37.056c.698 4.648 6.744 12.713 5.338 13.068-1.407.357-11.05-5.794-12.618-11.182-3.672-12.608-2.36-39.47-2.36-39.47"/><path fill="#FFF" stroke="#000" stroke-width="2" d="M323 106c11.863 0 22.613 1.737 30.398 4.543C361.182 113.349 366 117.224 366 121.5c0 4.276-4.818 8.151-12.602 10.957C345.613 135.263 334.863 137 323 137s-22.613-1.737-30.398-4.543C284.818 129.651 280 125.776 280 121.5c0-4.276 4.818-8.151 12.602-10.957C300.387 107.737 311.137 106 323 106z" transform="matrix(.40309 -.07074 .06127 .34913 -43.944 23.472)"/><path d="M93.018 40.546c1.987-.349 3.845-.332 5.242-.024 1.398.309 2.335.91 2.479 1.728.143.819-.533 1.702-1.742 2.468-1.21.766-2.95 1.414-4.937 1.763s-3.845.332-5.243.024c-1.397-.309-2.334-.91-2.478-1.728-.143-.819.533-1.702 1.742-2.468 1.21-.766 2.95-1.415 4.937-1.763z"/><path fill="none" stroke="#FFE9CC" stroke-width="7" stroke-linecap="round" d="M271.5 251.5s5.875 4.079 9 4.5c4.336.554 9.117.493 13 0 2.591-.333 7.5-2.5 7.5-2.5" transform="matrix(.45397 -.07967 .10367 .59073 -53.306 -28.913)"/><path fill="none" stroke="#FFF" stroke-width="4" stroke-linecap="round" d="M62.5 214s6.78 9.588 11.5 12c10.039 5.125 20.83 9.521 32 11 15.77 2.087 31.876 2.215 47.5 0 9.643-1.686 18.935-6.002 27-11.5 4.125-2.814 8.5-12.5 8.5-12.5" transform="matrix(.419 -.07353 .06935 .39515 35.098 19.758)"/></svg>