<svg width="80" height="193" viewBox="-1 -1 80 193" xmlns="http://www.w3.org/2000/svg"><path fill="#00A3A6" d="M4.673 23.73c-8.715 27.693-2.036 83.16 0 92.853 2.036 9.693 7.412 25.005 32.58 26.064 8.634.326 26.879-4.56 31.929-27.611 5.05-22.97.57-80.718-.978-88.537C66.657 18.679 58.92.353 36.602.353 16.809.435 7.442 14.933 4.673 23.73z"/><path fill="#008994" d="M33.832 104.447c-16.208-9.448-26.39-1.059-29.403 11.159.081.407.163.733.244 1.059 2.036 9.692 7.412 25.005 32.58 26.064 8.634.326 26.879-4.561 31.929-27.612.733-3.258 1.222-7.168 1.629-11.566-8.96-11.403-29.73-9.53-36.979.896z"/><path fill="#00D9F9" d="M10.7 30.408c.675 0 1.286.274 1.728.716a2.438 2.438 0 0 1 0 3.455 2.436 2.436 0 0 1-1.728.716 2.436 2.436 0 0 1-1.727-.716 2.436 2.436 0 0 1-.716-1.727c0-.675.273-1.285.716-1.728a2.436 2.436 0 0 1 1.727-.716zm7.412 1.385a2.11 2.11 0 0 1 1.497.62c.384.384.621.914.621 1.498a2.11 2.11 0 0 1-.62 1.497 2.11 2.11 0 0 1-1.498.62 2.11 2.11 0 0 1-1.497-.62 2.11 2.11 0 0 1-.62-1.497c0-.584.237-1.114.62-1.497a2.11 2.11 0 0 1 1.497-.621zm-4.724 4.561c.629 0 1.2.256 1.612.669a2.274 2.274 0 0 1 0 3.224 2.274 2.274 0 0 1-3.224 0 2.274 2.274 0 0 1 0-3.224 2.274 2.274 0 0 1 1.612-.669zm36.246 6.272c.562 0 1.07.228 1.439.597.369.368.597.877.597 1.44 0 .561-.228 1.07-.597 1.438a2.027 2.027 0 0 1-1.44.598 2.027 2.027 0 0 1-1.439-.598 2.027 2.027 0 0 1-.597-1.439c0-.562.228-1.07.597-1.439a2.027 2.027 0 0 1 1.44-.597zm7.167 2.444a2.11 2.11 0 0 1 1.497.62c.384.384.621.913.621 1.497a2.11 2.11 0 0 1-.62 1.497 2.11 2.11 0 0 1-1.498.62 2.11 2.11 0 0 1-1.497-.62 2.11 2.11 0 0 1-.62-1.497c0-.584.237-1.113.62-1.497a2.11 2.11 0 0 1 1.497-.62zm-5.131 4.642c.652 0 1.242.265 1.67.693a2.356 2.356 0 0 1 0 3.339 2.355 2.355 0 0 1-1.67.692 2.355 2.355 0 0 1-1.67-.692 2.355 2.355 0 0 1-.692-1.67c0-.651.265-1.242.692-1.67a2.355 2.355 0 0 1 1.67-.692zm-22.643 19.06a2.11 2.11 0 0 1 1.497.62c.383.384.62.913.62 1.497a2.11 2.11 0 0 1-.62 1.497 2.11 2.11 0 0 1-1.497.621 2.11 2.11 0 0 1-1.497-.62 2.11 2.11 0 0 1-.621-1.498c0-.584.237-1.113.62-1.497a2.11 2.11 0 0 1 1.498-.62zM10.7 78.464c.742 0 1.413.302 1.9.788a2.683 2.683 0 0 1 0 3.8 2.683 2.683 0 0 1-3.8 0 2.683 2.683 0 0 1 0-3.8 2.683 2.683 0 0 1 1.9-.788zm5.783 4.887c.63 0 1.2.256 1.612.669a2.274 2.274 0 0 1 0 3.224 2.274 2.274 0 0 1-3.224 0 2.274 2.274 0 0 1 0-3.224 2.274 2.274 0 0 1 1.612-.669zM56.557 5.484c.741 0 1.413.302 1.9.788a2.683 2.683 0 0 1 0 3.8 2.683 2.683 0 0 1-3.8 0 2.683 2.683 0 0 1 0-3.8 2.683 2.683 0 0 1 1.9-.788zm-4.235 6.191c.696 0 1.327.282 1.784.74.458.457.74 1.088.74 1.785 0 .696-.282 1.327-.74 1.784a2.514 2.514 0 0 1-1.784.74 2.514 2.514 0 0 1-1.785-.74 2.514 2.514 0 0 1-.74-1.784c0-.697.282-1.328.74-1.785a2.514 2.514 0 0 1 1.785-.74zm5.62 4.317c.808 0 1.542.328 2.073.859a2.927 2.927 0 0 1-.001 4.146 2.923 2.923 0 0 1-2.072.86 2.923 2.923 0 0 1-2.073-.86 2.923 2.923 0 0 1-.86-2.073c0-.809.329-1.542.86-2.073a2.923 2.923 0 0 1 2.073-.86z"/><path fill="#658542" d="M27.642 51.097a.816.816 0 0 1-.814-.815c.57-13.032 4.316-26.797 4.398-26.96.081-.407.57-.651.977-.57.408.081.652.57.57.977 0 .163-3.746 13.766-4.316 26.553a.816.816 0 0 1-.815.815z"/><path fill="#658542" d="M29.597 35.051c-.163 0-.245-.081-.326-.163a.43.43 0 0 1 .163-.57c9.204-5.946 12.462-10.507 12.462-10.507.163-.163.407-.244.57-.082.163.163.244.408.081.57-.162.163-3.339 4.725-12.706 10.752h-.244zM13.225 70.97c-.244 0-.488-.162-.651-.325C8.338 64.21 4.266 52.4 4.103 51.911c-.163-.407.081-.896.489-1.059.407-.162.895.082 1.058.49.082.08 4.154 12.054 8.227 18.326.244.407.163.896-.244 1.14a.622.622 0 0 1-.408.163zM39.29 92.962c-.326 0-.652-.244-.815-.57-3.991-13.765-4.643-31.277-4.643-31.44 0-.488.326-.814.815-.814.488 0 .814.326.814.814 0 .163.652 17.512 4.562 31.033.162.407-.163.896-.57.977h-.164z"/><path fill="#658542" d="M36.357 81.64c-.081 0-.163 0-.244-.08a.394.394 0 0 1 0-.57c5.701-6.272 11.647-17.513 11.647-17.594.082-.163.326-.244.57-.163.163.081.245.326.163.57-.081.082-6.027 11.403-11.81 17.756-.081.082-.163.082-.326.082z"/><path fill="#597933" d="M26.42 116.339c-.244 0-.407-.163-.407-.407.244-5.132-.733-19.223-.733-19.304 0-.245.163-.408.407-.408.245 0 .407.163.407.408 0 .163.978 14.254.734 19.385 0 .081-.163.326-.408.326zm28.264-7.657a.74.74 0 0 1-.57-.244.787.787 0 0 1 0-1.14c.08-.082 6.923-7.005 10.018-13.44.163-.407.652-.57 1.059-.407.407.163.57.652.407 1.059-3.177 6.679-10.018 13.602-10.344 13.928a.88.88 0 0 1-.57.244z"/><path fill="#668543" d="M44.747 89.949l8.145-3.665s-10.833 67.196-20.77 85.115l-8.553 2.037s6.517-24.028 8.146-36.409c0 0-6.924-5.375-15.069-17.512l3.665-6.353s7.983 10.426 14.01 14.824c-.081.082 7.493-23.05 10.426-38.037z"/><path fill="#6F7138" d="M17.38 118.13c2.931 3.829 7.411 8.797 7.493 8.879.081.081.163.081.244.081.082 0 .163 0 .244-.081.163-.082.163-.326 0-.407-.081-.082-4.724-5.213-7.574-9.041l-.408.57zm14.986 13.033c.082 0 .163-.082.245-.082.081-.163.081-.325-.082-.407-.081-.081-7.168-5.62-13.52-15.394l-.327.57c6.354 9.693 13.44 15.231 13.521 15.231 0 .082.082.082.163.082zM27.56 168.63h-.08c-.164-.081-.245-.244-.164-.407 2.688-8.634 7.412-31.847 7.494-32.092 0-.163.163-.244.325-.244.163 0 .245.163.245.326-.082.244-4.806 23.458-7.494 32.173-.081.163-.163.244-.325.244zm5.05-7.738h-.08c-.164-.081-.245-.244-.164-.407 3.665-11.566 7.005-24.924 7.005-25.087 0-.163.163-.244.407-.244.163 0 .245.244.245.407 0 .163-3.34 13.602-7.005 25.168-.163.082-.245.163-.407.163zm-1.14 3.34a.448.448 0 0 0-.407.244c-.57 2.28-1.71 5.62-2.525 7.738l.733-.163c.733-2.118 1.873-5.294 2.362-7.412.082-.163 0-.326-.163-.407zm6.19-30.87c-.244-.081-.325-.244-.325-.407 4.072-14.58 5.783-29.241 5.864-29.323 0-.162.163-.244.326-.244s.326.163.244.326c0 .163-1.792 14.824-5.864 29.404 0 .163-.082.244-.245.244zm8.064-32.825c.163 0 .326-.081.326-.244 0-.081.896-5.946 1.303-11.485l-.652.326c-.407 5.376-1.221 10.996-1.221 11.078-.082.162.081.325.244.325zm-1.222 16.29c.163 0 .245-.081.326-.244 0-.163 3.095-16.209 4.643-28.67l-.652.325c-1.547 12.38-4.48 28.1-4.561 28.264-.081.081 0 .244.244.325-.081 0 0 0 0 0z"/></svg>