<svg width="105" height="138" xmlns="http://www.w3.org/2000/svg"><path fill="#20891D" d="M58.986 145.334c-27.443 0-52.504-14.078-56.243-16.275 35.88-19.64 50.007-85.696 51.946-95.629 20.335 63.665 51.482 86.538 54.893 88.888-13.017 15.272-30.039 23.016-50.596 23.016z"/><path d="M54.764 34.704C65.852 68.92 79.958 90.873 89.942 103.35c9.534 11.914 17.02 17.541 19.164 19.032-12.924 15.019-29.784 22.632-50.12 22.632-26.377 0-50.56-13.055-55.597-15.95C23.319 117.857 36.29 92.457 43.7 72.958c6.43-16.923 9.881-32.404 11.064-38.254m-.153-2.578s-13.179 75.978-52.513 96.92c0 0 26.835 16.607 56.89 16.607 17.483 0 36.056-5.619 51.068-23.401 0 0-33.825-21.424-55.445-90.126z"/><path fill="#FFF" stroke="#000" stroke-width=".638" d="M113.362 117.78c-1.886-.905-7.863-1.364-8.74 1.158-.167.478.123.9.479 1.176 1.49 1.148-2.414 2.482-2.974 3.442-.374.637-.502 1.401-.573 2.124-.28 2.819-1.224 3.75-3.991 4.399-2.532.596-5.345 2.849-6.02 5.55-2.138-.117-4.241.089-5.035.31-1.24.348-2.255 1.115-3.219 1.928-.505.526-1 1.066-1.477 1.62-1.606 1.81-2.585 1.22-4.26 1.476-1.525.234-2.953.758-4.167 1.603a4.685 4.685 0 0 0-.731-.28c-3.902-1.114-7.46 2.184-11.514 1.263-1.857-.421-3.714-1.247-5.662-.74-.75.195-2.06.742-3.303.989-1.186-.876-1.843-2.078-2.984-3.271-2.213-2.318-6.146-1.734-8.549-.168-1.183.771-3.318-.485-4.717-.123-.09.024-.2.021-.296.035-.54-.23-1.116-.394-1.638-.538-1.294-.359-2.61-.936-3.92-.783a30.993 30.993 0 0 1-1.874-.9c-.565-.297-1.219-1.194-1.933-1.907 2.095.2 4.36-.24 5.69-1.943.08-.103-.024-.282-.153-.196-2.52 1.657-6.117.593-8.747-.378a16.23 16.23 0 0 0-1.939-.568 15.338 15.338 0 0 0-3.221-.687c-.65-.218-1.426-.246-2.047-.282-.847-.047-1.569-.34-2.307-.615-.85-.8-1.535-1.796-2.565-2.458-1.438-.927-2.43-1.69-2.532-3.257.09-.04.181-.076.27-.101.577-.166 1.076-.49 1.352-1.024.636-1.231-4.217-2.017-6.726-.73-1.91.98-2.48 3.072-2.454 4.968.02 1.497 1.411 3.218 2.78 3.715 2.353.852 4.728 1.002 6.41 3.045 1.045 1.269 1.881 2.03 3.528 2.482.925.254 1.963.09 2.9-.063 5.957-.97 6.639 2.266 9.52 5.721 1.374 1.65 1.588 1.559 3.778 2.243.847.264 4.2 2.973 5.553 3.218 3.76.678 6.453-1.822 10.052-1.546 1.739.56 2.978 2.694 4.728 3.317 2.526.898 4.46-.07 6.84-.961 2.884-1.08 6.746 1.181 9.863 1.075 2.486-.083 4.869-.995 6.807-2.525a4.34 4.34 0 0 0 .904-.959c.99.217 1.947.698 3.118 1.084 2.439.804 4.333-.26 6.236-1.788 1.09-.877 1.908-2.158 2.84-3.195 1.842-2.048 4.488-1.618 6.935-1.75 1.746-.097 3.07-1.178 3.492-2.824.16-.63.06-1.144-.197-1.58.12-.287.24-.565.374-.818 1.511-2.84 5.076-2.308 7.618-3.547 1.869-.911 2.452-3.5 3.237-5.205 1.092-2.371 4.305-2.186 6.322-3.332 2.982-1.697 1.253-5.736-1.16-6.898z"/><path fill="#FFF" stroke="#000" stroke-width=".638" d="M92.65 119.925c.085-.312-.31-.543-.54-.313-2.003 1.992-3.452 4.4-6.567 4.647-2.398.188-4.75-1.54-7.142-.495-.876.383-1.542.852-2.283 1.437-1.621 1.278-2.69.76-4.45.27-1.654-.461-3.605.96-4.652 2.034-.123.126.035.338.19.245.871-.518 1.744-.669 2.62-.63 1.684.665 3.518 1.92 5.317 1.92.501 0 1.033-.241 1.46-.491 1.515-.887 2.878-1.728 4.726-1.762 2.926-.05 5.937.589 7.765-1.618 1.734-1.177 2.987-3.136 3.557-5.244zm-35.292.355c-4.829 1.42-9.715-2.539-14.776-2.503-3.13.023-5.97-.849-8.828-2.013-1.66-.676-11.076 1.261-10.41-2.657.153-.888-.375-1.797-1.364-1.792-5.442.03-1.753 7.339 1.106 8.768 3.578 1.788 10.09-.299 13.444 2.328 4.783 3.746 6.463-.268 11.933-.467 3.518.93 5.623 1.531 9.207-.922.367-.25.148-.878-.312-.742zm37.536-17.4c-1.002-.481-1.951-.21-2.594.68l-.323.45c-.298.414-.213.939.04 1.346-.73.24-1.447.526-2.026.837-2.028 1.09-3.025 3.168-5.648 3.384-2.443.201-4.538.685-7.026.485a5.166 5.166 0 0 0-1.607.131c-1.044-.256-2.043-.513-2.825-.677-3.368-.711-5.79 2.71-9.405 2.01-2.539-.49-4.202.086-6.338 1.368-.198.119-.065.407.152.361 7.793-1.678 3.087 1.774 7.945 1.318 3.411-.317 6.32-2.555 9.96-.745a10.23 10.23 0 0 0 3.404.99c2.428 2.746 7.623.248 10.493-.377 4.065-.89 7.206-2.5 7.683-6.968.866-1.697.616-3.388-1.885-4.593z"/><path d="M96.303 109.644c-.71.136-.393 1.163.294 1.066 3.822-.545 2.689 4.77 2.103 6.675-.805 2.61-2.875 4.637-4.856 6.397-4.114 3.658-9.4 5.895-14.726 7.055-10.51 2.292-21.924-.484-30.81-6.292-7.208-4.71-11.108-13.87-19.54-16.638-6.484-2.126-10.453 2.26-10.457 8.387 0 .185.265.216.317.042 1.668-5.54 2.938-9.39 9.919-7.627 5.396 1.364 8.853 6.578 12.329 10.504 6.855 7.743 16.71 12.138 26.878 13.241 9.951 1.079 20.225-1.774 27.735-8.473 2.95-2.632 5.06-6.177 5.063-10.207.005-2.695-1.48-4.657-4.249-4.13z"/><path fill="#B7B7B7" stroke="#000" stroke-width=".638" d="M16.583 115.076c-.36-.126-.503-.646-.323-1.162.18-.517.616-.836.978-.709l1.795.626c.36.126.505.647.325 1.164-.182.515-.62.834-.978.71l-1.797-.629z"/><path fill="#EA0000" stroke="#000" stroke-width=".638" d="M14.795 115.527c-1.648-.906-2.97-1.99-2.604-3.035.365-1.045 2.07-1.068 3.927-.752 1.883.317 2.627 1.869 2.263 2.914-.364 1.045-1.912 1.796-3.586.873z"/><path fill="#FFF" d="M16.23 112.853c-1.002-.431-1.564-.268-1.479-.517.09-.25.346-.309 1.4-.02 1.068.292 1.643.802 1.558 1.051-.088.253-.46-.079-1.48-.514z"/><path fill="#B7B7B7" stroke="#000" stroke-width=".638" d="M37.811 112.145c.29-.248.81-.113 1.17.3.358.414.417.953.126 1.202l-1.44 1.243c-.288.248-.812.114-1.17-.299-.356-.415-.414-.954-.125-1.2l1.44-1.246z"/><path fill="#FFF533" stroke="#000" stroke-width=".638" d="M38.314 110.37c1.607-.974 3.206-1.58 3.929-.74.723.839-.108 2.326-1.31 3.778-1.215 1.473-2.93 1.343-3.655.506-.723-.838-.6-2.553 1.036-3.543z"/><path fill="#FFF" d="M39.913 112.95c.875-.653 1.012-1.223 1.186-1.024.172.202.094.453-.682 1.222-.787.778-1.516 1.023-1.69.824-.172-.2.3-.358 1.186-1.022z"/><path fill="#B7B7B7" stroke="#000" stroke-width=".638" d="M54.048 130.598c-.213.316-.752.32-1.207.016-.453-.308-.65-.813-.434-1.127l1.066-1.575c.214-.315.755-.32 1.21-.017.451.31.647.815.432 1.128l-1.067 1.575z"/><path fill="#FF6D00" stroke="#000" stroke-width=".638" d="M54.025 132.443c-1.3 1.358-2.684 2.36-3.6 1.737-.92-.622-.502-2.273.28-3.989.79-1.738 2.482-2.06 3.398-1.44.916.622 1.244 2.31-.078 3.692z"/><path fill="#FFF" d="M51.81 130.37c-.673.858-.66 1.443-.879 1.297-.219-.15-.209-.414.341-1.356.558-.958 1.197-1.383 1.417-1.236.218.148-.197.422-.88 1.295z"/><path fill="#B7B7B7" stroke="#000" stroke-width=".638" d="M76.308 130.455c.014-.38.47-.668 1.017-.65.549.023.981.348.964.728l-.074 1.9c-.018.382-.474.67-1.021.653-.547-.026-.98-.35-.963-.73l.077-1.9z"/><path fill="#EA0000" stroke="#000" stroke-width=".638" d="M75.353 128.875c.387-1.84 1.035-3.421 2.142-3.375 1.109.042 1.626 1.666 1.867 3.536.245 1.893-1.022 3.058-2.128 3.016-1.105-.045-2.275-1.307-1.88-3.177z"/><path fill="#FFF" d="M78.33 129.468c.12-1.085-.2-1.574.065-1.565.264.011.394.24.425 1.331.03 1.108-.289 1.806-.552 1.797-.265-.009-.057-.462.061-1.563z"/><path fill="#B7B7B7" stroke="#000" stroke-width=".638" d="M101.023 112.374c.245-.29.781-.234 1.201.122.416.357.553.879.304 1.169l-1.236 1.446c-.25.29-.786.233-1.205-.12-.412-.358-.552-.88-.302-1.17l1.238-1.447z"/><path fill="#0074FF" stroke="#000" stroke-width=".638" d="M101.25 110.544c1.445-1.205 2.932-2.046 3.772-1.323.844.72.245 2.315-.724 3.933-.979 1.638-2.697 1.77-3.537 1.05-.84-.72-.98-2.435.49-3.66z"/><path fill="#FFF" d="M103.22 112.853c.767-.777.818-1.36 1.02-1.19.2.174.16.434-.492 1.31-.661.888-1.344 1.24-1.544 1.07-.202-.174.24-.399 1.015-1.19z"/><path fill="#20891D" d="M57.507 99.229c-17.458-.002-31.837-4.905-34.64-5.925 22.148-19.755 26.088-62.81 26.625-70.567 27.46 55.562 43.601 64.82 47.004 66.224-11.035 6.814-24.146 10.268-38.984 10.268h-.005z"/><path d="M49.723 23.923c25.866 52.058 41.673 62.93 46.095 65.078-10.875 6.575-23.758 9.909-38.311 9.909-16.543 0-30.314-4.418-34.03-5.726C44.433 74.036 48.91 34.067 49.722 23.923m-.477-2.405s-2.166 50.285-26.99 71.898c0 0 15.57 6.132 35.25 6.132 12.558 0 26.786-2.494 39.721-10.667 0-.002-16.916-4.164-47.981-67.363z"/><path fill="#FFF" stroke="#000" stroke-width=".638" d="M84.807 76.203c-.16-.575-.67-1.174-1.287-1.286l-.632-.114c-.64-.115-1.31.165-1.487.844-.49 1.886-2.476 1.74-4.113 2.53-.748.362-1.511.917-1.943 1.647-1.172 1.985-2.874.922-4.636 1.422-3.148.897-4.39 3.653-7.963 3.572-2.501-.057-4.167.943-5.42 2.998-.138.224.085.489.329.428 2.396-.599 4.097-.481 6.523-.335 1.127.068 2.454.194 3.492-.412 1.644-.962 2.864-2.546 5.067-2.325 1.718.17 2.809-.039 4.25-.995 1.01-.668 1.298-2.155 2.528-2.585 1.017-.358 2.005-.702 2.997-1.132 1.792-.778 2.82-2.367 2.295-4.257zM67.89 74.577c-1.791 3.348-5.448.19-7.93.667-2.069.398-3.414 1.711-5.263 1.831a1.776 1.776 0 0 0-.295-.1 5.021 5.021 0 0 0-1.381-.125 5.64 5.64 0 0 1-.474-.167c-1.984-.814-4.151 1.57-5.779 2.21-.245.096-.509.154-.755.221-1.48-.13-2.998-.652-4.3-1.068-.15-.048-.277.13-.2.26 1.15 1.947 2.948 3.2 5.1 3.81 1.156.328 2.343.182 3.447-.236.718-.273 1.623-1.11 2.489-1.45 1.546.453 3.155 1.59 4.795.198 1.465-1.245 2.667-3.074 4.73-3.117 1.1-.021 2.075.008 3.16-.154 1.5-.225 2.43-1.4 2.866-2.693.04-.122-.15-.202-.21-.087z"/><path fill="#FFF" stroke="#000" stroke-width=".638" d="M96.59 84.448c-1.86-1.211-3.738-.037-5.638.129-.591.052-2.708 2.878-2.89 4.388-.185 1.531-5.82 2.856-6.261 3.086-2.837 1.473-3.631 2.042-7.122 1.98-.152-.002-.288.016-.435.019-.2-.147-3.483.519-4.966 1.163-3.091 1.343-2.61.256-5.32.704-3.86.637-6.963 1.746-11.147 1.09-1.423-.222-3.305-.47-4.72-.09-.24.063-.466.11-.695.159-1.9-.035-4.183-.19-6.284-.614-1.699-.665-3.36-1.607-5.32-2.424l-.001-.003c-1.895-2.117-8.76-2.93-9.023-3.088-.044-.027-.372-1.88-1.43-1.587-2.214.614-7.255 1.967-5.262 5.371.64 1.09 2.317 1.031 3.38 1.042 2.268.026 5.008 2.384 7.366 1.378.608-.26 1.2-.282 1.785-.133l.85.336c.666.35 8.39 9.118 12.046 6.95 3.624-2.15 6.355-2.828 8.75-1.734 2.843 1.297 6.133 3.55 8.843 3.003 2.736-.553 4.782-2.293 7.11.14 1.143 1.196 2.614 1.103 4.03.803 1.116-.237 1.856-1.66 2.39-2.526.745-1.21 6.214-2.334 6.37-2.493 1.074-.242 2.29-.716 2.607-1.87.051-.186.077-.402.105-.615 1.254-1.393 4.446-3.4 4.504-3.433 1.517-.545 3.07-1.23 4.209-2.168.633-.259 1.23-.606 1.886-1.086 1.273-.931 2.414-2.1 2.63-3.723.233-1.725-.983-3.267-2.348-4.154z"/><path d="M87.391 78.017c-1.691-.93-3.868 1.09-4.726 2.302-5.531 7.815-12.573 12.49-22.234 13.565-4.388.488-9.118-.08-13.397-1.052-4.36-.993-7.683-3.524-11.247-6.034-1.74-1.228-5.087-3.27-7.307-2.003-1.81 1.034-2.155 2.294-1.33 4.121.092.202.411.058.353-.148-.042-3.469 3.031-4.217 5.332-2.782.59.285 1.16.604 1.709.958 1.128.68 2.168 1.523 3.219 2.313a28.027 28.027 0 0 0 6.197 3.55c4.956 2.047 11.187 2.454 16.468 2.085a30.532 30.532 0 0 0 14.859-5.127c1.781-1.205 3.318-2.739 4.745-4.335a33.817 33.817 0 0 0 1.885-2.337c.408-.543.81-1.09 1.204-1.642l.871-1.14c1.52-1.998 4.018-1.961 3.672 1.988-.264.406.432.808.648.378.691-1.369 1.28-3.449-.921-4.66z"/><path fill="#B7B7B7" stroke="#000" stroke-width=".638" d="M89.87 77.815c.347-.16.813.114 1.042.61.231.498.138 1.03-.208 1.19l-1.725.801c-.346.16-.813-.113-1.044-.611-.229-.497-.136-1.029.209-1.188l1.727-.802z"/><path fill="#FFF533" stroke="#000" stroke-width=".638" d="M90.84 76.248c1.813-.497 3.516-.64 3.982.365.465 1.006-.743 2.21-2.295 3.274-1.574 1.083-3.188.487-3.654-.517-.467-1.003.124-2.62 1.967-3.122z"/><path fill="#FFF" d="M91.672 79.166c1.02-.388 1.31-.898 1.421-.659.111.24-.033.462-.99.987-.971.533-1.738.569-1.85.33-.114-.241.384-.26 1.419-.658z"/><path fill="#B7B7B7" stroke="#000" stroke-width=".638" d="M45.024 95.29c-.235.3-.773.27-1.205-.066-.432-.337-.594-.853-.358-1.154l1.168-1.501c.235-.3.774-.27 1.209.066.429.337.59.854.356 1.153l-1.17 1.502z"/><path fill="#0074FF" stroke="#000" stroke-width=".638" d="M44.878 97.127c-1.386 1.27-2.835 2.176-3.708 1.494-.874-.68-.35-2.302.545-3.96.904-1.682 2.612-1.89 3.486-1.211.874.679 1.087 2.388-.323 3.677z"/><path fill="#FFF" d="M42.805 94.912c-.728.812-.753 1.398-.962 1.236-.21-.164-.181-.427.429-1.331.619-.918 1.286-1.301 1.496-1.14.209.163-.224.408-.963 1.235z"/><path fill="#B7B7B7" stroke="#000" stroke-width=".638" d="M74.167 91.234c.271.268.177.799-.209 1.188-.385.39-.919.49-1.19.219l-1.35-1.34c-.27-.269-.176-.8.21-1.191.386-.388.919-.487 1.188-.217l1.351 1.341z"/><path fill="#FF6D00" stroke="#000" stroke-width=".638" d="M75.975 91.598c1.095 1.528 1.82 3.074 1.04 3.86-.781.785-2.33.072-3.867-1.015-1.562-1.098-1.565-2.82-.785-3.606.778-.785 2.499-.794 3.612.76z"/><path fill="#FFF" d="M74.997 92.261c-.661-.869-1.232-1.001-1.034-1.178.2-.174.453-.098 1.228.672.784.78 1.035 1.507.837 1.682-.198.176-.358-.295-1.031-1.176z"/><path fill="#20891D" d="M41.608 64.29c-4.36 0-7.549-.347-8.761-.504 14.386-18.986 11.15-39.147 9.21-51.232l-.31-1.944c-.153-.978-.688-2.974-1.128-4.537 25.7 40.53 37.83 45.675 40.933 46.3C68.364 62.206 52.596 64.29 41.608 64.29c.002 0 .002 0 0 0z"/><path d="M41.48 8.02c23.38 36.51 35.142 43.316 39.315 44.512-13.001 9.425-28.405 11.44-39.187 11.44-3.794 0-6.7-.266-8.176-.436 14.085-18.963 10.872-38.991 8.938-51.032-.107-.671-.212-1.32-.309-1.942-.09-.589-.317-1.538-.582-2.541m-1.794-4.025s1.482 4.963 1.747 6.664c1.878 12.045 6.314 33.326-9.171 53.368 0 0 3.664.582 9.347.582 10.242 0 27.045-1.89 40.791-12.48 0 0-.045.006-.139.006-1.387 0-13.292-1.474-42.575-48.14z"/><path fill="#FFF" stroke="#000" stroke-width=".638" d="M84.893 51.68c-2.72-3.58-9.499-4.017-13.658-3.157-2.012.416-4.314 3.423-2.002 4.985 1.037.702-.157.337-1.197.794-.86.378-1.363.772-1.993 1.3-1.43.435-2.878.819-4.322 1.21-2.023-.751-4.287-1.23-6.247.06-1.907 1.26-3.984 2.925-6.366 3.074-2.395.15-4.73-1.01-7.025-.856-2.267.152-5.498-.67-7.589.024-3.198 1.062-8.77 4.395-3.24 7.636 2.126 1.246 5.608-1.275 8.07-.373.578.212 1.387.21 1.982.046 2.397-.66 4.204-1.027 6.727-.455 2.458.556 4.625-1.104 6.95-1.893.784-.106 2.58-.375 2.705-.36 1.165.139 2.632-.49 3.662-.883 1.785-.684 3.522.021 5.217-.954 1.677-.965 4.396-2.875 5.754-3.33 2.016-.673 3.332-.61 5.088-1.855 2.637-1.87 5.444-.225 7.486-3.36.285-.441.329-1.218-.002-1.652zM63.808 38.045c-1.37.57-2.447 1.728-3.099 3.038-.226.453-2.207.164-2.633.144-.805-.037-1.607.443-2.256.851-1.84 1.161-2.544 2.53-4.897 3.013-1.542.318-2.496 1.047-2.944 2.526-.025.083.054.14.13.129 2.242-.362 4.825.166 6.922-.614.741-.274 1.3-.792 1.85-1.337 1.412-1.394 2.761-.418 4.303-.857 2.214.084 4.995-1.459 6.232-2.825 2.325-2.57-1.024-5.144-3.608-4.068zm-13.758-3.5c.034-.157-.068-.274-.221-.29-.963-.104-1.615.265-2.597-.091-.848-.308-1.758-.688-2.682-.474-1.016.238-1.627.88-2.236 1.684-.12.175-.213.364-.28.565a1.12 1.12 0 0 0-.073.212c-.277.105-.543.223-.765.445-1.563 1.563.4 4.15 2.369 3.42.822-.304 1.387-.775 1.891-1.489.2-.284.383-.584.609-.85.28-.331.743-.428 1.036-.782.091-.11.165-.24.225-.375 1.235-.024 2.44-.673 2.724-1.975z"/><path d="M72.84 44.426c-1.96-1.458-4.047-.292-5.82 1.199-2.801 2.356-4.881 5.2-6.52 8.455-1.898 3.77-2.82 7.977-6.077 10.882-4.335 3.867-11.276 4.455-16.434 7.018-2.901 1.442-7.678 4.325-4.282 7.548.218.21.505-.097.324-.322-4.787-5.911 14.55-9.392 18.142-11.66 3.467-2.189 5.627-4.75 7.17-8.413 1.172-2.785 2.35-5.515 3.999-8.056.893-1.376 2.027-2.509 3.155-3.68a13.386 13.386 0 0 1 1.828-1.522c1.058-.921 5.614-1.888 3.659.453-.268.249.075.652.379.49.809-.429 1.651-1.517.477-2.392z"/><path fill="#B7B7B7" stroke="#000" stroke-width=".638" d="M54.536 68.06c0 .38-.446.689-.992.689-.547 0-.99-.31-.99-.69v-1.903c0-.38.444-.689.99-.689.548 0 .992.31.992.69v1.902z"/><path fill="#EA0000" stroke="#000" stroke-width=".638" d="M55.55 69.599c-.311 1.855-.897 3.458-2.005 3.458-1.108 0-1.69-1.604-2.006-3.458-.32-1.884.898-3.098 2.005-3.098 1.107 0 2.324 1.214 2.006 3.098z"/><path fill="#FFF" d="M52.554 69.125c-.077 1.087.265 1.566 0 1.566s-.405-.225-.48-1.313c-.077-1.106.214-1.818.48-1.818.265 0 .075.461 0 1.565z"/><path fill="#B7B7B7" stroke="#000" stroke-width=".638" d="M33.16 76.17c-.373.077-.764-.3-.872-.836-.108-.537.107-1.034.48-1.108l1.865-.375c.373-.075.764.299.872.836.109.536-.106 1.033-.48 1.108l-1.864.375z"/><path fill="#FF6D00" stroke="#000" stroke-width=".638" d="M31.851 77.47c-1.88.058-3.567-.198-3.787-1.286-.218-1.085 1.24-1.974 2.996-2.648 1.783-.684 3.215.27 3.432 1.355.218 1.086-.732 2.518-2.64 2.578z"/><path fill="#FFF" d="M31.723 74.437c-1.08.14-1.483.568-1.535.309-.052-.26.14-.44 1.193-.729 1.069-.292 1.825-.148 1.877.112.052.26-.436.165-1.535.308z"/><path fill="#B7B7B7" stroke="#000" stroke-width=".638" d="M65.499 50.551c.342.166.426.701.186 1.194-.238.492-.71.756-1.053.59l-1.711-.83c-.343-.166-.426-.701-.186-1.192.238-.493.71-.758 1.052-.593l1.712.831z"/><path fill="#FFF533" stroke="#000" stroke-width=".638" d="M67.325 50.31c1.533 1.09 2.723 2.317 2.238 3.313-.483.997-2.18.822-3.987.295-1.836-.533-2.396-2.16-1.914-3.155.485-.997 2.109-1.562 3.663-.453z"/><path fill="#FFF" d="M65.593 52.8c.945.543 1.524.444 1.41.684-.117.238-.38.266-1.39-.14-1.03-.415-1.543-.987-1.427-1.225.116-.24.445.131 1.407.681z"/><path d="M57.478 27.969c-4.119.878-4.776 6.527-6.781 9.532-2.017 3.023-4.42 5.921-7.936 7.165-1.513.535-3.031 1.07-4.073 2.347-1.4 1.72-.293 4.558 1.842 3.348.352-.2-.299-.552-.692-.429-1.604-.259-.64-2.725.827-3.326a10.836 10.836 0 0 1 1.738-.757c.776-.292 1.56-.542 2.32-.878 2.322-1.027 4.086-3.28 5.583-5.236 1.664-2.172 2.665-4.43 3.727-6.916.616-1.441 2.438-5.315 4.662-3.543 1.068.85 1.094 3.046 1.133 4.266.018.529.829.533.824 0-.02-1.697-.4-6.164-3.174-5.573z"/><path fill="#B7B7B7" stroke="#000" stroke-width=".638" d="M46.346 45.163c-.243.295-.783.249-1.204-.1-.422-.348-.568-.869-.324-1.164l1.211-1.465c.243-.293.781-.249 1.204.1.421.348.568.869.325 1.164l-1.212 1.465z"/><path fill="#EA0000" stroke="#000" stroke-width=".638" d="M46.147 46.997c-1.422 1.23-2.895 2.096-3.75 1.388-.854-.704-.282-2.313.657-3.943.954-1.656 2.665-1.816 3.519-1.11.855.705 1.018 2.415-.426 3.665z"/><path fill="#FFF" d="M44.138 44.723c-.75.79-.793 1.375-.998 1.207-.204-.169-.169-.43.466-1.317.645-.9 1.324-1.265 1.529-1.097.204.169-.235.404-.997 1.207z"/><path fill="#B7B7B7" stroke="#000" stroke-width=".638" d="M57.674 28.72c.382-.026.715.399.748.946.034.548-.244 1.008-.625 1.033l-1.898.118c-.382.022-.716-.402-.75-.948-.034-.545.246-1.008.627-1.031l1.898-.119z"/><path fill="#0074FF" stroke="#000" stroke-width=".638" d="M59.148 27.61c1.869.198 3.507.682 3.575 1.788.07 1.105-1.494 1.787-3.327 2.215-1.86.436-3.148-.705-3.216-1.81-.07-1.104 1.068-2.393 2.968-2.193z"/><path fill="#FFF" d="M58.861 30.631c1.09.009 1.547-.361 1.563-.096.017.265-.199.418-1.28.56-1.099.142-1.829-.103-1.844-.368-.018-.263.452-.102 1.561-.096z"/><path fill="#FFF533" stroke="#000" stroke-width=".638" d="M52.33 17.474c-.985 1.625-7.578-.66-7.578-.66s-2.99 6.306-4.841 5.87c-1.85-.436-1.714-7.412-1.714-7.412s-6.92-.893-7.079-2.788c-.158-1.897 6.52-3.922 6.52-3.922s-1.29-6.858.464-7.594c1.755-.737 5.745 4.989 5.745 4.989s6.123-3.347 7.365-1.904c1.242 1.44-2.968 7.004-2.968 7.004s5.074 4.79 4.086 6.417z"/><path fill="#FFF" d="M47.276 14.653c-.495.817-3.808-.331-3.808-.331s-1.501 3.169-2.433 2.949c-.93-.218-.861-3.723-.861-3.723s-3.478-.45-3.556-1.401c-.08-.954 3.276-1.97 3.276-1.97s-.648-3.447.232-3.817c.882-.37 2.887 2.507 2.887 2.507s3.078-1.681 3.702-.958c.624.725-1.491 3.52-1.491 3.52s2.549 2.406 2.052 3.224z"/></svg>