<svg width="285" height="74" viewBox="-1 -1 285 74" xmlns="http://www.w3.org/2000/svg"><path fill="#FCD53E" d="M276.242 53.82H75.679V32.381h27.375c15.154 3.003 27.026 8.24 34.428 16.69 5.936-16.83 6.425-33.03 0-48.534-6.425 9.567-27.165 19.763-34.428 22.137-6.145 1.956-42.738 5.098-54.121 5.587-1.466.07-2.514.07-3.003.07-.21 0-.349 0-.349-.07H14.854c-.21 0-.489 0-.698.07-10.545.978-15.294 11.453-12.92 20.042 2.584 9.428 12.92 11.104 12.92 11.104H91.81v6.494h-5.796c-.559-1.117-1.537-1.885-2.584-1.885-1.117 0-2.025.768-2.584 1.885h-6.564c-.838-.768-2.026-1.257-3.352-1.257-.908 0-2.235-.419-3.003-.14a3.092 3.092 0 0 0-1.048-.837c-.908-.49-2.165 0-2.374 1.047-.559 2.305-.629 4.61-.14 6.984.28 1.187 1.676 1.745 2.654.977.14-.14.35-.28.489-.419.838.35 2.584.21 3.491.21 1.397 0 2.654-.559 3.492-1.397h6.774c.559.838 1.397 1.397 2.305 1.397.907 0 1.745-.559 2.304-1.397h190.367s6.494-.489 8.03-5.866c1.397-5.028-1.536-11.104-8.03-11.453zm-256.01 0h-6.076c-11.593-1.187-9.009-19.553.698-21.439h5.377v21.44zm17.947 0h-12.57V32.381h12.57v21.44zm31.983 0H42.927V32.381h27.305l-.07 21.44zm34.917 12.151h-9.218v-6.494h9.218v6.494zm171.163 0H109.13v-6.494h167.112c3.701-.07 5.517 5.098 0 6.494z"/><path fill="none" stroke="#FCD53E" d="M151.728 24.63h29.33m-29.33 7.821l25.42 14.665m-25.42-30.308l25.42-14.665" stroke-width=".698"/></svg>