<svg width="346" height="185" viewBox="-1 -1 346 185" xmlns="http://www.w3.org/2000/svg"><g fill="#FCD53E"><path d="M7.188 14.319l135.753-1.006.03 4.19L7.22 18.508l-.031-4.19z"/><path d="M8.424 18.13S1.387 20.276.62 20.281c-.768.006-.687-7.816-.058-7.82.628-.006 7.837 2.036 7.837 2.036l.026 3.631zm125.366 1.514c2.07-3.367 27.64 7.337 30.109 10.601 2.256 2.987 1.296-32.413-.223-30.027-2.141 3.228-28.166 15.852-29.932 13.141l.047 6.285z"/><path d="M131.117 16.94l-93.365.693c-3.492.025-6.693 1.516-9.05 3.838a12.824 12.824 0 0 0-3.704 9.106c.052 7.053 5.82 12.737 12.874 12.684l93.365-.692c3.492-.026 6.693-1.516 9.05-3.838a12.824 12.824 0 0 0 3.704-9.106c-.052-7.053-5.89-12.736-12.874-12.685zm6.43 19.646c-1.732 1.76-4.168 2.895-6.822 2.914l-92.806.688c-5.307.04-9.669-4.258-9.708-9.565-.02-2.654 1.01-5.106 2.812-6.865 1.733-1.759 4.169-2.894 6.822-2.914l92.807-.688c5.307-.04 9.669 4.258 9.708 9.566-.05 2.724-1.08 5.106-2.812 6.864zM73.3 8.36l-3.772.028c-.908.007-1.612-.756-1.618-1.594-.006-.908.756-1.612 1.594-1.618l3.771-.028c.908-.007 1.612.756 1.618 1.594A1.58 1.58 0 0 1 73.3 8.36z"/><path d="M70.224 6.86l2.583-.02.3 40.503-2.583.02-.3-40.503zm11.595 1.437l-3.771.028c-.908.007-1.612-.756-1.618-1.594a1.58 1.58 0 0 1 1.594-1.618l3.77-.028c.909-.007 1.613.756 1.619 1.594a1.58 1.58 0 0 1-1.594 1.618z"/><path d="M78.737 6.78l2.584-.02.3 40.503-2.584.019-.3-40.502zm11.531 1.454l-3.77.028c-.908.007-1.612-.756-1.619-1.594-.006-.908.757-1.612 1.595-1.618l3.77-.028c.908-.007 1.612.756 1.619 1.594.076.908-.687 1.612-1.595 1.618z"/><path d="M87.2 6.799l2.584-.02.3 40.503-2.584.02-.3-40.503z"/><path d="M94.917 13.577c.01 1.327 1.138 2.785 2.26 3.406-1.818-.336-3.926-1.997-3.94-3.882a4.053 4.053 0 0 1 4.02-4.08l.012 1.536c-1.534.36-2.364 1.414-2.352 3.02zm9.191 15.156l-45.53.338c-1.956.014-3.696.795-4.943 2.062-1.248 1.266-2.003 3.018-1.989 4.973.029 3.84 3.195 6.96 7.035 6.931l45.53-.337c1.956-.015 3.696-.796 4.944-2.062 1.247-1.266 2.003-3.018 1.988-4.973a6.96 6.96 0 0 0-7.035-6.932zm2.656 9.758c-.693.703-1.737 1.2-2.784 1.207l-45.042.334a3.979 3.979 0 0 1-4.01-3.95c-.008-1.118.404-2.099 1.167-2.803.693-.703 1.667-1.2 2.784-1.207l45.042-.334a3.979 3.979 0 0 1 4.01 3.95c.008 1.048-.474 2.03-1.167 2.803z"/></g><path fill="none" stroke="#FBD43F" stroke-width="1.397" stroke-linecap="round" d="M173.42 15.148l13.913.032m-15.395-4.31l10.875-8.68m-10.275 16.54l10.875 8.68"/></svg>