<svg width="185" height="54" viewBox="-1 -1 185 54" xmlns="http://www.w3.org/2000/svg"><g fill="#FCD53E"><path d="M7.159 14.307l135.753-1.006.031 4.19L7.19 18.497l-.031-4.19z"/><path d="M8.42 18.141S1.383 20.288.615 20.294c-.768.006-.687-7.816-.058-7.821.628-.005 7.837 2.037 7.837 2.037l.026 3.631zm125.367 1.515c2.07-3.368 27.64 7.337 30.108 10.601 2.256 2.986 1.296-32.413-.223-30.027-2.141 3.228-28.166 15.852-29.932 13.141l.047 6.285z"/><path d="M131.113 16.952l-93.365.692c-3.492.026-6.693 1.517-9.05 3.839a12.824 12.824 0 0 0-3.704 9.106c.052 7.053 5.82 12.736 12.874 12.684l93.365-.692c3.492-.026 6.693-1.516 9.05-3.838a12.824 12.824 0 0 0 3.704-9.106c-.052-7.053-5.89-12.737-12.874-12.685zm6.43 19.646c-1.732 1.759-4.168 2.894-6.822 2.914l-92.806.688c-5.307.04-9.669-4.258-9.708-9.565-.02-2.654 1.01-5.106 2.812-6.865 1.733-1.759 4.169-2.894 6.822-2.914l92.807-.688c5.307-.04 9.669 4.258 9.708 9.565-.05 2.724-1.08 5.106-2.812 6.865zM73.295 8.372l-3.77.028c-.909.007-1.613-.756-1.619-1.594-.006-.908.756-1.612 1.594-1.618l3.771-.028c.908-.007 1.612.756 1.618 1.594a1.58 1.58 0 0 1-1.594 1.618z"/><path d="M70.206 6.824l2.584-.02.3 40.503-2.583.02-.3-40.503zm11.609 1.485l-3.771.028c-.908.007-1.612-.756-1.618-1.594a1.58 1.58 0 0 1 1.594-1.618l3.77-.028c.909-.007 1.613.756 1.619 1.594a1.58 1.58 0 0 1-1.594 1.618z"/><path d="M78.708 6.77l2.584-.02.3 40.503-2.584.019-.3-40.502zm11.556 1.476l-3.77.028c-.908.007-1.612-.756-1.619-1.594-.006-.908.757-1.612 1.595-1.618l3.77-.028c.908-.007 1.612.756 1.619 1.594.076.907-.687 1.611-1.595 1.618z"/><path d="M87.164 6.76l2.584-.019.3 40.503-2.583.019-.3-40.503z"/><path d="M94.913 13.59c.01 1.326 1.138 2.784 2.26 3.404-1.818-.335-3.926-1.996-3.94-3.881a4.053 4.053 0 0 1 4.02-4.08l.012 1.536c-1.534.36-2.364 1.414-2.352 3.02zm9.191 15.155l-45.53.338c-1.956.014-3.696.795-4.943 2.062-1.248 1.266-2.003 3.017-1.989 4.973.029 3.84 3.195 6.96 7.035 6.931l45.53-.338c1.956-.014 3.696-.795 4.944-2.061 1.247-1.267 2.003-3.018 1.988-4.973a6.96 6.96 0 0 0-7.035-6.932zm2.656 9.757c-.693.704-1.737 1.2-2.784 1.208l-45.042.334a3.979 3.979 0 0 1-4.01-3.95c-.008-1.118.404-2.099 1.167-2.803.693-.703 1.667-1.2 2.784-1.208l45.042-.334a3.979 3.979 0 0 1 4.01 3.951c.008 1.048-.474 2.03-1.167 2.802z"/></g></svg>