<svg width="75" height="76" xmlns="http://www.w3.org/2000/svg"><path fill="#0CC" d="M74.772 14.572c0 .44-.02.88-.08 1.32-.44 3.68-2.38 7.73-6.3 10.33.18 3.5-.06 8.04-.72 13.82-.36 3.12-.71 6.2-1.06 9.26-.02.19-.05.38-.08.57-1.03 6.14-2.87 11.05-5.61 15.01-1.28 1.92-3.09 3.71-5.51 5.47-2.42 1.75-4.71 2.92-7.01 3.58-4.33 1.31-8.16 1.95-11.72 1.95-2.64 0-5.08-.35-7.27-1.05-4.84-1.49-9.16-4.24-12.76-8.13-2.34-2.52-4.06-5.02-5.27-7.64-1.44-3.09-2.26-7.34-2.65-13.72-.01-.07-.01-.13-.01-.2-.19-4.24-.5-10.19-.93-17.77-3.87-1.97-6.61-5.46-7.54-9.77-.38-1.74-.33-3.54.15-5.26 1.34-4.84 4.88-8.65 9.72-10.45 1.29-.49 2.79-.81 5.54-1.16a39.432 39.432 0 0 1 3.96-.65c1.14-.09 2.5-.11 4.75-.04h2.74c2.65-.15 5.4.22 8.23 1.08 2.2.66 4.11 1.85 5.6 3.42.04-.01.08-.02.13-.03.63-.18 1.57-.4 4.1-.91.19-.04.38-.07.57-.1.44-.08 2.32-.42 10.24-1.94 3.53-.71 7.06-.55 10.07.53 2.07.73 4.88 2.36 6.9 5.99.79 1.42 1.82 3.62 1.82 6.49z"/><path fill="#FFF" d="M63.776 14.568c-.293 2.408-2.346 3.523-6.156 3.348-.176 1.821-.264 4.523-.264 8.106.232 2.878.029 7.137-.615 12.774a5852.78 5852.78 0 0 1-1.057 9.251c-.762 4.525-2.053 8.078-3.869 10.662-.529.823-1.482 1.734-2.859 2.732-1.379.999-2.595 1.644-3.65 1.938-3.285.998-6.157 1.498-8.62 1.498-1.525 0-2.845-.178-3.958-.529-3.05-.942-5.718-2.646-8.005-5.118-1.525-1.646-2.639-3.235-3.343-4.767-.821-1.765-1.378-5.029-1.671-9.795-.235-5.472-.675-13.68-1.319-24.622 0-.411-.264-.999-.792-1.765-2.229-.177-3.518-.293-3.87-.354-1.525-.411-2.434-1.293-2.727-2.647.407-1.471 1.397-2.5 2.972-3.088.464-.176 1.688-.382 3.669-.618.641-.176 1.602-.353 2.884-.529.698-.058 1.922-.058 3.67 0h3.286c1.421-.117 2.989.089 4.706.617.828.234 1.243.821 1.243 1.762 0 1.175-.47 2.027-1.407 2.555-.646.413-1.73.677-3.254.793-1.056-.058-2.375.09-3.959.441-.411.235-.615.646-.615 1.234.058.47.088.911.088 1.32-.06 1.881.028 4.554.264 8.02.176 2.469.264 3.996.264 4.583v5.463c0 .176.058.617.176 1.322.117.705.177 1.116.177 1.232v6.521c.176.47.352 1.175.527 2.114.176 2.644 1.539 5.172 4.09 7.579 2.551 2.408 5.175 3.612 7.873 3.612 1.113 0 3.166-.411 6.157-1.234 1.172-.352 2.257-1.204 3.254-2.557.997-1.351 1.612-2.644 1.847-3.878.293-.528.645-1.352 1.057-2.469.527-2.937 1.201-7.402 2.023-13.397.584-6.698.672-12.693.264-17.982-.705-.058-1.791.06-3.256.352-1.642.411-2.785.616-3.43.616-1.525 0-2.639-.645-3.343-1.936-.234-1.172.381-2.052 1.848-2.639.409-.116 1.495-.352 3.255-.703.116 0 3.693-.674 10.73-2.023 1.76-.352 3.195-.321 4.311.088.352.118.674.441.967.969.29.53.437.912.437 1.148z"/></svg>