<svg width="72" height="86" xmlns="http://www.w3.org/2000/svg"><path fill="#0CC" d="M71.96 13.2c0 1.65-.3 3.3-.88 4.93-1.58 4.67-5.11 7.97-9.67 9.25-.32 2.11-.91 5.63-2.03 11.87-.03.14-.05.28-.08.42-.96 4.34-2.33 10.95-4.05 19.65-.33 1.97-.75 3.88-1.26 5.67-.4 2.16-.83 4.3-1.28 6.39-.03.15-.07.31-.11.46-1.54 5.89-5.22 10.23-10.36 12.22-.06.02-.11.04-.16.06-2.28.84-4.22 1.23-6.13 1.23-2.62 0-5.07-.76-7.11-2.21-1.69-1.17-3.56-2.71-4.81-5.19-.49-.98-.83-2.03-1.01-3.12-.02-.09-.11-.61-.42-1.87-.29-.83-.99-2.82-2.1-5.96-.07-.21-.14-.43-.2-.64-.34-1.18-.87-2.97-1.59-5.37-.77-2.34-1.51-4.75-2.22-7.17-1.14-3.55-2.81-8.9-5.08-16.3-1.41-.28-2.79-.72-4.11-1.34-.82-.39-1.59-.87-2.3-1.45-3.18-2.6-5-6.44-5-10.54 0-6.09 3.67-11.26 9.36-13.16l.2-.06c3.24-1.01 6.06-1.6 8.59-1.77.74-.16 1.58-.31 2.55-.46.85-.13 1.72-.15 2.57-.08.14-.01.5-.05 1.14-.18 1.79-.36 3.13-.57 4.24-.67.23-.37.48-.73.75-1.07 1.75-2.2 5.06-4.94 10.87-5.55l.26-.03c1.37-.11 3.48-.31 6.33-.59.19-.02.39-.03.59-.04 1.28-.06 3-.12 5.17-.17 1.7-.14 2.79-.23 3.27-.28.45-.05.91-.08 1.37-.08 9.65 0 14.7 6.64 14.7 13.2z"/><path fill="#FFF" d="M60.693 14.517c-.527 1.643-1.759 2.463-3.694 2.463-.411 0-1.231-.058-2.463-.176-.998-.116-1.759-.146-2.287-.088-.118.06-.294.176-.527.352-.176.88-.471 3.05-.88 6.51-.235 1.994-.998 6.567-2.287 13.722-.998 4.516-2.375 11.201-4.134 20.055a41.028 41.028 0 0 1-1.144 5.102 223.063 223.063 0 0 1-1.319 6.598c-.646 2.463-1.877 4.046-3.694 4.75-1.583.585-2.61.703-3.079.352-.763-.527-1.202-.91-1.319-1.144-.118-.703-.352-1.759-.703-3.166-.118-.353-.88-2.521-2.287-6.51-.352-1.231-.91-3.107-1.671-5.63a243.867 243.867 0 0 1-2.199-7.124c-1.174-3.636-2.962-9.382-5.366-17.24-.41-2.053-1.114-4.516-2.11-7.389-2.463.587-4.047.879-4.75.879a6.554 6.554 0 0 1-2.814-.615c-.646-.528-.968-1.201-.968-2.023 0-1.407.615-2.315 1.847-2.727 2.815-.88 5.102-1.319 6.861-1.319.585-.176 1.465-.352 2.639-.528 1.056.118 2.463 0 4.222-.352 1.76-.352 2.932-.527 3.519-.527.88 0 1.672.176 2.375.527.586.528.88 1.203.88 2.023 0 1.466-.704 2.405-2.111 2.814-1.29.06-3.05.439-5.277 1.144.117 2.054.381 3.725.792 5.014.879 2.639 2.11 6.305 3.694 10.995.058.587.204 1.379.439 2.375 1.231 4.692 3.312 11.318 6.245 19.879.352-.819.792-2.429 1.319-4.828.645-3.395 1.056-5.414 1.231-6.059A169.93 169.93 0 0 0 42.4 40.071c1.113-5.853 1.7-8.925 1.76-9.218.761-3.687 1.289-6.643 1.583-8.867.233-1.639.439-3.248.615-4.829-.059-.058-.118-.116-.176-.176-3.988.06-6.157.06-6.509 0-.527 0-1.231-.462-2.111-1.387 0-.058.044-.145.132-.26.089-.115.161-.203.221-.261-.06-.347-.03-.837.088-1.474.645-.808 1.788-1.3 3.431-1.474a424.05 424.05 0 0 0 6.509-.607c1.289-.058 3.048-.115 5.277-.173 2.814-.23 4.163-.347 4.046-.347 2.463 0 3.694.734 3.694 2.199a3.836 3.836 0 0 1-.267 1.32z"/></svg>