<svg width="140.005" height="108.428" viewBox="4.995 5 140.005 108.428" xmlns="http://www.w3.org/2000/svg"><path fill="#FFF" d="M107.248 42.441l.828.075.121 1.298-.998-.05zm3.285 3.145l1.41-.15.316 1.397-1.556.125z"/><path fill="#272525" d="M58.125 5.005c3.697 3.562 4.605 6.646 10.163 7.282 3.662.418 18.782.18 22.366.808 6.508 1.141 14.816 6.003 18.055 11.994 1.773-.198 10.65-1.918 11.369-1.808 1.688.258 3.564 2.811 3.896 4.426-3.42.947-6.879 1.75-10.257 2.856-.209.881-.01 1.406.408 1.729 8.205.692 18.345 6.11 19.688 8.876-1.558.399-11.812.761-14.525.817.215 1.804-.004 3.588-.229 5.378-2.703-1.173-4.814-3.471-7.705-4.236-.734-.195-1.613-.4-2.402-.536 0 0 .289 1.313-.049 1.572-.572.438-2.238.2-2.383-.1-.146-.3.047-1.697.047-1.697-1.904-.041-4.033.256-5.652 1.237 1.762 2.855 5.465 3.476 8.961 3.395.162-.004.031-1.894.148-2.065.119-.171 1.994-.396 2.233-.171.244.224.604 2.021.732 2.005a57.741 57.741 0 0 0 1.608-.212c3.703 2.582 7.058 6.657 10.648 9.387-5.838 1.596-20.047-1.299-25.127-4.009l-.234 1.285c3.463 1.809 16.014 8.212 15.922 8.612-.41.289-1.078 1.039-1.303 1.525 3.012 2.096 4.016.019 7.008 1.619 2.035-1.76 4.236-2.836 6.543-.81 2.312-1.884 4.68-.68 7.146-1.381 2.84-.805 5.729-3.269 8.586-.57.66.621 1.146 1.597 1.207 2.522.107 1.702-2.203 3.812-3.574 4.474-3.562 1.721-8.162-1.268-11.139 3.045-1.199.549-2.611.989-3.896.478-1.277 1.398-2.381.899-2.09 2.952.123.868-.703 1.418-2.99 1.865-.291 1.049-1.961 2.149-4.156 1.229-.623-.264-1.307-.743-1.438-1.477-.885.27-1.881.914-2.785.332-1.49-.212-.742-2.382-2.783-.809 2.478 1.962 6.525 1.494 7.006 5.521.437 3.628-.1 7.396-1.205 10.854 1.371.38 5.693 1.055 6.449 1.81-.33 2.756-1.723 5.454-4.129 6.854-2.811-.913-5.473-2.786-8.354-3.76-3.857-1.305-7.479-3.237-11.232-4.809.715 5.125-1.598 10.098-5.893 12.803.811 1.715 1.812 3.381 3.201 4.665-.484 2.171-7.729 3.037-9.559 2.522-.341-.811.096-1.602.229-2.381.42-2.428-1.521-5.926-2.462-8.139-.745-1.769-2.534-2.643-3.663-4.096-1.248.387-4.132 1.715-4.132 1.715-.629-.265-.979-1.261-1.252-1.855-2.232-4.844-4.236-8.659-8.91-11.52-1.957 1.01-3.246 1.189-5.337.57-2.833-.837-5.224 3.259-8.122 1.236-.595.142-1.322.113-1.578.812-1.037 2.819-1.124 4.358-4.084 5.949-1.51.811-3.407.928-5.012.333-1.114 1.336-2.724 2.134-4.455 1.949-4.16 6.785-13.059 12.717-21.069 12.472-2.666-.082-6.836.028-8.678-2.188-1.383-1.666 1.349-2.473-1.021-3.904-2.977-1.799.893-5.25-.325-6.854-.791-1.043-1.95-2.375-1.438-3.854.609-1.766 2.321-1.912 1.532-4.331-.478-1.466-1.078-2.856-.093-4.236.963-1.351 3.182-1.573 2.459-3.664-.496-1.438-.442-2.864.558-4.094.776-.954 2.233-.995 2.784-2.094-.511-1.833.335-6.224 2.877-5.142 4.99 2.122 4.263 13.5 17.959 12.804 1.588-1.39 4.457-2.662 6.312-.902 3.125-1.979 6.164-2.363 9.142.095 2.373-2.435 4.189.552 6.358-.901-8.183-3.444-5.804-8.309-2.877-14.944-5.272-2.325-16.707-2.761-16.707-2.761 5.821-5.228 16.576-8.164 24.039-10.851-3.761-2.595-6.582-8.139-11.694-7.854-.338-.25-.269-.725-.093-1.046 12.384-5.347 9.951 2.451 20.141 1.713-1.612-2.778-4.081-5.282-4.362-8.663.415-.479 11.042-2.693 12.481-3.57-.542-1.845-.687-3.822-1.529-5.568-1.335-.145-2.722.516-4.037.096-.689-1.479.163-2.381.139-3.665-.01-.559-.696-.712-1.114-.809-3.903-.915-9.452-1.632-10.488-8.568.242-3.312-1.212-6.045-1.346-9.137-.008-.389.251-.458.567-.432z"/><path fill="#5B76DF" d="M105.693 25.565c-9.217 1.74-17.988 4.67-27.06 6.949-.442-1.569-1.354-6.61-1.899-7.521-.355-.592-2.583.996-3.991.905-1.514-1.693 1.579-2.588 1.207-3.903-4.058-2.484-11.454 1.487-13.133-9.138 8.355 6.366 31.998-2.167 43.299 10.28.579.642 1.191 1.647 1.577 2.428zm15.127 1.381c-4.469 1.63-30.896 9.033-49.423 19.276-1.734-2.525-3.242-5.221-4.362-8.091 12.41-4.161 47.053-12.368 51.373-12.708 1.658-.131 1.873.054 2.412 1.523z"/><ellipse fill="#272525" cx="112.204" cy="32.043" rx=".724" ry=".742"/><path fill="#FFF" d="M112.375 32.086l-2.84-.25c.744.048 2.979-1.749 2.84.25z"/><path fill="#9ED400" d="M107.443 32.585s15.895 2.736 22.289 6.784c-4.812.716-9.844.318-14.666-.096 1.252-.823 3.666-2.427 3.666-2.427-3.181.32-6.394.969-9.234 2.523.375 1.419 7.021 2.241 7.982 2.426.146 1.062.362 2.113.371 3.189-5.127-2.952-11.285-6.011-18.519-2.285 2.332 6.718 8.53 7.477 14.385 5.236 2.603 1.976 4.82 4.419 7.103 6.758-9.205-.959-16.42-2.454-24.363-7.567 1.609-3.062 1.377-6.811.418-10.043l1.578-.81c1.721 6.019 10.346 4.091 8.678-2.046-.131-.479-.33-.867-.418-1.38l.73-.262z"/><path fill="#FFF" d="M104.425 37.975c-2.021 1.321-2.948-.55-3.979-2.462 1.379-1.033 3.111-1.287 4.598-2.094 1.133 2.16.688 3.701-.619 4.556zM78.96 63.499c.054-4.118.24-6.334 3.808-8.567 3.584-2.245 6.5-8.283 6.866-12.471-.819-1.176-1.141 1.273-1.299 1.713-1.244 3.482-8.629 15.16-21.718 13.042a9.654 9.654 0 0 0-6.497 1.237c4.193-5.405 8.5-3.988 13.736-5.474 2.916-.828 6.647-4.961 7.796-7.759l-.143-.952c4.516-1.72 8.59-4.423 13.041-6.282.947 2.798.109 6.53-1.111 9.139-2.826 6.034-13.357 10.241-14.479 16.374z"/><ellipse fill="#272525" cx="105.059" cy="35.479" rx="1.268" ry="1.298"/><path fill="#FFF" d="M59.47 46.365c2.645.999 6.126.999 8.818 0 1.206.762 1.763 2.332 3.202 2.854 2.599-1.762 5.43-2.999 8.26-4.141-1.764 3.332-5.057 5.95-8.492 7.092-11.406 1.773-14.422-7.608-20.698-8.234 6.177-1.47 5.94 1.619 8.91 2.429z"/><path fill="#5B76DF" d="M98.128 51.267c.14 1.667-.744 3.142-.883 4.807a55.858 55.858 0 0 0-5.568-3.332l3.109-3.189 3.342 1.714zm-7.239 2.712c5.391 3.686 10.846 7.297 16.567 10.423-.537.477-4.192 3.563-4.549 3.666-.896.256-13.308-9.907-14.943-11.233h-.557v.714c2.389 2.353 4.991 4.459 7.471 6.71-.172 1.792-.36 3.633-1.11 5.284-10.047 2.428-23.158.186-32.952-2.856-5.599-1.739-10.815-4.612-16.707-5.044 5.565-3.138 11.483-5.546 17.356-7.996-3.353 2.269-5.638 5.814-5.429 10.043 3.134-3.057 9.025-4.95 14.015-4.093 2.692.461 5.979-.967 8.446-1.952-1.781 3.268-1.711 7.778 0 11.328 1.092-1.939 1.349-4.362 2.599-6.188 2.461-3.588 6.438-6.697 9.793-9.376v.57zm21.81 8.568c-.418.476-.742.809-1.346 1.143-4.037-2.142-8.213-4.189-12.252-6.473l.465-1.952c4.411 2.38 8.725 4.95 13.133 7.282z"/><path fill="#A16520" d="M142.771 64.641c-.141 1.285-.881 2.428-2.088 2.856-3.062.237-7.01-.333-9.604 1.809-.931 1.189-2.646 1.047-3.761 1.047.648-1.428 1.394-2.855 1.3-4.569 2.784-2.047 6.45.238 9.144-1.951 1.529-.715 4.034-.715 5.009.808z"/><path fill="#9ED400" d="M125.648 69.781c-2.297.013-1.834-1.994-.697-3.236-1.791-.023-1.379 1.433-2.229 1.285.045-.664-.031-1.35-.324-1.951.951-.565 1.771-1.265 2.854-.755 2.576 1.214 2.121 2.301.396 4.657zm-9.837-3.998c.141.333-.278.856-.65.999-1.021-.047-1.947-.666-2.691-1.236.787-1.381 2.319 0 3.341.237z"/><path fill="#9ED400" d="M118.5 68.4c-.08 2.351 1.703 6.216 4.223 6.521.084.537-.48.897-.787 1.237-1.731.183-2.336-1.075-3.436-2.047-.389-.346-1.119.027-1.02.57.125.688 1.707 2.021 2.227 2.522-1.611 1.805-3.373-1.135-3.666-2.522 0 0-1.246 2.43-2.645 1.715-1.437-2.933.42-5.418-1.902-6.286l-4.92-1.855c1.346-.536 2.572-1.938 3.301-2.137 1.85.475 4.348 1.8 6.166 2.374.502-1.774 1.791-2.526 3.342-2.713.385.219 1.273.186 1.438.667.406 1.192-1.794 1.158-2.321 1.954z"/><path fill="#FFF" d="M102.816 71.019c.692-.048 1.16-.762 1.762-1.143.928.286 1.904.523 2.785.904-1.578 2.713-4.641-.047-6.775 1.475-.463.049-.836.334-1.252.478-1.996-.571-3.574.523-5.338.809-.465.667-1.299-.285-1.902-.571.881-.523 3.342.191 3.666-1.476.51-1.808.371-3.902 1.021-5.615 1.994 1.521 4.175 3.426 6.033 5.139z"/><path fill="#5B76DF" d="M87.964 73.541c4.873 2 8.91 5.9 12.81 9.805 1.348 1.571 2.785 3.284 3.807 5.047-2.184 1.144-4.548 1.902-6.773 2.854-.977-2.951-7.055-7.14-7.609-7.093.511 3.027-.364 6.82-1.301 9.379-3.479 2.094-7.52 2.808-11.276 4.234-2.273-5.048-5.8-10.613-10.905-13.041-3.527-2.285-13.97-6.16-13.865-8.425.166-3.571 1.66-6.095 3.192-9.046 6.119 1.526 21.034 6.852 31.92 6.286z"/><path fill="#9ED400" d="M125.091 71.019c.14.762-.559 1.618-1.254 2.048-1.438 0-2.319-1.811-3.108-2.857.092-.381.513-.428.789-.665 1.439.093 2.319.903 3.573 1.474z"/><path fill="#A16520" d="M110.796 74.352c-1.021.143-2.319-.523-3.34.666-1.394.476-2.832-.144-3.897 1.236-1.672.809-3.574.189-5.199.715-1.021.143-1.482-1.096-2.228-1.477 1.854-.762 4.13-1.999 6.312-1.143 2.137-.856 4.733-.522 6.594-2.096.604-.237 1.391.049 1.992-.189l-.234 2.288z"/><path fill="#E7C45E" d="M31.534 85.298c-2.098 3.774.832 9.5 3.898 11.757.061.467-.666.913-.928 1.283-2.612 3.691-7.164 8.046-11.556 9.139-2.932.729-8.617 1.295-11.37-.144-2.491-1.3-.355-1.592-.789-3.426-.526-2.228-3.807-.812-2.552-3.284.681-1.342 2.856-2.404 1.996-4.236-.657-1.397-2.892-1.025-2.784-2.617 3.609-3.514-.181-5.242.696-6.854.622-1.143 2.974-.872 3.991-2.855 1.062-2.068-2.938-4.482.232-5.713.754-.291 1.322-.424 1.995-.951 1.2-.938-.544-5.455 2.228-3.521 1.048.732 2.151 4.287 3.341 5.617 1.748 1.952 3.666 3.653 5.894 4.997 1.887 1.136 3.65.701 5.708.808z"/><path fill="#FFF" d="M106.341 78.109c.765 2.572 3.681 4.72 2.229 7.664-.569 1.152-.495 2.369-.975 3.521l-1.021-.096c.879-2.556-4.701-8.604-6.545-10.188 1.578-.524 3.41-1.081 5.014-.334.421-.215.805-.546 1.298-.567z"/><path fill="#7E4094" d="M108.514 78.199c1.922 1.771 3.674 2.496 4.478 4.99 1.239 3.867-.485 5.938-.878 10.381 1.656.449 2.312.021 4.09.646 1.752.624-.072 3.346-.291 5.24-.195 1.796 3.062 2.193 4.379.997 1.822-1.646 3.213-2.993 3.213-5.489 0-2.867-1.975-4.042-3.113-6.688-.975-2.271-1.146-3.741-2.143-5.987-1.61-3.616-6.914-6.984-9.735-4.09z"/><path fill="#272525" d="M115.714 94.868l-1.362 4.491c.438.324.901 1.123 1.268.699.877-.998 1.117-2.197 1.461-3.494.146-.623.973-1.896.584-2.396-.345-.447-1.39.8-1.951.7z"/><path fill="#9E73BF" d="M120.171 96.055c-.325 1.359-1.588 2.59-2.553 3.521-5.606-2.234-10.949-5.092-16.476-7.52 2.476-1.136 5.109-1.871 7.562-.24 2.107-1.235 1.609-3.912 1.9-5.948.401-2.812.115-4.244-1.482-6.615 1.062.623 3.438 3.324 3.57 4.57.051.442-1.619 7.603-1.762 9.231.328.456 2.688 1.215 2.688 1.215.037-.219 0-.873.17-1.498-.17-.279-.982-.319-.953-.511.479-2.741 1.33-7.704 1.205-8.915-.154-1.519-2.568-3.839-3.666-4.81 1.195.846 4.139 1.856 4.688 3.235 1.263 3.153-1.608 11.188-1.434 12.443.11.736 4.991 1.155 6.543 1.842z"/><path fill="#272525" d="M14.594 78.682c2.63 4.666 10.153 9.906 15.593 8.899.422.39.088 1.001-.139 1.381-4.63 2.519-15.837-4.991-15.778-10.28h.324z"/><path fill="#E7C45E" d="M46.569 83.107c-3.189-.183-4.522 4.555-2.692 6.996 1.242 1.653 3.51.719 5.105.334-2.27 8.418-16.689 1.07-9.467-6.379 1.614-1.663 5.131-2.363 7.054-.951z"/><path fill="#A16520" d="M64.019 85.393c-1.555 1.279-3.388-.483-5.198 0-2.779.746-2.641 2.043-5.94 1.381-2.398-.479-4.387 4.304-7.425 1.951-1.842-5.235 3.621-2.089 4.873-5.141 1.302-.709 2.275.848 3.806.096 4.178-2.054 6.246-1.186 9.884 1.713z"/><path fill="#DC511B" d="M37.427 83.488c-1.372 2.611-2.281 6.281-.464 8.9.796 1.146 1.993 1.812 3.017 2.713-3.481 2.84-10.199-6.203-3.898-11.279.607-.333.806-.527 1.345-.334z"/><path fill="#272525" d="M16.59 89.391c3.852.856 8.214.713 12.159 1.047.325.334.974.19 1.114.812-.418 1.146-1.856.619-2.785.903-6.265.617-12.854 0-17.495-4.332v-.477c2.32.715 4.456 1.903 7.007 2.047z"/><path fill="#9E73BF" d="M92.652 97.625c-.883 1.999-2.603 3.426-4.316 4.807 0 0 1.996 2.284 2.088 3.664l-2.459 1c-.65-3.38-2.691-6.615-5.43-8.996 1.16-.234 2.135-.733 2.816-1.035.973.998 3.17 3.514 3.959 1.273 1.809-3.188 2.088-6.947 2.364-10.757 1.534 3 1.767 6.664.978 10.044z"/><path fill="#7E4094" d="M91.537 104.145l-.787-1.379c3.01-2.259 5.244-5.589 4.688-9.564-.291-2.062-1.521-3.749-2.319-5.617 6.022 5.863 5.147 11.957-1.582 16.56z"/><path fill="#272525" d="M11.021 97.625s9.929-1.075 14.247-2.617c1.334-.479 4.468-3.05 5.894-1.619.614.616-.121 1.062-.557 1.381-4.395 3.226-14.863 6.542-19.584 2.855z"/><path fill="#FFF" d="M88.197 97.291c-.512-.047-.883-.523-1.348-.809.465-.334 1.067-.287 1.577-.432l-.229 1.241z"/><path fill="#272525" d="M33.064 96.721c-.864 4.663-14.76 11.029-19.352 10.854l-.232-.479c2.799-1.716 5.857-2.498 8.678-4.33 1.545-1.004 8.586-6.334 9.467-6.521.448-.097 1.194.012 1.439.476z"/><path fill="#7E4094" d="M93.115 110.332c-1.406.932-3.064.996-4.688.904.132-1-.864-2.443.648-2.76.862-.185 1.807-.692 2.688-.572.376.489 1.274 1.787 1.352 2.428z"/></svg>