<svg width="172" height="191" viewBox="48.894 57.68 172 191" xmlns="http://www.w3.org/2000/svg"><path fill="#964197" d="M56.654 71.108c.838 4.664 1.722 9.839 2.359 13.479 1.291 7.378 2.463 14.938 3.843 22.281.016.005.03.011.047.014.34.049.683.045 1.018-.022a3.496 3.496 0 0 0 1.181-.484c-1.892-10.798-3.981-24.186-6.119-35.745a8.299 8.299 0 0 0-1.243.113 4.21 4.21 0 0 0-1.086.364z"/><path fill="#FFF" d="M56.654 71.108c.285-.137.67-.292 1.085-.363a8.168 8.168 0 0 1 1.243-.113 414.614 414.614 0 0 0-1.223-6.361c-.306-.03-.624-.09-.913-.043-.453.073-.993.196-1.387.482.362 1.827.773 4.048 1.195 6.398z"/><path fill="#231F20" d="M54.544 64.494c-.108.138-.103.281-.037.395 2.6 12.916 5.239 29.464 7.749 42.333.002.014.009.024.014.037l.003.023c.18.649 1.36.471 1.792.402.57-.091 1.669-.383 1.767-1.145a.083.083 0 0 0-.003-.026c.007-.024.014-.047.012-.067-1.149-7.56-2.281-15.074-3.592-22.573-.958-5.477-2.476-14.428-3.553-19.882-.06-.304-.283-.438-.5-.435-.426-.219-1.152-.162-1.485-.122-.79.096-1.666.421-2.167 1.06zm3.215-.224c.409 2.034.816 4.164 1.223 6.36 2.138 11.559 4.227 24.946 6.119 35.746a3.485 3.485 0 0 1-1.181.484 2.973 2.973 0 0 1-1.018.022.254.254 0 0 1-.047-.014c-1.38-7.343-2.552-14.904-3.843-22.281-.637-3.64-1.521-8.816-2.359-13.479a380.07 380.07 0 0 0-1.195-6.399c.394-.286.934-.409 1.387-.482.291-.047.608.013.914.043z"/><path fill="#985B05" d="M60.764 104.162c.41-.027 1.453-.118 1.648-.587.133-.314-.288-.736-.469-.929-.416-.448-1.058-.626-1.503-1.014-1.099-.014-2.245-.391-3.232-.911-.482.667-.132 1.625.358 2.235.766.952 2.031 1.284 3.198 1.206z"/><path fill="#985B05" d="M69.654 107.632c-.803-.841-1.18-1.722-1.319-2.983-.253-2.3 2.546-4.997-.129-6.644-1.281-.788-2.522-1.047-3.379-2.377-1.708-.607-2.146.073-1.314 2.039a6.772 6.772 0 0 0 1.763 1.789c.537.413 1.419.604 1.851 1.106.307.357.16.807-.257.975l-.155.062c-.354.144-.615-.117-.679-.424-.24-.183-.507-.359-.785-.537-.724.465-1.044 1.312-1.012 2.17.022.53.296.979.712 1.296.412.315.88.356.968.94.033.22-.019.445-.231.563l-.123.068c-.204.113-.517.15-.716 0-.612-.457-1.045-1.139-1.274-1.884-.217.772-1.165 1.291-2.007 1.512-1.273.333-2.584.004-3.663-.692.32.915.657 1.784 1.355 2.574.996 1.126 2.576 1.394 3.959 1.765 1.09.292 2.746.772 3.82 1.616.762-1.093 1.624-2.095 2.615-2.934z"/><path fill="#985B05" d="M57.494 99.688c1.012.471 3.114 1.324 4.106.447.84-.741-.679-1.875-2.345-2.82l-.067-.019a.555.555 0 0 1-.237-.152c-1.011-.554-2.023-1.028-2.558-1.292a.39.39 0 0 1-.341.052c-.011.014-.016.029-.031.042-1.494 1.463.022 3.069 1.473 3.742zm-.906-4.261c.806.249 1.623.493 2.421.782a.487.487 0 0 1 .336-.087c.923.082 2.552.17 1.813-1.25-.43-.826-1.381-1.408-2.174-1.834-.826-.444-1.855-.763-2.785-.512-1.341.363-.087 2.22.34 2.79.027.035.037.073.049.111z"/><path fill="#231F20" d="M70.506 107.023c-.035-.057-.055-.113-.083-.168-1.877-2.056-.285-4.013.439-6.297.276-.868-.073-2.064-.803-2.635-1.254-.98-3.729-1.338-4.5-2.727-.33-.595-.644-1.109-1.344-1.301-.733-.202-1.273.271-1.636.918-.406-1.343-2.077-2.37-3.212-2.868-1.251-.548-3.125-.855-4.19.228-.884.898-.258 2.219.379 3.149-.003.002-.008.002-.013.004-2.006 1.084-.77 3.767.668 4.792-.661 1.041-.344 2.488.456 3.425.133.155.277.301.427.441-.203 1.754.853 3.716 2.296 4.68 1.83 1.222 4.529 1.323 6.461 2.468a5.836 5.836 0 0 1 2.225.78c.894-1.437 1.962-2.756 3.215-3.771a15.379 15.379 0 0 1-.785-1.118zm-11.247.163c-.698-.791-1.035-1.659-1.355-2.574 1.079.697 2.39 1.026 3.663.692.843-.221 1.791-.739 2.007-1.511.229.744.662 1.426 1.274 1.883.199.15.513.112.716 0l.123-.069c.212-.118.264-.342.231-.563-.088-.584-.556-.625-.968-.94-.416-.316-.69-.766-.712-1.296-.032-.857.288-1.705 1.012-2.17.278.178.545.355.785.537.064.308.325.568.679.425.052-.021.104-.041.155-.063.417-.168.564-.618.257-.975-.432-.502-1.313-.692-1.851-1.106a6.768 6.768 0 0 1-1.763-1.788c-.832-1.966-.394-2.647 1.314-2.04.856 1.331 2.098 1.589 3.379 2.377 2.676 1.647-.124 4.344.129 6.644.139 1.262.516 2.142 1.319 2.983-.991.838-1.853 1.842-2.615 2.935-1.074-.843-2.73-1.324-3.82-1.616-1.383-.371-2.963-.638-3.959-1.765zm-3.06-14.661c.93-.251 1.959.068 2.785.512.792.426 1.744 1.008 2.174 1.834.739 1.419-.89 1.332-1.813 1.25a.497.497 0 0 0-.336.087c-.798-.289-1.616-.533-2.421-.782-.012-.037-.022-.076-.049-.112-.427-.569-1.681-2.427-.34-2.789zm7.401 8.908a3.393 3.393 0 0 0-.204 1.109c-.001.047-.005.096-.004.144-.014-.026-.024-.052-.041-.078l-.015-.022a4.838 4.838 0 0 0-1.225-1.29c.946-.513 1.088-1.564.711-2.467.1.113.209.219.322.324.407.379.885.71 1.369 1.021a2.794 2.794 0 0 0-.913 1.259zm-7.579-5.486c.015-.014.02-.029.031-.043a.39.39 0 0 0 .341-.052c.535.265 1.547.738 2.558 1.292a.565.565 0 0 0 .237.152l.067.019c1.667.944 3.186 2.079 2.345 2.819-.993.877-3.094.024-4.106-.447-1.451-.672-2.967-2.278-1.473-3.74zm1.187 4.774c.988.52 2.133.896 3.232.911.445.388 1.087.566 1.503 1.014.181.192.602.614.469.929-.196.469-1.238.561-1.648.587-1.167.078-2.432-.254-3.198-1.207-.491-.609-.84-1.566-.358-2.234zm5.055-2.736a2.661 2.661 0 0 0-.291-.26 8.557 8.557 0 0 0-.558-.379c.232-.08.441-.196.624-.351.018.363.092.694.225.99z"/><path fill="#985B05" d="M195.956 171.01c-1.143-.001-2.14-.434-2.882-1.254-1.687-1.863-2.681-3.676-2.061-6.463.27-1.206.4-1.908.465-2.302l-3.379-.937 2.3-6.266.644.47c.021.015 2.116 1.533 3.727 1.532.115 0 .229-.008.338-.025.655-.109 1.869-.534 3.275-1.027 2.432-.851 5.458-1.91 7.607-2.032.22-.013.438-.019.652-.019 2.375 0 4.65.765 5.411 1.819.268.37.346.78.222 1.156-.087.257-.305.913-4.378 1.515 2.462.513 4.956 1.42 5.518 3.016.654 1.009.809 2.057.411 2.816-.196.378-.713 1.015-1.962 1.036-1.171 0-2.607-.808-3.996-1.589-1.007-.566-2.047-1.152-2.676-1.238a28.063 28.063 0 0 0-1.92-.171c1.061.603 2.211 1.332 2.853 1.981.306.309 2.979 3.061 2.873 4.849a1.404 1.404 0 0 1-.524 1.047c-.271.216-.615.326-1.023.326-1.483 0-3.733-1.507-5.739-2.981-1.226-.901-3.47-1.909-4.641-1.909-.232 0-.387.046-.398.09-.319 1.056.494 1.958.938 2.23.071.043 1.7 1.061 1.821 2.218.041.385-.091.745-.374 1.014-.567.546-1.815 1.098-3.102 1.098z"/><path d="M206.644 153.288c3.015 0 5.373 1.251 5.063 2.186-.333.998-9.125 1.657-9.125 1.657s9.406.4 10.29 3.328c.969 1.44.762 2.958-1.017 2.988h-.03c-1.782 0-4.915-2.597-6.55-2.821-1.644-.227-4.655-.285-4.655-.285s3.76 1.777 5.08 3.112c1.321 1.334 3.503 4.127 2.401 5.003-.17.136-.392.195-.649.195-1.407 0-3.919-1.788-5.384-2.864-1.264-.93-3.643-2.025-4.996-2.025-.502 0-.863.151-.974.518-.408 1.355.545 2.514 1.199 2.914.654.404 2.059 1.608 1.348 2.287-.414.397-1.509.93-2.689.93-.841 0-1.726-.271-2.437-1.057-1.706-1.887-2.459-3.507-1.919-5.929.54-2.423.54-2.873.54-2.873l-3.253-.9 1.802-4.907s2.25 1.648 4.081 1.648c.148 0 .295-.011.437-.034 1.887-.312 7.517-2.865 10.819-3.052a9.88 9.88 0 0 1 .618-.019m0-1.201c-.226 0-.454.007-.687.021-2.234.126-5.304 1.201-7.771 2.064-1.323.464-2.572.901-3.177 1.002a1.471 1.471 0 0 1-.239.018c-1.174 0-2.869-1.049-3.371-1.416l-1.288-.942-.55 1.497-1.801 4.907-.449 1.224 1.257.348 2.225.615c-.076.401-.191.964-.364 1.739-.717 3.216.634 5.263 2.199 6.995.861.949 2.012 1.451 3.329 1.451 1.512 0 2.884-.654 3.519-1.263.418-.4.615-.937.556-1.511-.149-1.423-1.904-2.543-2.104-2.665-.165-.102-.712-.582-.726-1.205.986.072 2.979.922 4.154 1.787 2.189 1.61 4.443 3.099 6.096 3.099.546 0 1.017-.154 1.397-.458a2.01 2.01 0 0 0 .749-1.48c.119-2.007-2.516-4.772-3.046-5.308a6.772 6.772 0 0 0-.486-.438c.468.228 1.007.53 1.509.812 1.457.819 2.963 1.667 4.249 1.667h.051c1.561-.027 2.227-.863 2.485-1.359.49-.939.338-2.188-.402-3.363-.463-1.206-1.777-2.051-3.376-2.641 1.956-.508 2.13-1.028 2.264-1.433.188-.562.08-1.165-.303-1.696-.88-1.217-3.305-2.068-5.899-2.068z"/><path fill="#FFF" d="M110.262 240.6c-.896 0-1.807-.037-2.71-.11-4.382-.358-7.333-1.438-7.456-1.484l-.875-.325.66-.661c.614-.617 1.746-1.354 3.458-2.255.882-.463 1.92-.968 3.084-1.503a98.36 98.36 0 0 1 1.533-.688 157.238 157.238 0 0 1 4.992-2.084c1.33-.532 2.428-.953 3.079-1.2l.339-.127 1.174-5.543.063-.096c.054-.082.107-.155.159-.229l.071-.102c1.441-2.065 2.752-3.071 4.009-3.071 2.5 0 3.333 3.877 3.42 4.319l.047.241-.136.206a6.523 6.523 0 0 0-.337.578 9.97 9.97 0 0 0-.765 2.021c-.255.94-.441 2.026-.553 3.226-.054.58-.091 1.186-.11 1.8-.062 2.002.078 3.543.079 3.559l.038.408-.366.185c-.425.214-.879.424-1.427.658-.677.291-1.368.556-2.052.786a28.367 28.367 0 0 1-4.825 1.157 31.61 31.61 0 0 1-4.593.334z"/><path d="M121.841 221.722c2.079 0 2.831 3.835 2.831 3.835a7.3 7.3 0 0 0-.369.631 10.668 10.668 0 0 0-.813 2.144c-.291 1.076-.468 2.225-.571 3.327a32.606 32.606 0 0 0-.031 5.47c-.465.234-.929.443-1.395.643-.671.288-1.34.544-2.007.769-1.604.538-3.19.904-4.722 1.133a30.48 30.48 0 0 1-4.504.328 32.97 32.97 0 0 1-2.662-.109c-4.35-.354-7.295-1.447-7.295-1.447.615-.617 1.822-1.364 3.312-2.146a65.731 65.731 0 0 1 3.055-1.489c.502-.23 1.013-.459 1.525-.684 1.149-.506 2.302-.991 3.376-1.431a193.757 193.757 0 0 1 4.666-1.841c.409-.155.645-.242.645-.242l.348-1.645.526-2.482.344-1.625c.076-.114.149-.213.223-.32 1.457-2.092 2.614-2.819 3.518-2.819m0-1.201c-1.467 0-2.94 1.089-4.502 3.329l-.068.097c-.056.08-.112.158-.169.244l-.128.191-.048.226-.344 1.626-.526 2.481-.212 1.001a64.237 64.237 0 0 0-12.786 5.517c-1.768.929-2.947 1.701-3.604 2.362l-1.318 1.322 1.751.65c.126.047 3.152 1.155 7.616 1.519.919.074 1.848.112 2.759.112a32.23 32.23 0 0 0 4.681-.341 28.987 28.987 0 0 0 4.928-1.183 27.151 27.151 0 0 0 2.099-.804 26.036 26.036 0 0 0 1.459-.672l.732-.368-.076-.816c-.001-.015-.138-1.524-.077-3.484.019-.602.055-1.194.108-1.763.108-1.165.289-2.217.535-3.125a9.347 9.347 0 0 1 .718-1.899c.107-.205.207-.377.306-.525l.272-.411-.095-.484c-.098-.49-1.03-4.802-4.011-4.802z"/><path d="M117.758 226.482l5.733 1.849c.208-.767.474-1.495.813-2.143l-5.978-1.651c-.075.106-.147.206-.224.32l-.344 1.625zm-.875 4.127s-.236.087-.645.241l6.569 2.645c.018-.581.053-1.2.113-1.837l-5.688-2.694-.349 1.645zm-5.309 2.084l7.913 5.846c.667-.224 1.336-.48 2.007-.768l-8.326-5.724c-.502.2-1.036.417-1.594.646zm-11.269 5.75s2.946 1.093 7.295 1.448l-3.982-3.594c-1.491.782-2.698 1.528-3.313 2.146zm6.368-3.635l5.936 5.104a30.984 30.984 0 0 0 2.157-.24l-6.568-5.548c-.513.224-1.023.453-1.525.684z" fill="#ED1D43"/><path fill="#FFF" stroke="#000" stroke-width="2" stroke-linecap="round" stroke-linejoin="round" d="M115.709 230.043l-3.288 1.209s2.963 2.041.525 3.615c-2.437 1.575-5.157-2.768-5.157-2.768s-8.597 3.816-9.808 6.782c0 0 19.259 7.079 28.732-2.974l-1.777-2.525c.002 0-6.28 2.877-9.227-3.339z"/><path fill="#FFF" d="M182.987 243.796a32.859 32.859 0 0 1-5.82-.51c-.73-.132-1.458-.29-2.163-.471a28.443 28.443 0 0 1-4.681-1.646 27.565 27.565 0 0 1-1.962-.992c-.531-.296-.96-.551-1.352-.802l-.345-.221.079-.401a31.884 31.884 0 0 0 .519-5.334c.012-1.203-.062-2.302-.219-3.266a10.022 10.022 0 0 0-.553-2.089 6.8 6.8 0 0 0-.277-.61l-.113-.218.072-.235c.123-.405 1.276-3.957 3.614-3.957 1.329 0 2.607 1.139 3.904 3.479l.248.453.599 5.636.324.162a184.255 184.255 0 0 1 7.689 4.096c.488.278.976.559 1.455.841a66.343 66.343 0 0 1 2.913 1.813c1.61 1.07 2.66 1.92 3.209 2.597l.588.726-.904.234c-.112.027-2.825.715-6.824.715z"/><path d="M169.786 223.645c.935 0 2.067.802 3.38 3.169.062.114.124.22.188.342l.177 1.652.268 2.522.177 1.671s.227.111.616.309a176.348 176.348 0 0 1 4.452 2.311c1.023.548 2.121 1.149 3.213 1.771.485.275.97.556 1.446.836a65.598 65.598 0 0 1 2.886 1.796c1.402.932 2.525 1.798 3.074 2.475 0 0-2.707.698-6.676.698a32.29 32.29 0 0 1-5.713-.5 29.214 29.214 0 0 1-2.12-.462 27.643 27.643 0 0 1-4.581-1.612 25.381 25.381 0 0 1-1.918-.97c-.44-.246-.883-.502-1.32-.782 0 0 .307-1.543.455-3.605.041-.58.069-1.199.076-1.839.011-1.106-.047-2.267-.227-3.367a10.574 10.574 0 0 0-.588-2.216 7.073 7.073 0 0 0-.303-.666c-.001-.002 1.08-3.533 3.038-3.533m0-1.201c-2.768.001-4.05 3.933-4.188 4.382l-.145.471.229.437c.085.164.167.346.249.554.225.561.399 1.222.52 1.965.151.929.222 1.993.212 3.163a29.234 29.234 0 0 1-.074 1.764 30.863 30.863 0 0 1-.436 3.458l-.159.805.689.44c.403.258.842.519 1.384.82.663.369 1.338.711 2.007 1.015a29.1 29.1 0 0 0 4.778 1.682c.72.184 1.461.345 2.206.479a33.457 33.457 0 0 0 5.927.52c4.074 0 6.86-.707 6.977-.736l1.81-.467-1.177-1.451c-.588-.726-1.682-1.615-3.343-2.72a66.825 66.825 0 0 0-2.939-1.829c-.482-.285-.972-.567-1.463-.847a147.294 147.294 0 0 0-3.24-1.784 194.01 194.01 0 0 0-4.478-2.326l-.031-.015-.107-1.018-.269-2.523-.175-1.651-.025-.232-.109-.205c-.045-.086-.089-.163-.134-.242l-.064-.115c-1.413-2.555-2.863-3.794-4.432-3.794z"/><path d="M173.531 228.808l-5.893 1.25a10.636 10.636 0 0 0-.588-2.216l6.116-1.028c.062.113.125.22.189.342l.176 1.652zm.446 4.194s.226.111.616.308l-6.805 1.955c.041-.58.069-1.199.076-1.839l5.936-2.095.177 1.671zm5.067 2.618l-8.472 5.002a25.736 25.736 0 0 1-1.917-.97l8.869-4.838c.48.252.989.521 1.52.806zm10.619 6.877s-3.041.785-7.405.69l4.33-3.165c1.402.932 2.526 1.799 3.075 2.475zm-5.96-4.27l-6.43 4.469a29.355 29.355 0 0 1-2.121-.462l7.104-4.843c.485.275.971.556 1.447.836z" fill="#ED1D43"/><path fill="#FFF" stroke="#000" stroke-width="2" stroke-linecap="round" stroke-linejoin="round" d="M175.202 232.561l3.146 1.539s-3.157 1.727-.894 3.542c2.262 1.814 5.414-2.224 5.414-2.224s8.16 4.679 9.059 7.754c0 0-19.883 5.063-28.274-5.909l2.027-2.33c0 .001 5.954 3.508 9.522-2.372z"/><path fill="#964197" d="M167.403 236.708c-8.799 0-16.438-1.798-22.706-5.345-10.384-5.875-20.98-6.752-26.373-6.752-2.402 0-3.857.175-3.872.177a.908.908 0 0 1-.722-.233.905.905 0 0 1-.288-.701c.001-.034.15-3.392.065-8-.085-4.569-.42-11.203-1.537-16.861-.792-4.02-1.868-7.022-3.195-8.925-2.822-4.047-3.26-12.637-3.13-19.13.074-3.689.353-7.703.808-11.609.591-5.092 1.663-11.31 2.945-14.345a76.197 76.197 0 0 1-5.146-.396l-.237-.026a91.212 91.212 0 0 1-5.086-.717 90.754 90.754 0 0 1-10.379-2.383 80.142 80.142 0 0 1-10.309-3.79c-3.825-1.721-7.435-3.752-10.729-6.039a59.145 59.145 0 0 1-5.347-4.165.896.896 0 0 1-.301-.764c.061-.633 1.591-15.573 9.81-20.763a.903.903 0 0 1 1.142.15c.019.02 1.849 1.988 4.998 4.759a102.5 102.5 0 0 0 5.524 4.526c5.011 3.819 10.142 6.993 15.25 9.435a68.043 68.043 0 0 0 4.22 1.854c.698.167 7.352 1.749 13.047 2.348.292.031.579.056.866.081l.101.008c.533.046 1.054.084 1.559.107.466.022.918.035 1.351.035.396 0 .776-.011 1.133-.033.02-.002.039-.002.059-.002a.9.9 0 0 1 .863.648c.012.041 1.223 4.156 2.93 8.562a72.298 72.298 0 0 0 1.813 4.295c1.05 2.257 2.026 3.939 2.911 5.019a32.146 32.146 0 0 0 2.128-2.602c2.227-3.03 4.741-7.552 4.075-11.882a.903.903 0 0 1 1.15-.999c.027.008 2.722.819 6.847 2.113 1.56.49 3.329 1.05 5.248 1.666l1.242.4c1.182.381 2.409.78 3.675 1.195l1.215.399a806.502 806.502 0 0 1 6.466 2.166c2.56.873 4.992 1.721 7.227 2.521 1.283.459 2.554.92 3.804 1.381 4.74 1.751 8.736 3.349 11.877 4.748 3.289 1.465 5.597 2.687 7.061 3.733.34.244.468.691.307 1.078l-8.164 19.634a.895.895 0 0 1-.831.554.9.9 0 0 1-.562-.196c-.021-.016-2.066-1.647-5.141-3.962-3.69-2.778-9.223-6.812-14.621-10.247a117.266 117.266 0 0 0-3.006-1.857c-4.05-2.415-7.257-3.957-9.554-4.593-.736 1.979-2.647 8.312-1.578 18.415.057.535.122 1.08.194 1.636.723 5.448 2.206 11.192 4.405 17.069a107.329 107.329 0 0 0 4.341 9.947 128.15 128.15 0 0 0 3.479 6.529 150.685 150.685 0 0 0 5.892 9.465 184.221 184.221 0 0 0 7.695 10.561 216.67 216.67 0 0 0 6.045 7.382.898.898 0 0 1-.474 1.461c-.217.052-5.356 1.26-12.48 1.26z"/><path d="M72.154 106.703s1.836 1.983 5.063 4.823a103.158 103.158 0 0 0 5.573 4.566c4.204 3.204 9.46 6.69 15.407 9.532a69.498 69.498 0 0 0 4.336 1.903s7.104 1.739 13.226 2.383c.333.036.658.063.984.091.544.047 1.078.086 1.593.11.481.022.948.035 1.394.035.417 0 .815-.012 1.191-.035 0 0 1.211 4.138 2.954 8.634a73.38 73.38 0 0 0 1.836 4.35c1.178 2.531 2.462 4.769 3.718 5.957 0 0 .737-.725 1.739-1.942.35-.425.729-.908 1.124-1.444 2.272-3.092 4.959-7.88 4.24-12.552 0 0 2.669.802 6.836 2.11 1.559.488 3.327 1.049 5.243 1.664l1.241.399a782.354 782.354 0 0 1 8.873 2.922c.004 0 .007.002.01.003a602.867 602.867 0 0 1 9.675 3.348c1.279.458 2.547.918 3.793 1.378 4.369 1.614 8.463 3.228 11.822 4.726 3 1.336 5.418 2.58 6.902 3.644l-8.164 19.633s-2.039-1.627-5.16-3.977c-3.84-2.892-9.321-6.878-14.679-10.288a122.701 122.701 0 0 0-3.028-1.869c-4.075-2.432-7.87-4.32-10.556-4.879 0 0-3.284 6.809-1.934 19.568.058.541.123 1.094.198 1.658.656 4.948 2.002 10.716 4.454 17.268 1.184 3.163 2.634 6.511 4.377 10.031a128.014 128.014 0 0 0 3.505 6.575 150.581 150.581 0 0 0 5.927 9.522c2.3 3.414 4.871 6.955 7.732 10.612a216.069 216.069 0 0 0 6.071 7.411s-5.171 1.234-12.271 1.234c-6.622 0-14.923-1.074-22.264-5.228-10.519-5.951-21.215-6.868-26.815-6.868-2.498 0-3.981.183-3.981.183s.153-3.362.065-8.058c-.092-4.974-.453-11.443-1.553-17.018-.736-3.733-1.802-7.062-3.34-9.268-2.383-3.415-3.125-10.768-2.969-18.596.078-3.865.374-7.844.802-11.524.889-7.653 2.344-14.007 3.567-15.312h-.028c-.29 0-2.736-.012-6.537-.428l-.278-.031a91.846 91.846 0 0 1-4.993-.704 90.093 90.093 0 0 1-10.275-2.359 79.366 79.366 0 0 1-10.193-3.747 66.317 66.317 0 0 1-10.586-5.957 57.801 57.801 0 0 1-5.265-4.102c.004.001 1.458-15.074 9.398-20.087m-.001-1.801c-.331 0-.664.092-.961.278-8.587 5.422-10.163 20.786-10.226 21.438a1.8 1.8 0 0 0 .604 1.525 60.123 60.123 0 0 0 5.428 4.229c3.34 2.317 6.999 4.376 10.874 6.12a81.349 81.349 0 0 0 10.425 3.833 92.035 92.035 0 0 0 10.482 2.407c1.699.287 3.413.529 5.091.718l.05.005.234.026c1.56.17 2.903.275 3.972.338-1.405 4.167-2.284 10.951-2.568 13.402a124.538 124.538 0 0 0-.813 11.696c-.133 6.627.331 15.418 3.292 19.663 1.255 1.8 2.281 4.688 3.05 8.584 1.104 5.593 1.435 12.171 1.52 16.702.084 4.576-.062 7.911-.064 7.943a1.8 1.8 0 0 0 2.02 1.869c.012-.002 1.426-.169 3.762-.169 5.303 0 15.723.862 25.928 6.636 6.405 3.623 14.195 5.461 23.15 5.461 7.229 0 12.47-1.231 12.689-1.284a1.799 1.799 0 0 0 1.294-1.195 1.809 1.809 0 0 0-.345-1.729 215.783 215.783 0 0 1-6.02-7.349 182.799 182.799 0 0 1-7.658-10.51 149.483 149.483 0 0 1-5.856-9.407 126.414 126.414 0 0 1-3.455-6.483c-1.662-3.354-3.11-6.671-4.304-9.863-2.177-5.814-3.643-11.49-4.356-16.873a61.588 61.588 0 0 1-.191-1.609c-.934-8.818.442-14.688 1.25-17.206 2.142.724 4.999 2.148 8.524 4.251a114.45 114.45 0 0 1 2.983 1.843c5.373 3.419 10.886 7.438 14.563 10.207 3.062 2.305 5.1 3.931 5.12 3.946a1.794 1.794 0 0 0 1.571.336c.548-.14.998-.53 1.215-1.053l8.164-19.634a1.803 1.803 0 0 0-.614-2.155c-1.513-1.084-3.873-2.335-7.219-3.825-3.157-1.407-7.171-3.012-11.931-4.77a364.91 364.91 0 0 0-3.812-1.385 518.387 518.387 0 0 0-9.705-3.36l-.016-.005c-.004-.001-.008-.001-.011-.003a639.952 639.952 0 0 0-3.984-1.327l-1.216-.4a786.915 786.915 0 0 0-3.678-1.197l-1.246-.4a772.769 772.769 0 0 0-5.253-1.667c-4.13-1.296-6.83-2.108-6.857-2.117a1.81 1.81 0 0 0-1.701.365 1.804 1.804 0 0 0-.598 1.633c.619 4.025-1.786 8.319-3.912 11.212-.338.46-.696.919-1.063 1.366l-.277.333c-.583-.867-1.302-2.129-2.155-3.963a70.723 70.723 0 0 1-1.79-4.24 120.71 120.71 0 0 1-2.905-8.49 1.8 1.8 0 0 0-1.845-1.291c-.325.021-.687.032-1.076.032-.399 0-.839-.012-1.31-.034a42.835 42.835 0 0 1-1.524-.105l-.1-.009c-.28-.024-.562-.048-.849-.079-5.507-.579-11.92-2.087-12.868-2.314a67.52 67.52 0 0 1-4.106-1.806c-5.053-2.415-10.131-5.558-15.093-9.339a101.013 101.013 0 0 1-5.475-4.487c-3.107-2.734-4.914-4.674-4.931-4.694a1.798 1.798 0 0 0-1.318-.571z"/><path fill="#F6EC50" d="M84.416 120.321l-2.251 10.958 11.107-5.688 5.771 5.688-.845-5.655c-5.947-2.842-11.204-6.328-15.408-9.532l-4.679 1.377 6.305 2.852zm26.059 32.422l10.036.546-9.277-7.451 1.216-5.431-.873-.453-7.228 3.736c4.053.442 6.566.428 6.566.428-1.223 1.305-2.679 7.659-3.568 15.312l1.488 1.117 1.64-7.804zm58.099 4.503l8.577 5.154-2.572-6.955 7.731-4.554-8.933-1.4-1.174-4.554c-1.246-.46-2.515-.921-3.793-1.378l-3.218 3.932-8.326 1.063 7.205 4.707-4.174 3.545a120.89 120.89 0 0 1 3.029 1.869l5.648-1.429zm-24.766 4.602l-7.655 8.559-7.835-2.052 5.457 8.105-5.457 7.505 9.968-3.902 8.674 4.953-3.151-8.556 3.799-3.308a64.512 64.512 0 0 1-.197-1.658h-4.22l.617-9.646zm-16.512 32.324l-10.102-10.207 6.649-10.533-10.95 3.929-6.347-6.405c-.157 7.828.585 15.181 2.968 18.596 1.538 2.205 2.604 5.534 3.34 9.268l2.583-7.348 11.859 2.7zm1.021 12.183l10.877 4.931-1.785 10.905 5.104 2.067 4.941-2.957 7.725 6.713 7.341.979-5.091-10.619 8.441-1.824a151.442 151.442 0 0 1-5.927-9.522l-2.515-.518-.99-6.058a108.066 108.066 0 0 1-4.377-10.031l-5.224 11.467-18.52 4.467zm-49.706-69.506a79.122 79.122 0 0 0 10.193 3.747l.814-7.067-11.007 3.32zm20.765 1.585l-.296 4.522c1.831.31 3.509.537 4.993.704l-4.697-5.226z"/><path fill="#DBA0C7" d="M173.603 227.161c-2.989.088-7.431.094-12.121-.335-3.178-.29-6.464-.78-9.488-1.582-2.479-.656-4.774-1.523-6.688-2.658-.121-.072-.248-.14-.366-.213-1.973-1.238-4.412-2.241-7.06-3.06-8.399-2.595-18.91-3.293-23.472-3.479.087 4.695-.065 8.058-.065 8.058s15.586-1.92 30.796 6.686c15.211 8.606 34.534 3.994 34.534 3.994a216.224 216.224 0 0 1-6.07-7.411zm17.326-73.855c-1.484-1.063-3.902-2.308-6.902-3.644-.776 3.744-2.896 12.769-6.422 19.301 3.121 2.349 5.161 3.978 5.161 3.978l8.163-19.635zM72.154 106.703c-7.94 5.013-9.394 20.088-9.394 20.088a58.118 58.118 0 0 0 5.265 4.102c1.722-8.568 6.798-16.155 9.192-19.367-3.226-2.84-5.063-4.823-5.063-4.823zm71.215 28.519c-4.167-1.308-6.837-2.11-6.837-2.11 1.201 7.806-7.103 15.938-7.103 15.938-4.101-3.876-8.508-18.94-8.508-18.94-1.466.094-3.268-.002-5.163-.201 1.667 5.521 6.439 20.007 12.369 26.418.001 0 12.534-7.884 15.242-21.105z"/><path fill="#5F2E00" d="M157.261 133.203c.188-.886.699-1.675 1.53-2.106 1.845-.956.312-1.734-1.058-2.778-.461-.35-.782-.715-1.147-1.156-.913-1.104-.823-2.686-.647-3.997.26-1.938.538-3.731-1.732-4.444-.484-.152-1.003-.284-1.464-.502-.783-.371-1.691-.786-2.027-1.659-.741-1.932-.461-5.003-3.272-5.363-.758-.098-.767-1.299 0-1.201 1.625.209 2.765.916 3.375 2.542.402 1.072.495 2.244.899 3.296.504 1.313 2.297 1.554 3.449 1.951 1.003.345 2.077 1.172 2.183 2.318.186 2.023-1.213 5.205.556 6.777.793.707 1.662 1.318 2.47 2.005.631.536 1.281 1.819.42 2.458-1.094.811-3.089 1.646-1.839 3.517.407.61.88 1.181 1.269 1.801.801 1.279.876 2.326.457 3.17 1.996-.947.18-3.491.543-5.793.14-.885 1.079-1.631 1.691-2.182.674-.606 1.713-1.895.386-2.213a5.59 5.59 0 0 1-.652-.315c-1.909-.957-2.007-4.706-2.237-6.474-.29-2.229-.345-4.582-2.551-5.754-1.425-.757-2.325-1.576-3.339-2.832-1.084-1.344-1.998-2.921-3.229-4.126-1.547-1.514-3.203-1.215-5.053-1.738-3.024-.854-3.54-3.418-5.728-5.289-3.054-2.608-7.843-3.688-11.777-2.748-3.875.926-7.962 3.523-9.887 7.124-2.065 3.866-.765 7.42-1.215 11.521-.193 1.756-.658 3.415-.982 5.143-.415 2.215.235 3.62 1.409 5.371.122.182.207.38.275.584.931.044 1.807.051 2.586 0 0 0 1.211 4.138 2.954 8.634 1.28.964 2.34 2.233 3.074 3.658 1.223 2.375 2.862 3.498 5.343 3.261 2.272-3.092 4.959-7.88 4.24-12.552a831.195 831.195 0 0 1 12.079 3.774c.334-1.677 1.456-3.907-.104-5.186-1.218-.999-2.443-1.653-2.469-3.39-.012-.775 1.189-.774 1.201 0 .023 1.682 2.002 1.992 2.761 3.257.714 1.189.601 2.392.224 3.697-.201.702-.393 1.347-.372 2.022 1.18.381 2.407.779 3.67 1.194.746-.82 1.131-1.848.638-3.139-.099-.258-.928-1.567-.916-2.127.039-1.892 1.804-3.334-.829-4.347-.756-.291-1.59-.707-1.824-1.571-.395-1.45.674-4.477-.951-5.272-.695-.339-.088-1.375.606-1.037 1.899.929 1.876 1.754 1.462 3.629-.697 3.15 2.967 3.098 3.917 5.491.468 1.178-1.725 1.953-1.046 3.263.493.951 1.093 2.09.988 3.206-.088.926-.386 1.671-.83 2.302 1.302.43 2.638.875 3.99 1.33 3.209-1.831-2.045-4.276-1.468-7.005z"/><path d="M160.681 139.832c.419-.845.344-1.891-.457-3.17-.389-.62-.861-1.191-1.269-1.801-1.25-1.872.744-2.706 1.839-3.517.861-.638.211-1.922-.42-2.458-.809-.688-1.677-1.299-2.47-2.005-1.768-1.573-.37-4.754-.556-6.777-.105-1.146-1.18-1.974-2.182-2.319-1.153-.396-2.946-.637-3.45-1.951-.404-1.052-.497-2.224-.899-3.296-.61-1.625-1.75-2.333-3.375-2.541-.767-.099-.758 1.104 0 1.201 2.812.361 2.531 3.431 3.272 5.363.336.874 1.244 1.288 2.027 1.659.461.218.979.35 1.464.502 2.271.713 1.992 2.505 1.732 4.444-.176 1.312-.266 2.893.647 3.998.365.441.688.806 1.147 1.155 1.37 1.044 2.902 1.823 1.058 2.778-.831.431-1.343 1.22-1.53 2.106-.577 2.729 4.677 5.174 1.466 7.004a.126.126 0 0 1 .01.003c.113-.006.228-.013.34-.022.703-.052 1.225-.175 1.606-.356z"/><path d="M154.579 133.369c-.679-1.309 1.514-2.084 1.046-3.262-.95-2.394-4.614-2.341-3.917-5.491.414-1.875.438-2.701-1.462-3.629-.693-.339-1.302.696-.606 1.037 1.625.795.557 3.822.951 5.272.235.865 1.068 1.279 1.824 1.571 2.633 1.013.868 2.455.829 4.347-.012.56.817 1.869.916 2.127.493 1.29.109 2.319-.638 3.139l1.214.398c.443-.631.741-1.376.829-2.303.108-1.115-.493-2.254-.986-3.206zm-4.353 1.894c.377-1.305.489-2.507-.224-3.696-.759-1.265-2.737-1.575-2.762-3.257-.011-.774-1.212-.775-1.201 0 .026 1.736 1.251 2.391 2.469 3.39 1.561 1.278.438 3.509.104 5.186l1.241.399c-.02-.675.17-1.32.373-2.022z"/><path d="M118.061 129.526c-1.174-1.751-1.824-3.156-1.409-5.371.324-1.728.789-3.387.982-5.143.45-4.101-.85-7.655 1.215-11.521 1.924-3.601 6.013-6.198 9.887-7.124 3.933-.94 8.723.14 11.776 2.748 2.188 1.87 2.703 4.434 5.728 5.289 1.852.523 3.506.224 5.053 1.738 1.231 1.205 2.146 2.783 3.23 4.126 1.013 1.256 1.914 2.075 3.339 2.832 2.206 1.173 2.261 3.526 2.551 5.754.229 1.768.328 5.517 2.237 6.474.211.12.428.225.652.315 1.327.318.288 1.607-.386 2.213-.613.551-1.553 1.297-1.691 2.182-.364 2.302 1.452 4.847-.544 5.793-.381.18-.9.304-1.604.355-.113.009-.226.016-.34.022.813.274 1.634.551 2.459.833 1.23-.443 1.83-1.303 1.811-2.82-.022-1.792-1.355-3.47.309-5.119.645-.64 1.589-1.209 1.941-2.095.202-.507.407-1.14.021-1.621-.219-.274-.301-.463-.604-.579-1.953-.74-2.439-2.403-2.801-4.167-.52-2.54-.169-5.897-2.228-7.815-1.15-1.072-2.65-1.494-3.74-2.727-1.347-1.526-2.427-3.269-3.764-4.805-.832-.956-1.854-1.45-3.061-1.744-2.781-.68-4.17-.597-6.007-3.114-1.939-2.658-4.141-4.253-7.383-5.024-6.477-1.539-12.644.847-16.834 5.941-1.753 2.13-2.58 4.75-2.607 7.476-.021 2.071.307 4.098.181 6.186-.141 2.327-1.006 4.514-1.217 6.829-.148 1.623.821 2.833 1.528 4.158.544.047 1.078.086 1.593.11a2.309 2.309 0 0 0-.273-.585z"/><path fill="#985B05" d="M129.372 149.554c-.115-.121-2.824-2.991-4.34-5.461-1.525-2.483-2.705-6.495-2.754-6.666l-.037-.126.174-1.172c-.091-.464-.19-.954-.261-1.293-.102.003-.201.005-.296.005-2.128 0-2.539-1.196-3.028-4.132-.184-1.098-.018-1.96.492-2.562.48-.567 1.248-.866 2.22-.866l.128.001c-3.284-8.073-3.836-14.395-1.638-18.797 1.677-3.362 4.993-5.676 9.853-6.877a12.847 12.847 0 0 1 3.067-.386c6.265 0 9.595 4.965 10.202 5.966l.011.005.106.194c8.865 14.791 6.527 22.399 4.344 25.614-.583.972-1.403 1.828-2.42 2.519-4.196 2.848-7.655 4.116-8.527 4.411l-6.778 10.17-.518-.547z"/><path d="M132.952 101.823c6.543 0 9.774 5.823 9.774 5.823h.001l.015.026c8.93 14.9 6.211 22.291 4.376 24.993-.525.872-1.252 1.673-2.261 2.358-4.743 3.22-8.575 4.402-8.575 4.402l-6.475 9.716s-2.763-2.917-4.264-5.361c-1.501-2.444-2.689-6.52-2.689-6.52l.17-1.144s-.371-1.901-.4-1.901a15 15 0 0 1-.766.027c-1.543 0-1.917-.515-2.436-3.63-.386-2.316 1.048-2.73 2.121-2.73.596 0 1.082.128 1.082.128-7.505-17.612-1.101-23.716 7.405-25.818a12.027 12.027 0 0 1 2.922-.369m0-1.202c-1.045 0-2.125.136-3.211.404-5.039 1.245-8.486 3.664-10.246 7.191-2.239 4.486-1.812 10.556 1.311 18.519-.814.128-1.477.476-1.941 1.024-.629.742-.84 1.768-.626 3.048.467 2.804.889 4.549 3.428 4.631.046.224.094.467.141.705l-.139.939-.039.261.074.252c.05.173 1.251 4.26 2.819 6.812 1.548 2.522 4.299 5.436 4.416 5.559l1.035 1.094.835-1.253 6.249-9.375c1.145-.404 4.491-1.71 8.477-4.415a8.772 8.772 0 0 0 2.599-2.705c2.257-3.348 4.665-11.193-4.352-26.244l-.014-.024-.014-.025-.033-.055-.133-.229-.011-.005c-.848-1.333-4.323-6.109-10.625-6.109z"/><path fill="#F17FB1" d="M132.683 132.454c1.066.602 2.428-.354 3.184-1.261a7.234 7.234 0 0 1-.819-.531c-.11-.08-.22-.157-.329-.244l-.032-.024c-.335.321-.894.788-1.134.583-.213-.181.174-.73.511-1.135l.004-.004a7.753 7.753 0 0 1-.782-.902l-.003-.004c-1.197.427-1.946 2.763-.6 3.522z"/><g fill="#231F20"><path d="M134.686 130.395l.032.024a7.814 7.814 0 0 1-.655-.576c-.337.405-.724.954-.511 1.135.24.205.8-.262 1.134-.583z"/><path d="M136.261 131.377a7.848 7.848 0 0 1-.607-.326l-.062-.036a8.543 8.543 0 0 1-.545-.353c.272.2.548.384.819.531-.755.907-2.117 1.862-3.183 1.261-1.346-.759-.596-3.095.599-3.521l.003.004a7.02 7.02 0 0 1-.294-.444l-.011-.018a5.086 5.086 0 0 1-.201-.361c-.121-.237-.173-.383-.173-.383-.771.566-1.438 1.595-1.594 2.299-.244 1.094-.175 2.364.72 3.149 1.65 1.447 4.099.018 5.25-1.485a8.445 8.445 0 0 1-.721-.317z"/></g><path fill="#231F20" d="M142.445 130.989c-2.12.387-4.283.182-6.042-1.17-1.4-1.075-1.844-2.555-2.931-3.816-.388-.449-1.15-.083-1.141.473.008.421.109.842.273 1.256 0 0 .051.145.171.379.108.212.271.499.508.826.234.318.498.621.782.902l-.004.004c.193.192.414.385.655.576.109.086.219.164.329.244.355.252.761.493 1.214.714.228.111.464.218.721.316 1.85.696 3.816.815 5.79.475.774-.134.447-1.321-.325-1.179z"/><path fill="#985B05" d="M139.374 123.895c.424.999.911 1.721 1.864 2.284 1.098.647 2.753.467 3.479-.658.862-1.335-1.883-3.864-2.589-4.857-.128-.18-.054-.368.088-.475-2.864-.512-3.561 2.001-3.728 3.25.359-.054.723.068.886.456z"/><path fill="#231F20" d="M142.725 120.202c-.149-.148-.364-.123-.508-.014-.142.107-.216.296-.088.475.707.993 3.451 3.522 2.589 4.857-.727 1.125-2.382 1.306-3.479.658-.954-.562-1.44-1.285-1.864-2.284-.163-.388-.527-.509-.885-.458-.552.081-1.089.582-.853 1.188 1.064 2.722 5.163 4.927 7.57 2.38 2.23-2.355-.829-5.16-2.482-6.802z"/><g fill="#231F20"><ellipse cx="132.573" cy="117.544" rx="1.525" ry="1.801"/><path d="M133.744 112.701c-1.527-1.688-5.93.287-4.597 2.6.26.453 1.006.151.849-.358-.396-1.274 2.339-2.559 3.113-1.607.36.444 1.025-.201.635-.635z"/></g><g fill="#231F20"><ellipse cx="144.431" cy="116.715" rx="1.176" ry="1.388"/><path d="M147.195 114.391c.208-2.267-4.23-4.165-5.027-1.617-.155.499.572.842.84.381.668-1.154 3.466-.014 3.291 1.2-.081.565.843.617.896.036z"/></g><path fill="#5F2E00" d="M125.927 103.033c-2.565.615-5.589 1.396-7.712 3.026-3.615 2.776-1.29 5.98-1.538 9.606-.144 2.102-2.088 3.281-3.608 4.371-2.029 1.456-1.662 5.612-4.398 6.352-1.086.293-2.068.216-3.188.182-2.011-.061-2.085 2.387-2.467 3.822-.335 1.258-.703 2.574-1.43 3.675-.426.644-1.372 1.734-1.276 2.531.807 1.951 2.012 2.6 3.617 1.946 1.992-.598 4.336-1.608 6.388-.627 1.217.581 3.615 3.013 5.087 1.948 1.09-.788 1.886-1.853 3.094-2.46.749-.375 3.861-.287 3.173-2.121-.344-.917-.868-1.778-1.161-2.714-.497-1.588-.411-2.88.679-4.173.466-.552 1.45-.8 2.097-.994 2.29-.685.799-2.749.506-4.125-.425-2.005.317-3.448 1.095-5.242 1.113-2.569-2.178-5.164-1.618-8.016.837-4.268 3.771-4.609 7.216-4.564a2.65 2.65 0 0 1-.133-.316c-.75-2.143-2.326-2.609-4.423-2.107zm7.058 2.282c.036.018.061.041.092.061.607-.205 1.319-1.085 1.704-1.243 1.015-.415 1.893-.213 2.918.078 1.038.294 2.104.92 3.021 1.487.632.39 1.268.836 1.947 1.141 1.39.235 1.438-.312.141-1.641-1.554-1.399-3.435-5.093-5.542-5.016-1.438.052-3.613.054-4.845.995-.552.421-1.024.781-1.551 1.081.661 1.029.723 2.383 2.115 3.057z"/><path fill="#231F20" d="M114.306 129.396c-.143 1.473 3.037 7.088-1.35 6.191-1.037-.21-1.478 1.371-.438 1.589 2.015.422 4.407-.152 4.469-2.676.037-1.523-.565-2.691-1.001-4.11-.56-1.814 2.239-1.937 3.42-2.259 2.34-.64 2.922-2.773 2.058-4.979-.76-1.938 1.038-3.045 1.707-4.587.367-.847.015-1.777-.271-2.578-.077-.217-.389-.183-.401.054-.07 1.556-.505 2.4-1.388 3.582-.453.606-1.06 1.385-1.125 2.18-.087 1.025.232 1.991.187 3.02-.076 1.761-1.998 1.843-3.147 2.227-1.014.339-2.602 1.095-2.72 2.346zm-.257-3.071c-.008-.733-1.078-.716-1.126 0-.106 1.546-2.696.854-3.342 2.309-.526 1.188-.237 1.983.363 3.077 1.393 2.539-2.153 2.613-3.71 3.227-1.149.455-2.102 1.004-2.711 2.113-.473.859.839 1.626 1.312.767 1.418-2.582 7.203-1.354 6.935-5.208-.05-.738-.571-1.335-.938-1.936-.949-1.553.343-1.952 1.523-2.184 1.236-.242 1.706-.926 1.694-2.165z"/><path fill="#231F20" d="M108.476 130.245c-.444-.84-1.582-1.899-.142-2.354.474-.149.274-.817-.202-.734-.921.164-1.709.465-1.745 1.51-.031.922.935 1.62 1.073 2.492.145.912-2.191.978-2.743 1.198-.919.369-1.509.918-1.747 1.902-.194.794 1.007 1.126 1.22.338.475-1.754 3.376-.9 4.372-2.467.365-.573.211-1.321-.086-1.885z"/><path fill="none" d="M125.927 103.033c-2.565.615-5.589 1.396-7.712 3.026-3.615 2.776-1.29 5.98-1.538 9.606-.144 2.102-2.088 3.281-3.608 4.371-2.029 1.456-1.662 5.612-4.398 6.352-1.086.293-2.068.216-3.188.182-2.011-.061-2.085 2.387-2.467 3.822-.335 1.258-.703 2.574-1.43 3.675-.426.644-1.372 1.734-1.276 2.531.807 1.951 2.012 2.6 3.617 1.946 1.992-.598 4.336-1.608 6.388-.627 1.217.581 3.615 3.013 5.087 1.948 1.09-.788 1.886-1.853 3.094-2.46.749-.375 3.861-.287 3.173-2.121-.344-.917-.868-1.778-1.161-2.714-.497-1.588-.411-2.88.679-4.173.466-.552 1.45-.8 2.097-.994 2.29-.685.799-2.749.506-4.125-.425-2.005.317-3.448 1.095-5.242 1.113-2.569-2.178-5.164-1.618-8.016.837-4.268 3.771-4.609 7.216-4.564a2.65 2.65 0 0 1-.133-.316c-.75-2.143-2.326-2.609-4.423-2.107z"/><path fill="#231F20" d="M133.542 107.377c.459-.083.93-.628 1.239-.935 1.388-1.377 3.632-.027 5.031.812 1.058.634 6.25 3.5 5.67-.212-.277-1.775-1.049-2.864-2.415-3.991-1.584-1.306-1.316-3.167-3.177-4.24-1.243-.717-3.229-.471-4.56-.288-1.021.14-1.99.317-2.972.637-.978.319-1.668 1.148-2.574 1.639a3.467 3.467 0 0 1-.495.225c-.048.016-.091.039-.133.061-.021-.004-.037-.012-.057-.016-2.597-.604-5.753.747-8.135 1.62-2.403.88-4.557 2.112-6.007 4.262-2.198 3.26 1.538 7.349-1.028 10.227-.843.946-2.18 1.55-3.149 2.391-.917.796-1.165 2.142-1.433 3.251-.994 4.12-5.467.195-6.868 3.054-.621 1.269-.873 2.674-1.199 4.041-.447 1.876-1.404 3.327-2.35 4.959-.838 1.445-.413 4.131 1.138 5.007 2.282 1.288 4.491.324 6.821-.351 3.359-.973 5.208 2.792 8.52 2.299 1.115-.166 2.205-1.436 2.947-2.174 1.027-1.022 2.917-.942 4.162-1.682 1.419-.845 1.164-2.629.605-3.895-.718-1.624-2.127-4.087.64-4.937 1.011-.311 1.783-.605 2.499-1.395.471-.52.581-1.482.381-2.133-.547-1.779-1.542-3.139-.938-5.099.748-2.429 2.011-3.672.599-6.168-1.483-2.62-2.061-6.741 1.891-7.168 1.324-.143 2.708.089 4.036.118l.013-.002c.11.043.224.073.341.096.285.053.596.051.957-.013zm-10.275 2.642c-.56 2.852 2.731 5.447 1.618 8.016-.777 1.794-1.521 3.237-1.095 5.242.292 1.376 1.784 3.44-.506 4.125-.647.194-1.631.442-2.097.994-1.09 1.293-1.175 2.584-.679 4.173.292.935.816 1.797 1.161 2.714.688 1.834-2.426 1.746-3.173 2.121-1.209.607-2.004 1.672-3.094 2.46-1.473 1.064-3.871-1.367-5.087-1.949-2.052-.979-4.396.03-6.388.628-1.605.654-2.811.005-3.617-1.946-.096-.797.85-1.888 1.276-2.531.728-1.101 1.095-2.417 1.43-3.675.382-1.435.456-3.883 2.466-3.822 1.119.034 2.102.111 3.188-.182 2.737-.74 2.369-4.896 4.398-6.352 1.52-1.09 3.464-2.269 3.607-4.371.249-3.626-2.076-6.83 1.539-9.606 2.123-1.63 5.147-2.411 7.712-3.026 2.097-.503 3.671-.036 4.422 2.105.04.112.084.217.134.316-3.444-.044-6.378.298-7.215 4.566zm9.154-8.841c1.232-.941 3.406-.943 4.845-.995 2.107-.077 3.988 3.618 5.542 5.016 1.297 1.329 1.249 1.876-.142 1.641-.68-.305-1.314-.751-1.947-1.141-.918-.567-1.983-1.193-3.021-1.487-1.025-.291-1.902-.493-2.918-.078-.385.158-1.097 1.038-1.703 1.243-.031-.02-.056-.043-.092-.061-1.392-.674-1.454-2.028-2.115-3.056.528-.301 1-.661 1.551-1.082z"/><path fill="#964197" d="M114.066 124.768c-.4 0-.75-.222-.936-.592-.097-.193-.23-.543-.522-1.318a118.099 118.099 0 0 0-2.569-6.341c-1.849-4.182-3.861-7.957-5.982-11.219-.64-.984-1.435-1.9-2.364-2.723-5.89-5.22-15.434-5.37-16.503-5.37h-.074a.9.9 0 0 1-.525-1.632c.092-.066 2.3-1.631 6.831-3.156a47.699 47.699 0 0 1 3.848-1.114 56.182 56.182 0 0 1 3.954-.817c3.694-.631 7.667-.95 11.806-.95 2.214 0 4.514.091 6.835.274 7.793.61 14.373 2.843 19.559 6.639 4.537 3.321 6.854 7.039 7.833 8.959.525 1.031.747 1.692.757 1.72a.902.902 0 0 1-.777 1.182 251.198 251.198 0 0 0-3.913.387c-2.227.238-4.284.486-6.114.738-4.804.663-11.211 4.66-14.227 7.288-1.637 1.427-3.188 3.712-4.322 5.379-1.317 1.94-1.811 2.666-2.595 2.666z"/><path d="M111.03 90.436c2.117 0 4.371.083 6.765.271 8.822.691 14.926 3.416 19.097 6.468 4.312 3.158 6.553 6.661 7.562 8.641.5.983.704 1.596.704 1.596s-.447.039-1.193.111c-.688.066-1.629.16-2.735.277-1.786.19-3.98.443-6.142.741-4.954.683-11.428 4.654-14.695 7.501-3.034 2.646-5.614 7.825-6.326 7.825-.054 0-.098-.03-.13-.095-.247-.494-1.269-3.539-3.073-7.62-1.485-3.36-3.499-7.42-6.051-11.346a14.259 14.259 0 0 0-2.522-2.906c-6.165-5.464-16.143-5.597-17.1-5.597h-.075s2.138-1.534 6.592-3.034a46.71 46.71 0 0 1 3.777-1.092 55.88 55.88 0 0 1 3.891-.805c3.287-.56 7.163-.936 11.654-.936m0-1.801c-4.19 0-8.213.324-11.957.962a57.458 57.458 0 0 0-4.705 1.004c-1.12.292-2.208.615-3.235.961-4.658 1.567-6.972 3.209-7.068 3.278a1.801 1.801 0 0 0 1.05 3.264h.074c.412 0 10.167.059 15.905 5.144.868.77 1.611 1.624 2.206 2.54 2.095 3.223 4.085 6.955 5.914 11.093 1.199 2.712 2.045 4.954 2.551 6.294.312.826.442 1.17.56 1.403a1.942 1.942 0 0 0 1.741 1.089c1.261 0 1.913-.959 3.341-3.061 1.105-1.627 2.619-3.856 4.168-5.208 2.932-2.554 9.137-6.438 13.757-7.074 1.822-.251 3.87-.499 6.088-.735a247.07 247.07 0 0 1 2.715-.275c.734-.071 1.177-.109 1.18-.11a1.8 1.8 0 0 0 1.552-2.364c-.024-.076-.263-.772-.808-1.844-1.015-1.992-3.417-5.847-8.104-9.278-5.323-3.896-12.059-6.187-20.021-6.81a90.073 90.073 0 0 0-6.904-.273z"/><path fill="#F6EC50" d="M144.454 105.816c-1.01-1.98-3.25-5.483-7.562-8.641l-5.884 6.31h9.347l.875 4.316c1.106-.118 2.047-.212 2.735-.277l.489-1.708zm-32.677 5.701l10.312-4.105-11.572-2.236-1.242-8.643-4.568 6.282-2.417-.914c.945.837 1.802 1.8 2.522 2.906 2.552 3.926 4.566 7.986 6.051 11.346l3.974 1.266-3.06-5.902zM99.376 94.365v-2.992c-1.403.24-2.702.512-3.891.804l3.891 2.188zm-4.553-2.019a46.323 46.323 0 0 0-3.115.924l1.063 2.249 2.052-3.173z"/></svg>