<svg xmlns="http://www.w3.org/2000/svg" viewBox="0 0 44.8 53"><path fill="#F7941E" d="M44.6 47.8c0-.1-.1-.3-.1-.5-.1-1.3-.1-1.3-1.5-1-1.6.3-3-.1-3.9-1.4-1.2-1.7-2.3-3.5-3.3-5.3-2.9-5.2-5.8-10.5-8.6-15.7-.2-.3-.1-.9.1-1.2.8-1.6 1.6-3.2 2.4-4.7.2-.5.5-.9.7-1.4 1.1-2.1 2.2-4.2 3.4-6.2.4-.7.8-1.4 1.2-2 .4-.6 1-1.2 1.3-1.9.8-1.7 2.1-2.7 3.9-3 .8-.1 1.7-.2 2.5-.4V1.3c.1-1 .1-1.1-1-1.1-4.6 0-9.2.1-13.8.2-.2 0-.4.1-.5.2-1.2 1.1-2.4 2.3-3.5 3.5-.4.4-.3 1.9.1 2.2.1.1.3.1.4.1h2.7c.9 0 1.3.5 1.1 1.4 0 .3-.2.6-.4.9-.8 1.4-1.5 2.8-2.3 4.2-.7 1.3-1.5 2.5-2.2 3.9-.2-.3-.3-.5-.4-.8-.7-1.3-1.2-2.7-2-3.9-1.1-1.9-2.4-3.7-3.5-5.6-.3-.5-.6-1.1-.8-1.7-.4-.8-.2-1.2.7-1.3.7-.1 1.4-.2 2-.2 1.5-.3 1.5-.3 1.5-1.7V1c.2-.8-.2-1-.9-1h-5.5C11.7 0 9 .1 6.3.2c-.2 0-.5.1-.6.3-1.4 1.2-2.8 2.4-4.1 3.6-.5.5-.6 2.2-.1 2.8.1.1.2.2.4.2 1 .2 2.1.4 3.1.6 1.4.3 2.5.9 3.1 2.2l1.2 2.7c.2.6.5 1.2.7 1.8 1.2 2.7 2.5 5.3 3.8 8 .8 1.8 1.6 3.5 2.4 5.3.2.4.2.9.1 1.2-.3.8-.8 1.7-1.2 2.5-2.7 4.7-5.4 9.3-8.1 14-.4.7-1 1-1.8 1-.3 0-.8.1-1 .3-1.1 1-2.2 2.1-3.3 3-.9.8-.9 1.6-.7 2.6 0 .4.3.7.8.6 1.6-.1 3.3-.1 4.9-.1 3.4 0 6.8.1 10.2.2.2 0 .6-.1.7-.2.6-1.5 1.6-2.7 2.9-3.8.1-.1.2-.3.2-.5.1-.4.2-.9.3-1.3.2-.8 0-1-.8-1-1.2-.1-2.5-.2-3.7-.4-.8-.1-1-.5-.7-1.2.3-.6.6-1.3.9-1.9.9-1.6 2-3.2 2.9-4.8.6-1.1 1.2-2.2 1.8-3.5.8 1.6 1.6 3 2.2 4.5 1 2.8 2.6 5.2 4.3 7.6.3.4.3.7-.1 1-1 .9-1.9 1.9-2.9 2.8-.4.4-.7 1.8-.3 2.3.1.2.4.3.6.3.5 0 1.1-.1 1.6-.1h4.7c1.6-.1 3.3-.3 5-.3 1.8 0 3.6.1 5.4.1.3 0 .6 0 .8-.2.8-.7 1.4-1.6 2.2-2.3.8-.8.8-1.5.5-2.3zm-1 .4c-3.4.2-6.8.3-10.1.4h-4.4l-.3-1.8c.8-.1 1.6-.1 2.3-.3 1.5-.4 1.7-1.3 1.1-2.7-1.6-4.5-4.7-8.2-6.7-12.4-.5-1-1.1-2-1.7-2.9-.2-.4-.4-.4-.7 0-.7 1.3-1.3 2.6-2.1 3.9-1.9 3.4-3.9 6.8-5.9 10.2-.3.5-.6 1.1-.8 1.6-.5 1.2-.1 2 1.2 2.2 1.3.2 2.5.4 3.9.5v.1c-.3 1.7-.3 1.8-2.1 1.8H5.1c0-.8-.1-1.3-.1-1.8.9-.1 1.9-.2 2.8-.3 1.7-.2 2.9-1.2 4-2.5 1.3-1.4 2-3.1 2.8-4.9.4-.9 1-1.8 1.5-2.7.8-1.5 1.5-3 2.4-4.4 1.1-1.8 2-3.6 2.8-5.5.1-.3.4-.5.7-.8-.7-1.2-1.5-2.5-2.2-3.8-1.2-2.2-2.3-4.5-3.6-6.8-1-1.9-2.1-3.8-3.2-5.6-1-1.8-2-3.5-2.8-5.4C9.8 3 8.7 2.9 7.6 2.7c-.3-.1-.7 0-1.2 0 .1-.7.2-1.3.3-2C8.5.6 10.2.4 12 .4c2.5 0 4.9.1 7.4.1.5 0 .9 0 .8.6-.1.5.5 1.3-.7 1.4-.8 0-1.7.2-2.5.4-1 .2-1.4 1.1-.9 2 1 1.9 2 3.9 3.2 5.7 1.3 1.8 2.1 3.9 3.2 5.8l1.8 3.3c.1.2.4.4.6.5.1-.2.2-.4.4-.6.1-.1.1-.2.2-.3 1.8-1.9 2.6-4.4 3.8-6.6.9-1.6 1.9-3.2 2.9-4.8.5-.9 1.1-1.9 1.5-2.8.4-.8-.1-1.7-1-2-.8-.2-1.7-.4-2.6-.4-.7 0-1.2-.4-1.6-.8-.1-.1-.2-.5-.1-.7 0-.2.3-.3.6-.3 2.6-.1 5.3-.2 7.9-.2h5.3c0 .7-.1 1.2-.1 1.8-.9.1-1.6.3-2.4.4C38 3 36.9 4 35.9 5.4c-1.8 2.6-3.2 5.5-4.7 8.3-1.6 3.1-3.2 6.2-4.7 9.3-.1.2-.1.6.1.8 1.1 2.1 2.2 4.3 3.4 6.4l.9 1.5c2.2 4.7 4.7 9.1 7.5 13.5 1.1 1.7 2.4 2.2 4.4 1.8.3-.1.6-.1 1-.2-.1.4-.1.8-.2 1.4z"/><path fill="#FFF" d="M42.7 46.9c-2 .4-3.3-.1-4.4-1.8-2.7-4.4-5.3-8.8-7.5-13.5-.2-.5-.6-1-.9-1.5-1.1-2.1-2.3-4.3-3.4-6.4-.1-.2-.2-.6-.1-.8 1.5-3.1 3.1-6.2 4.7-9.3 1.5-2.8 2.8-5.7 4.7-8.3C36.9 4 38 3 39.6 2.8c.8-.1 1.5-.2 2.4-.4 0-.5.1-1.1.1-1.8h-1c-1.5 0-2.9-.1-4.3 0-2.6 0-5.3.1-7.9.2-.2 0-.5.1-.6.3-.1.2 0 .6.1.7.5.4.9.8 1.6.8.9 0 1.7.2 2.6.4.9.3 1.4 1.2 1 2-.5 1-1 1.9-1.5 2.8-.9 1.6-2 3.2-2.9 4.8-1.2 2.2-2 4.7-3.8 6.6-.1.1-.1.2-.2.3-.1.2-.2.4-.4.6-.2-.2-.5-.3-.6-.5l-1.8-3.3c-1.1-1.9-1.9-4-3.2-5.8C17.9 8.8 17 6.8 16 4.9c-.5-.9-.1-1.7.9-2 .8-.2 1.6-.3 2.5-.4 1.2 0 .6-.9.7-1.4.1-.6-.3-.6-.8-.6-2.5 0-5-.2-7.4-.1-1.8 0-3.5.2-5.3.3-.1.7-.2 1.3-.3 2 .5 0 .9-.1 1.2 0 1.2.2 2.3.3 2.9 1.6.8 1.8 1.8 3.6 2.8 5.4 1 1.9 2.1 3.8 3.2 5.6 1.2 2.2 2.4 4.5 3.6 6.8.7 1.3 1.4 2.5 2.2 3.8-.3.3-.6.5-.7.8-.9 1.9-1.7 3.8-2.8 5.5-.9 1.4-1.6 2.9-2.4 4.4l-1.5 2.7c-.8 1.7-1.6 3.4-2.8 4.9-1.1 1.2-2.3 2.3-4 2.5-.9.1-1.8.2-2.8.3 0 .5 0 1.1.1 1.8h12.2c1.8 0 1.8 0 2.1-1.8v-.1c-1.3-.2-2.6-.3-3.9-.5-1.3-.2-1.7-1-1.2-2.2.2-.6.5-1.1.8-1.6 2-3.4 3.9-6.8 5.9-10.2l2.1-3.9c.2-.5.5-.4.7 0 .6 1 1.2 1.9 1.7 2.9 2 4.3 5 8 6.7 12.4.5 1.5.4 2.3-1.1 2.7-.7.2-1.5.2-2.3.3.1.6.2 1.3.3 1.8h4.4c3.4-.1 6.7-.3 10.1-.4 0-.5.1-1 .1-1.5-.6.1-.9.2-1.2.2zM22.4 22.2c-.2-.1-.5-.2-.6-.3-1-1.8-2-3.5-2.9-5.3-.9-1.8-1.7-3.7-2.6-5.6-.4-.9-1-1.8-1.5-2.7-.2-.3-.2-.6-.3-.9.1 0 .2-.1.3-.1.7 1.2 1.7 2.2 2.2 3.5 1.2 3.1 2.9 6 4.4 8.9.3.6.7 1.2 1 1.8 0 .1-.1.4 0 .7zm1.5 2.7c-.4-.1-.8-.4-.9-.7-.2-.5.4-1 .8-1 .5 0 .8.4.8 1.2-.1.1-.4.6-.7.5zm9.7 17c-1.1-1-2-2.2-2.6-3.6-.6-1.4-1.3-2.9-2-4.3l-3.3-6.3c-.1-.2-.3-.4-.4-.6-.1-.2-.1-.3-.1-.5.2 0 .5-.1.6 0 .2.2.4.4.6.7 1.3 2.4 2.5 4.7 3.7 7.1.5 1 .9 2.1 1.4 3.1.6 1.2 1.2 2.3 1.8 3.4.2.3.3.6.5 1-.1-.1-.1-.1-.2 0z"/><path fill="#F7941E" d="M33.8 41.8c-.1 0-.1.1-.2.1-1.1-1-2-2.2-2.6-3.6-.6-1.4-1.3-2.9-2-4.3l-3.3-6.3c-.1-.2-.3-.4-.4-.6-.1-.2-.1-.3-.1-.5.2 0 .5-.1.6 0 .2.2.4.4.6.7 1.3 2.4 2.5 4.7 3.7 7.1.5 1 .9 2.1 1.4 3.1.6 1.2 1.2 2.3 1.8 3.4.2.2.4.5.5.9zM22.4 22.2c-.2-.1-.5-.2-.6-.3-1-1.8-2-3.5-2.9-5.3-.9-1.8-1.7-3.7-2.6-5.6-.4-.9-1-1.8-1.5-2.7-.2-.3-.2-.6-.3-.9.1 0 .2-.1.3-.1.7 1.2 1.7 2.2 2.2 3.5 1.2 3.1 2.9 6 4.4 8.9.3.6.7 1.2 1 1.8 0 .1-.1.4 0 .7zm2.2 2.2c-.1.1-.5.5-.7.5-.4-.1-.8-.4-.9-.7-.2-.5.4-1 .8-1 .5 0 .8.4.8 1.2z"/></svg>