<svg xmlns="http://www.w3.org/2000/svg" viewBox="0 0 45.3 54.1"><path fill="#F7941E" d="M44.4.3c-2 0-3.9-.1-5.8-.2-2.7-.2-5.4-.1-8 .5-.2 0-.5.2-.6.4-.8 1-1.7 1.9-2.4 2.9s-1.8 1.8-1.5 3.3c.2 1.2.4 1.4 1.6 1.4h3.1c-2.3 4.1-4.5 8-6.7 11.9-.1-.1-.2-.2-.3-.4-2.7-4.9-5.4-9.8-8-14.7-.3-.5-.1-.8.3-1 .6-.3 1.2-.7 1.9-.8 1.2-.2 1.8-.8 1.4-2 0-.1 0-.2.1-.3.1-.5-.1-.7-.5-.7H4.8c-.2 0-.4.1-.5.3C3 1.8 2 3 .9 4.1c-1 1-1 2.1-.7 3.2 0 .2.4.5.6.5 1.1.2 2.3.3 3.5.5.9.1 1.3.8 1.6 1.6.1.3.2.6.4.9 1.2 2.3 2.5 4.6 3.7 6.9 1.5 2.8 2.8 5.7 4.2 8.6 1 2 2.2 3.9 2.2 6.4 0 4.2.2 8.4.5 12.5.1 1.7-.4 3-1.7 4.1-1.1.9-2.4 1.9-2 3.8.2 1 .1 1.1 1.2.9h.3c4.2.1 8.5.1 12.7.2.5 0 .9 0 1.2-.5.6-.8 1.5-1.4 2-2.2.7-1.1 2.1-1.8 1.7-3.5-.3-1.1 0-1.2-1.3-1.2h-.2c-1.3 0-2-.5-2.2-1.8-.1-1 0-1.9 0-2.9-.1-5.2-.3-10.4-.4-15.5 0-.3.1-.7.3-1 .7-1.3 1.5-2.5 2.2-3.8 1.3-2.5 2.5-5 4-7.4 1.6-2.7 2.8-5.7 4.7-8.3 1.4-1.9 3-2.8 5.3-2.4.5.1.7-.1.7-.7V1.2c0-.7-.3-.9-1-.9zM13.7 52.7c0-.1-.1-.2-.2-.3.1-.1.2-.1.2-.2.1.1 0 .3 0 .5zM44.7 3h-2.1c-1.4 0-2.4.7-3.2 1.7-1.3 1.6-2.3 3.3-3.1 5.2-.6 1.4-1.6 2.5-2.3 3.9-1.4 2.5-2.7 5.1-4.1 7.6-.1.1-.1.3-.2.4-2.1 2.5-2.3 5.4-2.2 8.5.1 2.4 0 4.8.1 7.2 0 .9.1 1.7.1 2.6v4c0 2.4 1.2 3.5 3.3 3.3.2 0 .3 0 .5.1 0 .5.1.9.1 1.5h-1.2c-2.7-.1-5.3-.2-8-.2-1 0-1.9.1-2.9.2-1.3.1-1.3.1-1.2-1.1.9-.3 1.8-.5 2.5-.8.7-.3 1-.9.9-1.8-.1-1 0-2 .1-3 .1-2.5.3-4.9.2-7.4 0-2.3-.4-4.7-.4-7 0-.9-.5-1.4-.8-2-1.9-3.5-3.7-6.9-5.6-10.4-1.7-3-3.1-6.2-5.2-9-.7-.9-1.2-1.9-2-2.8-.3-.6-1-1-1.5-1C5 2.9 4.7 2.7 5 1l13.7.3c.2 1.2.1 1.3-1 1.6-1.1.2-2.2.5-2.8 1.6-.1.2-.1.5 0 .6.8 1.7 1.6 3.4 2.5 5.1 2 3.7 4 7.5 6 11.2.5.9 1 1.6 1.6 2.4.3.4.5.3.8 0 .3-.4.5-.8.7-1.2 1.6-3.9 3.9-7.5 6.3-11 .8-1.2 1.5-2.5 2.2-3.8.3-.5.7-1.1 1-1.6.8-1.3.3-2.6-1.2-2.9-1-.2-2-.3-2.9-.3-.7 0-1.1-.3-1-1 0-.3 0-.6.1-1 4.6-.6 9.2-.2 13.8 0v2z"/><path fill="#FFF" d="M30.9 1c0 .4-.1.7-.1 1 0 .7.3 1 1 1 1 0 2 .1 2.9.2 1.5.3 2 1.6 1.2 2.9-.3.5-.7 1.1-1 1.6-.7 1.3-1.4 2.6-2.2 3.8-2.3 3.5-4.6 7.1-6.3 11-.2.4-.5.8-.7 1.2-.2.3-.5.4-.8 0-.5-.8-1.1-1.6-1.6-2.4-2-3.7-4-7.4-6-11.2-.9-1.7-1.7-3.4-2.5-5.1-.1-.2 0-.4 0-.6.6-1.1 1.7-1.4 2.8-1.6 1.1-.2 1.2-.3 1-1.6-4.5 0-9-.1-13.6-.2-.3 1.7 0 1.9 1.5 1.7.5 0 1.2.3 1.6.7.8.8 1.3 1.9 2 2.8 2.1 2.8 3.6 6 5.2 9 1.9 3.5 3.7 6.9 5.6 10.4.3.6.8 1.1.8 2 0 2.3.4 4.7.4 7 0 2.5-.1 4.9-.2 7.4 0 1-.2 2-.1 3 .1.9-.2 1.5-.9 1.8-.8.4-1.7.5-2.5.8-.1 1.2 0 1.2 1.2 1.1 1-.1 1.9-.2 2.9-.2 2.7 0 5.3.1 8 .2h1.2c0-.6-.1-1-.1-1.5-.2 0-.4-.1-.5-.1-2 .2-3.3-.9-3.3-3.3v-4c0-.9-.1-1.7-.1-2.6 0-2.4 0-4.8-.1-7.2-.1-3.1.1-6 2.2-8.5.1-.1.2-.3.2-.4 1.3-2.5 2.7-5.1 4.1-7.6.7-1.3 1.7-2.5 2.3-3.9.8-1.9 1.8-3.6 3.1-5.2.8-1 1.8-1.7 3.2-1.7h2.1V1C40.1.8 35.5.5 30.9 1zM16.7 13.1c-.2 0-.4 0-.5-.2-.9-1.5-1.8-2.9-2.7-4.4.1-.1.2-.1.3-.2.2.1.4.2.5.4l2.4 3.6c.1.1.2.2.2.4s-.1.4-.2.4zm1.1 3c-.2-.3-.5-.6-.7-.9 0-.1.4-.5.6-.5.2 0 .5.3.8.6-.3.3-.5.5-.7.8zm3.6 7.2c-.4-.6-.8-1.1-1.1-1.7l-1.5-2.7c-.1-.2-.2-.5-.2-.8 0-.1.1-.3.3-.3.1 0 .3.1.3.2.8 1.6 1.5 3.2 2.3 4.8.1.1.1.3.1.4 0 0-.1.1-.2.1zm3 5.1c0-.1.1-.2.1-.3h.2c.1 1.9.3 3.9.4 5.8-.1 0-.2.1-.3.2-.2-.2-.5-.3-.5-.5 0-1.7 0-3.4.1-5.2zm.2 7c.5 0 .9.4.8.9-.1.3-.5.6-.7.9-.3-.3-.6-.6-1.1-1 .4-.4.7-.9 1-.8zm.5 8.5c0 .3-.1.7-.1 1.1h-.3c-.3-.7-.3-1.5-.2-2.2 0-1.3.2-2.6.3-3.9 0-.2.2-.4.4-.6.1.2.3.4.3.6-.2 1.7-.3 3.3-.4 5z"/><path fill="#F7941E" d="M25.4 38.9c-.1 1.7-.2 3.3-.4 5 0 .3-.1.7-.1 1.1h-.3c-.3-.7-.3-1.5-.2-2.2 0-1.3.2-2.6.3-3.9 0-.2.2-.4.4-.6.1.2.3.4.3.6zm-3.8-15.7c-.1 0-.2.1-.2.1-.4-.6-.8-1.1-1.1-1.7l-1.5-2.7c-.1-.2-.2-.5-.2-.8 0-.1.1-.3.3-.3.1 0 .3.1.3.2.8 1.6 1.5 3.2 2.3 4.8.1.1.1.3.1.4zM25.1 34c-.1 0-.2.1-.3.2-.2-.2-.5-.3-.5-.5v-5.2c0-.1.1-.2.1-.3h.2c.2 1.9.4 3.8.5 5.8zm-8.2-21.3c0 .2-.1.4-.2.4-.2 0-.4 0-.5-.2-.9-1.5-1.8-2.9-2.7-4.4.1-.1.2-.1.3-.2.2.1.4.2.5.4l2.4 3.6c.1.1.2.3.2.4zm8.5 23.6c-.1.3-.5.6-.7.9-.3-.3-.6-.6-1.1-1 .4-.4.7-.9 1-.9.4.1.9.4.8 1zm-6.8-21.1c-.4.4-.6.6-.8.9-.2-.3-.5-.6-.7-.9 0-.1.4-.5.6-.5.3-.1.5.2.9.5z"/></svg>