<svg version="1.1" width="178" height="91" xmlns="http://www.w3.org/2000/svg" xmlns:xlink="http://www.w3.org/1999/xlink">
  <!-- Exported by Scratch - http://scratch.mit.edu/ -->
  <g id="ID0.5409370576962829" transform="matrix(0.9024999737739563, 0, 0, 0.9024999737739563, -0.4, 0.45)">
    <g id="ID0.2628525043837726">
      <path id="ID0.25445642974227667" fill="none" stroke="#7F6038" stroke-width="2" stroke-linecap="round" d="M 261.500 128.500 C 261.500 128.500 265.907 129.122 267.500 130.500 C 272.227 134.588 275.342 140.333 280 144.500 C 281.777 146.090 284.127 147.269 286.500 147.500 C 291.152 147.954 300.500 146.500 300.500 146.500 " transform="matrix(0.8573749661445618, 0, 0, 0.8573749661445618, -97.15, -76.55)"/>
      <path id="ID0.4503647689707577" fill="#68A54D" stroke="none" stroke-linecap="round" d="M 310 129 C 311.290 128.969 313.321 128.562 314 129 C 314.391 129.273 312.906 129.606 312.500 130.250 C 310.381 132.914 309.306 136.519 306.750 138.500 C 304.399 140.322 301.229 140.217 298.250 141.250 C 297.394 141.546 295.777 143.192 295.750 142.250 C 295.698 138.886 296.631 135.194 298.250 132.125 C 299.206 130.322 301.516 129.351 303.500 128.750 C 305.457 128.163 307.831 129.049 310 129 Z " transform="matrix(0.8573749661445618, 0, 0, 0.8573749661445618, -100.55, -73.15)"/>
      <path id="ID0.4503647689707577" fill="#68A54D" stroke="none" stroke-linecap="round" d="M 310 129 C 311.290 128.969 313.321 128.562 314 129 C 314.391 129.273 312.906 129.606 312.500 130.250 C 310.381 132.914 309.306 136.519 306.750 138.500 C 304.399 140.322 301.229 140.217 298.250 141.250 C 297.394 141.546 295.777 143.192 295.750 142.250 C 295.698 138.886 296.631 135.194 298.250 132.125 C 299.206 130.322 301.516 129.351 303.500 128.750 C 305.457 128.163 307.831 129.049 310 129 Z " transform="matrix(0.8573749661445618, 0, 0, -0.9492365121841431, -105.55, 185.8)"/>
      <path id="ID0.4503647689707577" fill="#68A54D" stroke="none" stroke-linecap="round" d="M 310 129 C 311.290 128.969 313.321 128.562 314 129 C 314.391 129.273 312.906 129.606 312.500 130.250 C 310.381 132.914 309.306 136.519 306.750 138.500 C 304.399 140.322 301.229 140.217 298.250 141.250 C 297.394 141.546 295.777 143.192 295.750 142.250 C 295.698 138.886 296.631 135.194 298.250 132.125 C 299.206 130.322 301.516 129.351 303.500 128.750 C 305.457 128.163 307.831 129.049 310 129 Z " transform="matrix(0.6207031011581421, -0.591455340385437, -0.6548255085945129, -0.6872069835662842, 66.4, 322.3)"/>
    </g>
    <g id="ID0.06238114042207599">
      <path id="ID0.7277892976999283" fill="#D0E7F0" stroke="none" stroke-linecap="round" d="M 270.750 106 C 276.596 108.245 278.998 114.981 281.250 120.500 C 282.883 124.508 281.361 128.676 281.750 132.500 C 282.694 142.006 289.913 154.002 285.250 160.500 C 281.811 165.267 271.883 157.978 265.750 156 C 258.719 153.728 249.513 153.845 245.073 147.940 C 236.618 136.699 237.536 120.090 229.250 108.500 C 223.867 100.817 199.552 92.878 205.750 92.500 C 218.851 91.696 250.108 98.092 270.750 106 Z " transform="matrix(0.8573749661445618, 0, 0, 0.8573749661445618, -133.15, -78.7)"/>
      <path id="ID0.9655266357585788" fill="#FFFFFF" stroke="none" stroke-linecap="round" d="M 240.250 149.500 C 248.053 145.891 251.539 135.106 259.750 132.500 C 268.379 129.764 280.664 132.331 287.250 135 C 289.664 135.831 279.375 136.483 277.750 139.500 C 272.738 148.820 273.089 160.472 268 169.750 C 264.603 175.945 258.886 180.755 252.750 184 C 245.966 188.027 238.096 190.656 230.250 191 C 218.466 191.521 206.543 188.852 195.029 187.246 C 182.260 185.460 169.515 181.982 156.750 181.500 C 151.017 181.223 144.586 188.566 140.250 185 C 133.784 179.676 132.447 169.067 131.250 160.500 C 130.979 158.330 134.774 158.127 136.750 158.500 C 144.211 160.748 150.516 166.757 158.250 168 C 163.278 168.807 168.216 166.091 173.250 165 C 181.068 163.306 189.200 161.775 196.750 160 C 211.258 156.606 226.526 155.288 240.250 149.500 Z " transform="matrix(0.8573749661445618, 0, 0, 0.8573749661445618, -100.55, -73.15)"/>
      <path id="ID0.8111862246878445" fill="#FFFFFF" stroke="none" stroke-linecap="round" d="M 202.750 107.500 C 209.937 109.149 216.293 114.237 220.750 119.500 C 224.598 124.060 224.948 130.763 227.750 136 C 231.561 143.127 244.788 151.177 240.750 156.500 C 235.177 163.819 219.619 163.486 209 162 C 201.719 160.975 196.177 154.121 190.750 149 C 185.665 144.197 182.986 137.359 177.750 132.500 C 171.178 126.410 163.892 120.730 155.750 117 C 143.827 111.793 119.500 108.533 118.250 106 C 117.005 103.471 138.529 102.304 148.750 102.500 C 167.150 102.854 185.338 103.340 202.750 107.500 Z " transform="matrix(0.8573749661445618, 0, 0, 0.8573749661445618, -100.55, -73.15)"/>
      <path id="ID0.29294770350679755" fill="#D0E7F0" stroke="none" stroke-linecap="round" d="M 196.750 117.500 C 199.005 117.852 201.615 118.284 203.289 119.552 C 204.964 120.819 204.920 122.963 206 124.500 C 209.304 129.190 215.889 135.037 217.250 139 C 217.844 140.733 211.889 137.888 209.750 136.500 C 205.584 133.117 202.794 128.342 198.750 125 C 196.680 123.291 194.057 122.013 191.750 121 C 185.975 118.469 172.988 115.493 173.750 115 C 174.521 114.504 189.550 116.372 196.750 117.500 Z " transform="matrix(0.8573749661445618, 0, 0, 0.8573749661445618, -100.55, -73.15)"/>
    </g>
  </g>
</svg>