<svg version="1.1" id="Layer_1" x="0px" y="0px" width="150px" height="150px" viewBox="0 0 150 150" enable-background="new 0 0 150 150" xml:space="preserve" xmlns="http://www.w3.org/2000/svg" xmlns:xlink="http://www.w3.org/1999/xlink">
  <g>
    <path fill="#272525" d="M24.163,117.229c-1.549-1.062-3.128,4.17-4.02,3.453c-0.892-0.72,0.726-2.81,1.86-4.065&#xD;&#xA;&#x9;c1.9-2.105,5.22,0.036,3.687,3.645c-0.981,2.31-1.023,2.646-1.685,2.396C22.956,122.254,25.711,118.287,24.163,117.229z"/>
    <path fill="#272525" d="M18.943,112.896c-1.625-1.31-3.64,3.726-4.558,2.848c-0.919-0.876,0.958-2.735,2.263-3.826&#xD;&#xA;&#x9;c2.184-1.829,5.638,0.896,3.757,4.311c-1.204,2.188-1.271,2.521-1.969,2.156C17.327,117.807,21.095,114.625,18.943,112.896z"/>
    <path fill="#272525" d="M11.532,87.307c0.336-1.728-4.295-1.455-4.017-2.486c0.278-1.028,2.447-0.256,3.804,0.354&#xD;&#xA;&#x9;c2.272,1.021,1.653,4.685-1.683,4.476c-2.136-0.133-2.415-0.062-2.43-0.733C7.182,87.846,11.196,89.034,11.532,87.307z"/>
    <path fill="#272525" d="M11.774,81.342c0.506-1.876-4.11-2.057-3.715-3.162c0.395-1.104,2.465-0.022,3.746,0.793&#xD;&#xA;&#x9;c2.145,1.365,1.111,5.336-2.186,4.754c-2.111-0.375-2.397-0.324-2.334-1.067C7.383,81.479,11.104,83.827,11.774,81.342z"/>
    <path fill="#272525" d="M100.925,113.011c-1.249,1.441,4.002,4.646,3.185,5.458c-0.817,0.811-3.16-1.888-4.127-3.298&#xD;&#xA;&#x9;c-1.613-2.36,0.942-5.472,4.01-3.237c1.963,1.434,2.268,1.534,1.92,2.187C105.359,115.15,102.174,111.568,100.925,113.011z"/>
    <path fill="#272525" d="M96.988,117.919c-1.488,1.479,2.812,4.468,1.843,5.28c-0.97,0.812-2.36-1.481-3.144-3.04&#xD;&#xA;&#x9;c-1.312-2.609,1.807-5.763,4.635-3.194c1.812,1.643,2.707,2.354,2.25,3.025C101.844,121.055,98.962,115.961,96.988,117.919z"/>
    <path fill="#272525" d="M113.926,98.014c-0.865,1.381,3.928,3.321,3.344,4.117c-0.584,0.794-2.879-1.134-3.861-2.177&#xD;&#xA;&#x9;c-1.646-1.747,0.105-4.714,2.949-3.274c1.822,0.92,2.091,0.963,1.879,1.557C117.904,99.177,114.792,96.63,113.926,98.014z"/>
    <path fill="#272525" d="M111.243,102.678c-1.062,1.448,2.907,3.344,2.196,4.159s-2.16-0.905-3.008-2.101&#xD;&#xA;&#x9;c-1.423-2,0.795-5.078,3.48-3.33c1.72,1.121,2.561,1.59,2.259,2.216C115.695,104.615,112.65,100.76,111.243,102.678z"/>
    <path fill="#272525" d="M127.628,65.699c-0.651-2.018-0.181-4.021,1.054-4.473c1.232-0.452,2.76,0.816,3.412,2.834&#xD;&#xA;&#x9;c0.651,2.018,0.182,4.021-1.053,4.473C129.807,68.985,128.279,67.717,127.628,65.699z"/>
    <path fill="#272525" d="M135.572,63.206c0.113-1.725,1.06-3.058,2.113-2.98c1.054,0.079,1.814,1.54,1.703,3.265&#xD;&#xA;&#x9;c-0.113,1.724-1.061,3.058-2.113,2.979C136.221,66.391,135.458,64.929,135.572,63.206z"/>
    <path fill="#BABAFF" d="M93.673,49.503c1.538,3.747-6.207,11.826-13.95,13.113c-7.689,1.288-13.292-2.693-20.981-4.215&#xD;&#xA;&#x9;c-7.305-1.463-12.028,0-18.675,3.513c-1.292,0.677-3.083,1.174-4.119,0.468c-1.651-1.124-2.441-4.145-4.229-5.62&#xD;&#xA;&#x9;c-2.637-2.167-6.152-1.991-9.062-0.176c2.754,1.452,5.029,2.47,5.877,5.093c0.69,2.137,0.459,5.288,2.087,7.26l-4.833,7.025&#xD;&#xA;&#x9;c-4.174-3.337-6.207-7.728-11.095-5.679c-4.559,1.932-6.372,6.146-7.14,11.299c-0.605,4.04,0.165,10.188,3.954,9.602&#xD;&#xA;&#x9;c1.382-0.211,3.227-2.164,4.668-1.933c2.969,0.479,5.27,3.952,5.603,7.024c0.604,5.68-9.062,7.787-9.832,13.406&#xD;&#xA;&#x9;c-0.659,4.858,4.669,9.074,8.788,11.24c2.362,1.229,4.174,4.157,5.877,1.99c2.032-2.576,0.934-6.323,2.362-9.309&#xD;&#xA;&#x9;c1.428-2.928,2.472-4.1,4.944-2.051c2.176,1.787,4.547,2.965,6.81,2.928c1.964-0.03,3.779-1.188,6.152-1.055&#xD;&#xA;&#x9;c4.503,0.234,6.755,2.108,11.205,2.812c8.733,1.347,16.422-1.934,20.485-4.273c0.904-0.521,4.67,2.794,5.438,3.338&#xD;&#xA;&#x9;c2.453,1.734,3.595,4.437,5.603,7.2c3.352,4.563,6.865,0.526,11.865-1.757c3.953-1.812,5.768-5.913,3.239-9.604&#xD;&#xA;&#x9;c-2.526-3.746-6.812-1.756-11.04-3.103c1.264-2.283,2.581-4.565,5.053-4.215c3.297,0.469,4.34,4.098,7.525,5.093&#xD;&#xA;&#x9;c2.691,0.82,6.48,0.586,8.184-1.756c2.526-3.454,3.955-7.436,2.967-11.768c-0.987-4.332-6.592-0.234-10.766-0.234&#xD;&#xA;&#x9;c-0.111-2.021,0.771-3.98,1.647-5.443c1.567-0.762,4.584,0.311,6.261-0.41c3.734-1.64,6.152-5.211,6.152-9.543&#xD;&#xA;&#x9;c-4.725,0-11.535-0.877-10.766-5.913c3.403,2.4,6.756,1.229,10.766,2.107c1.757,0.353,2.91,2.459,4.668,2.752&#xD;&#xA;&#x9;c7.8,1.347,16.533-0.762,18.73-8.841c1.536-5.62,0.055-10.362-2.968-15.221c-4.396-7.025-12.799-7.084-19.991-3.278&#xD;&#xA;&#x9;c-0.275-3.864-1.43-8.021-5.056-8.431c-3.295-0.41-4.726,3.63-6.206,6.791c-1.43-2.576-2.746-5.562-5.438-6.323&#xD;&#xA;&#x9;C100.264,42.185,95.32,45.288,93.673,49.503z"/>
    <path fill="#96E700" d="M72.861,63.223c2.954-2.234,5.431-5.129,8.099-8.938c3.907-5.561,5.17-8.963,7.242-15.641&#xD;&#xA;&#x9;c2.335-7.491,1.763-14.168-3.431-19.704c-2.691-2.87-4.766-5.535-8.576-4.977c-9.528,1.447-13.863,14.879-11.243,24.68&#xD;&#xA;&#x9;c1.954,7.312,3.645,10.08,3.907,17.672c0.072,2.438-0.762,3.758-0.762,6.196C69.954,62.512,71.342,64.371,72.861,63.223z"/>
    <path fill="#272525" d="M69.443,63.064c2.131-3.826,0.884-9.634-0.606-13.52c-1.34-3.497-2.267-7.256-2.9-10.982&#xD;&#xA;&#x9;c-0.849-4.99-0.343-13.703,2.294-18.042c5.714-9.398,16.389-3.115,18.875,5.214c2.611,8.75-2.145,19.78-6.405,27.132&#xD;&#xA;&#x9;c-0.665,1.148-7.282,8.515-6.142,9.239h0.303C83.76,55.021,93.218,36.33,89.4,24.489c-1.549-4.804-6.996-10.961-11.818-11.813&#xD;&#xA;&#x9;c-4.44-0.783-8.592,1.952-10.909,5.86c-1.736,2.93-2.841,6.166-2.944,9.644c-0.245,8.297,0.534,13.327,3.247,21.042&#xD;&#xA;&#x9;c1.461,4.154,1.161,7.618,0.087,11.72C66.62,62.628,68.014,63.753,69.443,63.064z"/>
    <path fill="#272525" d="M77.062,23.75c-2.861-0.262-2.836-3.555-4.374-5.445c0,0,0.682,1.921,0.909,3&#xD;&#xA;&#x9;c0.467,2.212,1.899,2.428,3.548,3.415c0.938,9.299,3.063,8.676-2.078,17.303c-0.068-2.433-2.342-5.662-3.721-7.567&#xD;&#xA;&#x9;c-1.896-2.621-2.944-6.829-2.944-6.829c0,3.284,1.421,6.23,3.334,8.721c-0.132,0.214-2.284,1.408-4.213,1.078&#xD;&#xA;&#x9;c0.341,0.544,3.43,0.508,4.732-0.201c1.18,1.531,2.828,4.251,1.992,6.322c-2.408,5.963,1.357,9.301-1.775,15.827&#xD;&#xA;&#x9;c-0.327,1.107-0.953,0.936-0.375,1.463c2.162-0.181,1.945-6.788,4.75-9.307c1.623-1.459,3.885-2.014,4.891-4.199&#xD;&#xA;&#x9;c-0.896,0.532-1.354,1.245-2.077,1.661c-2.022,1.161-3.831,2.329-5.021,4.522c-0.3-0.807-0.202-1.489-0.305-2.308&#xD;&#xA;&#x9;c-0.665-5.249,2.193-10.124,3.576-12.256c1.449,0.434,3.025,1.974,4.648,1.275c0.887-0.382,1.758-0.691,2.381-1.892&#xD;&#xA;&#x9;c-4.575,3.359-4.733-0.891-6.971,0.23c1.75-2.609,1.443-5.443,0.953-8.167c0.835-0.423,1.786-0.68,2.164-2.676&#xD;&#xA;&#x9;c0.586-2.786,1.491-5.147,2.381-5.629c-2.632-0.389-1.979,6.282-4.762,7.614c-0.844-2.932-1.413-6.136-0.842-9.188&#xD;&#xA;&#x9;c0.135-0.719,0.414-2.438,0.234-2.441C77.286,18.992,77.195,22.452,77.062,23.75z"/>
    <path fill="#272525" d="M121.96,49.21c-0.028,0.528-1.147,1.039-1.246,0.234c-0.672-5.444-7.817-7.435-10.454,0.527&#xD;&#xA;&#x9;c-0.193,0.585-0.996-0.343-0.767-0.937C114.38,36.448,122.2,44.819,121.96,49.21z"/>
    <path fill="#272525" d="M109.107,47.396c0.33,0.812-0.385,1.63-0.879,0.937c-3.295-4.625-7.862-4.708-9.438-3.443&#xD;&#xA;&#x9;c-2.019,1.621-3.964,8.126-0.009,11.99c0.373,0.366,0.734,2.5-1.188,1.256c-5.456-3.53-6.034-13.492,0.448-16.225&#xD;&#xA;&#x9;C103.779,39.492,107.646,43.8,109.107,47.396z"/>
    <path fill="#272525" d="M110.37,51.273c3.305,7.166-5.849,12.337-8.983,5.479C97.771,48.846,107.637,45.351,110.37,51.273z"/>
    <path fill="#272525" d="M120.102,76.807c-3.201,0.713-6.572-0.056-9.231-2.074c-0.029,1.358,1.317,2.97,2.396,3.563&#xD;&#xA;&#x9;c2.411,1.333,8.354-0.304,9.231,2.181c1.901,5.369-9.563,12.16-13.924,10.215c-0.794-0.354-1.32-1.687-0.618-1.61&#xD;&#xA;&#x9;c6.096,0.646,11.543-3.06,12.146-6.953c0.125-0.812-0.067-1.479-0.851-1.755c-3.263-1.155-8.222,1.016-9.933-4.203&#xD;&#xA;&#x9;c-0.471-1.437-0.701-3.155-0.25-4.628c2.617,3.43,6.976,3.195,10.281,2.714c2.481-0.362,5.405,3.326,8.187,3.829&#xD;&#xA;&#x9;c4.707,0.854,8.662,0.013,11.979-3.829c8.445-9.792,1.184-25.724-11.879-23.247c-1.722,0.326-3.431,0.742-5.142,1.117&#xD;&#xA;&#x9;c-0.437-0.612-0.175-1.409,0.103-2.021c5.131-2.905,13.516-1.784,17.965,2.181c8.691,7.744,6.319,24.329-5.039,27.556&#xD;&#xA;&#x9;C130.186,81.354,124.447,80.701,120.102,76.807z"/>
    <path fill="#272525" d="M119.502,49.464c4.698,5.35-0.904,11.2-4.791,7.926c-2.343-1.973-2.091-8.385,1.447-8.831&#xD;&#xA;&#x9;C117.241,48.424,118.715,48.569,119.502,49.464z"/>
    <path fill="#FFFFFF" d="M109.072,52.763c0.896,2.923-0.129,5.288-2.711,5.346c-1.803,0.074-3.653-2.082-3.028-5.081&#xD;&#xA;&#x9;c0.37-1.779,1.722-2.574,3.038-2.482C107.523,50.627,108.65,51.388,109.072,52.763z"/>
    <ellipse fill="#272525" cx="107.625" cy="56.294" rx="1.648" ry="1.756"/>
    <path fill="#FFFFFF" d="M117.971,56.278c-0.673,0.275-1.353,0.149-1.787-0.131c-1.521-0.98-2.226-4.604-0.021-5.487&#xD;&#xA;&#x9;C119.287,49.406,121.262,54.932,117.971,56.278z"/>
    <ellipse fill="#272525" cx="118.018" cy="55.079" rx="1.36" ry="1.45"/>
    <path fill="#272525" d="M92.9,54.571c-2.809,3.661-3.969,5.552-8.283,7.66c-6.542,3.196-12.453,1.232-20.462-2.181&#xD;&#xA;&#x9;c-14.16-6.036-24.605,6.451-28.847,3.458c-2.065-1.457-2.384-5.095-5.041-6.649c-1.865-1.091-4.644-1.359-6.488-0.106&#xD;&#xA;&#x9;c1.249,0.514,2.599,0.766,3.743,1.542c5.232,3.55-0.679,7.71,4.991,10.214c-5.959,6.11-7.301,13.834-6.188,21.438&#xD;&#xA;&#x9;c-0.82,0.17-1.591,0.513-2.396,0.744c-3.634-7.193,0.688-15.772,5.739-20.692c-0.755-1.232-2.152-2.264-2.296-3.831&#xD;&#xA;&#x9;c-0.178-1.941,1.11-2.819-0.25-4.681c-1.56-2.136-3.704-3.547-6.189-4.097c2.599-2.735,7.074-4.125,10.032-2.819&#xD;&#xA;&#x9;c3.572,1.577,3.127,4.723,5.29,6.916c1.525,1.544,4.183-0.52,5.49-1.437c3.564-2.501,7.394-4.795,11.729-5.213&#xD;&#xA;&#x9;c9.745-0.941,16.65,5.676,25.752,6.65c6.498,0.695,8.651-9.065,13.674-8.086V54.571L92.9,54.571z"/>
    <path fill="#272525" d="M140.044,60.391c-0.288-1.169-0.618-2.633-2.047-2.868c-1.214-0.199-2.472,1.171-2.944,2.229&#xD;&#xA;&#x9;C134.738,54.55,141.314,54.71,140.044,60.391z"/>
    <path fill="#272525" d="M124.893,64.412c-5.121-6.407,3.008-11.463,7.037-5.373c0.189,0.288,0.984,1.364,0.631,1.001&#xD;&#xA;&#x9;c-1.705-1.75-4.688-2.082-5.771-1.534C125.102,59.36,124.211,60.919,124.893,64.412z"/>
    <path fill="#272525" d="M23.281,92.798v0.745c-1.241,0.865-1.675,3.198-3.344,1.436c-1.084-1.145-2.952-4.276-4.342-4.732&#xD;&#xA;&#x9;c-2.104-0.688-3.248,3.59-6.338,1.915C2.353,88.42,7.57,72.306,14.298,68.808c2.001-1.04,3.879-0.582,5.739,0.746&#xD;&#xA;&#x9;c1.507,1.074,4.356,2.867,5.541,4.202c0.336,0.38,0.471,1.149,0.349,1.648c-0.969,3.952-7.704-6.484-12.577-2.925&#xD;&#xA;&#x9;c-4.53,3.307-8.175,15.72-2.146,16.861c2.316,0.438,4.234-3.201,6.688-1.17C19.771,89.729,21.073,91.589,23.281,92.798z"/>
    <path fill="#272525" d="M36.506,91.489c2.735,2.676-3.257,3.435-4.792,2.925c-2.097-0.696-5.177-2.405-7.187-0.372&#xD;&#xA;&#x9;c-1.732,1.753-1.187,5.953-2.994,8.299c-2.897,3.761-10.872,4.425-7.586,11.063c1.048,2.117,6.613,6.812,8.762,7.521&#xD;&#xA;&#x9;c1.292,0.429,3.926-0.073,4.542-1.543c0.979-2.336-1.688-7.264,2.853-8.657c0.461,0.416,1.133,0.771,1.297,1.437&#xD;&#xA;&#x9;c-3.144,3.248,0.979,9.241-3.943,11.597c-6.196,2.965-19.265-9.811-16.256-16.098c1.545-3.229,6.854-4.684,8.734-8.938&#xD;&#xA;&#x9;c1.586-3.589,1.514-6.558,5.54-7.873c3.749-1.228,4.378-0.408,7.886,0.64C34.399,91.798,35.456,91.4,36.506,91.489z"/>
    <path fill="#272525" d="M27.273,104.895l0.599-0.16c12.969,19.566,28.156,2.844,20.113-12.767c0.108-0.515,0.534-0.882,0.948-1.116&#xD;&#xA;&#x9;c2.178,0.524,2.573,2.987,2.995,4.946c1.423,6.608-0.014,13.324-4.791,18.033C40.216,120.652,29.312,113.072,27.273,104.895z"/>
    <path fill="#272525" d="M96.395,106.171c-0.301-0.263-1.174-0.726-0.848-1.276c0.198-0.338,5.539-4.127,7.036-6.384&#xD;&#xA;&#x9;c1.538-2.319,3.229-4.976,4.342-7.554c0.425-0.129,0.942,0.165,1.05,0.639C108.816,95.371,100.077,106.752,96.395,106.171z"/>
    <path fill="#272525" d="M99.229,104.756c0.149-0.507,0.535-0.854,0.948-1.117c3.726,0.592,4.071,5.901,8.884,4.842&#xD;&#xA;&#x9;c4.647-1.024,11.062-9.715,5.738-12.662c-2.404-1.328-6.562,1.344-9.73-0.211c0.277-0.711,0.711-1.528,1.099-2.183&#xD;&#xA;&#x9;c1.147-1.946,2.271,0.263,3.494,0.373c2.79,0.251,5.53-1.349,8.135,0.903c1.713,1.482,1.921,4.538,1.447,6.65&#xD;&#xA;&#x9;c-1.12,4.998-4.56,8.856-9.233,10.053c-3.893,0.996-5.863-2.996-9.23-4.734C100.174,106.359,99.439,105.43,99.229,104.756z"/>
    <path fill="#272525" d="M105.729,111.277c1.291,1.926,0.937,4.531,0.1,6.596c-2.143,5.288-8.102,7.865-13.176,7.447&#xD;&#xA;&#x9;c-5.606-0.461-5.269-7.16-8.834-8.938c-4.092-2.036-8.782-4.649-8.782-10.373c0-1.97,2.432-4.278,3.146-2.657&#xD;&#xA;&#x9;c0.903,2.056-0.854,6.768,4.293,10.053c3.407,2.18,4.332,1.777,5.986,5.904c0.883,2.2,4.646,3.754,6.738,3.299&#xD;&#xA;&#x9;c2.967-0.646,10.768-4.719,9.779-8.776c-1.5-6.173-9.765-3.517-13.873-6.649c-2.315-1.767-4.522-4.506-4.191-7.82&#xD;&#xA;&#x9;c0.096-0.957,1.679-2.719,2.495-2.021c0.356,0.308,0.14,3.072,0.749,4.097c1.882,3.166,4.435,6.692,8.385,6.386&#xD;&#xA;&#x9;C103.121,107.462,105.012,110.211,105.729,111.277z"/>
    <path fill="#272525" d="M45.448,114.37c0.127-1.047,1.105-1.562,1.697-2.288c0.464-0.048,8.537,2.35,11.52,2.6&#xD;&#xA;&#x9;c6.007,0.508,11.194,0.801,16.37-2.658c0.988-0.053,2.595,1.043,1.597,2.182c-1.849,2.104-10.798,3.68-13.575,3.83&#xD;&#xA;&#x9;C58.149,118.299,49.816,116.898,45.448,114.37z"/>
    <path fill="#96E700" d="M67.529,65.427c-3.406-2.576-6.262-5.914-9.338-10.304c-4.504-6.411-5.959-10.333-8.349-18.032&#xD;&#xA;&#x9;c-2.691-8.635-2.032-16.333,3.955-22.715c3.103-3.308,5.493-6.381,9.887-5.737c10.985,1.668,15.983,17.153,12.962,28.452&#xD;&#xA;&#x9;c-2.252,8.431-4.973,12.441-5.273,21.193c-0.083,2.81,0.659,4.566,0.659,7.376C69.891,65.661,69.279,66.751,67.529,65.427z"/>
    <path fill="#272525" d="M71.469,65.245c-2.457-4.411-1.019-11.106,0.699-15.586c1.545-4.031,2.613-8.366,3.344-12.661&#xD;&#xA;&#x9;c0.979-5.753,0.396-15.798-2.646-20.8c-6.587-10.834-18.894-3.591-21.76,6.012c-3.01,10.086,2.473,22.803,7.387,31.279&#xD;&#xA;&#x9;c0.767,1.323,8.394,9.817,7.079,10.651h-0.35C54.963,55.972,44.06,34.424,48.461,20.773c1.785-5.538,8.065-12.637,13.625-13.618&#xD;&#xA;&#x9;c5.119-0.903,9.906,2.25,12.577,6.756c2.002,3.378,3.274,7.108,3.394,11.118c0.282,9.564-0.615,15.364-3.743,24.257&#xD;&#xA;&#x9;c-1.684,4.789-3.16,10.755-0.743,16.493C74.346,67.62,73.116,66.039,71.469,65.245z"/>
    <path fill="#272525" d="M62.685,19.922c3.299-0.302,3.269-4.099,5.041-6.277c0,0-0.786,2.215-1.048,3.458&#xD;&#xA;&#x9;c-0.539,2.551-2.19,2.8-4.093,3.937c-1.079,10.721-3.532,10.002,2.396,19.948c0.081-2.805,2.703-6.527,4.292-8.724&#xD;&#xA;&#x9;c2.186-3.022,3.394-7.873,3.394-7.873c0,3.785-1.638,7.182-3.843,10.054c0.151,0.247,2.632,1.623,4.856,1.242&#xD;&#xA;&#x9;c-0.393,0.627-3.955,0.585-5.456-0.231c-1.36,1.765-3.259,4.901-2.296,7.288c2.776,6.875-1.567,10.723,2.046,18.246&#xD;&#xA;&#x9;c0.377,1.277,1.648,2.425,0.981,3.033c-2.493-0.208-2.791-9.172-6.022-12.076c-1.872-1.682-4.48-2.321-5.64-4.841&#xD;&#xA;&#x9;c1.034,0.613,1.559,1.436,2.396,1.915c2.332,1.339,4.417,2.686,5.79,5.214c0.343-0.931,0.229-1.717,0.349-2.66&#xD;&#xA;&#x9;c0.766-6.051-2.529-11.671-4.122-14.13c-1.672,0.5-3.489,2.275-5.36,1.47c-1.023-0.44-2.028-0.796-2.745-2.181&#xD;&#xA;&#x9;c5.276,3.873,5.458-1.027,8.035,0.266c-2.018-3.009-1.664-6.276-1.098-9.416c-0.963-0.487-1.751-1.339-2.246-2.341&#xD;&#xA;&#x9;c-2.153,0.417-3.149,4.292-5.64,2.979c0.869-0.291,1.492-0.431,2.046-0.798c1.261-0.835,1.696-2.296,3.344-2.926&#xD;&#xA;&#x9;c-0.676-3.212-1.719-5.934-2.745-6.49c3.034-0.448,2.281,7.242,5.49,8.777c0.973-3.38,1.628-7.074,0.97-10.592&#xD;&#xA;&#x9;c-0.155-0.829-0.479-2.811-0.271-2.814C62.427,14.437,62.532,18.425,62.685,19.922z"/>
    <path fill="#272525" d="M76.48,68.588c-2.196-1.347-4.101-1.92-6.73-1.263c-2.381,0.594-3.814,1.907-5.627,5.361&#xD;&#xA;&#x9;c-0.283,0.539-1.703,0.059-1.428-0.82c0.6-2.517,1.599-4.441,3.811-6.084C69.886,63.272,75.438,65.368,76.48,68.588z"/>
  </g>
</svg>