<svg version="1.1" id="Layer_1" x="0px" y="0px" width="140px" height="95.79px" viewBox="6 39 140 95.79" enable-background="new 6 39 140 95.79" xml:space="preserve" xmlns="http://www.w3.org/2000/svg" xmlns:xlink="http://www.w3.org/1999/xlink">
  <g>
    <path fill="#9100C1" d="M36.01,66.403c-11.443,3.01-19.576,8.336-24.767,19.68c-2.002,4.435-1.062,7.399-1.716,12.198&#xD;&#xA;&#x9;c-1.145,8.215-0.164,13.012,0.491,21.307c0.204,2.889-1.062,3.903,0.98,5.938c3.474,3.457,7.643,3.658,12.588,2.85&#xD;&#xA;&#x9;c8.827-1.223,13.691-3.009,21.416-7.316c2.616-1.467,6.894-2.549,5.558-5.203c-2.125-4.229-3.515-8.136-5.231-13.5&#xD;&#xA;&#x9;c-1.308-4.147,3.556-5.854,5.721-9.6c2.003-3.415,1.022-2.688,0.736-6.669c-0.327-4.553-6.171-9.435-7.438-13.824&#xD;&#xA;&#x9;C43.244,68.437,39.81,65.405,36.01,66.403z"/>
    <path fill="#9100C1" d="M43.939,74.535c-1.818,1.078-3.351,0.772-5.395,0.163c-1.675-0.487-3.31-0.752-3.76-2.439&#xD;&#xA;&#x9;c-0.878-3.273-0.919-5.509,0.327-8.62c0.674-1.708,1.9-2.42,2.207-4.229c0.306-1.79-0.96-2.704-1.635-4.392&#xD;&#xA;&#x9;c-0.531-1.362-1.41-3.131-2.779-2.602c-1.308,0.509-2.636,0.122-3.514-0.976c-3.679,2.643-5.987,4.107-10.462,5.042&#xD;&#xA;&#x9;c-1.839,0.367-3.127-0.874-4.169-2.439c-1.104-1.667,1.859-2.684,3.679-3.578c4.209-2.094,5.395-4.838,8.909-7.888&#xD;&#xA;&#x9;c3.433-2.989,7.234-3.497,11.443-1.87c4.25,1.625,6.948,1.586,11.443,2.521c3.883,0.813,6.151,1.586,10.054,0.976&#xD;&#xA;&#x9;c3.985-0.63,8.194-0.609,9.891,3.009c0.92,1.972,0.245,3.64-0.818,5.53c-0.797,1.423-0.898,2.683-2.369,3.415&#xD;&#xA;&#x9;c-2.861-2.439-1.962-4.473-4.005-5.53c-1.031-0.533-1.798,0.163-2.943,0.408c-4.169,0.914-6.764,1.3-10.136,3.902&#xD;&#xA;&#x9;c-2.574,1.992-3.617,3.619-5.313,6.344c-2.002,3.212-2.534,6.872-0.163,9.839L43.939,74.535z"/>
    <path fill="#FFDEAE" d="M48.68,55.994c2.86,2.847,3.024,5.672,3.024,9.595c-0.858-0.04-2.248,0-2.043,0.813&#xD;&#xA;&#x9;c0.347,1.362,0.653,2.175,0.653,3.579c-0.551-0.224-0.817-0.447-1.389-0.732l1.553,3.742c1.022-0.407,0.715-1.139,1.635-1.708&#xD;&#xA;&#x9;c1.042-0.631,2.575-0.346,2.698-1.546c0.062-0.589-0.634-0.711-0.899-1.22c2.514-1.239,4.087-1.87,6.703-1.545&#xD;&#xA;&#x9;c0.558,0.07,0.449,0.813,0.899,1.138c1.86,1.383,3.188,2.034,5.477,2.359c2.819,0.385,5.579-0.122,6.866-2.684&#xD;&#xA;&#x9;c1.185-2.357-2.963-2.907-5.067-4.473c1.124-0.162,1.042-1.687,0.735-2.765c-0.45-1.565-1.351-2.195-2.208-3.577&#xD;&#xA;&#x9;c-1.492-2.399-2.084-3.945-3.924-6.1c-0.735-0.854-1.839-0.427-2.942-0.163C58.673,51.135,52.767,52.578,48.68,55.994z"/>
    <path fill="#FFFFFF" d="M48.762,55.75c1.226,0.61,1.328,1.606,1.716,2.846c0.858,2.725,1.042,4.31,1.39,7.156&#xD;&#xA;&#x9;c-0.837,0-1.369-0.041-2.125-0.406c0.144,1.85,0.654,3.333-0.572,4.716c0.674,0.894,0.593,1.728,1.226,2.684&#xD;&#xA;&#x9;c1.737-0.936,2.595-1.769,4.414-2.521c-0.266-0.834-1.431-1.342-0.899-2.033c0.797-1.037,1.9-0.712,3.188-0.976&#xD;&#xA;&#x9;c1.88-0.386,2.799-0.081,4.333,1.057c3.126,2.317,7.172,3.313,10.461,1.139c2.453,2.216,3.719,3.78,4.904,6.871H74.02l1.146,4.412&#xD;&#xA;&#x9;h-1.962l4.496,6.525c-0.735,0.428-1.474,0.307-1.962,0.977c1.267,0.936,3.352,0.854,3.27,2.438&#xD;&#xA;&#x9;c-0.062,1.141-1.447,2.057-0.652,2.848c0.84,0.836,1.676,0.938,2.535,1.789c2.351,2.338,2.939,6.729,0.082,8.377&#xD;&#xA;&#x9;c-0.636-3.23-4.027-3.455-7.196-4.229v2.113c-5.006,0.407-6.333-3.822-10.625-6.668l-0.573,3.172&#xD;&#xA;&#x9;c-2.411-0.793-3.433-2.276-4.659-4.476c-1.246-2.256-2.881-3.088-3.515-5.608c-0.899,0.67-1.083,1.424-1.961,2.112&#xD;&#xA;&#x9;c-2.677-3.681-2.738-6.606-3.678-11.062c-1.328,0-1.921,1.933-3.106,1.384c-0.674-0.307-0.531-1.078-0.735-1.789&#xD;&#xA;&#x9;c-0.511-1.75-0.756-2.746-0.899-4.557c-0.266-3.497,0.469-5.57-0.491-8.945C43.53,60.955,45.942,58.841,48.762,55.75z"/>
    <path fill="#FFDEAE" d="M88.648,70.55l3.599,0.245c0.407-1.22,0.286-2.704,1.553-2.928c3.106-0.569,4.845,1.524,8.011,1.301&#xD;&#xA;&#x9;c0.92-0.061,1.532-0.264,2.371,0.081c1.104,0.468,0.797,2.095,0.164,3.091c-1.104,1.749-3.74-0.264-5.229,1.22&#xD;&#xA;&#x9;c0.489,0.61,1.021,0.894,1.799,0.894c0.104,1.627-2.248,1.343-3.271,2.603c-1.269,1.547-2.289,2.074-4.168,3.01L92.9,77.3&#xD;&#xA;&#x9;c-1.596-0.243-2.492-0.264-4.088,0.082C88.812,74.678,89.061,72.421,88.648,70.55z"/>
    <path fill="#FFDEAE" d="M23.504,104.625c-1.226,2.52-2.595,3.882-2.125,6.505c0.205,1.158,1.206,2.136,2.371,1.87&#xD;&#xA;&#x9;c1.226-0.283,1.308-1.585,1.635-2.766c0.327,1.811,1.655,4.104,3.433,3.742c1.717-0.367,0.45-2.399,0.735-4.148&#xD;&#xA;&#x9;c1.737,0.427,3.536,1.729,4.578,0.326c0.654-0.875-0.286-1.789-0.899-2.685c-0.613-0.915-0.878-1.524-1.635-2.358&#xD;&#xA;&#x9;c1.267-0.832,2.514-1.036,3.025-2.439c0.327-0.873-0.062-2.031-0.981-2.193c-1.634-0.307-2.411,1.141-4.005,1.625&#xD;&#xA;&#x9;c-0.797,0.244-1.001-0.834-1.635-1.383c-1.941-1.687-4.025-0.671-6.539-0.324c-0.736,0.104-1.553-0.103-1.88,0.568&#xD;&#xA;&#x9;c-0.245,0.51,0.552,0.771,0.981,1.139C21.686,103.1,22.319,103.689,23.504,104.625z"/>
    <path fill="#FFA100" d="M16.066,93.24c-3.024-0.996-4.598-2.541-7.765-2.44c-0.695,0.021-1.308,0.61-1.227,1.302&#xD;&#xA;&#x9;c0.286,2.338,4.7,4.818,5.477,2.604C13.716,94.704,15.515,94.256,16.066,93.24z"/>
    <path fill="#FFA100" d="M42.304,102.104c-2.268,0-3.535-0.468-5.803-0.566c-0.797-0.04-1.328,0.347-2.044,0&#xD;&#xA;&#x9;c-1.063-0.527-1.961-0.854-3.024-0.324c-1.349,0.671-2.82,0.528-3.842-0.566c-0.368-0.406-1.185-0.609-0.98-1.142&#xD;&#xA;&#x9;c0.388-0.996,1.655-0.509,2.615-0.979c0.879-0.426,1.533-1.301,2.37-0.812c4.496,2.687,8.133-0.08,13.324-0.08&#xD;&#xA;&#x9;c1.247,0,2.125-0.549,3.188,0.08c0.756,0.448,0.368,1.587-0.164,2.277C46.494,101.839,44.654,101.92,42.304,102.104z"/>
    <path fill="#9100C1" d="M73.773,68.11l10.461,0.245l-0.815,10.167l-8.91,0.08c-0.388-1.18-0.858-0.957-1.062-2.193&#xD;&#xA;&#x9;c1.43-0.529,2.391-0.245,3.923-0.042l-5.478-6.627C72.711,69.331,73.202,68.822,73.773,68.11z"/>
    <path fill="#FFFFFF" d="M62.167,61.89c-0.153,0.666-0.981,1.749-2.248,1.708c-0.698-0.023-1.139-0.956-1.308-1.626L62.167,61.89z"/>
    <path fill="#272525" d="M63.065,61.524c-0.326,2.195-1.808,3.008-3.31,3.008c-1.4,0-2.054-1.332-2.33-2.724L63.065,61.524z"/>
    <path fill="#272525" d="M70.545,61.728c0.061,0.701-0.449,1.281-1.145,1.382c-0.827,0.122-1.655-0.448-1.859-1.261&#xD;&#xA;&#x9;c-0.092-0.386-0.235-0.599-0.102-0.976c0.133-0.397,0.685-0.021,1.104,0.082C69.359,61.158,70.475,60.894,70.545,61.728z"/>
    <path fill="#FFFFFF" d="M68.154,61.219c0,0.55,0.143,1.149,0.696,1.2c0.469,0.04,0.816-0.306,0.918-0.773L68.154,61.219z"/>
    <ellipse fill="#272525" cx="61.554" cy="62.825" rx="0.776" ry="0.651"/>
    <circle fill="#272525" cx="69.277" cy="62.134" r="0.449"/>
    <polygon fill="#FFFFFF" points="32.578,82.504 36.501,79.578 35.847,83.643 42.549,86.734 35.683,86.083 38.462,93.24 &#xD;&#xA;&#x9;34.866,90.312 32.414,92.589 33.394,86.572 27.183,88.359 31.433,84.458 28.327,80.064 "/>
    <polygon fill="#FFFFFF" points="15.085,120.564 14.595,113.083 17.21,117.961 25.058,115.523 19.663,120.4 24.894,121.377 &#xD;&#xA;&#x9;20.153,122.841 18.191,126.419 17.374,122.354 12.96,124.467 "/>
    <path fill="#FFFFFF" d="M40.337,104.424c-1.864,10.044,3.52,13.537,3.52,13.537s-7.04-0.873-7.04-4.804&#xD;&#xA;&#x9;S40.337,104.424,40.337,104.424z"/>
    <polygon fill="#FFFFFF" points="35.766,45.667 36.01,42.819 39.28,44.609 45.982,44.446 41.242,45.667 41.978,49.977 39.852,46.724 &#xD;&#xA;&#x9;38.136,52.009 37.645,47.049 32.25,47.049 "/>
    <polygon fill="#FFFFFF" points="18.355,51.277 16.802,53.88 19.826,52.172 23.422,52.66 22.115,50.626 25.14,48.35 21.624,48.513 &#xD;&#xA;&#x9;"/>
    <polygon fill="#FFFFFF" points="49.416,84.294 43.203,84.132 47.944,86.734 46.228,92.589 51.704,89.743 "/>
    <polygon fill="#FFFF00" points="136.794,68.842 142.371,67.265 139.918,71.477 146,77.713 139.98,76 138.718,83.171 135.996,78.424 &#xD;&#xA;&#x9;128.375,82.993 135.965,73.675 124.451,69.819 134.7,70.514 128.703,58.759 "/>
    <path fill="#272525" d="M31.205,131.432c-1.366,1.873-3.501,3.316-5.908,3.207c-1.186-0.054-1.98-0.84-2.977-1&#xD;&#xA;&#x9;c-0.554-0.091-0.886,0.916-1.324,1.151c-1.369-0.247-2.595-0.96-3.844-1.532c-0.025-0.279,0.929-4.271,1.121-4.701&#xD;&#xA;&#x9;c1.941,0.549,3.938,1.269,5.988,0.974C25.748,131.744,31.205,131.432,31.205,131.432z"/>
    <path fill="#53C73B" d="M29.185,132.314c-3.842,2.97-5.679,0.183-6.825-0.244c-1.254-0.465-0.957,2.057-2.93,0.771&#xD;&#xA;&#x9;c-1.058-0.688-0.073-3.032,0.262-4.104c1.192,0.287,2.399,0.568,3.634,0.563C23.978,130.283,26.589,132.549,29.185,132.314z"/>
    <path fill="#272525" d="M50.999,120.445c0,2.312-0.873,4.729-2.884,6.05c-0.992,0.649-2.099,0.478-3.001,0.931&#xD;&#xA;&#x9;c-0.501,0.251-0.174,1.26-0.389,1.706c-1.253,0.601-2.666,0.742-4.015,1.009c-0.186-0.213-1.771-3.998-1.871-4.459&#xD;&#xA;&#x9;c1.895-0.688,3.933-1.279,5.417-2.715C46.769,123.889,50.999,120.445,50.999,120.445z"/>
    <path fill="#53C73B" d="M49.661,123.166c-1.227,3.335-4.382,2.268-5.561,2.592c-1.291,0.356,0.561,2.602-1.793,2.715&#xD;&#xA;&#x9;c-1.262,0.062-1.852-2.412-2.215-3.477c1.134-0.467,2.277-0.941,3.274-1.668C44.474,123.742,47.699,124.874,49.661,123.166z"/>
    <path fill="#272525" d="M60.126,43.972c0.036,2.405-10.327,0.201-11.888,0.116c-7.545-0.411-14.233-7.98-20.462,0&#xD;&#xA;&#x9;c-3.337,4.274-7.276,6.718-12.005,9.113c-0.285,0.144-0.526,0.432-0.74,0.659c0.131,1.096,1.777,1.786,2.729,2.017&#xD;&#xA;&#x9;c3.965,0.958,8.577-2.32,11.108-5.002l0.117-3.917c1.184,0.131-0.047,4.21,2.144,4.731c1.419,0.337,4.355-1.94,5.535-2.676h0.468&#xD;&#xA;&#x9;c0.025,0.846-1.934,2.221-2.534,2.869c1.001,1.156,4.879,6.808,2.222,7.562c-1.257,0.357-2.743-5.117-3.742-6.243&#xD;&#xA;&#x9;c-0.631,0.239-1.764,0.393-2.417,0.194c-0.683-0.209-0.722-1.056-1.325-0.854c-1.169,0.393-3.502,4.199-6.236,5.119&#xD;&#xA;&#x9;c-2.172,0.73-4.88,0.922-6.86-0.388c-1.665-1.101-4.591-3.409-2.611-5.661c1.107-1.261,5.55-2.05,7.484-3.452&#xD;&#xA;&#x9;c3.533-2.562,5.858-7.161,10.094-8.531c7.3-2.36,12.351,2.665,19.292,3.064C53.675,42.875,57.244,42.3,60.126,43.972z"/>
    <path fill="#272525" d="M43.344,73.771c0.417-0.66-0.027-1.472,0.39-2.133c-7.433,2.896-11.167-9.637-0.546-7.445&#xD;&#xA;&#x9;c1.405-7.914,9.124-11.97,14.187-13.805c0.98-0.354,7.519-2.044,6.276,0.776c-7.791,0.135-17.764,5.333-19.839,13.378&#xD;&#xA;&#x9;c0.818,0.576,1.858,1.312,1.793,2.443c-0.045,0.785-0.343,1.671-0.438,2.478c-0.244,2.088-0.221,7.688,0.71,9.504&#xD;&#xA;&#x9;c0.034,0.067,3.937-1.861,3.937-1.861c-0.08,3.969-0.299,8.653,2.534,11.828c0.677-0.604,1.378-1.224,2.221-1.59&#xD;&#xA;&#x9;c1.409,3.562,4.077,6.813,7.484,8.646c0.643-1.04,0.936-3.412,0.936-3.412c1.849,3.416,5.478,6.395,9.354,7.136&#xD;&#xA;&#x9;c-0.507-1.073-0.694-2.278-1.403-3.258c1.136,0.251,1.871,1.323,2.926,1.784c2.688,1.171,6.516,0.789,7.833,3.992&#xD;&#xA;&#x9;c1.302-6.222-4.068-7.76-6.548-10.586c0.583-0.83,1.728-0.604,2.535-1.047c-1.994-1.479-5.962-4.729-5.962-4.729&#xD;&#xA;&#x9;c1.225-0.396,2.332,0.366,3.545,0.349c-0.988-2.601-3.666-5.35-4.207-6.979c1.086-0.18,2.094,0.369,3.155,0.465&#xD;&#xA;&#x9;c-0.417-1.564-1.301-2.975-2.146-4.343c0.009-0.598,4.077,0.314,4.077,0.314c-0.26-1.423-2.752-3.309-3.606-4.424l1.13-0.738&#xD;&#xA;&#x9;c1.564,2.133,3.721,4.104,4.288,6.787c-0.874,0.074-1.745-0.113-2.61-0.193c0.053,1.641,1.354,2.93,1.402,4.576&#xD;&#xA;&#x9;c-0.732,0.09-1.402-0.312-2.145-0.192c0,0,3.292,4.348,4.678,6.514l-2.973-0.048c1.211,0.763,3.889,2.085,4.766,3.229&#xD;&#xA;&#x9;c-0.128,1.035-1.555,0.513-2.066,1.277c3.967,1.785,7.684,10.211,1.287,14.23c1.033-6.553-2.047-4.575-5.886-5.937&#xD;&#xA;&#x9;c0.039,0.736,0.546,1.357,0.741,2.058c-5.172,0.074-8.795-2.717-11.771-6.631c-0.11,0.998,0.188,1.986,0.078,2.983&#xD;&#xA;&#x9;c-4.746-1.289-7.008-6.413-8.965-10.433c-0.646,0.938-0.574,2.185-1.325,3.062c-3.816-2.189-4.788-7.865-5.223-11.788&#xD;&#xA;&#x9;c-0.834,0.535-2.417,2.326-2.417,2.326c-1.446-1.946-1.443-4.479-2.183-6.708c-2.501,0.898-6.168,0.479-7.951-1.667&#xD;&#xA;&#x9;c-4.505-5.426,0.439-14.441,4.404-18.73c3.322-3.593,6.236-6.279,10.68-8.376c5.207-2.458,9.446-3.641,15.318-3.063&#xD;&#xA;&#x9;c2.102,0.208,4.805,1.916,5.612,3.918c0.817,2.028-0.097,7.224-2.222,8.26c-0.547,0.266-1.548-0.41-1.676-0.931&#xD;&#xA;&#x9;c-0.097-0.395,2.899-3.332,2.143-6.321c-0.305-1.205-1.68-2.92-2.922-3.257c-5.615-1.524-14.225,2.048-18.865,5.118&#xD;&#xA;&#x9;c-5.218,3.454-12.251,9.814-12.823,16.403C34.62,71.841,38.792,74.746,43.344,73.771z"/>
    <path fill="#272525" d="M69.232,57.34c1.906-2.213,4.672-2.469,6.47,0c-0.58,0.118-1.376,0.877-1.929,2.639&#xD;&#xA;&#x9;c-1.25,3.988-4.562,1.071-7.152,1.006l-1.225,0.335c0.065-0.888,0.627-2.916,1.498-3.516c-1.197-1.73-1.99-3.69-2.689-5.661&#xD;&#xA;&#x9;l0.467-0.194C66.098,53.816,67.42,55.811,69.232,57.34z"/>
    <path fill="#272525" d="M60.104,56.359c3.449-0.671,4.618,0.825,5.223,4.11c2.093,1.274,8.266,4.198,9.472,5.934&#xD;&#xA;&#x9;c0.561,0.806-0.188,2.69-0.857,3.258c-0.726,0.615-2.68,1.703-3.625,1.783c0.523,1.787-0.424,3.27-1.324,4.73&#xD;&#xA;&#x9;c-4.948-2.729-7.959-3.752-13.642-1.938c2.758,1.584,7.431,3.186,10.913,1.745c0.125,1.039,2.458,2.957,2.338,4.85&#xD;&#xA;&#x9;c-0.767,0.271-1.631-0.438-2.338-0.659c0.121,1.062,0.989,3.849-0.467,4.497c-0.359-0.271-0.034-0.609,0-0.934&#xD;&#xA;&#x9;c0.142-1.312-1.625-3.498-1.949-4.963c0.72-0.261,1.405-0.123,2.144-0.075c-0.286-0.481-0.722-0.741-1.235-0.875&#xD;&#xA;&#x9;c-1.647,0.334-2.884,0.094-3.988-0.058c-1.559-0.209-5.693-1.64-6.548-2.986c-0.375-0.592,0.892-1.321,1.286-1.59&#xD;&#xA;&#x9;c2.858-1.948,8.802-1.879,11.615,0.116c0.548,0.388,1.067,0.864,1.6,1.28c0.571-0.822,0.436-1.925,0.467-2.87&#xD;&#xA;&#x9;c-4.484,0.543-7.952-2.966-9.002-4.188c-1.85-0.037-3.738,0.283-5.301,1.318c0.54,0.472,1.56,0.763,1.403,1.667&#xD;&#xA;&#x9;c-1.518,0.578-3.23,0.93-4.404,2.133c0.419,0.33,1.177,0.063,1.403,0.659c-0.785,1.599-1.558,3.215-2.066,4.924&#xD;&#xA;&#x9;c-0.168,0.051-0.373-0.104-0.39-0.271c-0.118-1.189,0.308-3.167,0.936-4.188c-0.653-0.363-1.405-0.51-2.144-0.582&#xD;&#xA;&#x9;c0.94-1.825,3.675-2.95,4.599-3.141c-0.708-0.603-1.492-0.961-2.261-1.667c2.205-1.5,7.679-1.784,7.679-1.784&#xD;&#xA;&#x9;c-0.144-0.265-0.596-0.602-0.39-0.93c5.618,4.925,11.021,4.845,13.563,1.125c-1.89-1.19-6.394-4.047-7.863-5.022&#xD;&#xA;&#x9;c-2.804-0.706-8.612,2.753-10.377-1.415c-0.559-1.321-0.413-3.709-2.806-4.189C53.688,53.292,58.436,53.19,60.104,56.359z"/>
    <path fill="#FFFFFF" d="M59.224,57.784c2.12,1.544,3.889-1.733,4.895,2.57l0.214,0.602c-2.015-0.397-7.359,1.307-8.133-1.057&#xD;&#xA;&#x9;c-0.572-1.749-1-3.24-2.722-4.003C56.433,53.447,57.88,56.804,59.224,57.784z"/>
    <path fill="#FFFFFF" d="M73.979,56.929c-1.287,0.97-0.975,4.212-3.352,3.863c0,0-3.024-0.854-4.251-0.488&#xD;&#xA;&#x9;c0.327-0.936,0.981-1.87,2.248-1.667C71.432,59.087,71.689,55.384,73.979,56.929z"/>
    <path fill="#272525" d="M50.555,66.208c-0.072,1.327,1.021,2.896,0.117,4.111c-0.298-0.1-0.622-0.166-0.858-0.388&#xD;&#xA;&#x9;c-0.107,0.462,0.88,2.428,0.174,2.489c-0.201-1.216-1.922-2.406-2.24-3.575c0.851-0.206,1.251-0.011,1.871,0&#xD;&#xA;&#x9;c-0.247-1.544-0.896-2.989-1.287-4.499c0.807-0.196,2.611-0.077,2.611-0.077c-0.038-2.249-1.259-5.274-1.692-7.463&#xD;&#xA;&#x9;c1.622-0.745,3.855,7.598,4.108,8.782C53.636,66.875,51.175,66.498,50.555,66.208z"/>
    <path fill="#272525" d="M89.375,63.999c0.468,0.155,1.363,11.206,0.663,16.362c-2.302,0.543-4.911,0.738-7.289,0.738&#xD;&#xA;&#x9;c-1.325-0.154-0.467-1.24-0.856-1.938c-1.014,0-5.91,0.376-6.729-0.478c0.154-0.468-0.837-0.705-0.409-0.979l7.528-0.214&#xD;&#xA;&#x9;c0.562-3.161,1.208-8.57,1.208-8.57c-2.689,0.04-7.188,0.008-9.798,0.164c0.546-0.349,0.078-1.163,0.74-1.396&#xD;&#xA;&#x9;c2.922,0,6.874-0.396,9.603-0.551c0.429-0.854,0.353-1.939,0.663-2.869C86.257,63.649,87.736,64.115,89.375,63.999z"/>
    <path fill="#53C73B" d="M88.359,65.123c0.002,3.521,0.455,13.041-0.66,13.107l-3.664,0.191c-0.188-0.341,2.043-12.406,2.183-13.146&#xD;&#xA;&#x9;C86.918,65.078,87.658,65.313,88.359,65.123z"/>
    <path fill="#FFDEAE" d="M44.591,66.868c-0.404,7.097-7.208,3.137-6.392,0.116C38.903,64.374,43.454,64.735,44.591,66.868z"/>
    <path fill="#272525" d="M43.461,67.334c0.194,1.202-1.325,0.348-1.676,1.124c0.39,0.426,0.896,0.62,1.481,0.659v0.465&#xD;&#xA;&#x9;c-1.013,0.311-2.72-0.292-2.842-1.309c-0.074-0.618,0.854-0.825,1.36-1.134c-0.818-0.698-1.715-0.155-2.456-0.466&#xD;&#xA;&#x9;C40.833,65.589,42.837,66.208,43.461,67.334z"/>
    <path fill="#272525" d="M34.13,66.729c0.187,0.557,0.129,1.215-0.273,1.667C23.521,70.982,13.252,79.84,11.461,90.523&#xD;&#xA;&#x9;c0.935,0.688,4.488,1.731,5.095,2.797c-1.115,1.584-6.648-1.865-7.98-2.256c-0.244-0.07-0.638,0.103-0.663,0.389&#xD;&#xA;&#x9;c-0.147,1.745,4.002,2.951,5.127,3.576l-0.35,1.085c-0.339,0.22-2.021-0.568-2.361-0.666c-0.787,7.774,1.207,27.688,1.21,30.052&#xD;&#xA;&#x9;c6.653,3.033,25.617,4.009,37.613-9.307c0.007-0.008-4.313-9.779-4.395-13.688c-2.606,0.457-7.541,0.283-10.14-0.146&#xD;&#xA;&#x9;c-0.242-0.438-0.219-0.938-0.078-1.396c3.603,0.61,9.645,0.771,12.751-1.058c0.562-0.331,0.21-1.641-0.286-1.588&#xD;&#xA;&#x9;c-4.393,0.476-11.313,1.504-15.677,0.386c-1.2-0.31-0.373-1.116,0.351-1.318c5.667,0.538,15.251-0.735,15.251-0.735&#xD;&#xA;&#x9;c0.611-0.856,3.949-5.143,4.677-5.393c0.401-0.138,0.465,0.428,0.624,0.659c-0.013,0.079-3.092,4.699-3.547,5.661&#xD;&#xA;&#x9;c1.182,1.597,0.732,3.305-2.533,4.382c0.321,3.813,4.458,11.364,4.793,11.711c0.301-0.489,0.924-0.578,1.404-0.813&#xD;&#xA;&#x9;c0.61,0.099,0.301,1.104,0.195,1.477c-0.802,2.805-5.703,7.378-8.146,8.958c-8.661,5.603-20.899,8.569-30.869,4.926&#xD;&#xA;&#x9;c-1.687-0.614-4.156-0.858-5.535-1.979c-0.038-0.396-0.001-0.861,0.39-1.085c1.525,0.214,0.778-1.739,0.819-2.637&#xD;&#xA;&#x9;c0.073-1.627-0.899-25.129-0.818-27.648c-0.458-0.973-2.724-2.768-2.339-3.994c0.445-1.423,1.995-1.311,3.158-1.009&#xD;&#xA;&#x9;c0.495-0.688,0.591-1.546,0.857-2.326C13.568,77.219,23.178,68.5,34.13,66.729z"/>
    <path fill="#272525" d="M105.668,70.396c1.372,0.261,27.818,0.723,31.577,0.822c0.446,1.907,0.103,3.44-0.368,5.269&#xD;&#xA;&#x9;c-4.254-0.31-24.98-1.046-29.261-1.047c-0.421,3.754-2.048,2.676-3.271,3.167c0,2.683-2.371,2.602-3.845,2.602&#xD;&#xA;&#x9;c-1.062,0.812-1.082,1.486-2.899,1.602c-1.396,0.09-3.891-0.351-4.562-1.783c-0.341-0.724-0.057-0.957,0.023-1.688&#xD;&#xA;&#x9;c0.082-0.372-0.578-1.396-0.492-1.763c-0.516-0.189-2.823,0.396-3.129,0.021c-0.354-0.438,0.123-1.141,0.353-1.512l3.907,0.365&#xD;&#xA;&#x9;c-0.115,0.699-0.324,1.779,0.469,2.173c0.625-1.095,1.184-0.83,1.919-0.83c0.571-1.627,1.636-2.684,3.187-2.622L99.2,74.78&#xD;&#xA;&#x9;c-0.987,0.599-4.81,0.165-4.482-0.931c1.97-0.065,3.327,1.076,4.209-1.861c1.448,0.097,4.396,0.756,5.226-0.93&#xD;&#xA;&#x9;c0.246-0.502-0.146-1.411-0.739-1.474c-2.039-0.217-3.304,0.508-5.417-0.465c-1.278-0.587-3.206-1.139-4.405-0.117&#xD;&#xA;&#x9;c-0.809,0.69-0.146,1.573-0.737,2.172c-0.688,0.044-2.487,0.14-3.158-0.116c0.046-0.439-0.588-1.287,0.271-1.319l2.419,0.194&#xD;&#xA;&#x9;c-0.277-3.476,3.631-2.898,5.689-2.211c0.552,0.184,1.277,0.625,1.794,0.737C102.4,69.015,104.546,65.878,105.668,70.396z"/>
    <polygon fill="#FFFFFF" points="127.887,69.006 140.475,69.006 140.475,77.951 127.887,77.951 "/>
    <path fill="#0053E7" d="M135.375,72.421c0.077,1.008-0.193,1.474-0.117,2.442c-3.078-0.115-31.929-0.821-34.93-1.093&#xD;&#xA;&#x9;c1.561-0.388,3.74,0.194,4.872-1.59C109.604,71.832,130.659,72.459,135.375,72.421z"/>
    <path fill="#272525" d="M27.168,72.724c-5.885,5.129-10.139,11.575-9.432,19.66c2.171,0.123,6.585-0.69,8.419-1.125&#xD;&#xA;&#x9;c-1.18-5.745-1.56-11.335,3.547-17.605c0.395-0.153,0.825-0.805,1.208-0.465c0.098,1.208-1.033,1.975-1.481,2.985&#xD;&#xA;&#x9;c-1.876,4.23-2.902,10.012-1.793,14.542c1.18,0.21,3.112-1.266,3.858,0.155c0.596,1.134,1.547,5.261,1.754,6.631&#xD;&#xA;&#x9;c-3.443,2.441-15.175,4.954-19.371,4.381c-0.933-2.578-2.009-5.104-1.559-7.908c0.963-0.576,2.15-0.396,3.157-0.854&#xD;&#xA;&#x9;c0.7-9.016,3.322-16.301,11.693-20.94V72.724z"/>
    <path fill="#FFDEAE" d="M106.137,75.05c-0.613,1.708-3.943,2.111-5.264,1.125c-0.109-0.477,0.162-0.865,0.468-1.202L106.137,75.05z"/>
    <path fill="#FFDEAE" d="M99.438,76.486c0.287,1.871,2.143,1.938,3.31,2.016c-0.288,1.469-4.541,0.961-5.306-0.193&#xD;&#xA;&#x9;C96.596,77.018,98.725,75.869,99.438,76.486z"/>
    <path fill="#FFDEAE" d="M98.65,80.945c-1.178,1.391-5.711-0.254-3.664-1.514c0.406-0.25,0.938-0.31,1.402-0.271&#xD;&#xA;&#x9;C96.938,79.846,97.83,80.607,98.65,80.945z"/>
    <path fill="#53C73B" d="M30.442,92.189c0.432,1.539,1.088,3.035,1.13,4.65c-3.246,1.438-13.449,2.723-16.643,2.87&#xD;&#xA;&#x9;c-0.573-1.44-1.005-3.104-0.662-4.649C17.319,94.318,28.129,92.775,30.442,92.189z"/>
    <path fill="#272525" d="M32.586,105.414c0,0,3.135,2.878,2.456,4.73c-0.734,2-2.99,1.363-4.482,0.931&#xD;&#xA;&#x9;c0.138,1.519,0.464,2.679-1.052,3.528c-1.81,1.015-3.723-1.851-4.21-3.259c-0.458,0.761-0.6,1.743-1.48,2.173&#xD;&#xA;&#x9;c-0.731,0.354-1.13-0.028-1.793-0.468c-1.998-2.601-0.525-5.407,0.39-8.024c-0.262-0.746-4.109-2.866-3.486-3.897&#xD;&#xA;&#x9;c0.284-0.47,2.37-0.162,2.37-0.162c0.875,0.836,2.697,2.649,3.65,3.401c-1.145,1.926-3.659,5.111-2.066,7.445&#xD;&#xA;&#x9;c0.13,0.188,0.473,0.228,0.663,0.111c0.832-0.488,0.873-3.759,2.416-4.846c0.211,0.979,0.472,6.146,2.534,5.506&#xD;&#xA;&#x9;c1.689-0.521-0.428-4.854-0.273-6.167c0.641,0.045,2.07,3.597,4.95,3.452c1.413-1.379-2.634-3.396-2.923-5.312&#xD;&#xA;&#x9;c1.458-0.644,3.474-0.955,3.858-2.793c-1.506-1.875-3.085,0.45-5.34,1.202c-0.437-0.63-2.488-2.813-2.488-2.813&#xD;&#xA;&#x9;c-0.128-0.482,0.545-0.438,0.741-0.734c0.787-0.375,2.064,1.221,2.683,1.609c0.985-0.307,2.351-0.941,3.352-1.008&#xD;&#xA;&#x9;C36.05,99.829,35.391,103.674,32.586,105.414z"/>
  </g>
</svg>