<?xml version="1.0" encoding="UTF-8" standalone="no"?>
<svg
   version="1.1"
   width="48.572552"
   height="79.970001"
   id="svg8"
   sodipodi:docname="1-glow.svg"
   xmlns:inkscape="http://www.inkscape.org/namespaces/inkscape"
   xmlns:sodipodi="http://sodipodi.sourceforge.net/DTD/sodipodi-0.dtd"
   xmlns="http://www.w3.org/2000/svg"
   xmlns:svg="http://www.w3.org/2000/svg">
  <defs
     id="defs12" />
  <sodipodi:namedview
     id="namedview10"
     pagecolor="#ffffff"
     bordercolor="#000000"
     borderopacity="0.25"
     inkscape:showpageshadow="2"
     inkscape:pageopacity="0.0"
     inkscape:pagecheckerboard="0"
     inkscape:deskcolor="#d1d1d1" />
  <!-- Exported by Scratch - http://scratch.mit.edu/ -->
  <g
     id="ID0.8520682123489678"
     transform="translate(-1.0453216e-4)">
    <g
       id="ID0.33068362809717655">
      <g
         id="ID0.7446344294585288">
        <path
           id="ID0.47614098666235805"
           fill="#00cccc"
           d="m 48.417,67.38 c -0.22,2.13 -1.06,4.14 -2.41,5.8 -1.98,2.44 -4.29,4.18 -6.86,5.17 -2.36,0.91 -4.99,1.22 -8.23,0.97 -0.38,-0.03 -0.67,-0.04 -0.88,-0.05 -0.04,0.01 -0.08,0.02 -0.13,0.03 -1.74,0.46 -3.19,0.67 -4.57,0.67 -1.24,0 -2.34,-0.21 -3.29,-0.49 -1.38,0.09 -2.49,0.13 -3.39,0.13 h -4.21 c -1.91,-0.08 -7.61,-0.3 -11.11,-5.14 -0.47,-0.62 -1.34,-1.84 -2.01,-3.52 -0.29,-0.59 -0.55,-1.2 -0.76,-1.85 -0.6,-1.8 -0.73,-3.72 -0.36,-5.58 1.38,-7.08 6.74,-10.48 12.02,-11.54 -0.06,-5.2 -0.23,-11.55 -0.52,-19.01 -0.01,-0.27 -0.01,-0.55 0,-0.83 -1.92,-0.89 -3.6,-2.22 -4.91,-3.93 -1.78,-2.27 -2.75,-5.08 -2.75,-7.97 0,-5.05 2.77,-9.38 8.24,-12.88 0.05,-0.03 0.09,-0.06 0.14,-0.08 0.36,-0.23 0.62,-0.41 0.81,-0.54 0.65,-1.06 1.48,-2.01 2.46,-2.8 3.19,-2.58 6.92,-3.94 10.78,-3.94 6.98,0 12.58,4.61 13.96,11.48 0.37,1.87 0.25,3.8 -0.34,5.6 -0.11,1.3 -0.26,3.72 -0.42,8.15 -0.01,0.51 -0.04,1.18 -0.1,2.33 -0.04,0.59 -0.06,1 -0.07,1.23 v 8.97 c 0.01,0.3 0.05,0.86 0.1,1.67 0.15,2.17 0.16,2.44 0.16,2.88 v 9.9 c 2.8,1.22 5.23,3.36 7.03,6.25 2.19,3.48 1.82,7.01 1.62,8.92 z" />
      </g>
    </g>
    <g
       id="ID0.551163587719202">
      <path
         id="ID0.45730895223096013"
         fill="#ffffff"
         d="m 37.477,66.239 c -0.763,0.938 -1.525,1.554 -2.287,1.848 -0.763,0.293 -1.906,0.381 -3.431,0.264 -1.701,-0.118 -2.814,-0.118 -3.343,0 -0.059,0 -0.483,0.102 -1.275,0.308 -0.791,0.205 -1.394,0.309 -1.803,0.309 -0.118,0 -0.338,-0.104 -0.66,-0.309 -0.323,-0.206 -0.571,-0.308 -0.747,-0.308 -0.295,0 -1.071,0.044 -2.331,0.132 -1.262,0.088 -2.243,0.132 -2.947,0.132 -1.231,0 -2.493,0 -3.782,0 C 13.346,68.556 12.466,68.351 12.232,68 11.705,67.296 11.44,66.769 11.44,66.417 c -0.176,-0.177 -0.322,-0.44 -0.439,-0.792 0.469,-2.404 2.756,-3.371 6.861,-2.902 2.99,0.294 4.75,0.264 5.277,-0.089 0.233,-6.273 0.088,-16.302 -0.439,-30.082 0.233,-2.58 0.468,-6.802 0.703,-12.667 -0.411,-0.058 -0.998,0.207 -1.759,0.792 -0.88,0.763 -1.438,1.203 -1.672,1.319 -0.763,0.294 -1.525,0.44 -2.287,0.44 -0.997,0 -1.729,-0.322 -2.198,-0.968 -0.294,-0.353 -0.44,-0.762 -0.44,-1.231 0,-1.056 1.056,-2.257 3.167,-3.606 2.463,-1.524 3.928,-2.903 4.398,-4.135 1.231,-0.997 2.52,-1.496 3.87,-1.496 1.759,0 2.814,0.88 3.166,2.639 -0.118,0.235 -0.234,0.559 -0.352,0.968 -0.235,1.818 -0.439,5.277 -0.616,10.38 0,0.294 -0.03,0.938 -0.088,1.935 -0.059,0.998 -0.088,1.555 -0.088,1.672 v 9.411 c 0,0.118 0.044,0.836 0.132,2.155 0.088,1.319 0.133,2.038 0.133,2.155 V 62.37 c 1.583,0.294 2.667,0.323 3.254,0.088 0.762,-0.292 1.437,-0.439 2.023,-0.439 1.349,0 2.492,0.763 3.431,2.287 0.116,0.174 0.116,0.819 0,1.933 z" />
    </g>
  </g>
</svg>
