<?xml version="1.0" encoding="UTF-8" standalone="no"?>
<svg
   version="1.1"
   width="60.217724"
   height="75.919998"
   id="svg8"
   sodipodi:docname="6-glow.svg"
   xmlns:inkscape="http://www.inkscape.org/namespaces/inkscape"
   xmlns:sodipodi="http://sodipodi.sourceforge.net/DTD/sodipodi-0.dtd"
   xmlns="http://www.w3.org/2000/svg"
   xmlns:svg="http://www.w3.org/2000/svg">
  <defs
     id="defs12" />
  <sodipodi:namedview
     id="namedview10"
     pagecolor="#ffffff"
     bordercolor="#000000"
     borderopacity="0.25"
     inkscape:showpageshadow="2"
     inkscape:pageopacity="0.0"
     inkscape:pagecheckerboard="0"
     inkscape:deskcolor="#d1d1d1" />
  <!-- Exported by Scratch - http://scratch.mit.edu/ -->
  <g
     id="ID0.39281158335506916">
    <g
       id="ID0.24074362497776747">
      <g
         id="ID0.8261958677321672">
        <path
           id="ID0.2935148295946419"
           fill="#00cccc"
           d="m 57.36,61.07 c -1.64,4.61 -5.25,8.32 -11.05,11.38 -0.05,0.02 -0.1,0.05 -0.14,0.07 -4.43,2.26 -9.07,3.4 -13.79,3.4 -6.53,0 -12.76,-2.2 -18.5,-6.53 C 13.84,69.36 13.8,69.33 13.76,69.3 12.4,68.24 11.14,66.91 7.68,62.19 7.36,61.77 7.08,61.32 6.83,60.85 L 5.86,59.01 C 5.19,58.13 4.56,57.11 3.92,55.91 3.58,55.27 3.31,54.61 3.11,53.92 2.51,51.94 1.77,49.1 0.84,45.25 0.79,45.05 0.75,44.84 0.71,44.64 0.23,42.03 0,39.02 0,35.45 0,30.55 0.07,29.57 0.2,28.62 0.24,28.39 0.28,28.15 0.33,27.92 0.62,26.53 1.2,24.48 3.49,19 3.76,18.34 4.1,17.71 4.5,17.11 4.79,16.68 5.19,16.07 5.7,15.28 8.26,10.73 12.06,6.99 16.98,4.18 21.24,1.78 25.66,0.4 30.18,0.04 30.47,0.01 30.77,0 31.06,0 c 0.62,0 1.13,0.02 5.17,0.4 0.38,0.04 0.75,0.09 1.12,0.17 0.46,0.09 1.05,0.23 4.44,1.09 0.04,0.01 0.08,0.02 0.12,0.03 3.01,0.81 5.71,2.55 8.01,5.18 3.32,3.77 4.01,7.53 4.01,10.02 0,3.02 -1.04,5.95 -2.94,8.29 2.53,2.4 4.56,5.1 6.03,8.04 0.44,0.77 0.94,1.74 1.56,3.04 0.23,0.49 0.43,1 0.59,1.52 0.52,1.71 0.81,3.62 0.91,6.01 v 0.13 c 0.04,1.3 0.07,2.24 0.08,2.82 0.3,3.58 -0.56,7.93 -2.8,14.33 z" />
      </g>
    </g>
    <g
       id="ID0.8149917270056903">
      <path
         id="ID0.1787513718008995"
         fill="#ffffff"
         d="m 49.178,47.417 c 0.234,1.818 -0.498,5.16 -2.198,10.027 -0.646,1.818 -2.581,3.576 -5.806,5.277 -2.874,1.465 -5.806,2.199 -8.796,2.199 -4.105,0 -8.064,-1.438 -11.875,-4.311 -0.528,-0.41 -1.848,-2.051 -3.958,-4.926 l -1.496,-2.814 c -0.41,-0.41 -0.879,-1.113 -1.407,-2.111 -0.527,-1.759 -1.231,-4.455 -2.11,-8.092 -0.353,-1.936 -0.528,-4.34 -0.528,-7.213 0,-3.107 0.029,-4.867 0.088,-5.277 0.233,-1.113 1.085,-3.432 2.551,-6.949 0.353,-0.527 0.85,-1.289 1.495,-2.287 1.584,-2.932 4.017,-5.336 7.301,-7.213 2.815,-1.584 5.688,-2.492 8.62,-2.727 0.293,0 1.672,0.118 4.135,0.352 0.293,0.059 1.583,0.383 3.87,0.968 0.88,0.235 1.744,0.835 2.595,1.804 0.85,0.967 1.275,1.891 1.275,2.77 0,0.528 -0.176,0.998 -0.527,1.408 -0.527,0.586 -1.291,0.91 -2.287,0.967 -0.938,0.119 -1.672,0 -2.199,-0.352 -0.294,-0.645 -1.086,-1.465 -2.375,-2.463 -1.467,-0.586 -2.902,-0.879 -4.31,-0.879 -4.165,0 -7.8,2.346 -10.907,7.037 -2.757,4.221 -3.93,8.092 -3.519,11.609 3.928,-3.811 8.884,-5.717 14.865,-5.717 0.938,0 1.905,0.059 2.902,0.176 0.058,0 0.234,0.088 0.528,0.264 2.228,0 4.603,1.057 7.125,3.167 2.287,1.878 3.987,3.988 5.102,6.333 0.293,0.471 0.732,1.319 1.319,2.551 0.233,0.764 0.381,1.848 0.439,3.255 0.057,1.935 0.088,2.991 0.088,3.167 z m -5.366,0.047 c 0.176,-3.882 -0.675,-6.971 -2.551,-9.266 -2.815,-3.588 -6.363,-5.383 -10.644,-5.383 -3.988,0 -8.151,2.501 -12.49,7.501 -0.235,0.118 -0.558,0.294 -0.968,0.529 1.231,6.767 3.107,11.59 5.63,14.472 2.814,3.178 5.951,4.678 9.411,4.502 1.349,0.176 2.888,-0.016 4.618,-0.574 1.729,-0.557 3.005,-1.338 3.827,-2.338 1.936,-2.295 2.992,-5.441 3.167,-9.443 z" />
    </g>
  </g>
</svg>
