<?xml version="1.0" encoding="UTF-8" standalone="no"?>
<!-- Generator: Adobe Illustrator 18.0.0, SVG Export Plug-In . SVG Version: 6.00 Build 0)  -->

<svg
   version="1.1"
   id="Layer_2"
   x="0px"
   y="0px"
   viewBox="0 0 47.586124 52.66313"
   enable-background="new 0 0 47.5 52.4"
   xml:space="preserve"
   sodipodi:docname="A-story-1.svg"
   width="47.586124"
   height="52.663132"
   xmlns:inkscape="http://www.inkscape.org/namespaces/inkscape"
   xmlns:sodipodi="http://sodipodi.sourceforge.net/DTD/sodipodi-0.dtd"
   xmlns="http://www.w3.org/2000/svg"
   xmlns:svg="http://www.w3.org/2000/svg"><defs
   id="defs25" /><sodipodi:namedview
   id="namedview23"
   pagecolor="#ffffff"
   bordercolor="#000000"
   borderopacity="0.25"
   inkscape:showpageshadow="2"
   inkscape:pageopacity="0.0"
   inkscape:pagecheckerboard="0"
   inkscape:deskcolor="#d1d1d1" />
<g
   id="g20"
   transform="translate(0.15328137,0.16313115)">
	<path
   fill="#53ad4e"
   d="m 47.4,47 c -0.1,-0.6 -0.3,-0.9 -1,-0.9 -0.7,0 -1.6,-0.1 -2,-0.5 -0.8,-0.9 -1.5,-1.9 -1.9,-3 C 42,41.4 41.7,40.2 41.3,38.9 41,37.9 40.4,37 40.2,36 c -0.8,-3 -1.9,-5.9 -3,-8.8 -0.5,-1.3 -0.9,-2.6 -1.3,-3.9 -0.6,-1.6 -1.2,-3.1 -1.7,-4.7 -0.6,-1.7 -1,-3.4 -1.5,-5 C 32.5,12.9 32.1,12.2 31.9,11.5 31.1,8.4 30.5,5.3 29.2,2.4 29,2 28.7,1.5 28.3,1.2 27.7,0.8 26.9,0.5 26.2,0.2 25.4,-0.2 24.8,-0.5 24.2,0.6 23.3,2 22,3 21.1,4.1 c -0.6,0.7 -0.9,1.6 -1.4,2.5 -0.2,0.3 -0.2,0.6 -0.3,1 -0.8,2.4 -1.6,4.7 -2.4,7.1 -0.2,0.5 -0.3,0.9 -0.5,1.4 -0.6,1.4 -1.2,2.8 -1.7,4.2 -0.3,0.7 -0.4,1.4 -0.7,2 -1.3,3.1 -2.6,6.2 -3.3,9.5 -1,4.4 -2.9,8.5 -4.8,12.5 -0.5,1 -1.1,1.8 -2.3,1.9 -0.5,0 -1,0.1 -1.5,0.2 -0.3,0.1 -0.6,0.2 -0.7,0.4 -0.5,1 -1,2.1 -1.5,3.1 -0.4,1 0,1.6 1,1.6 1.6,0 3.2,0 4.7,0.1 2.7,0.1 5.3,0.2 8,0.3 0.3,0 0.7,-0.1 0.9,-0.3 0.6,-0.7 1.3,-1.4 1.8,-2.2 0.4,-0.6 0.6,-1.2 0.7,-1.9 0.1,-0.5 -0.2,-0.9 -0.7,-0.9 -0.9,-0.1 -1.8,-0.3 -2.7,-0.4 -0.5,-0.1 -1,-0.2 -1.5,-0.4 -0.6,-0.2 -0.7,-0.7 -0.5,-1.2 0.6,-1.5 1.1,-3.1 1.8,-4.6 0.4,-1.1 1,-2.1 1.3,-3.1 0.2,-0.6 0.5,-0.8 1.1,-0.8 4.5,0.3 9,0.4 13.6,0 0.2,0 0.7,0.2 0.8,0.4 0.3,0.6 0.4,1.2 0.6,1.8 0.5,1.7 1,3.4 1.5,5.1 0.3,1 0.6,2 0.9,3 -0.5,0.2 -1.2,0.3 -1.4,0.7 -0.8,1.3 -1.5,2.6 -2.1,4 -0.3,0.7 0,1 0.8,1 1.8,0 3.6,0 5.4,0.1 2.6,0.1 5.1,0.2 7.7,0.3 0.5,0 0.9,-0.1 1.2,-0.6 C 45.4,51 46,50 46.7,49.2 47.4,48.5 47.5,47.9 47.4,47 Z M 24.2,11.5 c 0.1,0 0.2,0 0.2,0 0.4,0.9 0.9,1.8 1.2,2.7 0.8,2.4 1.4,4.9 2.2,7.2 0.6,1.8 1.3,3.4 1.9,5.2 0.1,0.2 0.2,0.4 0.3,0.8 -0.8,0 -1.4,0 -2.1,0 -0.1,0 -0.3,-0.2 -0.4,-0.4 C 26.8,25 26.2,23 25.6,20.9 25.3,20 25.2,19 25,18 c -0.3,-1.3 -0.8,-2.7 -1,-4 -0.2,-0.8 0.1,-1.6 0.2,-2.5 z m 1.5,15.9 c -2.2,0 -4.3,0 -6.5,0 -0.2,0 -0.3,0 -0.7,-0.1 1.6,-4.3 3.1,-8.5 4.6,-12.7 0.1,0 0.2,0 0.3,0.1 0.3,1.5 0.6,3.1 1,4.6 0.6,2.4 1.3,4.7 2,7 0.5,1.1 0.5,1.1 -0.7,1.1 z M 1.1,51 C 1,51 0.9,51 0.9,50.9 c -0.1,-1 0.7,-1.7 0.8,-2.6 0.1,0 0.2,0 0.2,0.1 -0.3,0.8 -0.6,1.7 -0.8,2.6 z m 12.1,-2.1 c 0.9,0 1.8,0 2.6,0 0,0.1 0,0.2 0.1,0.2 -0.6,0.7 -1.2,1.4 -1.9,2.1 -0.1,0.1 -0.4,0.1 -0.5,0.1 C 11,51.2 8.4,51.1 5.9,51 4.5,51 3,51 1.4,51 1.8,50.2 2.2,49.5 2.6,48.8 2.7,48.7 3,48.6 3.2,48.6 c 3.3,0.2 6.7,0.3 10,0.3 z M 14.1,28 c -0.3,0.7 -0.4,1.4 -0.7,2.1 -1,2.5 -2,5 -3,7.6 -0.8,1.9 -1.5,3.8 -2.3,5.7 -0.4,0.8 -1,1.6 -1.6,2.4 -0.1,0 -0.1,-0.1 -0.2,-0.1 0.5,-1.1 1,-2.1 1.5,-3.2 1.8,-4 3.2,-8.2 4.4,-12.5 0.7,-2.5 1.8,-4.9 2.7,-7.4 0.2,-0.4 0.3,-0.8 0.5,-1.3 0.5,-1.2 1.1,-2.5 1.6,-3.8 0.4,-1 0.6,-1.9 0.9,-2.9 0.9,-2.7 1.7,-5.5 2.7,-8.2 0.3,-0.9 1,-1.7 1.6,-2.5 0.3,-0.5 0.8,-0.8 1.2,-1.2 0.1,0 0.1,0.1 0.2,0.1 C 23,4.5 22.3,6.3 21.7,8 21,9.9 20.2,11.8 19.5,13.7 19,14.9 18.4,16.2 18,17.4 c -0.7,1.9 -1.2,3.8 -1.9,5.6 -0.7,1.7 -1.4,3.4 -2,5 z m 16.2,7 c -0.1,0.2 -0.4,0.3 -0.6,0.3 -4,0 -8,0 -12,0 -0.7,0 -1.5,-0.1 -2.2,-0.2 0.3,-1.2 0.6,-2.3 1,-3.4 0.1,-0.2 0.4,-0.4 0.6,-0.4 4.3,0.1 8.6,0.2 12.8,0.3 0.5,0 1,0.1 1.5,0.2 C 31.1,33 30.7,34 30.3,35 Z m 1.8,4 c -0.3,-1 -0.8,-1.9 -1.2,-2.8 0,-0.1 -0.2,-0.3 -0.1,-0.4 0.4,-1.2 0.8,-2.4 1.2,-3.6 0.1,0 0.2,0 0.2,0 0.5,1.4 1,2.8 1.5,4.2 0.4,1 0.7,2 1,3 0.5,1.4 1,2.8 1.3,4.2 0.3,1.2 -0.2,2 -1.3,2.4 -0.4,0.2 -0.7,0.1 -0.8,-0.3 -0.5,-2.3 -1.1,-4.5 -1.8,-6.7 z m -1.6,12.3 c 0.5,-1.1 1,-2.3 1.5,-3.6 0.2,0.4 0.3,0.7 0.3,0.8 -0.5,1 -1,2 -1.5,2.9 -0.1,0 -0.2,0 -0.3,-0.1 z m 13.7,0.2 c -0.1,0.2 -0.4,0.3 -0.6,0.3 -2.6,-0.1 -5.2,-0.2 -7.8,-0.3 -1.1,0 -2.2,0 -3.2,0 -0.4,0 -0.7,0 -1.2,0 0.7,-1 1.2,-2 1.9,-2.8 0.1,-0.2 0.5,-0.2 0.7,-0.2 2.8,0.1 5.6,0.2 8.3,0.2 0.8,0 1.6,-0.1 2.3,-0.1 0.5,0 0.9,0 1.5,-0.1 -0.6,1.1 -1.2,2.1 -1.9,3 z"
   id="path2" />
	<path
   fill="#ffffff"
   d="M 1.9,48.4 C 1.6,49.3 1.4,50.1 1.1,51 1,51 0.9,51 0.9,50.9 c -0.1,-1 0.7,-1.7 0.8,-2.6 0,0 0.1,0.1 0.2,0.1 z"
   id="path4" />
	<path
   fill="#ffffff"
   d="m 32.3,48.6 c -0.5,1 -1,2 -1.5,2.9 -0.1,0 -0.2,-0.1 -0.3,-0.1 0.5,-1.1 1,-2.3 1.5,-3.6 0.2,0.3 0.4,0.6 0.3,0.8 z"
   id="path6" />
	<path
   fill="#ffffff"
   d="m 46.2,48.5 c -0.7,1.1 -1.3,2.1 -2,3 -0.1,0.2 -0.4,0.3 -0.6,0.3 -2.6,-0.1 -5.2,-0.2 -7.8,-0.3 -1.1,0 -2.2,0 -3.2,0 -0.4,0 -0.7,0 -1.2,0 0.7,-1 1.2,-2 1.9,-2.8 0.1,-0.2 0.5,-0.2 0.7,-0.2 2.8,0.1 5.6,0.2 8.3,0.2 0.8,0 1.6,-0.1 2.3,-0.1 0.5,-0.1 1,-0.1 1.6,-0.1 z"
   id="path8" />
	<path
   fill="#ffffff"
   d="m 34.8,46 c -0.4,0.2 -0.7,0.1 -0.8,-0.3 -0.6,-2.2 -1.2,-4.4 -1.9,-6.7 -0.3,-1 -0.8,-1.9 -1.2,-2.8 0,-0.1 -0.2,-0.3 -0.1,-0.4 0.4,-1.2 0.8,-2.4 1.2,-3.6 0.1,0 0.2,0 0.2,0 0.5,1.4 1,2.8 1.5,4.2 0.4,1 0.7,2 1,3 0.5,1.4 1,2.8 1.3,4.2 0.4,1.2 -0.1,1.9 -1.2,2.4 z"
   id="path10" />
	<path
   fill="#ffffff"
   d="m 15.9,49.2 c -0.6,0.7 -1.2,1.4 -1.9,2.1 -0.1,0.1 -0.4,0.1 -0.5,0.1 C 11,51.2 8.4,51.1 5.9,51 4.5,51 3,51 1.4,51 1.8,50.2 2.2,49.5 2.6,48.8 2.7,48.7 3,48.6 3.2,48.6 c 3.3,0.1 6.7,0.2 10,0.3 0.9,0 1.8,0 2.6,0 0.1,0.1 0.1,0.2 0.1,0.3 z"
   id="path12" />
	<path
   fill="#ffffff"
   d="M 31.5,31.9 C 31.1,33 30.7,34 30.3,35 c -0.1,0.2 -0.4,0.3 -0.6,0.3 -4,0 -8,0 -12,0 -0.7,0 -1.5,-0.1 -2.2,-0.2 0.3,-1.2 0.6,-2.3 1,-3.4 0.1,-0.2 0.4,-0.4 0.6,-0.4 4.3,0.1 8.6,0.2 12.8,0.3 0.6,0.1 1.1,0.2 1.6,0.3 z"
   id="path14" />
	<path
   fill="#ffffff"
   d="m 30,27.4 c -0.8,0 -1.4,0 -2.1,0 -0.1,0 -0.3,-0.2 -0.4,-0.4 C 26.8,25 26.2,23 25.6,20.9 25.3,20 25.2,19 25,18 c -0.3,-1.3 -0.8,-2.7 -1,-4 -0.1,-0.8 0.2,-1.7 0.3,-2.5 0.1,0 0.2,0 0.2,0 0.4,0.9 0.9,1.8 1.2,2.7 0.8,2.4 1.4,4.9 2.2,7.2 0.6,1.8 1.3,3.4 1.9,5.2 0,0.3 0.1,0.5 0.2,0.8 z"
   id="path16" />
	<path
   fill="#ffffff"
   d="M 23.6,2.9 C 23,4.6 22.3,6.4 21.7,8.1 21,10 20.2,11.9 19.5,13.8 19,15 18.4,16.3 18,17.5 c -0.7,1.9 -1.2,3.8 -1.9,5.6 -0.6,1.6 -1.3,3.3 -1.9,4.9 -0.3,0.7 -0.4,1.4 -0.7,2.1 -1,2.5 -2,5 -3,7.6 -0.8,1.9 -1.5,3.8 -2.3,5.7 -0.4,0.8 -1,1.6 -1.6,2.4 -0.1,0 -0.1,-0.1 -0.2,-0.1 0.5,-1.1 1,-2.1 1.5,-3.2 1.8,-4 3.2,-8.2 4.4,-12.5 0.7,-2.5 1.8,-4.9 2.7,-7.4 0.2,-0.4 0.3,-0.8 0.5,-1.3 0.5,-1.2 1.1,-2.5 1.6,-3.8 0.4,-1 0.6,-1.9 0.9,-2.9 0.9,-2.7 1.7,-5.5 2.7,-8.2 0.3,-0.9 1,-1.7 1.6,-2.5 0.3,-0.5 0.8,-0.8 1.2,-1.2 -0.1,0.1 0,0.2 0.1,0.2 z"
   id="path18" />
</g>
</svg>
