<svg width="64.80000305175781" height="201.89999389648438" viewBox="0 0.10000002384185791 64.80000305175781 201.89999389648438" version="1.1" xml:space="preserve" xmlns="http://www.w3.org/2000/svg" xmlns:xlink="http://www.w3.org/1999/xlink">
  <g>
    <title>Slice 1</title>
    <desc>Created with Sketch.</desc>
    <g id="Page-1" stroke="none" fill-rule="evenodd">
      <g id="Group-2">
        <path d="M 34.4 180.3 C 34 180.2 33.8 181 33.6 181.2 C 33.1 181.8 33.1 183.1 33.2 183.8 C 33.3 184.5 33.6 185.2 33.9 185.8 C 34.1 186.2 34.3 186.5 34.6 186.8 C 35 187.2 35.9 187.6 36.5 187.7 C 38.4 187.9 40 188.1 41.8 187.6 C 44 187 46.2 186.8 48.4 187.2 C 50.2 187.5 52.3 188.1 54.1 188.3 C 56.2 188.6 58.2 188.4 60.3 188 C 61.7 187.7 63 186.1 63.5 184.8 C 63.7 184.3 63.4 183.5 63.2 183 C 62.9 182.1 62.2 182.1 61.4 182.1 C 59.1 182.1 56.4 182 54.3 181.1 C 53.5 180.7 52.6 180.2 51.9 179.8 C 51.2 179.4 51.1 179.1 50.3 178.9 C 50.1 178.9 52.2 177.4 52 177.5 C 53 176.6 52.3 177.5 51.9 176.2 C 51.8 175.9 51.3 175.9 51.1 175.8 C 50.8 175.6 50.7 175.6 50.3 175.5 C 49.5 175.3 48.7 174.6 48.6 175.7 C 48.6 176.4 49.1 177.2 49 178 C 48.9 178.7 47.7 179.6 47.1 179.8 C 45.4 180.4 43.8 181.4 42 181.5 C 40.7 181.6 39.1 182 37.9 181.7 C 37.4 181.6 36.4 181.5 35.9 181.3 C 35.6 181.2 35.3 180.9 34.8 180.7 " id="ShoeRight_1_" fill="#2FA64A" stroke-width="1"/>
        <path d="M 33.9 185.3 C 34.1 184.9 36.2 186.1 36.6 186 C 37.6 185.9 38.7 186.1 39.7 185.9 C 40.6 185.7 41.3 185.9 42.1 185.7 C 43.2 185.4 44.2 185.5 45.2 185.6 C 46.3 185.7 47.4 186 48.5 186.2 C 49.8 186.3 51.3 186.6 52.6 186.7 C 54.8 186.9 56.7 187 58.8 186.3 C 62.1 185.2 62.1 182.5 62.4 182.2 C 63.8 183.3 63.8 185 62.3 186.9 C 61 188.5 58.3 188.1 56.4 188.3 C 54.2 188.5 52 187.7 49.9 187.4 C 48.9 187.3 48 187.2 47 187.1 C 45.6 187 44 187.1 42.6 187.4 C 41 187.8 39.6 187.7 37.9 187.8 C 36.9 187.8 36.3 188.1 35.5 187.4 C 35 187 35.2 187.3 34.8 186.9 C 34.8 186.8 34.4 186.4 34.4 186.3 " id="ShoeTrimRight_1_" fill="#A9D7AA" stroke-width="1"/>
        <path d="M 33.9 180.3 C 33.1 181.5 32.6 182.7 32.7 184.1 C 32.8 185.7 34.3 187 35.5 187.8 C 35.7 187.9 36.2 187.7 35.9 187.5 C 34.7 186.7 33.6 185.7 33.3 184.2 C 32.9 182.8 33.7 181.4 34.4 180.3 C 34.6 180.1 34 180.1 33.9 180.3 Z M 35.7 187.8 C 37.2 187.9 38.7 188 40.2 187.9 C 41.1 187.8 42 187.6 42.9 187.4 C 44.6 187 46.2 187 47.9 187.2 C 50 187.5 52 188.1 54.1 188.4 C 56 188.7 57.8 188.4 59.6 188.1 C 59.9 188.1 60 187.7 59.7 187.8 C 57.4 188.1 55.3 188.3 53 187.8 C 51.1 187.4 49.1 186.9 47.2 186.7 C 45.1 186.5 43.3 187 41.3 187.4 C 39.5 187.7 37.7 187.5 35.9 187.4 C 35.7 187.5 35.3 187.8 35.7 187.8 Z M 50.1 179.1 C 51.5 179.8 52.8 180.8 54.3 181.4 C 56.2 182.2 58 182.2 60 182.3 C 60.9 182.3 61.8 182.3 62.6 182.8 C 63.7 183.4 63.2 185 62.8 185.9 C 61.5 188.3 58.6 188.3 56.2 188.2 C 56 188.2 55.6 188.6 56 188.6 C 58 188.7 59.9 188.7 61.7 187.7 C 63.2 186.9 64.3 184.8 63.5 183.2 C 62.8 181.7 59.9 182.1 58.7 182.1 C 55.5 182.1 53.3 180.4 50.6 179 C 50.4 178.7 49.9 179 50.1 179.1 Z M 61.9 182.3 C 61.6 187.7 54.5 186.7 50.9 186.2 C 48.8 185.9 46.6 185.6 44.5 185.5 C 42.7 185.4 40.9 185.5 39.1 185.7 C 37.3 185.9 35.4 185.9 33.9 184.8 C 33.7 184.7 33.2 184.9 33.5 185.1 C 34.6 185.9 36 186.2 37.3 186.2 C 39.5 186.2 41.6 185.8 43.9 185.9 C 46.6 186 49.3 186.5 52 186.8 C 55.8 187.2 62.3 187.5 62.6 182.3 C 62.5 182 61.9 182.1 61.9 182.3 Z M 48.5 180.4 C 49.2 179.4 50.3 178.9 51.2 178.2 C 51.5 178 52.5 177.3 52.5 176.9 C 52.6 175.6 49.8 174.7 48.8 174.9 C 48.6 175 48.6 175.1 48.9 175.1 C 49.7 174.9 50.8 175.6 51.5 176 C 52.5 176.7 51.9 177.2 51.3 177.8 C 50.3 178.7 48.9 179.2 48.1 180.4 C 48 180.6 48.4 180.5 48.5 180.4 Z M 52.4 176.6 C 50.8 176.1 49.3 177.7 48.4 178.8 C 48.3 178.9 48.6 178.8 48.6 178.8 C 49.4 177.9 50.7 176.3 52.1 176.7 C 52.2 176.7 52.5 176.6 52.4 176.6 Z M 48.1 180.4 C 47.9 180.6 47.6 180.4 47.5 180.3 C 47.3 180.2 47.2 180 47.2 179.7 C 47.2 179.6 46.8 179.7 46.8 179.8 C 46.9 180.5 48 181 48.6 180.4 C 48.6 180.3 48.2 180.3 48.1 180.4 Z M 50.8 179.8 C 50.2 180.3 49.5 180.8 49.4 181.6 C 49.3 181.9 50.4 181.7 50.5 181.4 C 50.7 180.7 51.3 180.2 51.9 179.7 C 52.1 179.5 51.7 179.5 51.6 179.5 C 51.3 179.5 51 179.6 50.8 179.8 Z M 52.3 180.5 C 51.8 181 51.3 181.5 51.2 182.2 C 51.1 182.7 52.2 182.5 52.3 182.1 C 52.4 181.5 52.8 181.1 53.2 180.7 C 53.4 180.5 53.3 180.3 53.1 180.3 C 52.8 180.2 52.4 180.3 52.3 180.5 Z M 53.7 181.3 C 53.3 181.6 52.8 182 52.8 182.6 C 52.8 183 53.9 182.8 53.9 182.5 C 53.9 182 54.3 181.8 54.6 181.5 C 54.8 181.4 54.7 181.2 54.5 181.1 C 54.2 181 53.9 181.1 53.7 181.3 Z " id="linesShoeRight_1_" fill="#1D241C" fill-rule="nonzero" stroke-width="1"/>
      </g>
      <g id="Group-3">
        <path d="M 4.7 187 C 3.9 187 3.3 187 3.1 187.5 C 2.8 188.1 3 189.3 3 190 C 3 190.9 2.9 191.6 3.3 192.4 C 3.7 193.2 5.1 193.6 5.9 194 C 7.5 194.9 8.9 195.1 10.4 196.2 C 11.8 197.2 13.3 198.2 14.3 199.5 C 15.5 201.2 18.5 200.5 20.4 200.4 C 21.3 200.4 22.1 200 23 199.9 C 23.9 199.8 24.7 199.4 25.5 199 C 26.2 198.7 26.9 198.3 27.6 197.9 C 28.2 197.6 28.7 197.1 29.1 196.6 C 30 195.6 30.7 194.4 29.2 193.8 C 29.2 193.2 28.3 192.9 27.8 192.8 C 27.3 192.7 26.2 192.4 25.7 192.3 C 24.6 192.1 25.1 192 24.2 191.6 C 23.5 191.3 23 190.8 22.5 190.1 C 22 189.5 21.4 189 21 188.3 C 20.8 188 20.3 187.9 20.1 187.6 C 19.8 187.3 19.3 187.4 19.2 187 C 19.1 186.3 18.7 184.6 18 184.4 C 17 184.2 15.9 184.3 15 184.5 C 14.2 184.7 12.9 185 12.1 185.4 C 11.6 185.6 11.1 186.1 10.6 186.3 C 10.6 186.7 10.9 187.2 10.8 187.6 C 9.5 187.7 9.7 187.7 8.4 187.9 C 7.7 188 6.1 187.5 5.3 187.2 C 5 187.2 5 187 4.6 186.7 " id="ShoeLeft_1_" fill="#2FA64A" stroke-width="1"/>
        <path d="M 2.9 191.9 C 4.9 192.2 7.1 193.6 9 194.3 C 11.1 195.2 12.8 196.7 15 197.5 C 17.4 198.4 20.4 198.1 22.8 197.2 C 23.9 196.8 25.1 196.5 26 195.9 C 26.5 195.5 27.2 195.3 27.4 194.7 C 27.6 194.3 27.3 194 27.4 193.7 C 27.4 193.6 27.2 193.3 27.2 193.2 C 28.4 193.1 28.8 193.7 29.4 194.7 C 30.1 195.8 29.4 196.5 28.9 197.3 C 27.8 199.3 24.6 199.8 22.5 200.4 C 20.4 201 17.1 201.5 15 200.6 C 14.4 200.3 14.4 200 14 199.6 C 13.7 199.3 13.2 199 12.8 198.7 C 12.3 198.3 12 197.8 11.6 197.4 C 11.2 197.1 10.9 196.9 10.4 196.6 C 9 195.9 7.4 195.1 6 194.5 C 5.4 194.3 4.3 193.8 3.8 193.5 C 3.1 193 3.4 192.4 2.9 191.9 " id="ShoeTrimLeft_1_" fill="#A9D7AA" stroke-width="1"/>
        <path d="M 19 187.5 C 20.3 188.3 21.1 189.3 22.1 190.4 C 22.8 191.2 23.5 191.9 24.4 192.4 C 25.2 192.8 26.3 192.9 27.2 193.1 C 28.4 193.4 29.2 194 29.5 195.2 C 29.8 196.4 28.7 197.2 27.9 197.8 C 25.5 199.5 22.6 200.2 19.7 200.5 C 18.2 200.7 16.6 200.7 15.3 199.9 C 14.5 199.5 13.9 198.6 13.3 197.9 C 11.8 196.3 9.7 195.4 7.7 194.5 C 6.3 193.8 4.5 193.6 3.7 192.2 C 3.3 191.4 3.4 190.3 3.4 189.5 C 3.4 188.9 3.5 188.3 3.5 187.8 C 3.5 187.5 4.6 186.4 3.7 186.9 C 3.4 187.1 3.9 187.1 4 187 C 4.1 187 4.1 186.9 4.2 186.9 C 4.5 186.7 4 186.7 3.9 186.8 C 2.5 187.5 2.8 189.3 2.8 190.6 C 2.9 193 4.1 193.7 6.2 194.4 C 8.6 195.3 11.2 196.7 13 198.5 C 13.8 199.3 14.4 200.1 15.5 200.5 C 16.7 201 18.1 200.8 19.4 200.7 C 21.8 200.5 24.2 199.9 26.4 198.9 C 27.8 198.2 30 197.1 30.1 195.4 C 30.3 192.5 25.9 192.8 24.3 191.7 C 22.5 190.5 21.6 188.4 19.6 187.2 C 19.4 187.2 19 187.5 19 187.5 Z M 27.1 193.1 C 28.5 196.1 21 197.5 19.2 197.7 C 17.6 197.9 16 197.8 14.5 197.1 C 13.3 196.5 12.3 195.6 11.2 195 C 8.8 193.6 6.1 192.7 3.5 191.7 C 3.4 191.6 2.9 191.9 3.1 191.9 C 6.4 193.3 9.8 194.4 12.7 196.5 C 15.2 198.2 17.6 198.3 20.5 197.8 C 22.3 197.5 29 195.9 27.6 193 C 27.6 192.8 27 193 27.1 193.1 Z M 12.5 190 C 12.2 189.2 11.7 188.5 11.2 187.7 C 10.8 187.1 10.4 186.8 11.2 186.4 C 11.9 186.1 12.6 185.8 13.3 185.5 C 14.5 185.1 15.9 184.9 17.2 184.8 C 18.8 184.7 19.3 187.2 18.5 188.3 C 18.3 188.6 18.8 188.7 19 188.5 C 19.7 187.5 19.6 184.7 18 184.5 C 15.4 184.2 12.5 185.4 10.2 186.6 C 10.1 186.7 10 186.8 10.1 186.9 C 10.8 188 11.6 189 12.1 190.2 C 12.1 190.4 12.6 190.2 12.5 190 Z M 18.7 188.1 C 17.3 189.8 14.5 190.1 12.5 189.9 C 12.3 189.9 11.9 190.2 12.2 190.2 C 14.5 190.4 17.7 190 19.3 188.1 C 19.3 188 18.8 188 18.7 188.1 Z M 21.6 189.7 C 20.5 189.8 19.4 190.3 18.4 190.7 C 17.5 191 16.6 191.5 16.2 192.4 C 15.9 193 17 193 17.2 192.5 C 17.5 191.9 18.2 191.6 18.8 191.3 C 19.7 191 20.5 190.5 21.4 190.4 C 22.1 190.5 22.3 189.7 21.6 189.7 Z M 20.8 188.6 C 19.6 188.7 18.5 189.2 17.4 189.6 C 16.5 189.9 15.6 190.4 15.2 191.3 C 15.1 191.6 16.1 191.4 16.3 191.1 C 16.6 190.5 17.2 190.2 17.9 189.9 C 18.7 189.6 19.5 189.1 20.4 189.1 C 20.7 189.1 21.5 188.5 20.8 188.6 Z M 22.8 191 C 21.6 191.1 20.5 191.6 19.4 192.1 C 18.6 192.4 17.7 192.9 17.4 193.7 C 17.3 194 18.3 193.9 18.5 193.6 C 18.8 192.9 19.6 192.6 20.3 192.4 C 21.1 192.1 21.9 191.7 22.8 191.6 C 23.2 191.5 23.6 190.9 22.8 191 Z " id="linesShoeLeft_1_" fill="#1D241C" fill-rule="nonzero" stroke-width="1"/>
      </g>
      <g id="Group">
        <path d="M 48.8 172.1 C 48.7 172.6 48.7 172.7 48.6 172.9 C 48.4 173.4 49 173.9 48.9 174.4 C 48.7 175.4 49.1 177.9 48.5 178.3 C 47 179.4 45.1 180.5 42.7 180.9 C 42.2 181 41.6 181.1 41.1 181.3 C 40.5 181.5 39.8 181.5 39.2 181.5 C 38.7 181.5 38.7 181.6 38.2 181.5 C 37.7 181.4 38.1 181.3 37.5 181.4 C 36.9 181.3 37.7 181.5 36.6 181.3 C 35.9 181.2 34.5 180.6 35.3 180.6 C 34.1 180.4 31.3 179 31.7 178.1 C 31.8 177.7 33.3 176.4 32.1 174.2 C 31.7 173.5 31.7 172.2 32.4 171.5 C 33.2 170.8 32.7 171.1 32.7 170 C 32.7 168.9 31.3 166.9 31.4 165.8 C 31.6 164.6 31.6 165.1 32.2 163.8 C 32.5 163.1 33.4 160.7 32.7 159.6 C 32 158.5 32.3 156.5 31.9 155.3 C 30.9 152.7 31.3 149.5 31.2 146.7 C 31.1 144.3 31.5 142.1 32.2 139.8 C 32.4 139 32.7 138.2 32.9 137.3 C 33.2 136.4 33.5 135.6 33.6 134.6 C 33.8 132.1 33.9 129.8 33.5 127.3 C 33.3 126.4 32.9 125.5 32.8 124.6 C 32.6 123.6 32.5 122.6 32.4 121.6 C 32.4 120.7 32.3 119.6 31.8 118.8 C 30.8 119.6 30.8 121.9 30 123 C 29.2 124.1 28.6 125.3 28 126.5 C 26.9 128.6 25.9 130.8 24.7 132.9 C 24 134.3 24.7 137.4 24.8 138.3 C 24.9 139 24.6 139.4 24.4 140.1 C 24.3 140.8 24.2 141.6 23.7 142.1 C 23.3 142.5 23.3 142.9 23.3 143.5 C 23.1 144.9 22.9 145.6 22.7 147 C 22.4 148.6 22.2 150.3 21.8 151.8 C 21.4 153.2 20.9 155.1 20.7 156.5 C 20.5 157.9 20 159.4 19.9 162.2 C 19.8 164.1 19.4 164.2 19.4 166.1 C 19.4 166.8 19.1 166.9 19.1 167.6 C 19.1 168.5 19 167.7 18.9 168.3 C 19.2 169.4 18.7 170.4 18.6 171.5 C 18.5 172.6 18.6 171.7 18.4 172.7 C 18.5 173.5 18.7 174.6 18.7 175.2 C 17.5 177.4 19 176.9 19.5 177.3 C 18.7 179.5 19.2 179.4 17.9 181.4 C 17.4 182.9 18.5 183.9 17.7 184 C 15.8 184.3 12.9 184.7 11.3 185.6 C 10.2 186.3 11.4 187.4 10 187.4 C 9.4 187.4 8 187.8 7.5 187.6 C 6.5 187.2 7 187.5 5.8 187 C 4.5 186.4 3.2 185.8 3.8 186 C 5.2 186.7 2.7 185.9 2.3 185 C 1.9 184.1 1.8 179 2.1 177.6 C 2.2 177 3 176 2.8 175.4 C 2.7 175.1 2.5 174.1 2.7 173.7 C 3 173.2 2.2 173.3 2.6 172.7 C 2.9 172.2 2.7 171.6 2.8 171 C 2.9 170.5 2.4 169.5 2.6 169 C 2.8 168.5 2.6 167.9 2.6 167.3 C 2.7 166.3 3.1 165.2 3.3 164 C 3.8 161.5 4.9 159.2 5.3 156.5 C 5.8 154.1 6 151.4 6.4 149.1 C 6.8 147 6.8 145.1 7.6 143 C 8 142 7.9 140.4 8.4 139.4 C 8.8 138.5 10.1 135.3 10 136.3 C 10 136.4 12.2 132.9 11.7 133.6 C 11.3 134.3 12.1 131 12.4 129.5 C 12.6 128.1 12.7 126.6 13 125.3 C 13.3 124.2 13.3 123 13.5 121.8 C 13.9 119.4 14.5 117.1 14.6 114.7 C 14.7 111.9 15.2 109.4 15.1 106.6 C 15.1 105.3 16 97.5 16 97.5 C 20 98.7 24.7 97.8 28.8 97.2 C 32.6 96.6 36.2 96.4 39.9 95.1 C 42.4 94.2 44.6 92.7 47.1 92.1 C 47.3 92.4 47.4 92.1 47.5 92.5 C 47.7 92.9 48 93.5 48.1 94 C 48.3 95 48.6 96.2 48.7 97.2 C 49 99.2 49 100.9 49.1 103 C 49.2 105.4 49.4 107.8 49.2 110.1 C 49 112.4 49.2 114.8 48.5 117 C 48.2 118.1 48 119.1 47.8 120.3 C 47.6 121.3 47.4 122.5 47.1 123.5 C 46.8 124.5 46.1 125.7 46 126.6 C 45.9 127.6 46.1 129.1 45.4 129.9 C 44.9 130.5 45.1 130.7 45 131.5 C 44.9 132.2 44.6 132.7 44.6 133.4 C 44.6 133.9 45.1 135 45.1 135.3 C 45.2 135.9 45.2 136 45.1 136.7 C 45 138.1 44.2 139.1 43.7 140.3 C 43.3 141.3 43.9 142.4 43.7 143.5 C 43.3 145.7 44.1 148 44.3 150.2 C 44.7 154.9 45.6 160.6 45.9 163 C 46.1 164.4 46.3 163.7 46.6 165.2 C 47 167.2 47.4 167.3 48.4 167.5 C 48.6 167.5 48.2 169.3 48.6 169.4 C 48.6 169.4 48.9 169.6 49.2 170.6 C 49.5 171.5 49.8 170.8 49.2 171.5 " id="Pants_1_" fill="#536AA4" stroke-width="1"/>
        <path d="M 33.1 107.2 C 33.3 106.9 40.6 104 40.6 104.1 C 40.5 104 33.4 107.3 33.3 107.6 C 33.1 107.7 32.8 107.7 32.8 107.6 C 32.7 107.5 32.9 107.3 33.1 107.2 Z M 46.7 92.7 C 48 95.4 48.2 98.4 48.4 101.3 C 48.6 105 48.8 108.7 48.6 112.4 C 48.4 116 47.8 119.6 46.8 123.1 C 45.9 126.6 45 130.1 43.7 133.5 C 43.6 133.7 44.2 133.6 44.2 133.4 C 45.5 130 46.3 126.5 47.3 123 C 48.3 119.3 48.9 115.5 49.1 111.7 C 49.3 108.3 49 104.9 48.9 101.5 C 48.8 98.4 48.5 95.2 47.2 92.4 C 47.2 92.3 46.7 92.5 46.7 92.7 Z M 36.1 106.1 C 34.8 111.2 32.9 116.1 30.8 120.9 C 28.6 125.8 25.6 130.3 23.8 135.3 C 23.7 135.5 24.3 135.4 24.3 135.2 C 26.1 130.3 29 125.9 31.1 121.2 C 33.3 116.3 35.2 111.2 36.6 106 C 36.6 105.8 36.1 105.9 36.1 106.1 Z M 15.7 98.1 C 15.2 101 14.9 104 14.7 106.9 C 14.5 110.1 14.6 113.2 14.3 116.4 C 14 119.7 13.1 122.8 12.5 126 C 12.1 128.6 11.9 131.3 11.3 133.9 C 11.3 134 11.8 133.9 11.8 133.8 C 12.4 131.3 12.6 128.8 12.9 126.3 C 13.3 123.3 14.2 120.4 14.6 117.3 C 15 114.3 15.1 111.3 15.1 108.2 C 15.1 104.7 15.5 101.3 16.1 97.9 C 16.3 97.9 15.7 98 15.7 98.1 Z M 43.2 140.5 C 43.3 140.4 43 140.5 44 138.8 C 45.4 137.1 44.2 134.7 44.3 133.2 C 44.4 132.5 44.4 132.7 44.4 133.4 C 44.4 134.2 44.9 135.3 45.1 136.8 C 45.2 140 42.2 142.3 42.2 142.4 C 41 143.4 42.1 142.5 41.9 142.2 C 42.3 141.8 43 140.7 43.2 140.5 Z M 43.4 141.3 C 42.5 147 44 151.5 44.6 157.2 C 44.9 160.7 45.5 164.5 46.6 167.9 C 46.7 168.1 47.2 167.9 47.1 167.8 C 46 164.4 45.6 160.8 45.2 157.3 C 44.6 151.6 43.3 146 44.2 140.4 C 44.1 140.5 44 140.8 43.8 140.9 L 43.4 141.3 Z M 33.6 139.4 C 33.4 135.8 34 132.2 33.8 128.6 C 33.5 125.2 32.5 121.8 32.3 118.4 C 32.3 118.3 31.7 118.4 31.8 118.5 C 32 121.9 33 125.3 33.3 128.7 C 33.6 132.3 32.9 135.9 33.1 139.5 C 33.1 139.6 33.6 139.5 33.6 139.4 Z M 33.2 134.4 C 33.1 137 31.8 139.4 31.5 141.9 C 31.2 144.8 31.2 147.7 31.3 150.6 C 31.4 153.4 31.5 156.1 32.3 158.8 C 32.7 160.2 34.1 162 33.8 163.5 C 33.8 163.6 34.3 163.5 34.3 163.4 C 34.6 162.1 33.5 160.4 33.1 159.2 C 32.1 156.8 32 154 32 151.5 C 31.9 148.4 31.8 145.3 32.1 142.2 C 32.4 139.4 33.7 136.9 33.9 134.1 C 33.7 134.2 33.2 134.2 33.2 134.4 Z M 15.8 146.3 C 15.7 146.4 14.2 145.3 13.9 143.8 C 13.4 142.3 13.7 140.9 13.7 140.9 C 13.7 140.9 13.6 142.4 14.2 143.7 C 14.7 145.1 16 145.8 16.1 145.8 C 16.3 145.9 16.3 146.1 16.3 146.2 C 16.3 146.3 16 146.4 15.8 146.3 Z M 21.6 145 C 21.6 144.9 22 144.1 22.7 143.2 C 23.4 142.2 24.3 141 24.5 139.5 C 24.6 138 24.1 136.5 24 135.4 C 23.8 134.3 24 133.5 24 133.5 C 24 133.5 23.9 134.3 24.1 135.4 C 24.3 136.5 24.9 137.9 24.8 139.5 C 24.7 141.1 23.8 142.5 23.1 143.4 C 22.5 144.4 22.1 145.1 22.1 145.2 C 21.9 145.6 21.7 145.8 21.5 145.8 C 21.4 145.8 21.4 145.4 21.6 145 Z M 10.9 187.6 C 9.8 187.8 8.8 188.1 7.7 188 C 6.4 187.9 5.2 187.2 4.1 186.6 C 3.9 186.5 3.5 186.8 3.8 187 C 5 187.6 6.2 188.2 7.5 188.4 C 8.6 188.6 9.9 188.3 11 188 C 11.4 187.9 11.2 187.5 10.9 187.6 Z M 18.1 184.6 C 18 183.3 17.9 182.2 18.5 181 C 18.9 180.3 19.3 179.7 19.5 178.9 C 19.8 178 19.6 177.3 18.5 177.2 C 17.3 177.1 16.1 178.5 15 178.7 C 12.7 179.1 10.2 178.9 7.8 178.4 C 7.6 178.4 7.2 178.7 7.5 178.7 C 9.1 179 10.7 179.2 12.3 179.2 C 13.6 179.2 15.1 179.2 16.2 178.6 C 16.9 178.2 17.9 177.3 18.7 177.7 C 19.7 178.1 18.6 179.8 18.3 180.3 C 17.4 181.8 17.4 183 17.5 184.7 C 17.5 184.9 18.1 184.8 18.1 184.6 Z M 9.8 184.1 C 10 184.1 13 183.8 15.5 182.3 C 18.2 180.9 19.2 177.9 19.1 178 C 19.2 178 18.3 181 15.6 182.6 C 13.1 184.3 10 184.7 9.8 184.8 C 9.4 184.8 9.1 184.7 9 184.6 C 9.1 184.3 9.4 184.2 9.8 184.1 Z M 4.8 183.4 C 4.8 183.4 5.1 183.3 5.5 183.1 C 5.7 183 5.9 182.9 6.1 182.7 C 6.2 182.7 6.4 182.2 6.3 182.7 L 5.9 182.5 C 4.9 182 3.9 181.4 3.9 181.5 C 3.9 181.5 4.9 181.9 6 182.3 L 6.4 182.4 C 6.7 183 6.3 182.8 6.3 183 C 6.1 183.2 5.9 183.4 5.7 183.5 C 5.3 183.8 5 183.9 5 183.9 C 4.8 184 4.7 183.9 4.6 183.7 C 4.6 183.6 4.7 183.4 4.8 183.4 Z M 23.4 142.6 L 19.9 158 L 18.1 174 L 23.4 142.6 Z M 4.1 177.3 C 2.3 177.5 1.1 178.1 1.2 180.1 C 1.3 181.5 1.4 182.9 1.4 184.4 C 1.4 186 2.8 186.5 4 187.2 C 4.1 187.3 4.6 187.1 4.5 187 C 3.6 186.5 2.5 186.1 2 185.1 C 1.6 184.4 1.9 183.1 1.9 182.4 C 1.9 180.1 0.8 178 3.9 177.6 C 4.3 177.6 4.5 177.3 4.1 177.3 Z M 2.4 178 C 3.3 175.2 2.8 172.2 2.9 169.4 C 2.9 167.7 3.3 166 3.6 164.4 C 3.9 162.3 5.1 160.5 5.5 158.5 C 7 150.4 6.8 140.9 11.9 134 C 12.1 133.8 11.5 133.8 11.4 134 C 9 137.2 7.9 141 7.1 144.8 C 6.7 146.8 6.4 148.8 6.1 150.7 C 5.7 153.2 5.2 155.6 5 158.1 C 4.8 160.2 3.7 162 3.1 164 C 2.7 165.6 2.4 167.5 2.3 169.2 C 2.1 172.2 2.7 175.3 1.8 178.2 C 1.8 178.3 2.3 178.2 2.4 178 Z M 48.5 176.7 C 50.1 179.1 43.9 180.6 42.4 181 C 38.6 182.1 34.6 181.1 31.9 178.3 C 31.8 178.2 31.3 178.4 31.4 178.5 C 34.3 181.6 38.5 182.2 42.5 181.2 C 44 180.8 50.8 179.2 49.1 176.5 C 49 176.4 48.5 176.6 48.5 176.7 Z M 31.9 178.4 C 32.6 177.6 33 177.2 32.9 176.1 C 32.9 175.4 32.7 174.8 32.4 174.2 C 32.1 173.7 31.6 172.2 32.6 171.9 C 32.9 171.8 32.9 171.5 32.5 171.6 C 31.7 171.8 31.4 172.6 31.5 173.4 C 31.5 174.1 32.2 174.8 32.4 175.6 C 32.7 176.7 32.3 177.6 31.5 178.4 C 31.2 178.5 31.8 178.5 31.9 178.4 Z M 47.7 169.3 C 44.7 170.9 41.4 171.4 38 171.5 C 36.5 171.6 35 171.5 33.6 171.5 C 33 171.5 32.5 171.5 31.9 171.8 C 31.6 172 32.1 172 32.2 171.9 C 32.8 171.6 33.6 171.7 34.3 171.7 C 35.1 171.7 36 171.7 36.8 171.7 C 38.1 171.7 39.5 171.6 40.8 171.5 C 43.3 171.2 45.7 170.5 48 169.3 C 48.4 169.2 47.9 169.2 47.7 169.3 Z M 47.6 169.3 C 48 170.2 49.3 171.5 48.5 172.4 C 47.8 173.1 48.5 173.5 48.4 174.3 C 48.4 174.6 48.9 174.5 49 174.3 C 49 173.8 48.6 173.2 48.9 172.7 C 49.1 172.5 49.3 172.3 49.4 172 C 49.5 170.9 48.6 170.1 48.2 169.2 C 48.1 168.9 47.5 169 47.6 169.3 Z M 32.4 159.5 C 33.1 160.8 32.9 162.3 32.4 163.7 C 32.1 164.6 31.4 165 31.3 165.9 C 31.1 167.8 32.6 169.7 32.3 171.6 C 32.3 171.9 32.8 171.8 32.9 171.6 C 33.2 169.6 31.7 167.7 31.9 165.7 C 32 164.8 33 164 33.3 163.1 C 33.6 161.9 33.6 160.6 33.1 159.4 C 32.8 159.1 32.3 159.2 32.4 159.5 Z M 46.6 167.9 C 47 168.1 47.4 168 47.7 168.1 C 48.2 168.3 47.5 169.2 47.4 169.4 C 47.3 169.6 47.9 169.5 47.9 169.3 C 48.1 168.8 48.6 168.3 48.2 167.9 C 47.9 167.6 47.3 167.8 46.9 167.6 C 46.9 167.6 46.4 167.8 46.6 167.9 Z M 48.6 173 C 48.6 173.4 46.3 174.6 43.9 175 C 41.5 175.7 39.1 175.3 39.2 175.2 C 39.2 175.4 41.6 175.6 43.8 174.8 C 46.2 174.2 48.2 172.9 48.1 172.7 C 48.3 172.5 48.5 172.3 48.6 172.4 C 48.9 172.3 48.9 172.7 48.6 173 Z M 17.9 173.6 C 17.8 174.2 18 174.7 18.2 175.3 C 18.4 176.1 18 176.7 17.6 177.3 C 17.5 177.5 18 177.5 18.1 177.3 C 18.4 176.8 18.8 176.4 18.8 175.8 C 18.8 175 18.3 174.3 18.4 173.5 C 18.5 173.3 17.9 173.4 17.9 173.6 Z M 49.1 176.6 C 48.4 175.9 49 175.1 49 174.2 C 49 174.1 48.5 174.2 48.5 174.3 C 48.5 175.2 48 176 48.6 176.7 C 48.7 176.9 49.2 176.7 49.1 176.6 Z " id="linesPants_1_" fill="#1D241C" fill-rule="nonzero" stroke-width="1"/>
      </g>
      <g id="ID0.7791623175144196">
        <path d="M19.2,13.7 C19.1,13.8 18.4,13.4 18.4,13.5 C19.1,13.6 19.5,13.6 20.2,13.8 C20.2,13.9 20.7,13.6 20.7,13.6 C22.2,13.8 23.7,13.2 25.2,13.1 C26.6,13 28,12.5 29.4,12.2 C31.9,11.7 35.8,11.2 37.2,13.4 C37.7,14.1 38,14.9 38.6,15.8 C39.4,17.2 38.8,17.3 39,18.8 C39,19.1 39.3,20.3 39.3,20.6 C39.2,21.1 39.7,21.2 39.5,21.6 C39.3,22 39.4,22.7 39.6,23.1 C39.8,23.6 40,24.4 40.3,24.8 C40.6,25.3 40.9,25.8 41.1,26.3 C41.8,28.1 42.2,30.1 40.9,31.8 C40.6,32.2 40.3,32.8 40.1,33.3 C39.9,33.8 39.5,34.2 39.2,34.6 C38.5,35.5 37.9,36.2 37.1,37 C36.3,37.8 36.1,38.4 35,38.9 C34.5,39.2 33.8,39.7 33.3,40 C32.9,40.3 32.3,40.5 31.9,40.7 C31.6,40.9 31.2,40.7 31,41 C30.8,41.3 31.1,42.6 31.1,42.9 C31.1,43.8 31.4,44.7 31.6,45.5 C32.3,45.5 34.2,45.8 34.9,45.8 C35.3,45.8 35.2,47.1 35.3,47.5 C35.5,48 35.6,48.5 35.6,49.1 C35.6,51 35,52.9 33.6,54.3 C32,55.8 29.3,55.8 27.3,55.1 C26.1,54.7 24.9,54.1 23.9,53.3 C23.4,52.9 23,52.5 22.5,52.2 C21.6,51.8 22,51.7 22,51.1 C22,50.3 22.2,49.7 21.9,49 C21.6,48.4 21.5,47.9 21.2,47.3 C20.7,46.1 19.3,45.6 18.5,44.6 C20.8,44.4 22,46.1 23.8,46.9 C23.4,46.2 23.1,45.7 22.5,45.1 C22,44.9 21.5,44.3 21.2,43.5 C21.6,43.3 21.7,42.8 21.9,42.4 C22.1,41.9 22.1,41.4 22.2,40.9 C22.5,39.9 22.7,38.5 22.7,37.4 C22.7,37.5 22.9,37.7 22.9,37.8 C23,37.6 22.9,37.7 22.9,37.5 C22,37.1 20.2,36.1 19.4,35.4 C18.7,34.7 17.3,34 16.9,33.1 C16.4,33.2 16.6,33.3 16,33.3 C15.4,33.3 14.8,33.5 14.3,33.2 C13.5,32.6 12.1,32 11.6,31.1 C11.1,30.2 10.6,28.7 10.9,27.7 C11.1,27.2 11.1,26.7 11.7,26.4 C12,26.2 12.8,26.2 13.2,26.3 C13.6,26.5 14.1,27 14.3,27.3 C14.6,27.6 15.3,27.7 15.6,27.9 C16.4,28.3 16.9,28.4 17.8,28.4 C15.8,27 14.9,24 14.7,21.6 C14.6,20.5 14.8,19.5 15.3,18.6 C15.6,18.1 15.8,17.4 16.2,16.8 C16.5,16.2 16.8,15.9 17.1,15.5 C17.4,15.1 17.9,14.5 17.9,13.8 C17.6,11.2 17.7,13.8 18.6,13.2" id="Face_1_" fill="#DEB252" stroke-width="1"/>
        <path d="M6.1,59.8 C6.1,63 5.9,66.3 5.9,69.6 C5.9,70.6 5.7,71.2 5.5,72.1 C5.3,73 5.5,73.9 5.4,74.8 C5.2,76.3 4.8,77.8 4.6,79.3 C4.1,82.5 4.5,84.9 5,87.9 C5.3,89.7 5.9,92.3 6.3,94 C6.7,95.6 7.3,97.2 7.4,98.8 C7.6,101.7 6.7,104.7 5.4,107.2 C4.6,108.7 4.5,109.8 4.5,111.6 C4.5,112.4 4.5,113.2 4.5,113.9 C4.5,114.3 4.1,114.5 4.3,114.8 C4.4,114.9 4.9,114.9 5,115.1 C5.1,115.2 5.4,115.8 5.4,115.8 C6.2,116.2 7.8,117.4 8.9,117.5 C9.7,117.6 10.7,115.5 11.5,114.8 C11.9,115.2 11.8,117.2 13.7,117 C13.9,116.4 13,114.7 13.1,114 C13.1,113.3 13,112.8 13.1,112.1 C13.4,110.7 13.5,109.1 13.5,107.7 C13.5,106.4 13.6,104.5 13.4,103.2 C13.3,101.6 12.9,100.2 12.7,98.6 C12.4,95.4 13.2,93.4 13.4,90.2 C13.5,88.6 13.5,86.4 13.2,84.9 C12.8,83.3 12.2,81.8 12.2,80.1 C12.2,78.5 12.6,77.5 12.8,76 C13.1,74.2 13.7,71.9 13.7,70 C13.7,68.3 13.8,66.3 14.1,64.6 C14.3,63.8 14.6,63.1 13.9,62.5 C13.4,62 12.2,61.6 11.6,61.2 C9.9,60.1 7.7,59.7 5.7,59.7" id="SkinArmLeft_1_" fill="#DEB252" stroke-width="1"/>
        <path d="M42.8,61.8 C44,61 44.8,59.5 45.5,58.5 C45.9,60 46.1,61.4 46.3,62.9 C46.6,64.5 46.9,66 47.1,67.5 C47.4,68.9 47.4,70.7 47.9,72 C48.4,73.3 49.1,74.6 49.7,75.9 C50.4,77.3 51,78.3 51.2,79.9 C51.3,81.4 51.7,82.8 52,84.2 C52.5,87.3 51.8,90.1 51.8,93.2 C51.8,94 51.8,94.8 51.8,95.5 C51.8,96.3 51.9,97.2 51.9,98 C51.8,99.7 51.7,100.7 53,101.8 C54.1,102.7 54.8,104 55.4,105.3 C55.8,106.3 56.3,108.5 56,109.6 C55.7,110.4 55.3,110.8 55.2,111.7 C55.1,112.1 55.7,113.3 55.5,113.7 C54.9,114.5 54.1,113.5 53.8,113.1 C53.5,112.8 53.5,112.6 53.2,112.3 C52.7,111.9 53.2,111.8 52.3,112 C51.6,112.2 50.5,112.4 49.8,112.1 C49,111.8 49.2,111.2 49.1,110.3 C49,108.9 48.7,104.6 48.8,103.2 C48.9,101.4 49,101.8 48.9,99.7 C48.8,98.6 48.5,97.7 48.4,96.6 C48.4,95.6 48,94.8 47.8,94 C47.5,93.2 47.1,92.6 46.8,92.2 C47.9,91.8 49.3,91.8 49.4,90.4 C49.5,89.8 48.2,88.2 47.4,88.2 C47.4,87.4 46.9,86.7 46.7,86 C46.5,85.3 46.3,84.8 46,84.1 C45.4,82.8 44.8,81.6 44.3,80.2 C43.9,79 43.3,77.6 43.1,76.3 C43,75.5 43.1,74.8 42.8,74 C42.6,73.3 42.4,72.7 42.5,71.9 C42.7,70.2 41.9,68.2 41.6,66.4 C41.5,65.1 42.3,63.6 42.8,61.8" id="SkinArmRight_1_" fill="#DEB252" stroke-width="1"/>
        <path d="M5.9,62.7 C6.3,62.9 4.1,60.8 3,59.3 C4,57.7 4.4,56.5 5.2,54.8 C6.2,52.6 7.2,48.4 9.7,47.7 C11.7,47.1 14.5,46.1 16.4,47.4 C17.1,47.9 16.7,47.9 17.7,48.3 C18.4,48.6 19.6,49.6 20.1,50.2 C20,50.2 20.3,51.3 20.7,51.7 C22.1,52.2 22.5,52.8 23.8,53.5 C25,54.2 26.3,55.1 27.5,55.5 C30.3,56.5 33,55.5 33.9,54.2 C34.3,53.6 34.9,52 35.1,51.5 C35.3,50.9 35.3,48.5 35.1,47.7 C35,47.2 34.1,45.9 34.4,45.5 C34.7,45.1 33.4,45.3 33.9,45.3 C35.4,45.3 36.2,44.7 37.7,45 C39.1,45.3 40.7,45.6 41.6,46.5 C42.6,47.5 42.9,48.8 43.7,50 C44.3,51 44.2,51.8 44.8,52.4 C45.3,53.8 48,56.1 47.4,55.4 C46.9,54.8 47.5,54.8 47.1,55.5 C46.2,57.1 45.8,58.5 45,59.5 C45,59.7 43.9,61 44,61 C43.1,61.2 43.7,61.9 42.9,61.5 C43,62 42.6,63 42.7,63.5 C42.8,64.1 42.5,64.2 42.5,64.5 C42.3,65.2 42.1,66.7 42.4,67.7 C43,70.1 42.5,71.3 43.1,73.3 C43.5,74.7 43.1,75.6 43.5,76.9 C43.9,78.1 43.8,78.7 44.3,79.8 C45.3,82 46.5,84.3 47.1,86.7 C47.4,87.7 47.8,88.4 48.6,88.7 C50.8,89.8 49.5,92.6 48.1,94.1 C47,94.2 47.9,91.6 47.2,92.5 C46.4,93.6 43.3,96.1 42,96.7 C39.1,98 36.4,98.9 33.1,99.3 C29.5,99.8 25.7,99.7 22.4,99.5 C21.6,99.5 20.2,99 19.4,99 C18.7,99 16.6,98 16.1,97.5 C14.1,95.9 15.8,94.7 16.2,93.6 C16.6,92.5 17.1,92.4 16.6,91.9 C16.1,91.5 17.7,91.1 17.5,90.4 C17.4,89.7 17,89.9 17.1,89.1 C17.1,88.7 17.1,88.7 17.5,88.2 C17.9,87.7 17.7,88 18.2,87.4 C18.7,86.8 18.7,87.2 18.9,86.5 C19.1,86 19.2,85.9 19.3,85.3 C19.4,84.7 19.5,84.2 19.5,83.6 C19.6,82.9 19.7,81.9 19.7,81.2 C19.6,80 19.7,78.8 19.4,77.7 C18.8,75.5 17.9,74 16.9,71.2 C16.7,70.6 15.9,69.8 15.8,69.2 C15.6,68.7 15.9,68.8 15.4,68.4 C14.5,68.2 15.1,67.4 14.4,66.8 C14.1,66.5 14.7,67 14.6,65.4 C14.5,64.8 14.8,63.3 14.7,62.9 C13.9,61.5 11.4,60 10.2,60 C9.7,60 8.5,59.4 7.7,59.4 C6,59.4 6.1,59.3 6.1,59.3 C6,60.4 6.7,62.7 5.9,62.2 M31.2,44.9 C31.5,44.9 31.8,45.1 32,45.2 C32.2,45.3 32.4,45.3 32.6,45.4 C32.9,45.5 33.2,45.5 33.5,45.5 C33.7,45.5 33.9,45.4 34.1,45.5 C34.4,45.6 34.4,45.9 34.2,46 C33.9,46.1 33.4,46 33.1,46 C32.6,46 31.9,46 31.5,45.8 C31.2,45.6 31.1,45.3 31.1,45" id="Shirt_1_" fill="#2FA64A" fill-rule="nonzero" stroke-width="1"/>
        <path d="M20.1,24.1 C21.1,24 21.3,23.7 22.2,23.7 C22.7,23.7 23.6,23.6 24.1,23.7 C24.7,23.9 24.9,23.7 25.3,24 C25.6,24.2 26.1,24.6 26.4,24.9 C26.5,25 27,25.7 27.1,25.8 C27.4,26.3 26.7,26.6 26.6,26.6 C26.1,26.9 25.9,26.9 25.3,27.1 C24.8,27.3 23.7,27.8 23.1,27.7 C22.5,27.6 21,26.6 20.6,26 C20.4,25.8 19.8,24.6 20.2,24.4 M34.6,23.9 C34.6,23.7 34.8,23.8 34.9,23.7 C35,23.6 35.3,23.4 35.5,23.3 C35.7,23.1 36.2,22.9 36.6,22.8 C37.2,22.6 37.8,22.5 38.4,22.6 C39.1,22.6 39.1,22.6 39.4,23 C39.6,23.2 39.3,24.4 39.2,24.7 C39.1,25 39,25.3 38.8,25.6 C38.1,26.3 36.9,26.7 36.2,26.6 C35.8,26.6 34.3,26 34,25.9 C33.6,25.8 34.1,25.3 34.2,24.9 C34.3,24.7 34.3,24.5 34.5,24.4" id="EyeWhites_1_" fill="#FFFFFF" fill-rule="nonzero" stroke-width="1"/>
        <path d="M12,5.5 C12,4.6 11.9,4.2 12.7,3.7 C13.3,3.3 14,3.1 14.7,2.8 C16.2,2.1 17.8,1.9 19.4,1.5 C22.8,0.6 26.8,1 30.2,1.7 C33.6,2.4 37.3,4.4 39.7,7 C40.9,8.4 41.7,9.7 42.3,11.4 C42.9,13 43.8,14.3 44.1,16 C44.7,19.2 44.8,22.6 44.7,25.9 C44.6,27.6 44.4,28.8 43.8,30.4 C43.2,32 42.1,33.5 41,34.9 C40.6,35.7 41,36.3 41,37.4 C41,38.6 41.9,40 42.3,41.1 C42.6,42 43.3,42.5 43.6,43.5 C43.9,44.7 43,45.5 43,46.6 C43.1,45.6 41.8,44.3 40.9,44 C40.9,44.6 41.3,45.7 40.3,45.9 C39.8,46 38.6,45.2 38,45.2 C36.4,45 35,45.5 33.4,45.4 C31.1,45.1 30.9,45.6 30.6,43.3 C30.5,42.5 30.4,41.6 31,41.1 C31.5,40.7 32.5,40.6 33,40.3 C34.4,39.6 35.2,38.6 36.3,37.7 C37.4,36.7 38.3,35.2 39.2,34.1 C41.2,31.5 41.5,28.5 40.2,25.8 C39.9,25.1 39.5,24.5 39.3,23.8 C39.1,23.1 39.2,22.3 39.1,21.5 C38.9,19.9 38.8,18.5 38.6,16.9 C38.4,15.2 37.6,14 36.1,12.8 C35.1,11.9 33.1,11.8 31.8,11.8 C29.2,12.1 26.8,12.8 24.2,13.5 C21.8,14.2 17.6,13.8 17.5,12.9 C17.9,15.5 16.7,15.7 16.1,16.6 C15.7,17.2 15.6,17.8 15.2,18.5 C14.8,19.1 14.7,19.7 14.6,20.4 C14.3,22 14.5,23.1 14.9,24.6 C15.1,25.4 15.1,25.9 15.6,26.7 C15.9,27.1 17,28 17.1,28.5 C17.1,28.5 17.3,28.7 17.3,28.7 C16.6,28.7 15.8,28.4 15.2,28.2 C14.9,28.1 14.8,28 14.5,27.9 C14,27.7 13.7,27.6 13.4,27.3 C12.9,26.8 12.4,26.3 11.6,26.6 C10.8,26.9 10.8,27.9 10.7,28.5 C10.5,30 10.8,31.4 12,32.4 C12.6,32.8 13.1,33.2 13.8,33.4 C14.7,33.7 15.4,33.3 16.2,33.4 C16.3,33.4 16.5,33.3 16.7,33.3 C17,34.5 18.1,35 18.9,35.7 C19.6,36.3 21.5,37.1 21.8,37.9 C22,38.3 21.6,39.1 21.6,39.5 C21.6,40.1 21.5,41 21.5,41.6 C21.4,42.6 21.3,43.6 20.5,44.4 C21.6,45.1 23.3,46.6 22.8,47.1 C22.3,46.5 19.3,45.3 17.6,44.9 C19.6,45.6 21.4,48.3 21.5,50.3 C21.5,51.5 21.3,52.8 20.6,53.8 C20,54.8 18.8,55.6 18.8,56.8 C18.2,56.4 18.4,55.9 18,55.4 C17.5,54.7 17.1,54.2 16.4,53.8 C15.1,53 13.9,52.1 12.6,51.3 C10.5,49.9 7.2,48.5 6.3,46.1 C6.1,45.7 6.1,44.7 5.5,45.1 C5.2,45.3 4.7,46.3 4.7,46.6 C4.7,47.7 5.4,48.7 6.2,49.2 C4.5,49 4,47.8 2.9,46.6 C2,45.6 1.3,44.5 0.9,43.2 C0.5,41.9 0.6,40.6 0.9,39.2 C1.1,38.5 1.4,37.4 1.8,36.8 C2.4,36 2.5,34.9 2.9,34 C3.5,32.5 3.9,31.8 4.2,30.2 C4.4,29.4 4.5,28.3 4.7,27.5 C4.9,26.7 4.9,25.6 4.9,24.9 C5.2,21.8 5.3,18.4 5.2,15 C5.4,9.9 7.5,6 12,5.5" id="Hair_1_" fill="#613D27" stroke-width="1"/>
        <path d="M7.8,116.7 C7.5,116.7 7.1,116.5 6.9,116.2 C6.8,116.1 6.4,116.3 6.5,116.3 C6.8,116.6 7.2,116.8 7.6,116.8 C7.8,116.9 7.9,116.9 7.8,116.7 C8,116.7 7.9,116.7 7.8,116.7 Z M6.4,59.7 C6.4,59.7 6.4,59.7 6.4,59.7 C6.3,59.4 5.9,59.5 5.8,59.8 C5.6,60.7 5.8,61.7 5.8,62.5 C5.8,64.1 5.7,65.7 5.6,67.2 C5.3,71.6 4.9,76 4,80.4 C3.9,80.7 4.5,80.6 4.6,80.4 C5.4,76.2 5.8,72 6.1,67.7 C6.2,66.1 6.3,64.4 6.4,62.7 C6.4,61.8 6.2,60.7 6.4,59.7 C6.2,59.7 6,59.8 5.8,59.8 C5.8,59.8 5.8,59.8 5.8,59.8 C5.9,60.1 6.5,60 6.4,59.7 Z M14.6,63.2 C13.8,68.7 13.1,74.3 12.3,79.8 C12.3,80.1 12.8,80 12.9,79.8 C13.8,74.3 14.4,68.7 15.2,63.2 C15.1,62.9 14.6,63 14.6,63.2 Z M12.2,79.9 C12.3,81.5 12.7,83.1 13,84.7 C13.4,86.4 13.4,88.2 13.3,89.9 C13.1,92.9 12.6,95.9 12.7,99 C12.7,99.2 13.3,99.1 13.2,98.9 C13.1,95.7 13.6,92.6 13.8,89.5 C13.9,88 13.9,86.6 13.6,85.1 C13.3,83.3 12.8,81.6 12.7,79.8 C12.8,79.5 12.2,79.7 12.2,79.9 Z M4.1,80.5 C4.1,81.9 4.2,83.4 4.3,84.8 C4.4,86.8 5.1,88.8 5.6,90.8 C6,92 6.2,93.3 6.4,94.5 C6.6,96 7.1,97.4 7.4,98.9 C7.4,99.1 8,99 7.9,98.8 C7.7,97.4 7.2,96.1 7,94.8 C6.8,93.6 6.6,92.4 6.3,91.1 C5.8,89.3 5.2,87.5 4.9,85.6 C4.6,83.9 4.7,82.1 4.6,80.4 C4.6,80.2 4.1,80.3 4.1,80.5 Z M8.2,77.4 C8.7,78.3 9.3,78.9 10.4,79 C10.6,79 10.8,78.8 10.6,78.7 C9.6,78.6 9.1,78 8.6,77.2 C8.5,77.1 8.1,77.3 8.2,77.4 Z M12.9,98.6 C13.4,103.4 13.8,108.5 13,113.2 C13,113.4 13.4,113.3 13.4,113.2 C14.2,108.4 13.8,103.3 13.3,98.5 C13.3,98.3 12.9,98.4 12.9,98.6 Z M7.4,98.9 C7.4,100.1 7.2,101.3 7.1,102.5 C7.1,103.9 6.5,105 5.8,106.3 C5.2,107.5 4.6,108.6 4.2,109.9 C4.2,110.1 4.2,110.2 4.3,110.4 C4.4,111 4.4,111.7 4.4,112.4 C4.4,113.2 4.3,114.1 4.3,114.9 C4.3,115.1 4.7,115 4.7,114.9 C4.8,113.5 4.9,112.2 4.8,110.8 C4.7,109.1 5.6,107.5 6.4,106 C6.9,105 7.4,104.1 7.5,102.9 C7.6,101.5 7.7,100.2 7.8,98.8 C7.8,98.7 7.4,98.8 7.4,98.9 Z M13,113.2 C13.2,114.6 13.5,115.9 13.8,117.2 C13.9,117.2 13.9,117.1 14,117.1 C12.8,117.4 12.1,115.7 12.1,114.8 C12.1,114.7 11.7,114.8 11.7,114.9 C11.7,116.2 12.7,117.6 14.1,117.2 C14.1,117.2 14.3,117.1 14.3,117.1 C14,115.8 13.7,114.4 13.5,113.1 C13.4,113 13,113.1 13,113.2 Z M12.9,113.1 C11.8,114.7 10.4,116.1 9.1,117.6 C8.9,117.8 9.3,117.9 9.4,117.7 C10.6,116.2 12.1,114.8 13.2,113.2 C13.4,113 13,112.9 12.9,113.1 Z M10,112.9 C9.6,114.4 8.6,115.7 7.7,116.9 C7.7,116.9 8,116.9 8.1,116.8 C9,115.6 10,114.3 10.4,112.8 C10.4,112.8 10,112.8 10,112.9 Z M7.9,112.8 C7.9,113.4 7.6,114 7.4,114.6 C7.2,115.2 6.9,115.8 6.5,116.2 C6.3,116.4 6.7,116.5 6.8,116.3 C7.3,115.8 7.5,115.2 7.8,114.6 C8,114 8.3,113.4 8.3,112.7 C8.3,112.6 7.9,112.7 7.9,112.8 Z M7.4,117 C7.9,117.3 8.5,117.7 9.2,117.8 C9.3,117.8 9.7,117.6 9.4,117.6 C8.8,117.5 8.2,117.2 7.7,116.8 C7.6,116.7 7.2,116.8 7.4,117 Z M6.6,116.2 C5.8,115.8 5.6,115.6 5.9,114.7 C6.2,113.8 6.5,112.8 6.7,111.9 C6.7,111.7 6.3,111.7 6.3,111.9 C6.1,113.1 5.6,114.2 5.3,115.4 C5.2,116 5.9,116.3 6.4,116.5 C6.5,116.5 6.8,116.3 6.6,116.2 Z M4.3,115 C4.6,115.1 4.8,115.1 5.1,115.3 C5.2,115.3 5.3,115.3 5.4,115.3 C5.4,115.3 5.6,115.2 5.5,115.2 C5.2,115.1 5,115 4.7,114.9 C4.6,114.9 4.5,114.9 4.4,115 C4.3,114.9 4.2,115 4.3,115 Z" id="linesArmRight_1_" fill="#1D241C" fill-rule="nonzero" stroke-width="1"/>
        <path d="M45.5,58.3 C45.9,61.4 46.5,64.4 47,67.5 C47.4,69.6 47.4,71.8 48.4,73.8 C48.8,74.6 49.3,75.3 49.8,76.1 C50.4,77 50.7,78.1 51,79.1 C52.2,82.9 51.9,87 51.9,90.9 C51.9,94.2 51.8,97.5 51.7,100.8 C51.7,100.9 52.2,100.8 52.2,100.7 C52.3,97.5 52.3,94.4 52.4,91.2 C52.5,87.2 52.6,82.8 51.5,79 C51,77.2 50.1,75.7 49.1,74.1 C48,72.3 47.9,70 47.6,68 C47.1,64.7 46.3,61.5 45.9,58.2 C46,57.9 45.6,58 45.5,58.3 Z M48.8,100.6 C48.2,102.4 48.2,104.6 49.3,106.2 C50,107.1 50.9,107.7 51.7,108.5 C52.7,109.4 52.5,110.8 52.8,112.1 C52.9,112.3 53.4,112.1 53.3,112 C53,111 53.1,110 52.6,109.1 C52.2,108.2 51.2,107.7 50.5,107.1 C48.7,105.5 48.5,102.8 49.2,100.7 C49.4,100.3 48.9,100.4 48.8,100.6 Z M51.7,100.9 C53.3,102.1 54.3,103.7 55,105.5 C55.3,106.3 55.5,107.2 55.7,108.1 C55.8,108.7 55.8,109.3 55.8,109.8 C55.7,110.3 55.2,110.9 54.9,111.3 C54.8,111.5 55.3,111.5 55.4,111.3 C55.8,110.7 56.4,110.1 56.3,109.3 C56.3,108.2 56.1,107.1 55.7,106.1 C55.1,104 53.9,102 52.1,100.7 C52,100.5 51.5,100.7 51.7,100.9 Z M52.8,111.9 C51.6,112.4 50.3,112 49.1,111.8 C48.9,111.8 48.5,112.1 48.8,112.1 C50.2,112.3 51.7,112.7 53.1,112.1 C53.4,112 53.1,111.8 52.8,111.9 Z M52.9,109.9 C51.7,109.5 50,109.5 48.9,110.3 C48.6,110.5 49,110.7 49.3,110.6 C50.1,110 51.6,110 52.6,110.3 C52.8,110.3 53.2,110 52.9,109.9 Z M52.7,109.6 C52.4,109 51.4,109 50.9,109 C50.2,109 49.4,109.2 48.8,109.7 C48.7,109.8 49.2,109.8 49.3,109.7 C49.8,109.2 50.5,109.2 51.1,109.3 C51.4,109.3 52,109.5 52.1,109.8 C52.3,109.9 52.8,109.7 52.7,109.6 Z M52.6,110.9 C53,112 53.6,114.7 55.3,114.2 C55.9,114 55.8,113.5 55.7,113 C55.4,111.5 54.9,110.1 55,108.5 C55,108.3 54.5,108.4 54.5,108.6 C54.3,110.3 54.9,111.9 55.3,113.5 C55.5,114.5 54.5,113.6 54.3,113.3 C53.7,112.7 53.6,111.6 53.3,110.8 C53.1,110.6 52.5,110.7 52.6,110.9 Z" id="linesArmLeft_1_" fill="#1D241C" fill-rule="nonzero" stroke-width="1"/>
        <path d="M48.4,91.9 C47,91.9 46,93.4 45,94.2 C43.6,95.4 42.2,96.5 40.6,97.3 C37.7,98.7 34.3,99.1 31.2,99.4 C27.7,99.7 24.1,99.7 20.7,99.2 C19.3,99 17.9,98.6 16.7,98 C16.2,97.7 15.8,97.4 15.5,96.9 C14.9,96 16,94.7 16.5,94 C16.6,93.8 16.1,93.8 16,94 C15.2,95.3 14.2,96.3 15.4,97.6 C16.2,98.5 17.5,98.9 18.5,99.2 C21.9,100.2 25.6,100.1 29,100 C32.3,99.9 35.6,99.4 38.8,98.5 C40.3,98 41.7,97.3 43,96.4 C43.7,95.9 44.4,95.3 45.2,94.7 C45.9,94.1 47.3,92.3 48.3,92.4 C48.4,92.2 48.8,91.9 48.4,91.9 Z M47.9,88.3 C46.6,84.9 45.1,81.4 43.9,77.9 C42.8,74.4 43.2,70.5 42.2,66.9 C42.1,66.7 41.6,66.8 41.7,67 C42.6,70.5 42.4,74.2 43.3,77.8 C43.7,79.5 44.6,81.2 45.2,82.8 C45.9,84.7 46.6,86.5 47.3,88.4 C47.4,88.7 47.9,88.5 47.9,88.3 Z M34.3,45.8 C36,45.3 37.9,45.1 39.6,45.9 C39.8,46 40.3,45.7 40,45.6 C38.2,44.7 36.1,44.9 34.2,45.4 C33.9,45.6 33.9,45.9 34.3,45.8 Z M15.3,65.6 C15.3,65.6 16.1,65.6 16.4,64.6 C16.7,63.7 16.9,62.4 16.7,61.1 C16,58.5 13.4,57.3 13.5,57.3 C13.4,57.3 16.1,58.4 16.9,61 C17.2,62.3 17.1,63.7 16.8,64.7 C16.5,65.8 15.4,66 15.4,66 C15,66 14.7,65.8 14.8,65.7 C14.7,65.6 15,65.6 15.3,65.6 Z M48.1,94.2 C48.5,93.1 49.3,92 49.7,90.9 C50.2,89.6 48.6,88.8 47.7,88.2 C47,87.3 47,88.3 47.2,88.4 C48.2,89.1 49.6,89.7 49.1,91.1 C48.7,92.2 48,93.1 47.6,94.2 C47.5,94.4 48.1,94.4 48.1,94.2 Z M47.7,88.2 C47.8,88.5 46.2,90.4 46.3,90.4 C46.2,90.4 47.3,88.1 47.1,88.1 C47.1,88 47.3,88 47.4,88 C47.5,88 47.7,88.1 47.7,88.2 Z M34,45.7 C34.9,47.2 35.2,48.3 35.1,50.1 C35,51.7 34.5,53.4 33.3,54.6 C31.5,56.5 28.3,55.7 26.2,54.8 C24.6,54.1 23.1,53 21.7,52 C21.6,51.9 21.2,52.1 21.4,52.2 C24.3,54.4 29,57.5 32.8,55.3 C34.3,54.4 35,52.9 35.4,51.2 C35.9,49.1 35.6,47.4 34.5,45.5 C34.3,45.4 33.9,45.6 34,45.7 Z M47.2,55.7 C47.3,55.5 46.8,55.5 46.7,55.7 C46.2,56.7 45.7,57.8 45.1,58.8 C44.5,59.8 43.8,61.3 42.6,61.7 C42.7,62 42.6,62 42.8,61.9 C43.8,61.5 44.5,60.5 45.1,59.6 L47.2,55.7 Z M37.9,45.5 C39.3,45.7 40.7,46.1 41.6,47.2 C42.4,48.1 42.7,49.3 43.2,50.4 C43.6,51.4 44.2,52.2 44.8,53 C45.5,53.9 47,54.8 46.6,56.1 C46.5,56.3 47.1,56.2 47.1,56 C47.4,55 46.6,54.3 46,53.6 C44.9,52.5 44.1,51.3 43.5,49.8 C43,48.7 42.6,47.6 41.8,46.7 C41,45.7 39.3,45.4 38.1,45.2 C38,45.1 37.5,45.4 37.9,45.5 Z M14.5,67.4 C14.5,67.4 14.5,67.4 14.5,67.4 C14.3,67.3 13.8,67.4 14,67.6 C14.4,68.2 14.8,68.6 15.2,69.2 C16,70.3 16.5,71.8 17.1,73 C18.3,75.6 19.2,78.1 19.4,81 C19.5,82.5 19.3,84 18.9,85.4 C18.7,86.1 18.4,86.8 18.1,87.4 C17.8,87.9 17.3,88.2 17.1,88.7 C16.9,89.2 16.8,89.5 16.9,90.1 C17.1,90.9 17.5,91.3 16.6,91.7 C16.5,91.7 16.3,91.9 16.3,92 C16.1,92.9 16.7,93.4 15.8,94.2 C15.6,94.4 16.1,94.4 16.2,94.3 C16.5,94 16.7,93.8 16.9,93.5 C17.2,92.9 16.6,92.1 17.3,91.8 C18.2,91.5 17.8,90.7 17.5,90.1 C17,89 18.7,87.5 19.2,86.5 C19.8,85.2 20,83.6 20,82.2 C20.1,79 19.2,76.3 17.9,73.4 C17.3,72 16.7,70.6 15.9,69.3 C15.4,68.5 14.9,68 14.5,67.4 C14.3,67.4 14.1,67.5 14,67.6 C14,67.6 14,67.6 14,67.6 C14.1,67.7 14.6,67.5 14.5,67.4 Z M41.4,66.5 C41.3,66.4 41.4,65.5 41.8,64.5 C42.2,63.5 42.6,62.2 42.3,60.9 C41.6,58.2 39.4,56.4 39.7,56.2 C39.4,56.4 41.8,58.1 42.6,60.8 C43,62.2 42.7,63.7 42.3,64.7 C42,65.7 41.9,66.4 42,66.4 C42,66.7 42,67.1 41.8,67.1 C41.7,67.1 41.5,67 41.4,66.5 Z M31,45.1 C32.4,45.7 34.2,45.8 35.7,45.4 C36,45.3 35.9,44.9 35.6,45 C34.2,45.3 32.6,45.3 31.3,44.7 C31.1,44.7 30.7,45 31,45.1 Z M8.7,48.1 C7.1,48.8 6.6,51 5.9,52.4 C4.8,54.7 3.8,57 2.6,59.3 C2.5,59.4 3.1,59.4 3.1,59.2 C4,57.4 4.9,55.6 5.7,53.7 C6.1,52.7 6.6,51.8 7,50.9 C7.4,50.1 7.8,48.6 8.8,48.3 C9.3,48.1 8.9,48 8.7,48.1 Z M2.6,59.3 C3.1,60.8 4.4,61.9 5.6,62.8 C5.7,62.9 6.2,62.7 6.1,62.6 C4.9,61.7 3.7,60.6 3.2,59.1 C3.1,59.1 2.6,59.2 2.6,59.3 Z M14.6,63.3 C14.7,63.1 12.6,61.3 9.9,60.5 C7.3,59.5 4.6,59.9 4.6,59.9 C4.6,59.8 7.3,59.3 10,60.2 C12.7,60.9 15,62.6 15.1,63 C15.3,63.4 15.1,63.7 14.9,63.7 C15.1,63.5 14.8,63.6 14.6,63.3 Z" id="linesShirt_1_" fill="#1D241C" fill-rule="nonzero" stroke-width="1"/>
        <path d="M28.9,40.7 C29.6,40.9 30.4,41 31.2,41 C31.4,41 31.8,40.7 31.4,40.7 C30.7,40.7 30,40.6 29.3,40.4 C29,40.4 28.6,40.6 28.9,40.7 Z M31.1,41.4 C31,41.5 30.6,43.2 31.1,44.9 C31.5,46.6 32.2,48.2 32.2,48.2 C32.2,48.2 31.4,46.7 30.8,45 C30.1,43.3 30.3,41.4 30.5,41.3 C30.6,41.1 30.8,40.9 30.9,41 C31.1,40.9 31.1,41.2 31.1,41.4 Z M21.9,37.7 C22,40 21.6,42 20.6,44.1 C20.5,44.4 21,44.3 21.1,44.1 C22.1,42 22.5,40 22.4,37.6 C22.4,37.4 21.9,37.5 21.9,37.7 Z M38.8,23.3 C39.6,24.7 40.5,26 40.9,27.5 C41.5,29.5 40.7,31.6 39.7,33.3 C38.8,34.9 37.4,36.3 36.1,37.6 C34.8,38.9 33,40.4 31.2,40.8 C30.9,40.9 30.9,41.1 31.3,41.1 C34.7,40.3 37.8,36.8 39.8,34.1 C40.8,32.7 41.7,30.9 41.7,29.2 C41.7,26.9 40.5,25.1 39.4,23.2 C39.3,23 38.7,23.1 38.8,23.3 Z M16.5,33.4 C18,35.7 20.8,37.1 23.1,38.3 C25.5,39.5 28.4,41 31.1,41 C31.3,41 31.7,40.7 31.3,40.7 C28.5,40.6 25.6,39.1 23.1,37.9 C20.9,36.8 18.3,35.3 16.9,33.2 C16.9,33 16.4,33.2 16.5,33.4 Z M30.2,31.2 C30.2,31.1 31.2,31 31.2,31 C31.2,31 30.4,31.4 30.4,31.5 C30.4,31.5 30.3,31.5 30.3,31.4 C30.2,31.3 30.1,31.2 30.2,31.2 Z M34.5,30.4 C34.5,30.5 33.9,31.5 33,31.5 C32.1,31.5 31.4,31.1 31.4,31.1 C31.4,31 32.2,31.3 33,31.2 C33.8,31.1 34,30.2 34,30.3 C34,30.2 34.2,30.2 34.3,30.2 C34.4,30.1 34.5,30.2 34.5,30.4 Z M33.9,29.3 C32.9,29 31.9,29.3 30.9,29.7 C30.7,29.8 30.9,29.9 31,29.8 C31.9,29.4 32.8,29.2 33.7,29.4 C33.9,29.5 34.1,29.4 33.9,29.3 Z M16.9,31.8 C16.8,33.3 16,33.6 14.7,33.2 C13.9,32.9 13.1,32.5 12.4,32 C11.7,31.5 11.3,30.7 11.1,29.9 C10.8,28.8 11,26.2 12.9,26.8 C13,26.8 13.5,26.6 13.3,26.6 C12.4,26.3 11.2,26.4 10.8,27.4 C10.1,29 10.5,30.8 11.7,32 C13.2,33.6 17.4,35 17.6,31.7 C17.4,31.5 16.9,31.6 16.9,31.8 Z M13.1,31.4 C13.1,31.5 14.1,32.2 15.2,31.6 C15.7,31.4 16.3,31.1 16.7,31.2 C17.1,31.4 16.9,31.8 17,31.8 C16.9,31.8 17.1,31.4 16.7,31.2 C16.3,31.1 15.7,31.4 15.2,31.7 C14.1,32.4 12.8,31.7 12.8,31.6 C12.7,31.5 12.6,31.3 12.7,31.3 C12.9,31.2 13.1,31.3 13.1,31.4 Z M15.5,29.4 C15.4,29.5 14.4,28.4 13.2,28.1 C12.6,28 11.9,28.2 11.7,28.6 C11.4,29 11.6,29.4 11.6,29.3 C11.6,29.3 11.4,29 11.7,28.5 C12,28.1 12.6,27.8 13.3,27.9 C14.6,28.3 15.6,29.2 15.7,29.1 C15.8,29.2 15.9,29.3 15.9,29.4 C15.8,29.5 15.6,29.5 15.5,29.4 Z M39.4,23.2 C39.4,19.1 39.6,13.9 35.2,11.9 C35,11.8 34.6,12.1 34.9,12.3 C39.2,14.1 38.8,19.3 38.9,23.2 C38.8,23.5 39.4,23.5 39.4,23.2 Z M31.4,45.9 C32.5,46.1 33.3,46.4 34.4,46 C34.8,45.9 34.4,45.8 34.2,45.9 C33.4,46.2 32.6,45.9 31.8,45.7 C31.7,45.7 31.2,45.9 31.4,45.9 Z" id="linesHead_1_" fill="#1D241C" fill-rule="nonzero" stroke-width="1"/>
        <path d="M30.4,35.9 C30.4,36 31.3,36.3 32.3,36.1 C33.3,36 34,35.2 33.9,35.2 C34,35.3 33.4,36.1 32.4,36.3 C31.4,36.6 30.4,36.4 30.3,36.2 C30.2,36.1 30.1,36 30.2,36 C30.2,35.8 30.3,35.8 30.4,35.9 Z M35.1,33.8 C32.7,35.1 30.3,35 27.7,34.5 C27.6,34.5 27.1,34.7 27.4,34.8 C30.2,35.3 32.8,35.3 35.4,33.9 C35.8,33.7 35.3,33.7 35.1,33.8 Z" id="linesMouth_1_" fill="#1D241C" fill-rule="nonzero" stroke-width="1"/>
        <path d="M27.6,26 C26.4,23 22.2,23.3 19.7,24 C19.7,24 19.4,24.1 19.4,24.1 C19.7,25.9 21.2,27.9 23.2,27.7 C24.8,27.6 26.4,27 27.6,26 C27.7,26 27.2,26 27.1,26.1 C25.6,27.2 23.6,28 21.9,27 C20.8,26.4 20.2,25.2 20,24 C19.9,24.1 19.8,24.1 19.7,24.2 C22.1,23.6 25.9,23.5 27,26.2 C27.1,26.3 27.7,26.1 27.6,26 Z M33.8,25.6 C34.2,23.5 36.2,22.5 38.2,22.5 C38.5,22.5 38.8,22.6 39.1,22.7 C39.6,23 38.6,24.8 38.5,25 C37.5,26.7 35.2,26.3 33.8,25.6 C33.6,25.5 33.3,25.6 33.4,25.7 C34.7,26.4 36.5,26.7 37.8,26 C38.6,25.6 40.4,23 39.1,22.4 C36.8,21.4 33.7,23.3 33.3,25.6 C33.4,25.8 33.8,25.8 33.8,25.6 Z M22,23.7 C20.6,23.3 19.6,25.2 20.5,26.2 C20.6,26.3 20.9,26.1 20.9,26.1 C20.5,25.4 20.2,24.9 20.2,24.1 C20.1,24.1 19.9,24.2 19.8,24.2 C19.9,24.5 19.9,24.8 19.9,25 C19.9,25.1 20.3,25 20.3,24.9 C20.3,24.6 20.4,24.3 20.6,24 C20.5,24 20.3,24 20.2,24 C20.1,24.2 20,24.3 19.8,24.5 C19.9,24.5 20,24.5 20.2,24.5 C20.3,24.2 20.5,24 20.8,23.9 C20.7,23.9 20.6,23.9 20.5,23.9 C20.3,24 20.1,24.1 19.8,24.1 C19.8,24.1 19.9,24.2 19.9,24.2 C20,24.1 20.2,24.1 20.3,24 C20.3,24 20.2,23.9 20.2,23.9 C20.1,24 20,24 19.9,24.1 C19.7,24.2 20.1,24.2 20.2,24.1 C20.3,24.1 20.4,24 20.4,24 C20.6,23.9 20.4,23.9 20.3,23.9 C20,24 19.8,24.1 19.6,24.3 C19.5,24.4 19.7,24.4 19.7,24.4 C20.1,24.4 20.5,24.3 20.8,24 C21,23.9 20.6,23.9 20.5,24 C20.2,24.1 19.8,24.3 19.8,24.7 C19.8,24.8 20.1,24.7 20.2,24.7 C20.4,24.5 20.6,24.4 20.7,24.1 C20.7,24 20.4,24.1 20.3,24.1 C20,24.4 19.9,24.7 20,25 C20.1,25 20.3,24.9 20.4,24.9 C20.4,24.6 20.4,24.3 20.3,24.1 C20.3,24 19.9,24.1 19.9,24.2 C19.8,25 20.2,25.6 20.6,26.2 C20.7,26.2 20.9,26.1 21,26.1 C20.5,25.5 20.7,23.6 21.8,23.9 C21.7,23.9 22.1,23.7 22,23.7 Z M37.4,22.6 C38,22.5 38.5,22.8 38.9,23.2 C39,23.1 39.1,23.1 39.3,23 C38.9,22.7 38.5,22.5 37.9,22.4 C37.8,22.5 37.8,22.6 37.7,22.6 C38.2,22.6 38.5,22.9 38.8,23.2 C38.9,23.1 39,23.1 39.2,23 C39.2,23 39.1,22.9 39.1,22.9 C39,22.8 38.6,23 38.7,23.1 C39,23.5 39,23.9 39,24.3 C39,24.4 39.4,24.3 39.4,24.2 C39.5,23.9 39.5,23.6 39.4,23.2 C39.4,23.1 38.9,23.2 39,23.3 C39.1,23.6 39,23.9 39,24.2 C39.1,24.2 39.3,24.1 39.4,24.1 C39.4,23.6 39.4,23.2 39.1,22.8 C39,22.9 38.9,22.9 38.7,23 C38.7,23 38.8,23.1 38.8,23.1 C38.9,23.2 39.3,23 39.2,22.9 C38.8,22.5 38.4,22.3 37.9,22.3 C37.8,22.3 37.5,22.5 37.7,22.5 C38.2,22.6 38.6,22.8 39,23.1 C39.1,23.2 39.5,23 39.4,22.9 C38.8,22.4 38.2,22.1 37.5,22.3 C37.1,22.4 37.1,22.6 37.4,22.6 Z" id="linesEyes_1_" fill="#1D241C" fill-rule="nonzero" stroke-width="1"/>
        <path d="M23.3,24.1 C24,24.1 24.6,24.7 24.6,25.4 C24.6,26.1 24,26.7 23.3,26.7 C22.6,26.7 22,26.1 22,25.4 C22,24.6 22.6,24.1 23.3,24.1 Z M36.8,23.3 C37.4,23.3 37.9,23.8 37.9,24.4 C37.9,25 37.4,25.5 36.8,25.5 C36.2,25.5 35.7,25 35.7,24.4 C35.7,23.8 36.2,23.3 36.8,23.3 Z" id="linesIrises_1_" fill="#1D241C" fill-rule="nonzero" stroke-width="1"/>
        <path d="M19.4,22.1 C21.1,20.3 24.8,19.9 26.8,21.5 C26.9,21.6 27.4,21.4 27.3,21.3 C25,19.5 20.8,20.1 18.9,22.1 C18.7,22.3 19.3,22.2 19.4,22.1 Z M39.1,20.5 C37.5,19.4 35.1,19.5 33.8,21 C33.6,21.3 34.1,21.3 34.3,21.1 C35.3,19.7 37.4,19.8 38.7,20.7 C38.8,20.9 39.3,20.7 39.1,20.5 Z" id="linesEyebrows_1_" fill="#1D241C" fill-rule="nonzero" stroke-width="1"/>
        <path d="M1.8,37.5 C1.5,38.9 0.9,40.1 1,41.6 C1,42.8 1.5,44 2.1,45 C3,46.7 4.7,48.9 6.6,49.6 C6.7,49.6 7.1,49.5 6.9,49.4 C5.2,48.5 5,45.9 6.3,44.7 C6.2,44.7 6.1,44.7 5.9,44.7 C6.2,47.5 8.8,49.1 11.1,50.4 C14.3,52.2 17.1,53.9 19.1,57 C19.2,57.1 19.5,57 19.5,56.9 C19.5,55.6 20.7,54.6 21.3,53.5 C21.8,52.5 22.1,51.1 21.9,50 C21.6,47.6 19.9,45.7 17.8,44.6 C17.7,44.7 17.6,44.8 17.5,44.8 C18.6,45.2 19.7,45.4 20.7,45.9 C21.5,46.3 22.7,46.9 23.3,47.6 C23.4,47.7 23.8,47.6 23.7,47.5 C23.2,46.1 22.1,45.4 21.1,44.3 C20.6,43.8 20.3,43.2 19.9,42.6 C19.9,42.6 18.6,40.3 19.3,40.4 C19.5,40.4 19.7,40.2 19.4,40.1 C18.1,39.9 18.8,41.5 19.1,42.1 C19.5,42.9 20.1,43.7 20.7,44.4 C21.6,45.5 22.7,46.2 23.2,47.5 C23.3,47.5 23.5,47.4 23.6,47.4 C22.9,46.6 21.8,46.2 21,45.6 C20,45 18.8,44.8 17.7,44.5 C17.6,44.5 17.2,44.6 17.4,44.7 C19.7,45.9 21.5,48.1 21.4,50.8 C21.3,52.2 20.8,53.6 20,54.7 C19.5,55.4 19.1,56 19,56.9 C19.1,56.9 19.3,56.8 19.4,56.8 C17.7,54.1 15.3,52.2 12.5,50.7 C10,49.3 6.6,47.7 6.2,44.5 C6.2,44.3 5.9,44.4 5.8,44.5 C4.4,45.9 4.5,48.6 6.4,49.6 C6.5,49.5 6.6,49.4 6.7,49.4 C4.9,48.7 3.3,46.5 2.4,44.8 C1.7,43.7 1.4,42.4 1.3,41.1 C1.3,39.9 1.9,38.7 2.1,37.5 C2.3,37.3 1.9,37.4 1.8,37.5 Z M17.1,12.7 C17.3,13.2 17.4,13.7 17.4,14.2 C17.5,15 16.8,15.5 16.4,16.1 C15.5,17.5 14.8,19 14.5,20.6 C13.9,23.6 14.9,26.9 17.5,28.7 C17.6,28.6 17.7,28.6 17.8,28.5 C16,28.3 14,27.7 12.9,26 C12.8,25.9 12.4,26 12.5,26.1 C13.6,27.8 15.6,28.4 17.5,28.6 C17.5,28.6 17.9,28.5 17.8,28.4 C15,26.4 14.3,22.7 15.1,19.5 C15.5,17.9 16.4,16.3 17.4,15.1 C18.1,14.3 17.9,13.3 17.5,12.4 C17.5,12.5 17.1,12.6 17.1,12.7 Z M35.3,12 C32.8,11 29.6,12 27.1,12.5 C25.4,12.9 23.6,13.3 21.9,13.5 C20.4,13.7 18.6,13.7 17.6,12.5 C17.5,12.4 17,12.6 17.1,12.7 C18.8,14.7 22.4,13.7 24.5,13.3 C26.3,12.9 28.1,12.5 29.9,12.1 C31.5,11.8 33.3,11.5 34.8,12.2 C35,12.3 35.5,12.1 35.3,12 Z M8.4,7.3 C9.6,6.6 10.4,5.9 11.9,5.7 C12,5.7 12.2,5.6 12.2,5.5 C12.5,3.9 13.7,3.4 15.2,3 C16.5,2.6 17.8,2.2 19.1,1.9 C22.2,1.3 25.4,1.2 28.5,1.7 C33.6,2.4 38.2,5.1 40.9,9.5 C43.6,13.7 44.6,19 44.5,23.9 C44.4,27.5 43.7,32.4 40.6,34.8 C40.3,35 40.8,35.2 41,35 C44.6,32.2 45.1,26.5 45.1,22.4 C45,16.4 43.1,9.9 38.6,5.7 C34.1,1.5 27.5,0.6 21.6,1.2 C19.8,1.4 18,1.8 16.2,2.3 C15.1,2.7 14,2.9 13,3.5 C12.1,4 12.1,5.2 11.2,5.4 C10.1,5.7 9.2,6.4 8.2,7 C7.7,7.2 8.2,7.4 8.4,7.3 Z M2.3,37.5 C3.2,34.6 4.6,31.9 5.2,29 C5.5,27.6 5.5,26.1 5.6,24.6 C5.7,23.5 5.9,22.3 5.9,21.2 C6.3,16.3 4.5,11 8.4,7.1 C8.5,7 8,7 7.9,7.1 C4.3,10.7 5.5,15.4 5.4,20 C5.4,21.4 5.2,22.8 5,24.2 C4.8,25.6 4.8,27.1 4.6,28.5 C4.2,31.6 2.6,34.5 1.6,37.5 C1.7,37.7 2.3,37.6 2.3,37.5 Z M40.5,34.8 C40.4,36.7 40.6,38.5 41.5,40.3 C42,41.3 42.5,42.2 43,43.2 C43.6,44.6 43.4,45.6 42.6,46.9 C42.7,46.9 42.9,46.9 43,46.9 C42.8,45.4 42,44.5 40.9,43.5 C40.8,43.4 40.5,43.5 40.6,43.7 C41.2,44.7 40.8,45.4 40.3,46.2 C40.2,46.4 40.6,46.4 40.7,46.2 C41.3,45.2 41.5,44.5 41,43.5 C40.9,43.6 40.8,43.6 40.7,43.7 C41.7,44.6 42.5,45.5 42.7,46.9 C42.7,47.1 43,47 43.1,46.9 C44.2,45.1 43.9,43.7 43,41.9 C41.8,39.5 40.9,37.6 41.1,34.8 C40.9,34.5 40.5,34.6 40.5,34.8 Z" id="linesHair_1_" fill="#1D241C" fill-rule="nonzero" stroke-width="1"/>
        <path d="M23.1,24.2 C23.4,24.2 23.8,24.3 24,24.6 C24.2,24.8 24.4,25.1 24.4,25.5 C24.4,25.8 24.3,26.2 24,26.4 C23.7,26.6 23.5,26.8 23.1,26.8 C22.7,26.8 22.4,26.7 22.2,26.4 C22,26.1 21.8,25.9 21.8,25.5 C21.8,25.2 21.9,24.8 22.2,24.6 C22.5,24.3 22.8,24.2 23.1,24.2 Z" id="ID0.45358794555068016" stroke="#000000" fill="#4C2C03" stroke-width="1"/>
        <path d="M36.4,23.4 C36.7,23.4 37,23.5 37.3,23.8 C37.5,24 37.7,24.3 37.7,24.7 C37.7,25.1 37.6,25.3 37.3,25.6 C37,25.9 36.8,26 36.4,26 C36,26 35.8,25.9 35.5,25.6 C35.2,25.3 35.1,25.1 35.1,24.7 C35.1,24.3 35.2,24.1 35.5,23.8 C35.8,23.5 36.1,23.4 36.4,23.4 Z" id="ID0.45358794555068016_1_" stroke="#000000" fill="#4C2C03" stroke-width="1"/>
      </g>
    </g>
  </g>
</svg>