<?xml version="1.0" encoding="UTF-8" standalone="no"?>
<svg
   version="1.1"
   id="apple1"
   x="0px"
   y="0px"
   width="62.216"
   height="63.368214"
   viewBox="0 0 62.216001 63.368214"
   enable-background="new 0 0 62.218 63.375"
   xml:space="preserve"
   sodipodi:docname="apple.svg"
   xmlns:inkscape="http://www.inkscape.org/namespaces/inkscape"
   xmlns:sodipodi="http://sodipodi.sourceforge.net/DTD/sodipodi-0.dtd"
   xmlns="http://www.w3.org/2000/svg"
   xmlns:svg="http://www.w3.org/2000/svg"><defs
   id="defs16" /><sodipodi:namedview
   id="namedview14"
   pagecolor="#ffffff"
   bordercolor="#000000"
   borderopacity="0.25"
   inkscape:showpageshadow="2"
   inkscape:pageopacity="0.0"
   inkscape:pagecheckerboard="0"
   inkscape:deskcolor="#d1d1d1" />
  <g
   id="g11"
   transform="translate(0,-0.00678547)">
    <g
   id="Apple">
      <path
   id="Fill_1_"
   fill="#ec1c2c"
   d="m 59.083,34.402 c 0,14.527 -12.525,26.307 -27.978,26.307 -15.453,0 -27.977,-11.775 -27.977,-26.307 0,-14.527 12.523,-21.275 27.977,-21.275 15.452,-0.001 27.978,6.749 27.978,21.275 z" />
      <g
   id="Outline_1_">
        <path
   id="Outline_2_"
   fill="#231f20"
   d="M 34.285,11.96 C 29.677,11.569 25.149,12.149 25.149,12.149 10.821,13.473 0,19.883 0,34.121 0,50.277 13.928,63.375 31.107,63.375 48.289,63.375 62.216,50.277 62.216,34.121 62.216,18.977 49.969,12.69 34.285,11.96 Z M 31.108,59.333 C 16.549,59.333 4.751,48.234 4.751,34.548 4.751,22.484 13.92,16.115 26.065,14.774 26.314,14.745 34.521,14.63 34.521,14.63 47.463,15.566 57.47,21.948 57.47,34.55 57.464,48.236 45.666,59.333 31.108,59.333 Z" />
        <path
   id="Line"
   fill="#231f20"
   d="m 40.332,19.062 c -2.303,-0.761 -4.617,-0.241 -6.929,0.389 -1.916,0.608 -6.112,1.162 -6.19,1.098 -1.198,-0.058 -2.389,-0.358 -3.571,-1.099 -0.48,-0.303 -0.982,0.378 -0.598,0.773 1.768,1.803 4.068,1.782 6.455,1.514 3.575,-0.401 6.993,-0.491 10.561,-0.672 1.16,-0.061 1.373,-1.639 0.272,-2.003 z" />
      </g>
      <path
   id="Shine"
   fill="#ffffff"
   d="m 12.555,34.261 c 0,3.431 1.85,6.212 -0.084,6.212 -1.934,0 -3.5,-2.781 -3.5,-6.212 0,-3.43 1.566,-6.211 3.5,-6.211 1.934,0 0.084,2.782 0.084,6.211 z" />
    </g>
    <g
   id="Stem">
      <path
   id="Fill"
   fill="#99661d"
   d="m 29.515,20.766 c 0.371,-0.066 0.973,-0.13 1.348,-0.219 0.062,-4.827 0.538,-9.648 -1.624,-14.212 -0.592,-1.253 -1.33,-2.354 -2.064,-3.482 -1.02,0.611 -2.038,1.223 -3.059,1.833 4.194,4.296 5.657,9.932 5.399,16.08 z" />
      <path
   id="Outline"
   fill="#231f20"
   d="M 28.602,0.6 C 28.209,0.077 27.524,-0.182 26.944,0.165 25.139,1.249 23.337,2.333 21.53,3.417 20.893,3.8 20.692,4.788 21.288,5.315 c 3.477,3.091 4.617,6.041 4.9,6.557 0.592,1.081 1.592,4.534 1.562,7.749 l 0.046,1.609 c 1.479,0.562 5.25,-0.562 5.25,-0.562 0.021,-0.354 0.251,-2.23 0.251,-2.23 C 33.466,17.677 34.13,7.958 28.602,0.6 Z m 2.153,19.78 -1.109,0.141 v -1.152 c 0.05,-5.714 -1.568,-10.625 -5.53,-14.683 1.021,-0.61 2.039,-1.222 3.059,-1.833 0.734,1.128 1.472,2.229 2.064,3.482 2.012,4.247 1.634,8.375 1.522,12.817 z" />
    </g>
  </g>
</svg>
