<?xml version="1.0" encoding="UTF-8" standalone="no"?>
<svg
   version="1.1"
   width="61.201054"
   height="191.72665"
   id="svg32"
   sodipodi:docname="avery-b.svg"
   xmlns:inkscape="http://www.inkscape.org/namespaces/inkscape"
   xmlns:sodipodi="http://sodipodi.sourceforge.net/DTD/sodipodi-0.dtd"
   xmlns="http://www.w3.org/2000/svg"
   xmlns:svg="http://www.w3.org/2000/svg">
  <defs
     id="defs36" />
  <sodipodi:namedview
     id="namedview34"
     pagecolor="#ffffff"
     bordercolor="#000000"
     borderopacity="0.25"
     inkscape:showpageshadow="2"
     inkscape:pageopacity="0.0"
     inkscape:pagecheckerboard="0"
     inkscape:deskcolor="#d1d1d1" />
  <!-- Exported by Scratch - http://scratch.mit.edu/ -->
  <g
     id="ID0.7294491971842945"
     transform="matrix(0.94999999,0,0,0.94999999,1.9106523e-4,-7.6486736e-4)">
    <path
       id="Face_1_"
       fill="#a16235"
       d="m 33.803,9.599 c 0.549,0.178 1.51,0.552 1.906,0.954 0.525,0.533 1.113,1.083 1.625,1.651 0.69,0.764 0.928,1.562 1.337,2.476 0.369,0.822 1.049,1.864 1.221,2.737 0.336,1.694 -0.326,3.723 0.551,5.259 0.426,0.745 0.904,1.224 1.285,2.007 0.259,0.535 0.326,1.079 0.527,1.629 0.188,0.511 0.139,0.93 0.145,1.491 0.011,1.085 -0.119,1.98 -0.512,2.981 -0.441,1.123 -0.654,2.115 -1.328,3.148 -0.455,0.699 -0.454,1.612 -0.725,2.395 -0.164,0.468 -0.431,0.912 -0.742,1.271 -0.156,0.178 -0.211,0.557 -0.33,0.775 -0.098,0.183 -0.26,0.172 -0.369,0.319 -0.613,0.834 -2.275,0.891 -3.185,0.969 -0.687,0.059 -1.258,-0.144 -1.951,-0.162 -0.494,-0.014 -0.867,-0.098 -1.303,-0.203 -0.183,0.629 -0.439,1.584 -0.273,2.27 0.17,0.703 0.965,0.934 1.445,1.375 0.359,0.33 0.557,0.524 0.461,1.011 -0.043,0.224 -0.125,0.688 -0.207,0.896 -0.271,0.678 -1.273,1.053 -1.898,1.282 -2.42,0.885 -4.452,-0.363 -6.643,-1.38 -2.021,-0.937 -3.707,-2.403 -4.654,-4.455 -0.247,-0.529 -0.188,-0.49 0.023,-1.044 0.143,-0.373 0.295,-0.777 0.426,-1.175 0.338,-1.035 0.354,-1.948 0.303,-3.018 -0.051,-1.076 0.031,-2.283 -0.426,-3.24 -0.42,-0.872 -0.516,-1.562 -0.791,-2.526 -0.451,0.325 -0.674,0.739 -1.324,0.684 -0.49,-0.041 -1.151,-0.5 -1.547,-0.809 -0.502,-0.393 -0.902,-0.796 -1.364,-1.256 -0.561,-0.562 -0.947,-0.681 -1.057,-1.482 -0.111,-0.79 -0.312,-1.864 -0.098,-2.635 0.121,-0.421 0.271,-0.785 0.361,-1.229 0.117,-0.562 0.287,-0.624 0.848,-0.794 0.848,-0.256 1.811,-0.086 2.457,0.492 0.36,0.319 0.506,0.869 0.842,1.212 0.394,0.402 0.5,0.731 1.191,0.617 -0.028,-0.491 0.152,-0.985 0.062,-1.486 -0.079,-0.435 -0.344,-0.885 -0.479,-1.311 -0.209,-0.646 -0.65,-0.925 -1.002,-1.482 -0.278,-0.438 -0.545,-0.629 -0.766,-1.072 -0.277,-0.551 -0.299,-1.217 -0.492,-1.819 -0.151,-0.466 -0.063,-0.854 0.066,-1.323 0.287,-1.034 1.138,-1.721 2.021,-2.477 0.23,-0.333 0.601,-0.439 0.949,-0.705 1.687,-1.293 3.457,-2.075 5.582,-2.395 1.818,-0.274 3.981,-0.305 5.754,0.361 0.199,-0.352 0.304,-1.185 0.646,-1.249 0.292,-0.056 1.209,0.393 1.48,0.462" />
    <path
       id="SkinArmRight_2_"
       fill="#a16235"
       d="m 20.524,84.258 c -0.228,0.238 -0.234,0.726 -0.332,1.046 -0.146,0.471 -0.152,0.845 -0.48,1.263 -0.223,0.286 -0.565,0.511 -0.717,0.855 -0.105,0.244 -0.049,0.542 -0.166,0.791 -0.179,0.379 -0.625,0.631 -0.648,1.063 -0.018,0.294 0.199,0.704 -0.258,0.801 -0.271,0.059 -0.455,-0.222 -0.617,-0.397 -0.619,-0.664 -1.823,-1.403 -2.553,-1.964 -0.907,-0.699 -1.325,-0.997 -2.188,-1.624 -0.338,-0.246 -0.658,-0.526 -1,-0.762 -0.396,-0.273 -0.811,-0.484 -1.209,-0.749 -0.062,-0.184 -0.232,-0.371 -0.299,-0.577 -0.115,-0.343 -0.08,-0.752 -0.041,-1.11 0.03,-0.313 0.186,-0.427 0.307,-0.704 0.125,-0.273 0.139,-0.588 0.271,-0.868 0.311,-0.666 0.395,-1.279 0.977,-1.812 0.598,-0.545 1.17,-0.969 1.902,-1.323 0.69,-0.333 1.356,-0.551 2.055,-0.133 0.32,0.191 0.57,0.58 0.795,0.876 0.254,0.335 0.508,0.652 0.727,1.01 0.422,0.692 0.957,1.155 1.451,1.804 0.275,0.359 0.602,0.767 0.918,1.09 0.375,0.383 0.871,0.951 1.051,1.448 -0.01,-0.043 -0.04,-0.056 -0.061,-0.077" />
    <path
       id="SkinArmLeft_2_"
       fill="#a16235"
       d="m 49.984,73.994 c -0.019,0.154 0.021,0.297 0.035,0.443 0.049,0.459 0.229,0.73 0.375,1.147 0.062,0.178 0.035,0.408 0.098,0.591 0.07,0.198 0.212,0.337 0.3,0.52 0.328,0.673 0.282,1.446 0.071,2.144 -0.201,0.675 -0.627,1.296 -0.904,1.961 -0.167,0.394 -0.217,0.603 -0.521,0.925 -0.201,0.214 -0.342,0.47 -0.535,0.693 -0.148,0.174 -0.344,0.356 -0.543,0.461 -0.417,0.218 -0.442,-0.012 -0.583,-0.413 -0.234,-0.674 -0.531,-1.433 -0.867,-2.074 -0.424,-0.804 -0.764,-1.646 -1.103,-2.505 -0.162,-0.406 -0.365,-0.815 -0.445,-1.229 -0.057,-0.295 -0.353,-0.707 -0.291,-0.993 0.752,-0.039 1.468,0.031 2.179,-0.237 0.438,-0.165 0.801,-0.41 1.189,-0.657 0.401,-0.254 1.05,-0.789 1.51,-0.851" />
    <path
       id="Hair_2_"
       fill="#371e10"
       d="M 35.923,10.551 C 35.264,10.237 34.618,9.854 33.743,9.458 33.251,9.233 32.54,8.919 32.2,9.418 31.999,9.716 31.806,9.944 31.679,10.27 30.976,10.167 30.195,10.019 29.488,9.926 28.724,9.825 27.482,9.829 26.775,9.907 c -2.088,0.228 -3.738,0.928 -5.576,1.99 -0.817,0.471 -1.498,0.83 -2.129,1.505 -0.541,0.579 -1.154,1.07 -1.49,1.794 -0.597,1.291 0.018,2.83 0.807,3.985 0.805,1.176 1.984,2.261 1.672,3.817 -0.033,0.173 -0.103,1.004 -0.201,1.104 -0.25,0.252 -0.638,-0.142 -0.814,-0.342 -0.41,-0.467 -0.629,-1.125 -1.135,-1.535 -0.24,-0.195 -0.678,-0.479 -0.965,-0.581 -0.345,-0.121 -0.58,0.128 -0.859,-0.046 -0.515,-0.32 -1.345,-1.573 -1.547,-2.08 -0.308,-0.763 -0.388,-1.434 -0.587,-2.242 -0.188,-0.759 -0.34,-1.461 -0.426,-2.261 -0.092,-0.884 -0.121,-1.557 0,-2.478 0.053,-0.396 0.133,-1.019 0.23,-1.407 0.104,-0.412 0.193,-0.748 0.318,-1.135 0.271,-0.837 0.705,-1.86 1.203,-2.578 0.453,-0.652 1.031,-1.44 1.58,-2 0.34,-0.348 0.627,-0.564 1.01,-0.861 0.306,-0.238 0.67,-0.493 0.982,-0.722 0.617,-0.454 1.311,-0.961 2.133,-1.268 1.808,-0.672 3.66,-0.936 5.576,-0.65 0.773,0.116 1.584,0.37 2.32,0.708 0.414,0.187 0.631,0.413 0.957,0.702 0.391,0.345 0.822,0.317 1.25,0.585 -0.022,-0.025 0.337,0.133 0.317,0.105 -0.02,-0.017 0.869,0.023 0.271,0.101 0.822,0.075 1.061,0.373 1.756,0.767 0.73,0.416 1.418,0.887 1.91,1.594 0.404,0.579 0.508,1.229 0.715,1.894 0.121,0.392 0.14,0.592 0.105,1.014 -0.02,0.219 0.007,0.413 -0.057,0.629 -0.045,0.149 -0.295,0.485 -0.135,0.387 M 18.226,0.749 c -1.015,0.374 -2.07,0.756 -3.029,1.295 -0.988,0.554 -2.234,1.32 -2.992,2.174 -1.209,1.364 -1.857,2.528 -2.525,4.2 -0.381,0.952 -0.676,1.796 -0.676,2.846 0,0.89 0.066,1.715 0.154,2.593 0.178,1.817 0.656,3.374 1.596,4.971 0.221,0.374 0.361,0.911 0.604,1.27 0.332,0.493 0.758,0.797 1.154,1.252 0.574,0.66 1.918,1.133 1.832,1.985 -0.088,0.845 -0.162,1.767 -0.016,2.59 0.064,0.363 0.224,0.793 0.412,1.102 0.17,0.277 0.668,0.573 0.604,0.868 0.685,0.587 1.298,1.044 2.062,1.487 0.938,0.544 1.479,0.413 2.461,-0.179 -0.137,1.029 0.641,2.472 0.84,3.408 0.183,0.858 0.41,1.929 0.277,2.825 -0.117,0.791 -0.496,1.895 -1.369,2.134 -1.572,0.431 -1.295,-3.384 -1.506,-4.491 -0.533,0.504 -1.005,1.086 -1.441,1.692 -0.453,0.633 -1.024,1.626 -1.979,1.566 -0.807,-0.049 -0.512,-0.763 -0.607,-1.399 -0.133,-0.892 0.011,-1.692 0.357,-2.522 -0.408,0.374 -0.824,0.769 -1.189,1.176 -0.299,0.333 -0.309,0.725 -0.617,1.037 -0.744,0.748 -2.044,0.345 -2.396,-0.57 -0.34,-0.88 -0.201,-1.889 -0.121,-2.746 0.091,-0.969 0.384,-1.997 0.125,-2.934 -0.344,0.198 -0.604,0.895 -0.85,1.216 -0.268,0.351 -0.395,0.398 -0.803,0.62 -0.709,0.386 -0.932,0.58 -1.521,0.086 C 6.071,29.467 6.085,26.193 6.678,25.009 6.387,25.567 5.424,26.444 4.799,26.547 4.024,26.675 3.356,25.864 3.151,25.201 2.911,24.422 3.134,23.609 3.248,22.856 3.366,22.071 3.248,21.241 3.323,20.44 2.661,21.029 2.061,23.642 0.709,22.933 0.057,22.591 0.137,21.449 0.271,20.845 0.445,20.049 0.49,19.543 0.461,18.737 0.362,16.139 1.78,13.929 2.939,11.63 3.812,9.897 4.676,7.875 5.943,6.387 6.6,5.612 7.59,5.058 8.379,4.416 9.283,3.675 10.204,3.095 11.274,2.605 c 1.088,-0.496 2.26,-0.979 3.42,-1.272 0.588,-0.149 1.363,-0.437 1.954,-0.545 0.502,-0.094 1.086,0.143 1.529,-0.035" />
    <path
       id="ShoeRight_2_"
       fill="#4e3a78"
       d="m 28.633,191.159 c 0.238,0.002 0.459,-0.06 0.523,0.188 0.086,0.326 -0.395,0.602 -0.59,0.758 -0.265,0.211 -0.369,0.498 -0.609,0.73 -0.781,0.766 -1.729,0.99 -2.797,1.197 -1.312,0.252 -2.574,0.54 -3.781,1.104 -0.934,0.438 -1.831,0.948 -2.77,1.379 -0.984,0.447 -2.143,0.823 -3.207,1.01 -1.321,0.232 -2.524,0.134 -3.844,0.045 -1.343,-0.088 -3.058,-0.252 -4.388,-0.489 -1.168,-0.211 -1.315,-0.526 -2.188,-0.931 -0.731,-0.338 -1.765,-0.727 -1.81,-1.662 -0.017,-0.301 -0.028,-0.258 0.002,-0.547 0.043,-0.375 0.472,-0.939 0.779,-1.229 0.31,-0.293 0.793,-0.367 1.159,-0.57 0.269,-0.144 0.507,-0.289 0.804,-0.445 0.858,-0.451 1.83,-0.639 2.517,-1.334 0.618,-0.629 1.01,-1.327 1.698,-1.854 0.349,-0.263 0.769,-0.365 1.125,-0.605 0.328,-0.219 0.463,-0.463 0.871,-0.516 0.756,-0.1 1.431,0.145 2.133,0.375 0.861,0.282 1.752,0.581 2.574,0.938 0.909,0.395 1.782,0.869 2.729,1.152 1.012,0.299 1.998,0.64 3.002,0.943 2.043,0.609 4.135,0.025 6.209,0.326 -0.036,0.002 -0.069,0.002 -0.104,0.002" />
    <path
       id="ShoeLeft_2_"
       fill="#4e3a78"
       d="m 53.02,186.768 c -0.108,-0.117 0,0 -0.102,0.088 -0.152,0.138 -0.547,-0.01 -0.673,0.164 -0.177,0.244 -0.494,0.687 -0.628,0.937 -0.27,0.506 -0.512,1.392 -1.065,1.53 -1.677,0.429 -2.16,0.604 -3.445,0.371 -1.424,-0.26 -3.293,-0.508 -4.729,-0.752 -0.543,-0.094 -1.457,-0.192 -2.008,-0.244 -0.467,-0.043 -1.457,-0.284 -1.924,-0.206 -0.548,0.096 -1.741,0.346 -2.161,0.686 -0.246,0.199 -2.08,0.763 -2.314,0.979 -0.151,0.142 -0.463,1.517 -0.463,1.718 0.359,0.05 1.144,1.087 3.73,0.315 1.348,-0.404 2.256,-0.715 3.942,-0.433 0.849,0.142 1.998,0.423 2.82,0.662 0.323,0.093 0.786,0.164 1.098,0.317 0.377,0.187 0.884,0.246 1.302,0.375 0.342,0.104 0.806,0.307 1.156,0.358 0.714,0.106 0.794,0.229 1.502,0.306 0.752,0.084 1.658,0.228 2.396,0.354 0.963,0.162 2.109,0.154 3.066,0.107 0.879,-0.041 1.787,0.076 2.629,-0.199 0.611,-0.203 1.564,-0.188 2.164,-0.443 0.697,-0.301 1.483,-0.486 2.102,-0.926 0.518,-0.369 0.723,-0.684 1.24,-1.023 1.679,-1.111 1.236,-1.746 0.552,-1.908 -1.587,-0.377 -4.089,-0.64 -5.894,-1.328 -0.801,-0.305 -1.512,-0.84 -2.303,-1.143 -0.398,-0.156 -0.646,-0.51 -1.031,-0.686 -0.263,-0.121 -0.189,-0.264 -0.406,-0.451" />
    <path
       id="ShoeTrimRight_2_"
       fill="#bfb3d8"
       d="m 29.004,191.96 c -0.041,0.304 0.138,0.631 0.24,0.906 0.131,0.356 0.041,0.602 0.006,0.963 -0.014,0.159 0.027,0.334 -0.004,0.491 -0.037,0.188 -0.168,0.348 -0.242,0.521 -0.125,0.293 -0.209,0.536 -0.439,0.771 -0.316,0.32 -0.953,0.433 -1.408,0.558 -1.025,0.281 -1.879,0.672 -2.824,1.121 -1.334,0.635 -2.353,1.629 -3.57,2.424 -0.236,0.155 -0.408,0.365 -0.652,0.511 -0.236,0.14 -0.508,0.237 -0.748,0.368 -0.616,0.337 -1.303,0.522 -1.979,0.729 -0.732,0.225 -1.402,0.393 -2.17,0.42 -1.172,0.041 -2.342,-0.115 -3.51,-0.109 -2.044,0.006 -4.076,-0.291 -6.07,-0.607 -0.56,-0.088 -1.125,-0.193 -1.685,-0.326 -0.526,-0.129 -0.793,-0.319 -1.147,-0.717 -0.721,-0.809 -1.06,-1.668 -0.993,-2.795 0.029,-0.504 0.329,-0.924 0.475,-1.381 0.127,-0.401 0.334,-1.133 0.699,-1.367 0.106,0.162 0.067,0.34 0.205,0.512 0.118,0.146 0.272,0.23 0.373,0.393 0.117,0.202 0.1,0.289 0.309,0.436 0.156,0.107 0.324,0.182 0.492,0.26 0.77,0.367 1.436,0.822 2.309,0.99 0.645,0.121 1.34,0.014 1.957,0.18 0.763,0.203 1.494,0.324 2.275,0.42 1.795,0.213 3.646,0.215 5.385,-0.34 1.38,-0.441 2.874,-0.592 4.062,-1.477 0.666,-0.494 1.317,-0.892 2.143,-1.078 0.441,-0.101 0.875,-0.207 1.314,-0.316 0.291,-0.072 1.168,-0.111 1.279,-0.344 0.836,-0.242 1.828,-0.469 2.545,-0.98 0.226,-0.162 0.4,-0.41 0.605,-0.6 0.23,-0.213 0.478,-0.355 0.742,-0.5" />
    <path
       id="ShoeTrimLeft_2_"
       fill="#bfb3d8"
       d="m 64.044,190.328 c 0.476,-0.077 0.011,0.934 -0.021,1.146 -0.07,0.473 -0.062,0.959 -0.062,1.445 0,0.566 -0.104,0.99 -0.301,1.521 -0.178,0.479 -0.562,0.762 -0.791,1.201 -0.248,0.477 -0.646,0.778 -1.174,0.979 -0.797,0.303 -1.639,0.687 -2.487,0.803 -1.925,0.269 -4.153,0.185 -5.989,-0.479 -1.074,-0.389 -2.305,-0.848 -3.436,-1.021 -0.901,-0.139 -1.896,-0.086 -2.794,-0.006 -1.3,0.117 -2.61,0.279 -3.921,0.279 -1.318,0 -2.647,0.028 -3.959,0.133 -1.128,0.087 -2.216,-0.052 -3.327,-0.228 -0.439,-0.067 -0.855,-0.158 -1.287,-0.25 -0.207,-0.043 -0.859,-0.043 -1.033,-0.194 -0.178,-0.156 -0.059,-0.461 -0.088,-0.673 -0.049,-0.329 -0.061,-0.598 -0.059,-0.942 0.005,-0.524 0.043,-1.123 0.273,-1.594 0.212,-0.438 0.939,0.015 1.314,0.104 0.695,0.166 1.469,-0.146 2.133,-0.322 1.267,-0.334 2.776,-0.787 4.079,-0.459 1.08,0.271 2.142,0.727 3.242,0.985 0.547,0.13 1.098,0.229 1.622,0.41 0.459,0.156 1.146,0.228 1.527,0.533 0.127,-0.05 0.535,0.082 0.734,0.116 0.235,0.043 0.468,0.056 0.708,0.084 1.289,0.154 2.537,0.408 3.828,0.531 1.142,0.106 2.572,0.151 3.688,-0.086 0.916,-0.195 1.881,-0.236 2.77,-0.494 0.711,-0.207 1.436,-0.641 2.093,-0.985 0.516,-0.271 1.063,-0.621 1.516,-1 0.228,-0.187 0.372,-0.423 0.562,-0.649 0.152,-0.187 0.588,-0.822 0.754,-0.839" />
    <path
       id="Pants_2_"
       fill="#a17456"
       d="m 49.66,97.72 c 0.139,1.286 0.55,2.42 0.842,3.781 0.291,1.356 0.589,2.664 0.736,4.043 0.229,2.129 0.488,4.563 0.377,6.718 -0.125,2.448 -0.188,4.877 -0.457,7.303 -0.273,2.457 -1.055,4.838 -1.514,7.287 -0.535,2.84 -1.148,5.629 -1.601,8.479 -0.202,1.265 -0.334,2.541 -0.473,3.812 -0.129,1.172 -0.168,2.211 -0.652,3.328 -0.707,1.627 -2.173,2.344 -3.589,3.246 -1.086,0.689 -2.092,1.623 -3.137,2.396 -1.661,1.229 -3.503,1.977 -5.474,2.604 -2.23,0.713 -4.584,1.055 -6.857,1.596 -2.349,0.563 -4.672,0.957 -7.072,1.227 -2.555,0.281 -5.098,0.725 -7.676,0.719 -0.92,-0.002 -1.768,-0.297 -2.572,-0.365 -0.043,-1.045 -0.006,-2.176 -0.008,-3.184 0.045,-0.508 -0.117,-0.982 -0.193,-1.475 -0.154,-0.976 -0.73,-1.555 -0.73,-2.701 0,-1.098 0.468,-2.332 0.468,-3.469 0,-0.506 0,-1.113 0,-1.668 0,0.008 0,0.017 0,0.021 0,-1.583 0.645,-3.23 1.016,-4.771 0.259,-1.062 -0.058,-2.373 0.226,-3.455 0.258,-1 0.744,-1.859 0.91,-2.867 0.18,-1.104 0.7,-3.717 0.7,-4.834 0,-2.479 0.416,-2.287 1.039,-4.887 0.295,-1.215 0.408,-2.494 0.531,-3.715 0.108,-1.113 0.336,-2.199 0.483,-3.326 0.072,-0.539 0.271,-1.109 0.459,-1.629 0.209,-0.58 0.246,-1.057 0.39,-1.631 0.131,-0.533 0.377,-0.922 0.428,-1.5 0.051,-0.576 0.154,-1.022 0.324,-1.562 0.383,-1.225 0.709,-2.416 0.992,-3.655 0.281,-1.229 0.211,-2.814 0.719,-3.958 0.588,-1.322 0.494,-2.836 1.322,-4.123 0.649,-1.009 1.26,-1.31 2.211,-0.66 0.342,-0.102 1.898,0.894 2.326,1.089 0.797,0.363 1.133,0.631 1.867,0.868 1.768,0.573 4.379,1.914 6.172,2.16 0.002,0.005 -0.105,-0.065 -0.115,-0.072 0.457,0.068 2.969,0.444 3.457,0.444 2.414,0 3.319,0.19 5.788,-0.129 1.668,-0.216 3.248,-0.45 4.866,-0.818 0.641,-0.144 2.8,-1.22 3.277,-0.733 M 9.009,151.127 c 0.063,-0.291 0.545,-1.566 0.274,-1.648 0.369,-0.445 0.076,-0.738 0.146,-1.336 0.19,-1.623 5.319,-0.17 7.131,-0.787 2.553,-0.865 5.245,-1.164 7.895,-1.592 2.738,-0.443 5.466,-0.975 8.154,-1.674 3.076,-0.799 6.215,-1.723 8.981,-3.328 1.769,-1.029 3.238,-2.414 4.858,-3.646 0.34,-0.257 1.23,-1.317 1.742,-0.974 0.308,0.207 -0.049,2.198 -0.055,2.396 -0.082,2.344 -0.16,4.476 0.166,6.782 0.329,2.322 -0.465,4.72 -0.053,7.044 0.096,0.551 -0.254,1.303 0.049,1.76 0.393,0.592 0.419,0.933 0.383,1.662 -0.025,0.483 0.393,0.646 0.42,1.078 0.033,0.562 0.562,0.847 0.992,1.155 0.602,0.433 0.661,0.517 0.698,1.256 0.028,0.599 -0.467,1.363 -0.613,1.972 -0.2,0.83 -0.745,1.649 -0.795,2.519 -0.03,0.572 0.019,1.14 0.154,1.688 0.295,1.184 1.274,2.678 1.856,3.717 0.729,1.301 0.547,2.197 0.449,3.609 -0.027,0.404 -0.165,0.83 -0.195,1.236 -0.021,0.25 0.127,0.647 0.123,0.795 -0.012,0.453 0.744,0.492 1.013,1.107 0.308,0.706 1.118,1.577 1.405,1.938 0.67,0.854 0.774,1.559 1.5,1.895 0.72,1.525 0.832,0.426 1.131,1.801 0.127,0.58 -0.101,0.49 -0.37,1.008 -0.257,0.479 -0.147,1.394 -0.48,1.824 -0.268,0.346 -1.095,2.286 -1.229,2.729 -0.163,0.543 -0.943,-1.327 -1.875,-0.469 -0.391,0.36 -0.262,0.582 -0.609,0.985 -0.379,0.438 -0.535,1.004 -1,1.338 -0.411,0.294 -0.496,0.423 -1.004,0.589 -0.498,0.161 -1.62,0.471 -2.1,0.426 -1.348,-0.129 -2.295,-0.363 -3.638,-0.426 -1.791,-0.086 -3.596,-0.916 -5.434,-0.83 -0.898,0.041 -1.195,0.01 -1.892,0.312 -0.571,0.24 -2.346,0.576 -2.807,0.982 -0.4,0.358 -0.894,-0.101 -1.363,0.17 -0.226,0.129 -0.558,-0.373 -0.74,-0.184 -0.062,0.064 -0.748,0.42 -0.736,0.414 -0.594,0.325 -0.732,0.409 -1.373,0.602 -0.48,0.146 -0.261,0.26 -0.74,0.229 -0.524,-0.03 -0.85,-0.041 -1.391,-0.125 -1.236,-0.194 -2.674,0.396 -3.908,0.108 -1.742,-0.405 -3.203,-0.373 -4.41,-1.174 -0.635,-0.418 -2.293,-0.818 -2.99,-1.104 -0.897,-0.365 -2.153,-0.832 -3.049,-1.197 -1.287,-0.52 -1.973,-0.582 -2.641,0.146 -0.688,0.75 -0.596,1.072 -1.787,1.726 -0.859,0.476 -0.836,1.185 -1.715,1.224 -0.635,0.655 -0.407,-0.44 -1.219,-1.487 -1.002,-1.293 -1.654,-3.953 -0.25,-4.994 0.076,-0.886 -1.476,-2.411 -0.929,-2.938 0.464,-0.445 -1.116,-1.24 -0.346,-1.258 -0.616,-1.324 -1.494,-5.02 -1.015,-5.938 0.797,-1.525 1.057,-1.748 2.656,-3.379 0.955,-0.977 1.06,-0.52 1.06,-1.998 0,-1.246 -0.132,-2.422 -0.132,-3.65 0,-1.217 0.147,-2.383 0.793,-3.408 0.635,-1.014 0.551,-2.279 0.607,-3.467 0.066,-1.452 -0.711,-3.391 0,-4.645 0.285,-0.506 0.266,-1.11 0,-1.594" />
    <path
       id="PocketTrimRight_2_"
       fill="#4e3a78"
       d="m 23.703,101.578 c -0.348,0.02 -0.383,0.295 -0.494,0.576 -0.381,0.967 -0.281,1.943 -0.756,2.896 -0.447,0.896 -0.707,1.851 -1.371,2.664 -1.09,1.336 -3.323,3.509 -5.057,2.619 -0.357,0.354 -0.847,1.569 -0.652,2.106 0.209,0.576 1.381,0.416 2.027,0.347 1.494,-0.16 2.65,-0.707 3.916,-1.507 1.863,-1.176 2.701,-3.25 3.545,-5.143 0.489,-1.097 0.37,-2.211 0.725,-3.338 0.204,-0.638 0.448,-0.729 -0.357,-1.085 -0.531,-0.235 -1.059,-0.215 -1.668,-0.215" />
    <path
       id="PocketTrimLeft_2_"
       fill="#4e3a78"
       d="m 51.326,107.027 c 0.133,0.625 0.054,1.351 0.054,2 0,0.373 -0.032,0.765 0,1.136 0.028,0.293 0.16,0.614 0.101,0.91 -0.965,-0.021 -1.799,-1.828 -2.141,-2.587 -0.234,-0.52 -0.453,-0.807 -0.812,-1.243 -0.361,-0.435 -0.281,-0.92 -0.391,-1.457 -0.166,-0.81 -0.102,-1.707 -0.227,-2.538 -0.09,-0.585 -0.155,-0.805 0.509,-0.96 0.357,-0.084 1.049,-0.195 1.232,0.094 0.149,0.242 0.014,0.999 0.092,1.3 0.102,0.397 0.224,0.823 0.379,1.19 0.184,0.433 0.295,0.58 0.338,1.078 0.025,0.297 0.443,1.534 0.756,1.135" />
    <path
       id="Shirt_2_"
       fill="#4e3a78"
       d="m 2.204,75.294 c -0.337,1.058 -0.152,2.183 0.178,3.187 0.183,0.551 0.207,0.935 0.711,1.299 0.606,0.437 0.619,0.291 0.619,1.194 0,0.573 -0.037,1.161 0,1.732 0.052,0.784 0.371,1.161 0.813,1.818 0.847,1.261 1.528,1.659 3.021,1.806 0.66,0.065 1.55,-0.015 2.237,-0.207 0.473,-0.133 1.137,-0.399 1.49,-0.714 -0.83,-0.576 -1.314,-1.741 -1.256,-2.772 0.066,-1.164 1.125,-2.093 1.75,-3.051 0.577,-0.882 1.944,-1.876 3.104,-1.734 0.629,0.077 0.821,0.56 1.383,0.073 0.343,-0.298 0.689,-0.956 0.818,-1.385 0.445,-1.461 -0.463,-2.198 -1.555,-2.877 -0.18,-0.111 -1.074,-0.227 -1.139,-0.361 -0.145,-0.301 0.51,-0.306 0.457,-0.78 -0.047,-0.411 -0.48,-1.433 -0.68,-1.801 -0.293,-0.54 -0.328,-0.895 -0.328,-1.528 0,-1.098 -0.139,-2.534 -0.098,-3.587 0.989,0.623 1.703,2.033 2.589,2.825 0.996,0.891 1.718,2.157 2.361,3.33 0.985,1.802 1.993,4.439 0.811,6.422 -0.58,0.976 -0.777,1.84 0.188,2.717 0.651,0.593 1.37,1.762 1.479,2.653 0.064,0.525 -0.258,1.008 -0.551,1.461 -1.276,1.433 -2.576,5.788 -2.721,6.646 -0.1,0.608 1.431,3.902 1.658,3.613 1.643,-2.092 3.314,0.496 5.168,0.917 1.004,0.227 5.127,2.033 6.93,2.523 0.965,0.262 4.153,0.632 5.215,0.632 1.856,0 2.403,-0.199 4.249,-0.185 1.008,0.008 9.726,-1.426 9.036,-2.586 -1.697,-2.851 -0.47,-5.093 -0.062,-6.213 l -1.148,-1.884 c 0.053,0.034 1.918,-0.646 -2.298,-8.647 -0.143,-0.714 -0.516,-1.269 -0.79,-1.977 -0.259,-0.677 -0.703,-1.319 -0.779,-2.021 1.104,-0.154 2.61,-0.432 3.585,-1.003 1.082,-0.634 2.229,-1.772 2.859,-2.884 0.473,-0.839 0.237,-0.415 -0.434,-0.808 -0.487,-0.285 -0.827,-1.077 -0.799,-1.669 0.029,-0.538 0.145,-0.956 0.037,-1.527 -0.113,-0.607 -0.545,-0.869 -0.984,-1.23 -1.284,-1.05 0.061,-2.092 0.049,-3.409 -0.008,-1.225 -0.507,-2.049 -1.258,-3.041 -1.648,-2.179 -2.499,-4.607 -3.19,-7.216 -0.332,-1.253 -0.734,-2.411 -1.164,-3.672 -0.356,-1.045 -0.705,-1.951 -1.596,-2.755 -0.841,-0.761 -1.941,-1.262 -2.855,-1.938 -1.081,-0.803 -1.909,-1.373 -3.218,-1.845 -0.762,-0.274 -1.795,-0.636 -2.666,-0.956 -0.416,-0.152 -2.004,-1.311 -1.643,0.416 0.861,0.111 2.14,1.005 1.742,2.035 -0.349,0.901 -2,1.817 -2.861,1.995 -1.304,0.269 -2.746,-0.322 -3.902,-0.859 -1.012,-0.469 -2.215,-1.022 -3.178,-1.603 -0.824,-0.498 -1.198,-0.653 -1.969,-1.632 -0.341,-0.435 -0.947,-0.814 -1.23,-1.307 -0.207,-0.359 -0.328,-1.017 -0.557,-1.358 -2.547,-0.089 -4.801,1.77 -7.029,2.757 -2.311,1.023 -4.025,3.032 -5.766,4.766 -0.838,0.838 -1.649,1.61 -2.27,2.636 -0.627,1.038 -0.869,1.982 -1.209,3.114 -0.33,1.085 -0.645,2.192 -0.814,3.326 -0.189,1.264 0.289,2.159 0.506,3.346 0.216,1.184 0.201,2.171 -0.143,3.322 -0.308,1.025 -0.625,1.985 -0.797,3.034 -0.17,1.039 -0.474,2.297 -0.248,3.395 0.119,0.575 0.26,0.862 0.196,1.524 -0.065,0.644 -0.103,1.113 0.121,1.733 0.158,0.449 0.467,0.892 0.414,1.369 -0.046,0.442 -0.447,0.96 -0.589,1.406 z" />
    <path
       id="Headband_2_"
       fill="#bd5da4"
       d="m 29.699,2.847 c 0.18,0.119 0.904,0.865 0.785,1.016 C 30.224,3.718 30.125,3.341 29.826,3.204 29.631,3.117 29.641,3.161 29.461,3.035 29.105,2.784 28.891,2.542 28.498,2.385 27.867,2.132 27.172,1.972 26.527,1.877 25.728,1.759 24.756,1.724 23.994,1.817 c -1.666,0.201 -3.33,0.754 -4.865,1.738 -0.786,0.504 -1.452,1.038 -2.1,1.686 -0.67,0.672 -1.294,1.526 -1.783,2.304 -0.424,0.673 -0.797,1.666 -1.109,2.276 -0.197,0.382 -0.172,0.697 -0.291,1.094 -0.127,0.426 -0.189,0.792 -0.275,1.236 -0.342,1.785 0.168,3.442 0.412,5.212 0.065,0.479 0.082,1.076 0.39,1.474 0.138,0.179 0.138,0.47 0.231,0.677 0.092,0.207 0.361,0.338 0.445,0.56 0.141,0.382 0.446,0.967 0.764,1.23 0.297,0.25 0.049,-0.134 0.264,0.29 -0.391,0.115 -0.797,0.217 -1.092,0.543 -0.174,0.197 -0.256,0.866 -0.526,0.925 -0.185,0.04 -0.455,-0.368 -0.617,-0.49 C 13.489,22.307 13.171,22.003 12.78,21.746 12.188,21.355 11.772,20.542 11.39,19.935 10.962,19.256 10.563,18.519 10.227,17.787 9.888,17.05 9.735,16.258 9.462,15.488 9.179,14.686 9.214,14.127 9.104,13.287 9.003,12.546 8.882,11.884 9.083,11.137 9.277,10.426 9.261,9.708 9.477,8.987 9.597,8.591 9.811,8.236 9.933,7.833 c 0.125,-0.421 0.074,-0.459 0.341,-0.852 0.457,-0.675 0.688,-1.43 1.248,-2.064 0.342,-0.388 0.672,-0.75 1.09,-1.065 0.336,-0.254 0.634,-0.519 0.94,-0.797 0.556,-0.503 1.293,-0.854 1.992,-1.193 1.545,-0.753 3.166,-1.199 4.811,-1.506 1.051,-0.196 2.399,-0.281 3.463,-0.165 0.432,0.048 0.786,0.132 1.229,0.188 0.452,0.058 1.1,0.172 1.518,0.374 0.842,0.409 1.711,0.726 2.461,1.385 0.541,0.477 1.209,0.906 1.42,1.683" />
    <path
       id="Irises_2_"
       fill="#371e10"
       d="m 28.768,22.049 c 0.636,0.079 0.845,1.851 0.23,2.185 -0.502,0.273 -1.178,0.086 -1.824,-0.085 -2.101,-0.555 0.469,-2.101 1.379,-2.259 m 9.049,-1.286 c -0.361,0.031 -0.711,1.076 -0.623,1.445 0.679,0.288 1.387,0.705 1.737,-0.172 0.147,-0.373 0.1,-1.167 -0.189,-1.394 -0.351,-0.274 -0.215,-0.356 -0.726,-0.308" />
    <path
       id="EyeWhites_2_"
       fill="#f5f6f6"
       d="m 38.52,19.953 c -0.098,0.037 -0.236,0.076 -0.347,0.121 -0.048,0.177 0.24,0.299 0.353,0.41 0.168,0.167 0.201,0.315 0.246,0.544 0.038,0.189 0.125,0.397 0.059,0.605 -0.07,0.219 -0.355,0.386 -0.398,0.582 0.471,-0.244 1.299,-0.692 1.422,-1.187 0.172,-0.69 -0.842,-1.34 -1.451,-1.075 m -9.807,1.935 c 0.117,0.171 0.391,0.249 0.508,0.425 0.116,0.173 0.241,0.54 0.264,0.742 0.03,0.265 -0.064,0.548 -0.24,0.742 -0.148,0.167 -0.56,0.3 -0.48,0.562 0.679,0.111 1.359,-0.116 2.029,-0.253 0.672,-0.133 1.397,-0.31 1.721,-0.984 0.424,-0.882 -0.637,-1.329 -1.301,-1.401 -0.403,-0.043 -0.793,-0.13 -1.215,-0.111 -0.394,0.017 -1.004,0.021 -1.33,0.28" />
    <path
       id="linesShoeLeft_2_"
       fill="#010101"
       d="m 29.221,191.934 c 0.149,-0.203 -0.365,-0.397 -0.492,-0.228 -1.264,1.724 -3.125,2.146 -5.104,2.545 -1.869,0.38 -3.283,1.263 -4.998,2.062 -2.959,1.383 -5.467,1.432 -8.6,0.965 -1.467,-0.217 -6.578,-0.756 -6.611,-2.938 -0.025,-1.746 2.361,-2.486 3.637,-3.064 1.826,-0.83 3.043,-2.383 4.781,-3.344 0.246,-0.139 -0.236,-0.391 -0.418,-0.289 -1.275,0.703 -2.121,1.764 -3.314,2.555 -0.861,0.572 -1.824,0.906 -2.748,1.354 -0.971,0.473 -2.797,1.506 -2.457,2.881 0.535,2.168 4.285,2.692 6.041,3.016 2.918,0.535 5.935,0.902 8.752,-0.248 2.25,-0.918 4.174,-2.198 6.582,-2.678 1.949,-0.393 3.726,-0.919 4.949,-2.589 z m -0.658,3.937 c 0.297,-0.057 -0.174,-0.305 -0.331,-0.277 -2.722,0.514 -5.091,1.746 -7.107,3.637 -2.367,2.226 -5.586,2.332 -8.662,2.193 -1.5,-0.068 -2.986,-0.214 -4.475,-0.398 -1.314,-0.16 -2.721,-0.189 -4.002,-0.533 -3.127,-0.834 -1.806,-4.975 -0.433,-6.828 0.119,-0.162 -0.397,-0.344 -0.498,-0.203 -1.217,1.645 -2.536,5.143 -0.508,6.705 0.653,0.502 1.601,0.66 2.392,0.762 1.697,0.217 3.4,0.44 5.104,0.602 2.916,0.271 6.371,0.664 9.148,-0.514 1.518,-0.646 2.463,-1.791 3.77,-2.736 1.694,-1.224 3.549,-2.021 5.602,-2.41 z m 0.119,-0.223 c -0.105,-0.154 -0.648,-0.191 -0.502,0.025 0.016,0.021 0.031,0.047 0.047,0.066 0.092,0.137 0.315,0.185 0.461,0.121 0.5,-0.209 0.748,-1.362 0.818,-1.811 0.158,-0.994 -0.002,-1.891 -0.412,-2.805 -0.076,-0.174 -0.613,-0.227 -0.502,0.021 0.408,0.906 0.59,1.893 0.33,2.873 -0.09,0.332 -0.283,1.293 -0.656,1.447 0.152,0.041 0.307,0.084 0.461,0.123 -0.016,-0.015 -0.029,-0.039 -0.045,-0.06 z" />
    <path
       id="linesShoeRight_2_"
       fill="#010101"
       d="m 64.408,190.307 c -0.006,-0.195 -0.545,-0.3 -0.537,-0.058 0.08,2.674 -0.045,5.67 -3.191,6.354 -0.313,0.066 0.133,0.353 0.321,0.312 3.276,-0.711 3.493,-3.763 3.407,-6.608 z m -30.556,1.894 c 0.031,-0.094 -0.496,-0.256 -0.534,-0.139 -0.414,1.217 -0.426,2.226 -0.141,3.465 0.024,0.111 0.354,0.156 0.438,0.152 0.944,-0.035 2.086,0.497 3.057,0.594 1.155,0.112 2.312,0.16 3.472,0.112 2.668,-0.106 5.367,-0.616 8.038,-0.52 1.977,0.073 3.766,0.61 5.632,1.209 0.725,0.229 1.496,0.401 2.254,0.457 1.889,0.142 3.755,-0.067 5.522,-0.769 0.034,-0.015 -0.36,-0.238 -0.506,-0.179 -2.881,1.146 -5.58,0.815 -8.472,-0.08 -1.711,-0.53 -3.493,-0.907 -5.293,-0.849 -2.516,0.084 -5.012,0.457 -7.528,0.521 -1.43,0.035 -2.876,0.02 -4.288,-0.236 -0.72,-0.129 -1.51,-0.498 -2.24,-0.471 0.147,0.049 0.293,0.1 0.438,0.15 -0.287,-1.253 -0.263,-2.2 0.151,-3.417 z m 5.066,-0.558 c -0.317,0.075 0.113,0.379 0.316,0.332 1.647,-0.391 3.319,0.336 4.883,0.771 1.379,0.38 2.743,0.832 4.138,1.148 2.079,0.475 4.226,0.723 6.362,0.68 2.117,-0.043 4.369,-0.293 6.285,-1.262 0.853,-0.432 1.688,-0.959 2.332,-1.676 0.354,-0.4 1.192,-1.008 0.91,-1.596 -0.09,-0.189 -0.631,-0.223 -0.506,0.039 0.336,0.693 -2.086,2.361 -2.523,2.605 -0.939,0.526 -1.946,0.914 -3.002,1.139 -2.149,0.455 -4.369,0.49 -6.553,0.268 -2.521,-0.258 -4.938,-0.941 -7.355,-1.672 -1.683,-0.506 -3.514,-1.198 -5.287,-0.776 z m 0.39,0.325 c 0.364,-0.024 0.028,-0.353 -0.199,-0.338 -1.493,0.101 -3.684,1.289 -5.063,0.422 -0.19,-0.12 -0.649,0 -0.342,0.191 1.679,1.059 3.833,-0.156 5.604,-0.275 z m 24.775,-1.76 c 0.319,0.088 0.386,-0.162 0.067,-0.25 -3.299,-0.896 -7.355,-1.142 -10.092,-3.371 -0.125,-0.104 -0.66,-0.114 -0.427,0.076 2.872,2.34 7.002,2.607 10.452,3.545 z m -29.705,-0.035 c 0.121,-0.136 -0.389,-0.325 -0.497,-0.198 -0.678,0.77 -0.741,1.537 -0.641,2.521 0.015,0.156 0.553,0.266 0.533,0.072 -0.096,-0.938 -0.043,-1.659 0.605,-2.395 z" />
    <path
       id="linesPockets_2_"
       fill="#010101"
       d="m 23.471,101.371 c -0.189,-0.01 0.188,0.145 0.264,0.15 0.629,0.028 1.959,0.008 1.781,0.973 -0.043,0.258 -0.095,0.514 -0.152,0.771 -0.164,0.689 -0.346,1.375 -0.578,2.045 -0.47,1.346 -1.015,2.691 -1.771,3.906 -1.698,2.741 -4.635,3.664 -7.76,3.268 -0.259,-0.035 0.086,0.131 0.181,0.145 2.418,0.311 5.428,-0.072 7.104,-2.059 1.96,-2.328 3.109,-5.717 3.48,-8.701 0.007,-0.059 -0.153,-0.098 -0.188,-0.107 -0.787,-0.194 -1.552,-0.354 -2.361,-0.391 z m 0.239,0.035 c 0.015,-0.184 -0.389,-0.278 -0.4,-0.108 -0.168,2.208 -1.103,4.978 -2.658,6.604 -0.58,0.607 -3.608,3.498 -4.551,2.269 -0.103,-0.136 -0.486,-0.097 -0.332,0.104 1.039,1.351 3.405,-0.553 4.235,-1.254 2.157,-1.826 3.493,-4.82 3.706,-7.615 z m 26.177,0.576 c -0.009,-0.156 -0.414,-0.229 -0.404,-0.041 0.102,1.86 0.463,3.693 1.427,5.31 0.077,0.129 0.485,0.151 0.38,-0.026 -0.955,-1.597 -1.304,-3.409 -1.403,-5.243 z m -0.155,0.15 c 0.211,-0.011 -0.156,-0.188 -0.254,-0.184 -0.668,0.038 -1.277,0.163 -1.925,0.321 -0.029,0.008 -0.039,0.023 -0.035,0.054 0.259,2.291 0.666,4.95 2.007,6.891 0.673,0.972 0.826,1.431 1.818,1.724 0.235,0.07 0.274,-0.084 0.041,-0.151 -0.168,-0.05 -0.352,-0.113 -0.531,-0.111 -0.059,0.002 0.22,0.211 0.006,-0.106 -0.592,-0.883 -1.262,-1.683 -1.657,-2.683 -0.412,-1.034 -0.728,-2.104 -0.936,-3.198 -0.1,-0.522 -0.196,-1.047 -0.264,-1.574 -0.126,-1.001 0.986,-0.94 1.73,-0.983 z" />
    <path
       id="linesPants_2_"
       fill="#010101"
       d="m 45.632,109.145 c 0.122,-0.03 -0.234,-0.185 -0.328,-0.16 -4.153,1.057 -7.556,3.377 -10.386,6.562 -0.066,0.077 0.309,0.215 0.377,0.141 2.82,-3.172 6.196,-5.491 10.337,-6.543 z M 20.321,94.757 c 0.066,-0.158 -0.461,-0.323 -0.537,-0.143 -0.575,1.373 -0.807,2.794 -1.266,4.198 -0.646,1.982 -1.248,3.979 -1.771,6 -0.984,3.812 -1.734,7.678 -2.285,11.578 -0.026,0.194 0.512,0.315 0.535,0.145 0.575,-4.066 1.35,-8.107 2.418,-12.074 0.535,-1.984 1.231,-3.924 1.756,-5.906 0.343,-1.295 0.63,-2.556 1.15,-3.798 z m 29.419,2.52 c -0.074,-0.191 -0.61,-0.23 -0.506,0.036 0.846,2.147 1.072,4.477 1.367,6.748 0.291,2.244 0.524,4.5 0.604,6.764 0.155,4.475 -0.196,8.91 -1.302,13.258 -0.057,0.221 0.479,0.363 0.535,0.145 1.153,-4.525 1.524,-9.203 1.283,-13.863 -0.129,-2.439 -0.375,-4.873 -0.729,-7.293 -0.287,-1.979 -0.515,-3.923 -1.252,-5.795 z m -34.825,19.211 c 0.006,-0.211 -0.534,-0.312 -0.539,-0.051 -0.044,1.582 -0.478,3.125 -0.812,4.66 -0.324,1.491 -0.535,3.002 -0.773,4.51 -0.508,3.213 -1.217,6.375 -1.822,9.569 -0.605,3.199 -0.982,6.425 -1.385,9.65 -0.209,1.676 -0.319,3.381 -0.604,5.043 -0.227,1.327 -0.525,2.627 -0.562,3.978 -0.004,0.213 0.533,0.312 0.541,0.051 0.047,-1.797 0.541,-3.556 0.736,-5.34 0.185,-1.716 0.41,-3.429 0.617,-5.142 0.389,-3.199 0.817,-6.39 1.483,-9.545 0.67,-3.192 1.254,-6.379 1.765,-9.601 0.404,-2.573 1.281,-5.17 1.355,-7.782 z m 35.579,7.737 c 0.021,-0.222 -0.516,-0.343 -0.536,-0.146 -0.093,0.981 -0.548,1.836 -0.761,2.789 -0.19,0.854 -0.371,1.717 -0.523,2.58 -0.311,1.765 -0.558,3.534 -0.701,5.321 -0.275,3.438 -0.355,6.888 -0.248,10.332 0.068,2.26 0.047,4.53 0.238,6.784 0.164,1.925 0.338,4.112 1.432,5.767 0.105,0.164 0.647,0.199 0.502,-0.024 -1.188,-1.799 -1.321,-4.305 -1.446,-6.396 -0.12,-2.02 -0.135,-4.047 -0.188,-6.069 -0.098,-3.776 -0.039,-7.565 0.343,-11.326 0.181,-1.771 0.446,-3.539 0.802,-5.285 0.291,-1.441 0.947,-2.877 1.086,-4.327 z m -1.529,33.087 c -0.199,-0.064 -0.547,-0.006 -0.184,0.108 2.057,0.664 1.734,1.654 1.269,3.34 -0.237,0.857 -0.503,1.714 -0.716,2.576 -0.126,0.511 -0.574,1.761 -0.303,2.265 0.347,0.637 1.093,1.108 1.461,1.791 0.371,0.692 0.688,1.418 0.861,2.188 0.377,1.692 0.342,3.371 -0.127,5.039 -0.031,0.114 0.502,0.26 0.532,0.146 0.498,-1.761 0.575,-3.705 0.021,-5.468 -0.32,-1.019 -0.768,-1.92 -1.414,-2.769 -0.705,-0.924 -0.898,-1.422 -0.607,-2.592 0.277,-1.121 0.6,-2.238 0.919,-3.347 0.147,-0.509 0.414,-1.153 0.325,-1.696 -0.162,-0.989 -1.195,-1.31 -2.037,-1.581 z M 37.04,147.805 c 0.021,-0.193 -0.381,-0.291 -0.4,-0.106 -0.203,1.846 -0.316,3.706 -0.582,5.545 -0.248,1.7 -0.75,3.332 -1.062,5.018 -0.565,3.046 -0.639,6.157 -0.965,9.226 -0.022,0.193 0.38,0.291 0.4,0.106 0.326,-3.059 0.35,-6.2 0.967,-9.225 0.363,-1.791 0.88,-3.532 1.105,-5.351 0.213,-1.735 0.346,-3.478 0.537,-5.213 z m 4.26,-36.776 c 0.026,-0.135 -0.378,-0.233 -0.401,-0.11 -0.525,2.856 -0.726,5.758 -1.277,8.621 -0.58,3.015 -1.037,6.045 -1.61,9.06 -1.207,6.355 -1.441,12.644 -1.373,19.099 0.002,0.146 0.402,0.216 0.4,0.106 -0.07,-6.638 0.219,-13.062 1.468,-19.593 0.569,-2.978 1.014,-5.976 1.59,-8.953 0.527,-2.734 0.701,-5.501 1.203,-8.23 z m -6.893,2.588 c -0.225,0.045 0.125,0.236 0.248,0.215 2.211,-0.43 3.886,-2.166 6.05,-2.75 0.225,-0.062 -0.125,-0.246 -0.248,-0.215 -2.161,0.584 -3.847,2.324 -6.05,2.75 z m -0.379,64.83 c -0.055,0.092 0.326,0.232 0.402,0.107 0.92,-1.503 3.336,-3.906 2.279,-5.794 -0.6,-1.071 -1.262,-2.065 -1.713,-3.215 -0.256,-0.647 -0.375,-1.312 -0.568,-1.981 -0.035,-0.125 -0.437,-0.185 -0.4,-0.056 0.434,1.498 0.889,2.808 1.684,4.168 0.371,0.638 1.08,1.479 0.865,2.279 -0.156,0.584 -0.412,1.132 -0.715,1.651 -0.566,0.98 -1.244,1.88 -1.834,2.841 z m 19.988,8.492 c 0.151,0.18 0.664,0.104 0.446,-0.149 -0.438,-0.513 -0.427,-0.813 -1.155,-0.676 -0.611,0.114 -1.058,0.602 -1.334,1.129 -0.676,1.295 -1.461,2.127 -3.008,2.346 -1.573,0.224 -3.125,0.041 -4.676,-0.256 -2.144,-0.412 -4.728,-1.229 -6.915,-0.688 -0.643,0.157 -4.418,1.955 -4.768,1.198 -0.098,-0.209 -0.639,-0.216 -0.51,0.056 0.469,1.017 2.274,0.269 2.977,0.021 0.813,-0.287 1.621,-0.678 2.459,-0.885 1.54,-0.38 3.353,0.008 4.874,0.307 2.432,0.478 5.204,1.238 7.648,0.423 0.984,-0.33 1.672,-0.856 2.153,-1.791 0.213,-0.414 0.444,-1.021 0.87,-1.269 0.706,-0.412 0.568,-0.198 0.939,0.234 z m -2.204,-12.391 c -0.104,-0.086 -0.638,-0.144 -0.414,0.045 1.149,0.968 2.08,2.457 2.996,3.646 0.769,1.002 1.516,2.021 2.232,3.062 0.08,0.117 0.604,0.191 0.489,0.023 -0.888,-1.288 -1.813,-2.546 -2.784,-3.771 -0.786,-0.991 -1.546,-2.189 -2.519,-3.005 z m 5.327,6.836 c 0.031,-0.095 -0.5,-0.254 -0.535,-0.145 -0.332,1.02 -0.608,2.053 -0.979,3.059 -0.32,0.869 -0.68,2.109 -1.491,2.654 -0.057,0.039 0.386,0.258 0.507,0.178 0.83,-0.554 1.205,-1.798 1.521,-2.688 0.356,-1.008 0.647,-2.038 0.977,-3.058 z M 8.217,182.146 C 8.251,182.105 7.785,181.875 7.682,182 c -0.963,1.158 -1.912,2.258 -2.762,3.502 -0.037,0.059 0.447,0.273 0.535,0.145 0.848,-1.243 1.801,-2.345 2.762,-3.501 z m -2.761,3.5 c 0.086,-0.242 -0.448,-0.393 -0.537,-0.145 -0.354,1.016 -0.188,2.021 0.39,2.924 0.493,0.771 1.266,1.457 1.606,2.312 0.092,0.228 0.631,0.228 0.516,-0.062 -0.717,-1.799 -2.76,-2.789 -1.975,-5.029 z M 4.104,173.811 c 0.004,-0.17 -0.531,-0.261 -0.535,-0.146 -0.092,3.525 1.123,7.246 2.281,10.541 0.051,0.148 0.574,0.215 0.529,0.086 -1.149,-3.271 -2.365,-6.983 -2.275,-10.481 z m -0.543,0.041 c -0.07,0.131 0.445,0.312 0.535,0.143 0.865,-1.637 2.344,-2.805 3.594,-4.129 0.125,-0.137 -0.381,-0.326 -0.5,-0.201 -1.268,1.344 -2.752,2.528 -3.629,4.187 z m 3.611,-4.159 c 0,0.139 0.536,0.211 0.535,0.144 0,-2.347 -0.537,-4.803 0.352,-7.035 1.168,-2.937 1.018,-5.754 0.896,-8.858 C 8.947,153.8 8.416,153.739 8.42,153.8 c 0.062,1.606 0.217,3.232 0.092,4.836 -0.125,1.577 -0.597,2.878 -1.115,4.349 -0.749,2.124 -0.227,4.499 -0.225,6.708 z m 25.307,17.267 c -0.09,0.163 0.299,0.293 0.371,0.164 0.904,-1.655 2.314,-2.931 3.533,-4.344 0.113,-0.134 -0.269,-0.281 -0.371,-0.164 -1.221,1.413 -2.629,2.689 -3.533,4.344 z m 3.518,-4.285 c 0.05,0.14 0.455,0.19 0.402,0.044 -0.695,-1.853 -1.568,-3.615 -2.578,-5.318 -0.07,-0.117 -0.475,-0.152 -0.375,0.018 0.998,1.683 1.863,3.422 2.551,5.256 z m -6.053,8.526 c 0.361,-0.034 0.029,-0.36 -0.199,-0.335 -2.125,0.204 -4.289,0.293 -6.404,-0.062 -2.315,-0.386 -4.447,-1.271 -6.631,-2.099 -1.608,-0.61 -4.81,-2.865 -6.078,-0.674 -0.125,0.217 0.394,0.395 0.494,0.221 0.774,-1.337 1.948,-0.671 2.991,-0.229 0.783,0.332 1.574,0.645 2.372,0.942 1.455,0.548 2.898,1.195 4.396,1.617 2.979,0.834 5.993,0.916 9.059,0.619 z m -0.289,-0.293 c -0.361,0.009 0.033,0.279 0.214,0.275 0.887,-0.029 1.801,-0.533 2.348,-1.227 0.635,-0.805 0.696,-1.902 0.725,-2.896 0.004,-0.189 -0.533,-0.289 -0.537,-0.144 -0.025,0.83 -0.029,2.002 -0.566,2.685 -0.52,0.663 -1.311,1.282 -2.184,1.307 z" />
    <path
       id="linesArmLeft_2_"
       fill="#010101"
       d="m 15.689,78.011 c -0.199,-0.125 -0.654,0.015 -0.348,0.208 0.657,0.408 0.944,1.199 1.389,1.79 0.367,0.487 0.746,0.962 1.133,1.43 0.865,1.039 1.756,2.058 2.582,3.128 0.132,0.173 0.642,0.136 0.441,-0.129 -0.904,-1.172 -1.894,-2.276 -2.826,-3.426 -0.753,-0.931 -1.343,-2.36 -2.371,-3.001 z m -5.235,6.15 c -0.114,-0.132 -0.653,-0.168 -0.501,0.012 1.203,1.414 2.998,2.457 4.506,3.511 1.193,0.834 2.324,1.636 3.416,2.61 0.133,0.117 0.664,0.118 0.432,-0.09 -0.945,-0.842 -1.89,-1.604 -2.945,-2.295 -1.611,-1.057 -3.669,-2.29 -4.908,-3.748 z" />
    <path
       id="linesArmRight_2_"
       fill="#010101"
       d="m 50.25,73.711 c -0.072,-0.232 -0.605,-0.233 -0.514,0.065 0.408,1.308 0.666,2.641 1.131,3.932 0.084,0.229 0.621,0.229 0.515,-0.066 -0.466,-1.289 -0.724,-2.625 -1.132,-3.931 z m 1.143,3.67 c 0,-0.139 -0.535,-0.209 -0.535,-0.141 0.004,2.598 -1.196,4.065 -2.96,5.815 -0.065,0.065 0.414,0.267 0.505,0.175 1.76,-1.748 2.993,-3.229 2.99,-5.849 z" />
    <path
       id="linesShirt_2_"
       fill="#010101"
       d="m 31.803,41.053 c -0.318,-0.1 -0.381,0.152 -0.068,0.251 3.644,1.152 7.325,2.804 10.272,5.28 0.125,0.105 0.658,0.12 0.426,-0.076 -3.049,-2.561 -6.86,-4.264 -10.63,-5.455 z m 6.742,9.003 c -0.088,-0.184 -0.628,-0.221 -0.505,0.032 1.142,2.379 3.564,4.286 3.884,7.021 0.42,3.579 -0.972,6.974 0.051,10.559 0.9,3.162 1.922,6.25 3.234,9.266 1.378,3.173 2.835,6.306 3.9,9.603 0.065,0.203 0.608,0.272 0.539,0.055 -2.166,-6.693 -6.072,-12.87 -7.375,-19.846 -0.385,-2.072 -0.152,-4.1 0.078,-6.174 0.166,-1.482 0.373,-3.054 -0.145,-4.495 -0.807,-2.25 -2.636,-3.884 -3.661,-6.021 z m 11.107,36.526 c 0.002,-0.255 -0.543,-0.327 -0.543,-0.035 -0.002,0.745 -0.285,1.135 -0.461,1.796 -0.021,0.072 0.008,0.206 0.037,0.274 0.199,0.454 0.723,0.754 0.879,1.281 0.27,0.929 0.103,1.677 -0.426,2.476 -0.729,1.109 -0.121,2.698 0.549,3.718 0.601,0.915 -0.879,1.306 -1.631,1.545 -1.522,0.481 -3.101,0.778 -4.679,1.001 -3.731,0.527 -7.677,0.872 -11.382,-0.015 -2.725,-0.652 -5.286,-1.751 -7.811,-2.942 -1.021,-0.48 -2.051,-1.081 -3.115,-1.455 -0.578,-0.203 -0.613,0.102 -1.168,0.269 -0.326,0.099 0.061,0.451 0.305,0.377 0.636,-0.192 0.886,-0.193 1.57,0.127 0.723,0.339 1.443,0.683 2.166,1.021 1.273,0.597 2.551,1.194 3.865,1.7 2.252,0.869 4.594,1.571 7.012,1.763 3.598,0.287 7.366,-0.084 10.897,-0.803 0.763,-0.155 5.46,-0.896 4.683,-2.461 -0.444,-0.896 -0.957,-1.57 -1.027,-2.634 -0.061,-0.9 0.725,-1.592 0.878,-2.496 0.133,-0.781 -0.261,-1.76 -0.806,-2.315 -0.435,-0.439 0.07,-0.622 0.146,-1.119 0.055,-0.36 0.06,-0.707 0.062,-1.073 z M 18.454,55.832 c 0.043,-0.176 -0.36,-0.282 -0.401,-0.108 -0.258,1.052 -1.031,2.522 -2.199,2.753 -0.265,0.053 -0.043,0.313 0.146,0.276 1.306,-0.259 2.161,-1.716 2.454,-2.921 z m -2.26,2.786 c 0.178,-0.15 -0.172,-0.348 -0.311,-0.234 -0.979,0.831 -1.061,1.95 -1.523,3.08 -0.508,1.24 -1.166,2.501 -0.959,3.884 0.114,0.75 0.36,1.536 0.347,2.298 -0.011,0.623 -0.173,1.265 -0.148,1.889 0.056,1.282 1.869,2.816 0.416,3.771 -0.192,0.125 0.161,0.33 0.31,0.232 0.908,-0.596 0.861,-1.367 0.322,-2.239 -0.33,-0.527 -0.668,-1.088 -0.642,-1.734 0.028,-0.622 0.199,-1.263 0.147,-1.888 -0.143,-1.752 -0.605,-3.176 0.105,-4.896 0.549,-1.321 0.816,-3.214 1.936,-4.163 z m -5.372,12.015 c 0.175,0.023 -0.051,-0.097 -0.119,-0.108 -2.805,-0.378 -6.404,0.344 -7.707,3.145 -0.02,0.045 0.24,0.135 0.27,0.072 1.28,-2.751 4.796,-3.482 7.556,-3.109 z m 3.53,2.547 c -0.373,-0.045 -0.16,0.229 0.088,0.258 1.457,0.177 2.437,1.444 2.315,2.854 -0.061,0.727 -0.262,1.842 -1.22,1.762 -0.356,-0.03 0.046,0.255 0.216,0.271 1.338,0.11 1.64,-1.448 1.535,-2.507 -0.143,-1.466 -1.548,-2.471 -2.934,-2.638 z m 1.363,5.258 c 0.047,0.179 0.584,0.261 0.534,0.067 -0.361,-1.43 -2.884,-0.623 -3.613,-0.083 -1.563,1.16 -3.573,3.56 -2.782,5.672 0.112,0.305 0.383,0.621 0.651,0.807 0.524,0.365 0.502,0.195 -0.106,0.496 C 9.681,85.752 9.231,86.142 8.36,86.125 7.366,86.105 6.259,85.85 5.489,85.177 2.491,82.553 4.337,78.706 7.177,77.012 7.392,76.883 6.896,76.668 6.749,76.756 5.27,77.638 3.728,78.985 3.485,80.804 c -0.191,1.433 0.198,3.249 1.336,4.246 0.928,0.81 2.166,1.342 3.408,1.366 1.322,0.025 2.135,-0.534 3.27,-1.094 0.109,-0.056 0.029,-0.165 -0.049,-0.205 -1.805,-0.944 -1.295,-2.883 -0.377,-4.287 0.4,-0.611 0.863,-1.211 1.422,-1.69 0.374,-0.321 2.88,-2.043 3.22,-0.702 z M 3.965,80.412 C 4.292,80.517 4.381,80.165 4.059,80.062 2.006,79.4 1.953,74.78 3.34,73.58 3.57,73.381 3.096,73.131 2.926,73.279 c -1.199,1.036 -1.068,2.692 -0.92,4.158 0.139,1.358 0.586,2.533 1.959,2.975 z m 40.871,-5.058 c -0.37,-0.043 -0.207,0.294 0.062,0.327 1.876,0.221 3.485,-0.365 4.958,-1.507 0.543,-0.421 2.461,-1.972 1.902,-2.888 -0.082,-0.136 -0.252,-0.224 -0.377,-0.308 -0.779,-0.525 -0.738,-1.136 -0.688,-1.935 0.039,-0.575 0.053,-1.224 -0.319,-1.708 -0.259,-0.338 -1.507,-1.16 -1.321,-1.587 0.321,-0.739 0.65,-1.571 0.648,-2.39 -0.004,-2.308 -2.122,-3.814 -2.878,-5.882 -0.539,-1.47 -1.157,-2.922 -1.61,-4.42 -0.416,-1.372 -0.82,-2.754 -1.359,-4.084 -0.402,-0.992 -0.842,-2.148 -1.744,-2.798 -0.182,-0.13 -0.633,-0.027 -0.338,0.186 1.25,0.902 1.764,3.034 2.211,4.409 0.375,1.152 0.664,2.34 1.098,3.472 0.707,1.852 1.259,3.906 2.464,5.51 0.688,0.916 1.617,1.976 1.62,3.187 0.003,1.062 -0.336,2.054 -0.808,2.992 -0.032,0.064 0.059,0.135 0.098,0.165 0.57,0.442 1.492,0.983 1.648,1.761 0.139,0.69 -0.039,1.302 -0.066,1.982 -0.023,0.592 0.566,1.043 1.007,1.328 1.003,0.647 -1.466,2.647 -1.899,2.959 -1.285,0.923 -2.703,1.418 -4.309,1.229 z M 14.146,65.268 c -0.147,-0.181 -0.658,-0.116 -0.445,0.145 2.449,3.017 6.836,7.054 6.083,11.396 -0.214,1.236 -1.705,1.864 -0.939,3.296 0.422,0.789 2.502,2.44 2.127,3.25 -1.514,3.261 -6.049,9.153 -1.428,11.916 0.213,0.128 0.663,-0.044 0.352,-0.23 -2.832,-1.693 -1.678,-5.185 -0.514,-7.588 0.541,-1.118 1.177,-2.18 1.771,-3.267 0.135,-0.244 0.62,-0.895 0.438,-1.201 -0.68,-1.154 -3.545,-3.285 -1.967,-4.648 0.891,-0.77 0.76,-2.036 0.641,-3.102 -0.43,-3.901 -3.764,-7.065 -6.119,-9.967 z M 2.943,73.424 c 0.095,0.11 0.619,0.171 0.49,0.018 C 2.466,72.306 2.046,70.256 3.439,69.28 3.546,69.205 3.074,68.992 2.937,69.087 1.482,70.106 1.936,72.241 2.943,73.424 Z M 20.081,39.786 c -0.063,-0.131 -0.467,-0.167 -0.378,0.019 0.975,2.033 2.701,3.612 4.666,4.679 1.619,0.881 3.748,1.911 5.637,1.935 1.387,0.018 2.916,-0.743 3.643,-1.943 0.744,-1.232 -0.662,-2.08 -1.619,-2.467 -0.191,-0.077 -0.424,0.083 -0.166,0.188 1.976,0.799 1.877,2.359 0.158,3.334 -1.406,0.797 -2.638,0.658 -4.15,0.185 -3.17,-0.992 -6.307,-2.837 -7.791,-5.93 z m -0.246,-0.224 c 0.201,-0.062 -0.284,-0.286 -0.43,-0.24 -3.717,1.175 -7.478,2.862 -10.486,5.388 -0.125,0.104 0.366,0.31 0.5,0.2 2.987,-2.511 6.721,-4.181 10.416,-5.348 z M 9.376,44.973 c 0.116,-0.119 -0.388,-0.314 -0.497,-0.199 -1.447,1.478 -3.318,2.681 -4.412,4.472 -0.67,1.095 -0.711,2.084 -0.994,3.292 -0.299,1.274 -0.824,2.495 -0.895,3.813 -0.064,1.225 0.584,2.359 0.762,3.545 0.199,1.352 -0.131,2.556 -0.537,3.831 -0.63,1.989 -1.531,4.244 -0.609,6.281 0.07,0.156 0.593,0.211 0.531,0.08 C 1.754,67.942 2.83,65.585 3.455,63.496 3.746,62.523 4.091,61.458 3.937,60.427 3.762,59.248 3.195,58.101 3.133,56.912 3.055,55.401 3.752,54.133 4.004,52.681 4.189,51.637 4.237,50.635 4.81,49.702 5.972,47.797 7.837,46.543 9.376,44.973 Z" />
    <path
       id="linesHead_2_"
       fill="#010101"
       d="m 20.491,28.286 c 0.049,-0.157 -0.352,-0.269 -0.404,-0.11 -0.256,0.823 -0.701,1.815 -1.842,1.415 -0.472,-0.167 -0.91,-0.402 -1.32,-0.688 -0.793,-0.556 -1.608,-1.214 -2.06,-2.095 -0.444,-0.863 -0.696,-1.846 -0.463,-2.819 0.277,-1.156 1.021,-3.126 2.82,-2.025 0.145,0.089 0.488,-0.004 0.258,-0.147 -3.176,-1.942 -4.307,3.243 -2.799,5.332 1.269,1.76 4.765,4.46 5.81,1.137 z m -4.545,-1.617 c 0.078,-0.03 0.201,0.051 0.275,0.183 -0.051,0.067 0.869,1.12 2.17,0.793 0.601,-0.105 1.261,-0.24 1.695,0.005 0.393,0.344 0.053,0.725 0.127,0.699 -0.066,0.031 0.225,-0.379 -0.154,-0.659 -0.409,-0.202 -1.045,-0.043 -1.641,0.103 -1.334,0.45 -2.502,-0.668 -2.449,-0.775 C 15.876,26.856 15.87,26.7 15.946,26.669 Z m 3.568,-1.157 c -0.051,0.067 -0.205,0.015 -0.348,-0.115 -0.16,0.025 -0.888,-1.277 -1.988,-1.985 -0.601,-0.253 -1.347,-0.19 -1.732,0.122 -0.383,0.339 -0.274,0.754 -0.313,0.733 0.041,0.02 -0.101,-0.387 0.283,-0.77 0.39,-0.351 1.152,-0.462 1.822,-0.226 1.248,0.722 1.983,1.943 2.131,1.901 0.13,0.12 0.194,0.271 0.145,0.34 z m 18.106,3.775 c 0.115,-0.046 -0.129,-0.166 -0.213,-0.134 -0.472,0.19 -0.863,0.687 -1.4,0.686 -0.766,-0.002 -0.928,-0.754 -0.557,-1.293 0.064,-0.093 -0.195,-0.185 -0.248,-0.107 -0.371,0.539 -0.257,1.296 0.436,1.495 0.304,0.087 0.705,0.109 0.99,-0.054 0.332,-0.192 0.635,-0.45 0.992,-0.593 z m 0.398,0.139 c -0.129,0.008 0.125,0.103 0.177,0.1 0.708,-0.044 2.446,-0.458 2.147,-1.516 -0.178,-0.631 -0.701,-0.892 -1.248,-1.179 -0.823,-0.433 -1.149,-1.055 -1.448,-1.882 -0.024,-0.065 -0.278,-0.09 -0.264,-0.052 0.172,0.474 0.355,1.074 0.74,1.419 0.458,0.412 1.091,0.56 1.538,0.973 1.293,1.191 -0.604,2.072 -1.642,2.137 z M 39.843,21.6 c 0.114,0.185 0.659,0.198 0.507,-0.048 -0.404,-0.666 -0.072,-1.827 -0.021,-2.557 0.072,-1.087 -0.107,-2.052 -0.748,-2.943 -0.131,-0.183 -0.638,-0.133 -0.443,0.138 0.802,1.118 0.652,2.282 0.572,3.559 -0.035,0.565 -0.176,1.343 0.133,1.851 z m 0.459,-0.011 c -0.043,-0.188 -0.455,-0.233 -0.408,-0.026 0.241,1.062 1.078,1.682 1.512,2.643 0.686,1.524 1.004,3.016 0.707,4.678 -0.464,2.611 -1.714,4.878 -2.652,7.324 -0.073,0.185 0.328,0.297 0.4,0.107 1.047,-2.73 2.442,-5.215 2.762,-8.176 0.115,-1.062 -0.084,-2.168 -0.479,-3.159 -0.471,-1.181 -1.565,-2.17 -1.842,-3.391 z m -0.277,14.267 c 0.068,-0.184 -0.332,-0.296 -0.4,-0.105 -0.341,0.94 -0.627,2.481 -1.565,3.012 -0.894,0.505 -1.912,0.585 -2.914,0.63 -2.541,0.113 -5.099,-0.622 -7.312,-1.853 -3.123,-1.741 -7.264,-4.169 -7.746,-8.05 -0.023,-0.189 -0.435,-0.239 -0.406,-0.027 0.27,2.179 1.602,3.883 3.295,5.209 1.924,1.509 4.098,3.028 6.383,3.924 2.293,0.9 4.82,1.413 7.283,0.98 2.218,-0.392 2.667,-1.747 3.382,-3.72 z m -7.882,3.661 c 0.024,-0.166 -0.517,-0.285 -0.537,-0.144 -0.188,1.319 -0.408,2.741 0.623,3.766 0.101,0.103 0.625,0.154 0.49,0.02 -0.992,-0.99 -0.758,-2.375 -0.576,-3.642 z m 7.085,-22.883 c 0.053,0.202 0.596,0.279 0.539,0.057 C 38.785,12.89 36.684,9.837 32.682,8.98 32.356,8.911 32.268,9.215 32.6,9.286 c 3.789,0.811 5.709,3.788 6.628,7.348 z m -2.425,6.405 c 0.024,0.029 0.157,0.045 0.123,0.003 -0.846,-1.068 -0.209,-3.757 0.795,-4.566 0.029,-0.025 -0.094,-0.076 -0.125,-0.05 -1.029,0.829 -1.664,3.51 -0.793,4.613 z M 20.37,31.717 c 0.06,0.158 0.463,0.173 0.382,-0.041 -0.007,-0.019 -0.015,-0.038 -0.021,-0.057 -0.061,-0.159 -0.461,-0.173 -0.381,0.039 0.451,1.209 0.481,2.663 0.428,3.935 -0.056,1.326 -0.129,3.071 -1.07,4.114 -0.129,0.145 0.252,0.303 0.369,0.173 0.901,-0.997 1.037,-2.624 1.092,-3.902 0.062,-1.426 0.072,-3 -0.436,-4.358 -0.061,-0.158 -0.461,-0.173 -0.383,0.039 0.006,0.02 0.014,0.039 0.02,0.058 z" />
    <path
       id="linesMouth_2_"
       fill="#010101"
       d="m 34.653,33.196 c 0.029,-0.073 -0.234,-0.155 -0.266,-0.073 -0.055,0.134 -0.11,0.275 -0.094,0.423 0.018,0.162 0.053,0.314 0.055,0.477 0.002,0.095 0.27,0.14 0.268,0.072 -0.002,-0.154 -0.026,-0.299 -0.047,-0.451 -0.025,-0.16 0.025,-0.302 0.084,-0.448 z m 0,0.298 c -0.186,-0.024 -0.098,0.139 0.035,0.155 1.908,0.251 4.036,-0.102 5.583,-1.3 0.08,-0.06 -0.17,-0.168 -0.248,-0.106 -1.484,1.148 -3.54,1.491 -5.37,1.251 z m 5.36,-1.234 c -0.043,0.09 0.219,0.174 0.27,0.072 0.466,-0.939 -0.116,-1.54 -1.096,-1.506 -1.202,0.041 -2.106,0.942 -3.04,1.59 -0.115,0.079 0.131,0.194 0.211,0.138 0.727,-0.505 1.381,-1.084 2.206,-1.427 0.34,-0.141 0.797,-0.194 1.152,-0.085 0.643,0.197 0.535,0.739 0.297,1.218 z m -0.172,0.201 c -0.189,-0.033 -0.054,0.078 0.051,0.098 0.297,0.053 0.5,1.014 0.449,1.228 -0.092,0.396 -0.295,0.752 -0.602,1.028 -1.187,1.081 -2.868,1.253 -4.122,0.082 -0.047,-0.043 -0.299,-0.074 -0.242,-0.021 1.176,1.098 2.996,1.34 4.312,0.29 0.476,-0.38 1.144,-1.08 0.904,-1.767 -0.125,-0.357 -0.334,-0.865 -0.75,-0.938 z" />
    <path
       id="linesEyes_2_"
       fill="#010101"
       d="m 30.317,21.741 c 0.178,0.015 -0.027,-0.122 -0.111,-0.129 -0.788,-0.068 -1.565,-0.191 -2.309,-0.468 -0.112,-0.041 -0.276,0.019 -0.1,0.084 0.815,0.304 1.659,0.439 2.52,0.513 z m -1.77,0.154 c 0.184,0.011 0.116,-0.168 -0.029,-0.177 -0.502,-0.031 -0.979,-0.055 -1.43,-0.308 -0.127,-0.07 -0.271,0.049 -0.111,0.139 0.49,0.278 1.017,0.314 1.57,0.346 z m -0.75,0.234 c 0.106,-0.035 -0.136,-0.149 -0.215,-0.124 -0.434,0.145 -0.944,0.035 -1.344,-0.168 -0.08,-0.041 -0.322,-0.013 -0.162,0.068 0.512,0.261 1.16,0.412 1.721,0.224 z m 8.979,-0.206 c -0.004,0.166 0.398,0.249 0.403,0.109 0.019,-0.72 0.295,-1.468 0.99,-1.785 0.52,-0.238 1.265,-0.26 1.497,0.376 0.05,0.143 0.457,0.192 0.402,0.045 -0.248,-0.684 -1.051,-0.938 -1.721,-0.792 -0.999,0.215 -1.544,1.056 -1.571,2.047 z m 0.24,0.158 c -0.031,-0.016 -0.156,-0.023 -0.076,0.016 0.406,0.201 0.965,0.421 1.421,0.251 0.671,-0.251 1.23,-0.773 1.648,-1.348 0.008,-0.013 -0.112,-0.068 -0.135,-0.036 -0.666,0.92 -1.639,1.721 -2.858,1.117 z m -4.765,0.633 c 0.011,0.187 0.42,0.242 0.409,0.029 -0.059,-1.141 -1.781,-1.261 -2.625,-1.26 -1.819,0.003 -3.139,0.936 -4.6,1.914 -0.193,0.129 0.155,0.34 0.309,0.237 1.14,-0.764 2.304,-1.715 3.734,-1.826 0.699,-0.054 2.72,-0.148 2.773,0.906 z m 0.375,0.05 c 0.011,-0.089 -0.258,-0.146 -0.267,-0.072 -0.135,1.206 -1.988,1.437 -2.951,1.541 -1.514,0.163 -2.452,-0.191 -3.77,-0.762 -0.112,-0.049 -0.274,0.014 -0.1,0.089 1.461,0.634 2.381,1.022 4.037,0.804 0.99,-0.132 2.91,-0.335 3.051,-1.6 z m 6.989,-3.41 c -0.012,-0.056 -0.149,-0.074 -0.135,-0.012 0.055,0.273 -0.158,0.442 -0.406,0.484 -0.09,0.015 -0.017,0.105 0.047,0.094 0.289,-0.047 0.56,-0.242 0.494,-0.566 z m 0.549,0.094 c -0.053,-0.104 -0.325,-0.106 -0.254,0.029 0.147,0.293 -0.162,0.434 -0.4,0.496 -0.062,0.017 -0.074,0.084 -0.035,0.128 0.044,0.055 0.123,0.069 0.189,0.051 0.334,-0.088 0.695,-0.318 0.5,-0.704 z m -1.149,-0.094 c -0.011,-0.06 -0.148,-0.077 -0.137,-0.01 0.057,0.273 -0.156,0.439 -0.404,0.481 -0.09,0.015 -0.019,0.109 0.045,0.098 0.291,-0.048 0.562,-0.245 0.496,-0.569 z m -10.45,2.417 c -0.103,-0.063 -0.33,0.017 -0.174,0.112 1.016,0.615 1.188,1.754 0.059,2.348 -0.127,0.066 0.111,0.198 0.207,0.147 0.49,-0.258 0.977,-0.727 0.875,-1.338 -0.094,-0.572 -0.487,-0.978 -0.967,-1.269 z m 9.674,-1.674 c -0.135,-0.066 -0.281,0.077 -0.119,0.158 0.806,0.393 0.679,1.545 -0.043,1.946 -0.131,0.071 0.105,0.211 0.207,0.153 0.89,-0.494 0.872,-1.809 -0.045,-2.257 z m -12.141,3.294 c -0.009,-0.107 -0.279,-0.153 -0.268,-0.025 0.008,0.094 0.035,0.166 0.084,0.248 0.043,0.073 0.217,0.125 0.26,0.025 0.022,-0.048 0.033,-0.099 0.051,-0.149 -0.092,-0.017 -0.182,-0.032 -0.27,-0.05 0,0.042 0,0.083 0,0.125 0,0.106 0.27,0.155 0.27,0.026 0,-0.102 0.003,-0.202 0.023,-0.303 -0.09,-0.017 -0.18,-0.033 -0.268,-0.049 0.01,0.104 0.045,0.198 0.074,0.3 0.024,0.082 0.245,0.166 0.27,0.049 0.049,-0.231 0.125,-0.439 0.264,-0.63 -0.082,-0.037 -0.164,-0.075 -0.246,-0.112 -0.217,0.342 -0.213,0.667 0.037,0.989 0.066,-0.027 0.133,-0.055 0.197,-0.083 -0.162,-0.111 -0.357,-0.173 -0.502,-0.306 -0.048,-0.046 -0.123,-0.071 -0.189,-0.052 -0.054,0.016 -0.076,0.073 -0.031,0.115 0.164,0.151 0.367,0.223 0.549,0.345 0.072,0.049 0.297,0.046 0.197,-0.083 -0.205,-0.262 -0.184,-0.541 -0.012,-0.812 0.068,-0.108 -0.186,-0.199 -0.248,-0.112 -0.146,0.204 -0.232,0.425 -0.285,0.671 0.09,0.017 0.18,0.032 0.27,0.049 -0.031,-0.1 -0.066,-0.196 -0.076,-0.3 -0.008,-0.093 -0.248,-0.154 -0.268,-0.049 -0.025,0.116 -0.027,0.232 -0.027,0.348 0.089,0.009 0.179,0.017 0.271,0.026 0,-0.042 0,-0.083 0,-0.125 0,-0.099 -0.239,-0.151 -0.27,-0.049 -0.016,0.049 -0.031,0.1 -0.051,0.149 0.086,0.008 0.174,0.017 0.26,0.026 -0.039,-0.065 -0.06,-0.125 -0.066,-0.202 z" />
    <path
       id="linesEyebrows_2_"
       fill="#010101"
       d="m 32.444,19.078 c 0.512,-0.002 -0.496,-0.408 -0.702,-0.409 -1.238,0.007 -2.588,-0.481 -3.818,-0.192 -1.193,0.281 -2.195,0.906 -3.242,1.521 -0.105,0.061 0.756,0.504 1.012,0.353 0.943,-0.553 2,-1.344 3.117,-1.479 1.207,-0.147 2.422,0.212 3.633,0.206 z m 4.734,-0.32 c -0.056,0.213 0.479,0.357 0.535,0.143 0.261,-0.966 1.405,-1.437 2.157,-1.963 0.23,-0.161 -0.258,-0.394 -0.42,-0.279 -0.804,0.561 -1.993,1.065 -2.272,2.099 z" />
    <path
       id="linesHair_2_"
       fill="#010101"
       d="m 16.188,29.396 c 0.033,-0.057 -0.346,-0.207 -0.403,-0.106 -0.604,1.069 -1.161,2.183 -1.844,3.207 -0.576,0.861 -2.615,3.785 -3.215,1.339 -0.707,-2.887 -0.025,-5.867 1.068,-8.586 0.029,-0.076 -0.363,-0.206 -0.402,-0.108 -0.73,1.819 -1.506,4.196 -1.422,6.165 0.049,1.152 0.043,3.248 1.283,3.777 1.996,0.849 4.259,-4.494 4.935,-5.688 z m 3.043,-8.644 c 0.047,0.085 0.316,0.106 0.25,-0.011 -0.766,-1.415 -1.916,-2.356 -1.963,-4.114 -0.055,-2.086 1.598,-3.342 3.211,-4.39 3.271,-2.124 6.64,-2.829 10.445,-1.964 0.162,0.038 0.205,-0.11 0.041,-0.147 -3.81,-0.868 -7.426,-0.276 -10.697,1.974 -1.492,1.027 -3.134,2.133 -3.277,4.083 -0.143,1.959 1.148,3.011 1.99,4.569 z M 31.563,10.318 c 0.186,0.031 0.061,-0.087 -0.05,-0.103 C 30.896,10.118 29.988,9.479 29.392,9.218 28.974,9.035 28.543,8.862 28.107,8.718 27.365,8.474 26.605,8.25 25.822,8.165 c -1.99,-0.216 -3.94,0.198 -5.885,0.591 -0.078,0.015 0.155,0.119 0.219,0.106 2.209,-0.446 4.528,-0.984 6.764,-0.401 1.334,0.347 2.696,0.836 3.844,1.607 0.279,0.188 0.475,0.199 0.799,0.25 z M 31.54,10.23 c -0.039,0.09 0.224,0.171 0.267,0.073 C 32.218,9.387 33.61,8.161 32.827,7.048 32.27,6.256 31.403,5.901 30.497,5.633 29.157,5.237 27.792,4.741 26.401,4.568 25.073,4.404 23.794,4.579 22.487,4.824 c -0.156,0.028 0.07,0.171 0.162,0.152 2.614,-0.49 4.666,-0.11 7.182,0.618 1.144,0.331 3.586,0.994 2.83,2.733 -0.297,0.685 -0.818,1.222 -1.121,1.903 z m 4.119,0.327 c -0.11,0.236 0.422,0.39 0.535,0.146 C 37.139,8.628 35.951,6.047 34.012,4.969 31.53,3.589 28.994,3.054 26.176,3.262 c -0.361,0.027 -0.091,0.427 0.182,0.406 2.389,-0.176 4.477,0.204 6.645,1.243 2.094,1.001 3.717,3.319 2.656,5.646 z M 19.481,20.75 c -0.049,-0.055 -0.314,-0.082 -0.247,-0.007 0.533,0.589 0.656,1.384 0.674,2.153 0.006,0.298 0.004,0.598 0,0.896 -0.008,0.552 -0.678,-0.063 -0.826,-0.255 -0.496,-0.646 -0.854,-1.491 -1.684,-1.755 -0.158,-0.052 -0.183,0.057 -0.027,0.106 1.207,0.386 1.258,2.312 2.721,2.325 0.018,0 0.08,0 0.08,-0.029 0.008,-1.154 0.141,-2.511 -0.691,-3.434 z M 18.557,0.67 C 18.823,0.646 18.321,0.443 18.208,0.456 14.104,0.819 9.697,2.549 6.648,5.375 3.562,8.238 1.685,12.335 0.683,16.378 0.228,18.219 -0.17,20.28 0.074,22.183 0.165,22.875 0.64,23.14 1.279,23.125 2.607,23.093 3.271,20.948 3.603,19.993 4.255,18.127 4.947,16.154 6.193,14.595 6.228,14.548 5.76,14.323 5.656,14.451 4.631,15.731 3.941,17.347 3.4,18.89 3.008,20.015 2.583,22.081 1.419,22.686 0.398,23.218 0.542,21.838 0.566,21.276 0.601,20.465 0.634,19.653 0.755,18.849 1.04,16.95 1.566,15.108 2.269,13.32 3.556,10.047 5.224,6.879 8.128,4.752 11.17,2.524 14.785,1.003 18.557,0.67 Z m -6.741,24.882 c 0.064,-0.147 -0.332,-0.267 -0.402,-0.11 -0.342,0.79 -0.576,1.781 -1.072,2.496 -0.576,0.828 -2.75,3.794 -3.373,1.534 C 6.21,26.72 6.807,23.735 8.82,21.699 8.945,21.574 8.562,21.418 8.449,21.532 c -1.287,1.303 -2.061,2.958 -2.188,4.83 -0.07,1.071 -0.197,3.619 1.057,4.184 2.284,1.028 3.868,-3.533 4.498,-4.994 z M 5.098,16.342 C 5.194,16.161 4.809,16.018 4.731,16.167 4.063,17.444 3.739,18.986 3.409,20.384 3.026,21.998 2.698,23.735 3.104,25.376 3.307,26.189 3.821,26.704 4.645,26.769 5.618,26.848 6.26,25.732 6.707,25.064 6.82,24.897 6.437,24.747 6.342,24.891 6.104,25.242 5.885,25.648 5.578,25.942 4.205,27.254 3.574,25.905 3.435,25.116 3.255,24.085 3.312,23.025 3.494,21.997 3.818,20.188 4.238,17.988 5.098,16.342 Z M 19.09,31.037 c 0.059,-0.133 -0.335,-0.256 -0.403,-0.109 -0.565,1.285 -1.198,2.561 -2.012,3.707 -0.293,0.411 -2.248,2.757 -2.282,0.938 -0.031,-1.523 0.264,-2.698 0.803,-4.135 0.055,-0.139 -0.342,-0.257 -0.4,-0.107 -0.354,0.945 -0.799,1.927 -0.791,2.956 0.002,0.599 -0.254,1.799 0.469,2.108 0.775,0.332 1.533,-0.234 2.002,-0.829 1.083,-1.381 1.907,-2.927 2.614,-4.529 z m -0.689,1.587 c 0.025,-0.129 -0.379,-0.228 -0.402,-0.109 -0.266,1.327 -0.36,3.467 0.525,4.62 0.893,1.16 1.983,0.129 2.598,-0.752 0.08,-0.119 -0.307,-0.248 -0.375,-0.15 -0.219,0.315 -1.094,1.635 -1.643,1.142 -0.352,-0.316 -0.53,-0.801 -0.635,-1.252 -0.267,-1.135 -0.298,-2.358 -0.068,-3.499 z" />
    <path
       id="linesHeadband_2_"
       fill="#010101"
       d="m 30.141,3.786 c 0.047,0.064 0.283,0.073 0.264,0.046 -1.197,-1.684 -3.474,-2.031 -5.4,-2.093 -2.728,-0.091 -5.416,1.037 -7.443,2.842 -2.447,2.177 -3.953,5.087 -4.098,8.392 -0.119,2.738 0.39,6.551 2.549,8.494 0.049,0.043 0.301,0.072 0.242,0.02 -1.901,-1.712 -2.578,-5.187 -2.547,-7.608 0.03,-2.441 0.595,-4.981 2.063,-6.979 1.676,-2.276 4.183,-4.244 7,-4.833 2.352,-0.49 5.849,-0.417 7.37,1.719 z m 0.225,-0.113 c 0.058,0.08 0.332,0.09 0.249,-0.017 C 26.66,-1.702 17.074,-0.668 12.67,3.524 7.029,8.896 7.953,18.232 14.035,22.878 c 0.094,0.072 0.316,0.01 0.172,-0.099 C 8.889,18.716 7.197,10.199 11.717,4.9 14.162,2.038 17.33,0.664 21.016,0.356 c 3.504,-0.291 7.135,0.319 9.35,3.317 z" />
    <path
       id="linesGlasses_2_"
       fill="#010101"
       d="m 32.725,21.058 c -0.092,-0.177 -0.633,-0.217 -0.504,0.03 0.391,0.769 0.754,1.563 0.842,2.432 0.074,0.73 -1.506,1.002 -2.09,1.154 -1.594,0.415 -3.286,0.807 -4.932,0.894 -1.137,0.061 -1.07,-1.007 -1.213,-1.638 -0.189,-0.832 0.17,-0.941 0.971,-1.194 0.776,-0.243 1.559,-0.449 2.354,-0.609 1.457,-0.293 2.947,-0.698 4.418,-0.884 0.362,-0.045 0.031,-0.366 -0.199,-0.337 -2.723,0.342 -5.76,0.927 -8.266,2.062 -0.036,0.015 -0.077,0.069 -0.059,0.111 0.342,0.877 0.237,1.911 0.973,2.581 0.421,0.384 1.158,0.256 1.65,0.192 2.365,-0.305 4.693,-0.752 6.918,-1.637 0.045,-0.016 0.063,-0.066 0.059,-0.11 -0.082,-1.109 -0.42,-2.06 -0.922,-3.047 z m 3.504,-0.42 c -0.17,0.165 0.336,0.376 0.492,0.225 1.025,-0.996 2.794,-1.512 4.192,-1.601 0.364,-0.023 0.041,-0.367 -0.195,-0.351 -1.51,0.097 -3.382,0.653 -4.489,1.727 z m 4.853,-1.51 c -0.063,-0.152 -0.584,-0.21 -0.532,-0.082 0.375,0.89 0.239,1.892 0.229,2.833 -0.002,0.178 0.535,0.268 0.537,0.144 0.006,-0.958 0.149,-1.988 -0.234,-2.895 z m 0.181,2.946 c 0.209,-0.087 -0.283,-0.307 -0.429,-0.243 -1.351,0.561 -2.774,0.835 -4.157,1.293 0.16,0.054 0.32,0.106 0.48,0.16 -0.274,-0.817 -0.514,-1.586 -0.506,-2.46 0,-0.197 -0.535,-0.293 -0.537,-0.145 -0.006,0.891 0.227,1.689 0.51,2.529 0.054,0.16 0.345,0.205 0.482,0.16 1.384,-0.459 2.803,-0.732 4.157,-1.294 z m -5.102,-0.096 c 0.054,0.168 0.588,0.242 0.535,0.075 -0.562,-1.731 -3.51,-0.079 -3.666,1.189 -0.024,0.187 0.515,0.305 0.535,0.144 0.067,-0.541 0.494,-0.978 0.932,-1.269 0.41,-0.273 1.43,-0.866 1.664,-0.139 z M 16.932,21.271 c -0.615,0.177 0.285,0.713 0.646,0.609 1.356,-0.389 2.774,1.048 4.092,1.338 0.86,0.188 1.674,0.343 2.555,0.41 0.738,0.057 0.406,-0.589 -0.137,-0.631 -1.541,-0.117 -2.775,-0.442 -4.129,-1.2 -0.984,-0.552 -1.916,-0.845 -3.027,-0.526 z" />
  </g>
</svg>
