<?xml version="1.0" encoding="UTF-8" standalone="no"?>
<svg
   version="1.1"
   id="Girl3_x5F_Walk2"
   x="0px"
   y="0px"
   width="47.632156"
   height="192.00186"
   viewBox="0 0 47.632156 192.00185"
   enable-background="new 0 0 101.109 204.445"
   xml:space="preserve"
   sodipodi:docname="avery_walking-b.svg"
   xmlns:inkscape="http://www.inkscape.org/namespaces/inkscape"
   xmlns:sodipodi="http://sodipodi.sourceforge.net/DTD/sodipodi-0.dtd"
   xmlns="http://www.w3.org/2000/svg"
   xmlns:svg="http://www.w3.org/2000/svg"><defs
   id="defs60" /><sodipodi:namedview
   id="namedview58"
   pagecolor="#ffffff"
   bordercolor="#000000"
   borderopacity="0.25"
   inkscape:showpageshadow="2"
   inkscape:pageopacity="0.0"
   inkscape:pagecheckerboard="0"
   inkscape:deskcolor="#d1d1d1" />
  <g
   id="g55"
   transform="translate(-25.740252,-5.9791553)">
    <g
   id="Back_Leg">
      <g
   id="Shoe_1_">
        <path
   id="Sole_1_"
   fill="#bfb3d8"
   d="m 68.65,190.826 c -0.233,0.356 -0.6,0.702 -0.778,0.914 -0.564,0.655 -1.287,1.153 -2.033,1.566 -1.76,0.986 -3.857,1.316 -5.837,1.455 -2.097,0.147 -4.19,-0.016 -6.249,-0.408 -1.21,-0.23 -2.412,-0.5 -3.61,-0.779 -1.18,-0.27 -2.455,-0.586 -3.661,-0.317 0.018,0.032 0.004,0.058 -0.047,0.067 -0.086,0.016 -0.172,0.033 -0.259,0.055 0.005,0.007 0.011,0.015 0.008,0.03 -0.208,0.124 -0.501,0.146 -0.805,0.144 -1.386,0.333 -2.742,0.715 -4.177,0.383 0,0.006 0.004,0.01 0.004,0.016 -0.286,1.067 -0.247,1.913 0.025,2.925 0.643,0.023 1.343,0.254 1.971,0.306 1.235,0.115 2.487,0.039 3.717,-0.081 2.282,-0.222 4.527,-0.721 6.808,-0.959 1.922,-0.202 3.825,0.138 5.676,0.653 2.158,0.605 4.527,0.38 6.592,-0.497 -0.025,-0.045 -0.025,-0.082 0.034,-0.098 2.571,-0.765 2.777,-3.096 2.621,-5.375 z" />
        <path
   id="Fill_10_"
   fill="#4e3a78"
   d="m 41.735,188.367 c -1.162,1.152 -2.232,3.997 -0.814,5.266 0.004,-0.001 0.005,0 0.008,10e-4 0.02,0.003 0.041,0.004 0.071,0.011 1.632,0.396 3.173,-0.215 4.76,-0.546 0.001,-0.023 0.011,-0.044 0.049,-0.059 1.698,-0.539 3.569,0.141 5.238,0.486 2.337,0.481 4.613,0.961 7.011,0.987 2.089,0.02 4.206,-0.23 6.18,-0.943 0.813,-0.293 1.567,-0.711 2.266,-1.221 0.338,-0.251 1.98,-1.654 1.869,-2.303 -2.912,-0.523 -6.107,-0.651 -8.578,-2.421 -0.281,-0.202 0.031,-0.257 0.215,-0.132 -4.169,-2.7 -8.106,-1.517 -8.106,-1.517 l -0.889,1.295 c -5.609,3.115 -7.587,-1.123 -7.587,-1.123 l -1.884,1.964 c 0.136,0.06 0.264,0.179 0.191,0.255 z" />
        <path
   id="Outline_13_"
   d="m 69.052,190.252 c -0.004,-0.04 -0.039,-0.08 -0.087,-0.115 0.124,-0.03 -0.112,-0.258 -0.249,-0.287 -2.518,-0.505 -5.402,-0.578 -7.739,-1.77 -0.002,-0.002 -0.002,-0.003 -0.005,-0.003 -0.334,-0.171 -0.654,-0.365 -0.964,-0.585 -0.184,-0.127 -0.496,-0.07 -0.215,0.132 2.471,1.77 5.667,1.899 8.578,2.421 0.109,0.647 -1.531,2.054 -1.869,2.303 -0.698,0.51 -1.452,0.928 -2.266,1.222 -1.976,0.712 -4.093,0.962 -6.18,0.942 -2.397,-0.025 -4.674,-0.506 -7.011,-0.987 -1.669,-0.344 -3.541,-1.025 -5.238,-0.486 -0.038,0.016 -0.047,0.033 -0.049,0.059 -1.586,0.333 -3.127,0.942 -4.76,0.546 -0.03,-0.008 -0.053,-0.009 -0.071,-0.01 0,0 -0.003,-10e-4 -0.003,-10e-4 -0.004,-0.001 -0.003,-0.002 -0.004,-0.001 -1.418,-1.268 -0.349,-4.115 0.813,-5.265 0.074,-0.077 -0.055,-0.196 -0.19,-0.257 -0.088,-0.041 -0.179,-0.058 -0.219,-0.018 -1.393,1.375 -2.295,4.302 -0.589,5.698 -0.285,1.111 -0.246,2.025 0.087,3.142 0.046,0.144 0.256,0.252 0.4,0.229 0.51,-0.056 1.273,0.228 1.792,0.281 0.567,0.051 1.136,0.094 1.706,0.09 0.983,-0.005 1.967,-0.06 2.947,-0.181 2.265,-0.281 4.542,-0.858 6.823,-0.942 1.413,-0.057 2.826,0.068 4.194,0.435 0.928,0.254 1.863,0.529 2.829,0.573 1.843,0.086 3.672,-0.235 5.343,-1.04 0.021,-0.013 0.023,-0.031 0.016,-0.058 2.425,-1.029 2.414,-3.626 2.18,-6.067 z m -3.061,6.049 c -2.065,0.879 -4.435,1.104 -6.593,0.498 -1.851,-0.516 -3.753,-0.855 -5.676,-0.654 -2.28,0.24 -4.527,0.736 -6.807,0.96 -1.231,0.119 -2.483,0.196 -3.719,0.081 -0.628,-0.054 -1.327,-0.282 -1.969,-0.307 -0.272,-1.011 -0.311,-1.858 -0.024,-2.924 0,-0.007 -0.007,-0.01 -0.007,-0.016 1.437,0.332 2.794,-0.052 4.179,-0.384 0.265,-0.061 0.531,-0.122 0.799,-0.175 0.088,-0.021 0.175,-0.039 0.259,-0.055 0.052,-0.011 0.063,-0.035 0.047,-0.068 1.205,-0.268 2.48,0.049 3.659,0.318 1.2,0.279 2.401,0.549 3.611,0.779 2.059,0.392 4.152,0.556 6.249,0.407 1.979,-0.137 4.077,-0.468 5.837,-1.454 0.746,-0.413 1.471,-0.911 2.031,-1.566 0.181,-0.212 0.547,-0.558 0.78,-0.914 0.156,2.279 -0.05,4.608 -2.625,5.377 -0.057,0.015 -0.057,0.053 -0.031,0.097 z" />
      </g>
      <g
   id="Leg_1_">
        <path
   id="Fill_8_"
   fill="#a17456"
   d="m 32.734,108.258 c 0,0 0.676,13.001 7.256,34.928 -0.111,1.562 0.195,3.176 0.474,4.702 0.226,1.249 -0.348,2.34 0.213,3.536 10e-4,0.001 -0.007,0 -0.009,0 0,0.006 0.011,0.015 0.01,0.021 -0.297,1.263 -0.404,2.588 -0.476,3.877 -0.098,1.794 0.353,3.569 0.412,5.37 0.062,2.098 0.11,4.21 0.096,6.308 -0.008,1.151 0,2.3 -0.162,3.438 -0.176,1.233 -0.522,2.393 -0.523,3.651 0,0.059 -0.146,0.021 -0.275,-0.04 -0.858,1.758 0.019,4.067 0.026,5.949 0.006,1.942 -0.549,3.771 -1.414,5.497 0.07,0.028 0.137,0.062 0.158,0.083 0.686,0.69 1.314,1.436 2.041,2.084 1.314,1.181 3.626,1.525 5.282,1.944 1.191,0.296 2.393,0.532 3.586,0.827 1.416,0.346 2.721,0.705 4.03,-0.104 1.4,-0.858 2.299,-2.271 3.886,-2.86 1.285,-0.476 2.678,-0.009 3.871,0.532 1.072,-0.9 1.31,-2.397 1.545,-3.706 0.262,-1.446 0.868,-2.797 1.327,-4.193 -0.252,-1.317 -0.427,-2.255 -1.258,-3.388 -0.682,-0.924 -1.513,-1.742 -2.23,-2.641 -0.494,-0.616 -1.218,-1.555 -1.211,-2.386 0.014,-1.123 0.567,-2.172 0.287,-3.276 -0.037,-0.022 -0.072,-0.051 -0.084,-0.078 -1.29,-3.164 -2.496,-6.541 -2.395,-10.016 0.055,-1.752 0.333,-3.493 1.122,-5.065 0.751,-1.491 1.047,-2.914 0.609,-4.438 -0.05,0.282 -0.088,0.567 -0.138,0.849 -0.008,0.059 -0.473,-0.099 -0.45,-0.23 1.295,-7.375 1.553,-15.009 1.785,-22.482 0.112,-3.648 0.05,-7.302 -0.248,-10.933 -0.268,-3.272 -1.129,-6.332 -2.296,-9.381 -0.019,-0.042 0.398,0.059 0.451,0.188 -2.643,-4.957 -8.833,-7.867 -15.907,-7.364 -6.2,0.44 -9.091,6.792 -9.709,8.351 0.135,0.1 0.264,0.237 0.318,0.446 z" />
        <path
   id="Outline_11_"
   d="m 39.171,142.845 c 0,0 -5.902,-24.327 -6.983,-32.697 -0.156,-1.204 -0.214,-2.077 -0.139,-2.503 0,0 0.188,0.043 0.372,0.174 0.131,0.095 0.259,0.232 0.314,0.44 0,0 0.676,13.001 7.256,34.927 -0.111,1.563 0.195,3.177 0.474,4.703 0.226,1.249 -0.348,2.34 0.213,3.536 0.001,10e-4 -0.007,0 -0.009,0 0,0.007 0.011,0.015 0.01,0.021 -0.297,1.263 -0.403,2.588 -0.475,3.877 -0.098,1.794 0.353,3.569 0.412,5.37 0.062,2.098 0.11,4.21 0.097,6.308 -0.008,1.151 0,2.3 -0.162,3.438 -0.175,1.233 -0.522,2.392 -0.523,3.651 0,0.058 -0.146,0.021 -0.275,-0.04 -0.858,1.758 0.019,4.067 0.025,5.949 0.007,1.942 -0.549,3.771 -1.414,5.497 0.07,0.028 0.137,0.062 0.158,0.083 0.686,0.69 1.314,1.436 2.041,2.084 1.314,1.181 3.626,1.525 5.281,1.944 1.191,0.296 2.393,0.532 3.586,0.827 1.416,0.346 2.72,0.705 4.03,-0.104 1.4,-0.858 2.299,-2.271 3.886,-2.86 1.285,-0.476 2.678,-0.009 3.871,0.532 1.072,-0.9 1.31,-2.397 1.545,-3.705 0.262,-1.447 0.868,-2.799 1.327,-4.193 -0.252,-1.318 -0.427,-2.256 -1.258,-3.389 -0.682,-0.924 -1.512,-1.742 -2.23,-2.641 -0.494,-0.617 -1.218,-1.555 -1.211,-2.386 0.014,-1.123 0.566,-2.172 0.287,-3.275 -0.037,-0.023 -0.072,-0.052 -0.083,-0.078 -1.291,-3.165 -2.497,-6.542 -2.396,-10.017 0.055,-1.751 0.333,-3.493 1.122,-5.065 0.751,-1.491 1.047,-2.914 0.609,-4.438 -0.05,0.282 -0.088,0.567 -0.138,0.85 -0.008,0.058 -0.473,-0.1 -0.451,-0.231 1.296,-7.375 1.554,-15.01 1.786,-22.481 0.112,-3.648 0.05,-7.303 -0.249,-10.934 -0.268,-3.272 -1.128,-6.333 -2.295,-9.38 -0.019,-0.042 0.398,0.058 0.451,0.188 1.175,3.057 2.009,6.112 2.297,9.382 0.306,3.494 0.346,7.006 0.258,10.515 -0.172,7.106 -0.451,14.382 -1.559,21.426 0.031,0.022 0.065,0.049 0.072,0.067 0.683,1.522 0.686,3.012 0.03,4.553 -0.714,1.682 -1.289,3.09 -1.445,4.943 -0.312,3.652 0.908,7.24 2.257,10.57 0.06,0.031 0.109,0.064 0.126,0.105 0.338,0.967 0.006,1.855 -0.187,2.827 -0.28,1.403 0.783,2.6 1.617,3.597 0.741,0.885 1.535,1.709 2.186,2.67 0.549,0.808 0.648,1.666 0.809,2.591 0.059,0.04 0.101,0.081 0.091,0.117 -0.017,0.043 -0.031,0.087 -0.047,0.132 0.004,0.015 0.005,0.024 0.008,0.036 10e-4,0.006 -0.019,0.003 -0.021,0.006 -0.453,1.387 -1.058,2.727 -1.313,4.163 -0.237,1.327 -0.479,2.852 -1.588,3.746 -0.043,0.036 -0.131,0.006 -0.212,-0.039 -0.021,-0.007 -0.028,-0.005 -0.046,-0.016 -2.692,-1.257 -4.342,-0.4 -6.349,1.437 -0.706,0.648 -1.446,1.249 -2.4,1.457 -0.88,0.191 -2.076,-0.237 -2.919,-0.437 -2.57,-0.625 -5.195,-1.11 -7.695,-1.997 -1.622,-0.573 -2.686,-1.998 -3.852,-3.18 -0.007,-0.007 -0.009,-0.01 -0.013,-0.017 -0.135,-0.059 -0.271,-0.151 -0.247,-0.204 1.03,-2.051 1.483,-4.094 1.408,-6.392 -0.058,-1.777 -0.889,-3.642 0.086,-5.3 0.022,-0.034 0.102,-0.014 0.188,0.022 0.059,-1.962 0.628,-3.869 0.667,-5.847 0.057,-2.573 -0.023,-5.158 -0.101,-7.727 -0.05,-1.565 -0.448,-3.085 -0.409,-4.649 0.035,-1.381 0.169,-2.818 0.484,-4.164 -0.568,-1.212 -0.043,-2.242 -0.213,-3.531 -0.178,-1.357 -0.467,-2.713 -0.474,-4.089 z m 14.381,33.668 c 0.035,-0.035 -0.356,-0.329 -0.452,-0.233 -0.729,0.705 -2.139,1.912 -1.938,3.073 0.1,0.587 0.485,1.136 1.13,1.16 0.72,0.03 1.668,-0.608 2.267,-0.954 0.77,-0.443 1.51,-0.922 2.247,-1.415 1.27,-0.846 2.493,-1.893 3.968,-2.335 0.051,-0.015 -0.29,-0.293 -0.42,-0.251 -2.281,0.684 -4.13,2.619 -6.213,3.746 -0.546,0.299 -1.277,0.807 -1.898,0.898 -0.865,0.133 -0.641,-1.117 -0.449,-1.509 0.427,-0.853 1.076,-1.523 1.758,-2.18 z" />
      </g>
    </g>
    <g
   id="Front_Leg_1_">
      <g
   id="Shoe_2_">
        <path
   id="Sole_2_"
   fill="#bfb3d8"
   d="m 28.625,176.224 c -0.28,0.354 0.022,1.353 0.069,1.811 0.254,2.503 2.034,3.746 3.11,5.801 0.618,1.179 1.8,2.558 2.85,3.422 0.881,0.727 1.792,1.54 2.694,2.279 1.179,0.964 2.546,2.013 3.95,2.624 1.521,0.664 3.102,1.18 4.66,1.712 1.428,0.488 3.187,0.824 4.742,0.604 1.332,-0.188 2.714,-0.875 3.968,-1.369 0.032,0.716 -0.504,1.999 -0.926,2.54 -0.233,0.299 -0.528,0.66 -0.792,0.941 -0.286,0.307 -0.576,0.412 -0.944,0.674 -1.726,1.216 -4.498,0.399 -6.412,-0.207 -1.942,-0.612 -4.324,-1.256 -6.192,-2.044 -1.081,-0.455 -1.747,-0.922 -2.803,-1.433 -0.646,-0.313 -1.155,-0.702 -1.667,-1.234 -0.626,-0.65 -1.19,-1.644 -1.661,-2.418 -0.616,-1.012 -1.087,-2.075 -1.675,-3.088 -0.653,-1.122 -1.482,-2.184 -2.321,-3.223 -0.415,-0.512 -0.711,-0.741 -0.913,-1.338 -0.174,-0.505 -0.625,-1.079 -0.983,-1.52 -0.688,-0.846 -1.383,-1.465 -1.112,-2.719 0.248,-1.132 1.108,-1.921 2.285,-1.881" />
        <path
   id="Fill_12_"
   fill="#4e3a78"
   d="m 54.535,192.389 c -0.138,-0.2 -0.765,-0.678 -1.002,-0.851 -0.444,-0.323 -0.894,-0.477 -1.314,-0.853 -0.448,-0.399 -0.732,-0.889 -1.121,-1.314 -0.608,-0.654 -1.285,-1.196 -1.854,-1.969 -0.312,-0.428 -0.538,-0.902 -0.844,-1.354 -0.113,-0.167 -0.188,-0.286 -0.255,-0.379 v -0.274 c -0.704,-1.771 -5.415,-3.876 -5.415,-3.876 -6.708,0.941 -9.531,-6.354 -9.531,-6.354 l -2.441,-0.273 0.103,0.18 c -0.077,-0.021 -0.149,-0.059 -0.227,-0.077 l -0.062,0.068 c -0.915,0.51 -1.908,1.038 -1.979,2.11 -0.081,1.257 0.454,2.103 1.085,3.117 1.274,2.046 2.581,4.303 4.245,6.021 0.438,0.45 0.862,1.096 1.347,1.498 0.553,0.461 1.098,0.78 1.624,1.31 1.078,1.096 2.034,1.843 3.466,2.413 2.186,0.863 4.256,2.284 6.565,2.735 2.341,0.452 4.99,0.412 7.083,-0.89 0.497,-0.313 0.883,-0.459 0.527,-0.988 z" />
        <path
   id="Outline_9_"
   fill="#010101"
   d="m 55.138,192.593 c -2.738,-1.962 -5.287,-4.264 -6.994,-7.198 -0.118,-0.204 -0.648,-0.19 -0.498,0.062 1.69,2.898 4.163,5.197 6.853,7.16 0.049,0.812 -2.923,1.507 -3.433,1.569 -1.315,0.16 -2.648,0.09 -3.945,-0.203 -2.099,-0.471 -4.074,-1.267 -5.981,-2.244 -0.012,-0.009 -0.02,-0.019 -0.036,-0.023 -3.453,-1.716 -6.427,-4.459 -8.643,-7.603 -1.42,-2.018 -3.784,-4.666 -3.823,-7.312 0.5,-0.634 1.304,-1.512 2.163,-1.525 0.35,-0.004 0.255,-0.392 -0.045,-0.386 -0.782,0.01 -1.475,0.485 -2.038,1.051 -0.084,-0.084 -0.235,-0.144 -0.345,-0.104 -1.251,0.438 -1.994,1.392 -2.612,2.528 -0.156,0.29 0.614,1.208 0.764,1.457 0.454,0.733 0.917,1.463 1.391,2.184 1.194,1.82 2.43,3.611 3.574,5.461 0.777,1.254 1.331,2.66 2.176,3.865 1.561,2.219 4.557,3.509 7.026,4.432 2.906,1.092 6.014,2.07 9.13,2.173 0.002,0 0.003,-0.002 0.006,-0.002 3.259,0.437 4.499,-2.316 5.352,-4.969 0.016,-0.047 0.003,-0.089 -0.021,-0.127 0.091,-0.054 0.117,-0.148 -0.021,-0.246 z m -5.357,4.955 c -0.005,-0.001 -0.006,0.003 -0.012,0.003 -2.978,-0.1 -6.083,-1 -8.849,-2.098 -2.175,-0.857 -5.206,-1.982 -6.601,-3.962 -0.806,-1.153 -1.33,-2.459 -2.068,-3.653 -0.807,-1.311 -1.655,-2.594 -2.502,-3.876 -1.018,-1.529 -2.05,-3.055 -2.99,-4.635 -0.48,-0.815 -0.337,-1.256 0.248,-1.941 0.338,-0.398 0.697,-0.711 1.126,-0.947 -0.003,0.063 -0.008,0.127 -0.008,0.191 -0.045,0.06 -0.035,0.12 0.004,0.171 0.093,2.709 2.407,5.433 3.901,7.476 2.328,3.187 5.271,5.975 8.823,7.746 0.007,0.007 0.012,0.013 0.02,0.017 2.542,1.306 5.397,2.49 8.295,2.608 1.354,0.059 2.795,-0.033 4.046,-0.611 0.293,-0.138 0.832,-0.33 1.249,-0.59 -0.773,2.232 -1.896,4.476 -4.682,4.101 z" />
      </g>
      <g
   id="Leg_2_">
        <path
   id="Fill_7_"
   fill="#a17456"
   d="m 35.262,102.445 c -2.759,2.843 -3.76,7.779 -3.681,11.63 0.038,1.686 1.064,3.354 1.706,4.868 0.969,2.283 1.835,4.647 2.961,6.854 1.166,2.295 2.874,4.197 4.504,6.159 1.681,2.02 2.941,4.311 4.374,6.5 1.814,2.767 3.596,5.429 5.123,8.356 0.089,0.02 0.173,0.058 0.212,0.121 0.965,1.522 3.602,1.349 4.709,0.09 0.159,-0.182 0.65,0.028 0.476,0.229 -1.177,1.335 -3.59,1.53 -5.012,0.443 -0.097,0.102 -0.412,0.067 -0.489,-0.091 -0.008,-0.014 -0.016,-0.025 -0.021,-0.039 -0.33,0.3 -0.02,1.271 0.077,1.495 0.293,0.658 1.029,0.978 1.667,1.177 0.965,0.3 2.008,0.317 3.004,0.451 0.291,0.036 0.396,0.432 0.043,0.383 -1.563,-0.203 -3.323,-0.181 -4.625,-1.205 -0.217,-0.175 -0.44,-0.51 -0.601,-0.892 -2.504,2.964 -5.482,5.871 -8.547,8.231 -1.337,1.031 -3.186,2.202 -4.477,3.642 -0.005,0.062 -0.05,0.103 -0.113,0.125 -0.976,1.129 -1.584,2.426 -1.346,3.953 0.531,0.012 1.064,0.068 1.605,0.181 0.328,0.069 0.222,0.431 -0.099,0.366 -0.501,-0.104 -0.964,-0.143 -1.446,-0.154 0.028,0.217 -0.398,0.177 -0.502,-0.012 -0.036,10e-4 -0.067,-0.002 -0.104,-0.001 -0.765,0.029 -0.792,0.505 -0.981,1.125 -0.204,0.671 -0.585,1.267 -1.017,1.812 -0.587,0.745 -1.35,1.324 -1.942,2.068 -0.68,0.854 -1.189,1.845 -1.725,2.794 0,0.007 0.009,0.011 0.008,0.021 -0.109,0.75 1.763,1.606 2.245,1.886 0.67,0.387 1.357,0.741 2.006,1.161 1.954,1.275 2.482,4.028 4.162,5.593 1.942,1.8 5.211,2.502 7.708,3.099 2.934,0.701 5.583,0.018 8.473,-0.479 0.885,-1.946 2.17,-3.691 3.158,-5.587 0.202,-0.378 1.005,-1.379 0.662,-1.808 -0.192,-0.241 -0.372,-0.492 -0.564,-0.739 -0.041,-0.052 -0.083,-0.102 -0.125,-0.157 -0.145,-0.023 -0.28,-0.124 -0.231,-0.252 0.004,-0.009 0.008,-0.017 0.012,-0.024 -0.484,-0.62 -0.967,-1.24 -1.471,-1.848 -0.211,-0.255 0.285,-0.345 0.438,-0.161 0.433,0.519 0.843,1.056 1.261,1.59 0.489,-0.702 1.358,-0.991 1.932,-1.668 0.497,-0.594 -0.095,-2.035 -0.217,-2.71 -0.189,-1.079 -0.298,-2.169 -0.358,-3.263 0,-0.003 0.004,-0.004 0.004,-0.007 -10e-4,-0.017 -0.006,-0.031 -10e-4,-0.049 0.302,-1.123 1.117,-2.096 1.901,-2.921 0.173,-0.182 0.335,-0.381 0.502,-0.577 0,-0.009 10e-4,-0.017 10e-4,-0.023 0.001,-0.098 0.071,-0.138 0.156,-0.157 0.711,-0.877 1.357,-1.855 1.997,-2.748 1.897,-2.656 3.577,-5.405 5.57,-7.995 1.245,-1.625 2.376,-3.512 3.376,-5.302 0.999,-1.794 1.631,-4.521 0.765,-6.442 -10e-4,-0.003 -0.003,-0.004 -0.004,-0.007 -0.292,-0.936 -0.816,-1.831 -1.251,-2.707 -0.877,-1.766 -1.782,-3.511 -2.687,-5.264 -1.802,-3.482 -3.64,-6.946 -5.394,-10.454 -1.507,-3.013 -2.797,-6.334 -3.552,-9.626 -0.27,-1.171 -0.358,-2.373 -0.484,-3.566 -0.268,-2.554 -0.687,-5.085 -1.157,-7.61 -0.02,-0.103 0.053,-0.154 0.147,-0.167 -12.47,-8.498 -21.91,-0.748 -22.826,0.052 0.122,0.065 0.194,0.164 0.105,0.257 z" />
        <path
   id="Outline_15_"
   d="m 31.049,113.609 c -0.008,-3.526 0.89,-7.892 3.194,-10.746 0.179,-0.219 0.346,-0.452 0.541,-0.652 0.086,-0.087 0.255,-0.072 0.377,-0.015 0.118,0.059 0.188,0.156 0.1,0.25 -2.76,2.843 -3.76,7.779 -3.681,11.629 0.038,1.687 1.065,3.354 1.707,4.869 0.967,2.285 1.835,4.647 2.961,6.854 1.166,2.296 2.874,4.197 4.504,6.159 1.681,2.021 2.941,4.311 4.374,6.5 1.815,2.767 3.596,5.429 5.124,8.356 0.089,0.02 0.172,0.058 0.212,0.121 0.965,1.522 3.602,1.349 4.709,0.09 0.159,-0.182 0.65,0.028 0.476,0.229 -1.176,1.335 -3.59,1.529 -5.012,0.443 -0.097,0.102 -0.412,0.066 -0.489,-0.091 -0.008,-0.014 -0.016,-0.025 -0.021,-0.039 -0.33,0.3 -0.02,1.271 0.078,1.495 0.293,0.658 1.028,0.978 1.667,1.177 0.965,0.299 2.008,0.317 3.004,0.451 0.291,0.036 0.396,0.432 0.043,0.383 -1.563,-0.203 -3.323,-0.181 -4.625,-1.205 -0.217,-0.175 -0.44,-0.51 -0.6,-0.892 -2.504,2.966 -5.483,5.871 -8.548,8.231 -1.337,1.031 -3.185,2.202 -4.477,3.642 -0.005,0.062 -0.049,0.103 -0.113,0.125 -0.976,1.129 -1.584,2.426 -1.346,3.953 0.532,0.012 1.064,0.068 1.605,0.181 0.328,0.069 0.222,0.431 -0.099,0.367 -0.501,-0.105 -0.964,-0.144 -1.446,-0.155 0.027,0.217 -0.398,0.177 -0.504,-0.012 -0.035,0.001 -0.066,-0.003 -0.103,-0.002 -0.765,0.03 -0.792,0.506 -0.981,1.126 -0.204,0.671 -0.585,1.267 -1.017,1.812 -0.587,0.744 -1.35,1.324 -1.941,2.068 -0.68,0.854 -1.19,1.845 -1.726,2.794 0,0.006 0.009,0.011 0.008,0.021 -0.108,0.75 1.763,1.606 2.245,1.886 0.67,0.387 1.356,0.741 2.006,1.161 1.953,1.275 2.482,4.028 4.162,5.593 1.941,1.8 5.211,2.502 7.708,3.099 2.934,0.701 5.583,0.018 8.473,-0.479 0.886,-1.947 2.17,-3.691 3.159,-5.587 0.201,-0.378 1.004,-1.379 0.661,-1.808 -0.192,-0.241 -0.372,-0.492 -0.564,-0.739 -0.041,-0.053 -0.083,-0.102 -0.126,-0.157 -0.143,-0.023 -0.279,-0.124 -0.23,-0.252 0.004,-0.009 0.009,-0.017 0.012,-0.024 -0.484,-0.62 -0.967,-1.24 -1.471,-1.848 -0.21,-0.255 0.285,-0.345 0.438,-0.161 0.433,0.519 0.843,1.056 1.261,1.59 0.49,-0.702 1.358,-0.991 1.932,-1.668 0.497,-0.594 -0.094,-2.035 -0.217,-2.71 -0.189,-1.079 -0.298,-2.169 -0.358,-3.263 0,-0.003 0.004,-0.004 0.004,-0.007 -10e-4,-0.018 -0.006,-0.031 -10e-4,-0.049 0.302,-1.123 1.117,-2.096 1.901,-2.921 0.173,-0.183 0.335,-0.381 0.502,-0.577 0,-0.009 0.001,-0.017 0.001,-0.023 10e-4,-0.099 0.07,-0.138 0.156,-0.157 0.711,-0.877 1.357,-1.855 1.997,-2.749 1.897,-2.655 3.577,-5.404 5.57,-7.995 1.246,-1.624 2.376,-3.512 3.376,-5.301 0.999,-1.794 1.631,-4.521 0.765,-6.442 -0.001,-0.003 -0.003,-0.004 -0.004,-0.007 -0.292,-0.936 -0.816,-1.831 -1.251,-2.707 -0.877,-1.766 -1.782,-3.51 -2.687,-5.265 -1.802,-3.481 -3.64,-6.945 -5.394,-10.453 -1.507,-3.013 -2.797,-6.334 -3.552,-9.626 -0.27,-1.171 -0.359,-2.373 -0.484,-3.566 -0.268,-2.554 -0.686,-5.085 -1.156,-7.61 -0.021,-0.103 0.052,-0.155 0.145,-0.167 0.147,-0.021 0.356,0.059 0.381,0.205 0.125,0.672 0.233,1.348 0.35,2.022 0.307,1.784 0.588,3.576 0.785,5.377 0.136,1.208 0.22,2.423 0.469,3.618 0.7,3.368 2.104,6.768 3.641,9.84 1.726,3.454 3.538,6.864 5.312,10.297 0.875,1.686 1.744,3.376 2.59,5.075 0.468,0.932 1.033,1.893 1.347,2.892 10e-4,0.001 0.002,0.002 0.002,0.005 1.769,3.888 -1.479,7.354 -3.131,10.493 -0.666,1.264 -1.658,2.352 -2.53,3.474 -1.098,1.414 -1.949,2.984 -2.949,4.467 -0.961,1.432 -2.02,2.767 -3.057,4.139 l -1.047,1.269 v 0.005 c -0.646,0.766 -1.267,1.57 -1.52,2.506 0.059,1.086 0.178,2.157 0.356,3.232 0.131,0.801 0.449,1.636 0.369,2.45 -0.105,1.091 -1.77,1.396 -2.255,2.342 0.116,0.149 0.236,0.293 0.353,0.443 0.254,0.332 0.683,0.652 0.563,1.096 -0.701,2.593 -2.824,4.766 -3.919,7.19 -0.029,0.064 -0.092,0.099 -0.162,0.11 -0.021,0.039 -0.068,0.071 -0.15,0.088 -2.85,0.488 -5.496,1.151 -8.395,0.532 -2.708,-0.569 -5.711,-1.423 -7.998,-3.04 -2.294,-1.628 -2.655,-4.821 -5.156,-6.26 -0.804,-0.462 -3.452,-1.492 -3.726,-2.697 -0.089,-0.058 -0.144,-0.149 -0.086,-0.249 0.802,-1.394 1.549,-2.803 2.69,-3.951 1.204,-1.216 1.99,-2.243 2.336,-3.964 0.018,-0.075 0.101,-0.112 0.174,-0.121 0.359,-0.051 0.713,-0.076 1.066,-0.089 -0.262,-1.562 0.349,-2.896 1.314,-4.055 l 0.023,0.003 0.522,-0.606 c 0.977,-0.992 2.161,-1.849 3.168,-2.599 3.532,-2.629 6.915,-5.821 9.73,-9.198 0.02,-0.021 0.044,-0.041 0.073,-0.052 -0.13,-0.57 -0.067,-1.118 0.376,-1.295 -1.655,-3.225 -3.651,-6.113 -5.614,-9.159 -1.544,-2.392 -2.997,-4.736 -4.844,-6.912 -0.995,-1.169 -1.899,-2.365 -2.711,-3.628 l -0.637,-1.023 c -0.333,-0.579 -0.651,-1.172 -0.937,-1.791 -1,-2.185 -1.863,-4.448 -2.804,-6.663 -0.612,-1.456 -1.293,-2.742 -1.296,-4.346 z m 16.634,61.11 c 0.352,-0.017 0.078,-0.397 -0.177,-0.383 -1.344,0.069 -5.395,1.265 -2.85,2.956 3.201,2.13 7.302,-0.556 10.708,0.627 0.316,0.112 0.407,-0.256 0.098,-0.362 -2.28,-0.797 -4.604,-0.021 -6.923,0.118 -0.699,0.038 -5.302,-0.374 -4.021,-1.864 0.753,-0.878 2.079,-1.036 3.165,-1.092 z" />
      </g>
      <g
   id="Pocket_1_">
        <path
   id="Fill_4_"
   fill="#4e3a78"
   d="m 49.254,113.969 c -2.259,2.276 -5.332,3.315 -8.293,4.333 0.005,0.005 0.016,0.007 0.019,0.013 0.385,0.742 0.78,1.606 0.744,2.469 3.613,-0.388 7.098,-1.663 9.739,-4.231 2.141,-2.079 4.585,-5.405 4.488,-8.532 0,-0.001 0.003,-0.001 0.003,-0.002 -0.753,-0.729 -1.775,-1.107 -2.651,-1.668 0.043,2.945 -2.075,5.628 -4.049,7.618 z" />
        <path
   id="Outline_5_"
   d="m 56.403,108.117 c -0.843,-0.889 -2.074,-1.248 -3.054,-1.953 -0.059,-0.045 -0.293,-0.067 -0.328,-0.023 -0.055,-0.001 -0.1,0.007 -0.099,0.033 0.087,2.934 -2.015,5.71 -4.022,7.659 -2.323,2.251 -5.313,3.299 -8.306,4.329 -0.05,0.019 -0.022,0.05 0.022,0.078 -0.002,0.005 -0.019,0.01 -0.015,0.018 0.391,0.755 0.815,1.65 0.744,2.522 -10e-4,0.02 0.021,0.032 0.032,0.048 -0.002,0 -0.004,10e-4 -0.006,10e-4 -0.201,0.019 0.145,0.183 0.242,0.177 3.716,-0.333 7.532,-1.596 10.207,-4.312 2.105,-2.141 4.579,-5.362 4.509,-8.519 0.067,-0.005 0.116,-0.018 0.074,-0.058 z m -0.455,-0.101 c 0.098,3.127 -2.346,6.453 -4.488,8.533 -2.641,2.569 -6.126,3.843 -9.739,4.23 0.037,-0.861 -0.357,-1.727 -0.744,-2.469 -0.002,-0.005 -0.014,-0.008 -0.019,-0.013 2.962,-1.016 6.033,-2.057 8.294,-4.333 1.974,-1.988 4.092,-4.673 4.045,-7.621 0.878,0.562 1.9,0.938 2.651,1.667 0.003,0.005 0,0.005 0,0.006 z" />
      </g>
    </g>
    <g
   id="Neck">
      <path
   id="Fill_5_"
   fill="#a16235"
   d="m 46.407,43.903 c 0,0 3.973,4.795 10.708,3.03 0,0 -0.589,-2.53 1.737,-5.558 0,0 1.087,-8.354 -8.562,-9.061 0,-0.002 0.117,7.676 -3.883,11.589 z" />
      <path
   id="Outline_6_"
   fill="#010101"
   d="m 50.437,32.453 c -0.011,-0.158 -0.399,-0.219 -0.385,-0.034 0.144,2.081 -0.44,4.517 -1.061,6.506 -0.646,2.068 -1.57,4.164 -3.414,5.433 -0.172,0.119 0.168,0.297 0.297,0.211 1.76,-1.21 2.765,-3.201 3.389,-5.197 0.669,-2.141 1.331,-4.667 1.174,-6.919 z m 6.495,14.303 c 0.005,0.157 0.392,0.221 0.38,0.034 -0.021,-0.759 -0.146,-1.455 0.102,-2.184 0.394,-1.146 0.984,-2.058 1.572,-3.099 0.092,-0.165 -0.273,-0.297 -0.351,-0.163 -0.641,1.138 -1.291,2.081 -1.667,3.354 -0.195,0.676 -0.059,1.368 -0.036,2.058 z" />
    </g>
    <g
   id="Torso">
      <path
   id="Fill_6_"
   fill="#4e3a78"
   d="m 53.495,104.673 c 1.914,-0.576 5.009,-1.666 4.954,-4.313 -0.024,-1.476 -1.295,-2.498 -2.001,-3.621 -0.746,-1.19 -0.276,-2.53 -0.012,-3.801 0,0 4.649,-18.592 6.396,-23.456 1.711,-2.959 0.637,-7.15 -0.238,-10.218 -1.039,-3.646 -2.569,-7.232 -4.503,-10.427 L 57.29,47.441 c 0,0 -2.441,-0.317 -4.618,-1.396 -2.176,-1.081 -2.46,-1.245 -4.627,-1.401 -0.596,0.001 -1.187,-0.04 -1.6,-0.483 -2.749,2.261 -4.451,5.167 -5.813,8.57 -1.572,3.924 -3.352,7.863 -4.111,12.086 -0.414,2.339 -0.405,4.793 -0.412,7.165 -0.017,2.463 -0.003,4.932 0.104,7.392 0.092,1.919 0.292,3.831 0.344,5.755 0.039,1.37 -0.124,2.793 -0.943,3.856 0.054,0.039 0.087,0.087 0.051,0.138 -0.862,1.217 -2.501,1.522 -3,3.075 -0.338,1.064 0.887,2.444 1.174,3.57 0.036,0.03 0.058,0.066 0.056,0.108 -0.001,0.026 -0.008,0.052 -0.01,0.079 0.002,0.016 0.009,0.031 0.011,0.046 0.002,0.022 -0.015,0.029 -0.021,0.042 -0.243,1.914 -2.647,3.799 -0.16,5.164 0.068,0.039 0.092,0.077 0.095,0.112 5.577,4.028 13.29,5.286 19.685,3.354 z" />
      <path
   id="Outline_7_"
   d="m 53.253,105.045 c 1.775,-0.518 4.598,-1.293 5.371,-3.358 0.451,-1.215 0.083,-2.449 -0.68,-3.421 -0.567,-0.728 -1.432,-1.574 -1.51,-2.581 -0.071,-0.901 0.198,-1.758 0.38,-2.623 0.003,-0.011 0.005,-0.02 0.005,-0.02 C 57.73,87.766 63.185,69.643 63.185,69.643 64.91,66.662 63.891,62.4 62.976,59.31 61.89,55.642 60.397,52.046 58.446,48.817 l -0.95,-1.696 c -0.353,0 -1.5,-0.064 -4.647,-1.493 -3.149,-1.428 -4.953,-1.229 -4.953,-1.229 -0.522,10e-4 -0.995,0.005 -1.3,-0.527 -0.067,-0.118 -0.442,-0.153 -0.356,0.013 -0.009,0.003 -0.025,0.001 -0.032,0.006 -2.716,2.192 -4.48,5.038 -5.813,8.364 -1.544,3.858 -3.423,7.79 -4.166,11.939 -0.781,4.364 -0.62,9.085 -0.465,13.507 0.072,2.079 0.227,4.149 0.355,6.222 0.112,1.79 0.187,3.833 -1.092,5.186 -0.039,0.041 -0.006,0.084 0.045,0.122 -0.954,1.042 -2.604,1.488 -2.83,3.127 -0.157,1.177 1.061,2.364 1.255,3.522 -0.125,1.225 -1.074,2.103 -1.29,3.292 -0.171,0.97 0.311,1.554 0.996,1.999 0.011,0.012 0.005,0.021 0.022,0.035 1.905,1.438 4.106,2.557 6.434,3.34 1.879,0.633 3.84,1.047 5.804,1.213 2.671,0.224 5.338,0.001 7.79,-0.714 z m -19.54,-3.842 c -2.489,-1.365 -0.083,-3.25 0.16,-5.164 0.008,-0.014 0.024,-0.02 0.021,-0.042 -0.002,-0.015 -0.009,-0.031 -0.011,-0.046 0.002,-0.026 0.009,-0.052 0.01,-0.079 0.003,-0.042 -0.019,-0.078 -0.056,-0.108 -0.286,-1.125 -1.511,-2.505 -1.174,-3.57 0.498,-1.552 2.137,-1.857 3,-3.075 0.037,-0.05 0.001,-0.099 -0.051,-0.138 0.819,-1.063 0.982,-2.486 0.943,-3.856 -0.053,-1.924 -0.253,-3.836 -0.344,-5.754 -0.107,-2.459 -0.121,-4.929 -0.104,-7.392 0.009,-2.373 -0.002,-4.827 0.412,-7.165 0.761,-4.225 2.539,-8.163 4.111,-12.086 1.362,-3.401 3.064,-6.308 5.813,-8.57 0.413,0.443 1.004,0.483 1.6,0.482 2.167,0.157 2.452,0.32 4.627,1.401 2.176,1.079 4.619,1.396 4.619,1.396 l 0.8,1.396 c 1.933,3.196 3.463,6.781 4.503,10.427 0.876,3.07 1.949,7.261 0.238,10.218 -1.745,4.864 -6.396,23.456 -6.396,23.456 -0.265,1.271 -0.734,2.611 0.012,3.801 0.706,1.122 1.977,2.144 2.001,3.621 0.057,2.648 -3.039,3.737 -4.954,4.314 -6.395,1.934 -14.108,0.676 -19.687,-3.357 -10e-4,-0.032 -0.024,-0.071 -0.093,-0.11 z" />
    </g>
    <g
   id="Head_1_">
      <g
   id="Head">
        <path
   id="Fill_2_"
   fill="#a16235"
   d="m 60.05,42.452 c 0.631,0.226 1.377,0.499 2.109,0.656 0.854,0.131 1.684,0.026 2.321,-0.614 0.775,-0.782 0.271,-2.414 1.166,-3.079 -0.382,-0.062 -0.752,-0.177 -1.053,-0.358 -0.226,-0.136 0,-0.295 0.178,-0.189 0.573,0.343 1.341,0.392 1.98,0.237 0.788,-0.191 0.912,-0.82 0.666,-1.465 -1.301,0.221 -3.164,-0.214 -3.886,-0.871 -0.189,-0.174 0.131,-0.25 0.257,-0.134 0.664,0.603 2.412,0.988 3.551,0.727 0.021,-0.03 0.066,-0.044 0.129,-0.039 0.779,-0.224 1.214,-0.785 0.669,-1.853 -0.004,-0.008 0.004,-0.01 0.002,-0.018 -0.002,-0.004 -0.009,-0.01 -0.01,-0.016 -0.038,-0.778 -0.21,-1.711 0.793,-1.791 0.692,-0.058 1.218,-0.273 1.521,-0.909 0.308,-0.653 -0.484,-1.295 -0.87,-1.692 -0.539,-0.557 -0.98,-1.082 -1.265,-1.811 -0.001,-0.002 10e-4,-0.003 10e-4,-0.004 -0.785,-1.225 -0.555,-2.833 -0.143,-4.153 0.438,-1.39 0.896,-2.71 0.807,-4.192 -0.08,-1.43 -0.819,-2.884 -1.559,-4.079 -0.029,-0.047 -0.028,-0.083 -0.013,-0.11 -0.824,-1.371 -3.558,-4.935 -9.973,-5.491 0,0 -7.906,-1.99 -11.428,7.172 0,0 -1.716,4.261 1.815,8.343 0.175,-0.594 0.472,-1.159 0.866,-1.657 0.811,-1.022 1.946,-0.882 2.831,-0.097 0.194,0.175 -0.128,0.255 -0.257,0.138 -1.448,-1.283 -2.473,0.237 -2.976,1.409 -0.407,0.934 -0.293,1.956 0.039,2.881 0.128,0.36 0.353,0.772 0.636,1.175 0.218,0.249 0.427,0.5 0.618,0.749 1.052,1.092 2.46,1.707 3.314,0.071 0.077,-0.153 0.447,-0.012 0.371,0.128 -0.552,1.055 -1.262,1.334 -1.989,1.18 0.02,4.618 4.165,7.866 8.047,9.45 0.23,0.095 0.476,0.2 0.735,0.306 z" />
        <path
   id="Outline_2_"
   fill="#010101"
   d="M 70.861,32.323 C 70.799,32.01 70.573,31.708 70.374,31.49 69.736,30.785 69.066,30.181 68.7,29.285 c -0.004,-0.005 10e-4,-0.007 -0.003,-0.014 -1.428,-2.018 0.242,-4.785 0.612,-6.861 0.185,-1.026 0.025,-2.061 -0.307,-3.053 -0.027,-0.085 -0.058,-0.172 -0.09,-0.255 -0.161,-0.435 -0.351,-0.858 -0.561,-1.268 -0.148,-0.285 -0.301,-0.565 -0.462,-0.833 -0.411,-1.268 -2.935,-5.355 -10.432,-6.177 -7.781,-0.853 -10.567,3.767 -12.03,8.078 -1.342,3.958 1.739,7.856 2.254,8.472 -0.055,0.411 -0.045,0.828 0.031,1.239 0.068,0.383 0.197,0.765 0.395,1.129 0.407,0.749 1.099,1.659 1.871,2.28 0.294,0.235 0.598,0.431 0.903,0.555 -0.012,4.35 3.623,7.612 7.302,9.35 0.28,0.132 0.562,0.257 0.841,0.372 1.499,0.61 3.174,1.404 4.828,0.997 0.534,-0.133 0.84,-0.426 1.03,-0.796 0.216,-0.412 0.293,-0.917 0.38,-1.402 0.128,-0.719 0.285,-1.39 0.976,-1.637 0.002,-10e-4 0,-0.002 0.002,-0.004 0.28,-0.005 0.554,-0.035 0.799,-0.118 0.882,-0.294 1.049,-0.995 0.707,-1.774 0.608,-0.174 1.016,-0.534 1.019,-1.131 -0.001,-0.018 0.001,-0.031 -0.001,-0.049 -10e-4,-0.042 0.002,-0.081 -0.004,-0.124 -0.025,-0.226 -0.104,-0.478 -0.248,-0.765 -0.005,-0.072 -0.012,-0.147 -0.021,-0.223 -0.053,-0.611 -0.118,-1.299 0.884,-1.38 0.178,-0.01 0.508,-0.102 0.673,-0.202 0.436,-0.268 0.708,-0.549 0.813,-1.058 0.004,-0.024 -0.003,-0.049 -0.001,-0.072 0.01,-0.08 0.017,-0.159 0.001,-0.238 z m -19.593,0.375 c 0.728,0.155 1.438,-0.125 1.989,-1.18 0.076,-0.138 -0.294,-0.281 -0.37,-0.128 -0.854,1.636 -2.263,1.021 -3.314,-0.071 -0.226,-0.234 -0.433,-0.488 -0.618,-0.749 -0.282,-0.402 -0.509,-0.815 -0.636,-1.175 -0.332,-0.924 -0.446,-1.945 -0.039,-2.881 0.502,-1.171 1.528,-2.691 2.976,-1.409 0.131,0.118 0.451,0.037 0.259,-0.138 -0.885,-0.786 -2.021,-0.926 -2.833,0.097 -0.394,0.497 -0.691,1.063 -0.866,1.657 -3.531,-4.082 -1.815,-8.343 -1.815,-8.343 3.52,-9.163 11.428,-7.172 11.428,-7.172 6.414,0.557 9.149,4.121 9.974,5.494 -0.018,0.028 -0.018,0.062 0.014,0.11 0.738,1.194 1.479,2.648 1.559,4.079 0.088,1.482 -0.371,2.804 -0.807,4.192 -0.412,1.32 -0.643,2.928 0.143,4.152 0,0.002 -0.002,0.003 -10e-4,0.005 0.283,0.727 0.725,1.254 1.265,1.811 0.385,0.397 1.178,1.04 0.869,1.692 -0.302,0.637 -0.827,0.852 -1.521,0.909 -1,0.08 -0.831,1.013 -0.792,1.791 10e-4,0.005 0.007,0.011 0.009,0.017 0.005,0.007 -0.005,0.009 -0.002,0.018 0.546,1.067 0.11,1.628 -0.668,1.852 -0.061,-0.006 -0.105,0.008 -0.13,0.039 -1.138,0.26 -2.886,-0.126 -3.549,-0.728 -0.13,-0.116 -0.45,-0.04 -0.259,0.134 0.722,0.657 2.585,1.092 3.885,0.872 0.247,0.645 0.123,1.273 -0.665,1.464 -0.641,0.155 -1.406,0.107 -1.98,-0.237 -0.178,-0.106 -0.405,0.055 -0.178,0.189 0.301,0.18 0.671,0.295 1.052,0.359 -0.895,0.665 -0.391,2.295 -1.165,3.079 -0.639,0.642 -1.468,0.746 -2.321,0.614 -0.718,-0.11 -1.452,-0.385 -2.11,-0.656 -0.256,-0.106 -0.504,-0.211 -0.733,-0.306 -3.885,-1.588 -8.031,-4.837 -8.05,-9.453 z m 1.524,-1.213 c -0.073,0.143 0.294,0.285 0.373,0.131 0.316,-0.611 -0.114,-0.982 -0.724,-1.059 -1.17,-0.155 -2.548,0.197 -2.99,-1.292 -0.043,-0.15 -0.423,-0.199 -0.362,0.003 0.231,0.774 0.902,1.359 1.708,1.485 0.531,0.083 2.487,-0.222 1.995,0.732 z m -4.065,-4.668 c -0.03,0.171 0.346,0.292 0.37,0.135 0.183,-1.066 1.604,-0.875 2.14,-0.191 0.521,0.652 0.861,1.419 1.398,2.057 0.102,0.119 0.474,0.108 0.321,-0.07 -0.798,-0.952 -1.164,-2.353 -2.459,-2.734 -0.727,-0.214 -1.627,-0.043 -1.77,0.803 z m 19.726,6.594 c 0.232,-0.057 -0.051,-0.296 -0.202,-0.259 -0.363,0.088 -0.751,0.308 -1.128,0.308 -0.605,-0.002 -0.755,-0.503 -0.392,-0.931 0.115,-0.143 -0.232,-0.312 -0.334,-0.189 -0.383,0.454 -0.316,1.052 0.271,1.285 0.627,0.247 1.179,-0.069 1.785,-0.214 z m -3.429,3.023 c -0.121,0.135 0.231,0.31 0.338,0.186 0.724,-0.816 1.985,-1 3.019,-1.014 0.255,-0.006 0.058,-0.272 -0.116,-0.269 -1.111,0.021 -2.464,0.219 -3.241,1.097 z" />
      </g>
      <g
   id="Eye">
        <path
   id="White"
   fill="#ffffff"
   d="m 64.585,26.507 c -0.105,0.013 -0.219,0.007 -0.333,-0.012 -0.115,0.022 -0.229,0.045 -0.342,0.071 0.003,0.052 -0.068,0.073 -0.118,0.069 -0.044,-0.002 -0.081,-0.016 -0.121,-0.02 -0.016,0.004 -0.031,0.004 -0.049,0.011 -0.042,0.012 -0.248,0.058 -0.461,0.131 -0.008,10e-4 -0.004,0.006 -0.015,0.007 -0.003,0 -0.007,0 -0.009,0 -0.2,0.07 -0.389,0.16 -0.449,0.267 0.052,0.026 0.096,0.057 0.103,0.097 0.003,0.008 0.01,0.012 0.012,0.018 0.049,0.024 0.091,0.053 0.132,0.088 0.191,0.116 0.397,0.237 0.618,0.362 0.049,0.02 0.098,0.043 0.136,0.074 0.127,0.069 0.255,0.137 0.39,0.2 0.003,0 0.005,10e-4 0.009,0.002 0.044,0.001 0.094,0.027 0.141,0.059 0.009,0.002 0.017,0.005 0.022,0.007 0.043,0.012 0.075,0.033 0.098,0.056 0.084,0.039 0.169,0.075 0.255,0.11 0.02,0.006 0.037,0.011 0.058,0.019 0.016,0.005 0.02,0.015 0.035,0.02 0.395,0.15 0.794,0.25 1.177,0.263 -0.031,-0.031 -0.1,-0.046 -0.134,-0.065 -0.058,-0.037 -0.084,-0.083 -0.126,-0.136 -0.069,-0.08 -0.124,-0.151 -0.176,-0.252 -0.06,-0.101 -0.091,-0.182 -0.103,-0.297 -0.031,-0.214 -0.107,-0.417 -0.101,-0.635 0.002,-0.134 -0.019,-0.23 0.037,-0.353 0.046,-0.102 0.065,-0.257 0.138,-0.334 0.026,-0.033 0.057,-0.051 0.088,-0.068 -0.286,0.06 -0.575,0.105 -0.865,0.152 0.03,0.04 0.035,0.078 -0.047,0.089 z" />
        <g
   id="Pupil">
          <path
   id="Fill_3_"
   fill="#371e10"
   d="m 65.388,26.249 c -0.07,0.078 -0.1,0.155 -0.137,0.259 -0.12,0.346 -0.025,0.761 0.035,1.111 0.016,0.091 0.05,0.183 0.079,0.272 0.026,0.084 0.059,0.095 0.127,0.146 0.11,0.081 0.17,0.202 0.294,0.269 0.084,0.038 0.168,0.072 0.255,0.083 0.271,0.039 0.454,-0.024 0.624,-0.25 0.188,-0.246 0.37,-0.492 0.396,-0.807 0.011,-0.132 0.033,-0.265 0.014,-0.395 C 67.06,26.8 67.004,26.681 66.964,26.553 66.909,26.389 66.822,26.255 66.736,26.109 66.68,26.016 66.625,25.986 66.52,25.985 c -0.193,-0.003 -0.404,0.018 -0.594,0.057 -0.1,0.015 -0.198,0.042 -0.29,0.087 -0.086,0.042 -0.169,0.122 -0.265,0.124" />
          <path
   id="Outline_3_"
   d="m 65.648,26.18 c 0.076,-0.104 -0.158,-0.217 -0.221,-0.128 -0.608,0.837 -0.346,2.497 0.883,2.502 0.174,0.002 0.047,-0.186 -0.074,-0.186 C 65.214,28.364 65.2,26.794 65.648,26.18 Z m 1.103,-0.32 c -0.065,-0.089 -0.312,-0.075 -0.218,0.053 0.587,0.808 0.643,1.973 -0.356,2.471 -0.125,0.064 0.091,0.21 0.186,0.156 1.078,-0.54 1.027,-1.807 0.388,-2.68 z" />
        </g>
        <path
   id="Outline_4_"
   d="m 66.839,28.211 c -0.295,0.159 -0.626,0.209 -0.964,0.196 -0.384,-0.015 -0.782,-0.113 -1.177,-0.263 -0.016,-0.007 -0.021,-0.016 -0.036,-0.021 -0.02,-0.006 -0.037,-0.012 -0.057,-0.018 -0.087,-0.035 -0.171,-0.072 -0.255,-0.108 -0.022,-0.024 -0.057,-0.046 -0.099,-0.058 -0.007,-0.002 -0.016,-0.004 -0.021,-0.007 -0.049,-0.031 -0.099,-0.059 -0.141,-0.059 -0.004,0 -0.006,-0.001 -0.01,-0.002 -0.134,-0.062 -0.262,-0.131 -0.389,-0.2 -0.038,-0.031 -0.087,-0.055 -0.134,-0.074 -0.223,-0.124 -0.429,-0.247 -0.621,-0.362 -0.04,-0.035 -0.082,-0.062 -0.131,-0.088 -0.002,-0.006 -0.01,-0.009 -0.012,-0.018 -0.009,-0.04 -0.053,-0.07 -0.103,-0.097 0.059,-0.107 0.249,-0.197 0.448,-0.267 0.003,0 0.007,0 0.01,0 0.011,-0.001 0.006,-0.006 0.016,-0.007 0.213,-0.073 0.418,-0.12 0.46,-0.131 0.017,-0.005 0.032,-0.008 0.049,-0.011 0.042,0.004 0.076,0.018 0.121,0.02 0.049,0.004 0.121,-0.018 0.118,-0.069 0.112,-0.026 0.227,-0.049 0.341,-0.071 0.114,0.02 0.228,0.024 0.334,0.012 0.082,-0.012 0.077,-0.05 0.048,-0.089 0.29,-0.047 0.579,-0.093 0.865,-0.152 0.015,-0.004 0.03,-0.005 0.046,-0.008 0.761,-0.164 1.414,-0.327 2.024,-0.83 0.104,-0.09 -0.239,-0.26 -0.341,-0.175 -0.878,0.723 -2.021,0.826 -3.12,1.011 -0.256,-0.056 -0.527,-0.207 -0.718,-0.319 -0.164,-0.094 -0.391,0.007 -0.161,0.14 0.145,0.084 0.319,0.173 0.501,0.249 -0.045,0.008 -0.088,0.02 -0.132,0.028 -0.055,-0.026 -0.107,-0.045 -0.143,-0.042 -0.035,0.003 -0.069,0.01 -0.104,0.015 -0.201,-0.062 -0.392,-0.156 -0.575,-0.271 -0.072,-0.047 -0.176,-0.09 -0.266,-0.057 -0.082,0.031 -0.026,0.116 0.023,0.144 0.143,0.091 0.29,0.172 0.438,0.245 -0.431,0.083 -0.859,0.196 -1.306,0.215 -0.056,0.001 -0.074,0.02 -0.07,0.04 -0.023,0.021 -0.037,0.044 -0.016,0.076 0.02,0.024 0.043,0.042 0.06,0.065 0.002,0.026 0.021,0.057 0.087,0.096 -10e-4,0.001 -0.002,0.002 -0.002,0.003 0.004,0.002 0.008,0.003 0.013,0.006 10e-4,0 10e-4,0 10e-4,0 0.186,0.211 0.406,0.397 0.654,0.542 0.119,0.104 0.247,0.202 0.397,0.278 0.157,0.081 0.324,0.143 0.493,0.199 0.158,0.064 0.321,0.118 0.49,0.154 0.101,0.036 0.203,0.06 0.307,0.074 0.174,0.049 0.348,0.098 0.515,0.158 0,0 0,0 0.001,0 0.875,0.343 1.792,0.508 2.531,0.113 0.157,-0.087 -0.183,-0.265 -0.287,-0.205 z" />
      </g>
      <path
   id="Eyebrow"
   fill="#010101"
   d="m 60.814,24.733 c -0.185,0.103 0.143,0.306 0.278,0.232 0.996,-0.563 2.176,-1.421 3.367,-1.403 1.049,0.02 2.071,0.274 3.122,0.288 0.26,10e-4 0.059,-0.267 -0.116,-0.269 -1.157,-0.011 -2.429,-0.486 -3.58,-0.238 -1.123,0.245 -2.076,0.823 -3.071,1.39 z" />
      <path
   id="Glasses"
   d="m 68.208,24.869 c -0.01,-0.106 -0.15,-0.185 -0.282,-0.209 -0.021,-0.004 -0.036,-0.01 -0.053,-0.011 -2.179,-0.09 -4.371,0.629 -6.526,0.911 -0.073,0.01 -0.104,0.036 -0.109,0.069 -0.022,0.009 -0.023,0.037 -0.039,0.056 -0.068,-0.035 -0.141,-0.062 -0.215,-0.067 -2.023,-0.156 -4.341,-0.013 -6.291,-0.582 -1.352,-0.396 -2.772,-1.039 -4.208,-0.833 -0.614,0.089 0.422,0.676 0.832,0.618 1.05,-0.151 1.861,0.46 2.841,0.749 0.722,0.211 1.411,0.322 2.16,0.389 1.631,0.148 3.266,0.247 4.9,0.372 0.094,0.829 0.293,1.628 0.646,2.398 0.017,0.033 0.049,0.06 0.085,0.084 0.014,0.059 0.056,0.116 0.167,0.149 1.855,0.563 4.272,0.787 6.001,-0.267 0.058,-0.036 0.072,-0.078 0.059,-0.121 0.013,-0.013 0.036,-0.015 0.038,-0.035 0.149,-1.225 0.106,-2.446 -0.006,-3.67 z m -5.875,3.83 c -0.404,-0.901 -0.602,-1.831 -0.657,-2.815 1.985,-0.269 4.038,-0.903 6.045,-0.891 0.095,1.123 0.137,2.25 -0.001,3.368 -0.003,0.013 0.013,0.022 0.016,0.037 -1.556,0.945 -3.704,0.795 -5.403,0.301 z" />
      <g
   id="Hair">
        <g
   id="Hair_1_">
          <path
   id="Fill_1_"
   fill="#371e10"
   d="m 54.228,23.826 c -0.263,-0.647 -0.468,-1.19 -0.626,-1.643 -0.124,-0.326 -0.247,-0.651 -0.355,-0.98 -0.122,-0.367 -0.176,-0.725 -0.18,-1.072 -10e-4,-0.042 -10e-4,-0.077 10e-4,-0.102 0.031,-1.937 1.725,-3.526 3.398,-4.391 1.943,-1 4.268,-0.867 6.413,-0.726 1.036,0.039 1.983,0.026 2.641,0.227 0.331,0.093 0.657,0.201 0.965,0.342 -2.137,-1.44 -4.875,-1.558 -7.417,-1.225 -0.178,0.025 -0.58,-0.279 -0.28,-0.316 3.083,-0.41 6.373,-0.124 8.772,1.987 0.003,-0.469 0.038,-0.936 -0.031,-1.407 -0.205,-1.385 -1.599,-2.336 -2.707,-2.97 -2.028,-1.162 -4.983,-1.374 -7.164,-0.532 -0.172,0.065 -0.613,-0.2 -0.381,-0.292 2.335,-0.902 5.129,-0.588 7.383,0.413 0.989,0.437 2.104,1.173 2.726,2.085 0.175,0.26 0.291,0.509 0.376,0.758 0,-0.074 0.008,-0.146 0.005,-0.217 C 67.74,12.338 66.622,11.218 65.554,10.418 63.606,8.96 60.161,8.231 57.848,9.11 57.762,9.143 57.604,9.089 57.501,9.016 57.477,8.996 57.454,8.977 57.439,8.957 55.662,7.277 52.891,6.7 52.126,6.568 52.062,6.575 51.989,6.568 51.92,6.534 51.893,6.52 51.853,6.516 51.821,6.506 51.181,6.236 50.211,6.326 49.543,6.304 48.382,6.272 47.183,6.439 46.034,6.62 44.278,6.895 42.545,7.411 40.876,8.016 38.53,8.875 36.3,10.114 34.501,11.859 c -0.875,0.847 -1.475,1.857 -1.817,3.02 -0.096,0.326 -0.42,4.039 1.026,2.961 0.027,-0.02 0.065,-0.026 0.105,-0.028 0.54,-0.639 1.133,-1.25 1.761,-1.845 1.828,-1.737 3.973,-3.082 6.52,-3.443 0.181,-0.027 0.583,0.277 0.282,0.32 -3.148,0.449 -6.157,2.589 -8.186,5.18 0,0.02 -0.009,0.04 -0.032,0.059 -0.01,0.007 -0.019,0.011 -0.029,0.018 -0.496,0.646 -0.937,1.315 -1.3,1.992 -0.526,0.985 -0.812,2.071 -0.883,3.183 -0.059,0.882 0.428,1.42 1.56,1.288 0.628,-0.073 1.124,-0.592 1.551,-1.006 1.353,-1.328 2.985,-2.397 4.648,-3.299 0.163,-0.086 0.608,0.173 0.378,0.293 -0.058,0.031 -0.116,0.071 -0.177,0.103 0.028,0.051 0.027,0.1 -0.046,0.138 -3.161,1.611 -5.181,5.609 -6.256,8.868 -0.247,0.745 -0.408,1.519 -0.408,2.305 0.002,0.347 0.086,0.682 0.225,0.998 0.621,1.392 2.12,0.258 2.736,-0.372 0.776,-0.797 1.389,-1.728 2.073,-2.599 0.515,-0.651 1.198,-1.047 1.77,-1.633 0.134,-0.14 0.607,0.083 0.452,0.241 -0.779,0.8 -1.592,1.386 -2.286,2.3 -0.494,0.651 -0.984,1.314 -1.549,1.902 0.025,0.037 0.041,0.075 0.019,0.113 -0.527,0.982 -0.82,2.055 -0.873,3.171 -0.057,1.166 1.137,2.185 2.312,1.194 0.424,-0.358 0.741,-0.863 1.034,-1.324 0.845,-1.325 1.527,-2.891 3.118,-3.433 0.358,-0.312 0.711,-0.579 1.028,-0.784 0.152,-0.1 0.598,0.148 0.379,0.292 -0.313,0.202 -0.623,0.441 -0.922,0.698 0,0.028 -0.016,0.051 -0.061,0.065 -0.013,0.003 -0.021,0.009 -0.031,0.013 -1.096,0.966 -2.026,2.258 -2.318,3.625 -0.157,0.734 0.131,1.39 0.686,1.87 0.724,0.629 1.728,-0.28 2.208,-0.71 0.101,-0.091 0.193,-0.191 0.29,-0.289 0.407,-0.71 0.993,-1.353 1.457,-1.801 0.025,-0.022 0.058,-0.032 0.097,-0.036 0.17,-0.06 0.524,0.125 0.399,0.278 -0.329,0.406 -0.806,1.027 -1.36,1.609 -0.292,0.518 -0.475,1.087 -0.491,1.761 -0.058,2.478 3.141,0.58 3.908,-0.224 0.792,-0.83 1.289,-1.94 1.713,-2.991 0.253,-0.632 0.478,-1.27 0.646,-1.927 0.224,-0.875 -0.083,-1.572 -0.353,-2.375 -0.319,-0.328 -0.594,-0.643 -0.809,-0.938 -0.25,1.025 -0.715,2.03 -1.715,2.5 -0.165,0.077 -0.61,-0.186 -0.379,-0.292 1.042,-0.487 1.459,-1.63 1.67,-2.691 0.006,-0.033 0.032,-0.048 0.062,-0.059 -0.662,-1.103 -0.671,-1.846 -0.671,-1.846 0.239,-3.522 2.118,-3.887 2.118,-3.887 1.734,-0.057 1.772,0.968 2.964,1.689 0.747,0.879 1.203,1.908 1.231,3.093 1.3,-1.689 0.919,-3.49 0.253,-5.341 z M 43.288,12.131 c 0.898,-0.659 1.97,-0.611 2.974,-0.237 0.019,0.006 0.038,0.012 0.056,0.02 0.294,0.114 0.199,0.393 -0.097,0.277 -0.041,-0.017 -0.083,-0.025 -0.124,-0.042 -0.805,-0.281 -1.569,-0.026 -2.36,0.227 -0.152,0.114 -0.612,-0.123 -0.449,-0.245 z m -1.251,7.305 C 41.938,19.624 41.45,19.43 41.54,19.26 c 0.718,-1.333 2.008,-2.147 3.537,-1.786 0.249,0.059 0.371,0.375 0.056,0.313 -0.008,-10e-4 -0.009,0.002 -0.019,0 -1.349,-0.321 -2.457,0.498 -3.077,1.649 z m 4.786,2.898 c -0.002,0 -0.003,0 -0.005,0 -1.705,0.091 -3.095,0.588 -4.21,1.913 -0.123,0.146 -0.597,-0.073 -0.45,-0.244 1.172,-1.396 2.655,-1.886 4.431,-1.991 0.019,-0.001 0.041,-0.004 0.062,-0.005 0.216,-0.011 0.506,0.306 0.172,0.327 z" />
          <path
   id="Outline_1_"
   d="M 42.037,19.436 C 41.938,19.624 41.45,19.43 41.54,19.26 c 0.718,-1.333 2.008,-2.147 3.537,-1.786 0.249,0.059 0.371,0.375 0.056,0.313 -0.008,-10e-4 -0.009,0.002 -0.019,0 -1.349,-0.321 -2.457,0.498 -3.077,1.649 z m 26.088,-2.584 c -0.03,-1.531 0.55,-3.236 -0.36,-4.616 -0.652,-1 -1.517,-1.835 -2.57,-2.413 C 63.061,8.657 60.02,7.948 57.643,8.769 57.169,8.229 55.29,6.373 51.622,6.082 l 0.047,0.07 c -0.654,-0.17 -1.431,-0.146 -2.054,-0.166 -1.38,-0.042 -2.792,0.113 -4.15,0.363 -2.644,0.49 -5.317,1.307 -7.687,2.593 -2.508,1.356 -5.507,3.471 -5.735,6.601 -0.073,0.984 0.257,2.881 1.29,2.879 -0.382,0.507 -0.727,1.04 -1.01,1.605 -0.05,0.102 -0.095,0.208 -0.141,0.309 -0.336,0.735 -0.589,1.52 -0.704,2.391 -0.227,1.751 1.075,2.505 2.647,2.068 0.911,-0.255 1.521,-1.203 2.219,-1.765 0.156,-0.126 0.326,-0.233 0.485,-0.354 -0.902,1.041 -1.65,2.245 -2.249,3.405 -0.876,1.696 -2.018,3.817 -1.887,5.788 0.09,1.339 1.42,2.771 2.842,1.859 0.083,-0.055 0.151,-0.121 0.229,-0.179 -0.467,1.117 -0.82,2.562 -0.287,3.547 0.333,0.625 1.041,1.312 1.847,1.08 1.309,-0.381 1.979,-1.478 2.636,-2.6 -0.284,0.822 -0.289,1.655 0.226,2.402 0.854,1.246 1.922,0.988 2.9,0.267 -0.138,0.528 -0.12,1.065 0.166,1.568 0.546,0.967 1.717,1.028 2.686,0.667 0.727,-0.27 1.332,-0.699 1.848,-1.22 0.707,-0.716 1.245,-1.607 1.653,-2.549 0.411,-0.961 0.805,-1.944 0.982,-2.979 0.126,-0.781 -0.249,-1.189 -0.486,-1.899 -0.032,-0.097 -0.166,-0.256 -0.293,-0.258 -0.104,0 -0.188,-0.119 -0.151,-0.012 0.004,0.013 0.007,0.021 0.011,0.033 0.268,0.803 0.577,1.501 0.353,2.375 -0.168,0.658 -0.394,1.295 -0.646,1.927 -0.425,1.051 -0.922,2.16 -1.713,2.991 -0.766,0.805 -3.967,2.702 -3.908,0.224 0.017,-0.673 0.201,-1.243 0.491,-1.761 0.554,-0.583 1.033,-1.203 1.36,-1.608 0.125,-0.154 -0.229,-0.338 -0.399,-0.279 -0.04,0.004 -0.073,0.013 -0.098,0.036 -0.463,0.45 -1.05,1.091 -1.456,1.801 -0.097,0.097 -0.188,0.198 -0.291,0.289 -0.48,0.43 -1.483,1.339 -2.207,0.71 -0.554,-0.48 -0.843,-1.135 -0.686,-1.869 0.292,-1.367 1.223,-2.658 2.319,-3.626 0.011,-0.003 0.019,-0.009 0.031,-0.013 0.046,-0.017 0.061,-0.039 0.061,-0.065 0.3,-0.254 0.608,-0.496 0.922,-0.698 0.219,-0.143 -0.226,-0.393 -0.378,-0.291 -0.316,0.205 -0.669,0.47 -1.028,0.784 -1.592,0.542 -2.273,2.109 -3.119,3.433 -0.293,0.46 -0.609,0.965 -1.034,1.324 -1.175,0.992 -2.368,-0.028 -2.312,-1.194 0.054,-1.118 0.347,-2.189 0.874,-3.17 0.02,-0.038 0.007,-0.077 -0.02,-0.113 0.564,-0.587 1.055,-1.25 1.549,-1.901 0.693,-0.916 1.507,-1.502 2.287,-2.301 0.153,-0.157 -0.32,-0.381 -0.453,-0.241 -0.571,0.586 -1.255,0.982 -1.77,1.633 -0.686,0.872 -1.297,1.802 -2.073,2.599 -0.616,0.631 -2.115,1.764 -2.736,0.372 -0.139,-0.315 -0.223,-0.649 -0.225,-0.998 0,-0.786 0.162,-1.561 0.408,-2.304 1.076,-3.259 3.095,-7.257 6.256,-8.869 0.072,-0.037 0.074,-0.087 0.046,-0.138 0.059,-0.031 0.117,-0.071 0.176,-0.103 0.23,-0.121 -0.215,-0.379 -0.378,-0.293 -1.663,0.902 -3.294,1.974 -4.647,3.299 -0.427,0.414 -0.922,0.933 -1.551,1.006 -1.133,0.133 -1.62,-0.407 -1.56,-1.288 0.072,-1.111 0.359,-2.198 0.884,-3.183 0.363,-0.679 0.804,-1.349 1.3,-1.992 0.012,-0.007 0.02,-0.011 0.029,-0.018 0.023,-0.02 0.031,-0.037 0.032,-0.059 2.03,-2.591 5.039,-4.731 8.186,-5.18 0.3,-0.043 -0.101,-0.347 -0.282,-0.32 -2.547,0.361 -4.69,1.706 -6.52,3.444 -0.627,0.596 -1.221,1.206 -1.76,1.845 -0.041,0.002 -0.078,0.008 -0.105,0.029 -1.446,1.078 -1.121,-2.634 -1.026,-2.961 0.341,-1.163 0.943,-2.172 1.818,-3.02 1.8,-1.745 4.029,-2.983 6.375,-3.843 1.668,-0.607 3.402,-1.121 5.158,-1.396 1.148,-0.181 2.347,-0.349 3.509,-0.315 0.668,0.021 1.64,-0.069 2.278,0.201 0.029,0.012 0.069,0.016 0.099,0.028 0.069,0.035 0.14,0.042 0.206,0.034 0.765,0.132 3.536,0.709 5.313,2.389 0.018,0.02 0.037,0.04 0.062,0.059 0.103,0.073 0.26,0.126 0.347,0.094 2.313,-0.88 5.756,-0.15 7.707,1.308 1.067,0.8 2.183,1.921 2.212,3.347 0.003,0.071 -0.005,0.143 -0.005,0.217 -0.088,-0.248 -0.203,-0.497 -0.377,-0.757 -0.619,-0.912 -1.736,-1.648 -2.726,-2.085 -2.253,-1 -5.045,-1.315 -7.381,-0.413 -0.234,0.092 0.21,0.357 0.38,0.292 2.181,-0.841 5.135,-0.63 7.164,0.532 1.108,0.633 2.502,1.586 2.707,2.97 0.069,0.471 0.034,0.938 0.031,1.407 -2.4,-2.111 -5.689,-2.397 -8.772,-1.987 -0.3,0.038 0.1,0.342 0.28,0.316 2.542,-0.333 5.28,-0.215 7.417,1.226 -0.308,-0.142 -0.636,-0.251 -0.966,-0.343 -0.775,-0.217 -1.591,-0.323 -2.334,-0.373 -0.059,-0.005 -0.123,-0.007 -0.184,-0.01 -2.146,-0.143 -4.591,-0.119 -6.534,0.882 -1.674,0.865 -3.367,2.454 -3.398,4.391 -10e-4,0.034 -10e-4,0.068 -10e-4,0.102 0.005,0.348 0.059,0.706 0.18,1.072 0.108,0.329 0.231,0.654 0.355,0.981 0.21,0.55 0.43,1.098 0.626,1.643 0.666,1.85 1.045,3.651 -0.256,5.336 -0.024,-1.185 -0.484,-2.215 -1.231,-3.094 -0.342,-0.399 -0.735,-0.77 -1.189,-1.105 -0.109,-0.081 -0.332,-0.079 -0.401,-0.011 -0.038,0.036 -0.03,0.09 0.067,0.162 1.541,1.143 2.463,2.702 2.214,4.644 -0.056,0.055 -0.1,0.108 -0.161,0.163 -0.157,0.141 0.305,0.372 0.453,0.244 0.02,-0.018 0.033,-0.037 0.054,-0.055 0.073,0 0.138,-0.014 0.143,-0.073 0.005,-0.027 0.003,-0.055 0.006,-0.083 1.583,-1.558 1.794,-3.543 1.059,-5.649 -0.414,-1.188 -1.318,-2.486 -1.381,-3.747 -0.062,-1.225 0.38,-2.365 1.269,-3.223 1.732,-1.683 3.953,-2.228 6.298,-2.287 1.987,-0.05 5.18,-0.128 6.449,1.726 0.001,0.055 -0.004,0.106 -10e-4,0.162 0.009,0.179 0.43,0.29 0.483,0.127 0.005,-0.014 0.021,-0.016 0.021,-0.03 -0.005,-0.066 -10e-4,-0.126 -0.002,-0.185 z M 46.598,32.864 c -0.232,0.104 0.215,0.369 0.379,0.292 1,-0.471 1.466,-1.477 1.715,-2.5 0.015,-0.058 0.029,-0.121 0.044,-0.179 0.009,-0.042 0.02,-0.083 0.029,-0.128 0.024,-0.123 -0.137,-0.218 -0.286,-0.245 -0.058,-0.01 -0.109,-0.006 -0.149,0.008 -0.029,0.013 -0.056,0.027 -0.062,0.06 -0.21,1.062 -0.627,2.206 -1.67,2.692 z M 43.74,12.376 c 0.791,-0.254 1.554,-0.508 2.36,-0.227 0.042,0.017 0.083,0.025 0.124,0.042 0.293,0.115 0.39,-0.165 0.097,-0.277 -0.019,-0.007 -0.039,-0.012 -0.056,-0.02 -1.003,-0.374 -2.076,-0.422 -2.974,0.237 -0.166,0.122 0.294,0.359 0.449,0.245 z m 2.911,9.632 c -0.02,0.001 -0.043,0.003 -0.062,0.005 -1.776,0.105 -3.259,0.596 -4.431,1.991 -0.146,0.171 0.327,0.389 0.45,0.244 1.115,-1.325 2.505,-1.821 4.21,-1.913 0.002,0 0.003,-0.001 0.004,0 0.335,-0.022 0.045,-0.339 -0.171,-0.327 z" />
        </g>
        <g
   id="Headband">
          <path
   id="Fill"
   fill="#bd5da4"
   d="m 59.325,8.432 c -0.079,0.045 -0.158,0.083 -0.244,0.12 -0.672,0.26 -1.359,0.353 -2.009,0.687 -0.479,0.251 -0.973,0.58 -1.413,0.892 -0.464,0.333 -0.936,0.624 -1.394,0.973 -0.487,0.364 -0.883,0.724 -1.318,1.139 -0.91,0.863 -1.987,1.591 -2.523,2.776 -0.239,0.532 -0.334,1.093 -0.58,1.613 -0.23,0.483 -0.182,0.997 -0.196,1.527 -0.02,0.549 0.052,1.075 0.038,1.619 -0.018,0.577 0.172,1.035 0.238,1.572 0.137,1.089 0.686,2.024 0.539,3.137 -0.451,0.093 -0.753,-0.04 -1.168,0.218 -0.127,0.082 -0.425,0.412 -0.562,0.41 -0.226,-10e-4 -0.177,-0.235 -0.238,-0.376 -0.201,-0.442 -0.672,-0.746 -0.931,-1.166 -0.269,-0.435 -0.577,-0.831 -0.844,-1.257 -0.61,-0.971 -1.029,-2.167 -1.307,-3.273 -0.296,-1.168 -0.633,-2.417 -0.363,-3.65 0.146,-0.66 0.332,-1.35 0.522,-2.002 0.21,-0.732 0.627,-1.323 1.111,-1.894 C 47.1,11 47.468,10.473 47.82,9.919 c 0.365,-0.572 0.901,-1.008 1.41,-1.466 0.601,-0.53 1.27,-0.9 1.884,-1.365 0.434,-0.33 0.894,-0.598 1.441,-0.612 0.613,-0.017 1.26,0.076 1.868,0.15 0.706,0.091 1.442,0.127 2.116,0.364 0.482,0.176 1.002,0.365 1.468,0.586 0.252,0.123 0.562,0.213 0.798,0.36 0.231,0.147 0.244,0.341 0.52,0.496" />
          <path
   id="Outline"
   fill="#010101"
   d="m 59.455,8.651 c 0.108,0.085 0.442,0.079 0.241,-0.083 -2.178,-1.74 -4.733,-2.147 -7.446,-2.26 -0.258,-0.012 -0.004,0.21 0.136,0.215 2.568,0.107 4.995,0.473 7.069,2.128 z m -9.016,15.72 c 0.043,0.125 0.414,0.2 0.377,0.082 C 50,21.962 49.099,18.18 50.358,15.701 c 1.523,-3.005 4.631,-5.032 7.473,-6.655 0.102,-0.052 -0.229,-0.234 -0.343,-0.172 -2.762,1.579 -6.454,3.802 -7.619,6.97 -0.971,2.617 -0.268,5.964 0.57,8.527 z m -1.931,0.752 c 0.071,0.095 0.446,0.15 0.354,0.024 -2.31,-2.943 -4.583,-6.996 -3.331,-10.856 0.983,-3.036 3.8,-6.709 6.934,-7.777 0.157,-0.056 -0.18,-0.239 -0.291,-0.201 -1.72,0.586 -3.173,1.979 -4.328,3.335 -1.216,1.429 -2.411,3.064 -2.807,4.943 -0.809,3.89 1.128,7.553 3.469,10.532 z" />
        </g>
      </g>
    </g>
    <g
   id="Front_Arm_1_">
      <g
   id="Arm_1_">
        <path
   fill="#a16235"
   d="m 59.52,119.491 c -0.236,-0.958 0.097,-2.053 -0.059,-3.052 -0.137,-0.905 -0.93,-1.693 -1.445,-2.461 -1.274,-1.91 -2.562,-3.611 -3.032,-5.917 -0.311,-1.525 -0.634,-2.959 -1.084,-4.452 -0.532,-1.767 -0.922,-3.042 -1.456,-4.793 -0.436,-1.432 -0.716,-3.205 -1.107,-4.629 -0.173,-0.628 -0.193,-1.524 -0.349,-2.163 -0.109,-0.451 -0.105,-0.903 -0.104,-1.385 -0.067,0.004 -0.146,0.017 -0.225,0.025 -4.531,-3.631 -11.634,-2.223 -11.634,-2.223 0.05,0.372 0.139,0.712 0.254,1.028 -0.037,0.508 0.361,1.509 0.478,1.829 0.396,1.1 1.046,2.06 1.513,3.125 1.094,2.507 2.334,5.021 3.653,7.437 1.161,2.128 2.288,4.319 3.482,6.447 0.572,1.019 0.908,2.047 1.444,3.065 0.582,1.106 0.35,1.647 0.111,2.829 -0.201,1.003 -0.16,1.942 -0.16,3.002 0,1.061 0.276,1.989 0.227,3.079 -0.106,2.316 0.373,4.146 1.049,6.296 0.246,0.774 0.12,2.252 1.245,2.223 0.277,-0.007 0.456,-0.148 0.725,-0.178 0.269,-0.031 0.431,0.062 0.658,0.061 0.532,0 0.851,-0.212 1.264,-0.541 0.752,-0.605 1.314,-1.589 1.666,-2.467 0.413,-1.027 1.016,-2.009 1.396,-3.002 0.455,-1.194 1.27,0.117 2.589,-0.961 0.215,-0.175 -0.941,-1.577 -1.099,-2.222 z"
   id="path46" />
        <path
   fill="#010101"
   d="m 60.661,121.517 c -0.42,-0.91 -0.742,-1.807 -0.889,-2.808 -0.003,-0.02 -0.032,-0.035 -0.051,-0.053 0.113,-0.559 0.157,-1.12 0.106,-1.68 0.019,-0.012 0.044,-0.019 0.035,-0.044 -0.013,-0.035 -0.028,-0.066 -0.043,-0.1 -0.003,-0.027 0,-0.058 -0.004,-0.085 -0.002,-0.021 -0.032,-0.04 -0.055,-0.058 -0.953,-2.517 -3.237,-4.335 -4.1,-6.913 -0.003,-0.013 -0.019,-0.018 -0.025,-0.025 -1.408,-6.424 -3.844,-12.59 -4.733,-19.13 -0.02,-0.146 -0.537,-0.247 -0.516,-0.08 0.907,6.657 3.418,12.924 4.81,19.473 0.011,0.043 0.06,0.077 0.126,0.104 0.979,2.408 3.117,4.188 3.981,6.637 0.178,1.522 -0.408,3.088 -1.059,4.56 -0.078,-0.079 -0.338,-0.178 -0.438,-0.147 -2.55,0.748 -4.981,0.104 -7.402,-0.764 -0.078,-0.026 -0.17,-0.027 -0.239,-0.015 -0.01,-2.562 -0.521,-5.295 0.509,-7.716 0.002,-0.007 -0.009,-0.012 -0.009,-0.019 0,-0.004 0.01,-0.005 0.007,-0.009 -1.954,-3.724 -3.968,-7.425 -5.846,-11.185 -1.254,-2.51 -2.486,-5.036 -3.623,-7.598 -0.71,-1.604 -1.887,-3.605 -1.948,-5.407 -0.007,-0.177 -0.524,-0.255 -0.521,-0.14 0.06,1.746 1.152,3.653 1.84,5.209 1.141,2.572 2.363,5.106 3.621,7.625 1.915,3.832 3.96,7.606 5.954,11.4 -1.045,2.473 -0.49,5.269 -0.503,7.871 -0.022,0.01 -0.051,0.016 -0.051,0.033 0.017,2.345 0.63,4.628 1.358,6.825 0.012,0.03 0.051,0.056 0.091,0.078 0.04,0.315 0.098,0.626 0.208,0.922 0.345,0.932 1.062,1.046 1.735,0.553 0.021,0.031 0.039,0.064 0.063,0.097 0.002,0.002 0.005,0.004 0.007,0.005 0.091,0.1 0.396,0.188 0.475,0.101 0.059,-0.063 0.103,-0.138 0.157,-0.207 0.811,0.186 1.505,-0.693 1.945,-1.305 0.957,-1.319 1.772,-2.797 2.354,-4.321 0.002,-0.004 -0.007,-0.007 -0.007,-0.012 0.136,-0.317 0.281,-0.643 0.432,-0.97 0.831,0.383 1.991,0.27 2.486,-0.537 0.04,-0.051 -0.096,-0.129 -0.238,-0.165 z m -6.816,7.12 c 1.179,-1.6 1.41,-3.914 1.844,-5.773 0.035,-0.152 -0.484,-0.285 -0.52,-0.137 -0.434,1.862 -0.667,4.238 -1.887,5.817 -0.823,-1.626 0.131,-4.198 0.382,-5.823 0.023,-0.157 -0.497,-0.275 -0.52,-0.138 -0.262,1.667 -1.196,4.165 -0.392,5.852 -0.233,0.245 -0.667,0.783 -0.9,0.148 -0.092,-0.249 -0.168,-0.499 -0.2,-0.76 -0.098,-0.807 -0.081,-1.627 0.003,-2.431 0.102,-0.995 0.259,-1.922 0.23,-2.929 -0.005,-0.175 -0.522,-0.254 -0.521,-0.138 0.035,1.134 -0.251,2.384 -0.342,3.599 -0.492,-1.667 -0.859,-3.381 -0.9,-5.132 0.02,-0.009 0.046,-0.013 0.046,-0.028 0,-0.073 -0.002,-0.148 -0.002,-0.221 0.018,0.006 0.026,0.014 0.047,0.021 2.613,0.934 5.255,1.624 7.994,0.829 -0.073,0.165 -0.145,0.329 -0.218,0.489 -0.02,0.011 -0.027,0.024 -0.021,0.044 -0.194,0.428 -0.387,0.848 -0.557,1.252 -0.002,0.004 0.006,0.008 0.006,0.014 -0.396,1.006 -0.895,1.986 -1.454,2.911 -0.16,0.271 -1.435,2.489 -2.118,2.534 z m 4.677,-6.641 c 0.348,-0.768 0.692,-1.563 0.948,-2.372 0.179,0.655 0.423,1.285 0.723,1.922 0.018,0.036 0.063,0.066 0.125,0.092 -0.397,0.525 -1.235,0.719 -1.796,0.358 z"
   id="path48" />
      </g>
      <g
   id="Sleeve_2_">
        <path
   id="Fill_11_"
   fill="#4e3a78"
   d="m 48.485,91.071 c 1.161,-0.267 2.962,-0.676 3.517,-1.803 0.804,-1.642 0.658,-3.737 0.45,-5.516 -1.278,0.523 -2.735,0.66 -4.034,0.264 -0.3,-0.093 -0.256,-0.266 0.047,-0.176 1.957,0.6 4.106,-0.29 5.567,-1.598 0.702,-0.632 1.145,-1.46 1.331,-2.374 0.245,-1.204 -0.625,-2.333 -0.823,-3.485 v 0 c -0.446,-0.917 -0.493,-1.621 -0.025,-2.603 0.207,-0.438 0.477,-0.805 0.633,-1.269 0.255,-0.754 -0.412,-1.463 -0.804,-2.013 -1.35,-1.914 0.914,-5.159 1.64,-6.946 1.535,-3.749 1.83,-9.137 -0.642,-12.58 0,0 -10e-4,0 -10e-4,-0.001 -0.819,-0.808 -1.495,-1.707 -2.431,-2.402 -1.54,-1.137 -3.604,-1.022 -5.376,-0.647 -2.161,0.455 -4.065,1.745 -5.543,3.348 -3.542,3.843 -2.939,9.049 -1.791,13.708 0.041,0.028 0.065,0.057 0.052,0.075 -0.008,0.016 -0.016,0.027 -0.023,0.041 0.005,0.024 0.011,0.049 0.017,0.072 0.009,0.037 -0.035,0.053 -0.094,0.059 -1.078,1.752 -1.831,3.566 -2.035,5.636 -0.243,2.489 0.444,5.002 0.935,7.434 0.107,0.03 0.205,0.077 0.208,0.144 0.062,1.633 0.989,2.669 2.4,3.392 0.306,0.158 -0.176,0.146 -0.3,0.081 -1.295,-0.667 -2.245,-1.556 -2.529,-2.914 -1.225,0.871 -2.217,1.991 -1.588,3.597 0.013,0.03 -0.034,0.044 -0.099,0.048 0.461,1.505 0.818,3.047 1.423,4.503 0.742,1.783 2.064,2.962 3.745,3.645 0.343,0.13 0.69,0.245 1.037,0.34 0.143,0.039 0.287,0.077 0.432,0.109 0.078,0.018 0.154,0.033 0.23,0.048 1.483,0.291 3.02,0.117 4.474,-0.217 z" />
        <path
   id="Outline_14_"
   fill="#010101"
   d="m 52.936,83.6 c -0.002,-0.016 -0.028,-0.028 -0.043,-0.042 0.403,-0.2 0.787,-0.437 1.132,-0.714 0.793,-0.643 1.58,-1.494 1.791,-2.532 0.276,-1.35 -0.449,-2.377 -0.723,-3.642 0.02,-0.007 0.043,-0.014 0.035,-0.026 -0.027,-0.054 -0.054,-0.107 -0.078,-0.159 -10e-4,-0.002 -10e-4,-0.005 -10e-4,-0.008 0,-0.001 -0.003,-0.002 -0.004,-0.003 -0.343,-0.706 -0.541,-1.44 -0.181,-2.203 0.201,-0.427 0.538,-0.84 0.686,-1.289 0.346,-1.033 -0.215,-1.527 -0.698,-2.384 -1.288,-2.295 1.254,-5.593 1.98,-7.78 C 58,59.308 58.139,54.449 55.969,51.247 55.923,51.18 55.881,51.108 55.833,51.04 55.83,51.037 55.818,51.035 55.815,51.031 c -0.003,-0.005 -0.002,-0.012 -0.01,-0.019 -0.601,-0.594 -1.161,-1.202 -1.754,-1.744 -0.489,-0.449 -1.005,-0.838 -1.58,-1.145 -0.59,-0.316 -1.237,-0.547 -2.003,-0.619 -0.012,-10e-4 -0.024,0 -0.036,-0.002 -2.486,-0.224 -5.084,0.438 -7.101,1.94 -2.333,1.741 -4.072,4.303 -4.465,7.231 -0.375,2.813 0.155,5.573 0.832,8.297 -1.908,3.066 -2.472,6.192 -1.846,9.763 0.175,0.988 0.381,1.969 0.576,2.953 0.215,1.068 -0.341,1.179 -0.964,1.83 -0.806,0.847 -1.158,1.731 -0.791,2.835 -0.059,0.005 -0.103,0.021 -0.094,0.055 0.667,2.146 1.071,4.458 2.424,6.313 0.038,0.051 0.083,0.097 0.124,0.146 1.158,1.471 3.078,2.347 4.892,2.627 2.147,0.334 4.288,0.07 6.311,-0.646 0.46,-0.163 0.919,-0.341 1.364,-0.549 1.973,-0.922 1.456,-4.955 1.242,-6.697 z m -9.588,7.535 c -0.358,-0.096 -0.706,-0.207 -1.037,-0.34 -1.679,-0.683 -3.001,-1.863 -3.745,-3.645 -0.606,-1.455 -0.961,-3 -1.423,-4.503 0.063,-0.004 0.11,-0.018 0.098,-0.048 -0.63,-1.607 0.365,-2.727 1.588,-3.597 0.284,1.358 1.233,2.248 2.529,2.914 0.125,0.065 0.607,0.077 0.299,-0.081 -1.411,-0.724 -2.336,-1.759 -2.4,-3.392 -0.003,-0.068 -0.101,-0.115 -0.208,-0.145 -0.491,-2.431 -1.177,-4.944 -0.935,-7.433 0.204,-2.07 0.958,-3.884 2.035,-5.636 0.058,-0.006 0.102,-0.021 0.094,-0.059 -0.005,-0.022 -0.011,-0.048 -0.017,-0.072 0.008,-0.014 0.016,-0.025 0.023,-0.04 0.015,-0.02 -0.01,-0.047 -0.052,-0.076 -1.148,-4.659 -1.75,-9.865 1.791,-13.708 1.477,-1.603 3.382,-2.892 5.543,-3.348 1.772,-0.374 3.836,-0.491 5.376,0.647 0.936,0.693 1.611,1.592 2.431,2.402 0,0 10e-4,0 10e-4,10e-4 2.472,3.444 2.177,8.832 0.642,12.58 -0.726,1.785 -2.989,5.032 -1.639,6.946 0.389,0.55 1.056,1.258 0.803,2.014 -0.156,0.461 -0.425,0.829 -0.633,1.268 -0.468,0.982 -0.419,1.686 0.025,2.603 v 0 c 0.198,1.153 1.068,2.282 0.823,3.485 -0.186,0.914 -0.629,1.741 -1.33,2.374 -1.462,1.31 -3.61,2.197 -5.568,1.598 -0.303,-0.092 -0.346,0.083 -0.047,0.176 1.299,0.396 2.755,0.257 4.034,-0.264 0.21,1.782 0.354,3.875 -0.45,5.516 -0.555,1.127 -2.355,1.537 -3.516,1.803 -1.455,0.333 -2.991,0.509 -4.475,0.221 -0.025,-0.004 -0.053,-0.004 -0.079,-0.01 -0.052,-0.01 -0.098,-0.027 -0.151,-0.039 -0.144,-0.034 -0.286,-0.073 -0.43,-0.112 z" />
      </g>
    </g>
  </g>
</svg>
