<svg version="1.1" width="27" height="38" xmlns="http://www.w3.org/2000/svg" xmlns:xlink="http://www.w3.org/1999/xlink">
  <!-- Exported by Scratch - http://scratch.mit.edu/ -->
  <g id="ID0.832597216591239">
    <path id="ID0.10538085969164968" fill="#39B54A" d="M 84 84 L 105 84 L 105 126 L 84 126 L 84 84 Z " transform="matrix(0.25238096714019775, 0, 0, 0.25238096714019775, 0, 0.15)"/>
    <path id="ID0.3255538293160498" fill="#39B54A" d="M 84 21 L 105 21 L 105 63 L 84 63 L 84 21 Z " transform="matrix(0.25238096714019775, 0, 0, 0.25238096714019775, 0, 0.15)"/>
    <path id="ID0.7597259450703859" fill="#39B54A" d="M 21 21 L 21 63 L 84 63 L 84 84 L 21 84 L 21 126 L 84 126 L 84 147 L 0 147 L 0 0 L 84 0 L 84 21 L 21 21 " transform="matrix(0.25238096714019775, 0, 0, 0.25238096714019775, 0, 0.15)"/>
  </g>
</svg>