<?xml version="1.0" encoding="UTF-8" standalone="no"?>
<!-- Generator: Adobe Illustrator 18.0.0, SVG Export Plug-In . SVG Version: 6.00 Build 0)  -->

<svg
   version="1.1"
   id="Layer_2"
   x="0px"
   y="0px"
   viewBox="0 0 36.944997 47.839726"
   enable-background="new 0 0 36.8 47.8"
   xml:space="preserve"
   sodipodi:docname="B-story-3.svg"
   width="36.944996"
   height="47.839725"
   xmlns:inkscape="http://www.inkscape.org/namespaces/inkscape"
   xmlns:sodipodi="http://sodipodi.sourceforge.net/DTD/sodipodi-0.dtd"
   xmlns="http://www.w3.org/2000/svg"
   xmlns:svg="http://www.w3.org/2000/svg"><defs
   id="defs9" /><sodipodi:namedview
   id="namedview7"
   pagecolor="#ffffff"
   bordercolor="#000000"
   borderopacity="0.25"
   inkscape:showpageshadow="2"
   inkscape:pageopacity="0.0"
   inkscape:pagecheckerboard="0"
   inkscape:deskcolor="#d1d1d1" />
<g
   id="g4"
   transform="translate(0.11855913,-0.06027404)">
	<path
   fill="#41a2f2"
   d="m 35.8,28.5 c -0.2,-0.4 -0.3,-0.9 -0.6,-1.2 -0.4,-0.6 -0.9,-1.1 -1.5,-1.5 -1,-0.9 -1.9,-1.8 -3,-2.5 -0.9,-0.6 -2,-1.1 -3.1,-1.6 0.2,-0.1 0.3,-0.2 0.4,-0.2 4.3,-1.9 5.2,-5.1 5.5,-8.7 0.1,-1 -0.2,-2 -0.4,-3 C 33,9 32.8,8.2 32.6,7.4 32.2,5.9 31.2,4.9 30,4 28.5,2.8 27.3,1.3 25.2,0.9 22.9,0.5 20.7,-0.1 18.4,0.1 17,0.2 15.6,0.1 14.1,0.2 11.3,0.3 8.6,0.4 5.8,0.4 c -1.5,0 -3.1,0 -4.7,0 -0.7,0 -1,0.3 -1,0.9 -0.1,0.6 0.1,1 0.7,1.1 0.6,0 1.2,0.1 1.7,0.3 0.5,0.2 1,0.5 1.3,0.9 0.3,0.6 0.6,1.3 0.6,2 0.1,3 0.2,6 0.1,8.9 -0.1,3.1 -0.3,6.2 -0.2,9.4 0,6.7 -0.2,13.3 -0.3,19.9 0,1.1 -0.3,1.3 -1.5,1.4 -0.5,0 -1.1,0 -1.6,0.2 -0.8,0.2 -1.1,0.7 -1,1.5 0.1,0.7 0.7,0.7 1.2,0.7 1.6,0.1 3.2,0.3 4.8,0.3 5,0 10,-0.1 15,-0.2 1.3,0 2.5,-0.1 3.8,-0.2 1.8,-0.1 3.6,-0.4 5.3,-1.3 1.8,-1 3.1,-2.6 4.3,-4.2 0.8,-1 1.2,-2.3 1.6,-3.6 1.1,-3.3 1.4,-6.6 -0.1,-9.9 z m -4.8,9 c -1.1,3.9 -4,5.7 -7.6,6.8 -2.5,0.7 -5,0.8 -7.5,0.5 -1.1,-0.1 -2.3,-0.1 -3.4,-0.3 -0.8,-0.1 -1.1,-0.7 -1.1,-1.4 0,-0.8 0,-1.6 0,-2.4 0,0 -0.1,0 -0.1,0 0.1,-1 0.2,-2.1 0.2,-3.1 0,-3.3 0,-6.6 -0.1,-10 0,-2.5 -0.1,-4.9 -0.1,-7.4 0,-4.9 0,-9.8 0,-14.7 0,-2.3 0.4,-2.8 2.7,-2.7 2.5,0 5.1,0.2 7.6,0.5 2.2,0.3 3.8,1.7 4.9,3.6 1.3,2.3 1.8,4.9 1.6,7.5 -0.1,1.5 -0.9,2.8 -1.8,4 -0.2,0.3 -0.8,0.4 -1.2,0.6 -2.7,1.6 -5.7,2 -8.7,1.9 -0.5,0 -0.9,0.1 -1.4,0.1 -0.5,0.1 -0.7,0.5 -0.7,1 0,0.5 0.3,0.7 0.8,0.7 1.9,0.2 3.7,0.4 5.6,0.6 2.1,0.1 4,0.8 5.4,2.3 1.2,1.3 2.4,2.5 3.6,3.8 2.2,2.4 2.1,5.2 1.3,8.1 z"
   id="path2" />
</g>
</svg>
