<?xml version="1.0" encoding="UTF-8" standalone="no"?>
<!-- Generator: Adobe Illustrator 18.0.0, SVG Export Plug-In . SVG Version: 6.00 Build 0)  -->

<svg
   version="1.1"
   id="Layer_2"
   x="0px"
   y="0px"
   viewBox="0 0 39.93405 51.433334"
   enable-background="new 0 0 39.9 51.5"
   xml:space="preserve"
   sodipodi:docname="B-story-2.svg"
   width="39.934052"
   height="51.433334"
   xmlns:inkscape="http://www.inkscape.org/namespaces/inkscape"
   xmlns:sodipodi="http://sodipodi.sourceforge.net/DTD/sodipodi-0.dtd"
   xmlns="http://www.w3.org/2000/svg"
   xmlns:svg="http://www.w3.org/2000/svg"><defs
   id="defs19" /><sodipodi:namedview
   id="namedview17"
   pagecolor="#ffffff"
   bordercolor="#000000"
   borderopacity="0.25"
   inkscape:showpageshadow="2"
   inkscape:pageopacity="0.0"
   inkscape:pagecheckerboard="0"
   inkscape:deskcolor="#d1d1d1" />
<g
   id="g14"
   transform="translate(0,-0.05555556)">
	<path
   fill="#f7941e"
   d="m 39.9,32.1 c -0.2,-2 -0.6,-3.9 -2.1,-5.3 -0.3,-0.3 -0.6,-0.7 -0.9,-1 -1,-0.9 -1.9,-1.8 -3,-2.5 -0.9,-0.6 -2,-1.1 -3.1,-1.6 0.2,-0.1 0.3,-0.2 0.5,-0.2 3.8,-1.6 5.2,-4.8 5.4,-8.7 0,-0.7 -0.2,-1.4 -0.3,-2.1 C 36.1,9.4 35.8,8.2 35.5,6.9 35.2,5.6 34.1,4.8 33.2,4 31.7,2.7 30.4,1.2 28.3,0.9 26.5,0.7 24.7,0.2 22.9,0.1 21,0 19.2,0.1 17.3,0.1 14.5,0.2 11.7,0.3 8.9,0.3 c -1.5,0 -3,0 -4.5,0 C 3.9,0.3 3.3,0.4 3,0.7 2,1.9 1.1,3.2 0.1,4.4 0,4.5 0,4.7 0,4.8 0,6 0,6 1.3,6.3 c 0.4,0.1 0.9,0.1 1.3,0.2 0.6,0.1 1,0.4 1,1.2 0,1.4 0,2.7 0,4.1 0,5.8 0,11.6 -0.5,17.4 v 0.2 C 3,32 3,34.4 3,36.9 c 0,1.5 0.1,2.9 0,4.4 -0.1,1.6 -0.2,3.1 -0.4,4.6 0,0.3 -0.3,0.5 -0.4,0.7 -0.6,0.8 -1.3,1.6 -1.8,2.5 -0.4,0.4 -0.4,1.1 -0.3,1.6 0,0.2 0.7,0.2 1.1,0.3 0.5,0.1 1,0.1 1.5,0.1 4.6,0.1 9.2,0.2 13.8,0.3 2.5,0 5.1,0.2 7.6,0 1.8,-0.1 3.6,-0.6 5.4,-1.2 2.1,-0.7 3.6,-2.4 5.1,-4 1.5,-1.6 2.9,-3.3 3.7,-5.4 1.1,-2.8 1.8,-5.7 1.6,-8.7 z m -2.2,8.3 c -0.5,1.2 -1.5,2.2 -2.5,3.2 -0.7,0.8 -1.6,1.5 -2.5,2 C 31,46.6 29,47 27,47.1 21.6,47.3 16.2,47.4 10.8,47.4 8.7,47.4 6.6,47.2 4.5,47.1 4.2,47.1 4,46.8 3.7,46.6 3.9,46.4 4.1,46 4.4,45.9 4.7,45.8 5.1,45.8 5.5,45.8 7,45.7 7.4,45.3 7.5,43.7 7.6,41.6 7.7,39.5 7.8,37.3 8,35.2 8,33.1 8.1,31.1 c 0,-2.4 0,-4.8 0,-7.1 0,-2.3 0,-4.6 0,-6.8 C 8.1,13.5 8.3,9.8 8.2,6.1 8.2,5.1 7.8,4.1 7.4,3.2 7.1,2.4 6.2,2.2 5.4,2 4.9,1.9 4.4,1.8 3.9,1.6 3.9,1.5 3.9,1.4 3.9,1.3 4,1.2 4.2,1 4.5,1 7.4,0.9 10.3,0.8 13.2,0.7 c 3,0 6,0.1 8.9,0 2.2,-0.1 4.2,0.4 6.2,0.9 0.6,0.2 1.4,0.2 1.8,0.5 1.3,1.1 2.6,2.2 3.8,3.5 1.2,1.2 1.6,2.8 1.9,4.5 0.3,1.9 0.4,3.8 -0.2,5.7 -0.8,2.5 -2.5,4 -4.8,5 -0.8,0.3 -1.6,0.5 -2.6,0.7 0.4,0.2 0.5,0.2 0.8,0.3 2.3,0.7 4.6,1.5 6.4,3.2 1.6,1.5 3.2,3 3.7,5.3 0.2,1 0.3,2.1 0.4,3.1 -0.1,2.5 -0.8,4.9 -1.8,7 z"
   id="path2" />
	<path
   fill="#ffffff"
   d="m 39,30.4 c -0.5,-2.3 -2.1,-3.8 -3.7,-5.3 -1.8,-1.7 -4.1,-2.5 -6.4,-3.2 -0.2,-0.1 -0.4,-0.1 -0.8,-0.3 1,-0.3 1.8,-0.4 2.6,-0.7 2.3,-1 4,-2.4 4.8,-5 C 36.1,14 36,12.1 35.7,10.2 35.5,8.5 35,6.9 33.8,5.7 32.6,4.5 31.4,3.3 30,2.2 29.5,1.8 28.8,1.8 28.2,1.7 26.2,1.2 24.1,0.7 22,0.8 19,0.9 16,0.8 13.1,0.8 10.2,0.8 7.3,1 4.4,1.1 4.2,1 4,1.2 3.8,1.2 c 0,0.1 0,0.2 0,0.3 0.5,0.1 1,0.3 1.5,0.4 0.8,0.2 1.6,0.4 2,1.2 C 7.7,4 8.1,5 8.2,6 8.2,9.7 8.1,13.4 8,17.1 c 0,2.3 0,4.6 0,6.8 0,2.4 0,4.8 0,7.1 0,2.1 0,4.2 -0.1,6.2 -0.1,2.1 -0.2,4.2 -0.3,6.4 -0.1,1.5 -0.5,2 -2,2.1 -0.4,0 -0.8,0 -1.1,0.1 -0.3,0.1 -0.5,0.5 -0.7,0.7 0.3,0.2 0.6,0.5 0.8,0.5 2.1,0.1 4.2,0.3 6.3,0.3 5.4,0 10.8,-0.1 16.2,-0.3 2,-0.1 3.9,-0.5 5.7,-1.5 0.9,-0.5 1.8,-1.2 2.5,-2 0.9,-1 1.9,-2 2.5,-3.2 1,-2.2 1.7,-4.5 1.6,-6.9 -0.1,-0.9 -0.2,-2 -0.4,-3 z M 10.6,4.7 c 0,0 0.1,0 0.2,-0.1 0,0.3 0.2,0.6 0.2,0.9 0.1,1.1 0.3,2.2 0.2,3.3 -0.4,4 0,8 0.2,12 0,0.8 0,0.8 -0.8,0.9 z m 0.6,31.5 c 0,1.8 0,3.5 0,5.3 0,0.9 -0.2,1.8 -0.2,2.6 -0.1,0 -0.2,0 -0.3,0 0,-0.8 -0.1,-1.5 -0.1,-2.3 0,-5.1 0.1,-10.1 0.2,-15.2 0,-0.2 0.2,-0.4 0.4,-0.6 0.1,0.2 0.3,0.4 0.3,0.6 -0.2,3.3 -0.2,6.5 -0.3,9.6 z M 11,24.6 c -0.5,0.1 -0.8,-0.3 -0.8,-0.8 0,-0.2 0.3,-0.5 0.4,-0.7 0.1,0 0.2,0 0.3,0 0.2,0.3 0.5,0.6 0.6,0.9 0.1,0.2 -0.3,0.5 -0.5,0.6 z M 34.9,37 c -0.3,1.4 -1,2.7 -1.8,3.9 -0.8,1 -1.8,1.9 -2.9,2.6 -3.8,2.2 -7.9,2.6 -12.2,1.9 -0.6,-0.1 -1.2,0 -1.8,0 -1.7,0.1 -2.3,-0.5 -2.3,-2.1 0,-4 0.1,-7.9 0.1,-11.9 0,-2.5 -0.3,-5.1 -0.3,-7.7 0,-5.5 0.1,-11 0.1,-16.5 0,-0.9 0,-1.8 0,-2.7 -0.1,-1.4 0.5,-2 1.8,-2.1 2.2,-0.1 4.5,-0.1 6.7,0 1.5,0.1 3,0.4 4.4,0.9 1.4,0.6 2.6,1.6 3.4,3 1.4,2.5 2,5.3 1.7,8.1 -0.2,1.6 -1,3 -1.9,4.3 -0.1,0.1 -0.3,0.2 -0.5,0.3 -3,1.6 -6.1,2.8 -9.5,2.5 -0.6,0 -1.1,0.1 -1.7,0.2 0,0.1 0,0.2 0,0.4 1.1,0.1 2.3,0.2 3.4,0.3 1.8,0.2 3.6,0.1 5.3,0.9 0.8,0.4 1.7,0.8 2.4,1.4 1.8,1.5 3.4,3.2 4.8,5.1 1.6,2.3 1.4,4.8 0.8,7.2 z"
   id="path4" />
	<path
   fill="#f7941e"
   d="m 34,29.8 c -1.4,-1.9 -3,-3.6 -4.8,-5.1 -0.7,-0.6 -1.6,-1 -2.4,-1.4 -1.7,-0.8 -3.5,-0.7 -5.3,-0.9 -1.1,-0.1 -2.3,-0.2 -3.4,-0.3 0,-0.1 0,-0.2 0,-0.4 0.5,-0.1 1.1,-0.2 1.7,-0.2 3.5,0.3 6.6,-0.9 9.5,-2.5 0.2,-0.1 0.3,-0.2 0.5,-0.3 0.9,-1.3 1.8,-2.8 1.9,-4.3 C 32,11.5 31.4,8.8 30,6.3 29.2,4.9 28,3.9 26.6,3.3 25.2,2.8 23.7,2.5 22.2,2.4 20,2.2 17.7,2.2 15.5,2.4 14.2,2.5 13.6,3 13.7,4.5 c 0,0.9 0,1.8 0,2.7 0,5.5 -0.1,11 -0.1,16.5 0,2.6 0.2,5.1 0.3,7.7 0,4 0,7.9 -0.1,11.9 0,1.7 0.5,2.2 2.3,2.1 0.6,0 1.2,-0.1 1.8,0 4.3,0.8 8.4,0.4 12.2,-1.9 1.1,-0.6 2.2,-1.5 2.9,-2.6 0.8,-1.1 1.4,-2.5 1.8,-3.9 0.7,-2.4 0.9,-4.9 -0.8,-7.2 z M 14.4,6.1 c 0.7,0 1.3,0 2,0.1 1.7,0.2 3.5,0.4 5.1,0.8 2.8,0.7 4.2,2.9 4.8,5.6 0.2,1 0.3,2.1 0.3,3.2 -0.1,1.9 -0.7,3.3 -2.5,4.3 -0.9,0.5 -1.8,0.5 -2.7,0.6 -0.4,0.1 -0.9,0.1 -1.3,0 -2,-0.2 -3.5,0.7 -4.7,2.2 -0.2,0.3 -0.5,0.6 -0.8,0.8 -0.1,0 -0.1,-0.1 -0.2,-0.1 V 6.1 Z m 12,37.9 c -2.5,0.8 -5,1 -7.6,0.8 -1.1,-0.1 -2.2,-0.1 -3.3,-0.2 -0.9,-0.1 -1.1,-0.7 -1.1,-1.5 0.1,-1.9 0.2,-3.7 0.1,-5.6 0,-3.4 -0.1,-6.8 -0.1,-10.1 0,-0.1 0,-0.2 0,-0.4 0.1,0 0.2,-0.1 0.3,-0.1 3.4,0.2 6.7,0.3 10,1.2 1.8,0.5 3,1.7 4,3.2 1.4,2 1.7,4.3 1.7,6.5 0.1,2.1 -1.4,5.4 -4,6.2 z"
   id="path6" />
	<path
   fill="#f7941e"
   d="m 11.3,26.7 c 0,3.2 -0.1,6.4 -0.1,9.6 0,1.8 0,3.5 0,5.3 0,0.9 -0.2,1.8 -0.2,2.6 -0.1,0 -0.2,0 -0.3,0 0,-0.8 -0.1,-1.5 -0.1,-2.3 0,-5.1 0.1,-10.1 0.2,-15.2 0,-0.2 0.2,-0.4 0.4,-0.6 -0.1,0.2 0.1,0.4 0.1,0.6 z"
   id="path8" />
	<path
   fill="#f7941e"
   d="m 10.6,21.7 v -17 c 0,0 0.1,0 0.2,-0.1 0,0.3 0.2,0.6 0.2,0.9 0.1,1.1 0.3,2.2 0.2,3.3 -0.4,4 0,8 0.2,12 0.1,0.8 0,0.8 -0.8,0.9 z"
   id="path10" />
	<path
   fill="#f7941e"
   d="m 11.6,24 c 0,0.1 -0.3,0.5 -0.6,0.5 -0.5,0.1 -0.8,-0.3 -0.8,-0.8 0,-0.2 0.3,-0.5 0.4,-0.7 0.1,0 0.2,0 0.3,0 0.3,0.4 0.6,0.7 0.7,1 z"
   id="path12" />
</g>
</svg>
