<?xml version="1.0" encoding="UTF-8" standalone="no"?>
<svg
   version="1.1"
   width="64.753242"
   height="64.753242"
   id="svg11"
   sodipodi:docname="ball-soccer.svg"
   xmlns:inkscape="http://www.inkscape.org/namespaces/inkscape"
   xmlns:sodipodi="http://sodipodi.sourceforge.net/DTD/sodipodi-0.dtd"
   xmlns="http://www.w3.org/2000/svg"
   xmlns:svg="http://www.w3.org/2000/svg">
  <defs
     id="defs15" />
  <sodipodi:namedview
     id="namedview13"
     pagecolor="#ffffff"
     bordercolor="#000000"
     borderopacity="0.25"
     inkscape:showpageshadow="2"
     inkscape:pageopacity="0.0"
     inkscape:pagecheckerboard="0"
     inkscape:deskcolor="#d1d1d1" />
  <!-- Exported by Scratch - http://scratch.mit.edu/ -->
  <g
     id="ID0.5892176600173116"
     transform="matrix(0.81450623,0,0,0.81450623,-29.322224,-27.693212)">
    <path
       id="ID0.12555817235261202"
       fill="#272525"
       d="m 75.75,34 c 10.967,0 20.904,4.454 28.1,11.65 7.196,7.196 11.65,17.133 11.65,28.1 0,10.967 -4.454,20.904 -11.65,28.1 -7.196,7.196 -17.133,11.65 -28.1,11.65 -10.967,0 -20.904,-4.454 -28.1,-11.65 C 40.454,94.654 36,84.717 36,73.75 36,62.783 40.454,52.846 47.65,45.65 54.846,38.454 64.783,34 75.75,34 Z" />
    <path
       id="ID0.5458583473227918"
       fill="#ffffff"
       d="m 113.053,73.447 c 0,19.952 -16.811,36.126 -37.548,36.126 -20.737,0 -36.129,-16.005 -36.129,-35.958 0,-19.951 15.39,-36.294 36.128,-36.294 20.738,0 37.549,16.174 37.549,36.126 z" />
    <path
       id="ID0.8007480315864086"
       fill="#272525"
       d="m 67.129,52.219 c 1.514,-0.596 14.4,1.354 15.771,2.943 1.369,1.59 0.219,14.973 -0.816,16.332 -1.035,1.36 -13.673,5.828 -15.465,5.086 -1.792,-0.743 -9.925,-9.662 -9.318,-11.882 0.607,-2.22 8.314,-11.884 9.828,-12.479 z" />
    <path
       id="ID0.3096846779808402"
       fill="#272525"
       d="m 90.318,77.956 c 0.393,-1.165 12.162,-6.611 13.852,-5.438 1.689,1.172 5.881,11.268 5.574,12.839 -0.307,1.572 -8.104,12.408 -9.932,13.015 -1.826,0.606 -11.096,-3.241 -11.889,-4.419 -0.793,-1.178 2.003,-14.831 2.395,-15.997 z" />
    <path
       id="ID0.7317186729051173"
       fill="#272525"
       d="m 59.19,108.993 c 0,0 -6.569,-11.195 -6.073,-12.515 0.497,-1.318 10.66,-3.953 12.497,-3.828 1.836,0.123 12.332,8.709 12.511,10.262 0.18,1.552 -4.23,10.087 -4.23,10.087 z" />
    <path
       id="ID0.6810249714180827"
       fill="#272525"
       d="m 112.65,59.861 c 0,0 -7.057,3.271 -8.414,3.062 C 102.877,62.715 92.904,54.36 91.924,53.169 90.947,51.98 88.355,43.79 89.531,42.875 c 1.176,-0.915 10.854,1.605 10.854,1.605 z" />
    <path
       id="ID0.9793273489922285"
       fill="#272525"
       d="m 47.054,57.706 c 1.423,0.154 3.624,9.477 3.698,10.616 0.073,1.139 -2.917,14.341 -3.665,15.401 -0.749,1.061 -6.937,2.119 -6.937,2.119 -5.033,-10.137 -0.973,-20.065 -0.973,-20.065 0,0 6.454,-8.225 7.877,-8.071 z" />
    <path
       id="ID0.3751531937159598"
       fill="#272525"
       d="m 76.307,36.406 c 0,0 1.16,1.367 0.625,2.686 -0.535,1.318 -9.958,5.731 -11.032,6.209 -1.073,0.477 0,0 0,0 0,0 -7.999,1.345 -8.711,0.672 -0.712,-0.672 -1.309,-4.012 -1.309,-4.012 l 9.366,-5.129 z" />
  </g>
</svg>
