<?xml version="1.0" encoding="UTF-8" standalone="no"?>
<svg
   version="1.1"
   id="Layer_1"
   x="0px"
   y="0px"
   width="127.57617"
   height="59.203117"
   viewBox="0 0 127.57617 59.203117"
   enable-background="new 0 0 150 150"
   xml:space="preserve"
   sodipodi:docname="ballerina-c.svg"
   xmlns:inkscape="http://www.inkscape.org/namespaces/inkscape"
   xmlns:sodipodi="http://sodipodi.sourceforge.net/DTD/sodipodi-0.dtd"
   xmlns="http://www.w3.org/2000/svg"
   xmlns:svg="http://www.w3.org/2000/svg"><defs
   id="defs95" /><sodipodi:namedview
   id="namedview93"
   pagecolor="#ffffff"
   bordercolor="#000000"
   borderopacity="0.25"
   inkscape:showpageshadow="2"
   inkscape:pageopacity="0.0"
   inkscape:pagecheckerboard="0"
   inkscape:deskcolor="#d1d1d1" />
  <g
   id="g90"
   transform="translate(-11.999915,-83.001794)">
    <path
   fill="#ff5ba1"
   d="m 66.642,125.264 c -3.072,-1.152 -5.507,-2.649 -8.766,-1.769 -3.483,0.958 -3.633,3.141 -7.417,3.435 -3.708,0.271 -7.978,0.049 -9.664,2.256 -1.498,1.987 -1.011,4.365 1.798,5.594 2.772,1.201 6.218,1.201 6.892,3.335 0.562,1.862 3.034,3.702 5.844,3.14 3.446,-0.688 5.618,-0.613 8.84,-1.668 3.071,-1.006 5.356,1.619 8.689,0.98 3.41,-0.637 5.132,-1.74 8.391,-0.883 1.724,0.44 3.708,1.422 5.394,0.883 1.799,-0.59 1.799,-2.035 3.746,-2.354 2.396,-0.392 3.935,0.54 6.293,0.099 2.359,-0.44 3.559,-2.574 5.918,-3.09 2.696,-0.589 3.633,0.44 6.068,-0.539 2.848,-1.154 3.407,-4.711 0.898,-6.132 -2.809,-1.594 -7.043,0.222 -8.539,-2.012 -0.696,-1.029 -1.145,-2.524 -2.698,-2.894 -1.961,-0.467 -5.188,0.342 -7.341,0.342 -1.312,0 -2.29,-0.99 -3.223,-1.323 -1.302,-0.466 -2.098,0.735 -3.521,0.735 0.152,-2.451 -0.748,-8.043 -0.748,-11.035 0,-2.062 -0.449,-1.521 -3.596,-1.521 0,2.403 -0.713,5.125 -4.346,5.493 -3.783,0.394 -5.542,-2.673 -5.993,-5.199 -1.911,0.073 -4.255,-1.03 -4.945,0.099 -0.898,1.472 -0.037,2.968 0.375,4.658 0.902,3.604 1.051,5.788 1.651,9.37 z"
   id="path2" />
    <path
   fill="#cf8c6e"
   d="m 64.844,115.992 c -4.382,0 -6.518,-1.975 -9.064,-4.365 -2.435,-2.294 -2.51,-4.672 -1.049,-7.311 C 57.99,98.42 58.702,95.095 66.492,91.17 65.2,90.239 64.189,89.54 63.72,88.327 c -0.168,-0.43 -0.506,-0.564 0,-0.835 0.618,-0.331 1.367,0.013 2.097,0.245 0.094,-0.906 0.3,-1.521 1.199,-2.207 0.674,-0.527 1.779,0.184 2.547,0.688 0.298,-0.613 1.18,-1.154 2.097,-0.933 0.899,0.221 0.675,0.944 0.675,1.569 0,1.237 -0.75,1.9 -0.899,3.14 1.049,-0.282 1.873,-0.526 2.922,-0.245 0.805,0.209 0.243,1.251 -0.6,1.422 -2.417,0.49 -4.588,0.355 -5.918,1.766 -1.836,1.927 -2.903,2.98 -4.569,4.955 -0.806,0.969 -0.712,1.767 -1.724,2.648 1.573,0.404 19.084,0.883 23.299,0.883 C 85.09,99.485 84.415,98.406 84.171,96.47 83.965,94.814 82,91.625 81.175,91.417 79.77,91.049 79.19,91.294 77.805,90.926 77.075,90.73 76.661,90.179 76.981,89.7 c 0.617,-0.932 2.34,-0.539 3.896,-0.539 -0.15,-1.583 -0.15,-2.49 -0.15,-4.072 0,-0.393 -0.074,-0.686 0.299,-0.98 0.338,-0.271 0.994,-0.185 1.201,0.146 0.43,0.65 0.709,1.41 1.123,2.061 0.862,-0.76 0.842,-1.435 1.797,-2.157 0.676,-0.515 2.117,-0.993 2.623,-0.394 1.143,1.338 -0.412,2.404 -1.049,3.875 1.16,-0.38 1.93,-0.588 3.223,-0.588 0,1.986 -2.998,2.402 -4.797,4.021 0.976,1.324 3.766,5.85 4.422,8.24 0.916,3.311 3.146,7.504 2.246,10.547 -0.569,1.925 -1.104,3.529 -3.597,4.609 -1.723,0.748 -4.569,1.178 -4.569,1.178 0,0 -0.449,-2.342 -0.449,-3.729 -0.73,-0.318 -3.651,0.479 -4.12,0.784 -0.638,0.417 -0.036,0.944 -0.224,1.521 -0.487,1.436 -2.492,2.209 -4.722,2.209 -2.715,0 -4.495,-1.632 -5.468,-3.287 -0.618,-1.066 -2.548,-0.748 -4.27,-0.98 -0.396,1.569 0.111,2.257 0.448,3.827 z"
   id="path4" />
    <path
   fill="#ff9cd1"
   d="m 127.257,131.05 c -0.899,0.49 -0.599,1.177 -0.599,1.177 l -15.434,-1.568 0.6,2.453 -2.848,2.158 21.352,0.734 0.602,-1.863 -0.228,-1.521 c 0.001,0 -1.496,-1.667 -3.445,-1.57 z"
   id="path6" />
    <path
   fill="#272525"
   d="m 126.167,131.676 c -4.931,-0.01 -14.858,-1.199 -14.858,-1.199 0,0 -0.82,0.842 0.319,1.08 1.022,0.215 13.695,1.242 15.549,1.353 l 0.55,-1.501 c 2.892,0.447 2.479,2.713 0.965,3.874 -6.489,-0.032 -12.959,-0.45 -19.448,-0.481 -0.472,0.391 -1.354,0.532 -1.651,0.991 5.807,-0.121 11.604,0.197 17.393,0.452 2.629,0.115 6.605,0.674 8.043,0.152 3.84,-1.391 8.396,-12.403 5.769,-12.263 -6.431,0.346 -11.504,4.161 -12.631,7.542 z"
   id="path8" />
    <path
   fill="#ff5ba1"
   d="m 133.645,126.782 c 1.191,1.251 0.058,3.69 -2.386,3.813 -1.127,0.057 -2.752,-1.223 -3.118,0 3.117,0.961 4.596,2.611 2.661,4.686 0,0 1.205,0.335 2.374,-0.209 1.17,-0.543 5.713,-9.622 4.346,-9.663 -1.649,-0.05 -3.556,0.707 -3.877,1.373 z"
   id="path10" />
    <path
   fill="#ff9cd1"
   d="m 129.379,129.395 c 0.837,1.035 4.327,-0.328 2.432,-1.951 -1.071,0.494 -1.85,1.189 -2.432,1.951 z"
   id="path12" />
    <path
   fill="#ff9cd1"
   d="m 24.315,131.05 c 0.898,0.49 0.599,1.177 0.599,1.177 l 15.433,-1.568 -0.6,2.453 2.847,2.158 -21.351,0.734 -0.599,-1.863 0.225,-1.521 c 0,0 1.498,-1.667 3.446,-1.57 z"
   id="path14" />
    <path
   fill="#272525"
   d="m 25.405,131.676 c 4.931,-0.01 14.861,-1.199 14.861,-1.199 0,0 0.818,0.842 -0.32,1.08 -1.025,0.215 -13.694,1.242 -15.55,1.353 l -0.551,-1.501 c -2.889,0.447 -2.478,2.713 -0.962,3.874 6.489,-0.032 12.958,-0.45 19.447,-0.481 0.471,0.391 1.355,0.532 1.651,0.991 -5.806,-0.121 -11.604,0.197 -17.392,0.452 -2.628,0.115 -6.606,0.674 -8.042,0.152 -3.84,-1.391 -8.396,-12.403 -5.769,-12.263 6.428,0.346 11.501,4.161 12.627,7.542 z"
   id="path16" />
    <path
   fill="#ff5ba1"
   d="m 17.928,126.782 c -1.192,1.251 -0.057,3.69 2.385,3.813 1.127,0.057 2.753,-1.223 3.12,0 -3.119,0.961 -4.597,2.611 -2.661,4.686 0,0 -1.207,0.335 -2.375,-0.209 -1.169,-0.543 -5.713,-9.622 -4.345,-9.663 1.647,-0.05 3.554,0.707 3.876,1.373 z"
   id="path18" />
    <path
   fill="#ff9cd1"
   d="m 22.194,129.395 c -0.839,1.035 -4.328,-0.328 -2.431,-1.951 1.07,0.494 1.848,1.189 2.431,1.951 z"
   id="path20" />
    <path
   fill="#272525"
   d="m 83.697,85.801 c 0.793,-1.009 1.822,-2.5 3.072,-2.73 3.221,-0.596 1.777,2.826 0.871,3.812 0.658,-0.102 2.232,-0.496 2.661,0.061 1.056,1.369 -3.354,3.203 -4.495,3.966 1.215,2.864 2.867,5.401 4.403,8.289 4.449,8.356 3.026,14.782 -4.541,17.147 -0.487,0.15 -1.722,0.139 -1.646,-0.746 10.485,-2.895 6.539,-11.164 4.947,-15.683 -1.092,-3.101 -1.967,-4.946 -3.943,-7.838 -0.287,-0.42 -0.998,-1.304 -0.873,-1.742 1.798,-0.763 5.625,-2.021 5.037,-2.696 -0.59,-0.675 -2.924,1.275 -4.496,1.228 0.07,-0.949 4.279,-3.998 2.533,-4.808 -1.746,-0.81 -4.404,4.414 -4.404,4.414 0,0 -10e-4,-3.924 -1.199,-4.07 -1.199,-0.147 0.254,4.099 0.328,5.152 -1.229,0.463 -3.712,-0.471 -3.991,0.84 -0.083,0.679 2.877,0.318 3.325,0.53 3.343,1.587 4.686,7.813 4.934,10.372 0.17,1.771 0.573,4.637 -1.882,5.615 -0.366,-0.027 -0.591,-0.216 -0.733,-0.42 2.392,-2.141 1.242,-10.955 -2.654,-14.659 -1.506,-0.497 -5.675,0.151 -4.868,-2.009 0.431,-1.151 2.688,-0.809 3.989,-1.081 0.173,-1.867 -1.118,-5.032 0.91,-5.423 2.028,-0.39 2.282,1.584 2.715,2.479 z"
   id="path22" />
    <path
   fill="#272525"
   d="m 72.028,89.256 c 1.153,-0.008 2.962,-0.091 3.302,0.871 0.568,1.602 -4.081,1.828 -5.504,2.012 -5.777,4.161 -12.251,10.992 -5.688,16.219 -0.247,0.365 -0.496,0.736 -0.55,1.141 -1.079,-0.206 -2.495,-1.107 -3.119,-1.712 -2.989,-2.896 -0.451,-8.444 2.431,-11.021 1.101,-0.984 5.201,-5.386 6.834,-5.496 0.818,-0.056 4.154,-0.394 3.945,-1.08 -0.169,-0.56 -2.206,0.203 -3.303,0.299 0,0 2.334,-4.488 1.009,-4.687 -1.161,-0.17 -1.252,2.503 -2.202,3.665 0,0 0.005,-3.736 -1.009,-3.603 -1.803,0.237 -0.393,3.329 -0.559,4.01 -1.011,-1.274 -2.435,-2.478 -2.927,-2.269 -1.475,0.625 2.208,2.718 2.702,3.666 -1.498,0.883 -3.967,2.59 -5.233,3.621 -4.397,3.586 -7.598,8.113 -7.284,12.803 0.372,5.549 9.646,7.162 9.677,7.207 0.228,0.324 0.867,1.316 0.593,1.63 -4.191,0.141 -8.4,-2.632 -10.179,-4.872 -4.769,-6.008 3.811,-17.446 10.917,-20.542 -1.111,-1.257 -3.761,-2.491 -2.201,-4.084 0.567,-0.579 1.249,-0.661 2.109,-0.24 0.264,-0.58 0.618,-2.006 1.652,-2.224 0.776,-0.161 2.056,0.486 2.063,1.021 0.367,-0.484 0.855,-0.984 1.652,-1.08 2.902,-0.353 1.471,3.54 0.872,4.745 z"
   id="path24" />
    <path
   fill="#272525"
   d="m 64.919,110.398 c 1.192,5.348 1.989,11.562 2.586,17.058 0.057,0.526 -1.612,0.896 -1.743,0.211 -0.822,-4.323 -2.019,-15.797 -1.881,-17.449 1.056,0.059 0.671,-0.209 1.038,0.18 z"
   id="path26" />
    <path
   fill="#272525"
   d="m 83.055,110.458 c 0.264,0.001 0.522,0.2 0.551,0.36 0.303,1.709 2.446,16.154 2.385,16.277 -0.127,0.247 -0.684,0.286 -0.963,0.148 -1.408,-0.682 -2.553,-14.861 -1.973,-16.785 z"
   id="path28" />
    <path
   fill="#272525"
   d="m 102.318,124.874 c 0.348,0.55 0.012,1.396 0.965,1.711 2.574,0.853 4.287,0.074 7.035,1.62 1.791,1.009 2.14,1.758 2.32,3.427 0.157,1.427 -0.84,3.249 -2.752,4.054 -2.16,0.908 -5.878,-0.617 -7.798,0.42 -1.813,0.98 -2.633,2.295 -5.182,2.732 -2.923,0.504 -4.681,-1.675 -7.064,0.451 -0.938,0.835 -3.348,1.734 -4.952,1.712 -2.707,-0.041 -5.521,-2.06 -8.44,-0.933 -2.767,1.07 -4.116,2.156 -7.706,1.742 -2.08,-0.24 -2.342,-2.209 -4.77,-1.441 -3.778,1.193 -6.817,2.512 -11.192,1.441 -5.847,-1.429 -3.631,-4.883 -5.642,-5.496 -2.618,-0.797 -9.325,-0.363 -9.219,-4.594 0.08,-3.229 5.531,-6.602 10.549,-5.348 1.02,0.256 1.347,0.661 2.66,0.062 2.995,-1.369 3.448,-2.805 7.339,-3.365 4.202,-0.604 6.461,1.765 5.643,1.923 -5.833,-2.192 -8.516,1.68 -12.981,2.463 -3.108,0.545 -7.944,-0.146 -9.495,2.463 -0.687,1.154 -1.337,2.728 -0.183,3.813 1.81,1.703 3.881,1.012 6.375,1.44 4.148,0.716 2.705,4.437 7.797,5.104 4.16,0.549 7.705,-1.809 10.137,-1.352 2.305,0.436 3.826,1.73 6.605,1.203 2.313,-0.441 3.82,-2.242 6.695,-1.441 9.764,2.717 7.018,-2.982 14.771,-1.293 3.146,0.688 5.695,-0.752 7.477,-2.223 2.174,-1.795 7.318,0.428 9.127,-3.033 0.611,-1.17 -0.362,-2.894 -1.973,-3.543 -2.838,-1.147 -6.632,0.148 -8.484,-2.521 -0.773,-1.115 -1.935,-2.051 -3.854,-2.282 -2.445,-0.297 -5.21,1.394 -7.246,0 -0.691,-0.476 -1.158,-1.079 -2.34,-0.722 -0.266,0.08 -0.57,0.346 -0.871,0.119 0.077,-0.332 0.322,-0.575 0.676,-0.823 2.125,-1.489 2.549,1.473 4.508,1.065 5.583,-1.158 10.357,-0.315 11.465,1.445 z"
   id="path30" />
    <path
   fill="#272525"
   d="m 87.779,126.795 c 7.271,-1.443 3.486,2.33 6.697,2.523 1.795,0.106 4.853,-1.215 6.19,0.358 0.474,0.558 -0.129,1.558 1.285,1.742 1.411,0.187 3.062,-0.028 3.853,1.021 0.37,0.492 -0.109,1.039 -0.871,1.201 -3.914,0.838 -4.466,-3.057 -6.146,-3.304 -1.613,-0.235 -4.499,1.828 -6.284,0.421 -1.532,-1.207 0.059,-3.532 -4.724,-3.962 z"
   id="path32" />
    <path
   fill="#272525"
   d="m 64.753,128.538 c -0.641,0.299 -1.314,-0.205 -2.201,0.06 -2.952,0.883 -1.331,3.363 -4.495,3.965 -2.707,0.359 -3.944,-1.771 -6.605,-1.502 -2.431,0.359 -3.257,3.635 -6.284,2.104 -0.275,-0.571 0.183,-1.083 0.688,-1.531 2.706,-1.293 6.926,-2.132 10,-0.932 3.009,1.176 3.026,-3.062 6.467,-3.094 0.962,0.089 2.109,0.298 2.43,0.93 z"
   id="path34" />
    <path
   fill="#272525"
   d="m 87.641,129.258 c 1.332,0.842 0.047,2.434 2.021,3.034 1.879,0.39 4.86,0.45 5.045,2.222 0.045,0.689 -0.331,1.37 -1.331,1.652 -1.859,0.525 -1.422,-2.223 -2.843,-2.583 -1.285,-0.392 -3.44,0.028 -3.854,-1.142 -0.505,-1.053 1.09,-2.568 -2.432,-3.185 -0.183,-0.538 2.753,-0.238 3.394,0.002 z"
   id="path36" />
    <path
   fill="#272525"
   d="m 66.404,134.814 c -2.232,0.981 -4.232,1.138 -4.724,3.151 -0.083,0.343 -0.669,0.785 -1.193,0.871 -2.62,0.433 -1.573,-1.979 -0.917,-2.672 1.321,-1.397 4.026,-1.291 5.962,-2.072 0.586,-1.87 -4.534,-3.474 3.854,-4.836 -5.816,2.333 0.547,4.006 -2.982,5.558 z"
   id="path38" />
    <path
   fill="#272525"
   d="m 78.191,129.618 c -0.838,0.844 -2.328,0.733 -0.551,2.674 0.44,0.479 1.817,1.123 2.295,1.591 1.232,1.209 -3.947,2.396 -0.643,3.453 0.494,0.975 -1.738,0.915 -2.521,0.631 -3.286,-1.184 1.496,-3.354 0.869,-4.324 -0.681,-1.057 -5.796,-1.788 0.551,-4.025 z"
   id="path40" />
    <path
   fill="#272525"
   d="m 79.954,111.199 c 0.21,2.097 0.327,4.363 -3.069,5.412 -1.438,0.445 -4.073,0.397 -5.564,-0.108 -2.31,-0.782 -3.219,-3.163 -3.43,-4.575 0.125,-0.228 1.082,-0.542 1.402,-0.127 -0.708,4.465 10.07,7.006 9.385,-0.729 0.42,-0.09 0.879,0.016 1.276,0.127 z"
   id="path42" />
    <path
   fill="#272525"
   d="m 69.166,124.968 c -0.992,0 -0.839,-0.875 -0.126,-0.875 0.713,0 12.242,-0.159 13.313,-0.159 1.07,0 1.088,1.023 0.062,1.023 -1.028,0 -12.258,0.011 -13.249,0.011 z"
   id="path44" />
    <path
   fill="#272525"
   d="m 83.007,127.549 c 0.649,0 0.835,0.582 -0.062,0.582 -0.895,0 -12.891,0.104 -13.691,0.104 -0.8,0 -1.037,-0.76 -0.167,-0.76 0.873,0.002 13.272,0.074 13.92,0.074 z"
   id="path46" />
    <path
   fill="#272525"
   d="m 56.828,99.511 c -0.282,-1.018 -2.266,-0.675 -3.821,-0.784 -0.786,-0.05 -0.842,-0.602 -1.348,-0.98 -1.685,-1.251 -4.419,-2.194 -6.367,-1.079 -0.581,0.331 -0.6,0.735 -1.274,0.981 -1.536,0.552 -2.978,0.072 -4.345,0.783 -1.967,1.029 0,2.896 -1.798,4.071 -1.348,1.324 2.322,2.833 4.645,2.552 2.622,-0.32 3.689,-2.416 6.218,-1.815 1.592,0.368 2.604,0.932 4.196,0.589 1.61,-0.344 0.936,-2.012 2.547,-2.307 1.253,-0.233 1.572,-1.153 1.347,-2.011 z"
   id="path48" />
    <path
   fill="#272525"
   d="m 90.016,100.492 c -0.375,-0.676 -0.168,-1.57 0.897,-1.717 1.256,-0.172 2.474,-0.012 3.073,-0.736 1.104,-1.312 3.576,-2.439 5.393,-1.52 2.359,1.201 5.395,-0.64 7.492,0.734 1.723,1.128 -0.713,2.796 0.749,4.071 0.599,0.856 0.448,1.668 -0.45,2.401 -0.859,0.713 -2.604,0.848 -3.596,0.197 -0.506,-0.332 -0.77,-0.785 -1.497,-0.736 -1.593,0.123 -2.154,1.03 -3.747,1.08 -2.51,0.072 -3.464,-2.846 -5.918,-2.502 -1.124,0.146 -2.135,0.625 -2.771,0 -0.618,-0.61 0.768,-0.561 0.375,-1.272 z"
   id="path50" />
    <path
   fill="#272525"
   d="m 87.626,102.542 c 0.64,0.21 3.478,0.034 4.093,-0.472 0.737,-0.604 -0.711,-2.922 -1.699,-3.084 -0.783,-0.127 -3.315,0.621 -3.523,1.236 -0.083,0.239 0.155,2.001 1.129,2.32 z"
   id="path52" />
    <path
   fill="#ff9cd1"
   d="m 87.039,100.369 c 0.074,-0.221 2.021,-0.883 2.473,-0.809 0.448,0.072 1.535,1.938 1.235,2.182 -0.3,0.246 -2.659,0.441 -3.034,0.32 -0.376,-0.123 -0.75,-1.472 -0.674,-1.693 z"
   id="path54" />
    <path
   fill="#272525"
   d="m 59.012,102.542 c -0.64,0.21 -3.478,0.034 -4.094,-0.472 -0.738,-0.604 0.711,-2.922 1.7,-3.084 0.782,-0.127 3.315,0.621 3.525,1.236 0.081,0.239 -0.155,2.001 -1.131,2.32 z"
   id="path56" />
    <path
   fill="#ff9cd1"
   d="m 59.6,100.369 c -0.075,-0.221 -2.023,-0.883 -2.473,-0.809 -0.449,0.072 -1.536,1.938 -1.235,2.182 0.299,0.246 2.659,0.441 3.033,0.32 0.375,-0.123 0.75,-1.472 0.675,-1.693 z"
   id="path58" />
    <path
   fill="#272525"
   d="m 57.365,105.152 c -0.865,-0.467 -1.341,-1.215 -1.013,-2.012 0.342,-0.811 1.862,-0.394 2.265,-1.179 0.328,-0.637 0.015,-1.151 0.417,-1.767 0.581,-0.87 1.744,-1.104 2.921,-0.883 2.31,0.441 1.58,-1.36 3.815,-2.012 2.027,-0.588 2.862,0.602 3.816,0.688 1.236,0.11 1.669,-1.128 3.815,-1.128 2.146,0 2.474,1.238 3.71,1.128 0.955,-0.087 1.789,-1.275 3.816,-0.688 2.236,0.65 1.506,2.453 3.814,2.012 1.179,-0.221 2.342,0.013 2.923,0.883 0.401,0.613 0.089,1.13 0.417,1.767 0.402,0.785 1.588,0.517 1.932,1.324 0.327,0.798 0.186,1.397 -0.681,1.864 H 57.365 Z"
   id="path60" />
    <path
   fill="#cf8c6e"
   d="m 88.298,109.016 c 0.417,0.422 1.402,0.486 2.201,0.147 0.797,-0.339 1.104,-0.955 0.688,-1.376 -0.416,-0.42 -1.401,-0.485 -2.201,-0.146 -0.795,0.339 -1.104,0.955 -0.688,1.375 z"
   id="path62" />
    <path
   fill="none"
   d="m 88.087,109.165 c -0.687,-0.692 -0.26,-1.674 0.955,-2.19 1.215,-0.516 2.757,-0.373 3.442,0.32 0.688,0.691 0.261,1.673 -0.955,2.189 -1.213,0.517 -2.754,0.373 -3.442,-0.319 z"
   id="path64" />
    <path
   fill="#272525"
   d="m 88.087,109.165 c -0.687,-0.692 -0.26,-1.674 0.955,-2.19 1.215,-0.516 2.757,-0.373 3.442,0.32 0.688,0.691 0.261,1.673 -0.955,2.189 -1.213,0.517 -2.754,0.373 -3.442,-0.319 z"
   id="path66" />
    <path
   fill="none"
   d="m 88.087,109.165 c -0.687,-0.692 -0.26,-1.674 0.955,-2.19 1.215,-0.516 2.757,-0.373 3.442,0.32 0.688,0.691 0.261,1.673 -0.955,2.189 -1.213,0.517 -2.754,0.373 -3.442,-0.319 z"
   id="path68" />
    <path
   fill="#cf8c6e"
   d="m 58.415,109.016 c -0.418,0.422 -1.402,0.486 -2.201,0.147 -0.798,-0.339 -1.106,-0.955 -0.69,-1.376 0.417,-0.42 1.402,-0.485 2.2,-0.146 0.797,0.339 1.107,0.955 0.691,1.375 z"
   id="path70" />
    <path
   fill="none"
   d="m 58.625,109.165 c 0.688,-0.692 0.26,-1.674 -0.955,-2.19 -1.214,-0.516 -2.757,-0.373 -3.444,0.32 -0.687,0.691 -0.259,1.673 0.955,2.189 1.215,0.517 2.756,0.373 3.444,-0.319 z"
   id="path72" />
    <path
   fill="#272525"
   d="m 58.625,109.165 c 0.688,-0.692 0.26,-1.674 -0.955,-2.19 -1.214,-0.516 -2.757,-0.373 -3.444,0.32 -0.687,0.691 -0.259,1.673 0.955,2.189 1.215,0.517 2.756,0.373 3.444,-0.319 z"
   id="path74" />
    <path
   fill="none"
   d="m 58.625,109.165 c 0.688,-0.692 0.26,-1.674 -0.955,-2.19 -1.214,-0.516 -2.757,-0.373 -3.444,0.32 -0.687,0.691 -0.259,1.673 0.955,2.189 1.215,0.517 2.756,0.373 3.444,-0.319 z"
   id="path76" />
    <ellipse
   fill="#272525"
   cx="73.385002"
   cy="106.868"
   rx="16.556999"
   ry="6.5219998"
   id="ellipse78" />
    <path
   fill="#cf8c6e"
   d="m 88.214,106.868 c 0,2.53 -5.766,5.837 -14.83,5.837 -9.065,0 -14.83,-3.307 -14.83,-5.837 0,-2.53 5.765,-5.394 14.83,-5.394 9.065,10e-4 14.83,2.864 14.83,5.394 z"
   id="path80" />
    <path
   fill="#272525"
   d="m 73.154,105.657 h -0.046 c -1.348,0.011 -1.61,0.543 -1.7,0.776 -0.091,0.236 -0.996,0.311 -1.068,-0.007 -0.038,-0.161 0.521,-1.327 2.771,-1.342 h 0.042 c 2.251,0.015 2.807,1.181 2.77,1.342 -0.071,0.316 -0.977,0.243 -1.067,0.007 -0.091,-0.232 -0.355,-0.765 -1.702,-0.776 z"
   id="path82" />
    <path
   fill="#272525"
   d="m 68.343,107.516 c 2.948,1.285 6.462,1.32 9.359,0.094 0.198,-0.084 0.593,0.224 0.437,0.414 -0.755,0.931 -2.717,2.806 -4.753,2.818 -2.221,0.014 -4.531,-1.912 -5.466,-2.797 -0.202,-0.19 0.189,-0.632 0.423,-0.529 z"
   id="path84" />
    <path
   fill="#272525"
   d="m 63.251,104.482 c 1.504,-1.088 4.305,-1.633 5.755,-0.515 0.647,0.498 -0.496,1.134 -1.143,0.636 -1.04,-0.804 -3.077,-0.629 -4.154,0.149 -0.277,0.201 -0.735,-0.07 -0.458,-0.27 z"
   id="path86" />
    <path
   fill="#272525"
   d="m 83.087,104.482 c -1.505,-1.088 -4.305,-1.633 -5.757,-0.515 -0.646,0.498 0.496,1.134 1.145,0.636 1.039,-0.804 3.076,-0.627 4.153,0.149 0.278,0.201 0.735,-0.07 0.459,-0.27 z"
   id="path88" />
  </g>
</svg>
