<?xml version="1.0" encoding="UTF-8" standalone="no"?>
<svg
   version="1.1"
   width="73.228264"
   height="137.40512"
   id="svg26"
   sodipodi:docname="balloon1-b.svg"
   xmlns:inkscape="http://www.inkscape.org/namespaces/inkscape"
   xmlns:sodipodi="http://sodipodi.sourceforge.net/DTD/sodipodi-0.dtd"
   xmlns="http://www.w3.org/2000/svg"
   xmlns:svg="http://www.w3.org/2000/svg">
  <sodipodi:namedview
     id="namedview28"
     pagecolor="#ffffff"
     bordercolor="#000000"
     borderopacity="0.25"
     inkscape:showpageshadow="2"
     inkscape:pageopacity="0.0"
     inkscape:pagecheckerboard="0"
     inkscape:deskcolor="#d1d1d1" />
  <defs
     id="defs17">
    <radialGradient
       id="grad_1"
       cx="186.04179"
       cy="96.164434"
       r="19.425727"
       gradientTransform="scale(0.46257421,2.1618153)"
       fx="186.04179"
       fy="96.164434"
       gradientUnits="userSpaceOnUse">
      <stop
         offset="0"
         stop-color="#F0D520"
         stop-opacity="1"
         id="stop2" />
      <stop
         offset="1"
         stop-color="#FF9400"
         stop-opacity="1"
         id="stop4" />
    </radialGradient>
    <radialGradient
       id="grad_2"
       cx="357.75698"
       cy="127.1019"
       r="4.7054846"
       gradientTransform="scale(0.59117186,1.6915555)"
       fx="357.75698"
       fy="127.1019"
       gradientUnits="userSpaceOnUse">
      <stop
         offset="0"
         stop-color="#F0D520"
         stop-opacity="1"
         id="stop7" />
      <stop
         offset="1"
         stop-color="#FF9400"
         stop-opacity="1"
         id="stop9" />
    </radialGradient>
    <radialGradient
       id="grad_3"
       cx="522.11124"
       cy="171.7301"
       r="70.48603"
       gradientTransform="scale(0.892706,1.1201896)"
       fx="522.11124"
       fy="171.7301"
       gradientUnits="userSpaceOnUse">
      <stop
         offset="0"
         stop-color="#FFFF00"
         stop-opacity="1"
         id="stop12" />
      <stop
         offset="1"
         stop-color="#FF9400"
         stop-opacity="1"
         id="stop14" />
    </radialGradient>
  </defs>
  <!-- Exported by Scratch - http://scratch.mit.edu/ -->
  <g
     id="ID0.318774017971009"
     transform="translate(-2.1667169,-2.4362424)">
    <g
       id="ID0.8842033431865275">
      <g
         id="ID0.9813417503610253">
        <g
           id="ID0.6985900145955384">
          <path
             id="ID0.020438293926417828"
             fill="url(#grad_1)"
             d="m 83,184.5 c -3.49,4.157 -4.43,8.884 -3.538,14.175 0.726,4.298 7.75,6.117 7.949,0.672 0.067,-1.862 0.046,-3.741 -0.034,-5.602 -0.198,-4.579 -4.116,2.843 -4.252,4.821 -0.387,5.615 -0.505,11.953 4.542,15.601 0.01,-0.113 0.014,-0.228 0.013,-0.342 0.017,-1.154 0.109,-1.99 0.654,-2.992 0.5,-0.919 -0.73,-4.451 0,-5 -8.636,6.488 -4.93,22.308 1.333,29 -0.813,-0.869 0.849,-4.093 0,-5 -5.466,-5.84 -8.514,-13.605 -1.333,-19 0,-1.667 0,-3.333 0,-5 -0.519,0.954 -0.653,1.888 -0.669,2.967 -0.007,0.483 -2.278,-1.752 -2.315,-1.797 -0.714,-0.849 -1.141,-1.913 -1.559,-2.923 -0.891,-2.149 -0.589,-1.76 0.259,-3.83 0.435,-1.062 1.232,-1.894 2.018,-2.697 1.551,-1.586 1.28,0.633 1.33,1.794 0.002,-1.638 0.004,-3.274 0.007,-4.911 -0.252,3.105 -2.755,4.099 -5.404,2.731 -1.354,-0.699 -2.123,-2.095 -2.538,-3.492 0.727,2.449 -0.082,1.943 0.699,0.002 0.628,-1.563 1.771,-2.904 2.839,-4.177 0.835,-0.996 -0.806,-4.041 -0.001,-5 z"
             transform="rotate(1.1203744,4922.2942,-2377.6896)"
             style="fill:url(#grad_1)" />
        </g>
      </g>
      <path
         id="ID0.444075814448297"
         fill="none"
         stroke="url(#grad_2)"
         stroke-width="2"
         stroke-linecap="round"
         d="m 212.6,211.6 c 0,0 0.109,3.016 -0.1,4.5 -0.096,0.68 -0.8,1.9 -0.8,1.9"
         transform="translate(-173.25,-99.75)"
         style="stroke:url(#grad_2)" />
    </g>
    <path
       id="ID0.790923397988081"
       fill="url(#grad_3)"
       d="m 493.075,212.752 c -4.552,24.615 -34.956,41.056 -43.872,40.332 -9.723,-0.789 -32.514,-29 -27.963,-53.617 4.553,-24.615 24.324,-41.597 44.16,-37.929 19.836,3.668 32.227,26.599 27.675,51.214 z"
       transform="rotate(-2.6601275,-3165.1297,9138.7061)"
       style="fill:url(#grad_3)" />
  </g>
</svg>
