<svg version="1.1" width="116" height="114" xmlns="http://www.w3.org/2000/svg" xmlns:xlink="http://www.w3.org/1999/xlink">
  <!-- Exported by Scratch - http://scratch.mit.edu/ -->
  <g id="ID0.5892176600173116" transform="matrix(0.8145062327384949, 0, 0, 0.8145062327384949, -28.9, -27.25)">
    <path id="ID0.12555817235261202" fill="#272525" d="M 75.750 34 C 86.717 34 96.654 38.454 103.850 45.650 C 111.046 52.846 115.500 62.783 115.500 73.750 C 115.500 84.717 111.046 94.654 103.850 101.850 C 96.654 109.046 86.717 113.500 75.750 113.500 C 64.783 113.500 54.846 109.046 47.650 101.850 C 40.454 94.654 36 84.717 36 73.750 C 36 62.783 40.454 52.846 47.650 45.650 C 54.846 38.454 64.783 34 75.750 34 Z "/>
    <path id="ID0.5458583473227918" fill="#FFFFFF" d="M 113.053 73.447 C 113.053 93.399 96.242 109.573 75.505 109.573 C 54.768 109.573 39.376 93.568 39.376 73.615 C 39.376 53.664 54.766 37.321 75.504 37.321 C 96.242 37.321 113.053 53.495 113.053 73.447 L 113.053 73.447 Z "/>
    <path id="ID0.8007480315864086" fill="#272525" d="M 67.129 52.219 C 68.643 51.623 81.529 53.573 82.900 55.162 C 84.269 56.752 83.119 70.135 82.084 71.494 C 81.049 72.854 68.411 77.322 66.619 76.580 C 64.827 75.837 56.694 66.918 57.301 64.698 C 57.908 62.478 65.615 52.814 67.129 52.219 L 67.129 52.219 Z "/>
    <path id="ID0.3096846779808402" fill="#272525" d="M 90.318 77.956 C 90.711 76.791 102.480 71.345 104.170 72.518 C 105.859 73.690 110.051 83.786 109.744 85.357 C 109.437 86.929 101.640 97.765 99.812 98.372 C 97.986 98.978 88.716 95.131 87.923 93.953 C 87.130 92.775 89.926 79.122 90.318 77.956 L 90.318 77.956 Z "/>
    <path id="ID0.7317186729051173" fill="#272525" d="M 59.190 108.993 C 59.190 108.993 52.621 97.798 53.117 96.478 C 53.614 95.160 63.777 92.525 65.614 92.650 C 67.450 92.773 77.946 101.359 78.125 102.912 C 78.305 104.464 73.895 112.999 73.895 112.999 L 59.190 108.993 L 59.190 108.993 Z "/>
    <path id="ID0.6810249714180827" fill="#272525" d="M 112.650 59.861 C 112.650 59.861 105.593 63.132 104.236 62.923 C 102.877 62.715 92.904 54.360 91.924 53.169 C 90.947 51.980 88.355 43.790 89.531 42.875 C 90.707 41.960 100.385 44.480 100.385 44.480 L 112.650 59.861 L 112.650 59.861 Z "/>
    <path id="ID0.9793273489922285" fill="#272525" d="M 47.054 57.706 C 48.477 57.860 50.678 67.183 50.752 68.322 C 50.825 69.461 47.835 82.663 47.087 83.723 C 46.338 84.784 40.150 85.842 40.150 85.842 C 35.117 75.705 39.177 65.777 39.177 65.777 C 39.177 65.777 45.631 57.552 47.054 57.706 L 47.054 57.706 Z "/>
    <path id="ID0.3751531937159598" fill="#272525" d="M 76.307 36.406 C 76.307 36.406 77.467 37.773 76.932 39.092 C 76.397 40.410 66.974 44.823 65.900 45.301 C 64.827 45.778 65.900 45.301 65.900 45.301 C 65.900 45.301 57.901 46.646 57.189 45.973 C 56.477 45.301 55.880 41.961 55.880 41.961 L 65.246 36.832 L 76.307 36.406 L 76.307 36.406 Z "/>
  </g>
</svg>