<?xml version="1.0" encoding="UTF-8" standalone="no"?>
<svg
   version="1.1"
   id="bat1-a"
   x="0px"
   y="0px"
   width="114.08784"
   height="124.35178"
   viewBox="0 0 114.08784 124.35178"
   enable-background="new 0 0 150 150"
   xml:space="preserve"
   sodipodi:docname="bat1-a_.svg"
   xmlns:inkscape="http://www.inkscape.org/namespaces/inkscape"
   xmlns:sodipodi="http://sodipodi.sourceforge.net/DTD/sodipodi-0.dtd"
   xmlns="http://www.w3.org/2000/svg"
   xmlns:svg="http://www.w3.org/2000/svg"><defs
   id="defs39" /><sodipodi:namedview
   id="namedview37"
   pagecolor="#ffffff"
   bordercolor="#000000"
   borderopacity="0.25"
   inkscape:showpageshadow="2"
   inkscape:pageopacity="0.0"
   inkscape:pagecheckerboard="0"
   inkscape:deskcolor="#d1d1d1" />
  <g
   id="g34"
   transform="translate(-4.0001621)">
    <g
   id="R_Wing">
      <path
   id="Inner_1_"
   fill="#936c54"
   d="m 101.755,57.69 c 1.351,-2.083 2.913,-2.632 4.108,-4.772 0.346,-0.627 -0.441,-1.074 -0.596,-1.778 -0.664,-2.87 0.08,-4.647 0.9,-7.438 0.809,-2.709 2.32,-3.677 3.812,-6.049 1.897,-2.983 3.619,-4.417 6.742,-5.859 -2.873,-3.789 -3.41,-6.583 -4.367,-11.2 -0.854,-4.142 2.459,-7.192 0.263,-10.86 -4.042,4.38 -4.511,8.161 -8.2,12.819 -2.268,2.874 -4.254,3.943 -6.036,7.147 -1.366,2.446 -1.917,4.183 -4.05,5.992 -2.541,2.162 -2.531,5.002 -2.352,8.379 0.146,2.875 -0.197,4.532 -0.164,7.444 0.104,6.239 -0.825,9.606 -1.438,15.821 3.229,0.778 4.517,-2.696 7.11,-4.911 2.14,-1.828 3.434,-1.988 4.268,-4.735 z" />
      <path
   id="Outer_1_"
   fill="#cf9f70"
   d="m 113.113,5.639 c 0.531,4.686 -3.155,9.044 -5.987,14.383 -2.813,5.257 -4.765,8.099 -8.713,12.524 3.869,0.415 6.795,-2.923 10.813,-2.644 -3.127,4.064 -12.609,5.91 -14.164,7.341 -1.028,0.949 5.252,9.436 6.519,13.783 -3.379,-1.502 -4.659,-3.917 -7.64,-6.483 0.007,3.7 -0.723,17.416 -2.627,23.793 -0.474,1.564 -2.961,2.384 -3.881,1.13 -1.328,-1.825 0.64,-3.632 1.146,-5.917 1.103,-4.98 0.974,-7.937 1.723,-13.002 0.751,-5.065 0.784,-7.637 -0.401,-13.084 -1.142,-5.236 5.949,-6.008 8.889,-10.332 5.665,-8.268 8.403,-12.253 14.323,-21.492 z" />
      <path
   id="Outline_3_"
   d="m 118.088,32.495 c -9.191,3.004 -14.531,14.068 -10.965,20.11 C 107.05,52.963 95.5,67.972 92.084,67.447 92.75,66.667 102.917,56 104.963,52.82 c -1.665,-8.701 2.707,-17.665 10.602,-21.117 -3.189,-5.552 -4.424,-11.804 -3.823,-18.228 -3.731,6.585 -7.229,13.465 -12.511,18.884 0,0 12.625,-4.823 14.188,-3.679 -0.592,1.548 -14.071,8.26 -18.258,8.815 2.464,4.502 7.901,14.378 7.901,14.378 -3.875,-0.557 -6.802,-3.699 -8.843,-6.96 0.134,5.512 0.345,17.438 -2.628,22.269 -0.346,0.248 -0.749,0.733 -1.213,0.442 1.766,-6.368 2.936,-16.492 2.336,-23.074 0.151,-0.557 0.081,-1.421 0.766,-1.589 2.721,1.455 4.084,4.708 6.871,6.057 -2.401,-3.773 -4.973,-7.506 -6.418,-11.818 2.062,-1.707 9.178,-3.05 12.935,-5.694 -3.024,0.395 -6.923,2.699 -10.937,2.504 0.998,-1.477 2.069,-2.756 3.092,-3.902 4.43,-4.973 11.86,-15.89 13.882,-23.144 -2.199,3.599 -13.11,23.666 -22.409,28.551 -0.209,1.212 0.529,2.629 0.732,3.846 0.886,5.368 1.066,26.723 -4.027,29.473 l -0.438,-0.412 c 1.946,-7.439 3.785,-16.92 3.502,-24.677 -0.094,-2.593 -0.914,-5.199 -1.008,-7.671 -0.072,-1.949 3.812,-4.494 5.209,-5.78 4.652,-4.287 13.449,-15.496 19.669,-29.759 L 114.959,0 c 2.77,4 -6.855,20.024 3.129,32.495 z" />
    </g>
    <g
   id="Body">
      <g
   id="Body_1_">
        <path
   id="Body_Fill"
   fill="#cf9f70"
   d="m 102.057,79.334 c 0,-2.555 2.45,-4.022 2.937,-6.493 1.604,-8.129 3.534,-15.253 -2.251,-21.287 -2.651,3.729 -8.924,15.084 -8.924,15.084 0,0 -3.295,-0.671 -5.272,-0.851 -1.396,-3.087 -4.168,-6.521 -6.38,-10.211 -2.01,-3.352 -5.626,-7.039 -7.073,-6.872 -1.647,0.191 -2.531,4.317 -2.732,7.375 -0.444,6.161 0.078,10.224 0.963,15.756 -6.028,3.854 -9.806,6.452 -13.342,12.651 -3.417,5.951 -1.447,9.472 -1.447,16.345 0,5.403 -2.09,12.065 -9.806,9.386 -2.8,-0.975 -4.14,-2.934 -7.073,-2.851 -1.407,0.042 -2.652,0.084 -3.375,1.343 -0.804,1.382 1.647,2.514 3.214,2.514 -1.286,1.508 -3.416,3.229 -2.089,4.692 1.206,1.341 2.893,0.671 4.501,0 -0.12,1.718 0.482,4.19 2.089,3.856 3.135,-0.672 3.858,-4.36 7.073,-4.36 4.943,0 8.117,-0.837 11.253,-6.201 2.742,1.883 5.585,2.075 8.785,2.276 l -0.364,1.332 c -1.791,2.977 -4.974,3.636 -8.118,3.274 -0.745,-0.086 -1.964,0.179 -1.657,1.552 0.308,1.371 5.212,-0.688 5.372,-0.121 0.161,0.569 -4.249,1.639 -3.028,3.576 1.22,1.938 5.31,-2.421 6.058,-1.729 0.749,0.692 -2.857,2.239 -1.657,3.458 1.2,1.215 5.34,-3.779 2.857,-6.021 0.177,-0.494 1.766,-3.312 2.865,-5.179 4.076,0.202 7,-0.196 10.586,-2.755 3.537,-2.514 5.666,-4.566 7.557,-8.548 1.889,-3.979 2.169,-8.718 6.431,-9.218 1.89,-0.211 3.493,0 4.66,-1.508 0.966,-1.261 0.201,-3.021 -0.319,-4.526 -0.887,-2.471 -2.294,-3.098 -2.294,-5.739 z" />
        <path
   id="Outline_2_"
   d="m 103.27,78.098 c 0.267,-0.5 0.518,-1.007 0.768,-1.513 0.345,-0.558 1.146,-1.935 1.146,-2.012 2.363,-6.422 3.227,-16.449 -0.121,-22.545 -0.514,-0.936 -1.439,-2.288 -2.627,-1.609 -2.91,5.121 -5.217,10.638 -8.804,15.314 -1.506,-0.673 -3.209,-0.491 -4.801,-0.713 -1.36,-4.036 -9.878,-19.893 -14.916,-17.462 -2.4,4.834 -3.189,18.591 -0.943,23.429 -0.656,0.438 -1.298,0.89 -1.902,1.36 l 0.004,0.002 c -2.938,1.6 -8.387,6.461 -11.896,12.388 -5.358,9.049 1.507,19.183 -4.066,24.495 -3.174,3.025 -7.112,-1.541 -10.002,-2.443 -5.664,-1.77 -11.572,2.798 -4.981,5.312 -3.212,2.334 -1.624,6.845 3.209,5.236 -0.358,0.561 -0.808,1.346 -0.457,1.906 1.95,3.121 6.933,0.688 8.401,-3.338 5.947,1.318 11.199,-3.001 12.725,-5.975 0.007,0.006 0.011,0.01 0.018,0.016 0.936,0.642 3.544,1.499 6.561,2.09 -2.566,3.216 -6.917,-0.328 -9.674,3.638 -0.774,1.113 -0.367,4.097 2.567,3.886 -1.045,1.131 0.12,6.242 4.501,3.771 3.696,3.094 6.791,-1.383 6.309,-6.245 0.312,-1.407 1.898,-2.913 3.306,-4.384 1.052,-0.034 2.039,-0.146 2.894,-0.368 6.23,-1.669 12.574,-6.911 14.518,-13.587 0,0 0.901,-2.485 0.895,-3.854 1.506,-0.711 2.922,-1.636 4.19,-2.819 0.707,-0.168 0.261,-0.606 3.777,-0.933 1.008,-0.26 2.172,-0.683 2.567,-0.975 -0.216,-1.884 -1.824,-4.282 -2.563,-6.571 -0.014,-0.033 -1.316,-4.154 -0.603,-5.497 z m -30.701,38.711 c 2.483,2.241 -1.657,7.235 -2.857,6.021 -1.2,-1.218 2.406,-2.766 1.657,-3.458 -0.748,-0.69 -4.838,3.668 -6.058,1.729 -1.221,-1.938 3.189,-3.007 3.028,-3.576 -0.16,-0.567 -5.064,1.492 -5.372,0.121 -0.307,-1.373 0.912,-1.638 1.657,-1.552 3.144,0.36 6.327,-0.299 8.118,-3.274 l 0.203,-0.392 c 0.628,0.085 1.259,0.158 1.884,0.207 -0.874,1.403 -2.035,3.543 -2.26,4.174 z m 31.232,-28.073 c -3.062,0.242 -6.251,1.543 -9.314,0.596 -5.912,-1.829 -12.723,-2.744 -18.004,1.429 v 1.013 c 1.871,-0.059 3.504,-1.438 5.261,-2.022 1.95,-0.651 4.297,-0.627 6.001,-0.299 2.988,0.062 5.457,2.19 8.4,2.442 -5.336,4.521 -15.064,2.354 -15.375,2.562 -0.084,1.898 2.273,2.046 3.146,2.146 3.636,0.404 7.435,0.107 10.847,-1.221 -0.596,1.2 -1.228,2.901 -1.357,3.241 -3.543,7.929 -9.963,11.7 -18.231,12.008 -3.202,0.12 -7.901,-1.056 -11.146,-2.11 -0.29,-0.097 -0.514,0.009 -0.613,0.209 -0.004,0.004 -0.009,0.006 -0.013,0.011 -1.849,2.056 -4.625,7.55 -13.489,5.321 -0.218,3.483 -4.437,5.791 -4.973,4.17 -0.535,-1.617 2.505,-3.113 1.944,-3.991 -0.561,-0.878 -4.342,1.298 -5.372,1.431 -1.031,0.132 -1.14,-0.594 -0.4,-1.431 0.739,-0.835 4.043,-2.851 3.828,-3.576 -0.213,-0.724 -5.508,0.914 -4.8,-1.31 0.433,-1.36 2.632,-1.199 3.786,-0.883 3.565,0.985 6.478,6.344 12.275,2.428 6.792,-4.588 -0.307,-16.532 4.515,-25.267 4.009,-7.268 11.363,-12.237 11.847,-12.548 1.762,-1.369 10.19,-4.391 11.071,-6.043 1.462,-2.745 -7.66,-15.492 -7.66,-15.492 2.324,4.491 4.523,9.073 6.176,13.883 -1.383,1.163 -4.81,2.8 -8.081,4.845 0.14,-1.519 -0.804,-4.302 -0.838,-4.845 -0.303,-4.84 0.435,-11.114 2.344,-15.552 7.82,4.674 11.128,16.001 13.146,17.281 1.927,-0.191 3.77,0.029 5.601,0.417 0.387,-0.258 6.38,-10.498 8.688,-15.435 3.056,5.968 2.675,11.581 1.886,17.998 -0.156,1.279 -0.354,2.612 -0.836,3.794 -0.348,0.851 -0.778,1.685 -1.168,2.519 -0.168,-0.795 -0.639,-2.209 -0.664,-2.498 -0.195,-2.208 -2.168,-4.293 -3.653,-5.067 2.172,-3.159 3.93,-9.377 3.827,-14.004 -1.541,4.528 -2.854,9.176 -5.2,13.407 0,0 1.573,1.355 2.854,3.456 1.096,1.793 1.896,4.217 2.666,5.085 -0.759,1.701 -1.256,3.414 -0.399,5.291 0.01,0.021 0.636,1.765 0.68,1.813 0.684,1.63 1.501,3.412 0.797,4.798 z" />
      </g>
      <g
   id="L_Eye">
        <path
   id="Outline_1_"
   d="m 88.145,75.865 c 1.465,1.93 1.643,5.785 -1.084,6.732 -2.557,0.891 -7.377,-0.246 -9.029,-2.562 -2.644,-3.702 3.222,-13.254 10.113,-4.17 z" />
        <path
   id="White"
   fill="#ffffff"
   d="m 87.459,78.009 c 0.95,4.197 -9.715,4.058 -7.943,-1.548 1.125,-3.558 7.392,-0.893 7.943,1.548 z" />
        <ellipse
   id="Pupil"
   cx="85.377998"
   cy="79.544998"
   rx="1.6059999"
   ry="1.676" />
        <path
   id="Eyebrow"
   d="m 90.773,76.163 c -0.455,0.356 -1.258,0 -1.771,-0.298 -0.629,-1.729 -4.87,-6.545 -4.87,-6.545 2.46,0.716 6.186,4.22 6.641,6.843 z" />
      </g>
      <g
   id="R_Eye">
        <path
   id="Eyebrow_1_"
   d="m 99.404,73.004 c -1.543,1.072 -2.057,3.219 -3.543,4.053 -0.285,0 -0.514,-0.061 -0.688,-0.3 0.231,-1.845 1.86,-3.455 4.231,-3.753 z" />
        <path
   id="Dark"
   d="m 96.713,81.053 c -0.128,-0.635 0.035,-1.93 0.916,-3.271 1.484,-2.264 4.255,-4.296 6.577,-1.317 2.106,2.703 -1.134,7.228 -4.614,6.554 -0.979,-0.199 -2.559,-0.373 -2.879,-1.966 z" />
        <path
   id="White_1_"
   fill="#ffffff"
   d="m 103.861,78.604 c 0.172,2.523 -4.479,3.998 -5.279,2.434 -1.451,-2.843 5.035,-6.067 5.279,-2.434 z" />
        <ellipse
   id="Pupil_1_"
   cx="102.154"
   cy="80.357002"
   rx="1.229"
   ry="1.28" />
      </g>
      <g
   id="L_Tooth">
        <path
   fill="#ffffff"
   d="m 85.473,92.416 c -0.933,0 -1.377,-1.186 -1.732,-2.139 -0.094,-0.246 -0.174,-0.467 -0.249,-0.612 l -0.246,-0.474 0.487,-0.215 c 0.281,-0.125 0.633,-0.188 1.041,-0.188 0.675,0 1.309,0.173 1.334,0.18 l 0.466,0.13 -0.111,0.469 c -0.015,0.078 0.011,0.357 0.029,0.562 0.075,0.821 0.188,2.062 -0.81,2.267 -0.069,0.012 -0.14,0.02 -0.209,0.02 z"
   id="path19" />
        <path
   d="m 84.771,89.288 c 0.615,0 1.203,0.162 1.203,0.162 -0.113,0.478 0.409,2.288 -0.396,2.454 -0.037,0.008 -0.073,0.012 -0.108,0.012 -0.785,0 -1.211,-1.854 -1.537,-2.482 0.247,-0.109 0.546,-0.146 0.838,-0.146 m 0,-1 c -0.479,0 -0.896,0.078 -1.241,0.229 l -0.978,0.432 0.493,0.945 c 0.056,0.106 0.142,0.336 0.224,0.558 0.391,1.04 0.924,2.464 2.201,2.464 0.105,0 0.211,-0.012 0.315,-0.033 1.43,-0.295 1.274,-1.986 1.2,-2.801 -0.014,-0.15 -0.031,-0.354 -0.03,-0.441 l 0.213,-0.897 -0.93,-0.256 c -0.071,-0.022 -0.736,-0.2 -1.467,-0.2 z"
   id="path21" />
      </g>
      <g
   id="R_Tooth">
        <path
   fill="#ffffff"
   d="m 103.538,93.789 c -1.213,0 -1.741,-1.479 -1.968,-2.107 l -0.063,-0.177 -0.233,-0.58 0.617,-0.1 c 0.146,-0.024 0.349,-0.042 0.574,-0.062 0.434,-0.037 1.239,-0.104 1.459,-0.276 l 1.283,-1.009 -0.498,1.555 c -0.037,0.115 -0.061,0.372 -0.08,0.619 -0.064,0.755 -0.146,1.693 -0.805,2.07 l -0.106,0.061 z"
   id="path24" />
        <path
   d="m 104.232,90.881 c -0.172,0.536 -0.027,2.049 -0.656,2.407 -0.014,0.001 -0.025,0.001 -0.038,0.001 -0.978,0 -1.401,-1.559 -1.567,-1.971 0.519,-0.084 1.804,-0.079 2.261,-0.437 m 1.77,-2.637 -2.367,1.835 c -0.208,0.103 -0.908,0.161 -1.212,0.187 -0.241,0.021 -0.457,0.041 -0.61,0.065 l -1.235,0.2 0.467,1.16 c 0.017,0.039 0.035,0.094 0.058,0.156 0.238,0.668 0.873,2.44 2.438,2.44 h 0.021 l 0.06,-0.002 0.243,-0.011 0.211,-0.119 c 0.888,-0.506 0.984,-1.637 1.056,-2.463 0.015,-0.172 0.037,-0.434 0.06,-0.514 z"
   id="path26" />
      </g>
    </g>
    <g
   id="L_Wing">
      <path
   id="Inner"
   fill="#936c54"
   d="m 4.683,7.474 c 3.495,7.333 5.48,11.605 7.555,19.442 2.973,11.229 3.013,18.73 -1.125,29.164 8.48,0 15.15,6.285 18.969,14.247 1.688,3.519 1.848,3.687 2.732,7.543 0.643,2.849 0,5.321 2.09,7.206 1.205,1.09 2.531,-0.756 4.018,-1.51 7.234,-3.771 12.619,-4.188 20.415,-2.18 3.536,0.924 7.234,5.069 9.164,1.846 1.124,-1.885 3.375,-2.308 3.375,-4.524 0,-2.599 -2.53,-3.269 -3.697,-5.533 C 65.205,67.477 62.713,64.083 62.391,57.588 61.789,45.312 59.739,33.034 48.246,29.766 42.619,28.174 39.324,28.299 33.618,27.084 26.665,25.576 23.652,21.763 18.025,17.363 15.533,15.435 13.323,15.687 10.63,14.009 8.138,12.46 6.772,9.652 4.683,7.474 Z" />
      <path
   id="Outer"
   fill="#cf9f70"
   d="M 74.528,75.688 C 71.797,72.756 69.947,70.035 68.178,65.8 64.361,56.833 60.543,34.164 61.106,29.345 50.094,29.345 43.584,28.465 32.894,25.407 26.585,23.606 7.657,10.574 4.683,7.474 c 2.661,5.688 18.033,18.521 22.344,20.364 8.038,3.436 16.035,6.37 25.479,6.37 -6.551,0.586 -11.293,3.812 -17.041,7.123 -7.555,4.358 -13.261,8.045 -18.083,13.241 2.169,0.922 3.777,-0.502 5.948,-1.509 C 28.273,50.8 47.121,39.57 54.435,37.057 54.033,39.319 40.771,59.682 38.119,73.679 40.45,72.253 52.064,51.011 57.168,40.325 c 0.321,8.632 4.742,20.784 6.029,25.141 1.406,4.778 3.576,9.554 7.312,12.654 2.252,1.843 3.134,0.419 4.019,-2.432 z" />
      <path
   id="Outline"
   d="M 74.601,75.031 C 66.319,62.573 62.511,43.922 62.369,28.966 62.142,28.67 61.769,28.219 61.399,28.131 57.736,27.271 51.729,28.7 46.768,27.834 40.101,26.67 34.453,25.149 28.249,22.232 22.439,19.499 15.681,15.825 10.817,11.506 9.877,10.669 5.705,5.479 4.269,5.622 3.977,5.652 3.963,6.445 4.04,6.635 c 0.455,1.131 1.188,2.379 2.091,3.68 8.861,18.023 9.833,37.474 3.829,47.136 10.251,-0.542 19.419,10.853 22.232,20.141 0.176,0.576 1.433,9.784 3.308,8.784 1.951,-0.435 3.182,-0.93 3.952,-1.455 5.602,-3.812 12.858,-4.169 19.488,-3.036 3.086,0.416 5.716,1.967 8.516,3.037 -0.058,-0.713 -0.57,-1.249 -1.087,-1.729 C 58.615,77.474 43.429,77.679 35.643,84.435 34.324,72.919 24.755,56.882 12.703,55.723 14.101,53.888 15.351,51.315 15.732,48.988 17.069,40.824 14.15,25.107 10.131,17.941 9.833,17.409 8.77,14.887 7.665,12.374 c 4.841,6.031 12.742,12.663 17.383,15.044 6.986,3.584 15.065,6.991 22.918,7.27 -10.63,4.063 -20.087,9.497 -28.805,17.043 -0.786,0.68 -1.897,1.968 -1.911,3.187 l 0.987,0.136 c 0.149,0.031 2.432,-0.319 2.581,-0.343 6.902,-1.124 22.565,-12.548 31.768,-15.894 0,0 -14.519,24.062 -15.193,36.631 4.336,-1.496 16.122,-27.542 19.489,-33.013 1.405,11.679 4.777,31.09 15.259,37.9 l 0.115,-1.312 C 65.718,69.703 58.051,54.234 57.968,38.561 c -0.514,-0.37 -1.096,0.087 -1.486,0.417 -5.547,11.037 -10.387,22.525 -17.26,32.775 0.665,-9.135 16.904,-35.448 16.739,-36.205 -0.095,-0.44 -17.442,7.711 -32.971,17.315 -1.538,0.572 -3.321,0.995 -4.284,1.729 1.9,-1.896 3.825,-4.548 5.827,-6.139 5.842,-4.641 20.269,-11.196 27.434,-13.468 1.014,-0.321 2.144,-0.374 2.857,-1.311 -0.109,-0.249 -0.399,-0.679 -0.686,-0.715 -1.311,-0.164 -2.945,0.107 -4.312,0.047 C 46.297,32.849 42.65,32.31 39.222,31.409 29.877,28.955 20.772,24.49 13.847,17.406 c -1.216,-1.244 -2.606,-2.521 -3.315,-4.171 12.224,9.84 30.561,18.962 49.781,16.864 -0.612,12.601 4.281,37.703 13.888,46.243 0.451,-0.28 0.455,-0.838 0.4,-1.311 z" />
    </g>
  </g>
</svg>
