<?xml version="1.0" encoding="UTF-8" standalone="no"?>
<svg
   version="1.1"
   id="bat2-b"
   x="0px"
   y="0px"
   width="150.071"
   height="77.199142"
   viewBox="0 0 150.071 77.199142"
   enable-background="new 0 0 150 150"
   xml:space="preserve"
   sodipodi:docname="bat2-b_.svg"
   xmlns:inkscape="http://www.inkscape.org/namespaces/inkscape"
   xmlns:sodipodi="http://sodipodi.sourceforge.net/DTD/sodipodi-0.dtd"
   xmlns="http://www.w3.org/2000/svg"
   xmlns:svg="http://www.w3.org/2000/svg"><defs
   id="defs12" /><sodipodi:namedview
   id="namedview10"
   pagecolor="#ffffff"
   bordercolor="#000000"
   borderopacity="0.25"
   inkscape:showpageshadow="2"
   inkscape:pageopacity="0.0"
   inkscape:pagecheckerboard="0"
   inkscape:deskcolor="#d1d1d1" />
  <g
   id="g7"
   transform="translate(-4.073,-33.000788)">
    <path
   id="R_Wing"
   d="m 79.527,44.27 c 4.473,3.35 11.746,4.972 17.344,-2.894 3.434,7.352 11.429,22.3 25.954,18.37 -4.191,10.994 13.955,28.13 31.319,24.312 C 142.247,107.064 99.377,114.14 85.966,68.825 86.695,56.626 78.923,57.18 79.527,44.27 Z" />
    <path
   id="L_Wing"
   d="M 42.874,46.197 C 42.789,62.35 27.707,69.023 22.094,69.885 28.523,83.372 11.186,104.759 4.073,106.191 34.402,118.79 57.567,100.416 64.649,68.924 65.384,66.969 62.459,63.2 63.136,57.96 63.824,52.632 61.807,47.356 60.423,46.001 55.409,51.477 46.719,50.382 42.874,46.197 Z" />
    <path
   id="Body"
   d="m 90.625,56.066 c 4.889,9.377 8.314,19.369 8.314,19.369 0,0 -6.596,-2.419 -11.914,1.208 -4.852,3.309 -9.895,10.641 -9.895,10.641 0,0 -2.021,-8.465 -11.595,-10.277 -4.365,-0.824 -11.063,4.23 -11.063,4.23 0,0 -2.877,-10.986 -1.724,-22.17 0.625,-6.06 5.661,-11.68 5.661,-11.68 0,0 -2.979,-11.001 -2.234,-11.848 0.745,-0.846 9.148,7.737 9.574,8.705 1.915,-0.968 4.467,-1.087 5.744,-0.362 0.64,-0.725 5.745,-10.76 6.811,-10.88 1.062,-0.12 3.188,8.704 2.127,12.573 0.001,-0.001 6.944,4.258 10.194,10.491 z" />
    <path
   id="R_Eye"
   fill="#ffffff"
   d="m 72.294,52.584 c 0,0 2.606,-7.314 4.201,-5.078 1.596,2.237 -4.201,5.078 -4.201,5.078 z" />
    <path
   id="L_Eye"
   fill="#ffffff"
   d="m 66.018,53.006 c 0,0 -3.989,-6.527 -5.319,-3.929 -1.329,2.6 5.319,3.929 5.319,3.929 z" />
  </g>
</svg>
