<svg version="1.1" id="bat2-b" x="0px" y="0px" width="150px" height="150px" viewBox="0 0 150 150" enable-background="new 0 0 150 150" xml:space="preserve" xmlns="http://www.w3.org/2000/svg" xmlns:xlink="http://www.w3.org/1999/xlink">
  <g>
    <path id="R_Wing" d="M79.527,44.27c4.473,3.35,11.746,4.972,17.344-2.894c3.434,7.352,11.429,22.3,25.954,18.37&#xD;&#xA;&#x9;c-4.191,10.994,13.955,28.13,31.319,24.312c-11.897,23.006-54.767,30.082-68.178-15.233C86.695,56.626,78.923,57.18,79.527,44.27z"/>
    <path id="L_Wing" d="M42.874,46.197c-0.085,16.153-15.167,22.826-20.78,23.688c6.429,13.487-10.908,34.874-18.021,36.306&#xD;&#xA;&#x9;c30.329,12.599,53.494-5.775,60.576-37.267c0.735-1.955-2.19-5.724-1.513-10.964c0.688-5.328-1.329-10.604-2.713-11.959&#xD;&#xA;&#x9;C55.409,51.477,46.719,50.382,42.874,46.197z"/>
    <path id="Body" d="M90.625,56.066c4.889,9.377,8.314,19.369,8.314,19.369s-6.596-2.419-11.914,1.208&#xD;&#xA;&#x9;c-4.852,3.309-9.895,10.641-9.895,10.641s-2.021-8.465-11.595-10.277c-4.365-0.824-11.063,4.23-11.063,4.23&#xD;&#xA;&#x9;s-2.877-10.986-1.724-22.17c0.625-6.06,5.661-11.68,5.661-11.68s-2.979-11.001-2.234-11.848c0.745-0.846,9.148,7.737,9.574,8.705&#xD;&#xA;&#x9;c1.915-0.968,4.467-1.087,5.744-0.362c0.64-0.725,5.745-10.76,6.811-10.88c1.062-0.12,3.188,8.704,2.127,12.573&#xD;&#xA;&#x9;C80.432,45.574,87.375,49.833,90.625,56.066z"/>
    <path id="R_Eye" fill="#FFFFFF" d="M72.294,52.584c0,0,2.606-7.314,4.201-5.078C78.091,49.743,72.294,52.584,72.294,52.584z"/>
    <path id="L_Eye" fill="#FFFFFF" d="M66.018,53.006c0,0-3.989-6.527-5.319-3.929C59.37,51.677,66.018,53.006,66.018,53.006z"/>
  </g>
</svg>