<?xml version="1.0" encoding="UTF-8"?>
<svg id="Layer_1" xmlns="http://www.w3.org/2000/svg" version="1.1" viewBox="0 0 360 360">
  <!-- Generator: Adobe Illustrator 29.8.3, SVG Export Plug-In . SVG Version: 2.1.1 Build 3)  -->
  <defs>
    <style>
      .st0 {
        fill: #623118;
      }

      .st1 {
        fill: #89532c;
      }

      .st2 {
        fill: #6c3921;
      }

      .st3 {
        fill: #976c45;
      }

      .st4 {
        fill: #010101;
      }

      .st5 {
        fill: #8f582b;
      }

      .st6 {
        fill: #86583e;
      }

      .st7 {
        fill: #714025;
      }

      .st8 {
        fill: #67341b;
      }

      .st9 {
        fill: #65341b;
      }

      .st10 {
        fill: #7a4a30;
      }

      .st11 {
        fill: #502109;
      }

      .st12 {
        fill: #834f2f;
      }

      .st13 {
        fill: #66341b;
      }

      .st14 {
        fill: #875838;
      }

      .st15 {
        fill: #8f5c33;
      }

      .st16 {
        fill: #281810;
      }

      .st17 {
        fill: #7e4b32;
      }

      .st18 {
        fill: #78462c;
      }

      .st19 {
        fill: #130b08;
      }

      .st20 {
        fill: #7d4b32;
      }

      .st21 {
        fill: #77452c;
      }

      .st22 {
        fill: #8b5935;
      }

      .st23 {
        fill: #65331b;
      }

      .st24 {
        fill: #754329;
      }

      .st25 {
        fill: #824f2e;
      }

      .st26 {
        fill: #5f2d15;
      }

      .st27 {
        fill: #7b4a29;
      }

      .st28 {
        fill: #643117;
      }

      .st29 {
        fill: #69371f;
      }

      .st30 {
        fill: #67361d;
      }

      .st31 {
        fill: #623119;
      }

      .st32 {
        fill: #77452b;
      }

      .st33 {
        fill: #713f25;
      }

      .st34 {
        fill: #714229;
      }

      .st35 {
        fill: #8c5d38;
      }

      .st36 {
        fill: #6e3c24;
      }

      .st37 {
        fill: #78462d;
      }

      .st38 {
        fill: #75432a;
      }

      .st39 {
        fill: #6e3d22;
      }

      .st40 {
        fill: #dbdbdb;
      }

      .st41 {
        fill: #805036;
      }

      .st42 {
        fill: #5d311b;
      }

      .st43 {
        fill: #946841;
      }

      .st44 {
        fill: #875432;
      }

      .st45 {
        fill: #6d391f;
      }

      .st46 {
        fill: #713f26;
      }

      .st47 {
        fill: #815137;
      }

      .st48 {
        fill: #7b4a31;
      }

      .st49 {
        fill: #875735;
      }

      .st50 {
        fill: #6d3920;
      }

      .st51 {
        fill: #976c47;
      }

      .st52 {
        fill: #805037;
      }

      .st53 {
        fill: #5e2e16;
      }

      .st54 {
        fill: #030201;
      }

      .st55 {
        fill: #7b482b;
      }

      .st56 {
        fill: #946741;
      }

      .st57 {
        fill: #eee;
      }

      .st58 {
        fill: #93623a;
      }

      .st59 {
        fill: #010100;
      }

      .st60 {
        fill: #713e25;
      }

      .st61 {
        fill: #75432b;
      }

      .st62 {
        fill: #78472f;
      }

      .st63 {
        fill: #6a3920;
      }

      .st64 {
        fill: #7c4c31;
      }

      .st65 {
        fill: #78452c;
      }

      .st66 {
        fill: #67351c;
      }

      .st67 {
        fill: #663319;
      }

      .st68 {
        fill: #77472e;
      }

      .st69 {
        fill: #844f2e;
      }

      .st70 {
        fill: #85573d;
      }

      .st71 {
        fill: #8d5d38;
      }

      .st72 {
        fill: #76432a;
      }

      .st73 {
        fill: #794a31;
      }

      .st74 {
        fill: #7c4b2b;
      }

      .st75 {
        fill: #7e5036;
      }

      .st76 {
        fill: #895734;
      }

      .st77 {
        fill: #5b2a12;
      }

      .st78 {
        fill: #8d5c38;
      }

      .st79 {
        fill: #5d2c14;
      }

      .st80 {
        fill: #7a482e;
      }

      .st81 {
        fill: #140c08;
      }

      .st82 {
        fill: #602f16;
      }

      .st83 {
        fill: #85502f;
      }

      .st84 {
        fill: #582d17;
      }

      .st85 {
        fill: #835539;
      }

      .st86 {
        fill: #69361c;
      }

      .st87 {
        fill: #723f25;
      }

      .st88 {
        fill: #8a5c3d;
      }

      .st89 {
        fill: #703d24;
      }

      .st90 {
        fill: #85583e;
      }

      .st91 {
        fill: #68361c;
      }

      .st92 {
        fill: #92643f;
      }

      .st93 {
        fill: #633118;
      }

      .st94 {
        fill: #75442a;
      }

      .st95 {
        fill: #754229;
      }

      .st96 {
        fill: #6d3a21;
      }

      .st97 {
        fill: #84502e;
      }

      .st98 {
        fill: #522c19;
      }

      .st99 {
        fill: #582710;
      }

      .st100 {
        fill: #90613c;
      }

      .st101 {
        fill: #030202;
      }
    </style>
  </defs>
  <path d="M78.01,58.89c15.97-3.36,31.37-2.2,47.19,1.26,1.26-.23,1.16-4.33,1.73-5.98,2.19-6.35,7.97-13.38,14.97-14.55,24.18-4.05,34.24,20.98,21.84,38.97,2.62,3.13,5.43,6.22,7.74,9.59,1.52,2.22,5.95,10.91,7.11,11.61,1.57.95,12.32,3.71,14.27,3.73,2.31.02,8.84-1.07,11.15-1.8,3.9-1.23,9.08-6.46,12.81-4.91,1.01.42.56,1.85,1.89,1.7,4.76-.54,12.58-6.77,17.54-4.59,1.13.5,1.25,2.18,2.01,2.36,1.75.43,18.38-10.52,20.96-2.07,3.99-.42,8.92-1.36,12.84-1.49,9.89-.31,27.46,4.18,36.35,9,2.28,1.23-1.52.76-.36,1.8,4.67,4.17,9.74,6.14,14.42,11.51,18.81,21.6,20.49,49.43,17.62,76.68-2.19,20.8-10.26,38.73-9.33,59.75.98,22.17,1.31,38.35-5.42,60.14-2.55,8.27-5.09,15.27-14.04,17.64-3.6.95-12.25.97-14.39,2.17-.93.52-7.3,13.73-6.52,3.59.12-1.56,1.6-3.79,1.47-3.95-.09-.11-2.58-.82-2.79-.68-.42.29-4.81,8.86-5.49,8.59-2.56-2.85-.52-6.44.35-9.35-5.04-.23-8.86,4.08-10.09,8.63-4.06-3.68-1.98-8.29,1.45-11.51-4.01-3.01-6.57,1.56-10.07,3.59-2.03-5.91,3.4-7.19,4.67-9.36.62-1.07.33-3.2.91-4.85,1.28-3.62,5.19-4.06,3.04-8.83-4.82,6.46-9.29,8.41-17.1,9.9-2.18.41-4.75-.28-6.64.56-2.01.9-4.12,5.98-6.14,6.82-1.47.61-1.02-1-1.07-1.79-.14-1.86-.15-3.69.72-5.4-1.79-1.3-7.2,6.26-9.73,6.47-2.04-2.69-.75-3.85.39-6.11,1.33-2.65-1.65-1.65-2.94-.76-4.27,2.95-7.37,6.36-4.29-2.48-3.3-.21-5.2,3.03-7.91,4.31-4.09-8.21,5.3-8.18,7.03-10.25.26-.31,3.02-7.03,3.06-7.43.08-.81-2.97-9.95-3.41-12.4-.94-5.19-1.31-10.82-1.29-16.01l-14.83,1.87c-2.53,14.51-4.18,30.59-9.46,44.4-3.97,10.39-7.21,10.65-18.17,11.4-1.55.11-4.77-.87-5.41-.47-.95.59-4.09,8.16-4.68,8.35-3.52,1.13-2.6-6.73-1.8-8.65-3.32-.92-8.2,9.23-10.07,7.91-1.58-3.98-.61-6.42,2.15-9.35-2.73-2-9.28,7.87-10.44,7.9-2.8.06-.16-9.78,2.52-10.78-3.7-1.16-6.78,2.69-9.33,3.28-2.37.55-1.56-4.5-.37-6.16,1.58-2.2,4.41-1.94,4.67-2.19.28-.26-1.1-4.92-.68-7.51.34-2.09,1.89-3.38,2.14-5.79.26-2.58-.52-10.63-.84-13.6-.29-2.67-2.15-15.47-3.87-16.29-2.11,7.56-10.62,1.17-15.31-.53l-5.59-.94c-1.61,7.54-2.46,34.2-7.35,38.93-1.98,1.92-8.15,4.11-10.95,4.69-3.35.7-8.12.36-11.05,1.03-.85.19-4.13,7.21-6.63,7.24-3.11.05-1.78-6.44-.36-7.94l-9.36,5.75.71-7.19c-5.31-.58-6.67,4.15-10.08,6.84-.88.7-.75,1.56-1.79.35-4.26-4.9,2.71-10.18,2.51-11.14-.61-2.93-8.01,1.95-7.2,4.67-2.62-1.29-2.81-5.94-1.36-8.21,1.61-2.52,8.08-2.62,7.83-9.36-.13-3.61-3.73-13.17-4.67-17.7-3.56-17.18-5.51-31.71-5.42-49.36.06-11.78-4.54-20.92-7.08-32.46-2.21-10.04-3.42-19.73-3.66-30.03-19.73-8.52-31.13-31.69-29.58-52.71,1.18-16.01,11.68-29.92,21.6-41.73-9.29-7.25-9.11-22.03-3.44-31.55,12.18-20.44,45.88-12.17,40.19,13.19Z"/>
  <path class="st17" d="M327.12,170.49c3.12-.64.7,7.92.05,9.23-3.75,3.78-5.98,9.08-6.39,14.29l-1.3,1.03c.19,3.54-2.09,5.7-5.32,6.41-1.75,1.43-2.7,1.23-2.51-1.05-.18,1.54-.6,3.04-1.27,4.52,1.27,2.7.59,4.21-2,5.4.59,3.07.6,5.34-2.45,7.08.61,1.94.5,5.29-.4,7.09-1.83,1.99-3.03.79-3.6-3.6-.21.62-.45.61-.72,0-.84.74-1.78.17-2.83-1.71-2.09.08-3.8-1.18-5.15-3.79-5.81.03-7.08,1.88-3.78,5.54,2.45-.23,3.35,2.22.96,2.84-.42,4.07-1.62,6.23-3.6,6.48-1.34,2.48-4.53-1.4-3.39-3-.84-1.44-.72-3.2.35-5.29-3.8-3.11-3.94-5.92-.4-8.42-1.17-2.12-2.71-3.5-4.82-4.64-3.05,4.47-6.74,6.71-11.07,6.71-.32,2.83-1.95,4.85-4.3,2.86-2.46,1.09-4.45.92-5.96-.52-1.65.5-3.37.07-5.14-1.27-.05,2.02-1.57,3.25-4.55,3.67,1.3,5.57-4.4,6.34-8.54,4.88l-5.19.99c-2.72,2.6-5.93,1.79-6.73-1.93-2.15.49-4.14,1.25-5.96,2.28-1.15-1.24-2.53-1.7-4.14-1.37-.39,2.06-1.9,2.76-4.54,2.11-.82.22-1.3,4.14-1.4,5.01-.06.52-.64.75-1.27.8.78,2.14-.85,2.44-1.44,0-1.05-4.86.36-5.8-4.32-8.64-1.22-.64-2.01-.99-3.21.13.07-3.96-1.82-5.01-5.88-6.17-2-2.66-4.32-2.94-6.96-.85.17,3.89-1.2,5.05-5.02,4.35.41,3.92-.49,6.21-2.69,6.86-1.15.87-1.29,1.03-1.78,2.31s-.99,2.65-.52,4.26c-1.06,2.34-5.16.83-7.05-.09-4.12.23-9-6.36-2.01-6.87-3.64.76-6.42.35-8.34-1.24l-1.06,1c-6.32-1.16-3.03,2.88-.45,5.96,2.31-2.11,3.82,1.31,2.79,3.15,1.17.61,2.24,1.22,3.21,1.83l-.63,6.26c.64.19.63.43,0,.72.61,1.25.61,2.21,0,2.88-2.6,4.53-9.61-1.74-3.14-1.86.12,0-1.66,1.1-1.77,1.14-2.43.73-8.2.81-7.96-3.07,2.4-3.64,3.35-5.52-1.5-6.86-.38-3.49-1.94-5.98-4.67-7.48-.12-3.37-.9-4.28-2.34-2.72-.67,1.93-6.71,5.56-7.9,5.49-1.62-.1-2.64-2.28-3.08-3.69-5.03,1.87-5.26-2.17-2.15-5.02-5.35-.63-9.25-2.76-11.7-6.38.22-1.55.02-2.92-.59-4.1-.19.62-.44.61-.72,0-2.58-.63-2.96-3.76-1.78-5.79-1.16-1.23-.46-2.65,2.1-4.26-.32-4.19,3.12-2.82,5.7-1.45.17-2.97.92-5.83,1.84-8.62.76.35,1.57-.1,1.5-.72-.46-3.9.29-4.65,4.32-3.64.81-2.82,7.07-4.62,9.36-2.88,3.49-1.33,6.85-2.86,10.07-4.58.77-2.78,1.47-4.63,4.67-4.94.18-2.13,1.26-4.7,3.26-2.72,2.63-.98,4.11,2.52,3.38,4.79,3.02-1.24,4.38.1,5.17,2.97,2.12.73,3.64,1.99,4.54,3.79,3.33-1.78,7.22-2.12,11.66-1.01l.91-.68c1.14.8,1.95.63,2.42-.5.2-.63.44-.62.72,0,1.05-.71,1.93-.17,2.65,1.62,1.24-1.11,2.28-1.17,3.11-.18,1.34-.32,2.71-1.27,4.12-2.86,2.74,1.05,4.73.76,5.98-.87,4.72.45,6.8-.36,11.12-2.54,2.54-1.28,5.28-3.03,7.38-4.92,1.31-.51,2.32.15,3.31.97,2.7-2.35,8.68-1.65,9.96,2.2l4.12,1.4c3.41-2.32,8.05-2.15,11.67-.53-1.7-10.86,8.41-11.31,12.88-2.28,3.48-2.94,4.07-.33,4.6,3.04,4.68-2.17,8.03-1.57,10.05,1.8.39-5.5,1.81-9.47,6.48-3.43,4.73-4.73,8.6-.22,11.25,4.17,4.79,3.14,7.13,7.98,7.03,14.54,1.69-.01,3.2.74,4.53,2.28,1.58-2.64,2.84-6.69,2.23-9.91,1.83-.75,3.05-1.88,3.66-3.38l2.04-.17c.2.26,4.8-2.71,4.88-3.04-1.86-2.63,3.47-9.52,5.63-11.42l1.71-.16Z"/>
  <path class="st20" d="M54.24,74.73c4.56-4.56,5.8-4.47,7.9,2.06,1.98-1.48,4.14-1.19,6.47.86.39-3.68,3.46-3.91,4.53-.34,1.74-.58,2.88-.24,3.43,1.03,1.79,1.86-.21,2.73-2.32,2.81-3.38,2.24-2.35,5.38-1.08,8.53.18,2.12.28,4.05-2.36,3.79l-1.41.68c-15.6-4.89-6.32,17.33,1.43,3.43l1.42-1.23c.25-1.9,1.97-2.38,5.16-1.45,3.2-1.92,6.04-1.2,8.52,2.17l-.38,1.6c-18.88,3.36-22.76,17.07-12.89,32.93,12.82,20.6,44.16,8.33,42.97-14.35l1.26-1.47c2.78-1.78,5.04,1.6,4.91,4.49l2.52.89c1.8,2.75,4.75-.04,6.21-2.31,3.95-1.15,9.05-.66,10.15,3.96l3.09,1.21c-1.66-5.68,4.54-7.98,7.68-4.64l.68,1.62-5.72,9.9c1.42,1.37,1.23,1.76-.72,1.44.33,2.73-2.04,4.96-7.12,6.7l-2.97,3.5c-3.89,1.47-5.18,3.27-3.85,5.41,2.67-.06,2.87,1.59.62,4.95,5.55-6.57,8.7,2.79,1.06,4.13,2.66-.29,4.83.96,3.08,3.65-.27.42-7.96,3.25-7.66.96l-13.61,5.18-2.66-.65c-3.32,2.03-8.4,3.95-12.33,2.85-2.17,1.24-4.89.71-6.5-1.26-9.03-1.49-17.94-3.44-26.74-5.84-4.51-3.24-4.95-8.38-4.74-13.59-1.14-2.6-1.88-5.16-2.21-7.7-2-.5-3.45-1.95-4.35-4.34-1.65,1.03-3.32.81-3.67-1.25-2.08.91-4.91.31-3.56-2,1.17-2.7,1.32-5.4.45-8.09,1.65-1.82,1.96-3.48.93-4.98.79-1.15.86-2.52.22-4.13,1.91-3.57,3.26-7.11.14-9.85-1.59-1.41-1.41-1.57.23-2.72-1.1-.87-.74-1.53,1.07-1.99,1.11.34,3.35-7.85,2.94-7.65-2.48,1.22-3.11-2.45-2.49-4.48-3.18-.86-2.02-4.29-.89-6.45,1.99-.77,2.21-1.98-.07-1.49l-1.1-1.43c1.53-1.57,2.55-3.64,4.32-5.04Z"/>
  <path class="st11" d="M231.37,271.3l30.28-6.9,7.88,30.31c-1.85,7.67-2.72,12.01-10.96,14.24-4.22,1.14-21.52,2.66-23.99-.93-.03-1.52,1.99-2.7,2.37-4.15.74-2.82-3.15-11.22-3.96-15.13-.46-2.25-2.35-16.74-1.63-17.44Z"/>
  <path class="st95" d="M170.88,127.29c-2.58,10.46-9.68,25.7-18.38,32.38-2.64,2.03-8.94,3.96-9.89,5.95-2.16,4.52,2.26,5.41,5.95,4.87,3.39.84.18,3.86-2.62,2.42.49,2.04.06,3.34-1.29,3.91.46,1.31-.54,2.75-3,4.29,5.42,2.28,4.85,4.26-1.73,5.94-3.35.92-6.07,1.56-9.36,2.88-2.94.57-4.62.09-5.04-1.44-.87-1.2,2.31-.95,2.16-.95-4.84.15-4.5-2.5,1.02-7.93-.9-3.47-1.54-7.85,2.87-8.74-3.58-3.52-5.28-2.63-8.49.09-1.86-1.61-2.73-1.76-2.6-.47-.93,2.09-3.25,1.88-4.32,0-1.6-.12-3.04-1.08-4.32-2.88-1-.16-.76-.64.72-1.44,4.38-1.42,9.1-2.96,13.54-4.96,5.74-2.6,2.88-.25,4.82.64.59.27.1-.92.71-1.24.49-.25,3.73-.72,3.96-.93.34-.3.6-1.53-.91-1.23-2.93.59-2.75-.14-2.7-3.07,2.94-.12,5.08-.04,4.32-3.6-1.92-.46-1.36,1.16-2.6,2.08-1.7,1.26-3.08-.12-3.15-2.07l2.87-2.89-4.31,1.44c-.45-1.38,1.25-2.46,1.44-3.25.12-.48-1.95.04-1.44-1.41,1.07-2.27,4.32-3.17,5.51-4.21.91-.79,1.37-2.25,2.78-3.37,2.91-2.3,6.08-2.03,8.26-5.75,2.41-2.05,3.3-.39,2.67,4.99,5.9.72,5.73,7.01-.51,4.79-.08,1.65.03,3.3.34,4.98,1.46-1.93,3.68-1.68,4.54.65l4.8-.84c1.06,1.79,1.79,1.55,2.19-.73-3.34-1.88-3.14-4.92.07-6.75-2.11-4.79-2.53-9,4.08-7.97l3.93-2.17c.64-2.32,2.07-6.17,3.08-1.99Z"/>
  <path class="st32" d="M117.6,214.41c2.02.63,1.53,3.69,2.53,5.07.42.58,1.42.14,1.8.44.55.44.68,1.42,1.21,1.72,2.53,1.48,9.19.04,8.18,4.54-.19.84-2.48.7-2.19,2.25.4,2.18,2.49-.5,3.22-.36.99.19,1.36,2.76,1.99,3.42,2.03,2.14,2.26-.67,2.89-1.06.67-.41,1.86-.09,2.66-.57.89-.54,1.19-2.33,2.67-3.18,4.53-2.59,3.5,2.51,3.99,3.41.87,1.58,9.15,2.58,9.2,4.1-1.99,2.91-3.79-3.24-6.46.01l2.15.35c-1.64,5.46,1.94,2.59,2.89,3.22.74.49,0,1.37.21,1.67.36.48,1.57.56,1.94,1.24.26.48-1.35.37-1.79,1.08-.47.75-.17,1.83-.43,2.32-.45.84-1.75.25-1.38,1.62,1.62,2.42,4.8,2.03,4.79-.72,0-.72-1.65-1.22-1.19-2.5,6.39-.66,1.54,3.78,2.16,4.31h2.87c.45.88-3.11.9-1.43,2.16.38.29,3.37-.18,4.32,0,2.69,1.6,4.28,3.73.7,5.84l-.7,2.08,2.18,2.24c.23,2.44.96,4.6,2.19,6.47-2.74.91-.81,3.54.98,5.2-1.44,1.58-1.88,3.57-1.32,5.98-2.4,2-3.08,4.27-2.03,6.8-3.83,4.73-2.4,10.19,1.13,14.99,0,.68-.36,1.17-.98,1.53.42.17.39.42,0,.72.22,1.59.46,3.27.72,5.04l1.28,1.06c-1.85,4.29-3.4,8.69-4.67,13.2l-1.65.14c-11.39-3.88-3.8-5.88-3.55-11.89.26-6.4-1.86-19.47-2.93-26.27.07-2.32,1.76-2.37,5.06-.14l-1.98-2.02c.23-1.46-.35-2.82-1.71-4.09,1.06-1.91,1.32-3.62.78-5.13,1.28-3.69,1.95-6.35.41-10.03-3.37.2-4.69-2.18-3.96-7.14-1.94-.88-4.89-2.66-5.66-4.15-.03-2.35-1.04-4.66-3.03-6.9-1.18-3.11-4.77-9.24-7.92-4.32-.06,3.01-1.52,5.8-2.75,1.64-2.96-1.02-5.44-2.63-7.45-4.85l-.88-2.7c-2.23.38-3.63-.76-4.22-3.43-4.28,2.84-6.4.68-4.51-3.94-1.25-1.18-1.32-2.51-.36-4-3.56-1.41-2.32-4.42,0-6.48Z"/>
  <path class="st63" d="M317.76,252.57c-2.17-1.25-1.38-3.6.63-4.68-1.16-1.36-1.24-2.47.03-3.83l-2.57-3.61c2.4-3.32,1.81-3.78-2.08-5.3-.67-.26-.51-1.2-.21-1.91-2.18-.55-2.67-2.94-1.29-4.59-2.29-4.77-2.73-6.51,2.59-9.81-2.7-2.95-1.77-5.12.19-8.18-.79-.8-1.04-1.3-.9-2.4.08-.64,5.15-10.35,7-10.5-1.06-6.1,3.68-6.37,3.54-.05-.03-.75.3-.46.99.86,3.99.74,2.16,6.21-2.19,5.86.29,3.57-1.56,5.46-3.99,7.75,2.2.46,3.45,1.51,2.59,3.76,2.63.23,5.3.59,4.31,3.51-.38,1.28-.27,3.58-.72,5.04-.74.67-4.28-3.75-5.03.37-1.03,5.63,1.61,13.61,2.15,19.45,2.01,22,1.78,46.2-5.75,67.31-.53,1.48-1.77,1.6-3.72.34-1.76,3.22-4.06,4.33-6.91,3.32-2.79,2.89-6.29,2.08-8.81-.05-1.44-.03-2.17-.9-2.19-2.59-2.76-1.72-6.14-4.57-5.96-7.95-3.75-2.54-3.29-7.2,1.66-5.3.65-1.6,1.8-.86,2.63.44.7,1.1,1.55,3.41,1.06,4.67,1.49.68,2.95,1.38,2.2,3.21,3.34-1.07,6.77-1.22,10.28-.47,2.41-1.85,4.46-5.31,2.97-7.55.41-3.22.76-4.58,2.5-7.34-1.66-2.28-.31-5.37,2.18-6.17l-.66-1.65c1.1-1.31,1.54-3.07,1.32-5.29.13-2.75-.86-5.88-1.81-8.82.59-3.75.51-7.7-.25-11.84,1.4-1.81,2.8-3.81,4.21-5.98Z"/>
  <path class="st13" d="M266.64,231.69l.94-1.33c2.15.5,4.06.31,6.08,0,.34,1.89,1.69,2.5,4.04,1.83l.45.95c1.63-1.68,2.43-1.43,2.56.86,1.35-.42,2.03.52,2.02,2.84l-.2,4.69c4.67,1.04,3.54,6.47,2.35,9.75,1.85,1.45,1.94,3.37-.06,4.67,2.74,3.02,3.23,7.06,1.47,12.11.58-.09,1.18-.01,1.6.41.36.36.8,7.94.07,8.99,1.37,6.42,2.65,12.77,3.85,19.05.62.24.62.48,0,.72,1.22,1.39.98,2.11-.72,2.16,0,.31,1.02,1.23.72,1.43l-3.59-.71c.07,3.71,4.02,2.58,2.15,6.47h2.88c-2.75,3.46,2.8,4.4,3.43,5.17.51.61.08,2.61.89,3.47.05,1.48-1.55,1.16-2.16,0-.4,3.09-3.25.57-3.18-1.99-2.12.77-3.21-.36-3.29-3.38l-1.65-.7c2.64,6.29-3.54,8.98-4.83,3.19-2.33-9.91-5.26-19.69-7.92-29.52-.9-3.17-.3-4.8,1.81-4.87l.09-1.12c-3.88-.89-2.78-3.59-1.15-6.22-1.87-1.76-.94-3.47,1.59-3.54,1.34-1.08-.1-6.37-1.31-7.68l.75-1.98c-1.17-2.09-.98-4.7.55-7.83-3.25-1.87-6.16-5.66-.62-6.14-2.16-2.32-3.57-4.79-4.25-7.41-2.75.52-4.54.04-5.36-1.44-.1-.92.14-2,0-2.88Z"/>
  <path class="st31" d="M74.4,246.81c1.4.96,2.43,2.45,3.08,4.5,3.8-.41,7.13-.2,9.88,2.7-3.59,2.63,2.87,9.45,5.04,11.52,3.17,2.86.54,6.13-2.65,7.68,1.29.64,2.26,1.63,1.9,3.15-2.27,3.88-1.21,5.83,2.01,8.61-.6,2.82-.48,4.03.51,6.73-2.22,2.64-3.35,5.83-3.39,9.57-.35,2.86-1.8,4.86-4.55,5.77.98,2.15.88,3.67-.31,4.57-3.32-.43-7.06-.15-9.77-2.88,1.06-4.2,2.25-3.77,1.13-8.64,1.3-1.19,1.36-1.97.2-2.32-.44-1.76-.86-3.55-1.27-5.36,1.09-1.6.97-3.24-.36-4.94l2.52-5.89c-2.29-1.52-3.05-2.82-1.22-5.06-4.57-1.02-3.19-4.22.64-5.21.17-.2,2.19-4.68,1.95-4.78-.53-.21-3.84-.72-4.81-.86-5,.47-5.21-.93-2.27-4.38.11-.13.04-.34-.12-.38-3.83-.93-5.53-3.12-1.05-4.51l1.07-3.01c-2.98-3.14-3.33-5.1-1.04-5.86.73.35,1.13.98,2.16.72v-2.88c1.85-.65,1.97-.02.72,1.44Z"/>
  <path class="st87" d="M170.88,127.29c-2.69-1.85-.26,1.12-1.64,2.66-.73.81-3.94,2.25-4.07,2.45-.29.44,2.12,2.13-1.49,2.81l.72-2.15c-8.92-2.27-2.78,3.71-3.23,6.58-.26,1.69-2.54,1.43-2.44,2.99.14,2.18,1.12,2.19,2.78,1.22.48.62-1.08,4.91-1.68,5.56-.29.31-1.3.17-1.88.72-1.38,1.3-1.87,3.98-2.91.57l2.88-2.52-7.2,1.43c-.21-.17,1.95-3.29-1.08-2.17-.54.2-.74,4.28-2.17,2.19-1.29-1.88-.39-5.3-1.83-7.48.69-.18,1.77-1.93,1.91-1.93,1.53-.04,2.54,2.48,3.88.4-.85-2.09-4.13-1.63-4.25-1.84-.1-.17-.61-3.34-.59-3.83.07-1.52,3.15-1.17-.9-2.61.27-.45.51-.96.72-1.44l3.82-6.86c4.63-.76,6.57.49,5.81,3.76.27-3.72,1.2-10.6,6.05-8.66.27-1.57,1.2-3.05,2.78-4.45-1.37-1.09-1.64-2.83-.8-5.21-2.69-.53-7.74-6.54-4.91-8.33,1.93-1.22,8.16-.8,4.55-.24.96-2.94-2.59-5.96-5.56-5.91-.67-2.78-1.94-5.46-3.83-8.03-2.15.13-2.1-.89,0-1.44-.72-1.11-1.76-2.91-3.15-5.37l.99-.39c17.3,10.68,23.5,28.12,18.72,47.52Z"/>
  <path class="st86" d="M116.16,230.25c1.36-.42,2.72.52,4.08,2.81,2.1.92,3.97,2.01,2.05,4.17-.09,4.04.69,4.55,4.54,4.43.57,1.38,1.62,2.36,3.14,2.93l1.77,4.62c9.99,1.02,10.13,4.75,4.59,12.45-.03,4.41-1.44,6.08-5.54,3.53-3.5,3.96-9.71.26-7.29-4.22-1.35,2.88-4.54,2.82-9.56-.17l-2.37-.3c-.49,3.91-2.8,4.38-6.94,1.43-2.02-.26-2.7-1.29-4.81.28-.38.28.08,1.65-1.29,1.15-3.52-1.3-5.44-8.55-11.18-9.35-4.26-.59-3.2-1.3-5.51-1.95-1.96-.55-4.48,1.76-6.1-2-.49-1.12-.92-2.27-1.34-3.25.72-3.35,6.24-.25,3.6,2.16-.44.98-.17,1.52.72.72,4.09-1.64,6.78-1.2,8.07,1.33,1.93-.26,3.77-.25,5.52.01-.54-2.23-.03-3.4,1.53-3.5,1.22-1.27,2.66-.55,4.32,2.16,1.44,1.23,3.11,1.76,5.01,1.58l1.5,1.2c1.78-2.07,3.31-2.42,4.6-1.06.55-.06,6.14-2.42,4.02-3.33,2.4-2.68,3.6-5.64,3.61-8.88-5.14-3.52-8.74-6.18-.74-8.22-.62-.19-.61-.44,0-.72Z"/>
  <path class="st91" d="M332.88,166.17c-.2,3.62-.38,7.23-.53,10.81-.51,1.88-2.57,1.94-3.07,0-2.08-.82-1.24-2.46-.37-4.03-1.17-2.78-.61-7.28,1.46-9.54.47-1.83-2.27-10.93-4.69-10.91-.92,1.08-1.37.62-.72-.72l-5.22-10.06c-3.07-2.31-4.95-5.16-5.63-8.55-1.92-.33-3.8-2.66-2.82-4.43-1.55-2.34-3.28-4.84-5.19-7.51-2.11,1.98-4.44.51-4.17-2.25-1.2.16-1.98-.13-2.35-.88-1.46.55-4.76.17-6.09-.52-.28-.15-3.21-4.63-3.05-5.49-2.3-.78-2.95-1.96-2.89-4.05-2.98,3.32-5.01,3.54-6.08.67-2.59-.45-5.23-.66-7.93-.64-2.78-1.16-5.44-1.58-7.99-1.25-.56-1.59-1.39-2.93-2.5-4,15.14-3.27,37.18,3.04,48.97,13.31,14.4,12.55,19.82,31.65,20.87,50.05Z"/>
  <path class="st50" d="M117.6,220.89c1.08,2.89.89,4.23,0,7.2,3.58,1.82,4.41-1.53,4.68-1.43,1.72.6,2.35,4.16,2.55,4.32.41.31,2.5-1.05,2.85-.72.23.22.61,4.53,2.48,5.82.96.67,2.07.4,2.71.74s.52,1,1.15,1.33c1.4.73,2.92-1.46,2.32,2.91,1.16-.04.57-1.53,1.43-2.88.62,2.07-1.09,4.95-.62,6.68.3,1.11,1.9,1.7,2.37,2.73,1.24,2.68,7.12,22.73,6.16,23.71-1.52.3-3.11-.79-4.52-.58-2.38.35-2.29,2.94-3.7,2.78-1.85-.21-5.29-2.65-7.43-3.46-2.03-.77-9.87-3.71-11.36-3.69-2.73.02-3.18,2.82-3.64,2.85-1.99.15-8.8-5.5-10.39-7.25.06,0,.4-.62.93-.53,1,.17,2.38,1.97,4.08,1.23-.72-8.4,10.97.67,12.27-.7.31-.33-.81-4.61,4.32-1.07.7,1.56-4.42,1.71-.93,3.8,4.24,2.54,4.48-1.33,4.91-1.31,1.2.05,2.76,2.23,4.66,1.47-1.12-4.24,1.86-5.56,2.94-8.23,3.18-7.9-3.93-3.47-7.08-6.36-1.03-.94-1.18-3.98-1.79-4.69-.58-.66-2.13-.44-2.58-1.07-.38-.54.01-1.82-.13-1.99-.12-.14-1.46,1.02-2.84.41-3.53-1.56-1.97-4.53-2.18-4.72-.14-.12-4.21.17-1.75-1.48.68-.46,2.59-.16,2.46-1.4-3.19-.5-3.91-2.94-5.75-5.05-.77-1.07-.89-2.55-.36-4.45-2.6-1.17-1.54-5.22,1.08-4.91.21-.53.45-.52.72,0Z"/>
  <path class="st83" d="M173.76,143.13c5.74-2.7,8.08,3.02,3.6,6.48.49.21.49.45,0,.72,1.52.11,2,1.07,1.44,2.88.66-.18.9.06.72.72,2.32,3.22-2.49,11.62-7.16,9.48l1.15,3.03c-.73,2.35-.73,6.66,2.39,6.34,1.73,1.99,3.71,3.13,5.94,3.41.56,3.16,2.08,5.35,4.15,7.98.94,3.44-3.21,1.41-5.21,1.63-2.23.24-4.93.29-6.62.52-1.23.17-2.14,1.76-3.52,1.4-1.27-.33-1.43-2.02-2.17-2.59-.79-.6-2.06-.48-3.08-1.6-1.1-1.22-.45-3.17-2.09-2.97-3.67.46-1.7,3.5-1.92,4.62-.15.8-1.47,1.55-2.02,1.15-1.47-1.07.81-7.36.74-8.22-.12-1.6-1.75-2.39-2.19-3.3-1.87-1.59-3.37-3.66-4.5-6.18l1.62-1.74c6.88-4.71,15.11-16.18,18.72-23.76Z"/>
  <path class="st36" d="M47.04,82.65c2.85-1.89,5.45,2.71,2.27,4.66,1.68,1.94,1.9,4.85.64,8.74l.73,1.15c4.3-.33,3.49,2.9.37,4.37-.61,2.87-.93,3.97-3.92,3.71.86,3.3.93,6.67.2,10.11.62.07,1.39.19,1.68.69,1.75,3.09,2.46,6.01-.15,9.09.62,1.74,1.53,5.06-.36,5.72-1.18,1.94-.53,4.94,1.97,3.89,3.98,1.83-.06,8.42-3.37,5.68-.49,3.02.92,4.35,4.24,4,.73,2.84,2.55,6.78,5.71,6.47,1.5,1.05,3.27,1.55,5.29,1.5-1.05,7.17,4.84,9.94,10.6,11.96-.04,2.25,1.57,2.87,4.84,1.85,2.17,4.09,6.35,4.25,10.77,4.04,1.77,2.66,8.73,1.24,10.27-1.13,4.16.6,8.3-.06,12.43-1.96l.62.43c6.63-1.85,1.02.74,4.32,2.88l-1.75,1.74c-8.94,2.03-17.8,3.98-26.59,5.87-2.87-1.78-5.66-3.36-8.38-4.73-.97,1.59-2.41,1.11-4.32-1.44-.99,1-1.42.54-.72-.72-3.16.45-6.62.43-10.39-.05l-2.04.44c-2.33-.84-5.61-6.92-2.55-8.65-2.16-.52-3.36-1.46-2.78-3.85-1.61-1.37-3.42-2.36-5.43-2.97-.26-3.19-3.08-5-6.15-4.33-2.04-2.3-2.72-5.73-2.03-10.27-3.59-.7-4.08-3.23-.5-4.83l-.14-1.73c-3.66.98-6.72-3.42-3.28-4.8l-.59-.63c1.96-1.95,2.53-3.79,1.73-5.53.6-2.67.34-5.54-.78-8.62l1.67-1.97c-.22-5.76,1.13-10.42,4.06-13.98-1.39-2.14-3.1-4.33-5.51-5.7l.13-1.72c2.5-3.5,4.31-6.08,7.2-9.36Z"/>
  <path class="st93" d="M188.88,237.45c.96-.96,1.77.05,2.41,3.04,5.55,5.35,5.41,8.6-.42,9.74l2.86,5.54c2.56,1.61,2.44,5.02-.34,10.25l1.67.38c.6,3.32.52,6.83-.24,10.55,5.41,2.22,1.5,6.18-2,8.09,1.45,3.14,1.45,4.27-1.13,6.74l1.11.88c2.77-3.26,4.82-3.91,6.15-1.94-1.29,7.04-2.4,14.19-4.53,21.03-2.62,8.44-1.89,10.01-11.31,10.65-3.8-.02-6.11-7.6-3.15-9.63-.99-2-1.09-4.38-.96-6.6.14-2.44,3.66-6.78,5.22-8.55.13-3.34.76-6.24,3.07-8.97-1.26-1.87-1.87-5.38.03-6.57,1.33-6.02,1.52-12.11.57-18.28-.66-2.5-.79-7.25,1.71-8.35-2.21-5.48-3.41-11-3.6-16.56-1.16-1.27-1.16-1.99,0-2.16,1.06-.96,2.22-.49,2.88.72Z"/>
  <path class="st66" d="M39.12,130.17c.16.69-2.66,4.17,2.15.72l-1.43,2.87c2.36-.09,4.3-.31,3.61-3.14-.09-.38-2.82-.74-1.45-1.89.31-.26,1.62.86,2.2.41.66-.51.25-2.07,1.39-1.85.49,2.9-1.36,5.44-1.77,7.81-.15.84.61,2.68.32,2.97-.13.13-2.56-.35-2.86,1.82l2.87-.37c.78,1.75.03,10.25.76,10.77.85.59,2.97-.73,3.46-.56.07.03.17.98.63,1.29.71.47,2.77,1.34,2.93,1.62.42.74-.13,2.16.23,2.61.23.28,1.85.22,2.58.65,1.8,1.05,2.65,2.89,5.25,2.34.64,2.43-1.87.85-2.17,1.8-.53,1.7,2.64.67,3.5,2.98.2.53.11,1.14.1,1.69l-2.15-.71.73,3.59c2.76-4.38,6.45-.93.71,0,.72,4.39.95,2.04,3.25,2.11s8.94.29,10.43,1.48c-.93,1.48-.56,2.27.53,3.49l-.53,1.55c-.69,1.48-2.55,2.05-5.6,1.71,5.37,1.08,6.17,4.33.76,6.48,1.99.51,3.89,6.69,3.53,7.73-2.68,1.01-1.95,3.82.43,4.16,1.93,3.1,1.56,5.57-1.03,7.95,3.56.19,3.21,3.47,1.02,5.49,3.5,1.28,6.01,3.33,7.51,6.77,4.16.79,5.32,2.31,3.49,4.55,3.07.58,10.12,3.62,4.28,4.85l-.67,1.45c-4.52.68.09,5.64,3.85,4.72,1.76,1.96,4.04,2.8,6.83,2.52l.79,1.39c.62.24.62.48,0,.72,1.7,1.94.44,3.64-3.77,5.1l.17,2.42c3.07-.29,4.21,3.63,2.16,5.44-2.21.57-2.2-1.12-3.13-1.93-.41-.36-1.11-.16-1.19-.23-1.16.34-1.79.22-2.18-.84-1.35,5.05-7.38.83-5.2-2.49-4.6.86-12.1-4-5.1-7.17.38-.66-5.56-12.3-7.23-13.1-3.57-.02-4.7-1.13-3.95-4.73-2.75.38-3.77-1.94-1.95-3.92-2.23-3.5-3.73-7.19-4.49-11.05-2.69-.58-3.9-4.09-1.86-5.76-2.23-1.54-2.08-4.58-1-6.82-.8-2.66-2.05-5.39-3.76-8.19-.26-2.82-1.07-5.14-.76-8.32.29-2.94,2.4-5.12.79-7.74-.59-.96-11.1-5.91-13.72-8.05-4.85-3.97-8.15-9.26-10.79-14.77.58-2.32,1.06-4.71,1.44-7.16,1.19-1.73,2.62-1.23,2.47-1.26-2.41-.6-1.83-6.75,1.13-6.7,1.39-1.35,1.6-1.21,1.44.72Z"/>
  <path class="st45" d="M57.12,183.45l2.52,2.88c1.44-2.84,3.23.15,1.8-4.31,2.1-.57,1.01,1.08,1.8,1.45,1.81.85-.38-2.87,1.43-1.45,5.3,4.18-3.82,3.04-4.67,5.4,2.94.66,1.44,2.92,1.62,3.13.22.25,1.15,0,1.24.11.19.24-2.21,3.35-1.04,5.8.66,1.38,3.79,1.08,2.48,4.99l-2.15-2.16c-1,3.89,2.08,3.03,2.72,3.74.32.36.45,3.17,1.01,4.39s2.69,5.6,3.13,6.26c.51.75,1.7.67,1.76.74.4.5-2.75,2.2-2.16,3.58,4.91-1.33,2.04,3.54,2.88,4.32.15.14,2.52-.31,4.02.66,1.35.87,1.32,2.5,2.05,3.38,2.76,3.33,1.32,1.65,2.93,5.32.57,1.3,3.25,5.77,3.25,6.12,0,.28-5.4.75-3.59,3.21.15.2,4.27,2.02,4.52,2.02,3.17.03,5.03-2.55,7.71-3.42.35,2.21-1.72,2.78-2.66,3.86-.37.43-.07,1.59-.28,1.8-.66.63-2.97-.7-2.81.81,1.08-.33,1.56,1.38,1.83,1.45,2.38.6,1.43-.68,1.95-1.61,1.89-3.43,2.51.73,3.42,1.61-1.08,4.11,1.97,5.08,1.44,8.64-3.81.49-2.82-3.48-3.58-3.98-.54-.36-4.23.62-5.28.26-1.27-.44-1.55-2.6-2.34-2.75s-2.14,2.35-5.36,0c-.82.71-1.18.3-.72-.72-.39-.38-.26-2.75-3.6-2.16-.23-.54-.57-1.06-.72-1.44-7.08-17.86-14.8-42.92-16.56-61.92Z"/>
  <path class="st79" d="M92.4,265.53c.59.57,6.07,4.65,6.46,4.75,2.17.6,3.16-1.88,4.39-1.57,2.85.71,9.88,8.29,14.31,8.41-.17,1.67-.48,3.3-.67,4.98-.35,1.27-1.38,1.35-3.09.25,0,2.57-8.29,4.67-8.35.9.58-1.82.78-4.25-1.14-5.25-2.75-.35-5.58-1.23-3.94-4.5-.55,1.77-2.43,2.97-5.63,3.6,1.99,2.49,2.72,4.95,2.19,7.37l6.57,8.32c3.44,2.43,2.41,5.64-3.08,9.63l.59,1.76c-4.13,6.03-1.2,5.2,4.07,3.33,2.02.47,2.32,2.44,1.72,4.12-6.12,1.56-14.74.79-20.88,0l-1.45-5.38c3.84-1.64,4.14-1.56,5.04-5.81.11-.5-1.52-.03-1.44-.68,3.43-1.33,1.66-3.01,2.17-5.62.07-.34,2.65-1.75,2.61-3.02-.01-.49-1.08-1.3-1.2-2.21-.19-1.5.73-2.54.74-3.5,0-.23-2.77-1.99-3.25-3.33-.43-1.17.47-2.11.25-3.07-.25-1.12-3.22-2.5-1.69-4.1.45.59,1.9,2.02,2.52,1.43,1.18-1.11-2.06-2.08-2.19-2.54-.68-2.46,1.51-1.57,2.94-3.02,1.11-1.13,2.35-3.63,1.41-5.24Z"/>
  <path class="st65" d="M216.96,225.21c4.66-3.25,2.37,1.3,4.67.72,1.03-3.23,3.43-2.16,4.01-2.54.52-.34.56-1.88,1.03-1.78,2.52.52,1.41,2.33,2.04,3.37,2.08,3.41,2.96.25,4.71-.12.72-.15,5.19-1.02,5.48-1.04,3.31-.23,8.97,5.24,6.86-5.09,1.88,1.39,1.26-.69,1.86-.78,2.03-.29,2.58,2.81,3.18-2.82,2.1-.34,3.41,1.21,5.02,2.16,1.96-7.44,2.61.47,2.89.73.26.23,1.74-.64,2.5-.59,1.42.08,3.41,1.36,4.37-.12.49-.76.08-2.45.41-2.81.44-.48,5.21-.4,6.22-.98.39-.22,4.98-6.26,6.29-6.26.23,0,3.74,2.36,3.92,2.52.2.17,2.92,4.02,2.91,4.28s-3.48,2.24-3.43,3.61c.03.69,2.55,2.19,3.11,3.57.79,1.95-1.11,3.27-.96,4.21.19,1.17,2.13,1.15-.14,3.35l2.88,1.45c1.67,2.56,2.99,6.63-1.44,7.2-1.45.47-2.48-.36-3.08-2.48-1.46.08-3.69-3.99-4.05-5.49.92-2.79.71-4.31-.62-4.55.16-2.64-1.38-2.57-4.61.2-3.32-1.95-5.36-2.67-9.02-2.55,0-1.18-1.86-1.29-2.56-.97-.32,3.57-2.65,8.48-5.79,4.15-.45,1.77-4.89,1.38-7.29.34l-4.47,2.07c-.78,3.06-2.13,5.94-5.2,2.99-2.28,2.68-5.1,2.87-6.48-.74l-2.36.04c-3.16-1.91-6.42-2.48-9.77-1.7-.58,1.9-2.12,3.14-4.62,3.73-.81,2.48-2.8,7.56-5.68,7.13-.32-2.12-.98-4.36-1.44-6.48.61.75,1.37,0,1.44,0,1.1-1.96,2.09-4.08,2.99-6.36,2.11.89,3.24.69,4.21-1.56Z"/>
  <path class="st26" d="M188.88,237.45c-1.56-2.4,2.26-4.31,3.59-1.59,1.17-1.63,2.84-1.11,4.06.23,2.38-2.03,4.15-.38,5.31,4.96,3.93,12.64-.45,36.47-2.88,49.68-3.84-.57-4.61,5.28-7.72,2.69-2.7-2.24,1.26-4.29,1.29-4.57.16-1.63-1.72-2.88-.99-4.4.96-1.98,4.67-1.64,4.56-5.58-4.42-1.11-2.23-1.92-2.27-4.43-.04-2.91-.11-4.44.81-7.47l-2.87,2.87c.73-1.67-.06-3.53.28-5.05.36-1.61,2.8-5.73,2.53-6.78-.2-.76-1.6-.83-1.9-1.31-.7-1.13-1.68-2.81-2.34-3.97-2.63-4.63,1.3-3.87,4.3-5.56-.91-1.44-4.14-4.98-4.67-6.13-.58-1.29.03-3.64-1.09-3.59Z"/>
  <path class="st99" d="M106.8,311.61c-1.61-.17-.85-2.83-1.8-2.86-.67-.02-2.95,2.61-6.12,1.06-3.71-1.82.38-4.15.71-5.05.53-1.44-1.56-.95-1.44-1.42.64-2.52,5.6-4.77,6.47-7.94-.61-.71-1.52-.92-2.14-1.63-.91-1.05-6.66-8.3-6.86-8.82-.42-1.04.45-2.03.24-3.06-.25-1.24-2.98-3.72-2.67-5.14,1.03-1.82,3.3-1.49,4.95-2.3.51-.25.58-1.58,1.24-1.75,4.1-1.08,1.42,2.18,1.98,2.91,1,1.31,4.76-.55,5.87,4.31.39,1.71-.4,2.7-.42,4.31,2.27-.15,3.32-1.71,5.75-.72l-.71-3.59,5.04,2.16c-.69,6.08-1.83,20.19-3.96,25.2-1.12,2.64-3.47,3.65-6.12,4.32Z"/>
  <path class="st77" d="M211.2,252.57l1.61-.45c1,2.07,2.6,2.35,4.8.84,4.57-3.45,8.57-4.17,11.98-2.17,2.23-2.07,4.55.43,4.37,3.23l1.41.5c.84-2.53,6.18-1.61,7.03,1.27,1.86-1.48,4.08-1.59,6.65-.34,1.52-1.84,3.78-3.65,6.05-2.11,2.27-1.65,3.96-.94,5.05,2.12.01.08,1.03.58.72,1.44-16.53,4.54-33.21,8.82-50.4,10.09-.56-4.85.79-9.61.72-14.4Z"/>
  <path class="st45" d="M209.76,241.77c.31-2.51,2.49-1.25,3.13.8.8-2.41,3.34-3.67,7.63-3.75,1.27-5.58,3.39-6.63,6.36-3.13,5.14-2.85,8.26-3.23,13.1.35,3.12-5.01,5.76-5.65,11.23-4.99l2.31-.76c-.62-3.65,1.51-6.23,4.15-2.69.28-1.06.45-1.62,1.7-.88l1.85-3.15c.29-4.37,2.08-3.41,5.37,2.88l.97.39c2-3.29,4.9-1.49,7.29.24,1.82,1.31,7.59,5.82,3.3,6.05-2.66-.24-3.25,2.09-5.41-2.16l-.35,1.43-5.77-.71c-.45-2.79-2.73-5.8-5.78-3.96-.81.49-.94,1.92-1.42,2.52-.79,4.22-2.12,6.61-6.85,6.08.37,1.88.02,3.77-1.65,4.91-3.29,1.18-4.99,2.85-4.13,6.51-.8.85-4.13,2.46-5.19,2.37-3.72-2.54-7.75-4.8-12.09-6.77-1.11,1.45-2.42,2.61-3.93,3.46.89,1.1.48,1.48-.72.72-.54,1.01-1.32,1.83-2.16.72-.68.2-.92-.04-.72-.72-2.48-.33-5.3.03-7.81.6-1.63.55-2.86.35-3.71-.6-.16-2.01-.47-3.79-.72-5.76Z"/>
  <path class="st82" d="M36.96,95.61c2.44-.71.71.5.75.39,1.23-3.49,4.71-1.35,3.39,2.01,2.6,1.63,2.3,4.15-.91,7.54.75,3.65-.36,5.69-3.31,6.1l.23,1.09c2.8.8,3.83,6.67,2.15,8.6l.45,2.39c2.47,1.63.37,5.21-2.02,5.73-.75,1.83-1.45,2.98-.72,5.04l-1.44-.36,2.16,1.08v2.88s-2.15-.72-2.15-.72c-.36,1.98-.39,7.06-2.89,7.2-8.76-18.28-6.51-32.33,4.32-48.96Z"/>
  <path class="st82" d="M266.64,234.57h8.64c-3.65,3.72-1.2,3.3.98,5.76.32.36-.19,1.33.41,1.76.35.25,1.82-.29,2.21.77.55,1.5-3.28,2.59-4.31,1.79-.6,2.14,3.4,3.26,3.61,4.11.74,2.9-1.33,4.14-1.49,5.67-.16,1.61,1.53,2.47,1.36,3.41-.12.69-1.32,1.39-1.32,1.57,0,.59,1.87.86,2.09,1.18.53.75-2.36,3.5,1.5,4.58-2.19,1.08-1.51,4.18-5.03,3.24-.15,1.24,2.09.92,2.14,1.79.01.26-2.99,3.83-2.15,4.68,1.01,1.01,3.66-1.27,2.16,5.05-2.59-1.45-3.13.34-2.88,2.87-5.14-18.97-5.75-29.06-7.92-48.24Z"/>
  <path class="st33" d="M209.76,239.61l3.94-5.81c0-5.45,6.4-.92,4.7-7.87,1.29-.41,1.67,1.06,2.61,1.24.85.17,2.15-.57,3.89-.25s3.69,1.82,5.64,2.23c.88.18,2.46-.63,2.92-.31.82.57-.25,4.19,2.93,2.49,1.05-.56,1.79-2.64,3.46-1.58.23.15-.12,1.76,1.22,1.22s.69-2.7,1.57-3.66c.56-.62,4.92-2.64,5.84-2.71,1.71-.14,2.36,1.38,3.28,1.24,1.3-.2,2.92-3.73,2.28.82,1.79-4.12,2.22-.4,5.39,0,.46-3.07,1.59-5.83,3.98-7.91l1.07,2.88c2.26,0,5.85-2.37,5.04,1.43,1.23-.1,1.03-3.47,2.51-3.58,1.81-.13.07,3.94.37,4.31,1.7.1,2.75-2.65,2.97-2.78.3-.18,1.23.76,1.92.51.16-.06,1.76-2.83,1.94-2.76l1.08,4.31-2.87.36c5.31,1.15,1.1,4.61,2.5,6.85.76,1.22,2.49-1.28,3.97,0,1.1,2.03-4.56,2.07-2.87,3.59.18.16,2.02-1.05,2.87-.72-.64,2.14.96,3.19,1.44,4.32,2.07.49,3.46,1.42,2.64,3.63,2.02,4.93,3.22,10.27.71,15.33,3.21,1.05,1.78,4.99.84,7.41,2.45.84,2.8,3.97.13,4.59l.64.96c-.73,3.43-1.31,10.86,1.61,12.73.36.69,1.53,7.37,1.62,8.5.13,1.67.32,5.77-1.71,5.88l-1.81-5.03-1.08,5.03c-2-.32-.71-2.54-.91-2.77-.16-.19-2.2.03-1.23-1.54.04-.06.96.1,1.41-.54,2.48-3.54.33-2.86.05-5.63-.25-2.45-1.12-6.98-1.18-8.6-.04-1.17,1.24-2.57,1.2-3.57-.01-.28-2.85-.86-.77-4.72-.92.73-3.59.91-3.58-.36,0-.1,1.01-.85,1.2-1.65.62-2.57,1.02-6.45.22-8.98-.33-1.04-2.47-.81-2.15-2.31.43-2.03,4.6-1.05-1.45-5.06l2.16-.35c-.06-1.56-.56-3.2,1.44-2.89v-.7c-2.64.51-.24-2.35-1.61-3.44-.5-.4-1.9-.18-2.37-.84-1.11-1.54,2.05-8.95-3.21-9.41,2-2.42-2.63-2.22-3.59-1.44l1.44-3.26c-2.7.93-2.93-2.73-6.71-1.77-.62.16-.28,2.56-3.37,1.06-3.52-1.71-1.18-5.71-4.33-6.1,1.89,2.95-.77,3-2.18,5.41-.63,1.07.75,2.84-2.37,1.8-.91-.3-.73-2.08-1.92-2.18-.45,1.09.24,4.07-.69,4.68-2.03,1.32-6.23,2.05-8.27.33-1.79,2.29-4.84,2.8-4.74,6.52-.4.41-6.44-3.55-7.55-3.57-1.52-.03-6.78,2.82-7.9,2.87-.67.03-.49-1.42-1.07-1.82-3.06-2.1-1.72,1.69-2.55,3.23-1.51,2.79-6.52,1.7-7.46,2.26-.78.47-.04,4.34-3,2.42-.57-.37-.44-2.32-2.14-1.79-.09-.69.1-1.48,0-2.16Z"/>
  <path class="st21" d="M180.24,228.81c.62.2.61.44,0,.72.41,1.35.64,3.1-.53,4.05,2.46,7.09,5.36,14.12,8.7,21.1l-.2.94c-3.53,1.73-3.62,4.7-.27,8.9.43,1.63,1.14,11.29.87,12.82-.33,1.86-1.65,6.75-3.82,6.44l-.77,9.78c-1.71,1.6-2.45,3.55-2.24,5.85l-1.58,2.76c-1.5,6.35-2.22,12.75-1.81,19.43-1.42.62-3.03.65-4.83.09-.94.05-1.93.04-2.88,0-.5-.24-1.24-.65-1.17-1.04.43-2.5,2.09-7.33,4.05-8.72-.16-1.82.05-2.85,1.68-4,.19-4.42.96-8.84,2.31-13.26-2.13-3.27-1.17-7.23,2.05-8.63.54-3.14,1.67-5.88,3.77-8.09-1.58-4.75-3.45-10.49-1.09-15.59l-1.06-.74c-1.43-3.06-1.78-5.93-1.05-8.59-1.7-.28-2.95-1.4-3.73-3.35-.78-.35-.8-.59,0-.72.11-2.08-.37-3.52-1.44-4.32-.82-.91-1.61-2.23-2.38-3.97-2.71-1.2-2.47-2.89-1.94-5.39,1.23-1.84,5.18.54,5.75,0,.18-.17.95-3.79,1.37-4.79.56-1.35-.76-2.1,2.24-1.69Z"/>
  <path class="st72" d="M56.4,55.29c1.24.91,3.52,1.74,5.04,1.44.17-.62.41-.86.72-.72,2.3-3.18,9.32,2.69,6.48,6.48-1.87,2.31-4.77,3.06-3.46,7.41,1.54,5.15,6.81-.49,8.95-1.56,2.42-1.2,3.85-.98,6.03-1.53,1.47-.5,1.52,1.9.72,2.88-.82,1.95-1.4,1.92-2.16,0-.87,1.57-1.83,3.01-2.88,4.32,2.13.35,2.01,3.24.72,4.32l-5.76.72c0-1.47,1.93-3.29-.72-2.88.7,6.27-3.55,1.25-5.4.98-1.61-.24-2.06,3.13-3.23,1.91-.25-.26-1.66-5.36-2.9-6.48-.22-.15-4,1.91-4.31,2.16,3.87-2.93,4.27-8.96-1.77-7.93-2.12.36-3.52,4.35-4.71.38,2.77-2.35,3.82-3.54,1.44-6.84,3.47.36,7.96,0,5.76-4.33-.8-1.87.12-2.17,1.44-.72Z"/>
  <path class="st29" d="M71.52,247.53c-1.12,2.55,2.54,4.39,2.66,5.4.03.29-1.75,5.2-1.94,5.41s-1.87-1.33-2.15-.37c1.09,3.07,1.73,1.07,4.31,1.09-1.52,3.04.51,1.72.73,2.52.62,2.32-4.01-.62-2.88,3.23,3.35-1.83,5.65,1.2,8.63,0,.94,3.29-.64,3.54-1.36,4.9-.34.64.06,1.78-.77,2.68-.41.45-4.38,1.22-2.9,2.49.53.45,6.42-2.75,1.44,3.95.44,1.16,2.75.97,2.88,1.1.71.72-2.71,6.41-2.91,7.59-.24,1.42,1.61.62,1.54,2.1s-1.63,3.09-1.52,3.25c.31.43,4.77,1.32,5.04,2.88l-5.04.02c.07,1.61,2.87,1.09,2.89,1.81.06,1.58-1.02,3.1-2.9,2.5-1.31-5.71-3.52-11.34-4.82-17.14-2.91-13.05-5.13-26.39-5.98-39.74,1.75,1.62,2.73,3.21,5.03,4.32Z"/>
  <path class="st60" d="M247.92,104.25c-1.92,2.08-4.02,3.16-6.3,3.24-.7,1.17-2.39,1.61-5.07,1.3-4.29,3.53-8.43,4.96-12.45,4.3-1.63,1.05-5.27,2.68-7.1,2.76-2.14.1-7.43.03-6.51-2.53-2.51,1.32-4.12,1.19-6.48,1.01-.03,3.66-8.91,6.92-11.21,3.19-4.17.39-8.12-.2-11.83-1.75.06-2.56-.84-4.69-.72-7.2,15.68,6.62,32.45-1.19,48.67-2.81,1.28-.13,2.62.73,4.16.63,3.3-.21,8.74-3.41,13.23-3.42,1.43,0,1.15.86,1.61,1.28Z"/>
  <path class="st82" d="M259.44,236.73c.17,5.36.06,13.86.72,18.72-.98,1.48-.76-1.35-2.52-1.5-2.48-.21-1.63,1.32-1.83,1.46-1.66,1.2-.96-1.67-2.39-1.34-2.3.52-3.54,2.84-3.78,2.87-2.08.2-6.05-3.42-7.12,2.11-2.32-3.41-1.39-5.3-6.12-5.03,1.1,2.04.34,4-2.16,4.31,1.69-4.38-.32-2.16-1.27-2.99-.62-.54-.65-3.93-.9-4.2-1.72-1.9-.95,3.12-2.5,2.16-3.16-7.11-10.5,2.92-15.85,2-.2-.03-1.98-2.35-2.52-2.72,0-.11-.66-.98-.72-2.16,1.97-1.29,4.04-2.42,6.22-3.39,1,.88,2.6.86,4.81-.06l.5.57c.21.27.52.46.72.72.88-.02,1.55-.04,2.16-.72.14-.26.58-.47.72-.72,1.8-2.87,3.74-2.24,5.13.68.33.24,6.5,3.25,6.86,3.37,1.56.48,12.28-2.38,12.62-2.94-.14-2.43,2.7-9.24,4.35-10.68l1.88-.1c.66-2.52,2.8-3.34,3-.4Z"/>
  <path class="st9" d="M326.4,219.45c.35-2.77-1.36-.67-2.48-.68-.58,0,.06-2.26-1.83-1.48-.13,2.44,1.01,4.21-2.16,3.59,3.01-3.3.24-2.71.1-3.22-.45-1.56,4.07-5.2-2.98-3.26-.12-2.82,4.07-5.46,4.56-6.64.51-1.24.23-3.4.8-4.19.71-.98,2.98-.43,3.7-1.36.82-1.05-.41-2.63-.43-3.64-1.39-.41-1.39-1.03,0-1.44-.51-2.09-.71-4.41,0-6.48l-.91-1.58c1.47-4.06,2.57-8.19,3.33-12.37l1.19.28c.86-.32,3.58.65,1.91-1.98-.13-.21-1.73.02-1.19-1.25.69-1.55,5.76-1.86.73-4.33l2.15-3.24c1,17.38-1.54,36.45-6.48,53.28Z"/>
  <path class="st94" d="M247.92,104.25c3.7,3.35,3.11,1.65,7.2,1.44,2.7-.98,5.45-1.69,8.24-2.13,4.36,4.05,11.21,4.62,17.23,4.84,2.32,2.02,4.45,3.41,7.7,2.16,1.94,1.85,3.66,4.52,5.13,6.96,6.5.22,8.61,1.07,6.34,2.57.07.9-1.44,3.65-2.06,3.83-.27.08-4.07-1.84-4.8-2.25-.59-.33-1.29-.64-1.85-.16-3.54-5.39-8.95-8.68-16.21-9.89-2.24,1.54-4.9,1.26-7.97-.85-1,2.28-2.93,2.43-5.78.44l-1.53,1.33c-1.93-.31-3.52-.06-4.79.75-2.15-1.35-4.55-2.43-6.97-2.13-.59,1.15-1.43,1.59-2.76,1.74,2.09,4.03-3.98,3.15-6.28.77-3.17.86-5.64.61-7.4-.77-.76-.04-1.53.67-2.32,2.11-1.33.55-2.73,1.1-4.19,1.67-.85.21-6.53.41-7.17-.18l-1.54,1.3c-2.78-.34-5.39-.53-7.82-.58-.2.64-.44.63-.72,0-4.6,1.08-3.45-3.07-2.34-2.72,1.04.33-.43,2.73-1.26-.16,2.54-1.31,5.45-1.84,7.91-3.6v4.32c1.89.77,1.28-1.43,1.82-1.48,1.67-.15,2.72,1.75,4.29,1.52.37-.05.04-2.48,3.26-.77l-.73-1.41c1.32.34,2.59-1.2,3.39-1.3,1.36-.17,2.17,1.61,4.58,1,1.06-.27,5.24-4.08,6.18-4.62.47-.27,3.64-1.43,4.24-1.57.67-.16-.19,1.77,1.04,1.42.49-3.38,1.75-1.46,3.18-1.44.28,0,2.06-3.31,4.75-2.15Z"/>
  <path class="st2" d="M180.24,229.53c.19-1.48.98-1.56,2.26-1.44-.06-3.08,1.85-3.29,4.4-3.06-1.4-4.39,5.02-6.28,7.6-3.43,2.47-1.08,8.19-.9,5.91,2.86l-.02,1.47c.05.21-.04.48,0,.72l-.49,3.92c-2.69-.14-5.39-.37-8.12-.69-.29,3.35-2.92,6.54-5.65,3.24,1.13,1.55,1.08,2.75-.15,3.61.09.69-.06,1.46,0,2.16l-1.23,1.03c1.58,5.02,3.19,10.2,4.83,15.53.02,1.99-.96,5.86-.77,6.75.18.8,1.89-.14,1.49,1.53-.18.74-1.17.06-1.3.7-.07.35-.11,6.73-.01,7.07.47,1.65,3.29,1.82.6,3.75l2.15,2.52h-2.88c1.79,2.63-.68,1.98-.77,2.61-.08.53-.56,5.27-.54,5.56.09.92,1.27,1.65,1.13,2.85-.22,1.97-2.72,3.58-2.72,3.82,0,.8.89,1.83.78,2.75-.05.47-1.53.39-1.53.83-.01.66,1.08,1.87.69,2.37-.21.28-1.38.3-1.75.83-1.18,1.66,1.31.12-2.32,3.05-.66.53-.51,2.05-.95,2.88-.29.56-1.35.56-1.42,1.02-.27,1.65,2.28,6.64,2.2,7.07-.15.77-2.08.99-2.16,1.11-.17.25,2.16,4.12.72,5.75,1.92-1.48,1.57.75,2.87,2.16-2.77.19-7.1.46-9.36-.72,1.19-.06,2.41.05,3.6,0-.06-3.07-1.08-6.56.07-9.52,1.56-4.04.69-5.88,1.57-10.07.25-1.2,1.65-2.38,1.82-3.98.11-1.04-.77-2.63-.53-2.97.21-.3,1.78-.38,2.41-1.51.55-.99.63-11.05,1.14-11.55.29-.29,2.58.28,2.87,0,.19-.19.62-4.54.71-5.41.21-2.25.36-7.74-.16-9.9s-3.07-5.42-3.23-6.72c-.06-.47.5-4.31.65-4.48.3-.35,1.88-.15,2.43-.79,1.85-2.15-6.77-10.77-5.44-14.09l-1.44.36c1.47-3.35-.11-1.33-2.16-3.25,2.79-.51-.27-3.24,0-5.4l1.45.36c-1.39-2.36.62-2.96.71-3.23Z"/>
  <path class="st41" d="M164.4,246.09c1.27-.82,2.17.07,2.7,2.67,4.72-1.46,9.83.55,4.54,5-.78,4.26.05,4.21,2.5-.16l2.24-.37c-.64-1.35-1.02-2.39.25-3.54,1.38,2.16,4.97,1.24,5.75,3.25.5,1.28-1.37,1.09-1.45,1.42-.54,2.14,1.46,1.69,1.47,2.22.03.83-.83,1.61-.46,3.24.3,1.35,1.92,1.12,1.97,2.45.07,2.18-1.23,3.25-1.36,4.49-.33,3.13.94,5.81,1.64,8.51.14.53-.55,1.44-.34,1.77.07.11.79-.39,1.07-.34,1.79.32,1.5,2.44-.36,1.42.62,3.95-1.05,1.45-1.78,2.46-1.32,1.83-.98,4.97-1.75,6.19-1.4,2.2-2.85.92-2.94,1.07-.18.29.45,1.19.32,1.78-1.05,5.07.25,3.93.33,7.2.05,2.01-2.36,7.37-2.1,10.08.13,1.37,1.71,1.8,1.44,3.25l-2.87-.72v4.32s-1.43-.73-1.43-.73l-2.9,8.64c-3.62-.14-5.18-.26-8.64-1.44,1.11-2.08,1.35-5.36,2.2-7.34,1.26-2.96,1.99-1.6,2.84-7.06-.6-1.52-.84-3.2-.72-5.04.05-.17.01-.5,0-.72l1.02-1.31c-.33-1.76.7-5.54,2.58-5.89.87-1.04,2.22-.79,4.06.76-1.23-4.39.78-11.11,3.35-14.38-.78-2.04.22-3.2,2.14-4,.01-3.6-1.08-6.84-3.27-9.72-.15,3.62-3.17,9.82-7,9.33-1.33.59-1.53-.98-.61-4.71-1.86-1.72-1.72-3.98-.01-5.29-1.71-1.44-2.35-3.01-1.92-4.72l-2.5-3.27c-2.91-5.15.8-1.87,1.35-4.78.19-1.03-1.15-2.21-1.35-3.14-.18-.84.2-2.09,0-2.88Z"/>
  <path class="st60" d="M145.68,242.49c.61,1.37,4.96,3.66,5.05,3.98.2.77-4.45,5.72,2.15,1.78-1.88,4.37,2.15,2.92,2.8,4.77,1.34,3.81-2.81,7.09,4.41,6.03-.92,2.11.54,3.29.7,5.39.21,2.7-1.7,5.56-1.45,7.09.05.3,2.96,1.63,2.18,3.35-.36.39-3.96-2.21-2.89,1.08.16.48,1.62.64,1.85,1.03.4.71-.47,1.7-.42,2.45.02.31,2.57,1.24,2.18,2.97-.8,3.56-4.81-2.38-6.48-.33-1.9-12.11-5.76-28.16-10.08-39.6Z"/>
  <path class="st67" d="M68.64,45.93l.11,1.55c-1.65,3.5-4.07,6.3-6.59,8.53-.19.46-.14.61-.72.72.55-4.01-7.35-10.54-10.78-9.01-4.09,1.84-1.02,7.89-1.46,8.28-.87.78-10.63-1.32-4.52,6.84l-2.67,4.67c-3.43-10.27,1.53-24.4,13.39-25.83,5.62-.68,9.49.04,13.24,4.24Z"/>
  <path class="st64" d="M133.44,68.97c2.87-2.62,5.22,1,6.19,3.85l1.73,1.19c2.88,1.65,5.77,3.38,8.64,5.04,1.51,1.92,3.3,4.54,4.32,6.48-.55,1.26,0,.99,0,1.44l.34,1.3c2.6,2.21,3.79,4.46-.14,6.07l1.15,2.99c5.61,3.78-.03,9.4-4.95,8.36-1.57,1.15-3.15-.45-2.16-2.16-3.46,1.89-5.19-8.35-1.19-8.02,3.07,2.71,4.3-.09,1.16-2.06-.24-1.75-1.15-3.63-2.73-5.62.75-2.14,3.79-4.62,2.09-2.09-1.48,2.21-5.71-3.73-5-6.73-2.28-.57-4.29-1.57-6-2.99l-1.56.33c-2.07-2.04-3.76-2.8-6.21-3.78-.66,1.39-1.5,1.4-2.16,0-.07.66-.32.62-.72,0-1.31-1.88-2.88-3.2-4.7-3.99l-.34-1.05c4.06.43,8.19.9,12.24,1.44Z"/>
  <path class="st8" d="M259.44,236.73c-2.54-2.23-.83,2.86-2.52,2.87-.32,0-1.32-1.74-1.79-1.43-.28,2.18-3.74,7.28-3.66,8.96.02.36,1.14.44,1.23.59,1.73,2.93-1.28,1.43-2.68,1.65-3.95.62-8.61,3.76-12.44,2.97-1.33-.27-1.98-1.36-3.18-1.75-2.17-.7-1.88-.72-3.2-1.39-.36-.18-1.2.55-1.25.48-.36-.45-.57-4.96-4.33-2.88.9-1.61,1.74-4.98,4.66-5.07.22,0,.91,2.3,3.56,2.21.19,0,.96-2.6,3.29-1.45.45.84-3.14.93-1.44,2.15.22.16,1.6-.33,2.03.14.35.39-.06,1.64.22,1.91.4.38,1.77-.12,2.58.33.32.17,1.14,2.06,2.36,1.95.22-2.55-2.6-.53-.36-3.6l2.88,2.86-.32-5.66c4.46.09,1.8-3.32,2.12-3.68,1.4-1.58,1.16,2.11,2.51,1.43,2.86-1.43.93-4.8,1.08-5.03.53-.77,4.25-.07,5.31-.76.67-.44,2.45-3.17,3.34-4.28.05,2.15-.07,4.33,0,6.48Z"/>
  <path class="st12" d="M91.68,64.65c-1.28,2.28-3.76,3.84-7.44,4.7.39,4.64-.46,6.49-4.89,8.01l.59,2.48c1.24,2.5,1.33,3.86.94,6.41,2.23.04,1.89,2.08,1.15,3.78,2.33,1.21,5.02,4.48,3.89,7.02-1.69.21-2.49-1.82-4.06-1.99-1.27-.13-2.83,1.1-4.31,1.25-1.69.17-3.49-1.01-5.31.02-1.93.71-2.87-1.56-1.44-2.88,2.83-3.28-1.09-6.28-.35-9.46.08-.35,2.5-3.9,2.71-4.02.99-.59,3.11.15,3.4-1.64.26-1.57-.99-2-.72-4.32.89-1.52,1.85-2.96,2.88-4.32.59-.16,1.57.16,2.16,0,.08-1.72.56-2.92,1.44-3.6,3.09-.63,6.22-1.15,9.36-1.44Z"/>
  <path class="st89" d="M143.52,47.37c2.08-.62,3.36,4.03,1.44,5.04-7.08,2.76-8.07,11.73,0,6.48-.05,3.74,2.61,3.88,5.77,3.61-1.85,2.09-4.2,2.42-2.16,5.75.32.22.31.46,0,.72-4.81-1.72-11.53-.94-7.2,5.04-.24-.14-1.25.29-1.97-.16-1.77-1.12-1.35-4.27-5.95-4.88,4.12-4,.23-4.95-.06-8.27-.54-6.05,4.61-12,10.14-13.33Z"/>
  <path class="st79" d="M282.48,312.33l3.6,2.16c1.33-3.21-.97-5.12-.36-7.92,2.78,2.3,5.59.8,4.69,5.75,4.62-1.91,2.76,1.38,3.79,2.71.29.38,1.17.09,1.24.17.92.81,2.25,1.04,4.01.68.62,1.86,1.84,3.57,3.67,5.13l-1.19,1.39c-.16.02-.8.69-1.74.75-7.25.46-15.2-.52-22.01-2.92-.88-1.22,5.51-5.29,4.32-7.91Z"/>
  <path class="st28" d="M143.52,47.37c15.72-3.78,23.36,13.88,14.41,25.2,1.04-2.22-3.6-5.75-3.6-6.12,0-.4,3.47-1.97,1.79-5.4-.92-1.88-4.39-1.87-5.1-2.83-.33-.45,1.88-8.9-6.06-5.8l-1.44-5.04Z"/>
  <path class="st25" d="M231.36,112.89c1.38,2.56-3.38,7.64-5.88,7.19-1.87-1.57-3.14-1.43-5.3-.88-.53,1.28-3.11,2.72-4.66,3.05,2.3,2.82-1.82,4.41-3.26,1.26-1.25,3.18-3.5,3.06-6.75-.35-3.63,1.88-7.01,2.11-10.13.69.12,1.51-1.06,1.16-2.18.56-1.22,1.27-3.17,1.56-5.85.85-1.4,1.49-3.25,2.44-5.53,2.85-1.49,1.8-2.74,2.49-3.74,2.06.57-2.16,1.04-4.28,1.44-6.48,2.07-2.27,4.23-3.29,6.48-3.05,1.84-3.71,5.24-4.12,10.22-1.24l4.85-1.97c.75,1.26,1.41,1.83,1.98,1.71-.19-2.95,1.33-3.6,4.55-1.93.21-.07.5.07.72,0,2.88.38,6.45.69,9.36-.72,2.85-.68,9.2-1.42,10.96-2.18,1.06-.46,1.15-3.25,2.72-1.42Z"/>
  <path class="st80" d="M155.04,166.89c-1.11,3.28,2.29,4.34,2.75,5.53.33.84-.03,2.07.13,2.39-2.33.55-1.56,3.65-2.1,3.97-.9.54-2.46.09-3.3,1.07-.78.89-.53,3.04-2.12,4.35-1.97,1.62-7.62,2.07-10.47,2.86.7-2.11,5.38-1.03,3.96-3.6l-1.8,1.44c1.06-2.82-2.21-2.01-2.16-2.51.22-2.15,1.23-4.75,3.58-3.25-.02-2.65-2.22-4.03,1.45-3.6-2.22-6.71,2.82-2.99,3.59-3.6.19-.15-.15-1.16,0-1.44.51-.93,5.02-2.6,6.48-3.6Z"/>
  <path class="st9" d="M39.84,92.01c1.57,1.45,4.14,1.81,3.61,4.32.22.25,3.69-4.1,3.61-.36,0,.44-1.48.35-1.5.72-.06,1.15,1.36,2.22,1.31,2.88s-2.68,2.34-3.15,3.94c-.56,1.89-.57,7.94-1.22,10.35-.29,1.09-1.75,1.63-1.89,2.36-.13.68,2.35,3.53,1.38,5.3l2.87-.36-3.59,1.81c.43,1.6,2.79.79,2.16,2.87h-2.17c1.68,3.12-1.01,1.73-2.16,4.32-.02-.08-1.14-.46-1.44-.72.53-1.31,2.18-3.02,2.19-3.96,0-.37-1.19-.22-1.42-.89-.12-.33-.79-3.9-.78-4.11.02-.47,1.2-.36,1.35-.76.25-.69-1.76-4.58-.62-6.13l-2.87,4.32c.96-1.66-.18-5.98.04-6.75.37-1.26,2.64-1.05,3.26-1.86.32-.42-.37-2.74,0-4.23.41-1.64,5.96-5.89.29-5.88.35-.78,1.17-3.1.72-3.59-1.47-1.62-1.28,3.59-2.88,0,.95-1.45,2.07-2.47,2.88-3.6Z"/>
  <path class="st39" d="M263.04,102.81c2.15-.35,2.52,2.66,3.38,2.89,1.6.43,4.64.47,4.89-1.45,2.46,5.74,6.57,2.64,10.68,3.61.63.15.29,2.17,2.26,1.4.83-.33.87-2.24,2.5-2.55,4.4-.86,2.09,1.96,2.27,2.89.27,1.41,3.51.86,4.25,2.22.25.7-1.68,0-1.44.71.16.45,1.95,4.19,2.16,4.31,2.59,1.52,7.53-.02,8.94,1.01,1.24.9-.78,3.53,1.86,2.96l.35-4.31c1.44,2.26,4.99,10.88,5.42,4.31,3.87,2.11-.63,3.01-.44,4.66.09.78,1.54,1.97,1.15,3.25-1.28,3.13-3.35-1.93-3.6-3.6-2.14,1.79-9.95-2.05-7.92-5.04-.22-.34.43-1.47-.37-1.45-1.46.03-1.66,1.79-3.23,1.45l.72-2.15c-5.63,1.3-3.46.1-5.26-1.94-.58-.65-1.61-.67-2.28-1.71-.82-1.27-.38-4.58-2.89-.68-.65-1.98-4.88-1.73-5.32-2.23-.08-.09.46-1.02.22-1.37-2.45-3.54-12.55,1.34-14.01-3.6-.45-.37-2.11,2.12-2.5,2.15-1.94.14.9-3.89-2.18-4.34-3.47-.51-3.03,2.28-4.31,2.91-.62-1.93-1.39-1.53-3.24-1.44,2.25-1.36,5.36-2.33,7.92-2.88Z"/>
  <path class="st35" d="M107.52,65.37c-1.09,2.2-2.98,1.85-4.32,0l-.33.96c-5.93.47-9.99.96-11.68,7.72-1.1.92-2.19.8-3.5.65.91,3.72.26,5.98-1.94,6.76,1.5,2.75-.55,4.72-3.09,3.4l-1.05,1.38c-.2.63-.44.62-.72,0-.6-2.25-3.82-8.07-2.73-9.94.46-.78,3.65-1.2,4.19-2.1.89-1.49.07-5.93.82-6.57,2.82.31,6.39-2.62,8.53-2.99,2.94-.51,8.58-.05,11.89-.01,1.22.01,3.2-.46,3.95.73Z"/>
  <path class="st46" d="M180.24,228.81c.79-2.92,1.78-4.64,1.06-7.93.52-1.22,4.45.12,4.62-.05.66-.66.45-3.38.96-4.1.31-.43,3.97-1.59,4.62-2.99,2.95,1.8,3.53,5.04,8.18,3.55l-1.44,2.15,3.59-1.43-.71,5.76c2.28-1.44,2.22.31,2.88.72-1.38-.13-3.12-.18-3.6,1.44-.03-.14-1.3-.47-1.28-1.06.03-.7,1.74-1.23,1.27-2.54-.26-.25-1.61.68-2.42.53-1.9-.37-1-2.63-3.7,1.62-1.6-1.09-.23-3-2.08-2.83-6.88.62-2.8,2.52-4.05,5.01-.1.19-3.45-.59-4.32,0l.73,2.87h-4.32c.07-.21-.06-.49,0-.72Z"/>
  <path class="st31" d="M317.04,311.61c-3.7,10.37-4.87,9.73-15.12,10.8.09-2.52-3.42-2.72-3.6-2.89-.31-.29,1.05-2.43.72-2.87-.08-.11-1.39.78-2.69.25-1.2-.49-.78-1.54-.91-1.69.69-.08,1.5.11,2.16,0,3.1-.53,3.7.73,5.3.56,1.22-.13,2.15-1.65,3.16-1.88,1.38-.32,2.64.66,3.36.5.91-.21,1.54-3.02,3.29-2.78l-2.15-.72c.86-2.77,4.01.84,6.48.73Z"/>
  <path class="st71" d="M107.52,65.37c2.1.12,3.53.55,5.04.72l2.7,1.12c4.96.18,8.62,1.97,10.98,5.36.23.03.48,0,.72,0,1.54.05,1.51,1.09,0,1.44-2.74,3.65-4.96,4.21-8.97,1.95-6.82.96-10.15-.83-9.98-5.36-5.56,1.48-6.74-.38-4.81-5.22,1.18-.03,3.21-.06,4.32,0Z"/>
  <path class="st23" d="M201.84,241.05c-.55-1.79-2.28-4.12-3.96-5.04l-.36,2.87-3.23-2.86c-1.41.73-.4,1.75-.58,2.4-.96,3.64-3.02-1.03-2.68-3.13l-2.15,2.16c-.8.04-1.4,1.05-2.88-.72-.15-1.14-1.42-3.33-1.42-3.97,0-.83,1.44-2.5,1.78-2.5,1.23.02.43,3.48,2.15,2.86,2.06-.74,1.59-3.91,1.89-4.23,1.15-1.21,7.29.2,8.91.64l1.08-2.89c.66,4.38,0,9.85,1.44,14.4Z"/>
  <path class="st55" d="M180.96,115.77c4.93-1.56,10.42,2.97,14.39-1.44l-.71,3.6c4.66,1.09,5.83-1.78,9.36-3.6h2.16c-.97,1.75-.72,2.83,1.44,2.88-1.05.35-4.3.24-3.26,1.45.56.65,2.02.33,1.81,1.42-2.11.53-6.94,1.28-5.03-1.43-2.43-.49-2.18,1.92-4.87,2-2.19.07-3.18-1.82-5.21-.57l-.36-2.15c-1.28.42-3.83,4.07-4.09,4.21-.92.51-2.09-.71-2.66-.5-.25.09-1.5,3.12-4.42,2.04.44-2.42,1.39-5.55,1.44-7.92Z"/>
  <path class="st61" d="M49.92,79.77c1.04.2,2.99-.6,3.62.49,1.76,3.03-1.55,2.9-1.95,4.02-1.67,4.6,1.65,3.15,1.92,3.42.42.43-1.03,4.1.19,4.91.9.59,2.51-.74,1.98,1.56l-1.44.36c3.05.18-.56,5.57-1.68,7.32-.55.86-2.63.73-1.91,3.12l2.15-.72c-.28,1.58.82,3.31.77,4.72-.02.59-.88,4.49-1.1,5.74-.16.94-1.47,1.22-1.1,2.5l2.87.35c-4.66,2.67-2.41,3.21-2.98,5.63-.23.98-1.73,1.51-1.83,2.3-.13,1.01,2.7,5.52-.94,7.56-.99-.46-.49-1.33,0-2.16-.05-1.79.65-3.12.66-4.02,0-.35-1.41-.27-1.39-.63.06-.8,2.74-5.62,2.16-6.15-.24-.22-1.92.22-2.17,0s2.49-5.59-2.87-2.16c.61-3.63,3.24-5.46-.73-7.91h2.87c-3.72-8.77,1.34-5.39,2.88-6.49,1.69-1.21-2.09-1.44-1.43-2.14,1.64-1.74,4.46-.12,4.31-2.89-3.56.97-4.68-1.25-4.32-4.62.14-1.29,1.52-2.6,1.33-3.55-.14-.71-3.21-3.47-2.77-4.06.19-.26,3.04-.15,2.87-1.44l-2.87-2.17c1.07-1.21,1.89-1.87,2.88-2.88Z"/>
  <path class="st76" d="M193.2,124.41c3.34,1.94-.63,3.5-3.45,1.83-1.09,2.58-2.77,3.71-5.02,3.4l-3.44,2.05c.59,1.78.08,2.93-1.89,3.22,1.51,1.76,1.77,3.99.8,6.7,2.59,4.11,3.21,8.97-2.84,8,.4-3.36,1.11-1.72,1.43-2.17,1.08-1.55-1.45-1.37-1.43-1.88.02-.46,1.28-2.26-.36-2.42-.28-.03-2.07,3.07-3.24-.01,1.96-4.12,3.16-8.55,4.32-12.96,1.58-.46,1.88-2.44,2.93-3.21,1.36-1,2.83-.35,3.38-.64.29-.15,1.28-2.28,2.82-2.47,1.23-.16,3.96,1.98,5.99.56Z"/>
  <path class="st96" d="M68.64,62.49c.62-3.2-3.76-6.34-6.48-6.48.32-.75-.02-1.95.79-3.15.63-.93,1.97-1.27,2.41-1.92,1.16-1.72,1-4.09,3.28-5,4.05,4.54,3.76,11.91,0,16.56Z"/>
  <path class="st8" d="M210.48,247.53c1.02-.9,5.58-.87,5.81-1.06.73-.62,1.34-5.41,3.55-1.83l-2.16,2.17,4.31-.72-1.44-2.14c3.68.43,1.47-.99,1.45-3.61,1.47.51,2.19,2.6,2.22,3.99,0,.2-2.08,3.08-2.23,3.21-.58.53-1.56.03-1.98.26-.21.11-.38,1.43-1.57,1.59-.99.14-1.63-1.2-2.47-1.06-1.27.21-2.37,3.9-5.5,2.09-.05-.95.08-1.93,0-2.88Z"/>
  <path class="st85" d="M121.2,67.53c3.56,1.15,4.35.83,5.04,5.04-3.95-.53-2.68-2.06-3.76-2.71-1.69-1.02-8.17-.58-9.92-3.77,3.35.37,5.25.35,8.64,1.44Z"/>
  <path class="st42" d="M56.4,55.29l-1.44.72c-.58-1.14-2.52-2.03-2.16-3.6,1.87-.48,2.63,2.17,3.6,2.88Z"/>
  <path class="st20" d="M82.32,66.09c-.68,1.4.55,3.05-1.44,3.6l-.72-2.88c.57-.14,1.12-.51,2.16-.72Z"/>
  <path class="st24" d="M152.16,79.77c-1.2,3.03,2.56,3.77,2.88,4.69s-.65.91-.72,1.07c-2.3-2.15-3.31-3.4-4.32-6.48.47.27,1.44.27,2.16.72Z"/>
  <path class="st98" d="M148.56,68.25l4.32,2.87c-1.72.4-3.27-1.77-4.32-2.15v-.72Z"/>
  <path class="st69" d="M234.24,165.45c-.19-3.64,5.52-2.41,7.62-.39,1.36-.92,2.79-1.25,4.28-.98,3.04-4.7,5.58-5.32,7.63-1.88,1.11-1.18,2.63-1.33,4.14-1.24,2.29-5.13,7.75-.11,8.72,3.54,2.5,1.44,5.16,2.41,7.96,2.93.68-2.37,4.28-3.31,6.49-2.77-5.81-4.01,6.03-9.06,4.31-.82,4.09,2.43,5.55,3.71,5.77,8.65,3.41-2.81,7.25-2.75,8.44,2.05,3.23-1.66,4.4-1.13,5.21,2.43.26.93.74,1.7,1.42,2.32-.16,4.5-.02,8.99.43,13.46,3.39.92,2.51,4.44.31,5.81-.48.03-1.38.92-2.16.72l-1.07-2.16-1.1,2.87c-1.5,1.53-2.81-12.19-3.24-12.95-.16-.29-4.04-3.26-5.04-4.32-2.01-2.12-3.1-6.42-7.11-5.6-2.49.51-2.37,4.9-6.56-1.59-1.99,1.22-.82,4.4-1.46,5.7-1.86,3.73-4.06-1.72-5.13-2.05-2.37-.72-9.13,5.29-8.17-2.94-2.53-.51-.85,3.41-3.59,2.88-.3-3.83-4.59-8.98-8.68-7.6s-1.12,5.4-1.78,6.92c-1.41,3.24-4.78-.04-5.61.1-2.29.39-3.19.3-5.12.57-1.08.15-1.92,1.47-2.79,1.34-.26-.04-4.63-1.58-4.84-1.74-.84-.62-1.15-2.33-2.11-2.79-.24-.12-5.08-.47-5.34-.42-.51.08-.48,1.47-.84,1.51-1.65.21-2.37-1.46-3.57-1.51-.37-.01-.23,1.07-.92,1.41-3.53,1.74-6.07,4.02-10.19,5.42-1.3.44-2.54,1.1-2.71,1.14-1.48.34-3.12-.78-4.11-.58-.88.18-1.43,1.65-2.32,1.84-3.3.69-6.86-3.66-7.49,4.48l-1.43-3.6c-.31-2.35,3.44-7.46,5.76-6.48-2.08-3.27-.19-4.3,5.69-3.1,4.08-2.6,8.73-3.79,13.97-3.57,2.32-3.41,7.09-5.92,11.69-5.21,1.12-1.38,3.1-1.83,4.66-1.8Z"/>
  <path class="st6" d="M292.56,223.77c-4.48-4.89,4.25-7.73,7.37-2.85l1.27-.03c.13.12.59-.12.72,0,.71,1.55,1.38,3.16.75,4.78l1.09.24c1.17,3.35,2.64,9.54,1.4,12.99l2.23,2.25c3.81.9,5.16,4.44,1.69,6.79.72.02,2.07,2.15,2.2,2.57.69,2.22-3.73,11.4-5.6,12.88-.07.48,3.49,2.4,4.11,2.69.25.44.07,9.54-.02,10.04-.53,2.94-2.72,5.66-4.6,7.88,1.11,7.27-5.63,10.19-9.34,4-3.51.96-2.69-2.53-.58-4.29l.23-2.18c-1.82-1.53-3.74-4.49-2.94-6.66.4-2.37-.12-3.16-1.44-5.04-.63-.2-.62-.44,0-.72l.38-1.53c3.12-.9,1.36-4.13-1.4-5.02.6-2.77.74-4.96-.91-7.46,1.07-3.21,1.04-6.01.44-9.37.21-1.09.72-2.07,1.53-2.82-3.9,1.18-4.49-4.4-1.2-4.76.23-2.61.64-5.19,1.23-7.74-4.12.19-2.4-6.23,1.36-6.66Z"/>
  <path class="st76" d="M179.52,153.93c.82-2.13,5.95,2.1,6.25,2.92-1.37,3.77-2.06,7.69-2.08,11.75,2.72-.61,4.38.84,2.99,3.49,2.22.34,4.35.99,6.42,1.93,3.21-2.6,7.15-1.42,10.75-.1-1.25-1.8-.29-3.53,2.86-5.19,1.65-3.07,3.38-4.16,5.21-3.28l1.86-1.87c2.53,1.01,5.12,1.87,7.77,2.6l4.05-4.17c1.52-1.59,4.32-3.2,4.32-.15,2.08-1.09,7,1.14,4.32,3.6-.2.12-.49,1.09-1.05,1.48-1.1.77-2.86-.47-2.56,2.84-1.43-1.57-4.73-1.27-6.67-.69-.69.21-.57,1.17-1.02,1.41-.94.5-2.52.44-2.96.91-.33.35.18,1.57-.6,2-2.97,1.61-6.65.07-10.48,1.5-1.5.56-3.82,1.72-6.06,2.07-1.08.17-2.48-.66-3.21-.35-1.18.5-1.06,2.09-1.39,2.51-.76,1.05-1.79.98-3.09-.21.46,3.12-2.85,5.12-4.99,2.47-.29,1.59-1.44,2.52-3.44,2.79h-.72l-1.1.71c-1.31-3.69-1.77-.08-2.25.04-1.98.47-5.12-.23-4.56-2.9.62-.64,3.04,2.87,4.31-.37.55-1.4-2.32-1.49-2.87-2.87-.2-.5,2.25-.64,2.16-1.79-2.7,1.79-5.74-2.76-6.28-2.9-.84-.22-2.89.22-3.09.02s.22-2.25,0-3.12c-.15-.58-1.44-.5-1.47-.87-.16-1.55,1.24-2.26,1.36-2.99.13-.84-2.51-3.55-.59-5.98,4.71,4.28,6.71-3.59,7.91-7.2Z"/>
  <path class="st49" d="M288.24,119.37c.72-.84,1.43-.52,2.14.95,3.7,1.17,6.71,2.85,9.03,5.05-1.02.8,5.49,5.66,5.92,5.54,2.17-2.52,3.99-.83,4.19,2.08,3.25,3,5.98,6.84,8.21,11.53l2.18,2.2c5.05,4.46,7.13,12.95,6.97,19.59l.95,2.01c1.19.48.74,2.72-.72,2.16-1.04,2.52-6.08,7.27-6.39,8.44-.41,1.56.8,2.9.65,4.05-.05.43-1.03.44-1.21.74-.44.75-.18,1.79-.26,1.89-.18.23-2.67-1.67-2.87-1.44,1.67,3.56-.79.86-1.8,3.6l-1.79-2.15c.35,4.87-2.7,2.67-2.88,2.88-.35.41.65,2.26.51,3.11-.25,1.49-2.51,2.95-.51,5.52-2.1-.31-2.48.08-2.17,2.17-.65.25-1.33-.73-1.44-.72,2.12-5.69-.52-3.66-1.31-4.41-1.21-1.17-.85-14.47-.85-17.19-1-1.41-1-2.13,0-2.16,1.16-.44,1.93.22,2.3,1.97,1.27-.46,2.6-.41,4,.15,1.14-2.95,3.89-3.71,8.25-2.3l-.4-2.79c-4.56-1.87-1.23-5.46,2.22-5.22-1.23-2.73-1.4-4.8-.53-6.22-3.11-2.64-4.95-10.39-4.32-14.4l-1.04.03c-3.09-4.02-6.65-7.47-10.68-10.36-2.58-2.92-5.62-4.98-9.13-6.2l-8.39-5.9-.28-2.05c-.07-1.15.41-1.87,1.44-2.16Z"/>
  <path class="st75" d="M301.92,220.89c1.71,1.52,1.45,3.55,3.6,3.6.2-2.96,4.75-2.1,3.6.72-.42,1.36-.83,2.85-1.23,4.47.96,1.04,2.89,5.18,2.63,6.39-1.05,5.01-3.14,2.41-.7,1.79,4.2-1.07,5.2,8.09,2.66,11.04,2.53.29,2.53,2.54,1.83,4.54,1.64,1.97,1.37,3.87-1.05,4.93,1.22,4.58,1.34,8.85.36,12.82l-1.4.6c5.33,3.76,3.89,7.73-.95,10.3.43,1.02-.38,1.8-2.42,2.34-.2,1.13-.35,2.27-.46,3.42,1.42.36,1.39,1.01,0,1.44,1.52,1.72-.28,1.99-1.89.92.48,1.9-.02,3.41-1.57,4.66,2.46,2.72-2.84,4.89-3.59,4.77-2.18-.35-2.74-.79-4.47-2.43-.45.48-1.22.98-1.64.65-2-1.59-3.7-13.62-1.72-15.8-2.57-1.57-3.81-4.98-3.88-7.85-.04-1.52-.08-4.56,1.48-4.35,1.37,1.27,2.24,3.25,1.44,5.04.56,1.65,1.54,3.19,1.45,5.04l3.59-2.88c.78,3.65-2.9,5.05-1.44,8.64-1.27-1.11-2.91.73-2.15,1.44.13.13,2.55-1.23,3.59-.73-.31,3.19-.13,2.89,2.67,3.28,5.26.74,2.85-3.68,3.49-5.47.56-1.55,3.96-5.4,4.5-7.71.63-2.66-1.16-7.36.85-10.25-1.15,1.57-5.07-2.22-5.05-2.53.1-1.74,2.65-2.63,2.73-3.59.06-.81-1.71-1.96-1.27-3.24,3.03,3.04,4.75-6.34,4.24-7.09-.38-.56-2.59-.19-2.11-2.62.09-.46,2.82-.75,1.88-2.89-.83-1.88-2.14-1.27-3.05-2.04-3.01-2.52-1.82-10.69-3.83-13.81l1.43-1.06c-5-.38-1.7-3.02-2.15-6.49Z"/>
  <path class="st7" d="M329.28,176.97c-1.62.6-.66,4.53-.88,5.89-.49,2.9-1.78,5.4-2.72,7.79-.48,2.14-.58,4.31,0,6.48,0,.48-.01.96,0,1.44-3.75.78-.87-2.49-2.17-4.32-2.56.63-.38,3.26-1.02,4.32-.37.62-1.94.97-2.6,1.77-1.6,1.94-1.87,6.95-5.01,8.67l2.17.36c.49.35-2.72,5.14-2.78,5.52-.19,1.19,2.61,2.98,2.03,4.85-.1.33-4.13,2.23-4.99,4.42-.54,1.37,1.04.71,1.65,1.93,1.37,2.75-.7,3.18,4.8,2.72-.05,3.49-3.68,1.25-5.76,1.44,1.57,3.33,3.92-.43,2.16,4.31l3.6-1.43c-3.23,2.75,1.21,2.23,1.2,4.67,0,.68-1.94,2.48-1.91,2.89.03.35,5.28,3.42,1.43,5.02,4.1,4.08-2.84,3.29-.72,6.85.2,1.15-.07,1.62-1.18,1.34-3.65-.91-2.22-8.24-1.65-11.08-1.99-1.1-3-3.31-2.22-5.5-1.88-1.76-4.05-4.35-3.07-7.06-1.52-.8-1.21-3.6-.53-5.06-.64-2.1.21-1.29.12-1.35-2.68-1.83-1.51-8.43,1.32-9.81,1.31-2.95.59-6.53-.39-9.51.61-2.37,1.72-3.78,3.99-3.09,1.13-1.97-.81-2.31-.71-4.32,1.47,2.39,3.08,2.98,4.25.13s-1.19-4.23,2.23-3.73c-.67-1.03-.18-3.7.3-4.73,1.06-2.23,1.76-4.24,2.73-6.29.4-.85,3.21-3.35,3.78-4.86.38-1.01-.38-1.93,0-2.81.3-.71,1.52-1.22,1.81-1.83.65-1.37-2.08-.83-1.43-2.51.37-.89.58-.76.72-2.16l-.91-1.52c.02-4.38-.71-8.77-2.21-13.17l.96-1.14c.62-.69.76-2.27,2.18-1.1.96.79,4.06,9.54,4.18,11.03.18,2.23-2.1,2.78-2.61,4.98-.66,2.86.15,6.58-.15,9.57Z"/>
  <path class="st36" d="M120.48,170.49c-.59-.98-1.65-1.61-1.43-2.88,2.32-.34,3.73,2.25,3.95,2.16,1.03-.43,1.66-2.65,3.43-2.7,2.53-.07,6.73,1.8,6.92,4.6l-4.17,1.81c1.41,3.14-1.62,6.02,2.82,5.29-2.07,1.33-5.56,5.02-6.47,7.21s4.66-1.39,4.31,2.5h-4.32c.42,1.88-.06,2.07-1.44.73-1.29,1.61-3.06,2.54-5.31,2.8.68,1.56-.5,2.02-1.89,1.52.73.79.73,1.27,0,1.44,2.23,1.05,2.47,2.01.72,2.88,1.97.99,1.58,3.84-.69,4.41,1.14,3.67-1.65,5.03-4.31,4.83,1.18.44,2.46,1.06,2.46,2.53-.8,1.81-.45,4.32,1.82,4.8.22.07.5-.07.72,0,.47,2.17-.97,3.44-1.43,4.68-.05.12.82.15,1.43,1.8h-.72c-3.06,1.96-8.57-2.47-3.62-5.02-3.48-2.9-8.92-7.63-5.92-12.38,3.41.86,2.78-3.26,1.46-5.63-.69-2.26,1.06-4.14,2.78-5.52,1.6-1.29,4.55-3.12,6.36-3.21,2.45-.83,4.61-4.72,1.01-5.23-2.78-3.01,0-5.02,3.35-5.28.49-.32,2.35-2.96.12-2.19-4.04,1.4-6.69.95-3.38-3.06-.34-1.07.14-2.03,1.44-2.88Z"/>
  <path class="st52" d="M290.4,223.77c.69-2.09,1.36-1.93,2.16,0-.83,1.67-2.86,3.07-2.89,5.39l2.88-.35c.7,3.8-2.16,7.01-.71,10.79h-2.89c-1.22,4.35,3.77.05,4.32,2.54.24,1.09-1.54,1.77-1.99,3.04-1.12,3.2,0,7-.88,10.27l2.86-.36c-2.2,2.04-1.46,4.22-2.15,6.84,2.15,1.05,2.4-.51,4.32-.71-1.03,2.96-1.9,4.21,0,7.19-1.11-.32-3.64.73-4.32.73-1.12,1.37-1.42.97-1.44-.72,1.11-4.51-.48-2.42-1.3-3.72-1.08-1.72,1.78-3.85,1.35-5.88-.15-.73-2.69-1.14-2.78-2.26-.04-.46,1.14-1.94,1.44-2.77.23-.61-.06-1.34.02-1.56.16-.43,1.26-.3,1.28-.76.18-3.62-3.94-7.86-2.18-11.83-3.3.53-1.72-1.16-2.16-2.16-.48-1.9,2.02-1.99,2.16-2.18.17-.22-2.04-1.41-.72-5.02.38-1.04,1.94-2.86,1.93-3.24-.02-1.28-3.59-2.38,1.67-3.24Z"/>
  <path class="st70" d="M164.4,245.37l.18-1.81c.73-3.91-.33-6.18-3.17-6.82.47-1.34.19-2.08-.84-2.2-2.65-9.34,3.96-2.58,6.88,1.32,2.79-3.08,3.45.54,3.27,3.28,2.09,1.16,3.58,3.24,4.48,6.23,1.25-.2,1.73,1,1.44,3.6-.03.48-.29-.33,0,.72.53,1.93,1.71,3.63,1.43,5.76-1.44-.72-4.1-1.51-3.97.73.47.55,1.97.54,1.81,1.07-.56,1.81-2.59.3-3.18.35s-.09,1.93-1.49,1.45l-2.54-3.59h2.18c-1.82-3.09.24-2.65.92-3.57,2.96-4.01-4.07-1.2-5.25-1.79-1.51-.76-1.08-2.97-2.16-4-.06-.23.06-.5,0-.72Z"/>
  <path class="st47" d="M164.4,245.37c-.03-.11-1.44-.43-1.44-1.77,0-1.19,2-3.33,1.44-3.99-1.19-1.43-2.03,2.49-2.87,2.16,1.23-3.05-1.48-3.72-1.47-3.97.01-1.16,3.95-5.4-1.14-1.86-2.34-1.89-4.64-4.99-4.6-8.57l-3.59,1.43c.64-2.76.06-5.17,3.42-4.06.11.04.17.88.75,1.08.86.29,3.22,1.35,3.41,1.35.72,0,1.6-1.84,2.15-1.96,1.54-.35,1.36,2,2.24,2.13,2.45.37,6.5-1.99,8.18,1.1-.98,1.96-2.68,1.35-3.86,1.82-1.94.76.55,1.51.93,2,1.48,1.93,2.05,2.01,2.94,3.02.83.95.42,3.02.87,3.49.31.32,1.6-.15,2.08.52.37.52,1.02,4.08,1.37,5.34.64.19.63.44,0,.72-1.9-.41-1.7-2.56-2.4-3.36s-2.49-1.21-3.04-2.42c-.67-1.48.66-3.29.4-3.57-1.27-1.33-1.55,1.46-1.8,1.47-3.25.18-4.91-5.19-7.19-6.52-1.62,1.55.95,1.32,1.04,1.91.07.47-.57,2.69.04,3.14.08.06.93-.71,1.28-.54.15.07,2.16,2.23,2.2,2.39.17.77-.78,2.18-.63,3.51.2,1.78,2.89,2.2-.7,4.01Z"/>
  <path class="st32" d="M130.56,189.93c-.44.18-1.36-.11-2.14.35-1.75,1-4.72,11.43-3.96,14.06-.96,1.69-4.48-2.07-6.13-1.44l.71,4.31c-1.56-.91-2.08-2.43-3.58-.36,3.47,3.05-3.13,3.46,1.43,7.56-.51-.16-1.63.35-2.05-.14-.18-.21-.03-1.11-.4-1.73-.18-.32-1.11-.3-1.13-.74-.03-.68.93-1.55.39-2.43s-2.57-.72-2.48-2.38c.21-3.68,3.26-.53,4.21-1.22,1.31-1.67-.71-3.61-.7-3.97.04-1.05,2.77-.97,2.88-1.08s-.72-.82-.01-2.87c.12-1.52.87-2.13,2.23-1.82l-.06-1.22c-2.63-1.51-1.2-3.38,4.31-5.6.44-.09,1.08-.71,1.44-.72,1.09-.02,4.05.71,5.04,1.44Z"/>
  <path class="st37" d="M305.52,224.49c-1.11-2.82-1.35-3.03,0-5.76-5.39.05.48-2.72,1.39-4.07,1.04-1.55-.4-3.25.12-4.81.37-1.1,2.06-1.14,2.64-2.39.62-1.35-1.34-3.64-1.23-3.81.04-.06,1.06.12,1.35-.58.82-2.01-.04-6.74,2.99-3.43.81.89-.99,2.22,1.38,1.8-.76,1.33-2.65,1.85-2.84,2.59s2.84,5.95.53,10.6c-.52,1.05-1.67,1.07-1.84,1.33-.15.23-.92,4.96-.9,5.23.14,2.39,2.61,2.29.01,4.01-1.3-2.14-1.61-.67-3.6-.72Z"/>
  <path class="st75" d="M290.4,223.77c2.18-3.12-3.64-.26-4.32-.73,3.64-2.76,1.25-1.37.35-4.31-.36-1.17,0-3.02-.35-4.32,1.63,1.19,8.26-.97,8.62-.71.21.16.21,1.87.66,2.4.6.72,4.53,3.61,5.84,4.78l-1.08,2.88c-1.18-.55-1.12-4.35-2.16-4.3-.21.01-.83,1.18-1.43,1.18-.51,0-2.58-2.56-3.94.8-.3.73.14,1.98-.03,2.32-.7.07-1.5-.11-2.16,0Z"/>
  <path class="st83" d="M186.72,184.17c-.68-1.83,1.36-1.44,1.84-2.15.69-1.02-1.02-3.37,1.41-4.33,1.88-.74.57,3.53,2.15,3.58,1.9.06,3.2-2.89-.36-2.15l1.81-2.87,4.67,2.88c-1.09,1.42-3.03,3.18-4.1,4.59-.93,1.23.83.93-1.66,1.89-1.57.61-2.2,2.04-3.93,1.48-.16-.05-1.77-2.76-1.83-2.92Z"/>
  <path class="st18" d="M209.76,233.13l.69-5.98c2.97-.97,1.29-3.18,1.47-3.37,1.49-1.56,1.39,1.69,1.59,1.95,1.83,2.36,2.81-.06,3.45-.51l-.73,3.6-3.59-1.43c3.12,4.05.65,2.2-.71,2.91-.16.08.67,2.78-.02,3.57-.72-.21-1.39-.63-2.15-.72Z"/>
  <path class="st47" d="M158.34,237.77c.22.13,1.8,1.38,1.74,1.83-3.22,1.07-6.94-4.85-1.74-1.83Z"/>
  <path d="M92.4,96.33c1.93-.47,2.65,0,2.16,1.44,2.61,5.74-1.03,6.99-6.08,7.92,9.99,3.68,1.37,11.69-3.95,15.32.84,19.56,21.01,15.01,24.2-.29-1.28-5.35-.82-16.41,5.98-8.55,1.9-.97,3.65,2.21,2.16,3.6,3.66,22.68-28.6,37.9-43.18,19.78-5.97-7.41-9.98-19.64-5.7-28.7,2.38-5.04,12.7-8.36,17.92-9.8.45-2.41,5.32-2.65,6.48-.72Z"/>
  <path class="st97" d="M133.44,102.09l1.53-.66c-.43.89,9.64,7.58,8.69,6.28-3.24-4.42.33-7.09,3.43-4.26l1.47.08c.38.5,1.92,1.49,2.16,2.16.67.16.66.41,0,.72l.46,1.6c4.48,2.29,5.29,10.35.26,11.36-.87.03-5.54.15-5.78.31-1.69,1.15.92,5.89-1.77,5.99-.21,0-3.79-1.51-3.96-1.63-1.85-1.33.3-3.88-5.67-4.24s-2.98,2.33-3.7,3.19c-.14.17-2.27-.21-3.12,0-.59.14-.55,1.36-.86,1.45-2.09.58-1.67-1.21-2.98-2.04-.79-.5-2.6-.45-2.99-.99-.43-.59-.15-2.53-.81-3.68-.49-.86-2.34-1.24-2.93-1.94s-1.57-2.63-2.16-3.6c-2.89-2.34-5.55-6.69-6.48-10.08l1.01-1.36c3.39.72,6.76.82,10.11.3.99-2.54,3.49-4.43,6.16-3.98,1.09.33,2.13,1.29,3.13,2.88,2.89-.08,4.49.64,4.79,2.16Z"/>
  <path class="st38" d="M48.48,133.05c.74,2.79,2.53,1.15,3.24-.71,1.2.91,1.91,2.03,1.81,3.59l3.58-2.16c-.14,1.92,1.06,5.47,3.26,5.5.22,0,2.54-2.16,2.49-.1,0,.16-1.59,1.1-1.45,2.82.07.9,1.66,3.32,2.1,5.21.73,3.15-.21,6.16.08,8.41.07.5,1.11.49,1.39,1.04.57,1.1.25,2.36,1.53,3.37,1.39,1.1,4.26,1.31,5.86,1.91,6.88,2.6,14.11,2,21.67,4.4.89.28,1.34,1.47,2.3,1.68,3.84.87,12.37-.59,16.22-1.84l-.72,1.44c-2.13.59-7.42,3.28-8.41,3.46-1.21.22-2.46-1.54-3.44-1.29-.69.18-.72,1.69-1.68,2.12-.39.18-7.92,1.42-8.34,1.33-.82-.17-1.31-1.43-1.86-1.64-.78-.29-2.36.48-3.78.18-1.2-.25-5.2-1.33-5.89-1.96-.84-.77-.3-2.06-.45-2.22-.22-.23-5.27,1.3-6.13.02-.09-.14.54-3-.7-2.88-.81.08-.66,2.37-1.79,2.14.82-4.14-1.45-2.5-3.38-3.84-.74-.51-4.68-4.78-4.9-5.56-.42-1.46.58-2.81.35-4.28-2.6-.62-.96,2.3-1.44,2.88-1.84,2.23-.97-5.16-4.32-3.6-.1.05,1.12,1.95-.71,2.15-.12-4.53-5.04-4.67-4.34-9.36l-4.69.73c.77-2.74-2.11-7.72,1.82-7.92l.35,2.14c1.66-.79,4.25-3.09,1.44-4.3-1.66-.71-.5,1.74-1.78,1.43.35-2.25-1.67-4.86.71-6.48.02.66-.14,1.64,0,2.16Z"/>
  <path class="st24" d="M154.32,86.97c1.15,1.8,3.7,2.46,4.54,4.55.49,1.23-.7,5.33,1.58,1.21,2.28,2.28,4.55,5.26,6.12,7.18-2.08-.42-1.19,1.87-1.44,2.18-.17.22-1.34-.72-1.78-.74-.85-.04-.09,1.84-.38,2.17-1.27,1.49-1.63-2.97-2.87-1.44-.77.95-.02,3.9,2.17,2.88-1.92,2.3,3.36,3.39,3.59,3.6.22.2-1.36,4.23-.71,5.03.15.19,1.5-1.08,2.85-.41,1.74.86,2.15,3.41.03,4.01l-2.16-2.17v2.89s-2.16-.72-2.16-.72c.15,6.86-1.52,2.89-3.24,2.84-2.79-.07-2.71,7.73-3.25,9.74.01,1.11,1.71-1.05,2.54.37.54.94-.2,3.32-2.56,1.1-2.17-2.04-3.47-3.27-2.13-6.14-1.29-.47-1.84,1.25-2.52,1.24s-1.34-1.53-1.79-1.24c-.31.2-2.94,5.13-4.33,5.76,2.19-5.11,1.64-6.22,5.04-11.52,3.73-2.16,4.59-5.85,1.77-9.23v-1.88c-1.75.17-2.76.13-2.49-1.86.05-.08.04-.61,0-.72,2.39-1.73,7.1-2.38,5.57-6.05-.37-.88-1.47-.98-1.7-1.41-3.76-7.06.58-4.03,1.09-6.68.24-1.24-1.42-2.29-1.66-3.16s.3-1.19.3-1.43Z"/>
  <path class="st4" d="M70.8,93.45c.18.17,1.41,2.62,1.44,2.88.76,6.84-9.41,10.38-12.42,3.41-2.57-5.97,5.91-11.08,10.98-6.29Z"/>
  <path class="st54" d="M81.42,144.07c1.56.81,4.56,4.87,5.76,5.37,3.77,1.56,8.56.3,12.42,1.25-3.52,7.51-4.37,3.49-9.04,3.28-3.06-.14-3.46,2.22-6.41-1.52-.62-.78-.73-2.12-1.31-2.64-.66-.59-2.01-.04-2.87-1.8-.94-1.9-1.26-5.36,1.46-3.94Z"/>
  <path class="st97" d="M133.44,122.25c-.76,2.87,1.68,1.89,2.54,2.86,1.32,1.5-1.33,3.5-3.31-.28-.75-1.43-1.31-3.11.78-2.58Z"/>
  <path class="st59" d="M120.48,170.49c.91,1.5.36,1.84-1.44,2.88-2.1,4.74-10.22,5.15-15.12,5.04-.59,1.72-6.39,2.7-7.2.72,1.48,3.55-8.04,3.41-9.89,2.85-2.27-.68-3.67-1.92-5.29-3.54-2.44,2.03-8.2,1.4-7.15-2.19-1.73-1.69-3.53-4.87,0-5.04.22.18.53.5.72.72,1.36,1.8,2.8,2.28,4.32,1.44.39.03,1.2-.97,2.89-.44,1.55.5,4.31,3.76,5.4,3.79.68.02,1.54-1.02,2.3-1.06,9.44-.58,17.02-3.84,26.14-5.18,1.32-.19,2.94.13,4.32,0Z"/>
  <path class="st48" d="M164.4,256.89c3.3,1.16,5.41,3.09,2.87,6.11,5.46.17-1.76,7.68,3.61,6.85.33,1.69-1.7,2.12-2.09,3.42-.3,1.02.64,1.53.65,1.61,1.43.44,1.45,1.1,0,1.44l.78.61c-2.09,2.64-1.77,5.18-.35,8.09,3.43.69,1.51,4.86.29,7.14.61.24.61.48,0,.72-.04,2.9-1.44,4.45-1.45,4.74-.05,1.19,1.92,4.31-2.15,2.46-.1-1.81-1.99-3.21-2.69-4.87-1.94-4.66-1.33-5.8-.13-10.44.17-.65,1.1-.55,1.22-.9.26-.79-.75-3.22-.46-4.2.34-1.15,2.32-1.43,3.08-2.62.51-.79-.15-2.75-.04-3.84.07-.67,1.23-1.42,1.11-2.21-.15-1.03-4.29-3.21-2.8-6.22,5.37,1.54.24-1.37.09-1.87-.77-2.44.15-3.07-1.53-6.05Z"/>
  <path class="st48" d="M166.56,300.81c2.9,1.33.98,3.4.72,5.04-3.66-2.3-1.22-3.34-.72-5.04Z"/>
  <path class="st68" d="M309.12,225.21c2.49,4.09-.24,2.74,0,3.24,4.22,1.34-.35,3.81,2.87,5.4l.72-1.44c-.66,2.71-1.05,4.12,2.17,2.88-.31,1.09-1.37,3.86-1.21,4.73s2.12,1.03,2.55,2.22c.92,2.56-2.23,5.58.09,9.83.46.83,1.37.4,1.45.49,2.81,3.26-2.21,3.17-2.76,5.55-.09.38.16,6.91.27,7.76.09.72,1.04,1.27,1.08,2.17.02.49-1.54.35-1.47.7.58,3.12,2.79,6.65.72,10.47.54,1.82.14,3.75-1.18,5.8.38.29.66.56.62.73-.1.34-3.57,5.47-4.47,4.26-1.23.84-1.7.93-2.16-.72-.07-.45.11-1.06,0-1.44.85-.43.85-1.39,0-2.86,3.16-1.44,4.12-2.4,2.88-2.9-.24-1.95,3.74-3.24,3.68-4.67-.14-3.09-6.62-4.92-3.68-7.19.36-.27,2.35,1.35,1.45-2.09-.19-.71-1.73-.22-1.44-.81,4.87-2.48,1.12-3.16.71-7.19-.26-2.47-.55-3.75,2.17-3.25.31-1.36-1.14-2.14-1.25-3.32-.08-.82.85-2.85.53-3.15-.36-.35-3.23,1.34-2.14-3.11.12-.47,1.77-.71,1.2-4.25-1.2-7.41-2.71-2.68-3.03-2.68-1.16.03-2.58-1.56-3.94-1.49.47-1.62,3.68-.95,3.61-3.2,0-.22-1.28-3.52-1.54-4.13-.46-1.06-2.11-.05-.65-3.47l-1.43-.34c.86-1.41,2.42-1.75,3.59-2.53Z"/>
  <path class="st34" d="M315.6,279.21c-.6,1.51,1.49,1.37,1.46,1.81-.07,1.33-1.88,2.58-2.19,3.95,1.02-.34,3.8.96,2.88,2.17-.08.11-.51-.41-1.4-.22-.07.01.06.86-.38.85-.85-.01-2.27-1.51-2.88,1.55-.2,1.03,1.19,1.67,1.08,3.16-.18,2.52-3.68,4.19-2.9,6.9l2.87-2.15c.97,2.83-2.06,2.59-.71,4.31h-2.17c1.29,1.88-2.49,7.16-4,7.25-1.41.08-2.18-1.13-2.85-1.19-.82-.07-2.01.82-3.06,1-.84.14-2.07-.6-2.25-.48-.28.17-.57,2.05-1.16,2.05-.11,0-.75-1.03-1.57-1.2-.45-.1-3.6,1.24-1.48-1.54.2-.26,1.11-.03,1.24-.14.7-.65-2.03-1.12-2.57-2.15-.78-1.49,2.04-6.48-2.46-5.76.01-.4.67-1.37.72-2.16l.9-.48c1.42,1.3,2.8,1.7,4.14,1.2l1.61.4c.07,4.5,5.71,7.32,9.64,4.58-1.26-1.28-1.2-2.99.15-5.14-3.51-2.2-1.08-7.82,2.28-7.76,1.19-1.97,2.76-2.41,1.43-4.32h2.18c-1.81-2.61.69-2.01.76-2.6.29-2.3-1.07-.66.67-3.88Z"/>
  <path class="st10" d="M291.12,269.13v.72c-1.01,1.25-1.11,4.63-.61,6.03.34.95,1.56.94,1.84,1.31.2.25-.37,1.4.25,2.29.98,1.42,3.07.82,2.1,4.27-.17.6-2.25.41-1.42,4.47.37,1.79,1.72,1.73,2.88,2.88l-2.15.71c1.5,1.28,1.35,3.24,1.91,4.7.16.43.92.58.96.7.64.19.63.43,0,.72l-2.15,4.31c-.13-2.52-1.19-3.51-2.89-5.03.02-.24-.02-.48,0-.72.26-3.68.7-9.79-.74-13.12-.41-.96-1.97-.71-2.19-2.36-.25-1.89.28-10.6.77-12.6.43.17,1.06.72,1.44.72Z"/>
  <path class="st0" d="M110.4,224.49c4.21-.38,5.9,1.18,5.25,4.93l.51,1.55c-.21.73-.62,2.78-.73,2.88-.38.38-2.36-1.44-2.87-.37.37,1.75,5.61,4.26,5.77,5.2.06.35-.19,4.7-.28,4.93-.53,1.35-3.1.41-1.17,4.64l-2.15-.72c-.41,1.29,1.08,1.73,1.28,2.68.31,1.45-.03,2.81.18,4.14.18,1.2,1.51,1.81,1.07,2.54-1.38,2.26-4.54-.78-3.98-2.88l-2.15,1.44c-.89-3.61,2.97-1.41,2.87-4.32-3.98-.07-3.85,3.81-7.19,0,.8,1.92-1.63,3.03-3.19,2.91-.46-.04-.33-1.4-.84-1.46-3.16-.34-3.06,2.09-4.61-2.89-.44-1.41-.63-2.84-.73-4.32l-2.87,1.44c.31-1.7-.45-4.61-.05-6.04.15-.53,4.94-.99,5.09-4.04.99-1.2,2.56-2.17,4.72-2.9.25-3.17,1.46-5.2,3.61-6.08-.24-1.52,1.09-4.27,2.47-3.26Z"/>
  <path class="st30" d="M119.04,173.37c-.42,5.23,1.18,1.95,3.39,1.59,1.51-.25,3.02-.18,4.53-.14.55,2.03-1.42,1.41-2.2,2.44-2.67,3.51.77,2.17,2.92,2.23-1.51,2.17-3.67.43-5.31.57-5.42.48-3.78,5.08,1.7,1.23.44,2.82-.39,2.2-2.87,2.17,2.71,1.77-.12,5.93-2.17,6.82-2.63,1.14-4.22-1.17-3.59,3.25-3.51-1.78-2.88,1.18-5.64,2.26.98,1.95-.31,3.81,1.64,4.27,3.09.73.42,1.85-1.76.68,5.62,3.85-1.2,3.28-2.16,4.32-.22.24,2.03,5.8,2.21,6.07,1.01,1.46,5.74,2.4,5,6.16l-2.88,1.07,5.03,2.53-1.45,3.23c.03.61,1.85-.56,2.17.74-.6,1.76-.95,3.6-1.44,5.39-.06.22.06.5,0,.72-4.05-.47-.92-3.63-1.44-4.31-.15-.2-2.71-.15-4.32-2.17-1.48.53-1.81-.29-.72-1.44-1.78-1.02-2.94-2.69-3.47-5.02-1.9-.32-1.86-1.96.14-4.9-2.26.06-7.07-.77-7.44-3.24-2.03.1-2.25-1.01-1.04-2.53-2.2-3.23,1.05-9.69,5.78-9.24,2.42,3.64,6.86,2.93,1.66.13.18-6,2.64-9.3,7.37-9.89,3.27-2.78,4.17-3.58,2.69-2.4l-1.13-.32c.44-2.68-1.11-5.11-2.98-2.81-1.99-1.65-4.23-2.6-6.7-2.84l-.63-1.59c4.16-.93,11.43-2.9,15.12-5.04Z"/>
  <path class="st31" d="M78,248.97c.24.23.37.47.72.72.69,3.37-4.09-1.41-.72-.72Z"/>
  <path class="st7" d="M307.68,125.13c3.29,1.84,1.27,3.45,1.44,3.6s1.57-.09,2.16,0c.41.06.87-.14,1.27.09-1.48,3.21,1.74,2.22,2.69,3.51.55.74.49,2.61,1.17,3.87,1,1.87,3.82,3.33,4.86,5.22,1.33,2.44,2.51,7.5,3.7,10.34l-1.03.12c-1.61-3.05-3.67-5.73-6.17-8.04-3.18-4.5-6.3-9.05-9.36-13.64-2.3-1.32-4.4-5.13-.72-5.08Z"/>
  <path class="st27" d="M317.76,143.85c3,1.33,5.71,5.13,7.2,7.92.15.29.62.5.72.72,1.41,2.98.49,4.42.83,6.66.14.94,1.2,1.89,1.32,3.14.09.88.1,5.15,0,6.05-3.4-1.3-1.31-3.24-1.52-4.72-.91-6.2-3.71-11.58-6.4-16.88-1.24-.83-1.96-1.79-2.16-2.88Z"/>
  <path class="st22" d="M193.2,124.41c2.18-2.16,3.8-.56,6.01-.77,2.33-.22,4.23-1.76,6.18-1.9,2.41-.18,5.2,6.96,5.82-.94,3.2.49,2.45,6.25,4.31,1.44,3.49-2.61,4.93-2.85,4.32-.72,1.01,1.19.38,2.12-.88,2.69,1.46,6.94-1.02,13.01-7.88,7.03-4.9,2.89-7.47,3.07-10.26-2.13-.83,1.08-2,1.34-3.16.66.03-1.14-6.01-.95-6.33-.8-.18.08-1.02,1.74-1.14,2.16,1.73,1.98,1.37,5.2-1.62,4.54.45,1.74-.33,2.53-2.01,2.98.43,3.01-1.77,3.16-4.13,2.18,2.68,3.84,3.22,7.71,1.6,11.61,5.18,1.26,6.41,3.92,3.67,7.98l1.95.83c1.13,3.94,1.83,5.37,5.99,6.51,2.07,3.89,11.21.41,10.69-4.32.73-1.64,5.81-.76,5.6,1.29.63.2.62.44,0,.72-2.77,1.27-4.31,4.58-7.07,5.88-1.24,2.05,1.44,2.07,1.3,2.4-2.56,3.18-3.76.86-5.52.59-.97-.15-3.98-.7-4.21-.71-.6-.02-1.84,1.65-3.04,1.84-1.85.29-6.92-3.97-9.19-.65-3.12-2.53,1.88-2.31,1.8-5.02-5.64,1.09-3.33-1.41-3.25-3.96.04-1.3-.43-3.02-.14-4.11.34-1.3,2.1-3.02,1.82-4.44s-3.63-2.29-4.91-3.33c-.26-.21-.49-.47-.72-.72-.18-1.19-.6-1.99-1.44-2.88-.25-.92-.05-.29,0-.72,4.26-1.55,4.33-3.74,2.11-7.36-.44-.71-2.34-.56-1.36-1.99.09-.13,1.2.21,1.3-.35.51-2.76-1.24-4.15-1.32-4.46-1.09-4.02,1.99-1.5,2.14-1.69l-.72-3.59c2.04.23,3.21-1.21,4.82-1.9.46-.2,1.44.22,2.18-.09,1.13-.48,1.95-2.02,2.87-2.23s2.03.63,2.68.5c1.25-.24,1.01-1.93,1.14-2.06Z"/>
  <path class="st76" d="M177.36,150.33h2.88s-1.44,2.88-1.44,2.88c-.69-.75-1.17-1.9-1.44-2.88Z"/>
  <path class="st84" d="M79.44,173.37c-1.59,5.32-3.23-.19-4.32-1.44,1.45.93,2.58,1.32,4.32,1.44Z"/>
  <path class="st23" d="M186,238.89c.47.2,1.97-.2,2.16,0,.29.31-1.02,2.74-.77,3.87.14.64,1.41.39,1.46.46,1.12,1.51-1.44,1.41-1.46,1.82-.08,2.08,2.16,6.75,2.2,10.4-.92-3.85-4.44-5.47-2.89-9.37l-1.44.36c.86-2.24-1.13-2.38-1.39-3.06-.23-.61,0-1.64-.25-2.47-.23-.79-2.37-3.01-.15-3.46.9-.18,1.72,1.12,2.5,1.44Z"/>
  <path class="st53" d="M88.8,225.93c.57-1.1,1.91-1.86-.37-2.14-2.13-.26-3.95-1.42-5.09-1.48-1.81-.1-3.25,2.15-5.33,1.46-.43-2.85,1.57.06,2.94-1.78.64-.85-.15-1.77-.07-1.81.18-.1,4.83.32,2.89-1.44-.14-.13-2.43-.17-3.61-1.08-1.34-1.04-1.07-2.37-1.96-3.27-1.58-1.6-4.4-3.35-6.67-3.58-.13-2.05,2.75-2.53,2.16-5.03-.51-.52-3.16,1.06-2.8-.99.52-2.97,2.59-2.51,2.79-4.77-2.92,1.99-4.1-.64-1.79-1.08.91-.17,1.3,1.38,1.07-1.8-1.94,1.86-3.31-3.46-3.6-5.39,1.18-.35,2.37.95,2.88-1.07-2.36.27-.9-2.3-2.09-4.03-.38-.54-4.21-2.45-3.66-3.17,1.12-.36,4.13-.62,4.72-1.41,2.04-2.75-1.02-1.87-2-2.23-.21-.08-3.46-1.95-3.65-2.09-1.93-1.31-2.82-4.99.54-4.4.48.08.96,2.43,2.75,3.11l5.56-.2c4.17,4.08,5.72.51,7.45.83,1.06.2,3.07,3.2,5.21,3.49.35.05,6.74.05,7.1,0,1.16-.16,2.08-1.36,2.56-1.44,2.41.68,5.05.94,7.94.8.7,2.06,2.57,2.86,5.59,2.41.51-.43,2.42-.97,3.24-.99.75-.02,3.51,8.83-2.51,6.29-2.15,1.35-4.04,3.21-5.67,5.57-3.09-1.77-5.48-1.24-7.17,1.59,4.09,3.82,1.49,6.26-2.58,8.25,2.38.58,2.72,2.45,1.03,5.58l1.42.02c1.79,2.2,3.4,4.63,4.82,7.29,3.5.46,4.87,2.86,4.11,7.21.97-1.74,1.93-2.01,2.74-.1.21.44.45,1.11.72,1.44-1.64.78-.79,4.06-1.06,4.37-.57.65-1.92.43-2.36.84-.59.56-.79,4.15-1.56,5.15-.67.87-2.96-.36-2.23,2.6l-3.6-.72c.01-.24-.02-.48,0-.72-1.21-.13-1.85-.62-1.92-1.46-4.1.57-5.89-1.28-4.46-5.3-2.47-.79-3.94-1.9-4.41-3.32Z"/>
  <path class="st8" d="M222.72,248.25l2.16-.72c-.29.54-.05,1.67-1.08,2.15-.57-.33-.74-.99-1.08-1.43Z"/>
  <path class="st41" d="M175.2,244.65c3.65-.87,1.57,2.32,1.44,4.32-.32-1.3-1.05-2.28-1.44-3.6-.07-.22.06-.5,0-.72Z"/>
  <path class="st20" d="M78.72,69.69c0,1.87-.58,4.29-2.88,4.32.3-2.52.2-3.59,2.88-4.32Z"/>
  <path class="st63" d="M325.68,197.13c-.8-.9-1.35-3.56-1.25-4.64s1.1-1.46,1.25-1.84c.98,1.41.03,4.25,0,6.48Z"/>
  <path class="st14" d="M231.36,112.89c.44-.32,1.7.35,1.8-1.44,1.42,2.38,4.64.52,6.4.76.22.03,1.76,2.04,3.71,2.11,1.32.05,1.65-1.39,1.77-1.43-.05-.5.65-.73,2.1-.71.87-1.69,2.87-1.38,6,.95,2.84-1.24,4.8-1.31,5.89-.21,4.92.57,9.97.65,15.14.26,1.43,2.44,2.85,2.9,5.03.47.22-.05,4.22.53,4.43.63,1.79.82,4.28,3.5,4.61,5.08.03,1.7.49,2.5-1.44,2.16-1.4.89-3.14.6-5.24-.87l-1.34.78c-1.93-.78-3.46-.8-5.46.32-5-3.08-7.12-2.28-12.48.3-1.27.14-4.67-3.12-2.85-2.64,2.92.77-4.29,5.67-5.95,1.71-1.99.36-2.98-.65-4.12-2.02.37,4.63-1.1,4.86-5.14,4.31-1.23,2.42-2.51,2.86-3.85,1.31-.73-6.31-1.26-7.04-7.06-2.78l-1.48-.09c-.13,3.87-4.11,3.96-6.76,2.01-1.35,2.59-2.87,2.1-4.56-1.47l-.69-.87c-.23.01-.83-.93-1.46-.4-.94.79-.11,3.03-2.86,1.12,1.01-2.59.94-.83,2.57-2.11.74-.58.69-1.94,1.56-2.21.26-.08,4.59-.76,4.83-.75s1.19,3.62,3.65.03c.96-1.4-1.37-.26-1.08-1.08.53-1.53,2.65-.17,2.83-.37.32-.36-.36-1.54,1.49-2.88Z"/>
  <path class="st74" d="M245.04,112.89l.35-2.17c.78,2.96,1.09.31,2.52-.27,1-.41,2.18-.02,3.24-.11.63-.05,1.27-.99,1.46-.98.79.04,1.08,2.8,2.84,2.82.21,0,3.87-1.02,4.02-1.15.63-.54.63-1.68.7-1.74.2-.16,4,1.91,4.67,2.15.57.21.42-1.82,1.48-2.08,1.56-.39,4.7,2.1,5.73,2.08.93-.02,1.59-1.17,2.72-1.24,1.57-.1,11.05,3.91,12.88,4.94,1.64.92,3.32,5.02,4.39,5.51.69.31,1.83-.54,2.89.1.68.41,1.11,2.2,1.59,2.21.91.03,1.47-3.45,3.24-2.87,2.33,3.54,4.92,3.37,7.92,5.04-1.71,2.18.85,2.89,1.75,4.37,2.89,4.74,5.64,9.42,8.33,14.35.58,1.07,1.62,1.81,2.16,2.88-1.7-.47-4.53-4.41-5.37-5.79-.77-1.27-1.66-4.83-1.87-4.98-.13-.09.07.61-2.16-1.01-.75-.55-2.03-.54-2.54-1.16-.29-.36.63-2.85-.66-2.87s-.26,2.09-.36,2.14c-1.43.75-5.4-3.76-6.47-4.56-.48-.35-1.57.06-2.23-.77-.95-1.21.13-2.46.03-2.54-.18-.15-1.36.03-2.08-.48-.55-.39-.68-1.31-.94-1.47-.57-.34-3.05-.26-3.8-1.7l-1.07,1.43c-.25-1.29-1.11-2.83-2.17-3.59-1.16-.83-2.2-.53-2.71-.88-.61-.41-.63-2.56-1.6-3.14s-3.51,1.41-4.69-1.01l.36,2.15c-1.41-.14-3.31.36-4.6-.1-.99-.35-.87-1.9-1.67-2.08-.2-.04-3.85-.03-4.05.01-.59.13-.46,1.47-.89,1.48-.72.03-1.79-.89-2.77-.82-.24.02-1.65,4.51-1.87-.66-1.98,1.04-3.98,1.07-5.74-.4-.79-.66-.41-2.04-1.44-1.76-.35,3.61-7,2.98-7.23-.72-1.73-.76-1.15,1.18-1.94,1.44s-1.89-.17-2.36,0Z"/>
  <path class="st90" d="M169.44,274.89c1.59-2.78,3.85-1.18,2.17-5.04,4.46,2.59,1.91-5.15,4.68-6.48,1.48-.71,1.58,4.06,3.43,4.5.95,1.46,1.91,8.34,1.16,9.13-.35.37-1.91-.39-2.09.41-.62,2.73,2.74,1.88,2.16,3.59-.78,2.29-2.69-.97-3.58-.35-.15,4.84-3.85,8.76-1.47,13.21.51.96,3-.31-.34,2.63-.63.28.16-2.03-1.43-1.43-.82.31-1.01,6.72-3.25,5.03-.38-.29,3.54-6.26-.72-7.19,0-.24-.02-.48,0-.72.2-1.8.75-3.49,1.64-5.05-2.62-1.99-4.18-6.04-2.17-9.26l-.19-1.53c.09-.33,0-.99,0-1.44Z"/>
  <path class="st85" d="M129.12,72.57c.52,0,1.17-.97,2.88-.43,1.57.49,2.76,2.27,3.96,3.31l.71-2.15c.77.82.99,1.74,1.98,2.41,3.74,2.53,7.07.4,5.59,6.94l2.86-.36-1.42,2.52,2.88-.71c-1.34,2.14.46,1.16.69,1.45,1.22,1.57-2.69,1.67-2.12,3.21.9,2.45,6.78.14,2.16,3.61,3.97,3.19,3.12,3.77-.37,6.84-1.75.82-.49-3.72-2.51-2.15-.21.16.7,4.84.89,5.25.44.97,1.09.98,1.27,1.22-1.04,3.24-3.4-.67-4.31,0-2.08,4.51,1.11,1.55,2.15,4.67-2.72,2.34-5.25.42-7.44-1.19-.92-.68-4.93-4.7-5.52-4.92-.37-1.29.31-2.57,2.06-3.85.44-1.89,1.19-3.25,2.26-4.07l3.85-1.43c5.26,1.24,4.28-2.24,1.21-4.58-2.11.15-8.41-2.18-9.26-3.97-.3-.63-.05-1.46.18-2.12-3.11-.05-4.02-1.98-2.73-5.79-2.17-.54-4.12-2.2-1.9-3.72Z"/>
  <path class="st88" d="M129.12,72.57c.08,2.48,2.59,2.02,3.3,2.84.63.72-1.1,4.39-.42,5.06.21.2,2.48-.36,3.28.72.46.62-.79,1.98-.34,2.78.64,1.12,4.1,1.11,4.28,1.25.49.37.53,1.48.81,1.66.55.35,2.43-1.51,4.93,1.16,2,2.14,1.88,4.16,1.42,6.85-1.6-.27-2.89-.93-4.61-.72-3.07.37-1.98,2.54-4.03,0-2.27.27-5.2-2.5-6.48-4.32-2.54-.49-4.46-2.41-5.76-5.76-.67-.49-.67-.97,0-1.44-.34-1.65.25-1.98,1.76-2.22-2.28-3.25-2.39-5.39-.32-6.42.08-.44-.05-.98,0-1.44.72.01,1.44,0,2.16,0Z"/>
  <path class="st78" d="M125.52,84.09c.72,1.51.72,2.89-.37,4.2,1.92.45,3.24,1.21,3.97,2.28,1.25,1.85-.86,3.33-2.16,1.44-.93,1.27-2.49,2.64-4.22,1.92-4.81-3.23-6.44-.42-6.98,4.39-1.83,2.72-9.82-1.05-12.12-2.66l-2.37-.68c-1.41,1.45-2.7,1.76-4.43.76-1.64,1.12-3.12,1.32-4.43.59-1.73.4-4.67.22-6.48.72-1.17-1.3-2.19-4-3.28-5.04-.59-.56-2.32-.16-2.48-1.09-.2-1.18,1.58-1.45.72-4.66h.72c-.48-2.2,5.5-1.67,6.62-.57-.21,3.48,1.12,4.68,4,3.58,2.98.88,6.47.92,9.12-1.06l2.75-.21c1.49-3.44,5.26-3.18,7.47-.46,1.45-1.18,2.7-1.19,4.44-.75,1.86-3.57,6.21-5.63,9.52-4.13,1.16,1.53.31,1.01,0,1.44Z"/>
  <path class="st55" d="M217.68,116.49l-1.8,2.88c-1.29-3.68-4.98,2.77-7.56-2.16.37-.11,1-1.32,2.57-1.46,2.78-.24,2.51,1.75,6.79.74Z"/>
  <path class="st46" d="M189.61,225.93l.35-2.87c1.94,1.49,2.42,2.66-.35,2.87Z"/>
  <path class="st92" d="M103.2,65.37c2.18,2.11-.19,4.16,0,4.31.42.34,6.57-1.06,7.13-.65.97.7,1.7,4.16-1.37,2.11.37,4.91,6.11,2.72,9.59,3.61,1.16.3-1.07.83,3,.85.85,0,1.54.53,2.16.59.93.09-1.16-4.35,3.25-2.17-.74,4.13,2.37,4.82,2.15,8.64-1.93-.97-2.02-.87-3.59,0-3.67,2.03-4.17.94-5.6,1.6-.47.22-3.24,4.18-3.51,4.21-.69.08-1.66-.68-2.66-.56-.6.07-1.19,1.07-2.16,1.09-1.51.03-1.97-2.98-5.06-1.85-1.89.69-.3,1.98-.45,3.43-3.51-2.82-5.64-.37-8.28,2.15l-.35-1.43c-1.97-1.16-2.75.7-3.96.74-.53.02-.21-1.3-.69-1.35-.8-.07-5.19.73-5.43.59.86-1.87-1.24-3.11,0-5.03-1.18-.44-2.55.63-3.29.64-.29,0-.15-2.56-2.47-.65-2.57-3.27,2.37-1.26,3.6-2.9-2.99-4.43.47-2.77,1.44-3.62.25-.21-1.05-5.42.02-6.43.39-.37,2.88.43,3.5-.14.25-.23,1.57-4.37,1.77-4.67,1.13-1.73,2.41-1.36,3.83-1.93.25-.1.26-1.06.74-1.17,1.65-.4,4.72.04,6.7-.02Z"/>
  <path class="st1" d="M229.92,161.85c-1.69-1.85.39-2.78,2.57-2.78,1.87-3.85,4.03-4.97,6.49-3.35,2.75-2.42,7.21-5.13,9.34-.58.85-1.75,9.35-1.44,8.24,1.68.88.79,3.45-.33,4.18-.91,1.44-5.19,6.59-3.3,10.22-1.57,2.43-2.39,4.21-2.53,5.34-.41,4.34-.79,8.16,1.3,11.45,6.27,1.87.45,3.63,1.22,3.89,3.23l1.28-.17c1.08,2.65,2.5,4.28,5.1,5.5,3.75-2.4,6.01-.62,6.79,5.34.64.18.62.42,0,.72v2.16l-2.16-2.16c-5.97,2.95-3.92.13-5.38-2.19-1.37-2.18-5.38,1.21-5.76,1.27-2.8.43-1.79-4.94-2.69-6.13-.25-.34-4.2-1.89-4.77-3.52-.28-.79.51-2.7-.13-3.83-7.26,2.99-1.67,2.63-1.45,2.89.31.36,0,2.23-.34,2.87-.79,1.48-1.38-.41-2.15-.45-.18,0-3.27,1.01-3.5,1.15-1.01.57-.06,2.05-.84,2.19-.27.05-5.18-1.02-5.42-1.17-1.87-1.18-3.57-1.71-4.57-2.38-.68-.45-.51-1.94-1.14-2.6-.4-.42-3.74-3.23-4-3.22-.5.02-1.18,2.08-1.83,2.52-.88.6-4.21-.85-4.3,2.51-1.68-.28-2.49-4.33-4.23-3.51-.07.03.05.71-.67,1.27-2.33,1.83-2,2.52-2.38,2.86-.54.49-2.39-.3-3.37.25-.4.22-.67,1.97-1.21,2-.46.02-3.43-4.92-8.28-2.15-1.53-4.84-1.72.3-5.04-.73l2.51-2.16-1.79-.71Z"/>
  <path class="st52" d="M291.12,269.85c2.78.78,3.63,2.8,1.44,5.04-.53-1.56-1.71-3.12-1.44-5.04Z"/>
  <path class="st15" d="M259.44,146.01c.96,1.65.59,3.98-1.1,6.97,1.52,2.79,1.73,5.7-1.78,3.83-1.52-2.03-5.47,0-7.19-2.16,1.35,7.97-1.39,2.46-3.41-.55-1.33-1.98-1.59-.16-3.17.85s-2.67-.39-2.07,3.3c-1.36.33-3.34-2.51-3.95-2.16-.96.55-4.22,4.33-3.25,5.76-2.89-2.87-2.94-.22-3.59,0-.1.03-.66-.72-1.78-.05-1.89,1.13-5.49,5.62-5.89,5.74-2.45.73-6.25-3.95-10.33-2.09v-.72c-.48-4.35,3.55-7.01,5.35-1.12l1.13-.32c-.71-1.41-.08-3.82,1.51-4.42-.12-4.24,3.62-5.94,6.87-6.6,1.69,1.12,7.42.99,3.83-.62-.3-5.28,3.83-5.81,6.09-1.2l8.17.12c4.32,1.77,6.5.21,6.54-4.67,2.41-.57,6.19-.64,8.03.11Z"/>
  <path class="st100" d="M219.84,121.53c2.46-.14.48-1.78,2.88-1.44v4.31c1.3.2.65-2.88,1.8-2.86.35,0,2.95,3.63,6.12,1.41l-.73-1.42,1.45-1.44c4.2,1.97.93-1.63,1.45-2.16,1.37-1.42,1.58,2.97,2.87,1.43.5-.6-1.1-3.97,1.08-3.6.44,3.38,1.1,1.33,1.62,1.68s2.57,1.77,2.68,1.89c.45.45-.26,5.04,1.46,5.79.25-5.01,4.86-2.34,5.39-2.87.31-.31-.79-4.07,1.09-5.03.78-.4,2.4,2.45,3.6,2.87.84-2.19.43-.97,2.5-.69-1.83,2.39,2.05,1.55,3.96,2.14l-1.07-2.16,3.59-.73c-.99,3.51,3.66,1.93,2.89-.72,3.18,2.88,1.7,0,2.57-.07,1.59-.13,2.16,1.91,2.81-.65l5.06,3.61c.69-2.93,3-.29,5.38-.74l.37-2.15c1.99,2.57,4.24,2.07,6.12,3.6,2.58,2.09,5.97,4.34,9.02,6.46,1.38.96,4.8,2.07,5.64,2.85.93.86-.32,2.89,2.63,2.21l-.74,1.43h4.32c.43.93-3.05.82-1.43,2.16.55.46,3.06-1.01,3.6-.71.13.07-.46.97-.25,1.42,2.24,4.65,4.69,4.02,6.73,8.65.42,3.09-3.44,2.27-3.89-.91-1.49-.2-2.35-.86-2.59-1.97-1.04-.44-1.03-1.03,0-1.44-1.56.51-2.28.03-2.16-1.44l-1.65.36c-3.34-5.08-7.64-7.7-12.92-7.85-1.43-1.7-3.44-3.37-4.56-.61-3.12,3.36-7.53-4.62-7.56-7.61-1.06-.01-2.13-.09-2.93-.91-2.05,1.74-7.54,3.96-10.35,3.48-2.05-1.58-4.49-2.31-7.32-2.18-1.2-1.74-2.31-1.2-3.32,1.62-1.82-.68-3.67-.68-5.56.02,4.15,3.09-4.49,3.15-6.33.31-1.03.99-2.34,1.23-3.93.71.13,2.05-.73,3.47-2.8,3.95.87,9.5-6.9,8.13-9.09.74-2.09,1.74-4.16,1.77-6.46.9l-1.76,1.18c3.37,4.91-3.07,4.69-6.62,3.21l-2.42.93c-3.37-.72-4.25-.55-6.82,1.42-2.7-2.09-5.22-2.7-8.56-3.15-.98-4.75-3.49-.33-1.31,3.06-1.75,1.23-1.71,3.06.14,5.47l-.77,2.65c1.58,1.77,1.53,4.4,1.04,6.56l1.86.92c.56,4.19,4.99,5.37,8.77,3.67,3.32,2.11,5.3,1.92,5.94-.57l1.7-.28c3.97-2.43,4.95,1.53,4.32,5.04-.18.37.49,2.07-1.07,1.43-1.88-.77-1.91-4.04-3.97-3.6.06,1.47.13,3.04-1.44,3.6l-4.31-1.44c.87,6.78-7.43,7.02-12.25,8.63,1.86-3.8-2.63-2.95-4.73-4.99-3.05-2.97.3-6.58-5.35-4.37l2.88-7.19c-9.5-1.51-3.94-4.93-4.4-8.13-.37-2.6-7.29-10.6,1.52-7.01.96-.98-4.24-6.02,2.16-2.88l-.71-3.59,3.59.71c.63-.59-4.85-6.24-.72-4.31v-3.6c1.46-.3,1.83,1.31,3.2,1.38,1.11.06,2.67-.97,4.01-.67l-1.44-2.87c3.34-.41,1.75,3.62,3.25,4.31,1.84.84.94-3.94,3.23-2.88-.02.95-.06,1.98.38,2.85.34.68,3.76,5.03,3.95,3.26.15-1.42-.48-2.92,1.09-3.94,2.65,0,.89,2.74,1.07,2.87.87.66,2.03-1.42,3.23-1.46.32,0,2.73,3.6,5.31,2.84,2.01-2.67.44-5.42.83-8.57l2.15-2.16Z"/>
  <path class="st58" d="M320.64,160.41c1.02,3.51,2.91,5.17,1.43,9.36-1.17.07-1.34-2.09-1.45-2.16-.32-.22-1.87,1.73-2.86,1.45.11,1.68,2.04.67,2.09.77.42.78,1.46,5.77.79,6.42-.41.4-3.04-.85-3.94-.72l-1.82,2.16-.36-2.88c-3.94,3.04.18,2.31-.34,4.66-.27,1.24-.76,2.03-2.18,1.81l.72-2.87c-1.43.42-3.49-.75-4.59-.53-.93.19-1.33,1.66-2.61,1.25.7-1.67-.61-3.45-.72-4.32-.03-.24.03-.48,0-.72l-1.93-5.51c-.31-1.66-.62-4.05,1.21-4.57,1.92-2.26,3.25-2.48,3.98-.64,2.23-1.04,3.59-.98,4.07.17,1.36-1.88,2.99-2.52,4.89-1.94,1.03-2,2.45-3.7,3.62-1.18Z"/>
  <path class="st43" d="M309.84,143.13c2.63.33,4.36.18,4.33,3.6l2.15-.72c1.97,4.48,2.97,9.77,4.32,14.4-2.47-.39-1.94,2.65-2.18,2.87-.38.34-4.28-1.5-4.28.37,0,.15,2.12,1.71,1.42,2.52-1.21,1.41-1.48-1.47-1.89-1.5-1.47-.1-2.74,1.92-3.16-1.38-1.32-.31-.24,1.46-1.08,1.45-1.29-.02-1.84-1.68-2.85-1.46l-1.11,2.88-1.43-2.16c-.65-.13-.62-.38,0-.72-1.92-1.73-1.92-2.69,0-2.88-2.2-4.32,2.56-3.47,5.03-1.15.9-1.27,1.94-2.45,3.12-3.52-1.71-2.23-3.12-4.66.62-5.65-4.75-2.26-5.76-4.58-3.01-6.96Z"/>
  <path class="st73" d="M296.88,297.21l3.59-1.44c-1.64,5.3.32,1.87,1.92,1.64.62-.09,1.5.72,1.68.52.36-.41-.87-3.18-.69-3.85.15-.55,1.18-.47,1.64-1.38.64-1.25-.3-3.23-.19-3.36.62-.66,3.36-1.41,2.99.54.37.3.47-.6.57-.6.72,0,2.02-.27,2.16.72-1.48,2.45-5.31,6.27,0,6.49-1.47.96-.64,3.01-.91,3.41-.17.25-1.29.12-1.28.55.03.98,1.06,1.47,1.19,2.16.46,2.43-5.02,3.06-6.83,2.76-2.19-.36-2.57-4.21-5.84-.97.35-2.66.79-3.99,0-6.48-.07-.22.07-.51,0-.72Z"/>
  <path class="st34" d="M311.28,282.09c.65-.31,2.7-1.7,2.15.34-.91,3.36-3.8,1.41-4.31,2.9,1.78-.54,1.56,4.46-.72,2.52-.39-1.33-2.45-1.9-2.16-3.59,1.99.03,3.39-1.37,5.04-2.17Z"/>
  <path class="st6" d="M301.92,290.74c.95.82.54,3.46-1.43,2.87-.28-1.35-.05-4.15,1.43-2.87Z"/>
  <path class="st95" d="M124.08,189.21c-.1.7-1.9,1.64-1.07,2.16.42.26,4.36,1.14,2.51,2.88-.63.59-4.68-3.3-6.47-2.15-.74,1.84,3,2.93,2.87,3.23l-4.32,2.52c.97-2.82-.41-.13-.72-2.88v-1.44c.66-1.91,5.37-3.96,7.2-4.32Z"/>
  <path class="st32" d="M116.88,193.53l2.88,2.15-2.88-.71c-.04-.37-.09-1.19,0-1.44Z"/>
  <path class="st20" d="M94.56,97.77c1.43-.61,2.38.31,2.83,2.74,2.39-1.02,7.28-.67,9.89.05l.96,1.53c1.36.83,2.79,2.63,3.62,3.95s1.96,4.64,2.86,6.13c-8.2-5.37-3.93,6.45-4.6,10.1-1.27,6.85-12.25,16.2-19.28,12.7-.95-.47-5.97-5.35-6.34-6.08s-1.63-7.7-1.51-8.3c.17-.9,9.77-6.35,8.58-10.77-.92-3.42-6.2-2.4-7.81-4.84,4.68-1.51,12.34-.08,10.8-7.21Z"/>
  <path class="st44" d="M92.4,96.33c.88-.2,3.73-2.18,4-2.2.7-.04,1.87.94,2.74.83.71-.09.89-2.17,1.54-2.21.14,0,.58.8,1.07.9,3.75.76,3.32,1.51,6.1,2.72,1.19.52,6.12,2.03,6.88,1.4.24-.2-.54-1.33-.42-1.79.21-.81,1.02-1.13,1.36-1.83.2-.41-.14-1.1,0-1.26,3.74-4.24,6.31.1,8.74-.11.44-.04.32-1.41.73-1.43.37-.01,1.27.72,1.83.66,2.04.87.88,5.69-1.44,5.04-1.05,1.93-2.72,1.6-3.61,2.53-1.97,2.05.24,2.94-5.42,3.26-2.55.15-5.92-.62-8.26-.75s-7.76-1.17-9.6-.74c-.71.17-.13,2.16-1.9,1.46-.73-1.49-1.17-3.83-2.17-5.03-.26-.32-1.85-.57-2.16-1.44Z"/>
  <path class="st62" d="M83.04,134.49c-.15.18-2.09-1.11-2.45-1.5-.27-.29-4.28-6.09-4.39-6.47-.41-1.36.35-2.54.25-2.74-.23-.42-3.78-2.28-2.75-5.14,6.35,3.42,7.05,9.62,9.35,15.84Z"/>
  <path class="st101" d="M137.76,94.17c.58,3.83-1.52,5.85-4.32,7.92-3.13-1.16-6.63,1.22-7.92-5.04.81-1.48.96-3.42,1.44-5.04,1.02-.11,1.72-1.29,2.16-1.44-.52-2.04,1-2.4,2.16-.72,2.66,0,4.97,2.45,6.48,4.32Z"/>
  <path class="st64" d="M150.72,106.41c.9,1.16,3.35-.23,3.6,0,.58.54.18,4.23.43,5.08.17.58,1.49,1.1,1.55,1.76.06.61-2.16,3.72-1.25,5.41,5.19-4.32,2.65,3.2-.97,2.15-.71-.21.22-1.53-2.64-1.43,1.17-1.82,2.98-3.53,2.68-6.03-.26-2.17-4.66-4.47-4.85-5.14-.35-1.21,1.25-1.46,1.44-1.79Z"/>
  <path class="st40" d="M66.86,92.74c1.6-.36,3.64,3.1,1.42,3.59-1.6.36-3.64-3.1-1.42-3.59Z"/>
  <path class="st0" d="M103.92,178.41l5.78,1.13c2.18,4.41,2.23.62,5.74.32l-.71,5.03c.24.32,2.1-2.14,2.87-1.44.07.07.67,1.72.67,1.81-.01.27-3.44,3.68-4.26,1.78l1.43,2.87c-1.9-.77-6.49.55-7.56,2.21-.49.76.24,4.4-1.8,5.71,3.72.24,2.97,1.87,2.87,5.05l-5.77-2.17c2.43-3.63-5.85.82-4.32,2.17l2.16.36-3.59,2.17,2.87,1.07-2.16,2.87,3.59,1.45,2.17-2.16-.72,2.87c2.7.86,6.45-1.37,4.32,2.16l2.16,2.17c-1.61-2.55-3.96.08-3.55,1.73.21.83,1.89,1.09,2.44,1.91s.56,2.41,1.12,3.56c-2.47-.78-.57,2.87-2.51,2.15-3.49-1.3-.8-6.92-1.09-7.19-.15-.13-2.69.08-3.92-.77-1.98-1.38-.38-4.53-4.72-2.83-.63-1.89,1.04-1.2,1.28-1.78.09-.23-.21-1.9.16-2.54h-3.61c-.65-2.48.99-3.66,1.44-5.76l-2.15.73-.77-3.16c10.36-2.7,1.99-5.69,2.22-7.29.06-.41,1.84-1.13,2.46-1.88,1.28-1.52-.87-2.74,4.22-1.92.92.15,2.18,1.28,2.31,1.27.55-.04,3.59-8.53,8.27-5.02.74-1.98.78-4.02-1.43-5.04l-.38,2.17c-2.45-1.1-5.04-.44-7.55-.02,2.65-4.48-3.39-3.76-6.11-2.14l-1.09-2.89c2.22-.36,4.66-.15,7.2-.72Z"/>
  <path class="st41" d="M169.44,276.33l2.15.35c-1.14,1.33-1.48,2.56-1.45,4.29.06,4.2,5.03,7.58.02,11.21.07-.71-.03-1.45,0-2.16-1.29-.29-.46,1.17-.72,1.43-.33.33-1.76.37-1.4-1.03.8-3.11,3.66-1.53,3.56-4-.73-.13-2.51.28-2.85-.04-.2-.2-1.54-5.08-1.55-5.36-.2-2.98,1.83-3.24,2.24-4.68Z"/>
  <path class="st0" d="M88.8,225.93c.25.03,4.63,1.48,4.82,1.64,3.02,2.44-1.52,5.16,1.3,6.27,2.12.83,1.9-1.39,2.5-1.78,3.24-2.1,1.64,1.29,1.67,2.77.01.53.51,1.02.5,1.18-3.44.44-6.51-2.22-9.03-2.86-1.09-.27-3.3.33-3.83-.13-.24-.21-2.39-5.1-2.13-5.93.29-.92,3.6-1.23,4.19-1.16Z"/>
  <path class="st0" d="M114.72,177.7c.99-.25,3.59.1,3.59,1.07,0,1.58-3.21.54-3.59-1.07Z"/>
  <path class="st76" d="M191.04,171.94c.11.14-.04.99,0,1.43-5.98-1.34-1.44-3.19,0-1.43Z"/>
  <path class="st0" d="M108.24,228.1v.7s-2.87,0-2.87,0c.64-1.94,1.34-1.04,2.87-.7Z"/>
  <path class="st92" d="M125.52,84.09h3.6s-1.43,1.8-1.43,1.8c1.76,1,2.69,2.18,3.6,3.96-.11,0-1.74.57-2.16.72-4.06-.5-3.96.45-6.48-3.24,3.77-.38,1.2-1.3,1.77-2.56.18-.38.95-.47,1.1-.68Z"/>
  <path class="st51" d="M101.94,72.35c.73.46,5.21,1.4,6.3.95.93,1.76-1.58,1.35-1.44,1.78.13.41.93,1,1.09,1.81.92,4.7-1.11,3.32-2.17,5.04-.71,1.16-.05,3.15-.43,3.56-.6.65-3.13-1.34-1.37,2.2l-1.44-1.43c-1.3-.16-.01,1.45-1.76,1.52-3.24.13-8.33-2.34-11.91-2.25,4.58-2.62-.06-5.81,0-10.07l3.59.71-2.15-2.15c2.59-.43,6.01-.5,8.49-1.23,1.41-.41,2.04-1.4,2.67-1.66.53-.22.19,1.01.52,1.21Z"/>
  <path class="st5" d="M259.44,146.01c1.45-2.85,8.03-3.07,8.68,1.1l2.02.71c1.91-1.39,3.17-1.17,4.81.37.84-1.03,1.71-1.33,2.62-.91,4.94,5.03,10.16,9.6,15.67,13.7,1.32-1.72,2.89-2.42,4.46-.59,1.55-1.28,3.26-.69,3.73,1.17,1.82-1.66,2.33-.26,2.66,1.72,0,.24,0,.48,0,.72.09,2.93.38,7.23.72,10.08-.2-.93-2.8-5.04-3.31-5.08-1.58-.12-2.55,1.57-3.43,1.41-.23-.04-3.84-2.33-4.02-2.49-1.78-1.61-4.09-10.09-6.16-4.65-1.83-5.12-5.15-8.43-10.43-8.63l-1.08,2.16-2.17-3.58c-3.57,5.35-5.01.48-9.28.73-3.28.2-2.14,1.97-3.28,3.15-.17.17-4.18,1.26-4.71,1.16-.81-.15-.16-1.18-.37-1.46l2.15-.35c-4.09-3.86-.04-6.29.73-10.45Z"/>
  <path class="st58" d="M214.08,158.25c-2.9-.36-1.35-4.18,1.55-3.46-2.92-2.96.35-6.08,3.4-3.33.9-2.14,2.68-2.08,4.45-.77l1.77-1.43c-2.83-3.03-1.1-6.53,2.96-4.97,2.04-3.12,5.23-3.14,8.02-.86,2.38-1.72,4.44-.84,6.16,2.63-2.54-10.27,3.87-7.22,9.83-3.95-.12-1.59.25-2.81,1.11-3.65l9.05,2.93c-.76-1-1.29-3-.15-3.75.65-.43,13.42-.06,12.89,2.58,2.28-.66,5.52,1.8,7.37,3.65,3.78-1.12,3.7,5.86,3.31,5.74-.1-.03-.12-1.7,1.01-1.42.16-.57.62-1.29.99-1.14,5.06,2.02,10.24,4.59,13.08,8.96,1.95.76,4.06,2.18,3.21,4.42-.16.75,0,2,0,2.88-1.59-3.11-1.09.14-3.24.7l-1.44-3.59-1.09,2.89-2.51-2.87c-.87.65-2.93,3.61-3.95,2.87.23-3.03-1.95-2.51-2.79-3.34-3.76-3.69-7.71-6.87-11.33-10.65-.44-.46-.25-1.09-.3-1.12-.42-.25-1.35,1.47-2.5,1.46s-1.7-1.48-2.88-1.49c-.46,0-.32,1.48-.76,1.52-.22.02-4-1.27-4.21-1.43-.72-.56-.1-1.79-.91-2.24-1.98-1.11-4.68-.55-6.73.02-1.81.5-1.44,1.24-1.8,1.31-.73.14-5.23-.81-5.4-.59-.46,7.63-1.88,5.69-6.97,5.32-2.68-.2-6.54-.03-9.13-.32-.38-.04-2.44-3.06-2.98-3.54l-1.8,2.86c2.05.12,3.07.91,3.6,2.88h-2.88s.72,3.6.72,3.6l-2.16-3.59c-1.94-.64-2.21,3.66-3.59,2.16-.13-.14.64-2.37-1.81-2.89-.31-.07-.52,1.27-1.14,1.74s-1.73.12-2.1.94c-.64,1.37-.34,3.76,0,5.25l-2.15-1.44c.07,1.48-.89,2.47-1.45,3.6-2.81-1.44,1.17-4.57-4.32-5.04Z"/>
  <path class="st56" d="M214.08,158.25c-.21.56-1.63,3.56-1.91,3.63-3.31.85-5.15-1.5-6.36-1.5-.56,0-.26,1.42-.67,1.41-1.43-.05-2.87-2.09-3.65.78-2.04-.39-1.58-2.29-1.98-2.68-.5-.48-1.87-.21-2.39-.89-.85-1.1.7-3.46-1.76-2.92l-1.44,4.32c.56-1.34-3-7.04-2.16-7.92,1.4-1.48,1.41,2.81,2.88,1.43.14-.13-.1-3.61-.15-3.79-.82-2.61-3.94-1.75-4.17-1.97-1.75-1.72,1.59-2.79,3.6-1.44,1.1-2.31-1.99-4.02-2.15-4.69-.4-1.72,3.35-1.49,2.11-3.2-.1-.14-1.35.15-1.34-.33,0-.44.75-1.28.71-2.12-.01-.27-3.67-1.75-1.11-3.34,3,2.82,3.31-.99,5.01-.71,1.79.3.01,3.21.37,3.59.73.77,2.37-1.44,2.52-1.43.54.04.76,1.7,1.25,1.99.68.4,1.85-.07,2.53.32.49.29.72,1.96,1.25,1.98.22.01,1.31-1.89,2.93-2.15,1.28-.2,2.67.5,3.91.45.72-.03,1.46-1.05,2.38-1,1.9.1,4.25,1.83,6.97.55-.21-.84-4.01-2.99-2.16-3.97.53-.28,1.4.35,2.12.02.97-.44,1.65-2.46,2.82-1.68.36.24-.48,2.21,3.01.99,2.8-.97,2.51-3.97,3.21-3.98,1.46-.03.17,3.92.89,5.55.78,1.76,2.82,2.5,4.16,3.71,2.43-1.46,1.41-4.65,1.8-7.12-1.89.67-4.18-.61-2.88-2.16.12-.14,2.69.92,3.59-.01l.36,2.17c2.48-.81,1.46-2.01,1.08-4.31l5.04.71c-1.66-6.18,2.26.1,2.89.41.72.35,1.59-.38,2.01-.17.2.1.23,1.15.49,1.23,2.29.67,1.68-1.37,1.81-1.46.58-1.01,3.87-.96,4.8.29,3.14,4.23-5.87,5-8.49,4.6-.25.33,3.57,5.42,5.45,3.82,1.42,1.53,2.98,2.02,4.7,1.48-.01-3.79,2.52-4.03,4.47-1.04-.4-1.15.8-2.15,3.58-2.99-1.66-1.44-4.9-6.74-1.59-7.28.82-.13,5.99,4.03,5.49,5.16,2.94-.87,4.46,3.69,2.48,5.31q-.8.66,0,0c2.79.3,5.07,1.2,6.86,2.68,1.69-.71,3.11-.03,3.44,1.75,5.84-2.17,8.07,4.72,4.1,7.81-.71,5.23-1.12-.16-3.6-1.08,2.78.36-.28-3.05-.72-3.24q1.2-1.03,0,0c-.45-.19-1.72.17-2.84-.37-.95-.46-1.58-2.1-2.53-2.23-.82-.12-2.48.89-3.21.39-.38-.26-.54-2.57-.79-2.83-1.46-1.45-1.49,1.48-.97,2.17.73.96,7.53,3.64,4.21,4.31-4.72.95-4.85-4.32-5.86-5.1-1.53-1.19-5.35-.94-7.1-2.09-1.47,1.59,1.37,3.31,1.09,3.94-1.22,2.66-4.46-1.65-3.6,2.53-1.29-.3-.98-2.06-2.19-3.2-.66-.63-3-1.7-3.93-1.84-2.51-.37.1,3.14-.36,3.6-.12.13-2.79.14-3.25,1.44-1.71-3.42-4.66-3.84-8.27-4.3,3.59,17.02-3.23,3.55-4.01,3.55-1.18,0-2.43,1.57-3.52,1.53-.28,0-1.14-3.31-4.53-1.68-2.11,1.02-1.43,2.86-1.64,3.07-1.31,1.32-1.46-1.48-1.86-1.49-3.63-.09-1.98,1.8-.58,3.61.69.89,2.3.3,1.72,2.19-3.4-1.35-4.41,1.48-4.68,1.47-1.19-.03-1.66-1.43-2.87-1.49-.36-.02-.55,2.13-2.18,1.92-.57-.07-1.88-1.85-2.51-1.17-1.9,2.04,2.77,2.45,2.87,3.58-1.14-.34-1.49,1.45-1.87,1.45-.71.01-2.67-1.15-3.16-.72-.21.19.18,1.67,0,2.16Z"/>
  <path class="st3" d="M251.52,126.57v-1.81c2.99,2.45,1.48-2.29,5.03,1.08-.1-1.92,1.08-3.98,3.22-3.63.36.06.37,1.17.53,1.23.79.26,3.86.39,4.96.68,1.36.36,1.99,1.75,3.88,1.78s3.15-1.24,4.7-1.86c.65-.25,1.7.25,2.17-.05,1-.63.8-2.49,2.5-2.49.5,0,.12,1,.9,1.41.64.33,2.15-.16,2.74.72.51.74.16,2.47.69,3.63.32.7,1.49,1.37,2.1,2.25.7,1.01-.21,2.88,2.2,2.1.48-.15.45-1.54,1.4-1.89,4.05-1.51,4.28,1.49,5.16,1.77,1.15.38,2.71-.12,4.05.29,4.1,1.27,7.29,5.77,9.91,8.45l2.16,1.44c.11.38-.07.98,0,1.44.16,1.09-.38,2.6.33,3.62.93,1.32,5.4.94,3.98,5.74l-2.15-1.44v2.88s1.43-.73,1.43-.73c1.18,4.44-1.48,4.23-2.81,6.2-.61.91-.88,4.98-2.95,3.16-.31-.27.76-1.48.58-2.05-.06-.18-2.76-1.78-3.11-2.26-.12-.03-1.04,1.97-1.08,2.16-1.77-1.59-2.22-3.23-5.05-3.23-1.96-1.58,1.07-.85.73-1.44-.63-1.1-4.23-1.53-4.82-4l-8.14-3.56c.3-2.19.21-4.32.72-6.48-2.64,1.56-2.11-.68-2.46-.67-.65.03-1.63,1.03-2.86.63-.98-.32-.98-1.84-1.24-2.04-.2-.15-2.64,1.13-3.52.62-.08-.05.84-1.4.06-1.82-2.6-1.42-3.08,1.57-5.1-2.5-1.06-2.14-.74-6.84-2.52-2.88-2.64-1.26-.95-3.42-1.1-3.56s-1.43.04-2.07-.43c-1.03-.76-1.05-2.55-2.58-2.49.56,2.42,2.07,4.54,3.94,6.13-1.63,2.09-2.39,2.63-5.02,1.81l2.16,2.15c-3.79,1.2-3.36.26-5.75-2.15v4.32c-1.52-1.43-3.71.1-4.65-.09-.84-.17-.86-1.71-1.25-1.97-.67-.44-2.73.77-3.75-.03-.67-.53-.18-1.65-.6-2.06-.46-.45-1.52.15-2.01-.65-.31-.51-1.65-4.97-1.42-5.28.57,1.88,9.01,1.06,9.36.72.08-.08.07-2.08,0-2.15-.13-.13-3.45-.83-3.6-.72Z"/>
  <path class="st43" d="M309.84,141.69c-2.3-.68-1.1,1.77-1.44,2.16-1.5,1.7-1.97-2.51-.72-3.6.25.26,1.72-.08,2.16,1.44Z"/>
  <path class="st14" d="M252.96,122.25c-1.56-.04-3.04,1.32-3.6-.71,1.56.04,3.04-1.32,3.6.71Z"/>
  <path class="st19" d="M91.69,120.09c-.54-.54-.33-2.91,1.79-2.15,2.48.89-.84,3.1-1.79,2.15Z"/>
  <path class="st81" d="M96.72,121.54c.54.54.33,2.91-1.79,2.15-2.48-.89.84-3.1,1.79-2.15Z"/>
  <path class="st16" d="M93.12,129.45c-.26.25-2.69.45-2.15-1.07.8-2.22,2.9.37,2.15,1.07Z"/>
  <path class="st57" d="M132.37,92.02c2.13-.47,2.45,3.94.7,4.31-2.16.46-3.4-3.72-.7-4.31Z"/>
  <path class="st56" d="M238.56,146.74v2.15c-1.5.09-2.7.27-3.58-1.08.88-1.35,2.08-1.16,3.58-1.08Z"/>
  <path class="st58" d="M272.4,135.93c.1.24.26,2.13-.36,2.16l-1.8-2.87c.34-.28,2.06.48,2.16.71Z"/>
  <path class="st3" d="M282.48,143.85c-1.28-2.05,3.43-2.06,2.15,0h-2.15Z"/>
</svg>