<?xml version="1.0" encoding="UTF-8" standalone="no"?>
<svg
   version="1.1"
   width="113.00098"
   height="185.66756"
   id="svg88"
   sodipodi:docname="bear1-a.svg"
   xmlns:inkscape="http://www.inkscape.org/namespaces/inkscape"
   xmlns:sodipodi="http://sodipodi.sourceforge.net/DTD/sodipodi-0.dtd"
   xmlns="http://www.w3.org/2000/svg"
   xmlns:svg="http://www.w3.org/2000/svg">
  <sodipodi:namedview
     id="namedview90"
     pagecolor="#ffffff"
     bordercolor="#000000"
     borderopacity="0.25"
     inkscape:showpageshadow="2"
     inkscape:pageopacity="0.0"
     inkscape:pagecheckerboard="0"
     inkscape:deskcolor="#d1d1d1" />
  <defs
     id="defs7">
    <linearGradient
       id="grad_1"
       x1="41.942402"
       y1="65.558601"
       x2="32.9417"
       y2="29.7223"
       gradientUnits="userSpaceOnUse">
      <stop
         offset="0"
         stop-color="#FFFFFF"
         id="stop2" />
      <stop
         offset="0.9939"
         stop-color="#75AAE6"
         id="stop4" />
    </linearGradient>
  </defs>
  <!-- Exported by Scratch - http://scratch.mit.edu/ -->
  <g
     id="ID0.5055672693997622"
     transform="matrix(1.2155062,0,0,1.2155062,-0.32306874,-1.0407103)">
    <g
       id="ID0.5343494359403849">
      <g
         id="ID0.6494625816121697">
        <g
           id="L_Leg">
          <path
             id="Fill_13_"
             fill="#ffffff"
             d="m 42.625,109.363 -0.341,-0.288 C 44.859,85.684 11.198,82.701 11.198,82.701 c -0.016,0.03 -0.025,0.061 -0.041,0.091 l -0.198,-0.167 c 0,0 -2.01,6.291 -0.235,13.875 1.775,7.584 9.192,20.25 10.025,24.25 v 0.584 c 0,0 -13.25,-0.333 -16.667,4.75 -3.417,5.083 -2.667,6.084 0,6.75 2.667,0.666 3.25,0.916 3.25,0.916 0,0 -0.133,1.855 3.392,1.97 3.525,0.115 21.108,-0.219 25.275,-0.886 4.167,-0.667 4.152,-4.5 3.201,-7 -0.951,-2.5 -3.867,-12.191 3.425,-18.471 z"
             transform="matrix(1.1025,0,0,1.1025,-1.4,-0.2)" />
          <path
             id="Outline_22_"
             d="m 42.788,109.553 -0.326,-0.379 c -7.619,6.561 -4.248,16.77 -3.494,18.749 0.258,0.677 1.017,3.028 -0.035,4.847 -0.567,0.981 -1.567,1.593 -2.972,1.817 -4.235,0.678 -21.858,0.994 -25.227,0.883 -1.68,-0.055 -2.447,-0.516 -2.795,-0.894 -0.372,-0.403 -0.357,-0.795 -0.356,-0.809 l 0.013,-0.177 -0.003,-0.002 c 0.059,-0.834 0.521,-4.438 4.127,-5.891 3.906,-1.573 6.323,-1.531 6.531,-1.573 0,0 -10.667,-1.167 -11.036,7.316 v 0 c -0.347,-0.118 -1.189,-0.38 -3.071,-0.85 -1.232,-0.308 -1.816,-0.646 -2.017,-1.169 -0.335,-0.871 0.022,-2.711 2.164,-5.199 3.959,-4.599 16.325,-4.641 16.453,-4.64 L 21,121.59 c 0.256,0.006 3.083,0.202 3.083,0.202 -0.622,-0.241 -2.471,-0.597 -3.086,-0.712 l -0.002,-0.381 c -0.367,-1.762 -1.964,-5.123 -3.813,-9.015 -2.443,-5.141 -5.212,-10.969 -6.212,-15.241 -1.738,-7.424 0.209,-13.68 0.229,-13.742 l -0.477,-0.152 c -0.02,0.063 -2.01,6.444 -0.24,14.007 1.013,4.325 3.794,10.179 6.249,15.343 1.835,3.862 3.42,7.198 3.77,8.851 v 0.33 c -1.927,-0.022 -12.833,0.337 -16.625,4.864 -2.284,2.727 -2.626,4.591 -2.216,5.657 0.331,0.86 1.331,1.218 2.363,1.475 1.938,0.484 2.771,0.749 3.071,0.852 0.028,0.222 0.127,0.599 0.462,0.97 0.597,0.663 1.661,1.023 3.162,1.072 0.438,0.014 1.117,0.021 1.976,0.021 5.765,0 19.643,-0.317 23.347,-0.91 1.561,-0.25 2.679,-0.943 3.326,-2.062 1.162,-2.01 0.347,-4.545 0.069,-5.274 -0.734,-1.925 -4.014,-11.849 3.352,-18.192 z"
             transform="matrix(1.1025,0,0,1.1025,-1.4,-0.2)" />
        </g>
        <g
           id="Tail">
          <path
             id="Fill_16_"
             fill="#ffffff"
             d="m 79.396,75.211 c 1.707,0 3.254,0.688 4.374,1.8 1.121,1.111 1.814,2.646 1.814,4.34 0,1.694 -0.693,3.229 -1.814,4.34 -1.12,1.112 -2.667,1.8 -4.374,1.8 -1.707,0 -3.254,-0.688 -4.374,-1.8 -1.121,-1.111 -1.814,-2.646 -1.814,-4.34 0,-1.694 0.693,-3.229 1.814,-4.34 1.12,-1.112 2.667,-1.8 4.374,-1.8 z"
             transform="matrix(1.1025,0,0,1.1025,-1.4,-0.2)" />
          <path
             id="Outline_26_"
             d="m 79.396,87.74 c -3.55,0 -6.438,-2.866 -6.438,-6.39 0,-3.524 2.888,-6.39 6.438,-6.39 3.55,0 6.438,2.867 6.438,6.39 0,3.523 -2.889,6.39 -6.438,6.39 z m 0,-12.28 c -3.274,0 -5.938,2.642 -5.938,5.89 0,3.248 2.663,5.89 5.938,5.89 3.275,0 5.938,-2.642 5.938,-5.89 -0.001,-3.247 -2.664,-5.89 -5.938,-5.89 z"
             transform="matrix(1.1025,0,0,1.1025,-1.4,-0.2)" />
        </g>
        <g
           id="Body_3_">
          <path
             id="Fill_15_"
             fill="#ffffff"
             d="m 35.958,25.375 c 0,0 -4.314,9.719 -14.447,31.201 C 11.343,78.134 3.166,89.5 22.167,104.917 41.168,120.334 91.849,105.834 77.334,73.537 67.417,51.473 60.454,41.14 55.086,21.95 53.215,15.262 36.625,14.92 35.958,25.375 Z"
             transform="matrix(1.1025,0,0,1.1025,-1.4,-0.2)" />
          <path
             id="Outline_25_"
             d="m 42.819,111.351 c -0.001,0 -0.002,0 -0.003,0 -8.459,0 -15.849,-2.216 -20.808,-6.239 C 4.598,90.984 9.852,80.133 18.557,62.155 19.437,60.339 20.353,58.447 21.286,56.469 31.3,35.236 35.687,25.37 35.729,25.273 c 0.351,-5.736 5.562,-8.342 10.561,-8.342 4.505,0 8.221,2.036 9.037,4.952 3.643,13.024 8.023,21.965 13.57,33.285 2.572,5.25 5.487,11.199 8.664,18.267 3.7,8.233 3.423,16.036 -0.801,22.565 -5.94,9.182 -19.58,15.351 -33.941,15.351 z m 3.471,-93.92 c -4.766,0 -9.732,2.461 -10.083,7.959 -0.064,0.183 -4.453,10.052 -14.47,31.292 -0.934,1.979 -1.85,3.873 -2.73,5.691 -8.597,17.755 -13.786,28.472 3.317,42.35 4.87,3.952 12.147,6.128 20.492,6.128 14.199,0.001 27.672,-6.076 33.524,-15.123 C 80.467,89.349 80.732,81.71 77.105,73.64 73.931,66.58 71.018,60.634 68.448,55.388 62.89,44.046 58.501,35.087 54.844,22.018 54.09,19.317 50.571,17.431 46.29,17.431 Z"
             transform="matrix(1.1025,0,0,1.1025,-1.4,-0.2)" />
        </g>
        <g
           id="R_Leg">
          <path
             id="Fill_12_"
             fill="#ffffff"
             d="M 76.958,106.5 C 78.55,99.521 87.682,86.624 74.076,77.074 l -0.732,-0.807 c -33.614,-5.733 -28.112,27.315 -28.112,27.315 0.017,0.004 0.032,0.007 0.048,0.01 l -0.196,0.191 c 0,0 10.199,7.498 10.975,19.67 0,0 -4.5,2.895 -5.487,7.408 -0.987,4.513 -0.913,6.389 5.487,5.639 0,0 1.65,2.875 8.15,2.75 6.5,-0.125 8,-0.75 8.125,-2.375 0,0 5.125,0.941 7.062,-0.904 1.937,-1.845 0.562,-3.822 -1.938,-7.521 -2.5,-3.699 -2.125,-14.825 -0.5,-21.95 z"
             transform="matrix(1.1025,0,0,1.1025,-1.4,-0.2)" />
          <path
             id="Outline_23_"
             d="m 77.665,128.31 c -2.391,-3.537 -2.162,-14.304 -0.463,-21.754 0.312,-1.367 0.933,-3.007 1.591,-4.743 2.487,-6.562 5.777,-15.255 -1.704,-22.591 0.192,0.388 0.356,0.758 0.488,1.014 0.006,0.011 0.011,0.022 0.017,0.034 0.234,0.336 0.442,0.688 0.646,1.045 5.197,6.75 2.324,14.415 0.086,20.32 -0.664,1.753 -1.292,3.409 -1.611,4.81 -1.722,7.551 -1.925,18.502 0.537,22.145 l 0.09,0.134 c 2.426,3.588 3.644,5.39 1.882,7.067 -1.564,1.49 -5.442,1.047 -6.542,0.887 0.294,-1.264 0.799,-4.812 -1.66,-8.364 0,0 2.219,4.781 0.863,9.227 -0.538,0.897 -2.33,1.358 -7.681,1.461 -4.614,0.088 -6.731,-1.38 -7.527,-2.157 -0.062,-0.061 -0.115,-0.116 -0.162,-0.168 -0.222,-0.308 -0.581,-1.145 -0.493,-3.3 0.125,-3.062 1.188,-5.062 2,-5.75 0,0 -2.688,1.062 -2.562,6.375 0,0 0.115,1.792 0.295,2.279 -2.706,0.289 -4.235,0.091 -4.911,-0.655 -0.716,-0.79 -0.562,-2.265 -0.027,-4.709 0.953,-4.357 5.334,-7.224 5.379,-7.252 l 0.117,-0.075 c 3.142,-1.984 8.855,-1.297 8.855,-1.297 -5.333,-1.22 -8.405,0.448 -8.895,0.744 -0.971,-11.913 -10.938,-19.379 -11.04,-19.453 0,0 -0.709,-0.57 -2.606,-1.414 0,0 2.737,2.138 3.306,2.64 2.557,2.241 9.196,8.936 9.868,18.518 -0.753,0.515 -4.556,3.289 -5.473,7.482 -0.498,2.278 -0.804,4.104 0.145,5.152 0.818,0.9 2.455,1.145 5.464,0.806 0.424,0.585 2.358,2.738 7.861,2.738 0.137,0 0.276,-0.001 0.417,-0.004 6.035,-0.116 8.028,-0.65 8.335,-2.336 1.094,0.168 5.246,0.677 7.021,-1.013 2.066,-1.969 0.688,-4.008 -1.813,-7.709 z"
             transform="matrix(1.1025,0,0,1.1025,-1.4,-0.2)" />
        </g>
        <g
           id="Snowball">
          <path
             id="Snowball_1_"
             fill="url(#grad_1)"
             d="m 45.688,53.706 c -0.945,-3.449 -3.7,-5.553 -7.254,-5.172 -2.524,0.271 -5.914,2.181 -5.54,5.023 -1.23,3.037 2.448,7.191 5.722,6.899 0.939,0.259 1.926,0.282 2.676,-0.013 1.229,-0.483 2.621,-0.624 3.461,-1.831 0.545,-0.785 0.74,-1.433 0.646,-2.386 -0.09,-0.909 0.551,-1.562 0.289,-2.52 z"
             transform="matrix(1.1025,0,0,1.1025,-1.4,-0.2)"
             style="fill:url(#grad_1)" />
          <path
             id="Outline_19_"
             d="m 40.038,60.908 v 0 c -0.475,0 -0.989,-0.073 -1.488,-0.21 -0.029,0.018 -0.146,0.023 -0.265,0.023 -1.769,0 -3.689,-1.154 -4.892,-2.939 -0.969,-1.438 -1.242,-2.985 -0.755,-4.257 -0.109,-0.958 0.167,-1.864 0.82,-2.694 1.196,-1.52 3.347,-2.374 4.949,-2.545 3.62,-0.388 6.53,1.738 7.521,5.354 0.164,0.597 0.021,1.076 -0.118,1.54 -0.103,0.341 -0.198,0.664 -0.163,1.022 0.098,0.983 -0.096,1.699 -0.689,2.553 -0.686,0.986 -1.701,1.307 -2.683,1.617 -0.3,0.095 -0.601,0.189 -0.892,0.304 -0.39,0.154 -0.843,0.232 -1.345,0.232 z m -1.444,-0.7 c 0.545,0.134 1.014,0.201 1.444,0.201 v 0 c 0.439,0 0.83,-0.066 1.162,-0.197 0.302,-0.119 0.613,-0.218 0.925,-0.316 0.943,-0.298 1.834,-0.579 2.423,-1.425 0.524,-0.755 0.688,-1.357 0.602,-2.219 -0.045,-0.457 0.07,-0.842 0.183,-1.215 0.123,-0.414 0.24,-0.805 0.114,-1.264 -0.925,-3.373 -3.619,-5.349 -6.986,-4.989 -1.497,0.161 -3.503,0.952 -4.609,2.357 -0.582,0.739 -0.82,1.542 -0.709,2.385 l 0.008,0.065 -0.024,0.061 c -0.457,1.127 -0.208,2.531 0.682,3.851 1.166,1.731 3.117,2.858 4.785,2.705 z"
             transform="matrix(1.1025,0,0,1.1025,-1.4,-0.2)" />
        </g>
        <g
           id="Arm_3_">
          <path
             id="Fill_11_"
             fill="#ffffff"
             d="m 32.402,53.062 c 0,0 7.244,1.438 9.244,0.5 2,-0.938 1.312,-1.625 1.312,-1.625 0,0 2.273,0.5 2.793,-0.875 0.52,-1.375 -0.23,-1.521 -1.418,-2.573 -1.188,-1.052 -4.625,-5.052 -8.375,-2.99 -3.75,2.062 -5.938,4 -7.562,4.312 -1.624,0.312 -4.062,0.438 -4.062,0.438 0,0 7,-14.438 7.125,-14.938 0.125,-0.5 -3.729,0.5 -5.489,2.875 -1.76,2.375 -13.449,14.126 -14.949,19.033 -1.5,4.907 -0.375,5.406 1.25,5.781 1.625,0.375 15.575,-1.562 20.131,-9.938 z"
             transform="matrix(1.1025,0,0,1.1025,-1.4,-0.2)" />
          <path
             id="Outline_21_"
             d="M 45.144,48.834 C 44.951,48.681 44.734,48.51 44.499,48.302 44.37,48.188 44.214,48.038 44.033,47.865 42.869,46.747 40.7,44.667 38.152,44.667 c -0.796,0 -1.575,0.206 -2.315,0.613 -1.557,0.856 -2.819,1.674 -3.933,2.396 -1.539,0.997 -2.65,1.716 -3.557,1.891 -1.188,0.229 -2.836,0.357 -3.604,0.408 1.264,-2.607 6.836,-14.122 6.957,-14.602 l 0.018,-0.184 -0.075,-0.096 c -0.109,-0.14 -0.298,-0.156 -0.43,-0.156 -0.941,0 -3.928,1.055 -5.445,3.102 -0.461,0.623 -1.636,1.921 -3.122,3.565 -4.28,4.734 -10.748,11.888 -11.865,15.542 -0.793,2.596 -0.919,4.149 -0.408,5.036 0.393,0.68 1.095,0.89 1.841,1.062 0.144,0.033 0.356,0.05 0.63,0.05 0,0 0,0 0,0 3.634,0 15.462,-2.454 19.688,-9.951 0.828,0.156 4.339,0.788 6.872,0.788 1.09,0 1.857,-0.111 2.348,-0.341 0.949,-0.445 1.473,-0.917 1.558,-1.401 0.009,-0.05 0.013,-0.097 0.013,-0.142 0.154,0.017 0.341,0.03 0.544,0.03 1.108,0 1.841,-0.389 2.118,-1.125 0.48,-1.271 -0.046,-1.688 -0.841,-2.318 z m 0.374,2.14 c -0.442,1.169 -2.497,0.722 -2.506,0.719 0,0 -1.845,-2.578 -4.137,-2.86 0,0 3.653,2.135 3.942,3.468 -0.024,0.143 -0.199,0.529 -1.278,1.034 -0.416,0.195 -1.134,0.294 -2.135,0.294 -2.825,0 -6.913,-0.805 -6.954,-0.812 l -1.409,-0.526 c 0,0 0.45,0.493 1.04,0.81 -4.122,7.297 -15.681,9.692 -19.237,9.692 -0.31,0 -0.458,-0.023 -0.518,-0.037 -0.659,-0.152 -1.228,-0.319 -1.52,-0.825 -0.431,-0.746 -0.287,-2.22 0.453,-4.639 1.084,-3.547 7.765,-10.938 11.757,-15.353 1.495,-1.654 2.677,-2.96 3.152,-3.603 1.319,-1.78 3.899,-2.785 4.964,-2.884 -0.615,1.411 -4.381,9.232 -6.973,14.58 -0.769,0.012 -4.794,0.157 -8.171,1.874 0,0 5.15,-1.426 7.935,-1.385 l 0.422,-0.022 c 0.101,-0.005 2.474,-0.129 4.097,-0.441 1.001,-0.193 2.147,-0.935 3.734,-1.962 1.106,-0.717 2.361,-1.529 3.902,-2.376 0.665,-0.366 1.363,-0.551 2.074,-0.551 2.348,0 4.421,1.989 5.535,3.059 0.186,0.178 0.347,0.333 0.479,0.45 0.242,0.214 0.467,0.392 0.666,0.55 0.775,0.611 1.036,0.818 0.686,1.746 z"
             transform="matrix(1.1025,0,0,1.1025,-1.4,-0.2)" />
        </g>
        <g
           id="Arm_2_">
          <path
             id="Fill_10_"
             fill="#ffffff"
             d="m 44.549,58.47 c 0,0 -3.645,-1.154 -2.43,-2.812 1.215,-1.658 2.67,-0.674 3.692,-0.479 1.022,0.195 3.022,1.325 4.897,1.573 1.875,0.248 11.625,-4.082 13.125,-3.729 0,0 -5.5,-8.853 -7.125,-11.313 -1.625,-2.46 -2,-5.49 -1.625,-7.35 0.375,-1.86 1.5,-2.735 3.75,-2.985 2.25,-0.25 9.375,-1.079 16.375,15.648 7,16.727 0.626,16.477 -1.874,17.227 -2.5,0.75 -21.5,-1.591 -23.125,-0.858 -1.625,0.733 -5.295,1.23 -7.25,1.008 -1.875,-0.213 -8.274,-0.958 -7.45,-4.554 0,0 5.83,1.22 9.04,-1.376 z"
             transform="matrix(1.1025,0,0,1.1025,-1.4,-0.2)" />
          <path
             id="Outline_20_"
             d="M 75.438,46.926 C 71.087,36.53 65.817,31.034 60.197,31.034 c -0.564,0 -1.034,0.052 -1.392,0.092 -2.385,0.265 -3.571,1.217 -3.968,3.184 -0.386,1.915 -0.022,4.988 1.661,7.537 1.41,2.135 5.799,9.181 6.88,10.918 -1.136,0.115 -3.497,0.947 -5.985,1.824 -2.815,0.992 -5.756,2.036 -6.652,1.915 -1.104,-0.146 -2.287,-0.62 -3.237,-1 -0.654,-0.262 -1.219,-0.489 -1.646,-0.57 -0.198,-0.038 -0.412,-0.107 -0.639,-0.18 -0.43,-0.137 -0.915,-0.292 -1.42,-0.292 -0.75,0 -1.365,0.343 -1.883,1.048 -0.288,0.394 -0.367,0.799 -0.234,1.206 0.297,0.906 1.633,1.547 2.344,1.83 -1.616,1.097 -3.784,1.336 -5.372,1.336 h -0.001 c -1.726,0 -3.08,-0.278 -3.093,-0.281 l -0.24,-0.05 -0.055,0.239 c -0.183,0.798 -0.049,1.524 0.399,2.157 1.445,2.041 5.826,2.538 7.266,2.702 0.328,0.037 0.702,0.055 1.107,0.055 2.134,0 4.948,-0.486 6.273,-1.083 0.102,-0.046 0.428,-0.122 1.481,-0.122 2.016,0 5.537,0.268 9.265,0.551 3.891,0.296 7.914,0.602 10.325,0.602 1.001,0 1.662,-0.053 2.023,-0.161 0.212,-0.063 0.452,-0.12 0.71,-0.18 1.261,-0.295 2.986,-0.699 3.902,-2.492 1.353,-2.646 0.509,-7.517 -2.578,-14.893 z m 2.134,14.664 c -0.811,1.586 -2.341,1.944 -3.57,2.232 -0.27,0.062 -0.52,0.122 -0.741,0.188 -1.095,0.327 -6.761,-0.049 -12.166,-0.46 -3.737,-0.284 -7.268,-0.552 -9.303,-0.552 -1.169,0 -1.516,0.089 -1.687,0.166 -1.271,0.573 -3.993,1.04 -6.068,1.04 -0.385,0 -0.74,-0.016 -1.051,-0.052 -1.385,-0.157 -5.599,-0.636 -6.915,-2.494 -0.323,-0.457 -0.443,-0.956 -0.364,-1.521 0.478,0.083 1.589,0.245 2.944,0.245 0,0 0,0 10e-4,0 1.792,0 4.296,-0.298 6.052,-1.718 l 0.361,-0.292 -0.443,-0.14 c -0.596,-0.188 -2.199,-0.856 -2.466,-1.671 -0.081,-0.248 -0.028,-0.495 0.163,-0.754 0.422,-0.576 0.892,-0.844 1.479,-0.844 0.427,0 0.854,0.137 1.268,0.269 0.247,0.079 0.481,0.153 0.697,0.194 0.38,0.073 0.924,0.291 1.554,0.543 0.977,0.391 2.192,0.878 3.357,1.032 0.992,0.127 3.846,-0.868 6.885,-1.939 2.082,-0.734 4.055,-1.47 5.205,-1.708 C 64.248,53.143 66.958,53 66.958,53 66.312,52.779 64.635,52.765 63.969,52.768 63.303,51.697 58.422,43.851 56.917,41.572 55.32,39.155 54.974,36.165 55.328,34.409 c 0.351,-1.739 1.374,-2.546 3.547,-2.787 0.331,-0.037 0.786,-0.087 1.322,-0.087 5.402,0 10.514,5.389 14.78,15.585 2.985,7.13 3.858,11.999 2.595,14.47 z"
             transform="matrix(1.1025,0,0,1.1025,-1.4,-0.2)" />
        </g>
        <g
           id="Scarf_1_">
          <g
             id="Bottom_1_">
            <g
               id="Fringe_1_">
              <path
                 id="ID0.30661043897271156"
                 fill="#428736"
                 d="m 80.457,53.802 c -1.409,-0.114 -3.226,-0.788 -3.88,-1.396 l -0.081,0.085 -1.136,-0.479 0.292,-0.263 c 0.032,-0.03 3.294,-3.012 3.379,-6.315 l 0.01,-0.358 0.333,0.132 c 0.159,0.063 0.525,0.233 0.641,0.495 l 0.037,0.017 c 1.316,0.596 2.554,0.686 3.173,0.686 0.353,0 0.563,-0.027 0.572,-0.028 l 0.051,-0.007 0.049,0.014 c 0.296,0.082 0.457,0.223 0.48,0.421 0.036,0.3 -0.289,0.505 -0.39,0.561 -0.354,0.061 -0.632,0.075 -0.914,0.075 -1.062,0 -2.377,-0.211 -3.075,-0.566 -0.022,0.16 -0.057,0.343 -0.106,0.547 1.266,0.543 2.44,0.626 3.039,0.626 0.354,0 0.568,-0.028 0.577,-0.029 l 0.051,-0.007 0.05,0.014 c 0.295,0.083 0.456,0.225 0.479,0.422 0.035,0.301 -0.289,0.506 -0.39,0.562 -0.354,0.061 -0.633,0.075 -0.916,0.075 -1.145,0 -2.587,-0.245 -3.229,-0.653 -0.072,0.171 -0.151,0.34 -0.238,0.51 1.543,0.795 2.971,0.859 3.385,0.859 L 82.813,49.8 c 0.388,0.12 0.539,0.274 0.547,0.473 0.012,0.302 -0.326,0.48 -0.431,0.527 l -0.32,0.026 c -1.433,0 -3.192,-0.465 -3.823,-0.979 -0.121,0.182 -0.255,0.369 -0.398,0.56 1.716,0.965 3.298,0.988 3.314,0.988 0.381,0.144 0.522,0.308 0.519,0.507 -0.006,0.302 -0.352,0.46 -0.457,0.501 -1.516,-0.018 -3.395,-0.595 -4.062,-1.171 -0.118,0.132 -0.244,0.266 -0.375,0.401 1.646,1.032 3.205,1.151 3.221,1.152 0.373,0.165 0.506,0.337 0.491,0.537 -0.023,0.3 -0.377,0.438 -0.484,0.472 l -0.048,0.016 z"
                 transform="matrix(1.1025,0,0,1.1025,-1.4,-0.2)" />
              <g
                 id="ID0.9097203966230154">
                <path
                   id="ID0.3860461749136448"
                   d="m 79.281,45.44 c 0,0 0.67,0.266 0.488,0.52 0,0 0.002,0.011 0.003,0.03 0.083,-0.037 0.176,-0.044 0.176,-0.044 1.33,0.603 2.571,0.708 3.276,0.708 0.381,0 0.605,-0.031 0.605,-0.031 0.652,0.181 0.036,0.522 0.036,0.522 -0.253,0.03 -0.521,0.043 -0.793,0.043 -1.391,0 -2.913,-0.355 -3.26,-0.748 -0.012,-0.015 -0.015,-0.022 -0.024,-0.035 -0.009,0.282 -0.059,0.689 -0.204,1.195 0.042,-0.009 0.074,-0.011 0.074,-0.011 1.326,0.6 2.564,0.706 3.271,0.706 0.384,0 0.61,-0.031 0.61,-0.031 0.651,0.182 0.036,0.524 0.036,0.524 -0.253,0.03 -0.521,0.043 -0.795,0.043 -1.392,0 -2.912,-0.355 -3.259,-0.748 -0.031,-0.035 -0.046,-0.064 -0.067,-0.094 -0.117,0.327 -0.273,0.682 -0.487,1.066 0.003,0 0.006,0 0.008,0 0.016,0 0.027,-10e-4 0.027,-10e-4 1.667,0.92 3.246,0.992 3.696,0.992 0.082,0 0.127,-0.002 0.127,-0.002 0.638,0.232 -0.001,0.523 -0.001,0.523 -0.071,0.002 -0.144,0.004 -0.217,0.004 -1.521,0 -3.413,-0.552 -3.776,-1.034 -0.036,-0.045 -0.055,-0.082 -0.073,-0.118 -0.205,0.334 -0.455,0.688 -0.744,1.054 1.887,1.154 3.685,1.167 3.685,1.167 0.625,0.271 -0.027,0.526 -0.027,0.526 -1.553,-0.036 -3.58,-0.739 -3.936,-1.266 -0.015,-0.022 -0.02,-0.037 -0.03,-0.057 -0.23,0.269 -0.488,0.544 -0.772,0.827 1.818,1.241 3.597,1.36 3.597,1.36 0.611,0.307 -0.054,0.521 -0.054,0.521 -1.549,-0.126 -3.539,-0.947 -3.869,-1.492 -0.007,-0.015 -0.009,-0.022 -0.016,-0.035 l -0.159,0.167 -0.614,-0.259 c 0,0.003 3.373,-3.038 3.462,-6.492 M 78.8,44.711 78.781,45.427 c -0.082,3.201 -3.265,6.107 -3.297,6.136 l -0.584,0.527 0.725,0.306 0.614,0.259 0.318,0.134 0.041,-0.043 c 0.852,0.634 2.595,1.205 3.838,1.306 l 0.1,0.008 0.095,-0.031 c 0.146,-0.047 0.622,-0.235 0.657,-0.691 0.016,-0.213 -0.062,-0.517 -0.531,-0.752 0.317,0.047 0.624,0.076 0.904,0.083 l 0.101,0.002 0.093,-0.036 c 0.143,-0.056 0.607,-0.272 0.616,-0.729 0.004,-0.214 -0.092,-0.512 -0.571,-0.721 l -0.094,-0.041 h -0.102 c -0.015,0 -1.394,-0.026 -2.944,-0.822 0.03,-0.042 0.061,-0.084 0.09,-0.126 0.84,0.513 2.521,0.88 3.76,0.88 0.08,0 0.158,-10e-4 0.235,-0.004 l 0.099,-0.003 0.091,-0.041 c 0.14,-0.064 0.594,-0.308 0.575,-0.765 -0.008,-0.213 -0.121,-0.505 -0.611,-0.684 l -0.096,-0.035 -0.103,0.003 -0.1,0.002 c -0.38,0 -1.644,-0.056 -3.05,-0.722 0.008,-0.017 0.015,-0.033 0.022,-0.049 0.815,0.38 2.188,0.556 3.109,0.556 0.302,0 0.589,-0.016 0.854,-0.047 l 0.098,-0.012 0.087,-0.048 c 0.135,-0.075 0.569,-0.354 0.516,-0.81 -0.025,-0.211 -0.16,-0.494 -0.66,-0.633 l -0.1,-0.028 -0.103,0.014 c -0.001,0 -0.205,0.027 -0.543,0.027 -0.549,0 -1.599,-0.072 -2.748,-0.527 0.003,-0.015 0.006,-0.03 0.009,-0.045 0.833,0.32 2.044,0.466 2.882,0.466 0.301,0 0.587,-0.016 0.852,-0.047 l 0.098,-0.012 0.086,-0.048 c 0.135,-0.075 0.571,-0.354 0.517,-0.809 -0.024,-0.212 -0.16,-0.494 -0.661,-0.633 l -0.1,-0.027 -0.102,0.014 c -0.001,0 -0.202,0.026 -0.538,0.026 -0.593,0 -1.771,-0.084 -3.03,-0.646 -0.172,-0.277 -0.517,-0.449 -0.729,-0.534 z m 1.27,7.747 c -0.32,-0.063 -0.774,-0.177 -1.292,-0.379 0.401,0.15 0.845,0.279 1.292,0.379 z"
                   transform="matrix(1.1025,0,0,1.1025,-1.4,-0.2)" />
              </g>
            </g>
            <path
               id="ID0.590082059148699"
               fill="#428736"
               d="m 56.805,29.045 c 0,0 5.529,-0.86 10.048,3.278 4.518,4.141 3.229,8.711 12.877,13.128 0,0 0.929,2.97 -3.442,7.111 0,0 -8.233,-4.153 -10.649,-10.584 -2.418,-6.429 -8.025,-9.734 -10.872,-9.544 l -3.132,-0.256 z"
               transform="matrix(1.1025,0,0,1.1025,-1.4,-0.2)" />
            <g
               id="Stripes_7_">
              <path
                 id="ID0.0965704033151269"
                 fill="#5ea54e"
                 d="m 77.205,44.213 c 0,0 0.494,4.015 -3.716,6.69 L 72.377,50.06 c 0,0 3.765,-4.629 3.471,-6.702 z"
                 transform="matrix(1.1025,0,0,1.1025,-1.4,-0.2)" />
              <path
                 id="ID0.19838712876662612"
                 fill="#5ea54e"
                 d="m 73.709,41.669 c 0,0 -0.052,3.123 -4.089,6.009 L 68.27,46.34 c 0,0 3.942,-2.737 4.277,-5.964 z"
                 transform="matrix(1.1025,0,0,1.1025,-1.4,-0.2)" />
              <path
                 id="ID0.5480897165834904"
                 fill="#5ea54e"
                 d="m 71.229,38.572 c 0,0 -0.754,3.214 -5.081,4.643 L 65.42,41.503 c 0,0 4.506,-1.898 5.149,-4.017 z"
                 transform="matrix(1.1025,0,0,1.1025,-1.4,-0.2)" />
              <path
                 id="ID0.5138904242776334"
                 fill="#5ea54e"
                 d="m 68.762,34.509 c 0,0 -0.6,2.74 -4.869,4.055 l -1.058,-1.385 c 0,0 4.607,-2.661 5.032,-3.813 z"
                 transform="matrix(1.1025,0,0,1.1025,-1.4,-0.2)" />
              <path
                 id="ID0.7866244409233332"
                 fill="#5ea54e"
                 d="m 65.748,31.422 -5.295,3.306 -1.624,-1.336 c 0,0 4.997,-3.051 5.324,-2.957 0.326,0.094 1.595,0.987 1.595,0.987 z"
                 transform="matrix(1.1025,0,0,1.1025,-1.4,-0.2)" />
              <path
                 id="ID0.9612096496857703"
                 fill="#5ea54e"
                 d="m 60.744,29.46 -4.333,3.127 -2.161,-0.198 4.296,-3.457 2.198,0.528"
                 transform="matrix(1.1025,0,0,1.1025,-1.4,-0.2)" />
            </g>
            <path
               id="ID0.28199031110852957"
               d="M 76.327,52.852 76.191,52.785 C 75.852,52.614 67.848,48.515 65.425,42.07 63.129,35.966 57.678,32.487 54.75,32.679 l -3.886,-0.317 5.905,-3.56 c 0,0 0.163,-0.025 0.454,-0.047 1.32,-0.098 5.928,-0.143 9.774,3.382 1.629,1.492 2.533,3.07 3.408,4.597 1.596,2.788 3.25,5.671 9.411,8.492 l 0.096,0.043 0.031,0.105 c 0.041,0.127 0.927,3.172 -3.506,7.374 z m 3.208,-7.225 c -6.21,-2.867 -7.891,-5.8 -9.516,-8.638 -0.896,-1.561 -1.741,-3.038 -3.315,-4.48 -3.716,-3.403 -8.169,-3.359 -9.445,-3.265 -0.214,0.016 -0.353,0.034 -0.36,0.025 l -4.497,2.725 2.35,0.195 c 2.972,-0.198 8.632,3.143 11.098,9.699 2.188,5.819 9.33,9.81 10.4,10.381 3.622,-3.491 3.383,-6.104 3.285,-6.642 z"
               transform="matrix(1.1025,0,0,1.1025,-1.4,-0.2)" />
          </g>
          <g
             id="Middle_1_">
            <path
               id="Base_Fill_3_"
               fill="#428736"
               d="m 49.445,36.358 c 0,0 -5.956,2.484 -11.747,1.361 -5.793,-1.123 -7.656,-2.484 -9.776,-1.361 0,0 -1.157,-2.008 2.634,-3.426 0,0 -1.285,-2.423 0.771,-3.428 10e-4,0 7.904,-2.898 18.118,6.854 z"
               transform="matrix(1.1025,0,0,1.1025,-1.4,-0.2)" />
            <g
               id="Stripes_6_">
              <path
                 id="Stripe_21_"
                 fill="#5ea54e"
                 d="m 41.594,30.83 c 0,0 -3.022,1.975 -1.856,7.181 h 0.926 c 0,0 -0.85,-4.417 1.778,-6.733 z"
                 transform="matrix(1.1025,0,0,1.1025,-1.4,-0.2)" />
              <path
                 id="Stripe_20_"
                 fill="#5ea54e"
                 d="m 38.331,29.623 c 0,0 -2.622,1.93 -2.131,7.54 l -1.16,-0.274 c 0,0 -0.564,-4.606 1.942,-7.591 z"
                 transform="matrix(1.1025,0,0,1.1025,-1.4,-0.2)" />
              <path
                 id="Stripe_19_"
                 fill="#5ea54e"
                 d="m 45.075,32.755 c 0,0 -1.927,2.246 -1.414,5.068 l 0.666,-0.096 c 0,0 0.526,-3.851 1.457,-4.428 z"
                 transform="matrix(1.1025,0,0,1.1025,-1.4,-0.2)" />
              <path
                 id="Stripe_18_"
                 fill="#5ea54e"
                 d="m 31.328,32.636 c 0.07,-0.161 0.154,-2.718 0.815,-3.339 l 1.465,-0.196 c 0,0 -1.485,1.245 -1.144,3.41 0,0 -1.771,1.442 -1.566,3.34 h -1.081 c 0,0 -0.064,-2.21 1.511,-3.215 z"
                 transform="matrix(1.1025,0,0,1.1025,-1.4,-0.2)" />
            </g>
            <path
               id="Outline_29_"
               d="m 27.695,36.469 0.125,0.217 0.231,-0.123 c 1.259,-0.667 2.539,-0.365 4.901,0.271 1.219,0.328 2.735,0.735 4.692,1.116 1.018,0.197 2.105,0.296 3.238,0.296 4.604,0 8.631,-1.656 8.67,-1.672 l 0.331,-0.139 -0.251,-0.241 c -6.348,-6.059 -11.822,-7.33 -15.3,-7.33 -1.934,0 -3.052,0.402 -3.101,0.419 -1.685,0.822 -1.442,2.547 -1.016,3.523 -1.379,0.555 -2.245,1.259 -2.574,2.092 -0.342,0.867 0.038,1.543 0.054,1.571 z m 0.434,-1.418 c 0.281,-0.698 1.094,-1.32 2.331,-1.816 2.245,-0.853 4.401,0.14 4.401,0.14 -2.066,-1.171 -3.556,-0.955 -4.176,-0.771 -0.245,-0.586 -0.729,-2.164 0.762,-2.892 0.004,0 1.075,-0.375 2.884,-0.375 3.329,0 8.559,1.212 14.667,6.938 -1.052,0.387 -4.391,1.499 -8.117,1.499 -1.097,0 -2.15,-0.096 -3.131,-0.286 -1.939,-0.376 -3.445,-0.781 -4.654,-1.107 -2.343,-0.63 -3.714,-0.94 -5.034,-0.357 -0.058,-0.216 -0.098,-0.565 0.067,-0.973 z"
               transform="matrix(1.1025,0,0,1.1025,-1.4,-0.2)" />
          </g>
          <g
             id="Top_1_">
            <path
               id="Base_Fill_2_"
               fill="#428736"
               d="m 58.227,28.056 c 0,0 1.143,-0.921 0.571,-2.027 -0.572,-1.106 -1.599,-1.58 -1.599,-1.466 0,0.115 -9.874,8.856 -21.003,-0.397 v -1.259 c 0,0 -4.167,2.079 -2.796,6.255 0,0 2.499,-0.86 4.816,1.843 2.318,2.703 4.373,8.476 22.123,3.01 0,0 1.427,-0.492 0.685,-1.966 -0.742,-1.474 -2.968,-2.888 -2.797,-3.993 z"
               transform="matrix(1.1025,0,0,1.1025,-1.4,-0.2)" />
            <g
               id="Stripes_5_">
              <path
                 id="Stripe_17_"
                 fill="#5ea54e"
                 d="m 56.128,25.422 c 0,0 1.557,0.599 0.758,3.32 0,0 0.057,1.555 1.198,2.845 1.142,1.29 1.114,2.211 1.313,2.703 l -1.826,0.468 c 0,0 -0.087,-1.697 -0.828,-2.649 -0.742,-0.952 -0.878,-2.33 -0.953,-2.946 -0.074,-0.616 0.725,-2.09 -0.502,-3.104 z"
                 transform="matrix(1.1025,0,0,1.1025,-1.4,-0.2)" />
              <path
                 id="Stripe_16_"
                 fill="#5ea54e"
                 d="m 53.063,27.202 c -0.017,-0.255 0.553,1.067 0.362,2.802 -0.189,1.737 0.781,2.624 1.152,3.777 C 54.948,34.934 55,35.43 55,35.43 l -1.329,0.274 c 0,0 -0.633,-2.491 -1.181,-3.515 -0.548,-1.023 -0.245,-2.023 -0.245,-3.039 0,-1.015 -0.294,-1.462 -0.294,-1.462 z"
                 transform="matrix(1.1025,0,0,1.1025,-1.4,-0.2)" />
              <path
                 id="Stripe_15_"
                 fill="#5ea54e"
                 d="m 49.494,28.182 c 0,0.078 0.647,1.879 0.268,3.682 -0.382,1.801 0.637,4.062 0.637,4.062 l -1.275,0.09 c 0,0 -0.77,-2.083 -0.579,-3.916 0.191,-1.833 0.244,-2.405 -0.03,-3.777 z"
                 transform="matrix(1.1025,0,0,1.1025,-1.4,-0.2)" />
              <path
                 id="Stripe_14_"
                 fill="#5ea54e"
                 d="m 45.983,28.332 c 0,0 -0.855,2.58 -0.142,4.883 0,0 -0.627,1.365 0.4,2.801 h -0.685 c 0,0 -1.001,-0.919 -0.716,-2.643 0,0 -1.16,-1.111 -0.05,-5.041 z"
                 transform="matrix(1.1025,0,0,1.1025,-1.4,-0.2)" />
              <path
                 id="Stripe_13_"
                 fill="#5ea54e"
                 d="m 42.231,27.635 c 0,0 -1.734,2.345 -0.918,5.519 0,0 -0.208,0.47 0.191,1.31 l -0.989,-0.717 c 0,0 -0.232,-0.559 -0.172,-0.757 0.061,-0.198 -1.06,-1.792 0.593,-5.82 z"
                 transform="matrix(1.1025,0,0,1.1025,-1.4,-0.2)" />
              <path
                 id="Stripe_12_"
                 fill="#5ea54e"
                 d="m 38.231,25.701 c 0,0 -1.618,1.25 -1.218,4.218 l -1.008,-0.614 c 0,0 0,-3.091 1.39,-4.135 z"
                 transform="matrix(1.1025,0,0,1.1025,-1.4,-0.2)" />
              <path
                 id="Stripe_11_"
                 fill="#5ea54e"
                 d="m 35.968,24.285 c 0,0 -2.677,0.907 -2.453,4.458 l -0.012,0.378 c 0,0 -1.893,-3.319 2.693,-6.123 z"
                 transform="matrix(1.1025,0,0,1.1025,-1.4,-0.2)" />
            </g>
            <path
               id="Outline_28_"
               d="m 33.184,29.242 0.073,0.225 0.21,-0.071 c 0.003,-0.002 0.358,-0.119 0.908,-0.119 0.935,0 2.332,0.328 3.672,1.894 0.224,0.259 0.442,0.546 0.675,0.849 1.454,1.904 3.445,4.511 9.427,4.511 3.216,0 7.338,-0.768 12.254,-2.28 0.035,-0.012 0.729,-0.258 0.978,-0.923 0.154,-0.415 0.102,-0.884 -0.155,-1.396 -0.33,-0.656 -0.917,-1.276 -1.484,-1.876 -0.63,-0.665 -1.275,-1.35 -1.291,-1.856 0.007,-0.007 0.016,-0.011 0.024,-0.018 L 58.468,28.16 c 0.446,-0.415 1.021,-1.303 0.53,-2.25 -0.539,-1.045 -1.497,-1.608 -1.77,-1.608 H 57 l -0.016,0.147 c -0.425,0.382 -4.35,3.717 -10.062,3.717 -3.646,0 -7.176,-1.387 -10.497,-4.12 v -1.523 l -0.325,0.16 c -0.042,0.021 -4.337,2.223 -2.916,6.559 z m 2.784,-5.929 v 0.972 l 0.087,0.074 c 3.431,2.85 7.087,4.296 10.866,4.296 5.335,0 9.456,-2.953 10.333,-3.855 0.182,0.065 0.902,0.493 1.343,1.348 0.468,0.902 -0.467,1.678 -0.508,1.711 l -0.071,0.059 -0.007,0.039 c -0.381,0.303 -1.195,0.802 -2.811,1.236 0,0 1.542,0.048 2.835,-0.718 0.155,0.622 0.753,1.261 1.386,1.931 0.542,0.575 1.104,1.169 1.402,1.76 0.189,0.376 0.233,0.705 0.134,0.975 -0.166,0.451 -0.683,0.637 -0.688,0.639 -4.866,1.499 -8.947,2.259 -12.12,2.259 -4.32,0 -6.434,-1.348 -7.842,-2.835 1.187,0.326 4.832,1.11 7.73,-0.664 0,0 -4.103,1.528 -8.271,0.048 -0.246,-0.297 -0.475,-0.594 -0.694,-0.88 -0.236,-0.31 -0.462,-0.606 -0.689,-0.871 -1.964,-2.29 -4.137,-2.119 -4.834,-1.967 -0.903,-3.156 1.51,-4.993 2.419,-5.557 z"
               transform="matrix(1.1025,0,0,1.1025,-1.4,-0.2)" />
          </g>
        </g>
        <g
           id="Head">
          <g
             id="Head_1_">
            <g
               id="Back_Ear">
              <path
                 id="ID0.3004269255325198"
                 fill="#ffffff"
                 d="m 31.95,7.847 c 0,0 -2.327,-1.055 -3.495,-1.901 -1.08,-0.782 -3.878,-2.608 -5.043,-0.531 -1.166,2.078 -1.681,5.476 2.691,6.544 4.371,1.069 5.847,-4.112 5.847,-4.112 z"
                 transform="matrix(1.1025,0,0,1.1025,-1.4,-0.2)" />
              <path
                 id="ID0.26054363604635"
                 d="m 27.167,12.353 c 0,0 0,0 0,0 -0.363,-0.007 -0.741,-0.058 -1.124,-0.151 -1.738,-0.425 -2.88,-1.243 -3.396,-2.431 -0.774,-1.782 0.125,-3.726 0.547,-4.479 0.884,-1.576 2.809,-1.433 5.408,0.451 1.135,0.821 3.428,1.865 3.451,1.875 l 0.196,0.089 -0.059,0.209 c -0.013,0.044 -1.327,4.509 -5.023,4.437 z M 25.071,4.706 c -0.648,-0.013 -1.12,0.259 -1.441,0.832 -0.804,1.433 -1,2.94 -0.524,4.035 0.451,1.037 1.479,1.758 3.057,2.144 0.347,0.085 0.688,0.131 1.014,0.138 2.887,0.056 4.174,-3.042 4.467,-3.873 C 31.046,7.703 29.294,6.863 28.31,6.149 27.028,5.221 25.909,4.722 25.071,4.706 Z"
                 transform="matrix(1.1025,0,0,1.1025,-1.4,-0.2)" />
            </g>
            <path
               id="Head_Fill"
               fill="#ffffff"
               d="m 34.722,6.405 c 0,0 -2.206,-0.126 -2.64,-1.385 0,0 3.029,0.684 3.541,0.068 0,0 -1.72,-1.575 0.069,-3.583 0,0 0.487,2.802 4.883,3.928 0,0 7.354,-0.941 12.485,3.076 0,0 3.843,-0.5 4.986,-1.42 1.143,-0.92 6.046,-2.283 7.484,0.911 1.438,3.194 0.562,7.595 -8.021,7.513 0,0 1.361,5.027 -5.098,9.32 0,0 0.152,-1.414 -0.708,-2.181 l -0.397,3.327 c 0,0 -1.429,-1.57 -2.26,-1.711 0,0 0.312,1.132 1.01,1.687 0,0 -2.901,-0.098 -4.567,-0.505 -1.666,-0.408 -3.516,0.433 -4.648,0.827 -1.132,0.394 -11.886,4.729 -15.389,-1.59 l -0.199,-0.504 c 0,0 -1.994,0.837 -3.77,-0.573 -1.776,-1.41 -3.065,-3.685 -1.605,-5.949 1.46,-2.264 5.481,-7.644 14.844,-11.256 z"
               transform="matrix(1.1025,0,0,1.1025,-1.4,-0.2)" />
            <path
               id="Ear_Fill"
               fill="#ffdee4"
               d="m 57.17,14.72 c 0,0 7.857,0.98 7.673,-4.571 l 0.008,-0.438 c 0,0 -0.005,-1.625 -1.989,-1.602 -1.985,0.024 -2.629,0.981 -3.37,2.107 -0.74,1.126 -1.463,2.922 -3.434,3.019 z"
               transform="matrix(1.1025,0,0,1.1025,-1.4,-0.2)" />
            <path
               id="Head_Outline"
               d="M 65.758,7.898 C 65.141,6.526 63.861,5.783 62.055,5.749 60.402,5.717 58.781,6.395 57.891,6.895 56.798,7.507 53.743,8.162 53.131,8.249 49.873,5.744 45.8,5.149 42.945,5.094 41.524,5.067 40.599,5.18 40.635,5.193 36.468,4.124 35.957,1.571 35.937,1.463 L 35.845,0.958 35.504,1.34 C 33.995,3.033 34.801,4.471 35.235,5.028 35.096,5.069 34.865,5.103 34.481,5.095 33.47,5.075 32.149,4.78 32.136,4.777 l -0.438,-0.098 0.146,0.424 c 0.289,0.838 1.221,1.227 1.944,1.405 -7.858,3.227 -12.01,7.744 -14.123,11.02 -1.561,2.42 -0.166,4.831 1.66,6.28 0.708,0.562 1.526,0.855 2.433,0.873 0.59,0.012 1.075,-0.1 1.348,-0.182 l 0.125,0.312 c 1.265,2.281 3.561,3.469 6.825,3.532 2.443,0.047 5.348,-0.54 8.633,-1.744 l 0.723,-0.262 c 0.873,-0.323 2.07,-0.766 3.211,-0.744 0.283,0.006 0.555,0.04 0.805,0.101 1.673,0.409 4.499,0.508 4.618,0.512 l 0.757,0.025 -0.592,-0.471 c -0.339,-0.269 -0.58,-0.701 -0.732,-1.042 0.604,0.365 1.346,1.105 1.641,1.43 l 0.368,0.404 0.391,-3.271 c 0.366,0.676 0.284,1.516 0.283,1.527 l -0.055,0.528 0.442,-0.293 c 5.604,-3.726 5.431,-8.082 5.259,-9.277 4.927,-0.014 6.976,-1.551 7.826,-2.853 0.896,-1.373 0.942,-3.2 0.124,-5.015 z m -0.542,4.74 c -1.136,1.74 -3.769,2.644 -7.606,2.624 -0.156,-0.341 -0.623,-1.268 -1.301,-1.914 0.681,0.036 1.269,-0.399 1.854,-0.942 0.54,-0.502 0.908,-1.189 1.275,-1.817 0.483,-0.829 0.627,-1.294 1.505,-1.921 1.307,-0.933 4.083,-0.318 3.899,1.482 -0.018,0.16 0.087,0.223 0.103,0.064 0.178,-1.736 -0.984,-2.473 -2.737,-2.303 -0.715,0.069 -1.742,0.566 -2.194,1.171 -1.348,1.802 -1.968,4.75 -4.791,3.695 -0.151,-0.057 0.194,0.272 0.336,0.349 0.09,0.049 0.175,0.079 0.262,0.111 0.354,0.444 1.268,1.628 1.423,2.255 l 0.024,0.088 c 0.013,0.047 1.189,4.694 -4.603,8.777 -0.029,-0.524 -0.183,-1.344 -0.796,-1.89 l -0.357,-0.318 -0.392,3.278 c -0.502,-0.498 -1.39,-1.295 -2.032,-1.404 l -0.388,-0.067 0.105,0.379 c 0.01,0.039 0.209,0.746 0.646,1.342 -0.937,-0.053 -2.74,-0.185 -3.904,-0.47 -0.287,-0.07 -0.595,-0.109 -0.914,-0.115 -1.235,-0.024 -2.482,0.438 -3.395,0.774 l -0.721,0.262 c -3.228,1.183 -6.071,1.759 -8.452,1.713 -3.073,-0.059 -5.226,-1.161 -6.383,-3.245 l -0.293,-0.74 -0.235,0.097 C 25.148,23.956 24.561,24.195 23.767,24.18 22.973,24.164 22.255,23.908 21.635,23.415 19.981,22.102 18.704,19.937 20.084,17.797 22.231,14.47 26.529,9.832 34.81,6.638 L 35.371,6.5 34.509,6.255 C 34.491,6.254 33.273,6.06 32.598,5.378 c 0.497,0.09 1.233,0.204 1.874,0.216 0.529,0.01 0.9,-0.049 1.142,-0.183 0,0 0,0 0,0 0,0 0.757,0.295 1.477,0.247 0,0 -0.554,-0.12 -0.985,-0.461 L 35.906,5.01 C 35.899,5.001 35.889,4.994 35.881,4.985 H 35.88 L 35.793,4.903 c -0.059,-0.054 -1.329,-1.25 -0.198,-2.874 0.354,0.889 1.5,2.765 5.013,3.652 0.01,-0.001 0.935,-0.117 2.33,-0.09 2.802,0.054 6.807,0.638 9.97,3.114 l 0.083,0.064 0.104,-0.014 c 0.159,-0.021 3.784,-0.732 5.11,-1.473 0.743,-0.416 2.215,-1.067 3.842,-1.036 1.115,0.022 2.585,0.361 3.258,1.855 0.744,1.658 0.712,3.312 -0.089,4.537 z"
               transform="matrix(1.1025,0,0,1.1025,-1.4,-0.2)" />
            <path
               id="Mouth_1_"
               d="m 44.064,21.321 c 0,0 -0.406,-1.087 -1.789,-1.3 -0.697,-0.107 -1.443,0.303 -1.536,0.452 -0.093,0.149 0.015,0.26 0.221,0.249 0.082,-0.004 0.397,-0.029 0.817,0.032 -0.002,0.011 -0.008,0.019 -0.009,0.03 l 0.072,-0.019 c 0.081,0.013 0.162,0.026 0.25,0.046 -0.46,3.064 -4.667,3.833 -7.125,4.206 -3.065,0.466 -10.106,0.936 -10.59,-3.492 -0.052,-0.474 -0.584,-0.505 -0.531,-0.025 0.481,4.393 5.865,4.667 9.416,4.304 3.198,-0.327 8.637,-0.833 9.231,-4.869 0.508,0.185 1.061,0.515 1.532,1.125 0,0 -0.077,-0.658 -0.429,-1.035 10e-4,-10e-4 0.375,0.123 0.47,0.296 z"
               transform="matrix(1.1025,0,0,1.1025,-1.4,-0.2)" />
          </g>
          <g
             id="Nose">
            <path
               id="Nose_1_"
               d="m 31.228,19.741 c -0.099,1.4 -5.457,2.201 -6.508,2.09 -2.008,-0.209 -4.002,-1.424 -3.903,-2.825 0.099,-1.4 2.509,-2.373 5.384,-2.169 2.875,0.203 5.125,1.503 5.027,2.904 z"
               transform="matrix(1.1025,0,0,1.1025,-1.4,-0.2)" />
            <path
               id="Shine"
               fill="#ffffff"
               d="m 26.531,17.874 c 0.063,0.466 -2.391,1.197 -2.894,1.253 -0.959,0.107 -1.991,-0.115 -2.055,-0.581 -0.063,-0.466 0.993,-0.995 2.359,-1.18 1.368,-0.186 2.526,0.042 2.59,0.508 z"
               transform="matrix(1.1025,0,0,1.1025,-1.4,-0.2)" />
          </g>
          <g
             id="Eye_2_">
            <path
               id="White_4_"
               fill="#ffffff"
               d="m 43.807,10.727 c 1.182,0.115 5.03,1.723 3.982,4.203 -1.446,3.423 -7.409,2.01 -8.039,1.907 -1.309,-0.213 -1.578,-2.406 0.454,-4.054 2.032,-1.649 2.809,-2.134 3.603,-2.056 z"
               transform="matrix(1.1025,0,0,1.1025,-1.4,-0.2)" />
            <g
               id="Iris_6_">
              <path
                 id="Pupil_5_"
                 fill="#428736"
                 d="m 44.241,12.399 c 0.642,0 1.224,0.263 1.645,0.688 0.421,0.425 0.682,1.011 0.682,1.659 0,0.648 -0.261,1.234 -0.682,1.659 -0.421,0.425 -1.003,0.688 -1.645,0.688 -0.642,0 -1.224,-0.263 -1.645,-0.688 -0.421,-0.425 -0.682,-1.011 -0.682,-1.659 0,-0.648 0.261,-1.234 0.682,-1.659 0.421,-0.425 1.003,-0.688 1.645,-0.688 z"
                 transform="matrix(1.1022795,0.02083725,-0.02083725,1.1022795,-1.1,-1.05)" />
              <path
                 id="Outline_27_"
                 d="m 44.242,17.337 h -0.051 c -1.42,-0.027 -2.554,-1.176 -2.527,-2.562 0.027,-1.359 1.183,-2.465 2.575,-2.465 1.472,0.028 2.604,1.177 2.577,2.563 -0.026,1.357 -1.18,2.464 -2.574,2.464 z m 0.043,-4.784 c -1.304,0 -2.347,0.999 -2.371,2.226 -0.024,1.252 0.999,2.29 2.281,2.313 l 0.047,0.123 v -0.122 c 1.258,0 2.301,-0.999 2.324,-2.226 0.026,-1.252 -0.998,-2.29 -2.281,-2.314 0,0 0,0 0,0 z"
                 transform="matrix(1.1025,0,0,1.1025,-1.4,-0.2)" />
            </g>
            <path
               id="Pupil_4_"
               d="m 44.241,13.314 c 0.433,0 0.826,0.176 1.111,0.46 0.284,0.285 0.46,0.678 0.46,1.111 0,0.433 -0.176,0.826 -0.46,1.111 -0.285,0.284 -0.678,0.46 -1.111,0.46 -0.433,0 -0.826,-0.176 -1.111,-0.46 -0.284,-0.285 -0.46,-0.678 -0.46,-1.111 0,-0.433 0.176,-0.826 0.46,-1.111 0.285,-0.284 0.678,-0.46 1.111,-0.46 z"
               transform="matrix(1.1025,0,0,1.1025,-1.4,-0.2)" />
            <path
               id="Highlight_4_"
               fill="#ffffff"
               d="m 43.122,12.986 c 0.232,0 0.442,0.094 0.594,0.246 0.152,0.152 0.246,0.362 0.246,0.594 0,0.232 -0.094,0.442 -0.246,0.594 -0.152,0.152 -0.362,0.246 -0.594,0.246 -0.232,0 -0.442,-0.094 -0.594,-0.246 -0.152,-0.152 -0.246,-0.362 -0.246,-0.594 0,-0.232 0.094,-0.442 0.246,-0.594 0.152,-0.152 0.362,-0.246 0.594,-0.246 z"
               transform="matrix(1.1025,0,0,1.1025,-1.4,-0.2)" />
            <path
               id="Outline_18_"
               d="M 47.87,12.889 C 47.215,11.788 45.707,10.997 44.617,10.658 43.651,10.19 41.571,9.948 41.571,9.948 l 1.491,0.618 c -0.692,0.214 -1.533,0.82 -3.016,2.023 -1.459,1.183 -1.722,2.559 -1.504,3.377 0.161,0.607 0.598,1.025 1.168,1.118 l 0.186,0.035 c 0.49,0.095 1.641,0.316 2.938,0.341 2.696,0.052 4.489,-0.789 5.185,-2.433 0.309,-0.733 0.26,-1.452 -0.149,-2.138 z m -0.311,1.943 C 46.943,16.293 45.356,17.008 42.845,16.96 41.59,16.936 40.47,16.72 39.991,16.628 L 39.79,16.59 c -0.375,-0.061 -0.652,-0.335 -0.764,-0.753 -0.18,-0.674 0.062,-1.828 1.335,-2.86 1.958,-1.588 2.67,-2.02 3.312,-2.007 l 0.108,0.006 c 0.854,0.083 2.918,0.924 3.659,2.17 0.323,0.541 0.363,1.108 0.119,1.686 z"
               transform="matrix(1.1025,0,0,1.1025,-1.4,-0.2)" />
          </g>
          <path
             id="Eyebrow"
             d="m 44.546,7.48 c 0.772,0.303 2.39,1.631 2.314,2.854 C 46.784,11.557 46.498,9.955 45.662,9.154 44.821,8.35 43.447,7.868 42.389,8.105 41.33,8.342 40.76,8.342 40.969,7.459 41.18,6.575 41.775,6.8 41.935,6.795 42.094,6.789 43.563,7.096 44.546,7.48 Z"
             transform="matrix(1.1025,0,0,1.1025,-1.4,-0.2)" />
        </g>
      </g>
    </g>
  </g>
</svg>
