<?xml version="1.0" encoding="UTF-8" standalone="no"?>
<svg
   version="1.1"
   width="84.292763"
   height="75.517296"
   id="svg28"
   sodipodi:docname="beetle.svg"
   xmlns:inkscape="http://www.inkscape.org/namespaces/inkscape"
   xmlns:sodipodi="http://sodipodi.sourceforge.net/DTD/sodipodi-0.dtd"
   xmlns="http://www.w3.org/2000/svg"
   xmlns:svg="http://www.w3.org/2000/svg">
  <defs
     id="defs32" />
  <sodipodi:namedview
     id="namedview30"
     pagecolor="#ffffff"
     bordercolor="#000000"
     borderopacity="0.25"
     inkscape:showpageshadow="2"
     inkscape:pageopacity="0.0"
     inkscape:pagecheckerboard="0"
     inkscape:deskcolor="#d1d1d1" />
  <!-- Exported by Scratch - http://scratch.mit.edu/ -->
  <g
     id="ID0.4356587138026953"
     transform="matrix(0.90249997,0,0,0.90249997,-0.28871494,-0.49912301)">
    <g
       id="Lime_Green_Leg">
      <path
         id="ID0.014040753711014986"
         fill="#d4fc6a"
         d="m 5.012,100.529 c -1.367,0 -2.667,-0.503 -3.475,-1.346 -0.431,-0.449 -0.658,-0.94 -0.64,-1.384 0.44,-3.609 2.475,-13.125 3.886,-13.804 0.049,-0.01 0.151,-0.019 0.278,-0.019 0.699,0 2.124,0.281 3.773,0.607 2.507,0.497 5.619,1.113 7.947,1.113 0.734,0 1.354,-0.063 1.841,-0.188 3.319,-0.849 8.695,-5 9.738,-5.824 0.936,-0.678 1.749,-1.016 2.463,-1.016 1.734,0 2.178,2.064 2.182,2.086 v 10e-4 c -0.161,0.278 -3.617,6.135 -9.966,7.331 -1.536,0.29 -3.353,0.438 -5.401,0.438 -3.458,0 -6.777,-0.418 -8.447,-0.667 L 7.708,87.636 8.074,89.09 c 1.172,4.659 1.609,9.979 -0.677,10.939 -0.787,0.333 -1.59,0.5 -2.385,0.5 v 0 z"
         transform="matrix(0.77378094,0,0,0.77378094,0.4,0.9)" />
      <path
         id="ID0.06063009100034833"
         d="m 30.824,79.67 c 0.598,0 0.931,0.564 1.088,0.946 -0.845,1.273 -4.013,5.539 -9.06,6.489 -1.474,0.278 -3.228,0.42 -5.215,0.42 -3.394,0 -6.656,-0.411 -8.298,-0.656 l -2.966,-0.442 0.732,2.909 c 1.454,5.779 1.053,9.291 -0.092,9.772 -0.667,0.278 -1.339,0.42 -2.001,0.42 -1.084,0 -2.139,-0.397 -2.753,-1.038 C 2.002,98.222 1.914,98.001 1.9,97.877 2.343,94.52 3.97,86.687 5.217,84.981 c 0.672,0.04 2.012,0.305 3.43,0.585 2.543,0.504 5.709,1.131 8.135,1.131 0.829,0 1.512,-0.071 2.089,-0.219 3.486,-0.892 8.952,-5.096 10.083,-5.987 0.759,-0.544 1.388,-0.821 1.87,-0.821 m 0,-2 c -0.932,0 -1.925,0.392 -3.074,1.225 -0.06,0.047 -6.037,4.793 -9.374,5.646 -0.406,0.104 -0.943,0.156 -1.594,0.156 -2.224,0 -5.286,-0.605 -7.746,-1.093 -1.774,-0.351 -3.176,-0.628 -3.974,-0.628 -0.208,0 -0.384,0.018 -0.537,0.055 -2.539,0.608 -4.621,14.59 -4.626,14.727 -0.03,0.718 0.296,1.47 0.917,2.117 0.993,1.035 2.562,1.653 4.196,1.653 0.931,0 1.863,-0.194 2.773,-0.575 3.466,-1.455 2.13,-8.646 1.26,-12.105 1.86,0.277 5.146,0.678 8.593,0.678 10e-4,0 10e-4,0 10e-4,0 2.107,0 3.986,-0.152 5.586,-0.455 6.805,-1.281 10.494,-7.547 10.648,-7.814 l 0.19,-0.328 -0.077,-0.373 C 33.781,79.558 32.855,77.67 30.824,77.67 v 0 2 0 z"
         transform="matrix(0.77378094,0,0,0.77378094,0.4,0.9)" />
    </g>
    <path
       id="Pink_Leg"
       fill="#ff1557"
       stroke="#000000"
       stroke-width="2"
       d="m 54.904,84.965 c 0.427,-1.157 0.76,-4.873 0.76,-4.873 l 7.812,-2.709 c 0,0 -1.531,9.396 -7.203,12.783 -5.67,3.39 -11.713,4.508 -11.713,4.508 0,0 8.895,7.39 4.812,11.236 -4.084,3.848 -10.609,-7.142 -10.6,-8.652 0.009,-1.51 -0.424,-4.268 5.031,-5.646 5.457,-1.376 9.539,-2.416 11.101,-6.647 z"
       transform="matrix(0.77378094,0,0,0.77378094,0.4,0.9)" />
    <path
       id="Light_Blue_Leg"
       fill="#59c9ee"
       stroke="#000000"
       stroke-width="2"
       d="m 83.953,73.417 h -4.246 c 0,0 6.701,6.477 9.932,10.861 3.227,4.387 3.525,12.355 4.068,14.064 0.541,1.709 7.727,4.369 11.232,5.693 3.505,1.324 5.223,-4.402 3.271,-6.938 -1.953,-2.534 -10.812,-3.589 -10.812,-3.589 0,0 -1.889,-6.486 -4.869,-12.118 -2.981,-5.63 -8.576,-7.973 -8.576,-7.973 v 0 z"
       transform="matrix(0.77378094,0,0,0.77378094,0.4,0.9)" />
    <path
       id="Blue_Leg_1_"
       fill="#35abbf"
       stroke="#000000"
       stroke-width="2"
       d="m 28.373,27.566 c 0,0 -6.166,-4.916 -9.75,-5.832 C 15.039,20.816 6.123,23.566 4.758,23.24 3.395,22.912 0.963,11.014 0.898,9.443 0.832,7.873 3.875,5.734 7.398,7.211 10.92,8.687 7.67,19.632 7.67,19.632 c 0,0 8.941,-1.693 15.369,-0.482 6.432,1.213 9.967,7.332 9.967,7.332"
       transform="matrix(0.77378094,0,0,0.77378094,0.4,0.9)" />
    <path
       id="Yellow_Leg"
       fill="#ffc300"
       stroke="#000000"
       stroke-width="2"
       d="m 54.904,22.279 c 0.427,1.156 0.76,4.871 0.76,4.871 l 7.812,2.709 c 0,0 -1.531,-9.396 -7.203,-12.785 -5.67,-3.387 -11.713,-4.506 -11.713,-4.506 0,0 8.895,-7.388 4.812,-11.236 -4.084,-3.848 -10.609,7.141 -10.6,8.652 0.009,1.511 -0.424,4.269 5.031,5.646 5.457,1.378 9.539,2.417 11.101,6.649 z"
       transform="matrix(0.77378094,0,0,0.77378094,0.4,0.9)" />
    <path
       id="Dark_Green_Leg_1_"
       fill="#80c34f"
       stroke="#000000"
       stroke-width="2"
       d="m 83.953,33.828 h -4.246 c 0,0 6.701,-6.475 9.932,-10.863 3.227,-4.387 3.525,-12.355 4.068,-14.064 0.541,-1.709 7.727,-4.369 11.232,-5.695 3.506,-1.324 5.223,4.404 3.271,6.939 -1.953,2.537 -10.812,3.59 -10.812,3.59 0,0 -1.889,6.488 -4.869,12.119 -2.98,5.631 -8.576,7.974 -8.576,7.974 v 0 z"
       transform="matrix(0.77378094,0,0,0.77378094,0.4,0.9)" />
    <path
       id="Top_Antenna"
       fill="#ff6d00"
       stroke="#000000"
       stroke-width="2"
       d="m 96.396,39.066 c 0,0 2.977,-7.666 8.9,-12.959 3.805,-3.398 9.426,-5.771 10.221,-5.973 0.793,-0.201 -1.469,-14.613 -1.18,-14.195 4.365,6.293 5.199,17.127 5.199,17.127 0,0 -6,1.166 -13.158,6.584 -7.158,5.416 -7.008,11.543 -7.008,11.543 l -2.974,-2.127 z"
       transform="matrix(0.77378094,0,0,0.77378094,0.4,0.9)" />
    <path
       id="Bottom_Antenna"
       fill="#ff6d00"
       stroke="#000000"
       stroke-width="2"
       d="m 96.396,68.178 c 0,0 2.977,7.666 8.9,12.957 3.805,3.396 9.426,5.771 10.221,5.976 0.793,0.201 -1.469,14.61 -1.18,14.194 4.365,-6.295 5.199,-17.129 5.199,-17.129 0,0 -6,-1.166 -13.158,-6.582 C 99.22,72.176 99.37,66.051 99.37,66.051 l -2.974,2.127 z"
       transform="matrix(0.77378094,0,0,0.77378094,0.4,0.9)" />
    <g
       id="Body">
      <path
         id="Wing_Fill_1_"
         fill="#8761d4"
         d="m 71.83,63.125 c -2.567,-7.912 -8.647,-8.56 -8.832,-8.576 H 4.083 c 1.256,16.625 29.757,29.776 52.896,23.353 5.058,-1.401 9.905,-3.688 14.575,-4.729 0.653,-1.74 1.711,-5.633 0.276,-10.048 z"
         transform="matrix(0.77378094,0,0,0.77378094,0.4,0.9)" />
      <path
         id="Wing_Fill"
         fill="#8761d4"
         d="M 4.091,52.111 H 62.98 c 0,0 6.242,-0.545 8.85,-8.576 1.324,-4.073 0.525,-7.704 -0.119,-9.608 C 67.055,32.813 62.164,30.471 56.982,28.921 34.095,22.073 5.53,35.539 4.091,52.111 Z"
         transform="matrix(0.77378094,0,0,0.77378094,0.4,0.9)" />
      <path
         id="Head_Fill"
         fill="#ff6d00"
         d="m 102.069,53.412 c 0,-10.801 -9.995,-18.852 -25.541,-18.852 -0.464,0 -0.931,-0.027 -1.397,-0.066 0.396,1.686 0.722,4.866 -0.561,9.554 -1.455,5.326 -4.914,7.977 -7.677,9.281 2.763,1.304 6.222,3.957 7.677,9.284 1.307,4.782 0.848,8.228 0.371,10.048 0.385,-0.027 0.768,-0.041 1.148,-0.041 16.196,0 25.98,-8.405 25.98,-19.208 z"
         transform="matrix(0.77378094,0,0,0.77378094,0.4,0.9)" />
      <path
         id="Outline"
         fill="#231f20"
         d="m 78.261,32.176 c -6.529,0 -13.473,-3.81 -20.992,-6.06 -25.214,-7.544 -56.867,8.878 -56.867,27.302 0,18.424 31.455,34.356 56.869,27.301 7.208,-2.002 14.029,-5.674 20.523,-5.674 17.391,0 27.895,-10.029 27.895,-21.627 0,-11.599 -10.734,-21.242 -27.428,-21.242 z m -3.32,40.485 c 0.477,-1.82 0.936,-5.266 -0.371,-10.048 -1.455,-5.327 -4.914,-7.979 -7.677,-9.284 2.763,-1.304 6.222,-3.956 7.677,-9.281 1.281,-4.688 0.957,-7.868 0.561,-9.554 0.468,0.039 0.935,0.066 1.397,0.066 15.546,0 25.541,8.051 25.541,18.852 0,10.803 -9.784,19.208 -25.979,19.208 -0.382,0 -0.764,0.013 -1.149,0.041 z M 56.98,28.921 c 5.184,1.55 10.073,3.893 14.73,5.006 0.645,1.904 1.442,5.535 0.119,9.608 -2.607,8.031 -8.851,8.576 -8.851,8.576 H 4.091 C 5.53,35.539 34.095,22.073 56.98,28.921 Z M 56.979,77.902 C 33.839,84.325 5.339,71.174 4.083,54.549 h 58.915 c 0.185,0.018 6.265,0.664 8.832,8.576 1.437,4.412 0.377,8.308 -0.274,10.045 -4.672,1.043 -9.519,3.33 -14.577,4.732 z"
         transform="matrix(0.77378094,0,0,0.77378094,0.4,0.9)" />
    </g>
    <g
       id="Eye">
      <g
         id="White_1_">
        <path
           id="ID0.4698791243135929"
           fill="#ffffff"
           d="m 91.356,51.686 c -0.187,0 -0.372,-0.013 -0.556,-0.041 -1.094,-0.163 -2.122,-0.829 -2.822,-1.827 -0.715,-1.019 -1.01,-2.246 -0.828,-3.456 0.335,-2.256 2.305,-4.025 4.484,-4.025 0.186,0 0.369,0.014 0.552,0.041 1.095,0.164 2.124,0.831 2.823,1.83 0.712,1.019 1.004,2.245 0.822,3.454 -0.335,2.256 -2.302,4.024 -4.475,4.024 v 0 z"
           transform="matrix(0.77378094,0,0,0.77378094,0.4,0.9)" />
        <path
           id="ID0.5066214520484209"
           d="m 91.634,43.337 c 0.136,0 0.271,0.01 0.404,0.03 1.693,0.253 3.105,2.135 2.805,4.146 -0.277,1.852 -1.906,3.173 -3.487,3.173 -0.138,0 -0.272,-0.01 -0.407,-0.03 -1.691,-0.252 -3.111,-2.133 -2.81,-4.146 0.275,-1.851 1.917,-3.173 3.495,-3.173 m 0,-2 c -2.663,0 -5.068,2.144 -5.475,4.88 -0.219,1.46 0.137,2.944 1,4.174 0.856,1.222 2.131,2.039 3.493,2.242 0.229,0.035 0.466,0.052 0.702,0.052 2.654,0 5.057,-2.142 5.465,-4.877 0.221,-1.463 -0.133,-2.945 -0.992,-4.175 -0.855,-1.223 -2.129,-2.042 -3.494,-2.245 -0.228,-0.033 -0.462,-0.051 -0.699,-0.051 v 0 2 0 z"
           transform="matrix(0.77378094,0,0,0.77378094,0.4,0.9)" />
      </g>
      <path
         id="Pupil_1_"
         d="m 93.517,45.291 c 0.484,0 0.922,0.209 1.24,0.547 0.317,0.337 0.514,0.803 0.514,1.318 0,0.515 -0.197,0.981 -0.514,1.318 -0.318,0.338 -0.756,0.547 -1.24,0.547 -0.484,0 -0.922,-0.209 -1.24,-0.547 -0.317,-0.337 -0.514,-0.803 -0.514,-1.318 0,-0.515 0.197,-0.981 0.514,-1.318 0.318,-0.338 0.756,-0.547 1.24,-0.547 z"
         transform="matrix(0.77378094,0,0,0.77378094,0.4,0.9)" />
    </g>
    <g
       id="Eye_1_">
      <g
         id="White">
        <path
           id="ID0.23315615905448794"
           fill="#ffffff"
           d="m 91.434,65.27 c -0.187,0 -0.372,-0.014 -0.556,-0.041 -1.094,-0.164 -2.123,-0.83 -2.822,-1.828 -0.715,-1.02 -1.01,-2.246 -0.828,-3.455 0.335,-2.256 2.305,-4.025 4.484,-4.025 0.186,0 0.369,0.015 0.552,0.041 1.095,0.164 2.124,0.83 2.823,1.83 0.711,1.019 1.004,2.244 0.822,3.453 -0.335,2.257 -2.302,4.025 -4.475,4.025 v 0 z"
           transform="matrix(0.77378094,0,0,0.77378094,0.4,0.9)" />
        <path
           id="ID0.6588016310706735"
           d="m 91.712,56.92 c 0.136,0 0.271,0.01 0.404,0.029 1.693,0.254 3.105,2.135 2.805,4.146 -0.277,1.854 -1.906,3.174 -3.487,3.174 -0.138,0 -0.272,-0.01 -0.407,-0.029 -1.691,-0.254 -3.111,-2.135 -2.811,-4.146 0.276,-1.851 1.918,-3.174 3.496,-3.174 m 0,-2 c -2.664,0 -5.068,2.145 -5.475,4.881 -0.219,1.461 0.137,2.943 0.999,4.174 0.856,1.223 2.132,2.039 3.494,2.242 0.229,0.035 0.466,0.053 0.702,0.053 2.654,0 5.057,-2.143 5.465,-4.877 0.221,-1.463 -0.133,-2.945 -0.992,-4.176 -0.855,-1.223 -2.13,-2.041 -3.494,-2.244 -0.228,-0.035 -0.462,-0.053 -0.699,-0.053 v 0 2 0 z"
           transform="matrix(0.77378094,0,0,0.77378094,0.4,0.9)" />
      </g>
      <path
         id="Pupil"
         d="m 93.595,58.874 c 0.484,0 0.922,0.209 1.24,0.547 0.317,0.337 0.514,0.803 0.514,1.318 0,0.515 -0.197,0.981 -0.514,1.318 -0.318,0.338 -0.756,0.547 -1.24,0.547 -0.484,0 -0.922,-0.209 -1.24,-0.547 -0.317,-0.337 -0.514,-0.803 -0.514,-1.318 0,-0.515 0.197,-0.981 0.514,-1.318 0.318,-0.338 0.756,-0.547 1.24,-0.547 z"
         transform="matrix(0.77378094,0,0,0.77378094,0.4,0.9)" />
    </g>
  </g>
</svg>
