<?xml version="1.0" encoding="UTF-8" standalone="no"?>
<svg
   id="Layer_1"
   version="1.1"
   viewBox="0 0 148.06122 190.15849"
   sodipodi:docname="Bell.svg"
   width="148.06122"
   height="190.15849"
   xmlns:inkscape="http://www.inkscape.org/namespaces/inkscape"
   xmlns:sodipodi="http://sodipodi.sourceforge.net/DTD/sodipodi-0.dtd"
   xmlns="http://www.w3.org/2000/svg"
   xmlns:svg="http://www.w3.org/2000/svg">
  <sodipodi:namedview
     id="namedview35"
     pagecolor="#ffffff"
     bordercolor="#000000"
     borderopacity="0.25"
     inkscape:showpageshadow="2"
     inkscape:pageopacity="0.0"
     inkscape:pagecheckerboard="0"
     inkscape:deskcolor="#d1d1d1" />
  <!-- Generator: Adobe Illustrator 29.8.3, SVG Export Plug-In . SVG Version: 2.1.1 Build 3)  -->
  <defs
     id="defs4">
    <style
       id="style2">
      .st0 {
        fill: #fefcb2;
      }

      .st1 {
        fill: #bd880a;
      }

      .st2 {
        fill: #bc870b;
      }

      .st3 {
        fill: #bd870a;
      }

      .st4 {
        fill: #f6d03c;
      }

      .st5 {
        fill: #f7d03c;
      }

      .st6 {
        fill: #b7830a;
      }

      .st7 {
        fill: #f6cf3b;
      }

      .st8 {
        fill: #fefcb3;
      }
    </style>
  </defs>
  <path
     d="m 84.297398,40.613631 c 18.840002,4.1 30.920002,23.83 36.190002,41.22 4.56,15.04 8.29,58.429999 17.06,67.899999 6.53,7.05 17.93,5.26 3.64,17.98 -29.63,26.37 -95.520002,29.43 -129.110002,9.57 -4.3900005,-2.6 -12.9200005,-8.84 -12.0100005,-14.56 0.2,-1.29 4.74,-7.55 5.88,-10.01 10.2600005,-22.13 3.16,-44.77 7.3000005,-68.299999 2.99,-16.98 15.7,-31.69 30.69,-39.53 -0.9,-3.23 -3.19,-5.64 -4.31,-8.91 -4.72,-13.82 -1.96,-25.65 11.52,-32.4599997 26.4,-13.34 43.59,13.9799997 33.15,37.0999997 z m -38.88,-11.51 c 0.83,4.47 2.88,9.79 6.84,12.24 l -2.52,-10.08 c -3.5,-21.9499997 23.97,-24.7499997 25.92,-2.88 0.33,3.74 -0.49,7.14 -0.72,10.8 1.55,0.43 2.5,-2.08 3,-3.11 0.53,-1.08 1.89,-4.52 2.04,-5.53 2.64,-18.31 -12.97,-30.42999971 -28.74,-18.3 -6.32,4.86 -7.25,9.2 -5.82,16.86 z m 22.24,9.28 c 1.75,-1.4 1.56,-16.32 -3.31,-17.77 -12.05,-3.59 -8.14,17.99 -3.41,18.59 0.47,0.06 6.46,-0.61 6.72,-0.82 z m -17.2,12.32 c -9.3,4.01 -19.24,12.86 -24.48,21.6 -11.18,18.66 -3.41,44.229999 -6.55,64.369999 -1.16,7.42 -4.45,15.72 -7.84,22.4 1.66,1.26 3.63,-0.64 5.04,-1.08 2.86,-0.89 5.82,-2.08 8.64,-2.88 17.48,-4.94 34.46,-6.63 52.56,-7.2 1.2,-0.04 2.4,0.02 3.6,0 3.68,-0.06 7.43,-0.85 10.8,-0.72 7.890002,0.3 17.440002,2.58 25.200002,4.32 4.54,1.02 9.17,3.09 13.68,3.24 -5.22,-7.02 -7.3,-16.1 -9.3,-24.54 -6.61,-27.81 -4.54,-59.999999 -31.010002,-77.349999 -5.6,-3.67 -9.43,-6.83 -17.28,-5.76 -7.35,-1.82 -16.21,0.65 -23.04,3.6 z M 131.8174,163.74363 c -17,-4.62 -34.740002,-10.36 -52.560002,-7.92 0.39,24.37 -36.86,27.61 -41.05,3.59 l -25.91,8.28 c 11.54,7.88 26.95,12.24 40.77,13.95 20.49,2.53 61.780002,-2.34 77.830002,-16.26 0.51,-0.44 1.36,0.03 0.92,-1.64 z m -77.760002,-6.48 c -2.83,0.33 -5.79,0.56 -8.64,0.72 0,9.91 12.1,13.06 19.98,9.5 1.02,-0.46 1.24,-1.32 1.62,-1.58 0.44,-0.3 1.38,-0.21 2.2,-1.01 2.48,-2.43 3.22,-5.66 2.85,-9.07 -6.04,-0.28 -12.03,0.74 -18,1.44 v 0 z"
     id="path6" />
  <path
     class="st5"
     d="m 73.497398,47.103631 c -0.22,0.62 -0.46,0.61 -0.72,0 0.46,2.78 -1.42,3.22 -5.64,1.3 6.48,3.2 9.83,13.75 11.41,20.54 5.45,23.43 3.06,52.239999 0.79,76.239999 l -1.51,2.72 c -18.1,0.57 -35.08,2.26 -52.56,7.2 -0.99,-4.32 -1.19,-8.96 -0.61,-13.9 l -0.75,-34.91 c -0.21,-20.969999 9.37,-43.199999 26.56,-55.589999 6.83,-2.95 15.69,-5.42 23.04,-3.6 z"
     id="path8" />
  <path
     class="st8"
     d="m 90.777398,52.863631 c 13.480002,12.93 17.850002,32.79 21.220002,50.589999 1.55,13.98 3.35,27.77 7.01,41.04 0.91,3.53 0.38,5.86 -1.59,7.01 -7.76,-1.74 -17.31,-4.02 -25.200002,-4.32 -2.86,-0.25 -3.87,-4.02 -4.24,-6.64 -1.66,-16.79 -2.15,-33.66 -1.44,-50.609999 1.12,-15.52 -5.29,-27.71 -13.04,-40.67 -2.35,0.02 -2.04,-0.46 -0.72,-2.16 0.18,-0.07 0.47,0.03 0.72,0 7.85,-1.07 11.68,2.09 17.28,5.76 z"
     id="path10" />
  <path
     class="st3"
     d="m 131.8174,163.74363 c 0.44,1.67 -0.41,1.2 -0.92,1.64 -16.06,13.92 -57.340002,18.79 -77.830002,16.26 -13.82,-1.71 -29.23,-6.07 -40.77,-13.95 l 25.91,-8.28 c 4.19,24.02 41.44,20.78 41.05,-3.59 17.82,-2.44 35.550002,3.3 52.560002,7.92 z"
     id="path12" />
  <path
     class="st5"
     d="m 90.777398,52.863631 c 26.470002,17.35 24.400002,49.539999 31.010002,77.349999 2.01,8.44 4.08,17.51 9.3,24.54 -4.51,-0.16 -9.14,-2.23 -13.68,-3.24 1.61,-6.81 -2.04,-14.4 -3.37,-21.47 -1.56,-8.24 -1.93,-16.6 -3.23,-24.85 -2.98,-18.979999 -8.42,-36.829999 -20.040002,-52.319999 v 0 z"
     id="path14" />
  <path
     class="st1"
     d="m 50.457398,50.703631 c -14.31,14.43 -23.12,29.49 -25.19,50.049999 -1.83,18.12 2.58,36.3 0,54.35 -2.82,0.8 -5.78,1.99 -8.64,2.88 l -1.5,-1.21 c 4.06,-12.81 6.44,-22.67 6.68,-36.72 -1.87,-16.68 -0.47,-32.589999 4.18,-47.739999 5.24,-8.74 15.18,-17.59 24.48,-21.6 v 0 z"
     id="path16" />
  <path
     class="st5"
     d="m 92.217398,147.18363 c -3.37,-0.13 -7.12,0.66 -10.8,0.72 -0.71,-0.76 -1.16,-1.65 -1.34,-2.67 1.6,-14.46 3.01,-28.92 2.75,-43.52 -0.29,-16.289999 -1.56,-33.749999 -9.5,-47.989999 -1.36,-2.17 -1.3,-3.66 0.17,-4.46 3.14,3.69 6.44,8.83 8.76,13.2 5.19,9.73 5.24,15.07 5.67,26.01 0.65,16.509999 -1.42,35.649999 1.47,51.809999 0.42,2.35 1.43,4.95 2.82,6.9 z"
     id="path18" />
  <path
     class="st0"
     d="m 77.817398,147.90363 c 0.59,-28.47 7.29,-60.699999 -3.77,-88.029999 -0.99,-2.45 -3.07,-6.82 -4.84,-8.65 -0.69,-0.72 -3.7,-1.29 -3.61,-3.05 0.14,-2.91 5.79,0.28 6.12,0.34 0.41,0.07 0.68,-1.28 1.06,-1.42 -0.06,0.73 0.67,1.65 0.72,2.16 0.32,3.55 2.68,6.15 4.15,9.89 7.67,19.53 7.11,44.599999 5.96,65.379999 -0.42,7.65 -2.04,15.64 -2.19,23.37 -1.2,0.02 -2.4,-0.04 -3.6,0 v 0 z"
     id="path20" />
  <path
     class="st4"
     d="m 79.977398,30.543631 c -1.55,0.58 -3.67,-0.7 -4.32,-2.16 -1.95,-21.8699997 -29.42,-19.0699997 -25.92,2.88 -1.26,2.39 -3.45,-0.38 -4.32,-2.16 -1.43,-7.66 -0.5,-12 5.82,-16.86 15.77,-12.12999971 31.38,0 28.74,18.3 z"
     id="path22" />
  <path
     class="st7"
     d="m 16.617398,157.98363 c -1.41,0.44 -3.38,2.34 -5.04,1.08 3.4,-6.67 6.69,-14.98 7.84,-22.4 3.14,-20.14 -4.63,-45.709999 6.55,-64.369999 1.29,0.48 0.09,2.23 -0.18,3.05 -6.61,20.12 0.5,43.779999 -4.48,64.649999 -1.43,6 -5.32,11.56 -4.7,17.98 v 0 z"
     id="path24" />
  <path
     class="st4"
     d="m 54.057398,157.26363 c 5.97,-0.7 11.96,-1.73 18,-1.44 0.37,3.41 -0.37,6.64 -2.85,9.07 -0.81,0.8 -1.76,0.71 -2.2,1.01 -4.01,2.71 -9.16,2.37 -12.22,-1.62 -1.38,-1.8 -3.48,-6.01 -0.74,-7.02 z"
     id="path26" />
  <path
     class="st3"
     d="m 54.057398,157.26363 c -0.21,7.32 6.29,11.05 12.96,8.64 -0.39,0.27 -0.6,1.12 -1.62,1.58 -7.88,3.56 -19.97,0.41 -19.98,-9.5 2.85,-0.16 5.81,-0.39 8.64,-0.72 z"
     id="path28" />
  <path
     class="st6"
     d="m 49.737398,31.263631 2.52,10.08 c -3.96,-2.45 -6.01,-7.77 -6.84,-12.24 z"
     id="path30" />
  <path
     class="st2"
     d="m 75.657398,28.383631 c 1.88,-0.02 3.39,0.47 4.32,2.16 -0.15,1.01 -1.51,4.45 -2.04,5.53 -0.53,1.08 -1.45,3.54 -3,3.11 0.22,-3.66 1.05,-7.05 0.72,-10.8 z"
     id="path32" />
</svg>
