<?xml version="1.0" encoding="UTF-8" standalone="no"?>
<svg
   version="1.1"
   width="98.25721"
   height="88.059471"
   id="svg34"
   sodipodi:docname="bells-a.svg"
   xmlns:inkscape="http://www.inkscape.org/namespaces/inkscape"
   xmlns:sodipodi="http://sodipodi.sourceforge.net/DTD/sodipodi-0.dtd"
   xmlns="http://www.w3.org/2000/svg"
   xmlns:svg="http://www.w3.org/2000/svg">
  <defs
     id="defs38" />
  <sodipodi:namedview
     id="namedview36"
     pagecolor="#ffffff"
     bordercolor="#000000"
     borderopacity="0.25"
     inkscape:showpageshadow="2"
     inkscape:pageopacity="0.0"
     inkscape:pagecheckerboard="0"
     inkscape:deskcolor="#d1d1d1" />
  <!-- Exported by Scratch - http://scratch.mit.edu/ -->
  <g
     id="ID0.25774545641615987"
     transform="translate(0.02049549,-1.3125617)">
    <path
       id="ID0.8359734453260899"
       fill="#ffd351"
       stroke="none"
       stroke-linecap="round"
       d="m 244,126.5 c 12.408,0.189 25.027,6.511 33.75,15 6.08,6.222 5.105,16.526 6.5,25 1.457,8.857 0.29,17.96 2,26.5 1.15,6.098 3.934,11.512 6.5,17 2.721,5.823 11.676,11.184 9,17 -3.324,7.798 -13.713,10.423 -22,12.5 -12.956,3.245 -26.648,2.74 -40,3 -9.246,-0.244 -18.483,-1.125 -27.5,-3 -8.378,-1.734 -17.198,-3.098 -24.5,-7.5 -2.614,-1.604 -3.528,-6.267 -2.5,-9.5 1.911,-5.218 7.906,-8.203 10.5,-13.5 2.826,-5.77 4.168,-12.208 5.5,-18.5 1.544,-7.176 2.151,-14.989 3.5,-22.5 1.626,-9.013 -0.895,-20.324 5.5,-27 8.338,-8.907 21.506,-14.685 33.75,-14.5 z"
       transform="matrix(0.48827097,0.11268985,-0.11268985,0.48827097,-57.1,-59.1)" />
    <path
       id="ID0.908154658973217"
       fill="#ffd351"
       stroke="none"
       d="m 243,112 c 1.379,0 2.629,1.205 3.535,3.151 0.905,1.946 1.465,4.633 1.465,7.599 0,2.966 -0.56,5.653 -1.465,7.599 -0.906,1.946 -2.156,3.151 -3.535,3.151 -1.379,0 -2.629,-1.205 -3.535,-3.151 -0.905,-1.946 -1.465,-4.633 -1.465,-7.599 0,-2.966 0.56,-5.653 1.465,-7.599 C 240.371,113.205 241.621,112 243,112 Z"
       transform="matrix(0.48827097,0.11268985,-0.11268985,0.48827097,-57.1,-59.1)" />
    <path
       id="ID0.7001172280870378"
       fill="#eac24d"
       stroke="none"
       d="m 247,228 c 15.312,0 29.187,1.569 39.234,4.103 10.047,2.535 16.266,6.035 16.266,9.897 0,3.862 -6.219,7.362 -16.266,9.897 C 276.187,254.431 262.312,256 247,256 231.688,256 217.813,254.431 207.766,251.897 197.719,249.362 191.5,245.862 191.5,242 c 0,-3.862 6.219,-7.362 16.266,-9.897 C 217.813,229.569 231.688,228 247,228 Z"
       transform="matrix(0.48827097,0.11268985,-0.11268985,0.48827097,-56.75,-67.5)" />
    <path
       id="ID0.7265239926055074"
       fill="#ffd351"
       stroke="none"
       d="m 244,215 c 1.242,0 2.367,0.98 3.181,2.564 0.815,1.584 1.319,3.772 1.319,6.186 0,2.414 -0.504,4.602 -1.319,6.186 -0.814,1.584 -1.939,2.564 -3.181,2.564 -1.242,0 -2.367,-0.98 -3.181,-2.564 -0.815,-1.584 -1.319,-3.772 -1.319,-6.186 0,-2.414 0.504,-4.602 1.319,-6.186 C 241.633,215.98 242.758,215 244,215 Z"
       transform="matrix(0.48827097,0.11268985,-0.11268985,0.48827097,-57.1,-59.1)" />
    <path
       id="ID0.635630413889885"
       fill="#fff1c8"
       stroke="none"
       stroke-linecap="round"
       d="m 219.25,142 c 3.935,-5.574 12.452,-7.735 19.5,-8.5 3.245,-0.349 7.727,3.246 7,5.5 -0.273,2.496 -6.008,1.965 -9,4 -4.654,3.204 -9.591,6.65 -12.5,11.5 -3.396,5.668 -1.936,13.411 -6,18.5 -1.255,1.933 -6.561,0.522 -6.5,-2 0.244,-9.97 1.767,-20.839 7.5,-29 z"
       transform="matrix(0.48827097,0.11268985,-0.11268985,0.48827097,-57.8,-58.45)" />
  </g>
  <path
     id="ID0.5902045234106481"
     fill="#edc54f"
     stroke="none"
     stroke-linecap="round"
     d="m 50.442819,31.3733 c 5.130828,0.797761 10.44957,2.506033 14.327131,5.82937 2.741552,2.351191 4.952434,6.235767 4.589633,9.830203 C 68.53877,55.165828 68.04919,65.31724 61.467158,69.958487 55.425319,74.379247 46.410416,70.378414 39.167927,68.705721 37.35743,68.287798 38.62122,66.533926 38.416267,64.947424 37.615499,58.779807 35.407625,52.46236 36.161289,46.40649 c 0.607341,-4.88729 3.1254,-9.705428 6.514382,-13.279318 1.906208,-2.007933 5.194969,-2.377248 7.767148,-1.753872 z"
     style="stroke-width:0.501106" />
  <g
     id="g19"
     transform="translate(0.02049549,-1.3125617)">
    <path
       id="path9"
       fill="#ffd351"
       stroke="none"
       stroke-linecap="round"
       d="m 244,126.5 c 12.408,0.189 25.027,6.511 33.75,15 6.08,6.222 5.105,16.526 6.5,25 1.457,8.857 0.29,17.96 2,26.5 1.15,6.098 3.934,11.512 6.5,17 2.721,5.823 11.676,11.184 9,17 -3.324,7.798 -13.713,10.423 -22,12.5 -12.956,3.245 -26.648,2.74 -40,3 -9.246,-0.244 -18.483,-1.125 -27.5,-3 -8.378,-1.734 -17.198,-3.098 -24.5,-7.5 -2.614,-1.604 -3.528,-6.267 -2.5,-9.5 1.911,-5.218 7.906,-8.203 10.5,-13.5 2.826,-5.77 4.168,-12.208 5.5,-18.5 1.544,-7.176 2.151,-14.989 3.5,-22.5 1.626,-9.013 -0.895,-20.324 5.5,-27 8.338,-8.907 21.506,-14.685 33.75,-14.5 z"
       transform="matrix(0.47394198,-0.16274686,0.16274686,0.47394198,-82.45,9.4)" />
    <path
       id="path11"
       fill="#ffd351"
       stroke="none"
       d="m 243,112 c 1.379,0 2.629,1.205 3.535,3.151 0.905,1.946 1.465,4.633 1.465,7.599 0,2.966 -0.56,5.653 -1.465,7.599 -0.906,1.946 -2.156,3.151 -3.535,3.151 -1.379,0 -2.629,-1.205 -3.535,-3.151 -0.905,-1.946 -1.465,-4.633 -1.465,-7.599 0,-2.966 0.56,-5.653 1.465,-7.599 C 240.371,113.205 241.621,112 243,112 Z"
       transform="matrix(0.47394198,-0.16274686,0.16274686,0.47394198,-82.45,9.4)" />
    <path
       id="path13"
       fill="#eac24d"
       stroke="none"
       d="m 247,228 c 15.312,0 29.187,1.569 39.234,4.103 10.047,2.535 16.266,6.035 16.266,9.897 0,3.862 -6.219,7.362 -16.266,9.897 C 276.187,254.431 262.312,256 247,256 231.688,256 217.813,254.431 207.766,251.897 197.719,249.362 191.5,245.862 191.5,242 c 0,-3.862 6.219,-7.362 16.266,-9.897 C 217.813,229.569 231.688,228 247,228 Z"
       transform="matrix(0.47394198,-0.16274686,0.16274686,0.47394198,-86.5,2.05)" />
    <path
       id="path15"
       fill="#ffd351"
       stroke="none"
       d="m 244,215 c 1.242,0 2.367,0.98 3.181,2.564 0.815,1.584 1.319,3.772 1.319,6.186 0,2.414 -0.504,4.602 -1.319,6.186 -0.814,1.584 -1.939,2.564 -3.181,2.564 -1.242,0 -2.367,-0.98 -3.181,-2.564 -0.815,-1.584 -1.319,-3.772 -1.319,-6.186 0,-2.414 0.504,-4.602 1.319,-6.186 C 241.633,215.98 242.758,215 244,215 Z"
       transform="matrix(0.47394198,-0.16274686,0.16274686,0.47394198,-82.45,9.4)" />
    <path
       id="path17"
       fill="#fff1c8"
       stroke="none"
       stroke-linecap="round"
       d="m 219.25,142 c 3.935,-5.574 12.452,-7.735 19.5,-8.5 3.245,-0.349 7.727,3.246 7,5.5 -0.273,2.496 -6.008,1.965 -9,4 -4.654,3.204 -9.591,6.65 -12.5,11.5 -3.396,5.668 -1.936,13.411 -6,18.5 -1.255,1.933 -6.561,0.522 -6.5,-2 0.244,-9.97 1.767,-20.839 7.5,-29 z"
       transform="matrix(0.47394198,-0.16274686,0.16274686,0.47394198,-82.65,10.25)" />
  </g>
  <path
     id="ID0.5260033067315817"
     fill="#ed5555"
     stroke="none"
     stroke-linecap="round"
     d="m 50.183968,15.348623 c 1.255773,0 2.538605,0.476051 3.276735,1.39508 1.228211,3.989308 0.839353,5.260114 0,6.730861 -0.639913,0.979161 -2.020962,1.39508 -3.276735,1.39508 -1.255772,0 -2.634817,-0.4074 -3.276734,-1.39508 -0.386854,-3.979787 -0.754165,-5.243076 0,-6.730861 0.577275,-1.024261 2.020962,-1.39508 3.276734,-1.39508 z"
     style="stroke-width:0.501106" />
  <path
     id="ID0.7471598233096302"
     fill="#ed5555"
     stroke="none"
     stroke-linecap="round"
     d="m 30.135844,7.0803692 c 4.815631,1.1139593 9.604203,3.3789598 14.030976,6.0132758 1.82052,0.97816 3.521776,2.701965 4.384681,4.635233 0.576773,1.313901 1.379044,3.235143 0.125276,4.134128 C 43.06138,25.559166 36.47083,27.66281 30.386397,29.880707 25.765695,31.562921 20.277078,36.2643 16.104867,33.639004 11.456103,30.713545 12.221794,22.963936 11.720186,17.728878 11.319802,13.653381 10.054509,7.6265751 13.599335,5.5770502 18.386404,2.8089389 24.748449,5.8391288 30.135844,7.0803692 Z"
     style="stroke-width:0.501106" />
  <path
     id="path23"
     fill="#ed5555"
     stroke="none"
     stroke-linecap="round"
     d="m 67.589233,4.876971 c -4.543558,1.9460973 -8.857404,5.020406 -12.74997,8.394405 -1.619387,1.284007 -2.989829,3.280921 -3.498115,5.336104 -0.335917,1.395049 -0.786643,3.427696 0.606064,4.091379 6.179418,2.647467 13.037727,3.555355 19.418015,4.664997 4.845009,0.840605 11.076984,4.49989 14.720572,1.179681 4.059708,-3.69974 1.938781,-11.192696 1.508909,-16.434131 C 87.26978,8.0271992 87.451928,1.8716997 83.601114,0.4797312 78.400766,-1.4003854 72.673128,2.7047143 67.589233,4.876971 Z"
     style="stroke-width:0.501106" />
  <path
     id="ID0.45237939758226275"
     fill="#ed5555"
     stroke="none"
     stroke-linecap="round"
     d="m 63.463286,29.630154 c 2.574684,1.394578 5.076207,2.753078 7.767148,3.758297 14.893381,4.623207 22.879512,4.222823 26.809188,7.767148 1.745854,1.749863 -7.527619,1.743349 -9.52102,4.76051 -1.157055,1.871131 4.273435,6.80352 2.254978,6.514382 C 85.472377,51.65979 79.678585,46.529964 74.237072,43.410577 70.809505,41.445238 67.191016,39.905339 64.214945,37.397302 59.28005,33.237618 54.544596,28.377388 50.434522,23.115771 c -0.998705,-1.180105 1.298366,-0.704555 2.254978,-0.250553 3.824945,1.814506 7.056579,4.747482 10.773786,6.764936 z"
     style="stroke-width:0.501106" />
  <path
     id="path26"
     fill="#ed5555"
     stroke="none"
     stroke-linecap="round"
     d="m 39.087662,28.17606 c -3.97227,2.875348 -7.689477,6.317448 -12.026552,8.268254 -5.20449,2.342673 -10.953182,3.524782 -16.536508,4.509957 -3.4796826,0.726605 -10.40096307,-0.370818 -10.52323301,0.601328 -0.1187622,0.978661 7.52761911,1.743349 9.52102011,4.76051 1.1570549,1.871131 -4.3816737,6.380587 -2.2549785,6.514382 5.8950144,0.372823 12.5271574,-2.706475 18.2903804,-5.361837 3.508747,-1.615567 6.496343,-4.215307 9.019914,-7.015489 4.874762,-5.237563 9.257939,-10.976233 13.028764,-16.937394 0.94208,-1.487283 -1.584999,-0.609846 -2.254978,-0.250553 -2.429363,1.299369 -4.142145,3.395497 -6.263829,4.910842 z"
     style="stroke-width:0.501106" />
  <path
     id="ID0.6422125343233347"
     fill="#cf4c4c"
     stroke="none"
     stroke-linecap="round"
     d="m 72.10737,22.113559 c 6.089945,0.641416 7.347221,-0.06214 9.387225,0.587296 1.7213,0.585794 3.937693,1.764396 4.267922,3.421554 0.170877,1.300371 -1.758883,2.593727 -3.257191,2.505532 -5.961161,-0.361799 -11.716868,-2.543616 -17.538721,-3.758297 -3.331355,-0.695035 -9.814167,-1.65315 -10.022127,-2.004426 -0.372322,-0.208961 5.161897,-0.04109 7.775667,-0.164363 3.127906,-0.14532 6.254308,-0.651939 9.387225,-0.587296 z"
     style="stroke-width:0.501106" />
  <path
     id="path29"
     fill="#cf4c4c"
     stroke="none"
     stroke-linecap="round"
     d="m 30.095698,24.08534 c -5.924503,1.548903 -7.273194,1.042186 -9.192502,1.990678 -1.613779,0.837702 -3.627989,2.335854 -3.705551,4.023815 0.02639,1.311284 2.128528,2.300098 3.596589,1.987844 5.839181,-1.253113 11.201857,-4.274735 16.7752,-6.35013 3.189158,-1.187548 9.4545,-3.10857 9.607335,-3.487097 0.33671,-0.262517 -5.109503,0.734739 -7.712135,1.005477 -3.114245,0.326168 -6.281275,0.294911 -9.368936,0.829413 z"
     style="stroke-width:0.501106" />
  <path
     id="ID0.49886151449754834"
     fill="#cf4c4c"
     stroke="none"
     stroke-linecap="round"
     d="m 51.217803,17.679373 c 0.530671,-0.288136 1.699752,0.897983 2.22391,1.679207 0.397377,0.648432 0.44398,1.536392 0.344761,2.305591 -0.08018,0.618365 -0.151835,1.493296 -0.720591,1.70326 -1.10043,0.38936 -3.010146,0.666471 -3.507744,0 -0.439972,-0.710569 1.353488,-1.790453 1.628595,-2.756085 0.289139,-0.93757 -0.511128,-2.633815 0.03107,-2.931973 z"
     style="stroke-width:0.501106" />
  <path
     id="ID0.14775708736851811"
     fill="#cf4c4c"
     stroke="none"
     stroke-linecap="round"
     d="m 38.683246,17.478325 c 2.091117,0.515639 4.154673,1.123481 6.138553,1.628596 0.659957,0.166868 1.613562,0.112248 2.004425,0.438468 0.199441,0.170877 -0.464525,0.361799 -0.876936,0.313191 -1.624587,0.115255 -3.238149,0.01904 -4.885786,-0.125276 -2.128199,-0.186412 -4.207289,-0.345262 -6.389106,-0.626383 -1.347475,-0.17188 -3.000124,0.101223 -4.008851,-0.75166 -0.785734,-0.664968 -1.816009,-2.86282 -0.751659,-3.006638 2.922953,-0.387856 5.896017,1.393577 8.76936,2.129702 z"
     style="stroke-width:0.501106" />
  <path
     id="ID0.04848654009401798"
     fill="#cf4c4c"
     stroke="none"
     stroke-linecap="round"
     d="m 64.590775,14.972794 c 1.211675,-0.365307 2.783145,-1.475758 4.008851,-0.876936 0.914018,0.448991 0.910009,2.092119 0.375829,2.881361 -0.438969,0.776214 -1.663673,0.436965 -2.51405,0.558232 -1.41312,0.202447 -2.833255,0.405395 -4.250885,0.569257 -1.110451,0.120266 -2.125693,0.03708 -3.131914,0.125277 -1.629598,0.288136 -4.762515,1.179103 -4.76051,1.002212 0.002,-0.17689 3.043719,-1.612059 4.635233,-2.254978 1.799974,-0.728107 3.730235,-1.427652 5.637446,-2.004425 z"
     style="stroke-width:0.501106" />
</svg>
