<?xml version="1.0" encoding="UTF-8" standalone="no"?>
<svg
   version="1.1"
   width="64.400002"
   height="315.29999"
   viewBox="-1 -1 64.400002 315.29999"
   id="svg75"
   sodipodi:docname="building-h.svg"
   xmlns:inkscape="http://www.inkscape.org/namespaces/inkscape"
   xmlns:sodipodi="http://sodipodi.sourceforge.net/DTD/sodipodi-0.dtd"
   xmlns="http://www.w3.org/2000/svg"
   xmlns:svg="http://www.w3.org/2000/svg">
  <defs
     id="defs79" />
  <sodipodi:namedview
     id="namedview77"
     pagecolor="#ffffff"
     bordercolor="#000000"
     borderopacity="0.25"
     inkscape:showpageshadow="2"
     inkscape:pageopacity="0.0"
     inkscape:pagecheckerboard="0"
     inkscape:deskcolor="#d1d1d1" />
  <!-- Exported by Scratch - http://scratch.mit.edu/ -->
  <g
     id="ID0.6255192831158638"
     transform="translate(-48.8,-1.7)">
    <g
       id="ID0.749677746091038">
      <path
         id="ID0.8822009218856692"
         fill="#40b4e5"
         d="m 207.8,44.7 64.4,57.7 V 360 H 207.8 V 44.7"
         transform="translate(-160,-44)" />
    </g>
    <g
       id="ID0.1934380605816841">
      <path
         id="ID0.8519445820711553"
         fill="#79cef3"
         d="m 222.6,93.1 h 3.4 v 7 h -3.4 z"
         transform="translate(-160,-44)" />
    </g>
    <g
       id="ID0.8770811050198972">
      <path
         id="ID0.3774046045728028"
         fill="#79cef3"
         d="m 222.6,105.3 h 3.4 v 7 h -3.4 z"
         transform="translate(-160,-44)" />
    </g>
    <g
       id="ID0.08548708213493228">
      <path
         id="ID0.984991307836026"
         fill="#79cef3"
         d="m 222.6,116.2 h 3.4 v 7 h -3.4 z"
         transform="translate(-160,-44)" />
    </g>
    <g
       id="ID0.3786897473037243">
      <path
         id="ID0.07256629131734371"
         fill="#79cef3"
         d="m 222.6,127.8 h 3.4 v 7 h -3.4 z"
         transform="translate(-160,-44)" />
    </g>
    <g
       id="ID0.6893740063533187">
      <path
         id="ID0.35145694902166724"
         fill="#79cef3"
         d="m 222.6,140.6 h 3.4 v 7 h -3.4 z"
         transform="translate(-160,-44)" />
    </g>
    <g
       id="ID0.22799578262493014">
      <path
         id="ID0.7996567212976515"
         fill="#79cef3"
         d="m 215.3,147.6 h 3.4 v 7 h -3.4 z"
         transform="translate(-160,-44)" />
    </g>
    <g
       id="ID0.6957329851575196">
      <path
         id="ID0.39123781491070986"
         fill="#79cef3"
         d="m 215.3,134.6 h 3.4 v 7 h -3.4 z"
         transform="translate(-160,-44)" />
    </g>
    <g
       id="ID0.9713733969256282">
      <path
         id="ID0.0164931146427989"
         fill="#79cef3"
         d="m 215.3,121.6 h 3.4 v 7 h -3.4 z"
         transform="translate(-160,-44)" />
    </g>
    <g
       id="ID0.6627152417786419">
      <path
         id="ID0.4181095836684108"
         fill="#79cef3"
         d="m 215.3,111 h 3.4 v 7 h -3.4 z"
         transform="translate(-160,-44)" />
    </g>
    <g
       id="ID0.7135141519829631">
      <path
         id="ID0.734325461089611"
         fill="#79cef3"
         d="m 215.3,183.3 h 3.4 v 7 h -3.4 z"
         transform="translate(-160,-44)" />
    </g>
    <g
       id="ID0.09856609161943197">
      <path
         id="ID0.6197486403398216"
         fill="#79cef3"
         d="m 215.3,170.3 h 3.4 v 7 h -3.4 z"
         transform="translate(-160,-44)" />
    </g>
    <g
       id="ID0.2667376082390547">
      <path
         id="ID0.484412822406739"
         fill="#79cef3"
         d="m 215.3,159.7 h 3.4 v 7 h -3.4 z"
         transform="translate(-160,-44)" />
    </g>
    <g
       id="ID0.005636660847812891">
      <path
         id="ID0.5756476982496679"
         fill="#79cef3"
         d="m 215.3,99.8 h 3.4 v 7 h -3.4 z"
         transform="translate(-160,-44)" />
    </g>
    <g
       id="ID0.2169018774293363">
      <path
         id="ID0.010979591403156519"
         fill="#79cef3"
         d="m 249.6,108.7 h 3.4 v 7 h -3.4 z"
         transform="translate(-160,-44)" />
    </g>
    <g
       id="ID0.017283457797020674">
      <path
         id="ID0.2928002099506557"
         fill="#79cef3"
         d="m 249.6,120.9 h 3.4 v 7 h -3.4 z"
         transform="translate(-160,-44)" />
    </g>
    <g
       id="ID0.20128349214792252">
      <path
         id="ID0.49594935262575746"
         fill="#79cef3"
         d="m 249.6,131.8 h 3.4 v 7 h -3.4 z"
         transform="translate(-160,-44)" />
    </g>
    <g
       id="ID0.3320856266655028">
      <path
         id="ID0.8887500474229455"
         fill="#79cef3"
         d="m 249.6,143.4 h 3.4 v 7 h -3.4 z"
         transform="translate(-160,-44)" />
    </g>
    <g
       id="ID0.7358889901079237">
      <path
         id="ID0.29046787042170763"
         fill="#79cef3"
         d="m 249.6,156.3 h 3.4 v 7 h -3.4 z"
         transform="translate(-160,-44)" />
    </g>
    <g
       id="ID0.258670455776155">
      <path
         id="ID0.3658346915617585"
         fill="#79cef3"
         d="m 242.3,163.3 h 3.4 v 7 h -3.4 z"
         transform="translate(-160,-44)" />
    </g>
    <g
       id="ID0.13409371953457594">
      <path
         id="ID0.9808567380532622"
         fill="#79cef3"
         d="m 242.3,150.3 h 3.4 v 7 h -3.4 z"
         transform="translate(-160,-44)" />
    </g>
    <g
       id="ID0.6372847510501742">
      <path
         id="ID0.04068801132962108"
         fill="#79cef3"
         d="m 242.3,137.2 h 3.4 v 7 h -3.4 z"
         transform="translate(-160,-44)" />
    </g>
    <g
       id="ID0.9189301668666303">
      <path
         id="ID0.8278863341547549"
         fill="#79cef3"
         d="m 242.3,126.6 h 3.4 v 7 h -3.4 z"
         transform="translate(-160,-44)" />
    </g>
    <g
       id="ID0.7974382508546114">
      <path
         id="ID0.8685166020877659"
         fill="#79cef3"
         d="m 242.3,115.4 h 3.4 v 7 h -3.4 z"
         transform="translate(-160,-44)" />
    </g>
    <g
       id="ID0.22899904800578952">
      <path
         id="ID0.8395332912914455"
         fill="#79cef3"
         d="m 256.4,163.3 h 3.4 v 7 h -3.4 z"
         transform="translate(-160,-44)" />
    </g>
    <g
       id="ID0.9072330174967647">
      <path
         id="ID0.3369176466949284"
         fill="#79cef3"
         d="m 256.4,150.3 h 3.4 v 7 h -3.4 z"
         transform="translate(-160,-44)" />
    </g>
    <g
       id="ID0.4554497553035617">
      <path
         id="ID0.16102742170915008"
         fill="#79cef3"
         d="m 256.4,137.2 h 3.4 v 7 h -3.4 z"
         transform="translate(-160,-44)" />
    </g>
    <g
       id="ID0.05516290618106723">
      <path
         id="ID0.01117396866902709"
         fill="#79cef3"
         d="m 256.4,126.6 h 3.4 v 7 h -3.4 z"
         transform="translate(-160,-44)" />
    </g>
    <g
       id="ID0.4361258391290903">
      <path
         id="ID0.26061275601387024"
         fill="#79cef3"
         d="m 256.4,115.4 h 3.4 v 7 h -3.4 z"
         transform="translate(-160,-44)" />
    </g>
    <g
       id="ID0.35133658070117235">
      <path
         id="ID0.5177212366834283"
         fill="#79cef3"
         d="m 236.1,134.7 h 3.4 v 7 h -3.4 z"
         transform="translate(-160,-44)" />
    </g>
    <g
       id="ID0.38100095838308334">
      <path
         id="ID0.641736913472414"
         fill="#79cef3"
         d="m 236.1,146.9 h 3.4 v 7 h -3.4 z"
         transform="translate(-160,-44)" />
    </g>
    <g
       id="ID0.7599150105379522">
      <path
         id="ID0.7106195180676877"
         fill="#79cef3"
         d="m 236.1,157.9 h 3.4 v 7 h -3.4 z"
         transform="translate(-160,-44)" />
    </g>
    <g
       id="ID0.9702543159946799">
      <path
         id="ID0.9073407235555351"
         fill="#79cef3"
         d="m 236.1,182.3 h 3.4 v 7 h -3.4 z"
         transform="translate(-160,-44)" />
    </g>
    <g
       id="ID0.09048580471426249">
      <path
         id="ID0.2738473634235561"
         fill="#79cef3"
         d="m 229.1,189.3 h 3.4 v 7 h -3.4 z"
         transform="translate(-160,-44)" />
    </g>
    <g
       id="ID0.5440969518385828">
      <path
         id="ID0.9872177485376596"
         fill="#79cef3"
         d="m 229.1,163.3 h 3.4 v 7 h -3.4 z"
         transform="translate(-160,-44)" />
    </g>
    <g
       id="ID0.12052102340385318">
      <path
         id="ID0.9419338949956"
         fill="#79cef3"
         d="m 229.1,152.7 h 3.4 v 7 h -3.4 z"
         transform="translate(-160,-44)" />
    </g>
  </g>
</svg>
