<?xml version="1.0" encoding="UTF-8" standalone="no"?>
<svg
   version="1.1"
   width="48.200001"
   height="197"
   viewBox="-1 -1 48.200001 197"
   id="svg14"
   sodipodi:docname="building-c.svg"
   xmlns:inkscape="http://www.inkscape.org/namespaces/inkscape"
   xmlns:sodipodi="http://sodipodi.sourceforge.net/DTD/sodipodi-0.dtd"
   xmlns="http://www.w3.org/2000/svg"
   xmlns:svg="http://www.w3.org/2000/svg">
  <defs
     id="defs18" />
  <sodipodi:namedview
     id="namedview16"
     pagecolor="#ffffff"
     bordercolor="#000000"
     borderopacity="0.25"
     inkscape:showpageshadow="2"
     inkscape:pageopacity="0.0"
     inkscape:pagecheckerboard="0"
     inkscape:deskcolor="#d1d1d1" />
  <!-- Exported by Scratch - http://scratch.mit.edu/ -->
  <g
     id="ID0.0740606258623302"
     transform="translate(-56.9,-120)">
    <g
       id="ID0.7692540069110692">
      <path
         id="ID0.27700962172821164"
         fill="#e7f5f5"
         d="M 264.1,163 V 360 H 215.9 V 206.1 L 264.1,163"
         transform="translate(-160,-44)" />
    </g>
    <path
       id="ID0.9674194143153727"
       fill="none"
       stroke="#ffbccb"
       stroke-width="3.9157"
       d="m 260.1,175.5 v 28.9 H 226 l 34.1,-28.9"
       transform="translate(-160,-44)" />
    <path
       id="ID0.8109534960240126"
       fill="#7aded4"
       d="m 264.1,220.7 v 7.5 l -35.5,-4.8 1.5,-7.3 34,4.6"
       transform="translate(-160,-44)" />
    <path
       id="ID0.3405959359370172"
       fill="#7aded4"
       d="m 264.1,238.9 v 7.5 l -35.5,-4.9 1.5,-7.3 34,4.7"
       transform="translate(-160,-44)" />
    <path
       id="ID0.5695877196267247"
       fill="#7aded4"
       d="m 264.1,257 v 7.5 l -35.5,-4.8 1.5,-7.3 34,4.6"
       transform="translate(-160,-44)" />
    <path
       id="ID0.7236357503570616"
       fill="#7aded4"
       d="m 264.1,275.2 v 7.5 l -35.5,-4.9 1.5,-7.3 34,4.7"
       transform="translate(-160,-44)" />
    <path
       id="ID0.8468433166854084"
       fill="#7aded4"
       d="m 264.1,300.8 -35.5,-4.8 1.5,-7.3 34,4.6 v 7.5"
       transform="translate(-160,-44)" />
    <path
       id="ID0.7763515622355044"
       fill="#7aded4"
       d="m 264.1,311.5 v 7.5 l -35.5,-4.8 1.5,-7.4 34,4.7"
       transform="translate(-160,-44)" />
    <path
       id="ID0.002734142355620861"
       fill="#7aded4"
       d="m 264.1,329.6 v 7.5 l -35.5,-4.8 1.5,-7.3 34,4.6"
       transform="translate(-160,-44)" />
    <path
       id="ID0.6289974274113774"
       fill="#7aded4"
       d="m 264.1,347.8 v 7.5 l -35.5,-4.8 1.5,-7.3 34,4.6"
       transform="translate(-160,-44)" />
  </g>
</svg>
