<?xml version="1.0" encoding="UTF-8" standalone="no"?>
<svg
   version="1.1"
   id="Layer_1"
   x="0px"
   y="0px"
   width="60.995285"
   height="61.855"
   viewBox="0 0 60.995285 61.855"
   enable-background="new 0 0 144 144"
   xml:space="preserve"
   sodipodi:docname="button5-b.svg"
   xmlns:inkscape="http://www.inkscape.org/namespaces/inkscape"
   xmlns:sodipodi="http://sodipodi.sourceforge.net/DTD/sodipodi-0.dtd"
   xmlns="http://www.w3.org/2000/svg"
   xmlns:svg="http://www.w3.org/2000/svg"><defs
   id="defs11" /><sodipodi:namedview
   id="namedview9"
   pagecolor="#ffffff"
   bordercolor="#000000"
   borderopacity="0.25"
   inkscape:showpageshadow="2"
   inkscape:pageopacity="0.0"
   inkscape:pagecheckerboard="0"
   inkscape:deskcolor="#d1d1d1" />
  <g
   id="g6"
   transform="translate(-40.952387,-38.467)">
    <path
   fill="#be2026"
   stroke="#be2026"
   d="M 83.878,69.485 98.872,54.409 c 3.451,-3.47 3.436,-9.102 -0.035,-12.553 -1.673,-1.666 -3.896,-2.582 -6.257,-2.582 -2.38,0 -4.616,0.929 -6.294,2.617 L 71.543,56.713 57.02,41.677 c -1.688,-1.748 -3.956,-2.71 -6.386,-2.71 -2.312,0 -4.501,0.885 -6.165,2.491 -3.52,3.4 -3.618,9.031 -0.218,12.551 L 59.022,69.303 44.029,84.379 c -3.452,3.47 -3.437,9.1 0.033,12.552 1.674,1.665 3.897,2.583 6.259,2.583 2.379,0 4.616,-0.93 6.293,-2.617 L 71.357,82.074 85.881,97.112 c 1.688,1.748 3.954,2.71 6.384,2.71 v 0 c 2.312,0 4.503,-0.885 6.166,-2.492 3.521,-3.4 3.618,-9.031 0.218,-12.552 z"
   id="path2" />
    <path
   fill="#dd2726"
   stroke="#bc192d"
   d="M 81.312,69.466 97.573,53.118 c 2.743,-2.759 2.732,-7.219 -0.027,-9.963 -2.758,-2.743 -7.218,-2.73 -9.962,0.028 L 71.523,59.33 55.702,42.949 c -2.703,-2.798 -7.163,-2.876 -9.96,-0.174 -2.799,2.704 -2.876,7.163 -0.174,9.961 L 61.587,69.321 45.328,85.67 c -2.744,2.76 -2.731,7.219 0.026,9.962 2.76,2.744 7.219,2.732 9.962,-0.026 L 71.376,79.458 87.198,95.84 c 2.703,2.798 7.163,2.875 9.961,0.174 2.798,-2.705 2.875,-7.163 0.172,-9.961 z"
   id="path4" />
  </g>
</svg>
