<?xml version="1.0" encoding="UTF-8" standalone="no"?>
<svg
   version="1.1"
   id="butterfly3"
   x="0px"
   y="0px"
   width="99.0438"
   height="98.053185"
   viewBox="0 0 99.0438 98.053185"
   enable-background="new 0 0 150 150"
   xml:space="preserve"
   sodipodi:docname="butterfly3_.svg"
   xmlns:inkscape="http://www.inkscape.org/namespaces/inkscape"
   xmlns:sodipodi="http://sodipodi.sourceforge.net/DTD/sodipodi-0.dtd"
   xmlns="http://www.w3.org/2000/svg"
   xmlns:svg="http://www.w3.org/2000/svg"><defs
   id="defs155" /><sodipodi:namedview
   id="namedview153"
   pagecolor="#ffffff"
   bordercolor="#000000"
   borderopacity="0.25"
   inkscape:showpageshadow="2"
   inkscape:pageopacity="0.0"
   inkscape:pagecheckerboard="0"
   inkscape:deskcolor="#d1d1d1" />
  <g
   id="g150"
   transform="translate(-26.999904,-11.43054)">
    <g
   id="Back_Wing_1_">
      <path
   id="Outer_Fill_1_"
   fill="#56008e"
   d="M 91.405,85.2 C 92.57,84.939 95.332,60.725 91.979,40.197 88.896,21.312 80.414,5.591 65.667,13.544 c -15.722,8.481 -8.908,38.628 -8.908,38.628 0,0 -6.555,-3.184 -9.086,-0.117 -2.53,3.065 0.359,9.521 0.359,9.521 0,0 -10.068,-4.579 -13.733,1.904 -8.807,15.582 15.414,31.025 57.106,21.72 z" />
      <g
   id="Dots_1_">
        <path
   id="White_Dot_107_"
   fill="#ffffff"
   d="m 69.219,11.982 c -0.576,-0.148 -1.171,0.117 -1.541,0.621 0.556,-0.228 1.102,-0.424 1.639,-0.583 -0.034,-0.011 -0.064,-0.028 -0.098,-0.038 z" />
        <path
   id="White_Dot_106_"
   fill="#ffffff"
   d="m 68.376,15.238 c 0.786,0.204 1.612,-0.359 1.845,-1.259 0.222,-0.859 -0.182,-1.707 -0.904,-1.958 -0.537,0.158 -1.083,0.355 -1.639,0.583 -0.135,0.185 -0.242,0.398 -0.304,0.639 -0.233,0.899 0.215,1.793 1.002,1.995 z" />
        <ellipse
   id="White_Dot_105_"
   transform="matrix(-0.2504,0.9682,-0.9682,-0.2504,99.9074,-42.0406)"
   fill="#ffffff"
   cx="66.230003"
   cy="17.659"
   rx="1.6799999"
   ry="1.472" />
        <ellipse
   id="White_Dot_104_"
   transform="matrix(-0.2503,0.9682,-0.9682,-0.2503,95.8347,-36.7808)"
   fill="#ffffff"
   cx="62.158001"
   cy="18.715"
   rx="1.682"
   ry="1.471" />
        <ellipse
   id="White_Dot_103_"
   transform="matrix(0.2505,-0.9681,0.9681,0.2505,23.4392,77.7654)"
   fill="#ffffff"
   cx="61.943001"
   cy="23.745001"
   rx="1.681"
   ry="1.471" />
        <path
   id="White_Dot_102_"
   fill="#ffffff"
   d="m 57.144,31.805 c 0.233,-0.899 -0.216,-1.792 -1.001,-1.996 -0.083,-0.021 -0.164,-0.028 -0.245,-0.033 -0.178,1.101 -0.312,2.209 -0.407,3.313 0.725,0.077 1.439,-0.458 1.653,-1.284 z" />
        <ellipse
   id="White_Dot_101_"
   transform="matrix(0.2505,-0.9681,0.9681,0.2505,9.575,82.7394)"
   fill="#ffffff"
   cx="58.223"
   cy="35.186001"
   rx="1.681"
   ry="1.471" />
        <path
   id="White_Dot_100_"
   fill="#ffffff"
   d="m 57.652,40.744 c 0.234,-0.899 -0.215,-1.792 -1.001,-1.997 -0.483,-0.125 -0.982,0.041 -1.346,0.396 0.018,0.918 0.057,1.81 0.107,2.673 0.121,0.081 0.25,0.148 0.396,0.188 0.786,0.202 1.612,-0.361 1.844,-1.26 z" />
        <ellipse
   id="White_Dot_99_"
   transform="matrix(0.2504,-0.9682,0.9682,0.2504,-3.7732,93.3823)"
   fill="#ffffff"
   cx="58.414001"
   cy="49.127998"
   rx="1.681"
   ry="1.471" />
        <ellipse
   id="White_Dot_98_"
   transform="matrix(0.2505,-0.9681,0.9681,0.2505,1.7609,90.9971)"
   fill="#ffffff"
   cx="59.646999"
   cy="44.361"
   rx="1.682"
   ry="1.47" />
        <ellipse
   id="White_Dot_97_"
   transform="matrix(0.2506,-0.9681,0.9681,0.2506,-10.0145,95.6257)"
   fill="#ffffff"
   cx="56.755001"
   cy="54.280998"
   rx="1.682"
   ry="1.472" />
        <path
   id="White_Dot_96_"
   fill="#ffffff"
   d="m 50.31,53.607 c 0.787,0.203 1.613,-0.362 1.846,-1.26 0.155,-0.602 0.002,-1.194 -0.348,-1.587 -0.725,-0.063 -1.447,-0.038 -2.117,0.118 -0.171,0.202 -0.31,0.448 -0.382,0.731 -0.234,0.9 0.215,1.794 1.001,1.998 z" />
        <ellipse
   id="White_Dot_95_"
   transform="matrix(0.2505,-0.9681,0.9681,0.2505,-18.2408,90.6261)"
   fill="#ffffff"
   cx="49.409"
   cy="57.094002"
   rx="1.682"
   ry="1.471" />
        <ellipse
   id="White_Dot_94_"
   transform="matrix(0.2503,-0.9682,0.9682,0.2503,-22.8078,96.3814)"
   fill="#ffffff"
   cx="50.831001"
   cy="62.917999"
   rx="1.682"
   ry="1.469" />
        <path
   id="White_Dot_93_"
   fill="#ffffff"
   d="m 44.857,63.357 c 0.787,0.204 1.611,-0.361 1.845,-1.259 0.095,-0.368 0.072,-0.73 -0.037,-1.049 -0.599,-0.205 -1.362,-0.435 -2.221,-0.628 -0.273,0.229 -0.489,0.55 -0.59,0.94 -0.232,0.899 0.217,1.792 1.003,1.996 z" />
        <ellipse
   id="White_Dot_92_"
   transform="matrix(0.9682,0.2503,-0.2503,0.9682,17.1791,-8.1998)"
   fill="#ffffff"
   cx="40.823002"
   cy="63.431"
   rx="1.471"
   ry="1.681" />
        <path
   id="White_Dot_91_"
   fill="#ffffff"
   d="m 34.39,63.129 c -0.024,0.094 -0.036,0.188 -0.047,0.281 0.347,-0.597 0.748,-1.1 1.192,-1.52 -0.527,0.154 -0.982,0.61 -1.145,1.239 z" />
        <path
   id="White_Dot_90_"
   fill="#ffffff"
   d="m 35.393,65.124 c 0.787,0.203 1.613,-0.36 1.844,-1.258 0.232,-0.898 -0.216,-1.791 -1.002,-1.994 -0.236,-0.062 -0.474,-0.046 -0.7,0.018 -0.444,0.419 -0.845,0.922 -1.192,1.52 -0.084,0.796 0.345,1.531 1.05,1.714 z" />
        <ellipse
   id="White_Dot_89_"
   transform="matrix(0.2505,-0.9681,0.9681,0.2505,-39.8149,86.5868)"
   fill="#ffffff"
   cx="36.015999"
   cy="69.008003"
   rx="1.6799999"
   ry="1.47" />
        <ellipse
   id="White_Dot_88_"
   transform="matrix(0.9681,0.2505,-0.2505,0.9681,8.6459,-13.7874)"
   fill="#ffffff"
   cx="58.478001"
   cy="27.066"
   rx="1.471"
   ry="1.681" />
        <ellipse
   id="White_Dot_87_"
   transform="matrix(0.2503,-0.9682,0.9682,0.2503,38.3198,82.585)"
   fill="#ffffff"
   cx="72.486"
   cy="16.549"
   rx="1.681"
   ry="1.472" />
        <ellipse
   id="White_Dot_86_"
   transform="matrix(-0.25,0.9682,-0.9682,-0.25,110.1023,-56.5677)"
   fill="#ffffff"
   cx="76.959"
   cy="14.358"
   rx="1.682"
   ry="1.47" />
        <ellipse
   id="White_Dot_85_"
   transform="matrix(0.251,-0.968,0.968,0.251,38.9204,90.401)"
   fill="#ffffff"
   cx="77.874001"
   cy="20.052"
   rx="1.681"
   ry="1.47" />
        <ellipse
   id="White_Dot_84_"
   transform="matrix(0.9682,0.2502,-0.2502,0.9682,7.7494,-20.1413)"
   fill="#ffffff"
   cx="83.100998"
   cy="20.410999"
   rx="1.471"
   ry="1.681" />
        <ellipse
   id="White_Dot_83_"
   transform="matrix(0.2508,-0.968,0.968,0.2508,38.2637,100.7729)"
   fill="#ffffff"
   cx="84.235001"
   cy="25.667"
   rx="1.682"
   ry="1.471" />
        <ellipse
   id="White_Dot_82_"
   transform="matrix(-0.2509,0.968,-0.968,-0.2509,137.5893,-48.2624)"
   fill="#ffffff"
   cx="87.469002"
   cy="29.107"
   rx="1.6799999"
   ry="1.47" />
        <ellipse
   id="White_Dot_81_"
   transform="matrix(0.2505,-0.9681,0.9681,0.2505,32.5695,108.7042)"
   fill="#ffffff"
   cx="86.487"
   cy="33.318001"
   rx="1.681"
   ry="1.47" />
        <ellipse
   id="White_Dot_80_"
   transform="matrix(-0.2504,0.9682,-0.9682,-0.2504,147.8408,-39.4822)"
   fill="#ffffff"
   cx="89.206001"
   cy="37.495998"
   rx="1.681"
   ry="1.4680001" />
        <path
   id="White_Dot_79_"
   fill="#ffffff"
   d="m 90.619,40.837 c -0.231,0.898 0.218,1.792 1.004,1.996 0.25,0.065 0.504,0.044 0.743,-0.034 -0.12,-0.872 -0.245,-1.741 -0.387,-2.602 -0.033,-0.21 -0.072,-0.42 -0.108,-0.631 -0.572,0.117 -1.077,0.6 -1.252,1.271 z" />
        <ellipse
   id="White_Dot_78_"
   transform="matrix(0.9681,0.2504,-0.2504,0.9681,14.377,-20.6307)"
   fill="#ffffff"
   cx="88.260002"
   cy="46.181999"
   rx="1.47"
   ry="1.682" />
        <ellipse
   id="White_Dot_77_"
   transform="matrix(-0.2503,0.9682,-0.9682,-0.2503,161.754,-26.449)"
   fill="#ffffff"
   cx="91.116997"
   cy="49.401001"
   rx="1.681"
   ry="1.471" />
        <ellipse
   id="White_Dot_76_"
   transform="matrix(-0.9681,-0.2506,0.2506,-0.9681,164.6632,129.1528)"
   fill="#ffffff"
   cx="90.553001"
   cy="54.094002"
   rx="1.471"
   ry="1.681" />
        <path
   id="White_Dot_75_"
   fill="#ffffff"
   d="m 91.858,58.276 c -0.233,0.898 0.218,1.791 1.004,1.995 0.239,0.062 0.482,0.046 0.708,-0.023 -0.011,-1.073 -0.032,-2.16 -0.066,-3.259 -0.721,-0.07 -1.432,0.465 -1.646,1.287 z" />
        <ellipse
   id="White_Dot_74_"
   transform="matrix(-0.2505,0.9681,-0.9681,-0.2505,174.9625,-8.3381)"
   fill="#ffffff"
   cx="90.709"
   cy="63.561001"
   rx="1.681"
   ry="1.472" />
        <ellipse
   id="White_Dot_73_"
   transform="matrix(0.9682,0.25,-0.25,0.9682,20.0549,-20.6906)"
   fill="#ffffff"
   cx="91.470001"
   cy="68.595001"
   rx="1.473"
   ry="1.682" />
        <path
   id="White_Dot_72_"
   fill="#ffffff"
   d="m 91.794,73.641 c -0.234,0.901 0.215,1.795 0.999,1.998 0.081,0.021 0.159,0.027 0.237,0.034 0.089,-1.047 0.171,-2.157 0.243,-3.329 -0.663,0.021 -1.283,0.537 -1.479,1.297 z" />
        <ellipse
   id="White_Dot_71_"
   transform="matrix(0.9681,0.2505,-0.2505,0.9681,22.3958,-20.2655)"
   fill="#ffffff"
   cx="90.811996"
   cy="77.849998"
   rx="1.472"
   ry="1.679" />
        <path
   id="White_Dot_70_"
   fill="#ffffff"
   d="m 91.705,80.688 c -0.784,-0.202 -1.613,0.359 -1.846,1.26 -0.233,0.9 0.218,1.794 1.003,1.998 0.384,0.1 0.776,0.014 1.105,-0.205 0.149,-0.657 0.304,-1.522 0.456,-2.573 -0.179,-0.232 -0.425,-0.406 -0.718,-0.48 z" />
        <path
   id="White_Dot_69_"
   fill="#ffffff"
   d="m 88.719,84.257 c -0.786,-0.203 -1.612,0.359 -1.845,1.258 -0.054,0.211 -0.066,0.414 -0.054,0.614 0.971,-0.182 1.956,-0.381 2.946,-0.588 -0.08,-0.618 -0.472,-1.136 -1.047,-1.284 z" />
        <ellipse
   id="White_Dot_68_"
   transform="matrix(0.2505,-0.9681,0.9681,0.2505,-17.1568,144.193)"
   fill="#ffffff"
   cx="84.549004"
   cy="83.177002"
   rx="1.682"
   ry="1.469" />
        <ellipse
   id="White_Dot_67_"
   transform="matrix(0.2498,-0.9683,0.9683,0.2498,-22.0695,142.0512)"
   fill="#ffffff"
   cx="80.643997"
   cy="85.268997"
   rx="1.681"
   ry="1.471" />
        <ellipse
   id="White_Dot_66_"
   transform="matrix(0.2502,-0.9682,0.9682,0.2502,-25.2394,136.9202)"
   fill="#ffffff"
   cx="75.785004"
   cy="84.755997"
   rx="1.682"
   ry="1.473" />
        <path
   id="White_Dot_65_"
   fill="#ffffff"
   d="m 72.516,85.646 c -0.787,-0.204 -1.613,0.362 -1.846,1.261 -0.094,0.364 -0.071,0.729 0.037,1.045 0.904,-0.03 1.815,-0.069 2.746,-0.128 0.022,-0.059 0.049,-0.118 0.066,-0.182 0.232,-0.901 -0.217,-1.793 -1.003,-1.996 z" />
        <ellipse
   id="White_Dot_64_"
   transform="matrix(0.2504,-0.9681,0.9681,0.2504,-32.3957,130.3153)"
   fill="#ffffff"
   cx="67.955002"
   cy="86.078003"
   rx="1.681"
   ry="1.47" />
        <path
   id="White_Dot_63_"
   fill="#ffffff"
   d="m 62.791,85.485 c -0.787,-0.203 -1.613,0.361 -1.845,1.262 -0.091,0.346 -0.076,0.689 0.016,0.995 0.868,0.072 1.75,0.136 2.652,0.179 0.073,-0.135 0.139,-0.279 0.18,-0.438 0.231,-0.9 -0.217,-1.795 -1.003,-1.998 z" />
        <ellipse
   id="White_Dot_62_"
   transform="matrix(0.2506,-0.9681,0.9681,0.2506,-39.2365,120.3495)"
   fill="#ffffff"
   cx="58.115002"
   cy="85.517998"
   rx="1.683"
   ry="1.471" />
        <ellipse
   id="White_Dot_61_"
   transform="matrix(0.2506,-0.9681,0.9681,0.2506,-40.7777,114.151)"
   fill="#ffffff"
   cx="53.341999"
   cy="83.414001"
   rx="1.681"
   ry="1.47" />
        <path
   id="White_Dot_60_"
   fill="#ffffff"
   d="m 48.229,85.563 c 0.242,0.063 0.485,0.045 0.716,-0.024 -0.489,-0.149 -0.972,-0.3 -1.44,-0.46 0.182,0.235 0.429,0.409 0.724,0.484 z" />
        <path
   id="White_Dot_59_"
   fill="#ffffff"
   d="m 50.074,84.303 c 0.232,-0.897 -0.216,-1.792 -1.003,-1.995 -0.786,-0.202 -1.611,0.36 -1.844,1.26 -0.146,0.562 -0.025,1.122 0.278,1.512 0.469,0.16 0.952,0.311 1.44,0.46 0.52,-0.159 0.968,-0.613 1.129,-1.237 z" />
        <path
   id="White_Dot_58_"
   fill="#ffffff"
   d="m 43.236,81.791 c -0.61,-0.157 -1.241,0.15 -1.603,0.714 0.816,0.456 1.68,0.894 2.599,1.301 10e-4,-0.007 0.005,-0.012 0.006,-0.019 0.234,-0.898 -0.216,-1.792 -1.002,-1.996 z" />
        <ellipse
   id="White_Dot_57_"
   transform="matrix(0.2501,-0.9682,0.9682,0.2501,-46.1627,100.1342)"
   fill="#ffffff"
   cx="41.563"
   cy="79.869003"
   rx="1.681"
   ry="1.471" />
        <ellipse
   id="White_Dot_56_"
   transform="matrix(0.2505,-0.9681,0.9681,0.2505,-44.7572,94.4542)"
   fill="#ffffff"
   cx="38.620998"
   cy="76.132004"
   rx="1.681"
   ry="1.471" />
        <path
   id="White_Dot_55_"
   fill="#ffffff"
   d="m 35.555,73.727 c 0.232,-0.898 -0.217,-1.791 -1.004,-1.994 -0.659,-0.171 -1.341,0.2 -1.683,0.854 0.211,0.82 0.509,1.625 0.908,2.408 0.766,0.154 1.553,-0.395 1.779,-1.268 z" />
        <path
   id="White_Dot_54_"
   fill="#ffffff"
   d="m 35.27,76.506 c -0.2,-0.053 -0.401,-0.053 -0.595,-0.014 0.467,0.681 0.989,1.347 1.601,1.988 0.22,-0.892 -0.226,-1.773 -1.006,-1.974 z" />
      </g>
      <path
   id="Inner_Fill_1_"
   fill="#ff9900"
   d="M 89.731,83.279 C 90.987,83.074 91.375,59.332 87.286,40.72 84.035,25.918 77.4,14.858 70.072,17.909 c -16.283,6.778 -8.908,38.626 -8.908,38.626 0,0 -6.556,-3.185 -9.086,-0.117 -2.529,3.068 0.359,9.52 0.359,9.52 0,0 -12.106,-3.364 -14.569,0.943 -7.535,13.184 17.658,21.934 51.863,16.398 z" />
      <path
   id="Design_15_"
   fill="#ffd100"
   d="m 79.723,28.027 c 1.978,5.502 -9.858,9.778 -11.103,6.604 -1.341,-3.454 -3.419,-11.936 2.468,-14.237 5.979,-2.337 7.454,4.354 8.635,7.633 z" />
      <path
   id="Design_14_"
   fill="#ffff00"
   d="m 86.621,82.721 c -0.35,-24.65 -0.999,-41.438 -5.423,-45.312 -4.13,-3.616 -9.417,0.438 -10.246,3.557 -3.3,11.048 10.479,28.256 15.669,41.755 z" />
      <path
   id="Design_13_"
   fill="#d40000"
   d="M 63.249,31.278 C 67.478,28.773 69.948,57.817 75.563,70.931 62.61,63.112 58.196,34.268 63.249,31.278 Z" />
      <path
   id="Design_12_"
   fill="#4b00ff"
   d="m 83.653,82.449 c -2.918,-2.985 -4.748,-12.988 -7.367,-10.961 -3.12,2.418 0.519,8.074 7.367,10.961 z" />
      <path
   id="Design_11_"
   fill="#00ae00"
   d="m 59.415,67.461 c -2.405,0.394 -4.406,-0.741 -5.821,-3.122 -1.208,-2.028 -0.428,-5.445 1.433,-6.461 2.419,-1.319 5.841,0.623 6.842,4.105 0.759,2.645 -0.727,5.195 -2.454,5.478 z" />
      <path
   id="Design_10_"
   fill="#8900ff"
   d="M 79.224,82.792 C 69.345,76.518 66.589,61.413 61.277,67.855 c -5.062,6.131 9.914,14.1 17.947,14.937 z" />
      <path
   id="Design_9_"
   fill="#ffd100"
   d="M 73.561,82.51 C 64.179,81.379 53.934,66.641 51.079,75.385 c -2.615,8.007 14.988,8.344 22.482,7.125 z" />
      <path
   id="Design_8_"
   fill="#4b00ff"
   d="m 43.99,76.776 c 4.151,1.731 8.395,-6.229 4.864,-9.16 -1.768,-1.449 -7.84,-1.723 -9.11,1.241 -1.914,4.467 0.328,6.288 4.246,7.919 z" />
    </g>
    <g
   id="Body">
      <path
   id="Fill"
   fill="#006120"
   d="m 90.497,99.874 c -4.261,2.81 -5.582,6.877 -10.131,8.87 -4.112,1.8 -8.606,0.288 -10.676,-4.241 -1.988,-4.34 -1.58,-8.839 1.198,-12.599 3.514,-4.758 6.971,-5.945 11.875,-8.355 4.547,-2.218 7.271,-3.117 12.094,-4.369 4.466,-1.158 9.75,-0.098 10.894,5.142 1.09,4.919 -0.354,10.413 -4.358,12.343 -3.812,1.827 -7.191,0.769 -10.896,3.209 z" />
      <path
   id="Line"
   fill="#00ae00"
   d="m 97.7,80.305 c -0.693,5.342 0.976,8.562 3.505,13.055 0.464,0.822 -0.581,1.642 -1.043,0.818 -2.646,-4.701 -3.536,-8.348 -2.811,-13.938 0.036,-0.277 0.383,-0.213 0.349,0.065 z" />
      <path
   id="Line_1_"
   fill="#00ae00"
   d="m 89.536,81.872 c -1.921,5.729 0.448,9.918 3.303,14.985 0.433,0.767 -0.543,1.53 -0.978,0.764 -2.979,-5.286 -4.582,-9.891 -2.578,-15.866 0.067,-0.2 0.321,-0.081 0.253,0.117 z" />
      <path
   id="Line_2_"
   fill="#00ae00"
   d="m 80.619,87.092 c -0.807,5.729 0.645,10.277 4.506,13.694 0.711,0.631 -0.09,1.89 -0.802,1.26 -4.199,-3.717 -5.308,-8.868 -4.431,-15.097 0.083,-0.572 0.808,-0.428 0.727,0.143 z" />
      <path
   id="Line_3_"
   fill="#00ae00"
   d="m 70.562,96.211 c 1.144,5.398 4.979,8.15 9.922,9.594 0.635,0.188 0.396,1.311 -0.233,1.122 -5.193,-1.514 -9.536,-4.261 -10.274,-10.459 -0.123,-1.029 0.32,-1.504 0.585,-0.257 z" />
    </g>
    <g
   id="Head">
      <path
   id="R_Antenna"
   d="m 114.613,67.42 c 0.787,-7.762 4.373,-13.504 6.72,-15.418 2.083,-1.698 3.333,0.731 1.756,2.031 -2.624,2.162 -6.289,6.636 -8.476,13.387 z" />
      <path
   id="Head_1_"
   fill="#006120"
   d="m 105.533,85.604 c -1.86,-3.143 -2.67,-5.976 -2.18,-9.769 0.845,-6.492 5.828,-12.082 11.33,-11.44 5.582,0.643 9.043,4.564 11.11,10.669 1.636,4.821 -5.229,6.3 -6.317,9.898 0.709,1.896 1.961,1.8 3.705,1.8 -0.19,2.797 -2.59,4.211 -4.902,4.758 -2.859,0.673 -8.717,0.899 -12.746,-5.916 z" />
      <path
   id="L_Antenna"
   d="m 110.107,69.024 c -3.051,-10.349 -1.523,-20.183 0.437,-24.296 1.739,-3.647 4.578,-1.495 3.269,1.286 -2.18,4.628 -4.467,12.919 -3.706,23.01 z" />
      <g
   id="L_Eye">
        <path
   id="White_1_"
   fill="#ffffff"
   d="m 114.126,75.602 c -0.705,-1.707 -0.226,-3.693 1.073,-4.44 1.298,-0.747 2.923,0.032 3.628,1.737 0.706,1.707 0.226,3.695 -1.072,4.443 -1.299,0.742 -2.922,-0.033 -3.629,-1.74 z" />
        <ellipse
   id="Pupil_1_"
   cx="117.296"
   cy="73.398003"
   rx="1.523"
   ry="1.799" />
      </g>
      <g
   id="R_Eye">
        <path
   id="White"
   fill="#ffffff"
   d="m 120.062,73.237 c -0.504,-1.219 -0.162,-2.644 0.768,-3.177 0.929,-0.533 2.09,0.023 2.596,1.242 0.504,1.223 0.16,2.646 -0.77,3.178 -0.927,0.535 -2.09,-0.021 -2.594,-1.243 z" />
        <ellipse
   id="Pupil"
   cx="122.588"
   cy="71.598999"
   rx="0.84399998"
   ry="0.99599999" />
      </g>
    </g>
    <g
   id="Front_Wing">
      <path
   id="Outer_Fill"
   fill="#56008e"
   d="M 90.497,84.707 C 91.6,84.124 88.083,58.29 79.387,37.915 71.387,19.17 58.787,5.152 46.05,17.348 c -13.582,13.005 1.089,42.42 1.089,42.42 0,0 -7.407,-1.542 -9.151,2.314 -1.744,3.855 2.833,9.77 2.833,9.77 0,0 -11.298,-2.045 -13.292,5.656 -4.794,18.51 23.532,28.021 62.968,7.199 z" />
      <g
   id="Dots">
        <path
   id="White_Dot"
   fill="#ffffff"
   d="m 49.209,14.778 c -0.617,0 -1.145,0.434 -1.385,1.056 0.499,-0.385 0.997,-0.735 1.494,-1.043 -0.037,-0.003 -0.072,-0.013 -0.109,-0.013 z" />
        <path
   id="White_Dot_1_"
   fill="#ffffff"
   d="m 49.209,18.378 c 0.842,0 1.525,-0.806 1.525,-1.8 0,-0.95 -0.625,-1.721 -1.416,-1.787 -0.498,0.308 -0.996,0.658 -1.494,1.043 -0.088,0.228 -0.14,0.478 -0.14,0.744 0,0.994 0.683,1.8 1.525,1.8 z" />
        <ellipse
   id="White_Dot_53_"
   fill="#ffffff"
   cx="47.682999"
   cy="21.462"
   rx="1.526"
   ry="1.799" />
        <ellipse
   id="White_Dot_52_"
   fill="#ffffff"
   cx="43.869999"
   cy="23.648001"
   rx="1.525"
   ry="1.8" />
        <ellipse
   id="White_Dot_51_"
   fill="#ffffff"
   cx="44.959999"
   cy="28.917999"
   rx="1.525"
   ry="1.8" />
        <path
   id="White_Dot_50_"
   fill="#ffffff"
   d="m 42.236,38.558 c 0,-0.994 -0.683,-1.799 -1.525,-1.799 -0.087,0 -0.171,0.014 -0.254,0.03 0.107,1.189 0.261,2.374 0.453,3.544 0.747,-0.116 1.326,-0.861 1.326,-1.775 z" />
        <ellipse
   id="White_Dot_49_"
   fill="#ffffff"
   cx="44.196999"
   cy="41.771999"
   rx="1.525"
   ry="1.8" />
        <path
   id="White_Dot_48_"
   fill="#ffffff"
   d="m 45.068,47.685 c 0,-0.994 -0.683,-1.8 -1.525,-1.8 -0.518,0 -0.974,0.306 -1.249,0.771 0.257,0.947 0.528,1.86 0.803,2.741 0.142,0.052 0.29,0.087 0.446,0.087 0.842,10e-4 1.525,-0.805 1.525,-1.799 z" />
        <ellipse
   id="White_Dot_47_"
   fill="#ffffff"
   cx="48.009998"
   cy="56.168999"
   rx="1.525"
   ry="1.8" />
        <ellipse
   id="White_Dot_46_"
   fill="#ffffff"
   cx="48.009998"
   cy="50.898998"
   rx="1.525"
   ry="1.8" />
        <ellipse
   id="White_Dot_45_"
   fill="#ffffff"
   cx="47.682999"
   cy="61.953999"
   rx="1.526"
   ry="1.8" />
        <path
   id="White_Dot_44_"
   fill="#ffffff"
   d="m 41.038,62.984 c 0.842,0 1.525,-0.806 1.525,-1.801 0,-0.664 -0.308,-1.238 -0.761,-1.55 -0.745,0.128 -1.463,0.348 -2.095,0.688 -0.12,0.257 -0.194,0.548 -0.194,0.862 0,0.995 0.683,1.801 1.525,1.801 z" />
        <ellipse
   id="White_Dot_43_"
   fill="#ffffff"
   cx="41.037998"
   cy="66.838997"
   rx="1.525"
   ry="1.801" />
        <ellipse
   id="White_Dot_42_"
   fill="#ffffff"
   cx="43.979"
   cy="72.494003"
   rx="1.524"
   ry="1.8" />
        <path
   id="White_Dot_41_"
   fill="#ffffff"
   d="m 38.096,74.551 c 0.842,0 1.525,-0.806 1.525,-1.8 0,-0.406 -0.118,-0.776 -0.31,-1.077 -0.655,-0.052 -1.48,-0.085 -2.393,-0.055 -0.214,0.31 -0.348,0.7 -0.348,1.132 10e-4,0.994 0.684,1.8 1.526,1.8 z" />
        <ellipse
   id="White_Dot_40_"
   fill="#ffffff"
   cx="34.064999"
   cy="75.708"
   rx="1.525"
   ry="1.8" />
        <path
   id="White_Dot_39_"
   fill="#ffffff"
   d="m 27.529,77.121 c 0,0.104 0.012,0.204 0.026,0.303 0.193,-0.712 0.465,-1.34 0.802,-1.893 -0.49,0.299 -0.828,0.895 -0.828,1.59 z" />
        <path
   id="White_Dot_38_"
   fill="#ffffff"
   d="m 29.054,78.919 c 0.842,0 1.525,-0.805 1.525,-1.798 0,-0.993 -0.683,-1.798 -1.525,-1.798 -0.253,0 -0.488,0.08 -0.698,0.208 -0.337,0.553 -0.609,1.181 -0.802,1.893 0.123,0.847 0.746,1.495 1.5,1.495 z" />
        <ellipse
   id="White_Dot_37_"
   fill="#ffffff"
   cx="30.688"
   cy="82.777"
   rx="1.525"
   ry="1.799" />
        <ellipse
   id="White_Dot_36_"
   fill="#ffffff"
   cx="42.345001"
   cy="33.289001"
   rx="1.525"
   ry="1.8" />
        <ellipse
   id="White_Dot_35_"
   fill="#ffffff"
   cx="53.674999"
   cy="18.634001"
   rx="1.525"
   ry="1.8" />
        <ellipse
   id="White_Dot_34_"
   fill="#ffffff"
   cx="57.597"
   cy="15.164"
   rx="1.525"
   ry="1.8" />
        <ellipse
   id="White_Dot_33_"
   fill="#ffffff"
   cx="59.993999"
   cy="20.819"
   rx="1.525"
   ry="1.799" />
        <ellipse
   id="White_Dot_32_"
   fill="#ffffff"
   cx="65.333"
   cy="19.791"
   rx="1.525"
   ry="1.8" />
        <ellipse
   id="White_Dot_31_"
   fill="#ffffff"
   cx="67.837997"
   cy="24.933001"
   rx="1.525"
   ry="1.8" />
        <ellipse
   id="White_Dot_30_"
   fill="#ffffff"
   cx="71.977997"
   cy="27.631001"
   rx="1.525"
   ry="1.798" />
        <ellipse
   id="White_Dot_27_"
   fill="#ffffff"
   cx="72.086998"
   cy="32.258999"
   rx="1.525"
   ry="1.799" />
        <ellipse
   id="White_Dot_29_"
   fill="#ffffff"
   cx="75.900002"
   cy="35.859001"
   rx="1.522"
   ry="1.8" />
        <path
   id="White_Dot_26_"
   fill="#ffffff"
   d="m 78.188,38.943 c 0,0.994 0.684,1.799 1.525,1.799 0.269,0 0.518,-0.089 0.737,-0.233 -0.347,-0.872 -0.698,-1.739 -1.063,-2.594 -0.09,-0.21 -0.183,-0.417 -0.273,-0.625 -0.545,0.274 -0.926,0.911 -0.926,1.653 z" />
        <ellipse
   id="White_Dot_25_"
   fill="#ffffff"
   cx="77.207001"
   cy="45.113998"
   rx="1.525"
   ry="1.8" />
        <ellipse
   id="White_Dot_24_"
   fill="#ffffff"
   cx="80.911003"
   cy="47.685001"
   rx="1.524"
   ry="1.8" />
        <ellipse
   id="White_Dot_23_"
   fill="#ffffff"
   cx="81.564003"
   cy="52.699001"
   rx="1.525"
   ry="1.8" />
        <path
   id="White_Dot_22_"
   fill="#ffffff"
   d="m 83.961,56.683 c 0,0.994 0.683,1.799 1.525,1.799 0.256,0 0.494,-0.082 0.706,-0.213 -0.29,-1.109 -0.596,-2.23 -0.915,-3.36 -0.742,0.12 -1.316,0.864 -1.316,1.774 z" />
        <ellipse
   id="White_Dot_21_"
   fill="#ffffff"
   cx="84.18"
   cy="62.467999"
   rx="1.525"
   ry="1.799" />
        <ellipse
   id="White_Dot_20_"
   fill="#ffffff"
   cx="86.25"
   cy="67.481003"
   rx="1.525"
   ry="1.8" />
        <path
   id="White_Dot_19_"
   fill="#ffffff"
   d="m 87.885,72.624 c 0,0.995 0.683,1.802 1.524,1.802 0.085,0 0.166,-0.014 0.247,-0.029 -0.184,-1.108 -0.39,-2.281 -0.622,-3.513 -0.659,0.198 -1.149,0.899 -1.149,1.74 z" />
        <ellipse
   id="White_Dot_28_"
   fill="#ffffff"
   cx="87.991997"
   cy="77.249001"
   rx="1.525"
   ry="1.7970001" />
        <path
   id="White_Dot_18_"
   fill="#ffffff"
   d="m 89.627,79.949 c -0.842,0 -1.525,0.807 -1.525,1.801 0,0.994 0.684,1.801 1.525,1.801 0.411,0 0.782,-0.194 1.057,-0.506 -0.021,-0.724 -0.09,-1.661 -0.21,-2.792 -0.243,-0.191 -0.534,-0.304 -0.847,-0.304 z" />
        <path
   id="White_Dot_17_"
   fill="#ffffff"
   d="m 87.557,84.449 c -0.842,0 -1.525,0.806 -1.525,1.8 0,0.229 0.04,0.447 0.106,0.649 0.927,-0.447 1.862,-0.919 2.803,-1.399 -0.242,-0.618 -0.769,-1.05 -1.384,-1.05 z" />
        <ellipse
   id="White_Dot_16_"
   fill="#ffffff"
   cx="83.089996"
   cy="84.448997"
   rx="1.525"
   ry="1.8" />
        <ellipse
   id="White_Dot_15_"
   fill="#ffffff"
   cx="79.712997"
   cy="87.663002"
   rx="1.525"
   ry="1.799" />
        <ellipse
   id="White_Dot_14_"
   fill="#ffffff"
   cx="74.702003"
   cy="88.433998"
   rx="1.526"
   ry="1.8" />
        <path
   id="White_Dot_13_"
   fill="#ffffff"
   d="m 71.651,90.232 c -0.842,0 -1.525,0.807 -1.525,1.801 0,0.404 0.117,0.774 0.308,1.074 0.9,-0.274 1.805,-0.558 2.724,-0.868 0.007,-0.068 0.018,-0.136 0.018,-0.206 0,-0.994 -0.683,-1.801 -1.525,-1.801 z" />
        <ellipse
   id="White_Dot_12_"
   fill="#ffffff"
   cx="67.184998"
   cy="91.903999"
   rx="1.525"
   ry="1.8" />
        <path
   id="White_Dot_11_"
   fill="#ffffff"
   d="m 61.846,92.675 c -0.842,0 -1.525,0.807 -1.525,1.802 0,0.383 0.103,0.735 0.275,1.027 0.89,-0.157 1.791,-0.329 2.708,-0.526 0.04,-0.16 0.067,-0.326 0.067,-0.501 0,-0.996 -0.683,-1.802 -1.525,-1.802 z" />
        <ellipse
   id="White_Dot_10_"
   fill="#ffffff"
   cx="57.160999"
   cy="93.961998"
   rx="1.526"
   ry="1.801" />
        <ellipse
   id="White_Dot_9_"
   fill="#ffffff"
   cx="51.823002"
   cy="93.060997"
   rx="1.525"
   ry="1.799" />
        <path
   id="White_Dot_8_"
   fill="#ffffff"
   d="m 47.248,96.66 c 0.259,0 0.5,-0.084 0.713,-0.219 -0.529,-0.021 -1.053,-0.049 -1.566,-0.089 0.244,0.195 0.537,0.308 0.853,0.308 z" />
        <path
   id="White_Dot_7_"
   fill="#ffffff"
   d="m 48.773,94.859 c 0,-0.994 -0.683,-1.799 -1.525,-1.799 -0.842,0 -1.525,0.805 -1.525,1.799 0,0.621 0.267,1.17 0.672,1.493 0.513,0.04 1.037,0.067 1.566,0.089 0.481,-0.302 0.812,-0.893 0.812,-1.582 z" />
        <path
   id="White_Dot_6_"
   fill="#ffffff"
   d="m 41.256,94.09 c -0.653,0 -1.207,0.487 -1.423,1.168 0.938,0.255 1.918,0.475 2.947,0.652 0,-0.007 0.002,-0.014 0.002,-0.021 -10e-4,-0.993 -0.684,-1.799 -1.526,-1.799 z" />
        <ellipse
   id="White_Dot_5_"
   fill="#ffffff"
   cx="39.077"
   cy="92.545998"
   rx="1.525"
   ry="1.799" />
        <ellipse
   id="White_Dot_4_"
   fill="#ffffff"
   cx="35.153999"
   cy="89.461998"
   rx="1.525"
   ry="1.799" />
        <path
   id="White_Dot_3_"
   fill="#ffffff"
   d="m 31.45,87.791 c 0,-0.993 -0.683,-1.798 -1.525,-1.798 -0.706,0 -1.294,0.568 -1.468,1.336 0.425,0.793 0.933,1.547 1.537,2.252 0.809,-0.044 1.456,-0.825 1.456,-1.79 z" />
        <path
   id="White_Dot_2_"
   fill="#ffffff"
   d="m 31.886,90.747 c -0.213,0 -0.416,0.053 -0.6,0.146 0.645,0.581 1.343,1.132 2.123,1.631 -0.01,-0.983 -0.687,-1.777 -1.523,-1.777 z" />
      </g>
      <path
   id="Inner_Fill"
   fill="#ff9900"
   d="M 88.318,83.164 C 89.525,82.617 83.749,57.907 74.81,39.715 67.702,25.247 58.168,15.565 51.605,20.691 c -14.586,11.389 1.09,42.419 1.09,42.419 0,0 -7.409,-1.544 -9.152,2.314 -1.743,3.857 2.833,9.769 2.833,9.769 0,0 -13.028,-0.241 -14.381,4.884 -4.14,15.684 23.423,17.997 56.323,3.087 z" />
      <path
   id="Design"
   fill="#ffd100"
   d="m 63.92,28.59 c 3.415,5.171 -7.355,12.775 -9.43,9.82 -2.244,-3.219 -6.532,-11.451 -1.22,-15.415 5.396,-4.026 8.614,2.512 10.65,5.595 z" />
      <path
   id="Design_1_"
   fill="#ffff00"
   d="M 85.051,83.42 C 78.298,57.968 73.285,40.744 67.839,37.916 c -5.085,-2.64 -9.341,2.98 -9.362,6.433 -0.444,12.334 17.859,26.473 26.574,39.071 z" />
      <path
   id="Design_2_"
   fill="#d40000"
   d="M 48.228,36.374 C 51.823,32.645 61.846,62.082 70.888,74.166 55.854,69.537 43.932,40.828 48.228,36.374 Z" />
      <path
   id="Design_3_"
   fill="#4b00ff"
   d="M 82.001,83.936 C 78.298,81.624 73.862,71.748 71.76,74.55 c -2.506,3.343 2.615,8.227 10.241,9.386 z" />
      <path
   id="Design_4_"
   fill="#00ae00"
   d="m 53.776,74.901 c -2.312,1.053 -4.615,0.414 -6.655,-1.674 -1.739,-1.779 -1.843,-5.53 -0.239,-7.081 2.086,-2.015 6.025,-0.92 7.935,2.421 1.449,2.536 0.619,5.577 -1.041,6.334 z" />
      <path
   id="Design_5_"
   fill="#8900ff"
   d="M 77.645,85.477 C 66.096,81.623 59.407,66.709 55.747,74.81 52.259,82.521 69.363,86.764 77.645,85.477 Z" />
      <path
   id="Design_6_"
   fill="#ffd100"
   d="M 71.885,86.703 C 62.173,88.048 48.06,75.52 47.466,85.35 c -0.546,8.996 17.213,4.627 24.419,1.353 z" />
      <path
   id="Design_7_"
   fill="#4b00ff"
   d="m 40.711,88.689 c 4.617,0.683 6.809,-8.707 2.504,-10.797 -2.151,-1.027 -8.318,0.316 -8.824,3.729 -0.762,5.143 1.962,6.427 6.32,7.068 z" />
    </g>
  </g>
</svg>
