<svg version="1.1" id="butterfly3" x="0px" y="0px" width="150px" height="150px" viewBox="0 0 150 150" enable-background="new 0 0 150 150" xml:space="preserve" xmlns="http://www.w3.org/2000/svg" xmlns:xlink="http://www.w3.org/1999/xlink">
  <g>
    <g id="Back_Wing_1_">
      <path id="Outer_Fill_1_" fill="#56008E" d="M91.405,85.2c1.165-0.261,3.927-24.475,0.574-45.003&#xD;&#xA;&#x9;&#x9;C88.896,21.312,80.414,5.591,65.667,13.544c-15.722,8.481-8.908,38.628-8.908,38.628s-6.555-3.184-9.086-0.117&#xD;&#xA;&#x9;&#x9;c-2.53,3.065,0.359,9.521,0.359,9.521s-10.068-4.579-13.733,1.904C25.492,79.062,49.713,94.505,91.405,85.2z"/>
      <g id="Dots_1_">
        <path id="White_Dot_107_" fill="#FFFFFF" d="M69.219,11.982c-0.576-0.148-1.171,0.117-1.541,0.621&#xD;&#xA;&#x9;&#x9;&#x9;c0.556-0.228,1.102-0.424,1.639-0.583C69.283,12.009,69.253,11.992,69.219,11.982z"/>
        <path id="White_Dot_106_" fill="#FFFFFF" d="M68.376,15.238c0.786,0.204,1.612-0.359,1.845-1.259&#xD;&#xA;&#x9;&#x9;&#x9;c0.222-0.859-0.182-1.707-0.904-1.958c-0.537,0.158-1.083,0.355-1.639,0.583c-0.135,0.185-0.242,0.398-0.304,0.639&#xD;&#xA;&#x9;&#x9;&#x9;C67.141,14.142,67.589,15.036,68.376,15.238z"/>
        <ellipse id="White_Dot_105_" transform="matrix(-0.2504 0.9682 -0.9682 -0.2504 99.9074 -42.0406)" fill="#FFFFFF" cx="66.23" cy="17.659" rx="1.68" ry="1.472"/>
        <ellipse id="White_Dot_104_" transform="matrix(-0.2503 0.9682 -0.9682 -0.2503 95.8347 -36.7808)" fill="#FFFFFF" cx="62.158" cy="18.715" rx="1.682" ry="1.471"/>
        <ellipse id="White_Dot_103_" transform="matrix(0.2505 -0.9681 0.9681 0.2505 23.4392 77.7654)" fill="#FFFFFF" cx="61.943" cy="23.745" rx="1.681" ry="1.471"/>
        <path id="White_Dot_102_" fill="#FFFFFF" d="M57.144,31.805c0.233-0.899-0.216-1.792-1.001-1.996&#xD;&#xA;&#x9;&#x9;&#x9;c-0.083-0.021-0.164-0.028-0.245-0.033c-0.178,1.101-0.312,2.209-0.407,3.313C56.216,33.166,56.93,32.631,57.144,31.805z"/>
        <ellipse id="White_Dot_101_" transform="matrix(0.2505 -0.9681 0.9681 0.2505 9.575 82.7394)" fill="#FFFFFF" cx="58.223" cy="35.186" rx="1.681" ry="1.471"/>
        <path id="White_Dot_100_" fill="#FFFFFF" d="M57.652,40.744c0.234-0.899-0.215-1.792-1.001-1.997&#xD;&#xA;&#x9;&#x9;&#x9;c-0.483-0.125-0.982,0.041-1.346,0.396c0.018,0.918,0.057,1.81,0.107,2.673c0.121,0.081,0.25,0.148,0.396,0.188&#xD;&#xA;&#x9;&#x9;&#x9;C56.594,42.206,57.42,41.643,57.652,40.744z"/>
        <ellipse id="White_Dot_99_" transform="matrix(0.2504 -0.9682 0.9682 0.2504 -3.7732 93.3823)" fill="#FFFFFF" cx="58.414" cy="49.128" rx="1.681" ry="1.471"/>
        <ellipse id="White_Dot_98_" transform="matrix(0.2505 -0.9681 0.9681 0.2505 1.7609 90.9971)" fill="#FFFFFF" cx="59.647" cy="44.361" rx="1.682" ry="1.47"/>
        <ellipse id="White_Dot_97_" transform="matrix(0.2506 -0.9681 0.9681 0.2506 -10.0145 95.6257)" fill="#FFFFFF" cx="56.755" cy="54.281" rx="1.682" ry="1.472"/>
        <path id="White_Dot_96_" fill="#FFFFFF" d="M50.31,53.607c0.787,0.203,1.613-0.362,1.846-1.26&#xD;&#xA;&#x9;&#x9;&#x9;c0.155-0.602,0.002-1.194-0.348-1.587c-0.725-0.063-1.447-0.038-2.117,0.118c-0.171,0.202-0.31,0.448-0.382,0.731&#xD;&#xA;&#x9;&#x9;&#x9;C49.075,52.509,49.524,53.403,50.31,53.607z"/>
        <ellipse id="White_Dot_95_" transform="matrix(0.2505 -0.9681 0.9681 0.2505 -18.2408 90.6261)" fill="#FFFFFF" cx="49.409" cy="57.094" rx="1.682" ry="1.471"/>
        <ellipse id="White_Dot_94_" transform="matrix(0.2503 -0.9682 0.9682 0.2503 -22.8078 96.3814)" fill="#FFFFFF" cx="50.831" cy="62.918" rx="1.682" ry="1.469"/>
        <path id="White_Dot_93_" fill="#FFFFFF" d="M44.857,63.357c0.787,0.204,1.611-0.361,1.845-1.259&#xD;&#xA;&#x9;&#x9;&#x9;c0.095-0.368,0.072-0.73-0.037-1.049c-0.599-0.205-1.362-0.435-2.221-0.628c-0.273,0.229-0.489,0.55-0.59,0.94&#xD;&#xA;&#x9;&#x9;&#x9;C43.622,62.26,44.071,63.153,44.857,63.357z"/>
        <ellipse id="White_Dot_92_" transform="matrix(0.9682 0.2503 -0.2503 0.9682 17.1791 -8.1998)" fill="#FFFFFF" cx="40.823" cy="63.431" rx="1.471" ry="1.681"/>
        <path id="White_Dot_91_" fill="#FFFFFF" d="M34.39,63.129c-0.024,0.094-0.036,0.188-0.047,0.281c0.347-0.597,0.748-1.1,1.192-1.52&#xD;&#xA;&#x9;&#x9;&#x9;C35.008,62.044,34.553,62.5,34.39,63.129z"/>
        <path id="White_Dot_90_" fill="#FFFFFF" d="M35.393,65.124c0.787,0.203,1.613-0.36,1.844-1.258&#xD;&#xA;&#x9;&#x9;&#x9;c0.232-0.898-0.216-1.791-1.002-1.994c-0.236-0.062-0.474-0.046-0.7,0.018c-0.444,0.419-0.845,0.922-1.192,1.52&#xD;&#xA;&#x9;&#x9;&#x9;C34.259,64.206,34.688,64.941,35.393,65.124z"/>
        <ellipse id="White_Dot_89_" transform="matrix(0.2505 -0.9681 0.9681 0.2505 -39.8149 86.5868)" fill="#FFFFFF" cx="36.016" cy="69.008" rx="1.68" ry="1.47"/>
        <ellipse id="White_Dot_88_" transform="matrix(0.9681 0.2505 -0.2505 0.9681 8.6459 -13.7874)" fill="#FFFFFF" cx="58.478" cy="27.066" rx="1.471" ry="1.681"/>
        <ellipse id="White_Dot_87_" transform="matrix(0.2503 -0.9682 0.9682 0.2503 38.3198 82.585)" fill="#FFFFFF" cx="72.486" cy="16.549" rx="1.681" ry="1.472"/>
        <ellipse id="White_Dot_86_" transform="matrix(-0.25 0.9682 -0.9682 -0.25 110.1023 -56.5677)" fill="#FFFFFF" cx="76.959" cy="14.358" rx="1.682" ry="1.47"/>
        <ellipse id="White_Dot_85_" transform="matrix(0.251 -0.968 0.968 0.251 38.9204 90.401)" fill="#FFFFFF" cx="77.874" cy="20.052" rx="1.681" ry="1.47"/>
        <ellipse id="White_Dot_84_" transform="matrix(0.9682 0.2502 -0.2502 0.9682 7.7494 -20.1413)" fill="#FFFFFF" cx="83.101" cy="20.411" rx="1.471" ry="1.681"/>
        <ellipse id="White_Dot_83_" transform="matrix(0.2508 -0.968 0.968 0.2508 38.2637 100.7729)" fill="#FFFFFF" cx="84.235" cy="25.667" rx="1.682" ry="1.471"/>
        <ellipse id="White_Dot_82_" transform="matrix(-0.2509 0.968 -0.968 -0.2509 137.5893 -48.2624)" fill="#FFFFFF" cx="87.469" cy="29.107" rx="1.68" ry="1.47"/>
        <ellipse id="White_Dot_81_" transform="matrix(0.2505 -0.9681 0.9681 0.2505 32.5695 108.7042)" fill="#FFFFFF" cx="86.487" cy="33.318" rx="1.681" ry="1.47"/>
        <ellipse id="White_Dot_80_" transform="matrix(-0.2504 0.9682 -0.9682 -0.2504 147.8408 -39.4822)" fill="#FFFFFF" cx="89.206" cy="37.496" rx="1.681" ry="1.468"/>
        <path id="White_Dot_79_" fill="#FFFFFF" d="M90.619,40.837c-0.231,0.898,0.218,1.792,1.004,1.996&#xD;&#xA;&#x9;&#x9;&#x9;c0.25,0.065,0.504,0.044,0.743-0.034c-0.12-0.872-0.245-1.741-0.387-2.602c-0.033-0.21-0.072-0.42-0.108-0.631&#xD;&#xA;&#x9;&#x9;&#x9;C91.299,39.683,90.794,40.166,90.619,40.837z"/>
        <ellipse id="White_Dot_78_" transform="matrix(0.9681 0.2504 -0.2504 0.9681 14.377 -20.6307)" fill="#FFFFFF" cx="88.26" cy="46.182" rx="1.47" ry="1.682"/>
        <ellipse id="White_Dot_77_" transform="matrix(-0.2503 0.9682 -0.9682 -0.2503 161.754 -26.449)" fill="#FFFFFF" cx="91.117" cy="49.401" rx="1.681" ry="1.471"/>
        <ellipse id="White_Dot_76_" transform="matrix(-0.9681 -0.2506 0.2506 -0.9681 164.6632 129.1528)" fill="#FFFFFF" cx="90.553" cy="54.094" rx="1.471" ry="1.681"/>
        <path id="White_Dot_75_" fill="#FFFFFF" d="M91.858,58.276c-0.233,0.898,0.218,1.791,1.004,1.995&#xD;&#xA;&#x9;&#x9;&#x9;c0.239,0.062,0.482,0.046,0.708-0.023c-0.011-1.073-0.032-2.16-0.066-3.259C92.783,56.919,92.072,57.454,91.858,58.276z"/>
        <ellipse id="White_Dot_74_" transform="matrix(-0.2505 0.9681 -0.9681 -0.2505 174.9625 -8.3381)" fill="#FFFFFF" cx="90.709" cy="63.561" rx="1.681" ry="1.472"/>
        <ellipse id="White_Dot_73_" transform="matrix(0.9682 0.25 -0.25 0.9682 20.0549 -20.6906)" fill="#FFFFFF" cx="91.47" cy="68.595" rx="1.473" ry="1.682"/>
        <path id="White_Dot_72_" fill="#FFFFFF" d="M91.794,73.641c-0.234,0.901,0.215,1.795,0.999,1.998&#xD;&#xA;&#x9;&#x9;&#x9;c0.081,0.021,0.159,0.027,0.237,0.034c0.089-1.047,0.171-2.157,0.243-3.329C92.61,72.365,91.99,72.881,91.794,73.641z"/>
        <ellipse id="White_Dot_71_" transform="matrix(0.9681 0.2505 -0.2505 0.9681 22.3958 -20.2655)" fill="#FFFFFF" cx="90.812" cy="77.85" rx="1.472" ry="1.679"/>
        <path id="White_Dot_70_" fill="#FFFFFF" d="M91.705,80.688c-0.784-0.202-1.613,0.359-1.846,1.26&#xD;&#xA;&#x9;&#x9;&#x9;c-0.233,0.9,0.218,1.794,1.003,1.998c0.384,0.1,0.776,0.014,1.105-0.205c0.149-0.657,0.304-1.522,0.456-2.573&#xD;&#xA;&#x9;&#x9;&#x9;C92.244,80.936,91.998,80.762,91.705,80.688z"/>
        <path id="White_Dot_69_" fill="#FFFFFF" d="M88.719,84.257c-0.786-0.203-1.612,0.359-1.845,1.258&#xD;&#xA;&#x9;&#x9;&#x9;c-0.054,0.211-0.066,0.414-0.054,0.614c0.971-0.182,1.956-0.381,2.946-0.588C89.686,84.923,89.294,84.405,88.719,84.257z"/>
        <ellipse id="White_Dot_68_" transform="matrix(0.2505 -0.9681 0.9681 0.2505 -17.1568 144.193)" fill="#FFFFFF" cx="84.549" cy="83.177" rx="1.682" ry="1.469"/>
        <ellipse id="White_Dot_67_" transform="matrix(0.2498 -0.9683 0.9683 0.2498 -22.0695 142.0512)" fill="#FFFFFF" cx="80.644" cy="85.269" rx="1.681" ry="1.471"/>
        <ellipse id="White_Dot_66_" transform="matrix(0.2502 -0.9682 0.9682 0.2502 -25.2394 136.9202)" fill="#FFFFFF" cx="75.785" cy="84.756" rx="1.682" ry="1.473"/>
        <path id="White_Dot_65_" fill="#FFFFFF" d="M72.516,85.646c-0.787-0.204-1.613,0.362-1.846,1.261&#xD;&#xA;&#x9;&#x9;&#x9;c-0.094,0.364-0.071,0.729,0.037,1.045c0.904-0.03,1.815-0.069,2.746-0.128c0.022-0.059,0.049-0.118,0.066-0.182&#xD;&#xA;&#x9;&#x9;&#x9;C73.751,86.741,73.302,85.849,72.516,85.646z"/>
        <ellipse id="White_Dot_64_" transform="matrix(0.2504 -0.9681 0.9681 0.2504 -32.3957 130.3153)" fill="#FFFFFF" cx="67.955" cy="86.078" rx="1.681" ry="1.47"/>
        <path id="White_Dot_63_" fill="#FFFFFF" d="M62.791,85.485c-0.787-0.203-1.613,0.361-1.845,1.262&#xD;&#xA;&#x9;&#x9;&#x9;c-0.091,0.346-0.076,0.689,0.016,0.995c0.868,0.072,1.75,0.136,2.652,0.179c0.073-0.135,0.139-0.279,0.18-0.438&#xD;&#xA;&#x9;&#x9;&#x9;C64.025,86.583,63.577,85.688,62.791,85.485z"/>
        <ellipse id="White_Dot_62_" transform="matrix(0.2506 -0.9681 0.9681 0.2506 -39.2365 120.3495)" fill="#FFFFFF" cx="58.115" cy="85.518" rx="1.683" ry="1.471"/>
        <ellipse id="White_Dot_61_" transform="matrix(0.2506 -0.9681 0.9681 0.2506 -40.7777 114.151)" fill="#FFFFFF" cx="53.342" cy="83.414" rx="1.681" ry="1.47"/>
        <path id="White_Dot_60_" fill="#FFFFFF" d="M48.229,85.563c0.242,0.063,0.485,0.045,0.716-0.024c-0.489-0.149-0.972-0.3-1.44-0.46&#xD;&#xA;&#x9;&#x9;&#x9;C47.687,85.314,47.934,85.488,48.229,85.563z"/>
        <path id="White_Dot_59_" fill="#FFFFFF" d="M50.074,84.303c0.232-0.897-0.216-1.792-1.003-1.995&#xD;&#xA;&#x9;&#x9;&#x9;c-0.786-0.202-1.611,0.36-1.844,1.26c-0.146,0.562-0.025,1.122,0.278,1.512c0.469,0.16,0.952,0.311,1.44,0.46&#xD;&#xA;&#x9;&#x9;&#x9;C49.465,85.381,49.913,84.927,50.074,84.303z"/>
        <path id="White_Dot_58_" fill="#FFFFFF" d="M43.236,81.791c-0.61-0.157-1.241,0.15-1.603,0.714&#xD;&#xA;&#x9;&#x9;&#x9;c0.816,0.456,1.68,0.894,2.599,1.301c0.001-0.007,0.005-0.012,0.006-0.019C44.472,82.889,44.022,81.995,43.236,81.791z"/>
        <ellipse id="White_Dot_57_" transform="matrix(0.2501 -0.9682 0.9682 0.2501 -46.1627 100.1342)" fill="#FFFFFF" cx="41.563" cy="79.869" rx="1.681" ry="1.471"/>
        <ellipse id="White_Dot_56_" transform="matrix(0.2505 -0.9681 0.9681 0.2505 -44.7572 94.4542)" fill="#FFFFFF" cx="38.621" cy="76.132" rx="1.681" ry="1.471"/>
        <path id="White_Dot_55_" fill="#FFFFFF" d="M35.555,73.727c0.232-0.898-0.217-1.791-1.004-1.994&#xD;&#xA;&#x9;&#x9;&#x9;c-0.659-0.171-1.341,0.2-1.683,0.854c0.211,0.82,0.509,1.625,0.908,2.408C34.542,75.149,35.329,74.6,35.555,73.727z"/>
        <path id="White_Dot_54_" fill="#FFFFFF" d="M35.27,76.506c-0.2-0.053-0.401-0.053-0.595-0.014&#xD;&#xA;&#x9;&#x9;&#x9;c0.467,0.681,0.989,1.347,1.601,1.988C36.496,77.588,36.05,76.707,35.27,76.506z"/>
      </g>
      <path id="Inner_Fill_1_" fill="#FF9900" d="M89.731,83.279c1.256-0.205,1.644-23.947-2.445-42.559&#xD;&#xA;&#x9;&#x9;C84.035,25.918,77.4,14.858,70.072,17.909c-16.283,6.778-8.908,38.626-8.908,38.626s-6.556-3.185-9.086-0.117&#xD;&#xA;&#x9;&#x9;c-2.529,3.068,0.359,9.52,0.359,9.52s-12.106-3.364-14.569,0.943C30.333,80.065,55.526,88.815,89.731,83.279z"/>
      <path id="Design_15_" fill="#FFD100" d="M79.723,28.027c1.978,5.502-9.858,9.778-11.103,6.604&#xD;&#xA;&#x9;&#x9;c-1.341-3.454-3.419-11.936,2.468-14.237C77.067,18.057,78.542,24.748,79.723,28.027z"/>
      <path id="Design_14_" fill="#FFFF00" d="M86.621,82.721c-0.35-24.65-0.999-41.438-5.423-45.312&#xD;&#xA;&#x9;&#x9;c-4.13-3.616-9.417,0.438-10.246,3.557C67.652,52.014,81.431,69.222,86.621,82.721z"/>
      <path id="Design_13_" fill="#D40000" d="M63.249,31.278c4.229-2.505,6.699,26.539,12.314,39.653&#xD;&#xA;&#x9;&#x9;C62.61,63.112,58.196,34.268,63.249,31.278z"/>
      <path id="Design_12_" fill="#4B00FF" d="M83.653,82.449c-2.918-2.985-4.748-12.988-7.367-10.961&#xD;&#xA;&#x9;&#x9;C73.166,73.906,76.805,79.562,83.653,82.449z"/>
      <path id="Design_11_" fill="#00AE00" d="M59.415,67.461c-2.405,0.394-4.406-0.741-5.821-3.122&#xD;&#xA;&#x9;&#x9;c-1.208-2.028-0.428-5.445,1.433-6.461c2.419-1.319,5.841,0.623,6.842,4.105C62.628,64.628,61.142,67.178,59.415,67.461z"/>
      <path id="Design_10_" fill="#8900FF" d="M79.224,82.792c-9.879-6.274-12.635-21.379-17.947-14.937&#xD;&#xA;&#x9;&#x9;C56.215,73.986,71.191,81.955,79.224,82.792z"/>
      <path id="Design_9_" fill="#FFD100" d="M73.561,82.51c-9.382-1.131-19.627-15.869-22.482-7.125&#xD;&#xA;&#x9;&#x9;C48.464,83.392,66.067,83.729,73.561,82.51z"/>
      <path id="Design_8_" fill="#4B00FF" d="M43.99,76.776c4.151,1.731,8.395-6.229,4.864-9.16c-1.768-1.449-7.84-1.723-9.11,1.241&#xD;&#xA;&#x9;&#x9;C37.83,73.324,40.072,75.145,43.99,76.776z"/>
    </g>
    <g id="Body">
      <path id="Fill" fill="#006120" d="M90.497,99.874c-4.261,2.81-5.582,6.877-10.131,8.87c-4.112,1.8-8.606,0.288-10.676-4.241&#xD;&#xA;&#x9;&#x9;c-1.988-4.34-1.58-8.839,1.198-12.599c3.514-4.758,6.971-5.945,11.875-8.355c4.547-2.218,7.271-3.117,12.094-4.369&#xD;&#xA;&#x9;&#x9;c4.466-1.158,9.75-0.098,10.894,5.142c1.09,4.919-0.354,10.413-4.358,12.343C97.581,98.492,94.202,97.434,90.497,99.874z"/>
      <path id="Line" fill="#00AE00" d="M97.7,80.305c-0.693,5.342,0.976,8.562,3.505,13.055c0.464,0.822-0.581,1.642-1.043,0.818&#xD;&#xA;&#x9;&#x9;c-2.646-4.701-3.536-8.348-2.811-13.938C97.387,79.963,97.734,80.027,97.7,80.305z"/>
      <path id="Line_1_" fill="#00AE00" d="M89.536,81.872c-1.921,5.729,0.448,9.918,3.303,14.985c0.433,0.767-0.543,1.53-0.978,0.764&#xD;&#xA;&#x9;&#x9;c-2.979-5.286-4.582-9.891-2.578-15.866C89.35,81.555,89.604,81.674,89.536,81.872z"/>
      <path id="Line_2_" fill="#00AE00" d="M80.619,87.092c-0.807,5.729,0.645,10.277,4.506,13.694c0.711,0.631-0.09,1.89-0.802,1.26&#xD;&#xA;&#x9;&#x9;c-4.199-3.717-5.308-8.868-4.431-15.097C79.975,86.377,80.7,86.521,80.619,87.092z"/>
      <path id="Line_3_" fill="#00AE00" d="M70.562,96.211c1.144,5.398,4.979,8.15,9.922,9.594c0.635,0.188,0.396,1.311-0.233,1.122&#xD;&#xA;&#x9;&#x9;c-5.193-1.514-9.536-4.261-10.274-10.459C69.854,95.439,70.297,94.964,70.562,96.211z"/>
    </g>
    <g id="Head">
      <path id="R_Antenna" d="M114.613,67.42c0.787-7.762,4.373-13.504,6.72-15.418c2.083-1.698,3.333,0.731,1.756,2.031&#xD;&#xA;&#x9;&#x9;C120.465,56.195,116.8,60.669,114.613,67.42z"/>
      <path id="Head_1_" fill="#006120" d="M105.533,85.604c-1.86-3.143-2.67-5.976-2.18-9.769c0.845-6.492,5.828-12.082,11.33-11.44&#xD;&#xA;&#x9;&#x9;c5.582,0.643,9.043,4.564,11.11,10.669c1.636,4.821-5.229,6.3-6.317,9.898c0.709,1.896,1.961,1.8,3.705,1.8&#xD;&#xA;&#x9;&#x9;c-0.19,2.797-2.59,4.211-4.902,4.758C115.42,92.193,109.562,92.419,105.533,85.604z"/>
      <path id="L_Antenna" d="M110.107,69.024c-3.051-10.349-1.523-20.183,0.437-24.296c1.739-3.647,4.578-1.495,3.269,1.286&#xD;&#xA;&#x9;&#x9;C111.633,50.642,109.346,58.933,110.107,69.024z"/>
      <g id="L_Eye">
        <path id="White_1_" fill="#FFFFFF" d="M114.126,75.602c-0.705-1.707-0.226-3.693,1.073-4.44c1.298-0.747,2.923,0.032,3.628,1.737&#xD;&#xA;&#x9;&#x9;&#x9;c0.706,1.707,0.226,3.695-1.072,4.443C116.456,78.084,114.833,77.309,114.126,75.602z"/>
        <ellipse id="Pupil_1_" cx="117.296" cy="73.398" rx="1.523" ry="1.799"/>
      </g>
      <g id="R_Eye">
        <path id="White" fill="#FFFFFF" d="M120.062,73.237c-0.504-1.219-0.162-2.644,0.768-3.177c0.929-0.533,2.09,0.023,2.596,1.242&#xD;&#xA;&#x9;&#x9;&#x9;c0.504,1.223,0.16,2.646-0.77,3.178C121.729,75.015,120.566,74.459,120.062,73.237z"/>
        <ellipse id="Pupil" cx="122.588" cy="71.599" rx="0.844" ry="0.996"/>
      </g>
    </g>
    <g id="Front_Wing">
      <path id="Outer_Fill" fill="#56008E" d="M90.497,84.707c1.103-0.583-2.414-26.417-11.11-46.792&#xD;&#xA;&#x9;&#x9;c-8-18.745-20.6-32.763-33.337-20.567c-13.582,13.005,1.089,42.42,1.089,42.42s-7.407-1.542-9.151,2.314&#xD;&#xA;&#x9;&#x9;c-1.744,3.855,2.833,9.77,2.833,9.77s-11.298-2.045-13.292,5.656C22.735,96.018,51.061,105.529,90.497,84.707z"/>
      <g id="Dots">
        <path id="White_Dot" fill="#FFFFFF" d="M49.209,14.778c-0.617,0-1.145,0.434-1.385,1.056c0.499-0.385,0.997-0.735,1.494-1.043&#xD;&#xA;&#x9;&#x9;&#x9;C49.281,14.788,49.246,14.778,49.209,14.778z"/>
        <path id="White_Dot_1_" fill="#FFFFFF" d="M49.209,18.378c0.842,0,1.525-0.806,1.525-1.8c0-0.95-0.625-1.721-1.416-1.787&#xD;&#xA;&#x9;&#x9;&#x9;c-0.498,0.308-0.996,0.658-1.494,1.043c-0.088,0.228-0.14,0.478-0.14,0.744C47.684,17.572,48.367,18.378,49.209,18.378z"/>
        <ellipse id="White_Dot_53_" fill="#FFFFFF" cx="47.683" cy="21.462" rx="1.526" ry="1.799"/>
        <ellipse id="White_Dot_52_" fill="#FFFFFF" cx="43.87" cy="23.648" rx="1.525" ry="1.8"/>
        <ellipse id="White_Dot_51_" fill="#FFFFFF" cx="44.96" cy="28.918" rx="1.525" ry="1.8"/>
        <path id="White_Dot_50_" fill="#FFFFFF" d="M42.236,38.558c0-0.994-0.683-1.799-1.525-1.799c-0.087,0-0.171,0.014-0.254,0.03&#xD;&#xA;&#x9;&#x9;&#x9;c0.107,1.189,0.261,2.374,0.453,3.544C41.657,40.217,42.236,39.472,42.236,38.558z"/>
        <ellipse id="White_Dot_49_" fill="#FFFFFF" cx="44.197" cy="41.772" rx="1.525" ry="1.8"/>
        <path id="White_Dot_48_" fill="#FFFFFF" d="M45.068,47.685c0-0.994-0.683-1.8-1.525-1.8c-0.518,0-0.974,0.306-1.249,0.771&#xD;&#xA;&#x9;&#x9;&#x9;c0.257,0.947,0.528,1.86,0.803,2.741c0.142,0.052,0.29,0.087,0.446,0.087C44.385,49.485,45.068,48.679,45.068,47.685z"/>
        <ellipse id="White_Dot_47_" fill="#FFFFFF" cx="48.01" cy="56.169" rx="1.525" ry="1.8"/>
        <ellipse id="White_Dot_46_" fill="#FFFFFF" cx="48.01" cy="50.899" rx="1.525" ry="1.8"/>
        <ellipse id="White_Dot_45_" fill="#FFFFFF" cx="47.683" cy="61.954" rx="1.526" ry="1.8"/>
        <path id="White_Dot_44_" fill="#FFFFFF" d="M41.038,62.984c0.842,0,1.525-0.806,1.525-1.801c0-0.664-0.308-1.238-0.761-1.55&#xD;&#xA;&#x9;&#x9;&#x9;c-0.745,0.128-1.463,0.348-2.095,0.688c-0.12,0.257-0.194,0.548-0.194,0.862C39.513,62.178,40.196,62.984,41.038,62.984z"/>
        <ellipse id="White_Dot_43_" fill="#FFFFFF" cx="41.038" cy="66.839" rx="1.525" ry="1.801"/>
        <ellipse id="White_Dot_42_" fill="#FFFFFF" cx="43.979" cy="72.494" rx="1.524" ry="1.8"/>
        <path id="White_Dot_41_" fill="#FFFFFF" d="M38.096,74.551c0.842,0,1.525-0.806,1.525-1.8c0-0.406-0.118-0.776-0.31-1.077&#xD;&#xA;&#x9;&#x9;&#x9;c-0.655-0.052-1.48-0.085-2.393-0.055c-0.214,0.31-0.348,0.7-0.348,1.132C36.571,73.745,37.254,74.551,38.096,74.551z"/>
        <ellipse id="White_Dot_40_" fill="#FFFFFF" cx="34.065" cy="75.708" rx="1.525" ry="1.8"/>
        <path id="White_Dot_39_" fill="#FFFFFF" d="M27.529,77.121c0,0.104,0.012,0.204,0.026,0.303c0.193-0.712,0.465-1.34,0.802-1.893&#xD;&#xA;&#x9;&#x9;&#x9;C27.867,75.83,27.529,76.426,27.529,77.121z"/>
        <path id="White_Dot_38_" fill="#FFFFFF" d="M29.054,78.919c0.842,0,1.525-0.805,1.525-1.798s-0.683-1.798-1.525-1.798&#xD;&#xA;&#x9;&#x9;&#x9;c-0.253,0-0.488,0.08-0.698,0.208c-0.337,0.553-0.609,1.181-0.802,1.893C27.677,78.271,28.3,78.919,29.054,78.919z"/>
        <ellipse id="White_Dot_37_" fill="#FFFFFF" cx="30.688" cy="82.777" rx="1.525" ry="1.799"/>
        <ellipse id="White_Dot_36_" fill="#FFFFFF" cx="42.345" cy="33.289" rx="1.525" ry="1.8"/>
        <ellipse id="White_Dot_35_" fill="#FFFFFF" cx="53.675" cy="18.634" rx="1.525" ry="1.8"/>
        <ellipse id="White_Dot_34_" fill="#FFFFFF" cx="57.597" cy="15.164" rx="1.525" ry="1.8"/>
        <ellipse id="White_Dot_33_" fill="#FFFFFF" cx="59.994" cy="20.819" rx="1.525" ry="1.799"/>
        <ellipse id="White_Dot_32_" fill="#FFFFFF" cx="65.333" cy="19.791" rx="1.525" ry="1.8"/>
        <ellipse id="White_Dot_31_" fill="#FFFFFF" cx="67.838" cy="24.933" rx="1.525" ry="1.8"/>
        <ellipse id="White_Dot_30_" fill="#FFFFFF" cx="71.978" cy="27.631" rx="1.525" ry="1.798"/>
        <ellipse id="White_Dot_27_" fill="#FFFFFF" cx="72.087" cy="32.259" rx="1.525" ry="1.799"/>
        <ellipse id="White_Dot_29_" fill="#FFFFFF" cx="75.9" cy="35.859" rx="1.522" ry="1.8"/>
        <path id="White_Dot_26_" fill="#FFFFFF" d="M78.188,38.943c0,0.994,0.684,1.799,1.525,1.799c0.269,0,0.518-0.089,0.737-0.233&#xD;&#xA;&#x9;&#x9;&#x9;c-0.347-0.872-0.698-1.739-1.063-2.594c-0.09-0.21-0.183-0.417-0.273-0.625C78.569,37.564,78.188,38.201,78.188,38.943z"/>
        <ellipse id="White_Dot_25_" fill="#FFFFFF" cx="77.207" cy="45.114" rx="1.525" ry="1.8"/>
        <ellipse id="White_Dot_24_" fill="#FFFFFF" cx="80.911" cy="47.685" rx="1.524" ry="1.8"/>
        <ellipse id="White_Dot_23_" fill="#FFFFFF" cx="81.564" cy="52.699" rx="1.525" ry="1.8"/>
        <path id="White_Dot_22_" fill="#FFFFFF" d="M83.961,56.683c0,0.994,0.683,1.799,1.525,1.799c0.256,0,0.494-0.082,0.706-0.213&#xD;&#xA;&#x9;&#x9;&#x9;c-0.29-1.109-0.596-2.23-0.915-3.36C84.535,55.029,83.961,55.773,83.961,56.683z"/>
        <ellipse id="White_Dot_21_" fill="#FFFFFF" cx="84.18" cy="62.468" rx="1.525" ry="1.799"/>
        <ellipse id="White_Dot_20_" fill="#FFFFFF" cx="86.25" cy="67.481" rx="1.525" ry="1.8"/>
        <path id="White_Dot_19_" fill="#FFFFFF" d="M87.885,72.624c0,0.995,0.683,1.802,1.524,1.802c0.085,0,0.166-0.014,0.247-0.029&#xD;&#xA;&#x9;&#x9;&#x9;c-0.184-1.108-0.39-2.281-0.622-3.513C88.375,71.082,87.885,71.783,87.885,72.624z"/>
        <ellipse id="White_Dot_28_" fill="#FFFFFF" cx="87.992" cy="77.249" rx="1.525" ry="1.797"/>
        <path id="White_Dot_18_" fill="#FFFFFF" d="M89.627,79.949c-0.842,0-1.525,0.807-1.525,1.801s0.684,1.801,1.525,1.801&#xD;&#xA;&#x9;&#x9;&#x9;c0.411,0,0.782-0.194,1.057-0.506c-0.021-0.724-0.09-1.661-0.21-2.792C90.231,80.062,89.94,79.949,89.627,79.949z"/>
        <path id="White_Dot_17_" fill="#FFFFFF" d="M87.557,84.449c-0.842,0-1.525,0.806-1.525,1.8c0,0.229,0.04,0.447,0.106,0.649&#xD;&#xA;&#x9;&#x9;&#x9;c0.927-0.447,1.862-0.919,2.803-1.399C88.699,84.881,88.172,84.449,87.557,84.449z"/>
        <ellipse id="White_Dot_16_" fill="#FFFFFF" cx="83.09" cy="84.449" rx="1.525" ry="1.8"/>
        <ellipse id="White_Dot_15_" fill="#FFFFFF" cx="79.713" cy="87.663" rx="1.525" ry="1.799"/>
        <ellipse id="White_Dot_14_" fill="#FFFFFF" cx="74.702" cy="88.434" rx="1.526" ry="1.8"/>
        <path id="White_Dot_13_" fill="#FFFFFF" d="M71.651,90.232c-0.842,0-1.525,0.807-1.525,1.801c0,0.404,0.117,0.774,0.308,1.074&#xD;&#xA;&#x9;&#x9;&#x9;c0.9-0.274,1.805-0.558,2.724-0.868c0.007-0.068,0.018-0.136,0.018-0.206C73.176,91.039,72.493,90.232,71.651,90.232z"/>
        <ellipse id="White_Dot_12_" fill="#FFFFFF" cx="67.185" cy="91.904" rx="1.525" ry="1.8"/>
        <path id="White_Dot_11_" fill="#FFFFFF" d="M61.846,92.675c-0.842,0-1.525,0.807-1.525,1.802c0,0.383,0.103,0.735,0.275,1.027&#xD;&#xA;&#x9;&#x9;&#x9;c0.89-0.157,1.791-0.329,2.708-0.526c0.04-0.16,0.067-0.326,0.067-0.501C63.371,93.481,62.688,92.675,61.846,92.675z"/>
        <ellipse id="White_Dot_10_" fill="#FFFFFF" cx="57.161" cy="93.962" rx="1.526" ry="1.801"/>
        <ellipse id="White_Dot_9_" fill="#FFFFFF" cx="51.823" cy="93.061" rx="1.525" ry="1.799"/>
        <path id="White_Dot_8_" fill="#FFFFFF" d="M47.248,96.66c0.259,0,0.5-0.084,0.713-0.219c-0.529-0.021-1.053-0.049-1.566-0.089&#xD;&#xA;&#x9;&#x9;&#x9;C46.639,96.547,46.932,96.66,47.248,96.66z"/>
        <path id="White_Dot_7_" fill="#FFFFFF" d="M48.773,94.859c0-0.994-0.683-1.799-1.525-1.799s-1.525,0.805-1.525,1.799&#xD;&#xA;&#x9;&#x9;&#x9;c0,0.621,0.267,1.17,0.672,1.493c0.513,0.04,1.037,0.067,1.566,0.089C48.442,96.139,48.773,95.548,48.773,94.859z"/>
        <path id="White_Dot_6_" fill="#FFFFFF" d="M41.256,94.09c-0.653,0-1.207,0.487-1.423,1.168c0.938,0.255,1.918,0.475,2.947,0.652&#xD;&#xA;&#x9;&#x9;&#x9;c0-0.007,0.002-0.014,0.002-0.021C42.781,94.896,42.098,94.09,41.256,94.09z"/>
        <ellipse id="White_Dot_5_" fill="#FFFFFF" cx="39.077" cy="92.546" rx="1.525" ry="1.799"/>
        <ellipse id="White_Dot_4_" fill="#FFFFFF" cx="35.154" cy="89.462" rx="1.525" ry="1.799"/>
        <path id="White_Dot_3_" fill="#FFFFFF" d="M31.45,87.791c0-0.993-0.683-1.798-1.525-1.798c-0.706,0-1.294,0.568-1.468,1.336&#xD;&#xA;&#x9;&#x9;&#x9;c0.425,0.793,0.933,1.547,1.537,2.252C30.803,89.537,31.45,88.756,31.45,87.791z"/>
        <path id="White_Dot_2_" fill="#FFFFFF" d="M31.886,90.747c-0.213,0-0.416,0.053-0.6,0.146c0.645,0.581,1.343,1.132,2.123,1.631&#xD;&#xA;&#x9;&#x9;&#x9;C33.399,91.541,32.722,90.747,31.886,90.747z"/>
      </g>
      <path id="Inner_Fill" fill="#FF9900" d="M88.318,83.164c1.207-0.547-4.569-25.257-13.508-43.449&#xD;&#xA;&#x9;&#x9;c-7.108-14.468-16.642-24.15-23.205-19.024c-14.586,11.389,1.09,42.419,1.09,42.419s-7.409-1.544-9.152,2.314&#xD;&#xA;&#x9;&#x9;c-1.743,3.857,2.833,9.769,2.833,9.769s-13.028-0.241-14.381,4.884C27.855,95.761,55.418,98.074,88.318,83.164z"/>
      <path id="Design" fill="#FFD100" d="M63.92,28.59c3.415,5.171-7.355,12.775-9.43,9.82c-2.244-3.219-6.532-11.451-1.22-15.415&#xD;&#xA;&#x9;&#x9;C58.666,18.969,61.884,25.507,63.92,28.59z"/>
      <path id="Design_1_" fill="#FFFF00" d="M85.051,83.42c-6.753-25.452-11.766-42.676-17.212-45.504&#xD;&#xA;&#x9;&#x9;c-5.085-2.64-9.341,2.98-9.362,6.433C58.033,56.683,76.336,70.822,85.051,83.42z"/>
      <path id="Design_2_" fill="#D40000" d="M48.228,36.374c3.595-3.729,13.618,25.708,22.66,37.792&#xD;&#xA;&#x9;&#x9;C55.854,69.537,43.932,40.828,48.228,36.374z"/>
      <path id="Design_3_" fill="#4B00FF" d="M82.001,83.936c-3.703-2.312-8.139-12.188-10.241-9.386&#xD;&#xA;&#x9;&#x9;C69.254,77.893,74.375,82.777,82.001,83.936z"/>
      <path id="Design_4_" fill="#00AE00" d="M53.776,74.901c-2.312,1.053-4.615,0.414-6.655-1.674c-1.739-1.779-1.843-5.53-0.239-7.081&#xD;&#xA;&#x9;&#x9;c2.086-2.015,6.025-0.92,7.935,2.421C56.266,71.103,55.436,74.144,53.776,74.901z"/>
      <path id="Design_5_" fill="#8900FF" d="M77.645,85.477C66.096,81.623,59.407,66.709,55.747,74.81&#xD;&#xA;&#x9;&#x9;C52.259,82.521,69.363,86.764,77.645,85.477z"/>
      <path id="Design_6_" fill="#FFD100" d="M71.885,86.703C62.173,88.048,48.06,75.52,47.466,85.35&#xD;&#xA;&#x9;&#x9;C46.92,94.346,64.679,89.977,71.885,86.703z"/>
      <path id="Design_7_" fill="#4B00FF" d="M40.711,88.689c4.617,0.683,6.809-8.707,2.504-10.797c-2.151-1.027-8.318,0.316-8.824,3.729&#xD;&#xA;&#x9;&#x9;C33.629,86.764,36.353,88.048,40.711,88.689z"/>
    </g>
  </g>
</svg>