<?xml version="1.0" encoding="UTF-8" standalone="no"?>
<svg
   version="1.1"
   id="butterfly2"
   x="0px"
   y="0px"
   width="104.47951"
   height="109.36779"
   viewBox="0 0 104.47951 109.36779"
   enable-background="new 0 0 150 150"
   xml:space="preserve"
   sodipodi:docname="butterfly2_.svg"
   xmlns:inkscape="http://www.inkscape.org/namespaces/inkscape"
   xmlns:sodipodi="http://sodipodi.sourceforge.net/DTD/sodipodi-0.dtd"
   xmlns="http://www.w3.org/2000/svg"
   xmlns:svg="http://www.w3.org/2000/svg"><defs
   id="defs46" /><sodipodi:namedview
   id="namedview44"
   pagecolor="#ffffff"
   bordercolor="#000000"
   borderopacity="0.25"
   inkscape:showpageshadow="2"
   inkscape:pageopacity="0.0"
   inkscape:pagecheckerboard="0"
   inkscape:deskcolor="#d1d1d1" />
  <g
   id="g41"
   transform="translate(-19.999303,-10.000228)">
    <g
   id="R_Wing">
      <path
   id="Wing_Fill_1_"
   fill="#d90000"
   d="m 86.759,88.973 c 7.897,-1.172 15.981,1.899 19.974,3.612 5.871,2.506 10.289,8.304 6.896,16.254 -4.885,11.454 -20.711,6.193 -27.207,0.429 0.273,3.711 -2.229,8.09 -5.454,7.293 -3.171,-0.802 -5.243,-6.19 -2.735,-11.562 -3.832,4.26 -4.665,11.501 -9.583,13.922 -2.464,1.213 -5.928,-0.116 -6.312,-3.098 -0.449,-3.544 0.709,-6.265 3.279,-8.479 4.776,-4.131 10.896,-5.884 13.069,-13.642 0.484,-1.731 5.744,-2.707 8.073,-4.729 z" />
      <path
   id="Design_11_"
   fill="#ffd100"
   d="m 108.65,99.704 c -2.241,-0.203 -3.146,2.203 -4.021,4.507 -0.665,1.753 -1.631,2.619 -1.631,4.523 0.003,1.678 1.148,3.115 2.646,3.022 3.123,-0.188 5.222,-4.145 5.662,-8.188 0.238,-2.091 -0.783,-3.694 -2.656,-3.864 z" />
      <path
   id="Design_10_"
   fill="#ffd100"
   d="m 93.682,91.174 c -4.578,1.104 -8.187,6.852 -7.342,11.863 0.91,5.457 6.428,8.327 11.124,6.312 3.949,-1.697 7.499,-8.188 5.708,-13.106 -1.505,-4.093 -4.749,-6.211 -9.49,-5.069 z" />
      <path
   id="Design_9_"
   fill="#ffd100"
   d="m 82.807,106.729 c -1.225,-0.668 -2.512,0.604 -3.002,2.045 -0.548,1.595 0.002,3.342 1.355,4.08 1.292,0.705 2.527,-1.076 2.833,-2.676 0.282,-1.468 0.004,-2.8 -1.186,-3.449 z" />
      <path
   id="Design_8_"
   fill="#ffd100"
   d="m 76.064,105.227 c -2.135,2.529 -2.887,6.703 -6.07,5.922 -1.237,-0.303 -1.309,-2.184 -0.73,-3.463 0.682,-1.498 1.736,-1.922 3.108,-2.559 1.302,-0.605 2.032,-1.156 3.124,-2.182 1.031,-0.959 2.637,-0.17 0.568,2.282 z" />
      <path
   id="Design_7_"
   fill="#ffd100"
   d="m 67.257,111.706 c -1.146,-0.22 -2.004,0.858 -2.319,2.118 -0.311,1.216 0.079,2.552 1.144,2.959 1.25,0.1 2.12,-0.738 2.633,-2.006 0.503,-1.242 -0.253,-2.836 -1.458,-3.071 z" />
      <path
   id="Design_6_"
   fill="#ffd100"
   d="m 80.654,97.471 c -1.894,1.146 -2.86,3.098 -2.342,4.784 0.426,1.388 1.971,3.167 3.754,2.625 1.998,-0.592 3.289,-2.675 2.926,-4.942 -0.31,-1.952 -2.792,-3.404 -4.338,-2.467 z" />
    </g>
    <g
   id="L_Wing">
      <path
   id="Wing_Fill"
   fill="#d90000"
   d="M 77.948,71.427 C 85.509,58.651 87.363,42.358 88.007,34.169 88.973,22.13 84.309,10.125 70.79,10.001 51.32,9.821 46.656,41.15 49.711,56.725 44.805,53.457 36.88,54.486 35.553,60.663 c -1.287,6.088 4.589,13.736 13.875,13.438 -8.754,3.417 -19.367,-0.594 -26.411,6.092 -3.528,3.349 -4.305,10.339 -0.482,13.246 4.545,3.444 9.17,3.492 14.159,0.718 9.292,-5.146 16.315,-14.409 28.651,-12.33 2.754,0.463 8.056,-7.894 12.603,-10.4 z" />
      <path
   id="Design_5_"
   fill="#ffd100"
   d="m 79.634,25.493 c -1.405,4.028 -5.403,3.778 -9.239,3.553 -2.918,-0.171 -4.839,0.85 -7.467,-0.584 -2.308,-1.27 -3.429,-4.339 -2.178,-6.857 2.613,-5.259 9.645,-5.907 15.555,-3.623 3.068,1.168 4.506,4.142 3.329,7.511 z" />
      <path
   id="Design_4_"
   fill="#ffd100"
   d="M 80.123,57.798 C 75.154,64.883 64.516,66.794 58.24,61.558 51.402,55.874 51.6,44.175 57.919,37.57 c 5.31,-5.549 16.935,-6.802 22.366,0 4.504,5.683 4.986,12.889 -0.162,20.228 z" />
      <path
   id="Design_3_"
   fill="#ffd100"
   d="m 50.491,64.889 c 0,2.619 -2.725,3.886 -5.08,3.651 -2.605,-0.251 -4.603,-2.518 -4.603,-5.417 0,-2.766 3.387,-3.562 5.82,-2.885 2.235,0.619 3.863,2.106 3.863,4.651 z" />
      <path
   id="Design_2_"
   fill="#ffd100"
   d="m 47.484,77.68 c -5.097,1.788 -11.417,-0.058 -12.737,6.037 -0.513,2.367 2.025,3.906 4.224,3.871 2.581,-0.051 3.957,-1.557 5.868,-3.449 1.818,-1.797 3.124,-2.643 5.359,-3.761 2.098,-1.06 2.22,-4.433 -2.714,-2.698 z" />
      <path
   id="Design_1_"
   fill="#ffd100"
   d="m 31.917,88.027 c -0.563,2.146 -2.695,2.82 -4.666,2.414 -1.911,-0.379 -3.46,-2.062 -3.218,-4.205 0.805,-2.236 2.615,-3.109 4.746,-3.043 2.094,0.068 3.722,2.575 3.138,4.834 z" />
      <path
   id="Design"
   fill="#ffd100"
   d="m 61.631,75.586 c -3.001,2.406 -6.423,2.611 -8.357,0.445 -1.592,-1.782 -2.885,-5.794 -0.796,-8.468 2.321,-3.007 6.168,-3.676 9.021,-1.337 2.454,2.006 2.586,7.392 0.132,9.36 z" />
    </g>
    <path
   id="R_Arm"
   d="m 93.475,86.229 c 7.229,2.449 17.644,-0.814 25.113,-3.752 0.153,-3.03 3.825,-8.405 5.523,-6.055 1.689,2.339 -2.851,8.072 -5.262,6.771 -7.806,4.222 -19.479,8.455 -27.021,3.475 z" />
    <path
   id="L_Leg"
   d="m 56.856,94.305 c -4.511,3.787 -9.385,3.713 -14.459,0.892 -1.526,2.938 -3.184,3.563 -5.837,6.391 -1.597,1.701 -1.094,5.687 1.061,6.239 4.212,1.074 6.964,-5.272 6.633,-10.104 1.458,1.485 4.444,2.637 7.428,2.229 1.963,-0.255 5.254,-2.45 6.102,-4.087 0.4,-0.769 -0.409,-0.719 -0.928,-1.56 z" />
    <path
   id="R_Leg"
   d="m 59.971,100.241 c -3.001,4.28 -7.076,5.438 -11.863,4.354 -0.686,2.823 -1.404,4.399 -1.695,7.271 -0.204,2.116 0.222,5.006 2.127,4.932 3.722,-0.155 2.855,-6.625 1.617,-10.563 1.511,0.873 4.226,1.087 6.631,0 1.583,-0.697 3.887,-3.354 4.267,-4.926 0.178,-0.743 -0.484,-0.497 -1.084,-1.068 z" />
    <g
   id="Body">
      <path
   fill="#ff7b00"
   d="m 95.322,74.695 c 0.126,-3.319 -4.309,-4.754 -6.102,-7.428 -1.239,-0.048 -2.515,-0.101 -3.816,-0.13 -2.347,-0.054 -4.787,-0.019 -7.303,0.292 -1.61,0.2 -3.251,0.516 -4.917,0.998 -3.239,0.936 -6.569,2.495 -9.953,5.073 -0.003,0.002 -0.006,0.004 -0.009,0.006 -8.822,6.759 -10.811,24.957 -1.194,30.007 8.018,4.166 15.29,3.672 22.081,-1.521 0.961,-0.735 1.913,-1.564 2.856,-2.488 0.936,-0.917 1.766,-1.838 2.511,-2.757 1.941,-2.396 3.27,-4.78 4.169,-7.058 0.798,-2.021 1.261,-3.956 1.519,-5.743 0.605,-4.182 0.096,-7.549 0.158,-9.251 z"
   id="path21" />
      <path
   fill="#ffff00"
   d="m 85.245,77.963 c -1.74,-3.898 -1.204,-7.198 0.159,-10.826 -2.347,-0.054 -4.787,-0.019 -7.303,0.292 -1.596,4.686 -1.581,10.343 -0.02,14.1 2.08,4.987 9.049,8.956 15.562,8.16 0.798,-2.021 1.261,-3.956 1.519,-5.743 -4.235,-0.301 -7.916,-1.47 -9.917,-5.983 z"
   id="path23" />
      <path
   fill="#ffff00"
   d="m 69.789,88.841 c -3.786,-7.218 -2.854,-14.997 3.396,-20.414 -3.239,0.936 -6.569,2.495 -9.953,5.073 -4.102,5.9 -4.833,13.358 -1.998,19.171 3.359,6.857 13.07,11.439 22.875,9.32 0.961,-0.735 1.913,-1.564 2.856,-2.488 0.936,-0.917 1.766,-1.838 2.511,-2.757 -8.312,-0.055 -15.934,-0.704 -19.687,-7.905 z"
   id="path25" />
    </g>
    <path
   id="L_Arm"
   d="m 73.104,74.695 c -1.856,2.375 -4.509,10.77 2.521,14.409 1.824,-2.246 6.831,-1.764 6.831,1.268 0,3.007 -5.886,2.188 -7.029,-0.521 C 67.335,86.062 69.739,76.72 71.58,73.879 Z" />
    <g
   id="Head">
      <path
   id="Head_1_"
   fill="#ff7b00"
   d="m 88.835,73.682 c -2.592,-4.575 -3.724,-8.704 -3.037,-14.226 1.179,-9.454 8.128,-17.596 15.804,-16.661 7.787,0.936 15.479,9.914 15.211,22.987 -7.562,4.308 -15.121,4.604 -23.875,0.593 3.979,12.182 18.086,8.991 20.52,8.991 -0.268,4.071 -3.607,6.131 -6.839,6.927 -3.993,0.982 -12.161,1.311 -17.784,-8.611 z" />
      <g
   id="L_Eye">
        <path
   fill="#ffffff"
   d="m 93.109,57.979 c -0.047,-3.122 1.832,-5.691 4.195,-5.739 2.359,-0.048 4.312,2.442 4.357,5.562 0.047,3.122 -1.832,5.691 -4.192,5.74 -2.362,0.049 -4.315,-2.442 -4.36,-5.563 z"
   id="path30" />
        <path
   d="m 98.072,57.599 c 0.582,-1.48 2.066,-2.121 3.316,-1.43 1.25,0.691 1.791,2.451 1.206,3.932 -0.581,1.479 -2.065,2.121 -3.315,1.43 -1.25,-0.691 -1.789,-2.451 -1.207,-3.932 z"
   id="path32" />
      </g>
      <g
   id="R_Eye">
        <path
   id="White"
   fill="#ffffff"
   d="m 108.331,59.028 c -0.034,-2.32 1.362,-4.23 3.119,-4.266 1.756,-0.036 3.208,1.816 3.241,4.136 0.035,2.32 -1.36,4.23 -3.116,4.266 -1.759,0.036 -3.209,-1.816 -3.244,-4.136 z" />
        <path
   id="Pupil"
   d="m 111.975,58.66 c 0.437,-1.1 1.537,-1.576 2.467,-1.063 0.93,0.514 1.33,1.822 0.896,2.922 -0.436,1.101 -1.537,1.577 -2.466,1.064 -0.929,-0.514 -1.33,-1.822 -0.897,-2.923 z" />
      </g>
      <path
   id="L_Antenna"
   fill="#d90000"
   d="m 101.841,44.639 c 3.091,-8.663 5.442,-22.712 -1.353,-26.663 -3.719,-2.161 -13.383,1.939 -11.452,10.085 0.796,3.359 4.426,4.478 7.354,3.347 2.289,-0.882 5.002,-4.312 3.539,-6.453 -1.326,-1.969 -4.52,-1.222 -5.683,1.546 -0.699,1.666 1.356,3.259 1.778,0.924 0.216,-1.178 0.604,-2.164 2.166,-2.123 1.881,0.047 -0.105,4.421 -1.916,4.99 -1.62,0.528 -4.094,0.161 -4.549,-2.627 -0.942,-5.798 5.898,-8.857 8.117,-5.965 5.196,6.763 1.707,17.126 1.999,22.939 z" />
      <path
   id="R_Antenna"
   fill="#d90000"
   d="m 108.316,46.45 c -0.088,-7.521 1.766,-18.856 7.896,-19.631 3.354,-0.424 9.572,5.79 6.021,11.296 -1.465,2.271 -4.484,1.938 -6.398,0.139 -1.495,-1.405 -2.65,-4.864 -0.998,-6.002 1.505,-1.053 3.715,0.542 3.876,3.001 0.099,1.481 -1.86,2.014 -1.578,0.12 0.146,-0.955 0.105,-1.822 -1.083,-2.299 -1.426,-0.572 -1.062,3.363 0.156,4.377 1.084,0.922 3.038,1.445 4.104,-0.506 2.205,-4.058 -2.156,-8.576 -4.572,-7.116 -5.655,3.411 -5.703,12.338 -7.424,16.621 z" />
    </g>
  </g>
</svg>
