<?xml version="1.0" encoding="UTF-8" standalone="no"?>
<svg
   version="1.1"
   width="27.42136"
   height="38.389904"
   id="svg8"
   sodipodi:docname="C-pixel.svg"
   xmlns:inkscape="http://www.inkscape.org/namespaces/inkscape"
   xmlns:sodipodi="http://sodipodi.sourceforge.net/DTD/sodipodi-0.dtd"
   xmlns="http://www.w3.org/2000/svg"
   xmlns:svg="http://www.w3.org/2000/svg">
  <defs
     id="defs12" />
  <sodipodi:namedview
     id="namedview10"
     pagecolor="#ffffff"
     bordercolor="#000000"
     borderopacity="0.25"
     inkscape:showpageshadow="2"
     inkscape:pageopacity="0.0"
     inkscape:pagecheckerboard="0"
     inkscape:deskcolor="#d1d1d1" />
  <!-- Exported by Scratch - http://scratch.mit.edu/ -->
  <g
     id="ID0.7101063695736229"
     transform="matrix(1.0102606,0,0,1.0102606,-0.25256515,0)">
    <path
       id="ID0.5656086783856153"
       fill="#39b54a"
       d="M 21,0 H 84 V 21 H 21 Z"
       transform="matrix(0.25850341,0,0,0.25850341,0.25,0)" />
    <path
       id="ID0.5747539722360671"
       fill="#39b54a"
       d="m 84,21 h 21 V 42 H 84 Z"
       transform="matrix(0.25850341,0,0,0.25850341,0.25,0)" />
    <path
       id="ID0.18830498727038503"
       fill="#39b54a"
       d="M 0,21 H 21 V 126 H 0 Z"
       transform="matrix(0.25850341,0,0,0.25850341,0.25,0)" />
    <path
       id="ID0.6148195625282824"
       fill="#39b54a"
       d="m 84,105 h 21 v 21 H 84 Z"
       transform="matrix(0.25850341,0,0,0.25850341,0.25,0)" />
    <path
       id="ID0.10297868680208921"
       fill="#39b54a"
       d="m 21,126 h 63 v 21 H 21 Z"
       transform="matrix(0.25850341,0,0,0.25850341,0.25,0)" />
  </g>
</svg>
