<?xml version="1.0" encoding="UTF-8" standalone="no"?>
<svg
   xmlns:dc="http://purl.org/dc/elements/1.1/"
   xmlns:cc="http://creativecommons.org/ns#"
   xmlns:rdf="http://www.w3.org/1999/02/22-rdf-syntax-ns#"
   xmlns:svg="http://www.w3.org/2000/svg"
   xmlns="http://www.w3.org/2000/svg"
   xmlns:sodipodi="http://sodipodi.sourceforge.net/DTD/sodipodi-0.dtd"
   xmlns:inkscape="http://www.inkscape.org/namespaces/inkscape"
   version="1.1"
   width="127.06297"
   height="104.72907"
   viewBox="20 47 127.06297 104.72907"
   id="svg264"
   sodipodi:docname="cake-a.svg"
   inkscape:version="0.92.2 5c3e80d, 2017-08-06">
  <metadata
     id="metadata270">
    <rdf:RDF>
      <cc:Work
         rdf:about="">
        <dc:format>image/svg+xml</dc:format>
        <dc:type
           rdf:resource="http://purl.org/dc/dcmitype/StillImage" />
        <dc:title></dc:title>
      </cc:Work>
    </rdf:RDF>
  </metadata>
  <defs
     id="defs268" />
  <sodipodi:namedview
     pagecolor="#ffffff"
     bordercolor="#666666"
     borderopacity="1"
     objecttolerance="10"
     gridtolerance="10"
     guidetolerance="10"
     inkscape:pageopacity="0"
     inkscape:pageshadow="2"
     inkscape:window-width="640"
     inkscape:window-height="480"
     id="namedview266"
     showgrid="false"
     showguides="false"
     fit-margin-top="0"
     fit-margin-left="0"
     fit-margin-right="0"
     fit-margin-bottom="0"
     inkscape:zoom="1"
     inkscape:cx="158.64999"
     inkscape:cy="122.28304"
     inkscape:window-x="-2"
     inkscape:window-y="-2"
     inkscape:window-maximized="0"
     inkscape:current-layer="svg264" />
  <!-- Exported by Scratch - http://scratch.mit.edu/ -->
  <g
     id="ID0.45660674618557096"
     transform="matrix(0.81450623,0,0,0.81450623,-111.95001,-49.453965)">
    <path
       id="ID0.5747466580942273"
       d="m 240,212 c 21.244,0 40.494,1.905 54.433,4.982 C 308.372,220.06 317,224.31 317,229 c 0,4.69 -8.628,8.94 -22.567,12.018 C 280.494,244.095 261.244,246 240,246 218.756,246 199.506,244.095 185.567,241.018 171.628,237.94 163,233.69 163,229 c 0,-4.69 8.628,-8.94 22.567,-12.018 C 199.506,213.905 218.756,212 240,212 Z"
       inkscape:connector-curvature="0"
       style="fill:#b2b2b2;stroke:#b2b2b2;stroke-width:2" />
    <g
       id="ID0.302299955394119"
       transform="translate(162,118)">
      <path
         id="ID0.9443309367634356"
         d="m 221.3,166.3 c 14.181,0 24.707,2.282 36.336,6.206 5.526,1.869 10.343,5.525 13.864,9.994 2.772,3.524 4.815,8.045 4.5,12.25 -0.601,4.732 0.571,11.302 -7,12.15 -30.28,3.39 -61.125,3.256 -91.5,-0.6 -7.594,-0.964 -5.956,-8.11 -7,-12.5 -0.754,-3.562 -1.158,-7.856 0.8,-10.95 3.081,-4.773 8.09,-8.355 13.664,-10.344 11.563,-4.103 22.155,-6.206 36.336,-6.206 z"
         transform="matrix(1,0,0,1.5603157,-145,-210.35)"
         inkscape:connector-curvature="0"
         style="fill:#660000;stroke:#703d00;stroke-width:1.99512506;stroke-linecap:round" />
      <path
         id="ID0.28453653072938323"
         d="m 200.75,137.65 c 12.149,-0.369 24.34,-0.165 36.25,1.6 6.876,1.385 16.028,1.831 19.5,7.75 4.511,7.675 1.098,17.417 0.5,26.75 -0.261,2.485 -1.173,7.537 -3.5,6.8 -5.283,-2.39 -7.121,-13.27 -12.45,-15 -2.763,-0.893 -0.438,7.684 -3.6,9.3 -4.3,2.174 -12.044,-4.568 -14.45,-1.05 -2.726,3.995 5.332,10.527 3.6,15.5 -0.853,3.228 -7.367,5.247 -9.3,2.6 -3.684,-5.05 0.54,-13.195 -2.6,-18.6 -1.649,-2.845 -6.852,-2.975 -9.3,-1.05 -4.601,3.631 -4.068,11.637 -8.75,15 -2.505,1.797 -6.482,0.54 -8.8,-1.05 -5.86,-4.952 -7.327,-16.19 -14.45,-17.55 -5.374,-1.033 -8.221,12.954 -11.9,11.35 -4.157,-1.832 0.514,-17.898 -3.1,-19.1 -3.393,-1.099 -7.393,16.102 -10.4,15.3 -3.443,-1.023 -2.782,-12.871 -2.5,-18.95 0.23,-4.991 -1.193,-12.926 3.5,-14.6 16.326,-5.787 34.451,-4.473 51.75,-5 z"
         transform="matrix(1,0,0,1.0287206,-123.5,-93.25)"
         inkscape:connector-curvature="0"
         style="fill:#ff99e5;stroke:#ff00bf;stroke-width:2;stroke-linecap:round" />
      <path
         id="ID0.9467714759521186"
         d="m 195.75,178.15 c 0,0 5.15,-1 5.15,-1"
         transform="translate(-145,-118)"
         inkscape:connector-curvature="0"
         style="fill:none;stroke:#9b4976;stroke-width:1.99512506;stroke-linecap:round" />
      <path
         id="ID0.23042773781344295"
         d="m 212.25,190.55 c 0,0 6.2,0 6.2,0"
         transform="translate(-145,-118)"
         inkscape:connector-curvature="0"
         style="fill:none;stroke:#9b4976;stroke-width:1.99512506;stroke-linecap:round" />
      <path
         id="ID0.20588193368166685"
         d="m 253.05,184.9 c 0,0 0,-4.65 0,-4.65"
         transform="translate(-145,-118)"
         inkscape:connector-curvature="0"
         style="fill:none;stroke:#9b4976;stroke-width:1.99512506;stroke-linecap:round" />
      <path
         id="ID0.6261316067539155"
         d="m 232.9,170.95 c 0,0 5.2,3.1 5.2,3.1"
         transform="translate(-145,-118)"
         inkscape:connector-curvature="0"
         style="fill:none;stroke:#9b4976;stroke-width:1.99512506;stroke-linecap:round" />
      <path
         id="ID0.2090843333862722"
         d="m 271.15,194.2 c 0,0 0,-5.7 0,-5.7"
         transform="translate(-145,-118)"
         inkscape:connector-curvature="0"
         style="fill:none;stroke:#9b4976;stroke-width:1.99512506;stroke-linecap:round" />
      <path
         id="ID0.9659954085946083"
         d="m 261.85,176.6 c 0,0 4.15,0 4.15,0"
         transform="translate(-145,-118)"
         inkscape:connector-curvature="0"
         style="fill:none;stroke:#9b4976;stroke-width:1.99512506;stroke-linecap:round" />
      <path
         id="ID0.702816660515964"
         d="m 180.75,184.35 c 0,0 4.65,-4.65 4.65,-4.65"
         transform="translate(-145,-118)"
         inkscape:connector-curvature="0"
         style="fill:none;stroke:#9b4976;stroke-width:1.99512506;stroke-linecap:round" />
      <path
         id="ID0.6778297000564635"
         d="m 186.45,190.55 c 0,0 4.1,-1 4.1,-1"
         transform="translate(-145,-118)"
         inkscape:connector-curvature="0"
         style="fill:none;stroke:#ffffff;stroke-width:1.99512506;stroke-linecap:round" />
      <path
         id="ID0.7210087068378925"
         d="m 210.2,170.95 c 0,0 4.15,3.6 4.15,3.6"
         transform="translate(-145,-118)"
         inkscape:connector-curvature="0"
         style="fill:none;stroke:#ffffff;stroke-width:1.99512506;stroke-linecap:round" />
      <path
         id="ID0.2551163868047297"
         d="m 212.8,206.6 c 0,0 4.1,-3.65 4.1,-3.65"
         transform="translate(-145,-118)"
         inkscape:connector-curvature="0"
         style="fill:none;stroke:#ffffff;stroke-width:1.99512506;stroke-linecap:round" />
      <path
         id="ID0.3400295590981841"
         d="m 234.45,197.3 c 0,0 4.15,3.1 4.15,3.1"
         transform="translate(-145,-118)"
         inkscape:connector-curvature="0"
         style="fill:none;stroke:#ffffff;stroke-width:1.99512506;stroke-linecap:round" />
      <path
         id="ID0.8367559141479433"
         d="m 247.4,200.9 c 0,0 0.5,-3.1 0.5,-3.1 z"
         transform="translate(-145,-118)"
         inkscape:connector-curvature="0"
         style="fill:none;stroke:#ffffff;stroke-width:1.99512506;stroke-linecap:round" />
      <path
         id="ID0.2565021519549191"
         d="m 248.4,172.5 c 0,0 4.65,0 4.65,0"
         transform="translate(-145,-118)"
         inkscape:connector-curvature="0"
         style="fill:none;stroke:#ffffff;stroke-width:1.99512506;stroke-linecap:round" />
      <path
         id="ID0.4049390903674066"
         d="m 261.35,188 c 0,0 4.1,-1.05 4.1,-1.05"
         transform="translate(-145,-118)"
         inkscape:connector-curvature="0"
         style="fill:none;stroke:#ffffff;stroke-width:1.99512506;stroke-linecap:round" />
      <path
         id="ID0.9062348022125661"
         d="m 175.05,177.15 c 0,0 5.7,-2.1 5.7,-2.1"
         transform="translate(-145,-118)"
         inkscape:connector-curvature="0"
         style="fill:none;stroke:#ffffff;stroke-width:1.99512506;stroke-linecap:round" />
      <path
         id="ID0.021216348744928837"
         d="m 189,172.5 c 0,0 1.55,3.6 1.55,3.6 z"
         transform="translate(-145,-118)"
         inkscape:connector-curvature="0"
         style="fill:none;stroke:#ffffff;stroke-width:1.99512506;stroke-linecap:round" />
      <path
         id="ID0.7581375841982663"
         d="m 232.9,184.9 c 0,0 0.55,2.55 0.55,2.55 z"
         transform="translate(-145,-118)"
         inkscape:connector-curvature="0"
         style="fill:none;stroke:#ffffff;stroke-width:1.99512506;stroke-linecap:round" />
      <path
         id="ID0.8662396180443466"
         d="m 199.85,191.6 c 0,0 3.1,-6.7 3.1,-6.7"
         transform="translate(-145,-118)"
         inkscape:connector-curvature="0"
         style="fill:none;stroke:#6148a4;stroke-width:1.99512506;stroke-linecap:round" />
      <path
         id="ID0.7959343986585736"
         d="m 221.05,169.9 c 0,0 6.2,0 6.2,0"
         transform="translate(-145,-118)"
         inkscape:connector-curvature="0"
         style="fill:none;stroke:#6148a4;stroke-width:1.99512506;stroke-linecap:round" />
      <path
         id="ID0.47782517969608307"
         d="m 224.15,198.3 c 0,0 6.2,-2.05 6.2,-2.05"
         transform="translate(-145,-118)"
         inkscape:connector-curvature="0"
         style="fill:none;stroke:#6148a4;stroke-width:1.99512506;stroke-linecap:round" />
      <path
         id="ID0.0538422497920692"
         d="m 242.2,188.5 c 0,0 5.7,2.05 5.7,2.05"
         transform="translate(-145,-118)"
         inkscape:connector-curvature="0"
         style="fill:none;stroke:#6148a4;stroke-width:1.99512506;stroke-linecap:round" />
      <path
         id="ID0.7071157796308398"
         d="m 186.95,199.35 c 0,0 5.15,-2.05 5.15,-2.05"
         transform="translate(-145,-118)"
         inkscape:connector-curvature="0"
         style="fill:none;stroke:#6148a4;stroke-width:1.99512506;stroke-linecap:round" />
      <path
         id="ID0.3825798323377967"
         d="m 174.05,182.8 c 0,0 0,4.15 0,4.15"
         transform="translate(-145,-118)"
         inkscape:connector-curvature="0"
         style="fill:none;stroke:#6148a4;stroke-width:1.99512506;stroke-linecap:round" />
      <path
         id="ID0.12323137884959579"
         d="m 198.85,169.4 c 0,0 4.65,-0.5 4.65,-0.5"
         transform="translate(-145,-118)"
         inkscape:connector-curvature="0"
         style="fill:none;stroke:#6148a4;stroke-width:1.99512506;stroke-linecap:round" />
      <path
         id="ID0.6972495093941689"
         d="m 277.35,190.55 c 0,0 0,5.7 0,5.7"
         transform="translate(-145,-118)"
         inkscape:connector-curvature="0"
         style="fill:none;stroke:#6148a4;stroke-width:1.99512506;stroke-linecap:round" />
      <path
         id="ID0.2711392594501376"
         d="m 242.75,180.75 c 0,0 4.65,0 4.65,0"
         transform="translate(-145,-118)"
         inkscape:connector-curvature="0"
         style="fill:none;stroke:#6148a4;stroke-width:1.99512506;stroke-linecap:round" />
      <path
         id="ID0.8978235688991845"
         d="m 241.7,168.9 c 0,0 3.1,0 3.1,0 z"
         transform="translate(-145,-118)"
         inkscape:connector-curvature="0"
         style="fill:none;stroke:#6148a4;stroke-width:1.99512506;stroke-linecap:round" />
    </g>
    <path
       id="White"
       d="m 106.321,26.47 c 0.246,0.868 0.49,2.026 0.49,3.226 0,1.354 -0.154,2.649 -0.292,3.545 6.364,-0.064 12.547,-0.165 18.456,-0.315 0.236,-0.845 0.557,-1.707 0.569,-2.542 0.017,-1.309 -0.062,-2.885 -0.675,-4.13 -5.308,0.118 -11.744,0.183 -18.548,0.216 z"
       transform="matrix(-0.00843997,-2.0739322,0.5987342,-0.00134084,188.5,398.4)"
       inkscape:connector-curvature="0"
       style="fill:#ffffff" />
    <path
       id="Blue"
       d="M 106.321,26.47 C 92.817,26.537 77.853,26.482 67.322,26.485 45.977,26.493 24.177,26.079 2.884,26.352 c -0.021,0.043 -0.044,0.08 -0.061,0.125 -0.305,0.932 -0.462,1.896 -0.437,2.868 0.035,1.331 0.334,2.433 0.78,3.554 31.244,-0.021 69.854,0.677 103.352,0.342 0.138,-0.896 0.292,-2.191 0.292,-3.545 0.001,-1.2 -0.243,-2.358 -0.489,-3.226 z"
       transform="matrix(-2.4988988e-4,-0.06140476,0.74266696,-0.00166317,183.15,162.3)"
       inkscape:connector-curvature="0"
       style="fill:#42b5e8" />
    <path
       id="path200"
       d="M 106.321,26.47 C 92.817,26.537 77.853,26.482 67.322,26.485 45.977,26.493 24.177,26.079 2.884,26.352 c -0.021,0.043 -0.044,0.08 -0.061,0.125 -0.305,0.932 -0.462,1.896 -0.437,2.868 0.035,1.331 0.334,2.433 0.78,3.554 31.244,-0.021 69.854,0.677 103.352,0.342 0.138,-0.896 0.292,-2.191 0.292,-3.545 0.001,-1.2 -0.243,-2.358 -0.489,-3.226 z"
       transform="matrix(-2.4988988e-4,-0.06140476,0.74266696,-0.00166317,183.4,150.55)"
       inkscape:connector-curvature="0"
       style="fill:#42b5e8" />
    <path
       id="path202"
       d="M 106.321,26.47 C 92.817,26.537 77.853,26.482 67.322,26.485 45.977,26.493 24.177,26.079 2.884,26.352 c -0.021,0.043 -0.044,0.08 -0.061,0.125 -0.305,0.932 -0.462,1.896 -0.437,2.868 0.035,1.331 0.334,2.433 0.78,3.554 31.244,-0.021 69.854,0.677 103.352,0.342 0.138,-0.896 0.292,-2.191 0.292,-3.545 0.001,-1.2 -0.243,-2.358 -0.489,-3.226 z"
       transform="matrix(-2.4988988e-4,-0.06140476,0.74266696,-0.00166317,183.05,175.05)"
       inkscape:connector-curvature="0"
       style="fill:#42b5e8" />
    <path
       id="Outline"
       d="m 125.922,23.789 c -0.336,-0.373 -0.74,-0.428 -1.09,-0.3 -37.535,0.969 -85.287,0.266 -122.646,1.005 -0.042,0.001 -0.072,0.014 -0.109,0.021 -0.023,0 -0.056,-0.002 -0.068,-0.002 -1.909,0.186 -1.989,3.585 -2.008,4.833 -0.024,1.646 0.257,4.875 2.347,5.522 0.019,0.006 0.051,0.003 0.077,0.004 0.062,0.028 0.123,0.062 0.183,0.065 21.786,0.479 43.438,0.984 65.132,0.979 15.845,-0.006 41.72,0.123 57.56,-0.23 0.881,-0.021 1.365,-0.582 1.464,-1.195 0.823,-1.084 1.02,-3.149 1.071,-4.104 0.119,-2.26 -0.362,-4.879 -1.913,-6.598 z m -0.947,9.136 c -5.909,0.15 -12.092,0.251 -18.456,0.315 C 73.022,33.575 34.412,32.878 3.167,32.898 2.721,31.777 2.422,30.675 2.387,29.344 2.362,28.371 2.519,27.407 2.824,26.476 c 0.017,-0.045 0.04,-0.082 0.061,-0.125 21.293,-0.273 43.093,0.141 64.438,0.133 10.531,-0.002 25.495,0.053 38.999,-0.015 6.805,-0.033 13.24,-0.098 18.549,-0.217 0.612,1.245 0.691,2.821 0.675,4.13 -0.014,0.836 -0.335,1.698 -0.571,2.543 z"
       transform="matrix(0.00126823,-0.31163806,-0.5987342,-0.00134084,222.8,177.85)"
       inkscape:connector-curvature="0"
       style="fill:#231f20" />
    <path
       id="ID0.18814716208726168"
       d="m 66.6,139.85 c 0.014,-0.3 -0.212,-0.809 0.1,0 1.265,3.256 2.707,6.629 3.5,10.1 0.212,0.918 -0.149,1.983 -0.6,2.9 -0.449,0.797 -0.998,2.026 -2,2.05 -1.052,0.024 -1.861,-1.201 -2.25,-2.15 -0.635,-1.185 -0.852,-2.612 -0.65,-3.9 0.262,-1.673 1.463,-3.236 1.8,-4.75 0.31,-1.387 0.051,-3.059 0.1,-4.25 z"
       transform="matrix(1.4385768,0,0,1.0671624,108.5,-27.25)"
       inkscape:connector-curvature="0"
       style="fill:#ff9400;stroke:#ff9400;stroke-width:2;stroke-linecap:round" />
    <path
       id="ID0.6274793283082545"
       d="m 68.35,151.6 c 0.147,-0.22 0.159,-0.339 0.25,-0.2 0.392,1.004 0.804,2.032 0.9,2.925 0.064,0.618 -0.234,1.219 -0.352,1.82 -0.134,0.724 0.084,2.395 -0.298,2.455 -0.428,-0.06 -1.076,-1.68 -1.398,-2.455 -0.237,-0.566 -0.452,-1.205 -0.352,-1.82 0.154,-0.885 0.727,-1.893 1.25,-2.725 z"
       transform="matrix(1,0,0,0.74181819,136.75,20.75)"
       inkscape:connector-curvature="0"
       style="fill:#ffff99;stroke:none;stroke-linecap:round" />
    <path
       id="path207"
       d="m 106.321,26.47 c 0.246,0.868 0.49,2.026 0.49,3.226 0,1.354 -0.154,2.649 -0.292,3.545 6.364,-0.064 12.547,-0.165 18.456,-0.315 0.236,-0.845 0.557,-1.707 0.569,-2.542 0.017,-1.309 -0.062,-2.885 -0.675,-4.13 -5.308,0.118 -11.744,0.183 -18.548,0.216 z"
       transform="matrix(0.00843997,-2.0739322,-0.5987342,-0.00134084,238.65,396.3)"
       inkscape:connector-curvature="0"
       style="fill:#ffffff" />
    <path
       id="path209"
       d="M 106.321,26.47 C 92.817,26.537 77.853,26.482 67.322,26.485 45.977,26.493 24.177,26.079 2.884,26.352 c -0.021,0.043 -0.044,0.08 -0.061,0.125 -0.305,0.932 -0.462,1.896 -0.437,2.868 0.035,1.331 0.334,2.433 0.78,3.554 31.244,-0.021 69.854,0.677 103.352,0.342 0.138,-0.896 0.292,-2.191 0.292,-3.545 0.001,-1.2 -0.243,-2.358 -0.489,-3.226 z"
       transform="matrix(2.4988988e-4,-0.06140476,-0.74266696,-0.00166317,244.05,160.15)"
       inkscape:connector-curvature="0"
       style="fill:#42b5e8" />
    <path
       id="path211"
       d="M 106.321,26.47 C 92.817,26.537 77.853,26.482 67.322,26.485 45.977,26.493 24.177,26.079 2.884,26.352 c -0.021,0.043 -0.044,0.08 -0.061,0.125 -0.305,0.932 -0.462,1.896 -0.437,2.868 0.035,1.331 0.334,2.433 0.78,3.554 31.244,-0.021 69.854,0.677 103.352,0.342 0.138,-0.896 0.292,-2.191 0.292,-3.545 0.001,-1.2 -0.243,-2.358 -0.489,-3.226 z"
       transform="matrix(2.4988988e-4,-0.06140476,-0.74266696,-0.00166317,243.8,148.5)"
       inkscape:connector-curvature="0"
       style="fill:#42b5e8" />
    <path
       id="path213"
       d="M 106.321,26.47 C 92.817,26.537 77.853,26.482 67.322,26.485 45.977,26.493 24.177,26.079 2.884,26.352 c -0.021,0.043 -0.044,0.08 -0.061,0.125 -0.305,0.932 -0.462,1.896 -0.437,2.868 0.035,1.331 0.334,2.433 0.78,3.554 31.244,-0.021 69.854,0.677 103.352,0.342 0.138,-0.896 0.292,-2.191 0.292,-3.545 0.001,-1.2 -0.243,-2.358 -0.489,-3.226 z"
       transform="matrix(2.4988988e-4,-0.06140476,-0.74266696,-0.00166317,244.1,172.9)"
       inkscape:connector-curvature="0"
       style="fill:#42b5e8" />
    <path
       id="path215"
       d="m 125.922,23.789 c -0.336,-0.373 -0.74,-0.428 -1.09,-0.3 -37.535,0.969 -85.287,0.266 -122.646,1.005 -0.042,0.001 -0.072,0.014 -0.109,0.021 -0.023,0 -0.056,-0.002 -0.068,-0.002 -1.909,0.186 -1.989,3.585 -2.008,4.833 -0.024,1.646 0.257,4.875 2.347,5.522 0.019,0.006 0.051,0.003 0.077,0.004 0.062,0.028 0.123,0.062 0.183,0.065 21.786,0.479 43.438,0.984 65.132,0.979 15.845,-0.006 41.72,0.123 57.56,-0.23 0.881,-0.021 1.365,-0.582 1.464,-1.195 0.823,-1.084 1.02,-3.149 1.071,-4.104 0.119,-2.26 -0.362,-4.879 -1.913,-6.598 z m -0.947,9.136 c -5.909,0.15 -12.092,0.251 -18.456,0.315 C 73.022,33.575 34.412,32.878 3.167,32.898 2.721,31.777 2.422,30.675 2.387,29.344 2.362,28.371 2.519,27.407 2.824,26.476 c 0.017,-0.045 0.04,-0.082 0.061,-0.125 21.293,-0.273 43.093,0.141 64.438,0.133 10.531,-0.002 25.495,0.053 38.999,-0.015 6.805,-0.033 13.24,-0.098 18.549,-0.217 0.612,1.245 0.691,2.821 0.675,4.13 -0.014,0.836 -0.335,1.698 -0.571,2.543 z"
       transform="matrix(0.00126823,-0.31163806,-0.5987342,-0.00134084,239.6,175.8)"
       inkscape:connector-curvature="0"
       style="fill:#231f20" />
    <path
       id="path217"
       d="m 66.6,139.85 c 0.014,-0.3 -0.212,-0.809 0.1,0 1.265,3.256 2.707,6.629 3.5,10.1 0.212,0.918 -0.149,1.983 -0.6,2.9 -0.449,0.797 -0.998,2.026 -2,2.05 -1.052,0.024 -1.861,-1.201 -2.25,-2.15 -0.635,-1.185 -0.852,-2.612 -0.65,-3.9 0.262,-1.673 1.463,-3.236 1.8,-4.75 0.31,-1.387 0.051,-3.059 0.1,-4.25 z"
       transform="matrix(-1.4782609,0,0,1.0966008,321.35,-33.55)"
       inkscape:connector-curvature="0"
       style="fill:#ff9400;stroke:none;stroke-linecap:round" />
    <path
       id="path219"
       d="m 68.35,151.6 c 0.147,-0.22 0.159,-0.339 0.25,-0.2 0.392,1.004 0.804,2.032 0.9,2.925 0.064,0.618 -0.234,1.219 -0.352,1.82 -0.134,0.724 0.084,2.395 -0.298,2.455 -0.428,-0.06 -1.076,-1.68 -1.398,-2.455 -0.237,-0.566 -0.452,-1.205 -0.352,-1.82 0.154,-0.885 0.727,-1.893 1.25,-2.725 z"
       transform="matrix(-1,0,0,0.74181819,290.35,18.75)"
       inkscape:connector-curvature="0"
       style="fill:#ffff99;stroke:none;stroke-linecap:round" />
    <path
       id="path221"
       d="m 106.321,26.47 c 0.246,0.868 0.49,2.026 0.49,3.226 0,1.354 -0.154,2.649 -0.292,3.545 6.364,-0.064 12.547,-0.165 18.456,-0.315 0.236,-0.845 0.557,-1.707 0.569,-2.542 0.017,-1.309 -0.062,-2.885 -0.675,-4.13 -5.308,0.118 -11.744,0.183 -18.548,0.216 z"
       transform="matrix(-0.00843997,-2.0739322,0.5987342,-0.00134084,223.25,395.5)"
       inkscape:connector-curvature="0"
       style="fill:#ffffff" />
    <path
       id="path223"
       d="M 106.321,26.47 C 92.817,26.537 77.853,26.482 67.322,26.485 45.977,26.493 24.177,26.079 2.884,26.352 c -0.021,0.043 -0.044,0.08 -0.061,0.125 -0.305,0.932 -0.462,1.896 -0.437,2.868 0.035,1.331 0.334,2.433 0.78,3.554 31.244,-0.021 69.854,0.677 103.352,0.342 0.138,-0.896 0.292,-2.191 0.292,-3.545 0.001,-1.2 -0.243,-2.358 -0.489,-3.226 z"
       transform="matrix(-2.4988988e-4,-0.06140476,0.74266696,-0.00166317,217.9,159.4)"
       inkscape:connector-curvature="0"
       style="fill:#42b5e8" />
    <path
       id="path225"
       d="M 106.321,26.47 C 92.817,26.537 77.853,26.482 67.322,26.485 45.977,26.493 24.177,26.079 2.884,26.352 c -0.021,0.043 -0.044,0.08 -0.061,0.125 -0.305,0.932 -0.462,1.896 -0.437,2.868 0.035,1.331 0.334,2.433 0.78,3.554 31.244,-0.021 69.854,0.677 103.352,0.342 0.138,-0.896 0.292,-2.191 0.292,-3.545 0.001,-1.2 -0.243,-2.358 -0.489,-3.226 z"
       transform="matrix(-2.4988988e-4,-0.06140476,0.74266696,-0.00166317,218.15,147.65)"
       inkscape:connector-curvature="0"
       style="fill:#42b5e8" />
    <path
       id="path227"
       d="M 106.321,26.47 C 92.817,26.537 77.853,26.482 67.322,26.485 45.977,26.493 24.177,26.079 2.884,26.352 c -0.021,0.043 -0.044,0.08 -0.061,0.125 -0.305,0.932 -0.462,1.896 -0.437,2.868 0.035,1.331 0.334,2.433 0.78,3.554 31.244,-0.021 69.854,0.677 103.352,0.342 0.138,-0.896 0.292,-2.191 0.292,-3.545 0.001,-1.2 -0.243,-2.358 -0.489,-3.226 z"
       transform="matrix(-2.4988988e-4,-0.06140476,0.74266696,-0.00166317,217.8,172.15)"
       inkscape:connector-curvature="0"
       style="fill:#42b5e8" />
    <path
       id="path229"
       d="m 125.922,23.789 c -0.336,-0.373 -0.74,-0.428 -1.09,-0.3 -37.535,0.969 -85.287,0.266 -122.646,1.005 -0.042,0.001 -0.072,0.014 -0.109,0.021 -0.023,0 -0.056,-0.002 -0.068,-0.002 -1.909,0.186 -1.989,3.585 -2.008,4.833 -0.024,1.646 0.257,4.875 2.347,5.522 0.019,0.006 0.051,0.003 0.077,0.004 0.062,0.028 0.123,0.062 0.183,0.065 21.786,0.479 43.438,0.984 65.132,0.979 15.845,-0.006 41.72,0.123 57.56,-0.23 0.881,-0.021 1.365,-0.582 1.464,-1.195 0.823,-1.084 1.02,-3.149 1.071,-4.104 0.119,-2.26 -0.362,-4.879 -1.913,-6.598 z m -0.947,9.136 c -5.909,0.15 -12.092,0.251 -18.456,0.315 C 73.022,33.575 34.412,32.878 3.167,32.898 2.721,31.777 2.422,30.675 2.387,29.344 2.362,28.371 2.519,27.407 2.824,26.476 c 0.017,-0.045 0.04,-0.082 0.061,-0.125 21.293,-0.273 43.093,0.141 64.438,0.133 10.531,-0.002 25.495,0.053 38.999,-0.015 6.805,-0.033 13.24,-0.098 18.549,-0.217 0.612,1.245 0.691,2.821 0.675,4.13 -0.014,0.836 -0.335,1.698 -0.571,2.543 z"
       transform="matrix(0.00126823,-0.31163806,-0.5987342,-0.00134084,257.6,175)"
       inkscape:connector-curvature="0"
       style="fill:#231f20" />
    <path
       id="path231"
       d="m 66.6,139.85 c 0.014,-0.3 -0.212,-0.809 0.1,0 1.265,3.256 2.707,6.629 3.5,10.1 0.212,0.918 -0.149,1.983 -0.6,2.9 -0.449,0.797 -0.998,2.026 -2,2.05 -1.052,0.024 -1.861,-1.201 -2.25,-2.15 -0.635,-1.185 -0.852,-2.612 -0.65,-3.9 0.262,-1.673 1.463,-3.236 1.8,-4.75 0.31,-1.387 0.051,-3.059 0.1,-4.25 z"
       transform="matrix(1.5187613,0,0,1.1266447,137.85,-38.65)"
       inkscape:connector-curvature="0"
       style="fill:#ff9400;stroke:none;stroke-linecap:round" />
    <path
       id="path233"
       d="m 68.35,151.6 c 0.147,-0.22 0.159,-0.339 0.25,-0.2 0.392,1.004 0.804,2.032 0.9,2.925 0.064,0.618 -0.234,1.219 -0.352,1.82 -0.134,0.724 0.084,2.395 -0.298,2.455 -0.428,-0.06 -1.076,-1.68 -1.398,-2.455 -0.237,-0.566 -0.452,-1.205 -0.352,-1.82 0.154,-0.885 0.727,-1.893 1.25,-2.725 z"
       transform="matrix(1,0,0,0.74181819,171.5,18)"
       inkscape:connector-curvature="0"
       style="fill:#ffff99;stroke:none;stroke-linecap:round" />
    <path
       id="path235"
       d="m 106.321,26.47 c 0.246,0.868 0.49,2.026 0.49,3.226 0,1.354 -0.154,2.649 -0.292,3.545 6.364,-0.064 12.547,-0.165 18.456,-0.315 0.236,-0.845 0.557,-1.707 0.569,-2.542 0.017,-1.309 -0.062,-2.885 -0.675,-4.13 -5.308,0.118 -11.744,0.183 -18.548,0.216 z"
       transform="matrix(-0.00843997,-2.0739322,0.5987342,-0.00134084,241.55,396.8)"
       inkscape:connector-curvature="0"
       style="fill:#ffffff" />
    <path
       id="path237"
       d="M 106.321,26.47 C 92.817,26.537 77.853,26.482 67.322,26.485 45.977,26.493 24.177,26.079 2.884,26.352 c -0.021,0.043 -0.044,0.08 -0.061,0.125 -0.305,0.932 -0.462,1.896 -0.437,2.868 0.035,1.331 0.334,2.433 0.78,3.554 31.244,-0.021 69.854,0.677 103.352,0.342 0.138,-0.896 0.292,-2.191 0.292,-3.545 0.001,-1.2 -0.243,-2.358 -0.489,-3.226 z"
       transform="matrix(-2.4988988e-4,-0.06140476,0.74266696,-0.00166317,236.15,160.65)"
       inkscape:connector-curvature="0"
       style="fill:#42b5e8" />
    <path
       id="path239"
       d="M 106.321,26.47 C 92.817,26.537 77.853,26.482 67.322,26.485 45.977,26.493 24.177,26.079 2.884,26.352 c -0.021,0.043 -0.044,0.08 -0.061,0.125 -0.305,0.932 -0.462,1.896 -0.437,2.868 0.035,1.331 0.334,2.433 0.78,3.554 31.244,-0.021 69.854,0.677 103.352,0.342 0.138,-0.896 0.292,-2.191 0.292,-3.545 0.001,-1.2 -0.243,-2.358 -0.489,-3.226 z"
       transform="matrix(-2.4988988e-4,-0.06140476,0.74266696,-0.00166317,236.4,149)"
       inkscape:connector-curvature="0"
       style="fill:#42b5e8" />
    <path
       id="path241"
       d="M 106.321,26.47 C 92.817,26.537 77.853,26.482 67.322,26.485 45.977,26.493 24.177,26.079 2.884,26.352 c -0.021,0.043 -0.044,0.08 -0.061,0.125 -0.305,0.932 -0.462,1.896 -0.437,2.868 0.035,1.331 0.334,2.433 0.78,3.554 31.244,-0.021 69.854,0.677 103.352,0.342 0.138,-0.896 0.292,-2.191 0.292,-3.545 0.001,-1.2 -0.243,-2.358 -0.489,-3.226 z"
       transform="matrix(-2.4988988e-4,-0.06140476,0.74266696,-0.00166317,236.1,173.4)"
       inkscape:connector-curvature="0"
       style="fill:#42b5e8" />
    <path
       id="path243"
       d="m 125.922,23.789 c -0.336,-0.373 -0.74,-0.428 -1.09,-0.3 -37.535,0.969 -85.287,0.266 -122.646,1.005 -0.042,0.001 -0.072,0.014 -0.109,0.021 -0.023,0 -0.056,-0.002 -0.068,-0.002 -1.909,0.186 -1.989,3.585 -2.008,4.833 -0.024,1.646 0.257,4.875 2.347,5.522 0.019,0.006 0.051,0.003 0.077,0.004 0.062,0.028 0.123,0.062 0.183,0.065 21.786,0.479 43.438,0.984 65.132,0.979 15.845,-0.006 41.72,0.123 57.56,-0.23 0.881,-0.021 1.365,-0.582 1.464,-1.195 0.823,-1.084 1.02,-3.149 1.071,-4.104 0.119,-2.26 -0.362,-4.879 -1.913,-6.598 z m -0.947,9.136 c -5.909,0.15 -12.092,0.251 -18.456,0.315 C 73.022,33.575 34.412,32.878 3.167,32.898 2.721,31.777 2.422,30.675 2.387,29.344 2.362,28.371 2.519,27.407 2.824,26.476 c 0.017,-0.045 0.04,-0.082 0.061,-0.125 21.293,-0.273 43.093,0.141 64.438,0.133 10.531,-0.002 25.495,0.053 38.999,-0.015 6.805,-0.033 13.24,-0.098 18.549,-0.217 0.612,1.245 0.691,2.821 0.675,4.13 -0.014,0.836 -0.335,1.698 -0.571,2.543 z"
       transform="matrix(0.00126823,-0.31163806,-0.5987342,-0.00134084,275.85,176.3)"
       inkscape:connector-curvature="0"
       style="fill:#231f20" />
    <path
       id="path245"
       d="m 66.6,139.85 c 0.014,-0.3 -0.212,-0.809 0.1,0 1.265,3.256 2.707,6.629 3.5,10.1 0.212,0.918 -0.149,1.983 -0.6,2.9 -0.449,0.797 -0.998,2.026 -2,2.05 -1.052,0.024 -1.861,-1.201 -2.25,-2.15 -0.635,-1.185 -0.852,-2.612 -0.65,-3.9 0.262,-1.673 1.463,-3.236 1.8,-4.75 0.31,-1.387 0.051,-3.059 0.1,-4.25 z"
       transform="matrix(1.4350867,0,0,1.0645734,161.5,-27.65)"
       inkscape:connector-curvature="0"
       style="fill:#ff9400;stroke:none;stroke-linecap:round" />
    <path
       id="path247"
       d="m 68.35,151.6 c 0.147,-0.22 0.159,-0.339 0.25,-0.2 0.392,1.004 0.804,2.032 0.9,2.925 0.064,0.618 -0.234,1.219 -0.352,1.82 -0.134,0.724 0.084,2.395 -0.298,2.455 -0.428,-0.06 -1.076,-1.68 -1.398,-2.455 -0.237,-0.566 -0.452,-1.205 -0.352,-1.82 0.154,-0.885 0.727,-1.893 1.25,-2.725 z"
       transform="matrix(1,0,0,0.74181819,189.8,19.25)"
       inkscape:connector-curvature="0"
       style="fill:#ffff99;stroke:none;stroke-linecap:round" />
    <path
       id="path249"
       d="m 106.321,26.47 c 0.246,0.868 0.49,2.026 0.49,3.226 0,1.354 -0.154,2.649 -0.292,3.545 6.364,-0.064 12.547,-0.165 18.456,-0.315 0.236,-0.845 0.557,-1.707 0.569,-2.542 0.017,-1.309 -0.062,-2.885 -0.675,-4.13 -5.308,0.118 -11.744,0.183 -18.548,0.216 z"
       transform="matrix(0.00843997,-2.0739322,-0.5987342,-0.00134084,291.75,398.1)"
       inkscape:connector-curvature="0"
       style="fill:#ffffff" />
    <path
       id="path251"
       d="M 106.321,26.47 C 92.817,26.537 77.853,26.482 67.322,26.485 45.977,26.493 24.177,26.079 2.884,26.352 c -0.021,0.043 -0.044,0.08 -0.061,0.125 -0.305,0.932 -0.462,1.896 -0.437,2.868 0.035,1.331 0.334,2.433 0.78,3.554 31.244,-0.021 69.854,0.677 103.352,0.342 0.138,-0.896 0.292,-2.191 0.292,-3.545 0.001,-1.2 -0.243,-2.358 -0.489,-3.226 z"
       transform="matrix(2.4988988e-4,-0.06140476,-0.74266696,-0.00166317,297.1,162)"
       inkscape:connector-curvature="0"
       style="fill:#42b5e8" />
    <path
       id="path253"
       d="M 106.321,26.47 C 92.817,26.537 77.853,26.482 67.322,26.485 45.977,26.493 24.177,26.079 2.884,26.352 c -0.021,0.043 -0.044,0.08 -0.061,0.125 -0.305,0.932 -0.462,1.896 -0.437,2.868 0.035,1.331 0.334,2.433 0.78,3.554 31.244,-0.021 69.854,0.677 103.352,0.342 0.138,-0.896 0.292,-2.191 0.292,-3.545 0.001,-1.2 -0.243,-2.358 -0.489,-3.226 z"
       transform="matrix(2.4988988e-4,-0.06140476,-0.74266696,-0.00166317,296.85,150.3)"
       inkscape:connector-curvature="0"
       style="fill:#42b5e8" />
    <path
       id="path255"
       d="M 106.321,26.47 C 92.817,26.537 77.853,26.482 67.322,26.485 45.977,26.493 24.177,26.079 2.884,26.352 c -0.021,0.043 -0.044,0.08 -0.061,0.125 -0.305,0.932 -0.462,1.896 -0.437,2.868 0.035,1.331 0.334,2.433 0.78,3.554 31.244,-0.021 69.854,0.677 103.352,0.342 0.138,-0.896 0.292,-2.191 0.292,-3.545 0.001,-1.2 -0.243,-2.358 -0.489,-3.226 z"
       transform="matrix(2.4988988e-4,-0.06140476,-0.74266696,-0.00166317,297.25,174.75)"
       inkscape:connector-curvature="0"
       style="fill:#42b5e8" />
    <path
       id="path257"
       d="m 125.922,23.789 c -0.336,-0.373 -0.74,-0.428 -1.09,-0.3 -37.535,0.969 -85.287,0.266 -122.646,1.005 -0.042,0.001 -0.072,0.014 -0.109,0.021 -0.023,0 -0.056,-0.002 -0.068,-0.002 -1.909,0.186 -1.989,3.585 -2.008,4.833 -0.024,1.646 0.257,4.875 2.347,5.522 0.019,0.006 0.051,0.003 0.077,0.004 0.062,0.028 0.123,0.062 0.183,0.065 21.786,0.479 43.438,0.984 65.132,0.979 15.845,-0.006 41.72,0.123 57.56,-0.23 0.881,-0.021 1.365,-0.582 1.464,-1.195 0.823,-1.084 1.02,-3.149 1.071,-4.104 0.119,-2.26 -0.362,-4.879 -1.913,-6.598 z m -0.947,9.136 c -5.909,0.15 -12.092,0.251 -18.456,0.315 C 73.022,33.575 34.412,32.878 3.167,32.898 2.721,31.777 2.422,30.675 2.387,29.344 2.362,28.371 2.519,27.407 2.824,26.476 c 0.017,-0.045 0.04,-0.082 0.061,-0.125 21.293,-0.273 43.093,0.141 64.438,0.133 10.531,-0.002 25.495,0.053 38.999,-0.015 6.805,-0.033 13.24,-0.098 18.549,-0.217 0.612,1.245 0.691,2.821 0.675,4.13 -0.014,0.836 -0.335,1.698 -0.571,2.543 z"
       transform="matrix(0.00126823,-0.31163806,-0.5987342,-0.00134084,292.75,177.6)"
       inkscape:connector-curvature="0"
       style="fill:#231f20" />
    <path
       id="path259"
       d="m 66.6,139.85 c 0.014,-0.3 -0.212,-0.809 0.1,0 1.265,3.256 2.707,6.629 3.5,10.1 0.212,0.918 -0.149,1.983 -0.6,2.9 -0.449,0.797 -0.998,2.026 -2,2.05 -1.052,0.024 -1.861,-1.201 -2.25,-2.15 -0.635,-1.185 -0.852,-2.612 -0.65,-3.9 0.262,-1.673 1.463,-3.236 1.8,-4.75 0.31,-1.387 0.051,-3.059 0.1,-4.25 z"
       transform="matrix(1.4347825,0,0,1.0643479,178.9,-26.25)"
       inkscape:connector-curvature="0"
       style="fill:#ff9400;stroke:none;stroke-linecap:round" />
    <path
       id="path261"
       d="m 68.35,151.6 c 0.147,-0.22 0.159,-0.339 0.25,-0.2 0.392,1.004 0.804,2.032 0.9,2.925 0.064,0.618 -0.234,1.219 -0.352,1.82 -0.134,0.724 0.084,2.395 -0.298,2.455 -0.428,-0.06 -1.076,-1.68 -1.398,-2.455 -0.237,-0.566 -0.452,-1.205 -0.352,-1.82 0.154,-0.885 0.727,-1.893 1.25,-2.725 z"
       transform="matrix(1,0,0,0.74181819,206.9,20.5)"
       inkscape:connector-curvature="0"
       style="fill:#ffff99;stroke:none;stroke-linecap:round" />
  </g>
</svg>
