<svg version="1.1" width="25" height="141" xmlns="http://www.w3.org/2000/svg" xmlns:xlink="http://www.w3.org/1999/xlink">
  <!-- Exported by Scratch - http://scratch.mit.edu/ -->
  <g id="ID0.2505933870561421" transform="matrix(0.9024999737739563, 0, 0, 0.9024999737739563, 0.15, -0.15)">
    <path id="ID0.5673541482537985" fill="#FFFFFF" stroke="none" stroke-linecap="round" d="M 179.250 78.500 C 193.330 76.731 207.645 78.819 221.750 79 C 236.898 79.195 252.379 77.059 267.250 80 C 270.955 80.745 268.223 77.674 268.250 88.500 C 269.004 131.784 268.987 175.209 269.250 218.500 C 269.474 255.376 269.730 292.536 269.750 329.500 C 269.757 338.740 273.400 333.823 269.250 334 C 252.668 335.671 235.934 334.147 219.250 334 C 204.276 333.862 189.407 335.521 174.250 333.500 C 170.461 332.995 173.747 336.491 173.750 327.500 C 173.762 291.534 174.143 255.464 174.250 219.500 C 174.400 174.844 172.633 130.088 174.250 85.500 C 174.671 74.346 175.836 79.125 179.250 78.500 Z " transform="matrix(0.23594936728477478, 0, 0, 0.4017241299152374, -39.9, 5.4)"/>
    <path id="ID0.3195285517722368" fill="#F0EEE0" stroke="none" d="M 220.500 233.500 L 230 233.500 L 230 334 L 220.500 334 L 220.500 233.500 Z " transform="matrix(1, 0, 0, 1, -207.5, -195.5)"/>
    <path id="ID0.09529179334640503" fill="#FFF45C" stroke="none" stroke-linecap="round" d="M 215.250 196 C 218.938 199.474 222.531 203.769 224.750 208.500 C 226.405 212.025 227.379 216.085 227.250 220 C 227.120 223.248 225.676 226.717 223.750 229.500 C 222.377 231.579 220.072 234.931 217.750 234 C 214.323 232.593 213.253 228.717 212.250 225.500 C 211.059 221.658 210.739 217.564 211.250 213.500 C 211.926 208.579 214.657 203.911 215.750 199 C 216.024 197.769 214.244 195.074 215.250 196 Z " transform="matrix(1, 0, 0, 1, -206.5, -195)"/>
    <path id="ID0.6337189464829862" fill="#FF8C33" stroke="none" stroke-linecap="round" d="M 218.250 210.500 C 218.941 210.297 220.962 215.836 221.750 218.500 C 222.477 220.887 223.223 223.372 222.750 225.500 C 222.189 228.214 221.281 231.497 219.250 233 C 218.414 233.603 217.533 231.547 217.250 230.500 C 216.940 228.616 216.691 226.508 216.750 224.500 C 216.933 222.874 217.281 221.467 217.250 220 C 217.777 216.797 217.576 210.707 218.250 210.500 Z " transform="matrix(1, 0, 0, 1, -206, -195)"/>
  </g>
</svg>