<?xml version="1.0" encoding="UTF-8" standalone="no"?>
<svg
   version="1.1"
   width="109.99636"
   height="102.3979"
   id="svg106"
   sodipodi:docname="candles2.svg"
   xmlns:inkscape="http://www.inkscape.org/namespaces/inkscape"
   xmlns:sodipodi="http://sodipodi.sourceforge.net/DTD/sodipodi-0.dtd"
   xmlns="http://www.w3.org/2000/svg"
   xmlns:svg="http://www.w3.org/2000/svg">
  <sodipodi:namedview
     id="namedview108"
     pagecolor="#ffffff"
     bordercolor="#000000"
     borderopacity="0.25"
     inkscape:showpageshadow="2"
     inkscape:pageopacity="0.0"
     inkscape:pagecheckerboard="0"
     inkscape:deskcolor="#d1d1d1" />
  <defs
     id="defs47">
    <linearGradient
       id="grad_1"
       y2="443.43014"
       gradientTransform="scale(2.0608097,0.48524616)"
       x1="122.28203"
       y1="369.91535"
       x2="195.79682"
       gradientUnits="userSpaceOnUse">
      <stop
         offset="0"
         stop-color="#CCCC00"
         stop-opacity="1"
         id="stop2" />
      <stop
         offset="1"
         stop-color="#995900"
         stop-opacity="1"
         id="stop4" />
    </linearGradient>
    <linearGradient
       id="grad_2"
       y2="443.43014"
       gradientTransform="scale(2.0608097,0.48524616)"
       x1="122.28203"
       y1="369.91535"
       x2="195.79682"
       gradientUnits="userSpaceOnUse">
      <stop
         offset="0"
         stop-color="#CCCC00"
         stop-opacity="1"
         id="stop7" />
      <stop
         offset="1"
         stop-color="#995900"
         stop-opacity="1"
         id="stop9" />
    </linearGradient>
    <linearGradient
       id="grad_3"
       y2="209.58088"
       gradientTransform="scale(0.62347058,1.6039249)"
       x1="274.94132"
       y1="47.876235"
       x2="436.64596"
       gradientUnits="userSpaceOnUse">
      <stop
         offset="0"
         stop-color="#FF9999"
         stop-opacity="1"
         id="stop12" />
      <stop
         offset="1"
         stop-color="#CC0000"
         stop-opacity="1"
         id="stop14" />
    </linearGradient>
    <linearGradient
       id="grad_4"
       y2="209.58088"
       gradientTransform="scale(0.62347058,1.6039249)"
       x1="274.94132"
       y1="47.876235"
       x2="436.64596"
       gradientUnits="userSpaceOnUse">
      <stop
         offset="0"
         stop-color="#FF9999"
         stop-opacity="1"
         id="stop17" />
      <stop
         offset="1"
         stop-color="#CC0000"
         stop-opacity="1"
         id="stop19" />
    </linearGradient>
    <linearGradient
       id="grad_5"
       y2="209.58088"
       gradientTransform="scale(0.62347058,1.6039249)"
       x1="274.94132"
       y1="47.876235"
       x2="436.64596"
       gradientUnits="userSpaceOnUse">
      <stop
         offset="0"
         stop-color="#00FF55"
         stop-opacity="1"
         id="stop22" />
      <stop
         offset="1"
         stop-color="#006622"
         stop-opacity="1"
         id="stop24" />
    </linearGradient>
    <linearGradient
       id="grad_6"
       y2="209.58088"
       gradientTransform="scale(0.62347058,1.6039249)"
       x1="274.94132"
       y1="47.876235"
       x2="436.64596"
       gradientUnits="userSpaceOnUse">
      <stop
         offset="0"
         stop-color="#FF9999"
         stop-opacity="1"
         id="stop27" />
      <stop
         offset="1"
         stop-color="#CC0000"
         stop-opacity="1"
         id="stop29" />
    </linearGradient>
    <linearGradient
       id="grad_7"
       y2="209.58088"
       gradientTransform="scale(0.62347058,1.6039249)"
       x1="274.94132"
       y1="47.876235"
       x2="436.64596"
       gradientUnits="userSpaceOnUse">
      <stop
         offset="0"
         stop-color="#666666"
         stop-opacity="1"
         id="stop32" />
      <stop
         offset="1"
         stop-color="#000000"
         stop-opacity="1"
         id="stop34" />
    </linearGradient>
    <linearGradient
       id="grad_8"
       y2="209.58088"
       gradientTransform="scale(0.62347058,1.6039249)"
       x1="274.94132"
       y1="47.876235"
       x2="436.64596"
       gradientUnits="userSpaceOnUse">
      <stop
         offset="0"
         stop-color="#00FF55"
         stop-opacity="1"
         id="stop37" />
      <stop
         offset="1"
         stop-color="#006622"
         stop-opacity="1"
         id="stop39" />
    </linearGradient>
    <linearGradient
       id="grad_9"
       y2="209.58088"
       gradientTransform="scale(0.62347058,1.6039249)"
       x1="274.94132"
       y1="47.876235"
       x2="436.64596"
       gradientUnits="userSpaceOnUse">
      <stop
         offset="0"
         stop-color="#00FF55"
         stop-opacity="1"
         id="stop42" />
      <stop
         offset="1"
         stop-color="#006622"
         stop-opacity="1"
         id="stop44" />
    </linearGradient>
  </defs>
  <!-- Exported by Scratch - http://scratch.mit.edu/ -->
  <g
     id="ID0.9906059131026268"
     transform="translate(-0.96424437,-0.75253258)">
    <path
       id="ID0.57411087770015"
       fill="#995900"
       stroke="#995900"
       stroke-width="2"
       d="M 311.5,191 H 329 v 44.5 h -17.5 z"
       transform="matrix(0.59457499,0,0,0.43689689,-134.1,-6.1)" />
    <path
       id="ID0.4764567194506526"
       fill="url(#grad_1)"
       stroke="url(#grad_2)"
       stroke-width="2"
       stroke-linecap="round"
       d="M 253,180.5 H 402.5 V 198 l -33.45,7.5 -39.75,8.65 L 253,198 Z"
       transform="matrix(0.72604859,0,0,0.43689689,-182,-13.25)"
       style="fill:url(#grad_1);stroke:url(#grad_2)" />
    <path
       id="ID0.5194686623290181"
       fill="#995900"
       stroke="#995900"
       stroke-width="2"
       d="M 283.5,233 H 351 v 14 h -67.5 z"
       transform="matrix(0.59457499,0,0,0.43689689,-132,-5.2)" />
  </g>
  <g
     id="ID0.46222010301426053"
     transform="translate(-188.96424,-101.75253)">
    <g
       id="ID0.2631391347385943"
       transform="translate(188,101)">
      <path
         id="ID0.5673541482537985"
         fill="url(#grad_3)"
         stroke="#990000"
         stroke-width="2"
         stroke-linecap="round"
         d="m 179.25,78.5 c 14.08,-1.769 28.395,0.319 42.5,0.5 15.148,0.195 30.629,-1.941 45.5,1 3.705,0.745 0.973,-2.326 1,8.5 0.754,43.284 0.737,86.709 1,130 0.224,36.876 0.48,74.036 0.5,111 0.007,9.24 3.65,4.323 -0.5,4.5 -16.582,1.671 -33.316,0.147 -50,0 -14.974,-0.138 -29.843,1.521 -45,-0.5 -3.789,-0.505 -0.503,2.991 -0.5,-6 0.012,-35.966 0.393,-72.036 0.5,-108 0.15,-44.656 -1.617,-89.412 0,-134 0.421,-11.154 1.586,-6.375 5,-7 z"
         transform="matrix(0.07589144,0,0,0.19459963,-8.75,0.25)"
         style="fill:url(#grad_3)" />
      <path
         id="ID0.09529179334640503"
         fill="#fff45c"
         stroke="none"
         stroke-linecap="round"
         d="m 215.25,196 c 3.688,3.474 7.281,7.769 9.5,12.5 1.655,3.525 2.629,7.585 2.5,11.5 -0.13,3.248 -1.574,6.717 -3.5,9.5 -1.373,2.079 -3.678,5.431 -6,4.5 -3.427,-1.407 -4.497,-5.283 -5.5,-8.5 -1.191,-3.842 -1.511,-7.936 -1,-12 0.676,-4.921 3.407,-9.589 4.5,-14.5 0.274,-1.231 -1.506,-3.926 -0.5,-3 z"
         transform="matrix(0.32164291,0,0,0.48441106,-61.95,-93.95)" />
      <path
         id="ID0.6337189464829862"
         fill="#ff8c33"
         stroke="none"
         stroke-linecap="round"
         d="m 218.25,210.5 c 0.691,-0.203 2.712,5.336 3.5,8 0.727,2.387 1.473,4.872 1,7 -0.561,2.714 -1.469,5.997 -3.5,7.5 -0.836,0.603 -1.717,-1.453 -2,-2.5 -0.31,-1.884 -0.559,-3.992 -0.5,-6 0.183,-1.626 0.531,-3.033 0.5,-4.5 0.527,-3.203 0.326,-9.293 1,-9.5 z"
         transform="matrix(0.32164291,0,0,0.48441106,-61.9,-93.95)" />
    </g>
    <g
       id="g63"
       transform="translate(188,101)">
      <path
         id="path57"
         fill="url(#grad_4)"
         stroke="#990000"
         stroke-width="2"
         stroke-linecap="round"
         d="m 179.25,78.5 c 14.08,-1.769 28.395,0.319 42.5,0.5 15.148,0.195 30.629,-1.941 45.5,1 3.705,0.745 0.973,-2.326 1,8.5 0.754,43.284 0.737,86.709 1,130 0.224,36.876 0.48,74.036 0.5,111 0.007,9.24 3.65,4.323 -0.5,4.5 -16.582,1.671 -33.316,0.147 -50,0 -14.974,-0.138 -29.843,1.521 -45,-0.5 -3.789,-0.505 -0.503,2.991 -0.5,-6 0.012,-35.966 0.393,-72.036 0.5,-108 0.15,-44.656 -1.617,-89.412 0,-134 0.421,-11.154 1.586,-6.375 5,-7 z"
         transform="matrix(0.07589144,0,0,0.19459963,7.2,0.7)"
         style="fill:url(#grad_4)" />
      <path
         id="path59"
         fill="#fff45c"
         stroke="none"
         stroke-linecap="round"
         d="m 215.25,196 c 3.688,3.474 7.281,7.769 9.5,12.5 1.655,3.525 2.629,7.585 2.5,11.5 -0.13,3.248 -1.574,6.717 -3.5,9.5 -1.373,2.079 -3.678,5.431 -6,4.5 -3.427,-1.407 -4.497,-5.283 -5.5,-8.5 -1.191,-3.842 -1.511,-7.936 -1,-12 0.676,-4.921 3.407,-9.589 4.5,-14.5 0.274,-1.231 -1.506,-3.926 -0.5,-3 z"
         transform="matrix(0.32164291,0,0,0.48441106,-45.95,-93.4)" />
      <path
         id="path61"
         fill="#ff8c33"
         stroke="none"
         stroke-linecap="round"
         d="m 218.25,210.5 c 0.691,-0.203 2.712,5.336 3.5,8 0.727,2.387 1.473,4.872 1,7 -0.561,2.714 -1.469,5.997 -3.5,7.5 -0.836,0.603 -1.717,-1.453 -2,-2.5 -0.31,-1.884 -0.559,-3.992 -0.5,-6 0.183,-1.626 0.531,-3.033 0.5,-4.5 0.527,-3.203 0.326,-9.293 1,-9.5 z"
         transform="matrix(0.32164291,0,0,0.48441106,-45.9,-93.4)" />
    </g>
    <g
       id="g71"
       transform="translate(188,101)">
      <path
         id="path65"
         fill="url(#grad_5)"
         stroke="#006622"
         stroke-width="2"
         stroke-linecap="round"
         d="m 179.25,78.5 c 14.08,-1.769 28.395,0.319 42.5,0.5 15.148,0.195 30.629,-1.941 45.5,1 3.705,0.745 0.973,-2.326 1,8.5 0.754,43.284 0.737,86.709 1,130 0.224,36.876 0.48,74.036 0.5,111 0.007,9.24 3.65,4.323 -0.5,4.5 -16.582,1.671 -33.316,0.147 -50,0 -14.974,-0.138 -29.843,1.521 -45,-0.5 -3.789,-0.505 -0.503,2.991 -0.5,-6 0.012,-35.966 0.393,-72.036 0.5,-108 0.15,-44.656 -1.617,-89.412 0,-134 0.421,-11.154 1.586,-6.375 5,-7 z"
         transform="matrix(0.07589144,0,0,0.19459963,87.2,0.55)"
         style="fill:url(#grad_5)" />
      <path
         id="path67"
         fill="#fff45c"
         stroke="none"
         stroke-linecap="round"
         d="m 215.25,196 c 3.688,3.474 7.281,7.769 9.5,12.5 1.655,3.525 2.629,7.585 2.5,11.5 -0.13,3.248 -1.574,6.717 -3.5,9.5 -1.373,2.079 -3.678,5.431 -6,4.5 -3.427,-1.407 -4.497,-5.283 -5.5,-8.5 -1.191,-3.842 -1.511,-7.936 -1,-12 0.676,-4.921 3.407,-9.589 4.5,-14.5 0.274,-1.231 -1.506,-3.926 -0.5,-3 z"
         transform="matrix(0.32164291,0,0,0.48441106,34,-93.5)" />
      <path
         id="path69"
         fill="#ff8c33"
         stroke="none"
         stroke-linecap="round"
         d="m 218.25,210.5 c 0.691,-0.203 2.712,5.336 3.5,8 0.727,2.387 1.473,4.872 1,7 -0.561,2.714 -1.469,5.997 -3.5,7.5 -0.836,0.603 -1.717,-1.453 -2,-2.5 -0.31,-1.884 -0.559,-3.992 -0.5,-6 0.183,-1.626 0.531,-3.033 0.5,-4.5 0.527,-3.203 0.326,-9.293 1,-9.5 z"
         transform="matrix(0.32164291,0,0,0.48441106,34.05,-93.5)" />
    </g>
    <g
       id="g79"
       transform="translate(188,101)">
      <path
         id="path73"
         fill="url(#grad_6)"
         stroke="#990000"
         stroke-width="2"
         stroke-linecap="round"
         d="m 179.25,78.5 c 14.08,-1.769 28.395,0.319 42.5,0.5 15.148,0.195 30.629,-1.941 45.5,1 3.705,0.745 0.973,-2.326 1,8.5 0.754,43.284 0.737,86.709 1,130 0.224,36.876 0.48,74.036 0.5,111 0.007,9.24 3.65,4.323 -0.5,4.5 -16.582,1.671 -33.316,0.147 -50,0 -14.974,-0.138 -29.843,1.521 -45,-0.5 -3.789,-0.505 -0.503,2.991 -0.5,-6 0.012,-35.966 0.393,-72.036 0.5,-108 0.15,-44.656 -1.617,-89.412 0,-134 0.421,-11.154 1.586,-6.375 5,-7 z"
         transform="matrix(0.07589144,0,0,0.19459963,23.2,0)"
         style="fill:url(#grad_6)" />
      <path
         id="path75"
         fill="#fff45c"
         stroke="none"
         stroke-linecap="round"
         d="m 215.25,196 c 3.688,3.474 7.281,7.769 9.5,12.5 1.655,3.525 2.629,7.585 2.5,11.5 -0.13,3.248 -1.574,6.717 -3.5,9.5 -1.373,2.079 -3.678,5.431 -6,4.5 -3.427,-1.407 -4.497,-5.283 -5.5,-8.5 -1.191,-3.842 -1.511,-7.936 -1,-12 0.676,-4.921 3.407,-9.589 4.5,-14.5 0.274,-1.231 -1.506,-3.926 -0.5,-3 z"
         transform="matrix(0.32164291,0,0,0.48441106,-29.95,-94.1)" />
      <path
         id="path77"
         fill="#ff8c33"
         stroke="none"
         stroke-linecap="round"
         d="m 218.25,210.5 c 0.691,-0.203 2.712,5.336 3.5,8 0.727,2.387 1.473,4.872 1,7 -0.561,2.714 -1.469,5.997 -3.5,7.5 -0.836,0.603 -1.717,-1.453 -2,-2.5 -0.31,-1.884 -0.559,-3.992 -0.5,-6 0.183,-1.626 0.531,-3.033 0.5,-4.5 0.527,-3.203 0.326,-9.293 1,-9.5 z"
         transform="matrix(0.32164291,0,0,0.48441106,-29.9,-94.1)" />
    </g>
    <g
       id="g87"
       transform="translate(188,101)">
      <path
         id="path81"
         fill="url(#grad_7)"
         stroke="#666666"
         stroke-width="2"
         stroke-linecap="round"
         d="m 179.25,78.5 c 14.08,-1.769 28.395,0.319 42.5,0.5 15.148,0.195 30.629,-1.941 45.5,1 3.705,0.745 0.973,-2.326 1,8.5 0.754,43.284 0.737,86.709 1,130 0.224,36.876 0.48,74.036 0.5,111 0.007,9.24 3.65,4.323 -0.5,4.5 -16.582,1.671 -33.316,0.147 -50,0 -14.974,-0.138 -29.843,1.521 -45,-0.5 -3.789,-0.505 -0.503,2.991 -0.5,-6 0.012,-35.966 0.393,-72.036 0.5,-108 0.15,-44.656 -1.617,-89.412 0,-134 0.421,-11.154 1.586,-6.375 5,-7 z"
         transform="matrix(0.07589144,0,0,0.19459963,39.1,0.9)"
         style="fill:url(#grad_7)" />
      <path
         id="path83"
         fill="#fff45c"
         stroke="none"
         stroke-linecap="round"
         d="m 215.25,196 c 3.688,3.474 7.281,7.769 9.5,12.5 1.655,3.525 2.629,7.585 2.5,11.5 -0.13,3.248 -1.574,6.717 -3.5,9.5 -1.373,2.079 -3.678,5.431 -6,4.5 -3.427,-1.407 -4.497,-5.283 -5.5,-8.5 -1.191,-3.842 -1.511,-7.936 -1,-12 0.676,-4.921 3.407,-9.589 4.5,-14.5 0.274,-1.231 -1.506,-3.926 -0.5,-3 z"
         transform="matrix(0.32164291,0,0,0.48441106,-14.05,-93.2)" />
      <path
         id="path85"
         fill="#ff8c33"
         stroke="none"
         stroke-linecap="round"
         d="m 218.25,210.5 c 0.691,-0.203 2.712,5.336 3.5,8 0.727,2.387 1.473,4.872 1,7 -0.561,2.714 -1.469,5.997 -3.5,7.5 -0.836,0.603 -1.717,-1.453 -2,-2.5 -0.31,-1.884 -0.559,-3.992 -0.5,-6 0.183,-1.626 0.531,-3.033 0.5,-4.5 0.527,-3.203 0.326,-9.293 1,-9.5 z"
         transform="matrix(0.32164291,0,0,0.48441106,-14,-93.2)" />
    </g>
    <g
       id="g95"
       transform="translate(188,101)">
      <path
         id="path89"
         fill="url(#grad_8)"
         stroke="#006622"
         stroke-width="2"
         stroke-linecap="round"
         d="m 179.25,78.5 c 14.08,-1.769 28.395,0.319 42.5,0.5 15.148,0.195 30.629,-1.941 45.5,1 3.705,0.745 0.973,-2.326 1,8.5 0.754,43.284 0.737,86.709 1,130 0.224,36.876 0.48,74.036 0.5,111 0.007,9.24 3.65,4.323 -0.5,4.5 -16.582,1.671 -33.316,0.147 -50,0 -14.974,-0.138 -29.843,1.521 -45,-0.5 -3.789,-0.505 -0.503,2.991 -0.5,-6 0.012,-35.966 0.393,-72.036 0.5,-108 0.15,-44.656 -1.617,-89.412 0,-134 0.421,-11.154 1.586,-6.375 5,-7 z"
         transform="matrix(0.07589144,0,0,0.19459963,55.25,0.2)"
         style="fill:url(#grad_8)" />
      <path
         id="path91"
         fill="#fff45c"
         stroke="none"
         stroke-linecap="round"
         d="m 215.25,196 c 3.688,3.474 7.281,7.769 9.5,12.5 1.655,3.525 2.629,7.585 2.5,11.5 -0.13,3.248 -1.574,6.717 -3.5,9.5 -1.373,2.079 -3.678,5.431 -6,4.5 -3.427,-1.407 -4.497,-5.283 -5.5,-8.5 -1.191,-3.842 -1.511,-7.936 -1,-12 0.676,-4.921 3.407,-9.589 4.5,-14.5 0.274,-1.231 -1.506,-3.926 -0.5,-3 z"
         transform="matrix(0.32164291,0,0,0.48441106,2.05,-93.9)" />
      <path
         id="path93"
         fill="#ff8c33"
         stroke="none"
         stroke-linecap="round"
         d="m 218.25,210.5 c 0.691,-0.203 2.712,5.336 3.5,8 0.727,2.387 1.473,4.872 1,7 -0.561,2.714 -1.469,5.997 -3.5,7.5 -0.836,0.603 -1.717,-1.453 -2,-2.5 -0.31,-1.884 -0.559,-3.992 -0.5,-6 0.183,-1.626 0.531,-3.033 0.5,-4.5 0.527,-3.203 0.326,-9.293 1,-9.5 z"
         transform="matrix(0.32164291,0,0,0.48441106,2.15,-93.9)" />
    </g>
    <g
       id="g103"
       transform="translate(188,101)">
      <path
         id="path97"
         fill="url(#grad_9)"
         stroke="#006622"
         stroke-width="2"
         stroke-linecap="round"
         d="m 179.25,78.5 c 14.08,-1.769 28.395,0.319 42.5,0.5 15.148,0.195 30.629,-1.941 45.5,1 3.705,0.745 0.973,-2.326 1,8.5 0.754,43.284 0.737,86.709 1,130 0.224,36.876 0.48,74.036 0.5,111 0.007,9.24 3.65,4.323 -0.5,4.5 -16.582,1.671 -33.316,0.147 -50,0 -14.974,-0.138 -29.843,1.521 -45,-0.5 -3.789,-0.505 -0.503,2.991 -0.5,-6 0.012,-35.966 0.393,-72.036 0.5,-108 0.15,-44.656 -1.617,-89.412 0,-134 0.421,-11.154 1.586,-6.375 5,-7 z"
         transform="matrix(0.07589144,0,0,0.19459963,71.2,0.4)"
         style="fill:url(#grad_9)" />
      <path
         id="path99"
         fill="#fff45c"
         stroke="none"
         stroke-linecap="round"
         d="m 215.25,196 c 3.688,3.474 7.281,7.769 9.5,12.5 1.655,3.525 2.629,7.585 2.5,11.5 -0.13,3.248 -1.574,6.717 -3.5,9.5 -1.373,2.079 -3.678,5.431 -6,4.5 -3.427,-1.407 -4.497,-5.283 -5.5,-8.5 -1.191,-3.842 -1.511,-7.936 -1,-12 0.676,-4.921 3.407,-9.589 4.5,-14.5 0.274,-1.231 -1.506,-3.926 -0.5,-3 z"
         transform="matrix(0.32164291,0,0,0.48441106,18,-93.7)" />
      <path
         id="path101"
         fill="#ff8c33"
         stroke="none"
         stroke-linecap="round"
         d="m 218.25,210.5 c 0.691,-0.203 2.712,5.336 3.5,8 0.727,2.387 1.473,4.872 1,7 -0.561,2.714 -1.469,5.997 -3.5,7.5 -0.836,0.603 -1.717,-1.453 -2,-2.5 -0.31,-1.884 -0.559,-3.992 -0.5,-6 0.183,-1.626 0.531,-3.033 0.5,-4.5 0.527,-3.203 0.326,-9.293 1,-9.5 z"
         transform="matrix(0.32164291,0,0,0.48441106,18.05,-93.7)" />
    </g>
  </g>
</svg>
