<svg version="1.1" width="111" height="104" xmlns="http://www.w3.org/2000/svg" xmlns:xlink="http://www.w3.org/1999/xlink">
  <defs>
    <linearGradient id="grad_1" y2="1">
      <stop offset="0" stop-color="#CCCC00" stop-opacity="1"/>
      <stop offset="1" stop-color="#995900" stop-opacity="1"/>
    </linearGradient>
    <linearGradient id="grad_2" y2="1">
      <stop offset="0" stop-color="#CCCC00" stop-opacity="1"/>
      <stop offset="1" stop-color="#995900" stop-opacity="1"/>
    </linearGradient>
    <linearGradient id="grad_3" y2="1">
      <stop offset="0" stop-color="#FF9999" stop-opacity="1"/>
      <stop offset="1" stop-color="#CC0000" stop-opacity="1"/>
    </linearGradient>
    <linearGradient id="grad_4" y2="1">
      <stop offset="0" stop-color="#FF9999" stop-opacity="1"/>
      <stop offset="1" stop-color="#CC0000" stop-opacity="1"/>
    </linearGradient>
    <linearGradient id="grad_5" y2="1">
      <stop offset="0" stop-color="#00FF55" stop-opacity="1"/>
      <stop offset="1" stop-color="#006622" stop-opacity="1"/>
    </linearGradient>
    <linearGradient id="grad_6" y2="1">
      <stop offset="0" stop-color="#FF9999" stop-opacity="1"/>
      <stop offset="1" stop-color="#CC0000" stop-opacity="1"/>
    </linearGradient>
    <linearGradient id="grad_7" y2="1">
      <stop offset="0" stop-color="#666666" stop-opacity="1"/>
      <stop offset="1" stop-color="#000000" stop-opacity="1"/>
    </linearGradient>
    <linearGradient id="grad_8" y2="1">
      <stop offset="0" stop-color="#00FF55" stop-opacity="1"/>
      <stop offset="1" stop-color="#006622" stop-opacity="1"/>
    </linearGradient>
    <linearGradient id="grad_9" y2="1">
      <stop offset="0" stop-color="#00FF55" stop-opacity="1"/>
      <stop offset="1" stop-color="#006622" stop-opacity="1"/>
    </linearGradient>
  </defs>
  <!-- Exported by Scratch - http://scratch.mit.edu/ -->
  <g id="ID0.9906059131026268">
    <path id="ID0.57411087770015" fill="#995900" stroke="#995900" stroke-width="2" d="M 311.500 191 L 329 191 L 329 235.500 L 311.500 235.500 L 311.500 191 Z " transform="matrix(0.5945749878883362, 0, 0, 0.4368968904018402, -134.1, -6.1)"/>
    <path id="ID0.4764567194506526" fill="url(#grad_1)" stroke="url(#grad_2)" stroke-width="2" stroke-linecap="round" d="M 253 180.500 L 402.500 180.500 L 402.500 198 L 369.050 205.500 L 329.300 214.150 L 253 198 L 253 180.500 Z " transform="matrix(0.7260485887527466, 0, 0, 0.4368968904018402, -182, -13.25)"/>
    <path id="ID0.5194686623290181" fill="#995900" stroke="#995900" stroke-width="2" d="M 283.500 233 L 351 233 L 351 247 L 283.500 247 L 283.500 233 Z " transform="matrix(0.5945749878883362, 0, 0, 0.4368968904018402, -132, -5.2)"/>
  </g>
  <g id="ID0.46222010301426053" transform="matrix(1, 0, 0, 1, -188, -101)">
    <g id="ID0.2631391347385943" transform="matrix(1, 0, 0, 1, 188, 101)">
      <path id="ID0.5673541482537985" fill="url(#grad_3)" stroke="#990000" stroke-width="2" stroke-linecap="round" d="M 179.250 78.500 C 193.330 76.731 207.645 78.819 221.750 79 C 236.898 79.195 252.379 77.059 267.250 80 C 270.955 80.745 268.223 77.674 268.250 88.500 C 269.004 131.784 268.987 175.209 269.250 218.500 C 269.474 255.376 269.730 292.536 269.750 329.500 C 269.757 338.740 273.400 333.823 269.250 334 C 252.668 335.671 235.934 334.147 219.250 334 C 204.276 333.862 189.407 335.521 174.250 333.500 C 170.461 332.995 173.747 336.491 173.750 327.500 C 173.762 291.534 174.143 255.464 174.250 219.500 C 174.400 174.844 172.633 130.088 174.250 85.500 C 174.671 74.346 175.836 79.125 179.250 78.500 Z " transform="matrix(0.07589144259691238, 0, 0, 0.19459962844848633, -8.75, 0.25)"/>
      <path id="ID0.09529179334640503" fill="#FFF45C" stroke="none" stroke-linecap="round" d="M 215.250 196 C 218.938 199.474 222.531 203.769 224.750 208.500 C 226.405 212.025 227.379 216.085 227.250 220 C 227.120 223.248 225.676 226.717 223.750 229.500 C 222.377 231.579 220.072 234.931 217.750 234 C 214.323 232.593 213.253 228.717 212.250 225.500 C 211.059 221.658 210.739 217.564 211.250 213.500 C 211.926 208.579 214.657 203.911 215.750 199 C 216.024 197.769 214.244 195.074 215.250 196 Z " transform="matrix(0.3216429054737091, 0, 0, 0.4844110608100891, -61.95, -93.95)"/>
      <path id="ID0.6337189464829862" fill="#FF8C33" stroke="none" stroke-linecap="round" d="M 218.250 210.500 C 218.941 210.297 220.962 215.836 221.750 218.500 C 222.477 220.887 223.223 223.372 222.750 225.500 C 222.189 228.214 221.281 231.497 219.250 233 C 218.414 233.603 217.533 231.547 217.250 230.500 C 216.940 228.616 216.691 226.508 216.750 224.500 C 216.933 222.874 217.281 221.467 217.250 220 C 217.777 216.797 217.576 210.707 218.250 210.500 Z " transform="matrix(0.3216429054737091, 0, 0, 0.4844110608100891, -61.9, -93.95)"/>
    </g>
    <g id="ID0.2631391347385943" transform="matrix(1, 0, 0, 1, 188, 101)">
      <path id="ID0.5673541482537985" fill="url(#grad_4)" stroke="#990000" stroke-width="2" stroke-linecap="round" d="M 179.250 78.500 C 193.330 76.731 207.645 78.819 221.750 79 C 236.898 79.195 252.379 77.059 267.250 80 C 270.955 80.745 268.223 77.674 268.250 88.500 C 269.004 131.784 268.987 175.209 269.250 218.500 C 269.474 255.376 269.730 292.536 269.750 329.500 C 269.757 338.740 273.400 333.823 269.250 334 C 252.668 335.671 235.934 334.147 219.250 334 C 204.276 333.862 189.407 335.521 174.250 333.500 C 170.461 332.995 173.747 336.491 173.750 327.500 C 173.762 291.534 174.143 255.464 174.250 219.500 C 174.400 174.844 172.633 130.088 174.250 85.500 C 174.671 74.346 175.836 79.125 179.250 78.500 Z " transform="matrix(0.07589144259691238, 0, 0, 0.19459962844848633, 7.2, 0.7)"/>
      <path id="ID0.09529179334640503" fill="#FFF45C" stroke="none" stroke-linecap="round" d="M 215.250 196 C 218.938 199.474 222.531 203.769 224.750 208.500 C 226.405 212.025 227.379 216.085 227.250 220 C 227.120 223.248 225.676 226.717 223.750 229.500 C 222.377 231.579 220.072 234.931 217.750 234 C 214.323 232.593 213.253 228.717 212.250 225.500 C 211.059 221.658 210.739 217.564 211.250 213.500 C 211.926 208.579 214.657 203.911 215.750 199 C 216.024 197.769 214.244 195.074 215.250 196 Z " transform="matrix(0.3216429054737091, 0, 0, 0.4844110608100891, -45.95, -93.4)"/>
      <path id="ID0.6337189464829862" fill="#FF8C33" stroke="none" stroke-linecap="round" d="M 218.250 210.500 C 218.941 210.297 220.962 215.836 221.750 218.500 C 222.477 220.887 223.223 223.372 222.750 225.500 C 222.189 228.214 221.281 231.497 219.250 233 C 218.414 233.603 217.533 231.547 217.250 230.500 C 216.940 228.616 216.691 226.508 216.750 224.500 C 216.933 222.874 217.281 221.467 217.250 220 C 217.777 216.797 217.576 210.707 218.250 210.500 Z " transform="matrix(0.3216429054737091, 0, 0, 0.4844110608100891, -45.9, -93.4)"/>
    </g>
    <g id="ID0.2631391347385943" transform="matrix(1, 0, 0, 1, 188, 101)">
      <path id="ID0.5673541482537985" fill="url(#grad_5)" stroke="#006622" stroke-width="2" stroke-linecap="round" d="M 179.250 78.500 C 193.330 76.731 207.645 78.819 221.750 79 C 236.898 79.195 252.379 77.059 267.250 80 C 270.955 80.745 268.223 77.674 268.250 88.500 C 269.004 131.784 268.987 175.209 269.250 218.500 C 269.474 255.376 269.730 292.536 269.750 329.500 C 269.757 338.740 273.400 333.823 269.250 334 C 252.668 335.671 235.934 334.147 219.250 334 C 204.276 333.862 189.407 335.521 174.250 333.500 C 170.461 332.995 173.747 336.491 173.750 327.500 C 173.762 291.534 174.143 255.464 174.250 219.500 C 174.400 174.844 172.633 130.088 174.250 85.500 C 174.671 74.346 175.836 79.125 179.250 78.500 Z " transform="matrix(0.07589144259691238, 0, 0, 0.19459962844848633, 87.2, 0.55)"/>
      <path id="ID0.09529179334640503" fill="#FFF45C" stroke="none" stroke-linecap="round" d="M 215.250 196 C 218.938 199.474 222.531 203.769 224.750 208.500 C 226.405 212.025 227.379 216.085 227.250 220 C 227.120 223.248 225.676 226.717 223.750 229.500 C 222.377 231.579 220.072 234.931 217.750 234 C 214.323 232.593 213.253 228.717 212.250 225.500 C 211.059 221.658 210.739 217.564 211.250 213.500 C 211.926 208.579 214.657 203.911 215.750 199 C 216.024 197.769 214.244 195.074 215.250 196 Z " transform="matrix(0.3216429054737091, 0, 0, 0.4844110608100891, 34, -93.5)"/>
      <path id="ID0.6337189464829862" fill="#FF8C33" stroke="none" stroke-linecap="round" d="M 218.250 210.500 C 218.941 210.297 220.962 215.836 221.750 218.500 C 222.477 220.887 223.223 223.372 222.750 225.500 C 222.189 228.214 221.281 231.497 219.250 233 C 218.414 233.603 217.533 231.547 217.250 230.500 C 216.940 228.616 216.691 226.508 216.750 224.500 C 216.933 222.874 217.281 221.467 217.250 220 C 217.777 216.797 217.576 210.707 218.250 210.500 Z " transform="matrix(0.3216429054737091, 0, 0, 0.4844110608100891, 34.05, -93.5)"/>
    </g>
    <g id="ID0.2631391347385943" transform="matrix(1, 0, 0, 1, 188, 101)">
      <path id="ID0.5673541482537985" fill="url(#grad_6)" stroke="#990000" stroke-width="2" stroke-linecap="round" d="M 179.250 78.500 C 193.330 76.731 207.645 78.819 221.750 79 C 236.898 79.195 252.379 77.059 267.250 80 C 270.955 80.745 268.223 77.674 268.250 88.500 C 269.004 131.784 268.987 175.209 269.250 218.500 C 269.474 255.376 269.730 292.536 269.750 329.500 C 269.757 338.740 273.400 333.823 269.250 334 C 252.668 335.671 235.934 334.147 219.250 334 C 204.276 333.862 189.407 335.521 174.250 333.500 C 170.461 332.995 173.747 336.491 173.750 327.500 C 173.762 291.534 174.143 255.464 174.250 219.500 C 174.400 174.844 172.633 130.088 174.250 85.500 C 174.671 74.346 175.836 79.125 179.250 78.500 Z " transform="matrix(0.07589144259691238, 0, 0, 0.19459962844848633, 23.2, 0)"/>
      <path id="ID0.09529179334640503" fill="#FFF45C" stroke="none" stroke-linecap="round" d="M 215.250 196 C 218.938 199.474 222.531 203.769 224.750 208.500 C 226.405 212.025 227.379 216.085 227.250 220 C 227.120 223.248 225.676 226.717 223.750 229.500 C 222.377 231.579 220.072 234.931 217.750 234 C 214.323 232.593 213.253 228.717 212.250 225.500 C 211.059 221.658 210.739 217.564 211.250 213.500 C 211.926 208.579 214.657 203.911 215.750 199 C 216.024 197.769 214.244 195.074 215.250 196 Z " transform="matrix(0.3216429054737091, 0, 0, 0.4844110608100891, -29.95, -94.1)"/>
      <path id="ID0.6337189464829862" fill="#FF8C33" stroke="none" stroke-linecap="round" d="M 218.250 210.500 C 218.941 210.297 220.962 215.836 221.750 218.500 C 222.477 220.887 223.223 223.372 222.750 225.500 C 222.189 228.214 221.281 231.497 219.250 233 C 218.414 233.603 217.533 231.547 217.250 230.500 C 216.940 228.616 216.691 226.508 216.750 224.500 C 216.933 222.874 217.281 221.467 217.250 220 C 217.777 216.797 217.576 210.707 218.250 210.500 Z " transform="matrix(0.3216429054737091, 0, 0, 0.4844110608100891, -29.9, -94.1)"/>
    </g>
    <g id="ID0.2631391347385943" transform="matrix(1, 0, 0, 1, 188, 101)">
      <path id="ID0.5673541482537985" fill="url(#grad_7)" stroke="#666666" stroke-width="2" stroke-linecap="round" d="M 179.250 78.500 C 193.330 76.731 207.645 78.819 221.750 79 C 236.898 79.195 252.379 77.059 267.250 80 C 270.955 80.745 268.223 77.674 268.250 88.500 C 269.004 131.784 268.987 175.209 269.250 218.500 C 269.474 255.376 269.730 292.536 269.750 329.500 C 269.757 338.740 273.400 333.823 269.250 334 C 252.668 335.671 235.934 334.147 219.250 334 C 204.276 333.862 189.407 335.521 174.250 333.500 C 170.461 332.995 173.747 336.491 173.750 327.500 C 173.762 291.534 174.143 255.464 174.250 219.500 C 174.400 174.844 172.633 130.088 174.250 85.500 C 174.671 74.346 175.836 79.125 179.250 78.500 Z " transform="matrix(0.07589144259691238, 0, 0, 0.19459962844848633, 39.1, 0.9)"/>
      <path id="ID0.09529179334640503" fill="#FFF45C" stroke="none" stroke-linecap="round" d="M 215.250 196 C 218.938 199.474 222.531 203.769 224.750 208.500 C 226.405 212.025 227.379 216.085 227.250 220 C 227.120 223.248 225.676 226.717 223.750 229.500 C 222.377 231.579 220.072 234.931 217.750 234 C 214.323 232.593 213.253 228.717 212.250 225.500 C 211.059 221.658 210.739 217.564 211.250 213.500 C 211.926 208.579 214.657 203.911 215.750 199 C 216.024 197.769 214.244 195.074 215.250 196 Z " transform="matrix(0.3216429054737091, 0, 0, 0.4844110608100891, -14.05, -93.2)"/>
      <path id="ID0.6337189464829862" fill="#FF8C33" stroke="none" stroke-linecap="round" d="M 218.250 210.500 C 218.941 210.297 220.962 215.836 221.750 218.500 C 222.477 220.887 223.223 223.372 222.750 225.500 C 222.189 228.214 221.281 231.497 219.250 233 C 218.414 233.603 217.533 231.547 217.250 230.500 C 216.940 228.616 216.691 226.508 216.750 224.500 C 216.933 222.874 217.281 221.467 217.250 220 C 217.777 216.797 217.576 210.707 218.250 210.500 Z " transform="matrix(0.3216429054737091, 0, 0, 0.4844110608100891, -14, -93.2)"/>
    </g>
    <g id="ID0.2631391347385943" transform="matrix(1, 0, 0, 1, 188, 101)">
      <path id="ID0.5673541482537985" fill="url(#grad_8)" stroke="#006622" stroke-width="2" stroke-linecap="round" d="M 179.250 78.500 C 193.330 76.731 207.645 78.819 221.750 79 C 236.898 79.195 252.379 77.059 267.250 80 C 270.955 80.745 268.223 77.674 268.250 88.500 C 269.004 131.784 268.987 175.209 269.250 218.500 C 269.474 255.376 269.730 292.536 269.750 329.500 C 269.757 338.740 273.400 333.823 269.250 334 C 252.668 335.671 235.934 334.147 219.250 334 C 204.276 333.862 189.407 335.521 174.250 333.500 C 170.461 332.995 173.747 336.491 173.750 327.500 C 173.762 291.534 174.143 255.464 174.250 219.500 C 174.400 174.844 172.633 130.088 174.250 85.500 C 174.671 74.346 175.836 79.125 179.250 78.500 Z " transform="matrix(0.07589144259691238, 0, 0, 0.19459962844848633, 55.25, 0.2)"/>
      <path id="ID0.09529179334640503" fill="#FFF45C" stroke="none" stroke-linecap="round" d="M 215.250 196 C 218.938 199.474 222.531 203.769 224.750 208.500 C 226.405 212.025 227.379 216.085 227.250 220 C 227.120 223.248 225.676 226.717 223.750 229.500 C 222.377 231.579 220.072 234.931 217.750 234 C 214.323 232.593 213.253 228.717 212.250 225.500 C 211.059 221.658 210.739 217.564 211.250 213.500 C 211.926 208.579 214.657 203.911 215.750 199 C 216.024 197.769 214.244 195.074 215.250 196 Z " transform="matrix(0.3216429054737091, 0, 0, 0.4844110608100891, 2.05, -93.9)"/>
      <path id="ID0.6337189464829862" fill="#FF8C33" stroke="none" stroke-linecap="round" d="M 218.250 210.500 C 218.941 210.297 220.962 215.836 221.750 218.500 C 222.477 220.887 223.223 223.372 222.750 225.500 C 222.189 228.214 221.281 231.497 219.250 233 C 218.414 233.603 217.533 231.547 217.250 230.500 C 216.940 228.616 216.691 226.508 216.750 224.500 C 216.933 222.874 217.281 221.467 217.250 220 C 217.777 216.797 217.576 210.707 218.250 210.500 Z " transform="matrix(0.3216429054737091, 0, 0, 0.4844110608100891, 2.15, -93.9)"/>
    </g>
    <g id="ID0.2631391347385943" transform="matrix(1, 0, 0, 1, 188, 101)">
      <path id="ID0.5673541482537985" fill="url(#grad_9)" stroke="#006622" stroke-width="2" stroke-linecap="round" d="M 179.250 78.500 C 193.330 76.731 207.645 78.819 221.750 79 C 236.898 79.195 252.379 77.059 267.250 80 C 270.955 80.745 268.223 77.674 268.250 88.500 C 269.004 131.784 268.987 175.209 269.250 218.500 C 269.474 255.376 269.730 292.536 269.750 329.500 C 269.757 338.740 273.400 333.823 269.250 334 C 252.668 335.671 235.934 334.147 219.250 334 C 204.276 333.862 189.407 335.521 174.250 333.500 C 170.461 332.995 173.747 336.491 173.750 327.500 C 173.762 291.534 174.143 255.464 174.250 219.500 C 174.400 174.844 172.633 130.088 174.250 85.500 C 174.671 74.346 175.836 79.125 179.250 78.500 Z " transform="matrix(0.07589144259691238, 0, 0, 0.19459962844848633, 71.2, 0.4)"/>
      <path id="ID0.09529179334640503" fill="#FFF45C" stroke="none" stroke-linecap="round" d="M 215.250 196 C 218.938 199.474 222.531 203.769 224.750 208.500 C 226.405 212.025 227.379 216.085 227.250 220 C 227.120 223.248 225.676 226.717 223.750 229.500 C 222.377 231.579 220.072 234.931 217.750 234 C 214.323 232.593 213.253 228.717 212.250 225.500 C 211.059 221.658 210.739 217.564 211.250 213.500 C 211.926 208.579 214.657 203.911 215.750 199 C 216.024 197.769 214.244 195.074 215.250 196 Z " transform="matrix(0.3216429054737091, 0, 0, 0.4844110608100891, 18, -93.7)"/>
      <path id="ID0.6337189464829862" fill="#FF8C33" stroke="none" stroke-linecap="round" d="M 218.250 210.500 C 218.941 210.297 220.962 215.836 221.750 218.500 C 222.477 220.887 223.223 223.372 222.750 225.500 C 222.189 228.214 221.281 231.497 219.250 233 C 218.414 233.603 217.533 231.547 217.250 230.500 C 216.940 228.616 216.691 226.508 216.750 224.500 C 216.933 222.874 217.281 221.467 217.250 220 C 217.777 216.797 217.576 210.707 218.250 210.500 Z " transform="matrix(0.3216429054737091, 0, 0, 0.4844110608100891, 18.05, -93.7)"/>
    </g>
  </g>
</svg>