<?xml version="1.0" encoding="UTF-8" standalone="no"?>
<svg
   version="1.1"
   width="100.99666"
   height="73.380737"
   id="svg102"
   sodipodi:docname="candles1.svg"
   xmlns:inkscape="http://www.inkscape.org/namespaces/inkscape"
   xmlns:sodipodi="http://sodipodi.sourceforge.net/DTD/sodipodi-0.dtd"
   xmlns="http://www.w3.org/2000/svg"
   xmlns:svg="http://www.w3.org/2000/svg">
  <defs
     id="defs106" />
  <sodipodi:namedview
     id="namedview104"
     pagecolor="#ffffff"
     bordercolor="#000000"
     borderopacity="0.25"
     inkscape:showpageshadow="2"
     inkscape:pageopacity="0.0"
     inkscape:pagecheckerboard="0"
     inkscape:deskcolor="#d1d1d1" />
  <!-- Exported by Scratch - http://scratch.mit.edu/ -->
  <g
     id="ID0.30025462061166763"
     transform="matrix(0.77394634,0,0,0.77394634,-131.88984,-93.714609)">
    <g
       id="ID0.2505933870561421"
       transform="translate(170,121)">
      <path
         id="ID0.5673541482537985"
         fill="#ffffff"
         stroke="none"
         stroke-linecap="round"
         d="m 179.25,78.5 c 14.08,-1.769 28.395,0.319 42.5,0.5 15.148,0.195 30.629,-1.941 45.5,1 3.705,0.745 0.973,-2.326 1,8.5 0.754,43.284 0.737,86.709 1,130 0.224,36.876 0.48,74.036 0.5,111 0.007,9.24 3.65,4.323 -0.5,4.5 -16.582,1.671 -33.316,0.147 -50,0 -14.974,-0.138 -29.843,1.521 -45,-0.5 -3.789,-0.505 -0.503,2.991 -0.5,-6 0.012,-35.966 0.393,-72.036 0.5,-108 0.15,-44.656 -1.617,-89.412 0,-134 0.421,-11.154 1.586,-6.375 5,-7 z"
         transform="matrix(0.09620254,0,0,0.1637931,-15.5,1.95)" />
      <path
         id="ID0.3195285517722368"
         fill="#ffffcc"
         stroke="none"
         d="M 220.5,233.5 H 230 V 334 h -9.5 z"
         transform="matrix(0.40772533,0,0,0.40772533,-83.8,-79.95)" />
      <path
         id="ID0.09529179334640503"
         fill="#fff45c"
         stroke="none"
         stroke-linecap="round"
         d="m 215.25,196 c 3.688,3.474 7.281,7.769 9.5,12.5 1.655,3.525 2.629,7.585 2.5,11.5 -0.13,3.248 -1.574,6.717 -3.5,9.5 -1.373,2.079 -3.678,5.431 -6,4.5 -3.427,-1.407 -4.497,-5.283 -5.5,-8.5 -1.191,-3.842 -1.511,-7.936 -1,-12 0.676,-4.921 3.407,-9.589 4.5,-14.5 0.274,-1.231 -1.506,-3.926 -0.5,-3 z"
         transform="matrix(0.40772533,0,0,0.40772533,-83.4,-79.75)" />
      <path
         id="ID0.6337189464829862"
         fill="#ff8c33"
         stroke="none"
         stroke-linecap="round"
         d="m 218.25,210.5 c 0.691,-0.203 2.712,5.336 3.5,8 0.727,2.387 1.473,4.872 1,7 -0.561,2.714 -1.469,5.997 -3.5,7.5 -0.836,0.603 -1.717,-1.453 -2,-2.5 -0.31,-1.884 -0.559,-3.992 -0.5,-6 0.183,-1.626 0.531,-3.033 0.5,-4.5 0.527,-3.203 0.326,-9.293 1,-9.5 z"
         transform="matrix(0.40772533,0,0,0.40772533,-83.25,-79.75)" />
    </g>
    <g
       id="g15"
       transform="translate(170,121)">
      <path
         id="path7"
         fill="#ffffff"
         stroke="none"
         stroke-linecap="round"
         d="m 179.25,78.5 c 14.08,-1.769 28.395,0.319 42.5,0.5 15.148,0.195 30.629,-1.941 45.5,1 3.705,0.745 0.973,-2.326 1,8.5 0.754,43.284 0.737,86.709 1,130 0.224,36.876 0.48,74.036 0.5,111 0.007,9.24 3.65,4.323 -0.5,4.5 -16.582,1.671 -33.316,0.147 -50,0 -14.974,-0.138 -29.843,1.521 -45,-0.5 -3.789,-0.505 -0.503,2.991 -0.5,-6 0.012,-35.966 0.393,-72.036 0.5,-108 0.15,-44.656 -1.617,-89.412 0,-134 0.421,-11.154 1.586,-6.375 5,-7 z"
         transform="matrix(0.09620254,0,0,0.1637931,-0.5,2.2)" />
      <path
         id="path9"
         fill="#ffffcc"
         stroke="none"
         d="M 220.5,233.5 H 230 V 334 h -9.5 z"
         transform="matrix(0.40772533,0,0,0.40772533,-68.9,-79.7)" />
      <path
         id="path11"
         fill="#fff45c"
         stroke="none"
         stroke-linecap="round"
         d="m 215.25,196 c 3.688,3.474 7.281,7.769 9.5,12.5 1.655,3.525 2.629,7.585 2.5,11.5 -0.13,3.248 -1.574,6.717 -3.5,9.5 -1.373,2.079 -3.678,5.431 -6,4.5 -3.427,-1.407 -4.497,-5.283 -5.5,-8.5 -1.191,-3.842 -1.511,-7.936 -1,-12 0.676,-4.921 3.407,-9.589 4.5,-14.5 0.274,-1.231 -1.506,-3.926 -0.5,-3 z"
         transform="matrix(0.40772533,0,0,0.40772533,-68.5,-79.5)" />
      <path
         id="path13"
         fill="#ff8c33"
         stroke="none"
         stroke-linecap="round"
         d="m 218.25,210.5 c 0.691,-0.203 2.712,5.336 3.5,8 0.727,2.387 1.473,4.872 1,7 -0.561,2.714 -1.469,5.997 -3.5,7.5 -0.836,0.603 -1.717,-1.453 -2,-2.5 -0.31,-1.884 -0.559,-3.992 -0.5,-6 0.183,-1.626 0.531,-3.033 0.5,-4.5 0.527,-3.203 0.326,-9.293 1,-9.5 z"
         transform="matrix(0.40772533,0,0,0.40772533,-68.3,-79.5)" />
    </g>
    <g
       id="g25"
       transform="translate(170,121)">
      <path
         id="path17"
         fill="#ffffff"
         stroke="none"
         stroke-linecap="round"
         d="m 179.25,78.5 c 14.08,-1.769 28.395,0.319 42.5,0.5 15.148,0.195 30.629,-1.941 45.5,1 3.705,0.745 0.973,-2.326 1,8.5 0.754,43.284 0.737,86.709 1,130 0.224,36.876 0.48,74.036 0.5,111 0.007,9.24 3.65,4.323 -0.5,4.5 -16.582,1.671 -33.316,0.147 -50,0 -14.974,-0.138 -29.843,1.521 -45,-0.5 -3.789,-0.505 -0.503,2.991 -0.5,-6 0.012,-35.966 0.393,-72.036 0.5,-108 0.15,-44.656 -1.617,-89.412 0,-134 0.421,-11.154 1.586,-6.375 5,-7 z"
         transform="matrix(0.09620254,0,0,0.1637931,14.65,1.95)" />
      <path
         id="path19"
         fill="#ffffcc"
         stroke="none"
         d="M 220.5,233.5 H 230 V 334 h -9.5 z"
         transform="matrix(0.40772533,0,0,0.40772533,-53.7,-79.95)" />
      <path
         id="path21"
         fill="#fff45c"
         stroke="none"
         stroke-linecap="round"
         d="m 215.25,196 c 3.688,3.474 7.281,7.769 9.5,12.5 1.655,3.525 2.629,7.585 2.5,11.5 -0.13,3.248 -1.574,6.717 -3.5,9.5 -1.373,2.079 -3.678,5.431 -6,4.5 -3.427,-1.407 -4.497,-5.283 -5.5,-8.5 -1.191,-3.842 -1.511,-7.936 -1,-12 0.676,-4.921 3.407,-9.589 4.5,-14.5 0.274,-1.231 -1.506,-3.926 -0.5,-3 z"
         transform="matrix(0.40772533,0,0,0.40772533,-53.25,-79.75)" />
      <path
         id="path23"
         fill="#ff8c33"
         stroke="none"
         stroke-linecap="round"
         d="m 218.25,210.5 c 0.691,-0.203 2.712,5.336 3.5,8 0.727,2.387 1.473,4.872 1,7 -0.561,2.714 -1.469,5.997 -3.5,7.5 -0.836,0.603 -1.717,-1.453 -2,-2.5 -0.31,-1.884 -0.559,-3.992 -0.5,-6 0.183,-1.626 0.531,-3.033 0.5,-4.5 0.527,-3.203 0.326,-9.293 1,-9.5 z"
         transform="matrix(0.40772533,0,0,0.40772533,-53,-79.75)" />
    </g>
    <g
       id="g35"
       transform="translate(170,121)">
      <path
         id="path27"
         fill="#ffffff"
         stroke="none"
         stroke-linecap="round"
         d="m 179.25,78.5 c 14.08,-1.769 28.395,0.319 42.5,0.5 15.148,0.195 30.629,-1.941 45.5,1 3.705,0.745 0.973,-2.326 1,8.5 0.754,43.284 0.737,86.709 1,130 0.224,36.876 0.48,74.036 0.5,111 0.007,9.24 3.65,4.323 -0.5,4.5 -16.582,1.671 -33.316,0.147 -50,0 -14.974,-0.138 -29.843,1.521 -45,-0.5 -3.789,-0.505 -0.503,2.991 -0.5,-6 0.012,-35.966 0.393,-72.036 0.5,-108 0.15,-44.656 -1.617,-89.412 0,-134 0.421,-11.154 1.586,-6.375 5,-7 z"
         transform="matrix(0.09620254,0,0,0.1637931,29.9,2.45)" />
      <path
         id="path29"
         fill="#ffffcc"
         stroke="none"
         d="M 220.5,233.5 H 230 V 334 h -9.5 z"
         transform="matrix(0.40772533,0,0,0.40772533,-38.35,-79.45)" />
      <path
         id="path31"
         fill="#fff45c"
         stroke="none"
         stroke-linecap="round"
         d="m 215.25,196 c 3.688,3.474 7.281,7.769 9.5,12.5 1.655,3.525 2.629,7.585 2.5,11.5 -0.13,3.248 -1.574,6.717 -3.5,9.5 -1.373,2.079 -3.678,5.431 -6,4.5 -3.427,-1.407 -4.497,-5.283 -5.5,-8.5 -1.191,-3.842 -1.511,-7.936 -1,-12 0.676,-4.921 3.407,-9.589 4.5,-14.5 0.274,-1.231 -1.506,-3.926 -0.5,-3 z"
         transform="matrix(0.40772533,0,0,0.40772533,-38,-79.25)" />
      <path
         id="path33"
         fill="#ff8c33"
         stroke="none"
         stroke-linecap="round"
         d="m 218.25,210.5 c 0.691,-0.203 2.712,5.336 3.5,8 0.727,2.387 1.473,4.872 1,7 -0.561,2.714 -1.469,5.997 -3.5,7.5 -0.836,0.603 -1.717,-1.453 -2,-2.5 -0.31,-1.884 -0.559,-3.992 -0.5,-6 0.183,-1.626 0.531,-3.033 0.5,-4.5 0.527,-3.203 0.326,-9.293 1,-9.5 z"
         transform="matrix(0.40772533,0,0,0.40772533,-37.75,-79.25)" />
    </g>
    <g
       id="g45"
       transform="translate(170,121)">
      <path
         id="path37"
         fill="#ffffff"
         stroke="none"
         stroke-linecap="round"
         d="m 179.25,78.5 c 14.08,-1.769 28.395,0.319 42.5,0.5 15.148,0.195 30.629,-1.941 45.5,1 3.705,0.745 0.973,-2.326 1,8.5 0.754,43.284 0.737,86.709 1,130 0.224,36.876 0.48,74.036 0.5,111 0.007,9.24 3.65,4.323 -0.5,4.5 -16.582,1.671 -33.316,0.147 -50,0 -14.974,-0.138 -29.843,1.521 -45,-0.5 -3.789,-0.505 -0.503,2.991 -0.5,-6 0.012,-35.966 0.393,-72.036 0.5,-108 0.15,-44.656 -1.617,-89.412 0,-134 0.421,-11.154 1.586,-6.375 5,-7 z"
         transform="matrix(0.09620254,0,0,0.1637931,45.9,2.45)" />
      <path
         id="path39"
         fill="#ffffcc"
         stroke="none"
         d="M 220.5,233.5 H 230 V 334 h -9.5 z"
         transform="matrix(0.40772533,0,0,0.40772533,-22.4,-79.45)" />
      <path
         id="path41"
         fill="#fff45c"
         stroke="none"
         stroke-linecap="round"
         d="m 215.25,196 c 3.688,3.474 7.281,7.769 9.5,12.5 1.655,3.525 2.629,7.585 2.5,11.5 -0.13,3.248 -1.574,6.717 -3.5,9.5 -1.373,2.079 -3.678,5.431 -6,4.5 -3.427,-1.407 -4.497,-5.283 -5.5,-8.5 -1.191,-3.842 -1.511,-7.936 -1,-12 0.676,-4.921 3.407,-9.589 4.5,-14.5 0.274,-1.231 -1.506,-3.926 -0.5,-3 z"
         transform="matrix(0.40772533,0,0,0.40772533,-22,-79.25)" />
      <path
         id="path43"
         fill="#ff8c33"
         stroke="none"
         stroke-linecap="round"
         d="m 218.25,210.5 c 0.691,-0.203 2.712,5.336 3.5,8 0.727,2.387 1.473,4.872 1,7 -0.561,2.714 -1.469,5.997 -3.5,7.5 -0.836,0.603 -1.717,-1.453 -2,-2.5 -0.31,-1.884 -0.559,-3.992 -0.5,-6 0.183,-1.626 0.531,-3.033 0.5,-4.5 0.527,-3.203 0.326,-9.293 1,-9.5 z"
         transform="matrix(0.40772533,0,0,0.40772533,-21.75,-79.25)" />
    </g>
    <g
       id="g55"
       transform="translate(170,121)">
      <path
         id="path47"
         fill="#ffffff"
         stroke="none"
         stroke-linecap="round"
         d="m 179.25,78.5 c 14.08,-1.769 28.395,0.319 42.5,0.5 15.148,0.195 30.629,-1.941 45.5,1 3.705,0.745 0.973,-2.326 1,8.5 0.754,43.284 0.737,86.709 1,130 0.224,36.876 0.48,74.036 0.5,111 0.007,9.24 3.65,4.323 -0.5,4.5 -16.582,1.671 -33.316,0.147 -50,0 -14.974,-0.138 -29.843,1.521 -45,-0.5 -3.789,-0.505 -0.503,2.991 -0.5,-6 0.012,-35.966 0.393,-72.036 0.5,-108 0.15,-44.656 -1.617,-89.412 0,-134 0.421,-11.154 1.586,-6.375 5,-7 z"
         transform="matrix(0.09620254,0,0,0.1637931,-15.5,2.7)" />
      <path
         id="path49"
         fill="#ffffcc"
         stroke="none"
         d="M 220.5,233.5 H 230 V 334 h -9.5 z"
         transform="matrix(0.40772533,0,0,0.40772533,-83.8,-79.2)" />
      <path
         id="path51"
         fill="#fff45c"
         stroke="none"
         stroke-linecap="round"
         d="m 215.25,196 c 3.688,3.474 7.281,7.769 9.5,12.5 1.655,3.525 2.629,7.585 2.5,11.5 -0.13,3.248 -1.574,6.717 -3.5,9.5 -1.373,2.079 -3.678,5.431 -6,4.5 -3.427,-1.407 -4.497,-5.283 -5.5,-8.5 -1.191,-3.842 -1.511,-7.936 -1,-12 0.676,-4.921 3.407,-9.589 4.5,-14.5 0.274,-1.231 -1.506,-3.926 -0.5,-3 z"
         transform="matrix(0.40772533,0,0,0.40772533,-83.5,-79)" />
      <path
         id="path53"
         fill="#ff8c33"
         stroke="none"
         stroke-linecap="round"
         d="m 218.25,210.5 c 0.691,-0.203 2.712,5.336 3.5,8 0.727,2.387 1.473,4.872 1,7 -0.561,2.714 -1.469,5.997 -3.5,7.5 -0.836,0.603 -1.717,-1.453 -2,-2.5 -0.31,-1.884 -0.559,-3.992 -0.5,-6 0.183,-1.626 0.531,-3.033 0.5,-4.5 0.527,-3.203 0.326,-9.293 1,-9.5 z"
         transform="matrix(0.40772533,0,0,0.40772533,-83.25,-79)" />
    </g>
    <g
       id="g65"
       transform="translate(170,121)">
      <path
         id="path57"
         fill="#ffffff"
         stroke="none"
         stroke-linecap="round"
         d="m 179.25,78.5 c 14.08,-1.769 28.395,0.319 42.5,0.5 15.148,0.195 30.629,-1.941 45.5,1 3.705,0.745 0.973,-2.326 1,8.5 0.754,43.284 0.737,86.709 1,130 0.224,36.876 0.48,74.036 0.5,111 0.007,9.24 3.65,4.323 -0.5,4.5 -16.582,1.671 -33.316,0.147 -50,0 -14.974,-0.138 -29.843,1.521 -45,-0.5 -3.789,-0.505 -0.503,2.991 -0.5,-6 0.012,-35.966 0.393,-72.036 0.5,-108 0.15,-44.656 -1.617,-89.412 0,-134 0.421,-11.154 1.586,-6.375 5,-7 z"
         transform="matrix(0.09620254,0,0,0.1637931,61.15,2.2)" />
      <path
         id="path59"
         fill="#ffffcc"
         stroke="none"
         d="M 220.5,233.5 H 230 V 334 h -9.5 z"
         transform="matrix(0.40772533,0,0,0.40772533,-7.15,-79.7)" />
      <path
         id="path61"
         fill="#fff45c"
         stroke="none"
         stroke-linecap="round"
         d="m 215.25,196 c 3.688,3.474 7.281,7.769 9.5,12.5 1.655,3.525 2.629,7.585 2.5,11.5 -0.13,3.248 -1.574,6.717 -3.5,9.5 -1.373,2.079 -3.678,5.431 -6,4.5 -3.427,-1.407 -4.497,-5.283 -5.5,-8.5 -1.191,-3.842 -1.511,-7.936 -1,-12 0.676,-4.921 3.407,-9.589 4.5,-14.5 0.274,-1.231 -1.506,-3.926 -0.5,-3 z"
         transform="matrix(0.40772533,0,0,0.40772533,-6.75,-79.5)" />
      <path
         id="path63"
         fill="#ff8c33"
         stroke="none"
         stroke-linecap="round"
         d="m 218.25,210.5 c 0.691,-0.203 2.712,5.336 3.5,8 0.727,2.387 1.473,4.872 1,7 -0.561,2.714 -1.469,5.997 -3.5,7.5 -0.836,0.603 -1.717,-1.453 -2,-2.5 -0.31,-1.884 -0.559,-3.992 -0.5,-6 0.183,-1.626 0.531,-3.033 0.5,-4.5 0.527,-3.203 0.326,-9.293 1,-9.5 z"
         transform="matrix(0.40772533,0,0,0.40772533,-6.5,-79.5)" />
    </g>
    <g
       id="g75"
       transform="translate(170,121)">
      <path
         id="path67"
         fill="#ffffff"
         stroke="none"
         stroke-linecap="round"
         d="m 179.25,78.5 c 14.08,-1.769 28.395,0.319 42.5,0.5 15.148,0.195 30.629,-1.941 45.5,1 3.705,0.745 0.973,-2.326 1,8.5 0.754,43.284 0.737,86.709 1,130 0.224,36.876 0.48,74.036 0.5,111 0.007,9.24 3.65,4.323 -0.5,4.5 -16.582,1.671 -33.316,0.147 -50,0 -14.974,-0.138 -29.843,1.521 -45,-0.5 -3.789,-0.505 -0.503,2.991 -0.5,-6 0.012,-35.966 0.393,-72.036 0.5,-108 0.15,-44.656 -1.617,-89.412 0,-134 0.421,-11.154 1.586,-6.375 5,-7 z"
         transform="matrix(0.09620254,0,0,0.1637931,78.35,3.45)" />
      <path
         id="path69"
         fill="#ffffcc"
         stroke="none"
         d="M 220.5,233.5 H 230 V 334 h -9.5 z"
         transform="matrix(0.40772533,0,0,0.40772533,10,-78.45)" />
      <path
         id="path71"
         fill="#fff45c"
         stroke="none"
         stroke-linecap="round"
         d="m 215.25,196 c 3.688,3.474 7.281,7.769 9.5,12.5 1.655,3.525 2.629,7.585 2.5,11.5 -0.13,3.248 -1.574,6.717 -3.5,9.5 -1.373,2.079 -3.678,5.431 -6,4.5 -3.427,-1.407 -4.497,-5.283 -5.5,-8.5 -1.191,-3.842 -1.511,-7.936 -1,-12 0.676,-4.921 3.407,-9.589 4.5,-14.5 0.274,-1.231 -1.506,-3.926 -0.5,-3 z"
         transform="matrix(0.40772533,0,0,0.40772533,10.4,-78.25)" />
      <path
         id="path73"
         fill="#ff8c33"
         stroke="none"
         stroke-linecap="round"
         d="m 218.25,210.5 c 0.691,-0.203 2.712,5.336 3.5,8 0.727,2.387 1.473,4.872 1,7 -0.561,2.714 -1.469,5.997 -3.5,7.5 -0.836,0.603 -1.717,-1.453 -2,-2.5 -0.31,-1.884 -0.559,-3.992 -0.5,-6 0.183,-1.626 0.531,-3.033 0.5,-4.5 0.527,-3.203 0.326,-9.293 1,-9.5 z"
         transform="matrix(0.40772533,0,0,0.40772533,10.55,-78.25)" />
    </g>
    <g
       id="g85"
       transform="translate(170,121)">
      <path
         id="path77"
         fill="#ffffff"
         stroke="none"
         stroke-linecap="round"
         d="m 179.25,78.5 c 14.08,-1.769 28.395,0.319 42.5,0.5 15.148,0.195 30.629,-1.941 45.5,1 3.705,0.745 0.973,-2.326 1,8.5 0.754,43.284 0.737,86.709 1,130 0.224,36.876 0.48,74.036 0.5,111 0.007,9.24 3.65,4.323 -0.5,4.5 -16.582,1.671 -33.316,0.147 -50,0 -14.974,-0.138 -29.843,1.521 -45,-0.5 -3.789,-0.505 -0.503,2.991 -0.5,-6 0.012,-35.966 0.393,-72.036 0.5,-108 0.15,-44.656 -1.617,-89.412 0,-134 0.421,-11.154 1.586,-6.375 5,-7 z"
         transform="matrix(0.09620254,0,0,0.1637931,103.7,3.15)" />
      <path
         id="path79"
         fill="#ffffcc"
         stroke="none"
         d="M 220.5,233.5 H 230 V 334 h -9.5 z"
         transform="matrix(0.40772533,0,0,0.40772533,35.3,-78.75)" />
      <path
         id="path81"
         fill="#fff45c"
         stroke="none"
         stroke-linecap="round"
         d="m 215.25,196 c 3.688,3.474 7.281,7.769 9.5,12.5 1.655,3.525 2.629,7.585 2.5,11.5 -0.13,3.248 -1.574,6.717 -3.5,9.5 -1.373,2.079 -3.678,5.431 -6,4.5 -3.427,-1.407 -4.497,-5.283 -5.5,-8.5 -1.191,-3.842 -1.511,-7.936 -1,-12 0.676,-4.921 3.407,-9.589 4.5,-14.5 0.274,-1.231 -1.506,-3.926 -0.5,-3 z"
         transform="matrix(0.40772533,0,0,0.40772533,35.8,-78.55)" />
      <path
         id="path83"
         fill="#ff8c33"
         stroke="none"
         stroke-linecap="round"
         d="m 218.25,210.5 c 0.691,-0.203 2.712,5.336 3.5,8 0.727,2.387 1.473,4.872 1,7 -0.561,2.714 -1.469,5.997 -3.5,7.5 -0.836,0.603 -1.717,-1.453 -2,-2.5 -0.31,-1.884 -0.559,-3.992 -0.5,-6 0.183,-1.626 0.531,-3.033 0.5,-4.5 0.527,-3.203 0.326,-9.293 1,-9.5 z"
         transform="matrix(0.40772533,0,0,0.40772533,36,-78.55)" />
    </g>
    <g
       id="g95"
       transform="translate(170,121)">
      <path
         id="path87"
         fill="#ffffff"
         stroke="none"
         stroke-linecap="round"
         d="m 179.25,78.5 c 14.08,-1.769 28.395,0.319 42.5,0.5 15.148,0.195 30.629,-1.941 45.5,1 3.705,0.745 0.973,-2.326 1,8.5 0.754,43.284 0.737,86.709 1,130 0.224,36.876 0.48,74.036 0.5,111 0.007,9.24 3.65,4.323 -0.5,4.5 -16.582,1.671 -33.316,0.147 -50,0 -14.974,-0.138 -29.843,1.521 -45,-0.5 -3.789,-0.505 -0.503,2.991 -0.5,-6 0.012,-35.966 0.393,-72.036 0.5,-108 0.15,-44.656 -1.617,-89.412 0,-134 0.421,-11.154 1.586,-6.375 5,-7 z"
         transform="matrix(0.09620254,0,0,0.1637931,92.15,3.15)" />
      <path
         id="path89"
         fill="#ffffcc"
         stroke="none"
         d="M 220.5,233.5 H 230 V 334 h -9.5 z"
         transform="matrix(0.40772533,0,0,0.40772533,23.8,-78.75)" />
      <path
         id="path91"
         fill="#fff45c"
         stroke="none"
         stroke-linecap="round"
         d="m 215.25,196 c 3.688,3.474 7.281,7.769 9.5,12.5 1.655,3.525 2.629,7.585 2.5,11.5 -0.13,3.248 -1.574,6.717 -3.5,9.5 -1.373,2.079 -3.678,5.431 -6,4.5 -3.427,-1.407 -4.497,-5.283 -5.5,-8.5 -1.191,-3.842 -1.511,-7.936 -1,-12 0.676,-4.921 3.407,-9.589 4.5,-14.5 0.274,-1.231 -1.506,-3.926 -0.5,-3 z"
         transform="matrix(0.40772533,0,0,0.40772533,24.25,-78.55)" />
      <path
         id="path93"
         fill="#ff8c33"
         stroke="none"
         stroke-linecap="round"
         d="m 218.25,210.5 c 0.691,-0.203 2.712,5.336 3.5,8 0.727,2.387 1.473,4.872 1,7 -0.561,2.714 -1.469,5.997 -3.5,7.5 -0.836,0.603 -1.717,-1.453 -2,-2.5 -0.31,-1.884 -0.559,-3.992 -0.5,-6 0.183,-1.626 0.531,-3.033 0.5,-4.5 0.527,-3.203 0.326,-9.293 1,-9.5 z"
         transform="matrix(0.40772533,0,0,0.40772533,24.5,-78.55)" />
    </g>
    <g
       id="ID0.698288531973958"
       transform="translate(170,121)">
      <path
         id="ID0.57411087770015"
         fill="#7f7f7f"
         stroke="#7f7f7f"
         stroke-width="2"
         d="M 311.5,191 H 329 v 44.5 h -17.5 z"
         transform="matrix(0.70538211,0,0,0.43689689,-159.85,-14.25)" />
      <path
         id="ID0.4764567194506526"
         fill="#7f7f7f"
         stroke="#7f7f7f"
         stroke-width="2"
         stroke-linecap="round"
         d="M 253,180.5 H 402.5 V 198 l -33.45,7.5 -39.75,8.65 L 253,198 Z"
         transform="matrix(0.86135763,0,0,0.43689689,-216.65,-21.5)" />
      <path
         id="ID0.5194686623290181"
         fill="#7f7f7f"
         stroke="#7f7f7f"
         stroke-width="2"
         d="M 283.5,233 H 351 v 14 h -67.5 z"
         transform="matrix(0.70538211,0,0,0.43689689,-157.35,-13.45)" />
    </g>
  </g>
</svg>
