<svg version="1.1" width="25" height="141" xmlns="http://www.w3.org/2000/svg" xmlns:xlink="http://www.w3.org/1999/xlink">
  <!-- Exported by Scratch - http://scratch.mit.edu/ -->
  <g id="ID0.23448855988681316" transform="matrix(0.9024999737739563, 0, 0, 0.9024999737739563, 0.15, -0.15)">
    <path id="ID0.5673541482537985" fill="#FFFFFF" stroke="none" stroke-linecap="round" d="M 179.250 78.500 C 193.330 76.731 207.645 78.819 221.750 79 C 236.898 79.195 252.379 77.059 267.250 80 C 270.955 80.745 268.223 77.674 268.250 88.500 C 269.004 131.784 268.987 175.209 269.250 218.500 C 269.474 255.376 269.730 292.536 269.750 329.500 C 269.757 338.740 273.400 333.823 269.250 334 C 252.668 335.671 235.934 334.147 219.250 334 C 204.276 333.862 189.407 335.521 174.250 333.500 C 170.461 332.995 173.747 336.491 173.750 327.500 C 173.762 291.534 174.143 255.464 174.250 219.500 C 174.400 174.844 172.633 130.088 174.250 85.500 C 174.671 74.346 175.836 79.125 179.250 78.500 Z " transform="matrix(0.23594936728477478, 0, 0, 0.4017241299152374, -39.9, 5.4)"/>
    <path id="ID0.3195285517722368" fill="#F0EEE0" stroke="none" d="M 220.500 233.500 L 230 233.500 L 230 334 L 220.500 334 L 220.500 233.500 Z " transform="matrix(1, 0, 0, 1, -207.5, -195.5)"/>
    <path id="ID0.09529179334640503" fill="#FFF45C" stroke="none" stroke-linecap="round" d="M 216.750 196 C 220.007 199.110 223.158 203.082 225.250 207.500 C 226.344 209.801 226.057 212.554 226 215.500 C 225.922 219.213 225.995 223.090 224.535 226.457 C 223.230 229.456 220.791 234.057 217.750 234 C 214.933 233.829 213.866 228.898 212.750 226 C 211.306 222.238 209.872 218.064 210.250 214 C 210.738 208.691 213.329 203.088 215.250 197.500 C 215.735 196.425 215.925 195.220 216.750 196 Z " transform="matrix(1, 0, 0, 1, -206, -195)"/>
    <path id="ID0.022279370576143265" fill="#FF8C33" stroke="none" stroke-linecap="round" d="M 217.750 209.750 C 218.438 209.875 217.954 215.295 218.194 217.771 C 218.375 219.606 219 221.112 219 223.250 C 219 225.388 218.402 226.902 218.194 228.729 C 218.018 230.304 218.845 233.563 218 233.500 C 216.944 233.563 215.080 230.541 214.306 228.729 C 213.584 227.036 213.500 225.388 213.500 223.250 C 213.500 221.112 213.730 219.523 214.306 217.771 C 215.156 215.172 217.062 209.875 217.750 209.750 Z " transform="matrix(1, 0, 0, 1, -206, -195)"/>
  </g>
</svg>