<?xml version="1.0" encoding="UTF-8" standalone="no"?>
<svg
   id="Layer_1"
   version="1.1"
   viewBox="0 0 260.2233 276.60043"
   sodipodi:docname="Cat.svg"
   width="260.2233"
   height="276.60043"
   xmlns:inkscape="http://www.inkscape.org/namespaces/inkscape"
   xmlns:sodipodi="http://sodipodi.sourceforge.net/DTD/sodipodi-0.dtd"
   xmlns="http://www.w3.org/2000/svg"
   xmlns:svg="http://www.w3.org/2000/svg">
  <sodipodi:namedview
     id="namedview139"
     pagecolor="#ffffff"
     bordercolor="#000000"
     borderopacity="0.25"
     inkscape:showpageshadow="2"
     inkscape:pageopacity="0.0"
     inkscape:pagecheckerboard="0"
     inkscape:deskcolor="#d1d1d1" />
  <!-- Generator: Adobe Illustrator 29.8.3, SVG Export Plug-In . SVG Version: 2.1.1 Build 3)  -->
  <defs
     id="defs4">
    <style
       id="style2">
      .st0 {
        fill: #d1812c;
      }

      .st1 {
        fill: #bf5301;
      }

      .st2 {
        fill: #f4aa5a;
      }

      .st3 {
        fill: #fef2c4;
      }

      .st4 {
        fill: #bf5302;
      }

      .st5 {
        fill: #be5200;
      }

      .st6 {
        fill: #060403;
      }

      .st7 {
        fill: #080604;
      }

      .st8 {
        fill: #d1822d;
      }

      .st9 {
        fill: #020201;
      }

      .st10 {
        fill: #be5607;
      }

      .st11 {
        fill: #e1984c;
      }

      .st12 {
        fill: #fdb25f;
      }

      .st13 {
        fill: #feb25f;
      }

      .st14 {
        fill: #be5201;
      }

      .st15 {
        fill: #c05504;
      }

      .st16 {
        fill: #f9b567;
      }

      .st17 {
        fill: #4d4031;
      }

      .st18 {
        fill: #bf5200;
      }

      .st19 {
        fill: #bf5201;
      }

      .st20 {
        fill: #020100;
      }

      .st21 {
        fill: #030201;
      }

      .st22 {
        fill: #d1822c;
      }

      .st23 {
        fill: #010000;
      }

      .st24 {
        fill: #feb260;
      }

      .st25 {
        fill: #c35a09;
      }

      .st26 {
        fill: #d2822d;
      }

      .st27 {
        fill: #d4d4d4;
      }

      .st28 {
        fill: #f6aa59;
      }

      .st29 {
        fill: #ecebeb;
      }

      .st30 {
        fill: #bc5201;
      }
    </style>
  </defs>
  <path
     d="m 248.98374,91.81656 c 2.06,0.28 7.48,2.43 9.58,3.41 1.01,0.47 1.96,-0.43 1.57,1.63 -6.81,0.76 -13.92,-0.84 -20.55,-0.75 -1.36,0.02 -7.65,0.57 -8.51,0.85 -1.34,0.44 -1.65,3.77 -2.61,4.94 7.28,1.69 14.94,2.17 21.86,5.15 l 6.22,3.49 c -10.46,0.5 -20.57,-2.91 -30.86,-4.25 -1.34,2.75 -3.72,6.08 -5.84,8.24 -5.48,5.59 -10.3,5.35 -11.94,14.7 -1.14,6.5 1.37,12.2 1.83,18.41 0.98,13.41 -2.84,24.55 -8.01,36.61 -1.36,3.18 -4.39,7 -5.31,9.81 -2.99,9.16 -0.74,42.2 3.83,50.92 2.85,5.43 9.43,6.39 8.81,14.96 -0.87,11.91 -16.86,13.94 -26.12,12.43 -1.82,-0.3 -6.2,-2.21 -7.28,-2.04 -0.55,0.09 -0.91,1.84 -1.91,2.56 -8.21,5.93 -29.63,4.97 -35.17,-4.41 -2.04,-3.45 -3.79,-12.38 -4.34,-16.54 -0.92,-6.98 0,-28.41 -5.14,-32.3 -6.74,-5.1 -30.67,1.2 -39.59,-0.38 -0.97,0.97 1.49,24.35 2.51,27.38 1.16,3.48 3.51,3.73 5.27,6.97 9.25,16.99 -22.09,19.81 -31.55,12.11 -7.31,-5.96 -5.1,-22.65 -6.83,-31.34 -0.85,5.85 -5.62,15.34 -5.77,20.81 -0.05,1.79 1.97,4.17 2.36,6.36 1.01,5.84 -0.81,12.84 -7.45,13.81 -7.79,1.14 -20.32,0.84 -27.43,-2.69 -15.5600001,-7.74 -4.04,-34.3 -1.16,-46.78 4.25,-18.42 -1.49,-30.76 -0.5,-48.74 0.65,-11.85 4.19,-24.59 7.18,-36.05 -0.05,-1.28 -5.97,-5 -7.56,-6.78 -9.0400001,-10.15 -9.5500001,-29.43 -5.91,-41.92 2.48,-8.51 14.13,-21.83 9.72,-30.29 -3.29,-6.3 -20.7500001,-4.56 -22.17000014,-16.71 -1.14,-9.79 2.22000004,-17.2 11.53000014,-20.87 24.84,-9.8 46.33,19.29 46.13,41.75 -0.16,17.87 -15.05,34.29 -12.13,53.11 0.18,1.14 3.1,8.73 3.57,9.03 2.71,1.75 12.48,-0.03 16.07,1.57 11.47,-0.11 23.75,-1.13 35.06,-3.08 8.84,-1.52 16.64,-3.74 24.32,-8.44 0.26,-0.38 -5,-7.19 -5.46,-7.22 -2.89,-0.23 -14.64,7.61 -18.29,8.68 -1.8,-2.18 11.87,-13.49 15.11,-12.97 -0.55,-0.99 -1.98,-6.17 -2.23,-6.39 -0.75,-0.66 -15,1.95 -17.54,2.11 -2.54,0.16 -5.46,0.06 -7.96,-0.03 -0.87,-0.03 -2.68,0.54 -2.51,-0.71 8.7,-2.58 17.49,-5.23 26.63,-5.77 -0.94,-1.75 -0.38,-7.62 -1.6,-8.49 -2.51,-1.79 -15.79,-1.62 -19.28,-5.55 6.06,-3.1 13.12,-1.46 19.43,-0.36 0.62,-3.46 0.79,-6.8 1.65,-10.23 1.04,-4.13 4.26,-9.77 4.79,-13.21 0.59,-3.9 -0.26,-8.81 0.05,-12.91 1.02,-13.31 6.09,-26.15 15.09,-36.0299997 4.45,-4.88 7.62,-9.24000002 14.06,-4.66 8.3,5.9099997 13.06,19.0799997 16.22,28.4199997 0.79,2.34 3.14,16.66 7.16,13.31 3.87,-14.22 10.64,-31.88 21.62,-42.0999997 7.01,-6.52 9.56,-5.47 15.83,1.47 7.3,8.0799997 14.23,23.4499997 16.26,34.1399997 0.77,4.06 0.36,11.05 1.19,13.93 0.28,0.95 1.97,2.35 2.64,3.84 3.11,6.92 5.17,14.29 5.85,21.88 0.91,0.89 19.7,-8.96 23.03,-3.24 l -22.28,7.95 c -2.19,1.61 -0.89,5.28 -2.2,7.52 5.3,0.51 11.78,-0.69 16.92,0 z"
     id="path6" />
  <path
     class="st24"
     d="m 221.98374,64.45656 c -1.93,1.07 -3.03,2.96 -3.3,5.67 -3.94,2.8 -10.99,9.61 -1.31,8.19 l 2.16,1 c 2.54,-2.89 4.56,-3.77 6.05,-2.63 0.19,1.48 1.03,4.76 0.4,5.77 -3.45,2.09 -7.5,2.87 -10.99,4.89 -1.46,0.84 -1.69,1.77 -2.37,2.3 -0.71,1.97 -3.72,6.66 -6.49,5.45 -0.99,4.78 2.05,4.88 5.07,2.02 1.9,-0.17 3.91,2.57 1.42,3.32 -0.04,0.34 -0.76,0.92 -0.58,1.68 0.45,1.93 3.92,2.21 5.62,2.65 -0.81,2.18 -2.45,3.76 -4.32,5.03 -2.57,2.79 -4.7,3.19 -6.37,1.21 -7.17,-3.32 -13.13,-3.63 -3.43,3.75 l 0.44,1.52 c -0.4,2.63 -1.75,4.87 -2.88,7.2 -1.75,3.34 -2.61,7.03 -2.57,11.07 l -1.75,0.45 -1.52,0.56 c -12.8,-9.55 -30.93,-6.31 -35.87,9.31 3.12,1.91 4.2,4.19 3.23,6.82 -2.1,2.96 -2.77,5.63 -1.99,8.02 3.76,0.69 5.28,3.69 4.56,9 2.53,3.14 4.7,8.91 2.78,12.37 -4.83,0.52 -5.19,6.3 -5.76,10.08 -0.71,3.21 -3.34,1.25 -4.83,-0.77 l -3.12,-0.88 c -0.73,4.41 -2.79,5.93 -6.18,4.55 -2.41,2.82 -4.19,0.9 -4.65,-2.18 -1.11,0.76 -1.75,1.1 -2.81,0 -0.25,-1.68 -1.5,-2.91 -3.26,-2.86 -4.44,0.12 -3.78,11.22 -3.94,14.38 -1.14,0.28 -2.53,0.06 -4.18,-0.67 -4.51,2.48 -6.09,3.02 -10.96,1.46 -8.27,4.47 -15.24,6.85 -24.98,6.17 l -3.18,-2.09 c -8.88,-0.79 -17.96,-0.05 -26.84,0.73 l -1.13,-1.28 c 0.24,-2.05 -1.22,-3.52 -4.39,-4.41 l -1.01,-1.72 c 1.59,-1.97 2.42,-3.84 2.48,-5.62 -5.66,-4.07 -5.7,-4.36 -1.71,-10.07 -4.45,-1.41 -4.81,-4.03 -1.06,-7.84 -4.56,-3.12 -3.95,-4.6 1.42,-5.98 l 0.83,-1.19 c -6.52,-3.48 -7.11,-5.96 -1.78,-7.42 2.05,-1.17 1.71,-2.94 0.35,-4.57 l -0.16,-2.08 c 2.41,-0.6 3.26,-2.47 2.53,-5.62 3.67,-2.37 3.42,-3.45 2.35,-7.27 1.75,-0.94 3.63,-1.77 5.65,-2.47 0.27,-1.89 0.84,-3.32 1.71,-4.3 2.38,-0.01 4.82,0.11 7.2,0 2.45,2.18 5.05,7.13 1.48,9.63 0.4,4.07 -0.69,6.05 -3.44,8.83 -0.08,1.86 0.04,3.74 0.36,5.66 -2.16,4.4 -2.52,5.75 0,10 -1.15,5.49 -0.33,7.21 2.94,11.3 -2.95,5.95 -3.08,8.24 2.43,12.26 0.56,3.87 1.29,5.14 3.98,7.78 5.17,5.07 -0.09,-9.4 -0.94,-10.99 -3.07,-1.4 -4.11,-3.14 -3.12,-5.24 3.97,-3.77 3.75,-4.55 2.08,-9.35 2.41,-3.18 3.21,-6.58 2.41,-10.22 1.87,-2.46 2.92,-5.36 3.16,-8.69 3.36,-1.96 4.56,-5.04 3.6,-9.26 2.72,-1.67 3.89,-3.73 3.51,-6.17 -3.58,-4.49 -2.98,-5.19 1.73,-7.69 2.92,-0.43 5.75,-0.86 8.64,-1.44 6.79,4.05 5.35,10.08 -0.93,14.03 -1.49,1.92 -1.44,4.33 0.16,7.22 -2.19,4.11 -1.04,8.11 3.45,11.99 -0.79,2.43 -1.44,4.88 -1.93,7.36 2.94,3.6 3.1,6.17 3.02,10.59 l 2.64,5.03 c -1.23,16.25 7.08,11.11 4.87,-1.75 -2.01,-3.83 -2.22,-7.02 -1.28,-11.27 -2.91,-2.81 -2.64,-6.58 0.79,-11.31 -2.65,-3.77 -2.21,-6.51 1.32,-8.23 0.72,-3.28 2.17,-6.21 4.35,-8.79 l -0.36,-6.07 c 2.95,-4.01 2.19,-5.96 -0.79,-9.59 -1.03,-1.98 -0.54,-2.99 1.26,-4.24 0.48,-0.23 0.97,-0.46 1.44,-0.72 1.6,-0.77 3.06,0.32 4.37,3.26 1.95,0.54 3.57,1.34 4.85,2.41 0.02,3.95 0.08,6.29 2.26,9.68 -1.17,4.95 -3.2,18.79 -0.09,21.75 l 4.36,2.88 c 3.44,7.33 11.45,4.69 6.38,-2.5 -4.71,-3.32 -5.91,-7.14 -3.6,-11.47 -1,-4.07 -0.94,-8.44 0.18,-13.12 l -2.08,-4.3 c 0.13,-3.54 -0.55,-6.58 -2.04,-9.13 -2.42,-0.64 -4.98,-3.46 -1.63,-3.06 4.57,0.63 6.81,-3.1 3.6,-6.48 l -0.51,-1.72 c 2.5,-2.71 9,-12.78 1.77,-5.99 -2.85,-0.26 -5.26,0.12 -7.23,1.14 -1.98,-0.89 -3.48,-1.34 -5.55,-1.36 -0.39,-0.5 -2.29,-0.78 -0.73,-1.81 2.3,-1.53 15.36,-1.98 8.65,-6.83 -2.04,-1.39 -0.43,-2.37 1.44,-2.88 0.36,-0.02 1.02,-0.68 1.44,-0.72 6.18,-2.38 6.87,-3.44 2.07,-3.18 -1.89,-0.18 -2.77,-1.13 -1.35,-2.58 0,-4.02 -7.37,-5.51 -10.49,-6.43 -2.53,-0.75 -8.28,-1.15 -9.97,-2.14 -0.72,-0.42 -0.36,-0.92 -0.42,-1.51 1.89,-2.28 4.71,-3.06 7.46,-1.42 3.03,-3.37 5.06,-3.74 6.09,-1.13 2.04,1.46 11.04,-1.47 2.43,-1.73 -1.41,-1.56 -2.14,-3.86 -2.18,-6.9 -2.81,-0.21 -3.86,-1.74 -3.14,-4.6 -4.1,-0.02 -5.97,-1 -5.61,-2.95 2.11,-6.19 0.57,-13.38 1.53,-20.43 1.25,-9.2 7.53,-25.71 15.75,-30.69 1.65,0.23 3.84,2.97 2.16,4.32 1.55,5.93 3.2,11.86 4.95,17.8 1.62,6.94 2.78,17.42 -6.71,18.45 -22.9,2.56 5.77,5.6 8.14,-4.16 l 1.55,-0.41 c 1.62,-2.17 5.66,-4.2 7.2,-2.16 0.33,1.46 1.38,4.82 1.44,5.76 l 1.31,1.45 c -3.42,5.04 -3.4,8.41 0.05,10.09 5.11,21.12 7.57,14.58 2.84,-1.71 -2.65,-1.41 -2.33,-6.4 0.12,-7.66 1.54,0.46 4.97,1.29 6.48,1.44 l 0.98,0.28 c 0.04,5.78 1.61,10.2 4.7,13.27 -0.64,-4.27 -1.38,-8.55 -2.2,-12.83 l 1.56,-0.72 c 1.62,0 4.43,0.3 5.76,0 0.32,-0.1 0.64,-0.17 0.95,-0.14 2.55,0.26 0.75,15.02 -0.21,17.31 4.55,4.48 3.69,-13.59 3.34,-15.54 -1.13,-1.69 -1.53,-3.44 -1.2,-5.23 -0.51,-0.78 -0.63,-1.4 -1.44,-2.16 -1.41,-0.61 -2.83,-1.15 -4.25,-1.62 -0.84,-1.4 6.45,-12.3 8.01,-6.11 0.43,-2.68 3.02,-7.26 4.16,-3.07 l 1.39,0.87 c -0.28,3.9 -0.14,7.76 0.41,11.58 4.47,1.86 9.69,1.75 14.38,0.72 -4.84,0.19 -9.36,-0.39 -13.57,-1.73 -0.99,-11.67 0.29,-24.59 6.44,-34.74 l -1.13,-1.19 c -2.27,-1.02 -1.06,-5.3499997 1.44,-4.3199997 6.72,5.5099997 13.98,22.2199997 15.64,30.7999997 2.08,10.77 1.93,13.32 5.96,23.92 z"
     id="path8" />
  <path
     class="st3"
     d="m 196.78374,135.01656 c 1.59,-0.44 2.79,1.24 3.6,5.04 0.48,4.61 1.44,8.07 1.44,12.96 -1.28,1.81 -1.52,3.97 -0.72,6.48 -1.34,9.03 -6.41,24.28 -12.26,31.3 -5.05,6.06 -13.62,9.92 -20.85,12.62 -1.62,-2.2 2.18,-14.99 1.92,-18.27 -0.14,-1.84 -1.55,-2.86 -1.93,-4.05 -0.74,-2.33 -1.36,-7.32 -1.87,-8.66 -0.35,-0.92 -1.9,-1.6 -2.31,-3.37 -0.47,-2.05 0.27,-4.52 -0.62,-6.54 -0.83,-1.87 -3.9,-0.19 -4.41,-3.55 -0.65,-4.2 3.06,-6.3 2.81,-9.92 -0.12,-1.69 -2.95,-1.66 -3.56,-3.76 -1.74,-5.99 12.27,-16 17.58,-16.7 5.45,-0.72 17.23,2.48 21.18,6.42 z"
     id="path10" />
  <path
     class="st24"
     d="m 43.42374,132.85656 c 0.53,0.08 3.24,1.83 4.32,2.16 2.79,1.49 2.56,4.24 -0.69,8.24 1.97,3.28 2.66,7.41 1.61,11.1 -2.45,1.51 -2.13,4.01 0.97,7.48 -2.6,3.56 -2.32,6.7 0.84,9.42 l -0.35,1.81 c -2.54,1.36 -2.67,3.45 -0.4,6.27 -1.85,2.83 -1.14,5.63 2.14,8.41 -1.92,4.85 -1.19,5.85 2.83,9.05 l 0.06,1.66 c -3,4.41 -0.58,8.18 4.59,8.53 l 0.64,1.48 c 2.13,1.78 3.09,3.46 2.88,5.04 -0.17,0.06 -2.67,1.94 -2.88,2.16 -2.45,1.08 -4.25,3.13 -5.42,6.15 -4.42,0.17 -5.06,-3.42 -4,-6.96 -2.88,6.52 -4.87,7.25 -5.97,2.19 -1.59,2.66 -4.48,3.22 -8.68,1.7 l -3.69,0.58 c -1.4,1.49 -3.34,2.61 -3.2,-0.05 1.58,-9.68 -1.55,-17.57 -2.15,-27.01 -0.8,-12.55 0.6,-23.59 3.1,-35.77 1.31,-6.38 4.02,-12.97 4.1,-19.3 -0.64,-2 0.51,-2.39 3.45,-1.17 -1.43,-4.16 3.33,-5.67 5.91,-3.15 z"
     id="path12" />
  <path
     class="st5"
     d="m 121.90374,128.53656 c -1.81,5.02 3.61,5.09 2.87,10.38 -0.25,1.8 -1.79,2.8 -1.95,3.76 -0.28,1.7 1.14,3.85 0.2,6.78 -0.55,1.71 -2.34,2.44 -2.88,3.59 -0.73,1.54 -0.29,3.1 -1.49,4.98 -1.05,1.65 -3.1,2.04 -3.21,2.2 -0.53,0.76 2.21,3.13 2.13,5.31 -0.09,2.56 -3.47,6.09 -3.37,7.28 0.06,0.68 2.26,2.06 2.57,3.76 0.31,1.7 -0.78,3.58 -0.66,5.58 0.13,2.2 1.82,4.19 2.15,6.55 0.51,3.6 0.32,14.91 -5.68,12.18 -3.64,-1.65 -1.63,-7.62 -2.21,-10.77 -0.33,-1.78 -2.29,-3.28 -2.68,-5.24 -0.42,-2.06 0.21,-4.31 -0.31,-6.17 -0.38,-1.36 -2.41,-2.12 -2.72,-4.53 -0.42,-3.27 2.27,-5.79 2.03,-7.03 -0.24,-1.24 -4.59,-3.84 -4.92,-7.38 -0.22,-2.37 1.4,-3.53 1.39,-4.97 0,-1.91 -2.16,-2.78 -1.09,-6.15 0.88,-2.76 4.14,-3.63 5.05,-5.05 0.17,-0.26 1.65,-4.4 1.64,-4.65 -0.08,-1.13 -4.23,-3 -3.4,-5.39 5.96,-1.2 11.06,-2.36 16.56,-5.04 z"
     id="path14" />
  <path
     class="st5"
     d="m 96.70374,135.01656 c 0.36,1.93 -2.69,2.45 -2.88,3.25 -0.35,1.41 5.53,3.76 1.22,9.48 -0.44,0.58 -1.92,0.82 -2.3,1.61 -0.3,0.62 0.78,3.64 0.04,5.86 -0.74,2.22 -3.05,2.33 -3.65,3.55 -0.67,1.35 -0.32,3.65 -1.01,5.46 -0.46,1.21 -1.92,2.19 -2.06,2.9 -0.18,0.94 0.71,2.76 0.41,4.77 -0.37,2.45 -2.62,3.88 -2.76,5.25 -0.18,1.79 1.65,3.04 1.36,4.85 -0.31,1.96 -4.2,5.56 -4.2,5.92 0,0.64 2.95,2.1 3.6,2.87 0.42,0.5 3.59,9.94 3.63,10.83 0.31,6.87 -6.26,1.95 -8.14,-2 -0.62,-1.3 -0.34,-2.89 -0.93,-4.11 -0.64,-1.34 -2.4,-1.69 -3.23,-2.74 -4.01,-5.07 1.09,-8.98 0.69,-10.56 -0.11,-0.45 -2.87,-1.61 -3.4,-4.54 -0.47,-2.65 0.65,-4.4 0.42,-6.15 -0.21,-1.6 -2.07,-2.83 -1.99,-5.12 0.07,-1.94 1.81,-3.82 1.99,-5.27 0.21,-1.68 -0.92,-3.17 -0.44,-5.43 0.48,-2.26 2.56,-2.93 3.1,-4.13 0.78,-1.75 0.01,-3.6 0.51,-5.25 0.3,-1.01 1.75,-1.61 1.92,-2.4 0.27,-1.3 -2.91,-4.56 -2.05,-6.74 6.46,-0.31 13.74,-1.22 20.16,-2.16 z"
     id="path16" />
  <path
     class="st5"
     d="m 69.34374,137.17656 c 1.37,5.56 -1.53,6.63 -6.48,7.21 -0.21,0.27 3.2,2.43 0.02,6.15 -0.62,0.72 -2.03,0.98 -2.11,1.11 -0.22,0.33 2.18,6.09 -2.95,5.7 4,4.37 1.57,7.54 -3.6,8.64 -0.94,1.26 8.8,2.66 5.04,6.84 -1.18,1.31 -4.27,1.07 -5.04,2.5 2.53,0.37 4.54,1.55 3.23,4.32 -0.59,1.25 -2.94,1.87 -2.52,3.6 8.69,1.47 0.4,6.99 0.72,8.28 0.32,1.29 9.92,3 2.17,10.09 0,0.65 9.11,3.18 4.31,6.12 -0.25,1.97 -0.78,2.15 -2.16,0.72 -4.54,-0.17 -8.67,-2.42 -7.89,-7.51 0.2,-1.31 1.5,-2.81 1.46,-3.6 -0.02,-0.37 -4.43,-1.89 -4.3,-5.83 0.04,-1.33 1.45,-2.49 1.27,-3.48 -0.21,-1.14 -3.44,-2.68 -3.52,-5.21 -0.05,-1.6 1.4,-2.42 1.33,-3.41 -0.08,-1.24 -2.17,-3.03 -1.92,-4.34 0.23,-1.2 2.96,-2.22 2.72,-3.61 -0.24,-1.39 -3.92,-1.86 -2.67,-6.39 0.28,-1.03 1.88,-2.33 1.83,-3.07 -0.08,-1.14 -4.21,-2.73 -2.23,-7.41 0.38,-0.89 1.69,-0.81 1.69,-1.28 0,-0.66 -0.31,-5.64 -0.4,-6.16 -0.21,-1.18 -1.72,-2.36 -1.73,-3.87 -0.02,-2.62 4.45,-4.19 2.11,-8.28 8.05,2.48 13.31,2.2 21.6,2.16 z"
     id="path18" />
  <path
     class="st5"
     d="m 136.30374,124.21656 c 0,0.11 -0.62,0.38 -0.73,0.69 6.51,0.85 5.02,6.95 5.8,11.16 0.29,1.59 1.8,2.49 2.1,4.39 0.57,3.56 -1.37,6.53 -1.3,9.34 0.04,1.5 1.2,2.74 1.13,4.19 -0.08,1.61 -1.8,3.59 -1.28,5.73 0.13,0.55 6.34,5.04 6.58,8.78 0.3,4.7 -4.07,6.62 -7.64,3.98 -1.32,-0.98 -1.76,-2.69 -2.85,-3.63 -3.35,-2.89 -6.23,-2.02 -6.2,-8.27 0.02,-3.45 0.03,-6.65 0,-10.07 -0.02,-2.44 1.68,-5.28 1.49,-7.18 -0.14,-1.38 -1.67,-2.32 -2,-3.77 -0.33,-1.45 0.09,-5.67 -0.19,-5.94 -0.17,-0.16 -2.83,-0.12 -4.45,-1.46 -1.38,-1.15 -1.61,-3.49 -3.43,-4.33 1.72,-0.97 7.26,-5.54 7.72,-5.67 1.21,-0.32 5.29,1.4 5.24,2.07 z"
     id="path20" />
  <path
     class="st3"
     d="m 133.42374,203.41656 c -0.09,1.75 0.63,9.24 -1.08,9.34 -0.42,0.03 -5.7,-2.52 -8,-2.79 -10.22,-1.2 -25.82,1.5 -36.61,2.11 -7.08,0.4 -18.39,-1.05 -24.87,1.41 l -4.32,-3.96 c -0.07,-0.17 1.14,-0.93 1.44,-1.08 0.78,-0.4 1.3,-0.55 2.16,-0.72 3.96,-0.77 25.74,-1.84 28.5,-0.78 1.39,0.53 2.16,2 3.58,2.24 0.5,0.08 8.98,0.01 10.01,-0.04 3.43,-0.2 10.27,-6.19 14.53,-6.45 2.22,-0.13 3.14,1.37 4.1,1.3 3.05,-0.23 6.1,-5.58 10.56,-0.59 z"
     id="path22" />
  <path
     class="st5"
     d="m 29.02374,219.25656 c 0.54,1.36 1.64,-0.98 2.69,-1.27 1.05,-0.29 3.86,-0.75 4.88,-0.74 1.37,0.01 5.1,1.38 5.32,1.22 0.38,-0.27 0.56,-2.83 2.59,-2.84 2.65,-0.02 0.9,3.2 2.52,3.63 1.14,-2.73 1.41,-6.79 5.05,-5.75 0.21,3.47 -2.38,5.88 2.15,7.2 0.77,-1.99 3.11,-6.55 5.78,-5.04 -4.4,4.56 -7.46,13.44 -9.36,19.44 -5.1,3.98 -8.82,4.38 -9.55,-3.57 -2.77,-1.41 -5.76,-1.71 -8.98,-0.89 -1.56,-1.6 -3.31,-2.76 -5.23,-3.46 0.57,-2.44 1.8,-5.71 2.16,-7.92 z"
     id="path24" />
  <path
     class="st5"
     d="m 140.62374,191.89656 c 5.56,-3.66 3.26,-0.52 5.4,2.87 0.95,-3.96 5.16,-1.18 5.39,-1.42 1.44,-1.51 -0.71,-7.74 6.72,-4.17 1.32,0.63 1.19,2.98 4.09,2 -0.79,5.18 -0.48,9.98 -0.72,15.12 -2.39,1.42 -4.81,2.27 -7.26,2.56 -1.43,2.99 -3.76,3.61 -6.54,1.97 -2.02,1.84 -6.96,3.06 -7.79,-0.2 0.07,-5.83 1.59,-12.89 0.72,-18.72 z"
     id="path26" />
  <path
     class="st26"
     d="m 192.46374,243.73656 c 0.56,1.75 0.41,3.37 1.55,5.3 1.72,2.92 6.83,5.42 7.15,8.73 0.19,2.02 -0.3,4.72 -2.94,4.69 0.41,-3.06 -1.19,-6.05 -3.6,-7.92 -0.96,2.35 2.01,9.17 -0.46,9.99 -3.82,1.26 -1.95,-3.39 -3.34,-6.56 -0.73,-1.67 -3.45,-4.72 -3.43,-0.9 0.01,2.41 1.26,4.96 0.75,7.55 -3.97,0.29 -7.75,-0.59 -11.01,-2.84 -1.11,-4.68 -4.05,-8.52 -5.55,-13 1,-4.28 2.01,-5.04 5.82,-2.3 2.36,-1.83 3.36,-2.18 6.01,-0.55 2.86,-3.43 3.34,-3.37 7.53,-2.77 z"
     id="path28" />
  <path
     class="st13"
     d="m 31.90374,33.49656 c 5.82,3.23 8.09,5.9 11.52,11.52 1.29,2.68 -2.17,2.35 -4.25,1.81 -0.14,2.15 -1.44,3.48 -3.32,2.22 -0.17,2.18 -0.57,4.13 -3.22,3.48 -0.83,3.28 -3.44,1.89 -4.89,-0.41 -0.11,1.15 -0.64,1.9 -1.6,2.26 -3.13,-1.98 -6.77,-2.86 -10.08,-4.32 -2.6,-2.99 -1.16,-4.94 2.21,-5.46 -4.37,-2.74 -5.04,-4.76 -2.01,-6.05 4.15,1.03 4.73,0.84 1.07,-2.03 -0.92,-4.02 11.76,-3.75 14.57,-3.01 z"
     id="path30" />
  <path
     class="st13"
     d="m 31.18374,65.89656 0.89,-3.3 c 2.6,-0.83 4.65,-2.82 5.52,-5.44 1.99,-1.47 9.32,0.68 9.38,3.93 1.59,-0.31 2.57,0.09 2.93,1.21 0.72,7.17 -1.5,12.95 -3.6,19.44 -2.54,2.8 -4.25,-0.74 -4.69,-3.24 -2.96,3.33 -4.83,3.44 -5.63,0.32 -3.97,1.03 -4.39,0.48 -5.3,-2.94 l -0.94,-1.35 c 0.75,-2.53 0.71,-6.8 1.44,-8.64 z"
     id="path32" />
  <path
     class="st13"
     d="m 20.38374,253.09656 c 2.46,-0.58 4.68,-1.91 6.63,-3.97 1.63,1.21 3.34,1.12 5.15,-0.29 2.81,2.63 6.33,4.95 9.85,7.11 1.25,-1.29 2.44,-2 3.57,-2.13 -1.41,4.83 7,14.2 -1.44,14.4 0.25,-2.83 -0.06,-5.8 -2.88,-7.2 -1.38,3.41 1.06,8.43 -3.6,7.2 0.14,-3.33 0.55,-5.89 -2.52,-7.91 -2.13,0.87 -1.56,7.89 -2.17,7.92 -10.59,-1.27 -13.68,-4.25 -12.59,-15.13 z"
     id="path34" />
  <path
     class="st5"
     d="m 139.90374,218.53656 1.51,-0.53 c 2.5,-3.93 6.96,-3.24 7.22,1.58 l 1.54,-0.28 c 1.49,-2.56 4.7,-1.81 6.25,0.44 1.79,-0.6 3.24,-0.52 4.36,0.23 0.02,3.55 0.44,8.41 0.72,12.24 -1.39,0.65 -2.7,1.72 -3.92,3.21 -2.6,-0.4 -4.97,0.13 -7.11,1.58 l -2.19,-0.04 c -2.81,3.17 -5.72,1.62 -6.94,-1.87 -0.41,-5.63 -1.37,-10.76 -1.44,-16.56 z"
     id="path36" />
  <path
     class="st12"
     d="m 142.78374,255.25656 1.5,-0.78 c 2.84,-2.45 4.95,-2.97 6.35,-1.57 1.68,-4.04 3.94,-4.18 6.78,-0.41 2.47,-4.28 4.31,-4.5 6.96,-0.12 1.46,3.99 9.24,12.8 2.16,15.12 0.17,-1.88 -0.2,-3.49 -0.89,-5.22 -0.27,-0.69 -2.1,-3.88 -3.43,-3.41 0.13,2.29 1.76,6.99 1.49,8.94 -0.05,0.36 -2.95,1.16 -3.27,1.12 -0.8,-0.1 -0.9,-5.38 -1.67,-6.98 -0.61,-1.27 -1.71,-2.12 -2.67,-3.08 -1.02,5.87 6.71,12.28 -4.69,9.01 -7.13,-2.05 -7.3,-5.91 -8.63,-12.61 z"
     id="path38" />
  <path
     class="st5"
     d="m 22.54374,243.73656 1.33,-1.07 c 0.87,-3.87 3.72,-4.28 6.72,-2.16 1.83,-2.22 4.48,-1.63 7.94,1.79 1.12,-5.91 5.57,-5.33 6.8,0.13 1.15,-0.78 1.97,-1.33 3.12,-0.13 -1.09,3.68 -1.27,7.97 -2.88,11.52 -2.52,5.55 -4.03,3.72 -7.87,1.05 -1.6,-1.11 -2.72,-1.81 -4.36,-2.88 -0.66,-0.43 -0.62,-1.61 -0.77,-1.73 -0.78,-0.59 -2.18,1.44 -3.19,1.42 -1.01,-0.02 -1.86,-1.35 -2.17,-1.36 -0.59,0 -3.41,5.86 -6.83,2.78 0.26,-2.64 1.54,-6.55 2.16,-9.36 z"
     id="path40" />
  <path
     class="st5"
     d="m 169.42374,232.21656 c 0.77,-3.08 7.47,-3.64 8.97,-0.25 1.63,-0.86 3.52,-0.75 4.7,0.8 2.57,-2.39 5.55,-1.77 6.49,1.61 0.52,2.85 1.97,6.53 2.88,9.36 -2.29,2.5 -5.49,-0.19 -5.74,0 -0.1,0.07 -0.3,1.4 -1.04,2.19 -2.9,3.12 -3.9,0.22 -5.11,0.2 -0.7,-0.01 -1.86,1.93 -3.48,1.78 -1.15,-0.1 -3.03,-2.25 -3.34,-2.01 -0.34,0.26 0.04,3.51 -2.17,2.88 -1.88,-5.63 -2.12,-10.71 -2.16,-16.56 z"
     id="path42" />
  <path
     class="st13"
     d="m 26.86374,227.17656 c 4.84,-1.78 3.31,1.45 5.55,2.07 1.52,0.42 3.16,-0.86 4.83,-0.63 0.24,0.03 4.33,1.52 4.53,1.65 2.16,1.4 -0.07,5.32 2.87,6.16 3.4,0.97 2.06,-3.28 5.98,-1.33 -0.74,2.36 -1.46,4.83 -2.16,7.2 l -5.03,2.88 c 1.12,-6.3 -3.12,-8.29 -3.61,-1.43 -3.14,0.98 -5.49,-3.44 -6.18,-3.59 -1.2,-0.26 -2.21,2.03 -2.81,2.03 -1.79,0 -4.57,-5.35 -6.86,3.71 l -1.43,-2.15 c 1.24,-5.6 3.02,-10.99 4.32,-16.56 z"
     id="path44" />
  <path
     class="st5"
     d="m 29.74374,74.53656 c 3.83,-0.66 2.38,2.88 2.89,3.6 0.2,0.29 5.25,-2.98 5.04,2.15 0.5,0.39 3.61,-5.93 5.37,-2.11 0.99,2.15 -0.54,2.92 3.26,3.55 -1.1,3.42 -2.49,6.68 -3.6,10.08 -1.38,3.15 -3.13,3.33 -5.86,1.52 -1.86,2.07 -4.83,1.78 -6.32,-0.59 -4.37,3.7 -6.6,0.69 -7.98,-3.81 2.22,-4.84 5.66,-9.2 7.2,-14.4 z"
     id="path46" />
  <path
     class="st5"
     d="m 18.94374,101.89656 c 1.79,0.21 3.02,0.32 5.16,0.19 l 5.3,2.43 c 2.05,-0.56 3.78,-0.4 5.18,0.49 1.5,-1.45 3.4,-2.53 4.52,-0.23 -0.81,4.14 -1.6,6.25 -1.44,10.8 -0.03,2.84 -0.96,3.38 -3.68,2.67 -0.92,3.29 -3.62,4.67 -6.52,2.54 -2.03,1.55 -5.27,1.61 -7.08,-0.17 -2.49,-7.77 -2.46,-10.7 -1.44,-18.72 z"
     id="path48" />
  <path
     class="st13"
     d="m 22.54374,88.93656 c 3.39,-0.72 1.47,1.71 2.87,3.26 1.75,1.95 4.9,-0.25 5.06,-2.54 1.48,0.36 0.48,2.98 2.65,3.5 2.96,0.7 2.93,-1.94 3.11,-2.06 0.31,-0.2 3.28,3.94 6.47,0.71 -1.56,4.77 -2.61,7.94 -3.6,12.96 -2.83,-0.25 -3.35,1.25 -5.03,2.88 -0.4,-3.64 -2.78,-1.44 -4.57,-1.67 -2.9,-0.37 -5.94,-4.75 -9.12,-1.21 l -1.45,-2.88 c 0.71,-5.58 1.25,-7.84 3.6,-12.96 z"
     id="path50" />
  <path
     class="st5"
     d="m 200.38374,9.7365603 c -1.48,0.9499997 -0.98,3.3699997 -1.44,4.3199997 l 0.58,2.08 c -3.52,6.47 -6.27,13.44 -6.92,20.83 l -1.58,1.57 c -2.5,-2.13 -1.98,4.57 -3.97,5.04 -1.99,0.47 -1.14,-2.95 -2.5,-2.87 -0.39,1.04 -5.21,6.43 -4.33,7.18 0.13,0.11 1.31,-0.03 2.89,1.45 -1.36,-1.11 -6,0.22 -5.75,-1.78 0.42,-3.3 4.77,-13.92 6.35,-17.43 1.69,-3.75 11.95,-21.8299997 15.64,-21.6799997 0.62,0.03 0.79,1.07 1.05,1.29 z"
     id="path52" />
  <path
     class="st19"
     d="m 43.42374,45.01656 c 2.98,4.87 5.91,11.55 6.48,17.28 -5.5,1.03 -3.69,-1.24 -5.24,-2.68 -0.6,-0.56 -6.04,-1.86 -6.25,-1.62 -0.13,0.15 0.07,1.39 -0.45,2.09 -0.45,0.6 -1.48,0.55 -1.75,1.33 -0.24,0.67 0.21,2.04 0,2.33 -0.23,0.33 -2.23,-0.78 -2.91,-0.38 -0.14,0.08 -2.07,2.38 -2.13,2.53 1.17,-4.15 -4.6,-9.62 -5.04,-11.52 -0.27,-1.18 0.19,-3.01 0,-4.32 2.59,-0.23 3.29,2.43 5.03,3.6 -0.25,-4.3 2.74,-1.95 2.88,-2.15 0.63,-0.92 -1.16,-6.86 3.6,-2.88 -0.14,-6.77 3.06,-0.85 5.77,-3.6 z"
     id="path54" />
  <path
     class="st8"
     d="m 84.46374,244.45656 c 0.43,2.16 1.64,7.2 2.86,8.83 1.75,2.35 8.61,4.95 2.54,8.44 -0.49,-2.64 -1.32,-5.2 -3.95,-6.47 -1,0.36 0.82,9.48 -1.44,7.2 -0.67,-0.68 -1.26,-6.71 -4.32,-7.2 -0.82,2.9 -0.71,5.02 -0.01,7.92 -7.78,-0.65 -13.4,-0.71 -12.96,-10.08 -0.75,-3.92 0,-5.3 2.23,-4.17 1.45,2.73 2.99,1.78 4.63,-2.87 3.57,-0.28 7.04,-0.82 10.42,-1.61 z"
     id="path56" />
  <path
     class="st5"
     d="m 175.90374,208.45656 1.35,0.27 c 3.27,-2.29 9.68,-1.11 10.89,2.61 -0.05,3.26 -0.19,6.86 0,10.08 -4.13,1.09 -8.45,1.76 -12.95,2.01 -1.14,1.66 -2.47,2.12 -4.4,2.23 0.4,1.7 -0.06,2.69 -1.37,2.96 -1.19,-0.75 -0.72,-2.73 -0.73,-3.95 -0.03,-2.63 -0.49,-10.28 0.13,-12.13 0.52,-1.54 5.42,-3.28 7.08,-4.08 z"
     id="path58" />
  <path
     class="st5"
     d="m 124.06374,63.01656 c 1.85,2.43 4.7,0 6.49,1.78 1.79,1.78 -0.2,3.82 -0.01,3.97 0.29,0.23 2.21,-0.46 3.26,0.71 1.36,1.53 0.83,6.26 1.07,6.49 0.24,0.23 5.73,-0.01 5.75,2.52 0.01,1.69 -10.17,4.89 -9.7,-0.36 -1.52,1.2 -2.87,3.91 -5,3.62 -0.92,-0.12 -1.71,-1.19 -2.2,-1.2 -0.56,-0.01 -3.01,2.07 -4.68,1.18 -0.7,-7.13 2.95,-12.59 5.04,-18.72 z"
     id="path60" />
  <path
     class="st13"
     d="m 161.50374,206.29656 c -0.22,4.67 -0.75,8.92 -0.72,13.68 -0.82,0.98 -2.33,0.65 -3.3,1.38 -0.89,0.67 -0.56,2.32 -1.73,2.22 0.37,-2.58 -1.07,-4.92 -3.87,-4.33 -0.49,0.1 -0.39,1.31 -0.95,1.44 -5.32,1.29 -3.17,-1.45 -4.15,-2.89 -1.75,-2.57 -4.66,0.65 -4.73,2.9 l -2.15,-2.16 c -0.03,-2.63 -0.03,-5.29 0,-7.92 1.71,0.74 4.36,0.68 5.99,-0.15 1.32,-0.67 1.13,-1.94 1.22,-2.01 0.38,-0.31 2.05,2.19 3.64,1.84 2.46,-0.54 1.91,-3.08 2.12,-3.28 0.24,-0.23 1.58,0.64 2.36,0.5 1.05,-0.2 3.14,-1.55 4.46,-1.96 1.62,-0.5 0.58,-1.22 1.79,0.74 z"
     id="path62" />
  <path
     class="st14"
     d="m 31.90374,33.49656 c -4.57,1.8 -9.25,0.61 -13.68,2.17 0.64,1.9 3.56,0.26 2.89,3.21 -0.75,3.31 -3.37,0.81 -5.78,1.1 0.54,1.91 4.35,2.6 4.35,4.66 0,2.49 -3.1,1.45 -3.64,1.81 -0.15,0.1 1.04,2.62 0.01,3.6 -5.27,-2.32 -9.2800001,-2.4 -8.4700001,-9.52 1.05,-9.14 10.9900001,-11.04 18.7300001,-9.75 2.46,0.41 3.68,1.66 5.57,2.71 z"
     id="path64" />
  <path
     class="st26"
     d="m 188.14374,221.41656 c 0.22,3.74 0.77,9.29 1.44,12.96 -1.32,-1.18 -3.44,-2.18 -5.08,-1.09 -0.61,0.4 -0.56,1.7 -0.69,1.8 -1.44,1.17 -1.54,-1.43 -2.1,-1.81 -2.13,-1.45 -4.08,1.34 -4.35,1.1 -0.11,-0.09 -0.22,-2 -0.9,-2.71 -1.43,-1.48 -5.03,0.36 -7.03,0.55 0,-1.19 -0.05,-2.41 0,-3.6 0.04,-0.93 -0.2,-4.05 0.03,-4.29 0.12,-0.12 2.45,-0.11 3.42,-0.52 0.88,-0.37 0.74,-1.57 1.36,-1.68 2.21,-0.41 6.01,-0.58 8.35,-0.87 1.99,-0.24 2.54,-1.71 5.55,0.16 z"
     id="path66" />
  <path
     class="st19"
     d="m 141.34374,243.73656 c 0.36,-3.68 3.19,-4.36 5.15,-1.01 1.42,-0.67 2.91,-0.49 4.46,0.53 2,-1.41 4.19,-1.36 5.73,0.62 1.29,-2.7 4.53,-4.76 5.55,-0.86 0.36,2.6 1.26,6.9 2.16,9.36 l -4.31,-2.16 c -0.46,5.16 -4.9,4.7 -6.12,0 -3.24,7.03 -4.24,2.85 -5.77,2.89 -0.54,0.01 -1.89,4.67 -5.4,2.15 -0.72,-3.67 -1.07,-7.77 -1.44,-11.52 z"
     id="path68" />
  <path
     class="st5"
     d="m 65.74374,238.69656 c 0.15,-4.72 4.52,-6.76 7.22,-2.38 2.15,-0.8 3.79,-0.3 5.02,1.69 2.9,-0.55 4.82,-0.08 5.76,1.41 0.2,1.57 0.42,3.53 0.72,5.04 -1.33,3.96 -8.62,1.83 -10,2.96 -0.58,0.48 -0.06,5.78 -4.68,4.16 -1.05,-0.37 -2.28,-5.19 -2.6,1.52 -1.39,-4.52 -1.17,-9.76 -1.44,-14.4 z"
     id="path70" />
  <path
     class="st13"
     d="m 161.50374,232.21656 c 0.26,3.57 0.22,7.25 0.72,10.8 -3.94,-3.08 -4.77,4.32 -5.4,4.33 -1.63,-4.54 -3.46,-4.65 -6.82,-1.45 -0.65,-3.3 -2.85,-2.75 -3.98,0 -0.86,0 -0.1,-5.03 -3.24,-3.61 l -1.44,1.44 c -0.27,-2.75 0.2,-5.84 0,-8.64 1.56,-0.4 1.37,1.25 2.33,1.67 3.83,1.69 3.62,-2.02 4.16,-2.39 0.42,-0.29 1.6,2.69 4.29,0.31 0.7,-0.62 0.68,-1.69 0.75,-1.75 0.36,-0.28 5.34,4.75 5.75,-2.88 l 2.87,2.16 z"
     id="path72" />
  <path
     class="st13"
     d="m 40.54374,127.81656 c -2.18,3.15 -7.9,6.3 -9.96,1.09 3.05,5.13 1.94,6.77 -3,2.51 -5.22,-3.13 -5.46,-5.38 -7.2,-10.8 1.45,-1.05 2.86,0.08 4.5,-0.11 0.83,-0.1 1.7,-1.15 2.46,-1.21 0.97,-0.08 1.45,1.31 3.15,1.05 2.4,-0.37 1.77,-3.67 2.14,-4.05 0.19,-0.2 4.14,2.29 5.03,-0.72 0.15,4.28 1.25,8.34 2.88,12.24 z"
     id="path74" />
  <path
     class="st22"
     d="m 65.02374,228.61656 c -1.08,-5.99 2.64,-4.57 3.62,0.39 2.68,-1.67 4.49,-1.58 5.44,0.28 0.9,-2.37 2.83,-3.06 5.78,-2.07 0.95,-2.08 2,-2.57 3.16,-1.48 0.1,4.6 0.15,9.11 0.72,13.68 l -6.7,0.04 c -1.67,-3.57 -2.73,-1.46 -4.51,-1.69 -1.26,-0.16 -2.02,-6.04 -6.78,0.93 -0.2,-3.39 -1.08,-6.37 -0.72,-10.08 z"
     id="path76" />
  <path
     class="st5"
     d="m 65.02374,228.61656 c -2.05,-2.76 -0.67,-8.64 3.24,-8.64 h 14.76 c 0.03,1.91 -0.04,3.85 0,5.76 -1.28,0.43 -1.51,2.41 -2.64,2.8 -1.55,0.53 -3.61,-0.69 -3.76,-0.58 -0.64,0.45 -2.49,6.25 -4.41,0.66 -3.69,3.25 -5.88,2.02 -5.75,-2.88 -1.54,0.38 -1.32,1.7 -1.43,2.88 z"
     id="path78" />
  <path
     class="st14"
     d="m 158.62374,45.73656 c -1.48,-0.57 -1.38,1.47 -1.89,1.49 -0.79,0.04 -1.49,-0.6 -2.11,-0.69 -0.17,-0.03 -0.91,2.45 -3.21,1.36 l -1.34,-0.98 c -0.22,-9.29 -1.44,-21.47 -6.76,-29.16 -0.33,-0.48 -0.15,-1.05 0.19,-1.54 -0.84,-1.25 -1.37,-2.99 -2.16,-4.32 0.66,-0.4 0.16,-1.22 1.82,-0.05 7.02,4.96 13.55,25.46 15.46,33.89 z"
     id="path80" />
  <path
     class="st18"
     d="m 221.98374,64.45656 c 1.67,4.41 2.96,7.37 3.6,12.24 -2.09,0.29 -4.39,4.11 -6.12,4.07 -0.74,-0.01 -1.71,-1.04 -2.92,-1.16 -1.69,-0.16 -4.19,1.64 -5.05,-1.41 -1.17,-4.18 0.66,-3.17 1.6,-4.63 2.46,-3.86 3.52,-3.16 4.42,-4.23 0.69,-0.83 0.28,-6.78 4.47,-4.89 z"
     id="path82" />
  <path
     class="st1"
     d="m 164.38374,53.65656 c 0.24,3.5 -1.97,4.7 1.13,7.13 -0.17,4.05 4.68,13.17 2.51,16.33 -1.27,1.85 -3.83,-0.52 -4.66,-1.9 -1.63,-2.73 -2.11,-9.7 -3.45,-12.03 -0.3,-0.52 -2.19,-0.59 -2.63,-2.11 -0.83,-2.89 2.98,-6.54 2.79,-9.57 1.41,1.19 2.58,1.64 4.32,2.16 z"
     id="path84" />
  <path
     class="st14"
     d="m 212.62374,89.65656 c 0.21,1.68 2.48,1.16 2.88,1.44 2.5,-0.12 5.13,-0.61 7.89,-1.48 l 1.47,0.76 c -0.21,0.73 -0.38,2.37 -0.87,2.73 -1.51,1.08 -10.13,0.66 -10.61,3.47 -0.7,4.15 7.88,1.18 8.6,1.73 -1.32,5.4 -5.75,-0.12 -9.36,2.15 0.08,-0.7 -0.04,-1.45 0,-2.16 -0.87,-0.93 -3.54,4.11 -6.9,1.5 -2.01,-1.55 -0.75,-4.81 -1.74,-6.9 1.35,-1.06 2.16,1.39 3.91,1.12 0.21,-0.03 1.67,-2.57 2.55,-3.35 0.84,-0.74 1.87,-0.77 2.18,-1.02 z"
     id="path86" />
  <path
     class="st4"
     d="m 181.66374,55.09656 c 1.16,-0.27 2.9,-2.29 2.88,-3.6 4.22,6.55 3.1,7.16 2.41,14.14 -0.11,1.14 0.57,2.37 0.34,4.02 -0.52,3.78 -3.33,7.32 -6.19,2.99 l 1.67,-12.16 z"
     id="path88" />
  <path
     class="st1"
     d="m 139.90374,117.73656 c -2.72,-2.86 -7.92,-3.32 -11.52,-7.92 2.54,-3.06 4.37,0.08 6.1,0.04 0.36,0 0.31,-1.38 0.85,-1.5 1.65,-0.38 3.5,0.95 4.79,0.63 0.66,-0.16 5.97,-5.28 6.25,-4.93 -0.02,6.48 -2.95,8.93 -6.47,13.68 z"
     id="path90" />
  <path
     class="st4"
     d="m 40.54374,127.81656 c 0.75,1.79 1.77,3.45 2.88,5.04 -0.38,-0.06 -4.85,0.56 -5.04,0.73 -0.17,0.15 1.82,2.91 -0.71,4 -0.74,0.32 -1.77,-0.71 -2.63,-0.92 -0.46,-0.12 -0.93,0.53 -0.98,0.52 -0.42,-0.12 -5.66,-4.85 -6.48,-5.76 1.08,0.65 2.52,0.95 3.59,2.16 0.55,-0.65 -4.25,-5.78 -1.06,-6.48 1.69,-0.37 2.73,3.42 3.57,3.49 1.06,0.09 5.02,-3.18 6.86,-2.77 z"
     id="path92" />
  <path
     class="st4"
     d="m 213.34374,109.81656 c -0.81,1.94 -7.87,6.48 -9.36,6.48 -2.93,0 -8.02,-6.17 -7.2,-9.36 4.61,0.98 10.21,0.91 13.32,5.03 0.69,-1.52 2.47,-1.63 3.24,-2.15 z"
     id="path94" />
  <path
     class="st4"
     d="m 175.90374,55.09656 c -0.88,4.14 2.05,8.08 2.19,11.92 0.11,3.25 -1.05,4 -3.59,2.09 -3.31,-2.48 -3.42,-10.2 -3.63,-14.01 1.56,0.16 3.42,0 5.04,0 z"
     id="path96" />
  <path
     class="st30"
     d="m 137.74374,98.29656 -1.44,2.88 c -2.66,-0.47 -10.76,3.3 -12.49,2.81 -1.49,-0.42 -1.85,-3.66 -2.63,-4.96 5.49,-0.81 11.07,-0.4 16.56,-0.73 z"
     id="path98" />
  <path
     class="st0"
     d="m 188.14374,211.33656 c -1.76,-1.01 -5.89,-2.45 -7.73,-2.76 -1.96,-0.33 -4.79,3.09 -4.51,-0.12 4.47,-2.14 9.28,-3.64 12.95,-7.2 -0.66,3.39 -0.66,6.65 -0.71,10.08 z"
     id="path100" />
  <path
     class="st28"
     d="m 136.30374,92.53656 c 1.76,1.14 1.27,1.57 -0.72,1.44 -1.08,-0.13 -2.46,-0.02 -3.6,0 -1.59,-0.62 -8.1,-0.12 -8.48,0.14 l -1.6,0.58 c -0.58,-0.05 -1.89,0.2 -2.11,-0.04 -0.22,-0.24 -0.7,-4.8 -0.76,-5.72 5.92,0.38 11.46,2.76 17.28,3.6 z"
     id="path102" />
  <path
     class="st10"
     d="m 139.18374,97.57656 c 0.69,-2.98 -0.78,-3.27 -3.6,-3.6 l 0.72,-1.44 c 2.77,0.4 3.41,-0.78 3.6,-0.72 0.09,0.03 0.28,1.05 1.02,1.14 1.23,0.15 4.75,-1.22 4.76,2.1 0,2.07 -3.11,2.88 -4.73,3.13 -0.72,0.11 -1.57,-0.63 -1.78,-0.61 z"
     id="path104" />
  <path
     class="st15"
     d="m 200.38374,140.05656 c -1.57,-1.22 -2.31,-3.76 -3.6,-5.04 1.33,-2.78 1.19,-6.01 2.31,-8.85 0.65,-1.65 1.86,-2.35 2.01,-2.67 -1.98,5.96 -1.34,10.56 -0.72,16.56 z"
     id="path106" />
  <path
     class="st2"
     d="m 215.50374,91.09656 c 2.78,-0.66 6.38,-3.17 9,-3.61 1.98,-0.33 0.66,1.84 0.36,2.89 -2.81,2.3 -7.06,-0.67 -7.93,3.6 -1.38,0.1 -1.09,-2.64 -1.43,-2.88 z"
     id="path108" />
  <path
     class="st25"
     d="m 131.98374,93.97656 c -3.25,0.06 -6.34,1.03 -10.08,0.72 0.68,-4.46 3.67,-1.02 4.82,-0.84 1.06,0.17 3.33,-2.98 5.26,0.12 z"
     id="path110" />
  <path
     class="st16"
     d="m 201.10374,159.49656 c -1.32,-2.39 -2.86,-6 0.72,-6.48 0,2.8 -0.37,4.1 -0.72,6.48 z"
     id="path112" />
  <path
     class="st5"
     d="m 183.82374,84.61656 c 3.71,0.11 6.17,1.23 8.62,3.98 1.76,1.98 1.06,3.11 3.62,3.94 0.65,1.48 -0.49,7 -1.35,8.49 -5.7,9.84 -11.22,3.47 -16.03,-2.79 -5.91,10.08 -19.23,13.92 -21.11,-1.15 -1.28,-1.17 -1.41,-2.21 -0.39,-3.11 -0.77,-3.96 1.94,-8.4 5.74,-9.74 3.29,-1.17 2.48,0.43 5.78,-2.5 l 1.51,0.29 c 3.2,5.78 7.95,10.43 11.86,2.53 z"
     id="path114" />
  <path
     class="st23"
     d="m 196.06374,92.53656 c 2.67,0.87 3.52,0.03 3.67,3.95 0.3,7.68 -6.57,14.84 -14.47,13.33 -1.77,2.04 -5.21,-1.01 -6.39,-2.88 -1.87,2.38 -3.3,3.08 -5.9,4.34 -1.58,0.76 -5.79,2.02 -6.43,-0.01 -6.86,0.31 -12.2,-4.44 -12.88,-11.24 -0.3,-3.03 -0.53,-6.14 3.52,-6.04 0.14,0.72 1.51,1.81 1.83,2.85 1.28,4.18 0.64,8.72 7.16,8.74 8.38,0.03 9.23,-8.45 12.28,-8.74 3.98,-0.37 5.03,11.05 12.52,6.82 3.65,-2.06 2.64,-8.08 5.09,-11.1 z"
     id="path116" />
  <path
     class="st9"
     d="m 198.94374,14.05656 c 5.92,-1.63 0.92,3.74 0.16,5.56 -3.71,8.89 -4.63,20.14 -4.44,29.69 5.44,1.52 11.3,-0.29 16.52,1.83 -2.9,3.73 -16.84,3.3 -19.46,0.74 -1.12,-1.1 -0.87,-11.05 -0.7,-13.34 0.79,-10.57 3.58,-15.59 7.92,-24.48 z"
     id="path118" />
  <path
     class="st21"
     d="m 151.42374,47.89656 c -0.82,5.94 -10.29,8.89 -15.49,8.71 -2.61,-0.09 -7.94,-1.64 -3.75,-3.82 4.19,-2.18 10.04,-0.4 14.17,-3.83 2.93,-2.43 1.18,-11.79 0.51,-15.59 -0.91,-5.18 -3.51,-9.93 -4.33,-14.44 -0.24,-1.31 -0.3,-1.92 0.96,-2.71 0.35,0.52 1.5,0.91 2.3,2.37 3.33,6.03 6.54,22.62 5.62,29.31 z"
     id="path120" />
  <path
     class="st5"
     d="m 166.54374,111.25656 c 1.88,-0.09 6.5,-1.3 8.17,-2.27 1.86,-1.08 3.7,-5.03 4.78,-4.21 0.14,0.1 0.51,1.87 1.79,2.9 0.48,0.38 3.6,2.06 3.99,2.14 -2.95,5.24 -5.16,10.89 -12.45,9.21 -2.5,-0.58 -6.57,-4.88 -6.27,-7.77 z"
     id="path122" />
  <path
     class="st20"
     d="m 183.82374,84.61656 c -0.21,0.37 -4.03,5.22 -4.32,5.4 -3.4,2.09 -10.48,-4.74 -10.8,-8.28 0.42,-0.37 0.51,-1.23 1.46,-1.75 2.78,-1.53 16.99,-1.2 13.66,4.63 z"
     id="path124" />
  <path
     class="st6"
     d="m 148.54374,70.21656 c 1.05,-0.62 1.53,0.1 1.44,2.16 0.73,-0.45 1.45,-1.17 2.16,-2.16 0.12,0.02 0.29,-1 1.78,-0.08 2.66,1.64 3.69,5.35 1.08,7.61 -4.82,4.18 -12.32,-3.71 -6.46,-7.53 z"
     id="path126" />
  <path
     class="st7"
     d="m 196.06374,70.21656 c 1.31,-0.23 2.51,-0.71 3.6,-1.44 9.72,3.74 -2.74,13.14 -5.95,6.3 -1.24,-2.65 0.31,-3.84 0.92,-6.3 0.97,-0.23 0.83,1 1.43,1.43 z"
     id="path128" />
  <path
     class="st29"
     d="m 199.66374,68.77656 v 2.88 c -1.86,0.4 -2.47,-0.62 -3.6,-1.44 -0.53,-3.22 1.16,-2.38 3.6,-1.44 z"
     id="path130" />
  <path
     class="st27"
     d="m 152.14374,70.21656 c 0.07,1.97 -0.52,3.65 -2.16,2.16 -0.47,-1.28 -0.8,-2.42 0.72,-2.88 0.26,-0.02 0.99,0.63 1.44,0.72 z"
     id="path132" />
  <path
     class="st17"
     d="m 150.70374,69.49656 -0.72,2.88 c -0.59,-0.54 -0.86,-1.55 -1.44,-2.16 1.05,-0.69 0.85,-0.61 2.16,-0.72 z"
     id="path134" />
  <path
     class="st11"
     d="m 178.06374,84.62656 c 1.49,1.85 -2.3,1.82 -2.88,-0.72 0.53,-0.06 2.78,0.61 2.88,0.72 z"
     id="path136" />
</svg>
