<?xml version="1.0" encoding="UTF-8" standalone="no"?>
<svg
   version="1.1"
   width="198.18929"
   height="18.618673"
   viewBox="-1 -1 198.18929 18.618673"
   id="svg5"
   sodipodi:docname="cloud-c.svg"
   xmlns:inkscape="http://www.inkscape.org/namespaces/inkscape"
   xmlns:sodipodi="http://sodipodi.sourceforge.net/DTD/sodipodi-0.dtd"
   xmlns="http://www.w3.org/2000/svg"
   xmlns:svg="http://www.w3.org/2000/svg">
  <defs
     id="defs9" />
  <sodipodi:namedview
     id="namedview7"
     pagecolor="#ffffff"
     bordercolor="#000000"
     borderopacity="0.25"
     inkscape:showpageshadow="2"
     inkscape:pageopacity="0.0"
     inkscape:pagecheckerboard="0"
     inkscape:deskcolor="#d1d1d1" />
  <!-- Exported by Scratch - http://scratch.mit.edu/ -->
  <g
     id="ID0.5555598153732717"
     transform="matrix(1.7103393,0,0,1.7103393,-54.592562,-302.69459)">
    <path
       id="ID0.9825037522241473"
       fill="#ffffff"
       stroke="#e3deee"
       d="m 598.5,734.9 c 10.1,0 227.9,0 248.4,0 20.5,0 58.4,-2.5 57.1,-10.1 -1.1,-6.2 -35.5,-3.3 -36.3,-3.6 -2,-0.7 -5.1,-7.3 -31.2,-8.6 -24.4,-1.2 -56.2,6.2 -62.5,7.4 -12.5,-2.7 -37.5,-13.2 -60.7,-14.3 -25.7,-1.2 -49.4,4.3 -54.4,9.8 -2.7,3 0,5.6 -0.2,7.1 -0.2,1.2 -10.9,4.5 -24.2,6 -15.4,-0.9 -44.7,-12.8 -51.9,-6 -3.3,3.2 3.7,12.3 15.9,12.3 z"
       transform="matrix(0.35848591,0,0,0.35848591,-177.05,-76.35)" />
    <path
       id="ID0.10603649541735649"
       fill="#e3deee"
       d="m 774.6,723.2 c -15.3,-4.5 -35.2,-13.1 -59.1,-15 -23.9,-1.9 -43.8,3 -51.1,6.1 -3.1,1.3 -4.9,2.9 -5.5,4.1 -0.9,1.8 0.2,3.5 -0.3,4.3 -0.2,1.2 -10.9,4.5 -24.2,6 -12.9,2.3 -27,4.5 -35,4.3 -8,-0.1 -12.7,-3 -15,-6.2 -2.2,-3.3 -0.1,-5.2 3.7,-6.1 -2.4,0.2 -4.4,0.8 -5.6,2 -3.3,3.1 3.7,12.3 15.9,12.3 10.1,0 227.9,0 248.4,0 4.7,0 10.2,-0.1 16.1,-0.4 -38.9,0.3 -72.9,-7 -88.3,-11.4 z"
       transform="matrix(0.35848591,0,0,0.35848591,-177.05,-76.35)" />
  </g>
</svg>
