<?xml version="1.0" encoding="UTF-8" standalone="no"?>
<svg
   version="1.1"
   id="Layer_1"
   x="0px"
   y="0px"
   width="140.99805"
   height="46.464092"
   viewBox="0 0 140.99805 46.464092"
   enable-background="new 0 0 150 150"
   xml:space="preserve"
   sodipodi:docname="convertible3.svg"
   xmlns:inkscape="http://www.inkscape.org/namespaces/inkscape"
   xmlns:sodipodi="http://sodipodi.sourceforge.net/DTD/sodipodi-0.dtd"
   xmlns="http://www.w3.org/2000/svg"
   xmlns:svg="http://www.w3.org/2000/svg"><defs
   id="defs71" /><sodipodi:namedview
   id="namedview69"
   pagecolor="#ffffff"
   bordercolor="#000000"
   borderopacity="0.25"
   inkscape:showpageshadow="2"
   inkscape:pageopacity="0.0"
   inkscape:pagecheckerboard="0"
   inkscape:deskcolor="#d1d1d1" />
  <g
   id="g66"
   transform="translate(-4.0032061,-71.997956)">
    <path
   fill="#007b00"
   d="m 35.463,108.984 c 23.826,-5.019 61.596,-3.998 67.816,0 1.218,0.783 -0.452,2.084 -0.604,3.4 -0.148,1.361 0.15,2.766 -1.203,3.402 -2.459,1.191 -4.363,-0.766 -7.223,-1.021 -6.521,-0.638 -10.133,-1.274 -16.652,-1.531 -15.199,-0.594 -23.727,-1.443 -38.924,0.682 z"
   id="path2" />
    <path
   fill="#1ccc42"
   d="m 17.106,106.688 c -3.812,-1.189 -7.875,0.979 -11.537,-2.125 -3.06,-2.594 -0.201,-8.761 4.113,-9.016 -0.552,-5.697 0.2,-11.013 6.821,-12.162 7.825,-1.361 14.797,0 22.772,0.936 14.797,1.787 20.113,0 34.911,0 0,-4.295 1.103,-11.651 1.103,-11.651 0,0 12.841,8.846 13.342,11.65 0.352,1.963 13.442,-2.041 18.86,-2.041 9.079,0 14.495,0.511 22.37,4.423 3.712,1.827 4.766,3.358 7.123,6.464 2.007,2.636 1.154,6.208 4.814,6.208 3.713,7.653 -4.814,9.228 -11.234,10.205 -6.371,0.979 -3.461,-8.589 -9.229,-11.142 -7.224,-3.23 -13.394,-2.764 -19.16,2.127 -3.661,3.104 -3.411,7.144 -4.014,11.396 -21.567,-2.892 -37.468,-1.955 -53.67,-1.955 -0.602,-2.638 -1.053,-3.828 -2.006,-6.464 -1.605,-4.338 -4.965,-6.721 -10.232,-7.4 -7.674,-1.019 -15.147,3.957 -15.147,10.547 z"
   id="path4" />
    <path
   fill="#272525"
   d="m 89.789,83.605 c 6.746,-0.797 23.105,-3.242 31.383,-1.549 11.493,2.351 14.999,7.572 19.531,16.23 1.318,-0.133 2.486,-0.11 3.253,0.939 1.369,1.871 1.513,5.541 -0.289,7.295 -2.554,2.48 -12.685,3.363 -16.528,3.984 -0.723,-1.531 -1.81,-10.102 -8.914,-12.382 -4.442,-1.426 -10.056,-0.116 -13.649,2.321 -4.665,3.166 -4.875,7.4 -5.271,12.064 -2.89,0.119 -6.01,-0.771 -8.908,-1.05 -15.642,-1.498 -31.389,-1.469 -47.105,-0.651 0.278,-2.014 -0.824,-8.147 -4.772,-11.535 -4.997,-4.289 -18.631,-1.682 -20.407,4.268 -0.466,1.557 -0.255,2.499 -0.301,4.082 -2.658,0.298 -4.89,0.244 -7.537,-0.053 -4.873,-0.545 -5.518,-3.211 -6.07,-5.147 -0.531,-1.86 -0.06,-4.22 1.963,-5.278 0.484,-0.254 1.168,-0.584 1.546,0.021 0.66,1.06 -1.193,2.173 -1.34,3.312 -0.674,5.236 5.397,5.693 10.033,5.19 -0.201,-8.08 14.52,-14.442 22.25,-8.478 3.394,2.619 6.395,7.152 6.641,11.965 12.22,-1.405 37.083,-0.897 51.344,1.623 0.398,-3.782 2.441,-8.949 5.664,-11.767 3.945,-3.448 10.864,-4.265 15.233,-3.384 5.798,1.166 9.258,7.282 10.224,12.005 1.188,0.036 9.863,-0.636 11.172,-1.036 3.766,-1.16 3.092,-5.887 3.092,-5.887 0,0 -3.047,0.363 -3.463,-0.025 -0.414,-0.39 -1.086,-3.009 -1.086,-3.009 l -9.084,0.99 -1.156,-7.263 6.062,-0.992 C 122.814,79.603 89.335,85.795 88.804,85.658 85.007,81.551 76.879,74.243 76.118,74.304 75.356,74.365 74.714,81.919 74.641,85.748 73.033,85.977 61.277,86.273 56.922,86.213 46.473,86.067 36.079,85.126 25.705,84.129 20.065,83.588 13.47,84.125 10.556,88.911 c 1.374,0.716 6.236,1.8 6.236,1.8 l -0.394,5.732 -8.579,-0.639 c -1.767,-1.92 -1.112,-4.711 0.028,-6.773 0.96,-1.739 3.466,-4.577 5.407,-5.568 6.116,-3.119 21.093,-0.431 24.569,-0.056 9.728,1.05 31.129,1.097 34.646,0.812 0.548,-0.38 0.451,-11.875 2.338,-12.214 1.888,-0.338 14.982,11.6 14.982,11.6 z"
   id="path6" />
    <path
   fill="#272525"
   d="m 86.51,85.628 -10.066,0.183 c 0,0 -0.344,-9.256 0.541,-9.511 0.885,-0.257 9.525,9.328 9.525,9.328 z"
   id="path8" />
    <path
   fill="#99ffff"
   d="m 83.124,84.289 -4.74,-0.016 c -0.185,-1.654 -0.552,-4.616 -0.028,-4.784 0.52,-0.169 3.289,3.24 4.768,4.8 z"
   id="path10" />
    <path
   fill="#272525"
   d="m 52.587,87.939 c -0.024,1.02 -0.191,15.362 -0.207,16.147 -0.016,0.786 -1.854,1.044 -1.851,0.125 0.003,-0.918 0.643,-15.098 0.61,-16.123 -0.031,-1.024 1.473,-1.167 1.448,-0.149 z"
   id="path12" />
    <polygon
   fill="#ffaa00"
   points="10.052,91.104 14.787,91.886 14.82,94.143 9.948,93.727 "
   id="polygon14" />
    <path
   fill="#272525"
   d="m 89.25,87.887 c 0.012,0.682 0.083,15.127 -0.068,15.937 -0.15,0.81 -1.715,0.663 -1.762,-0.058 -0.046,-0.721 0.512,-15.07 0.628,-15.824 0.119,-0.756 1.193,-0.736 1.202,-0.055 z"
   id="path16" />
    <path
   fill="#272525"
   d="m 47.309,104.527 c -0.667,0.623 -3.919,-7.077 -6.625,-9.819 -3.35,-3.396 -9.94,-2.888 -14.421,-1.526 -0.866,0.264 -3.432,1.842 -4.096,1.808 -0.529,-0.026 -0.203,-0.572 -0.044,-0.72 2.243,-2.078 6.276,-3.274 9.465,-3.672 10.364,-1.289 15.496,6.192 15.721,13.929 z"
   id="path18" />
    <polygon
   fill="#272525"
   points="53.903,95.746 53.929,91.861 61.962,91.73 62.096,95.607 "
   id="polygon20" />
    <path
   fill="#272525"
   d="m 123.455,95.727 c 0.126,0.574 -1.207,0.271 -1.551,-0.065 -7.786,-7.687 -22.471,-4.734 -26.014,9.057 -0.179,0.693 -2.466,0.357 -2.236,-0.85 3.64,-19.286 28.267,-15.124 29.801,-8.142 z"
   id="path22" />
    <polygon
   fill="#007b00"
   points="55.222,94.807 55.394,92.713 60.875,92.811 60.547,94.825 "
   id="polygon24" />
    <path
   fill="#fff400"
   d="m 137.021,96.389 -6.244,0.639 -0.527,-4.221 c 0,0 3.973,-0.586 4.675,-0.279 0.712,0.309 2.096,3.861 2.096,3.861 z"
   id="path26" />
    <polygon
   fill="#272525"
   points="8.314,98.312 15.464,98.538 16.424,103.73 7.743,103.518 "
   id="polygon28" />
    <polygon
   fill="#fff400"
   points="8.959,102.059 9.453,99.48 14.438,100.027 14.669,102.049 "
   id="polygon30" />
    <path
   fill="#272525"
   d="m 97.66,106.857 c 0.701,0.176 0.13,1.672 -0.434,1.482 -2.593,-0.861 -13.599,-1.919 -15.343,-1.975 -12.477,-0.398 -25.118,0.553 -37.52,1.644 -0.556,0.05 -0.928,-0.698 -0.274,-0.981 2.307,-0.996 42.468,-2.948 53.571,-0.17 z"
   id="path32" />
    <path
   fill="#272525"
   d="m 125.729,107.975 c 0.576,8.765 -10.371,13.201 -18.728,8.713 -1.534,-0.823 -2.44,-1.979 -3.498,-3.209 -6.685,-7.776 3.412,-16 13.728,-13.928 4.015,0.806 8.232,4.408 8.498,8.424 z"
   id="path34" />
    <path
   fill="#3815d9"
   d="m 116.133,116.716 c -3.762,0.414 -9.324,-1.653 -11.021,-4.583 -1,-1.722 -1.443,-5.562 -0.014,-7.17 4.063,-4.564 12.898,-5.48 17.237,-0.15 4.129,5.07 -0.097,11.23 -6.202,11.903 z"
   id="path36" />
    <path
   fill="#272525"
   d="m 121.031,107.508 c 1.422,2.812 -2.237,7.295 -5.785,7.518 -4.444,0.276 -7.771,-2.349 -8.407,-4.952 -0.94,-3.854 4.623,-8.892 10.08,-6.343 2.626,1.224 3.647,2.86 4.112,3.777 z"
   id="path38" />
    <path
   fill="#ffffff"
   d="m 108.889,109.448 c -0.242,-3.78 6.109,-6.255 9.172,-3.483 1.112,1.008 1.461,2.202 1.297,3.503 -0.792,6.283 -10.161,4.875 -10.469,-0.02 z"
   id="path40" />
    <polygon
   fill="#272525"
   points="122.139,108.729 105.586,111.279 105.586,110.516 121.637,107.453 "
   id="polygon42" />
    <polygon
   fill="#272525"
   points="112.55,102.286 117.271,115.977 116.375,116.055 111.105,102.843 "
   id="polygon44" />
    <path
   fill="#272525"
   d="m 42.263,106.784 c 0.577,8.764 -10.372,13.2 -18.726,8.712 -1.534,-0.823 -2.164,-1.114 -3.221,-2.346 -6.685,-7.776 3.134,-16.863 13.45,-14.791 4.016,0.809 8.233,4.411 8.497,8.425 z"
   id="path46" />
    <path
   fill="#3815d9"
   d="m 32.668,115.525 c -3.729,0.592 -9.324,-1.653 -11.023,-4.584 -0.999,-1.721 -1.399,-5.532 -0.012,-7.17 5.103,-6.015 12.898,-5.48 17.237,-0.15 4.129,5.07 -1.337,11.132 -6.202,11.904 z"
   id="path48" />
    <path
   fill="#272525"
   d="m 37.566,106.316 c 1.423,2.812 -2.237,7.295 -5.784,7.518 -4.446,0.275 -7.771,-2.348 -8.407,-4.952 -0.941,-3.854 4.623,-8.892 10.08,-6.343 2.626,1.227 3.648,2.861 4.111,3.777 z"
   id="path50" />
    <path
   fill="#ffffff"
   d="m 25.423,108.258 c -0.621,-3.75 6.111,-6.255 9.173,-3.482 1.113,1.007 1.46,2.201 1.297,3.502 -0.789,6.284 -9.759,4.279 -10.47,-0.02 z"
   id="path52" />
    <polygon
   fill="#272525"
   points="37.611,111.062 22.09,105.559 22.582,104.918 38.01,109.76 "
   id="polygon54" />
    <polygon
   fill="#272525"
   points="33.709,101.229 28.876,114.893 28.072,114.544 32.141,101.029 "
   id="polygon56" />
    <path
   fill="#272525"
   d="m 34.071,107.084 c 0.712,1.406 -1.118,3.646 -2.892,3.759 -2.223,0.14 -3.885,-1.174 -4.204,-2.477 -0.471,-1.929 2.312,-4.446 5.04,-3.171 1.313,0.614 1.823,1.431 2.056,1.889 z"
   id="path58" />
    <path
   fill="#a4b9bc"
   d="m 27.999,108.055 c -0.31,-1.875 3.055,-3.128 4.587,-1.742 0.556,0.504 0.73,1.103 0.648,1.752 -0.394,3.141 -4.879,2.139 -5.235,-0.01 z"
   id="path60" />
    <path
   fill="#272525"
   d="m 117.535,108.275 c 0.712,1.406 -1.118,3.646 -2.893,3.758 -2.223,0.138 -3.886,-1.174 -4.203,-2.477 -0.471,-1.928 2.312,-4.445 5.039,-3.172 1.315,0.614 1.827,1.43 2.057,1.891 z"
   id="path62" />
    <path
   fill="#a4b9bc"
   d="m 111.464,109.245 c -0.414,-1.861 3.056,-3.128 4.587,-1.741 0.555,0.503 0.729,1.102 0.648,1.75 -0.394,3.142 -4.937,1.329 -5.235,-0.009 z"
   id="path64" />
  </g>
</svg>
