<?xml version="1.0" encoding="UTF-8" standalone="no"?>
<svg
   id="Layer_1"
   version="1.1"
   viewBox="0 0 26.679235 147.00249"
   sodipodi:docname="CowbellStick.svg"
   width="26.679235"
   height="147.00249"
   xmlns:inkscape="http://www.inkscape.org/namespaces/inkscape"
   xmlns:sodipodi="http://sodipodi.sourceforge.net/DTD/sodipodi-0.dtd"
   xmlns="http://www.w3.org/2000/svg"
   xmlns:svg="http://www.w3.org/2000/svg">
  <sodipodi:namedview
     id="namedview17"
     pagecolor="#ffffff"
     bordercolor="#000000"
     borderopacity="0.25"
     inkscape:showpageshadow="2"
     inkscape:pageopacity="0.0"
     inkscape:pagecheckerboard="0"
     inkscape:deskcolor="#d1d1d1" />
  <!-- Generator: Adobe Illustrator 29.8.3, SVG Export Plug-In . SVG Version: 2.1.1 Build 3)  -->
  <defs
     id="defs4">
    <style
       id="style2">
      .st0 {
        fill: #2a2a2a;
      }

      .st1 {
        fill: #d3a28b;
      }

      .st2 {
        fill: #2b2b2b;
      }

      .st3 {
        fill: #743c23;
      }
    </style>
  </defs>
  <path
     d="m 2.8751115,4.8990442 c 2.45,-6.9 12.9799995,-6.41 15.6199995,0.83 1.66,4.5499998 2.98,18.7299998 3.74,24.4099998 3.45,25.91 4.52,52.81 4.44,78.999996 -0.02,5.46 -0.44,29.75 -2.82,32.9 -1.54,2.04 -6.82,5.08 -9.51,4.96 -2.93,-0.13 -11.2399995,-4.88 -12.8499995,-7.17 -1.61000005,-2.29 -1.50000005,-24.58 -1.49000005,-29 0,-25.499996 0.77,-51.069996 0.81,-76.549996 0.01,-5.86 0.42000005,-24.7799998 2.06000005,-29.3799998 z"
     id="path6" />
  <path
     class="st2"
     d="m 8.6251115,89.689044 c 0.71,-0.64 9.7399995,-2.97 9.5399995,0.36 l -0.46,44.019996 c -3.02,-3.23 -6.38,-1.58 -10.0299995,-1.7 l 0.95,-42.669996 v 0 z"
     id="path8" />
  <path
     class="st1"
     d="m 12.575111,81.749044 c -0.59,-0.08 -1.19,0.61 -2.14,-0.28 -2.5399995,-2.37 -0.6999995,-18.85 -0.7199995,-23.15 -0.07,-15.38 -1.59,-32.38 0.13,-47.58 0.08,-0.7 0.3899995,-3.0699998 1.1199995,-2.8699998 0.75,7.1099998 2.35,14.0899998 2.62,21.2699998 1.26,16.48 2.5,33.9 1.33,50.32 -0.13,1.82 -0.31,2.18 -2.34,2.29 z"
     id="path10" />
  <path
     class="st3"
     d="m 13.585111,29.139044 c 1.98,15.87 5.14,31.68 4.52,47.76 -0.04,1.06 0.13,4.49 -0.58,4.96 -1.54,0.33 -3.4,0.11 -4.95,-0.11 0.99,-1.03 0.9,-1.71 0.9,-2.98 0,-16.26 0.73,-33.51 0.11,-49.63 z"
     id="path12" />
  <path
     class="st0"
     d="m 17.955111,135.65904 c -1.54,7.35 -6.61,4.75 -9.8899995,0.23 3.1299995,-2.28 6.5299995,-1.59 9.8899995,-0.23 z"
     id="path14" />
</svg>
