<svg version="1.1" width="276" height="241" viewBox="-1 -1 276 241" xmlns="http://www.w3.org/2000/svg" xmlns:xlink="http://www.w3.org/1999/xlink">
  <!-- Exported by Scratch - http://scratch.mit.edu/ -->
  <g id="ID0.9213183801621199" transform="matrix(0.7737809419631958, 0, 0, 0.7737809419631958, -156.9, -107.15)">
    <path id="ID0.7822747188620269" fill="#FFD63D" stroke="#FFD63D" stroke-width="2" stroke-linecap="round" d="M 208.800 218.950 L 273 210 L 273 238 L 221 239.150 L 208.800 218.950 Z " transform="matrix(0.9959744215011597, -0.08963769674301147, 0.08963769674301147, 0.9959744215011597, -19.55, 19.65)"/>
    <g id="ID0.4628882557153702" transform="matrix(1, 0, 0, 1, 203, 138)">
      <g id="ID0.021997046656906605">
        <path id="ID0.15504977852106094" fill="#663300" d="M 250.300 220 C 250.700 221 250.900 222.100 250.900 223.200 C 250.900 228.500 246 232.900 240 232.900 C 234 232.900 229.100 228.500 229.100 223.200 C 229.100 222.700 229.100 222.200 229.200 221.700 L 250.300 220 Z " transform="matrix(1, 0, 0, 1, -203, -138)"/>
        <path id="ID0.10469782678410411" fill="#A55301" d="M 247.600 223.100 C 247.600 226.800 244.200 229.900 240 229.900 C 235.800 229.900 232.400 226.900 232.400 223.100 C 232.400 222.500 232.500 221.900 232.600 221.300 L 246.800 220.200 C 247.400 221.100 247.600 222.100 247.600 223.100 Z " transform="matrix(1, 0, 0, 1, -203, -138)"/>
      </g>
      <g id="ID0.023421797901391983">
        <path id="ID0.1815381827764213" fill="#663300" d="M 267 159.300 L 258.600 154.400 L 251.600 154.800 C 252.800 153.100 253.600 151 253.600 148.800 C 253.600 143.300 249.200 138.800 243.600 138.800 C 238.100 138.800 233.600 143.200 233.600 148.800 C 233.600 151.500 234.600 153.900 236.400 155.700 L 225.200 156.300 L 203.600 221.800 L 219.600 240.200 L 276.300 235.100 L 267 159.300 Z M 243.500 145.300 C 245.400 145.300 247 146.800 247 148.800 C 247 150.700 245.500 152.300 243.500 152.300 C 241.600 152.300 240 150.800 240 148.800 C 240 146.800 241.600 145.300 243.500 145.300 Z M 211.300 225.300 L 230.100 223.800 L 251.200 222.100 L 258.900 221.500 L 269.900 233.200 L 222.100 237.800 L 211.300 225.300 Z " transform="matrix(1, 0, 0, 1, -203, -138)"/>
      </g>
    </g>
  </g>
</svg>