<?xml version="1.0" encoding="UTF-8" standalone="no"?>
<svg
   version="1.1"
   id="crab1-b"
   x="0px"
   y="0px"
   width="133.89726"
   height="90.292786"
   viewBox="0 0 133.89726 90.292786"
   enable-background="new 0 0 150 150"
   xml:space="preserve"
   sodipodi:docname="crab-b.svg"
   xmlns:inkscape="http://www.inkscape.org/namespaces/inkscape"
   xmlns:sodipodi="http://sodipodi.sourceforge.net/DTD/sodipodi-0.dtd"
   xmlns="http://www.w3.org/2000/svg"
   xmlns:svg="http://www.w3.org/2000/svg"><defs
   id="defs36" /><sodipodi:namedview
   id="namedview34"
   pagecolor="#ffffff"
   bordercolor="#000000"
   borderopacity="0.25"
   inkscape:showpageshadow="2"
   inkscape:pageopacity="0.0"
   inkscape:pagecheckerboard="0"
   inkscape:deskcolor="#d1d1d1" />
  <g
   id="g31"
   transform="translate(-8.5347558,-0.34852109)">
    <g
   id="R_Leg2">
      <path
   id="Outline_3_"
   d="M 98.528,78.416 C 96.782,69.228 87.007,65.621 87.007,65.621 c 0,0 -3.013,2.793 -2.991,4.166 11.414,7.264 3.824,17.209 6.696,19.956 4.025,3.849 8.908,-5.565 7.816,-11.327 z M 92.841,87.77 C 91.433,87.653 93.653,79.784 92.153,76.288 90.719,72.95 88.194,70.68 85.69,69.196 l 1.401,-1.648 c 13.749,6.424 9.459,20.532 5.75,20.222 z" />
      <path
   id="Fill_3_"
   fill="#ff0000"
   d="m 87.092,67.546 -1.401,1.648 c 2.504,1.484 5.029,3.754 6.463,7.092 1.5,3.496 -0.721,11.365 0.688,11.482 3.708,0.312 7.998,-13.796 -5.75,-20.222 z" />
    </g>
    <g
   id="R_Leg1">
      <path
   id="Outline_2_"
   d="m 104.272,62.937 c -6.811,-6.406 -16.84,-3.578 -16.84,-3.578 0,0 -0.799,4.031 0.029,5.129 13.503,-0.834 13.208,11.674 17.143,12.208 5.522,0.747 3.939,-9.741 -0.332,-13.759 z m 0.898,10.912 c -1.208,0.732 -4.037,-6.938 -7.308,-8.885 -3.121,-1.857 -6.498,-2.209 -9.396,-1.938 l 0.164,-2.158 c 14.9,-2.884 19.723,11.052 16.54,12.981 z" />
      <path
   id="Fill_2_"
   fill="#ff0000"
   d="m 88.631,60.869 -0.164,2.158 c 2.897,-0.271 6.274,0.08 9.396,1.938 3.271,1.947 6.1,9.617 7.308,8.885 3.182,-1.93 -1.641,-15.866 -16.54,-12.981 z" />
    </g>
    <g
   id="L_Leg2">
      <path
   id="Outline_1_"
   d="m 67.405,69.785 c 0.022,-1.375 -2.993,-4.166 -2.993,-4.166 0,0 -9.776,3.607 -11.52,12.793 -1.094,5.762 3.79,15.176 7.817,11.326 2.871,-2.744 -4.719,-12.691 6.696,-19.953 z m -8.135,6.5 c -1.5,3.496 0.72,11.363 -0.688,11.48 -3.71,0.312 -8.001,-13.796 5.749,-20.222 l 1.402,1.649 c -2.506,1.484 -5.031,3.753 -6.463,7.093 z" />
      <path
   id="Fill_1_"
   fill="#ff0000"
   d="m 64.33,67.543 1.402,1.649 c -2.505,1.483 -5.03,3.752 -6.462,7.092 -1.5,3.496 0.72,11.363 -0.688,11.48 -3.711,0.314 -8.002,-13.795 5.748,-20.221 z" />
    </g>
    <g
   id="L_Leg1">
      <path
   id="Outline"
   d="m 63.988,59.357 c 0,0 -10.029,-2.828 -16.84,3.58 -4.271,4.018 -5.854,14.504 -0.333,13.756 3.936,-0.535 3.642,-13.042 17.145,-12.208 0.826,-1.098 0.028,-5.128 0.028,-5.128 z m -10.43,5.604 c -3.27,1.946 -6.098,9.616 -7.306,8.884 -3.184,-1.928 1.638,-15.863 16.537,-12.98 l 0.165,2.158 c -2.898,-0.271 -6.275,0.08 -9.396,1.938 z" />
      <path
   id="Fill"
   fill="#ff0000"
   d="m 62.789,60.865 0.165,2.158 c -2.898,-0.271 -6.275,0.08 -9.396,1.938 -3.27,1.946 -6.098,9.616 -7.306,8.884 -3.184,-1.928 1.638,-15.863 16.537,-12.98 z" />
    </g>
    <g
   id="L_Claw">
      <path
   id="Fill_5_"
   fill="#ff0000"
   d="m 54.858,44.467 c -0.008,0.001 -0.016,0.001 -0.024,0.003 -6.386,1.022 -10.85,-1.528 -12.629,-3.924 -0.002,-0.003 -0.004,-0.006 -0.006,-0.009 -0.145,-0.196 -0.273,-0.391 -0.382,-0.582 -0.027,-0.048 -0.043,-0.093 -0.068,-0.141 -0.076,-0.146 -0.152,-0.292 -0.207,-0.433 -0.033,-0.086 -0.048,-0.166 -0.073,-0.249 -0.029,-0.098 -0.067,-0.199 -0.085,-0.293 -0.033,-0.174 -0.046,-0.341 -0.038,-0.498 0.013,-0.268 0.1,-0.583 0.235,-0.861 0.047,-0.261 0.187,-0.512 0.458,-0.7 5.249,-3.658 7.693,-10.32 5.864,-16.284 -1.005,-3.282 -8.654,-9.892 -10.923,-7.812 -1.127,1.032 1.784,3.473 1.214,5.866 -0.47,1.972 -2.689,3.654 -1.427,5.74 0.885,1.461 0.234,5.317 -1.785,6.552 -0.211,0.129 -0.405,0.202 -0.559,0.179 -0.006,0.004 -0.009,0.009 -0.015,0.013 C 34.398,31.03 34.394,31.022 34.385,31.018 34.332,31.003 34.287,30.972 34.248,30.926 33.559,30.43 34.156,28.976 33.729,27.997 32.463,25.091 29.72,25.878 29.018,22.893 28.34,20.016 31.601,16.139 28.65,14.118 27.681,13.454 26.661,13.378 26.104,12.181 24.867,9.527 27.223,6.878 24.182,4.722 21.895,3.1 19.576,3.794 17.296,5.192 6.171,12.014 12.484,35.638 27.714,39.271 c 2.191,0.523 4.885,0.3 7.12,0.133 6.43,12.468 17.059,9.878 21.623,7.643 0.091,-0.044 0.155,-0.067 0.217,-0.087 -0.509,-0.489 -1.143,-1.271 -1.816,-2.493 z" />
      <path
   id="Outline_5_"
   fill="#272525"
   d="m 55.56,42.977 -1.252,0.406 c -7.153,0.093 -9.249,-2.846 -10.723,-5.223 1.31,-1.236 3.809,-3.864 5.13,-5.947 2.521,-3.975 2.191,-10.904 -0.296,-14.74 -5.567,-8.59 -18.127,-10.838 -12.72,-1.872 2.406,3.989 -2.716,5.37 -0.261,9.444 0.367,0.609 -0.009,1.708 -0.453,2.807 C 34.799,24.694 31.562,24.833 31.519,21.581 31.495,19.726 34.51,14.715 30.344,12.964 25.693,11.008 29.216,7.067 27.741,3.928 26.592,1.484 23.73,0.008 21.627,0.416 10.637,2.549 7.12,14.22 9.027,23.513 c 1.818,8.858 9.153,20.341 24.849,18.81 4.457,11.39 19.375,9.953 23.952,5.445 l 0.797,-0.643 z m 0.897,4.071 c -4.564,2.235 -15.193,4.825 -21.623,-7.643 -2.235,0.167 -4.929,0.39 -7.12,-0.133 C 12.483,35.639 6.171,12.015 17.296,5.193 c 2.28,-1.397 4.599,-2.092 6.886,-0.47 3.041,2.156 0.685,4.805 1.922,7.459 0.557,1.197 1.577,1.273 2.546,1.937 2.951,2.021 -0.31,5.898 0.368,8.775 0.702,2.985 3.445,2.198 4.711,5.104 0.426,0.979 -0.17,2.433 0.519,2.929 0.039,0.046 0.084,0.077 0.137,0.092 0.009,0.004 0.013,0.012 0.023,0.016 0.006,-0.004 0.009,-0.009 0.015,-0.013 0.153,0.023 0.347,-0.05 0.559,-0.179 2.019,-1.235 2.67,-5.091 1.785,-6.552 -1.262,-2.086 0.957,-3.768 1.427,-5.74 0.57,-2.393 -2.341,-4.834 -1.214,-5.866 2.269,-2.08 9.918,4.53 10.923,7.812 1.829,5.964 -0.615,12.626 -5.864,16.284 -0.271,0.188 -0.41,0.439 -0.458,0.7 -0.135,0.278 -0.222,0.593 -0.235,0.861 -0.008,0.157 0.005,0.323 0.038,0.498 0.018,0.094 0.056,0.195 0.085,0.293 0.025,0.083 0.04,0.163 0.073,0.249 0.055,0.141 0.13,0.287 0.207,0.433 0.025,0.047 0.041,0.093 0.068,0.141 0.109,0.191 0.236,0.386 0.382,0.582 0.002,0.003 0.003,0.006 0.006,0.009 1.782,2.393 6.244,4.946 12.629,3.924 0.008,-10e-4 0.016,-10e-4 0.024,-0.003 0.673,1.223 1.307,2.004 1.815,2.494 v 0 c -0.061,0.019 -0.125,0.042 -0.216,0.086 z" />
    </g>
    <g
   id="R_Claw">
      <path
   id="Fill_4_"
   fill="#ff0000"
   d="m 133.669,5.193 c -2.28,-1.397 -4.598,-2.093 -6.885,-0.471 -3.04,2.157 -0.687,4.805 -1.922,7.46 -0.558,1.196 -1.578,1.273 -2.547,1.937 -2.949,2.021 0.311,5.898 -0.367,8.775 -0.702,2.985 -3.444,2.198 -4.71,5.104 -0.426,0.974 0.161,2.417 -0.507,2.922 -0.041,0.054 -0.092,0.085 -0.15,0.101 -0.009,0.004 -0.013,0.012 -0.022,0.016 -0.006,-0.004 -0.009,-0.009 -0.015,-0.013 -0.153,0.022 -0.347,-0.05 -0.558,-0.179 -2.018,-1.235 -2.67,-5.091 -1.785,-6.552 1.262,-2.085 -0.956,-3.768 -1.427,-5.739 -0.569,-2.394 2.342,-4.834 1.214,-5.867 -2.27,-2.08 -9.918,4.531 -10.924,7.812 -1.765,5.759 0.724,12.538 5.623,16.292 0.196,0.037 0.376,0.19 0.525,0.399 0.352,0.245 0.424,0.495 0.329,0.702 0.044,0.156 0.073,0.311 0.08,0.452 0.008,0.157 -0.005,0.324 -0.038,0.499 -0.02,0.104 -0.061,0.215 -0.095,0.323 -0.023,0.074 -0.035,0.145 -0.065,0.222 -0.061,0.157 -0.144,0.319 -0.232,0.483 -0.017,0.032 -0.026,0.062 -0.045,0.093 -1.453,2.555 -6.165,5.663 -13.152,4.491 -0.48,0.737 -1.155,1.703 -1.819,2.427 4.637,2.225 15.583,4.883 21.958,-7.476 2.233,0.167 4.928,0.391 7.12,-0.132 15.23,-3.636 21.542,-27.259 10.416,-34.081 z" />
      <path
   id="Outline_4_"
   fill="#272525"
   d="m 129.34,0.418 c -2.104,-0.408 -4.966,1.067 -6.113,3.511 -1.476,3.139 2.048,7.08 -2.604,9.036 -4.167,1.752 -1.152,6.763 -1.176,8.618 -0.043,3.253 -3.281,3.113 -3.467,6.271 -0.442,-1.099 -0.819,-2.197 -0.452,-2.807 2.456,-4.075 -2.666,-5.455 -0.261,-9.444 5.406,-8.966 -7.153,-6.718 -12.719,1.872 -2.488,3.836 -2.818,10.766 -0.298,14.74 1.519,2.392 4.228,4.895 5.246,5.759 -1.482,2.406 -3.495,5.505 -10.836,5.41 -1.089,-0.615 -1.786,-1.01 -1.786,-1.01 l -2.375,4.5 0.639,0.893 c 4.576,4.508 19.496,5.945 23.953,-5.445 15.694,1.532 23.03,-9.951 24.848,-18.809 C 143.848,14.222 140.33,2.551 129.34,0.418 Z m -6.087,38.855 c -2.192,0.523 -4.887,0.299 -7.12,0.132 -6.375,12.359 -17.321,9.701 -21.958,7.476 0.664,-0.724 1.339,-1.69 1.819,-2.427 v 0 c 6.986,1.172 11.697,-1.938 13.152,-4.491 0.019,-0.031 0.028,-0.062 0.045,-0.093 0.089,-0.164 0.172,-0.326 0.232,-0.483 0.03,-0.077 0.042,-0.147 0.065,-0.222 0.034,-0.108 0.075,-0.22 0.095,-0.323 0.033,-0.175 0.046,-0.342 0.038,-0.499 -0.007,-0.141 -0.036,-0.296 -0.08,-0.452 0.095,-0.207 0.022,-0.457 -0.329,-0.702 -0.149,-0.209 -0.329,-0.362 -0.525,-0.399 -4.899,-3.754 -7.388,-10.533 -5.623,-16.292 1.006,-3.281 8.654,-9.892 10.924,-7.812 1.128,1.033 -1.783,3.473 -1.214,5.867 0.471,1.971 2.688,3.654 1.427,5.739 -0.885,1.461 -0.232,5.317 1.785,6.552 0.211,0.129 0.404,0.202 0.558,0.179 0.006,0.004 0.009,0.009 0.015,0.013 0.01,-0.004 0.014,-0.012 0.022,-0.016 0.059,-0.016 0.109,-0.047 0.15,-0.101 0.668,-0.505 0.081,-1.948 0.507,-2.922 1.266,-2.906 4.008,-2.119 4.71,-5.104 0.678,-2.877 -2.582,-6.754 0.367,-8.775 0.969,-0.664 1.989,-0.741 2.547,-1.937 1.235,-2.655 -1.118,-5.303 1.922,-7.46 2.287,-1.622 4.604,-0.927 6.885,0.471 11.126,6.823 4.814,30.446 -10.416,34.081 z" />
    </g>
    <g
   id="L_Eye">
      <path
   id="Eye_Socket_1_"
   d="m 65.193,19.314 c 4.237,-2.102 6.748,-8.484 1.64,-13.01 -5.738,-5.083 -14.606,3.542 -10.56,9.856 1.744,2.722 3.899,3.823 5.97,3.849 0.815,4.618 3.455,10.77 7.514,13.271 l 1.59,-2.58 C 68.154,28.732 65.852,23.281 65.193,19.314 Z m -6.926,-5.853 c -1.569,-7.684 8.688,-8.696 9.446,-0.996 0.12,1.205 -0.117,2.138 -0.704,3.108 -0.708,1.172 -1.661,1.838 -2.676,2.111 l -1.802,0.08 c -1.959,-0.332 -3.784,-1.951 -4.264,-4.303 z" />
      <path
   id="White_1_"
   fill="#ffffff"
   d="m 67.713,12.465 c 0.12,1.205 -0.117,2.138 -0.704,3.108 -2.466,4.081 -7.861,2.199 -8.742,-2.112 -1.569,-7.684 8.688,-8.695 9.446,-0.996 z" />
      <circle
   id="Pupil_1_"
   cx="62.966999"
   cy="9.7639999"
   r="2.7379999" />
    </g>
    <g
   id="R_Eye">
      <path
   id="Eye_Socket"
   d="m 92.581,8.413 c -6.932,-10.027 -18.933,3.021 -10.212,10.218 0.117,0.097 0.238,0.18 0.357,0.266 -2.68,3.576 -5.05,8.688 -4.511,12.864 l 3.006,-0.388 c -0.45,-3.488 1.972,-8.296 4.476,-11.361 5.23,0.395 10.387,-6.53 6.884,-11.599 z m -1.11,4.681 c -0.005,0.086 -0.014,0.171 -0.022,0.255 -0.013,0.125 -0.029,0.246 -0.05,0.365 -0.014,0.08 -0.029,0.159 -0.046,0.237 -0.026,0.117 -0.058,0.23 -0.091,0.343 -0.021,0.07 -0.041,0.142 -0.065,0.21 -0.041,0.117 -0.088,0.229 -0.137,0.339 -0.024,0.055 -0.047,0.113 -0.073,0.167 -0.067,0.137 -0.143,0.267 -0.221,0.393 -0.014,0.021 -0.025,0.045 -0.039,0.066 -0.098,0.149 -0.203,0.29 -0.316,0.423 -0.014,0.016 -0.029,0.029 -0.043,0.045 -0.099,0.113 -0.202,0.221 -0.312,0.321 -0.031,0.029 -0.065,0.055 -0.098,0.083 -0.096,0.083 -0.193,0.163 -0.296,0.237 -0.038,0.027 -0.077,0.052 -0.116,0.079 -0.102,0.069 -0.206,0.134 -0.313,0.193 -0.04,0.022 -0.079,0.043 -0.12,0.063 -0.112,0.059 -0.228,0.111 -0.345,0.16 -0.037,0.015 -0.073,0.03 -0.11,0.044 -0.13,0.049 -0.263,0.092 -0.396,0.13 -0.025,0.007 -0.051,0.016 -0.076,0.022 -1.696,0.443 -3.672,-0.068 -4.977,-1.659 -0.019,-0.022 -0.036,-0.047 -0.054,-0.07 -0.104,-0.131 -0.203,-0.268 -0.298,-0.413 -0.031,-0.048 -0.061,-0.098 -0.091,-0.147 -0.077,-0.127 -0.15,-0.259 -0.22,-0.396 -0.032,-0.063 -0.063,-0.128 -0.095,-0.193 -0.062,-0.135 -0.119,-0.274 -0.173,-0.418 -0.028,-0.073 -0.057,-0.146 -0.083,-0.221 -0.052,-0.154 -0.097,-0.315 -0.141,-0.479 -0.019,-0.071 -0.04,-0.14 -0.057,-0.213 -0.056,-0.24 -0.104,-0.489 -0.139,-0.75 -0.16,-1.2 0.043,-2.141 0.598,-3.131 2.321,-4.165 7.778,-2.472 8.809,1.806 0.062,0.256 0.107,0.503 0.143,0.745 0.012,0.081 0.017,0.157 0.025,0.235 0.018,0.158 0.034,0.315 0.042,0.467 0.004,0.09 0.003,0.176 0.003,0.263 0.001,0.136 0.001,0.269 -0.007,0.399 z" />
      <path
   id="White"
   fill="#ffffff"
   d="M 91.434,11.965 C 91.425,11.886 91.42,11.81 91.409,11.73 91.374,11.489 91.328,11.241 91.266,10.985 90.236,6.707 84.779,5.014 82.457,9.179 c -0.555,0.99 -0.758,1.931 -0.598,3.131 0.035,0.261 0.083,0.51 0.139,0.75 0.017,0.074 0.038,0.142 0.057,0.213 0.044,0.164 0.089,0.325 0.141,0.479 0.026,0.076 0.055,0.148 0.083,0.221 0.054,0.144 0.111,0.283 0.173,0.418 0.03,0.065 0.062,0.13 0.095,0.193 0.069,0.138 0.143,0.27 0.22,0.396 0.03,0.05 0.06,0.1 0.091,0.147 0.095,0.145 0.194,0.282 0.298,0.413 0.018,0.023 0.035,0.047 0.054,0.07 1.305,1.591 3.28,2.103 4.977,1.659 0.025,-0.007 0.051,-0.016 0.076,-0.022 0.134,-0.038 0.267,-0.081 0.396,-0.13 0.037,-0.014 0.073,-0.03 0.11,-0.044 0.117,-0.049 0.232,-0.102 0.345,-0.16 0.04,-0.021 0.08,-0.042 0.12,-0.063 0.107,-0.06 0.212,-0.125 0.313,-0.193 0.039,-0.026 0.078,-0.051 0.116,-0.079 0.103,-0.074 0.2,-0.154 0.296,-0.237 0.032,-0.028 0.066,-0.054 0.098,-0.083 0.109,-0.101 0.213,-0.208 0.312,-0.321 0.015,-0.016 0.029,-0.029 0.043,-0.045 0.113,-0.133 0.219,-0.274 0.316,-0.423 0.014,-0.021 0.025,-0.045 0.039,-0.066 0.078,-0.126 0.153,-0.256 0.221,-0.393 0.026,-0.054 0.049,-0.111 0.073,-0.167 0.049,-0.11 0.096,-0.222 0.137,-0.339 0.024,-0.068 0.044,-0.14 0.065,-0.21 0.033,-0.112 0.064,-0.226 0.091,-0.343 0.017,-0.078 0.032,-0.157 0.046,-0.237 0.021,-0.119 0.037,-0.241 0.05,-0.365 0.009,-0.084 0.018,-0.169 0.022,-0.255 0.008,-0.13 0.009,-0.263 0.008,-0.398 0,-0.087 10e-4,-0.173 -0.003,-0.263 -0.009,-0.152 -0.026,-0.309 -0.043,-0.468 z" />
      <circle
   id="Pupil"
   cx="86.630997"
   cy="9.2749996"
   r="2.737" />
    </g>
    <g
   id="Body">
      <path
   id="Body_Fill"
   fill="#ff0000"
   d="m 75.717,31.764 c 7.812,-0.036 17.913,2.925 19.028,7.236 0.964,3.714 -0.771,7.033 -2.814,9.974 -3.48,5.01 -4.48,11.893 -7.184,16.896 -1.828,3.385 -5.546,4.949 -9.03,4.811 -3.483,0.141 -7.203,-1.426 -9.03,-4.811 -2.702,-5.004 -4.17,-11.889 -7.65,-16.896 -2.042,-2.94 -3.778,-6.26 -2.816,-9.974 1.117,-4.311 11.683,-7.272 19.496,-7.236 z" />
      <path
   id="Body_Outline"
   fill="#272525"
   d="M 95.424,33.779 C 90.905,30.648 83.34,29.516 75.767,29.516 h -0.102 c -7.573,0 -15.138,1.133 -19.658,4.263 -4.432,3.069 -3.906,9.52 0,14.492 4.316,5.492 6.684,19.426 8.683,21.823 2.511,3.013 6.723,3.319 11.074,3.324 4.253,-0.005 8.466,-0.312 10.978,-3.324 1.998,-2.397 4.367,-16.331 8.683,-21.823 3.904,-4.971 4.431,-11.422 -10e-4,-14.492 z m -3.493,15.195 c -3.48,5.01 -4.48,11.893 -7.184,16.896 -1.828,3.385 -5.546,4.949 -9.03,4.811 -3.483,0.141 -7.203,-1.426 -9.03,-4.811 -2.702,-5.004 -4.17,-11.889 -7.65,-16.896 -2.042,-2.94 -3.778,-6.26 -2.816,-9.974 1.117,-4.311 11.683,-7.273 19.496,-7.236 7.812,-0.036 17.913,2.925 19.028,7.236 0.964,3.714 -0.771,7.033 -2.814,9.974 z" />
    </g>
  </g>
</svg>
