<?xml version="1.0" encoding="UTF-8" standalone="no"?>
<svg
   id="Layer_1"
   version="1.1"
   viewBox="0 0 277.78088 212.09917"
   sodipodi:docname="Crab.svg"
   width="277.78088"
   height="212.09917"
   xmlns:inkscape="http://www.inkscape.org/namespaces/inkscape"
   xmlns:sodipodi="http://sodipodi.sourceforge.net/DTD/sodipodi-0.dtd"
   xmlns="http://www.w3.org/2000/svg"
   xmlns:svg="http://www.w3.org/2000/svg">
  <sodipodi:namedview
     id="namedview299"
     pagecolor="#ffffff"
     bordercolor="#000000"
     borderopacity="0.25"
     inkscape:showpageshadow="2"
     inkscape:pageopacity="0.0"
     inkscape:pagecheckerboard="0"
     inkscape:deskcolor="#d1d1d1" />
  <!-- Generator: Adobe Illustrator 29.8.3, SVG Export Plug-In . SVG Version: 2.1.1 Build 3)  -->
  <defs
     id="defs4">
    <style
       id="style2">
      .st0 {
        fill: #c3260d;
      }

      .st1 {
        fill: #c8341b;
      }

      .st2 {
        fill: #9d2202;
      }

      .st3 {
        fill: #ab2d10;
      }

      .st4 {
        fill: #c9341c;
      }

      .st5 {
        fill: #a82001;
      }

      .st6 {
        fill: #d7513b;
      }

      .st7 {
        fill: #9b2102;
      }

      .st8 {
        fill: #dd5e49;
      }

      .st9 {
        fill: #e06551;
      }

      .st10 {
        fill: #a12002;
      }

      .st11 {
        fill: #ac361d;
      }

      .st12 {
        fill: #cc371f;
      }

      .st13 {
        fill: #da5842;
      }

      .st14 {
        fill: #bd1b00;
      }

      .st15 {
        fill: #9d2102;
      }

      .st16 {
        fill: #d2462f;
      }

      .st17 {
        fill: #cd3921;
      }

      .st18 {
        fill: #c82e15;
      }

      .st19 {
        fill: #c01e03;
      }

      .st20 {
        fill: #952303;
      }

      .st21 {
        fill: #cb371f;
      }

      .st22 {
        fill: #070101;
      }

      .st23 {
        fill: #b71a00;
      }

      .st24 {
        fill: #cf412a;
      }

      .st25 {
        fill: #cb361d;
      }

      .st26 {
        fill: #9f2102;
      }

      .st27 {
        fill: #992d0c;
      }

      .st28 {
        fill: #a32102;
      }

      .st29 {
        fill: #b31e02;
      }

      .st30 {
        fill: #ce3b23;
      }

      .st31 {
        fill: #c42a11;
      }

      .st32 {
        fill: #cc412b;
      }

      .st33 {
        fill: #d7503a;
      }

      .st34 {
        fill: #a02002;
      }

      .st35 {
        fill: #9c2102;
      }

      .st36 {
        fill: #c5290f;
      }

      .st37 {
        fill: #ad2d15;
      }

      .st38 {
        fill: #b12b0e;
      }

      .st39 {
        fill: #ae1900;
      }

      .st40 {
        fill: #d0462f;
      }

      .st41 {
        fill: #c01b00;
      }

      .st42 {
        fill: #962403;
      }

      .st43 {
        fill: #df624e;
      }

      .st44 {
        fill: #891f02;
      }

      .st45 {
        fill: #af1e01;
      }

      .st46 {
        fill: #9e2102;
      }

      .st47 {
        fill: #b61900;
      }

      .st48 {
        fill: #c72c13;
      }

      .st49 {
        fill: #bfbfbf;
      }

      .st50 {
        fill: #c12309;
      }

      .st51 {
        fill: #c3260c;
      }

      .st52 {
        fill: #a22103;
      }

      .st53 {
        fill: #c01b01;
      }

      .st54 {
        fill: #9c2202;
      }

      .st55 {
        fill: #b93d22;
      }

      .st56 {
        fill: #9e2202;
      }

      .st57 {
        fill: #d1412a;
      }

      .st58 {
        fill: #bb1b00;
      }

      .st59 {
        fill: #c21e04;
      }

      .st60 {
        fill: #d3d3d3;
      }

      .st61 {
        fill: #ce3d25;
      }

      .st62 {
        fill: #bf1b00;
      }

      .st63 {
        fill: #bb1a00;
      }

      .st64 {
        fill: #b9371b;
      }

      .st65 {
        fill: #9b2202;
      }

      .st66 {
        fill: #a71f01;
      }

      .st67 {
        fill: #c62b11;
      }

      .st68 {
        fill: #bd1a00;
      }

      .st69 {
        fill: #d1422b;
      }

      .st70 {
        fill: #aa2002;
      }

      .st71 {
        fill: #ca3219;
      }

      .st72 {
        fill: #912503;
      }

      .st73 {
        fill: #c32309;
      }

      .st74 {
        fill: #a02202;
      }

      .st75 {
        fill: #be1b00;
      }

      .st76 {
        fill: #c01c02;
      }

      .st77 {
        fill: #a31e02;
      }

      .st78 {
        fill: #ca341b;
      }

      .st79 {
        fill: #921e01;
      }

      .st80 {
        fill: #a62507;
      }

      .st81 {
        fill: #dc5c47;
      }

      .st82 {
        fill: #992202;
      }

      .st83 {
        fill: #a52306;
      }

      .st84 {
        fill: #b12f1a;
      }

      .st85 {
        fill: #bf1b01;
      }

      .st86 {
        fill: #972403;
      }

      .st87 {
        fill: #cd3a22;
      }

      .st88 {
        fill: #b4270a;
      }

      .st89 {
        fill: #992402;
      }

      .st90 {
        fill: #c82d14;
      }

      .st91 {
        fill: #d54b35;
      }

      .st92 {
        fill: #932403;
      }

      .st93 {
        fill: #020101;
      }

      .st94 {
        fill: #c62b12;
      }

      .st95 {
        fill: #ab2d11;
      }

      .st96 {
        fill: #c4240a;
      }

      .st97 {
        fill: #c4250b;
      }

      .st98 {
        fill: #bc1a00;
      }

      .st99 {
        fill: #b13317;
      }

      .st100 {
        fill: #9a2202;
      }

      .st101 {
        fill: #ca351d;
      }

      .st102 {
        fill: #9f2202;
      }

      .st103 {
        fill: #ca371e;
      }

      .st104 {
        fill: #c83017;
      }

      .st105 {
        fill: #9c2302;
      }

      .st106 {
        fill: #a22002;
      }

      .st107 {
        fill: #a32002;
      }

      .st108 {
        fill: #c62d13;
      }

      .st109 {
        fill: #d34932;
      }
    </style>
  </defs>
  <path
     d="m 95.518498,0.90353832 c 0.73,0.72999998 0.99,2.67999998 0.88,3.71999998 -0.44,4.16 -11.27,14.8499997 -14.37,18.8099997 -3.09,3.95 -5.68,8.2 -8.66,12.22 1.52,0.55 3.94,-1.19 5.26,-1.94 4.27,-2.43 11.96,-10.18 15.62,-11.09 2.46,-0.61 3.88,1.2 4.56,3.42 0.49,1.61 1.17,8.45 1.13,10.25 -0.31,12.39 -13.78,25.17 -24.4,29.97 -0.34,0.41 -0.1,1 0.45,1.49 1.02,0.92 3.77,2.14 5.23,3.26 2.05,1.57 5.87,5.73 8.01,5.03 8.86,-5.52 18.460002,-9.7 28.470002,-12.65 -3.1,-6.25 -4.3,-19.99 5.73,-19.53 6.74,0.31 8.42,11.98 8.26,17.35 1.85,-0.51 7.66,1.2 8.67,-0.51 0.83,-1.41 1.12,-7.33 2.1,-9.97 4.41,-11.88 18.09,-12.34 15.7,2.74 -0.4,2.53 -1.98,4.92 -2.83,7.26 -0.23,0.64 -1.06,0.92 0.11,1.57 1.3,0.72 7.16,1.49 9.38,2.14 4.55,1.33 17.93,6.71 21.33,6.84 0.71,0.03 4.41,-1.97 4.59,-2.17 1.09,-1.27 -0.34,-1.19 -1,-1.49 -8.96,-4.05 -16.82,-5.55 -22.62,-14.82 -2.47,-3.94 -7.96,-18.88 -4.81,-22.56 2.33,-2.73 14.6,2.79 17.64,4.33 1.1,-1.14 -16.22,-22.32 -16.37,-27.1199997 -0.16,-5.11 10.27,-4.12 13.84,-3.83 15.55,1.27 33.44,10.4499997 39.09,25.7099997 2.09,5.64 2.44,11.93 3.8,17.8 1.23,5.3 5.01,10.46 2.02,16.5 l -16.4,20.36 c -0.24,1.36 5.99,5.67 5.72,8.17 7.07,-4.32 13.46,-11.71 20.63,-15.71 5.12,-2.85 7.27,-0.83 12.24,1.19 9.26,3.75 24.01,12.4 30.05,20.35 8.65,11.390002 -2.07,9.160002 -9.79,7.630002 -7.72,-1.53 -15.88,-4.16 -23.93,-5.53 -5.15,2.34 -8.49,7.5 -12.65,11.17 7.35,0.29 16.44,-4.73 22.71,1.05 4.14,3.82 15.87,24.98 18.16,30.8 1.69,4.29 8.29,24.7 -3.07,16.75 -6.11,-4.27 -12.31,-12.04 -18.35,-16.93 -1.35,-1.1 -5.34,-4.59 -6.52,-5 -4.97,-1.7 -10.66,1.93 -15.81,1.77 -0.2,1.89 0.02,1.14 1.06,1.45 2.8,0.83 5.38,1.57 8.07,2.74 3.78,1.64 14.37,5.92 15.88,9.32 0.8,1.79 1.67,10.46 1.69,12.77 0.07,8.84 -1.62,26.49 -3.86,35.08 -2.24,8.59 -6.44,3.64 -9.06,-1.34 -5.08,-9.66 -8,-21.32 -11.06,-31.77 -3.56,-1.07 -7.54,-4.46 -11.05,-5.17 -0.71,-0.14 -1.96,-0.44 -1.75,0.68 3.77,2.25 11.62,7.61 10.66,12.43 -0.39,1.97 -4.53,10.75 -5.72,13.05 -3.27,6.36 -9.32,15.18 -15.02,19.54 -10.1,7.72 -5.24,-13.14 -5.02,-17.26 0.26,-4.97 -0.14,-10.06 -0.15,-15.03 -0.25,-0.74 -12.43,-8.33 -13.24,-8.41 -1.45,-0.14 -11.51,4.96 -14.32,5.8 -22.98,6.91 -48.6,2.95 -70.22,-6.52 -0.69,5.24 -9.800002,8.35 -11.210002,12.92 -1.51,4.91 0,15.99 -1.22,22.54 -5.02,26.78 -19.33,-10.14 -20.51,-19.44 -1.11,-8.78 3.82,-14.13 4.85,-22.5 -0.33,-0.41 -7.83,5.01 -8.49,6.27 -2.16,4.13 -3.07,15.96 -4.98,21.66 -1.91,5.7 -7.97,19.76 -13.53,8.8 -3.45,-6.81 -5.18,-26.42 -4.58,-34.12 0.14,-1.83 0.78,-4.59 1.74,-6.18 l 11.85,-11.54 c -3.21,0.69 -7.32,1.7 -10.28,3.03 -10.41,4.68 -17.37,27.61 -29.72,27.97 -3,0.09 -4.7,-1.65 -4.68,-4.68 0.07,-8.11 13.23,-36.27 20.4,-40.16 4.76,-2.58 12.43,-4.15 17.63,-6.13 0.91,-0.35 2.11,-0.43 2.32,-1.64 -4.55,0.46 -9.22,-1.74 -13.71,-0.4 -4.87,1.45 -16.7,12.54 -23.24,15.64 -4.45,2.12 -17.5800005,6.4 -14.34000049,-2.82 1.66999999,-4.76 13.49000049,-18.58 17.43000049,-22.89 3.55,-3.89 16.19,-16.930002 20.73,-17.490002 6.57,-0.81 18.53,8.150002 25.63,8.570002 4.01,-8.270002 7.36,-7.880002 -0.25,-14.830002 -8.79,-8.02 -25.36,-14.64 -26.64,-27.36 -2.25,-22.27 10.82,-53.4299997 33.98,-59.6099997 3.95,-1.05 21.73,-4.21 24.16,-1.76999998 z"
     id="path6" />
  <path
     class="st41"
     d="m 120.1685,69.133538 c 2.7,1.45 3.27,2.28 2.09,5.34 2.51,0.53 2.62,6.66 1.38,6.06 -3.6,-3.44 -4.29,0.4 -4.68,4.25 l -5.99,-1.25 c 0.89,1.04 0.48,1.43 -0.72,0.72 -0.37,2.29 -1.09,4.21 -2.16,5.76 h -1.62 c -0.58,-2.9 -2.57,-1.23 -1.49,0.75 1.37,2.06 1.76,3.31 1.66,5.73 2.01,-0.45 2.3,1.02 0.72,2.16 3.23,3.200002 6.44,7.010002 7.43,11.500002 5.82,-0.09 3.07,6.43 1.12,9.75 3.37,3.85 3.43,6.41 0.17,7.7 -1,3.42 1.12,5.87 1.94,0.96 l 1.59,-0.39 c 3.94,4.09 -3.45,22.81 -7.27,23.67 -0.44,0.1 -0.9,0.11 -1.37,0.09 -0.41,0.38 -1.01,0.91 -1.42,0.72 -10.83,-4.85 -28.890002,-17 -33.580002,-28.08 -0.06,-0.15 0.15,-0.42 0.44,-0.72 -3.58,-4.52 -1.65,-12.54 0.26,-17.95 l 4.81,-11.280002 c 0.32,-2.84 0.79,-5.58 1.41,-8.2 9.39,-8.31 23.200002,-14.2 35.280002,-17.28 z"
     id="path8" />
  <path
     class="st72"
     d="m 76.968498,123.85354 c 9.46,18.01 23.960002,31.06 44.300002,35.56 l 1.78,1.88 c 1.69,2.47 3.81,3.15 6.37,2.05 l 2.39,0.16 c 0.09,4.68 6.55,5.32 7.06,0.56 5.83,-1.02 11.29,-0.54 16.37,1.45 -1.24,-2.27 -0.93,-3.43 0.93,-3.49 0.42,-2.18 4.75,-2.66 5.76,-0.72 2.51,-1.84 5.52,-2.97 9.04,-3.36 2.81,-1.3 5.32,-1.62 7.52,-0.96 0.13,-2.31 5.41,-4.12 7.2,-2.88 2.98,-2 6.58,-3.28 6.48,1.44 -23.33,18.73 -50.71,18.66 -78.49,9.73 -21.450002,-6.89 -39.940002,-16.16 -44.630002,-39.97 -0.47,-3.25 6.85,-4.13 7.92,-1.44 z"
     id="path10" />
  <path
     class="st41"
     d="m 86.328498,35.293538 c 1.82,-1 2.78,-1.33 2.92,1 -2.39,10.05 -11.18,14.77 -19.6,19.01 -5.07,3.5 -5.45,5.95 -4.47,12.14 l -1.88,1.7 c -6.74,2.16 -16.31,-1.48 -19.44,-7.92 0.15,-2.58 2.42,-4.16 6.82,-4.74 l 6.58,-7.01 c -5.94,-5.19 -8.63,-10.18 1.72,-9.13 10.45,5.25 18.81,0.84 27.36,-5.04 z"
     id="path12" />
  <path
     class="st16"
     d="m 151.8485,68.413538 c 4.81,-0.32 9.22,1.67 13.68,2.88 2.06,1.09 3.46,2.35 4.2,3.76 5.59,-0.31 9.66,1.45 12.19,5.28 l 3.06,2.48 c 0.63,0.23 0.63,0.47 0,0.72 0.27,0.11 0.5,0.24 0.64,0.44 0.39,0.58 0.64,1.14 0.87,1.8 1.23,3.55 2.27,6.77 2.86,10.07 4.07,0.62 9.6,3.66 7.15,7.860002 -0.2,0.63 -0.44,0.62 -0.72,0 -1.36,0.99 -1.81,0.03 -2.16,-1.44 -4.19,1.3 -8.98,-3.140002 -11.17,-6.930002 -3.88,0.46 -5.36,-0.55 -4.45,-3.04 l -1.54,-0.18 c -2.05,-2.99 -4.49,-5.13 -7.33,-6.41 l -1.46,-0.6 c -0.91,-2.1 -2.34,-3.58 -4.3,-4.44 -1.14,1.91 -2.4,0.04 -1.19,-1.94 -4.5,-5.9 -13.07,-8.26 -18.53,-2.37 1.47,3.05 -0.3,5.33 -5.3,6.84 -2.03,3.37 -6.03,4.94 -12.01,4.71 l -0.33,2.12 c 3.85,0.83 5.01,4.98 2.76,7.83 -1.68,-0.18 -2.87,0.57 -3.56,2.250002 -0.2,0.63 -0.44,0.62 -0.72,0 -0.96,-0.04 -1.95,0.25 -2.96,0.86 -0.49,-0.19 -4.29,-9.780002 0.38,-8.160002 -0.81,-4.64 1.61,-6.37 5.46,-8.54 l 0.24,-1.99 c -4.23,-6.2 -1.87,-7.14 4.16,-8.57 -1.54,-4.55 2.56,-6.54 6.18,-4.48 4.65,-0.75 9.28,-1.02 13.9,-0.8 z"
     id="path14" />
  <path
     class="st89"
     d="m 179.9285,41.053538 c -1.5,0.17 2.12,3.6 4,5.05 8.4,4.03 14.41,9.77 18.04,17.22 2.62,-0.25 4.39,0.25 5.32,1.49 -0.93,1.17 -3.36,0.84 -4.71,0.75 -6.87,-0.49 -21.87,-7.08 -26.98,-11.9 -4.65,-4.39 -6.64,-10.8 -7.91,-16.92 1.36,-1.22 10.44,3.65 12.24,4.32 z"
     id="path16" />
  <path
     class="st74"
     d="m 86.328498,35.293538 c 1.4,-0.97 5.39,-4.71 6.13,-5.03 1.32,-0.58 1.67,2.52 1.73,3.34 1,14.94 -12.2,20.26 -21.17,27.62 -3.58,2.94 -4.46,6.23 -9.72,7.92 1.16,-2.43 -0.26,-4.67 0.06,-7.49 0.85,-7.57 10.65,-9.39 16.02,-13.51 3.42,-2.63 6.7,-6.51 8.08,-10.65 0.46,-1.38 1.01,-2.51 -1.11,-2.19 z"
     id="path18" />
  <path
     class="st102"
     d="m 192.1685,155.53354 c -2.97,-2.46 -2.66,-3.23 -6.48,-1.44 l 0.23,-1.84 c 4.21,-3.36 8.09,-7.09 11.63,-11.19 l 1.09,0.07 -0.11,-1.55 c 5.94,-9.84 9.08,-20.67 9.2,-32.16 l 0.99,-3.74 c -1.63,-1.12 -1.13,-1.9 0.72,-2.16 8.81,22.06 0,40.12 -17.28,54 z"
     id="path20" />
  <path
     class="st12"
     d="m 151.8485,68.413538 c -3.04,0.2 -6.46,0.58 -9.49,0.88 -2.56,0.25 -4.86,2.02 -7.06,1.64 l 1.44,-1.8 c -5.09,-0.47 -3.99,3.12 -2.88,6.47 -3,-0.45 -5.22,0.45 -7.91,1.45 l 3.6,8.62 c -5.73,-1.24 -5.65,3.35 -7.25,7.37 -0.2,0.51 -1.24,0.53 -1.36,1.06 -0.46,1.96 0.25,4.09 0.71,5.970002 l 1.44,-2.160002 c 1.09,0.2 1.4,1.18 1.43,2.160002 1.12,2.49 2.32,5.13 3.6,7.92 1.17,-0.43 1.66,0.6 0.72,1.44 0.89,1.38 2.73,8.46 2.16,9.34 -1.03,1.58 -2.24,1.35 -3.8,0.99 -0.52,1.94 -1.42,3.06 -2.67,3.35 -0.2,0.63 -0.44,0.62 -0.72,0 l -0.98,-0.71 c -0.3,-6.06 -0.87,-12.18 -2.35,-18.09 -1.52,-6.070002 -3.56,-9.000002 -7.93,-13.170002 -1.82,-1.61 -2.09,-5.16 0.46,-5.47 l 1.19,-0.1 c 4.86,5.91 6.63,6.19 5.29,0.82 -2.31,0.96 0.14,-6.97 0.51,-7.22 l 3.97,0.25 c -1.05,-7.28 3.27,-13.39 11.36,-11.75 1.93,-0.05 3.66,0.84 5.4,0.78 3.37,-0.12 7.85,-2.06 11.16,-0.06 z"
     id="path22" />
  <path
     class="st73"
     d="m 184.9685,77.773538 c 1.81,1.55 3.97,2.75 6.48,3.6 3.29,0.92 2.61,1.65 4.32,2.88 0.55,1.14 0.84,2.64 0.88,4.47 4.06,3.62 5.17,8.56 3.31,14.800002 0.8,2.58 1.07,5.03 0.82,7.36 1.94,-3.48 3.87,-4.68 5.79,-3.59 1.33,2.76 0.32,13.23 -1.01,15.83 -0.37,0.73 -1.16,1.13 -1.87,1.45 l -1.57,2.14 c -1.24,5.66 -3.12,7.59 -5.63,5.78 l -0.33,-2.06 3.96,-8.17 c -0.84,0.49 -1.77,0.66 -2.78,0.51 -0.02,2.3 -1.85,7.37 -4.57,6.04 -2.72,-1.33 1.51,-9.71 3,-11.44 0.1,-5.28 0.49,-10.73 1.18,-16.33 -2.14,-3.100002 -3.44,-6.400002 -3.9,-9.900002 -2.34,2.02 -3.96,2.56 -4.85,1.63 -0.45,-3.58 -1.52,-6.66 -3.23,-9.24 -0.07,-0.22 0.08,-0.52 0,-0.72 -2.32,-0.91 -4.61,-4.06 -3.6,-6.48 1.28,0.47 2.35,0.92 3.6,1.44 z"
     id="path24" />
  <path
     class="st41"
     d="m 179.9285,41.053538 c 4.37,1.62 6.16,2.25 10.8,2.88 l -0.09,1.43 c 5.94,-1.25 11.64,3.06 13.05,8.65 1.81,-1.02 2.32,-0.41 1.44,1.44 3.01,1.18 4.69,4.06 5.04,8.64 -1.01,0.24 -1.21,0.61 -2.88,0.72 -8.5,0.57 -5.47,-0.16 -8.75,-5.29 -5.32,-8.31 -15.37,-9.55 -19.36,-16.64 -0.8,-1.43 -1.47,-2.03 0.75,-1.83 z"
     id="path26" />
  <path
     class="st41"
     d="m 209.4485,101.53354 c -0.04,0.8 -0.38,1.46 -0.72,2.16 -0.08,2.59 -0.8,3.79 -2.16,3.6 -4.38,1.84 -5.93,8.34 -10.07,10.8 -0.85,-4.11 1.57,-2.41 2.06,-2.93 0.3,-0.32 -0.02,-2.04 0.28,-2.97 1.84,-5.6 0.4,-3.08 -0.23,-7.38 -0.5,-3.41 1.09,-7.750002 0.78,-10.080002 -0.39,-2.97 -6.89,-4.57 -3.62,-10.48 7.67,5.54 10.14,8.42 13.68,17.280002 z"
     id="path28" />
  <path
     class="st48"
     d="m 75.528498,7.9335383 4.08,-0.35 c 1.01,0.62 -2.09,7.5699997 -4.08,6.1099997 -1.07,2.93 -2.99,5.57 -5.76,7.92 -0.05,2.46 -1.25,4.62 -3.6,6.48 1.01,2.21 -0.93,7.91 -2.88,9.36 -3.61,0.11 -6.19,-1.87 -7.92,-5.04 -0.26,-1.01 0.14,-2.08 1.22,-3.23 -0.39,-5.17 1.13,-7.46 4.57,-6.88 -1.38,-2.38 -1.87,-4.53 -1.46,-6.46 1.11,-1.21 1.41,-1.77 2.88,-2.88 1.82,-0.87 2.78,-0.85 3.49,1.17 0.82,7.67 5.54,0.8 3.3,-3.08 l 0.41,-1.6799997 c 2.26,-0.72 3.03,-1.33 5.76,-1.44 z"
     id="path30" />
  <path
     class="st92"
     d="m 267.7685,100.09354 -23.73,-5.430002 c -1.23,-0.83 -5.7,-11.9 -5.06,-12.57 8.72,2.93 17.67,7.86 24.81,13.71 1.34,1.1 3.86,2.49 3.99,4.290002 z"
     id="path32" />
  <path
     class="st56"
     d="m 238.2485,162.73354 c 2.34,0.76 3.92,2.85 4.73,6.29 0.54,3.05 1.36,4.56 2.47,4.51 -0.14,5.48 -0.4,13.59 -1.79,18.74 -0.18,0.67 -0.18,1.62 -1.08,1.41 l -9.23,-27.14 c -0.04,-1.99 3.4,-3.13 4.91,-3.82 z"
     id="path34" />
  <path
     class="st86"
     d="m 246.1685,123.85354 c 4.92,2.21 8.76,5.81 11.52,10.8 2.37,1.82 5.69,9.94 6.69,13.11 0.23,0.72 1.05,2.3 0.15,2.73 l -18.78,-16.5 c -2.24,-2.78 -0.42,-7.11 0.42,-10.14 z"
     id="path36" />
  <path
     class="st28"
     d="m 76.968498,123.85354 c -2.87,-0.02 -5.45,-0.36 -7.92,1.44 -2.82,-14.33 0.31,-19.38 8.64,-30.240002 l 1.05,2.01 c -2.3,8.800002 -2.59,17.940002 -1.77,26.790002 z"
     id="path38" />
  <path
     class="st56"
     d="m 64.008498,131.05354 c 0.33,0.88 2.74,5.25 2.16,5.76 -6.65,-0.9 -17.92,6.62 -23.46,6.45 -1.79,-0.05 -2.4,-2.95 -3.18,-4.29 -0.06,-0.41 -0.1,-0.81 -0.06,-1.21 0.39,-3.55 19.04,-7.3 22.9,-7.86 l 1.64,1.14 z"
     id="path40" />
  <path
     class="st104"
     d="m 58.968498,40.333538 c 0.37,3.11 -4.6,0.69 -5.77,1.09 -0.18,7.14 10.14,5.37 2.85,11.49 -1.72,1.44 -4.17,4.48 -4.59,4.76 -1.96,1.26 -5.66,0.75 -7.61,3.55 -1.44,-2.97 -1.15,-12.83 0.72,-15.84 0.32,-1.17 0.8,-1.65 1.44,-1.44 1.32,-1.07 6.94,-0.22 5.05,1.66 -0.43,0.43 -1.41,-2.73 -1.45,-3.1 -5.87,0.96 -1.86,-4.73 2.34,-4.42 -0.35,-1.54 0.07,-2.46 1.26,-2.78 1.07,1.86 3.83,4.07 5.76,5.04 z"
     id="path42" />
  <path
     class="st45"
     d="m 78.408498,123.85354 c -0.3,1.34 -0.8,1.16 -1.44,0 -3.4,-10.44 -1.46,-18.38 0.72,-28.800002 2.56,-3.34 3.71,-5.56 7.2,-8.64 2.58,7.3 -2.6,13.53 -4.87,19.970002 -1.66,4.72 -3.7,12.81 -1.61,17.47 z"
     id="path44" />
  <path
     class="st52"
     d="m 182.0885,10.813538 2.88,5.04 c 1.13,1.57 1.44,3.52 0.91,5.86 3.94,2.99 4.89,7.6 -0.19,9.26 -4.94,-6.76 -9.81,-13.51 -14.39,-20.53 -0.31,-1.5499997 0.73,-1.0999997 1.81,-1.0899997 2.81,0.02 6.38,0.9599997 8.98,1.4699997 z"
     id="path46" />
  <path
     class="st41"
     d="m 229.6085,126.73354 c -0.04,-2.08 0.24,-7.33 1.37,-8.9 1.43,-1.98 12.52,-2.07 15.18,-1.89 0.4,0.36 -3.32,8.37 -3.6,10.08 0.61,2.04 -11.06,2.36 -11.89,2.1 l -1.07,-1.38 z"
     id="path48" />
  <path
     class="st36"
     d="m 190.0085,12.973538 c 4.81,1.83 7.55,3.19 11.52,6.48 -0.32,0.86 -0.27,1.11 -0.23,1.19 0.68,1.4 1.77,3.7 0.23,4.57 0.59,2.44 0,3.59 -2.46,2.4 -0.98,2.35 -3.77,4.43 -6.18,3.36 l -1.73,-0.45 c -2.66,-4.88 -4.49,-9.77 -5.47,-14.67 1.45,-1.27 2.64,-0.52 3.58,2.27 -2.45,-4.47 -2.2,-6.18 0.74,-5.15 z"
     id="path50" />
  <path
     class="st62"
     d="m 221.6885,151.21354 c 1.26,-1.34 4.31,-3.7 6.05,-3.61 1.25,0.06 14.91,6.53 16.23,7.6 1.2,0.98 1.72,1.53 1.47,3.21 -3.12,-0.04 -6.52,0.91 -9.36,2.16 l -1.76,0.06 c -4.26,-2.99 -8.52,-5.77 -12.78,-8.33 l 0.14,-1.1 z"
     id="path52" />
  <path
     class="st56"
     d="m 42.408498,107.29354 c 1.09,0 1.68,0.98 1.77,2.98 4.17,-0.17 15.11,0.52 17.46,2.94 0.36,0.37 0.66,0.82 0.93,1.28 -0.03,2.15 0.02,4.32 0,6.48 -6.74,-2.11 -13.72,-3.61 -20.88,-3.59 -0.1,-3.82 0.16,-7.7 0,-11.52 1.68,-1.68 2.44,0.24 0.72,1.44 z"
     id="path54" />
  <path
     class="st20"
     d="m 76.968498,190.09354 c 0.43,-2.98 0.19,-5.62 -0.72,-7.92 10.65,-3.72 9.17,4.64 8.63,12.59 -0.08,1.21 -0.86,8.31 -1.79,8.27 -1.65,-0.07 -5.51,-10.95 -6.12,-12.95 z"
     id="path56" />
  <path
     class="st61"
     d="m 192.8885,30.973538 c 2.35,-2.57 5.28,-0.66 4.32,-5.76 0.61,-0.74 4.64,3.71 4.32,0 2.88,0.51 3.41,6.53 3.6,9.36 -1.39,3.26 -3.59,5.42 -7.2,5.76 -4.34,1.13 -4.88,-0.04 -4.85,-3.99 -1.15,-2.45 -1.22,-4.24 -0.19,-5.37 z"
     id="path58" />
  <path
     class="st67"
     d="m 135.2885,67.693538 c -0.51,0.01 -5.35,0.92 -5.75,1.09 -1.86,0.81 -5.24,7.61 -5.09,9.31 0.16,1.84 4.23,3.83 2.28,5.85 -1.32,1.36 -3.29,0.22 -3.31,3.18 -0.97,-0.91 -1.69,-2.77 -1.82,-4.04 -0.09,-0.93 2.78,-1.91 1.45,-3.15 -0.1,-0.1 -2.69,-0.08 -2.83,0.04 -0.31,0.29 -0.63,5.37 -0.77,6.43 0.4,1.52 1.13,4.78 -0.32,4.38 -0.99,-0.27 -5.43,-6.02 -6.16,-7.26 2.65,-1.44 5.25,0.46 5.76,0 0.32,-0.29 0.54,-4.87 0.73,-5.05 0.56,-0.55 4.09,0.98 4.31,0.72 1.46,-1.68 -2.51,-3.15 -2.81,-4.08 -0.75,-2.34 2.71,-3.87 -1.86,-4.56 l 1.07,-1.44 c 4.6,-1.17 10.48,-3.37 15.12,-1.44 z"
     id="path60" />
  <path
     class="st2"
     d="m 236.8085,85.693538 c 0.43,1.28 3.64,7.51 3.27,7.94 -2.12,0.91 -3.99,2.15 -5.77,3.6 -5.36,4.370002 -5.7,8.850002 -9.02,-1.46 -0.19,-0.84 -0.13,-1.53 0.17,-2.07 l 9.63,-8.42 z"
     id="path62" />
  <path
     class="st85"
     d="m 46.008498,104.41354 c 5.48,2.1 11.17,3.83 16.59,6.14 0.83,0.61 -0.01,2.56 -0.03,3.94 -4.35,-1.33 -8.89,-2.29 -13.41,-2.79 -1.4,-0.15 -6.52,0.16 -6.75,-0.09 -0.15,-0.16 0.05,-3.42 0,-4.32 0.31,-3.2 1.51,-4.16 3.6,-2.88 z"
     id="path64" />
  <path
     class="st82"
     d="m 213.7685,178.57354 c -0.11,0.8 -0.6,1.36 -1.48,1.68 0.16,4.07 -0.07,8.07 -0.68,12 -2,3.16 -3.95,6.56 -7.19,8.64 l 1.75,-22.37 c 2.37,-1.63 5.25,-0.47 7.61,0.05 z"
     id="path66" />
  <path
     class="st66"
     d="m 7.8484975,135.37354 14.0400005,-17.25 c 1.22,0.89 5.01,5.14 4.36,6.48 -0.8,1.64 -15.41,10.49 -18.4000005,10.77 z"
     id="path68" />
  <path
     class="st3"
     d="m 192.8885,30.973538 c 1.06,2.79 2.52,6.6 1.44,9.35 1.18,-0.07 2.42,0.12 3.6,0 -6.55,3.22 -9.16,-5.15 -12.24,-9.36 0.21,-2.04 2.13,-2.4 2.24,-4.7 0.05,-0.97 -3.22,-2.91 -3.5,-4.39 -0.19,-1.05 0.75,-3.97 0.54,-6.03 0.24,-0.62 0.48,-0.62 0.72,0 2.01,3.06 5.84,11.55 7.2,15.12 z"
     id="path70" />
  <path
     class="st62"
     d="m 71.928498,146.89354 0.95,1.99 c -4.01,2.74 -7.94,5.64 -11.78,8.7 l -2.13,0.11 c -1.43,-0.7 -4.12,-0.84 -5.76,-1.45 -0.78,-1.01 14.87,-12.31 16.2,-13.67 0.25,-0.1 2.05,3.72 2.52,4.32 z"
     id="path72" />
  <path
     class="st102"
     d="m 236.0885,160.57354 c -1.21,0.54 -2.64,2.89 -4.56,2.72 -2.93,-0.25 -9,-5.83 -12.72,-5.62 -0.05,-2.59 1.18,-4.65 2.88,-6.47 4.5,3.5 11,4.4 14.4,9.36 z"
     id="path74" />
  <path
     class="st0"
     d="m 213.7685,47.533538 c 1.94,7.63 9.06,13.5 -3.6,16.56 -2.71,-0.17 -2.43,-5.45 -3.29,-7.17 -0.3,-0.59 -1.31,-0.94 -1.75,-1.47 0.69,-3.24 2.89,-0.91 3.6,1.44 l 2.31,-2.95 c -3.59,-2.62 -1.19,-9.47 2.73,-6.41 z"
     id="path76" />
  <path
     class="st54"
     d="m 56.088498,159.13354 c 6.93,2.02 3.98,3.94 3.2,7.89 -0.61,3.12 -0.85,6.33 -1.77,9.39 -2.54,-1.46 -5.23,-2.34 -8.21,-2.24 l -0.42,-0.64 c 1.94,-2.68 2.56,-5.49 3.02,-8.77 0.69,-3.07 2.09,-4.94 4.18,-5.63 z"
     id="path78" />
  <path
     class="st75"
     d="m 66.888498,73.453538 c 2.47,-1.76 6.42,3.56 4.32,5.76 -1.02,1.16 -3.24,6.05 -4.63,5.74 -1.15,-0.26 -9.85,-8.58 -11.92,-9.7 4.2,-0.59 8.23,-0.02 12.24,-1.8 z"
     id="path80" />
  <path
     class="st24"
     d="m 213.7685,47.533538 c -4.93,0.34 -3.7,6.65 1.44,6.12 -2.25,1.42 -4.51,1.45 -6.12,3.95 -0.44,0.06 -0.3,-0.64 -0.36,-0.71 -5.01,-4.66 -3.16,-8.67 -0.35,-14.07 -0.74,-1.89 -0.87,-3.44 -0.37,-4.65 l 2.87,-7.19 c 2.01,5.1 1.61,11.52 2.89,16.55 z"
     id="path82" />
  <path
     class="st83"
     d="m 75.528498,7.9335383 13.68,-2.15 c -3.15,4.5699997 -6.92,8.6799997 -10.43,12.9699997 -0.75,0.92 -2.11,1.6 -2.53,2.14 -3.54,-0.15 -2.41,-4.62 -0.72,-7.2 1.11,-1.54 2.15,-4.1799997 3.6,-5.7499997 -1.19,0.02 -2.41,-0.06 -3.6,0 z"
     id="path84" />
  <path
     class="st105"
     d="m 58.968498,157.69354 c 3.13,-3.38 7.05,-5.7 10.82,-8.26 1.04,-0.71 2.26,-0.76 2.14,-2.54 1.2,1.54 2.98,3.19 4.31,4.68 -1.82,1.1 -12.49,9.6 -13.32,9.6 -0.44,0 -2.93,-2.98 -3.95,-3.48 z"
     id="path86" />
  <path
     class="st75"
     d="m 216.6485,131.05354 c 0.5,-2.06 1.42,-9.3 2.65,-10.13 1.95,-1.32 7.12,-1.73 9.59,-2.82 -0.87,2.24 -0.89,5.07 -1.44,7.2 l -0.33,4.06 c -0.27,0.48 -9.66,3.15 -10.47,1.7 z"
     id="path88" />
  <path
     class="st65"
     d="m 56.718498,177.94354 c 0.96,1.49 -2.75,13.18 -4.59,15.02 -1.85,0 -3.38,-14.95 -3.24,-17.26 1.23,0.3 7.51,1.76 7.83,2.25 z"
     id="path90" />
  <path
     class="st42"
     d="m 82.728498,167.77354 c 1.49,0.2 4.45,1.83 5.41,2.86 2.54,2.73 -0.3,3.36 -1.69,5.53 -0.65,1.01 -1.42,3.72 -1.58,3.85 -0.25,0.2 -4.43,-0.84 -6.46,-0.72 -3.38,-2.11 0.4,-11.14 4.32,-11.52 z"
     id="path92" />
  <path
     class="st4"
     d="m 59.688498,15.853538 c 2.84,4.15 3.57,8.98 5.03,13.68 -2.47,-0.28 -4.67,-10.2 -6.32,-4.53 -0.93,3.2 1.11,4.87 -3.03,7.41 -3.72,-6.81 -0.12,-11.74 4.32,-16.56 z"
     id="path94" />
  <path
     class="st75"
     d="m 37.368498,143.29354 c -0.48,3.19 -6.32,11.06 -10.08,9.36 -0.4,-0.19 -1.55,0.15 -2.16,0 -0.87,-0.99 6.58,-13.79 7.91,-14.78 1.47,-1.08 3.92,4.52 4.33,5.42 z"
     id="path96" />
  <path
     class="st75"
     d="m 204.4085,165.61354 c 1.37,-0.23 4.51,-0.19 5.75,0.37 1.78,0.81 11.16,9.25 9.37,11.14 -0.28,0.29 -6.28,-1.27 -7.92,-1.44 -2.79,0.03 -4.44,-1.74 -4.95,-5.29 -2.18,-1.67 -2.93,-3.27 -2.25,-4.79 z"
     id="path98" />
  <path
     class="st26"
     d="m 218.8085,149.77354 c -0.65,0.94 -1.9,6.27 -2.17,6.48 -2.67,-1.85 -8.5,-2.42 -10.79,-3.96 -1.19,-0.8 -0.46,-0.77 0,-1.45 1.08,-1.6 3.02,-3.46 4.33,-5.4 2.09,-0.03 9.26,1.58 8.64,4.32 z"
     id="path100" />
  <path
     class="st80"
     d="m 39.528498,111.61354 c -0.07,1.15 0.22,5.48 -0.03,5.73 -0.14,0.14 -2.58,0.22 -3.86,0.82 -1.56,0.73 -7.71,5.51 -8.34,4.97 -0.06,-1.69 -1.22,-3.71 -2.17,-5.04 1.97,-3.04 6.61,-5.91 10.08,-5.76 -0.23,-2.44 3.17,-2.86 4.32,-0.72 z"
     id="path102" />
  <path
     class="st106"
     d="m 17.938498,169.93354 c -0.66,-0.84 4.38,-14.53 5.14,-15.01 1.43,-0.9 6.07,0.9 6.34,2.49 0.18,1.1 -10.57,13.66 -11.48,12.52 z"
     id="path104" />
  <path
     class="st10"
     d="m 223.1285,96.493538 c 0.88,2.16 4.18,6.600002 3.27,8.610002 -0.22,0.48 -7.16,7.54 -7.58,7.22 -0.98,-2.38 -0.81,-5.67 -1.45,-7.92 l -0.2,-1.98 c 1.93,-2.16 3.92,-4.140002 5.96,-5.940002 z"
     id="path106" />
  <path
     class="st21"
     d="m 208.7285,56.893538 c -1.22,-1.46 -1.22,-1.81 -3.6,-1.44 -0.28,-0.34 -1,-0.99 -1.44,-1.44 -1.73,-3.62 -2.95,-6.79 -1.44,-10.8 2.93,-1.35 3.62,-2.88 5.76,-5.04 4.72,6.18 -1.15,7.01 -1.04,12.88 0.05,2.5 1.76,3.49 1.76,5.84 z"
     id="path108" />
  <path
     class="st98"
     d="m 39.528498,138.97354 c -0.57,-0.98 -2.79,-2.12 -1.44,-3.23 1.24,-1.01 8.35,-3.31 10.42,-3.98 4.75,-1.54 9.81,-2.21 14.39,-4.33 0.81,-0.03 0.85,2.95 1.1,3.62 -8.1,1.67 -18.17,2.37 -24.48,7.92 z"
     id="path110" />
  <path
     class="st32"
     d="m 53.208498,35.293538 c 0.82,6.65 -1.23,3.02 -4,5 -3.19,2.26 0.17,2.05 0.4,2.2 -0.22,0.92 -1.42,1.4 -3.6,1.44 -0.09,0.05 -1.39,1.35 -1.44,1.44 1.15,-6.07 2.57,-14.47 7.19,-18.72 -0.12,3.1 -0.14,5.87 1.45,8.64 z"
     id="path112" />
  <path
     class="st14"
     d="m 236.8085,85.693538 -11.52,10.08 c -0.41,-1.28 -1.46,-3.55 -1.39,-4.73 0.11,-1.92 9.76,-8.03 11.84,-9.66 0.91,1.05 0.67,3.11 1.07,4.31 z"
     id="path114" />
  <path
     class="st46"
     d="m 242.5685,126.01354 c -0.2,1.21 0.28,5.42 0,5.76 -4.17,-1.78 -7.95,1.04 -12.18,0.66 -0.49,-1.93 -0.74,-3.69 -0.77,-5.7 l 12.96,-0.72 z"
     id="path116" />
  <path
     class="st41"
     d="m 56.088498,159.13354 c -0.39,1.92 -1.83,3.2 -2.51,5.05 -1.06,2.9 -0.75,9.72 -4.69,9.35 0.01,-6.62 -3.5,-17.51 7.2,-14.4 z"
     id="path118" />
  <path
     class="st107"
     d="m 227.4485,125.29354 c -0.68,2.21 0.86,5.08 0.75,6.85 -0.2,2.98 -10.44,2.25 -12.98,3.95 -0.28,-1.86 1.04,-3.45 1.43,-5.04 1.43,-1.16 9.62,-2.62 9.97,-3 0.1,-0.11 0.7,-2.28 0.83,-2.76 z"
     id="path120" />
  <path
     class="st62"
     d="m 238.2485,162.73354 c 2.34,-1.08 4.54,-2.12 7.2,-2.16 -0.07,4.31 0.11,8.65 0,12.96 l -1.43,5.04 c -0.73,-5.45 -2.87,-11.18 -5.77,-15.84 z"
     id="path122" />
  <path
     class="st14"
     d="m 206.5685,68.413538 c 1.52,-0.22 3.66,-0.78 5.04,-0.36 -2.77,1.77 -5.4,8.12 -7.92,9.41 -1.86,0.95 -3.28,-2.36 -4.31,-3.28 -1.97,-1.21 -1.44,-5.18 0.72,-5.76 0.48,0 0.96,-0.03 1.44,0 1.55,0.56 3.23,0.56 5.04,0 z"
     id="path124" />
  <path
     class="st103"
     d="m 181.3685,76.333538 c 1.42,2.06 2.67,4.13 3.6,6.48 -4.27,0.58 -5.23,-3.9 -6.97,-4.91 -1.94,-1.12 -8.84,-1.15 -9.47,-1.69 -0.29,-0.25 -0.19,-1.69 -0.8,-2.44 -0.74,-0.91 -2.63,-0.66 -2.2,-2.47 5.37,1.46 10.62,3.12 15.84,5.04 z"
     id="path126" />
  <path
     class="st51"
     d="m 202.2485,43.213538 c 1.79,2.37 0.6,3.58 0.69,5.43 0.1,2.07 2.49,3.24 0.75,5.37 -1.08,-1.11 -7.33,-7.31 -7.95,-7.59 -2.06,-0.92 -5.92,2.18 -7.89,-1.42 l 2.88,-1.08 c 4.74,0.64 6.83,1.43 11.52,-0.72 z"
     id="path128" />
  <path
     class="st58"
     d="m 213.7685,178.57354 c 0.77,0.17 3.24,0.36 3.54,0.78 1.16,1.65 -4.49,10.99 -5.7,12.9 -1.13,-3.54 -0.98,-8.86 -0.73,-12.62 0.14,-2.05 1.78,-0.75 2.89,-1.06 z"
     id="path130" />
  <path
     class="st20"
     d="m 88.488498,160.57354 c 3.01,1.74 6.22,3.19 9.36,4.68 -0.34,0.75 -5.39,4.74 -6.02,4.63 -0.53,-0.09 -4.42,-4.36 -6.22,-4.99 -1.66,-1.45 0.88,-5.08 2.88,-4.32 z"
     id="path132" />
  <path
     class="st14"
     d="m 217.3685,104.41354 c -0.43,-1.48 -3.09,-4.950002 -2.51,-6.500002 0.15,-0.41 6.08,-5.56 6.48,-5.73 1.66,-0.72 1.44,3.46 1.79,4.31 -0.12,3.23 -3.93,5.470002 -5.76,7.920002 z"
     id="path134" />
  <path
     class="st15"
     d="m 202.9685,163.45354 c -1.83,0.41 -4.07,5.64 -4.67,5.69 -1.25,0.1 -5.68,-4.19 -7.57,-4.26 -0.59,-0.84 5.75,-4.49 6.48,-5.03 1.82,-1.22 5.17,1.76 5.76,3.6 z"
     id="path136" />
  <path
     class="st68"
     d="m 210.1685,145.45354 c 0.9,-1.34 1.16,-3.21 2.52,-4.31 3.05,2.43 7.39,3.87 11.16,5.04 -0.92,1.4 -4.03,2.12 -5.03,3.59 -2.62,-1.76 -6.71,-1.87 -8.64,-4.32 z"
     id="path138" />
  <path
     class="st108"
     d="m 31.608498,108.73354 c 0.67,-0.59 6.74,-7.88 7.92,-6.48 0.43,3.39 0.19,6.12 0,9.36 -1.31,0.02 -3.16,0.17 -4.32,0.72 -2.27,1.98 -5.27,-1.38 -3.6,-3.6 z"
     id="path140" />
  <path
     class="st25"
     d="m 69.768498,9.3735383 c 4.74,4.2399997 -1.67,14.0099997 -4.5,7.7199997 -0.89,-1.98 0.27,-3.34 -2.7,-4.12 2.99,-2.26 3.66,-2.47 7.2,-3.5999997 z"
     id="path142" />
  <path
     class="st100"
     d="m 204.4085,165.61354 c 0.8,1.64 2.58,2.51 3.49,4.07 1.41,2.42 0.59,5.19 3.71,6.01 -1.75,-0.18 -4.74,0.41 -6.04,0.05 -0.64,-0.18 -0.45,-1.71 -1.17,-2.53 -1.78,-2.04 -5.51,-0.94 -2.78,-5.71 0.74,-1.3 1.38,-1.65 2.79,-1.88 z"
     id="path144" />
  <path
     class="st40"
     d="m 201.5285,19.453538 c 0.5,0.41 1.41,0.33 2.18,1.24 3.42,4.08 3.42,9.2 1.42,13.88 -1.8,-2.08 -2.63,-6.38 -3.6,-9.36 -0.61,-1.86 -3.36,-6.06 0,-5.76 z"
     id="path146" />
  <path
     class="st63"
     d="m 257.6885,134.65354 c -3.86,-2.97 -4.67,-5.69 -9.96,-8.43 -1.3,-0.67 -1.99,0.27 -1.56,-2.37 0.47,-1.7 0.53,-3.61 1.8,-5.04 3.55,5 7.39,10.12 9.72,15.84 z"
     id="path148" />
  <path
     class="st50"
     d="m 31.608498,108.73354 c 0.99,1.62 1.54,3.19 3.6,3.6 -0.15,0.07 -0.73,1.13 -1.62,1.58 -2.8,1.42 -5.67,2.73 -8.46,4.18 -0.28,-0.39 -2.15,-1.25 -2.15,-1.8 0,-0.46 5.56,-5.7 6.45,-6.53 0.82,-0.77 1.96,-0.83 2.18,-1.03 z"
     id="path150" />
  <path
     class="st14"
     d="m 88.488498,160.57354 -2.88,4.32 c -0.87,-0.3 -5.56,-0.52 -5.76,-0.72 l 2.17,-7.92 c 0.34,-0.27 5.51,3.77 6.47,4.32 z"
     id="path152" />
  <path
     class="st98"
     d="m 78.408498,84.253538 c -2,2.09 -3.59,4.93 -5.4,7.2 -4.96,-3.43 -2.18,-6.55 1.08,-10.08 1.51,-1.59 5.06,0.83 4.32,2.88 z"
     id="path154" />
  <path
     class="st34"
     d="m 27.288498,152.65354 c 4.45,-1.51 6.44,-6.78 10.08,-9.36 0.16,0.35 1.01,0.78 1.17,1.39 0.53,1.98 -6.09,7.16 -6.93,9.82 -1.48,0.94 -3.27,-1.36 -4.32,-1.85 z"
     id="path156" />
  <path
     class="st55"
     d="m 71.208498,28.093538 c -0.41,1.61 -1.38,2.9 -2.16,4.32 -2.47,1.97 -3.38,-1.18 -2.22,-3.48 l -0.66,-0.84 c 0.92,-2.18 1.06,-5.09 3.6,-6.48 1.63,-2.61 4.77,-5.99 4.82,-0.81 z"
     id="path158" />
  <path
     class="st58"
     d="m 82.728498,167.77354 c -2.64,3.16 -4.68,7.26 -4.32,11.52 -1.26,0.08 -2.37,0.57 -3.6,0.72 -0.77,-0.87 2.91,-11.74 4.07,-12.14 0.82,-0.28 2.9,-0.23 3.85,-0.1 z"
     id="path160" />
  <path
     class="st99"
     d="m 76.248498,20.893538 c -1.53,1.95 -2.66,5.68 -5.04,7.2 0.24,-0.93 -0.18,-2.47 0.16,-3.78 0.5,-1.91 2.29,-3.38 1.99,-5.58 l -3.59,2.88 c 0.78,-3.11 4.15,-5.69 5.76,-7.92 -0.12,2.92 -0.98,4.55 0.72,7.2 z"
     id="path162" />
  <path
     class="st7"
     d="m 66.888498,73.453538 c 0.89,-0.39 2.85,-2.78 3.97,-2.7 0.38,0.03 5.03,3.99 6.11,4.5 -2.61,1.08 -3.91,1.86 -5.76,3.96 -0.59,-2.31 -2.28,-4.55 -4.32,-5.76 z"
     id="path164" />
  <path
     class="st19"
     d="m 190.0085,12.973538 c -3.51,-0.12 0.32,2.39 0.57,3.38 0.32,1.25 0.14,2.55 0.14,3.81 -3.39,0.77 -2.4,-3.41 -5.04,-4.32 -0.07,-0.11 -0.64,0.11 -0.72,0 -1.11,-1.7 -1.83,-3.38 -2.16,-5.04 2.52,0.54 4.79,1.24 7.2,2.16 z"
     id="path166" />
  <path
     class="st35"
     d="m 78.408498,84.253538 -4.32,-2.88 c 1.36,-1.48 4.15,-4.22 6.46,-3.26 5.28,2.19 -0.62,4.56 -2.14,6.14 z"
     id="path168" />
  <path
     class="st95"
     d="m 69.048498,32.413538 c -1.79,3.26 -1.94,4.93 -5.76,5.04 -0.09,-3.36 1.62,-6.38 2.88,-9.36 l 2.15,-1.44 c 0.44,0.55 -2.32,4.98 0.73,5.76 z"
     id="path170" />
  <path
     class="st23"
     d="m 197.2085,159.85354 c 0.56,-0.41 1.22,-2.13 2.15,-2.55 1.98,-0.89 5.59,5.52 7.93,5.44 0.04,1.21 -3.7,0.83 -4.31,0.71 -2.08,-0.39 -4.17,-2.28 -5.76,-3.6 z"
     id="path172" />
  <path
     class="st37"
     d="m 125.9285,54.743538 0.73,7.19 c -4.58,1.2 -4.69,-2.77 -5.04,-6.47 z"
     id="path174" />
  <path
     class="st11"
     d="m 151.1385,56.903538 c -0.91,3.5 -0.72,5.97 -5.04,5.03 0.19,-1.71 -0.48,-4.3 0.34,-5.78 0.75,-1.35 3.37,1.32 4.7,0.75 z"
     id="path176" />
  <path
     class="st79"
     d="m 200.0885,68.413538 -0.72,5.76 c -0.51,-0.46 -1.75,-0.71 -2.51,-1.43 -2.41,-2.27 -0.53,-1.65 0.27,-2.75 0.34,-0.46 0.26,-1.56 0.76,-2 0.88,-0.76 1.8,0.41 2.2,0.42 z"
     id="path178" />
  <path
     class="st47"
     d="m 76.248498,182.17354 c 3.97,-1.18 1.54,5.39 0.72,7.92 -0.8,-2.6 -1.07,-5.39 -2.16,-7.91 0.45,-0.11 1.1,0.11 1.44,-0.01 z"
     id="path180" />
  <path
     class="st84"
     d="m 46.008498,104.41354 c -2.84,-0.23 -0.76,3.11 -3.6,2.88 -0.03,-0.61 -0.03,-1.25 -0.72,-1.44 -0.05,-1.26 -0.62,-2.35 -0.72,-3.6 0.79,-0.8 4.3,1.87 5.04,2.16 z"
     id="path182" />
  <path
     class="st44"
     d="m 198.6485,76.333538 c 1.36,1.39 1.21,1.76 -0.72,1.44 -1.09,-0.69 -9.12,-5.19 -2.67,-4.19 1.99,0.31 2.39,1.91 3.39,2.75 z"
     id="path184" />
  <path
     class="st60"
     d="m 150.4185,49.683538 c -0.31,-3.63 2.48,-3.67 4.31,-1.06 -0.4,2.73 -2.54,1.52 -4.31,1.06 z"
     id="path186" />
  <path
     class="st77"
     d="m 191.4485,81.373538 c -2.19,-0.61 -5.97,0.12 -6.48,-3.6 2.22,0.93 5.08,1.39 6.48,3.6 z"
     id="path188" />
  <path
     class="st39"
     d="m 197.9285,77.773538 0.72,-1.44 c 1.23,1.04 2.58,1.93 3.59,3.24 -1.41,2.26 -3.42,-1.24 -4.31,-1.8 z"
     id="path190" />
  <path
     class="st49"
     d="m 124.4885,49.703538 v 2.15 c -1.33,0.17 -2.11,0.04 -2.87,-1.09 v -1.07 c 0,0 2.87,0 2.87,0 z"
     id="path192" />
  <path
     class="st36"
     d="m 184.9685,15.853538 c -1.11,-1.6 -2.77,-2.84 -2.88,-5.04 0.23,0.05 0.49,-0.05 0.72,0 1.01,1.95 1.93,2.75 2.16,5.04 z"
     id="path194" />
  <path
     class="st79"
     d="m 206.5685,68.413538 c -1.12,0.16 -3.61,1.97 -5.04,0 1.67,0.11 3.37,-0.07 5.04,0 z"
     id="path196" />
  <path
     class="st5"
     d="m 78.408498,123.85354 c 1.29,2.88 13.93,15.59 16.94,17.98 2.85,2.27 17.070002,9.24 17.620002,10.1 l 1.5,0.61 c 0.16,1.44 2.39,3.76 3.54,2.27 1.21,-1.74 5.45,0.09 5.04,2.16 1.96,0.52 1.97,3.79 0,4.32 -20.2,-4.3 -39.430002,-17.03 -46.080002,-37.44 0.48,0 0.96,0 1.44,0 z"
     id="path198" />
  <path
     class="st22"
     d="m 112.9685,85.693538 c -0.15,0.91 -1.06,1.55 -0.62,3.07 0.37,1.27 5.42,5.46 6.67,7.8 3.82,7.170002 4.57,18.530002 4.75,26.570002 0.32,1.98 0.49,4.03 0.51,6.17 1.79,2.03 1.72,9.88 -1.23,11.11 l -0.32,4.13 c -2.35,3.26 -3.92,6.69 -4.72,10.27 l 0.36,2.88 c -1.86,-1.22 -3.66,-1.72 -5.02,-3.65 -0.49,-0.69 -0.23,-1.87 -0.39,-2.1 6,-6.57 8.71,-14.9 8.64,-23.76 l -1.29,-1.95 c -0.12,-4.86 -0.22,-9.73 -0.29,-14.61 -1.45,-1.07 -1.64,-2.99 -0.58,-5.76 l -1.63,-0.68 c -0.53,-4.67 -2.73,-7.550002 -6.06,-10.650002 l 0.49,-1.63 c -2.16,-0.06 -3.56,-0.67 -2.16,-2.88 -0.32,-2.95 0.19,-3.88 2.16,-5.76 1.81,-0.86 2.65,0.56 0.72,1.44 z"
     id="path200" />
  <path
     class="st73"
     d="m 109.3685,98.653538 c 1.49,-0.94 2.96,-0.28 4.42,1.990002 l 3.98,5.43 1.69,-0.22 c 1.54,6.95 2.88,15.21 2.16,22.32 -0.11,1.03 -1.46,3.2 -0.72,5.04 -3.69,0.31 -5.39,-2.63 -4.2,-6.01 0.43,-1.21 2.58,-1.57 2.77,-2.28 0.35,-1.36 -2.97,-2.38 -2.96,-5.03 0,-2.04 3.74,-5.29 2.96,-8.27 -5.59,0.75 -3.68,-2.03 -4.87,-5.57 -0.76,-2.24 -3.71,-4.9 -5.21,-7.390002 z"
     id="path202" />
  <path
     class="st101"
     d="m 112.2485,92.893538 c 5.23,6.05 5.23,4.06 7.2,12.960002 l -1.07,2.87 c -3.56,-2.94 -4.82,-7.67 -9.01,-10.070002 -0.44,-0.73 -0.44,-1.64 -0.72,-2.16 -1.77,-3.21 0.75,-6.24 3.6,-3.6 z"
     id="path204" />
  <path
     class="st31"
     d="m 108.6485,96.493538 c -2.12,-4.01 -6.93,-8.74 0.72,-10.08 -0.31,1.69 0.07,2.33 0.72,3.6 0.23,0.44 1.72,2.37 2.16,2.88 -1.85,-0.44 -4.04,1.7 -3.6,3.6 z"
     id="path206" />
  <path
     class="st90"
     d="m 112.9685,83.533538 c 3.94,-0.61 1.97,2.66 2.16,2.84 0.55,0.54 3.8,-0.49 2.89,3.64 2.38,0.56 1.25,-2.11 1.44,-3.61 1.27,0.72 0.49,2.66 0.74,3.83 0.1,0.45 2.69,0.98 1.06,2.65 -3.19,-2.23 -5.73,-4.24 -8.28,-7.2 0.08,-0.48 -0.04,-1.51 -0.72,-1.44 0.23,-0.22 0.49,-0.59 0.72,-0.72 z"
     id="path208" />
  <path
     class="st38"
     d="m 164.0885,156.25354 c 2.75,2.03 0.44,4.06 -2.16,5.04 -2.16,0.35 -3.68,0.47 -5.76,0.72 l -2,1.68 c -4.55,0.13 -9.1,0.12 -13.66,-0.01 -2.45,1.73 -7.57,0.98 -10.34,-0.31 -2.65,0.49 -5.62,0.42 -7.12,-2.08 -0.14,-0.95 -0.16,-3.4 0,-4.32 l 1.8,-1.01 c 5.1,0.38 9.78,1.44 14.04,3.17 0.82,-0.14 1.84,0.68 1.53,1.03 -1.46,1.66 -3.18,-1.04 0.77,-0.84 1.96,0.1 3.03,0.11 4.9,-0.19 0.1,-2.35 2.63,-2.84 3.6,-0.72 0.81,0.49 0.9,1.05 0.75,1.86 l 6.45,-2.58 c -0.42,-1.95 -0.05,-2.02 1.44,-0.72 2.25,-2.1 3.93,-2.34 5.04,-0.72 0.24,-0.63 0.48,-0.63 0.72,0 z"
     id="path210" />
  <path
     class="st27"
     d="m 156.1685,162.01354 c -1.24,1.26 0.81,2.2 0.65,3.14 -0.74,4.37 -6.52,-0.72 -8.28,-0.97 -1.89,-0.27 -3.27,0.63 -4.98,0.72 -0.98,0.05 -2.87,-0.97 -3.2,-0.73 -0.16,0.12 -0.52,2.74 -1.78,3.65 -2.66,1.91 -8.71,0.55 -7.62,-3.66 -0.89,-0.97 -6.76,4.87 -7.92,-2.87 12.46,2.65 20.62,2.2 33.12,0.72 z"
     id="path212" />
  <path
     class="st88"
     d="m 198.6485,141.13354 c -3.09,4.42 -8.19,10.18 -12.96,12.96 -2.46,1.43 -4.65,1.92 -7.2,2.88 -3.56,1.32 -3.68,-1.9 -1.44,-3.6 l 0.57,-1.67 c 5.17,-1.31 9.64,-4.17 13.41,-8.57 l 1.85,0.16 c -0.84,-2 1.87,-4.13 3.6,-2.88 1.41,-1.49 2.15,-1.43 2.16,0.72 z"
     id="path214" />
  <path
     class="st70"
     d="m 172.0085,151.93354 c 1.09,0.58 2.29,1.06 3.6,1.44 0.32,-1.23 1.19,-1.36 1.44,0 1.11,1.52 -1.51,4.12 1.44,3.6 -5.98,2.25 -10.26,3.29 -16.56,4.32 1.09,-1.57 2.33,-2.99 2.16,-5.04 l 0.45,-0.96 c 2.9,-0.38 5.15,-1.02 6.75,-1.92 -1.66,-1.01 -1.2,-1.58 0.72,-1.44 z"
     id="path216" />
  <path
     class="st33"
     d="m 125.2085,100.09354 -0.71,-5.040002 3.59,2.16 c 1.38,-7.13 -2.55,-4.86 -3.6,-5.76 -0.19,-0.16 0.55,-4.85 0.73,-5.03 0.41,-0.43 10.26,-0.13 11.51,-2.53 0.88,-1.69 -3.95,-1.43 -4.29,-1.82 -0.24,-0.28 0.54,-4.82 0.73,-4.98 1.58,-1.28 3.07,1.02 3.86,1.85 0.41,0.43 1.11,0.24 1.14,0.29 0.3,0.49 -1.42,1.46 -1.42,1.79 -0.01,2.97 5.58,-2.45 7.19,-1.81 -5.77,-4.22 4.25,-8.08 8.12,-7.75 0.49,0.04 5.97,1.51 6.25,1.67 1.47,0.87 4.2,5.31 7.22,5.38 l -2.53,1.42 c -0.8,0.64 0.35,0.67 0.38,0.73 4.78,0.82 4.44,8.19 0,8.64 l -0.9,0.35 c -1.18,4.11 -3.63,4.16 -7.35,0.16 1.99,-7.48 -11.02,-5.11 -14.97,-3.49 0.14,2.2 -0.4,4.13 -1.61,5.77 3.02,2.42 0.13,6.85 -1.81,3.7 -1.79,1.22 -2.88,2.23 -3.6,4.320002 0.72,0.44 0.96,1.16 0.72,2.16 1.29,1.85 -2.31,6.03 -4.32,5.04 -1.15,-1.25 -1.87,-3.17 -2.16,-5.76 q 0.25,-1.49 0,0 c -0.2,0.63 -0.44,0.62 -0.72,0 -1.12,2.01 -2.64,0.28 -1.44,-1.44 z"
     id="path218" />
  <path
     class="st81"
     d="m 169.1285,85.693538 c 4.54,-2.22 6.51,4.32 7.36,4.89 0.75,0.51 2.69,-0.18 3.43,1.23 l -1.42,2.52 c 6.64,-2.29 5.66,2.42 8.23,4.37 1.33,1 4.52,1.960002 6.88,3.560002 l 0.91,1.26 c 0.32,0.65 -2.01,13.18 -4.47,12.75 0.31,1.95 -0.66,3.31 -2.66,3.28 -0.84,6.49 -1.62,8.34 -8.1,5.88 -2.49,0.74 -4.88,0.72 -7.19,-0.07 -0.55,2.89 -2.16,5.53 -5.12,3.54 -2.03,-0.23 -2.2,-0.76 -0.72,-2.16 0.13,-4.35 6.7,-7.21 10.49,-8.84 -0.19,-3.12 1.79,-5.13 5.95,-6.01 l 0.39,-1.61 c -2.81,-0.95 -2.88,-3.17 -0.19,-6.68 l -3.89,-3.31 c -1.89,-5.800002 -7.23,-10.580002 -11.62,-3.590002 l -1.85,-0.2 c -1.91,-2.45 0.37,-10.32 3.6,-10.8 z"
     id="path220" />
  <path
     class="st93"
     d="m 169.1285,85.693538 c -1.93,3.34 -2.69,7.1 -3.6,10.8 l 0.97,2.12 c -2.34,8.680002 -2.38,17.410002 0.57,25.950002 l -0.83,2.17 c 0.24,0.74 0.45,1.43 0.72,2.16 1.27,0.25 1.78,0.38 0.72,1.44 2.4,0.56 5.49,7.15 4.32,9.36 2.55,0.74 6.66,5.54 5.04,7.92 2.07,0.77 2.21,2.24 0,2.88 1.34,1.25 -0.16,2.33 -1.44,2.88 -1.44,0.65 -2.01,2.42 -3.6,2.16 v -3.6 c -1.01,-0.43 -1.09,-1.43 -0.24,-3.02 -2.32,-2.55 -3.44,-5.15 -3.36,-7.78 -0.64,1.11 -0.88,0.87 -0.72,-0.72 -2.93,0.26 -3.46,-4.09 -2.88,-6.48 -2.09,0.31 -3.05,-1.46 -1.44,-2.88 -2.9,-1.69 -4.99,-8.24 -2.88,-10.8 l -1.09,-1.06 c 0.54,-3.66 0.19,-6.82 -1.05,-9.48 1.03,-2.43 1.75,-5.16 2.14,-8.17 -0.63,-0.18 -0.61,-0.42 0,-0.72 -1.96,-3.020002 0.19,-9.670002 2.88,-11.520002 0.38,-1.22 2.18,-3.2 2.13,-4.69 -0.03,-1.02 -1.59,-2.69 -2.13,-3.95 2.14,-1.86 6.08,2.85 5.76,5.04 z"
     id="path222" />
  <path
     class="st6"
     d="m 195.7685,103.69354 c -0.97,5.23 -1.75,10.94 -2.43,16.33 -1.72,1.38 -2.85,2.3 -3.33,4.55 0.31,0.63 0.04,0.84 -0.72,0.72 l -4.3,2.82 c -4.28,-0.4 -6.13,-0.13 -7.06,4.51 -1.71,1.46 -3.39,-0.02 -4.33,-1.38 -2.81,0.79 -4.78,0.49 -5.91,-0.9 -0.17,-0.42 -0.5,-0.84 -0.72,-1.44 4.03,0.82 3.3,-4.86 3.6,-5.03 0.83,-0.48 3.48,0.72 4.71,0.74 1.46,0.03 2.76,-0.73 4.13,-0.6 1.66,0.15 3.81,2.5 4.86,1.67 1.37,-1.67 1.03,-5.7 2.07,-7.16 0.57,-0.8 2.06,-0.01 2.28,-0.83 0.22,-0.82 -0.36,-2.84 -0.03,-3.17 0.3,-0.3 2.87,0.58 3.48,-1.19 0.54,-1.56 -0.27,-3.9 0.11,-5.53 0.12,-0.53 1.28,-0.44 1.41,-0.99 0.33,-1.33 -0.15,-3.11 0.02,-4.54 0.72,0.49 1.42,0.98 2.16,1.44 z"
     id="path224" />
  <path
     class="st71"
     d="m 184.9685,83.533538 c 3.48,-0.12 2.5,7.79 3.61,8.64 1.88,0.51 1.65,-1.87 2.67,-2.17 4.25,-1.25 2.93,1.97 3.88,4.49 0.63,1.67 2.74,4.84 2.87,7.410002 0.13,2.83 -1.61,7.2 -1.58,10.11 0.01,1.18 2.9,1.43 1.52,2.49 -0.24,0.19 -1.77,-0.27 -2.09,0.05 -0.38,0.37 0.08,2.08 -0.07,2.84 -0.2,0.63 -0.44,0.62 -0.72,0 -0.62,-0.16 -1.03,-0.51 -1.27,-1.1 -0.4,-0.98 1.47,-10.98 2.71,-12.58 0.01,-4.340002 -2.73,-4.750002 -6.37,-6.260002 -0.69,-0.29 -2.08,-0.1 -2.23,-0.25 -0.3,-0.3 0.19,-2.83 -0.07,-3.89 -0.78,-3.07 -1.89,-6.9 -2.84,-9.76 z"
     id="path226" />
  <path
     class="st109"
     d="m 195.0485,117.37354 c 0.44,1.78 -1.97,5.38 -3.6,5.76 -0.32,1.21 -0.8,1.69 -1.44,1.44 -1.54,-3.95 2.89,-4.39 2.94,-4.73 0.14,-1.08 -0.59,-2.47 -0.45,-3.94 0.22,-2.38 1.36,-3.61 1.79,-5.41 0.5,-2.08 -0.22,-4.51 1.48,-6.8 h 0.72 c 0,2.46 -0.94,3.14 -1.21,4.78 -0.5,3 -0.14,6.22 -0.23,8.9 z"
     id="path228" />
  <path
     class="st29"
     d="m 198.6485,141.13354 -2.16,-0.72 -0.54,-1.7 c 2.69,-4.71 5.27,-9.43 7.74,-14.14 1.75,-5.96 1.66,-11.76 2.88,-17.28 0.05,-0.21 1.8,-2.85 2.16,-3.6 1.24,13.67 -2.28,26.28 -10.08,37.44 z"
     id="path230" />
  <path
     class="st97"
     d="m 124.4885,128.89354 c 0.48,-0.3 0.96,-0.3 1.44,0 1.58,-1.62 2.52,-0.26 2.8,4.09 1.87,1.56 1.87,3.05 0,4.47 2.53,-1.03 5.77,0.94 5.12,3.68 l -1.44,1.42 c -4.51,-2.05 0.08,9.48 0.68,9.55 -0.54,-4.05 7.67,-1.91 7.96,0.56 0.67,1.1 -0.19,2.3 -2.59,3.62 1.08,0.96 1.62,1.63 0.43,2.86 -4.96,-0.35 -11.12,-0.75 -15.84,-2.16 -1.06,-1.16 -0.8,-3.25 0.78,-6.25 -1.06,-3.56 -1.32,-7 -0.78,-10.31 1.22,-4.87 0.84,-12.13 0.72,-17.28 h 0.72 c 1.35,0.83 1.35,2.75 0,5.76 z"
     id="path232" />
  <path
     class="st91"
     d="m 127.3685,101.53354 c 0.78,0.66 2.02,0.69 2.1,0.78 0.55,0.61 -1.24,2.54 0.06,4.98 2.17,-0.8 4.6,2.41 4.96,4.53 0.02,3.46 0.03,5.24 3.89,5.89 8.49,1.3 10.45,2.68 10.69,11.76 2.25,0.74 2.93,1.75 2.07,3.02 -0.96,2.41 -4.28,0.85 -5.49,-0.97 -0.72,2.82 -2.95,2.36 -5.03,1.16 -0.95,-5.19 -7.74,-7.96 -8.53,-1.83 l -1.11,-2.69 c -1.87,-0.1 -1.88,-2.38 -0.72,-3.6 -3.64,-1.93 -3.86,-3.56 0.62,-3.75 0.22,-4.01 -0.46,-7.8 -2.06,-11.37 -0.12,-0.32 -0.47,-0.79 -0.72,-1.44 -2.2,-2.96 -2.68,-5.12 -1.44,-6.48 h 0.72 z"
     id="path234" />
  <path
     class="st57"
     d="m 128.8085,109.45354 c 0.25,0.64 1.46,1.54 1.82,2.85 0.27,0.96 1.83,8.53 1.71,8.97 -0.43,1.61 -3.28,0.92 -3.54,1.14 -1.17,1 1.18,1.78 1.44,2.16 -2.21,1.07 -4.07,2.74 -5.76,4.32 -0.22,-0.72 -0.14,-4.76 0,-5.76 0.17,-1.27 0.8,-3.6 1.76,-4.42 1.14,-0.97 2.16,0.13 2.85,-0.02 2.31,-0.52 -0.26,-7.44 -0.29,-9.24 z"
     id="path236" />
  <path
     class="st57"
     d="m 126.6485,101.53354 c 0.5,1.26 0.7,4.55 1.44,6.48 -0.75,-1.19 -3.61,-4.26 -3.98,-5.06 -0.54,-1.17 0.41,-2.08 0.38,-2.86 h 0.72 c 0,0.84 1.4,1.35 1.44,1.44 z"
     id="path238" />
  <path
     class="st90"
     d="m 195.7685,117.37354 c -0.77,3.9 -2.42,4.48 -2.77,5.49 -0.51,1.46 0.08,3.71 -0.1,5.31 3.46,-1.67 2.59,-5.55 3.6,-8.64 l 1.79,2.15 c 1.35,-0.61 3.11,-4.94 4.68,-2.5 -2,4.56 -3.55,9.34 -6.48,13.31 -2.2,1.76 -4.12,3.68 -5.76,5.76 -0.72,-2.39 -0.54,-5.18 0.53,-8.38 -1.51,-2.55 -1.45,-4.8 0.19,-6.74 1.06,-1.37 3.55,-4.15 3.6,-5.76 z"
     id="path240" />
  <path
     class="st53"
     d="m 196.4885,140.41354 c -0.62,0.8 -2.78,2.03 -3.6,2.88 -5.73,-0.88 0.33,-8.98 3.6,-10.8 0.75,-0.39 3.08,-0.96 3.44,-1.6 0.87,-1.56 0.04,-5.1 3.76,-6.32 -1.4,4.75 -4.18,11.95 -7.2,15.84 z"
     id="path242" />
  <path
     class="st30"
     d="m 49.608498,42.493538 c 0.84,0.54 4.48,4.75 4.32,5.38 -4.28,2 -2.38,5.64 -6.91,7.53 -1.04,0.23 -3.59,-3.96 -3.09,-5.26 0.61,-1.61 4.05,-1.63 4.25,-1.9 0.3,-0.41 -1.05,-2.5 -0.73,-2.86 0.17,-0.19 2.79,0.16 2.88,-1.44 h -4.32 c 1.45,-0.89 2.56,-0.49 3.6,-1.45 z"
     id="path244" />
  <path
     class="st62"
     d="m 123.0485,156.97354 c -0.8,-0.24 -4.33,-1.76 -5.04,-2.16 -0.37,-0.21 -0.89,-0.37 -1.1,-0.75 -1.17,-2.07 5.3,-10.29 6.14,-13.65 0.24,3.14 2.35,7.48 2.21,10.43 -0.11,2.21 -1.87,4.19 -2.21,6.13 z"
     id="path246" />
  <path
     class="st87"
     d="m 168.4085,141.13354 c 0.9,2.33 -0.68,7.03 -3.06,7.74 0.21,4.32 -3.54,6.51 -7.02,8.1 -0.43,0.1 -0.98,0.51 -1.44,0.72 -3.02,1.96 -4.94,2.2 -5.76,0.72 l -0.2,-1.02 c -1.99,0.28 -2.88,-0.34 -2.68,-1.86 l -0.33,-1.05 c 3.23,-2.46 5.69,-7.16 6.67,-11.2 -1.4,-5.13 4.76,-3.71 7.01,-0.73 1.19,-1.73 3.22,-2.44 6.09,-2.14 0.12,0.23 0.57,0.44 0.72,0.72 z"
     id="path248" />
  <path
     class="st94"
     d="m 172.0085,151.93354 c -0.1,0.27 -0.52,1.03 -0.72,1.44 l -0.43,0.76 c -2.82,0.1 -5.32,0.81 -7.49,2.12 -1.88,0.41 -3.73,0.41 -5.04,0.72 2.18,-4.03 7.16,-3.9 5.04,-10.08 l 2.87,0.72 c -0.49,-2.71 1.56,-4.13 2.17,-6.48 0.79,1.49 4.76,6.9 4.89,7.69 0.17,1.02 -0.93,2.15 -1.29,3.11 z"
     id="path250" />
  <path
     class="st1"
     d="m 145.3685,153.37354 c 0.99,-0.41 2.07,0.36 1.44,1.44 0.01,1.45 -1.86,0.88 -2.09,0.3 -0.12,-0.3 5.63,2.21 1.37,4.02 -0.68,0.39 -1.09,1.86 -1.91,2.08 -1.21,0.33 -3.75,-1.35 -5.64,0.09 -0.29,-1.59 1.18,-0.67 0.35,-2.17 -0.72,-1.3 -1.85,-2.19 -2.87,-3.24 l 5.03,-3.24 c 0.19,-0.62 0.43,-0.61 0.72,0 1.42,-0.04 2.62,0.2 3.6,0.72 z"
     id="path252" />
  <path
     class="st73"
     d="m 146.8085,154.81354 c 1.02,-1.21 1.54,-0.84 1.44,0.72 1.45,0.54 2.38,1.16 4.32,0.72 0.38,1.57 -0.39,1.39 -1.44,2.16 -0.41,1.38 -1.04,1.37 -1.44,0 -0.98,0.12 -2.84,0.28 -3.6,0.72 1.04,-4.05 -5.57,-4.27 0.72,-4.32 z"
     id="path254" />
  <path
     class="st64"
     d="m 156.8885,157.69354 c -2.62,1.2 -5.75,5.56 -9.36,3.96 l 2.16,-3.24 c 0.47,-0.06 0.97,0.04 1.44,0 1.92,-0.17 3.85,0.13 5.76,-0.72 z"
     id="path256" />
  <path
     class="st76"
     d="m 171.2885,153.37354 c -0.15,0.3 0.38,1.04 -0.42,1.51 -1.6,0.95 -4.92,1.01 -6.78,1.37 -0.23,0.04 -0.49,-0.05 -0.72,0 0.13,-3.1 5.37,-2.78 7.92,-2.88 z"
     id="path258" />
  <path
     class="st96"
     d="m 196.4885,132.49354 c -2.76,3.75 -6.74,5.26 -3.6,10.8 -6.13,6.4 -7.79,6.64 -15.84,10.08 -0.34,0.15 -1.11,-0.15 -1.44,0 -0.31,-1.18 1.35,-2.52 1.44,-2.88 l 0.38,-0.94 c 4.82,-1.15 8.77,-4.19 11.86,-9.14 -0.14,-0.76 0.54,-2.16 1.44,-2.16 2.58,-4.02 1.2,-3.37 5.76,-5.76 z"
     id="path260" />
  <path
     class="st13"
     d="m 133.8485,102.25354 0.91,-0.4 c 2.19,3.52 5.5,5.95 9.92,7.3 -0.34,2.41 0.88,4.47 3.67,6.17 1.15,2.89 1.83,5.97 2.06,9.25 1.68,-1.89 2.82,-1.08 3.52,1.37 2.52,-1.36 4.36,0.13 4.85,2.82 1.67,-0.58 3.2,0.18 4.59,2.29 0.19,0.51 1.01,1.88 1.44,2.88 1.72,7.91 -9.99,5.92 -6.93,-0.45 -3.7,2.27 -5.95,1.94 -6.75,-0.99 -0.64,-1.16 -2.72,-1.26 -3.29,-2.17 -0.51,-0.8 -0.71,-8.12 -1.93,-9.18 -0.79,-0.69 -8.86,-1.67 -11.31,-3.44 -2.16,-1.56 -0.93,-4.75 -1.84,-6.8 -0.44,-0.99 -2.41,-2.08 -3.23,-3.61 z"
     id="path262" />
  <path
     class="st8"
     d="m 163.3685,89.293538 c -0.93,3.01 -2.43,8.52 -2.88,11.520002 l -0.97,0.44 c -0.08,4.93 -6.18,-1.01 -7.63,-3.330002 -1.36,0.17 -2.52,-0.53 -3.47,-1.37 -2.25,1.72 -4.79,2.24 -6.91,0.01 -0.33,2.15 -5.24,2.84 -6.23,1.37 -1.03,-0.59 -0.55,-1.31 1.44,-2.16 0.79,-0.34 3.74,0.68 1.46,-1.84 -0.6,-0.66 -2.25,-1.02 -2.18,-1.39 3.47,-2.95 2.16,-3.86 2.84,-7.1 0.3,-1.42 16.73,-4.81 17.92,1.52 0.36,1.93 -1.54,3.28 1.54,4.2 0.85,0.25 1.32,0.51 2.18,-0.03 0.67,-0.42 1.52,-3.95 2.88,-1.83 z"
     id="path264" />
  <path
     class="st8"
     d="m 134.5685,98.653538 c 1.98,0.35 3.86,-0.05 5.63,-1.18 2.49,2.22 0.75,3.960002 -1.73,5.200002 2.53,3.26 4.48,4.11 8.5,4.64 2.78,6.2 5.87,6.53 4.1,-0.54 l 0.97,-0.7 c 4.37,1.55 6.4,0.63 6.08,-2.77 l 1.04,-0.27 c -0.12,-1.6 0.32,-2.1 1.33,-1.5 -0.89,6.34 -1.02,12.41 0,18.72 -3.26,1.9 -4.21,-0.3 -2.84,-6.6 l -1.45,0.52 c 0.35,0.87 -2.19,7.58 -2.57,7.79 -1.65,0.95 -2.58,-0.23 -1.79,-1.7 0.18,-0.87 -0.12,-2.85 -0.72,-1.44 l -0.28,1.4 c 2.07,1.89 3.28,5.06 -0.44,4.36 -0.72,-0.48 -1.42,-6.15 -2.23,-7.55 -0.2,-0.34 -4.66,-3.87 -4.99,-5.21 -0.21,-0.87 0.36,-2.43 -0.09,-2.98 -0.34,-0.42 -6.65,-2.83 -7.81,-1.54 0.41,-3 0.05,-3.21 -1.44,-5.04 -0.22,-0.27 -1.21,-0.35 -1.35,-1.17 -0.1,-0.58 0.63,-0.91 0.63,-0.99 0.2,-1.520002 0.68,-2.000002 1.44,-1.440002 z"
     id="path266" />
  <path
     class="st13"
     d="m 127.3685,101.53354 c -3.93,-3.360002 3.04,-3.800002 4.31,-1.07 0.86,1.85 -3.65,0.85 -4.31,1.07 z"
     id="path268" />
  <path
     class="st13"
     d="m 136.7285,95.773538 c -0.2,0.09 -1.01,1.7 -1.44,2.16 0.31,0.62 0.03,0.84 -0.72,0.72 -0.46,0.5 -0.93,0.99 -1.44,1.440002 0.03,-0.880002 -0.25,-3.150002 0.08,-3.520002 0.25,-0.29 2.8,-0.39 3.52,-0.8 z"
     id="path270" />
  <path
     class="st9"
     d="m 165.5285,96.493538 c 2.23,-2.01 4.27,-5.8 7.94,-4.75 0.39,0.11 4.76,3.38 5,3.69 0.91,1.15 0.68,2.5 1.42,3.63 2.18,3.370002 7.91,2.760002 1.49,9.320002 l 2.87,-0.36 c 1.44,7.67 -3.21,4.06 -6.46,8.28 1.1,2.15 4.87,-0.27 4.3,2.52 -5.98,-0.87 -11.87,4.01 -15.84,7.92 -3.86,-11.97 -3.72,-17.98 -0.72,-30.240002 z"
     id="path272" />
  <path
     class="st43"
     d="m 135.2885,97.933538 c 5.1,1.79 4.58,-3.25 6.13,-3.6 1.55,-0.35 1.39,1.98 2.28,2.19 2.33,0.56 3.75,-1.44 4.79,-1.36 1.04,0.08 1.97,1.68 3.35,1.32 0.08,-1.29 -0.11,-3.41 -1.06,-4.34 -1.99,-1.94 -4.97,1.43 -3.61,-4.31 1.63,0.82 3.86,0.42 5.38,1.11 0.7,0.32 1.14,1.35 1.81,1.79 0.85,0.57 2.57,0.88 2.95,1.41 1.52,2.1 -1.36,5.55 -4.01,2.19 -1.45,5.5 3.32,4.57 5.4,8.640002 l -0.36,-4.310002 2.16,2.160002 c -0.03,0.23 0.03,0.48 0,0.72 -2.09,1.64 -0.26,9.31 -3.47,7 -0.34,-0.24 0.33,-1.55 -0.84,-1.24 v 4.31 c 0,0 -3.6,-5.04 -3.6,-5.04 -0.55,1.56 1,4.2 0.66,5.32 -0.26,0.87 -1.68,0.89 -1.95,1.31 -0.25,0.39 0.08,4.42 -1.58,2.73 -1.04,-1.07 0.69,-4.78 -3.61,-3.6 2.09,-5.76 -1.34,-3.43 -4.3,-4.69 -1.69,-0.72 -4.56,-4.7 -6.49,-5.75 0.84,-0.56 6.35,-1.04 4.31,-3.230002 -0.54,-0.59 -4.13,1.810002 -5.04,0 0.23,-0.25 0.49,-0.47 0.72,-0.72 z"
     id="path274" />
  <path
     class="st57"
     d="m 130.9685,128.17354 1.43,2.16 v -4.31 c 3,0.67 6.02,1.41 7.95,3.96 0.59,0.78 0.51,2.37 1.1,2.56 4.05,1.28 1.84,-4.28 5.35,-4.36 -0.21,4.47 1.35,3.7 4.32,4.32 0.44,0.09 1.1,-0.19 1.67,0 0.57,0.19 0.39,1.46 0.85,1.46 1.89,0.02 1.68,-3.08 5.2,-1.64 3.96,1.62 -0.95,1.73 -0.52,3.42 3.09,3.39 4.96,2.37 6.48,-1.79 0.84,1.94 1.97,4.71 2.88,6.48 0.39,2.64 -2.65,0.87 -4.39,1.78 -0.62,0.32 -0.11,3.39 -1.73,3.96 -1.36,-3.77 -1.91,-4.38 -6.12,-5.02 0.36,5.76 -3.47,10.5 -7.2,14.4 -0.42,-0.16 -1.09,-0.47 -1.44,-0.72 -0.54,-0.39 -0.96,-0.97 -1.44,-1.44 -1.38,-0.07 -1.27,-0.89 0.31,-2.47 3.32,2.14 4.35,-0.73 3.69,-3.73 3.02,-1.28 4.96,-4.5 0.32,-4.61 0.47,-3.22 -4.6,-2.51 -6.58,-1.15 -0.91,0.06 -6.51,-4.16 -4.03,-5.77 1.11,0.33 -0.72,-3.9 -1.25,-4.7 -2.26,-3.43 -4.32,-0.44 -3.89,2.91 l -1.54,0.81 c -0.68,0.2 -0.92,-0.04 -0.72,-0.72 -1.67,-1.37 -2.28,-4.11 -0.72,-5.76 z"
     id="path276" />
  <path
     class="st69"
     d="m 184.9685,128.89354 c 0.51,1.29 -0.17,2.25 -2.02,2.88 l 3.71,1.08 c 4.86,-2.12 4.45,5.2 1.91,7.55 -0.58,2.76 -8.06,10.31 -10.86,8.82 l -0.66,-1.62 c -0.18,-0.59 -4.12,-6.18 -5.04,-7.92 0.81,-1.12 2.47,-1.69 4.95,-1.71 -7.91,-1.02 -8.63,-9.54 0.02,-4.79 l 1.02,-0.74 c 0.45,-4.32 3.52,-5.74 6.96,-3.56 z"
     id="path278" />
  <path
     class="st43"
     d="m 160.4885,120.25354 c 0.55,3.42 1.68,7.57 2.88,10.8 -1.3,0.46 -2.58,-1.15 -3.26,-1.2 -1.18,-0.08 -1.91,1.97 -2.88,0.48 -0.2,-0.31 0.65,-3.19 -1.52,-3.55 -0.72,-0.12 -3.51,2.37 -5.3,1.38 -0.78,-1.93 2.12,-1.69 2.14,-2.52 0.02,-0.83 -1.85,-0.88 -2.15,-1.08 3.39,-2.01 -3.67,-5.38 0.72,-5.76 0.91,-0.51 1.14,0.57 0.72,1.44 0.4,0.47 0.15,1.07 1.44,0.72 -1.22,-2.66 1.38,-3.85 1.43,-4.09 0.24,-1.09 -0.35,-3.21 0.11,-3.74 0.16,-0.18 3.5,-0.95 4.21,-2.25 -0.1,1.76 0.24,3.64 -0.01,5.38 -0.32,2.19 -3.13,2.16 1.46,3.98 z"
     id="path280" />
  <path
     class="st109"
     d="m 189.2885,125.29354 c 0.8,2.31 -2.2,4.79 -4.32,3.6 -1.15,0.14 -5.01,0.37 -5.6,0.88 -0.42,0.36 -0.52,3.12 -2.28,3.76 -1.06,0.39 -4.24,-0.86 -5.79,-0.32 3.32,2.62 4.25,4.62 8.63,2.15 -0.53,4.74 -4.02,4.63 -7.91,4.32 -1.91,-3.61 -2.8,-5.57 -4.32,-9.36 l 7.92,-0.73 c -0.66,1.88 0.58,4.18 2.15,2.89 0.23,-0.19 0.18,-4.4 2.17,-5.44 1.72,-0.9 3.42,0.65 5.23,0.3 1.42,-0.27 2.51,-2.02 4.13,-2.06 z"
     id="path282" />
  <path
     class="st78"
     d="m 189.2885,140.41354 c -1.96,3.23 -4.09,6.69 -7.21,8.99 -1.53,1.12 -3.22,1.23 -5.03,1.09 0.1,-0.41 0.11,-2.52 0,-2.88 3.19,2.04 10.01,-4.79 11.52,-7.2 0.22,-0.35 0.46,-0.34 0.72,0 z"
     id="path284" />
  <path
     class="st17"
     d="m 190.7285,138.25354 c -0.47,0.73 -1.12,1.62 -1.44,2.16 h -0.72 c 2.44,-3.9 -0.21,-3.23 0.71,-7.2 -2.99,3.01 -5.9,-1.31 -10.07,0 1.19,-2.14 3.72,-2.84 5.76,-4.31 2.04,-1.47 2.47,-1.79 4.32,-3.6 0.24,-0.23 0.49,-0.47 0.72,-0.72 0.45,-0.49 1.03,-0.91 1.44,-1.44 -1,2.51 1.15,5.14 1.24,6.68 0.17,2.9 -2.05,5.62 -1.96,8.44 z"
     id="path286" />
  <path
     class="st59"
     d="m 133.8485,141.13354 c 0.83,-2.11 3.8,-0.6 5.41,0.32 3.82,2.18 6.49,9.2 2.51,11.2 -0.23,-0.05 -0.5,0.06 -0.72,0 -2.21,-0.61 -4.43,-0.67 -6.47,-2.16 v 3.6 c -4.09,1.68 -6.33,-12.4 -5.77,-12.96 1.67,0.05 3.37,-0.07 5.04,0 z"
     id="path288" />
  <path
     class="st18"
     d="m 125.9285,128.89354 c -1.7,-1.86 2.49,-4.61 3.98,-1.65 -0.1,2.59 0.21,4.61 1.78,6.69 0.22,0.26 0.49,0.47 0.72,0.72 1.06,-0.4 2.05,0.33 2.97,2.19 7.98,3.08 10.48,6.19 10.65,14.9 -1.36,1.28 -2.77,1.59 -4.25,0.91 -1.47,-1.29 1.66,-1.14 1.47,-2.48 -0.75,-5.53 -3.91,-8.8 -9.39,-9.04 -2.91,-2.64 -3.3,-3.95 -6.47,-0.72 -0.12,-2.83 -0.69,-4.17 2.14,-5.4 -3.79,-1.61 0.31,-5.72 -3.59,-6.12 z"
     id="path290" />
  <path
     class="st87"
     d="m 124.4885,128.89354 3.24,-5.76 2.52,1.44 c 1.19,1.7 0.47,2.09 0.72,3.6 0.31,1.88 0.54,3.86 0.72,5.76 -0.11,-0.13 -1,-0.01 -1.41,-0.39 -2.24,-2.08 -1.11,-5.62 -1.47,-6.1 -0.09,-0.11 -2.75,-0.08 -2.84,0.04 -0.22,0.29 0.09,1.1 -0.04,1.41 -0.53,1.22 -1.11,1.11 -1.44,0 z"
     id="path292" />
  <path
     class="st87"
     d="m 132.4085,134.65354 0.72,-6.48 c 2.2,-0.12 4.49,-0.31 5.8,1.77 1.37,2.18 0.02,4.65 4.28,4 0.49,2.3 -2.95,1.94 -3.6,3.24 l 3.24,3.23 1.43,-2.87 c 1.71,3.11 3.52,0.93 5.68,1.49 1.78,0.46 0.21,2.58 0.45,2.82 0.2,0.21 4.31,-1.76 3.21,2.81 -0.84,3.5 -1.7,2.33 -3.22,2.96 -0.14,0.06 0.85,1.49 0.63,2.36 -0.54,2.24 -3.35,4.78 -5.32,1.95 -0.72,0.03 -0.18,1.26 -0.35,1.44 -1.38,1.49 -2.82,-0.55 -3.6,-0.72 0.24,0.21 2.83,-0.53 2.93,-1.18 0.07,-0.45 -1.64,-8.5 -1.86,-8.89 -0.99,-1.77 -6.31,-3.28 -7.93,-4.31 -1.83,-1.16 -2.06,-3.13 -2.5,-3.62 z"
     id="path294" />
  <path
     class="st13"
     d="m 151.8485,120.25354 c -0.3,-0.35 -0.41,-1.08 -0.72,-1.44 -0.67,-0.78 -1.9,-1.14 -2.16,-2.15 2.04,-0.27 3.79,1.03 3.57,3.17 z"
     id="path296" />
</svg>
