<svg version="1.1" width="127" height="192" xmlns="http://www.w3.org/2000/svg" xmlns:xlink="http://www.w3.org/1999/xlink">
  <!-- Exported by Scratch - http://scratch.mit.edu/ -->
  <g id="ID0.6378554576076567" transform="matrix(0.949999988079071, 0, 0, 0.949999988079071, 0.15, -0.2)">
    <g id="ID0.45253281481564045">
      <g id="ID0.36538360361009836">
        <g id="Leg">
          <path id="Fill_4_" fill="#CCE2EA" d="M 15.500 80.062 C 15.500 80.062 5.316 80.769 16.504 121.207 C 16.504 121.207 13.625 124.742 14.625 128.371 C 14.625 128.371 14.625 128.861 16.875 128.931 C 16.875 128.931 17 129.971 19.125 130.298 C 21.250 130.625 31.130 131.367 30.377 128.371 C 30.377 128.371 32.294 128.648 33.147 127.637 C 34 126.626 33.971 123.664 32.860 122.832 C 32.860 122.832 35.429 110.642 38.124 107.496 C 40.819 104.350 23.380 76.613 15.500 80.062 Z " transform="matrix(1.473761796951294, 0, 0, 1.473761796951294, -1.9, -0.95)"/>
          <path id="Outline_7_" d="M 37.079 101.330 C 33.577 93.717 23.583 79.516 16.971 79.516 C 16.409 79.516 15.881 79.623 15.483 79.813 C 15.433 79.816 14.260 79.916 13.129 81.514 C 11.020 84.494 8.623 93.606 16.229 121.152 C 15.751 121.777 13.444 125.025 14.375 128.371 C 14.375 128.637 14.681 129.088 16.690 129.174 C 16.844 129.542 17.363 130.279 19.087 130.545 C 19.946 130.677 22.012 130.874 24.186 130.874 C 27.585 130.874 29.671 130.409 30.386 129.493 C 30.583 129.240 30.678 128.957 30.669 128.647 C 30.756 128.652 30.857 128.656 30.967 128.656 C 31.719 128.656 32.742 128.507 33.340 127.798 C 33.929 127.098 34.075 125.753 33.959 124.731 C 33.898 124.201 33.711 123.269 33.138 122.738 C 33.440 121.349 35.851 110.537 38.316 107.660 C 39.216 106.606 38.140 103.637 37.079 101.330 Z M 37.935 107.333 C 35.230 110.491 32.722 122.280 32.616 122.780 L 32.583 122.936 L 32.710 123.032 C 33.092 123.318 33.365 123.958 33.460 124.787 C 33.582 125.853 33.370 126.984 32.956 127.475 C 32.457 128.067 31.496 128.156 30.966 128.156 C 30.883 128.156 30.806 128.154 30.738 128.151 C 30.758 127.644 30.675 126.725 30.125 125.251 C 30.125 125.251 30.386 126.874 30.270 128.118 L 30.232 128.424 C 30.184 128.726 30.108 128.992 29.991 129.186 C 29.393 129.953 27.332 130.374 24.186 130.374 C 22.056 130.374 19.975 130.176 19.164 130.051 C 18.381 129.931 17.908 129.711 17.609 129.496 C 16.509 128.509 17.418 124.918 17.418 124.918 C 16.504 126.288 16.667 128.653 16.668 128.669 C 15.103 128.595 14.866 128.305 14.868 128.305 C 14.320 125.236 15.528 122.590 16.781 121.265 C 17.549 120.453 22.470 116.953 27.085 119.876 C 27.085 119.876 26.220 118.891 24.127 118.542 C 22.235 118.227 19.346 118.422 16.660 120.822 C 9.201 93.723 11.478 84.768 13.510 81.845 C 14.503 80.416 15.511 80.312 15.602 80.291 C 16.019 80.108 16.481 80.016 16.973 80.016 C 22.835 80.016 32.684 92.971 36.626 101.539 C 37.998 104.522 38.487 106.688 37.935 107.333 Z " transform="matrix(1.473761796951294, 0, 0, 1.473761796951294, -1.9, -0.95)"/>
        </g>
        <g id="Leg_1_">
          <path id="Fill_5_" fill="#CCE2EA" d="M 72.383 80.062 C 72.383 80.062 82.567 80.769 71.379 121.207 C 71.379 121.207 74.258 124.742 73.258 128.371 C 73.258 128.371 73.258 128.861 71.008 128.931 C 71.008 128.931 70.883 129.971 68.758 130.298 C 66.633 130.625 56.754 131.367 57.506 128.371 C 57.506 128.371 55.588 128.648 54.736 127.637 C 53.882 126.625 53.912 123.664 55.022 122.832 C 55.022 122.832 52.453 110.642 49.757 107.496 C 47.063 104.351 64.503 76.613 72.383 80.062 Z " transform="matrix(1.473761796951294, 0, 0, 1.473761796951294, -1.9, -0.95)"/>
          <path id="Outline_8_" d="M 49.568 107.659 C 52.033 110.536 54.444 121.348 54.746 122.737 C 54.174 123.268 53.986 124.200 53.926 124.730 C 53.809 125.752 53.955 127.097 54.545 127.797 C 55.143 128.506 56.164 128.655 56.917 128.655 C 57.027 128.655 57.129 128.651 57.215 128.646 C 57.207 128.956 57.301 129.239 57.498 129.492 C 58.213 130.408 60.299 130.873 63.697 130.873 C 65.871 130.873 67.937 130.676 68.797 130.544 C 70.520 130.278 71.039 129.541 71.193 129.173 C 73.202 129.087 73.507 128.636 73.507 128.370 C 74.439 125.024 72.131 121.776 71.653 121.151 C 79.258 93.605 76.862 84.493 74.753 81.513 C 73.622 79.914 72.449 79.815 72.399 79.812 C 72.001 79.622 71.472 79.515 70.911 79.515 C 64.299 79.515 54.306 93.716 50.804 101.329 C 49.743 103.637 48.668 106.606 49.568 107.659 Z M 51.259 101.539 C 55.201 92.971 65.051 80.016 70.912 80.016 C 71.404 80.016 71.865 80.109 72.283 80.291 C 72.374 80.312 73.383 80.416 74.375 81.845 C 76.406 84.768 78.684 93.723 71.225 120.822 C 68.539 118.422 65.651 118.226 63.758 118.542 C 61.664 118.891 60.800 119.876 60.800 119.876 C 65.414 116.953 70.336 120.453 71.104 121.265 C 72.358 122.590 73.566 125.236 73.018 128.305 C 73.020 128.305 72.782 128.595 71.217 128.669 C 71.219 128.653 71.381 126.288 70.467 124.918 C 70.467 124.918 71.375 128.509 70.276 129.496 C 69.977 129.711 69.504 129.931 68.721 130.051 C 67.909 130.176 65.828 130.374 63.698 130.374 C 60.552 130.374 58.491 129.952 57.893 129.186 C 57.776 128.993 57.700 128.726 57.652 128.424 L 57.614 128.118 C 57.499 126.874 57.759 125.251 57.759 125.251 C 57.210 126.726 57.126 127.645 57.146 128.151 C 57.078 128.154 57.001 128.156 56.918 128.156 C 56.389 128.156 55.427 128.067 54.929 127.475 C 54.514 126.984 54.302 125.853 54.424 124.787 C 54.519 123.958 54.792 123.318 55.173 123.032 L 55.301 122.936 L 55.269 122.780 C 55.164 122.280 52.655 110.491 49.950 107.333 C 49.396 106.688 49.886 104.522 51.259 101.539 Z " transform="matrix(1.473761796951294, 0, 0, 1.473761796951294, -1.9, -0.95)"/>
        </g>
        <g id="Body">
          <path id="Fill_6_" fill="#CCE2EA" d="M 40.109 25.156 C 40.109 25.156 26.860 27.883 17.651 52.149 C 8.318 76.739 16.224 88.440 21.688 97.277 L 21.813 92.387 C 21.813 92.387 22.179 97.947 29.332 103.614 L 29.332 100.524 C 29.332 100.524 41.599 120.022 57.625 102.068 L 56.298 105.633 C 56.298 105.633 64.151 100.790 66.318 94.535 L 66.318 98.151 C 66.318 98.151 79.040 84.208 75.235 66.231 C 71.302 47.648 62.317 29.364 49.818 25.155 L 46.652 21.280 L 46.652 23.447 C 46.652 23.447 44.151 20.780 41.652 19.280 C 41.652 19.280 42.485 20.447 42.985 23.947 L 40.109 25.156 Z " transform="matrix(1.473761796951294, 0, 0, 1.473761796951294, -1.9, -0.95)"/>
          <path id="Belly" fill="#FFFFFF" d="M 44.158 57 C 43.971 57.229 42.667 55.167 40.917 54.750 C 40.917 54.750 41.892 55.874 41.863 57.021 C 41.863 57.021 40.251 55.938 38.917 55.886 C 38.917 55.886 40.330 57.001 40.332 57.501 C 40.332 57.501 20.744 60.751 20.539 77.334 C 20.334 93.917 37.892 103.834 41.863 104.667 C 45.834 105.500 47.751 104.750 55.084 98.750 C 62.417 92.750 69.166 82.333 67.500 74.250 C 65.834 66.167 54.916 59.417 50.750 58.333 C 46.584 57.249 46.584 57.250 46.584 57.250 C 46.584 57.250 46.834 56.084 47.834 55.417 C 47.834 55.417 45.649 55.167 44.158 57 Z " transform="matrix(1.473761796951294, 0, 0, 1.473761796951294, -1.9, -0.95)"/>
          <path id="Outline_6_" d="M 75.494 66.149 C 71.904 49.184 63.318 29.460 49.981 24.911 L 46.417 20.549 L 46.417 22.802 C 45.591 21.974 43.771 20.072 41.795 19.036 C 41.516 18.890 40.994 18.751 40.994 18.751 C 41.280 18.964 41.610 19.469 41.610 19.469 C 41.843 19.911 42.241 20.535 42.725 23.761 L 40.075 24.880 C 39.941 24.907 26.586 27.914 17.433 52.029 C 8.297 76.102 15.676 88.001 21.064 96.689 L 21.932 98.090 L 22.028 94.354 C 22.737 96.499 24.554 100.104 29.193 103.779 L 29.598 104.099 L 29.598 101.291 C 31.146 103.414 36.473 109.884 43.872 109.884 C 48.285 109.884 52.685 107.616 56.965 103.138 L 55.826 106.197 L 56.445 105.815 C 56.748 105.628 63.443 101.451 66.084 95.783 L 66.084 98.765 L 66.519 98.289 C 66.646 98.149 79.282 84.045 75.494 66.149 Z M 66.097 94.423 C 64.342 99.487 58.715 103.673 56.816 104.972 L 57.876 102.124 C 58.126 101.422 58.399 100.094 58.399 100.094 L 57.455 101.871 C 53.004 106.856 48.434 109.385 43.872 109.385 C 35.343 109.385 29.617 100.450 29.560 100.361 L 29.099 99.628 L 29.099 103.062 C 24.251 99.078 22.620 94.730 22.139 92.894 C 22.072 92.578 22.014 92.279 21.967 92.012 C 21.805 91.092 21.753 90.501 21.753 90.501 L 21.581 92.351 L 21.477 96.404 C 16.143 87.805 8.860 76.027 17.900 52.207 C 26.945 28.375 40.044 25.397 40.221 25.355 L 43.274 24.072 L 43.247 23.881 C 42.966 21.918 42.581 20.674 42.289 19.949 C 44.462 21.442 46.462 23.563 46.483 23.587 L 46.916 24.048 L 46.916 21.951 L 49.639 25.283 L 49.752 25.362 C 62.930 29.799 71.437 49.394 75.005 66.253 C 78.336 81.992 68.772 94.772 66.582 97.441 L 66.582 94.505 L 66.593 92.810 L 66.097 94.423 Z " transform="matrix(1.473761796951294, 0, 0, 1.473761796951294, -1.9, -0.95)"/>
        </g>
        <g id="Face">
          <g id="Mouth">
            <path id="Inside" fill="#5E0808" d="M 22.988 44.750 C 22.988 44.750 30.127 42.688 45.071 42.062 C 52.687 41.744 59.349 42.250 62.435 42.687 C 65.521 43.124 66.972 43.562 63.463 45.687 C 59.750 47.936 52.996 51.812 45.796 51.499 C 38.597 51.187 26.798 47.749 25.044 47.249 C 23.290 46.749 20.105 45.255 22.988 44.750 Z " transform="matrix(1.473761796951294, 0, 0, 1.473761796951294, -1.9, -0.95)"/>
            <path id="Tongue" fill="#AF2020" d="M 35.312 49.887 C 35.312 49.887 45.349 42.342 55.599 49.686 C 55.600 49.686 48.459 53.583 35.312 49.887 Z " transform="matrix(1.473761796951294, 0, 0, 1.473761796951294, -1.9, -0.95)"/>
            <path id="Tooth" fill="#FFFFFF" stroke="#000000" stroke-width="0.5" d="M 28.317 48.061 C 28.317 48.061 30.475 43.716 30.374 48.706 L 28.317 48.061 Z " transform="matrix(1.473761796951294, 0, 0, 1.473761796951294, -1.9, -0.95)"/>
            <path id="Tooth_1_" fill="#FFFFFF" stroke="#000000" stroke-width="0.5" d="M 59.054 47.927 C 59.054 47.927 57.676 43.275 60.999 46.998 L 59.054 47.927 Z " transform="matrix(1.473761796951294, 0, 0, 1.473761796951294, -1.9, -0.95)"/>
            <path id="Outline_2_" d="M 46.622 51.768 C 46.345 51.768 46.065 51.762 45.786 51.750 C 41.280 51.554 33.965 50.063 25.186 47.550 L 24.976 47.490 C 24.941 47.480 21.520 46.474 21.579 45.359 C 21.608 44.801 22.372 44.604 22.945 44.504 C 22.990 44.489 30.258 42.432 45.061 41.813 C 46.652 41.747 48.284 41.713 49.914 41.713 C 55.390 41.713 59.991 42.089 62.472 42.441 C 64.579 42.740 65.608 43.001 65.745 43.675 C 65.863 44.252 65.220 44.918 63.595 45.902 C 60.694 47.657 53.906 51.768 46.622 51.768 L 46.622 51.768 Z M 49.913 42.212 C 48.290 42.212 46.665 42.246 45.082 42.312 C 30.348 42.928 23.128 44.969 23.057 44.990 C 22.100 45.159 22.078 45.383 22.078 45.385 C 22.060 45.722 23.458 46.537 25.113 47.010 L 25.324 47.070 C 34.065 49.572 41.340 51.056 45.807 51.250 C 53.269 51.581 60.363 47.273 63.333 45.474 C 65.154 44.371 65.282 43.918 65.253 43.775 C 65.161 43.327 63.296 43.063 62.399 42.936 C 59.937 42.586 55.362 42.212 49.913 42.212 L 49.913 42.212 Z " transform="matrix(1.473761796951294, 0, 0, 1.473761796951294, -1.9, -0.95)"/>
          </g>
          <g id="Eye">
            <path id="White" fill="#FFFFFF" d="M 33.865 31.584 C 34.589 31.584 35.245 32.028 35.721 32.744 C 36.196 33.461 36.490 34.450 36.490 35.542 C 36.490 36.634 36.196 37.623 35.721 38.340 C 35.245 39.056 34.589 39.500 33.865 39.500 C 33.141 39.500 32.485 39.056 32.009 38.340 C 31.534 37.623 31.240 36.634 31.240 35.542 C 31.240 34.450 31.534 33.461 32.009 32.744 C 32.485 32.028 33.141 31.584 33.865 31.584 Z " transform="matrix(1.464329719543457, -0.16579818725585938, 0.16579818725585938, 1.464329719543457, -7.4, 4.85)"/>
            <g id="Iris_1_">
              <path id="Iris" fill="#3579BC" d="M 34.076 34.486 C 34.625 34.486 35.123 34.766 35.483 35.218 C 35.844 35.671 36.067 36.296 36.067 36.985 C 36.067 37.674 35.844 38.299 35.483 38.752 C 35.123 39.204 34.625 39.484 34.076 39.484 C 33.527 39.484 33.029 39.204 32.669 38.752 C 32.308 38.299 32.085 37.674 32.085 36.985 C 32.085 36.296 32.308 35.671 32.669 35.218 C 33.029 34.766 33.527 34.486 34.076 34.486 Z " transform="matrix(1.464329719543457, -0.16594557464122772, 0.16594557464122772, 1.464329719543457, -7.65, 4.9)"/>
              <path id="Pupil" d="M 34.189 36.041 C 34.554 36.041 34.884 36.233 35.124 36.544 C 35.363 36.855 35.511 37.284 35.511 37.758 C 35.511 38.232 35.363 38.661 35.124 38.972 C 34.884 39.283 34.554 39.475 34.189 39.475 C 33.824 39.475 33.494 39.283 33.254 38.972 C 33.015 38.661 32.867 38.232 32.867 37.758 C 32.867 37.284 33.015 36.855 33.254 36.544 C 33.494 36.233 33.824 36.041 34.189 36.041 Z " transform="matrix(1.464329719543457, -0.16594557464122772, 0.16594557464122772, 1.464329719543457, -7.8, 4.9)"/>
              <path id="Highlight" fill="#FFFFFF" d="M 33.148 35.812 C 33.344 35.812 33.522 35.898 33.651 36.037 C 33.780 36.175 33.860 36.367 33.860 36.578 C 33.860 36.789 33.780 36.981 33.651 37.119 C 33.522 37.258 33.344 37.344 33.148 37.344 C 32.952 37.344 32.774 37.258 32.645 37.119 C 32.516 36.981 32.436 36.789 32.436 36.578 C 32.436 36.367 32.516 36.175 32.645 36.037 C 32.774 35.898 32.952 35.812 33.148 35.812 Z " transform="matrix(1.464329719543457, -0.16624031960964203, 0.16624031960964203, 1.464329719543457, -7.65, 4.75)"/>
            </g>
            <path id="Outline" d="M 34.403 39.715 L 34.339 39.724 C 33.556 39.812 32.777 39.447 32.144 38.693 C 31.536 37.969 31.132 36.965 31.008 35.866 C 30.748 33.572 31.766 31.596 33.327 31.368 C 34.174 31.271 34.953 31.637 35.586 32.390 C 36.194 33.115 36.598 34.119 36.722 35.218 C 36.982 37.512 35.964 39.487 34.403 39.715 L 34.403 39.715 Z M 33.447 31.857 C 32.129 32.049 31.280 33.819 31.506 35.809 C 31.619 36.811 31.983 37.722 32.528 38.371 C 33.049 38.992 33.673 39.296 34.283 39.226 L 34.367 39.467 L 34.331 39.219 C 35.601 39.034 36.451 37.263 36.225 35.274 C 36.112 34.271 35.748 33.361 35.203 32.712 C 34.682 32.091 34.059 31.788 33.447 31.857 L 33.447 31.857 L 33.447 31.857 Z " transform="matrix(1.473761796951294, 0, 0, 1.473761796951294, -1.9, -0.95)"/>
          </g>
          <g id="Eye_1_">
            <path id="White_1_" fill="#FFFFFF" d="M 56.556 31.069 C 57.280 31.069 57.936 31.513 58.412 32.229 C 58.887 32.946 59.181 33.935 59.181 35.027 C 59.181 36.119 58.887 37.108 58.412 37.825 C 57.936 38.541 57.280 38.985 56.556 38.985 C 55.832 38.985 55.176 38.541 54.700 37.825 C 54.225 37.108 53.931 36.119 53.931 35.027 C 53.931 33.935 54.225 32.946 54.700 32.229 C 55.176 31.513 55.832 31.069 56.556 31.069 Z " transform="matrix(1.4588767290115356, 0.2094215452671051, -0.2094215452671051, 1.4588767290115356, 6.2, -12.25)"/>
            <g id="Iris_2_">
              <path id="Iris_3_" fill="#3579BC" d="M 56.396 33.978 C 56.945 33.978 57.443 34.258 57.803 34.710 C 58.164 35.163 58.387 35.788 58.387 36.477 C 58.387 37.166 58.164 37.791 57.803 38.244 C 57.443 38.696 56.945 38.976 56.396 38.976 C 55.847 38.976 55.349 38.696 54.989 38.244 C 54.628 37.791 54.405 37.166 54.405 36.477 C 54.405 35.788 54.628 35.163 54.989 34.710 C 55.349 34.258 55.847 33.978 56.396 33.978 Z " transform="matrix(1.4588767290115356, 0.20927417278289795, -0.20927417278289795, 1.4588767290115356, 6.5, -12.15)"/>
              <path id="Pupil_1_" d="M 56.309 35.536 C 56.674 35.536 57.004 35.728 57.244 36.039 C 57.483 36.350 57.631 36.779 57.631 37.253 C 57.631 37.727 57.483 38.156 57.244 38.467 C 57.004 38.778 56.674 38.970 56.309 38.970 C 55.944 38.970 55.614 38.778 55.374 38.467 C 55.135 38.156 54.987 37.727 54.987 37.253 C 54.987 36.779 55.135 36.350 55.374 36.039 C 55.614 35.728 55.944 35.536 56.309 35.536 Z " transform="matrix(1.4588767290115356, 0.20897941291332245, -0.20897941291332245, 1.4588767290115356, 6.65, -12.15)"/>
              <path id="Highlight_1_" fill="#FFFFFF" d="M 55.600 35.084 C 55.797 35.084 55.975 35.170 56.104 35.308 C 56.233 35.447 56.313 35.638 56.313 35.849 C 56.313 36.060 56.233 36.251 56.104 36.390 C 55.975 36.528 55.797 36.614 55.600 36.614 C 55.403 36.614 55.225 36.528 55.096 36.390 C 54.967 36.251 54.887 36.060 54.887 35.849 C 54.887 35.638 54.967 35.447 55.096 35.308 C 55.225 35.170 55.403 35.084 55.600 35.084 Z " transform="matrix(1.4588767290115356, 0.20897941291332245, -0.20897941291332245, 1.4588767290115356, 6.25, -12)"/>
            </g>
            <path id="Outline_1_" d="M 56.023 39.201 L 55.959 39.194 C 55.179 39.082 54.517 38.531 54.095 37.642 C 53.691 36.788 53.553 35.714 53.709 34.620 C 54.038 32.334 55.522 30.681 57.089 30.854 C 57.934 30.974 58.596 31.525 59.018 32.414 C 59.422 33.268 59.560 34.342 59.404 35.437 C 59.074 37.721 57.590 39.375 56.023 39.201 L 56.023 39.201 Z M 57.083 31.356 C 55.758 31.210 54.489 32.707 54.206 34.689 C 54.062 35.687 54.184 36.660 54.547 37.426 C 54.895 38.159 55.421 38.610 56.029 38.697 L 56.050 38.951 L 56.077 38.702 C 57.352 38.844 58.622 37.345 58.905 35.363 C 59.049 34.364 58.926 33.392 58.564 32.626 C 58.218 31.895 57.691 31.444 57.083 31.356 L 57.083 31.356 L 57.083 31.356 Z " transform="matrix(1.473761796951294, 0, 0, 1.473761796951294, -1.9, -0.95)"/>
          </g>
          <path id="L_Eyebrow" d="M 30.552 32.918 C 30.552 32.918 32.394 29.300 35.743 30.890 C 35.743 30.890 32.319 26.120 30.552 32.918 Z " transform="matrix(1.473761796951294, 0, 0, 1.473761796951294, -1.9, -0.95)"/>
          <path id="R_Eyebrow" d="M 59.215 32.097 C 59.215 32.097 57.396 28.935 54.085 30.325 C 54.085 30.325 57.470 26.155 59.215 32.097 Z " transform="matrix(1.473761796951294, 0, 0, 1.473761796951294, -1.9, -0.95)"/>
        </g>
        <g id="Gift">
          <g id="Box">
            <path id="Box_Fill" fill="#1F519B" d="M 30.377 69.562 L 31.500 88.938 L 43 94.625 L 57.062 88.438 L 58.398 69.562 L 43.375 65.500 L 30.377 69.562 " transform="matrix(1.473761796951294, 0, 0, 1.473761796951294, -1.9, -0.95)"/>
            <path id="Box_Top" fill="#3579BC" d="M 30.377 69.562 L 43.292 73.708 L 58.500 69.562 L 43.375 65.500 L 30.377 69.562 " transform="matrix(1.473761796951294, 0, 0, 1.473761796951294, -1.9, -0.95)"/>
            <path id="Box_Side" fill="#2964AA" d="M 43.292 73.708 L 43 94.625 L 57.062 88.438 L 58.500 69.562 L 43.292 73.708 " transform="matrix(1.473761796951294, 0, 0, 1.473761796951294, -1.9, -0.95)"/>
            <path id="Box_Outline" d="M 42.994 94.900 L 31.259 89.096 L 30.117 69.382 L 43.370 65.240 L 58.662 69.375 L 57.301 88.605 L 42.994 94.900 L 42.994 94.900 Z M 31.741 88.778 L 43.006 94.349 L 56.824 88.269 L 58.135 69.749 L 43.380 65.760 L 30.638 69.742 L 31.741 88.778 L 31.741 88.778 Z " transform="matrix(1.473761796951294, 0, 0, 1.473761796951294, -1.9, -0.95)"/>
          </g>
          <path id="R_Ribbon" fill="#CECECE" stroke="#000000" stroke-width="0.5" d="M 35.375 67.917 L 48.722 72.229 C 48.722 72.229 48.125 92.642 48.065 92.669 C 48.005 92.696 53 90.656 53 90.656 L 53.891 70.819 L 39.782 66.446 L 35.375 67.917 Z " transform="matrix(1.473761796951294, 0, 0, 1.473761796951294, -1.9, -0.95)"/>
          <path id="L_Ribbon" fill="#CECECE" stroke="#000000" stroke-width="0.5" d="M 48.250 66.750 L 34.497 70.885 L 34.821 90.858 L 38.767 92.810 L 38.703 72.235 L 53 68.062 L 48.250 66.750 " transform="matrix(1.473761796951294, 0, 0, 1.473761796951294, -1.9, -0.95)"/>
          <g id="Bow">
            <g id="ID0.9761292478069663">
              <path id="ID0.9047625008970499" fill="#CECECE" d="M 52.517 70.871 C 48.506 70.871 44.900 70.198 43.762 69.962 L 44.330 69.181 C 45.332 69.234 46.319 69.261 47.268 69.261 C 56.501 69.261 60.747 66.797 62.075 65.812 C 61.830 66.957 60.812 68.291 60.801 68.307 L 60.581 68.592 L 60.926 68.698 C 61.375 68.837 61.806 68.906 62.156 68.939 C 59.763 70.221 56.525 70.871 52.517 70.871 L 52.517 70.871 Z " transform="matrix(1.473761796951294, 0, 0, 1.473761796951294, -1.9, -0.95)"/>
              <path id="ID0.7020761645399034" d="M 61.614 66.423 C 61.315 67.136 60.841 67.844 60.602 68.154 L 60.164 68.725 L 60.852 68.937 C 61.018 68.988 61.181 69.030 61.338 69.064 C 59.063 70.098 56.105 70.621 52.517 70.621 C 48.902 70.621 45.618 70.071 44.194 69.794 L 44.453 69.438 C 45.413 69.486 46.359 69.511 47.269 69.511 C 55.449 69.510 59.769 67.574 61.614 66.423 M 62.375 65.240 C 62.375 65.240 58.588 69.011 47.269 69.011 C 46.304 69.011 45.286 68.984 44.208 68.924 L 43.333 70.126 C 43.333 70.126 47.591 71.122 52.516 71.122 C 56.141 71.122 60.126 70.583 63.041 68.710 C 63.041 68.710 62.934 68.719 62.751 68.719 C 62.387 68.719 61.719 68.682 60.998 68.460 C 60.999 68.458 62.458 66.563 62.375 65.240 L 62.375 65.240 Z " transform="matrix(1.473761796951294, 0, 0, 1.473761796951294, -1.9, -0.95)"/>
            </g>
            <g id="ID0.47703045699745417">
              <path id="ID0.7579350806772709" fill="#CECECE" d="M 34.563 71.131 C 31.664 71.131 29.327 70.481 27.605 69.195 C 27.864 69.160 28.180 69.089 28.509 68.948 L 28.765 68.839 L 28.629 68.596 C 28.621 68.581 27.931 67.333 27.721 66.203 C 28.849 67.278 31.967 69.519 38.368 69.519 C 39.038 69.519 39.736 69.494 40.442 69.443 L 40.858 70.231 C 40.017 70.471 37.433 71.131 34.563 71.131 L 34.563 71.131 Z " transform="matrix(1.473761796951294, 0, 0, 1.473761796951294, -1.9, -0.95)"/>
              <path id="ID0.23577256314456463" d="M 28.169 66.914 C 29.684 68.091 32.816 69.770 38.368 69.770 C 38.993 69.770 39.640 69.748 40.297 69.705 L 40.491 70.073 C 39.448 70.350 37.119 70.880 34.562 70.880 C 31.974 70.880 29.848 70.355 28.221 69.317 C 28.346 69.279 28.475 69.234 28.606 69.178 L 29.118 68.960 L 28.847 68.474 C 28.689 68.190 28.388 67.572 28.169 66.914 M 27.414 65.500 C 27.353 66.823 28.412 68.719 28.412 68.719 C 27.889 68.941 27.405 68.978 27.141 68.978 C 27.009 68.978 26.931 68.969 26.931 68.969 C 29.045 70.842 31.935 71.381 34.564 71.381 C 38.135 71.381 41.223 70.385 41.223 70.385 L 40.589 69.183 C 39.808 69.243 39.069 69.270 38.370 69.270 C 30.160 69.271 27.414 65.500 27.414 65.500 L 27.414 65.500 Z " transform="matrix(1.473761796951294, 0, 0, 1.473761796951294, -1.9, -0.95)"/>
            </g>
            <path id="ID0.9462568005546927" fill="#CECECE" stroke="#000000" stroke-width="0.5" d="M 43 67.562 C 43 67.562 46.562 64.762 47.875 63.262 C 49.188 61.762 52.268 60.394 52.674 62.176 C 53.080 63.958 53.063 63.813 54.156 64.688 C 55.249 65.563 56 67.844 52.562 69.063 C 49.124 70.282 45.896 70.522 43.927 70.241 C 41.958 69.960 42.370 68.063 43 67.562 Z " transform="matrix(1.473761796951294, 0, 0, 1.473761796951294, -1.9, -0.95)"/>
            <path id="ID0.6517831333912909" fill="#CECECE" stroke="#000000" stroke-width="0.5" d="M 41.031 67.203 C 41.031 67.203 39.209 65.229 38.271 64.646 C 37.333 64.063 36.250 62.500 35.354 63.708 C 34.458 64.916 33.208 65.208 32.333 66.062 C 31.458 66.916 32.541 67.541 34.145 68.250 C 35.749 68.959 39.602 69.479 41.030 69.562 C 42.458 69.645 41.770 67.781 41.031 67.203 Z " transform="matrix(1.473761796951294, 0, 0, 1.473761796951294, -1.9, -0.95)"/>
            <path id="ID0.3445461196824908" fill="#CECECE" stroke="#000000" stroke-width="0.5" d="M 40.792 70.333 C 41.421 70.685 41.782 71.062 43.668 70.524 C 44.020 70.424 44.082 69.958 43.583 68.958 C 43.083 67.958 44.250 67.416 42.958 67.166 C 41.666 66.916 40.541 67.040 40.583 67.916 C 40.625 68.792 39.870 69.818 40.792 70.333 Z " transform="matrix(1.473761796951294, 0, 0, 1.473761796951294, -1.9, -0.95)"/>
          </g>
        </g>
        <g id="Hat_1_">
          <g id="Hat_Base_1_">
            <path id="Fill_2_" fill="#3579BC" d="M 55.080 23.816 C 55.080 23.816 55.476 17.751 48.241 14.201 C 41.009 10.651 36.931 6.977 36.364 6.282 C 35.933 5.754 34.995 3.800 34.038 4.896 C 33.075 5.992 33.209 10.045 34.347 14.197 C 35.480 18.349 33.228 21.018 33.603 24.131 C 33.603 24.131 43.488 19.214 55.080 23.816 Z " transform="matrix(1.473761796951294, 0, 0, 1.473761796951294, -1.9, -0.95)"/>
            <g id="Stripes_1_">
              <path id="ID0.08765737386420369" fill="#1F519B" d="M 54.489 20.644 C 54.489 20.644 44.571 15.642 33.826 21.331 L 34.335 19.386 C 34.335 19.386 42.601 14.703 53.548 18.749 L 54.489 20.644 Z " transform="matrix(1.473761796951294, 0, 0, 1.473761796951294, -1.9, -0.95)"/>
              <path id="ID0.7603199458681047" fill="#1F519B" d="M 50.056 15.120 C 50.056 15.120 40.743 12.870 34.995 16.854 L 34.592 15.299 C 34.592 15.299 40.858 11.467 47.387 13.398 L 50.056 15.120 Z " transform="matrix(1.473761796951294, 0, 0, 1.473761796951294, -1.9, -0.95)"/>
              <path id="ID0.5988856568001211" fill="#1F519B" d="M 40.718 10.225 C 40.718 10.225 35.908 10.423 34.455 13.279 L 33.811 11.878 C 33.811 11.878 34.667 9.099 39.409 8.997 L 40.884 10.340 " transform="matrix(1.473761796951294, 0, 0, 1.473761796951294, -1.9, -0.95)"/>
              <path id="ID0.17490718374028802" fill="#1F519B" d="M 36.364 6.282 C 36.364 6.282 34.030 6.772 33.463 8.243 L 33.629 6.373 L 35.870 5.019 L 36.364 6.282 Z " transform="matrix(1.473761796951294, 0, 0, 1.473761796951294, -1.9, -0.95)"/>
            </g>
            <path id="Outline_5_" d="M 55.384 24.297 L 54.955 24.127 C 51.414 22.721 47.673 22.072 43.838 22.199 C 37.915 22.396 33.793 24.410 33.753 24.430 L 33.327 24.640 L 33.271 24.170 C 33.104 22.795 33.421 21.536 33.754 20.203 C 34.198 18.432 34.655 16.601 34.023 14.285 C 32.998 10.542 32.587 6.039 33.785 4.675 C 34.035 4.391 34.313 4.243 34.611 4.233 C 35.369 4.208 35.947 5.072 36.367 5.703 C 36.466 5.852 36.552 5.982 36.625 6.070 C 37.059 6.603 41.078 10.310 48.391 13.901 C 55.741 17.507 55.418 23.776 55.415 23.838 L 55.384 24.297 L 55.384 24.297 Z M 34.631 4.903 C 34.524 4.906 34.409 4.978 34.288 5.118 C 33.523 5.987 33.453 9.672 34.668 14.109 C 35.348 16.595 34.847 18.598 34.402 20.366 C 34.125 21.481 33.859 22.541 33.897 23.628 C 35.132 23.094 38.808 21.697 43.816 21.530 C 47.577 21.405 51.251 22.009 54.742 23.327 C 54.672 21.868 53.960 17.380 48.093 14.503 C 40.578 10.813 36.579 7.077 36.104 6.494 C 36.022 6.394 35.923 6.246 35.811 6.077 C 35.531 5.661 35.020 4.891 34.631 4.903 L 34.631 4.903 Z " transform="matrix(1.473761796951294, 0, 0, 1.473761796951294, -1.9, -0.95)"/>
          </g>
          <path id="Puff_1_" fill="#FFFFFF" stroke="#000000" stroke-width="0.5" d="M 34.128 1.155 C 34.793 1.155 35.395 1.412 35.832 1.826 C 36.268 2.241 36.538 2.813 36.538 3.445 C 36.538 4.077 36.268 4.649 35.832 5.064 C 35.395 5.478 34.793 5.735 34.128 5.735 C 33.463 5.735 32.861 5.478 32.424 5.064 C 31.988 4.649 31.718 4.077 31.718 3.445 C 31.718 2.813 31.988 2.241 32.424 1.826 C 32.861 1.412 33.463 1.155 34.128 1.155 Z " transform="matrix(-1.4728775024414063, 0.048928890377283096, -0.048928890377283096, -1.4728775024414063, 98.75, 7.45)"/>
          <g id="Brim_1_">
            <path id="Brim_Fill_1_" fill="#FFFFFF" d="M 56.113 25.645 C 56.113 25.645 57.018 24.613 56.051 23.784 C 55.084 22.957 49.880 20.732 44.277 20.984 C 38.678 21.236 36.856 21.963 35.441 22.675 C 34.027 23.386 31.279 25.206 32.535 26.695 C 32.535 26.695 30.926 29.560 32.445 29.509 C 32.788 29.497 33.810 29.047 33.810 29.047 C 33.810 29.047 42.161 23.981 55.008 28.343 C 55.006 28.343 58.985 29.827 56.113 25.645 Z " transform="matrix(1.473761796951294, 0, 0, 1.473761796951294, -1.9, -0.95)"/>
            <path id="Brim_Outline_1_" d="M 31.628 28.996 C 31.742 29.434 31.960 29.757 32.457 29.756 C 32.894 29.756 34.035 29.200 34.035 29.200 C 34.747 28.811 38.286 27.034 43.767 26.852 C 47.318 26.734 50.989 27.298 54.683 28.530 C 54.683 28.530 56.776 29.487 57.211 28.224 C 57.466 27.477 57.197 26.607 56.407 25.635 C 56.551 25.415 56.750 25.023 56.717 24.576 C 56.692 24.199 56.511 23.865 56.183 23.583 C 55.171 22.719 50.034 20.524 44.455 20.710 L 44.223 20.719 C 38.619 20.971 36.731 21.706 35.279 22.437 C 34.778 22.690 32.251 24.031 31.935 25.567 C 31.852 25.977 31.928 26.360 32.164 26.708 C 31.932 27.104 31.398 28.127 31.628 28.996 Z M 32.708 26.846 L 32.768 26.755 L 32.782 26.756 C 32.782 26.756 33.159 26.240 33.978 25.815 C 33.978 25.815 33.335 25.843 32.599 26.357 C 32.471 26.142 32.405 25.919 32.458 25.674 C 32.649 24.734 34.134 23.609 35.518 22.913 C 36.921 22.207 38.749 21.499 44.246 21.250 L 44.474 21.241 C 49.960 21.059 54.989 23.262 55.835 23.988 C 56.057 24.176 56.170 24.381 56.189 24.613 C 56.210 24.896 56.082 25.150 55.981 25.308 C 55.162 24.766 54.464 24.784 54.464 24.784 C 55.308 25.155 55.720 25.644 55.720 25.644 L 55.869 25.819 C 56.629 26.702 56.912 27.453 56.708 28.048 C 56.473 28.734 55.243 28.156 55.243 28.156 L 55.051 28.090 C 51.231 26.793 47.426 26.198 43.750 26.320 C 37.472 26.529 33.781 28.725 33.629 28.819 C 33.629 28.819 32.393 29.538 32.143 28.860 C 31.890 28.180 32.489 27.169 32.708 26.846 Z " transform="matrix(1.473761796951294, 0, 0, 1.473761796951294, -1.9, -0.95)"/>
          </g>
        </g>
        <g id="Arm">
          <path id="Fill" fill="#CCE2EA" d="M 21.283 87.725 C 16.220 87.725 12.395 86.620 9.915 84.438 L 9.452 84.030 L 9.501 84.645 C 9.505 84.695 9.578 85.562 9.881 86.337 C 8.741 85.685 6.595 84.180 6.119 81.887 L 5.629 81.892 C 5.617 81.957 5.394 83.167 5.476 84.227 C 4.326 82.994 1.845 80.122 1.812 78.246 L 1.808 78.016 C 1.757 75.489 1.688 72.027 7.761 64.090 C 10.726 60.215 16.889 52.160 17.990 52.123 C 17.988 52.137 18.009 52.204 18 52.362 C 17.868 54.742 16.432 61.172 13.655 68.014 L 13.577 68.205 L 13.750 68.317 C 13.943 68.443 18.604 71.400 28.728 71.400 C 28.728 71.400 28.729 71.400 28.729 71.400 C 29.218 71.400 29.717 71.393 30.231 71.379 L 30.366 73.711 L 30.489 73.777 C 30.610 73.842 33.485 75.373 36.733 75.750 C 38.444 75.948 39.252 76.851 39.278 77.606 C 39.303 78.337 38.628 78.922 37.516 79.130 C 36.646 79.293 35.853 79.376 35.159 79.376 C 34.030 79.376 33.552 79.154 33.547 79.151 L 33.258 79.550 C 33.324 79.618 34.897 81.218 36.414 81.856 C 37.475 82.301 38.265 82.935 38.478 83.508 C 38.555 83.716 38.550 83.902 38.463 84.076 C 38.127 84.748 37.626 85.434 36.453 85.434 C 35.926 85.434 35.299 85.293 34.591 85.017 L 34.055 84.807 L 34.267 85.341 C 34.267 85.341 34.300 85.453 34.214 85.599 C 34.116 85.763 33.805 86.067 32.814 86.253 C 32.661 86.282 32.436 86.330 32.147 86.393 C 30.287 86.792 25.931 87.725 21.283 87.725 L 21.283 87.725 Z " transform="matrix(1.473761796951294, 0, 0, 1.473761796951294, -1.9, -0.95)"/>
          <path id="Outline_3_" d="M 37.562 79.375 C 40.562 78.813 40 75.875 36.762 75.500 C 33.524 75.125 30.608 73.556 30.608 73.556 L 30.467 71.121 C 29.870 71.141 29.292 71.150 28.728 71.150 C 18.561 71.150 13.886 68.108 13.886 68.108 C 16.761 61.025 18.124 54.626 18.249 52.376 C 18.268 52.035 18.181 51.874 17.997 51.874 C 16.969 51.874 12.917 56.939 7.561 63.939 C 1.249 72.189 1.516 75.689 1.561 78.251 C 1.608 80.812 5.875 85 5.875 85 C 5.526 84.010 5.824 82.228 5.867 81.986 L 5.890 81.990 C 6.609 85.266 10.500 86.937 10.500 86.937 C 9.875 86.187 9.750 84.625 9.750 84.625 C 12.696 87.217 17.095 87.975 21.283 87.975 C 26.688 87.975 31.742 86.711 32.861 86.500 C 34.847 86.125 34.500 85.250 34.500 85.250 C 35.292 85.560 35.933 85.685 36.454 85.685 C 37.824 85.685 38.371 84.822 38.688 84.188 C 39.126 83.313 38 82.250 36.512 81.626 C 35.024 81.002 33.438 79.376 33.438 79.376 C 33.438 79.376 33.938 79.626 35.160 79.626 C 35.771 79.625 36.562 79.562 37.562 79.375 Z M 29.719 77.984 L 32.625 79.229 L 33.080 79.724 C 33.148 79.793 34.755 81.429 36.319 82.086 C 37.302 82.499 38.059 83.091 38.245 83.594 C 38.314 83.781 38.276 83.895 38.241 83.964 C 37.924 84.598 37.488 85.185 36.454 85.185 C 35.958 85.185 35.362 85.050 34.683 84.785 L 33.581 84.397 L 33.620 84.455 L 33.595 84.433 L 33.581 84.398 L 30.378 83.095 C 30.378 83.095 32.212 84.505 34.059 85.112 L 34.068 85.126 C 34.023 85.207 34.203 85.783 32.768 86.011 C 32.614 86.040 32.387 86.088 32.095 86.151 C 30.242 86.548 25.904 87.477 21.283 87.477 C 16.283 87.477 12.513 86.392 10.080 84.252 L 9.153 83.436 L 9.251 84.667 C 9.258 84.759 9.301 85.229 9.440 85.778 C 8.560 85.203 7.437 84.273 6.792 83.016 C 6.729 82.867 6.592 82.524 6.364 81.838 C 6.035 80.849 5.984 79.283 5.984 79.283 C 5.718 79.971 5.383 81.847 5.383 81.847 C 5.358 81.978 5.223 82.735 5.208 83.569 C 3.869 82.065 2.088 79.735 2.062 78.243 L 2.058 78.013 C 2.008 75.522 1.939 72.111 7.959 64.243 C 10.454 60.983 16.084 53.625 17.740 52.510 C 17.556 54.983 16.139 61.209 13.452 67.848 C 12.951 67.546 12.109 67.038 11.437 66.627 C 11.437 66.627 12.660 68.041 13.520 68.467 L 13.614 68.528 C 13.810 68.655 18.531 71.651 28.728 71.651 C 29.142 71.651 29.564 71.646 29.996 71.636 L 30.097 73.372 L 28.500 73.047 L 30.126 73.864 L 30.372 73.996 C 30.495 74.062 33.411 75.615 36.705 75.996 C 38.200 76.169 39.005 76.940 39.029 77.613 C 39.050 78.213 38.453 78.699 37.470 78.884 C 36.616 79.044 35.838 79.125 35.159 79.125 C 34.111 79.125 33.661 78.928 33.660 78.928 C 33.266 78.854 29.719 77.984 29.719 77.984 Z " transform="matrix(1.473761796951294, 0, 0, 1.473761796951294, -1.9, -0.95)"/>
        </g>
        <g id="Arm_1_">
          <path id="Fill_1_" fill="#CCE2EA" d="M 67.273 87.258 C 72.335 87.258 76.160 86.153 78.640 83.971 L 79.103 83.563 L 79.054 84.178 C 79.050 84.229 78.977 85.096 78.673 85.871 C 79.814 85.219 81.959 83.713 82.435 81.420 L 82.925 81.425 C 82.938 81.489 83.160 82.700 83.078 83.759 C 84.227 82.526 86.709 79.654 86.742 77.778 L 86.747 77.549 C 86.798 75.022 86.866 71.560 80.794 63.623 C 77.828 59.748 71.665 51.693 70.564 51.656 C 70.566 51.670 70.546 51.737 70.554 51.895 C 70.687 54.275 72.122 60.705 74.900 67.547 L 74.977 67.738 L 74.804 67.850 C 74.611 67.976 69.950 70.933 59.825 70.933 C 59.825 70.933 59.824 70.933 59.823 70.933 C 59.335 70.933 58.836 70.926 58.322 70.912 L 58.187 73.244 L 58.064 73.310 C 57.943 73.375 55.068 74.906 51.821 75.283 C 50.110 75.481 49.301 76.384 49.276 77.139 C 49.251 77.871 49.925 78.455 51.038 78.664 C 51.907 78.826 52.700 78.909 53.395 78.909 C 54.524 78.909 55.002 78.687 55.006 78.684 L 55.295 79.083 C 55.229 79.151 53.656 80.751 52.139 81.389 C 51.078 81.834 50.287 82.468 50.075 83.041 C 49.999 83.249 50.003 83.435 50.091 83.609 C 50.427 84.281 50.929 84.968 52.101 84.968 C 52.628 84.968 53.255 84.827 53.964 84.550 L 54.499 84.341 L 54.287 84.874 C 54.288 84.874 54.254 84.987 54.341 85.132 C 54.439 85.296 54.749 85.601 55.740 85.786 C 55.893 85.815 56.118 85.864 56.407 85.927 C 58.269 86.326 62.625 87.258 67.273 87.258 L 67.273 87.258 Z " transform="matrix(1.473761796951294, 0, 0, 1.473761796951294, -1.9, -0.95)"/>
          <path id="Outline_4_" d="M 53.396 79.159 C 54.618 79.159 55.118 78.909 55.118 78.909 C 55.118 78.909 53.532 80.534 52.044 81.159 C 50.556 81.784 49.431 82.847 49.868 83.721 C 50.185 84.356 50.732 85.219 52.101 85.219 C 52.622 85.219 53.263 85.094 54.055 84.783 C 54.055 84.783 53.708 85.658 55.695 86.033 C 56.814 86.244 61.867 87.508 67.273 87.508 C 71.461 87.508 75.859 86.750 78.805 84.158 C 78.805 84.158 78.680 85.720 78.055 86.470 C 78.055 86.470 81.947 84.800 82.665 81.523 L 82.688 81.518 C 82.731 81.760 83.028 83.542 82.679 84.532 C 82.679 84.532 86.946 80.344 86.991 77.782 C 87.037 75.220 87.303 71.720 80.991 63.470 C 75.635 56.470 71.584 51.405 70.555 51.405 C 70.371 51.405 70.284 51.567 70.303 51.907 C 70.428 54.157 71.790 60.556 74.665 67.639 C 74.665 67.639 69.990 70.681 59.823 70.681 C 59.261 70.681 58.682 70.672 58.085 70.652 L 57.944 73.087 C 57.944 73.087 55.027 74.656 51.790 75.031 C 48.553 75.406 47.990 78.343 50.990 78.906 C 51.993 79.096 52.785 79.159 53.396 79.159 Z M 54.895 78.461 C 54.895 78.461 54.445 78.658 53.397 78.658 C 52.717 78.658 51.940 78.577 51.086 78.417 C 50.104 78.232 49.506 77.746 49.527 77.146 C 49.550 76.474 50.355 75.703 51.850 75.529 C 55.144 75.148 58.060 73.594 58.183 73.529 L 58.429 73.397 L 60.055 72.580 L 58.457 72.903 L 58.558 71.167 C 58.990 71.177 59.412 71.182 59.826 71.182 C 70.024 71.182 74.745 68.186 74.941 68.059 L 75.035 67.998 C 75.895 67.572 77.118 66.158 77.118 66.158 C 76.446 66.570 75.604 67.077 75.103 67.379 C 72.415 60.740 70.999 54.514 70.815 52.041 C 72.471 53.156 78.101 60.514 80.595 63.774 C 86.616 71.642 86.547 75.053 86.497 77.544 L 86.492 77.774 C 86.466 79.266 84.684 81.596 83.346 83.100 C 83.330 82.266 83.196 81.509 83.170 81.377 C 83.170 81.377 82.835 79.501 82.569 78.814 C 82.569 78.814 82.517 80.379 82.189 81.369 C 81.960 82.056 81.824 82.398 81.760 82.548 C 81.114 83.804 79.991 84.734 79.113 85.310 C 79.252 84.761 79.295 84.290 79.302 84.199 L 79.400 82.967 L 78.473 83.783 C 76.040 85.924 72.271 87.008 67.271 87.008 C 62.649 87.008 58.310 86.080 56.459 85.682 C 56.167 85.620 55.939 85.573 55.785 85.543 C 54.350 85.314 54.531 84.738 54.486 84.658 L 54.495 84.644 C 56.342 84.037 58.176 82.627 58.176 82.627 L 54.974 83.929 L 54.960 83.964 L 54.936 83.987 L 54.974 83.928 L 53.871 84.317 C 53.192 84.583 52.596 84.717 52.100 84.717 C 51.067 84.717 50.631 84.129 50.314 83.496 C 50.280 83.426 50.241 83.312 50.310 83.125 C 50.497 82.622 51.252 82.030 52.236 81.617 C 53.799 80.960 55.407 79.325 55.475 79.255 L 55.929 78.761 L 58.835 77.516 C 58.837 77.518 55.290 78.388 54.895 78.461 Z " transform="matrix(1.473761796951294, 0, 0, 1.473761796951294, -1.9, -0.95)"/>
        </g>
      </g>
    </g>
  </g>
</svg>