<?xml version="1.0" encoding="UTF-8" standalone="no"?>
<svg
   xmlns:dc="http://purl.org/dc/elements/1.1/"
   xmlns:cc="http://creativecommons.org/ns#"
   xmlns:rdf="http://www.w3.org/1999/02/22-rdf-syntax-ns#"
   xmlns:svg="http://www.w3.org/2000/svg"
   xmlns="http://www.w3.org/2000/svg"
   xmlns:sodipodi="http://sodipodi.sourceforge.net/DTD/sodipodi-0.dtd"
   xmlns:inkscape="http://www.inkscape.org/namespaces/inkscape"
   version="1.1"
   width="131"
   height="272"
   id="svg614"
   sodipodi:docname="creature1-a.svg"
   inkscape:version="0.92.2 5c3e80d, 2017-08-06">
  <metadata
     id="metadata620">
    <rdf:RDF>
      <cc:Work
         rdf:about="">
        <dc:format>image/svg+xml</dc:format>
        <dc:type
           rdf:resource="http://purl.org/dc/dcmitype/StillImage" />
        <dc:title></dc:title>
      </cc:Work>
    </rdf:RDF>
  </metadata>
  <defs
     id="defs618" />
  <sodipodi:namedview
     pagecolor="#ffffff"
     bordercolor="#666666"
     borderopacity="1"
     objecttolerance="10"
     gridtolerance="10"
     guidetolerance="10"
     inkscape:pageopacity="0"
     inkscape:pageshadow="2"
     inkscape:window-width="640"
     inkscape:window-height="480"
     id="namedview616"
     showgrid="false"
     inkscape:zoom="1.2826087"
     inkscape:cx="65.5"
     inkscape:cy="185.55932"
     inkscape:window-x="-2"
     inkscape:window-y="-2"
     inkscape:window-maximized="0"
     inkscape:current-layer="svg614" />
  <!-- Exported by Scratch - http://scratch.mit.edu/ -->
  <g
     id="ID0.509649989195168"
     transform="translate(0,88)">
    <g
       id="ID0.21365318773314357">
      <g
         id="ID0.20152056636288762">
        <g
           id="Leg_3_">
          <path
             id="Fill_15_"
             d="m 15.419,80.349 c 0,0 -10.184,0.707 1.004,41.145 0,0 -2.879,3.535 -1.879,7.164 0,0 0,0.49 2.25,0.559 0,0 0.125,1.041 2.25,1.367 2.125,0.328 12.005,1.07 11.252,-1.926 0,0 1.918,0.277 2.771,-0.734 0.853,-1.011 0.824,-3.973 -0.286,-4.805 0,0 2.568,-12.191 5.264,-15.336 C 40.74,104.637 23.3,76.9 15.419,80.349 Z"
             transform="matrix(1.4071003,0,0,1.4071003,-8.25,-1.2)"
             inkscape:connector-curvature="0"
             style="fill:#cce2ea" />
          <path
             id="Outline_17_"
             d="M 36.999,101.617 C 33.496,94.004 23.504,79.803 16.891,79.803 c -0.561,0 -1.09,0.107 -1.488,0.297 -0.049,0.003 -1.223,0.103 -2.354,1.701 -2.108,2.98 -4.506,12.092 3.101,39.639 -0.478,0.625 -2.785,3.873 -1.854,7.219 0,0.266 0.307,0.717 2.314,0.803 0.154,0.367 0.674,1.105 2.397,1.371 0.858,0.131 2.925,0.328 5.099,0.328 3.399,0 5.484,-0.465 6.199,-1.381 0.197,-0.252 0.292,-0.535 0.283,-0.846 0.087,0.006 0.188,0.01 0.299,0.01 0.752,0 1.774,-0.15 2.372,-0.859 0.589,-0.699 0.735,-2.045 0.618,-3.066 -0.061,-0.531 -0.247,-1.463 -0.82,-1.994 0.303,-1.389 2.713,-12.201 5.178,-15.078 0.9,-1.054 -0.175,-4.023 -1.236,-6.33 z m 0.856,6.002 c -2.705,3.158 -5.214,14.947 -5.319,15.447 l -0.032,0.156 0.127,0.096 c 0.382,0.287 0.654,0.926 0.75,1.756 0.121,1.066 -0.09,2.197 -0.505,2.688 -0.499,0.592 -1.46,0.682 -1.989,0.682 -0.084,0 -0.16,-0.002 -0.229,-0.006 0.02,-0.506 -0.063,-1.426 -0.613,-2.9 0,0 0.261,1.623 0.145,2.867 l -0.037,0.307 c -0.049,0.301 -0.125,0.568 -0.242,0.762 -0.598,0.766 -2.658,1.188 -5.805,1.188 -2.13,0 -4.211,-0.197 -5.022,-0.322 -0.782,-0.121 -1.256,-0.34 -1.556,-0.555 -1.1,-0.988 -0.191,-4.578 -0.191,-4.578 -0.914,1.369 -0.751,3.734 -0.75,3.75 -1.564,-0.074 -1.802,-0.363 -1.8,-0.363 -0.548,-3.07 0.66,-5.715 1.913,-7.041 0.768,-0.811 5.689,-4.311 10.305,-1.389 0,0 -0.865,-0.984 -2.959,-1.334 -1.893,-0.314 -4.781,-0.119 -7.467,2.281 -7.459,-27.1 -5.182,-36.055 -3.15,-38.978 0.992,-1.429 2.002,-1.533 2.092,-1.554 0.418,-0.183 0.879,-0.275 1.371,-0.275 5.862,0 15.712,12.955 19.654,21.523 1.371,2.982 1.861,5.148 1.309,5.792 z"
             transform="matrix(1.4071003,0,0,1.4071003,-8.25,-1.2)"
             inkscape:connector-curvature="0" />
        </g>
        <g
           id="Leg_2_">
          <path
             id="Fill_14_"
             d="m 72.303,80.349 c 0,0 10.184,0.707 -1.004,41.145 0,0 2.879,3.535 1.879,7.164 0,0 0,0.49 -2.25,0.559 0,0 -0.125,1.041 -2.25,1.367 -2.125,0.328 -12.004,1.07 -11.252,-1.926 0,0 -1.918,0.277 -2.77,-0.734 -0.854,-1.012 -0.824,-3.973 0.285,-4.805 0,0 -2.568,-12.191 -5.264,-15.336 C 46.982,104.637 64.422,76.9 72.303,80.349 Z"
             transform="matrix(1.4071003,0,0,1.4071003,-8.25,-1.2)"
             inkscape:connector-curvature="0"
             style="fill:#cce2ea" />
          <path
             id="Outline_16_"
             d="m 49.488,107.945 c 2.465,2.877 4.875,13.689 5.178,15.078 -0.572,0.531 -0.76,1.463 -0.82,1.994 -0.117,1.021 0.029,2.367 0.619,3.066 0.598,0.709 1.619,0.859 2.371,0.859 0.111,0 0.213,-0.004 0.299,-0.01 -0.008,0.311 0.086,0.594 0.283,0.846 0.715,0.916 2.801,1.381 6.199,1.381 2.174,0 4.24,-0.197 5.1,-0.328 1.723,-0.266 2.242,-1.004 2.396,-1.371 2.008,-0.086 2.314,-0.537 2.314,-0.803 0.932,-3.346 -1.377,-6.594 -1.854,-7.219 7.605,-27.547 5.209,-36.658 3.1,-39.639 -1.131,-1.599 -2.305,-1.698 -2.354,-1.701 -0.398,-0.19 -0.928,-0.297 -1.488,-0.297 -6.613,0 -16.605,14.201 -20.107,21.814 -1.062,2.309 -2.136,5.278 -1.236,6.33 z m 1.69,-6.119 c 3.943,-8.568 13.793,-21.523 19.654,-21.523 0.492,0 0.953,0.093 1.371,0.275 0.09,0.021 1.1,0.125 2.092,1.554 2.031,2.923 4.309,11.878 -3.15,38.978 -2.686,-2.4 -5.574,-2.596 -7.467,-2.281 -2.094,0.35 -2.959,1.334 -2.959,1.334 4.615,-2.922 9.537,0.578 10.305,1.389 1.254,1.326 2.461,3.971 1.914,7.041 0.002,0 -0.236,0.289 -1.801,0.363 0.002,-0.016 0.164,-2.381 -0.75,-3.75 0,0 0.908,3.59 -0.191,4.578 -0.299,0.215 -0.773,0.434 -1.555,0.555 -0.812,0.125 -2.893,0.322 -5.023,0.322 -3.146,0 -5.207,-0.422 -5.805,-1.188 -0.117,-0.193 -0.193,-0.461 -0.242,-0.762 l -0.037,-0.307 c -0.115,-1.244 0.145,-2.867 0.145,-2.867 -0.549,1.475 -0.633,2.395 -0.613,2.9 -0.068,0.004 -0.145,0.006 -0.229,0.006 -0.529,0 -1.49,-0.09 -1.988,-0.682 -0.416,-0.49 -0.627,-1.621 -0.506,-2.688 0.096,-0.83 0.369,-1.469 0.75,-1.756 l 0.127,-0.096 -0.031,-0.156 c -0.105,-0.5 -2.615,-12.289 -5.32,-15.447 -0.553,-0.643 -0.064,-2.809 1.309,-5.792 z"
             transform="matrix(1.4071003,0,0,1.4071003,-8.25,-1.2)"
             inkscape:connector-curvature="0" />
        </g>
        <g
           id="Body_1_">
          <path
             id="Fill_13_"
             d="m 40.013,25.49 c 0,0 -13.248,2.727 -22.459,26.993 -9.332,24.59 -1.426,36.291 4.037,45.128 l 0.125,-4.891 c 0,0 0.366,5.561 7.52,11.227 v -3.09 c 0,0 12.267,19.498 28.293,1.545 l -1.328,3.564 c 0,0 7.854,-4.842 10.02,-11.098 v 3.617 c 0,0 12.723,-13.943 8.918,-31.921 C 71.205,47.983 62.221,29.698 49.721,25.49 l -3.166,-3.875 v 2.167 c 0,0 -2.5,-2.667 -5,-4.167 0,0 0.834,1.167 1.334,4.667 z"
             transform="matrix(1.4071003,0,0,1.4071003,-8.25,-1.2)"
             inkscape:connector-curvature="0"
             style="fill:#cce2ea" />
          <path
             id="Belly_1_"
             d="m 44.078,57.287 c -0.188,0.229 -1.492,-1.833 -3.242,-2.25 0,0 0.976,1.124 0.946,2.271 0,0 -1.613,-1.083 -2.946,-1.135 0,0 1.413,1.115 1.415,1.615 0,0 -19.588,3.25 -19.793,19.833 -0.205,16.583 17.353,26.501 21.324,27.333 3.971,0.834 5.887,0.084 13.221,-5.916 7.332,-6 14.082,-16.417 12.416,-24.5 C 65.753,66.455 54.836,59.704 50.67,58.62 c -4.166,-1.084 -4.166,-1.083 -4.166,-1.083 0,0 0.25,-1.166 1.25,-1.833 0,0 -2.186,-0.251 -3.676,1.583 z"
             transform="matrix(1.4071003,0,0,1.4071003,-8.25,-1.2)"
             inkscape:connector-curvature="0"
             style="fill:#ffffff" />
          <path
             id="Outline_15_"
             d="M 75.414,66.436 C 71.824,49.471 63.238,29.746 49.9,25.198 l -3.564,-4.362 v 2.253 c -0.826,-0.828 -2.646,-2.73 -4.622,-3.766 -0.279,-0.146 -0.801,-0.285 -0.801,-0.285 0.285,0.213 0.615,0.718 0.615,0.718 0.233,0.442 0.631,1.066 1.116,4.292 l -2.651,1.119 C 39.86,25.194 26.505,28.201 17.351,52.316 8.215,76.389 15.594,88.287 20.983,96.977 l 0.867,1.4 0.096,-3.736 c 0.709,2.145 2.526,5.75 7.164,9.426 l 0.406,0.32 v -2.809 c 1.548,2.123 6.874,8.594 14.274,8.594 4.412,0 8.812,-2.268 13.092,-6.746 l -1.139,3.059 0.619,-0.383 c 0.303,-0.186 6.998,-4.363 9.639,-10.031 v 2.982 l 0.436,-0.477 c 0.127,-0.14 12.764,-14.244 8.977,-32.14 z m -9.398,28.273 c -1.754,5.064 -7.381,9.25 -9.281,10.549 l 1.061,-2.848 c 0.25,-0.701 0.523,-2.029 0.523,-2.029 l -0.945,1.777 c -4.451,4.984 -9.021,7.514 -13.582,7.514 -8.53,0 -14.256,-8.936 -14.313,-9.025 l -0.461,-0.732 v 3.434 c -4.849,-3.984 -6.479,-8.332 -6.961,-10.168 -0.066,-0.316 -0.125,-0.615 -0.172,-0.883 -0.162,-0.92 -0.215,-1.51 -0.215,-1.51 l -0.172,1.85 -0.104,4.053 C 16.062,88.093 8.779,76.315 17.82,52.495 26.865,28.663 39.965,25.685 40.141,25.643 l 3.054,-1.283 -0.027,-0.191 c -0.281,-1.963 -0.666,-3.207 -0.959,-3.932 2.174,1.493 4.174,3.614 4.195,3.638 l 0.432,0.461 v -2.097 l 2.723,3.332 0.113,0.079 c 13.178,4.437 21.686,24.032 25.254,40.891 3.33,15.739 -6.234,28.52 -8.424,31.188 v -2.936 l 0.012,-1.695 z"
             transform="matrix(1.4071003,0,0,1.4071003,-8.25,-1.2)"
             inkscape:connector-curvature="0" />
        </g>
        <g
           id="Face_1_">
          <g
             id="Mouth_3_">
            <path
               id="Tooth_4_"
               d="m 57.674,42.33 c 0,0 1.189,-4.704 2.148,0.194 z"
               transform="matrix(1.4071003,0,0,1.4071003,-8.25,-1.2)"
               inkscape:connector-curvature="0"
               style="fill:#ffffff;stroke:#000000;stroke-width:0.5" />
            <path
               id="Tooth_5_"
               d="m 31.71,43.018 c 0,0 -1.189,-4.704 -2.147,0.194 z"
               transform="matrix(1.4071003,0,0,1.4071003,-8.25,-1.2)"
               inkscape:connector-curvature="0"
               style="fill:#ffffff;stroke:#000000;stroke-width:0.5" />
            <path
               id="Mouth_2_"
               d="m 63.031,41.917 c 0,0 0.654,0.321 1.293,0.998 -13.477,-2.346 -35.879,0.126 -40.174,0.638 0.658,-0.722 1.354,-1.064 1.354,-1.064 -3.256,0.583 -2.506,3.332 -2.468,3.467 -0.001,-0.01 -0.001,-0.028 0.004,-0.065 0.087,-0.672 0.325,-1.224 0.615,-1.687 28.733,-3.112 39.879,-0.896 41.208,-0.595 0.297,0.467 0.543,1.026 0.631,1.709 0.006,0.037 0.006,0.055 0.004,0.065 0.039,-0.133 0.789,-2.883 -2.467,-3.466 z"
               transform="matrix(1.4071003,0,0,1.4071003,-8.25,-1.2)"
               inkscape:connector-curvature="0" />
          </g>
          <g
             id="Eye_3_">
            <path
               id="White_3_"
               d="m 33.785,31.871 c 0.724,0 1.38,0.444 1.856,1.16 0.475,0.717 0.769,1.706 0.769,2.798 0,1.092 -0.294,2.081 -0.769,2.798 -0.476,0.716 -1.132,1.16 -1.856,1.16 -0.724,0 -1.38,-0.444 -1.856,-1.16 -0.475,-0.717 -0.769,-1.706 -0.769,-2.798 0,-1.092 0.294,-2.081 0.769,-2.798 0.476,-0.716 1.132,-1.16 1.856,-1.16 z"
               transform="matrix(1.3980949,-0.15829878,0.15829878,1.3980949,-13.6,4.4)"
               inkscape:connector-curvature="0"
               style="fill:#ffffff" />
            <g
               id="Iris_8_">
              <path
                 id="Iris_9_"
                 d="m 33.995,34.772 c 0.549,0 1.047,0.28 1.407,0.732 0.361,0.453 0.584,1.078 0.584,1.767 0,0.689 -0.223,1.314 -0.584,1.767 -0.36,0.452 -0.858,0.732 -1.407,0.732 -0.549,0 -1.047,-0.28 -1.407,-0.732 -0.361,-0.453 -0.584,-1.078 -0.584,-1.767 0,-0.689 0.223,-1.314 0.584,-1.767 0.36,-0.452 0.858,-0.732 1.407,-0.732 z"
                 transform="matrix(1.3980949,-0.15843949,0.15843949,1.3980949,-13.8,4.45)"
                 inkscape:connector-curvature="0"
                 style="fill:#3579bc" />
              <path
                 id="Pupil_3_"
                 d="m 34.108,36.327 c 0.365,0 0.695,0.193 0.935,0.504 0.239,0.311 0.387,0.74 0.387,1.214 0,0.474 -0.148,0.903 -0.387,1.214 -0.24,0.311 -0.57,0.504 -0.935,0.504 -0.365,0 -0.695,-0.193 -0.935,-0.504 -0.239,-0.311 -0.387,-0.74 -0.387,-1.214 0,-0.474 0.148,-0.903 0.387,-1.214 0.24,-0.311 0.57,-0.504 0.935,-0.504 z"
                 transform="matrix(1.3980949,-0.15858021,0.15858021,1.3980949,-13.95,4.45)"
                 inkscape:connector-curvature="0" />
              <path
                 id="Highlight_3_"
                 d="m 33.067,36.099 c 0.197,0 0.375,0.086 0.504,0.225 0.129,0.138 0.209,0.33 0.209,0.541 0,0.211 -0.08,0.403 -0.209,0.541 -0.129,0.139 -0.307,0.225 -0.504,0.225 -0.197,0 -0.375,-0.086 -0.504,-0.225 -0.129,-0.138 -0.209,-0.33 -0.209,-0.541 0,-0.211 0.08,-0.403 0.209,-0.541 0.129,-0.139 0.307,-0.225 0.504,-0.225 z"
                 transform="matrix(1.3980949,-0.15858021,0.15858021,1.3980949,-13.75,4.35)"
                 inkscape:connector-curvature="0"
                 style="fill:#ffffff" />
            </g>
            <path
               id="Outline_13_"
               d="M 34.323,40.001 34.26,40.01 c -0.783,0.088 -1.562,-0.277 -2.195,-1.031 -0.607,-0.724 -1.012,-1.728 -1.137,-2.827 -0.26,-2.294 0.759,-4.27 2.319,-4.498 0.847,-0.097 1.626,0.269 2.259,1.022 0.607,0.725 1.012,1.729 1.137,2.828 0.259,2.295 -0.76,4.27 -2.32,4.497 z m -0.956,-7.857 c -1.318,0.192 -2.168,1.962 -1.941,3.952 0.113,1.002 0.477,1.913 1.021,2.562 0.521,0.621 1.145,0.925 1.756,0.855 l 0.084,0.241 -0.036,-0.248 c 1.271,-0.185 2.12,-1.956 1.894,-3.945 -0.113,-1.003 -0.477,-1.913 -1.021,-2.562 -0.523,-0.621 -1.146,-0.925 -1.757,-0.855 z"
               transform="matrix(1.4071003,0,0,1.4071003,-8.25,-1.2)"
               inkscape:connector-curvature="0" />
          </g>
          <g
             id="Eye_2_">
            <path
               id="White_2_"
               d="m 56.476,31.356 c 0.724,0 1.38,0.444 1.856,1.16 0.475,0.717 0.769,1.706 0.769,2.798 0,1.092 -0.294,2.081 -0.769,2.798 -0.476,0.716 -1.132,1.16 -1.856,1.16 -0.724,0 -1.38,-0.444 -1.856,-1.16 -0.475,-0.717 -0.769,-1.706 -0.769,-2.798 0,-1.092 0.294,-2.081 0.769,-2.798 0.476,-0.716 1.132,-1.16 1.856,-1.16 z"
               transform="matrix(1.3928885,0.19994897,-0.19994897,1.3928885,-0.5,-11.95)"
               inkscape:connector-curvature="0"
               style="fill:#ffffff" />
            <g
               id="Iris_6_">
              <path
                 id="Iris_7_"
                 d="m 56.314,34.264 c 0.549,0 1.047,0.28 1.407,0.732 0.361,0.453 0.584,1.078 0.584,1.767 0,0.689 -0.223,1.314 -0.584,1.767 -0.36,0.452 -0.858,0.732 -1.407,0.732 -0.549,0 -1.047,-0.28 -1.407,-0.732 -0.361,-0.453 -0.584,-1.078 -0.584,-1.767 0,-0.689 0.223,-1.314 0.584,-1.767 0.36,-0.452 0.858,-0.732 1.407,-0.732 z"
                 transform="matrix(1.3928885,0.19980825,-0.19980825,1.3928885,-0.15,-11.85)"
                 inkscape:connector-curvature="0"
                 style="fill:#3579bc" />
              <path
                 id="Pupil_2_"
                 d="m 56.229,35.823 c 0.365,0 0.695,0.192 0.935,0.503 0.239,0.311 0.387,0.74 0.387,1.214 0,0.474 -0.148,0.903 -0.387,1.214 -0.24,0.311 -0.57,0.503 -0.935,0.503 -0.365,0 -0.695,-0.192 -0.935,-0.503 -0.239,-0.311 -0.387,-0.74 -0.387,-1.214 0,-0.474 0.148,-0.903 0.387,-1.214 0.24,-0.311 0.57,-0.503 0.935,-0.503 z"
                 transform="matrix(1.3928885,0.19952683,-0.19952683,1.3928885,-0.1,-11.8)"
                 inkscape:connector-curvature="0" />
              <path
                 id="Highlight_2_"
                 d="m 55.52,35.371 c 0.196,0 0.374,0.086 0.503,0.224 0.129,0.139 0.209,0.33 0.209,0.541 0,0.211 -0.08,0.402 -0.209,0.541 -0.129,0.138 -0.307,0.224 -0.503,0.224 -0.196,0 -0.374,-0.086 -0.503,-0.224 -0.129,-0.139 -0.209,-0.33 -0.209,-0.541 0,-0.211 0.08,-0.402 0.209,-0.541 0.129,-0.138 0.307,-0.224 0.503,-0.224 z"
                 transform="matrix(1.3928885,0.19966754,-0.19966754,1.3928885,-0.3,-11.75)"
                 inkscape:connector-curvature="0"
                 style="fill:#ffffff" />
            </g>
            <path
               id="Outline_12_"
               d="M 55.943,39.487 55.879,39.48 C 55.098,39.368 54.436,38.817 54.014,37.928 53.61,37.074 53.473,36 53.629,34.906 c 0.328,-2.286 1.812,-3.939 3.379,-3.766 0.846,0.12 1.508,0.671 1.93,1.56 0.404,0.854 0.541,1.928 0.385,3.023 -0.329,2.285 -1.813,3.938 -3.38,3.764 z m 1.059,-7.844 c -1.324,-0.146 -2.594,1.351 -2.877,3.333 -0.143,0.998 -0.021,1.971 0.342,2.737 0.348,0.733 0.873,1.184 1.482,1.271 l 0.021,0.254 0.027,-0.249 c 1.275,0.142 2.545,-1.357 2.828,-3.339 0.143,-0.999 0.021,-1.971 -0.342,-2.737 -0.346,-0.732 -0.872,-1.183 -1.481,-1.27 z"
               transform="matrix(1.4071003,0,0,1.4071003,-8.25,-1.2)"
               inkscape:connector-curvature="0" />
          </g>
          <path
             id="L_Eyebrow_1_"
             d="m 30.472,33.205 c 0,0 1.842,-3.618 5.19,-2.028 10e-4,0 -3.424,-4.77 -5.19,2.028 z"
             transform="matrix(1.4071003,0,0,1.4071003,-8.25,-1.2)"
             inkscape:connector-curvature="0" />
          <path
             id="R_Eyebrow_1_"
             d="m 59.135,32.384 c 0,0 -1.82,-3.162 -5.131,-1.772 0,-10e-4 3.385,-4.17 5.131,1.772 z"
             transform="matrix(1.4071003,0,0,1.4071003,-8.25,-1.2)"
             inkscape:connector-curvature="0" />
        </g>
        <g
           id="Gift_1_">
          <g
             id="Box_1_">
            <path
               id="Box_Fill_1_"
               d="M 33.025,63.433 35.472,82.685 47.334,87.572 60.939,80.436 60.98,61.514 45.715,58.49 33.025,63.433"
               transform="matrix(1.4071003,0,0,1.4071003,-8.25,-1.2)"
               inkscape:connector-curvature="0"
               style="fill:#1f519b" />
            <path
               id="Box_Top_1_"
               d="M 33.025,63.433 46.193,66.685 61.082,61.507 45.715,58.49 33.025,63.433"
               transform="matrix(1.4071003,0,0,1.4071003,-8.25,-1.2)"
               inkscape:connector-curvature="0"
               style="fill:#3579bc" />
            <path
               id="Box_Side_1_"
               d="m 46.193,66.685 1.141,20.887 13.605,-7.136 0.143,-18.929 -14.889,5.178"
               transform="matrix(1.4071003,0,0,1.4071003,-8.25,-1.2)"
               inkscape:connector-curvature="0"
               style="fill:#2964aa" />
            <path
               id="Box_Outline_1_"
               d="M 47.348,87.846 35.243,82.861 32.754,63.271 45.692,58.23 61.231,61.309 61.19,80.587 Z M 35.702,82.51 47.323,87.297 60.692,80.285 60.731,61.72 45.737,58.75 33.299,63.595 Z"
               transform="matrix(1.4071003,0,0,1.4071003,-8.25,-1.2)"
               inkscape:connector-curvature="0" />
          </g>
          <path
             id="R_Ribbon_1_"
             d="m 37.899,61.448 13.611,3.388 c 0,0 0.801,20.406 0.744,20.437 -0.059,0.033 4.785,-2.345 4.785,-2.345 L 56.57,63.076 42.193,59.68 Z"
             transform="matrix(1.4071003,0,0,1.4071003,-8.25,-1.2)"
             inkscape:connector-curvature="0"
             style="fill:#cecece;stroke:#000000;stroke-width:0.5" />
          <path
             id="L_Ribbon_1_"
             d="m 50.664,59.403 -13.439,5.067 1.692,19.903 4.069,1.678 -1.472,-20.522 13.978,-5.142 -4.828,-0.984"
             transform="matrix(1.4071003,0,0,1.4071003,-8.25,-1.2)"
             inkscape:connector-curvature="0"
             style="fill:#cecece;stroke:#000000;stroke-width:0.5" />
          <g
             id="Bow_1_">
            <g
               id="ID0.5933016669005156">
              <path
                 id="ID0.20992873655632138"
                 d="m 49.768,61.818 c 1.551,-0.677 8.035,-3.338 13.986,-3.338 1.561,0 2.975,0.183 4.221,0.544 -0.338,0.105 -0.742,0.262 -1.152,0.49 l -0.316,0.175 0.275,0.234 c 0.014,0.013 1.287,1.11 1.764,2.181 -0.969,-0.441 -3.26,-1.236 -7.205,-1.236 -3.23,0 -6.883,0.538 -10.855,1.597 z"
                 transform="matrix(1.4071003,0,0,1.4071003,-8.25,-1.2)"
                 inkscape:connector-curvature="0"
                 style="fill:#cecece" />
              <path
                 id="ID0.3922993503510952"
                 d="m 63.756,58.73 v 0 c 1.227,0 2.361,0.114 3.391,0.342 -0.146,0.066 -0.295,0.14 -0.447,0.224 l -0.629,0.35 0.549,0.468 c 0.297,0.254 0.91,0.851 1.35,1.489 -1.223,-0.445 -3.377,-0.985 -6.629,-0.985 -3.217,0 -6.846,0.528 -10.789,1.571 l -0.326,-0.295 c 2.004,-0.847 7.999,-3.164 13.53,-3.164 m -0.002,-0.5 c -6.92,0 -14.439,3.516 -14.439,3.516 l 1.104,0.996 c 4.541,-1.222 8.145,-1.624 10.922,-1.624 5.332,0 7.613,1.48 7.613,1.48 -0.191,-1.312 -2.01,-2.865 -2.01,-2.865 0.988,-0.549 1.947,-0.666 1.947,-0.666 -1.577,-0.599 -3.336,-0.837 -5.137,-0.837 z"
                 transform="matrix(1.4071003,0,0,1.4071003,-8.25,-1.2)"
                 inkscape:connector-curvature="0" />
            </g>
            <g
               id="ID0.7270398652181029">
              <path
                 id="ID0.7009210777468979"
                 d="m 36.101,64.753 c -2.354,0 -4.323,-0.503 -5.868,-1.498 0.264,-0.053 0.571,-0.146 0.888,-0.307 l 0.248,-0.126 -0.152,-0.233 c -0.009,-0.014 -0.783,-1.212 -1.071,-2.326 1.086,0.899 3.865,2.641 9.124,2.641 1.2,0 2.475,-0.093 3.79,-0.278 l 0.469,0.757 c -0.937,0.337 -4.087,1.37 -7.428,1.37 z"
                 transform="matrix(1.4071003,0,0,1.4071003,-8.25,-1.2)"
                 inkscape:connector-curvature="0"
                 style="fill:#cecece" />
              <path
                 id="ID0.14170527132228017"
                 d="m 30.64,60.939 c 1.416,0.953 4.14,2.215 8.629,2.215 1.163,0 2.394,-0.086 3.663,-0.258 l 0.221,0.354 c -1.178,0.401 -4.038,1.253 -7.051,1.253 -2.061,0 -3.817,-0.392 -5.242,-1.167 0.122,-0.046 0.248,-0.101 0.375,-0.165 l 0.497,-0.252 -0.305,-0.467 c -0.179,-0.274 -0.524,-0.87 -0.787,-1.513 m -0.849,-1.357 c 0.03,1.325 1.217,3.143 1.217,3.143 -0.643,0.327 -1.242,0.352 -1.413,0.352 -0.032,0 -0.049,-10e-4 -0.049,-10e-4 1.894,1.459 4.277,1.927 6.556,1.927 4.068,0 7.799,-1.492 7.799,-1.492 l -0.715,-1.156 c -1.437,0.209 -2.74,0.298 -3.917,0.298 -6.902,0.001 -9.478,-3.071 -9.478,-3.071 z"
                 transform="matrix(1.4071003,0,0,1.4071003,-8.25,-1.2)"
                 inkscape:connector-curvature="0" />
            </g>
            <path
               id="ID0.07137366384267807"
               d="m 45.482,60.573 c 0,0 3.361,-3.037 4.568,-4.624 1.207,-1.586 4.186,-3.162 4.713,-1.412 0.527,1.749 0.5,1.606 1.65,2.404 1.152,0.798 2.057,3.022 -1.289,4.474 -3.346,1.451 -6.551,1.912 -8.535,1.766 -1.982,-0.146 -1.702,-2.065 -1.107,-2.608 z"
               transform="matrix(1.4071003,0,0,1.4071003,-8.25,-1.2)"
               inkscape:connector-curvature="0"
               style="fill:#cecece;stroke:#000000;stroke-width:0.5" />
            <path
               id="ID0.47369779739528894"
               d="m 43.492,60.35 c 0,0 -1.953,-1.845 -2.927,-2.362 -0.976,-0.518 -2.164,-2.002 -2.976,-0.736 -0.811,1.267 -2.037,1.643 -2.852,2.555 -0.815,0.912 0.309,1.461 1.958,2.058 1.648,0.598 5.529,0.853 6.958,0.838 1.431,-0.014 0.617,-1.828 -0.161,-2.353 z"
               transform="matrix(1.4071003,0,0,1.4071003,-8.25,-1.2)"
               inkscape:connector-curvature="0"
               style="fill:#cecece;stroke:#000000;stroke-width:0.5" />
            <path
               id="ID0.33754184236750007"
               d="m 43.467,63.489 c 0.652,0.308 1.037,0.659 2.885,-0.007 0.342,-0.124 0.373,-0.593 -0.193,-1.556 -0.566,-0.964 0.561,-1.583 -0.744,-1.745 -1.309,-0.161 -2.42,0.04 -2.318,0.91 0.098,0.871 -0.583,1.947 0.37,2.398 z"
               transform="matrix(1.4071003,0,0,1.4071003,-8.25,-1.2)"
               inkscape:connector-curvature="0"
               style="fill:#cecece;stroke:#000000;stroke-width:0.5" />
          </g>
        </g>
        <g
           id="Hat_3_">
          <g
             id="Hat_Base_3_">
            <path
               id="Fill_12_"
               d="m 55.604,27.605 c 0,0 1.424,-5.909 -5.1,-10.64 C 43.984,12.234 40.592,7.918 40.151,7.136 39.816,6.543 39.225,4.457 38.094,5.374 c -1.136,0.916 -1.693,4.932 -1.28,9.217 0.408,4.285 -2.265,6.53 -2.427,9.662 0,0 10.58,-3.159 21.217,3.352 z"
               transform="matrix(1.4071003,0,0,1.4071003,-8.25,-1.2)"
               inkscape:connector-curvature="0"
               style="fill:#3579bc" />
            <g
               id="Stripes_2_">
              <path
                 id="ID0.02374853752553463"
                 d="m 55.562,24.378 c 0,0 -8.92,-6.62 -20.478,-2.847 l 0.834,-1.83 c 0,0 8.943,-3.206 19.041,2.648 z"
                 transform="matrix(1.4071003,0,0,1.4071003,-8.25,-1.2)"
                 inkscape:connector-curvature="0"
                 style="fill:#1f519b" />
              <path
                 id="ID0.6463260282762349"
                 d="m 52.135,18.18 c 0,0 -8.793,-3.806 -15.136,-0.86 l -0.131,-1.601 c 0,0 6.828,-2.707 12.931,0.309 z"
                 transform="matrix(1.4071003,0,0,1.4071003,-8.25,-1.2)"
                 inkscape:connector-curvature="0"
                 style="fill:#1f519b" />
              <path
                 id="ID0.9344656621105969"
                 d="m 43.77,11.764 c 0,0 -4.773,-0.625 -6.692,1.941 l -0.396,-1.491 c 0,0 1.317,-2.592 6.008,-1.884 l 1.223,1.575"
                 transform="matrix(1.4071003,0,0,1.4071003,-8.25,-1.2)"
                 inkscape:connector-curvature="0"
                 style="fill:#1f519b" />
              <path
                 id="ID0.915137825999409"
                 d="m 40.151,7.136 c 0,0 -2.384,0.085 -3.192,1.438 L 37.44,6.76 39.878,5.808 Z"
                 transform="matrix(1.4071003,0,0,1.4071003,-8.25,-1.2)"
                 inkscape:connector-curvature="0"
                 style="fill:#1f519b" />
            </g>
            <path
               id="Outline_11_"
               d="m 55.82,28.131 -0.393,-0.24 C 52.177,25.901 48.601,24.624 44.8,24.096 38.93,23.281 34.526,24.562 34.482,24.575 l -0.455,0.135 0.023,-0.473 c 0.071,-1.383 0.598,-2.57 1.153,-3.827 0.739,-1.668 1.502,-3.395 1.273,-5.785 -0.372,-3.863 -0.008,-8.37 1.404,-9.51 0.295,-0.238 0.595,-0.336 0.89,-0.295 0.751,0.104 1.174,1.055 1.479,1.748 0.072,0.164 0.135,0.307 0.191,0.405 0.336,0.599 3.665,4.938 10.258,9.723 6.627,4.807 5.24,10.928 5.229,10.989 z M 38.678,5.482 c -0.106,-0.015 -0.229,0.037 -0.374,0.153 -0.901,0.726 -1.6,4.344 -1.159,8.924 0.246,2.565 -0.589,4.454 -1.328,6.12 -0.464,1.051 -0.906,2.05 -1.055,3.128 1.309,-0.315 5.17,-1.065 10.132,-0.375 3.727,0.518 7.244,1.74 10.459,3.633 0.18,-1.45 0.244,-5.993 -5.047,-9.829 C 43.531,12.318 40.227,7.956 39.858,7.299 39.794,7.187 39.722,7.025 39.64,6.838 39.437,6.383 39.064,5.536 38.678,5.482 Z"
               transform="matrix(1.4071003,0,0,1.4071003,-8.25,-1.2)"
               inkscape:connector-curvature="0" />
          </g>
          <path
             id="Puff_3_"
             d="m 38.432,1.669 c 0.665,0 1.267,0.257 1.704,0.671 0.436,0.415 0.706,0.987 0.706,1.619 0,0.632 -0.27,1.204 -0.706,1.619 -0.437,0.414 -1.039,0.671 -1.704,0.671 -0.665,0 -1.267,-0.257 -1.704,-0.671 -0.436,-0.415 -0.706,-0.987 -0.706,-1.619 0,-0.632 0.27,-1.204 0.706,-1.619 0.437,-0.414 1.039,-0.671 1.704,-0.671 z"
             transform="matrix(-1.3937328,-0.19389841,0.19389841,-1.3937328,98.55,17.25)"
             inkscape:connector-curvature="0"
             style="fill:#ffffff;stroke:#000000;stroke-width:0.5" />
          <g
             id="Brim_3_">
            <path
               id="Brim_Fill_3_"
               d="m 56.033,25.932 c 0,0 0.904,-1.032 -0.062,-1.861 -0.967,-0.827 -6.172,-3.052 -11.775,-2.8 -5.598,0.252 -7.42,0.979 -8.836,1.691 -1.413,0.711 -4.162,2.531 -2.906,4.02 0,0 -1.608,2.865 -0.09,2.814 0.343,-0.012 1.365,-0.462 1.365,-0.462 0,0 8.35,-5.066 21.198,-0.704 -10e-4,-10e-4 3.977,1.484 1.106,-2.698 z"
               transform="matrix(1.4071003,0,0,1.4071003,-8.25,-1.2)"
               inkscape:connector-curvature="0"
               style="fill:#ffffff" />
            <path
               id="Brim_Outline_3_"
               d="m 31.548,29.283 c 0.113,0.438 0.332,0.761 0.828,0.76 0.438,0 1.578,-0.556 1.578,-0.556 0.713,-0.389 4.252,-2.166 9.733,-2.348 3.551,-0.118 7.221,0.446 10.916,1.678 0,0 2.092,0.957 2.527,-0.306 0.256,-0.747 -0.014,-1.617 -0.803,-2.589 0.143,-0.22 0.342,-0.612 0.309,-1.059 -0.025,-0.377 -0.205,-0.711 -0.533,-0.993 -1.012,-0.864 -6.15,-3.059 -11.729,-2.873 l -0.232,0.009 c -5.604,0.252 -7.491,0.987 -8.944,1.718 -0.501,0.253 -3.027,1.594 -3.344,3.13 -0.083,0.41 -0.007,0.793 0.229,1.141 -0.232,0.395 -0.765,1.419 -0.535,2.288 z m 1.08,-2.151 0.06,-0.091 0.014,0.001 c 0,0 0.378,-0.516 1.196,-0.941 0,0 -0.644,0.028 -1.379,0.542 -0.129,-0.215 -0.194,-0.438 -0.142,-0.683 0.191,-0.94 1.676,-2.065 3.06,-2.761 1.404,-0.706 3.232,-1.414 8.729,-1.663 l 0.227,-0.009 c 5.486,-0.182 10.516,2.021 11.361,2.747 0.223,0.188 0.336,0.393 0.354,0.625 0.021,0.283 -0.107,0.537 -0.207,0.695 -0.82,-0.542 -1.518,-0.524 -1.518,-0.524 0.844,0.371 1.256,0.86 1.256,0.86 l 0.15,0.175 c 0.76,0.883 1.043,1.634 0.838,2.229 -0.234,0.686 -1.465,0.108 -1.465,0.108 l -0.191,-0.066 c -3.82,-1.297 -7.625,-1.892 -11.301,-1.77 -6.279,0.209 -9.969,2.405 -10.122,2.499 0,0 -1.236,0.719 -1.486,0.041 -0.253,-0.679 0.347,-1.69 0.566,-2.014 z"
               transform="matrix(1.4071003,0,0,1.4071003,-8.25,-1.2)"
               inkscape:connector-curvature="0" />
          </g>
        </g>
        <g
           id="Arm_3_">
          <path
             id="Fill_7_"
             d="m 27.394,84.332 c -4.991,0.854 -8.948,0.408 -11.76,-1.324 l -0.526,-0.324 0.153,0.599 c 0.012,0.047 0.23,0.891 0.66,1.604 -1.233,-0.451 -3.603,-1.572 -4.459,-3.752 l -0.482,0.088 c 0,0.065 -0.016,1.297 0.244,2.327 C 9.882,82.529 6.953,80.116 6.603,78.273 L 6.561,78.047 c -0.477,-2.482 -1.13,-5.883 3.519,-14.731 2.269,-4.32 6.985,-13.299 8.063,-13.521 10e-4,0.014 0.033,0.076 0.05,0.234 0.271,2.368 -0.059,8.948 -1.642,16.16 l -0.044,0.202 0.188,0.082 c 0.212,0.092 5.305,2.22 15.283,0.512 10e-4,0 0.002,0 0.002,0 0.481,-0.083 0.973,-0.174 1.477,-0.275 l 0.526,2.275 0.133,0.045 c 0.13,0.043 3.222,1.068 6.487,0.891 1.72,-0.094 2.667,0.661 2.822,1.401 0.148,0.716 -0.42,1.407 -1.481,1.8 -0.83,0.308 -1.598,0.522 -2.281,0.64 -1.113,0.19 -1.622,0.052 -1.628,0.05 l -0.217,0.442 c 0.076,0.056 1.897,1.368 3.5,1.74 1.121,0.26 2.005,0.751 2.312,1.281 0.113,0.192 0.139,0.376 0.082,0.562 -0.217,0.719 -0.596,1.48 -1.752,1.678 -0.52,0.089 -1.161,0.057 -1.905,-0.097 l -0.563,-0.117 0.299,0.491 c 0,0 0.052,0.105 -0.009,0.263 -0.068,0.179 -0.325,0.53 -1.27,0.882 -0.146,0.054 -0.359,0.14 -0.634,0.25 -1.766,0.706 -5.903,2.36 -10.484,3.145 z"
             transform="matrix(1.4071003,0,0,1.4071003,-8.25,-1.2)"
             inkscape:connector-curvature="0"
             style="fill:#cce2ea" />
          <path
             id="Outline_10_"
             d="m 42.031,73.355 c 2.863,-1.061 1.812,-3.861 -1.442,-3.685 -3.254,0.176 -6.393,-0.879 -6.393,-0.879 l -0.551,-2.376 c -0.584,0.12 -1.152,0.227 -1.709,0.322 -10.021,1.714 -15.143,-0.495 -15.143,-0.495 1.64,-7.467 1.903,-14.004 1.647,-16.243 -0.038,-0.339 -0.152,-0.484 -0.333,-0.453 -1.014,0.173 -4.153,5.85 -8.251,13.652 -4.831,9.196 -3.977,12.601 -3.5,15.119 0.477,2.518 5.389,5.926 5.389,5.926 -0.511,-0.916 -0.518,-2.723 -0.516,-2.969 h 0.022 c 1.262,3.108 5.379,4.1 5.379,4.1 -0.742,-0.635 -1.129,-2.154 -1.129,-2.154 3.341,2.058 7.805,2.062 11.933,1.357 5.327,-0.912 10.096,-3.01 11.164,-3.407 1.894,-0.705 1.404,-1.509 1.404,-1.509 0.833,0.172 1.485,0.187 1.998,0.099 1.352,-0.23 1.746,-1.174 1.951,-1.852 0.283,-0.936 -1.006,-1.794 -2.578,-2.159 -1.572,-0.365 -3.409,-1.699 -3.409,-1.699 0,0 0.534,0.162 1.739,-0.044 0.605,-0.102 1.375,-0.297 2.328,-0.651 z m -7.965,-0.047 3.074,0.737 0.532,0.411 c 0.078,0.057 1.938,1.398 3.591,1.782 1.038,0.241 1.885,0.697 2.153,1.162 0.1,0.172 0.08,0.291 0.059,0.365 -0.205,0.678 -0.537,1.33 -1.556,1.505 -0.489,0.083 -1.1,0.051 -1.813,-0.096 l -1.151,-0.196 0.048,0.05 -0.028,-0.018 -0.02,-0.032 -3.377,-0.744 c 0,0 2.045,1.08 3.969,1.366 l 0.012,0.013 c -0.03,0.087 0.244,0.625 -1.133,1.091 -0.147,0.055 -0.362,0.141 -0.639,0.251 -1.76,0.705 -5.879,2.351 -10.434,3.13 -4.93,0.844 -8.827,0.41 -11.587,-1.289 l -1.051,-0.647 0.305,1.196 c 0.022,0.09 0.144,0.547 0.374,1.064 -0.965,-0.418 -2.229,-1.145 -3.076,-2.276 -0.088,-0.136 -0.28,-0.451 -0.62,-1.089 -0.491,-0.92 -0.807,-2.454 -0.807,-2.454 -0.146,0.723 -0.159,2.628 -0.159,2.628 -0.002,0.134 -0.009,0.903 0.118,1.728 -1.574,-1.257 -3.723,-3.254 -4,-4.719 L 6.807,78 c -0.47,-2.446 -1.112,-5.797 3.494,-14.567 1.909,-3.634 6.217,-11.836 7.662,-13.215 0.235,2.468 -0.111,8.844 -1.639,15.841 -0.546,-0.213 -1.462,-0.571 -2.193,-0.864 0,0 1.443,1.188 2.363,1.463 l 0.104,0.044 c 0.214,0.093 5.372,2.249 15.423,0.529 0.408,-0.07 0.823,-0.146 1.247,-0.229 l 0.393,1.694 -1.629,-0.049 1.74,0.531 0.265,0.089 c 0.132,0.044 3.269,1.083 6.58,0.904 1.502,-0.081 2.426,0.543 2.563,1.202 0.123,0.587 -0.385,1.167 -1.321,1.515 -0.816,0.302 -1.569,0.513 -2.237,0.627 -1.034,0.177 -1.51,0.058 -1.511,0.059 -0.403,-0.007 -4.045,-0.266 -4.045,-0.266 z"
             transform="matrix(1.4071003,0,0,1.4071003,-8.25,-1.2)"
             inkscape:connector-curvature="0" />
        </g>
        <g
           id="Arm_2_">
          <path
             id="Fill_3_"
             d="m 86.004,55.649 c -13,-11.75 -18.387,-11.924 -18.062,-10.438 0.438,2.008 3.596,8.36 3.596,8.36 0,0 -0.877,0.27 -1.984,0.728 -2.002,-0.068 -6.053,0.136 -7.154,2.787 0,0 -0.391,1.736 1.758,1.284 0.049,0.367 0.246,0.768 0.66,1.211 0,0 -1.027,1.448 0.861,2.414 0,0 1.701,2.987 5.951,3.008 0,0 3.875,10.146 13.562,16.958 0,0 0.875,-1.63 1.625,-1.909 0,0 -0.375,1.346 1.688,3.971 l 1,-1.5 c 0,0 0.125,1.062 1,2.062 0,0 0.75,-0.812 2.188,-1.312 1.438,-0.5 4.25,-1.192 5.062,-3.221 0.812,-2.029 1.249,-12.653 -11.751,-24.403 z"
             transform="matrix(1.4071003,0,0,1.4071003,-8.25,-1.2)"
             inkscape:connector-curvature="0"
             style="fill:#cce2ea" />
          <path
             id="Outline_9_"
             d="M 86.172,55.463 C 77.092,47.258 71.26,44.312 68.834,44.312 c -0.48,0 -0.82,0.119 -1.01,0.354 -0.133,0.165 -0.178,0.372 -0.127,0.599 0.393,1.806 2.881,6.925 3.488,8.158 -0.283,0.093 -0.76,0.26 -1.324,0.482 -0.744,0.012 -5.887,0.179 -7.441,2.474 -0.799,1.18 -0.229,1.827 0.375,2.111 0.371,0.174 0.84,0.135 1.15,0.078 0.082,0.342 0.262,0.691 0.562,1.045 -0.125,0.246 -0.307,0.722 -0.176,1.257 0.131,0.528 0.523,0.97 1.168,1.314 0.283,0.454 2.033,2.978 5.959,3.066 0.545,1.323 4.609,10.601 13.588,16.915 l 0.23,0.162 0.135,-0.249 c 0.182,-0.341 0.672,-1.14 1.135,-1.558 0.049,0.65 0.365,1.88 1.76,3.656 l 0.213,0.271 0.875,-1.312 c 0.141,0.426 0.408,1.029 0.92,1.615 l 0.184,0.207 0.189,-0.203 c 0.006,-0.008 0.73,-0.775 2.086,-1.246 0.162,-0.057 0.344,-0.115 0.539,-0.18 1.557,-0.509 3.91,-1.28 4.674,-3.185 0.817,-2.038 1.282,-12.842 -11.814,-24.68 z m -22.264,2.469 c -0.014,0.072 -0.006,0.146 -0.008,0.22 -0.463,0.103 -1.195,0.149 -1.252,-0.606 -0.082,-1.104 0.797,-1.537 1.109,-1.754 0.447,-0.311 1.383,-0.973 4.859,-1.357 -0.367,0.17 -0.744,0.357 -1.109,0.559 -0.203,0.112 -0.422,0.226 -0.648,0.344 -1.291,0.673 -2.754,1.438 -2.951,2.594 z M 97.521,79.96 c -0.676,1.688 -2.896,2.415 -4.365,2.895 -0.197,0.065 -0.381,0.125 -0.547,0.183 -1.061,0.369 -1.76,0.898 -2.084,1.183 -0.66,-0.861 -0.773,-1.717 -0.773,-1.727 l -0.082,-0.67 -1.18,1.77 c -1.703,-2.28 -1.436,-3.465 -1.434,-3.474 l 0.131,-0.472 -0.459,0.171 C 86.076,80.062 85.4,81.104 85.109,81.598 75.764,74.911 71.9,65.014 71.861,64.914 L 71.8,64.754 71.628,64.753 c -3.025,-0.015 -4.725,-1.604 -5.395,-2.416 2.039,0.541 5.227,-0.313 5.227,-0.313 1.396,2.292 3.605,2.551 3.605,2.551 -2.875,-1.283 -3.375,-3.322 -3.375,-3.322 -3.584,0.938 -4.824,0.778 -5.9,0.52 -0.596,-0.143 -0.873,-0.621 -0.971,-1.017 -0.135,-0.54 0.197,-1.025 0.199,-1.03 l 0.117,-0.167 c 0,0 2.279,-2.31 4.764,-3.327 0,0 -2,-0.083 -5.057,2.99 -0.354,-0.435 -0.508,-0.833 -0.443,-1.207 0.156,-0.912 1.562,-1.646 2.691,-2.236 0.229,-0.12 0.451,-0.236 0.658,-0.35 1.768,-0.975 3.84,-1.613 3.861,-1.619 l 0.059,-0.018 c 0.045,-0.014 0.076,-0.023 0.076,-0.023 1.775,-0.473 2.791,-0.089 3.57,0.134 1.33,0.379 6.453,3.38 9.094,5.183 5.125,3.501 9.469,8.125 9.469,8.125 -5.75,-8.562 -17.566,-13.57 -18.904,-13.943 -0.971,-0.271 -2.492,-0.2 -3.303,0.013 -0.496,-1.008 -3.1,-6.346 -3.486,-8.123 -0.021,-0.101 0.006,-0.15 0.027,-0.179 0.084,-0.104 0.316,-0.167 0.621,-0.167 2.217,0 8.002,2.887 17.002,11.022 12.887,11.646 12.478,22.15 11.687,24.126 z"
             transform="matrix(1.4071003,0,0,1.4071003,-8.25,-1.2)"
             inkscape:connector-curvature="0" />
        </g>
      </g>
    </g>
  </g>
</svg>
