<svg version="1.1" width="108" height="191" viewBox="11 15 108 191" xmlns="http://www.w3.org/2000/svg" xmlns:xlink="http://www.w3.org/1999/xlink">
  <defs>
    <radialGradient id="grad_1" cx="0.4464" cy="0.41979999999999995" r="0.75426">
      <stop offset="0" stop-color="#FFFFCC" stop-opacity="1"/>
      <stop offset="1" stop-color="#CC7700" stop-opacity="1"/>
    </radialGradient>
    <radialGradient id="grad_2" cx="0.0499" cy="0.6968000000000001" r="1.23513">
      <stop offset="0" stop-color="#CC7700" stop-opacity="0"/>
      <stop offset="1" stop-color="#CC7700" stop-opacity="1"/>
    </radialGradient>
    <radialGradient id="grad_3" cx="0.5" cy="0.5384" r="0.6999200000000001">
      <stop offset="0" stop-color="#B2B2B2" stop-opacity="1"/>
      <stop offset="1" stop-color="#CC7700" stop-opacity="1"/>
    </radialGradient>
  </defs>
  <!-- Exported by Scratch - http://scratch.mit.edu/ -->
  <g id="ID0.985036508180201" transform="matrix(0.7737809419631958, 0, 0, 0.7737809419631958, -0.3, -0.55)">
    <path id="ID0.9375987756066024" fill="none" stroke="#000000" stroke-width="2" d="M 254.400 262 L 214.900 285.400 " transform="matrix(-1, 0, 0, 1, 318.2, -83)"/>
    <path id="ID0.27987909922376275" fill="none" stroke="#000000" stroke-width="2" d="M 254.400 262 L 267.300 288.900 " transform="matrix(-1, 0, 0, 1, 318.2, -83)"/>
    <path id="ID0.8391895452514291" fill="none" stroke="#000000" stroke-width="2" stroke-linecap="round" d="M 286.100 282.200 L 254.400 262 L 255 152 " transform="matrix(-1, 0, 0, 1, 318.2, -83)"/>
    <g id="ID0.12444673851132393">
      <path id="ID0.5767882149666548" fill="#995900" stroke="#995900" stroke-width="2" d="M 255.500 108.500 C 270.674 108.500 284.424 111.918 294.381 117.439 C 304.337 122.960 310.500 130.585 310.500 139 C 310.500 147.415 304.337 155.040 294.381 160.561 C 284.424 166.082 270.674 169.500 255.500 169.500 C 240.326 169.500 226.576 166.082 216.619 160.561 C 206.663 155.040 200.500 147.415 200.500 139 C 200.500 130.585 206.663 122.960 216.619 117.439 C 226.576 111.918 240.326 108.500 255.500 108.500 Z " transform="matrix(-0.8920316696166992, 0.4519728124141693, 0.4519728124141693, 0.8920316696166992, 230.7, -183.5)"/>
      <path id="ID0.5767882149666548" fill="url(#grad_1)" stroke="url(#grad_2)" stroke-width="2" d="M 255.500 108.500 C 270.674 108.500 284.424 111.918 294.381 117.439 C 304.337 122.960 310.500 130.585 310.500 139 C 310.500 147.415 304.337 155.040 294.381 160.561 C 284.424 166.082 270.674 169.500 255.500 169.500 C 240.326 169.500 226.576 166.082 216.619 160.561 C 206.663 155.040 200.500 147.415 200.500 139 C 200.500 130.585 206.663 122.960 216.619 117.439 C 226.576 111.918 240.326 108.500 255.500 108.500 Z " transform="matrix(-0.8920316696166992, 0.4519728124141693, 0.4519728124141693, 0.8920316696166992, 229.7, -185.15)"/>
    </g>
    <g id="ID0.970934422686696">
      <path id="ID0.2635198035277426" fill="url(#grad_3)" stroke="#000000" stroke-width="2" d="M 257.500 136.500 C 258.328 136.500 259.078 136.752 259.621 137.159 C 260.164 137.567 260.500 138.129 260.500 138.750 C 260.500 139.371 260.164 139.933 259.621 140.341 C 259.078 140.748 258.328 141 257.500 141 C 256.672 141 255.922 140.748 255.379 140.341 C 254.836 139.933 254.500 139.371 254.500 138.750 C 254.500 138.129 254.836 137.567 255.379 137.159 C 255.922 136.752 256.672 136.500 257.500 136.500 Z " transform="matrix(-1, 0, 0, 1, 320.2, -92)"/>
      <path id="ID0.6341005605645478" fill="none" stroke="#000000" stroke-width="2" stroke-linecap="round" d="M 257.500 138 L 257.500 132 " transform="matrix(-1, 0, 0, 1, 320.2, -92)"/>
    </g>
  </g>
</svg>