<?xml version="1.0" encoding="UTF-8" standalone="no"?>
<svg
   xmlns:dc="http://purl.org/dc/elements/1.1/"
   xmlns:cc="http://creativecommons.org/ns#"
   xmlns:rdf="http://www.w3.org/1999/02/22-rdf-syntax-ns#"
   xmlns:svg="http://www.w3.org/2000/svg"
   xmlns="http://www.w3.org/2000/svg"
   xmlns:sodipodi="http://sodipodi.sourceforge.net/DTD/sodipodi-0.dtd"
   xmlns:inkscape="http://www.inkscape.org/namespaces/inkscape"
   version="1.1"
   width="63"
   height="145"
   viewBox="-1 -1 63 145"
   id="svg1745"
   sodipodi:docname="dani-c.svg"
   inkscape:version="0.92.2 5c3e80d, 2017-08-06">
  <metadata
     id="metadata1751">
    <rdf:RDF>
      <cc:Work
         rdf:about="">
        <dc:format>image/svg+xml</dc:format>
        <dc:type
           rdf:resource="http://purl.org/dc/dcmitype/StillImage" />
        <dc:title></dc:title>
      </cc:Work>
    </rdf:RDF>
  </metadata>
  <defs
     id="defs1749" />
  <sodipodi:namedview
     pagecolor="#ffffff"
     bordercolor="#666666"
     borderopacity="1"
     objecttolerance="10"
     gridtolerance="10"
     guidetolerance="10"
     inkscape:pageopacity="0"
     inkscape:pageshadow="2"
     inkscape:window-width="876"
     inkscape:window-height="480"
     id="namedview1747"
     showgrid="false"
     inkscape:zoom="2"
     inkscape:cx="55.031739"
     inkscape:cy="75.743088"
     inkscape:window-x="-6"
     inkscape:window-y="-6"
     inkscape:window-maximized="0"
     inkscape:current-layer="svg1745" />
  <!-- Exported by Scratch - http://scratch.mit.edu/ -->
  <g
     id="ID0.0717017580755055"
     transform="matrix(0.47764037,0,0,0.47764037,-75.238726,-28.37174)">
    <path
       id="ID0.42535007279366255"
       d="m 49,96.6 c 0.6,-6.46 -4.145,-2.809 -6.25,-2.1 -3.223,0.965 -5.552,3.592 -7.75,6.5 -2.31,2.864 -4.81,5.709 -5.6,9.6 -1.434,7.23 -0.1,14.8 -0.8,22.1 -1.1,13.2 -2.5,26.4 -3.9,39.6 -0.8,7 -1.4,14.1 -2.5,21.2 -0.3,1.4 -0.8,2.8 -1.3,4.1 -2,2.5 -2.8,5.9 -4.2,9 -0.9,1.9 -1.9,3.9 -2.2,6 -0.1,0.7 0.5,1.6 1.2,2.1 0.5,0.4 1.3,0.6 1.9,0.1 1.3,-1.2 2.2,-2.6 3.1,-4.5 -0.1,1.8 -0.1,3.6 -0.4,5.3 -0.5,3.4 -1.4,6.7 -1.3,10.2 0,1.3 0.8,2.7 1.8,3 0.9,0.4 1.8,-0.7 2.3,-1.6 1,-2.3 1.8,-4.5 2.4,-7.1 0,-0.5 0.3,-3.2 0.3,-3.9 0.1,-0.1 -0.1,0.1 0,0 0,0.7 -0.1,3.3 -0.3,3.9 0.1,3.2 0.2,5.8 0.9,8.6 0.2,1.1 1.2,2 2.1,1.9 0.9,0.1 1.8,-0.7 2.1,-1.8 0.6,-2.4 0.8,-4.7 0.8,-7.3 0.4,1.9 0.9,3.5 1.6,5.3 0.4,1 1.4,1.5 2.3,1.3 0.9,-0.1 1.7,-0.9 1.8,-2 0.3,-3 0,-5.7 -0.5,-9.2 -0.1,-0.9 -0.3,-1.7 -0.5,-2.5 1.1,1.9 1.8,3.8 3.5,5 0.7,0.5 2.3,-0.7 2.3,-1.5 0.1,-2.2 -0.9,-4 -1.7,-6.1 -0.5,-1.2 -1,-2.5 -1.6,-3.7 -0.6,-2.2 -1.4,-4.5 -2.4,-6.6 0,0.2 0,0.4 0,0.6 -0.1,-0.3 -0.1,-0.7 -0.2,-1 0.1,0.1 0.1,0.3 0.2,0.4 0,-9.2 -2,-18.4 -0.9,-27.7 C 38.4,147.9 46.6,122.428 49,96.6 Z M 31.5,217 c 0.2,0.6 0,3.8 0,4.5"
       transform="matrix(-0.85737497,0,0,0.85737497,285.1,62.35)"
       inkscape:connector-curvature="0"
       style="fill:#c38f4e;stroke:#000000" />
    <path
       id="ID0.5185407963581383"
       d="m 36.3,201.5 c 0,0.2 0,0.4 0,0.6 -0.1,-0.3 -0.1,-0.7 -0.2,-1 0.1,0.1 0.2,0.3 0.2,0.4 z"
       transform="matrix(-0.85737497,0,0,0.85737497,285.1,66.7)"
       inkscape:connector-curvature="0"
       style="fill:#e7d3ba;stroke:#000000;stroke-linecap:round" />
    <path
       id="ID0.5812096912413836"
       d="m 36.3,201.5 c 0,0.2 0,0.4 0,0.6 -0.1,-0.3 -0.1,-0.7 -0.2,-1 0.1,0.1 0.2,0.3 0.2,0.4 z"
       transform="matrix(-0.85737497,0,0,0.85737497,285.1,66.7)"
       inkscape:connector-curvature="0"
       style="fill:#ffffff;stroke:#000000;stroke-width:2;stroke-linecap:round" />
    <path
       id="ID0.22108889603987336"
       d="m 82.9,319.2 c 0,1.3 -0.1,1.8 -0.3,1.9 0.1,0.9 0,1.8 -0.3,2.6 -2.2,5.4 -7.3,9.3 -11.7,12.8 -3.7,2.9 -8.2,5.6 -12.7,6.1 -4.2,0.2 -9.1,-1.2 -11.5,-4.3 -2.2,-2.9 -2.3,-7.6 -0.7,-11 2.1,-4.2 7.2,-6.5 11.2,-9.1 3.3,-2.1 6.7,-4.4 10.6,-5.8 0.4,-1.9 0.8,-3.7 0.8,-5.6 0,-7.6 -0.2,-15.4 -1,-23 -2.8,-26.4 -7.5,-50.3 -9.8,-75.8 0,-0.3 -0.1,-0.7 -0.1,-1 -0.1,-1.4 -0.3,-2.8 -0.5,-4.2 v 0 c -0.1,-0.9 -0.2,-1.8 -0.3,-2.7 -0.2,-1.6 -0.3,-3.2 -0.4,-4.8 h -2.3 c 0,1.4 -0.1,2.8 -0.3,4.3 -0.5,4.6 -1.3,9.2 -1.7,13.5 -1.5,20.5 -5.8,40.5 -7,61.1 -0.8,13.3 0.9,26.4 0.5,40 0,1.5 -0.2,1.9 -0.5,2 0,0 0,0 0,0 -0.1,1.1 -0.4,2.2 -1,3.1 -3,4.3 -8.7,5.4 -13.2,7.4 -3.1,1.6 -6.4,2.9 -9.5,3.5 -2.5,0.5 -5.2,1.3 -7.8,0.5 -2.9,-0.8 -6.6,-2.1 -7.8,-5.1 -1.3,-3.4 -0.6,-8 1.8,-10.8 3,-3.7 8.4,-4.8 12.9,-6.4 3.2,-1.2 6.6,-2.5 10.1,-3.1 0.2,-12.7 0.1,-25.6 0.4,-38.4 0.3,-18.3 0.4,-37 1.5,-55.6 0.1,-1.2 0.1,-2.5 0,-3.7 -0.1,-4.8 -0.5,-10 0.1,-14.7 0.2,-2 0.6,-3.9 1.3,-5.6 -0.4,-2.3 -0.5,-4.7 -0.5,-7 L 39.3,132.5 37.2,111 c 0,-6.6 5.2,-25.8 11.8,-25.8 l 0.5,0.2 c 1.9,-2.2 3.9,-4.3 5,-6.9 1.2,-2.9 -1.2,-7.3 1.1,-9.5 3.5,-3.4 9.7,-6.3 13.4,-5.1 2.5,0.7 -1.1,5.9 -0.9,8.9 0.2,3 1,6.1 2.4,8.7 1,1.8 3.2,3.5 5,5.1 4.7,0.7 9.6,2.6 13.3,6.5 L 79,197.5 c 0,1.7 -0.3,2.4 -0.8,2.5 0.3,2.6 0.6,5.1 0.8,7.6 0,0.2 0,0.5 0.1,0.7 1.6,17.9 0.3,35.9 0.5,53.9 0.1,6.6 0.2,13.1 0.7,19.8 0.6,12.2 2.2,24.5 2.6,37.2 z"
       transform="matrix(-0.85737497,0,0,0.85737497,285.1,66.7)"
       inkscape:connector-curvature="0"
       style="fill:#c38f4e;stroke:#000000;stroke-linecap:round" />
    <path
       id="ID0.2304357774555683"
       d="m 51.6,1.1 c 8.2,0.5 16.8,3.8 22.6,10 5.8,6.2 9.4,14.8 9.4,24.2 0,9.4 -4,17.5 -9.4,24.2 -4.8,6 -11.8,11.2 -19.3,11.8 C 46.1,72 34,70.7 29.7,63.1 21.9,48.8 23.5,30.9 23.3,14.6 23.2,10.5 26.4,9 29.3,7.6 36.2,4.3 43.8,0.5 51.6,1.1 Z"
       transform="matrix(-0.85737497,0,0,0.85737497,285.1,66.7)"
       inkscape:connector-curvature="0"
       style="fill:#c38f4e;stroke:#000000" />
    <path
       id="ID0.3979696361348033"
       d="m 58.3,29 c 2.5,0.4 4.7,1.3 6.2,3 1.2,1.3 1.4,3.5 1.1,5.2 -0.3,1.8 -1.1,4.3 -2.9,4.7 -3.8,0.9 -8.3,0.7 -11.8,-1.1 -1.8,-1 -1.9,-4 -1.8,-6 0.1,-1.8 0.9,-3.7 2.5,-4.7 1.9,-1.2 4.2,-1.5 6.7,-1.1 z"
       transform="matrix(-0.85737497,0,0,0.85737497,285.1,66.7)"
       inkscape:connector-curvature="0"
       style="fill:#ffffff;stroke:#000000;stroke-linecap:round" />
    <path
       id="ID0.7059543542563915"
       d="m 57.3,35.7 c 1.8,0.3 3.4,0.9 4.4,1.7 1.1,0.8 1.5,1.8 1.5,2.9 0,0.9 -0.4,1.9 -1.1,2.2 -1.9,0.7 -4,0.8 -5.9,0.6 -1.8,-0.2 -3.7,-0.8 -5.1,-2 -0.8,-0.5 -1.1,-1.7 -0.9,-2.6 0.3,-1 1,-1.8 2.3,-2.3 1.3,-0.6 3,-0.8 4.8,-0.5 z"
       transform="matrix(-0.85737497,0,0,0.85737497,285.1,66.7)"
       inkscape:connector-curvature="0"
       style="fill:#ffffff" />
    <path
       id="ID0.3979696361348033_1_"
       d="m 60.4,29.3 c 1.8,0.3 3.4,1 4.5,2.3 0.9,1.1 0.8,2.8 0.7,4.2 -0.1,1.2 -0.2,2.9 -1.2,3.1 -3,0.8 -6.5,0.9 -9.2,-0.3 -1.3,-0.6 -1.7,-2.9 -1.6,-4.5 0.1,-1.4 0.7,-3 1.9,-3.8 1.4,-0.9 3.1,-1.2 4.9,-1 z"
       transform="matrix(-0.85737497,0,0,0.85737497,285.1,66.7)"
       inkscape:connector-curvature="0"
       style="stroke:#000000;stroke-linecap:round" />
    <path
       id="ID0.8203399423509836"
       d="m 62.6,31.6 c 0.5,0.1 1,0.4 1.3,0.8 0.3,0.4 0.4,1 0.3,1.6 -0.1,0.6 -0.4,1.1 -0.8,1.4 -0.4,0.3 -0.9,0.5 -1.4,0.4 -0.5,-0.1 -1,-0.4 -1.3,-0.8 -0.3,-0.4 -0.4,-1 -0.3,-1.6 0.1,-0.6 0.4,-1.1 0.8,-1.4 0.3,-0.3 0.8,-0.5 1.4,-0.4 z"
       transform="matrix(-0.85737497,0,0,0.85737497,285.1,66.7)"
       inkscape:connector-curvature="0"
       style="fill:#ffffff" />
    <path
       id="ID0.3979696361348033_2_"
       d="m 32.1,29.2 c 1.8,0.3 3.3,1.2 4.3,2.9 0.8,1.3 0.9,3.4 0.7,5.2 -0.2,1.7 -0.8,4.2 -2.1,4.7 -2.7,1 -5.9,0.8 -8.3,-0.9 -1.3,-1 -1.3,-3.9 -1.2,-6 0.1,-1.8 0.7,-3.8 1.8,-4.7 1.4,-1.2 3,-1.6 4.8,-1.2 z"
       transform="matrix(-0.85737497,0,0,0.85737497,285.1,66.7)"
       inkscape:connector-curvature="0"
       style="fill:#ffffff;stroke:#000000;stroke-linecap:round" />
    <path
       id="ID0.7059543542563915_1_"
       d="m 31.3,35.9 c 1.3,0.2 2.4,0.8 3.1,1.7 0.8,0.8 1,1.8 1,2.8 0,0.9 -0.3,1.9 -0.8,2.2 -1.3,0.7 -2.8,0.9 -4.2,0.7 -1.3,-0.2 -2.6,-0.8 -3.6,-1.9 -0.5,-0.5 -0.8,-1.7 -0.6,-2.6 0.2,-1 0.7,-1.8 1.6,-2.4 1,-0.6 2.2,-0.8 3.5,-0.5 z"
       transform="matrix(-0.85737497,0,0,0.85737497,285.1,66.7)"
       inkscape:connector-curvature="0"
       style="fill:#ffffff" />
    <path
       id="ID0.3979696361348033_3_"
       d="m 33.1,29.4 c 1.5,0.3 2.7,1 3.5,2.3 0.7,1.1 0.7,2.8 0.6,4.2 -0.1,1.2 -0.2,2.9 -0.9,3.1 -2.4,0.8 -5.2,0.9 -7.3,-0.3 -1.1,-0.6 -1.4,-2.9 -1.3,-4.5 0.1,-1.4 0.5,-3 1.5,-3.8 1.1,-0.9 2.4,-1.2 3.9,-1 z"
       transform="matrix(-0.85737497,0,0,0.85737497,285.1,66.7)"
       inkscape:connector-curvature="0"
       style="stroke:#000000;stroke-linecap:round" />
    <path
       id="ID0.8203399423509836_1_"
       d="m 34.7,31.7 c 0.4,0.1 0.8,0.4 1,0.8 0.2,0.4 0.3,1 0.3,1.6 0,0.6 -0.3,1.1 -0.6,1.4 -0.3,0.3 -0.7,0.5 -1.1,0.4 -0.4,-0.1 -0.8,-0.4 -1,-0.8 -0.2,-0.4 -0.3,-1 -0.3,-1.6 0.1,-0.6 0.3,-1.1 0.6,-1.4 0.3,-0.3 0.7,-0.5 1.1,-0.4 z"
       transform="matrix(-0.85737497,0,0,0.85737497,285.1,66.7)"
       inkscape:connector-curvature="0"
       style="fill:#ffffff" />
    <path
       id="ID0.6091326382011175_3_"
       d="m 45.2,53.5 c -0.6,0 -1.1,0 -1.7,0 -1.4,0 -3.8,0.5 -4.3,-0.8 -0.8,-2 0.9,-4.5 1.5,-6.7 0.7,-2.5 1.1,-6.4 2.3,-8.2"
       transform="matrix(-0.85737497,0,0,0.85737497,285.1,66.7)"
       inkscape:connector-curvature="0"
       style="fill:#c38f4e;stroke:#000000" />
    <path
       id="ID0.33014168171212077"
       d="m 27.2,25.5 c 1.9,-0.4 3.9,-0.7 5.9,-0.7 1.6,0.1 4.9,1.4 4.7,1.3 -0.2,-0.1 -4.2,-1.7 -6.3,-1.9 -1.5,-0.1 -3,0.5 -4.4,0.9 -0.8,0.2 -1.3,0.8 -2,1.1 -0.3,0.1 -0.8,0.4 -0.8,0.4 0,-0.1 0.3,-0.4 0.6,-0.5 0.7,-0.1 1.4,-0.4 2.3,-0.6 z"
       transform="matrix(-0.85737497,0,0,0.85737497,285.1,66.7)"
       inkscape:connector-curvature="0"
       style="fill:none;stroke:#000000;stroke-width:2" />
    <path
       id="ID0.33014168171212077_1_"
       d="m 53.9,24.7 c 2.5,0 5.1,-0.1 7.5,0.3 2,0.4 5.6,2.2 5.4,2.1 -0.2,-0.1 -4.6,-2.4 -7.1,-2.9 -1.8,-0.4 -3.9,0 -5.8,0.2 -1,0.1 -1.9,0.6 -2.9,0.8 -0.4,0.1 -1.1,0.2 -1.1,0.3 0,-0.1 0.5,-0.4 0.9,-0.4 1.1,-0.1 2,-0.4 3.1,-0.4 z"
       transform="matrix(-0.85737497,0,0,0.85737497,285.1,66.7)"
       inkscape:connector-curvature="0"
       style="fill:none;stroke:#000000;stroke-width:2" />
    <path
       id="ID0.8090730751864612"
       d="m 79.5,207.5 c -0.1,0 -0.2,0 -0.5,0 h -0.2 c -6.7,-0.1 -13.3,-0.5 -20,-0.8 -0.8,0 -1.2,0.1 -1.4,0.2 -0.2,0.1 -0.3,0.1 -0.4,-0.2 -0.4,-1.3 -0.2,-2.6 -0.1,-4 v 0 c 0.1,-0.6 0.1,-1.2 0.1,-1.8 0,-0.5 0,-0.8 -0.4,-1 0,0 -0.1,0 -0.1,0 -0.9,-0.3 -1.5,-0.6 -2.5,-0.6 -0.4,0 0.2,0 -0.2,0 -0.8,0 -0.2,2.2 -0.3,3 0,1.6 -0.3,3.2 -0.7,4.7 -0.2,0.7 0.3,0.9 -1.1,0.8 -5.9,0.2 -13.3,0.4 -19.1,-0.7 0,0 0,0 0,0 C 31,207 32,206 32,205 c -0.1,-2.8 0,-5.7 0,-8.5 0,-1.3 -0.9,-2.8 0,-3.5 0.2,-0.2 0.4,-0.3 0.6,-0.4 1.2,-0.7 2.3,-0.6 4.9,-0.6 5.4,0 10.9,0.3 16.4,0.6 0.7,0 1.5,0.1 2.2,0.1 5.8,0.3 11.6,0.7 17.4,1 1.5,0.1 2.7,-0.1 3.6,-0.1 0.9,0 1.7,0.2 2.4,0.8 1.2,1.2 0.1,3.2 0,5 -0.1,2.5 -0.3,5 -0.5,7.5 0,0.5 0.5,0.6 0.5,0.6 z"
       transform="matrix(-0.85737497,0,0,0.85737497,285.1,66.7)"
       inkscape:connector-curvature="0"
       style="fill:#ccd8ff;stroke:#000000;stroke-linecap:round" />
    <path
       id="ID0.8959085866808891"
       d="m 110.8,223.7 c -0.1,0.8 -1.8,1.9 -2.5,1.3 -0.7,-0.6 -1.2,-1.3 -1.6,-2.1 -0.5,-1 -0.9,-2.1 -1.4,-3.2 0.1,0.8 0.2,1.6 0.2,2.4 0.1,1.4 0.2,2.7 0.2,3.9 0,1.8 -0.1,3.5 -0.5,5.3 -0.2,1.1 -1.1,1.8 -2,1.8 -0.9,0.2 -1.9,-0.5 -2.2,-1.5 -0.2,-0.6 -0.4,-1.3 -0.5,-1.9 -0.3,-1.1 -0.5,-2.3 -0.6,-3.5 -0.1,1 -0.2,2 -0.4,3 -0.2,1.5 -0.6,2.9 -1.1,4.3 -0.3,1 -1.4,1.7 -2.2,1.6 -0.9,0 -1.8,-1 -1.9,-2.1 -0.4,-3 -0.4,-5.6 -0.1,-9 -0.9,2.7 -1.8,4.8 -3.1,7 -0.5,1 -1.5,1.9 -2.4,1.4 -1,-0.3 -1.6,-1.8 -1.5,-3.1 0.2,-3.4 1.4,-6.7 2.2,-10 0.4,-1.6 0.6,-3.2 0.8,-4.9 -1,1.6 -2,2.9 -3.3,3.9 -0.6,0.4 -1.4,0.2 -1.8,-0.3 -0.7,-0.5 -1.2,-1.4 -1,-2.2 0.5,-2.1 1.7,-4 2.7,-5.8 1.5,-2.7 2.7,-5.9 4.7,-8.1 0,-0.1 0,-0.2 0,-0.3 0.2,-3.2 1.3,-6.2 1.4,-9.4 -0.3,-5.7 -1.3,-11.4 -2.2,-17 -2.2,-13.3 -5.2,-26.5 -8.2,-39.8 -1.6,-7.2 -6,-13.7 -6.8,-21 -0.5,-4 -2.1,-14.5 -1.2,-18.2 1.2,-5.5 2.4,-5.3 5.7,-7.8 2.4,-1.9 7.7,0.6 9.2,6.2 6,22.4 7,36.8 13.6,77.2 1.9,13 4.1,29.1 4.4,39.4 0,0 0,0.1 0.1,0.1 0.8,1.5 1.7,3.9 2.3,6.1 0.5,2.2 1.3,4.1 1,6.3 z"
       transform="matrix(-0.85737497,0,0,0.85737497,285.1,66.7)"
       inkscape:connector-curvature="0"
       style="fill:#c38f4e;stroke:#000000" />
    <g
       id="ID0.9040245194919407"
       transform="translate(189,59)">
      <path
         id="ID0.8950433996506035"
         d="m 50.6,84.8 c -5.2,-2 -13.5,2.6 -16.5,7.7 -6.3,10.6 -10.3,23.2 -10.7,35.5 -0.1,4 6,4.1 9.5,4.5 4.3,0.4 10,2.1 12.4,-1.9 5.3,-8.9 5.6,-19.9 6.4,-30 0.5,-5.4 2.5,-13.7 -1.1,-15.8 z"
         transform="matrix(-0.85737497,0,0,0.85737497,96.1,7.7)"
         inkscape:connector-curvature="0"
         style="fill:#e5e5e5;stroke:#000000;stroke-linecap:round" />
      <path
         id="ID0.8537395023740828"
         d="m 48,85 c 0.9,-1.4 1.2,-0.6 2,-0.5 1.8,0.3 3.3,1.6 5.2,2 1.4,0.3 3,0.3 4.2,0.2 1.9,-0.1 3.8,-0.4 5.5,-1 1.7,-0.6 3,-2 4.5,-2.7 0.7,-0.4 1.1,-1.4 2,-1 3.4,1.4 8.6,1.9 9.5,5.5 3.1,12.6 0.2,25.9 1.1,38.8 0.2,3.2 1.6,4.6 1.9,7 0.3,2.2 0,2.9 0,6.8 -0.4,9.5 -0.8,18.9 -1.5,28.4 -0.7,9.4 -1,18.7 -2.8,27.9 -0.3,2.3 -1.1,0.6 -2.5,0.5 -5.5,-0.5 -11.1,-1.5 -16.8,-2 -8.4,-0.9 -16.9,-1.6 -25.5,-2.3 -2.1,-0.2 -3,1.8 -3.1,-0.2 -0.8,-7.9 0.4,-15.9 1.1,-23.9 1.3,-12.6 4.3,-25 5,-37.7 0.5,-9.2 -1.9,-18.9 0,-28 C 39.4,96.3 44.2,90.7 48,85 Z"
         transform="matrix(-0.85737497,0,0,0.85737497,96.1,7.7)"
         inkscape:connector-curvature="0"
         style="fill:#e5e5e5;stroke:#000000;stroke-linecap:round" />
      <path
         id="ID0.8950433996506035_1_"
         d="m 81.5,86.1 c -4.2,-0.1 -8,6.3 -8.2,11.3 -0.8,12.3 0.6,25.4 5.6,36.7 1.6,3.6 7.2,1.1 10.5,0 4.1,-1.4 10,-2.4 10.4,-7 1,-10.4 -3,-20.7 -7,-29.9 -2.4,-5.4 -6.5,-11 -11.3,-11.1 z"
         transform="matrix(-0.85737497,0,0,0.85737497,96.1,7.7)"
         inkscape:connector-curvature="0"
         style="fill:#e5e5e5;stroke:#000000;stroke-linecap:round" />
    </g>
    <path
       id="path1695"
       d="m 118.15,80.85 c 1.932,-0.39 3.907,-0.786 5.7,-1.6 1.458,-0.744 4.022,-3.146 3.9,-3 -0.122,0.146 -3.218,3.152 -5.104,4.109 -1.348,0.684 -2.966,0.649 -4.471,0.791 -0.801,0.076 -1.55,-0.265 -2.325,-0.3 -0.322,-10e-4 -0.841,-0.053 -0.85,-0.1 -0.008,0.072 0.462,0.274 0.75,0.25 0.796,-0.038 1.532,0.023 2.4,-0.15 z"
       transform="matrix(-0.85737497,0,0,0.85737497,345.95,49.4)"
       inkscape:connector-curvature="0"
       style="fill:none;stroke:#000000" />
    <g
       id="ID0.8413872672244906"
       transform="translate(189,59)">
      <path
         id="ID0.41002379078418016"
         d="m 130.25,27.75 0.3,0.3"
         transform="matrix(-0.85737497,0,0,0.85737497,152.9,-6.9)"
         inkscape:connector-curvature="0"
         style="fill:none;stroke:#000000;stroke-width:2;stroke-linecap:round" />
      <path
         id="ID0.2192263174802065"
         d="m 131.75,22.75 0.3,0.3"
         transform="matrix(-0.85737497,0,0,0.85737497,152.9,-6.9)"
         inkscape:connector-curvature="0"
         style="fill:none;stroke:#000000;stroke-width:2;stroke-linecap:round" />
      <path
         id="ID0.42237327713519335"
         d="m 129.75,18.25 0.3,0.3"
         transform="matrix(-0.85737497,0,0,0.85737497,152.9,-4.75)"
         inkscape:connector-curvature="0"
         style="fill:none;stroke:#000000;stroke-width:2;stroke-linecap:round" />
      <path
         id="ID0.15152022195979953"
         d="m 137.25,26.25 0.3,0.3"
         transform="matrix(-0.85737497,0,0,0.85737497,152.9,-6.9)"
         inkscape:connector-curvature="0"
         style="fill:none;stroke:#000000;stroke-width:2;stroke-linecap:round" />
      <path
         id="ID0.9444573791697621"
         d="m 142,29 0.3,0.3"
         transform="matrix(-0.85737497,0,0,0.85737497,152.9,-6.9)"
         inkscape:connector-curvature="0"
         style="fill:none;stroke:#000000;stroke-width:2;stroke-linecap:round" />
      <g
         id="ID0.10227410774677992">
        <path
           id="ID0.24350191559642553"
           d="m 93.25,29.75 0.3,0.3"
           transform="matrix(-0.85737497,0,0,0.85737497,152.9,-6.9)"
           inkscape:connector-curvature="0"
           style="fill:none;stroke:#000000;stroke-width:2;stroke-linecap:round" />
        <path
           id="ID0.6119376877322793"
           d="m 91,26.75 0.3,0.3"
           transform="matrix(-0.85737497,0,0,0.85737497,152.9,-6.9)"
           inkscape:connector-curvature="0"
           style="fill:none;stroke:#000000;stroke-width:2;stroke-linecap:round" />
        <path
           id="ID0.22385990107432008"
           d="m 100,31.75 0.3,0.3"
           transform="matrix(-0.85737497,0,0,0.85737497,152.9,-6.9)"
           inkscape:connector-curvature="0"
           style="fill:none;stroke:#000000;stroke-width:2;stroke-linecap:round" />
        <path
           id="ID0.39597224444150925"
           d="m 97.5,29 0.3,0.3"
           transform="matrix(-0.85737497,0,0,0.85737497,152.9,-6.9)"
           inkscape:connector-curvature="0"
           style="fill:none;stroke:#000000;stroke-width:2;stroke-linecap:round" />
        <path
           id="ID0.5630058185197413"
           d="m 96.75,25.5 0.3,0.3"
           transform="matrix(-0.85737497,0,0,0.85737497,152.9,-6.9)"
           inkscape:connector-curvature="0"
           style="fill:none;stroke:#000000;stroke-width:2;stroke-linecap:round" />
        <path
           id="ID0.898963360581547"
           d="m 94,25.25 0.3,0.3"
           transform="matrix(-0.85737497,0,0,0.85737497,152.9,-6.9)"
           inkscape:connector-curvature="0"
           style="fill:none;stroke:#000000;stroke-width:2;stroke-linecap:round" />
        <path
           id="ID0.9569845292717218"
           d="m 100,24.5 0.3,0.3"
           transform="matrix(-0.85737497,0,0,0.85737497,152.9,-6.9)"
           inkscape:connector-curvature="0"
           style="fill:none;stroke:#000000;stroke-width:2;stroke-linecap:round" />
        <path
           id="ID0.45963405491784215"
           d="m 101.75,28 0.3,0.3"
           transform="matrix(-0.85737497,0,0,0.85737497,152.9,-6.9)"
           inkscape:connector-curvature="0"
           style="fill:none;stroke:#000000;stroke-width:2;stroke-linecap:round" />
        <path
           id="ID0.8996017631143332"
           d="m 105,32 0.3,0.3"
           transform="matrix(-0.85737497,0,0,0.85737497,152.9,-6.9)"
           inkscape:connector-curvature="0"
           style="fill:none;stroke:#000000;stroke-width:2;stroke-linecap:round" />
        <path
           id="ID0.23980682250112295"
           d="m 109.5,32 0.3,0.3"
           transform="matrix(-0.85737497,0,0,0.85737497,152.9,-6.9)"
           inkscape:connector-curvature="0"
           style="fill:none;stroke:#000000;stroke-width:2;stroke-linecap:round" />
        <path
           id="ID0.16575106233358383"
           d="m 107.25,29.25 0.3,0.3"
           transform="matrix(-0.85737497,0,0,0.85737497,152.9,-6.9)"
           inkscape:connector-curvature="0"
           style="fill:none;stroke:#000000;stroke-width:2;stroke-linecap:round" />
        <path
           id="ID0.7687926040962338"
           d="m 105.5,27 0.3,0.3"
           transform="matrix(-0.85737497,0,0,0.85737497,152.9,-6.9)"
           inkscape:connector-curvature="0"
           style="fill:none;stroke:#000000;stroke-width:2;stroke-linecap:round" />
        <path
           id="ID0.9760902225971222"
           d="m 104.5,24 0.3,0.3"
           transform="matrix(-0.85737497,0,0,0.85737497,152.9,-6.9)"
           inkscape:connector-curvature="0"
           style="fill:none;stroke:#000000;stroke-width:2;stroke-linecap:round" />
        <path
           id="ID0.2078149076551199"
           d="m 102,21.75 0.3,0.3"
           transform="matrix(-0.85737497,0,0,0.85737497,152.9,-6.9)"
           inkscape:connector-curvature="0"
           style="fill:none;stroke:#000000;stroke-width:2;stroke-linecap:round" />
        <path
           id="ID0.6238096617162228"
           d="m 107.75,22.5 0.3,0.3"
           transform="matrix(-0.85737497,0,0,0.85737497,151.4,-7.3)"
           inkscape:connector-curvature="0"
           style="fill:none;stroke:#000000;stroke-width:2;stroke-linecap:round" />
        <path
           id="ID0.14701040787622333"
           d="m 111,25.5 0.3,0.3"
           transform="matrix(-0.85737497,0,0,0.85737497,152.9,-6.9)"
           inkscape:connector-curvature="0"
           style="fill:none;stroke:#000000;stroke-width:2;stroke-linecap:round" />
        <path
           id="ID0.10906077269464731"
           d="m 110.5,27.25 0.3,0.3"
           transform="matrix(-0.85737497,0,0,0.85737497,152.9,-6.9)"
           inkscape:connector-curvature="0"
           style="fill:none;stroke:#000000;stroke-width:2;stroke-linecap:round" />
        <path
           id="ID0.3091214164160192"
           d="m 107.5,25.25 0.3,0.3"
           transform="matrix(-0.85737497,0,0,0.85737497,152.9,-6.9)"
           inkscape:connector-curvature="0"
           style="fill:none;stroke:#000000;stroke-width:2;stroke-linecap:round" />
        <path
           id="ID0.06403775373473763"
           d="m 114.75,32 0.3,0.3"
           transform="matrix(-0.85737497,0,0,0.85737497,152.9,-6.9)"
           inkscape:connector-curvature="0"
           style="fill:none;stroke:#000000;stroke-width:2;stroke-linecap:round" />
        <path
           id="ID0.8980339462868869"
           d="m 111.5,30.75 0.3,0.3"
           transform="matrix(-0.85737497,0,0,0.85737497,152.9,-6.9)"
           inkscape:connector-curvature="0"
           style="fill:none;stroke:#000000;stroke-width:2;stroke-linecap:round" />
        <path
           id="ID0.3596992786042392"
           d="m 114.25,30 0.3,0.3"
           transform="matrix(-0.85737497,0,0,0.85737497,152.9,-6.9)"
           inkscape:connector-curvature="0"
           style="fill:none;stroke:#000000;stroke-width:2;stroke-linecap:round" />
        <path
           id="ID0.27595191448926926"
           d="m 117.5,30 0.3,0.3"
           transform="matrix(-0.85737497,0,0,0.85737497,152.9,-6.9)"
           inkscape:connector-curvature="0"
           style="fill:none;stroke:#000000;stroke-width:2;stroke-linecap:round" />
        <path
           id="ID0.08591677201911807"
           d="m 123.5,29 0.3,0.3"
           transform="matrix(-0.85737497,0,0,0.85737497,152.9,-6.9)"
           inkscape:connector-curvature="0"
           style="fill:none;stroke:#000000;stroke-width:2;stroke-linecap:round" />
        <path
           id="ID0.1477889372035861"
           d="m 127.75,28.5 0.3,0.3"
           transform="matrix(-0.85737497,0,0,0.85737497,152.9,-6.9)"
           inkscape:connector-curvature="0"
           style="fill:none;stroke:#000000;stroke-width:2;stroke-linecap:round" />
        <path
           id="ID0.11423252569511533"
           d="m 120.25,30 0.3,0.3"
           transform="matrix(-0.85737497,0,0,0.85737497,152.9,-6.9)"
           inkscape:connector-curvature="0"
           style="fill:none;stroke:#000000;stroke-width:2;stroke-linecap:round" />
        <path
           id="ID0.9690173603594303"
           d="m 119.25,26 0.3,0.3"
           transform="matrix(-0.85737497,0,0,0.85737497,152.9,-6.9)"
           inkscape:connector-curvature="0"
           style="fill:none;stroke:#000000;stroke-width:2;stroke-linecap:round" />
        <path
           id="ID0.9210021910257638"
           d="m 116.25,26 0.3,0.3"
           transform="matrix(-0.85737497,0,0,0.85737497,152.9,-6.9)"
           inkscape:connector-curvature="0"
           style="fill:none;stroke:#000000;stroke-width:2;stroke-linecap:round" />
        <path
           id="ID0.32813409995287657"
           d="m 113.5,23.5 0.3,0.3"
           transform="matrix(-0.85737497,0,0,0.85737497,152.9,-6.9)"
           inkscape:connector-curvature="0"
           style="fill:none;stroke:#000000;stroke-width:2;stroke-linecap:round" />
        <path
           id="ID0.6091880574822426"
           d="m 117.25,23.25 0.3,0.3"
           transform="matrix(-0.85737497,0,0,0.85737497,152.9,-6.9)"
           inkscape:connector-curvature="0"
           style="fill:none;stroke:#000000;stroke-width:2;stroke-linecap:round" />
        <path
           id="ID0.2975412136875093"
           d="m 119,15.25 0.3,0.3"
           transform="matrix(-0.85737497,0,0,0.85737497,158.45,-4.95)"
           inkscape:connector-curvature="0"
           style="fill:none;stroke:#000000;stroke-width:2;stroke-linecap:round" />
        <path
           id="ID0.030690357089042664"
           d="m 119,19 0.3,0.3"
           transform="matrix(-0.85737497,0,0,0.85737497,152.9,-6.9)"
           inkscape:connector-curvature="0"
           style="fill:none;stroke:#000000;stroke-width:2;stroke-linecap:round" />
        <path
           id="ID0.11854917649179697"
           d="m 120.5,21.25 0.3,0.3"
           transform="matrix(-0.85737497,0,0,0.85737497,152.9,-6.9)"
           inkscape:connector-curvature="0"
           style="fill:none;stroke:#000000;stroke-width:2;stroke-linecap:round" />
        <path
           id="ID0.1039060652256012"
           d="m 123.5,25 0.3,0.3"
           transform="matrix(-0.85737497,0,0,0.85737497,152.9,-6.9)"
           inkscape:connector-curvature="0"
           style="fill:none;stroke:#000000;stroke-width:2;stroke-linecap:round" />
        <path
           id="ID0.19144484400749207"
           d="m 127.75,24.5 0.3,0.3"
           transform="matrix(-0.85737497,0,0,0.85737497,152.9,-6.9)"
           inkscape:connector-curvature="0"
           style="fill:none;stroke:#000000;stroke-width:2;stroke-linecap:round" />
        <path
           id="ID0.2129623619839549"
           d="m 125.5,21 0.3,0.3"
           transform="matrix(-0.85737497,0,0,0.85737497,152.9,-6.9)"
           inkscape:connector-curvature="0"
           style="fill:none;stroke:#000000;stroke-width:2;stroke-linecap:round" />
        <path
           id="ID0.6070057232864201"
           d="m 125.5,17.75 0.3,0.3"
           transform="matrix(-0.85737497,0,0,0.85737497,152.9,-6.9)"
           inkscape:connector-curvature="0"
           style="fill:none;stroke:#000000;stroke-width:2;stroke-linecap:round" />
        <path
           id="ID0.8679030160419643"
           d="m 122,15.75 0.3,0.3"
           transform="matrix(-0.85737497,0,0,0.85737497,157.8,-5.6)"
           inkscape:connector-curvature="0"
           style="fill:none;stroke:#000000;stroke-width:2;stroke-linecap:round" />
        <path
           id="ID0.3542917799204588"
           d="m 131,15 0.3,0.3"
           transform="matrix(-0.85737497,0,0,0.85737497,166.15,-2.6)"
           inkscape:connector-curvature="0"
           style="fill:none;stroke:#000000;stroke-width:2;stroke-linecap:round" />
        <path
           id="ID0.6033238801173866"
           d="m 154.5,43 0.3,0.3"
           transform="matrix(-0.85737497,0,0,0.85737497,192.3,-28.1)"
           inkscape:connector-curvature="0"
           style="fill:none;stroke:#000000;stroke-width:2;stroke-linecap:round" />
      </g>
      <path
         id="ID0.8655655565671623"
         d="m 96.75,68.25 c 1.122,-0.047 0.445,-2.139 -0.15,-2.8 -1.457,-1.914 -6.94,-4.393 -5.55,-4.35 2.789,0.099 9.595,2.936 14.4,4.35 3.132,0.921 9.118,2.863 10.1,2.75 0.705,-0.12 -4.333,-1.914 -5.75,-3.35 -1.203,-1.244 -3.626,-4.533 -2.55,-4.55 2.369,0.116 6.185,3.834 9.5,4.75 2.148,0.592 4.504,0.392 6.7,0 1.667,-0.294 5.671,-0.751 5.15,-2 -1.254,-2.301 -10.067,-4.612 -8.7,-5.1 1.662,-0.575 10.469,1.175 15.4,2.55 3.12,0.869 5.715,3.095 8.7,4.35 2.251,0.947 6.175,2.033 6.95,1.95 0.606,0.083 -2.683,-0.84 -3.55,-1.95 -0.59,-0.755 -1.656,-2.938 -0.4,-2.85 5.025,0.351 9.927,1.527 14.6,3.25 2.601,0.985 4.401,3.625 6.95,4.95 0.623,0.225 1.248,-0.544 1.95,-0.6 0.462,-0.041 1.42,-0.468 1.4,0 -0.063,1.451 -1.176,2.57 -1.6,3.95 -0.445,1.461 -0.698,3.062 -1,4.55 -0.24,1.174 -0.377,2.222 -0.6,3.55 -0.359,2.119 0.949,5.85 -1.15,6.35 -4.273,1.016 -8.521,-3.815 -13.05,-3.15 -9.493,1.245 -18.124,7.289 -27.7,8.7 C 115.421,95.222 103.101,96.478 92,93.15 84.996,91.051 79.391,84.703 75.45,78.5 73.346,65.294 72.889,61.212 73.65,56.35 c 0.286,-1.46 2.258,2.094 3.35,3.15 2.339,2.042 4.17,4.878 6.95,6.15 3.954,1.811 8.469,2.775 12.8,2.6 z"
         transform="matrix(-0.54221344,0,0,0.54221344,120.85,-28.9)"
         inkscape:connector-curvature="0"
         style="fill:#000000;stroke:#000000;stroke-width:2;stroke-linecap:round" />
    </g>
  </g>
</svg>
