<svg version="1.1" width="122" height="289" viewBox="-1 -1 122 289" xmlns="http://www.w3.org/2000/svg" xmlns:xlink="http://www.w3.org/1999/xlink">
  <!-- Exported by Scratch - http://scratch.mit.edu/ -->
  <g id="ID0.5149393286556005">
    <path id="ID0.42535007279366255" fill="#C38F4E" stroke="#000000" d="M 49 96.600 C 49.600 90.140 44.855 93.791 42.750 94.500 C 39.527 95.465 37.198 98.092 35 101 C 32.690 103.864 30.190 106.709 29.400 110.600 C 27.966 117.830 29.300 125.400 28.600 132.700 C 27.500 145.900 26.100 159.100 24.700 172.300 C 23.900 179.300 23.300 186.400 22.200 193.500 C 21.900 194.900 21.400 196.300 20.900 197.600 C 18.900 200.100 18.100 203.500 16.700 206.600 C 15.800 208.500 14.800 210.500 14.500 212.600 C 14.400 213.300 15 214.200 15.700 214.700 C 16.200 215.100 17 215.300 17.600 214.800 C 18.900 213.600 19.800 212.200 20.700 210.300 C 20.600 212.100 20.600 213.900 20.300 215.600 C 19.800 219 18.900 222.300 19 225.800 C 19 227.100 19.800 228.500 20.800 228.800 C 21.700 229.200 22.600 228.100 23.100 227.200 C 24.100 224.900 24.900 222.700 25.500 220.100 C 25.500 219.600 25.800 216.900 25.800 216.200 C 25.900 216.100 25.700 216.300 25.800 216.200 C 25.800 216.900 25.700 219.500 25.500 220.100 C 25.600 223.300 25.700 225.900 26.400 228.700 C 26.600 229.800 27.600 230.700 28.500 230.600 C 29.400 230.700 30.300 229.900 30.600 228.800 C 31.200 226.400 31.400 224.100 31.400 221.500 C 31.800 223.400 32.300 225 33 226.800 C 33.400 227.800 34.400 228.300 35.300 228.100 C 36.200 228 37 227.200 37.100 226.100 C 37.400 223.100 37.100 220.400 36.600 216.900 C 36.500 216 36.300 215.200 36.100 214.400 C 37.200 216.300 37.900 218.200 39.600 219.400 C 40.300 219.900 41.900 218.700 41.900 217.900 C 42 215.700 41 213.900 40.200 211.800 C 39.700 210.600 39.200 209.300 38.600 208.100 C 38 205.900 37.200 203.600 36.200 201.500 C 36.200 201.700 36.200 201.900 36.200 202.100 C 36.100 201.800 36.100 201.400 36 201.100 C 36.100 201.200 36.100 201.400 36.200 201.500 C 36.200 192.300 34.200 183.100 35.300 173.800 C 38.400 147.900 46.600 122.428 49 96.600 Z M 31.500 217 C 31.700 217.600 31.500 220.800 31.500 221.500 " transform="matrix(-0.8145062327384949, 0, 0, 0.8145062327384949, 124.65, 4.8)"/>
    <path id="ID0.5185407963581383" fill="#E7D3BA" stroke="#000000" stroke-linecap="round" d="M 36.300 201.500 C 36.300 201.700 36.300 201.900 36.300 202.100 C 36.200 201.800 36.200 201.400 36.100 201.100 C 36.200 201.200 36.300 201.400 36.300 201.500 Z " transform="matrix(-0.8145062327384949, 0, 0, 0.8145062327384949, 124.65, 8.85)"/>
    <path id="ID0.5812096912413836" fill="#FFFFFF" stroke="#000000" stroke-width="2" stroke-linecap="round" d="M 36.300 201.500 C 36.300 201.700 36.300 201.900 36.300 202.100 C 36.200 201.800 36.200 201.400 36.100 201.100 C 36.200 201.200 36.300 201.400 36.300 201.500 Z " transform="matrix(-0.8145062327384949, 0, 0, 0.8145062327384949, 124.65, 8.85)"/>
    <path id="ID0.22108889603987336" fill="#C38F4E" stroke="#000000" stroke-linecap="round" d="M 82.900 319.200 C 82.900 320.500 82.800 321 82.600 321.100 C 82.700 322 82.600 322.900 82.300 323.700 C 80.100 329.100 75 333 70.600 336.500 C 66.900 339.400 62.400 342.100 57.900 342.600 C 53.700 342.800 48.800 341.400 46.400 338.300 C 44.200 335.400 44.100 330.700 45.700 327.300 C 47.800 323.100 52.900 320.800 56.900 318.200 C 60.200 316.100 63.600 313.800 67.500 312.400 C 67.900 310.500 68.300 308.700 68.300 306.800 C 68.300 299.200 68.100 291.400 67.300 283.800 C 64.500 257.400 59.800 233.500 57.500 208 C 57.500 207.700 57.400 207.300 57.400 207 C 57.300 205.600 57.100 204.200 56.900 202.800 L 56.900 202.800 C 56.800 201.900 56.700 201 56.600 200.100 C 56.400 198.500 56.300 196.900 56.200 195.300 L 53.900 195.300 C 53.900 196.700 53.800 198.100 53.600 199.600 C 53.100 204.200 52.300 208.800 51.900 213.100 C 50.400 233.600 46.100 253.600 44.900 274.200 C 44.100 287.500 45.800 300.600 45.400 314.200 C 45.400 315.700 45.200 316.100 44.900 316.200 C 44.900 316.200 44.900 316.200 44.900 316.200 C 44.800 317.300 44.500 318.400 43.900 319.300 C 40.900 323.600 35.200 324.700 30.700 326.700 C 27.600 328.300 24.300 329.600 21.200 330.200 C 18.700 330.700 16 331.500 13.400 330.700 C 10.500 329.900 6.800 328.600 5.600 325.600 C 4.300 322.200 5 317.600 7.400 314.800 C 10.400 311.100 15.800 310 20.300 308.400 C 23.500 307.200 26.900 305.900 30.400 305.300 C 30.600 292.600 30.500 279.700 30.800 266.900 C 31.100 248.600 31.200 229.900 32.300 211.300 C 32.400 210.100 32.400 208.800 32.300 207.600 C 32.200 202.800 31.800 197.600 32.400 192.900 C 32.600 190.900 33 189 33.700 187.300 C 33.300 185 33.200 182.600 33.200 180.300 L 39.300 132.500 L 37.200 111 C 37.200 104.400 42.400 85.200 49 85.200 L 49.500 85.400 C 51.400 83.200 53.400 81.100 54.500 78.500 C 55.700 75.600 53.300 71.200 55.600 69 C 59.100 65.600 65.300 62.700 69 63.900 C 71.500 64.600 67.900 69.800 68.100 72.800 C 68.300 75.800 69.100 78.900 70.500 81.500 C 71.500 83.300 73.700 85 75.500 86.600 C 80.200 87.300 85.100 89.200 88.800 93.100 L 79 197.500 C 79 199.200 78.700 199.900 78.200 200 C 78.500 202.600 78.800 205.100 79 207.600 C 79 207.800 79 208.100 79.100 208.300 C 80.700 226.200 79.400 244.200 79.600 262.200 C 79.700 268.800 79.800 275.300 80.300 282 C 80.900 294.200 82.500 306.500 82.900 319.200 Z " transform="matrix(-0.8145062327384949, 0, 0, 0.8145062327384949, 124.65, 8.85)"/>
    <path id="ID0.2304357774555683" fill="#C38F4E" stroke="#000000" d="M 51.600 1.100 C 59.800 1.600 68.400 4.900 74.200 11.100 C 80 17.300 83.600 25.900 83.600 35.300 C 83.600 44.700 79.600 52.800 74.200 59.500 C 69.400 65.500 62.400 70.700 54.900 71.300 C 46.100 72 34 70.700 29.700 63.100 C 21.900 48.800 23.500 30.900 23.300 14.600 C 23.200 10.500 26.400 9 29.300 7.600 C 36.200 4.300 43.800 0.500 51.600 1.100 Z " transform="matrix(-0.8145062327384949, 0, 0, 0.8145062327384949, 124.65, 8.85)"/>
    <path id="ID0.3979696361348033" fill="#FFFFFF" stroke="#000000" stroke-linecap="round" d="M 58.300 29 C 60.800 29.400 63 30.300 64.500 32 C 65.700 33.300 65.900 35.500 65.600 37.200 C 65.300 39 64.500 41.500 62.700 41.900 C 58.900 42.800 54.400 42.600 50.900 40.800 C 49.100 39.800 49 36.800 49.100 34.800 C 49.200 33 50 31.100 51.600 30.100 C 53.500 28.900 55.800 28.600 58.300 29 Z " transform="matrix(-0.8145062327384949, 0, 0, 0.8145062327384949, 124.65, 8.85)"/>
    <path id="ID0.7059543542563915" fill="#FFFFFF" d="M 57.300 35.700 C 59.100 36 60.700 36.600 61.700 37.400 C 62.800 38.200 63.200 39.200 63.200 40.300 C 63.200 41.200 62.800 42.200 62.100 42.500 C 60.200 43.200 58.100 43.300 56.200 43.100 C 54.400 42.900 52.500 42.300 51.100 41.100 C 50.300 40.600 50 39.400 50.200 38.500 C 50.500 37.500 51.200 36.700 52.500 36.200 C 53.800 35.600 55.500 35.400 57.300 35.700 Z " transform="matrix(-0.8145062327384949, 0, 0, 0.8145062327384949, 124.65, 8.85)"/>
    <path id="ID0.3979696361348033_1_" stroke="#000000" stroke-linecap="round" d="M 60.400 29.300 C 62.200 29.600 63.800 30.300 64.900 31.600 C 65.800 32.700 65.700 34.400 65.600 35.800 C 65.500 37 65.400 38.700 64.400 38.900 C 61.400 39.700 57.900 39.800 55.200 38.600 C 53.900 38 53.500 35.700 53.600 34.100 C 53.700 32.700 54.300 31.100 55.500 30.300 C 56.900 29.400 58.600 29.100 60.400 29.300 Z " transform="matrix(-0.8145062327384949, 0, 0, 0.8145062327384949, 124.65, 8.85)"/>
    <path id="ID0.8203399423509836" fill="#FFFFFF" d="M 62.600 31.600 C 63.100 31.700 63.600 32 63.900 32.400 C 64.200 32.800 64.300 33.400 64.200 34 C 64.100 34.600 63.800 35.100 63.400 35.400 C 63 35.700 62.500 35.900 62 35.800 C 61.500 35.700 61 35.400 60.700 35 C 60.400 34.600 60.300 34 60.400 33.400 C 60.500 32.800 60.800 32.300 61.200 32 C 61.500 31.700 62 31.500 62.600 31.600 Z " transform="matrix(-0.8145062327384949, 0, 0, 0.8145062327384949, 124.65, 8.85)"/>
    <path id="ID0.3979696361348033_2_" fill="#FFFFFF" stroke="#000000" stroke-linecap="round" d="M 32.100 29.200 C 33.900 29.500 35.400 30.400 36.400 32.100 C 37.200 33.400 37.300 35.500 37.100 37.300 C 36.900 39 36.300 41.500 35 42 C 32.300 43 29.100 42.800 26.700 41.100 C 25.400 40.100 25.400 37.200 25.500 35.100 C 25.600 33.300 26.200 31.300 27.300 30.400 C 28.700 29.200 30.300 28.800 32.100 29.200 Z " transform="matrix(-0.8145062327384949, 0, 0, 0.8145062327384949, 124.65, 8.85)"/>
    <path id="ID0.7059543542563915_1_" fill="#FFFFFF" d="M 31.300 35.900 C 32.600 36.100 33.700 36.700 34.400 37.600 C 35.200 38.400 35.400 39.400 35.400 40.400 C 35.400 41.300 35.100 42.300 34.600 42.600 C 33.300 43.300 31.800 43.500 30.400 43.300 C 29.100 43.100 27.800 42.500 26.800 41.400 C 26.300 40.900 26 39.700 26.200 38.800 C 26.400 37.800 26.900 37 27.800 36.400 C 28.800 35.800 30 35.600 31.300 35.900 Z " transform="matrix(-0.8145062327384949, 0, 0, 0.8145062327384949, 124.65, 8.85)"/>
    <path id="ID0.3979696361348033_3_" stroke="#000000" stroke-linecap="round" d="M 33.100 29.400 C 34.600 29.700 35.800 30.400 36.600 31.700 C 37.300 32.800 37.300 34.500 37.200 35.900 C 37.100 37.100 37 38.800 36.300 39 C 33.900 39.800 31.100 39.900 29 38.700 C 27.900 38.100 27.600 35.800 27.700 34.200 C 27.800 32.800 28.200 31.200 29.200 30.400 C 30.300 29.500 31.600 29.200 33.100 29.400 Z " transform="matrix(-0.8145062327384949, 0, 0, 0.8145062327384949, 124.65, 8.85)"/>
    <path id="ID0.8203399423509836_1_" fill="#FFFFFF" d="M 34.700 31.700 C 35.100 31.800 35.500 32.100 35.700 32.500 C 35.900 32.900 36 33.500 36 34.100 C 36 34.700 35.700 35.200 35.400 35.500 C 35.100 35.800 34.700 36 34.300 35.900 C 33.900 35.800 33.500 35.500 33.300 35.100 C 33.100 34.700 33 34.100 33 33.500 C 33.100 32.900 33.300 32.400 33.600 32.100 C 33.900 31.800 34.300 31.600 34.700 31.700 Z " transform="matrix(-0.8145062327384949, 0, 0, 0.8145062327384949, 124.65, 8.85)"/>
    <path id="ID0.6091326382011175_3_" fill="#C38F4E" stroke="#000000" d="M 45.200 53.500 C 44.600 53.500 44.100 53.500 43.500 53.500 C 42.100 53.500 39.700 54 39.200 52.700 C 38.400 50.700 40.100 48.200 40.700 46 C 41.400 43.500 41.800 39.600 43 37.800 " transform="matrix(-0.8145062327384949, 0, 0, 0.8145062327384949, 124.65, 8.85)"/>
    <path id="ID0.33014168171212077" fill="none" stroke="#000000" stroke-width="2" d="M 27.200 25.500 C 29.100 25.100 31.100 24.800 33.100 24.800 C 34.700 24.900 38 26.200 37.800 26.100 C 37.600 26 33.600 24.400 31.500 24.200 C 30 24.100 28.500 24.700 27.100 25.100 C 26.300 25.300 25.800 25.900 25.100 26.200 C 24.800 26.300 24.300 26.600 24.300 26.600 C 24.300 26.500 24.600 26.200 24.900 26.100 C 25.600 26 26.300 25.700 27.200 25.500 Z " transform="matrix(-0.8145062327384949, 0, 0, 0.8145062327384949, 124.65, 8.85)"/>
    <path id="ID0.33014168171212077_1_" fill="none" stroke="#000000" stroke-width="2" d="M 53.900 24.700 C 56.400 24.700 59 24.600 61.400 25 C 63.400 25.400 67 27.200 66.800 27.100 C 66.600 27 62.200 24.700 59.700 24.200 C 57.900 23.800 55.800 24.200 53.900 24.400 C 52.900 24.500 52 25 51 25.200 C 50.600 25.300 49.900 25.400 49.900 25.500 C 49.900 25.400 50.400 25.100 50.800 25.100 C 51.900 25 52.800 24.700 53.900 24.700 Z " transform="matrix(-0.8145062327384949, 0, 0, 0.8145062327384949, 124.65, 8.85)"/>
    <path id="ID0.8090730751864612" fill="#CCD8FF" stroke="#000000" stroke-linecap="round" d="M 79.500 207.500 C 79.400 207.500 79.300 207.500 79 207.500 L 78.800 207.500 C 72.100 207.400 65.500 207 58.800 206.700 C 58 206.700 57.600 206.800 57.400 206.900 C 57.200 207 57.100 207 57 206.700 C 56.600 205.400 56.800 204.100 56.900 202.700 L 56.900 202.700 C 57 202.100 57 201.500 57 200.900 C 57 200.400 57 200.100 56.600 199.900 C 56.600 199.900 56.500 199.900 56.500 199.900 C 55.600 199.600 55 199.300 54 199.300 C 53.600 199.300 54.200 199.300 53.800 199.300 C 53 199.300 53.600 201.500 53.500 202.300 C 53.500 203.900 53.200 205.500 52.800 207 C 52.600 207.700 53.100 207.900 51.700 207.800 C 45.800 208 38.400 208.200 32.600 207.100 C 32.600 207.100 32.600 207.100 32.600 207.100 C 31 207 32 206 32 205 C 31.900 202.200 32 199.300 32 196.500 C 32 195.200 31.100 193.700 32 193 C 32.200 192.800 32.400 192.700 32.600 192.600 C 33.800 191.900 34.900 192 37.500 192 C 42.900 192 48.400 192.300 53.900 192.600 C 54.600 192.600 55.400 192.700 56.100 192.700 C 61.900 193 67.700 193.400 73.500 193.700 C 75 193.800 76.200 193.600 77.100 193.600 C 78 193.600 78.800 193.800 79.500 194.400 C 80.700 195.600 79.600 197.600 79.500 199.400 C 79.400 201.900 79.200 204.400 79 206.900 C 79 207.400 79.500 207.500 79.500 207.500 Z " transform="matrix(-0.8145062327384949, 0, 0, 0.8145062327384949, 124.65, 8.85)"/>
    <path id="ID0.8959085866808891" fill="#C38F4E" stroke="#000000" d="M 110.800 223.700 C 110.700 224.500 109 225.600 108.300 225 C 107.600 224.400 107.100 223.700 106.700 222.900 C 106.200 221.900 105.800 220.800 105.300 219.700 C 105.400 220.500 105.500 221.300 105.500 222.100 C 105.600 223.500 105.700 224.800 105.700 226 C 105.700 227.800 105.600 229.500 105.200 231.300 C 105 232.400 104.100 233.100 103.200 233.100 C 102.300 233.300 101.300 232.600 101 231.600 C 100.800 231 100.600 230.300 100.500 229.700 C 100.200 228.600 100 227.400 99.900 226.200 C 99.800 227.200 99.700 228.200 99.500 229.200 C 99.300 230.700 98.900 232.100 98.400 233.500 C 98.100 234.500 97 235.200 96.200 235.100 C 95.300 235.100 94.400 234.100 94.300 233 C 93.900 230 93.900 227.400 94.200 224 C 93.300 226.700 92.400 228.800 91.100 231 C 90.600 232 89.600 232.900 88.700 232.400 C 87.700 232.100 87.100 230.600 87.200 229.300 C 87.400 225.900 88.600 222.600 89.400 219.300 C 89.800 217.700 90 216.100 90.200 214.400 C 89.200 216 88.200 217.300 86.900 218.300 C 86.300 218.700 85.500 218.500 85.100 218 C 84.400 217.500 83.900 216.600 84.100 215.800 C 84.600 213.700 85.800 211.800 86.800 210 C 88.300 207.300 89.500 204.100 91.500 201.900 C 91.500 201.800 91.500 201.700 91.500 201.600 C 91.700 198.400 92.800 195.400 92.900 192.200 C 92.600 186.500 91.600 180.800 90.700 175.200 C 88.500 161.900 85.500 148.700 82.500 135.400 C 80.900 128.200 76.500 121.700 75.700 114.400 C 75.200 110.400 73.600 99.900 74.500 96.200 C 75.700 90.700 76.900 90.900 80.200 88.400 C 82.600 86.500 87.900 89 89.400 94.600 C 95.400 117 96.400 131.400 103 171.800 C 104.900 184.800 107.100 200.900 107.400 211.200 C 107.400 211.200 107.400 211.300 107.500 211.300 C 108.300 212.800 109.200 215.200 109.800 217.400 C 110.300 219.600 111.100 221.500 110.800 223.700 Z " transform="matrix(-0.8145062327384949, 0, 0, 0.8145062327384949, 124.65, 8.85)"/>
    <g id="ID0.9040245194919407">
      <path id="ID0.8950433996506035" fill="#E5E5E5" stroke="#000000" stroke-linecap="round" d="M 50.600 84.800 C 45.400 82.800 37.100 87.400 34.100 92.500 C 27.800 103.100 23.800 115.700 23.400 128 C 23.300 132 29.400 132.100 32.900 132.500 C 37.200 132.900 42.900 134.600 45.300 130.600 C 50.600 121.700 50.900 110.700 51.700 100.600 C 52.200 95.200 54.200 86.900 50.600 84.800 Z " transform="matrix(-0.8145062327384949, 0, 0, 0.8145062327384949, 124.65, 8.9)"/>
      <path id="ID0.8537395023740828" fill="#E5E5E5" stroke="#000000" stroke-linecap="round" d="M 48 85 C 48.900 83.600 49.200 84.400 50 84.500 C 51.800 84.800 53.300 86.100 55.200 86.500 C 56.600 86.800 58.200 86.800 59.400 86.700 C 61.300 86.600 63.200 86.300 64.900 85.700 C 66.600 85.100 67.900 83.700 69.400 83 C 70.100 82.600 70.500 81.600 71.400 82 C 74.800 83.400 80 83.900 80.900 87.500 C 84 100.100 81.100 113.400 82 126.300 C 82.200 129.500 83.600 130.900 83.900 133.300 C 84.200 135.500 83.900 136.200 83.900 140.100 C 83.500 149.600 83.100 159 82.400 168.500 C 81.700 177.900 81.400 187.200 79.600 196.400 C 79.300 198.700 78.500 197 77.100 196.900 C 71.600 196.400 66 195.400 60.300 194.900 C 51.900 194 43.400 193.300 34.800 192.600 C 32.700 192.400 31.800 194.400 31.700 192.400 C 30.900 184.500 32.100 176.500 32.800 168.500 C 34.100 155.900 37.100 143.500 37.800 130.800 C 38.300 121.600 35.900 111.900 37.800 102.800 C 39.400 96.300 44.200 90.700 48 85 Z " transform="matrix(-0.8145062327384949, 0, 0, 0.8145062327384949, 124.65, 8.9)"/>
      <path id="ID0.8950433996506035_1_" fill="#E5E5E5" stroke="#000000" stroke-linecap="round" d="M 81.500 86.100 C 77.300 86 73.500 92.400 73.300 97.400 C 72.500 109.700 73.900 122.800 78.900 134.100 C 80.500 137.700 86.100 135.200 89.400 134.100 C 93.500 132.700 99.400 131.700 99.800 127.100 C 100.800 116.700 96.800 106.400 92.800 97.200 C 90.400 91.800 86.300 86.200 81.500 86.100 Z " transform="matrix(-0.8145062327384949, 0, 0, 0.8145062327384949, 124.65, 8.9)"/>
    </g>
    <path id="ID0.33014168171212077" fill="none" stroke="#000000" d="M 118.150 80.850 C 120.082 80.460 122.057 80.064 123.850 79.250 C 125.308 78.506 127.872 76.104 127.750 76.250 C 127.628 76.396 124.532 79.402 122.646 80.359 C 121.298 81.043 119.680 81.008 118.175 81.150 C 117.374 81.226 116.625 80.885 115.850 80.850 C 115.528 80.849 115.009 80.797 115 80.750 C 114.992 80.822 115.462 81.024 115.750 81 C 116.546 80.962 117.282 81.023 118.150 80.850 Z " transform="matrix(-0.8145062327384949, 0, 0, 0.8145062327384949, 182.5, -7.5)"/>
    <g id="ID0.740773253608495">
      <path id="ID0.9768617586232722" fill="#000000" stroke="#000000" stroke-linecap="round" d="M 113.500 33.200 C 121.300 46.500 120.800 63.800 128 76.200 C 131.700 82.700 149.600 86.800 145.800 89.700 C 139.400 94.600 118.200 101.700 108.900 93.600 C 95.300 81.800 101.300 56.600 91 40.800 C 87.700 36 78.800 37.400 72.700 38.400 C 70.600 38.800 72.500 44.100 71.500 43.900 C 70.100 43.700 71 38.400 69 36.900 C 65.300 34.100 60.700 31.500 56 30.900 C 52 30.500 42.300 34.400 44.500 32.400 C 50.500 28 62.600 21.900 72.600 18.100 C 78.900 15.700 86.400 13.300 92.600 15.800 C 101.600 19.600 109.100 25.700 113.500 33.200 Z " transform="matrix(-0.8145062327384949, 0, 0, 0.8145062327384949, 120.35, -9.25)"/>
      <path id="ID0.8100614370778203" fill="#000000" stroke="#000000" stroke-linecap="round" d="M 84.800 69 C 83.600 74.400 78.700 78 75.200 82.200 C 74.400 83.200 75.200 81.800 75.200 80.700 C 74.900 76.300 75.500 71.400 74.400 67.500 C 74.100 66.300 72.800 72.100 72.200 70.300 C 70.100 63.600 70.500 56.300 68.700 49.400 C 67.400 44.400 64.100 39.800 62.400 34.900 C 57.300 37.900 50.200 40.400 42.300 41.800 C 37.200 42.800 32.800 42.500 28.500 42.300 C 23.900 46.800 14.900 52 9.100 56.500 C 7.300 57.900 7.800 57.800 8.100 56.600 C 9.100 52.400 10.700 48.200 11.800 43.900 C 11.700 44 11.600 44.100 11.400 44.200 C 9.100 45.900 8.900 49.400 7.400 51.800 C 7.400 51.900 7.300 51.900 7.300 52 C 7.400 51.800 7.600 51.300 7.900 50.500 C 10.600 42 9.900 30.800 16.300 25 C 25 17.100 37.600 15 48.800 12.900 C 52.800 12.100 57 14.400 60.500 16.700 C 63.300 18.500 65.200 21.800 67 24.900 C 67.300 25.500 65.900 26 65.800 26.200 C 65.800 26.200 65.800 26.200 65.900 26.200 C 67.600 25.800 71.700 22.400 71.300 23.700 C 70.900 25.400 70.100 27.800 68.100 30.300 C 70.900 29.300 74.500 25.900 75.300 26.500 C 76.200 27.100 71.600 31.200 71.300 33.100 C 71.100 33.900 73 30.800 74 31.700 C 78 35.400 82.300 39.300 83.800 44.600 C 86.200 52.500 86.600 61.100 84.800 69 Z " transform="matrix(-0.8145062327384949, 0, 0, 0.8145062327384949, 120.35, -9.25)"/>
    </g>
  </g>
</svg>