<?xml version="1.0" encoding="UTF-8" standalone="no"?>
<svg
   version="1.1"
   width="88.161697"
   height="190.24364"
   id="svg62"
   sodipodi:docname="devin-a.svg"
   xmlns:inkscape="http://www.inkscape.org/namespaces/inkscape"
   xmlns:sodipodi="http://sodipodi.sourceforge.net/DTD/sodipodi-0.dtd"
   xmlns="http://www.w3.org/2000/svg"
   xmlns:svg="http://www.w3.org/2000/svg">
  <defs
     id="defs66" />
  <sodipodi:namedview
     id="namedview64"
     pagecolor="#ffffff"
     bordercolor="#000000"
     borderopacity="0.25"
     inkscape:showpageshadow="2"
     inkscape:pageopacity="0.0"
     inkscape:pagecheckerboard="0"
     inkscape:deskcolor="#d1d1d1" />
  <!-- Exported by Scratch - http://scratch.mit.edu/ -->
  <g
     id="ID0.029780182987451553"
     transform="matrix(0.94999999,0,0,0.94999999,-0.7117234,-0.00841968)">
    <g
       id="R_Shoe">
      <path
         id="Fill_8_"
         fill="#eaa06d"
         d="m 61.802,180.514 c -0.539,0.618 -1.104,0.784 -1.858,1.181 -0.84,0.443 -1.562,0.773 -2.455,1.14 -1.879,0.773 -3.941,1.578 -5.939,1.474 -1.351,-0.071 -5.101,-0.032 -6.412,0.272 -1.5,0.348 3.233,2.171 4.078,2.272 2.706,1.359 5.13,1.436 8.057,1.992 1.377,0.266 4.66,0.167 6.115,0.098 1.71,-0.082 1.608,-0.375 3.272,-0.717 1.59,-0.324 3.104,-0.875 4.502,-1.612 1.008,-0.531 1.903,-1.312 2.95,-1.72 0.036,-0.146 0.056,-0.436 0.02,-0.584 -0.163,-0.668 -1.308,-1.948 -1.936,-2.22 -0.978,-0.425 -2.22,-0.602 -3.332,-0.593 -1.252,0.006 -3.178,0.463 -4.473,0.316 -0.489,-0.058 -2.466,-0.471 -2.177,-1.096"
         transform="translate(0.75,1)" />
      <path
         id="Trim_1_"
         fill="#bc7240"
         d="m 74.324,184.842 c 0.257,0.961 0.309,1.957 0.341,3.004 0.014,0.513 -0.113,0.896 -0.175,1.333 -0.064,0.479 0.112,0.937 0.046,1.415 -1.065,0.42 -1.993,1.062 -3.104,1.427 -1.199,0.395 -2.445,0.699 -3.654,1.078 -2.84,0.894 -6.057,0.723 -8.924,0.058 -1.141,-0.264 -2.221,-0.673 -3.303,-1.111 -1.044,-0.424 -1.819,-0.99 -2.979,-1.087 -1.182,-0.102 -2.323,0.247 -3.518,0.163 -1.114,-0.076 -2.382,-0.153 -3.419,-0.55 -2.209,-0.848 -0.681,-4.184 -0.743,-5.803 0.445,0.265 1.319,0.743 1.757,1.049 0.945,0.65 1.723,0.793 2.819,1.104 1.169,0.334 2.114,0.745 3.279,1.063 2.519,0.689 5.146,0.933 7.771,1.078 2.526,0.14 4.957,-0.004 7.297,-0.903 1.304,-0.5 2.556,-1.138 3.795,-1.785 0.758,-0.396 1.807,-1.647 2.646,-1.659"
         transform="translate(0.75,1)" />
      <path
         id="Outline_13_"
         d="m 73.896,184.545 c 0.054,0.162 0.556,0.231 0.502,0.065 -0.713,-2.202 -2.394,-3.37 -4.694,-3.409 -1.162,-0.021 -2.308,0.145 -3.455,0.293 -0.602,0.077 -1.213,0.171 -1.818,0.164 -1.07,-0.008 -1.684,-0.397 -2.396,-1.147 -0.104,-0.109 -0.606,-0.145 -0.466,0.003 0.693,0.729 1.187,1.21 2.209,1.356 0.927,0.132 1.861,0.01 2.78,-0.113 3.014,-0.401 6.206,-0.713 7.338,2.788 z m 0.657,0.065 c -0.026,-0.165 -0.532,-0.254 -0.502,-0.066 0.337,2.038 0.232,4.093 0.273,6.146 0.004,0.155 0.508,0.267 0.502,0.066 -0.043,-2.056 0.065,-4.111 -0.273,-6.146 z m -10.644,9.153 c 0.342,-0.008 -0.02,-0.275 -0.2,-0.271 -2.19,0.049 -4.37,-0.072 -6.45,-0.819 -1.617,-0.581 -3.191,-1.618 -4.918,-1.838 -0.785,-0.1 -1.537,0.001 -2.318,0.122 -1.557,0.241 -3.063,-0.031 -4.557,-0.485 -1.676,-0.511 -0.27,-4.268 -0.324,-5.671 -0.008,-0.155 -0.51,-0.262 -0.502,-0.063 0.074,1.88 -0.73,3.658 -0.367,5.537 0.021,0.088 0.153,0.129 0.222,0.149 1.739,0.554 3.475,1.015 5.314,0.871 1.15,-0.089 2.169,-0.386 3.321,-0.032 0.876,0.273 1.67,0.696 2.514,1.049 2.699,1.124 5.349,1.516 8.265,1.451 z m 10.87,-2.924 c 0.201,-0.091 -0.262,-0.299 -0.4,-0.234 -3.449,1.558 -6.882,2.736 -10.666,2.89 -0.339,0.013 0.017,0.278 0.198,0.271 3.862,-0.156 7.346,-1.339 10.868,-2.927 z m -0.398,-6.164 c 0.128,-0.109 -0.338,-0.303 -0.471,-0.195 -3.766,3.248 -9.236,4.745 -14.119,4.47 -2.814,-0.161 -5.611,-0.68 -8.322,-1.45 -1.379,-0.39 -3.064,-0.74 -4.279,-1.535 -0.718,-0.472 -1.369,-1 -2.149,-1.368 -0.216,-0.104 -0.508,0.041 -0.193,0.189 1.346,0.637 2.346,1.549 3.774,2.059 1.219,0.438 2.451,0.825 3.707,1.14 2.666,0.666 5.392,1.196 8.146,1.261 4.863,0.108 10.154,-1.331 13.906,-4.571 z"
         transform="translate(0.75,1)" />
    </g>
    <g
       id="L_Shoe">
      <path
         id="Fill_6_"
         fill="#eaa06d"
         d="m 37.953,191.319 c 0.008,0.726 -0.488,2.131 -1.051,2.497 -0.762,0.491 -2.146,1.019 -3.026,1.198 -3.854,0.789 -9.394,0.82 -13.232,-0.146 -0.879,-0.221 -1.74,-0.694 -1.963,-1.396 -0.116,-0.371 -0.389,-1.888 -0.334,-2.226 0.098,-0.625 1.438,-1.422 1.834,-1.979 0.425,-0.597 1.313,-1.078 1.904,-1.553 1.191,-0.963 3.022,-1.255 4.521,-1.479 1.713,-0.258 3.229,-0.024 4.998,0.48 1.372,0.396 2.487,1.016 3.712,1.716 0.59,0.34 1.127,0.605 1.482,1.235 0.294,0.518 0.606,1.341 1.155,1.653"
         transform="translate(0.75,1)" />
      <path
         id="Trim"
         fill="#bc7240"
         d="m 37.597,192.751 c -0.048,-0.048 -0.186,0.566 -0.273,0.544 -0.246,0.346 -0.496,0.533 -0.865,0.867 -0.369,0.332 -1.146,0.453 -1.582,0.635 -1.474,0.616 -3.148,0.667 -4.75,0.883 -2.836,0.384 -5.287,0.263 -8.207,-0.499 -1.115,-0.29 -2.983,-0.578 -3.24,-1.716 -0.158,-0.704 -0.021,-2.503 -0.916,-2.139 -0.911,0.373 -0.672,1.814 -0.547,2.662 0.167,1.14 0.593,2.206 1.396,3.145 0.668,0.782 1.725,0.938 2.702,1.144 1.179,0.246 2.432,0.52 3.64,0.57 1.463,0.062 2.533,0.195 3.992,0.195 1.604,0 3.223,-0.232 4.766,-0.605 0.783,-0.189 1.602,-0.215 2.289,-0.646 0.474,-0.3 1.435,-0.459 1.577,-0.995 0.292,-1.106 0.883,-3.021 0.485,-4.062"
         transform="translate(0.75,1)" />
      <path
         id="Outline_12_"
         d="m 37.673,191.295 c 0.026,0.163 0.532,0.254 0.501,0.065 -0.209,-1.286 -2.781,-2.417 -3.76,-2.938 -1.529,-0.812 -3.261,-1.234 -4.988,-1.248 -2.011,-0.011 -4.341,0.036 -6.271,0.639 -2.049,0.642 -3.675,1.863 -5.125,3.42 -0.125,0.131 0.354,0.313 0.471,0.19 1.221,-1.309 2.633,-2.525 4.344,-3.136 1.808,-0.646 3.824,-0.764 5.733,-0.825 1.81,-0.06 3.583,0.138 5.229,0.949 0.942,0.466 3.672,1.696 3.866,2.884 z m -19.078,0.153 c -0.009,-0.162 -0.513,-0.264 -0.493,-0.062 0.062,0.871 -0.037,2.08 0.688,2.726 0.555,0.492 1.232,0.798 1.95,0.984 1.953,0.521 4.084,0.782 6.104,0.815 2.541,0.045 5.201,-0.145 7.66,-0.832 0.902,-0.254 1.899,-0.55 2.625,-1.185 0.844,-0.735 0.777,-1.477 1.049,-2.494 -0.168,-0.038 -0.334,-0.069 -0.502,-0.104 0.237,1.418 0.185,2.922 -0.146,4.325 -0.174,0.733 -0.043,1.116 -0.809,1.562 -0.367,0.213 -0.745,0.441 -1.146,0.586 -2.715,0.963 -5.741,1.241 -8.602,1.188 -1.484,-0.027 -2.979,-0.119 -4.436,-0.402 -1.498,-0.291 -3.334,-0.607 -4.188,-2.028 -0.658,-1.092 -1.856,-5.034 0.28,-5.37 0.28,-0.044 -0.161,-0.285 -0.312,-0.265 -2.185,0.344 -1.341,4.135 -0.597,5.372 1.481,2.468 5.007,2.688 7.58,2.893 3.414,0.27 7.218,0.079 10.469,-1.074 0.572,-0.204 1.169,-0.488 1.654,-0.856 0.516,-0.396 0.384,-0.547 0.525,-1.141 0.366,-1.546 0.482,-3.149 0.225,-4.72 -0.023,-0.144 -0.459,-0.267 -0.502,-0.104 -0.243,0.899 -0.174,1.823 -1.016,2.438 -0.839,0.61 -1.809,0.97 -2.816,1.198 -2.04,0.461 -4.139,0.738 -6.229,0.739 -1.874,0.003 -3.758,-0.175 -5.603,-0.517 -0.875,-0.16 -2.479,-0.38 -2.961,-1.244 -0.418,-0.755 -0.391,-1.591 -0.451,-2.428 z"
         transform="translate(0.75,1)" />
    </g>
    <g
       id="Pants">
      <path
         id="Fill_7_"
         fill="#3d6767"
         d="m 64.009,181.448 c 0.86,-1.266 1.401,-2.83 1.634,-4.337 0.31,-1.992 -1.168,-2.584 -2.574,-3.472 -1.241,-0.78 -1.186,-1.892 -0.677,-3.176 0.27,-0.676 0.591,-1.293 0.71,-2.019 0.136,-0.828 -0.27,-1.484 -0.879,-1.955 -0.071,-0.051 -0.145,-0.102 -0.214,-0.15 -0.641,-0.418 -1.443,-0.655 -2.115,-0.669 -0.106,0.001 -0.574,-0.209 -0.326,-0.204 0.356,0.007 0.709,0.055 1.057,0.129 -1.161,-1.134 -1.195,-3.023 -1.247,-4.544 -0.096,-2.669 -0.454,-5.27 -0.853,-7.91 -0.395,-2.616 -0.834,-5.251 -1.066,-7.89 -0.249,-2.796 -0.105,-5.482 -0.697,-8.26 -10e-4,-0.004 0.008,-0.004 0.009,-0.007 -0.002,-0.006 -0.014,-0.011 -0.014,-0.017 0.211,-8.227 -0.341,-16.436 -0.349,-24.66 0,-0.005 0.016,-0.005 0.02,-0.009 L 55.215,95.944 c 0,0 -13.875,-0.125 -30.688,2.688 l -1.174,13.531 c 0,0 0.139,0.282 -0.022,0.231 -1.016,10.772 -2.036,21.552 -3.052,32.327 0,0.001 0.003,0.002 0.003,0.004 -0.423,6.883 -1.812,13.74 -3.499,20.416 -0.765,3.021 -2.013,6.306 -1.397,9.453 0.127,0.651 0.375,0.78 -0.268,1.288 -1.027,0.815 -0.234,1.237 0.596,1.888 0.017,0.015 0.022,0.029 0.021,0.052 -0.644,1.038 -1.516,1.889 -2.245,2.859 -0.336,0.446 -0.578,0.938 -0.772,1.459 -0.354,0.941 0.112,1.604 0.604,2.371 0.855,1.328 1.886,2.534 3.06,3.588 1.027,0.926 -0.11,2.074 2.223,2.105 0.069,0.004 0.32,0.108 0.375,0.168 1.46,-1.058 2.593,-3.476 4.824,-3.68 2.485,-0.672 4.092,-0.606 6.298,-0.286 2.105,0.308 2.543,0.312 4.303,1.437 0.854,0.322 2.86,2.354 3.33,2.301 0.776,-0.089 1.571,-1.121 0.737,-3.733 -0.436,-1.364 0.237,-0.802 1.258,-2.101 0.543,1.324 3.027,3.006 5.127,1.694 -0.088,-0.408 -0.853,-1.694 2.05,-1.694 2.722,0.024 4.353,0.015 7.199,-0.235 1.539,-0.136 3.408,-1.196 4.856,-1.783 1.263,-0.515 1.07,-1.104 2.341,-1.478 0.732,-0.286 2.262,1.324 2.895,0.764 -0.114,-0.041 -0.208,-0.1 -0.189,-0.13 z"
         transform="translate(0.75,1)" />
      <path
         id="Outline_11_"
         d="m 66.089,175.942 c -0.598,-1.836 -3.899,-2.021 -3.54,-4.151 0.255,-1.503 1.929,-3.489 0.528,-4.896 -0.508,-0.512 -1.13,-0.864 -1.797,-1.1 -0.024,-0.009 -0.049,-0.02 -0.073,-0.028 -0.056,-0.048 -0.092,-0.107 -0.143,-0.158 -1.391,-1.386 -1.142,-3.856 -1.222,-5.658 -0.121,-2.737 -0.65,-5.436 -1.021,-8.143 -0.375,-2.747 -0.939,-5.501 -0.952,-8.282 -0.011,-2.182 -0.155,-4.286 -0.61,-6.427 0.211,-8.223 -0.341,-16.429 -0.35,-24.651 L 55.714,95.447 C 42.902,95.009 24.089,98.135 24.089,98.135 l -1.239,13.896 c -0.479,5.072 -0.958,10.146 -1.438,15.22 -0.082,0.868 -0.164,1.736 -0.246,2.605 -0.464,4.913 -0.928,9.825 -1.392,14.738 0,0.001 0.002,0.002 0.002,0.003 -0.38,6.213 -1.556,12.425 -3.018,18.466 -0.683,2.814 -1.703,5.662 -1.972,8.56 -0.099,1.023 -0.188,2.139 0.229,3.086 0.305,0.693 -0.352,0.902 -0.754,1.306 -0.303,0.307 -0.338,0.648 0,0.962 0.435,0.403 1.1,0.611 0.604,1.277 -0.327,0.439 -0.683,0.849 -1.038,1.263 -0.563,0.658 -1.188,1.357 -1.495,2.18 -0.103,0.267 -0.49,1.132 -0.33,1.401 0.265,0.449 0.53,0.9 0.821,1.335 0.684,1.029 1.432,2.026 2.313,2.897 0.669,0.659 0.897,1.039 1.271,1.846 0.164,0.351 0.39,0.6 0.654,0.783 0.006,0.004 0.012,0.01 0.019,0.014 0.476,0.323 1.081,0.423 1.72,0.441 0.041,0.001 0.081,0.004 0.122,0.005 0.004,0 0.004,-0.001 0.007,-0.001 0.063,-0.001 0.071,-0.017 0.049,-0.041 -0.018,-0.019 -0.056,-0.042 -0.101,-0.064 0.055,-0.018 0.113,-0.038 0.172,-0.059 0.024,0.083 0.423,0.232 0.494,0.117 3.353,-6.109 13.787,-4.976 17.729,-0.099 0.074,0.09 0.36,0.168 0.465,0.104 0.539,-0.342 1.599,-0.792 1.562,-1.59 -0.055,-1.182 -0.71,-2.021 -0.527,-3.241 0.355,-0.278 0.68,-0.604 0.985,-0.954 1.39,1.739 3.09,2.307 5.309,1.491 0.151,-0.055 -0.299,-0.238 -0.411,-0.196 -0.979,0.364 -2.167,0.701 -3.126,0.062 -0.636,-0.424 -1.103,-0.982 -1.542,-1.6 -0.002,-0.004 -0.011,-0.005 -0.014,-0.008 1.339,-1.674 2.07,-3.957 1.609,-6.037 -0.23,-1.053 -0.75,-1.6 -1.604,-2.213 -0.38,-0.274 -1.365,-0.836 -1.089,-1.463 0.144,-0.318 0.33,-0.56 0.512,-0.854 0.434,-0.7 0.266,-1.387 0.149,-2.129 1.761,2.08 4.061,4.109 6.931,3.814 0.252,-0.026 -0.218,-0.221 -0.327,-0.207 -2.834,0.292 -5.038,-2.154 -6.656,-4.188 -0.173,-8.58 -0.901,-17.213 0.446,-25.736 0.016,-0.007 0.042,-0.007 0.046,-0.021 1.373,-4.896 2.137,-9.922 2.729,-14.964 0.277,-2.356 0.648,-4.739 0.74,-7.114 0.083,-2.106 0.155,-4.079 1.04,-6.034 0.041,-0.087 -0.448,-0.257 -0.499,-0.139 -0.956,2.105 -0.916,4.203 -1.062,6.459 -0.15,2.399 -0.487,4.793 -0.777,7.179 -0.583,4.777 -1.321,9.535 -2.601,14.181 -0.042,0.004 -0.077,0.014 -0.082,0.037 -1.405,8.597 -0.662,17.304 -0.486,25.957 -0.038,0.009 -0.056,0.027 -0.028,0.062 0.01,0.013 0.021,0.025 0.031,0.038 0,0.039 0.002,0.077 0.003,0.116 -10e-4,0.003 -0.011,0.002 -0.011,0.005 0.003,0.036 0.01,0.072 0.014,0.108 0,0.009 0,0.018 0,0.025 0,0.001 0.003,0.002 0.003,0.004 0.104,0.824 0.41,1.684 -0.11,2.415 -0.393,0.561 -0.732,0.997 -0.313,1.62 0.622,0.928 1.938,1.172 2.328,2.316 0.915,2.691 -0.357,5.917 -2.485,7.677 -1.083,-1.292 -3.471,-1.694 -4.961,-2.054 -2.618,-0.632 -5.261,-1.19 -7.939,-1.493 -0.329,-0.037 0.087,0.19 0.215,0.204 2.13,0.241 4.236,0.653 6.325,1.132 0.909,0.207 1.824,0.409 2.719,0.68 0.58,0.178 1.133,0.387 1.702,0.585 0.374,0.117 0.729,0.28 1.062,0.49 -0.05,0.243 -0.103,0.485 -0.154,0.726 -3.396,-0.011 -6.628,-1.328 -10.024,-1.241 -0.25,0.008 0.22,0.211 0.324,0.209 2.203,-0.061 4.271,0.555 6.425,0.9 1.305,0.211 2.81,0.516 4.136,0.241 -0.079,0.929 0.277,1.481 0.469,2.458 0.21,1.072 -0.454,1.482 -1.232,1.964 -4.179,-4.763 -14.672,-6.025 -18.276,-0.09 l -0.611,0.242 c -2.333,-0.031 -1.195,-1.18 -2.223,-2.105 -1.174,-1.054 -2.204,-2.26 -3.06,-3.588 -0.491,-0.767 -0.958,-1.43 -0.604,-2.371 0.194,-0.521 0.437,-1.013 0.772,-1.459 0.729,-0.971 1.602,-1.821 2.245,-2.859 10e-4,-0.022 -0.005,-0.037 -0.021,-0.052 -0.83,-0.65 -1.623,-1.072 -0.596,-1.888 0.643,-0.508 0.395,-0.637 0.268,-1.288 -0.002,-0.011 -0.002,-0.021 -0.004,-0.031 2.655,0.819 5.005,2.499 7.839,2.695 2.893,0.201 5.702,-1.303 8.456,-2.059 0.147,-0.041 -0.296,-0.229 -0.417,-0.196 -2.562,0.704 -5.199,2.073 -7.907,2.052 -2.87,-0.021 -5.313,-1.855 -7.993,-2.671 -0.522,-3.084 0.676,-6.29 1.424,-9.243 1.687,-6.676 3.076,-13.533 3.499,-20.416 0,-0.002 -0.003,-0.003 -0.003,-0.004 1.016,-10.775 2.036,-21.555 3.052,-32.327 0.161,0.051 0.022,-0.231 0.022,-0.231 l 1.174,-13.531 c 16.812,-2.812 30.688,-2.688 30.688,-2.688 l 1.213,16.354 c -0.004,0.004 -0.02,0.004 -0.02,0.009 0.008,8.225 0.56,16.434 0.349,24.66 0,0.006 0.012,0.011 0.014,0.017 -10e-4,0.003 -0.01,0.003 -0.009,0.007 0.592,2.777 0.448,5.464 0.697,8.26 0.232,2.639 0.672,5.273 1.066,7.89 0.398,2.641 0.757,5.241 0.853,7.91 0.052,1.521 0.086,3.41 1.247,4.544 -0.348,-0.074 -0.7,-0.122 -1.057,-0.129 -0.248,-0.005 0.22,0.205 0.326,0.204 0.672,0.014 1.475,0.251 2.115,0.669 0.074,0.048 0.146,0.098 0.214,0.15 0.609,0.471 1.015,1.127 0.879,1.955 -0.119,0.726 -0.44,1.343 -0.71,2.019 -0.509,1.284 -0.564,2.396 0.677,3.176 1.406,0.888 2.884,1.479 2.574,3.472 -0.232,1.507 -0.773,3.071 -1.634,4.337 l -0.296,0.206 0.003,0.009 c -0.058,-0.019 -0.108,-0.03 -0.136,-0.028 -0.309,0.025 -1.014,-0.984 -1.371,-1.156 -0.2,-0.093 -0.405,-0.125 -0.614,-0.062 -0.823,0.232 -1.728,1.122 -2.498,1.534 -1.104,0.589 -2.242,1.133 -3.436,1.521 -2.423,0.787 -4.74,0.801 -7.259,0.788 -1.848,-0.009 -3.695,0.052 -5.404,0.835 -0.062,0.027 0.338,0.235 0.473,0.169 2.162,-0.991 4.582,-0.793 6.897,-0.778 2.12,0.013 4.118,-0.213 6.12,-0.967 1.861,-0.699 3.631,-1.617 5.275,-2.735 0.515,-0.351 1.269,0.934 1.999,1.04 l 0.015,0.048 c 0,0 0.575,-0.102 0.633,-0.255 0.041,-0.002 0.083,-0.005 0.101,-0.031 0.929,-1.37 2.127,-3.955 1.578,-5.647 z"
         transform="translate(0.75,1)" />
    </g>
    <g
       id="Neck">
      <path
         id="Fill_1_"
         fill="#a86c35"
         d="m 41.286,40.41 c 4.354,-0.218 5.278,-2.659 5.476,-3.752 -0.46,0.104 -2.445,0.417 -2.467,-1.88 -0.618,0.376 -1.27,0.682 -1.952,0.843 0,0 -0.001,0 -0.002,0 -0.021,0.005 -0.051,0.009 -0.094,0.008 -2.746,-0.054 -5.838,-1.368 -8.272,-2.554 -0.064,-0.031 -0.126,-0.066 -0.189,-0.1 l -0.073,0.971 -0.22,2.88 c 0.83,1.088 3.358,3.806 7.793,3.584 z"
         transform="translate(0.75,1)" />
      <path
         id="L_Side"
         d="m 33.714,33.946 0.073,-0.972 0.021,-0.278 -0.25,-0.063 -0.156,0.938 -0.25,2.897 0.128,0.184 0.205,0.295 0.229,-3.001"
         transform="translate(0.75,1)" />
      <path
         id="R_Side"
         d="m 46.86,36.634 -0.003,-0.037 -0.018,-0.192 c -2.563,0.479 -2.292,-1.938 -2.292,-1.938 h -0.25 c -0.007,0.112 -0.002,0.208 -10e-4,0.31 0.025,2.6 2.564,1.857 2.564,1.857 z"
         transform="translate(0.75,1)" />
    </g>
    <g
       id="Undershirt">
      <path
         id="Fill_5_"
         fill="#c0e1e1"
         d="m 22.916,111.234 c 0.354,1.05 1.202,1.683 2.239,2.09 0.798,0.276 1.688,0.466 2.546,0.613 0.914,0.132 1.804,0.208 2.521,0.318 3.974,0.615 7.958,1.108 11.988,0.942 -10e-4,-0.009 -0.013,-0.016 -0.011,-0.025 0.098,-0.818 0.378,-1.601 0.483,-2.427 0.116,-0.912 0.271,-1.818 0.403,-2.729 0.24,-1.66 0.721,-3.265 0.971,-4.912 0.025,-0.161 0.356,-0.061 0.379,0.066 0.344,2.021 0.717,4.06 0.652,6.12 -0.025,0.821 -0.386,3.006 0.333,3.659 3.309,-0.348 6.593,-0.868 9.714,-2.062 0.333,-0.125 4.705,-2.264 5.016,-3.515 0.003,-0.029 0.01,-0.059 0.012,-0.087 0.008,-0.083 -0.004,-0.162 -0.039,-0.234 -0.06,-0.024 -0.112,-0.058 -0.124,-0.107 -0.006,-0.025 -0.011,-0.051 -0.018,-0.076 0,-10e-4 0,-10e-4 -0.001,-0.002 -0.079,-0.062 -0.068,-0.11 -0.032,-0.146 -0.584,-2.404 -0.948,-4.844 -1.282,-7.298 -0.154,-1.129 -0.353,-2.26 -0.445,-3.396 -0.072,-0.875 -0.054,-1.862 -0.361,-2.696 -2.67,0.908 -5.356,2.894 -8.021,3.808 -3.359,1.15 -5.783,2.141 -9.326,2.569 -3.045,0.368 -5.857,0.402 -8.922,0.402 -1.321,0 -3.114,-0.399 -4.386,-0.707 -0.573,-0.136 -1.601,-0.423 -2.167,-0.604 -0.39,-0.122 -0.523,-0.702 -0.75,-0.438 -0.285,0.332 -0.349,-0.133 -0.318,0.201 -0.034,0.652 -0.089,1.175 -0.193,1.717 -0.228,2.989 -0.826,5.947 -0.862,8.953 0,0.002 0.001,0.002 0.001,0.003 z"
         transform="translate(0.75,1)" />
      <path
         id="Outline_10_"
         d="m 60.35,108.851 c -0.675,-2.748 -1.052,-5.547 -1.435,-8.348 -0.226,-1.637 -0.112,-3.712 -0.717,-5.26 -0.055,-0.141 -0.432,-0.163 -0.355,0.029 0.007,0.019 0.01,0.039 0.017,0.058 0.308,0.834 0.289,1.821 0.361,2.696 0.093,1.137 0.291,2.268 0.445,3.396 0.334,2.454 0.698,4.894 1.282,7.298 -0.036,0.035 -0.047,0.083 0.032,0.146 0.001,0.001 0.001,0.001 0.001,0.002 0.007,0.025 0.012,0.051 0.018,0.076 0.012,0.05 0.064,0.083 0.124,0.107 0.035,0.072 0.047,0.151 0.039,0.234 -0.003,0.028 -0.005,0.057 -0.012,0.087 -0.311,1.251 -4.683,3.39 -5.016,3.515 -3.121,1.193 -6.405,1.714 -9.714,2.062 -0.719,-0.653 -0.358,-2.838 -0.333,-3.659 0.064,-2.061 -0.309,-4.099 -0.652,-6.12 -0.022,-0.127 -0.354,-0.228 -0.379,-0.066 -0.25,1.647 -0.73,3.252 -0.971,4.912 -0.132,0.911 -0.287,1.817 -0.403,2.729 -0.105,0.826 -0.386,1.608 -0.483,2.427 -10e-4,0.01 0.01,0.017 0.011,0.025 -4.029,0.166 -8.014,-0.327 -11.988,-0.942 -0.717,-0.11 -1.607,-0.187 -2.521,-0.318 -0.872,-0.125 -1.762,-0.306 -2.546,-0.613 -1.037,-0.407 -1.886,-1.04 -2.239,-2.09 0,-10e-4 -0.001,-10e-4 -0.002,-0.002 0.036,-3.006 0.634,-5.964 0.862,-8.953 0.059,-0.77 0.099,-1.542 0.091,-2.317 -0.002,-0.152 -0.385,-0.219 -0.383,-0.036 0.019,1.769 -0.179,3.52 -0.399,5.269 -0.201,1.597 -0.414,3.193 -0.505,4.799 -0.023,0.402 -0.042,0.804 -0.047,1.207 0,0.002 0.003,0.003 0.003,0.006 0.828,2.441 4.087,2.793 6.268,3.09 4.583,0.623 9.099,1.367 13.743,1.147 0.167,-0.008 0.124,-0.112 0.031,-0.184 0.097,-0.814 0.375,-1.592 0.479,-2.412 0.117,-0.912 0.266,-1.818 0.402,-2.729 0.193,-1.271 0.512,-2.513 0.764,-3.763 0.004,-0.02 0.007,-0.039 0.011,-0.058 0.003,0.021 0.006,0.042 0.01,0.062 0.287,1.914 0.472,3.802 0.432,5.763 -0.016,0.78 -0.202,2.24 0.419,2.901 -0.044,0.079 0.113,0.217 0.243,0.202 4.028,-0.414 8.465,-0.963 12.028,-3.045 0.703,-0.406 3.903,-2.244 2.984,-3.33 z"
         transform="translate(0.75,1)" />
    </g>
    <g
       id="Sweater">
      <path
         id="Fill_3_"
         fill="#302d63"
         d="m 81.985,58.549 c -1.066,-1.46 -0.012,5.27 -6.955,3.461 -1.216,-0.314 -3.206,-2.068 -3.838,-3.461 -0.855,-1.887 0.375,-3.564 2.011,-5.23 0.079,-0.081 0.137,-0.18 0.185,-0.285 2.794,-0.648 5.178,1.137 6.157,2.03 -0.346,-0.471 -0.733,-0.966 -1.205,-1.494 -2.375,-2.656 -4.938,-2.281 -5.281,-2.125 0,0 -0.213,0.056 -0.118,-0.134 -0.034,0.005 -0.065,0.004 -0.101,0.009 l 0.05,0.234 c -3.25,1.054 -2.968,5.89 -6.401,6.55 -0.137,0.026 -0.586,-0.194 -0.312,-0.249 1.177,-0.227 1.886,-1.065 2.45,-2.031 -2.621,-0.349 -5,2.942 -5.318,5.224 -0.019,0.145 -0.524,0.033 -0.503,-0.135 0.374,-2.671 3.035,-5.789 5.941,-5.3 0.012,-0.021 0.022,-0.042 0.034,-0.063 -0.052,0.001 -0.109,-0.006 -0.161,-0.026 -2.896,-1.152 -5.523,0.448 -6.771,3.091 -0.073,0.155 -0.563,-0.009 -0.503,-0.136 1.382,-2.928 4.275,-4.314 7.324,-3.176 -0.791,-1.467 -1.777,-2.81 -2.681,-4.211 -0.987,-1.535 -1.668,-3.233 -2.609,-4.795 -1.472,-2.429 -3.458,-4.521 -5.754,-6.178 -1.624,-1.174 -3.441,-2.086 -5.333,-2.734 -0.516,-0.174 -1.041,-0.319 -1.571,-0.44 l -3.568,-0.478 c 0,0 -0.126,4 -5.917,4.292 -5.792,0.292 -8.167,-3.875 -8.333,-4.042 l -3.79,1.083 c 0,0 -0.153,0.085 -0.274,0.08 -4.968,1.502 -10.724,0.896 -13.371,6.333 0,0 0.001,10e-4 0.001,0.002 -1.404,2.603 -3.029,5.072 -4.58,7.586 -1.621,2.633 -3.127,5.34 -4.704,7.997 -1.221,2.056 -2.139,4.297 -3.405,6.314 -0.872,1.393 -2.579,3.477 -2.227,5.242 0,0 -0.001,0 0,0.001 0.574,2.257 1.708,4.241 3.076,6.104 1.583,2.159 2.91,4.499 4.229,6.82 1.916,3.364 4.475,9.205 9.003,9.369 0.022,0 0.027,-0.009 0.056,-0.005 2.84,0.393 4.828,-2.714 5.842,-4.913 0.25,-0.545 0.456,-1.109 0.627,-1.685 l 0.268,0.714 -0.229,6.061 c -0.245,0.113 -0.452,0.209 -0.574,0.272 0.443,0.379 -0.744,1.651 -0.463,2.117 0.05,1.148 0.18,2.376 0,2.797 -0.291,0.674 1.304,0.854 1.903,1.356 1.318,1.113 2.885,1 3.979,1.347 2.974,0.938 5.653,0.141 8.845,0.141 1.982,0 4.23,-0.009 6.103,-0.65 1.79,-0.612 3.328,-0.882 5.144,-1.434 1.729,-0.521 3.773,-1.489 5.41,-2.23 1.644,-0.744 3.108,-1.593 4.642,-2.536 0.401,-0.249 1.315,-0.389 1.566,-0.709 0.287,-0.369 0.074,-1.522 -0.004,-1.955 -0.107,-0.605 -0.79,-0.955 -0.479,-1.536 0.302,-0.565 0.924,-1.006 1.271,-1.625 0.779,-1.386 1.248,-1.962 1.081,-3.634 -0.074,-0.743 -0.545,-2.068 -0.896,-2.757 -0.429,-0.841 -0.893,-2.021 -1.229,-2.906 -0.349,-0.909 -2.291,-5.636 -2.64,-6.859 -0.185,-0.647 -1.193,-5.535 -1.364,-6.143 -0.121,-0.432 0.229,-5.325 0.192,-5.737 0.633,-0.009 2.118,5.737 3.354,6.38 0.531,0.277 0.912,2.235 2.637,3.403 0.979,0.661 2.096,1.686 3.264,2.009 1.219,0.338 1.245,0.491 2.521,0.611 0.975,0.093 0,0 1.372,-0.378 0.717,0.021 0.717,0.021 1.85,-0.656 0.695,-0.416 2.071,-1.144 2.594,-1.614 1.253,-1.143 12.432,-6.93 8.48,-12.345 z M 23.83,83.028 c -0.002,-0.015 -10e-4,-0.03 -0.003,-0.045 -0.067,-0.511 -0.111,-1.326 -0.3,-1.768 -0.06,-0.132 0.438,-0.076 0.499,0.074 0.084,0.196 0.132,0.423 0.171,0.657 z M 16.14,70.88 C 16.5,70.748 16.25,70.84 16.113,70.967 16.087,70.93 16.087,70.9 16.14,70.88 Z m 5.887,6.701 c -0.058,0.005 -0.942,-0.078 -0.997,-0.109 -0.209,-0.131 -0.247,-0.398 -0.479,-0.452 -0.283,0.002 -0.15,-0.229 -0.429,-0.25 -0.488,0.038 0.02,-0.227 -0.43,-0.449 -0.649,-0.325 0.166,0.137 -0.327,-0.392 -0.125,-0.132 -0.145,-0.174 -0.25,-0.319 -0.134,0.021 -0.377,-0.403 -0.413,-0.573 -0.106,-0.502 -0.067,-0.129 -0.417,-0.638 -0.07,-0.014 -0.283,-0.541 -0.337,-0.612 -0.205,-0.279 -0.337,-0.67 -0.433,-1.021 -0.113,-0.067 -0.301,-0.479 -0.408,-0.559 -0.223,-0.161 -0.092,-0.078 -0.061,-0.351 -0.089,-0.061 -0.101,-0.191 -0.19,-0.257 -0.041,0.026 -0.052,-0.133 -0.113,-0.133 -0.368,0.001 -0.491,-0.104 -0.157,-0.151 -0.09,-0.077 -0.244,-0.165 -0.356,-0.244 0.207,0.084 0.547,0.274 0.812,0.406 0.117,0.044 0.213,0.08 0.222,0.073 -0.002,-0.016 0.022,0.012 0.023,0.035 0.055,0.019 0.098,0.027 0.109,0.011 0.059,-0.08 0.056,-0.203 0.116,-0.28 0.07,-0.199 -0.141,-0.815 0,-0.975 0.001,-0.003 -0.566,0.267 0.688,-0.351 0.36,-0.266 0.435,-0.126 0.8,-0.669 0.01,-0.04 0.623,-0.731 0.633,-0.771 0.139,-0.505 0.202,-0.014 0.349,-0.521 0.005,-0.02 0.201,-0.335 0.201,-0.335 0.032,-0.09 0.323,-0.287 0.362,-0.371 0.088,-0.226 0.159,-0.205 0.264,-0.424 0.005,-0.036 -0.049,-0.316 -0.028,-0.355 0.052,-0.09 0,-10e-4 0.052,-0.09 0.069,-0.157 0.106,-0.297 0.195,-0.45 0.091,-0.334 0.071,-0.664 0.091,-0.334 0.111,0.034 0.145,-0.403 0.164,-0.258 0.047,0.739 0.342,-0.837 1.149,1.78 0.241,0.775 0.677,1.211 0.72,2.018 0.022,0.459 0.288,0.698 0.28,1.172 0.113,0.022 0.209,0.452 0.205,0.616 -0.006,0.505 0.185,0.477 0.132,0.977 0.006,0.198 0.155,0.817 0.13,1.009 0.121,0.564 0.073,0.274 0.102,0.848 0,0.004 0.146,0.762 0.146,1.203 0,0.578 -0.139,0.199 -0.112,1.041 0.094,0.241 -0.1,0.9 0.006,1.138 0.209,0.294 -0.128,0.793 0,1.104 0.146,0.356 -0.328,0.077 -0.664,-0.271 -0.032,-0.027 -0.707,-0.346 -1.35,-0.466 z"
         transform="translate(0.75,1)" />
      <path
         id="Cuff"
         fill="#c0e1e1"
         d="m 76.674,59.434 c -1.89,-0.728 -4.204,-2.69 -3.17,-4.944 0.069,-0.158 0.56,0.005 0.502,0.133 -0.789,1.721 0.508,3.311 1.912,4.197 1.832,1.159 3.923,0.687 5.403,-0.711 -0.129,-0.321 -0.428,-0.995 -0.99,-1.899 l 0.008,0.017 c -3.188,-3.406 -6.753,-2.93 -6.753,-2.93 -1.407,1.021 -2.584,2.43 -2.412,4.267 0.104,1.104 0.734,2.068 1.528,2.832 0.023,0.021 0.046,0.044 0.068,0.065 0.26,0.243 0.533,0.466 0.812,0.665 0.689,0.491 1.495,0.854 2.334,1.038 0.461,0.101 0.931,0.144 1.398,0.125 0.408,-0.017 0.815,-0.078 1.21,-0.2 1.562,-0.479 2.403,-1.894 2.793,-3.385 -1.325,1.003 -3.017,1.355 -4.643,0.73 z"
         transform="translate(0.75,1)" />
      <path
         id="Outline_9_"
         d="m 81.878,58.289 c -0.012,-0.014 -0.021,-0.026 -0.031,-0.04 0.023,-0.021 0.047,-0.04 0.069,-0.062 0.074,-0.076 -0.104,-0.175 -0.267,-0.206 -0.652,-1.028 -0.129,-2.025 -3.029,-4.755 -3.188,-3 -5.581,-2.065 -5.581,-2.065 -0.427,0.081 -0.812,0.215 -1.163,0.392 -0.252,0.127 -0.484,0.28 -0.703,0.451 -0.63,0.492 -1.133,1.147 -1.551,1.918 -0.204,0.377 -0.399,0.783 -0.605,1.186 -0.761,-1.352 -1.677,-2.6 -2.503,-3.914 C 66.493,51.162 66.472,51.13 66.452,51.097 66.171,50.646 65.914,50.181 65.667,49.712 65.006,48.461 64.416,47.172 63.64,45.983 63.504,45.775 63.347,45.58 63.205,45.376 63.032,45.129 62.86,44.882 62.679,44.642 61.305,42.82 59.68,41.191 57.79,39.899 56.092,38.738 54.083,37.62 52.018,37.019 51.62,36.903 51.22,36.8 50.82,36.727 l 0.042,-0.094 c -0.792,-0.208 -4.042,-0.5 -4.042,-0.5 0,0.026 -0.003,0.229 -0.057,0.525 -0.198,1.093 -1.122,3.534 -5.476,3.752 -4.435,0.222 -6.963,-2.496 -7.792,-3.584 -0.206,-0.27 -0.311,-0.443 -0.311,-0.443 l -0.219,-0.062 -4.255,1.252 c -0.11,0.035 -0.222,0.062 -0.333,0.095 -2.466,0.727 -5.071,0.825 -7.533,1.57 -2.649,0.802 -4.655,2.326 -5.879,4.842 0,0 10e-4,0.001 10e-4,0.002 -1.479,2.73 -3.208,5.308 -4.812,7.963 -1.681,2.775 -3.32,5.587 -4.935,8.4 -1.172,2.047 -2.121,4.203 -3.368,6.201 -0.796,1.271 -2.12,3.043 -1.804,4.637 0,0.002 0.005,0.003 0.006,0.006 0.67,2.628 2.107,4.677 3.608,6.869 0.326,0.476 0.635,0.962 0.945,1.448 0.801,1.259 1.56,2.543 2.304,3.837 0.49,0.853 0.978,1.707 1.472,2.558 0.124,0.214 0.25,0.433 0.379,0.655 1.149,1.981 2.502,4.229 4.32,5.692 1.071,0.862 2.308,1.442 3.757,1.54 0.008,0 0.016,10e-4 0.024,10e-4 0.116,0.008 0.228,0.024 0.347,0.025 0.025,0 0.04,-0.003 0.058,-0.006 2.567,0.178 4.496,-2.101 5.581,-4.21 0.255,-0.495 0.48,-1.01 0.687,-1.534 l -0.46,5.766 c -0.857,0.681 -0.966,1.72 -0.938,2.75 0.026,0.802 0.392,1.872 0.101,2.646 -0.038,0.099 0.196,0.198 0.359,0.195 1.569,1.265 3.75,1.956 5.685,2.304 3.708,0.668 7.48,0.343 11.21,0.045 3.894,-0.312 7.326,-1.357 10.941,-2.822 1.652,-0.669 3.394,-1.231 4.92,-2.167 1.436,-0.879 2.736,-1.698 4.368,-2.087 0.105,0.039 0.226,0.062 0.289,0.025 1.124,-0.665 -0.081,-3.154 -0.491,-3.996 1.688,-1.748 3.244,-3.514 2.344,-6.26 -1.331,-4.062 -3.434,-7.837 -4.678,-11.941 -1.096,-3.623 -1.464,-7.119 -1.088,-10.841 1.278,2.572 2.381,5.332 4.15,7.593 1.732,2.213 4.03,3.521 6.714,4.274 0.047,0.013 0.076,0.008 0.11,0.008 0.027,0.005 0.053,0.008 0.071,0.006 2.303,-0.292 4.461,-1.04 6.312,-2.473 0.545,-0.421 1.066,-0.871 1.577,-1.333 0.004,-10e-4 0.01,0 0.014,-0.002 2.787,-1.382 5.285,-3.519 6.959,-6.15 1.083,-1.705 1.746,-4.03 -0.126,-5.415 z m -0.556,-0.18 c -1.48,1.397 -3.571,1.87 -5.403,0.711 -1.404,-0.887 -2.701,-2.477 -1.912,-4.197 0.058,-0.128 -0.433,-0.291 -0.502,-0.133 -1.034,2.254 1.28,4.217 3.17,4.944 1.626,0.625 3.318,0.273 4.645,-0.729 -0.39,1.491 -1.23,2.906 -2.793,3.385 -0.395,0.122 -0.802,0.183 -1.21,0.2 -0.468,0.019 -0.938,-0.025 -1.398,-0.125 -0.839,-0.184 -1.645,-0.547 -2.334,-1.038 -0.279,-0.199 -0.553,-0.422 -0.812,-0.665 -0.022,-0.021 -0.046,-0.043 -0.068,-0.065 -0.794,-0.764 -1.425,-1.728 -1.528,-2.832 -0.172,-1.837 1.005,-3.246 2.412,-4.267 0,0 3.565,-0.477 6.753,2.93 l -0.008,-0.017 c 0.56,0.903 0.859,1.576 0.988,1.898 z m -0.343,6.229 c -1.29,1.714 -2.892,3.199 -4.701,4.356 0.93,-0.891 1.847,-1.796 2.814,-2.642 0.119,-0.101 -0.347,-0.293 -0.47,-0.184 -1.75,1.526 -3.315,3.274 -5.125,4.731 -1.956,1.573 -4.09,2.467 -6.572,2.798 -2.893,-0.832 -5.247,-2.408 -6.88,-4.97 -1.499,-2.348 -2.572,-4.946 -3.87,-7.409 0.431,-3.512 0.856,-6.974 0.595,-10.519 -0.011,-0.146 -0.514,-0.252 -0.5,-0.072 0.26,3.539 -0.213,6.96 -0.603,10.449 -0.004,0.009 -0.022,0.012 -0.017,0.023 0.004,0.007 0.008,0.015 0.012,0.022 -0.031,0.276 -0.062,0.552 -0.092,0.829 -0.375,3.54 -0.059,6.914 0.979,10.333 1.207,3.981 3.07,7.673 4.52,11.559 0.737,1.976 0.791,3.848 -0.616,5.527 -0.438,0.522 -0.919,1.006 -1.399,1.488 -0.012,0.002 -0.008,0.011 -0.016,0.015 -0.553,0.553 -1.106,1.104 -1.604,1.708 -0.108,0.134 0.371,0.309 0.468,0.188 0.405,-0.49 0.856,-0.959 1.308,-1.425 0.443,0.953 1.111,2.645 0.484,3.325 -2.803,0.557 -5.051,2.498 -7.676,3.551 -3.328,1.336 -6.753,2.967 -10.351,3.39 -3.572,0.42 -7.326,0.763 -10.921,0.491 -2.663,-0.201 -5.769,-0.748 -7.887,-2.54 -0.02,-0.017 -0.054,-0.03 -0.092,-0.042 0.17,-0.635 -0.048,-1.431 -0.095,-2.055 -0.084,-1.128 -0.096,-2.38 0.875,-3.146 l 0.144,-3.067 4.27,2.382 c 3.504,2.103 7.377,4.196 11.527,4.539 4.047,0.336 7.765,-0.948 11.274,-2.885 0.188,-0.104 -0.277,-0.296 -0.404,-0.228 -3.334,1.843 -7.066,3.283 -10.946,2.869 -4.052,-0.434 -7.7,-2.35 -11.146,-4.414 l -4.56,-2.571 0.155,-3.299 c 2.215,-3.167 1.896,-7.086 1.896,-7.086 -0.367,-0.749 -0.875,-1.385 -1.496,-1.878 0.013,-2.446 0.25,-5.057 -0.405,-7.443 -0.519,-1.902 -1.119,-4.042 -2.107,-5.763 0.031,0.003 0.059,0.004 0.08,-0.002 2.166,-0.667 3.312,-3.097 4.213,-4.989 0.059,-0.129 -0.43,-0.291 -0.502,-0.135 -0.828,1.737 -1.874,3.943 -3.757,4.743 0.147,-0.375 0.292,-0.743 0.434,-1.088 0.511,-1.23 0.998,-2.479 1.578,-3.68 0.564,-1.163 1.271,-2.871 2.587,-3.352 0.188,-0.069 -0.271,-0.275 -0.401,-0.229 -0.983,0.357 -1.604,1.394 -2.084,2.271 -0.702,1.283 -1.251,2.631 -1.811,3.979 -1.044,2.501 -2.002,6.27 -4.743,7.414 -0.115,-0.164 -0.235,-0.314 -0.331,-0.438 -0.377,-0.481 -0.786,-0.932 -1.205,-1.377 -0.097,-0.105 -0.595,-0.15 -0.463,-0.008 0.629,0.676 1.842,1.699 1.916,2.676 0.058,0.77 -0.801,-0.084 -1.002,-0.291 -0.322,-0.332 -0.656,-0.625 -1.041,-0.887 -0.684,-0.469 -1.485,-0.734 -2.281,-0.952 -0.299,-0.082 -0.356,0.136 -0.059,0.216 0.84,0.23 1.7,0.528 2.373,1.104 0.397,0.337 0.742,0.789 1.158,1.122 0.977,1.051 1.297,2.585 2.137,3.76 0.583,0.819 1.22,1.592 2.036,2.18 -0.63,-0.005 -1.254,0.099 -1.468,0.502 -0.062,0.118 0.421,0.291 0.504,0.137 0.284,-0.537 1.762,-0.37 2.201,-0.293 1.573,0.275 2.743,1.206 3.438,2.629 0.024,0.05 0.102,0.084 0.186,0.108 -0.025,0.06 -0.04,0.113 -0.04,0.113 -0.042,2.868 -0.768,4.747 -1.254,5.698 0.08,-0.353 0.142,-0.709 0.182,-1.069 0.063,-0.608 0.108,-1.235 0.026,-1.847 -0.044,-0.339 -0.068,-0.724 -0.116,-1.098 -0.042,-0.323 -0.1,-0.637 -0.213,-0.903 -0.062,-0.15 -0.559,-0.206 -0.499,-0.074 0.188,0.441 0.232,1.257 0.3,1.768 0.09,0.67 0.092,1.351 -10e-4,2.021 -0.175,1.283 -0.528,2.548 -1.069,3.726 -1.014,2.199 -3.002,5.306 -5.842,4.913 -0.029,-0.004 -0.034,0.005 -0.056,0.005 C 12.332,93.481 9.773,87.641 7.857,84.277 6.539,81.956 5.211,79.616 3.628,77.457 2.261,75.595 1.127,73.611 0.552,71.353 c 0,0 0,0 0,-10e-4 -0.353,-1.766 1.354,-3.85 2.227,-5.242 1.267,-2.018 2.185,-4.259 3.405,-6.314 1.577,-2.657 3.083,-5.364 4.704,-7.997 1.551,-2.514 3.176,-4.983 4.58,-7.586 0,0 -10e-4,-10e-4 -10e-4,-0.002 2.646,-5.437 8.403,-4.831 13.371,-6.333 0.121,0.005 0.274,-0.08 0.274,-0.08 l 3.79,-1.083 c 0.167,0.167 2.542,4.333 8.333,4.042 5.791,-0.292 5.917,-4.292 5.917,-4.292 l 3.568,0.478 c 0.53,0.121 1.056,0.267 1.571,0.44 1.892,0.648 3.709,1.561 5.333,2.734 2.296,1.657 4.282,3.749 5.754,6.178 0.941,1.562 1.622,3.26 2.609,4.795 0.903,1.401 1.89,2.744 2.681,4.211 -3.049,-1.139 -5.942,0.248 -7.324,3.176 -0.061,0.127 0.43,0.291 0.503,0.136 1.248,-2.643 3.876,-4.243 6.771,-3.091 0.052,0.021 0.109,0.028 0.161,0.026 -0.012,0.021 -0.022,0.042 -0.034,0.063 -2.906,-0.489 -5.567,2.629 -5.941,5.3 -0.021,0.168 0.484,0.279 0.503,0.135 0.318,-2.282 2.697,-5.572 5.318,-5.224 -0.564,0.966 -1.273,1.805 -2.45,2.031 -0.274,0.055 0.175,0.275 0.312,0.249 3.533,-0.68 3.12,-5.792 6.682,-6.644 0.062,-0.015 0.117,-0.039 0.182,-0.051 0.055,-0.011 0.074,-0.028 0.081,-0.049 0.863,-0.11 2.947,0.017 4.907,2.209 0.472,0.527 0.859,1.022 1.205,1.494 -1,-0.912 -3.461,-2.759 -6.33,-1.994 0,0 0,0.005 0,0.006 0,10e-4 0.001,0.013 0,0.017 -0.037,10e-4 -0.077,0 -0.101,0.016 -1.547,1.125 -2.922,2.879 -2.342,4.905 0.453,1.582 1.705,2.859 3.143,3.615 1.392,0.731 3.097,1.19 4.661,0.783 1.85,-0.482 2.858,-1.97 3.282,-3.736 1.534,1.597 0.277,4.129 -0.878,5.665 z m -63.444,6.167 c 0.026,0.001 0.049,0 0.067,-0.007 2.019,-0.755 3.062,-2.843 3.876,-4.845 0.326,0.684 0.509,1.364 0.784,2.09 0.405,1.054 0.826,2.116 1.093,3.218 0.563,2.345 0.425,4.774 0.406,7.168 -0.536,-0.329 -1.137,-0.562 -1.793,-0.677 -0.203,-0.036 -0.533,-0.086 -0.895,-0.117 -1.172,-0.77 -2.273,-2.192 -2.844,-3.451 -0.347,-0.764 -0.614,-1.521 -1.103,-2.18 0.269,0.037 0.538,-0.013 0.616,-0.284 0.08,-0.291 -0.035,-0.614 -0.207,-0.915 z"
         transform="translate(0.75,1)" />
    </g>
    <g
       id="Collar">
      <path
         id="R_Fill"
         fill="#c0e1e1"
         d="m 45.366,35.559 c -0.586,0.738 -1.057,1.56 -1.547,2.367 -0.076,0.126 -0.155,0.25 -0.233,0.375 -0.424,0.68 -0.875,1.339 -1.438,1.916 -0.729,0.75 -0.446,1.04 0.192,1.698 0.442,0.454 0.873,0.918 1.305,1.382 0.841,0.907 1.676,1.821 2.522,2.722 1.019,-3.173 2.659,-6.203 4.036,-9.228 -1.487,-1.201 -3.567,-1.85 -5.376,-2.319 -0.052,-0.013 -0.077,-0.04 -0.107,-0.064 l -0.018,0.011 c -0.533,0.214 0.092,1.693 0.088,0.979 0,-0.034 0,0.067 -0.002,0.101 0.039,-0.052 0.074,-0.107 0.114,-0.158 0.138,-0.17 0.615,0.022 0.464,0.218 z"
         transform="translate(0.75,1)" />
      <path
         id="L_Fill"
         fill="#c0e1e1"
         d="m 34.654,44.414 c 0.971,0.823 1.982,1.61 2.914,2.437 0.693,-1.085 1.086,-2.333 1.715,-3.457 0.392,-0.699 0.806,-1.386 1.22,-2.07 0.576,-0.958 -0.264,-1.232 -0.986,-1.735 -1.358,-0.94 -2.719,-1.956 -3.944,-3.103 -0.096,-0.09 -0.195,-0.176 -0.29,-0.268 C 34.873,35.82 34.487,35.4 34.118,34.967 33.86,34.664 33.613,34.352 33.38,34.03 c -0.007,-0.009 -0.014,-0.018 -0.021,-0.027 -1.469,0.868 -3.131,1.773 -4.11,3.191 -0.01,0.015 -0.025,0.023 -0.04,0.033 -0.604,0.471 2.64,4.354 3.025,4.824 0.608,0.738 1.322,1.402 2.062,2.046 0.009,0.004 0.016,0.01 0.025,0.015 0.162,0.078 0.251,0.184 0.333,0.302 z"
         transform="translate(0.75,1)" />
      <path
         id="Outline_6_"
         d="m 50.74,36.826 c 0.004,-0.023 10e-4,-0.049 -0.015,-0.078 -0.013,-0.025 -0.028,-0.044 -0.056,-0.063 -0.005,-0.005 -0.006,-0.009 -0.012,-0.014 -1.241,-1.049 -2.908,-1.703 -4.516,-2.183 -0.084,-0.025 -0.168,-0.05 -0.251,-0.074 -0.329,-0.095 -0.655,-0.186 -0.972,-0.268 -0.26,-0.066 -0.349,0.142 -0.197,0.261 0.03,0.024 0.056,0.051 0.107,0.064 1.809,0.47 3.889,1.118 5.376,2.319 -1.377,3.025 -3.018,6.054 -4.036,9.228 -0.847,-0.9 -1.681,-1.815 -2.522,-2.722 -0.432,-0.464 -0.862,-0.928 -1.305,-1.382 -0.639,-0.658 -0.921,-0.948 -0.192,-1.698 0.563,-0.577 1.014,-1.236 1.438,-1.916 0.078,-0.125 0.157,-0.25 0.233,-0.375 0.49,-0.807 0.961,-1.628 1.547,-2.367 0.15,-0.196 -0.326,-0.388 -0.463,-0.218 -0.041,0.051 -0.076,0.106 -0.114,0.158 -0.104,0.14 -0.208,0.28 -0.307,0.424 -0.543,0.788 -1.005,1.629 -1.526,2.431 -0.321,0.488 -0.643,1.006 -1.052,1.427 -0.161,0.162 -0.443,0.383 -0.618,0.629 -2.719,-2.037 -5.672,-3.848 -7.634,-6.707 -0.002,-0.003 -0.004,-0.006 -0.006,-0.009 -0.089,-0.131 -0.289,-0.201 -0.435,-0.114 -1.557,0.928 -3.371,1.869 -4.426,3.396 -0.007,0.011 -0.006,0.021 -0.011,0.031 -0.681,0.778 1.967,3.815 2.389,4.351 1.777,2.271 4.179,3.957 6.298,5.896 0.095,0.089 0.337,0.185 0.438,0.041 0.646,-0.922 0.96,-1.965 1.461,-2.96 0.546,-1.089 1.193,-2.129 1.831,-3.169 0.235,0.75 1.239,1.402 1.72,1.92 1.058,1.143 2.099,2.298 3.174,3.423 0.087,0.108 0.296,0.145 0.403,0.062 0.034,-0.015 0.057,-0.036 0.065,-0.063 1.014,-3.331 2.754,-6.497 4.191,-9.66 0.002,-0.007 -0.007,-0.013 -0.005,-0.021 z m -18.506,5.223 c -0.385,-0.469 -3.63,-4.353 -3.025,-4.824 0.015,-0.01 0.03,-0.018 0.04,-0.033 0.979,-1.417 2.641,-2.323 4.11,-3.191 0.007,0.009 0.014,0.018 0.021,0.027 0.233,0.322 0.479,0.634 0.738,0.937 0.369,0.433 0.755,0.853 1.165,1.251 0.095,0.092 0.194,0.178 0.29,0.268 1.226,1.146 2.586,2.162 3.944,3.103 0.723,0.503 1.562,0.777 0.986,1.735 -0.414,0.685 -0.828,1.371 -1.22,2.07 -0.629,1.124 -1.022,2.372 -1.715,3.457 -0.932,-0.827 -1.943,-1.614 -2.914,-2.437 -0.122,-0.104 -0.237,-0.213 -0.358,-0.318 -0.741,-0.643 -1.454,-1.307 -2.062,-2.045 z"
         transform="translate(0.75,1)" />
    </g>
    <g
       id="Head">
      <g
         id="Head_1_">
        <path
           id="R_Ear"
           fill="#a86c35"
           d="m 51.537,18.219 c -0.003,0.006 -0.017,0.004 -0.021,0.009 -0.03,0.443 -0.033,0.878 0.026,1.271 0.002,0.012 -0.017,0.013 -0.021,0.022 0.21,0.967 0.331,1.947 0.357,2.924 0.235,-0.547 0.477,-1.093 0.679,-1.655 0.173,-0.483 0.239,-0.979 0.265,-1.487 0.003,-0.259 -0.019,-0.516 -0.062,-0.771 -0.055,-0.542 -0.462,-0.647 -1.223,-0.313 z"
           transform="translate(0.75,1)" />
        <path
           id="Head_Fill"
           fill="#a86c35"
           d="m 47.445,31.59 c 0.256,-0.287 0.515,-0.568 0.779,-0.844 0.547,-0.629 1.063,-1.283 1.525,-1.958 1.896,-2.783 1.965,-6.488 1.21,-9.67 -0.008,-0.034 0.019,-0.053 0.063,-0.062 -0.098,-1.173 0.139,-2.568 0.669,-3.568 0.002,-0.004 0.011,-0.002 0.013,-0.005 0.25,-0.921 3.397,-13.508 -10.972,-14.477 -14.844,-1 -16.626,7.658 -15.71,17.662 0.089,0.052 0.176,0.091 0.269,0.155 0.214,0.148 -0.291,0.1 -0.394,0.03 -0.442,-0.309 -0.824,-0.409 -1.153,-0.364 -0.02,0.003 -0.039,0.007 -0.058,0.011 -1.418,0.273 -1.802,3.338 -1.536,4.4 0.208,0.831 0.769,1.54 1.341,2.146 0.343,0.363 0.75,0.661 1.146,0.964 1.104,0.854 1.896,0.399 2.509,-0.507 0.09,-0.135 0.553,0.06 0.5,0.135 -0.073,0.108 -0.152,0.209 -0.232,0.309 0.006,0.026 0.017,0.057 0.024,0.084 0.101,0.023 0.198,0.061 0.218,0.118 1.069,3.101 3.5,5.216 6.343,6.698 2.27,1.188 5.379,2.485 7.984,2.552 1.486,-0.365 2.759,-1.407 3.917,-2.361 0.538,-0.446 1.049,-0.938 1.545,-1.448 z"
           transform="translate(0.75,1)" />
        <g
           id="Outline_5_">
          <path
             id="Outline_4_"
             d="m 53.081,18.113 c -0.244,-0.561 -0.904,-0.691 -1.431,-0.51 -0.024,0.008 -0.053,0.008 -0.076,0.018 0.109,-0.72 0.318,-1.429 0.619,-1.997 0.004,-0.007 -0.013,-0.017 -0.015,-0.025 0.017,-0.014 0.028,-0.024 0.028,-0.024 C 53.449,11.64 52.463,3.166 45.369,1.447 45.169,1.399 44.976,1.358 44.78,1.312 41.824,0.631 39.251,0.315 36.872,0.46 c -3.074,0.188 -5.831,1.142 -8.69,3.08 -4.956,3.361 -3.611,13.905 -3.463,14.959 -0.092,-0.041 -0.178,-0.059 -0.267,-0.087 -2.468,-0.769 -3.658,3.35 -2.363,5.396 0.764,1.211 1.966,2.359 3.318,2.89 0.751,0.296 1.336,-0.006 1.805,-0.506 1.054,2.917 3.351,5.038 6.026,6.493 -0.008,10e-4 -0.013,0.004 -0.021,0.006 0.165,0.062 0.317,0.138 0.453,0.233 -0.001,-0.004 -0.002,-0.008 -0.003,-0.012 0.104,0.053 0.203,0.112 0.308,0.163 2.435,1.186 5.526,2.5 8.272,2.554 0.042,0.001 0.073,-0.002 0.094,-0.008 0,0 10e-4,0 0.002,0 0.698,-0.165 1.366,-0.481 1.997,-0.869 0.143,-0.116 0.304,-0.212 0.484,-0.288 -0.008,-0.003 -0.014,-0.008 -0.023,-0.011 0.558,-0.384 1.085,-0.813 1.57,-1.237 1.338,-1.171 2.643,-2.479 3.647,-3.956 1.146,-1.68 1.7,-3.577 1.833,-5.528 0.037,-0.007 0.074,-0.015 0.083,-0.042 0.6,-1.749 1.977,-3.68 1.147,-5.577 z m -3.332,10.674 c -0.462,0.676 -0.979,1.33 -1.525,1.958 -0.251,0.29 -0.512,0.569 -0.779,0.844 -0.495,0.51 -1.006,1.002 -1.546,1.448 -1.158,0.955 -2.431,1.996 -3.917,2.361 -2.604,-0.067 -5.714,-1.363 -7.984,-2.552 -2.843,-1.482 -5.273,-3.598 -6.343,-6.698 -0.02,-0.057 -0.117,-0.095 -0.218,-0.118 -0.025,-0.006 -0.048,-0.016 -0.073,-0.019 0.017,-0.021 0.032,-0.044 0.049,-0.065 0.08,-0.1 0.159,-0.201 0.232,-0.309 0.248,-0.659 -0.139,-1.158 -0.744,-1.201 -1.211,-0.088 -2.586,0.562 -3.23,-0.939 -0.062,-0.139 -0.543,-0.187 -0.498,-0.082 0.36,0.844 1.138,1.256 2.021,1.361 0.567,0.07 2.35,-0.336 1.949,0.727 0,0.001 10e-4,0.001 10e-4,0.002 -0.612,0.905 -1.404,1.358 -2.507,0.505 -0.396,-0.303 -0.803,-0.601 -1.146,-0.964 -0.572,-0.606 -1.133,-1.315 -1.341,-2.146 -0.266,-1.062 0.118,-4.127 1.536,-4.4 0.019,-0.003 0.038,-0.008 0.058,-0.011 0.329,-0.045 0.711,0.056 1.153,0.364 0.103,0.069 0.607,0.118 0.394,-0.03 C 25.199,18.759 25.112,18.72 25.022,18.668 24.106,8.664 25.888,0.006 40.732,1.006 c 14.37,0.968 11.222,13.556 10.972,14.477 -0.002,0.003 -0.011,10e-4 -0.013,0.005 -0.53,1 -0.767,2.395 -0.669,3.568 -0.045,0.009 -0.071,0.028 -0.063,0.062 0.755,3.181 0.686,6.886 -1.21,9.669 z m 2.808,-7.997 c -0.202,0.562 -0.443,1.108 -0.679,1.655 -0.026,-0.977 -0.147,-1.957 -0.357,-2.924 0.005,-0.009 0.023,-0.01 0.021,-0.022 -0.06,-0.393 -0.057,-0.828 -0.026,-1.271 0.005,-0.005 0.019,-0.003 0.021,-0.009 0.761,-0.334 1.168,-0.229 1.222,0.312 0.044,0.256 0.065,0.513 0.062,0.771 -0.025,0.51 -0.091,1.005 -0.264,1.488 z"
             transform="translate(0.75,1)" />
          <path
             id="L_Ear"
             d="m 22.513,20.972 c -0.007,0.154 0.496,0.244 0.502,0.136 0.051,-1.041 1.402,-1.207 2.063,-0.545 0.608,0.611 1.057,1.359 1.688,1.952 0.095,0.088 0.578,0.139 0.458,0.025 -0.924,-0.868 -1.458,-2.191 -2.773,-2.525 -0.793,-0.198 -1.887,-0.025 -1.938,0.957 z"
             transform="translate(0.75,1)" />
        </g>
      </g>
      <g
         id="Nose">
        <path
           id="Outline_3_"
           d="m 38.79,26.418 c 0.356,-0.228 0.765,-0.274 1.163,-0.381 0.049,0.05 0.136,0.104 0.228,0.118 0.928,0.147 1.697,0.519 2.669,0.405 0.854,-0.099 1.648,-0.791 1.8,-1.636 0.025,-0.141 -0.479,-0.258 -0.502,-0.133 -0.155,0.86 -1,1.562 -1.885,1.578 -0.765,0.013 -1.393,-0.286 -2.11,-0.412 0.003,-0.076 -0.337,-0.21 -0.441,-0.175 -0.477,0.157 -0.964,0.182 -1.397,0.454 -0.089,0.06 0.344,0.263 0.475,0.182 z"
           transform="translate(0.75,1)" />
        <path
           id="Outline_2_"
           d="m 40.015,24.266 c 1.221,-0.479 2.547,-0.77 3.83,-0.349 0.202,0.066 0.521,-0.027 0.181,-0.139 -1.49,-0.488 -2.976,-0.285 -4.419,0.28 -0.168,0.065 0.289,0.255 0.408,0.208 z"
           transform="translate(0.75,1)" />
      </g>
      <g
         id="L_Eye">
        <path
           id="L_White"
           fill="#ffffff"
           d="m 37.439,19.921 c -0.153,-0.718 -0.742,-1.155 -1.084,-1.762 -0.312,-0.562 -0.859,-0.895 -1.464,-1.177 -1.521,-0.718 -2.884,0.191 -3.778,1.423 -0.275,0.38 -0.544,0.821 -0.472,1.316 0.115,0.802 0.742,1.091 1.445,1.246 0.946,0.213 2.109,0.336 3.037,0.083 0.479,-0.13 1.996,-0.597 2.114,-1.193 0.058,-0.028 0.103,-0.034 0.163,-0.039"
           transform="translate(0.75,1)" />
        <path
           id="L_Outline"
           d="m 37.116,20.181 c 0.056,0.15 0.554,0.216 0.5,0.074 -0.571,-1.612 -1.444,-3.344 -3.302,-3.621 -1.24,-0.184 -2.508,0.644 -3.313,1.513 -0.403,0.437 -0.842,0.881 -0.595,1.521 0.241,0.631 0.729,1.04 1.378,1.234 1.79,0.537 4.14,0.33 5.784,-0.57 0.188,-0.104 -0.278,-0.292 -0.403,-0.225 -1.342,0.735 -3.541,1.116 -5.027,0.67 -1.803,-0.542 -1.387,-1.806 -0.422,-2.688 0.605,-0.558 1.377,-1.127 2.229,-1.205 1.82,-0.168 2.675,1.892 3.171,3.297 z"
           transform="translate(0.75,1)" />
        <path
           id="L_Pupil"
           fill="#42210b"
           stroke="#010101"
           stroke-width="0.2494"
           d="m 33.629,17.847 c 0.303,0 0.577,0.123 0.776,0.322 0.199,0.199 0.322,0.473 0.322,0.776 0,0.303 -0.123,0.577 -0.322,0.776 -0.199,0.199 -0.473,0.322 -0.776,0.322 -0.303,0 -0.577,-0.123 -0.776,-0.322 -0.199,-0.199 -0.322,-0.473 -0.322,-0.776 0,-0.303 0.123,-0.577 0.322,-0.776 0.199,-0.199 0.473,-0.322 0.776,-0.322 z"
           transform="translate(0.75,1)" />
      </g>
      <path
         id="L_Eyebrow"
         d="m 30.202,15.875 c 0.878,-2.215 3.476,-2.522 5.548,-2.063 0.295,0.065 0.35,-0.113 0.049,-0.181 -2.222,-0.494 -5.138,-0.321 -6.1,2.11 -0.045,0.113 0.448,0.271 0.503,0.134 z"
         transform="translate(0.75,1)" />
      <g
         id="R_Eye">
        <path
           id="R_White"
           fill="#ffffff"
           d="m 49.789,17.92 c 0,0.011 0,0.021 0,0.034 0,0.652 -0.429,1.094 -1.052,1.395 -0.804,0.393 -1.255,0.55 -2.149,0.593 -0.894,0.045 -1.722,0.067 -2.562,-0.184 -0.392,-0.115 -0.412,-0.154 -0.374,-0.548 0.033,-0.335 0.153,-0.511 0.3,-0.813 0.14,-0.287 0.161,-0.632 0.341,-0.884 0.158,-0.228 0.104,-0.568 0.295,-0.771 0.479,-0.514 1.132,-0.669 1.854,-0.688 0.638,-0.016 1.396,0.068 1.918,0.406 0.371,0.238 1.526,0.916 1.5,1.492"
           transform="translate(0.75,1)" />
        <path
           id="R_Outline"
           d="m 43.388,19.636 c -0.027,0.161 0.479,0.28 0.503,0.133 0.204,-1.206 0.569,-2.967 1.84,-3.521 0.916,-0.396 1.875,-0.119 2.688,0.392 0.885,0.556 1.78,1.638 0.469,2.462 -1.376,0.867 -3.624,1.038 -5.152,0.519 -0.211,-0.074 -0.522,0.054 -0.188,0.169 1.694,0.58 3.938,0.47 5.542,-0.333 0.503,-0.251 1.389,-1.271 0.878,-1.9 -0.261,-0.321 -0.593,-0.6 -0.938,-0.83 -0.845,-0.562 -1.956,-1.092 -3.008,-0.905 -1.812,0.318 -2.366,2.231 -2.634,3.814 z"
           transform="translate(0.75,1)" />
        <path
           id="R_Pupil"
           fill="#42210b"
           stroke="#010101"
           stroke-width="0.2494"
           d="m 46.011,16.827 c -0.607,-0.024 -1.117,0.45 -1.138,1.056 -0.026,0.606 0.448,1.118 1.055,1.142 0.606,0.021 1.118,-0.451 1.14,-1.059 0.022,-0.606 -0.45,-1.117 -1.057,-1.139 z"
           transform="translate(0.75,1)" />
      </g>
      <path
         id="R_Eyebrow"
         d="m 44.42,13.526 c 1.91,-0.721 4.435,-0.943 5.604,1.093 0.076,0.132 0.547,0.167 0.498,0.082 -1.321,-2.3 -4.32,-2.209 -6.513,-1.384 -0.168,0.063 0.289,0.253 0.411,0.209 z"
         transform="translate(0.75,1)" />
      <g
         id="Mouth_1_">
        <path
           id="Mouth"
           fill="#700f10"
           d="m 36.985,28.508 c -0.175,0.705 0.118,1.194 0.655,1.528 0.096,0.181 0.187,0.367 0.314,0.542 0.421,0.563 1.057,0.801 1.656,1.109 0.705,0.36 1.505,0.56 2.317,0.448 0.504,-0.066 1.327,-0.285 1.643,-0.684 0.361,-0.458 0.396,-0.906 0.396,-1.461 0,-0.021 0.002,-0.052 0.002,-0.076 0.033,-0.039 0.071,-0.077 0.079,-0.116 0.167,-0.917 1.292,-1.646 1.292,-1.646 -6.625,1.544 -8.354,0.356 -8.354,0.356 z"
           transform="translate(0.75,1)" />
        <path
           id="Teeth"
           fill="#ffffff"
           d="m 37.052,28.68 c 0.005,0.047 0.008,0.094 0.017,0.141 2.153,0.983 5.515,1.177 7.457,-0.312 0.004,-0.003 0.012,-0.002 0.018,-0.003 0.02,-0.02 0.037,-0.043 0.058,-0.062 -2.431,0.549 -5.193,1.049 -7.55,0.236 z"
           transform="translate(0.75,1)" />
        <path
           id="Outline_1_"
           d="m 45.161,27.722 c -0.062,0.009 -0.135,0.048 -0.122,0.118 10e-4,0.012 0.013,0.017 0.017,0.027 -0.025,0.021 -0.049,0.043 -0.044,0.082 0.005,0.04 0.034,0.065 0.064,0.087 -2.458,0.567 -5.467,1.272 -7.916,0.412 0.016,-0.002 0.03,-0.007 0.046,-0.008 0.062,-0.007 0.135,-0.047 0.125,-0.118 -0.014,-0.079 -0.095,-0.119 -0.158,-0.143 -0.121,-0.041 -0.242,-0.041 -0.358,-0.021 -0.313,-0.013 -0.628,0.188 -0.54,0.518 -0.016,0.035 -0.038,0.067 -0.048,0.104 0.001,0 0.003,10e-4 0.005,10e-4 0,0.001 -10e-4,0.001 -10e-4,0.002 -0.028,0.173 0.328,0.271 0.379,0.102 0.003,-0.011 0.014,-0.017 0.018,-0.028 0.02,-0.014 0.04,-0.027 0.042,-0.058 0,-0.004 0.002,-0.008 0.003,-0.012 0.006,-0.013 0.015,-0.023 0.022,-0.035 0.242,1.738 2.435,3.417 4.088,3.495 1.041,0.049 2.128,-0.062 2.991,-0.692 0.381,-0.278 0.253,-0.832 0.334,-1.25 0.177,-0.89 0.496,-1.536 1.275,-2.023 0.007,0.022 0.021,0.045 0.024,0.065 0.018,0.136 0.309,0.217 0.366,0.08 0.045,-0.01 0.081,-0.034 0.089,-0.081 0.081,-0.44 -0.297,-0.669 -0.701,-0.624 z m -1.88,3.768 c -0.497,0.277 -1.047,0.442 -1.616,0.479 -1.224,0.079 -2.246,-0.177 -3.142,-1.045 -0.566,-0.552 -1.25,-1.218 -1.438,-2.019 0.218,0.098 0.439,0.192 0.677,0.273 0.122,0.042 0.251,0.073 0.377,0.109 1.273,0.37 2.732,0.483 4.062,0.247 0.261,0.161 0.559,0.31 0.775,0.533 0.242,0.248 0.451,0.534 0.675,0.801 -0.064,0.271 -0.169,0.51 -0.37,0.622 z m 0.985,-2.682 c -0.226,0.306 -0.385,0.661 -0.467,1.072 -0.04,0.201 -0.057,0.497 -0.104,0.785 -0.157,-0.199 -0.315,-0.398 -0.493,-0.574 -0.24,-0.231 -0.555,-0.393 -0.835,-0.569 -0.006,-0.004 -0.023,-0.008 -0.038,-0.012 0.652,-0.128 1.273,-0.333 1.817,-0.648 0.054,-0.031 0.106,-0.063 0.159,-0.096 -0.012,0.015 -0.027,0.027 -0.039,0.042 z m 0.279,-0.302 c -0.006,0.001 -0.014,0 -0.018,0.003 -1.942,1.489 -5.304,1.295 -7.457,0.312 -0.009,-0.046 -0.012,-0.094 -0.017,-0.141 2.356,0.812 5.119,0.312 7.55,-0.237 -0.022,0.02 -0.038,0.043 -0.058,0.063 z"
           transform="translate(0.75,1)" />
      </g>
      <g
         id="Hair">
        <path
           id="Fill"
           fill="#301113"
           d="M 52.744,13.908 C 52.708,13.855 52.691,13.794 52.726,13.726 53.06,13.078 52.996,12.23 52.713,11.577 52.675,11.489 52.705,11.431 52.762,11.395 52.761,11.376 52.743,11.363 52.749,11.343 53.042,10.315 52.945,9.122 52.498,8.151 52.459,8.067 52.485,8.01 52.539,7.974 53.003,6.876 52.144,5.764 51.406,5 51.34,4.965 51.285,4.917 51.271,4.848 51.124,4.102 50.575,3.552 50.099,2.994 50.064,2.953 50.053,2.919 50.051,2.887 50.042,2.877 50.031,2.869 50.025,2.859 49.615,2.17 49.089,1.439 48.268,1.255 48.141,1.307 47.919,1.262 47.858,1.126 47.462,0.253 46.033,0.202 45.212,0.115 45.199,0.114 45.193,0.104 45.182,0.101 45.167,0.1 45.16,0.108 45.144,0.105 44.461,-0.046 43.5,-0.71 42.829,-0.276 c -0.084,0.055 -0.208,0.037 -0.307,-0.013 -0.036,0.022 -0.076,0.041 -0.146,0.033 -0.465,-0.054 -0.932,-0.095 -1.399,-0.132 -0.062,0.019 -0.133,0.02 -0.207,-0.02 -0.004,0 -0.007,-0.001 -0.011,-0.001 -0.013,-0.001 -0.019,-0.011 -0.031,-0.013 -0.579,-0.282 -1.288,-0.155 -1.896,-0.065 -0.522,0.078 -1.032,0.09 -1.558,0.057 -0.037,-0.002 -0.061,-0.024 -0.09,-0.037 -0.02,0.005 -0.021,0.02 -0.047,0.021 -0.755,0.046 -1.503,0.124 -2.25,0.231 -0.03,0.017 -0.071,0.015 -0.113,0.015 -0.014,0.002 -0.028,0.003 -0.042,0.005 -0.008,0.001 -0.014,-0.005 -0.022,-0.004 -0.01,-0.002 -0.015,0.004 -0.025,0 -0.831,-0.259 -1.529,-0.115 -2.119,0.543 -0.078,0.088 -0.229,0.084 -0.344,0.035 -0.628,0.194 -1.241,0.426 -1.845,0.69 0.014,0.058 -0.011,0.112 -0.11,0.141 -0.811,0.232 -2.414,0.211 -2.408,1.375 10e-4,0.167 -0.18,0.198 -0.328,0.151 -0.556,0.429 -1.076,0.897 -1.548,1.417 -0.005,0.006 -0.012,0.012 -0.019,0.019 v 0 c 0,0 -10e-4,0 -10e-4,0.001 C 25.946,4.19 25.929,4.207 25.901,4.221 25.55,4.4 24.963,4.66 24.88,5.084 c -0.029,0.142 0.002,0.297 -0.02,0.441 -0.014,0.113 -0.085,0.198 -0.168,0.272 -0.004,0.018 -0.006,0.036 -0.018,0.054 -0.32,0.497 -0.6,1.013 -0.853,1.546 0.011,0.029 0.034,0.055 0.026,0.09 -0.086,0.41 -0.454,0.66 -0.521,1.076 -0.059,0.371 0.045,0.752 -0.236,1.054 -0.023,0.024 -0.052,0.04 -0.084,0.05 -0.133,0.53 -0.231,1.065 -0.292,1.608 0.04,0.043 0.062,0.098 0.049,0.16 -0.088,0.453 -0.447,0.886 -0.251,1.31 0.079,0.035 0.146,0.086 0.152,0.168 10e-4,0.025 0.006,0.05 0.007,0.076 0.019,0.038 0.024,0.072 0.01,0.101 0.035,0.46 0.098,0.917 0.198,1.369 0.199,0.284 0.223,0.604 0.313,0.944 0.052,0.19 0.103,0.451 0.258,0.587 0.106,0.096 0.151,0.194 0.146,0.337 -0.001,0.018 -0.018,0.022 -0.023,0.037 0.415,0.798 0.949,1.516 1.612,2.123 0.028,0.025 0.044,0.049 0.058,0.073 0.083,0.004 0.167,0.03 0.218,0.089 0.807,0.917 1.344,1.888 1.858,2.968 0.432,-0.275 0.935,-0.639 0.74,-1.154 -0.169,-0.439 -0.493,-0.839 -0.69,-1.271 -0.562,-1.202 -1.16,-2.444 -1.646,-3.677 -0.803,-2.032 -0.258,-4.745 0.632,-6.65 0.899,-1.933 3.19,-3.334 5.075,-4.15 2.881,-1.246 6.246,-1.254 9.33,-1.103 1.672,0.082 3.351,0.319 5.014,0.537 1.07,0.141 2.108,0.439 3.04,0.996 3.479,2.068 3.64,6.87 3.393,10.429 -0.02,0.207 -0.312,0.218 -0.449,0.109 -0.142,1.084 -0.299,1.934 -0.35,2.091 l 0.097,-0.101 c 0.219,-0.304 0.471,-0.584 0.704,-0.89 0.595,-0.788 0.537,-1.931 0.535,-2.875 z"
           transform="translate(0.75,1)" />
        <path
           id="Outline"
           d="m 53.203,11.528 c 0.016,-0.018 0.042,-0.023 0.05,-0.05 C 53.554,10.41 53.459,9.177 53.009,8.16 53.015,8.151 53.029,8.151 53.033,8.14 53.58,6.913 52.6,5.62 51.78,4.782 51.768,4.77 51.753,4.763 51.739,4.754 51.544,3.994 51.025,3.419 50.522,2.83 50.521,2.829 50.52,2.829 50.519,2.828 50.514,2.816 50.515,2.805 50.507,2.791 49.996,1.929 49.329,1.043 48.278,0.863 48.255,0.859 48.242,0.871 48.22,0.871 47.636,-0.041 46.208,-0.167 45.225,-0.27 44.332,-0.471 43.352,-1.137 42.466,-0.589 42.428,-0.615 42.39,-0.643 42.338,-0.649 41.839,-0.706 41.34,-0.752 40.841,-0.787 c -1.101,-0.474 -2.46,0.036 -3.607,-0.037 -0.057,-0.003 -0.085,0.018 -0.12,0.033 -0.047,-0.023 -0.096,-0.044 -0.148,-0.041 -0.531,0.03 -1.061,0.083 -1.589,0.146 -0.236,0.028 -0.472,0.056 -0.707,0.091 -0.085,-0.024 -0.17,-0.048 -0.254,-0.064 -0.748,-0.146 -1.429,0.002 -2.009,0.488 -0.032,0.027 -0.063,0.059 -0.095,0.088 -0.025,-0.001 -0.051,0 -0.075,0.006 -0.191,0.055 -0.375,0.126 -0.563,0.188 -0.703,0.229 -1.394,0.488 -2.062,0.809 -0.022,0.011 -0.034,0.024 -0.049,0.036 -0.657,0.141 -1.422,0.27 -1.86,0.701 -0.051,0.051 -0.097,0.106 -0.138,0.166 -0.08,0.116 -0.135,0.253 -0.17,0.409 -0.001,10e-4 -0.004,10e-4 -0.005,0.002 -0.677,0.492 -1.288,1.056 -1.851,1.672 -0.361,0.18 -0.86,0.412 -1.055,0.763 -0.102,0.183 -0.092,0.406 -0.127,0.601 -0.013,0.074 -0.04,0.142 -0.077,0.203 -0.032,0.052 -0.063,0.104 -0.126,0.14 -0.094,0.055 -0.093,0.128 -0.043,0.191 -0.325,0.528 -0.618,1.068 -0.875,1.632 -0.024,0.053 -0.011,0.101 0.02,0.141 -0.137,0.249 -0.366,0.453 -0.413,0.746 -0.04,0.254 0,0.562 -0.074,0.815 -0.004,0.015 -0.011,0.028 -0.017,0.042 -0.005,0.015 -0.018,0.027 -0.024,0.042 -0.082,0.007 -0.156,0.035 -0.177,0.118 -0.177,0.66 -0.301,1.328 -0.365,2.008 -0.003,0.037 0.022,0.063 0.038,0.094 -0.084,0.273 -0.237,0.53 -0.279,0.812 -0.04,0.301 0.044,0.536 0.221,0.763 0.035,0.453 0.098,0.899 0.193,1.344 -0.03,0.043 -0.03,0.1 0.032,0.168 0.24,0.269 0.254,0.688 0.344,1.026 0.035,0.139 0.08,0.275 0.148,0.401 0.041,0.073 0.143,0.173 0.184,0.265 -0.034,0.036 -0.043,0.086 -0.008,0.154 0.454,0.895 1.052,1.686 1.794,2.361 0.051,0.048 0.116,0.068 0.179,0.07 0.003,0.003 0.003,0.006 0.006,0.009 0.21,0.24 0.403,0.484 0.581,0.733 0.037,0.052 0.068,0.106 0.104,0.158 0.49,0.713 0.882,1.466 1.259,2.28 0.072,0.153 0.297,0.209 0.438,0.117 0.287,-0.193 0.666,-0.418 0.924,-0.706 0.023,-0.026 0.048,-0.051 0.069,-0.078 0.162,-0.207 0.256,-0.446 0.206,-0.729 -0.131,-0.724 -0.813,-1.578 -1.102,-2.26 -0.456,-1.09 -1.221,-2.216 -1.453,-3.377 -0.23,-1.146 -0.223,-2.345 0.006,-3.492 0.529,-2.652 1.997,-4.437 4.357,-5.767 2.867,-1.614 6.254,-1.848 9.482,-1.731 1.858,0.066 3.695,0.324 5.543,0.532 0.979,0.11 1.973,0.317 2.843,0.802 3.521,1.965 3.643,6.712 3.395,10.242 -0.004,0.059 0.025,0.107 0.069,0.143 0.137,0.108 0.43,0.097 0.449,-0.109 C 52.455,12.014 52.295,7.213 48.815,5.144 47.883,4.587 46.845,4.289 45.775,4.148 44.112,3.93 42.433,3.693 40.761,3.611 37.677,3.46 34.312,3.467 31.431,4.714 c -1.885,0.816 -4.176,2.218 -5.075,4.15 -0.89,1.905 -1.435,4.618 -0.632,6.65 0.486,1.232 1.084,2.475 1.646,3.677 0.197,0.432 0.521,0.831 0.69,1.271 0.195,0.516 -0.308,0.879 -0.74,1.154 -0.514,-1.08 -1.051,-2.05 -1.858,-2.968 -0.052,-0.059 -0.135,-0.084 -0.218,-0.089 -0.014,-0.024 -0.03,-0.048 -0.058,-0.073 -0.663,-0.607 -1.197,-1.325 -1.612,-2.123 0.005,-0.015 0.022,-0.02 0.023,-0.037 0.006,-0.143 -0.039,-0.241 -0.146,-0.337 -0.155,-0.136 -0.206,-0.396 -0.258,-0.587 -0.09,-0.34 -0.114,-0.661 -0.313,-0.944 -0.1,-0.452 -0.164,-0.909 -0.198,-1.369 0.014,-0.028 0.009,-0.062 -0.01,-0.101 -0.001,-0.025 -0.006,-0.05 -0.007,-0.076 -0.006,-0.082 -0.074,-0.133 -0.152,-0.168 -0.196,-0.423 0.163,-0.856 0.251,-1.31 0.013,-0.062 -0.009,-0.116 -0.049,-0.16 0.061,-0.543 0.159,-1.078 0.292,-1.608 0.032,-0.011 0.061,-0.026 0.084,-0.05 0.281,-0.302 0.178,-0.683 0.236,-1.054 0.066,-0.416 0.435,-0.666 0.521,-1.076 0.008,-0.035 -0.015,-0.061 -0.026,-0.09 0.252,-0.533 0.533,-1.049 0.853,-1.546 0.012,-0.019 0.014,-0.036 0.018,-0.054 0.083,-0.074 0.154,-0.159 0.168,-0.272 0.021,-0.145 -0.01,-0.3 0.02,-0.441 0.083,-0.424 0.67,-0.685 1.021,-0.863 0.028,-0.014 0.045,-0.031 0.062,-0.048 0,0 0.001,0 0.001,-10e-4 v 0 c 0.006,-0.006 0.014,-0.012 0.019,-0.019 0.472,-0.52 0.992,-0.988 1.548,-1.417 0.148,0.046 0.329,0.016 0.328,-0.151 -0.006,-1.164 1.598,-1.143 2.408,-1.375 0.099,-0.028 0.124,-0.083 0.11,-0.141 0.604,-0.265 1.217,-0.497 1.845,-0.69 0.115,0.049 0.266,0.053 0.344,-0.035 0.59,-0.658 1.288,-0.802 2.119,-0.543 0.01,0.003 0.015,-0.002 0.025,0 0.008,0 0.014,0.005 0.022,0.004 0.014,-0.002 0.028,-0.003 0.042,-0.005 0.042,0 0.083,0.003 0.112,-0.014 0.747,-0.108 1.495,-0.186 2.25,-0.231 0.026,-0.001 0.028,-0.016 0.047,-0.021 0.03,0.013 0.053,0.035 0.09,0.037 0.526,0.033 1.036,0.021 1.559,-0.056 0.608,-0.09 1.316,-0.217 1.896,0.065 0.012,0.002 0.019,0.012 0.031,0.013 0.004,0 0.007,0.001 0.011,0.001 0.074,0.04 0.145,0.038 0.207,0.02 0.467,0.037 0.934,0.078 1.399,0.132 0.07,0.008 0.111,-0.011 0.146,-0.033 0.099,0.049 0.223,0.068 0.307,0.013 0.671,-0.434 1.632,0.23 2.314,0.382 0.016,0.003 0.023,-0.005 0.038,-0.004 0.012,0.002 0.018,0.012 0.03,0.014 0.82,0.087 2.25,0.138 2.646,1.011 0.062,0.136 0.283,0.181 0.41,0.129 0.821,0.184 1.347,0.914 1.757,1.604 0.007,0.011 0.018,0.019 0.026,0.028 0.002,0.032 0.013,0.067 0.048,0.107 0.476,0.558 1.024,1.107 1.172,1.854 0.013,0.066 0.068,0.115 0.135,0.15 0.738,0.764 1.598,1.876 1.135,2.973 -0.054,0.036 -0.08,0.092 -0.041,0.177 0.447,0.972 0.544,2.164 0.251,3.192 -0.006,0.02 0.012,0.034 0.013,0.052 -0.057,0.036 -0.087,0.094 -0.049,0.182 0.282,0.653 0.347,1.501 0.013,2.149 -0.035,0.068 -0.019,0.129 0.018,0.182 0.002,0.944 0.06,2.087 -0.535,2.875 -0.233,0.306 -0.485,0.586 -0.704,0.89 -0.118,0.165 -0.229,0.334 -0.317,0.523 -0.104,0.227 0.396,0.369 0.502,0.137 0.303,-0.659 0.953,-1.085 1.23,-1.756 0.352,-0.853 0.334,-1.816 0.335,-2.721 0,-0.016 -0.017,-0.024 -0.021,-0.039 0.312,-0.718 0.269,-1.573 -0.033,-2.288 z"
           transform="translate(0.75,1)" />
      </g>
    </g>
    <g
       id="L_Hand">
      <path
         id="Fill_4_"
         fill="#a86c35"
         d="m 24.75,81.625 c -0.133,0.167 -0.248,0.327 -0.412,0.477 -0.137,0.122 -0.162,0.076 -0.222,0.252 -0.037,0.11 0,0.291 0,0.409 0,0.57 0.054,1.104 0.054,1.668 0,0.688 0.006,1.393 -0.123,2.062 -0.112,0.572 -0.359,1.027 -0.595,1.554 -0.288,0.652 -0.426,1.111 -0.723,1.771 -0.283,0.635 -0.69,1.45 -1.235,1.896 -0.273,0.228 -0.494,0.492 -0.79,0.689 -0.27,0.181 -0.362,0.256 -0.149,0.565 0.378,0.554 1.203,0.738 1.797,0.979 0.649,0.264 0.951,0.403 1.594,-0.018 0.606,-0.394 1.368,-1.024 1.936,-1.466 -0.553,0.821 0.095,1.303 0.861,1.49 0.229,0.053 0.471,0.188 0.721,0.111 0.275,-0.084 0.631,-0.773 0.842,-0.974 0.475,-0.442 0.826,-0.714 1.086,-1.297 0.231,-0.521 0.752,-0.944 0.83,-1.547 0.093,-0.693 -0.656,-0.777 -1.039,-1.047 0.06,-0.163 0.394,-0.251 0.539,-0.366 0.166,-0.131 0.312,-0.287 0.428,-0.457 0.232,-0.343 0.394,-0.784 0.538,-1.163 0.105,-0.269 0.03,-0.308 0.009,-0.528 -0.02,-0.169 -0.386,-0.164 -0.296,-0.356 0.151,-0.33 0.604,-0.751 0.583,-1.129 0.501,-0.041 1.162,-0.138 1.48,-0.582 0.463,-0.648 -0.076,-1.086 -0.539,-1.501 -0.992,-0.887 -1.891,-1.846 -3.062,-2.503 -0.281,-0.159 -0.465,-0.222 -0.761,-0.285 -0.32,-0.07 -0.307,-0.15 -0.45,-0.441 -0.231,-0.484 -0.824,-0.709 -1.35,-0.782 -0.595,-0.084 -0.609,0.757 -0.783,1.162 -0.194,0.457 -0.51,0.944 -0.797,1.356"
         transform="translate(0.75,1)" />
      <path
         id="Outline_8_"
         d="m 28.381,80.468 c 0.22,-0.077 -0.079,-0.288 -0.224,-0.234 -1.377,0.486 -2.641,1.201 -3.979,1.78 -0.215,0.094 0.08,0.299 0.223,0.236 1.334,-0.58 2.603,-1.294 3.98,-1.782 z m -2.262,2.573 c -0.254,0.037 -0.033,0.277 0.137,0.253 0.332,-0.047 0.871,0.192 1.194,0.271 0.479,0.116 0.954,0.236 1.433,0.357 0.27,0.068 1.876,0.305 1.896,0.641 0.042,0.672 -0.108,1.271 -0.61,1.736 -0.123,0.115 0.234,0.265 0.348,0.159 0.586,-0.547 0.742,-1.314 0.604,-2.088 -0.013,-0.074 -0.097,-0.115 -0.157,-0.136 -1.138,-0.336 -2.293,-0.627 -3.449,-0.902 -0.403,-0.096 -0.979,-0.352 -1.396,-0.291 z m -0.563,2.011 c -0.183,-0.071 -0.4,0.102 -0.162,0.198 1.409,0.556 2.863,0.964 4.348,1.256 0.308,0.061 0.871,-0.036 0.788,0.46 -0.039,0.242 -0.079,0.49 -0.176,0.72 -0.303,0.735 -0.769,1.3 -1.615,1.356 -0.257,0.019 -0.029,0.264 0.139,0.252 1.416,-0.094 2.041,-1.445 2.059,-2.729 0.002,-0.091 -0.145,-0.136 -0.21,-0.145 -1.769,-0.251 -3.511,-0.711 -5.171,-1.368 z m 0.153,3.186 c -0.26,-0.03 -0.161,0.228 0.039,0.252 1.05,0.131 2.041,0.471 3.025,0.839 0.718,0.264 1.452,0.29 1.004,1.199 -0.368,0.748 -0.897,1.348 -1.354,2.035 -0.207,0.316 -0.398,0.684 -0.662,0.957 -0.916,0.957 -2.16,-0.304 -1.577,-1.212 -0.12,-0.045 -0.239,-0.088 -0.36,-0.132 -0.016,0.023 -0.025,0.048 -0.041,0.07 -0.158,0.129 0.178,0.299 0.295,0.204 0.076,-0.063 0.092,-0.077 0.123,-0.173 0.053,-0.146 -0.287,-0.244 -0.359,-0.131 -0.336,0.524 -0.697,1.18 -0.006,1.616 0.433,0.276 1.141,0.546 1.655,0.343 0.771,-0.304 1.113,-1.168 1.587,-1.797 0.576,-0.771 1.194,-1.562 1.297,-2.551 0.01,-0.095 -0.08,-0.141 -0.158,-0.167 -1.487,-0.509 -2.934,-1.158 -4.508,-1.352 z m 0.616,3.973 c 0.175,-0.106 -0.167,-0.283 -0.296,-0.205 -0.71,0.438 -1.175,1.313 -1.929,1.646 -1.466,0.646 -2.393,-0.136 -3.534,-0.905 -0.14,-0.097 -0.456,0.005 -0.242,0.149 0.825,0.561 1.869,1.5 2.973,1.309 1.412,-0.249 1.888,-1.29 3.028,-1.994 z m 2.022,-11.96 c -0.181,-0.086 -0.394,0.087 -0.161,0.198 1.041,0.489 1.772,1.312 2.643,2.032 0.452,0.373 0.951,0.723 1.338,1.17 0.655,0.771 -0.834,1.371 -1.252,1.432 -0.255,0.035 -0.033,0.273 0.137,0.251 0.517,-0.07 1.142,-0.287 1.433,-0.758 0.343,-0.553 0.259,-0.793 -0.22,-1.233 -1.18,-1.093 -2.447,-2.402 -3.918,-3.092 z m -1.259,2.401 c -0.077,-0.046 -0.188,-0.076 -0.269,-0.027 -0.078,0.047 -0.037,0.137 0.024,0.177 0.381,0.243 0.811,0.471 1.113,0.812 0.102,0.115 0.464,0.082 0.312,-0.094 -0.323,-0.366 -0.776,-0.609 -1.18,-0.868 z m -2.946,-0.769 c -0.166,0.124 0.174,0.295 0.294,0.203 0.599,-0.448 1.043,-1.148 1.352,-1.821 0.099,-0.213 0.196,-0.429 0.257,-0.655 0.072,-0.291 0.102,-0.391 0.449,-0.347 0.738,0.097 1.145,0.495 1.094,1.257 -0.014,0.17 0.364,0.256 0.377,0.103 0.084,-1.292 -0.987,-1.648 -2.101,-1.618 -0.038,0.001 -0.112,0.026 -0.12,0.076 -0.101,0.997 -0.796,2.195 -1.602,2.802 z"
         transform="translate(0.75,1)" />
    </g>
    <g
       id="R_Hand">
      <path
         id="Fill_2_"
         fill="#a86c35"
         d="m 81.647,58.05 c -0.24,0.486 -1.474,1.205 -2.017,1.362 -0.84,0.243 -2.214,0.224 -2.987,-0.12 -0.645,-0.288 -1.189,-0.753 -1.539,-1.052 -0.651,-0.561 -0.832,-0.688 -1.221,-1.4 -0.204,-0.376 -0.505,-0.988 -0.404,-1.463 0.074,-0.343 0.524,-0.586 0.396,-1.007 -0.078,-0.256 -0.303,-0.202 -0.405,-0.392 -0.077,-0.141 -0.052,-0.398 -0.088,-0.566 -0.081,-0.383 -0.144,-0.677 -0.146,-1.108 -0.008,-0.847 -0.104,-1.742 0.238,-2.521 0.354,-0.807 0.415,-1.557 0.604,-2.37 0.095,-0.404 0.289,-0.787 0.364,-1.209 0.079,-0.425 0.022,-0.874 0.062,-1.312 0.035,-0.414 0.118,-0.821 0.09,-1.259 -0.025,-0.385 -0.328,-0.877 -0.203,-1.26 0.22,-0.681 1.845,-0.373 2.109,0.202 0.12,0.262 0.17,0.958 0.211,1.26 0.058,0.429 0.008,0.868 -0.152,1.25 -0.336,0.799 -0.641,1.54 -0.504,2.479 0.062,0.422 0.171,0.836 0.667,0.72 0.143,-0.034 0.296,-0.247 0.439,-0.314 0.181,-0.087 0.232,-0.571 0.43,-0.705 0.312,-0.211 0.602,-0.061 0.729,-0.399 0.175,-0.468 0.268,-0.825 0.494,-1.277 0.197,-0.394 0.188,-0.843 0.373,-1.245 0.19,-0.412 0.277,-0.66 0.342,-1.108 0.146,-0.97 0.857,-1.736 1.373,-2.506 0.582,-0.865 0.938,-1.723 1.752,-2.396 0.646,-0.534 0.986,-1.642 2.018,-1.097 1.089,0.574 0.925,1.38 0.403,2.155 -0.806,1.207 -0.821,1.448 -1.311,2.304 -0.23,0.408 -0.666,0.666 -0.959,1.043 -0.425,0.546 -0.987,1.687 -0.957,2.515 0.254,-0.508 0.916,-1.421 1.312,-1.83 1.202,-1.238 2.031,-3.076 3.264,-4.069 0.301,-0.242 0.595,-0.444 0.868,-0.701 0.386,-0.362 0.239,-0.479 0.844,-0.343 1.072,0.24 1.116,0.789 1.027,1.798 0.441,-0.093 0.684,-0.289 1.148,-0.095 0.64,0.27 0.905,1.112 0.595,1.752 -0.225,0.457 -0.735,0.679 -1.097,1.018 -0.412,0.388 -0.664,0.908 -1.048,1.312 -0.263,0.279 -0.616,0.562 -0.855,0.87 -0.367,0.476 -0.712,1.05 -0.867,1.603 -0.151,0.524 -0.381,0.663 -0.729,1.06 -0.268,0.305 -0.056,0.693 0.183,1.1 0.067,0.011 0.123,0.005 0.192,0 0.188,-0.012 0.454,-0.39 0.604,-0.493 0.223,-0.155 0.483,-0.277 0.717,-0.402 0.467,-0.25 0.924,-0.493 1.36,-0.794 0.757,-0.522 1.43,-1.429 2.407,-1.425 0.509,0.002 0.637,0.19 0.615,0.707 -0.018,0.464 -0.255,0.662 -0.615,0.996 -0.401,0.367 -0.899,0.638 -1.351,0.965 -0.426,0.312 -0.771,0.763 -1.167,1.111 -0.821,0.726 -1.657,1.351 -2.312,2.223 -0.688,0.919 -1.038,2.371 -1.592,3.373 -0.229,0.422 -0.688,1.126 -0.896,1.562 -0.242,0.511 -0.312,0.099 -0.75,0.493 -0.619,0.551 -1.523,0.894 -2.269,1.069"
         transform="translate(0.75,1)" />
      <path
         id="Outline_7_"
         d="m 78.638,46.224 c 0.064,-0.118 -0.418,-0.288 -0.503,-0.133 -0.501,0.921 -0.891,2.036 -1.989,2.36 0.149,0.049 0.301,0.098 0.451,0.148 -0.754,-1.505 0.42,-3.404 0.396,-4.98 -0.024,-1.5 -1.525,-1.834 -2.747,-1.88 -0.043,0 -0.136,0.005 -0.148,0.062 -0.272,1.127 0.109,2.285 0.012,3.449 -0.136,1.619 -0.672,3.036 -0.991,4.603 -0.441,2.154 -0.02,4.597 1.614,6.161 0.104,0.101 0.603,0.135 0.396,-0.061 -1.688,-1.618 -2.069,-4.429 -1.329,-6.577 0.688,-1.998 1.096,-4.271 0.715,-6.37 -0.289,-1.585 1.856,-0.886 1.961,0.319 0.055,0.633 -0.07,1.256 -0.212,1.872 -0.241,1.045 -0.681,2.303 -0.164,3.329 0.072,0.144 0.31,0.189 0.452,0.147 1.145,-0.335 1.563,-1.483 2.086,-2.449 z m -0.503,-0.133 c -0.046,0.146 0.454,0.291 0.502,0.134 1.056,-3.282 2.569,-6.491 5.175,-8.829 0.118,-0.105 -0.348,-0.296 -0.469,-0.188 -2.622,2.348 -4.146,5.581 -5.208,8.883 z m 5.188,-8.782 c -0.115,0.105 0.35,0.295 0.471,0.188 0.24,-0.222 0.656,-0.4 0.967,-0.205 0.352,0.223 0.352,0.646 0.229,1.001 -0.05,0.146 0.448,0.292 0.504,0.135 0.441,-1.285 -1.321,-1.894 -2.171,-1.119 z m -2.501,8.842 c -0.06,0.128 0.432,0.291 0.505,0.137 0.555,-1.178 1.104,-2.354 1.733,-3.493 0.424,-0.769 0.831,-1.558 1.295,-2.302 0.433,-0.695 0.906,-1.271 1.14,-2.064 0.043,-0.151 -0.457,-0.29 -0.504,-0.134 -0.27,0.918 -0.909,1.663 -1.38,2.491 -0.396,0.699 -0.799,1.397 -1.181,2.104 -0.575,1.069 -1.089,2.163 -1.608,3.261 z m 0.224,0.018 c -0.107,0.145 0.377,0.312 0.469,0.187 2.062,-2.764 3.355,-6.222 6.354,-8.155 0.114,-0.075 -0.329,-0.277 -0.47,-0.188 -2.995,1.932 -4.293,5.396 -6.353,8.156 z m 6.85,-8.127 c -0.05,-0.008 -0.244,-0.017 -0.212,0.088 0.033,0.103 0.199,0.146 0.289,0.159 0.664,0.099 1.146,0.69 0.763,1.317 -0.063,0.11 0.41,0.289 0.505,0.136 0.559,-0.919 -0.559,-1.581 -1.345,-1.7 z m -4.414,9.163 c -0.063,0.111 0.414,0.289 0.503,0.134 0.781,-1.347 1.696,-2.608 2.468,-3.961 0.786,-1.379 1.973,-2.401 2.809,-3.736 0.066,-0.106 -0.407,-0.286 -0.503,-0.135 -0.552,0.883 -1.32,1.569 -1.947,2.392 -0.494,0.648 -0.844,1.368 -1.298,2.045 -0.728,1.077 -1.381,2.141 -2.032,3.261 z m -0.455,0.647 c -0.104,0.144 0.379,0.31 0.472,0.188 2.062,-2.765 3.354,-6.224 6.354,-8.158 0.115,-0.075 -0.33,-0.277 -0.469,-0.188 -2.999,1.934 -4.296,5.397 -6.357,8.158 z m 6.852,-8.128 c -0.052,-0.009 -0.246,-0.017 -0.212,0.087 0.031,0.104 0.196,0.146 0.289,0.158 0.662,0.101 1.146,0.691 0.764,1.32 -0.065,0.11 0.41,0.288 0.503,0.135 0.559,-0.921 -0.558,-1.581 -1.344,-1.7 z m -4.013,9.099 c -0.007,0.176 0.497,0.27 0.502,0.134 0.046,-1.466 1.286,-2.709 2.039,-3.881 0.854,-1.33 1.997,-2.419 2.831,-3.751 0.068,-0.108 -0.403,-0.286 -0.502,-0.136 -0.552,0.884 -1.317,1.569 -1.944,2.392 -0.431,0.561 -0.758,1.178 -1.158,1.756 -0.702,1.004 -1.728,2.205 -1.768,3.486 z m 0.207,0.061 c -0.109,0.135 0.368,0.309 0.47,0.19 0.699,-0.835 1.67,-1.205 2.544,-1.812 0.938,-0.649 1.845,-1.514 3.02,-1.67 0.276,-0.037 -0.173,-0.27 -0.312,-0.25 -1.04,0.14 -1.859,0.784 -2.685,1.383 -1.01,0.732 -2.22,1.187 -3.037,2.159 z m 5.716,-3.506 c -0.07,-0.002 -0.203,0.035 -0.129,0.125 0.073,0.096 0.221,0.125 0.332,0.132 0.289,0.017 0.332,0.396 0.28,0.618 -0.061,0.264 -0.19,0.483 -0.395,0.661 -0.118,0.102 0.347,0.294 0.469,0.188 0.299,-0.262 0.551,-0.729 0.419,-1.137 -0.135,-0.42 -0.57,-0.565 -0.976,-0.587 z m -4.43,5.166 c -0.118,0.097 0.343,0.292 0.47,0.188 1.498,-1.22 2.998,-2.438 4.52,-3.631 0.118,-0.093 -0.34,-0.29 -0.469,-0.188 -1.523,1.193 -3.023,2.411 -4.521,3.631 z m 0.485,0.163 c 0.062,-0.126 -0.425,-0.293 -0.504,-0.137 -1.045,2.144 -2.089,5.21 -4.066,6.711 -1.698,1.291 -3.893,0.187 -5.612,-0.521 -0.212,-0.088 -0.518,0.04 -0.189,0.176 1.719,0.706 3.989,1.812 5.817,0.842 0.875,-0.465 1.497,-1.383 2.002,-2.201 0.957,-1.564 1.748,-3.225 2.552,-4.87 z M 78.82,46.804 c -0.348,-0.069 -0.145,0.201 0.078,0.246 1.906,0.391 5.97,1.139 6.782,3.274 0.058,0.15 0.554,0.213 0.5,0.07 -0.401,-1.057 -1.495,-1.638 -2.479,-2.069 -1.581,-0.693 -3.189,-1.174 -4.881,-1.521 z m -1.982,2.36 c -0.104,-0.1 -0.602,-0.139 -0.397,0.058 1.082,1.045 1.912,1.916 1.763,3.513 -0.088,0.934 -0.3,1.896 -1.088,2.489 -0.117,0.089 0.338,0.287 0.47,0.188 0.933,-0.703 1.193,-2.03 1.133,-3.142 -0.083,-1.44 -0.902,-2.161 -1.881,-3.106 z"
         transform="translate(0.75,1)" />
    </g>
  </g>
</svg>
