<?xml version="1.0" encoding="UTF-8" standalone="no"?>
<svg
   version="1.1"
   width="136.93289"
   height="130.22301"
   viewBox="-1 -1 136.93289 130.22301"
   id="svg40"
   sodipodi:docname="dinosaur2-b.svg"
   xmlns:inkscape="http://www.inkscape.org/namespaces/inkscape"
   xmlns:sodipodi="http://sodipodi.sourceforge.net/DTD/sodipodi-0.dtd"
   xmlns="http://www.w3.org/2000/svg"
   xmlns:svg="http://www.w3.org/2000/svg">
  <defs
     id="defs44" />
  <sodipodi:namedview
     id="namedview42"
     pagecolor="#ffffff"
     bordercolor="#000000"
     borderopacity="0.25"
     inkscape:showpageshadow="2"
     inkscape:pageopacity="0.0"
     inkscape:pagecheckerboard="0"
     inkscape:deskcolor="#d1d1d1" />
  <!-- Exported by Scratch - http://scratch.mit.edu/ -->
  <g
     id="ID0.2887869942933321"
     transform="translate(-1.2,-1.9769989)">
    <path
       id="ID0.08430484589189291"
       fill="#00a98e"
       d="m 217,194.4 c -2.7,-16 2.7,-30.1 17.6,-37.4 6.9,-3.4 12.8,-7.2 12.5,-14.7 -0.1,-2.9 -1.3,-4.4 -1.1,-7.3 0.5,-4.8 4,-6.7 8.6,-8.9 -2.3,-4.5 1.4,-10.9 6.3,-10.7 3.1,0.1 4.8,1.5 6.9,3.6 0.8,0.8 0.7,2.1 1.8,2.4 1.7,0.5 2.7,0 4.5,0 0,-2.9 -0.3,-6.4 2.6,-7 3,-0.6 5.3,1.3 6.8,3.9 -0.6,0.6 -1,1 -1.5,1.7 l 3.2,3.5 c 4,-1.9 8.9,-4.2 13.2,-4.7 4.1,-0.5 4.4,0.9 6,4.5 3.5,7.8 -3.9,14.6 -11.6,18.8 -3,1.7 -4.5,1.7 -7.9,0.8 -4.5,-1.3 -7.3,-6.2 -11.9,-5.1 -1.2,0.3 -3.5,1.1 -4.2,2.3 -1.1,1.8 -0.1,4.1 1.4,5.1 3.2,2 6.7,3.2 10.5,3.2 0,3.3 -3,5.1 -6.3,5.9 -2.6,0.6 -5.2,-0.8 -6.8,1.4 -3.6,4.7 -3.3,9.3 -1.5,15 1,3.3 2.9,4.7 3.2,8 0.5,4.4 2,8.4 1.1,12.7 -0.9,4 -1.9,4.5 -2.6,8.6"
       transform="translate(-170,-112)" />
    <g
       id="ID0.6757762767374516">
      <path
         id="ID0.3781144577078521"
         fill="#00a98e"
         d="m 231.2,203.9 c 0,0 0.6,6.9 3.7,10 3.1,3.1 10,7.2 10,7.2 0,0 -2.6,2.8 -6.3,2.2 -3.7,-0.6 -5.4,-1.9 -5.9,-1.1 -0.5,0.8 -2.8,4.3 -1.7,4.7 1.2,0.4 7.3,1.2 8.1,2.6 0.9,1.4 2.1,5.8 2.1,5.8 0,0 -2.5,-1.1 -3.6,-1.4 -1.1,-0.3 0.3,4.3 0.3,4.3 l -1.2,2.7 -3.4,-4.3 -3,4.1 c 0,0 -2.7,-4.9 -4.2,-6.1 -1.5,-1.3 -6.8,-3.6 -6.5,-5.3 0.3,-1.6 1.8,-4.5 2.4,-5.2 0.6,-0.6 2.1,-0.1 2.4,-4.2 0.3,-4.1 -1.9,-11.6 -0.6,-12.9 1.3,-1.2 6.6,-5.5 7.4,-3.1 z"
         transform="translate(-170,-112)" />
      <path
         id="ID0.3225819584913552"
         fill="#272525"
         d="m 232.9,223.5 c -0.7,1 -0.6,2.2 -0.8,3.3 5.8,0 11.9,3.7 9.9,10.5 -1,-0.4 -1.7,-0.8 -3,-1.3 0.2,1.9 0.1,4.5 -2.2,6.3 -1.2,-0.9 -2,-2.2 -3.3,-3 -1,1.8 -2.6,3.1 -4.4,3.9 -0.4,-0.2 -0.8,-7.4 -4.5,-8.8 -1.9,-0.7 -4.3,-1.5 -5,-3.7 -2,-5.5 3.2,-6.3 4.3,-11 1.4,-6 -3.2,-11.7 -0.5,-14.8 1.1,-1.3 4,-2.1 5.4,-2.8 0.7,0.7 1.4,1.8 1.5,2.8 -1.4,0.6 -5.1,1.5 -5,3.5 0.3,5.7 4.8,11.2 -0.8,16 -1.5,1.3 -3.5,1.9 -3.4,4.3 0.2,2.6 8.6,4.2 9.4,11 2,-1.3 2.1,-3.3 2,-4.9 2.1,-0.4 4.5,4.5 4.5,4.5 1,-3.6 -0.8,-5.4 -2,-7.4 1.9,0 3.7,1.1 5.1,2.2 -0.2,-5.3 -6.4,-5.9 -9.6,-6.3 -0.4,-1.8 0.9,-6.3 1.9,-7.8 2.7,3 8.9,1.8 12,1 0.5,0.4 1.6,0.6 1.5,1.5 -4,2.6 -8.9,2.5 -13,1 z"
         transform="translate(-170,-112)" />
    </g>
    <path
       id="ID0.9287447012029588"
       fill="#00a98e"
       d="m 257.2,211 c -5.7,0.4 -10.9,16.6 -23.2,10.9 -1.3,-2 -11.5,0.5 -11.5,-1.9 -5.9,-0.5 -2,-3.2 -3.6,-11.5 0.8,-10 0.7,-3.8 1.2,-6.4"
       transform="translate(-170,-112)" />
    <path
       id="ID0.7460863827727735"
       fill="#00a98e"
       d="m 216.3,191.6 4.9,10.1 c 0,0 0.1,4.5 4.4,3.9 4.4,-0.6 16.6,1.2 16.6,1.2 l 14.9,4.3 c 0,0 13.3,-12.1 12.5,-15.6 -0.8,-3.5 -53.3,-3.9 -53.3,-3.9 z"
       transform="translate(-170,-112)" />
    <path
       id="ID0.5567956399172544"
       fill="#00a98e"
       d="m 266.1,167.3 c 1.7,0.7 2.9,2.5 4.5,1.6 3.6,-1.8 4.2,-4.7 6.9,-7.7 2.1,-2.4 5.7,-2.1 8.4,-0.2 1.2,0.8 2,2.3 1.3,3.4 -0.8,1.2 -2.5,-0.1 -3.7,0.6 1.6,1.8 2.5,3.7 1.6,5.9 -3,-0.9 -6.6,-3 -7.9,-0.2 -1.4,3.1 -2.4,4.8 -4.2,7.6 -1.6,2.4 -7.5,-0.7 -7.5,-1.7 0.2,-3.3 -0.4,-6.1 0.6,-9.3 z"
       transform="translate(-170,-112)" />
    <path
       id="ID0.8350903880782425"
       fill="#272525"
       d="m 285.4,117.4 c 0.2,0.7 -2,1.8 -2.6,2.4 7.2,3.9 1.2,10.1 -2.8,7 -4.4,-3.5 0.8,-9.7 5.4,-9.4 z"
       transform="translate(-170,-112)" />
    <path
       id="ID0.11918330984190106"
       fill="#272525"
       d="m 302.1,135.6 c 0.7,1.1 1.8,2.6 1.5,3.6 -0.7,2.2 -4.5,-0.4 -4.5,-0.4 0,0 -0.7,0.6 -1.1,1.1 0.4,1 0.5,2.4 0,3.2 -0.4,0.6 -1.1,0.7 -2.4,-0.1 -0.6,-0.4 -1,-0.5 -1.3,-0.6 -0.6,0.4 -1.2,0.7 -2.4,1 0.2,0.9 -0.1,3.2 -0.8,3.9 -1.5,1.7 -2.8,-3.1 -2.8,-3.1 0,0 -1.7,-0.1 -2.5,-0.4 -0.9,0.8 -2.1,2.7 -2.9,2.2 -0.6,-0.4 -0.5,-1.8 -0.5,-3.7 -0.4,-0.4 -1,-0.7 -1.6,-1.2 -0.8,0.7 -2.6,2.9 -3.6,2.3 -1,-0.7 0.1,-3.4 0.1,-4.5 -0.2,-0.2 -0.7,-0.4 -1,-0.2 -0.7,1.7 -1.5,3 -2,3 -0.7,0 -1.4,-2.2 -1.8,-2.9 -2.4,0.6 -3.9,1.7 -2.4,4.8 1,-0.2 2.4,-1.1 3,-0.4 0.5,0.5 -0.1,2.1 -0.3,3 0.1,0.4 0.6,0.5 1.1,0.7 0.6,-0.7 1.6,-2.8 2.4,-2.6 0.7,0.2 1.2,1.9 1.1,3.1 l 0.8,0.1 c 0.5,-1 1.1,-2.8 1.8,-2.7 0.7,0.1 1.2,1.4 1.6,2.8 0.3,0.1 1.1,0 1.4,0.4 -1.2,6.1 -7.5,7.8 -13,7.6 -2.2,3.1 -3.9,6.2 -3,10 1.5,6.1 4,11.6 4.6,18 1,10.7 -3.6,26.5 -15.4,29.9 -1.8,0.5 -4.9,1.1 -7.6,0.9 0.7,-1.2 1.5,-2.7 2.5,-3.7 6.6,0 10.3,-3.7 13.1,-7.2 7.3,-9 5.4,-20.2 2,-30.3 -0.8,-2.3 -1.9,-4.6 -2.6,-6.9 -1,-3.4 3.1,-9.9 4.7,-12.8 4.4,0.9 9,0.1 11.6,-3.8 -14.1,-0.6 -16.2,-12.4 -6.2,-12.8 10.9,-0.4 10.6,16.8 28.5,-4.9 0.5,-0.6 0.8,-1.2 1.2,-1.9 1.1,-2 1,-6 -0.6,-7.7 -4.1,-4.5 -13.6,1.7 -16.8,2 -0.7,-0.7 -0.2,-1.2 0.4,-1.6 3.7,-2.3 11.1,-5.9 15.5,-4.1 8.1,3 5.7,12.5 0.2,16.9 z"
       transform="translate(-170,-112)" />
    <path
       id="ID0.40528688952326775"
       fill="#272525"
       d="m 262.3,122.9 c -1,-0.2 -2.8,0.1 -2.8,-1.5 5.3,-1.3 16.7,2.8 11.4,9.1 -4,4.8 -11.4,1.1 -8.6,-7.6 z"
       transform="translate(-170,-112)" />
    <path
       id="ID0.5818359507247806"
       fill="#ffffff"
       d="m 281.6,121.2 c 1.7,0.1 4.2,4 1.5,4.5 -3.3,0.6 -3.2,-3 -1.5,-4.5 z"
       transform="translate(-170,-112)" />
    <path
       id="ID0.11463694460690022"
       fill="#272525"
       d="m 282.9,122.5 c 0.359,0 0.684,0.146 0.919,0.381 0.235,0.235 0.381,0.56 0.381,0.919 0,0.359 -0.146,0.684 -0.381,0.919 -0.235,0.235 -0.56,0.381 -0.919,0.381 -0.359,0 -0.684,-0.146 -0.919,-0.381 -0.235,-0.235 -0.381,-0.56 -0.381,-0.919 0,-0.359 0.146,-0.684 0.381,-0.919 0.235,-0.235 0.56,-0.381 0.919,-0.381 z"
       transform="translate(-170,-112)" />
    <path
       id="ID0.770130863878876"
       fill="#ffffff"
       d="m 264.4,123.2 c 1.6,0.3 5.3,1 5.9,3.8 0.4,2.3 -2.9,5.4 -5.7,2.5 -1,-0.9 -1.4,-2.9 -0.2,-6.3 z"
       transform="translate(-170,-112)" />
    <path
       id="ID0.7262056148611009"
       fill="#272525"
       d="m 268.4,125.5 c 0.469,0 0.894,0.19 1.202,0.498 0.308,0.308 0.498,0.733 0.498,1.202 0,0.469 -0.19,0.894 -0.498,1.202 -0.308,0.308 -0.733,0.498 -1.202,0.498 -0.469,0 -0.894,-0.19 -1.202,-0.498 -0.308,-0.308 -0.498,-0.733 -0.498,-1.202 0,-0.469 0.19,-0.894 0.498,-1.202 0.308,-0.308 0.733,-0.498 1.202,-0.498 z"
       transform="translate(-170,-112)" />
    <path
       id="ID0.8066222262568772"
       fill="#272525"
       d="m 299.4,129 c -0.9,-0.1 -0.5,-3.1 -0.1,-3.8 0.6,-1 2.3,-0.4 2.3,0.5 0,1.3 -1.7,3.4 -2.2,3.3 z"
       transform="translate(-170,-112)" />
    <path
       id="ID0.9429560336284339"
       fill="#272525"
       d="m 296,131.5 c 0.4,0.9 -3.4,4.9 -6.2,3.3 -0.6,-0.3 -0.7,-1.3 -0.4,-1.9 1.1,-2.2 6.2,-2.3 6.6,-1.4 z"
       transform="translate(-170,-112)" />
    <path
       id="ID0.02572288177907467"
       fill="#ffffff"
       d="m 302.2,138.6 c -0.2,0.3 -1.8,-0.6 -2.2,-0.8 0.4,-0.3 0.7,-0.8 1,-1.2 0.6,0 1.5,1.7 1.2,2 z"
       transform="translate(-170,-112)" />
    <path
       id="ID0.9598483885638416"
       fill="#ffffff"
       d="m 275,138.3 c 0.1,0.4 -0.3,1.6 -0.7,1.5 -0.4,-0.1 -0.7,-1.3 -0.7,-1.3 z"
       transform="translate(-170,-112)" />
    <path
       id="ID0.9700658009387553"
       fill="#ffffff"
       d="m 279.6,140.3 c -0.1,0.6 -1.1,1.4 -1.5,1.3 -0.3,-0.1 0,-1.6 0.4,-1.9 0.2,-0.1 0.8,0.3 1.1,0.6 z"
       transform="translate(-170,-112)" />
    <path
       id="ID0.2985639050602913"
       fill="#ffffff"
       d="m 296.2,141.7 0.7,-0.8 c 0.7,0.8 0.2,1.5 -0.7,0.8 z"
       transform="translate(-170,-112)" />
    <path
       id="ID0.3464352432638407"
       fill="#ffffff"
       d="m 284.3,143.5 c -0.1,0.4 -0.6,1.4 -0.9,1.4 -0.3,0 0,-2.1 0,-2.1 z"
       transform="translate(-170,-112)" />
    <path
       id="ID0.9622204974293709"
       fill="#ffffff"
       d="m 290.8,143.9 c 0.4,0.5 -0.2,2.2 -0.4,2.3 -0.2,0.1 -1.1,-1.6 -1,-2 0.2,-0.2 1.1,-0.3 1.4,-0.3 z"
       transform="translate(-170,-112)" />
    <path
       id="ID0.6927216434851289"
       fill="#ffffff"
       d="m 271.8,145.4 -1.3,-1.1 c 0,0 1.2,-0.6 1.5,-0.4 0.2,0.2 -0.2,1.1 -0.2,1.5 z"
       transform="translate(-170,-112)" />
    <path
       id="ID0.44088502461090684"
       fill="#ffffff"
       d="m 276.2,147.1 -1.2,-0.2 c 0.1,-0.4 0.4,-1.2 0.7,-1.2 0.4,0.1 0.5,0.8 0.5,1.4 z"
       transform="translate(-170,-112)" />
    <path
       id="ID0.42515296302735806"
       fill="#ffffff"
       d="m 280.5,147.5 c -0.5,0 -1,-0.1 -1.2,-0.1 0.2,-0.5 0.4,-1.6 0.7,-1.6 0.2,0.1 0.4,1.3 0.5,1.7 z"
       transform="translate(-170,-112)" />
    <path
       id="ID0.45101338624954224"
       fill="#272525"
       d="m 284.6,166.1 c 1.1,1.3 2.4,2.8 1.8,4.6 -2,3.6 -6.5,-2.3 -8.8,0.8 -2.2,3.2 -2,8.8 -7.5,8.8 -1,0 -1.1,-0.2 -1.6,-1.1 -0.4,-0.7 -0.4,-2 -0.7,-2.7 7.9,2.1 6.2,-3.9 8.7,-8.4 2.5,0 4.8,0.8 7,1.8 3.9,-1.1 -3.3,-4 -4.5,-4.2 2.8,-3.6 5.6,-1.6 7,-2.1 -0.7,-3.2 -7.2,-3.1 -9.2,-0.4 -2.2,3 -4.5,8.1 -9.3,6.5 -0.3,-1 -0.9,-2.2 -0.4,-3.2 0.8,-0.2 2.1,1 3,1 4.3,0 3.8,-7.3 10.6,-8.5 4.6,-0.8 8.1,3.5 7.6,6.2 -0.5,0.8 -1.9,0.7 -3.7,0.9 z"
       transform="translate(-170,-112)" />
    <path
       id="ID0.4182253391481936"
       fill="#272525"
       d="m 251.4,171.4 c 2.7,-1.7 3.8,-6.5 7.5,-6.4 2.3,0.1 9.8,6.2 7.2,8.1 -0.7,0.5 -3.4,-1.1 -4.2,-1 1.1,1.6 4.6,6.9 2.3,8.6 -0.9,0.7 -5,-0.9 -7.4,-3.9 -5,8.2 -19.2,3.7 -18.5,-7 0.4,-0.5 1.5,-1.3 2.1,-0.9 1.6,9.6 10.5,13.3 16,5.8 2.3,0.2 3.4,2.8 6.4,3.7 0.2,-4.3 -4.7,-5.4 -4.2,-7.7 1.2,-1 4.5,0.9 5.8,0.3 -0.8,-2.5 -3.6,-3.2 -5.1,-3.4 -4.7,-0.8 -5.5,6.8 -9.8,6 -5.4,-1.1 -1.6,-11 0.5,-6.6 0.7,1.4 -1,4.1 1.4,4.4 z"
       transform="translate(-170,-112)" />
    <path
       id="ID0.4272170951589942"
       fill="#272525"
       d="m 222,219.2 c 6.4,1.7 5.9,3.5 7.3,3"
       transform="translate(-170,-112)" />
    <path
       id="ID0.24509998224675655"
       fill="#272525"
       d="m 214.4,191.6 0.9,4"
       transform="translate(-170,-112)" />
    <path
       id="ID0.713473379611969"
       fill="#00a98e"
       d="m 237.9,222.9 1.8,1.2 v -2.8 l -1.8,1.6"
       transform="translate(-170,-112)" />
    <g
       id="ID0.17230367893353105">
      <path
         id="ID0.4412895990535617"
         fill="#00a98e"
         d="m 239.7,224.1 -4.3,-21.6 c 0,0 0.9,-5 5.7,-5.6 4.8,-0.6 8.3,-0.8 11.1,2.3 2.8,3.1 5.1,5.9 4.8,10.2 -0.2,4.3 -1.8,7.7 0.1,9.8 1.9,2.1 5.2,7 6.4,4.4 1.2,-2.6 2.5,-6.8 5.1,-7.7 2.6,-0.9 4.6,-1.3 3.9,0.1 -0.7,1.4 -4.1,5 -2.1,4.3 2,-0.7 6.9,0.2 6.9,0.2 l -3.3,4.3 c 0,0 3.6,-0.2 3.3,2.6 -0.3,2.8 1,1.6 -3.7,3.7 -4.7,2 -6.5,5.7 -9.1,5.9 -2.5,0.3 -6.7,-4.5 -9.8,-4.8 -3.1,-0.3 -7.7,1.4 -9.3,-0.2 -1.6,-1.7 -5.7,-7.9 -5.7,-7.9 z"
         transform="translate(-170,-112)" />
      <path
         id="ID0.4150444669649005"
         fill="#272525"
         d="m 276.1,224.3 c 0.8,-0.8 1.7,-1.7 2.4,-2.6 1.6,-2 -3.5,-3.7 -6.1,-2.9 0.3,-1.4 1.4,-2.5 1.3,-4 -3.6,-3.7 -9.4,4.1 -10.5,7.1 h -0.4 c -7.9,-1.6 -3.8,-10.9 -4.8,-16.2 -2,-10.8 -14.8,-14.7 -21.7,-5.6 -0.6,0.8 -0.8,1.7 -1.3,2.5 h 0.7 c 2.3,-2.8 4.7,-4.1 8.3,-4.6 4.9,-0.7 8.4,2.1 10.9,6 3.1,5 0,10.5 1.1,15.8 0.7,3.2 4.8,5 7.7,5.5 2.6,-1.7 1.9,-8.7 7.8,-8.3 -1,1.6 -2,3.2 -2.1,5.1 0,0 4.3,-1.9 6.8,-0.7 -1.7,1.1 -3.5,3.2 -4.2,5.1 3.3,-1 5.7,1.6 5,2.6 -2.1,-0.4 -2.9,0.8 -4.4,0.8 -4.5,0.1 -6.5,6.5 -10.7,5.8 -1.2,-0.2 -2.4,-1.5 -3.3,-2.3 -3.7,-3.3 -6.2,-1.9 -10.7,-1.9 -2.3,0 -3.7,-1.7 -4.8,-3.5 0,-0.1 0,-0.2 -0.1,-0.3 -1.3,-2.8 -1.7,-5.8 -1.1,-8.8 0.3,-1.3 -1.7,-1.8 -1.9,-0.5 -0.4,1.8 -0.5,3.6 -0.2,5.4 -4.4,-2.8 -14.2,-4.5 -18.4,-4.5 -1.3,0 5,2.9 6.3,2.9 4.3,0 9.4,0 12.3,3.1 0.1,0.1 0.1,0.1 0.2,0.2 0.1,0.4 0.2,0.8 0.4,1.2 0.3,1.1 0.8,2.2 1,2.9 l 2.7,2.6 c 3.1,2.7 6.5,1.7 9.4,1.8 2.8,0.1 4.6,3.1 7,4 3.9,1.5 6.8,-2.2 9.3,-4.5 2.5,-2.3 6.2,-0.5 9.3,-3.3 0,-2.8 -0.1,-3.7 -3.2,-5.9 z"
         transform="translate(-170,-112)" />
    </g>
    <g
       id="ID0.5704037290997803">
      <path
         id="ID0.1321028033271432"
         fill="#00a98e"
         d="m 234.8,216 c -5.7,1.5 -14.7,3.5 -20.5,2.8 -6.1,-0.8 -7.6,-6 -11.1,-10.9 -3.7,-5.2 -11,-10.1 -15.6,-5.5 -4.4,4.4 -9.2,10.1 -14.3,6.7 2.2,-1.1 1.9,-1.5 3.8,-3.7 1.9,-2.2 1.8,-12.7 2.9,-15.1 1.3,-2.9 5.2,-4.7 8.3,-5.7 5.2,-1.8 8.9,-3.2 13.5,-0.2 5.2,3.5 7.3,7.2 13.6,8.8"
         transform="translate(-170,-112)" />
      <path
         id="ID0.29223025077953935"
         fill="#272525"
         d="m 229.3,220.7 c -1.5,0.2 -0.8,0 -1.5,0.2 -3.8,1.3 -8.1,0.3 -12.2,-0.2 -5.2,-0.5 -8.4,-4.6 -10.7,-8.9 -4.7,-9 -10,-9.7 -13.4,-9.1 -6,1 -10,16.6 -21.3,5 1.9,-1.1 3.6,-0.4 4.5,-0.7 4.4,-1.7 0.7,-14.5 6.9,-19.8 7.4,-6.4 18.6,-8.7 25.1,-1.2 2.2,2.5 4.9,3.6 7.6,5.7 l 0.9,4 c -5.7,-2.2 -9.6,-10.6 -16.5,-11 -6.3,-0.4 -11.8,1.9 -15.7,6.7 -3.5,4.4 -1.9,7.8 -3.2,12.6 -0.6,2.5 -2.3,4 -3.9,4.7 9,1 9.6,-9.1 15.5,-10.1 14.4,-2.3 11.7,15.1 22.7,18"
         transform="translate(-170,-112)" />
    </g>
    <path
       id="ID0.30155676743015647"
       fill="#272525"
       d="m 269.7,122.6 h -0.1 c -2.7,-4.1 -10.7,-10.6 -14.5,-2.4 -1.1,2.4 0.4,4.6 1.8,5.9 -4.3,1.5 -8.8,6.3 -9.2,10.9 -0.4,4.7 3.3,9.5 -1,13.5 -4.2,3.9 -10.2,5.4 -14.8,8.7 -14.4,10.3 -18.6,28.2 -10,43.6 -1.7,0.2 -4.7,-3.9 -5,-4.5 -3,-5.5 -3.5,-12.4 -2.4,-18.5 4,-21.7 31.7,-24.9 31.2,-36.1 -0.2,-5.4 -2.5,-8.9 1.5,-13.8 1.8,-2.2 3.7,-2.8 5.9,-4.4 -2.4,-4.1 0,-11.3 5,-12.3 6.8,-1.4 10.3,4.1 11.8,7.9 0.9,0 2.2,0.1 2.8,0.1 0,-2.5 -0.4,-5.3 2.2,-6.7 2.4,-1.3 5.4,-0.2 7.2,1.6 l -0.2,0.7 c -0.7,-0.1 -3.7,-2.3 -5.8,-1 -2.1,1.3 -1.2,5.9 -1.1,7 -1.5,-0.3 -4.8,-0.2 -5.3,-0.2 z"
       transform="translate(-170,-112)" />
  </g>
</svg>
