<svg version="1.1" width="234" height="159" xmlns="http://www.w3.org/2000/svg" xmlns:xlink="http://www.w3.org/1999/xlink">
  <!-- Exported by Scratch - http://scratch.mit.edu/ -->
  <g id="ID0.4247132698073983" transform="matrix(0.9975000023841858, 0, 0, 0.9975000023841858, 0.25, 0.05)">
    <g id="Back_Leg">
      <path id="Fill_5_" fill="#96C93D" d="M 141.820 136.094 C 141.658 141.216 142.457 146.003 139.645 150.377 C 138.565 152.064 137.498 153.765 136.319 155.385 C 135.923 155.928 131.227 161.626 133.577 162.085 C 136.307 162.616 139.145 162.116 141.908 162.404 C 144.343 162.660 145.117 163.015 147.520 163.472 C 153.785 164.660 160.116 166.155 166.498 165.357 C 165.013 164.416 163.314 163.553 161.964 162.824 C 161.146 162.383 161.071 161.409 162.037 161.228 C 164.251 160.816 166.600 161.155 168.688 160.320 C 166.579 159.309 163.972 158.577 161.725 158.438 C 160.674 158.375 160.258 157.825 161.262 157.261 C 163.394 156.066 165.655 155.366 167.931 154.611 C 162.454 153.647 156.257 154.132 150.812 154.683 C 149.668 155.115 148.398 153.594 149.434 152.544 C 154.751 147.166 162.334 141.898 164.313 134.183 C 165.458 129.724 164.245 124.923 159.788 122.710 C 155.393 120.527 150.722 120.999 146.168 122.384 C 145.888 122.469 145.677 122.373 145.550 122.207 C 144.440 123.532 141.066 128.116 140.924 135.021 C 141.414 135.104 141.841 135.458 141.820 136.094 L 141.820 136.094 L 141.820 136.094 L 141.820 136.094 Z " transform="matrix(0.8573749661445618, 0, 0, 0.8573749661445618, 0.25, 0)"/>
      <path id="Outline_7_" d="M 139.491 138.739 C 139.467 139.214 139.430 139.679 139.389 140.138 L 139.389 140.153 L 139.388 140.153 C 138.926 145.335 137.401 149.632 134.186 154.132 C 132.910 155.917 127.639 161.763 131.524 163.882 C 133.140 164.763 134.925 164.786 136.731 164.780 C 140.738 164.769 142.907 165.151 146.859 165.875 C 154.020 167.184 160.965 168.771 168.250 167.384 C 169.057 167.230 169.756 165.852 169.120 165.320 C 167.941 164.334 166.617 163.468 165.261 162.667 C 166.882 162.406 168.161 162.190 169.942 161.343 C 170.704 160.980 170.640 159.788 169.942 159.407 C 168.231 158.476 166.476 157.825 164.630 157.452 C 166.779 156.943 168.471 156.666 170.732 155.776 C 171.602 155.435 171.789 154.087 170.732 153.822 C 164.998 152.389 159.424 151.816 153.589 152.215 C 154.654 151.236 155.771 150.212 156.888 149.151 C 157.621 148.413 163.528 142.389 165.692 137.788 C 166.677 135.429 167.141 132.921 166.771 130.247 C 165.633 122.006 158.122 119.022 150.886 119.911 C 149.158 120.123 147.446 120.553 145.840 121.188 C 145.372 121.374 145.321 121.910 145.551 122.209 C 145.678 122.375 145.889 122.471 146.169 122.386 C 150.723 121.001 155.395 120.530 159.789 122.712 C 164.246 124.925 165.459 129.726 164.314 134.185 C 162.335 141.900 154.752 147.168 149.435 152.546 C 148.399 153.596 149.669 155.116 150.813 154.685 C 156.258 154.133 162.456 153.649 167.932 154.613 C 165.656 155.369 163.395 156.068 161.263 157.263 C 160.259 157.826 160.675 158.376 161.726 158.440 C 163.973 158.579 166.580 159.311 168.689 160.322 C 166.601 161.157 164.251 160.818 162.038 161.230 C 161.072 161.411 161.146 162.384 161.965 162.826 C 163.316 163.555 165.014 164.418 166.499 165.359 C 160.117 166.157 153.786 164.663 147.521 163.474 C 145.118 163.017 144.343 162.662 141.909 162.406 C 139.146 162.118 136.308 162.618 133.578 162.087 C 131.228 161.628 135.923 155.930 136.320 155.387 C 137.499 153.767 138.566 152.066 139.646 150.379 C 142.458 146.005 141.659 141.218 141.821 136.096 C 141.842 135.460 141.415 135.107 140.925 135.025 C 140.473 134.948 139.971 135.100 139.715 135.494 C 139.629 135.420 139.514 137.602 139.490 138.430 C 139.484 138.616 139.484 138.734 139.491 138.739 L 139.491 138.739 L 139.491 138.739 L 139.491 138.739 Z " transform="matrix(0.8573749661445618, 0, 0, 0.8573749661445618, 0.25, 0)"/>
    </g>
    <g id="Tail">
      <path id="Fill_4_" fill="#96C93D" d="M 107.778 146.653 C 112.551 135.039 105.215 123.738 105.215 123.738 L 105.215 123.738 C 88.233 116.702 71.993 108.008 55.310 100.288 C 39.205 92.834 23.163 84.742 6.758 77.861 C 22.901 89.084 39.493 99.738 55.763 110.761 C 67.234 118.532 78.777 126.218 90.162 134.115 C 96.022 138.181 102.245 142.090 107.778 146.653 L 107.778 146.653 L 107.778 146.653 L 107.778 146.653 L 107.778 146.653 Z " transform="matrix(0.8573749661445618, 0, 0, 0.8573749661445618, 0.25, 0)"/>
      <path id="Outline_6_" d="M 107.778 146.653 C 102.244 142.090 96.022 138.180 90.162 134.115 C 78.776 126.219 67.233 118.533 55.763 110.761 C 39.493 99.738 22.900 89.084 6.758 77.861 C 23.163 84.742 39.205 92.834 55.311 100.288 C 71.994 108.008 88.234 116.702 105.216 123.738 L 105.886 120.096 C 89.412 112.046 72.428 104.892 55.742 97.310 C 37.858 89.184 19.808 79.646 0.977 73.855 C 0.888 73.826 0.800 73.816 0.713 73.826 C 0.433 73.831 0.234 73.993 0.134 74.219 C -0.045 74.506 -0.074 74.877 0.231 75.128 C 16.913 88.846 35.584 100.405 53.364 112.612 C 70.835 124.603 89.791 137.381 106.829 150.216 L 107.778 146.653 L 107.778 146.653 L 107.778 146.653 L 107.778 146.653 Z " transform="matrix(0.8573749661445618, 0, 0, 0.8573749661445618, 0.25, 0)"/>
    </g>
    <g id="Back_Arm">
      <path id="Fill_1_" fill="#96C93D" d="M 178.890 88.887 C 177.572 92.876 176.961 99.472 182.379 102.307 C 182.590 102.419 182.724 102.552 182.820 102.692 C 193.161 99.935 203.815 102.366 213.193 108.871 C 213.761 106.533 212.895 104.555 210.019 102.905 C 209.600 102.664 209.623 102.112 210.040 101.971 C 212.501 101.132 214.720 100.891 217.313 101.523 C 216.132 99.200 213.410 97.577 210.875 96.297 C 210.253 95.985 210.472 95.342 210.901 95.127 C 212.213 94.455 213.798 94.028 215.416 93.762 C 206.300 89.530 195.929 90.917 188.540 95.456 C 188.219 95.650 187.853 95.557 187.606 95.355 C 187.555 95.329 187.503 95.318 187.448 95.278 C 184.524 93.265 184.886 89.178 185.423 86.669 C 182.413 81.686 178.147 88.197 178.146 88.201 C 178.546 88.160 179.032 88.461 178.890 88.887 L 178.890 88.887 L 178.890 88.887 L 178.890 88.887 Z " transform="matrix(0.8573749661445618, 0, 0, 0.8573749661445618, 0.25, 0)"/>
      <path id="Outline_3_" fill="#231F20" d="M 177.737 88.484 C 175.694 93.176 174.643 100.301 181.105 103.936 C 181.185 103.986 181.271 103.998 181.356 104.028 C 181.551 104.180 181.826 104.272 182.111 104.202 C 186.250 103.228 190.105 102.923 193.838 103.261 C 193.838 103.261 196.275 103.496 197.778 103.860 C 202.735 104.933 207.553 107.168 212.574 110.499 C 213.310 110.984 213.983 110.559 214.043 109.996 C 214.056 109.976 214.071 109.974 214.081 109.947 C 215.128 107.165 214.374 104.689 211.659 102.707 C 213.790 102.152 215.739 102.141 218.221 103.018 C 218.755 103.207 219.232 102.839 219.112 102.384 C 218.361 99.580 215.755 97.519 212.957 95.911 C 214.549 95.379 216.343 95.114 218.086 95.014 C 218.948 95.067 219.502 94.088 218.580 93.514 C 215.125 91.375 211.172 90.185 207.163 89.772 C 206.761 89.728 203.652 89.605 203.652 89.605 C 197.972 89.657 192.459 91.230 188.376 93.935 C 186.219 92.359 186.220 88.866 186.331 86.877 C 186.332 86.813 186.316 86.758 186.293 86.708 C 186.127 86.401 185.504 86.304 185.427 86.667 C 184.884 89.173 184.527 93.262 187.452 95.278 C 187.509 95.317 187.560 95.330 187.611 95.355 C 187.857 95.554 188.223 95.646 188.544 95.455 C 195.932 90.917 206.304 89.527 215.421 93.762 C 213.806 94.029 212.219 94.451 210.905 95.127 C 210.478 95.341 210.261 95.985 210.880 96.296 C 213.417 97.576 216.140 99.198 217.320 101.524 C 214.734 100.893 212.509 101.134 210.047 101.971 C 209.630 102.112 209.603 102.662 210.025 102.905 C 212.902 104.556 213.768 106.533 213.199 108.870 C 203.814 102.364 193.169 99.933 182.826 102.691 C 182.729 102.550 182.597 102.419 182.386 102.307 C 176.969 99.472 177.572 92.875 178.896 88.887 C 179.039 88.463 178.552 88.162 178.158 88.209 L 178.158 88.209 C 177.974 88.226 177.817 88.306 177.737 88.484 L 177.737 88.484 L 177.737 88.484 L 177.737 88.484 Z " transform="matrix(0.8573749661445618, 0, 0, 0.8573749661445618, 0.25, 0)"/>
    </g>
    <g id="Teeth">
      <g id="Tooth_6_">
        <path id="ID0.17694995738565922" fill="#FFFFFF" d="M 251.208 31.871 C 250.938 31.871 250.679 31.762 250.489 31.567 L 251.208 30.871 L 250.454 31.531 C 249.949 31.006 249.616 30.468 249.323 29.992 L 249.210 29.810 C 248.816 29.176 248.462 28.485 248.154 27.754 C 248.027 27.452 248.056 27.108 248.231 26.831 C 248.407 26.555 248.706 26.381 249.033 26.368 C 250.607 26.301 252.008 26.201 253.316 26.064 C 253.351 26.061 253.386 26.059 253.420 26.059 C 253.766 26.059 254.090 26.238 254.274 26.537 C 254.475 26.866 254.469 27.282 254.258 27.605 C 253.946 28.085 253.673 28.610 253.386 29.166 C 252.981 29.948 252.562 30.757 251.997 31.484 C 251.820 31.713 251.552 31.854 251.262 31.870 C 251.245 31.871 251.227 31.871 251.208 31.871 L 251.208 31.871 L 251.208 31.871 L 251.208 31.871 L 251.208 31.871 Z " transform="matrix(0.8573749661445618, 0, 0, 0.8573749661445618, 0.25, 0)"/>
        <path id="ID0.7231707707978785" d="M 253.421 27.059 C 252.625 28.281 252.095 29.727 251.208 30.871 C 251.178 30.840 251.146 30.809 251.114 30.776 C 250.694 30.338 250.379 29.795 250.058 29.281 C 249.682 28.676 249.355 28.031 249.076 27.367 C 250.541 27.305 251.989 27.209 253.421 27.059 M 253.421 25.059 C 253.352 25.059 253.282 25.062 253.212 25.070 C 251.925 25.205 250.544 25.303 248.991 25.370 C 248.337 25.398 247.737 25.744 247.387 26.297 C 247.037 26.850 246.979 27.540 247.233 28.143 C 247.561 28.922 247.940 29.660 248.360 30.337 L 248.473 30.519 C 248.792 31.036 249.155 31.622 249.670 32.160 L 249.747 32.239 C 250.126 32.630 250.657 32.860 251.200 32.860 C 251.235 32.860 251.270 32.859 251.306 32.857 C 251.884 32.825 252.433 32.555 252.788 32.097 C 253.407 31.297 253.848 30.448 254.273 29.626 C 254.549 29.093 254.810 28.589 255.095 28.151 C 255.516 27.505 255.528 26.673 255.125 26.015 C 254.761 25.417 254.112 25.059 253.421 25.059 L 253.421 25.059 L 253.421 27.059 L 253.421 27.059 L 253.421 27.059 Z " transform="matrix(0.8573749661445618, 0, 0, 0.8573749661445618, 0.25, 0)"/>
      </g>
      <g id="Tooth_5_">
        <path id="ID0.3461822741664946" fill="#FFFFFF" d="M 223.347 36.627 C 223.181 36.627 223.014 36.585 222.863 36.502 C 222.401 36.247 221.999 35.944 221.609 35.652 L 220.582 34.881 C 220.363 34.719 220.220 34.475 220.186 34.206 C 220.151 33.936 220.227 33.664 220.397 33.452 C 220.869 32.864 221.412 32.296 222.009 31.764 C 222.195 31.599 222.432 31.512 222.673 31.512 C 222.767 31.512 222.861 31.525 222.952 31.552 C 223.282 31.648 223.540 31.907 223.635 32.238 C 223.906 33.191 224.202 34.326 224.341 35.511 C 224.385 35.883 224.216 36.248 223.904 36.457 C 223.735 36.570 223.541 36.627 223.347 36.627 L 223.347 36.627 L 223.347 36.627 L 223.347 36.627 L 223.347 36.627 Z " transform="matrix(0.8573749661445618, 0, 0, 0.8573749661445618, 0.25, 0)"/>
        <path id="ID0.6845668721944094" d="M 222.672 32.512 C 222.965 33.540 223.223 34.565 223.347 35.627 C 222.916 35.389 222.521 35.086 222.128 34.792 C 221.812 34.557 221.494 34.313 221.176 34.077 C 221.626 33.516 222.129 32.994 222.672 32.512 M 222.672 30.512 C 222.189 30.512 221.714 30.687 221.344 31.017 C 220.704 31.585 220.122 32.194 219.615 32.827 C 219.275 33.251 219.122 33.796 219.192 34.336 C 219.262 34.876 219.549 35.363 219.987 35.687 C 220.154 35.811 220.320 35.937 220.487 36.062 L 220.934 36.398 L 221.007 36.454 C 221.404 36.752 221.856 37.090 222.377 37.379 C 222.680 37.546 223.013 37.629 223.346 37.629 C 223.736 37.629 224.124 37.515 224.460 37.290 C 225.082 36.872 225.419 36.142 225.332 35.397 C 225.186 34.141 224.877 32.958 224.595 31.966 C 224.407 31.304 223.891 30.786 223.231 30.593 C 223.047 30.538 222.858 30.512 222.672 30.512 L 222.672 30.512 L 222.672 32.512 L 222.672 32.512 L 222.672 32.512 Z " transform="matrix(0.8573749661445618, 0, 0, 0.8573749661445618, 0.25, 0)"/>
      </g>
      <g id="Tooth_4_">
        <path id="ID0.06560678733512759" fill="#FFFFFF" d="M 240.763 32.407 C 240.447 32.387 240.159 32.219 239.986 31.952 C 239.945 31.888 239.906 31.822 239.873 31.764 C 239.538 31.233 239.311 30.729 239.092 30.242 C 238.754 29.492 238.461 28.768 238.170 28.045 C 238.050 27.745 238.081 27.406 238.255 27.134 C 238.428 26.862 238.723 26.690 239.045 26.673 C 240.278 26.608 241.518 26.565 242.764 26.534 C 242.772 26.534 242.781 26.534 242.788 26.534 C 243.107 26.534 243.408 26.686 243.597 26.945 C 243.790 27.211 243.841 27.554 243.733 27.864 C 243.274 29.176 242.617 30.837 241.591 32.053 C 241.401 32.279 241.120 32.408 240.826 32.408 C 240.825 32.409 240.783 32.409 240.763 32.407 L 240.763 32.407 L 240.763 32.407 L 240.763 32.407 Z " transform="matrix(0.8573749661445618, 0, 0, 0.8573749661445618, 0.25, 0)"/>
        <path id="ID0.7078851307742298" d="M 242.787 27.534 C 242.305 28.914 241.697 30.374 240.825 31.409 C 240.771 31.326 240.724 31.240 240.689 31.183 C 240.412 30.745 240.197 30.263 239.984 29.790 C 239.671 29.093 239.382 28.382 239.096 27.671 C 240.320 27.607 241.551 27.564 242.787 27.534 M 242.787 25.534 C 242.770 25.534 242.755 25.534 242.738 25.534 C 241.366 25.568 240.140 25.614 238.991 25.674 C 238.346 25.708 237.758 26.051 237.410 26.595 C 237.063 27.139 237 27.818 237.241 28.417 C 237.553 29.193 237.838 29.893 238.160 30.610 C 238.402 31.147 238.655 31.708 239 32.253 C 239.049 32.337 239.096 32.417 239.146 32.494 C 239.490 33.026 240.066 33.364 240.699 33.404 C 240.741 33.406 240.783 33.408 240.825 33.408 C 241.413 33.408 241.973 33.149 242.354 32.697 C 243.484 31.356 244.188 29.586 244.674 28.194 C 244.891 27.574 244.789 26.887 244.403 26.357 C 244.026 25.839 243.426 25.534 242.787 25.534 L 242.787 25.534 L 242.787 27.534 L 242.787 27.534 L 242.787 27.534 Z " transform="matrix(0.8573749661445618, 0, 0, 0.8573749661445618, 0.25, 0)"/>
      </g>
      <g id="Tooth_3_">
        <path id="ID0.896744784899056" fill="#FFFFFF" d="M 232.119 32.238 C 231.971 32.238 231.821 32.205 231.683 32.138 C 231.606 32.100 231.531 32.058 231.472 32.024 C 230.814 31.682 230.262 31.233 229.777 30.837 C 229.395 30.522 229.029 30.198 228.665 29.875 C 228.393 29.634 228.269 29.262 228.349 28.906 C 228.428 28.551 228.692 28.265 229.040 28.162 C 229.978 27.886 230.990 27.651 232.227 27.422 C 232.288 27.411 232.348 27.405 232.409 27.405 C 232.659 27.405 232.902 27.499 233.089 27.672 C 233.321 27.887 233.438 28.199 233.403 28.513 C 233.365 28.863 233.343 29.221 233.323 29.568 C 233.280 30.271 233.240 30.936 233.085 31.502 C 233.006 31.788 232.805 32.025 232.534 32.148 C 232.401 32.208 232.260 32.238 232.119 32.238 L 232.119 32.238 L 232.119 32.238 L 232.119 32.238 L 232.119 32.238 Z " transform="matrix(0.8573749661445618, 0, 0, 0.8573749661445618, 0.25, 0)"/>
        <path id="ID0.10462514078244567" d="M 232.408 28.406 C 232.298 29.426 232.318 30.511 232.119 31.238 C 232.032 31.196 231.951 31.144 231.912 31.125 C 231.369 30.844 230.881 30.447 230.408 30.063 C 230.040 29.758 229.680 29.440 229.322 29.123 C 230.331 28.825 231.363 28.600 232.408 28.406 M 232.408 26.406 C 232.287 26.406 232.165 26.417 232.044 26.439 C 230.773 26.674 229.730 26.917 228.758 27.203 C 228.060 27.408 227.529 27.976 227.370 28.686 C 227.211 29.396 227.452 30.136 227.996 30.618 C 228.375 30.953 228.750 31.285 229.133 31.602 C 229.669 32.039 230.263 32.521 230.992 32.899 C 231.049 32.933 231.147 32.988 231.249 33.037 C 231.523 33.170 231.821 33.236 232.119 33.236 C 232.401 33.236 232.683 33.176 232.946 33.057 C 233.487 32.811 233.890 32.338 234.048 31.765 C 234.231 31.098 234.277 30.351 234.320 29.627 C 234.341 29.295 234.360 28.953 234.396 28.619 C 234.464 27.991 234.231 27.367 233.768 26.937 C 233.396 26.594 232.908 26.406 232.408 26.406 L 232.408 26.406 L 232.408 28.406 L 232.408 28.406 L 232.408 28.406 Z " transform="matrix(0.8573749661445618, 0, 0, 0.8573749661445618, 0.25, 0)"/>
      </g>
      <g id="Tooth_2_">
        <path id="ID0.4969696132466197" fill="#FFFFFF" d="M 235.204 61.842 C 234.113 61.829 233.058 61.733 232.071 61.556 C 231.726 61.494 231.439 61.256 231.314 60.930 C 231.189 60.604 231.244 60.235 231.459 59.958 C 231.768 59.561 232.043 59.110 232.335 58.634 C 232.801 57.872 233.283 57.084 233.962 56.420 C 234.154 56.208 234.430 56.085 234.714 56.085 C 234.764 56.085 234.815 56.089 234.865 56.097 C 235.221 56.153 235.526 56.390 235.652 56.729 C 235.835 57.221 235.902 57.722 235.962 58.163 L 236.004 58.467 C 236.080 58.980 236.118 59.501 236.155 60.022 C 236.173 60.266 236.189 60.510 236.212 60.753 C 236.237 61.035 236.143 61.314 235.950 61.522 C 235.761 61.727 235.494 61.843 235.216 61.843 C 235.216 61.842 235.208 61.842 235.204 61.842 L 235.204 61.842 L 235.204 61.842 L 235.204 61.842 Z " transform="matrix(0.8573749661445618, 0, 0, 0.8573749661445618, 0.25, 0)"/>
        <path id="ID0.03902015741914511" d="M 234.715 57.076 C 234.897 57.564 234.939 58.103 235.015 58.613 C 235.123 59.345 235.149 60.097 235.216 60.842 C 234.196 60.830 233.205 60.743 232.248 60.571 C 233.105 59.468 233.680 58.083 234.683 57.113 C 234.697 57.100 234.703 57.090 234.715 57.076 M 234.715 55.076 C 234.148 55.076 233.602 55.317 233.219 55.749 C 232.463 56.507 231.944 57.357 231.482 58.111 C 231.206 58.563 230.945 58.990 230.670 59.343 C 230.240 59.895 230.131 60.633 230.382 61.286 C 230.632 61.940 231.206 62.415 231.896 62.539 C 232.938 62.726 234.047 62.828 235.194 62.841 C 235.202 62.841 235.210 62.841 235.217 62.841 C 235.775 62.841 236.307 62.608 236.686 62.198 C 237.070 61.782 237.260 61.224 237.209 60.660 C 237.188 60.423 237.170 60.185 237.153 59.948 C 237.116 59.424 237.077 58.881 236.994 58.319 L 236.953 58.027 C 236.891 57.558 236.812 56.974 236.590 56.377 C 236.344 55.713 235.764 55.230 235.067 55.106 C 234.948 55.086 234.831 55.076 234.715 55.076 L 234.715 55.076 L 234.715 57.076 L 234.715 57.076 L 234.715 57.076 Z " transform="matrix(0.8573749661445618, 0, 0, 0.8573749661445618, 0.25, 0)"/>
      </g>
      <g id="Tooth_1_">
        <path id="ID0.8049523672088981" fill="#FFFFFF" d="M 221.685 55.352 C 221.388 55.352 221.103 55.220 220.911 54.985 C 220.232 54.155 219.626 53.265 219.108 52.340 C 218.856 51.889 218.989 51.319 219.416 51.027 C 220.037 50.601 220.805 50.332 221.763 50.205 C 222.116 50.157 222.496 50.135 222.959 50.135 C 223.088 50.135 223.214 50.148 223.341 50.162 C 223.641 50.197 223.929 50.368 224.090 50.622 C 224.251 50.877 224.310 51.193 224.213 51.479 C 224.063 51.926 223.782 52.374 223.557 52.732 C 223.463 52.881 223.375 53.017 223.318 53.130 C 223.004 53.739 222.786 54.230 222.631 54.676 C 222.513 55.019 222.219 55.271 221.861 55.335 C 221.802 55.347 221.743 55.352 221.685 55.352 L 221.685 55.352 L 221.685 55.352 L 221.685 55.352 L 221.685 55.352 Z " transform="matrix(0.8573749661445618, 0, 0, 0.8573749661445618, 0.25, 0)"/>
        <path id="ID0.9668038636445999" d="M 222.958 51.135 C 223.062 51.135 223.162 51.149 223.265 51.160 C 223.091 51.676 222.623 52.292 222.427 52.674 C 222.152 53.207 221.884 53.774 221.685 54.352 C 221.039 53.563 220.469 52.725 219.981 51.852 C 220.544 51.465 221.222 51.286 221.893 51.197 C 222.246 51.148 222.603 51.135 222.958 51.135 M 222.958 49.135 C 222.449 49.135 222.025 49.160 221.624 49.215 C 220.513 49.362 219.603 49.686 218.849 50.203 C 217.996 50.788 217.731 51.926 218.236 52.828 C 218.782 53.805 219.422 54.744 220.137 55.619 C 220.521 56.088 221.091 56.352 221.685 56.352 C 221.802 56.352 221.919 56.342 222.037 56.321 C 222.751 56.194 223.340 55.689 223.576 55.004 C 223.714 54.605 223.914 54.156 224.205 53.593 C 224.254 53.497 224.327 53.387 224.403 53.266 C 224.656 52.862 224.972 52.360 225.161 51.800 C 225.353 51.228 225.277 50.599 224.954 50.089 C 224.630 49.579 224.093 49.243 223.493 49.174 C 223.290 49.149 223.126 49.135 222.958 49.135 L 222.958 49.135 L 222.958 51.135 L 222.958 51.135 L 222.958 51.135 Z " transform="matrix(0.8573749661445618, 0, 0, 0.8573749661445618, 0.25, 0)"/>
      </g>
      <g id="Tooth">
        <path id="ID0.2617056421004236" fill="#FFFFFF" d="M 228.593 60.486 C 228.462 60.486 228.331 60.461 228.207 60.409 C 226.635 59.752 225.157 58.882 223.815 57.822 C 223.564 57.624 223.423 57.318 223.436 56.998 C 223.449 56.678 223.613 56.384 223.878 56.206 C 224.256 55.953 224.636 55.681 225.019 55.406 C 226.087 54.640 227.193 53.849 228.404 53.338 C 228.529 53.285 228.661 53.259 228.793 53.259 C 228.981 53.259 229.168 53.312 229.331 53.416 C 229.609 53.593 229.781 53.896 229.792 54.225 L 229.809 54.587 C 229.822 55.224 229.789 55.856 229.757 56.468 C 229.736 56.889 229.706 57.251 229.674 57.614 C 229.618 58.255 229.567 58.860 229.592 59.441 C 229.607 59.783 229.446 60.109 229.165 60.305 C 228.995 60.425 228.795 60.486 228.593 60.486 L 228.593 60.486 L 228.593 60.486 L 228.593 60.486 L 228.593 60.486 Z " transform="matrix(0.8573749661445618, 0, 0, 0.8573749661445618, 0.25, 0)"/>
        <path id="ID0.046727840323001146" d="M 228.793 54.260 C 228.797 54.375 228.807 54.490 228.809 54.606 C 228.822 55.233 228.788 55.862 228.755 56.488 C 228.708 57.466 228.549 58.493 228.593 59.487 C 227.073 58.852 225.682 58.022 224.436 57.038 C 225.838 56.098 227.264 54.905 228.793 54.260 M 228.793 52.260 C 228.529 52.260 228.265 52.312 228.016 52.417 C 226.703 52.972 225.551 53.796 224.437 54.594 C 224.063 54.863 223.692 55.128 223.323 55.376 C 222.792 55.732 222.463 56.320 222.438 56.959 C 222.413 57.598 222.695 58.210 223.197 58.606 C 224.610 59.723 226.166 60.639 227.823 61.332 C 228.070 61.436 228.333 61.486 228.594 61.486 C 228.997 61.486 229.398 61.364 229.740 61.126 C 230.301 60.734 230.623 60.082 230.593 59.398 C 230.571 58.883 230.620 58.310 230.672 57.702 C 230.705 57.325 230.737 56.951 230.755 56.583 L 230.758 56.521 C 230.790 55.892 230.824 55.241 230.811 54.565 C 230.809 54.480 230.804 54.388 230.799 54.297 L 230.794 54.192 C 230.772 53.534 230.427 52.929 229.872 52.575 C 229.544 52.366 229.169 52.260 228.793 52.260 L 228.793 52.260 L 228.793 54.260 L 228.793 54.260 L 228.793 54.260 Z " transform="matrix(0.8573749661445618, 0, 0, 0.8573749661445618, 0.25, 0)"/>
      </g>
    </g>
    <g id="Body">
      <path id="Fill_3_" fill="#96C93D" d="M 238.723 8.866 C 238.723 8.866 227.088 12.059 222.797 12.309 C 218.506 12.559 210.135 13.463 206.070 16.053 C 203.068 17.600 200.992 20.301 200.768 24.781 C 200.539 29.376 202.598 35.069 202.500 39.586 C 202.222 52.230 193.029 64.689 184.730 73.542 C 181.148 77.365 177.136 81.620 171.637 81.638 C 162.920 81.665 153.317 80.773 144.816 82.866 C 126.757 87.309 108.766 100.008 107.179 119.972 L 103.922 122.644 C 103.922 122.644 100.765 158.386 137.468 151.265 L 138.406 149.673 C 149.528 143.745 159.089 136.585 166.325 125.734 C 168.955 121.790 171.100 117.599 173.169 113.374 C 173.242 113.229 174.138 111.476 175.373 109.097 L 178.987 102.242 C 180.399 99.616 181.724 97.233 182.513 96.013 C 183.218 94.968 183.953 93.939 184.739 92.937 C 192.184 83.439 200.900 69.839 212.622 66.232 C 220.687 63.748 230.198 68.209 236.706 63.294 C 231.764 64.266 227.018 61.930 223.091 58.928 C 217.118 54.362 215.155 47.293 216.006 40.041 C 217.390 28.227 230.041 26.780 239.923 26.371 C 242.117 26.280 244.522 26.243 246.972 26.126 C 247.149 26.086 247.331 26.077 247.510 26.100 C 257.405 25.575 267.864 23.563 268.288 11.129 C 268.779 -3.322 246.880 5.004 238.723 8.866 L 238.723 8.866 L 238.723 8.866 L 238.723 8.866 Z " transform="matrix(0.8573749661445618, 0, 0, 0.8573749661445618, 0.25, 0)"/>
      <path id="Belly" fill="#FFED00" d="M 131.838 152.202 C 131.838 152.202 112.338 146.308 138.338 135.308 C 164.338 124.308 175.670 92.809 177.504 91.642 C 179.338 90.475 184.813 86.975 186.075 92.975 C 186.075 92.975 176.004 112.642 174.671 115.142 C 173.338 117.642 162.338 135.474 156.838 139.308 C 151.338 143.142 141.172 151.762 131.838 152.202 L 131.838 152.202 L 131.838 152.202 L 131.838 152.202 Z " transform="matrix(0.8573749661445618, 0, 0, 0.8573749661445618, 0.25, 0)"/>
      <path id="Outline_5_" d="M 267.451 2.502 C 259.753 -2.644 245.879 0.938 238.062 6.141 C 236.336 7.206 225.839 10.726 219.005 10.643 C 212.171 10.560 206.563 13.828 206.563 13.828 C 204.277 14.627 202.234 15.951 200.766 18.078 C 197.857 22.294 197.820 27.474 198.453 32.376 C 198.765 34.783 199.432 37.158 199.515 39.586 C 199.638 43.194 199.411 46.901 198.144 50.220 C 195.068 58.273 188.905 65.568 182.998 71.808 C 180.860 74.064 178.443 76.111 175.801 77.742 C 172.675 79.669 167.605 78.667 164.044 78.747 C 154.335 78.967 143.267 80.228 133.932 84.310 C 118.100 91.234 105.116 102.043 103.612 119.449 C 103.230 121.818 103.506 122.935 103.923 123.455 C 104.127 123.538 104.328 123.628 104.533 123.710 C 104.554 123.719 104.575 123.729 104.597 123.732 C 104.785 123.806 104.971 123.835 105.149 123.829 C 106.077 123.866 107.046 123.290 107.071 122.092 C 107.505 100.904 126.127 87.465 144.817 82.866 C 153.318 80.773 162.921 81.666 171.638 81.638 C 177.137 81.620 181.149 77.366 184.731 73.542 C 193.030 64.688 202.222 52.230 202.501 39.586 C 202.599 35.069 200.539 29.376 200.769 24.781 C 200.993 20.302 203.069 17.600 206.071 16.053 C 210.135 13.463 218.507 12.559 222.798 12.309 C 227.089 12.059 238.724 8.866 238.724 8.866 C 246.881 5.004 268.781 -3.322 268.290 11.125 C 267.865 23.559 257.406 25.570 247.512 26.096 C 247.333 26.074 247.151 26.082 246.974 26.122 C 244.524 26.239 242.120 26.276 239.925 26.367 C 230.043 26.776 217.392 28.222 216.008 40.037 C 215.157 47.289 217.120 54.357 223.093 58.924 C 227.020 61.926 231.766 64.262 236.708 63.290 C 230.200 68.205 220.689 63.744 212.624 66.228 C 200.902 69.835 192.186 83.435 184.741 92.933 C 183.956 93.935 183.220 94.964 182.515 96.009 C 181.726 97.230 180.401 99.613 178.989 102.238 L 175.375 109.093 C 174.140 111.472 173.244 113.226 173.171 113.370 C 171.103 117.596 168.957 121.786 166.327 125.730 C 159.066 136.619 149.464 143.792 138.292 149.732 C 138.292 149.732 134.006 151.557 129.090 151.224 C 124.174 150.891 125.340 154.225 128.590 154.141 C 131.840 154.057 136.469 153.124 136.469 153.124 C 140.407 151.754 144.216 149.857 147.826 147.579 C 148.421 147.152 153.299 143.656 154.857 142.475 C 158.695 139.323 162.215 135.817 165.280 132.164 C 169.886 126.674 173.074 120.450 176.166 114.167 C 176.230 114.033 176.454 113.572 176.808 112.863 C 177.073 112.323 177.338 111.782 177.604 111.242 C 177.612 111.241 177.620 111.241 177.626 111.240 C 177.829 110.844 178.053 110.407 178.291 109.950 C 178.479 109.588 178.673 109.215 178.882 108.818 L 183.034 101.313 C 183.606 100.331 184.200 99.335 184.810 98.341 C 184.778 98.353 184.746 98.364 184.713 98.375 C 184.942 98.026 185.154 97.674 185.394 97.330 C 185.548 97.105 185.712 96.870 185.870 96.642 C 187.115 94.680 188.410 92.771 189.709 91.033 C 190.209 90.363 190.710 89.714 191.209 89.104 C 191.209 89.104 191.212 89.103 191.213 89.103 C 198.576 79.149 207.707 69.196 219.019 67.836 C 224.439 67.186 236.285 72.025 241.770 62.606 C 242.557 61.252 241.275 60.090 240.070 60.307 C 239.954 60.320 239.827 60.340 239.686 60.371 C 239.387 60.438 239.093 60.486 238.799 60.536 L 238.799 60.542 C 238.753 60.549 238.711 60.553 238.665 60.560 C 238.357 60.610 238.051 60.650 237.746 60.685 C 222.442 62.596 219.012 49.761 219.012 49.761 L 219.021 49.759 C 218.945 49.571 218.862 49.384 218.796 49.193 C 217.508 45.441 217.836 41.175 219.570 37.643 L 219.558 37.623 C 219.558 37.623 221.338 31.616 228.255 29.960 C 235.172 28.304 241.152 28.136 242.787 28.054 C 244.255 27.980 257.171 28.148 262.260 25.853 C 269.834 21.738 275.927 8.167 267.451 2.502 L 267.451 2.502 L 267.451 2.502 L 267.451 2.502 Z " transform="matrix(0.8573749661445618, 0, 0, 0.8573749661445618, 0.25, 0)"/>
    </g>
    <g id="L_Eye">
      <path id="White" fill="#FFFFFF" d="M 223.219 15.014 C 223.208 14.757 223.163 14.503 223.104 14.251 C 222.513 11.756 219.628 9.612 216.245 9.750 C 212.521 9.904 210.295 10.249 209.027 12.754 C 208.972 12.862 208.938 12.980 208.898 13.094 C 207.842 16.050 211.353 20.900 216.701 20.849 C 220.430 20.814 223.332 17.818 223.219 15.014 L 223.219 15.014 L 223.219 15.014 L 223.219 15.014 Z " transform="matrix(0.8573749661445618, 0, 0, 0.8573749661445618, 0.25, 0)"/>
      <path id="Pupil" fill="#231F20" d="M 220.260 20.088 C 223.549 20.088 223.549 14.985 220.260 14.985 C 216.968 14.986 216.968 20.088 220.260 20.088 L 220.260 20.088 L 220.260 20.088 L 220.260 20.088 L 220.260 20.088 Z " transform="matrix(0.8573749661445618, 0, 0, 0.8573749661445618, 0.25, 0)"/>
      <g id="Eyelid">
        <path id="ID0.31918339990079403" fill="#96C93D" d="M 216.244 9.750 C 212.988 9.885 210.877 10.166 209.551 11.909 C 214.312 11.879 219.420 12.446 222.730 13.255 C 221.706 11.215 219.165 9.631 216.244 9.750 L 216.244 9.750 L 216.244 9.750 L 216.244 9.750 Z " transform="matrix(0.8573749661445618, 0, 0, 0.8573749661445618, 0.25, 0)"/>
        <path id="ID0.8650408904068172" fill="#231F20" d="M 224.662 13.829 C 224.127 13.628 223.470 13.435 222.729 13.255 C 219.419 12.445 214.311 11.879 209.550 11.909 C 207.480 11.922 205.476 12.046 203.719 12.315 C 201.892 12.594 202.653 14.766 204.476 14.471 C 211.235 13.375 217.905 13.911 224.436 14.764 C 225.278 14.875 224.662 13.829 224.662 13.829 L 224.662 13.829 L 224.662 13.829 L 224.662 13.829 Z " transform="matrix(0.8573749661445618, 0, 0, 0.8573749661445618, 0.25, 0)"/>
      </g>
      <path id="Outline" fill="#231F20" d="M 226.453 13.821 C 226.143 12.379 225.337 11.083 224.172 10.033 C 224.155 10.017 224.135 10.005 224.117 9.989 C 222.154 8.249 219.217 7.197 215.966 7.332 C 210.276 7.567 206.760 8.607 205.250 12.747 C 203.615 17.221 210.933 23.504 216.623 23.268 C 220.982 23.088 224.612 20.839 225.996 17.820 C 226.419 16.897 226.640 15.905 226.598 14.875 C 226.583 14.515 226.526 14.165 226.453 13.821 L 226.453 13.821 L 226.453 13.821 L 226.453 13.821 Z M 208.897 13.094 C 208.937 12.980 208.971 12.862 209.026 12.754 C 210.294 10.249 212.520 9.904 216.244 9.750 C 219.628 9.612 222.513 11.756 223.103 14.251 C 223.163 14.503 223.207 14.757 223.218 15.014 C 223.331 17.819 220.429 20.815 216.699 20.850 C 211.353 20.900 207.842 16.050 208.897 13.094 L 208.897 13.094 L 208.897 13.094 L 208.897 13.094 Z " transform="matrix(0.8573749661445618, 0, 0, 0.8573749661445618, 0.25, 0)"/>
    </g>
    <g id="R_Eye">
      <path id="White_1_" fill="#FFFFFF" d="M 226.728 14.580 C 226.589 14.382 226.475 14.168 226.371 13.949 C 225.345 11.774 226.064 8.683 228.426 7.050 C 231.026 5.254 232.725 4.368 235.010 5.596 C 235.109 5.649 235.199 5.720 235.291 5.785 C 237.691 7.460 238.094 12.901 234.458 15.609 C 231.922 17.499 228.253 16.742 226.728 14.580 L 226.728 14.580 L 226.728 14.580 L 226.728 14.580 Z " transform="matrix(0.8573749661445618, 0, 0, 0.8573749661445618, 0.25, 0)"/>
      <path id="Pupil_1_" fill="#231F20" d="M 236.331 13.408 C 239.620 13.408 239.620 8.305 236.331 8.305 C 233.039 8.307 233.039 13.408 236.331 13.408 L 236.331 13.408 L 236.331 13.408 L 236.331 13.408 L 236.331 13.408 Z " transform="matrix(0.8573749661445618, 0, 0, 0.8573749661445618, 0.25, 0)"/>
      <g id="Eyelid_1_">
        <path id="ID0.5477729514241219" fill="#96C93D" d="M 228.425 7.050 C 230.697 5.479 232.283 4.606 234.172 5.232 C 230.943 7.654 227.823 10.703 226.054 13.010 C 225.578 10.954 226.388 8.460 228.425 7.050 L 228.425 7.050 L 228.425 7.050 L 228.425 7.050 Z " transform="matrix(0.8573749661445618, 0, 0, 0.8573749661445618, 0.25, 0)"/>
        <path id="ID0.14418168924748898" fill="#231F20" d="M 225.077 14.433 C 225.323 14.007 225.657 13.525 226.054 13.010 C 227.824 10.703 230.944 7.654 234.172 5.232 C 235.576 4.178 236.998 3.243 238.337 2.542 C 239.728 1.813 240.455 3.834 239.059 4.549 C 233.874 7.198 229.682 11.025 225.764 15.019 C 225.260 15.534 225.077 14.433 225.077 14.433 L 225.077 14.433 L 225.077 14.433 L 225.077 14.433 Z " transform="matrix(0.8573749661445618, 0, 0, 0.8573749661445618, 0.25, 0)"/>
      </g>
      <path id="Outline_1_" fill="#231F20" d="M 224.370 16.211 C 224.930 17.005 225.645 17.636 226.457 18.111 C 229.115 19.665 232.848 19.488 235.891 17.384 C 239.864 14.639 241.210 6.168 237.552 3.652 C 234.168 1.322 231.204 2.347 227.232 5.093 C 224.963 6.662 223.583 8.959 223.252 11.273 C 223.250 11.294 223.243 11.313 223.241 11.334 C 223.054 12.719 223.251 14.106 223.866 15.347 C 224.012 15.642 224.174 15.934 224.370 16.211 L 224.370 16.211 L 224.370 16.211 L 224.370 16.211 Z M 234.457 15.610 C 231.922 17.499 228.253 16.742 226.728 14.580 C 226.589 14.382 226.475 14.168 226.371 13.949 C 225.345 11.774 226.064 8.683 228.426 7.050 C 231.026 5.254 232.725 4.368 235.010 5.596 C 235.109 5.649 235.199 5.720 235.291 5.785 C 237.690 7.461 238.093 12.902 234.457 15.610 L 234.457 15.610 L 234.457 15.610 L 234.457 15.610 Z " transform="matrix(0.8573749661445618, 0, 0, 0.8573749661445618, 0.25, 0)"/>
    </g>
    <g id="Front_Arm">
      <path id="Fill" fill="#96C93D" d="M 162.332 97.197 C 160.845 101.702 160.157 109.147 166.276 112.347 C 166.509 112.470 166.665 112.624 166.777 112.785 C 178.452 109.674 190.466 112.416 201.057 119.758 C 201.700 117.121 200.719 114.886 197.473 113.025 C 196.998 112.750 197.029 112.128 197.497 111.967 C 200.276 111.022 202.784 110.750 205.707 111.460 C 204.370 108.836 201.304 107.008 198.435 105.564 C 197.744 105.212 197.986 104.485 198.463 104.241 C 199.943 103.482 201.738 103.003 203.560 102.704 C 193.268 97.923 181.558 99.489 173.219 104.613 C 172.863 104.835 172.445 104.725 172.165 104.503 C 172.109 104.473 172.051 104.461 171.989 104.417 C 168.686 102.140 169.095 97.529 169.699 94.696 C 166.310 89.075 161.490 96.425 161.490 96.425 C 161.943 96.379 162.492 96.719 162.332 97.197 L 162.332 97.197 L 162.332 97.197 L 162.332 97.197 Z " transform="matrix(0.8573749661445618, 0, 0, 0.8573749661445618, 0.25, 0)"/>
      <path id="Outline_2_" fill="#231F20" d="M 161.035 96.744 C 158.727 102.041 157.542 110.078 164.833 114.187 C 164.927 114.243 165.019 114.255 165.118 114.290 C 165.337 114.461 165.645 114.563 165.972 114.485 C 170.641 113.382 174.999 113.046 179.208 113.424 C 179.208 113.424 181.958 113.691 183.652 114.098 C 189.249 115.309 194.685 117.832 200.356 121.593 C 201.187 122.146 201.945 121.657 202.015 121.031 C 202.025 121.010 202.042 121 202.051 120.972 C 203.239 117.829 202.385 115.034 199.322 112.802 C 201.728 112.178 203.929 112.162 206.729 113.156 C 207.333 113.370 207.868 112.956 207.733 112.440 C 206.883 109.274 203.944 106.947 200.787 105.134 C 202.584 104.534 204.610 104.238 206.575 104.118 C 207.552 104.179 208.179 103.073 207.135 102.426 C 203.236 100.011 198.778 98.667 194.246 98.200 C 193.794 98.149 190.288 98.012 190.288 98.012 C 183.875 98.070 177.654 99.845 173.044 102.899 C 170.612 101.120 170.608 97.180 170.740 94.934 C 170.742 94.864 170.722 94.803 170.691 94.742 C 170.503 94.399 169.803 94.286 169.712 94.700 C 169.107 97.528 168.701 102.144 172.004 104.422 C 172.066 104.466 172.126 104.478 172.181 104.509 C 172.460 104.733 172.870 104.840 173.234 104.619 C 181.569 99.495 193.279 97.927 203.573 102.708 C 201.752 103.005 199.962 103.486 198.479 104.247 C 197.999 104.491 197.755 105.219 198.449 105.569 C 201.318 107.013 204.387 108.841 205.721 111.466 C 202.797 110.754 200.290 111.027 197.510 111.971 C 197.043 112.129 197.011 112.751 197.488 113.029 C 200.729 114.888 201.711 117.119 201.070 119.761 C 190.478 112.418 178.458 109.674 166.788 112.788 C 166.676 112.629 166.522 112.477 166.288 112.349 C 160.172 109.148 160.855 101.705 162.343 97.200 C 162.503 96.722 161.954 96.381 161.510 96.432 L 161.510 96.432 C 161.301 96.453 161.121 96.543 161.035 96.744 L 161.035 96.744 L 161.035 96.744 L 161.035 96.744 Z " transform="matrix(0.8573749661445618, 0, 0, 0.8573749661445618, 0.25, 0)"/>
    </g>
    <g id="Front_Leg">
      <path id="Fill_2_" fill="#96C93D" d="M 107.493 145.328 C 107.295 151.607 108.274 157.474 104.828 162.836 C 103.503 164.904 102.195 166.989 100.750 168.975 C 100.265 169.641 94.509 176.625 97.390 177.188 C 100.737 177.839 104.215 177.227 107.602 177.580 C 110.585 177.893 111.536 178.330 114.481 178.890 C 122.161 180.347 129.920 182.179 137.744 181.201 C 135.924 180.048 133.842 178.990 132.185 178.096 C 131.183 177.555 131.091 176.362 132.276 176.141 C 134.989 175.635 137.870 176.051 140.429 175.028 C 137.843 173.789 134.648 172.891 131.893 172.721 C 130.605 172.643 130.095 171.969 131.327 171.278 C 133.939 169.813 136.711 168.956 139.501 168.030 C 132.788 166.848 125.191 167.442 118.517 168.118 C 117.116 168.647 115.558 166.784 116.829 165.497 C 123.347 158.905 132.641 152.446 135.067 142.989 C 136.469 137.524 134.983 131.639 129.520 128.927 C 124.132 126.251 118.406 126.829 112.824 128.527 C 112.481 128.631 112.222 128.514 112.067 128.311 C 110.706 129.935 106.570 135.554 106.397 144.018 C 106.995 144.116 107.519 144.549 107.493 145.328 L 107.493 145.328 L 107.493 145.328 L 107.493 145.328 Z " transform="matrix(0.8573749661445618, 0, 0, 0.8573749661445618, 0.25, 0)"/>
      <path id="Outline_4_" d="M 104.638 148.571 C 104.608 149.153 104.565 149.723 104.514 150.287 L 104.514 150.305 L 104.513 150.305 C 103.947 156.657 102.076 161.925 98.136 167.440 C 96.572 169.628 90.111 176.794 94.873 179.391 C 96.853 180.471 99.042 180.499 101.256 180.493 C 106.167 180.479 108.825 180.948 113.670 181.835 C 122.448 183.439 130.962 185.386 139.891 183.685 C 140.880 183.496 141.737 181.806 140.957 181.154 C 139.513 179.945 137.889 178.884 136.227 177.902 C 138.214 177.582 139.782 177.318 141.964 176.279 C 142.898 175.834 142.820 174.373 141.964 173.906 C 139.866 172.765 137.716 171.967 135.452 171.510 C 138.087 170.887 140.160 170.546 142.931 169.456 C 143.997 169.038 144.226 167.385 142.931 167.060 C 135.902 165.304 129.070 164.601 121.917 165.089 C 123.222 163.890 124.591 162.634 125.960 161.333 C 126.859 160.428 134.099 153.045 136.752 147.403 C 137.960 144.511 138.528 141.437 138.075 138.160 C 136.680 128.057 127.473 124.401 118.603 125.490 C 116.485 125.750 114.387 126.277 112.418 127.055 C 111.844 127.283 111.782 127.941 112.063 128.308 C 112.219 128.511 112.478 128.628 112.820 128.524 C 118.402 126.827 124.129 126.249 129.516 128.924 C 134.979 131.637 136.465 137.522 135.063 142.986 C 132.637 152.443 123.342 158.902 116.825 165.494 C 115.554 166.781 117.112 168.644 118.513 168.115 C 125.188 167.439 132.784 166.845 139.497 168.027 C 136.707 168.953 133.935 169.810 131.323 171.275 C 130.092 171.966 130.601 172.640 131.889 172.718 C 134.644 172.888 137.839 173.785 140.425 175.025 C 137.865 176.048 134.985 175.632 132.272 176.138 C 131.087 176.359 131.179 177.552 132.181 178.093 C 133.837 178.988 135.919 180.045 137.740 181.198 C 129.917 182.177 122.157 180.344 114.477 178.887 C 111.532 178.327 110.581 177.891 107.598 177.577 C 104.211 177.224 100.733 177.837 97.386 177.185 C 94.505 176.623 100.261 169.638 100.746 168.972 C 102.191 166.987 103.499 164.902 104.824 162.833 C 108.270 157.472 107.291 151.604 107.489 145.325 C 107.515 144.546 106.990 144.113 106.390 144.012 C 105.837 143.918 105.220 144.105 104.908 144.587 C 104.802 144.496 104.660 147.171 104.633 148.185 C 104.630 148.420 104.630 148.565 104.638 148.571 L 104.638 148.571 L 104.638 148.571 L 104.638 148.571 Z " transform="matrix(0.8573749661445618, 0, 0, 0.8573749661445618, 0.25, 0)"/>
    </g>
  </g>
</svg>