<?xml version="1.0" encoding="UTF-8" standalone="no"?>
<svg
   version="1.1"
   width="135.69241"
   height="144.03529"
   id="svg30"
   sodipodi:docname="dinosaur1-g.svg"
   xmlns:inkscape="http://www.inkscape.org/namespaces/inkscape"
   xmlns:sodipodi="http://sodipodi.sourceforge.net/DTD/sodipodi-0.dtd"
   xmlns="http://www.w3.org/2000/svg"
   xmlns:svg="http://www.w3.org/2000/svg">
  <defs
     id="defs34" />
  <sodipodi:namedview
     id="namedview32"
     pagecolor="#ffffff"
     bordercolor="#000000"
     borderopacity="0.25"
     inkscape:showpageshadow="2"
     inkscape:pageopacity="0.0"
     inkscape:pagecheckerboard="0"
     inkscape:deskcolor="#d1d1d1" />
  <!-- Exported by Scratch - http://scratch.mit.edu/ -->
  <g
     id="ID0.997262217104435"
     transform="matrix(0.94999999,0,0,0.94999999,-0.71273851,-0.14276301)">
    <g
       id="Back_Leg">
      <path
         id="Fill_4_"
         fill="#96c93d"
         d="m 38.54,114.212 c 0.83,1.66 1.098,3.27 1.002,4.847 -0.026,0.185 -0.312,2.084 -0.755,3.518 -0.516,1.497 -1.229,2.98 -1.985,4.472 -1.369,2.691 -2.908,5.162 0.422,7.272 1.726,1.096 3.59,1.997 5.435,2.91 5.337,2.637 14.079,6.576 16.105,12.501 1.486,-1.875 0.532,-4.359 -0.867,-5.984 -0.465,-0.534 0.017,-1.324 0.756,-1.238 1.927,0.224 3.729,0.624 5.466,1.32 -0.605,-1.547 -1.671,-3.044 -3.092,-3.933 -0.602,-0.377 -0.371,-1.375 0.378,-1.411 1.687,-0.081 3.287,0.26 4.911,0.617 -2.533,-4.396 -10.895,-7.942 -15.246,-9.532 -0.238,-0.084 -0.381,-0.231 -0.472,-0.391 -0.871,-0.482 -1.304,-1.673 -0.28,-2.413 7.211,-5.191 17.184,-9.932 20.623,-18.204 1.986,-4.779 1.139,-10.285 -4.018,-13.39 -5.086,-3.062 -10.858,-3.22 -16.607,-2.342 -0.374,0.058 -0.632,-0.098 -0.757,-0.322 -9.668,2.95 -11.327,19.121 -11.515,21.479 0.185,-0.036 0.395,0.023 0.496,0.224 v 0 z"
         transform="matrix(0.94762492,0,0,0.94762492,0.75,0.15)" />
      <path
         id="Outline_6_"
         fill="#231f20"
         d="m 53.178,128.524 c 4.924,-3.304 11.307,-7.032 15.797,-11.709 0.834,-0.837 2.729,-3.354 2.729,-3.354 1.786,-2.66 2.864,-5.607 2.755,-8.909 -0.168,-5.226 -3.01,-8.9 -7.055,-11.136 -4.885,-2.702 -11.521,-3.3 -17.33,-1.966 -0.58,0.132 -0.727,0.688 -0.517,1.057 0.125,0.225 0.382,0.379 0.757,0.321 5.75,-0.876 11.524,-0.718 16.607,2.342 5.156,3.105 6.004,8.611 4.018,13.39 -3.438,8.271 -13.413,13.012 -20.623,18.203 -1.025,0.74 -0.59,1.932 0.281,2.414 0.089,0.159 0.232,0.307 0.472,0.391 4.351,1.59 12.713,5.135 15.245,9.531 -1.622,-0.356 -3.225,-0.697 -4.91,-0.616 -0.75,0.036 -0.98,1.034 -0.379,1.41 1.423,0.89 2.484,2.384 3.092,3.933 -1.737,-0.693 -3.539,-1.093 -5.466,-1.32 -0.738,-0.086 -1.221,0.707 -0.756,1.241 1.399,1.624 2.354,4.108 0.867,5.983 -2.025,-5.925 -10.769,-9.865 -16.105,-12.501 -1.845,-0.913 -3.709,-1.813 -5.435,-2.909 -3.33,-2.111 -1.793,-4.581 -0.422,-7.273 0.756,-1.49 1.47,-2.975 1.985,-4.472 0.442,-1.434 0.729,-3.333 0.755,-3.518 0.094,-1.577 -0.172,-3.187 -1.003,-4.847 -0.099,-0.201 -0.31,-0.263 -0.498,-0.229 -0.209,0.037 -0.388,0.2 -0.35,0.442 0.013,0.08 0.02,0.155 0.032,0.234 0.169,1.117 0.107,2.136 0.073,3.107 -0.082,2.191 -2.608,7.213 -2.588,7.291 -0.799,1.656 -1.566,3.382 -1.974,5.404 -0.368,1.869 0.602,3.464 2.154,4.722 7.161,5.811 17.414,7.792 22.505,15.698 -0.023,0.605 0.735,1.201 1.349,0.693 2.333,-1.929 2.361,-4.813 1.045,-7.248 1.679,0.332 3.271,0.858 4.812,1.662 0.588,0.308 1.251,-0.292 1.154,-0.822 -0.312,-1.694 -1.151,-3.512 -2.4,-4.943 1.299,0.217 2.572,0.593 3.849,0.86 0.553,0.116 1.138,-0.44 0.999,-0.939 -1.481,-5.349 -9.872,-9.347 -15.521,-11.618 v 0 z"
         transform="matrix(0.94762492,0,0,0.94762492,0.75,0.15)" />
    </g>
    <g
       id="Tail">
      <path
         id="Fill_2_"
         fill="#96c93d"
         d="m 22.293,86.667 c 0.414,-7.341 2.721,-14.13 6.165,-20.671 4.146,-7.875 9.494,-14.862 12.02,-23.521 C 43,33.832 41.397,24.273 36.651,16.723 32.735,10.494 26.794,6.883 20.445,3.76 c 5.434,6.671 9.167,15.063 9.6,23.635 C 30.627,38.948 24.566,50.115 18.943,59.77 12.481,70.867 5.158,81.73 3.427,94.755 1.912,106.16 6.16,119.046 16.78,124.507 c 0,0 3.939,1.936 8.059,1.231 v 0 c 1.101,-1.418 1.369,-3.116 1.369,-3.116 l 4.906,-19.257 c -0.003,0 -7.652,-3.234 -8.821,-16.698 v 0 z"
         transform="matrix(0.94762492,0,0,0.94762492,0.75,0.15)" />
      <path
         id="Outline_4_"
         fill="#231f20"
         d="M 36.272,58.346 C 40.701,50.685 44.505,42.461 43.916,33.373 42.99,19.169 33.152,4.464 18.445,1.638 c -0.493,-0.097 -0.882,0.533 -0.547,0.86 0.011,0.062 0.028,0.122 0.064,0.183 3.158,5.282 7.07,9.958 8.758,16.026 1.718,6.181 1.515,12.582 -0.277,18.74 -3.782,13 -11.867,23.762 -18.23,35.524 -5.208,9.633 -9.453,20.474 -7.881,31.639 1.336,9.482 6.099,18.388 14.789,22.833 5.153,3.525 9.718,0.924 9.718,0.924 v -2.629 0 C 20.72,126.442 16.78,124.507 16.78,124.507 6.16,119.046 1.912,106.16 3.427,94.755 5.157,81.73 12.481,70.866 18.943,59.771 24.565,50.116 30.627,38.949 30.045,27.396 29.612,18.825 25.879,10.432 20.445,3.761 c 6.349,3.123 12.29,6.733 16.206,12.963 4.746,7.55 6.35,17.109 3.827,25.752 -2.525,8.658 -7.874,15.646 -12.02,23.521 -3.444,6.541 -5.751,13.33 -6.165,20.671 1.169,13.464 8.817,16.697 8.82,16.698 v 0 l 1.177,-3.83 C 25.29,96.37 26.082,80.808 26.082,80.808 27.903,72.771 32,65.732 36.272,58.346 v 0 z"
         transform="matrix(0.94762492,0,0,0.94762492,0.75,0.15)" />
    </g>
    <g
       id="Back_Arm">
      <path
         id="Fill"
         fill="#96c93d"
         d="m 103.438,81 c -3.3,2.867 -7.536,8.215 -4.946,12.709 0.098,0.175 0.126,0.341 0.123,0.499 9.601,1.666 16.476,7.838 20.047,16.971 1.775,-1.758 2.23,-3.77 0.939,-6.275 -0.188,-0.37 0.148,-0.825 0.551,-0.784 2.388,0.243 4.249,0.897 5.901,2.433 0.408,-2.426 -0.777,-4.848 -2.02,-6.913 -0.3,-0.5 0.235,-0.963 0.689,-0.981 1.401,-0.062 2.876,0.192 4.28,0.591 -4.66,-7.108 -13.503,-9.946 -21.826,-8.958 -0.357,0.043 -0.589,-0.18 -0.667,-0.443 -0.023,-0.041 -0.059,-0.071 -0.078,-0.124 -1.12,-2.838 1.491,-6.157 3.339,-8.074 0.511,-5.375 -6.518,-1.516 -6.52,-1.514 0.334,0.115 0.54,0.558 0.188,0.863 v 0 z"
         transform="matrix(0.94762492,0,0,0.94762492,0.75,0.15)" />
      <path
         id="Outline_2_"
         fill="#231f20"
         d="m 102.775,80.214 c -4.265,3.181 -9.142,8.803 -6.206,14.38 0.037,0.074 0.095,0.115 0.146,0.175 0.064,0.203 0.224,0.386 0.488,0.438 3.768,0.773 6.935,2.013 9.638,3.738 0,0 1.755,1.144 2.714,2.028 3.236,2.824 5.698,6.579 7.695,11.343 0.293,0.697 1.06,0.593 1.427,0.145 0.017,-0.012 0.034,-0.014 0.053,-0.029 2.404,-1.95 3.231,-4.337 2.253,-7.062 1.97,0.355 3.491,1.098 4.914,2.801 0.308,0.367 0.885,0.239 1.052,-0.193 1.018,-2.664 0.171,-5.415 -1.083,-7.856 1.539,0.165 3.082,0.636 4.493,1.222 0.641,0.38 1.63,-0.234 1.24,-1.078 -1.461,-3.146 -3.848,-5.682 -6.727,-7.583 -0.286,-0.192 -2.626,-1.496 -2.626,-1.496 -4.44,-2.152 -9.614,-2.952 -14.328,-2.241 -0.773,-2.167 1.218,-5.123 2.442,-6.762 0.038,-0.052 0.055,-0.104 0.063,-0.161 0.046,-0.321 -0.379,-0.646 -0.65,-0.368 -1.847,1.915 -4.459,5.236 -3.339,8.075 0.02,0.052 0.054,0.082 0.077,0.123 0.078,0.264 0.308,0.485 0.668,0.444 8.321,-0.987 17.166,1.849 21.826,8.958 -1.403,-0.4 -2.877,-0.654 -4.28,-0.591 -0.454,0.019 -0.989,0.48 -0.689,0.98 1.242,2.065 2.427,4.487 2.019,6.913 -1.651,-1.534 -3.513,-2.188 -5.901,-2.432 -0.402,-0.042 -0.738,0.413 -0.55,0.783 1.29,2.506 0.836,4.515 -0.939,6.275 -3.571,-9.133 -10.449,-15.308 -20.048,-16.971 0.003,-0.158 -0.025,-0.322 -0.123,-0.499 -2.588,-4.496 1.646,-9.843 4.946,-12.71 0.352,-0.305 0.147,-0.748 -0.186,-0.861 v 0 c -0.149,-0.055 -0.318,-0.047 -0.479,0.072 v 0 z"
         transform="matrix(0.94762492,0,0,0.94762492,0.75,0.15)" />
    </g>
    <g
       id="Body">
      <path
         id="Fill_5_"
         fill="#96c93d"
         d="m 147.061,27.232 c -1.596,-3.505 -4.68,-6.298 -7.589,-8.712 -6.163,-5.114 -13.227,-7.823 -20.689,-10.325 -7.479,-2.508 -20.896,-4.392 -23.985,5.68 -1.896,6.182 -1.04,13.453 -0.741,19.798 0.607,12.912 2.86,30.083 -5.899,40.956 -0.083,0.104 -0.18,0.148 -0.281,0.171 -0.271,0.245 -0.654,0.355 -1.012,0.119 C 65.063,60.465 28.51,71.6 21.724,97.528 c 0,0 -4.208,24.371 8.844,30.689 0.012,0.003 0.023,0.005 0.036,0.007 1.073,0.194 2.203,0.384 3.386,0.566 0.002,0 0.005,0.001 0.007,0.001 0.04,0.006 0.081,0.012 0.122,0.019 0.567,0.087 1.147,0.172 1.737,0.254 0.024,0.003 0.048,0.007 0.072,0.01 0.618,0.086 1.249,0.169 1.892,0.248 0.025,0.004 0.052,0.007 0.077,0.01 0.587,0.072 1.185,0.141 1.789,0.207 0.092,0.01 0.182,0.02 0.273,0.029 1.266,0.135 2.567,0.254 3.899,0.353 0.128,0.01 0.257,0.019 0.386,0.028 0.615,0.044 1.236,0.084 1.864,0.118 0.049,0.003 0.098,0.007 0.147,0.009 0.676,0.037 1.36,0.066 2.049,0.092 0.132,0.004 0.265,0.008 0.396,0.013 0.575,0.019 1.154,0.032 1.736,0.042 0.143,0.002 0.283,0.005 0.426,0.007 0.689,0.009 1.385,0.012 2.084,0.007 0.102,-0.001 0.204,-0.003 0.306,-0.004 0.6,-0.007 1.203,-0.019 1.81,-0.035 0.181,-0.006 0.361,-0.011 0.542,-0.017 0.696,-0.023 1.396,-0.052 2.099,-0.091 0.008,-0.001 0.017,-0.001 0.025,-0.001 0.704,-0.039 1.412,-0.09 2.121,-0.146 0.193,-0.016 0.387,-0.032 0.58,-0.049 0.58,-0.05 1.162,-0.104 1.744,-0.166 0.149,-0.016 0.298,-0.03 0.447,-0.047 0.703,-0.077 1.407,-0.165 2.112,-0.262 0.177,-0.024 0.354,-0.051 0.53,-0.076 0.562,-0.081 1.125,-0.168 1.688,-0.262 0.195,-0.032 0.391,-0.063 0.586,-0.098 0.705,-0.122 1.41,-0.252 2.114,-0.396 0.115,-0.023 0.231,-0.05 0.348,-0.074 0.603,-0.126 1.204,-0.26 1.805,-0.401 0.208,-0.049 0.416,-0.1 0.624,-0.15 0.621,-0.152 1.241,-0.312 1.859,-0.482 0.094,-0.026 0.188,-0.05 0.283,-0.076 0.694,-0.194 1.385,-0.404 2.074,-0.623 0.196,-0.062 0.393,-0.128 0.589,-0.192 0.549,-0.18 1.096,-0.368 1.641,-0.564 0.169,-0.062 0.339,-0.119 0.508,-0.182 0.679,-0.252 1.354,-0.516 2.024,-0.793 0.16,-0.066 0.318,-0.137 0.479,-0.205 0.538,-0.229 1.073,-0.466 1.605,-0.712 0.19,-0.088 0.381,-0.175 0.57,-0.266 0.665,-0.316 1.325,-0.643 1.979,-0.988 0.064,-0.034 0.128,-0.071 0.192,-0.105 0.596,-0.318 1.185,-0.65 1.77,-0.993 0.185,-0.108 0.368,-0.218 0.552,-0.329 0.544,-0.328 1.085,-0.668 1.619,-1.019 0.104,-0.068 0.21,-0.134 0.313,-0.203 0.621,-0.415 1.233,-0.849 1.84,-1.296 0.159,-0.117 0.317,-0.24 0.477,-0.36 0.482,-0.365 0.96,-0.742 1.433,-1.129 0.147,-0.121 0.296,-0.239 0.441,-0.361 0.586,-0.492 1.163,-0.999 1.73,-1.525 0.109,-0.102 0.215,-0.207 0.323,-0.31 0.472,-0.446 0.936,-0.904 1.394,-1.375 0.15,-0.155 0.302,-0.311 0.451,-0.469 0.548,-0.579 1.089,-1.17 1.615,-1.787 3.232,-3.661 6.06,-7.7 8.509,-11.925 4.007,-6.91 4.854,-15.025 4.878,-23.044 0.01,-3.135 -0.103,-6.256 -0.206,-9.283 -0.366,-10.701 -1.438,-21.658 -3.754,-32.136 -10e-4,-0.006 0,-0.013 -0.002,-0.019 -0.009,-0.051 -0.013,-0.103 -0.016,-0.153 -10e-4,-0.027 -0.006,-0.056 -0.005,-0.081 -0.01,-0.988 0.974,-1.961 2.014,-1.253 3.744,2.548 9.983,7.658 14.498,3.542 -0.604,-0.564 -1.144,-1.196 -1.633,-1.907 -2.065,-3.004 -2.338,-5.52 -7.657,-4.594 -5.091,0.885 -2.715,-5.933 -7.454,-4.388 -1.539,0.502 -2.231,-2.024 -0.666,-2.418 2.03,-0.509 3.854,-0.751 5.405,0.873 0.591,0.618 0.567,2.454 0.845,3.234 0.711,1.99 2.864,-0.667 5.729,-0.102 2.797,0.554 3.85,2.973 5.264,5.294 2.941,4.83 11.418,6.415 16.475,5.143 5.077,-1.278 6.518,-7.065 4.649,-11.169 v 0 z"
         transform="matrix(0.94762492,0,0,0.94762492,0.75,0.15)" />
      <path
         id="Belly_1_"
         fill="#ffed00"
         d="m 102.457,84.367 c -3,9.5 -11.333,17.667 -24.333,28.452 -13,10.785 -35.667,3.382 -42.667,7.715 -4.755,2.943 -3.05,6.364 -1.467,8.257 0.002,0 0.005,0.001 0.007,0.001 0.04,0.006 0.081,0.012 0.122,0.019 0.567,0.087 1.147,0.172 1.737,0.254 0.024,0.003 0.048,0.007 0.072,0.01 0.618,0.086 1.249,0.169 1.892,0.248 0.025,0.004 0.052,0.007 0.077,0.01 0.587,0.072 1.185,0.141 1.789,0.207 0.092,0.01 0.182,0.02 0.273,0.029 1.266,0.135 2.567,0.254 3.899,0.353 0.128,0.01 0.257,0.019 0.386,0.028 0.615,0.044 1.236,0.084 1.864,0.118 0.049,0.003 0.098,0.007 0.147,0.009 0.676,0.037 1.36,0.066 2.049,0.092 0.132,0.004 0.265,0.008 0.396,0.013 0.575,0.019 1.154,0.032 1.736,0.042 0.143,0.002 0.283,0.005 0.426,0.007 0.689,0.009 1.385,0.012 2.084,0.007 0.102,-0.001 0.204,-0.003 0.306,-0.004 0.6,-0.007 1.203,-0.019 1.81,-0.035 0.181,-0.006 0.361,-0.011 0.542,-0.017 0.696,-0.023 1.396,-0.052 2.099,-0.091 0.008,-0.001 0.017,-0.001 0.025,-0.001 0.704,-0.039 1.412,-0.09 2.121,-0.146 0.193,-0.016 0.387,-0.032 0.58,-0.049 0.58,-0.05 1.162,-0.104 1.744,-0.166 0.149,-0.016 0.298,-0.03 0.447,-0.047 0.703,-0.077 1.407,-0.165 2.112,-0.262 0.177,-0.024 0.354,-0.051 0.53,-0.076 0.562,-0.081 1.125,-0.168 1.688,-0.262 0.195,-0.032 0.391,-0.063 0.586,-0.098 0.705,-0.122 1.41,-0.252 2.114,-0.396 0.115,-0.023 0.231,-0.05 0.348,-0.074 0.603,-0.126 1.204,-0.26 1.805,-0.401 0.208,-0.049 0.416,-0.1 0.624,-0.15 0.621,-0.152 1.241,-0.312 1.859,-0.482 0.094,-0.026 0.188,-0.05 0.283,-0.076 0.694,-0.194 1.385,-0.404 2.074,-0.623 0.196,-0.062 0.393,-0.128 0.589,-0.192 0.549,-0.18 1.096,-0.368 1.641,-0.564 0.169,-0.062 0.339,-0.119 0.508,-0.182 0.679,-0.252 1.354,-0.516 2.024,-0.793 0.16,-0.066 0.318,-0.137 0.479,-0.205 0.538,-0.229 1.073,-0.466 1.605,-0.712 0.19,-0.088 0.381,-0.175 0.57,-0.266 0.665,-0.316 1.325,-0.643 1.979,-0.988 0.064,-0.034 0.128,-0.071 0.192,-0.105 0.596,-0.318 1.185,-0.65 1.77,-0.993 0.185,-0.108 0.368,-0.218 0.552,-0.329 0.544,-0.328 1.085,-0.668 1.619,-1.019 0.104,-0.068 0.21,-0.134 0.313,-0.203 0.621,-0.415 1.233,-0.849 1.84,-1.296 0.159,-0.117 0.317,-0.24 0.477,-0.36 0.482,-0.365 0.96,-0.742 1.433,-1.129 0.147,-0.121 0.296,-0.239 0.441,-0.361 0.586,-0.492 1.163,-0.999 1.73,-1.525 0.109,-0.102 0.215,-0.207 0.323,-0.31 0.472,-0.446 0.936,-0.904 1.394,-1.375 0.15,-0.155 0.302,-0.311 0.451,-0.469 0.548,-0.579 1.089,-1.17 1.615,-1.787 3.232,-3.661 6.06,-7.7 8.509,-11.925 4.007,-6.91 4.854,-15.025 4.878,-23.044 -2.615,-1.598 -8.781,0.313 -11.118,7.717 v 0 z"
         transform="matrix(0.94762492,0,0,0.94762492,0.75,0.15)" />
      <path
         id="Outline_7_"
         fill="#231f20"
         d="M 125.429,8.828 C 117.57,6.14 106.217,1.086 98.225,6.156 c -5.583,3.541 -6.441,8.952 -6.626,15.196 -0.27,9.097 0.412,18.188 0.327,27.287 -0.077,8.269 -0.232,17.204 -4.353,24.604 -10.461,-8.363 -26.066,-8.695 -38.47,-5.141 -8.238,2.36 -15.742,6.566 -21.356,12.534 -3.116,3.544 -6.323,9.332 -6.842,10.284 -0.397,0.893 -0.764,1.808 -1.096,2.745 -0.354,0.998 -0.668,2.021 -0.934,3.076 -0.018,0.153 -0.026,0.294 -0.043,0.445 v 0 c -1.819,16.874 2.04,25.495 5.986,29.856 0,0.001 0,0.001 0,0.001 3,3.314 6.036,4.175 6.669,4.322 0.043,0.009 0.085,0.016 0.128,0.024 52.345,10.31 71.771,-19.159 71.771,-19.159 0.594,-0.708 1.176,-1.426 1.745,-2.156 0.032,-0.039 0.062,-0.078 0.093,-0.118 0.575,-0.74 1.136,-1.493 1.677,-2.262 0.011,0.003 0.021,0.008 0.032,0.011 0.291,-0.404 0.577,-0.806 0.847,-1.201 -0.021,-0.008 -0.039,-0.017 -0.06,-0.024 1.031,-1.533 2.022,-3.1 2.938,-4.719 0.015,-0.026 0.027,-0.054 0.042,-0.08 1.002,-1.882 1.75,-3.567 2.288,-4.953 0.185,-0.493 0.362,-0.988 0.527,-1.486 0.004,10e-4 0.009,0.003 0.013,0.004 0.135,-0.395 0.254,-0.76 0.349,-1.069 -0.006,0 -0.012,0 -0.018,0 2.449,-8.154 2.337,-16.96 1.98,-25.552 -0.428,-10.297 -1.28,-20.855 -3.312,-31.02 4.714,2.854 11.106,5.445 14.875,0.68 0.001,0.001 0.001,0.001 0.001,0.001 6.012,3.815 17.888,6.286 21.987,-1.804 6.819,-13.446 -14.138,-24.295 -23.961,-27.654 v 0 z m 16.985,29.573 c -5.057,1.272 -13.533,-0.312 -16.475,-5.143 -1.414,-2.321 -2.467,-4.74 -5.264,-5.294 -2.865,-0.565 -5.019,2.092 -5.729,0.102 -0.277,-0.78 -0.254,-2.616 -0.845,-3.234 -1.551,-1.624 -3.375,-1.382 -5.405,-0.873 -1.565,0.394 -0.873,2.92 0.666,2.418 4.739,-1.545 2.363,5.272 7.454,4.388 5.319,-0.926 5.592,1.59 7.657,4.594 0.489,0.711 1.029,1.343 1.633,1.907 -4.515,4.116 -10.754,-0.994 -14.498,-3.542 -1.04,-0.708 -2.023,0.265 -2.014,1.253 -10e-4,0.025 0.004,0.054 0.005,0.081 0.003,0.051 0.007,0.103 0.016,0.153 0.002,0.006 0.001,0.013 0.002,0.019 2.316,10.478 3.388,21.435 3.754,32.136 0.369,10.769 0.901,22.715 -4.672,32.327 -2.449,4.225 -5.276,8.264 -8.509,11.925 -0.526,0.617 -1.067,1.208 -1.615,1.787 -0.149,0.158 -0.301,0.313 -0.451,0.469 -0.458,0.471 -0.922,0.929 -1.394,1.375 -0.108,0.103 -0.214,0.208 -0.323,0.31 -0.567,0.526 -1.145,1.033 -1.73,1.525 -0.146,0.122 -0.294,0.24 -0.441,0.361 -0.473,0.387 -0.95,0.764 -1.433,1.129 -0.159,0.12 -0.317,0.243 -0.477,0.36 -0.606,0.447 -1.219,0.881 -1.84,1.296 -0.104,0.069 -0.209,0.135 -0.313,0.203 -0.534,0.351 -1.075,0.69 -1.619,1.019 -0.184,0.111 -0.367,0.221 -0.552,0.329 -0.585,0.343 -1.174,0.675 -1.77,0.993 -0.064,0.034 -0.128,0.071 -0.192,0.105 -0.653,0.346 -1.313,0.672 -1.979,0.988 -0.189,0.091 -0.38,0.178 -0.57,0.266 -0.532,0.246 -1.067,0.483 -1.605,0.712 -0.16,0.068 -0.318,0.139 -0.479,0.205 -0.671,0.277 -1.346,0.541 -2.024,0.793 -0.169,0.062 -0.339,0.12 -0.508,0.182 -0.545,0.196 -1.092,0.385 -1.641,0.564 -0.196,0.064 -0.392,0.13 -0.589,0.192 -0.689,0.219 -1.38,0.429 -2.074,0.623 -0.095,0.026 -0.189,0.05 -0.283,0.076 -0.618,0.17 -1.238,0.33 -1.859,0.482 -0.208,0.051 -0.416,0.102 -0.624,0.15 -0.601,0.142 -1.202,0.275 -1.805,0.401 -0.116,0.024 -0.231,0.051 -0.348,0.074 -0.704,0.144 -1.409,0.273 -2.114,0.396 -0.195,0.034 -0.391,0.065 -0.586,0.098 -0.562,0.094 -1.125,0.181 -1.688,0.262 -0.177,0.025 -0.354,0.052 -0.53,0.076 -0.705,0.097 -1.409,0.185 -2.112,0.262 -0.149,0.017 -0.298,0.031 -0.447,0.047 -0.582,0.062 -1.164,0.116 -1.744,0.166 -0.193,0.017 -0.387,0.033 -0.58,0.049 -0.709,0.056 -1.417,0.106 -2.121,0.146 -0.009,0 -0.018,0 -0.025,0.001 -0.703,0.039 -1.402,0.067 -2.099,0.091 -0.181,0.006 -0.361,0.011 -0.542,0.017 -0.606,0.017 -1.21,0.028 -1.81,0.035 -0.102,0.001 -0.204,0.003 -0.306,0.004 -0.699,0.005 -1.395,0.002 -2.084,-0.007 -0.143,-10e-4 -0.283,-0.005 -0.426,-0.007 -0.582,-0.01 -1.161,-0.023 -1.736,-0.042 -0.132,-0.005 -0.265,-0.008 -0.396,-0.013 -0.688,-0.025 -1.373,-0.055 -2.049,-0.092 -0.05,-0.002 -0.099,-0.006 -0.147,-0.009 -0.628,-0.034 -1.249,-0.074 -1.864,-0.118 -0.129,-0.01 -0.257,-0.019 -0.386,-0.028 -1.332,-0.099 -2.634,-0.218 -3.899,-0.353 -0.092,-0.01 -0.182,-0.02 -0.273,-0.029 -0.604,-0.066 -1.202,-0.135 -1.789,-0.207 -0.025,-0.003 -0.052,-0.006 -0.077,-0.01 -0.643,-0.079 -1.273,-0.162 -1.892,-0.248 -0.024,-0.003 -0.048,-0.007 -0.072,-0.01 -0.59,-0.082 -1.17,-0.167 -1.737,-0.254 -0.041,-0.007 -0.082,-0.013 -0.122,-0.019 -1.185,-0.183 -2.317,-0.373 -3.393,-0.567 -0.012,-0.002 -0.023,-0.004 -0.034,-0.006 0,0 0,0 -10e-4,0 0,0 -0.001,0 -0.001,-10e-4 C 17.518,121.899 21.726,97.528 21.726,97.528 28.51,71.6 65.063,60.465 86.864,74.918 c 0.357,0.236 0.74,0.126 1.012,-0.119 0.102,-0.022 0.198,-0.067 0.281,-0.171 8.76,-10.873 6.507,-28.044 5.899,-40.956 -0.299,-6.345 -1.155,-13.616 0.741,-19.798 3.09,-10.071 16.507,-8.188 23.985,-5.68 7.463,2.502 14.526,5.211 20.689,10.325 2.909,2.414 5.993,5.207 7.589,8.712 1.87,4.105 0.429,9.892 -4.646,11.17 v 0 z"
         transform="matrix(0.94762492,0,0,0.94762492,0.75,0.15)" />
    </g>
    <g
       id="Front_Arm">
      <path
         id="Fill_1_"
         fill="#96c93d"
         d="m 86.005,93.525 c -4.158,3.633 -9.294,10.642 -5.209,17.281 0.155,0.258 0.214,0.495 0.229,0.717 13.316,3.513 23.457,13.034 29.447,26.321 2.21,-2.257 2.586,-5.033 0.519,-8.716 -0.303,-0.545 0.103,-1.144 0.657,-1.037 3.29,0.633 5.912,1.78 8.355,4.142 0.263,-3.363 -1.651,-6.916 -3.6,-9.974 -0.471,-0.74 0.204,-1.325 0.822,-1.297 1.906,0.084 3.951,0.621 5.917,1.353 -7.229,-10.57 -19.652,-15.64 -30.9,-15.263 -0.482,0.018 -0.826,-0.324 -0.965,-0.705 -0.037,-0.06 -0.088,-0.107 -0.122,-0.184 -1.875,-4.13 1.287,-8.482 3.577,-10.955 0.044,-7.501 -9.086,-2.927 -9.089,-2.924 0.471,0.208 0.805,0.855 0.362,1.241 v 0 z"
         transform="matrix(0.94762492,0,0,0.94762492,0.75,0.15)" />
      <path
         id="Outline_3_"
         fill="#231f20"
         d="m 85.003,92.339 c -5.437,3.956 -11.413,11.273 -6.725,19.479 0.059,0.109 0.143,0.174 0.22,0.265 0.112,0.293 0.353,0.569 0.72,0.676 5.24,1.547 9.717,3.677 13.619,6.434 0,0 2.535,1.823 3.953,3.185 4.764,4.368 8.583,9.952 11.891,16.897 0.485,1.017 1.521,0.964 1.967,0.378 0.021,-0.016 0.045,-0.016 0.068,-0.036 3.046,-2.45 3.885,-5.708 2.217,-9.663 2.733,0.74 4.901,1.97 7.053,4.54 0.465,0.554 1.237,0.444 1.413,-0.145 1.065,-3.624 -0.426,-7.599 -2.436,-11.188 2.122,0.42 4.287,1.271 6.285,2.267 0.921,0.613 2.198,-0.131 1.562,-1.366 -2.378,-4.604 -5.946,-8.463 -10.11,-11.489 -0.414,-0.305 -3.769,-2.425 -3.769,-2.425 -6.327,-3.569 -13.49,-5.324 -19.842,-4.897 -1.32,-3.145 1.039,-7.061 2.512,-9.218 0.046,-0.068 0.062,-0.141 0.068,-0.219 0.023,-0.446 -0.597,-0.954 -0.934,-0.598 -2.289,2.47 -5.453,6.825 -3.577,10.956 0.033,0.075 0.083,0.122 0.12,0.184 0.139,0.38 0.479,0.72 0.967,0.706 11.245,-0.376 23.67,4.691 30.9,15.262 -1.966,-0.733 -4.009,-1.27 -5.918,-1.352 -0.618,-0.029 -1.293,0.556 -0.822,1.296 1.948,3.057 3.86,6.609 3.599,9.973 -2.441,-2.359 -5.063,-3.507 -8.356,-4.14 -0.555,-0.108 -0.957,0.491 -0.655,1.035 2.067,3.684 1.691,6.455 -0.519,8.716 -5.989,-13.286 -16.136,-22.812 -29.447,-26.321 -0.016,-0.223 -0.075,-0.456 -0.229,-0.718 -4.082,-6.641 1.051,-13.648 5.208,-17.282 0.443,-0.386 0.11,-1.033 -0.358,-1.234 v 0 c -0.209,-0.096 -0.439,-0.106 -0.645,0.042 v 0 z"
         transform="matrix(0.94762492,0,0,0.94762492,0.75,0.15)" />
    </g>
    <g
       id="Front_Leg">
      <path
         id="Fill_3_"
         fill="#96c93d"
         d="m 13.564,117.924 c 0.93,1.86 1.229,3.663 1.122,5.43 -0.029,0.207 -0.351,2.335 -0.846,3.94 -0.577,1.678 -1.376,3.34 -2.225,5.01 -1.533,3.016 -3.258,5.783 0.473,8.147 1.934,1.228 4.021,2.237 6.089,3.26 5.979,2.954 15.771,7.367 18.042,14.004 1.665,-2.101 0.596,-4.884 -0.972,-6.703 -0.521,-0.599 0.019,-1.484 0.847,-1.388 2.158,0.25 4.177,0.699 6.123,1.479 -0.678,-1.732 -1.871,-3.409 -3.463,-4.405 -0.675,-0.422 -0.416,-1.54 0.423,-1.58 1.89,-0.091 3.683,0.29 5.502,0.69 -2.838,-4.925 -12.205,-8.896 -17.079,-10.678 -0.268,-0.095 -0.428,-0.26 -0.529,-0.438 -0.976,-0.541 -1.46,-1.874 -0.313,-2.704 8.078,-5.815 19.25,-11.126 23.103,-20.393 2.226,-5.354 1.275,-11.522 -4.5,-15 -5.698,-3.431 -12.164,-3.606 -18.604,-2.623 -0.419,0.064 -0.708,-0.109 -0.849,-0.361 -10.83,3.305 -12.688,21.421 -12.899,24.062 0.206,-0.041 0.442,0.027 0.555,0.251 v 0 z"
         transform="matrix(0.94762492,0,0,0.94762492,0.75,0.15)" />
      <path
         id="Outline_5_"
         fill="#231f20"
         d="m 29.962,133.958 c 5.516,-3.701 12.667,-7.878 17.696,-13.117 0.935,-0.938 3.058,-3.757 3.058,-3.757 2.001,-2.979 3.209,-6.281 3.087,-9.98 C 53.615,101.25 50.431,97.133 45.9,94.629 40.427,91.602 32.993,90.932 26.486,92.427 c -0.649,0.147 -0.813,0.771 -0.579,1.184 0.141,0.251 0.429,0.424 0.849,0.359 6.441,-0.98 12.91,-0.804 18.604,2.624 5.775,3.479 6.726,9.646 4.5,14.999 -3.852,9.267 -15.025,14.577 -23.103,20.393 -1.148,0.829 -0.661,2.164 0.314,2.704 0.1,0.179 0.261,0.344 0.529,0.438 4.873,1.781 14.241,5.753 17.078,10.678 -1.817,-0.399 -3.612,-0.781 -5.501,-0.69 -0.84,0.041 -1.099,1.158 -0.424,1.58 1.594,0.996 2.783,2.67 3.463,4.405 -1.946,-0.776 -3.965,-1.225 -6.123,-1.479 -0.827,-0.097 -1.367,0.791 -0.847,1.39 1.567,1.819 2.637,4.603 0.972,6.703 -2.27,-6.637 -12.063,-11.052 -18.042,-14.004 -2.067,-1.023 -4.155,-2.032 -6.089,-3.26 -3.729,-2.364 -2.008,-5.132 -0.473,-8.147 0.848,-1.67 1.647,-3.332 2.225,-5.01 0.495,-1.605 0.817,-3.733 0.846,-3.94 0.104,-1.767 -0.192,-3.569 -1.123,-5.43 -0.111,-0.225 -0.348,-0.294 -0.559,-0.256 -0.234,0.042 -0.435,0.225 -0.392,0.496 0.015,0.089 0.022,0.174 0.036,0.262 0.189,1.252 0.12,2.394 0.082,3.481 -0.092,2.455 -2.922,8.08 -2.899,8.168 -0.895,1.855 -1.754,3.788 -2.21,6.054 -0.413,2.095 0.673,3.881 2.413,5.29 8.022,6.509 19.508,8.729 25.211,17.586 -0.026,0.678 0.823,1.346 1.511,0.776 2.613,-2.16 2.646,-5.393 1.171,-8.119 1.88,0.372 3.664,0.961 5.39,1.861 0.658,0.345 1.401,-0.326 1.293,-0.921 -0.349,-1.898 -1.29,-3.934 -2.688,-5.538 1.455,0.243 2.881,0.665 4.312,0.964 0.619,0.131 1.274,-0.493 1.119,-1.052 -1.661,-5.995 -11.061,-10.474 -17.39,-13.018 v 0 z"
         transform="matrix(0.94762492,0,0,0.94762492,0.75,0.15)" />
    </g>
    <g
       id="R_Eye">
      <path
         id="White_1_"
         fill="#ffffff"
         d="m 126.356,5.549 c -2.153,-0.742 -4.628,0.768 -5.373,2.93 -0.743,2.16 0.276,4.882 2.432,5.624 2.154,0.741 4.634,-0.779 5.377,-2.939 0.742,-2.162 -0.281,-4.873 -2.436,-5.615 v 0 z"
         transform="matrix(0.94762492,0,0,0.94762492,0.75,0.15)" />
      <path
         id="Outline_1_"
         fill="#231f20"
         d="m 130.749,11.835 c 0.485,-1.409 0.464,-2.865 0.046,-4.169 -0.59,-1.831 -1.972,-3.36 -3.896,-4.024 -3.293,-1.132 -6.909,0.699 -8.076,4.091 -1.166,3.393 0.557,7.06 3.854,8.192 2.222,0.764 4.588,0.176 6.252,-1.327 0.8,-0.725 1.441,-1.659 1.82,-2.763 v 0 z m -1.957,-0.671 c -0.743,2.16 -3.223,3.681 -5.377,2.939 -2.155,-0.742 -3.175,-3.464 -2.432,-5.624 0.745,-2.162 3.22,-3.672 5.373,-2.93 2.155,0.742 3.178,3.453 2.436,5.615 v 0 z"
         transform="matrix(0.94762492,0,0,0.94762492,0.75,0.15)" />
      <path
         id="Pupil_1_"
         fill="#231f20"
         d="m 122.368,13.307 c 2.483,0 2.483,-3.85 0,-3.85 -2.483,10e-4 -2.483,3.85 0,3.85 v 0 0 z"
         transform="matrix(0.94762492,0,0,0.94762492,0.75,0.15)" />
    </g>
    <g
       id="L_Eye">
      <path
         id="White"
         fill="#ffffff"
         d="m 116.701,2.504 c -2.406,-0.829 -5.172,0.858 -6.004,3.273 -0.83,2.414 0.31,5.457 2.718,6.286 2.407,0.828 5.178,-0.871 6.008,-3.285 0.829,-2.414 -0.313,-5.445 -2.722,-6.274 v 0 z"
         transform="matrix(0.94762492,0,0,0.94762492,0.75,0.15)" />
      <path
         id="Outline"
         fill="#231f20"
         d="m 121.61,9.53 c 0.542,-1.575 0.519,-3.202 0.051,-4.659 -0.658,-2.047 -2.203,-3.756 -4.354,-4.496 -3.681,-1.266 -7.721,0.78 -9.026,4.57 -1.302,3.791 0.623,7.889 4.307,9.155 2.483,0.854 5.127,0.196 6.986,-1.483 0.896,-0.811 1.612,-1.855 2.036,-3.087 v 0 z m -2.188,-0.751 c -0.83,2.414 -3.601,4.113 -6.008,3.285 -2.408,-0.829 -3.548,-3.872 -2.718,-6.286 0.832,-2.415 3.598,-4.103 6.004,-3.273 2.41,0.828 3.552,3.859 2.722,6.274 v 0 z"
         transform="matrix(0.94762492,0,0,0.94762492,0.75,0.15)" />
      <path
         id="Pupil"
         fill="#231f20"
         d="m 112.245,11.174 c 2.775,0 2.775,-4.303 0,-4.303 -2.775,10e-4 -2.775,4.303 0,4.303 v 0 0 z"
         transform="matrix(0.94762492,0,0,0.94762492,0.75,0.15)" />
    </g>
  </g>
</svg>
