<svg version="1.1" width="101" height="182" xmlns="http://www.w3.org/2000/svg" xmlns:xlink="http://www.w3.org/1999/xlink">
  <!-- Exported by Scratch - http://scratch.mit.edu/ -->
  <g id="ID0.7824647170491517" transform="matrix(0.949999988079071, 0, 0, 0.949999988079071, -0.4, 0.5)">
    <g id="Tail">
      <path id="ID0.5047400761395693" fill="#96C93D" d="M 78.324 149.744 C 77.013 149.188 72.391 146.845 72.391 141.423 C 72.391 136.028 76.924 133.478 77.841 133.017 C 79.326 132.901 87.537 131.847 91.884 122.703 L 91.954 122.554 L 91.974 122.390 C 92.669 116.471 95.177 100.385 98.382 97.077 C 103.473 91.828 107.626 88.789 113.785 88.789 C 114.188 88.789 114.602 88.802 115.024 88.829 C 114.867 88.919 114.709 89.010 114.554 89.099 C 111.052 91.105 105.192 94.462 104.180 99.972 C 103.565 103.319 103.603 107.939 103.643 112.829 C 103.702 119.966 103.768 128.054 101.732 133.290 C 98.675 141.155 81.074 148.619 78.324 149.744 L 78.324 149.744 L 78.324 149.744 L 78.324 149.744 L 78.324 149.744 L 78.324 149.744 Z " transform="matrix(0.8145061731338501, 0, 0, 0.8145061731338501, -2.75, 0.4)"/>
      <path id="ID0.7354998346418142" d="M 111.101 90.007 C 107.818 92.135 104.022 95.305 103.199 99.791 C 102.567 103.232 102.605 107.897 102.645 112.837 C 102.703 119.884 102.768 127.870 100.801 132.928 C 98.304 139.351 84.409 146.175 78.350 148.658 C 76.873 147.949 73.392 145.810 73.392 141.424 C 73.392 136.869 77.080 134.560 78.131 133.995 C 80.203 133.783 88.397 132.371 92.788 123.132 L 92.930 122.834 L 92.968 122.507 C 93.919 114.409 96.425 100.534 99.101 97.774 C 103.311 93.432 106.682 90.758 111.101 90.007 M 113.786 87.788 C 106.987 87.788 102.573 91.319 97.665 96.380 C 93.520 100.656 90.981 122.273 90.981 122.273 C 86.499 131.704 77.585 132.032 77.585 132.032 C 77.585 132.032 71.392 134.800 71.392 141.424 C 71.392 148.424 78.330 150.821 78.330 150.821 C 78.330 150.821 99.165 142.652 102.665 133.652 C 106.165 124.652 103.665 108.319 105.165 100.152 C 106.665 91.985 120.599 88.506 116.665 87.985 C 115.657 87.852 114.700 87.788 113.786 87.788 L 113.786 87.788 L 111.101 90.007 L 111.101 90.007 L 111.101 90.007 L 111.101 90.007 Z " transform="matrix(0.8145061731338501, 0, 0, 0.8145061731338501, -2.75, 0.4)"/>
    </g>
    <g id="Body">
      <path id="Fill" fill="#96C93D" d="M 65.171 97.996 C 62.210 94.005 59.430 90.678 56.510 86.717 C 55.167 84.895 52.269 80.686 51.741 78.484 C 50.788 74.919 49.788 68.818 49.318 64.826 C 48.612 58.845 48.016 52.827 47.950 46.801 C 47.950 46.801 47.641 35.924 40.880 37.091 C 34.119 38.258 35.744 46.648 35.744 46.648 C 36.946 57.194 38.642 68.256 35.540 78.683 C 34.712 81.467 34.458 81.376 31.980 86.787 C 29.470 91.443 26.749 96.154 24.116 100.950 C 24.116 100.950 16.702 110.696 12.047 131.748 C 11.717 133.777 11.489 135.829 11.405 137.908 C 10.912 150.026 17.415 163.851 27.474 168.922 C 30.372 170.383 58.220 180.726 74.681 157.200 C 77.707 152.495 79.591 146.992 79.894 140.882 C 80.160 135.493 79.587 130.246 78.380 125.169 C 73.993 108.161 65.171 97.996 65.171 97.996 L 65.171 97.996 L 65.171 97.996 L 65.171 97.996 L 65.171 97.996 Z " transform="matrix(0.8145061731338501, 0, 0, 0.8145061731338501, -2.75, 0.4)"/>
      <path id="Belly" fill="#FFED00" d="M 66.327 134.645 C 66.118 129.605 55.453 98.720 52.579 87.039 C 49.705 75.358 44.323 76.153 44.323 76.153 L 44.245 76.153 C 44.245 76.153 38.862 75.357 35.989 87.039 C 33.116 98.721 22.450 129.605 22.241 134.645 C 22.033 139.659 19.777 162.095 44.095 163.535 L 44.095 163.564 C 44.160 163.561 44.220 163.552 44.284 163.549 C 44.349 163.552 44.408 163.561 44.473 163.564 L 44.473 163.535 C 68.792 162.095 66.535 139.658 66.327 134.645 L 66.327 134.645 L 66.327 134.645 L 66.327 134.645 L 66.327 134.645 Z " transform="matrix(0.8145061731338501, 0, 0, 0.8145061731338501, -2.75, 0.4)"/>
      <path id="Outline_2_" fill="#231F20" d="M 65.909 94.540 C 65.912 94.522 65.922 94.513 65.926 94.496 C 64.312 92.388 62.635 90.332 60.876 88.366 C 56.485 83.087 54.017 78.798 53.745 77.625 C 51.578 66.967 50.016 56.279 49.547 45.374 C 49.547 45.374 48.868 34.457 40.880 35.673 C 32.892 36.889 34.008 45.266 34.088 46.056 C 35.152 56.392 34.957 72.026 33.598 77.708 C 32.990 80.250 30.148 84.672 28.684 86.941 C 26.465 90.335 24.267 93.897 22.172 97.593 C 12.004 114.979 9.370 131.489 9.370 131.489 C 8.789 135.349 8.544 139.222 8.762 143.075 C 9.429 154.766 16.823 166.891 26.817 171.176 C 58.892 184.926 75.935 159.413 75.935 159.413 C 79.130 154.816 81.296 149.559 81.930 143.939 C 82.656 137.505 82.169 131.193 80.813 125.077 C 80.812 125.076 78.552 109.907 65.909 94.540 L 65.909 94.540 L 65.909 94.540 L 65.909 94.540 L 65.909 94.540 Z M 79.894 140.880 C 79.591 146.990 77.707 152.493 74.681 157.198 C 58.220 180.723 30.373 170.381 27.474 168.920 C 17.415 163.850 10.912 150.024 11.405 137.906 C 11.489 135.827 11.717 133.775 12.047 131.746 C 16.702 110.694 24.116 100.948 24.116 100.948 C 26.748 96.152 29.470 91.441 31.980 86.785 C 34.458 81.375 34.711 81.465 35.540 78.681 C 38.642 68.254 36.946 57.192 35.744 46.646 C 35.744 46.646 34.119 38.256 40.880 37.089 C 47.641 35.922 47.950 46.799 47.950 46.799 C 48.016 52.826 48.613 58.843 49.318 64.824 C 49.788 68.816 50.789 74.916 51.741 78.482 C 52.269 80.684 55.167 84.893 56.510 86.715 C 59.429 90.676 62.210 94.004 65.171 97.994 C 65.171 97.994 73.993 108.159 78.380 125.165 C 79.587 130.244 80.159 135.491 79.894 140.880 L 79.894 140.880 L 79.894 140.880 L 79.894 140.880 L 79.894 140.880 Z " transform="matrix(0.8145061731338501, 0, 0, 0.8145061731338501, -2.75, 0.4)"/>
    </g>
    <g id="R_Leg">
      <path id="Fill_4_" fill="#96C93D" d="M 61.982 170.115 C 79.099 184.618 93.704 201.773 110.685 216.356 C 110.810 214.731 110.714 213.175 110.191 211.502 C 109.948 210.725 110.628 209.707 111.491 209.797 C 114.803 210.130 117.880 210.761 120.929 211.818 C 119.992 209.743 118.859 207.907 116.908 206.359 C 116.148 205.758 116.580 204.357 117.484 204.174 C 119.384 203.792 121.209 203.079 122.963 202.230 C 117.533 200.076 111.759 199.021 105.953 198.344 C 103.754 198.090 99.517 198.635 97.764 197.030 C 95.176 194.663 93.203 191.286 91.190 188.452 C 84.876 179.556 78.450 170.588 72.836 161.230 C 72.507 160.682 71.894 158.796 72.205 158.422 C 57.455 154.360 58.150 168.367 58.150 168.367 L 58.151 168.388 C 58.540 167.908 59.820 168.284 61.982 170.115 L 61.982 170.115 L 61.982 170.115 L 61.982 170.115 L 61.982 170.115 Z " transform="matrix(0.8145061731338501, 0, 0, 0.8145061731338501, -2.75, 0.4)"/>
      <path id="Outline_6_" fill="#231F20" d="M 110.737 219.806 C 111.401 220.414 112.696 220.241 112.893 219.239 C 113.341 216.961 113.579 214.871 113.231 212.700 C 116.502 213.138 119.514 213.916 122.620 215.285 C 123.539 215.688 125.015 215.010 124.547 213.806 C 123.447 210.952 122.359 208.301 120.405 206.110 C 122.576 205.398 124.676 204.350 126.637 203.260 C 127.449 202.810 127.541 201.423 126.645 201.005 C 118.451 197.175 109.617 195.960 100.712 194.912 C 97.441 194.526 94.311 188.009 92.498 185.466 C 86.776 177.432 80.958 169.340 75.784 160.926 C 75.265 160.142 74.815 159.563 74.427 159.140 C 72.738 157.305 72.198 158.411 72.203 158.424 C 71.891 158.798 72.505 160.684 72.834 161.232 C 78.447 170.589 84.873 179.558 91.188 188.454 C 93.202 191.288 95.174 194.665 97.762 197.032 C 99.516 198.637 103.752 198.093 105.951 198.346 C 111.757 199.023 117.531 200.077 122.961 202.232 C 121.207 203.082 119.383 203.794 117.482 204.176 C 116.578 204.359 116.146 205.760 116.906 206.361 C 118.857 207.909 119.991 209.745 120.927 211.820 C 117.877 210.763 114.800 210.132 111.489 209.799 C 110.626 209.709 109.946 210.727 110.189 211.504 C 110.712 213.177 110.808 214.733 110.683 216.358 C 93.703 201.775 79.097 184.620 61.980 170.117 C 59.818 168.286 58.538 167.910 58.148 168.390 C 57.959 168.623 57.972 169.051 58.213 169.628 C 58.543 170.420 59.279 171.471 60.436 172.613 C 60.489 172.588 93.824 204.270 110.737 219.806 L 110.737 219.806 L 110.737 219.806 L 110.737 219.806 L 110.737 219.806 Z " transform="matrix(0.8145061731338501, 0, 0, 0.8145061731338501, -2.75, 0.4)"/>
    </g>
    <g id="L_Leg">
      <path id="Fill_3_" fill="#96C93D" d="M 29.265 169.048 C 28.077 179.748 29.635 188.094 37.203 196.199 C 37.531 196.547 37.617 196.950 37.552 197.317 C 37.542 197.439 37.507 197.558 37.447 197.669 C 37.382 197.809 37.289 197.933 37.186 198.047 C 37.176 198.058 37.165 198.066 37.155 198.076 C 37.051 198.184 36.934 198.273 36.806 198.346 C 36.806 198.346 36.805 198.347 36.805 198.347 C 36.805 198.347 34.084 200.047 32.051 201.444 C 31.719 201.714 31.394 201.991 31.075 202.275 C 31.030 202.315 30.987 202.359 30.941 202.400 C 30.670 202.645 30.401 202.893 30.142 203.149 C 29.857 203.430 29.580 203.719 29.310 204.014 C 29.292 204.034 29.274 204.051 29.257 204.070 C 28.970 204.385 28.692 204.709 28.424 205.040 C 27.157 206.607 25.821 208.433 25.279 210.412 C 25.189 210.739 25.129 211.067 25.079 211.397 C 26.106 210.641 27.297 210.157 28.725 209.917 C 29.382 209.804 30.014 210.188 30.028 210.906 C 30.057 212.939 30.308 214.823 30.845 216.677 C 31.813 214.444 33.523 212.566 35.701 211.348 C 36.297 211.015 37.124 211.304 37.293 211.994 C 37.827 214.180 38.246 216.737 39.757 218.436 C 39.510 211.235 45.450 201.973 50.870 198.011 C 43.597 192.800 40.660 181.237 45.354 173.466 C 45.724 172.716 46.412 172.051 46.623 171.777 C 46.643 171.751 46.677 171.732 46.703 171.710 C 37.978 157.695 28.610 168.022 28.610 168.022 C 29.014 168.173 29.326 168.519 29.265 169.048 L 29.265 169.048 L 29.265 169.048 L 29.265 169.048 L 29.265 169.048 Z " transform="matrix(0.8145061731338501, 0, 0, 0.8145061731338501, -2.75, 0.4)"/>
      <path id="Outline_5_" fill="#231F20" d="M 52.680 195.968 C 45.692 191.974 42.999 181.881 46.679 174.796 C 46.655 174.719 48.357 172.194 47.560 171.654 C 47.266 171.455 46.906 171.531 46.703 171.709 C 46.677 171.731 46.643 171.750 46.623 171.776 C 46.412 172.050 45.724 172.715 45.354 173.465 C 40.660 181.236 43.597 192.799 50.870 198.010 C 45.450 201.972 39.510 211.234 39.757 218.435 C 38.246 216.736 37.827 214.178 37.293 211.993 C 37.124 211.303 36.297 211.014 35.701 211.347 C 33.523 212.565 31.813 214.443 30.845 216.676 C 30.308 214.822 30.057 212.939 30.028 210.905 C 30.014 210.186 29.382 209.802 28.725 209.916 C 27.297 210.156 26.106 210.641 25.079 211.396 C 25.129 211.066 25.189 210.738 25.279 210.411 C 25.821 208.432 27.157 206.606 28.424 205.039 C 28.692 204.708 28.970 204.385 29.257 204.069 C 29.274 204.050 29.293 204.033 29.310 204.013 C 29.580 203.718 29.857 203.429 30.142 203.148 C 30.402 202.892 30.670 202.644 30.941 202.399 C 30.986 202.358 31.029 202.314 31.075 202.274 C 31.393 201.990 31.719 201.712 32.051 201.443 C 34.084 200.047 36.805 198.346 36.805 198.346 C 36.805 198.346 36.806 198.345 36.806 198.345 C 36.934 198.273 37.051 198.184 37.155 198.075 C 37.166 198.064 37.176 198.056 37.186 198.046 C 37.290 197.932 37.382 197.808 37.447 197.668 C 37.507 197.558 37.542 197.439 37.552 197.316 C 37.617 196.949 37.531 196.545 37.203 196.198 C 29.635 188.093 28.077 179.747 29.265 169.047 C 29.326 168.518 29.014 168.172 28.609 168.020 C 27.579 167.110 26.740 169.722 26.754 169.730 C 24.472 179.981 27.609 189.388 34.417 197.128 C 31.237 199.081 28.268 201.518 26.022 204.490 C 24.071 207.078 21.251 211.532 23 214.830 C 23.285 215.368 23.975 215.348 24.348 214.975 C 24.550 214.911 24.743 214.775 24.889 214.552 C 25.729 213.285 26.735 212.594 28.019 212.190 C 28.209 215.071 28.857 217.733 30.130 220.403 C 30.590 221.367 31.918 220.800 31.983 219.901 C 32.141 217.615 33.451 215.130 35.462 213.861 C 36.121 216.969 36.983 220.106 40.003 221.694 C 40.535 221.972 41.042 221.832 41.388 221.510 C 41.641 221.421 41.845 221.229 41.893 220.900 C 42.479 216.825 42.836 213.408 44.561 209.560 C 45.923 206.521 47.790 203.781 49.879 201.212 C 51.256 199.582 52.804 198.217 52.804 198.217 L 52.801 198.214 C 53.433 197.649 53.632 196.513 52.680 195.968 L 52.680 195.968 L 52.680 195.968 L 52.680 195.968 L 52.680 195.968 Z " transform="matrix(0.8145061731338501, 0, 0, 0.8145061731338501, -2.75, 0.4)"/>
    </g>
    <g id="Head_1_">
      <g id="Head">
        <path id="ID0.5975310066714883" fill="#96C93D" d="M 52.535 38.444 C 56.687 31.347 52.958 24.016 49.381 17.274 L 49.381 17.274 C 47.226 12.507 45.107 5.942 45.107 5.942 C 44.146 4.062 42.721 2.465 40.324 2.541 C 37.874 2.616 35.291 3.731 34.211 6.112 C 32.131 10.700 31.078 15.997 29.285 20.758 C 26.350 28.554 26.070 39.036 35.079 42.881 C 40.856 45.343 49.101 44.314 52.535 38.444 L 52.535 38.444 L 52.535 38.444 L 52.535 38.444 L 52.535 38.444 Z " transform="matrix(0.8145061731338501, 0, 0, 0.8145061731338501, -2.75, 0.4)"/>
        <path id="ID0.6923145093023777" fill="#231F20" d="M 47.382 45.454 C 47.974 45.270 48.583 44.982 49.158 44.666 C 50.335 44.018 51.353 43.246 51.682 42.960 C 60.951 34.936 55.481 23.783 50.696 14.648 L 47.226 5.503 C 47.089 4.966 46.901 4.461 46.655 3.998 L 46.654 3.996 C 45.474 1.778 43.112 0.420 40.323 0.062 C 35.437 -0.562 32.263 3.611 30.928 7.676 C 29.714 11.369 29.150 15.178 27.799 18.865 C 26.553 22.280 25.520 25.724 25.122 29.344 C 24.594 34.200 26.698 39.128 30.192 42.411 C 31.295 43.447 32.581 44.283 33.972 44.932 C 33.974 44.948 33.975 44.964 33.977 44.980 C 34.097 45.016 34.215 45.057 34.335 45.093 C 34.928 45.276 35.517 45.473 36.090 45.712 C 39.741 46.842 43.837 46.778 47.382 45.454 L 47.382 45.454 L 47.382 45.454 L 47.382 45.454 L 47.382 45.454 Z M 29.284 20.756 C 31.077 15.995 32.130 10.698 34.210 6.110 C 35.290 3.729 37.873 2.614 40.323 2.539 C 42.720 2.463 44.145 4.060 45.106 5.940 C 45.106 5.940 47.225 12.505 49.380 17.272 L 49.380 17.272 C 52.958 24.015 56.686 31.345 52.534 38.442 C 49.100 44.312 40.855 45.341 35.077 42.878 C 26.069 39.034 26.349 28.552 29.284 20.756 L 29.284 20.756 L 29.284 20.756 L 29.284 20.756 L 29.284 20.756 Z " transform="matrix(0.8145061731338501, 0, 0, 0.8145061731338501, -2.75, 0.4)"/>
      </g>
      <path id="Mouth" fill="#231F20" d="M 30.095 33.099 C 33.033 37.402 35.852 41.231 41.414 41.597 C 46.894 41.958 50.178 37.683 52.395 33.300 C 53.069 31.968 51.067 30.794 50.391 32.129 C 48.387 36.087 46.430 39.798 41.412 39.931 C 36.770 40.054 33.915 35.532 31.632 32.202 C 30.988 31.259 29.445 32.148 30.095 33.099 L 30.095 33.099 L 30.095 33.099 L 30.095 33.099 L 30.095 33.099 L 30.095 33.099 Z " transform="matrix(0.8145061731338501, 0, 0, 0.8145061731338501, -2.75, 0.4)"/>
      <g id="R_Eye">
        <path id="Pupil_1_" fill="#231F20" d="M 45.782 9.395 C 43.006 9.397 43.006 13.700 45.782 13.700 C 48.555 13.699 48.555 9.395 45.782 9.395 L 45.782 9.395 L 45.782 9.395 L 45.782 9.395 L 45.782 9.395 Z " transform="matrix(0.8145061731338501, 0, 0, 0.8145061731338501, -2.75, 0.4)"/>
        <path id="White_1_" fill="#FFFFFF" d="M 49.971 10.871 C 49.617 8.487 47.339 6.451 44.965 6.806 C 42.590 7.161 41.011 9.776 41.367 12.160 C 41.723 14.537 43.999 16.587 46.374 16.232 C 48.749 15.879 50.326 13.253 49.971 10.871 L 49.971 10.871 L 49.971 10.871 L 49.971 10.871 L 49.971 10.871 Z M 45.782 13.699 C 43.006 13.699 43.006 9.396 45.782 9.394 C 48.555 9.395 48.555 13.699 45.782 13.699 L 45.782 13.699 L 45.782 13.699 L 45.782 13.699 L 45.782 13.699 Z " transform="matrix(0.8145061731338501, 0, 0, 0.8145061731338501, -2.75, 0.4)"/>
        <path id="Outline_1_" fill="#231F20" d="M 52.355 10.512 C 51.794 6.774 48.400 4.183 44.770 4.727 C 42.505 5.066 40.685 6.544 39.771 8.516 C 39.220 9.705 38.998 11.073 39.209 12.479 C 39.293 13.044 39.450 13.578 39.655 14.084 C 40.807 16.923 43.713 18.724 46.793 18.263 C 50.422 17.720 52.915 14.250 52.355 10.512 L 52.355 10.512 L 52.355 10.512 L 52.355 10.512 L 52.355 10.512 Z M 46.374 16.233 C 43.999 16.587 41.723 14.538 41.367 12.161 C 41.011 9.776 42.590 7.162 44.965 6.807 C 47.339 6.453 49.617 8.489 49.971 10.872 C 50.326 13.253 48.749 15.879 46.374 16.233 L 46.374 16.233 L 46.374 16.233 L 46.374 16.233 L 46.374 16.233 Z " transform="matrix(0.8145061731338501, 0, 0, 0.8145061731338501, -2.75, 0.4)"/>
      </g>
      <g id="L_Eye">
        <path id="Pupil" fill="#231F20" d="M 34.171 9.395 C 31.395 9.397 31.395 13.700 34.171 13.700 C 36.944 13.699 36.944 9.395 34.171 9.395 L 34.171 9.395 L 34.171 9.395 L 34.171 9.395 L 34.171 9.395 Z " transform="matrix(0.8145061731338501, 0, 0, 0.8145061731338501, -2.75, 0.4)"/>
        <path id="White" fill="#FFFFFF" d="M 38.360 10.871 C 38.006 8.487 35.728 6.451 33.354 6.806 C 30.979 7.161 29.400 9.776 29.756 12.160 C 30.112 14.537 32.388 16.587 34.763 16.232 C 37.138 15.879 38.715 13.253 38.360 10.871 L 38.360 10.871 L 38.360 10.871 L 38.360 10.871 L 38.360 10.871 Z M 34.171 13.699 C 31.395 13.699 31.395 9.396 34.171 9.394 C 36.944 9.395 36.944 13.699 34.171 13.699 L 34.171 13.699 L 34.171 13.699 L 34.171 13.699 L 34.171 13.699 Z " transform="matrix(0.8145061731338501, 0, 0, 0.8145061731338501, -2.75, 0.4)"/>
        <path id="Outline" fill="#231F20" d="M 40.744 10.512 C 40.183 6.774 36.789 4.183 33.159 4.727 C 30.894 5.066 29.074 6.544 28.160 8.516 C 27.609 9.705 27.387 11.073 27.598 12.479 C 27.682 13.044 27.839 13.578 28.044 14.084 C 29.196 16.923 32.102 18.724 35.182 18.263 C 38.811 17.720 41.304 14.250 40.744 10.512 L 40.744 10.512 L 40.744 10.512 L 40.744 10.512 L 40.744 10.512 Z M 34.763 16.233 C 32.388 16.587 30.112 14.538 29.756 12.161 C 29.400 9.776 30.979 7.162 33.354 6.807 C 35.728 6.453 38.006 8.489 38.360 10.872 C 38.715 13.253 37.138 15.879 34.763 16.233 L 34.763 16.233 L 34.763 16.233 L 34.763 16.233 L 34.763 16.233 Z " transform="matrix(0.8145061731338501, 0, 0, 0.8145061731338501, -2.75, 0.4)"/>
      </g>
    </g>
    <g id="R_Arm">
      <path id="Fill_1_" fill="#96C93D" d="M 54.892 84.300 C 55.117 83.993 55.255 84.010 55.629 84.042 C 55.799 84.057 56.013 84.074 56.315 84.066 C 66.343 85.069 71.834 94.212 65.806 103.103 C 62.573 107.874 60.065 112.688 61.811 118.709 C 63.432 124.299 67.608 127.510 73.036 127.448 C 71.977 125.971 71.944 124.053 72.249 121.830 C 72.354 121.067 73.315 120.885 73.880 121.166 C 77.312 122.865 83.388 122.095 84.687 117.834 C 81.995 117.721 77.290 117.221 77.291 114.523 C 77.292 114.012 77.628 113.643 78.087 113.478 C 80.235 112.707 82.390 111.680 83.718 109.857 C 81.111 110.337 78.560 109.750 76.538 107.586 C 74.157 105.036 75.241 101.505 76.345 98.724 C 78.119 94.252 80.951 87.707 77.931 83.169 C 72.873 75.564 62.269 77.166 54.892 80.265 C 54.465 80.445 54.012 80.568 53.642 80.816 C 53.246 81.082 52.746 81.060 52.423 80.871 C 52.189 81.513 52.101 82.472 52.892 83.547 C 53.719 84.672 54.437 84.996 54.894 84.957 C 54.792 84.738 54.748 84.496 54.892 84.300 L 54.892 84.300 L 54.892 84.300 L 54.892 84.300 L 54.892 84.300 Z " transform="matrix(0.8145061731338501, 0, 0, 0.8145061731338501, -2.75, 0.4)"/>
      <path id="Outline_3_" fill="#231F20" d="M 85.990 115.685 C 84.432 115.664 83.024 115.565 81.477 115.247 C 78.674 114.668 80.319 115.008 82.317 113.912 C 84.540 112.691 86.063 110.816 86.770 108.424 C 87.063 107.435 85.999 106.862 85.197 107.213 C 81.348 108.892 76.072 107.009 77.393 101.919 C 77.852 100.159 78.699 98.461 79.332 96.761 C 80.840 92.740 81.770 88.484 80.644 84.254 C 77.714 73.240 63.276 75.262 54.890 78.595 C 54.426 78.780 53.547 79.134 53.544 79.122 C 51.842 79.801 51.890 80.562 52.421 80.872 C 52.744 81.060 53.245 81.082 53.640 80.817 C 54.010 80.568 54.462 80.445 54.890 80.266 C 62.267 77.167 72.871 75.564 77.929 83.170 C 80.950 87.708 78.117 94.253 76.343 98.725 C 75.239 101.506 74.155 105.037 76.536 107.587 C 78.557 109.751 81.108 110.339 83.716 109.858 C 82.388 111.681 80.234 112.708 78.085 113.479 C 77.626 113.644 77.290 114.013 77.289 114.524 C 77.287 117.221 81.992 117.721 84.685 117.835 C 83.386 122.096 77.310 122.866 73.878 121.167 C 73.314 120.886 72.353 121.068 72.247 121.831 C 71.942 124.055 71.976 125.973 73.034 127.449 C 67.606 127.511 63.430 124.300 61.809 118.710 C 60.063 112.689 62.570 107.874 65.804 103.104 C 71.832 94.213 66.341 85.070 56.313 84.067 C 56.011 84.075 55.797 84.058 55.627 84.043 C 55.253 84.011 55.115 83.994 54.890 84.301 C 54.746 84.497 54.789 84.739 54.892 84.960 C 55.031 85.259 55.283 85.517 55.348 85.551 C 56.848 86.343 58.996 86.849 58.978 86.829 C 59.460 86.968 60.991 87.550 61.049 87.639 C 63.426 88.810 65.314 90.744 66.172 93.611 C 67.296 97.363 64.087 101.642 63.358 102.717 C 60.382 107.104 58.868 110.835 59.175 116.249 C 59.699 125.419 67.303 131.025 76.165 129.356 C 77.088 129.183 77.291 127.712 76.436 127.312 C 74.455 126.387 74.162 125.083 74.248 123.665 C 75.259 123.980 76.324 124.145 77.396 124.172 C 78.297 124.168 80.070 123.988 80.057 123.937 C 83.606 123.206 86.667 120.815 87.080 116.780 C 87.146 116.177 86.539 115.693 85.990 115.685 L 85.990 115.685 L 85.990 115.685 L 85.990 115.685 L 85.990 115.685 Z " transform="matrix(0.8145061731338501, 0, 0, 0.8145061731338501, -2.75, 0.4)"/>
    </g>
    <g id="R_Arm_1_">
      <path id="Fill_2_" fill="#96C93D" d="M 33.147 84.432 C 32.885 84.156 32.750 84.191 32.383 84.270 C 32.216 84.306 32.006 84.351 31.705 84.381 C 21.888 86.657 17.610 96.428 24.726 104.475 C 28.543 108.793 31.645 113.248 30.683 119.444 C 29.789 125.194 26.058 128.913 20.667 129.546 C 21.528 127.946 21.316 126.038 20.729 123.874 C 20.527 123.130 19.551 123.071 19.027 123.423 C 15.840 125.548 9.716 125.560 7.883 121.501 C 10.539 121.044 15.141 119.946 14.795 117.271 C 14.729 116.765 14.348 116.441 13.872 116.337 C 11.643 115.847 9.374 115.103 7.825 113.466 C 10.472 113.609 12.927 112.700 14.655 110.294 C 16.691 107.461 15.164 104.097 13.714 101.480 C 11.382 97.272 7.737 91.143 10.153 86.256 C 14.197 78.067 24.919 78.300 32.632 80.431 C 33.078 80.555 33.543 80.619 33.942 80.818 C 34.368 81.031 34.862 80.945 35.158 80.717 C 35.472 81.323 35.682 82.264 35.035 83.431 C 34.359 84.652 33.688 85.066 33.229 85.086 C 33.303 84.854 33.315 84.608 33.147 84.432 L 33.147 84.432 L 33.147 84.432 L 33.147 84.432 L 33.147 84.432 Z " transform="matrix(0.8145061731338501, 0, 0, 0.8145061731338501, -2.75, 0.4)"/>
      <path id="Outline_4_" fill="#231F20" d="M 6.316 119.534 C 7.858 119.315 9.242 119.036 10.736 118.522 C 13.442 117.590 11.854 118.139 9.733 117.307 C 7.373 116.381 5.622 114.715 4.615 112.433 C 4.198 111.489 5.179 110.784 6.020 111.030 C 10.052 112.202 15.044 109.661 13.083 104.782 C 12.403 103.095 11.346 101.519 10.500 99.914 C 8.490 96.120 7.024 92.017 7.599 87.678 C 9.097 76.380 23.675 76.540 32.418 78.774 C 32.902 78.898 33.819 79.137 33.820 79.125 C 35.595 79.581 35.644 80.342 35.157 80.717 C 34.861 80.945 34.367 81.031 33.941 80.818 C 33.543 80.619 33.078 80.555 32.631 80.431 C 24.918 78.301 14.196 78.067 10.152 86.256 C 7.736 91.143 11.381 97.272 13.713 101.480 C 15.163 104.098 16.690 107.461 14.654 110.294 C 12.926 112.700 10.471 113.608 7.824 113.466 C 9.374 115.103 11.642 115.847 13.871 116.337 C 14.347 116.441 14.727 116.765 14.794 117.271 C 15.141 119.947 10.538 121.044 7.882 121.501 C 9.715 125.560 15.840 125.548 19.026 123.423 C 19.550 123.071 20.526 123.130 20.728 123.874 C 21.314 126.038 21.527 127.946 20.666 129.546 C 26.057 128.913 29.789 125.194 30.682 119.444 C 31.644 113.249 28.542 108.794 24.725 104.475 C 17.610 96.428 21.887 86.657 31.704 84.381 C 32.004 84.350 32.214 84.306 32.382 84.270 C 32.749 84.191 32.883 84.156 33.146 84.432 C 33.314 84.608 33.302 84.854 33.228 85.085 C 33.128 85.400 32.912 85.687 32.852 85.730 C 31.465 86.707 29.399 87.483 29.415 87.461 C 28.955 87.661 27.511 88.434 27.465 88.529 C 25.257 89.995 23.632 92.154 23.147 95.106 C 22.512 98.971 26.242 102.805 27.102 103.778 C 30.614 107.748 32.592 111.255 32.980 116.665 C 33.632 125.825 26.807 132.360 17.805 131.837 C 16.867 131.784 16.478 130.351 17.274 129.845 C 19.121 128.673 19.245 127.341 18.979 125.947 C 18.017 126.390 16.981 126.689 15.921 126.853 C 15.027 126.964 13.246 127.013 13.252 126.958 C 9.639 126.687 6.297 124.708 5.372 120.759 C 5.233 120.169 5.772 119.613 6.316 119.534 L 6.316 119.534 L 6.316 119.534 L 6.316 119.534 L 6.316 119.534 Z " transform="matrix(0.8145061731338501, 0, 0, 0.8145061731338501, -2.75, 0.4)"/>
    </g>
  </g>
</svg>