<?xml version="1.0" encoding="UTF-8" standalone="no"?>
<svg
   version="1.1"
   width="137.79617"
   height="152.26854"
   id="svg30"
   sodipodi:docname="dinosaur1-f.svg"
   xmlns:inkscape="http://www.inkscape.org/namespaces/inkscape"
   xmlns:sodipodi="http://sodipodi.sourceforge.net/DTD/sodipodi-0.dtd"
   xmlns="http://www.w3.org/2000/svg"
   xmlns:svg="http://www.w3.org/2000/svg">
  <defs
     id="defs34" />
  <sodipodi:namedview
     id="namedview32"
     pagecolor="#ffffff"
     bordercolor="#000000"
     borderopacity="0.25"
     inkscape:showpageshadow="2"
     inkscape:pageopacity="0.0"
     inkscape:pagecheckerboard="0"
     inkscape:deskcolor="#d1d1d1" />
  <!-- Exported by Scratch - http://scratch.mit.edu/ -->
  <g
     id="ID0.7960998872295022"
     transform="matrix(0.94999999,0,0,0.94999999,-0.76017,-0.61753462)">
    <g
       id="Back_Arm">
      <path
         id="Fill_1_"
         fill="#96c93d"
         d="m 141.338,69.022 c 6.734,-3.66 7.671,-10.132 4.436,-17.116 -2.896,-6.257 -12.449,-16.866 -5.604,-22.739 -2.779,-0.338 -6.18,1.92 -6.383,4.726 -0.041,0.574 -0.706,0.655 -1.087,0.372 l -0.006,0.007 c -0.009,-0.008 -0.017,-0.019 -0.025,-0.026 -0.032,-0.026 -0.057,-0.055 -0.084,-0.086 -1.87,-1.693 -2.552,-4.496 -1.967,-6.705 -3.497,1.116 -5.048,5.354 -3.464,9.035 0.322,0.755 -0.754,1.559 -1.554,1.15 -2.099,-1.069 -3.874,-2.93 -5.086,-5.137 -1.448,5.578 3.127,11.645 6.875,15.162 3.314,3.112 6.545,5.998 7.792,10.63 2.053,7.627 -5.738,11.676 -11.388,7.876 -0.466,-0.312 -0.341,-1.129 0.142,-1.166 -5.611,-1.592 -6.488,1.898 -6.594,3.61 8.232,3.904 15.994,4.752 23.997,0.407 z"
         transform="matrix(0.90249997,0,0,0.90249997,0.8,0.65)" />
      <path
         id="Outline_3_"
         fill="#231f20"
         d="m 149.782,63.254 c 0.813,-2.307 0.699,-4.812 0.111,-7.255 0,0 -0.542,-2.16 -1.469,-4.33 -0.008,0.006 -0.014,0.014 -0.02,0.02 -0.333,-0.741 -0.688,-1.461 -1.052,-2.142 -2.718,-5.109 -11.843,-15.132 -3.963,-19.233 1.163,-0.605 0.486,-2.219 -0.568,-2.479 -3.395,-2.108 -8.377,0.272 -9.913,3.906 -1.213,-1.67 -1.319,-2.959 -0.742,-5.003 0.104,-0.37 -0.256,-0.821 -0.62,-0.787 -4.511,0.442 -7.638,4.289 -6.839,8.679 -1.576,-1.186 -3.002,-2.643 -3.612,-4.526 -0.045,-0.135 -0.107,-0.255 -0.188,-0.367 -0.004,-0.003 -0.006,-0.009 -0.01,-0.013 -0.502,-0.67 -1.593,-0.881 -2.033,0.083 -2.431,5.331 0.369,12.814 4.28,16.905 2.79,2.913 6.652,5.438 8.679,9.05 0.801,1.429 1.474,3.477 1.478,5.374 0.386,2.66 -0.97,3.247 -0.97,3.247 -0.093,0.146 -0.225,0.272 -0.373,0.392 -0.251,0.247 -0.526,0.478 -0.867,0.662 -1.377,0.746 -2.665,0.779 -3.963,0.52 -2.22,-1.329 -2.976,-1.079 -3.148,-0.98 -0.012,0.011 -0.032,0.019 -0.044,0.029 -0.482,0.037 -0.607,0.854 -0.142,1.166 5.649,3.8 13.44,-0.249 11.388,-7.876 -1.247,-4.632 -4.478,-7.518 -7.792,-10.63 -3.748,-3.518 -8.323,-9.584 -6.875,-15.162 1.212,2.207 2.987,4.067 5.086,5.137 0.8,0.408 1.876,-0.396 1.554,-1.15 -1.584,-3.681 -0.033,-7.919 3.464,-9.035 -0.585,2.209 0.097,5.012 1.967,6.705 0.027,0.031 0.052,0.06 0.084,0.086 0.009,0.008 0.017,0.019 0.025,0.026 l 0.006,-0.007 c 0.381,0.283 1.046,0.202 1.087,-0.372 0.203,-2.806 3.604,-5.063 6.383,-4.726 -6.845,5.873 2.708,16.482 5.604,22.739 3.235,6.984 2.299,13.456 -4.436,17.116 -8.003,4.345 -15.766,3.497 -23.997,-0.407 -0.075,-0.036 -0.148,-0.067 -0.225,-0.103 -0.265,-0.128 -0.496,-0.096 -0.679,0.014 -0.033,0.006 -0.062,0.03 -0.095,0.045 -0.002,0.13 -0.014,0.257 -0.033,0.385 0.079,0.215 0.145,0.437 0.183,0.663 0.028,0.027 0.063,0.061 0.078,0.074 0.198,0.164 0.354,0.364 0.487,0.576 0.4,0.254 0.818,0.49 1.246,0.719 10.075,5.418 27.242,4.276 31.478,-7.735 z"
         transform="matrix(0.90249997,0,0,0.90249997,0.8,0.65)" />
    </g>
    <g
       id="Tail">
      <path
         id="Fill"
         fill="#96c93d"
         d="m 38.01,118.175 c -0.297,0.054 -0.623,0.02 -0.957,-0.155 C 24.79,111.608 8.859,108.436 18.072,91.329 20.042,87.672 20.524,83.854 20.679,79.657 20.886,74.022 17.8,70.886 14.552,66.86 11.653,63.267 11.95,59.047 14.236,55.282 c 4.103,-6.759 16.087,-11.076 20.698,-2.656 2.188,4 -1.025,8.188 -4.886,9.496 3.758,1.588 7.687,0.66 9.569,-4.633 2.667,-7.494 -4.125,-13.617 -10.311,-15.432 -13.95,-4.093 -28.684,9.668 -24.05,23.954 2.159,6.661 5.88,11.38 5.327,18.78 -0.201,2.707 -1.313,5.19 -2.559,7.555 -2.504,4.756 -5.018,8.683 -5.497,14.215 -0.812,9.334 4.974,18.875 12.827,23.449 5.622,3.275 13.121,3.588 18.197,7.635 0.213,0.17 0.3,0.401 0.311,0.64 1.242,-0.964 9.011,-7.648 4.48,-20.663 -0.128,0.173 -0.246,0.353 -0.332,0.553 z"
         transform="matrix(0.90249997,0,0,0.90249997,0.8,0.65)" />
      <path
         id="Outline_2_"
         fill="#231f20"
         d="M 33.552,137.645 C 28.476,133.598 20.977,133.286 15.355,130.01 7.501,125.436 1.716,115.895 2.528,106.561 3.007,101.029 5.521,97.102 8.025,92.346 9.27,89.982 10.382,87.498 10.584,84.791 11.137,77.391 7.416,72.672 5.257,66.011 0.622,51.725 15.357,37.964 29.308,42.057 c 6.186,1.814 12.978,7.938 10.311,15.432 -1.883,5.293 -5.812,6.221 -9.569,4.633 3.86,-1.309 7.074,-5.496 4.886,-9.496 -4.611,-8.42 -16.596,-4.103 -20.698,2.656 -2.285,3.765 -2.583,7.985 0.316,11.578 3.248,4.026 6.334,7.162 6.127,12.797 -0.155,4.197 -0.638,8.015 -2.607,11.672 -9.213,17.107 6.719,20.279 18.981,26.691 0.334,0.175 0.66,0.209 0.957,0.155 0.086,-0.2 0.204,-0.38 0.333,-0.554 0.027,-0.036 0.052,-0.075 0.08,-0.111 0.017,-0.175 0.047,-0.346 0.09,-0.516 -0.438,-0.897 -1.15,-1.907 -1.712,-2.607 -0.844,-0.541 -1.748,-1.053 -2.684,-1.55 -8.305,-4.414 -19.218,-7.658 -14.44,-19.62 2.822,-7.067 5.28,-11.094 2.988,-18.625 -1.188,-3.908 -6.049,-6.781 -7.724,-10.284 -2.026,-4.233 1.396,-8.548 4.995,-10.961 2.673,-1.791 7.1,-3.965 10.27,-1.965 6.371,4.019 -0.834,10.442 -4.227,7.948 -0.295,-0.289 -0.582,-0.592 -0.859,-0.908 -0.544,-0.621 -1.25,-0.526 -1.733,-0.118 -0.604,0.337 -0.948,1.04 -0.431,1.786 0.31,0.443 0.653,0.814 1.021,1.131 3.826,3.912 9.678,6.805 14.538,2.667 4.204,-3.58 5.777,-10.246 2.885,-15.163 C 34.238,36.556 14.153,36.991 6.037,47.827 1.188,54.3 0.519,62.387 4.042,69.637 c 3.024,6.22 6.292,13.345 2.646,20.14 -2.355,4.392 -5.463,8.382 -6.315,13.435 -1.505,8.906 1.583,20.105 8.607,26.184 3.383,2.925 7.266,4.928 11.452,6.46 3.851,1.414 8.097,3.32 12.227,3.578 0.049,0.003 0.099,0.012 0.147,0.015 0.609,0.031 1.08,-0.59 1.057,-1.163 -0.011,-0.24 -0.098,-0.471 -0.311,-0.641 z"
         transform="matrix(0.90249997,0,0,0.90249997,0.8,0.65)" />
    </g>
    <g
       id="Back_Leg">
      <path
         id="Fill_4_"
         fill="#96c93d"
         d="m 69.519,129.579 c 1.081,1.614 1.582,3.254 1.704,4.91 0,0.196 -0.027,2.214 -0.277,3.77 -0.318,1.63 -0.84,3.271 -1.403,4.93 -1.022,2.993 -2.25,5.778 1.452,7.518 1.921,0.904 3.952,1.585 5.969,2.282 5.829,2.012 15.322,4.909 18.228,10.802 1.258,-2.158 -0.068,-4.614 -1.728,-6.115 -0.549,-0.49 -0.167,-1.381 0.599,-1.394 2.004,-0.031 3.903,0.137 5.779,0.621 -0.837,-1.527 -2.137,-2.938 -3.717,-3.669 -0.668,-0.311 -0.57,-1.381 0.189,-1.521 1.715,-0.316 3.398,-0.184 5.109,-0.035 -3.208,-4.229 -12.259,-6.77 -16.933,-7.826 -0.255,-0.055 -0.422,-0.189 -0.538,-0.343 -0.959,-0.382 -1.568,-1.562 -0.625,-2.476 6.648,-6.401 16.184,-12.714 18.539,-21.804 1.361,-5.252 -0.278,-10.871 -5.988,-13.395 -5.632,-2.488 -11.559,-1.857 -17.315,-0.149 -0.375,0.112 -0.661,-0.016 -0.82,-0.231 -9.475,4.404 -8.901,21.479 -8.763,23.96 0.184,-0.063 0.406,-0.031 0.539,0.165 z"
         transform="matrix(0.90249997,0,0,0.90249997,0.8,0.65)" />
      <path
         id="Outline_6_"
         fill="#231f20"
         d="m 86.5,142.468 c 4.573,-4.121 10.577,-8.884 14.515,-14.374 0.735,-0.986 2.321,-3.87 2.321,-3.87 1.453,-3.018 2.141,-6.235 1.566,-9.659 -0.905,-5.421 -4.327,-8.856 -8.779,-10.628 -5.377,-2.141 -12.248,-1.849 -18.002,0.343 -0.575,0.216 -0.647,0.815 -0.382,1.172 0.16,0.216 0.444,0.342 0.82,0.229 5.759,-1.704 11.687,-2.336 17.315,0.15 5.71,2.523 7.351,8.142 5.989,13.394 -2.355,9.09 -11.894,15.403 -18.539,21.805 -0.944,0.912 -0.333,2.094 0.626,2.476 0.114,0.152 0.281,0.287 0.538,0.342 4.673,1.056 13.725,3.596 16.932,7.827 -1.709,-0.147 -3.397,-0.282 -5.109,0.034 -0.762,0.142 -0.856,1.212 -0.189,1.521 1.58,0.73 2.876,2.141 3.716,3.671 -1.875,-0.483 -3.774,-0.65 -5.778,-0.623 -0.766,0.013 -1.148,0.905 -0.599,1.397 1.659,1.499 2.985,3.955 1.728,6.113 -2.904,-5.893 -12.4,-8.792 -18.229,-10.802 -2.016,-0.696 -4.048,-1.378 -5.968,-2.281 -3.702,-1.739 -2.477,-4.523 -1.452,-7.518 0.563,-1.656 1.086,-3.301 1.402,-4.931 0.25,-1.555 0.278,-3.573 0.278,-3.77 -0.124,-1.655 -0.623,-3.296 -1.705,-4.909 -0.13,-0.197 -0.355,-0.233 -0.542,-0.171 -0.209,0.066 -0.369,0.262 -0.296,0.509 0.024,0.082 0.041,0.157 0.064,0.239 0.33,1.14 0.41,2.209 0.512,3.227 0.224,2.293 -1.656,7.872 -1.624,7.951 -0.584,1.834 -1.128,3.738 -1.262,5.899 -0.114,1.998 1.104,3.527 2.866,4.623 8.142,5.065 18.907,5.716 25.224,13.248 0.062,0.635 0.92,1.15 1.478,0.537 2.116,-2.331 1.739,-5.339 0.052,-7.694 1.764,0.114 3.466,0.444 5.154,1.068 0.645,0.24 1.239,-0.478 1.065,-1.016 -0.557,-1.721 -1.67,-3.5 -3.148,-4.817 1.359,0.047 2.714,0.263 4.059,0.365 0.581,0.044 1.102,-0.615 0.89,-1.116 -2.266,-5.367 -11.41,-8.374 -17.507,-9.961 z"
         transform="matrix(0.90249997,0,0,0.90249997,0.8,0.65)" />
    </g>
    <g
       id="Body">
      <path
         id="Fill_5_"
         fill="#96c93d"
         d="m 156.312,24.018 c -2.125,-3.432 -5.671,-5.915 -8.986,-8.028 -7.021,-4.478 -14.626,-6.326 -22.61,-7.903 -8.002,-1.581 -21.991,-1.694 -23.736,9.222 -1.072,6.702 0.824,14.157 2.021,20.727 2.434,13.364 7.149,30.939 -0.284,43.473 -0.07,0.12 -0.164,0.18 -0.264,0.218 -0.244,0.291 -0.619,0.461 -1.018,0.263 -24.331,-12.052 -60.157,4.587 -63.458,32.529 0,0 -0.884,25.966 13.354,30.747 0.014,0.002 0.025,0.003 0.038,0.003 1.125,0.053 2.307,0.096 3.544,0.123 0.002,-0.001 0.005,-0.001 0.007,-0.001 0.042,0.001 0.084,0.002 0.127,0.005 0.592,0.013 1.198,0.02 1.812,0.024 0.025,0 0.05,0 0.075,0 0.644,0.005 1.301,0.006 1.97,-0.003 0.026,0.002 0.055,0.001 0.079,0 0.612,-0.005 1.233,-0.016 1.86,-0.031 0.096,-0.003 0.188,-0.003 0.283,-0.007 1.313,-0.034 2.661,-0.089 4.037,-0.169 0.133,-0.008 0.268,-0.017 0.4,-0.025 0.634,-0.038 1.274,-0.082 1.922,-0.133 0.052,-0.005 0.102,-0.007 0.151,-0.011 0.696,-0.056 1.401,-0.119 2.108,-0.188 0.137,-0.015 0.272,-0.029 0.408,-0.041 0.59,-0.059 1.184,-0.127 1.78,-0.196 0.148,-0.017 0.291,-0.032 0.437,-0.051 0.706,-0.085 1.42,-0.178 2.133,-0.279 0.104,-0.016 0.208,-0.031 0.313,-0.047 0.612,-0.09 1.228,-0.185 1.847,-0.285 0.185,-0.032 0.367,-0.062 0.551,-0.093 0.71,-0.121 1.421,-0.247 2.135,-0.385 0.008,-0.001 0.017,-0.003 0.025,-0.005 0.715,-0.136 1.433,-0.287 2.149,-0.443 0.195,-0.044 0.391,-0.086 0.587,-0.131 0.586,-0.133 1.174,-0.268 1.761,-0.414 0.149,-0.036 0.3,-0.071 0.449,-0.11 0.71,-0.177 1.417,-0.365 2.124,-0.563 0.178,-0.05 0.355,-0.102 0.532,-0.152 0.563,-0.162 1.127,-0.33 1.69,-0.506 0.193,-0.062 0.39,-0.119 0.585,-0.183 0.704,-0.225 1.405,-0.457 2.105,-0.703 0.115,-0.041 0.229,-0.085 0.347,-0.126 0.598,-0.215 1.195,-0.436 1.79,-0.666 0.205,-0.08 0.411,-0.162 0.616,-0.242 0.614,-0.245 1.226,-0.497 1.835,-0.759 0.093,-0.04 0.185,-0.077 0.277,-0.119 0.684,-0.296 1.361,-0.611 2.035,-0.935 0.192,-0.092 0.385,-0.188 0.575,-0.28 0.537,-0.263 1.069,-0.534 1.599,-0.813 0.166,-0.09 0.331,-0.171 0.495,-0.26 0.658,-0.356 1.312,-0.724 1.959,-1.104 0.153,-0.092 0.306,-0.188 0.461,-0.28 0.519,-0.312 1.032,-0.634 1.541,-0.964 0.183,-0.118 0.367,-0.233 0.547,-0.354 0.636,-0.422 1.265,-0.854 1.885,-1.303 0.062,-0.043 0.121,-0.091 0.182,-0.135 0.565,-0.414 1.121,-0.84 1.671,-1.279 0.175,-0.138 0.347,-0.277 0.52,-0.418 0.51,-0.417 1.016,-0.845 1.513,-1.285 0.097,-0.085 0.196,-0.168 0.291,-0.254 0.577,-0.519 1.144,-1.057 1.701,-1.604 0.146,-0.144 0.29,-0.294 0.438,-0.44 0.441,-0.447 0.877,-0.906 1.306,-1.374 0.134,-0.146 0.271,-0.288 0.402,-0.437 0.529,-0.594 1.048,-1.2 1.554,-1.827 0.098,-0.122 0.192,-0.245 0.288,-0.367 0.42,-0.529 0.831,-1.07 1.232,-1.624 0.131,-0.184 0.267,-0.365 0.396,-0.55 0.478,-0.68 0.949,-1.37 1.4,-2.085 2.791,-4.259 5.118,-8.856 7.029,-13.595 3.129,-7.75 2.856,-16.319 1.755,-24.676 -0.429,-3.267 -0.983,-6.501 -1.513,-9.641 -1.877,-11.096 -4.512,-22.361 -8.352,-32.957 -0.002,-0.005 -0.002,-0.014 -0.005,-0.02 -0.017,-0.052 -0.027,-0.105 -0.038,-0.157 -0.005,-0.028 -0.015,-0.058 -0.016,-0.083 -0.149,-1.026 0.72,-2.177 1.884,-1.583 4.187,2.138 11.286,6.601 15.327,1.691 -0.697,-0.504 -1.338,-1.089 -1.938,-1.762 -2.534,-2.844 -3.167,-5.428 -8.478,-3.729 -5.083,1.623 -3.609,-5.807 -8.24,-3.544 -1.504,0.735 -2.565,-1.801 -1.021,-2.428 2.005,-0.808 3.837,-1.312 5.651,0.165 0.69,0.562 0.926,2.479 1.318,3.253 1.005,1.975 2.835,-1.09 5.845,-0.896 2.939,0.191 4.356,2.566 6.128,4.789 3.687,4.625 12.58,5.108 17.574,3.086 5.017,-2.033 5.678,-8.259 3.191,-12.277 z"
         transform="matrix(0.90249997,0,0,0.90249997,0.8,0.65)" />
      <path
         id="Belly_1_"
         fill="#ffed00"
         d="m 118.708,89.68 c -1.734,10.309 -9.111,19.965 -20.896,32.99 -11.783,13.025 -36.007,8.438 -42.56,13.919 -4.45,3.72 -2.227,7.048 -0.341,8.801 0.002,-10e-4 0.005,0.002 0.007,0.002 0.042,0 0.084,0.001 0.127,0.002 0.593,0.013 1.198,0.021 1.812,0.025 0.025,0 0.05,0 0.075,10e-4 0.645,0.005 1.301,0.004 1.97,-0.002 0.026,0.001 0.055,-0.002 0.081,-0.001 0.61,-0.005 1.231,-0.017 1.858,-0.03 0.096,-0.003 0.189,-0.005 0.283,-0.009 1.313,-0.033 2.661,-0.088 4.037,-0.17 0.133,-0.007 0.268,-0.017 0.4,-0.022 0.634,-0.041 1.274,-0.083 1.922,-0.135 0.052,-0.005 0.102,-0.006 0.152,-0.011 0.696,-0.055 1.4,-0.119 2.108,-0.186 0.136,-0.016 0.271,-0.03 0.408,-0.043 0.589,-0.06 1.183,-0.125 1.779,-0.195 0.148,-0.018 0.291,-0.033 0.437,-0.052 0.706,-0.086 1.421,-0.177 2.133,-0.279 0.104,-0.016 0.208,-0.031 0.313,-0.047 0.612,-0.09 1.228,-0.186 1.847,-0.286 0.185,-0.031 0.367,-0.061 0.551,-0.092 0.71,-0.119 1.421,-0.246 2.136,-0.384 0.007,-0.003 0.016,-0.005 0.024,-0.007 0.715,-0.136 1.433,-0.287 2.149,-0.442 0.195,-0.045 0.391,-0.087 0.587,-0.131 0.587,-0.132 1.174,-0.269 1.761,-0.414 0.149,-0.037 0.3,-0.072 0.45,-0.11 0.709,-0.177 1.416,-0.365 2.123,-0.564 0.178,-0.048 0.355,-0.102 0.532,-0.152 0.563,-0.161 1.127,-0.33 1.69,-0.506 0.193,-0.06 0.391,-0.118 0.585,-0.182 0.704,-0.225 1.406,-0.457 2.105,-0.704 0.115,-0.04 0.23,-0.083 0.347,-0.125 0.599,-0.213 1.195,-0.437 1.79,-0.666 0.205,-0.08 0.411,-0.161 0.616,-0.243 0.614,-0.243 1.226,-0.496 1.836,-0.758 0.092,-0.041 0.184,-0.077 0.277,-0.117 0.683,-0.299 1.361,-0.612 2.034,-0.936 0.192,-0.092 0.385,-0.188 0.575,-0.282 0.537,-0.263 1.069,-0.533 1.599,-0.812 0.165,-0.088 0.331,-0.17 0.495,-0.261 0.658,-0.356 1.312,-0.724 1.959,-1.104 0.153,-0.091 0.306,-0.188 0.461,-0.279 0.519,-0.312 1.032,-0.633 1.541,-0.962 0.184,-0.118 0.367,-0.236 0.546,-0.355 0.637,-0.422 1.266,-0.854 1.886,-1.303 0.062,-0.044 0.122,-0.092 0.182,-0.137 0.565,-0.414 1.121,-0.84 1.671,-1.277 0.175,-0.14 0.347,-0.278 0.52,-0.42 0.51,-0.417 1.016,-0.845 1.513,-1.284 0.097,-0.083 0.196,-0.168 0.291,-0.255 0.577,-0.518 1.144,-1.054 1.701,-1.604 0.146,-0.144 0.29,-0.294 0.438,-0.439 0.44,-0.447 0.878,-0.906 1.306,-1.374 0.134,-0.146 0.271,-0.29 0.402,-0.437 0.53,-0.594 1.048,-1.202 1.554,-1.828 0.098,-0.12 0.192,-0.245 0.288,-0.368 0.421,-0.527 0.831,-1.069 1.232,-1.624 0.132,-0.181 0.267,-0.364 0.396,-0.55 0.479,-0.678 0.949,-1.369 1.4,-2.085 2.792,-4.257 5.118,-8.854 7.029,-13.594 3.13,-7.749 2.857,-16.318 1.756,-24.676 -2.896,-1.305 -8.934,1.536 -10.286,9.571 z"
         transform="matrix(0.90249997,0,0,0.90249997,0.8,0.65)" />
      <path
         id="Outline_7_"
         fill="#231f20"
         d="M 131.602,7.83 C 123.185,6.114 110.864,2.414 103.4,8.797 c -5.213,4.457 -5.331,10.213 -4.645,16.742 1.002,9.512 2.975,18.889 4.165,28.378 1.083,8.623 2.178,17.953 -0.998,26.229 -11.875,-7.269 -27.883,-5.464 -40.072,-0.052 -8.095,3.593 -15.181,9.008 -20.084,15.999 -2.69,4.121 -5.158,10.592 -5.557,11.654 -0.279,0.985 -0.526,1.988 -0.734,3.011 -0.223,1.089 -0.4,2.197 -0.523,3.334 0.003,0.161 0.014,0.309 0.018,0.47 v 0 c 0.508,17.826 5.666,26.273 10.313,30.272 v 0 c 3.534,3.039 6.762,3.518 7.428,3.583 0.046,0.004 0.091,0.006 0.136,0.009 54.989,3.523 70.723,-29.851 70.723,-29.851 0.508,-0.819 1.003,-1.647 1.483,-2.487 0.026,-0.044 0.052,-0.089 0.078,-0.134 0.484,-0.851 0.951,-1.713 1.397,-2.588 0.013,0.001 0.022,0.006 0.033,0.007 0.242,-0.461 0.479,-0.919 0.699,-1.368 -0.023,-0.006 -0.041,-0.013 -0.065,-0.017 0.84,-1.739 1.634,-3.507 2.344,-5.319 0.011,-0.03 0.02,-0.061 0.031,-0.089 0.761,-2.1 1.289,-3.957 1.646,-5.476 0.12,-0.539 0.23,-1.079 0.33,-1.621 0.004,10e-4 0.009,0.004 0.013,0.003 0.084,-0.43 0.155,-0.826 0.208,-1.161 -0.006,10e-4 -0.012,0.002 -0.019,0.003 1.36,-8.832 0.009,-17.989 -1.562,-26.891 -1.882,-10.666 -4.236,-21.545 -7.742,-31.854 5.224,2.322 12.124,4.141 15.31,-1.343 0.002,0.002 0.002,0.002 0.002,0.002 6.686,3.145 19.181,4.081 22.237,-4.91 C 165.081,18.387 142.121,9.974 131.602,7.83 Z m 21.524,28.462 c -4.994,2.022 -13.886,1.541 -17.574,-3.087 -1.771,-2.222 -3.188,-4.597 -6.127,-4.788 -3.011,-0.193 -4.841,2.871 -5.846,0.896 -0.392,-0.774 -0.628,-2.69 -1.318,-3.253 -1.814,-1.477 -3.646,-0.973 -5.651,-0.165 -1.545,0.627 -0.481,3.162 1.021,2.428 4.631,-2.263 3.157,5.166 8.24,3.544 5.311,-1.698 5.944,0.885 8.478,3.729 0.6,0.673 1.241,1.257 1.938,1.762 -4.041,4.908 -11.141,0.446 -15.327,-1.691 -1.163,-0.594 -2.031,0.556 -1.884,1.583 0.001,0.025 0.011,0.055 0.016,0.083 0.011,0.053 0.021,0.107 0.039,0.157 0.002,0.005 0.003,0.015 0.004,0.019 3.84,10.597 6.475,21.861 8.352,32.958 1.889,11.166 4.109,23.537 -0.241,34.316 -1.912,4.738 -4.237,9.335 -7.03,13.595 -0.45,0.715 -0.923,1.405 -1.4,2.084 -0.131,0.185 -0.266,0.367 -0.396,0.551 -0.401,0.554 -0.812,1.095 -1.232,1.624 -0.096,0.122 -0.19,0.245 -0.287,0.367 -0.507,0.627 -1.025,1.233 -1.556,1.827 -0.131,0.147 -0.268,0.29 -0.4,0.437 -0.43,0.468 -0.864,0.927 -1.308,1.373 -0.146,0.147 -0.29,0.297 -0.437,0.441 -0.557,0.548 -1.124,1.086 -1.701,1.604 -0.096,0.087 -0.194,0.169 -0.291,0.255 -0.497,0.44 -1.003,0.866 -1.513,1.285 -0.173,0.141 -0.345,0.28 -0.52,0.417 -0.55,0.439 -1.105,0.866 -1.671,1.279 -0.061,0.045 -0.12,0.092 -0.182,0.136 -0.618,0.45 -1.248,0.88 -1.886,1.302 -0.179,0.121 -0.363,0.237 -0.545,0.355 -0.51,0.329 -1.023,0.651 -1.542,0.964 -0.154,0.093 -0.307,0.188 -0.46,0.279 -0.648,0.382 -1.303,0.749 -1.96,1.105 -0.163,0.088 -0.329,0.17 -0.494,0.26 -0.529,0.278 -1.062,0.55 -1.601,0.813 -0.189,0.093 -0.381,0.188 -0.574,0.28 -0.674,0.323 -1.352,0.639 -2.035,0.935 -0.093,0.04 -0.185,0.079 -0.277,0.119 -0.608,0.262 -1.221,0.515 -1.835,0.758 -0.205,0.082 -0.411,0.163 -0.616,0.241 -0.595,0.231 -1.192,0.453 -1.79,0.668 -0.116,0.04 -0.229,0.085 -0.347,0.126 -0.698,0.245 -1.401,0.478 -2.105,0.703 -0.195,0.062 -0.392,0.121 -0.585,0.183 -0.562,0.175 -1.126,0.343 -1.69,0.507 -0.178,0.05 -0.355,0.103 -0.532,0.151 -0.707,0.198 -1.414,0.386 -2.124,0.563 -0.149,0.039 -0.299,0.073 -0.449,0.11 -0.587,0.146 -1.175,0.281 -1.761,0.414 -0.196,0.045 -0.392,0.087 -0.586,0.13 -0.718,0.157 -1.436,0.306 -2.15,0.444 -0.009,0.002 -0.019,0.004 -0.025,0.005 -0.714,0.137 -1.424,0.264 -2.135,0.385 -0.183,0.03 -0.366,0.061 -0.552,0.093 -0.617,0.1 -1.233,0.195 -1.846,0.285 -0.105,0.016 -0.209,0.031 -0.312,0.047 -0.714,0.1 -1.428,0.194 -2.132,0.279 -0.147,0.019 -0.29,0.034 -0.438,0.051 -0.596,0.069 -1.19,0.138 -1.78,0.196 -0.137,0.012 -0.272,0.028 -0.408,0.04 -0.706,0.069 -1.412,0.133 -2.108,0.188 -0.051,0.005 -0.102,0.007 -0.151,0.012 -0.647,0.051 -1.288,0.096 -1.922,0.132 -0.134,0.009 -0.266,0.018 -0.4,0.026 -1.376,0.08 -2.724,0.135 -4.037,0.169 -0.095,0.003 -0.188,0.004 -0.283,0.007 -0.627,0.016 -1.248,0.025 -1.86,0.031 -0.024,0.001 -0.053,0.001 -0.078,0.001 -0.67,0.006 -1.326,0.006 -1.971,0.002 -0.024,0 -0.049,-0.001 -0.075,0 -0.614,-0.005 -1.221,-0.013 -1.812,-0.024 -0.044,-0.004 -0.086,-0.004 -0.128,-0.006 -1.239,-0.026 -2.423,-0.067 -3.551,-0.121 -0.012,-0.001 -0.023,-0.001 -0.035,-0.001 0,0 0,0 -0.002,0.001 0,0 -0.001,0 -0.001,-0.003 -14.237,-4.781 -13.354,-30.747 -13.354,-30.747 3.299,-27.942 39.125,-44.581 63.455,-32.53 0.397,0.196 0.772,0.03 1.017,-0.264 0.102,-0.036 0.194,-0.097 0.265,-0.216 7.435,-12.533 2.719,-30.11 0.284,-43.475 -1.196,-6.567 -3.093,-14.023 -2.021,-20.725 1.746,-10.916 15.735,-10.804 23.736,-9.223 7.985,1.577 15.589,3.426 22.611,7.903 3.314,2.114 6.86,4.598 8.985,8.028 2.485,4.022 1.824,10.248 -3.188,12.278 z"
         transform="matrix(0.90249997,0,0,0.90249997,0.8,0.65)" />
    </g>
    <g
       id="Front_Leg">
      <path
         id="Fill_3_"
         fill="#96c93d"
         d="m 32.492,136.886 c 1.213,1.811 1.772,3.647 1.91,5.503 -10e-4,0.22 -0.031,2.48 -0.312,4.22 -0.354,1.828 -0.938,3.67 -1.572,5.525 -1.146,3.353 -2.521,6.474 1.627,8.421 2.149,1.013 4.426,1.777 6.687,2.557 6.53,2.254 17.166,5.5 20.419,12.101 1.408,-2.418 -0.076,-5.169 -1.934,-6.85 -0.618,-0.55 -0.189,-1.548 0.671,-1.561 2.242,-0.038 4.37,0.152 6.47,0.696 -0.937,-1.712 -2.392,-3.294 -4.159,-4.111 -0.75,-0.348 -0.643,-1.547 0.211,-1.704 1.92,-0.355 3.807,-0.207 5.724,-0.039 -3.594,-4.741 -13.733,-7.585 -18.969,-8.77 -0.287,-0.062 -0.474,-0.211 -0.603,-0.383 -1.074,-0.43 -1.757,-1.751 -0.699,-2.773 7.447,-7.17 18.129,-14.243 20.769,-24.427 1.525,-5.883 -0.313,-12.177 -6.709,-15.004 -6.309,-2.788 -12.947,-2.079 -19.396,-0.168 -0.42,0.125 -0.741,-0.016 -0.92,-0.259 -10.612,4.935 -9.971,24.062 -9.816,26.842 0.203,-0.071 0.454,-0.033 0.601,0.184 z"
         transform="matrix(0.90249997,0,0,0.90249997,0.8,0.65)" />
      <path
         id="Outline_5_"
         fill="#231f20"
         d="m 51.517,151.329 c 5.121,-4.615 11.85,-9.953 16.259,-16.103 0.824,-1.105 2.601,-4.335 2.601,-4.335 1.628,-3.379 2.399,-6.986 1.757,-10.82 -1.015,-6.073 -4.85,-9.923 -9.836,-11.907 -6.022,-2.396 -13.721,-2.07 -20.167,0.385 -0.643,0.242 -0.723,0.916 -0.426,1.312 0.179,0.242 0.498,0.381 0.92,0.257 6.45,-1.909 13.092,-2.618 19.396,0.168 6.396,2.829 8.234,9.121 6.709,15.004 -2.64,10.185 -13.322,17.254 -20.769,24.427 -1.059,1.021 -0.373,2.345 0.7,2.773 0.128,0.172 0.315,0.323 0.603,0.384 5.234,1.184 15.375,4.027 18.967,8.768 -1.914,-0.165 -3.803,-0.316 -5.723,0.041 -0.853,0.158 -0.961,1.356 -0.212,1.703 1.771,0.817 3.222,2.397 4.16,4.111 -2.099,-0.54 -4.228,-0.729 -6.471,-0.697 -0.859,0.013 -1.287,1.014 -0.67,1.563 1.856,1.681 3.343,4.432 1.934,6.85 -3.252,-6.601 -13.89,-9.849 -20.419,-12.1 -2.26,-0.78 -4.537,-1.545 -6.687,-2.558 -4.146,-1.947 -2.775,-5.068 -1.629,-8.42 0.635,-1.856 1.218,-3.698 1.573,-5.526 0.281,-1.739 0.311,-4 0.312,-4.22 -0.141,-1.854 -0.697,-3.691 -1.911,-5.503 -0.145,-0.219 -0.396,-0.257 -0.607,-0.188 -0.233,0.077 -0.414,0.295 -0.331,0.57 0.027,0.091 0.048,0.178 0.073,0.268 0.37,1.278 0.459,2.478 0.572,3.616 0.25,2.569 -1.854,8.818 -1.817,8.907 -0.656,2.056 -1.263,4.187 -1.411,6.61 -0.128,2.239 1.232,3.949 3.21,5.178 9.118,5.673 21.181,6.403 28.257,14.844 0.068,0.708 1.029,1.287 1.654,0.599 2.37,-2.609 1.948,-5.981 0.058,-8.618 1.976,0.13 3.883,0.496 5.774,1.195 0.721,0.27 1.388,-0.532 1.193,-1.137 -0.623,-1.929 -1.872,-3.921 -3.527,-5.398 1.523,0.053 3.041,0.296 4.547,0.41 0.65,0.051 1.234,-0.689 0.996,-1.25 -2.539,-6.016 -12.781,-9.386 -19.612,-11.163 z"
         transform="matrix(0.90249997,0,0,0.90249997,0.8,0.65)" />
    </g>
    <g
       id="R_Eye">
      <path
         id="White_1_"
         fill="#ffffff"
         d="m 132.089,4.287 c -2.306,-0.477 -4.626,1.438 -5.084,3.792 -0.456,2.353 0.968,5.047 3.277,5.523 2.306,0.474 4.63,-1.45 5.087,-3.803 0.457,-2.354 -0.971,-5.038 -3.28,-5.512 z"
         transform="matrix(0.90249997,0,0,0.90249997,0.8,0.65)" />
      <path
         id="Outline_1_"
         fill="#231f20"
         d="m 137.466,10.229 c 0.297,-1.535 0.071,-3.048 -0.539,-4.35 -0.859,-1.825 -2.488,-3.228 -4.55,-3.654 -3.527,-0.725 -6.967,1.681 -7.686,5.375 -0.716,3.694 1.561,7.276 5.093,8.002 2.379,0.489 4.717,-0.45 6.209,-2.244 0.715,-0.866 1.241,-1.927 1.473,-3.129 z m -2.096,-0.43 c -0.457,2.353 -2.781,4.279 -5.087,3.803 -2.309,-0.477 -3.733,-3.171 -3.277,-5.523 0.458,-2.354 2.778,-4.269 5.084,-3.792 2.308,0.474 3.736,3.158 3.28,5.512 z"
         transform="matrix(0.90249997,0,0,0.90249997,0.8,0.65)" />
      <path
         id="Pupil_1_"
         fill="#231f20"
         d="m 134.099,13.917 c 2.541,-0.343 2,-4.354 -0.539,-4.011 -2.541,0.344 -2.001,4.353 0.539,4.011 v 0 z"
         transform="matrix(0.90249997,0,0,0.90249997,0.8,0.65)" />
    </g>
    <g
       id="L_Eye">
      <path
         id="White"
         fill="#ffffff"
         d="m 121.787,2.446 c -2.577,-0.532 -5.17,1.605 -5.682,4.237 -0.51,2.628 1.083,5.64 3.662,6.172 2.577,0.531 5.174,-1.621 5.684,-4.249 0.51,-2.628 -1.085,-5.629 -3.664,-6.16 z"
         transform="matrix(0.90249997,0,0,0.90249997,0.8,0.65)" />
      <path
         id="Outline"
         fill="#231f20"
         d="m 127.794,9.088 c 0.332,-1.718 0.081,-3.409 -0.602,-4.861 -0.961,-2.041 -2.781,-3.609 -5.086,-4.082 -3.941,-0.813 -7.787,1.876 -8.59,6.004 -0.801,4.128 1.743,8.13 5.69,8.942 2.659,0.548 5.271,-0.502 6.937,-2.509 0.804,-0.966 1.391,-2.153 1.651,-3.494 z M 125.45,8.607 c -0.509,2.628 -3.105,4.781 -5.684,4.25 -2.579,-0.531 -4.173,-3.545 -3.662,-6.174 0.512,-2.631 3.104,-4.769 5.683,-4.236 2.579,0.53 4.173,3.531 3.663,6.16 z"
         transform="matrix(0.90249997,0,0,0.90249997,0.8,0.65)" />
      <path
         id="Pupil"
         fill="#231f20"
         d="m 123.446,13.09 c 2.838,-0.383 2.233,-4.864 -0.604,-4.482 -2.839,0.385 -2.235,4.865 0.604,4.482 v 0 z"
         transform="matrix(0.90249997,0,0,0.90249997,0.8,0.65)" />
    </g>
    <g
       id="Front_Arm">
      <path
         id="Fill_2_"
         fill="#96c93d"
         d="m 81.646,67.66 c -7.548,-1.048 -11.936,3.254 -13.205,10.275 -1.138,6.291 0.723,19.558 -8.155,20.1 2.08,1.81 6.123,2.032 7.858,0.055 0.355,-0.405 0.944,-0.093 1.098,0.333 l 0.007,-0.003 c 0.003,0.012 0.003,0.022 0.006,0.034 0.012,0.038 0.017,0.072 0.021,0.111 0.579,2.312 -0.433,4.783 -2.148,6.103 3.481,1.129 7.12,-1.162 7.889,-4.795 0.159,-0.743 1.487,-0.74 1.912,0.014 1.116,1.974 1.523,4.358 1.277,6.682 4.307,-3.347 3.968,-10.437 2.876,-15.161 -0.966,-4.179 -1.988,-8.143 -0.412,-12.296 2.593,-6.837 11.223,-5.488 13.71,0.514 0.204,0.494 -0.355,1.033 -0.77,0.79 3.69,4.334 6.361,2.223 7.406,1.005 C 96.479,73.892 90.615,68.907 81.646,67.66 Z"
         transform="matrix(0.90249997,0,0,0.90249997,0.8,0.65)" />
      <path
         id="Outline_4_"
         fill="#231f20"
         d="m 71.523,67.225 c -1.956,1.265 -3.266,3.198 -4.153,5.347 0,0 -0.768,1.915 -1.224,4.053 0.008,-0.001 0.017,-0.003 0.026,-0.003 -0.143,0.739 -0.257,1.473 -0.342,2.186 -0.64,5.333 1.201,17.925 -7.531,16.564 -1.289,-0.2 -1.64,1.382 -0.924,2.166 1.593,3.477 6.994,4.494 10.283,2.648 0.056,1.924 -0.58,2.945 -2.195,4.145 -0.292,0.219 -0.251,0.757 0.067,0.936 3.93,2.2 8.638,1.086 10.444,-2.636 0.624,1.767 0.971,3.652 0.415,5.4 -0.039,0.125 -0.055,0.251 -0.051,0.38 0,0.004 0,0.009 0,0.015 0.035,0.78 0.808,1.549 1.707,1.078 4.97,-2.612 6.875,-9.763 5.969,-15.006 -0.646,-3.737 -2.387,-7.785 -2.019,-11.614 0.146,-1.516 0.744,-3.419 1.802,-4.836 1.174,-2.201 2.61,-1.878 2.61,-1.878 0.156,-0.057 0.335,-0.077 0.523,-0.083 0.343,-0.043 0.697,-0.061 1.079,-0.007 1.542,0.215 2.612,0.913 3.526,1.835 1.069,2.235 1.826,2.473 2.022,2.496 0.017,-0.001 0.036,0.005 0.053,0.003 0.414,0.243 0.974,-0.296 0.77,-0.79 -2.487,-6.002 -11.117,-7.351 -13.71,-0.514 -1.576,4.153 -0.554,8.118 0.412,12.296 1.091,4.725 1.43,11.814 -2.876,15.161 0.247,-2.323 -0.161,-4.708 -1.277,-6.682 -0.424,-0.754 -1.753,-0.757 -1.912,-0.014 -0.769,3.633 -4.408,5.924 -7.889,4.795 1.715,-1.319 2.727,-3.791 2.148,-6.103 C 69.272,98.524 69.267,98.49 69.255,98.452 69.252,98.44 69.252,98.43 69.249,98.418 l -0.007,0.003 c -0.154,-0.426 -0.742,-0.738 -1.098,-0.333 -1.735,1.978 -5.778,1.755 -7.858,-0.055 8.878,-0.542 7.017,-13.809 8.155,-20.1 1.269,-7.021 5.657,-11.323 13.205,-10.275 8.969,1.247 14.833,6.232 19.37,13.759 0.041,0.068 0.084,0.133 0.125,0.203 0.146,0.244 0.354,0.349 0.562,0.37 0.031,0.014 0.068,0.013 0.103,0.021 0.073,-0.098 0.155,-0.186 0.243,-0.269 0.055,-0.205 0.126,-0.406 0.221,-0.596 -0.007,-0.037 -0.018,-0.082 -0.021,-0.099 -0.069,-0.235 -0.084,-0.471 -0.076,-0.704 -0.185,-0.413 -0.395,-0.824 -0.614,-1.235 C 96.365,69.418 81.706,60.644 71.523,67.225 Z"
         transform="matrix(0.90249997,0,0,0.90249997,0.8,0.65)" />
    </g>
  </g>
</svg>
