<?xml version="1.0" encoding="UTF-8" standalone="no"?>
<svg
   version="1.1"
   id="Layer_1"
   x="0px"
   y="0px"
   width="144.99706"
   height="53.746025"
   viewBox="0 0 144.99706 53.746025"
   enable-background="new 0 0 150 150"
   xml:space="preserve"
   sodipodi:docname="diver2.svg"
   xmlns:inkscape="http://www.inkscape.org/namespaces/inkscape"
   xmlns:sodipodi="http://sodipodi.sourceforge.net/DTD/sodipodi-0.dtd"
   xmlns="http://www.w3.org/2000/svg"
   xmlns:svg="http://www.w3.org/2000/svg"><defs
   id="defs53" /><sodipodi:namedview
   id="namedview51"
   pagecolor="#ffffff"
   bordercolor="#000000"
   borderopacity="0.25"
   inkscape:showpageshadow="2"
   inkscape:pageopacity="0.0"
   inkscape:pagecheckerboard="0"
   inkscape:deskcolor="#d1d1d1" />
  <g
   id="g48"
   transform="translate(-2.0011608,-46.999734)">
    <path
   fill="#272525"
   d="m 143.9,77.9 c 6.037,3.768 1.91,5.209 -1.107,3.928 -0.049,1.58 2.202,3.627 -0.2,4.811 -3.063,1.508 -5.541,-3.158 -7.604,-4.393 -0.371,3.076 -7.467,3.952 -5.7,-3.661 -2.901,-1.925 -10.854,-3.681 -11.983,-4.542 0.59,-3.42 3.168,-2.768 5.584,-4.449 2.619,-0.132 5.031,1.496 7.389,2.224 5.402,1.671 6.305,1.697 11.867,2.41 1.412,0.181 3.81,1.379 4.015,2.596 0.105,0.637 -0.651,0.996 -2.261,1.076 z"
   id="path2" />
    <path
   fill="#fc7900"
   d="m 141.562,75.155 c 1.016,0.32 2.392,0.539 2.676,1.529 -1.941,0.312 -4,-0.668 -5.875,0 0.059,0.146 5.879,2.662 7.096,3.801 l -0.116,0.557 c -2.94,-0.378 -4.735,-2.727 -7.678,-3.104 -1.06,0.309 0.213,0.869 0.29,1.297 1.513,1.692 3.373,3.34 3.781,5.47 -0.23,0.514 -0.973,0.182 -1.396,0.093 -1.957,-2.098 -3.567,-4.459 -6.167,-6.117 -0.844,-0.023 -1.375,2.954 -1.979,3.567 -0.784,0.097 -0.971,-0.699 -1.221,-1.112 -1.439,-2.369 3.75,-3.349 0,-4.681 l -11.461,-4.078 c -0.248,-0.312 2.311,-1.482 3.084,-1.808 6.383,2.155 11.435,6.19 18.966,4.586 z"
   id="path4" />
    <path
   fill="#272525"
   d="m 127.634,61.832 0.582,0.417 c 0.028,1.42 -0.03,7.162 -0.466,8.249 -0.829,2.073 -3.973,0.188 -4.576,1.471 -1.064,2.263 -3.724,2.966 -5.635,2.485 -0.604,3.366 -6.137,5.28 -8.148,5.61 -5.408,0.884 -9.959,-4.611 -11.192,-8.13 0,4.882 1.563,10.712 5.295,14.692 2.829,3.019 11.208,1.951 11.794,6.149 0.045,0.328 0.068,1.363 -0.102,1.637 -0.83,1.333 -3.531,-0.163 -4.713,-0.324 -0.125,1.525 0.57,4.276 -1.804,5.005 -1.396,0.429 -2.633,-0.337 -3.258,-1.252 -1.194,1.677 -1.586,2.336 -4.015,1.483 -1.33,-1.501 -1.739,-3.7 -0.697,-5.376 -0.94,-0.667 -2.542,-1.031 -3.083,-1.993 -1.759,-3.127 -4.554,-2.676 -6.573,-5.236 -3.318,-4.207 -5.003,-8.787 -5.003,-13.766 -1.138,-0.301 -2.593,-0.424 -3.665,0.093 1.064,1.379 -7.114,3.289 -8.609,3.245 l -0.582,-0.325 c -6.351,5.149 -15.576,6.412 -24.258,6.767 -4.73,0.193 -15.544,-0.922 -19.546,-2.873 -1.148,-0.56 -0.923,-1.692 -1.163,-2.596 0.697,-0.479 2.525,0.084 3.374,0.231 C 39.87,78.939 49.709,77.141 56.43,72.953 45.714,73.182 36.286,66.767 31.881,59.374 l 1.221,-3.43 c 1.056,-0.402 3.181,2.396 3.782,2.874 5.517,4.385 11.812,5.967 19.43,4.542 3.058,-0.572 5.899,-1.454 8.086,-3.336 2.467,-0.568 4.73,-1.619 7.271,-1.993 -1.017,-2.994 0.124,-7.075 4.42,-8.018 4.985,-1.093 15.593,0.455 21.409,0.371 3.331,-0.048 5.493,1.16 8.086,2.642 6.747,-12.207 28.762,-4.136 22.048,8.806 z"
   id="path6" />
    <path
   fill="#fc7900"
   d="m 126.527,59.931 -0.406,1.205 c -3.809,-0.989 -16.588,-4.948 -19.43,-5.191 2.487,-9.232 21.247,-9.226 19.836,3.986 z"
   id="path8" />
    <path
   fill="#82c400"
   d="m 99.305,52.469 c -1.688,0.557 -3.316,2.085 -3.666,3.569 -3.898,0.139 -7.679,-0.231 -11.402,-0.093 -0.465,-0.603 0.059,-1.761 -0.697,-2.225 -1.979,0.603 -4.936,0.138 -6.446,1.575 -0.175,0.695 0.396,1.762 -0.011,2.319 -1.164,-0.186 -1.92,0.278 -2.909,0.417 -1.105,-1.344 -1.105,-2.734 0,-4.125 2.849,-3.661 21.056,-1.622 25.131,-1.437 z"
   id="path10" />
    <path
   fill="#82c400"
   d="m 105.993,57.15 c 0.452,-0.203 17.853,5.328 20.128,6.025 v 6.21 c -2.43,1.094 -6.076,-0.016 -7.971,-1.437 -1.866,-1.4 -1.16,-3.769 -1.104,-5.562 -0.842,-0.764 -11.47,-3.246 -13.264,-3.476 1.985,-3.662 -2.853,-6.077 -5.47,-2.41 L 97.73,56.361 c 1.256,-2.48 5.135,-2.869 7.271,-0.88 0.528,0.49 0.567,1.666 0.992,1.669 z"
   id="path12" />
    <path
   fill="#a900f7"
   d="m 82.143,56.131 c 0.06,2.966 3.703,8.864 5.213,10.307 -0.078,0.713 -1.229,2.54 -1.023,3.273 -3.816,-2.91 -6.197,-8.765 -6.574,-12.885 0.675,-0.446 1.531,-0.61 2.384,-0.695 z"
   id="path14" />
    <path
   fill="#ffff00"
   d="m 115.477,73.834 c -0.473,1.527 -1.979,3.23 -3.772,3.745 -11.679,3.344 -17.407,-14.027 -10.308,-21.309 2.772,-0.415 -0.867,4.446 -1.104,5.098 -1.646,4.536 -0.567,9.002 3.897,12.235 2.322,1.682 4.731,1.853 7.679,1.251 1.242,-0.253 2.565,-2.288 3.608,-1.02 z"
   id="path16" />
    <path
   fill="#272525"
   d="m 33.705,55.564 c 2.468,3.509 -3.29,5.83 -5.468,8.25 -3.305,3.67 -5.074,7.441 -9.773,10.242 -3.237,1.93 -6.8,2.642 -10.296,4.125 C 7.947,77.988 12.155,68.48 2.002,67.15 1.919,65.35 8.03,65.365 3.805,55.797 c 0.9,-0.18 1.599,0.676 2.269,1.02 3.944,2.023 10.377,1.916 14.776,1.112 3.662,-0.67 9.332,-4.093 12.855,-2.365 z"
   id="path18" />
    <path
   fill="#82c400"
   d="m 31.901,56.816 c 0.702,4.455 -5.894,4.723 -8.144,7.786 -3.341,4.547 -5.03,8.8 -12.391,9.779 1.315,-3.207 -0.996,-8.069 -5.875,-8.111 1.654,-1.42 3.983,-6.001 1.687,-6.998 1.4,0.079 2.657,0.731 4.014,0.973 5.097,0.91 10.409,-0.036 14.902,-2.047 1.039,-0.465 2.095,-1.227 3.131,-1.614 0.843,-0.315 1.954,-0.245 2.676,0.232 z"
   id="path20" />
    <path
   fill="#fc7900"
   d="m 97.616,58.355 c -1.804,3.517 -1.509,6.559 -0.988,9.593 -0.976,4.618 -1.532,4.188 -0.407,9.13 0.91,3.998 3.006,9.674 7.389,12.234 2.402,1.404 8.623,1.16 9.25,3.662 -1.414,-0.257 -4.797,-2.512 -5.762,-1.252 1.477,1.412 2.034,3.522 1.106,5.237 l -0.698,0.231 c -0.713,-1.558 -0.436,-3.871 -2.326,-4.912 -0.979,0.356 -0.896,4.291 -2.561,5.561 h -0.232 c -0.232,-1.789 0.334,-3.557 0.523,-5.329 -5.438,-1.483 -2.028,-3.69 -5.003,-4.448 -6.113,-1.56 -8.575,-7.519 -9.249,-12.098 -0.756,-5.129 0.545,-6.717 1.861,-11.262 0.095,-0.326 -0.203,-0.749 -0.582,-0.88 -0.832,-0.288 -1.273,0.567 -1.804,0.88 -1.966,-1.997 -2.63,-4.561 -3.665,-6.905 2.63,-0.433 10.817,-0.35 13.148,0.558 z"
   id="path22" />
    <path
   fill="#fc7900"
   d="m 64.226,62.249 c 0.768,1.573 7.207,11.925 7.155,12.235 -9.417,7.899 -28.378,8.792 -40.372,4.681 l 0.174,-0.231 c 5.728,0.779 11.129,1.031 16.754,-0.324 6.48,-1.562 13.69,-4.44 15.59,-10.104 -1.12,-3.116 -2.367,2.642 -5.701,2.642 -5.555,0 -12.803,-1.073 -16.87,-4.311 -2.689,-2.14 -6.369,-5.241 -6.865,-8.342 6.265,7.54 21.319,9.691 30.135,3.754 z"
   id="path24" />
    <path
   fill="#82c400"
   d="m 79.757,73.046 c -1.506,0.642 -3.167,0.986 -4.77,1.438 -3.837,-3.152 -6.627,-9.252 -8.086,-13.44 1.414,-0.559 2.86,-1.075 4.188,-1.761 2.506,4.734 5.557,9.268 8.668,13.763 z"
   id="path26" />
    <path
   fill="#fc7900"
   d="m 85.242,71.328 -3.682,0.189 c -2.506,-3.345 -6.983,-8.286 -7.795,-11.586 1.28,0.075 2.354,-0.586 3.607,-0.649 1.129,3.388 1.534,6.589 7.87,12.046 z"
   id="path28" />
    <path
   fill="#a900f7"
   d="m 102.212,68.181 c -1.804,-2.503 -0.29,-5.608 0.698,-8.018 1.861,2.317 1.106,5.793 -0.698,8.018 z"
   id="path30" />
    <path
   fill="#fc7900"
   d="m 113.963,63.731 c 0.24,1.04 0.613,2.059 0.814,3.105 -1.139,1.428 -1.944,3.068 -1.396,4.773 -1.426,-1.135 -6.847,-3.516 -8.783,-3.336 1.065,-2.265 1.672,-5.231 0.582,-7.555 2.677,1.224 5.97,1.935 8.783,3.013 z"
   id="path32" />
    <path
   fill="#ffff00"
   d="m 121.643,71.286 c 0.498,2.346 -3.662,1.089 -4.771,0.788 -1.054,-1.026 -1.517,-2.588 -0.699,-3.8 1.32,1.461 3.322,2.489 5.47,3.012 z"
   id="path34" />
    <path
   fill="#ffffff"
   d="m 111.693,72.63 c -2.168,1.041 -7.387,-1.127 -8.086,-2.688 3.034,0.046 5.672,1.355 8.086,2.688 z"
   id="path36" />
    <path
   fill="#272525"
   d="m 28.279,100.507 c -0.468,0.609 -1.036,-0.133 -1.687,-0.185 C 21.686,98.253 16.27,98.543 11.059,99.627 12.857,89.871 7.807,90.268 7.743,88.504 21.96,88.145 23.323,78.059 27.696,77.057 c 0.677,-0.154 2.203,0.109 2.676,0.557 2.897,2.729 -2.64,8.392 -3.374,11.354 -1.024,4.145 0.052,7.535 1.281,11.539 z"
   id="path38" />
    <path
   fill="#82c400"
   d="m 29.676,78.957 c 1.244,4.561 -9.773,9.459 -5.352,18.909 -3.167,-0.849 -6.628,-2.269 -10.005,-1.251 0.623,-3.568 1.587,-4.663 -2.269,-7.23 6.16,-0.59 11.249,-4.027 13.961,-8.342 0.641,-1.022 1.968,-2.546 3.665,-2.086 z"
   id="path40" />
    <path
   fill="#272525"
   d="m 119.352,62.75 c 1.66,0 4.526,0.802 4.729,1.203 0.354,0.706 0.705,3.728 -0.102,4.329 -1.082,0.801 -2.967,-0.241 -4.125,-0.962 -1.788,-1.123 -1.208,-3.047 -0.502,-4.57 z"
   id="path42" />
    <path
   fill="#ffffff"
   d="m 123.174,64.794 c 0.178,0.812 0.311,2.146 -0.029,2.833 -2.484,-0.228 -3.641,-1.713 -2.938,-3.554 0.768,0.097 2.393,0.407 2.967,0.721 z"
   id="path44" />
    <ellipse
   fill="#272525"
   cx="122.62"
   cy="65.917"
   rx="1.006"
   ry="0.80199999"
   id="ellipse46" />
  </g>
</svg>
