<?xml version="1.0" encoding="UTF-8"?>
<svg id="Layer_1" xmlns="http://www.w3.org/2000/svg" version="1.1" viewBox="0 0 288 360">
  <!-- Generator: Adobe Illustrator 29.8.3, SVG Export Plug-In . SVG Version: 2.1.1 Build 3)  -->
  <defs>
    <style>
      .st0 {
        fill: #5c1f00;
      }

      .st1 {
        fill: #3e3927;
      }

      .st2 {
        fill: #080808;
      }

      .st3 {
        fill: #211f15;
      }

      .st4 {
        fill: #2e2b1d;
      }

      .st5 {
        fill: #090909;
      }

      .st6 {
        fill: #222015;
      }

      .st7 {
        fill: #bfb179;
      }

      .st8 {
        fill: #1c1a12;
      }

      .st9 {
        fill: #c8c8c8;
      }

      .st10 {
        fill: #cebf82;
      }

      .st11 {
        fill: #5d1f00;
      }

      .st12 {
        fill: #5a1e00;
      }

      .st13 {
        fill: #17160f;
      }

      .st14 {
        fill: #887838;
      }

      .st15 {
        fill: #4b452f;
      }

      .st16 {
        fill: #fe8eae;
      }

      .st17 {
        fill: #4f4a32;
      }

      .st18 {
        fill: #fefefe;
      }

      .st19 {
        fill: #887839;
      }
    </style>
  </defs>
  <path d="M75.81,191.94c-.79,10.75,1.06,23.34-9.12,30.12s-19.87,1.77-25.3-7.58c-5.85-10.09-2.98-21.41,2.02-31.17-19.04-5.64-32.03-22.56-30.23-42.84.63-7.04,4.15-15.63,12.05-16.78s20.18,10.31,29.69,6.32c-10.68-21.45,9.07-46.85,32.39-37.43l2.89-10.08c-12.89,3.45-35.5-.12-44.65-10.43-20.94-23.59,3.24-47.76,28.48-32.94,2.15-2.83,3.64-6.53,7.48-7.45,9.35-2.23,13.85,3.32,21.98,4.04,17.98,1.58,32.31-9.85,48.26,5.02,19.5,18.18,3.29,45.21-6.85,63.69,25.49,7.21,36.16,39.94,19.76,60.8-1.39,1.77-8.64,8.2-8.82,9.16-.46,2.44,5.02,7.4,7.12,8.5,6.08,3.17,21.41,2.44,28.2.92,9.01-2.02,14.2-9.61,23.97-10.59,8.89-.89,16.92,1.92,24.85,5.44,1.27-.62,4.69-7.37,5.37-9.06,3.86-9.65,5.01-25.06,1.85-34.94-1.15-3.59-8.43-12.73-.95-13.89,3.56-.55,11.23,8.83,13.02,11.91,10.35,17.79,8.74,41.23-7.03,55.3,5.48,6.25,8.72,14.22,9.93,22.44,1.81,12.23-2.29,22.34-1.35,34.47.36,4.61,2.39,9.43,2.83,13.73.67,6.68-7.89,34.59-10.36,42.77-1.53,5.05-3.78,15.17-8.24,17.68-8.08,4.54-28.08,6.63-34.27-1.81-.98-1.34-1.67-4.25-2.48-4.72-1.13-.66-5.65-.84-8.1-1.98-10.46-4.86-8.05-14.63-.51-21.01.86-.73,2.72-1.01,3.21-1.83.24-.4,1.09-5.38,1.09-6.16.05-6.09-4.43-9.32-6.22-14.78-12.79,3.28-25.93,6.04-39.16,4.37-.91,10.56-1.7,21.61-4.52,31.84-3.03,11.03-5.5,14.32-17.52,15.6-8.24.88-10.05-1.58-16.03-2.39-5.58-.76-8.66.46-14.75-2.65-11.04-5.63-10.47-23.36,2.48-26.27-.47-8.77.47-17.86-.02-26.59-.5-9.04-3.14-12.3-5.16-20.04-4.12-15.81-1.3-32.17,3.02-47.56-.02-.24-2.43-1.13-2.57-1.13h-27.72ZM130.53,102.65c2.37-.21,5.45.81,7.24-1.03,2.28-2.35,8.33-15.17,9.94-18.86,5.96-13.66,11.07-29.72-4.91-38.8-10.62-6.03-16.89-1.13-27.75-.34-3.8.27-9.97.38-13.7.04-9.99-.92-19.57-12.21-20.51,5.34-.46,8.48,2.07,12.53,8.86,17.11,15.38,10.37,29.8,7.65,43.35-3.78,2.56-2.16,9.35-12.34,12.27-6.46,2.6,5.24-6.62,10.73-7.42,13.47-.63,2.15.09,5.36-.15,7.77-.91,9-2.8,17.58-7.19,25.56ZM72.84,46.6c-.36-.56-11.04-4.18-12.58-4.34-7.51-.78-16.07,4.04-15.25,12.31,1.53,15.43,20.08,21.81,33.35,22.18,1.3.04,9.34-1.1,9.69-1.46,1.09-1.1-.46-1.28-.91-1.64-7.21-5.71-12.82-8.38-14.13-18.95-.22-1.81.3-7.38-.18-8.1ZM124.76,97.62c3.42-7.37,4.95-14.98,5.76-23.04-2.97,2.98-11.98,3.7-14.39,5.4-1.48,1.05-1.91,8.26-3.58,10.09,4.73,1.44,8.34,4.63,12.21,7.54ZM108.22,80.34l-10.08-1.45-3.6,14.4,11.35-3.76,2.33-9.19ZM104.43,97.79c-13.7,1.95-19.72,23.13-8.82,31.51,12.33,9.46,29.31.91,28.43-14.74-.53-9.48-10.1-18.13-19.62-16.77ZM65.27,102.92c-11.62,11.57-4.58,33.32,12.75,29.66,1.47-.31,7.21-2.66,7.07-4.23s-2.39-5.36-2.71-8.13c-.22-1.92-.25-4.48-.07-6.4.27-2.84,4.38-12.75,4.01-13.34-3-4.73-17.22-1.38-21.04,2.43ZM221.97,304.98c1.95,1.63-1.15,8.98,0,10.08h2.15c-.42-2.43,1.72-10.2,4.69-9.92,3.47.33-.03,5.79-.32,7.44-.22,1.24-.65,2.62.98,2.43s11.1-2.35,11.77-3c.57-.56,3.44-9.82,3.95-11.53,2.18-7.26,10.5-33.43,10.63-39.1.09-4.03-2.57-10.41-2.93-15.06-1.32-17.02,6.32-31.99-2.98-48.14-2.19-3.8-5.46-6.52-9.01-8.99-1-.7-6.52-4.25-7.06-4.22-.31.02-3.73,2.47-5.4,3.02-4.07,1.35-9.83,1.76-13.86.16-1.52-.6-5.19-3.86-5.95-3.9-.68-.04-9.24,5.53-12.03,6.45-13.37,4.4-37.57,5.16-46.06-8.34-7.38-11.73,1.94-14.32,8.04-22.48,5-6.69,6.41-13.19,5.76-21.57-1.37-17.93-16.17-27.89-33.11-28.45,3.84,20.04-14.17,36.8-33.83,29.15-1.82-.71-6.03-3.72-6.96-3.81-1-.1-11.32,5.46-15.8,5.54-5.49.1-10.78-4.5-12.89-4.68-1.04-.09-5.83,1.69-7.93,1.87-2.64.22-5.82.31-8.25-.71-2.04,7.57-7.56,12.1-14.83,14.36l2.56,15.88c-4.33-1.26-5.06-15.2-5.88-15.72s-4.93-.11-6.35-1.56c1.63,9.56,6.93,16.94,15.17,21.9,24.99,15.04,54.09.48,70.09-20.51,3.96-2.41,7.43.75,5.63,4.9-1.98,4.56-15.83,16.37-20.4,19.21-2.99,1.86-11.68,4.86-13.14,6.13-.73.63-.66,2.03-1.21,2.92,9-.14,18.03.2,27.03.04,3.81-.07,8.76.35,12.21-.03,3.97-.44,7.32-3.33,11.88-2.16,1.25,7.4-12.57,7.3-13.74,9.12s-4.58,19.04-4.97,22.21c-1.39,11.17-.84,25.55,6.17,34.85,1.38,1.82,3.5,3.73,5.34,5.1v-20.52c0-.18,2.1-2.27,2.67-2.41,3.04-.77,4.19,3.08,4.47,5.36,1.16,9.58.16,19.2.03,28.71-.09,6.49.99,27.57-1.8,32.04-2.39,3.81-10.24,5.25-3.56,11.55.41-1.75.65-7.48,2.95-7.88,4.07-.7,1.28,7.14,1.3,8.57.03,2.17,5.16,1.69,5.43,1.43.5-.48.32-8.4,3.29-9.32,3.59-.77.67,8.8,1.08,9.36,1.71-1.1,4.34-.83,5.96-1.59,2.88-1.35,5.58-17.46,6.17-21.19,2.61-16.59,4.2-33.57,5.95-50.22.07-.66.5-3.22,1.06-3.37,1.38-.37,3.94.43,5,1.46,4.38,4.26-1.07,21.36-1.09,27.36,17.57,3.68,34.58-7.36,51.81-5.01.79-.83-6.24-18.27-6.28-22.09-.04-4.24,5.08-5.85,7.56-.42,4.12,9.02,3.59,18.84,10.98,27.18,2.72,3.08,5.73,3.22,6.4,8s-1.54,29.01-4.45,31.79c-.65.62-1.82.7-2.69.91-1.31.3-1.74-.02-3.6.72-.36.14-.84-.3-1.48.48-1.26,1.53-2.64,7.04.03,8.16.02-2.69-.45-5.72,1.45-7.92.64-.12,1.65.17,2.16,0ZM256.53,140.82v16.2c0,1.73-1.89,8.3-2.52,10.44-1.74,5.88-4.25,11.19-8.28,15.84,2.13,2.12,6.41-3.61,7.49-5.1,4.79-6.59,7.53-15.15,6.89-23.33l-3.59-14.05ZM228.45,182.59c-5.12-1.22-9.86-2.24-15.11-.72.09.92,2.51,1.97,3.21,2.18,3.31.99,4.87.81,8.19.22.89-.16,3.61-.54,3.71-1.68ZM70.05,184.74c-2.23.62-5.72.13-7.13,1.87-3.29,4.08-3.78,14.31-4.35,19.41-.53,4.71-5.28,2.19-5.81-2.18-.74-6.19,1.37-12.71,3.61-18.37-5.38-.55-5.95-.04-8.29,4.3-4.09,7.58-4.71,18.44,1.78,24.88,4.23,4.2,10.45,4.63,14.78.32,5.81-5.77,2.92-22.34,5.4-30.23ZM121.06,264.05c-.18-.29-4.9-2.26-5.64-3.71.05,7.56-.08,15.14-.04,22.71.02,3.2,1.47,4.84,0,8.59-1.57,4.02-5.23,2.32-7.9,4.34-3.05,2.31-1.94,7.27.36,9.72.76-1.87.09-4.75,1.46-6.45,3.66-4.53,1.37,8.23,1.78,8.62h2.15c-.11-3.69-.34-6.4,1.42-9.74,1.4-2.64,5.27-4.65,5.64-5.88.7-2.3-.04-7.13.14-9.94.19-2.96,1.65-16.6.6-18.26ZM209.62,304.86c.37-.22,2.07-5.23,4.8-7.08,1.96-1.33,5.29-1.43,5.79-2.13,1.16-1.6,2.96-20.16,2.47-22.7-.23-1.22-5.1-6.37-6.25-6.71s-11.3-1.26-11.73-.86c.06,3.46,4.97,6.34,5.61,9.14.79,3.49.55,15.02-1.25,17.9-1.19,1.91-4.48,2.38-6.1,3.98-2.39,2.35-3.03,6.58,1.02,7.14,2.19-9.74,7.37-7.74,2.89,1.44.85-.1,2.08.28,2.76-.12Z"/>
  <path class="st10" d="M223.41,303.54c.87-.2,2.03-.28,2.69-.91,2.91-2.77,5.1-27.16,4.45-31.79s-3.68-4.92-6.4-8c-7.39-8.35-6.86-18.16-10.98-27.18-2.48-5.43-7.6-3.82-7.56.42.04,3.82,7.07,21.26,6.28,22.09-17.23-2.35-34.24,8.69-51.81,5.01.01-6,5.47-23.11,1.09-27.36-1.06-1.03-3.62-1.83-5-1.46-.56.15-.99,2.71-1.06,3.37-1.75,16.65-3.34,33.63-5.95,50.22-.59,3.73-3.29,19.84-6.17,21.19-1.62.76-4.24.49-5.96,1.59-.41-.56,2.51-10.13-1.08-9.36-2.97.92-2.78,8.83-3.29,9.32-.27.26-5.4.74-5.43-1.43-.02-1.43,2.77-9.27-1.3-8.57-2.31.4-2.54,6.13-2.95,7.88-6.68-6.3,1.17-7.74,3.56-11.55,2.8-4.46,1.71-25.55,1.8-32.04.13-9.5,1.13-19.12-.03-28.71-.28-2.28-1.43-6.13-4.47-5.36-.57.14-2.67,2.23-2.67,2.41v20.52c-1.84-1.37-3.96-3.28-5.34-5.1-7.02-9.29-7.56-23.68-6.17-34.85.39-3.17,3.83-20.43,4.97-22.21s14.98-1.71,13.74-9.12c-4.55-1.18-7.9,1.72-11.88,2.16-3.46.38-8.4-.04-12.21.03-9,.16-18.03-.18-27.03-.04.54-.89.48-2.29,1.21-2.92,1.46-1.27,10.15-4.27,13.14-6.13,4.57-2.84,18.42-14.66,20.4-19.21,1.8-4.14-1.68-7.3-5.63-4.9-16,20.99-45.1,35.55-70.09,20.51-8.24-4.96-13.54-12.34-15.17-21.9,1.42,1.45,5.5,1.01,6.35,1.56s1.55,14.46,5.88,15.72l-2.56-15.88c7.28-2.26,12.8-6.79,14.83-14.36,2.42,1.02,5.6.93,8.25.71,2.1-.18,6.89-1.96,7.93-1.87,2.11.19,7.4,4.78,12.89,4.68,4.48-.08,14.8-5.64,15.8-5.54.93.09,5.15,3.1,6.96,3.81,19.66,7.64,37.67-9.11,33.83-29.15,16.95.56,31.74,10.52,33.11,28.45.64,8.38-.76,14.88-5.76,21.57-6.1,8.16-15.42,10.75-8.04,22.48,8.49,13.5,32.69,12.75,46.06,8.34,2.79-.92,11.35-6.49,12.03-6.45.77.04,4.43,3.3,5.95,3.9,4.03,1.6,9.79,1.19,13.86-.16,1.66-.55,5.09-3,5.4-3.02.54-.03,6.06,3.52,7.06,4.22,3.55,2.48,6.82,5.19,9.01,8.99,9.31,16.14,1.67,31.12,2.98,48.14.36,4.65,3.02,11.03,2.93,15.06-.13,5.67-8.45,31.84-10.63,39.1-.51,1.71-3.38,10.97-3.95,11.53-.67.66-10.15,2.81-11.77,3s-1.2-1.19-.98-2.43c.29-1.66,3.79-7.11.32-7.44-2.97-.28-5.11,7.49-4.69,9.92h-2.15c-1.15-1.1,1.95-8.45,0-10.09-.55-.53-.07-1.01,1.44-1.44Z"/>
  <path class="st11" d="M130.53,102.65c4.4-7.98,6.28-16.56,7.19-25.56.24-2.4-.48-5.62.15-7.77.8-2.74,10.02-8.23,7.42-13.47-2.92-5.88-9.71,4.3-12.27,6.46-13.55,11.43-27.97,14.15-43.35,3.78-6.79-4.58-9.32-8.64-8.86-17.11.94-17.56,10.52-6.27,20.51-5.34,3.73.35,9.9.24,13.7-.04,10.86-.79,17.13-5.69,27.75.34,15.98,9.08,10.87,25.14,4.91,38.8-1.61,3.69-7.66,16.51-9.94,18.86-1.79,1.85-4.87.83-7.24,1.03Z"/>
  <path class="st18" d="M104.43,97.79c9.52-1.36,19.09,7.29,19.62,16.77.88,15.65-16.11,24.2-28.43,14.74-10.91-8.37-4.89-29.55,8.82-31.51Z"/>
  <path class="st11" d="M72.84,46.6c.47.73-.05,6.29.18,8.1,1.31,10.57,6.92,13.24,14.13,18.95.45.36,2,.54.91,1.64-.35.35-8.39,1.49-9.69,1.46-13.28-.37-31.83-6.75-33.35-22.18-.82-8.27,7.74-13.09,15.25-12.31,1.54.16,12.22,3.78,12.58,4.34Z"/>
  <path class="st18" d="M65.27,102.92c3.83-3.81,18.04-7.16,21.04-2.43.37.59-3.74,10.5-4.01,13.34-.18,1.92-.15,4.48.07,6.4.32,2.78,2.57,6.61,2.71,8.13s-5.6,3.92-7.07,4.23c-17.33,3.66-24.37-18.09-12.75-29.66Z"/>
  <path class="st16" d="M70.05,184.74c-2.48,7.89.41,24.46-5.4,30.23-4.34,4.31-10.56,3.87-14.78-.32-6.49-6.44-5.87-17.3-1.78-24.88,2.34-4.34,2.91-4.85,8.29-4.3-2.25,5.66-4.35,12.18-3.61,18.37.52,4.37,5.27,6.89,5.81,2.18.58-5.1,1.06-15.33,4.35-19.41,1.4-1.74,4.9-1.25,7.13-1.87Z"/>
  <path class="st19" d="M209.62,304.86c-.68.4-1.91.02-2.76.12,4.48-9.17-.7-11.17-2.89-1.44-4.05-.56-3.41-4.79-1.02-7.14,1.62-1.59,4.91-2.07,6.1-3.98,1.8-2.88,2.04-14.4,1.25-17.9-.63-2.81-5.55-5.69-5.61-9.14.43-.4,10.55.51,11.73.86s6.02,5.49,6.25,6.71c.48,2.54-1.31,21.1-2.47,22.7-.5.69-3.83.79-5.79,2.13-2.72,1.85-4.42,6.86-4.8,7.08Z"/>
  <path class="st14" d="M121.06,264.05c1.06,1.65-.41,15.29-.6,18.26s.56,7.64-.14,9.94c-.37,1.23-4.25,3.23-5.64,5.88-1.76,3.35-1.53,6.05-1.42,9.74h-2.15c-.41-.39,1.88-13.15-1.78-8.62-1.37,1.7-.7,4.58-1.46,6.45-2.3-2.45-3.41-7.41-.36-9.72,2.67-2.02,6.33-.31,7.9-4.34,1.46-3.75,0-5.39,0-8.59-.04-7.57.09-15.15.04-22.71.74,1.45,5.45,3.42,5.64,3.71Z"/>
  <path class="st0" d="M256.53,140.82l3.59,14.05c.64,8.18-2.1,16.74-6.89,23.33-1.08,1.49-5.36,7.22-7.49,5.1,4.02-4.65,6.54-9.96,8.28-15.84.63-2.13,2.52-8.71,2.52-10.44v-16.2Z"/>
  <polygon class="st0" points="108.22 80.34 105.89 89.53 94.54 93.3 98.14 78.9 108.22 80.34"/>
  <path class="st12" d="M228.45,182.59c-.1,1.14-2.81,1.52-3.71,1.68-3.32.59-4.88.77-8.19-.22-.7-.21-3.12-1.26-3.21-2.18,5.26-1.52,9.99-.5,15.11.72Z"/>
  <path class="st7" d="M219.81,304.26c.63.2.62.44,0,.72-1.9,2.2-1.43,5.23-1.45,7.92-2.67-1.13-1.29-6.64-.03-8.16.64-.77,1.12-.33,1.48-.48Z"/>
  <path class="st17" d="M223.41,303.54c-.44.32-1.06,1.31-1.44,1.44-.51.17-1.52-.12-2.16,0v-.72c1.86-.74,2.29-.42,3.6-.72Z"/>
  <path d="M220.34,192.11c9.07-1.67,22.63,9.02,21.76,18.1-1.56,16.31-29.62,12.17-30.59-5.28-.29-5.1,3.6-11.86,8.83-12.82Z"/>
  <path class="st13" d="M54.21,169.62c.4,1.93-.51,1.24-1.42,1.78-6.71,4.07-6.94-3.64,1.42-1.78Z"/>
  <path class="st4" d="M42.69,165.3c-2.21.03-5.39.7-5.03-2.51.65-2.37,5.26.61,5.03,2.51Z"/>
  <path class="st8" d="M55.65,158.83c-2.88,5.13-6.56.17-3.15-.69,1.01-.25,2.11.71,3.15.69Z"/>
  <path class="st3" d="M44.86,152.34c-1.93-1.96,3.57-3.24,4.31-3.6.5,1.68-3.39,4.53-4.31,3.6Z"/>
  <path class="st15" d="M47.01,156.67c-.67,1.35-3,2.7-3.59,1.06-1.03-2.88,1.72-1.24,3.59-1.06Z"/>
  <path class="st1" d="M61.41,149.46v2.15c-1.33.17-2.11.04-2.87-1.09v-1.07s2.87,0,2.87,0Z"/>
  <path class="st6" d="M61.06,163.86c2.46-.56,1.25,2.85-.01,2.86-1,.01-1.55-2.51.01-2.86Z"/>
  <path class="st2" d="M97.41,112.75c.12.08-1.43,2.54.37,2.87,1.95.36,1.25-3.43,2.88-1.45,1.41,3.65-.83,7.82-5.01,7.23-5.41-.77-3.17-8.95,1.76-8.65Z"/>
  <path class="st5" d="M74.37,113.46c1.11.46,2.31.7,3.6.72,2.53,2.68,1.66,6-1.65,7.39-5.05,2.12-8.45-5.88-1.95-8.11Z"/>
  <path class="st9" d="M77.97,114.18c-1.5,2.58-2.74,1.87-3.6-.72,1.8-.62,1.82-1.17,3.6.72Z"/>
  <path class="st0" d="M232.52,204.44c7.82,8.71-3.29,11.97-10.8,6.81-6.56-4.5-3.2-16.54,5.55-11.28.77.46,4.63,3.77,5.25,4.47Z"/>
</svg>