<?xml version="1.0" encoding="UTF-8" standalone="no"?>
<svg
   version="1.1"
   id="dog2-c"
   x="0px"
   y="0px"
   width="126.96501"
   height="103.13555"
   viewBox="0 0 126.96501 103.13555"
   enable-background="new 0 0 150 150"
   xml:space="preserve"
   sodipodi:docname="dog2-b.svg"
   xmlns:inkscape="http://www.inkscape.org/namespaces/inkscape"
   xmlns:sodipodi="http://sodipodi.sourceforge.net/DTD/sodipodi-0.dtd"
   xmlns="http://www.w3.org/2000/svg"
   xmlns:svg="http://www.w3.org/2000/svg"><defs
   id="defs45" /><sodipodi:namedview
   id="namedview43"
   pagecolor="#ffffff"
   bordercolor="#000000"
   borderopacity="0.25"
   inkscape:showpageshadow="2"
   inkscape:pageopacity="0.0"
   inkscape:pagecheckerboard="0"
   inkscape:deskcolor="#d1d1d1" />
  <g
   id="g40"
   transform="translate(-11.517119,-32.49004)">
    <g
   id="Front_Leg_2_1_">
      <path
   id="Fill"
   fill="#20a6d8"
   d="m 76.812,103.75 c 0,0 4.938,-17.625 7.75,-3.938 v 17 c 0,0 4.375,0.938 4.812,2.812 0.437,1.874 1.625,4.25 -1.312,5.562 0,0 -0.625,5.188 -5,4.938 0,0 -3.812,4.438 -7.312,1.562 -3.5,-2.875 -4.5,-6.75 -1.438,-9.812 z" />
      <path
   id="Outline_1_"
   fill="#272525"
   d="m 75.409,122.803 c -3.865,2.905 -0.318,9.256 3.911,8.537 3.416,-0.583 3.854,-6.46 0.666,-7.902 3.836,0.058 4.392,3.854 4.103,5.729 3.58,-1.338 3.548,-7.178 -1.479,-8.803 4.154,-0.23 5.271,1.979 5.729,3.977 3.213,-3.225 -1.729,-7.476 -4.814,-6.362 0.104,-2.041 0.039,-17.65 0.229,-19.291 0.639,-0.158 1.83,-3.807 1.688,1.625 0.064,0.951 0.188,14.935 0.043,16.055 7.886,0.847 5.509,9.421 3.188,9.25 -0.713,4.326 -3.413,5.832 -5.342,5.195 -1.456,2.155 -3.979,2.903 -6.295,2.545 -2.585,-0.4 -4.514,-2.074 -5.533,-4.723 -0.72,-1.869 -0.383,-4.828 0.955,-6.361 2.316,-2.652 3.062,-16.481 3.405,-17.93 0.199,-0.828 0.678,-3.044 1.201,-3.094 1.436,6.062 -0.481,16.506 -1.655,21.553 z" />
    </g>
    <g
   id="Back_Leg_2_1_">
      <path
   id="Fill_1_"
   fill="#20a6d8"
   d="m 31.75,88 c 0,0 4.25,-3.25 6.875,-1 2.625,2.25 4.125,8.875 0,12.5 -4.125,3.625 -7.625,7.625 -7.625,7.625 0,0 2.634,5.816 0,8.268 -2.634,2.452 -3.875,1.982 -5.125,-0.768 0,0 -1.875,0.887 -3.375,-0.994 C 21,111.75 21,111.75 21,111.75 v 0 c 0,0 -6.027,-2.477 -3.625,-6.625 2.402,-4.148 4.25,-3.527 4.25,-3.527 0,0 3.75,-0.348 5.625,-2.848 0,0 2.404,-9.555 4.5,-10.75 z" />
      <path
   id="Outline_2_"
   fill="#272525"
   d="m 33.125,88.25 c -4.475,2.479 -2.196,10.033 -7.372,13.341 -2.249,1.439 -6.156,0.808 -7.296,3.659 -1.469,3.672 3.215,8.414 6.057,1.271 0.345,0.062 0.361,0.605 0.476,0.898 0.095,2.029 -1.54,3.587 -3.004,4.452 0.446,2.065 4.98,4.065 5.854,-2.737 0.955,1.594 0.345,4.784 -1.037,5.656 0.872,2.275 3.342,1.502 4.375,-1.503 0.907,-2.638 -0.397,-5.214 -1.112,-6.451 0.894,-0.646 8.548,-10.397 9.434,-10.089 3.834,1.343 -3.375,4.875 -7.606,10.796 3.338,9.812 -4.53,13.079 -6.713,7.776 -1.869,0.63 -3.963,-0.859 -4.436,-2.915 -3.404,0.116 -5.257,-4.423 -4.339,-7.638 1.668,-5.847 7.165,-3.164 9.49,-5.729 2.203,-2.43 1.553,-5.053 2.854,-7.792 0.679,-1.431 1.299,-3.508 2.889,-4.25 0.33,0.079 1.852,0.607 1.486,1.255 z" />
    </g>
    <g
   id="Body">
      <path
   id="Body_Fill"
   fill="#20a6d8"
   d="m 81.496,53.132 c 0,0 -16.533,-13.259 -38.783,-5.509 -22.25,7.75 -16.5,20.5 -17.25,26.25 -0.75,5.75 3.125,19.77 19.25,27.572 16.125,7.802 40.625,7.178 53.25,-14.447 0,0 14.5,7.75 18.875,-4.125 0,0 14.5,2.25 14.375,-9.375 0,0 7.375,0.625 5.625,-11.125 -1.75,-11.75 -11.375,-10.875 -15.25,-12.125 -3.875,-1.25 -9.336,-3.444 -12.625,-10 -3.289,-6.556 -5.5,-8.5 -14.125,-6.125 -8.625,2.375 -13.342,15.634 -13.342,19.009 z" />
      <path
   id="Body_Outline"
   fill="#272525"
   d="m 135.732,56.779 c 0,0 -2.062,-5.13 -11.414,-6.831 -2.396,-0.644 -6.656,-1.769 -7.459,-2.173 -0.426,-0.215 -0.822,-0.485 -1.225,-0.824 C 107.822,43.172 111.835,30.122 97.085,32.866 82.336,35.61 80.79,52.248 80.79,52.248 65.367,39.873 49.295,44.494 35.712,48.936 24.441,52.623 24.644,66.419 24.566,67.833 c -0.29,5.338 0.485,12.95 2.557,17.487 0.037,0.082 0.118,0.234 0.223,0.418 14.37,27.576 41.26,21.246 43.142,20.922 2.625,-0.451 10.151,-1.373 17.413,-6.588 3.809,-2.734 6.297,-6.338 6.297,-6.338 L 94.186,93.73 c 1.689,-1.656 2.941,-3.379 4.277,-5.113 0.389,0.096 2.891,1.262 3.773,1.59 3.594,1.334 11.41,2.404 15.008,-6.326 8.436,2.037 14.006,-2.428 15.27,-9.551 6.896,-0.48 7.603,-11.059 3.218,-17.551 z m -3.136,15.352 c 0.035,-0.799 -0.541,-5.283 -1.104,-6.543 -0.191,-0.431 -1.307,-0.301 -1.322,0.55 -0.16,8.116 0.322,15.182 -8.064,15.782 -3.99,0.287 -10.578,-2.396 -13.996,0.201 3.254,-0.201 5.699,0.871 7.754,1.578 -4.357,6.814 -12.205,4.814 -18.09,1.619 -0.363,0.295 -4.994,7.48 -5.059,7.555 -3.33,3.928 -5.5,6.25 -11.922,8.572 C 43.26,115.016 28.97,85.119 28.889,84.984 26.789,78.986 25.917,75.235 26.438,68.77 l 0.24,-2.414 C 26.267,45.965 55.215,46.247 64.465,46.951 c 9.25,0.704 16.875,7.796 16.875,7.796 0,0 0.25,-12.5 12.125,-18.625 11.875,-6.125 13.643,2.942 15.875,6.5 2.234,3.558 5.014,5.418 5.014,5.418 1.613,1.432 3.439,2.489 5.717,2.789 2.676,0.468 13.156,2.605 14.844,7.631 1.476,4.106 2.2,12.173 -2.319,13.671 z" />
    </g>
    <g
   id="Back_Leg_1">
      <path
   id="Fill_2_"
   fill="#20a6d8"
   d="m 31.875,89.875 c 0,0 -1.25,-4.125 2,-4.5 C 37.125,85 41.5,89.75 45.5,98.5 c 4,8.75 9.25,18.125 9.25,18.125 0,0 6.25,-1.807 7.25,1.223 1,3.028 1.625,5.287 -0.875,6.782 0,0 0.625,6.62 -5,5.87 0,0 -1.938,5.061 -6.875,3.75 -4.937,-1.311 -7.25,-6.75 -4.125,-12.125 0,0 -12,-24.375 -13.25,-32.25 z" />
      <path
   id="Outline_3_"
   fill="#272525"
   d="m 46.292,121.541 c -6.081,17.381 15.792,12.738 5.818,3.288 2.341,-0.027 4.149,2.149 4.482,4.983 3.526,0.4 4.049,-4.363 1.956,-6.629 -0.771,-0.832 -1.593,-1.121 -2.766,-1.806 2.207,-0.954 4.553,0.618 5.484,1.909 2.002,-2.105 -1.114,-6.344 -3.434,-6.204 -1.096,0.063 -2.07,0.067 -3.433,1.008 -1.287,-2.301 -10.382,-17.237 -10.874,-19.549 -0.299,-1.396 1.427,-3.136 2.289,-1.271 l 9.634,18.013 c 4.004,-0.981 8.026,-0.351 8.584,5.196 0.291,2.896 -0.48,3.879 -2.11,4.98 0.08,4.107 -2.306,6.672 -5.424,5.992 -3.439,9.32 -19.897,1.652 -12.591,-9.438 -3.208,-3.005 -9.908,-21.162 -11.993,-28.177 -0.244,-0.819 -1.341,-5.422 -1.001,-5.989 0.347,-0.58 0.95,-0.017 1.146,0.37 1.312,2.597 2.172,5.898 3.298,8.652 2.474,6.059 7.441,19.27 10.935,24.672 z" />
    </g>
    <g
   id="Front_Leg_1_1_">
      <path
   id="Fill_3_"
   fill="#20a6d8"
   d="m 97.438,123.562 c -3.228,0.531 -7.014,-2.066 -4.619,-8.5 0,0 -15.256,-9.438 -17.441,-16.25 -2.187,-6.812 5.1,-4.75 7.645,-2.562 2.545,2.188 14.254,9.25 15.42,9.438 0,0 3.664,-3.174 7.305,-2.168 2.957,0.817 3.758,2.23 0.633,6.855 0,0 4.753,3.438 3.5,6.562 -1.691,4.221 -4.188,4.062 -8,3.188 -0.006,0 -1.933,3.021 -4.443,3.437 z" />
      <path
   id="Outline_4_"
   fill="#272525"
   d="m 98.35,104.336 c 5.233,-5.419 14.357,-1.68 9.062,5.727 8.561,7.392 0.343,14.215 -4.814,11.084 -5.73,9.078 -14.134,0.045 -10.779,-5.463 -6.926,-2.064 -13.973,-11.062 -17.022,-16.811 -0.731,-1.374 0.09,-1.893 0.765,-0.794 4.332,7.075 10.86,12.426 18.217,15.06 1.146,1.674 -2.574,3.922 -0.098,7.371 2.336,3.247 6.897,2.053 7.536,-2.068 1.242,0.83 2.425,1.104 3.771,1.062 1.222,-0.038 2.98,-1.25 3.434,-2.545 1.161,-3.337 -1.822,-5.55 -3.863,-6.148 5.185,-2.896 1.688,-9.99 -5.865,-4.295 -4.895,-0.914 -13.912,-6.19 -17.168,-10.343 -0.36,-0.461 -0.403,-0.989 -0.097,-1.481 0.567,-0.9 1.688,0.043 2.29,0.478 4.607,3.332 9.142,7.662 14.631,9.166 z" />
    </g>
    <g
   id="Tail">
      <path
   id="Fill_5_"
   fill="#20a6d8"
   d="m 36.049,61.029 c 0.074,-1.147 -0.145,-2.296 -0.773,-3.278 -0.764,-1.192 -1.838,-2.124 -3.096,-2.591 -0.061,0.046 -0.133,0.08 -0.231,0.089 -0.735,0.064 -1.36,0.096 -1.982,-0.106 -5.659,0.376 -10.793,-2.98 -13.378,-8.21 -1.714,-3.46 -1.145,-5.69 -1.076,-9.269 -4.081,6.005 -5.139,12.292 -0.877,19.377 4.152,6.881 15.188,10.01 19.791,7.033 0.656,-0.948 1.546,-1.863 1.622,-3.045 z" />
      <path
   id="Outline"
   fill="#272525"
   d="m 27.749,65.093 c 0.454,-0.276 1.104,-0.698 1.19,-1.28 0.044,-0.295 -0.124,-0.523 -0.365,-0.704 -2.122,0.002 -4.288,-0.417 -6.312,-1.314 -5.709,-3 -8.784,-8.952 -8.711,-14.721 -0.029,-2.66 0.393,-5.308 1.504,-7.535 -0.104,3.109 0.443,6.952 2.551,9.85 2.478,3.786 7.711,7.49 12.281,7.27 0.829,-0.122 2.015,0.245 2.195,-0.61 C 32.071,55.998 32.064,55.948 32.055,55.897 31.917,55.564 31.634,55.286 31.352,55.08 30.819,54.689 30.127,54.301 29.43,54.178 26.584,55.022 22.788,53.195 20.623,50.608 16.682,46.27 15.82,39.766 17.035,35.02 c 0.264,-0.556 0.385,-1.158 0.507,-1.759 -8.771,8.761 -7.112,20.689 -0.483,27.491 2.581,2.602 5.697,4.251 8.994,5.004 0.604,-0.132 1.184,-0.351 1.696,-0.663 z" />
    </g>
    <g
   id="Nose_1_">
      <path
   id="Outline_11_"
   fill="#272525"
   d="m 134.721,50.424 c -2.916,-5.089 -19.674,0.276 -16.635,7.695 2.1,5.129 8.484,6.214 12.098,5.327 3.613,-0.888 7.474,-7.895 4.537,-13.022 z m -4.873,10.92 c -2.604,0.79 -10.342,-1.532 -8.674,-6.233 1.111,-3.137 10.355,-5.998 12.199,-3.372 1.541,2.199 -0.92,8.817 -3.525,9.605 z" />
      <path
   id="Fill_9_"
   fill="#205ed8"
   d="m 121.174,55.11 c -1.668,4.701 6.068,7.023 8.674,6.233 2.605,-0.788 5.066,-7.406 3.525,-9.605 -1.844,-2.626 -11.088,0.236 -12.199,3.372 z" />
    </g>
    <g
   id="R_Eye_1_">
      <path
   fill="#272525"
   d="m 110.676,49.935 c -0.207,-6.587 10.006,-7.692 8.52,-3.132 -1.071,3.286 -6.098,5.753 -8.52,3.132 z"
   id="path23" />
      <path
   fill="#ffffff"
   d="m 111.814,49.354 c -0.158,-1.872 3.75,-4.045 5.115,-3.577 2.1,0.721 -1.954,4.838 -5.115,3.577 z"
   id="path25" />
      <ellipse
   fill="#272525"
   cx="116.697"
   cy="46.830002"
   rx="1.582"
   ry="1.67"
   id="ellipse27" />
    </g>
    <g
   id="L_Eye_1_">
      <path
   fill="#272525"
   d="m 106.797,52.062 c -1.152,8.077 -13.119,6.358 -10.453,1.257 1.926,-3.68 8.22,-5.173 10.453,-1.257 z"
   id="path30" />
      <path
   fill="#ffffff"
   d="m 105.363,52.426 c -0.211,2.325 -5.16,3.797 -6.631,2.818 -2.259,-1.505 3.268,-5.298 6.631,-2.818 z"
   id="path32" />
      <ellipse
   fill="#272525"
   cx="103.877"
   cy="53.398998"
   rx="2.0350001"
   ry="2.1470001"
   id="ellipse34" />
    </g>
    <g
   id="Ear_1_">
      <path
   id="Fill_10_"
   fill="#205ed8"
   d="m 90.992,55.194 c 0.934,-1.486 2.1,-2.542 1.732,-4.38 -0.398,-1.876 -1.832,-2.307 -3.33,-3.128 -2.73,-1.486 -5.029,-2.66 -7.729,-1.096 -5.529,3.247 -6.394,9.777 -6.394,17.049 0,4.066 0.898,6.843 3.331,9.699 2.032,2.385 5.694,2.854 7.461,0.156 3.931,-5.943 1.132,-12.356 4.929,-18.3 z" />
      <path
   id="Outline_12_"
   fill="#272525"
   d="m 84.383,73.465 c -1.273,1.021 -3.463,0.521 -4.65,-0.475 -5.598,-4.696 -3.799,-21.821 1.941,-25.07 3.594,-2.033 8.479,1.362 9.453,1.018 -2.695,-3.233 -5.895,-3.266 -7.121,-3.217 -0.982,-0.009 -1.645,0.128 -2.844,0.664 -6.076,2.919 -7.777,16.057 -6.362,22.38 0.774,3.455 4.461,7.719 7.644,7.738 2.515,0.015 4.224,-2.523 5.179,-4.891 1.953,-4.843 1.644,-8.529 2.709,-13.438 0.377,-1.731 2.819,-4.275 2.196,-6.188 -5.575,-0.749 -2.717,17.132 -8.145,21.479 z" />
    </g>
  </g>
</svg>
