<?xml version="1.0" encoding="UTF-8" standalone="no"?>
<svg
   xmlns:dc="http://purl.org/dc/elements/1.1/"
   xmlns:cc="http://creativecommons.org/ns#"
   xmlns:rdf="http://www.w3.org/1999/02/22-rdf-syntax-ns#"
   xmlns:svg="http://www.w3.org/2000/svg"
   xmlns="http://www.w3.org/2000/svg"
   xmlns:sodipodi="http://sodipodi.sourceforge.net/DTD/sodipodi-0.dtd"
   xmlns:inkscape="http://www.inkscape.org/namespaces/inkscape"
   version="1.1"
   width="178"
   height="118"
   id="svg2791"
   sodipodi:docname="dove1-b.svg"
   inkscape:version="0.92.2 5c3e80d, 2017-08-06">
  <metadata
     id="metadata2797">
    <rdf:RDF>
      <cc:Work
         rdf:about="">
        <dc:format>image/svg+xml</dc:format>
        <dc:type
           rdf:resource="http://purl.org/dc/dcmitype/StillImage" />
        <dc:title></dc:title>
      </cc:Work>
    </rdf:RDF>
  </metadata>
  <defs
     id="defs2795" />
  <sodipodi:namedview
     pagecolor="#ffffff"
     bordercolor="#666666"
     borderopacity="1"
     objecttolerance="10"
     gridtolerance="10"
     guidetolerance="10"
     inkscape:pageopacity="0"
     inkscape:pageshadow="2"
     inkscape:window-width="640"
     inkscape:window-height="480"
     id="namedview2793"
     showgrid="false"
     fit-margin-top="0"
     fit-margin-left="0"
     fit-margin-right="0"
     fit-margin-bottom="0"
     inkscape:zoom="2.4081633"
     inkscape:cx="83.133676"
     inkscape:cy="59.417113"
     inkscape:window-x="-2"
     inkscape:window-y="-2"
     inkscape:window-maximized="0"
     inkscape:current-layer="svg2791" />
  <!-- Exported by Scratch - http://scratch.mit.edu/ -->
  <g
     id="ID0.5926007409580052"
     transform="matrix(1.2155062,0,0,1.2155062,-0.63361878,-0.26715411)">
    <g
       id="ID0.033163967076689005">
      <g
         id="ID0.3478451701812446">
        <g
           id="Wing_4_">
          <g
             id="Feathers_2_">
            <path
               id="Outline_4_"
               d="m 37.851,23.386 c -0.48,0.858 -1.643,1.684 -2.47,1.792 -0.315,0.902 -0.89,1.67 -1.611,2.117 -0.283,0.175 -0.524,0.382 -0.743,0.57 -0.418,0.36 -0.814,0.699 -1.354,0.639 -0.018,-0.002 -0.037,-0.004 -0.056,-0.008 -0.426,0.815 -1.534,2.508 -3.342,2.597 l -0.302,0.015 -0.17,-0.255 c -0.023,-0.033 -0.122,-0.184 -0.266,-0.42 -0.733,1.087 -1.803,2.292 -3.083,2.585 l -0.414,0.095 -0.192,-0.394 c -0.02,-0.042 -0.162,-0.338 -0.348,-0.818 -1.021,1.469 -3.162,3.956 -5.887,3.831 l -0.917,-0.042 0.495,-0.857 c -3.507,2.142 -6.609,1.885 -6.749,1.872 l -1.865,-0.166 1.468,-0.798 c -3.98,1.524 -4.88,1.532 -5.073,1.487 L 3.197,36.807 4.9,36.143 c 0.009,-0.004 0.637,-0.256 1.739,-0.914 -2.604,0.623 -3.596,0.305 -3.717,0.259 l -1.688,-0.63 1.739,-0.454 c 0.06,-0.016 6.067,-1.668 12.596,-8.769 l 5.229,-2.534 -0.086,0.393 0.843,-0.509 c 0.126,-0.09 0.248,-0.163 0.345,-0.21 l 0.654,-0.386 -0.056,0.235 c 0.035,0.003 0.068,0.009 0.101,0.018 0.113,-0.144 0.219,-0.276 0.312,-0.386 0.532,-0.626 1.007,-0.933 1.446,-0.931 1.271,-1.558 1.894,-1.976 2.442,-1.657 0.149,0.085 0.254,0.216 0.316,0.388 0.279,-0.235 0.693,-0.486 1.218,-0.607 0.397,-0.093 0.856,-0.084 1.316,0.023 0.014,-0.035 0.03,-0.068 0.048,-0.102 0.211,-0.376 1.103,-1.527 3.792,-0.563 3.309,1.828 4.837,3.231 4.541,4.172 -0.042,0.134 -0.102,0.271 -0.179,0.407 z M 30.17,19.654 c -0.023,0.041 -0.037,0.099 -0.068,0.231 l -0.07,0.286 -0.272,-0.085 c -0.62,-0.194 -1.084,-0.137 -1.306,-0.085 -0.709,0.164 -1.167,0.618 -1.198,0.783 l -0.007,0.347 -0.715,0.07 0.07,-0.391 c 0.062,-0.35 0.037,-0.585 -0.069,-0.647 -0.237,-0.139 -0.859,0.413 -1.85,1.64 l -0.102,0.125 -0.156,-0.029 c -0.274,-0.051 -0.657,0.201 -1.106,0.731 -0.124,0.146 -0.271,0.333 -0.428,0.54 l -0.202,0.192 -0.213,-0.166 c -0.022,-0.008 -0.09,-0.021 -0.245,0.042 l -0.077,0.038 c -0.094,0.047 -0.19,0.104 -0.309,0.188 l -1.949,1.179 0.12,-0.54 -4.135,1.985 C 9.3,33.275 3.167,34.938 3.107,34.954 v 0 0 c 0.013,0.005 1.324,0.46 5.172,-0.776 l 0.232,0.506 c -2.077,1.442 -3.349,1.963 -3.417,1.99 0.123,0.008 1.277,-0.007 7.203,-2.437 l 0.258,0.495 c -0.958,0.706 -1.764,1.242 -2.067,1.407 0.147,0.013 3.627,0.301 7.345,-2.411 l 0.395,0.371 c -0.148,0.275 -0.282,0.521 -0.375,0.688 0,10e-4 -0.001,0.002 -0.001,0.002 l -0.217,0.376 0.003,-10e-4 c 2.748,0.127 4.905,-2.771 5.705,-4.023 l 0.298,-0.467 0.186,0.526 c 0.266,0.757 0.5,1.245 0.508,1.264 v 0 c 1.312,-0.301 2.432,-1.826 2.982,-2.707 l 0.236,-0.379 0.226,0.385 c 0.25,0.429 0.436,0.711 0.471,0.764 1.683,-0.082 2.664,-1.835 2.983,-2.491 l 0.111,-0.23 0.23,0.092 c 0.057,0.023 0.109,0.037 0.157,0.043 0.297,0.033 0.553,-0.173 0.955,-0.518 0.227,-0.195 0.485,-0.417 0.804,-0.614 0.655,-0.406 1.174,-1.143 1.43,-1.985 l 0.062,-0.204 0.207,0.005 c 0.648,0.018 2.059,-0.961 2.323,-1.822 0.151,-0.48 -1.113,-1.746 -4.238,-3.477 -2.257,-0.807 -2.946,0.047 -3.104,0.328 z"
               transform="matrix(2.2862883,0,0,2.2862883,-2.3,-7.85)"
               inkscape:connector-curvature="0" />
            <g
               id="ID0.2004116573370993">
              <path
                 id="ID0.3882799567654729"
                 d="m 15.251,31.232 c -9.455,4.723 -12.145,3.721 -12.145,3.721 0,0 6.108,-1.586 12.694,-8.804 l 4.216,-2.043 c 0.001,-0.001 -1.172,5.331 -4.765,7.126 z"
                 transform="matrix(2.2862883,0,0,2.2862883,-2.3,-7.85)"
                 inkscape:connector-curvature="0"
                 style="fill:#e5e5e5" />
              <path
                 id="ID0.511943340767175"
                 d="m 18.804,27.937 c -0.947,1.69 -2.103,2.885 -3.435,3.552 C 5.92,36.209 3.128,35.263 3.014,35.22 L 2.17,34.905 3.04,34.678 c 0.061,-0.016 6.117,-1.659 12.646,-8.786 l 4.723,-2.289 -0.125,0.565 c -0.017,0.077 -0.423,1.882 -1.48,3.769 0,0 0.001,-0.001 0,0 z m 0.792,-3.317 -3.598,1.725 c -4.69,5.14 -9.193,7.462 -11.406,8.375 1.626,-0.153 4.846,-0.897 10.54,-3.742 1.231,-0.615 2.309,-1.735 3.2,-3.327 0.665,-1.185 1.066,-2.358 1.264,-3.031 z"
                 transform="matrix(2.2862883,0,0,2.2862883,-2.3,-7.85)"
                 inkscape:connector-curvature="0"
                 style="fill:#cccccc" />
            </g>
            <g
               id="ID0.8505742172710598">
              <path
                 id="ID0.4439243171364069"
                 d="M 16.224,32.573 C 6.207,36.938 5.092,36.674 5.092,36.674 c 0,0 5.542,-2.142 12.599,-10.696 l 4.021,-2.433 c 0,-0.001 -1.811,7.425 -5.488,9.028 z"
                 transform="matrix(2.2862883,0,0,2.2862883,-2.3,-7.85)"
                 inkscape:connector-curvature="0"
                 style="fill:#e5e5e5" />
              <path
                 id="ID0.9440637868829072"
                 d="M 19.788,29.199 C 18.74,31.069 17.577,32.291 16.33,32.835 6.514,37.112 5.154,36.979 5.031,36.95 L 4.143,36.739 4.996,36.408 c 0.056,-0.022 5.568,-2.229 12.558,-10.676 l 4.582,-2.773 -0.16,0.653 c -0.029,0.123 -0.741,3.004 -2.188,5.587 0,0 0,0 0,0 z m 1.476,-5.058 -3.365,2.021 c -4.5,5.455 -8.357,8.307 -10.609,9.677 1.584,-0.526 4.284,-1.546 8.829,-3.527 1.136,-0.494 2.211,-1.638 3.198,-3.398 v 0 c 1,-1.786 1.651,-3.766 1.947,-4.773 z"
                 transform="matrix(2.2862883,0,0,2.2862883,-2.3,-7.85)"
                 inkscape:connector-curvature="0"
                 style="fill:#cccccc" />
            </g>
            <g
               id="ID0.21888319356366992">
              <path
                 id="ID0.9848222574219108"
                 d="m 20.87,24.374 c 0.03,-0.009 -2.525,3.751 -3.536,5.792 -1.011,2.04 -6.014,5.52 -6.847,5.973 0,0 4.61,0.413 8.845,-3.669 4.235,-4.082 3.301,-8.175 3.26,-9.048 -0.041,-0.875 -1.722,0.952 -1.722,0.952 z"
                 transform="matrix(2.2862883,0,0,2.2862883,-2.3,-7.85)"
                 inkscape:connector-curvature="0"
                 style="fill:#e5e5e5" />
              <path
                 id="ID0.4156116615049541"
                 d="m 21.727,29.863 c -0.554,0.989 -1.298,1.936 -2.209,2.815 -4.274,4.12 -8.86,3.761 -9.053,3.743 l -0.932,-0.083 0.828,-0.45 c 0.809,-0.441 5.561,-3.758 6.668,-5.734 l 0.062,-0.119 c 0.799,-1.607 2.567,-4.308 3.249,-5.35 0.081,-0.122 0.146,-0.223 0.196,-0.298 l -0.025,-0.034 0.162,-0.176 c 0.614,-0.666 1.442,-1.425 1.901,-1.247 0.102,0.04 0.276,0.154 0.29,0.477 0.004,0.08 0.016,0.187 0.03,0.32 0.108,1.018 0.364,3.403 -1.167,6.136 z m 0.595,-6.371 c -0.243,0.108 -0.769,0.554 -1.232,1.053 -0.039,0.062 -0.145,0.224 -0.299,0.46 -0.675,1.03 -2.426,3.701 -3.215,5.291 L 17.5,30.439 c -0.958,1.708 -4.32,4.248 -6.02,5.398 1.552,-0.119 4.715,-0.733 7.666,-3.577 0.872,-0.84 1.581,-1.743 2.108,-2.684 1.441,-2.571 1.2,-4.825 1.097,-5.788 -0.011,-0.109 -0.021,-0.203 -0.029,-0.296 z"
                 transform="matrix(2.2862883,0,0,2.2862883,-2.3,-7.85)"
                 inkscape:connector-curvature="0"
                 style="fill:#cccccc" />
            </g>
            <g
               id="ID0.40606336295604706">
              <path
                 id="ID0.2814771174453199"
                 d="m 23.79,30.383 c 0,0 -2.536,4.948 -6.153,4.78 0,0 2.551,-4.364 2.832,-6.601 0.28,-2.237 1.687,-4.559 2.851,-5.932 1.165,-1.373 1.422,-0.425 1.422,-0.425 0,0 0.175,5.933 -0.952,8.178 z"
                 transform="matrix(2.2862883,0,0,2.2862883,-2.3,-7.85)"
                 inkscape:connector-curvature="0"
                 style="fill:#e5e5e5" />
              <path
                 id="ID0.9155179779045284"
                 d="m 23.93,30.702 c -0.46,0.82 -2.924,4.901 -6.305,4.746 l -0.46,-0.021 0.452,-0.784 c 0.548,-0.979 2.355,-4.312 2.582,-6.117 0.147,-1.179 0.617,-2.501 1.358,-3.823 0.576,-1.028 1.166,-1.796 1.559,-2.26 0.546,-0.645 1.001,-0.915 1.389,-0.823 0.376,0.089 0.489,0.466 0.511,0.576 0.007,0.246 0.164,6.034 -0.984,8.32 z m 0.549,-8.419 v 0 c 0,-0.001 -0.034,-0.095 -0.097,-0.109 -0.026,-0.006 -0.276,-0.042 -0.859,0.646 -0.376,0.443 -0.941,1.181 -1.496,2.169 -0.705,1.258 -1.15,2.506 -1.289,3.611 -0.229,1.832 -1.882,4.954 -2.619,6.271 2.832,-0.238 4.929,-3.724 5.338,-4.455 v 0 l 0.09,-0.164 c 1.08,-2.149 0.925,-7.956 0.932,-7.969 z"
                 transform="matrix(2.2862883,0,0,2.2862883,-2.3,-7.85)"
                 inkscape:connector-curvature="0"
                 style="fill:#cccccc" />
            </g>
            <g
               id="ID0.9062185175716877">
              <path
                 id="ID0.8334762509912252"
                 d="m 27.769,28.963 c 0,0 -1.502,3.056 -3.435,3.5 0,0 -3.065,-6.315 0.075,-10.322 3.141,-4.006 2.046,-0.757 2.046,-0.757 z"
                 transform="matrix(2.2862883,0,0,2.2862883,-2.3,-7.85)"
                 inkscape:connector-curvature="0"
                 style="fill:#e5e5e5" />
              <path
                 id="ID0.6013795086182654"
                 d="m 27.833,29.429 c -0.487,0.87 -1.799,2.936 -3.439,3.312 l -0.207,0.048 -0.096,-0.197 c -0.112,-0.232 -2.729,-5.724 -0.442,-9.804 0.161,-0.288 0.346,-0.566 0.549,-0.825 1.562,-1.993 2.103,-2.262 2.469,-2.048 0.38,0.22 0.254,0.918 0.07,1.491 l 1.317,7.602 -0.042,0.085 c 0,0 -0.062,0.128 -0.179,0.336 z m -0.349,-0.512 -1.298,-7.482 0.012,-0.145 c 0.104,-0.307 0.172,-0.654 0.171,-0.833 -0.174,0.095 -0.647,0.459 -1.748,1.864 -2.681,3.42 -0.618,8.694 -0.136,9.806 1.379,-0.472 2.542,-2.385 2.877,-2.983 v 0 c 0.053,-0.096 0.094,-0.174 0.122,-0.227 z"
                 transform="matrix(2.2862883,0,0,2.2862883,-2.3,-7.85)"
                 inkscape:connector-curvature="0"
                 style="fill:#cccccc" />
            </g>
            <g
               id="ID0.1098977536894381">
              <path
                 id="ID0.1552460314705968"
                 d="m 31.354,27.765 c 0,0 -1.036,2.66 -3.105,2.76 0,0 -3.766,-5.604 -2.108,-8.703 1.658,-3.099 5.008,5.075 5.213,5.943 z"
                 transform="matrix(2.2862883,0,0,2.2862883,-2.3,-7.85)"
                 inkscape:connector-curvature="0"
                 style="fill:#e5e5e5" />
              <path
                 id="ID0.7738596326671541"
                 d="m 31.289,28.523 c -0.46,0.822 -1.465,2.21 -3.027,2.286 l -0.15,0.008 -0.086,-0.129 c -0.158,-0.234 -3.844,-5.787 -2.096,-9.054 0.415,-0.74 0.918,-0.833 1.265,-0.782 2.018,0.303 4.329,6.442 4.425,6.845 l -0.012,0.174 c -0.001,0.001 -0.107,0.273 -0.319,0.652 z m -0.224,-0.779 c -0.302,-1.014 -2.482,-6.109 -3.948,-6.331 -0.172,-0.024 -0.432,0 -0.737,0.545 -10e-4,0.001 -10e-4,0.001 -10e-4,0.002 -1.419,2.652 1.462,7.414 2.007,8.27 1.602,-0.192 2.496,-2.07 2.679,-2.486 z"
                 transform="matrix(2.2862883,0,0,2.2862883,-2.3,-7.85)"
                 inkscape:connector-curvature="0"
                 style="fill:#cccccc" />
            </g>
            <g
               id="ID0.17911422392353415">
              <path
                 id="ID0.17240391904488206"
                 d="m 34.985,24.58 c 0,0 -0.288,1.482 -1.496,2.228 -1.208,0.746 -1.55,1.851 -2.567,0.496 -1.018,-1.354 -3.815,-6.291 -3.725,-6.523 0.09,-0.232 1.559,-1.635 3.539,-0.213 1.981,1.422 4.249,4.012 4.249,4.012 z"
                 transform="matrix(2.2862883,0,0,2.2862883,-2.3,-7.85)"
                 inkscape:connector-curvature="0"
                 style="fill:#e5e5e5" />
              <path
                 id="ID0.21024813316762447"
                 d="m 34.81,25.781 c -0.308,0.549 -0.704,0.976 -1.18,1.27 -0.304,0.188 -0.554,0.404 -0.776,0.594 -0.389,0.335 -0.725,0.625 -1.152,0.577 -0.329,-0.038 -0.636,-0.266 -0.994,-0.743 -0.499,-0.664 -3.964,-6.287 -3.735,-6.862 0.115,-0.204 0.63,-0.709 1.421,-0.893 0.568,-0.132 1.463,-0.133 2.498,0.612 1.984,1.423 4.203,3.946 4.296,4.054 l 0.094,0.105 -0.028,0.143 c -0.005,0.02 -0.111,0.548 -0.444,1.143 z m -0.125,-1.122 c -0.457,-0.51 -2.402,-2.637 -4.103,-3.857 -0.695,-0.499 -1.384,-0.677 -2.05,-0.529 -0.545,0.122 -0.919,0.432 -1.042,0.566 0.272,0.729 2.65,4.96 3.649,6.29 0.249,0.333 0.459,0.51 0.623,0.529 0.198,0.022 0.439,-0.186 0.746,-0.45 0.236,-0.203 0.504,-0.434 0.844,-0.644 0.396,-0.244 0.728,-0.604 0.988,-1.069 v 0 c 0.19,-0.342 0.296,-0.663 0.345,-0.836 z"
                 transform="matrix(2.2862883,0,0,2.2862883,-2.3,-7.85)"
                 inkscape:connector-curvature="0"
                 style="fill:#cccccc" />
            </g>
            <g
               id="ID0.540474924724549">
              <path
                 id="ID0.6901027490384877"
                 d="m 33.233,19.308 c 0,0 4.582,2.529 4.278,3.494 -0.304,0.965 -1.831,1.928 -2.405,1.826 -0.574,-0.102 -4.754,-3.701 -5.007,-4.305 -0.253,-0.605 0.503,-1.953 3.134,-1.015 z"
                 transform="matrix(2.2862883,0,0,2.2862883,-2.3,-7.85)"
                 inkscape:connector-curvature="0"
                 style="fill:#e5e5e5" />
              <path
                 id="ID0.217529755551368"
                 d="m 37.615,23.244 c -0.504,0.899 -1.865,1.785 -2.555,1.664 -0.674,-0.121 -4.912,-3.755 -5.211,-4.473 -0.117,-0.275 -0.085,-0.622 0.084,-0.923 0.185,-0.329 0.973,-1.333 3.428,-0.455 1.438,0.794 4.748,2.758 4.409,3.833 -0.036,0.116 -0.089,0.235 -0.155,0.354 z m -7.21,-3.447 c -0.097,0.172 -0.091,0.33 -0.057,0.412 0.23,0.521 4.273,4.002 4.804,4.138 0.345,0.061 1.532,-0.571 1.991,-1.39 0.047,-0.084 0.084,-0.167 0.108,-0.245 0.11,-0.349 -1.64,-1.771 -4.107,-3.138 -1.606,-0.571 -2.469,-0.259 -2.739,0.223 z"
                 transform="matrix(2.2862883,0,0,2.2862883,-2.3,-7.85)"
                 inkscape:connector-curvature="0"
                 style="fill:#cccccc" />
            </g>
          </g>
          <g
             id="Wing_5_">
            <path
               id="ID0.10736031271517277"
               d="m 27.769,14.74 c 0,0 2.586,-1.289 4.492,0.521 1.905,1.811 1.98,4.641 0.426,4.774 -1.555,0.133 -12.044,4.201 -14.637,6.364 -2.593,2.163 -11.842,8.172 -15.905,6.901 0,0 5.604,-1.406 9.71,-5.073 4.107,-3.667 8.576,-6.992 10.34,-8.591 1.764,-1.597 5.574,-4.896 5.574,-4.896 z"
               transform="matrix(2.2862883,0,0,2.2862883,-2.3,-7.85)"
               inkscape:connector-curvature="0"
               style="fill:#ffffff" />
            <path
               id="ID0.5356002384796739"
               d="M 3.419,33.601 C 2.931,33.601 2.49,33.54 2.107,33.42 L 1.684,33.288 2.114,33.18 c 0.056,-0.014 5.622,-1.442 9.658,-5.045 2.416,-2.158 4.957,-4.196 6.999,-5.835 1.404,-1.126 2.616,-2.099 3.34,-2.755 1.745,-1.581 5.538,-4.866 5.576,-4.899 0.064,-0.036 0.958,-0.475 2.097,-0.475 1.001,0 1.864,0.336 2.562,1 1.398,1.33 1.782,3.104 1.434,4.099 -0.186,0.531 -0.57,0.847 -1.083,0.891 -1.654,0.141 -12.021,4.211 -14.568,6.336 -2.506,2.09 -10.3,7.104 -14.71,7.104 z M 2.642,33.29 c 0.241,0.04 0.5,0.061 0.777,0.061 4.345,0 12.064,-4.973 14.551,-7.047 2.569,-2.143 13.036,-6.25 14.707,-6.393 0.523,-0.045 0.761,-0.419 0.868,-0.725 0.327,-0.934 -0.096,-2.624 -1.37,-3.834 -0.651,-0.619 -1.456,-0.932 -2.391,-0.932 -1.078,0 -1.951,0.427 -1.959,0.432 -0.012,0.016 -3.803,3.299 -5.546,4.878 -0.73,0.662 -1.945,1.636 -3.352,2.765 -2.04,1.636 -4.578,3.673 -6.989,5.826 C 8.542,31.353 4.08,32.86 2.642,33.29 Z"
               transform="matrix(2.2862883,0,0,2.2862883,-2.3,-7.85)"
               inkscape:connector-curvature="0" />
          </g>
        </g>
        <g
           id="Wing_12_">
          <g
             id="Feathers_6_">
            <path
               id="Outline_9_"
               d="m 28.385,23.072 c -0.076,-0.137 -0.137,-0.273 -0.18,-0.408 -0.297,-0.941 1.232,-2.344 4.541,-4.172 2.688,-0.964 3.58,0.187 3.791,0.563 0.02,0.033 0.035,0.067 0.049,0.102 0.461,-0.107 0.92,-0.116 1.316,-0.023 0.524,0.121 0.939,0.373 1.218,0.607 0.062,-0.172 0.167,-0.303 0.316,-0.388 0.549,-0.319 1.171,0.1 2.442,1.657 0.439,-0.002 0.914,0.304 1.446,0.931 0.093,0.11 0.199,0.243 0.312,0.386 0.033,-0.008 0.066,-0.014 0.102,-0.018 l -0.057,-0.235 0.654,0.386 c 0.098,0.047 0.219,0.12 0.346,0.21 l 0.842,0.509 -0.086,-0.393 5.229,2.534 c 6.529,7.1 12.537,8.752 12.597,8.769 l 1.739,0.454 -1.688,0.63 c -0.122,0.046 -1.113,0.364 -3.718,-0.259 1.103,0.658 1.729,0.91 1.739,0.914 l 1.705,0.662 -1.775,0.421 c -0.193,0.045 -1.094,0.038 -5.074,-1.487 l 1.469,0.798 -1.865,0.166 c -0.141,0.013 -3.242,0.271 -6.749,-1.872 l 0.495,0.857 -0.918,0.042 c -2.725,0.125 -4.865,-2.362 -5.887,-3.831 -0.186,0.48 -0.328,0.777 -0.348,0.818 l -0.191,0.394 -0.415,-0.095 c -1.28,-0.294 -2.35,-1.498 -3.083,-2.585 -0.145,0.236 -0.242,0.387 -0.266,0.42 l -0.17,0.255 -0.303,-0.015 c -1.808,-0.088 -2.915,-1.781 -3.342,-2.597 -0.019,0.004 -0.037,0.006 -0.055,0.008 -0.541,0.061 -0.937,-0.279 -1.355,-0.639 -0.219,-0.188 -0.46,-0.396 -0.742,-0.57 -0.722,-0.447 -1.297,-1.215 -1.611,-2.117 -0.828,-0.105 -1.99,-0.931 -2.47,-1.789 z m 7.681,-3.732 c -0.158,-0.281 -0.848,-1.136 -3.104,-0.33 -3.125,1.73 -4.39,2.997 -4.238,3.477 0.265,0.86 1.675,1.84 2.323,1.822 l 0.206,-0.005 0.062,0.204 c 0.256,0.842 0.774,1.58 1.43,1.985 0.318,0.197 0.576,0.419 0.804,0.614 0.401,0.345 0.658,0.551 0.955,0.518 0.048,-0.006 0.1,-0.02 0.157,-0.043 l 0.23,-0.092 0.111,0.23 c 0.319,0.656 1.301,2.409 2.982,2.491 0.035,-0.052 0.221,-0.335 0.471,-0.764 l 0.227,-0.385 0.236,0.379 c 0.549,0.881 1.669,2.406 2.981,2.707 v 0 c 0.009,-0.019 0.243,-0.506 0.508,-1.264 l 0.186,-0.526 0.298,0.467 c 0.8,1.251 2.958,4.15 5.705,4.023 l 0.003,10e-4 -0.217,-0.376 c 0,0 0,-10e-4 -10e-4,-0.002 -0.093,-0.167 -0.228,-0.412 -0.376,-0.688 L 48.4,33.412 c 3.718,2.711 7.198,2.424 7.346,2.411 -0.304,-0.165 -1.109,-0.701 -2.068,-1.407 l 0.258,-0.495 c 5.927,2.429 7.081,2.444 7.203,2.437 -0.067,-0.027 -1.34,-0.547 -3.416,-1.99 l 0.232,-0.506 c 3.848,1.236 5.159,0.782 5.172,0.776 v 0 0 C 63.066,34.622 56.935,32.959 50.352,25.772 l -4.135,-1.985 0.119,0.54 -1.949,-1.179 C 44.27,23.065 44.173,23.007 44.078,22.96 L 44.002,22.922 C 43.846,22.859 43.778,22.871 43.756,22.88 l -0.213,0.166 -0.201,-0.192 c -0.156,-0.206 -0.305,-0.393 -0.428,-0.54 -0.449,-0.53 -0.832,-0.782 -1.106,-0.731 l -0.156,0.029 -0.102,-0.125 c -0.991,-1.227 -1.613,-1.779 -1.85,-1.64 -0.106,0.062 -0.131,0.297 -0.069,0.647 l 0.069,0.391 -0.715,-0.07 -0.008,-0.347 C 38.946,20.303 38.489,19.849 37.78,19.685 37.557,19.634 37.093,19.577 36.473,19.77 l -0.272,0.085 -0.07,-0.286 C 36.103,19.439 36.09,19.381 36.066,19.34 Z"
               transform="matrix(2.2862883,0,0,2.2862883,-2.3,-7.85)"
               inkscape:connector-curvature="0" />
            <g
               id="ID0.1434289854951203">
              <path
                 id="ID0.9425094961188734"
                 d="m 50.984,30.918 c 9.455,4.723 12.145,3.721 12.145,3.721 0,0 -6.107,-1.586 -12.693,-8.804 l -4.217,-2.043 c 0,0 1.173,5.331 4.765,7.126 z"
                 transform="matrix(2.2862883,0,0,2.2862883,-2.3,-7.85)"
                 inkscape:connector-curvature="0"
                 style="fill:#e5e5e5" />
              <path
                 id="ID0.5984413656406105"
                 d="m 47.432,27.623 c 0,-0.001 0,0 0,0 -1.057,-1.887 -1.463,-3.692 -1.479,-3.768 l -0.125,-0.565 4.723,2.289 c 6.529,7.127 12.584,8.771 12.646,8.786 l 0.87,0.227 -0.845,0.315 C 63.108,34.95 60.316,35.896 50.868,31.175 49.535,30.508 48.379,29.313 47.432,27.623 Z M 46.64,24.306 c 0.198,0.673 0.599,1.846 1.263,3.03 0.892,1.592 1.969,2.712 3.201,3.327 5.693,2.845 8.913,3.588 10.539,3.742 C 59.431,33.492 54.928,31.17 50.238,26.03 Z"
                 transform="matrix(2.2862883,0,0,2.2862883,-2.3,-7.85)"
                 inkscape:connector-curvature="0"
                 style="fill:#cccccc" />
            </g>
            <g
               id="ID0.6772148041054606">
              <path
                 id="ID0.8873821794986725"
                 d="m 50.012,32.259 c 10.018,4.365 11.133,4.101 11.133,4.101 0,0 -5.543,-2.142 -12.6,-10.696 l -4.021,-2.433 c -10e-4,-0.001 1.81,7.425 5.488,9.028 z"
                 transform="matrix(2.2862883,0,0,2.2862883,-2.3,-7.85)"
                 inkscape:connector-curvature="0"
                 style="fill:#e5e5e5" />
              <path
                 id="ID0.6329370583407581"
                 d="m 46.447,28.885 c 0,0 0,0 0,0 -1.446,-2.583 -2.158,-5.463 -2.188,-5.585 l -0.16,-0.653 4.582,2.773 c 6.99,8.447 12.502,10.654 12.559,10.676 l 0.852,0.331 -0.887,0.211 c -0.123,0.029 -1.483,0.162 -11.299,-4.116 -1.247,-0.545 -2.41,-1.768 -3.459,-3.637 z m -1.474,-5.058 c 0.295,1.007 0.946,2.987 1.947,4.772 v 0 c 0.986,1.76 2.062,2.904 3.197,3.398 4.546,1.981 7.245,3.001 8.83,3.527 -2.252,-1.37 -6.109,-4.222 -10.609,-9.677 z"
                 transform="matrix(2.2862883,0,0,2.2862883,-2.3,-7.85)"
                 inkscape:connector-curvature="0"
                 style="fill:#cccccc" />
            </g>
            <g
               id="ID0.2458489015698433">
              <path
                 id="ID0.9377228138037026"
                 d="m 45.366,24.06 c -0.03,-0.009 2.524,3.751 3.536,5.792 1.012,2.04 6.014,5.52 6.847,5.973 0,0 -4.61,0.413 -8.845,-3.669 -4.235,-4.082 -3.301,-8.175 -3.26,-9.048 0.042,-0.875 1.722,0.952 1.722,0.952 z"
                 transform="matrix(2.2862883,0,0,2.2862883,-2.3,-7.85)"
                 inkscape:connector-curvature="0"
                 style="fill:#e5e5e5" />
              <path
                 id="ID0.620105295907706"
                 d="m 44.51,29.549 c -1.531,-2.733 -1.276,-5.118 -1.168,-6.136 0.015,-0.133 0.026,-0.24 0.031,-0.32 0.014,-0.323 0.188,-0.437 0.289,-0.477 0.459,-0.178 1.287,0.581 1.901,1.247 l 0.161,0.176 -0.024,0.034 c 0.05,0.076 0.115,0.176 0.196,0.298 0.682,1.042 2.449,3.742 3.248,5.35 l 0.062,0.119 c 1.107,1.976 5.859,5.293 6.668,5.734 l 0.828,0.45 -0.932,0.083 c -0.192,0.018 -4.778,0.376 -9.053,-3.743 -0.909,-0.879 -1.654,-1.826 -2.207,-2.815 z m -0.596,-6.371 c -0.008,0.094 -0.018,0.188 -0.029,0.297 -0.104,0.963 -0.345,3.217 1.096,5.788 0.528,0.941 1.237,1.844 2.109,2.684 2.949,2.843 6.113,3.458 7.665,3.577 -1.7,-1.151 -5.062,-3.691 -6.02,-5.398 L 48.66,29.982 c -0.789,-1.59 -2.54,-4.26 -3.215,-5.291 -0.155,-0.236 -0.261,-0.397 -0.3,-0.46 -0.462,-0.5 -0.989,-0.945 -1.231,-1.053 z"
                 transform="matrix(2.2862883,0,0,2.2862883,-2.3,-7.85)"
                 inkscape:connector-curvature="0"
                 style="fill:#cccccc" />
            </g>
            <g
               id="ID0.8200301979668438">
              <path
                 id="ID0.8776469402946532"
                 d="m 42.445,30.069 c 0,0 2.537,4.948 6.153,4.78 0,0 -2.552,-4.364 -2.831,-6.601 -0.28,-2.237 -1.688,-4.559 -2.852,-5.932 -1.164,-1.373 -1.422,-0.425 -1.422,-0.425 0,0 -0.174,5.933 0.952,8.178 z"
                 transform="matrix(2.2862883,0,0,2.2862883,-2.3,-7.85)"
                 inkscape:connector-curvature="0"
                 style="fill:#e5e5e5" />
              <path
                 id="ID0.25267151929438114"
                 d="m 42.306,30.388 v 0 l -0.101,-0.186 c -1.147,-2.286 -0.991,-8.074 -0.984,-8.32 0.022,-0.11 0.135,-0.487 0.511,-0.576 0.387,-0.092 0.842,0.178 1.389,0.823 0.393,0.463 0.982,1.231 1.559,2.26 0.741,1.322 1.211,2.645 1.357,3.823 0.227,1.805 2.033,5.138 2.582,6.117 l 0.452,0.784 -0.46,0.021 c -3.382,0.155 -5.845,-3.926 -6.305,-4.746 z m -0.549,-8.419 c 0.007,0.014 -0.147,5.82 0.931,7.969 l 0.09,0.164 v 0 c 0.41,0.731 2.507,4.217 5.338,4.455 -0.736,-1.317 -2.389,-4.439 -2.618,-6.271 -0.139,-1.105 -0.584,-2.353 -1.289,-3.611 -0.554,-0.989 -1.12,-1.726 -1.495,-2.169 -0.584,-0.688 -0.833,-0.652 -0.859,-0.646 -0.064,0.014 -0.098,0.108 -0.098,0.109 z"
                 transform="matrix(2.2862883,0,0,2.2862883,-2.3,-7.85)"
                 inkscape:connector-curvature="0"
                 style="fill:#cccccc" />
            </g>
            <g
               id="ID0.32671078760176897">
              <path
                 id="ID0.8998256591148674"
                 d="m 38.467,28.649 c 0,0 1.502,3.056 3.435,3.5 0,0 3.065,-6.315 -0.075,-10.322 -3.141,-4.006 -2.045,-0.757 -2.045,-0.757 z"
                 transform="matrix(2.2862883,0,0,2.2862883,-2.3,-7.85)"
                 inkscape:connector-curvature="0"
                 style="fill:#e5e5e5" />
              <path
                 id="ID0.16586111299693584"
                 d="m 38.403,29.115 v 0 c -0.117,-0.208 -0.18,-0.336 -0.18,-0.336 l -0.042,-0.085 1.317,-7.602 c -0.185,-0.573 -0.31,-1.271 0.07,-1.491 0.366,-0.214 0.907,0.055 2.469,2.048 0.203,0.259 0.388,0.537 0.55,0.825 2.286,4.08 -0.33,9.572 -0.442,9.804 l -0.097,0.197 -0.207,-0.048 c -1.638,-0.377 -2.95,-2.442 -3.438,-3.312 z m 0.349,-0.511 c 0.027,0.053 0.068,0.13 0.123,0.226 v 0 c 0.335,0.598 1.498,2.511 2.876,2.983 0.482,-1.111 2.545,-6.386 -0.136,-9.806 -1.101,-1.404 -1.574,-1.769 -1.748,-1.864 -0.002,0.178 0.067,0.526 0.171,0.833 l 0.012,0.145 z"
                 transform="matrix(2.2862883,0,0,2.2862883,-2.3,-7.85)"
                 inkscape:connector-curvature="0"
                 style="fill:#cccccc" />
            </g>
            <g
               id="ID0.12312101200222969">
              <path
                 id="ID0.23527594096958637"
                 d="m 34.882,27.451 c 0,0 1.036,2.66 3.104,2.76 0,0 3.767,-5.604 2.109,-8.703 -1.657,-3.099 -5.008,5.075 -5.213,5.943 z"
                 transform="matrix(2.2862883,0,0,2.2862883,-2.3,-7.85)"
                 inkscape:connector-curvature="0"
                 style="fill:#e5e5e5" />
              <path
                 id="ID0.44904191233217716"
                 d="M 34.947,28.209 C 34.734,27.83 34.629,27.558 34.629,27.558 l -0.012,-0.174 c 0.096,-0.403 2.406,-6.542 4.424,-6.845 0.348,-0.051 0.851,0.042 1.266,0.782 1.748,3.267 -1.938,8.819 -2.096,9.054 l -0.086,0.129 -0.15,-0.008 c -1.563,-0.077 -2.567,-1.465 -3.028,-2.287 z m 0.224,-0.779 c 0.183,0.416 1.077,2.294 2.679,2.486 0.545,-0.856 3.427,-5.617 2.008,-8.27 -10e-4,-0.001 -10e-4,-0.001 -0.002,-0.002 -0.305,-0.545 -0.564,-0.569 -0.736,-0.545 -1.468,0.222 -3.647,5.318 -3.949,6.331 z"
                 transform="matrix(2.2862883,0,0,2.2862883,-2.3,-7.85)"
                 inkscape:connector-curvature="0"
                 style="fill:#cccccc" />
            </g>
            <g
               id="ID0.46491005225107074">
              <path
                 id="ID0.3745363890193403"
                 d="m 31.25,24.266 c 0,0 0.289,1.482 1.496,2.228 1.207,0.746 1.551,1.851 2.566,0.496 1.018,-1.354 3.816,-6.291 3.725,-6.523 -0.09,-0.232 -1.559,-1.635 -3.539,-0.213 -1.978,1.422 -4.248,4.012 -4.248,4.012 z"
                 transform="matrix(2.2862883,0,0,2.2862883,-2.3,-7.85)"
                 inkscape:connector-curvature="0"
                 style="fill:#e5e5e5" />
              <path
                 id="ID0.5550412507727742"
                 d="m 31.426,25.467 v 0 c -0.333,-0.596 -0.438,-1.123 -0.443,-1.145 l -0.027,-0.143 0.094,-0.105 c 0.093,-0.107 2.312,-2.631 4.296,-4.054 1.034,-0.745 1.93,-0.744 2.497,-0.612 0.792,0.184 1.307,0.689 1.422,0.893 0.229,0.576 -3.236,6.199 -3.735,6.862 -0.358,0.477 -0.665,0.705 -0.994,0.743 -0.427,0.048 -0.763,-0.242 -1.151,-0.577 -0.223,-0.19 -0.473,-0.406 -0.776,-0.594 -0.478,-0.292 -0.875,-0.718 -1.183,-1.268 z m 0.125,-1.122 c 0.049,0.173 0.154,0.494 0.347,0.836 v 0 c 0.261,0.465 0.593,0.825 0.988,1.069 0.339,0.21 0.608,0.441 0.844,0.644 0.307,0.264 0.548,0.472 0.745,0.45 0.164,-0.019 0.375,-0.196 0.623,-0.529 1,-1.33 3.377,-5.561 3.649,-6.29 -0.124,-0.135 -0.497,-0.445 -1.042,-0.566 -0.666,-0.147 -1.355,0.03 -2.051,0.529 -1.701,1.22 -3.646,3.346 -4.103,3.857 z"
                 transform="matrix(2.2862883,0,0,2.2862883,-2.3,-7.85)"
                 inkscape:connector-curvature="0"
                 style="fill:#cccccc" />
            </g>
            <g
               id="ID0.2916699103079736">
              <path
                 id="ID0.6915789665654302"
                 d="m 33.002,18.994 c 0,0 -4.581,2.529 -4.277,3.494 0.304,0.965 1.83,1.928 2.404,1.826 0.574,-0.102 4.754,-3.701 5.008,-4.305 0.253,-0.605 -0.502,-1.953 -3.135,-1.015 z"
                 transform="matrix(2.2862883,0,0,2.2862883,-2.3,-7.85)"
                 inkscape:connector-curvature="0"
                 style="fill:#e5e5e5" />
              <path
                 id="ID0.9924181248061359"
                 d="m 28.621,22.93 v 0 c -0.066,-0.119 -0.119,-0.238 -0.156,-0.354 -0.338,-1.075 2.971,-3.039 4.41,-3.833 2.454,-0.878 3.242,0.126 3.428,0.455 0.168,0.302 0.2,0.648 0.084,0.923 -0.299,0.717 -4.537,4.352 -5.211,4.473 -0.69,0.121 -2.051,-0.765 -2.555,-1.664 z m 7.209,-3.447 c -0.27,-0.482 -1.132,-0.794 -2.738,-0.222 -2.468,1.366 -4.218,2.789 -4.107,3.138 0.023,0.078 0.061,0.161 0.107,0.245 0.459,0.818 1.646,1.45 1.992,1.39 0.53,-0.136 4.573,-3.617 4.803,-4.138 0.035,-0.083 0.041,-0.24 -0.057,-0.413 z"
                 transform="matrix(2.2862883,0,0,2.2862883,-2.3,-7.85)"
                 inkscape:connector-curvature="0"
                 style="fill:#cccccc" />
            </g>
          </g>
          <g
             id="Wing_13_">
            <path
               id="ID0.1571521614678204"
               d="m 39.04,14.739 c 0,0 -3.345,-1.038 -5.25,0.773 -1.905,1.811 -1.794,4.076 -0.241,4.21 1.555,0.133 12.044,4.201 14.637,6.364 2.594,2.163 11.843,8.172 15.906,6.901 0,0 -5.604,-1.406 -9.711,-5.073 -4.107,-3.667 -8.576,-6.992 -10.34,-8.591 -1.764,-1.598 -5.001,-4.584 -5.001,-4.584 z"
               transform="matrix(2.2862883,0,0,2.2862883,-2.3,-7.85)"
               inkscape:connector-curvature="0"
               style="fill:#ffffff" />
            <path
               id="ID0.11245627142488956"
               d="m 62.817,33.287 v 0 c -4.41,0 -12.204,-5.014 -14.712,-7.104 -2.546,-2.125 -12.913,-6.195 -14.567,-6.336 -0.578,-0.05 -1,-0.373 -1.189,-0.91 -0.292,-0.832 0.014,-2.241 1.354,-3.515 0.77,-0.732 1.848,-1.103 3.203,-1.103 1.185,0 2.131,0.289 2.17,0.301 0.048,0.028 3.285,3.014 5.048,4.611 0.725,0.657 1.938,1.631 3.344,2.759 2.041,1.638 4.58,3.675 6.995,5.832 4.038,3.604 9.603,5.031 9.658,5.045 l 0.431,0.108 -0.424,0.132 c -0.382,0.119 -0.823,0.18 -1.311,0.18 z M 36.906,14.568 c -1.289,0 -2.308,0.348 -3.031,1.035 -1.259,1.197 -1.555,2.495 -1.29,3.251 0.153,0.438 0.5,0.703 0.974,0.744 1.671,0.143 12.138,4.25 14.706,6.393 2.487,2.074 10.206,7.046 14.552,7.047 v 0 c 0.276,0 0.536,-0.021 0.776,-0.061 -1.438,-0.43 -5.899,-1.937 -9.296,-4.969 -2.41,-2.152 -4.947,-4.188 -6.985,-5.823 -1.408,-1.13 -2.625,-2.106 -3.355,-2.768 -1.745,-1.581 -4.933,-4.521 -5.001,-4.584 -0.006,0.006 -0.925,-0.265 -2.05,-0.265 z"
               transform="matrix(2.2862883,0,0,2.2862883,-2.3,-7.85)"
               inkscape:connector-curvature="0" />
          </g>
        </g>
        <g
           id="Tail_1_">
          <g
             id="Tail_Base_1_">
            <path
               id="ID0.009507717099040747"
               d="M 29.798,43.437 29.717,43.449 25.787,43.234 25.214,40.565 23.286,39.9 23.099,36.938 23.27,36.69 c 2.007,-2.238 4.581,-7.459 6.386,-11.445 1.086,-4.343 1.864,-7.898 1.871,-7.931 l 0.021,-0.099 1.18,0.004 0.016,0.073 0.195,-0.002 0.115,-0.071 1.077,-0.01 0.022,0.098 c 0.006,0.026 0.647,2.806 1.597,6.504 1.627,3.69 4.713,10.299 7.026,12.879 l 0.14,0.156 0.02,0.3 -0.172,2.752 -2.093,0.721 -0.561,2.612 -3.695,0.203 -2.862,2.402 z"
               transform="matrix(2.2862883,0,0,2.2862883,-2.3,-7.85)"
               inkscape:connector-curvature="0"
               style="fill:#ffffff" />
            <g
               id="ID0.2639526310376823">
              <path
                 id="ID0.31777719827368855"
                 d="m 34.032,17.335 c 0.016,0.068 0.66,2.852 1.598,6.508 1.744,3.96 4.762,10.374 7.055,12.931 l 0.14,0.156 -0.013,0.209 -0.146,2.336 -0.021,0.333 -0.315,0.108 -1.765,0.608 -0.475,2.214 -0.08,0.374 -0.381,0.021 -3.219,0.177 -2.865,2.373 -3.679,-2.352 -0.142,-0.008 -3.454,-0.189 -0.381,-0.021 -0.08,-0.374 -0.488,-2.271 -1.6,-0.552 -0.315,-0.108 -0.021,-0.333 -0.148,-2.336 -0.013,-0.209 0.14,-0.156 c 2.029,-2.263 4.626,-7.547 6.407,-11.477 1.089,-4.344 1.863,-7.879 1.879,-7.956 l 0.978,0.003 c 0.005,0.024 0.009,0.051 0.014,0.075 l 0.401,-0.005 c 0.004,-0.023 0.008,-0.048 0.013,-0.07 l 0.976,-0.009 m 0.199,-0.252 -0.201,0.002 -0.977,0.009 -0.2,0.002 -0.012,0.056 -0.013,-0.058 h -0.2 L 31.65,17.091 h -0.203 l -0.043,0.198 c -0.007,0.033 -0.784,3.585 -1.877,7.948 -1.787,3.935 -4.354,9.144 -6.35,11.371 l -0.14,0.156 -0.07,0.078 0.006,0.104 0.013,0.209 0.148,2.336 0.021,0.333 0.011,0.167 0.157,0.054 0.315,0.108 1.467,0.506 0.458,2.133 0.08,0.373 0.04,0.187 0.191,0.01 0.381,0.021 3.454,0.189 0.076,0.004 3.623,2.316 0.154,0.099 0.141,-0.117 2.801,-2.32 3.136,-0.172 0.381,-0.021 0.191,-0.01 0.04,-0.187 0.08,-0.374 0.445,-2.076 1.631,-0.562 0.315,-0.108 0.158,-0.054 0.011,-0.167 0.021,-0.333 0.146,-2.336 0.014,-0.209 0.006,-0.104 -0.069,-0.078 -0.14,-0.156 C 40.568,34.039 37.489,27.444 35.858,23.742 34.922,20.083 34.281,17.305 34.275,17.279 Z"
                 transform="matrix(2.2862883,0,0,2.2862883,-2.3,-7.85)"
                 inkscape:connector-curvature="0" />
            </g>
          </g>
          <g
             id="Feather_9_">
            <path
               id="ID0.7267776341177523"
               d="m 23.645,39.626 -0.166,-2.607 0.07,-0.078 c 3.436,-3.832 8.463,-16.19 8.513,-16.314 l 0.481,0.079 c 0.441,7.365 -4.887,19.473 -5.114,19.985 L 27.336,40.9 Z"
               transform="matrix(2.2862883,0,0,2.2862883,-2.3,-7.85)"
               inkscape:connector-curvature="0"
               style="fill:#e5e5e5" />
            <path
               id="ID0.4625955354422331"
               d="m 32.295,20.72 c 0.442,7.389 -5.093,19.868 -5.093,19.868 L 23.884,39.444 23.736,37.108 C 27.241,33.199 32.295,20.72 32.295,20.72 m -0.463,-0.187 c -0.05,0.124 -5.062,12.442 -8.468,16.241 l -0.14,0.156 0.013,0.209 0.148,2.336 0.021,0.333 0.315,0.108 3.318,1.144 0.434,0.149 0.186,-0.419 c 0.228,-0.514 5.58,-12.676 5.135,-20.101 z"
               transform="matrix(2.2862883,0,0,2.2862883,-2.3,-7.85)"
               inkscape:connector-curvature="0"
               style="fill:#cccccc" />
          </g>
          <g
             id="Feather_8_">
            <path
               id="ID0.9070141585543752"
               d="m 26.093,42.874 -0.623,-2.901 0.037,-0.077 c 2.685,-5.575 6.351,-22.333 6.387,-22.502 l 0.489,0.001 c 1.753,8.281 -2.348,25.317 -2.39,25.488 l -0.049,0.202 z"
               transform="matrix(2.2862883,0,0,2.2862883,-2.3,-7.85)"
               inkscape:connector-curvature="0"
               style="fill:#e5e5e5" />
            <path
               id="ID0.9196023144759238"
               d="m 32.139,17.447 c 1.762,8.321 -2.388,25.377 -2.388,25.377 l -3.454,-0.189 -0.565,-2.63 c 2.729,-5.667 6.407,-22.558 6.407,-22.558 M 31.65,17.341 c -0.037,0.168 -3.696,16.898 -6.368,22.447 l -0.074,0.154 0.036,0.167 0.565,2.63 0.08,0.374 0.381,0.021 3.454,0.189 0.415,0.023 0.098,-0.404 c 0.17,-0.701 4.156,-17.262 2.391,-25.599 z"
               transform="matrix(2.2862883,0,0,2.2862883,-2.3,-7.85)"
               inkscape:connector-curvature="0"
               style="fill:#cccccc" />
          </g>
          <g
             id="Feather_7_">
            <path
               id="ID0.21736259572207928"
               d="M 38.62,40.69 C 38.393,40.178 33.065,28.07 33.506,20.705 l 0.481,-0.079 c 0.05,0.125 5.077,12.483 8.512,16.314 l 0.069,0.078 -0.163,2.607 -3.692,1.273 z"
               transform="matrix(2.2862883,0,0,2.2862883,-2.3,-7.85)"
               inkscape:connector-curvature="0"
               style="fill:#e5e5e5" />
            <path
               id="ID0.9339159978553653"
               d="m 33.755,20.72 c 0,0 5.053,12.479 8.558,16.388 l -0.146,2.336 -3.318,1.144 c -10e-4,0 -5.537,-12.479 -5.094,-19.868 m 0.463,-0.187 -0.962,0.158 c -0.445,7.425 4.907,19.586 5.135,20.101 l 0.186,0.419 0.434,-0.149 3.318,-1.144 0.315,-0.108 0.021,-0.333 0.146,-2.336 0.013,-0.209 -0.14,-0.156 C 39.278,32.975 34.269,20.657 34.218,20.533 Z"
               transform="matrix(2.2862883,0,0,2.2862883,-2.3,-7.85)"
               inkscape:connector-curvature="0"
               style="fill:#cccccc" />
          </g>
          <g
             id="Feather_6_">
            <path
               id="ID0.21161378594115376"
               d="M 35.905,42.886 C 35.861,42.715 31.547,25.678 33.3,17.395 l 0.488,-0.004 c 0.039,0.168 3.917,16.929 6.601,22.505 l 0.037,0.077 -0.622,2.901 -3.849,0.211 z"
               transform="matrix(2.2862883,0,0,2.2862883,-2.3,-7.85)"
               inkscape:connector-curvature="0"
               style="fill:#e5e5e5" />
            <path
               id="ID0.24702424881979823"
               d="m 33.545,17.447 c 0,0 3.892,16.891 6.62,22.557 l -0.564,2.63 -3.453,0.189 C 36.147,42.824 31.783,25.769 33.545,17.447 m 0.487,-0.112 -0.977,0.009 c -1.766,8.34 2.428,24.903 2.607,25.604 l 0.102,0.398 0.41,-0.023 3.453,-0.189 0.381,-0.021 0.08,-0.374 0.564,-2.63 0.036,-0.167 -0.074,-0.154 C 37.942,34.236 34.071,17.503 34.032,17.335 Z"
               transform="matrix(2.2862883,0,0,2.2862883,-2.3,-7.85)"
               inkscape:connector-curvature="0"
               style="fill:#cccccc" />
          </g>
          <g
             id="Feather_5_">
            <path
               id="ID0.5348126203753054"
               d="m 30.002,43.122 3.523,2.252 2.865,-2.373 -3.526,-25.554 -2.862,25.675"
               transform="matrix(2.2862883,0,0,2.2862883,-2.3,-7.85)"
               inkscape:connector-curvature="0"
               style="fill:#e5e5e5" />
            <path
               id="ID0.49125430919229984"
               d="m 33.544,45.683 -3.808,-2.435 2.879,-25.829 0.496,-0.006 3.545,25.692 z m -3.276,-2.688 3.238,2.07 2.618,-2.167 -3.233,-23.431 z"
               transform="matrix(2.2862883,0,0,2.2862883,-2.3,-7.85)"
               inkscape:connector-curvature="0"
               style="fill:#cccccc" />
          </g>
        </g>
        <g
           id="Leg_6_">
          <g
             id="Foot_3_">
            <path
               id="ID0.31120520178228617"
               d="m 30.423,34.509 c -0.131,0 -0.265,-0.068 -0.358,-0.182 -0.087,-0.106 -0.124,-0.236 -0.1,-0.354 0.107,-0.52 0.377,-0.881 0.664,-1.265 0,0 0.131,-0.176 0.133,-0.18 -0.011,0.007 -0.021,0.015 -0.031,0.022 -0.076,0.053 -0.153,0.127 -0.233,0.204 -0.199,0.19 -0.424,0.405 -0.699,0.415 0,0 0,0 0,0 -0.208,0 -0.342,-0.132 -0.348,-0.328 -0.015,-0.633 0.688,-1.131 1.295,-1.366 l 0.116,-0.043 c 0.222,-0.081 0.473,-0.172 0.583,-0.345 0.1,-0.158 0.057,-0.248 -0.049,-0.435 l -0.069,-0.126 c -0.127,-0.253 -0.2,-0.441 -0.055,-0.739 0.05,-0.104 0.155,-0.17 0.267,-0.17 0.107,0 0.201,0.06 0.249,0.161 0.042,0.089 0.089,0.179 0.137,0.27 0.107,0.206 0.216,0.417 0.28,0.625 0.104,0.196 0.161,0.443 0.15,0.674 0.055,0.292 0.039,0.664 -0.05,1.078 -0.03,0.149 -0.075,0.299 -0.119,0.449 -0.002,0.142 -0.025,0.274 -0.077,0.407 0.002,-0.002 0.003,-0.004 0.004,-0.004 0.009,0 0.01,0.054 -0.007,0.113 -0.021,0.099 -0.039,0.208 -0.054,0.317 l -0.002,0.019 -0.024,0.066 c -0.013,0.214 -0.17,0.361 -0.388,0.361 -0.132,0 -0.262,-0.057 -0.348,-0.153 -0.088,-0.076 -0.133,-0.201 -0.118,-0.341 10e-4,-0.044 0.004,-0.086 0.007,-0.126 -0.061,0.147 -0.121,0.295 -0.168,0.446 -0.081,0.264 -0.187,0.434 -0.487,0.517 z"
               transform="matrix(2.2862883,0,0,2.2862883,-2.3,-7.85)"
               inkscape:connector-curvature="0"
               style="fill:#ffd18f" />
            <path
               id="ID0.9248233349062502"
               d="m 31.539,29.742 c 0.054,0 0.106,0.028 0.136,0.089 0.135,0.285 0.32,0.583 0.41,0.878 0.102,0.196 0.155,0.418 0.145,0.632 0.062,0.347 0.025,0.719 -0.047,1.058 -0.033,0.163 -0.083,0.324 -0.131,0.485 0.006,0.125 -0.016,0.24 -0.06,0.351 0.004,0.038 0.005,0.077 -0.007,0.12 -0.024,0.11 -0.042,0.223 -0.058,0.335 -0.004,0.032 -0.018,0.055 -0.029,0.081 v 0 0 c 0.001,-0.002 0.002,-0.002 0.002,-0.003 -0.003,0.178 -0.129,0.26 -0.264,0.26 -0.093,0 -0.189,-0.039 -0.255,-0.111 -0.062,-0.054 -0.099,-0.134 -0.087,-0.244 0.002,-0.014 0.004,-0.027 0.006,-0.042 0,-10e-4 0,-0.002 0,-0.002 0.002,-0.167 0.027,-0.307 0.077,-0.458 0.051,-0.212 0.114,-0.42 0.177,-0.634 0.01,-0.035 0.015,-0.07 0.024,-0.106 -0.129,0.193 -0.254,0.381 -0.318,0.559 -0.114,0.319 -0.27,0.628 -0.371,0.951 -0.073,0.236 -0.156,0.366 -0.401,0.434 -0.022,0.006 -0.045,0.009 -0.067,0.009 -0.187,0 -0.373,-0.202 -0.335,-0.387 0.116,-0.564 0.438,-0.935 0.768,-1.385 0.119,-0.16 0.231,-0.331 0.336,-0.504 -0.179,0.109 -0.359,0.216 -0.534,0.34 -0.255,0.181 -0.533,0.584 -0.864,0.596 -0.003,0 -0.006,0 -0.01,0 -0.126,0 -0.206,-0.076 -0.209,-0.206 -0.015,-0.606 0.726,-1.057 1.215,-1.246 0.254,-0.098 0.605,-0.194 0.76,-0.438 0.176,-0.278 0.007,-0.448 -0.112,-0.684 -0.121,-0.24 -0.173,-0.384 -0.055,-0.628 0.034,-0.064 0.096,-0.1 0.158,-0.1 m 0.362,4.026 v 0 0 m -0.362,-4.276 c -0.16,0 -0.309,0.095 -0.38,0.242 -0.168,0.348 -0.079,0.581 0.057,0.849 0.023,0.046 0.048,0.09 0.072,0.132 0.105,0.185 0.11,0.214 0.052,0.306 -0.087,0.137 -0.317,0.221 -0.52,0.294 l -0.118,0.044 c -0.677,0.261 -1.393,0.788 -1.376,1.485 0.008,0.266 0.197,0.45 0.459,0.45 0.131,-0.004 0.247,-0.041 0.353,-0.096 -0.13,0.221 -0.236,0.46 -0.295,0.749 -0.032,0.157 0.014,0.324 0.125,0.459 0.117,0.143 0.287,0.228 0.455,0.228 0.046,0 0.091,-0.006 0.135,-0.019 0.351,-0.097 0.482,-0.31 0.572,-0.601 0.001,-0.002 0.001,-0.004 0.002,-0.006 0.024,0.035 0.052,0.067 0.085,0.096 0.088,0.101 0.253,0.174 0.42,0.174 0.274,0 0.481,-0.187 0.51,-0.452 0.011,-0.028 0.022,-0.062 0.027,-0.101 0.015,-0.106 0.031,-0.212 0.054,-0.315 0.014,-0.047 0.017,-0.096 0.016,-0.139 0.04,-0.116 0.058,-0.232 0.058,-0.353 0.054,-0.181 0.095,-0.324 0.125,-0.469 0.089,-0.417 0.106,-0.796 0.052,-1.125 0.006,-0.244 -0.055,-0.502 -0.174,-0.73 C 32.254,30.412 32.142,30.198 32.034,29.99 31.987,29.901 31.941,29.812 31.9,29.724 31.832,29.581 31.693,29.492 31.539,29.492 Z"
               transform="matrix(2.2862883,0,0,2.2862883,-2.3,-7.85)"
               inkscape:connector-curvature="0" />
          </g>
          <g
             id="Leg_7_">
            <path
               id="ID0.47637104569002986"
               d="m 28.708,26.135 c 0,0 1.576,4.456 2.648,4.531 1.072,0.075 0.541,-1.137 0.507,-1.542 -0.032,-0.405 -1.705,-3.683 -3.155,-2.989 z"
               transform="matrix(2.2862883,0,0,2.2862883,-2.3,-7.85)"
               inkscape:connector-curvature="0"
               style="fill:#ffffff" />
            <path
               id="ID0.5983541067689657"
               d="m 31.448,30.794 c 0,0 0,0 0,0 L 31.347,30.79 C 30.225,30.712 28.754,26.641 28.59,26.176 l -0.038,-0.106 0.101,-0.048 c 0.15,-0.072 0.309,-0.108 0.473,-0.108 1.444,0 2.833,2.841 2.862,3.2 0.006,0.074 0.03,0.175 0.057,0.292 0.084,0.366 0.2,0.867 -0.036,1.164 -0.118,0.149 -0.307,0.224 -0.561,0.224 z m -2.582,-4.588 c 0.632,1.758 1.788,4.286 2.499,4.335 l 0.083,0.128 v -0.125 c 0,0 0,0 0,0 0.176,0 0.296,-0.043 0.366,-0.13 0.161,-0.203 0.061,-0.636 -0.012,-0.953 -0.03,-0.13 -0.056,-0.245 -0.062,-0.327 -0.028,-0.338 -1.606,-3.349 -2.874,-2.928 z"
               transform="matrix(2.2862883,0,0,2.2862883,-2.3,-7.85)"
               inkscape:connector-curvature="0" />
          </g>
        </g>
        <g
           id="Leg_4_">
          <g
             id="Foot_2_">
            <path
               id="ID0.013497544452548027"
               d="m 36.034,34.272 c -0.302,-0.068 -0.419,-0.24 -0.51,-0.495 -0.054,-0.149 -0.121,-0.294 -0.189,-0.44 0.004,0.031 0.006,0.063 0.009,0.096 0.027,0.171 -0.013,0.298 -0.107,0.39 -0.077,0.095 -0.211,0.158 -0.351,0.158 -0.211,0 -0.363,-0.138 -0.384,-0.347 l -0.029,-0.077 c -0.02,-0.111 -0.042,-0.22 -0.07,-0.326 -0.02,-0.057 -0.019,-0.116 -0.016,-0.16 C 34.338,33 34.31,32.87 34.31,32.732 c -0.061,-0.153 -0.112,-0.3 -0.149,-0.449 -0.107,-0.409 -0.14,-0.78 -0.098,-1.101 -0.021,-0.204 0.024,-0.453 0.127,-0.674 0.046,-0.189 0.145,-0.403 0.243,-0.614 0.043,-0.093 0.087,-0.186 0.125,-0.277 0.044,-0.106 0.142,-0.172 0.253,-0.172 0.109,0 0.21,0.061 0.263,0.16 0.158,0.291 0.094,0.481 -0.022,0.739 l -0.064,0.13 c -0.098,0.191 -0.137,0.283 -0.029,0.436 0.118,0.168 0.374,0.249 0.601,0.319 l 0.115,0.037 c 0.618,0.207 1.343,0.673 1.356,1.305 0.003,0.203 -0.131,0.34 -0.333,0.344 -0.279,0 -0.512,-0.203 -0.718,-0.382 -0.083,-0.073 -0.164,-0.144 -0.242,-0.194 -0.011,-0.007 -0.022,-0.014 -0.033,-0.021 0.002,0.003 0.141,0.172 0.141,0.172 0.304,0.37 0.591,0.72 0.721,1.234 0.031,0.122 -0.002,0.256 -0.09,0.368 -0.092,0.118 -0.227,0.189 -0.36,0.189 z"
               transform="matrix(2.2862883,0,0,2.2862883,-2.3,-7.85)"
               inkscape:connector-curvature="0"
               style="fill:#ffd18f" />
            <path
               id="ID0.03094875207170844"
               d="m 34.812,29.57 c 0.059,0 0.12,0.033 0.152,0.094 0.129,0.238 0.084,0.384 -0.026,0.629 -0.108,0.242 -0.271,0.419 -0.082,0.689 0.165,0.236 0.521,0.317 0.779,0.403 0.498,0.167 1.257,0.583 1.271,1.189 0.002,0.133 -0.077,0.214 -0.21,0.216 -10e-4,0 -0.003,0 -0.004,0 -0.329,0 -0.623,-0.388 -0.885,-0.556 -0.18,-0.117 -0.365,-0.215 -0.548,-0.316 0.113,0.168 0.232,0.333 0.358,0.488 0.35,0.435 0.689,0.791 0.83,1.349 0.047,0.187 -0.138,0.401 -0.329,0.401 -0.019,0 -0.038,-0.002 -0.056,-0.006 -0.248,-0.056 -0.337,-0.182 -0.42,-0.415 -0.116,-0.318 -0.285,-0.62 -0.413,-0.934 -0.072,-0.175 -0.206,-0.357 -0.343,-0.544 0.011,0.036 0.017,0.071 0.029,0.105 0.073,0.211 0.145,0.417 0.205,0.626 0.057,0.149 0.088,0.288 0.098,0.453 0,0 0,0.002 0,0.003 0.003,0.014 0.004,0.027 0.008,0.042 0.017,0.109 -0.017,0.19 -0.076,0.248 -0.065,0.08 -0.167,0.123 -0.264,0.123 -0.13,0 -0.25,-0.077 -0.261,-0.249 0,0.001 0.002,0.002 0.003,0.004 C 34.615,33.587 34.602,33.564 34.595,33.533 34.575,33.421 34.552,33.309 34.523,33.2 34.509,33.158 34.508,33.118 34.511,33.081 34.463,32.973 34.435,32.859 34.436,32.734 34.381,32.575 34.324,32.416 34.283,32.255 34.196,31.92 34.142,31.55 34.188,31.2 c -0.019,-0.212 0.023,-0.437 0.116,-0.638 0.077,-0.299 0.249,-0.605 0.37,-0.896 0.027,-0.066 0.082,-0.096 0.138,-0.096 m 0,-0.25 v 0 c -0.163,0 -0.304,0.095 -0.369,0.249 -0.038,0.09 -0.08,0.181 -0.123,0.273 -0.099,0.212 -0.201,0.431 -0.259,0.657 -0.093,0.19 -0.142,0.449 -0.125,0.694 -0.039,0.331 -0.004,0.708 0.104,1.124 0.038,0.15 0.089,0.3 0.142,0.45 l 0.004,0.011 c 0.004,0.12 0.028,0.235 0.073,0.351 10e-4,0.043 0.007,0.096 0.026,0.151 0.023,0.087 0.044,0.192 0.063,0.297 0.008,0.042 0.021,0.075 0.032,0.101 0.04,0.255 0.24,0.429 0.505,0.429 0.176,0 0.347,-0.08 0.457,-0.214 0.023,-0.022 0.044,-0.047 0.062,-0.076 10e-4,0.002 10e-4,0.003 0.002,0.005 0.102,0.285 0.243,0.492 0.6,0.573 0.035,0.008 0.073,0.013 0.111,0.013 0.171,0 0.342,-0.088 0.458,-0.237 0.111,-0.143 0.152,-0.316 0.113,-0.475 -0.072,-0.285 -0.188,-0.519 -0.327,-0.732 0.102,0.047 0.211,0.078 0.329,0.078 0.281,-0.005 0.468,-0.198 0.464,-0.47 C 37.139,31.874 36.4,31.38 35.713,31.149 L 35.595,31.111 C 35.387,31.046 35.153,30.973 35.059,30.84 35,30.749 35.003,30.72 35.1,30.531 c 0.022,-0.043 0.045,-0.089 0.066,-0.136 0.123,-0.274 0.202,-0.51 0.018,-0.851 C 35.11,29.406 34.967,29.32 34.812,29.32 Z"
               transform="matrix(2.2862883,0,0,2.2862883,-2.3,-7.85)"
               inkscape:connector-curvature="0" />
          </g>
          <g
             id="Leg_5_">
            <path
               id="ID0.5497956392355263"
               d="m 37.47,25.839 c 0,0 -1.373,4.522 -2.441,4.646 -1.068,0.124 -0.591,-1.111 -0.577,-1.517 0.015,-0.407 1.538,-3.757 3.018,-3.129 z"
               transform="matrix(2.2862883,0,0,2.2862883,-2.3,-7.85)"
               inkscape:connector-curvature="0"
               style="fill:#ffffff" />
            <path
               id="ID0.005922409705817699"
               d="m 34.888,30.618 c -0.231,0 -0.408,-0.071 -0.523,-0.209 -0.239,-0.288 -0.147,-0.787 -0.081,-1.151 0.022,-0.118 0.042,-0.221 0.044,-0.295 0.014,-0.374 1.298,-3.327 2.765,-3.327 0.146,0 0.29,0.03 0.427,0.088 l 0.104,0.044 -0.033,0.107 c -0.143,0.471 -1.429,4.605 -2.547,4.733 -0.056,0.007 -0.108,0.01 -0.156,0.01 z m 2.204,-4.732 c -1.265,0 -2.503,2.759 -2.515,3.086 -0.003,0.083 -0.023,0.199 -0.048,0.331 -0.058,0.316 -0.137,0.749 0.027,0.946 0.084,0.101 0.233,0.137 0.458,0.112 0.708,-0.082 1.749,-2.659 2.301,-4.444 -0.073,-0.021 -0.148,-0.031 -0.223,-0.031 z"
               transform="matrix(2.2862883,0,0,2.2862883,-2.3,-7.85)"
               inkscape:connector-curvature="0" />
          </g>
        </g>
        <g
           id="Body_1_">
          <path
             id="ID0.31340072909370065"
             d="m 33.312,28.938 c -1.828,0 -3.227,-0.631 -4.158,-1.875 -2.06,-2.752 -1.224,-7.789 -0.769,-9.336 0.157,-0.534 0.389,-1.223 0.651,-2.003 0.776,-2.309 1.84,-5.47 2.026,-7.796 0.209,-2.621 1.611,-3.205 2.12,-3.332 -0.07,-0.182 -0.05,-0.367 0.003,-0.498 0.064,-0.158 0.181,-0.264 0.311,-0.284 h 0.053 l 0.134,0.064 c 0.06,0.061 0.095,0.166 0.116,0.277 0.046,-0.041 0.1,-0.068 0.159,-0.068 h 0.072 l 0.109,0.115 c 0.083,0.143 0.063,0.298 0.029,0.407 1.534,0.535 1.589,2.329 1.629,3.648 l 0.015,0.424 c 0.052,1.143 1.153,6.851 1.567,9 l 0.161,0.839 c 0.374,1.975 0.999,6.643 -0.959,9.006 -0.775,0.937 -1.875,1.412 -3.269,1.412 z"
             transform="matrix(2.2862883,0,0,2.2862883,-2.3,-7.85)"
             inkscape:connector-curvature="0"
             style="fill:#ffffff" />
          <path
             id="ID0.9079328528605402"
             d="m 33.529,3.937 c 0.188,0 0.174,0.626 0.174,0.626 0.025,-0.1 0.15,-0.35 0.255,-0.35 0.026,0 0.051,0.016 0.073,0.053 C 34.141,4.453 34,4.688 34,4.688 c 1.75,0.5 1.625,2.625 1.688,4 0.063,1.375 1.605,9.168 1.73,9.856 0.125,0.688 2.121,10.269 -4.105,10.269 -6.84,0 -5.432,-8.925 -4.807,-11.05 0.625,-2.125 2.432,-6.7 2.682,-9.825 0.25,-3.125 2.188,-3.25 2.188,-3.25 -0.234,-0.312 -0.062,-0.719 0.141,-0.75 0.004,-0.001 0.008,-0.001 0.012,-0.001 m 0,-0.25 H 33.51 L 33.478,3.69 c -0.174,0.027 -0.326,0.162 -0.407,0.36 -0.059,0.145 -0.072,0.303 -0.043,0.454 -0.616,0.185 -1.886,0.873 -2.089,3.413 -0.185,2.311 -1.246,5.464 -2.02,7.766 -0.265,0.789 -0.494,1.471 -0.652,2.008 -0.46,1.562 -1.302,6.653 0.789,9.446 0.956,1.277 2.388,1.925 4.258,1.925 1.433,0 2.565,-0.49 3.365,-1.456 1.992,-2.404 1.363,-7.117 1,-9.031 L 37.665,18.498 C 37.644,18.386 37.587,18.087 37.504,17.657 37.09,15.511 35.99,9.809 35.939,8.676 35.933,8.542 35.929,8.4 35.924,8.254 35.883,6.927 35.829,5.135 34.317,4.531 34.335,4.414 34.328,4.274 34.249,4.14 34.184,4.028 34.078,3.963 33.96,3.963 c -0.027,0 -0.054,0.003 -0.079,0.01 C 33.855,3.902 33.82,3.839 33.775,3.792 33.707,3.724 33.62,3.687 33.529,3.687 Z"
             transform="matrix(2.2862883,0,0,2.2862883,-2.3,-7.85)"
             inkscape:connector-curvature="0" />
        </g>
        <g
           id="Olive_Branch_1_">
          <path
             id="Highlight_19_"
             d="m 49.299,15.253 c 0,0 -0.873,-3.638 -3.443,-3.169 -0.177,-0.221 -0.354,-0.443 -0.541,-0.643 1.751,0.451 3.635,-1.404 3.635,-1.404 C 46.558,8.364 44.719,9.872 44.187,10.402 43.535,9.893 42.833,9.497 42.105,9.177 43.732,8.867 44.854,6.834 44.854,6.834 42.023,5.884 40.688,7.968 40.367,8.577 39.432,8.35 38.461,8.247 37.475,8.242 c 1.306,-0.697 1.276,-2.888 1.276,-2.888 -2.27,0.447 -2.407,2.333 -2.395,2.914 -3.742,0.258 -7.601,1.866 -10.525,3.893 -0.021,0.015 0.003,0.043 0.024,0.031 2.562,-1.594 5.647,-2.88 8.726,-3.342 0.037,0.101 0.768,2.006 2.919,1.429 0,0 -0.57,-1.202 -1.504,-1.582 0.826,-0.052 1.643,-0.031 2.446,0.06 -0.174,0.848 -0.336,3.019 2.193,4.127 0,0 0.62,-2.626 -0.727,-3.872 0.825,0.201 1.623,0.501 2.383,0.902 -0.354,0.786 -0.996,2.874 1.234,4.513 0,0 0.941,-1.946 0.392,-3.438 0.557,0.452 1.08,0.981 1.571,1.586 0.232,0.846 1.072,2.828 3.811,2.678 z"
             transform="matrix(2.2862883,0,0,2.2862883,-2.3,-7.85)"
             inkscape:connector-curvature="0"
             style="fill:#597a54" />
          <path
             id="Highlight_18_"
             d="m 37.095,8.172 c 0,0 1.161,-1.147 1.396,-2.337 0,-0.001 0.302,1.259 -1.396,2.337 z"
             transform="matrix(2.2862883,0,0,2.2862883,-2.3,-7.85)"
             inkscape:connector-curvature="0"
             style="fill:#7ca075" />
          <path
             id="Highlight_17_"
             d="m 41.96,8.888 c 0,0 1.503,-0.637 2.161,-1.657 0,0 -0.184,1.283 -2.161,1.657 z"
             transform="matrix(2.2862883,0,0,2.2862883,-2.3,-7.85)"
             inkscape:connector-curvature="0"
             style="fill:#7ca075" />
          <path
             id="Highlight_16_"
             d="m 45.335,11.327 c 0,0 1.625,-0.157 2.558,-0.933 0,10e-4 -0.561,1.169 -2.558,0.933 z"
             transform="matrix(2.2862883,0,0,2.2862883,-2.3,-7.85)"
             inkscape:connector-curvature="0"
             style="fill:#7ca075" />
          <path
             id="Highlight_15_"
             d="m 46.554,12.282 c 0,0 1.367,0.892 1.834,2.012 0,-0.001 0.046,-1.296 -1.834,-2.012 z"
             transform="matrix(2.2862883,0,0,2.2862883,-2.3,-7.85)"
             inkscape:connector-curvature="0"
             style="fill:#7ca075" />
          <path
             id="Highlight_14_"
             d="m 43.426,10.894 c 0,0 0.519,1.548 0.191,2.716 0,0 0.839,-0.989 -0.191,-2.716 z"
             transform="matrix(2.2862883,0,0,2.2862883,-2.3,-7.85)"
             inkscape:connector-curvature="0"
             style="fill:#7ca075" />
          <path
             id="Highlight_13_"
             d="m 39.735,9.035 c 0,0 0.768,1.441 0.639,2.647 0,0 0.663,-1.114 -0.639,-2.647 z"
             transform="matrix(2.2862883,0,0,2.2862883,-2.3,-7.85)"
             inkscape:connector-curvature="0"
             style="fill:#7ca075" />
          <path
             id="Highlight_12_"
             d="m 37.066,10.002 c 0,0 -0.548,-0.865 -1.246,-1.168 10e-4,-10e-4 0.813,-0.017 1.246,1.168 z"
             transform="matrix(2.2862883,0,0,2.2862883,-2.3,-7.85)"
             inkscape:connector-curvature="0"
             style="fill:#7ca075" />
          <path
             id="Outline_3_"
             d="m 38.75,5.354 c 0,0 0.03,2.191 -1.276,2.888 0.986,0.006 1.957,0.108 2.892,0.335 0.252,-0.478 1.128,-1.865 2.863,-1.98 0.476,-0.031 1.016,0.033 1.624,0.237 0,0 -1.122,2.034 -2.749,2.343 0.729,0.32 1.43,0.716 2.082,1.225 0.333,-0.332 1.178,-1.047 2.352,-1.125 0.699,-0.046 1.517,0.135 2.411,0.76 0,0 -1.391,1.37 -2.894,1.469 -0.245,0.017 -0.495,-10e-4 -0.741,-0.064 0.188,0.199 0.364,0.422 0.541,0.643 0.1,-0.018 0.198,-0.03 0.292,-0.037 2.345,-0.155 3.151,3.206 3.151,3.206 -2.739,0.149 -3.579,-1.832 -3.812,-2.678 -0.491,-0.605 -1.015,-1.134 -1.571,-1.586 0.55,1.492 -0.392,3.438 -0.392,3.438 -2.23,-1.639 -1.589,-3.728 -1.234,-4.513 -0.76,-0.401 -1.558,-0.701 -2.383,-0.902 1.346,1.246 0.727,3.872 0.727,3.872 C 38.104,11.777 38.266,9.606 38.44,8.758 37.637,8.667 36.82,8.646 35.994,8.698 c 0.934,0.38 1.504,1.582 1.504,1.582 -0.215,0.058 -0.416,0.09 -0.603,0.103 C 35.207,10.495 34.612,8.942 34.579,8.851 31.5,9.313 28.415,10.6 25.853,12.193 25.85,12.195 25.847,12.196 25.844,12.196 25.826,12.197 25.811,12.175 25.829,12.162 28.753,10.135 32.612,8.527 36.354,8.269 36.344,7.687 36.481,5.8 38.75,5.354 m 0.247,-0.303 -0.294,0.058 c -2.204,0.434 -2.553,2.132 -2.593,2.927 -3.446,0.287 -7.231,1.708 -10.421,3.919 0,0 -0.167,0.135 -0.434,0.425 -0.38,0.412 -0.372,0.527 -0.372,0.527 0,0 0.409,-0.184 0.544,-0.245 0.124,-0.056 0.376,-0.16 0.497,-0.223 0.103,-0.054 0.399,-0.241 0.399,-0.241 2.69,-1.673 5.343,-2.627 8.108,-3.074 0.23,0.465 0.954,1.606 2.483,1.505 0.209,-0.014 0.428,-0.051 0.651,-0.111 l 0.29,-0.078 -0.128,-0.271 C 37.708,10.129 37.375,9.44 36.794,8.916 37.248,8.914 37.701,8.934 38.15,8.975 38,10.026 38.082,12.036 40.535,13.11 l 0.274,0.121 0.069,-0.292 c 0.023,-0.097 0.477,-2.082 -0.307,-3.482 0.481,0.156 0.949,0.347 1.4,0.571 -0.383,0.981 -0.779,2.991 1.406,4.598 l 0.241,0.178 0.132,-0.271 c 0.034,-0.07 0.703,-1.476 0.572,-2.857 0.326,0.309 0.641,0.648 0.939,1.015 0.271,0.938 1.19,2.966 4.052,2.81 l 0.3,-0.016 -0.07,-0.292 c -0.035,-0.146 -0.885,-3.564 -3.411,-3.396 -0.056,0.003 -0.112,0.009 -0.171,0.017 -0.014,-0.018 -0.028,-0.036 -0.043,-0.054 0.053,0 0.104,-0.002 0.155,-0.006 1.577,-0.104 2.992,-1.481 3.052,-1.54 L 49.339,10.003 49.093,9.831 C 48.248,9.24 47.384,8.969 46.523,9.026 45.421,9.099 44.588,9.699 44.17,10.073 43.743,9.756 43.285,9.473 42.782,9.219 44.15,8.601 45.031,7.029 45.073,6.953 L 45.219,6.69 44.935,6.595 C 44.335,6.394 43.756,6.31 43.215,6.345 41.525,6.457 40.59,7.701 40.241,8.288 39.585,8.141 38.887,8.047 38.159,8.008 39.012,7.052 39.002,5.431 39,5.35 Z"
             transform="matrix(2.2862883,0,0,2.2862883,-2.3,-7.85)"
             inkscape:connector-curvature="0" />
        </g>
        <g
           id="Beak_1_">
          <path
             id="ID0.9666426465846598"
             d="m 32.833,7.63 c 0,0 0.875,-0.834 1.5,0 0,0 -0.708,1.682 -0.917,2.029 0.001,0 -0.333,-0.363 -0.583,-2.029 z"
             transform="matrix(2.2862883,0,0,2.2862883,-2.3,-7.85)"
             inkscape:connector-curvature="0"
             style="fill:#ffd18f" />
          <path
             id="ID0.780627575237304"
             d="M 33.438,9.866 33.325,9.743 C 33.288,9.703 32.958,9.305 32.71,7.648 L 32.7,7.584 32.747,7.54 c 0.018,-0.017 0.431,-0.405 0.92,-0.405 0.299,0 0.557,0.142 0.767,0.42 l 0.043,0.058 -0.028,0.066 C 34.42,7.748 33.735,9.373 33.524,9.724 Z M 32.967,7.679 c 0.153,0.987 0.334,1.49 0.444,1.723 0.234,-0.475 0.663,-1.481 0.778,-1.752 -0.383,-0.451 -1.04,-0.119 -1.222,0.029 z"
             transform="matrix(2.2862883,0,0,2.2862883,-2.3,-7.85)"
             inkscape:connector-curvature="0" />
        </g>
        <g
           id="Eye_6_">
          <path
             id="Eye_7_"
             d="m 32.162,6.065 c 0.106,0 0.202,0.062 0.271,0.163 0.07,0.101 0.113,0.24 0.113,0.394 0,0.154 -0.043,0.293 -0.113,0.394 -0.069,0.101 -0.165,0.163 -0.271,0.163 -0.106,0 -0.202,-0.062 -0.271,-0.163 -0.07,-0.101 -0.113,-0.24 -0.113,-0.394 0,-0.154 0.043,-0.293 0.113,-0.394 0.069,-0.101 0.165,-0.163 0.271,-0.163 z"
             transform="matrix(2.2862883,0,0,2.2862883,-2.3,-7.85)"
             inkscape:connector-curvature="0" />
          <path
             id="Highlight_11_"
             d="m 32.067,6.3 c 0.045,0 0.085,0.019 0.115,0.049 0.029,0.03 0.047,0.072 0.047,0.118 0,0.046 -0.018,0.088 -0.047,0.118 -0.03,0.03 -0.07,0.049 -0.115,0.049 -0.045,0 -0.085,-0.019 -0.115,-0.049 -0.029,-0.03 -0.047,-0.072 -0.047,-0.118 0,-0.046 0.018,-0.088 0.047,-0.118 0.03,-0.03 0.07,-0.049 0.115,-0.049 z"
             transform="matrix(2.2862883,0,0,2.2862883,-2.3,-7.85)"
             inkscape:connector-curvature="0"
             style="fill:#ffffff" />
        </g>
        <g
           id="Eye_4_">
          <path
             id="Eye_5_"
             d="m 34.932,6.065 c 0.106,0 0.202,0.062 0.271,0.163 0.07,0.101 0.113,0.24 0.113,0.394 0,0.154 -0.043,0.293 -0.113,0.394 -0.069,0.101 -0.165,0.163 -0.271,0.163 -0.106,0 -0.202,-0.062 -0.271,-0.163 -0.07,-0.101 -0.113,-0.24 -0.113,-0.394 0,-0.154 0.043,-0.293 0.113,-0.394 0.069,-0.101 0.165,-0.163 0.271,-0.163 z"
             transform="matrix(2.2862883,0,0,2.2862883,-2.3,-7.85)"
             inkscape:connector-curvature="0" />
          <path
             id="Highlight_10_"
             d="m 34.837,6.3 c 0.045,0 0.085,0.019 0.115,0.049 0.029,0.03 0.047,0.072 0.047,0.118 0,0.046 -0.018,0.088 -0.047,0.118 -0.03,0.03 -0.07,0.049 -0.115,0.049 -0.045,0 -0.085,-0.019 -0.115,-0.049 -0.029,-0.03 -0.047,-0.072 -0.047,-0.118 0,-0.046 0.018,-0.088 0.047,-0.118 0.03,-0.03 0.07,-0.049 0.115,-0.049 z"
             transform="matrix(2.2862883,0,0,2.2862883,-2.3,-7.85)"
             inkscape:connector-curvature="0"
             style="fill:#ffffff" />
        </g>
      </g>
    </g>
  </g>
</svg>
