<svg version="1.1" width="110" height="105" viewBox="-1 -1 110 105" xmlns="http://www.w3.org/2000/svg" xmlns:xlink="http://www.w3.org/1999/xlink">
  <!-- Exported by Scratch - http://scratch.mit.edu/ -->
  <g id="XMLID_2_" transform="matrix(1, 0, 0, 1, 1, 0)">
    <g id="ID0.6858252985402942">
      <path id="ID0.5460412274114788" fill="#F15C55" d="M 11.077 58.580 C 15.646 69.119 20.215 79.648 24.774 90.178 L 41.865 75.573 L 36.832 63.475 C 36.773 63.475 36.704 63.485 36.644 63.495 C 31.947 63.890 27.201 63.860 22.533 63.091 C 18.882 62.479 15.280 61.413 12.201 59.381 C 11.817 59.122 11.452 58.856 11.077 58.580 Z " transform="matrix(0.7350918650627136, 0, 0, 0.7350918650627136, 9.25, 17.55)"/>
      <path id="ID0.9559019207954407" fill="#FFDE0F" d="M 24.773 90.177 C 24.961 90.601 25.148 91.026 25.326 91.449 L 42.427 76.914 L 41.864 75.571 L 24.773 90.177 Z " transform="matrix(0.7350918650627136, 0, 0, 0.7350918650627136, 9.25, 17.55)"/>
      <path id="ID0.5515039362944663" fill="#F05465" d="M 25.326 91.450 C 26.293 93.671 27.250 95.881 28.207 98.092 L 45.348 83.940 L 42.427 76.915 L 25.326 91.450 Z " transform="matrix(0.7350918650627136, 0, 0, 0.7350918650627136, 9.25, 17.55)"/>
      <path id="ID0.6888519120402634" fill="#FFD67B" d="M 26.264 40.126 C 26.096 40.718 26.027 41.339 26.096 41.941 C 26.145 42.356 26.254 42.760 26.461 43.115 C 26.747 43.638 27.201 44.062 27.704 44.408 C 28.188 44.743 28.721 45 29.263 45.217 C 29.895 45.454 30.556 45.632 31.217 45.770 C 32.273 45.987 33.329 46.105 34.395 46.155 C 35.757 46.224 37.118 46.184 38.480 46.086 C 43.315 45.741 48.072 44.665 52.710 43.234 C 56.608 42.030 60.417 40.569 64.117 38.842 C 67.147 37.431 70.097 35.842 72.929 34.046 C 75.594 32.369 78.150 30.504 80.429 28.333 C 81.357 27.445 82.244 26.507 83.025 25.491 C 83.666 24.662 84.249 23.774 84.663 22.807 C 84.949 22.166 85.156 21.485 85.216 20.774 C 85.255 20.251 85.206 19.709 85.009 19.215 C 84.812 18.732 84.476 18.307 84.081 17.952 C 83.558 17.478 82.936 17.133 82.285 16.857 C 81.920 16.699 81.535 16.571 81.140 16.462 C 80.666 16.324 80.172 16.205 79.679 16.126 C 78.594 15.929 77.489 15.840 76.393 15.801 C 73.443 15.722 70.492 16.028 67.581 16.531 C 64.759 17.034 61.976 17.725 59.232 18.544 C 53.884 20.143 48.673 22.234 43.720 24.830 C 40.532 26.498 37.454 28.373 34.572 30.524 C 33.052 31.669 31.592 32.893 30.250 34.245 C 29.037 35.458 27.921 36.781 27.083 38.271 C 26.747 38.863 26.451 39.475 26.264 40.126 Z " transform="matrix(0.7350918650627136, 0, 0, 0.7350918650627136, 9.25, 17.55)"/>
      <path id="ID0.48989149648696184" fill="#A41C3C" d="M 28.208 98.091 C 28.583 98.949 28.958 99.808 29.323 100.666 L 46.493 86.703 L 45.348 83.939 L 28.208 98.091 Z " transform="matrix(0.7350918650627136, 0, 0, 0.7350918650627136, 9.25, 17.55)"/>
      <path id="ID0.4599971412681043" fill="#E74273" d="M 27.665 110.939 C 27.872 111.038 28.109 111.097 28.326 111.157 C 28.454 111.186 28.573 111.225 28.701 111.235 C 28.780 111.256 28.868 111.256 28.948 111.265 C 29.175 111.285 29.382 111.304 29.609 111.304 C 29.944 111.294 30.300 111.215 30.586 111.037 C 30.862 110.859 31.069 110.603 31.257 110.317 C 31.385 110.129 31.494 109.932 31.563 109.714 C 31.642 109.447 31.642 109.151 31.583 108.875 C 31.524 108.550 31.366 108.234 31.218 107.937 C 31.218 107.927 31.208 107.917 31.208 107.908 C 31.198 107.898 31.198 107.888 31.188 107.879 C 23.678 90.552 16.159 73.224 8.649 55.896 C 8.570 55.718 8.472 55.590 8.323 55.461 C 8.067 55.254 7.790 55.066 7.474 54.958 C 7.237 54.879 6.991 54.839 6.744 54.839 C 6.320 54.849 5.905 54.967 5.520 55.155 C 5.145 55.333 4.800 55.579 4.523 55.895 C 4.375 56.062 4.247 56.250 4.158 56.447 C 4.039 56.723 3.990 57.030 3.970 57.345 C 3.960 57.533 3.980 57.700 4.059 57.878 C 11.559 75.196 19.068 92.504 26.568 109.823 C 26.826 110.278 27.181 110.712 27.665 110.939 Z " transform="matrix(0.7350918650627136, 0, 0, 0.7350918650627136, 9.25, 17.55)"/>
      <path id="ID0.041358950547873974" fill="#9B1B3C" d="M 8.323 55.461 C 8.471 55.589 8.570 55.718 8.649 55.896 C 16.159 73.225 23.678 90.553 31.188 107.881 C 31.198 107.891 31.198 107.901 31.208 107.910 C 31.208 107.920 31.218 107.930 31.218 107.939 C 31.366 108.236 31.524 108.551 31.583 108.877 C 31.642 109.153 31.642 109.449 31.563 109.716 C 31.494 109.934 31.386 110.131 31.257 110.319 C 31.069 110.605 30.862 110.861 30.586 111.039 C 30.300 111.217 29.944 111.296 29.609 111.306 C 29.382 111.306 29.175 111.286 28.948 111.267 C 28.869 111.257 28.780 111.257 28.701 111.237 C 28.573 111.227 28.454 111.188 28.326 111.159 C 28.109 111.099 27.872 111.040 27.665 110.941 C 27.181 110.714 26.826 110.280 26.569 109.826 C 19.070 92.505 11.560 75.197 4.061 57.879 C 3.982 57.701 3.962 57.534 3.972 57.346 C 3.992 57.030 4.041 56.724 4.160 56.448 C 4.249 56.251 4.377 56.063 4.525 55.896 C 4.801 55.580 5.147 55.333 5.522 55.156 C 5.907 54.968 6.321 54.850 6.746 54.840 C 6.993 54.840 7.239 54.880 7.476 54.959 C 7.791 55.066 8.067 55.254 8.323 55.461 Z M 30.625 112.292 C 31.326 112.055 31.790 111.591 32.253 110.900 C 32.638 110.318 33.023 109.578 32.608 108.265 C 32.519 108.008 32.410 107.722 32.253 107.416 C 31.276 105.166 30.299 102.916 29.322 100.666 C 28.957 99.808 28.582 98.949 28.207 98.091 C 27.250 95.880 26.292 93.670 25.326 91.449 C 25.148 91.025 24.961 90.600 24.773 90.177 C 20.214 79.648 15.645 69.118 11.076 58.579 L 11.076 58.569 L 11.066 58.569 C 10.799 57.937 10.523 57.316 10.257 56.684 C 10.040 56.191 9.822 55.687 9.606 55.194 C 9.546 55.046 9.458 54.918 9.330 54.809 C 8.432 53.980 7.642 53.713 6.961 53.694 C 6.646 53.674 6.359 53.704 6.103 53.753 C 5.245 53.911 4.692 54.227 4.080 54.730 C 3.488 55.204 2.856 55.845 2.797 57.621 C 2.787 57.799 2.817 57.957 2.886 58.124 C 10.435 75.521 17.984 92.929 25.523 110.336 C 26.224 111.589 27.151 112.053 28.079 112.290 C 29.007 112.518 29.935 112.518 30.625 112.292 Z " transform="matrix(0.7350918650627136, 0, 0, 0.7350918650627136, 9.25, 17.55)"/>
      <path id="ID0.24118993617594242" fill="#E7638C" d="M 35.994 61.214 C 33.398 61.421 30.793 61.481 28.198 61.361 C 25.474 61.223 22.751 60.878 20.106 60.207 C 18.093 59.704 16.129 59.013 14.343 57.977 C 13.702 57.602 13.080 57.187 12.498 56.734 C 11.689 56.112 10.870 55.333 10.159 54.424 L 9.330 54.810 C 9.458 54.918 9.547 55.047 9.606 55.195 C 9.823 55.688 10.040 56.192 10.257 56.685 C 10.533 57.317 10.799 57.938 11.076 58.570 L 11.076 58.580 C 11.451 58.856 11.816 59.122 12.201 59.379 C 15.280 61.412 18.882 62.477 22.533 63.089 C 27.201 63.859 31.948 63.888 36.644 63.493 C 36.704 63.483 36.772 63.473 36.832 63.473 L 36.724 63.206 C 36.507 62.693 36.300 62.180 36.082 61.667 C 36.023 61.520 35.994 61.373 35.994 61.214 Z " transform="matrix(0.7350918650627136, 0, 0, 0.7350918650627136, 9.25, 17.55)"/>
      <path id="ID0.36314728343859315" fill="#E74273" d="M 60.792 115.686 C 61.098 115.824 61.423 115.932 61.759 115.982 C 62.282 116.061 62.825 115.992 63.279 115.735 C 63.457 115.636 63.625 115.518 63.773 115.381 C 63.852 115.302 63.941 115.213 64.020 115.134 C 64.129 115.026 64.237 114.927 64.336 114.819 C 64.474 114.680 64.612 114.522 64.691 114.355 C 64.790 114.147 64.819 113.920 64.810 113.694 C 64.810 113.466 64.770 113.240 64.711 113.022 C 57.269 95.130 49.838 77.250 42.398 59.369 C 42.319 59.181 42.210 59.033 42.043 58.905 C 41.846 58.717 41.619 58.570 41.372 58.441 C 41.194 58.352 40.997 58.273 40.800 58.253 C 40.652 58.243 40.484 58.263 40.326 58.293 C 39.941 58.382 39.576 58.540 39.241 58.737 C 38.856 58.945 38.501 59.211 38.155 59.487 C 37.978 59.635 37.810 59.783 37.672 59.961 C 37.484 60.188 37.346 60.464 37.268 60.750 C 37.179 61.026 37.189 61.263 37.297 61.529 C 44.669 79.232 52.020 96.936 59.382 114.639 C 59.481 114.856 59.619 115.024 59.826 115.152 C 60.131 115.350 60.456 115.538 60.792 115.686 Z " transform="matrix(0.7350918650627136, 0, 0, 0.7350918650627136, 9.25, 17.55)"/>
      <path id="ID0.026571299880743027" fill="#F15C55" d="M 54.407 113.199 C 55.324 113.268 56.163 113.239 57.496 113.160 L 46.493 86.704 L 29.323 100.667 C 30.300 102.917 31.277 105.167 32.254 107.417 C 32.412 107.723 32.521 108.009 32.609 108.266 C 34.109 109.637 35.500 110.101 36.586 110.487 C 37.671 110.882 38.441 111.187 39.606 111.473 C 40.761 111.769 42.310 112.036 44.244 112.233 C 46.178 112.421 48.497 112.539 50.273 112.716 C 52.049 112.883 53.292 113.121 54.407 113.199 Z " transform="matrix(0.7350918650627136, 0, 0, 0.7350918650627136, 9.25, 17.55)"/>
      <path id="ID0.7023442313075066" fill="#9B1B3C" d="M 59.381 114.640 C 52.019 96.937 44.668 79.233 37.296 61.530 C 37.188 61.263 37.178 61.027 37.267 60.751 C 37.346 60.465 37.484 60.188 37.671 59.962 C 37.809 59.784 37.977 59.636 38.154 59.488 C 38.500 59.212 38.855 58.946 39.240 58.738 C 39.575 58.541 39.940 58.383 40.325 58.294 C 40.483 58.264 40.651 58.245 40.799 58.254 C 40.996 58.274 41.194 58.353 41.371 58.442 C 41.618 58.570 41.845 58.718 42.042 58.906 C 42.210 59.034 42.318 59.182 42.397 59.370 C 49.837 77.250 57.268 95.131 64.709 113.022 C 64.768 113.240 64.808 113.466 64.808 113.694 C 64.818 113.921 64.788 114.147 64.689 114.355 C 64.610 114.522 64.472 114.680 64.334 114.819 C 64.235 114.927 64.127 115.026 64.018 115.134 C 63.939 115.213 63.851 115.302 63.771 115.381 C 63.623 115.519 63.455 115.637 63.277 115.735 C 62.823 115.992 62.280 116.061 61.757 115.982 C 61.422 115.932 61.096 115.824 60.790 115.686 C 60.454 115.538 60.129 115.350 59.823 115.153 C 59.618 115.025 59.479 114.857 59.381 114.640 Z M 46.493 86.704 L 57.496 113.160 C 57.811 113.900 58.118 114.640 58.423 115.381 C 58.512 115.588 58.640 115.745 58.828 115.884 C 60.831 117.295 62.143 117.285 63.032 117.068 C 63.960 116.832 64.424 116.368 65.006 115.786 C 65.589 115.214 66.279 114.513 65.815 112.658 C 65.805 112.628 65.786 112.589 65.776 112.559 C 62.430 104.516 59.095 96.474 55.740 88.441 L 54.526 85.510 L 50.076 74.803 L 47.076 67.600 L 44.984 62.567 C 44.954 62.508 44.924 62.439 44.905 62.379 C 44.599 61.649 44.293 60.909 43.987 60.179 C 43.770 59.646 43.543 59.123 43.326 58.590 C 43.257 58.412 43.149 58.274 43 58.146 C 41.589 56.972 40.721 56.991 39.912 57.208 C 39.063 57.435 38.284 57.898 37.554 58.481 C 36.873 59.023 36.221 59.655 36.005 61.056 C 35.995 61.116 35.995 61.155 35.995 61.214 C 35.995 61.372 36.024 61.520 36.083 61.668 C 36.300 62.181 36.507 62.694 36.725 63.207 L 36.833 63.474 L 41.866 75.572 L 42.429 76.915 L 45.350 83.940 L 46.493 86.704 Z " transform="matrix(0.7350918650627136, 0, 0, 0.7350918650627136, 9.25, 17.55)"/>
      <path id="ID0.7846485273912549" fill="#FFDE0F" d="M 73.551 90.147 L 91.146 60.543 C 90.889 59.940 90.643 59.339 90.396 58.737 L 73.551 88.292 L 47.075 67.599 L 50.075 74.802 L 73.551 90.147 Z " transform="matrix(0.7350918650627136, 0, 0, 0.7350918650627136, 9.25, 17.55)"/>
      <path id="ID0.05230782367289066" fill="#F05465" d="M 74.015 98.042 C 74.943 98.506 75.870 98.270 76.571 97.924 C 77.261 97.578 77.725 97.114 78.653 95.724 L 94.363 68.281 C 93.288 65.706 92.212 63.120 91.146 60.545 L 73.551 90.147 L 50.075 74.802 L 54.525 85.509 L 74.015 98.042 Z " transform="matrix(0.7350918650627136, 0, 0, 0.7350918650627136, 9.25, 17.55)"/>
      <path id="ID0.32235867576673627" fill="#E7638C" d="M 84.228 43.935 C 72.022 51.948 58.345 57.464 43.986 60.178 C 44.292 60.908 44.598 61.648 44.904 62.378 C 49.039 61.608 53.134 60.563 57.140 59.299 C 62.271 57.681 67.274 55.717 72.120 53.418 C 76.620 51.277 80.981 48.849 85.136 46.116 C 84.840 45.386 84.535 44.666 84.228 43.935 Z " transform="matrix(0.7350918650627136, 0, 0, 0.7350918650627136, 9.25, 17.55)"/>
      <path id="ID0.6150966309942305" fill="#F37355" d="M 85.136 46.116 C 80.982 48.849 76.620 51.277 72.120 53.418 C 67.274 55.717 62.271 57.681 57.140 59.299 C 53.134 60.562 49.038 61.608 44.904 62.378 C 44.924 62.438 44.953 62.507 44.983 62.566 L 47.075 67.599 L 73.551 88.292 L 90.396 58.737 C 88.708 54.701 87.031 50.665 85.353 46.629 C 85.285 46.461 85.215 46.284 85.136 46.116 Z " transform="matrix(0.7350918650627136, 0, 0, 0.7350918650627136, 9.25, 17.55)"/>
      <path id="ID0.19296439876779914" fill="#94193B" d="M 78.594 32.942 C 80.025 31.847 81.386 30.672 82.669 29.389 C 83.972 28.076 85.186 26.665 86.112 25.067 C 86.744 23.982 87.247 22.817 87.445 21.584 C 87.622 20.509 87.573 19.374 87.169 18.357 C 86.754 17.340 86.014 16.482 85.136 15.821 C 84.139 15.071 82.975 14.578 81.781 14.232 C 80.360 13.817 78.890 13.620 77.410 13.531 C 75.683 13.423 73.956 13.462 72.239 13.600 C 70.097 13.767 67.956 14.083 65.854 14.498 C 61.404 15.376 57.042 16.669 52.799 18.258 C 48.556 19.847 44.421 21.732 40.464 23.962 C 38.747 24.919 37.069 25.955 35.441 27.051 C 34.642 27.603 33.852 28.176 33.072 28.758 C 30.349 30.811 27.773 33.110 25.829 35.903 C 25.089 36.968 24.437 38.104 24.082 39.347 C 23.924 39.880 23.816 40.432 23.767 40.995 C 23.727 41.548 23.737 42.110 23.836 42.653 C 24.073 43.897 24.803 45.011 25.760 45.841 C 26.520 46.502 27.418 46.986 28.365 47.351 C 29.303 47.716 30.280 47.973 31.276 48.141 C 32.875 48.427 34.503 48.516 36.131 48.506 C 37.069 48.496 38.006 48.457 38.944 48.387 C 39.882 48.308 40.809 48.209 41.747 48.081 C 43.405 47.864 45.043 47.568 46.681 47.222 C 48.309 46.867 49.937 46.462 51.546 46.009 C 54.398 45.199 57.200 44.242 59.963 43.157 C 62.716 42.072 65.420 40.858 68.065 39.496 C 70.078 38.470 72.052 37.345 73.966 36.141 C 74.726 35.658 75.476 35.174 76.226 34.661 C 77.025 34.107 77.814 33.544 78.594 32.942 Z M 84.663 22.808 C 84.249 23.775 83.666 24.663 83.025 25.492 C 82.245 26.509 81.357 27.446 80.429 28.334 C 78.150 30.505 75.594 32.370 72.929 34.047 C 70.097 35.843 67.147 37.432 64.117 38.843 C 60.417 40.570 56.608 42.031 52.710 43.235 C 48.072 44.666 43.315 45.741 38.480 46.087 C 37.118 46.186 35.757 46.225 34.395 46.156 C 33.329 46.107 32.273 45.988 31.217 45.771 C 30.556 45.633 29.895 45.455 29.263 45.218 C 28.721 45.001 28.188 44.744 27.704 44.409 C 27.201 44.063 26.747 43.639 26.461 43.116 C 26.254 42.761 26.145 42.356 26.096 41.942 C 26.027 41.340 26.096 40.718 26.264 40.127 C 26.452 39.476 26.747 38.864 27.083 38.272 C 27.922 36.782 29.037 35.459 30.250 34.246 C 31.592 32.894 33.053 31.670 34.572 30.525 C 37.454 28.374 40.532 26.499 43.720 24.831 C 48.674 22.236 53.884 20.144 59.232 18.545 C 61.976 17.726 64.758 17.035 67.581 16.532 C 70.492 16.029 73.443 15.723 76.393 15.802 C 77.489 15.841 78.594 15.930 79.679 16.127 C 80.172 16.206 80.666 16.325 81.140 16.463 C 81.535 16.571 81.919 16.700 82.285 16.858 C 82.936 17.134 83.557 17.480 84.081 17.953 C 84.476 18.308 84.811 18.733 85.009 19.216 C 85.206 19.710 85.255 20.252 85.216 20.775 C 85.156 21.485 84.949 22.167 84.663 22.808 Z " transform="matrix(0.7350918650627136, 0, 0, 0.7350918650627136, 9.25, 17.55)"/>
      <path id="ID0.030562695115804672" fill="#E74273" d="M 108.888 97.825 C 109.204 97.953 109.530 98.072 109.866 98.121 C 110.379 98.200 110.931 98.121 111.386 97.874 C 111.564 97.775 111.722 97.647 111.869 97.510 C 111.958 97.431 112.037 97.352 112.116 97.273 C 112.224 97.165 112.333 97.066 112.441 96.958 C 112.580 96.810 112.708 96.662 112.796 96.484 C 112.885 96.287 112.914 96.059 112.914 95.833 C 112.904 95.605 112.865 95.379 112.815 95.152 C 105.365 77.260 97.924 59.360 90.484 41.469 C 90.405 41.272 90.287 41.124 90.119 40.995 C 89.922 40.837 89.705 40.699 89.477 40.580 C 89.289 40.481 89.102 40.413 88.905 40.392 C 88.747 40.372 88.590 40.402 88.431 40.432 C 88.046 40.521 87.681 40.679 87.335 40.866 C 86.950 41.083 86.596 41.340 86.250 41.626 C 86.082 41.764 85.904 41.922 85.767 42.090 C 85.579 42.337 85.441 42.613 85.352 42.909 C 85.273 43.185 85.284 43.422 85.402 43.688 C 92.754 61.372 100.105 79.065 107.466 96.749 C 107.555 96.976 107.694 97.144 107.901 97.271 C 108.217 97.479 108.553 97.667 108.888 97.825 Z " transform="matrix(0.7350918650627136, 0, 0, 0.7350918650627136, 9.25, 17.55)"/>
      <path id="ID0.4182160599157214" fill="#FDF9D0" d="M 88.018 39.347 C 88.629 39.179 89.281 39.130 90.179 39.643 L 90.238 39.544 C 93.288 37.106 96.149 34.433 98.685 31.462 C 100.007 29.903 101.241 28.255 102.307 26.499 C 103.915 23.854 105.139 20.963 105.454 17.835 C 105.296 17.460 105.128 17.095 104.971 16.720 C 104.902 16.562 104.872 16.404 104.872 16.227 C 104.901 15.398 105.060 14.816 105.267 14.392 C 104.961 12.912 104.300 11.510 103.392 10.307 C 102.671 9.360 101.793 8.540 100.827 7.830 C 100.304 7.445 99.761 7.100 99.198 6.784 C 97.886 6.034 96.475 5.452 95.034 4.998 C 93.426 4.485 91.778 4.129 90.110 3.863 C 88.196 3.567 86.252 3.399 84.307 3.340 C 81.515 3.261 78.712 3.399 75.929 3.675 C 72.801 3.981 69.693 4.474 66.614 5.126 C 63.180 5.846 59.795 6.774 56.460 7.849 C 50.539 9.754 44.766 12.122 39.230 14.984 C 35.135 17.106 31.168 19.494 27.389 22.138 C 25.405 23.539 23.461 25.010 21.606 26.579 C 19.129 28.690 16.800 30.970 14.708 33.467 C 12.873 35.638 11.225 37.977 9.971 40.532 C 9.271 41.973 8.688 43.502 8.363 45.081 C 8.126 46.246 8.018 47.439 8.067 48.633 C 8.116 49.541 8.245 50.439 8.511 51.307 C 8.649 51.771 8.837 52.225 9.044 52.659 C 9.359 53.290 9.734 53.883 10.159 54.425 C 10.870 55.333 11.689 56.113 12.498 56.735 C 13.081 57.189 13.702 57.603 14.343 57.978 C 16.129 59.014 18.093 59.705 20.106 60.208 C 22.751 60.879 25.474 61.225 28.198 61.362 C 30.793 61.481 33.398 61.422 35.994 61.215 C 35.994 61.155 35.994 61.116 36.004 61.057 C 36.221 59.656 36.872 59.024 37.553 58.482 C 38.283 57.899 39.063 57.436 39.911 57.209 C 40.720 56.992 41.588 56.972 42.999 58.147 C 43.147 58.275 43.256 58.413 43.325 58.591 C 43.542 59.124 43.769 59.647 43.986 60.180 C 58.344 57.466 72.022 51.950 84.228 43.937 C 84.218 43.898 84.208 43.868 84.189 43.829 C 84.100 43.622 84.071 43.425 84.110 43.198 C 84.317 41.797 84.968 41.165 85.649 40.622 C 86.389 40.038 87.160 39.574 88.018 39.347 Z M 23.836 42.652 C 23.737 42.110 23.728 41.547 23.767 40.994 C 23.816 40.431 23.925 39.879 24.082 39.346 C 24.437 38.103 25.089 36.968 25.829 35.902 C 27.773 33.109 30.349 30.810 33.072 28.757 C 33.852 28.175 34.641 27.602 35.441 27.050 C 37.069 25.954 38.747 24.918 40.464 23.961 C 44.421 21.731 48.556 19.846 52.799 18.257 C 57.042 16.668 61.404 15.376 65.854 14.497 C 67.956 14.082 70.097 13.767 72.239 13.599 C 73.956 13.461 75.683 13.421 77.410 13.530 C 78.890 13.619 80.360 13.816 81.781 14.231 C 82.975 14.577 84.139 15.070 85.136 15.820 C 86.014 16.481 86.754 17.340 87.169 18.356 C 87.573 19.372 87.622 20.507 87.445 21.583 C 87.247 22.817 86.744 23.981 86.112 25.066 C 85.185 26.665 83.971 28.076 82.669 29.388 C 81.386 30.671 80.024 31.846 78.594 32.941 C 77.814 33.543 77.025 34.106 76.225 34.658 C 75.475 35.171 74.725 35.655 73.965 36.138 C 72.051 37.342 70.077 38.467 68.064 39.493 C 65.419 40.855 62.716 42.069 59.962 43.154 C 57.199 44.239 54.397 45.196 51.545 46.006 C 49.937 46.460 48.308 46.864 46.680 47.219 C 45.042 47.565 43.404 47.861 41.746 48.078 C 40.808 48.206 39.881 48.305 38.943 48.384 C 38.005 48.453 37.068 48.492 36.130 48.503 C 34.502 48.513 32.874 48.424 31.275 48.138 C 30.278 47.970 29.301 47.714 28.364 47.348 C 27.417 46.983 26.519 46.499 25.759 45.838 C 24.803 45.011 24.073 43.896 23.836 42.652 Z " transform="matrix(0.7350918650627136, 0, 0, 0.7350918650627136, 9.25, 17.55)"/>
      <path id="ID0.6898425784893334" fill="#F15C55" d="M 91.699 41.360 C 91.817 41.636 91.926 41.923 92.044 42.199 L 95.794 51.218 L 121.954 55.906 C 117.001 44.459 112.037 33.012 107.073 21.565 C 106.176 24.644 104.587 27.486 102.702 30.091 C 101.281 32.065 99.692 33.910 97.995 35.657 C 96.021 37.689 93.909 39.583 91.699 41.360 Z " transform="matrix(0.7350918650627136, 0, 0, 0.7350918650627136, 9.25, 17.55)"/>
      <path id="ID0.0985081223770976" fill="#A41C3C" d="M 94.363 68.280 L 78.653 95.723 C 77.725 97.114 77.261 97.577 76.571 97.923 C 75.871 98.269 74.943 98.505 74.015 98.041 L 54.525 85.509 L 55.739 88.440 L 55.749 88.440 L 75.871 101.753 C 77.153 102.177 78.427 102.217 79.709 101.496 L 79.709 101.506 C 79.927 101.388 80.074 101.230 80.183 101.013 L 95.360 70.667 C 95.024 69.869 94.689 69.079 94.363 68.280 Z " transform="matrix(0.7350918650627136, 0, 0, 0.7350918650627136, 9.25, 17.55)"/>
      <path id="ID0.0777340680360794" fill="#F05465" d="M 97.985 56.487 L 101.123 64.027 L 125.685 64.501 C 124.678 62.182 123.672 59.873 122.675 57.554 L 97.985 56.487 Z " transform="matrix(0.7350918650627136, 0, 0, 0.7350918650627136, 9.25, 17.55)"/>
      <path id="ID0.9899623389355838" fill="#E7638C" d="M 102.702 30.090 C 104.587 27.485 106.176 24.643 107.073 21.564 C 107.073 21.554 107.063 21.554 107.063 21.544 C 106.530 20.310 105.988 19.067 105.455 17.834 C 105.140 20.962 103.916 23.854 102.308 26.498 C 101.242 28.254 100.008 29.902 98.686 31.461 C 96.150 34.432 93.289 37.106 90.239 39.543 L 90.180 39.642 C 90.466 39.800 90.772 40.017 91.118 40.313 C 91.265 40.431 91.374 40.579 91.443 40.747 C 91.532 40.954 91.611 41.151 91.700 41.359 C 93.910 39.583 96.022 37.688 97.996 35.655 C 99.692 33.909 101.281 32.064 102.702 30.090 Z " transform="matrix(0.7350918650627136, 0, 0, 0.7350918650627136, 9.25, 17.55)"/>
      <path id="ID0.7032539392821491" fill="#E7638C" d="M 103.392 10.305 C 104.300 11.509 104.961 12.910 105.267 14.390 C 105.514 13.887 105.839 13.591 106.155 13.334 C 106.510 13.048 106.837 12.821 107.212 12.653 C 107.113 12.347 106.994 12.051 106.876 11.745 C 106.333 10.432 105.544 9.209 104.606 8.134 C 103.659 7.068 102.543 6.150 101.349 5.371 C 99.800 4.364 98.113 3.595 96.366 2.993 C 94.620 2.391 92.824 1.967 90.998 1.661 C 86.351 0.871 81.584 0.862 76.887 1.256 C 69.940 1.838 63.170 3.309 56.519 5.391 C 46.325 8.588 36.437 13.217 27.517 19.236 C 23.205 22.147 19.120 25.383 15.528 29.094 C 13.840 30.831 12.261 32.676 10.840 34.659 C 8.669 37.659 6.853 40.955 6.103 44.567 C 5.511 47.369 5.570 50.359 6.656 53.004 C 6.755 53.231 6.853 53.458 6.962 53.685 L 6.962 53.695 C 7.643 53.715 8.433 53.981 9.331 54.810 L 10.160 54.425 C 9.736 53.883 9.361 53.290 9.045 52.659 C 8.837 52.225 8.650 51.771 8.512 51.307 C 8.246 50.439 8.117 49.541 8.068 48.633 C 8.019 47.439 8.127 46.245 8.364 45.081 C 8.690 43.502 9.272 41.973 9.972 40.532 C 11.225 37.976 12.873 35.637 14.709 33.467 C 16.801 30.970 19.130 28.691 21.607 26.579 C 23.462 25.010 25.406 23.539 27.390 22.138 C 31.169 19.493 35.136 17.105 39.231 14.984 C 44.767 12.122 50.540 9.754 56.461 7.849 C 59.796 6.774 63.181 5.846 66.615 5.126 C 69.694 4.475 72.803 3.981 75.930 3.675 C 78.713 3.399 81.516 3.260 84.308 3.340 C 86.252 3.399 88.197 3.567 90.111 3.863 C 91.779 4.129 93.426 4.485 95.035 4.998 C 96.476 5.452 97.888 6.034 99.199 6.784 C 99.762 7.100 100.304 7.445 100.828 7.830 C 101.793 8.539 102.671 9.358 103.392 10.305 Z " transform="matrix(0.7350918650627136, 0, 0, 0.7350918650627136, 9.25, 17.55)"/>
      <path id="ID0.5146154942922294" fill="#F37355" d="M 106.530 97.519 C 102.801 88.569 99.080 79.618 95.360 70.667 L 80.182 101.012 C 80.074 101.229 79.926 101.387 79.708 101.505 L 79.708 101.495 C 78.426 102.216 77.152 102.176 75.870 101.752 L 55.749 88.440 L 65.775 112.558 C 65.785 112.587 65.804 112.626 65.814 112.657 C 70.116 112.064 72.012 111.927 73.709 111.660 C 75.406 111.384 76.916 110.979 78.465 110.436 C 80.004 109.893 81.573 109.222 82.965 108.621 C 84.366 108.028 85.570 107.516 86.932 106.943 C 88.294 106.380 89.794 105.758 91.077 105.236 C 92.370 104.713 93.435 104.279 94.877 103.657 C 96.317 103.035 98.133 102.236 99.909 101.397 C 101.676 100.548 103.383 99.660 106.688 97.805 C 106.688 97.805 106.698 97.795 106.688 97.795 C 106.659 97.755 106.628 97.716 106.599 97.666 C 106.580 97.618 106.550 97.568 106.530 97.519 Z " transform="matrix(0.7350918650627136, 0, 0, 0.7350918650627136, 9.25, 17.55)"/>
      <path id="ID0.6892175725661218" fill="#9B1B3C" d="M 107.467 96.750 C 100.106 79.066 92.754 61.373 85.403 43.689 C 85.285 43.423 85.274 43.186 85.353 42.910 C 85.442 42.614 85.581 42.338 85.768 42.091 C 85.906 41.924 86.083 41.765 86.251 41.627 C 86.597 41.341 86.951 41.085 87.336 40.867 C 87.682 40.679 88.047 40.522 88.432 40.433 C 88.590 40.403 88.747 40.374 88.906 40.393 C 89.103 40.413 89.291 40.482 89.478 40.581 C 89.706 40.700 89.922 40.838 90.120 40.996 C 90.288 41.124 90.406 41.272 90.485 41.470 C 97.925 59.361 105.366 77.261 112.816 95.153 C 112.866 95.380 112.905 95.606 112.915 95.834 C 112.915 96.061 112.886 96.288 112.797 96.485 C 112.708 96.663 112.580 96.810 112.442 96.959 C 112.334 97.067 112.225 97.166 112.117 97.274 C 112.038 97.353 111.959 97.432 111.870 97.511 C 111.723 97.649 111.564 97.777 111.387 97.875 C 110.933 98.122 110.380 98.201 109.867 98.122 C 109.531 98.073 109.206 97.954 108.889 97.826 C 108.554 97.668 108.218 97.480 107.903 97.273 C 107.695 97.144 107.556 96.976 107.467 96.750 Z M 95.360 70.667 C 99.080 79.617 102.800 88.568 106.530 97.519 C 106.551 97.568 106.580 97.618 106.599 97.666 C 106.628 97.716 106.659 97.755 106.698 97.795 L 106.688 97.795 C 106.698 97.795 106.688 97.805 106.688 97.805 C 106.757 97.884 106.836 97.952 106.925 98.022 C 108.938 99.433 110.250 99.423 111.138 99.197 C 112.066 98.969 112.530 98.506 113.112 97.924 C 113.684 97.342 114.385 96.651 113.922 94.796 C 113.783 94.450 113.636 94.115 113.497 93.770 L 101.922 65.942 L 101.123 64.028 L 97.985 56.488 L 95.794 51.218 L 92.044 42.199 C 91.926 41.923 91.817 41.636 91.699 41.360 C 91.610 41.152 91.531 40.955 91.442 40.748 C 91.373 40.580 91.264 40.432 91.117 40.314 C 90.771 40.018 90.466 39.801 90.179 39.643 C 89.281 39.130 88.629 39.179 88.018 39.347 C 87.160 39.574 86.389 40.038 85.649 40.620 C 84.968 41.163 84.317 41.794 84.110 43.196 C 84.071 43.423 84.100 43.620 84.189 43.827 C 84.209 43.867 84.218 43.896 84.228 43.935 C 84.535 44.665 84.840 45.386 85.136 46.116 C 85.215 46.283 85.284 46.461 85.353 46.629 C 87.031 50.655 88.708 54.691 90.396 58.727 C 90.396 58.727 90.386 58.727 90.396 58.737 C 90.643 59.339 90.889 59.941 91.146 60.543 C 92.211 63.118 93.288 65.704 94.363 68.279 C 94.689 69.079 95.024 69.869 95.360 70.667 Z " transform="matrix(0.7350918650627136, 0, 0, 0.7350918650627136, 9.25, 17.55)"/>
      <path id="ID0.9768770323134959" fill="#FFDE0F" d="M 121.954 55.905 L 95.794 51.217 L 97.985 56.487 L 122.674 57.553 C 122.437 57 122.201 56.458 121.954 55.905 Z " transform="matrix(0.7350918650627136, 0, 0, 0.7350918650627136, 9.25, 17.55)"/>
      <path id="ID0.35497543355450034" fill="#A41C3C" d="M 125.684 64.500 L 101.122 64.026 L 101.921 65.940 L 126.275 65.871 C 126.079 65.418 125.881 64.955 125.684 64.500 Z " transform="matrix(0.7350918650627136, 0, 0, 0.7350918650627136, 9.25, 17.55)"/>
      <path id="ID0.26121807005256414" fill="#F15C55" d="M 128.477 70.046 C 128.358 69.947 128.249 69.839 128.141 69.710 C 128.052 69.611 127.963 69.493 127.884 69.375 C 127.785 69.246 127.696 69.099 127.608 68.940 C 127.165 67.914 126.720 66.897 126.276 65.871 L 101.922 65.940 L 113.497 93.768 C 114.573 93.038 115.273 92.415 116.408 91.321 C 117.790 89.999 119.803 87.985 121.500 86.051 C 123.198 84.116 124.589 82.262 125.872 79.943 C 127.144 77.624 128.310 74.841 129.267 70.578 C 129.188 70.539 129.119 70.500 129.040 70.460 C 128.842 70.342 128.655 70.214 128.477 70.046 Z " transform="matrix(0.7350918650627136, 0, 0, 0.7350918650627136, 9.25, 17.55)"/>
      <path id="ID0.9164422564208508" fill="#E74273" d="M 129.740 69.542 C 129.957 69.641 130.184 69.700 130.411 69.760 C 130.540 69.789 130.658 69.828 130.786 69.849 C 130.865 69.859 130.944 69.859 131.033 69.869 C 131.250 69.889 131.467 69.908 131.684 69.908 C 132.029 69.898 132.384 69.819 132.670 69.641 C 132.946 69.464 133.153 69.207 133.341 68.921 C 133.470 68.733 133.578 68.536 133.648 68.318 C 133.726 68.052 133.726 67.755 133.668 67.479 C 133.599 67.154 133.450 66.848 133.303 66.542 C 133.293 66.531 133.293 66.521 133.283 66.512 C 133.283 66.502 133.273 66.492 133.273 66.483 C 125.763 49.154 118.244 31.826 110.734 14.498 C 110.655 14.330 110.556 14.192 110.409 14.064 C 110.152 13.856 109.866 13.669 109.550 13.561 C 109.323 13.482 109.076 13.442 108.830 13.453 C 108.405 13.453 107.991 13.571 107.606 13.759 C 107.231 13.937 106.885 14.183 106.599 14.499 C 106.452 14.666 106.332 14.854 106.244 15.062 C 106.106 15.358 106.066 15.703 106.047 16.039 C 106.037 16.227 106.067 16.394 106.136 16.562 C 113.646 33.851 121.146 51.140 128.656 68.429 C 128.911 68.881 129.266 69.316 129.740 69.542 Z " transform="matrix(0.7350918650627136, 0, 0, 0.7350918650627136, 9.25, 17.55)"/>
      <path id="ID0.9716323465108871" fill="#9B1B3C" d="M 128.141 69.710 C 128.249 69.839 128.358 69.947 128.477 70.046 C 128.665 70.214 128.852 70.342 129.040 70.460 C 129.118 70.500 129.187 70.539 129.267 70.578 C 129.563 70.717 129.859 70.825 130.165 70.894 C 131.092 71.130 132.019 71.130 132.711 70.894 C 133.411 70.666 133.875 70.193 134.339 69.502 C 134.803 68.802 135.267 67.874 134.339 66.019 C 126.790 48.612 119.240 31.205 111.692 13.797 C 111.624 13.649 111.545 13.521 111.416 13.412 C 110.103 12.198 109.009 12.208 108.189 12.356 C 107.814 12.425 107.499 12.524 107.212 12.652 C 106.837 12.819 106.511 13.047 106.155 13.333 C 105.840 13.590 105.514 13.886 105.267 14.389 C 105.060 14.813 104.902 15.395 104.872 16.224 C 104.872 16.401 104.901 16.559 104.971 16.717 C 105.128 17.092 105.296 17.457 105.454 17.832 C 105.987 19.065 106.529 20.309 107.062 21.542 C 107.062 21.552 107.072 21.552 107.072 21.562 C 112.036 33.009 117 44.456 121.953 55.903 C 122.200 56.456 122.436 56.998 122.674 57.551 C 123.671 59.870 124.677 62.179 125.684 64.498 C 125.881 64.952 126.079 65.416 126.276 65.869 C 126.720 66.895 127.165 67.912 127.608 68.938 C 127.697 69.096 127.786 69.244 127.884 69.373 C 127.963 69.494 128.052 69.612 128.141 69.710 Z M 128.655 68.428 C 121.145 51.139 113.645 33.850 106.135 16.561 C 106.066 16.393 106.036 16.226 106.046 16.038 C 106.066 15.702 106.106 15.357 106.243 15.061 C 106.332 14.853 106.451 14.666 106.598 14.498 C 106.884 14.182 107.230 13.935 107.605 13.758 C 107.990 13.570 108.404 13.452 108.829 13.452 C 109.075 13.442 109.322 13.481 109.549 13.560 C 109.865 13.668 110.152 13.856 110.408 14.063 C 110.555 14.191 110.654 14.329 110.733 14.497 C 118.243 31.825 125.762 49.153 133.272 66.482 C 133.272 66.492 133.282 66.502 133.282 66.511 C 133.292 66.521 133.292 66.531 133.302 66.541 C 133.449 66.847 133.598 67.152 133.667 67.478 C 133.726 67.754 133.726 68.051 133.647 68.317 C 133.578 68.535 133.469 68.732 133.340 68.920 C 133.152 69.206 132.945 69.463 132.669 69.640 C 132.383 69.818 132.027 69.897 131.683 69.907 C 131.465 69.907 131.248 69.887 131.032 69.868 C 130.943 69.858 130.864 69.858 130.785 69.848 C 130.657 69.827 130.539 69.788 130.410 69.759 C 130.183 69.699 129.956 69.640 129.739 69.541 C 129.266 69.316 128.911 68.881 128.655 68.428 Z " transform="matrix(0.7350918650627136, 0, 0, 0.7350918650627136, 9.25, 17.55)"/>
    </g>
    <g id="ID0.9870595317333937">
      <path id="ID0.40189001336693764" fill="none" stroke="#000000" stroke-width="0.5616" stroke-linecap="round" stroke-linejoin="round" d="M 107.211 12.654 C 107.112 12.348 106.993 12.052 106.875 11.746 C 106.332 10.433 105.543 9.210 104.605 8.135 C 103.658 7.069 102.542 6.151 101.348 5.372 C 99.799 4.365 98.112 3.596 96.365 2.994 C 94.619 2.392 92.823 1.968 90.997 1.662 C 86.350 0.872 81.583 0.863 76.886 1.257 C 69.940 1.838 63.170 3.309 56.519 5.391 C 46.325 8.588 36.437 13.217 27.517 19.236 C 23.205 22.147 19.120 25.383 15.528 29.094 C 13.840 30.831 12.261 32.676 10.840 34.659 C 8.669 37.659 6.853 40.955 6.103 44.567 C 5.511 47.369 5.570 50.359 6.656 53.004 C 6.755 53.231 6.853 53.458 6.962 53.685 " transform="matrix(0.7350918650627136, 0, 0, 0.7350918650627136, 9.25, 17.55)"/>
      <path id="ID0.10038703819736838" fill="none" stroke="#000000" stroke-width="0.5616" stroke-linecap="round" stroke-linejoin="round" d="M 90.238 39.544 C 93.288 37.106 96.149 34.433 98.685 31.462 C 100.007 29.903 101.241 28.255 102.307 26.499 C 103.915 23.854 105.139 20.963 105.454 17.835 " transform="matrix(0.7350918650627136, 0, 0, 0.7350918650627136, 9.25, 17.55)"/>
      <path id="ID0.4056662395596504" fill="none" stroke="#000000" stroke-width="0.5616" stroke-linecap="round" stroke-linejoin="round" d="M 43.986 60.178 C 58.344 57.464 72.022 51.948 84.228 43.935 " transform="matrix(0.7350918650627136, 0, 0, 0.7350918650627136, 9.25, 17.55)"/>
      <path id="ID0.3717494779266417" fill="none" stroke="#000000" stroke-width="0.5616" stroke-linecap="round" stroke-linejoin="round" d="M 105.267 14.391 C 104.961 12.911 104.300 11.509 103.392 10.306 C 102.671 9.359 101.793 8.539 100.827 7.829 C 100.304 7.444 99.761 7.099 99.198 6.783 C 97.886 6.033 96.475 5.451 95.034 4.997 C 93.426 4.484 91.778 4.128 90.110 3.862 C 88.196 3.566 86.252 3.398 84.307 3.339 C 81.515 3.260 78.712 3.398 75.929 3.674 C 72.801 3.980 69.693 4.473 66.614 5.125 C 63.180 5.845 59.795 6.773 56.460 7.848 C 50.539 9.753 44.766 12.121 39.230 14.983 C 35.135 17.105 31.168 19.493 27.389 22.137 C 25.405 23.538 23.461 25.009 21.606 26.578 C 19.129 28.689 16.800 30.969 14.708 33.466 C 12.873 35.637 11.225 37.976 9.971 40.531 C 9.271 41.972 8.688 43.501 8.363 45.080 C 8.126 46.245 8.018 47.438 8.067 48.632 C 8.116 49.540 8.245 50.438 8.511 51.306 C 8.649 51.770 8.837 52.224 9.044 52.658 C 9.359 53.289 9.734 53.882 10.159 54.424 C 10.870 55.332 11.689 56.112 12.498 56.734 C 13.081 57.188 13.702 57.602 14.343 57.977 C 16.129 59.013 18.093 59.704 20.106 60.207 C 22.751 60.878 25.474 61.224 28.198 61.361 C 30.793 61.480 33.398 61.421 35.994 61.214 " transform="matrix(0.7350918650627136, 0, 0, 0.7350918650627136, 9.25, 17.55)"/>
      <path id="ID0.5678496728651226" fill="none" stroke="#000000" stroke-width="0.5616" stroke-linecap="round" stroke-linejoin="round" d="M 85.008 19.216 C 84.811 18.733 84.475 18.308 84.080 17.953 C 83.557 17.479 82.935 17.134 82.284 16.858 C 81.919 16.700 81.534 16.572 81.139 16.463 C 80.665 16.325 80.171 16.206 79.678 16.127 C 78.593 15.930 77.488 15.841 76.392 15.802 C 73.442 15.723 70.491 16.029 67.580 16.532 C 64.758 17.035 61.975 17.726 59.231 18.545 C 53.883 20.144 48.672 22.235 43.719 24.831 C 40.531 26.499 37.453 28.374 34.571 30.525 C 33.051 31.670 31.591 32.894 30.249 34.246 C 29.036 35.459 27.920 36.782 27.082 38.272 C 26.747 38.864 26.451 39.476 26.263 40.127 C 26.095 40.719 26.026 41.340 26.095 41.942 C 26.144 42.357 26.253 42.761 26.460 43.116 C 26.746 43.639 27.200 44.063 27.703 44.409 C 28.187 44.744 28.720 45.001 29.262 45.218 C 29.894 45.455 30.555 45.633 31.216 45.771 C 32.272 45.988 33.328 46.106 34.394 46.156 C 35.756 46.225 37.117 46.185 38.479 46.087 C 43.314 45.742 48.071 44.666 52.709 43.235 C 56.607 42.031 60.416 40.570 64.116 38.843 C 67.146 37.432 70.096 35.843 72.928 34.047 C 75.593 32.370 78.149 30.505 80.428 28.334 C 81.356 27.446 82.243 26.508 83.024 25.492 C 83.665 24.663 84.248 23.775 84.662 22.808 C 84.948 22.167 85.155 21.486 85.215 20.775 C 85.254 20.252 85.206 19.709 85.008 19.216 Z " transform="matrix(0.7350918650627136, 0, 0, 0.7350918650627136, 9.25, 17.55)"/>
      <path id="ID0.48115502623841166" fill="none" stroke="#000000" stroke-width="0.5616" stroke-linecap="round" stroke-linejoin="round" d="M 106.688 97.805 C 103.382 99.659 101.675 100.548 99.909 101.397 C 98.133 102.236 96.317 103.035 94.877 103.657 C 93.436 104.279 92.370 104.713 91.077 105.236 C 89.795 105.758 88.295 106.381 86.932 106.943 C 85.571 107.515 84.367 108.028 82.965 108.621 C 81.573 109.223 80.004 109.893 78.465 110.436 C 76.916 110.979 75.406 111.383 73.709 111.660 C 72.012 111.927 70.116 112.064 65.814 112.657 " transform="matrix(0.7350918650627136, 0, 0, 0.7350918650627136, 9.25, 17.55)"/>
      <path id="ID0.9062241036444902" fill="none" stroke="#000000" stroke-width="0.5616" stroke-linecap="round" stroke-linejoin="round" d="M 106.698 97.795 L 106.688 97.795 " transform="matrix(0.7350918650627136, 0, 0, 0.7350918650627136, 9.25, 17.55)"/>
      <path id="ID0.46816692408174276" fill="none" stroke="#000000" stroke-width="0.5616" stroke-linecap="round" stroke-linejoin="round" d="M 11.077 58.580 C 11.452 58.856 11.817 59.122 12.202 59.379 C 15.281 61.412 18.883 62.477 22.534 63.089 C 27.202 63.859 31.949 63.888 36.645 63.493 C 36.705 63.483 36.773 63.473 36.833 63.473 " transform="matrix(0.7350918650627136, 0, 0, 0.7350918650627136, 9.25, 17.55)"/>
      <path id="ID0.9290199065580964" fill="none" stroke="#000000" stroke-width="0.5616" stroke-linecap="round" stroke-linejoin="round" d="M 44.904 62.378 C 49.039 61.608 53.134 60.563 57.140 59.299 C 62.271 57.681 67.274 55.717 72.120 53.418 C 76.620 51.277 80.981 48.849 85.136 46.116 " transform="matrix(0.7350918650627136, 0, 0, 0.7350918650627136, 9.25, 17.55)"/>
      <path id="ID0.8903099875897169" fill="none" stroke="#000000" stroke-width="0.5616" stroke-linecap="round" stroke-linejoin="round" d="M 91.699 41.360 C 93.909 39.584 96.021 37.689 97.995 35.656 C 99.692 33.909 101.281 32.064 102.702 30.090 C 104.587 27.485 106.176 24.643 107.073 21.564 " transform="matrix(0.7350918650627136, 0, 0, 0.7350918650627136, 9.25, 17.55)"/>
      <path id="ID0.9202375882305205" fill="none" stroke="#000000" stroke-width="0.5616" stroke-linecap="round" stroke-linejoin="round" d="M 87.169 18.357 C 86.754 17.340 86.014 16.482 85.136 15.821 C 84.139 15.071 82.975 14.578 81.781 14.232 C 80.360 13.817 78.890 13.620 77.410 13.531 C 75.683 13.423 73.956 13.462 72.239 13.600 C 70.097 13.767 67.956 14.083 65.854 14.498 C 61.404 15.376 57.042 16.669 52.799 18.258 C 48.556 19.847 44.421 21.732 40.464 23.962 C 38.747 24.919 37.069 25.955 35.441 27.051 C 34.642 27.603 33.852 28.176 33.072 28.758 C 30.349 30.811 27.773 33.110 25.829 35.903 C 25.089 36.968 24.437 38.104 24.082 39.347 C 23.924 39.880 23.816 40.432 23.767 40.995 C 23.727 41.548 23.737 42.110 23.836 42.653 C 24.073 43.897 24.803 45.011 25.760 45.841 C 26.520 46.502 27.418 46.986 28.365 47.351 C 29.303 47.716 30.280 47.973 31.276 48.141 C 32.875 48.427 34.503 48.516 36.131 48.506 C 37.069 48.496 38.006 48.457 38.944 48.387 C 39.882 48.308 40.809 48.209 41.747 48.081 C 43.405 47.864 45.043 47.568 46.681 47.222 C 48.309 46.867 49.937 46.462 51.546 46.009 C 54.398 45.199 57.200 44.242 59.963 43.157 C 62.716 42.072 65.420 40.858 68.065 39.496 C 70.078 38.470 72.052 37.345 73.966 36.141 C 74.726 35.658 75.476 35.174 76.226 34.661 C 77.026 34.109 77.815 33.546 78.595 32.944 C 80.026 31.849 81.387 30.674 82.670 29.391 C 83.973 28.078 85.187 26.667 86.113 25.069 C 86.745 23.984 87.248 22.819 87.446 21.586 C 87.623 20.509 87.574 19.374 87.169 18.357 Z " transform="matrix(0.7350918650627136, 0, 0, 0.7350918650627136, 9.25, 17.55)"/>
      <path id="ID0.8631549454294145" fill="none" stroke="#000000" stroke-width="0.5616" stroke-linecap="round" stroke-linejoin="round" d="M 121.954 55.905 L 95.793 51.218 " transform="matrix(0.7350918650627136, 0, 0, 0.7350918650627136, 9.25, 17.55)"/>
      <path id="ID0.851192245259881" fill="none" stroke="#000000" stroke-width="0.5616" stroke-linecap="round" stroke-linejoin="round" d="M 122.674 57.553 L 97.985 56.487 " transform="matrix(0.7350918650627136, 0, 0, 0.7350918650627136, 9.25, 17.55)"/>
      <path id="ID0.8641650043427944" fill="none" stroke="#000000" stroke-width="0.5616" stroke-linecap="round" stroke-linejoin="round" d="M 91.146 60.543 L 73.551 90.147 " transform="matrix(0.7350918650627136, 0, 0, 0.7350918650627136, 9.25, 17.55)"/>
      <path id="ID0.32097975350916386" fill="none" stroke="#000000" stroke-width="0.5616" stroke-linecap="round" stroke-linejoin="round" d="M 90.396 58.737 L 73.551 88.292 " transform="matrix(0.7350918650627136, 0, 0, 0.7350918650627136, 9.25, 17.55)"/>
      <path id="ID0.1363551802933216" fill="none" stroke="#000000" stroke-width="0.5616" stroke-linecap="round" stroke-linejoin="round" d="M 73.551 88.292 L 47.075 67.599 " transform="matrix(0.7350918650627136, 0, 0, 0.7350918650627136, 9.25, 17.55)"/>
      <path id="ID0.6297589200548828" fill="none" stroke="#000000" stroke-width="0.5616" stroke-linecap="round" stroke-linejoin="round" d="M 73.551 90.147 L 50.075 74.802 " transform="matrix(0.7350918650627136, 0, 0, 0.7350918650627136, 9.25, 17.55)"/>
      <path id="ID0.7224027165211737" fill="none" stroke="#000000" stroke-width="0.5616" stroke-linecap="round" stroke-linejoin="round" d="M 42.427 76.915 L 25.326 91.450 " transform="matrix(0.7350918650627136, 0, 0, 0.7350918650627136, 9.25, 17.55)"/>
      <path id="ID0.43786729173734784" fill="none" stroke="#000000" stroke-width="0.5616" stroke-linecap="round" stroke-linejoin="round" d="M 41.865 75.572 L 24.773 90.177 " transform="matrix(0.7350918650627136, 0, 0, 0.7350918650627136, 9.25, 17.55)"/>
      <path id="ID0.537540964782238" fill="none" stroke="#000000" stroke-width="0.5616" stroke-linecap="round" stroke-linejoin="round" d="M 125.684 64.500 L 101.123 64.027 " transform="matrix(0.7350918650627136, 0, 0, 0.7350918650627136, 9.25, 17.55)"/>
      <path id="ID0.03919347748160362" fill="none" stroke="#000000" stroke-width="0.5616" stroke-linecap="round" stroke-linejoin="round" d="M 126.276 65.872 L 101.921 65.941 " transform="matrix(0.7350918650627136, 0, 0, 0.7350918650627136, 9.25, 17.55)"/>
      <path id="ID0.7411693832837045" fill="none" stroke="#000000" stroke-width="0.5616" stroke-linecap="round" stroke-linejoin="round" d="M 94.363 68.280 L 78.653 95.723 " transform="matrix(0.7350918650627136, 0, 0, 0.7350918650627136, 9.25, 17.55)"/>
      <path id="ID0.8786588669754565" fill="none" stroke="#000000" stroke-width="0.5616" stroke-linecap="round" stroke-linejoin="round" d="M 74.015 98.042 L 54.525 85.509 " transform="matrix(0.7350918650627136, 0, 0, 0.7350918650627136, 9.25, 17.55)"/>
      <path id="ID0.24823905806988478" fill="none" stroke="#000000" stroke-width="0.5616" stroke-linecap="round" stroke-linejoin="round" d="M 75.871 101.752 L 55.749 88.440 " transform="matrix(0.7350918650627136, 0, 0, 0.7350918650627136, 9.25, 17.55)"/>
      <path id="ID0.26552240923047066" fill="none" stroke="#000000" stroke-width="0.5616" stroke-linecap="round" stroke-linejoin="round" d="M 78.653 95.723 C 77.725 97.114 77.261 97.577 76.571 97.923 C 75.871 98.269 74.943 98.505 74.015 98.041 " transform="matrix(0.7350918650627136, 0, 0, 0.7350918650627136, 9.25, 17.55)"/>
      <path id="ID0.0934383631683886" fill="none" stroke="#000000" stroke-width="0.5616" stroke-linecap="round" stroke-linejoin="round" d="M 45.348 83.940 L 28.208 98.091 " transform="matrix(0.7350918650627136, 0, 0, 0.7350918650627136, 9.25, 17.55)"/>
      <path id="ID0.7511484706774354" fill="none" stroke="#000000" stroke-width="0.5616" stroke-linecap="round" stroke-linejoin="round" d="M 46.493 86.704 L 29.323 100.667 " transform="matrix(0.7350918650627136, 0, 0, 0.7350918650627136, 9.25, 17.55)"/>
      <path id="ID0.043514106422662735" fill="none" stroke="#000000" stroke-width="0.5616" stroke-linecap="round" stroke-linejoin="round" d="M 95.360 70.667 L 80.182 101.012 " transform="matrix(0.7350918650627136, 0, 0, 0.7350918650627136, 9.25, 17.55)"/>
      <path id="ID0.8638146598823369" fill="none" stroke="#000000" stroke-width="0.5616" stroke-linecap="round" stroke-linejoin="round" d="M 79.708 101.496 C 78.426 102.217 77.152 102.177 75.870 101.753 " transform="matrix(0.7350918650627136, 0, 0, 0.7350918650627136, 9.25, 17.55)"/>
      <path id="ID0.5145775540731847" fill="none" stroke="#000000" stroke-width="0.5616" stroke-linecap="round" stroke-linejoin="round" d="M 80.182 101.012 C 80.074 101.229 79.926 101.387 79.708 101.505 " transform="matrix(0.7350918650627136, 0, 0, 0.7350918650627136, 9.25, 17.55)"/>
      <path id="ID0.62240478862077" fill="none" stroke="#000000" stroke-width="0.5616" stroke-linecap="round" stroke-linejoin="round" d="M 31.188 107.880 C 23.678 90.552 16.159 73.224 8.649 55.896 C 8.570 55.718 8.472 55.590 8.323 55.461 C 8.067 55.254 7.790 55.066 7.474 54.958 C 7.237 54.879 6.991 54.839 6.744 54.839 C 6.320 54.849 5.905 54.967 5.520 55.155 C 5.145 55.333 4.800 55.579 4.523 55.895 C 4.375 56.062 4.247 56.250 4.158 56.447 C 4.039 56.723 3.990 57.030 3.970 57.345 C 3.960 57.533 3.980 57.700 4.059 57.878 C 11.559 75.196 19.068 92.504 26.568 109.823 C 26.825 110.277 27.180 110.712 27.664 110.938 C 27.871 111.037 28.108 111.096 28.325 111.156 C 28.453 111.185 28.572 111.224 28.700 111.234 C 28.779 111.255 28.867 111.255 28.947 111.264 C 29.174 111.284 29.381 111.303 29.608 111.303 C 29.943 111.293 30.299 111.214 30.585 111.036 C 30.861 110.858 31.068 110.602 31.256 110.316 C 31.384 110.128 31.493 109.931 31.562 109.713 C 31.641 109.446 31.641 109.150 31.582 108.874 C 31.523 108.549 31.365 108.233 31.217 107.936 C 31.217 107.926 31.207 107.916 31.207 107.907 C 31.198 107.900 31.198 107.890 31.188 107.880 Z " transform="matrix(0.7350918650627136, 0, 0, 0.7350918650627136, 9.25, 17.55)"/>
      <path id="ID0.9022579239681363" fill="none" stroke="#000000" stroke-width="0.5616" stroke-linecap="round" stroke-linejoin="round" d="M 37.267 60.750 C 37.178 61.026 37.188 61.263 37.296 61.529 C 44.668 79.232 52.019 96.936 59.381 114.639 C 59.480 114.856 59.618 115.024 59.825 115.152 C 60.131 115.349 60.456 115.537 60.792 115.685 C 61.098 115.823 61.423 115.931 61.759 115.981 C 62.282 116.060 62.825 115.991 63.279 115.734 C 63.457 115.635 63.625 115.517 63.773 115.380 C 63.852 115.301 63.941 115.212 64.020 115.133 C 64.129 115.025 64.237 114.926 64.336 114.818 C 64.474 114.679 64.612 114.521 64.691 114.354 C 64.790 114.146 64.819 113.919 64.810 113.693 C 64.810 113.465 64.770 113.239 64.711 113.021 C 57.269 95.130 49.838 77.250 42.398 59.369 C 42.319 59.181 42.210 59.033 42.043 58.905 C 41.846 58.717 41.619 58.570 41.372 58.441 C 41.194 58.352 40.997 58.273 40.800 58.253 C 40.652 58.243 40.484 58.263 40.326 58.293 C 39.941 58.382 39.576 58.540 39.241 58.737 C 38.856 58.945 38.501 59.211 38.155 59.487 C 37.978 59.635 37.810 59.783 37.672 59.961 C 37.483 60.188 37.345 60.464 37.267 60.750 Z " transform="matrix(0.7350918650627136, 0, 0, 0.7350918650627136, 9.25, 17.55)"/>
      <path id="ID0.3033942896872759" fill="none" stroke="#000000" stroke-width="0.5616" stroke-linecap="round" stroke-linejoin="round" d="M 107.467 96.750 C 107.556 96.977 107.695 97.145 107.902 97.272 C 108.217 97.479 108.553 97.667 108.888 97.825 C 109.204 97.953 109.530 98.072 109.866 98.121 C 110.379 98.200 110.931 98.121 111.386 97.874 C 111.564 97.775 111.722 97.647 111.869 97.510 C 111.958 97.431 112.037 97.352 112.116 97.273 C 112.224 97.165 112.333 97.066 112.441 96.958 C 112.580 96.810 112.708 96.662 112.796 96.484 C 112.885 96.287 112.914 96.059 112.914 95.833 C 112.904 95.605 112.865 95.379 112.815 95.152 C 105.365 77.260 97.924 59.360 90.484 41.469 C 90.405 41.272 90.287 41.124 90.119 40.995 C 89.922 40.837 89.705 40.699 89.477 40.580 C 89.289 40.481 89.102 40.413 88.905 40.392 C 88.747 40.372 88.590 40.402 88.431 40.432 C 88.046 40.521 87.681 40.679 87.335 40.866 C 86.950 41.083 86.596 41.340 86.250 41.626 C 86.082 41.764 85.904 41.922 85.767 42.090 C 85.579 42.337 85.441 42.613 85.352 42.909 C 85.273 43.185 85.284 43.422 85.402 43.688 C 92.754 61.373 100.106 79.066 107.467 96.750 Z " transform="matrix(0.7350918650627136, 0, 0, 0.7350918650627136, 9.25, 17.55)"/>
      <path id="ID0.4471578821539879" fill="none" stroke="#000000" stroke-width="0.5616" stroke-linecap="round" stroke-linejoin="round" d="M 106.046 16.039 C 106.036 16.227 106.066 16.394 106.135 16.562 C 113.645 33.851 121.145 51.140 128.655 68.429 C 128.911 68.882 129.266 69.317 129.740 69.543 C 129.957 69.642 130.184 69.701 130.411 69.761 C 130.540 69.790 130.658 69.829 130.786 69.850 C 130.865 69.860 130.944 69.860 131.033 69.870 C 131.250 69.890 131.467 69.909 131.684 69.909 C 132.029 69.899 132.384 69.820 132.670 69.642 C 132.946 69.465 133.153 69.208 133.341 68.922 C 133.470 68.734 133.578 68.537 133.648 68.319 C 133.726 68.053 133.726 67.756 133.668 67.480 C 133.599 67.155 133.450 66.849 133.303 66.543 C 133.293 66.532 133.293 66.522 133.283 66.513 C 133.283 66.503 133.273 66.493 133.273 66.484 C 125.763 49.155 118.244 31.827 110.734 14.499 C 110.655 14.331 110.556 14.193 110.409 14.065 C 110.152 13.857 109.866 13.670 109.550 13.562 C 109.323 13.483 109.076 13.443 108.830 13.454 C 108.405 13.454 107.991 13.572 107.606 13.760 C 107.231 13.938 106.885 14.184 106.599 14.500 C 106.452 14.667 106.332 14.855 106.244 15.063 C 106.106 15.357 106.066 15.703 106.046 16.039 Z " transform="matrix(0.7350918650627136, 0, 0, 0.7350918650627136, 9.25, 17.55)"/>
      <path id="ID0.47233714489266276" fill="none" stroke="#000000" stroke-width="0.5616" stroke-linecap="round" stroke-linejoin="round" d="M 128.477 70.046 C 128.665 70.214 128.852 70.342 129.040 70.460 " transform="matrix(0.7350918650627136, 0, 0, 0.7350918650627136, 9.25, 17.55)"/>
      <path id="ID0.8758213664405048" fill="none" stroke="#000000" stroke-width="0.5616" stroke-linecap="round" stroke-linejoin="round" d="M 127.608 68.941 C 127.697 69.099 127.786 69.247 127.884 69.376 C 127.963 69.494 128.052 69.612 128.141 69.711 " transform="matrix(0.7350918650627136, 0, 0, 0.7350918650627136, 9.25, 17.55)"/>
      <path id="ID0.23658108478412032" fill="none" stroke="#000000" stroke-width="0.5616" stroke-linecap="round" stroke-linejoin="round" d="M 129.266 70.579 C 129.562 70.718 129.858 70.826 130.164 70.895 C 131.091 71.131 132.018 71.131 132.710 70.895 C 133.410 70.667 133.874 70.194 134.338 69.503 C 134.802 68.803 135.266 67.875 134.338 66.020 C 126.789 48.613 119.239 31.206 111.691 13.798 C 111.623 13.650 111.544 13.522 111.415 13.413 C 110.102 12.199 109.008 12.209 108.188 12.357 C 107.813 12.426 107.498 12.525 107.211 12.653 C 106.836 12.820 106.510 13.048 106.154 13.334 C 105.839 13.591 105.513 13.887 105.266 14.390 C 105.059 14.814 104.901 15.396 104.871 16.225 C 104.871 16.402 104.900 16.560 104.970 16.718 C 105.127 17.093 105.295 17.458 105.453 17.833 C 105.986 19.066 106.528 20.310 107.061 21.543 " transform="matrix(0.7350918650627136, 0, 0, 0.7350918650627136, 9.25, 17.55)"/>
      <path id="ID0.8480471288785338" fill="none" stroke="#000000" stroke-width="0.5616" stroke-linecap="round" stroke-linejoin="round" d="M 11.077 58.570 L 11.067 58.570 C 10.800 57.938 10.524 57.317 10.258 56.685 C 10.041 56.192 9.823 55.688 9.607 55.195 C 9.547 55.047 9.459 54.919 9.331 54.810 C 8.433 53.981 7.643 53.714 6.962 53.695 C 6.647 53.675 6.360 53.705 6.104 53.754 C 5.246 53.912 4.693 54.228 4.081 54.731 C 3.489 55.205 2.857 55.846 2.798 57.622 C 2.788 57.800 2.818 57.958 2.887 58.125 C 10.436 75.522 17.985 92.930 25.524 110.337 C 26.225 111.590 27.152 112.054 28.080 112.291 C 29.008 112.518 29.935 112.518 30.626 112.291 C 31.327 112.054 31.791 111.590 32.254 110.899 C 32.639 110.317 33.024 109.577 32.609 108.264 " transform="matrix(0.7350918650627136, 0, 0, 0.7350918650627136, 9.25, 17.55)"/>
      <path id="ID0.9705631295219064" fill="none" stroke="#000000" stroke-width="0.5616" stroke-linecap="round" stroke-linejoin="round" d="M 92.043 42.199 C 91.925 41.923 91.816 41.636 91.698 41.360 C 91.609 41.152 91.530 40.955 91.441 40.748 C 91.372 40.580 91.263 40.432 91.116 40.314 C 90.770 40.018 90.465 39.801 90.178 39.643 C 89.280 39.130 88.628 39.179 88.017 39.347 C 87.159 39.574 86.388 40.038 85.648 40.620 C 84.967 41.163 84.316 41.794 84.109 43.196 C 84.070 43.423 84.099 43.620 84.188 43.827 C 84.208 43.867 84.217 43.896 84.227 43.935 C 84.534 44.665 84.839 45.386 85.135 46.116 C 85.214 46.283 85.283 46.461 85.352 46.629 C 87.030 50.655 88.707 54.691 90.395 58.727 C 90.395 58.727 90.385 58.727 90.395 58.737 " transform="matrix(0.7350918650627136, 0, 0, 0.7350918650627136, 9.25, 17.55)"/>
      <path id="ID0.005516208708286285" fill="none" stroke="#000000" stroke-width="0.5616" stroke-linecap="round" stroke-linejoin="round" d="M 106.599 97.667 C 106.628 97.717 106.659 97.756 106.688 97.796 C 106.698 97.796 106.688 97.806 106.688 97.806 C 106.757 97.885 106.836 97.953 106.925 98.023 C 108.938 99.434 110.250 99.424 111.138 99.198 C 112.066 98.970 112.530 98.507 113.112 97.925 C 113.684 97.343 114.385 96.652 113.922 94.797 C 113.783 94.451 113.636 94.116 113.497 93.771 " transform="matrix(0.7350918650627136, 0, 0, 0.7350918650627136, 9.25, 17.55)"/>
      <path id="ID0.7812613933347166" fill="none" stroke="#000000" stroke-width="0.5616" stroke-linecap="round" stroke-linejoin="round" d="M 44.983 62.566 C 44.953 62.507 44.923 62.438 44.904 62.378 C 44.598 61.648 44.292 60.908 43.986 60.178 C 43.769 59.645 43.542 59.122 43.325 58.589 C 43.256 58.411 43.148 58.273 42.999 58.145 C 41.588 56.971 40.720 56.990 39.911 57.207 C 39.062 57.434 38.283 57.897 37.553 58.480 C 36.872 59.022 36.220 59.654 36.004 61.055 C 35.994 61.115 35.994 61.154 35.994 61.213 C 35.994 61.371 36.023 61.519 36.082 61.667 C 36.299 62.180 36.506 62.693 36.724 63.206 " transform="matrix(0.7350918650627136, 0, 0, 0.7350918650627136, 9.25, 17.55)"/>
      <path id="ID0.536539273802191" fill="none" stroke="#000000" stroke-width="0.5616" stroke-linecap="round" stroke-linejoin="round" d="M 57.496 113.160 C 57.811 113.900 58.118 114.640 58.423 115.381 C 58.512 115.588 58.640 115.745 58.828 115.884 C 60.831 117.295 62.143 117.285 63.032 117.068 C 63.960 116.832 64.424 116.368 65.006 115.786 C 65.589 115.214 66.279 114.513 65.815 112.658 C 65.805 112.628 65.786 112.589 65.776 112.559 C 62.430 104.516 59.095 96.474 55.740 88.441 " transform="matrix(0.7350918650627136, 0, 0, 0.7350918650627136, 9.25, 17.55)"/>
      <path id="ID0.3398466664366424" fill="none" stroke="#000000" stroke-width="0.5616" stroke-linecap="round" stroke-linejoin="round" d="M 107.063 21.545 C 107.063 21.555 107.073 21.555 107.073 21.565 C 112.037 33.012 117.001 44.459 121.954 55.906 C 122.201 56.459 122.437 57.001 122.675 57.554 C 123.672 59.873 124.678 62.182 125.685 64.501 C 125.882 64.955 126.080 65.419 126.277 65.872 C 126.721 66.898 127.166 67.915 127.609 68.941 C 127.698 69.099 127.787 69.247 127.885 69.376 C 127.964 69.494 128.053 69.612 128.142 69.711 C 128.250 69.840 128.359 69.948 128.478 70.047 C 128.656 70.215 128.843 70.343 129.041 70.461 C 129.119 70.501 129.188 70.540 129.268 70.579 " transform="matrix(0.7350918650627136, 0, 0, 0.7350918650627136, 9.25, 17.55)"/>
      <path id="ID0.1114627500064671" fill="none" stroke="#000000" stroke-width="0.5616" stroke-linecap="round" stroke-linejoin="round" d="M 85.353 46.629 C 87.031 50.665 88.708 54.701 90.396 58.737 C 90.643 59.339 90.889 59.941 91.146 60.543 C 92.211 63.118 93.288 65.704 94.363 68.279 C 94.689 69.078 95.024 69.868 95.360 70.667 C 99.080 79.617 102.800 88.568 106.530 97.519 C 106.551 97.568 106.580 97.618 106.599 97.666 C 106.628 97.716 106.659 97.755 106.698 97.795 " transform="matrix(0.7350918650627136, 0, 0, 0.7350918650627136, 9.25, 17.55)"/>
      <path id="ID0.017363400664180517" fill="none" stroke="#000000" stroke-width="0.5616" stroke-linecap="round" stroke-linejoin="round" d="M 113.497 93.769 L 101.921 65.941 L 101.123 64.027 L 97.985 56.487 L 95.793 51.218 L 92.043 42.199 " transform="matrix(0.7350918650627136, 0, 0, 0.7350918650627136, 9.25, 17.55)"/>
      <path id="ID0.972247201949358" fill="none" stroke="#000000" stroke-width="0.5616" stroke-linecap="round" stroke-linejoin="round" d="M 36.724 63.208 L 36.832 63.474 L 41.865 75.572 L 42.427 76.915 L 45.348 83.940 L 46.493 86.704 L 57.496 113.160 " transform="matrix(0.7350918650627136, 0, 0, 0.7350918650627136, 9.25, 17.55)"/>
      <path id="ID0.8364012776874006" fill="none" stroke="#000000" stroke-width="0.5616" stroke-linecap="round" stroke-linejoin="round" d="M 65.775 112.558 L 55.749 88.440 L 55.739 88.440 L 54.525 85.509 L 50.075 74.802 L 47.075 67.599 L 44.983 62.566 " transform="matrix(0.7350918650627136, 0, 0, 0.7350918650627136, 9.25, 17.55)"/>
      <path id="ID0.29238397534936666" fill="none" stroke="#000000" stroke-width="0.5616" stroke-linecap="round" stroke-linejoin="round" d="M 32.609 108.265 C 32.520 108.008 32.411 107.722 32.254 107.416 C 31.277 105.166 30.300 102.916 29.323 100.666 C 28.958 99.808 28.583 98.949 28.208 98.091 C 27.251 95.880 26.293 93.670 25.327 91.449 C 25.149 91.025 24.962 90.600 24.774 90.177 C 20.215 79.648 15.646 69.118 11.077 58.579 L 11.077 58.569 C 10.801 57.937 10.534 57.316 10.258 56.684 " transform="matrix(0.7350918650627136, 0, 0, 0.7350918650627136, 9.25, 17.55)"/>
      <path id="ID0.5507978308014572" fill="none" stroke="#000000" stroke-width="0.5616" stroke-linecap="round" stroke-linejoin="round" d="M 57.496 113.160 C 56.163 113.239 55.325 113.268 54.407 113.199 C 53.292 113.121 52.049 112.884 50.272 112.716 C 48.496 112.538 46.177 112.420 44.243 112.233 C 42.309 112.036 40.760 111.769 39.605 111.473 C 38.441 111.187 37.671 110.881 36.585 110.487 C 35.500 110.101 34.108 109.637 32.608 108.266 " transform="matrix(0.7350918650627136, 0, 0, 0.7350918650627136, 9.25, 17.55)"/>
      <path id="ID0.9057267513126135" fill="none" stroke="#000000" stroke-width="0.5616" stroke-linecap="round" stroke-linejoin="round" d="M 129.266 70.579 C 128.309 74.843 127.144 77.625 125.871 79.944 C 124.588 82.263 123.197 84.118 121.499 86.052 C 119.802 87.986 117.789 89.999 116.407 91.322 C 115.272 92.417 114.572 93.039 113.496 93.769 " transform="matrix(0.7350918650627136, 0, 0, 0.7350918650627136, 9.25, 17.55)"/>
    </g>
  </g>
  <path id="ID0.04639945551753044" fill="none" stroke="#000000" stroke-width="2" stroke-linecap="round" d="M 182 146.500 L 194.500 151.500 " transform="matrix(0.7857142686843872, 0, 0, 0.7857142686843872, -141.45, -87.35)"/>
  <path id="ID0.6606475464068353" fill="none" stroke="#000000" stroke-width="2" stroke-linecap="round" d="M 209.500 126.500 L 214.500 134.500 " transform="matrix(1, 0, 0, 1, -180, -119)"/>
  <path id="ID0.13412379333749413" fill="none" stroke="#000000" stroke-width="2" stroke-linecap="round" d="M 244.500 120.500 L 244.500 130 " transform="matrix(1, 0, 0, 1, -180, -119)"/>
</svg>