<?xml version="1.0" encoding="UTF-8" standalone="no"?>
<svg
   version="1.1"
   width="97.501839"
   height="85.807808"
   viewBox="-1 -1 97.501839 85.807808"
   id="svg85"
   sodipodi:docname="drum1-a.svg"
   xmlns:inkscape="http://www.inkscape.org/namespaces/inkscape"
   xmlns:sodipodi="http://sodipodi.sourceforge.net/DTD/sodipodi-0.dtd"
   xmlns="http://www.w3.org/2000/svg"
   xmlns:svg="http://www.w3.org/2000/svg">
  <defs
     id="defs89" />
  <sodipodi:namedview
     id="namedview87"
     pagecolor="#ffffff"
     bordercolor="#000000"
     borderopacity="0.25"
     inkscape:showpageshadow="2"
     inkscape:pageopacity="0.0"
     inkscape:pagecheckerboard="0"
     inkscape:deskcolor="#d1d1d1" />
  <!-- Exported by Scratch - http://scratch.mit.edu/ -->
  <g
     id="XMLID_2_"
     transform="matrix(0.94999999,0,0,0.94999999,-1.5191004,-1.814854)">
    <g
       id="ID0.6858252985402942">
      <path
         id="ID0.5460412274114788"
         fill="#f15c55"
         d="m 11.077,58.58 c 4.569,10.539 9.138,21.068 13.697,31.598 L 41.865,75.573 36.832,63.475 c -0.059,0 -0.128,0.01 -0.188,0.02 C 31.947,63.89 27.201,63.86 22.533,63.091 18.882,62.479 15.28,61.413 12.201,59.381 11.817,59.122 11.452,58.856 11.077,58.58 Z"
         transform="matrix(0.77378094,0,0,0.77378094,-1.4,0.3)" />
      <path
         id="ID0.9559019207954407"
         fill="#ffde0f"
         d="m 24.773,90.177 c 0.188,0.424 0.375,0.849 0.553,1.272 L 42.427,76.914 41.864,75.571 Z"
         transform="matrix(0.77378094,0,0,0.77378094,-1.4,0.3)" />
      <path
         id="ID0.5515039362944663"
         fill="#f05465"
         d="m 25.326,91.45 c 0.967,2.221 1.924,4.431 2.881,6.642 L 45.348,83.94 42.427,76.915 Z"
         transform="matrix(0.77378094,0,0,0.77378094,-1.4,0.3)" />
      <path
         id="ID0.6888519120402634"
         fill="#ffd67b"
         d="m 26.264,40.126 c -0.168,0.592 -0.237,1.213 -0.168,1.815 0.049,0.415 0.158,0.819 0.365,1.174 0.286,0.523 0.74,0.947 1.243,1.293 0.484,0.335 1.017,0.592 1.559,0.809 0.632,0.237 1.293,0.415 1.954,0.553 1.056,0.217 2.112,0.335 3.178,0.385 1.362,0.069 2.723,0.029 4.085,-0.069 4.835,-0.345 9.592,-1.421 14.23,-2.852 3.898,-1.204 7.707,-2.665 11.407,-4.392 3.03,-1.411 5.98,-3 8.812,-4.796 2.665,-1.677 5.221,-3.542 7.5,-5.713 0.928,-0.888 1.815,-1.826 2.596,-2.842 0.641,-0.829 1.224,-1.717 1.638,-2.684 0.286,-0.641 0.493,-1.322 0.553,-2.033 0.039,-0.523 -0.01,-1.065 -0.207,-1.559 -0.197,-0.483 -0.533,-0.908 -0.928,-1.263 -0.523,-0.474 -1.145,-0.819 -1.796,-1.095 -0.365,-0.158 -0.75,-0.286 -1.145,-0.395 -0.474,-0.138 -0.968,-0.257 -1.461,-0.336 -1.085,-0.197 -2.19,-0.286 -3.286,-0.325 -2.95,-0.079 -5.901,0.227 -8.812,0.73 -2.822,0.503 -5.605,1.194 -8.349,2.013 -5.348,1.599 -10.559,3.69 -15.512,6.286 -3.188,1.668 -6.266,3.543 -9.148,5.694 -1.52,1.145 -2.98,2.369 -4.322,3.721 -1.213,1.213 -2.329,2.536 -3.167,4.026 -0.336,0.592 -0.632,1.204 -0.819,1.855 z"
         transform="matrix(0.77378094,0,0,0.77378094,-1.4,0.3)" />
      <path
         id="ID0.48989149648696184"
         fill="#a41c3c"
         d="m 28.208,98.091 c 0.375,0.858 0.75,1.717 1.115,2.575 l 17.17,-13.963 -1.145,-2.764 z"
         transform="matrix(0.77378094,0,0,0.77378094,-1.4,0.3)" />
      <path
         id="ID0.4599971412681043"
         fill="#e74273"
         d="m 27.665,110.939 c 0.207,0.099 0.444,0.158 0.661,0.218 0.128,0.029 0.247,0.068 0.375,0.078 0.079,0.021 0.167,0.021 0.247,0.03 0.227,0.02 0.434,0.039 0.661,0.039 0.335,-0.01 0.691,-0.089 0.977,-0.267 0.276,-0.178 0.483,-0.434 0.671,-0.72 0.128,-0.188 0.237,-0.385 0.306,-0.603 0.079,-0.267 0.079,-0.563 0.02,-0.839 -0.059,-0.325 -0.217,-0.641 -0.365,-0.938 0,-0.01 -0.01,-0.02 -0.01,-0.029 -0.01,-0.01 -0.01,-0.02 -0.02,-0.029 C 23.678,90.552 16.159,73.224 8.649,55.896 8.57,55.718 8.472,55.59 8.323,55.461 8.067,55.254 7.79,55.066 7.474,54.958 7.237,54.879 6.991,54.839 6.744,54.839 6.32,54.849 5.905,54.967 5.52,55.155 5.145,55.333 4.8,55.579 4.523,55.895 4.375,56.062 4.247,56.25 4.158,56.447 4.039,56.723 3.99,57.03 3.97,57.345 c -0.01,0.188 0.01,0.355 0.089,0.533 7.5,17.318 15.009,34.626 22.509,51.945 0.258,0.455 0.613,0.889 1.097,1.116 z"
         transform="matrix(0.77378094,0,0,0.77378094,-1.4,0.3)" />
      <path
         id="ID0.041358950547873974"
         fill="#9b1b3c"
         d="m 8.323,55.461 c 0.148,0.128 0.247,0.257 0.326,0.435 7.51,17.329 15.029,34.657 22.539,51.985 0.01,0.01 0.01,0.02 0.02,0.029 0,0.01 0.01,0.02 0.01,0.029 0.148,0.297 0.306,0.612 0.365,0.938 0.059,0.276 0.059,0.572 -0.02,0.839 -0.069,0.218 -0.177,0.415 -0.306,0.603 -0.188,0.286 -0.395,0.542 -0.671,0.72 -0.286,0.178 -0.642,0.257 -0.977,0.267 -0.227,0 -0.434,-0.02 -0.661,-0.039 -0.079,-0.01 -0.168,-0.01 -0.247,-0.03 -0.128,-0.01 -0.247,-0.049 -0.375,-0.078 -0.217,-0.06 -0.454,-0.119 -0.661,-0.218 -0.484,-0.227 -0.839,-0.661 -1.096,-1.115 C 19.07,92.505 11.56,75.197 4.061,57.879 3.982,57.701 3.962,57.534 3.972,57.346 3.992,57.03 4.041,56.724 4.16,56.448 4.249,56.251 4.377,56.063 4.525,55.896 4.801,55.58 5.147,55.333 5.522,55.156 5.907,54.968 6.321,54.85 6.746,54.84 c 0.247,0 0.493,0.04 0.73,0.119 0.315,0.107 0.591,0.295 0.847,0.502 z m 22.302,56.831 c 0.701,-0.237 1.165,-0.701 1.628,-1.392 0.385,-0.582 0.77,-1.322 0.355,-2.635 -0.089,-0.257 -0.198,-0.543 -0.355,-0.849 -0.977,-2.25 -1.954,-4.5 -2.931,-6.75 -0.365,-0.858 -0.74,-1.717 -1.115,-2.575 C 27.25,95.88 26.292,93.67 25.326,91.449 25.148,91.025 24.961,90.6 24.773,90.177 20.214,79.648 15.645,69.118 11.076,58.579 v -0.01 h -0.01 C 10.799,57.937 10.523,57.316 10.257,56.684 10.04,56.191 9.822,55.687 9.606,55.194 9.546,55.046 9.458,54.918 9.33,54.809 8.432,53.98 7.642,53.713 6.961,53.694 6.646,53.674 6.359,53.704 6.103,53.753 5.245,53.911 4.692,54.227 4.08,54.73 c -0.592,0.474 -1.224,1.115 -1.283,2.891 -0.01,0.178 0.02,0.336 0.089,0.503 7.549,17.397 15.098,34.805 22.637,52.212 0.701,1.253 1.628,1.717 2.556,1.954 0.928,0.228 1.856,0.228 2.546,0.002 z"
         transform="matrix(0.77378094,0,0,0.77378094,-1.4,0.3)" />
      <path
         id="ID0.24118993617594242"
         fill="#e7638c"
         d="m 35.994,61.214 c -2.596,0.207 -5.201,0.267 -7.796,0.147 -2.724,-0.138 -5.447,-0.483 -8.092,-1.154 -2.013,-0.503 -3.977,-1.194 -5.763,-2.23 -0.641,-0.375 -1.263,-0.79 -1.845,-1.243 -0.809,-0.622 -1.628,-1.401 -2.339,-2.31 L 9.33,54.81 c 0.128,0.108 0.217,0.237 0.276,0.385 0.217,0.493 0.434,0.997 0.651,1.49 0.276,0.632 0.542,1.253 0.819,1.885 v 0.01 c 0.375,0.276 0.74,0.542 1.125,0.799 3.079,2.033 6.681,3.098 10.332,3.71 4.668,0.77 9.415,0.799 14.111,0.404 0.06,-0.01 0.128,-0.02 0.188,-0.02 L 36.724,63.206 C 36.507,62.693 36.3,62.18 36.082,61.667 36.023,61.52 35.994,61.373 35.994,61.214 Z"
         transform="matrix(0.77378094,0,0,0.77378094,-1.4,0.3)" />
      <path
         id="ID0.36314728343859315"
         fill="#e74273"
         d="m 60.792,115.686 c 0.306,0.138 0.631,0.246 0.967,0.296 0.523,0.079 1.066,0.01 1.52,-0.247 0.178,-0.099 0.346,-0.217 0.494,-0.354 0.079,-0.079 0.168,-0.168 0.247,-0.247 0.109,-0.108 0.217,-0.207 0.316,-0.315 0.138,-0.139 0.276,-0.297 0.355,-0.464 0.099,-0.208 0.128,-0.435 0.119,-0.661 0,-0.228 -0.04,-0.454 -0.099,-0.672 C 57.269,95.13 49.838,77.25 42.398,59.369 42.319,59.181 42.21,59.033 42.043,58.905 41.846,58.717 41.619,58.57 41.372,58.441 41.194,58.352 40.997,58.273 40.8,58.253 c -0.148,-0.01 -0.316,0.01 -0.474,0.04 -0.385,0.089 -0.75,0.247 -1.085,0.444 -0.385,0.208 -0.74,0.474 -1.086,0.75 -0.177,0.148 -0.345,0.296 -0.483,0.474 -0.188,0.227 -0.326,0.503 -0.404,0.789 -0.089,0.276 -0.079,0.513 0.029,0.779 7.372,17.703 14.723,35.407 22.085,53.11 0.099,0.217 0.237,0.385 0.444,0.513 0.305,0.198 0.63,0.386 0.966,0.534 z"
         transform="matrix(0.77378094,0,0,0.77378094,-1.4,0.3)" />
      <path
         id="ID0.026571299880743027"
         fill="#f15c55"
         d="m 54.407,113.199 c 0.917,0.069 1.756,0.04 3.089,-0.039 L 46.493,86.704 29.323,100.667 c 0.977,2.25 1.954,4.5 2.931,6.75 0.158,0.306 0.267,0.592 0.355,0.849 1.5,1.371 2.891,1.835 3.977,2.221 1.085,0.395 1.855,0.7 3.02,0.986 1.155,0.296 2.704,0.563 4.638,0.76 1.934,0.188 4.253,0.306 6.029,0.483 1.776,0.167 3.019,0.405 4.134,0.483 z"
         transform="matrix(0.77378094,0,0,0.77378094,-1.4,0.3)" />
      <path
         id="ID0.7023442313075066"
         fill="#9b1b3c"
         d="M 59.381,114.64 C 52.019,96.937 44.668,79.233 37.296,61.53 c -0.108,-0.267 -0.118,-0.503 -0.029,-0.779 0.079,-0.286 0.217,-0.563 0.404,-0.789 0.138,-0.178 0.306,-0.326 0.483,-0.474 0.346,-0.276 0.701,-0.542 1.086,-0.75 0.335,-0.197 0.7,-0.355 1.085,-0.444 0.158,-0.03 0.326,-0.049 0.474,-0.04 0.197,0.02 0.395,0.099 0.572,0.188 0.247,0.128 0.474,0.276 0.671,0.464 0.168,0.128 0.276,0.276 0.355,0.464 7.44,17.88 14.871,35.761 22.312,53.652 0.059,0.218 0.099,0.444 0.099,0.672 0.01,0.227 -0.02,0.453 -0.119,0.661 -0.079,0.167 -0.217,0.325 -0.355,0.464 -0.099,0.108 -0.207,0.207 -0.316,0.315 -0.079,0.079 -0.167,0.168 -0.247,0.247 -0.148,0.138 -0.316,0.256 -0.494,0.354 -0.454,0.257 -0.997,0.326 -1.52,0.247 -0.335,-0.05 -0.661,-0.158 -0.967,-0.296 -0.336,-0.148 -0.661,-0.336 -0.967,-0.533 -0.205,-0.128 -0.344,-0.296 -0.442,-0.513 z M 46.493,86.704 57.496,113.16 c 0.315,0.74 0.622,1.48 0.927,2.221 0.089,0.207 0.217,0.364 0.405,0.503 2.003,1.411 3.315,1.401 4.204,1.184 0.928,-0.236 1.392,-0.7 1.974,-1.282 0.583,-0.572 1.273,-1.273 0.809,-3.128 -0.01,-0.03 -0.029,-0.069 -0.039,-0.099 C 62.43,104.516 59.095,96.474 55.74,88.441 l -1.214,-2.931 -4.45,-10.707 -3,-7.203 -2.092,-5.033 c -0.03,-0.059 -0.06,-0.128 -0.079,-0.188 -0.306,-0.73 -0.612,-1.47 -0.918,-2.2 C 43.77,59.646 43.543,59.123 43.326,58.59 43.257,58.412 43.149,58.274 43,58.146 c -1.411,-1.174 -2.279,-1.155 -3.088,-0.938 -0.849,0.227 -1.628,0.69 -2.358,1.273 -0.681,0.542 -1.333,1.174 -1.549,2.575 -0.01,0.06 -0.01,0.099 -0.01,0.158 0,0.158 0.029,0.306 0.088,0.454 0.217,0.513 0.424,1.026 0.642,1.539 l 0.108,0.267 5.033,12.098 0.563,1.343 2.921,7.025 z"
         transform="matrix(0.77378094,0,0,0.77378094,-1.4,0.3)" />
      <path
         id="ID0.7846485273912549"
         fill="#ffde0f"
         d="M 73.551,90.147 91.146,60.543 C 90.889,59.94 90.643,59.339 90.396,58.737 L 73.551,88.292 47.075,67.599 l 3,7.203 z"
         transform="matrix(0.77378094,0,0,0.77378094,-1.4,0.3)" />
      <path
         id="ID0.05230782367289066"
         fill="#f05465"
         d="m 74.015,98.042 c 0.928,0.464 1.855,0.228 2.556,-0.118 0.69,-0.346 1.154,-0.81 2.082,-2.2 L 94.363,68.281 C 93.288,65.706 92.212,63.12 91.146,60.545 L 73.551,90.147 50.075,74.802 l 4.45,10.707 z"
         transform="matrix(0.77378094,0,0,0.77378094,-1.4,0.3)" />
      <path
         id="ID0.32235867576673627"
         fill="#e7638c"
         d="m 84.228,43.935 c -12.206,8.013 -25.883,13.529 -40.242,16.243 0.306,0.73 0.612,1.47 0.918,2.2 4.135,-0.77 8.23,-1.815 12.236,-3.079 5.131,-1.618 10.134,-3.582 14.98,-5.881 4.5,-2.141 8.861,-4.569 13.016,-7.302 -0.296,-0.73 -0.601,-1.45 -0.908,-2.181 z"
         transform="matrix(0.77378094,0,0,0.77378094,-1.4,0.3)" />
      <path
         id="ID0.6150966309942305"
         fill="#f37355"
         d="m 85.136,46.116 c -4.154,2.733 -8.516,5.161 -13.016,7.302 -4.846,2.299 -9.849,4.263 -14.98,5.881 -4.006,1.263 -8.102,2.309 -12.236,3.079 0.02,0.06 0.049,0.129 0.079,0.188 l 2.092,5.033 26.476,20.693 16.845,-29.555 C 88.708,54.701 87.031,50.665 85.353,46.629 85.285,46.461 85.215,46.284 85.136,46.116 Z"
         transform="matrix(0.77378094,0,0,0.77378094,-1.4,0.3)" />
      <path
         id="ID0.19296439876779914"
         fill="#94193b"
         d="m 78.594,32.942 c 1.431,-1.095 2.792,-2.27 4.075,-3.553 1.303,-1.313 2.517,-2.724 3.443,-4.322 0.632,-1.085 1.135,-2.25 1.333,-3.483 0.177,-1.075 0.128,-2.21 -0.276,-3.227 C 86.754,17.34 86.014,16.482 85.136,15.821 84.139,15.071 82.975,14.578 81.781,14.232 80.36,13.817 78.89,13.62 77.41,13.531 75.683,13.423 73.956,13.462 72.239,13.6 c -2.142,0.167 -4.283,0.483 -6.385,0.898 -4.45,0.878 -8.812,2.171 -13.055,3.76 -4.243,1.589 -8.378,3.474 -12.335,5.704 -1.717,0.957 -3.395,1.993 -5.023,3.089 -0.799,0.552 -1.589,1.125 -2.369,1.707 -2.723,2.053 -5.299,4.352 -7.243,7.145 -0.74,1.065 -1.392,2.201 -1.747,3.444 -0.158,0.533 -0.266,1.085 -0.315,1.648 -0.04,0.553 -0.03,1.115 0.069,1.658 0.237,1.244 0.967,2.358 1.924,3.188 0.76,0.661 1.658,1.145 2.605,1.51 0.938,0.365 1.915,0.622 2.911,0.79 1.599,0.286 3.227,0.375 4.855,0.365 0.938,-0.01 1.875,-0.049 2.813,-0.119 0.938,-0.079 1.865,-0.178 2.803,-0.306 1.658,-0.217 3.296,-0.513 4.934,-0.859 1.628,-0.355 3.256,-0.76 4.865,-1.213 2.852,-0.81 5.654,-1.767 8.417,-2.852 2.753,-1.085 5.457,-2.299 8.102,-3.661 2.013,-1.026 3.987,-2.151 5.901,-3.355 0.76,-0.483 1.51,-0.967 2.26,-1.48 0.799,-0.554 1.588,-1.117 2.368,-1.719 z m 6.069,-10.134 c -0.414,0.967 -0.997,1.855 -1.638,2.684 -0.78,1.017 -1.668,1.954 -2.596,2.842 -2.279,2.171 -4.835,4.036 -7.5,5.713 -2.832,1.796 -5.782,3.385 -8.812,4.796 -3.7,1.727 -7.509,3.188 -11.407,4.392 -4.638,1.431 -9.395,2.506 -14.23,2.852 -1.362,0.099 -2.723,0.138 -4.085,0.069 -1.066,-0.049 -2.122,-0.168 -3.178,-0.385 -0.661,-0.138 -1.322,-0.316 -1.954,-0.553 -0.542,-0.217 -1.075,-0.474 -1.559,-0.809 -0.503,-0.346 -0.957,-0.77 -1.243,-1.293 -0.207,-0.355 -0.316,-0.76 -0.365,-1.174 -0.069,-0.602 0,-1.224 0.168,-1.815 0.188,-0.651 0.483,-1.263 0.819,-1.855 0.839,-1.49 1.954,-2.813 3.167,-4.026 1.342,-1.352 2.803,-2.576 4.322,-3.721 2.882,-2.151 5.96,-4.026 9.148,-5.694 4.954,-2.595 10.164,-4.687 15.512,-6.286 2.744,-0.819 5.526,-1.51 8.349,-2.013 2.911,-0.503 5.862,-0.809 8.812,-0.73 1.096,0.039 2.201,0.128 3.286,0.325 0.493,0.079 0.987,0.198 1.461,0.336 0.395,0.108 0.779,0.237 1.145,0.395 0.651,0.276 1.272,0.622 1.796,1.095 0.395,0.355 0.73,0.78 0.928,1.263 0.197,0.494 0.246,1.036 0.207,1.559 -0.06,0.71 -0.267,1.392 -0.553,2.033 z"
         transform="matrix(0.77378094,0,0,0.77378094,-1.4,0.3)" />
      <path
         id="ID0.030562695115804672"
         fill="#e74273"
         d="m 108.888,97.825 c 0.316,0.128 0.642,0.247 0.978,0.296 0.513,0.079 1.065,0 1.52,-0.247 0.178,-0.099 0.336,-0.227 0.483,-0.364 0.089,-0.079 0.168,-0.158 0.247,-0.237 0.108,-0.108 0.217,-0.207 0.325,-0.315 0.139,-0.148 0.267,-0.296 0.355,-0.474 0.089,-0.197 0.118,-0.425 0.118,-0.651 -0.01,-0.228 -0.049,-0.454 -0.099,-0.681 C 105.365,77.26 97.924,59.36 90.484,41.469 90.405,41.272 90.287,41.124 90.119,40.995 89.922,40.837 89.705,40.699 89.477,40.58 c -0.188,-0.099 -0.375,-0.167 -0.572,-0.188 -0.158,-0.02 -0.315,0.01 -0.474,0.04 -0.385,0.089 -0.75,0.247 -1.096,0.434 -0.385,0.217 -0.739,0.474 -1.085,0.76 -0.168,0.138 -0.346,0.296 -0.483,0.464 -0.188,0.247 -0.326,0.523 -0.415,0.819 -0.079,0.276 -0.068,0.513 0.05,0.779 7.352,17.684 14.703,35.377 22.064,53.061 0.089,0.227 0.228,0.395 0.435,0.522 0.316,0.208 0.652,0.396 0.987,0.554 z"
         transform="matrix(0.77378094,0,0,0.77378094,-1.4,0.3)" />
      <path
         id="ID0.4182160599157214"
         fill="#fdf9d0"
         d="m 88.018,39.347 c 0.611,-0.168 1.263,-0.217 2.161,0.296 l 0.059,-0.099 c 3.05,-2.438 5.911,-5.111 8.447,-8.082 1.322,-1.559 2.556,-3.207 3.622,-4.963 1.608,-2.645 2.832,-5.536 3.147,-8.664 -0.158,-0.375 -0.326,-0.74 -0.483,-1.115 -0.069,-0.158 -0.099,-0.316 -0.099,-0.493 0.029,-0.829 0.188,-1.411 0.395,-1.835 -0.306,-1.48 -0.967,-2.882 -1.875,-4.085 C 102.671,9.36 101.793,8.54 100.827,7.83 100.304,7.445 99.761,7.1 99.198,6.784 97.886,6.034 96.475,5.452 95.034,4.998 93.426,4.485 91.778,4.129 90.11,3.863 88.196,3.567 86.252,3.399 84.307,3.34 81.515,3.261 78.712,3.399 75.929,3.675 72.801,3.981 69.693,4.474 66.614,5.126 63.18,5.846 59.795,6.774 56.46,7.849 c -5.921,1.905 -11.694,4.273 -17.23,7.135 -4.095,2.122 -8.062,4.51 -11.841,7.154 -1.984,1.401 -3.928,2.872 -5.783,4.441 -2.477,2.111 -4.806,4.391 -6.898,6.888 -1.835,2.171 -3.483,4.51 -4.737,7.065 -0.7,1.441 -1.283,2.97 -1.608,4.549 -0.237,1.165 -0.345,2.358 -0.296,3.552 0.049,0.908 0.178,1.806 0.444,2.674 0.138,0.464 0.326,0.918 0.533,1.352 0.315,0.631 0.69,1.224 1.115,1.766 0.711,0.908 1.53,1.688 2.339,2.31 0.583,0.454 1.204,0.868 1.845,1.243 1.786,1.036 3.75,1.727 5.763,2.23 2.645,0.671 5.368,1.017 8.092,1.154 2.595,0.119 5.2,0.06 7.796,-0.147 0,-0.06 0,-0.099 0.01,-0.158 0.217,-1.401 0.868,-2.033 1.549,-2.575 0.73,-0.583 1.51,-1.046 2.358,-1.273 0.809,-0.217 1.677,-0.237 3.088,0.938 0.148,0.128 0.257,0.266 0.326,0.444 0.217,0.533 0.444,1.056 0.661,1.589 14.358,-2.714 28.036,-8.23 40.242,-16.243 -0.01,-0.039 -0.02,-0.069 -0.039,-0.108 -0.089,-0.207 -0.118,-0.404 -0.079,-0.631 0.207,-1.401 0.858,-2.033 1.539,-2.576 0.74,-0.584 1.511,-1.048 2.369,-1.275 z m -64.182,3.305 c -0.099,-0.542 -0.108,-1.105 -0.069,-1.658 0.049,-0.563 0.158,-1.115 0.315,-1.648 0.355,-1.243 1.007,-2.378 1.747,-3.444 1.944,-2.793 4.52,-5.092 7.243,-7.145 0.78,-0.582 1.569,-1.155 2.369,-1.707 1.628,-1.096 3.306,-2.132 5.023,-3.089 3.957,-2.23 8.092,-4.115 12.335,-5.704 4.243,-1.589 8.605,-2.881 13.055,-3.76 2.102,-0.415 4.243,-0.73 6.385,-0.898 1.717,-0.138 3.444,-0.178 5.171,-0.069 1.48,0.089 2.95,0.286 4.371,0.701 1.194,0.346 2.358,0.839 3.355,1.589 0.878,0.661 1.618,1.52 2.033,2.536 0.404,1.016 0.453,2.151 0.276,3.227 -0.198,1.234 -0.701,2.398 -1.333,3.483 -0.927,1.599 -2.141,3.01 -3.443,4.322 -1.283,1.283 -2.645,2.458 -4.075,3.553 -0.78,0.602 -1.569,1.165 -2.369,1.717 -0.75,0.513 -1.5,0.997 -2.26,1.48 -1.914,1.204 -3.888,2.329 -5.901,3.355 -2.645,1.362 -5.348,2.576 -8.102,3.661 -2.763,1.085 -5.565,2.042 -8.417,2.852 -1.608,0.454 -3.237,0.858 -4.865,1.213 -1.638,0.346 -3.276,0.642 -4.934,0.859 -0.938,0.128 -1.865,0.227 -2.803,0.306 -0.938,0.069 -1.875,0.108 -2.813,0.119 -1.628,0.01 -3.256,-0.079 -4.855,-0.365 -0.997,-0.168 -1.974,-0.424 -2.911,-0.79 -0.947,-0.365 -1.845,-0.849 -2.605,-1.51 -0.956,-0.827 -1.686,-1.942 -1.923,-3.186 z"
         transform="matrix(0.77378094,0,0,0.77378094,-1.4,0.3)" />
      <path
         id="ID0.6898425784893334"
         fill="#f15c55"
         d="m 91.699,41.36 c 0.118,0.276 0.227,0.563 0.345,0.839 l 3.75,9.019 26.16,4.688 c -4.953,-11.447 -9.917,-22.894 -14.881,-34.341 -0.897,3.079 -2.486,5.921 -4.371,8.526 -1.421,1.974 -3.01,3.819 -4.707,5.566 -1.974,2.032 -4.086,3.926 -6.296,5.703 z"
         transform="matrix(0.77378094,0,0,0.77378094,-1.4,0.3)" />
      <path
         id="ID0.0985081223770976"
         fill="#a41c3c"
         d="m 94.363,68.28 -15.71,27.443 c -0.928,1.391 -1.392,1.854 -2.082,2.2 -0.7,0.346 -1.628,0.582 -2.556,0.118 l -19.49,-12.532 1.214,2.931 h 0.01 l 20.122,13.313 c 1.282,0.424 2.556,0.464 3.838,-0.257 v 0.01 c 0.218,-0.118 0.365,-0.276 0.474,-0.493 L 95.36,70.667 C 95.024,69.869 94.689,69.079 94.363,68.28 Z"
         transform="matrix(0.77378094,0,0,0.77378094,-1.4,0.3)" />
      <path
         id="ID0.0777340680360794"
         fill="#f05465"
         d="m 97.985,56.487 3.138,7.54 24.562,0.474 c -1.007,-2.319 -2.013,-4.628 -3.01,-6.947 z"
         transform="matrix(0.77378094,0,0,0.77378094,-1.4,0.3)" />
      <path
         id="ID0.9899623389355838"
         fill="#e7638c"
         d="m 102.702,30.09 c 1.885,-2.605 3.474,-5.447 4.371,-8.526 0,-0.01 -0.01,-0.01 -0.01,-0.02 -0.533,-1.234 -1.075,-2.477 -1.608,-3.71 -0.315,3.128 -1.539,6.02 -3.147,8.664 -1.066,1.756 -2.3,3.404 -3.622,4.963 -2.536,2.971 -5.397,5.645 -8.447,8.082 l -0.059,0.099 c 0.286,0.158 0.592,0.375 0.938,0.671 0.147,0.118 0.256,0.266 0.325,0.434 0.089,0.207 0.168,0.404 0.257,0.612 2.21,-1.776 4.322,-3.671 6.296,-5.704 1.696,-1.746 3.285,-3.591 4.706,-5.565 z"
         transform="matrix(0.77378094,0,0,0.77378094,-1.4,0.3)" />
      <path
         id="ID0.7032539392821491"
         fill="#e7638c"
         d="m 103.392,10.305 c 0.908,1.204 1.569,2.605 1.875,4.085 0.247,-0.503 0.572,-0.799 0.888,-1.056 0.355,-0.286 0.682,-0.513 1.057,-0.681 -0.099,-0.306 -0.218,-0.602 -0.336,-0.908 -0.543,-1.313 -1.332,-2.536 -2.27,-3.611 C 103.659,7.068 102.543,6.15 101.349,5.371 99.8,4.364 98.113,3.595 96.366,2.993 94.62,2.391 92.824,1.967 90.998,1.661 86.351,0.871 81.584,0.862 76.887,1.256 69.94,1.838 63.17,3.309 56.519,5.391 46.325,8.588 36.437,13.217 27.517,19.236 c -4.312,2.911 -8.397,6.147 -11.989,9.858 -1.688,1.737 -3.267,3.582 -4.688,5.565 -2.171,3 -3.987,6.296 -4.737,9.908 -0.592,2.802 -0.533,5.792 0.553,8.437 0.099,0.227 0.197,0.454 0.306,0.681 v 0.01 c 0.681,0.02 1.471,0.286 2.369,1.115 L 10.16,54.425 C 9.736,53.883 9.361,53.29 9.045,52.659 8.837,52.225 8.65,51.771 8.512,51.307 8.246,50.439 8.117,49.541 8.068,48.633 8.019,47.439 8.127,46.245 8.364,45.081 8.69,43.502 9.272,41.973 9.972,40.532 c 1.253,-2.556 2.901,-4.895 4.737,-7.065 2.092,-2.497 4.421,-4.776 6.898,-6.888 1.855,-1.569 3.799,-3.04 5.783,-4.441 3.779,-2.645 7.746,-5.033 11.841,-7.154 5.536,-2.862 11.309,-5.23 17.23,-7.135 3.335,-1.075 6.72,-2.003 10.154,-2.723 3.079,-0.651 6.188,-1.145 9.315,-1.451 2.783,-0.276 5.586,-0.415 8.378,-0.335 1.944,0.059 3.889,0.227 5.803,0.523 1.668,0.266 3.315,0.622 4.924,1.135 1.441,0.454 2.853,1.036 4.164,1.786 0.563,0.316 1.105,0.661 1.629,1.046 0.965,0.709 1.843,1.528 2.564,2.475 z"
         transform="matrix(0.77378094,0,0,0.77378094,-1.4,0.3)" />
      <path
         id="ID0.5146154942922294"
         fill="#f37355"
         d="M 106.53,97.519 C 102.801,88.569 99.08,79.618 95.36,70.667 l -15.178,30.345 c -0.108,0.217 -0.256,0.375 -0.474,0.493 v -0.01 c -1.282,0.721 -2.556,0.681 -3.838,0.257 L 55.749,88.44 65.775,112.558 c 0.01,0.029 0.029,0.068 0.039,0.099 4.302,-0.593 6.198,-0.73 7.895,-0.997 1.697,-0.276 3.207,-0.681 4.756,-1.224 1.539,-0.543 3.108,-1.214 4.5,-1.815 1.401,-0.593 2.605,-1.105 3.967,-1.678 1.362,-0.563 2.862,-1.185 4.145,-1.707 1.293,-0.523 2.358,-0.957 3.8,-1.579 1.44,-0.622 3.256,-1.421 5.032,-2.26 1.767,-0.849 3.474,-1.737 6.779,-3.592 0,0 0.01,-0.01 0,-0.01 -0.029,-0.04 -0.06,-0.079 -0.089,-0.129 -0.019,-0.048 -0.049,-0.098 -0.069,-0.147 z"
         transform="matrix(0.77378094,0,0,0.77378094,-1.4,0.3)" />
      <path
         id="ID0.6892175725661218"
         fill="#9b1b3c"
         d="M 107.467,96.75 C 100.106,79.066 92.754,61.373 85.403,43.689 c -0.118,-0.266 -0.129,-0.503 -0.05,-0.779 0.089,-0.296 0.228,-0.572 0.415,-0.819 0.138,-0.167 0.315,-0.326 0.483,-0.464 0.346,-0.286 0.7,-0.542 1.085,-0.76 0.346,-0.188 0.711,-0.345 1.096,-0.434 0.158,-0.03 0.315,-0.059 0.474,-0.04 0.197,0.02 0.385,0.089 0.572,0.188 0.228,0.119 0.444,0.257 0.642,0.415 0.168,0.128 0.286,0.276 0.365,0.474 7.44,17.891 14.881,35.791 22.331,53.683 0.05,0.227 0.089,0.453 0.099,0.681 0,0.227 -0.029,0.454 -0.118,0.651 -0.089,0.178 -0.217,0.325 -0.355,0.474 -0.108,0.108 -0.217,0.207 -0.325,0.315 -0.079,0.079 -0.158,0.158 -0.247,0.237 -0.147,0.138 -0.306,0.266 -0.483,0.364 -0.454,0.247 -1.007,0.326 -1.52,0.247 -0.336,-0.049 -0.661,-0.168 -0.978,-0.296 -0.335,-0.158 -0.671,-0.346 -0.986,-0.553 -0.208,-0.129 -0.347,-0.297 -0.436,-0.523 z M 95.36,70.667 c 3.72,8.95 7.44,17.901 11.17,26.852 0.021,0.049 0.05,0.099 0.069,0.147 0.029,0.05 0.06,0.089 0.099,0.129 h -0.01 c 0.01,0 0,0.01 0,0.01 0.069,0.079 0.148,0.147 0.237,0.217 2.013,1.411 3.325,1.401 4.213,1.175 0.928,-0.228 1.392,-0.691 1.974,-1.273 0.572,-0.582 1.273,-1.273 0.81,-3.128 -0.139,-0.346 -0.286,-0.681 -0.425,-1.026 l -11.575,-27.828 -0.799,-1.914 -3.138,-7.54 -2.191,-5.27 -3.75,-9.019 C 91.926,41.923 91.817,41.636 91.699,41.36 91.61,41.152 91.531,40.955 91.442,40.748 91.373,40.58 91.264,40.432 91.117,40.314 c -0.346,-0.296 -0.651,-0.513 -0.938,-0.671 -0.898,-0.513 -1.55,-0.464 -2.161,-0.296 -0.858,0.227 -1.629,0.691 -2.369,1.273 -0.681,0.543 -1.332,1.174 -1.539,2.576 -0.039,0.227 -0.01,0.424 0.079,0.631 0.02,0.04 0.029,0.069 0.039,0.108 0.307,0.73 0.612,1.451 0.908,2.181 0.079,0.167 0.148,0.345 0.217,0.513 1.678,4.026 3.355,8.062 5.043,12.098 0,0 -0.01,0 0,0.01 0.247,0.602 0.493,1.204 0.75,1.806 1.065,2.575 2.142,5.161 3.217,7.736 0.326,0.8 0.661,1.59 0.997,2.388 z"
         transform="matrix(0.77378094,0,0,0.77378094,-1.4,0.3)" />
      <path
         id="ID0.9768770323134959"
         fill="#ffde0f"
         d="m 121.954,55.905 -26.16,-4.688 2.191,5.27 24.689,1.066 c -0.237,-0.553 -0.473,-1.095 -0.72,-1.648 z"
         transform="matrix(0.77378094,0,0,0.77378094,-1.4,0.3)" />
      <path
         id="ID0.35497543355450034"
         fill="#a41c3c"
         d="m 125.684,64.5 -24.562,-0.474 0.799,1.914 24.354,-0.069 c -0.196,-0.453 -0.394,-0.916 -0.591,-1.371 z"
         transform="matrix(0.77378094,0,0,0.77378094,-1.4,0.3)" />
      <path
         id="ID0.26121807005256414"
         fill="#f15c55"
         d="m 128.477,70.046 c -0.119,-0.099 -0.228,-0.207 -0.336,-0.336 -0.089,-0.099 -0.178,-0.217 -0.257,-0.335 -0.099,-0.129 -0.188,-0.276 -0.276,-0.435 -0.443,-1.026 -0.888,-2.043 -1.332,-3.069 l -24.354,0.069 11.575,27.828 c 1.076,-0.73 1.776,-1.353 2.911,-2.447 1.382,-1.322 3.395,-3.336 5.092,-5.27 1.698,-1.935 3.089,-3.789 4.372,-6.108 1.272,-2.319 2.438,-5.102 3.395,-9.365 -0.079,-0.039 -0.148,-0.078 -0.227,-0.118 -0.198,-0.118 -0.385,-0.246 -0.563,-0.414 z"
         transform="matrix(0.77378094,0,0,0.77378094,-1.4,0.3)" />
      <path
         id="ID0.9164422564208508"
         fill="#e74273"
         d="m 129.74,69.542 c 0.217,0.099 0.444,0.158 0.671,0.218 0.129,0.029 0.247,0.068 0.375,0.089 0.079,0.01 0.158,0.01 0.247,0.02 0.217,0.02 0.434,0.039 0.651,0.039 0.345,-0.01 0.7,-0.089 0.986,-0.267 0.276,-0.177 0.483,-0.434 0.671,-0.72 0.129,-0.188 0.237,-0.385 0.307,-0.603 0.078,-0.266 0.078,-0.563 0.02,-0.839 -0.069,-0.325 -0.218,-0.631 -0.365,-0.937 -0.01,-0.011 -0.01,-0.021 -0.02,-0.03 0,-0.01 -0.01,-0.02 -0.01,-0.029 -7.51,-17.329 -15.029,-34.657 -22.539,-51.985 -0.079,-0.168 -0.178,-0.306 -0.325,-0.434 -0.257,-0.208 -0.543,-0.395 -0.859,-0.503 -0.227,-0.079 -0.474,-0.119 -0.72,-0.108 -0.425,0 -0.839,0.118 -1.224,0.306 -0.375,0.178 -0.721,0.424 -1.007,0.74 -0.147,0.167 -0.267,0.355 -0.355,0.563 -0.138,0.296 -0.178,0.641 -0.197,0.977 -0.01,0.188 0.02,0.355 0.089,0.523 7.51,17.289 15.01,34.578 22.52,51.867 0.255,0.452 0.61,0.887 1.084,1.113 z"
         transform="matrix(0.77378094,0,0,0.77378094,-1.4,0.3)" />
      <path
         id="ID0.9716323465108871"
         fill="#9b1b3c"
         d="m 128.141,69.71 c 0.108,0.129 0.217,0.237 0.336,0.336 0.188,0.168 0.375,0.296 0.563,0.414 0.078,0.04 0.147,0.079 0.227,0.118 0.296,0.139 0.592,0.247 0.898,0.316 0.927,0.236 1.854,0.236 2.546,0 0.7,-0.228 1.164,-0.701 1.628,-1.392 0.464,-0.7 0.928,-1.628 0,-3.483 -7.549,-17.407 -15.099,-34.814 -22.647,-52.222 -0.068,-0.148 -0.147,-0.276 -0.276,-0.385 -1.313,-1.214 -2.407,-1.204 -3.227,-1.056 -0.375,0.069 -0.69,0.168 -0.977,0.296 -0.375,0.167 -0.701,0.395 -1.057,0.681 -0.315,0.257 -0.641,0.553 -0.888,1.056 -0.207,0.424 -0.365,1.006 -0.395,1.835 0,0.177 0.029,0.335 0.099,0.493 0.157,0.375 0.325,0.74 0.483,1.115 0.533,1.233 1.075,2.477 1.608,3.71 0,0.01 0.01,0.01 0.01,0.02 4.964,11.447 9.928,22.894 14.881,34.341 0.247,0.553 0.483,1.095 0.721,1.648 0.997,2.319 2.003,4.628 3.01,6.947 0.197,0.454 0.395,0.918 0.592,1.371 0.444,1.026 0.889,2.043 1.332,3.069 0.089,0.158 0.178,0.306 0.276,0.435 0.079,0.121 0.168,0.239 0.257,0.337 z m 0.514,-1.282 c -7.51,-17.289 -15.01,-34.578 -22.52,-51.867 -0.069,-0.168 -0.099,-0.335 -0.089,-0.523 0.02,-0.336 0.06,-0.681 0.197,-0.977 0.089,-0.208 0.208,-0.395 0.355,-0.563 0.286,-0.316 0.632,-0.563 1.007,-0.74 0.385,-0.188 0.799,-0.306 1.224,-0.306 0.246,-0.01 0.493,0.029 0.72,0.108 0.316,0.108 0.603,0.296 0.859,0.503 0.147,0.128 0.246,0.266 0.325,0.434 7.51,17.328 15.029,34.656 22.539,51.985 0,0.01 0.01,0.02 0.01,0.029 0.01,0.01 0.01,0.02 0.02,0.03 0.147,0.306 0.296,0.611 0.365,0.937 0.059,0.276 0.059,0.573 -0.02,0.839 -0.069,0.218 -0.178,0.415 -0.307,0.603 -0.188,0.286 -0.395,0.543 -0.671,0.72 -0.286,0.178 -0.642,0.257 -0.986,0.267 -0.218,0 -0.435,-0.02 -0.651,-0.039 -0.089,-0.01 -0.168,-0.01 -0.247,-0.02 -0.128,-0.021 -0.246,-0.06 -0.375,-0.089 -0.227,-0.06 -0.454,-0.119 -0.671,-0.218 -0.473,-0.225 -0.828,-0.66 -1.084,-1.113 z"
         transform="matrix(0.77378094,0,0,0.77378094,-1.4,0.3)" />
    </g>
    <g
       id="ID0.9870595317333937">
      <path
         id="ID0.40189001336693764"
         fill="none"
         stroke="#000000"
         stroke-width="0.5616"
         stroke-linecap="round"
         stroke-linejoin="round"
         d="m 107.211,12.654 c -0.099,-0.306 -0.218,-0.602 -0.336,-0.908 -0.543,-1.313 -1.332,-2.536 -2.27,-3.611 C 103.658,7.069 102.542,6.151 101.348,5.372 99.799,4.365 98.112,3.596 96.365,2.994 94.619,2.392 92.823,1.968 90.997,1.662 86.35,0.872 81.583,0.863 76.886,1.257 69.94,1.838 63.17,3.309 56.519,5.391 46.325,8.588 36.437,13.217 27.517,19.236 c -4.312,2.911 -8.397,6.147 -11.989,9.858 -1.688,1.737 -3.267,3.582 -4.688,5.565 -2.171,3 -3.987,6.296 -4.737,9.908 -0.592,2.802 -0.533,5.792 0.553,8.437 0.099,0.227 0.197,0.454 0.306,0.681"
         transform="matrix(0.77378094,0,0,0.77378094,-1.4,0.3)" />
      <path
         id="ID0.10038703819736838"
         fill="none"
         stroke="#000000"
         stroke-width="0.5616"
         stroke-linecap="round"
         stroke-linejoin="round"
         d="m 90.238,39.544 c 3.05,-2.438 5.911,-5.111 8.447,-8.082 1.322,-1.559 2.556,-3.207 3.622,-4.963 1.608,-2.645 2.832,-5.536 3.147,-8.664"
         transform="matrix(0.77378094,0,0,0.77378094,-1.4,0.3)" />
      <path
         id="ID0.4056662395596504"
         fill="none"
         stroke="#000000"
         stroke-width="0.5616"
         stroke-linecap="round"
         stroke-linejoin="round"
         d="M 43.986,60.178 C 58.344,57.464 72.022,51.948 84.228,43.935"
         transform="matrix(0.77378094,0,0,0.77378094,-1.4,0.3)" />
      <path
         id="ID0.3717494779266417"
         fill="none"
         stroke="#000000"
         stroke-width="0.5616"
         stroke-linecap="round"
         stroke-linejoin="round"
         d="M 105.267,14.391 C 104.961,12.911 104.3,11.509 103.392,10.306 102.671,9.359 101.793,8.539 100.827,7.829 100.304,7.444 99.761,7.099 99.198,6.783 97.886,6.033 96.475,5.451 95.034,4.997 93.426,4.484 91.778,4.128 90.11,3.862 88.196,3.566 86.252,3.398 84.307,3.339 81.515,3.26 78.712,3.398 75.929,3.674 72.801,3.98 69.693,4.473 66.614,5.125 63.18,5.845 59.795,6.773 56.46,7.848 c -5.921,1.905 -11.694,4.273 -17.23,7.135 -4.095,2.122 -8.062,4.51 -11.841,7.154 -1.984,1.401 -3.928,2.872 -5.783,4.441 -2.477,2.111 -4.806,4.391 -6.898,6.888 -1.835,2.171 -3.483,4.51 -4.737,7.065 -0.7,1.441 -1.283,2.97 -1.608,4.549 -0.237,1.165 -0.345,2.358 -0.296,3.552 0.049,0.908 0.178,1.806 0.444,2.674 0.138,0.464 0.326,0.918 0.533,1.352 0.315,0.631 0.69,1.224 1.115,1.766 0.711,0.908 1.53,1.688 2.339,2.31 0.583,0.454 1.204,0.868 1.845,1.243 1.786,1.036 3.75,1.727 5.763,2.23 2.645,0.671 5.368,1.017 8.092,1.154 2.595,0.119 5.2,0.06 7.796,-0.147"
         transform="matrix(0.77378094,0,0,0.77378094,-1.4,0.3)" />
      <path
         id="ID0.5678496728651226"
         fill="none"
         stroke="#000000"
         stroke-width="0.5616"
         stroke-linecap="round"
         stroke-linejoin="round"
         d="m 85.008,19.216 c -0.197,-0.483 -0.533,-0.908 -0.928,-1.263 -0.523,-0.474 -1.145,-0.819 -1.796,-1.095 -0.365,-0.158 -0.75,-0.286 -1.145,-0.395 -0.474,-0.138 -0.968,-0.257 -1.461,-0.336 -1.085,-0.197 -2.19,-0.286 -3.286,-0.325 -2.95,-0.079 -5.901,0.227 -8.812,0.73 -2.822,0.503 -5.605,1.194 -8.349,2.013 -5.348,1.599 -10.559,3.69 -15.512,6.286 -3.188,1.668 -6.266,3.543 -9.148,5.694 -1.52,1.145 -2.98,2.369 -4.322,3.721 -1.213,1.213 -2.329,2.536 -3.167,4.026 -0.335,0.592 -0.631,1.204 -0.819,1.855 -0.168,0.592 -0.237,1.213 -0.168,1.815 0.049,0.415 0.158,0.819 0.365,1.174 0.286,0.523 0.74,0.947 1.243,1.293 0.484,0.335 1.017,0.592 1.559,0.809 0.632,0.237 1.293,0.415 1.954,0.553 1.056,0.217 2.112,0.335 3.178,0.385 1.362,0.069 2.723,0.029 4.085,-0.069 4.835,-0.345 9.592,-1.421 14.23,-2.852 3.898,-1.204 7.707,-2.665 11.407,-4.392 3.03,-1.411 5.98,-3 8.812,-4.796 2.665,-1.677 5.221,-3.542 7.5,-5.713 0.928,-0.888 1.815,-1.826 2.596,-2.842 0.641,-0.829 1.224,-1.717 1.638,-2.684 0.286,-0.641 0.493,-1.322 0.553,-2.033 0.039,-0.523 -0.009,-1.066 -0.207,-1.559 z"
         transform="matrix(0.77378094,0,0,0.77378094,-1.4,0.3)" />
      <path
         id="ID0.48115502623841166"
         fill="none"
         stroke="#000000"
         stroke-width="0.5616"
         stroke-linecap="round"
         stroke-linejoin="round"
         d="m 106.688,97.805 c -3.306,1.854 -5.013,2.743 -6.779,3.592 -1.776,0.839 -3.592,1.638 -5.032,2.26 -1.441,0.622 -2.507,1.056 -3.8,1.579 -1.282,0.522 -2.782,1.145 -4.145,1.707 -1.361,0.572 -2.565,1.085 -3.967,1.678 -1.392,0.602 -2.961,1.272 -4.5,1.815 -1.549,0.543 -3.059,0.947 -4.756,1.224 -1.697,0.267 -3.593,0.404 -7.895,0.997"
         transform="matrix(0.77378094,0,0,0.77378094,-1.4,0.3)" />
      <path
         id="ID0.9062241036444902"
         fill="none"
         stroke="#000000"
         stroke-width="0.5616"
         stroke-linecap="round"
         stroke-linejoin="round"
         d="m 106.698,97.795 h -0.01"
         transform="matrix(0.77378094,0,0,0.77378094,-1.4,0.3)" />
      <path
         id="ID0.46816692408174276"
         fill="none"
         stroke="#000000"
         stroke-width="0.5616"
         stroke-linecap="round"
         stroke-linejoin="round"
         d="m 11.077,58.58 c 0.375,0.276 0.74,0.542 1.125,0.799 3.079,2.033 6.681,3.098 10.332,3.71 4.668,0.77 9.415,0.799 14.111,0.404 0.06,-0.01 0.128,-0.02 0.188,-0.02"
         transform="matrix(0.77378094,0,0,0.77378094,-1.4,0.3)" />
      <path
         id="ID0.9290199065580964"
         fill="none"
         stroke="#000000"
         stroke-width="0.5616"
         stroke-linecap="round"
         stroke-linejoin="round"
         d="m 44.904,62.378 c 4.135,-0.77 8.23,-1.815 12.236,-3.079 5.131,-1.618 10.134,-3.582 14.98,-5.881 4.5,-2.141 8.861,-4.569 13.016,-7.302"
         transform="matrix(0.77378094,0,0,0.77378094,-1.4,0.3)" />
      <path
         id="ID0.8903099875897169"
         fill="none"
         stroke="#000000"
         stroke-width="0.5616"
         stroke-linecap="round"
         stroke-linejoin="round"
         d="m 91.699,41.36 c 2.21,-1.776 4.322,-3.671 6.296,-5.704 1.697,-1.747 3.286,-3.592 4.707,-5.566 1.885,-2.605 3.474,-5.447 4.371,-8.526"
         transform="matrix(0.77378094,0,0,0.77378094,-1.4,0.3)" />
      <path
         id="ID0.9202375882305205"
         fill="none"
         stroke="#000000"
         stroke-width="0.5616"
         stroke-linecap="round"
         stroke-linejoin="round"
         d="M 87.169,18.357 C 86.754,17.34 86.014,16.482 85.136,15.821 84.139,15.071 82.975,14.578 81.781,14.232 80.36,13.817 78.89,13.62 77.41,13.531 75.683,13.423 73.956,13.462 72.239,13.6 c -2.142,0.167 -4.283,0.483 -6.385,0.898 -4.45,0.878 -8.812,2.171 -13.055,3.76 -4.243,1.589 -8.378,3.474 -12.335,5.704 -1.717,0.957 -3.395,1.993 -5.023,3.089 -0.799,0.552 -1.589,1.125 -2.369,1.707 -2.723,2.053 -5.299,4.352 -7.243,7.145 -0.74,1.065 -1.392,2.201 -1.747,3.444 -0.158,0.533 -0.266,1.085 -0.315,1.648 -0.04,0.553 -0.03,1.115 0.069,1.658 0.237,1.244 0.967,2.358 1.924,3.188 0.76,0.661 1.658,1.145 2.605,1.51 0.938,0.365 1.915,0.622 2.911,0.79 1.599,0.286 3.227,0.375 4.855,0.365 0.938,-0.01 1.875,-0.049 2.813,-0.119 0.938,-0.079 1.865,-0.178 2.803,-0.306 1.658,-0.217 3.296,-0.513 4.934,-0.859 1.628,-0.355 3.256,-0.76 4.865,-1.213 2.852,-0.81 5.654,-1.767 8.417,-2.852 2.753,-1.085 5.457,-2.299 8.102,-3.661 2.013,-1.026 3.987,-2.151 5.901,-3.355 0.76,-0.483 1.51,-0.967 2.26,-1.48 0.8,-0.552 1.589,-1.115 2.369,-1.717 1.431,-1.095 2.792,-2.27 4.075,-3.553 1.303,-1.313 2.517,-2.724 3.443,-4.322 0.632,-1.085 1.135,-2.25 1.333,-3.483 0.177,-1.077 0.128,-2.212 -0.277,-3.229 z"
         transform="matrix(0.77378094,0,0,0.77378094,-1.4,0.3)" />
      <path
         id="ID0.8631549454294145"
         fill="none"
         stroke="#000000"
         stroke-width="0.5616"
         stroke-linecap="round"
         stroke-linejoin="round"
         d="M 121.954,55.905 95.793,51.218"
         transform="matrix(0.77378094,0,0,0.77378094,-1.4,0.3)" />
      <path
         id="ID0.851192245259881"
         fill="none"
         stroke="#000000"
         stroke-width="0.5616"
         stroke-linecap="round"
         stroke-linejoin="round"
         d="M 122.674,57.553 97.985,56.487"
         transform="matrix(0.77378094,0,0,0.77378094,-1.4,0.3)" />
      <path
         id="ID0.8641650043427944"
         fill="none"
         stroke="#000000"
         stroke-width="0.5616"
         stroke-linecap="round"
         stroke-linejoin="round"
         d="M 91.146,60.543 73.551,90.147"
         transform="matrix(0.77378094,0,0,0.77378094,-1.4,0.3)" />
      <path
         id="ID0.32097975350916386"
         fill="none"
         stroke="#000000"
         stroke-width="0.5616"
         stroke-linecap="round"
         stroke-linejoin="round"
         d="M 90.396,58.737 73.551,88.292"
         transform="matrix(0.77378094,0,0,0.77378094,-1.4,0.3)" />
      <path
         id="ID0.1363551802933216"
         fill="none"
         stroke="#000000"
         stroke-width="0.5616"
         stroke-linecap="round"
         stroke-linejoin="round"
         d="M 73.551,88.292 47.075,67.599"
         transform="matrix(0.77378094,0,0,0.77378094,-1.4,0.3)" />
      <path
         id="ID0.6297589200548828"
         fill="none"
         stroke="#000000"
         stroke-width="0.5616"
         stroke-linecap="round"
         stroke-linejoin="round"
         d="M 73.551,90.147 50.075,74.802"
         transform="matrix(0.77378094,0,0,0.77378094,-1.4,0.3)" />
      <path
         id="ID0.7224027165211737"
         fill="none"
         stroke="#000000"
         stroke-width="0.5616"
         stroke-linecap="round"
         stroke-linejoin="round"
         d="M 42.427,76.915 25.326,91.45"
         transform="matrix(0.77378094,0,0,0.77378094,-1.4,0.3)" />
      <path
         id="ID0.43786729173734784"
         fill="none"
         stroke="#000000"
         stroke-width="0.5616"
         stroke-linecap="round"
         stroke-linejoin="round"
         d="M 41.865,75.572 24.773,90.177"
         transform="matrix(0.77378094,0,0,0.77378094,-1.4,0.3)" />
      <path
         id="ID0.537540964782238"
         fill="none"
         stroke="#000000"
         stroke-width="0.5616"
         stroke-linecap="round"
         stroke-linejoin="round"
         d="M 125.684,64.5 101.123,64.027"
         transform="matrix(0.77378094,0,0,0.77378094,-1.4,0.3)" />
      <path
         id="ID0.03919347748160362"
         fill="none"
         stroke="#000000"
         stroke-width="0.5616"
         stroke-linecap="round"
         stroke-linejoin="round"
         d="m 126.276,65.872 -24.355,0.069"
         transform="matrix(0.77378094,0,0,0.77378094,-1.4,0.3)" />
      <path
         id="ID0.7411693832837045"
         fill="none"
         stroke="#000000"
         stroke-width="0.5616"
         stroke-linecap="round"
         stroke-linejoin="round"
         d="M 94.363,68.28 78.653,95.723"
         transform="matrix(0.77378094,0,0,0.77378094,-1.4,0.3)" />
      <path
         id="ID0.8786588669754565"
         fill="none"
         stroke="#000000"
         stroke-width="0.5616"
         stroke-linecap="round"
         stroke-linejoin="round"
         d="M 74.015,98.042 54.525,85.509"
         transform="matrix(0.77378094,0,0,0.77378094,-1.4,0.3)" />
      <path
         id="ID0.24823905806988478"
         fill="none"
         stroke="#000000"
         stroke-width="0.5616"
         stroke-linecap="round"
         stroke-linejoin="round"
         d="M 75.871,101.752 55.749,88.44"
         transform="matrix(0.77378094,0,0,0.77378094,-1.4,0.3)" />
      <path
         id="ID0.26552240923047066"
         fill="none"
         stroke="#000000"
         stroke-width="0.5616"
         stroke-linecap="round"
         stroke-linejoin="round"
         d="m 78.653,95.723 c -0.928,1.391 -1.392,1.854 -2.082,2.2 -0.7,0.346 -1.628,0.582 -2.556,0.118"
         transform="matrix(0.77378094,0,0,0.77378094,-1.4,0.3)" />
      <path
         id="ID0.0934383631683886"
         fill="none"
         stroke="#000000"
         stroke-width="0.5616"
         stroke-linecap="round"
         stroke-linejoin="round"
         d="M 45.348,83.94 28.208,98.091"
         transform="matrix(0.77378094,0,0,0.77378094,-1.4,0.3)" />
      <path
         id="ID0.7511484706774354"
         fill="none"
         stroke="#000000"
         stroke-width="0.5616"
         stroke-linecap="round"
         stroke-linejoin="round"
         d="m 46.493,86.704 -17.17,13.963"
         transform="matrix(0.77378094,0,0,0.77378094,-1.4,0.3)" />
      <path
         id="ID0.043514106422662735"
         fill="none"
         stroke="#000000"
         stroke-width="0.5616"
         stroke-linecap="round"
         stroke-linejoin="round"
         d="M 95.36,70.667 80.182,101.012"
         transform="matrix(0.77378094,0,0,0.77378094,-1.4,0.3)" />
      <path
         id="ID0.8638146598823369"
         fill="none"
         stroke="#000000"
         stroke-width="0.5616"
         stroke-linecap="round"
         stroke-linejoin="round"
         d="m 79.708,101.496 c -1.282,0.721 -2.556,0.681 -3.838,0.257"
         transform="matrix(0.77378094,0,0,0.77378094,-1.4,0.3)" />
      <path
         id="ID0.5145775540731847"
         fill="none"
         stroke="#000000"
         stroke-width="0.5616"
         stroke-linecap="round"
         stroke-linejoin="round"
         d="m 80.182,101.012 c -0.108,0.217 -0.256,0.375 -0.474,0.493"
         transform="matrix(0.77378094,0,0,0.77378094,-1.4,0.3)" />
      <path
         id="ID0.62240478862077"
         fill="none"
         stroke="#000000"
         stroke-width="0.5616"
         stroke-linecap="round"
         stroke-linejoin="round"
         d="M 31.188,107.88 C 23.678,90.552 16.159,73.224 8.649,55.896 8.57,55.718 8.472,55.59 8.323,55.461 8.067,55.254 7.79,55.066 7.474,54.958 7.237,54.879 6.991,54.839 6.744,54.839 6.32,54.849 5.905,54.967 5.52,55.155 5.145,55.333 4.8,55.579 4.523,55.895 4.375,56.062 4.247,56.25 4.158,56.447 4.039,56.723 3.99,57.03 3.97,57.345 c -0.01,0.188 0.01,0.355 0.089,0.533 7.5,17.318 15.009,34.626 22.509,51.945 0.257,0.454 0.612,0.889 1.096,1.115 0.207,0.099 0.444,0.158 0.661,0.218 0.128,0.029 0.247,0.068 0.375,0.078 0.079,0.021 0.167,0.021 0.247,0.03 0.227,0.02 0.434,0.039 0.661,0.039 0.335,-0.01 0.691,-0.089 0.977,-0.267 0.276,-0.178 0.483,-0.434 0.671,-0.72 0.128,-0.188 0.237,-0.385 0.306,-0.603 0.079,-0.267 0.079,-0.563 0.02,-0.839 -0.059,-0.325 -0.217,-0.641 -0.365,-0.938 0,-0.01 -0.01,-0.02 -0.01,-0.029 -0.009,-0.007 -0.009,-0.017 -0.019,-0.027 z"
         transform="matrix(0.77378094,0,0,0.77378094,-1.4,0.3)" />
      <path
         id="ID0.9022579239681363"
         fill="none"
         stroke="#000000"
         stroke-width="0.5616"
         stroke-linecap="round"
         stroke-linejoin="round"
         d="m 37.267,60.75 c -0.089,0.276 -0.079,0.513 0.029,0.779 7.372,17.703 14.723,35.407 22.085,53.11 0.099,0.217 0.237,0.385 0.444,0.513 0.306,0.197 0.631,0.385 0.967,0.533 0.306,0.138 0.631,0.246 0.967,0.296 0.523,0.079 1.066,0.01 1.52,-0.247 0.178,-0.099 0.346,-0.217 0.494,-0.354 0.079,-0.079 0.168,-0.168 0.247,-0.247 0.109,-0.108 0.217,-0.207 0.316,-0.315 0.138,-0.139 0.276,-0.297 0.355,-0.464 0.099,-0.208 0.128,-0.435 0.119,-0.661 0,-0.228 -0.04,-0.454 -0.099,-0.672 C 57.269,95.13 49.838,77.25 42.398,59.369 42.319,59.181 42.21,59.033 42.043,58.905 41.846,58.717 41.619,58.57 41.372,58.441 41.194,58.352 40.997,58.273 40.8,58.253 c -0.148,-0.01 -0.316,0.01 -0.474,0.04 -0.385,0.089 -0.75,0.247 -1.085,0.444 -0.385,0.208 -0.74,0.474 -1.086,0.75 -0.177,0.148 -0.345,0.296 -0.483,0.474 -0.189,0.227 -0.327,0.503 -0.405,0.789 z"
         transform="matrix(0.77378094,0,0,0.77378094,-1.4,0.3)" />
      <path
         id="ID0.3033942896872759"
         fill="none"
         stroke="#000000"
         stroke-width="0.5616"
         stroke-linecap="round"
         stroke-linejoin="round"
         d="m 107.467,96.75 c 0.089,0.227 0.228,0.395 0.435,0.522 0.315,0.207 0.651,0.395 0.986,0.553 0.316,0.128 0.642,0.247 0.978,0.296 0.513,0.079 1.065,0 1.52,-0.247 0.178,-0.099 0.336,-0.227 0.483,-0.364 0.089,-0.079 0.168,-0.158 0.247,-0.237 0.108,-0.108 0.217,-0.207 0.325,-0.315 0.139,-0.148 0.267,-0.296 0.355,-0.474 0.089,-0.197 0.118,-0.425 0.118,-0.651 -0.01,-0.228 -0.049,-0.454 -0.099,-0.681 C 105.365,77.26 97.924,59.36 90.484,41.469 90.405,41.272 90.287,41.124 90.119,40.995 89.922,40.837 89.705,40.699 89.477,40.58 c -0.188,-0.099 -0.375,-0.167 -0.572,-0.188 -0.158,-0.02 -0.315,0.01 -0.474,0.04 -0.385,0.089 -0.75,0.247 -1.096,0.434 -0.385,0.217 -0.739,0.474 -1.085,0.76 -0.168,0.138 -0.346,0.296 -0.483,0.464 -0.188,0.247 -0.326,0.523 -0.415,0.819 -0.079,0.276 -0.068,0.513 0.05,0.779 7.352,17.685 14.704,35.378 22.065,53.062 z"
         transform="matrix(0.77378094,0,0,0.77378094,-1.4,0.3)" />
      <path
         id="ID0.4471578821539879"
         fill="none"
         stroke="#000000"
         stroke-width="0.5616"
         stroke-linecap="round"
         stroke-linejoin="round"
         d="m 106.046,16.039 c -0.01,0.188 0.02,0.355 0.089,0.523 7.51,17.289 15.01,34.578 22.52,51.867 0.256,0.453 0.611,0.888 1.085,1.114 0.217,0.099 0.444,0.158 0.671,0.218 0.129,0.029 0.247,0.068 0.375,0.089 0.079,0.01 0.158,0.01 0.247,0.02 0.217,0.02 0.434,0.039 0.651,0.039 0.345,-0.01 0.7,-0.089 0.986,-0.267 0.276,-0.177 0.483,-0.434 0.671,-0.72 0.129,-0.188 0.237,-0.385 0.307,-0.603 0.078,-0.266 0.078,-0.563 0.02,-0.839 -0.069,-0.325 -0.218,-0.631 -0.365,-0.937 -0.01,-0.011 -0.01,-0.021 -0.02,-0.03 0,-0.01 -0.01,-0.02 -0.01,-0.029 -7.51,-17.329 -15.029,-34.657 -22.539,-51.985 -0.079,-0.168 -0.178,-0.306 -0.325,-0.434 -0.257,-0.208 -0.543,-0.395 -0.859,-0.503 -0.227,-0.079 -0.474,-0.119 -0.72,-0.108 -0.425,0 -0.839,0.118 -1.224,0.306 -0.375,0.178 -0.721,0.424 -1.007,0.74 -0.147,0.167 -0.267,0.355 -0.355,0.563 -0.138,0.294 -0.178,0.64 -0.198,0.976 z"
         transform="matrix(0.77378094,0,0,0.77378094,-1.4,0.3)" />
      <path
         id="ID0.47233714489266276"
         fill="none"
         stroke="#000000"
         stroke-width="0.5616"
         stroke-linecap="round"
         stroke-linejoin="round"
         d="m 128.477,70.046 c 0.188,0.168 0.375,0.296 0.563,0.414"
         transform="matrix(0.77378094,0,0,0.77378094,-1.4,0.3)" />
      <path
         id="ID0.8758213664405048"
         fill="none"
         stroke="#000000"
         stroke-width="0.5616"
         stroke-linecap="round"
         stroke-linejoin="round"
         d="m 127.608,68.941 c 0.089,0.158 0.178,0.306 0.276,0.435 0.079,0.118 0.168,0.236 0.257,0.335"
         transform="matrix(0.77378094,0,0,0.77378094,-1.4,0.3)" />
      <path
         id="ID0.23658108478412032"
         fill="none"
         stroke="#000000"
         stroke-width="0.5616"
         stroke-linecap="round"
         stroke-linejoin="round"
         d="m 129.266,70.579 c 0.296,0.139 0.592,0.247 0.898,0.316 0.927,0.236 1.854,0.236 2.546,0 0.7,-0.228 1.164,-0.701 1.628,-1.392 0.464,-0.7 0.928,-1.628 0,-3.483 -7.549,-17.407 -15.099,-34.814 -22.647,-52.222 -0.068,-0.148 -0.147,-0.276 -0.276,-0.385 -1.313,-1.214 -2.407,-1.204 -3.227,-1.056 -0.375,0.069 -0.69,0.168 -0.977,0.296 -0.375,0.167 -0.701,0.395 -1.057,0.681 -0.315,0.257 -0.641,0.553 -0.888,1.056 -0.207,0.424 -0.365,1.006 -0.395,1.835 0,0.177 0.029,0.335 0.099,0.493 0.157,0.375 0.325,0.74 0.483,1.115 0.533,1.233 1.075,2.477 1.608,3.71"
         transform="matrix(0.77378094,0,0,0.77378094,-1.4,0.3)" />
      <path
         id="ID0.8480471288785338"
         fill="none"
         stroke="#000000"
         stroke-width="0.5616"
         stroke-linecap="round"
         stroke-linejoin="round"
         d="m 11.077,58.57 h -0.01 C 10.8,57.938 10.524,57.317 10.258,56.685 10.041,56.192 9.823,55.688 9.607,55.195 9.547,55.047 9.459,54.919 9.331,54.81 8.433,53.981 7.643,53.714 6.962,53.695 c -0.315,-0.02 -0.602,0.01 -0.858,0.059 -0.858,0.158 -1.411,0.474 -2.023,0.977 -0.592,0.474 -1.224,1.115 -1.283,2.891 -0.01,0.178 0.02,0.336 0.089,0.503 7.549,17.397 15.098,34.805 22.637,52.212 0.701,1.253 1.628,1.717 2.556,1.954 0.928,0.227 1.855,0.227 2.546,0 0.701,-0.237 1.165,-0.701 1.628,-1.392 0.385,-0.582 0.77,-1.322 0.355,-2.635"
         transform="matrix(0.77378094,0,0,0.77378094,-1.4,0.3)" />
      <path
         id="ID0.9705631295219064"
         fill="none"
         stroke="#000000"
         stroke-width="0.5616"
         stroke-linecap="round"
         stroke-linejoin="round"
         d="M 92.043,42.199 C 91.925,41.923 91.816,41.636 91.698,41.36 91.609,41.152 91.53,40.955 91.441,40.748 91.372,40.58 91.263,40.432 91.116,40.314 90.77,40.018 90.465,39.801 90.178,39.643 89.28,39.13 88.628,39.179 88.017,39.347 c -0.858,0.227 -1.629,0.691 -2.369,1.273 -0.681,0.543 -1.332,1.174 -1.539,2.576 -0.039,0.227 -0.01,0.424 0.079,0.631 0.02,0.04 0.029,0.069 0.039,0.108 0.307,0.73 0.612,1.451 0.908,2.181 0.079,0.167 0.148,0.345 0.217,0.513 1.678,4.026 3.355,8.062 5.043,12.098 0,0 -0.01,0 0,0.01"
         transform="matrix(0.77378094,0,0,0.77378094,-1.4,0.3)" />
      <path
         id="ID0.005516208708286285"
         fill="none"
         stroke="#000000"
         stroke-width="0.5616"
         stroke-linecap="round"
         stroke-linejoin="round"
         d="m 106.599,97.667 c 0.029,0.05 0.06,0.089 0.089,0.129 0.01,0 0,0.01 0,0.01 0.069,0.079 0.148,0.147 0.237,0.217 2.013,1.411 3.325,1.401 4.213,1.175 0.928,-0.228 1.392,-0.691 1.974,-1.273 0.572,-0.582 1.273,-1.273 0.81,-3.128 -0.139,-0.346 -0.286,-0.681 -0.425,-1.026"
         transform="matrix(0.77378094,0,0,0.77378094,-1.4,0.3)" />
      <path
         id="ID0.7812613933347166"
         fill="none"
         stroke="#000000"
         stroke-width="0.5616"
         stroke-linecap="round"
         stroke-linejoin="round"
         d="m 44.983,62.566 c -0.03,-0.059 -0.06,-0.128 -0.079,-0.188 -0.306,-0.73 -0.612,-1.47 -0.918,-2.2 -0.217,-0.533 -0.444,-1.056 -0.661,-1.589 -0.069,-0.178 -0.177,-0.316 -0.326,-0.444 -1.411,-1.174 -2.279,-1.155 -3.088,-0.938 -0.849,0.227 -1.628,0.69 -2.358,1.273 -0.681,0.542 -1.333,1.174 -1.549,2.575 -0.01,0.06 -0.01,0.099 -0.01,0.158 0,0.158 0.029,0.306 0.088,0.454 0.217,0.513 0.424,1.026 0.642,1.539"
         transform="matrix(0.77378094,0,0,0.77378094,-1.4,0.3)" />
      <path
         id="ID0.536539273802191"
         fill="none"
         stroke="#000000"
         stroke-width="0.5616"
         stroke-linecap="round"
         stroke-linejoin="round"
         d="m 57.496,113.16 c 0.315,0.74 0.622,1.48 0.927,2.221 0.089,0.207 0.217,0.364 0.405,0.503 2.003,1.411 3.315,1.401 4.204,1.184 0.928,-0.236 1.392,-0.7 1.974,-1.282 0.583,-0.572 1.273,-1.273 0.809,-3.128 -0.01,-0.03 -0.029,-0.069 -0.039,-0.099 C 62.43,104.516 59.095,96.474 55.74,88.441"
         transform="matrix(0.77378094,0,0,0.77378094,-1.4,0.3)" />
      <path
         id="ID0.3398466664366424"
         fill="none"
         stroke="#000000"
         stroke-width="0.5616"
         stroke-linecap="round"
         stroke-linejoin="round"
         d="m 107.063,21.545 c 0,0.01 0.01,0.01 0.01,0.02 4.964,11.447 9.928,22.894 14.881,34.341 0.247,0.553 0.483,1.095 0.721,1.648 0.997,2.319 2.003,4.628 3.01,6.947 0.197,0.454 0.395,0.918 0.592,1.371 0.444,1.026 0.889,2.043 1.332,3.069 0.089,0.158 0.178,0.306 0.276,0.435 0.079,0.118 0.168,0.236 0.257,0.335 0.108,0.129 0.217,0.237 0.336,0.336 0.178,0.168 0.365,0.296 0.563,0.414 0.078,0.04 0.147,0.079 0.227,0.118"
         transform="matrix(0.77378094,0,0,0.77378094,-1.4,0.3)" />
      <path
         id="ID0.1114627500064671"
         fill="none"
         stroke="#000000"
         stroke-width="0.5616"
         stroke-linecap="round"
         stroke-linejoin="round"
         d="m 85.353,46.629 c 1.678,4.036 3.355,8.072 5.043,12.108 0.247,0.602 0.493,1.204 0.75,1.806 1.065,2.575 2.142,5.161 3.217,7.736 0.326,0.799 0.661,1.589 0.997,2.388 3.72,8.95 7.44,17.901 11.17,26.852 0.021,0.049 0.05,0.099 0.069,0.147 0.029,0.05 0.06,0.089 0.099,0.129"
         transform="matrix(0.77378094,0,0,0.77378094,-1.4,0.3)" />
      <path
         id="ID0.017363400664180517"
         fill="none"
         stroke="#000000"
         stroke-width="0.5616"
         stroke-linecap="round"
         stroke-linejoin="round"
         d="m 113.497,93.769 -11.576,-27.828 -0.798,-1.914 -3.138,-7.54 -2.192,-5.269 -3.75,-9.019"
         transform="matrix(0.77378094,0,0,0.77378094,-1.4,0.3)" />
      <path
         id="ID0.972247201949358"
         fill="none"
         stroke="#000000"
         stroke-width="0.5616"
         stroke-linecap="round"
         stroke-linejoin="round"
         d="m 36.724,63.208 0.108,0.266 5.033,12.098 0.562,1.343 2.921,7.025 1.145,2.764 11.003,26.456"
         transform="matrix(0.77378094,0,0,0.77378094,-1.4,0.3)" />
      <path
         id="ID0.8364012776874006"
         fill="none"
         stroke="#000000"
         stroke-width="0.5616"
         stroke-linecap="round"
         stroke-linejoin="round"
         d="M 65.775,112.558 55.749,88.44 h -0.01 l -1.214,-2.931 -4.45,-10.707 -3,-7.203 -2.092,-5.033"
         transform="matrix(0.77378094,0,0,0.77378094,-1.4,0.3)" />
      <path
         id="ID0.29238397534936666"
         fill="none"
         stroke="#000000"
         stroke-width="0.5616"
         stroke-linecap="round"
         stroke-linejoin="round"
         d="m 32.609,108.265 c -0.089,-0.257 -0.198,-0.543 -0.355,-0.849 -0.977,-2.25 -1.954,-4.5 -2.931,-6.75 -0.365,-0.858 -0.74,-1.717 -1.115,-2.575 C 27.251,95.88 26.293,93.67 25.327,91.449 25.149,91.025 24.962,90.6 24.774,90.177 20.215,79.648 15.646,69.118 11.077,58.579 v -0.01 c -0.276,-0.632 -0.543,-1.253 -0.819,-1.885"
         transform="matrix(0.77378094,0,0,0.77378094,-1.4,0.3)" />
      <path
         id="ID0.5507978308014572"
         fill="none"
         stroke="#000000"
         stroke-width="0.5616"
         stroke-linecap="round"
         stroke-linejoin="round"
         d="m 57.496,113.16 c -1.333,0.079 -2.171,0.108 -3.089,0.039 -1.115,-0.078 -2.358,-0.315 -4.135,-0.483 -1.776,-0.178 -4.095,-0.296 -6.029,-0.483 -1.934,-0.197 -3.483,-0.464 -4.638,-0.76 -1.164,-0.286 -1.934,-0.592 -3.02,-0.986 -1.085,-0.386 -2.477,-0.85 -3.977,-2.221"
         transform="matrix(0.77378094,0,0,0.77378094,-1.4,0.3)" />
      <path
         id="ID0.9057267513126135"
         fill="none"
         stroke="#000000"
         stroke-width="0.5616"
         stroke-linecap="round"
         stroke-linejoin="round"
         d="m 129.266,70.579 c -0.957,4.264 -2.122,7.046 -3.395,9.365 -1.283,2.319 -2.674,4.174 -4.372,6.108 -1.697,1.934 -3.71,3.947 -5.092,5.27 -1.135,1.095 -1.835,1.717 -2.911,2.447"
         transform="matrix(0.77378094,0,0,0.77378094,-1.4,0.3)" />
    </g>
  </g>
</svg>
