<?xml version="1.0" encoding="UTF-8" standalone="no"?>
<svg
   id="Layer_1"
   version="1.1"
   viewBox="0 0 23.745237 138.9095"
   sodipodi:docname="Drumstick.svg"
   width="23.745237"
   height="138.9095"
   xmlns:inkscape="http://www.inkscape.org/namespaces/inkscape"
   xmlns:sodipodi="http://sodipodi.sourceforge.net/DTD/sodipodi-0.dtd"
   xmlns="http://www.w3.org/2000/svg"
   xmlns:svg="http://www.w3.org/2000/svg">
  <sodipodi:namedview
     id="namedview11"
     pagecolor="#ffffff"
     bordercolor="#000000"
     borderopacity="0.25"
     inkscape:showpageshadow="2"
     inkscape:pageopacity="0.0"
     inkscape:pagecheckerboard="0"
     inkscape:deskcolor="#d1d1d1" />
  <!-- Generator: Adobe Illustrator 29.8.3, SVG Export Plug-In . SVG Version: 2.1.1 Build 3)  -->
  <defs
     id="defs4">
    <style
       id="style2">
      .st0 {
        fill: #c3a257;
      }
    </style>
  </defs>
  <path
     d="m 0.84890169,8.652167 c 4.11000001,-9.81 16.37000031,-12.59 21.34000031,-1.4 3.89,8.78 -0.49,9.67 -2.54,17.02 -3.72,13.37 1.79,54.15 2.47,70.2 0.4,9.400003 2.3,33.450003 -2.42,40.560003 -2.88,4.35 -11.7200003,5.65 -14.3200003,0.7 -0.94,-1.79 -2.05,-13.55 -2.29,-16.43 -1.42,-16.77 -2.02,-38.990003 -1.87,-55.870003 0.08,-9.58 3.78,-27.53 2.61,-35.34 -0.26,-1.72 -1.61,-2.15 -2.16,-3.56 -1.52000001,-3.89 -2.43000001,-12.01 -0.82000001,-15.87 v 0 z"
     id="path6" />
  <path
     class="st0"
     d="m 13.098902,132.28217 c -0.11,0.04 -1.92,-0.64 -1.76,-1.39 -0.81,-7.61 -1.7400003,-15.22 -2.0100003,-22.88 -0.85,-24.580003 0.06,-48.780003 0.37,-73.320003 0.09,-7.3 0.24,-7.74 -2.33,-14.27 -1.29,-3.28 -0.95,-8.68 1.37,-11.54 4.9300003,-6.09 9.9500003,1.88 7.0900003,8.15 -3.09,6.8 -3.22,7.39 -3.59,15.18 -1.37,29.15 5.57,60.77 3.69,89.150003 -0.14,2.17 -0.86,10.29 -2.83,10.93 v 0 z"
     id="path8" />
</svg>
