<svg version="1.1" width="131" height="97" viewBox="-1 -1 131 97" xmlns="http://www.w3.org/2000/svg" xmlns:xlink="http://www.w3.org/1999/xlink">
  <!-- Exported by Scratch - http://scratch.mit.edu/ -->
  <g id="ID0.4236689596436918">
    <path id="ID0.6745034395717084" fill="#CC0000" stroke="#000000" stroke-width="7" d="M 278.500 18 C 315.332 18 348.707 35.873 372.874 64.746 C 397.041 93.620 412 133.495 412 177.500 C 412 221.505 397.041 261.380 372.874 290.254 C 348.707 319.127 315.332 337 278.500 337 C 241.668 337 208.293 319.127 184.126 290.254 C 159.959 261.380 145 221.505 145 177.500 C 145 133.495 159.959 93.620 184.126 64.746 C 208.293 35.873 241.668 18 278.500 18 Z " transform="matrix(0.282617449760437, 0, 0, 0.2853463590145111, -38.45, -1.95)"/>
    <path id="ID0.24167582904919982" fill="none" stroke="#666666" stroke-width="11" stroke-linecap="round" d="M 96 273 L 170 273 " transform="matrix(0.2822648584842682, 0.01411324180662632, -0.01411324180662632, 0.2822648584842682, 12.05, 15.45)"/>
    <path id="ID0.6745034395717084" fill="#FFFFFF" stroke="#666666" stroke-width="7" d="M 278.500 18 C 315.332 18 348.707 35.873 372.874 64.746 C 397.041 93.620 412 133.495 412 177.500 C 412 221.505 397.041 261.380 372.874 290.254 C 348.707 319.127 315.332 337 278.500 337 C 241.668 337 208.293 319.127 184.126 290.254 C 159.959 261.380 145 221.505 145 177.500 C 145 133.495 159.959 93.620 184.126 64.746 C 208.293 35.873 241.668 18 278.500 18 Z " transform="matrix(0.2868023216724396, 0, 0, 0.2868023216724396, -20.85, -1.95)"/>
    <path id="ID0.5951332119293511" fill="none" stroke="#666666" stroke-width="11" stroke-linecap="round" d="M 86 79 L 175 79 " transform="matrix(0.22230689227581024, 0, 0, 0.282617449760437, -10.5, -1.75)"/>
    <path id="ID0.35596586437895894" fill="none" stroke="#666666" stroke-width="11" stroke-linecap="round" d="M 154 21 L 240 21 " transform="matrix(0.25714603066444397, -0.019068030640482903, 0.020899424329400063, 0.2818436324596405, -8.5, 1.1)"/>
    <path id="ID0.5682200188748538" fill="none" stroke="#666666" stroke-width="11" stroke-linecap="round" d="M 66 177 L 141 177 " transform="matrix(0.24811182916164398, 0, 0, 0.282617449760437, -14.45, -1.2)"/>
    <path id="ID0.24167582904919982" fill="none" stroke="#666666" stroke-width="11" stroke-linecap="round" d="M 96 273 L 170 273 " transform="matrix(0.2662338614463806, 0, 0, 0.282617449760437, -17.9, -1.75)"/>
    <path id="ID0.6745034395717084" fill="#FFFFCC" stroke="#000000" stroke-width="7" d="M 278.500 18 C 315.332 18 348.707 35.873 372.874 64.746 C 397.041 93.620 412 133.495 412 177.500 C 412 221.505 397.041 261.380 372.874 290.254 C 348.707 319.127 315.332 337 278.500 337 C 241.668 337 208.293 319.127 184.126 290.254 C 159.959 261.380 145 221.505 145 177.500 C 145 133.495 159.959 93.620 184.126 64.746 C 208.293 35.873 241.668 18 278.500 18 Z " transform="matrix(0.2868023216724396, 0, 0, 0.2868023216724396, -19.1, -2.55)"/>
  </g>
  <path id="ID0.6260078968480229" fill="none" stroke="#000000" stroke-width="2" stroke-linecap="round" d="M 329 155 L 348 140 " transform="matrix(0.7737809419631958, 0, 0, 0.7737809419631958, -147.15, -87.1)"/>
  <path id="ID0.6260078968480229" fill="none" stroke="#000000" stroke-width="2" stroke-linecap="round" d="M 329 155 L 348 140 " transform="matrix(0.610785722732544, 0.4750555455684662, -0.4750555455684662, 0.610785722732544, -17.4, -206.55)"/>
  <path id="ID0.6260078968480229" fill="none" stroke="#000000" stroke-width="2" stroke-linecap="round" d="M 329 155 L 348 140 " transform="matrix(0.7737809419631958, 0, 0, -0.7737809419631958, -146.75, 175.05)"/>
</svg>