<?xml version="1.0" encoding="UTF-8" standalone="no"?>
<svg
   xmlns:dc="http://purl.org/dc/elements/1.1/"
   xmlns:cc="http://creativecommons.org/ns#"
   xmlns:rdf="http://www.w3.org/1999/02/22-rdf-syntax-ns#"
   xmlns:svg="http://www.w3.org/2000/svg"
   xmlns="http://www.w3.org/2000/svg"
   xmlns:sodipodi="http://sodipodi.sourceforge.net/DTD/sodipodi-0.dtd"
   xmlns:inkscape="http://www.inkscape.org/namespaces/inkscape"
   version="1.1"
   width="131"
   height="97"
   viewBox="-1 -1 131 97"
   id="svg6614"
   sodipodi:docname="drum_bass-a.svg"
   inkscape:version="0.92.2 5c3e80d, 2017-08-06">
  <metadata
     id="metadata6620">
    <rdf:RDF>
      <cc:Work
         rdf:about="">
        <dc:format>image/svg+xml</dc:format>
        <dc:type
           rdf:resource="http://purl.org/dc/dcmitype/StillImage" />
        <dc:title></dc:title>
      </cc:Work>
    </rdf:RDF>
  </metadata>
  <defs
     id="defs6618" />
  <sodipodi:namedview
     pagecolor="#ffffff"
     bordercolor="#666666"
     borderopacity="1"
     objecttolerance="10"
     gridtolerance="10"
     guidetolerance="10"
     inkscape:pageopacity="0"
     inkscape:pageshadow="2"
     inkscape:window-width="640"
     inkscape:window-height="480"
     id="namedview6616"
     showgrid="false"
     fit-margin-top="0"
     fit-margin-left="0"
     fit-margin-right="0"
     fit-margin-bottom="0"
     inkscape:zoom="2.392"
     inkscape:cx="63.473617"
     inkscape:cy="34.984066"
     inkscape:window-x="-4"
     inkscape:window-y="-4"
     inkscape:window-maximized="0"
     inkscape:current-layer="svg6614"
     showguides="false" />
  <!-- Exported by Scratch - http://scratch.mit.edu/ -->
  <g
     id="ID0.4236689596436918"
     transform="matrix(0.77378094,0,0,0.77378094,-0.67638277,-0.33406625)">
    <path
       id="ID0.6745034395717084"
       d="m 278.5,18 c 36.832,0 70.207,17.873 94.374,46.746 C 397.041,93.62 412,133.495 412,177.5 412,221.505 397.041,261.38 372.874,290.254 348.707,319.127 315.332,337 278.5,337 241.668,337 208.293,319.127 184.126,290.254 159.959,261.38 145,221.505 145,177.5 145,133.495 159.959,93.62 184.126,64.746 208.293,35.873 241.668,18 278.5,18 Z"
       transform="matrix(0.36524221,0,0,0.3687689,-49.55,-2.75)"
       inkscape:connector-curvature="0"
       style="fill:#cc0000;stroke:#000000;stroke-width:7" />
    <path
       id="ID0.24167582904919982"
       d="m 96,273 h 74"
       transform="matrix(0.36478651,0.01823932,-0.01823932,0.36478651,15.8,19.8)"
       inkscape:connector-curvature="0"
       style="fill:none;stroke:#666666;stroke-width:11;stroke-linecap:round" />
    <path
       id="path6604"
       d="m 278.5,18 c 36.832,0 70.207,17.873 94.374,46.746 C 397.041,93.62 412,133.495 412,177.5 412,221.505 397.041,261.38 372.874,290.254 348.707,319.127 315.332,337 278.5,337 241.668,337 208.293,319.127 184.126,290.254 159.959,261.38 145,221.505 145,177.5 145,133.495 159.959,93.62 184.126,64.746 208.293,35.873 241.668,18 278.5,18 Z"
       transform="matrix(0.37065053,0,0,0.37065053,-26.8,-2.75)"
       inkscape:connector-curvature="0"
       style="fill:#ffffff;stroke:#666666;stroke-width:7" />
    <path
       id="ID0.5951332119293511"
       d="m 86,79 h 89"
       transform="matrix(0.28729951,0,0,0.36524221,-13.4,-2.5)"
       inkscape:connector-curvature="0"
       style="fill:none;stroke:#666666;stroke-width:11;stroke-linecap:round" />
    <path
       id="ID0.35596586437895894"
       d="m 154,21 h 86"
       transform="matrix(0.33232406,-0.02464267,0.02700948,0.36424217,-10.8,1.25)"
       inkscape:connector-curvature="0"
       style="fill:none;stroke:#666666;stroke-width:11;stroke-linecap:round" />
    <path
       id="ID0.5682200188748538"
       d="m 66,177 h 75"
       transform="matrix(0.32064867,0,0,0.36524221,-18.5,-1.75)"
       inkscape:connector-curvature="0"
       style="fill:none;stroke:#666666;stroke-width:11;stroke-linecap:round" />
    <path
       id="path6609"
       d="m 96,273 h 74"
       transform="matrix(0.34406877,0,0,0.36524221,-23,-2.5)"
       inkscape:connector-curvature="0"
       style="fill:none;stroke:#666666;stroke-width:11;stroke-linecap:round" />
    <path
       id="path6611"
       d="m 278.5,18 c 36.832,0 70.207,17.873 94.374,46.746 C 397.041,93.62 412,133.495 412,177.5 412,221.505 397.041,261.38 372.874,290.254 348.707,319.127 315.332,337 278.5,337 241.668,337 208.293,319.127 184.126,290.254 159.959,261.38 145,221.505 145,177.5 145,133.495 159.959,93.62 184.126,64.746 208.293,35.873 241.668,18 278.5,18 Z"
       transform="matrix(0.37065053,0,0,0.37065053,-24.55,-3.5)"
       inkscape:connector-curvature="0"
       style="fill:#ffffcc;stroke:#000000;stroke-width:7" />
  </g>
</svg>
