<?xml version="1.0" encoding="UTF-8" standalone="no"?>
<svg
   version="1.1"
   width="104.14191"
   height="134.89528"
   viewBox="-1 13 104.14191 134.89528"
   id="svg29"
   sodipodi:docname="drum_snare-b.svg"
   xmlns:inkscape="http://www.inkscape.org/namespaces/inkscape"
   xmlns:sodipodi="http://sodipodi.sourceforge.net/DTD/sodipodi-0.dtd"
   xmlns="http://www.w3.org/2000/svg"
   xmlns:svg="http://www.w3.org/2000/svg">
  <defs
     id="defs33" />
  <sodipodi:namedview
     id="namedview31"
     pagecolor="#ffffff"
     bordercolor="#000000"
     borderopacity="0.25"
     inkscape:showpageshadow="2"
     inkscape:pageopacity="0.0"
     inkscape:pagecheckerboard="0"
     inkscape:deskcolor="#d1d1d1" />
  <!-- Exported by Scratch - http://scratch.mit.edu/ -->
  <g
     id="ID0.7473984598182142"
     transform="translate(-184.64417,-122.73462)">
    <g
       id="ID0.558777361176908"
       transform="translate(183,121)">
      <g
         id="ID0.7402975359000266">
        <path
           id="ID0.20894866762682796"
           fill="none"
           stroke="#000000"
           stroke-width="2"
           d="m 208.8,182.2 45.6,26.5"
           transform="matrix(0.77378094,0,0,0.77378094,-129.15,-74.25)" />
        <path
           id="ID0.4165946766734123"
           fill="none"
           stroke="#000000"
           stroke-width="2"
           d="m 301,168.5 -46.6,40.2"
           transform="matrix(0.77378094,0,0,0.77378094,-129.15,-74.25)" />
        <path
           id="ID0.16853598644956946"
           fill="none"
           stroke="#000000"
           stroke-width="2"
           d="m 276.5,179.3 -22.1,29.4"
           transform="matrix(0.77378094,0,0,0.77378094,-129.15,-74.25)" />
      </g>
      <g
         id="ID0.48939482774585485">
        <path
           id="ID0.9035294633358717"
           fill="#ff9400"
           stroke="#000000"
           d="m 299.2,150 2.6,16.9 c 0.9,5.8 -19.3,13.8 -45.2,17.7 -25.8,3.9 -47.5,2.4 -48.4,-3.4 l -2.6,-16.9 c 0.9,5.8 22.6,7.4 48.4,3.4 25.9,-3.9 46.1,-11.8 45.2,-17.7 z"
           transform="matrix(0.77378094,0,0,0.77378094,-129.15,-74.25)" />
      </g>
      <path
         id="ID0.9226274066604674"
         fill="none"
         stroke="#000000"
         stroke-width="2"
         d="M 254.4,208.7 V 262"
         transform="matrix(0.77378094,0,0,0.77378094,-129.15,-74.25)" />
      <path
         id="ID0.9375987756066024"
         fill="none"
         stroke="#000000"
         stroke-width="2"
         d="m 254.4,262 -39.5,23.4"
         transform="matrix(0.77378094,0,0,0.77378094,-129.15,-74.25)" />
      <path
         id="ID0.27987909922376275"
         fill="none"
         stroke="#000000"
         stroke-width="2"
         d="m 254.4,262 12.9,26.9"
         transform="matrix(0.77378094,0,0,0.77378094,-129.15,-74.25)" />
      <path
         id="ID0.18838985497131944"
         fill="none"
         stroke="#000000"
         stroke-width="2"
         d="m 254.4,262 31.7,20.2"
         transform="matrix(0.77378094,0,0,0.77378094,-129.15,-74.25)" />
    </g>
    <path
       id="ID0.22352483216673136"
       fill="none"
       stroke="#000000"
       stroke-linecap="round"
       d="m 206.6,165.3 17.7,20.4"
       transform="matrix(0.77378094,0,0,0.77378094,53.85,46.75)" />
    <path
       id="ID0.03857615264132619"
       fill="#ffffcc"
       stroke="#000000"
       d="m 252.4,146.5 c 13.05,0 24.875,1.199 33.437,3.136 8.563,1.937 13.863,4.612 13.863,7.564 0,2.952 -5.3,5.627 -13.863,7.564 -8.562,1.937 -20.387,3.136 -33.437,3.136 -13.05,0 -24.875,-1.199 -33.437,-3.136 -8.563,-1.937 -13.863,-4.612 -13.863,-7.564 0,-2.952 5.3,-5.627 13.863,-7.564 8.562,-1.937 20.387,-3.136 33.437,-3.136 z"
       transform="matrix(0.76488245,-0.1169183,0.1169183,0.76488245,37.75,77.55)" />
    <path
       id="ID0.388675969094038"
       fill="none"
       stroke="#000000"
       stroke-linecap="round"
       d="m 235.5,169.9 -10.9,15.8"
       transform="matrix(0.77378094,0,0,0.77378094,53.85,46.75)" />
    <path
       id="ID0.43572661094367504"
       fill="none"
       stroke="#000000"
       stroke-linecap="round"
       d="m 235.5,169.9 16.9,15.3"
       transform="matrix(0.77378094,0,0,0.77378094,53.85,46.75)" />
    <path
       id="ID0.05912744486704469"
       fill="none"
       stroke="#000000"
       stroke-linecap="round"
       d="m 265,165.8 -12.6,19.4"
       transform="matrix(0.77378094,0,0,0.77378094,53.85,46.75)" />
    <path
       id="ID0.3816235833801329"
       fill="none"
       stroke="#000000"
       stroke-linecap="round"
       d="m 265,165.8 15.2,13.7"
       transform="matrix(0.77378094,0,0,0.77378094,53.85,46.75)" />
    <path
       id="ID0.7488025720231235"
       fill="none"
       stroke="#000000"
       stroke-linecap="round"
       d="m 208.6,167.6 -1.7,5.1"
       transform="matrix(0.77378094,0,0,0.77378094,53.85,46.75)" />
    <path
       id="ID0.19978509889915586"
       fill="none"
       stroke="#000000"
       stroke-linecap="round"
       d="m 286.8,159.5 -6.6,20"
       transform="matrix(0.77378094,0,0,0.77378094,53.85,46.75)" />
    <path
       id="ID0.049085416831076145"
       fill="none"
       stroke="#000000"
       stroke-linecap="round"
       d="m 286.8,159.5 13.8,10.4"
       transform="matrix(0.77378094,0,0,0.77378094,53.85,46.75)" />
    <path
       id="ID0.7357262005098164"
       fill="none"
       stroke="#000000"
       stroke-linecap="round"
       d="m 300.3,157.2 0.3,12.3"
       transform="matrix(0.77378094,0,0,0.77378094,53.85,46.75)" />
    <g
       id="ID0.09616521233692765"
       transform="translate(183,121)">
      <path
         id="ID0.3045292622409761"
         fill="#995900"
         d="m 242.8,155.8 v 0 c -1.4,0.4 -2.1,-1.1 -2.6,-3 L 217.3,75.4 c -0.5,-1.9 0.2,-3.8 1.6,-4.2 v 0 c 1.4,-0.4 3,0.8 3.6,2.7 l 21,78 c 0.5,1.9 0.7,3.5 -0.7,3.9 z"
         transform="matrix(0.48199809,-0.60532212,0.60532212,0.48199809,-144.2,114.05)" />
      <path
         id="ID0.8629519487731159"
         fill="#995900"
         d="m 243.2,152.2 c 0.745,0 1.42,0.56 1.909,1.465 0.488,0.906 0.791,2.156 0.791,3.535 0,1.379 -0.303,2.629 -0.791,3.535 -0.489,0.905 -1.164,1.465 -1.909,1.465 -0.745,0 -1.42,-0.56 -1.909,-1.465 -0.488,-0.906 -0.791,-2.156 -0.791,-3.535 0,-1.379 0.303,-2.629 0.791,-3.535 0.489,-0.905 1.164,-1.465 1.909,-1.465 z"
         transform="matrix(0.299409,-0.71352082,0.71352082,0.299409,-116.8,169.05)" />
    </g>
    <path
       id="ID0.7160823177546263"
       fill="#995900"
       d="m 262.8,150.9 v 0 c 0.4,-1.4 -1.1,-2.1 -3,-2.6 l -77.4,-23 c -1.9,-0.5 -3.8,0.2 -4.2,1.6 v 0 c -0.4,1.4 0.8,3 2.7,3.6 l 77.9,21.1 c 2,0.5 3.6,0.7 4,-0.7 z"
       transform="matrix(0.75732559,-0.15872899,0.15872899,0.75732559,28.55,80.55)" />
    <path
       id="ID0.07802767539396882"
       fill="#995900"
       d="m 264.2,146.3 c 0.745,0 1.42,0.56 1.909,1.465 0.488,0.906 0.791,2.156 0.791,3.535 0,1.379 -0.303,2.629 -0.791,3.535 -0.489,0.905 -1.164,1.465 -1.909,1.465 -0.745,0 -1.42,-0.56 -1.909,-1.465 -0.488,-0.906 -0.791,-2.156 -0.791,-3.535 0,-1.379 0.303,-2.629 0.791,-3.535 0.489,-0.905 1.164,-1.465 1.909,-1.465 z"
       transform="matrix(0.05444713,-0.77188385,0.77188385,0.05444713,121.45,348.75)" />
  </g>
</svg>
