<?xml version="1.0" encoding="UTF-8" standalone="no"?>
<svg
   id="Layer_1"
   version="1.1"
   viewBox="0 0 203.36147 254.05502"
   sodipodi:docname="duck.svg"
   width="203.36147"
   height="254.05502"
   xmlns:inkscape="http://www.inkscape.org/namespaces/inkscape"
   xmlns:sodipodi="http://sodipodi.sourceforge.net/DTD/sodipodi-0.dtd"
   xmlns="http://www.w3.org/2000/svg"
   xmlns:svg="http://www.w3.org/2000/svg">
  <sodipodi:namedview
     id="namedview53"
     pagecolor="#ffffff"
     bordercolor="#000000"
     borderopacity="0.25"
     inkscape:showpageshadow="2"
     inkscape:pageopacity="0.0"
     inkscape:pagecheckerboard="0"
     inkscape:deskcolor="#d1d1d1" />
  <!-- Generator: Adobe Illustrator 29.8.3, SVG Export Plug-In . SVG Version: 2.1.1 Build 3)  -->
  <defs
     id="defs4">
    <style
       id="style2">
      .st0 {
        fill: #fe9100;
      }

      .st1 {
        fill: #905200;
      }

      .st2 {
        fill: #311c00;
      }

      .st3 {
        fill: #130b00;
      }

      .st4 {
        fill: #985700;
      }

      .st5 {
        fill: #221300;
      }

      .st6 {
        fill: #301b00;
      }

      .st7 {
        fill: #d57a00;
      }

      .st8 {
        fill: #efefef;
      }

      .st9 {
        fill: #a8a8a8;
      }

      .st10 {
        fill: #1a0f00;
      }

      .st11 {
        fill: #673b00;
      }

      .st12 {
        fill: #1f1200;
      }

      .st13 {
        fill: #0a0a0a;
      }

      .st14 {
        fill: #fefefe;
      }

      .st15 {
        fill: #101010;
      }

      .st16 {
        fill: #e38200;
      }

      .st17 {
        fill: #392100;
      }
    </style>
  </defs>
  <path
     d="m 104.77778,72.709911 c 20.04,1.29 39.15,7.51 57.23,15.86 2.85,-9.11 7.23,-22.45 18.71,-13.68 22.18,16.95 29.85,53.629999 14.94,77.549999 -18.71,30.02 -50.7,46.05 -85.84,47 -2.31,2.01 8.67,5.91 9.89,6.3 9.25,3 34.88,7.21 39.69,15.76 5.14,9.13 -18.67,5.25 -21.19,8.85 -2.1,3 3.53,10.73 -0.32,12.66 -4.58,2.29 -16.24,-8.3 -20.9,-2 -1.78,2.4 -3.42,12.97 -9.04,8.88 -2.64,-1.92 -11.179995,-30.51 -12.179995,-35.33 -1.15,-5.54 -0.3,-9.49 -0.35,-15.13 -2.75,-0.08 -5.52,0.13 -8.28,0 -4.45,-0.21 -7.15,-3.13 -4.11,4.11 0.68,1.62 2.08,3.03 2.54,4.66 1.17,4.1 -3.46,15.38 -4.35,20.61 -0.82,4.79 -1.08,21.11 -3.07,23.57 -4.08,5.03 -8.37,-2.66 -11.73,-4.88 -10.14,-6.68 -20.48,1.15 -27.03,-1.74 -4.08,-1.8 2.35,-11.08 0.26,-13.97 -1.86,-2.57 -16.21,1.21 -17.58,-6.24 -0.77,-4.2 4.26,-6.75 7.33,-8.23 11.76,-5.67 26.62,-7.91 38.31,-14.26 0.59,-0.88 -0.25,-6.84 -0.48,-7.12 -0.32,-0.39 -8.04,-2.36 -9.64,-2.96 -10.61,-3.98 -19.32,-7.68 -28.05,-15.15 -18.82,-16.12 -18.08,-32.51 -13.85,-55.57 0.57,-3.11 1.49,-6.27 2.67,-9.2 -20.6300005,-5.99 -23.6900005,-21.179999 -10.1000005,-37.109999 1.53,-1.79 9.8100005,-8.81 10.0300005,-9.47 0.59,-1.78 -3.28,-8.34 -4.07,-10.85 -10.5900005,-33.4 30.06,-66.6 60.8,-52.1599996 24.77,11.6299996 39.299995,43.1399996 29.749995,69.2499996 z"
     id="path6" />
  <path
     class="st14"
     d="m 25.577785,114.45991 c 31.75,7.48 53,-13.33 44.68,-45.279999 10.03,-2.16 21.55,-11.02 9.26,-19.83 -6.14,-4.4 -11.98,-1.79 -17.05,-3.83 -5.07,-2.04 -5.64,-13.4 -16.05,-10.63 -5.77,1.53 -6.26,7.54 -8.65,9.34 -1.48,1.11 -5.95,1.35 -8.38,2.42 -4.31,1.89 -7.52,6.16 -6.42,10.98 0.43,1.87 3.29,3.91 0.44,5 -3.19,-9.08 -6.01,-16.07 -3.23,-25.9 5.51,-19.52 31.24,-34.9799996 50.51,-26.7899996 20.29,8.6299996 34.129995,35.5399996 27.79,56.8499996 -1.11,3.72 -10.67,18.84 -2.74,18.93 3.49,0.04 3.37,-2.47 5.189995,-3.52 7.38,-4.22 35.24,4.72 43.81,7.77 5.27,1.88 16.82,8.82 21.76,6.67 4.08,-1.77 4.38,-16.53 8.33,-15.92 3.51,0.54 12.67,13.77 14.45,17.27 17.31,34.179999 -3.79,65.349999 -33.89,81.849999 -32.76,17.96 -102.879995,17.07 -127.639995,-14.64 -11.05,-14.15 -5.86,-34.75 -2.17,-50.75 z"
     id="path8" />
  <path
     class="st0"
     d="m 54.377785,48.949911 q -1.65,1.13 0,0 c 6.44,7.72 17.83,1.27 23.02,9.01 -0.06,1.04 -8.64,3.72 -10.3,4.79 -6.99,4.52 -3.04,10.36 -2.65,16.81 1.66,27.059999 -19.01,32.519999 -41.62,27.219999 -14.6600005,-3.43 -20.2900005,-11.999999 -9.86,-24.719999 4.67,-5.69 15.11,-12.05 18.25,-17.03 3.38,-5.37 0.56,-4.82 -0.97,-8.18 -2.21,-4.87 8.61,-4.47 10.74,-5.8 0.23,-0.14 3.63,-3.51 3.81,-3.75 0.64,-0.81 0.5,-2.45 1.63,-3.77 4.37,-5.09 6.04,3.14 7.95,5.42 z"
     id="path10" />
  <path
     class="st0"
     d="m 74.537785,230.38991 c -0.66,0.3 -0.9,-0.42 -0.72,-2.16 0.14,-1.14 -0.16,-2.48 0,-3.6 l -0.07,-2.6 c 1.93,-5.14 1.71,-5.23 -0.65,-0.28 -2.22,6.68 -2.8,13.85 -2.89,20.88 -8.01,-5.24 -16.21,-4.49 -25.19,-2.89 0.38,-1.02 0.74,-2.01 1.44,-2.87 -0.3,-1.8 0.04,-2.47 1.01,-2.01 5.04,-5.93 10.71,-10.78 16.99,-14.55 1.01,-1.2 0.77,-1.44 -0.72,-0.72 -5.7,4.98 -11.58,10.22 -16.86,15.91 -1.28,-0.84 -0.94,-2.43 -0.42,-3.67 -2.4,-6.65 -9.56,-6.02 -15.12,-6.48 -0.28,-0.56 -0.32,-1.07 0.11,-1.22 8.6,-2.88 17.29,-5.77 25.95,-8.52 l -0.86,-1.06 c -0.65,0.02 -0.93,-0.01 -0.72,-0.72 4.94,-1.82 9.68,-4.27 14.93,-5.23 2.84,-3.15 1.99,-7.46 0.91,-11.32 5.97,-0.84 3.72,2.69 4.64,6.52 0.53,2.2 3.19,5.7 3.24,6.77 0.12,2.61 -4.36,15.21 -4.99,19.82 z"
     id="path12" />
  <path
     class="st0"
     d="m 111.25778,240.46991 c -0.4,0.45 -0.58,1.47 -1.43,1.44 -4.12,-13.87 -10.609995,-27.69 -10.089995,-42.48 6.009995,-0.6 3.499995,0.38 4.989995,4.02 1.49,3.64 6.07,5.08 9.43,6.41 9.78,3.88 27.49,5.85 35.52,10.56 0.73,0.43 1.7,1.19 1.91,2.05 -8.66,-0.37 -17.4,-3.59 -25.92,-5.75 -1.93,0.19 -4.45,-0.14 -5.76,-1.44 -0.63,0.09 -0.87,0.33 -0.72,0.72 1.48,-0.27 3.57,0.12 4.32,1.44 6.19,2.18 12.39,4.38 18.73,6.12 -2.64,0.66 -8.48,2.03 -9.71,4.7 -0.64,1.4 0.03,3.24 -1.46,4.28 -2.68,-2.72 -5.09,-5.73 -7.56,-8.63 -1,-1.5 -2.09,-1.13 -1.44,0.72 1.08,1.22 8.93,9.79 7.92,10.8 -7.01,-2.06 -11.25,-3.93 -16.56,2.16 -1.19,0.72 -1.88,1.48 -2.16,2.88 z"
     id="path14" />
  <path
     class="st12"
     d="m 56.537785,214.54991 c 0.85,-0.17 5.36,-0.5 5.76,0.71 l -30.96,10.09 c -1.27,-0.1 -2.38,-0.45 -3.6,-0.73 -0.58,-0.76 2.17,-1.24 2.88,-1.43 0.97,-0.8 1.93,-1.04 2.88,-0.72 7.18,-3.08 15.45,-6.47 23.04,-7.92 z"
     id="path16" />
  <path
     class="st5"
     d="m 64.457785,220.30991 c -1.57,1.36 -3.56,2.6 -5.05,3.95 -3.41,3.07 -10.28,9.32 -12.95,12.61 -0.77,-1.37 -1.43,-3.96 0,-5.04 0.25,0.7 -0.5,2.45 0.36,2.88 5.71,-5.26 10.04,-11.4 16.92,-15.12 1.01,-0.95 1.38,-0.55 0.72,0.72 z"
     id="path18" />
  <path
     class="st17"
     d="m 111.25778,240.46991 c -0.56,-9.78 -7.22,-18.23 -7.91,-28.08 1.04,-0.17 0.94,1.21 1.24,1.98 2.55,6.46 5.15,14.26 7.2,20.93 0.37,1.22 -0.51,2.73 1.63,2.29 -0.73,0.84 -1.31,1.92 -2.16,2.88 z"
     id="path20" />
  <path
     class="st16"
     d="m 56.537785,214.54991 c -6.02,1.22 -15.74,5.96 -23.04,7.92 -0.69,0.04 -0.95,0 -0.72,-0.72 7.6,-2.82 15.43,-5.12 23.04,-7.92 z"
     id="path22" />
  <path
     class="st7"
     d="m 74.537785,230.38991 c -0.59,4.31 -0.25,8.64 -0.69,12.63 -0.12,1.08 -0.15,2.23 -1.47,2.49 v -11.16 c 0,-1.03 1.29,-4.91 1.44,-6.12 z"
     id="path24" />
  <path
     class="st3"
     d="m 123.49778,223.90991 c -1.47,-0.92 -1.56,-1.2 -1.44,0.72 -2.56,-2.88 -5.83,-5.3 -7.92,-8.63 3.3,0.73 6.53,3.64 8.67,6.11 0.55,0.64 0.53,1.62 0.69,1.8 z"
     id="path26" />
  <path
     class="st2"
     d="m 125.65778,216.70991 -2.16,0.72 c -1.42,-0.5 -2.91,-0.92 -4.32,-1.44 -0.96,-0.97 -0.58,-0.93 0.72,-0.72 2.42,0.42 3.65,0.91 5.76,1.44 z"
     id="path28" />
  <path
     class="st6"
     d="m 73.817785,224.62991 -0.72,-2.88 c 0.39,-1.16 1.02,-3.88 2.15,-4.32 0,2.32 -1.12,5.08 -1.43,7.2 z"
     id="path30" />
  <path
     class="st1"
     d="m 33.497785,222.46991 c -0.97,0.26 -1.94,0.47 -2.88,0.72 0.54,-0.76 1.32,-1.13 2.16,-1.44 z"
     id="path32" />
  <path
     d="m 176.12778,123.73991 c 0.39,0.53 2.06,0.23 2.65,2.77 2.97,12.78 -19.17,29.4 -28.88,34.89 -14.2,8.03 -32.85,11.41 -48.85,8.29 -27.369995,-5.34 -33.759995,-28.88 -16.409995,-49.79 2.2,-2.65 10.33,-12.9 13.33,-6.86 1.75,3.53 -6.79,10.38 -9.01,13.33 -9,12 -9.62,27.99 6.27,34.02 18.669995,7.09 41.469995,0.93 57.299995,-10.05 7.29,-5.06 16.02,-12.02 18.49,-20.74 -6.53,-2.64 -23.43,8.2 -28.06,6.11 -2.11,-0.95 -2.61,-3.23 -1.65,-5.22 1.54,-3.2 15.95,-6.86 19.82,-8.26 0.91,-0.33 3.26,-0.94 3.41,-1.98 -5.12,-0.51 -11.07,-2.14 -16.17,-2.21 -3.97,-0.05 -11.42,2.45 -14.05,0.38 -2.63,-2.07 -1.65,-5.34 1.26,-6.63 l 20.32,-3.78 c -11.5,-2.72 -24.48,-4.67 -36.27,-2.8 -3.54,0.56 -13.43,5.23 -14.72,0.84 -1.46,-4.96 6.4,-7.049999 9.92,-7.799999 17.71,-3.79 46.65,0.49 61.74,11.049999 6.66,4.67 -0.41,7.87 -0.45,8.41 -0.02,0.34 1.17,1.4 1.26,2.28 0.12,1.26 -1.81,2.97 -1.23,3.76 z"
     id="path34" />
  <path
     class="st13"
     d="m 68.777785,30.959911 -0.72,2.87 5.76,0.73 c 0.4,4.23 -5.18,7.88 -8.26,4.29 -2.48,-2.9 -1.06,-8.1 3.21,-7.89 z"
     id="path36" />
  <path
     class="st15"
     d="m 37.097785,33.829911 c -1.09,-1 -0.63,-1.44 0.72,-0.72 5.05,7.46 -10.05,12.51 -5.76,0.72 0.26,-0.9 0.69,-1.38 1.44,-0.72 1.06,1.1 2.26,1.34 3.6,0.72 z"
     id="path38" />
  <path
     class="st9"
     d="m 37.817785,33.109911 c -0.26,0.19 -0.6,0.43 -0.72,0.72 -1.29,0.71 -2.73,0.46 -3.6,-0.72 -0.5,0.17 -0.95,0.53 -1.44,0.72 0.1,-0.27 -0.2,-0.91 0.14,-1.27 1.26,-1.36 4.5,-1.12 5.62,0.55 z"
     id="path40" />
  <path
     class="st10"
     d="m 54.377785,48.949911 c 0.16,0.46 0.1,5.41 -0.07,5.68 -1.89,3.04 -7.13,-5.11 -2.36,-7.06 0.51,-0.08 2.38,1.25 2.43,1.39 z"
     id="path42" />
  <path
     class="st10"
     d="m 46.107785,47.509911 c 3.25,-0.67 1.74,8 -2.16,7.2 -2.7,-0.75 0.72,-6.35 2.16,-7.2 z"
     id="path44" />
  <path
     class="st4"
     d="m 63.737785,219.58991 c 0.88,-0.48 1.44,-1.86 2.88,-1.43 -0.2,1.11 -1.45,1.54 -2.16,2.15 z"
     id="path46" />
  <path
     class="st11"
     d="m 119.89778,215.26991 -0.72,0.72 c -0.94,-0.35 -1.82,-0.81 -2.88,-0.73 v -0.7 c 1.46,-0.68 2.83,0.58 3.6,0.71 z"
     id="path48" />
  <path
     class="st8"
     d="m 37.097785,33.829911 c -1.52,3.6 -3.46,2.84 -3.6,-0.72 1.82,-0.64 1.9,-0.78 3.6,0.72 z"
     id="path50" />
</svg>
