<?xml version="1.0" encoding="UTF-8" standalone="no"?>
<!-- Generator: Adobe Illustrator 18.0.0, SVG Export Plug-In . SVG Version: 6.00 Build 0)  -->

<svg
   version="1.1"
   id="Layer_2"
   x="0px"
   y="0px"
   viewBox="0 0 36.599998 47.544447"
   enable-background="new 0 0 36.5 47.6"
   xml:space="preserve"
   sodipodi:docname="E-story-3.svg"
   width="36.599998"
   height="47.544445"
   xmlns:inkscape="http://www.inkscape.org/namespaces/inkscape"
   xmlns:sodipodi="http://sodipodi.sourceforge.net/DTD/sodipodi-0.dtd"
   xmlns="http://www.w3.org/2000/svg"
   xmlns:svg="http://www.w3.org/2000/svg"><defs
   id="defs9" /><sodipodi:namedview
   id="namedview7"
   pagecolor="#ffffff"
   bordercolor="#000000"
   borderopacity="0.25"
   inkscape:showpageshadow="2"
   inkscape:pageopacity="0.0"
   inkscape:pagecheckerboard="0"
   inkscape:deskcolor="#d1d1d1" />
<g
   id="g4"
   transform="translate(0,-0.05555556)">
	<path
   fill="#41a2f2"
   d="m 36.5,37 c -0.2,2 -0.4,4 -0.8,6 -0.2,1.1 -0.5,2.3 -0.8,3.4 0,0.2 -0.4,0.3 -0.7,0.4 C 29.1,46.9 24,46.9 19,47.2 15.7,47.4 12.3,47.6 9,47.6 6.7,47.6 4.4,47.5 2.1,47.5 1.8,47.5 1.5,47.4 1.2,47.4 0.7,47.3 0.1,47.3 0.1,46.6 c 0,-0.7 0.4,-1.3 1.1,-1.4 0.7,-0.2 1.3,-0.3 2,-0.4 0.7,-0.1 1,-0.6 1,-1.3 C 4.2,42 4.1,40.6 4.1,39.1 4.1,36.2 4.2,33.2 4.2,30.3 4.2,26.1 4.8,22 4.5,17.8 4.4,15.7 4.6,13.5 4.8,11.4 5.1,8.7 4.8,6.3 4.2,4 4.2,3.5 3.5,3.1 3.1,2.8 2.4,2.5 1.6,2.4 0.8,2.2 0.1,2.1 0,1.7 0,1.1 0,0.5 0.4,0.2 0.9,0.1 c 0.8,-0.1 1.6,0 2.4,0 0.7,0 1.4,0 2.1,0 3.7,0 7.4,-0.1 11,0 2.6,0 5.1,0.1 7.7,0.2 2.8,0.1 5.6,0.1 8.4,0.3 0.3,0 0.6,0.4 0.8,0.6 0.1,0.2 0.1,0.5 0.1,0.8 0.3,2.4 0.5,4.8 0.7,7.3 0,0.4 0.3,1 -0.4,1.2 -0.8,0.2 -1.3,0 -1.5,-0.8 C 32,7.6 31.1,6.1 29.5,5 28.3,4.1 26.9,3.9 25.5,3.9 21.9,3.7 18.3,3.6 14.8,3.5 13.9,3.5 13.1,3.4 12.2,3.4 12,9.7 11.8,15.9 11.6,22.3 c 0.9,0 1.9,-0.1 2.8,-0.1 1.9,0 3.8,0.1 5.7,0.1 0.6,0 1.1,0.1 1.7,0.1 1.1,0 1.6,-0.4 1.8,-1.5 0.1,-0.9 0.1,-1.7 0.2,-2.6 0.1,-0.8 0.3,-0.9 1.3,-1 0.7,0 1.2,0.2 1.2,1 0,0.9 -0.1,1.8 -0.1,2.7 0,2.8 0.1,5.5 0.1,8.3 0,0.6 -0.1,1.1 -0.2,1.7 -0.1,0.4 -0.2,0.7 -0.7,0.7 -0.5,-0.1 -1,-0.1 -1.1,-0.8 -0.1,-0.7 -0.2,-1.4 -0.2,-2 0,-1.5 -0.3,-1.8 -1.8,-1.8 -2.9,0 -5.8,0.1 -8.8,0.1 -0.1,0 -0.2,0 -0.2,0 -1.7,-0.2 -1.6,-0.2 -1.4,1.6 0.3,2.8 0.1,5.5 -0.2,8.2 -0.1,1 -0.1,2.1 -0.1,3.2 -0.1,1.1 -0.1,2.2 -0.2,3.3 0.1,0 0.2,0.1 0.3,0.1 5.4,-0.1 10.8,-0.2 16.2,-0.3 2.1,0 3.6,-0.8 4.6,-2.7 0.6,-1 1.3,-2 1.8,-3 0.3,-0.6 0.3,-1.2 0.6,-2.1 0.4,0 1,0 1.7,-0.1 -0.1,0.4 0,1 -0.1,1.6 z"
   id="path2" />
</g>
</svg>
