<?xml version="1.0" encoding="UTF-8" standalone="no"?>
<!-- Generator: Adobe Illustrator 18.0.0, SVG Export Plug-In . SVG Version: 6.00 Build 0)  -->

<svg
   version="1.1"
   id="Layer_2"
   x="0px"
   y="0px"
   viewBox="0 0 40.7 51.451479"
   enable-background="new 0 0 40.7 51.4"
   xml:space="preserve"
   sodipodi:docname="E-story-1.svg"
   width="40.700001"
   height="51.451481"
   xmlns:inkscape="http://www.inkscape.org/namespaces/inkscape"
   xmlns:sodipodi="http://sodipodi.sourceforge.net/DTD/sodipodi-0.dtd"
   xmlns="http://www.w3.org/2000/svg"
   xmlns:svg="http://www.w3.org/2000/svg"><defs
   id="defs27" /><sodipodi:namedview
   id="namedview25"
   pagecolor="#ffffff"
   bordercolor="#000000"
   borderopacity="0.25"
   inkscape:showpageshadow="2"
   inkscape:pageopacity="0.0"
   inkscape:pagecheckerboard="0"
   inkscape:deskcolor="#d1d1d1" />
<g
   id="g22">
	<path
   fill="#53ad4e"
   d="m 40.3,35.3 c -0.5,-0.1 -1.1,0 -1.4,0 -0.2,0.8 -0.2,1.4 -0.5,2 -0.7,1.3 -1.4,2.6 -2.4,3.8 -0.5,0.7 -1.4,1.2 -2.2,1.6 -0.6,0.3 -1.4,0.3 -2.2,0.3 -5.3,0.1 -10.6,0.2 -15.9,0.3 -0.1,0 -0.3,-0.1 -0.4,-0.1 0.3,-4.5 0.6,-9 0.9,-13.5 h 0.4 c 2.1,0.1 4.2,0.2 6.3,0.3 2.7,0.1 2.7,0.1 2.8,2.7 0.1,1.2 0.1,1.2 1.3,1.3 0.3,0 0.6,0.1 0.9,0.1 0.2,0 0.5,0 0.6,-0.2 0.8,-1.2 1.8,-2.4 1.8,-4 0,-1.1 -0.1,-2.2 -0.1,-3.2 0,-2.7 0,-5.4 0,-8.1 0,-0.5 0,-1 -0.6,-1.2 -0.8,-0.2 -1.7,0 -2.1,0.6 -0.8,1.3 -1.7,2.6 -2.5,3.9 -0.3,0.4 -0.6,0.5 -1,0.5 -1.8,-0.1 -3.7,-0.1 -5.5,-0.1 -1,0 -2,0.1 -2.9,0.2 0.2,-5.3 0.5,-10.5 0.7,-15.7 0,0 0.1,0 0.2,0 2.9,0.1 5.9,0.2 8.8,0.3 1.5,0.1 3,0.1 4.5,0.2 1.4,0.1 2.7,0.4 3.4,1.8 0.3,0.7 0.5,1.5 0.6,2.3 0.1,0.6 0,1.3 0.9,1.4 0.6,0 1.3,0.2 1.8,0.1 0.8,-0.2 1.9,-2.5 1.8,-3.4 C 38,7 37.8,4.6 37.5,2.2 37.5,1.9 37.5,1.6 37.4,1.4 37.2,1.1 36.9,0.8 36.6,0.8 33.9,0.7 31.2,0.6 28.6,0.5 25.2,0.2 21.7,0 18.2,0 13.9,0 9.5,0.1 5.2,0.2 c -0.5,0 -1,0.2 -1.4,0.5 -1.2,1 -2.3,2 -3.4,3.1 0,0 0,0.2 0,0.3 0,0.4 -0.1,0.7 -0.1,1.1 -0.1,0.7 0.2,1 0.9,1.1 0.9,0.1 1.8,0.3 2.7,0.7 0.8,0.3 1.2,0.9 1.2,1.8 0,1 0,2 0,2.9 C 5,15.6 4.9,19.5 4.8,23.5 4.7,26.2 4.7,29 4.6,31.7 4.6,33.1 4.5,34.6 4.4,36 4.1,39.2 3.8,42.3 3.5,45.5 3.5,45.7 3.4,45.9 3.3,46 2.6,46.6 1.9,47.1 1.2,47.6 0,48.5 0,49.7 0,50.8 0,50.9 0.2,51.1 0.2,51.1 0.7,51 1,50.9 1.4,50.9 3.7,51 6,51.3 8.3,51.3 c 5.8,0 11.7,0.4 17.5,-0.1 2.5,-0.2 5.1,-0.1 7.7,-0.1 1.4,0 2.6,-0.1 3.5,-1.4 0.9,-1.3 2.1,-2.4 2.3,-4.1 0.2,-1.9 0.6,-3.8 0.9,-5.7 0.2,-1.3 0.3,-2.7 0.5,-4 0,-0.2 -0.3,-0.6 -0.4,-0.6 z M 29.2,31.6 c -0.5,1.4 -0.9,1.8 -1.9,1.8 0.8,-1.3 1.3,-1.8 1.9,-1.8 z M 27.7,19.5 c 0.5,1.9 -0.5,3.1 -2.2,2.8 0.7,-1 1.5,-1.9 2.2,-2.8 z m -10.4,7.6 c 1.5,0.1 3,-0.1 4.5,-0.1 1.7,0 3.4,0 5.1,0 0.9,0 1.2,0.3 1.3,1.3 0.1,0.7 0.1,1.5 0.1,2.2 0,0.2 0,0.5 -0.2,0.7 -0.5,0.6 -1,1.2 -1.5,1.8 -0.1,0 -0.1,-0.1 -0.2,-0.1 -0.1,-0.8 -0.2,-1.6 -0.3,-2.4 -0.1,-0.7 -0.5,-1.1 -1.2,-1.1 -1.2,-0.1 -2.4,-0.1 -3.5,-0.2 -1.6,0 -3.2,0 -4.7,0 -0.5,0 -0.7,-0.1 -0.7,-0.6 0,-0.1 0,-0.2 0,-0.2 0,-1.3 -0.3,-1.4 1.3,-1.3 z M 37.4,10.5 c -0.3,1.1 -0.9,1.9 -2.4,1.6 1,-0.4 1.2,-1.6 2.4,-1.6 z m -21.3,-7 c 0.2,0 0.3,-0.1 0.4,-0.1 4.4,0.1 8.7,0.3 13.1,0.5 2.9,0.1 5,1.3 6.3,4 0.5,1 0.9,1.9 -0.2,2.7 -0.4,0.3 -0.7,0.8 -1.2,1.3 C 34.4,11.1 34.3,10.6 34.2,10 33.7,7.7 32.6,6.6 30.2,6.4 28.3,6.2 26.4,6.2 24.5,6.2 c -2.8,0 -5.6,0 -8.5,0 V 3.5 Z M 0.9,5.3 C 0.7,4.7 0.8,4.3 1.4,3.9 2.3,3.1 3.1,2.3 4,1.5 4.1,2.4 1.9,4.9 0.9,5.3 Z M 4.7,41.4 C 4.9,37.6 5.2,33.7 5.3,29.8 5.5,24.5 5.7,19.1 5.8,13.8 5.8,12.6 5.7,11.4 5.7,10.2 5.7,9.8 5.7,9.4 5.8,9 6,8.2 5.4,7 4.4,6.6 3.6,6.2 2.6,5.9 1.9,5.6 2.8,4.6 3.7,3.6 4.6,2.6 4.7,2.5 4.9,2.3 5.1,2.3 7.3,2.2 8.5,3.4 8.8,5.6 c 0.4,2.8 0.2,5.5 0,8.3 -0.2,2.4 0,4.8 0,7.2 -0.1,4.9 -0.3,9.7 -0.4,14.5 -0.1,2.4 0,4.9 0,7.3 0,1.6 -0.1,1.6 -1.6,2 -0.8,0.2 -1.5,0.3 -2.5,0.5 0.1,-1.4 0.3,-2.7 0.4,-4 z m -3.9,8.9 c -0.1,-1.3 1,-2.6 3.3,-4 0.2,0.4 0.3,0.7 0.5,1.3 -1.2,0.9 -2.5,1.8 -3.8,2.7 z M 35.6,50 c -0.2,0.2 -0.6,0.2 -1,0.2 -3.1,0.1 -6.2,0.2 -9.3,0.2 -4.8,0 -9.7,0.1 -14.5,0.1 -2.6,0 -5.2,-0.2 -7.7,-0.4 -0.1,0 -0.2,0 -0.3,-0.1 0.9,-0.8 1.7,-1.7 2.6,-2.5 0.1,-0.1 0.2,-0.1 0.4,-0.1 3.9,0 7.8,0.2 11.7,0.1 4.5,-0.1 9.1,-0.4 13.6,-0.5 2.3,-0.1 4.6,-0.2 6.9,-0.2 0.1,0.1 0.1,0.2 0.2,0.3 -0.9,1 -1.7,2 -2.6,2.9 z"
   id="path2" />
	<path
   fill="#ffffff"
   d="M 4,1.5 C 4,2.3 1.8,4.9 0.9,5.2 0.7,4.6 0.8,4.2 1.4,3.8 2.3,3.1 3.1,2.3 4,1.5 Z"
   id="path4" />
	<path
   fill="#ffffff"
   d="m 37.4,10.5 c -0.3,1.1 -0.9,1.9 -2.4,1.6 1,-0.4 1.2,-1.6 2.4,-1.6 z"
   id="path6" />
	<path
   fill="#ffffff"
   d="M 35.7,10.6 C 35.3,10.9 35,11.4 34.5,11.9 34.4,11.1 34.3,10.6 34.2,10 33.7,7.7 32.6,6.6 30.2,6.4 28.3,6.2 26.4,6.2 24.5,6.2 c -2.8,0 -5.6,0 -8.5,0 V 3.5 c 0.2,0 0.3,-0.1 0.4,-0.1 4.4,0.1 8.7,0.3 13.1,0.5 2.9,0.1 5,1.3 6.3,4 0.6,0.9 1,1.8 -0.1,2.7 z"
   id="path8" />
	<path
   fill="#ffffff"
   d="m 25.5,22.3 c 0.8,-1 1.5,-1.9 2.2,-2.8 0.5,1.9 -0.5,3.1 -2.2,2.8 z"
   id="path10" />
	<path
   fill="#ffffff"
   d="m 29.2,31.6 c -0.5,1.4 -0.9,1.8 -1.9,1.8 0.8,-1.3 1.3,-1.8 1.9,-1.8 z"
   id="path12" />
	<path
   fill="#ffffff"
   d="m 28.3,30.5 c 0,0.2 0,0.5 -0.2,0.7 -0.5,0.6 -1,1.2 -1.5,1.8 -0.1,0 -0.1,-0.1 -0.2,-0.1 -0.1,-0.8 -0.2,-1.6 -0.3,-2.4 -0.1,-0.7 -0.5,-1.1 -1.2,-1.1 -1.2,-0.1 -2.4,-0.1 -3.5,-0.2 -1.6,0 -3.2,0 -4.7,0 -0.5,0 -0.7,-0.1 -0.7,-0.6 0,-0.1 0,-0.2 0,-0.2 0,-1.4 -0.3,-1.4 1.4,-1.4 1.5,0.1 3,-0.1 4.5,-0.1 1.7,0 3.4,0 5.1,0 0.9,0 1.2,0.3 1.3,1.3 0,0.8 0,1.5 0,2.3 z"
   id="path14" />
	<path
   fill="#ffffff"
   d="m 38.2,47.1 c -0.9,1 -1.7,2 -2.6,2.9 -0.2,0.2 -0.6,0.2 -1,0.2 -3.1,0.1 -6.2,0.2 -9.3,0.2 -4.8,0 -9.7,0.1 -14.5,0.1 -2.6,0 -5.2,-0.2 -7.7,-0.4 -0.1,0 -0.2,0 -0.3,-0.1 0.9,-0.8 1.7,-1.7 2.6,-2.5 0.1,-0.1 0.2,-0.1 0.4,-0.1 3.9,0 7.8,0.2 11.7,0.1 4.5,-0.1 9.1,-0.4 13.6,-0.5 2.3,-0.1 4.6,-0.2 6.9,-0.2 0.1,0.1 0.1,0.2 0.2,0.3 z"
   id="path16" />
	<path
   fill="#ffffff"
   d="m 4.6,47.6 c -1.2,0.9 -2.5,1.8 -3.8,2.7 -0.1,-1.3 1,-2.6 3.3,-4 0.2,0.4 0.3,0.8 0.5,1.3 z"
   id="path18" />
	<path
   fill="#ffffff"
   d="m 8.8,14 c -0.2,2.4 0,4.8 0,7.2 -0.1,4.8 -0.3,9.6 -0.4,14.4 -0.1,2.4 0,4.9 0,7.3 0,1.6 -0.1,1.6 -1.6,2 C 6,45.1 5.3,45.2 4.3,45.4 4.5,44 4.7,42.7 4.8,41.4 5,37.6 5.3,33.7 5.4,29.8 5.6,24.5 5.8,19.1 5.9,13.8 5.9,12.6 5.8,11.4 5.8,10.2 5.8,9.8 5.8,9.4 5.9,9 6.1,8.2 5.5,7 4.5,6.6 3.7,6.2 2.7,5.9 2,5.6 2.9,4.6 3.8,3.6 4.7,2.6 4.8,2.5 5,2.3 5.2,2.3 7.4,2.2 8.6,3.4 8.9,5.6 9.1,8.5 9,11.2 8.8,14 Z"
   id="path20" />
</g>
</svg>
