<?xml version="1.0" encoding="UTF-8" standalone="no"?>
<svg
   version="1.1"
   width="190.08795"
   height="114.88297"
   viewBox="-1 -1 190.08795 114.88297"
   id="svg50"
   sodipodi:docname="elephant-b_.svg"
   xmlns:inkscape="http://www.inkscape.org/namespaces/inkscape"
   xmlns:sodipodi="http://sodipodi.sourceforge.net/DTD/sodipodi-0.dtd"
   xmlns="http://www.w3.org/2000/svg"
   xmlns:svg="http://www.w3.org/2000/svg">
  <defs
     id="defs54" />
  <sodipodi:namedview
     id="namedview52"
     pagecolor="#ffffff"
     bordercolor="#000000"
     borderopacity="0.25"
     inkscape:showpageshadow="2"
     inkscape:pageopacity="0.0"
     inkscape:pagecheckerboard="0"
     inkscape:deskcolor="#d1d1d1" />
  <!-- Exported by Scratch - http://scratch.mit.edu/ -->
  <g
     id="Back_Ear"
     transform="translate(-3.0369859,-1.5018092)">
    <path
       id="Fill_3_"
       fill="#8395d4"
       d="m 88.616,61.125 c -0.312,0.293 -0.3,-0.3 -0.369,-0.978 -0.269,-2.596 -1.57,-5.318 -3.55,-6.158 -1.937,-0.821 -3.814,0.076 -5.152,1.977 -3.629,5.158 -2.809,11.895 -3.915,18.215 0,0.004 0.001,0.019 0.001,0.019 l -0.01,0.029 c -0.057,0.312 -0.111,0.625 -0.176,0.936 -0.813,3.849 -2.812,6.324 -3.901,9.78 -0.395,1.25 -0.281,3.377 0.3,4.511 1.177,2.3 3.953,3.762 6.001,3.327 2.423,-0.516 4.454,-3.896 5.775,-6.389 0.015,0.138 0.021,0.271 0.024,0.405 1.711,-4.065 5.201,-13.04 5.201,-18.598 0.003,-2.802 -0.101,-5.189 -0.229,-7.076 z"
       transform="matrix(1.3400955,0,0,1.3400955,-3.5,-66.5)" />
    <path
       id="Outline_3_"
       fill="#272525"
       d="m 77.846,92.782 c -2.049,0.435 -4.825,-1.027 -6,-3.327 -0.581,-1.135 -0.695,-3.26 -0.3,-4.51 1.089,-3.457 3.088,-5.935 3.901,-9.781 0.065,-0.311 0.121,-0.623 0.176,-0.936 0.002,-0.016 0.006,-0.032 0.009,-0.048 1.107,-6.321 0.286,-13.057 3.915,-18.215 1.338,-1.9 3.218,-2.798 5.152,-1.977 1.979,0.84 3.282,3.562 3.55,6.158 0.07,0.678 0.059,1.271 0.369,0.978 0.062,-0.06 0.137,-0.144 0.23,-0.287 -0.121,-1.777 -0.332,-3.278 -0.711,-4.512 0,-0.005 -0.004,-0.009 -0.005,-0.014 -0.797,-2.587 -2.342,-3.981 -5.411,-4.168 -3.35,-0.202 -5.529,4.593 -6.552,8.168 -1.398,4.887 -0.481,10.278 -1.8,15.248 -1.036,3.907 -4.067,6.963 -4.727,10.569 -1.372,7.511 6.368,10.527 10.428,7.277 1.703,-1.363 3.687,-3.744 3.576,-6.607 -0.006,-0.134 -0.012,-0.269 -0.025,-0.405 -1.321,2.493 -3.353,5.875 -5.775,6.389 z"
       transform="matrix(1.3400955,0,0,1.3400955,-3.5,-66.5)" />
  </g>
  <g
     id="Front_Leg_2"
     transform="translate(-3.0369859,-1.5018092)">
    <path
       id="Fill_5_"
       fill="#8395d4"
       d="m 64.979,123.768 c 0.224,1.379 1.009,2.883 1.932,3.674 1.86,1.592 9.75,2.177 10.259,-0.754 0.503,-2.904 -4.011,-5.308 -5.152,-7.696 -1.137,-2.376 -2.143,-4.888 -1.385,-7.763 0.05,0.028 0.092,0.064 0.132,0.103 -0.538,-1.289 -1.635,-2.634 -3.844,-2.492 -2.191,0.14 -2.771,1.528 -2.92,2.392 v 0.002 c -0.331,4.03 0.337,8.578 0.978,12.534 z"
       transform="matrix(1.3400955,0,0,1.3400955,-3.5,-66.5)" />
    <path
       id="Toenail2_2_"
       fill="#b7cbe7"
       d="m 71.293,125.408 c -0.962,0.072 -0.982,2.134 -1.237,3.158 0.721,0.119 1.494,0.183 2.254,0.188 -0.19,-1.115 -0.041,-3.418 -1.017,-3.346 z"
       transform="matrix(1.3400955,0,0,1.3400955,-3.5,-66.5)" />
    <path
       id="Toenail1_2_"
       fill="#b7cbe7"
       d="m 75.102,125.055 c -1.355,0.252 -0.848,2.705 -1.023,3.592 0.883,-0.127 1.657,-0.369 2.219,-0.744 -0.221,-1.16 -0.349,-3.005 -1.196,-2.848 z"
       transform="matrix(1.3400955,0,0,1.3400955,-3.5,-66.5)" />
    <path
       id="Outline_6_"
       fill="#272525"
       d="m 73.9,130.079 c 2.174,-0.091 5.057,-1.313 4.463,-4.962 -0.18,-1.1 -0.918,-2.381 -1.646,-2.953 -0.658,-0.52 -1.284,-1.072 -1.868,-1.684 -0.932,-0.977 -1.757,-2.104 -2.427,-3.502 -0.482,-1.008 -0.923,-2.217 -1.119,-3.418 -0.037,-0.224 -0.08,-0.446 -0.098,-0.668 -0.041,-0.537 -0.072,-1.229 -0.441,-1.562 -0.04,-0.037 -0.082,-0.073 -0.132,-0.102 -0.758,2.873 0.248,5.386 1.385,7.762 0.236,0.494 0.621,0.99 1.072,1.49 1.727,1.916 4.478,3.903 4.08,6.207 -0.019,0.104 -0.065,0.195 -0.103,0.293 -0.106,-0.57 -0.276,-1.178 -0.436,-1.672 -0.673,-2.104 -3.333,-1.645 -3.276,1.41 0.022,1.176 0.012,1.729 0.103,1.996 -0.115,0.01 -0.231,0.014 -0.348,0.021 0.142,-0.736 -0.07,-1.982 -0.277,-2.881 -0.5,-2.179 -3.257,-2.058 -3.47,0.988 -0.051,0.742 -0.096,1.235 -0.103,1.569 -1.024,-0.233 -1.881,-0.571 -2.351,-0.974 -0.181,-0.155 -0.354,-0.344 -0.521,-0.547 -0.686,-0.835 -1.231,-2.019 -1.411,-3.127 -0.641,-3.955 -1.309,-8.504 -0.979,-12.537 0,0 0,0 0,-0.002 -0.076,-0.166 -0.147,-0.521 -0.356,-0.375 -0.766,2.054 -0.858,5.223 -0.668,7.479 0.214,2.543 0.177,5.26 1.145,7.538 0.58,1.366 1.365,2.298 2.269,2.939 2.16,1.536 5.017,1.381 7.513,1.274 z m 1.202,-5.024 c 0.847,-0.156 0.975,1.688 1.196,2.848 -0.562,0.375 -1.336,0.617 -2.219,0.744 0.175,-0.887 -0.332,-3.34 1.023,-3.592 z m -3.809,0.353 c 0.976,-0.072 0.827,2.23 1.017,3.346 -0.76,-0.005 -1.533,-0.068 -2.254,-0.188 0.255,-1.024 0.275,-3.086 1.237,-3.158 z"
       transform="matrix(1.3400955,0,0,1.3400955,-3.5,-66.5)" />
  </g>
  <g
     id="Back_Leg_2"
     transform="translate(-3.0369859,-1.5018092)">
    <path
       id="Fill_6_"
       fill="#8395d4"
       d="m 38.982,120.716 c 0.224,1.379 1.009,2.884 1.932,3.675 1.86,1.592 9.75,2.176 10.259,-0.754 0.503,-2.904 -4.011,-5.308 -5.152,-7.697 -1.137,-2.375 -2.143,-4.888 -1.385,-7.762 0.05,0.028 0.092,0.064 0.132,0.103 -0.538,-1.289 -1.635,-2.634 -3.844,-2.492 -2.191,0.14 -2.771,1.528 -2.92,2.392 v 0.002 c -0.331,4.03 0.337,8.579 0.978,12.533 z"
       transform="matrix(1.3400955,0,0,1.3400955,-3.5,-66.5)" />
    <path
       id="Toenail2_3_"
       fill="#b7cbe7"
       d="m 45.296,122.357 c -0.962,0.072 -0.982,2.135 -1.237,3.16 0.722,0.116 1.494,0.181 2.254,0.187 -0.19,-1.116 -0.041,-3.418 -1.017,-3.347 z"
       transform="matrix(1.3400955,0,0,1.3400955,-3.5,-66.5)" />
    <path
       id="Toenail1_3_"
       fill="#b7cbe7"
       d="m 49.105,122.004 c -1.355,0.252 -0.848,2.705 -1.023,3.591 0.883,-0.126 1.658,-0.368 2.219,-0.743 -0.221,-1.161 -0.349,-3.004 -1.196,-2.848 z"
       transform="matrix(1.3400955,0,0,1.3400955,-3.5,-66.5)" />
    <path
       id="Outline_7_"
       fill="#272525"
       d="m 47.904,127.027 c 2.174,-0.09 5.056,-1.313 4.463,-4.961 -0.18,-1.1 -0.918,-2.381 -1.646,-2.953 -0.246,-0.194 -0.486,-0.395 -0.722,-0.599 -1.407,-1.216 -2.641,-2.641 -3.573,-4.587 -0.482,-1.008 -0.923,-2.217 -1.119,-3.418 -0.037,-0.224 -0.08,-0.447 -0.098,-0.669 -0.041,-0.536 -0.072,-1.228 -0.441,-1.562 -0.04,-0.037 -0.082,-0.073 -0.132,-0.103 -0.758,2.874 0.248,5.386 1.385,7.763 0.406,0.85 1.239,1.701 2.12,2.575 1.598,1.586 3.356,3.248 3.032,5.121 -0.019,0.105 -0.065,0.196 -0.103,0.294 -0.106,-0.57 -0.276,-1.178 -0.435,-1.672 -0.673,-2.104 -3.333,-1.645 -3.276,1.41 0.022,1.175 0.012,1.729 0.103,1.996 -0.115,0.01 -0.231,0.014 -0.348,0.021 0.142,-0.736 -0.07,-1.982 -0.277,-2.881 -0.5,-2.179 -3.257,-2.058 -3.47,0.988 -0.051,0.742 -0.096,1.234 -0.103,1.568 -1.024,-0.232 -1.881,-0.57 -2.351,-0.973 -0.923,-0.791 -1.708,-2.296 -1.932,-3.675 -0.116,-0.714 -0.23,-1.452 -0.342,-2.199 -0.506,-3.386 -0.907,-7.032 -0.637,-10.337 0,0 0,-0.001 0,-0.002 -0.076,-0.167 -0.147,-0.521 -0.356,-0.376 -0.766,2.054 -0.858,5.224 -0.668,7.479 0.089,1.063 0.138,2.156 0.231,3.235 0.13,1.502 0.35,2.977 0.914,4.302 1.966,4.633 6.24,4.368 9.781,4.215 z m 1.201,-5.023 c 0.847,-0.156 0.975,1.688 1.196,2.848 -0.561,0.375 -1.336,0.617 -2.219,0.743 0.175,-0.886 -0.332,-3.339 1.023,-3.591 z m -3.809,0.353 c 0.976,-0.071 0.827,2.23 1.017,3.347 -0.76,-0.006 -1.532,-0.07 -2.254,-0.187 0.255,-1.025 0.275,-3.087 1.237,-3.16 z"
       transform="matrix(1.3400955,0,0,1.3400955,-3.5,-66.5)" />
  </g>
  <g
     id="Body"
     transform="translate(-3.0369859,-1.5018092)">
    <path
       id="Fill_8_"
       fill="#8395d4"
       d="m 140.214,63.127 c 0.904,-2.436 1.851,-4.763 0.657,-6.929 -1.314,-2.381 -4.158,-0.073 -5.589,2.166 -2.632,4.115 -6.158,6.347 -10.853,7.362 -5.509,1.19 -9.205,1.794 -13.479,1.624 -1.729,-0.068 -9.448,-0.782 -16.854,-3.679 -5.72,-2.241 -10.979,-6.567 -15,-7.396 -3.732,-0.123 -7.372,0.576 -11.347,1.133 -4.061,0.569 -7.246,-1.795 -10.373,-4.017 -8.622,-4.283 -16.294,-1.964 -25.421,2.81 -2.634,1.388 -3.542,4.095 -5.45,5.599 -1.153,1.92 -2.401,3.777 -3.553,5.676 -0.398,1.109 -0.773,2.234 -1.126,3.381 -1.205,8.261 -1.63,14.275 0.675,22.37 1.503,5.282 4.841,9.311 6.27,11.076 1.789,1.102 3.255,2.608 5.039,3.758 2,1.289 4.076,2.445 6.227,3.465 4.988,2.363 9.946,4.346 15.506,4.759 5.045,0.374 10.105,0.042 15.082,-0.851 1.347,-0.242 2.708,-0.502 4.05,-0.82 0.512,-0.221 1.039,-0.487 1.586,-0.817 4.396,-2.651 6.739,-5.412 10.356,-9.093 3.945,0 6.492,-0.059 9.945,-2.6 3.002,-2.223 3.248,-5.035 5.672,-8.229 1.479,-1.948 3.615,-1.624 3.369,-6.495 -0.129,-2.554 18.248,-13.965 23.101,-15.806 4.315,-1.625 5.796,-3.465 10.274,-3.465 1.974,0 5.67,3.032 5.836,-1.732 0.099,-2.725 -2.543,-2.816 -4.6,-3.25 z"
       transform="matrix(1.3400955,0,0,1.3400955,-3.5,-66.5)" />
    <path
       id="Outline_10_"
       fill="#272525"
       d="m 145.766,65.783 c -0.709,-2.598 -3.52,-3.34 -5.051,-4.036 1.939,-2.369 3.256,-6.387 -0.119,-8.046 -0.916,-0.451 -2.291,0.495 -3.039,1.232 -1.125,1.105 -4.125,6.193 -7.426,7.928 -2.389,1.259 -5.236,1.762 -7.771,2.311 -7.008,1.512 -17,2.395 -28.713,-2.097 -4.854,-1.862 -8.869,-6.813 -13.871,-7.989 -1.334,-0.313 -5.631,-0.838 -8.265,0.095 v -0.005 c 0,0 -4.509,1.324 -7.968,0.491 -2.736,-0.66 -6.699,-2.855 -8.239,-3.746 -3.032,-1.998 -7.908,-1.745 -10.886,-1.451 -6.866,0.676 -12.821,4.399 -17.926,10.289 0,0 -4.21,4.708 -5.483,11.233 -2.671,10.835 -1.336,23.783 5.899,30.865 13.573,18.024 41.45,14.716 41.45,14.716 l 0.018,-0.041 c 5.504,-0.322 10.663,-2.998 14.709,-8.019 0.993,-1.307 1.753,-2.808 2.864,-3.695 3.827,0 7.598,-0.65 10.725,-3.041 2.164,-1.731 5.086,-4.232 5.468,-7.853 2.969,-0.85 5.334,-4.207 4.308,-7.593 0.297,-0.24 0.599,-0.473 0.892,-0.719 4.352,-3.646 8.912,-7.08 13.68,-9.7 5.043,-2.771 9.498,-5.612 14.789,-7.582 3.371,-1.257 6.373,2.135 8.707,0.539 1.699,-1.163 1.604,-2.776 1.248,-4.086 z m -1.661,1.777 c -0.254,0.888 -1.229,0.762 -1.899,0.576 -3.729,-1.03 -5.358,-1.558 -9.062,0.462 -9.722,5.302 -19.274,9.294 -27.91,17.552 -0.947,0.908 -2.664,1.689 -3.75,2.816 0.281,-1.348 0.394,-2.726 0.304,-3.933 -0.248,-3.284 -2.458,-6.729 -4.123,-6.543 1.778,2.987 3.444,7.968 1.257,12.085 -0.863,1.627 -2.126,2.497 -3.154,3.888 l 0.146,0.729 c 2.439,0.592 4.24,-1.771 5.177,-4.699 0.375,0.304 0.989,0.47 1.485,-0.111 0.645,-0.502 1.292,-1.003 1.938,-1.506 -0.002,0.002 -0.005,0.006 -0.008,0.007 -0.38,2.16 -2.046,4.234 -3.537,4.657 -2.717,7.852 -9,10.661 -15.167,10.701 -3.618,5.548 -12.578,10.854 -17.887,11.469 -0.298,0.035 -0.59,0.094 -0.88,0.161 -23.383,1.829 -36.296,-11.056 -38.938,-14.021 0.009,0.004 0.019,0 0.028,0.002 -2.033,-2.109 -3.305,-4.612 -4.75,-8.43 -3.12,-8.246 -1.939,-14.783 -0.682,-20.57 0.006,-0.029 2.308,-8.356 6.211,-12 6.429,-6.264 12.717,-9.369 21.125,-8.692 1.357,0.108 2.667,0.428 3.982,0.729 0.002,10e-4 0.004,0.002 0.007,0.004 1.85,0.896 8.817,4.937 10.192,5.437 1.372,0.499 7.269,-1.188 7.298,-1.197 2.624,-0.423 7.176,-1.064 11.223,1.299 9.293,5.426 17.561,8.628 26.812,9.254 -0.462,1.481 -1.036,3.463 -0.245,3.528 0.906,0.076 0.733,-1.698 0.613,-3.502 2.151,0.129 4.362,0.113 6.649,-0.041 -0.49,1.738 -0.871,4.572 0.103,4.351 0.841,-0.188 0.655,-2.89 0.132,-4.363 0.907,-0.065 1.825,-0.147 2.76,-0.258 0.484,-0.057 0.973,-0.122 1.461,-0.19 -0.104,1.529 0.289,4.224 0.766,3.887 0.466,-0.333 0.207,-2.516 -0.383,-3.941 5.164,-0.76 10.404,-2.312 14.295,-7.17 0.713,-0.89 2.851,-5.708 4.853,-3.626 1.531,1.594 -0.577,5.467 -1.993,7.039 2.524,-0.378 6.305,1.518 5.551,4.16 z"
       transform="matrix(1.3400955,0,0,1.3400955,-3.5,-66.5)" />
  </g>
  <g
     id="Back_Leg_1"
     transform="translate(-3.0369859,-1.5018092)">
    <path
       id="Fill_7_"
       fill="#8395d4"
       d="m 27.877,122.604 c 0.154,1.861 1.043,3.951 2.192,5.104 2.314,2.316 12.774,3.922 13.759,0.068 0.973,-3.821 -4.793,-7.498 -6.065,-10.806 -1.267,-3.286 -2.345,-6.739 -1.034,-10.493 0.063,0.043 0.116,0.094 0.166,0.148 -0.583,-1.775 -2.309,-7.27 -5.27,-7.312 -2.938,-0.045 -3.451,5.334 -3.74,6.471 0,10e-4 0,0.002 0,0.002 -1.697,7.464 -0.447,11.48 -0.008,16.818 z"
       transform="matrix(1.3400955,0,0,1.3400955,-3.5,-66.5)" />
    <path
       id="Toenail2_1_"
       fill="#b7cbe7"
       d="m 36.126,125.454 c -1.29,-0.004 -1.534,2.743 -1.982,4.085 0.952,0.23 1.974,0.398 2.988,0.482 -0.137,-1.505 0.302,-4.561 -1.006,-4.567 z"
       transform="matrix(1.3400955,0,0,1.3400955,-3.5,-66.5)" />
    <path
       id="Toenail1_1_"
       fill="#b7cbe7"
       d="m 41.241,125.381 c -1.833,0.195 -1.413,3.518 -1.738,4.682 1.19,-0.076 2.249,-0.318 3.036,-0.761 -0.174,-1.568 -0.153,-4.041 -1.298,-3.921 z"
       transform="matrix(1.3400955,0,0,1.3400955,-3.5,-66.5)" />
    <g
       id="Outline_9_">
      <path
         id="Knee_Swirl_1_"
         fill="#272525"
         d="m 35.292,114.213 c 0.346,0.923 0.803,2.719 -0.265,3.379 -1.032,0.641 -1.888,-1.337 -1.377,-2.033 0.184,0.909 0.532,1.652 1.125,1.162 0.82,-0.677 -0.374,-3.546 -1.328,-2.654 -1.841,1.722 0.499,4.711 1.795,4.449 0.396,-0.08 0.788,-0.224 0.857,-1.121 0.119,-1.533 0.02,-3.043 -0.327,-4.391 0.597,1.023 0.999,3.703 0.647,5.209 -0.706,3.02 -3.828,1.23 -4.265,-1.129 -0.433,-2.344 1.784,-6.479 3.138,-2.871 z"
         transform="matrix(1.3400955,0,0,1.3400955,-3.5,-66.5)" />
      <path
         id="ID0.38349081110209227"
         fill="#272525"
         d="m 45.584,125.807 c -0.12,-1.418 -0.904,-3.106 -1.769,-3.985 -0.039,-0.04 -0.078,-0.088 -0.117,-0.124 -2.136,-1.977 -3.971,-4.219 -5.184,-7.363 -0.537,-1.396 -0.999,-3.053 -1.135,-4.675 -0.026,-0.302 -0.061,-0.604 -0.061,-0.903 0.001,-0.719 0.034,-1.645 -0.424,-2.129 -0.05,-0.055 -0.102,-0.105 -0.166,-0.148 -1.312,3.754 -0.233,7.207 1.034,10.494 0.594,1.543 2.164,3.168 3.573,4.849 1.611,1.921 3.012,3.917 2.492,5.956 -0.036,0.138 -0.109,0.256 -0.168,0.381 -0.081,-0.772 -0.245,-1.6 -0.403,-2.274 -0.677,-2.876 -4.273,-2.541 -4.517,1.538 -0.094,1.567 -0.166,2.307 -0.073,2.672 -0.154,0.002 -0.31,-0.007 -0.467,-0.01 0.267,-0.967 0.115,-2.65 -0.067,-3.871 -0.438,-2.956 -4.127,-3.082 -4.729,0.957 -0.147,0.984 -0.257,1.639 -0.302,2.082 -0.735,-0.229 -1.387,-0.497 -1.934,-0.787 -0.451,-0.239 -0.834,-0.492 -1.098,-0.756 -1.148,-1.15 -2.038,-3.241 -2.192,-5.104 -0.32,-3.896 -0.938,-7.842 -0.438,-12.104 0.269,-2.287 2.625,-9.977 1.436,-9.5 -1.25,0.5 -2.282,6.768 -2.282,6.768 l 0.003,0.012 c -0.594,2.39 -0.832,5.186 -0.82,7.367 0.019,3.412 -0.316,7.033 0.736,10.173 0.962,2.871 2.655,4.463 4.655,5.366 2.441,1.104 5.342,1.18 7.947,1.272 2.908,0.101 6.881,-1.229 6.47,-6.154 z m -4.343,-0.426 c 1.145,-0.12 1.124,2.354 1.298,3.921 -0.787,0.442 -1.846,0.685 -3.036,0.761 0.325,-1.165 -0.095,-4.487 1.738,-4.682 z m -7.097,4.158 c 0.448,-1.342 0.692,-4.089 1.982,-4.085 1.308,0.006 0.869,3.062 1.006,4.567 -1.014,-0.083 -2.036,-0.251 -2.988,-0.482 z"
         transform="matrix(1.3400955,0,0,1.3400955,-3.5,-66.5)" />
    </g>
  </g>
  <g
     id="Front_Leg_1"
     transform="translate(-3.0369859,-1.5018092)">
    <path
       id="Fill_4_"
       fill="#8395d4"
       d="m 56.573,127.914 c 0.274,1.689 1.236,3.533 2.367,4.502 2.279,1.949 11.945,2.665 12.568,-0.924 0.615,-3.559 -4.914,-6.502 -6.312,-9.43 -1.393,-2.91 -2.625,-5.987 -1.697,-9.508 0.061,0.033 0.112,0.077 0.162,0.123 -0.66,-1.578 -2.002,-3.227 -4.709,-3.054 -2.685,0.171 -3.396,1.873 -3.577,2.931 v 0.002 c -0.405,4.942 0.414,10.514 1.198,15.358 z"
       transform="matrix(1.3400955,0,0,1.3400955,-3.5,-66.5)" />
    <path
       id="Toenail2"
       fill="#b7cbe7"
       d="m 64.309,129.925 c -1.179,0.089 -1.204,2.614 -1.517,3.871 0.886,0.144 1.831,0.222 2.763,0.229 -0.233,-1.368 -0.051,-4.188 -1.246,-4.1 z"
       transform="matrix(1.3400955,0,0,1.3400955,-3.5,-66.5)" />
    <path
       id="Toenail1"
       fill="#b7cbe7"
       d="m 70.44,132.979 c -0.271,-1.418 -0.429,-3.679 -1.466,-3.486 -1.659,0.309 -1.037,3.314 -1.251,4.398 1.08,-0.155 2.03,-0.452 2.717,-0.912 z"
       transform="matrix(1.3400955,0,0,1.3400955,-3.5,-66.5)" />
    <g
       id="Outline_4_">
      <path
         id="Knee_Swirl"
         fill="#272525"
         d="m 62.741,119.721 c 0.382,0.817 0.928,2.424 0,3.104 -0.896,0.657 -1.819,-1.086 -1.403,-1.759 0.233,0.817 0.605,1.472 1.11,0.979 0.7,-0.676 -0.595,-3.21 -1.402,-2.329 -1.558,1.705 0.793,4.268 1.958,3.936 0.356,-0.103 0.703,-0.26 0.702,-1.086 -0.001,-1.407 -0.2,-2.778 -0.613,-3.984 0.618,0.893 1.177,3.311 0.964,4.71 -0.428,2.808 -3.407,1.399 -3.975,-0.726 -0.563,-2.107 1.165,-6.043 2.659,-2.845 z"
         transform="matrix(1.3400955,0,0,1.3400955,-3.5,-66.5)" />
      <path
         id="Outline_5_"
         fill="#272525"
         d="m 67.504,135.648 c 2.662,-0.112 6.194,-1.611 5.466,-6.08 -0.22,-1.346 -1.125,-2.916 -2.017,-3.617 -0.1,-0.079 -0.196,-0.161 -0.294,-0.241 -1.969,-1.598 -3.697,-3.459 -4.967,-6.11 -0.59,-1.235 -1.13,-2.717 -1.371,-4.188 -0.045,-0.272 -0.099,-0.548 -0.12,-0.819 -0.051,-0.658 -0.087,-1.504 -0.54,-1.914 -0.05,-0.046 -0.101,-0.09 -0.162,-0.123 -0.928,3.521 0.304,6.598 1.697,9.508 0.573,1.199 1.838,2.401 3.091,3.647 1.806,1.796 3.584,3.682 3.221,5.782 -0.022,0.129 -0.081,0.24 -0.126,0.359 -0.13,-0.699 -0.338,-1.442 -0.532,-2.047 -0.824,-2.578 -4.084,-2.016 -4.014,1.728 0.027,1.438 0.014,2.116 0.125,2.444 -0.141,0.013 -0.284,0.018 -0.427,0.024 0.174,-0.901 -0.086,-2.429 -0.339,-3.528 -0.613,-2.668 -3.99,-2.52 -4.25,1.213 -0.063,0.907 -0.117,1.513 -0.126,1.922 -1.247,-0.285 -2.291,-0.695 -2.868,-1.184 -0.003,-0.003 -0.008,-0.005 -0.011,-0.008 -1.131,-0.969 -2.093,-2.812 -2.367,-4.502 -0.784,-4.844 -1.603,-10.416 -1.198,-15.357 0,0 0,0 0,-0.002 -0.094,-0.205 -0.181,-0.641 -0.437,-0.461 -0.938,2.516 -1.051,6.398 -0.818,9.161 0.262,3.115 0.216,6.444 1.402,9.235 0.846,1.992 2.046,3.233 3.429,4.012 2.552,1.436 5.739,1.267 8.553,1.146 z m 1.47,-6.156 c 1.037,-0.192 1.195,2.068 1.466,3.486 -0.687,0.461 -1.637,0.758 -2.717,0.912 0.214,-1.083 -0.408,-4.089 1.251,-4.398 z m -4.665,0.433 c 1.195,-0.088 1.013,2.732 1.246,4.101 -0.932,-0.008 -1.877,-0.086 -2.763,-0.229 0.313,-1.258 0.338,-3.783 1.517,-3.872 z"
         transform="matrix(1.3400955,0,0,1.3400955,-3.5,-66.5)" />
    </g>
  </g>
  <g
     id="Front_Ear"
     transform="translate(-3.0369859,-1.5018092)">
    <g
       id="Outer_Ear">
      <path
         id="Fill_2_"
         fill="#8395d4"
         d="m 68.929,60.504 c -0.364,0.342 -0.349,-0.351 -0.431,-1.143 -0.314,-3.035 -1.836,-6.216 -4.15,-7.198 -2.262,-0.96 -4.459,0.089 -6.021,2.31 -4.241,6.029 -3.282,13.902 -4.577,21.291 0,0.006 10e-4,0.021 10e-4,0.021 l -0.012,0.033 c -0.065,0.365 -0.129,0.73 -0.206,1.095 -0.95,4.496 -3.286,7.392 -4.559,11.433 -0.461,1.461 -0.328,3.945 0.351,5.271 1.375,2.688 4.62,4.396 7.014,3.889 2.832,-0.604 5.207,-4.555 6.751,-7.468 0.018,0.16 0.022,0.317 0.029,0.476 2,-4.753 6.08,-15.242 6.08,-21.738 0,-3.276 -0.12,-6.067 -0.27,-8.272 z"
         transform="matrix(1.3400955,0,0,1.3400955,-3.5,-66.5)" />
      <path
         id="Outline_2_"
         fill="#272525"
         d="m 56.34,97.506 c -2.394,0.508 -5.639,-1.201 -7.014,-3.889 -0.679,-1.326 -0.812,-3.811 -0.351,-5.271 1.273,-4.041 3.609,-6.937 4.559,-11.433 0.077,-0.363 0.141,-0.729 0.206,-1.095 0.003,-0.019 0.007,-0.036 0.01,-0.055 1.294,-7.389 0.335,-15.262 4.577,-21.292 1.562,-2.221 3.759,-3.27 6.021,-2.31 2.314,0.982 3.836,4.163 4.15,7.198 0.082,0.792 0.067,1.485 0.431,1.143 0.074,-0.07 0.159,-0.168 0.27,-0.335 -0.142,-2.077 -0.389,-3.832 -0.831,-5.274 -10e-4,-0.005 -0.004,-0.01 -0.005,-0.016 -0.932,-3.024 -2.737,-4.653 -6.325,-4.872 -3.914,-0.236 -6.462,5.368 -7.657,9.546 -1.634,5.712 -0.564,12.013 -2.104,17.822 -1.211,4.567 -4.753,8.138 -5.524,12.354 -1.604,8.776 7.443,12.305 12.187,8.506 1.993,-1.596 4.31,-4.377 4.18,-7.724 -0.006,-0.157 -0.011,-0.315 -0.029,-0.476 -1.544,2.918 -3.919,6.869 -6.751,7.473 z"
         transform="matrix(1.3400955,0,0,1.3400955,-3.5,-66.5)" />
    </g>
    <g
       id="Inner_Ear">
      <path
         id="Fill_1_"
         fill="#b7cbe7"
         d="m 64.29,70.331 c -1.328,-3.58 1.289,-5.665 0.907,-9.123 -0.198,-1.778 -1.099,-3.733 -2.544,-4.08 -1.74,-0.417 -3.528,1.956 -4.267,3.811 -2.276,5.716 1.009,11.885 -0.351,17.897 -0.572,2.531 -4.039,6.135 -3.449,8.583 0.191,0.794 1.303,1.664 1.899,1.771 4.715,0.854 3.833,-12.053 9.324,-13.586 -0.022,0.061 -0.056,0.105 -0.082,0.162 0.33,-0.386 0.579,-0.8 0.63,-1.323 0.051,-0.518 0.037,-0.926 -0.022,-1.277 -0.481,0.939 -1.912,-2.475 -2.045,-2.835 z"
         transform="matrix(1.3400955,0,0,1.3400955,-3.5,-66.5)" />
      <path
         id="Outline_1_"
         fill="#272525"
         d="m 63.295,55.858 c -1.414,-0.681 -3.474,0.089 -4.559,1.386 -5.513,6.593 0.128,15.669 -1.812,21.132 -1.009,2.84 -7.123,7.915 -2.542,12.008 1.224,1.095 3.412,1.22 4.646,0.115 3.421,-3.063 2.541,-9.515 5.466,-13.124 0.423,-0.523 0.929,-0.948 1.233,-1.609 0.026,-0.057 0.059,-0.103 0.082,-0.162 -5.491,1.533 -4.609,14.44 -9.324,13.586 -0.596,-0.105 -1.708,-0.977 -1.899,-1.771 -0.59,-2.448 2.877,-6.052 3.449,-8.583 1.36,-6.012 -1.925,-12.181 0.351,-17.897 0.739,-1.855 2.527,-4.228 4.267,-3.811 1.445,0.347 2.346,2.302 2.544,4.08 0.382,3.458 -2.235,5.543 -0.907,9.123 0.133,0.36 1.564,3.774 2.045,2.834 0.049,-0.095 0.091,-0.218 0.118,-0.41 -3.765,-5.31 4.482,-13.211 -3.158,-16.897 z"
         transform="matrix(1.3400955,0,0,1.3400955,-3.5,-66.5)" />
    </g>
  </g>
  <g
     id="Tail"
     transform="translate(-1.0369859,-11.501809)">
    <path
       id="Fill"
       fill="#8395d4"
       d="m 27.008,62.518 c -1.615,-0.383 -2.128,0.407 -4.243,0.798 -2.707,0.5 -2.695,-4.566 -6.49,-4.031 -1.441,0.203 -3.655,0.493 -4.65,-0.049 0.411,0.712 1.485,1.235 2.27,1.222 3.442,-0.062 4.532,0.329 6.354,3.547 1.081,1.911 3.293,-0.038 4.296,1.706 -0.023,0.122 -0.12,0.294 -0.248,0.488 4.666,0.107 3.343,-2.673 2.711,-3.681 z"
       transform="matrix(1.3400955,0,0,1.3400955,-6.5,-49.5)" />
    <path
       id="Outline"
       fill="#272525"
       d="m 20.25,64.004 c -1.823,-3.219 -2.912,-3.609 -6.354,-3.547 -0.785,0.014 -1.859,-0.509 -2.27,-1.222 0.995,0.542 3.209,0.252 4.65,0.049 3.795,-0.535 3.783,4.531 6.49,4.031 2.114,-0.391 2.848,-0.798 4.462,-0.415 0.372,0.088 1.338,-0.061 1.66,-0.849 0.178,-0.434 -0.368,-0.99 -0.427,-0.96 -1.847,-1.146 -3.531,0.039 -5.538,0.145 -1.574,0.082 -2.109,-1.819 -3.202,-2.65 -2.729,-2.078 -6.541,0.956 -9.088,-0.665 0.451,-0.768 0.415,-1.911 1.064,-2.361 0.9,-0.624 1.419,-3.392 0.768,-3.423 -1.278,1.257 -2.203,3.262 -2.221,5.488 C 10.225,57.608 10.205,57.599 10.186,57.581 9.923,57.337 9.824,56.939 9.606,56.644 9.311,55.851 7.838,54.423 7.4,55.009 c 0.337,1.13 0.956,2 1.865,2.445 0.048,0.219 0.116,0.44 0.213,0.663 -1.497,0.575 -3.787,3.092 -4.6,3.505 0.392,0.718 1.151,-0.126 1.728,-0.073 1.024,-1.091 2.293,-1.612 3.403,-2.505 0.982,1.405 2.641,2.601 3.753,2.572 5.112,-0.126 6.454,7.387 10.071,5.906 0.877,-0.358 3.621,-0.706 1.085,-2.999 -0.172,-0.153 -3.587,1.392 -4.668,-0.519 z"
       transform="matrix(1.3400955,0,0,1.3400955,-6.5,-49.5)" />
  </g>
  <path
     id="R_Eye"
     fill="#272525"
     d="m 123.4429,23.824215 c -0.1903,-3.35962 -7.08375,1.583992 -6.43246,3.981423 1.16052,-2.246 6.52492,-2.314345 6.43246,-3.981423 z"
     style="stroke-width:1.3401" />
  <g
     id="R_Eyebrow"
     transform="translate(-3.0369859,-1.5018092)">
    <path
       id="ID0.9025702434591949"
       fill="#272525"
       d="m 91.657,68.535 c 1.8,-1.179 3.81,-3.342 5.004,-5.57 -0.397,-0.574 -0.952,-0.67 -1.533,-0.686 -2.589,-0.072 -3.567,4.083 -3.471,6.256 z"
       transform="matrix(1.3400955,0,0,1.3400955,-3.5,-66.5)" />
    <path
       id="ID0.12845947360619903"
       fill="#b7cbe7"
       d="m 92.26,67.336 3.057,-3.865 c -1.618,-0.844 -2.653,2.48 -3.057,3.865 z"
       transform="matrix(1.3400955,0,0,1.3400955,-3.5,-66.5)" />
  </g>
  <path
     id="L_Eye"
     fill="#272525"
     d="m 103.41785,31.687895 c -1.72068,-2.648029 8.99204,-5.878999 9.63261,-3.473528 -2.61721,-0.494495 -8.77629,4.786822 -9.63261,3.473528 z"
     style="stroke-width:1.3401" />
  <g
     id="L_Eyebrow"
     transform="translate(-3.0369859,-1.5018092)">
    <path
       id="ID0.17539279349148273"
       fill="#272525"
       d="m 89.275,69.137 c -2.516,0.301 -7.69,-0.343 -10.111,-1.354 0.124,-0.768 0.711,-1.735 1.316,-2.167 2.693,-1.916 8.93,1.404 8.795,3.521 z"
       transform="matrix(1.3400955,0,0,1.3400955,-3.5,-66.5)" />
    <path
       id="ID0.19790117954835296"
       fill="#b7cbe7"
       d="m 88.248,68.213 -7.191,-0.864 c 1.559,-1.893 6.047,-0.009 7.191,0.864 z"
       transform="matrix(1.3400955,0,0,1.3400955,-3.5,-66.5)" />
  </g>
</svg>
