<?xml version="1.0" encoding="UTF-8" standalone="no"?>
<svg
   version="1.1"
   id="fish3"
   x="0px"
   y="0px"
   width="131.23999"
   height="115.977"
   viewBox="0 0 131.23999 115.977"
   enable-background="new 0 0 150 150"
   xml:space="preserve"
   sodipodi:docname="fish2.svg"
   xmlns:inkscape="http://www.inkscape.org/namespaces/inkscape"
   xmlns:sodipodi="http://sodipodi.sourceforge.net/DTD/sodipodi-0.dtd"
   xmlns="http://www.w3.org/2000/svg"
   xmlns:svg="http://www.w3.org/2000/svg"><defs
   id="defs28" /><sodipodi:namedview
   id="namedview26"
   pagecolor="#ffffff"
   bordercolor="#000000"
   borderopacity="0.25"
   inkscape:showpageshadow="2"
   inkscape:pageopacity="0.0"
   inkscape:pagecheckerboard="0"
   inkscape:deskcolor="#d1d1d1" />
  <g
   id="g23"
   transform="translate(-1.248)">
    <g
   id="Top_Fin">
      <path
   id="Fill"
   fill="#4b79ef"
   d="M 96.253,29.401 C 88.37,27.359 82.052,18.145 80.045,10.789 c -2.734,5.024 -7.063,8.434 -13.807,8.777 0.444,3.904 3.53,9.961 -4.205,18.833 1.77,1.279 5.144,3.473 5.53,7.492 2.359,-3.705 9.458,-11.622 28.69,-16.49 z" />
      <path
   id="Outline_1_"
   fill="#272525"
   d="m 67.563,45.891 c -0.386,-4.019 -3.76,-6.213 -5.53,-7.492 7.735,-8.872 4.649,-14.929 4.205,-18.833 6.744,-0.343 11.073,-3.753 13.807,-8.777 2.007,7.356 8.325,16.57 16.208,18.612 1.196,-0.303 2.442,-0.593 3.734,-0.87 C 93.343,23.877 90.479,22.317 86.17,14.446 84.331,11.087 81.654,3.584 80.867,0 c -0.812,7.385 -9.982,17.46 -17.92,16.274 2.478,6.282 -0.851,18.92 -6.217,22.766 0,0 8.032,3.088 10.302,7.747 0.142,-0.261 0.317,-0.561 0.531,-0.896 z" />
    </g>
    <g
   id="Tail_Fin">
      <path
   id="Fill_2_"
   fill="#39b54a"
   d="M 54.29,70.57 C 32.625,76.75 31.75,49.125 31.75,49.125 c -5.25,7.625 -16.5,5.164 -16.5,5.164 1,11.164 -6.625,18.461 -6.625,18.461 14,3.625 8.625,19.125 8.625,19.125 0.48,0.024 0.964,0.031 1.449,0.022 0.147,-0.002 0.297,-0.015 0.445,-0.021 0.345,-0.013 0.69,-0.025 1.038,-0.054 0.128,-0.01 0.258,-0.027 0.386,-0.04 0.384,-0.037 0.769,-0.076 1.155,-0.131 0.048,-0.007 0.097,-0.017 0.145,-0.023 C 36.526,89.466 52.288,74.984 54.9,72.5 c 0.481,-0.358 0.297,-0.319 1.141,-0.812 -0.167,-0.542 -0.375,-1 -0.625,-1.542 -0.308,0.083 -1.126,0.424 -1.126,0.424 z" />
      <path
   id="Outline_5_"
   fill="#272525"
   d="m 54.9,72.5 c -2.612,2.485 -18.375,16.966 -33.033,19.129 -0.048,0.007 -0.096,0.017 -0.145,0.023 -0.386,0.055 -0.771,0.094 -1.155,0.131 -0.129,0.013 -0.258,0.03 -0.386,0.04 -0.347,0.028 -0.692,0.041 -1.038,0.054 -0.148,0.006 -0.297,0.018 -0.445,0.021 -0.485,0.009 -0.969,0.002 -1.449,-0.022 0,0 5.375,-15.5 -8.625,-19.125 0,0 7.625,-7.297 6.625,-18.461 0,0 11.25,2.461 16.5,-5.164 0,0 0.875,27.625 22.54,21.445 0,0 0.011,-0.018 0.031,-0.052 0.012,-0.02 0.032,-0.054 0.051,-0.085 -0.107,-0.189 -0.24,-0.375 -0.386,-0.558 -0.262,-0.329 -0.58,-0.648 -0.974,-0.952 C 48.482,69.601 44.855,68.78 41.659,66.241 35.49,61.339 33.76,50.213 35.076,41.921 29.609,46.632 23.474,52.27 11.396,50.241 10.9,55.216 14.56,67.357 1.248,73.921 c 15.598,1.435 16.512,11.721 10.331,21.577 17.405,2.107 33.436,-9.73 42.829,-20.43 0.183,-0.522 0.318,-1.043 0.401,-1.559 0.058,-0.34 0.094,-0.677 0.091,-1.009 z" />
    </g>
    <g
   id="Body">
      <path
   id="Green_Fill"
   fill="#39b54a"
   d="m 67.235,56.689 c 0.876,-4.415 3.474,-9.673 6.38,-13.911 -0.013,0.013 -0.026,0.027 -0.038,0.04 -1.548,1.562 -3.107,3.302 -4.638,5.13 -0.013,0.015 -0.025,0.029 -0.037,0.044 C 68.6,48.354 68.299,48.718 68,49.085 l -0.021,0.025 c -4.604,5.646 -8.863,11.913 -11.646,16.208 -0.004,0.007 -0.008,0.013 -0.012,0.02 -4.902,6.86 2.43,14.529 2.829,15.079 0.093,0.128 0.904,1.207 1.217,1.605 0.12,0.152 0.989,1.219 1.304,1.586 0.091,0.106 0.183,0.217 0.274,0.321 0.414,0.473 0.828,0.93 1.243,1.364 0.015,0.016 0.029,0.029 0.044,0.045 0.396,0.413 0.792,0.806 1.188,1.186 0.094,0.09 0.187,0.177 0.281,0.265 0.336,0.316 0.673,0.621 1.01,0.914 0.083,0.072 0.166,0.146 0.249,0.217 0.846,0.722 1.692,1.373 2.536,1.956 0.043,0.03 0.086,0.058 0.129,0.087 0.382,0.262 0.764,0.509 1.145,0.743 0.06,0.037 0.12,0.074 0.18,0.11 1.287,0.778 2.566,1.408 3.832,1.907 0.03,0.013 0.061,0.023 0.09,0.035 0.418,0.163 0.835,0.313 1.25,0.449 0,0 0,0 0.001,0 C 68.456,83.324 63.752,68.828 67.235,56.689 Z" />
      <path
   id="Yellow_Fill"
   fill="#ffdc00"
   d="m 96.887,74.261 c 8.887,-9.239 29.338,-10.677 29.338,-10.677 1.35,-17.041 -4.563,-25.917 -15.295,-30.553 -13.767,-5.947 -27.422,1.719 -32.778,5.723 -0.053,0.04 -0.106,0.085 -0.159,0.125 -7.218,13.129 -8.275,26.114 -7.239,36.467 0.498,6.118 4.185,12.856 6.679,18.487 0.012,0.002 0.023,0.004 0.036,0.007 0.369,0.078 0.737,0.145 1.104,0.203 0.102,0.016 0.202,0.03 0.304,0.045 0.288,0.042 0.575,0.078 0.861,0.109 0.103,0.011 0.205,0.021 0.308,0.031 0.329,0.031 0.656,0.055 0.981,0.07 0.044,0.002 0.089,0.007 0.133,0.009 0.378,0.017 0.753,0.022 1.125,0.021 0.066,0 0.131,-0.003 0.196,-0.004 0.3,-0.004 0.599,-0.014 0.895,-0.029 0.099,-0.005 0.196,-0.011 0.294,-0.017 0.277,-0.019 0.554,-0.041 0.828,-0.067 0.083,-0.009 0.166,-0.016 0.248,-0.024 0.707,-0.077 1.4,-0.184 2.079,-0.315 0.081,-0.016 0.161,-0.033 0.241,-0.05 0.262,-0.053 0.521,-0.109 0.777,-0.17 0.086,-0.021 0.172,-0.04 0.258,-0.062 0.278,-0.068 0.555,-0.141 0.828,-0.217 0.047,-0.013 0.094,-0.025 0.141,-0.038 0.327,-0.093 0.649,-0.19 0.967,-0.293 0.037,-0.013 0.074,-0.025 0.111,-0.037 0.271,-0.089 0.54,-0.182 0.805,-0.276 0.077,-0.028 0.154,-0.057 0.231,-0.085 0.234,-0.086 0.466,-0.175 0.694,-0.265 0.067,-0.027 0.136,-0.054 0.203,-0.081 0.584,-0.235 1.148,-0.483 1.69,-0.739 0.054,-0.025 0.106,-0.051 0.16,-0.076 0.216,-0.104 0.429,-0.208 0.637,-0.313 0.065,-0.032 0.13,-0.065 0.194,-0.099 0.211,-0.107 0.418,-0.216 0.62,-0.325 0.044,-0.023 0.088,-0.047 0.132,-0.07 0.248,-0.135 0.491,-0.271 0.728,-0.406 0.012,-0.007 0.022,-0.013 0.034,-0.02 0.219,-0.126 0.431,-0.251 0.638,-0.376 0.054,-0.033 0.105,-0.064 0.158,-0.098 0.17,-0.104 0.336,-0.207 0.498,-0.309 0.049,-0.031 0.098,-0.062 0.146,-0.093 0.19,-0.122 0.377,-0.243 0.556,-0.362 0.01,-0.006 0.021,-0.013 0.029,-0.019 0.194,-0.13 0.382,-0.258 0.562,-0.383 0.031,-0.021 0.061,-0.043 0.092,-0.064 0.143,-0.1 0.281,-0.198 0.414,-0.294 0.042,-0.03 0.085,-0.062 0.126,-0.092 0.124,-0.09 0.244,-0.179 0.358,-0.265 0.031,-0.023 0.064,-0.048 0.096,-0.07 0.286,-0.216 0.541,-0.416 0.766,-0.596 0.03,-0.023 0.058,-0.046 0.086,-0.069 0.082,-0.065 0.159,-0.129 0.231,-0.189 0.026,-0.021 0.053,-0.043 0.078,-0.063 0.076,-0.064 0.148,-0.125 0.214,-0.181 0.011,-0.009 0.023,-0.02 0.033,-0.028 0.075,-0.064 0.142,-0.122 0.2,-0.173 0.015,-0.014 0.026,-0.023 0.04,-0.036 0.041,-0.036 0.079,-0.07 0.11,-0.098 0.012,-0.012 0.024,-0.022 0.035,-0.032 0.023,-0.021 0.045,-0.041 0.061,-0.056 0.008,-0.007 0.019,-0.017 0.024,-0.021 0.01,-0.01 0.021,-0.021 0.021,-0.021 C 100.195,85.773 88,83.5 96.887,74.261 Z" />
      <path
   id="Outline"
   fill="#272525"
   d="m 99.838,76.57 c 7.305,-8.248 29.85,-10.128 30.354,-10.697 -0.084,-8.115 -1.785,-18.115 -6.215,-25.051 -8.855,-13.86 -27.466,-17.809 -45.623,-5.943 -8.717,5.696 -20.397,22.348 -25.962,33.281 0,0 -2.579,3.322 0.64,7.965 11.694,16.871 27.709,30.769 47.082,15.805 2.375,-1.835 5.729,-4.42 6.582,-7.404 -4.587,0.19 -12.024,-2.121 -6.858,-7.956 z M 75.124,93.208 c -0.415,-0.136 -0.832,-0.286 -1.25,-0.449 -0.03,-0.012 -0.06,-0.022 -0.09,-0.035 -1.266,-0.499 -2.545,-1.129 -3.832,-1.907 -0.06,-0.036 -0.12,-0.073 -0.18,-0.11 -0.381,-0.234 -0.763,-0.481 -1.145,-0.743 -0.043,-0.029 -0.086,-0.057 -0.129,-0.087 -0.844,-0.583 -1.69,-1.234 -2.536,-1.956 C 65.879,87.85 65.796,87.776 65.713,87.704 65.377,87.411 65.04,87.106 64.703,86.79 64.609,86.702 64.515,86.615 64.422,86.525 64.026,86.145 63.63,85.753 63.234,85.339 63.219,85.323 63.205,85.31 63.19,85.294 62.775,84.859 62.36,84.402 61.947,83.93 c -0.092,-0.104 -0.183,-0.215 -0.274,-0.321 -0.315,-0.367 -1.184,-1.434 -1.304,-1.586 -0.313,-0.398 -1.125,-1.478 -1.217,-1.605 -0.399,-0.55 -7.731,-8.219 -2.829,-15.079 0.004,-0.006 0.008,-0.013 0.012,-0.02 2.783,-4.296 7.042,-10.562 11.646,-16.208 L 68,49.085 c 0.299,-0.367 0.6,-0.731 0.902,-1.092 0.012,-0.015 0.024,-0.03 0.037,-0.044 1.53,-1.828 3.09,-3.568 4.638,-5.13 0.012,-0.013 0.025,-0.026 0.038,-0.04 -2.906,4.238 -5.503,9.496 -6.38,13.911 -3.483,12.138 1.221,26.634 7.889,36.518 0,0 0,0 0,0 z m 26.702,-6.926 c -0.007,0.006 -0.013,0.012 -0.024,0.021 -0.016,0.015 -0.037,0.034 -0.061,0.056 -0.012,0.011 -0.021,0.02 -0.035,0.032 -0.031,0.027 -0.069,0.062 -0.11,0.098 -0.014,0.013 -0.025,0.022 -0.04,0.036 -0.059,0.051 -0.125,0.108 -0.2,0.173 -0.011,0.009 -0.022,0.02 -0.033,0.028 -0.065,0.056 -0.138,0.116 -0.214,0.181 -0.025,0.021 -0.052,0.042 -0.078,0.063 -0.072,0.061 -0.149,0.124 -0.231,0.189 -0.028,0.023 -0.056,0.045 -0.086,0.069 -0.225,0.18 -0.479,0.38 -0.766,0.596 -0.031,0.023 -0.063,0.047 -0.096,0.07 -0.114,0.086 -0.234,0.175 -0.358,0.265 -0.042,0.03 -0.083,0.061 -0.126,0.092 -0.133,0.096 -0.271,0.194 -0.414,0.294 -0.031,0.021 -0.061,0.043 -0.092,0.064 -0.18,0.125 -0.367,0.253 -0.562,0.383 -0.009,0.006 -0.02,0.013 -0.029,0.019 -0.179,0.119 -0.365,0.24 -0.556,0.362 -0.048,0.031 -0.097,0.062 -0.146,0.093 -0.162,0.102 -0.328,0.205 -0.498,0.309 -0.053,0.033 -0.104,0.064 -0.158,0.098 -0.207,0.125 -0.419,0.25 -0.638,0.376 -0.012,0.007 -0.022,0.013 -0.034,0.02 -0.236,0.136 -0.479,0.271 -0.728,0.406 l -0.132,0.07 c -0.202,0.109 -0.409,0.218 -0.62,0.325 -0.064,0.033 -0.129,0.066 -0.194,0.099 -0.208,0.105 -0.421,0.21 -0.637,0.313 -0.054,0.025 -0.106,0.051 -0.16,0.076 -0.542,0.256 -1.106,0.504 -1.69,0.739 -0.067,0.027 -0.136,0.054 -0.203,0.081 -0.229,0.09 -0.46,0.179 -0.694,0.265 -0.077,0.028 -0.153,0.057 -0.231,0.085 -0.265,0.095 -0.533,0.188 -0.805,0.276 -0.037,0.012 -0.074,0.024 -0.111,0.037 -0.317,0.103 -0.64,0.2 -0.967,0.293 l -0.141,0.038 c -0.273,0.076 -0.55,0.148 -0.828,0.217 -0.086,0.021 -0.172,0.041 -0.258,0.062 -0.257,0.061 -0.516,0.117 -0.777,0.17 -0.081,0.017 -0.16,0.034 -0.241,0.05 -0.679,0.132 -1.372,0.238 -2.079,0.315 -0.082,0.009 -0.165,0.016 -0.248,0.024 -0.274,0.026 -0.551,0.049 -0.828,0.067 -0.098,0.006 -0.195,0.012 -0.294,0.017 -0.296,0.016 -0.595,0.025 -0.895,0.029 -0.065,0.001 -0.13,0.004 -0.196,0.004 -0.372,0.002 -0.747,-0.004 -1.125,-0.021 -0.044,-0.002 -0.089,-0.007 -0.133,-0.009 -0.325,-0.016 -0.652,-0.039 -0.981,-0.07 -0.103,-0.01 -0.205,-0.021 -0.308,-0.031 -0.286,-0.031 -0.573,-0.067 -0.861,-0.109 -0.102,-0.015 -0.202,-0.029 -0.304,-0.045 -0.366,-0.059 -0.734,-0.125 -1.104,-0.203 -0.013,-0.003 -0.024,-0.004 -0.036,-0.007 -2.494,-5.631 -6.181,-12.369 -6.679,-18.487 -1.036,-10.353 0.021,-23.338 7.239,-36.467 0.053,-0.04 0.106,-0.085 0.159,-0.125 5.356,-4.004 19.012,-11.67 32.778,-5.723 10.731,4.636 16.645,13.512 15.295,30.553 0,0 -20.451,1.438 -29.338,10.677 -8.887,9.239 3.309,11.512 4.961,12 0.001,0.002 -0.011,0.012 -0.021,0.022 z" />
    </g>
    <g
   id="Little_Fin">
      <path
   id="Fill_1_"
   fill="#4b79ef"
   d="m 62.043,94.898 c 1.585,2.17 1.141,5.588 -0.366,7.68 5.219,1.664 6.378,4.584 7.749,9.691 5.359,-1.773 10.82,-16.183 9.932,-21.526 -4.336,3.409 -11.984,5.37 -17.315,4.155 z" />
      <path
   id="Outline_4_"
   fill="#272525"
   d="m 83.107,87.268 c -0.192,-0.965 -1.114,-2.849 -2.194,-2.012 -7.716,5.985 -12.06,8.499 -25.234,4.391 1.606,3.748 5.176,6.051 0.915,14.445 9.288,2.807 10.66,6.692 12.251,11.885 9.38,-5.288 16.452,-17.789 14.262,-28.709 z M 69.426,112.27 c -1.371,-5.107 -2.53,-8.027 -7.749,-9.691 1.507,-2.092 1.951,-5.51 0.366,-7.68 5.331,1.215 12.979,-0.746 17.314,-4.155 0.889,5.343 -4.572,19.752 -9.931,21.526 z" />
    </g>
    <g
   id="L_Eye">
      <path
   id="White_1_"
   fill="#ffffff"
   d="m 84.609,55.876 c 2.703,3.923 14.762,2.812 13.832,-2.483 -1.064,-6.081 -17.514,-2.863 -13.832,2.483 z" />
      <ellipse
   id="Pupil_1_"
   fill="#272525"
   cx="96.163002"
   cy="54.047001"
   rx="3.2060001"
   ry="3.7079999" />
      <path
   id="Outline_3_"
   fill="#272525"
   d="m 80.896,53.681 c -3.176,10.097 20.17,10.223 20.392,-0.115 0.164,-7.651 -17.493,-9.093 -20.392,0.115 z m 3.713,2.195 c -3.683,-5.346 12.768,-8.564 13.832,-2.483 0.93,5.295 -11.129,6.406 -13.832,2.483 z" />
    </g>
    <g
   id="R_Eye">
      <path
   id="White"
   fill="#ffffff"
   d="m 119.43,54.02 c 2.078,3.081 11.354,2.209 10.641,-1.951 -0.821,-4.776 -13.473,-2.248 -10.641,1.951 z" />
      <ellipse
   id="Pupil"
   fill="#272525"
   cx="128.64799"
   cy="52.691002"
   rx="2.5369999"
   ry="2.9360001" />
      <path
   id="Outline_2_"
   fill="#272525"
   d="m 115.139,52.532 c -2.703,8.59 17.159,8.696 17.348,-0.099 0.141,-6.51 -14.883,-7.737 -17.348,0.099 z m 4.291,1.488 c -2.832,-4.199 9.82,-6.727 10.641,-1.951 0.713,4.16 -8.563,5.032 -10.641,1.951 z" />
    </g>
  </g>
</svg>
