<?xml version="1.0" encoding="UTF-8" standalone="no"?>
<svg
   version="1.1"
   id="fish2"
   x="0px"
   y="0px"
   width="137.00085"
   height="107.52938"
   viewBox="0 0 137.00085 107.52938"
   enable-background="new 0 0 150 150"
   xml:space="preserve"
   sodipodi:docname="fish1.svg"
   xmlns:inkscape="http://www.inkscape.org/namespaces/inkscape"
   xmlns:sodipodi="http://sodipodi.sourceforge.net/DTD/sodipodi-0.dtd"
   xmlns="http://www.w3.org/2000/svg"
   xmlns:svg="http://www.w3.org/2000/svg"><defs
   id="defs27" /><sodipodi:namedview
   id="namedview25"
   pagecolor="#ffffff"
   bordercolor="#000000"
   borderopacity="0.25"
   inkscape:showpageshadow="2"
   inkscape:pageopacity="0.0"
   inkscape:pagecheckerboard="0"
   inkscape:deskcolor="#d1d1d1" />
  <g
   id="g22"
   transform="translate(-5.9999964,-21.000126)">
    <g
   id="Tail_Fin">
      <path
   id="Fill_3_"
   fill="#2b8e91"
   d="m 28.727,76.568 c 0,0 -15.524,-4.396 -17.344,3.093 -1.982,8.153 12.587,9.703 14.867,10.935 -1.078,2.619 -9.713,10.657 -5.527,14.246 3.44,2.949 8.654,-1.666 9.815,-1.767 -0.658,4.026 -1.496,7.972 -0.191,12.368 0.59,1.988 2.009,3.351 3.906,3.203 5.907,-0.461 9.847,-11.244 11.149,-16.896 1.87,-8.111 1.907,-18.908 0.287,-27.06 C 39.759,44.863 17.867,48.4 28.727,76.568 Z" />
      <path
   id="Outline_3_"
   fill="#272525"
   d="M 37.875,50.834 C 34.896,47.621 28.934,45.43 25.106,48.184 17.773,53.46 21.777,69.924 21.198,71.488 5.433,70.651 -1.441,84.279 17.292,94.239 c -5.299,8.633 -1.57,17.304 7.528,17.782 -0.824,19.16 22.228,22.278 25.444,-14.58 C 51.761,80.264 49.217,63.063 37.875,50.834 Z m 7.527,50.916 c -1.302,5.652 -5.242,16.436 -11.149,16.896 -1.897,0.146 -3.316,-1.215 -3.906,-3.203 -1.305,-4.396 -0.467,-8.342 0.191,-12.368 -1.161,0.101 -6.375,4.716 -9.815,1.767 C 16.537,101.253 25.172,93.215 26.25,90.596 23.97,89.366 9.401,87.815 11.383,79.661 13.203,72.172 28.727,76.568 28.727,76.568 17.867,48.4 39.759,44.863 45.689,74.69 c 1.62,8.152 1.583,18.949 -0.287,27.06 z" />
    </g>
    <g
   id="Top_Fin">
      <path
   id="Fill"
   fill="#2b8e91"
   d="M 103.578,52.497 C 103.782,45.398 101.549,25.04 94.917,26.785 88.284,28.53 91.954,45.649 91.954,45.649 89.08,39.763 83.92,26.366 76.573,30.099 c -7.348,3.733 -1.73,14.993 0.036,21.404 -2.419,-0.972 -9.366,-4.452 -11.566,1.899 -1.146,3.31 2.131,10.71 3.43,13.696 9.881,-8.18 23.129,-13.311 35.105,-14.601 z" />
      <path
   id="Outline"
   fill="#272525"
   d="m 68.443,67.03 c -1.467,-3.401 -4.434,-10.645 -3.4,-13.628 2.2,-6.351 9.147,-2.871 11.566,-1.899 -1.768,-6.411 -7.384,-17.671 -0.036,-21.404 7.347,-3.733 12.507,9.664 15.381,15.55 0,0 -3.67,-17.119 2.963,-18.864 6.364,-1.675 8.665,17.927 8.661,25.712 1.459,-0.163 2.921,-0.148 4.386,-0.182 0.034,-8.094 -1.792,-21.024 -6.196,-27.099 -2.246,-3.096 -6.793,-5.535 -10.101,-3.423 -2.655,1.698 -3.243,4.798 -3.905,7.951 C 85.149,24.852 79.34,22.1 74.514,24.996 68.58,28.558 67.043,37.001 69.75,44.876 66.567,42.524 63.471,42.8 61.078,45.649 c -3.523,4.197 1.662,15.78 4.943,23.09 0.791,-0.6 1.664,-1.065 2.422,-1.709 z" />
    </g>
    <g
   id="Body">
      <path
   id="Fill_1_"
   fill="#bc8eff"
   d="m 88.247,59.747 c -12.782,5.198 -28.244,18.66 -35.497,26.782 10.938,13.727 30.613,36.722 52.887,29.406 4.236,-1.392 10.121,-8.822 10.329,-14.076 -9.024,0.026 -16.29,-0.479 -24.489,-5.521 20.235,2.893 35.318,0.616 43.7,-8.704 3.63,-4.032 4.171,-12.223 2.384,-17.671 C 131.748,52.244 100.023,54.958 88.247,59.747 Z" />
      <path
   id="Outline_1_"
   fill="#272525"
   d="M 139.218,64.75 C 134.916,56.872 120.375,52.5 109.75,51.497 109.69,51.492 88.5,49.125 66.091,67.892 58.796,74.001 50.725,81.144 47.032,86.941 c 5.122,6.904 21.338,21.871 23.942,24.16 13.512,11.879 34.374,16.53 45.85,0.586 2.699,-3.75 3.345,-6.385 3.716,-10.822 15.722,-3.676 29.321,-16.631 18.678,-36.115 z m -4.041,22.884 c -8.382,9.32 -23.465,11.597 -43.7,8.704 8.199,5.042 15.465,5.549 24.489,5.521 -0.208,5.254 -6.093,12.686 -10.329,14.076 -22.272,7.314 -41.949,-15.681 -52.887,-29.406 7.253,-8.122 22.715,-21.584 35.497,-26.782 11.776,-4.789 43.501,-7.503 49.313,10.216 1.788,5.448 1.247,13.639 -2.383,17.671 z" />
    </g>
    <g
   id="Little_Fin">
      <path
   id="Fill_2_"
   fill="#2b8e91"
   d="m 64.356,123.951 c 10.905,2.753 16.576,-12.044 17.876,-20.158 -8.399,3.309 -15.898,10.214 -17.876,20.158 z" />
      <path
   id="Outline_2_"
   fill="#272525"
   d="m 83.566,101.143 c -11.638,0.297 -22.308,12.442 -21.727,25.953 16.97,7.645 23.668,-17.371 21.727,-25.953 z m -19.21,22.808 c 1.978,-9.944 9.477,-16.85 17.876,-20.158 -1.3,8.114 -6.971,22.911 -17.876,20.158 z" />
    </g>
    <g
   id="L_Eye">
      <path
   id="White_1_"
   fill="#ffffff"
   d="m 86.665,82.311 c 4.79,4.325 18.201,-1.199 14.864,-7.953 -3.828,-7.751 -21.392,2.059 -14.864,7.953 z" />
      <ellipse
   id="Pupil_1_"
   fill="#272525"
   cx="99.323997"
   cy="76.452003"
   rx="3.2160001"
   ry="3.7279999" />
      <path
   id="Outline_5_"
   fill="#272525"
   d="m 105.562,72.879 c -3.07,-10.225 -24.377,-6.114 -23.849,7.113 0.585,14.503 27.996,6.697 23.849,-7.113 z m -18.897,9.432 c -6.528,-5.894 11.036,-15.704 14.864,-7.953 3.337,6.753 -10.074,12.278 -14.864,7.953 z" />
    </g>
    <g
   id="R_Eye">
      <path
   id="White"
   fill="#ffffff"
   d="m 122.402,76.023 c 1.309,4.795 10.867,5.881 11.209,-0.072 0.391,-6.836 -12.991,-6.464 -11.209,0.072 z" />
      <ellipse
   id="Pupil"
   fill="#272525"
   cx="132.08099"
   cy="75.209"
   rx="2.382"
   ry="2.7609999" />
      <path
   id="Outline_4_"
   fill="#272525"
   d="m 119.137,73.114 c -4.516,10.36 13.857,15.028 16.09,3.834 1.656,-8.286 -11.972,-13.282 -16.09,-3.834 z m 3.265,2.909 c -1.782,-6.538 11.6,-6.908 11.209,-0.072 -0.341,5.953 -9.9,4.867 -11.209,0.072 z" />
    </g>
  </g>
</svg>
