<?xml version="1.0" encoding="UTF-8" standalone="no"?>
<svg
   id="Layer_1"
   version="1.1"
   viewBox="0 0 181.9469 328.13492"
   sodipodi:docname="Flower_Blooming6.svg"
   width="181.9469"
   height="328.13492"
   xmlns:inkscape="http://www.inkscape.org/namespaces/inkscape"
   xmlns:sodipodi="http://sodipodi.sourceforge.net/DTD/sodipodi-0.dtd"
   xmlns="http://www.w3.org/2000/svg"
   xmlns:svg="http://www.w3.org/2000/svg">
  <sodipodi:namedview
     id="namedview109"
     pagecolor="#ffffff"
     bordercolor="#000000"
     borderopacity="0.25"
     inkscape:showpageshadow="2"
     inkscape:pageopacity="0.0"
     inkscape:pagecheckerboard="0"
     inkscape:deskcolor="#d1d1d1" />
  <!-- Generator: Adobe Illustrator 29.8.3, SVG Export Plug-In . SVG Version: 2.1.1 Build 3)  -->
  <defs
     id="defs4">
    <style
       id="style2">
      .st0 {
        fill: #3f2542;
      }

      .st1 {
        fill: #f5d64f;
      }

      .st2 {
        fill: #09050a;
      }

      .st3 {
        fill: #f9da50;
      }

      .st4 {
        fill: #f58ffe;
      }

      .st5 {
        fill: #f8d950;
      }

      .st6 {
        fill: #fcfcfc;
      }

      .st7 {
        fill: #1d8b00;
      }

      .st8 {
        fill: #24b000;
      }

      .st9 {
        fill: #25b100;
      }

      .st10 {
        fill: #f7d84f;
      }

      .st11 {
        fill: #f4d54e;
      }

      .st12 {
        fill: #5c3660;
      }

      .st13 {
        fill: #271728;
      }

      .st14 {
        fill: #24af00;
      }

      .st15 {
        fill: #1e8d00;
      }

      .st16 {
        fill: #190f1a;
      }

      .st17 {
        fill: #1e8e00;
      }

      .st18 {
        fill: #f6d74f;
      }

      .st19 {
        fill: #f1d24d;
      }

      .st20 {
        fill: #1e8c00;
      }

      .st21 {
        fill: #24ae00;
      }

      .st22 {
        fill: #ebcb52;
      }

      .st23 {
        fill: #dd87d6;
      }

      .st24 {
        fill: #fadb50;
      }

      .st25 {
        fill: #fadb51;
      }

      .st26 {
        fill: #3d243f;
      }
    </style>
  </defs>
  <path
     d="m 138.32,13.164933 v 3.6 c -1.44,9.97 -4.73,17.92 -10.8,25.91 10.41,-1.13 22.78,-3.84 30.95,4.69 2.15,2.24 4.86,4.12 5.77,13.31 1.9,17.01 -18.9,24.74 -28.43,25.76 -3.65,0.39 -9.21,-0.46 -9.39,0.26 24.62,20.909997 1.21,48.989997 -23.37,36.619997 -0.21,1.69 -0.69,3.37 -1.44,5.04 -0.11,5.5 0.03,11.05 0,16.56 l -0.72,7.2 c -0.01,1.68 0,3.36 0,5.04 -0.47,6.73 -0.71,13.69 -0.72,20.88 0.03,1.33 -0.34,3.23 0.36,4.32 3.27,-3.79 5.56,-6.66 9.72,-9.36 16.96,-10.97 44.47,-8.69 55.6,-4.84 5.67,1.96 13.19,9.27 15.56,14.67 2.97,6.76 -7.12,16.01 -12.18,19.99 -16.32,12.83 -36.06,17.34 -55.53,8.85 -4.74,-2.07 -8.83,-5.59 -13.53,-7.71 4.22,28.22 5.64,56.77 5.07,85.35 l -3.63,32.72 c 1.8,-0.43 11.55,1.32 12.13,2.27 0.27,0.43 0.26,3.17 0.04,3.44 -1.18,1.41 -10.29,-1.36 -12.54,-1.37 -2.41,0 -6.06,1.49 -8.47,1.28 -3.11,-0.28 -6.1,-3.4 -10.25,-3.5 -3.23,-0.08 -10.98,4 -11.74,0.31 -0.63,-3.05 6.94,-4.42 9.18,-4.97 2.24,-0.55 5.46,0.53 5.8,-2.12 1.26,-22.73 2.15,-45.63 1.47,-68.43 -0.18,-6.03 -0.31,-12.64 -0.76,-18.68 -0.69,-9.25 -2.8,-18.49 -3.59,-27.73 -14.68,1.34 -28.2,5.79 -42.79,1.4 -7.17,-2.16 -18.94,-8.64 -23.81,-14.35 -4.8,-5.63 -6.68,-13.09 -10.56,-18.96 -1.49,-2.25 -4.05,-4 -4.91,-6.25 -0.51,-1.19 -0.53,-2.4 0,-3.6 0.25,-0.58 0.06,-0.99 0.74,-1.75 8.94,-9.99 24.84,-17.74 34.54,-17.69 19.25,0.1 37.46,13.48 49.68,29.52 v -30.24 c 0,-1.44 0.01,-2.88 0,-4.32 l -0.72,-5.76 c -0.01,-1.2 0.02,-2.4 0,-3.6 -0.14,-1.97 -0.38,-3.17 -0.72,-3.6 -8.2,4 -9.78,5.39 -19.44,6.48 h -5.76 c -9.39,-1.39 -10.98,-3.9 -12.24,-12.96 -1.39,-10.01 5.88,-17.839997 8.94,-24.269997 0.56,-1.17 -0.43,-2.48 -1.71,-2.28 -1.88,0.29 -3.89,0.75 -5.06,0.63 -1.78,-0.04 -3.62,0.11 -5.39,-0.01 -22.5,-1.6 -27.59,-28.34 -16.23,-35.65 8.12,-5.22 17.95,-5.61 23.06,-5.39 -4.61,-5.1 -8.23,-16.63 -7.2,-22.31 1.23,-6.76 2.74,-10.39 9.36,-13.32 13.11,-5.7900001 27.54,1.03 34.57,12.59 0.98,0.19 1.35,0.24 1.64,-0.39 0.88,-1.95 10.3,-25.1700001 24.27,-26.24000007 11.22,-0.86 22.41,0.54 25.2,12.96000007 z"
     id="path6" />
  <g
     id="g106"
     transform="translate(-15.46,-15.615067)">
    <path
       class="st6"
       d="m 16.26,179.98 c -0.18,-0.47 -0.8,-0.71 -0.8,-1.8 0,-1.09 0.59,-1.3 0.8,-1.8 z"
       id="path8" />
    <g
       id="g104">
      <g
         id="g62">
        <path
           class="st4"
           d="m 129.39,92.76 c -1.84,-2.87 1.9,-6.42 2.95,-8.74 0.47,-1.04 0.46,-3.25 0.58,-3.37 0.65,-0.65 15.89,-0.53 18.32,-0.76 2.57,-0.24 6.2,-0.8 8.7,-1.41 1.22,-0.3 2.1,0.71 1.75,-1.45 -9.95,-0.06 -19.94,-0.25 -29.77,1.49 -1.45,-3.4 -3.71,-4.25 -6.23,-6.53 8.92,-3.88 19.37,-6.22 29.12,-6.52 6.62,-0.21 11.73,0.07 15.19,6.48 8.63,15.94 -14.94,24.72 -27.3,23.7 -1.62,-0.13 -12.94,-2.3 -13.31,-2.88 v 0 z"
           id="path10" />
        <path
           class="st4"
           d="m 118.5,61.9 c -1.02,-0.51 -1.02,-1.71 0,-3.6 3.08,-7.22 6.11,-12.12 10.08,-18.72 0.18,-1.68 0.44,-3.62 2.16,-4.32 l -0.72,-0.72 c 0.07,1.86 -1.37,3.33 -2.88,4.32 -0.85,1.22 -2.01,2.22 -3,3.84 -3.65,5.94 -5.83,12.6 -9.07,18.29 -0.3,0.52 0.1,1.34 -1.17,0.85 -0.97,-0.37 -2.81,-2.04 -4.09,-2.57 1.6,-11.72 1.19,-24.47 12.36,-31.5 5.28,-3.32 10.67,-4.05 16.87,-3.32 12.4,1.47 3.64,19.47 -0.51,25.44 -2.32,3.34 -11.68,13.76 -15.49,14.06 -0.26,0.02 -2.95,-1.61 -4.54,-2.05 z"
           id="path12" />
        <path
           class="st4"
           d="m 96.18,105.82 c -1.44,4.08 -4.51,8.68 -7.2,12.24 -0.02,0.55 0.21,0.8 0.72,0.72 1.6,-4.39 4.05,-9.7 7.92,-12.24 1.92,0.12 4.44,-1.57 5.33,-1.35 0.36,0.09 4.62,5.26 4.61,5.89 -0.04,3.84 -10.6,19.59 -14.02,21.98 -4.73,3.3 -20.53,8.02 -22.8,0.72 -2.48,-7.97 1.87,-18.85 8.22,-23.94 4.03,-3.23 10.21,-4.47 12.19,-9.06 1.23,0.28 1.14,2.13 2.13,3.26 0.71,0.81 1.9,1.37 2.9,1.77 v 0 z"
           id="path14" />
        <path
           class="st4"
           d="m 55.14,84.95 c 0.27,1.31 1.42,1.34 2.49,1.46 9,1.01 18.17,-1.19 27.03,-2.19 -0.32,3.66 0.07,7.12 2.84,9.76 1.07,1.02 5.07,1.94 3.63,3.92 -0.1,0.14 -1.73,-1.38 -3.22,-1.51 -3.41,-0.3 -12.07,2.11 -16.54,2.26 -9.95,0.33 -26.29,-0.71 -27.44,-13.68 -0.57,-6.4 8.37,-10.29 13.73,-10.82 5.36,-0.53 22.12,0.26 25.87,4.35 0.86,0.94 1.56,2.31 -0.06,2.74 l -28.34,3.71 z"
           id="path16" />
        <path
           class="st4"
           d="m 119.22,105.82 c 1.18,-0.73 1.95,-1.51 2.16,-2.88 0.89,-1.41 0.38,-4.08 3.62,-3.16 4.82,1.35 17.12,12.48 19.57,17.06 7.25,13.52 -8.14,19.25 -18.88,16 -3.95,-1.2 -10.06,-6.69 -10.75,-10.85 -0.24,-1.44 0.39,-10.91 0.79,-12.09 0.09,-0.26 2.62,-2.81 3.49,-4.07 v 0 z"
           id="path18" />
        <path
           class="st4"
           d="m 76.74,45.34 c 3.85,7.15 8.65,13.44 13.67,19.81 -2.39,-0.33 -5.33,3.73 -6.22,3.88 -0.79,0.14 -7.81,-5.05 -8.91,-6.04 -7.73,-6.93 -15.05,-23.52 -0.04,-26.69 10.52,-2.22 24.81,9.61 24.58,20.23 -0.03,1.34 -6.14,4.07 -5.1,7.53 -6.26,-6.35 -10.24,-13.6 -17.27,-19.44 -0.53,-0.07 -0.77,0.17 -0.72,0.72 z"
           id="path20" />
        <path
           class="st16"
           d="m 121.38,102.94 c 0.63,3.55 4.58,6.45 6.78,9.42 1.36,1.85 9.3,13.12 8.34,14.33 -1.04,1.31 -1.6,-1.01 -1.85,-1.36 -4.23,-5.73 -7.71,-12.42 -12.55,-17.71 -0.85,-0.93 -1.44,-1.79 -2.87,-1.81 0.64,-0.92 1.4,-1.67 2.16,-2.88 v 0 z"
           id="path22" />
        <path
           class="st3"
           d="m 119.76,74.32 c 2.03,2.06 -0.12,7.92 -2.24,8.4 -3.04,0.69 -5.39,-1.98 -5.52,-2.18 -1.52,-2.39 4.72,-9.3 7.76,-6.22 z"
           id="path24" />
        <path
           class="st25"
           d="m 100.86,91.43 c 8.02,2.67 -2.75,13.28 -4.54,7.4 -1.35,-4.44 1.13,-8.54 4.54,-7.4 z"
           id="path26" />
        <path
           class="st24"
           d="m 107.63,79.56 c -0.95,5.79 -9.64,9.23 -7.9,0.37 1.03,-5.23 7.84,-5.53 7.9,-0.37 z"
           id="path28" />
        <path
           class="st3"
           d="m 88.66,77.27 c -2.41,-4.48 4.35,-9.82 6.89,-5.76 0.47,0.75 1.52,3.4 -1.82,5.41 -2.98,1.79 -3.38,1.14 -5.07,0.35 z"
           id="path30" />
        <path
           class="st10"
           d="m 113.92,104.12 c -2.92,2.59 -4.98,1.39 -5.29,-2.38 -0.41,-4.93 12.22,-3.76 5.29,2.38 z"
           id="path32" />
        <path
           class="st18"
           d="m 113.98,91.23 c -0.91,0.99 -4.94,2.41 -5.97,0.95 -0.91,-1.29 -1.35,-4.76 1.83,-6.22 2.16,-0.99 7.5,1.59 4.14,5.27 z"
           id="path34" />
        <path
           class="st3"
           d="m 106.41,68.95 c -0.53,-0.92 0.08,-4.71 1.04,-4.94 4.55,-1.06 8.79,6.3 2.71,6.53 -0.82,0.03 -3.48,-1.13 -3.74,-1.59 z"
           id="path36" />
        <path
           class="st19"
           d="m 95.45,84.22 c 2.2,1.67 -3.91,10.76 -5.59,3.8 -1.15,-4.74 0.59,-4.74 2.19,-5 0.9,-0.14 2.82,0.76 3.41,1.2 z"
           id="path38" />
        <path
           class="st5"
           d="m 120.67,87.82 c 0.38,-0.26 2.48,0.63 2.88,1.07 4,4.53 -6.62,12.77 -2.88,-1.07 z"
           id="path40" />
        <path
           class="st13"
           d="m 97.62,106.54 c -2.88,3.93 -5.42,8.07 -7.92,12.24 -0.96,0.95 -1.26,0.54 -0.72,-0.72 2.15,-4.22 4.02,-8.56 7.2,-12.24 0.44,0.18 1.11,0.7 1.44,0.72 z"
           id="path42" />
        <path
           class="st11"
           d="m 101.95,70.2 c -5.19,2.57 -7.67,-8.16 0.65,-7.2 3.36,0.39 -0.13,6.94 -0.65,7.2 z"
           id="path44" />
        <path
           class="st1"
           d="m 124.25,83.49 c -0.23,-0.3 1.51,-4.87 1.8,-5.75 1.79,0.97 2.99,6.57 0.14,6.38 -0.12,0 -1.88,-0.55 -1.94,-0.63 z"
           id="path46" />
        <path
           class="st2"
           d="m 130.74,35.26 c -0.82,1.79 -1.08,2.52 -2.16,4.32 0.12,-1.92 0.03,-1.64 -1.44,-0.72 0.95,-1.36 1.58,-2.83 2.88,-4.32 1.01,-0.95 1.38,-0.55 0.72,0.72 z"
           id="path48" />
        <path
           class="st23"
           d="m 121.38,67.66 -5.04,-2.16 c -0.06,-0.46 0.02,-0.97 0,-1.44 0.76,-0.66 5.05,2.44 5.04,3.6 z"
           id="path50" />
        <path
           class="st2"
           d="m 118.5,61.9 c -1.01,-0.28 -1.63,0.68 -1.45,-1.08 0.16,-1.56 1.18,-1.89 1.45,-2.52 z"
           id="path52" />
        <path
           class="st26"
           d="m 77.46,44.62 -0.72,0.72 c -0.2,-0.38 -1.76,-1.9 -1.44,-2.15 1.55,-0.48 1.54,0.92 2.16,1.43 z"
           id="path54" />
        <path
           class="st12"
           d="m 130.74,35.26 -0.72,-0.72 c 0.62,-0.71 1.04,-1.96 2.15,-2.16 0.47,1.43 -1.05,2.06 -1.43,2.88 z"
           id="path56" />
        <path
           class="st0"
           d="m 89.7,118.78 c -0.43,0.72 -2.92,7.14 -4.32,5.75 0.77,-2.29 2.57,-4.45 3.6,-6.47 z"
           id="path58" />
        <path
           class="st22"
           d="m 121.52,67.88 c -0.03,1.99 -6.78,2.09 -6.26,-2.48 -0.55,-4.13 8.1,0.23 6.26,2.48 z"
           id="path60" />
      </g>
      <g
         id="g102">
        <path
           class="st15"
           d="m 87.54,197.26 c 1.92,1.12 3.85,1.88 5.7,3.3 2,1.54 5.76,6.5 7.66,6.8 5.11,0.79 3.02,-4.51 3.27,-4.94 0.2,-0.34 2.81,-0.85 3.38,-2.79 -0.23,-15.75 0.82,-31.67 0.18,-47.4 -0.17,-4.18 -0.59,-15.12 -1.46,-18.58 -0.17,-0.66 -2.89,0 0.83,-4.31 2.54,-2.95 4.01,2.45 4.24,4.89 1.27,13.26 -1.12,27.09 -1.5,40.33 -0.26,8.82 0.13,17.71 0.17,26.53 0.74,2.5 4.5,2.36 4.82,2.74 0.97,1.11 -1.91,5.61 2.66,5.65 1.15,0 9.49,-4.13 11.81,-5 0.71,0 1.4,0 2.06,0.32 4.66,2.19 13.19,10.82 1.5,1.1 l -0.68,-2.13 c 3.28,-1.05 5.5,-2.55 9.36,-2.88 0.97,0.23 5.04,1.42 5.33,2.06 0.07,0.16 -3.03,-1.18 -2.45,-2.06 4.79,-1.39 10.98,-2.35 15.84,-0.72 -1.52,0.93 2.6,3.37 3.79,3.92 -1.85,-0.98 -2.63,-2.29 -2.35,-3.92 2.6,0.14 5.53,0.48 8.1,0.9 2.57,0.42 10.62,4.67 9.18,-1.62 0.89,-2.04 6.18,-1.58 7.92,-0.72 0.78,1.15 3.17,2.19 2.36,4.09 -2.09,4.94 -12.41,11.97 -17.23,14.53 -16.38,8.71 -28.64,9.9 -45.63,1.2 -3.3,-1.69 -14.4,-11.18 -16.91,-6.14 -0.98,1.96 2.15,18.2 2.52,21.97 3.39,34.33 3.38,62.93 0.01,97.2 -0.54,5.47 1.61,8.63 -6.54,5.7 0.86,-6.23 2.18,-12.5 2.84,-18.75 2.62,-24.69 0.35,-49.4 0.8,-74.06 l -4.14,-32.58 c -1.17,-2.85 -3.7,-2.46 -6.32,-2.37 -20.65,0.7 -31.02,9.17 -51.67,-2.99 -11.1,-6.54 -11.43,-11.38 -16.94,-21.94 -0.85,-1.64 -4.2,-5.12 -3.41,-6.73 0.36,-0.73 1.46,-1 1.84,-1.43 4.29,1.8 8.69,3.64 13.29,4.37 l 1.11,1.39 c 0.51,3.55 4.61,3.13 7.2,3.6 l 0.14,1.02 c -8.66,4.19 -7.81,4.43 2.56,0.74 l 5.94,-0.32 c 4,0.82 7.61,1.74 11.52,2.88 l 0.34,0.93 c -5.66,3.56 -11.47,7.19 -17.42,10.88 6.86,-4.04 13.75,-7.74 20.68,-11.09 4.85,1.64 7.38,3.52 11.52,5.76 -0.03,0.91 0.69,1.15 2.16,0.72 z"
           id="path64" />
        <path
           class="st15"
           d="m 28.5,176.38 c 17.66,-20.15 44.51,-9.79 59.74,7.58 0.9,1.03 7.88,9.74 7.21,10.42 -5.02,-2.33 -10.87,-6.6 -15.83,-8.64 -0.74,-1.55 -1.46,-1.79 -2.16,-0.72 -1.75,-0.65 -5.27,-1.64 -7.2,-2.16 -2.53,-3.75 -5.82,-8.01 -9.03,-11.72 l 6.95,9.23 c 0.01,0.7 -0.27,1.29 -0.8,1.78 -2.83,-0.7 -7.27,-1.68 -10.08,-2.16 -2.73,-2.35 -3.69,-2.59 -2.88,-0.72 -4.07,-0.47 -5.82,0.1 -9.36,1.44 -5.49,-0.19 -11.38,-1.78 -16.56,-4.32 v 0 z"
           id="path66" />
        <path
           class="st9"
           d="m 73.86,190.78 c 0.4,1.79 -0.94,1.46 -1.9,2.02 -7.41,4.29 -14.62,9.09 -22.57,12.38 -3.07,-3.14 19.29,-13.83 20.87,-15.12 1.08,0.31 2.39,0.31 3.6,0.72 z"
           id="path68" />
        <path
           class="st9"
           d="m 87.54,197.26 c -6.38,5.94 -16.31,12.39 -25.2,12.95 l 23.04,-13.67 c 0.51,0.27 1.43,0.29 2.16,0.72 z"
           id="path70" />
        <path
           class="st9"
           d="m 144.42,200.86 c 5.05,0.42 12.15,6.24 15.41,10.15 0.68,0.82 3,3.15 2.22,4.26 l -20.51,-14.41 c 0.87,-0.08 2.01,-0.07 2.88,0 z"
           id="path72" />
        <path
           class="st20"
           d="m 178.26,191.5 c -1.85,1.58 -4.01,2.78 -6.48,3.6 -3.18,-0.88 -9.7,-1.93 -12.96,-2.16 1.02,-1.81 2.94,-3.01 5.76,-3.6 4.47,0.31 9.53,0.39 13.68,2.16 z"
           id="path74" />
        <path
           class="st8"
           d="m 132.18,203.74 c 6.1,3.8 12.03,8.17 15.84,14.39 L 131.44,207 129.3,204.46 c 1.13,-0.43 2.01,-0.44 2.88,-0.72 z"
           id="path76" />
        <path
           class="st20"
           d="m 159.54,189.34 c 0.68,1.81 -1,3.01 -5.04,3.6 -4.1,0 -8.22,0.77 -12.24,1.44 -1.5,-1.71 2.61,-4.45 4.22,-4.74 0.14,-0.03 -1.9,1.72 -2.06,-0.3 4.64,-1.57 10.18,-0.26 15.12,0 z"
           id="path78" />
        <path
           class="st14"
           d="m 178.26,191.5 c 0.44,0 1.09,-0.09 1.44,0 0.67,0.99 0.36,1.92 -0.93,2.8 2.84,0.32 5.15,1.23 7.41,2.96 0.3,0.36 0.43,1.02 0.72,1.44 -1.68,0.8 -6.32,1.21 -7.92,0.72 -0.7,-0.21 -3.75,-3.37 -7.2,-4.32 l -0.72,-1.43 c 2.52,-0.61 4.46,-2.1 7.2,-2.17 z"
           id="path80" />
        <path
           class="st9"
           d="m 58.74,187.18 -18.72,5.76 c 1.18,-4.74 6.61,-5.16 10.08,-7.2 2.88,0.52 5.77,0.85 8.64,1.44 z"
           id="path82" />
        <path
           class="st9"
           d="m 67.38,182.14 c -0.87,-3.15 -7.01,-8.25 -7.63,-10.76 -0.26,-1.03 0.98,-1.52 1.51,-2.19 0.77,0 8.58,10.43 9.57,12.01 0.77,1.22 1.67,1.89 -0.57,1.65 -0.93,-0.25 -1.94,-0.49 -2.88,-0.72 v 0 z"
           id="path84" />
        <path
           class="st7"
           d="m 143.7,189.34 c 0.4,1.69 -0.8,3.37 -3.6,5.04 l -13.68,3.96 c 4.64,-4.98 10.37,-8.38 17.28,-9 z"
           id="path86" />
        <path
           class="st8"
           d="m 160.26,200.14 c 0.48,0 0.96,-0.03 1.44,0 3.39,3.21 7.43,5.71 10.44,9.36 0.48,0.58 1.91,1.45 0.71,2.17 l -16.19,-10.82 c -0.05,-1.28 2.71,-0.71 3.59,-0.71 v 0 z"
           id="path88" />
        <path
           class="st14"
           d="m 28.5,176.38 c 4.74,0.68 9.39,1.93 14.09,2.87 1.32,0.26 2.89,-0.86 2.47,1.45 -0.66,0.25 -1.59,1.34 -2.16,1.44 -3.39,0.57 -11.9,-3.04 -14.4,-5.76 z"
           id="path90" />
        <path
           class="st21"
           d="m 57.3,179.98 c -1.04,-0.18 -2.49,-0.67 -2.88,-0.72 -1.92,-3.12 -4.3,-5.38 -7.19,-7.57 -1.26,-3.01 6.22,1.23 6.12,2.52 z"
           id="path92" />
        <path
           class="st21"
           d="m 79.62,185.74 c -0.52,-0.21 -1.41,-0.44 -2.16,-0.72 -0.52,-2.5 -2.16,-4.49 -2.71,-7.01 -0.16,-0.74 -0.84,-3.82 0.54,-3.78 1.44,2.83 2.7,5.72 3.96,8.64 0.32,0.75 1.86,2.41 0.37,2.87 z"
           id="path94" />
        <path
           class="st17"
           d="m 186.18,197.26 -10.8,-2.17 4.32,-3.59 c 2.09,0.54 5.07,4.06 6.48,5.76 z"
           id="path96" />
        <path
           class="st8"
           d="m 164.58,189.34 c -1.09,2.11 -3.55,3.11 -5.76,3.6 -1.41,-0.1 -2.9,0 -4.32,0 l 5.04,-3.6 c 1.67,0.09 3.38,-0.11 5.04,0 z"
           id="path98" />
        <path
           class="st14"
           d="m 144.42,189.34 c 0.8,0 2.46,-0.33 2.88,0.36 l -5.04,4.68 c -0.66,0.11 -1.47,-0.07 -2.16,0 l -1.44,-0.36 5.04,-4.68 c 0.24,-0.02 0.48,0 0.72,0 z"
           id="path100" />
      </g>
    </g>
  </g>
</svg>
