<?xml version="1.0" encoding="UTF-8" standalone="no"?>
<svg
   id="Layer_1"
   version="1.1"
   viewBox="0 0 50.851608 54.992683"
   sodipodi:docname="Flower_Blooming2.svg"
   width="50.851608"
   height="54.992683"
   xmlns:inkscape="http://www.inkscape.org/namespaces/inkscape"
   xmlns:sodipodi="http://sodipodi.sourceforge.net/DTD/sodipodi-0.dtd"
   xmlns="http://www.w3.org/2000/svg"
   xmlns:svg="http://www.w3.org/2000/svg">
  <sodipodi:namedview
     id="namedview23"
     pagecolor="#ffffff"
     bordercolor="#000000"
     borderopacity="0.25"
     inkscape:showpageshadow="2"
     inkscape:pageopacity="0.0"
     inkscape:pagecheckerboard="0"
     inkscape:deskcolor="#d1d1d1" />
  <!-- Generator: Adobe Illustrator 29.8.3, SVG Export Plug-In . SVG Version: 2.1.1 Build 3)  -->
  <defs
     id="defs4">
    <style
       id="style2">
      .st0 {
        fill: #895d3c;
      }

      .st1 {
        fill: #91bb57;
      }

      .st2 {
        fill: #c5fd75;
      }

      .st3 {
        fill: #b57b50;
      }

      .st4 {
        fill: #1e150d;
      }

      .st5 {
        fill: #b87d51;
      }
    </style>
  </defs>
  <path
     d="m 40.340154,19.463105 c 0.27,1.11 0.3,2.09 0,3.6 -0.65,2.89 -1.32,6.64 -2.16,9.36 -0.15,0.87 -0.17,1.67 0.72,2.16 0.81,2.36 3.15,13.15 3.69,13.59 0.4,0.32 5.98,0.4 7.83,2.25 0.55,1.16 0.6,2.44 0,3.6 -2.16,1.96 -4.23,0.41 -6.48,0 -2.23,-0.55 -4.39,-0.55 -6.48,0 -4.23,-0.22 -5.59,-1.17 -9.36,-2.16 -1.24,-0.52 -2.36,-0.49 -3.6,0 -7.93,1.98 -7.87,1.3 -15.4900001,1.39 -2.28,0.03 -8.97000002,2.8 -9.01000002168,-1.03 -0.0399999983,-3.29 7.73000002168,-3.66 9.71000002168,-5.43 3.8600001,-3.45 7.8400001,-13.79 13.3500001,-16.53 1.33,-0.56 2.53,-0.56 3.6,0 0.08,0.01 0.59,1.03 1.44,0.72 0.57,-2.11 1.14,-8.78 -0.81,-9.99 -0.8,-0.5 -3.86,0.61 -5.28,0.66 -6.58,0.26 -15.0800001,-0.9 -17.6700001,-7.95 -0.53,-1.64 -0.55,-3.39 0,-5.0400005 1.76,-4.82 11.3100001,-8.78999996 16.1700001,-8.65999996 2.38,0.06 8.85,2.21999996 10.98,3.46999996 5.36,3.16 7.45,10.3000005 8.85,15.9900005 z"
     id="path6" />
  <g
     id="g20"
     transform="translate(-83.579846,-288.5069)">
    <path
       class="st2"
       d="m 118.88,316.61 c -1.51,0.55 -1.28,-1.24 -1.31,-2.44 -2.82,-16.27 -11.86,-5.51 -21.52,-11.09 -1.37,-0.79 -4.2,-2.77 -2.63,-4.53 4.36,-4.9 13.08,-5.52 18.51,-1.98 5.43,3.54 8.17,14.13 6.96,20.04 z"
       id="path8" />
    <path
       class="st5"
       d="m 105.92,327.41 c 0.38,-0.74 0.12,-5.05 2.18,-3.26 2.06,1.79 2.48,7.97 3.58,10.45 -5.24,-0.96 -9.3,2.65 -14.4,2.16 1.41,-2.39 3.11,-4.49 5.04,-6.47 1.01,-0.95 1.38,-0.55 0.72,0.72 1.36,0.5 4.33,-2.4 2.88,-3.6 z"
       id="path10" />
    <path
       class="st3"
       d="m 121.04,336.77 c -7.23,0.06 -4.81,-3.83 -1.79,-7.91 z"
       id="path12" />
    <path
       class="st1"
       d="m 118.88,316.61 c -0.5,2.45 -2.34,6.76 -3.45,8.74 -3.64,-1.1 2.05,-8.63 2.15,-11.14 l 0.58,-0.48 c 0.15,0.88 -0.45,2.37 0.72,2.88 z"
       id="path14" />
    <path
       class="st0"
       d="m 105.92,327.41 c 0.95,1.64 -1.21,3.86 -2.88,3.6 l -0.72,-0.72 c 1.32,-1.35 1.14,-2.43 3.6,-2.88 z"
       id="path16" />
    <path
       class="st4"
       d="m 105.92,327.41 c 5.27,-0.97 -1.07,4.27 -2.18,5.42 -0.55,0.58 -0.81,2.9 -2.14,1.78 -0.15,-0.13 1.28,-3.32 1.44,-3.59 0.67,-1.17 2.18,-2.23 2.88,-3.6 z"
       id="path18" />
  </g>
</svg>
