<svg version="1.1" width="82" height="88" xmlns="http://www.w3.org/2000/svg" xmlns:xlink="http://www.w3.org/1999/xlink">
  <defs>
    <linearGradient id="grad_1" x1="19.4492" y1="72.6074" x2="124.4316" y2="72.6074" gradientUnits="userSpaceOnUse">
      <stop offset="0" stop-color="#DA1C5C"/>
      <stop offset="1" stop-color="#4B0049"/>
    </linearGradient>
    <linearGradient id="grad_2" x1="29.0615" y1="72.6074" x2="114.8193" y2="72.6074" gradientUnits="userSpaceOnUse">
      <stop offset="0" stop-color="#EE2A7B"/>
      <stop offset="1" stop-color="#811150"/>
    </linearGradient>
  </defs>
  <!-- Exported by Scratch - http://scratch.mit.edu/ -->
  <g id="ID0.7405319735407829" transform="matrix(0.949999988079071, 0, 0, 0.949999988079071, 0.05, 0.15)">
    <path id="ID0.9742209389805794" fill="url(#grad_1)" d="M 124.432 61.994 C 124.432 45.992 113.493 32.398 98.341 28.710 C 91.867 20.844 82.287 16.262 71.940 16.262 C 61.594 16.262 52.016 20.844 45.543 28.709 C 30.390 32.396 19.449 45.991 19.449 61.994 C 19.449 65.628 20.019 69.183 21.147 72.608 C 20.019 76.033 19.449 79.587 19.449 83.222 C 19.449 99.224 30.389 112.819 45.542 116.506 C 52.013 124.370 61.592 128.952 71.939 128.952 C 82.286 128.952 91.865 124.370 98.338 116.507 C 113.489 112.819 124.431 99.224 124.431 83.222 C 124.431 79.588 123.862 76.034 122.733 72.608 C 123.862 69.182 124.432 65.627 124.432 61.994 Z " transform="matrix(0.7737809419631958, 0, 0, 0.7737809419631958, -14.75, -12.5)"/>
    <path id="ID0.6661926116794348" fill="url(#grad_2)" d="M 114.819 61.994 C 114.819 49.280 105.197 38.821 92.838 37.485 C 88.479 30.521 80.761 25.874 71.940 25.874 C 63.121 25.874 55.404 30.520 51.045 37.485 C 38.685 38.820 29.062 49.280 29.062 61.994 C 29.062 65.799 29.948 69.390 31.488 72.608 C 29.948 75.826 29.062 79.416 29.062 83.223 C 29.062 95.937 38.685 106.397 51.045 107.733 C 55.402 114.696 63.118 119.341 71.940 119.341 C 80.762 119.341 88.478 114.695 92.836 107.733 C 105.197 106.397 114.819 95.937 114.819 83.223 C 114.819 79.416 113.932 75.827 112.393 72.608 C 113.933 69.390 114.819 65.799 114.819 61.994 Z " transform="matrix(0.7737809419631958, 0, 0, 0.7737809419631958, -14.75, -12.5)"/>
  </g>
</svg>