<?xml version="1.0" encoding="UTF-8" standalone="no"?>
<svg
   version="1.1"
   width="77.17215"
   height="82.837502"
   id="svg17"
   sodipodi:docname="flower_shape.svg"
   xmlns:inkscape="http://www.inkscape.org/namespaces/inkscape"
   xmlns:sodipodi="http://sodipodi.sourceforge.net/DTD/sodipodi-0.dtd"
   xmlns="http://www.w3.org/2000/svg"
   xmlns:svg="http://www.w3.org/2000/svg">
  <sodipodi:namedview
     id="namedview19"
     pagecolor="#ffffff"
     bordercolor="#000000"
     borderopacity="0.25"
     inkscape:showpageshadow="2"
     inkscape:pageopacity="0.0"
     inkscape:pagecheckerboard="0"
     inkscape:deskcolor="#d1d1d1" />
  <defs
     id="defs12">
    <linearGradient
       id="grad_1"
       x1="19.4492"
       y1="72.607399"
       x2="124.4316"
       y2="72.607399"
       gradientUnits="userSpaceOnUse">
      <stop
         offset="0"
         stop-color="#DA1C5C"
         id="stop2" />
      <stop
         offset="1"
         stop-color="#4B0049"
         id="stop4" />
    </linearGradient>
    <linearGradient
       id="grad_2"
       x1="29.061501"
       y1="72.607399"
       x2="114.8193"
       y2="72.607399"
       gradientUnits="userSpaceOnUse">
      <stop
         offset="0"
         stop-color="#EE2A7B"
         id="stop7" />
      <stop
         offset="1"
         stop-color="#811150"
         id="stop9" />
    </linearGradient>
  </defs>
  <!-- Exported by Scratch - http://scratch.mit.edu/ -->
  <g
     id="ID0.7405319735407829"
     transform="matrix(0.94999999,0,0,0.94999999,-0.28430226,-0.07906439)">
    <path
       id="ID0.9742209389805794"
       fill="url(#grad_1)"
       d="M 124.432,61.994 C 124.432,45.992 113.493,32.398 98.341,28.71 91.867,20.844 82.287,16.262 71.94,16.262 c -10.346,0 -19.924,4.582 -26.397,12.447 -15.153,3.687 -26.094,17.282 -26.094,33.285 0,3.634 0.57,7.189 1.698,10.614 -1.128,3.425 -1.698,6.979 -1.698,10.614 0,16.002 10.94,29.597 26.093,33.284 6.471,7.864 16.05,12.446 26.397,12.446 10.347,0 19.926,-4.582 26.399,-12.445 15.151,-3.688 26.093,-17.283 26.093,-33.285 0,-3.634 -0.569,-7.188 -1.698,-10.614 1.129,-3.426 1.699,-6.981 1.699,-10.614 z"
       transform="matrix(0.77378094,0,0,0.77378094,-14.75,-12.5)"
       style="fill:url(#grad_1)" />
    <path
       id="ID0.6661926116794348"
       fill="url(#grad_2)"
       d="M 114.819,61.994 C 114.819,49.28 105.197,38.821 92.838,37.485 88.479,30.521 80.761,25.874 71.94,25.874 c -8.819,0 -16.536,4.646 -20.895,11.611 -12.36,1.335 -21.983,11.795 -21.983,24.509 0,3.805 0.886,7.396 2.426,10.614 -1.54,3.218 -2.426,6.808 -2.426,10.615 0,12.714 9.623,23.174 21.983,24.51 4.357,6.963 12.073,11.608 20.895,11.608 8.822,0 16.538,-4.646 20.896,-11.608 12.361,-1.336 21.983,-11.796 21.983,-24.51 0,-3.807 -0.887,-7.396 -2.426,-10.615 1.54,-3.218 2.426,-6.809 2.426,-10.614 z"
       transform="matrix(0.77378094,0,0,0.77378094,-14.75,-12.5)"
       style="fill:url(#grad_2)" />
  </g>
</svg>
