<?xml version="1.0" encoding="UTF-8"?>
<svg id="Layer_1" xmlns="http://www.w3.org/2000/svg" version="1.1" viewBox="0 0 216 360">
  <!-- Generator: Adobe Illustrator 29.8.3, SVG Export Plug-In . SVG Version: 2.1.1 Build 3)  -->
  <defs>
    <style>
      .st0 {
        fill: #7def43;
      }

      .st1 {
        fill: #5eb432;
      }

      .st2 {
        fill: #b0784e;
      }

      .st3 {
        fill: #448224;
      }

      .st4 {
        fill: #2b1d13;
      }

      .st5 {
        fill: #84fd47;
      }

      .st6 {
        fill: #84fe47;
      }
    </style>
  </defs>
  <path d="M82.13,274.24l4.32.72c7.56,1.63,13.45,5.72,19.19,10.74,8.5-7.06,19.56-11.52,30.85-10.73,1.66.12,11.93,2.33,12.9,2.94,4.34,2.7-.44,13.9-2.87,17.15-4.37,5.83-10.66,8.22-17.58,9.42-1.89.58-3.86.46-5.76,0-1.68-.27-2.38-.1-4.32-.72-1.83-.89-2.31.07-1.44,2.88.15.87-.11,1.97,0,2.88-.03,1.27.21,2.47.72,3.6.32,2.48.39,5.25.72,7.92.57,2.5.57,4.9,0,7.2-.04.71.08,1.46,0,2.16-.32,2.01-.08,2.73.72,2.16,1.07-.5,1.22-.44,2.16-.72,1.51-1.15,2.71-1.39,3.6-.72.06,1.1.27,5.22.82,5.66.4.32,5.98.41,7.82,2.26.55,1.16.6,2.44,0,3.6-2.16,1.96-4.23.41-6.48,0-2.23-.55-4.39-.55-6.48,0-4.23-.22-5.59-1.17-9.36-2.16-1.24-.52-2.36-.49-3.6,0-7.93,1.98-7.87,1.3-15.49,1.39-2.28.03-8.97,2.8-9.01-1.03-.04-3.24,7.43-3.7,9.34-5.08s6.98-11.27,9.87-11.78c1.76.34,2.75,2.29,3.86,3.55.74-.02,1.22-.5,1.44-1.44.08-2.34.11-4.86,0-7.2-.51-1.85-.75-3.77-.72-5.76-.41-2.75-.24-7.11-2.88-8.64-2.13-.49-4.37-.73-6.48,0-2.56.11-4.72.49-7.2.72-3.33.22-6.74.41-10.08,0-9.03-1.7-14.8-9.11-16.56-18-1.28-4.5-.56-7.86,2.16-10.08,3.77-1.33,11.89-2.89,15.84-2.88Z"/>
  <g>
    <path class="st5" d="M114.53,287.92c8.85-6.67,19.45-7.04,29.88-5.02.93.18,1.27-.53,1.07,1.04-1.16,9.23-11.15,15.27-19.87,15.42-3.75.06-12.79-4.03-13.31,2.59-.13,1.67.57,6.18.79,8.28.18,1.18-1.93,1.8-2.59,1.58-.71-4.95.14-10.58-3.89-13.82-.63-.2-.62-.44,0-.72,2.31,1.48,5.62-3.23,8.61-4.71,7.55-3.72,10.4-1.79,17.66-1.71,5.28.06,6.8-2.47,1.28-3.51-6.4-1.2-12.86-1.2-18.92,1.28-1.01.95-1.38.55-.72-.72Z"/>
    <path class="st6" d="M94.37,285.04c.8,1,.32,1.24-1.44.72-4.01-1.02-11.79-3.21-13.68,1.43,8.41.84,14.14,1.02,21.54,5.47,2.19,1.32,4.05,3.49,5.82,4.62v.72c-8.63-2.86-19.94,3.52-27.86-.58-4.04-2.09-8.05-9.93-8.11-14.52,8.23-2.13,16.33-2.77,23.74,2.13Z"/>
    <path class="st0" d="M113.09,310.24c.44,4.28,2.15,9.65,2.18,14.07.02,2.42-1.06,12.78-5.07,10.04,3.7-6.94-.66-16.22.28-22.55.01-.08,2.89-.84,2.61-1.56Z"/>
    <path class="st2" d="M103.73,330.4c-.14.84-.15,1.57.72,1.44.34.23,2.43.13,1.98,2.56-.24,1.34-7.51,2.94-9.18,2.48.49-.95,5.82-8.48,6.47-7.91.07.47-.08,1.02,0,1.44Z"/>
    <path class="st4" d="M104.45,331.84l-2.88,2.87,2.16-4.31c.17.83-.22.81.72,1.44Z"/>
    <path class="st1" d="M94.37,285.04c.82.54,1.91,1.11,2.16,2.15-1.45.43-2.67-1.2-3.6-1.43l1.44-.72Z"/>
    <path class="st3" d="M115.25,288.64c-.77.31-1.46,1.94-2.88,1.43.23-1.08,1.38-1.57,2.16-2.15l.72.72Z"/>
  </g>
</svg>