<?xml version="1.0" encoding="UTF-8" standalone="no"?>
<svg
   id="Layer_1"
   version="1.1"
   viewBox="0 0 290.85855 281.63809"
   sodipodi:docname="fox.svg"
   width="290.85855"
   height="281.63809"
   xmlns:inkscape="http://www.inkscape.org/namespaces/inkscape"
   xmlns:sodipodi="http://sodipodi.sourceforge.net/DTD/sodipodi-0.dtd"
   xmlns="http://www.w3.org/2000/svg"
   xmlns:svg="http://www.w3.org/2000/svg">
  <sodipodi:namedview
     id="namedview63"
     pagecolor="#ffffff"
     bordercolor="#000000"
     borderopacity="0.25"
     inkscape:showpageshadow="2"
     inkscape:pageopacity="0.0"
     inkscape:pagecheckerboard="0"
     inkscape:deskcolor="#d1d1d1" />
  <!-- Generator: Adobe Illustrator 29.8.3, SVG Export Plug-In . SVG Version: 2.1.1 Build 3)  -->
  <defs
     id="defs4">
    <style
       id="style2">
      .st0 {
        fill: #feeae4;
      }

      .st1 {
        fill: #060302;
      }

      .st2 {
        fill: #f2eceb;
      }

      .st3 {
        fill: #fe5722;
      }

      .st4 {
        fill: #dbdbdb;
      }

      .st5 {
        fill: #faaa91;
      }

      .st6 {
        fill: #fdaa90;
      }

      .st7 {
        fill: #010100;
      }

      .st8 {
        fill: #fe8661;
      }

      .st9 {
        fill: #b83f18;
      }

      .st10 {
        fill: #050201;
      }

      .st11 {
        fill: #fead94;
      }

      .st12 {
        fill: #3d2e29;
      }

      .st13 {
        fill: #020101;
      }

      .st14 {
        fill: #feae95;
      }

      .st15 {
        fill: #fefefe;
      }

      .st16 {
        fill: #fcd8cd;
      }

      .st17 {
        fill: #f3a992;
      }
    </style>
  </defs>
  <path
     d="m 251.57235,153.22891 c -1.33,2.26 2.64,8.06 2.77,11.04 0.18,4.01 0.48,8.14 0.68,12.22 1.05,22.08 -5.92,42.49 -7.91,64.08 -0.75,8.14 0.52,21.85 -2.53,29.15 -3.68,8.8 -28.9,10.83 -26.97,-3.18 0.32,-2.32 2.29,-3.74 2.68,-5.27 1.72,-6.78 1.4,-26.69 -0.93,-33.29 -1.52,-4.31 -5.89,-7.64 -6.83,-12.25 l -17.85,42.25 c -0.78,1.25 -1.54,3.33 -2.55,4.3 -2.69,2.59 -13.55,2.75 -17.2,1.5 -3.12,-1.07 -6.05,-4.37 -5.47,-7.91 6.25,-10.39 8.02,-22.85 12.78,-34.02 l -2.94,-6.72 -37.27,3.55 c -1.04,8.2 -1.67,16.54 -2.21,24.78 -0.68,10.31 1.02,23.68 -5.45,32.71 -8.82,12.31 -40.859998,2.09 -21.18,-13.33 -2.89,-12.73 -2.58,-26.54 -5.39,-39.2 -0.51,-2.32 -1.71,-7.71 -3.46,-9.13 -3.36,-2.73 -17.219998,-1.42 -22.109998,-2.36 -1.49,1.55 -0.35,32.63 -0.74,37.78 -0.31,4.18 -1.53,12.53 -5,15.16 -5.87,4.46 -24.97,3.71 -26.54,-5.26 -1.07,-6.08 5.31,-8.37 5.68,-12.04 0.24,-2.31 -0.75,-4.3 -0.81,-6.47 -0.22,-9.38 0.11,-18.74 -0.7,-28.1 -0.9,-10.39 -6.02,-44.09 -12.45,-51.27 -1.52,-1.7 -10.31,-5.61 -13.4,-7.84 -7.88,-5.67 -26.8699999,-22.09 -28.07999989,-31.68 -1.40000001,-11.11 5.09999999,-13.39 11.12999989,-19.71 3.16,-3.31 12.15,-12.31 13.92,-15.6 2.16,-4.02 3.53,-12.15 5.31,-17.01 4.05,-11.05 12.11,-28.17 21.78,-35.1 5.94,-4.26 9.66,-0.55 13.62,4.38 8.05,10.04 10.85,24.75 14.21,36.91 0.45,1.32 2.54,1.52 3.75,1.23 0.94,-0.23 4.47,-16.13 5.29,-18.61 2.36,-7.07 6.07,-14.4 10.71,-20.25 6.179998,-7.79 9.339998,-10.24 16.839998,-1.84 10.52,11.79 16.71,29.66 20.9,44.62 8.84,9.15 21.61,16.9 30.27,25.89 7.56,7.84 -2.13,22.09 -7.95,28.46 12.24,0.99 24.17,-2.4 36.33,-2.9 7.63,-0.31 16.09,0.1 23.7,0.84 7.23,0.7 13.43,5.22 17.61,-2.73 6.32,-12 -8.47,-21.37 -14.45,-29.95 -10.59,-15.19 -15.77,-42.33 -9.93,-59.94 4.14,-12.48 21.4,-34.9300005 33.87,-39.5700005 16.76,-6.23 8.39,7.77 7.88,16.5200005 -1.26,21.59 13.12,26.75 23.36,42.21 17.45,26.33 18.78,64.57 -9.72,83.75 -2.71,1.82 -16.33,7.95 -17.07,9.21 z"
     id="path6" />
  <path
     class="st3"
     d="m 112.46235,44.36891 c 9.47,12.4 14.7,26.22 17.97,41.43 9.43,8.16 21.56,16.46 30.28,25.16 3.33,3.32 2.44,5.25 0.62,9.28 -3.28,7.24 -10.49,13.74 -16.46,18.82 -2.65,2.25 -13.29,9.03 -13.54,11.62 -0.18,1.89 2.01,3.73 3.86,3.84 5.37,0.31 15.39,-12.2 18.77,-12.74 1.72,-0.28 5.75,1.14 7.83,1.22 21.29,0.88 38.96,-4.23 61.82,-1.34 9.31,1.17 11.56,5.09 18.82,-4.39 14.41,-18.78 -9.68,-32.23 -16.85,-46.55 -2.02,-4.03 -4.6,-10.96 -5.51,-15.37 -0.6,-2.87 -2.05,-12.86 -1.24,-14.92 0.39,-0.98 4.58,-6.47 5.21,-5.99 0.54,3.41 6.88,22.43 11.37,14.59 1.82,-3.18 2.28,-8.9 3.77,-12.43 l 7.51,9.39 c 6.85,3.97 6.26,-9.18 7.24,-12.99 2.83,4.15 12.02,4.66 14.45,6.43 1.26,0.92 6.69,9.87 7.64,11.8 10.61,21.34 10.92,47.56 -8.4,63.87 -5.51,4.65 -22.19,10.35 -23.79,16.52 -1.28,4.91 1.32,6.35 1.67,9.91 1.2,12.27 2.18,24.59 0.78,37.18 -1.31,11.75 -5.6,23.09 -5.67,35.01 -4.22,-4.04 -5.45,-0.54 -9.34,1.44 -0.24,-1.24 -0.77,-2.73 -1.44,-3.79 -3.21,-5.12 -6.74,-11.28 -9.96,-16.87 -1.78,-3.09 -8.99,-17.67 -10.95,-18.57 -2.96,-1.36 -4.09,-0.34 -4.31,2.51 -1.37,0.32 -3.01,-0.06 -4.32,-0.72 -0.83,1.82 -1.33,1.82 -2.16,0 -1.7,1.42 -4.05,3.09 -5.76,0.72 -1.37,1.51 -1.98,1.23 -1.44,-0.72 -2.03,0.05 -4.21,-0.63 -6.54,-2.04 -5.4,1.68 -10.58,3.68 -15.55,5.99 -2.66,-1.04 -3.67,-1.23 -6.54,-0.58 -1.97,-1.96 -3.95,-2.36 -5.93,-1.21 -2.93,1.92 -8.59,4.89 -11.52,3.6 l -0.91,1.5 c -2.77,0.17 -4.86,2.31 -6.29,6.42 -5.03,2.55 -3.65,21.81 -5.05,23.04 -0.19,0.17 -2.72,-0.68 -4.47,0.14 -1.75,0.82 -3,2.97 -4.51,4.17 -1.32,-3.12 -6.14,-6.68 -7.16,-9.39 -2.71,-7.19 -1.21,-19.43 -11.2,-23 0.9,-2.32 1.55,-4.7 1.95,-7.16 l 2.96,-1.52 c -0.29,-4.71 0.24,-5.68 3.06,-8.77 -1.6,-5.43 -1.88,-11.1 -0.84,-16.98 l -5.12,-7.14 c -1.58,-3.33 0.53,-4.1 6.33,-2.3 1.37,-2.98 2.62,-4.14 5.51,-5.58 0.51,-3.78 1.16,-7.48 1.95,-11.1 l 2,-0.85 c -1.24,-3.1 -0.44,-5.64 2.41,-7.64 -0.65,-5.38 -3.2,-10.19 -7.64,-14.42 4.54,-9.42 -15.06,-12.22 -19.979998,-7.37 -10.03,17.96 -27.98,24.45 -47.83,19.32 -3.74,-0.97 -9.05,-2.54 -11.72,-4.81 l -0.51,-1.57 c 3.85,-2.73 7.26,-5.95 10.26,-9.67 l 2.5,-0.75 c 10.83,-0.77 17.72,-3.92 24.79,-12.26 4.39,-5.18 5.33,-10.34 -2.35,-3.14 -6.51,8.67 -15.8,11.61 -26.38,12.17 l -16.65,0.04 c -14.43,3.21 1.43,20.72 9.29,23.38 l 0.5,1.88 c 1.17,0.91 1.41,1.63 0.72,2.16 1.48,1.83 3.51,2.46 6.09,1.91 l 1.11,0.97 c 0.74,-0.9 1.81,-0.45 1.44,0.72 1.39,2.07 3.3,3.58 5.75,4.54 0.39,2.52 2.22,3.27 5.47,2.24 l 3.22,2.22 c 3.53,-0.43 7.58,2.14 6.47,5.49 -5.24,6.36 -6.15,9.94 -2.73,10.76 l 0.29,1.24 c -2.27,3.77 -2.29,7.2 -0.05,10.29 -4.1,5.93 -3.96,10.43 0.42,13.51 l 1.84,6.2 c 3.66,-0.21 5.96,0.68 5.25,4.7 -1.11,3.38 -0.39,16.24 -1.47,17.24 -0.3,0.28 -2.92,-0.27 -4.3,0.39 -1.24,0.6 -2.44,5.03 -3.93,3.23 -4.49,-5.43 -3.17,-15.02 -4.07,-21.86 -1.31,-10.01 -6.03,-41.03 -13.22,-47.26 -4.74,-4.11 -9.93,-6.77 -14.71,-10.49 -5.66,-4.4 -23.9999999,-19.46 -25.2299999,-25.89 -1.62,-8.47 4.0899999,-9.61 8.6399999,-14.34 3.19,-3.32 14.75,-15.3 15.97,-18.59 0.84,-2.27 0.28,-4.21 0.88,-6.32 3.52,-12.35 8.01,-23.46 15.52,-33.8 3.06,0.66 4.01,7.08 0.11,7.99 -0.49,2.63 -1.09,5.14 -1.8,7.54 -1.6,0.29 -2.17,1.87 -1.7,4.74 l -4.64,6.25 c -0.12,1.08 0.88,2.09 3,3.01 3.3,4.66 5.23,1.53 7.29,-2.44 2.93,0.24 5.78,0.81 8.55,1.72 2.26,0.4 6.15,1.17 6.48,3.6 0.17,0.09 0.71,1.31 1.44,1.77 2.54,1.6 15.51,1.51 19.12,1.15 3.32,-0.33 2.73,-0.31 3.92,-2.92 l 1.26,-1.08 c 4.33,2.18 7.909998,2 10.749998,-0.54 l 1.67,0.19 c 4.38,-3 6.29,-2.42 9.59,1.7 2.6,1.73 6.74,-2.02 1.27,-2.83 l -0.06,-1.74 c -0.16,-1.3 1.38,-1.98 4.61,-2.04 -1.38,-4.15 -1.69,-8.81 -1.83,-13.25 -0.96,1.03 -1.88,1.33 -2.77,0.88 -0.99,0.95 -1.35,0.55 -0.72,-0.72 -1.09,-0.47 -1.29,-1.22 -0.96,-2.2 -3.11,-0.91 -3.2,-3.9 -0.27,-8.95 -0.84,1.65 -1.87,2.49 -3.09,2.52 -1.9,-0.78 -1.5,-5.08 0.72,-5.04 -0.56,-2.86 -0.08,-4.3 1.44,-4.32 z"
     id="path8" />
  <path
     class="st0"
     d="m 38.302352,130.04891 c 6.27,0.72 12.34,4.29 18.6,4.86 8.26,0.75 22.23,-1.33 28.85,-6.72 4.61,-3.76 9.63,-14.17 15.149998,-15.81 5.52,-1.64 14.38,-0.22 18.04,4.34 2.89,3.6 0.1,4.28 0.18,5.78 0.03,0.51 5.2,5.5 6.22,7.98 0.63,1.52 1.73,5.62 1.53,7.09 -0.3,2.3 -3.49,2.8 -3.55,3.62 -0.03,0.37 1.4,1.53 1.22,3.45 -0.26,2.82 -2.56,1.54 -2.78,2.38 -0.68,2.55 0.11,8.26 -1.46,10.68 -0.93,1.43 -2.65,1.38 -3.51,2.25 -1.73,1.74 -0.68,4.77 -5.38,3.94 -1.39,-0.24 -1.84,-1.65 -3.27,-1.44 -1.06,1.09 5.26,7.26 5.64,9.17 0.32,1.61 -0.44,2.78 -0.37,4.04 0.24,3.91 -0.25,4.39 -0.28,7.29 -0.03,2.66 2.83,5.37 0.81,8.01 -0.5,0.66 -2.04,0.72 -2.23,1.51 -0.41,1.7 0.6,4.2 -0.33,5.99 -0.76,1.48 -2.9,1.21 -3.15,1.52 -0.42,0.51 0.39,6.6 -2.98,6.39 -7.769998,-2.78 -19.699998,-0.61 -28.079998,-2.16 -1.4,-0.91 -1.84,-2.84 -1.32,-5.79 -7.02,-4.52 -10.21,-16.38 -6.6,-24.06 -2.04,-2.28 -2.87,-5.1 -1.69,-8.06 2.87,-5.11 3.36,-7.15 -0.27,-11.71 -3.34,0.66 -6.45,-0.37 -9.35,-3.09 -3.03,-0.06 -7.37,-2.78 -8.85,-5.6 -0.45,-0.15 -1.1,-0.71 -1.44,-0.72 -2.86,-0.22 -2.48,-2.05 0,-1.44 l 1.63,-1.03 10.36,2.19 c 7.75,4.37 43.669998,18.15 12.12,3.46 -1.39,-1.72 -1.27,-3.08 1,-3.36 11.28,0.03 17.56,-2.76 24.24,-11.66 7.559998,-10.07 6.209998,-29.47 -0.94,-5.96 -7.26,19.87 -45.61,15.62 -58.15,5.92 -2.54,-1.97 -2.46,-4.59 0.39,-3.24 z"
     id="path10" />
  <path
     class="st15"
     d="m 260.78235,51.55891 c -1.12,1.03 -7.39,-7.26 -10.85,-4.73 -1.75,1.28 -0.63,12.66 -2.47,12.64 -1.26,-0.01 -5.48,-8.88 -6.84,-9.71 -5.64,-3.44 -6.96,9.48 -7.93,12.6 -5.93,-6.48 -2.71,-22.11 -14.38,-9.36 2.02,-17.78 15.58,-33.97 29.88,-43.9200005 -0.34,10.5400005 -1.58,20.6800005 3.36,30.4700005 2.29,4.54 6.55,7.76 9.23,12 z"
     id="path12" />
  <path
     class="st0"
     d="m 190.94235,197.72891 c 0.41,0.17 0.87,0.73 1.44,0.72 1.79,1.37 3.71,1.13 5.76,-0.72 0.72,-0.01 1.44,-0.03 2.16,0 1.55,0.39 2.99,0.87 4.32,1.44 0.23,2.39 1.82,4.2 2.16,6.48 l -69.12,5.76 -1.14,-2.89 c 1.98,-0.58 3.7,-4.14 4.74,-4.68 1.31,-0.68 2.72,-0.09 3.6,-0.35 2.22,0.64 5.08,0 8.58,-1.9 l 2.16,1.61 c 3.54,-2.23 7.79,-3.08 11.04,-0.02 l 8.17,-4.01 c 6.16,-2.98 9.86,-2.83 16.13,-1.43 z"
     id="path14" />
  <path
     class="st12"
     d="m 132.55235,240.28891 c 0.65,1.03 -0.36,17.07 -0.73,19.63 -0.6,4.14 -2,13.36 -7.11,13.4 -0.4,-0.38 1.74,-5.99 0.36,-7.19 -1.01,0.93 -1.99,1.86 -2.67,3.08 -1.32,2.34 -0.58,4.84 -3.45,4.11 l 0.71,-2.87 c -0.43,-0.54 -2.63,3.13 -3.94,2.88 -3.3,-0.64 3.26,-5.32 3.56,-5.78 3.66,-5.56 -2.2,-19.81 -1.05,-26.61 2.69,3.02 3.75,5.08 8.18,2.79 1.27,-0.66 4.68,-5.76 6.14,-3.42 z"
     id="path16" />
  <path
     class="st14"
     d="m 49.102352,145.88891 c 2.59,0.88 4.14,2.98 5.99,3.79 1.2,0.53 2.34,-0.1 3.61,0.58 1.48,0.79 2.07,2.48 4.23,3.09 2.05,0.58 4.94,-0.65 5.55,-0.22 0.26,0.18 0.9,3.57 1.58,4.57 0.62,0.91 1.85,1.02 2,1.23 0.54,0.74 -3.24,7.25 -3.49,8.96 -0.64,4.41 2,4.64 2.1,6.39 0.09,1.64 -1.96,4.88 -1.74,7.7 0.29,3.75 3.17,11.5 5.76,14.29 0.8,0.86 2.33,0.45 2.54,1.17 0.14,0.49 0.11,6.12 -0.05,6.76 -0.04,0.17 -1.65,1.34 -2.16,2.88 -1.54,-0.35 -1.32,-2.71 -2.11,-3.28 -0.41,-0.3 -2.91,0.85 -4.2,-0.49 -0.87,-0.91 -1.03,-5.17 -2.5,-7.22 -2.08,-2.89 -4.02,-1.2 -3.11,-6.32 0.32,-1.77 3.13,-7.14 3.09,-7.54 -0.06,-0.65 -1.88,-1.32 -2.04,-3.58 -0.2,-2.8 1.94,-4.32 2.23,-6.84 -7.84,-0.13 2.96,-11.29 2.78,-13.35 -0.2,-2.26 -5.38,-1.89 -6.19,-2.27 -1.28,-0.6 -1.54,-2.36 -2.1,-2.44 -1.41,-0.2 -2.9,1.49 -5.27,0.41 -1.92,-0.87 -1.78,-3.2 -2.36,-3.77 -1.11,-1.08 -4.76,0.03 -4.14,-4.51 z"
     id="path18" />
  <path
     class="st12"
     d="m 112.46235,44.36891 c -0.29,1.35 -1.17,3.12 -1.44,4.32 -1.32,-1.54 -2.34,-2.16 -3.05,-1.85 -2.87,9.79 -5.93,22.01 -3.08,32 l -0.35,1.53 c -3.58,5.16 -8.569998,3.23 -13.679998,1.44 2.68,-5.92 3.59,-14.1 5.75,-20.53 2.7,-8.04 6.449998,-15.24 12.609998,-21.21 1.46,1.15 2.16,2.89 3.24,4.31 z"
     id="path20" />
  <path
     class="st12"
     d="m 51.982352,45.08891 c 1.07,-1.19 3.95,-4.9 5.74,-4.01 3.2,1.6 8.61,13.82 9.93,17.5 0.98,2.74 4.88,15.78 4.53,17.79 -0.08,0.43 -7.05,0.86 -5.79,5.44 -2.05,-1.06 -5.44,-1.02 -6.48,-3.6 l -1.2,-0.97 c 1.42,-5.55 1.35,-10.73 0.82,-16.34 -0.2,-2.12 -1.51,-14.52 -3.74,-13.41 -0.52,0.26 -1.06,0.42 -1.64,0.48 -1.94,0.25 -2.81,-1.1 -2.16,-2.88 z"
     id="path22" />
  <path
     class="st12"
     d="m 232.71235,268.28891 v -2.88 c -3.13,0.25 -3.74,5.39 -7.2,2.52 2.3,-1.99 2.5,-5.69 2.87,-8.65 0.75,-6.01 0.57,-12.98 0.74,-19.07 2.73,2.85 6.98,-2.88 7.55,-2.87 0.72,0.01 2.4,3.52 2.55,4.64 0.4,2.94 -0.63,23.26 -1.81,24.9 -0.6,0.84 -3.55,1.09 -4.7,1.42 z"
     id="path24" />
  <path
     class="st12"
     d="m 69.992352,259.63891 c -0.59,-0.64 2.57,-5.04 2.15,-6.48 -4.05,2.16 -4.69,7.86 -10.07,6.47 l 2.15,-5.75 c -0.64,0.21 -6.48,7.93 -5.76,3.95 0.44,-2.44 4.42,-3.66 5.01,-7.23 0.5,-3.05 -1.71,-16.37 -0.67,-17.6 1.62,0.25 2.71,1 4.48,0.58 2.63,-0.63 4.09,-5.13 5.9,-1.97 2.24,3.91 0.99,21.94 -0.98,26.28 -0.3,0.67 -1.36,2.67 -2.21,1.75 z"
     id="path26" />
  <path
     class="st6"
     d="m 54.142352,47.96891 1.6,0.46 c 0.64,3.47 3.46,22.61 1.85,24.28 -0.52,0.54 -1.01,0.93 -1.79,0.87 -4.73,-3.09 -7.29,-2.3 -7.69,2.36 -0.74,1.64 -2.11,3.62 -4.05,2.99 -3.59,0.9 -5.93,-1.73 -3.64,-4.75 0.86,-1.14 3.79,-3.94 4.25,-5.83 0.24,-0.97 -0.76,-2.16 -0.3,-3.1 0.51,-1.05 2.37,-1.3 2.51,-1.51 0.11,-0.16 -0.88,-1.93 -0.69,-3.06 0.08,-0.47 1.25,-0.35 1.44,-0.99 0.26,-0.9 -0.2,-2.09 0.39,-3.08 0.42,-0.72 2.18,-0.89 2.43,-1.86 0.25,-0.97 -1.35,-3.96 -1.34,-5.34 0.92,-1.26 1.57,-2.87 2.88,-4.32 0.89,0.41 1.9,2.05 2.16,2.88 z"
     id="path28" />
  <path
     class="st9"
     d="m 205.34235,213.56891 -7.93,19.43 c -2.96,-2.95 -4.8,-0.45 -7.94,-0.32 -3.25,-3.84 0.46,-8.47 0.03,-11.51 -0.28,-2.02 -3.45,-4.3 -2.88,-6.89 6.25,-0.1 12.55,0.41 18.71,-0.72 z"
     id="path30" />
  <path
     class="st12"
     d="m 187.18235,256.59891 c -0.28,0.2 -3.97,0.93 -4.57,0.95 -1.49,0.03 -0.91,-1.39 -1.04,-1.49 -0.34,-0.27 -1.23,1.11 -1.92,1.31 -3.97,1.11 -0.86,-2.68 -0.38,-3.99 2.04,-5.56 4.15,-11.71 5.21,-17.48 1.26,-0.09 0.52,1.56 1.41,2.53 3.41,3.67 6.79,-3.11 9.36,-0.02 -2.17,2.69 -6.21,16.86 -8.07,18.2 z"
     id="path32" />
  <path
     class="st17"
     d="m 204.62235,198.44891 c -0.02,0.23 -0.02,0.49 0,0.72 -1.57,0.09 -3.38,0 -4.32,-1.44 1.49,0.06 2.98,-0.2 4.32,0.72 z"
     id="path34" />
  <path
     d="m 39.742352,140.12891 c -6.63,-3.38 -13.84,-8.4 -16.19,-15.84 -4.69,-14.87 12.6,-10.25 21.58,-10.8 6.7,-0.41 15.4,-1.67 20.89,-5.75 1.85,-1.37 13.26,-15.95 14.06,-7.53 0.4,4.25 -11.48,14.5 -15.37,16.3 -4.56,2.12 -14.15,2.48 -16.16,3.65 -0.32,0.19 -3.64,4.51 -4.83,5.6 -1.61,1.47 -4.13,2.71 -5.42,4.3 -0.24,0.29 -1.12,0.08 -0.71,1.42 9.33,5.2 19.69,8.39 30.47,8.39 12.13,0 21.65,-1.9 27.04,-13.85 1.33,-2.94 2.06,-11.47 6.159998,-11.11 4.52,0.4 1.53,10.08 0.55,12.78 -2.289998,6.31 -10.119998,15.21 -16.699998,17.14 -4.32,1.27 -9.23,1.13 -13.69,1.79 l 12.63,5.72 c 1.43,0.95 1.55,3.84 -0.11,4.32 -1.29,0.37 -21.75,-9.07 -24.77,-10.4 -3.58,-1.03 -8.05,-1.41 -11.52,-2.52 -1.65,1.46 -4.47,0.15 -4.32,-2.16 -0.94,1.31 -3.07,-0.07 -3.6,-1.44 z"
     id="path36" />
  <path
     class="st7"
     d="m 111.02235,48.68891 c -0.34,1.48 -0.3,3.47 -0.72,5.04 l 1.14,1.12 c -0.89,1.7 -3.01,17.25 -2.09,17.42 3.14,-1.54 7.41,2.34 5.98,5.22 1.35,1.31 6.76,1.45 3.27,5.07 -4.47,4.63 -8.19,-2.91 -8.73,-2.95 -1.59,-0.12 -2.61,2.12 -5.34,0.76 -2.73,-1.36 -2.32,-9.03 -2.19,-11.91 0.16,-3.42 2.66,-20.35 4.32,-22.32 2,-2.38 4.58,-0.3 4.35,2.55 z"
     id="path38" />
  <path
     class="st13"
     d="m 59.902352,78.20891 c -2.36,2.35 -7.58,-0.97 -7.91,-0.72 -0.33,0.25 -0.93,4.66 -4.01,5.06 -2.71,0.36 -4.74,-0.77 -3.92,-3.62 0.33,-1.16 1.92,-1.87 2.47,-2.93 0.55,-1.06 0.47,-2.32 0.97,-3.35 2.1,-4.29 5.65,-1.9 8.79,-0.2 1.1,-1.5 -1.18,-21.42 -2.15,-24.48 0.56,-2.44 1.71,-3.15 3.64,-1.12 2.56,2.71 3.76,18.2 3.59,22.39 -0.05,1.21 -1.14,8.65 -1.47,8.97 z"
     id="path40" />
  <path
     class="st11"
     d="m 110.30235,53.72891 c 0.8,-2.17 2.25,-5.18 5.04,-4.32 0.5,0.47 -2.94,7.21 -2.9,8.97 0.03,1.05 3.81,-0.96 2.18,3.98 -0.72,2.26 -0.48,2.5 0.72,0.72 1.06,-1.45 2.04,-3.28 3.99,-1.47 0.26,3.82 0.79,7.17 1.21,11.04 0.13,1.23 2.45,3.73 -1.39,4.7 -1.11,0.28 -2.62,-0.97 -3.81,0.13 -2.11,-2.04 -2.33,-6.35 -7.19,-2.88 -0.94,-0.7 -0.11,-8.73 0.08,-10.35 0.33,-2.83 1.13,-7.97 2.07,-10.53 z"
     id="path42" />
  <path
     class="st14"
     d="m 190.94235,197.72891 c -3.43,2.66 -4.76,0.26 -6.87,0 -4.85,-0.58 -15.62,7.25 -17.99,6.95 -0.71,-0.09 -1.18,-1.29 -1.79,-1.53 -4.69,-1.87 -7.65,1.71 -9,1.59 -0.77,-0.07 -1.3,-2.1 -3.52,-1.99 -2.74,0.14 -6.22,5.14 -6.91,0.73 2.48,-0.72 3.25,-0.55 5.08,-1.02 1.72,-0.44 4.77,-4.02 7.7,-4.61 3.64,-0.72 3.63,1.62 4.94,1.86 0.87,0.16 2.17,-0.73 3.48,-0.57 0.98,0.12 1.76,1.35 2.61,1.14 1.06,-0.25 2.29,-1.87 3.52,-2.25 1.68,-0.52 3.46,-0.1 5.1,-0.66 2.11,-0.72 4.73,-2.93 7,-3.13 2.53,-0.23 4.36,2.5 6.66,3.46 z"
     id="path44" />
  <path
     class="st1"
     d="m 51.792352,97.75891 c 8.17,-1.49 6.62,14.64 -2.91,9.11 -4.09,-2.37 -0.75,-8.44 2.91,-9.11 z"
     id="path46" />
  <path
     class="st10"
     d="m 111.02235,98.36891 1.49,0.61 c 0.22,1.98 1.16,2.02 2.83,0.11 7.13,5.71 -3.33,13.76 -7.23,6.88 -1.84,-3.25 -0.45,-6.32 2.91,-7.6 z"
     id="path48" />
  <path
     class="st5"
     d="m 47.662352,143.72891 -0.7,0.36 0.7,1.08 c -3.93,-0.1 -5.5,2.86 -7.2,-2.88 0.78,-0.35 1.74,-0.59 2.88,-0.72 1.34,0.55 3.18,1.79 4.32,2.16 z"
     id="path50" />
  <path
     class="st2"
     d="m 115.34235,99.08891 c -0.24,4.74 -4.28,3.31 -4.32,-0.72 0.83,-0.32 1.41,-0.86 2.5,-0.74 1.52,0.17 1.37,1.1 1.82,1.46 z"
     id="path52" />
  <path
     class="st14"
     d="m 198.14235,197.72891 c -2.27,3.34 -3.31,5.91 -5.76,0.72 1.39,-0.03 3.59,-0.69 5.76,-0.72 z"
     id="path54" />
  <path
     class="st16"
     d="m 43.342352,141.56891 c 0.45,2.21 -1.25,1.63 -2.88,0.72 -0.15,-0.5 -1.04,-1.2 -0.72,-2.16 1.3,0.66 2.38,0.93 3.6,1.44 z"
     id="path56" />
  <path
     class="st8"
     d="m 115.34235,63.08891 c -0.63,0.87 -0.76,2.59 -2.15,2.88 -0.38,-1.49 1.09,-2.57 1.43,-3.6 z"
     id="path58" />
  <path
     class="st4"
     d="m 51.992352,101.95891 v -2.87 c 2.87,0.02 2.83,2.87 0,2.87 z"
     id="path60" />
</svg>
