<?xml version="1.0" encoding="UTF-8"?>
<svg id="Layer_1" xmlns="http://www.w3.org/2000/svg" version="1.1" viewBox="0 0 216 288">
  <!-- Generator: Adobe Illustrator 29.8.3, SVG Export Plug-In . SVG Version: 2.1.1 Build 3)  -->
  <defs>
    <style>
      .st0 {
        fill: #166f00;
      }

      .st1 {
        fill: #789c3d;
      }

      .st2 {
        fill: #d6fc97;
      }

      .st3 {
        fill: #112307;
      }

      .st4 {
        fill: #3f5220;
      }

      .st5 {
        fill: #6e9837;
      }

      .st6 {
        fill: #156b00;
      }

      .st7 {
        fill: #1fa100;
      }

      .st8 {
        fill: #081103;
      }

      .st9 {
        fill: #166d01;
      }

      .st10 {
        fill: #1e9e00;
      }

      .st11 {
        fill: #0c2004;
      }

      .st12 {
        fill: #72993a;
      }

      .st13 {
        fill: #090909;
      }

      .st14 {
        fill: #5e9b2b;
      }

      .st15 {
        fill: #060606;
      }

      .st16 {
        fill: #1e9d00;
      }

      .st17 {
        fill: #7ba03e;
      }

      .st18 {
        fill: #092002;
      }

      .st19 {
        fill: #1fa200;
      }

      .st20 {
        fill: #7da23f;
      }

      .st21 {
        fill: #156c00;
      }

      .st22 {
        fill: #7ba03f;
      }

      .st23 {
        fill: #7ca13f;
      }

      .st24 {
        fill: #146900;
      }

      .st25 {
        fill: #115a00;
      }

      .st26 {
        fill: #7da240;
      }

      .st27 {
        fill: #062000;
      }

      .st28 {
        fill: #487e20;
      }

      .st29 {
        fill: #156d00;
      }

      .st30 {
        fill: #fdfdfd;
      }
    </style>
  </defs>
  <path d="M128.24,53.28c.95,1.19,3.54,2.11,4.73,4.26,2.12,3.84,1.87,9.18.44,13.21-1.25,3.52-6.62,7.17-1.43,9.4,3.66-1.67,9.38.23,12.59-1.12,1.41-.59,8.36-10.16,8.99-11.91,1.23-3.43-1.95-6.86-2.43-10.46-.67-5,.47-20.24,8.57-16.49,1.97.91,7.23,7.17,8.39,7.4,1.7.34,4.82-2.23,6.55-2.58,6.88-1.41,4.18,4.27,7,7.08s13.07,2.94,10.11,9.32c-.66,1.42-5.71,5.93-7.22,7.2-1.01.85-7.15,5.7-7.73,5.95-2.42,1.03-4.45.16-6.64.56-2.69.49-8.83,11.73-11.2,14.72-6.27,7.93-9.96,10.72-20.86,9.74,2.41,15.34,5.24,30.46-2.18,44.97,6.48,2.82,13.41,5.14,19.69,8.43,4.53,2.37,17.04,9.86,19.23,13.89,5.76,10.63-6.55,31.87-11.53,41.73,7.86,6.8,28.63,1.43,35.3,8.67,5.35,5.81-7.63,5.66-8.52,10.19-.17.86,1.59,5.13,2.12,6.28,1.48,3.23,7.04,8.64,2.04,10.9-3.44,1.55-11.29-4.06-15.36-1.14-2.34,1.67-.9,18.78-9.5,13.78-3.17-1.85-12.91-15.96-15.45-19.82-2.78-4.22-11.39-17.61-12.06-21.79-1.52-9.55,12.03-25.3,10.64-36.19-11.22-1.05-22.77-1.04-33.67-4.13-4.82-1.36-11.8-5.5-16.35-5.26-4.02.21-9.22,4.12-13.16,5.62-8.85,3.37-19.53,5.48-28.98,5.22l6.62,17.49c13.15,9.36,1.83,23.17-2.65,34.35-2.4,6-5.52,20.27-10.39,24.16-6.23,4.97-7.02-4.18-8.81-7.15-4.4-7.31-13.59,3.45-19.33.61-4.16-2.06,2.48-9.82.37-14.05-1.8-3.62-14.66-1.13-15.49-6.14-.58-3.47,1.74-4.86,4.3-6.47,10.66-6.69,24.61-11.45,36.02-16.91-7.84-6.85-15.1-15.31-19.34-24.93-14.24-32.34,19.97-30.12,40.96-35.96-5.72-15.25-4.24-32.07-1.46-47.82-5.12-.24-21.96-2.02-25.25-5.36-3.92-3.98-1.83-16.78-4.93-20.82-.54-.7-7.59-2.82-9.34-3.8-3.48-1.94-6.78-5.19-7.23-9.35-.83-7.69,3.78-5.02,6.75-8.24s1.72-9.78,4.74-11.13c2.28-1.02,6.46,2.11,10.4,1.83,5.24-.38,9.24-7.45,12.93-2.13.58.83,4.49,11.1,4.57,12,.15,1.64-1.35,6.71-1.98,8.5-2.38,6.77-5.6,7.56-1.31,15.65,1.98,3.74,11.06,1.04,15.21,2.74,3.94-5.37-.57-11.34,1.53-17.36.77-2.22,3.27-4.25,4.38-6.41,1.87-3.66,2.88-8.12,4.77-11.79,3.48-6.78,10.34-16.04,18.94-15.66,6.94.31,17.47,14.07,20.43,19.95.95,1.9,1.42,5.2,2.48,6.53Z"/>
  <path class="st19" d="M56.03,80.85c1.96,4.36,2.54,5.3,6.77,3.19l5.47.41c3.48-.1,11.35,1.19,12.96-2.16,1.4-.49,2.6-.49,3.6,0,3.12,3.28,8.8,4.62,9.47-1.31l1.33-.85c3.01-1.15,7.07-5.62,8.28-8.64,4.23,7.24,10.59,11.1,19.08,9.36l.98.13c.25,1.32.88,2.23,1.9,2.75,2.16,4.2,7.06,2.29,11.52,2.16,1.69,1.06,3.33.92,5.24.74l.52.7.71,1.41c-1.34,1.11-2.54,2.32-3.59,3.63-1.76.15-3.24,1.11-5.38.73-1.96-.35-2.64-3.11-5.68-2.08-2.5.85-.53,3.82-.46,4.96,1.55,2.9,1.79,5.06.72,6.48l-1.02,1.25c-7-.4-3.14,11.51,1.74,5.95l1.67.4c1.59,8.34.02,17.13-2.46,25.31l-2.08,1.65-1.49-.86c-3.33-13.87-20.98,3.21-6.85,7.86,2.33-1.29,4.15-1.47,5.46-.52l1.21.97c-.66,1.33-.82,2.69-.49,4.07-1.27,3.64-.55,5.15,3.6,5.04l1.58.29c1.18,8.04,10.42,10,13.83,2.39l1.87.2c1.1.51,2.33.8,3.6,1.44l.62,1.67c-4.63,1.49-7.45,4.44-6.41,9.71l-.69,1.58c-2.83-.32-5.76-.36-8.64-.72l-1.47-.71c-.54-5.62-7.09-7.56-8.49-1.34l-1.56.62c-6.4-1.54-14.16-6.54-20.53-6.48-4.07.04-11.85,4.86-16.19,6.48l-1.43-.72c-.38-5.45-5.37-2.41-3.93,1.75l-1.12,1.13c-4.3,1.18-7.84,1.64-12.24,2.16l-1.78-.51c-1.99-3.83-6.61-4.08-7.49.59l-1.53.64c-2.3.44-4.39,2.76-3.46,5.21,3.43,7.46,5.93,15.75,9.3,23.14,1.95,4.28,4.81,4.27,3.17,10.55l-9.74,20.86c-.52-.87-.76-2.31-.72-4.32.69-3.76,1.96-4.47.72-8.64-1.82-1.24-3.5-2.68-5.04-4.32h-5.75c4.65-3.15,18.18-5.63,12.61-12.98-4.26-5.62-9.38-9.19-14.05-15.82l.44-1.59c8.13-2.19,1.01-11.31-3.13-4.19l-1.64.03c-1.52-2.95-3.07-7.49-3.6-10.8l1.25-1.11c6.02,1.68,8.71-3.02,4.2-7.32l.31-1.65c2.44-1.06,5.36-1.46,7.92-2.16l1.54.28c2.35,5.84,12.45,3.04,12.26-3.01l1.32-.87c2.12-.42,4.28-.89,6.48-.72l-.08,1.63c-10.26,9.99,12.83,10.15,2.79-.51l-.55-1.85c.47-.1,3.81-.52,4.01-.49.85.14,2.39,4.85,5.57,2.71,2.65-1.79-.06-5.31-.94-7.26-.37-2.2.11-3.64,1.44-4.32l1.85-.17c11.43,3.54,3.28-13.51-1.75-5.19l-1.54.32-1.92-1.45c-3.26-13.26-3.37-26.79-.33-40.59l-.63-1.87c.28-1.47,1.96-4.86-.46-5.68-2.69-.91-3.91,1.96-7.46,2.08l-1.41-.73c-.14-4.1-4.34-5.04-5.66-1.03l-1.57.32c-2.12-.36-9.9-1.38-11.05-2.1-1.32-.82-.96-3.13-1.19-4.38l.14-2.79c2.28-.1,1.99-1.57-.86-4.41-.42-2.21-2.39-7.8-3.93-9.39-3.28-3.4-10.87-3.49-14.06-7.57-.26-.92.58-.86.71-1.04.95-.49,2.16-.14,3.62,1.05,2.2,1.38,3.87,1.75,5.02,1.11.48-1.45,1.47-2.94,2.88-3.6.18.23,2.08,1.54,2.15,1.44-.09-.92.15-2.01,0-2.88,1.09-1.11,4.75-1.36,5.76,0,1.04-.84,1.69-2.37,1.96-4.61l.92-.43c.04-.23-.03-.48,0-.72.31-1.18.57-1.86,1.44-.72,2.42,7.81-4.86,12.4-5.09,17.65-.11,2.52,3.36,12.16,5.09,14.03Z"/>
  <path class="st19" d="M168.35,170.13c-2.34,1.44-8.61,6.09-4.63,8.97,3.02.1,4.32.95,3.91,2.55-1.28,4.52-3.29,8.64-5.04,12.96-1.7,1.11-3.43,2.18-5.19,3.24.27,1.81.56,3.61.87,5.4-5.55,17.21,17.83,16.1,28.8,16.57.17,1.26-1.64.68-2.51.71-4.38.18-9.34.18-13.72.03-1.52-.05-6.53-2.19-6.09.69l.12.99c-2.68-.61-5.12-.22-7.32,1.17l-.62.75c2.8,3.89,4.92,7.96,6.38,12.21.23.4.4.91.72,1.44.59,1.5.35,1.98-.72,1.44-3.73-5.65-7.69-11.57-10.92-17.52-1.04-1.91-3.62-5.75-3.81-7.58-.41-3.83,6.7-17.18,8.26-22.42,2.61-2.03,2.94-4.01,2.16-7.2.68-5.62-2.04-7.85-2.16-10.8-1.4-.95-.94-2.71,1.4-5.27-.78-2.44-.76-4.28.04-5.53,2.71,1.69,8.51,4.56,10.08,7.2Z"/>
  <path class="st26" d="M56.03,220.53c-1.29.72-1.17,2.02-1.46,3.22-1.68,6.78-2.98,13.69-4.3,20.54-4.31-4.6-8.46-4.71-14.39-3.61,3.74-6.25,10.02-11.28,11.51-18.71-6.02,2.87-9.62,8.84-12.97,14.39-2.04.29-1.5-2.41-3.19-4.35-1.3-1.48-2.91-1.89-4.4-2.78-.65-.39-1.42.37-1.04-1.5l23.99-8.59,1.21-2.93c3.67.38,4.04.97,5.04,4.32Z"/>
  <path class="st20" d="M164.75,221.25c.65.1,2.01,1.08,3.41,1.26,5.68.72,11.08.98,16.75.19-2.3,3.47-1.83,7.86,0,11.51-7.78-3.45-13.14-8.59-21.6-10.79-2.3-.49-2.78-.25-1.44.72,5.64,4.8,11.82,7.84,18,11.88-6.17,1.21-7.91,5.52-8.99,11.15-3.06-3.63-4.62-8.14-6.84-12.24-2.63-2.57-6.02-7.91-6.48-11.52,1.32-4.33,3.41-2.26,6.13-1.77.44.08.93-.41,1.07-.39Z"/>
  <path class="st19" d="M93.47,50.61c-1.05-.26-4.14.84-3.58-1.06,1.13-3.83,8.23-14.07,12.2-15.16,7.1-1.94,4.05,3.23,5.07,3.97.78.57,2.06-1.49,2.87-1.13,1.49.67,10.3,11.26,9.36,11.92-6.59-.14-11.88,3.37-15.48,8.63-.6,0-1.99-2.42-2.52-2.87l-.97-1.35c.55-4.06-1.98-6.91-5.28-3.35-.43.47-1.06.52-1.67.38Z"/>
  <path class="st30" d="M116.33,55.78c2.05-.39,7.04,1.85,8.77,3.15,8.14,6.11-2.09,21.25-11.84,14-6.26-4.65-4.88-15.66,3.07-17.15Z"/>
  <path class="st21" d="M158.27,162.93c.34,1.94,1.65,3.18,1.44,5.33-.23,2.45-2.96,3.6-2.88,5.47-4.15-2.24-9.08-2.37-13.68-2.88-2.41-2.78-.17-9.1,2.48-10.84,1.33-.87,3.36-.38,4-2.12,3.3,1.67,5.57,3.12,8.64,5.04Z"/>
  <path class="st30" d="M97.57,60.9c1.08,1.39,1.09,3.52.96,5.18-.9,11.54-17.11,11.88-15.17-2.19.83-6.04,10.69-7.49,14.21-2.99Z"/>
  <path class="st2" d="M125.15,148.53c-2.37-.86-1.2-3.35-.72-5.04-.53-1.84.75-6.22,2.88-6.48,2.01-5.62,3.18-10.91,3.59-16.93.21-3.07.47-7.57-.71-10.43-1.94-.84-2.7-6.16-.72-7.2-.35-2.66-.57-3.96-.72-6.48,2.47,3.24,3.4,7.41,4.11,11.37,1.61,9.06,2.96,22.93-1.39,31.3-1.68,3.23-4.83,5.63-6.31,9.89Z"/>
  <path class="st2" d="M79.07,95.25c2.28-.65,1.55,3.62,1.47,4.71-1.31,16.81-3.73,21.9,1.41,39.21,2.2.29,2.64,3.45,1.44,5.04.09,1.57,0,3.38-1.44,4.32-9.34-20.81-6.96-31.6-2.88-53.28Z"/>
  <path class="st21" d="M146.03,156.45c-2.04,1.51-1.52,3.59-4.13,4.87-3.98,1.96-9.01,1.36-11.3-2.76-.3-.55-1.87-4.72-1.85-4.99.01-.18,2.17-2.63,2.32-2.72,2.1-1.22,12.34,4.39,14.96,5.6Z"/>
  <path class="st7" d="M161.15,57.81c.92.02,1.64.74,2.16,2.16.59-.99,1.59-1.06,2.99-.21l2.77.21v2.16c.09.1,2.04-1.27,2.16-1.44,1.31-.89,1.68-.95,2.16.72l.35,2.17,6.49-.72c-1.95.75-5.04,4.43-6.64,4.88-2.99.84-5.56-.77-8.85,1.59-2.31,1.38-3.51-.3-3.6-5.04-1.19-2.64-3.36-7.77-3.64-10.41-.07-.7-.46-3.43.75-3.27.18,2.82,1.21,5,2.89,7.2Z"/>
  <path class="st21" d="M73.31,153.57c4,1.51,6.42,5.79,3.28,9.41-5.99,6.9-15.3-4.45-5.44-8.69.8-.34,1.29-.53,2.16-.72Z"/>
  <path class="st21" d="M64.67,155.01c1.76,8.49-13.52,12.21-15.12,3.6,4.96-1.36,10.07-2.6,15.12-3.6Z"/>
  <path class="st21" d="M35.87,170.85c-.86-5.39.7-7.9,5.76-10.08,6.88,5.72,2.5,13.05-5.76,10.08Z"/>
  <path class="st21" d="M168.35,170.13c2.08,3.5.29,7.96-.72,11.52-1.22-1.31-3.11-.26-4.74-1.38-4.41-3.03.24-11.03,5.46-10.14Z"/>
  <path class="st21" d="M43.79,187.41c-1.31-1.86-3.17-3.52-4.32-5.76,5.37-11.12,16.89,3.01,4.32,5.76Z"/>
  <path class="st23" d="M45.95,55.65c-.2-1.15-3.2-6.98-2.88-7.19,3.64.3,7.05-1.07,10.43-2.18.7-.02.31,1.49.37,2.17.09,2.84-.63,5.24-2.16,7.2-1.86.95-3.94,1.11-5.76,0Z"/>
  <path class="st22" d="M43.79,57.09c.19,1.99-.84,3.47-2.88,3.6-1.6,1.08-7.42-1.43-7.2-3.6,2.51-2.52,5.09-4.79,5.77-8.64,2.79,1.7,2.39,6.21,4.31,8.64Z"/>
  <path class="st6" d="M134.51,170.13c-3.86-.48-7.68-.52-11.52-1.44,1.16-9.22,11.56-6.8,11.52,1.44Z"/>
  <path class="st17" d="M161.15,50.61c3.31,3.73,4.97,4.04,10.08,3.61-1.43,1.29-1.61,4.8-2.16,5.75-1.33,2.31-4.05,1.05-5.76,0-1.07-1.18-1.55-2.38-1.44-3.6-.89-1.93-.96-2.29-1.44-4.32-.35-1.31-.11-1.79.72-1.44Z"/>
  <path class="st21" d="M95.63,80.13c1.45,7.37-10.17,8.82-10.8,2.16-2.06-.87-1.45-2.62.72-2.16,3.26.89,6.85,1.23,10.08,0Z"/>
  <path class="st21" d="M67.55,173.01c-3.42.41-8.03.2-10.8.72.61-7.37,8.55-7.24,10.8-.72Z"/>
  <path class="st6" d="M101.39,54.93c-2.22-1.87-5.07-3.62-7.92-4.32,2.21-7.44,11.18-1.78,7.92,4.32Z"/>
  <path class="st29" d="M86.27,168.69c-2.12.79-4.3,1.56-6.48,2.16-3.01-7.48,6.86-10.71,6.48-2.16Z"/>
  <path class="st6" d="M71.15,91.65c-3.04.1-5.75-.95-8.64-1.44,1.4-6.68,9.16-5.18,8.64,1.44Z"/>
  <path class="st21" d="M162.59,194.61c-1.09,2.69-3.66,6.59-4.32,8.64-5.08-4.58-1.9-9.01,4.32-8.64Z"/>
  <path class="st10" d="M153.23,85.17c-1.38,1.71-2.63,3.6-4.32,5.04-1.89-.18-5.24-.89-5.76-2.88-1.05-.61-.81-1.09.72-1.44,3.19-.28,4.09-.68,6.48-2.88,1.36-1.65,3.76.32,2.88,2.16Z"/>
  <path class="st24" d="M158.99,77.25c-1.98,2.71-3.6,5.25-5.76,7.92l-2.88-2.16c1.58-1.46,4.44-5.31,5.76-7.2,1.46-.36,2.53-.18,2.88,1.44Z"/>
  <path class="st0" d="M143.87,85.89c-.27.46-.44.99-.72,1.44,2.1.34,4.85.67,5.76,2.88-3.15,2.69-4.92,1.83-8.64,2.16-.84-3.29,1.8-3.35,2.88-5.04-1.6-.26-4.52,1.43-5.76-1.44,2.12-.06,4.42.18,6.48,0Z"/>
  <path class="st1" d="M171.23,60.69c.3-.45,2.44-7.28,3.59-6.48-.08,2.92,3.87,2.74,3.61,5.03-1.86.07-3.46,1.76-5.04,2.17-.59.15-2.02.11-2.16-.72Z"/>
  <path class="st6" d="M164.75,69.33c-.69.5-3.62,4.08-4.32,5.04-1,1.91-2.76,1.41-2.88-.72,1.81-2.88,4.27-5.74,3.6-9.36.89,1.98,1.38,4.11,3.6,5.04Z"/>
  <path class="st8" d="M157.55,223.41c2.77,3.19,4.51,7.9,6.48,11.52l-.72,1.44c-1.9-3.29-6.95-10.2-7.91-13.33-.11-.37-.2-1.17.35-1.06.37.68,1.44,1.02,1.8,1.44Z"/>
  <path class="st21" d="M68.27,84.45c-1.63.05-3.82-.3-5.26.01-.59.13-.53,1.52-1.87,1.86-4.34,1.12-5.45-1.63-5.1-5.48,3.78,4.08,7.73,1.96,12.24,3.6Z"/>
  <path class="st6" d="M49.55,76.53c2.87-.55,4.74,3.02,3.28,5.1-.64.91-3.04-.11-2.56,2.1-.49-2.7-.31-5.05-.72-7.2Z"/>
  <path class="st18" d="M40.91,60.69c.31.2.79,1.51,1.44,1.8-3.03.33-7.18-2.43-10.08-3.96.33-.47.99-.99,1.44-1.44,1.59,2.04,5.45,2.47,7.2,3.6Z"/>
  <path class="st14" d="M56.03,233.49c-.22,2.67-1.29,6.08-2.16,8.64-.73,1.06-.97.82-.72-.72.85-4,1.42-8.2,2.16-12.24,1.12.72.82,3.04.72,4.32Z"/>
  <path class="st6" d="M156.83,191.73c.56-1.89,1.96-5.53,2.16-7.2,2.65,2.42,2.01,7.55-2.16,7.2Z"/>
  <path class="st12" d="M85.55,80.13c-.32.61-.78,1.49-.72,2.16-1.51,1.21-2.68,2.34-3.6,0,.45-.94.58-2.52.73-3.6,1.43-.19,2.4,1.12,3.59,1.44Z"/>
  <path class="st3" d="M54.59,50.61c-.43,2.28-1.04,5.6-2.87,6.48,0-.48-.04-.96,0-1.44.15-1.98,1.23-5.36,2.16-7.2.07.78-.25,1.81.72,2.16Z"/>
  <path class="st16" d="M160.43,74.37c-.59.8-.87,2.1-1.44,2.88-1.26.12-2.51-.12-2.88-1.44.49-.71.98-1.43,1.44-2.16l2.88.72Z"/>
  <path class="st5" d="M122.99,80.85c.19-.04,1.52-1.31,2.15-.72.13.13.31,2.79.73,3.6l-.35.7c-1.85-.64-2.31-1.68-2.53-3.58Z"/>
  <path class="st8" d="M164.03,237.81c.54.91,3.54,4.97,2.87,5.76-1.99-.75-2.59-2.81-3.59-4.32l.72-1.44Z"/>
  <path class="st28" d="M53.87,242.13c-.4,1.18-1.01,3.87-2.15,4.32-.39-1.82,1.15-3.72,1.43-5.04l.72.72Z"/>
  <path class="st25" d="M42.35,218.38v.7s-4.31.72-4.31.72c-.99-.46,3.13-1.98,4.31-1.43Z"/>
  <path class="st11" d="M163.31,59.97c-1.25-.76-1.36-1.11-2.16-2.16l.72-1.44c.52,1.12,1.48,2.09,1.44,3.6Z"/>
  <path class="st11" d="M161.15,50.61l-.72,1.44c-.16-.69-1.22-1.62-.71-2.88.88-.03,1.05,1.01,1.43,1.44Z"/>
  <path class="st4" d="M163.31,223.41l-1.44.72c-.45-.38-1.47-.56-1.44-1.43,1.27-.49,2.15.52,2.88.71Z"/>
  <path class="st3" d="M54.59,49.89c.22-1.55-.74-2.53,1.44-2.16.1.45-.11,1.07,0,1.44l-1.44.72Z"/>
  <path class="st21" d="M94.41,127.87c.5-.55,4.66-3.09,5.54-3.45,9.8-4.03,14.04,7.71,5,13.64-8.19,5.38-15.5-4.66-10.54-10.19Z"/>
  <path class="st21" d="M124.43,143.49c-.27.19-4.94,2-5.28,1.98-2.25-.11-6.28-3.03-6.81-5.38-2.34-10.41,14.66-16.2,14.97-3.08-.69,1.94-.9,5.09-2.88,6.48Z"/>
  <path class="st21" d="M87.52,110.48c1.84-.36,3.71.71,5.18,1.74,8.91,6.3-2.29,17.3-8.97,11.85-4.96-4.03-1.47-12.58,3.8-13.6Z"/>
  <path class="st21" d="M116.32,111.93c6.27-1.3,11.7,8.06,4.46,12.42-11.36,6.84-13.66-10.51-4.46-12.42Z"/>
  <path class="st21" d="M91.14,92.49c7.31-1.18,8.24,13.98-.75,11.98-5.56-1.24-6.15-10.86.75-11.98Z"/>
  <path class="st21" d="M106.23,83.84c7.63-1.17,6.24,11.81-.16,11.81-7.02,0-6.12-10.85.16-11.81Z"/>
  <path class="st21" d="M100.14,104.08c3.87-3.65,13.34,4.35,6.67,9.18-6.7,4.85-10.95-5.14-6.67-9.18Z"/>
  <path class="st21" d="M113.42,93.24c8.13-2.43,10.16,8.42,3.83,10.36-6.37,1.95-10.02-8.5-3.83-10.36Z"/>
  <path class="st21" d="M83.39,144.21c-1.07-1.37-1-3.56-1.44-5.04,1.6-8.89,13.53-1.53,9.99,4.6-1.89,3.27-6.36,3.25-8.55.44Z"/>
  <path class="st21" d="M99.44,154.07c-5.15-4.39,2.25-12.7,7.41-7.04,4.61,5.06-2.82,10.95-7.41,7.04Z"/>
  <path class="st21" d="M114.88,152.26c7.63-1.57,7.76,9.85,1.89,10.49s-7.59-9.32-1.89-10.49Z"/>
  <path class="st9" d="M129.47,102.45c.34,2.57.81,4.47.72,7.2-.03.93.17,1.88-.07,2.79-8.82,2.42-9.37-12.32-.65-9.99Z"/>
  <path class="st21" d="M106.23,43.52c5.35-.82,6.27,7.82,1.23,8.55-5.35.77-6.64-7.72-1.23-8.55Z"/>
  <path class="st27" d="M101.39,36.93v2.87s-1.07,0-1.07,0c-1.13-.76-1.26-1.54-1.09-2.87h2.15Z"/>
  <path class="st15" d="M116.29,60.84c8.61-2.59,9.76,7.81,2.74,7.8-4.94,0-6.36-6.72-2.74-7.8Z"/>
  <path class="st13" d="M87.47,62.95c4.77-1.62,7.11,6.1,1.31,5.73-3.77-.24-3.8-4.89-1.31-5.73Z"/>
</svg>