<?xml version="1.0" encoding="UTF-8" standalone="no"?>
<svg
   id="Layer_1"
   version="1.1"
   viewBox="0 0 189.30861 231.61267"
   sodipodi:docname="frog.svg"
   width="189.30861"
   height="231.61267"
   xmlns:inkscape="http://www.inkscape.org/namespaces/inkscape"
   xmlns:sodipodi="http://sodipodi.sourceforge.net/DTD/sodipodi-0.dtd"
   xmlns="http://www.w3.org/2000/svg"
   xmlns:svg="http://www.w3.org/2000/svg">
  <sodipodi:namedview
     id="namedview139"
     pagecolor="#ffffff"
     bordercolor="#000000"
     borderopacity="0.25"
     inkscape:showpageshadow="2"
     inkscape:pageopacity="0.0"
     inkscape:pagecheckerboard="0"
     inkscape:deskcolor="#d1d1d1" />
  <!-- Generator: Adobe Illustrator 29.8.3, SVG Export Plug-In . SVG Version: 2.1.1 Build 3)  -->
  <defs
     id="defs4">
    <style
       id="style2">
      .st0 {
        fill: #166f00;
      }

      .st1 {
        fill: #789c3d;
      }

      .st2 {
        fill: #d6fc97;
      }

      .st3 {
        fill: #112307;
      }

      .st4 {
        fill: #3f5220;
      }

      .st5 {
        fill: #6e9837;
      }

      .st6 {
        fill: #156b00;
      }

      .st7 {
        fill: #1fa100;
      }

      .st8 {
        fill: #081103;
      }

      .st9 {
        fill: #166d01;
      }

      .st10 {
        fill: #1e9e00;
      }

      .st11 {
        fill: #0c2004;
      }

      .st12 {
        fill: #72993a;
      }

      .st13 {
        fill: #090909;
      }

      .st14 {
        fill: #5e9b2b;
      }

      .st15 {
        fill: #060606;
      }

      .st16 {
        fill: #1e9d00;
      }

      .st17 {
        fill: #7ba03e;
      }

      .st18 {
        fill: #092002;
      }

      .st19 {
        fill: #1fa200;
      }

      .st20 {
        fill: #7da23f;
      }

      .st21 {
        fill: #156c00;
      }

      .st22 {
        fill: #7ba03f;
      }

      .st23 {
        fill: #7ca13f;
      }

      .st24 {
        fill: #146900;
      }

      .st25 {
        fill: #115a00;
      }

      .st26 {
        fill: #7da240;
      }

      .st27 {
        fill: #062000;
      }

      .st28 {
        fill: #487e20;
      }

      .st29 {
        fill: #156d00;
      }

      .st30 {
        fill: #fdfdfd;
      }
    </style>
  </defs>
  <path
     d="m 117.64986,26.531329 c 0.95,1.19 3.54,2.11 4.73,4.26 2.12,3.84 1.87,9.18 0.44,13.21 -1.25,3.52 -6.62,7.17 -1.43,9.4 3.66,-1.67 9.38,0.23 12.59,-1.12 1.41,-0.59 8.36,-10.16 8.99,-11.91 1.23,-3.43 -1.95,-6.86 -2.43,-10.46 -0.67,-5 0.47,-20.24 8.57,-16.49 1.97,0.91 7.23,7.17 8.39,7.4 1.7,0.34 4.82,-2.23 6.55,-2.58 6.88,-1.41 4.18,4.27 7,7.08 2.82,2.81 13.07,2.94 10.11,9.32 -0.66,1.42 -5.71,5.93 -7.22,7.2 -1.01,0.85 -7.15,5.7 -7.73,5.95 -2.42,1.03 -4.45,0.16 -6.64,0.56 -2.69,0.49 -8.83,11.73 -11.2,14.72 -6.27,7.93 -9.96,10.72 -20.86,9.74 2.41,15.34 5.24,30.460001 -2.18,44.970001 6.48,2.82 13.41,5.14 19.69,8.43 4.53,2.37 17.04,9.86 19.23,13.89 5.76,10.63 -6.55,31.87 -11.53,41.73 7.86,6.8 28.63,1.43 35.3,8.67 5.35,5.81 -7.63,5.66 -8.52,10.19 -0.17,0.86 1.59,5.13 2.12,6.28 1.48,3.23 7.04,8.64 2.04,10.9 -3.44,1.55 -11.29,-4.06 -15.36,-1.14 -2.34,1.67 -0.9,18.78 -9.5,13.78 -3.17,-1.85 -12.91,-15.96 -15.45,-19.82 -2.78,-4.22 -11.39,-17.61 -12.06,-21.79 -1.52,-9.55 12.03,-25.3 10.64,-36.19 -11.22,-1.05 -22.77,-1.04 -33.67,-4.13 -4.82,-1.36 -11.799998,-5.5 -16.349998,-5.26 -4.02,0.21 -9.22,4.12 -13.16,5.62 -8.85,3.37 -19.53,5.48 -28.98,5.22 l 6.62,17.49 c 13.15,9.36 1.83,23.17 -2.65,34.35 -2.4,6 -5.52,20.27 -10.39,24.16 -6.23,4.97 -7.02,-4.18 -8.81,-7.15 -4.4,-7.31 -13.59,3.45 -19.33,0.61 -4.16,-2.06 2.48,-9.82 0.37,-14.05 -1.8,-3.62 -14.66000019,-1.13 -15.49000019,-6.14 -0.58,-3.47 1.73999999,-4.86 4.29999999,-6.47 10.6600002,-6.69 24.6100002,-11.45 36.0200002,-16.91 -7.84,-6.85 -15.1,-15.31 -19.34,-24.93 -14.2400002,-32.34 19.97,-30.12 40.96,-35.96 -5.72,-15.25 -4.24,-32.070001 -1.46,-47.820001 -5.12,-0.24 -21.96,-2.02 -25.25,-5.36 -3.92,-3.98 -1.83,-16.78 -4.93,-20.82 -0.54,-0.7 -7.59,-2.82 -9.34,-3.8 -3.48,-1.94 -6.78,-5.19 -7.23,-9.35 -0.83,-7.69 3.78,-5.02 6.75,-8.24 2.97,-3.22 1.72,-9.78 4.74,-11.13 2.28,-1.02 6.46,2.11 10.4,1.83 5.24,-0.38 9.24,-7.45 12.93,-2.13 0.58,0.83 4.49,11.1 4.57,12 0.15,1.64 -1.35,6.71 -1.98,8.5 -2.38,6.77 -5.6,7.56 -1.31,15.65 1.98,3.74 11.06,1.04 15.21,2.74 3.94,-5.37 -0.57,-11.34 1.53,-17.36 0.77,-2.22 3.27,-4.25 4.38,-6.41 1.87,-3.66 2.88,-8.12 4.77,-11.79 3.48,-6.78 10.34,-16.03999999 18.94,-15.65999999 6.939998,0.31 17.469998,14.06999999 20.429998,19.94999999 0.95,1.9 1.42,5.2 2.48,6.53 z"
     id="path6" />
  <path
     class="st19"
     d="m 45.439862,54.101329 c 1.96,4.36 2.54,5.3 6.77,3.19 l 5.47,0.41 c 3.48,-0.1 11.35,1.19 12.96,-2.16 1.4,-0.49 2.6,-0.49 3.6,0 3.12,3.28 8.8,4.62 9.47,-1.31 l 1.33,-0.85 c 3.01,-1.15 7.07,-5.62 8.28,-8.64 4.23,7.24 10.589998,11.1 19.079998,9.36 l 0.98,0.13 c 0.25,1.32 0.88,2.23 1.9,2.75 2.16,4.2 7.06,2.29 11.52,2.16 1.69,1.06 3.33,0.92 5.24,0.74 l 0.52,0.7 0.71,1.41 c -1.34,1.11 -2.54,2.32 -3.59,3.63 -1.76,0.15 -3.24,1.11 -5.38,0.73 -1.96,-0.35 -2.64,-3.11 -5.68,-2.08 -2.5,0.85 -0.53,3.82 -0.46,4.96 1.55,2.9 1.79,5.06 0.72,6.48 l -1.02,1.25 c -7,-0.4 -3.14,11.51 1.74,5.95 l 1.67,0.4 c 1.59,8.34 0.02,17.130001 -2.46,25.310001 l -2.08,1.65 -1.49,-0.86 c -3.33,-13.870001 -20.979998,3.21 -6.85,7.86 2.33,-1.29 4.15,-1.47 5.46,-0.52 l 1.21,0.97 c -0.66,1.33 -0.82,2.69 -0.49,4.07 -1.27,3.64 -0.55,5.15 3.6,5.04 l 1.58,0.29 c 1.18,8.04 10.42,10 13.83,2.39 l 1.87,0.2 c 1.1,0.51 2.33,0.8 3.6,1.44 l 0.62,1.67 c -4.63,1.49 -7.45,4.44 -6.41,9.71 l -0.69,1.58 c -2.83,-0.32 -5.76,-0.36 -8.64,-0.72 l -1.47,-0.71 c -0.54,-5.62 -7.09,-7.56 -8.49,-1.34 l -1.56,0.62 c -6.4,-1.54 -14.159998,-6.54 -20.529998,-6.48 -4.07,0.04 -11.85,4.86 -16.19,6.48 l -1.43,-0.72 c -0.38,-5.45 -5.37,-2.41 -3.93,1.75 l -1.12,1.13 c -4.3,1.18 -7.84,1.64 -12.24,2.16 l -1.78,-0.51 c -1.99,-3.83 -6.61,-4.08 -7.49,0.59 l -1.53,0.64 c -2.3,0.44 -4.39,2.76 -3.46,5.21 3.43,7.46 5.93,15.75 9.3,23.14 1.95,4.28 4.81,4.27 3.17,10.55 l -9.74,20.86 c -0.52,-0.87 -0.76,-2.31 -0.72,-4.32 0.69,-3.76 1.96,-4.47 0.72,-8.64 -1.82,-1.24 -3.5,-2.68 -5.04,-4.32 h -5.75 c 4.65,-3.15 18.18,-5.63 12.61,-12.98 -4.26,-5.62 -9.38,-9.19 -14.05,-15.82 l 0.44,-1.59 c 8.13,-2.19 1.01,-11.31 -3.13,-4.19 l -1.64,0.03 c -1.52,-2.95 -3.07,-7.49 -3.6,-10.8 l 1.25,-1.11 c 6.02,1.68 8.71,-3.02 4.2,-7.32 l 0.31,-1.65 c 2.44,-1.06 5.36,-1.46 7.92,-2.16 l 1.54,0.28 c 2.35,5.84 12.45,3.04 12.26,-3.01 l 1.32,-0.87 c 2.12,-0.42 4.28,-0.89 6.48,-0.72 l -0.08,1.63 c -10.26,9.99 12.83,10.15 2.79,-0.51 l -0.55,-1.85 c 0.47,-0.1 3.81,-0.52 4.01,-0.49 0.85,0.14 2.39,4.85 5.57,2.71 2.65,-1.79 -0.06,-5.31 -0.94,-7.26 -0.37,-2.2 0.11,-3.64 1.44,-4.32 l 1.85,-0.17 c 11.43,3.54 3.28,-13.51 -1.75,-5.19 l -1.54,0.32 -1.92,-1.45 c -3.26,-13.260001 -3.37,-26.790001 -0.33,-40.590001 l -0.63,-1.87 c 0.28,-1.47 1.96,-4.86 -0.46,-5.68 -2.69,-0.91 -3.91,1.96 -7.46,2.08 l -1.41,-0.73 c -0.14,-4.1 -4.34,-5.04 -5.66,-1.03 l -1.57,0.32 c -2.12,-0.36 -9.9,-1.38 -11.05,-2.1 -1.32,-0.82 -0.96,-3.13 -1.19,-4.38 l 0.14,-2.79 c 2.28,-0.1 1.99,-1.57 -0.86,-4.41 -0.42,-2.21 -2.39,-7.8 -3.93,-9.39 -3.28,-3.4 -10.87,-3.49 -14.06,-7.57 -0.26,-0.92 0.58,-0.86 0.71,-1.04 0.95,-0.49 2.16,-0.14 3.62,1.05 2.2,1.38 3.87,1.75 5.02,1.11 0.48,-1.45 1.47,-2.94 2.88,-3.6 0.18,0.23 2.08,1.54 2.15,1.44 -0.09,-0.92 0.15,-2.01 0,-2.88 1.09,-1.11 4.75,-1.36 5.76,0 1.04,-0.84 1.69,-2.37 1.96,-4.61 l 0.92,-0.43 c 0.04,-0.23 -0.03,-0.48 0,-0.72 0.31,-1.18 0.57,-1.86 1.44,-0.72 2.42,7.81 -4.86,12.4 -5.09,17.65 -0.11,2.52 3.36,12.16 5.09,14.03 z"
     id="path8" />
  <path
     class="st19"
     d="m 157.75986,143.38133 c -2.34,1.44 -8.61,6.09 -4.63,8.97 3.02,0.1 4.32,0.95 3.91,2.55 -1.28,4.52 -3.29,8.64 -5.04,12.96 -1.7,1.11 -3.43,2.18 -5.19,3.24 0.27,1.81 0.56,3.61 0.87,5.4 -5.55,17.21 17.83,16.1 28.8,16.57 0.17,1.26 -1.64,0.68 -2.51,0.71 -4.38,0.18 -9.34,0.18 -13.72,0.03 -1.52,-0.05 -6.53,-2.19 -6.09,0.69 l 0.12,0.99 c -2.68,-0.61 -5.12,-0.22 -7.32,1.17 l -0.62,0.75 c 2.8,3.89 4.92,7.96 6.38,12.21 0.23,0.4 0.4,0.91 0.72,1.44 0.59,1.5 0.35,1.98 -0.72,1.44 -3.73,-5.65 -7.69,-11.57 -10.92,-17.52 -1.04,-1.91 -3.62,-5.75 -3.81,-7.58 -0.41,-3.83 6.7,-17.18 8.26,-22.42 2.61,-2.03 2.94,-4.01 2.16,-7.2 0.68,-5.62 -2.04,-7.85 -2.16,-10.8 -1.4,-0.95 -0.94,-2.71 1.4,-5.27 -0.78,-2.44 -0.76,-4.28 0.04,-5.53 2.71,1.69 8.51,4.56 10.08,7.2 z"
     id="path10" />
  <path
     class="st26"
     d="m 45.439862,193.78133 c -1.29,0.72 -1.17,2.02 -1.46,3.22 -1.68,6.78 -2.98,13.69 -4.3,20.54 -4.31,-4.6 -8.46,-4.71 -14.39,-3.61 3.74,-6.25 10.02,-11.28 11.51,-18.71 -6.02,2.87 -9.62,8.84 -12.97,14.39 -2.04,0.29 -1.5,-2.41 -3.19,-4.35 -1.3,-1.48 -2.91,-1.89 -4.4,-2.78 -0.65,-0.39 -1.42,0.37 -1.04,-1.5 l 23.99,-8.59 1.21,-2.93 c 3.67,0.38 4.04,0.97 5.04,4.32 z"
     id="path12" />
  <path
     class="st20"
     d="m 154.15986,194.50133 c 0.65,0.1 2.01,1.08 3.41,1.26 5.68,0.72 11.08,0.98 16.75,0.19 -2.3,3.47 -1.83,7.86 0,11.51 -7.78,-3.45 -13.14,-8.59 -21.6,-10.79 -2.3,-0.49 -2.78,-0.25 -1.44,0.72 5.64,4.8 11.82,7.84 18,11.88 -6.17,1.21 -7.91,5.52 -8.99,11.15 -3.06,-3.63 -4.62,-8.14 -6.84,-12.24 -2.63,-2.57 -6.02,-7.91 -6.48,-11.52 1.32,-4.33 3.41,-2.26 6.13,-1.77 0.44,0.08 0.93,-0.41 1.07,-0.39 z"
     id="path14" />
  <path
     class="st19"
     d="m 82.879862,23.861329 c -1.05,-0.26 -4.14,0.84 -3.58,-1.06 1.13,-3.83 8.23,-14.07 12.2,-15.16 7.1,-1.94 4.05,3.23 5.07,3.97 0.78,0.57 2.06,-1.49 2.87,-1.13 1.489998,0.67 10.299998,11.26 9.359998,11.92 -6.59,-0.14 -11.879998,3.37 -15.479998,8.63 -0.6,0 -1.99,-2.42 -2.52,-2.87 l -0.97,-1.35 c 0.55,-4.06 -1.98,-6.91 -5.28,-3.35 -0.43,0.47 -1.06,0.52 -1.67,0.38 z"
     id="path16" />
  <path
     class="st30"
     d="m 105.73986,29.031329 c 2.05,-0.39 7.04,1.85 8.77,3.15 8.14,6.11 -2.09,21.25 -11.84,14 -6.259998,-4.65 -4.879998,-15.66 3.07,-17.15 z"
     id="path18" />
  <path
     class="st21"
     d="m 147.67986,136.18133 c 0.34,1.94 1.65,3.18 1.44,5.33 -0.23,2.45 -2.96,3.6 -2.88,5.47 -4.15,-2.24 -9.08,-2.37 -13.68,-2.88 -2.41,-2.78 -0.17,-9.1 2.48,-10.84 1.33,-0.87 3.36,-0.38 4,-2.12 3.3,1.67 5.57,3.12 8.64,5.04 z"
     id="path20" />
  <path
     class="st30"
     d="m 86.979862,34.151329 c 1.08,1.39 1.09,3.52 0.96,5.18 -0.9,11.54 -17.11,11.88 -15.17,-2.19 0.83,-6.04 10.69,-7.49 14.21,-2.99 z"
     id="path22" />
  <path
     class="st2"
     d="m 114.55986,121.78133 c -2.37,-0.86 -1.2,-3.35 -0.72,-5.04 -0.53,-1.84 0.75,-6.22 2.88,-6.48 2.01,-5.62 3.18,-10.910001 3.59,-16.930001 0.21,-3.07 0.47,-7.57 -0.71,-10.43 -1.94,-0.84 -2.7,-6.16 -0.72,-7.2 -0.35,-2.66 -0.57,-3.96 -0.72,-6.48 2.47,3.24 3.4,7.41 4.11,11.37 1.61,9.06 2.96,22.930001 -1.39,31.300001 -1.68,3.23 -4.83,5.63 -6.31,9.89 z"
     id="path24" />
  <path
     class="st2"
     d="m 68.479862,68.501329 c 2.28,-0.65 1.55,3.62 1.47,4.71 -1.31,16.81 -3.73,21.9 1.41,39.210001 2.2,0.29 2.64,3.45 1.44,5.04 0.09,1.57 0,3.38 -1.44,4.32 -9.34,-20.81 -6.96,-31.600001 -2.88,-53.280001 z"
     id="path26" />
  <path
     class="st21"
     d="m 135.43986,129.70133 c -2.04,1.51 -1.52,3.59 -4.13,4.87 -3.98,1.96 -9.01,1.36 -11.3,-2.76 -0.3,-0.55 -1.87,-4.72 -1.85,-4.99 0.01,-0.18 2.17,-2.63 2.32,-2.72 2.1,-1.22 12.34,4.39 14.96,5.6 z"
     id="path28" />
  <path
     class="st7"
     d="m 150.55986,31.061329 c 0.92,0.02 1.64,0.74 2.16,2.16 0.59,-0.99 1.59,-1.06 2.99,-0.21 l 2.77,0.21 v 2.16 c 0.09,0.1 2.04,-1.27 2.16,-1.44 1.31,-0.89 1.68,-0.95 2.16,0.72 l 0.35,2.17 6.49,-0.72 c -1.95,0.75 -5.04,4.43 -6.64,4.88 -2.99,0.84 -5.56,-0.77 -8.85,1.59 -2.31,1.38 -3.51,-0.3 -3.6,-5.04 -1.19,-2.64 -3.36,-7.77 -3.64,-10.41 -0.07,-0.7 -0.46,-3.43 0.75,-3.27 0.18,2.82 1.21,5 2.89,7.2 z"
     id="path30" />
  <path
     class="st21"
     d="m 62.719862,126.82133 c 4,1.51 6.42,5.79 3.28,9.41 -5.99,6.9 -15.3,-4.45 -5.44,-8.69 0.8,-0.34 1.29,-0.53 2.16,-0.72 z"
     id="path32" />
  <path
     class="st21"
     d="m 54.079862,128.26133 c 1.76,8.49 -13.52,12.21 -15.12,3.6 4.96,-1.36 10.07,-2.6 15.12,-3.6 z"
     id="path34" />
  <path
     class="st21"
     d="m 25.279862,144.10133 c -0.86,-5.39 0.7,-7.9 5.76,-10.08 6.88,5.72 2.5,13.05 -5.76,10.08 z"
     id="path36" />
  <path
     class="st21"
     d="m 157.75986,143.38133 c 2.08,3.5 0.29,7.96 -0.72,11.52 -1.22,-1.31 -3.11,-0.26 -4.74,-1.38 -4.41,-3.03 0.24,-11.03 5.46,-10.14 z"
     id="path38" />
  <path
     class="st21"
     d="m 33.199862,160.66133 c -1.31,-1.86 -3.17,-3.52 -4.32,-5.76 5.37,-11.12 16.89,3.01 4.32,5.76 z"
     id="path40" />
  <path
     class="st23"
     d="m 35.359862,28.901329 c -0.2,-1.15 -3.2,-6.98 -2.88,-7.19 3.64,0.3 7.05,-1.07 10.43,-2.18 0.7,-0.02 0.31,1.49 0.37,2.17 0.09,2.84 -0.63,5.24 -2.16,7.2 -1.86,0.95 -3.94,1.11 -5.76,0 z"
     id="path42" />
  <path
     class="st22"
     d="m 33.199862,30.341329 c 0.19,1.99 -0.84,3.47 -2.88,3.6 -1.6,1.08 -7.42,-1.43 -7.2,-3.6 2.51,-2.52 5.09,-4.79 5.77,-8.64 2.79,1.7 2.39,6.21 4.31,8.64 z"
     id="path44" />
  <path
     class="st6"
     d="m 123.91986,143.38133 c -3.86,-0.48 -7.68,-0.52 -11.52,-1.44 1.16,-9.22 11.56,-6.8 11.52,1.44 z"
     id="path46" />
  <path
     class="st17"
     d="m 150.55986,23.861329 c 3.31,3.73 4.97,4.04 10.08,3.61 -1.43,1.29 -1.61,4.8 -2.16,5.75 -1.33,2.31 -4.05,1.05 -5.76,0 -1.07,-1.18 -1.55,-2.38 -1.44,-3.6 -0.89,-1.93 -0.96,-2.29 -1.44,-4.32 -0.35,-1.31 -0.11,-1.79 0.72,-1.44 z"
     id="path48" />
  <path
     class="st21"
     d="m 85.039862,53.381329 c 1.45,7.37 -10.17,8.82 -10.8,2.16 -2.06,-0.87 -1.45,-2.62 0.72,-2.16 3.26,0.89 6.85,1.23 10.08,0 z"
     id="path50" />
  <path
     class="st21"
     d="m 56.959862,146.26133 c -3.42,0.41 -8.03,0.2 -10.8,0.72 0.61,-7.37 8.55,-7.24 10.8,-0.72 z"
     id="path52" />
  <path
     class="st6"
     d="m 90.799862,28.181329 c -2.22,-1.87 -5.07,-3.62 -7.92,-4.32 2.21,-7.44 11.18,-1.78 7.92,4.32 z"
     id="path54" />
  <path
     class="st29"
     d="m 75.679862,141.94133 c -2.12,0.79 -4.3,1.56 -6.48,2.16 -3.01,-7.48 6.86,-10.71 6.48,-2.16 z"
     id="path56" />
  <path
     class="st6"
     d="m 60.559862,64.901329 c -3.04,0.1 -5.75,-0.95 -8.64,-1.44 1.4,-6.68 9.16,-5.18 8.64,1.44 z"
     id="path58" />
  <path
     class="st21"
     d="m 151.99986,167.86133 c -1.09,2.69 -3.66,6.59 -4.32,8.64 -5.08,-4.58 -1.9,-9.01 4.32,-8.64 z"
     id="path60" />
  <path
     class="st10"
     d="m 142.63986,58.421329 c -1.38,1.71 -2.63,3.6 -4.32,5.04 -1.89,-0.18 -5.24,-0.89 -5.76,-2.88 -1.05,-0.61 -0.81,-1.09 0.72,-1.44 3.19,-0.28 4.09,-0.68 6.48,-2.88 1.36,-1.65 3.76,0.32 2.88,2.16 z"
     id="path62" />
  <path
     class="st24"
     d="m 148.39986,50.501329 c -1.98,2.71 -3.6,5.25 -5.76,7.92 l -2.88,-2.16 c 1.58,-1.46 4.44,-5.31 5.76,-7.2 1.46,-0.36 2.53,-0.18 2.88,1.44 z"
     id="path64" />
  <path
     class="st0"
     d="m 133.27986,59.141329 c -0.27,0.46 -0.44,0.99 -0.72,1.44 2.1,0.34 4.85,0.67 5.76,2.88 -3.15,2.69 -4.92,1.83 -8.64,2.16 -0.84,-3.29 1.8,-3.35 2.88,-5.04 -1.6,-0.26 -4.52,1.43 -5.76,-1.44 2.12,-0.06 4.42,0.18 6.48,0 z"
     id="path66" />
  <path
     class="st1"
     d="m 160.63986,33.941329 c 0.3,-0.45 2.44,-7.28 3.59,-6.48 -0.08,2.92 3.87,2.74 3.61,5.03 -1.86,0.07 -3.46,1.76 -5.04,2.17 -0.59,0.15 -2.02,0.11 -2.16,-0.72 z"
     id="path68" />
  <path
     class="st6"
     d="m 154.15986,42.581329 c -0.69,0.5 -3.62,4.08 -4.32,5.04 -1,1.91 -2.76,1.41 -2.88,-0.72 1.81,-2.88 4.27,-5.74 3.6,-9.36 0.89,1.98 1.38,4.11 3.6,5.04 z"
     id="path70" />
  <path
     class="st8"
     d="m 146.95986,196.66133 c 2.77,3.19 4.51,7.9 6.48,11.52 l -0.72,1.44 c -1.9,-3.29 -6.95,-10.2 -7.91,-13.33 -0.11,-0.37 -0.2,-1.17 0.35,-1.06 0.37,0.68 1.44,1.02 1.8,1.44 z"
     id="path72" />
  <path
     class="st21"
     d="m 57.679862,57.701329 c -1.63,0.05 -3.82,-0.3 -5.26,0.01 -0.59,0.13 -0.53,1.52 -1.87,1.86 -4.34,1.12 -5.45,-1.63 -5.1,-5.48 3.78,4.08 7.73,1.96 12.24,3.6 z"
     id="path74" />
  <path
     class="st6"
     d="m 38.959862,49.781329 c 2.87,-0.55 4.74,3.02 3.28,5.1 -0.64,0.91 -3.04,-0.11 -2.56,2.1 -0.49,-2.7 -0.31,-5.05 -0.72,-7.2 z"
     id="path76" />
  <path
     class="st18"
     d="m 30.319862,33.941329 c 0.31,0.2 0.79,1.51 1.44,1.8 -3.03,0.33 -7.18,-2.43 -10.08,-3.96 0.33,-0.47 0.99,-0.99 1.44,-1.44 1.59,2.04 5.45,2.47 7.2,3.6 z"
     id="path78" />
  <path
     class="st14"
     d="m 45.439862,206.74133 c -0.22,2.67 -1.29,6.08 -2.16,8.64 -0.73,1.06 -0.97,0.82 -0.72,-0.72 0.85,-4 1.42,-8.2 2.16,-12.24 1.12,0.72 0.82,3.04 0.72,4.32 z"
     id="path80" />
  <path
     class="st6"
     d="m 146.23986,164.98133 c 0.56,-1.89 1.96,-5.53 2.16,-7.2 2.65,2.42 2.01,7.55 -2.16,7.2 z"
     id="path82" />
  <path
     class="st12"
     d="m 74.959862,53.381329 c -0.32,0.61 -0.78,1.49 -0.72,2.16 -1.51,1.21 -2.68,2.34 -3.6,0 0.45,-0.94 0.58,-2.52 0.73,-3.6 1.43,-0.19 2.4,1.12 3.59,1.44 z"
     id="path84" />
  <path
     class="st3"
     d="m 43.999862,23.861329 c -0.43,2.28 -1.04,5.6 -2.87,6.48 0,-0.48 -0.04,-0.96 0,-1.44 0.15,-1.98 1.23,-5.36 2.16,-7.2 0.07,0.78 -0.25,1.81 0.72,2.16 z"
     id="path86" />
  <path
     class="st16"
     d="m 149.83986,47.621329 c -0.59,0.8 -0.87,2.1 -1.44,2.88 -1.26,0.12 -2.51,-0.12 -2.88,-1.44 0.49,-0.71 0.98,-1.43 1.44,-2.16 z"
     id="path88" />
  <path
     class="st5"
     d="m 112.39986,54.101329 c 0.19,-0.04 1.52,-1.31 2.15,-0.72 0.13,0.13 0.31,2.79 0.73,3.6 l -0.35,0.7 c -1.85,-0.64 -2.31,-1.68 -2.53,-3.58 z"
     id="path90" />
  <path
     class="st8"
     d="m 153.43986,211.06133 c 0.54,0.91 3.54,4.97 2.87,5.76 -1.99,-0.75 -2.59,-2.81 -3.59,-4.32 z"
     id="path92" />
  <path
     class="st28"
     d="m 43.279862,215.38133 c -0.4,1.18 -1.01,3.87 -2.15,4.32 -0.39,-1.82 1.15,-3.72 1.43,-5.04 z"
     id="path94" />
  <path
     class="st25"
     d="m 31.759862,191.63133 v 0.7 c 0,0 -4.31,0.72 -4.31,0.72 -0.99,-0.46 3.13,-1.98 4.31,-1.43 z"
     id="path96" />
  <path
     class="st11"
     d="m 152.71986,33.221329 c -1.25,-0.76 -1.36,-1.11 -2.16,-2.16 l 0.72,-1.44 c 0.52,1.12 1.48,2.09 1.44,3.6 z"
     id="path98" />
  <path
     class="st11"
     d="m 150.55986,23.861329 -0.72,1.44 c -0.16,-0.69 -1.22,-1.62 -0.71,-2.88 0.88,-0.03 1.05,1.01 1.43,1.44 z"
     id="path100" />
  <path
     class="st4"
     d="m 152.71986,196.66133 -1.44,0.72 c -0.45,-0.38 -1.47,-0.56 -1.44,-1.43 1.27,-0.49 2.15,0.52 2.88,0.71 z"
     id="path102" />
  <path
     class="st3"
     d="m 43.999862,23.141329 c 0.22,-1.55 -0.74,-2.53 1.44,-2.16 0.1,0.45 -0.11,1.07 0,1.44 z"
     id="path104" />
  <path
     class="st21"
     d="m 83.819862,101.12133 c 0.5,-0.55 4.66,-3.090001 5.54,-3.450001 9.8,-4.03 14.039998,7.710001 5,13.640001 -8.19,5.38 -15.5,-4.66 -10.54,-10.19 z"
     id="path106" />
  <path
     class="st21"
     d="m 113.83986,116.74133 c -0.27,0.19 -4.94,2 -5.28,1.98 -2.25,-0.11 -6.28,-3.03 -6.81,-5.38 -2.339998,-10.41 14.66,-16.200001 14.97,-3.08 -0.69,1.94 -0.9,5.09 -2.88,6.48 z"
     id="path108" />
  <path
     class="st21"
     d="m 76.929862,83.731329 c 1.84,-0.36 3.71,0.71 5.18,1.74 8.91,6.3 -2.29,17.300001 -8.97,11.85 -4.96,-4.03 -1.47,-12.58 3.8,-13.6 z"
     id="path110" />
  <path
     class="st21"
     d="m 105.72986,85.181329 c 6.27,-1.3 11.7,8.06 4.46,12.42 -11.359998,6.840001 -13.659998,-10.51 -4.46,-12.42 z"
     id="path112" />
  <path
     class="st21"
     d="m 80.549862,65.741329 c 7.31,-1.18 8.24,13.98 -0.75,11.98 -5.56,-1.24 -6.15,-10.86 0.75,-11.98 z"
     id="path114" />
  <path
     class="st21"
     d="m 95.639862,57.091329 c 7.629998,-1.17 6.239998,11.81 -0.16,11.81 -7.02,0 -6.12,-10.85 0.16,-11.81 z"
     id="path116" />
  <path
     class="st21"
     d="m 89.549862,77.331329 c 3.87,-3.65 13.339998,4.35 6.67,9.18 -6.7,4.85 -10.95,-5.14 -6.67,-9.18 z"
     id="path118" />
  <path
     class="st21"
     d="m 102.82986,66.491329 c 8.13,-2.43 10.16,8.42 3.83,10.36 -6.37,1.95 -10.019998,-8.5 -3.83,-10.36 z"
     id="path120" />
  <path
     class="st21"
     d="m 72.799862,117.46133 c -1.07,-1.37 -1,-3.56 -1.44,-5.04 1.6,-8.89 13.53,-1.53 9.99,4.6 -1.89,3.27 -6.36,3.25 -8.55,0.44 z"
     id="path122" />
  <path
     class="st21"
     d="m 88.849862,127.32133 c -5.15,-4.39 2.25,-12.7 7.41,-7.04 4.609998,5.06 -2.82,10.95 -7.41,7.04 z"
     id="path124" />
  <path
     class="st21"
     d="m 104.28986,125.51133 c 7.63,-1.57 7.76,9.85 1.89,10.49 -5.87,0.64 -7.589998,-9.32 -1.89,-10.49 z"
     id="path126" />
  <path
     class="st9"
     d="m 118.87986,75.701329 c 0.34,2.57 0.81,4.47 0.72,7.2 -0.03,0.93 0.17,1.88 -0.07,2.79 -8.82,2.42 -9.37,-12.32 -0.65,-9.99 z"
     id="path128" />
  <path
     class="st21"
     d="m 95.639862,16.771329 c 5.349998,-0.82 6.269998,7.82 1.23,8.55 -5.35,0.77 -6.64,-7.72 -1.23,-8.55 z"
     id="path130" />
  <path
     class="st27"
     d="m 90.799862,10.181329 v 2.87 c 0,0 -1.07,0 -1.07,0 -1.13,-0.76 -1.26,-1.54 -1.09,-2.87 h 2.15 z"
     id="path132" />
  <path
     class="st15"
     d="m 105.69986,34.091329 c 8.61,-2.59 9.76,7.81 2.74,7.8 -4.94,0 -6.36,-6.72 -2.74,-7.8 z"
     id="path134" />
  <path
     class="st13"
     d="m 76.879862,36.201329 c 4.77,-1.62 7.11,6.1 1.31,5.73 -3.77,-0.24 -3.8,-4.89 -1.31,-5.73 z"
     id="path136" />
</svg>
