<?xml version="1.0" encoding="UTF-8" standalone="no"?>
<svg
   version="1.1"
   width="59.088825"
   height="79.156105"
   id="svg6"
   sodipodi:docname="g-block.svg"
   xmlns:inkscape="http://www.inkscape.org/namespaces/inkscape"
   xmlns:sodipodi="http://sodipodi.sourceforge.net/DTD/sodipodi-0.dtd"
   xmlns="http://www.w3.org/2000/svg"
   xmlns:svg="http://www.w3.org/2000/svg">
  <defs
     id="defs10" />
  <sodipodi:namedview
     id="namedview8"
     pagecolor="#ffffff"
     bordercolor="#000000"
     borderopacity="0.25"
     inkscape:showpageshadow="2"
     inkscape:pageopacity="0.0"
     inkscape:pagecheckerboard="0"
     inkscape:deskcolor="#d1d1d1" />
  <!-- Exported by Scratch - http://scratch.mit.edu/ -->
  <g
     id="ID0.24495088355615735"
     transform="translate(-0.91563625,-0.80018413)">
    <path
       id="ID0.061327479779720306"
       fill="#ff9400"
       d="m 328,370 c -5.449,5.589 -9.347,-4.028 -18,-3 -2.315,0.275 -8.694,4.177 -10,6 -1.203,1.679 -1.826,7.659 -3,13 -1.117,5.081 -7.167,10.405 -6,18 0.164,1.064 2.377,6.454 4,8 10e-4,10e-4 9.612,4.932 10,5 8.993,1.587 20.935,-2.099 20,-17 -1.67,-2.997 -10.719,1.385 -11,-3 3.375,-3.625 10.778,-3.221 17,-4 0.73,11.829 2.392,22.184 1,32 -5.6,1.266 -3.352,-5.315 -5,-8 -6.566,-0.238 -9.388,6.213 -15,7 -14.076,1.975 -24.023,-9.811 -28,-21 2.945,-21.388 10.741,-37.926 28,-45 6.509,2.288 16.612,5.878 16,12 z"
       transform="matrix(0.9672668,0,0,0.9672668,-266.05,-342.2)" />
    <path
       id="ID0.8251869073137641"
       fill="#ffffff"
       d="m 331,436 c -2,0 -4,0 -6,0 1.891,-1.984 3.506,-1.704 6,-1 0,0.333 0,0.667 0,1 z"
       transform="matrix(0.9672668,0,0,0.9672668,-266.05,-342.2)" />
    <path
       id="ID0.09248453099280596"
       d="m 337,418 c 0,3.333 0.199,6.683 0,10 -1.933,2.211 -1.26,6.026 -3,8 -0.741,0.505 -2.005,0.025 -3,0 -4.915,0.003 -6.698,0.994 -8,0 -2.607,-2.196 0.781,-7.229 -3,-9 -5.436,4.182 -17.185,3.481 -27,4 -12.316,-5.351 -16.137,-19.196 -17,-36 0,-1.333 0,-2.667 0,-4 3.013,-11.32 7.91,-20.159 15,-28 4.377,-4.702 11.518,-5.968 17.75,-8 1.897,-0.678 4.136,-0.342 6.25,0 0.524,0.09 0,0.667 0,1 7.399,2.934 15.278,5.389 19,12 -2.766,4.235 -5.24,8.735 -9,12 -3.598,-1.336 -4.089,3.244 -7,3 -4.74,-2.348 -9.22,-10.918 -14,-9 -6.071,9.651 -10.518,22.984 -8,35.1 2.368,4.002 8.848,5.78 15,5.9 1.477,-1.193 3.045,-2.955 3,-6 -2.071,-0.595 -6.416,1.23 -7,-1 -4.515,-12.806 -1.814,-10.934 2,-13.25 7.477,-4.54 16.886,-7.314 26,-3.75 3.023,7.649 -0.541,20.017 2,27 z m -25,-60 c -17.259,7.074 -25.055,23.612 -28,45 3.977,11.189 13.924,22.975 28,21 5.612,-0.787 8.434,-7.238 15,-7 1.648,2.685 -0.6,9.266 5,8 1.392,-9.816 -0.27,-20.171 -1,-32 -6.222,0.779 -13.625,0.375 -17,4 0.281,4.385 9.33,0.003 11,3 0.935,14.901 -11.007,18.587 -20,17 -0.388,-0.068 -9.687,-4.374 -10,-5 -1.35,-2.596 -3.969,-5.026 -4,-8 -0.068,-6.357 1.794,-12.643 3.5,-18.75 1.31,-4.282 2.649,-8.837 5.5,-12.25 2.487,-2.978 7.685,-5.725 10,-6 8.653,-1.028 12.551,8.589 18,3 0.612,-6.122 -9.491,-9.712 -16,-12 z"
       transform="matrix(0.9672668,0,0,0.9672668,-266.05,-342.2)" />
  </g>
</svg>
