<?xml version="1.0" encoding="UTF-8" standalone="no"?>
<svg
   version="1.1"
   width="65.190002"
   height="78.830002"
   id="svg8"
   sodipodi:docname="G-glow.svg"
   xmlns:inkscape="http://www.inkscape.org/namespaces/inkscape"
   xmlns:sodipodi="http://sodipodi.sourceforge.net/DTD/sodipodi-0.dtd"
   xmlns="http://www.w3.org/2000/svg"
   xmlns:svg="http://www.w3.org/2000/svg">
  <defs
     id="defs12" />
  <sodipodi:namedview
     id="namedview10"
     pagecolor="#ffffff"
     bordercolor="#000000"
     borderopacity="0.25"
     inkscape:showpageshadow="2"
     inkscape:pageopacity="0.0"
     inkscape:pagecheckerboard="0"
     inkscape:deskcolor="#d1d1d1" />
  <!-- Exported by Scratch - http://scratch.mit.edu/ -->
  <g
     id="ID0.7915165354497731">
    <g
       id="ID0.42775065964087844">
      <g
         id="ID0.6343233711086214">
        <path
           id="ID0.12705623172223568"
           fill="#00cccc"
           d="m 61.36,49.73 c -0.79,0.8 -1.85,1.66 -3.23,2.4 0.2,1.58 0.43,3.39 0.7,5.42 0.4,1.04 0.83,2.26 1.29,3.74 0.19,0.63 0.33,1.27 0.41,1.93 0.59,4.76 -1.34,9.39 -5.17,12.36 -2.73,2.12 -6.02,3.25 -9.52,3.25 -2.67,0 -5.14,-0.67 -7.24,-1.92 -2.96,1.09 -6.16,1.65 -9.57,1.65 -4.94,0 -9.78,-1.19 -14.36,-3.55 C 10.5,72.95 7.1,69.57 4.55,64.98 1.53,59.53 0,52.97 0,45.48 0,43.3 0.12,41.38 0.38,39.62 0.55,38.42 0.77,36.71 1.06,34.49 1.18,33.54 1.43,32.61 1.79,31.73 2.18,29.85 2.77,27.52 3.58,24.65 3.69,24.25 3.83,23.86 3.98,23.47 7.39,15.11 12.28,9.08 18.52,5.56 23.28,2.87 28.39,1.5 33.7,1.5 c 2.09,0 4.12,0.21 6.09,0.64 C 41.83,0.84 44.44,0 47.68,0 c 1.82,0 3.56,0.37 5.19,1.09 4.2,1.79 7.1,5.49 7.79,9.99 0.02,0.14 0.04,0.28 0.06,0.42 0.28,2.42 0.14,5.42 -0.45,9.66 -0.04,1.96 -0.39,4.04 -1.07,6.34 -0.13,0.44 -0.29,0.87 -0.48,1.29 0.66,0.39 1.28,0.85 1.86,1.38 2.97,2.73 4.61,6.39 4.61,10.3 0,3.5 -1.36,6.79 -3.83,9.26 z" />
      </g>
    </g>
    <g
       id="ID0.38214122224599123">
      <path
         id="ID0.8642155146226287"
         fill="#ffffff"
         d="m 53.575,41.965 c -0.587,0.587 -1.495,0.909 -2.727,0.967 0.82,-0.058 -0.176,-0.116 -2.991,-0.176 -0.176,1.643 -0.558,3.87 -1.144,6.686 0.293,2.521 0.762,6.188 1.407,10.995 0.41,0.879 0.909,2.258 1.496,4.134 0.116,0.939 -0.221,1.716 -1.012,2.331 -0.792,0.616 -1.716,0.924 -2.771,0.924 -0.998,0 -1.73,-0.293 -2.199,-0.88 -0.06,-0.585 -0.235,-1.495 -0.528,-2.727 -0.587,-1.642 -0.851,-2.668 -0.791,-3.079 0.058,0 0,-0.116 -0.177,-0.352 -3.284,4.517 -7.652,6.773 -13.105,6.773 -3.226,0 -6.363,-0.792 -9.412,-2.375 -2.17,-1.056 -3.988,-2.903 -5.453,-5.542 -2.111,-3.812 -3.167,-8.532 -3.167,-14.162 0,-1.641 0.088,-3.078 0.264,-4.31 0.176,-1.232 0.41,-2.99 0.704,-5.277 0.116,-0.117 0.233,-0.353 0.352,-0.704 0.293,-1.7 0.908,-4.222 1.848,-7.564 2.463,-6.039 5.717,-10.203 9.763,-12.49 3.108,-1.76 6.362,-2.639 9.764,-2.639 4.104,0 7.799,1.35 11.084,4.046 0.058,-0.058 0.116,-0.321 0.176,-0.792 -0.118,-0.761 -0.118,-1.876 0,-3.342 0.233,-0.938 1.144,-1.408 2.727,-1.408 0.293,0 0.557,0.06 0.792,0.177 0.761,0.294 1.201,0.821 1.319,1.583 0.176,1.525 0,4.076 -0.528,7.652 0.058,1.056 -0.146,2.375 -0.615,3.958 -0.646,0.704 -1.379,1.056 -2.199,1.056 -1.29,0 -2.229,-0.557 -2.814,-1.671 0,-0.41 -0.088,-0.938 -0.264,-1.584 -0.938,-1.641 -2.023,-2.931 -3.255,-3.87 -1.584,-1.231 -3.754,-1.935 -6.51,-2.11 -4.749,-0.41 -8.532,1.378 -11.347,5.365 -1.994,2.933 -3.401,6.421 -4.222,10.468 -0.176,0.527 -0.411,1.35 -0.704,2.463 -0.646,3.577 -0.968,6.803 -0.968,9.675 0,4.047 0.645,7.917 1.936,11.611 0.762,2.17 2.315,3.93 4.662,5.277 2.169,1.291 4.397,1.936 6.685,1.936 1.524,0 3.049,-0.322 4.574,-0.968 1.056,-0.409 2.668,-2.315 4.838,-5.718 0.469,-0.761 0.85,-1.641 1.144,-2.639 0.352,-1.348 0.585,-2.199 0.703,-2.551 0.469,-1.113 0.718,-2.536 0.748,-4.266 0.028,-1.729 0.161,-2.976 0.396,-3.738 -1.466,-0.117 -3.46,0 -5.981,0.352 -3.401,0.527 -5.132,0.791 -5.189,0.791 -1.935,0 -3.313,-0.761 -4.134,-2.286 -0.235,-0.528 -0.294,-1.085 -0.176,-1.672 0.233,-0.703 0.732,-1.319 1.495,-1.847 1.172,-0.88 3.136,-1.201 5.894,-0.968 4.163,0.411 7.505,0.615 10.027,0.615 0.352,0 1.319,-0.028 2.902,-0.088 1.408,-0.058 2.463,-0.058 3.167,0 0.88,-0.058 1.905,0.03 3.079,0.265 0.703,0.646 1.055,1.378 1.055,2.198 -0.003,0.588 -0.209,1.087 -0.618,1.497 z" />
    </g>
  </g>
</svg>
