<svg version="1.1" id="ghost2-a" x="0px" y="0px" width="150px" height="150px" viewBox="0 0 150 150" enable-background="new 0 0 150 150" xml:space="preserve" xmlns="http://www.w3.org/2000/svg" xmlns:xlink="http://www.w3.org/1999/xlink">
  <g>
    <g id="Back_Arm">
      <path id="Fill_1_" fill="#FFFFFF" d="M104.482,102.611c2.229,5.01,7.834,12.349,13.187,12.563c8.196,0.341,6.39-15.86,2.271-20.319&#xD;&#xA;&#x9;&#x9;c0.623-0.963,1.592-1.527,2.537-1.994c-0.067-0.127-0.133-0.254-0.207-0.383c-7.352,0-11.602-4.812-20.734,10.586&#xD;&#xA;&#x9;&#x9;c0.227,0.375,0.461,0.756,0.701,1.139C102.467,103.359,103.168,102.775,104.482,102.611z"/>
      <path id="Outline_1_" fill="#272525" d="M122.65,92.773c-0.059,0.026-0.116,0.061-0.174,0.088&#xD;&#xA;&#x9;&#x9;c-0.947,0.467-1.916,1.031-2.537,1.994c4.119,4.459,5.926,20.66-2.271,20.319c-5.354-0.216-10.958-7.555-13.188-12.563&#xD;&#xA;&#x9;&#x9;c-1.313,0.164-2.016,0.748-2.246,1.592c-1.174,4.268,9.94,15.324,17.391,14.062C129.066,116.667,126.758,94.811,122.65,92.773z"/>
    </g>
    <g id="Body">
      <path id="Fill" fill="#FFFFFF" d="M111.335,8.063c-13.046-2.121-24.533,5.324-32.29,17.342c-5.518,8.546-2.722,15.869-4.417,25.133&#xD;&#xA;&#x9;&#x9;c-1.342,7.339-10.915,6.836-13.568,14.181c-2.897,8.021,2.454,17.283-4.915,23.375c-4.283,3.541-7.678,0.791-11.923-1.146&#xD;&#xA;&#x9;&#x9;c-4.05-1.851-8.738-1.189-12.301,1.724c-5.104,4.176-6.654,15.621-14.51,14.438c-3.124-0.473-7.003-4.479-7.444-8.26&#xD;&#xA;&#x9;&#x9;c-1.366,1.787-1.719,4.383-1.514,6.68c0.443,4.937,4.387,9.815,8.327,11.562c6.961,3.085,11.949-3.897,18.358-1.723&#xD;&#xA;&#x9;&#x9;c14.051,4.767,15.039,29.586,36.725,27.301c13.575-1.433,17.952-26.298,23.079-32.117c5.513-6.245,11.104-7.493,17.412-10.125&#xD;&#xA;&#x9;&#x9;c27.383-11.411,30.15-42.578,24.371-67.759C135.486,23.282,130.689,11.211,111.335,8.063z"/>
      <path id="Outline" fill="#272525" d="M133.958,14.649C120.889-3.95,85.757,0.749,75.827,21.46&#xD;&#xA;&#x9;&#x9;c-2.245,4.684-3.673,7.441-3.911,12.926c-0.157,3.646,0.933,14.322-0.314,16.875c-1.68,3.438-9.609,4.448-12.996,8.617&#xD;&#xA;&#x9;&#x9;c-4.24,5.218-0.346,12.524-1.199,18.455c-0.411,2.86-2.529,6.347-5.047,7.181c-4.308,1.43-9.359-7.438-18.951-3.334&#xD;&#xA;&#x9;&#x9;c-7.547,3.23-8.523,18.232-16.754,16.764c-3.232-0.574-5.116-4.604-5.995-8.18c-2.869,3.256-6.5,9.771-5.484,14.571&#xD;&#xA;&#x9;&#x9;c1.547,7.33,6.365,12.899,13.752,14.004c4.809,0.718,9.205-4.825,19.052-1.582c12.573,4.144,14.981,28.796,34.254,25.494&#xD;&#xA;&#x9;&#x9;c7.3-1.252,13.018-8.571,16.211-15.87c3.301-7.544,6.767-12.843,12.238-18.6c15.129-15.92,34.53-6.858,41.065-44.057&#xD;&#xA;&#x9;&#x9;C144.148,51.069,143.855,28.733,133.958,14.649z M112.354,96.425c-6.31,2.632-11.899,3.88-17.412,10.125&#xD;&#xA;&#x9;&#x9;c-5.127,5.819-9.504,30.685-23.079,32.117c-21.686,2.285-22.674-22.534-36.725-27.301c-6.409-2.175-11.397,4.808-18.358,1.723&#xD;&#xA;&#x9;&#x9;c-3.94-1.745-7.884-6.625-8.327-11.562c-0.205-2.297,0.148-4.893,1.514-6.68c0.441,3.781,4.32,7.787,7.444,8.26&#xD;&#xA;&#x9;&#x9;c7.856,1.185,9.406-10.262,14.51-14.438c3.563-2.913,8.251-3.572,12.301-1.724c4.245,1.938,7.64,4.688,11.923,1.146&#xD;&#xA;&#x9;&#x9;C63.514,82,58.163,72.738,61.06,64.717c2.653-7.345,12.226-6.842,13.568-14.181c1.695-9.264-1.101-16.587,4.417-25.133&#xD;&#xA;&#x9;&#x9;c7.757-12.018,19.244-19.463,32.29-17.342c19.354,3.148,24.151,15.219,25.39,20.603C142.504,53.847,139.736,85.014,112.354,96.425z&#xD;&#xA;&#x9;&#x9;"/>
    </g>
    <g id="Mouth">
      <path id="Inside" fill="#426EB9" d="M114.562,66.825c0.179-1.612-0.029-3.341,0.504-4.883c-3.236-0.957-8.051-2.767-10.773-5.086&#xD;&#xA;&#x9;&#x9;c0,0-0.621,6.06,1.131,9.442C109.912,61.538,111.958,67.716,114.562,66.825z"/>
      <path id="Tongue" fill="#93659B" d="M114.121,69.411c-0.564,1.058-0.094,1.898-1.072,3.231c-0.332-3.054-2.915-7.82-6.367-3.911&#xD;&#xA;&#x9;&#x9;c1.801,3.883,4.023,6.581,9.678,7.725C117.634,74.328,117.04,68.756,114.121,69.411z"/>
      <path id="Outline_3_" fill="#272525" d="M122.891,60.797c1.846-0.922,6.668-4.605,5.805-7.469c-0.18-0.597-0.975-1.617-1.389-1.148&#xD;&#xA;&#x9;&#x9;c-8.731,9.917-17.641,4.466-24.896,0.815c-2.136,14.592,1.132,19.315,6.604,24.819c3.732,3.756,15.156,4.793,14.064-0.146&#xD;&#xA;&#x9;&#x9;c-0.428-1.922-3.227-0.904-4.415-1.363c1.709-2.964,1.343-7.504-1.733-9.006c0-1.931,0.312-3.362,1.029-5.093&#xD;&#xA;&#x9;&#x9;C119.514,61.934,121.423,61.525,122.891,60.797z M105.424,66.298c-1.752-3.382-1.131-9.442-1.131-9.442&#xD;&#xA;&#x9;&#x9;c2.723,2.319,7.537,4.129,10.773,5.086c-0.533,1.542-0.325,3.271-0.504,4.883C111.958,67.716,109.912,61.538,105.424,66.298z&#xD;&#xA;&#x9;&#x9; M116.359,76.456c-5.654-1.144-7.877-3.842-9.678-7.725c3.451-3.909,6.034,0.857,6.366,3.911c0.979-1.333,0.509-2.173,1.072-3.231&#xD;&#xA;&#x9;&#x9;C117.04,68.756,117.634,74.328,116.359,76.456z"/>
    </g>
    <g id="R_Eye">
      <path id="White_1_" fill="#FFFFFF" d="M129.128,34.396c-4.724-3.114-7.926,7.714-3.219,10.725&#xD;&#xA;&#x9;&#x9;C132.204,49.146,133.749,37.443,129.128,34.396z"/>
      <ellipse id="Pupil_1_" fill="#272525" cx="127.973" cy="40.258" rx="1.18" ry="2.146"/>
      <path id="Outline_5_" fill="#272525" d="M131.309,31.674c-6.357-6.681-13.41,4.909-9.086,13.423&#xD;&#xA;&#x9;&#x9;c1.324,2.61,4.537,4.174,7.062,3.785C135.916,47.86,135.307,35.876,131.309,31.674z M125.909,45.121&#xD;&#xA;&#x9;&#x9;c-4.707-3.011-1.505-13.839,3.219-10.725C133.749,37.443,132.204,49.146,125.909,45.121z"/>
    </g>
    <g id="L_Eye">
      <path id="White" fill="#FFFFFF" d="M96.16,42.57c5.332,7.155,11.261-4.488,7.38-9.838C99.575,27.268,92.174,37.223,96.16,42.57z"/>
      <ellipse id="Pupil" fill="#272525" cx="99.96" cy="38.257" rx="1.571" ry="2.861"/>
      <path id="Outline_4_" fill="#272525" d="M106.887,30.867c-4.434-9.989-16.266-1.002-14.699,9.981&#xD;&#xA;&#x9;&#x9;c0.479,3.367,3.379,6.5,6.244,7.253C105.968,50.084,109.671,37.148,106.887,30.867z M96.16,42.57&#xD;&#xA;&#x9;&#x9;c-3.986-5.347,3.415-15.302,7.38-9.838C107.421,38.082,101.492,49.725,96.16,42.57z"/>
    </g>
    <g id="Front_Arm">
      <path id="Fill_2_" fill="#FFFFFF" d="M70.844,73.163c0.404,3.958-3.706,12.442,0.314,19.461c1.854,3.235,6.296,5.784,9.715,4.812&#xD;&#xA;&#x9;&#x9;c7.266-2.064,7.598-14.812,8.58-21.398c0.625-0.661,1.163-1.068,1.625-1.268c-8.212-13.383-17.791-5.692-20.886-2.599&#xD;&#xA;&#x9;&#x9;C70.53,72.352,70.792,72.658,70.844,73.163z"/>
      <path id="Outline_2_" fill="#272525" d="M91.078,74.769c-0.462,0.2-1,0.607-1.625,1.268c-0.982,6.588-1.314,19.334-8.58,21.398&#xD;&#xA;&#x9;&#x9;c-3.419,0.974-7.861-1.576-9.715-4.812c-4.02-7.019,0.09-15.503-0.314-19.461c-0.052-0.505-0.312-0.811-0.651-0.993&#xD;&#xA;&#x9;&#x9;c-0.261-0.141-0.567-0.209-0.863-0.227c-7.108,4.114-3.757,32.385,9.716,32.385C90.047,104.328,96.952,72.233,91.078,74.769z"/>
    </g>
  </g>
</svg>