<svg version="1.1" id="Layer_1" x="0px" y="0px" width="150px" height="150px" viewBox="0 0 150 150" enable-background="new 0 0 150 150" xml:space="preserve" xmlns="http://www.w3.org/2000/svg" xmlns:xlink="http://www.w3.org/1999/xlink">
  <g>
    <path fill="#272525" d="M93.098,5.625c8.824-3.251,13.51,2.098,18.784,7.662c2.701,2.85,8.942,3.858,12.326,6.705&#xD;&#xA;&#x9;c5.004,4.21,8.198,14.756,4.94,20.113c-0.322,0.534-1.168,1.028-1.777,0.575c-1.046-0.182-2.232-0.938-3.295-0.447&#xD;&#xA;&#x9;c-1.034,4.963,5.777,11.694-0.462,15.325c-3.95,2.298-9.581,3.701-13.907,1.532c-2.1,3.361-4.588,6.525-6.195,10.153h0.793&#xD;&#xA;&#x9;c3.031-1.847,6.377-3.26,8.829-5.875c2.593,0.282,3.744,5.969,6.658,2.938c5.783-0.622,5.06-8.211,10.28-9.322&#xD;&#xA;&#x9;c2.845-0.605,7.746-0.582,10.281,0.894c2.405-0.228,6.91,5.445,4.285,6.002c-1.345,0.285-2.908-0.893-4.416-0.512&#xD;&#xA;&#x9;c2.435,1.606,5.805,4.156,5.207,7.408c-1.839,0.882-3.804-0.465-5.668,0.127c1.409,3.216,0.152,7.103-0.791,10.281&#xD;&#xA;&#x9;c-1.367-0.436-2.146-1.726-3.164-2.617c-0.611-2.201-2.998-3.237-4.746-4.47c-1.711,0.119-4.387,4.931-8.238,5.107&#xD;&#xA;&#x9;c0.193,7.479-2.125,15.422-8.896,19.73l-1.055-0.129c-3.131-5.365-9.237-9.316-15.688-9.387&#xD;&#xA;&#x9;c-17.012,13.473,1.123,21.458-6.656,34.227c-1.896,3.109-6.521,7.479-10.414,7.789c-9.174,0.732-15.735-2.248-24.386,3.064&#xD;&#xA;&#x9;c-6.533,4.011-12.671,7.178-20.564,6.001c-5.557-0.827-8.653-1.96-11.534-6.896c-2.639-4.521,0.416-13.006-2.702-13.982&#xD;&#xA;&#x9;c-2.783-0.873-14.301,7.249-16.741-4.917c-0.868-4.327,1.519-6.031,2.703-9.644c0.482-0.037,3.612,3.818,4.548,4.6&#xD;&#xA;&#x9;c2.149,1.789,4.646,1.686,7.316,1.404c4.952-0.521,5.544-6.448,11.204-6.448c4.979-0.001,6.918,2.786,12.326,1.659&#xD;&#xA;&#x9;c4.333-0.903,8.208-3.92,10.15-7.918c3.66-7.533-3.26-27.646-2.041-37.799c0.782-6.509,3.559-15.388,13.245-22.732&#xD;&#xA;&#x9;c5.525-4.19,14.978-8.196,22.146-6.449c1.004,0.244,1.287,0.304,2.371,0.319c0.316-2.09,1.387-2.888,2.705-3.767&#xD;&#xA;&#x9;c-0.493-1.675-0.822-3.352-0.411-4.948c-2.556-1.676-2.968-4.821-2.886-7.249c-1.67-0.665-4.496-1.554-5.405-3.192&#xD;&#xA;&#x9;C78.548,4.035,85.792,0.104,93.098,5.625z"/>
    <path fill="#733E4B" d="M127.372,38.254c-4.631-2.341-9.181-10.018-14.237-10.408c-4.027-0.31-10.511,0.865-13.576,3.512&#xD;&#xA;&#x9;c0.062,5.25,3.672,12.346,7.908,15.644c3.034,2.362,10.146,3.782,13.909,3.401c0,0-4.069-10.503-1.021-15.452l-1.449,0.271&#xD;&#xA;&#x9;c-3.495,2.696-0.35,9.495,0.214,13.217c-12.193-0.399-14.968-10.104-17.058-16.315c11.867-6.033,19.711,2.788,18.852,6.449&#xD;&#xA;&#x9;c-1.455,6.197,5.46,12.907,1.252,15.325c-4.449,2.555-13.852,0.075-17.729-2.746c-3.138-2.28-7.713-8.62-7.713-8.62&#xD;&#xA;&#x9;c0.784,3.794,2.735,7.362,5.34,10.281c-3.657-0.002-7.33-0.941-9.885-7.726c-1.906,5.865,8.477,14.92,13.573,10.471l0.595,0.191&#xD;&#xA;&#x9;l-1.119,1.213c-3.211,3.553-4.893,8.052-7.58,11.94c-4.616,0.252-9.914-1.063-12.193-5.363c-2.023-3.815-1.01-8.54,1.208-12.043&#xD;&#xA;&#x9;c0.526-0.833,1.532-1.71,1.955-2.515c0.136-0.256-0.101-0.699-0.263-0.894c-0.742,0.127-1.974,0.893-2.57,1.341&#xD;&#xA;&#x9;c-11.664,8.725-2.945,24.919,12.521,22.987c5.344-0.667,9.76-3.804,14.235-6.449c7.179,9.454,8.962,18.86,2.043,28.988&#xD;&#xA;&#x9;c-13.528-23.401-24.405-2.673-36.843-12.706c-6.206-5.006-8.971-12.628-7.909-20.369c0.527-3.853,4.467-11.525,6.327-13.665&#xD;&#xA;&#x9;c-11.115,7.621-13.615,28.636-0.989,36.013c4.349,2.541,10.087,4.787,15.226,3.83c-8.931,9.01,2.802,20.012-3.36,30.969&#xD;&#xA;&#x9;c-6.595,11.729-18.618,6.066-29.264,9.516c-6.404,2.073-9.343,7.32-17.07,7.023c-4.264-0.166-9.6-2.125-11.403-6.258&#xD;&#xA;&#x9;c-1.86-4.265-1.011-12.703-6.59-14.879c-3.676-1.433-10.526,4.991-14.238-1.212c-1.338-2.239-1.463-5.026-1.12-7.534&#xD;&#xA;&#x9;c1.667,3.836,6.748,7.19,11.074,7.344c6.426,0.225,6.513-10.92,15.027-7.981c4.077,1.407,7.442,4.015,11.996,2.812&#xD;&#xA;&#x9;c4.857-1.285,10.505-5.334,11.732-10.28c2.287-9.22-1.426-18.65-2.703-27.902c-3.656-26.498,15.85-39.339,33.546-36.78&#xD;&#xA;&#x9;c0.334,2.88,2.117,5.435,4.416,7.216c-0.92-2.362-2.119-5.898-0.461-11.366c1.023,1.502,2.11,4.104,4.283,3.257&#xD;&#xA;&#x9;c-4.33-3.75-3.672-14.127-1.91-18.262c-1.223,1.495-3.024,2.703-3.627,4.598c-2.043-2.73-0.938-7.247,0.133-9.514&#xD;&#xA;&#x9;c-2.713,0.308-1.307,4.271-4.877,1.852c-0.832-0.563-1.785-0.923-2.107-1.98c-0.35-1.13,0.454-2.399,1.447-2.937&#xD;&#xA;&#x9;c3.146-1.701,6.215,2.444,9.031,1.979c1.256-0.208,2.492-0.597,3.756-0.767c4.846-0.65,9.631,6.7,12.192,9.514&#xD;&#xA;&#x9;c2.703,2.967,8.331,3.726,11.733,6.896C126.493,27.535,127.242,32.515,127.372,38.254z"/>
    <path fill="#BBB36C" d="M141.343,59.836c-1.778,0.255-4.021-2.299-6.327-0.767c-1.978,0.511-5.402,0-5.865,2.81&#xD;&#xA;&#x9;c3.164,1.851,8.371-0.83,10.611,2.873c0.856,0.638,1.979,0.575,2.176,1.852c-2.703-0.894-5.932-0.638-8.371-2.171&#xD;&#xA;&#x9;c-1.909-0.639-3.492,0.511-5.207,0.766c-0.396,0.319-0.594,0.639-0.461,1.085c0.856,0.64,2.309,0.064,3.295,0.448&#xD;&#xA;&#x9;c2.506,0,3.298,3.128,5.867,3.065c1.252,0.511,0.727,2.426,0.594,3.256c-2.639-0.83-4.283-4.021-7.383-3.703&#xD;&#xA;&#x9;c-0.592-0.192-1.121-0.574-1.778-0.574c-1.12,2.617-3.691,4.726-6.458,5.363l-2.374-6.321l4.417-2.427&#xD;&#xA;&#x9;c2.24-3.895,5.47-8.428,10.609-8.428C137.257,57.09,139.829,57.537,141.343,59.836z"/>
    <path fill="#272525" d="M121.467,35.03c-2.904,0.459-3.379,3.891-3.091,6.705c0.329,3.152,1.299,4.749,1.647,7.901&#xD;&#xA;&#x9;c-6.94,0.878-11.885-2.613-15.487-8.46c-2.226-3.611-3.625-5.807-3.956-9.977c1.525,0,2.287-0.678,3.709-1.196&#xD;&#xA;&#x9;c3.13-1.158,5.087-1.337,8.402-1.198C116.75,28.984,120.064,31.518,121.467,35.03z"/>
    <path fill="#FFE700" d="M113.104,34.551c-3.049-0.319-4.222-4.31-7.332-4.31c-0.412,1.477-0.205,2.893,0.865,3.711&#xD;&#xA;&#x9;C108.654,35.51,110.59,35.15,113.104,34.551z"/>
    <path fill="#FFE700" d="M117.307,34.711c1.152-0.12,1.172-0.897,2.143-1.437c0.576,0.639,0.41,1.477-0.082,1.956&#xD;&#xA;&#x9;C118.826,35.753,118.047,35.189,117.307,34.711z"/>
  </g>
</svg>