<?xml version="1.0" encoding="UTF-8" standalone="no"?>
<svg
   version="1.1"
   width="71.02813"
   height="66.33252"
   id="svg22"
   sodipodi:docname="gift-a.svg"
   xmlns:inkscape="http://www.inkscape.org/namespaces/inkscape"
   xmlns:sodipodi="http://sodipodi.sourceforge.net/DTD/sodipodi-0.dtd"
   xmlns="http://www.w3.org/2000/svg"
   xmlns:svg="http://www.w3.org/2000/svg">
  <defs
     id="defs26" />
  <sodipodi:namedview
     id="namedview24"
     pagecolor="#ffffff"
     bordercolor="#000000"
     borderopacity="0.25"
     inkscape:showpageshadow="2"
     inkscape:pageopacity="0.0"
     inkscape:pagecheckerboard="0"
     inkscape:deskcolor="#d1d1d1" />
  <!-- Exported by Scratch - http://scratch.mit.edu/ -->
  <g
     id="ID0.13645795872434974"
     transform="translate(-0.27971954,-0.47946507)">
    <g
       id="ID0.9928622245788574">
      <g
         id="ID0.7250804053619504">
        <g
           id="Box_3_">
          <path
             id="Box_Fill_3_"
             fill="#961212"
             d="M 6.538,14.338 8.33,45.247 26.677,54.321 49.112,44.449 51.243,14.338 27.275,7.857 6.538,14.338"
             transform="matrix(1.2328705,0,0,1.2328705,-1,-0.7)" />
          <path
             id="Box_Top_3_"
             fill="#b72020"
             d="M 6.538,14.338 27.141,20.952 51.405,14.338 27.275,7.857 6.538,14.338"
             transform="matrix(1.2328705,0,0,1.2328705,-1,-0.7)" />
          <path
             id="Box_Side_3_"
             fill="#a81616"
             d="M 27.141,20.952 26.677,54.321 49.112,44.449 51.405,14.338 27.141,20.952"
             transform="matrix(1.2328705,0,0,1.2328705,-1,-0.7)" />
          <path
             id="Box_Outline_3_"
             d="M 26.666,54.76 7.943,45.502 6.122,14.049 27.266,7.441 51.665,14.039 49.493,44.718 Z M 8.713,44.995 26.686,53.882 48.731,44.182 50.823,14.638 27.281,8.271 6.954,14.625 Z"
             transform="matrix(1.2328705,0,0,1.2328705,-1,-0.7)" />
        </g>
        <path
           id="R_Ribbon_3_"
           fill="#f9c780"
           stroke="#000000"
           stroke-width="0.5"
           d="m 14.512,11.711 21.292,6.88 c 0,0 -0.95,32.566 -1.047,32.61 -0.097,0.044 7.875,-3.213 7.875,-3.213 l 1.42,-31.647 -22.51,-6.977 z"
           transform="matrix(1.2328705,0,0,1.2328705,-1,-0.7)" />
        <path
           id="L_Ribbon_3_"
           fill="#f9c780"
           stroke="#000000"
           stroke-width="0.5"
           d="M 35.053,9.851 13.11,16.448 13.627,48.313 19.921,51.426 19.82,18.601 42.631,11.945 35.053,9.851"
           transform="matrix(1.2328705,0,0,1.2328705,-1,-0.7)" />
        <g
           id="Bow_3_">
          <g
             id="ID0.261370524764061">
            <path
               id="ID0.258471533190459"
               fill="#f9c780"
               d="m 41.858,16.573 c -6.708,0 -12.703,-1.177 -14.223,-1.5 l 1.089,-1.498 c 1.623,0.087 3.222,0.131 4.757,0.131 10e-4,0 10e-4,0 0.002,0 15.499,0 22.145,-4.35 23.834,-5.701 -0.237,1.942 -2.105,4.391 -2.126,4.418 l -0.22,0.285 0.345,0.106 c 0.938,0.289 1.823,0.386 2.433,0.415 -3.881,2.22 -9.221,3.344 -15.891,3.344 z"
               transform="matrix(1.2328705,0,0,1.2328705,-1,-0.7)" />
            <path
               id="ID0.22370942682027817"
               d="m 56.948,8.594 c -0.474,1.736 -1.935,3.653 -1.953,3.677 l -0.438,0.571 0.688,0.212 c 0.59,0.181 1.159,0.289 1.655,0.352 -3.774,1.937 -8.823,2.917 -15.041,2.917 -6.22,0 -11.828,-1.016 -13.793,-1.416 l 0.782,-1.075 c 1.58,0.083 3.139,0.125 4.637,0.125 14.268,-0.001 21.099,-3.69 23.463,-5.363 m 0.64,-1.153 c 0,0 -6.044,6.015 -24.104,6.015 -1.54,0 -3.164,-0.043 -4.882,-0.138 l -1.395,1.917 c 0,0 6.793,1.588 14.65,1.588 5.783,0 12.143,-0.86 16.793,-3.848 0,0 -0.169,0.015 -0.457,0.015 -0.581,0 -1.648,-0.059 -2.803,-0.414 10e-4,0 2.329,-3.024 2.198,-5.135 z"
               transform="matrix(1.2328705,0,0,1.2328705,-1,-0.7)" />
          </g>
          <g
             id="ID0.022066988050937653">
            <path
               id="ID0.09162097191438079"
               fill="#f9c780"
               d="M 13.214,16.988 C 8.388,16.988 4.528,15.863 1.727,13.642 2.177,13.611 2.82,13.51 3.499,13.221 L 3.755,13.113 3.62,12.87 C 3.605,12.844 2.308,10.495 2.089,8.559 c 1.45,1.515 6.342,5.563 17.204,5.563 1.096,0 2.236,-0.042 3.391,-0.127 l 0.792,1.503 c -1.128,0.33 -5.442,1.49 -10.262,1.49 z"
               transform="matrix(1.2328705,0,0,1.2328705,-1,-0.7)" />
            <path
               id="ID0.5009593297727406"
               d="m 2.464,9.268 c 1.99,1.794 6.994,5.104 16.828,5.104 1.05,0 2.14,-0.039 3.246,-0.116 l 0.573,1.086 c -1.448,0.404 -5.453,1.396 -9.897,1.396 -4.493,0 -8.133,-0.983 -10.844,-2.924 0.37,-0.066 0.791,-0.177 1.227,-0.362 L 4.11,13.234 3.839,12.748 C 3.826,12.726 2.852,10.964 2.464,9.268 M 1.812,7.857 c -0.097,2.109 1.59,5.135 1.59,5.135 -0.836,0.355 -1.61,0.414 -2.032,0.414 -0.209,0 -0.332,-0.015 -0.332,-0.015 3.373,2.987 7.982,3.847 12.176,3.847 5.697,0 10.624,-1.588 10.624,-1.588 l -1.01,-1.916 c -1.244,0.095 -2.421,0.138 -3.536,0.138 -13.1,0 -17.48,-6.015 -17.48,-6.015 z"
               transform="matrix(1.2328705,0,0,1.2328705,-1,-0.7)" />
          </g>
          <path
             id="ID0.2103307875804603"
             fill="#f9c780"
             stroke="#000000"
             stroke-width="0.5"
             d="m 26.677,11.147 c 0,0 5.684,-4.468 7.777,-6.861 2.093,-2.393 7.007,-4.574 7.656,-1.732 0.649,2.842 0.621,2.611 2.365,4.007 1.746,1.396 2.941,5.035 -2.543,6.98 -5.484,1.944 -10.634,2.327 -13.775,1.879 -3.141,-0.45 -2.487,-3.475 -1.48,-4.273 z"
             transform="matrix(1.2328705,0,0,1.2328705,-1,-0.7)" />
          <path
             id="ID0.125349217094481"
             fill="#f9c780"
             stroke="#000000"
             stroke-width="0.5"
             d="m 23.534,10.574 c 0,0 -2.907,-3.15 -4.403,-4.08 -1.496,-0.93 -3.225,-3.423 -4.653,-1.496 -1.429,1.927 -3.423,2.393 -4.819,3.756 -1.396,1.362 0.332,2.359 2.892,3.49 2.56,1.129 8.706,1.959 10.983,2.094 2.278,0.132 1.18,-2.842 0,-3.764 z"
             transform="matrix(1.2328705,0,0,1.2328705,-1,-0.7)" />
          <path
             id="ID0.03181919315829873"
             fill="#f9c780"
             stroke="#000000"
             stroke-width="0.5"
             d="m 23.153,15.567 c 1.003,0.562 1.58,1.164 4.59,0.304 0.561,-0.158 0.661,-0.901 -0.137,-2.497 -0.796,-1.595 1.065,-2.46 -0.996,-2.859 -2.061,-0.399 -3.856,-0.199 -3.789,1.196 0.067,1.396 -1.139,3.036 0.332,3.856 z"
             transform="matrix(1.2328705,0,0,1.2328705,-1,-0.7)" />
        </g>
      </g>
    </g>
  </g>
</svg>
