<?xml version="1.0" encoding="UTF-8" standalone="no"?>
<svg
   version="1.1"
   width="74.5"
   height="114.05883"
   viewBox="-1 -1 74.5 114.05883"
   id="svg12"
   sodipodi:docname="glass_water-a.svg"
   xmlns:inkscape="http://www.inkscape.org/namespaces/inkscape"
   xmlns:sodipodi="http://sodipodi.sourceforge.net/DTD/sodipodi-0.dtd"
   xmlns="http://www.w3.org/2000/svg"
   xmlns:svg="http://www.w3.org/2000/svg">
  <defs
     id="defs16" />
  <sodipodi:namedview
     id="namedview14"
     pagecolor="#ffffff"
     bordercolor="#000000"
     borderopacity="0.25"
     inkscape:showpageshadow="2"
     inkscape:pageopacity="0.0"
     inkscape:pagecheckerboard="0"
     inkscape:deskcolor="#d1d1d1" />
  <!-- Exported by Scratch - http://scratch.mit.edu/ -->
  <g
     id="ID0.663632448296994"
     transform="translate(-203,-133.45588)">
    <g
       id="ID0.24732984602451324"
       transform="translate(201,132)">
      <g
         id="ID0.008622032590210438">
        <path
           id="ID0.09444683231413364"
           fill="#cccccc"
           stroke="#000000"
           stroke-width="2"
           d="m 210.5,121.5 c 9.794,0 18.669,0.364 25.096,0.953 6.426,0.588 10.404,1.4 10.404,2.297 0,0.897 -3.978,1.709 -10.404,2.297 -6.427,0.589 -15.302,0.953 -25.096,0.953 -9.794,0 -18.669,-0.364 -25.096,-0.953 -6.426,-0.588 -10.404,-1.4 -10.404,-2.297 0,-0.897 3.978,-1.709 10.404,-2.297 6.427,-0.589 15.302,-0.953 25.096,-0.953 z"
           transform="matrix(1,0,0,1.5705882,-172.5,-188.8)" />
        <path
           id="ID0.1540069291368127"
           fill="#56aaff"
           stroke="#000000"
           stroke-width="2"
           d="m 243.5,251 c 4.69,0 8.94,0.364 12.018,0.953 3.077,0.588 4.982,1.4 4.982,2.297 0,0.897 -1.905,1.709 -4.982,2.297 -3.078,0.589 -7.328,0.953 -12.018,0.953 -4.69,0 -8.94,-0.364 -12.018,-0.953 -3.077,-0.588 -4.982,-1.4 -4.982,-2.297 0,-0.897 1.905,-1.709 4.982,-2.297 C 234.56,251.364 238.81,251 243.5,251 Z"
           transform="matrix(1,0,0,1.6470588,-203.5,-311.25)" />
        <path
           id="ID0.37185795046389103"
           fill="none"
           stroke="#000000"
           stroke-width="2"
           stroke-linecap="round"
           d="m 278,157 -17,99"
           transform="translate(-203.5,-149)" />
        <path
           id="ID0.34106422076001763"
           fill="none"
           stroke="#000000"
           stroke-width="2"
           stroke-linecap="round"
           d="m 205.5,156.5 20.5,100"
           transform="translate(-203.5,-149)" />
      </g>
      <path
         id="ID0.8030695081688464"
         fill="#56aaff"
         stroke="#000000"
         stroke-width="2"
         d="m 244.25,189.5 c 7.518,0 14.331,0.448 19.264,1.172 4.933,0.724 7.986,1.724 7.986,2.828 0,1.104 -3.053,2.104 -7.986,2.828 -4.933,0.724 -11.746,1.172 -19.264,1.172 -7.518,0 -14.331,-0.448 -19.264,-1.172 -4.933,-0.724 -7.986,-1.724 -7.986,-2.828 0,-1.104 3.053,-2.104 7.986,-2.828 4.933,-0.724 11.746,-1.172 19.264,-1.172 z"
         transform="matrix(1.0530974,0,0,1.15,-218.4,-178.75)" />
    </g>
    <path
       id="ID0.850439025554806"
       fill="#56aaff"
       stroke="#56aaff"
       stroke-width="2"
       stroke-linecap="round"
       d="m 259.75,252.25 9.75,-56.25 -5,1.5 -7,1 -8.75,1 h -6.5 l -8.25,-0.25 -6.25,-0.5 -7,-1 -5.25,-1.5 11.5,56.5 4.25,-2 3.75,-1 4.25,-0.5 h 5 l 4.25,0.25 4,0.5 3.5,1 z"
       transform="translate(-2.5,-17)" />
    <path
       id="ID0.6659666523337364"
       fill="#cccccc"
       stroke="#cccccc"
       stroke-width="2"
       stroke-linecap="round"
       d="m 275.5,159.25 -6.75,2.25 -9,1.25 -8.5,0.5 -8.5,0.25 -9.25,-0.25 -9.75,-0.5 -9.25,-1 -6.25,-1.5 6,29.25 6,-1.75 6.75,-1 7.75,-0.5 h 7.5 7.25 l 7.25,0.5 6.75,0.75 4.5,1 2.65,1.1 z"
       transform="translate(-2.5,-17)" />
  </g>
</svg>
