<?xml version="1.0" encoding="UTF-8" standalone="no"?>
<svg
   id="Layer_1"
   version="1.1"
   viewBox="0 0 200.62555 155.16612"
   sodipodi:docname="Goldfish.svg"
   width="200.62555"
   height="155.16612"
   xmlns:inkscape="http://www.inkscape.org/namespaces/inkscape"
   xmlns:sodipodi="http://sodipodi.sourceforge.net/DTD/sodipodi-0.dtd"
   xmlns="http://www.w3.org/2000/svg"
   xmlns:svg="http://www.w3.org/2000/svg">
  <sodipodi:namedview
     id="namedview111"
     pagecolor="#ffffff"
     bordercolor="#000000"
     borderopacity="0.25"
     inkscape:showpageshadow="2"
     inkscape:pageopacity="0.0"
     inkscape:pagecheckerboard="0"
     inkscape:deskcolor="#d1d1d1" />
  <!-- Generator: Adobe Illustrator 29.8.3, SVG Export Plug-In . SVG Version: 2.1.1 Build 3)  -->
  <defs
     id="defs4">
    <style
       id="style2">
      .st0 {
        fill: #fe9e04;
      }

      .st1 {
        fill: #fe7e00;
      }

      .st2 {
        fill: #fb9900;
      }

      .st3 {
        fill: #f19200;
      }

      .st4 {
        fill: #f99800;
      }

      .st5 {
        fill: #fe7d00;
      }

      .st6 {
        fill: #582c00;
      }

      .st7 {
        fill: #fe9a00;
      }

      .st8 {
        fill: #fe9c02;
      }

      .st9 {
        fill: #291400;
      }

      .st10 {
        fill: #f58000;
      }

      .st11 {
        fill: #f77a00;
      }

      .st12 {
        fill: #fd7e00;
      }

      .st13 {
        fill: #fee07f;
      }

      .st14 {
        fill: #fe9500;
      }

      .st15 {
        fill: #feed98;
      }

      .st16 {
        fill: #341a00;
      }

      .st17 {
        fill: #fe9d04;
      }

      .st18 {
        fill: #fe9d02;
      }

      .st19 {
        fill: #ec8200;
      }

      .st20 {
        fill: #8e4600;
      }

      .st21 {
        fill: #fee587;
      }

      .st22 {
        fill: #fe9f06;
      }

      .st23 {
        fill: #010000;
      }

      .st24 {
        fill: #010100;
      }

      .st25 {
        fill: #100900;
      }

      .st26 {
        fill: #fee68a;
      }

      .st27 {
        fill: #f99400;
      }

      .st28 {
        fill: #fb7e00;
      }

      .st29 {
        fill: #fedf7d;
      }

      .st30 {
        fill: #f47900;
      }

      .st31 {
        fill: #f87f00;
      }

      .st32 {
        fill: #fe9d03;
      }

      .st33 {
        fill: #fa7c00;
      }

      .st34 {
        fill: #feed97;
      }

      .st35 {
        fill: #fe9b00;
      }

      .st36 {
        fill: #070707;
      }

      .st37 {
        fill: #ca7900;
      }

      .st38 {
        fill: #fc7d00;
      }

      .st39 {
        fill: #fe9e06;
      }

      .st40 {
        fill: #fe9c03;
      }

      .st41 {
        fill: #fdfdfd;
      }

      .st42 {
        fill: #fb9700;
      }
    </style>
  </defs>
  <path
     d="m 138.0912,59.585977 4.18,-9.13 c 9.03,-17.12 28.33,-25.29 45.73,-14.5 13.93,8.64 16.15,22.48 7.56,36.1 -4.68,7.42 -11.53,10.49 -19.3,13.81 11.91,7.78 15.83,24.800003 5.05,35.310003 -15.76,15.37 -39.27,-3.67 -45.02,-19.82 -1.94,2.3 -2.95,5.2 -4.51,7.73 -1.13,1.84 -4.32,3.39 -2.14,4.66 6.29,3.65 7.28,4.55 3.26,11.58 -6.11,10.66 -18.69,16.15 -24.68,2.01 l -8.269998,4.6 c 2.739998,4.27 6.269998,8.27 2.149998,12.98 -3.479998,3.98 -16.299998,9.33 -21.579998,10.11 -9.78,1.45 -16.66,-8.63 -17.99,-17.37 -16.67,-1.84 -31.69,-11.27 -42.18,-24.06 -1.55,-1.89 -6.03,-9.99 -6.84,-10.48 -1.29,-0.78 -2.84,0.25 -4.3500002,0.07 -4.64,-0.54 -9.25000003,-4.860003 -8.31000003,-9.780003 0.34000003,-1.79 2.55000003,-4.42 2.48000003,-5.26 -0.28,-3.09 -5.61,-4.94 -2.19,-11.07 2.8,-5.01 8.83,-2.4 9.5000002,-3.1 0.23,-0.24 0.59,-4.89 1.08,-6.48 5.67,-18.53 24.38,-37.36 44.19,-39.69 1.31,-7.77 2.13,-17.9599995 9.21,-22.8299995 19.38,-13.3 52.889998,1.71 55.599998,25.5199995 0.28,2.43 -0.49,8.1 0.44,9.64 0.74,1.22 7.42,5.77 9.36,7.92 2.86,3.17 5.63,7.69 7.56,11.52 z"
     id="path6" />
  <path
     class="st35"
     d="m 111.4412,43.035977 -0.43,0.61 5.03,2.73 c 3.86,2.61 -3.93,4.39 -6.18,3.73 0.36,2.19 -1.13,3.11 -3.09,3.45 10,3.92 6,9.42 -1.93,11.7 -2.31,-2.22 -4.82,-3.79 -7.809998,-5.36 -2.15,3.29 -6.39,4.45 -10.13,4.68 -0.82,6.57 -7.48,6.65 -11.46,2.93 l -1.58,-0.66 c -0.76,-3.94 -1.68,-7.88 -3.03,-11.66 l 1.01,-1.36 0.25,-0.83 c 1.17,0.16 6.25,-2.22 6.3,-2.56 0.03,-0.19 -1.25,-2.86 -1.66,-3.34 -0.82,-0.96 -8.23,-2.22 -9.93,-1.19 -1.5,0.33 -3.03,-0.49 -4.58,-2.46 -1.58,-1.73 -3.41,-2.11 -5.5,-1.14 5.62,8.04 10.55,15.26 12.4,25.75 2.9,16.38 -4.09,31.75 -14.1,44.180003 -0.61,1.17 -0.28,2.34 0.98,3.51 5.13,-1.98 9.04,-5.92 11.75,-11.84 l 1.93,-0.4 1.69,0.37 c 4.2,10.18 26.33,13.61 28.14,0.48 1.159998,-8.380003 -18.6,-16.290003 -23.87,-11.730003 0.67,0.95 1.33,1.93 1.96,2.96 3.22,1.67 3.7,2.87 1.44,3.6 l -0.77,1.280003 c 3.63,2.6 7.46,4.89 11.51,6.86 1.2,0.74 0.7,1.5 -0.66,1.94 -1.45,2.87 -6.46,1.07 -8.9,-0.17 -2.29,-1.16 -7.71,-5.98 -6.94,-8.47 -2.53,0 -3.71,-0.52 -3.55,-1.550003 2.43,-7.69 4.32,-15.46 4.93,-23.57 l 1.5,-0.8 0.91,0.36 c 3.85,-2.39 6.16,-1.76 9.25,1.58 2.09,-0.9 4.19,-0.22 6.3,2.05 1.42,2.06 3.13,3.13 5.13,3.21 1.37,-1.49 3.289998,-2.45 5.759998,-2.88 -0.33,-2.13 1.47,-3.69 5.41,-4.68 6.25,-7.49 15.98,2.64 3.88,6.23 2.65,1.75 4.02,3.71 5.12,6.37 0.27,-1.56 0.75,-2.04 1.44,-1.44 5.68,-3.14 5.74,-5.45 0.19,-6.93 l -0.19,-0.99 -0.68,-0.71 c 0.64,-2.12 -0.79,-3.87 -4.28,-5.26 l 0.07,-1.17 c 2.32,-0.95 4.43,-1.92 6.33,-2.94 l 0.45,-0.9 c 4.51,-0.68 6.04,-2.54 4.59,-5.58 -4.9,-1.16 -8.45,-3.66 -10.65,-7.52 -5.04,-2.85 -3.86,-3.81 1.1,-4.4 0.52,-0.99 1.3,-1.58 2.35,-1.77 9.86,7.35 12.4,16.01 19.44,25.2 1.33,-0.23 1.83,-0.1 2.18,1.09 l 2.17,-0.55 c 3.75,-5.2 6,-5.53 6.75,-1.01 l 3.53,-0.78 c 2.1,0.74 5.22,7.4 2.66,9.17 -5.48,4.05 -5.18,7 0.89,8.84 2.2,1.48 4.04,5.43 0.55,4.84 l -1.28,0.93 c -6.55,-6.05 -9.74,-7.59 -9.55,-4.61 l -1.17,1.65 c -7.81,-3.55 -11.7,-3.07 -18.55,2.11 -14.23,13.720003 -27.679998,25.500003 -48.609998,27.000003 -19.92,1.42 -34.18,-0.8 -46.9,-16.86 -3.04,-2.89 -6.08,-5.520003 -10.22,-6.520003 -1.8,-3.8 -4.97,-5.38 -9.51,-4.73 l -0.36,-1.86 c 5.83,-7.1 -5.7200002,-5.28 -5.0400002,-11.52 2.99,-0.71 5.5900002,1.28 8.2900002,1.46 5.52,0.37 3.4,-2.14 4.14,-5.95 8.46,-43.34 59.12,-51.52 93.399998,-32.24 z"
     id="path8" />
  <path
     class="st1"
     d="m 156.8012,94.155977 c 0.64,0.19 0.63,0.43 0,0.72 2.14,8.190003 14.02,14.370003 19.42,20.520003 -4.47,7.06 -11.39,-1.54 -15.1,-5.4 0.19,-1.2 0.74,-1.49 1.78,-1.03 -2.59,-2.83 -5.95,-6.42 -8.8,-8.87 -0.08,-0.07 -0.45,0.19 -0.9,0.54 -1.41,-1.480003 -3.47,-2.950003 -5.03,-4.320003 1.28,9.110003 8.8,15.100003 14.39,21.590003 -7.19,-1.35 -13.48,-8.87 -17.14,-14.89 -2.06,-3.390003 -4.45,-12.230003 -9.11,-11.760003 -2.51,0.25 -5.55,7.11 -7.29,9.320003 -10.86,13.84 -19.51,18.93 -35.809998,25.39 -21.33,8.45 -43.33,4.98 -60.26,-10.56 -6.52,-5.99 -10.45,-12.69 -15.42,-19.870003 -3.02,-2.08 -6.14,2.69 -9.4400002,0.09 -1.55,-2.14 1.78,-3.4 2.5500002,-4.35 1.92,1.69 4.98,0 7.2,1.08 1.56,0.76 1.74,3.41 2.32,3.81 0.9,0.62 3.87,1 6.26,2.74 11.36,8.240003 15.15,19.110003 31.39,20.450003 24.1,1.99 36.78,0.2 55.409998,-15.13 8.7,-7.160003 18.88,-22.310003 31.33,-12.940003 -0.54,-9.86 8.46,1.01 12.25,2.88 z"
     id="path10" />
  <path
     class="st1"
     d="m 173.3612,39.435977 c 4.27,0.3 8.55,0.88 11.52,4.31 -5.64,0.49 -11.25,1.59 -16.33,4.19 -0.82,0.42 -7.98,4.76 -6.7,5.89 l 7.92,-1.44 v 0.9 c 0,0 4.32,-2.34 4.32,-2.34 7.16,-2.62 19.1,-7.11 18.72,5.04 -8.75,0.87 -20.13,1.4 -26.64,7.91 8.54,1.05 16.37,-1.66 24.66,-2.34 0.47,-0.04 1.88,-1.3 1.25,0.54 -0.35,1.01 -4.35,8.19 -4.82,8.31 -6.52,0.22 -13.14,-0.33 -19.65,-0.01 -3.6,0.46 -4.8,0.94 -3.6,1.44 1.59,0.44 3.15,1 4.77,1.36 l 13.95,1.51 c -3.46,1.29 -6.71,2.81 -10.34,3.7 -4.3,1.05 -10.01,0.53 -12.69,3.51 -1.29,1.31 -2.68,0.82 -3.6,-0.72 -1.16,0.97 -1.55,0.57 -0.72,-0.72 -0.95,-2.82 0.19,-2.51 -1.74,-5.85 -0.44,-0.76 -0.36,-2 -0.43,-2.08 -0.3,-0.32 -6.45,3.86 -5.76,-2.87 -1.59,1.09 -2.79,4.23 -4.82,4.88 -4.05,1.3 -3.3,-0.4 -4.53,-2.01 7.14,-0.33 8.03,-11.44 10.68,-17.04 3.34,-7.07 9.05,-13.17 16.68,-15.36 -0.67,2.57 -2.31,4.82 -4.94,6.76 3.85,-3.65 8.14,-6.14 12.86,-7.48 z"
     id="path12" />
  <path
     class="st15"
     d="m 75.441202,67.515977 c 3.32,0.23 4.01,2.42 7.46,0.62 6.24,-3.25 -0.64,-4.91 -3.14,-7.09 2.79,-1.04 4.66,1.59 6.31,2.01 2.32,0.59 9.19,-1.52 9.84,-4.17 0.94,-3.85 -9.36,-4.86 -9.66,-6.14 -0.45,-1.97 6.27,-3.05 6.46,-5.76 l -6.46,-3.95 c 3.56,-0.39 9.68,1.03 7.55,5.74 -0.76,1.68 -3.22,2.17 -3.94,3.61 3.13,0.5 5.12,1.66 7.19,3.97 0.65,0.72 0.69,2.07 1.46,2.86 0.89,0.9 3.059998,1.32 4.289998,2.2 1.87,1.35 0.51,3.16 3.62,2.18 9.31,-2.96 4.08,-8.41 -2.89,-9.04 -0.78,-2.91 6,-1.93 5.03,-3.95 -0.8,-1.67 -5.17,-1.57 -5.75,-3.96 4.22,0.54 8.06,3.4 12.5,2.05 3.46,-1.05 -2.89,-3.6 -4.12,-4.33 -1.31,-0.77 -2.01,-1.57 0.25,-1.33 2.49,1.4 4.9,2.6 7.2,4.32 0.03,1.44 -0.88,2.16 -2.12,2.56 -1.24,0.4 -3.57,-0.23 -3.63,1.03 4.02,0.25 4.91,4.6 6.48,6.12 1.42,1.37 4.1,1.23 6.47,3.97 0.78,1.11 0.42,1.52 -0.72,0.72 l -1.67,0.66 c -3.49,-2.7 -8.3,-1.31 -11.29,0.06 0.16,1.37 -0.54,2.34 -2.1,2.9 2.28,4.92 11.72,1.61 3.73,-0.54 l -0.19,-1.63 c -1.21,-4.68 9.4,-0.87 7.2,2.88 1.65,0.21 1.28,0.57 0,1.44 -0.18,0.1 -0.89,1.47 -1.88,2.07 -1.19,0.72 -4.79,0.73 -2.72,2.3 1.82,1.38 5.56,1.87 3.16,5.71 0.65,0.99 0.17,1.47 -1.44,1.44 -1.03,1.4 -0.66,3 1.12,4.79 l -1.12,3.13 c -2.32,2.08 -5.56,3.05 -8.64,2.87 0.54,-2.34 6.86,-2.47 7.2,-3.96 -0.64,-2.84 -3.96,-3.28 -5.76,-5.04 -0.53,-2.22 5.85,-2.3 6.88,-3.93 1.62,-2.54 -2.91,-4.49 -4.93,-4.23 -2.05,2.36 -5.48,2.93 -7.69,4.61 -0.77,0.58 -1.14,1.52 -1.45,1.76 -1.25,0.69 -1.54,0.51 -0.72,-0.72 -2.07,-0.4 -1.9,-2.26 0,-2.88 -0.95,-1.01 -0.55,-1.38 0.72,-0.72 1.78,-0.89 3.49,-1.94 5.15,-3.13 -0.15,-5.88 -7.4,-1.76 -9.469998,0.25 0.919998,1.32 -0.1,1.19 -1.44,0.72 0.07,1.54 -1.28,2.71 -4.06,3.53 1.71,1.44 2.34,2.9 1.9,4.39 1.78,0.13 2.5,0.61 2.16,1.44 -2.13,1.14 -4.86,5.66 -8.64,5.03 0.12,-2.13 4.83,-3.37 5.01,-3.63 1.35,-1.88 -4.46,-6.24 -6.69,-5.78 -0.5,0.1 -5.56,7.53 -8.4,4.36 -1.14,-1.28 0.92,-1.49 1.42,-1.78 1.5,-0.89 3.26,-1.31 4.32,-2.89 -0.87,-1.1 -2.7,-2.34 -4.07,-2.35 -1.73,-0.02 -5.31,4.17 -4.55,-0.17 -0.64,-0.13 -0.61,-0.38 0,-0.72 l 0.16,-1.01 c 2.25,-0.44 1.96,-1.78 -0.88,-4.03 -1.92,-0.31 -1.82,-0.87 0,-1.44 z"
     id="path14" />
  <path
     class="st12"
     d="m 73.281202,25.035977 c -1.58,0.03 -2.84,-0.14 -4.31,0.72 2.5,-8.63 1.44,-22.1799995 14.39,-19.4399995 0.55,0.48 -7.53,9.7399995 -3.23,12.2299995 4.62,-5.38 4.94,-14.5999995 14.03,-10.0699995 -1.95,5.6399995 -8.75,9.2999995 -7.92,15.8299995 0.36,0.78 -0.12,1.02 -1.44,0.72 -2.39,-0.27 -5.41,0.02 -7.92,0 -1.4,-0.79 -2.16,-0.71 -3.6,0 z"
     id="path16" />
  <path
     class="st5"
     d="m 155.3612,80.475977 c 0.21,0.62 0.7,0.67 0.72,0.72 1.77,0.43 2.86,1.89 3.27,4.38 3.39,2.61 7.34,4.51 11.85,5.7 0.96,0.69 7.45,6.27 6.48,7.2 -3.43,-1.16 -6.51,-2.12 -10.08,-2.88 -2.82,-0.38 -3.54,-0.14 -2.16,0.72 2.91,2.02 13.87,5.920003 14.3,6.580003 0.7,1.09 0,7.71 -0.98,9.26 -5.33,-4.02 -10.09,-9.51 -15.14,-13.660003 -1.91,-1.57 -4.24,-3.69 -6.82,-3.62 -0.06,-0.22 0.06,-0.5 0,-0.72 -0.01,-0.05 0.69,-0.41 0.57,-0.93 -0.85,-3.97 -7.84,-4.59 -7.81,-7.35 0.01,-0.86 3.56,-6.99 5.79,-5.4 z"
     id="path18" />
  <path
     class="st28"
     d="m 94.881202,143.11598 c -1.59,1.24 -4.91,-3.32 -5.59,-4.92 -0.14,-0.33 3.9,4.93 3.85,5.28 -0.05,0.35 -0.22,0.72 -0.42,1.07 -1.23,0.56 -4.03,1.7 -5.25,1.35 -0.99,-0.29 -6.89,-9.63 -6.26,-3.18 0.18,1.86 2.84,3.49 2.88,5.06 -3.27,3.01 -7.6,-9.42 -10.08,-6.83 -1.39,1.45 3.7,6.79 4.31,8.28 -5.6,0.39 -9.5,-6.04 -10.07,-11.16 3.19,-0.15 6.44,0.24 9.63,-0.09 3.19,-0.33 15.14,-4.19 15.96,-4.06 0.54,0.09 3.95,4.9 3.92,5.97 -0.05,1.53 -1.79,2.41 -2.87,3.22 z"
     id="path20" />
  <path
     class="st38"
     d="m 97.041202,23.595977 c 1.53,1.07 -0.36,4.79 -2.16,4.32 -2.17,-0.6 -3.48,-0.98 -5.76,-1.44 l -0.82,-1.67 4.42,-6.97 c 2.81,-5.37 5.28,-10.0099995 10.789998,-3.96 0,1.33 -9.569998,6.72 -6.469998,9.72 z"
     id="path22" />
  <path
     class="st38"
     d="m 104.9612,28.635977 c 0.02,1.32 -1.01,1.91 -2.16,1.44 -1.58,-0.58 -3.419998,-0.93 -5.039998,-1.44 -1.3,-1.5 -0.82,-3.42 1.44,-5.76 0.09,-0.41 5.379998,-5.96 5.749998,-6.16 2.1,-1.17 5.25,2.68 4.94,4.26 -0.37,1.88 -6.2,4.23 -4.93,7.66 z"
     id="path24" />
  <path
     class="st7"
     d="m 173.3612,39.435977 c -7.87,5.33 -15.61,10.85 -21.96,18 -1.13,-0.64 0.24,-1.63 0.64,-2.24 3.7,-5.67 8.38,-10.56 13.4,-15.04 3.39,-0.97 4.84,-0.93 7.92,-0.72 z"
     id="path26" />
  <path
     class="st42"
     d="m 153.2012,100.63598 -0.36,-2.880003 c 4.09,3.300003 8.84,7.500003 12.25,11.510003 0.73,0.86 5.25,6.56 4.66,7.21 -2.64,-1.49 -4.59,-3.87 -6.83,-5.8 -0.67,-0.58 -1.69,-0.57 -1.81,-0.68 -3.03,-2.77 -5.13,-6.42 -7.92,-9.36 z"
     id="path28" />
  <path
     class="st33"
     d="m 67.521202,22.155977 c -0.05,2.94 -5.47,4.01 -5.76,0.72 1.17,-5.54 2.92,-11.54 8.28,-14.3999995 0.28,2.9499995 -1.88,5.6499995 -2.35,8.4499995 -0.29,1.72 -0.25,3.5 -0.17,5.23 z"
     id="path30" />
  <path
     class="st31"
     d="m 117.9212,122.23598 c 1.11,-0.73 5.91,-4.13 6.28,-4.22 0.71,-0.18 4.33,1.21 4.47,1.41 0.28,0.39 -0.54,3.43 -0.68,3.53 -0.21,0.16 -3.61,-2.28 -5.03,-1.43 l 2.86,3.96 c -3.17,3.33 -4.47,1.16 -7.19,-1.08 -1.19,-0.2 -1.61,-1.21 -0.72,-2.16 z"
     id="path32" />
  <path
     class="st2"
     d="m 104.9612,28.635977 c 0.44,-0.07 1.88,-0.1 2.16,0 0.92,-0.98 1.94,-0.73 3.05,0.76 1.53,-0.67 2.67,-0.68 3.43,-0.04 0.42,1.93 1.18,3.57 0.72,5.76 -0.42,0.47 -10.1,-4.51 -11.52,-5.04 0.35,-1.19 1.08,-1.28 2.16,-1.44 z"
     id="path34" />
  <path
     class="st35"
     d="m 159.6812,81.915977 c 0.36,0.85 -0.26,2.9 0.91,4.14 0.83,0.88 8.08,3.39 10.61,5.22 l -6.14,-1.42 c -5.68,-2.41 -6.65,-2.85 -8.98,-8.66 0.93,-0.07 3.21,-0.2 3.6,0.72 z"
     id="path36" />
  <path
     class="st10"
     d="m 116.4812,123.67598 c 0.85,-0.92 1.57,-0.2 2.16,2.16 1.55,1.82 3.83,4.43 -0.37,4.39 -2.56,-0.02 -3.79,-3.29 -4.69,-5.45 0,-0.71 2.27,-0.74 2.9,-1.1 z"
     id="path38" />
  <path
     class="st27"
     d="m 174.0812,50.955977 -14.05,10.79 -1.06,-0.35 c 3.22,-2.66 7.28,-6.94 10.8,-9 2.03,-1.19 2.74,-0.86 4.32,-1.44 z"
     id="path40" />
  <path
     class="st30"
     d="m 113.6012,29.355977 c -4.43,3.49 -4.87,-0.11 -6.48,-0.72 l 4.68,-4.31 c 1.56,1.23 1.43,3.31 1.8,5.03 z"
     id="path42" />
  <path
     class="st4"
     d="m 67.521202,22.155977 c 0.06,1.36 0,2.34 0.72,3.59 l -7.2,0.72 c 0.27,-1.19 0.47,-2.41 0.72,-3.6 2.41,1.26 3.57,0.15 5.76,-0.72 z"
     id="path44" />
  <path
     class="st3"
     d="m 89.121202,26.475977 c -1.09,-0.22 -3.7,-1.37 -4.32,-1.44 0.69,0.09 1.04,-0.5 1.44,-0.72 3.64,-1.98 3.75,-3.71 6.48,-6.48 -1.31,2.51 -2.32,6.01 -3.6,8.64 z"
     id="path46" />
  <path
     class="st42"
     d="m 99.201202,22.875977 c -0.01,0.05 1.009998,-0.1 0.61,0.92 -0.63,1.64 -1.86,3.01 -2.05,4.84 -0.94,-0.3 -1.93,-0.46 -2.88,-0.72 0.33,-1.09 1.48,-3.63 2.16,-4.32 0.68,-0.69 1.19,-0.81 2.16,-0.72 z"
     id="path48" />
  <path
     class="st9"
     d="m 94.881202,143.11598 c -0.8,0.61 -1.13,0.98 -2.16,1.44 -1.47,-2.26 -4.06,-4.13 -3.59,-7.2 z"
     id="path50" />
  <path
     class="st14"
     d="m 76.881202,25.035977 c -1.2,-0.01 -2.4,-0.03 -3.6,0 l 3.24,-6.49 z"
     id="path52" />
  <path
     class="st20"
     d="m 167.6012,70.395977 -3.6,1.44 c -0.39,-0.11 -0.98,0.07 -1.44,0 0.67,-2.04 3.25,-1.35 5.04,-1.43 z"
     id="path54" />
  <path
     class="st16"
     d="m 118.6412,124.39598 c 0.09,0.42 -0.06,0.98 0,1.44 -0.66,-0.78 -1.23,-1.66 -2.16,-2.16 0.14,-0.08 0.71,-0.96 1.44,-1.44 -0.02,0.78 0.59,1.53 0.72,2.16 z"
     id="path56" />
  <path
     class="st6"
     d="m 167.6012,95.595977 -2.16,0.72 c -0.53,-0.37 -1.44,-0.58 -1.44,-1.43 1.5,-0.58 2.71,0.52 3.6,0.71 z"
     id="path58" />
  <path
     class="st23"
     d="m 37.801202,66.225977 c 5.19,-0.48 11.42,4.8 13.3,9.42 5.52,13.56 -6.13,25.090003 -19.79,19.79 -12.33,-4.78 -11.22,-20.72 -0.27,-26.62 1.14,-0.61 5.71,-2.5 6.77,-2.6 z"
     id="path60" />
  <path
     class="st24"
     d="m 69.681202,103.51598 c -2.94,-2.56 0.27,-5.380003 3.6,-2.88 5.34,5.22 6.85,9.25 15.84,8.64 0.39,-2.02 1.9,-1.88 3.6,-1.44 l -0.65,-1.79 c -3.27,-1.33 -6.42,-2.89 -9.43,-4.69 -1.03,-0.22 -1.75,-0.7 -2.16,-1.440003 -0.41,-1.81 -1.37,-3.25 -2.88,-4.32 -5.67,-0.88 -3.94,-5.86 1.8,-5.81 8.5,0.06 26.249998,7.02 20.43,18.320003 -5.61,10.89 -26.36,6.54 -30.15,-4.59 z"
     id="path62" />
  <path
     class="st24"
     d="m 56.001202,115.75598 c -0.63,-0.16 -1.62,0.44 -2.22,-0.43 -2.29,-3.31 3.21,-7.69 5.12,-10.71 11.2,-17.730003 13.12,-35.360003 2.01,-53.890003 -1.59,-2.66 -6.36,-5.86 -4.19,-8.41 3.16,-2.49 7.08,3.16 8.93,6.11 9.88,15.72 11.08,34.21 3.68,51.25 -2.35,5.400003 -7.72,14.460003 -13.33,16.090003 z"
     id="path64" />
  <path
     class="st12"
     d="m 66.801202,45.915977 c 1.04,-0.94 1.44,-0.53 0.72,0.72 2.5,0.31 5.28,3.64 3.6,5.76 1.95,-0.29 2.07,-0.03 0.72,1.44 1.46,3.49 2.95,9.87 3.6,13.68 0.08,0.45 -0.06,0.98 0,1.44 2.01,1.04 3.25,4.17 0.72,5.04 0,0.24 0,0.48 0,0.72 -0.06,1.49 -0.64,5.49 -0.92,7.36 -0.42,2.84 -4.65,17.09 -4.04,17.77 0.11,0.12 1.36,0.08 2.08,0.780003 -4.24,-0.720003 -2.88,1.69 -3.6,2.88 -1.57,2.6 -5.24,8.47 -7.28,10.36 -2.87,2.66 -3.04,2.73 -6.4,1.88 5.62,-5.22 10.89,-13.3 13.7,-20.500003 5.56,-14.27 3.33,-34.36 -5.79,-46.8 -1.51,-2.06 -4.51,-6.25 -7.18,-6.14 0.39,-0.45 1.35,-0.69 1.38,-0.77 0.13,-0.33 -1.68,-2.81 0.41,-2.1 2.6,0.88 6.52,4.32 8.29,6.47 z"
     id="path66" />
  <path
     class="st34"
     d="m 66.801202,45.915977 c -0.41,-2.12 1.13,-1.46 2.51,-1.46 2.37,0 6.33,1.41 7.09,1.28 0.63,-0.1 5.51,-3.34 5.51,-3.79 -2.03,-2.38 -5.1,-1.79 -7.91,-1.8 -1.87,-4.17 8.18,-1.4 9.02,-0.01 2.74,4.51 -4.69,6.4 -4.71,6.87 -0.13,3.23 2.84,2.33 4.76,3.15 4.92,2.09 0.76,9.37 -4.03,7.99 -0.48,-2.28 4.04,-3.41 4.31,-4.69 -2.28,-4.89 -7.72,0.97 -11.52,0.37 -0.17,-0.42 -0.49,-0.96 -0.72,-1.44 0.58,-1.38 1.95,-2.46 4.12,-3.23 -2.79,-0.61 -5.37,-1.45 -7.72,-2.53 -0.21,-0.27 -0.51,-0.46 -0.72,-0.72 z"
     id="path68" />
  <path
     class="st11"
     d="m 77.601202,95.595977 c 5.16,0.8 10.41,0.7 15.07,4.01 1.42,1.010003 3.92,3.990003 0.56,3.050003 -3.36,-0.94 -7.14,-3.360003 -10.4,-4.010003 -1.37,-0.28 -2.72,-0.84 -2.34,1.28 h -0.72 c -1.03,1.030003 -1.51,0.540003 -0.72,-0.72 -0.02,-0.03 0.49,-0.34 0.29,-0.71 -0.49,-0.9 -1.85,-1.48 -1.73,-2.89 z"
     id="path70" />
  <path
     class="st25"
     d="m 79.041202,99.195977 c 0.23,0.32 0.5,0.48 0.72,0.72 l 2.16,1.440003 9.35,4.31 c 0.85,0.42 1.27,1.25 1.45,2.17 -1.56,1.07 -1.38,1.29 -3.6,1.44 0.38,-1.74 -0.89,-1.49 -1.89,-2.03 -1.89,-1.01 -9.33,-4.72 -10.18,-6.03 -1.22,-1.860003 0.55,-2.440003 2,-2.030003 z"
     id="path72" />
  <path
     class="st39"
     d="m 117.9212,79.035977 c 3.94,-1.09 9.15,2.6 3.04,5 l -1.6,1.48 c -0.47,0.49 -0.93,0.99 -1.44,1.44 0.38,-3.17 -1.17,-4.57 -3.59,-6.12 -0.02,-0.47 3.05,-1.8 3.59,-1.8 z"
     id="path74" />
  <path
     class="st21"
     d="m 119.3612,85.515977 c 0.12,-0.13 0.13,-1.16 0.67,-1.82 0.92,-1.12 3.26,-1.25 2.93,-3.21 -1.42,0.09 -4,-1.46 -5.04,-1.45 0.09,-0.8 1.26,-1.16 1.44,-1.44 7.34,2.85 7.88,5.37 0,7.92 z"
     id="path76" />
  <path
     class="st13"
     d="m 120.8012,67.515977 c -0.09,-0.44 0.13,-1.12 0,-1.44 l 0.38,-1.58 c 1.82,-0.48 3.1,-0.99 3.94,-2.74 0,-0.05 0.61,-0.44 0.72,-0.72 4.43,5.11 -2.45,5.05 -5.04,6.48 z"
     id="path78" />
  <path
     class="st29"
     d="m 103.5212,79.035977 c -2.83,2.16 -3.46,1.65 -5.759998,2.88 -0.64,-0.58 -1.54,-0.84 -2.16,-1.44 0.82,-1.68 5.729998,-3.52 7.199998,-2.16 0.04,0.33 0.38,0.64 0.72,0.72 z"
     id="path80" />
  <path
     class="st8"
     d="m 93.961202,72.365977 c -3.17,3.28 -15.61,2.84 -10.98,-1.99 0.72,-0.75 1.99,-1.05 2.89,-2.16 0.74,-0.91 0.98,-2.77 1.1,-2.87 0.46,-0.36 10.35,3.53 6.99,7.01 z"
     id="path82" />
  <path
     class="st32"
     d="m 99.201202,71.835977 c -0.45,-0.23 -1.77,-1 -1.44,-1.43 4.799998,-1.08 6.629998,-6.15 11.709998,-1.48 3.47,3.18 -3.66,7.44 -5.95,5.8 -1.29,-0.13 -3.879998,-1.49 -4.319998,-2.88 z"
     id="path84" />
  <path
     class="st18"
     d="m 97.761202,72.555977 c 1.76,-0.09 4.669998,1.27 5.039998,2.88 0.21,0.51 -0.09,2.06 0,2.88 -2.23,1.17 -4.599998,2.31 -7.199998,2.16 -1.62,-1.59 -2.34,-3.25 -5.04,-3.96 0.42,-0.87 5.9,-3.49 7.2,-3.96 z"
     id="path86" />
  <path
     class="st8"
     d="m 96.391202,69.615977 c -0.16,-0.12 -0.36,-1.47 -1.12,-2.11 -1.06,-0.88 -2.9,-1.53 -3.54,-2.1 -1.89,-1.69 1.36,-1.72 2.62,-2.38 2.76,-1.47 4.24,-3.76 7.439998,0.15 2.76,3.36 -4.539998,7.07 -5.399998,6.44 z"
     id="path88" />
  <path
     class="st32"
     d="m 113.6012,63.195977 c 1.18,0.51 6.15,2.27 5.76,3.95 -0.16,0.7 -4.76,2.33 -5.59,2.42 -2.53,0.27 -3.72,-3.63 -6.65,-3.5 1.11,-1.56 3.38,-2.59 5.04,-3.59 0.96,-0.93 1.59,-0.67 1.44,0.72 z"
     id="path90" />
  <path
     class="st17"
     d="m 125.1212,61.755977 c 0.06,0.49 1.02,1.25 0.41,2.15 -0.61,0.9 -3.5,1.92 -4.73,2.17 -0.66,-1.64 -3.52,-3.23 -5.17,-3.83 -1.36,-0.5 -2.33,-1.23 -2.03,0.95 -0.49,-0.21 -0.95,-0.5 -1.44,-0.72 0.17,-0.11 0.41,-0.86 1.21,-1.28 5.05,-2.68 6.95,-2.51 11.75,0.56 z"
     id="path92" />
  <path
     class="st0"
     d="m 113.6112,59.595977 c -0.37,-0.29 -1.52,-5.71 -5.05,-5.05 0.43,-4.32 4.44,-2.27 6.72,-0.6 5.15,3.78 -1.31,5.93 -1.67,5.65 z"
     id="path94" />
  <path
     class="st22"
     d="m 76.161202,73.995977 c 0.03,-2.07 -0.48,-3.25 -0.72,-5.04 4.45,0.89 6.34,4.04 0.72,5.04 z"
     id="path96" />
  <path
     class="st26"
     d="m 103.5212,74.715977 -0.72,0.72 c -0.37,-0.91 -4.189998,-1.96 -5.039998,-2.88 0.52,-0.19 1.06,-0.27 1.44,-0.72 2.519998,1.32 2.409998,1.52 4.319998,2.88 z"
     id="path98" />
  <path
     class="st41"
     d="m 45.701202,77.805977 c 3.89,5.47 -1.24,13.93 -8.57,13.31 -14.05,-1.19 -9.19,-19.77 1.77,-17.72 1.2,0.23 6.19,3.55 6.8,4.4 z"
     id="path100" />
  <path
     class="st19"
     d="m 82.641202,101.35598 12.24,4.33 c 0.37,0.47 -1.65,1.8 -2.16,2.15 -3.75,-2.06 -7.41,-4.05 -10.8,-6.48 z"
     id="path102" />
  <path
     class="st37"
     d="m 82.641202,101.35598 h -0.72 c -0.71,-0.51 -0.94,-0.13 -2.16,-1.440003 h 0.72 z"
     id="path104" />
  <path
     class="st40"
     d="m 67.521202,46.635977 c 7.34,-0.75 15.01,3.02 3.6,5.76 -0.53,-1.12 -2.81,-4.74 -3.6,-5.76 z"
     id="path106" />
  <path
     class="st36"
     d="m 40.701202,79.205977 c 2.8,2.8 -0.8,8.84 -5.28,5.64 -4.62,-3.31 2.01,-8.9 5.28,-5.64 z"
     id="path108" />
</svg>
