<?xml version="1.0" encoding="UTF-8"?>
<svg id="Layer_1" xmlns="http://www.w3.org/2000/svg" version="1.1" viewBox="0 0 360 576">
  <!-- Generator: Adobe Illustrator 29.8.3, SVG Export Plug-In . SVG Version: 2.1.1 Build 3)  -->
  <defs>
    <style>
      .st0 {
        fill: #995808;
      }

      .st1 {
        fill: #14100f;
      }

      .st2 {
        fill: #302824;
      }

      .st3 {
        fill: #392003;
      }

      .st4 {
        fill: #ae7025;
      }

      .st5 {
        fill: #312825;
      }

      .st6 {
        fill: #371f03;
      }

      .st7 {
        fill: #995708;
      }

      .st8 {
        fill: #120f0d;
      }

      .st9 {
        fill: #110e0c;
      }

      .st10 {
        fill: #2a2a2a;
      }

      .st11 {
        fill: #2b2320;
      }

      .st12 {
        fill: #322925;
      }

      .st13 {
        fill: #13100e;
      }

      .st14 {
        fill: #120f0e;
      }

      .st15 {
        fill: #14100e;
      }

      .st16 {
        fill: #2e2522;
      }

      .st17 {
        fill: #312925;
      }

      .st18 {
        fill: #050505;
      }

      .st19 {
        fill: #130f0e;
      }

      .st20 {
        fill: #27201d;
      }

      .st21 {
        fill: #060606;
      }

      .st22 {
        fill: #834f10;
      }

      .st23 {
        fill: #2f2623;
      }

      .st24 {
        fill: #2e2622;
      }

      .st25 {
        fill: #a8691d;
      }

      .st26 {
        fill: #110e0d;
      }

      .st27 {
        fill: #965608;
      }

      .st28 {
        fill: #29221f;
      }

      .st29 {
        fill: #8c5007;
      }

      .st30 {
        fill: #3b2408;
      }

      .st31 {
        fill: #8a4f07;
      }

      .st32 {
        fill: #ae7126;
      }

      .st33 {
        fill: #ad7025;
      }

      .st34 {
        fill: #2e1a02;
      }

      .st35 {
        fill: #312824;
      }

      .st36 {
        fill: #2b2420;
      }

      .st37 {
        fill: #3b2203;
      }

      .st38 {
        fill: #2b2b2b;
      }

      .st39 {
        fill: #945508;
      }

      .st40 {
        fill: #8e5107;
      }

      .st41 {
        fill: #3e260a;
      }

      .st42 {
        fill: #0f0f0f;
      }

      .st43 {
        fill: #8f5207;
      }

      .st44 {
        fill: #392104;
      }

      .st45 {
        fill: #8f5208;
      }

      .st46 {
        fill: #292929;
      }

      .st47 {
        fill: #3c2203;
      }

      .st48 {
        fill: #120e0d;
      }

      .st49 {
        fill: #94560b;
      }

      .st50 {
        fill: #ac6f25;
      }

      .st51 {
        fill: #302723;
      }

      .st52 {
        fill: #985708;
      }

      .st53 {
        fill: #100d0c;
      }
    </style>
  </defs>
  <g>
    <path d="M200.52,135.26c3.9,41.27.44,82.58,2.47,123.87.13.63.44,1.08.96,1.45.45.33,8.72,2.11,10.46,2.74,24.3,8.78,51.15,37.23,49.01,64.59-1.1,14.1-8.34,25.12-11.62,37.63-2.11,8.04,2.1,13.67,7.1,19.76,13.16,16.05,26.83,20.96,32.51,44.24,15.71,64.47-26.81,102.39-88.91,106.6-59.56,4.04-158.06-30.12-137.15-107.26,4.8-17.71,13.42-22.18,20.81-36,5.01-9.37-1.96-14.67-5.74-22.77-10.48-22.46-10.01-41.76,4.07-62.35,17.32-25.31,41.79-31.91,68.45-42.53,2.3-.92,4.65-1.85,6.85-2.98.03-9.98-1.02-19.99-1.09-29.97-.18-27.11-.83-55.71.21-82.68.54-13.99,4.91-16.61-4.97-29.4-8.24-10.66-13.08-11-10.77-26.83,1.53-10.46,12.73-34.74,18.4-44.18,3.8-6.33,4.46-7.72,12.38-8.57,32.44-3.48,38.9,32.77,44.37,57.11,2.78,12.36,4.61,14.4-3.61,24.98-3.85,4.96-8.55,9.62-14.19,12.55h0Z"/>
    <path class="st0" d="M174.92,73.25c-.08-1.89.74-4.51.41-6.19-.99-5.07-5.98-6.84-10.55-7.15,1.6-2.51,3.85-9.29,6.17-10.7,5.33-3.24,23.58,1.02,25.63,8.53-11.98,3.89-14.17,16.4-3.54,23.63-7.2,4.66-.02,13.73-.13,18.44-.05,2.01-1.85,3.52-2.45,5.6-1.76,6.17,1.65,9.14,2.66,14.08,1.49,1.64,1.89,4.22-.08,5.48-1.85.29-4.26.87-6.54,1.13-.08-3.86-.52-3.68-1.33.55-2.36.23-5.21.71-7.48.74l-1.34-.75c-.6-17.64-1.07-35.43-1.43-53.38h0Z"/>
    <path class="st42" d="M174.94,369.01c1.22,20.65,1.28,42.65,1.11,63.37.02.23,0,.64-.14.65-1.11.08-8.28-3.6-9.57-4.5-10.84-7.54-15.6-23.38-12.03-35.85,1.97-6.88,9.89-21.24,16.09-24.78,2.88-1.64,2.83-.24,4.53,1.12h.01Z"/>
    <path class="st42" d="M206.64,429.16l-.96-.09c-.83-19.43-1.61-38.87-2.35-58.32l.9-.54c14.49,6.37,20.18,17.3,18.17,33.25-1.52,12-6.28,18.59-15.76,25.69h0Z"/>
    <path class="st42" d="M192.18,367.38c.92,22.31,1.68,45.1,2.08,67.14l-1.6.38c-2,.28-2.63.27-4.54.31l-.8-.1c-.41-22.52-1.19-45.08-2.34-67.68l.78-.52c2.97-.26,4.2.32,6.42.48h0Z"/>
    <path class="st42" d="M197.66,367.47l.95.84c.27,21.49.96,42.92,2.05,64.3l-.8.9c-1.88.79-3.09.87-4.94,1.25l-.79-.1c-.65-22.56-1.08-45.07-1.29-67.53,1.48.15,3.26,0,4.82.36v-.02Z"/>
    <path class="st42" d="M184.15,366.79c.5,1.55.91,3.1.99,4.67,1.07,21.13,1.84,42.77,2.28,63.52l-1.58.39c-1.21-.06-1.92-.02-3.21-.24-1.61-21.46-2.6-44.34-3.26-66.17,0-.17.34-.35.78-.53.76-.16,2.78-1.48,4-1.64Z"/>
    <path class="st42" d="M178.55,368.31c.34.02.8.17.82.46,1.18,21.73,2.13,44.51,2.32,65.96-1.93-.49-4.28.33-4.97-2.63-.8-20.18-1.43-42.41-.84-62.7,1.26-.63.42-.63,2.66-1.09h0Z"/>
    <path class="st42" d="M202.36,369.43l.96,1.06,2.3,58.59-.98.91c-.28.17-.69.9-1.72,1.49l-2.47,1.32c-.83-20.15-1.5-40.71-1.72-61.04,0-1.16.35-2.33.81-3.49,1.11.32,1.86.82,2.82,1.18v-.02Z"/>
    <path class="st7" d="M175.15,126.87c-1.12-.1-1.87.09-3.21-.24-2.23-1.16-2.56-6.17-.74-7.48.27-3.3,2.11-5.84,1.96-9.38-.12-2.9-1.02-5.88-2.92-8.12-.87-1.55-.92-4.37-.19-6.15,3.22-5.54,1.19-12.49-3.62-16.41,3.17-.91,4.69-1.97,6.77-4.34,1.09-.4,1.6.55,1.52,2.85l1.9,49.01-1.47.26Z"/>
    <path class="st12" d="M179.72,174.02c2.74-.11,4.85.21,7.09.2.59,4.8.62,10.57.14,15.51-3.48.03-5.28-.43-8.03-.6-.5-4.81-.64-9.91-.76-14.75l1.56-.37h0Z"/>
    <path class="st12" d="M181.48,220c2.04-.1,4.11-.13,6.15-.19.39.05.7.11.71.19.33,4.39.54,11.1.46,15.49,0,.17-.33.33-.76.49-2.41.05-4.89-.21-7.09-.2-.87-5.02-1.06-10.39-1.06-15.39l1.58-.39h0Z"/>
    <path class="st12" d="M188.83,264.46l.74.17c.28,5.32.4,10.56.34,15.73-2.96.24-5.17.02-7.75.07-.59-4.8-.62-10.48-.14-15.51,2.01-.06,4.59-.35,6.81-.46h0Z"/>
    <path class="st12" d="M186.2,151.9c.63,4.33.71,9.5.26,13.9-2.4.09-5.09.68-7.48.74-.45-.07-.8-.15-.82-.27-.5-4.56-.52-9.59-.38-14.03,2.71-.14,6.03-.2,8.42-.34h0Z"/>
    <path class="st12" d="M187.02,197.49c.45.09.8.18.81.3.28,4.66.07,9.76-.27,14.27-2.68.12-5.19.08-7.75.07-.85-4.61-.94-9.25-.26-13.9,1.5-1.39,5.11-.73,7.48-.74h0Z"/>
    <path class="st38" d="M157.59,104.01c1.01-.42,3.88.3,5.01.74,8.93,3.54,3.31,13.23-1.74,12.08-2.55-.58-7.96-10.86-3.27-12.82h0Z"/>
    <path class="st12" d="M187.47,173.95c1.07,0,6.48-.66,6.82-.45-.18,4.48,1.06,10.52.47,14.81-.42,3.04-5.12,1.09-7.15,1.15-.59-4.8-.62-10.48-.14-15.51h0Z"/>
    <path class="st10" d="M198.62,104.9c5.63-3.58,12.35,3.72,6.99,10.13-5.56,6.65-12.28-6.77-6.99-10.13Z"/>
    <path class="st12" d="M183.84,288.3c1.71-.05,3.5-.5,5.21-.58,1.57.68,2.13,14.43,1.76,15.13l-1.62.38c-1.87.02-3.63-.06-5.48-.08-1.44-1.13-1.92-13.88-1.45-14.45l1.58-.39h0Z"/>
    <path class="st12" d="M187.13,165.53c-.63-4.33-.71-9.5-.26-13.9.12,0,.56-.68,2.18-.75,1.07-.04,4.13-.09,4.71.72.43.6.68,13.73.03,14.27-1.91,1.21-5.01-.39-6.66-.34h0Z"/>
    <path class="st12" d="M188.78,243.47c.53,3.82.89,8.63.77,12.77,0,.16-.35.32-.78.47-2.14.17-4.73.41-6.81.46-1.05-4.06-1.98-10.28-.26-13.9,2.3,0,5.07.25,7.09.2h-.01Z"/>
    <path class="st12" d="M189.9,219.66c.79-.03,5.29-.52,5.33-.26l-.11,16.79c-2-.75-3.62-.14-5.47-.09-1.35-1.71-1.88-15.4-1.33-16.06l1.58-.39h0Z"/>
    <path class="st12" d="M191.1,264.31c.79,0,5.29-.79,5.34-.25l.28,15.86c-.22.39-5.26.09-6.14.18-.72-5.17-1.06-10.31-1.03-15.42l1.56-.37h0Z"/>
    <path class="st12" d="M189.65,310.05l1.39,1.06c.16,1.5.39,12.41,0,12.93-.19.26-.51.43-.86.58-2.46.06-4.88-.48-6.42-.48-.61-4.13-1.06-9.03-1.03-13.41,0-.17.34-.33.77-.49,2.13.05,4.29-.24,6.15-.19h0Z"/>
    <path class="st12" d="M188.63,197.61c.98.04,6.11-.36,6.32.16l.35,14.22c-.31.53-6.18-.26-7.08-.21-.4-4.25-.63-9.26-.39-13.73,0-.16.36-.31.8-.45h0Z"/>
    <path class="st12" d="M170.92,236.01c-1.5-.16-4.54.27-5.22-1.32-1.08-2.53.77-11.93,0-15.21,1.7.65,5.31-.82,6.02,1.42.48,4.76.67,9.59.56,14.49l-1.36.63h0Z"/>
    <path class="st17" d="M190.65,287.84c1.59-.08,3.34-.5,4.93-.54.76-.02,1.08-.85,1.25.63.54,4.54-.73,10.51.1,15.24-.18.31-4.59-.13-5.47-.09-.4-.04-.71-.09-.72-.18-.35-3.47-.91-11.26-.77-14.55,0-.18.31-.35.69-.51h0Z"/>
    <path class="st17" d="M171.39,242.82c.29,0,.56.03.76.16.56.39.31,12.13.17,13.47-1.51.78-5.25,3.21-5.9.06-.79-3.82.52-9.72-.5-13.77.36-.59,4.4.06,5.47.09h0Z"/>
    <path class="st17" d="M171.72,264.48l.9.42c.5,5.11.66,10.46.18,15.48-1.35-.06-5.11.86-5.51-.89-.24-1.04-.76-12.34-.58-12.96.46-1.53,3.44-1.85,5.01-2.05h0Z"/>
    <path class="st12" d="M192.19,310.56c1.13.05,3.79-1.05,4.65.1l.77,13.2c-1.81,1.17-3.86.75-5.82.88-.42-.15-.75-.32-.76-.5-.1-1.53-.54-13.28.09-13.55.32-.14.69-.15,1.08-.13h0Z"/>
    <path class="st17" d="M171.24,196.96c.59,4.8.62,10.57.14,15.51-1.43.13-3.22-.23-4.72-.05l-.77-17.15,5.35,1.69Z"/>
    <path class="st51" d="M184.97,133.73c2.71-.22,5.51-.28,8.15-1.01.64.32.73,10.52.16,10.8-1.33-1.02-6.19.48-6.49.34-.46-.21.35-3.38-1.36-3.33-2.09-1.15-2.28-5.33-.46-6.81h0Z"/>
    <path class="st12" d="M189.44,243.19c1.65-.04,4.19-.91,6-.53l.05,13.28c-.24.43-4.35.82-5.12.88-.28,0-.54-.03-.73-.16-.56-.39-.36-12.12-.2-13.46h0Z"/>
    <path class="st17" d="M184.97,133.73c.41,2.25.44,4.54.46,6.81,0,.8.42,2.95.09,3.09-2.15,0-4.25.48-6.37.65-.77.06-1.51-.48-1.71-.47-1.47-1.54-2.13-8.35.05-9.36,2.25.02,5.15-.54,7.48-.74v.02Z"/>
    <path class="st17" d="M190.65,331.43c.39.06.69.12.7.21.27,3.37.54,8.89-.59,11.43-1.83-.04-3.64-.02-5.48-.08-2.42-1.01-2.94-9.84-.77-11.36,1.88.02,4.13-.16,6.15-.19h0Z"/>
    <path class="st18" d="M192.84,367.11l2.09,67.64c-1.08.22-1.69.07-2.27.15,1.78-.33,1.1-1.35,1.08-2.55-.24-21.65-1.82-43.31-1.56-64.96.22.02.46-.29.67-.27h0Z"/>
    <path class="st18" d="M185.75,366.91l2.36,68.3c-.7.01-1.21.2-2.27.15,1.78-.33,1.1-1.34,1.08-2.56-.41-21.99-1.74-44.05-2.77-66.02.49-.06,1.11.16,1.61.12h0Z"/>
    <path class="st17" d="M181.35,265.2c.59,4.8.62,10.57.14,15.51-2.02.02-3.26-.3-4.82-.36-.57-4.6-.99-10.1-.92-15.02,0-.17.34-.33.78-.49,1.93-.08,4.17.39,4.82.36h0Z"/>
    <path class="st17" d="M179.2,220.16l.76.17c.19,5.3.3,10.54.32,15.74-1.39,0-3.16.35-4.54.31-.49-.2-.91-.44-1.07-.79-.52-1.13-.45-13.71.66-15.39,1.42-.1,2.6.02,3.88-.04h-.01Z"/>
    <path class="st18" d="M199.54,368.25c.7,20.8.2,41.74,1.1,62.54.11,2.51,1.15.99,2.29.68-.83.47-1.28,1.29-3.06,2.03l-2.21-66.03c.63.14,1.25.6,1.88.79h0Z"/>
    <path class="st5" d="M172.87,288.14c.45.09.8.18.81.3.28,4.66.07,9.76-.27,14.27-1.35-.05-3.09.31-4.52.23-.63-.4-1.15-14.23-.75-14.87.91-1.43,3.62.01,4.73.07h0Z"/>
    <path class="st18" d="M180.15,368.43l2.48,66.7c-.31-.05-.63-.31-.94-.39l-3.15-66.42c.43-.09,1.16.21,1.61.12h0Z"/>
    <path class="st5" d="M170.89,188.54c-.84-.61-4.75-.27-5.04-.74-.35-.56-.98-12.66-.63-13.22s5.52-1.31,5.68.72c.1,4.49.1,8.91,0,13.24Z"/>
    <path class="st17" d="M174.45,197.2c1.51.12,3.99-.69,4.42,1.3.43,4.64.51,9.28.26,13.9-1.77-.04-4.11,1.4-5.09-1.02-.4-4.25-.63-9.26-.39-13.73,0-.16.36-.31.8-.45Z"/>
    <path class="st17" d="M177.45,174.18c.4.04.72.1.73.18.45,4.82.5,10.38.08,15.06-1.09-.09-2.45.2-3.88.04-.81-.08-1.31-.46-1.34-1.22-.2-4.41-.47-8.46-.91-12.65-.06-.55.81-1.05,1.44-1.37,1.65-.24,2.69.04,3.88-.04Z"/>
    <path class="st18" d="M175.88,369.4l.84,62.7-.67.27-1.11-63.37c.27.22.28.72.94.39h0Z"/>
    <path class="st5" d="M192.92,331.28c1.52,0,3.05.1,4.55-.3-.11,1.89,1.19,11.75.02,12.33-1.7-.26-3.42-.18-5.13-.13-1.03-1.41-1.52-10.84-.99-11.54l1.55-.37h0Z"/>
    <path class="st5" d="M173.2,309.79c.95,4.54.86,9.95.53,14.57-.77,0-4.54.48-4.64-.02l-.4-14.25c.28-.45,3.6-.32,4.5-.31h0Z"/>
    <path class="st10" d="M163.35,85.1c2.47,1.23,2.04,8.64-2.39,9.14-5.8.65-7.02-7.45-2.5-8.78.37-.11,4.67-.47,4.89-.36Z"/>
    <path class="st12" d="M178.35,288.22c1.1,0,2.31.25,3.21.24.37.09.66.18.67.3.34,3.8.64,9.99.61,13.77,0,.17-.33.33-.74.49-1.23-.03-2.5.1-3.88.04-1.25-1.28-2.07-12.9-1.6-13.86.42-.85.68-.89,1.73-.98h0Z"/>
    <path class="st24" d="M191.49,350.54c.33.25.25,1.6.88,1.2-.55-3.23,3.63-1.53,5.66-2.32l.49,10.69c-.22.39-6.46-1.05-6.96-1.81-2.61.79-2.52-7.5-.07-7.75h0Z"/>
    <path class="st17" d="M181.89,310.12c.45.07.8.15.82.27.5,4.56.52,9.59.38,14.03-2.18,0-3.52-.32-4.82-.36-.63-4.33-.71-9.5-.26-13.9,1.3.02,2.6-.05,3.88-.04h0Z"/>
    <path class="st21" d="M204.24,370.21l2.41,58.94c-1.35,1.01-1.82.71-2,.82l-2.29-60.55c.69.26,1.22.49,1.88.79h0Z"/>
    <path class="st35" d="M170.03,152.32l1.46.8c.18.61.24,12.2-.24,12.61-.26.23-.6.37-.95.49-1.2.06-2.99.74-4.27.97-.79-.39-.09-13.13-.03-15.2.52-.82,3.04.3,4.04.32h0Z"/>
    <path class="st17" d="M180.08,243.15l.76.16c.12,4.6.18,9.09.17,13.47-1.46.02-2.92.34-4.54.31-1.1-3.96-2.08-10.45-.26-13.9,1.29.02,2.58-.04,3.88-.04h-.01Z"/>
    <path class="st6" d="M185.17,126.64l-1.68-60.03c1.77-.93,1.16.67,1.2,1.61.84,19.27.45,38.61,1.81,57.87-.42.05-.92.51-1.33.55Z"/>
    <path class="st5" d="M177.12,152.52c.61,4.13,1.06,9.03,1.03,13.41,0,.17-.34.33-.77.49-1.68.05-3.63-.38-4.82-.36-1.61-.86-1.48-12.71-1.01-13.24l1.68-.27c1.24-.02,2.69.02,3.88-.04h.01Z"/>
    <path class="st16" d="M184.5,331.62l.77,11.36c-1.18-.04-4.22-.66-5.76-.75-2.42-.55-2.65-9.51-.5-10.69,1.83.02,3.66.07,5.48.08h0Z"/>
    <path class="st24" d="M172.67,134.11c1.43.23,3.36.35,4.82.36-.02,3.03.86,6.54-.05,9.36-1.93.16-2.88.53-5.21.58-1.44,0-2.3-9.93-1.85-10.24l2.29-.06h0Z"/>
    <path class="st6" d="M174.92,73.25c.69,16.54.77,33.78,1.89,50.18.09,1.38.21,2.7.88,3.95-1.13.01-1.83-.45-2.55-.51.99-.91.83-2.05.83-3.24.08-13.51-.9-28.4-1.5-42.01-.08-1.85.23-5.66-1.28-6.88.48-.54.6-1.37,1.72-1.49h0Z"/>
    <path class="st38" d="M199.51,94.96c-1.79-.31-6.13-10.51,1.27-8.98,9.19,1.91,1.74,9.49-1.27,8.98Z"/>
    <path class="st20" d="M179.01,331.54l.5,10.69c-1.73-.1-3.69-.04-5.48-.08-2.42-.55-2.65-9.51-.5-10.69,1.78.06,3.7.07,5.48.08Z"/>
    <path class="st36" d="M177.11,357.22c-1.94.78-1.48.16-2.16-1.44-1.26.36.5,1.22-1.04,2.05-.92.5-3.95,2.18-4.11.48-.1-1.05-.22-9.6.22-9.81,1.76-.36,4.34.77,5.42.85.67-.11,1.26.07,1.32.66.25,2.41.36,4.9.36,7.21h-.01Z"/>
    <path class="st35" d="M191.49,350.54c-.21,1.32-.37,7.08.07,7.75-.2.9-2.78,1.42-3.26,1.19-.23-.11-3.27-3.68-3.31-3.93-2.06-.42-1.32-4.54.08-5.48.08,0,.2-.73,1.52-.58,1.77.2,3.36-.1,4.9,1.06h0Z"/>
    <path class="st35" d="M173.53,331.45l.5,10.69c-1.37-.03-3.13.2-4.55.3v-11.33c.71-.94,3.19.31,4.05.34Z"/>
    <path class="st10" d="M195.44,66.39c1.15,3.01,6.22,2.86,5.22,6.85-1.84,7.41-12.29-4.34-5.22-6.85Z"/>
    <path class="st11" d="M177.7,349.2c1.92.11,5.13.75,7.36.87.96,1.39-.2,4.87-.08,5.48-3.54.32-4.31,2.5-6.7-1.14-1.86-.45-1.94-4.12-.58-5.21Z"/>
    <path class="st35" d="M177.35,310.43c.63,4.33.71,9.5.26,13.9-1.24-.04-2.58-.23-3.21-.24-.59-4.29-.95-9.65-.26-13.9,1.17.04,2.37.22,3.21.24Z"/>
    <path class="st1" d="M173.24,152.56c-2.06,4,.55,9.18-.68,13.51-.73.02-1.52.11-2.27.15l-.26-13.9c1.14.02,2.55.25,3.21.24h0Z"/>
    <path class="st35" d="M176.08,288.38c.37.09.66.18.67.3.34,3.8.64,9.99.61,13.77,0,.17-.33.33-.74.49-1.03-.05-1.99-.49-2.55-.51-.4-4.25-.63-9.26-.39-13.73,0-.16.36-.31.8-.45.54.02,1.09.1,1.61.12h0Z"/>
    <path class="st51" d="M169.19,133.21c1.8.02,2.1,10.4,1.7,10.82-.24.25-.57.4-.93.53-.81-.08-2.35.07-2.92-.34-1.69-1.22,1.55-9.25-.39-11.53,1.27-1.04,1.88.35,2.54.51h0Z"/>
    <path class="st2" d="M174.93,264.72c.28,0,.55.03.74.17.65.46.42,14.08.35,15.73-1.41-.07-2.29-.5-2.55-.51-.33-4.85-.62-9.86-.85-15.02l.71-.49c.52-.04,1.08.14,1.61.12h-.01Z"/>
    <path class="st8" d="M173.57,174.21c-.52,4.81-.41,10.59.81,15.24-.81-.1-1.9.19-2.55-.51.38-4.97.28-5.19-.27-.67l-.67.27c.23-2.9-1.28-11.07,0-13.24,1.14-1.9,1.79-.96,2.66-1.09h.01Z"/>
    <path class="st15" d="M172.67,134.11c-2,.36-.86,1.47-.83,2.66.06,2.55-.07,5.12.39,7.64-.74.02-1.42.24-2.27.15l-.77-11.36c1.09.26,2.54.75,3.48.9h0Z"/>
    <path class="st51" d="M174.6,243.06l.76.16c.04,4.6.1,9.09.17,13.47-.37-.02-1.15.85-1.91.6-.44-.15-.51-1.05-.64-1.11-.53-3.82-.89-8.63-.77-12.77,0-.16.35-.32.78-.47.54.02,1.07.11,1.61.12h0Z"/>
    <path class="st46" d="M163.74,72.29c-.81-.58-1.66-3.47-.62-4.22,10.55-2.7,3.49,6.28.62,4.22Z"/>
    <path class="st23" d="M173.72,220.07c.41.26.74.53.76.82.16,1.97,1.09,14.38.55,14.89l-1.84.07c-.53,0-.95-.05-.97-.16-.15-.76-.37-13.87-.2-14.58.04-.18.19-.34.37-.49.14-.14.07-.65.31-.75.6-.24.9.21,1.02.2Z"/>
    <path class="st35" d="M177.7,349.2c.65,1.68.68,3.45.58,5.21s.61,2.1-1.18,2.82c-2.61-1.8-1.02-5.24-1.68-7.87.33.03,1.17-.22,2.27-.15h0Z"/>
    <path class="st24" d="M172.84,197.08c.45.09.8.18.81.3.28,4.66.07,9.76-.27,14.27-.37,1.36-1.02.51-1.33.55-.59-4.8-.62-10.57-.14-15.51.28-.05.72.39.94.39h0Z"/>
    <path class="st9" d="M190.65,287.84l.81,15.24c-.72.03-1.35.14-2.27.15,2-.36.86-1.47.83-2.66-.1-4.24.39-8.85-.97-12.85.53-.03,1.08.14,1.61.12h0Z"/>
    <path class="st14" d="M175.33,220.19c-.71,5.17-.42,11.01.41,16.17-1.07-.03-1.93-.48-2.55-.51,1.87-.4,1.04-.8,1.09-2,.19-4.38-.58-9.34-.57-13.78.68-.09,1.23.15,1.61.12h.01Z"/>
    <path class="st8" d="M189.9,219.66c-1.79.33-1.09,1.35-1.08,2.55.03,4.58.22,9.35.83,13.89-.53,0-1.08-.13-1.61-.12l-.41-16.17c.65-.02,1.46-.12,2.27-.15h0Z"/>
    <path class="st13" d="M191.1,264.31c-1.92.33-.89,1.44-.89,2.63,0,4.38.19,8.78.36,13.15-.23.02-.44.26-.67.27l-1.08-15.9c.77-.04,1.34-.15,2.27-.15h0Z"/>
    <path class="st14" d="M181.48,220c-1.79.33-1.09,1.35-1.08,2.55.03,4.4.41,8.84.56,13.23-.22,0-.44.28-.67.27l-1.08-15.9c.73-.03,1.5-.12,2.27-.15h0Z"/>
    <path class="st19" d="M178.35,288.22c-1.79.33-1.09,1.35-1.08,2.56.04,3.93.27,8.41.95,12.29-.54-.02-1.07-.09-1.61-.12l-.53-14.57c.48.01,1.36-.16,2.27-.15h0Z"/>
    <path class="st19" d="M192.19,310.56c-1.79,4.17-.03,9.68-.41,14.18-.65.04-1.17-.13-1.61-.12.58-4.62.83-10.11-.53-14.57,1.06.03,1.98.49,2.55.51Z"/>
    <path class="st26" d="M172.39,220.62l.81,15.24c-.49-.03-1.11.28-2.27.15,2.33-3.75-.72-11.61.8-15.12.06-.14.49-.1.67-.27h0Z"/>
    <path class="st19" d="M179.72,174.02c-1.92.33-.89,1.44-.89,2.63,0,4.17.71,8.34.09,12.48-.22,0-.45.29-.67.27l-.81-15.24c.79-.05,1.47-.12,2.27-.15h0Z"/>
    <path class="st14" d="M174.48,288.26l-.41,14.18c-.22,0-.45.28-.67.27l-.53-14.57c.54.03,1.08.1,1.61.12h0Z"/>
    <path class="st13" d="M183.84,288.3c-1.79.33-1.09,1.35-1.08,2.56.04,3.93.27,8.41.95,12.29-.53,0-1.07-.1-1.61-.12l-.53-14.57c.63-.01,1.43-.13,2.27-.15h0Z"/>
    <path class="st8" d="M176.54,264.84l.14,15.51c-.22,0-.45.28-.67.27l-1.08-15.9c.53-.02,1.08.14,1.61.12Z"/>
    <path class="st8" d="M173.32,264.6l.14,15.51c-.22-.01-.45.28-.67.27-.58-5.24.6-10.88-1.08-15.9.48-.06,1.1.15,1.61.12Z"/>
    <path class="st26" d="M187.47,173.95l.14,15.51c-.23,0-.44.27-.67.27l-.14-15.51c.22,0,.44-.27.67-.27Z"/>
    <path class="st8" d="M171.9,196.69l.14,15.51c-.23.02-.44.25-.67.27l-.14-15.51c.23-.05.44-.23.67-.27Z"/>
    <path class="st8" d="M182.02,264.92l.14,15.51c-.22,0-.44.27-.67.27l-.14-15.51c.23,0,.44-.27.67-.27Z"/>
    <path class="st39" d="M169.2,119.97c1.49-.12,1.66,5.18-.08,5.48-1.61-.72-3.82-.32-4.31-2.9,1.54-.7,2.99-1.66,4.39-2.59h0Z"/>
    <path class="st19" d="M177.78,152.25l1.2,14.3c-.53,0-1.08-.13-1.61-.12l-.26-13.9c.23,0,.44-.26.67-.27h0Z"/>
    <path class="st8" d="M188.63,197.61l-.41,14.18c-.23,0-.44.26-.67.27l-.53-14.57c.61,0,1.1.1,1.61.12h0Z"/>
    <path class="st26" d="M183.5,310.24l.26,13.9c-.22,0-.44.27-.67.27l-1.2-14.3c.53,0,1.07.11,1.61.12h0Z"/>
    <path class="st48" d="M174.45,197.2l-.41,14.18-.67.27-.53-14.57c.61,0,1.04.07,1.61.12h0Z"/>
    <path class="st13" d="M186.87,151.63l.26,13.9c-.22,0-.44.26-.67.27l-.26-13.9c.23,0,.44-.27.67-.27Z"/>
    <path class="st8" d="M176.2,243.18c-.96,4.28-.48,9.54.26,13.9-.29,0-.68-.38-.94-.39l-.93-13.63c.59.02,1.14.11,1.61.12h0Z"/>
    <path class="st53" d="M181.69,243.27c-.78,4.42-.37,9.46.26,13.9-.27,0-.69-.4-.94-.39l-.93-13.63c.6,0,1.15.12,1.61.12h0Z"/>
    <path class="st34" d="M171.2,119.15c-.19,2.34.11,5.2.74,7.48-1.44-.35-1.72-.69-2.82-1.18l.08-5.48c.38-.25.5-1.47,2-.82Z"/>
    <path class="st26" d="M179.54,198.23l.26,13.9c-.22,0-.45.28-.67.27.35-3.4-1.49-11.11-.26-13.9.06-.14.48-.1.67-.27Z"/>
    <path class="st48" d="M172.99,242.94v13.24c-.06-.02-.49.17-.68.27l-.93-13.63c.54,0,1.07.1,1.61.12h0Z"/>
    <path class="st53" d="M174.14,310.19l.26,13.9c-.22,0-.44.28-.67.27l-.53-14.57c.28,0,.67.38.94.39h0Z"/>
    <path class="st53" d="M178.02,310.15l.26,13.9c-.22,0-.45.28-.67.27l-.26-13.9c.22,0,.45-.28.67-.27Z"/>
    <path class="st26" d="M189.44,243.19l.93,13.63c-.52.04-1.1-.16-1.61-.12v-13.24c.24,0,.46-.27.68-.27h0Z"/>
    <path class="st40" d="M193.13,119.48l.38.88c2.15.03,1.85.96,2.59,2.57-.49,1.15.19,2.17.15,2.27-.41.91-2.49-.35-3.2-.24-.73-1.48.3-4.42.08-5.48Z"/>
    <path class="st9" d="M192.92,331.28c-1.92.33-.89,1.44-.89,2.63,0,3.09.11,6.19.33,9.27-.64.02-1.11-.11-1.61-.12l-.11-11.63c.64,0,1.3-.16,2.27-.15h0Z"/>
    <path class="st45" d="M150.74,103.42l-.14-6.94c4.77,1.85,1.88,3.83.14,6.94Z"/>
    <path class="st28" d="M171.83,188.94c-.06-.23-.22-.44-.27-.67-.42-1.98-.13-8.28-.14-10.83,0-.56-.58-2.18.58-1.41.31,3.96,1.43,9.25-.16,12.9h0Z"/>
    <path class="st31" d="M211.27,101.13c-3.71-1.23-4.35-2.95-1.52-5.6l1.52,5.6Z"/>
    <path class="st29" d="M169.3,101.25c-.88-.94-2.26-1.42-2.7-2.78.95-.37,1.74-.98,2.39-1.77.96.73.95,3.48.31,4.54h0Z"/>
    <path class="st37" d="M170.05,95.49l.19,6.15c-.14-.17-.75-.18-.94-.39l-.31-4.54c.3-.37.94-1.02,1.06-1.21h0Z"/>
    <path class="st43" d="M196.1,122.93c.76-1.79,3.1-.22,4.15.62l-3.33,1.38c-.3-.65-.51-1.35-.82-2h0Z"/>
  </g>
  <g>
    <path class="st0" d="M150.06,382.34c-8.3,18.22-4.65,38.22,10.82,51.36,5.81,4.93,8.02,5.5,14.85,7.37l.96,1c.34,7.63.4,15.18.19,22.66l-.33.95c-4.37.17-8.81.48-13.33.93-8.38.95-5.13,13.68-.19,16.89,7.21,4.67,47.42,4.1,55.03-.08,1.45-1.52,2.93-2.32,4.43-2.4l1.56-.3c8.19,11.41,16.38,22.82,24.57,34.23l-.67,1.54c-36.38,16.65-93.81,17.66-127.14-6.71-25.47-18.62-37.37-56.36-24.9-85.78,4.11-9.69,14.43-18.84,17.87-29.5,5.37-16.66-6.79-24.28-13.01-37.45-7.18-15.2-3.26-27.32,3.22-41.4l2.22,1.56c13.68,20.26,27.43,40.44,41.76,60.32,1.03,1.43,1.58,3.15,2.09,4.83v-.02Z"/>
    <path class="st0" d="M262.18,507.54l-2.83-2.12c-16.17-22.02-32.72-43.11-49.67-63.28-1.93-.96-2.96-2.17-3.08-3.62,1.96-1.09,5.29-3.76,7.17-5.28,2.15.92,2.59.73,1.33-.55,18.59-15.77,21.26-50.85.13-65.67-1.53-1.07-8.28-4.09-8.52-4.87-3-30.57-2.74-61.28-3.43-91.93.66-2.48,6.69,1.31,8.55,1.92,21.35,7.03,44.79,30.45,43.64,54.65-.64,13.53-14.78,37.34-12.21,47.32,4.44,17.25,25.76,28.67,35.03,44.02,5.43,8.99,7.78,22.68,8.49,33.21,1.48,21.87-7.67,42.45-24.61,56.2h.01Z"/>
    <path class="st0" d="M119.45,294.51c7.22-6.04,20.73-15.18,29.19-18.99,1.49-.67,10.97-3.52,11.53-3.17,2,22.06,1.6,44.25,2.32,66.35.14,4.27,2.37,23.11,1,25.25-.83,1.29-3.03,2.5-3.93,3.6-1.45-.16-1.98-1.23-1.6-3.21l-39.04-55.37c-2.13-2.78-3.57-5.92-4.37-9.33,1.41-1.46,2.14-2.41,3.84-3.91.39-.19.7-.33.76-.25,3.61,4.3,5.73,10.28.75,1.12-.33-.6-.42-1.32-.46-2.08h0Z"/>
    <path class="st22" d="M106.75,383c2.89,13.25-14.32,27.79-18.83,40.41-10.08,28.22-3.31,58.61,15.92,81.42-30.41-16.49-43.15-56.3-26.76-87.06,5.36-10.06,18.28-20.16,17.84-31.72-.34-9.02-9.4-19.17-12.48-28.39-8.01-23.98,5.15-48.93,24.71-62.77l-8,11.82c-5.18,12.61-11.81,24.85-9.66,39,1.69,11.09,5.09,15.37,10.46,24.51,1.9,4.43,4.16,8.69,6.8,12.77h0Z"/>
    <path class="st32" d="M114.55,299.63c13.98,21.97,29.99,42.63,44.69,64.14l.32,3.78c-.98,1.2-2.52,2.75-3.18,3.64-1.03.49-1.51,1.21-1.45,2.15-1.03,1.61-4.08,7.28-4.87,9-17.35-20.76-30.82-44.42-46.07-66.7,3.86-8.39,4.07-9.28,10.55-16.01h0Z"/>
    <path class="st32" d="M262.18,507.54c-5.55,4.51-7.55,5.9-14.23,8.95l-25.46-35.47c-.61-.05-1.06-.31-1.33-.83,2.81-9.9-.07-14.35-8.65-13.35l-1.12-1.5c-2.93-.93-4.33-1.92-4.46-5.17-1.2-6.65-2.08-14.74-1-21.38.21-.11.46-.16.67-.27,4.79,1.82,8.99,7.99,12.34,12.06,15.15,18.37,28.7,38.12,43.24,56.96h0Z"/>
    <path class="st4" d="M215.1,432.69c1.56-.17,1.91,1.24,2.69,2.15,14.72,17.34,30.04,35.51,42.23,54.76,2.17,3.44,4.68,7.06,5.91,10.96l-52.16-67.32c.33-.26,1.03-.29,1.33-.55h0Z"/>
    <path class="st7" d="M194.33,442.77c.61,7.02.93,14.85.71,22.12,0,.17-.34.33-.77.48-.41,2.07-3.95,2.45-4.54.31-.47-.22-.85-.47-.92-.78-1.21-5.27-1.32-15.24-1.34-20.94,0-.33.31-.66.72-1,1.59-.08,5.06-.01,6.15-.19h-.01Z"/>
    <path class="st52" d="M182.04,443.15c.45,6.77.68,14.39.46,21.46,0,.16-.35.32-.8.47-1.06,1.95-4.11,1.7-4.15-.63-.55-6.97-.98-14.83-.85-22.12,0-.17.4-.32.91-.48,1.31.3,3.65,1.19,4.42,1.3h0Z"/>
    <path class="st7" d="M186.58,442.84c.31.04.68.14.83.43.51.96,1.44,19.32,1.42,21.75,0,.18-.31.36-.71.54-.85,2.11-4.19,1.73-4.82-.36-.45-.06-.8-.12-.81-.19-.31-7.3-.15-14.98.2-22.13,1.47.15,2.56-.05,3.88-.04h.01Z"/>
    <path class="st25" d="M119.45,294.51c10.16,15.49,21.7,30.17,30.1,46.79l-31.16-45.58c.28-.25.54-.78,1.06-1.21h0Z"/>
    <path class="st33" d="M204.6,439.34c1.18,5.61,1.67,11.81.96,17.51-2.53,4.25-3.78-1.77-4.19-4.51-1-3.53-1.26-7.31-.77-11.36,1.32-.46,2.73-1.04,4-1.64Z"/>
    <path class="st50" d="M199.94,441.25c.72,2.82,1.22,6.85-.05,9.36-2.44,1.7-3.83-2.99-4.46-5.17-.9.02-1.08-2.26-.43-2.94,1.19-.22,3.73-.88,4.94-1.25h0Z"/>
    <path class="st41" d="M205.93,438.79c-.39,7.13.79,14.3,1,21.38,1.44,2.28,1.32,3.89-.36,4.82-.62,1.34-1.3,1.3-1.61-.12-1.6-1.33-1.43-7.17.6-8.03-.11-5.8-.56-11.71-.96-17.51.43-.2.91-.33,1.33-.55h0Z"/>
    <path class="st3" d="M177.61,441.86l-.06,22.6c0,.67-.21.76-.67.27l-1.15-23.66c.79.22,1.57.72,1.88.79h0Z"/>
    <path class="st47" d="M188.19,442.96c.75,7.5-.19,15.38,1.54,22.72-.32,1.46-1.08,1.31-1.61-.12l-1.54-22.72c.53,0,1.08.14,1.61.12Z"/>
    <path class="st44" d="M195,442.5c-.37,1.03.4,2.15.43,2.94,1.85,4.83,1.97,12.34,1.64,17.71l-1.19,2.34c-.61,1.34-1.29,1.3-1.61-.12l.06-22.6c.23-.04.43-.23.67-.27h0Z"/>
    <path class="st37" d="M182.7,442.88l.6,22.32c-.61,1.34-1.3,1.3-1.61-.12l.34-21.93c.2.03.45-.3.67-.27h0Z"/>
    <path class="st30" d="M201.37,452.34c2.73,2.77,1.71,17.29-2.06,11.35-.87-1.37-1.5-11.72.57-13.07-.06-3.08.25-6.26.05-9.36.23-.07.44-.19.67-.27.52,3.69.69,7.64.77,11.36h0Z"/>
    <path class="st27" d="M106.75,383c-2.96-3.12-6.72-8.41-6.8-12.77,2.55,4.35,5.76,7.99,6.8,12.77Z"/>
    <path class="st49" d="M156.38,371.19c-.24.33-1.17,1.72-1.45,2.15-1.03-1.53-.05-1.67,1.45-2.15Z"/>
    <path d="M176.88,464.73c.22,0,.45-.28.67-.27.54,0,2.21.61,4.15.63.47,0,1.01.12,1.61.12,1.6.01,3.22.35,4.82.36.53,0,1.07.11,1.61.12,1.43.01,3.11-.33,4.54-.31.47,0,1.01.11,1.61.12,1.02-2,3.76-2.01,5.59-1.15,1.02-1.45,2.67-1.08,3.49.53.46,0,1.02.11,1.61.12.95-1.74,2.56-1.62,4.82.36,4.09.31,11.23-.48,11.93,5.23.1.83-.61,9.58-.82,10.45-.31,1.25-3,3.37-4.22,3.91-8.94,3.96-45.6,4.47-54.72.47-5.23-2.29-6.9-8.6-6.86-13.95.06-8.44,14.18-6.83,20.2-6.74h-.03Z"/>
    <path class="st39" d="M211.39,465.35c-1.59-.12-3.23-.34-4.82-.36-.48-1.5.39-3.74.36-4.82l4.46,5.17h0Z"/>
    <path class="st52" d="M199.89,450.61c.08,4.4.2,9.29.93,13.63,1.09-.66.59-1.81.62-2.77.08-2.96,0-6.17-.07-9.13.83,1.7,2.23,5.87,4.19,4.51.05,2.53.17,5.62-.6,8.03-2.88-.01-6.02.65-9.09.62-.89-6.64-.24-13.41-.45-20.05l4.46,5.17h.01Z"/>
    <path class="st12" d="M215.77,478.21c-2.48,3.53-35.84,3.53-41.55,2.8-2.79-.35-8.91-.93-9.99-3.58-2.36-5.79.73-5.22,4.93-5.45,7.34-.4,15.32.85,22.78.95,6.63.09,16.57-1.71,22.73-.26.77.18,1.4.05,1.63,1.05.05.22-.4,4.31-.53,4.5h0Z"/>
  </g>
</svg>