<svg version="1.1" width="95" height="296" viewBox="-1 -1 95 296" xmlns="http://www.w3.org/2000/svg" xmlns:xlink="http://www.w3.org/1999/xlink">
  <!-- Exported by Scratch - http://scratch.mit.edu/ -->
  <g id="ID0.8433806826360524" transform="matrix(0.7737809419631958, 0, 0, 0.7737809419631958, 0.55, -0.45)">
    <g id="ID0.48317090002819896">
      <path id="ID0.08583464846014977" fill="#010101" d="M 209.600 205.500 C 208.700 200.300 202.700 204 201.600 205.500 C 197.800 211.700 195.100 216.200 197.600 224.800 C 203.200 234.300 210.300 248.200 208.700 255.700 C 207 263.100 195.100 284.300 193.300 298.600 C 194.900 335.100 283.800 337.500 286.900 300.900 C 287.600 286 276.400 267.100 274.500 257 C 273.700 252.700 279.300 234.800 280.700 225.500 C 282.200 215.500 273.700 214.100 270 223.100 C 266.700 231 238.300 226.900 238.300 226.900 C 238.300 226.900 209.100 221.100 209.600 205.500 Z " transform="matrix(1, 0, 0, 1, -193, -32)"/>
      <path id="ID0.4159411280415952" fill="#FFFFFF" d="M 272.800 226.900 C 273.300 225.500 273.900 225.600 274.400 226.900 C 276.100 233.400 271.700 245.500 267.600 257.200 C 268.200 264.100 276.800 277.600 280.900 295.700 C 281.100 299.800 279.300 301.100 275.600 299.700 C 261.600 282.700 239.400 286.500 225.300 287.900 C 213.100 289.100 212.200 276.100 215.200 270.500 C 218.200 265 222.400 255.900 222.200 249.400 L 220.400 230.800 C 220.100 227.900 221.400 226.800 224.800 227.700 C 249.100 242.100 266.800 245 272.800 226.900 Z " transform="matrix(1, 0, 0, 1, -193, -32)"/>
    </g>
    <path id="ID0.8878253749571741" fill="#010101" d="M 245.200 269.800 L 231.700 269.800 C 229.300 269.800 227.400 267.900 227.400 265.500 L 227.400 264.200 C 227.400 261.800 229.300 259.900 231.700 259.900 L 245.200 259.900 C 247.600 259.900 249.500 261.800 249.500 264.200 L 249.500 265.500 C 249.500 267.900 247.600 269.800 245.200 269.800 Z " transform="matrix(1, 0, 0, 1, -193, -32)"/>
    <path id="ID0.8710450446233153" fill="#010101" d="M 245.200 257.600 L 231.700 257.600 C 229.300 257.600 227.400 255.700 227.400 253.300 L 227.400 252 C 227.400 249.600 229.300 247.700 231.700 247.700 L 245.200 247.700 C 247.600 247.700 249.500 249.600 249.500 252 L 249.500 253.300 C 249.500 255.700 247.600 257.600 245.200 257.600 Z " transform="matrix(1, 0, 0, 1, -193, -32)"/>
    <path id="ID0.6528799454681575" fill="#010101" d="M 245.200 281.900 L 231.700 281.900 C 229.300 281.900 227.400 280 227.400 277.600 L 227.400 276.300 C 227.400 273.900 229.300 272 231.700 272 L 245.200 272 C 247.600 272 249.500 273.900 249.500 276.300 L 249.500 277.600 C 249.500 280 247.600 281.900 245.200 281.900 Z " transform="matrix(1, 0, 0, 1, -193, -32)"/>
    <path id="ID0.24067989829927683" fill="#010101" d="M 258.400 278.400 C 259.310 278.400 260.135 278.770 260.733 279.367 C 261.330 279.965 261.700 280.790 261.700 281.700 C 261.700 282.610 261.330 283.435 260.733 284.033 C 260.135 284.630 259.310 285 258.400 285 C 257.490 285 256.665 284.630 256.067 284.033 C 255.470 283.435 255.100 282.610 255.100 281.700 C 255.100 280.790 255.470 279.965 256.067 279.367 C 256.665 278.770 257.490 278.400 258.400 278.400 Z " transform="matrix(1, 0, 0, 1, -193, -32)"/>
    <path id="ID0.2929628868587315" fill="#010101" d="M 267.800 284 C 268.710 284 269.535 284.370 270.133 284.967 C 270.730 285.565 271.100 286.390 271.100 287.300 C 271.100 288.210 270.730 289.035 270.133 289.633 C 269.535 290.230 268.710 290.600 267.800 290.600 C 266.890 290.600 266.065 290.230 265.467 289.633 C 264.870 289.035 264.500 288.210 264.500 287.300 C 264.500 286.390 264.870 285.565 265.467 284.967 C 266.065 284.370 266.890 284 267.800 284 Z " transform="matrix(1, 0, 0, 1, -193, -32)"/>
    <path id="ID0.19901294726878405" fill="#010101" d="M 276.500 290.600 C 277.410 290.600 278.235 290.970 278.833 291.567 C 279.430 292.165 279.800 292.990 279.800 293.900 C 279.800 294.810 279.430 295.635 278.833 296.233 C 278.235 296.830 277.410 297.200 276.500 297.200 C 275.590 297.200 274.765 296.830 274.167 296.233 C 273.570 295.635 273.200 294.810 273.200 293.900 C 273.200 292.990 273.570 292.165 274.167 291.567 C 274.765 290.970 275.590 290.600 276.500 290.600 Z " transform="matrix(1, 0, 0, 1, -193, -32)"/>
    <path id="ID0.6142068239860237" fill="#CDCCCC" d="M 227.500 285.900 L 249.300 285.900 L 249.300 296.800 L 227.500 296.800 L 227.500 285.900 Z " transform="matrix(1, 0, 0, 1, -193, -32)"/>
    <path id="ID0.8667383585125208" fill="#FDE897" d="M 240.700 36.700 C 240.700 36.700 240.600 36.800 240.600 36.800 L 240.700 36.700 L 240.700 36.700 Z " transform="matrix(1, 0, 0, 1, -193, -32)"/>
    <g id="ID0.14041837956756353">
      <path id="ID0.6900822566822171" fill="#010101" d="M 238.500 39 L 237.200 42.300 C 236.900 43.200 235.900 43.600 235 43.200 L 234.500 43 C 233.600 42.700 233.200 41.700 233.600 40.800 L 234.900 37.500 C 235.200 36.600 236.200 36.200 237.100 36.600 L 237.600 36.800 C 238.400 37.200 238.800 38.200 238.500 39 Z " transform="matrix(1, 0, 0, 1, -193, -32)"/>
      <path id="ID0.054950970225036144" fill="#010101" d="M 240.700 41.700 L 240.600 42 C 240.400 42.600 239.700 42.900 239.100 42.600 L 237.300 41.900 C 236.700 41.700 236.400 41 236.700 40.400 L 236.800 40.100 C 237 39.500 237.700 39.200 238.300 39.500 L 240.100 40.200 C 240.600 40.400 240.900 41.100 240.700 41.700 Z " transform="matrix(1, 0, 0, 1, -193, -32)"/>
    </g>
    <g id="ID0.03088329266756773">
      <path id="ID0.26812092773616314" fill="#010101" d="M 235.100 50.500 L 233.800 53.800 C 233.500 54.700 232.500 55.100 231.600 54.700 L 231.100 54.500 C 230.200 54.200 229.800 53.200 230.200 52.300 L 231.500 49 C 231.800 48.100 232.800 47.700 233.700 48.100 L 234.200 48.300 C 235 48.600 235.400 49.600 235.100 50.500 Z " transform="matrix(1, 0, 0, 1, -193, -32)"/>
      <path id="ID0.8870866191573441" fill="#010101" d="M 237.300 53.100 L 237.200 53.400 C 237 54 236.300 54.300 235.700 54 L 233.900 53.300 C 233.300 53.100 233 52.400 233.300 51.800 L 233.400 51.500 C 233.600 50.900 234.300 50.600 234.900 50.900 L 236.700 51.600 C 237.200 51.900 237.500 52.500 237.300 53.100 Z " transform="matrix(1, 0, 0, 1, -193, -32)"/>
    </g>
    <g id="ID0.7831219155341387">
      <path id="ID0.04134798655286431" fill="#010101" d="M 231.800 61.900 L 230.500 65.200 C 230.200 66.100 229.200 66.500 228.300 66.100 L 227.800 65.900 C 226.900 65.600 226.500 64.600 226.900 63.700 L 228.200 60.400 C 228.500 59.500 229.500 59.100 230.400 59.500 L 230.900 59.700 C 231.700 60.100 232.100 61.100 231.800 61.900 Z " transform="matrix(1, 0, 0, 1, -193, -32)"/>
      <path id="ID0.5865455726161599" fill="#010101" d="M 234 64.500 L 233.900 64.800 C 233.700 65.400 233 65.700 232.400 65.400 L 230.600 64.700 C 230 64.500 229.700 63.800 230 63.200 L 230.100 62.900 C 230.300 62.300 231 62 231.600 62.300 L 233.400 63 C 233.900 63.300 234.200 64 234 64.500 Z " transform="matrix(1, 0, 0, 1, -193, -32)"/>
    </g>
    <g id="ID0.9224407253786922">
      <path id="ID0.17852272791787982" fill="#010101" d="M 228.400 73.400 L 227.100 76.700 C 226.800 77.600 225.800 78 224.900 77.600 L 224.400 77.400 C 223.500 77.100 223.100 76.100 223.500 75.200 L 224.800 71.900 C 225.100 71 226.100 70.600 227 71 L 227.500 71.200 C 228.300 71.500 228.700 72.500 228.400 73.400 Z " transform="matrix(1, 0, 0, 1, -193, -32)"/>
      <path id="ID0.15033439313992858" fill="#010101" d="M 230.600 76 L 230.500 76.300 C 230.300 76.900 229.600 77.200 229 76.900 L 227.200 76.200 C 226.600 76 226.300 75.300 226.600 74.700 L 226.700 74.400 C 226.900 73.800 227.600 73.500 228.200 73.800 L 230 74.500 C 230.500 74.700 230.800 75.400 230.600 76 Z " transform="matrix(1, 0, 0, 1, -193, -32)"/>
    </g>
    <path id="ID0.9332361705601215" fill="#CDCCCC" d="M 253.300 50 C 253.300 50 250.100 52 249.800 52.900 C 249.500 53.800 254 76.800 254 76.800 C 254.600 78.800 254.200 80 252.200 80.300 C 247.300 82.400 244.800 91.100 245.700 97.400 L 231.400 97.400 C 231.400 92.400 229.400 89.100 226.100 86.600 L 239 42.500 L 240.700 36.700 C 240.700 36.700 240.800 36.600 240.800 36.600 C 242.500 34.300 245.200 32.800 248.300 32.800 C 253.400 32.800 257.600 37 257.600 42.100 C 257.500 45.400 255.800 48.300 253.300 50 Z " transform="matrix(1, 0, 0, 1, -193, -32)"/>
    <path id="ID0.8665509759448469" fill="#CDCCCC" d="M 231.300 97.500 L 245.600 97.500 L 245.600 242.700 L 231.300 242.700 L 231.300 97.500 Z " transform="matrix(1, 0, 0, 1, -193, -32)"/>
    <path id="ID0.6180862835608423" fill="#010101" d="M 231.300 98.200 L 245.600 98.200 L 245.600 101.400 L 231.300 101.400 L 231.300 98.200 Z " transform="matrix(1, 0, 0, 1, -193, -32)"/>
    <g id="ID0.5624445262365043">
      <g id="ID0.02563772350549698">
        <path id="ID0.8058582502417266" fill="#010101" d="M 233.600 78.800 C 234.262 78.800 234.862 79.069 235.297 79.503 C 235.731 79.938 236 80.538 236 81.200 C 236 81.862 235.731 82.462 235.297 82.897 C 234.862 83.331 234.262 83.600 233.600 83.600 C 232.938 83.600 232.338 83.331 231.903 82.897 C 231.469 82.462 231.200 81.862 231.200 81.200 C 231.200 80.538 231.469 79.938 231.903 79.503 C 232.338 79.069 232.938 78.800 233.600 78.800 Z " transform="matrix(1, 0, 0, 1, -193, -32)"/>
        <path id="ID0.5395019045099616" fill="none" stroke="#010101" d="M 233.600 81.200 L 233.600 291.300 " transform="matrix(1, 0, 0, 1, -193, -32)"/>
      </g>
      <path id="ID0.49410817958414555" fill="#010101" d="M 233.600 290.300 C 233.821 290.300 234.021 290.390 234.166 290.534 C 234.310 290.679 234.400 290.879 234.400 291.100 C 234.400 291.321 234.310 291.521 234.166 291.666 C 234.021 291.810 233.821 291.900 233.600 291.900 C 233.379 291.900 233.179 291.810 233.034 291.666 C 232.890 291.521 232.800 291.321 232.800 291.100 C 232.800 290.879 232.890 290.679 233.034 290.534 C 233.179 290.390 233.379 290.300 233.600 290.300 Z " transform="matrix(1, 0, 0, 1, -193, -32)"/>
    </g>
    <g id="ID0.5462989625521004">
      <g id="ID0.40378180192783475">
        <path id="ID0.11150383204221725" fill="#010101" d="M 236.900 67.900 C 237.562 67.900 238.162 68.169 238.597 68.603 C 239.031 69.038 239.300 69.638 239.300 70.300 C 239.300 70.962 239.031 71.562 238.597 71.997 C 238.162 72.431 237.562 72.700 236.900 72.700 C 236.238 72.700 235.638 72.431 235.203 71.997 C 234.769 71.562 234.500 70.962 234.500 70.300 C 234.500 69.638 234.769 69.038 235.203 68.603 C 235.638 68.169 236.238 67.900 236.900 67.900 Z " transform="matrix(1, 0, 0, 1, -193, -32)"/>
        <path id="ID0.4514121562242508" fill="none" stroke="#010101" d="M 236.900 70.300 L 236.900 291.300 " transform="matrix(1, 0, 0, 1, -193, -32)"/>
      </g>
      <path id="ID0.8469729702919722" fill="#010101" d="M 236.900 290.300 C 237.121 290.300 237.321 290.390 237.466 290.534 C 237.610 290.679 237.700 290.879 237.700 291.100 C 237.700 291.321 237.610 291.521 237.466 291.666 C 237.321 291.810 237.121 291.900 236.900 291.900 C 236.679 291.900 236.479 291.810 236.334 291.666 C 236.190 291.521 236.100 291.321 236.100 291.100 C 236.100 290.879 236.190 290.679 236.334 290.534 C 236.479 290.390 236.679 290.300 236.900 290.300 Z " transform="matrix(1, 0, 0, 1, -193, -32)"/>
    </g>
    <g id="ID0.7274452853016555">
      <g id="ID0.8817124287597835">
        <path id="ID0.31328051909804344" fill="#010101" d="M 240.200 57.400 C 240.862 57.400 241.462 57.669 241.897 58.103 C 242.331 58.538 242.600 59.138 242.600 59.800 C 242.600 60.462 242.331 61.062 241.897 61.497 C 241.462 61.931 240.862 62.200 240.200 62.200 C 239.538 62.200 238.938 61.931 238.503 61.497 C 238.069 61.062 237.800 60.462 237.800 59.800 C 237.800 59.138 238.069 58.538 238.503 58.103 C 238.938 57.669 239.538 57.400 240.200 57.400 Z " transform="matrix(1, 0, 0, 1, -193, -32)"/>
        <path id="ID0.7084934352897108" fill="none" stroke="#010101" d="M 240.200 59.800 L 240.200 291.300 " transform="matrix(1, 0, 0, 1, -193, -32)"/>
      </g>
      <path id="ID0.14845820935443044" fill="#010101" d="M 240.200 290.300 C 240.421 290.300 240.621 290.390 240.766 290.534 C 240.910 290.679 241 290.879 241 291.100 C 241 291.321 240.910 291.521 240.766 291.666 C 240.621 291.810 240.421 291.900 240.200 291.900 C 239.979 291.900 239.779 291.810 239.634 291.666 C 239.490 291.521 239.400 291.321 239.400 291.100 C 239.400 290.879 239.490 290.679 239.634 290.534 C 239.779 290.390 239.979 290.300 240.200 290.300 Z " transform="matrix(1, 0, 0, 1, -193, -32)"/>
    </g>
    <g id="ID0.8136855578050017">
      <g id="ID0.22732786508277059">
        <path id="ID0.6328714974224567" fill="#010101" d="M 243.500 46.400 C 244.162 46.400 244.762 46.669 245.197 47.103 C 245.631 47.538 245.900 48.138 245.900 48.800 C 245.900 49.462 245.631 50.062 245.197 50.497 C 244.762 50.931 244.162 51.200 243.500 51.200 C 242.838 51.200 242.238 50.931 241.803 50.497 C 241.369 50.062 241.100 49.462 241.100 48.800 C 241.100 48.138 241.369 47.538 241.803 47.103 C 242.238 46.669 242.838 46.400 243.500 46.400 Z " transform="matrix(1, 0, 0, 1, -193, -32)"/>
        <path id="ID0.10625672293826938" fill="none" stroke="#010101" d="M 243.500 48.800 L 243.500 291.300 " transform="matrix(1, 0, 0, 1, -193, -32)"/>
      </g>
      <path id="ID0.11408118810504675" fill="#010101" d="M 243.500 290.300 C 243.721 290.300 243.921 290.390 244.066 290.534 C 244.210 290.679 244.300 290.879 244.300 291.100 C 244.300 291.321 244.210 291.521 244.066 291.666 C 243.921 291.810 243.721 291.900 243.500 291.900 C 243.279 291.900 243.079 291.810 242.934 291.666 C 242.790 291.521 242.700 291.321 242.700 291.100 C 242.700 290.879 242.790 290.679 242.934 290.534 C 243.079 290.390 243.279 290.300 243.500 290.300 Z " transform="matrix(1, 0, 0, 1, -193, -32)"/>
    </g>
  </g>
</svg>