<?xml version="1.0" encoding="UTF-8" standalone="no"?>
<svg
   version="1.1"
   width="70.124634"
   height="92.199997"
   id="svg8"
   sodipodi:docname="H-glow.svg"
   xmlns:inkscape="http://www.inkscape.org/namespaces/inkscape"
   xmlns:sodipodi="http://sodipodi.sourceforge.net/DTD/sodipodi-0.dtd"
   xmlns="http://www.w3.org/2000/svg"
   xmlns:svg="http://www.w3.org/2000/svg">
  <defs
     id="defs12" />
  <sodipodi:namedview
     id="namedview10"
     pagecolor="#ffffff"
     bordercolor="#000000"
     borderopacity="0.25"
     inkscape:showpageshadow="2"
     inkscape:pageopacity="0.0"
     inkscape:pagecheckerboard="0"
     inkscape:deskcolor="#d1d1d1" />
  <!-- Exported by Scratch - http://scratch.mit.edu/ -->
  <g
     id="ID0.3487820033915341"
     transform="translate(2.9480632e-4)">
    <g
       id="ID0.8976084827445447">
      <g
         id="ID0.24310593213886023">
        <path
           id="ID0.5178547315299511"
           fill="#00cccc"
           d="m 66.231,84.6 c -1.98,2.15 -5.62,4.69 -11.78,4.69 h -1.69 c -1.04,0.06 -1.85,0.09 -2.53,0.09 -0.41,0 -0.84,0.03 -1.28,0.07 -0.34,0.12 -1.02,0.36 -2.23,0.83 -3.29,1.32 -5.84,1.92 -8.28,1.92 -3.42,0 -6.64,-1.22 -9.3,-3.52 -1.57,-1.35 -2.78,-2.97 -3.59,-4.76 -1.27,-0.1 -2.88,-0.25 -4.94,-0.43 h -5.21 c -0.24,0 -0.47,-0.01 -0.7,-0.03 -2.6,-0.16 -5.11,-0.91 -7.44,-2.23 -4.33,-2.45 -6.91,-6.67 -6.91,-11.29 0,-5.04 2.82,-9.53 7.55,-12.02 0.15,-0.09 0.31,-0.17 0.47,-0.24 0.34,-0.16 0.68,-0.3 1.02,-0.44 0.01,-0.25 0.01,-0.51 0.02,-0.77 v -7.14 c 0,-0.3 0.01,-0.59 0.03,-0.88 -0.56,-2.35 -0.5,-4.75 0.18,-6.97 0,-0.13 0,-0.3 -0.01,-0.52 -0.02,-0.22 -0.02,-0.44 -0.02,-0.65 0,-0.76 0.05,-1.64 0.19,-2.93 0.03,-0.33 0.06,-0.59 0.07,-0.8 -0.01,-0.24 -0.07,-1.35 -0.38,-4.9 -5.87,-2.27 -8.72,-7.33 -9.36,-11.82 -0.31,-2.16 0.03,-4.38 0.99,-6.35 2.71,-5.59 8.22,-8.93 14.74,-8.93 0.4,0 0.8,0.02 1.19,0.06 0.42,0.04 1.71,0.15 3.85,0.33 1.84,0.16 2.85,0.19 3.39,0.19 h 0.36 c 0.17,-0.02 0.3,-0.03 0.47,-0.04 1.85,-0.1 3.09,-0.17 3.71,-0.21 0.04,0 0.09,-0.01 0.13,-0.01 0.21,-0.21 0.43,-0.42 0.66,-0.62 3.2,-2.81 7.2,-4.28 11.57,-4.28 1.51,0 2.65,0.02 3.5,0.06 0.68,0.03 1.23,0.08 1.74,0.15 0.12,0.01 0.25,0.03 0.38,0.06 h 4.06 c 0.19,-0.02 0.44,-0.05 0.76,-0.08 1.25,-0.13 2.24,-0.19 3.11,-0.19 6.25,0 11.28,3.07 13.55,8.25 0.87,1.89 1.32,3.85 1.32,5.83 0,4.65 -2.58,9.59 -8.19,11.94 0.18,3.65 0.27,7.22 0.27,10.7 v 23 c 0.02,0.2 0.06,0.44 0.1,0.72 0.01,0.07 0.02,0.15 0.03,0.22 0.1,0.72 0.18,1.44 0.24,2.16 4.55,1.97 7.63,6.12 8.04,11.42 0.22,2.63 -0.3,6.51 -3.85,10.36 z" />
      </g>
    </g>
    <g
       id="ID0.21101475600153208">
      <path
         id="ID0.4091448332183063"
         fill="#ffffff"
         d="m 59.115,75.126 c 0.058,0.585 -0.265,1.26 -0.968,2.022 -0.704,0.762 -1.936,1.144 -3.694,1.144 -0.411,0 -1.086,0 -2.023,0 -0.938,0.058 -1.671,0.088 -2.199,0.088 -1.114,0 -2.258,0.088 -3.43,0.265 -0.646,0.116 -2.023,0.585 -4.135,1.407 -1.877,0.761 -3.284,1.144 -4.222,1.144 -0.763,0 -1.467,-0.279 -2.111,-0.836 -0.646,-0.558 -0.967,-1.218 -0.967,-1.979 0,-1.231 1.436,-2.198 4.31,-2.902 4.163,-1.056 6.303,-1.613 6.421,-1.671 -0.118,-3.752 -0.264,-8.062 -0.439,-12.931 -0.176,-4.574 -0.265,-6.743 -0.265,-6.509 v -4.926 c 0,-0.059 0,-0.498 0,-1.32 0.059,-0.645 0.059,-1.112 0,-1.407 -0.059,-0.527 -0.264,-0.849 -0.615,-0.967 -0.059,-0.059 -0.938,-0.089 -2.639,-0.089 -2.933,0.06 -6.333,0.471 -10.203,1.231 -1.467,0.353 -3.666,0.852 -6.598,1.496 v 12.578 c 0.058,0.235 0.088,1.379 0.088,3.431 0,1.643 0.177,2.639 0.528,2.99 0.293,0.118 1.847,0.235 4.662,0.353 1.935,0.059 3.136,0.763 3.606,2.11 0.116,0.353 -0.016,0.88 -0.396,1.584 -0.382,0.703 -0.777,1.144 -1.188,1.319 -0.938,0.352 -1.583,0.527 -1.935,0.527 -1.291,-0.059 -4.486,-0.323 -9.588,-0.791 h -5.718 c -0.938,-0.06 -1.847,-0.339 -2.727,-0.836 -0.88,-0.498 -1.319,-1.069 -1.319,-1.716 0,-0.937 0.557,-1.699 1.671,-2.286 0.88,-0.41 1.848,-0.616 2.903,-0.616 0.409,0 1.144,0.016 2.198,0.044 1.056,0.03 1.817,0.016 2.287,-0.044 -0.118,-2.277 -0.118,-5.753 0,-10.428 0,0.06 0,-2.365 0,-7.271 0,-0.175 0.073,-0.54 0.221,-1.096 0.146,-0.555 0.22,-0.979 0.22,-1.27 -0.235,-0.234 -0.471,-0.584 -0.704,-1.052 -0.118,-0.467 -0.118,-0.875 0,-1.228 0.41,-0.935 0.557,-2.394 0.439,-4.381 0,-0.35 0.045,-0.948 0.133,-1.795 0.088,-0.847 0.132,-1.476 0.132,-1.885 0,-0.759 -0.147,-2.774 -0.44,-6.046 v -7.273 c 0,-0.349 -0.115,-0.904 -0.345,-1.664 -1.612,0.176 -2.793,0.264 -3.54,0.264 -3.34,0 -5.182,-1.201 -5.526,-3.606 0.879,-1.816 2.491,-2.727 4.838,-2.727 -0.06,0 1.319,0.118 4.134,0.352 2.639,0.235 4.544,0.294 5.718,0.176 3.283,-0.176 4.75,-0.264 4.397,-0.264 3.225,0 4.662,0.968 4.311,2.903 -0.294,1.407 -1.643,2.141 -4.047,2.198 -1.818,0.06 -3.605,0.118 -5.365,0.176 0.308,2.054 0.513,4.341 0.616,6.861 0,1.583 0,3.842 0,6.773 0,3.166 0,5.453 0,6.86 0.058,0.06 0.146,0.118 0.264,0.176 0.938,0.06 1.876,0.088 2.814,0.088 2.169,0 4.955,-0.176 8.356,-0.527 4.574,-0.527 7.357,-0.82 8.355,-0.88 0.293,-1.876 0.44,-4.104 0.44,-6.685 0,-4.867 -0.411,-10.32 -1.231,-16.361 0.058,0 -1.114,0 -3.519,0 -1.231,0 -2.346,-0.225 -3.343,-0.677 -0.997,-0.452 -1.495,-1.372 -1.495,-2.76 0,-0.603 0.205,-1.085 0.616,-1.446 1.172,-1.025 2.608,-1.538 4.31,-1.538 3.167,0 4.456,0.088 3.87,0.264 h 6.069 c 0.233,0 0.776,-0.044 1.627,-0.132 0.85,-0.088 1.51,-0.132 1.979,-0.132 1.876,0 3.049,0.589 3.519,1.762 0.233,0.471 0.352,0.912 0.352,1.321 0,1.292 -1.202,2.056 -3.606,2.291 -1.759,0.06 -3.519,0.118 -5.277,0.176 0.645,6.987 0.968,13.711 0.968,20.171 v 23.343 c 0,0.353 0.075,1.029 0.227,2.026 0.2,1.527 0.301,3.024 0.301,4.492 -0.059,2.643 -0.059,4.699 0,6.167 0.117,0.176 0.233,0.321 0.352,0.439 2.873,-0.411 4.28,-0.615 4.223,-0.615 2.111,0.002 3.224,0.851 3.342,2.553 z" />
    </g>
  </g>
</svg>
