<?xml version="1.0" encoding="UTF-8" standalone="no"?>
<svg
   version="1.1"
   width="50.999187"
   height="57.176411"
   id="svg15"
   sodipodi:docname="hat_winter.svg"
   xmlns:inkscape="http://www.inkscape.org/namespaces/inkscape"
   xmlns:sodipodi="http://sodipodi.sourceforge.net/DTD/sodipodi-0.dtd"
   xmlns="http://www.w3.org/2000/svg"
   xmlns:svg="http://www.w3.org/2000/svg">
  <defs
     id="defs19" />
  <sodipodi:namedview
     id="namedview17"
     pagecolor="#ffffff"
     bordercolor="#000000"
     borderopacity="0.25"
     inkscape:showpageshadow="2"
     inkscape:pageopacity="0.0"
     inkscape:pagecheckerboard="0"
     inkscape:deskcolor="#d1d1d1" />
  <!-- Exported by Scratch - http://scratch.mit.edu/ -->
  <g
     id="Hat"
     transform="matrix(1.4071003,0,0,1.4071003,-0.26666408,0.36520727)">
    <g
       id="Hat_Base">
      <path
         id="Fill_1_"
         fill="#ba2915"
         d="m 25.742,18.6 c 0,0 -0.447,-4.515 4.863,-7.342 5.309,-2.828 8.259,-5.67 8.665,-6.203 0.309,-0.405 0.959,-1.886 1.701,-1.091 0.746,0.794 0.746,3.82 0,6.946 -0.742,3.125 1.004,5.061 0.801,7.393 0,-0.001 -7.496,-3.424 -16.03,0.297 z"
         transform="matrix(1.885649,0,0,1.885649,-45.4,-2)" />
      <g
         id="Stripes_3_">
        <path
           id="ID0.4795656418427825"
           fill="#871212"
           d="m 26.104,16.218 c 0,0 7.277,-3.978 15.432,0 L 41.108,14.78 c 0,0 -6.283,-3.289 -14.35,0.001 z"
           transform="matrix(1.885649,0,0,1.885649,-45.4,-2)" />
        <path
           id="ID0.2848444706760347"
           fill="#871212"
           d="m 29.274,11.988 c 0,0 6.893,-1.91 11.279,0.92 l 0.262,-1.17 c 0,0 -4.769,-2.703 -9.592,-1.102 z"
           transform="matrix(1.885649,0,0,1.885649,-45.4,-2)" />
        <path
           id="ID0.9288907898589969"
           fill="#871212"
           d="m 36.121,8.104 c 0,0 3.593,0.028 4.747,2.123 l 0.445,-1.062 c 0,0 -0.707,-2.052 -4.247,-2.011 L 36,8.193"
           transform="matrix(1.885649,0,0,1.885649,-45.4,-2)" />
        <path
           id="ID0.18686081282794476"
           fill="#871212"
           d="m 39.27,5.055 c 0,0 1.754,0.308 2.213,1.391 L 41.313,5.055 39.608,4.1 Z"
           transform="matrix(1.885649,0,0,1.885649,-45.4,-2)" />
      </g>
      <path
         id="Outline_6_"
         d="m 25.527,18.966 -0.034,-0.342 c -0.005,-0.046 -0.401,-4.714 4.994,-7.587 5.368,-2.859 8.273,-5.725 8.583,-6.133 0.053,-0.067 0.113,-0.167 0.184,-0.28 0.297,-0.481 0.707,-1.141 1.273,-1.141 0.223,0 0.434,0.104 0.627,0.31 0.928,0.988 0.732,4.357 0.061,7.175 -0.414,1.744 -0.027,3.098 0.348,4.408 0.281,0.987 0.549,1.918 0.459,2.948 l -0.031,0.353 -0.322,-0.146 c -0.031,-0.014 -3.156,-1.415 -7.58,-1.415 -2.864,0 -5.639,0.577 -8.247,1.713 z M 40.528,3.983 c -0.289,0 -0.652,0.588 -0.85,0.904 -0.08,0.129 -0.15,0.242 -0.209,0.319 -0.34,0.447 -3.23,3.333 -8.747,6.272 -4.305,2.292 -4.725,5.658 -4.742,6.748 2.573,-1.069 5.298,-1.611 8.108,-1.611 3.74,0 6.517,0.951 7.451,1.319 0.002,-0.812 -0.223,-1.596 -0.457,-2.421 -0.375,-1.308 -0.799,-2.79 -0.354,-4.661 C 41.525,7.511 41.38,4.764 40.789,4.135 40.696,4.034 40.608,3.983 40.528,3.983 Z"
         transform="matrix(1.885649,0,0,1.885649,-45.4,-2)" />
    </g>
    <path
       id="Puff"
       fill="#ffffff"
       stroke="#000000"
       stroke-width="0.5"
       d="m 40.868,1.173 c 0.496,0 0.946,0.192 1.272,0.501 0.325,0.309 0.527,0.737 0.527,1.208 0,0.471 -0.202,0.899 -0.527,1.208 -0.326,0.309 -0.776,0.501 -1.272,0.501 -0.496,0 -0.946,-0.192 -1.272,-0.501 -0.325,-0.309 -0.527,-0.737 -0.527,-1.208 0,-0.471 0.202,-0.899 0.527,-1.208 0.326,-0.309 0.776,-0.501 1.272,-0.501 z"
       transform="matrix(1.885649,0,0,1.885649,-45.4,-2)" />
    <g
       id="Brim">
      <path
         id="Brim_Fill"
         fill="#ffffff"
         d="m 25.016,19.989 c 0,0 -0.701,-0.748 0,-1.39 0.702,-0.641 4.529,-2.43 8.714,-2.381 4.184,0.049 5.561,0.546 6.635,1.042 1.072,0.496 3.168,1.786 2.268,2.927 0,0 1.271,2.098 0.137,2.098 -0.256,0 -1.029,-0.312 -1.029,-0.312 0,0 -6.354,-3.572 -15.832,0 0,0.001 -2.931,1.208 -0.893,-1.984 z"
         transform="matrix(1.885649,0,0,1.885649,-45.4,-2)" />
      <path
         id="Brim_Outline"
         d="m 42.909,20.19 c 0.168,-0.266 0.215,-0.554 0.143,-0.857 -0.273,-1.138 -2.191,-2.076 -2.572,-2.252 -1.102,-0.509 -2.527,-1.01 -6.715,-1.06 L 33.592,16.02 c -4.166,0 -7.945,1.764 -8.677,2.434 -0.239,0.219 -0.365,0.473 -0.375,0.754 -0.013,0.334 0.145,0.622 0.257,0.782 -0.565,0.745 -0.745,1.401 -0.535,1.952 0.355,0.931 1.893,0.166 1.893,0.166 2.725,-1.01 5.45,-1.522 8.103,-1.522 4.093,0 6.777,1.237 7.318,1.51 0,0 0.865,0.386 1.191,0.376 0.371,-0.012 0.525,-0.258 0.6,-0.588 0.149,-0.655 -0.275,-1.406 -0.458,-1.694 z m 0.07,1.605 c -0.17,0.512 -1.109,0.006 -1.109,0.006 -0.117,-0.066 -2.924,-1.613 -7.613,-1.613 -2.747,0 -5.569,0.538 -8.386,1.601 l -0.143,0.054 c 0,0 -0.903,0.461 -1.096,-0.044 -0.167,-0.439 0.025,-1.006 0.57,-1.684 L 25.31,19.98 c 0,0 0.295,-0.375 0.916,-0.672 0,0 -0.522,0.004 -1.12,0.428 -0.079,-0.115 -0.18,-0.302 -0.171,-0.513 0.007,-0.174 0.087,-0.33 0.247,-0.476 0.613,-0.562 4.311,-2.331 8.409,-2.331 l 0.169,0.001 c 4.108,0.049 5.489,0.533 6.553,1.024 1.051,0.485 2.186,1.287 2.352,1.983 0.045,0.182 0.002,0.35 -0.088,0.514 -0.562,-0.366 -1.043,-0.371 -1.043,-0.371 0.621,0.297 0.916,0.673 0.916,0.673 l 0.01,-10e-4 0.047,0.066 c 0.171,0.236 0.644,0.976 0.472,1.49 z"
         transform="matrix(1.885649,0,0,1.885649,-45.4,-2)" />
    </g>
  </g>
</svg>
