<?xml version="1.0" encoding="UTF-8" standalone="no"?>
<svg
   version="1.1"
   width="115.64236"
   height="103.97462"
   viewBox="-1 -1 115.64236 103.97462"
   id="svg22"
   sodipodi:docname="heart_face.svg"
   xmlns:inkscape="http://www.inkscape.org/namespaces/inkscape"
   xmlns:sodipodi="http://sodipodi.sourceforge.net/DTD/sodipodi-0.dtd"
   xmlns="http://www.w3.org/2000/svg"
   xmlns:svg="http://www.w3.org/2000/svg">
  <sodipodi:namedview
     id="namedview24"
     pagecolor="#ffffff"
     bordercolor="#000000"
     borderopacity="0.25"
     inkscape:showpageshadow="2"
     inkscape:pageopacity="0.0"
     inkscape:pagecheckerboard="0"
     inkscape:deskcolor="#d1d1d1" />
  <defs
     id="defs7">
    <linearGradient
       id="grad_1"
       y2="614.92784"
       gradientTransform="matrix(0.19056007,0,0,0.17133351,-1.4525896,-2.3831199)"
       x1="2.3750493"
       y1="8.0726759"
       x2="609.23021"
       gradientUnits="userSpaceOnUse">
      <stop
         offset="0"
         stop-color="#FF00BF"
         stop-opacity="1"
         id="stop2" />
      <stop
         offset="1"
         stop-color="#FF0000"
         stop-opacity="1"
         id="stop4" />
    </linearGradient>
  </defs>
  <!-- Exported by Scratch - http://scratch.mit.edu/ -->
  <path
     id="Mouth"
     fill="#ffccf2"
     stroke="#231f20"
     stroke-width="2.01815"
     d="m 46.369922,65.046134 c 0,0 9.39099,-1.819692 12.707052,-2.799106 3.313918,-0.978005 8.855162,-3.419746 8.855162,-3.419746 0,0 0.991448,13.94708 -7.381624,15.744753 -8.371824,1.801129 -12.102495,-4.137295 -14.18059,-9.525901 z" />
  <path
     id="path2417"
     fill="url(#grad_1)"
     d="M 52.266374,97.153902 C 49.777352,94.364752 43.562477,88.927211 38.45542,85.070356 23.323613,73.643081 21.264094,71.989394 15.12023,66.332132 3.7937806,55.902634 -1.0164009,45.424349 -0.999958,31.216597 -0.99200759,24.280944 -0.51913861,21.608882 1.4231115,17.520743 4.718197,10.584729 9.5722865,5.4308728 15.778127,2.2785334 20.173442,0.04609313 22.341375,-0.94590178 29.681234,-0.98637662 37.359527,-1.0288391 38.975811,-0.13369465 43.492369,2.3475575 48.9899,5.3678115 54.648246,11.822283 55.81786,16.407324 l 0.722585,2.831793 1.781435,-3.90004 c 10.067393,-22.0394527 42.20929,-21.7096912 53.39462,0.547856 3.54842,7.060691 3.93799,22.137026 0.79161,30.629333 -4.10458,11.07818 -11.81359,19.523869 -29.634628,32.46606 -11.68729,8.48779 -24.914611,21.329874 -25.835233,23.133534 -1.068969,2.09385 -0.05114,0.32814 -4.771875,-4.961958 z"
     style="fill:url(#grad_1);stroke-width:0.180691" />
  <path
     id="path11"
     fill="#ffffff"
     stroke="#231f20"
     stroke-width="0.913825"
     d="m 48.827815,62.698134 c 0,0 8.504546,-1.647926 11.507595,-2.53489 3.001107,-0.885688 8.019296,-3.096945 8.019296,-3.096945 0,0 0.897863,12.630573 -6.684849,14.258559 -7.581582,1.631114 -10.960105,-3.746764 -12.842042,-8.626724 z" />
  <g
     id="ID0.03337077610194683"
     transform="translate(-1.7525896,-1.6331199)">
    <path
       id="ID0.03272545896470547"
       fill="#ffffff"
       stroke="#ffffff"
       stroke-width="2"
       d="m 242.75,177 c 2.276,0 4.339,1.261 5.832,3.297 1.494,2.037 2.418,4.849 2.418,7.953 0,3.104 -0.924,5.916 -2.418,7.953 -1.493,2.036 -3.556,3.297 -5.832,3.297 -2.276,0 -4.339,-1.261 -5.832,-3.297 -1.494,-2.037 -2.418,-4.849 -2.418,-7.953 0,-3.104 0.924,-5.916 2.418,-7.953 1.493,-2.036 3.556,-3.297 5.832,-3.297 z"
       transform="matrix(0.84042555,0,0,0.84042555,-157.25,-116.85)" />
    <path
       id="ID0.5116554019041359"
       fill="#000000"
       stroke="#000000"
       stroke-width="2"
       d="m 233.125,172.5 c 0.241,0 0.46,0.168 0.619,0.44 0.158,0.271 0.256,0.646 0.256,1.06 0,0.414 -0.098,0.789 -0.256,1.06 -0.159,0.272 -0.378,0.44 -0.619,0.44 -0.241,0 -0.46,-0.168 -0.619,-0.44 -0.158,-0.271 -0.256,-0.646 -0.256,-1.06 0,-0.414 0.098,-0.789 0.256,-1.06 0.159,-0.272 0.378,-0.44 0.619,-0.44 z"
       transform="matrix(2.0677462,0,0,1.5893266,-435.25,-231.6)" />
  </g>
  <g
     id="g20"
     transform="translate(-1.7525896,-1.6331199)">
    <path
       id="path16"
       fill="#ffffff"
       stroke="#ffffff"
       stroke-width="2"
       d="m 242.75,177 c 2.276,0 4.339,1.261 5.832,3.297 1.494,2.037 2.418,4.849 2.418,7.953 0,3.104 -0.924,5.916 -2.418,7.953 -1.493,2.036 -3.556,3.297 -5.832,3.297 -2.276,0 -4.339,-1.261 -5.832,-3.297 -1.494,-2.037 -2.418,-4.849 -2.418,-7.953 0,-3.104 0.924,-5.916 2.418,-7.953 1.493,-2.036 3.556,-3.297 5.832,-3.297 z"
       transform="matrix(0.84042555,0,0,0.84042555,-133,-116.25)" />
    <path
       id="path18"
       fill="#000000"
       stroke="#000000"
       stroke-width="2"
       d="m 233.125,172.5 c 0.241,0 0.46,0.168 0.619,0.44 0.158,0.271 0.256,0.646 0.256,1.06 0,0.414 -0.098,0.789 -0.256,1.06 -0.159,0.272 -0.378,0.44 -0.619,0.44 -0.241,0 -0.46,-0.168 -0.619,-0.44 -0.158,-0.271 -0.256,-0.646 -0.256,-1.06 0,-0.414 0.098,-0.789 0.256,-1.06 0.159,-0.272 0.378,-0.44 0.619,-0.44 z"
       transform="matrix(2.0677462,0,0,1.5893266,-411,-231)" />
  </g>
</svg>
