<?xml version="1.0" encoding="UTF-8" standalone="no"?>
<!-- Generator: Adobe Illustrator 22.1.0, SVG Export Plug-In . SVG Version: 6.00 Build 0)  -->

<svg
   version="1.1"
   id="Layer_1"
   x="0px"
   y="0px"
   viewBox="0 0 145.5609 143.06941"
   xml:space="preserve"
   sodipodi:docname="heart_code.svg"
   width="145.5609"
   height="143.06941"
   xmlns:inkscape="http://www.inkscape.org/namespaces/inkscape"
   xmlns:sodipodi="http://sodipodi.sourceforge.net/DTD/sodipodi-0.dtd"
   xmlns="http://www.w3.org/2000/svg"
   xmlns:svg="http://www.w3.org/2000/svg"><defs
   id="defs11" /><sodipodi:namedview
   id="namedview9"
   pagecolor="#ffffff"
   bordercolor="#000000"
   borderopacity="0.25"
   inkscape:showpageshadow="2"
   inkscape:pageopacity="0.0"
   inkscape:pagecheckerboard="0"
   inkscape:deskcolor="#d1d1d1" />
<style
   type="text/css"
   id="style2">
	.st0{fill:#FFD499;stroke:#FFD499;stroke-width:15;stroke-linejoin:round;}
	.st1{fill:#FFE9CC;stroke:#FFE9CC;stroke-width:15;stroke-linejoin:round;}
	.st2{fill:#FF9400;}
	.st3{font-family:'Helvetica';}
	.st4{font-size:25.0793018px;}
</style>
<g
   id="ID0.2657389142550528">
	<path
   id="ID0.2874125149101019"
   class="st0"
   d="M 42.507423,7.5 C 23.732601,7.5 8.4950628,23.764786 8.4950628,43.805325 c 0,40.769672 38.5283512,51.458873 64.7827762,91.764735 C 98.099769,95.51228 138.0609,83.273754 138.0609,43.805325 138.0609,23.764786 122.82336,7.5 104.04854,7.5 90.429985,7.5 78.708763,16.083185 73.27784,28.432442 67.847199,16.083185 56.125973,7.5 42.507423,7.5 Z" />
	<path
   id="ID0.2874125149101019_1_"
   class="st1"
   d="M 39.507423,8.5 C 21.839325,8.5 7.5,23.806021 7.5,42.665222 7.5,81.031632 43.757206,91.090729 68.464005,129.02068 91.822754,91.324196 129.42827,79.807091 129.42827,42.665222 129.42827,23.806021 115.08894,8.5 97.420853,8.5 84.60508,8.5 73.574791,16.577228 68.464005,28.19853 63.353485,16.577228 52.323193,8.5 39.507423,8.5 Z" />
</g>
<text
   id="ID0.7224274449981749"
   class="st2 st3 st4"
   x="20.415432"
   y="53.904297">CODE IT</text>
</svg>
