<?xml version="1.0" encoding="UTF-8" standalone="no"?>
<svg
   xmlns:dc="http://purl.org/dc/elements/1.1/"
   xmlns:cc="http://creativecommons.org/ns#"
   xmlns:rdf="http://www.w3.org/1999/02/22-rdf-syntax-ns#"
   xmlns:svg="http://www.w3.org/2000/svg"
   xmlns="http://www.w3.org/2000/svg"
   xmlns:sodipodi="http://sodipodi.sourceforge.net/DTD/sodipodi-0.dtd"
   xmlns:inkscape="http://www.inkscape.org/namespaces/inkscape"
   version="1.1"
   width="42.837688"
   height="54.387314"
   id="svg7402"
   sodipodi:docname="holly2.svg"
   inkscape:version="0.92.2 5c3e80d, 2017-08-06">
  <metadata
     id="metadata7408">
    <rdf:RDF>
      <cc:Work
         rdf:about="">
        <dc:format>image/svg+xml</dc:format>
        <dc:type
           rdf:resource="http://purl.org/dc/dcmitype/StillImage" />
        <dc:title></dc:title>
      </cc:Work>
    </rdf:RDF>
  </metadata>
  <defs
     id="defs7406" />
  <sodipodi:namedview
     pagecolor="#ffffff"
     bordercolor="#666666"
     borderopacity="1"
     objecttolerance="10"
     gridtolerance="10"
     guidetolerance="10"
     inkscape:pageopacity="0"
     inkscape:pageshadow="2"
     inkscape:window-width="640"
     inkscape:window-height="480"
     id="namedview7404"
     showgrid="false"
     fit-margin-top="0"
     fit-margin-left="0"
     fit-margin-right="0"
     fit-margin-bottom="0"
     inkscape:zoom="5.537037"
     inkscape:cx="17.335963"
     inkscape:cy="25.155945"
     inkscape:window-x="-2"
     inkscape:window-y="-2"
     inkscape:window-maximized="0"
     inkscape:current-layer="svg7402" />
  <!-- Exported by Scratch - http://scratch.mit.edu/ -->
  <path
     id="ID0.17891140887513757"
     d="m 8.7117143,1.3079544 c 0.3197846,-0.62638444 0.8495369,-1.59065591 1.3327207,-1.22915032 1.49681,1.12004862 1.409456,3.75422142 2.993571,4.50788082 1.549066,0.7659618 3.416018,-0.2750935 4.988481,-0.636743 0.507611,-0.1170125 1.527624,-1.533771 1.407907,-0.6798707 -0.484181,3.3835436 -3.60188,6.5902445 -2.776514,9.9190908 0.869101,3.506004 4.313472,5.963003 7.055482,8.356038 0.89951,0.644343 3.682645,-0.74924 3.341009,0.312915 -1.112855,3.470255 -4.362798,6.070576 -6.397383,9.196827 -0.989797,1.52401 -1.953944,3.207509 -2.5593,4.965133 -0.594082,1.732251 0.187726,4.05417 -0.81109,5.713316 -0.481404,0.587415 -1.798135,-0.527132 -2.197853,-1.147458 -1.16517,-1.805066 -1.027629,-4.339988 -2.400063,-5.99134 C 7.5755271,30.646094 6.6000161,30.601745 4.8260449,29.864461 4.1394815,29.635994 2.3681758,30.609185 2.7335985,29.775635 4.1952896,26.441433 9.2122853,24.131554 8.866232,20.424134 8.5495058,17.0387 3.7611148,15.979347 1.2323517,13.806231 0.57326648,13.208108 -0.30999865,13.282664 0.10824083,12.808042 1.7812995,10.911248 4.5040978,10.281147 5.9337315,8.3306434 7.4798823,6.3050738 7.5728677,3.5504478 8.7117143,1.3079544 Z"
     inkscape:connector-curvature="0"
     style="fill:#216d2f;stroke:none;stroke-width:1.20266557;stroke-linecap:round" />
  <path
     id="path7395"
     d="m 37.632683,13.554613 c 0.608318,-0.157991 1.567009,-0.376169 1.612149,0.161215 0.13972,1.664813 -1.672336,3.169485 -1.235981,4.675233 0.407336,1.489626 2.210794,2.119439 3.385514,2.955607 0.379392,0.269767 1.931355,0.110701 1.289719,0.537384 -2.548271,1.684158 -6.541027,1.503598 -8.2757,4.030373 -1.827103,2.661122 -1.42514,6.420654 -1.397196,9.672897 0.103177,0.983411 2.685841,2.016261 1.773364,2.418224 -2.979252,1.315514 -6.64528,0.686776 -9.941588,1.182243 -1.605701,0.242897 -3.302757,0.59757 -4.836449,1.235981 -1.510046,0.630888 -2.59771,2.531075 -4.299065,2.848131 -0.678177,0.02687 -0.714719,-1.514346 -0.537383,-2.149533 0.514813,-1.849673 2.290327,-3.261915 2.579439,-5.158878 -0.395514,-5.759673 -0.944719,-6.43785 -1.504673,-8.060747 -0.254719,-0.594346 -1.956074,-1.200514 -1.182243,-1.450935 3.095327,-1.001682 7.615794,0.980187 9.88785,-1.450934 2.074299,-2.220467 -0.05911,-6.048785 -0.107476,-9.028037 0.0086,-0.795327 -0.565327,-1.341308 0,-1.343458 2.260233,-0.0075 4.296915,1.438037 6.448598,1.235981 2.270981,-0.168738 4.166869,-1.741121 6.341121,-2.310747 z"
     inkscape:connector-curvature="0"
     style="fill:#288439;stroke:none;stroke-width:1.07476628;stroke-linecap:round" />
  <path
     id="ID0.35634810756891966"
     d="m 23.177076,31.019565 c 1.497149,-1.507897 3.181308,-3.137243 4.621495,-4.836448 1.987243,-2.344066 5.668318,-8.089766 5.373832,-7.254673 -0.154767,0.814673 -3.783178,8.534719 -6.71729,12.198598 -2.78042,3.47257 -9.38271,8.812009 -9.941588,8.92056 -0.558878,0.108551 3.316729,-5.050327 5.10514,-7.523364 0.454626,-0.566402 1.050047,-0.993084 1.558411,-1.504673 z"
     inkscape:connector-curvature="0"
     style="fill:#216d2f;stroke:none;stroke-width:1.07476628;stroke-linecap:round" />
  <g
     id="ID0.4590558926574886"
     transform="matrix(1.0747663,0,0,1.0747663,-8.6640369,-3.1252862)">
    <path
       id="ID0.7988728419877589"
       d="m 182.25,159 c 5.863,0 11.175,2.325 15.022,6.081 3.847,3.757 6.228,8.944 6.228,14.669 0,5.725 -2.381,10.912 -6.228,14.669 -3.847,3.756 -9.159,6.081 -15.022,6.081 -5.863,0 -11.175,-2.325 -15.022,-6.081 -3.847,-3.757 -6.228,-8.944 -6.228,-14.669 0,-5.725 2.381,-10.912 6.228,-14.669 3.847,-3.756 9.159,-6.081 15.022,-6.081 z"
       transform="matrix(0.34170437,0,0,0.34170437,-36.15,-15)"
       inkscape:connector-curvature="0"
       style="fill:#cc0000;stroke:none;stroke-linecap:round" />
    <path
       id="ID0.8249152726493776"
       d="m 164.85,181.65 c 0.78,-0.294 1.671,-0.241 2.5,-0.15 1.326,0.143 2.695,0.299 3.8,1 0.637,0.405 1.303,1.337 0.85,1.9 -0.821,1.264 -2.591,1.531 -3.85,2.4 -1.578,1.089 -3.173,2.149 -4.5,3.6 -1.622,1.772 -2.034,5.001 -4.15,5.9 -1.161,0.491 -2.108,-1.936 -2.35,-3.3 -0.382,-1.724 -0.029,-3.596 0.6,-5.35 0.503,-1.404 1.412,-2.638 2.6,-3.65 1.288,-1.095 2.871,-1.734 4.5,-2.35 z"
       transform="matrix(0.34170437,0,0,0.34170437,-31.5,-21.4)"
       inkscape:connector-curvature="0"
       style="fill:#ffadad;stroke:none" />
    <path
       id="ID0.5118507202714682"
       d="m 173.05,196.8 c 2.979,-0.915 5.397,-3.287 8.4,-3.8 1.415,-0.259 3.697,0.291 3.9,1.65 0.355,2.401 -1.052,4.94 -2.5,6.85 -1.404,1.819 -3.532,3.1 -5.65,3.8 -2.381,0.787 -5.026,1.071 -7.5,0.6 -2.302,-0.322 -4.874,-1.057 -6.35,-2.9 -0.938,-1.17 -1.06,-3.687 0.2,-4.5 2.726,-1.76 6.428,-0.757 9.5,-1.7 z"
       transform="matrix(0.34170437,0,0,0.34170437,-32.05,-19)"
       inkscape:connector-curvature="0"
       style="fill:#bd2e2e;stroke:none;stroke-linecap:round" />
  </g>
</svg>
