<?xml version="1.0" encoding="UTF-8" standalone="no"?>
<svg
   version="1.1"
   width="43.981468"
   height="55.696705"
   id="svg17"
   sodipodi:docname="holly1.svg"
   xmlns:inkscape="http://www.inkscape.org/namespaces/inkscape"
   xmlns:sodipodi="http://sodipodi.sourceforge.net/DTD/sodipodi-0.dtd"
   xmlns="http://www.w3.org/2000/svg"
   xmlns:svg="http://www.w3.org/2000/svg">
  <defs
     id="defs21" />
  <sodipodi:namedview
     id="namedview19"
     pagecolor="#ffffff"
     bordercolor="#000000"
     borderopacity="0.25"
     inkscape:showpageshadow="2"
     inkscape:pageopacity="0.0"
     inkscape:pagecheckerboard="0"
     inkscape:deskcolor="#d1d1d1" />
  <!-- Exported by Scratch - http://scratch.mit.edu/ -->
  <g
     id="ID0.844333671964705"
     transform="translate(-9.3161584,-3.348633)">
    <path
       id="ID0.17891140887513757"
       fill="#216d2f"
       stroke="none"
       stroke-linecap="round"
       d="m 169.15,139.5 c 0.566,-0.147 1.458,-0.35 1.5,0.15 0.13,1.549 -1.556,2.949 -1.15,4.35 0.379,1.386 2.057,1.972 3.15,2.75 0.353,0.251 1.797,0.103 1.2,0.5 -2.371,1.567 -6.086,1.399 -7.7,3.75 -1.7,2.476 -1.326,5.974 -1.3,9 0.096,0.915 2.499,1.876 1.65,2.25 -2.772,1.224 -6.183,0.639 -9.25,1.1 -1.494,0.226 -3.073,0.556 -4.5,1.15 -1.405,0.587 -2.417,2.355 -4,2.65 -0.631,0.025 -0.665,-1.409 -0.5,-2 0.479,-1.721 2.131,-3.035 2.4,-4.8 -0.368,-5.359 -0.879,-5.99 -1.4,-7.5 -0.237,-0.553 -1.82,-1.117 -1.1,-1.35 2.88,-0.932 7.086,0.912 9.2,-1.35 1.93,-2.066 -0.055,-5.628 -0.1,-8.4 0.008,-0.74 -0.526,-1.248 0,-1.25 2.103,-0.007 3.998,1.338 6,1.15 2.113,-0.157 3.877,-1.62 5.9,-2.15 z"
       transform="matrix(0.81710964,-0.92018807,0.92018807,0.81710964,-248.35,46.35)" />
    <path
       id="path3"
       fill="#288439"
       stroke="none"
       stroke-linecap="round"
       d="m 169.15,139.5 c 0.566,-0.147 1.458,-0.35 1.5,0.15 0.13,1.549 -1.556,2.949 -1.15,4.35 0.379,1.386 2.057,1.972 3.15,2.75 0.353,0.251 1.797,0.103 1.2,0.5 -2.371,1.567 -6.086,1.399 -7.7,3.75 -1.7,2.476 -1.326,5.974 -1.3,9 0.096,0.915 2.499,1.876 1.65,2.25 -2.772,1.224 -6.183,0.639 -9.25,1.1 -1.494,0.226 -3.073,0.556 -4.5,1.15 -1.405,0.587 -2.417,2.355 -4,2.65 -0.631,0.025 -0.665,-1.409 -0.5,-2 0.479,-1.721 2.131,-3.035 2.4,-4.8 -0.368,-5.359 -0.879,-5.99 -1.4,-7.5 -0.237,-0.553 -1.82,-1.117 -1.1,-1.35 2.88,-0.932 7.086,0.912 9.2,-1.35 1.93,-2.066 -0.055,-5.628 -0.1,-8.4 0.008,-0.74 -0.526,-1.248 0,-1.25 2.103,-0.007 3.998,1.338 6,1.15 2.113,-0.157 3.877,-1.62 5.9,-2.15 z"
       transform="matrix(1.0997437,0,0,1.0997437,-138.05,-136.2)" />
    <g
       id="ID0.7790164602920413">
      <path
         id="ID0.426002811640501"
         fill="#cc0000"
         stroke="none"
         d="m 144.25,165 c 5.863,0 11.175,2.325 15.022,6.081 3.847,3.757 6.228,8.944 6.228,14.669 0,5.725 -2.381,10.912 -6.228,14.669 -3.847,3.756 -9.159,6.081 -15.022,6.081 -5.863,0 -11.175,-2.325 -15.022,-6.081 -3.847,-3.757 -6.228,-8.944 -6.228,-14.669 0,-5.725 2.381,-10.912 6.228,-14.669 3.847,-3.756 9.159,-6.081 15.022,-6.081 z"
         transform="matrix(0.37578723,0,0,0.37578723,-34.55,-20.7)" />
      <path
         id="ID0.5118507202714682"
         fill="#bd2e2e"
         stroke="none"
         stroke-linecap="round"
         d="m 173.05,196.8 c 2.979,-0.915 5.397,-3.287 8.4,-3.8 1.415,-0.259 3.697,0.291 3.9,1.65 0.355,2.401 -1.052,4.94 -2.5,6.85 -1.404,1.819 -3.532,3.1 -5.65,3.8 -2.381,0.787 -5.026,1.071 -7.5,0.6 -2.302,-0.322 -4.874,-1.057 -6.35,-2.9 -0.938,-1.17 -1.06,-3.687 0.2,-4.5 2.726,-1.76 6.428,-0.757 9.5,-1.7 z"
         transform="matrix(0.37578723,0,0,0.37578723,-44.35,-22.1)" />
      <path
         id="ID0.8249152726493776"
         fill="#ffadad"
         stroke="none"
         d="m 164.85,181.65 c 0.78,-0.294 1.671,-0.241 2.5,-0.15 1.326,0.143 2.695,0.299 3.8,1 0.637,0.405 1.303,1.337 0.85,1.9 -0.821,1.264 -2.591,1.531 -3.85,2.4 -1.578,1.089 -3.173,2.149 -4.5,3.6 -1.622,1.772 -2.034,5.001 -4.15,5.9 -1.161,0.491 -2.108,-1.936 -2.35,-3.3 -0.382,-1.724 -0.029,-3.596 0.6,-5.35 0.503,-1.404 1.412,-2.638 2.6,-3.65 1.288,-1.095 2.871,-1.734 4.5,-2.35 z"
         transform="matrix(0.36955017,0.06818128,-0.06818128,0.36955017,-30.55,-35.9)" />
    </g>
    <path
       id="ID0.35634810756891966"
       fill="#216d2f"
       stroke="none"
       stroke-linecap="round"
       d="m 155.7,155.75 c 1.393,-1.403 2.96,-2.919 4.3,-4.5 1.849,-2.181 5.274,-7.527 5,-6.75 -0.144,0.758 -3.52,7.941 -6.25,11.35 -2.587,3.231 -8.73,8.199 -9.25,8.3 -0.52,0.101 3.086,-4.699 4.75,-7 0.423,-0.527 0.977,-0.924 1.45,-1.4 z"
       transform="matrix(1.0997437,0,0,1.0997437,-138.05,-136.2)" />
    <g
       id="ID0.4590558926574886">
      <path
         id="ID0.7988728419877589"
         fill="#cc0000"
         stroke="none"
         stroke-linecap="round"
         d="m 182.25,159 c 5.863,0 11.175,2.325 15.022,6.081 3.847,3.757 6.228,8.944 6.228,14.669 0,5.725 -2.381,10.912 -6.228,14.669 -3.847,3.756 -9.159,6.081 -15.022,6.081 -5.863,0 -11.175,-2.325 -15.022,-6.081 -3.847,-3.757 -6.228,-8.944 -6.228,-14.669 0,-5.725 2.381,-10.912 6.228,-14.669 3.847,-3.756 9.159,-6.081 15.022,-6.081 z"
         transform="matrix(0.37578723,0,0,0.37578723,-39.25,-16.3)" />
      <path
         id="path11"
         fill="#ffadad"
         stroke="none"
         d="m 164.85,181.65 c 0.78,-0.294 1.671,-0.241 2.5,-0.15 1.326,0.143 2.695,0.299 3.8,1 0.637,0.405 1.303,1.337 0.85,1.9 -0.821,1.264 -2.591,1.531 -3.85,2.4 -1.578,1.089 -3.173,2.149 -4.5,3.6 -1.622,1.772 -2.034,5.001 -4.15,5.9 -1.161,0.491 -2.108,-1.936 -2.35,-3.3 -0.382,-1.724 -0.029,-3.596 0.6,-5.35 0.503,-1.404 1.412,-2.638 2.6,-3.65 1.288,-1.095 2.871,-1.734 4.5,-2.35 z"
         transform="matrix(0.37578723,0,0,0.37578723,-34.1,-23.35)" />
      <path
         id="path13"
         fill="#bd2e2e"
         stroke="none"
         stroke-linecap="round"
         d="m 173.05,196.8 c 2.979,-0.915 5.397,-3.287 8.4,-3.8 1.415,-0.259 3.697,0.291 3.9,1.65 0.355,2.401 -1.052,4.94 -2.5,6.85 -1.404,1.819 -3.532,3.1 -5.65,3.8 -2.381,0.787 -5.026,1.071 -7.5,0.6 -2.302,-0.322 -4.874,-1.057 -6.35,-2.9 -0.938,-1.17 -1.06,-3.687 0.2,-4.5 2.726,-1.76 6.428,-0.757 9.5,-1.7 z"
         transform="matrix(0.37578723,0,0,0.37578723,-34.7,-20.7)" />
    </g>
  </g>
</svg>
