<?xml version="1.0" encoding="UTF-8" standalone="no"?>
<svg
   version="1.1"
   width="138.25032"
   height="155.3851"
   viewBox="-2.4637402 0.023759782 138.25032 155.3851"
   id="svg30"
   sodipodi:docname="horse1-b.svg"
   xmlns:inkscape="http://www.inkscape.org/namespaces/inkscape"
   xmlns:sodipodi="http://sodipodi.sourceforge.net/DTD/sodipodi-0.dtd"
   xmlns="http://www.w3.org/2000/svg"
   xmlns:svg="http://www.w3.org/2000/svg">
  <defs
     id="defs34" />
  <sodipodi:namedview
     id="namedview32"
     pagecolor="#ffffff"
     bordercolor="#000000"
     borderopacity="0.25"
     inkscape:showpageshadow="2"
     inkscape:pageopacity="0.0"
     inkscape:pagecheckerboard="0"
     inkscape:deskcolor="#d1d1d1" />
  <!-- Exported by Scratch - http://scratch.mit.edu/ -->
  <path
     id="ID0.40521090431138873"
     fill="#975b3d"
     d="m 69.529974,47.19826 -8.0824,1.7325 3.1756,-5.6276 c -1.2984,0.1799 -2.0206,0.1799 -3.319,0 l 6.3499,-7.9377 h -3.1756 l 6.7827,-7.6497 c -1.5135,0.1799 -2.4886,0.3963 -3.8952,-0.1447 3.3907,-5.6993 7.2885,-7.325 13.7101,-8.6586 1.481,-0.2894 3.5354,-1.4431 4.7621,-2.3086 1.1198,-0.7939 0.3246,-2.0572 0.4328,-3.4637 0.2529,-3.4651002 -0.4328,-5.5939002 2.31,-7.6497002 1.2619,2.5616 4.3658,3.1026 5.0502,5.8441002 2.3438,-1.6595002 1.8759,-4.8338002 4.0398,-6.7097002 1.6609,-1.4431 4.039896,-3.6084 5.339596,-1.8772 2.7063,3.6436 1.2998,7.7213002 -1.0089,11.6908002 2.8131,-0.2164 5.9888,-1.0819 7.2155,0.1434 0.6627,0.6614 -2.8145,5.2679 -4.3293,6.7827 -4.2211,4.2224 -10.031396,4.5457 -15.153196,1.5878 -2.778,-1.5878 -3.5733,3.7166 -5.4857,6.3499 -2.3087,3.1756 -2.8497,5.5208 -4.474,9.0914 -1.6608,3.6801 -1.7312,6.9287 -5.1962,8.9493 -2.2343,1.2984 -2.5589,-0.9751 -5.0488,-0.1447 z"
     stroke-width="1.35248" />
  <path
     id="ID0.16569482954218984"
     fill="#272525"
     d="m 43.624574,142.66716 c -1.3701,1.9476 -4.8608,2.9349 -6.2782,3.1026 -1.2267,0.1434 -1.6906,-0.7114 -1.1551,-1.155 1.8922,-1.5621 3.5963,-1.7501 5.8455,-2.7415 0.4503,-0.1975 1.8691,0.3936 1.5878,0.7939 z"
     stroke-width="1.35248" />
  <path
     id="ID0.05633068270981312"
     fill="#272525"
     d="m 51.848974,128.24706 c -0.825,1.6811 -3.411,2.8767 -4.4902,3.181 -0.9346,0.2624 -1.3998,-0.3449 -1.0374,-0.7533 1.2754,-1.4458 2.9146,-2.1992 4.5362,-3.246 0.326,-0.2096 1.1605,0.4734 0.9914,0.8183 z"
     stroke-width="1.35248" />
  <path
     id="ID0.4888935834169388"
     fill="#272525"
     d="m 123.10037,83.04446 c -0.5708,1.9908 -2.9633,4.4131 -4.6877,4.9582 -0.6641,0.2096 -0.7561,-1.3674 -0.3909,-1.6934 1.5851,-1.2929 3.2365,-2.2762 3.5584,-4.3739 0.2407,-0.5531 1.7636,0.2611 1.5202,1.1091 z"
     stroke-width="1.35248" />
  <path
     id="ID0.6674293549731374"
     fill="#272525"
     d="m 99.907974,120.58656 c -0.0392,0.008 -0.0662,0.0365 -0.096,0.0568 0.007,0.349 0.007,0.6992 -0.0392,1.0428 0.0568,0.0784 0.1204,0.1406 0.2002,0.1582 3.600296,0.8034 8.080996,-0.5748 9.603896,-3.841 -1.1293,-1.3647 -4.8567,1.6757 -9.668896,2.5832 z"
     stroke-width="1.35248" />
  <path
     id="ID0.10461233928799629"
     fill="#272525"
     d="m 108.97097,43.97266 c 1.0671,-5.0164 6.78,2.6697 3.7234,3.8112 -0.9156,0.3422 -4.0791,-2.1423 -3.7234,-3.8112 z"
     stroke-width="1.35248" />
  <path
     id="ID0.06909843999892473"
     fill="#272525"
     d="m 118.30987,40.81186 c 3.5787,-1.8218 1.7149,5.4383 -0.4815,4.1413 -0.6614,-0.3882 -0.7073,-3.5354 0.4815,-4.1413 z"
     stroke-width="1.35248" />
  <path
     id="ID0.5148435919545591"
     fill="#d1b23e"
     d="m 16.996874,128.59456 c 2.5982,-9.6675 1.7312,-11.4 -2.1653,-20.0586 -3.3717,-7.4914 -2.7428,-13.5654 -0.1447,-21.3611 4.4023,-13.3489 14.4323,-17.4618 27.4215,-23.2356 15.586,-6.9274 26.8441,-10.7522 33.0493,-26.4112 2.4831,-6.2417 8.4435,-12.9892 7.5049,-17.6796 -0.2638,-0.3314 -1.3322,0.3868 -1.7312,0.0716 -5.1232,-4.0398 -8.3002,-12.1953002 -3.4637,-16.4515002 7.2155,5.4112 7.0721,12.9892002 13.1326,18.7616002 4.2292,4.0263 9.958296,2.3803 14.863696,-0.867 2.5995,6.5663 1.1551,15.0099 8.0838,15.8755 3.6801,0.4327 7.2899,-3.1743 9.5242,-0.2895 2.1666,2.8159 -0.3598,5.7738 -2.0206,8.9494 -1.5148,2.8862 1.5891,4.6187 -1.1537,8.3691 -2.3722,3.246 -7.7213,1.8042 -10.3925,-1.155 -2.6698,-2.9592 -3.1539,-4.4131 -6.2051,-8.2258 -0.5775,-0.7222 -3.753196,0.7926 -7.072196,2.164 2.4534,1.3714 4.041296,2.0923 5.775096,4.3306 -6.495896,3.1757 -9.164396,0 -11.835496,-4.0412 -6.9274,8.3705 -5.1949,16.0202 -3.6071,26.4099 8.2258,-3.6071 14.647396,-7.5035 23.523696,-3.6071 9.4525,4.186 12.9892,11.9776 23.2356,11.9776 0.6492,7.0005 -4.5457,10.4628 -11.4014,11.8356 -5.9888,1.2253 -2.3073,-5.7751 -8.5139,-12.4131 -3.6598,-3.9154 -18.040696,-4.9068 -26.266496,-1.5878 -2.0125,0.8128 -1.2267,0.6492 -5.0515,7.2155 9.2361,1.3714 15.0098,4.4753 20.492796,11.8355 4.8351,6.4946 3.2649,13.2854 9.2361,18.7616 3.465,3.1757 8.5882,3.9696 7.3602,8.2258 -1.155,3.8979 -3.6071,4.474 -7.6483,5.0515 -4.3293,0.6479 -7.1438,0.6479 -11.2567,-0.8669 -3.030896,-1.0833 0.5045,-5.1245 0.5789,-8.3691 0.5761,-15.371 -11.474496,-26.9888 -26.845396,-28.8647 -4.8351,-0.5788 -6.9991,3.246 -11.2567,5.483 -4.2576,2.2383 -6.0605,3.0309 -11.2567,5.1976 -2.4534,5.7737 -5.4843,10.318 -11.5461,13.5653 5.556,7.4319 12.6998,7.5049 19.3391,14.1429 4.7621,4.7621 -5.6899,8.6843 -13.7723,3.9222 0,-6.9287 -6.7218,-9.8393 -11.0511,-15.3236 -3.0309,0.7222 -4.2576,0.8669 -6.0619,3.319 1.5865,5.4843 2.6698,8.5882 7.505,12.8445 6.5663,5.7737 19.7719,7.0721 18.1841,13.2787 -1.0415,4.0709 -19.3392,6.7813 -19.6272,-1.0117 -0.3611,-9.5918 -8.948,-15.0044 -17.4633,-19.7679 z"
     stroke-width="1.35248" />
  <path
     id="ID0.9229756770655513"
     fill="#b4762e"
     d="m 56.084974,147.96216 c -0.0528,-0.0528 -0.092,-0.115 -0.1218,-0.1826 -0.0162,-0.0203 -0.0365,-0.0325 -0.0513,-0.0582 -0.5424,-0.9792 -1.2132,-1.8678 -1.8543,-2.782 -0.3381,-0.1921 -0.6181,-0.4328 -0.8642,-0.752 -0.0906,-0.0108 -0.1853,-0.0406 -0.2813,-0.1014 -0.7791,-0.491 -1.5405,-1.0131 -2.3047,-1.5283 -0.0757,-0.0136 -0.1515,-0.0312 -0.2312,-0.0785 -0.3666,-0.2123 -0.7169,-0.4477 -1.0983,-0.6343 -0.0784,-0.0379 -0.1312,-0.0879 -0.1825,-0.1407 -1.0306,-0.472 -2.0572,-0.9602 -3.0715,-1.4241 -0.0785,-0.0352 -0.1326,-0.0839 -0.184,-0.1353 -2.8591,2.1126 -4.8067,3.4407 -8.3475,4.7553 -1.5783,0.5857 -2.8551,1.2592 -4.1954,1.5135 -0.1974,2.2248 -0.0094,4.7053 -0.5612,6.8963 0.0081,0.009 0.0175,0.0108 0.0256,0.0216 0.3355,0.4287 1.4174,0.4639 1.9314,0.5978 0.9914,0.261 1.9787,0.5342 2.9606,0.8318 0.0662,0.0203 0.1109,0.0581 0.1623,0.0892 1.3322,0.2543 2.6373,0.4288 3.9465,0.5559 0.0406,-0.01 0.069,-0.0338 0.115,-0.0338 0.6789,-0.005 1.3538,-0.05 2.0287,-0.1271 0.0771,-0.008 0.1406,0.004 0.2015,0.0189 0.096,-0.0595 0.2056,-0.1028 0.3476,-0.1028 0.119,0 0.2177,0.0284 0.3043,0.0717 0.0744,-0.0325 0.1447,-0.0717 0.2448,-0.0717 0.0433,0 0.0744,0.0162 0.1123,0.023 0.096,-0.0609 0.2082,-0.1068 0.3516,-0.1068 0.1096,0 0.1975,0.0284 0.2786,0.0676 0.0974,-0.0636 0.2096,-0.1096 0.3557,-0.1096 0.0636,0 0.115,0.019 0.1691,0.0338 0.0554,-0.0135 0.1055,-0.0338 0.169,-0.0338 0.0054,0 0.0095,0.003 0.0149,0.003 0.4085,-0.1704 0.8088,-0.2136 1.2538,-0.2123 0.4071,-0.1082 0.8128,-0.2205 1.2226,-0.3165 0.0839,-0.0203 0.1569,-0.0149 0.2286,-0.008 0.307,-0.1393 0.6208,-0.2583 0.9548,-0.33 0.0433,-0.01 0.0785,-0.001 0.1177,-0.001 0.0825,-0.0527 0.1785,-0.0852 0.2962,-0.0946 0.0189,-0.01 0.0284,-0.0244 0.0514,-0.0298 0.6789,-0.1853 1.3592,-0.3367 1.9935,-0.6519 0.0406,-0.0203 0.0785,-0.0203 0.1177,-0.0311 0.637,-0.3584 1.2565,-0.7601 1.9111,-1.0671 0.0067,-0.003 0.0121,-10e-4 0.0189,-0.004 0.3854,-0.4234 0.8331,-0.7994 1.3038,-1.1131 0.0406,-0.1312 0.1298,-0.2367 0.2434,-0.3179 0.0203,-0.0946 0.0568,-0.1853 0.1136,-0.2624 0.0731,-0.848 -0.0027,-1.7284 -0.1974,-2.6359 z"
     stroke-width="1.35248" />
  <path
     id="ID0.7058732528239489"
     fill="#b4762e"
     d="m 61.542174,135.72486 c 0.0257,-0.0892 0.0622,-0.1758 0.119,-0.2502 0.0122,-0.0581 0.0312,-0.1095 0.0569,-0.1623 -0.023,-1.1618 -0.088,-2.1464 -0.3693,-3.2351 -0.0121,-0.0474 -0.2137,-0.6113 -0.3232,-0.9738 -0.4517,-0.9197 -1.0306,-1.7785 -1.8597,-2.402 -0.0297,-0.023 -0.0433,-0.0514 -0.0676,-0.0771 -0.3084,-0.1988 -0.6478,-0.4274 -0.6817,-0.445 -1.3105,-0.6857 -2.2234,-0.9981 -3.8018,-1.4701 -0.2813,-0.0839 -0.5464,-0.1826 -0.802,-0.2894 -1.4066,0.9088 -2.8862,1.8758 -4.6322,2.8956 -2.16,1.247 -3.4637,2.3642 -5.268,3.4691 0.0163,0.0298 0.0379,0.0595 0.0541,0.0906 0.023,0.0312 0.0393,0.0677 0.0609,0.1001 0,0.001 0,0.001 0,0.001 l 0.1488,0.2488 c 0.518,0.8359 1.1834,1.6081 1.4634,2.5549 0.0297,0.1028 0.0527,0.2083 0.0798,0.3124 0.2055,0.3503 0.3259,0.7385 0.3327,1.1767 0.1109,0.0933 0.1826,0.2164 0.2137,0.3584 0.0108,0.008 0.0216,0.0175 0.0324,0.027 0.1434,0.0311 0.2638,0.092 0.3436,0.1907 0.0175,-0.004 0.0324,-0.0108 0.0527,-0.0108 0.2434,0 0.4003,0.1177 0.5045,0.2705 0.0311,-0.003 0.0541,-0.0176 0.0865,-0.0176 0.1339,0 0.2394,0.0365 0.33,0.0906 0.1799,0.01 0.3179,0.0758 0.4193,0.1772 0.1501,0.0176 0.2746,0.0717 0.3665,0.1582 0.188,0.005 0.3219,0.0825 0.4261,0.1853 0.0365,0.003 0.0689,-0.007 0.1095,0.003 1.4904,0.3314 2.9268,0.5059 4.378,0.6086 0.6032,-0.0189 1.1672,-0.1406 1.7447,-0.3124 0.0081,-0.003 0.0149,0 0.023,-0.003 0.0095,-0.008 0.0243,-0.0122 0.0338,-0.0203 0.1001,-0.119 0.2543,-0.1934 0.4504,-0.2015 0.0798,-0.1136 0.1974,-0.2056 0.3814,-0.2407 1.1712,-0.2205 2.9673,-0.8575 4.0723,-1.4999 0.3638,-0.3909 0.7898,-0.7263 1.2605,-1.0157 0.0527,-0.1218 0.1393,-0.2246 0.261,-0.2922 z"
     stroke-width="1.35248" />
  <path
     id="ID0.06853255955502391"
     fill="#b4762e"
     d="m 121.29747,95.59006 c 0.046,-0.0163 0.0839,-0.0271 0.1393,-0.046 0.0379,-0.0135 0.0649,-0.023 0.0974,-0.0325 0.0135,-0.0094 0.0216,-0.0149 0.0352,-0.0243 0.7803,-0.4896 1.9259,-0.8494 2.9146,-0.8183 0.3002,-0.1285 0.6194,-0.2326 0.9562,-0.3151 0.2786,-0.1961 0.5612,-0.3868 0.8629,-0.5559 0.3489,-0.1974 0.7479,-0.3773 1.1604,-0.5369 1.4336,-0.921 2.7563,-1.9976 3.7977,-3.0269 0.1137,-0.119 0.2273,-0.2299 0.3436,-0.3435 0.1663,-0.1745 0.3259,-0.3462 0.4747,-0.5153 1.8921,-2.1518 2.87,-4.8554 3.7071,-7.5725 -0.0108,-0.0135 -0.0243,-0.0244 -0.0324,-0.0365 -0.1244,-0.0879 -0.234,-0.188 -0.3178,-0.303 -2.8592,-0.4977 -5.6872,-1.1198 -8.3787,-2.2803 -0.0987,-0.0433 -0.1853,-0.0946 -0.2718,-0.1447 -0.261,-0.0649 -0.4815,-0.1582 -0.6627,-0.28 -0.0852,-0.0284 -0.1704,-0.0581 -0.2462,-0.0933 -0.522,0.637 -1.04,1.3255 -1.6487,2.0193 -2.3086,2.6333 -3.066,4.9419 -6.0591,6.7827 -0.8223,0.5071 -1.5472,0.9967 -2.1896,1.5215 0.0892,0.1407 0.1717,0.2935 0.238,0.472 0.0866,0.2367 0.142,0.4856 0.2123,0.729 0.4748,0.5261 0.8548,1.1361 1.1483,1.8759 0.4274,1.0833 0.4247,2.2221 0.7547,3.3271 0.0297,0.1041 0.0419,0.1799 0.0473,0.2462 0.1082,-0.0136 0.2164,-0.0257 0.3206,-0.0257 0.3962,0 0.7114,0.0608 0.9913,0.146 0.4531,-0.0933 0.9332,-0.1501 1.4472,-0.1555 0.0514,-0.0041 0.1055,-0.0122 0.1582,-0.0135 z"
     stroke-width="1.35248" />
  <path
     id="ID0.7487440630793571"
     fill="#b4762e"
     d="m 120.90527,124.50336 c -0.004,-0.009 -0.005,-0.0216 -0.01,-0.0298 -0.2407,-0.0662 -0.3868,-0.2434 -0.4395,-0.4571 -0.234,-0.0825 -0.3679,-0.284 -0.4044,-0.5085 -0.1488,-0.115 -0.2353,-0.2584 -0.2502,-0.4152 -0.1474,-0.1461 -0.2949,-0.2949 -0.4233,-0.4558 -0.6168,-0.3679 -1.1361,-0.8345 -1.5689,-1.3687 -0.6884,-0.3503 -1.2727,-0.8142 -1.7555,-1.3606 -0.0663,-0.0176 -0.1272,-0.0406 -0.1786,-0.0758 -2.26,-0.3624 -3.8099,-1.7122 -4.6322,-3.4434 -2.2343,2.0964 -5.3139,3.5259 -8.664,4.7026 -1.013,0.3503 -1.9205,0.3516 -2.788796,0.1853 -0.019,0.2461 -0.0474,0.4869 -0.0906,0.7303 0.004,0.7412 -0.1109,1.4756 -0.3152,2.1802 0.01,0.0825 0.007,0.1718 -0.023,0.2678 -0.0392,0.138 -0.1136,0.257 -0.169,0.3841 10e-4,0.1785 -0.0582,0.3544 -0.1772,0.4828 0.0216,0.1718 -0.008,0.3503 -0.1677,0.5099 -0.0433,0.0433 -0.0866,0.0866 -0.1312,0.1326 -0.0352,0.1677 -0.1285,0.3151 -0.2786,0.4111 -0.1501,0.4666 -0.3368,0.9197 -0.5829,1.3403 0.05,0.4315 0.05,0.8656 0.0284,1.2998 0.0581,0.0865 0.0919,0.1839 0.1068,0.2894 0.5992,0.3584 1.1199,0.802 1.5446,1.32 0.554496,0.1163 1.072496,0.284 1.537696,0.5126 2.5278,0.4396 4.8635,0.8399 7.3535,0.9075 0.1785,-0.0149 0.3503,-0.0406 0.5383,-0.0406 0.0392,0 0.0757,0.008 0.1136,0.0109 0.5058,-0.1136 1.0481,-0.1786 1.6324,-0.1786 0.1921,0 0.3733,0.0149 0.5572,0.0284 0.1894,-0.0351 0.3665,-0.0865 0.5667,-0.1055 0.8088,-0.4314 1.7664,-0.6992 2.8686,-0.7492 0.1082,-0.1109 0.257,-0.188 0.4599,-0.188 0.0798,0 0.1433,0.023 0.2096,0.0419 0.3273,-0.1542 0.6587,-0.307 1.0319,-0.4084 0.4612,-0.399 1.0049,-0.7182 1.6068,-0.9698 0.591,-0.5748 1.251,-1.0211 1.9449,-1.3809 0.0351,-0.0635 0.0743,-0.1271 0.1406,-0.1852 0.1704,-0.1488 0.3179,-0.3382 0.4531,-0.5397 0.096,-0.2096 0.1975,-0.4152 0.3151,-0.6127 0.2043,-0.5125 0.2759,-1.0738 0.2097,-1.5986 -0.1705,-0.1704 -0.2246,-0.4314 -0.1691,-0.6654 z"
     stroke-width="1.35248" />
  <path
     id="ID0.3549998365342617"
     fill="#975b3d"
     d="m 18.872774,80.53696 c -1.9475,-0.4694 -4.3306,-1.1551 -4.1859,-3.1757 0.3611,-4.6904 3.86,-6.4215 7.3602,-9.5241 5.2679,-4.6553 9.8866,-6.423 12.6998,-12.8459 2.3452,-5.3761 0.1082,-12.3035 -5.629,-13.9995 -5.6277,-1.6595 -11.6895,1.5878 -12.9893,7.2155 3.319,-0.9373 5.3396,-1.2984 8.8033,-1.2984 2.49,0 4.9434,-0.3963 6.2052,1.7312 0.9021,1.5513 0.4328,3.2459 -0.5775,4.762 -4.9785,7.4671 -11.7246,7.8296 -20.06,11.2567 -7.1450995,2.9241 -11.9423995,10.0314 -9.52549954,17.3186 1.98810004,6.028 15.48179954,4.405 17.89869954,-1.4404 z"
     stroke-width="1.35248" />
  <path
     id="ID0.9394510821439326"
     fill="#272525"
     d="m 133.19387,81.03466 c -1.627,-0.3409 -3.2351,-0.7615 -4.804,-1.3336 -1.8123,-0.5085 -3.5137,-1.0644 -4.7391,-1.8312 -3.227,-2.0179 -5.253,-5.318 -9.0535,-7.2304 -8.2244,-4.1413 -19.218696,-3.5692 -26.528896,2.2641 -3.8167,-7.2074 -2.1626,-17.2361 1.32,-24.2676 3.1743,5.2084 9.535,6.7381 14.083396,2.0747 l -4.840496,-3.4569 c 1.709496,-0.5789 3.529996,-0.6614 5.280096,-1.0698 8.6599,19.4121 21.2136,10.5939 18.0069,0.871 1.4431,-1.4431 5.0718,-4.0345 3.1161,-8.4138 -2.6062,-5.8306 -8.6924,-3.7261 -11.0497,-2.2316 -6.8355,-2.6509 -2.5535,-11.1702 -7.0573,-15.371 1.5784,-2.2248 3.2852,-4.5903 3.7721,-7.4183 -2.0585,-0.4801 -4.9433,-0.6249 -7.8309,0.2407 3.8181,-4.7796002 2.8646,-11.3229002 -0.3584,-13.83720022 C 98.659674,1.0448598 94.063974,6.6441598 93.775874,10.83006 c -0.4463,-2.1937002 -0.8669,-4.3293002 -5.7737,-6.9274002 -3.6085,4.6187 -3.0296,6.9274002 -1.7583,10.5967002 l 0.6289,0.3138 c -0.169,-3.4786 -0.3124,-4.5606 1.8516,-8.1690002 2.8862,2.1653 5.3774,7.4156002 5.3774,7.4156002 1.1781,-5.3125002 3.4597,-8.7708002 7.356196,-11.3162002 4.4469,2.467 0.2543,11.2608002 -2.487196,13.5695002 3.175596,-1.155 8.080996,-0.8656 9.524096,-0.7209 -4.6173,8.6586 -14.157696,10.7563 -21.497596,1.9246 2.732,9.3334 9.9339,10.9402 17.666096,5.7845 1.7528,2.022 1.5756,4.7391 1.8245,7.229 0.3881,3.9277 4.6011,7.3197 8.1257,8.3922 1.8853,-0.8642 4.1358,-2.8267 6.3336,-1.4756 4.1778,2.567 2.1491,6.2296 -1.6365,7.5428 -0.3056,1.1266 2.6144,6.6718 -0.7533,8.6126 -3.7329,2.1518 -10.3289,-1.9841 -12.2575,-5.1556 -0.9928,-1.6298 -1.5567,-3.1175 -2.8294,-4.6512 -3.1378,0.4923 -6.234996,1.2402 -9.241496,2.2627 1.4485,2.3317 4.1832,4.0993 6.663596,5.1556 -8.162196,2.3601 -10.434296,-3.5813 -9.492996,-10.4357 -3.6909,-0.0257 -7.3751,-1.4472 -8.2988,-5.4059 -0.5681,-2.4371 0.0784,-4.3861 0.8804,-6.5379 -2.6346,0.0609 -5.6547,15.1316 4.5254,14.0821 0.4491,1.4011 0.395,2.8983 0.6303,4.3387 -7.2818,8.4314 -6.074,18.3072 -4.0859,28.3521 2.4683,0.5612 7.1425,-8.7884 26.401796,-3.0174 5.6142,1.6825 6.7002,6.1714 11.0011,8.6126 1.8813,1.0671 7.7659,2.0003 10.122,2.452 -2.2479,4.3658 -6.7165,7.5766 -11.5042,8.5477 -6.4297,-19.8341 -20.6457,-19.4392 -36.964696,-12.1953 -0.6559,1.9651 -1.6933,3.5083 -2.7036,5.2801 -0.5099,0.8926 -1.9895,1.7812 -1.1956,2.8929 5.4248,0.5924 9.9272,1.2943 14.2092,4.965 5.2489,4.5024 10.281496,12.9148 12.890496,19.2674 0.7587,1.8448 1.2956,4.5511 2.2748,6.193 0.8562,1.435 6.6515,4.0899 8.7857,6.665 -4.4618,4.7134 -11.5542,4.3199 -17.4767,3.7721 6.4432,-15.6252 -4.906796,-32.5109 -20.683496,-36.0855 -1.5635,-0.3557 -3.488,-0.5897 -4.9649,0.188 -0.2448,0.5897 0.4869,0.7993 0.8791,0.8804 5.0488,1.0509 9.6973,2.2249 13.8926,5.4681 6.8017,5.2625 10.898296,15.0004 9.6419,23.6224 -0.0325,0.2489 -0.0771,0.4937 -0.1339,0.7358 -0.0474,0.2624 -0.0839,0.5288 -0.1407,0.7885 -0.0608,0.2691 -0.2028,0.5937 -0.3733,0.9413 -0.003,0.01 -0.009,0.0176 -0.0135,0.0271 -0.3827,0.7776 -0.9143,1.6852 -1.0901,2.4669 0.0203,0.2773 0.0217,0.5559 0.0108,0.8345 0.0257,0.0852 0.0339,0.1799 0.0825,0.2569 0.0623,0.1028 0.165,0.1907 0.2421,0.2868 0.4518,0.3029 0.8575,0.6532 1.2024,1.0522 0.0338,0.0216 0.0595,0.0473 0.0947,0.069 0.580196,0.1176 1.090096,0.3246 1.567496,0.568 2.5129,0.4369 4.8392,0.8345 7.3169,0.9021 0.1799,-0.0149 0.353,-0.0406 0.541,-0.0406 0.0433,0 0.0852,0.004 0.1285,0.007 0.5018,-0.1109 1.04,-0.1745 1.6176,-0.1745 0.0568,0 0.1081,0.007 0.1636,0.008 0.3719,-0.0487 0.7452,-0.1001 1.1117,-0.1691 0.7696,-0.3841 1.6676,-0.6208 2.6928,-0.6668 0.019,-0.005 0.0338,-0.0149 0.0528,-0.0203 0.1068,-0.096 0.2448,-0.1663 0.4301,-0.1663 0.001,0 0.001,0 0.003,0 0.5017,-0.1745 1.0035,-0.3503 1.4688,-0.5599 0.4044,-0.3138 0.871,-0.5667 1.3754,-0.7737 0.587,-0.5721 1.2294,-1.0576 1.9165,-1.4268 0.2259,-0.23 0.4274,-0.4734 0.6127,-0.7223 0.0919,-0.2055 0.2191,-0.3949 0.3313,-0.591 0.1867,-0.4693 0.2732,-0.9792 0.2394,-1.4701 -0.0108,-0.0379 -0.0338,-0.0798 -0.0487,-0.1191 -0.1001,-0.1082 -0.1542,-0.2488 -0.1704,-0.3962 -0.0757,-0.1407 -0.1569,-0.2827 -0.2502,-0.4261 -0.0838,-0.0784 -0.1434,-0.1704 -0.1785,-0.2786 -0.0122,-0.0176 -0.0203,-0.0324 -0.0311,-0.05 -0.2191,-0.0866 -0.3408,-0.2786 -0.3774,-0.4937 -0.096,-0.0744 -0.165,-0.1582 -0.2042,-0.2542 -0.234,-0.2611 -0.4828,-0.5248 -0.7601,-0.7899 -0.4531,-0.307 -0.8561,-0.6641 -1.1996,-1.0698 -0.0974,-0.0825 -0.1989,-0.1636 -0.2989,-0.2461 -0.5234,-0.2949 -0.9819,-0.6574 -1.3782,-1.0739 -0.0866,-0.0636 -0.1745,-0.1285 -0.261,-0.1934 -0.023,-0.0108 -0.0366,-0.0284 -0.0582,-0.042 -2.2221,-0.3462 -3.7504,-1.6567 -4.5917,-3.3365 -0.0689,-0.0555 -0.1514,-0.1177 -0.211,-0.1677 -0.0297,-0.1826 -0.0676,-0.3693 -0.1014,-0.5545 -0.234,-0.6425 -0.38,-1.3187 -0.4314,-2.0044 -2.7212,-10.9768 -11.743596,-24.9235 -26.574896,-27.427 1.3024,-1.9868 2.4466,-4.075 3.4569,-6.2241 14.453996,-3.2284 24.846396,-1.7339 29.213596,10.3533 0.3652,0.4598 0.6816,0.967 0.9237,1.5769 0.4274,1.0834 0.4247,2.2222 0.7547,3.3271 0.0338,0.1137 0.0338,0.1786 0.0379,0.2462 0.1123,-0.0135 0.2232,-0.0257 0.33,-0.0257 0.3422,0 0.633,0.0379 0.8886,0.1014 0.2164,-0.0094 0.4341,-0.0284 0.6519,-0.0459 0.1379,-0.0176 0.2799,-0.0271 0.4219,-0.0352 0.2895,-0.0311 0.5789,-0.0676 0.8683,-0.1177 0.001,0 0.003,-0.0013 0.004,-0.0013 0.0135,-0.0095 0.0216,-0.0149 0.0352,-0.0244 0.7844,-0.4923 1.9367,-0.8561 2.9254,-0.8236 0.2975,-0.1258 0.614,-0.2286 0.9454,-0.3098 0.2786,-0.1947 0.5612,-0.3868 0.8628,-0.5558 0.3517,-0.1975 0.7547,-0.3814 1.1699,-0.5437 1.4404,-0.9265 2.7699,-2.0098 3.8127,-3.0445 0.119,-0.1257 0.238,-0.2461 0.3597,-0.3638 0.1515,-0.1596 0.2976,-0.3165 0.4328,-0.472 1.8435,-2.095 2.8186,-4.7134 3.6409,-7.3575 -10e-4,-0.0203 0.003,-0.0406 0,-0.0608 -0.7506,-0.3449 -1.6162,-0.6411 -2.5224,-0.9197 z"
     stroke-width="1.35248" />
  <path
     id="ID0.5276073627173901"
     fill="#272525"
     d="m 86.371074,16.32246 -0.5654,0.188 c -2.5643,-4.336 -4.4943,-9.1319002 -8.173,-12.6984002 -3.3528,6.7502002 0.2069,12.8147002 6.4757,15.8416002 -0.0663,6.0131 -3.3528,12.0506 -6.1619,17.2252 -17.4281,32.1092 -52.6426,27.005 -62.4887,51.2996 -3.7315,9.209 -1.9841,15.1356 3.3325,23.0719 2.0964,3.1283 4.823,16.6951 -1.6351,15.843 -1.3863,-1.6311 2.2397,-6.4378 0.1258,-11.1918 -2.7483,-6.1808 -5.7724,-12.294 -5.721,-19.1727 0.0946,-12.7309 6.7326,-20.4347 16.5963,-27.5988 1.9949,-1.4485 8.081,-4.1467 10.5615,-5.092 8.0594,-3.0702 19.1322,-8.7736 25.524,-14.5216 7.6658,-6.8936 14.623,-19.0862 17.9176,-28.793 -10.3938,-4.048 -11.3094,-11.3635002 -6.1605,-20.36830022 6.0456,1.85830002 7.9986,10.95640022 10.3722,15.96730022 z"
     stroke-width="1.35248" />
  <path
     id="ID0.7556625967845321"
     fill="#272525"
     d="m 78.575374,20.53416 c -4.4321,0.9426 -7.77,3.8126 -9.0698,5.4207 2.5156,-0.0784 4.5417,-0.0216 6.1768,0.3638 -3.8978,2.6238 -6.9409,4.3523 -8.219,7.7322 0,0 2.7496,-0.7872 4.4483,-0.0636 -4.6836,2.4994 -6.523,5.1529 -8.3773,7.6848 2.8294,-0.9427 4.6133,-0.5667 4.4592,-0.0379 -2.4169,1.531 -3.7978,3.0512 -5.575,6.0578 0.775,-0.2759 3.7126,-0.7696 4.5133,-0.9278 -1.619,2.2789 -6.3175,3.9438 -9.04,4.2589 0.5423,-3.4988 3.4123,-4.5876 4.9663,-7.229 -0.8751,-0.2475 -2.6793,0.1826 -3.0174,-0.8804 1.3268,-2.7821 4.048,-4.6228 6.3486,-6.5379 -0.9874,-0.5694 -2.2546,0.0892 -3.2054,-0.5654 1.4809,-2.8267 4.1359,-4.7661 6.3485,-6.9774 -1.3525,-0.2326 -4.0858,-0.8791 -4.0858,-0.8791 1.98,-2.8943 9.6432,-11.4826 13.3287,-7.4197 z"
     stroke-width="1.35248" />
  <path
     id="ID0.7488490086980164"
     fill="#272525"
     d="m 112.27507,28.92356 c -1.512,1.4674 -7.1708,1.3444 -8.687,0.0717 1.4445,-3.6585 5.3937,-4.1616 7.8255,-1.2713 0.3652,0.4327 0.6938,0.6532 0.8615,1.1996 z"
     stroke-width="1.35248" />
  <path
     id="ID0.8082422497682273"
     fill="#ffffff"
     d="m 110.71167,28.73016 c -1.7082,0.4788 -3.5787,0.2691 -5.3166,0.1068 0.2542,-1.0319 1.4065,-1.7866 2.6319,-1.6987 1.0887,0.0785 2.2465,0.8994 2.6847,1.5919 z"
     stroke-width="1.35248" />
  <path
     id="ID0.2451589577831328"
     fill="#272525"
     d="m 106.18487,27.13156 c 0.403,0 0.7682,0.1339 1.0319,0.3516 0.2651,0.2164 0.4288,0.5167 0.4288,0.8467 0,0.33 -0.1637,0.6302 -0.4288,0.8466 -0.2637,0.2178 -0.6289,0.3517 -1.0319,0.3517 -0.403,0 -0.7682,-0.1339 -1.0319,-0.3517 -0.2651,-0.2164 -0.4288,-0.5166 -0.4288,-0.8466 0,-0.33 0.1637,-0.6303 0.4288,-0.8467 0.2637,-0.2177 0.6289,-0.3516 1.0319,-0.3516 z"
     stroke-width="1.35248" />
  <path
     id="ID0.8732371386140585"
     fill="#272525"
     d="m 113.07977,41.02966 c 0.3003,0.5572 -0.1366,1.1604 -0.7546,0.2515 -0.8332,-1.2253 -3.7478,-1.7325 -4.8027,-0.4314 -1.0549,1.3011 0.4463,3.3744 1.1239,4.428 0.6803,1.0549 -0.0798,2.0098 -1.1536,1.0955 -3.1824,-2.7104 -2.6631,-6.0672 -0.9833,-7.3196 2.0666,-1.5391 5.56,0.0987 6.5703,1.976 z"
     stroke-width="1.35248" />
  <path
     id="ID0.88188736140728"
     fill="#272525"
     d="m 17.405374,80.02026 c -4.2455,1.8245 -3.8505,-4.9501 -0.7858,-8.879 4.1683,-5.3423 15.3074,-8.6559 17.3442,-16.5449 2.705,-10.475 -10.5805,-17.9028 -15.8822,-8.3489 3.2717,-0.2962 9.0535,-1.0671 12.0601,0.2976 6.5717,2.9822 0.9521,13.6911 -11.8883,16.764 -6.8138,1.6311 -13.1420995,3.0579 -16.1080995,10.2369 -4.5335,10.9781 6.6786,15.398 14.2051995,8.1203 l 0.426,-0.1069 c 0.1988,1.577 -2.0112,3.6747 -3.0066,4.8311 -5.3746995,6.2539 -19.0185995,0.8669 -15.7279995,-10.0733 6.4311,-21.3854 32.6163995,-11.6286 32.9206995,-27.5148 0.0082,-0.422 -0.4382,-0.6289 -0.7614,-0.7169 -5.5993,-1.5134 -11.5218,0.3571 -16.6517,2.5968 -0.7155,-0.2286 -0.1691,-1.0969 -0.0595,-1.5405 5.2963,-12.3589 22.6526,-16.3542 23.0381,0.1515 0.3679,15.6387 -24.2297,22.554 -19.1227,30.727 z"
     stroke-width="1.35248" />
  <path
     id="ID0.8798830430023372"
     fill="#272525"
     d="m 15.110174,81.55266 c -3.5529,1.9976 -8.6449995,-1.4688 -9.8540995,-4.896 -1.1307,-3.2027 3.0079,-7.3305 5.5707995,-8.8398 3.1499,-1.8556 15.4656,-6.707 18.7251,-8.2488 -8.123,5.7507 -20.7239995,10.0909 -21.1689995,15.8565 -0.307,3.9695 2.7630995,5.4965 6.7271995,6.1281 z"
     stroke-width="1.35248" />
  <path
     id="ID0.43386388989165425"
     fill="#272525"
     d="m 74.300174,92.38866 c -0.7547,1.5081 -2.0747,2.6414 -3.457,3.5828 -3.9614,2.9565 -13.5951,9.1143 -28.2276,8.8019 -0.9602,-0.0203 -0.7547,-0.9413 -0.5653,-1.696 9.6959,-0.1907 22.443,-5.7846 30.6161,-12.198 1.132,-0.2489 1.132,0.8831 1.6338,1.5093 z"
     stroke-width="1.35248" />
  <path
     id="ID0.43685981072485447"
     fill="#272525"
     d="m 56.084974,147.96216 c -0.0528,-0.0541 -0.092,-0.1163 -0.1231,-0.184 -0.0162,-0.0203 -0.0352,-0.0311 -0.05,-0.0568 -0.4964,-0.8953 -1.0996,-1.7176 -1.6906,-2.5494 -4.9745,-4.5538 -16.0039,-7.0748 -19.9031,-12.2345 -1.596,-2.1126 -4.3699,-6.473 -4.7784,-9.0535 7.7362,-4.1386 15.8849,-16.7397 9.9327,-25.1454 -0.5275,-0.7452 -1.8435,-4.0669 -2.8916,-2.0111 5.4166,10.3032 -0.2273,21.0933 -10.2478,25.3969 1.3011,4.2346 2.916,7.9404 5.1557,11.7557 4.5808,7.8025 20.6618,8.2055 21.2488,15.4021 -4.5646,2.9565 -11.5759,4.9555 -16.4083,1.508 -0.0663,-5.4938 -2.3384,-9.37 -5.909,-13.3273 -1.5824,-1.7542 -10.6061,-8.6667 -12.5104,-9.6175 -0.5681,-0.2827 -0.8453,0.3408 -0.9427,0.756 0.2664,0.8453 0.8426,1.7961 1.6973,2.0734 3.8167,1.2415 13.3179,10.3302 14.4594,14.082 0.33,1.0806 0.2394,2.709 0.0568,4.359 -0.0365,1.4269 -0.1095,2.8632 -0.4463,4.1981 0.0081,0.009 0.0176,0.0108 0.0257,0.0217 0.3354,0.4287 1.4174,0.4639 1.9313,0.5978 0.9914,0.261 1.9787,0.5342 2.9606,0.8317 0.0703,0.0217 0.1231,0.0568 0.1758,0.092 1.3214,0.2516 2.6184,0.4247 3.9168,0.5518 0.0447,-0.009 0.0798,-0.0324 0.1299,-0.0324 0.6789,-0.005 1.3538,-0.0501 2.0287,-0.1272 0.027,-0.003 0.0446,0.007 0.069,0.007 0.0581,-0.007 0.1163,-0.0122 0.1731,-0.0189 0.0865,-0.0433 0.1866,-0.0731 0.307,-0.0731 0.05,0 0.0865,0.019 0.1312,0.0271 0.2299,-0.023 0.4585,-0.0433 0.6924,-0.0731 0.0609,-0.0175 0.1177,-0.0378 0.1907,-0.0378 0.0149,0 0.0257,0.007 0.0393,0.008 0.4233,-0.0555 0.8466,-0.1015 1.2699,-0.1691 0.1664,-0.0406 0.3328,-0.0662 0.5045,-0.0784 0.6871,-0.1177 1.3714,-0.2502 2.045,-0.4152 0.2542,-0.1042 0.5153,-0.1961 0.7885,-0.2543 0.0419,-0.01 0.0784,-0.001 0.1176,-0.001 0.0798,-0.05 0.1732,-0.0825 0.2841,-0.0919 0.0229,-0.01 0.0378,-0.0271 0.0635,-0.0325 0.3179,-0.0852 0.6357,-0.1677 0.9481,-0.2583 0.0528,-0.0203 0.1055,-0.0338 0.1569,-0.0541 0.0595,-0.0189 0.115,-0.046 0.1731,-0.0663 0.4017,-0.1542 0.798,-0.3205 1.1834,-0.5072 0.514,-0.3016 1.0239,-0.614 1.5554,-0.8642 0.3868,-0.4355 0.848,-0.8007 1.3241,-1.1171 0.0405,-0.1326 0.1298,-0.2381 0.2434,-0.3192 0.0217,-0.0974 0.0582,-0.1907 0.119,-0.2692 0.0744,-0.8453 -0.0013,-1.7244 -0.1974,-2.6278 z"
     stroke-width="1.35248" />
  <path
     id="ID0.46325125033035874"
     fill="#272525"
     d="m 61.575974,135.70056 c 0.0257,-0.0771 0.0379,-0.161 0.0866,-0.2259 0.0122,-0.0568 0.0298,-0.1082 0.0555,-0.1582 -0.023,-1.1605 -0.0866,-2.1505 -0.3679,-3.2379 -0.0122,-0.0473 -0.2137,-0.6113 -0.3233,-0.9738 -0.3043,-0.618 -0.6667,-1.2077 -1.1252,-1.7162 -0.4639,-0.4234 -0.9427,-0.8237 -1.4512,-1.1862 -0.0068,-0.005 -0.0311,-0.0216 -0.0339,-0.023 -1.3105,-0.6857 -2.2234,-0.9981 -3.8018,-1.4701 -1.274,-0.3801 -2.2491,-1.0225 -2.9957,-1.8056 -0.0352,-0.0189 -0.0676,-0.023 -0.1028,-0.0487 -0.0717,-0.0541 -0.1393,-0.1136 -0.2083,-0.1717 -0.0825,-0.0433 -0.1542,-0.0988 -0.2083,-0.1691 -0.1014,-0.0379 -0.188,-0.0933 -0.2515,-0.169 -3.6341,-1.6 -7.1465,-3.3812 -9.2699,-7.0938 3.6341,-1.7623 8.9101,-5.0921 10.3735,-13.3273 -0.8724,-1.0861 -2.0909,0.0622 -3.4583,0 -0.5843,5.6817 -5.1502,10.1801 -10.4357,11.9437 -0.0149,1.0063 1.1482,2.0869 1.6973,2.893 4.9379,7.2466 16.1108,8.5558 19.2999,14.7731 -3.2689,2.6779 -10.74,4.1521 -11.3635,2.1694 -2.8524,-9.0765 -9.9056,-15.6604 -12.0222,-16.3759 -0.8805,-0.2975 -1.2497,1.1808 -2.2627,1.1943 0.0473,1.2754 1.6135,1.9422 2.3885,2.7672 2.4709,2.6278 7.1749,7.3169 9.3077,11.373 0.2191,0.3557 0.4193,0.7195 0.537,1.1198 0.004,0.0136 0.0054,0.0271 0.0094,0.0392 0.0528,0.1285 0.0879,0.2516 0.1339,0.3774 0.1272,0.2448 0.2056,0.5099 0.2421,0.7939 0.0257,0.1041 0.046,0.2069 0.0704,0.3111 0.0797,0.0811 0.1338,0.1771 0.1636,0.2867 0.2191,0.1014 0.4287,0.1893 0.6451,0.2867 0.0501,0.0162 0.0961,0.0352 0.138,0.0622 0.1718,0.0771 0.3313,0.1312 0.5004,0.2002 0.0162,0.007 0.0325,0.0122 0.0487,0.0203 0.0325,0.0135 0.0622,0.0216 0.0947,0.0338 0.0987,0.0149 0.1853,0.0446 0.2556,0.0906 0.4585,0.1785 0.9116,0.349 1.3484,0.4829 1.3444,0.2813 2.6509,0.4544 3.9695,0.5518 0.0109,0 0.019,-0.007 0.0298,-0.007 0.6154,-0.0149 1.1848,-0.1407 1.7731,-0.3151 0.0068,-0.003 0.0122,10e-4 0.0203,-0.001 0.0108,-0.009 0.0257,-0.0135 0.0365,-0.023 0.1001,-0.1176 0.2529,-0.1934 0.4504,-0.2001 0.0798,-0.1136 0.1974,-0.2056 0.3814,-0.2408 0.7641,-0.1433 1.7961,-0.4666 2.7293,-0.8507 0.4287,-0.2137 0.8967,-0.449 1.3863,-0.7236 0.3503,-0.3705 0.7695,-0.6816 1.2253,-0.9562 0.0555,-0.1244 0.1474,-0.2353 0.284,-0.3002 z"
     stroke-width="1.35248" />
  <path
     id="ID0.4747530110180378"
     fill="#272525"
     d="m 98.467674,29.87976 c -1.8949,1.7434 -8.9873,1.5946 -10.8848,0.0852 1.8096,-4.3401 6.7583,-4.9365 9.8055,-1.5094 0.4598,0.5153 0.871,0.7764 1.0793,1.4242 z"
     stroke-width="1.35248" />
  <path
     id="ID0.00485910614952445"
     fill="#ffffff"
     d="m 96.509274,29.65116 c -2.1397,0.5681 -4.4862,0.3192 -6.6624,0.1258 0.3016,-1.1604 1.7583,-2.1044 3.2068,-2.0612 1.4417,0.042 2.8753,1.0658 3.4556,1.9354 z"
     stroke-width="1.35248" />
  <path
     id="ID0.09132309351116419"
     fill="#272525"
     d="m 91.229174,27.57916 c 0.4977,0 0.9494,0.1664 1.2754,0.4342 0.3273,0.2678 0.5288,0.637 0.5288,1.0454 0,0.4085 -0.2015,0.7777 -0.5288,1.0455 -0.326,0.2678 -0.7777,0.4342 -1.2754,0.4342 -0.4977,0 -0.9495,-0.1664 -1.2754,-0.4342 -0.3273,-0.2678 -0.5288,-0.637 -0.5288,-1.0455 0,-0.4084 0.2015,-0.7776 0.5288,-1.0454 0.3259,-0.2678 0.7777,-0.4342 1.2754,-0.4342 z"
     stroke-width="1.35248" />
</svg>
