<?xml version="1.0" encoding="UTF-8" standalone="no"?>
<svg
   id="Layer_2"
   data-name="Layer 2"
   viewBox="0 0 251.64021 641.92384"
   version="1.1"
   sodipodi:docname="Human_04.svg"
   width="251.64021"
   height="641.92383"
   xmlns:inkscape="http://www.inkscape.org/namespaces/inkscape"
   xmlns:sodipodi="http://sodipodi.sourceforge.net/DTD/sodipodi-0.dtd"
   xmlns="http://www.w3.org/2000/svg"
   xmlns:svg="http://www.w3.org/2000/svg">
  <sodipodi:namedview
     id="namedview346"
     pagecolor="#ffffff"
     bordercolor="#000000"
     borderopacity="0.25"
     inkscape:showpageshadow="2"
     inkscape:pageopacity="0.0"
     inkscape:pagecheckerboard="0"
     inkscape:deskcolor="#d1d1d1" />
  <defs
     id="defs4">
    <style
       id="style2">
      .cls-1 {
        fill: #372107;
      }

      .cls-2 {
        fill: #a22138;
      }

      .cls-3 {
        fill: #6c7580;
      }

      .cls-4 {
        fill: #48331c;
      }

      .cls-5 {
        fill: #010101;
      }

      .cls-6 {
        fill: #2d2113;
      }

      .cls-7 {
        fill: #341e05;
      }

      .cls-8 {
        fill: #0f3462;
      }

      .cls-9 {
        fill: #352007;
      }

      .cls-10 {
        fill: #351f05;
      }

      .cls-11 {
        fill: #321c04;
      }

      .cls-12 {
        fill: #675138;
      }

      .cls-13 {
        fill: #331d05;
      }

      .cls-14 {
        fill: #523a21;
      }

      .cls-15 {
        fill: #d7d7d7;
      }

      .cls-16 {
        fill: #6b543b;
      }

      .cls-17 {
        fill: #331d04;
      }

      .cls-18 {
        fill: #6d7581;
      }

      .cls-19 {
        fill: #3c7278;
      }

      .cls-20 {
        fill: #513a22;
      }

      .cls-21 {
        fill: #020202;
      }

      .cls-22 {
        fill: #010202;
      }

      .cls-23 {
        fill: #49321a;
      }

      .cls-24 {
        fill: #6e7783;
      }

      .cls-25 {
        fill: #6a533a;
      }

      .cls-26 {
        fill: #080604;
      }

      .cls-27 {
        fill: #050403;
      }

      .cls-28 {
        fill: #3d270e;
      }

      .cls-29 {
        fill: #3b250c;
      }

      .cls-30 {
        fill: #0f3768;
      }

      .cls-31 {
        fill: #331e05;
      }

      .cls-32 {
        fill: #351e04;
      }

      .cls-33 {
        fill: #533b21;
      }

      .cls-34 {
        fill: #382108;
      }

      .cls-35 {
        fill: #215960;
      }

      .cls-36 {
        fill: #3f2911;
      }

      .cls-37 {
        fill: #6c7581;
      }

      .cls-38 {
        fill: #3a240c;
      }

      .cls-39 {
        fill: #351e05;
      }

      .cls-40 {
        fill: #53422e;
      }

      .cls-41 {
        fill: #341d04;
      }

      .cls-42 {
        fill: #594732;
      }

      .cls-43 {
        fill: #392209;
      }

      .cls-44 {
        fill: #372108;
      }

      .cls-45 {
        fill: #6a727e;
      }

      .cls-46 {
        fill: #3e280f;
      }

      .cls-47 {
        fill: #49351e;
      }

      .cls-48 {
        fill: #442f17;
      }

      .cls-49 {
        fill: #341e04;
      }

      .cls-50 {
        fill: #060503;
      }

      .cls-51 {
        fill: #402a12;
      }

      .cls-52 {
        fill: #4c3922;
      }

      .cls-53 {
        fill: #61503c;
      }

      .cls-54 {
        fill: #8d959e;
      }

      .cls-55 {
        fill: #959ca5;
      }

      .cls-56 {
        fill: #55432d;
      }

      .cls-57 {
        fill: #d3d3d3;
      }

      .cls-58 {
        fill: #331c02;
      }

      .cls-59 {
        fill: #47331b;
      }

      .cls-60 {
        fill: #47321b;
      }

      .cls-61 {
        fill: #422c15;
      }

      .cls-62 {
        fill: #362006;
      }

      .cls-63 {
        fill: #3d280f;
      }

      .cls-64 {
        fill: #5c4a35;
      }

      .cls-65 {
        fill: #030303;
      }

      .cls-66 {
        fill: #331c03;
      }

      .cls-67 {
        fill: #331d03;
      }

      .cls-68 {
        fill: #362007;
      }

      .cls-69 {
        fill: #351f06;
      }

      .cls-70 {
        fill: #8d1d30;
      }

      .cls-71 {
        fill: #3c7178;
      }

      .cls-72 {
        fill: #685239;
      }

      .cls-73 {
        fill: #5f4e39;
      }

      .cls-74 {
        fill: #c2c4c6;
      }

      .cls-75 {
        fill: #604f3b;
      }

      .cls-76 {
        fill: #0b274a;
      }

      .cls-77 {
        fill: #382209;
      }

      .cls-78 {
        fill: #341d03;
      }

      .cls-79 {
        fill: #341e06;
      }

      .cls-80 {
        fill: #3b2710;
      }

      .cls-81 {
        fill: #3b7178;
      }

      .cls-82 {
        fill: #a94053;
      }

      .cls-83 {
        fill: #2f1b04;
      }

      .cls-84 {
        fill: #39230a;
      }

      .cls-85 {
        fill: #020101;
      }

      .cls-86 {
        fill: #372007;
      }

      .cls-87 {
        fill: #39240b;
      }

      .cls-88 {
        fill: #dadada;
      }

      .cls-89 {
        fill: #0f3666;
      }

      .cls-90 {
        fill: #361f05;
      }

      .cls-91 {
        fill: #a1a1a1;
      }

      .cls-92 {
        fill: #53402a;
      }

      .cls-93 {
        fill: #3e2810;
      }

      .cls-94 {
        fill: #5a4833;
      }

      .cls-95 {
        fill: #0f386a;
      }

      .cls-96 {
        fill: #030102;
      }

      .cls-97 {
        fill: #20575e;
      }

      .cls-98 {
        fill: #321c03;
      }

      .cls-99 {
        fill: #351e06;
      }

      .cls-100 {
        fill: #5a7e83;
      }

      .cls-101 {
        fill: #0d2f59;
      }

      .cls-102 {
        fill: #0d2e58;
      }

      .cls-103 {
        fill: #584631;
      }

      .cls-104 {
        fill: #422d15;
      }

      .cls-105 {
        fill: #361f06;
      }

      .cls-106 {
        fill: #3a240b;
      }

      .cls-107 {
        fill: #4f3b25;
      }

      .cls-108 {
        fill: #553c22;
      }

      .cls-109 {
        fill: #3c270e;
      }

      .cls-110 {
        fill: #030202;
      }

      .cls-111 {
        fill: #584732;
      }
    </style>
  </defs>
  <g
     id="Layer_1-2"
     data-name="Layer 1"
     transform="translate(0.01038012,-0.00310174)">
    <path
       class="cls-5"
       d="m 46.79,640.35 c -5.25,-0.14 -10.2,-0.82 -15.49,-2.85 -6.5,-2.48 -8.82,-4.82 -9.59,-11.99 -1.64,-15.31 2.53,-31.59 16.48,-39.59 0.78,-5.49 -1.86,-9.94 -2.71,-15.19 -8.17,-50.79 -3.95,-102.08 -0.88,-153.05 -0.68,-5.73 -7.27,-1.75 -10.34,-2.48 -0.53,-0.13 -0.42,-1.24 -0.96,-1.38 -4.02,-1.06 -9.47,-2.88 -13.16,-5.5 C 2.48,402.9 -0.69,390.06 0.11,381.12 1.09,370.23 7.6,359.91 7.21,349.39 7.08,345.9 5.89,341.42 5.75,337.9 c -1.09,-28.16 5.6,-56.25 13.34,-83.11 0.77,-2.67 3.75,-9.35 3.85,-11.3 0.04,-0.74 -5.42,-5.06 -3.42,-8.38 7.42,-40.35 8.12,-69.25 49.8,-86.91 3.45,-1.46 22.33,-7.51 22.78,-9.6 0.24,-1.1 -6.87,-5.53 -8.28,-6.79 -8.21,-7.33 -10.09,-13.11 -15.56,-21.84 -4.29,-6.84 -7.67,-8.26 -9.74,-17.59 -1.58,-7.11 0.19,-7.38 0.56,-12.74 0.16,-2.37 -1.03,-4.59 -0.81,-7.18 0.26,-3.07 2.9,-4.87 2.96,-7.17 0.08,-3.36 -2.18,-6.89 -1.42,-12.19 0.66,-4.56 4.19,-5.24 4.84,-7.42 0.65,-2.18 -0.9,-6.78 -0.59,-9.92 0.55,-5.63 5.25,-12.35 10.28,-14.9 1.06,-0.54 2.73,-0.33 3.24,-0.69 0.54,-0.38 1.18,-4.5 1.77,-5.79 2.2,-4.85 10.04,-9.3 15.29,-9.24 1.92,0.02 3.86,1.33 4.31,1.3 0.38,-0.03 4.8,-3.74 6.18,-4.4 5.36,-2.58 10.9,-3.09 15.72,0.72 0.65,0.51 0.64,1.84 1.11,1.72 3.24,-0.81 4.9,-4.37 10.8,-4.37 5.43,0 8.74,4.06 10.91,4.26 1.48,0.13 4.51,-3.84 10.51,-2.59 3.95,0.82 7.02,6.2 7.5,6.32 4.66,1.13 10.5,-1.3 15.98,1.84 4.83,2.77 2.64,6.57 4.01,8.94 0.61,1.05 5.05,3.2 6.98,6.69 2.45,4.43 2.81,4.81 5.61,8.77 3.4,4.81 0.79,6.34 1.53,9.2 0.37,1.43 3.66,3.26 4.18,6.68 0.54,3.61 -1.06,4.63 -1.24,6.55 -0.09,0.98 1.12,2.54 1.31,4.17 0.33,2.92 -0.91,5.99 -0.73,7.91 0.14,1.57 2.49,3.46 2.83,5.83 0.38,2.63 -0.77,4.51 -0.65,6.38 0.1,1.68 1.77,3.18 2.08,5.11 1.26,7.67 -4.02,19.72 -10.96,23.5 -1.03,0.56 -2.62,0.3 -3.22,0.72 -0.6,0.42 -5.6,10.84 -6.87,12.55 l -15.46,14.25 c -0.02,0.27 2.6,4.19 2.97,4.46 3.39,2.49 16.33,6.47 21.39,9.19 22.77,12.25 32.69,29.42 40.98,53.25 2.56,7.36 7.31,23.55 7.21,30.93 -0.05,3.88 -2.46,3.13 -3.31,4.68 -0.85,1.55 4.76,15.14 5.63,18.16 7.69,26.61 11.13,61.81 9.15,89.37 -0.31,4.39 -2.17,10.17 -2.15,14.39 0.01,2.74 1.5,6.56 1.5,9.35 0,7.57 -4.39,24.99 -10.1,30.24 -4.12,3.79 -6.61,1.16 -10.87,2.91 1.63,13.14 3.8,26.33 5.08,39.51 4.04,41.79 5.31,92.76 0.63,134.41 -0.56,5.04 -0.91,11.75 -4.22,15.55 14.03,6.54 17.76,25.14 12.45,38.71 -0.48,1.24 -0.59,1.72 -1.68,2.64 -4.44,3.77 -21.94,6.54 -28.03,6.85 l -7.19,-0.72 c -10.03,-0.59 -27.25,-4.23 -35.18,-10.49 -1.47,-1.16 -3.38,-4.1 -3.86,-4.41 -1.6,-1.04 -6.29,-0.72 -8.48,-1.24 -6.62,-1.57 -11.69,-7.7 -12.2,-14.46 -0.19,-2.49 -0.53,-7.03 -0.57,-9.32 -0.04,-2.29 1.25,-5.8 0.6,-8.49 -0.15,-0.63 -2.25,-1.1 -3.07,-2.85 -2.79,-5.97 -1.14,-36 -1.24,-44.8 -0.53,-46.27 0.62,-93.24 -6.12,-139.18 -1.44,-5.15 -2.05,-12.07 -4.49,-2.28 -3.52,14.11 -3.73,27.28 -5.25,41.5 -4.82,45.22 -8.69,89.66 -7.94,135.26 0.04,2.71 1.51,4.41 0.21,7.34 -0.44,1 -1.93,1.88 -2.04,2.66 -0.73,5.27 -0.32,12.63 -0.26,17.99 0.08,8.2 -0.24,11.72 -8.44,15.36 -3.7,1.64 -8.7,1.18 -10.25,1.96 -1.55,0.78 -4.46,3.7 -6.58,4.95 -10.27,6.07 -18.83,9.05 -30.87,9.77 -1.35,0.64 -2.95,0.59 -4.32,0 -0.48,0.02 -0.96,-0.01 -1.44,0 -2.59,0.66 -5.31,0.65 -7.91,0 z"
       id="path6" />
    <path
       class="cls-91"
       d="m 54.7,640.35 c -1.68,1.2 -6.09,1.23 -7.91,0 2.61,0.07 5.3,0.07 7.91,0 z"
       id="path8" />
    <path
       class="cls-54"
       d="m 213.67,641.78 c -2.15,0.11 -5.62,0.5 -7.19,-0.72 2.3,0.13 5.49,-0.69 7.19,0.72 z"
       id="path10" />
    <path
       class="cls-15"
       d="m 60.46,640.35 c -0.68,1.16 -3.59,1.18 -4.32,0 1.43,-0.06 2.89,0.08 4.32,0 z"
       id="path12" />
    <path
       class="cls-19"
       d="m 53.26,569.85 c -1.88,0.83 -3,0.83 -3.36,0 -6.03,-39.68 -3.6,-83.59 -1.1,-124.61 1.79,-29.36 3.93,-60.06 10.12,-88.42 4.63,0.09 9.34,0.88 14.13,2.37 43.12,5.48 86.79,10.76 127.44,-5.01 0.55,-0.05 1.01,0.13 1.48,0.38 2.79,1.54 6.79,24.69 7.16,26.87 10.98,63.67 21.29,127.58 11.75,192.62 -3.58,-0.26 -7.19,-0.46 -10.82,-0.59 l -1.2,1.16 c -13.14,-2.46 -28.46,-5.02 -41.25,-0.39 l -1.43,-0.77 c -2.5,1.86 -5.45,2.45 -5.55,-1.83 1.78,-38.93 3.18,-78.68 2.04,-118.06 -0.55,-19.11 -1.34,-39.04 -8.9,-56.34 l 0.19,-2.88 c 2.71,-0.97 2.33,-1.79 3.6,-3.6 l -0.44,-1.55 c 2.49,-1.94 0.65,-5.26 -2.19,-5.7 -14.47,1.67 -28.78,2.27 -42.93,1.79 1.17,1.82 1.25,3.16 0.24,4.02 0.4,1.4 1.23,3.48 1.44,4.32 l 1.73,1.4 c 0.54,8.73 -0.05,17.47 -1.76,26.23 -8.85,46.6 -12.31,95.66 -11.52,143.9 0.97,4.75 2.41,14.31 -5,9.02 -11.47,-9.2 -30.51,-8.83 -43.88,-4.32 z"
       id="path14" />
    <path
       class="cls-35"
       d="m 53.26,569.85 c -2.06,0.7 -8.23,4.87 -9.1,4.96 -1.06,0.1 -1.15,-0.36 -1.54,-1.16 C 41.28,570.89 40,556.31 39.59,552.22 34.08,497.26 39.35,443.84 43.27,389.03 l 6.75,-41.46 c 0.68,-1.09 0.89,-0.39 1.61,-0.2 6.02,1.6 11.99,5.38 17.78,7.43 31.89,11.34 97.74,10.06 129.33,-2.36 1.63,-0.64 10.03,-5.29 10.59,-4.86 5.72,15.62 9.67,33.17 12.61,49.61 9.58,53.5 12.25,120.33 7.53,174.44 -0.18,2.04 -1.82,15.37 -2.27,16.06 -1.61,2.49 -7.28,-0.5 -9.22,-0.96 -3.81,-0.91 -7.64,-1.92 -11.52,-2.51 -2.59,-0.72 -4.96,-1.77 -7.09,-3.14 -0.15,-1.61 -0.43,-3.21 -0.83,-4.77 l 1.06,-1.49 c 5.64,1.01 11.16,2.62 16.54,4.85 8.95,2.11 -2.46,-4.02 -5.71,-4.59 l -0.38,-1.64 c 3.93,-1.85 6.16,-1.76 10.07,0 4.49,-45.05 3.54,-90.65 -2.98,-135.48 -3.25,-22.4 -7.55,-48.34 -12.34,-70.38 -0.42,-1.94 -2.47,-11.69 -3.8,-12.02 -0.92,-0.23 -15.4,4.82 -18.13,5.48 -35.42,8.55 -56.14,5.51 -91.23,1.02 -6.6,-0.84 -13.38,-0.58 -19.95,-1.63 -4.19,-0.67 -7.82,-2.38 -11.97,-2.78 -4.18,17.32 -4.83,35.11 -6.56,52.78 -4.55,46.33 -6.73,93.58 -4.26,140.38 0.26,4.95 1.07,12.5 2.16,17.29 0.42,1.83 -0.68,1.98 2.18,1.74 z"
       id="path16" />
    <path
       class="cls-35"
       d="m 153.96,394.35 c 5.44,10.48 7.6,22.43 8.62,34.17 3.21,36.84 1.82,73.91 0.73,110.77 -0.34,11.43 -0.11,22.78 -1.45,34.16 h 4.32 c 0.73,1.11 0.29,2.38 -1.32,3.8 2.77,-1.11 5.78,-2.07 9.05,-2.89 l 1.62,1.23 c 2.88,2.43 -2.36,6.82 -5.04,7.91 -3.82,0.91 -15.03,6.68 -17.94,5.39 -0.91,-0.4 -3.47,-2.53 -3.64,-3.59 -1.69,-33.75 -0.12,-67.66 -0.68,-101.46 -0.36,-22.08 -0.55,-44.84 -3.73,-66.76 -1.02,-7.06 -2.54,-14.03 -4.22,-20.95 4.38,-0.85 9.42,-0.28 13.68,-1.81 z"
       id="path18" />
    <path
       class="cls-35"
       d="m 113.68,393.63 c 4.52,1.38 8.91,2.94 13.68,3.25 -1.64,7.8 -3.91,15.92 -4.96,23.81 -6.09,45.61 -9.31,96.56 -9.41,142.31 0,3.46 0.53,21.07 -0.73,22.35 -3.61,3.66 -22.18,-2.88 -27.35,-3.97 -4.95,-2.3 -1.99,-4.85 2.08,-5.5 l 5.11,-0.98 c 2.43,0.06 3.31,-0.47 5.04,-0.72 1.33,-0.19 2.94,0.14 4.32,0 0.57,-3.08 -0.66,-6.1 -0.75,-8.96 -1.19,-35.29 2.04,-74.84 5.87,-109.99 1.6,-14.62 10.08,-49.42 7.1,-61.59 z"
       id="path20" />
    <path
       class="cls-35"
       d="m 157.56,390.75 c -0.68,-1.57 -1.54,-2.05 -3.22,-2.21 -4.86,-0.48 -13.9,2.01 -19.41,2.24 -2.85,0.12 -6.49,0.18 -9.29,-0.12 -4.63,-0.49 -9.79,-4.32 -13.4,-1.35 -0.49,-1.7 -4.01,-5.47 1.16,-5.72 3.82,-0.19 9.14,0.85 13.62,0.71 9.35,-0.29 18.68,-2.17 28.06,-2.23 3.25,0.61 5.39,3.18 4.32,6.56 -0.43,1.36 -1.45,1.54 -1.84,2.11 z"
       id="path22" />
    <path
       class="cls-71"
       d="m 198.56,576.33 c 0.29,0.11 3.5,2.32 3.59,2.52 l -2.15,1.07 6.47,4.33 c -10.78,-1.63 -25.45,-3.23 -35.96,-0.72 1.59,-2.65 4.52,-4.78 5.04,-7.91 0,-0.35 0.05,-0.69 0.19,-0.98 0.67,-1.33 19.32,-0.75 22.13,0.02 0.48,0.13 0.61,1.05 0.69,1.68 z"
       id="path24" />
    <path
       class="cls-81"
       d="m 92.1,574.89 c -2.3,2.24 -5.8,2.37 -8.63,3.61 l 1.44,2.87 c -5.61,-1.19 -11.98,-1.34 -17.26,-2.88 l -2.88,-0.72 c 1.32,-2.77 3.96,-4.44 7.91,-5.04 7.4,-0.17 12.79,2 19.42,2.16 z"
       id="path26" />
    <path
       class="cls-97"
       d="m 72.68,572.73 c -2.49,1.91 -5.1,3.62 -7.91,5.04 -0.29,0.38 -0.77,0.62 -1.44,0.72 -5.85,-0.35 -8.73,-0.85 -14.42,1.76 -1.01,0.46 -1.95,1.61 -2.49,1.83 -1.59,0.64 -1.35,-0.91 0.14,-2.03 7.01,-5.27 17.56,-7.12 26.13,-7.32 z"
       id="path28" />
    <path
       class="cls-100"
       d="m 64.77,577.77 c 1.33,-0.56 2.2,0.52 2.88,0.72 -1.43,-0.06 -2.89,0.09 -4.32,0 0.32,-0.61 1.02,-0.51 1.44,-0.72 z"
       id="path30" />
    <path
       class="cls-88"
       d="m 222.3,625.24 c -10.35,2.41 -20.39,0.16 -29.56,-4.85 -9.76,-5.51 -19.49,-10.86 -29.18,-16.03 -2.84,-2.16 -6.64,-8.34 -3.12,-10.77 1.75,-0.57 12.39,-4.74 12.93,-4.32 0.25,0.19 0.98,3.81 2.92,5.37 1.94,1.56 4.37,1.44 6.24,2.39 1.87,0.95 2.7,3.03 5.19,3.45 2.27,0.38 4.92,-1.32 6.85,-1.11 1.04,0.11 1.84,1.19 2.95,1.4 6.86,1.31 12.5,-7.91 16.49,-7.95 3.33,-0.03 14.93,6.59 17.64,9.04 3.97,3.6 7.55,10.35 6.47,15.84 -0.65,3.3 -12.36,7.29 -15.83,7.55 z"
       id="path32" />
    <path
       class="cls-88"
       d="m 102.17,592.15 c 2.24,2.37 -0.02,9.4 -1.96,12.04 -14.61,8.88 -31.3,16.46 -48.39,19.61 -5.26,0.12 -19.81,0.02 -22.61,-5.09 -3.97,-7.25 4.88,-25.4 13.06,-27.11 11.31,-2.37 17.4,10.87 24.23,10.58 4.97,-0.21 4.24,-3.83 4.75,-4.27 1,-0.89 2.56,2.58 4.52,2.08 2.19,-0.56 3.18,-4.65 3.49,-4.85 2.09,-1.29 9.04,1.56 7.81,-6.58 5.04,1.17 10,2.68 15.1,3.6 z"
       id="path34" />
    <path
       class="cls-55"
       d="m 160.44,593.59 c -0.77,10.8 9.54,12.14 17.03,16.42 15.31,8.76 25.57,16.68 44.83,15.23 -10.89,4.18 -27.4,1.17 -37.89,-3.47 -5.77,-2.55 -11.24,-8.11 -16.12,-10.49 -5.05,-2.46 -14.87,-1.95 -15.77,-9.4 -1.02,-8.43 1.61,-6.23 7.93,-8.29 z"
       id="path36" />
    <path
       class="cls-55"
       d="m 102.17,592.15 c 2.81,0.5 5.75,0.86 8.63,0.72 0.32,0.9 -0.7,1.35 -0.72,1.43 -0.63,1.13 -0.49,2.45 0,3.6 -2.04,9.7 -5.05,7.4 -12,10.66 -17.4,8.16 -25.01,14.76 -46.26,15.23 3.43,-1.18 6.73,-2.79 10.23,-3.8 9.91,-2.87 11.14,-3.76 19.97,-8.08 4.57,-2.24 16.2,-5.84 18.04,-10.01 1.21,-2.75 1.42,-6.77 2.11,-9.75 z"
       id="path38" />
    <path
       class="cls-24"
       d="m 27.38,625.96 c 0.15,-0.21 3.63,1.88 4.63,2.19 19.37,6.1 44.69,-0.28 62.25,-9.39 0.32,1.87 -0.66,2.49 -1.8,3.59 -12.01,11.49 -38.07,14.77 -53.58,11.16 -2.21,-0.51 -14.39,-3.56 -11.5,-7.56 z"
       id="path40" />
    <path
       class="cls-37"
       d="m 199.28,633.87 c -0.63,-0.45 -0.39,-0.69 0.72,-0.72 0.89,0.14 4.94,0.72 5.39,0.72 h 10.79 c 1.58,0 9.44,-2.22 11.52,-2.87 3.6,-1.11 6.98,-2.84 10.41,-4.33 3.26,4.56 -11.86,7.29 -14.25,7.69 -9.27,1.51 -15.45,0.94 -24.59,-0.49 z"
       id="path42" />
    <path
       class="cls-45"
       d="m 200,633.15 -0.72,0.72 c -6,-0.94 -13.12,-2.3 -18.69,-4.69 -2.9,-1.24 -7.7,-3.25 -7.92,-6.82 3.59,1.72 7.16,4.59 10.79,6.1 4.69,1.96 11.55,3.88 16.53,4.69 z"
       id="path44" />
    <path
       class="cls-18"
       d="m 99.3,615.18 11.5,-4.32 c 0.78,3.58 -1.97,5.63 -4.79,7.06 -4.65,2.36 -3.8,1.01 -6.71,-2.74 z"
       id="path46" />
    <path
       class="cls-3"
       d="m 165.48,616.62 c 0.43,7.63 -14.11,-1.88 -12.23,-3.6 z"
       id="path48" />
    <path
       class="cls-30"
       d="m 52.54,588.56 c 5.51,1.51 12.08,2.81 14.39,8.98 -3.5,0.64 -6.71,-3.95 -9.41,-5.7 -1.61,-1.04 -3.26,-1.76 -4.99,-2.57 -0.51,-0.21 -0.5,-0.45 0,-0.72 z"
       id="path50" />
    <path
       class="cls-30"
       d="m 64.05,584.96 c 5.07,1.13 10.58,3.62 11.5,9.35 -4.58,-4.34 -8.38,-6.87 -14.38,-8.63 0.01,-0.77 0.97,-1.01 2.88,-0.72 z"
       id="path52" />
    <path
       class="cls-95"
       d="m 197.84,590 -4.36,4.61 -5.7,1.13 c -1.15,-0.99 6.47,-5.85 7.24,-6.11 1.19,-0.4 1.75,0.19 2.82,0.37 z"
       id="path54" />
    <path
       class="cls-89"
       d="m 186.33,588.56 c -1.48,3.72 -6.93,5.24 -8.62,1.06 -0.6,-1.48 0.99,-1.01 1.78,-1.07 2.26,-0.16 4.59,0.11 6.84,0 z"
       id="path56" />
    <path
       class="cls-8"
       d="m 82.75,591.43 c -3.42,-0.66 -4.94,-1.93 -6.47,-5.03 3.12,-0.43 6.26,1.76 6.47,5.03 z"
       id="path58" />
    <path
       class="cls-101"
       d="m 206.47,591.44 -6.47,4.3 c -0.61,-0.55 5.04,-4.84 6.47,-4.3 z"
       id="path60" />
    <path
       class="cls-102"
       d="m 64.05,584.96 -2.88,0.72 c -1.24,-0.36 -3.96,-0.27 -4.31,-1.43 2.73,-0.43 4.78,0.17 7.19,0.71 z"
       id="path62" />
    <path
       class="cls-76"
       d="m 52.54,588.56 v 0.72 c -1.41,-0.66 -3.04,-0.93 -4.32,-1.8 1.44,-1.25 3.39,0.82 4.32,1.08 z"
       id="path64" />
    <path
       class="cls-74"
       d="m 110.09,597.91 c -1.13,-0.47 -1.13,-3.12 0,-3.6 -0.16,1.11 0.22,2.57 0,3.6 z"
       id="path66" />
    <path
       class="cls-22"
       d="m 210.07,573.45 c 1.55,0.45 8.93,3.39 9.75,4.28 1.32,1.43 2,3.7 -0.33,3.96 -3.84,0.44 -15.75,-6.11 -20.92,-5.36 -3.35,-1.27 -18.79,-1.12 -23.02,-0.72 -4.89,0.46 -9.36,2.9 -13.66,5.04 -0.83,-1.08 3.32,-6.44 4.31,-7.19 7.23,-5.48 34.93,-2.62 43.88,0 z"
       id="path68" />
    <path
       class="cls-108"
       d="m 165.47,144.75 c -0.37,0.93 -0.83,1.96 -1.72,2.42 -16.63,8.62 -37.36,9.4 -55.1,5.49 -2.24,-0.92 -12.26,-5.85 -12.94,-7.56 -0.54,-1.35 3.43,-2.06 4.08,-3.08 17.35,9.73 36.88,8.57 55.09,1.84 5.08,-1.88 8.17,-6.73 10.6,0.89 z"
       id="path70" />
    <path
       class="cls-25"
       d="m 165.47,144.75 c 0.87,2.74 0.21,2.73 -2.38,4.45 -15.83,10.54 -37.26,10.52 -54.45,3.46 0.7,-1.42 2.42,-0.38 3.46,-0.23 17.97,2.47 37.25,1.1 53.37,-7.68 z"
       id="path72" />
    <path
       class="cls-2"
       d="m 212.23,240.42 c -7.11,1.16 -9.69,0.9 -11.42,-6.92 -4.59,-20.77 -2.09,-37.91 -14.1,-57.83 -1.74,-2.88 -6.85,-9.81 -8.72,-2.88 -0.36,1.36 5.19,9.98 6.31,12.48 4,8.91 6.17,18.66 7.69,28.27 1.09,6.93 1.03,19.55 3.32,25.45 1.43,3.69 7.39,9.58 9.64,14.1 5.56,11.15 8.36,26.37 9.43,38.76 0.81,9.42 2.28,37.05 -1.37,44.65 -1.07,2.24 -11.37,7.56 -14.19,8.82 -8.76,3.93 -17.45,5.81 -26.87,7.3 -3.26,-1.47 -0.36,-2.79 1.67,-3.72 6.39,-2.93 13.13,-1.48 19.21,-6.69 3.43,-2.93 10.4,-13.52 10.79,-17.98 1.61,-18.27 -2.35,-40.33 -7.75,-57.76 -2.91,-9.4 -8.74,-19.88 -10.77,-28.79 -2.03,-8.91 -1.69,-20.65 -3.3,-30.51 -1.02,-6.23 -2.73,-12.59 -4.31,-18.71 -1.53,-5.94 -5.34,-11.63 -3.01,-17.81 2.15,-5.67 5.32,-4.73 9.6,-1.74 11.67,8.15 20.26,38.25 23.61,51.92 1.6,6.52 1.89,13.37 4.53,19.57 z"
       id="path74" />
    <path
       class="cls-82"
       d="M 44.63,241.14 C 38.66,239.49 32.46,238.42 26.6,236.39 L 32.01,203 c 3.71,-14.4 10.1,-30.42 22.44,-39.41 10.3,-7.51 24.09,-11.49 35.99,-15.81 10.62,8.51 22.23,13.49 35.83,14.96 13.6,1.47 21.41,0.28 33.41,-5.41 4.81,-2.28 8.39,-4.76 12.47,-8.11 15.02,5.93 31.89,14.24 40.8,28.26 10.46,16.45 16.82,37.35 20.11,56.46 -6.63,2.44 -13.84,5.36 -20.85,6.5 -2.21,-1.2 -3.43,-3.61 -3.65,-7.22 -2.5,-15.33 -13.03,-57.92 -27.03,-64.42 -10.05,-4.67 -5.18,15.31 -2.66,19.33 3.95,16.86 6.09,32.12 7.62,49.26 11.22,28.42 21.02,56.37 18.44,87.75 -0.24,2.87 -3.6,8.38 -5.27,10.87 -6.11,9.11 -11.26,11.68 -22.14,13.08 -3.25,0.5 -5.12,1.69 -5.6,3.57 -25.8,4.07 -47.56,4.09 -73.37,1.44 l -9.59,-3.42 c -13.55,-2.93 -27.52,-8.28 -35.61,-20.35 0.26,-8.81 0.65,-17.63 1.48,-26.4 2.02,-21.24 6.97,-38.95 12.9,-58.85 0.51,-20.63 2.63,-41 6.54,-61.33 1.43,-5.67 1.22,-15.07 -6.36,-14.71 -5.49,0.26 -10.81,15.23 -12.06,20.34 -4.06,16.6 -7.59,33.11 -10.03,50.02 l -1.22,1.77 z"
       id="path76" />
    <path
       class="cls-96"
       d="m 155.4,238.26 c 2,0.42 7.12,0.94 5.06,3.98 -6.46,0.51 -13.26,-1.45 -19.81,-1.81 -8.05,-0.45 -17.82,-0.2 -25.8,0.8 -3.84,0.48 -20.66,4.72 -22.74,2.79 -0.58,-1.01 -0.89,-1.71 -0.13,-2.73 4.02,-5.36 54.72,-8.47 63.42,-3.03 z"
       id="path78" />
    <path
       class="cls-2"
       d="m 155.4,238.26 c -17.47,-3.65 -44.46,-1.38 -61.76,3.37 -1.85,0.51 -1.75,0.28 -1.54,2.39 -6.41,-5.94 15.88,-8.38 18.35,-8.62 12.18,-1.2 28.63,-2.63 40.23,0.76 1.59,0.47 3.42,1.06 4.72,2.11 z"
       id="path80" />
    <path
       class="cls-2"
       d="m 98.58,354.06 c -17.55,-1.8 -29.76,-5.47 -45.8,-12.82 -7.2,-3.3 -8.57,-3.79 -9.49,-12.09 -2.14,-19.38 0.91,-44.33 6.58,-63 1.79,-5.9 9.2,-18.7 9.73,-22.7 0.33,-2.48 -0.75,-5.49 -0.61,-8.46 0.71,-15.79 3.8,-34.71 8.47,-49.79 1.02,-3.3 8.51,-16.81 0.69,-14.43 -3.54,1.07 -8.11,18.62 -9.08,22.59 -4.01,16.45 -5.98,33.71 -5.81,50.65 -2.89,-0.96 -5.68,-2.06 -8.63,-2.87 2.49,-17.14 4.41,-34.61 9.56,-51.22 1.31,-4.21 7.22,-20.84 11.09,-21.99 5.41,-1.61 11.17,2.37 11.03,8.08 -0.32,13.24 -4.58,28.34 -5.78,41.77 -0.84,9.42 -0.04,19.39 -1.52,28.69 -1.36,8.53 -5.68,17.54 -7.78,26.02 -4.66,18.79 -5.59,38.18 -6.51,57.48 4.91,7.02 13.28,12.37 21.18,15.49 7.9,3.12 16.6,3.06 22.67,8.62 z"
       id="path82" />
    <path
       class="cls-70"
       d="m 49.67,326.01 c -1.3,0.24 -2.36,-0.97 -2.88,-2.14 1.3,-0.24 2.36,0.97 2.88,2.14 z"
       id="path84" />
    <path
       class="cls-16"
       d="m 41.75,246.89 0.33,2.08 c -7.9,26.75 -15.59,54.61 -12.75,82.65 0.56,5.57 1.6,11.3 5,15.71 1.02,3.08 -0.09,10.06 -4.09,8.18 l -0.86,1.35 c -12.26,0.24 -12,0.46 0.8,0.67 l 0.77,1.57 c 0.83,10.54 -0.03,22.16 -2.76,32.04 l -1.55,0.32 c -3.84,-6.9 -4.88,-0.6 -4.32,3.6 0.65,4.74 -3.66,0.72 -5.04,-1.44 -0.94,-2.79 -1.15,-6.12 -4.65,-5.76 -5.5,0.57 0.13,10.42 -0.74,13.67 -5.41,-6.16 -6.15,-14.58 -5.21,-22.47 0.94,-7.89 6.55,-17.89 7.01,-24.66 0.46,-6.77 -2.07,-15.43 -2.18,-22.25 -0.3,-18.57 4.4,-40.74 8.87,-58.81 2.44,-9.88 5.84,-19.49 8.45,-29.32 0.54,-0.48 11.2,2.33 12.92,2.85 z"
       id="path86" />
    <path
       class="cls-16"
       d="m 216.54,246.17 c 4.62,-1.08 9.03,-3.22 13.66,-4.32 4.34,11.57 7.62,22.91 9.87,35.1 4.02,21.74 6.84,45.41 5.24,67.4 -0.37,5.05 -1.99,10.79 -2.18,15.8 -0.43,11.5 1.6,19.03 -3.57,30.6 -1.09,1.59 -2.89,1.23 -5.4,-1.08 -1.77,0.28 -2.9,0.09 -3.39,-0.58 l -4,-23.89 1.29,-1.07 c -0.1,-2.3 5.52,-1.08 3.06,-1.41 l -0.9,-1.47 -4.3,-0.87 -2.23,-13.12 c 3.4,-19.38 2.9,-39.95 2,-59.8 -0.62,-13.48 -1.64,-26.92 -9.1,-38.63 l -0.03,-2.67 z"
       id="path88" />
    <path
       class="cls-108"
       d="m 41.75,246.89 c 1.63,0.5 7.54,1.89 7.86,3.31 0.18,0.81 -5.14,12.97 -5.9,15.55 -6.06,20.36 -9,46.55 -6.08,67.63 0.63,4.53 2.69,7.97 6.88,10.03 -3.9,21.28 -7.66,43.05 -8.62,64.85 -0.97,3.09 -4.25,-1.22 -5.07,-2.61 -1.1,-1.87 -4.26,-12.37 -4.17,-14.18 0.04,-0.7 1.18,-3.22 1.34,-4.78 0.94,-9.2 2.05,-18.39 2.98,-27.59 0.59,-0.71 0.35,-1.91 -0.72,-3.6 2.09,0.11 1.76,-1.13 2.26,-2.41 2.36,-6.02 -0.52,-4.98 -2.3,-10.14 -5.32,-15.44 -2.17,-43.32 1.11,-59.38 2.49,-12.21 6.55,-24.86 10.44,-36.68 z"
       id="path90" />
    <path
       class="cls-108"
       d="m 216.54,246.17 c 11.76,17 10.48,38.17 10.76,57.93 0.14,9.57 0.76,19.05 0.02,28.73 -0.34,4.49 -2.28,10.08 -2.21,14.39 0.02,1.41 1.77,11.77 2.18,12.86 0.38,1.01 2.45,-0.02 2.91,1.17 -0.68,1.31 -2.55,1.79 -5.62,1.42 1.47,-0.17 2.62,0.12 3.46,1.46 l 3.91,24.5 7.6,2.11 c -0.81,1.81 -1.71,4.16 -3.59,5.03 0.47,-1.99 -0.2,-6.55 -3.22,-5.75 -1.82,0.48 -0.44,8.95 -4.69,8.62 -2.4,-13.46 -4.83,-28.19 -8.69,-41.3 -0.82,-2.78 -4.75,-11.14 -4.87,-12.42 -0.11,-1.16 3.31,-3.06 4.35,-5.48 5.77,-13.45 2.26,-54.57 -1.21,-69.56 -1.82,-7.85 -4.94,-15.35 -8.29,-22.64 2.36,-0.51 4.83,-0.53 7.2,-1.09 z"
       id="path92" />
    <path
       class="cls-33"
       d="m 17.3,393.63 c 2.24,-0.31 3.27,1.5 4.68,2.87 l 0.36,-1.44 c 0.42,3.14 2.13,6.8 2.84,9.76 0.23,0.95 -0.13,1.42 -1.03,1.03 -1.97,-0.85 -5.68,-7.21 -6.5,-9.36 -0.41,-1.08 -0.13,-2.25 -0.34,-2.86 z"
       id="path94" />
    <path
       class="cls-50"
       d="m 30.25,355.5 c 1.87,0.35 5.88,3.07 7.19,4.68 -2.15,0.17 -4.31,-0.74 -6.47,-1.08 -4.78,-0.77 -6.05,-0.41 -10.65,-0.18 -0.93,0.05 -2.73,0.4 -3.01,-0.91 -0.61,-2.88 11.26,-2.82 12.94,-2.51 z"
       id="path96" />
    <path
       class="cls-26"
       d="m 230.21,361.26 c 1.18,0.06 6.41,0 6.46,1.8 0.05,1.57 -7.21,1.11 -8.62,1.08 -1.79,-0.04 -3.59,0.03 -5.39,0 -1.83,-3.88 4.86,-3.02 7.55,-2.88 z"
       id="path98" />
    <path
       class="cls-108"
       d="m 186.33,92.96 c 1.86,5.53 -2.32,13.91 -5.18,18.92 -14.04,24.64 -46.67,38.17 -73.49,27.01 -20.69,-8.61 -45.13,-32.32 -32.42,-56.68 0.63,-1.21 2.21,-1.78 2.47,-2.2 0.63,9.99 0.72,17.41 5.63,26.38 22.54,41.21 76.95,38.19 97.36,-2.88 1.89,-3.8 1.7,-8.25 5.63,-10.56 z"
       id="path100" />
    <path
       class="cls-58"
       d="m 176.26,35.42 c 0.01,1.3 -1.14,2.33 -1.23,3.35 -0.09,0.94 0.55,1.89 0.51,2.4 1.19,1.47 0.6,3.18 -0.72,4.32 -1.42,0.49 -3.24,0.35 -4.86,1.28 -1.5,0.86 -2.36,3.74 -4.77,3 -2.04,-0.62 -0.22,-5.42 -3.28,-6.15 -5.11,-1.22 -2.62,4.15 -7.57,4.07 -4.44,-0.07 -3.53,-3.56 -5.42,-4.71 -4.38,-2.64 -7.18,4.27 -8.91,3.92 l -3.31,-5 0.95,-1.33 c 5.11,-1.39 10.07,-1.43 14.87,-0.11 0.28,0.21 0.49,1.13 1.01,1.47 2.6,1.74 4.32,-0.1 6.58,-0.06 2.63,0.05 4.77,1.52 7.5,0.37 4.77,-2.02 2.92,-8.79 0.01,-11.84 3.47,0.75 4.55,5.46 8.63,5.03 z"
       id="path102" />
    <path
       class="cls-58"
       d="m 132.39,41.89 c -6.35,8.82 -5.58,3.21 -10.08,1.07 -3.15,-1.49 -4.56,2.34 -6.94,3.84 -7.87,4.95 -5.28,-4.5 -12.47,-3.47 0.9,-0.99 6.36,-3.28 7.55,-3.31 2.18,-0.06 4.93,0.71 8.28,0.43 1.73,-0.15 6.4,-1.36 6.73,-1.3 1.75,0.36 1.84,2.66 6.93,2.73 z"
       id="path104" />
    <path
       class="cls-98"
       d="m 74.84,71.38 c 0.05,0.35 0.93,0.63 0.62,2.3 -0.25,1.35 -1.2,2.44 -2.06,3.45 l -3.6,2.16 c -0.61,0.76 -1.01,4.02 -2.14,2.87 -0.38,-0.39 -3.3,-5.57 -3.44,-6.27 -0.68,-3.23 -0.2,-5.05 2.71,-6.67 0.75,1.15 1.44,2.45 2.06,3.92 1.96,-0.57 3.91,-1.15 5.85,-1.76 z"
       id="path106" />
    <path
       class="cls-66"
       d="m 77.72,46.92 c 0.29,0.44 1.51,0.52 1.99,1.95 1.8,5.4 0.44,13.2 0.88,18.9 -1.77,0.46 -2.12,-1.6 -2.87,-2.15 -1.84,-1.14 -2.64,-3.15 -0.32,-3.57 1.09,-2.49 0.4,-3.94 -1.12,-5.78 1.17,-3.98 -0.6,-6.59 1.44,-9.35 z"
       id="path108" />
    <path
       class="cls-98"
       d="m 71.25,64.19 c 0.17,-1.53 1.06,-1.52 1.44,0 2.54,-1.34 3.74,-1.1 3.6,0.72 -3.31,1.51 -1.79,3.3 -1.44,5.75 -1.99,2.16 -4.39,1.45 -7.19,-2.16 1.63,-3.05 -1.73,-5.84 -2.16,-9.35 0.2,-0.63 0.44,-0.62 0.72,0 2.12,0.74 3.57,4.15 5.04,5.04 z"
       id="path110" />
    <path
       class="cls-98"
       d="m 184.17,31.82 -4.32,2.16 c -0.74,-1.29 -1.97,-3.1 -2.88,-4.32 0.55,-1.97 1.27,-3.64 2.16,-5.04 2.34,1.6 4.68,4.3 5.04,7.19 z"
       id="path112" />
    <path
       class="cls-103"
       d="m 82.75,28.94 c -1.57,1.04 -2.53,2.23 -2.88,3.6 -0.13,1.61 -1.99,0.72 -2.07,0.82 -0.15,0.17 -0.45,1.98 -0.81,2.78 -1.78,-2.9 0.96,-5.81 -3.6,-7.19 0.22,-0.24 0.46,-0.52 0.72,-0.72 4.2,-0.36 7.08,-1.32 8.63,-2.88 0.04,-0.33 0.37,-0.65 0.72,-0.72 -0.09,1.21 -0.75,4.1 -0.72,4.32 z"
       id="path114" />
    <path
       class="cls-20"
       d="m 193.53,103.03 c -1,0.79 -1.24,0.31 -0.72,-1.44 1.27,-4.74 0.6,-6.52 5.75,-9.35 -0.95,3.92 -2.46,7.7 -5.03,10.79 z"
       id="path116" />
    <path
       class="cls-92"
       d="m 77.72,65.63 c -0.12,-0.09 -1.22,-0.64 -1.44,-0.72 -1.3,-0.49 -2.06,-0.33 -3.6,-0.72 0.14,-1.41 0.66,-2.26 2.16,-2.16 0.08,-0.09 0.67,-0.72 0.72,-0.72 0.59,-1.12 0.59,-2.32 0,-3.6 0.17,-0.49 0.58,-0.96 0.72,-1.44 4.63,2.24 0.06,5.87 1.44,9.35 z"
       id="path118" />
    <path
       class="cls-20"
       d="m 65.49,87.21 1.44,2.88 c 0,0.55 -0.69,5.76 -2.15,4.31 -0.29,-0.28 -1.73,-7.62 -1.45,-7.91 1.23,-0.34 1.43,0.21 2.15,0.72 z"
       id="path120" />
    <path
       class="cls-98"
       d="m 82.75,25.35 c -0.07,0.57 0.24,1.84 -0.05,2.09 -0.62,0.54 -7.29,1.75 -8.58,0.79 3.54,-2.81 4.51,-1.71 8.63,-2.88 z"
       id="path122" />
    <path
       class="cls-111"
       d="m 179.14,24.63 c -0.23,1.78 0.05,5.59 -2.16,5.04 -0.19,-0.26 -0.52,-0.45 -0.72,-0.72 0.7,-0.37 0.42,-4.11 2.16,-4.32 0.18,0.11 0.56,-0.11 0.72,0 z"
       id="path124" />
    <path
       class="cls-40"
       d="m 175.54,41.17 c 2.62,1.88 2.06,3.35 -0.72,4.32 -0.28,-1.5 0.61,-2.98 0.72,-4.32 z"
       id="path126" />
    <path
       class="cls-23"
       d="m 73.4,77.14 c -1.07,1.27 -1.36,2.49 -3.6,2.16 1.06,-1.33 1.4,-2.46 3.6,-2.16 z"
       id="path128" />
    <path
       class="cls-6"
       d="m 193.53,103.03 c -0.61,0.73 -1.05,1.95 -2.15,2.16 -0.42,-1.45 1.18,-2.65 1.43,-3.6 z"
       id="path130" />
    <path
       class="cls-12"
       d="m 66.93,90.08 c -1.32,-0.37 -1.56,-1.62 -1.44,-2.88 1.36,0.96 1.47,1.04 1.44,2.88 z"
       id="path132" />
    <path
       class="cls-43"
       d="m 153.24,36.14 c 0.32,-1.53 3.79,-5.62 3.62,-2.5 -0.12,2.1 -1.5,3.64 -3.62,3.94 -0.08,-0.22 -0.06,-1.15 0,-1.44 z"
       id="path134" />
    <path
       class="cls-42"
       d="m 139.58,31.1 c -1.9,0 -4.61,2.02 -5.04,3.6 l -0.72,-0.72 c 0.6,-2.59 2.91,-3.15 4.32,-5.04 0.61,0.67 1.2,1.24 1.44,2.16 z"
       id="path136" />
    <path
       class="cls-53"
       d="m 112.24,5.92 c 1.77,-0.11 3.98,0.94 5.36,2.16 0.44,0.39 0.26,1.31 0.39,1.43 0.19,1.51 1.15,2.23 2.88,2.16 1.1,-0.51 1.91,-0.53 3.6,-1.44 2.45,-1.07 5.15,-1.3 8.1,-0.71 3.31,-1.15 5.12,-1.53 7.72,1.43 0.13,0.05 0.29,0.89 0.74,1.06 2.57,0.99 3.7,0.36 5.74,-1.06 3.51,-2.23 7.95,-0.36 10.79,2.16 0.42,0.07 1.04,0.68 1.44,0.72 l 0.76,1.51 c -3.45,8.73 0.5,4.98 0.94,-1.15 l 4.05,0.36 c 3.62,-0.1 8.74,-0.78 10.07,2.88 l 0.41,4.52 c 1.08,2.21 0.2,4.45 -2.64,6.72 1.1,0.38 1.61,1.19 1.52,2.43 0.25,0.29 2.15,3.87 2.16,4.32 -1.05,2.02 -2.53,1.36 -4.12,0.22 0.02,8.27 -4.97,9.71 -12.03,7.04 -2.9,1.84 -9.46,2.29 -7.58,-2.22 -1.34,0.16 -2.24,-0.15 -1.44,-1.44 -1.49,-1.45 -0.29,-4.82 1.44,-5.04 1.07,-0.67 1.31,0.05 0.72,2.16 1.38,0.19 1.18,0.88 0,1.44 2.08,-0.51 2.56,-0.03 1.44,1.44 0.39,1.44 3.95,1.17 3.19,-1.22 l 1.13,-0.93 c -1.07,-0.84 -1.46,-2.31 -1.18,-4.4 -1.46,-1.25 -2.03,-2.42 -1.7,-3.51 -1.87,-0.34 -3.44,-0.12 -4.71,0.65 l -1.76,-0.65 c 0.92,1.67 0.2,2.15 -2.16,1.44 0.75,2.23 -3.99,4.38 -5.04,2.16 -1.33,1.3 -2.04,0.82 -2.16,-1.44 -0.23,0.6 -0.47,0.6 -0.72,0 -1.95,0.21 -2.35,-0.38 -1.44,-2.16 -1.33,0.25 -2.88,-0.17 -4.62,-1.26 -2.06,0.86 -3.88,1.04 -5.45,0.54 0.57,1.94 -1.19,3.2 -2.88,2.16 -0.34,4.98 -2.25,7.62 -5.75,7.91 0.06,1.66 -1.07,0.8 -0.99,0.79 1.73,-0.19 1.69,0.24 0.27,1.37 l -1.2,1.5 c -4.95,-0.69 -9.83,-0.23 -14.62,1.38 -0.22,0.24 -0.54,0.44 -0.72,0.72 -4.16,4.15 -9.3,4.19 -15.42,0.1 -3.75,-0.6 -6.56,-1.19 -5.44,-5.85 0.62,-1.47 1.49,-2.87 2.16,-4.32 -0.74,-1.86 -0.98,-3.54 -0.72,-5.04 l -0.91,-0.47 c 0.85,-0.97 1.4,-2.25 1.63,-3.84 0.47,-6.17 1.6,-11.95 9.06,-12.93 4.49,-0.59 4.48,4.36 8.93,0.7 1.41,-0.75 2.39,-1.18 3.94,-0.5 -0.11,-1.56 -0.17,-2.65 1.1,-3.81 0.45,-0.26 0.96,-0.51 1.44,-0.72 0.62,-0.11 1.47,-0.08 1.65,0.41 2.15,6.11 2.81,7.29 1.87,-0.51 l 0.8,-1.35 z"
       id="path138" />
    <path
       class="cls-66"
       d="m 102.17,44.05 c -0.45,0.71 -0.06,2.11 -1.21,2.93 -0.66,0.47 -5.59,1.88 -6.52,1.94 -1.6,0.1 -3.29,-0.97 -4.77,-0.49 -0.99,0.32 -1.26,3.35 -2.59,2.1 -0.16,-0.15 -0.23,-3.27 -1.1,-4.3 -2.14,-2.54 -7.76,-0.56 -4.66,-7.93 0.56,4.99 3.27,3.49 5.93,4.5 2.23,0.84 5.74,2.93 8.26,3.27 2.31,0.32 4.45,-1.76 6.67,-2.02 z"
       id="path140" />
    <path
       class="cls-17"
       d="m 124.47,10.24 c 0.17,-0.09 0.71,-1.07 1.62,-1.58 5.54,-3.13 10.76,-4.09 14.2,2.3 -5.43,-2.15 -3.89,-0.36 -7.61,0 -1.67,0.16 -6.18,-0.57 -8.21,-0.73 z"
       id="path142" />
    <path
       class="cls-49"
       d="m 112.24,5.92 c 2.26,2.9 1.03,5.38 0.72,8.63 -4.95,-0.51 -3.74,-3.78 -5.03,-7.19 1.73,-0.77 2.04,-1.3 4.32,-1.44 z"
       id="path144" />
    <path
       class="cls-69"
       d="m 164.75,14.56 c -1.16,0.03 -2.37,0.32 -3.6,0 1.89,3.35 -1.28,8.32 -5.03,8.62 1.02,-3.15 0.94,-6.51 2.88,-9.34 1.83,0.17 4.52,-0.68 5.75,0.72 z"
       id="path146" />
    <path
       class="cls-13"
       d="m 178.42,24.63 c -0.05,2.56 -0.77,4 -2.16,4.32 -0.91,0.48 -2.77,-1.23 -2.16,2.16 -0.58,-0.67 -2.9,-0.62 -2.92,-2.51 -0.01,-1.45 2.75,-2.82 3.32,-4.64 0.66,-2.12 0.22,-4.36 0.32,-6.51 1.57,4.33 -0.89,4.49 3.6,7.19 z"
       id="path148" />
    <path
       class="cls-11"
       d="m 157.56,13.12 c -2.67,-0.44 -2.48,-0.63 -4.85,-1.27 -1.76,-0.47 -4.09,-0.39 -5.94,-0.89 0.39,-0.27 0.82,-1.36 1.9,-2.04 4.85,-3.07 6.22,0.64 8.89,4.2 z"
       id="path150" />
    <path
       class="cls-67"
       d="m 82.75,28.94 c 0.02,0.19 1.9,1.96 1.92,3.26 0.02,0.95 -1,1.34 -1.2,1.77 -0.48,-2.04 -2.65,-1.1 -3.6,-1.44 -3.02,-1.1 0.25,-4.56 2.88,-3.6 z"
       id="path152" />
    <path
       class="cls-79"
       d="m 106.49,8.08 0.72,5.75 -5.75,-1.43 c 1.78,-1.46 2.54,-2.86 5.04,-4.32 z"
       id="path154" />
    <path
       class="cls-7"
       d="m 120.88,11.68 c -1.68,0.78 -3.14,2.84 -5.75,2.15 l 2.88,-4.31 c 0.75,0.73 2.02,1.46 2.88,2.16 z"
       id="path156" />
    <path
       class="cls-66"
       d="m 129.88,12.44 c 1.92,0.21 -0.28,5.47 -0.41,6.83 -0.23,2.45 2.34,4.7 -2.56,5.34 -6.71,0.87 -7.07,-7.7 -1.77,-10.45 0.66,-0.34 4.48,-1.74 4.73,-1.72 z"
       id="path158" />
    <path
       class="cls-66"
       d="m 164.92,16.88 c 1.8,-1.8 7.94,-1.04 8.4,1.73 0.19,1.15 -2.07,2.42 -2.72,3.59 -0.65,1.17 -1.53,5.04 -2.63,5.29 -2.61,0.59 -5.72,-7.96 -3.06,-10.62 z"
       id="path160" />
    <path
       class="cls-78"
       d="m 147.49,13.13 c -1.5,2.86 -1.93,5.09 -0.55,8.1 0.7,1.53 2.58,2.01 1.9,4.33 -1.16,3.94 -9.86,2.98 -9.23,0.19 0.14,-0.63 1.94,-1.71 2.46,-2.6 1.91,-3.3 2.08,-6.28 1.83,-10.04 h 3.6 z"
       id="path162" />
    <path
       class="cls-10"
       d="m 112.96,19.59 c -0.11,2.61 2.69,7.76 1.44,10.07 -0.06,0.11 -1.25,-0.75 -2.4,0.03 -1.15,0.78 -1.33,2.4 -2.62,2.84 0.21,-2.59 -0.83,-2.55 -2.88,-3.23 1.23,-1.2 2.52,-2.32 3.28,-3.91 1.09,-2.26 0.51,-5.82 3.19,-5.8 z"
       id="path164" />
    <path
       class="cls-41"
       d="m 96.69,25.8 c 0.67,0.68 1.83,0.62 1.88,2 0.25,6.41 -9.13,4.9 -8.32,-1.05 1.21,0.09 4.81,-2.85 5.1,-2.83 0.38,0.02 0.88,1.41 1.34,1.88 z"
       id="path166" />
    <path
       class="cls-32"
       d="m 122.31,31.82 c 0.05,3.77 -9.14,10.03 -7.79,3.4 0.82,-4.02 4.49,-3.58 7.79,-3.4 z"
       id="path168" />
    <path
       class="cls-63"
       d="m 165.47,28.94 c -2.95,-0.5 -5.83,1.66 -7.82,-1.17 -2.31,-3.28 2.55,-3.19 4.94,-5.3 -0.42,2.93 2.48,3.98 2.88,6.47 z"
       id="path170" />
    <path
       class="cls-32"
       d="m 107.93,31.1 c 1.32,1.32 -2.73,9.03 -4.66,8.62 -4.03,-2.64 2.37,-10.92 4.66,-8.62 z"
       id="path172" />
    <path
       class="cls-73"
       d="m 159,36.85 c -1.24,2.91 -2.68,3.63 -4.32,2.16 -0.19,-0.51 -1.32,-1.1 -1.44,-1.44 2.17,-2.33 2.17,-2.81 0,-1.44 l -0.72,-2.16 c 1.19,-3.31 3.1,-2.58 3.6,-5.04 0.83,0.82 2.31,1.23 2.73,2.67 0.46,1.58 0.05,3.57 0.15,5.25 z"
       id="path174" />
    <path
       class="cls-49"
       d="m 94.98,42.61 c -0.33,-0.14 -1.28,0.18 -1.42,-0.01 -1.43,-1.93 3.83,-7.34 5.39,-8.61 2.32,-0.96 0.5,4.76 -0.37,5.75 0.21,1.25 -2.31,2.82 -3.6,2.88 z"
       id="path176" />
    <path
       class="cls-86"
       d="m 108.64,22.47 c 1.01,0.95 -5.72,8.37 -7.9,7.91 -0.81,-4.28 0.89,-3.26 3.04,-5.02 1.39,-1.13 2.15,-3.17 4.86,-2.88 z"
       id="path178" />
    <path
       class="cls-32"
       d="m 168.35,39.01 c -1.02,0.9 -2.46,1.48 -2.88,0 -2.49,0.29 -1.01,-0.78 -0.94,-2.01 0.06,-0.95 0.15,-5.2 0.58,-5.19 2.86,0.6 3.8,4.82 3.23,7.2 z"
       id="path180" />
    <path
       class="cls-39"
       d="m 122.32,26.06 c -5.95,-0.25 -6.67,-2.42 -3.59,-7.18 1.21,0.58 0.94,3.03 1.59,4.51 0.48,1.1 1.63,1.61 2,2.67 z"
       id="path182" />
    <path
       class="cls-39"
       d="m 138.87,23.19 c -0.26,-3.06 0.04,-6.73 2.86,-8.63 0.13,3.25 0.51,6.91 -2.86,8.63 z"
       id="path184" />
    <path
       class="cls-77"
       d="m 159,36.85 c 0.07,1.26 0.54,2.36 0.72,3.59 -1.6,0.43 -5.02,1.69 -5.63,-0.43 -0.12,-0.41 0.61,-0.94 0.59,-0.99 1.47,-0.49 2.73,-1.18 2.92,-2.86 l 1.39,0.7 z"
       id="path186" />
    <path
       class="cls-29"
       d="m 126.63,27.51 c -1.54,2.26 -7.29,2.74 -9.58,2.18 -0.7,-0.17 -1.49,-2.62 -1.21,-2.9 3.81,1.74 6.73,1.77 10.78,0.72 z"
       id="path188" />
    <path
       class="cls-105"
       d="m 101.46,16 c 3.94,-1.33 3.31,5.8 1.79,5.74 -1.52,-0.06 -2.21,-4.38 -1.79,-5.74 z"
       id="path190" />
    <path
       class="cls-68"
       d="m 99.3,40.45 c 0.38,-0.44 0.8,-1.56 1.08,-1.44 4.69,3 -2.24,5.33 -5.4,5.02 -0.07,-0.48 0.72,-0.61 0.73,-0.71 0.43,-1.32 2.24,-2.57 3.6,-2.88 z"
       id="path192" />
    <path
       class="cls-1"
       d="m 92.1,36.86 c -0.49,1.04 -0.69,2.35 -1.46,3.21 -3.33,3.77 -4.41,-5.59 1.46,-3.21 z"
       id="path194" />
    <path
       class="cls-68"
       d="m 118,16 c 1.01,-0.95 1.38,-0.55 0.72,0.72 -1.2,1.36 -2.02,3.38 -3.59,4.32 0.38,-1 -0.96,-4 -0.73,-4.31 0.23,-0.31 2.97,-0.49 3.6,-0.73 z"
       id="path196" />
    <path
       class="cls-29"
       d="m 90.66,16.72 c 0.68,0.74 -1.32,3.57 -1.82,4.31 -0.55,0.82 0.19,1.87 -1.77,1.43 -1.05,-1.55 2.39,-7.06 3.59,-5.75 z"
       id="path198" />
    <path
       class="cls-38"
       d="m 82.75,38.29 c 1.21,-5.38 7.69,-3.5 3.14,-0.81 -0.98,0.58 -1.97,0.97 -3.14,0.81 z"
       id="path200" />
    <path
       class="cls-51"
       d="m 89.23,31.82 c 0.95,1.01 0.55,1.38 -0.72,0.72 -1.61,-1.71 -2.79,-4.83 -2.87,-7.19 2.47,1.16 2.24,4.17 3.59,6.47 z"
       id="path202" />
    <path
       class="cls-109"
       d="m 162.59,37.57 c -1.77,-0.14 -2.88,-5.84 -1.07,-5.74 1.66,0.09 1.7,4.48 1.07,5.74 z"
       id="path204" />
    <path
       class="cls-93"
       d="m 152.53,23.19 c 1.28,-3.09 0.21,-5.57 0.35,-8.63 2.35,1.7 1.82,6.99 -0.35,8.63 z"
       id="path206" />
    <path
       class="cls-28"
       d="m 94.98,19.6 c 1.01,0.9 -3.72,4.17 -4.31,3.59 -0.9,-0.89 3.1,-4.66 4.31,-3.59 z"
       id="path208" />
    <path
       class="cls-56"
       d="m 168.35,39.01 c -0.47,1.95 -4.99,3.33 -5.75,0.73 1.2,0.47 2.26,-0.62 2.88,-0.73 0.86,-0.15 1.96,0.1 2.88,0 z"
       id="path210" />
    <path
       class="cls-90"
       d="m 150.36,21.75 c -2.04,-0.97 -1.31,-4.63 -1.42,-6.47 2.39,1.07 1.2,4.43 1.42,6.47 z"
       id="path212" />
    <path
       class="cls-104"
       d="m 110.81,36.85 1.79,-5.75 c 2.15,1.39 -0.32,4.87 -1.79,5.75 z"
       id="path214" />
    <path
       class="cls-29"
       d="m 131.67,21.03 c 0.07,-1.6 -0.46,-5.02 1.42,-5.75 z"
       id="path216" />
    <path
       class="cls-94"
       d="m 99.3,40.45 c -1.12,1.3 -1.71,2.38 -3.6,2.88 0.08,-0.79 -0.39,-0.58 -0.72,-0.72 0.57,-1.53 2.77,-1.95 3.6,-2.88 z"
       id="path218" />
    <polygon
       class="cls-106"
       points="82.76,40.09 86.35,39.02 86.34,41.89 "
       id="polygon220" />
    <path
       class="cls-77"
       d="m 108.63,20.29 c -0.07,0.08 -1.71,0.31 -2.13,0.74 v -4.32 c 1.24,0.18 2.85,2.76 2.13,3.58 z"
       id="path222" />
    <path
       class="cls-29"
       d="m 92.83,15.28 c 0.99,-0.25 3.58,0.11 3.58,1.08 0,1.5 -4.18,1.56 -3.58,-1.08 z"
       id="path224" />
    <path
       class="cls-63"
       d="m 109.25,38.89 c -0.15,0.25 -2.44,1.09 -2.76,0.83 l 2.17,-4.3 c 1.29,-0.2 0.79,3.16 0.6,3.47 z"
       id="path226" />
    <path
       class="cls-46"
       d="m 100.02,21.75 2.88,1.45 c -2.06,3.3 -2.07,0.59 -2.88,-0.73 z"
       id="path228" />
    <path
       class="cls-84"
       d="m 137.42,11.68 v 3.6 c -0.39,0.88 -1.71,-2.87 -2.15,-3.59 h 2.15 z"
       id="path230" />
    <path
       class="cls-61"
       d="m 135.98,25.34 c -2.77,-0.21 -2.29,-1.38 -0.35,-2.87 z"
       id="path232" />
    <path
       class="cls-36"
       d="m 92.1,43.32 c -1.34,0.19 -2.49,0 -2.88,-1.42 l 2.15,-0.73 z"
       id="path234" />
    <path
       class="cls-4"
       d="m 118,16 c 0.74,-0.28 1.47,-1.95 2.88,-1.43 -0.12,1.14 -1.61,1.53 -2.16,2.15 z"
       id="path236" />
    <path
       class="cls-107"
       d="m 100.02,21.75 v 0.72 c -0.68,-1.12 -1.56,-1.26 -1.45,-3.23 0.82,-1.3 1.18,1.51 1.45,2.51 z"
       id="path238" />
    <path
       class="cls-52"
       d="m 89.23,31.82 c 0.29,0.49 1.99,0.64 1.43,2.16 -0.19,0.24 -1.81,-1.08 -2.15,-1.44 z"
       id="path240" />
    <path
       class="cls-104"
       d="M 110.09,18.15 109.36,16 c 2.01,-0.08 2.89,1.41 0.73,2.15 z"
       id="path242" />
    <path
       class="cls-75"
       d="m 184.17,31.82 c 0.22,1.78 -0.89,4.17 -0.72,4.31 0.68,0.53 5.03,-0.52 5.63,3.41 0.48,3.14 -3.32,3.95 -2.75,4.5 0.1,0.1 1.4,0.25 2.17,1.07 1.05,1.13 2.62,3.35 3.58,4.69 0.2,1.83 -0.04,3.75 -0.72,5.75 0.15,0.55 -0.14,1.47 0.18,2.31 0.82,2.18 4.08,4.39 1.24,6.65 -1.8,1.44 -4.58,0.15 -4.29,2.54 l 4.3,-1.44 c 0.49,1.1 -0.68,1.87 -0.71,2.16 -0.36,0.78 -0.36,1.5 0,2.16 0.01,1.91 0.68,1.94 1.44,2.88 1.83,2.26 1.19,5.11 0.27,7.67 l 0.45,0.96 c -0.35,2.24 0.51,3.94 -0.72,6.47 l -0.93,0.6 c -1.92,-3.34 -4.24,-6.41 -6.98,-9.23 -1.54,-6.01 0.89,-5.87 1.21,-9.8 0.04,-0.53 -0.34,-4.42 -0.46,-4.84 -0.25,-0.9 -3.91,-0.63 -4.3,-2.33 l 2.83,-6.76 c -1.79,1.07 -2.82,-0.63 -3.97,-0.7 -1.8,-0.11 -2.85,1.2 -5.2,0.23 -1.34,-0.56 -1.98,-3.34 -1.61,-4.57 0.9,-1.28 4.59,2.93 4.32,2.87 -0.29,-0.07 -3.59,-3.18 -2.16,-3.59 0.56,-0.18 1.51,-1.04 2.07,-0.67 0.34,0.23 0.38,2.16 1.52,2.11 -0.63,-1.93 1.09,-3.19 1.45,-4.32 0.48,-1.05 0.72,-2.25 0.72,-3.6 0.8,-3.55 -2.22,-4.38 -2.16,-4.66 0.13,-0.62 1.53,-1.63 1.48,-2.86 0,-0.13 -0.82,-0.68 -1.48,-1.83 -1.23,-1.82 3.06,-3.85 4.32,-2.16 z"
       id="path244" />
    <path
       class="cls-31"
       d="m 185.61,79.29 c 2.13,0.47 2.68,2.28 4.05,3.53 0.55,0.51 2.05,0.51 2.3,0.91 0.58,0.91 -0.66,3.63 1.56,4.2 -0.24,0.49 -0.99,1.74 -1.43,1.44 -1.53,-4.4 -5.34,-5.61 -6.49,-10.07 z"
       id="path246" />
    <path
       class="cls-99"
       d="m 194.24,81.45 h -4.32 c 0.14,-1.6 3.19,-1.8 3.48,-2.27 0.62,-1.01 -0.19,-4.83 0.11,-6.36 0.31,0.38 1.4,0.59 1.79,1.42 1.38,3.02 -0.66,4.66 -1.07,7.21 z"
       id="path248" />
    <path
       class="cls-11"
       d="m 191.37,55.56 c -0.14,-0.5 -1.18,-1.2 -1.18,-1.79 -0.01,-1.04 1.59,-2.79 1.9,-3.97 0.13,0.17 0.87,0.26 1.09,0.72 0.99,2.11 -0.32,3.6 -1.81,5.03 z"
       id="path250" />
    <path
       class="cls-80"
       d="m 176.26,49.8 2.16,3.59 -4.32,-2.87 c 0.35,-1.16 1.51,-0.51 2.16,-0.72 z"
       id="path252" />
    <path
       class="cls-60"
       d="m 182.02,43.33 c -0.97,4.13 3.44,0.8 4.31,2.87 l -5.03,0.73 c 0.19,-0.58 0.49,-2.6 0.72,-3.6 z"
       id="path254" />
    <path
       class="cls-32"
       d="m 192.09,67.78 c -0.09,0.66 0,1.46 0,2.16 -2.67,-0.21 -2.67,-1.95 0,-2.16 z"
       id="path256" />
    <path
       class="cls-1"
       d="m 188.13,54.85 c 6.11,3.08 -2.93,9.36 -2.39,4.13 0.15,-1.48 1.2,-3.19 2.39,-4.13 z"
       id="path258" />
    <path
       class="cls-32"
       d="m 183.65,40.97 c -0.49,-0.56 -1.19,-3.28 0.16,-3.37 0.47,-0.03 3.97,1.91 3.95,2.5 -0.03,1.1 -2.8,2.38 -4.11,0.88 z"
       id="path260" />
    <path
       class="cls-44"
       d="m 192.02,73.62 c 1.61,2.58 -2.73,2.88 -3.52,1 -1.22,-2.92 3.21,-1.49 3.52,-1 z"
       id="path262" />
    <path
       class="cls-38"
       d="m 192.08,60.6 c 0.42,2.67 -1.14,3.13 -3.59,2.87 l 2.53,-2.86 h 1.07 z"
       id="path264" />
    <path
       class="cls-59"
       d="m 186.33,53.39 3.59,-5.02 c 0.46,2.29 -1.12,4.86 -3.59,5.02 z"
       id="path266" />
    <path
       class="cls-106"
       d="m 188.49,78.57 c -1.08,1.18 -2.88,-2.25 -2.15,-3.59 1.23,0.14 2.84,2.83 2.15,3.59 z"
       id="path268" />
    <path
       class="cls-48"
       d="m 184.17,48.37 c 0.62,0.63 -1.76,4.13 -2.15,3.59 -0.71,-1.33 1.01,-4.75 2.15,-3.59 z"
       id="path270" />
    <path
       class="cls-47"
       d="m 192.08,78.56 c -0.1,0.11 -2.35,0.79 -2.87,0.72 l 2.52,-2.15 c 0.62,-0.09 0.42,1.35 0.35,1.42 z"
       id="path272" />
    <path
       class="cls-72"
       d="m 156.12,58.43 c 1.95,-1.35 6.78,-2.05 8.88,-1.32 0.93,0.32 4.53,4.66 0.47,3.48 -2.45,-0.78 -6.65,-1.56 -9.35,-2.16 z"
       id="path274" />
    <path
       class="cls-73"
       d="m 133.82,39.01 c -0.5,-1.37 -0.69,-2.98 0,-4.32 -0.63,-0.13 -0.61,-0.38 0,-0.72 1.01,-0.95 1.38,-0.55 0.72,0.72 2.24,2.73 3.23,0.66 4.29,-2.53 l 1.46,-1.07 c 0.22,0.05 2.08,1.32 2.16,1.44 l 1.63,0.11 c 0.35,7.5 4.63,1.29 3.4,-2.27 0.54,-0.29 1.45,-1 2.16,-1.44 4.33,-0.15 1.93,5.98 0.4,8.54 l 1.04,1.53 c 0.24,0.06 1.01,1.12 1.44,1.44 -2.66,1.3 -5.28,-0.19 -7.49,0 -3.27,0.29 -3.36,2.2 -8.34,1.44 -2.65,-0.4 -2.69,0.02 -4.32,0 -2.47,2.36 -4.97,0.51 -7.12,-1.35 -2.96,1.26 -5.14,1.23 -6.55,-0.09 l -0.72,-2.15 c 0.43,-0.12 1.19,0.13 1.44,0 3.53,-0.48 5.44,-3.12 5.75,-7.91 0.81,-0.88 1.85,-1.56 2.88,-2.16 5.7,-0.93 5.24,6.84 1.4,9.74 1.33,0.61 2.78,0.96 4.35,1.05 z"
       id="path276" />
    <path
       class="cls-78"
       d="m 138.14,28.94 0.32,1.12 c -1.73,1.14 -3.19,2.44 -4.63,3.92 -0.05,0.23 0.04,0.49 0,0.72 -0.68,1.36 -0.46,2.92 0,4.32 -0.7,2.21 -5.62,1.01 -6.46,-1.08 3.64,-3.06 5.6,-6.8 0.71,-9.71 4.09,-2.38 6.54,-3.14 10.07,0.72 z"
       id="path278" />
    <path
       class="cls-10"
       d="m 156.12,28.94 c 0.54,0.37 0.83,0.87 1,1.48 0.09,0.32 -3.93,3.27 -4.59,3.55 -0.71,1.97 -0.47,3.54 -1.44,5.04 -1.15,-0.29 -3.02,0.21 -4.32,0 2.85,-3.28 5.71,-5.51 2.88,-10.06 1.4,-0.87 2.9,-1.35 3.96,-2.86 0.73,1.11 1.58,1.94 2.52,2.86 z"
       id="path280" />
    <path
       class="cls-49"
       d="m 147.49,30.38 c 4.01,0.04 0.26,6.49 -1.2,7.08 -3.56,1.45 -2.69,-3.11 -3.83,-4.92 2.05,-0.44 3.3,-1.21 5.04,-2.16 z"
       id="path282" />
    <path
       class="cls-39"
       d="m 139.58,31.1 c 0.23,0 0.52,-0.05 0.72,0 0.28,3.23 -2.5,6.93 -5.75,7.19 0.17,-1.07 -0.25,-2.67 0,-3.59 -0.58,-1.94 3.75,-5.7 5.04,-3.6 z"
       id="path284" />
    <path
       class="cls-44"
       d="m 125.19,30.38 c 0.53,1.01 0.09,6.8 -0.1,7.1 -0.15,0.25 -5.13,2.27 -5.66,0.81 3.49,-1.92 3.33,-5.29 5.75,-7.91 z"
       id="path286" />
    <path
       class="cls-105"
       d="m 140.31,35.42 c 4.87,2.86 1.92,6.8 -2.5,5.74 -2.95,-0.7 3.05,-4.16 2.5,-5.74 z"
       id="path288" />
    <path
       class="cls-84"
       d="m 129.5,31.1 c 0.52,0.47 -0.78,4.84 -2.87,4.31 -0.57,-1.21 0.9,-6.08 2.87,-4.31 z"
       id="path290" />
    <path
       class="cls-42"
       d="m 133.82,39.01 c -1.16,-0.68 -1.18,-3.59 0,-4.32 -0.22,1.24 0.31,3.32 0,4.32 z"
       id="path292" />
    <path
       class="cls-64"
       d="m 70.53,33.26 c 1.37,-2.41 2.76,-0.79 3.12,1.48 2.08,0.42 2.96,1.36 2.63,2.83 -0.29,1.05 -0.69,1.48 -0.72,2.88 -2.07,2.29 -1.97,2.7 0.72,4.32 0.25,0.63 1.01,1.51 1.44,2.16 0.59,2.14 1.56,9.13 -1.44,9.35 1.36,1.11 1.12,1.59 -0.72,1.44 0.62,0.94 0.62,2.14 0,3.6 0.91,1.02 0.52,1.39 -0.72,0.72 -1.28,0.51 -2.48,1.23 -3.6,2.16 -2.23,0.35 -3.91,-1.32 -5.04,-5.04 -1.29,-2.29 -0.41,-5.37 1.73,-6.83 l 1.14,-2.52 c 0.25,-0.23 0.46,-0.5 0.72,-0.72 2.54,0.3 3.26,-0.42 2.16,-2.16 -0.12,-0.19 -0.38,-3.23 -0.72,-4.32 -0.58,-2.57 -0.82,-5.21 -0.72,-7.91 0.09,-0.44 -0.12,-1.07 0,-1.44 z"
       id="path294" />
    <path
       class="cls-7"
       d="m 77,36.14 c -0.2,0.45 -0.67,1.25 -0.72,1.44 -0.84,-1.13 -2.75,-0.93 -3.62,-1.8 -0.97,-0.96 -0.11,-3.09 -2.13,-2.52 0.65,-2.01 1.52,-2.86 2.88,-4.32 3.86,-0.39 5.06,2.01 3.6,7.19 z"
       id="path296" />
    <path
       class="cls-49"
       d="m 69.09,49.8 c 0.1,4.3 6.1,0.31 6.47,0.72 v 5.03 c -2.06,0.34 -1.19,-1.4 -3.17,-2.25 -4.01,-1.71 -7.26,1.78 -6.17,5.85 H 65.5 c -0.72,-5.88 -0.05,-5.91 3.6,-9.35 z"
       id="path298" />
    <path
       class="cls-83"
       d="m 75.56,40.45 c -0.03,1.38 0.22,3.05 0.72,4.32 -3.52,1.51 -3.89,-1.95 -3.6,-4.67 l 2.88,0.36 z"
       id="path300" />
    <path
       class="cls-68"
       d="m 70.53,34.7 c 0.45,2.02 1.58,2.72 3.59,2.89 0.21,1.1 -1.27,0.78 -1.82,1.39 -1.1,1.22 -1.24,2.05 -1.05,3.63 -0.13,-0.41 -1.14,-0.92 -1.4,-2.53 -0.42,-2.63 0.28,-3.44 0.68,-5.39 z"
       id="path302" />
    <path
       class="cls-9"
       d="m 69.81,49.08 c 0.77,-0.67 1.65,-1.23 2.16,-2.16 0.09,0.15 3.44,0.85 2.53,2.16 -0.91,1.31 -4.12,2.24 -4.69,0 z"
       id="path304" />
    <path
       class="cls-49"
       d="m 71.04,56.41 c 3.58,-0.73 3.7,1.64 0.74,2.91 -3.94,1.7 -4.67,-2.1 -0.74,-2.91 z"
       id="path306" />
    <path
       class="cls-87"
       d="m 72.68,55.55 c -1.14,0 -2.39,0.02 -3.44,0.52 -1.49,0.72 -1.07,2.22 -2.31,2.36 -0.61,-3.53 3.6,-6.14 5.75,-2.88 z"
       id="path308" />
    <path
       class="cls-34"
       d="m 75.56,57.71 c 2.21,-0.85 2.24,3.59 1.43,4.32 -0.15,0.14 -1.18,-0.74 -1.43,-0.72 -2.41,-0.86 -0.57,-1.99 0,-3.6 z"
       id="path310" />
    <path
       class="cls-62"
       d="m 74.84,62.03 c -0.26,0.31 0.06,2.06 -2.16,2.16 -0.43,-0.11 -1.2,0.14 -1.44,0 -0.67,-2.5 1.63,-3.3 3.6,-2.16 z"
       id="path312" />
    <path
       class="cls-94"
       d="m 67.65,68.5 c 3.64,-0.91 3.55,3.78 7.19,2.16 0.03,0.24 -0.04,0.49 0,0.72 -3.48,4.5 -9.58,4.76 -7.91,-2.16 0.3,-0.16 0.57,-0.68 0.72,-0.72 z"
       id="path314" />
    <path
       class="cls-29"
       d="m 69.79,69.95 c 0.13,0.12 2.02,3.39 0.36,3.59 -3.21,0.39 -2.17,-5.26 -0.36,-3.59 z"
       id="path316" />
    <path
       class="cls-16"
       d="m 112.96,54.12 c 4.66,-1.52 9.33,-1.84 14,-0.98 7.2,-1.47 14.66,-0.27 21.44,1.9 2.14,-0.22 6.52,0.74 3.4,1.95 l -0.72,1.37 c -5.04,-0.26 -8.89,0.96 -0.97,1.69 6.29,2.48 12.62,3.86 18.96,4.13 l 0.32,-0.83 c -0.91,-2.7 6.97,-0.72 6.87,1.55 0.45,0.21 2.63,3.64 2.7,4.08 0.22,1.35 -1.69,4.05 -1.24,7.02 0.08,0.53 2.46,7.85 2.8,8.74 1.08,2.81 4.45,4.15 5.81,8.21 -6.34,20 -20.05,36.78 -41.65,42.51 -27.3,7.25 -53.01,-7.23 -64.53,-32.4 -2.77,-6.05 -4.77,-16.96 -2.43,-23.07 2.05,-3.4 1.15,-4.51 4.32,-7.19 4.48,-3.48 6.38,-8.84 5.7,-16.07 l 1.49,-1.2 c 0.48,0.02 0.96,-0.02 1.44,0 5.03,-0.73 10.08,-1.56 15.15,-2.48 l 4.28,1.04 c 0.94,-0.06 1.93,-0.03 2.88,0 z"
       id="path318" />
    <path
       class="cls-108"
       d="m 112.96,54.12 c 2.22,0.21 6.95,-4.11 7.66,-4.24 1.63,-0.29 3.58,4.41 9.78,1.89 1.42,-0.58 3.02,-2.4 3.79,-2.68 0.32,-0.12 0.66,1.47 1.51,2.06 5.64,3.91 8.79,-1.51 10.59,-1.24 1.1,0.17 3.4,2.9 5.31,3.33 3.84,0.88 6.65,-1.17 7.77,-1.09 0.36,0.03 3.12,2.77 5.37,3.12 1.48,0.23 3.91,-0.66 4.27,-0.4 0.18,0.13 0.8,2.65 2.18,3.95 2.61,2.48 6.2,1.27 5.07,6.08 -1.51,-0.7 -4.76,-0.57 -6.46,-2.16 0.01,0.6 -0.31,1.06 -0.73,1.44 -1.82,-0.9 -3.02,-2.1 -3.6,-3.6 2.76,-2.61 -6.26,-2.68 -9.35,-2.16 -0.69,2.14 -4.42,0.63 -4.32,-1.44 l 0.37,-0.72 c -4.28,1.28 -7.72,-1.39 -10.97,-1.99 -7.65,-1.41 -19.63,0.08 -28.25,-0.17 z"
       id="path320" />
    <path
       class="cls-33"
       d="m 89.23,55.56 c -0.25,5.2 -0.27,17.08 -7.19,17.26 5.35,-4.54 3.21,-10.99 3.59,-17.27 1.19,0.03 2.41,-0.04 3.6,0 z"
       id="path322" />
    <path
       class="cls-14"
       d="m 110.09,54.12 c -6.61,0.41 -12.83,1.73 -19.42,1.44 1.47,-2.44 5.23,-1.19 7.95,-1.76 4.93,-1.02 5.64,-4.51 11.47,0.32 z"
       id="path324" />
    <path
       class="cls-85"
       d="m 97.86,105.89 c 0.26,0.35 6.5,4.01 7.43,4.46 13.37,6.49 30.83,6.49 44.55,1.14 2.11,-0.82 9.57,-4.42 10.68,-5.91 0.97,-1.31 -1.17,-3.43 1,-4.68 1.27,-0.08 6.19,7.1 5.4,7.89 -4.84,0.48 -8.73,4.36 -13.41,6.38 -14.76,6.36 -32.58,6.81 -47.27,0 -3.54,-1.64 -7.59,-5.8 -9.86,-6.72 -0.82,-0.33 -3.82,0.28 -4.27,-0.38 -0.89,-1.3 6.02,-10.22 7.16,-6.03 0.42,1.55 -1.63,3.56 -1.4,3.86 z"
       id="path326" />
    <path
       class="cls-21"
       d="m 139.32,85.88 c 4.03,-0.83 9.55,10.02 2.23,13.01 -1.66,0.68 -3.33,0.35 -4.87,0.89 -3.91,1.36 -3.86,3.45 -8.94,1.78 -1.32,-0.43 -2.26,-1.49 -3.24,-1.79 -4.22,-1.28 -9.17,-0.21 -10.32,-6.23 -1.08,-5.65 6.49,-9.55 5.99,-4.58 -0.21,2.11 -3.83,3.59 -0.4,5.48 2.12,1.17 3.64,0.35 5.62,0.85 1.72,0.44 3.38,2.99 5.77,2.6 1.12,-0.18 2.75,-1.76 4.23,-2.29 2.42,-0.87 6.63,0.48 5.34,-3.39 -0.53,-1.57 -5.52,-5.48 -1.39,-6.33 z"
       id="path328" />
    <path
       class="cls-21"
       d="m 107.74,57.89 c 2.59,-0.41 9.22,-1.16 9.56,2.38 0.37,3.86 -5.9,2.2 -8.84,2.66 -3,0.46 -12.67,5.92 -14.58,2.73 -0.66,-1.1 -0.6,-2.46 0.37,-3.26 0.55,-0.45 12.26,-4.3 13.48,-4.5 z"
       id="path330" />
    <path
       class="cls-110"
       d="m 151.81,57 c 0.84,0.1 3.13,1.17 4.32,1.44 2.98,-0.58 6.07,-0.39 8.96,0.54 l 0.39,1.62 c 1.98,0.63 4.12,1.14 3.6,3.6 -0.26,0.23 -0.24,1.02 -1.19,1.3 -4.89,1.44 -16.65,-4.97 -22.53,-4.55 -4.19,-4.04 3.24,-4.34 6.46,-3.94 z"
       id="path332" />
    <path
       class="cls-27"
       d="m 135.26,124.62 c -0.61,3.47 -11.45,2.63 -11.49,0.35 -0.03,-1.81 9.83,-1.19 11.49,-0.35 z"
       id="path334" />
    <path
       class="cls-65"
       d="m 153.08,70.08 c 6.6,-1.63 6.01,15.04 0.41,15.54 -5.6,0.5 -6.41,-14.06 -0.41,-15.54 z"
       id="path336" />
    <path
       class="cls-88"
       d="m 154.68,72.82 c 1.33,1.31 -1.93,5.79 -3.57,3.57 -1.51,-2.05 2.23,-4.88 3.57,-3.57 z"
       id="path338" />
    <path
       class="cls-27"
       d="m 103.38,71.48 c 9.34,-3.09 4.73,20.13 -0.8,12.8 -1.56,-2.07 -2.05,-11.86 0.8,-12.8 z"
       id="path340" />
    <path
       class="cls-57"
       d="m 107.21,73.54 c 0.44,0.42 -0.01,4.03 -1.78,3.59 -3.83,-0.96 -0.13,-5.41 1.78,-3.59 z"
       id="path342" />
  </g>
</svg>
