<?xml version="1.0" encoding="UTF-8"?>
<svg id="Layer_2" data-name="Layer 2" xmlns="http://www.w3.org/2000/svg" viewBox="0 0 144.23 178.61">
  <defs>
    <style>
      .cls-1 {
        fill: #a7a147;
      }

      .cls-2 {
        fill: #c0bc83;
      }

      .cls-3 {
        fill: #aeab76;
      }

      .cls-4 {
        fill: #c6b7a3;
      }

      .cls-5 {
        fill: #a49d38;
      }

      .cls-6 {
        fill: #c6c288;
      }

      .cls-7 {
        fill: #bab677;
      }

      .cls-8 {
        fill: #a39c34;
      }

      .cls-9 {
        fill: #080808;
      }

      .cls-10 {
        fill: #b2ac58;
      }

      .cls-11 {
        fill: #3a3835;
      }

      .cls-12 {
        fill: #21211a;
      }

      .cls-13 {
        fill: #090909;
      }

      .cls-14 {
        fill: #0c0c0b;
      }

      .cls-15 {
        fill: #78675c;
      }

      .cls-16 {
        fill: #e2e2e2;
      }

      .cls-17 {
        fill: #debca7;
      }

      .cls-18 {
        fill: #a39c37;
      }

      .cls-19 {
        fill: #83805b;
      }

      .cls-20 {
        fill: #a9a245;
      }

      .cls-21 {
        fill: #b8b47b;
      }

      .cls-22 {
        fill: #e5c3ad;
      }

      .cls-23 {
        fill: #c3bf85;
      }

      .cls-24 {
        fill: #bbb686;
      }

      .cls-25 {
        fill: #f1f1f1;
      }

      .cls-26 {
        fill: #bbb674;
      }

      .cls-27 {
        fill: #c4c086;
      }

      .cls-28 {
        fill: #c4b79d;
      }

      .cls-29 {
        fill: #a29b35;
      }

      .cls-30 {
        fill: #eac6b0;
      }

      .cls-31 {
        fill: #c5c185;
      }

      .cls-32 {
        fill: #c3a593;
      }

      .cls-33 {
        fill: #bdb97d;
      }

      .cls-34 {
        fill: #e9c6b0;
      }

      .cls-35 {
        fill: #a8a243;
      }

      .cls-36 {
        fill: #ada96d;
      }

      .cls-37 {
        fill: #949063;
      }

      .cls-38 {
        fill: #7d7937;
      }

      .cls-39 {
        fill: #beba7b;
      }

      .cls-40 {
        fill: #d6c5af;
      }

      .cls-41 {
        fill: #b4af5d;
      }

      .cls-42 {
        fill: #0a0a09;
      }

      .cls-43 {
        fill: #0a0909;
      }

      .cls-44 {
        fill: #a49d37;
      }

      .cls-45 {
        fill: #0a0a0a;
      }

      .cls-46 {
        fill: #b9b577;
      }

      .cls-47 {
        fill: #bcb76f;
      }

      .cls-48 {
        fill: #f0dcc7;
      }

      .cls-49 {
        fill: #a49e3a;
      }

      .cls-50 {
        fill: #a39d39;
      }

      .cls-51 {
        fill: #110f0f;
      }

      .cls-52 {
        fill: #f1ddc8;
      }

      .cls-53 {
        fill: #b7b282;
      }
    </style>
  </defs>
  <g id="Layer_1-2" data-name="Layer 1">
    <path class="cls-9" d="M32.55,19.46c.23-2.77.28-10.73,5.05-8.3,1.7.87,1.05,2.68,1.79,3.98,2.53-4.26,3.39-20.08,9.36-9.35.29-2.39,6.01-4.1,7.57-3.28,1.73.91,3.89,9.5,6.11,11.19.95-2.56,1.25-11.55,5.82-7.98,1.4,1.09.88,3.85,2.45,4.38,0-2.01.84-7,3.26-7.24,3.23-.33,3.64,4.82,4.59,6.96.26.59.44,2.4,1.51,1.01C80.79,9.89,80.24-.03,84.03,0c3,.02,5.57,8.95,6.13,11.54l1.59-7.4c4.48-6.99,6.99,2.79,8.49,6.68,1.81-1.08.85-4.59,2.09-6.17,4.61-5.88,7.54,10.8,8.71,13.37l2.1-6.89c5.68-4.43,5.69,3.89,6.63,4.64.42.34,2.34-.1,3.51.44,2.13.98,4.12,10.64,4.7,13.3,3.57,16.27,3.76,33.11,4.66,49.7.68.75,6.5-5.29,9.93,2.67,4.36,10.13-.71,24.79-4.99,34.31-.92,2.06-4.52,7.22-4.79,8.17-.67,2.38-.18,5.96-1.07,9.01-1.91,6.54-20.06,30.12-25.35,35.85-4.25,4.61-5.84,6.84-12.34,7.82-13.8,2.09-29.52,3.17-41.81-4.09-6.46-3.82-28.43-25.01-32.02-31.34s-2.51-10.58-4.32-15.84c-.18-.53-4.9-4.18-6.01-5.51C5.55,115.09.67,102.87.13,96.17c-.59-7.29.56-20.41,10.82-14.79.27-17.6-.66-41.37,7.9-57.26,3.1-5.75,6.75-1.92,7.22-2.5.35-.42-.37-6.19,2.66-7.09,3.79-1.13,2.81,2.18,3.11,4.21.38.89.28,1.47-.72,1.44.63,4.23-.09,7.59-2.16,10.08,1.36,1.53-.43,6.28-2.88,6.48-.39,2-1.66,2.01-2.16,0-1.68,1.27-2.39.29-1.44-1.44-1.24.23-.26-2.64-.19-2.51s-.49,2.85-1.25,2.51c.64.13.62.38,0,.72-.22,9.37-1.42,18.49-3.6,27.36.83,7.18,1.39,15.77.66,23.14-.11,1.05-.76,1.96-1.38,2.78-.28,3.15-2.66,2.11-4.93,1.04-3.94-3.66-5.45-2.51-4.52,3.45.96,4.09,1.47,8.12,1.53,12.07,1.89.89,3.28,2.9,4.17,6.02-1.27-4.58-1.46-8.99-.57-13.22-1.34-2.83,4.23-4.26,4.32-.72l1.51.11c3.76,8.81,4.43,17.94,5.09,27.44.41,5.43,1.45,9.13,4.6,13.37,5.51,7.43,23.58,25.13,32.09,28.49,8.52,3.36,27.31,4.03,35.63.28,6-2.7,17.39-19.38,21.28-25.11,7.6-11.19,9.05-16.54,7.93-30.4.21-4.89,2.05-14.54,7.79-14.18.98-.98,1.38-.56.72.72,3.32,1.66,2.46,6.19.72,8.64.48.74.1,1.84-.72,2.16.14.95.38,1.19.72.72-.47-.8-.13-1.77.72-2.16.38-2.35.57-4.77.58-7.26l1.58-.66-1.13-1.66c1.27-4.22,2.82-19.95-2.38-9.71l-1.54.58c-1.17,3.65-5.86,2.42-5.3-1.84.26-4.69.11-9.36-.46-14l-1.46-.74-.17-6.95c.19-3.3-4.01-5.94-6.76-4.63l-2.46-1.43c-1.91,3.07-5.7,2.24-6.82-1.04-2.79,3.73-6.14,1.4-6.78-2.62-4.18,1.25-5.25-4.52-3.64-7.07-.79-.94-.79-2.38,0-4.32-1.94-4.28.71-5.63,2.16-.72,1.37-1.25,1.1,2.5,1.07,2.33-1.2-6.01,3.87-5.52,5.22-.64,2.47-.22,4.17-.13,5.48,2.32,2.23-3.12,4.73-2.07,7.16,0,1.4-.8,2.94-.62,4.17.38-.69-2.86-.46-5.28.67-7.28-1.69-1.79-2.56-4.45-2.62-7.98-2.81.43-4.1-.27-3.86-2.1l-.83-.32c-.15-2.41-.6-4.23-1.33-5.44l-.51,3.29c-.83.8-2.34.66-4.53-.41-.65.31-1.13-.17-1.44-1.44-1.23-.42-1.73-2.37-1.44-3.6-1.61-1.33-2.84-1.57-4.22.08l-.82-.8c-.28,2.07-1.49,1.94-2.16,0-1.46.22-1.94-.74-1.44-2.88-1.07.32-1.55-.4-1.44-2.16-1.5.9-.98-2.56-.97-2.39.15,2.16-.46,6.94-2.63,7.43-.55,1.82-1.27,1.82-2.16,0-.21.63-.45.63-.72,0-1.98,1.85-2.38-.22-2.16-2.16l-.98.06-1.18-5.1c-.98-.45-1.94-.69-2.88-.72.69,2.82.33,7.22-2.88,7.92-.14.6-.49,1.05-.88,1.49-2.75,3.05-4.94-7.84-4.88-9.41l-.39-.07c.95,3.92-2.55,12.58-6.81,5.11-.65-.37-1.61-.13-2.88.72.3,1.66.1,2.5-1.44,1.44-1.11,2.19-2.65,1.66-2.88-.72-.95.13-1.91.13-2.88,0-.62,2.28-2.99,1.65-2.88-.72-.83.88-1.31.4-1.44-1.44l-.82-.09c.26-2.54.05-1.55-.62,2.97.44,1.78.2,2.5-.72,2.16.32,1.27-.44,2.6-1.44,1.44-1.05,1.78-1.39,2.12-2.16,0-2.2.76-1.85-1.17-1.44-2.88-1.79.04-2.03-.68-.72-2.16h-1.44c2.08,2.76-2.71,11.71-5.76,7.2-1.77,1.9-1.89-1.07-1.72-1.09,1.34-.15,1.24,5.82-1.88,4.69-.91,1.83-1.47,2.06-2.16,0-.44.09-.83.12-1.05-.06-1.73-1.41-.59-7.51.33-9.3,0-1.17.24-1.89.72-2.16Z"/>
    <path class="cls-19" d="M32.55,19.46c-.07.78.25,1.82-.72,2.16-.42.01-.66-.47-.72-1.44.12-.54.34-1.03.72-1.44.03.2.53.5.72.72Z"/>
    <path class="cls-52" d="M38.31,51.86l1.24-.65c2.95-7.33,5.64-8.27,8.08-2.81,3.63-7.03,6.27-7.63,7.93-1.81,3.41-8.76,5.64-5.42,7.13,1.84l1.56.9c2.38-6.33,5.92-13.88,8.02-2.76.27.63.76.93,1.41,1.06,2.72-8.91,5.05-9.89,6.97-2.92,1.31,2.74,2.05,2.9,2.2.5l1.53-.54c.29-1.32.8-1.14,1.44,0,1.14-.46,1.95.13,2.42,1.77.62-1.94,2.06-3.12,3.72-1.58l2.52,7.77c.34-1.78,1.06-2.76,2.14-2.92.54-1.35,1.02-1.59,1.44-.72.08.71,1.25,5.54,1.5,5.71.98.68,3.43-.81,3.54-.67.27.35-.16,4.37,1.87,4.99,2.76.84,3.18-3.9,3.19-5.7l2.1,5.99c3.13,2.53,4.64-.67,4.38-3.83,1.5.57,1.51,3.96,3.31,4.27,2.23.39,1.77-3.16,3.15-3.55-1.25,4.02,4.25,5.82,4.36,6.22.79,2.73.59,8.05.69,11.06.55,5.04.73,10.12.55,15.24,2.36,3.02,1.37,9.27.19,13.2-2.42,3.42-3.81,7.17-4.15,11.23,1.23,15.94-8.84,29.03-18.09,40.99-6.84,8.84-8.25,10.6-19.76,11.92-10.33,1.18-15.7,1.45-24.05-4.97-13.1-10.09-30.25-25.34-32.51-42.36-.06-8.43-.95-16.77-2.65-25-4.63-3.33-4.29-30.37-2.07-32.13,1.86-.34,3.73-.27,5.62.2-.35-2.07-.2-3.94.44-5.59-1.91-1-1.4-2.72.72-2.88.52-1.8,1.24-1.56,2.16.72,1.01-1.01,2.13-1.93,3.6-1.44.64-1.05,1.42-1.97,2.16-.72Z"/>
    <path class="cls-30" d="M29.67,56.18c.48,2.32,2.82,6.94-1.12,7.24-1.37.1-4.59-3.17-5.03,1.72-.4,4.44.14,19.47,1.13,23.77.39,1.68,2.07,2.72,2.68,5.24,4.84,19.88-2.98,27.69,13.12,45.92,5.02,5.68,20.56,20.31,26.72,23.68,4.72,2.58,24.83,1.15,29.28-2.28,4.5-3.47,21.19-27.7,23.02-33.14,2.3-6.83.87-13.74,2.69-20.35.84-3.07,3.58-5.95,3.95-8.29,1-6.24.25-19.38.04-26.24,2.07,2.82-.39,13.81.82,15.73.58.92,3.89.72,4.94.11,1.83,1.38,2.15,6.9.72,8.64-10.8,7.91-3.72,24.04-7.78,34.34-2.3,5.84-17.38,25.93-22.1,31.18-5.2,5.8-6.7,6.1-14.5,7.1-12.47,1.6-22.63,2.28-33.61-4.37-5.6-3.39-28.04-24.73-30.38-30.1-3.25-7.44-2.5-19.02-4.19-27.49-.47-2.38-3.36-10.11-3.37-10.67-2.24-1.59-2.09-6.93,0-8.64-.27-8.17.28-17.47.72-25.92.41-1.56.89-1.8,1.44-.72,1.31.55,1.75,1.92,1.32,4.12-.22-5.86,1.2-7.86,4.5-11.94l1.24-.26c1.09,1.25,2.34,1.79,3.73,1.61Z"/>
    <path class="cls-6" d="M75.03,14.42l1.71,7.99c.42,7.27,1.17,10.84,2.46.61l1.59-.68c.74-2.32,2.01-4.05,2.88-7.92l1.13-.1c1.09,4.84,2.08,9.59,2.97,14.27.18-4.04,1.22-6.12,3.1-6.25.19.06.47-.04.72,0l1.33.49c.85,2.89,1.67,5.79,2.45,8.72.13-1.75,1.6-11.35,2.37-11.98.23-.19.62-.17,1.06-.1.36.94,1.22,2,1.44,2.88.71-.12,1.11.05,1.15.64.09,1.18,1.75,12.94,2.32,13.33,1.91-1.21,3.45-.17,4.63,3.14l1.1-9.34c.34-.64.86-1.28,1.6-1.3,1.62-.7,2.75-.82,3.4-.35.33,4.25.93,8.45,1.79,12.59.39-1.33,1.06-2.29,2.02-2.88.2-.63.44-.62.72,0l1.56.64c2.5-.66,2.91-.33,3.48,2.24.56,3.58.77,7.23,1.44,10.8-1.23,1.37-2.61-4.64-5.8-2.53-.7.47-.26,2.06-1.39,1.81-.04-2.53-2.55-5.13-4.71-2.89-1.05,1.09-.39,3.4-1.77,3.61-1.23-4.45-2.5-6.96-6.48-2.87.76-4.48-3.44-9.11-3.61-2.16-.81.07-1.14-2.03-1.43-2.88-1.55-4.2-2.91-3.29-3.08.72-.7,3.09-2.29,5.35-4.07,1.59-.96-9.21-2.17-10.88-3.64-5.01-2-.21-3.45.21-4.33,1.26-.55,1.72-2.03.9-2.16-.72h-1.01c-2.42-6.8-4.39-8.06-5.91-3.76l-1.72.16c-.67-.03-1.17.17-1.44.72l-1.61-.02c-1.02-2.57-1.99-2.79-2.93-.68-2.98,7.8-5.7,9.47-7.67.14-.86.28-1.83.46-2.91.56l-2.16,2.16-1.63-.39c-.5-2.71-1.21-3.11-2.14-1.21-2.76,7.64-5.52,6.68-6.74-.54-1.85,3.37-3.7,4.37-5.55,3.01-1.67,1.18-2.84,3.14-3.49,5.87-2.58,2.06-5.11-1.19-2.76-3.13-1.95.37-2.65-.21-2.11-1.74.78-3.71,1.55-7.4,2.36-11.09.14-.64.39-.93,1.18-.85.38-1.13,2.34-2.66,1.45-5.04.21-.32,1.56,1.3,2.15,1.44l1.8.43c.48,3.05.56,6.13.26,9.24l2.6-10.34c.65-2.87,1.73-4.33,3.25-4.37.21.89,1.32,2.08,1.44,2.88l1,.29c-1.49,12.45,3.41,4.15,3.76-2.49.24-.59,1.73-3.32,2.44-2.84.86.59,1.86.73,2.88.72.58.03,1.03.23,1.05.72.28,10.38.39,10.73,3.1.42l1.61-.42c.13-.24,1.35-.69,1.44-1.44.72-.05,1.3.17,1.72.72.03,2.29,1.53,14.47,2.48,7.31l1.55-.83c-.09-.63-.33-.87-.72-.72-.7,7.99-5.22-4.01-2.16-7.2,5.02,4.34,6.54-2.23,6.49-6.48,1.26-.25.48.93.71,1.44Z"/>
    <path class="cls-48" d="M16.71,89.3c.1,2.88-.04,6,0,8.64-1.58-1.24-2.99-.51-4.32.72-.32,2.5-.97,4.89-1.96,7.19h-1.64c-2.57-6.8-4.07-12.77-2.15-20.14.56-.56,7.99,6.34,10.07,3.6Z"/>
    <path class="cls-8" d="M102.39,22.34c.88.46,2,.03,3.36-1.28l.96,2c1.96,5.57,2.46,6.98,1.48,4.22l.68-.62c.83.12,1.09,1.17,1.44,1.44.53.1.77.34.72.72l-1.39,11.82c-1.58,2.2-4.22-2.29-3.65-3.9-.34-.36-1.47,1.67-2.49,1.45-2.48-.54-2.61-13.21-3.26-15.85.7-.07,1.49.11,2.16,0Z"/>
    <path class="cls-14" d="M85.11,42.5c-1.76-6.32,2.88-1.52,3.59-2.16.2-.18.07-4.5,2.54-4.15,2.15.31,3.55,8.59,3.23,10.62,2.11.43,1.65-3.23,2.51-5.04,2.35-4.95,2.6.28,3.24,2.17l-2.15-2.88c-.04,1.19.02,2.4,0,3.6-.18,1.95-.66,3.63-1.44,5.04-.27,1.12-.02,4.69-2.44,4.29s-2.57-9.89-4.03-8.6c-1.34,5.95-3.09,2.23-4.33-.72-1.63-.27-1.98-1.02-.72-2.16Z"/>
    <path class="cls-29" d="M115.35,25.22c1.19,1.83,1.46,4.96,1.17,7.33,0,.12-.21-2.21.99-1.57,1.05,1.14,4.63.41,5.01.76.35.32,1.26,7.96,1.47,9.32-.93-2.91-4.7,1.46-5.04-2.88-.43-2.64-.67-2.64-.72,0-.02.84.15,4.17,0,4.32-.1.1-2.43.13-2.78-.11-1.84-1.26-1.82-13.05-2.27-13.58-.2-.24-1.67.18-2.15,0-.39-.15-.52-.56-.72-.72,3.26.43,3.78-.2,5.04-2.88Z"/>
    <path class="cls-48" d="M131.91,89.3c.36-3.61,2.46-5.09,5.76-6.48,1.72,5.9.47,11.55-.72,17.28-.86,1.67-2.06,1.19-3.6-1.44-.08-.23-.64-.47-.72-.72-.92-2.67-1-5.81-.72-8.64Z"/>
    <path class="cls-20" d="M28.95,30.26c2.06-3.47,3.14,1.43,2.48,3.95-1.05,3.75-1.4,7.47-1.04,11.17v.72c1.91.98.59,3.82-1.44,3.6-.2.63-.44.62-.72,0-1.29-3.39-2.01-4.11-2.16-2.16,1.27,3.32-3.56,12.19-3.6,5.04l-1.41-.72c-.6-5.29-.76-10.54-.03-15.84,0-.24,0-.48,0-.72.55-1.28,1.16-1.43,1.44,0,.07.21,1.23,1.35,1.44,1.44l.97,1.18c-1.12,4.05-.72,3.66,1.19-1.18.49-1.84,2.39-4.71,2.88-6.48Z"/>
    <path class="cls-23" d="M22.47,52.58c.75,1.76.3,3.92-1.34,6.49-.19,1.97-.94,3.17-2.26,3.59l-1.44.72c.48-9.22.97-18.46,3.6-27.36.05,1.99,1.72,15.75,1.44,16.56Z"/>
    <path class="cls-5" d="M45.51,20.18c.09.42.51,1.29.72,2.16-1.9,1.99-4.07,15.84-5.1,16.5-.24.15-2.02.13-2.09.06-.56-.53.86-9.78-.72-11.52,3.9.9,4.69-4.09,5.76-7.2.45-.65.93-.65,1.44,0Z"/>
    <path class="cls-22" d="M12.39,98.66l2.87,18.72c-3.14-2.89-4.99-7.58-6.47-11.52,1.36-2.31,1.51-5.25,3.6-7.2Z"/>
    <path class="cls-44" d="M75.03,14.42c1.09,2.34,1.69,5.16,2.67,7.03.82,1.57,1.7.82,3.09.89-.4,1.26-.96,11.8-3.95,8.63-1.81-1.92-1.6-13.32-1.81-16.55Z"/>
    <path class="cls-50" d="M86.55,15.14c1.1,3.1,1.34,6.22.73,9.36-.14.22.2-5.19,1.43-4.32.36.53,1.67,2,2.16,2.16-1.82.77-.66,10.62-3.61,8.29-2.24-1.76-1.08-13.58-3.59-16.21.27-1.19.69-2.36.73-3.6h.7c-.12,1.67.85,2.91,1.45,4.32Z"/>
    <path class="cls-29" d="M60.63,20.9q-.56,1.22,0,0c.77.61,1.92.7,2.88.72-.94,1.77-2.51,10.76-3.96,10.79-2.39.04-2.01-9.68-1.8-11.51.05-.41.83-2.88,1.08-2.89.84.63,1,2.25,1.8,2.89Z"/>
    <path class="cls-49" d="M98.79,19.46c-2.21,4.14-1.27,9.19-2.16,13.69-.83-.1-1.59.41-2.22-.44-1.68-2.27-.97-7.75-2.82-10.37.67.1,1.46-.07,2.16,0l1.18.14c.24-2.63,1.05-4.36,2.42-5.18.33.64,1.04,1.12,1.44,2.16Z"/>
    <path class="cls-18" d="M67.83,19.46c.39,2.68.51,5.9.72,8.64,2.22.36,1.11-.57,1.44-1.44.97-.96.93-.58.72.72-.34,2.04-.23,7.46-3.25,4.33-2.13-2.21-1.03-8.86-2.51-11.53l1.45-4.32c1.23-.12,1.25,2.33,1.43,3.6Z"/>
    <path class="cls-2" d="M31.83,21.62c.31,4.63-1.06,4.89.72,9.36l.7.11c-.76,4.35-1.32,8.72-1.68,13.12l-1.18,1.17c-1.86-3.85-.26-8.69.03-12.6.1-1.33.58-2.95-1.47-2.52.9-3.25,1.43-6.77,2.16-10.08.69.19.68.83.72,1.44Z"/>
    <path class="cls-35" d="M54.87,20.18c-2.08,2.08-3.83,13.22-5.05,14.4-.89.86-1.27-.08-1.62-.89-1.16-2.71-.13-5.8-.53-8.47h2.16c.43,2.35,1.04.14,1.44-1.44.16-1.07.71-2.05.72-2.16.38-.9.86-1.86,1.44-2.88.17.19,1.36,1.38,1.44,1.44Z"/>
    <path class="cls-27" d="M26.07,36.74c-.02.08.83.68.6,1.58-.98,3.78-2.4,7.52-3.12,11.38-1.07,0-.97-11.82.36-12.97.44.19,1.54-.13,2.16,0Z"/>
    <path class="cls-1" d="M34.71,30.98c-.85,2.55-2.92,9.56-2.93,11.9-.01,1.43,1.22,1.29,1.49,1.78-.3,1.5-1.53,1.81-2.88,1.44v-.72c-.37-3.66,3.29-11.55,2.16-14.4h2.16Z"/>
    <path class="cls-33" d="M97.35,17.3l-2.17,9.35c-.9.06-1.45-3.98-1.43-4.31.11-1.69,2.26-5.66,2.17-7.91,1.3-.04,1.02,2.08,1.43,2.87Z"/>
    <path class="cls-17" d="M136.95,100.1c-.65,3.14-1,4.86-2.16,7.92-.66.93-.9.69-.72-.72,1.02-4.66.68-4.5-.72-8.64l3.6,1.44Z"/>
    <path class="cls-36" d="M107.43,23.06c-.2.63-.44.62-.72,0-.65-.41-1.45-1-2.18-.4-1.62,1.34.59,4.61-2.14,4v-4.32c2.85-.46,1.51-2.48,3.59-3.6-.18,1.71.91,2.93,1.45,4.32Z"/>
    <path class="cls-7" d="M117.51,30.98c0,.23-.65,2.46-1.43,2.16l-.73-7.92c.13-.29-.09-.99,0-1.43h.7c.01,2.39,1.52,4.86,1.45,7.19Z"/>
    <path class="cls-26" d="M88.71,20.18l-1.43,4.32-.73-9.36c.69,1.63,1.1,3.48,2.16,5.04Z"/>
    <path class="cls-39" d="M51.27,23.78c-.01.07.63.38.44,1.41-.37,2.02-2.01,4.22-1.89,6.5-1.22.15-.81-2.55-.74-3.28.11-1.27.07-2.03.75-3.2.15-.27,1.34-.68,1.44-1.44Z"/>
    <path class="cls-46" d="M108.87,26.66c.12.92-.07,1.95,0,2.88-.84,1.15-2.3-5.66-2.15-6.48h.72c.49,1.25,1.24,2.08,1.44,3.6Z"/>
    <path class="cls-21" d="M53.43,18.74c-.12,2.16-1.22,6.54-1.44,2.88.16-1.65-.12-3.38,0-5.04,1.1-.3.79,1.41,1.43,2.16Z"/>
    <path class="cls-3" d="M45.51,20.18l-.37.72-1.07-.72c.35-1-.52-3.22,1.43-3.6.17,1.12-.21,2.57,0,3.6Z"/>
    <path class="cls-6" d="M98.07,48.98l-1.44.72c.4-1.65.42-3.74,1.44-5.04-.03,1.34-.15,3.04,0,4.32Z"/>
    <path class="cls-12" d="M26.07,22.35c-.87,2.16-.85,5.84-2.87,7.19.46-1.8.93-3.64,1.43-5.44.32-1.16-.77-2.13,1.44-1.76Z"/>
    <path class="cls-32" d="M134.79,108.02c-.27.72-.47,1.58-.72,2.16-.93.95-1.1.56-.72-.72.21-.86.62-1.71.72-2.16l.72.72Z"/>
    <path class="cls-15" d="M134.07,110.18c-.43.99-.55,2.4-1.43,2.16-.59-1.26.56-2.26.71-2.88l.72.72Z"/>
    <path class="cls-38" d="M22.47,35.3h-1.44c0-.26.74-2.46,1.08-2.89.8,0,.14,2.19.36,2.89Z"/>
    <path class="cls-13" d="M82.95,41.78c.86.6,1.34,1.56,1.44,2.88-.98,8.34-6.06,1.09-6.12-3.6-2.56,1.62-1.74,8.57-5,7.92s-2.57-4.8-3.64-7.2c-2.25,1.54-3.09,9.38-5.75,9.4l-2.37-2-2.31-7.4c-.22,1.25-2.39,6.27-3.26,6.47-2.35.55-2.42-4.46-3.94-5.03-1.31,5.62-5.36,10.42-7.57,2.16-1.15.92-3.66,9.75-6.12,6.48-.79-.32-1.51-.08-2.16.72-1.62,2.08-1.02,2.33-3.6,1.44-.63-.69-1.18-1.23-2.16-.72-.35.94-.6,2.64-.72,2.88-.33.63-1.67,2.35-2.51,2.16-1.3-.3-.46-3-1.8-2.87.67,2.71-2.29,3.07-2.72,3.76-1.32,2.13-.06,10.69-2.7,12.07-1.39.73-1.02-1.08-1.07-1.78-.14-1.98-.2-4.91,0-6.85.5-4.89,2.49-6.88,3.6-10.08l.73,1.43h.7c-.08-2.42.69-4.59,2.17-6.47,1.52-1.74,2.02.62,1.44,2.16,1.21-.08.35,2.4.22,2.34s.58-2.63,1.22-2.34c.43-1.03,1.03-2.84,1.44-3.6.71-1.3,1.3-1.75,2.88-1.44.78,1.37.34,2.83,1.43,2.87,1.23-3.46,3.02-9.77,7.2-5.76.23-1.76,1.29-4.04,3.24-4.34s2.17,5.2,2.54,6.5c1.67-1.16,1.96-4.11,3.26-5.72,3.13-3.86,3.72.07,4.65,2.85.6-.69,1.32-1.41,2.16-2.16.88-.74,1.44-3.21,3.63-1.84,1.26.79,1.92,5.31,2.14,6.88,2.29-1.3,3.43-10.45,7.21-8.32.57.32,1.85,2.56,2.14,3.28.43-.15.91-.39,1.44-.72,4.59-8.89,6.7-2.12,8.64,3.6Z"/>
    <path class="cls-13" d="M48.12,135.44c2.48-.79,3.18,1.71,4.32,1.94,3.49.7,18.46-2.47,25.11-1.99,4.92.36,13.19,3.28,17.3,2.94,1.82-.15,8.64-6.42,8.28.23-.55,10.02-21.78,2.87-27.7,2.55s-21.67,2.85-25.27.79c-1.5-.86-4.91-5.55-2.04-6.46Z"/>
    <path class="cls-13" d="M76.47,87.86c1.89-.5,2.89.89,2.98,4.18-.43,4.87.56,7.94,2.97,9.22,5.22-.07,12.07,4.8,8.45,9.65.47,4.46-1.59,8.3-5.76,10.08-.28,2.65-3.97,2.81-6.3,2.87-3.83.1-10.53-1.39-10.98-5.75-.04-.88-.83-1.89-.72-2.88,1.12-1,15.97,4.43,17.84-1.96,2.49-8.49-8.72-3.46-10.89-10.41-.4-1.27-1.41-11.3-1.2-12.45.52-2.84,2.12-1.97,3.6-2.55Z"/>
    <path class="cls-43" d="M31.31,72.21c1.56-1.69,11.21-3.02,13.81-3.09,4.35-.13,14.45,2.19,17.2,1.5,1.05-.26.63-3.46,3.02-3.68,3.9-.36,4.05,5.45,2.14,7.96-2.89,3.8-13.53.24-18,.01-5.55-.28-11.12.41-16.44,1.97-2.57-.4-3.48-2.76-1.71-4.67Z"/>
    <path class="cls-45" d="M88.84,69.02c.41.25,7.74-.69,9.62-.63,2.99.11,16.31,1.97,18.29,3.3,1.83,1.23,2.13,3.35.45,4.72-1.4,1.13-9.88-1.65-12.48-2.04-2.02-.3-5.87-.88-7.74-.92-3.72-.07-6.99,1.24-10.65.54-4.35-.84-3.11-8.62.46-7.68,1.44.38,1.65,2.45,2.06,2.69Z"/>
    <path class="cls-42" d="M46.95,80.66c1.19,1.46,2.63,2.18,4.32,2.16.18-1.34.55-1.83,1.44-.72.72,2.24.76,5.22.76,7.59,0,1.67-.92,4.07-.81,4.9.06.45,6.4,3.23.43,4.08-2.71.38-13.58,2.24-13.3-1.82.07-1.07,3.4-1.41,3.6-2.27.94-3.95-.9-10.83,2.85-14.64,1.15-.82,1.5-.56.72.72Z"/>
    <path class="cls-45" d="M102.39,82.82c.08.04.51-1.18,1.3.44,2.18,4.48,1.69,9.4.14,13.95,2.46-.1,5.15.24,6.85,2.16.68.48-.4,1.23-.82,1.35-.8.22-11.32-.41-12.9-.59-5.47-.61-.55-2.94-.5-3.21.15-.97-1.11-4.24-1.11-5.82,0-2.47,1.11-5.72,1.29-8.27.93-.2.86.92,1.43,1.44,1.59.05,3.03-.43,4.32-1.44Z"/>
    <path class="cls-34" d="M76.47,87.86c5.23-2.08,2.96-.86,5.43,2.11,3.68,4.43,3.11,6.17,5.77,10.08,1.84,2.7,11.33,8.9,3.19,10.85-1.04-9.87-5.72-6.39-10.78-9.02-2.86-1.48-.77-11.4-3.62-14.02Z"/>
    <path class="cls-30" d="M85.11,120.98c1.86,7.2-7.53,10.18-12.61,6.49-1.63-1.18-1.76-2.71-2.75-4.1-.3-.42-1.36-.66-1.86-1.4-.95-1.4,0-2.57-.06-3.87,4.88,4.52,11.13,5.51,17.28,2.88Z"/>
    <path class="cls-30" d="M78.63,146.18c2.09,2.08,5.26,2.99,2.5,6.47-4.26,5.36-19.44-2.41-14.74-7.91,3.3,2.69,7.16,1.71,10.97.42l1.27,1.02Z"/>
    <path class="cls-51" d="M78.63,146.18c-2.74,1.33-12.57,3.7-12.24-1.44,1.76-2.06,9.67-2.12,11.53-.34.66.63.58,1.66.71,1.78Z"/>
    <path class="cls-25" d="M102.39,82.82c-.89,3.66-1.47,4.01-4.32,1.44.24-4.45,1.79-2.78,4.32-1.44Z"/>
    <path class="cls-11" d="M52.71,82.1c-.41.28-1.1.42-1.44.72-1.16-1.14-2.6-1.86-4.32-2.16-.04-.33-.38-.65-.72-.72,2.87-2.92,5.38-1.27,6.48,2.16Z"/>
    <path class="cls-4" d="M85.11,42.5c.22.78.41,1.41.72,2.16-.47-.04-.97.06-1.44,0-2.68-.33-.95-1.44-1.44-2.88l2.16.72Z"/>
    <path class="cls-24" d="M36.15,52.58c.23-.3.11-1.73,1.09-2.15,1.56-.67.89,1.2,1.07,1.43l-2.16.72Z"/>
    <path class="cls-53" d="M32.55,54.02c-.71-.25-1.36-.72-2.16-.72.35-.94.8-1.82.73-2.88h.7s.73,3.6.73,3.6Z"/>
    <path class="cls-28" d="M57.75,38.9c-.57.73-1.62,4.44-2.15,3.59-.09-.45.11-1.08,0-1.43-.33-2.11,1.67-1.75,2.16-2.16Z"/>
    <path class="cls-40" d="M74.31,38.18c-.5.98-.21,3.11-1.43,2.88-.13-.64.18-1.7,0-2.16-.07-1.22-.26-1.68,1.07-1.43l.37.71Z"/>
    <path class="cls-41" d="M70.71,27.38l-.72-.72c.35-.94.82-1.82.73-2.88h.7c.68,1.47-.58,2.84-.71,3.6Z"/>
    <path class="cls-10" d="M118.95,38.18h-.72c.02-.82-.31-3.61.36-3.61l.36,3.61Z"/>
    <path class="cls-31" d="M28.23,49.7c-.2.63-.44.62-.72,0-.44-2.02-1.05-1.54-1.44-2.16-.23-.36-1.1-.49-.6-1.57l2.75-7.78v11.52Z"/>
    <path class="cls-37" d="M28.95,49.7c-.35.84-.26,2.34-1.08,2.89-.76-.02-.2-2.14-.36-2.89h1.44Z"/>
    <path class="cls-47" d="M60.63,20.9v3.6s-.71,0-.71,0c.15-1.25-.58-3.38.71-3.6Z"/>
    <path class="cls-16" d="M51.27,82.82c-3.48,3.11-3.85,1.56-4.32-2.16,2.37-1.43,4.66-.97,4.32,2.16Z"/>
  </g>
</svg>