<?xml version="1.0" encoding="UTF-8" standalone="no"?>
<svg
   id="Layer_2"
   data-name="Layer 2"
   viewBox="0 0 144.23618 178.5964"
   version="1.1"
   sodipodi:docname="Human_06-head.svg"
   width="144.23618"
   height="178.59641"
   xmlns:inkscape="http://www.inkscape.org/namespaces/inkscape"
   xmlns:sodipodi="http://sodipodi.sourceforge.net/DTD/sodipodi-0.dtd"
   xmlns="http://www.w3.org/2000/svg"
   xmlns:svg="http://www.w3.org/2000/svg">
  <sodipodi:namedview
     id="namedview130"
     pagecolor="#ffffff"
     bordercolor="#000000"
     borderopacity="0.25"
     inkscape:showpageshadow="2"
     inkscape:pageopacity="0.0"
     inkscape:pagecheckerboard="0"
     inkscape:deskcolor="#d1d1d1" />
  <defs
     id="defs4">
    <style
       id="style2">
      .cls-1 {
        fill: #a7a147;
      }

      .cls-2 {
        fill: #c0bc83;
      }

      .cls-3 {
        fill: #aeab76;
      }

      .cls-4 {
        fill: #c6b7a3;
      }

      .cls-5 {
        fill: #a49d38;
      }

      .cls-6 {
        fill: #c6c288;
      }

      .cls-7 {
        fill: #bab677;
      }

      .cls-8 {
        fill: #a39c34;
      }

      .cls-9 {
        fill: #080808;
      }

      .cls-10 {
        fill: #b2ac58;
      }

      .cls-11 {
        fill: #3a3835;
      }

      .cls-12 {
        fill: #21211a;
      }

      .cls-13 {
        fill: #090909;
      }

      .cls-14 {
        fill: #0c0c0b;
      }

      .cls-15 {
        fill: #78675c;
      }

      .cls-16 {
        fill: #e2e2e2;
      }

      .cls-17 {
        fill: #debca7;
      }

      .cls-18 {
        fill: #a39c37;
      }

      .cls-19 {
        fill: #83805b;
      }

      .cls-20 {
        fill: #a9a245;
      }

      .cls-21 {
        fill: #b8b47b;
      }

      .cls-22 {
        fill: #e5c3ad;
      }

      .cls-23 {
        fill: #c3bf85;
      }

      .cls-24 {
        fill: #bbb686;
      }

      .cls-25 {
        fill: #f1f1f1;
      }

      .cls-26 {
        fill: #bbb674;
      }

      .cls-27 {
        fill: #c4c086;
      }

      .cls-28 {
        fill: #c4b79d;
      }

      .cls-29 {
        fill: #a29b35;
      }

      .cls-30 {
        fill: #eac6b0;
      }

      .cls-31 {
        fill: #c5c185;
      }

      .cls-32 {
        fill: #c3a593;
      }

      .cls-33 {
        fill: #bdb97d;
      }

      .cls-34 {
        fill: #e9c6b0;
      }

      .cls-35 {
        fill: #a8a243;
      }

      .cls-36 {
        fill: #ada96d;
      }

      .cls-37 {
        fill: #949063;
      }

      .cls-38 {
        fill: #7d7937;
      }

      .cls-39 {
        fill: #beba7b;
      }

      .cls-40 {
        fill: #d6c5af;
      }

      .cls-41 {
        fill: #b4af5d;
      }

      .cls-42 {
        fill: #0a0a09;
      }

      .cls-43 {
        fill: #0a0909;
      }

      .cls-44 {
        fill: #a49d37;
      }

      .cls-45 {
        fill: #0a0a0a;
      }

      .cls-46 {
        fill: #b9b577;
      }

      .cls-47 {
        fill: #bcb76f;
      }

      .cls-48 {
        fill: #f0dcc7;
      }

      .cls-49 {
        fill: #a49e3a;
      }

      .cls-50 {
        fill: #a39d39;
      }

      .cls-51 {
        fill: #110f0f;
      }

      .cls-52 {
        fill: #f1ddc8;
      }

      .cls-53 {
        fill: #b7b282;
      }
    </style>
  </defs>
  <g
     id="Layer_1-2"
     data-name="Layer 1"
     transform="translate(-0.00426268,6.7904193e-5)">
    <path
       class="cls-9"
       d="m 32.55,19.46 c 0.23,-2.77 0.28,-10.73 5.05,-8.3 1.7,0.87 1.05,2.68 1.79,3.98 2.53,-4.26 3.39,-20.08 9.36,-9.35 0.29,-2.39 6.01,-4.1 7.57,-3.28 1.73,0.91 3.89,9.5 6.11,11.19 0.95,-2.56 1.25,-11.55 5.82,-7.98 1.4,1.09 0.88,3.85 2.45,4.38 0,-2.01 0.84,-7 3.26,-7.24 3.23,-0.33 3.64,4.82 4.59,6.96 0.26,0.59 0.44,2.4 1.51,1.01 0.73,-0.94 0.18,-10.86 3.97,-10.83 3,0.02 5.57,8.95 6.13,11.54 l 1.59,-7.4 c 4.48,-6.99 6.99,2.79 8.49,6.68 1.81,-1.08 0.85,-4.59 2.09,-6.17 4.61,-5.88 7.54,10.8 8.71,13.37 l 2.1,-6.89 c 5.68,-4.43 5.69,3.89 6.63,4.64 0.42,0.34 2.34,-0.1 3.51,0.44 2.13,0.98 4.12,10.64 4.7,13.3 3.57,16.27 3.76,33.11 4.66,49.7 0.68,0.75 6.5,-5.29 9.93,2.67 4.36,10.13 -0.71,24.79 -4.99,34.31 -0.92,2.06 -4.52,7.22 -4.79,8.17 -0.67,2.38 -0.18,5.96 -1.07,9.01 -1.91,6.54 -20.06,30.12 -25.35,35.85 -4.25,4.61 -5.84,6.84 -12.34,7.82 -13.8,2.09 -29.52,3.17 -41.81,-4.09 -6.46,-3.82 -28.43,-25.01 -32.02,-31.34 -3.59,-6.33 -2.51,-10.58 -4.32,-15.84 -0.18,-0.53 -4.9,-4.18 -6.01,-5.51 -4.32,-5.17 -9.2,-17.39 -9.74,-24.09 -0.59,-7.29 0.56,-20.41 10.82,-14.79 0.27,-17.6 -0.66,-41.37 7.9,-57.26 3.1,-5.75 6.75,-1.92 7.22,-2.5 0.35,-0.42 -0.37,-6.19 2.66,-7.09 3.79,-1.13 2.81,2.18 3.11,4.21 0.38,0.89 0.28,1.47 -0.72,1.44 0.63,4.23 -0.09,7.59 -2.16,10.08 1.36,1.53 -0.43,6.28 -2.88,6.48 -0.39,2 -1.66,2.01 -2.16,0 -1.68,1.27 -2.39,0.29 -1.44,-1.44 -1.24,0.23 -0.26,-2.64 -0.19,-2.51 0.07,0.13 -0.49,2.85 -1.25,2.51 0.64,0.13 0.62,0.38 0,0.72 -0.22,9.37 -1.42,18.49 -3.6,27.36 0.83,7.18 1.39,15.77 0.66,23.14 -0.11,1.05 -0.76,1.96 -1.38,2.78 -0.28,3.15 -2.66,2.11 -4.93,1.04 -3.94,-3.66 -5.45,-2.51 -4.52,3.45 0.96,4.09 1.47,8.12 1.53,12.07 1.89,0.89 3.28,2.9 4.17,6.02 -1.27,-4.58 -1.46,-8.99 -0.57,-13.22 -1.34,-2.83 4.23,-4.26 4.32,-0.72 l 1.51,0.11 c 3.76,8.81 4.43,17.94 5.09,27.44 0.41,5.43 1.45,9.13 4.6,13.37 5.51,7.43 23.58,25.13 32.09,28.49 8.52,3.36 27.31,4.03 35.63,0.28 6,-2.7 17.39,-19.38 21.28,-25.11 7.6,-11.19 9.05,-16.54 7.93,-30.4 0.21,-4.89 2.05,-14.54 7.79,-14.18 0.98,-0.98 1.38,-0.56 0.72,0.72 3.32,1.66 2.46,6.19 0.72,8.64 0.48,0.74 0.1,1.84 -0.72,2.16 0.14,0.95 0.38,1.19 0.72,0.72 -0.47,-0.8 -0.13,-1.77 0.72,-2.16 0.38,-2.35 0.57,-4.77 0.58,-7.26 l 1.58,-0.66 -1.13,-1.66 c 1.27,-4.22 2.82,-19.95 -2.38,-9.71 l -1.54,0.58 c -1.17,3.65 -5.86,2.42 -5.3,-1.84 0.26,-4.69 0.11,-9.36 -0.46,-14 l -1.46,-0.74 -0.17,-6.95 c 0.19,-3.3 -4.01,-5.94 -6.76,-4.63 l -2.46,-1.43 c -1.91,3.07 -5.7,2.24 -6.82,-1.04 -2.79,3.73 -6.14,1.4 -6.78,-2.62 -4.18,1.25 -5.25,-4.52 -3.64,-7.07 -0.79,-0.94 -0.79,-2.38 0,-4.32 -1.94,-4.28 0.71,-5.63 2.16,-0.72 1.37,-1.25 1.1,2.5 1.07,2.33 -1.2,-6.01 3.87,-5.52 5.22,-0.64 2.47,-0.22 4.17,-0.13 5.48,2.32 2.23,-3.12 4.73,-2.07 7.16,0 1.4,-0.8 2.94,-0.62 4.17,0.38 -0.69,-2.86 -0.46,-5.28 0.67,-7.28 -1.69,-1.79 -2.56,-4.45 -2.62,-7.98 -2.81,0.43 -4.1,-0.27 -3.86,-2.1 l -0.83,-0.32 c -0.15,-2.41 -0.6,-4.23 -1.33,-5.44 l -0.51,3.29 c -0.83,0.8 -2.34,0.66 -4.53,-0.41 -0.65,0.31 -1.13,-0.17 -1.44,-1.44 -1.23,-0.42 -1.73,-2.37 -1.44,-3.6 -1.61,-1.33 -2.84,-1.57 -4.22,0.08 l -0.82,-0.8 c -0.28,2.07 -1.49,1.94 -2.16,0 -1.46,0.22 -1.94,-0.74 -1.44,-2.88 -1.07,0.32 -1.55,-0.4 -1.44,-2.16 -1.5,0.9 -0.98,-2.56 -0.97,-2.39 0.15,2.16 -0.46,6.94 -2.63,7.43 -0.55,1.82 -1.27,1.82 -2.16,0 -0.21,0.63 -0.45,0.63 -0.72,0 -1.98,1.85 -2.38,-0.22 -2.16,-2.16 l -0.98,0.06 -1.18,-5.1 c -0.98,-0.45 -1.94,-0.69 -2.88,-0.72 0.69,2.82 0.33,7.22 -2.88,7.92 -0.14,0.6 -0.49,1.05 -0.88,1.49 -2.75,3.05 -4.94,-7.84 -4.88,-9.41 l -0.39,-0.07 c 0.95,3.92 -2.55,12.58 -6.81,5.11 -0.65,-0.37 -1.61,-0.13 -2.88,0.72 0.3,1.66 0.1,2.5 -1.44,1.44 -1.11,2.19 -2.65,1.66 -2.88,-0.72 -0.95,0.13 -1.91,0.13 -2.88,0 -0.62,2.28 -2.99,1.65 -2.88,-0.72 -0.83,0.88 -1.31,0.4 -1.44,-1.44 l -0.82,-0.09 c 0.26,-2.54 0.05,-1.55 -0.62,2.97 0.44,1.78 0.2,2.5 -0.72,2.16 0.32,1.27 -0.44,2.6 -1.44,1.44 -1.05,1.78 -1.39,2.12 -2.16,0 -2.2,0.76 -1.85,-1.17 -1.44,-2.88 -1.79,0.04 -2.03,-0.68 -0.72,-2.16 h -1.44 c 2.08,2.76 -2.71,11.71 -5.76,7.2 -1.77,1.9 -1.89,-1.07 -1.72,-1.09 1.34,-0.15 1.24,5.82 -1.88,4.69 -0.91,1.83 -1.47,2.06 -2.16,0 -0.44,0.09 -0.83,0.12 -1.05,-0.06 -1.73,-1.41 -0.59,-7.51 0.33,-9.3 0,-1.17 0.24,-1.89 0.72,-2.16 z"
       id="path6" />
    <path
       class="cls-19"
       d="m 32.55,19.46 c -0.07,0.78 0.25,1.82 -0.72,2.16 -0.42,0.01 -0.66,-0.47 -0.72,-1.44 0.12,-0.54 0.34,-1.03 0.72,-1.44 0.03,0.2 0.53,0.5 0.72,0.72 z"
       id="path8" />
    <path
       class="cls-52"
       d="m 38.31,51.86 1.24,-0.65 c 2.95,-7.33 5.64,-8.27 8.08,-2.81 3.63,-7.03 6.27,-7.63 7.93,-1.81 3.41,-8.76 5.64,-5.42 7.13,1.84 l 1.56,0.9 c 2.38,-6.33 5.92,-13.88 8.02,-2.76 0.27,0.63 0.76,0.93 1.41,1.06 2.72,-8.91 5.05,-9.89 6.97,-2.92 1.31,2.74 2.05,2.9 2.2,0.5 l 1.53,-0.54 c 0.29,-1.32 0.8,-1.14 1.44,0 1.14,-0.46 1.95,0.13 2.42,1.77 0.62,-1.94 2.06,-3.12 3.72,-1.58 l 2.52,7.77 c 0.34,-1.78 1.06,-2.76 2.14,-2.92 0.54,-1.35 1.02,-1.59 1.44,-0.72 0.08,0.71 1.25,5.54 1.5,5.71 0.98,0.68 3.43,-0.81 3.54,-0.67 0.27,0.35 -0.16,4.37 1.87,4.99 2.76,0.84 3.18,-3.9 3.19,-5.7 l 2.1,5.99 c 3.13,2.53 4.64,-0.67 4.38,-3.83 1.5,0.57 1.51,3.96 3.31,4.27 2.23,0.39 1.77,-3.16 3.15,-3.55 -1.25,4.02 4.25,5.82 4.36,6.22 0.79,2.73 0.59,8.05 0.69,11.06 0.55,5.04 0.73,10.12 0.55,15.24 2.36,3.02 1.37,9.27 0.19,13.2 -2.42,3.42 -3.81,7.17 -4.15,11.23 1.23,15.94 -8.84,29.03 -18.09,40.99 -6.84,8.84 -8.25,10.6 -19.76,11.92 -10.33,1.18 -15.7,1.45 -24.05,-4.97 C 47.74,151 30.59,135.75 28.33,118.73 28.27,110.3 27.38,101.96 25.68,93.73 21.05,90.4 21.39,63.36 23.61,61.6 c 1.86,-0.34 3.73,-0.27 5.62,0.2 -0.35,-2.07 -0.2,-3.94 0.44,-5.59 -1.91,-1 -1.4,-2.72 0.72,-2.88 0.52,-1.8 1.24,-1.56 2.16,0.72 1.01,-1.01 2.13,-1.93 3.6,-1.44 0.64,-1.05 1.42,-1.97 2.16,-0.72 z"
       id="path10" />
    <path
       class="cls-30"
       d="m 29.67,56.18 c 0.48,2.32 2.82,6.94 -1.12,7.24 -1.37,0.1 -4.59,-3.17 -5.03,1.72 -0.4,4.44 0.14,19.47 1.13,23.77 0.39,1.68 2.07,2.72 2.68,5.24 4.84,19.88 -2.98,27.69 13.12,45.92 5.02,5.68 20.56,20.31 26.72,23.68 4.72,2.58 24.83,1.15 29.28,-2.28 4.5,-3.47 21.19,-27.7 23.02,-33.14 2.3,-6.83 0.87,-13.74 2.69,-20.35 0.84,-3.07 3.58,-5.95 3.95,-8.29 1,-6.24 0.25,-19.38 0.04,-26.24 2.07,2.82 -0.39,13.81 0.82,15.73 0.58,0.92 3.89,0.72 4.94,0.11 1.83,1.38 2.15,6.9 0.72,8.64 -10.8,7.91 -3.72,24.04 -7.78,34.34 -2.3,5.84 -17.38,25.93 -22.1,31.18 -5.2,5.8 -6.7,6.1 -14.5,7.1 -12.47,1.6 -22.63,2.28 -33.61,-4.37 -5.6,-3.39 -28.04,-24.73 -30.38,-30.1 -3.25,-7.44 -2.5,-19.02 -4.19,-27.49 -0.47,-2.38 -3.36,-10.11 -3.37,-10.67 -2.24,-1.59 -2.09,-6.93 0,-8.64 -0.27,-8.17 0.28,-17.47 0.72,-25.92 0.41,-1.56 0.89,-1.8 1.44,-0.72 1.31,0.55 1.75,1.92 1.32,4.12 -0.22,-5.86 1.2,-7.86 4.5,-11.94 l 1.24,-0.26 c 1.09,1.25 2.34,1.79 3.73,1.61 z"
       id="path12" />
    <path
       class="cls-6"
       d="m 75.03,14.42 1.71,7.99 c 0.42,7.27 1.17,10.84 2.46,0.61 l 1.59,-0.68 c 0.74,-2.32 2.01,-4.05 2.88,-7.92 l 1.13,-0.1 c 1.09,4.84 2.08,9.59 2.97,14.27 0.18,-4.04 1.22,-6.12 3.1,-6.25 0.19,0.06 0.47,-0.04 0.72,0 l 1.33,0.49 c 0.85,2.89 1.67,5.79 2.45,8.72 0.13,-1.75 1.6,-11.35 2.37,-11.98 0.23,-0.19 0.62,-0.17 1.06,-0.1 0.36,0.94 1.22,2 1.44,2.88 0.71,-0.12 1.11,0.05 1.15,0.64 0.09,1.18 1.75,12.94 2.32,13.33 1.91,-1.21 3.45,-0.17 4.63,3.14 l 1.1,-9.34 c 0.34,-0.64 0.86,-1.28 1.6,-1.3 1.62,-0.7 2.75,-0.82 3.4,-0.35 0.33,4.25 0.93,8.45 1.79,12.59 0.39,-1.33 1.06,-2.29 2.02,-2.88 0.2,-0.63 0.44,-0.62 0.72,0 l 1.56,0.64 c 2.5,-0.66 2.91,-0.33 3.48,2.24 0.56,3.58 0.77,7.23 1.44,10.8 -1.23,1.37 -2.61,-4.64 -5.8,-2.53 -0.7,0.47 -0.26,2.06 -1.39,1.81 -0.04,-2.53 -2.55,-5.13 -4.71,-2.89 -1.05,1.09 -0.39,3.4 -1.77,3.61 -1.23,-4.45 -2.5,-6.96 -6.48,-2.87 0.76,-4.48 -3.44,-9.11 -3.61,-2.16 -0.81,0.07 -1.14,-2.03 -1.43,-2.88 -1.55,-4.2 -2.91,-3.29 -3.08,0.72 -0.7,3.09 -2.29,5.35 -4.07,1.59 -0.96,-9.21 -2.17,-10.88 -3.64,-5.01 -2,-0.21 -3.45,0.21 -4.33,1.26 -0.55,1.72 -2.03,0.9 -2.16,-0.72 h -1.01 c -2.42,-6.8 -4.39,-8.06 -5.91,-3.76 l -1.72,0.16 c -0.67,-0.03 -1.17,0.17 -1.44,0.72 l -1.61,-0.02 c -1.02,-2.57 -1.99,-2.79 -2.93,-0.68 -2.98,7.8 -5.7,9.47 -7.67,0.14 -0.86,0.28 -1.83,0.46 -2.91,0.56 l -2.16,2.16 -1.63,-0.39 c -0.5,-2.71 -1.21,-3.11 -2.14,-1.21 -2.76,7.64 -5.52,6.68 -6.74,-0.54 -1.85,3.37 -3.7,4.37 -5.55,3.01 -1.67,1.18 -2.84,3.14 -3.49,5.87 -2.58,2.06 -5.11,-1.19 -2.76,-3.13 -1.95,0.37 -2.65,-0.21 -2.11,-1.74 0.78,-3.71 1.55,-7.4 2.36,-11.09 0.14,-0.64 0.39,-0.93 1.18,-0.85 0.38,-1.13 2.34,-2.66 1.45,-5.04 0.21,-0.32 1.56,1.3 2.15,1.44 l 1.8,0.43 c 0.48,3.05 0.56,6.13 0.26,9.24 L 43,26.73 c 0.65,-2.87 1.73,-4.33 3.25,-4.37 0.21,0.89 1.32,2.08 1.44,2.88 l 1,0.29 c -1.49,12.45 3.41,4.15 3.76,-2.49 0.24,-0.59 1.73,-3.32 2.44,-2.84 0.86,0.59 1.86,0.73 2.88,0.72 0.58,0.03 1.03,0.23 1.05,0.72 0.28,10.38 0.39,10.73 3.1,0.42 l 1.61,-0.42 c 0.13,-0.24 1.35,-0.69 1.44,-1.44 0.72,-0.05 1.3,0.17 1.72,0.72 0.03,2.29 1.53,14.47 2.48,7.31 L 70.72,27.4 C 70.63,26.77 70.39,26.53 70,26.68 c -0.7,7.99 -5.22,-4.01 -2.16,-7.2 5.02,4.34 6.54,-2.23 6.49,-6.48 1.26,-0.25 0.48,0.93 0.71,1.44 z"
       id="path14" />
    <path
       class="cls-48"
       d="m 16.71,89.3 c 0.1,2.88 -0.04,6 0,8.64 -1.58,-1.24 -2.99,-0.51 -4.32,0.72 -0.32,2.5 -0.97,4.89 -1.96,7.19 H 8.79 C 6.22,99.05 4.72,93.08 6.64,85.71 c 0.56,-0.56 7.99,6.34 10.07,3.6 z"
       id="path16" />
    <path
       class="cls-8"
       d="m 102.39,22.34 c 0.88,0.46 2,0.03 3.36,-1.28 l 0.96,2 c 1.96,5.57 2.46,6.98 1.48,4.22 l 0.68,-0.62 c 0.83,0.12 1.09,1.17 1.44,1.44 0.53,0.1 0.77,0.34 0.72,0.72 l -1.39,11.82 c -1.58,2.2 -4.22,-2.29 -3.65,-3.9 -0.34,-0.36 -1.47,1.67 -2.49,1.45 -2.48,-0.54 -2.61,-13.21 -3.26,-15.85 0.7,-0.07 1.49,0.11 2.16,0 z"
       id="path18" />
    <path
       class="cls-14"
       d="m 85.11,42.5 c -1.76,-6.32 2.88,-1.52 3.59,-2.16 0.2,-0.18 0.07,-4.5 2.54,-4.15 2.15,0.31 3.55,8.59 3.23,10.62 2.11,0.43 1.65,-3.23 2.51,-5.04 2.35,-4.95 2.6,0.28 3.24,2.17 l -2.15,-2.88 c -0.04,1.19 0.02,2.4 0,3.6 -0.18,1.95 -0.66,3.63 -1.44,5.04 -0.27,1.12 -0.02,4.69 -2.44,4.29 -2.42,-0.4 -2.57,-9.89 -4.03,-8.6 -1.34,5.95 -3.09,2.23 -4.33,-0.72 -1.63,-0.27 -1.98,-1.02 -0.72,-2.16 z"
       id="path20" />
    <path
       class="cls-29"
       d="m 115.35,25.22 c 1.19,1.83 1.46,4.96 1.17,7.33 0,0.12 -0.21,-2.21 0.99,-1.57 1.05,1.14 4.63,0.41 5.01,0.76 0.35,0.32 1.26,7.96 1.47,9.32 -0.93,-2.91 -4.7,1.46 -5.04,-2.88 -0.43,-2.64 -0.67,-2.64 -0.72,0 -0.02,0.84 0.15,4.17 0,4.32 -0.1,0.1 -2.43,0.13 -2.78,-0.11 -1.84,-1.26 -1.82,-13.05 -2.27,-13.58 -0.2,-0.24 -1.67,0.18 -2.15,0 -0.39,-0.15 -0.52,-0.56 -0.72,-0.72 3.26,0.43 3.78,-0.2 5.04,-2.88 z"
       id="path22" />
    <path
       class="cls-48"
       d="m 131.91,89.3 c 0.36,-3.61 2.46,-5.09 5.76,-6.48 1.72,5.9 0.47,11.55 -0.72,17.28 -0.86,1.67 -2.06,1.19 -3.6,-1.44 -0.08,-0.23 -0.64,-0.47 -0.72,-0.72 -0.92,-2.67 -1,-5.81 -0.72,-8.64 z"
       id="path24" />
    <path
       class="cls-20"
       d="m 28.95,30.26 c 2.06,-3.47 3.14,1.43 2.48,3.95 -1.05,3.75 -1.4,7.47 -1.04,11.17 v 0.72 c 1.91,0.98 0.59,3.82 -1.44,3.6 -0.2,0.63 -0.44,0.62 -0.72,0 -1.29,-3.39 -2.01,-4.11 -2.16,-2.16 1.27,3.32 -3.56,12.19 -3.6,5.04 l -1.41,-0.72 c -0.6,-5.29 -0.76,-10.54 -0.03,-15.84 0,-0.24 0,-0.48 0,-0.72 0.55,-1.28 1.16,-1.43 1.44,0 0.07,0.21 1.23,1.35 1.44,1.44 l 0.97,1.18 c -1.12,4.05 -0.72,3.66 1.19,-1.18 0.49,-1.84 2.39,-4.71 2.88,-6.48 z"
       id="path26" />
    <path
       class="cls-23"
       d="m 22.47,52.58 c 0.75,1.76 0.3,3.92 -1.34,6.49 -0.19,1.97 -0.94,3.17 -2.26,3.59 l -1.44,0.72 c 0.48,-9.22 0.97,-18.46 3.6,-27.36 0.05,1.99 1.72,15.75 1.44,16.56 z"
       id="path28" />
    <path
       class="cls-5"
       d="m 45.51,20.18 c 0.09,0.42 0.51,1.29 0.72,2.16 -1.9,1.99 -4.07,15.84 -5.1,16.5 -0.24,0.15 -2.02,0.13 -2.09,0.06 -0.56,-0.53 0.86,-9.78 -0.72,-11.52 3.9,0.9 4.69,-4.09 5.76,-7.2 0.45,-0.65 0.93,-0.65 1.44,0 z"
       id="path30" />
    <path
       class="cls-22"
       d="m 12.39,98.66 2.87,18.72 c -3.14,-2.89 -4.99,-7.58 -6.47,-11.52 1.36,-2.31 1.51,-5.25 3.6,-7.2 z"
       id="path32" />
    <path
       class="cls-44"
       d="m 75.03,14.42 c 1.09,2.34 1.69,5.16 2.67,7.03 0.82,1.57 1.7,0.82 3.09,0.89 -0.4,1.26 -0.96,11.8 -3.95,8.63 -1.81,-1.92 -1.6,-13.32 -1.81,-16.55 z"
       id="path34" />
    <path
       class="cls-50"
       d="m 86.55,15.14 c 1.1,3.1 1.34,6.22 0.73,9.36 -0.14,0.22 0.2,-5.19 1.43,-4.32 0.36,0.53 1.67,2 2.16,2.16 -1.82,0.77 -0.66,10.62 -3.61,8.29 -2.24,-1.76 -1.08,-13.58 -3.59,-16.21 0.27,-1.19 0.69,-2.36 0.73,-3.6 h 0.7 c -0.12,1.67 0.85,2.91 1.45,4.32 z"
       id="path36" />
    <path
       class="cls-29"
       d="m 60.63,20.9 q -0.56,1.22 0,0 c 0.77,0.61 1.92,0.7 2.88,0.72 -0.94,1.77 -2.51,10.76 -3.96,10.79 -2.39,0.04 -2.01,-9.68 -1.8,-11.51 0.05,-0.41 0.83,-2.88 1.08,-2.89 0.84,0.63 1,2.25 1.8,2.89 z"
       id="path38" />
    <path
       class="cls-49"
       d="m 98.79,19.46 c -2.21,4.14 -1.27,9.19 -2.16,13.69 -0.83,-0.1 -1.59,0.41 -2.22,-0.44 -1.68,-2.27 -0.97,-7.75 -2.82,-10.37 0.67,0.1 1.46,-0.07 2.16,0 l 1.18,0.14 c 0.24,-2.63 1.05,-4.36 2.42,-5.18 0.33,0.64 1.04,1.12 1.44,2.16 z"
       id="path40" />
    <path
       class="cls-18"
       d="m 67.83,19.46 c 0.39,2.68 0.51,5.9 0.72,8.64 2.22,0.36 1.11,-0.57 1.44,-1.44 0.97,-0.96 0.93,-0.58 0.72,0.72 -0.34,2.04 -0.23,7.46 -3.25,4.33 -2.13,-2.21 -1.03,-8.86 -2.51,-11.53 l 1.45,-4.32 c 1.23,-0.12 1.25,2.33 1.43,3.6 z"
       id="path42" />
    <path
       class="cls-2"
       d="m 31.83,21.62 c 0.31,4.63 -1.06,4.89 0.72,9.36 l 0.7,0.11 c -0.76,4.35 -1.32,8.72 -1.68,13.12 l -1.18,1.17 c -1.86,-3.85 -0.26,-8.69 0.03,-12.6 0.1,-1.33 0.58,-2.95 -1.47,-2.52 0.9,-3.25 1.43,-6.77 2.16,-10.08 0.69,0.19 0.68,0.83 0.72,1.44 z"
       id="path44" />
    <path
       class="cls-35"
       d="m 54.87,20.18 c -2.08,2.08 -3.83,13.22 -5.05,14.4 -0.89,0.86 -1.27,-0.08 -1.62,-0.89 -1.16,-2.71 -0.13,-5.8 -0.53,-8.47 h 2.16 c 0.43,2.35 1.04,0.14 1.44,-1.44 0.16,-1.07 0.71,-2.05 0.72,-2.16 0.38,-0.9 0.86,-1.86 1.44,-2.88 0.17,0.19 1.36,1.38 1.44,1.44 z"
       id="path46" />
    <path
       class="cls-27"
       d="m 26.07,36.74 c -0.02,0.08 0.83,0.68 0.6,1.58 -0.98,3.78 -2.4,7.52 -3.12,11.38 -1.07,0 -0.97,-11.82 0.36,-12.97 0.44,0.19 1.54,-0.13 2.16,0 z"
       id="path48" />
    <path
       class="cls-1"
       d="m 34.71,30.98 c -0.85,2.55 -2.92,9.56 -2.93,11.9 -0.01,1.43 1.22,1.29 1.49,1.78 -0.3,1.5 -1.53,1.81 -2.88,1.44 v -0.72 c -0.37,-3.66 3.29,-11.55 2.16,-14.4 z"
       id="path50" />
    <path
       class="cls-33"
       d="m 97.35,17.3 -2.17,9.35 c -0.9,0.06 -1.45,-3.98 -1.43,-4.31 0.11,-1.69 2.26,-5.66 2.17,-7.91 1.3,-0.04 1.02,2.08 1.43,2.87 z"
       id="path52" />
    <path
       class="cls-17"
       d="m 136.95,100.1 c -0.65,3.14 -1,4.86 -2.16,7.92 -0.66,0.93 -0.9,0.69 -0.72,-0.72 1.02,-4.66 0.68,-4.5 -0.72,-8.64 z"
       id="path54" />
    <path
       class="cls-36"
       d="m 107.43,23.06 c -0.2,0.63 -0.44,0.62 -0.72,0 -0.65,-0.41 -1.45,-1 -2.18,-0.4 -1.62,1.34 0.59,4.61 -2.14,4 v -4.32 c 2.85,-0.46 1.51,-2.48 3.59,-3.6 -0.18,1.71 0.91,2.93 1.45,4.32 z"
       id="path56" />
    <path
       class="cls-7"
       d="m 117.51,30.98 c 0,0.23 -0.65,2.46 -1.43,2.16 l -0.73,-7.92 c 0.13,-0.29 -0.09,-0.99 0,-1.43 h 0.7 c 0.01,2.39 1.52,4.86 1.45,7.19 z"
       id="path58" />
    <path
       class="cls-26"
       d="m 88.71,20.18 -1.43,4.32 -0.73,-9.36 c 0.69,1.63 1.1,3.48 2.16,5.04 z"
       id="path60" />
    <path
       class="cls-39"
       d="m 51.27,23.78 c -0.01,0.07 0.63,0.38 0.44,1.41 -0.37,2.02 -2.01,4.22 -1.89,6.5 -1.22,0.15 -0.81,-2.55 -0.74,-3.28 0.11,-1.27 0.07,-2.03 0.75,-3.2 0.15,-0.27 1.34,-0.68 1.44,-1.44 z"
       id="path62" />
    <path
       class="cls-46"
       d="m 108.87,26.66 c 0.12,0.92 -0.07,1.95 0,2.88 -0.84,1.15 -2.3,-5.66 -2.15,-6.48 h 0.72 c 0.49,1.25 1.24,2.08 1.44,3.6 z"
       id="path64" />
    <path
       class="cls-21"
       d="m 53.43,18.74 c -0.12,2.16 -1.22,6.54 -1.44,2.88 0.16,-1.65 -0.12,-3.38 0,-5.04 1.1,-0.3 0.79,1.41 1.43,2.16 z"
       id="path66" />
    <path
       class="cls-3"
       d="m 45.51,20.18 -0.37,0.72 -1.07,-0.72 c 0.35,-1 -0.52,-3.22 1.43,-3.6 0.17,1.12 -0.21,2.57 0,3.6 z"
       id="path68" />
    <path
       class="cls-6"
       d="m 98.07,48.98 -1.44,0.72 c 0.4,-1.65 0.42,-3.74 1.44,-5.04 -0.03,1.34 -0.15,3.04 0,4.32 z"
       id="path70" />
    <path
       class="cls-12"
       d="m 26.07,22.35 c -0.87,2.16 -0.85,5.84 -2.87,7.19 0.46,-1.8 0.93,-3.64 1.43,-5.44 0.32,-1.16 -0.77,-2.13 1.44,-1.76 z"
       id="path72" />
    <path
       class="cls-32"
       d="m 134.79,108.02 c -0.27,0.72 -0.47,1.58 -0.72,2.16 -0.93,0.95 -1.1,0.56 -0.72,-0.72 0.21,-0.86 0.62,-1.71 0.72,-2.16 z"
       id="path74" />
    <path
       class="cls-15"
       d="m 134.07,110.18 c -0.43,0.99 -0.55,2.4 -1.43,2.16 -0.59,-1.26 0.56,-2.26 0.71,-2.88 z"
       id="path76" />
    <path
       class="cls-38"
       d="m 22.47,35.3 h -1.44 c 0,-0.26 0.74,-2.46 1.08,-2.89 0.8,0 0.14,2.19 0.36,2.89 z"
       id="path78" />
    <path
       class="cls-13"
       d="m 82.95,41.78 c 0.86,0.6 1.34,1.56 1.44,2.88 -0.98,8.34 -6.06,1.09 -6.12,-3.6 -2.56,1.62 -1.74,8.57 -5,7.92 -3.26,-0.65 -2.57,-4.8 -3.64,-7.2 -2.25,1.54 -3.09,9.38 -5.75,9.4 l -2.37,-2 -2.31,-7.4 c -0.22,1.25 -2.39,6.27 -3.26,6.47 -2.35,0.55 -2.42,-4.46 -3.94,-5.03 -1.31,5.62 -5.36,10.42 -7.57,2.16 -1.15,0.92 -3.66,9.75 -6.12,6.48 -0.79,-0.32 -1.51,-0.08 -2.16,0.72 -1.62,2.08 -1.02,2.33 -3.6,1.44 -0.63,-0.69 -1.18,-1.23 -2.16,-0.72 -0.35,0.94 -0.6,2.64 -0.72,2.88 -0.33,0.63 -1.67,2.35 -2.51,2.16 -1.3,-0.3 -0.46,-3 -1.8,-2.87 0.67,2.71 -2.29,3.07 -2.72,3.76 -1.32,2.13 -0.06,10.69 -2.7,12.07 -1.39,0.73 -1.02,-1.08 -1.07,-1.78 -0.14,-1.98 -0.2,-4.91 0,-6.85 0.5,-4.89 2.49,-6.88 3.6,-10.08 l 0.73,1.43 h 0.7 c -0.08,-2.42 0.69,-4.59 2.17,-6.47 1.52,-1.74 2.02,0.62 1.44,2.16 1.21,-0.08 0.35,2.4 0.22,2.34 -0.13,-0.06 0.58,-2.63 1.22,-2.34 0.43,-1.03 1.03,-2.84 1.44,-3.6 0.71,-1.3 1.3,-1.75 2.88,-1.44 0.78,1.37 0.34,2.83 1.43,2.87 1.23,-3.46 3.02,-9.77 7.2,-5.76 0.23,-1.76 1.29,-4.04 3.24,-4.34 1.95,-0.3 2.17,5.2 2.54,6.5 1.67,-1.16 1.96,-4.11 3.26,-5.72 3.13,-3.86 3.72,0.07 4.65,2.85 0.6,-0.69 1.32,-1.41 2.16,-2.16 0.88,-0.74 1.44,-3.21 3.63,-1.84 1.26,0.79 1.92,5.31 2.14,6.88 2.29,-1.3 3.43,-10.45 7.21,-8.32 0.57,0.32 1.85,2.56 2.14,3.28 0.43,-0.15 0.91,-0.39 1.44,-0.72 4.59,-8.89 6.7,-2.12 8.64,3.6 z"
       id="path80" />
    <path
       class="cls-13"
       d="m 48.12,135.44 c 2.48,-0.79 3.18,1.71 4.32,1.94 3.49,0.7 18.46,-2.47 25.11,-1.99 4.92,0.36 13.19,3.28 17.3,2.94 1.82,-0.15 8.64,-6.42 8.28,0.23 -0.55,10.02 -21.78,2.87 -27.7,2.55 -5.92,-0.32 -21.67,2.85 -25.27,0.79 -1.5,-0.86 -4.91,-5.55 -2.04,-6.46 z"
       id="path82" />
    <path
       class="cls-13"
       d="m 76.47,87.86 c 1.89,-0.5 2.89,0.89 2.98,4.18 -0.43,4.87 0.56,7.94 2.97,9.22 5.22,-0.07 12.07,4.8 8.45,9.65 0.47,4.46 -1.59,8.3 -5.76,10.08 -0.28,2.65 -3.97,2.81 -6.3,2.87 -3.83,0.1 -10.53,-1.39 -10.98,-5.75 -0.04,-0.88 -0.83,-1.89 -0.72,-2.88 1.12,-1 15.97,4.43 17.84,-1.96 2.49,-8.49 -8.72,-3.46 -10.89,-10.41 -0.4,-1.27 -1.41,-11.3 -1.2,-12.45 0.52,-2.84 2.12,-1.97 3.6,-2.55 z"
       id="path84" />
    <path
       class="cls-43"
       d="m 31.31,72.21 c 1.56,-1.69 11.21,-3.02 13.81,-3.09 4.35,-0.13 14.45,2.19 17.2,1.5 1.05,-0.26 0.63,-3.46 3.02,-3.68 3.9,-0.36 4.05,5.45 2.14,7.96 -2.89,3.8 -13.53,0.24 -18,0.01 -5.55,-0.28 -11.12,0.41 -16.44,1.97 -2.57,-0.4 -3.48,-2.76 -1.71,-4.67 z"
       id="path86" />
    <path
       class="cls-45"
       d="m 88.84,69.02 c 0.41,0.25 7.74,-0.69 9.62,-0.63 2.99,0.11 16.31,1.97 18.29,3.3 1.83,1.23 2.13,3.35 0.45,4.72 -1.4,1.13 -9.88,-1.65 -12.48,-2.04 -2.02,-0.3 -5.87,-0.88 -7.74,-0.92 -3.72,-0.07 -6.99,1.24 -10.65,0.54 -4.35,-0.84 -3.11,-8.62 0.46,-7.68 1.44,0.38 1.65,2.45 2.06,2.69 z"
       id="path88" />
    <path
       class="cls-42"
       d="m 46.95,80.66 c 1.19,1.46 2.63,2.18 4.32,2.16 0.18,-1.34 0.55,-1.83 1.44,-0.72 0.72,2.24 0.76,5.22 0.76,7.59 0,1.67 -0.92,4.07 -0.81,4.9 0.06,0.45 6.4,3.23 0.43,4.08 -2.71,0.38 -13.58,2.24 -13.3,-1.82 0.07,-1.07 3.4,-1.41 3.6,-2.27 0.94,-3.95 -0.9,-10.83 2.85,-14.64 1.15,-0.82 1.5,-0.56 0.72,0.72 z"
       id="path90" />
    <path
       class="cls-45"
       d="m 102.39,82.82 c 0.08,0.04 0.51,-1.18 1.3,0.44 2.18,4.48 1.69,9.4 0.14,13.95 2.46,-0.1 5.15,0.24 6.85,2.16 0.68,0.48 -0.4,1.23 -0.82,1.35 -0.8,0.22 -11.32,-0.41 -12.9,-0.59 -5.47,-0.61 -0.55,-2.94 -0.5,-3.21 0.15,-0.97 -1.11,-4.24 -1.11,-5.82 0,-2.47 1.11,-5.72 1.29,-8.27 0.93,-0.2 0.86,0.92 1.43,1.44 1.59,0.05 3.03,-0.43 4.32,-1.44 z"
       id="path92" />
    <path
       class="cls-34"
       d="m 76.47,87.86 c 5.23,-2.08 2.96,-0.86 5.43,2.11 3.68,4.43 3.11,6.17 5.77,10.08 1.84,2.7 11.33,8.9 3.19,10.85 -1.04,-9.87 -5.72,-6.39 -10.78,-9.02 -2.86,-1.48 -0.77,-11.4 -3.62,-14.02 z"
       id="path94" />
    <path
       class="cls-30"
       d="m 85.11,120.98 c 1.86,7.2 -7.53,10.18 -12.61,6.49 -1.63,-1.18 -1.76,-2.71 -2.75,-4.1 -0.3,-0.42 -1.36,-0.66 -1.86,-1.4 -0.95,-1.4 0,-2.57 -0.06,-3.87 4.88,4.52 11.13,5.51 17.28,2.88 z"
       id="path96" />
    <path
       class="cls-30"
       d="m 78.63,146.18 c 2.09,2.08 5.26,2.99 2.5,6.47 -4.26,5.36 -19.44,-2.41 -14.74,-7.91 3.3,2.69 7.16,1.71 10.97,0.42 z"
       id="path98" />
    <path
       class="cls-51"
       d="m 78.63,146.18 c -2.74,1.33 -12.57,3.7 -12.24,-1.44 1.76,-2.06 9.67,-2.12 11.53,-0.34 0.66,0.63 0.58,1.66 0.71,1.78 z"
       id="path100" />
    <path
       class="cls-25"
       d="m 102.39,82.82 c -0.89,3.66 -1.47,4.01 -4.32,1.44 0.24,-4.45 1.79,-2.78 4.32,-1.44 z"
       id="path102" />
    <path
       class="cls-11"
       d="m 52.71,82.1 c -0.41,0.28 -1.1,0.42 -1.44,0.72 -1.16,-1.14 -2.6,-1.86 -4.32,-2.16 -0.04,-0.33 -0.38,-0.65 -0.72,-0.72 2.87,-2.92 5.38,-1.27 6.48,2.16 z"
       id="path104" />
    <path
       class="cls-4"
       d="m 85.11,42.5 c 0.22,0.78 0.41,1.41 0.72,2.16 -0.47,-0.04 -0.97,0.06 -1.44,0 -2.68,-0.33 -0.95,-1.44 -1.44,-2.88 z"
       id="path106" />
    <path
       class="cls-24"
       d="m 36.15,52.58 c 0.23,-0.3 0.11,-1.73 1.09,-2.15 1.56,-0.67 0.89,1.2 1.07,1.43 z"
       id="path108" />
    <path
       class="cls-53"
       d="m 32.55,54.02 c -0.71,-0.25 -1.36,-0.72 -2.16,-0.72 0.35,-0.94 0.8,-1.82 0.73,-2.88 h 0.7 c 0,0 0.73,3.6 0.73,3.6 z"
       id="path110" />
    <path
       class="cls-28"
       d="m 57.75,38.9 c -0.57,0.73 -1.62,4.44 -2.15,3.59 -0.09,-0.45 0.11,-1.08 0,-1.43 -0.33,-2.11 1.67,-1.75 2.16,-2.16 z"
       id="path112" />
    <path
       class="cls-40"
       d="m 74.31,38.18 c -0.5,0.98 -0.21,3.11 -1.43,2.88 -0.13,-0.64 0.18,-1.7 0,-2.16 -0.07,-1.22 -0.26,-1.68 1.07,-1.43 l 0.37,0.71 z"
       id="path114" />
    <path
       class="cls-41"
       d="m 70.71,27.38 -0.72,-0.72 c 0.35,-0.94 0.82,-1.82 0.73,-2.88 h 0.7 c 0.68,1.47 -0.58,2.84 -0.71,3.6 z"
       id="path116" />
    <path
       class="cls-10"
       d="m 118.95,38.18 h -0.72 c 0.02,-0.82 -0.31,-3.61 0.36,-3.61 z"
       id="path118" />
    <path
       class="cls-31"
       d="m 28.23,49.7 c -0.2,0.63 -0.44,0.62 -0.72,0 -0.44,-2.02 -1.05,-1.54 -1.44,-2.16 -0.23,-0.36 -1.1,-0.49 -0.6,-1.57 l 2.75,-7.78 v 11.52 z"
       id="path120" />
    <path
       class="cls-37"
       d="m 28.95,49.7 c -0.35,0.84 -0.26,2.34 -1.08,2.89 -0.76,-0.02 -0.2,-2.14 -0.36,-2.89 z"
       id="path122" />
    <path
       class="cls-47"
       d="m 60.63,20.9 v 3.6 c 0,0 -0.71,0 -0.71,0 0.15,-1.25 -0.58,-3.38 0.71,-3.6 z"
       id="path124" />
    <path
       class="cls-16"
       d="m 51.27,82.82 c -3.48,3.11 -3.85,1.56 -4.32,-2.16 2.37,-1.43 4.66,-0.97 4.32,2.16 z"
       id="path126" />
  </g>
</svg>
