<?xml version="1.0" encoding="UTF-8" standalone="no"?>
<svg
   id="Layer_2"
   data-name="Layer 2"
   viewBox="0 0 72.144141 333.06194"
   version="1.1"
   sodipodi:docname="Human_02-leg_front.svg"
   width="72.144142"
   height="333.06195"
   xmlns:inkscape="http://www.inkscape.org/namespaces/inkscape"
   xmlns:sodipodi="http://sodipodi.sourceforge.net/DTD/sodipodi-0.dtd"
   xmlns="http://www.w3.org/2000/svg"
   xmlns:svg="http://www.w3.org/2000/svg">
  <sodipodi:namedview
     id="namedview56"
     pagecolor="#ffffff"
     bordercolor="#000000"
     borderopacity="0.25"
     inkscape:showpageshadow="2"
     inkscape:pageopacity="0.0"
     inkscape:pagecheckerboard="0"
     inkscape:deskcolor="#d1d1d1" />
  <defs
     id="defs4">
    <style
       id="style2">
      .cls-1 {
        fill: #010101;
      }

      .cls-2 {
        fill: #1b483b;
      }

      .cls-3 {
        fill: #51ab91;
      }

      .cls-4 {
        fill: #45937d;
      }

      .cls-5 {
        fill: #72513f;
      }

      .cls-6 {
        fill: #005c42;
      }

      .cls-7 {
        fill: #003828;
      }

      .cls-8 {
        fill: #78fcd7;
      }

      .cls-9 {
        fill: #656565;
      }

      .cls-10 {
        fill: silver;
      }

      .cls-11 {
        fill: #4ca088;
      }

      .cls-12 {
        fill: #90664e;
      }

      .cls-13 {
        fill: #a6d7ca;
      }

      .cls-14 {
        fill: #68dcbb;
      }

      .cls-15 {
        fill: #c4fded;
      }

      .cls-16 {
        fill: #51aa91;
      }

      .cls-17 {
        fill: #349076;
      }

      .cls-18 {
        fill: #e4e4e4;
      }

      .cls-19 {
        fill: #78fed8;
      }

      .cls-20 {
        fill: #46bf9d;
      }

      .cls-21 {
        fill: #030504;
      }

      .cls-22 {
        fill: #c0f9e9;
      }
    </style>
  </defs>
  <g
     id="Layer_1-2"
     data-name="Layer 1"
     transform="translate(-0.00239897,0.00208195)">
    <path
       class="cls-1"
       d="m 15.51,273.85 c 0.58,-0.99 -3.71,-19.35 -4.13,-22.63 -2.5,-19.44 -3.95,-43.7 -3,-63.24 0.24,-4.98 2.36,-12.88 2.13,-17.29 -0.08,-1.48 -2.23,-2.47 -2.67,-4.41 -1.42,-6.18 1.62,-13.78 2,-20 C 10.34,138.1 7.26,131.05 5.76,123.05 1.03,97.82 -1.04,64.02 0.51,38.41 1.55,21.05 7.23,4.6 26.23,0.83 c 26.68,-5.29 38.76,15.5 44.24,38.08 3.11,12.8 1.22,41.65 -0.29,55.5 -1.9,17.43 -10.71,31.75 -12.13,49 -0.53,6.42 3.34,23.17 0.32,27.66 -0.79,1.17 -2.4,1.46 -2.84,2.19 -1.36,2.22 0.22,9.6 0.18,12.59 -0.23,17.2 -1.21,34.66 -2.71,51.78 -0.9,10.27 -3.23,20.56 -3.61,30.9 -0.24,6.53 2.27,5.74 2.86,9.43 0.48,2.97 -0.6,7.22 0.19,9.88 0.28,0.94 4.76,5.28 5.9,7.04 3.74,5.79 8.37,19.02 4.33,25.06 -11.37,16.98 -46.99,17.75 -58.89,0.72 -4.31,-6.17 -2.5,-14.84 -0.04,-21.52 1.43,-3.88 4.99,-7.43 6.08,-10.46 1.83,-5.07 -0.7,-8.68 3.59,-13.7 0.53,-0.62 1.93,-0.88 2.09,-1.14 z"
       id="path6" />
    <path
       class="cls-6"
       d="m 41.5,7.83 c 19.08,22.21 17.42,54.63 12.16,81.9 -6.28,24 -9.04,48.07 -8.28,72.19 1.31,3.18 1.69,6.01 1.16,8.47 -8.87,2.18 -22.45,0.53 -30.21,-4.32 -0.53,-0.38 -0.96,-0.92 -0.81,-1.52 3.84,-15.79 1.78,-33.23 -0.24,-49.34 C 10.17,85.47 5.34,55.66 8.71,25.74 9.5,22.08 11.48,18.87 13.45,15.75 21.27,7 30.13,4.6 41.5,7.84 Z"
       id="path8" />
    <path
       class="cls-7"
       d="m 46.53,170.39 c -1.41,-3.48 -2.54,-6.62 -2.87,-10.44 -4.18,-48.55 27.63,-98.31 2,-144.43 -1.46,-2.62 -4.26,-4.5 -4.17,-7.69 6.87,1.96 10.79,4.64 14.52,11.01 11.01,18.79 10.95,43.72 8.41,64.79 -2.46,20.42 -13.42,44.05 -12.89,64.13 0.14,5.28 2.36,13.79 1.47,18.67 -0.31,1.72 -4.8,3.54 -6.47,3.95 z"
       id="path10" />
    <path
       class="cls-7"
       d="m 16.32,166.07 c -0.65,-0.41 -1.73,-0.41 -2.2,-1.19 -1.61,-2.68 2,-16.46 2.19,-20.75 0.28,-6.32 -2.2,-10.27 -3.38,-16.03 C 6.07,94.61 5.52,61.24 8.21,27.44 8.28,26.53 7.15,25.97 7.29,25.05 c 0.43,-2.76 4.3,-7.24 6.15,-9.31 -7.28,16.81 -5.41,35.72 -3.52,53.51 3.43,32.27 12.34,60.79 7.8,93.55 -0.17,1.22 -0.86,2.22 -1.4,3.27 z"
       id="path12" />
    <path
       class="cls-12"
       d="m 22.8,261.74 c -1.67,-0.83 -2.34,-2.28 -2.65,-4.04 -2.93,-16.49 -4.07,-36.14 -4.21,-52.95 -0.04,-4.22 0.6,-23.72 3.12,-26.49 1.23,-1.35 7.9,0.63 7.7,2.92 0.07,-0.56 0.23,-1.38 0.63,-1.44 1.52,-0.2 13.43,-0.29 14.54,0 l 1.01,1.44 c 0.36,0.64 0.7,1.29 0.94,1.98 0.24,0.69 0.46,1.32 0.47,1.97 0.32,19.75 0.48,39.6 -1.39,59.28 -0.1,6.49 -1.54,12.27 -4.33,17.34 -4.83,0.76 -11.09,1.38 -15.82,0 z"
       id="path14" />
    <path
       class="cls-5"
       d="m 22.8,261.74 c -1.95,-0.57 -2.75,-0.31 -3.6,-2.52 -1.47,-3.82 -2.41,-15.44 -2.87,-20.15 -1.79,-18.34 -2.35,-36.98 -1.48,-55.41 0.16,-3.36 1.05,-6.99 1.12,-10.41 10.87,4.27 21.97,5.75 33.43,2.89 0.52,28.32 -1.69,56.85 -5.93,84.7 -1.53,0.78 -3.25,0.64 -4.86,0.89 5.99,-26.4 3.99,-53.65 4.32,-80.56 H 26.75 c -0.99,0 -6.33,-2.6 -6.83,-2.16 -0.45,4.36 -1.89,8.94 -2.19,13.28 -1.33,18.86 1.29,45.68 3.7,64.69 0.2,1.6 0.76,3.26 1.36,4.75 z"
       id="path16" />
    <path
       class="cls-19"
       d="m 45.1,285.48 c 1.44,8.33 2.45,5.84 6.64,11.7 1.35,1.89 5.22,8.84 4.76,10.8 -0.66,2.78 -8.79,8.49 -11.77,8.48 -3.41,-0.02 -3.49,-5.07 -7.94,-5.77 -5.02,-0.79 -14.59,-0.87 -18.3,2.84 -2.84,-2.07 -2.49,-8.4 -1.98,-11.85 0.26,-1.74 0.72,-4.75 2.7,-4.69 h 0.72 c 1.23,0.54 1.47,1.02 0.72,1.44 l 1.66,2.83 c 5.44,-0.96 10.71,-0.7 15.84,0.81 0.64,-0.9 0.8,-2.11 0.49,-3.64 -1.54,-0.64 -0.82,-1.15 0.72,-1.44 1.1,-1.59 0.86,-3.51 -0.72,-5.75 3.58,-1.75 4.97,-2.6 6.47,-6.47 v 0.72 z"
       id="path18" />
    <path
       class="cls-15"
       d="m 53.01,318.57 c 1.01,-0.95 1.38,-0.55 0.72,0.72 -10.61,8.81 -29.41,10.45 -40.28,1.44 -0.95,-1.01 -0.55,-1.38 0.72,-0.72 4.82,2.31 6.22,-4.52 10.39,-5.07 2.02,-0.27 9.48,-0.23 11.23,0.35 2.78,0.92 3.28,5.79 8.31,6.13 2.27,0.15 6.83,-1.7 8.9,-2.85 z"
       id="path20" />
    <path
       class="cls-20"
       d="m 17.76,287.64 c 0.36,1.27 2.57,3.1 2.87,3.96 0.16,0.45 -1.21,0.48 -1.74,1.09 -2.3,2.68 0.2,3.2 0.31,4.3 0.05,0.48 -1.35,4.33 -1.46,6.09 -0.23,3.56 0.26,6.97 0.74,10.46 -0.94,0.94 -0.26,4 -4.11,2.34 -1.69,-0.73 -5.86,-5.97 -6.02,-7.72 -0.66,-7.38 6.94,-13.07 7.98,-19.79 0.37,-1.57 0.85,-1.81 1.44,-0.72 z"
       id="path22" />
    <path
       class="cls-8"
       d="m 31.43,273.97 c 2.12,0.07 7.19,-0.96 7.19,1.8 v 11.87 c -3.51,-1.66 -6.93,-2.19 -10.79,-2.16 -2.84,-0.44 0.09,-11.28 0.78,-11.69 0.69,-0.41 2.07,-0.28 2.82,0.19 z"
       id="path24" />
    <path
       class="cls-21"
       d="m 38.62,291.23 c 2.16,2.82 3.3,2.98 0.72,5.75 -0.2,0.82 -3.85,0.59 -3.96,0.41 -0.1,-0.16 3.67,-0.11 3.24,1.02 2.28,1.21 2.07,4.87 -0.35,5.06 -1.66,0.13 -4.41,-1.25 -6.48,-1.45 -2.91,-0.27 -8.31,1.06 -9.9,0.6 -3,-0.87 -1.36,-2.94 -1.24,-4.2 -0.37,-0.74 0.35,-0.98 2.16,-0.72 1.28,-0.58 1.93,-1.27 3.6,-1.44 2.86,0.5 5.78,0.66 8.63,0 5.42,-0.22 6.52,-0.18 2.16,-4.68 -0.03,-0.73 1.08,-0.18 1.44,-0.36 z"
       id="path26" />
    <path
       class="cls-20"
       d="m 31.43,273.97 c -2.89,-0.2 -1.8,-0.16 -2.14,1.78 -0.57,3.23 -1.6,6.4 -1.46,9.73 -2.1,0.02 -3.73,0.44 -5.75,0.72 0.81,-6.05 -0.23,-12.93 7.59,-12.97 1.67,0 1.66,0.75 1.76,0.75 z"
       id="path28" />
    <path
       class="cls-3"
       d="m 45.1,285.48 c -0.04,-0.23 0.03,-0.48 0,-0.72 -0.25,-1.97 -1.31,-4.13 -0.71,-6.47 2.16,0.98 1.95,5.63 0.71,7.19 z"
       id="path30" />
    <polygon
       class="cls-10"
       points="40.78,266.78 43.65,266.77 43.3,270.37 "
       id="polygon32" />
    <path
       class="cls-14"
       d="m 35.03,296.27 c -2.07,1.23 -6.71,1.2 -8.63,0 2.72,-0.27 5.83,0.11 8.63,0 z"
       id="path34" />
    <path
       class="cls-17"
       d="m 16.32,288.36 c 0.2,-1.31 -0.15,-2.94 0,-4.31 h 1.43 c 0.19,1.07 -0.25,2.67 0,3.59 l -1.44,0.72 z"
       id="path36" />
    <path
       class="cls-18"
       d="m 22.7,266.87 c 1.04,1.39 -0.26,2.71 -2.05,2.06 v -2.88 c 0.48,0.35 1.99,0.73 2.05,0.81 z"
       id="path38" />
    <path
       class="cls-13"
       d="m 53.01,318.57 c 0.79,-0.44 1.84,-2.73 3.6,-2.15 -0.45,1.37 -1.88,2.04 -2.88,2.87 z"
       id="path40" />
    <path
       class="cls-22"
       d="m 14.17,320 -0.72,0.72 c -1,-0.83 -2.42,-1.51 -2.88,-2.87 1.56,-0.39 2.47,1.61 3.6,2.15 z"
       id="path42" />
    <rect
       class="cls-9"
       x="24.24"
       y="266.78"
       width="2.1500001"
       height="1.4299999"
       id="rect44" />
    <path
       class="cls-2"
       d="m 26.39,289.79 c 0.63,0.2 0.62,0.44 0,0.72 -0.82,0.12 -2.73,1.53 -3.6,0.36 0,-0.39 2.96,-1.02 3.6,-1.08 z"
       id="path46" />
    <path
       class="cls-4"
       d="m 26.39,289.79 c 0.7,-0.07 3.6,-0.24 3.6,0.36 -0.77,0.81 -2.53,0.2 -3.6,0.36 z"
       id="path48" />
    <path
       class="cls-11"
       d="m 22.8,297.71 c -0.61,0.27 -1.54,0.24 -2.16,0.72 0.03,-0.29 -0.59,-1.02 -0.72,-1.44 z"
       id="path50" />
    <path
       class="cls-16"
       d="m 39.34,296.99 c -0.28,0.3 -0.61,1 -0.72,1.44 -0.87,-0.47 -2.55,-0.53 -3.59,-0.73 V 297 c 0,0 4.31,0 4.31,0 z"
       id="path52" />
  </g>
</svg>
