<?xml version="1.0" encoding="UTF-8" standalone="no"?>
<svg
   id="Layer_2"
   data-name="Layer 2"
   viewBox="0 0 86.744118 131.19211"
   version="1.1"
   sodipodi:docname="Human_09-head_side.svg"
   width="86.744118"
   height="131.19211"
   xmlns:inkscape="http://www.inkscape.org/namespaces/inkscape"
   xmlns:sodipodi="http://sodipodi.sourceforge.net/DTD/sodipodi-0.dtd"
   xmlns="http://www.w3.org/2000/svg"
   xmlns:svg="http://www.w3.org/2000/svg">
  <sodipodi:namedview
     id="namedview60"
     pagecolor="#ffffff"
     bordercolor="#000000"
     borderopacity="0.25"
     inkscape:showpageshadow="2"
     inkscape:pageopacity="0.0"
     inkscape:pagecheckerboard="0"
     inkscape:deskcolor="#d1d1d1" />
  <defs
     id="defs4">
    <style
       id="style2">
      .cls-1 {
        fill: #8d8d6c;
      }

      .cls-2 {
        fill: #ad8660;
      }

      .cls-3 {
        fill: #907152;
      }

      .cls-4 {
        fill: #0b0806;
      }

      .cls-5 {
        fill: #716240;
      }

      .cls-6 {
        fill: #6f613f;
      }

      .cls-7 {
        fill: #927353;
      }

      .cls-8 {
        fill: #050403;
      }

      .cls-9 {
        fill: #19130e;
      }

      .cls-10 {
        fill: #b28a63;
      }

      .cls-11 {
        fill: #7a6845;
      }

      .cls-12 {
        fill: #6a5d3c;
      }

      .cls-13 {
        fill: #4a4a2b;
      }

      .cls-14 {
        fill: #060503;
      }

      .cls-15 {
        fill: #605737;
      }

      .cls-16 {
        fill: #937354;
      }

      .cls-17 {
        fill: #010100;
      }

      .cls-18 {
        fill: #4a4a2c;
      }

      .cls-19 {
        fill: #040302;
      }

      .cls-20 {
        fill: #dcdcdc;
      }

      .cls-21 {
        fill: #8e734f;
      }

      .cls-22 {
        fill: #0e0b08;
      }
    </style>
  </defs>
  <g
     id="Layer_1-2"
     data-name="Layer 1"
     transform="translate(-0.00162989,-0.00459341)">
    <path
       d="m 31.81,117.46 c -0.3,0.27 1.05,2.29 -2.2,1.12 C 12.05,112.27 1.83,89.59 3.82,71.85 4.04,69.88 5.99,65.21 5.74,63.95 5.53,62.88 1.05,59.37 0.32,55.06 -1.97,41.6 8.38,25.83 22.16,24 c 2.65,-0.35 11.75,0.89 12.56,0.34 2.75,-1.87 -0.79,-8.57 2.61,-9.68 2.93,-0.96 3.42,2.73 5.99,2.8 -0.87,-5.59 2.93,-8.03 6.46,-3.21 l 3.61,5.37 c 0.13,-1.72 0.04,-3.37 -0.32,-5.07 -1.5,-7.1 -12.39,-18.84 5.03,-12.94 5.97,2.02 12.49,7.1 15.26,12.8 0.54,1.11 0.78,3.64 0.91,3.78 0.51,0.53 3.48,-3.77 5.54,2.72 2.22,6.98 1.89,14.66 -1.36,21.25 -0.99,2.01 -6.12,7.52 -6.16,8.03 -0.04,0.47 2.9,6.47 3.22,8.83 0.76,5.59 0.13,9.19 2.32,14.95 2.19,5.76 11.47,16.13 8.24,21.85 -2.4,4.26 -7.75,3.98 -8.15,4.45 -1.21,1.43 1.46,6.3 1.35,8.16 -0.11,1.86 -2.16,3.84 -2.79,5.87 -1.57,5.07 0.67,9.63 -3.38,13.89 -3.14,3.31 -6.69,3.47 -10.95,2.46 -8.05,-1.92 -13.28,-6.2 -20.28,-9.58 -0.58,-0.46 -0.82,-0.94 -0.72,-1.44 -0.95,-1.01 -0.55,-1.38 0.72,-0.72 0.28,-0.63 0.75,-0.97 1.43,-0.97 l 13.08,4.55 c 5.65,2.71 10.65,2.72 14.99,0.02 -0.72,-0.97 -3.27,-4.52 -3.17,-5.51 l 1.26,-1.13 -5.61,-1.69 c -14.43,-6.91 -3.8,-11.73 6.26,-5.62 5.6,2.6 3.92,-8.23 0.15,-8.48 -5.73,-5.86 2.57,-15.48 4.79,-6.49 5.01,0.12 6.11,-1.53 3.3,-4.94 -5.66,-8.99 -10.27,-17.21 -8.83,-28.29 -1.39,-2.37 -1.73,-4.43 -1.02,-6.2 -1.24,-0.59 -5.1,1.04 -7.29,2.77 -2.81,0.8 -12.59,-0.52 -13.58,-3.49 -1.07,-0.29 -1.72,-0.29 -1.98,1 -1.58,-0.95 -3.08,-1.28 -4.49,-1 0.51,1.78 -0.1,1.98 -1.44,0.72 -0.09,1.06 -0.78,1.57 -2.08,1.55 -2.25,4.84 -8.82,5.1 -12.08,1.79 l -3.11,-0.46 c 2.67,1.68 -0.31,4.66 -3.15,4.28 l -3.92,-1.03 c -0.83,1.53 -1.83,2.12 -3.01,1.79 l 0.54,2.16 C 10.55,69.52 9.94,75.38 10.67,81.1 l -1.18,1.85 1.63,0.88 1.99,8.96 c 1.39,1.27 3.39,3.17 2.14,5.27 0.42,1.83 1.3,2.94 2.64,3.33 l -0.48,1.7 0.94,-0.35 c 3.88,3.71 7.9,7.29 12.81,10.02 1.3,1.59 2.87,3.62 0.64,4.72 z"
       id="path6" />
    <path
       class="cls-16"
       d="m 31.81,103.79 2.66,1.04 c 9.79,8.01 22.92,14.76 35.5,16.28 l 1.41,1.38 c -0.54,2.98 -3.41,3.74 -6.08,3.62 -4.14,-0.19 -19.03,-5.38 -23.42,-7.22 -2.29,-0.87 -2.53,-0.63 -0.72,0.72 0.57,0.4 0.77,0.72 0.72,1.44 -1.42,-0.68 -9.32,-4.27 -10.07,-3.6 -0.78,-5.21 -4.62,-5.03 -8.26,-7.93 -1.79,-1.43 -4.77,-4.62 -6.13,-6.46 -0.59,-1.27 0.08,-2.3 1.32,-2.32 0.96,-3.71 1.47,-7.5 1.54,-11.36 l 0.74,-0.7 c 0.2,-0.63 0.44,-0.62 0.72,0 l 1.55,0.72 c 1,5.44 3.72,9.8 8.6,12.47 z"
       id="path8" />
    <path
       class="cls-10"
       d="m 68.5,54.15 c 3.22,4.89 2.04,12.75 3.04,18.18 0.89,4.83 10.38,17.85 9.82,20.17 -0.56,2.32 -5.78,2.44 -7.82,2.66 v -3.6 c -3.67,-1.24 -4.27,3.35 -3.46,5.98 0.67,2.18 4.01,2.25 4.21,3.13 0.1,0.42 0.72,6.71 0.69,7.06 -0.57,6.55 -12.94,-1.73 -15.37,-1 -0.76,0.23 -1.22,0.91 -1.21,1.74 0,3.05 10.83,6.3 13.7,6.12 0.13,1.62 -3.37,3.19 -2.88,3.58 2.4,0.05 2.51,2.4 2.16,4.33 -7.01,0.55 -14.12,-2.99 -20.41,-5.86 -7.5,-3.42 -14.21,-6.69 -19.17,-12.85 l 1.17,-1.32 c 5.85,3.14 14.33,-12.17 6.02,-7.31 -1.26,1.88 -3.1,2.68 -3.6,0 L 34,94.29 c 1.47,-5.86 0.56,-10.82 -2.73,-14.86 l 0.52,-1.53 c -1.24,-0.29 -2.44,-0.53 -3.6,-0.72 -2.94,-2.72 2.39,-4.74 5.21,-3.24 4.1,3.8 5.64,4.59 4.61,2.36 l 0.97,-1.28 c -1.55,-1.89 0.09,-6.12 2.58,-6.51 0.89,-2.58 1.52,-4.32 4.62,-5.01 l 0.66,-7.28 c 0.3,-0.8 11.11,0.39 10.85,2.97 l -0.16,1.56 c -10.92,5.53 -8.27,5.74 0.81,0.22 l 2.91,-0.4 c 4.86,0.6 6.31,-0.1 4.36,-2.1 -4.2,-0.57 -7.86,-1.32 -1.59,-3.15 1.85,-1.2 3.34,-1.58 4.47,-1.16 z"
       id="path10" />
    <path
       class="cls-13"
       d="m 48.36,49.12 c -4.17,-0.21 -7.92,-0.57 -12.24,1.07 -5.31,2 -0.77,6.55 -10.78,2.89 -4.32,-1.59 -8.58,-6.42 -7.2,2.52 C 16.5,57.34 9.28,46.48 9.86,59.21 1.52,56.84 5.7,42.34 9.51,37.26 12.23,33.63 19,29.48 23.54,28.98 c 6.7,-0.74 14.93,3.95 16.92,-5.75 6.05,5.07 4.9,-1.41 6.48,-2.88 2.03,-1.89 2.83,7.09 3.54,7.61 2.52,1.86 5.78,-2.3 6.67,-4.24 2.79,-6.11 0.68,-12.23 -2.3,-17.76 6.01,1.82 13.82,6.76 14.93,13.47 0.77,4.61 -2.53,12.83 5.93,6.67 0.1,5.59 0.72,8.72 -2.15,13.67 -2.73,2.8 -6.3,3.09 -6.06,-1.79 -1.91,3.28 -8.25,10.96 -10.36,4.87 -2.68,2.49 -5.6,4.58 -8.77,6.27 z"
       id="path12" />
    <path
       class="cls-6"
       d="m 22.45,57.03 c 2,-0.1 5.64,0.51 4.7,3.08 2.17,1.83 1.96,10.37 -1.83,10.59 -1.42,-0.91 -1.68,-2.85 -0.81,-5.83 0.75,-2.85 -0.46,-2.84 -3.64,0.03 1,4.72 0.78,9.06 -0.65,13.02 1.16,-0.57 1.73,0.09 1.5,1.41 1.85,0.51 1.82,0.83 0,1.44 -0.45,2.49 -0.64,5.03 -0.58,7.63 l -0.86,0.28 c 0.54,0.85 0.18,1.21 -0.72,0.72 -0.06,2.21 -0.54,3.88 -1.44,5.04 1.37,0.4 1.38,1.03 0,1.44 -1.41,0.6 -2.24,-0.24 -2.5,-2.51 -0.28,0.51 -0.77,0.66 -1.35,0.6 -3.58,-0.39 -1.42,-14.52 -0.46,-17.52 -4.45,-2.62 -2.04,-7.32 0.08,-11.12 -0.45,-1.11 -0.96,-2.2 -1.52,-3.27 0.19,-0.35 1.97,-3.18 2.12,-3.3 0.72,-0.61 6.68,2.97 7.85,-0.05 0.22,-0.55 0,-1.21 0.1,-1.69 z"
       id="path14" />
    <path
       class="cls-11"
       d="m 39.72,54.15 c 3.32,-0.55 1.94,3.52 -0.82,4.34 0.18,2.69 -0.26,5.35 -1.32,7.98 L 39,67.81 c 2,1.13 1.28,2.38 -0.72,2.16 l -0.73,0.73 c -3.46,-1.97 -6.09,-2.22 -7.91,-0.73 0.71,1.99 -2.5,3.1 -3.6,1.44 -1.21,1.03 -1.64,0.6 -0.72,-0.72 2.6,-2.44 0.76,-6.39 2.16,-9.35 -3.98,0.46 -1.35,-1.35 -1.49,-2.54 -0.21,-1.68 -3.3,0.38 -3.54,-1.78 0.1,-0.46 -0.33,-1.46 0.35,-1.43 3.5,1.46 8.93,4.17 12.27,1.45 0.79,-0.64 1.05,-2.07 1.8,-2.54 1.07,-0.67 2.31,-0.15 2.85,-0.36 z"
       id="path16" />
    <path
       class="cls-1"
       d="m 48.36,49.12 c 1.59,-3.72 5.93,-4.84 8.63,-8.28 1.54,-1.97 1.75,-5.96 4.33,-4.31 0.54,3.1 -2.66,4.7 -2.88,7.54 4.36,-0.81 6.74,-5.31 9,-8.63 2.75,0.28 0.8,3.28 1.8,5.03 l 4.31,-0.72 c -1.7,2.94 -3.25,4.33 -5.76,6.47 -5.48,2.34 -11.6,4.04 -17.99,2.88 -0.41,0.07 -0.99,0.02 -1.44,0 z"
       id="path18" />
    <path
       class="cls-15"
       d="m 12.38,62.07 2.15,0.71 c 2.57,3.65 -1.78,6.57 -2.04,8.41 -0.04,0.28 1.22,3.16 1.33,5.27 l -1.28,7.22 C 11.05,85.09 10.04,84.91 9.51,82.94 8.32,76.05 8.97,68.53 12.39,62.08 Z"
       id="path20" />
    <path
       class="cls-5"
       d="m 41.16,53.43 c 2.54,-0.63 3.83,-0.32 3.9,0.93 0.63,2.5 -0.02,9.82 -2.28,11.34 0.02,2.93 -1.2,2.71 -3.77,2.12 -5.11,1.62 -1.93,-3.89 -1.5,-6.17 0.27,-1.41 -0.22,-3.06 0,-4.22 0.05,-0.26 4.07,-0.65 2.21,-3.28 0.4,-0.16 0.72,-0.57 1.44,-0.72 z"
       id="path22" />
    <path
       class="cls-7"
       d="m 68.5,54.15 -7.19,2.89 4.31,1.43 c -1.32,1.71 -6.42,2.37 -7.91,0.72 L 47.64,57.03 c -0.45,2.19 -0.84,4.3 -1.45,6.48 -1.48,-1.47 -1.85,-4.02 -1.12,-7.65 -0.42,-2.86 -0.29,-2.95 2.56,-2.43 7.08,1.77 12.98,4.25 19.8,-0.64 0.63,0.24 0.74,0.87 1.06,1.35 z"
       id="path24" />
    <path
       class="cls-12"
       d="m 13.82,76.45 c 0.29,5.53 -0.62,11.04 0,16.54 1.18,0.31 0.5,-1 0.83,-1.24 2.66,-1.91 2.15,2.78 3.48,4.13 2.45,0.08 0.41,5.99 -0.4,5.86 -0.89,-0.14 -2.39,-2.62 -2.48,-3.7 -2.94,-3.83 -4.95,-10.4 -5.76,-15.11 2.92,1.86 3.07,-4.53 4.32,-6.47 z"
       id="path26" />
    <path
       class="cls-4"
       d="m 47.64,53.43 c -0.4,0.06 -1.35,-0.12 -1.44,0 -0.45,0.6 0.32,8.4 0,10.08 -0.14,0.52 0.27,1.87 -0.03,2.11 -0.45,0.37 -2.44,-0.27 -2.82,0.08 -0.21,0.19 0,2.94 -0.69,3.86 -0.44,0.6 -1.56,0.2 -2.02,0.62 -0.31,0.28 -2.26,4.02 -1.64,4.84 -1.57,1.16 -3.13,-0.5 -2.16,-2.16 -0.76,-1.5 -0.51,-3.01 1.44,-2.88 0.21,-0.59 0.97,-1.21 0.72,-2.16 0.86,-0.27 0.14,-2.41 2.87,-0.71 1,-4.88 2.52,-7.37 2.17,-12.62 -0.14,-2.05 -1.78,-0.75 -2.88,-1.06 3.47,-0.75 2.87,-0.9 6.48,0 z"
       id="path28" />
    <path
       class="cls-18"
       d="m 67.78,46.24 c -5.77,4.94 -10.67,5.92 -17.99,2.88 1.96,-0.32 3.98,-0.5 5.93,-0.84 3.54,-0.6 1.2,-1.23 5.95,-0.86 1.03,0.08 1.98,-1.57 2.88,-1.62 0.45,-0.03 1.9,1.55 3.22,0.44 z"
       id="path30" />
    <path
       class="cls-22"
       d="m 21.01,88.68 c -0.38,2.61 0.56,6.49 -0.02,8.85 -0.12,0.5 -1.12,0.5 -1.19,0.7 -0.68,1.9 0.21,3.61 -2.39,4.84 -1.19,-1.61 -2.66,-2.57 -2.16,-5.04 0.62,0.81 2.02,2.21 2.87,2.88 0.13,-1.66 -0.15,-3.39 0,-5.04 0.05,-0.47 -0.06,-0.97 0,-1.44 0.9,-1.28 1.38,-2.95 1.44,-5.04 0.19,-0.3 0.37,-0.58 0.72,-0.72 0.24,-0.44 0.48,-0.43 0.72,0 z"
       id="path32" />
    <path
       class="cls-9"
       d="m 41.88,118.9 -0.72,0.72 c -1.13,-0.8 -3.24,-0.9 -2.87,-2.88 0.3,-0.36 3.13,1.97 3.59,2.16 z"
       id="path34" />
    <path
       class="cls-17"
       d="m 36.84,72.86 c 0.64,0.5 1.82,1.49 2.16,2.16 0.82,1.59 1.75,3.68 -0.67,3.95 -2.69,0.3 -3.72,-3.52 -6.19,-3.95 -4.16,-0.73 -3.14,1.39 -3.93,2.16 -1.85,3.53 -1.78,7.78 0.24,12.77 l -0.96,1.62 c 1.84,2.32 3.9,4.41 6.17,6.27 1.76,-0.16 3.54,-1.05 5.34,-2.68 0.09,-0.13 -0.18,-0.76 0.16,-1.25 2.14,-3.04 6.49,-1.29 3.83,4.17 -2.45,5.03 -5.58,6.43 -11.19,5.71 -1.28,-1.58 -4.16,-2.56 -6.07,-5.09 -1.91,-2.53 -3.67,-6.75 -4.01,-10.02 -0.95,-1.63 -0.53,-5.56 0,-7.91 0.05,-0.47 -0.08,-1.01 0,-1.44 -2.24,-1.42 1.93,-9 4.32,-7.91 0.17,-0.13 3.41,-1.42 3.6,-1.44 1.44,-2.69 8.19,-0.09 7.2,2.88 z"
       id="path36" />
    <path
       class="cls-12"
       d="m 21.73,88.68 h -0.72 c -0.22,0.06 -0.52,-0.08 -0.72,0 1.64,-2.35 -0.3,-5.9 1.44,-7.91 -0.23,2.07 -0.21,5.83 0,7.91 z"
       id="path38" />
    <path
       class="cls-8"
       d="m 60.59,73.58 c -1.9,-1.69 -7.16,6.1 -7.91,2.5 -0.59,-2.83 10.99,-7.37 13.72,-5.05 0.7,3.61 1.88,14.23 -2.72,15.41 -4.18,1.07 -4.37,-10.2 -3.09,-12.86 z"
       id="path40" />
    <path
       class="cls-19"
       d="m 31.81,77.89 c 1.03,0.76 3.96,5.73 4.19,7.02 l -0.6,10.25 c 0.07,2.98 -1.79,2.22 -3.76,0.65 C 31.07,95.35 30.17,87.08 30.3,85.33 29.22,85.1 28.52,84.54 28.2,83.65 24.99,81.72 26.99,75.6 31.8,77.89 Z"
       id="path42" />
    <path
       class="cls-14"
       d="m 65.62,58.47 c 1.65,0.25 4.13,2.01 2.18,3.26 -1.01,0.65 -6.46,-0.22 -9.37,0.71 -2.23,0.71 -8.02,5.83 -9.36,3.94 -1.9,-2.68 6.56,-6.66 8.63,-7.19 2.54,-0.65 5.23,-1.13 7.91,-0.72 z"
       id="path44" />
    <path
       class="cls-3"
       d="m 35.4,95.16 c 0.91,0.03 2.27,0.73 3.6,0 -0.67,1.02 -0.77,2.64 -2.49,3.64 -4.51,2.63 -7.78,-3.88 -9.03,-7.24 l 1.18,-0.87 c -1.32,-2.91 -1.47,-5.26 -0.46,-7.05 5.73,-0.39 2.74,2.72 2.89,5.36 0.02,0.29 1.4,5.22 1.57,5.64 0.88,2.2 2.08,0.49 2.73,0.51 z"
       id="path46" />
    <path
       class="cls-2"
       d="m 28.21,77.17 c 1.54,-0.15 2.36,-0.19 3.6,0.72 -5.08,-0.76 -4.55,1.86 -3.6,5.76 0.78,3.19 2.27,6.53 2.15,10.07 l -2.87,-2.16 c -1.47,-3.97 -1.86,-6.83 -1.44,-11.16 0.37,-3.81 1.39,-2.48 2.16,-3.23 z"
       id="path48" />
    <path
       class="cls-12"
       d="m 21.73,79.33 c -1.07,-1.55 -1.45,1.17 -1.48,1.76 -0.26,5.08 1.36,6.31 -5,6.15 2.98,-2.93 0.3,-5.49 1.55,-8.89 0.53,-1.46 2.36,-0.71 2.78,-1.68 1.48,-3.39 -0.84,-11.63 0.09,-13.07 0.26,-0.39 1.96,-0.35 2.61,-0.97 0.98,-0.93 0.11,-3.33 2.31,-2.72 2.54,4.04 0.77,7.03 0.73,10.79 0,0.34 0.33,0.72 0.72,0.72 -0.89,0.67 -4.1,6.8 -4.32,7.91 z"
       id="path50" />
    <path
       class="cls-12"
       d="m 19.57,89.4 c -0.33,2.07 1.11,5.66 -1.44,5.04 0.15,-1.22 0.8,-3.99 1.44,-5.04 z"
       id="path52" />
    <path
       class="cls-21"
       d="m 38.28,69.98 c -0.36,1.02 -0.21,2.23 -1.44,2.88 -2.19,-1.74 -3.94,-3.28 -7.2,-2.88 -1.89,-1.07 -0.09,-1.54 0.93,-1.92 3.26,-1.21 4.65,0.67 7.71,1.92 z"
       id="path54" />
    <path
       class="cls-20"
       d="m 65.56,73.65 c 0.4,1.09 0.16,4.69 -1.73,4.25 -2.37,-0.56 -2.13,-6.49 1.73,-4.25 z"
       id="path56" />
  </g>
</svg>
