<?xml version="1.0" encoding="UTF-8" standalone="no"?>
<svg
   id="Layer_2"
   data-name="Layer 2"
   viewBox="0 0 59.456264 260.71903"
   version="1.1"
   sodipodi:docname="Human_03-arm_palmdown.svg"
   width="59.456264"
   height="260.71902"
   xmlns:inkscape="http://www.inkscape.org/namespaces/inkscape"
   xmlns:sodipodi="http://sodipodi.sourceforge.net/DTD/sodipodi-0.dtd"
   xmlns="http://www.w3.org/2000/svg"
   xmlns:svg="http://www.w3.org/2000/svg">
  <sodipodi:namedview
     id="namedview62"
     pagecolor="#ffffff"
     bordercolor="#000000"
     borderopacity="0.25"
     inkscape:showpageshadow="2"
     inkscape:pageopacity="0.0"
     inkscape:pagecheckerboard="0"
     inkscape:deskcolor="#d1d1d1" />
  <defs
     id="defs4">
    <style
       id="style2">
      .cls-1 {
        fill: #1d0f07;
      }

      .cls-2 {
        fill: #b69079;
      }

      .cls-3 {
        fill: #371c0d;
      }

      .cls-4 {
        fill: #180c06;
      }

      .cls-5 {
        fill: #aa4713;
      }

      .cls-6 {
        fill: #7f6658;
      }

      .cls-7 {
        fill: #a54714;
      }

      .cls-8 {
        fill: #2a211d;
      }

      .cls-9 {
        fill: #d2a58c;
      }

      .cls-10 {
        fill: #c4612c;
      }

      .cls-11 {
        fill: #ad4913;
      }

      .cls-12 {
        fill: #221108;
      }

      .cls-13 {
        fill: #120803;
      }

      .cls-14 {
        fill: #d3a68d;
      }

      .cls-15 {
        fill: #cb652f;
      }

      .cls-16 {
        fill: #c7632e;
      }

      .cls-17 {
        fill: #4a3b33;
      }

      .cls-18 {
        fill: #d2a68c;
      }

      .cls-19 {
        fill: #c4612d;
      }

      .cls-20 {
        fill: #180c05;
      }

      .cls-21 {
        fill: #d3a78d;
      }

      .cls-22 {
        fill: #3c3029;
      }

      .cls-23 {
        fill: #eabca2;
      }

      .cls-24 {
        fill: #140a05;
      }

      .cls-25 {
        fill: #b5927d;
      }
    </style>
  </defs>
  <g
     id="Layer_1-2"
     data-name="Layer 1"
     transform="translate(0.00152305,-0.00410782)">
    <path
       d="m 47.48,197.3 c -0.3,0.85 3.73,6.28 4.41,8.25 0.63,1.81 0.61,3.82 1.2,5.54 1.31,3.8 6.92,17.33 6.32,20.06 -1.12,5.12 -6.16,2.56 -8.83,0.25 -1.61,-1.39 -2.49,-4.48 -4.45,-3.87 1.38,4.54 0.86,23.38 -3.46,25.54 -2.07,1.03 -2.77,-0.75 -4.69,-0.42 0.79,11.4 -7.25,9.97 -9.46,0.44 -1.77,1.28 -0.92,3.76 -2.81,5.18 -5.59,4.18 -7.83,-8.7 -8.9,-12.36 -4.27,2.77 -6.96,-1.35 -7.71,-5.39 -2.47,-13.3 -4.08,-26.9 0.96,-39.72 0.61,-1.54 4.09,-7.1 3.42,-7.75 -0.1,-0.1 -1.6,0.18 -2.61,-1.13 -2.45,-3.2 0.24,-17.23 0.4,-22.07 1,-30.96 -0.74,-64.59 -5.48,-95.26 C 1.93,49.56 -9.18,22.41 15.97,4.41 30.6,-6.06 43.86,3.55 49.31,18.36 c 6.34,17.24 3,32.41 3.71,49.77 0.82,20.13 4.27,40.22 3.65,60.45 -0.35,11.46 -3.46,22.74 -4.71,34.13 -0.77,7.05 -0.36,28.26 -2.44,32.59 -0.54,1.12 -1.97,1.8 -2.04,2 z"
       id="path6" />
    <path
       class="cls-15"
       d="m 25.68,5.67 c 13.25,7.75 16.7,28.7 17.77,43.28 0.35,17.25 0.03,34.5 -0.96,51.73 1.39,24.56 -0.24,49.08 -4.1,73.3 -0.2,1.25 -0.93,2.34 -1.64,3.36 -1.81,0.98 -5.38,0.41 -7.08,-0.14 -2.53,0.15 -4.88,-0.08 -7.03,-0.69 -1.1,0.12 -1.95,0.78 -2.54,1.98 0.25,2.89 -0.22,5.43 -1.4,7.62 -0.23,2.23 -2.39,2.28 -2.74,0.34 -0.56,-3.17 1.5,-11.42 1.69,-15.39 1.12,-22.8 -0.27,-46.69 -2.02,-69.45 C 14.17,83.87 11.83,66.19 8.63,48.57 6.89,29.26 9.57,18.52 24.26,5.96 24.64,5.8 25.22,5.77 25.67,5.68 Z"
       id="path8" />
    <path
       class="cls-11"
       d="m 45.36,180 c -2.43,0.84 -6.65,-0.57 -8.61,-2.67 0.7,-15.59 4.46,-30.95 4.8,-46.59 0.23,-10.63 -0.65,-21.41 -0.48,-32.08 0.42,-27.07 6.42,-66.01 -11.39,-88.44 -1.25,-1.57 -3.49,-2.26 -4,-4.55 10.19,-2.15 17.24,9.18 19.69,17.69 4.31,14.93 2.12,29.91 2.6,45.08 0.65,20.41 4.15,41.55 3.19,61.98 -0.47,9.91 -3.17,20.15 -4.38,30.07 -0.75,6.14 -0.44,13.85 -1.42,19.52 z"
       id="path10" />
    <path
       class="cls-11"
       d="m 24.27,5.95 c -2.59,5.75 -8.1,8.62 -11.04,14.35 -8.36,16.29 0.2,50.13 2.03,68.54 0.42,4.19 0.07,8.83 0.38,12.77 L 11.9,71.94 C 8.96,56.32 1.11,31.31 11.93,17.6 13.76,15.29 21.96,6.9 24.27,5.95 Z"
       id="path12" />
    <path
       class="cls-21"
       d="m 51.91,223.44 c 0.55,1.21 0.41,1.73 -0.42,1.55 -1.06,-1.46 -6.94,-9 -7.07,-9.58 -0.03,-0.13 0.91,-0.79 0.25,-2.57 -3.05,-8.19 -5.55,-13.23 -14.73,-14.69 -4.33,-0.69 -8.46,0.56 -12.06,-1.62 1.21,-2.18 -0.08,-3.35 3.14,-3.41 2.39,-0.04 18.55,3.44 20.18,4.62 5.84,4.23 8.48,18.74 10.71,25.69 z"
       id="path14" />
    <path
       class="cls-9"
       d="m 41.46,215.27 c -1.51,3.88 0.2,9.08 0.39,13.39 0.24,5.34 0.08,10.64 -0.36,15.95 -1.19,0.42 -0.99,-1.47 -1.19,-2.32 -0.61,-2.53 -4.28,-18.48 -3.9,-19.4 0.03,-0.07 1.26,0.07 1.31,-0.76 0.13,-1.97 -1.32,-4.83 0.39,-6.98 1.37,-1.73 2.1,-0.09 3.37,0.12 z"
       id="path16" />
    <path
       class="cls-14"
       d="m 26.94,223.33 c 2.07,2.71 1.72,6.5 2.7,9.73 l 0.6,-9.67 c 1.37,-1.62 3.45,-1.7 5.31,-1.05 l -3.17,1.86 c 0.38,6.87 1.68,13.72 1.61,20.61 -0.02,2.01 0.27,5.36 -1.36,6.73 l -5.68,-28.2 z"
       id="path18" />
    <path
       class="cls-16"
       d="m 21.38,177.49 c 1.59,-0.61 8.71,-0.71 9.8,-0.06 L 29.42,181 c -0.81,2.88 -1.1,8.64 -4.36,7.48 l -0.95,-1.34 c 0.58,-3.02 0.33,-2.95 -0.74,0.21 -0.55,0.67 -2.18,0.83 -2.82,0.57 -1.67,-2.74 -0.86,-6.87 0.27,-9.59 -0.85,-0.72 -0.57,-1.21 0.56,-0.85 z"
       id="path20" />
    <path
       class="cls-5"
       d="m 44.24,181.7 c 1.55,1.48 0.64,7.84 -0.16,9.99 -0.44,0.4 -3.98,-0.22 -4.57,-0.59 -1.83,-1.15 -0.44,-2.13 -0.48,-2.48 -0.24,-2.42 -0.34,-5.82 1.4,-7.62 -0.71,-2.46 4.18,-1.27 3.81,0.7 z"
       id="path22" />
    <path
       class="cls-19"
       d="m 36.48,179.59 c -0.01,0.64 -0.26,0.67 -0.71,0.14 -1.16,2.56 -1.76,5.26 -1.8,8.12 l -0.87,0.49 c -5.79,3.53 -2.87,-4.33 -2.27,-7.61 -2.44,-4.12 4.99,-4.16 5.64,-1.14 z"
       id="path24" />
    <path
       class="cls-1"
       d="m 35.77,179.73 c 0.64,0.63 0.55,9.7 0.16,10.05 -0.25,0.22 -0.61,0.32 -0.99,0.39 -0.3,-0.14 -1.8,-1.71 -1.84,-1.83 -0.57,-1.9 0.44,-7.59 2.67,-8.61 z"
       id="path26" />
    <path
       class="cls-10"
       d="m 37.18,179.45 c 0.64,0.14 1.1,0.48 1.02,1.08 l -1.29,8.51 c -0.08,0.3 0.3,0.96 0.28,1.41 -0.64,-0.34 -1.98,-0.16 -2.25,-0.28 l 0.83,-10.44 c 0.19,-0.09 0.48,-0.1 0.71,-0.14 0.05,-0.67 0.29,-0.7 0.71,-0.14 z"
       id="path28" />
    <path
       class="cls-24"
       d="m 20.82,178.34 c -0.34,2.5 0.09,6.82 -0.27,9.59 -0.3,-0.12 -1.78,-1.66 -1.84,-1.83 -0.79,-2.31 0.92,-5.44 1.4,-7.62 0.08,-0.66 0.31,-0.69 0.71,-0.14 z"
       id="path30" />
    <path
       class="cls-20"
       d="m 45.36,180 c -0.08,0.48 -0.85,1.19 -1.13,1.69 -1.39,-1.33 -2.51,-1.41 -3.81,-0.7 -0.47,1.21 -0.91,1.57 -1.41,0.28 -0.76,-0.22 -1.37,-0.83 -1.84,-1.83 -1.42,-0.64 -2.23,-1.37 -0.43,-2.12 3.07,0.62 5.64,1.98 8.61,2.67 z"
       id="path32" />
    <path
       class="cls-12"
       d="m 23.37,187.37 c -0.54,-1.22 0.35,-9.1 2.1,-7.76 0.87,0.67 -1.12,7.29 -0.41,8.88 -0.23,-0.08 -1.65,-1.03 -1.69,-1.13 z"
       id="path34" />
    <path
       class="cls-7"
       d="m 39.02,181.28 c 0.91,0.99 0.18,4.93 -1.12,5.36 -0.19,0.78 -0.78,1.62 -0.98,2.4 -0.7,-3.2 0.17,-6.42 0.27,-9.59 0.69,0 2.01,-0.16 2.31,0.64 0.04,0.1 -0.4,0.78 -0.47,1.2 z"
       id="path36" />
    <path
       class="cls-13"
       d="m 40.43,181 -1.4,7.62 c -0.09,-0.69 -0.2,-2.03 -1.13,-1.97 0.37,-1.56 0.87,-3.81 1.12,-5.36 0.43,-0.16 1.07,-0.1 1.41,-0.28 z"
       id="path38" />
    <path
       class="cls-6"
       d="m 13.11,223.91 c 0.6,1.66 -0.17,2.35 -0.14,2.96 -0.26,0.48 -0.54,0.29 -0.85,-0.56 -0.27,-1.76 0.07,-2.79 0,-3.67 0.05,0.55 0.91,1.05 0.99,1.27 z"
       id="path40" />
    <path
       class="cls-4"
       d="m 22.65,176.5 c 4.98,-0.09 9.14,-0.18 14.11,0.83 -0.03,0.62 0.45,1.48 0.43,2.12 -0.22,0 -0.48,0.1 -0.71,0.14 -1.51,-1.17 -3.84,-1.19 -5.71,-1.06 -0.05,1.04 0.31,0.89 0.07,2.2 l -0.49,-0.62 -0.92,0.9 c 0.28,-1 0.27,-2.11 0.84,-3.1 l -8.89,-0.42 c -1,-1.12 -0.02,-1.09 1.27,-0.99 z"
       id="path42" />
    <path
       class="cls-25"
       d="m 12.98,226.88 c 0.07,1.14 0.6,2.36 0.7,3.52 l -0.69,0.14 c -0.25,-1.41 -0.64,-2.81 -0.86,-4.23 l 0.85,0.56 z"
       id="path44" />
    <path
       class="cls-2"
       d="m 51.91,223.44 c 0.19,0.6 1.78,1.79 1.41,3.38 -0.84,0.41 -1.19,-0.96 -1.83,-1.83 z"
       id="path46" />
    <path
       class="cls-3"
       d="m 22.65,176.5 c -0.71,0.1 -0.92,0.45 -1.27,0.99 -0.17,0.25 -0.51,0.45 -0.56,0.85 l -0.71,0.14 c 0.1,-0.45 -0.45,-1.48 -0.42,-2.12 1.12,-0.81 2.39,0.15 2.96,0.14 z"
       id="path48" />
    <path
       class="cls-23"
       d="m 44.42,215.41 c -0.94,-0.58 -2.19,-0.01 -2.96,-0.14 l -2.61,1.42 c 0.67,6 -0.15,8.07 -2.46,6.2 -0.3,-0.12 -0.58,-0.47 -0.85,-0.56 -1.71,0.09 -3.13,0.63 -4.25,1.62 0.59,4 0.11,7.23 -1.45,9.69 -1.01,-3.36 -1.98,-6.8 -2.91,-10.32 -0.61,-0.8 -1.22,-0.77 -1.69,-1.13 -3,-1.06 -4.15,0.82 -3.47,5.64 0.45,4.6 0.72,9.19 0.93,13.79 0.03,0.68 -0.62,1.06 -1.38,1.17 -1.28,-3.14 -2.95,-20.21 -4.73,-21.11 -1.78,-0.9 -3.13,0.42 -3.47,2.22 -0.46,0.86 -0.79,0.43 -0.99,-1.27 -1.02,-11.47 0.2,-16.05 5.75,-26.1 1.07,-0.79 2.51,-0.84 4.34,-0.15 7.66,-0.08 14.72,0.35 19.61,7.1 1.7,2.35 6.94,11.9 2.6,11.92 z"
       id="path50" />
    <path
       class="cls-18"
       d="m 21.32,242.81 c 1.42,-4.65 -1.59,-17.97 -0.02,-21.58 1.32,-3.05 3.36,0.53 3.95,0.98 -2.35,0.15 -2.59,1.43 -2.66,3.42 -0.24,7.31 2.36,15.9 0.71,23.38 l -1.97,-6.2 z"
       id="path52" />
    <path
       class="cls-22"
       d="m 24.25,217.27 11.42,2.1 c -3.81,2.16 -8.94,-1.29 -11.99,-1.25 -0.5,-0.27 -0.32,-0.55 0.56,-0.85 z"
       id="path54" />
    <path
       class="cls-8"
       d="m 24.25,217.27 -0.56,0.85 c -2.09,0.03 -4.83,1.25 -7.05,1.42 -1.12,-0.73 -0.76,-0.93 0.56,-0.85 2.24,-0.15 4.76,-1.16 7.05,-1.42 z"
       id="path56" />
    <path
       class="cls-17"
       d="m 17.2,218.69 -0.56,0.85 c -1.03,0.08 -4.08,-0.17 -4.65,-1.26 1.54,-1.15 4.59,0.45 5.22,0.41 z"
       id="path58" />
  </g>
</svg>
