<?xml version="1.0" encoding="UTF-8"?>
<svg id="Layer_2" data-name="Layer 2" xmlns="http://www.w3.org/2000/svg" viewBox="0 0 96.87 360.36">
  <defs>
    <style>
      .cls-1 {
        fill: #00766d;
      }

      .cls-2 {
        fill: #0e0d0c;
      }

      .cls-3 {
        fill: #01645c;
      }

      .cls-4 {
        fill: #080808;
      }

      .cls-5 {
        fill: #1f1f1f;
      }

      .cls-6 {
        fill: #eac6b0;
      }

      .cls-7 {
        fill: #01655e;
      }

      .cls-8 {
        fill: #00746b;
      }

      .cls-9 {
        fill: #1b1b1b;
      }

      .cls-10 {
        fill: #008c82;
      }

      .cls-11 {
        fill: #00776e;
      }

      .cls-12 {
        fill: #1a1b1b;
      }

      .cls-13 {
        fill: #e7c4af;
      }

      .cls-14 {
        fill: #f1ddc8;
      }
    </style>
  </defs>
  <g id="Layer_1-2" data-name="Layer 1">
    <path class="cls-4" d="M76.13,140.74c-.38.43.05,4.06-.09,5.31-.58,4.96-2.33,10.91-2.2,15.85.1,3.54,1.71,7.91,2.11,11.61,3.66,33.4,2.21,66.19-4.06,99.19,3.84,5.49,11.53,7.96,15.09,13.62,1.98,3.14,8.82,24.32,9.61,28.54,2.06,10.88-7.98,13.9-15.52,8.11l-5.03-8.79c-2.08,10.94,13.94,32.58-3.56,37.12-1.45.38-4.54.09-5,.41-.26.18-1.25,4.2-2.67,5.61-2.36,2.36-8.24,3.32-11.48,2.95-2.16-.25-3.81-1.83-5.01-1.89-1.9-.08-4.15,2.06-7.01,1.74-7.17-.8-6.32-7.85-7.85-9.13-.96-.8-6.23.26-9.26-4.06-4.74-6.74-8.39-27.73-7.95-36.04.61-11.55,9.82-24.78,8.61-34.47-.38-3.01-2.04-6.93-2.61-10.35-5.27-31.6-8.76-61.98-5.19-94.05.25-2.22,1.48-3.72,1.44-6.54-.11-8.59-3.52-19.25-4.49-27.96-1.4-2.39-10.37-2.15-12.88-6.56C.26,129.45-.01,116.74,0,113.79.17,67.31,6.17,28.24,49.18,3.27c13.09-7.6,23.96-.95,32.61,9.61,20.44,24.97,9.88,72.96,5.88,102.32-.71,5.2-.39,18.23-3.73,21.47-.84.82-4.06,2.79-5.24,3.42-.75.4-2.39.45-2.57.65Z"/>
    <path class="cls-14" d="M58.77,133.46l2.2.7c1.9,1.67-1.68,19.53-2.56,23.19l-3.96-.12c-.02.61-.26,1.09-.78,1.38-3.32-.15-6.65-.26-9.95.07-9.63.96-6.1,3.19,1.2,1.13,3.05-.43,5.27.15,6.65,1.73,2.24.21,4.47.54,6.67,1,8.14,34.45,5.87,72.07,1.06,107.32-.2,3.86.04,6.65,3.05,9.27,14.23,10.56,21.86,22.82,26.49,39.91-.21,1.01-.99,1.11-1.99.89-2.17-.87-2.28-1.31-3.47-3.37-2.28-3.97-4.22-11.43-7.33-14.63-6.8-2.88-8.03,5.97-8.7,11.15-.58,10.62,2.72,20.95,5.99,30.91l-.9,1.86c-1.37.6-4.16,1.09-5.04-.54-2.6-4.32-5.85-26.1-7.92-28.26-7.17-2.83-6.31,6.28-5.76,11.13,1.65,8.18,3.68,16.29,6.1,24.31l-1.05,2.01c-2.44.79-4.85,1.12-6.86-.7-3.08-2.79-7.18-22.86-7.57-27.71-.23-2.81.63-7.72.06-9.99-.6-2.4-3.76.04-4.35.24-.47,1.25-1.57,2.13-3.28,2.62-1.05,10.98,1.66,22.77,5.19,33.19.34,1.65-.32,2.29-1.91,1.63-4.63-4.7-7.62-27.65-8.79-34.77-.61-1.75-1.84-1.87-3.45-1.95-2.35,1.59-3.04,4.19-2.09,7.8-.04,1.76-.15,3.19-2.23,3-1.37-6.37-2.12-13.92-1.36-20.44.35-2.97,5.96-20,7.53-21.99,2.97-3.78,15.39-4.21,20.15-5.77,9.17-2.99.12-3.89-4.35-3.62-4.15.24-8.55,1.95-12.64,2.57-1.73-1.17-5.76-25.15-6.35-28.95-2.79-18.06-5.05-38.56-4.43-56.82.29-8.41,3.02-18.93,2.96-26.6-.07-8-3.19-18.55-4.28-26.75-.52-3.88-.98-7.84-.82-11.78,5.99.94,12.24.72,18.27,1.53,7.01.94,13.82,3.14,20.61,4.23Z"/>
    <path class="cls-6" d="M58.77,133.46c4.34.7,7.15.13,11.52,0,.28,9.84-3.54,20.18-2.91,29.91.25,3.88,1.69,7.72,2.09,11.59,2.4,23.33,2.66,48.53,0,71.81-.65,5.71-4.62,19.6-4.22,23.79.88,9.16,14.67,13.09,18.13,20.81l8.24,26.8c-1.44,2.12-2.45,2.71-4.78,1.77,1.28-.48.12-2.25-.18-3.05-2.11-5.63-5.97-15.75-8.87-20.65-3.77-6.35-18.44-15.58-19.59-20.73-1.27-5.66.8-11.71,1.28-17.14,2.12-24.03,4.11-47.91,1.44-71.99-.31-2.83-3.46-23.25-4.34-24.09-.51-.49-4.22.79-5.01-.75l1.25-1.45c10.92.58,11.7.14,2.32-1.33l-.69-1.54c1.57-.26,2.4,1,2.86-1.09,1.18-5.32,2.57-14.89,2.86-20.29.09-1.58-.08-1.64-1.4-2.38Z"/>
    <path class="cls-6" d="M76.05,301.94c-4.89-1.47-5.58,8.56-5.75,11.89-.48,9.2,5.06,18.19,5.34,26.17.09,2.49-.8,4.82-3.19,5.86-3.85-11.51-9.55-28.73-4.88-40.52,1.69-4.26,4.34-7.66,8.48-3.4Z"/>
    <path class="cls-6" d="M40.05,316.34c-2.54,12.61,2.13,25.51,5.76,37.43-1.9.33-4.12,1.67-5.76,0,1.29-.48.09-2.23-.18-3.05-2.85-8.67-4.99-20.61-4.93-29.72.03-4.34,2.23-3.71,5.11-4.67Z"/>
    <path class="cls-6" d="M59.49,317.06c-1.05.15-3.01-.5-3.68.42-1.69,2.34,2.09,17.16,3.02,20.76,1.28,4.96,7.18,13.91-.06,16.26-2.19-11.24-8.1-23.25-6.52-34.96.52-3.85,5.01-4.81,7.24-2.48Z"/>
    <path class="cls-13" d="M27.81,317.06c-2.17,9.12,1.44,19.18,3.6,28.08-1.29.26-1.79-.63-2.47-1.48-2.01-2.52-4.69-12.29-5.44-15.8,2.55-4.09-2.44-11.15,4.32-10.8Z"/>
    <path class="cls-2" d="M54.45,157.22c1.26.12,4.42.74,5.8,1.04,1.59.36,4.86,1.06,5.72,2.55-4.97,1.57-9.41.63-14.4.73-2.26.05-4.5-.36-6.58-.3-1.96.05-10.71,2.85-8.2-1.88,1.46-2.76,14.45-2.44,17.66-2.14Z"/>
    <path class="cls-11" d="M83.97,101.78l-1.75.69-9.83-4.73-.66-1.72c-.63-.2-.62-.44,0-.72l-1.24-1.78c2.93-15.43,4.43-30.97,4.52-46.6,1.41-9.42-9.23-32.36-18.96-33.11-3.32-.26-14.5,9.58-16.86,11.88-17.17,16.77-25.79,38.13-27.94,61.69,1.54,2.3-.94,2.1-2.88,1.44v-2.88c3.16-30.26,7.06-46.67,30.58-66.98,6.28-5.43,12.27-6.91,17.92-10.88,1.17-.82,1.98-2.76,2.39-2.84,4.2-.83,12,4.38,14.98,7.26,20.84,20.11,13.36,63.54,9.72,89.28Z"/>
    <path class="cls-10" d="M67.41,114.74c1.95-.94,2.67.58,1.44,2.16,2.22,1.9,1.21,7.89,0,10.08-5.56,2.75-9.28-.03-14.39-1.09-12.04-2.5-29.63-5.51-41.77-4.67l-3.16.07c-1.77-.93-2.01-11.21.28-12.31l1.33-1.47c18.53-3.04,37.81-.26,55.6,5.32l.67,1.91Z"/>
    <path class="cls-9" d="M71.73,96.02c3.89,1.12,8.62,3.82,12.24,5.76-.92,6.53-2.23,13.71-2.88,20.16-2.43,3.02-11.45-1.61-12.24-5.04-.43-.26-1.09-1.97-1.44-2.16l-1.4-1.27c-.33-4.97.4-9.58,2.21-13.82-5.15-3.92-.48-6.35,3.51-3.63Z"/>
    <path class="cls-1" d="M81.09,121.94c-.23,2.31.17,4.86,0,7.2l-12.24-2.16c-1.61-3.45.28-6.53,0-10.08,3.69,2.18,7.85,4.98,12.24,5.04Z"/>
    <path class="cls-12" d="M8.37,88.82c1.17.15,2.35.12,3.54-.09,1.13.84.54,15.96-.41,18.07-.77,1.69-1.17,1.79-3.14,2.18.31,2.78-.17,4.7-1.44,5.76-1.59-4.8.35-11.15.71-16.21.31-4.4.27-8.19.73-12.59.16.8-.23,2.28,0,2.88Z"/>
    <path class="cls-8" d="M8.37,108.98c.74-.49,1.22-.49,1.44,0,.88,3.29-2.41,12.49,2.88,12.24-1.16.08-3.79,1.47-5.76.72.03-2.39-.04-4.81,0-7.2.03-1.54-.32-4.09-.03-5.31.21-.89,1.22-.29,1.47-.45Z"/>
    <path class="cls-7" d="M14.12,127.71v3.59c-6.91-1.64-8.65-2.69,0-3.59Z"/>
    <polygon class="cls-3" points="78.21 133.47 75.68 135.62 74.61 133.82 78.21 133.47"/>
    <path class="cls-10" d="M71.73,95.3c-1.57-.3-3.08-.25-4.54.15-17.69-5.86-36.38-8.95-54.67-6.87l-1.27-1.2c-2.55.24-.83-.6-.77-1.84,1.21-26.92,15.81-54,37.98-69.3,6.47-4.47,7-5.66,13.84-.43,22.8,17.41,12.14,55.47,9.42,79.5Z"/>
    <path class="cls-5" d="M71.73,95.3v.72c-.93-.27-4-1.13-4.32.37-.38,1.81,2.76,2.36,2.88,2.52.14.18-1.66,2.63-1.99,4.11-.76,3.42-.76,8.15-.89,11.71-7.66-4.06-33.15-7.3-42.14-7.24-4.69.03-10.68,1.5-15.46,1.48-.48,0-.96,0-1.44,0,1.74-1.06,1.84-2.77,2.07-4.77.52-4.52.53-9.68.85-14.27-.17-.95-2.4.22-2.92-1.12,1.22.35,2.53-1.35,2.88-1.44,6.63-1.63,21.22-.68,28.35.09,11.01,1.19,21.59,4.73,32.13,7.83Z"/>
  </g>
</svg>