<?xml version="1.0" encoding="UTF-8" standalone="no"?>
<svg
   id="Layer_2"
   data-name="Layer 2"
   viewBox="0 0 104.28908 315.56129"
   version="1.1"
   sodipodi:docname="Human_04-leg_front.svg"
   width="104.28909"
   height="315.56128"
   xmlns:inkscape="http://www.inkscape.org/namespaces/inkscape"
   xmlns:sodipodi="http://sodipodi.sourceforge.net/DTD/sodipodi-0.dtd"
   xmlns="http://www.w3.org/2000/svg"
   xmlns:svg="http://www.w3.org/2000/svg">
  <sodipodi:namedview
     id="namedview44"
     pagecolor="#ffffff"
     bordercolor="#000000"
     borderopacity="0.25"
     inkscape:showpageshadow="2"
     inkscape:pageopacity="0.0"
     inkscape:pagecheckerboard="0"
     inkscape:deskcolor="#d1d1d1" />
  <defs
     id="defs4">
    <style
       id="style2">
      .cls-1 {
        fill: #3c7279;
      }

      .cls-2 {
        fill: #010101;
      }

      .cls-3 {
        fill: #020202;
      }

      .cls-4 {
        fill: #010202;
      }

      .cls-5 {
        fill: #33676e;
      }

      .cls-6 {
        fill: #215960;
      }

      .cls-7 {
        fill: #6d7682;
      }

      .cls-8 {
        fill: #5d646e;
      }

      .cls-9 {
        fill: #10396c;
      }

      .cls-10 {
        fill: #959ca5;
      }

      .cls-11 {
        fill: #33656b;
      }

      .cls-12 {
        fill: #0f3769;
      }

      .cls-13 {
        fill: #3c7178;
      }

      .cls-14 {
        fill: #7c8289;
      }

      .cls-15 {
        fill: #dadada;
      }
    </style>
  </defs>
  <g
     id="Layer_1-2"
     data-name="Layer 1"
     transform="translate(-0.00241872,-0.00131142)">
    <path
       class="cls-2"
       d="m 100.84,253.38 c -1.58,3.29 -3.71,6.05 -6.37,8.3 -2.01,1.85 -16.92,-4.6 -17.46,-5.36 -1.52,-2.14 -0.51,-2.24 1.53,-2.22 2.94,-1.58 8.21,0.11 10.07,2.88 1.26,0.34 2.33,0.5 3.6,0 -0.85,-1.05 -0.44,-1.44 0.72,-0.72 -0.08,-0.97 -0.05,-2.37 0.72,-2.88 0.28,-0.91 -0.09,-1.61 -0.96,-2.15 C 99.59,179.27 97.31,103.47 79.54,32.33 76.66,18.61 72.37,12.15 59.12,6.66 L 57.04,7.68 C 50.27,6.28 43.39,7.23 36.79,9.02 L 34.67,8.1 33.87,9.82 c -6.98,2.16 -14.37,5 -18.93,11 l -1.85,0.23 C 9.18,25.78 7.12,31.65 5.9,37.59 l 1.29,2.94 c -0.16,4.69 0.08,9.38 0.56,14.04 5.51,33.07 8.53,67.2 8.31,101.37 -0.43,32.95 -0.21,65.88 0.67,98.8 1.96,0.63 2.9,1.62 2.84,2.96 5.91,0.65 0.41,5.48 -3.38,2.44 -1.77,-2.55 -3.76,-3.36 -5.97,-2.44 C 7.01,249.48 8.9,223.83 8.81,213.43 8.48,173.05 9.5,129.17 5.09,89.11 1.45,56.06 -12.11,18.42 28.73,3.97 c 22.63,-8.01 48.88,-5.19 56.8,20.52 16.98,55.11 20.27,133.38 18.22,191.16 -0.45,12.52 -2.54,25.21 -2.91,37.73 z"
       id="path6" />
    <path
       class="cls-1"
       d="m 59.12,6.66 c 10.85,4.7 16.25,20.18 18.14,31.18 11.47,66.87 15.64,137.96 8.9,205.24 l -1.86,1.66 -1.69,0.81 c -15.24,-5.06 -34.94,-8.8 -49.97,-1.74 l -1.57,-0.51 c -4.14,3.86 -6.62,1.84 -5.76,-5.54 -0.06,-28.73 0.3,-57.35 1.08,-85.85 C 26.26,121.51 21.92,94.37 15.8,65.34 11.55,45.42 15.83,25.87 31.81,13.04 32.7,11.09 33.65,9.44 34.67,8.09 43.3,5.74 50.27,4.53 59.13,6.65 Z"
       id="path8" />
    <path
       class="cls-6"
       d="m 34.66,8.1 c 1.39,5.2 -5.58,8.92 -8.61,12.61 -16.1,19.59 -9.38,39.58 -5.67,62.46 1.3,8.04 3.63,15.9 4.81,23.96 4.82,32.85 1.55,66.19 1.59,99.11 0.02,12.6 -0.08,25.21 -0.03,37.79 l 4.31,-0.72 c 0.82,0.7 0.8,1.61 -0.06,2.71 3.53,-2.01 7.09,-2.96 10.66,-2.87 l 0.91,0.87 c 1.6,2.05 0.64,4.45 -2.88,7.19 -6.76,1.21 -13.25,5.48 -20.14,6.47 -1.27,-0.74 -3.38,-0.93 -4.2,-2.64 C 13.44,220.87 15.11,186.51 14.55,152.27 14.19,130.03 13.59,107.64 10.82,85.51 8.83,69.61 4.72,53.98 5.89,37.57 7.1,31.62 9.18,25.76 13.08,21.03 16.98,14.23 27.18,10.12 34.66,8.08 Z"
       id="path10" />
    <path
       class="cls-6"
       d="m 93.64,253.38 c -0.57,0.04 -0.81,0.99 -0.72,2.88 -0.14,0.23 -0.49,0.58 -0.72,0.72 -1.23,0.49 -2.34,0.37 -3.6,0 -3.36,-0.86 -6.67,-2.1 -10.07,-2.88 -3.81,-0.87 -7.64,-1.64 -11.51,-2.16 l 0.96,-1.31 c -0.8,0.97 -4.59,-5.64 -1.68,-5.88 l 2.31,-1.03 16.94,5.05 c -0.52,-1.05 -0.94,-2.39 -1.27,-4.02 1.22,-4.8 1.88,-10.51 2.15,-15.47 C 89.91,165.4 87.02,107.48 76.99,44.52 74.79,30.7 70.65,15.48 59.1,6.66 c 15.7,3.77 18.05,10.94 21.81,25.31 16.14,61.72 19.39,135.94 14.88,199.48 -0.55,7.73 -0.12,14.15 -2.17,21.93 z"
       id="path12" />
    <path
       class="cls-11"
       d="m 5.89,37.59 c 0.43,-6.07 2.44,-12.55 7.19,-16.54 -3,5.23 -5.23,10.86 -7.19,16.54 z"
       id="path14" />
    <path
       class="cls-5"
       d="m 93.64,253.38 c -0.28,1.07 0.25,1.29 -0.72,2.88 l -0.55,-0.42 c 0.23,-2.21 1.01,-5.96 1.27,-2.46 z"
       id="path16" />
    <path
       class="cls-3"
       d="m 92.21,256.98 c -2.46,1.44 -1.97,0.42 -3.6,0 z"
       id="path18" />
    <path
       class="cls-13"
       d="m 66.31,244.75 c -0.22,3.1 5.78,7.9 0.72,7.19 -8.32,-1.1 -19.13,-2.19 -27.33,-0.72 -2.55,0.11 -1.12,-0.37 -0.35,-1.43 1.26,-1.75 3.32,-3.42 3.23,-5.76 L 44,242.49 c 7,-0.38 14.07,-0.25 21.03,0.62 l 1.29,1.65 z"
       id="path20" />
    <path
       class="cls-3"
       d="m 67.03,251.94 c 3.95,-1.12 8.38,-1.19 11.51,2.16 l -1.79,0.72 c 4.64,0.52 13.83,8.13 18.03,5.08 1.86,-1.35 2.73,-6.36 6.06,-6.52 0,0.28 0.75,1.26 0.68,2.43 -0.15,2.6 -3.83,8.38 -6.44,9.08 -0.88,1.63 -0.62,2.51 0,4.32 2.63,6.18 3.74,20.31 2.81,26.91 -1.04,7.37 -15.32,13.49 -21.67,15.74 -14.65,5.17 -25.96,4.65 -40.84,0.15 C 16.1,306.19 8.13,298 12.99,277.39 c 0.51,-2.17 4.88,-12.69 4.41,-13.21 -0.14,-0.16 -2.45,-0.23 -3.98,-1.43 -1.42,-1.12 -2.57,-3.38 -3.22,-5.05 4.11,-6.29 5.56,4.66 10.78,1.43 0.17,-0.74 -0.87,-1.1 -1.43,-1.43 l 1.23,-1.68 c 5.71,-1.89 11.4,-3.85 17.08,-5.88 0.4,0.95 0.98,1.38 1.83,1.08 l 1.61,-1.7 c 8.02,-0.95 16.11,-0.22 24.08,0.76 l 1.64,1.66 z"
       id="path22" />
    <path
       class="cls-14"
       d="m 95.08,264.89 v 4.32 c -0.25,-0.58 -3.1,-4.14 -2.88,-4.31 0.88,-0.16 2.12,0.2 2.88,0 z"
       id="path24" />
    <path
       class="cls-15"
       d="m 79.98,264.89 1.73,-0.19 c 4.82,6.3 8.63,19.43 3.44,26.26 l -8.77,7.73 c -13.36,4.9 -26.62,4.59 -40.28,0.72 -4.73,-3.61 -12.35,-9.42 -13.37,-15.59 -1.11,-6.77 1.7,-17.49 6.17,-22.53 1.19,-0.49 2.42,-0.91 3.59,-1.44 -0.89,2.1 1.8,4.43 1.89,5.39 0.16,1.75 -2.86,4.67 0.32,7.15 3.24,2.53 12.85,-1.64 17.51,-1.68 1.56,-0.01 6.08,0.55 7.81,0.83 3.57,0.58 12.73,4.45 15.12,4.02 5.42,-0.97 3.42,-5.32 3.62,-8.09 0.06,-0.83 0.89,-1.77 1.23,-2.59 z"
       id="path26" />
    <path
       class="cls-10"
       d="m 28.91,261.29 c -1.99,7.1 -5.88,14.12 -4.84,21.75 0.97,7.15 8.79,10.26 12.04,16.37 -5.59,-1.58 -18.15,-7.09 -19.04,-13.55 -0.69,-5 4.65,-19.77 8.6,-23.15 1.25,-1.07 2.06,-0.93 3.25,-1.42 z"
       id="path28" />
    <path
       class="cls-10"
       d="m 76.38,298.7 c 0.61,-4.59 6.35,-6.3 8.22,-9.41 3.72,-6.19 0.25,-19.13 -4.62,-24.4 0.35,-0.85 0.33,-3.49 1.79,-2.87 0.55,0.23 6.97,6.81 7.46,7.65 0.97,1.66 1.5,4.09 1.93,5.98 0.48,2.09 2,10.29 1.79,11.85 -0.57,4.38 -12.61,9.74 -16.57,11.19 z"
       id="path30" />
    <path
       class="cls-7"
       d="m 85.73,300.14 c 1.17,-0.51 1.39,-0.43 0.72,0.72 -7.77,5.02 -21.36,9.76 -30.6,9.38 -9.24,-0.38 -25.93,-4.25 -33.08,-10.08 -1.02,-0.83 -4.33,-3.61 -3.58,-5.05 8.47,6.83 19.55,10.2 30.31,11.41 13.86,1.56 23.69,-0.66 36.23,-6.38 z"
       id="path32" />
    <path
       class="cls-12"
       d="m 75.65,264.17 c -1.72,-0.9 -4.44,-3.19 -6.29,-3.48 -1.48,-0.24 -2.74,0.64 -3.96,0.44 -2.83,-0.47 -5.85,-1.76 -8.81,-1.98 -6.31,-0.47 -13.32,1.2 -19.36,2.8 -3.35,-3.04 1.83,-4.89 4.58,-5.37 5.21,-0.9 24.51,0.55 29.54,2.18 2.56,0.83 4.88,2.38 4.3,5.41 z"
       id="path34" />
    <path
       class="cls-9"
       d="m 74.22,270.64 c -9.73,-3.28 -17.95,-4.97 -28.22,-3.39 -2.22,0.34 -4.73,1.56 -6.83,1.81 -3.68,0.45 -0.41,-2.46 1,-3.32 6.63,-4.08 24.07,-2.25 30.97,1.16 1.61,0.8 2.42,2.13 3.08,3.75 z"
       id="path36" />
    <path
       class="cls-8"
       d="m 85.73,300.14 c 1.2,-0.55 2.53,-2.46 4.32,-2.15 -0.55,1.69 -2.36,2.07 -3.6,2.87 z"
       id="path38" />
    <path
       class="cls-4"
       d="m 84.29,244.75 c 2.56,1.34 4.75,5.48 1.07,5.43 -6.21,-1.78 -12.67,-4.38 -19.05,-5.43 -6.38,-1.05 -16.93,-1.27 -23.74,-0.72 -5.24,0.42 -9.82,2.63 -14.38,5.04 -0.67,-0.87 2.15,-5.01 2.87,-5.75 6.2,-6.4 28.18,-4.77 36.72,-3.27 3.63,0.64 13.49,3.13 16.51,4.71 z"
       id="path40" />
  </g>
</svg>
