<?xml version="1.0" encoding="UTF-8"?>
<svg id="Layer_2" data-name="Layer 2" xmlns="http://www.w3.org/2000/svg" viewBox="0 0 89.85 133.6">
  <defs>
    <style>
      .cls-1 {
        fill: #8d8d6c;
      }

      .cls-2 {
        fill: #6e603e;
      }

      .cls-3 {
        fill: #756442;
      }

      .cls-4 {
        fill: #565132;
      }

      .cls-5 {
        fill: #6f613f;
      }

      .cls-6 {
        fill: #080605;
      }

      .cls-7 {
        fill: #100d09;
      }

      .cls-8 {
        fill: #826c49;
      }

      .cls-9 {
        fill: #19140e;
      }

      .cls-10 {
        fill: #b28a62;
      }

      .cls-11 {
        fill: #a7835d;
      }

      .cls-12 {
        fill: #241c14;
      }

      .cls-13 {
        fill: #70613f;
      }

      .cls-14 {
        fill: #8b714e;
      }

      .cls-15 {
        fill: #4a4a2b;
      }

      .cls-16 {
        fill: #b18962;
      }

      .cls-17 {
        fill: #534f30;
      }

      .cls-18 {
        fill: #5f5736;
      }

      .cls-19 {
        fill: #6c5f3d;
      }

      .cls-20 {
        fill: #7e6947;
      }

      .cls-21 {
        fill: #615837;
      }

      .cls-22 {
        fill: #937354;
      }

      .cls-23 {
        fill: #b08961;
      }

      .cls-24 {
        fill: #1d1710;
      }

      .cls-25 {
        fill: #846e4a;
      }

      .cls-26 {
        fill: #675c3a;
      }

      .cls-27 {
        fill: #080705;
      }

      .cls-28 {
        fill: #7d6846;
      }

      .cls-29 {
        fill: #796744;
      }

      .cls-30 {
        fill: #15100c;
      }

      .cls-31 {
        fill: #605837;
      }
    </style>
  </defs>
  <g id="Layer_1-2" data-name="Layer 1">
    <path d="M59.12,24.49c.74.99,14.74-12.61,10.79,2.16,9.97-11.47,11.96,10.88,8.77,17.05-.66,1.28-2.65,2.7-2.76,3.43-.16,1.11,1.28,3.78,1.2,5.76s-1.66,3.94-1.32,5.59,2.44,5.31,3.1,7.73c.69,2.55,1.16,5.25,1.08,7.92,15.39-6.08,9.67,17.22,3.63,23.42-3.25,3.34-5.38,2.28-7.1,3.33-.19.12-1.16,2.85-1.71,3.69-3.1,4.81-6.52,9.33-9.68,14.06-3.76,5.63-3.79,10.38-11.28,13.18-6.72,2.52-14.73,2.87-20.28-2.3s-11.14-18.94-16.85-23.44c-1.59-1.25-3.74-1.24-5.61-2.3-6.58-3.75-12.12-15.32-10.95-22.77.68-4.32,4.29-7.46,8.58-5.44.14-2.95-.24-5.96.1-8.9.24-2.11,2.07-6.38,2.05-7.29s-1.88-3.15-2.36-4.8c-2.51-8.58-.01-18.58,6.68-24.72,4.11-3.77,8.85-3.54,13.35-8.96,1.26-1.52,4.21-7.31,4.65-7.59,3.43-2.16,6.32,4.11,5.78,6.86,4.82-2.59,7.27-7.77,6.43-13.27-.25-1.62-3.45-8.44,2.22-6.59,7.36,2.4,13.87,16.74,11.5,24.18Z"/>
    <path class="cls-15" d="M64.14,27.37c-1.7,5.03,2.1,6.72,6.49,4.68,1.73-.81,2.5-2.41,4.31-2.51.25,4.18,1.5,6.78-.19,10.96-.84,2.07-3.72,4.33-4.01,6.1-.34,2.11,1.98,4.25,1.2,6.88-.08.27-3.08,4.08-3.49,4.47-4.91,4.69-6.67.81-11.71,1.96-2.85.65-5.15,4.42-8.12,4.86-3.32.49-6.29-1.53-10.03-1.46-3.94.07-8.68,2.88-12.15.69-1.29-.82-1.94-3.27-3.32-3.87-2.9-1.28-4.98.87-7.8-2.99-4.36-5.99-3.43-13.61.31-19.61s6.92-5.2,12.04-8.82c1.19-.84,4.81-4.91,5.16-4.9.71.02.94,4.97,7.8,1.31,5.45-2.91,9.22-9.65,9.84-15.71,3.29,2.64,4.89,8.49,4.26,12.55-.3,1.97-3.06,5.19-1.06,6.88,2.42,2.05,7.95.04,10.46-1.44Z"/>
    <path class="cls-22" d="M7.3,80.61c2.67,7.66,3.64,9.51,2.93,5.53l1.38-1.22c2.05,2.24,2.77,3.14,5.04,5.04.5-.48,1.04-.6,1.62-.29l2.7,4.61c.16.29.64.77,1.44,1.44,1.41-1.69,3.22.26,2.88,2.16l4.43,6.6c5.89,22.49,23.33,25.76,30.19,2.03,4.72-5.41,8.46-11.29,12.16-17.26,2.59-3.47,3.54-7.04,7.2-9.35,1.28,1.22,1.22,3.31-.18,6.26,2.93-1.11,4.43-.56,4.49,1.65-.63,1.91-3.34,7.78-5.41,7.92-.34.02-.29-1.37-.78-1.48-4.07-.93-5.94,6.21-7.62,8.88-2.65,4.21-5.9,7.69-8.51,11.63-1.94,2.93-3.36,7.9-5.71,10.12-4.24,4-14.37,4.72-18.74.68-2.15-1.99-2.89-5.24-4.33-7.18-4.76-6.41-10.78-12.02-14.68-19.13-3.25-2.38-3.15,1.22-4.36.77-4.72-1.76-10.58-15.11-8.28-20.14,1.28-.42,1.52.35,2.15.72Z"/>
    <path class="cls-10" d="M72.06,89.24c1.74.77.21,2.08-.33,2.91-2.33,3.57-9.59,12.54-10.79,15.11-.59,1.27-.26,2.86-.95,4.09-4.6,8.17-9.85,17.08-20.34,11.39-7.48-4.06-7.87-10.52-10.95-17.11-1.11-2.39-4.81-5.17-3.41-7.74,1.07-.72,2.51-.24,4.32,1.44,2.23.8,3.74,2.72,4.55,5.77,2.04.3,3.26,1.88,3.65,4.76-.14-1.64.25-2.75,1.16-3.33,1-1.76,1.84-1.19,1.44.72.94.98,1.66,2.18,2.16,3.6.35-1.22.55-1.9,1.44-.72.81.55,1.53.55,2.16,0-1.01-1.97-.77-2.69.72-2.16,1.72,1.73,2.61,1.93,2.66.6l1.66.12c1.33.35,2.38-.45,3.13-2.41,1.15,1.03,5.83-2.35,6.28-2.91,1.64-3.73,3.77-7.14,6.42-9.79,4.45-1.54,1.71-1.2,3.55-3.87.47-.69,1.44-.38,1.49-.45Z"/>
    <path class="cls-29" d="M68.46,64.06c4.18,1.11.58,16.36-.97,17.63-.56.46-3.37,1.72-3.94.28-.28,2.07-2.7,2.58-3.65.66,1.58,2.31-3.24,5.98-5.63,5.48-.32,1.65-1.83,2.26-4.53,1.86-1.07-.24-1.32-1.17-.74-2.79l-1.42.63c-1.3.62-2.73,1.1-4.32,1.44-.71.23-.95-.01-.72-.72-2.1-1.58-3.86-2.33-6.48-1.93-2.92-.54-3.14-5.62-.72-6.7l1.73.71c1.93,7.09,7.38-8.39-.4-4.76l-1.38-1.12c.11-1.26-.83-1.93-2.83-2.02-3.31-2.21,1.74-3.68,4.24-3.52,1.28,1.41,3.7,3.23,5.28,3.42,2.93.35,6.82-2.02,9.19-3.5,1.54-1.31,2.61-1.91,4.32-2.88l1.54.46c2.48,5.63,4.39,3.06,4.03-1.84,2.18.5,4.16.48,5.94-.06.08-.01,1.03-.53,1.44-.72Z"/>
    <path class="cls-5" d="M70.62,62.62c3.13,2.99,2.99,13.38-.72,15.83,1.04.77.94,1.12-.32,1.04,1.54,1.96.35,4.06-3.58,6.29-.53,1.67-1.15,3.06-1.85,4.18-.56,3.16-3.71,11.21-6.93,11.6-.37.04-6.22-2.24-5.27-3.23,1.23-2.19,1.14-3.43-.25-3.71-3.7-.09-4.91-2.59-1.93-4.65,1.18-.43-.02-2.91,2.16-2.15l.71,1.43c1.03-6.84,2.21-2.09,2.51-2.14,1.43-.26,1.9-2.12,2.52-2.46.46-.25,1.4.36,1.45.29.28-.46-1.62-2.84.37-3.59,2.35-.89,1.24,1.43,2.5,1.43l.36-2.17c1.55-.04,2.79-.43,2.53,1.45.24-.05,2.57-2.18,2.66-2.35.29-.52,2.34-11.02,2.29-11.72-.09-1.26-1.73-2.34-1.36-3.92.12-.05,1.63-1.1,2.16-1.44Z"/>
    <path class="cls-26" d="M24.57,69.82l.89,1.75c-1.73,3.28-1.53,6.76.6,10.44,4.74-.27,6.25,2.39,4.53,7.97,3.97-1.94,5.74,2.99,5.4,6.24-.38,3.6-.88,4.24-4.22,2.38-.63.83-1.35.35-2.16-1.44-.5,3.77-7.22-3.92-7.2-5.76l-.97-.29c-.41-1.27-.98-2.96-1.9-1.87-1.4.81-1.99-.01-2.16-1.44.06-1.19,0-2.4,0-3.6.5-.34,1.13-.62,1.62-.34,3.33,1.82,2.18-2.81.51-4.38-3.56-4.47.04-11.23,5.06-11.1,1.94.22,1.75.65,0,1.44Z"/>
    <path class="cls-17" d="M20.25,63.34c2.64,3.08,2.01,6.3-1.87,9.66.02,3.24.16,6.52.42,9.84l-1.43,1.37c-.34-.33-.63-1.31-1.06-1.32-.49,0-2.15.99-2.53.6-.85-.86-1.68-22.29,1.07-22.29,1.18,1.98,4.12,1.54,5.4,2.14Z"/>
    <path class="cls-19" d="M41.84,68.38l1.33.71c-.6,1.72.63,1.96,3.71.73,1.35.12,2.9-.76,4.32-.72-.06.05.21.87-.47,1.48-1.63,1.45-8.94,2.97-11.06,2.56-3.21-.62-3.21-4.88-6.46-2.21-.82.68-.52,1.46-.72,1.77l-1.96,2.47c-1.45,8.13-8.19,5.13-5.19-3.06.25-1.41.29-1.69-.77-2.28.09-.41-.06-.98,0-1.44h.72c1.83-.08,3.76.92,6.1.75,4.68-.35,4.36-1.92,10.45-.75Z"/>
    <path class="cls-21" d="M75.66,74.85c.07,8.95-6.85,9.03-8.44,15.69-.28,1.17-.08,2.05-.19,3.02-.24.62-.48.62-.72,0-2.27-.35-4.25-1.72-2.16-3.6-1.34-4.24.91-4.91,3.24-7.91l1.07,1.43c-.23-1.89,1.02-3.54,1.45-5.03,1.45,1.61,2.37.61,2.77-2.99.83-1.78,2.03-2.48,2.98-.61Z"/>
    <path class="cls-31" d="M25.29,68.38c-.25.01-.57-.06-.72,0-.52.23-.88,1.42-1.5,1.74-3.53,1.78-6.27,1.82-3.13,7.56,1,1.82,3.08,2.06,3.18,2.23.43.65-1.02,1.85-1.1,2.49-.11.85.79,2.71.36,3.22-.11.12-2.98.79-3.14.78-.14-.01-1.26-1.59-1.87-2.18.02-2.87-.26-6.11.08-8.91.59-4.81,4.8-6.85,2.79-11.95,1.02.48,3.27,4.35,5.04,5.04Z"/>
    <path class="cls-4" d="M70.62,62.62c.52-.33.61-1.94,2.15-1.44.77,4.62,2.85,8.87,2.88,13.67-2.47-.45-1.97,4.99-2.96,5.71-.43.31-4.17.07-2.79-2.12,1.66-5.83,1.59-9.84.72-15.83Z"/>
    <path class="cls-16" d="M79.26,79.89c1.72-1.09,3.59-2.47,5.75-2.16.27,3.42-.37,6.84-1.44,10.07-3.47-2.31-4.71,1.41-7.19,2.88l2.87-10.79Z"/>
    <path class="cls-13" d="M67.02,64.78l-.73,3.6c-2.24-1.54-.4-3.73-4.31-2.87,2.28,7.35-5.52,7.66-6.48.71,1.02-.58,1.67-2,3.27-2.15,2.07-.18,5.3,1.27,8.25.71Z"/>
    <path class="cls-23" d="M11.62,84.93c.05,3.15.91,6.19,2.88,8.63-5.37-2.19-7.9-7.31-7.2-12.94,1.88,1.1,2.91,2.77,4.32,4.32Z"/>
    <path class="cls-18" d="M46.88,69.82c.77,2.53-5.49,2.39-5.75,2.15l.72-3.59c1.55.3,3.88,1.34,5.04,1.44Z"/>
    <path class="cls-30" d="M17.38,87.8c1.05-.3,1.73.57,2.16,1.44,1.68-.65,2.58,2.39,1.44,3.6.69.14.8,1.17,0,1.44-2.43-.26-2.22-2.56-4.32-4.32.94-.35.68-1.37.72-2.16Z"/>
    <path class="cls-1" d="M55.51,38.88c.4.37,1.44,9.38,1.45,10.79l3.95-7.9c1.5,3.91,3.39,6.63,7.55,4.31.3,5.58-4.92,4.56-6.84,7.91-2.17.28-1.03-2.71-2.5-2.87.03,1.3-2.87,5.75-4.32,4.31-.33-.33,1.66-7.2-.36-8.64-.68,1.19-3.56,9.05-3.97,9.36-2.04,1.53-2.61-4.5-2.16-5.75l-3.96,5.03c-1.59.35-1.65-2.05-1.81-2.16-.38-.26-2.91,3.86-3.94-1.44-1.27.77-1.7,3.89-2.93,4.27-2.61.8-1.8-2.64-3.54-2.12-.78.23-.54,2.5-2.16,2.16s-2.77-4.91-2.54-6.47l-.72,7.19c-2.83.3-4.63-2.59-5.04-5.03-1.66.41.25,4.41-1.81,5.03-3.99,1.19-7.13-12.66-2.5-12.94.04,1.76-.14,3.54.09,5.31.1.78.27,3.36,1.35,3.32-.03-3.47-.48-10.89,4.32-10.78.14,2.71-.22,5.49.07,8.21.07.69.31,2.71,1.37,2.58-1.23-2.39.14-12.37,2.53-12.94,2.74-.66,1.67,10.15,2.52,12.23,2.17-.88,1.79-8.59,3.95-8.62,1.77-.02.89,7.88,1.09,9.34,2.28-.96,2.93-6.32,4.68-7.19s1.24,3.86,1.86,4.25c1.13.7,3.52-1.36,2.82,2.22,2.46-1.22,2.35-5.65,5.75-5.03l.71,5.03c1.7-4.27,3.49-8.16,2.89-12.95.58.09,2-.14,2.15,0Z"/>
    <path class="cls-7" d="M29.61,97.16c1.22.57,1.43,1.74,0,2.16-1.98.48-2.91-.69-4.32-1.44-1.64-.87-2.07-1.71-2.88-2.16-1.15-.09-1.39-1.05-.72-2.88-.93-1.03-.64-1.95.72-1.44.44.64,4.45,3.32,4.64,3.58.55.74.43,2.25,1.47,2.88.34-.24.69-.55,1.08-.7Z"/>
    <path class="cls-11" d="M22.41,95.72c-.09-.05-1.37.54-2.16,0-.24-.25.7-1.1.72-1.43.03-.41.09-1.13,0-1.44.2-.63.44-.62.72,0,.06.66.99,1.87.72,2.88Z"/>
    <path class="cls-2" d="M42.56,88.52c.21.27.46.5.72.72,4.58-2.78,6.32,2.74,4.76,6.56,2.71,1.01,3.68,6.66,1,7.83-.45,2.1-4.47,4.02-6.48,3.6-.74,0-1.46,0-2.16,0l-1.44-.72c-1.57-.56-2.53-2-2.88-4.32-2.24-1.21-.14-8.85,3.01-7.79-2.25-2.67.51-8.65,3.47-5.88Z"/>
    <path class="cls-6" d="M67.02,93.56c-.11.93.31,3.11-.12,3.53-.23.23-1.4-.15-1.86.24-.91.77-2.68,6.27-3.43,7.01-.66.66-1.81.66-2.44,1.16-.82.66-1.13,2.14-1.98,2.39s-2.27-.75-2.39-.67c-.27.18-1.78,7.17-3.62,1.44-.94-.58-.34-1.53.72-1.44.02-2.13.96-2.85,2.88-3.6,0-2,.98-2.14,2.16-.72l-.27-1.22c2.92-1.19,4.89-3.51,5.92-6.95,1.05-1.52,2.07-2.4,3.7-1.19.21-.07.51.07.72,0Z"/>
    <path class="cls-27" d="M31.77,98.6c1.43.14,2.87,1.34,4.32,3.6,2.02-.14,2.51,2.55,2.88,4.32.51,2.42,1.25,4.7-2.15,5.03-.27-.2-1.07-3.98-1.44-4.55-.53-.82-1.61-.24-2.22-.94-.72-.83-.88-3.01-1.42-4.01-.6-1.11-1.56-.45-2.13-2.73-.15-.59.1-1.49,0-2.16.13-.05.2-.73.35-.71.24.04,1.4,1.66,1.81,2.15Z"/>
    <path class="cls-20" d="M49.04,103.63c-.05-1.31.73-1.88,2.34-1.7.42-3.73,1.46-3.29,3.87-1.17,3.08-.04,3.65.67,1.71,2.14-.52.24-1.47.47-2.16.72-1.6,1.3-3.52,2.26-5.76,2.88.31,1.89-.52,2.08-2.16,1.44-.77,1.16-.47,1.15-.72,2.16-1.61,1.62-1.84-2.42-1.72-2.24.38.58.6,2.3-.44,2.24-.43.14-1.1.72-1.44.72-1.5-.75-1.58-2.94,0-3.6,1.07-1.61,4.55-2.96,6.48-3.6Z"/>
    <path class="cls-12" d="M49.04,106.51c2.63-1.53,3.59-1.29,2.88.72-.5.66-.6,1.28-.72,1.44-1.06,1.4-1.91,3.92-3.56,2.86-.25-.16-.73-2.88-.76-3.58,1.01-1.52,1.77-1.1,2.16-1.44Z"/>
    <path class="cls-9" d="M40.4,107.23c.08-2.83,1.9-1.3,2.16,0,.21,1.03-.14,2.48,0,3.6-2.38-.01-2.21-1.65-2.16-3.6Z"/>
    <path class="cls-24" d="M46.16,110.11c-.16.65.39,2.19-.37,2.17-1.5-.04-1.59-.99-1.79-2.17-.15-.86.09-1.96,0-2.88l2.15,2.88Z"/>
    <path class="cls-3" d="M24.57,69.82c1.31-1.15,2-.29,2.19,1.1.31,2.34-1.29,5.03-.74,7.54,5.24-.16,2.29-1.48,3.19-3.56.67-1.55,2.2-1.62,3.27-2.2.56,1.57.76,3.25.6,5.04,2.53-.88,5.24,1.19,2.28,2.15.24,1.18-.4,4.27.06,4.98s2.95.08,3.73.23c.91.18,2.49,1.41,2.68,1.27.42-.32.1-3.65,1.44-3.59-.17.96-.47,5.39-.71,5.75-.13.2-2.76.32-2.89,3.31s2.89,1.63,2.16,4.61c-.6-.32-4.11-.83-4.26-.68-.24.22-1.16,5.56-1.49,6.44-.34.02-1.77,1.11-2.15.72-.17-.18-.89-2.77-2.17-4.32l1.02-1.38c2.89,5.18,1.69-5.28.45-6.23-.8-.61-4.26,2.38-4.11-1.97.07-2.03,2.34-4.39-.76-5.37-.15-.05-2.99-.31-3.06-.17-.53,1.15,1.14,3.04-2.16,3.61.62-2.51,1-4.96.73-7.58-.17-1.67-1.26-2.89-1.26-4.15,0-1.91,1.55-3.73,1.96-5.54Z"/>
    <path class="cls-25" d="M32.49,72.7c1.16-.62,1.92-1.82,3.59-1.44l.73,3.6c6.89-3.44,5.44,4.16,4.2,8.52-4.82,1.54-4.44.16-5.65-3.48-.12-.36.08-.98,0-1.44-.61.72-5.55,1.68-5.74,1.44-.07-.08-.09-2,0-2.16.06-.11,1.86,1.07,2.13-.4.35-1.86-1.26-1.45.74-4.63Z"/>
    <path class="cls-8" d="M47.6,87.8c.85-2.09.05-5.73.37-7.29.15-.73,1.14-1.4,1.31-2.06.45-1.79.92-5.9,2.73-7.13.12-.08,2.69.55,2.8.65.22.2-1.06,3.35-.73,4.31l-1.42-2.87-2.89,16.54-1.34,1.65c-2.31-2.49-2.58-3.75-.82-3.8Z"/>
    <path class="cls-3" d="M47.6,87.8c.3.47-.86,3.27,2.16,2.16-1.36,3.84-.81,2.44,2.18,3.21.69.18,1.64,1.1,1.78,1.09.98-.07,1-3.45,2.51-3.58,1.32,3.36-2.61,5.62-2.92,7.59-.08.49,1.77,2.46,1.92,2.46,4.8.23,5.47-5.06,6.95-8.82.44-1.12.2-2.32,1.97-1.95.46,1.45.16,2.4,2.15,1.44v2.16c-2.91,1.01-4.21,5.28-5.75,6.91-.15.16-3.4,2.35-3.6,2.45.6-1.11-3.02-2.86-3.24-2.86-1.61-.05-.27,2.68-.36,2.8-.47.64-3.56.53-4.31.78-.05-1.61.28-4.79-.65-6.06-.58-.8-2.08-.27-2.23-.42-.27-.26,2.32-5.55,1.1-7.2-1.11-1.5-2.25.76-3.97-.71.47-1.8,3.57-2.61,4.32-1.44Z"/>
    <path class="cls-28" d="M19.53,89.24c-.7-2.23,1.39-1.1,2.39-.03.9.95.34,1.99.48,2.19-.13.41-.75,1.15-.72,1.44h-.72c-.06-.19-1.34-3.39-1.44-3.6Z"/>
    <path class="cls-14" d="M54.79,103.63c-1.02.74-1.09,2.86-1.62,3.44-.34.37-1.19.08-1.25.16-1.19-2.34-2.47,3.48-2.88-.72.13-.11-.03-1.33.7-1.79,1.01-.64,3.55-.54,5.06-1.09Z"/>
  </g>
</svg>