<?xml version="1.0" encoding="UTF-8"?>
<svg id="Layer_2" data-name="Layer 2" xmlns="http://www.w3.org/2000/svg" viewBox="0 0 42.63 96.48">
  <defs>
    <style>
      .cls-1 {
        fill: #b28a63;
      }

      .cls-2 {
        fill: #937354;
      }
    </style>
  </defs>
  <g id="Layer_1-2" data-name="Layer 1">
    <path class="cls-1" d="M28.21,83.59c1.96,1.17,1.41,3.06-.72,3.6-.51,3.58-1.93,9.21-6.81,9.29-4.82.08-5.47-3.38-6.56-7.06-.15-.49-1-.72-1.01-.79-2.13-.44-1.09-2.67.72-2.88l-.92-1.6c-1.92-15.64-3.72-31.3-5.4-46.97-.29-3.83-.74-20.34,2.42-23.28s18.75-2.68,21.99-.13c4.64,3.66,3.21,22.67,2.75,27.33-1.4,14.22-3.63,28.56-6.45,42.49Z"/>
    <path d="M27.49,87.19c.17-1.2.67-2.61.72-3.6,3.35-17.74,6.63-36.34,7.36-54.57.42-10.56-1.18-21.7-14.09-22.27-15.8-.7-15.1,17.87-14.59,29.19.75,16.61,3.41,33.84,6.93,49.81,0,1.06-.76,2.73-.72,2.88-1.92,1.73-4.77-2.17-5.44-3.55-1.38-2.84-2.4-8.81-2.99-12.11C2.08,58.57-2.7,26.09,1.96,13.11,9.42-7.66,41.55-3.08,42.59,22.1c.4,9.74-2.9,29.75-4.4,40.18-.69,4.8-1.38,10.15-2.42,14.84-.89,4.01-2.49,12.95-8.28,10.06Z"/>
    <path class="cls-2" d="M28.21,83.59c1.02-18.74,6.13-38.55,5.61-57.19-.06-2.18-1.07-10.33-2.76-11.49-2.87-1.96-18.37-2.58-20.47.34-.69.95-1.77,8.72-1.84,10.39-.76,20.24,4.94,40.06,5.06,60.11-1.22-.55-1.87-1.17-2.13-2.54C8.66,67.79,2.11,28.21,7.13,14.68,12.46.31,34.54,2.95,36.78,19.27c1.65,12.03-3.51,44.2-6.01,57.17-.4,2.06-.81,5.91-2.56,7.16Z"/>
  </g>
</svg>