<?xml version="1.0" encoding="UTF-8"?>
<svg id="Layer_2" data-name="Layer 2" xmlns="http://www.w3.org/2000/svg" viewBox="0 0 277.15 462.27">
  <defs>
    <style>
      .cls-1 {
        fill: #181818;
      }

      .cls-2 {
        fill: #5f5f5f;
      }

      .cls-3 {
        fill: #8d8d6c;
      }

      .cls-4 {
        fill: #8f7450;
      }

      .cls-5 {
        fill: #19173a;
      }

      .cls-6 {
        fill: #ad8660;
      }

      .cls-7 {
        fill: #8b8b8b;
      }

      .cls-8 {
        fill: #907152;
      }

      .cls-9 {
        fill: #66503b;
      }

      .cls-10 {
        fill: #2a2a2a;
      }

      .cls-11 {
        fill: #6e603e;
      }

      .cls-12 {
        fill: #7a7a4d;
      }

      .cls-13 {
        fill: #0c0c1e;
      }

      .cls-14 {
        fill: #8f8f8f;
      }

      .cls-15 {
        fill: #cdcdcd;
      }

      .cls-16 {
        fill: #927353;
      }

      .cls-17 {
        fill: #a6a6a6;
      }

      .cls-18 {
        fill: #6e6e6e;
      }

      .cls-19 {
        fill: #050403;
      }

      .cls-20 {
        fill: #b28a62;
      }

      .cls-21 {
        fill: #a78767;
      }

      .cls-22 {
        fill: #776643;
      }

      .cls-23 {
        fill: #b28a63;
      }

      .cls-24 {
        fill: #70613f;
      }

      .cls-25 {
        fill: #02002e;
      }

      .cls-26 {
        fill: #6a6a6a;
      }

      .cls-27 {
        fill: #f9f9f9;
      }

      .cls-28 {
        fill: #4a4a2b;
      }

      .cls-29 {
        fill: #695d3c;
      }

      .cls-30 {
        fill: #06006b;
      }

      .cls-31 {
        fill: #6b6b46;
      }

      .cls-32 {
        fill: #060503;
      }

      .cls-33 {
        fill: #d8d8d8;
      }

      .cls-34 {
        fill: #c4c4c4;
      }

      .cls-35 {
        fill: #686868;
      }

      .cls-36 {
        fill: #cbcbcb;
      }

      .cls-37 {
        fill: #0a0806;
      }

      .cls-38 {
        fill: #2b2b2b;
      }

      .cls-39 {
        fill: #615837;
      }

      .cls-40 {
        fill: #969696;
      }

      .cls-41 {
        fill: #868686;
      }

      .cls-42 {
        fill: #6d6d6d;
      }

      .cls-43 {
        fill: #616161;
      }

      .cls-44 {
        fill: #937354;
      }

      .cls-45 {
        fill: #9b9a9a;
      }

      .cls-46 {
        fill: #191919;
      }

      .cls-47 {
        fill: #010100;
      }

      .cls-48 {
        fill: #919191;
      }

      .cls-49 {
        fill: #d6d6d6;
      }

      .cls-50 {
        fill: #4a4a2c;
      }

      .cls-51 {
        fill: #040302;
      }

      .cls-52 {
        fill: #201912;
      }

      .cls-53 {
        fill: #816c48;
      }

      .cls-54 {
        fill: #6e5d3e;
      }

      .cls-55 {
        fill: #959595;
      }

      .cls-56 {
        fill: #dcdcdc;
      }

      .cls-57 {
        fill: #5d5d5d;
      }

      .cls-58 {
        fill: #636341;
      }

      .cls-59 {
        fill: #fefefe;
      }

      .cls-60 {
        fill: #8c8b56;
      }

      .cls-61 {
        fill: #d2d2d2;
      }

      .cls-62 {
        fill: #0e0b08;
      }

      .cls-63 {
        fill: #876a4c;
      }

      .cls-64 {
        fill: #d1d1d1;
      }

      .cls-65 {
        fill: #676767;
      }

      .cls-66 {
        fill: #020025;
      }

      .cls-67 {
        fill: #796744;
      }

      .cls-68 {
        fill: #0d0a43;
      }

      .cls-69 {
        fill: #d9d9d9;
      }

      .cls-70 {
        fill: #0d0c1f;
      }
    </style>
  </defs>
  <g id="Layer_1-2" data-name="Layer 1">
    <path class="cls-38" d="M92.21,455.91c-24.65-.79-49.35-8.98-63.1-30.68-16.55-26.12-22.36-61.55-8.38-89.95,6.26-12.73,14.27-19.75,23.99-28.23,65.64-39.51,143.51,25.61,117.1,97.25-11.07,30.04-38.07,48.92-69.61,51.6ZM74.05,302.93c-65.72,8.92-76.81,105.06-22.35,136.3,28.97,16.62,74.54,12.65,91.97-18.54,15.57-27.87,19.84-58.38,1.66-86.54-13.07-20.24-47.68-34.42-71.28-31.22Z"/>
    <path class="cls-46" d="M44.72,307.06c-1.21,4.79-6.04,6.44-9.1,9.6-28.4,29.29-26.19,72.15-6.59,105.67,14.25,24.38,36.98,29.21,63.18,33.58-84,7.13-120.16-105.11-47.49-148.85Z"/>
    <path class="cls-38" d="M64.15,162.52c3.19,14.93,4.23,29.84,6.56,44.86,2.38,15.35,5.94,30.68,7.82,46.12.25,2.09,1.34,10.28,1.15,11.53-.16,1.07-2.94,2.84-3.66,3.91-1.67-9.95-3.77-19.95-5.3-29.93-3.88-25.27-7.49-50.54-11.6-75.77-.05-2.19,4.3-2.72,5.04-.72Z"/>
    <path class="cls-38" d="M211.65,455.91c-1.78-.39-14.73-5.75-11.95-7.59.32-.21.73-.28,1.16-.32,12.4,7.35,32.49,4.74,37.45-10.39s-2.55-30.16-18.07-33.2l1.14-5.32c7.48,1.93,14.09,6.03,18.36,12.58,13.81,21.2-3.25,47.59-28.08,44.24Z"/>
    <path class="cls-46" d="M73.5,166.12c3.55,21.64,6.67,42.49,9.35,62.56,1.21,9.21,5.7,22.78,3.22,30.91-.37,1.2-.43,2.37-.35,3.6-2.56-2.4-1.73-8.27-2.24-11.78-3.49-24.01-7.44-47.85-10.8-71.91-.34-2.4-2.79-11.99-2.62-13.07.21-1.34,2.26-1.5,3.43-.33Z"/>
    <path class="cls-38" d="M8.74,138.79c.28-1.93-.05-5.28,2.51-5.76s10-.19,12.95.02c5.2.37,12.62,1.46,17.92,2.23.7.1,3.19.46,3.35,1.08-.31,2.72.99,7.17-2.2,7.47l-.51-.77c-8.17-.15-16.17-1.33-24-3.55l-9.26.84-.77-1.55Z"/>
    <path class="cls-46" d="M192.22,421.39c-3.47,10.53,1.85,19.02,8.63,26.61.03.03-.54.45-.31.72,2.94,3.54,7.59,4.48,11.11,7.19-20.55-2.77-30.68-24.48-20.87-42.43,2.21,1.05,2.69,3.68,1.44,7.91Z"/>
    <path class="cls-46" d="M8.74,138.79c3.26.64,6.64-.87,9.68-.75,3.47.14,7.8,2.41,11.64,2.81,4.49.47,8.08-.66,12.5,1.2,1.48.62,1.97-.1.72,1.77-5.42.51-13.51.26-19.09.03-2.66-.11-5.51-1.45-7.89-1.45-5.58,0-8.83,5.02-7.56-3.61Z"/>
    <path class="cls-38" d="M190.79,413.48c3.8-6.95,9.68-11.42,17.26-13.66-.3,1.52.52,5.34-.11,6.36-.31.5-8.3,3.91-10.31,5.87-2.14,2.08-4.46,6.5-5.4,9.34l-1.44-7.91Z"/>
    <path class="cls-10" d="M82.85,228.68l-.7.35-4.22-25.99-4.44-36.91c2.63,2.62,6.93,38.53,7.83,45.03.8,5.77.77,11.76,1.53,17.53Z"/>
    <path class="cls-55" d="M54.07,138.79l3.75,3.76c.84,3.97,1.99,7.03,3.45,9.18.98,3.58,2.1,7.15,2.88,10.79l-5.04.72c-.72-4.4-1.27-14.89-5.04-17.61-1.07-.77-3.48-.93-3.64-1.52-.52-1.85.99-4.75.78-6.76.19-.22,2.34,1.2,2.87,1.44Z"/>
    <path class="cls-7" d="M215.91,389.8l-1.02,40.21c-2.65-3.79-.93-9.43-1.05-14.04-.18-7.02-.59-11.35-.03-18.67.17-2.24-1.11-9.49,2.11-7.5Z"/>
    <path class="cls-42" d="M85.01,268.95c-4.4,5.83-4.87,12.3-4.32,19.42-.8-.14-3.39.21-3.6,0-1.25-1.23,1.26-13.9,2.88-16.19,1.82-2.56,2.73-2.34,5.04-3.23Z"/>
    <path class="cls-61" d="M54.07,138.79c7.06,3.12,5.44,6.53,7.2,12.94-.56,1.53-2.2-1.35-2.31-1.64-1.4-3.57-1.18-9.93-5.85-9.85l.97-1.45Z"/>
    <path class="cls-35" d="M227.48,412.06c.07.1-.74,2.05-1.21,2.17-1.54.4-4.23-.32-5.99-.02v-4.32c.36-.38,6.98,1.87,7.2,2.17Z"/>
    <path class="cls-41" d="M221,431.45l-.7-6.46c2.24,1.16,1.32,4.6.7,6.46Z"/>
    <path class="cls-57" d="M210.21,432.18c-1.84-.56-1.44-2.73-1.42-4.31,1.84.56,1.44,2.73,1.42,4.31Z"/>
    <path class="cls-2" d="M208.77,411.33c.79.83-1.58,3.53-2.87,1.07.31-.54,2.62-1.33,2.87-1.07Z"/>
    <path d="M74.05,302.93c23.6-3.2,58.21,10.98,71.28,31.22,18.18,28.15,13.91,58.67-1.66,86.54-17.44,31.2-63,35.16-91.97,18.54-54.46-31.24-43.37-127.38,22.35-136.3ZM81.42,309.22c-.02-.48.04-.96,0-1.44h-5.05c-.66,18.97,1.68,37.85,1.45,56.8.75-.37,4.12-.6,4.27-.75.25-.26,0-3.33.04-4.28.06-1.67-.02-3.36,0-5.03.14-15.15-.12-30.21-.72-45.3ZM87.17,314.25c.12,2.61-.88,12.89,1.18,13.56,11.9-.33,24.42.79,36.24.1,2.23-.13,8.68-.09,4.98-3.18-10.74-8.95-29.44-14.88-43.11-16.95-.77,2.12.65,5.15.72,6.47ZM73.49,364.58l-2.5-55.36c-10.83,3.49-23.03,7.86-30.49,16.76,10.01,13.63,20.57,27.09,33,38.61ZM21.69,378.97l46.33-2.25c1.46-.49,1.32-4.11,2.5-5.49l-34.08-41.16-5.97,7.68c-7.18,12.22-9.01,27.23-8.78,41.21ZM123.87,332.95h-34.9c-.15,0-.82-1.08-1.07-.72v5.03s32.01,0,32.01,0c.29,0,3.56-3.51,3.96-4.31ZM141.14,337.98c-.59-.99-2.31-4.65-3.19-4.79-.39-.06-7.43.37-7.81.47-.35.09-2.68,3.64-3.39,4.33h14.39ZM87.89,343.73c0,.91-.17,1.89.71,2.52,2.1,1.51,20.58,1.63,22.74.4.7-.4,1.23-1.54,1.74-2.2.45-.58,1.9-.59,1.44-2.15h-26.62c-.02.48,0,.95,0,1.43ZM121.71,343.01c-.53.16-2.92,3.52-3.6,4.31,9.15.47,18.21-.61,27.34-.72.23-.2-.63-3.34-1.44-3.59-1.06-.33-21.24-.32-22.31,0ZM142.58,352.36c-3.8-.27-27.55-.51-29.49.37-3.05,3.32-6.8,6.31-9.74,9.68-1.41,1.62-6.87,8.12-6.72,9.53.13,1.16,1.17,2.77,1.43,4.05l53.87,1.54c.14-7.42-.6-15.19-2.88-22.29-.74-2.31.17-3.32-2.16-3.6-1.22-.15-3.64-.36-4.32.72ZM87.89,353.44c-.49,1.58,0,8.42,0,10.79,0,1.29,3.3,3.34,4.33,2.9l12.23-14.39c-2.76.2-15.85-1.57-16.56.71ZM79.26,369.62c-7.44,3.5-7.38,13.88.71,16.9,8.99,3.35,16.24-3.12,11.52-11.87-.35-.64-.12-1.3-1.03-2.18-1.83-1.76-8.87-3.95-11.2-2.86ZM151.93,383.29l-53.49-1.48-2.63,5.44,27.7,33.43,7.82,7.13c6.87-5.62,9.25-13.48,12.78-21.07,1.22-2.62,3.23-5.02,4.36-7.87,1.98-5,2.57-10.34,3.46-15.59ZM21.7,384.72c2.2,15.57,9.3,30.65,20.6,41.65l30.97-37.7c-1.29-1.58-3.28-5.76-5.15-6.12l-46.42,2.17ZM80.58,392.03c-.15-.24-2.32-1.02-2.67-.78l-30.22,38.54c-.22,2.2,12.59,8.25,15.03,9.21,1.67.66,19.56,6.05,19.43,3.6-.58-3.28-1.34-7.47-1.48-10.75-.24-5.45.98-38.14-.08-39.82ZM95.81,443.68c9.23-1.04,17.48-3.3,25.67-7.79l5.26-4.06c-6.16-3.8-32.03-39.9-35.57-40.38-.63-.09-4.58.98-4.74,1.64.73,10.06-1.02,20.08-.72,30.12.2,6.63,1.83,13.74,1.47,20.46l.4.65c2.78.39,5.49-.34,8.24-.65Z"/>
    <path class="cls-55" d="M124.59,327.91c-11.82.69-24.34-.43-36.24-.1-2.06-.67-1.06-10.95-1.18-13.56l-.06-2.74c.61-1.59,14.32,2.63,16.34,3.37,3.36,1.22,21.84,8.86,21.5,11.84-.05.41-.19.8-.37,1.2Z"/>
    <path class="cls-42" d="M124.59,327.91c-.94-1.75-2.91-2.75-4.56-3.72-8.02-4.68-20.52-10.13-29.73-11.29-1.22-.15-3.62-.92-3.14,1.35-.06-1.32-1.49-4.34-.72-6.47,13.67,2.07,32.37,8,43.11,16.95,3.7,3.08-2.75,3.05-4.98,3.18Z"/>
    <path class="cls-18" d="M82.13,359.55c-.03.95.21,4.01-.04,4.28-.15.16-3.52.38-4.27.75.24-18.96-2.11-37.83-1.45-56.81h5.05c.03.48-.02.96,0,1.44-.58,14.91-.58,30.01,0,45.3.22,1.61.46,3.29.72,5.03Z"/>
    <path class="cls-55" d="M91.49,374.65c4.72,8.75-2.53,15.22-11.52,11.87-8.09-3.02-8.15-13.4-.71-16.9.61,2.32,2.57,3.62,5.87,3.9l3.87,2.78c.63-1.34,1.46-1.88,2.5-1.64Z"/>
    <path class="cls-46" d="M123.87,332.95c-.39.8-3.66,4.31-3.96,4.31h-32.02v-5.03c.26-.36.93.72,1.08.72h34.9Z"/>
    <path class="cls-26" d="M144.02,343.01c.81.25,1.67,3.39,1.44,3.59-9.13.1-18.19,1.18-27.34.72.68-.79,3.06-4.15,3.6-4.31,7.42.72,14.9.99,22.31,0Z"/>
    <path class="cls-48" d="M87.89,343.73c0-.48-.03-.96,0-1.44h26.62c.47,1.57-.98,1.58-1.44,2.16-1.49.95-4.42,2.54-5.4.72.09.65-.07,1.06-.63,1.08-4.02.13-8.01.11-12.03-.01-.63-.02-.94-.32-1.01-1.07-.99,1.73-5.6.55-6.12-1.44Z"/>
    <path class="cls-64" d="M82.13,354.52c-.2.63-.44.62-.72,0-.97-10.84-1.4-22.53-1.47-33.4-.03-3.77.48-8.28,1.47-11.9.6,15.1.86,30.15.72,45.3Z"/>
    <path class="cls-33" d="M91.49,374.65c-2.05,6.07-4.51,1.39-6.99.16-2.65-1.32-7.31-.36-5.24-5.19,2.33-1.1,9.37,1.1,11.2,2.86.91.87.68,1.54,1.03,2.18Z"/>
    <path class="cls-42" d="M113.08,344.45c-.51.65-1.04,1.79-1.74,2.2-2.16,1.23-20.64,1.12-22.74-.4-.88-.63-.71-1.61-.71-2.52,1.37.32,5.09,1.44,6.12,1.44h13.67c.97,0,3.67-1.46,5.4-.72Z"/>
    <path class="cls-46" d="M141.14,337.98h-14.39c.7-.69,3.03-4.24,3.39-4.33.38-.09,7.43-.53,7.81-.47.88.14,2.6,3.81,3.19,4.79Z"/>
    <path class="cls-14" d="M144.02,343.01c-7.09,2.38-15.16,1.78-22.31,0,1.07-.32,21.24-.33,22.31,0Z"/>
    <path class="cls-23" d="M95.81,443.68c-2.74.31-5.45,1.05-8.24.65l-.4-.65c2.84.68,6.33-1.95,8.63,0Z"/>
    <path class="cls-21" d="M146.89,351.64c2.33.28,1.42,1.29,2.16,3.6-1.09-.11-1.81-1.96-2.16-2.16-1.72-.57-1.73-.86,0-1.44Z"/>
    <path class="cls-45" d="M146.89,351.64v1.44c-1.04-.58-3.08-.63-4.32-.72.68-1.08,3.09-.87,4.32-.72Z"/>
    <path class="cls-34" d="M82.13,359.55c-1.34-1.01-.58-3.45-.72-5.03h.72c-.02,1.67.06,3.36,0,5.03Z"/>
    <path d="M79.98,166.84c.43-14.7,8.98-29.39,22.38-35.52,6.59-3.02,15.37-2.26,11.07-13.36-14.77-11.81-24.4-25.09-22.68-44.98.2-2.31,2.24-8.13,2.02-9.23-.2-1.01-2.32-2.24-3.03-3.37-8.74-13.9,4.51-34.92,20.1-36.63,2.51-.28,11.04.99,11.91.4,2.59-1.76-.25-7.19,1.76-9.04,3.05-2.8,5.81,3.45,6.84,2.16-.6-3.35.78-7.41,4.72-5.07l5.35,7.23c.13-1.72.04-3.37-.32-5.06-1.48-7.02-12.03-17.83,3.93-13.27,6.4,1.83,13.45,7.13,16.36,13.13.54,1.11.78,3.63.91,3.78.15.15,2.79-1.48,4.2-.61.44.27,1.73,4.63,1.95,5.6,1.45,6.52,1.02,12.91-1.96,18.97-.99,2.01-6.12,7.52-6.16,8.03-.04.47,2.9,6.47,3.22,8.83.76,5.58.13,9.19,2.32,14.94,2.29,6.01,11.85,16.32,7.94,22.27-2.5,3.8-7.5,3.61-7.84,4.02-1.21,1.43,1.46,6.3,1.35,8.16-.12,2.02-2.02,3.52-2.64,5.3-1.74,5.01.5,9.8-3.21,14.05-4.01,4.6-9.79,3.96-14.99,1.91-.59,5.19,2.38,9.61,3.98,14.35.41,1.22.12,2.69.49,3.82.67,2,4.09,3.27,4.72,6.07.54,2.41-.14,5.17.24,7.67.84,5.6,2.54,11.13,3.41,16.72,2.16,13.89,3.7,27.99,5.17,41.94,4.64,2,9.09-.86,13.18-.65,13.78.71,22.88,16.03,19.89,28.71,12.45-1.15,19.1,3.48,15.83,16.54,6.19-.88,8.69,3.13,12.71,5.64,7.75,4.85,13.73,5.44,19.25,14.56,11.32,18.69-1.88,52.39,2.03,74.91.42,2.41,2.45,4.69,2.7,6.71.21,1.7-.84,3.72-.72,3.88.13.17,2.86.79,3.98,1.43,6.89,3.91,23.91,15.32,24.76,23.47.49,4.71-2.09,12.25-7.13,13.61-1.57.42-4.27.06-5.11.64-1.58,1.08.58,6.76-4.67,7.56-1.52.23-10.67.38-11.11.77,7.69,28.64-21.22,53.93-48.48,40.9-25.55-12.22-25.75-50.46.27-61.77-2.94-2.72,1.91-13.78,1.44-14.35-.09-.11-1.94-.2-2.7-.92-3.79-3.58-.72-23.82.54-29.29l-31.66-2.15c1.82,5.18,3.01,10.7,3.59,16.18,7.56,71.35-70.35,120.81-131.61,82.63-63.15-39.36-49.66-134.7,21.53-155.98,3.18-.95,10.08-1.03,10.14-4.31-2.63-34.18-9.63-67.75-15.05-101.52-1.13-7.03-1.38-14.23-2.48-21.26-.47-3.01-2.43-15.37-4.16-16.7-2.71-2.09-5.3.37-8.24.38-7.86.03-18.56-2.14-25.91-2.08-3.89.03-11.35,5.25-13.15-2.81-1.67-7.47.34-16.36,8.92-17.39,8.93-1.07,37.13,3.22,45.39,6.97,2.98,1.36,5.1,3.48,6.51,6.44,1.6,3.38,4.5,19.55,5.3,20.23,1.74,1.48,7.74-3.01,10.01,6.54.31.6.55.36.72-.72ZM160.56,39.56c2.87-4.95,2.25-8.07,2.15-13.66-8.45,6.16-5.16-2.05-5.93-6.66-1.11-6.71-8.93-11.65-14.93-13.47,2.98,5.53,5.09,11.65,2.3,17.75-.89,1.93-4.15,6.1-6.67,4.24-.7-.52-1.5-9.5-3.54-7.61-1.57,1.47-.43,7.94-6.48,2.88-1.99,9.7-10.22,5.01-16.92,5.75-4.53.5-11.3,4.64-14.03,8.27-3.81,5.08-7.99,19.56.35,21.94-.58-12.72,6.64-1.87,8.28-3.61-1.37-8.93,2.88-4.1,7.2-2.52,10,3.67,5.47-.88,10.78-2.88,4.33-1.63,8.08-1.27,12.24-1.07.45.02,1.03.07,1.44,0,7.32,3.04,12.22,2.06,17.99-2.88,2.5-2.14,4.05-3.54,5.76-6.47ZM128.19,53.22c-.71.15-1.05.58-1.44.72-2.32.86-3.72-.58-5.04,3.6h-.72c-3.6,1.35-7.77-.73-11.16-2.15-.68-.03-.25.97-.35,1.43s.12,1.13-.1,1.69c-1.17,3.01-7.13-.56-7.85.05-.15.13-1.93,2.95-2.12,3.3-4.05,7.62-4.3,15.69-2.16,23.73,1.39,5.2,2.83,7.64,5.04,12.22.81,1.68.03,2.2,2.16,5.03,1.41,1.87,4.3,5,6.13,6.45,1.55,1.23,6.41,3.46,6.87,4.1,2.71,3.81,2.15,11.11.67,15.32,3.76-.51,6.67,1.96,10.08,2.88l15.11,10.78c-1.3-4.14-2.2-7.23-2.87-11.5-.15-.96.27-1.64-.4-2.84-1.2-2.16-9.31-6.82-11.83-8.66l.72-.72c4.39,1.84,19.28,7.02,23.42,7.21,2.68.12,5.54-.64,6.08-3.62.35-1.93.24-4.28-2.16-4.33-.49-.38,3-1.95,2.88-3.57-2.88.18-13.69-3.07-13.7-6.12,0-.83.45-1.51,1.21-1.74,2.43-.73,14.8,7.55,15.37,1,.03-.35-.59-6.64-.69-7.06-.2-.89-3.55-.96-4.21-3.13-.8-2.62-.21-7.21,3.46-5.97v3.6c2.05-.23,7.26-.35,7.83-2.66s-8.92-15.33-9.82-20.16c-1.01-5.43.18-13.28-3.04-18.17-.32-.48-.43-1.11-1.06-1.35-6.83,4.88-12.72,2.4-19.8.63-3.6-.9-3.01-.74-6.48,0ZM8.74,138.79c-1.27,8.62,1.98,3.61,7.56,3.61,2.38,0,5.23,1.34,7.89,1.45,5.58.24,13.67.48,19.09-.03,3.19-.3,1.89-4.75,2.2-7.47-.17-.61-2.66-.97-3.35-1.08-5.31-.77-12.72-1.86-17.92-2.23-2.94-.21-10.37-.5-12.95-.02s-2.22,3.83-2.51,5.76ZM135.38,215.02c6.63.94,13.92,3.96,20.61,4.28,1.12.05,1.86.03,2.35-1.13-2.14-12.99-3.04-26.28-5.18-39.26-.52-3.19-2.94-17.13-4.07-18.94-.87-1.38-11.55-8.3-14.06-10.4-4.57-3.83-9.17-9.53-14.05-12.92-1.89-1.31-2.87-2.37-5.76-1.07,12.52,15.37,1.13,34.32,2.17,51.04.2,3.28,4.31,27.14,5.72,28.1,4.2-.28,8.07-.28,12.26.31ZM100.12,138.07c-21.41,10.56-16.18,54.81-11.88,74.07.83,3.73,4.55,16.99,6.22,19.67.27.43,1.04,1.49,1.34,1.17.6-5.09,5.33-8.81,9.36-11.5s8.27-4.21,12.82-6.08c-2.24-9.5-5.32-20.45-5.65-30.2-.46-13.56,7.44-28.79,1.83-42.1-3.1-7.36-7.21-8.4-14.03-5.03ZM54.07,138.79c-.53-.23-2.68-1.66-2.87-1.44.21,2.01-1.29,4.91-.78,6.76.16.59,2.57.75,3.64,1.52,3.78,2.72,4.33,13.21,5.04,17.61,4.11,25.23,7.72,50.5,11.6,75.77,1.53,9.99,3.63,19.98,5.3,29.93.73-1.07,3.5-2.85,3.66-3.91.19-1.25-.9-9.44-1.15-11.53-1.88-15.43-5.44-30.77-7.82-46.12-2.33-15.02-3.36-29.93-6.56-44.86-.78-3.64-1.9-7.21-2.88-10.79-1.75-6.41-.13-9.82-7.2-12.94ZM136.81,145.26c.68-.77-2.27-4.05-3.59-3.59-.29.25,3.33,3.88,3.59,3.59ZM141.14,148.13c-.52-1.17-1.58-2.38-2.88-2.14.52,1.17,1.58,2.38,2.88,2.14ZM73.5,166.12c-1.17-1.17-3.23-1.01-3.43.33-.17,1.08,2.29,10.66,2.62,13.07,3.35,24.05,7.31,47.9,10.8,71.91.51,3.5-.32,9.38,2.24,11.78-.08-1.23-.01-2.41.35-3.6,2.48-8.13-2.02-21.7-3.22-30.91-.76-5.76-.73-11.76-1.53-17.53-.9-6.5-5.2-42.41-7.83-45.03ZM188.63,248.09c1.09-.18,2.45.14,3.6,0,.66-5.96-2.5-16.69-7.56-20.14-6.64-4.54-13.36-1.64-20.86-2.17-11.88-.84-33.11-8.93-43.06-4.17-2.25,1.08-8.98,7.53-11.24,5.56-.45-.39.81-2.52-1.1-2.08-2.82.64-6.19,5.5-7.57,7.9-2.88,5.01-4.31,6.99,1.9,10.68,5.66,3.37,29.73,4.38,37.28,4.45s25.83.09,31.84-3.48c1.71-1.01,6.7-7.57,7.44-2.64.43,2.88-1.96,3.41-2.14,4.39-.76,4.03,9.74,1.99,11.46,1.7ZM87.89,227.96c.19,1.31-.62,3.51.72,4.31-.38,5.99,1.92,12.75,2.9,18.69l12.21-1.43c-.32-1.21-2.26-.91-3.57-1.82-5.14-3.55-8.73-11.1-10.82-16.87-.33-.91-.44-1.94-.72-2.88-.24-.81-.59-3.61-1.08-3.6-1.36.96.28,3.03.36,3.6ZM96.53,255.28c-.87.15-3.37.15-3.63,1.2-.5,2.02.15,4.99,2.59,5.29l52.84-1.46c11.2.62,23.01-.64,34.21-.03,8.03.44,16.2,2.79,24.12,2.59,2.67-8.67-.61-9.41-8.33-9.74-12.29-.53-27.02,1.29-39.54,1.46-19.51.26-43.62-2.45-62.27.69ZM85.01,268.95c-2.31.89-3.22.67-5.04,3.23-1.62,2.29-4.13,14.96-2.88,16.19.21.21,2.81-.15,3.6,0,1.41-3.88.78-8.27,3.96-11.51,5.73-5.85,22.96-4.42,30.98-4.35,18.3.17,36.33,1.71,54.66,2.9,11.88.77,23.72-.23,35.48,2.65,10.16,2.49,9.67,4.49,11.01,14.53l7.83-.63c.69-1.4-.7-3.4-.72-3.6-.5-4.81-.23-9.51-2.98-13.92-3.51-5.6-14.07-5.33-20.04-6.22-25.12-3.74-43.11-2.04-67.97-1.41-14.5.37-34.63-2.99-47.88,2.13ZM139.7,278.3c-5.32-.91-16.48-.67-22.64-.75-7.32-.09-14.67.13-21.98.03-.21,2.52-.02,11.22,2.64,12.11,37.67,3.75,75.47,3.69,113.22,3-.18-2.64.9-6.87-1.94-8.5-2.35-1.35-11.86-2.67-14.98-3-15.03-1.59-32.48-1.96-47.84-2.89-2.14-.13-4.33.09-6.48,0ZM243.32,368.18c.36-2.59-1.49-4.58-1.98-7.01-1.78-8.79-.85-20.26-.17-29.3,1.44-19.25,9.77-44.07-12.95-54.29,1.52,9.11,1.84,18.45,1.46,27.71-.77,19.29-1.82,36.13-.74,55.33.23,4.17-.18,8.42,0,12.59,4.72-1.88,8.92-5.7,14.39-5.03ZM90.77,279.02c-2.02-2.27-9.84,12.8,1.44,10.06-1.47-3.17-1.61-6.62-1.44-10.06ZM44.72,307.06c-72.67,43.74-36.51,155.98,47.49,148.85,31.54-2.68,58.54-21.56,69.61-51.6,26.4-71.64-51.46-136.77-117.1-97.25ZM219.57,297.71c-17.4-.44-34.86,1.59-52.14-.03l-45.73-.33c14.44,6.65,26.84,17.17,35.94,30.19,10.63-1.04,21.38-1.43,32.1-1.1,9.71.3,19.34,1.92,29.11,1.47.46,1.36,3.04.55,4.32.72-.58-10.37,1.04-20.62,1.44-30.93-1.43-.04-2.89.06-4.32,0-.24,0-.48,0-.72,0ZM209.5,332.94c-16.36-1.12-32.55-1.47-48.93-.71l2.58,4.19c5.22-1.69,10.74,0,15.74.15,10.23.29,20.47-.44,30.61.69v-4.32ZM222.45,346.61c1.64-4.1.3-9.3.71-13.66-1.65,1.9-7.57-.24-7.9,0-1.18.84.77,8.34-5.45,9.31-15-.24-29.98-1.02-44.93-1.39-.23.15.58.99.72,1.43.24.75.35,2.71,1.2,2.91,14.8-.07,29.53,1.95,44.34,2.28,4.11.91,2.86,5.75,3.43,6.28.24.23,2.74,0,3.57.03,1.43.06,2.89-.02,4.32,0,.03-.48-.03-.96,0-1.44.09-1.9-.02-3.85,0-5.75ZM203.74,378.25v-14.02c0-.81,1.34-5.87,1.86-6.77,1.3-2.29,5.13-2.74,3.49-5.1-1.08.16-2.46-.25-3.43-.02-2.31.54-3.63,20.21-3.29,23.34.08.7.31,2.7,1.37,2.58ZM223.88,386.16v-25.53c0-2.39-12.31-2.6-13.74-.79-2.65,3.36-1.16,19.36-.59,24.09l14.33,2.22ZM246.19,374.66c-5.73-2.63-11.22-.26-15.11,4.3,5.87.21,12.28,2.64,15.11-4.3ZM271.37,397.66c.05-.37.59-.82.51-1.66-.18-1.91-4-6.6-5.52-8.08-4.41-4.32-10.81-7.08-15.51-11.11-2,3.44-5.69,6.8-9.67,7.59-2.47.49-11.6-1.12-12.27-.41-.2.21.14,4.66-.72,5.76-.4.03-1.24,1.11-1.95,1.26-1.41.29-3.6-.1-4.54.52-.79.53-.98,2.24-.7,2.53.33.35,7,1.39,9.39,2.49,3.02,1.39,10.58,8.04,11.86,8.28,4.81.91,20.62.11,25.75-.87,2.99-.57,3.06-3.82,3.37-6.3ZM208.73,390.51c-.14-.15-2.76-.03-3.55-.76v5.03c2.74.98,5.03-2.76,3.55-4.27ZM215.91,389.8c-3.22-1.99-1.94,5.26-2.11,7.5-.56,7.32-.15,11.65.03,18.67.12,4.61-1.6,10.25,1.05,14.04l1.02-40.21ZM211.65,455.91c24.83,3.35,41.89-23.04,28.08-44.24-4.26-6.55-10.88-10.65-18.36-12.58l-1.14,5.32c15.53,3.05,22.94,18.39,18.07,33.2s-25.06,17.74-37.45,10.39c-6.78-7.59-12.1-16.07-8.63-26.61.94-2.85,3.26-7.26,5.4-9.34,2.01-1.96,10-5.37,10.31-5.87.63-1.02-.19-4.84.11-6.36-7.58,2.24-13.46,6.71-17.26,13.66-9.81,17.95.32,39.66,20.87,42.43ZM227.48,412.06c-.22-.3-6.84-2.55-7.19-2.17v4.32c1.75-.29,4.44.42,5.98.02.47-.12,1.28-2.07,1.21-2.17ZM259.86,409.89h-14.39c.1,1.47.33,2.74,1.77,2.93,1.54.2,9.96-.37,11.42-.74.56-.14.85-1.58,1.2-2.19ZM208.77,411.33c-.25-.26-2.56.53-2.87,1.07,1.29,2.46,3.67-.24,2.87-1.07ZM204.35,427.05c2.28-1.44-2.68-6.55-3.89-7.76-.46-.46-1.03-1.29-1.74-.76-.65.48-2.45,7.32-2.89,8.62,1.79-.37,7.46.58,8.52-.09ZM208.77,418.52c-.18-.18-2.18.1-2.87,0,1.41,5.07,3.97,1.09,2.87,0ZM234.67,426.42c.37-.41-1.16-6.25-2.14-6.84-2.54-1.52-7.34.11-7.09,3.44.27,3.49,6.68,2.26,9.23,3.4ZM221,431.45c.62-1.86,1.54-5.3-.7-6.46l.7,6.46ZM210.21,432.18c.02-1.58.41-3.76-1.42-4.31-.02,1.58-.41,3.76,1.42,4.31ZM234.68,431.47l-8.63-1.45c-2.14,4.79,1.75,8.2,5.74,10.07l2.89-8.62ZM196.54,431.47l3.96,8.61c7.33-5.73,5.58-9.75-3.96-8.61ZM227.48,444.39c.57-.77-5.04-6.54-5.74-6.85-.5-.22-3.38,1.04-3.49,1.22-.79,1.25.71,5.94-.84,7.78l10.07-2.16ZM213.05,438.69c-.15-.15-3.68-.65-4.26-.42-.68.28-5.63,5.34-5.05,6.13,3.15.62,6.02,2.55,9.35,2.17-.24-1.35.36-7.47-.04-7.87Z"/>
    <path class="cls-9" d="M79.98,166.84c-.01.46,2.21,2.59-.72,2.15-.08-.46.09-1.03,0-1.43l.72-.72Z"/>
    <path class="cls-55" d="M219.57,297.71c.85,7.87.91,17.07.68,25.67-.02.75-.24,1.5-.47,2.26s-.57,1.53-.93,2.27c-9.77.44-19.4-1.18-29.11-1.47-10.72-.33-21.47.06-32.1,1.1-9.1-13.02-21.49-23.54-35.94-30.19l45.73.33c17.28,1.62,34.73-.41,52.14.03Z"/>
    <path class="cls-31" d="M139.7,278.3c2.24.55,4.4.55,6.48,0,15.36.92,32.81,1.3,47.84,2.89,3.13.33,12.64,1.66,14.98,3,2.84,1.63,1.76,5.86,1.94,8.5-37.74.7-75.54.76-113.22-3-2.66-.89-2.84-9.6-2.64-12.11,7.31.1,14.66-.12,21.98-.03,6.16.08,17.31-.16,22.64.75Z"/>
    <path class="cls-60" d="M243.32,368.18c-5.48-.67-9.67,3.15-14.39,5.03-.18-4.17.23-8.42,0-12.59-1.08-19.21-.03-36.04.74-55.33.37-9.27.05-18.6-1.46-27.71,22.73,10.23,14.4,35.04,12.95,54.29-.68,9.04-1.61,20.5.17,29.3.49,2.43,2.35,4.42,1.98,7.01Z"/>
    <path class="cls-55" d="M200.86,268.23c5.11,1.06,10.14,2.39,15.08,3.99,2.78,5.21,5.01,10.82,6.69,16.86l1.25-.71c.02.19,1.41,2.19.72,3.6l-7.83.63c-1.34-10.04-.85-12.04-11.01-14.53-11.77-2.88-23.6-1.88-35.48-2.65-18.33-1.19-36.36-2.74-54.66-2.9-8.02-.07-25.24-1.5-30.98,4.35-3.17,3.24-2.54,7.62-3.96,11.51-2.67-1.89-1.71-8.39-.9-11.51.88-3.4,1.96-6.15,5.21-7.91,13.24-5.12,33.38-1.76,47.88-2.13,24.86-.64,42.85-2.33,67.97,1.41Z"/>
    <path class="cls-5" d="M271.37,397.66l-1.43,1.68c-15.79,4.31-28.25-.17-41.41-8.06l-.33-1.53c.86-1.1.52-5.55.72-5.76.67-.71,9.8.9,12.27.41,3.99-.8,7.67-4.15,9.67-7.59,4.7,4.03,11.1,6.79,15.51,11.11,1.51,1.48,5.34,6.17,5.52,8.08.08.83-.47,1.29-.51,1.66Z"/>
    <path class="cls-38" d="M148.33,260.32c-7.73-1.09-15.41-1.57-23.04-1.43l-27.83-2.09-.94-1.51c18.65-3.14,42.76-.43,62.27-.69,12.52-.17,27.25-1.99,39.54-1.46,7.71.33,11,1.07,8.33,9.74-7.92.2-16.09-2.15-24.12-2.59-11.2-.61-23.01.65-34.21.03Z"/>
    <path class="cls-55" d="M223.88,386.16l-14.33-2.22c-.57-4.73-2.06-20.73.59-24.09,1.43-1.82,13.74-1.61,13.74.79v25.53Z"/>
    <path class="cls-70" d="M271.37,397.66c-.32,2.48-.38,5.73-3.37,6.3-5.14.98-20.95,1.79-25.75.87-1.28-.24-8.84-6.89-11.86-8.28-2.39-1.1-9.06-2.14-9.39-2.49-.27-.29-.09-2.01.7-2.53.94-.62,3.13-.23,4.54-.52.72-.15,1.55-1.23,1.95-1.26,1.59-.11,11.97,6.26,14.62,7.32,10.03,4.02,18.24,2.17,28.55.59Z"/>
    <path class="cls-46" d="M96.53,255.28l29.12,2.19c8.52-2.02,14.41,2.38,22.69,2.84l-52.84,1.46c-2.44-.3-3.1-3.28-2.59-5.29.26-1.04,2.76-1.05,3.63-1.2Z"/>
    <path class="cls-46" d="M209.5,332.94v4.32c-10.14-1.13-20.39-.41-30.61-.69-5-.14-10.52-1.84-15.74-.15l-2.58-4.19c16.38-.76,32.57-.41,48.93.71Z"/>
    <path class="cls-55" d="M165.6,342.29c-.14-.44-.95-1.28-.72-1.43,14.94.36,29.93,1.15,44.93,1.39,6.21-.97,4.27-8.47,5.45-9.31.33-.24,6.25,1.9,7.9,0-.42,4.36.93,9.56-.71,13.66l-1.43-.91c.74-9.47-2.01,4.78,1.43,6.66-.02.48.04.96,0,1.44-1.43-.02-2.89.06-4.32,0l-1.41-.92c.02-3.25-1.86-5.87-5.03-6.7-14.84-1.44-29.74-2.14-44.69-2.12l-1.4-1.76Z"/>
    <path class="cls-42" d="M218.13,353.8c-.83-.03-3.33.19-3.57-.03-.56-.54.69-5.37-3.43-6.28-14.81-.33-29.54-2.35-44.34-2.28-.84-.2-.96-2.15-1.2-2.91,1.2.82,2.55.71,3.92.75,12.72.38,29.47-.41,41.6,1.58,4.76.78,7.34,4.4,7.01,9.18Z"/>
    <path class="cls-69" d="M223.88,288.36c.13,1.4.36,2.89-1.71,2.07-3.1-1.23-3.43-13.47-6.88-16.86-3.8-3.74-10.94-1.74-14.44-5.35,5.98.89,16.54.62,20.04,6.22,2.76,4.4,2.48,9.11,2.98,13.92Z"/>
    <path class="cls-36" d="M89.33,230.84c2.09,5.77,5.68,13.32,10.82,16.87,1.31.91,3.24.6,3.57,1.82l-12.21,1.43c-.98-5.93-3.29-12.7-2.9-18.69-.57-1.11-.55-2.13.72-1.44Z"/>
    <path class="cls-33" d="M220.29,297.71l2.3.85c.25,9.78.32,19.65.22,29.6-.07.24-3.39.31-3.96-.24-.14-7.54.18-15.13.03-22.68-.05-2.77-1.93-5.07.69-7.52.24,0,.48,0,.72,0Z"/>
    <path class="cls-27" d="M246.19,374.66c-2.83,6.94-9.23,4.51-15.11,4.3,3.88-4.56,9.37-6.93,15.11-4.3Z"/>
    <path class="cls-40" d="M220.29,297.71c1.43.06,2.89-.05,4.32,0-.4,10.3-2.02,20.56-1.44,30.93-1.28-.18-3.86.63-4.32-.72,1.2-.05,2.41.05,3.6,0-1.03-8.67.1-18.56-.69-27.01-.13-1.35-.62-2.21-1.47-3.2Z"/>
    <path class="cls-49" d="M222.45,352.36c-2.18,1.49-2.69.28-2.91-1.76-.56-5.04.48-11.06.04-16.22.58.09,2-.14,2.15,0,.73.69.74,10.39.72,12.23s.09,3.85,0,5.75Z"/>
    <path class="cls-58" d="M203.74,378.25c-1.06.12-1.3-1.88-1.37-2.58-.34-3.13.98-22.8,3.29-23.34.97-.23,2.36.18,3.43.02,1.65,2.37-2.18,2.82-3.49,5.1-.52.9-1.86,5.96-1.86,6.77v14.02Z"/>
    <path class="cls-1" d="M90.77,279.02c-.16,3.44-.02,6.89,1.44,10.06-11.28,2.75-3.46-12.33-1.44-10.06Z"/>
    <path class="cls-65" d="M259.86,409.89c-.35.61-.64,2.05-1.2,2.19-1.46.37-9.87.93-11.42.74-1.44-.18-1.67-1.46-1.77-2.93h14.39Z"/>
    <path class="cls-13" d="M208.73,390.51c1.48,1.51-.81,5.26-3.55,4.27v-5.03c.79.73,3.41.61,3.55.76Z"/>
    <path class="cls-12" d="M146.17,278.3c-1.75,1.9-4.75.29-6.48,0,2.14.09,4.34-.13,6.48,0Z"/>
    <path class="cls-17" d="M89.33,230.84c-.69.19-.68.83-.72,1.44-1.34-.81-.53-3-.72-4.31.2-.63.44-.62.72,0,.28.93.39,1.97.72,2.88Z"/>
    <path class="cls-43" d="M88.61,227.96h-.72c-.08-.57-1.72-2.64-.36-3.6.48,0,.84,2.79,1.08,3.6Z"/>
    <path class="cls-33" d="M223.17,381.48c-.48,3.23-3.01,1.52-3.48-.9.24-4.7,1.47-11.86.59-16.35-.26-1.32-4.15-4.61-1.06-4.7,2.55-.08,3.95,1.39,3.95,3.97,0,5.22.71,13.19,0,17.98Z"/>
    <path class="cls-23" d="M155.53,53.94c3.22,4.89,2.04,12.74,3.04,18.17.89,4.83,10.38,17.84,9.82,20.16s-5.78,2.44-7.82,2.66v-3.6c-3.67-1.24-4.27,3.35-3.46,5.97.67,2.17,4.01,2.25,4.21,3.13.1.42.72,6.71.69,7.06-.57,6.55-12.94-1.73-15.37-1-.76.23-1.22.91-1.21,1.74,0,3.05,10.83,6.3,13.7,6.12.13,1.62-3.37,3.19-2.88,3.57,2.4.05,2.51,2.4,2.16,4.33-.45.8-1.24,1.34-2.15,1.48-6.79,1.08-33.89-12.22-37.36-17.89l-.07-2.29,1.17-1.32c5.85,3.14,14.33-12.16,6.02-7.31-1.26,1.88-3.1,2.68-3.6,0l-1.39-.87c1.47-5.86.56-10.81-2.73-14.86l.52-1.53c-1.24-.29-2.44-.53-3.6-.72-2.94-2.72,2.39-4.74,5.21-3.24,4.1,3.8,5.64,4.58,4.61,2.36l.97-1.28c-1.56-1.9.1-6.11,2.58-6.5.89-2.58,1.52-4.32,4.62-5l.66-7.28c.3-.8,11.11.39,10.85,2.97l-.16,1.56c-10.92,5.53-8.27,5.74.81.22l2.91-.4c4.86.6,6.31-.1,4.36-2.1-4.2-.57-7.86-1.32-1.59-3.15,1.85-1.2,3.34-1.58,4.47-1.16Z"/>
    <path class="cls-59" d="M135.38,215.02l-2.36-1.42c-4.21-7.01-10.87-32.09-10.55-40.6,2.35-11.75,1.24-22.68-2.4-34.17l.91-2.19c4.88,3.4,9.48,9.09,14.05,12.92,2.51,2.1,13.19,9.02,14.06,10.4,1.14,1.8,3.55,15.75,4.07,18.94,2.13,12.98,3.04,26.27,5.18,39.26-.5,1.16-1.23,1.19-2.35,1.13-6.7-.31-13.99-3.34-20.61-4.28Z"/>
    <path class="cls-30" d="M105.16,221.49c-.57.12-1.45.27-1.66-.11-2.1-3.69-11.06-20.31-11.59-23.22-3.33-18.12-3.81-45.36,8.22-60.09,6.82-3.36,10.93-2.33,14.03,5.03,5.61,13.31-2.29,28.54-1.83,42.1.33,9.75,3.41,20.7,5.65,30.2-4.55,1.88-8.68,3.32-12.82,6.08Z"/>
    <path class="cls-28" d="M135.38,48.91c-4.17-.21-7.92-.57-12.24,1.07-5.31,2-.77,6.55-10.78,2.88-4.32-1.58-8.58-6.42-7.2,2.52-1.64,1.74-8.86-9.12-8.28,3.61-8.34-2.37-4.16-16.86-.35-21.94,2.72-3.63,9.49-7.77,14.03-8.27,6.7-.74,14.93,3.95,16.92-5.75,6.05,5.07,4.91-1.41,6.48-2.88,2.03-1.89,2.83,7.09,3.54,7.61,2.52,1.86,5.79-2.3,6.67-4.24,2.79-6.1.68-12.22-2.3-17.75,6.01,1.82,13.82,6.75,14.93,13.47.77,4.61-2.53,12.83,5.93,6.66.1,5.59.72,8.71-2.15,13.66-2.73,2.8-6.3,3.09-6.06-1.79-1.91,3.28-8.25,10.95-10.36,4.87-2.68,2.49-5.6,4.58-8.77,6.26Z"/>
    <path class="cls-23" d="M100.84,232.99c1.38-2.4,4.75-7.26,7.57-7.9,1.91-.43.66,1.7,1.1,2.08,2.27,1.97,9-4.49,11.24-5.56,9.94-4.76,31.18,3.34,43.06,4.17,7.5.53,14.22-2.37,20.86,2.17,5.05,3.45,8.21,14.18,7.56,20.14-1.15.13-2.51-.19-3.6,0-2.67.39-3.16-.53-4.18-2.56-2.69-1.5-4.9-3.89-6.62-7.16-14.54.86-29.21,2.16-44,3.91-11.32.95-25.12.25-33.55-7.56l.56-1.74Z"/>
    <path class="cls-68" d="M105.16,221.49c-4.03,2.69-8.76,6.41-9.36,11.5-.3.32-1.07-.74-1.34-1.17-1.67-2.68-5.39-15.94-6.22-19.67-4.3-19.26-9.53-63.51,11.88-74.07-.92,3.46-3.1,6.35-4.33,9.69-5.58,15.16-4.73,34.18-2.52,50.01l11.89,23.72Z"/>
    <path class="cls-44" d="M100.84,232.99c-.34,1.53.82,1.57,1.76,2.15,15.74,9.81,33.34,5.1,50.41,3.61,7.61-.66,13.43-.54,21.03-2.02,6.47-1.26,5.28,2.87,7.77,5.57.98,1.06,2.56,1.22,3.59,2.16,1.47,1.35,1.06,3.83,3.22,3.62-1.72.29-12.22,2.33-11.46-1.7.18-.97,2.57-1.51,2.14-4.39-.74-4.93-5.74,1.63-7.44,2.64-6,3.57-24.18,3.54-31.84,3.48s-31.62-1.08-37.28-4.45c-6.22-3.7-4.79-5.67-1.9-10.68Z"/>
    <path class="cls-15" d="M120.99,136.64c1.73,6.57,3.86,14.46,4.3,21.22.39,6.01-1.74,12.51-1.38,17.86.29,4.41,4.04,19.18,5.36,24.19,1.38,5.27,3.56,10.33,6.11,15.11-4.19-.59-8.06-.59-12.26-.31-1.41-.97-5.51-24.82-5.72-28.1-1.04-16.71,10.34-35.67-2.17-51.04,2.89-1.3,3.88-.24,5.76,1.07Z"/>
    <path class="cls-44" d="M118.83,103.56c4.97,6.15,11.66,9.42,19.17,12.84,6.29,2.87,13.4,6.41,20.41,5.85-.54,2.98-3.41,3.74-6.08,3.62-4.14-.19-19.03-5.37-23.42-7.21-2.29-.87-2.53-.64-.72.72,2.51,1.84,10.62,6.5,11.83,8.66.67,1.21.25,1.88.4,2.84l-1.43.84-10.91-6.23c1.1,2.72,1.14,4.76.1,6.11-3.41-.92-6.32-3.39-10.08-2.88,1.48-4.22,2.05-11.52-.67-15.32-.46-.65-5.32-2.87-6.87-4.1-1.83-1.46-4.72-4.58-6.13-6.45-.15-1.21-.08-2.34,1.27-1.98.03-2.37.32-6.71,2.33-3.05.27-1.93.48-3.89.62-5.87l.82.12.99-.06c1.91,4.14,4.73,7.36,8.45,9.66l-.08,1.91Z"/>
    <path class="cls-11" d="M109.48,56.82c3.41-.76,6.35,2.32,2.88,4.31-1.4,1.5-2.9,2.75-4.5,3.74l.96,6.69c-.87,2.88-.89,5.39-.06,7.55,1.85.51,1.82.83,0,1.44-.4,2.17-.64,4.33-.72,6.47.8,1.04.32,1.52-1.44,1.44.62.23.62.47,0,.72-.53,1.33-.77,2.77-.72,4.31,1.42,1.16,1.07,1.92-.72,2.16-.2.63-.44.62-.72,0-1.58.31-1.86-.59-2.16-1.9-3.15-.75-3.22-6.28-2.99-9.36l1.55-7.44c-4.3-2.81-2.25-7.91.08-11.83-.45-1.11-.96-2.2-1.52-3.27.19-.35,1.97-3.17,2.12-3.3.72-.61,6.68,2.97,7.85-.05.22-.55,0-1.21.1-1.69Z"/>
    <path class="cls-3" d="M135.38,48.91c1.59-3.71,5.93-4.83,8.63-8.27,1.54-1.97,1.75-5.96,4.33-4.31.54,3.1-2.66,4.7-2.88,7.54,4.36-.81,6.74-5.3,9-8.62,2.75.28.8,3.27,1.8,5.03l4.31-.72c-1.7,2.94-3.25,4.33-5.76,6.47-5.48,2.34-11.6,4.04-17.99,2.88-.41.07-.99.02-1.44,0Z"/>
    <path class="cls-20" d="M140.42,130.88c.68,4.27,1.57,7.36,2.87,11.5l-15.11-10.78-2.87-9.35,15.1,8.63Z"/>
    <path class="cls-39" d="M99.4,61.85l2.15.71c2.57,3.66-1.77,6.56-2.04,8.4-.04.31,1.21,3.74,1.33,5.98l-1.9,8.28-1.7.34c-2.14-8.04-1.89-16.11,2.16-23.73Z"/>
    <path class="cls-24" d="M128.19,53.22c2.54-.63,3.84-.32,3.9.92.63,2.5-.02,9.81-2.28,11.33.23,2.27-1.02,2.97-3.77,2.12-1.07.15-3.46-.52-4.12-1.47-.39-.56,2.52-12.25,4.84-12.19.39-.14.73-.57,1.44-.72Z"/>
    <path class="cls-16" d="M155.53,53.94l-7.19,2.88,4.31,1.43c-1.32,1.71-6.42,2.37-7.91.72l-10.07-2.16c-.45,2.19-.84,4.3-1.45,6.47-1.48-1.47-1.85-4.01-1.12-7.64-.42-2.86-.29-2.95,2.56-2.42,7.08,1.77,12.98,4.25,19.8-.63.63.24.74.87,1.06,1.35Z"/>
    <path class="cls-67" d="M120.99,57.54c-.4,5.14-1.66,10.45-7.2,12.94.85,1.08.46,1.46-.72.72l-1.37-.75c.42-3.22.64-6.33.65-9.32v-3.59c-1.86.51-1.94,1.19-2.88-.72.1-.46-.33-1.46.35-1.43,3.39,1.42,7.56,3.5,11.16,2.15Z"/>
    <path class="cls-37" d="M134.66,53.22c-.4.06-1.35-.12-1.44,0-.45.6.32,8.39,0,10.07-.14.52.27,1.87-.03,2.11-.45.37-2.44-.27-2.82.08-.21.19,0,2.93-.69,3.86-.44.6-1.56.2-2.02.62-.31.28-2.26,4.02-1.64,4.84-1.57,1.16-3.13-.5-2.16-2.16-.95-1.47-.39-2.76,1.44-2.88-1.03-1.08-.59-1.25.72-1.44-.6-.18-.59-.42,0-.72.89-1.8,1.15-1.57,2.87-.71,1-4.88,2.52-7.36,2.17-12.61-.14-2.05-1.78-.75-2.88-1.05,3.46-.74,2.87-.9,6.48,0Z"/>
    <path class="cls-29" d="M100.84,76.95c.28,5.29-.64,10.55,0,15.82,1.39-.57.29-2.06,2.87-1.44-.72,1.47.7,3.71.72,4.32.38.89.23,2.53-.72,2.88-.37.65-.85.41-1.44-.72-2.21-4.59-3.65-7.02-5.04-12.22l3.6-8.63Z"/>
    <path class="cls-22" d="M126.75,53.94l-3.63,11.81c-.01.77,2.25.43,2.91,1.85.05.12.02.51,0,.72-1.06,1.43-6.37-.4-6.96-1.6-.41-.84,1.69-7.1,2.13-8.43.09-.28.29-.52.51-.76,1.32-4.17,2.71-2.73,5.04-3.6Z"/>
    <path class="cls-50" d="M154.81,46.03c-5.77,4.94-10.67,5.92-17.99,2.88,1.96-.32,3.98-.5,5.93-.83,3.54-.6,1.2-1.23,5.95-.86,1.03.08,1.99-1.57,2.88-1.62.45-.03,1.9,1.55,3.22.44Z"/>
    <path class="cls-53" d="M121.71,57.54c-.02.05.63.54.51.96-1.66,5.6-4.93,9.41,3.81,9.82-.09.81-.59,1.08-.72,1.44l-1.31,1.23c-2.75-1.88-5.43-2.29-8.04-1.23.62,1.98-.95,2.31-2.16.72l.73-3.59,1.07,1.43c3.59-2.9,3.35-7.18,5.4-10.78h.72Z"/>
    <path class="cls-62" d="M106.6,88.46c1.57-1.36,2.29-.14,2.14,3.67l-.7,5.68c-.26.12-1.16-.25-1.36.04-.5.7.6,4.08-2.23,4.99-2.13-2.83-1.35-3.35-2.16-5.03.35.27,1.27.47,1.44.72.49-.21.97-1.16,1.44-2.88.17-1.25.67-1.88.72-2.16-.05-1.51.19-2.95.72-4.31.04-.24-.05-.5,0-.72Z"/>
    <path class="cls-52" d="M128.9,118.66l-.72.72c-1.11-.81-3.26-.89-2.87-2.88.3-.36,3.13,1.97,3.59,2.16Z"/>
    <path class="cls-66" d="M136.81,145.26c-.26.29-3.88-3.34-3.59-3.59,1.32-.46,4.27,2.82,3.59,3.59Z"/>
    <path class="cls-25" d="M141.14,148.13c-1.3.24-2.36-.97-2.88-2.14,1.3-.24,2.36.97,2.88,2.14Z"/>
    <path class="cls-47" d="M123.87,72.64c.64.5,1.82,1.49,2.16,2.16.82,1.58,1.75,3.68-.67,3.95-2.69.3-3.72-3.51-6.19-3.95-4.16-.73-3.14,1.39-3.93,2.16-1.85,3.52-1.78,7.78.24,12.77l-.96,1.61c1.84,2.32,3.9,4.41,6.18,6.27,1.76-.16,3.54-1.05,5.34-2.68.09-.13-.18-.76.16-1.25,2.14-3.04,6.49-1.29,3.83,4.17-2.45,5.03-5.58,6.43-11.19,5.71-1.18-1.46-3.97-2.46-5.75-4.68-1.25-1.56-3.02-4.91-3.6-6.83-.41-.14-1.71-3.58-1.64-3.8.08-.25.46-.39.92-.51-.88-2.11-.62-4.95,0-7.19.05-.47-.08-1.01,0-1.44-2.09-1.7,1.83-8.87,4.32-7.91.24-.22.56-.63.72-.72.1-.06,2.05-.71,2.16-.72,2.32-1.49,9.04-.13,7.91,2.88Z"/>
    <path class="cls-19" d="M147.61,73.36c-1.9-1.69-7.16,6.1-7.91,2.5-.59-2.83,10.99-7.36,13.72-5.05.7,3.61,1.88,14.23-2.72,15.4-4.18,1.07-4.37-10.19-3.09-12.85Z"/>
    <path class="cls-51" d="M118.83,77.67c1.03.76,3.96,5.73,4.19,7.01l-.6,10.25c.07,2.98-1.79,2.22-3.76.65-.57-.46-1.47-8.72-1.34-10.47-1.08-.23-1.78-.79-2.1-1.68-3.21-1.93-1.21-8.05,3.6-5.75Z"/>
    <path class="cls-32" d="M152.65,58.26c1.65.25,4.13,2.01,2.18,3.26-1.01.65-6.46-.22-9.37.71-2.23.71-8.02,5.82-9.36,3.94-1.9-2.68,6.56-6.65,8.63-7.19,2.54-.65,5.23-1.13,7.91-.72Z"/>
    <path class="cls-8" d="M122.43,94.93c.91.03,2.27.73,3.6,0-.67,1.02-.77,2.64-2.49,3.64-4.51,2.63-7.78-3.87-9.03-7.23l1.18-.87c-1.32-2.91-1.47-5.26-.46-7.04,5.73-.39,2.74,2.71,2.89,5.36.02.29,1.4,5.21,1.57,5.64.88,2.2,2.08.49,2.73.51Z"/>
    <path class="cls-6" d="M115.23,76.95c1.54-.15,2.36-.19,3.6.72-5.08-.76-4.55,1.86-3.6,5.75.78,3.19,2.27,6.53,2.15,10.07l-2.87-2.16c-1.47-3.97-1.86-6.82-1.44-11.16.37-3.81,1.39-2.48,2.16-3.23Z"/>
    <path class="cls-63" d="M108.76,87.74c.14,1.6.25,2.75.72,4.31-1.79,1.2.36,4.93-1.44,5.75-.31-1.6.43-8.78,0-9.35-.09-.12-1.03.07-1.44,0,.16-.7.79-1.19,1.44-1.44.31-.06.55.18.72.72Z"/>
    <path class="cls-29" d="M108.76,79.11c-1.09-1.55-1.43,1.18-1.47,1.76-.31,4.23,1.05,5.46-4.27,6.15,1.65-3.08-.24-5.8.84-8.87.57-1.62,1.5-.67,2.75-.48-.33-2.09.8-4.09.78-6.12-.02-2.36-1.43-5.36-.81-7.8.24-.93,2.06-.68,2.75-1.35,1.49-1.46-.08-4.71,3.04-1.28.49.54,1.66.61,1.51,1.81l-.79,8.26c-1.04.95-4.07,6.63-4.32,7.91Z"/>
    <path class="cls-54" d="M105.16,95.65c-.21,1.56.16,3.42,0,5.03-1.32-.03-1.11-1.69-1.43-2.16-.3-.9.74-2.44.72-2.88h.72Z"/>
    <path class="cls-29" d="M108.76,87.74c-.35-.08-.67-.38-.72-.72-.24-1.68-.38-5.29.72-6.47-.22,1.95-.17,5.2,0,7.19Z"/>
    <path class="cls-54" d="M105.88,93.49c.1-1.36-.55-3.51.72-4.31-.23,1.49-.48,2.97-.72,4.31Z"/>
    <path class="cls-4" d="M125.31,69.76c-.37,1.01-.2,2.23-1.44,2.88-2.61-2.07-4.19-3.25-7.91-2.88,2.31-2.99,6.51-.28,9.35,0Z"/>
    <path class="cls-56" d="M152.59,73.43c.4,1.09.16,4.68-1.73,4.24-2.37-.56-2.13-6.49,1.73-4.24Z"/>
  </g>
</svg>