<?xml version="1.0" encoding="UTF-8"?>
<svg id="Layer_2" data-name="Layer 2" xmlns="http://www.w3.org/2000/svg" viewBox="0 0 72.15 333.07">
  <defs>
    <style>
      .cls-1 {
        fill: #010101;
      }

      .cls-2 {
        fill: #1b483b;
      }

      .cls-3 {
        fill: #51ab91;
      }

      .cls-4 {
        fill: #45937d;
      }

      .cls-5 {
        fill: #72513f;
      }

      .cls-6 {
        fill: #005c42;
      }

      .cls-7 {
        fill: #003828;
      }

      .cls-8 {
        fill: #78fcd7;
      }

      .cls-9 {
        fill: #656565;
      }

      .cls-10 {
        fill: silver;
      }

      .cls-11 {
        fill: #4ca088;
      }

      .cls-12 {
        fill: #90664e;
      }

      .cls-13 {
        fill: #a6d7ca;
      }

      .cls-14 {
        fill: #68dcbb;
      }

      .cls-15 {
        fill: #c4fded;
      }

      .cls-16 {
        fill: #51aa91;
      }

      .cls-17 {
        fill: #349076;
      }

      .cls-18 {
        fill: #e4e4e4;
      }

      .cls-19 {
        fill: #78fed8;
      }

      .cls-20 {
        fill: #46bf9d;
      }

      .cls-21 {
        fill: #030504;
      }

      .cls-22 {
        fill: #c0f9e9;
      }
    </style>
  </defs>
  <g id="Layer_1-2" data-name="Layer 1">
    <path class="cls-1" d="M15.51,273.85c.58-.99-3.71-19.35-4.13-22.63-2.5-19.44-3.95-43.7-3-63.24.24-4.98,2.36-12.88,2.13-17.29-.08-1.48-2.23-2.47-2.67-4.41-1.42-6.18,1.62-13.78,2-20,.5-8.18-2.58-15.23-4.08-23.23C1.03,97.82-1.04,64.02.51,38.41,1.55,21.05,7.23,4.6,26.23.83c26.68-5.29,38.76,15.5,44.24,38.08,3.11,12.8,1.22,41.65-.29,55.5-1.9,17.43-10.71,31.75-12.13,49-.53,6.42,3.34,23.17.32,27.66-.79,1.17-2.4,1.46-2.84,2.19-1.36,2.22.22,9.6.18,12.59-.23,17.2-1.21,34.66-2.71,51.78-.9,10.27-3.23,20.56-3.61,30.9-.24,6.53,2.27,5.74,2.86,9.43.48,2.97-.6,7.22.19,9.88.28.94,4.76,5.28,5.9,7.04,3.74,5.79,8.37,19.02,4.33,25.06-11.37,16.98-46.99,17.75-58.89.72-4.31-6.17-2.5-14.84-.04-21.52,1.43-3.88,4.99-7.43,6.08-10.46,1.83-5.07-.7-8.68,3.59-13.7.53-.62,1.93-.88,2.09-1.14Z"/>
    <path class="cls-6" d="M41.5,7.83c19.08,22.21,17.42,54.63,12.16,81.9-6.28,24-9.04,48.07-8.28,72.19,1.31,3.18,1.69,6.01,1.16,8.47-8.87,2.18-22.45.53-30.21-4.32-.53-.38-.96-.92-.81-1.52,3.84-15.79,1.78-33.23-.24-49.34-5.11-29.74-9.94-59.55-6.57-89.47.79-3.66,2.77-6.87,4.74-9.99,7.82-8.75,16.68-11.15,28.05-7.91Z"/>
    <path class="cls-7" d="M46.53,170.39c-1.41-3.48-2.54-6.62-2.87-10.44-4.18-48.55,27.63-98.31,2-144.43-1.46-2.62-4.26-4.5-4.17-7.69,6.87,1.96,10.79,4.64,14.52,11.01,11.01,18.79,10.95,43.72,8.41,64.79-2.46,20.42-13.42,44.05-12.89,64.13.14,5.28,2.36,13.79,1.47,18.67-.31,1.72-4.8,3.54-6.47,3.95Z"/>
    <path class="cls-7" d="M16.32,166.07c-.65-.41-1.73-.41-2.2-1.19-1.61-2.68,2-16.46,2.19-20.75.28-6.32-2.2-10.27-3.38-16.03C6.07,94.61,5.52,61.24,8.21,27.44c.07-.91-1.06-1.47-.92-2.39.43-2.76,4.3-7.24,6.15-9.31-7.28,16.81-5.41,35.72-3.52,53.51,3.43,32.27,12.34,60.79,7.8,93.55-.17,1.22-.86,2.22-1.4,3.27Z"/>
    <path class="cls-12" d="M22.8,261.74c-1.67-.83-2.34-2.28-2.65-4.04-2.93-16.49-4.07-36.14-4.21-52.95-.04-4.22.6-23.72,3.12-26.49,1.23-1.35,7.9.63,7.7,2.92.07-.56.23-1.38.63-1.44,1.52-.2,13.43-.29,14.54,0l1.01,1.44c.36.64.7,1.29.94,1.98s.46,1.32.47,1.97c.32,19.75.48,39.6-1.39,59.28-.1,6.49-1.54,12.27-4.33,17.34-4.83.76-11.09,1.38-15.82,0Z"/>
    <path class="cls-5" d="M22.8,261.74c-1.95-.57-2.75-.31-3.6-2.52-1.47-3.82-2.41-15.44-2.87-20.15-1.79-18.34-2.35-36.98-1.48-55.41.16-3.36,1.05-6.99,1.12-10.41,10.87,4.27,21.97,5.75,33.43,2.89.52,28.32-1.69,56.85-5.93,84.7-1.53.78-3.25.64-4.86.89,5.99-26.4,3.99-53.65,4.32-80.56h-16.18c-.99,0-6.33-2.6-6.83-2.16-.45,4.36-1.89,8.94-2.19,13.28-1.33,18.86,1.29,45.68,3.7,64.69.2,1.6.76,3.26,1.36,4.75Z"/>
    <path class="cls-19" d="M45.1,285.48c1.44,8.33,2.45,5.84,6.64,11.7,1.35,1.89,5.22,8.84,4.76,10.8-.66,2.78-8.79,8.49-11.77,8.48-3.41-.02-3.49-5.07-7.94-5.77-5.02-.79-14.59-.87-18.3,2.84-2.84-2.07-2.49-8.4-1.98-11.85.26-1.74.72-4.75,2.7-4.69h.72c1.23.54,1.47,1.02.72,1.44l1.66,2.83c5.44-.96,10.71-.7,15.84.81.64-.9.8-2.11.49-3.64-1.54-.64-.82-1.15.72-1.44,1.1-1.59.86-3.51-.72-5.75,3.58-1.75,4.97-2.6,6.47-6.47v.72Z"/>
    <path class="cls-15" d="M53.01,318.57c1.01-.95,1.38-.55.72.72-10.61,8.81-29.41,10.45-40.28,1.44-.95-1.01-.55-1.38.72-.72,4.82,2.31,6.22-4.52,10.39-5.07,2.02-.27,9.48-.23,11.23.35,2.78.92,3.28,5.79,8.31,6.13,2.27.15,6.83-1.7,8.9-2.85Z"/>
    <path class="cls-20" d="M17.76,287.64c.36,1.27,2.57,3.1,2.87,3.96.16.45-1.21.48-1.74,1.09-2.3,2.68.2,3.2.31,4.3.05.48-1.35,4.33-1.46,6.09-.23,3.56.26,6.97.74,10.46-.94.94-.26,4-4.11,2.34-1.69-.73-5.86-5.97-6.02-7.72-.66-7.38,6.94-13.07,7.98-19.79.37-1.57.85-1.81,1.44-.72Z"/>
    <path class="cls-8" d="M31.43,273.97c2.12.07,7.19-.96,7.19,1.8v11.87c-3.51-1.66-6.93-2.19-10.79-2.16-2.84-.44.09-11.28.78-11.69s2.07-.28,2.82.19Z"/>
    <path class="cls-21" d="M38.62,291.23c2.16,2.82,3.3,2.98.72,5.75-.2.82-3.85.59-3.96.41-.1-.16,3.67-.11,3.24,1.02,2.28,1.21,2.07,4.87-.35,5.06-1.66.13-4.41-1.25-6.48-1.45-2.91-.27-8.31,1.06-9.9.6-3-.87-1.36-2.94-1.24-4.2-.37-.74.35-.98,2.16-.72,1.28-.58,1.93-1.27,3.6-1.44,2.86.5,5.78.66,8.63,0,5.42-.22,6.52-.18,2.16-4.68-.03-.73,1.08-.18,1.44-.36Z"/>
    <path class="cls-20" d="M31.43,273.97c-2.89-.2-1.8-.16-2.14,1.78-.57,3.23-1.6,6.4-1.46,9.73-2.1.02-3.73.44-5.75.72.81-6.05-.23-12.93,7.59-12.97,1.67,0,1.66.75,1.76.75Z"/>
    <path class="cls-3" d="M45.1,285.48c-.04-.23.03-.48,0-.72-.25-1.97-1.31-4.13-.71-6.47,2.16.98,1.95,5.63.71,7.19Z"/>
    <polygon class="cls-10" points="43.65 266.77 43.3 270.37 40.78 266.78 43.65 266.77"/>
    <path class="cls-14" d="M35.03,296.27c-2.07,1.23-6.71,1.2-8.63,0,2.72-.27,5.83.11,8.63,0Z"/>
    <path class="cls-17" d="M16.32,288.36c.2-1.31-.15-2.94,0-4.31h1.43c.19,1.07-.25,2.67,0,3.59l-1.44.72Z"/>
    <path class="cls-18" d="M22.7,266.87c1.04,1.39-.26,2.71-2.05,2.06v-2.88c.48.35,1.99.73,2.05.81Z"/>
    <path class="cls-13" d="M53.01,318.57c.79-.44,1.84-2.73,3.6-2.15-.45,1.37-1.88,2.04-2.88,2.87l-.72-.72Z"/>
    <path class="cls-22" d="M14.17,320l-.72.72c-1-.83-2.42-1.51-2.88-2.87,1.56-.39,2.47,1.61,3.6,2.15Z"/>
    <rect class="cls-9" x="24.24" y="266.78" width="2.15" height="1.43"/>
    <path class="cls-2" d="M26.39,289.79c.63.2.62.44,0,.72-.82.12-2.73,1.53-3.6.36,0-.39,2.96-1.02,3.6-1.08Z"/>
    <path class="cls-4" d="M26.39,289.79c.7-.07,3.6-.24,3.6.36-.77.81-2.53.2-3.6.36v-.72Z"/>
    <path class="cls-11" d="M22.8,297.71c-.61.27-1.54.24-2.16.72.03-.29-.59-1.02-.72-1.44l2.88.72Z"/>
    <path class="cls-16" d="M39.34,296.99c-.28.3-.61,1-.72,1.44-.87-.47-2.55-.53-3.59-.73v-.7s4.31,0,4.31,0Z"/>
  </g>
</svg>