<?xml version="1.0" encoding="UTF-8" standalone="no"?>
<svg
   id="Layer_2"
   version="1.1"
   viewBox="0 0 134.41165 259.27961"
   sodipodi:docname="Human_02-torso.svg"
   width="134.41165"
   height="259.2796"
   xmlns:inkscape="http://www.inkscape.org/namespaces/inkscape"
   xmlns:sodipodi="http://sodipodi.sourceforge.net/DTD/sodipodi-0.dtd"
   xmlns="http://www.w3.org/2000/svg"
   xmlns:svg="http://www.w3.org/2000/svg">
  <sodipodi:namedview
     id="namedview32"
     pagecolor="#ffffff"
     bordercolor="#000000"
     borderopacity="0.25"
     inkscape:showpageshadow="2"
     inkscape:pageopacity="0.0"
     inkscape:pagecheckerboard="0"
     inkscape:deskcolor="#d1d1d1" />
  <!-- Generator: Adobe Illustrator 29.8.4, SVG Export Plug-In . SVG Version: 2.1.1 Build 6)  -->
  <defs
     id="defs4">
    <style
       id="style2">
      .st0 {
        fill: #010101;
      }

      .st1 {
        fill: #19a006;
      }

      .st2 {
        fill: #0c6000;
      }

      .st3 {
        fill: #72513f;
      }

      .st4 {
        fill: #0b5900;
      }

      .st5 {
        fill: #005c42;
      }

      .st6 {
        fill: #0e7500;
      }

      .st7 {
        fill: #003828;
      }

      .st8 {
        fill: #90664e;
      }

      .st9 {
        fill: #0e7400;
      }
    </style>
  </defs>
  <g
     id="Layer_1-2"
     transform="translate(0.52112224,0.58107101)">
    <path
       class="st0"
       d="m 39.21,7.59 c 6.33,-6.35 7.91,7.79 3.18,9.5 1.14,1.26 0.97,2.8 -0.48,4.59 -1.31,2.63 -4.81,8.11 -7.31,8.74 0.99,2.4 0.67,4.4 -0.96,6.02 C 28.53,64.49 49.03,76.06 74.56,71.67 99.35,67.41 102.9,51.94 96.5,30.99 93.08,31.23 90.59,29.23 88.43,26.79 86.77,24.93 83.7,21.12 85.51,18.98 81.75,18.9 81.06,7.25 85.95,8.92 c 0.46,0.41 2.21,0.23 3.14,1.61 0.83,1.24 1.17,4.39 2.14,6.31 0.98,1.92 4.91,8.71 7.22,8.36 2.03,-0.31 5.5,-5.14 10.14,-2.18 6.26,4.01 4.5,27.44 6.37,34.85 4.46,17.6 14.11,18.55 9.39,41.55 -1.26,6.12 -6.92,15.56 -7.13,19.95 -0.22,4.79 8.02,21.23 10.01,27.27 4.18,12.7 8.34,33.72 5.97,46.82 -0.58,3.25 -3.82,6.41 -3.96,8.5 -0.13,1.92 1.53,6.21 1.73,8.82 0.18,2.39 0.65,11.03 0.22,12.86 -0.79,3.29 -3.32,2.41 -4.43,3.07 l -1.83,-0.5 c -1.58,-2.68 -2.73,-12.57 -0.37,-14.72 -1.31,-0.57 -1.93,-1.46 -1.85,-2.64 -33.82,21.71 -77.96,12.35 -110.59,-7.49 -0.32,0.78 -0.71,1.33 -1.68,1.51 0.27,0.53 0.51,1.08 0.67,1.65 0.21,0.76 -1.05,13.9 -1.61,15.52 -0.67,1.95 -1.49,4.09 -3.55,2.79 -1.49,-1.05 -4.41,0.2 -4.83,-4.24 -0.49,-5.56 4.69,-20.92 2.56,-25.06 -0.71,-1.37 -3.6,-2.97 -4.01,-4.6 -0.51,-2.04 0.13,-10.91 0.42,-13.54 0.51,-4.62 2,-13.2 3.14,-17.66 2.17,-8.52 10.93,-25 11.29,-32.69 C 14.99,114.9 5.21,102.48 4.63,91.32 3.92,77.75 14.62,61.91 17.02,49.27 c 0.99,-5.25 0.12,-13.47 1.87,-18.3 0.4,-1.08 3.01,-3.16 4.09,-3.81 5.33,-3.24 8.04,-0.85 11.71,-7.54 2.17,-3.94 2.57,-8.04 4.5,-12.02 h -0.02 z"
       id="path6" />
    <path
       class="st5"
       d="m 124.55,211.51 c 0.48,5.2 -0.34,10.45 2.21,15.22 -0.24,0.14 -0.84,1.86 -1.53,2.46 -2.58,2.25 -5.97,1.91 -8.99,3 -10.02,3.63 -24.72,7.75 -32.49,14.97 -5.52,5.13 -7.39,11.81 -17.08,11.53 C 56.52,258.4 56.35,250.37 51.08,244.63 40.4,232.98 19.18,232.14 5.97,222.83 c 3.45,-2.7 2.01,-5.96 2.59,-9.6 0.54,-3.44 1.26,-6.94 1.89,-10.37 l 1.58,-0.84 c 12.69,10.25 30.05,14.72 46.14,17.6 22.9,4.1 44.75,4.78 64.2,-9.69 1.3,-0.7 1.83,0.23 2.18,1.56 z"
       id="path8" />
    <path
       class="st3"
       d="M 85.96,8.93 C 82.5,10.72 84.39,16.16 85.52,18.99 81.43,25.8 71.83,29.96 63.56,29.59 54.26,29.18 48.68,24.79 42.23,18.83 l 0.16,-1.74 c 1.11,-3.7 3.22,-12.07 -3.18,-9.5 4.12,-8.48 13.22,-8.37 21.71,-8.08 11.83,0.42 16.39,1.72 25.03,9.41 v 0 z"
       id="path10" />
    <path
       class="st1"
       d="m 26.41,53.1 c 2.7,12.5 8.1,19.75 20.55,24.29 16.95,6.19 50,2.08 58.31,-16.49 l 2.09,1.4 c 2.51,6.84 4.08,14.04 4.42,21.34 0.77,16.15 -4.1,25.85 -12.46,38.52 11.14,1.98 15.16,19.04 17.4,28.74 2.64,11.47 5.81,36.73 3.06,47.14 -0.38,1.45 -1.12,2.59 -2.01,3.81 -22.57,17.98 -58.6,12.17 -83.79,2.58 -2.83,-1.08 -13.47,-5.67 -14.63,-7.64 -1.21,-0.85 -2.29,-1.8 -2.94,-3.16 -4.68,-9.88 1.34,-38.18 4.95,-48.46 3.08,-8.78 6.81,-18.28 14.35,-23.86 C 22.79,109.11 15.14,95.9 17.69,77.57 c 0.46,-3.29 5.77,-26.84 6.68,-27.95 1.21,-1.48 2.04,2.25 2.03,3.49 v 0 z"
       id="path12" />
    <path
       class="st8"
       d="m 85.51,18.99 c 2.5,6.29 5.34,8.9 10.99,12.01 0,1.02 -0.25,1.85 -1.24,1.87 l -10.82,0.29 c -4.26,-1.47 -10.32,6.06 -4.69,4.66 6.46,-1.62 11.09,-2.29 17.93,-0.46 6.77,26.61 -16.5,34.8 -39.03,33.26 C 39.24,69.29 29.77,54.07 34.38,36.19 c 0.17,-0.55 0.44,-1.36 0.88,-1.4 1.67,-0.13 13.97,0.32 15.05,0.66 l 0.97,1.48 0.75,-0.73 c 10.19,6 0.92,-3.8 -4.46,-2.54 L 35.33,33.42 c -1.12,-0.12 -1.34,-1.12 -0.68,-2.98 1.68,-4.12 6.2,-8.02 7.78,-13.34 l 9.25,7.73 c 9.45,4.74 18.59,4.55 27.42,-1.2 2.28,-1.49 3.71,-4.1 6.45,-4.63 h -0.03 z"
       id="path14" />
    <path
       class="st9"
       d="M 19.35,196.79 C 16.5,196.2 8.61,190.31 8.24,188 4.33,164.2 25.1,138.23 18.95,115.44 17.12,108.63 12.19,101.27 11.24,94.23 9.22,79.27 21.65,59.57 23.91,43.98 c 0.63,-4.33 -1.45,-11.54 4.15,-12.4 -1.45,7.29 -2.38,14.08 -1.67,21.53 -0.13,-0.62 -0.57,-3.05 -1.3,-2.93 -0.89,11.61 -6.6,22.87 -6.56,34.62 0.03,9.7 3.48,17.77 9.07,25.48 3.03,4.18 7.23,7.35 10.19,11.36 l -5.55,4.51 c -6.69,9.55 -10.8,21.66 -13.19,33.04 -2.14,10.22 -5.1,28.37 0.29,37.6 h 0.02 z"
       id="path16" />
    <path
       class="st9"
       d="m 117.77,201.85 c 2.21,-12.63 1.05,-27.08 -0.5,-39.88 -1.13,-9.31 -6.13,-32.06 -14.3,-37.24 -2.48,-1.57 -3.58,-0.52 -5.44,-1.89 1.48,-5.46 6.06,-9.44 8.36,-14.2 6.95,-14.36 5.27,-33.33 -0.62,-47.74 1.43,-3.21 1.93,-7.21 1.91,-10.72 0.23,-0.62 0.47,-0.6 0.72,0.03 0.17,2.87 -0.66,5.67 -0.04,8.66 0.97,4.65 7.49,14.28 9.4,19.67 5.15,14.49 -1.46,23.25 -5.34,35.94 -3.23,10.54 3.58,19.12 7.14,28.62 4.14,11.08 7.04,22.43 7.72,34.31 0.79,13.91 1.97,15.71 -8.99,24.44 v 0 z"
       id="path18" />
    <path
       class="st3"
       d="m 96.5,31 c 1.07,0.59 1.75,0.4 2.21,1.81 0.9,2.78 1.96,13.51 1.99,16.74 0.33,27.82 -53.74,32.38 -65.85,10.64 -3.97,-7.12 -3.27,-22.42 -0.26,-29.76 -0.5,2.15 1.04,1.44 2.41,1.55 6.79,0.53 21.42,-1.8 20.91,8.12 -2.31,1.1 -5.84,-3.13 -6.7,-3.17 L 34.33,36.19 c -1.22,15.13 3.08,28.8 19.27,32.35 8.98,1.97 24.13,-0.26 32.73,-3.78 10.25,-4.2 11.98,-16.56 10.51,-26.48 -3.89,0.16 -8.75,-1 -12.51,-0.55 -1.68,0.2 -8.97,4.77 -8.1,-1.37 1.05,-7.39 16.03,-3.25 20.23,-5.33 l 0.02,-0.02 z"
       id="path20" />
    <path
       class="st7"
       d="m 10.44,202.88 c 0.17,-0.95 -0.51,-4.32 1.23,-3.54 12.87,8.79 29.68,14.84 44.9,18.19 22.11,4.87 49.06,2.83 67.16,-11.82 0.15,1.91 0.65,3.92 0.83,5.79 -1.29,-1.23 -1.64,0 -2.57,0.56 -7.63,4.62 -16.57,9.14 -25.41,10.68 -20.53,3.58 -59.83,-3.93 -78.2,-14.36 -2.77,-1.57 -4.97,-4.3 -7.91,-5.51 h -0.01 z"
       id="path22" />
    <path
       class="st4"
       d="m 106.71,44.41 c -0.2,-2.95 -1,-6.44 -1.26,-9.53 -0.09,-1.01 -1.22,-2.36 0.68,-2.01 0.68,3.8 1.06,7.71 1.3,11.58 -0.23,0.62 -0.47,0.6 -0.72,-0.03 z"
       id="path24" />
    <path
       class="st2"
       d="m 107.89,50.22 -0.72,-0.03 c -0.01,-1.34 -0.35,-4.08 -0.47,-5.78 l 0.72,0.03 c 0.11,1.94 0.35,3.84 0.47,5.78 z"
       id="path26" />
    <path
       class="st6"
       d="m 77.95,125.21 c -3.84,1.75 -7.5,-0.77 -11.08,-0.46 -2.53,0.22 -6.12,3.57 -8.36,0.68 6.02,-3.32 14.43,-7.28 19.43,-0.23 v 0 z"
       id="path28" />
  </g>
</svg>
