<?xml version="1.0" encoding="UTF-8" standalone="no"?>
<svg
   id="Layer_2"
   data-name="Layer 2"
   viewBox="0 0 198.4171 311.47424"
   version="1.1"
   sodipodi:docname="Human_06-torso.svg"
   width="198.4171"
   height="311.47424"
   xmlns:inkscape="http://www.inkscape.org/namespaces/inkscape"
   xmlns:sodipodi="http://sodipodi.sourceforge.net/DTD/sodipodi-0.dtd"
   xmlns="http://www.w3.org/2000/svg"
   xmlns:svg="http://www.w3.org/2000/svg">
  <sodipodi:namedview
     id="namedview38"
     pagecolor="#ffffff"
     bordercolor="#000000"
     borderopacity="0.25"
     inkscape:showpageshadow="2"
     inkscape:pageopacity="0.0"
     inkscape:pagecheckerboard="0"
     inkscape:deskcolor="#d1d1d1" />
  <defs
     id="defs4">
    <style
       id="style2">
      .cls-1 {
        fill: #080808;
      }

      .cls-2 {
        fill: #1e1e1e;
      }

      .cls-3 {
        fill: #1f1f1f;
      }

      .cls-4 {
        fill: #f0dac6;
      }

      .cls-5 {
        fill: #eac6b0;
      }

      .cls-6 {
        fill: #1b1b1b;
      }

      .cls-7 {
        fill: #04857d;
      }

      .cls-8 {
        fill: #008c82;
      }

      .cls-9 {
        fill: #00776e;
      }

      .cls-10 {
        fill: #f1ddc8;
      }
    </style>
  </defs>
  <g
     id="Layer_1-2"
     data-name="Layer 1"
     transform="translate(0.01324165,0.00605909)">
    <path
       class="cls-8"
       d="m 4.23,43.36 c 0.36,-0.59 0.75,-1.15 1.21,-1.65 0.46,-0.5 0.9,-0.96 1.43,-1.19 13.11,-5.85 26.98,-9.61 41.03,-12.42 3.36,-2 6.79,-3.18 10.27,-3.54 3.49,13.78 10.55,23.64 20.95,33.14 2.76,2.52 20.54,15.66 24.21,15.97 1.73,0.15 6.4,-3.96 7.81,-5.21 12.23,-10.81 20.48,-25.12 27.97,-39.78 8.31,2.75 16.78,4.98 25.41,6.69 2.74,0.72 29.77,9.85 28.84,13.44 -0.09,0.36 -0.28,0.7 -0.5,1.03 1.13,2.45 0.85,8.27 0.75,11.19 -0.19,5.34 -0.86,12.6 -1.48,17.96 -1.2,10.44 -3.43,20.8 -7.19,30.61 -0.03,-6.32 -0.27,-12.56 -0.72,-18.72 l -1.49,-0.99 c 0.54,-6.09 -0.85,-10.67 -4.16,-13.74 l -0.11,-1.83 -1.69,0.25 c -5.7,-6.71 -7.9,1.07 -7.82,6.49 0.16,28.26 -2.67,58.84 -13.52,85.4 -2.51,7.29 -1.23,15.04 0.08,22.6 l 7.9,36.06 c 3.18,13.07 3.16,26.12 2.03,39.29 l -1.39,2.14 c -0.42,0.56 -0.85,1.1 -1.36,1.57 -5.38,4.93 -32.81,9.27 -41.37,10.24 -25.59,2.88 -54.13,1.21 -78.76,-6.44 -0.58,-0.18 -1.09,-0.58 -1.62,-1.01 -0.53,-0.43 -1,-0.94 -1.45,-1.48 -4.01,-2.01 -3.92,-9.11 -3.85,-13.23 1.89,-24.32 5.75,-48.33 11.55,-72.04 1.03,-7.2 2,-14.74 -1.92,-21.25 C 28.2,138.29 19.42,108.13 23.32,78.52 23.84,71.62 20.62,66.71 14.06,72 l -1.92,0.16 0.65,1.51 C 10.24,81.44 9.08,89.72 9.3,98.53 L 7.82,99.52 C 6.5,98.13 5.74,95.73 5.15,93.91 2.24,84.94 1.53,69.09 2.03,59.53 2.3,54.35 3.52,48.54 4.22,43.36 Z"
       id="path6" />
    <path
       class="cls-1"
       d="m 39.51,269.44 c 37.44,12.41 87.95,11.87 124.56,-2.88 l 0.62,-1.8 c 5.06,-2.11 9.92,-4.15 14.59,-6.12 -4.81,-26.44 -10.69,-52.61 -16.68,-78.81 l 9.03,-37.24 c 4.64,-19.89 7.61,-40.99 3.38,-60.66 -0.42,-2.98 -0.93,-10.6 3.46,-7.61 0.94,0.82 2.2,1.18 2.66,1.66 2.72,2.83 2.92,11.03 3.1,14.9 0.85,7.32 0.51,14.91 0,22.32 -0.97,10.23 -2.24,22.51 -4.67,32.41 -4.15,16.88 -11.24,24.58 -7.21,43.2 4.49,20.76 13.72,48.79 14.76,69.49 0.35,7.01 -1.09,5.94 -6.48,8.27 -0.31,0.53 -0.64,1.05 -1.04,1.5 -2.36,2.65 -18.4,8.34 -23.01,9.86 -37.7,12.44 -96.79,10.98 -132.87,-6.27 -0.58,-0.28 -1.08,-0.74 -1.57,-1.24 -0.49,-0.5 -0.94,-1.09 -1.35,-1.69 -0.47,-0.23 -1.41,0.08 -2.54,-0.67 -3.4,-2.27 -1.74,-8.13 -1.75,-11.18 -0.04,-22.38 5.53,-41.86 9.11,-63.6 0.6,-3.65 1.91,-10.01 1.67,-13.45 -0.25,-3.66 -6.45,-16 -8.14,-20.7 C 12.59,140.89 7.13,119.02 7.82,99.53 8.03,93.52 8.75,81.75 10.03,76.18 c 0.36,-1.55 1.13,-2.82 2.11,-4.01 2.09,-1.56 4.7,-0.84 5.22,1.89 l 0.47,8.58 c -1.75,22.92 -0.54,46.14 7.74,67.75 6.85,14.3 12.12,28.22 8.05,44.49 -4.06,18.92 -7.71,37.14 -9.47,56.23 -0.15,1.61 -0.29,10.36 0.41,11.12 4.11,2.02 8.4,3.69 12.85,5.02 l 2.1,2.21 z"
       id="path8" />
    <path
       class="cls-1"
       d="m 66.15,10.24 c 3.71,-0.78 4.97,2.02 3.79,8.42 l 2.89,7.35 -0.93,1.51 3.19,3.78 c 1.59,7.52 19.84,24.98 26.74,25.5 4.51,0.34 18.93,-20.46 21.34,-25.13 l 2.73,-3.42 c -0.62,-0.29 -0.95,-0.75 -0.95,-1.42 l 2.92,-6.9 c -1.89,-6.47 2.01,-13.76 5.23,-4.64 0.11,0.18 -0.26,1.09 0.08,1.34 0.6,0.45 3.64,-0.24 5.21,0.76 0.77,0.49 1.04,2.33 1.9,3.31 7.12,8.02 13.45,6.27 22.89,8.79 7,1.87 28.33,9.25 32.95,13.85 4.36,4.35 2,5.87 -3.27,6.51 -1.26,-2.73 -9.09,-5.78 -12.05,-7.03 -5.15,-2.17 -12.13,-4.75 -17.48,-6.28 -7.93,-2.27 -16.52,-2.53 -23.74,-6.84 -4.26,10.24 -10.31,20.51 -17.31,29.14 -3.12,3.84 -14.4,16.27 -19.06,16.26 -1.73,0 -13.69,-7.63 -16,-9.24 C 73.51,56.31 60.26,42.49 57.5,25.38 l -9.2,4.11 C 33.12,32.64 18.17,36.5 4.22,43.37 -5.56,42.5 4.14,35.88 8.05,33.88 c 14.57,-7.43 33.48,-6.62 46.8,-15.12 1.52,-0.97 2.77,-3.03 4.26,-3.65 1.49,-0.62 4.49,-0.38 4.78,-0.62 0.26,-0.22 0.01,-2.47 2.24,-4.24 z"
       id="path10" />
    <path
       class="cls-6"
       d="m 180.63,266.56 c 0.28,1.51 -0.32,2.56 -0.82,3.86 -1.88,4.93 -10.88,12.29 -15.74,14.86 -10.79,8.52 -25.8,11.78 -39.29,13.35 -32.25,3.74 -71.65,-5.37 -99.76,-21.2 -2.19,-1.23 -3.55,-3.45 -4.22,-5.83 -0.06,-0.95 0.04,-1.92 0,-2.88 35.83,17.14 81.53,19.17 120.27,11.91 13.86,-2.6 26.75,-8.53 39.57,-14.07 z"
       id="path12" />
    <path
       class="cls-3"
       d="m 164.07,285.28 c -7.99,8.88 -19.25,15.88 -30.25,20.51 -2.57,1.08 -5.11,1.12 -7.19,1.81 -0.87,-0.88 -1.79,-1.4 -2.76,-1.55 -11.18,1.94 -22.83,2.54 -34.08,0.29 -1.08,0.15 -2,1.05 -2.76,2.69 -2.77,-0.45 -5.03,0.35 -8.33,-0.67 -9.59,-2.98 -23.09,-8.42 -31.76,-13.6 -4.7,-2.81 -20.83,-13.63 -23.94,-17.11 -1.8,-2.02 -2.05,-3.49 -2.22,-6.06 1.97,2.9 3.91,4.12 6.94,5.66 40.92,20.79 94.24,30.28 136.34,8.02 z"
       id="path14" />
    <path
       class="cls-1"
       d="m 126.63,307.6 c -0.16,0.05 -0.95,1.44 -2.7,1.97 -11.71,3.55 -25.19,1.38 -36.9,-0.53 -1.56,-6.95 7.07,-3.08 11.17,-2.89 4.48,0.21 9.96,0.27 14.43,0.04 3.34,-0.17 9.51,-1.99 12.19,-1.49 1.82,0.34 1.93,1.3 1.81,2.9 z"
       id="path16" />
    <path
       class="cls-7"
       d="m 184.95,109.6 c -0.1,1.67 -0.65,2.83 -0.72,3.6 -0.26,-7.41 0.35,-14.92 0,-22.32 1.19,0.75 0.72,2.73 0.73,3.95 0.06,4.75 0.28,10.09 -0.01,14.77 z"
       id="path18" />
    <path
       class="cls-9"
       d="m 39.51,269.44 c -3.54,-1.17 -12.12,-3.94 -14.93,-5.59 -1.01,-0.59 -1.39,-0.64 -1.64,-1.96 -0.58,-3.18 -0.24,-12.23 0,-15.83 1.24,-18.31 7.58,-38.05 9.97,-56.27 2.72,-20.77 -4.86,-26.61 -10.72,-44.51 -3.55,-10.85 -5.91,-26.02 -6.49,-37.43 -0.59,-11.59 1.71,-23.34 0.1,-34.66 l -3.67,-1.01 c 2.26,-2.76 5.71,-4.87 9.35,-3.23 5.66,2.55 2.29,18.03 2.18,23.03 -0.32,13.9 4.47,34.15 9.73,47.14 3.79,9.36 11.19,17.81 14.88,26.88 4.31,10.57 -3.64,35.24 -5.69,47.15 -2.05,11.91 -7.06,38.71 -5.02,49.96 0.4,2.2 0.66,4.43 1.93,6.35 z"
       id="path20" />
    <path
       class="cls-9"
       d="m 178.47,74.32 c -1.94,-0.02 -2.03,0.86 -2.21,2.49 -0.51,4.68 1.97,14.03 2.2,19.48 1.17,28.3 -8.22,56.33 -14.45,83.51 5.71,26.28 12.56,52.42 16.54,79.09 -0.35,1.28 -14.1,6.71 -16.48,7.67 -0.34,-7.13 1.13,-14.08 0.71,-21.23 -1.31,-22.55 -10.38,-45.82 -12.14,-67.06 -0.9,-10.84 3.87,-17.09 6.75,-26.91 4.89,-16.7 7.17,-40.43 8.27,-57.97 0.34,-5.44 -2.9,-27.61 8.2,-21.86 1.4,0.73 1.8,2.09 2.61,2.78 z"
       id="path22" />
    <path
       class="cls-9"
       d="m 107.91,167.21 c 0.34,0.46 -1.46,1.63 -2.12,1.82 -2.05,0.6 -15.4,-0.12 -18.4,-0.39 -1.39,-0.12 -4.93,-1.12 -3.24,-2.88 0.83,-0.86 23.05,0.49 23.76,1.45 z"
       id="path24" />
    <path
       class="cls-5"
       d="m 97.11,0.16 15.12,0.72 c 9.53,0.45 20.86,2.56 20.88,14.4 -0.63,-1 -2.73,-4.07 -3.98,-2.18 -1.01,1.52 0.54,4.42 0.25,6.67 -0.26,1.93 -2.55,6.33 -3.46,8.48 -3.3,5.58 -11.59,8.06 -17.79,9.24 C 96.3,39.75 79.64,37.33 71.92,27.53 70.96,25.14 68.7,20.7 68.44,18.34 68.15,15.63 70.55,11.32 66.16,10.25 68.02,8.77 69.29,9.16 70.44,8.4 81.85,0.85 82.87,0.66 97.11,0.16 Z"
       id="path26" />
    <path
       class="cls-4"
       d="m 112.23,0.88 c -4.9,-0.23 -10.48,0.78 -15.12,-0.72 4.75,-0.17 10.6,-0.48 15.12,0.72 z"
       id="path28" />
    <path
       class="cls-10"
       d="m 125.91,28.24 c -0.17,0.4 -0.02,1.26 -0.4,2.09 -2.6,5.62 -17.68,27.91 -23.72,27.88 -1.23,0 -8.52,-4.43 -10.1,-5.47 C 81.51,46.05 76.31,38.51 71.91,27.52 c 16.22,12 37.55,12.6 54,0.72 z"
       id="path30" />
    <path
       class="cls-3"
       d="m 63.99,20.32 c 0.21,0.23 1.05,4.64 1.62,5.95 8.24,18.87 17.38,27.42 35.57,36.43 1.45,0.72 4.63,1.47 5.58,2.21 1.54,1.21 -2.75,4.19 -5.28,3.28 C 100.09,67.69 91.82,62.2 89.99,60.93 78.74,53.14 64.47,38.38 62.64,24.2 62.55,23.48 62.21,18.39 63.99,20.32 Z"
       id="path32" />
    <path
       class="cls-2"
       d="m 107.92,61.36 c -0.72,-0.97 0.75,-1.57 1.2,-2.03 1.96,-1.96 4.41,-3.67 6.36,-5.88 8.1,-9.14 12.36,-19.44 18.71,-29.53 1.52,1.07 0.73,1.28 0.38,2.5 -1.85,6.36 -7.82,15.89 -11.66,21.48 -1.75,2.55 -10.09,14.01 -12.44,14.13 -0.31,0.02 -2.47,-0.58 -2.55,-0.69 z"
       id="path34" />
  </g>
</svg>
