<?xml version="1.0" encoding="UTF-8" standalone="no"?>
<svg
   id="Layer_2"
   data-name="Layer 2"
   viewBox="0 0 55.372052 71.164547"
   version="1.1"
   sodipodi:docname="Human_09-hand_palmup.svg"
   width="55.372051"
   height="71.164551"
   xmlns:inkscape="http://www.inkscape.org/namespaces/inkscape"
   xmlns:sodipodi="http://sodipodi.sourceforge.net/DTD/sodipodi-0.dtd"
   xmlns="http://www.w3.org/2000/svg"
   xmlns:svg="http://www.w3.org/2000/svg">
  <sodipodi:namedview
     id="namedview22"
     pagecolor="#ffffff"
     bordercolor="#000000"
     borderopacity="0.25"
     inkscape:showpageshadow="2"
     inkscape:pageopacity="0.0"
     inkscape:pagecheckerboard="0"
     inkscape:deskcolor="#d1d1d1" />
  <defs
     id="defs4">
    <style
       id="style2">
      .cls-1 {
        fill: #937353;
      }

      .cls-2 {
        fill: #927353;
      }

      .cls-3 {
        fill: #927253;
      }

      .cls-4 {
        fill: #b28a63;
      }

      .cls-5 {
        fill: #947454;
      }
    </style>
  </defs>
  <g
     id="Layer_1-2"
     data-name="Layer 1"
     transform="translate(-0.00529016,1.5717842e-4)">
    <path
       d="m 38.32,3.22 c 0.27,-5.87 6,-2.37 8.3,-0.02 5.72,5.85 3.78,12.18 4.75,19 1.14,8.08 7.52,29.37 1.37,35.37 -3.02,2.95 -6.88,0.83 -7.19,1.06 -1.42,1.03 -1.61,9.2 -9.21,5.92 -2.47,-1.06 -2.1,-3.28 -3.77,-4.49 0.39,4.31 -4.66,13.21 -9.54,10.65 -3.84,-2.02 -3.33,-9.34 -4.15,-9.94 -0.42,-0.3 -3.2,1.53 -5.04,0.38 -0.55,-0.34 -2.22,-3.83 -2.5,-4.7 C 9.23,49.93 10.83,43.46 12.41,37.03 9.34,39.14 3.02,39.48 0.99,35.87 -2.91,28.94 5.81,25 9.13,20.43 13.64,14.25 15.38,1.18 26.8,5.38 c 4,2.12 -1.7,5.07 -4.57,5.66 l -1.9,1.58 C 17.07,20.8 12.04,27.26 5.22,32 c 2.54,2.77 6.56,-0.89 8.52,-2.9 4.03,-5.4 8.78,-11.21 15.94,-7.9 4.2,-2.07 3.86,5.55 -0.51,6 -3.1,0.22 -5.15,0.44 -7.41,1.92 -4.73,7.21 -6.9,16.76 -5.45,25.22 l 1.14,-0.04 c -0.5,-2.46 2.98,-19.51 3.98,-19.64 0.34,-0.04 0.69,0.06 1.05,0.21 3.54,-1.12 4.76,2.04 3.64,9.48 -0.56,2.72 -2.99,19.07 -0.51,19.9 0.44,-1.87 1.32,-2.79 2.63,-2.76 -0.42,-4.09 -0.2,-23.11 2.46,-25 2.16,-1.54 5.33,-0.89 4.74,1.98 1.51,6.8 2.66,13.72 3.45,20.75 l 1.59,0.11 c -0.2,-7.5 -0.64,-14.99 -1.33,-22.47 2.2,-6.14 9.75,-0.96 6.37,3.05 l 1.58,9.46 c 0.96,0.42 1.56,1.59 1.8,3.5 C 51.47,52.92 47.25,23.58 45.47,20.82 45.81,14.38 44.15,9.23 40.48,5.37 38.75,6.36 37.93,4.84 38.32,3.21 Z"
       id="path6" />
    <path
       class="cls-4"
       d="m 38.32,3.22 c 1.15,0.34 1.53,1.3 2.16,2.16 1.93,1.36 3.25,3.34 3.78,5.62 1.22,8.45 2.6,16.77 4.13,24.95 0.87,1.09 1.65,12.28 0.96,12.84 -0.27,0.22 -0.61,0.36 -0.96,0.47 -0.34,0.72 -0.74,0.93 -1.23,0.44 l -1.65,-9.79 c -0.79,-2.2 -0.71,-5.3 -3.89,-4.25 -1.71,0.56 -1.23,4.49 -1.14,6.05 0.31,5.21 3.2,12.9 -0.01,17.63 l -1.63,-0.26 c -0.67,-7.05 -1.81,-13.92 -3.41,-20.61 -2.13,-1.73 -3.56,-2.33 -4.71,0.68 -1.26,7.19 -0.64,15.31 -2.48,22.34 -1.44,1.93 -2.65,0.14 -2.87,-1.93 -0.06,-6.15 0.25,-12.31 0.93,-18.46 0.49,-5.66 -0.79,-7.74 -3.82,-6.24 -1.99,1.93 -3.66,15.54 -5.04,19.42 -0.45,0.31 -0.81,0.54 -0.87,0.48 -2.96,-3.05 1.75,-22.06 5.19,-25.66 0.3,-0.34 0.15,-1.93 1.42,-2.53 2.37,-1.11 8.85,0.63 7.93,-4.15 -0.12,-0.6 -1.13,-0.85 -1.43,-1.23 -7.45,-3.11 -11.72,2.23 -16.02,7.98 -1.93,2.05 -6.3,5.63 -8.45,2.81 1.28,-3.71 5.99,-6.25 8.23,-9.4 3.07,-4.32 3.03,-9.67 8.06,-12.8 1.3,-0.81 3.7,-1 4.6,-1.9 0.9,-0.9 0.54,-2.3 0.7,-2.52 0.92,-1.28 9.54,-1.35 11.51,-2.16 z"
       id="path8" />
    <path
       class="cls-5"
       d="m 45.51,39.91 c 1.08,3.03 1.94,6.12 2.17,9.35 h 0.71 c 0,0 0,-13.31 0,-13.31 0,-3.82 -3,-11.96 -3.98,-16.16 -1.26,-5.38 -0.43,-9.58 -3.93,-14.41 7.19,2.73 5.06,10.49 5.84,16.1 1,7.19 6.64,26.37 3.83,32.07 -0.3,0.6 -0.95,0.98 -1.4,1.46 -1.98,-0.03 -3.48,-12.84 -3.24,-15.09 z"
       id="path10" />
    <path
       class="cls-3"
       d="m 22.49,34.88 c 2.04,-1.98 3.46,-0.98 4.1,1.27 2.13,7.56 -0.33,14.58 0.18,22.15 0.09,1.34 -0.17,2.69 1.48,3.2 -0.38,1.46 -2.42,7.09 -3.76,4.13 -3.96,-8.69 1.56,-20.66 0.89,-29.69 -0.15,-2.05 -1.77,-0.75 -2.88,-1.05 z"
       id="path12" />
    <path
       class="cls-1"
       d="m 17.45,54.3 c -0.25,0.71 -0.8,1.34 -0.73,2.16 -4.07,-3.86 -1.52,-17.48 0.58,-22.09 0.92,-2.03 3.04,-3.64 4.47,-5.24 -2.11,7.15 -4.02,13.98 -4.83,21.44 -0.13,1.15 -0.83,2.99 0.51,3.74 z"
       id="path14" />
    <path
       class="cls-2"
       d="m 5.22,32 c 10.23,-0.35 10.55,-13.28 21.13,-12.9 3.49,0.13 2.63,1.23 3.34,2.11 -2.38,0.67 -6.66,0.23 -8.62,1.09 C 17.82,23.72 13.01,36.13 5.25,34.14 4.85,32.99 4.89,32.98 5.23,32 Z"
       id="path16" />
    <path
       class="cls-2"
       d="m 40.48,59.34 c -0.45,0.66 -0.67,1.69 -1.79,1.44 -3.74,-0.84 -2.01,-18.69 -3.25,-22.3 4.37,3.56 2.81,15.58 5.04,20.86 z"
       id="path18" />
  </g>
</svg>
