<?xml version="1.0" encoding="UTF-8"?>
<svg id="Layer_2" data-name="Layer 2" xmlns="http://www.w3.org/2000/svg" viewBox="0 0 294.83 635.1">
  <defs>
    <style>
      .cls-1 {
        fill: #e7bd9a;
      }

      .cls-2 {
        fill: #695aab;
      }

      .cls-3 {
        fill: #010101;
      }

      .cls-4 {
        fill: #d1a178;
      }

      .cls-5 {
        fill: #454155;
      }

      .cls-6 {
        fill: #030302;
      }

      .cls-7 {
        fill: #dd918e;
      }

      .cls-8 {
        fill: #080808;
      }

      .cls-9 {
        fill: #4a2b58;
      }

      .cls-10 {
        fill: #282420;
      }

      .cls-11 {
        fill: #471c48;
      }

      .cls-12 {
        fill: #350436;
      }

      .cls-13 {
        fill: #ce75cf;
      }

      .cls-14 {
        fill: #7c6e62;
      }

      .cls-15 {
        fill: #37302a;
      }

      .cls-16 {
        fill: #401341;
      }

      .cls-17 {
        fill: #060504;
      }

      .cls-18 {
        fill: #e8be9a;
      }

      .cls-19 {
        fill: #cfaa8a;
      }

      .cls-20 {
        fill: #2f2623;
      }

      .cls-21 {
        fill: #e6e5e4;
      }

      .cls-22 {
        fill: #514840;
      }

      .cls-23 {
        fill: #6859ab;
      }

      .cls-24 {
        fill: #130f13;
      }

      .cls-25 {
        fill: #6557a6;
      }

      .cls-26 {
        fill: #040303;
      }

      .cls-27 {
        fill: #8478bd;
      }

      .cls-28 {
        fill: #685aab;
      }

      .cls-29 {
        fill: #d0a078;
      }

      .cls-30 {
        fill: #5d3d6a;
      }

      .cls-31 {
        fill: #030303;
      }

      .cls-32 {
        fill: #b09176;
      }

      .cls-33 {
        fill: #5d3d6b;
      }

      .cls-34 {
        fill: #6758a9;
      }

      .cls-35 {
        fill: #ea9eeb;
      }

      .cls-36 {
        fill: #373445;
      }

      .cls-37 {
        fill: #d0a178;
      }

      .cls-38 {
        fill: #df9490;
      }

      .cls-39 {
        fill: #dedede;
      }

      .cls-40 {
        fill: #3f163f;
      }

      .cls-41 {
        fill: #84527c;
      }

      .cls-42 {
        fill: #373444;
      }

      .cls-43 {
        fill: #eb9eec;
      }

      .cls-44 {
        fill: #8477bd;
      }
    </style>
  </defs>
  <g id="Layer_1-2" data-name="Layer 1">
    <path class="cls-8" d="M192.7,171.37c24.34,6.54,27.73,64.97,36.14,85.79,8.05,19.93,32.67,50.43,31.51,71.41-.14,2.56-1.57,6.63-1.32,8.44.33,2.42,3.94,6.67,4.57,9.82.46,2.32-.48,4.79-.34,5,.15.22,3.14,2.02,4.27,3.3,7.79,8.84,6.31,26.13,15.42,35.65,4.5,4.71,16.43,9.81,10.06,17.91-8.82,11.21-25.31-4.52-31.62-11.46-1.59-1.75-7.54-10.33-8.63-10.79-1.28-.54-.93.54-1.13.99-2.55,5.78-8.7,19.32-17.02,15.72-6.91-2.99-.2-15.04.91-20.31s.57-9.04,1.13-13.97c.13-1.15,1.68-4.31,1.37-4.71-.14-.18-2.52-.52-3.92-2.21-1.95-2.36-5.08-12.27-5.58-12.76-.29-.29-3.51-.91-4.66-1.46-8.78-4.23-14.44-23.78-17.51-32.84-6.88-20.24-11.25-41.64-22.69-60.03l-7.48-9.41c-2.31,14.24,1.05,28.42,7.53,41.01,5.73,11.14,17.4,26.58,18.31,39.29.44,6.11-6.42,8.72-6.47,9.31-.05.73,1.1,2.54,1.3,3.71,5.38,30.42,8.3,61.27,14.07,91.67,3.32,17.48,7.67,34.76,11.06,52.24,6.5,33.57,10.82,67.59,20.37,100.49,1.14,5.81-5.5,7.29-8.62,10.77,8.86,6.13,26.31,24.94,9.33,31.64-22.66,8.94-47.96-.36-65.79-14.76-2.39-1.93-5.95-6.38-8.02-7.81-4.38-3.02-11.82-1.84-12.54-9.76-1.03-11.45.41-24.96.06-36.75-.85-29.24-4.87-57.34-7.22-86.29-2.09-25.81-2.21-50.25-6.7-76.02-.16-.89-.13-3.48-1.21-3.45-.17,3.94.2,7.95.02,11.89-1.55,34.45,2.56,69.05,3.6,103.52.42,13.89-.56,27.89-.06,41.78.42,11.71,2.35,23.54,2.9,35.22.14,3.05.69,13.03-1.23,14.77-1.74,1.57-11.15,4.59-11.56,5.15s-.56,3.74-1.06,5.05c-7.38,19.53-15.76,32.4-39.38,24.66-9.48-3.11-13.06-17.42-10.77-26.26-3.6-.53-9.82-4.32-12.17-6.9-2.86-3.15-4.54-18.65-5.09-23.68-2.88-26.26-2.1-53.43-2.14-79.86-.05-38.02.6-74.14,5.1-112.09,2.22-18.77,5.34-37.52,8.42-56.15l-3.47-3.28c-.98,5.47-4.09,12.82-8.28,16.54-1.47,1.3-6.49,3.41-6.7,3.73-.57.91-1.5,7.91-2.86,10.44-1.03,1.92-4.92,4.49-4.97,4.85-.12.77,1.09,2.92,1.09,4.35,0,3.86-.91,7.96-.57,12.22.58,7.28,8.25,23.03-3.97,24.14-9.08.82-9.01-8.76-10.79-15.13-5.64,9.66-18.83,31.58-32.54,25.34-2.69-1.22-5.09-4.82-5.16-7.79-.11-4.74,9.33-18.96,11.77-24.77,3.04-7.22,4.75-17.57,8.7-23.67.62-.95,3-2.69,3.02-3.27.01-.31-1.97-2.78-1.99-5.04-.02-2.55,1.97-6.54,1.85-8.66-.1-1.78-2.93-6.54-3.28-10.06-1.75-17.48,10.68-36.35,16.36-52.68,4.64-13.37,7.23-27.55,8.72-41.63,2.31-21.73.94-47.39,23.11-59.97.28-4.24,9.11-5.42,9.46.11,1.42.05,2.12.46,2.05,2.04l-.74,1.47c-13.36,3.82-22.68,18.07-24.14,31.74-1.45,32.7-7.05,65.1-21.94,94.46-4.88,9.57-6.06,18.94-3.56,28.13l-.69,1.73c.43,1.1,1.05,1.7,2.16,2.16,1.22-.56,2.62-.06,4.19,1.48,2.46.49,3.7,1.44,3.72,2.83,1.43-1.7,4.13-.73,4.32,1.44.63,1.74-2.25,1.06-3.6.72-1.63,2.51-9-.71-7.91-3.6-1.25-.47-1.9.17-2.16,1.44l1.32,1.02c-2.33,7.21,2.38,10.26,8.91,11.1l.55,1.55,1.34-1.19c3.1.88,8.01.92,9.11-2.74.47-7.4,2.87-11.39,9.75-13.95,5.16-3.54,6.46-10.32,7.27-16.19,1.06-25.41,7.83-50.26,18.45-72.97-4.12-9.64-6.24-18.67-4.2-29.63-.61-.09-1.41-.4-1.4-.91.09-3.97,1.09-14.71,4.69-16.78,1.04-.6,1.51-.6,2.46.42,4.02.43,4.03,3.35,3.48,6.66-3.26,13.08-3.26,27.28,5.06,38.6,4.8,10.06,3.32,21.89.42,32.36-5.54,14.59-10.09,29.37-13.65,44.33,6.84,4.13,13.81,8.19,20.94,12.18l1.02,1.81,2.14-.95c6.9,1.64,14.08.85,20.71-1.43,18-7.98,31.08-9.64,49.41-1.5l1.11,1.72,1.07-1.26c5.56,1.63,11.38-1.99,14.63-6.31-4.39-13.74-10.66-26.9-18.82-39.5-8.77-15.3-10.7-33.87-4.54-50.49,5.76-10.5,9.57-20.31,4.97-32.14-1.02-3.2-.6-5.28,1.25-6.24,1.52-1.79,3.74-.84,3.6,1.44l2.55.98c1.03.79,5.3,9.52,2.49,10.16.63.04,1.05.35,1.44.81s.61,11.34-1.44,11.42l1.27,1.08c-2.19,5.19-4.68,10.23-7.46,15.13,12.32,11.34,19.23,27.15,24.73,42.63,4.56,15.97,9.71,31.76,15.45,47.39,3.71,9.06,5.71,12.15,14.88,15.46,1.87,4.02,3.6,8.1,5.2,12.24,1.35.74,2.51,1.53,3.48,2.37,5.4-2.3,16.81-8.28,10.09-14.86-2.68,2.48-7.94,6.24-10.81,2.63-1.97,1.89-3.51-.8-2.28-2.98,3.77-3.48,8.04-6.53,12.35-9.25-.76-1.7-.77-3.81-.05-6.31-1.47-11.49-5.54-22.47-12.21-32.91-9.95-16.99-18.67-32.6-24.01-51.61-2.57-13.58-5.72-27.03-9.47-40.36-3.37-10.24-8.11-23.22-19.85-25.43l-.58-1.62c-4.66-3.5,4.8-9.55,6.47-4.32ZM78.33,307.33c4.18-17.48,14.55-33.76,12.94-52.51l-4.33,9.69c-4,12.87-9.38,27.48-10.05,41.03-.07,1.5-.42,2.06,1.43,1.79ZM77.61,308.04c-2.83-.52-.91,4.83-1.43,6.47l1.43-6.47ZM76.17,321.7l.72-5.75c-1.73.33-2.26,5.09-.72,5.75ZM71.86,435.36c0,2.39,0,4.8,0,7.19-1.16,9.58-1.35,21.84-1.44,31.65-.08,9.17.67,18.23.72,27.33.15,25.03-.72,50.19,2.25,75.07.4,3.35,1.94,16.3,3.18,18.4.77,1.31,7.43,5.51,8.96,5.79,15-1.06,32.36.49,46.75-3.6,2.17-.62,6.56-1.67,8.2-2.95,1.88-1.48,1.25-9.1,1.14-11.79-.46-11.92-2.48-24-2.9-35.94-.49-13.89.47-27.88.06-41.78-1.11-37.44-5.11-74.82-3.66-112.21.19-4.87,1.53-11.01,1.53-15.79,0-3.71-5.31-10.61,1.74-10.46,5.67.12,8.4,13.25,9.39,17.97,5.42,26.01,5.38,51.23,7.52,77.35,2.63,31.97,7.04,63.5,7.93,95.64.34,12.08-.61,24.38.32,36.36.81,1.35,9.14,3.84,11.16,4.31,14.62,3.42,33.05,2.12,46.52-4.91,2.9-1.51,3.1-3.02,3.98-3.62.29-.2,3.51-.37,6.32-2.26,1.16-.78,4.23-2.64,4.19-3.79-9.92-33.57-14.41-68.38-21.08-102.68-3.08-15.84-7.17-31.48-10.22-47.32-6.01-31.24-9.72-62.94-14.62-94.36-12.92,4.88-23.96-6.06-36.33-5.8-11.53.25-20.4,8.54-31.62,9.43-7.45.59-16.19,0-23.17-2.77l-15.33-9.48c-1.98,20.02-5.67,40.03-7.91,60.06-1.61,14.46-3.62,30.52-3.6,44.95ZM7.12,404.43c3.89,4.99,12.77-4.02,15.47-7.18,2.97-3.48,6.08-8.47,8.39-12.47,1.59-2.75,4.17-10.52,6.39-11.62.87-.43,1.53-.2,2.12-.37,5.54,4.18,3.5,15.96,6.54,20.43,1.03,1.51,3.1,1.62,3.34.1.39-2.49-3.14-13.25-3.4-17.31s1.11-8.63.54-12.05c-.75-4.52-2.31-2.87-4.87-3.41-4.62-.96-9.44-2.15-13.32-5.01-.8,1.52-2.82,3.06-3.55,4.32-3.15,5.43-5.11,16.59-8.18,23.47-1.84,4.12-9.95,16.65-10.21,19.39-.11,1.19.27,1.1.74,1.7ZM261.04,358.39c-.52-.37-.5-1.86-2.38-1.36-1.15.31-3.66,3.81-5.29,4.84-5.04,3.19-9.94.73-10.97,8.45-.37,2.78.24,5.8-.07,8.56-.72,6.36-3.34,12.25-5.02,18.35,6.64-2.59,7.43-10.47,10.07-15.82,1.14-2.32,1.59-2.77,3.6-4.32,6.2,2.44,9.63,10.19,14.02,15.11,3.51,3.94,15.42,15.85,20.74,14.26.85-.25.97-1.15,1.21-1.32.44-.31,2.45.74,1.09-2.17-7.41-5.58-12.63-10.31-16.22-19.03-3.1-7.53-4.49-21.07-10.77-25.55ZM195.58,605.83c-5.02-.82-10.82,1.06-15.82-.71,11.72,11.71,26.73,16.93,43.16,17.26,3.36.07,19.64-.77,20.77-4.06,1.98-5.75-9.7-17.22-14.67-19.64-5.27,7.99-12.28,10.43-21.6,10.06-1.81-.07-6.26-.45-7.87-.76s-1.98-1.82-3.97-2.15ZM218.59,602.22c.11-.14-.04-.98,0-1.43-5.97,1.34-1.44,3.19,0,1.43ZM215,602.24c-.24-.25-2.75.91-3.59.72v.7s3.59,0,3.59,0c-.04-.45.11-1.32,0-1.43ZM108.54,628.13c1.51-.06,2.98.13,4.5-.17,7.65-1.5,13.3-16.83,15.64-23.56-5.28,1.39-8.73-.58-11.5,5.03-4.16,3.36-13.07,4.53-17.54,1.35-2.04-1.45-1.72-4.07-1.89-4.23-.32-.3-7.1,1.5-8.63.72.07,15.93,2.88,21.47,19.42,20.86ZM112.86,605.83h-10.07c-.76,1.85,3.88,2.18,4.69,2.17,1.23-.02,4.76-.84,5.38-2.17Z"/>
    <path class="cls-41" d="M77.61,308.04l-1.43,6.47c.52-1.64-1.4-6.99,1.43-6.47Z"/>
    <path class="cls-11" d="M231.54,587.13c-2.81,1.89-6.04,2.06-6.32,2.26-.88.6-1.08,2.11-3.98,3.62-13.47,7.02-31.91,8.33-46.52,4.91-.78-.93-.69-2.01.25-3.24-.32-50.21-2.74-101.76-7.77-152.08-2.11-21.06-8.12-56.83-21.43-72.91s-18.38,12.64-19.07,23.23c-1.13,17.39-1.92,34.73-.71,52.15,3.85,42.62,5.35,85.19,4.49,127.69.17,7.6.35,15.57,2.71,22.62l-.9,1.82c-14.39,4.09-31.76,2.54-46.75,3.6-.4-.79-.78-1.59-1.07-2.42s-.54-1.62-.61-2.44c-4.17-44.51-5.89-89.72-4.76-134.73.96-38.24,4.58-74.95,8.7-112.83.28-2.58,2.07-8.69,5.35-7.55,18.73,8.47,36.46,4.81,54.32-1.43,4.08-3.15,33.17,5.22,34.13,7.92.53,1.49.96,3.01,1.3,4.54,10.15,58.34,20.89,117.85,37.75,174.9,4.67,18.73,7.65,36.66,10.17,54.93,1.16,2.01,1.41,3.82.75,5.44Z"/>
    <path class="cls-12" d="M174.72,597.92c-2.02-.47-10.34-2.96-11.16-4.31-.93-11.98.01-24.28-.32-36.36-.9-32.14-5.31-63.67-7.93-95.64-2.15-26.13-2.11-51.34-7.52-77.35-.98-4.72-3.71-17.85-9.39-17.97-7.05-.15-1.73,6.74-1.74,10.46,0,4.78-1.34,10.92-1.53,15.79-1.45,37.39,2.55,74.77,3.66,112.21.41,13.89-.55,27.89-.06,41.78.42,11.95,2.44,24.03,2.9,35.94.1,2.69.74,10.31-1.14,11.79-1.64,1.28-6.03,2.33-8.2,2.95-.85-2.5-1.73-4.99-2.07-7.64-2.43-18.92-.55-39.21-.75-58.17-.5-48.05-9.25-95.69-3.65-143.86.62-5.35,1.55-10.78,3.69-15.73,8.54-19.67,19.35-1.94,24.48,9.12,9.72,20.97,13.39,48.41,15.69,71.34,4.47,44.5,6.11,91.23,6.45,135.97.03,3.72,1.73,5.87-1.41,9.68Z"/>
    <path class="cls-12" d="M71.86,435.36c-.02-14.43,1.99-30.49,3.6-44.95,2.23-20.04,5.93-40.04,7.91-60.06l15.33,9.48c6.98,2.77,15.72,3.36,23.17,2.77,11.22-.89,20.09-9.18,31.62-9.43,12.37-.26,23.41,10.68,36.33,5.8,4.89,31.43,8.61,63.12,14.62,94.36,3.05,15.84,7.14,31.48,10.22,47.32,6.66,34.3,11.15,69.11,21.08,102.68.04,1.15-3.03,3.01-4.19,3.79-4.49-8-3.71-17.94-5.14-26.87-3.97-24.75-10.94-46-17.1-69.93-7.21-27.99-13.2-56.62-18.55-85.03-3.59-19.07-5.33-38.49-10.33-57.28-.57-.85-14.12-5.37-16.33-5.96-15.72-4.24-19.51.22-33.24,3.76-13.65,3.52-26.24.92-39.14-4.01-.52.09-2.38,5.91-2.52,6.94-9.27,70.13-11.28,144.42-6.53,215,.83,12.36,2.38,24.67,2.87,37.05-1.53-.27-8.19-4.47-8.96-5.79-1.23-2.1-2.78-15.05-3.18-18.4-2.97-24.89-2.1-50.05-2.25-75.07.37-9.1.13-18.21-.72-27.33.09-9.81.28-22.07,1.44-31.65.56-2.49.56-4.88,0-7.19Z"/>
    <path class="cls-40" d="M71.14,501.53c-.05-9.1-.8-18.16-.72-27.33l1.47,14.72c-.48,4.02.9,8.88-.75,12.62Z"/>
    <path class="cls-16" d="M71.86,442.55c0-2.39,0-4.8,0-7.19,1.96,1.91.23,5.34,0,7.19Z"/>
    <path class="cls-20" d="M76.17,321.7c-1.54-.66-1.01-5.42.72-5.75l-.72,5.75Z"/>
    <path class="cls-43" d="M79.77,175.69c4.41,2.21,10.87,9.46,15.6,12.81,21.61,15.36,47.89,13.57,70.22.71,4.36-2.51,17.33-13.32,20.64-13.53.37-.02,5.69,1.7,6.27,2,16.66,8.43,21.26,51.76,26.01,68.94,5.37,19.45,16.08,33.68,24.92,51.32,4.97,9.92,13.82,24.92,8.98,35.98-10.55,6.07-21.35,3.86-26.66-7.57-5.29-14.82-9.64-29.99-13.04-45.49-5.3-16.54-12.17-32.57-25.23-44.19,1.02-9.61,1.45-19-.36-28.68-1.01-5.41-1.59-7.32-6.65-9.29-1.03-.3-1.61-1.02-3.6-1.44l-3.37,2.17c2.02,13.08-2.35,24.43-7.55,36.36-7.19,19.74-1.06,41.5,7.68,59.83l10.34,20.4c.72,3.07.17,5.75-.59,8.69-.63,2.42-2.78,8.04-5.06,8.51-6.1-1.15-11.96-4.78-17.81-5.57-22.21-3.01-32.75,13.89-55.56,7.73-1.22-2.01-2.67-3.91-4.35-5.7-9.63-11.66-8.18-22.23-2.44-34.94,5.29-14.73,6.95-29.44,4.97-44.13-4.73-13.18-8.75-25.63-11.08-39.49,1.13-6.3-.33-10.2-4.37-11.69-4.98.73-5.55,13-5.75,17.26-.3,11.27-.85,20.18-3.87,31.45-8.02,21.19-11.9,41.5-11.19,63.72-1.73,15.51-6.88,24.98-24.1,24.57-1.37,1.4-2.7,2.49-3.99,3.26-4.41-1.44-4.43-1.17-7.91-4.32-1.06-.42-1.79-1.06-2.16-2.16-8.06-13.19,7.11-38.26,12.05-51.61,6.07-16.42,9.1-32.77,10.96-50.18s-.73-32.48,12.94-46.76c3.5-3.65,9.94-9.04,15.12-8.97Z"/>
    <path class="cls-13" d="M252.4,333.94c-1.86,4.25-7.99,6.59-11.19,10.06-1.12,1.31.99,1.88,1.12,2.16,4.49,2.51,8.67,10.99.72,12.23-1.39.03-2.8.35-3.97-.71-2.3-2.08-3.99-10.93-5.76-12.94-1.5-1.69-5.56-1.88-7.9-3.61-8.23-6.09-19.04-49.63-23.36-61.52-5.39-14.85-12.51-30.33-24.39-40.97-.1-.99,7.83-13.94,7.83-16.56v-12.23c0-2.62-3.02-9.08-5.04-11.15,1.55.44,3.26-.8,5.08,1.03,4.03,4.06,4.48,22.35,4.26,28.09-.07,1.85-1.53,6.99-1.04,8.32.36.99,5.88,5.62,7.17,7.15,7.45,8.85,13.34,23.02,17.1,33.97,4.96,14.45,7.75,35.12,13.79,48.07,1,2.14,6.23,9.09,8.27,9.71,4.61,1.41,12.49-.38,17.3-1.12Z"/>
    <path class="cls-13" d="M104.95,335.37c-8.79-2.38-14.98-9.67-23.08-13.41,1.81-23.71,20.93-47.91,14.81-72.19-1.36-5.4-4.75-8.44-6.46-12.96-1.92-5.05-2.74-12.94-2.56-18.36.15-4.46,2.59-12.2,2.26-15.81-.17-1.87-.9-2.23-2.24-3.22,7.73-1.13,5.18,7.22,5.83,11.79,2.27,15.88,6.21,23.9,10.75,38.16,4.19,13.18-1.03,31.97-4.56,45.15-2.1,7.82-6.6,13.89-4.33,22,1.27,4.53,3.81,8.46,6.39,12.31,1.48,2.2,4.09,2.88,3.18,6.53Z"/>
    <path class="cls-13" d="M176.88,197.27c-1.02,5.24,1.68,9.92,2.15,14.75,1.36,13.79-6.84,18.92-9.15,31.12-6,31.77,9.34,43.36,20.56,68.24,1.22,2.71,5,12.03,4.98,14.44-.02,2.1-6.08,6.04-7.98,6.81-4.23,1.72-4.88,1.38-9.13.58,2.16-6.47,5.72-9.91,4.15-17.46-12-22-23.83-44.35-20.51-70.47,1.49-11.74,10.01-22.91,10.63-36.12.27-5.67-3.44-13.52,4.29-11.9Z"/>
    <path class="cls-13" d="M40.21,353.36l-1.34-1.5c.8-3.24,1.72-6.34,2.78-9.29,2.5-.62,2.98-1.1,1.44-1.44-1.53-.42-2.85-.96-4.32-1.44,1.44-6.58,6.11-4.45,10.96-5.22,19.91-3.18,15.21-31.46,16.34-46.24,1.37-17.82,11.87-37.89,14.32-57.61.55-4.46.22-9.63,1.53-13.94-.26,5.35-.08,10.72.93,15.97.64,3.31,4.81,12.29,4.69,13.7-.22,2.5-5.74,13.05-7.07,16.71-4.84,13.35-8.24,26.91-10.05,41.02-1.2,9.32-.18,24.07-7.53,31.31-2.53,2.49-7.36,3.13-8.93,6.18-2.8,5.43.62,11.75-8.36,12.48-2.68.22-3.44-.37-5.39-.7Z"/>
    <path class="cls-35" d="M31.58,338.25c3.26,2.59,3.78,2.73,7.91,3.6l2.16.72c1.84,3.42-1.58,7.16-1.44,10.79-2.57-.44-4.04-.43-6.51-1.76-6.34-3.4-4.99-5.89-4.28-11.91.13-1.98.85-2.46,2.16-1.44Z"/>
    <path class="cls-35" d="M243.05,358.39c1.14-1.12,3.23-2.18,3.31-3.94.03-.75-3.27-6.61-4.03-8.28,4.75.8,8.08-1.75,11.15-5.02,2.87,4.66,5.17,6.2,1.44,10.79-3.34,4.12-6.34,6.34-11.87,6.46Z"/>
    <path class="cls-24" d="M43.09,341.13c1.13.31,3.17-.5,3.6,1.43-1.65-.1-3.4.17-5.03,0-1.27-.12-1.7-.62-2.16-.72,1.15-.04,2.98.45,3.6-.72Z"/>
    <path class="cls-24" d="M31.58,338.25c-1.19-.25-1.6.54-2.16,1.44.11-.94-.09-1.94,0-2.88.22-.28,1.78,1.15,2.15,1.44Z"/>
    <path class="cls-18" d="M41.65,360.55c.15,3.85.41,7.87.78,12.07-.39,1.48-1.37,1.53-2.94.16-4.49.06-8.33,3.15-11.51,9.27l-10.16,14.84c-2.99,5.15-6.56,7.66-10.71,7.54-.47-.6-.85-.51-.74-1.7.26-2.74,8.37-15.28,10.21-19.39,3.08-6.88,5.03-18.04,8.18-23.47.73-1.26,2.75-2.81,3.55-4.32,3.87,2.86,8.69,4.05,13.32,5.01Z"/>
    <path class="cls-18" d="M261.04,358.39c6.29,4.49,7.67,18.02,10.77,25.55,3.59,8.72,8.81,13.45,16.22,19.03,1.36,2.91-.66,1.87-1.09,2.17l-2.58-.16c-11.26-7.68-21.14-15.9-28.12-27.42-1.61-.52-3.37-.68-5.27-.48-2,1.55-2.46,2-3.6,4.32-.56-.07-1.39-.23-1.44-.63-.24-1.99-.28-13.61.59-14.8,4.37-2.11,8.79-4.37,12.77-7.58h1.75Z"/>
    <path class="cls-4" d="M39.49,372.78c-.59.16-1.25-.07-2.12.37-2.22,1.1-4.8,8.88-6.39,11.62-2.31,4-5.42,8.99-8.39,12.47-2.7,3.17-11.59,12.18-15.47,7.18,1.86-.95,3.93-2.09,5.42-3.57,6.5-6.48,11.98-17.68,18.34-24.82,2.69-3.02,4.75-6.17,8.61-3.26Z"/>
    <path class="cls-29" d="M261.04,358.39c-3.25,2.14-6.48,4.38-9.84,6.36-2.92,1.72-3.5-.17-3.86,4.76l.03,11.9c-2.64,5.35-3.43,13.23-10.07,15.82,1.68-6.1,4.3-11.99,5.02-18.35.31-2.76-.3-5.78.07-8.56,1.03-7.72,5.93-5.26,10.97-8.45,1.63-1.03,4.15-4.53,5.29-4.84,1.88-.5,1.86.99,2.38,1.36Z"/>
    <path class="cls-37" d="M286.93,405.15c-.24.17-.36,1.06-1.21,1.32-5.31,1.6-17.22-10.32-20.74-14.26-4.39-4.92-7.82-12.68-14.02-15.11,6.82-5.26,8.79,4.07,12.97,8.97,6.25,7.33,15.41,13.22,23,19.08Z"/>
    <path class="cls-37" d="M41.65,360.55c2.57.53,4.12-1.11,4.87,3.41.57,3.42-.81,7.97-.54,12.05s3.79,14.82,3.4,17.31c-.24,1.52-2.31,1.4-3.34-.1-3.04-4.47-1.01-16.25-6.54-20.43.4-.11,1.33.15,1.44,0,.87-1.17-2.45-9.84.72-12.23Z"/>
    <path class="cls-24" d="M30.86,335.37c-.17-.16-1.19.02-1.79-.71-.39-.48-.22-1.2-.37-1.45l2.16,2.16Z"/>
    <path class="cls-18" d="M169.68,60.6c.37.12.73.26,1.04.46,2.69,1.72-.65,24.84-1.41,28.83-1.96,10.34-9.32,38.78-18.06,44.57-.83.55-1.34.84-2.43.22-13.56,10.57-26.42,7.26-39.56-2.16-5.04-.36-9.68-6.52-12.75-10.63-12.25-16.38-15.93-38.78-12.16-58.63l1.9-1.95c3.32-5.93,12.27-8.13,18.75-9.41,12.28-1.12,26.53-2.34,38.7-1.72,8.99.46,20.88,2.49,25.99,10.41Z"/>
    <path class="cls-4" d="M159.61,48.37c2.99,1.2,8.68,5.48,9.75,8.61.47,1.37.13,2.49.32,3.62-6.65-4.53-11.76-7.28-19.88-8.53-6.05-.94-9.53-.09-14.98-.07-16.9.06-34.21-1.37-48.58,9.32.74-3.15,1.48-7.63,4.32-9.35-.04-.45-.03-.87.15-1.2,2.55-4.7,26.4-7.32,32.18-7.64,6.97-.39,29.81-.29,35.12,3.13.65.42,1.2,1.4,1.61,2.11Z"/>
    <path class="cls-31" d="M120.05,115.27c7.2.26,14.39.26,21.58,0,1.68-.35,10.64-2.73,10.77-.36.19,3.43-12.34,6.39-15.09,6.84-1.29,2.64-9.2,2.34-11.95,1.53l-1-1.53c-2.48-.43-12.52-3.71-13.68-5.55-3.5-5.52,7.09-1.51,9.37-.92Z"/>
    <path class="cls-6" d="M135.34,63.65c.66-.64,10-2.24,11.66-2.35,3.54-.23,18.46,1.35,20.17,4.33.16.28.98,4.47.95,4.71-.33,2.46-5.06-1.04-6.36-1.45-5.47-1.71-10.39-2.22-16.16-1.8-2.56.18-10.13,3.35-11.06-.52-.19-.81.22-2.36.79-2.92Z"/>
    <path class="cls-6" d="M104.05,62.94c3.85-.49,16.54-.6,19.23,2,1.11,1.07.99,3.13-.35,3.95-.8.49-14.31-1.44-18.16-.91-5.81.8-7.44,3.1-11.67,5.61-1.87,1.11-3.91.33-3.97-1.82-.11-4.55,11.3-8.37,14.91-8.82Z"/>
    <path class="cls-6" d="M140.19,97.29c.21.57,1.07,1.18,1.26,1.96,1.6,6.49-8.77,12.44-12.77,6.31-.16-.34,5.9-2.74,6.72-3.34,2.84-2.1.33-1.82-.98-3.08-3.17-3.05-10.64-11.28-6.46-15.51,2.79-.79,4.94,1.41,6.45,6.61l5.78,7.06Z"/>
    <path class="cls-26" d="M153.14,77.87c1.75,3.53.37,8.03-.72,11.5,3.07.36,9.13-.05,7.91,4.32-3.32-1.08-16.26.06-18.01-1.05-2.53-1.61,2.41-4.22,4.34-3.27-.98-2.82-1.05-7.05-.72-10.06.41-1.16,1.1-1.28,1.44,0,1.16-.47,2.59-.23,4.32.72-.03-1.88.45-2.6,1.44-2.16Z"/>
    <path class="cls-4" d="M123.65,122.46c1.72-.44,2.04.25.72,1.44-3.21,4.64,7.31,6.4,10.61,3.97,1.86-1.62,3.6-2.22,5.21-1.82-.62,2.41-.31,5.52-.86,7.42-1.39,4.82-17.6,2.98-19-2.36-.44-1.67.88-2.28,1.03-3.4.41-3.14-2.36-3.25,2.29-5.24Z"/>
    <path class="cls-26" d="M110.7,78.59c3.71,2.45,1.22,7.94,2.27,11.03.48,1.42,3.14,1.3,2.76,3.35-2.73,1.47-4.89-.04-7.44.05-1.63.06-7.86,2.7-8.38.3-.55-2.56,5.43-3.01,5.68-3.3.49-.57-.2-7.51.07-9.28.84-1.04,1.32-.56,1.44,1.44.64-1.09,1.6-2.05,2.88-2.88-.84-1.06-.49-1.24.72-.72Z"/>
    <path class="cls-17" d="M124.37,123.9c1.44-.3,3.14.1,5.09,1.19,3.42-1.14,6.52-1.3,9.3-.47.55.16,1.49-.12,2.16,0,.25.2-.61.99-.72,1.43-3.55,2.89-7.02,5.03-11.82,4.27-2.83-.45-9.99-4.5-4-6.42Z"/>
    <path class="cls-38" d="M141.63,115.27c-10.97,2.29-10.39,2.87-21.58,0,2.75-.17,5.5-1.41,8.24-1.46,1.99-.04,5.94-.02,7.89.07,1.7.07,3.53,1.62,5.45,1.4Z"/>
    <path class="cls-7" d="M137.32,121.74l-.72,2.15c.96-.31,1.63.57,2.16.73-6.23.22-8.68,4.63-14.39-.72-.29-.27-.44-1.05-.72-1.44.29-.12.53-.46.72-.72,3.76.66,9.18.61,12.95,0Z"/>
    <path class="cls-37" d="M140.19,97.29c-3.37-1.64-6.42-4.82-8.06-8.13-1.05-2.13-.4-5.99-4.17-5.54,2.32-2.35,2.79-1.27,4.68.72,2.41,2.52,6.38,9.72,7.54,12.95Z"/>
    <path class="cls-21" d="M150.98,76.43c1.58.69,1.27,2.19.72,3.6-2.7,1.88-2.98.15-4.32-.72-1.06.02-.94-1.06,0-1.44,1.31-.73,1.76-1.54,3.6-1.44Z"/>
    <path class="cls-22" d="M107.83,78.59c1.62.66,1.32,3.62-.72,3.6-.4-.1-1.03-1.09-1.44-1.44.19-1.24.83-2.58,2.16-2.88.63.2.62.44,0,.72Z"/>
    <path class="cls-15" d="M153.14,77.87c-.54.55-.88,1.77-1.44,2.16l-.72-3.6c1.31.07,1.6.32,2.16,1.44Z"/>
    <path class="cls-10" d="M110.7,78.59c-.35.08-.67.38-.72.72-.72,1.96-2.29,1.28-2.16-.72v-.72c1.32-.3,1.86.05,2.88.72Z"/>
    <path class="cls-14" d="M147.39,77.87v1.44c-.22-.14-1.02.09-1.44,0,.32-2.97,1.32-1.37,1.44-1.44Z"/>
    <path class="cls-39" d="M109.98,79.3c-.13.91.1,1.95,0,2.88-.88-.13-2.11.19-2.88,0l.72-3.6,2.16.72Z"/>
    <path class="cls-3" d="M189.82,115.99c-1.73,8.75-11.4,21.74-17.25,28.43-1.68,1.92-5.13,2.76-5.13,5.74,0,6.26,16.4,9.46,20.92,11.52s7.64,4.83,4.33,9.7c-4.21-1.13-6.44-.51-6.47,4.32l-.4,1.56-5.35,3.15c-28.47,24.69-69.59,29.46-96.84-.19-2.44-1.32-3.73-2.82-3.86-4.52-1.58-.79-3.43-.63-3.56-.76-.56-.53,1.27-4.57-3.83-3.43-.57.13-3.34,1.59-4.11,2.03-3.85-4.12.26-8.47,3.66-11.09,2.26-1.74,4.68-2.19,6.41-3.3.95,1.85,1.67,3.77,2.16,5.75.61,1,.04,1.95-1.7,2.86,1.27.21,2.57.47,3.74,1.03,3.13,1.48,9.54,4.97,9.47,8.34,1.11.64,2.22.9,3.31.79,22.2,21.6,55.89,15.23,77.99-3.82l1.42.16c.47-1.4-.07-1.52-1.44-1.44.14.57.19,1.07-.03,1.33-1.53,1.82-6.55,4.86-8.85,6.15-17.81,9.97-43.53,9.62-61.44.06-2.54-1.36-7.91-5.45-7.36-8.26-4.23-4.39.71-3.04,3.6-.72l2.67.11c9.95,6.56,21.94,9.58,33.81,8.74.64.72,1.42,1.14,2.36,1.22l1.66-1.65c9.56-1.29,19.39-3.57,27.34-9.3,9-6.48,5.17-9.07-.87-2.01-6.26,4.07-15.88,8.85-23.1,6.49-2.63,1.55-4.31,1.55-5.04,0-2.83.07-14.5-1.54-16.01-3.44-2.38-3.01,3.59-5.8,3.42-1.59.15-.56.39-1.4.82-1.44,2.08-.18,15.98-.21,16.69.48.24.23.37.58.47.96l.64-1.46c7.96.05,36.15-15.18,9.44-5.57-11.84,2.03-25.75-.73-36.3-6.52-2.17-1.19-8.25-4.56-5.07-6.59-1.71-2.51,2.19-3.25,4.27-1.8,10.48,6.98,24.04,9.96,36.52,7.37l2.36.9.02-.99c5.01-.73,7-4.6.33-2.72l-1.07-1.32-2.38,1.5c-16.48.78-31.19-4.04-44.6-13.46-.75-.52-1.01-1.53-1.21-2.43-.21-1.76.74-4.7,2.88-4.32l2.27-.17c10.59,7.73,23.84,10.74,34.96,2.27l2.33.06c1.73-.85,2.22.19,1.49,3.12.6.79.83,1.67.67,2.64.8,1.73-.34,3.19-3.42,4.37,3.48-.64,6.54-.42,9.18.67.74-1.84,4.9-3.07,6.47-2.16,1.43-1.79,2.31-1.06,3.17.72,3.42,2.01,19.47-23.97,20.75-28.28,1.06-1.48,2.15-1.53,2.7.23Z"/>
    <path class="cls-3" d="M189.82,115.27c-1.06.54-1.87.4-1.88-.77,2-5.74,1.66-10.04-.99-12.9l-1.11-2.37c2.51-19.26-.52-38.69-5.36-57.33l-2.46-1.81c-13.14-27.15-39.67-35.82-68.16-30.74-21.68,3.87-32.09,18.25-38.06,38.54l-2.1,1.93.56,1.5c-6.01,22.51-3.99,44.52,8.07,64.68,2.57.7,4.96,4.59,4.32,7.19,1.9,2.95-.5,3.85-2.76,1.71-1.26-4.37-6.43-7.91-1.72-1.03.81,1.42.4,2.21-1.27,2.2-6.51-8.47-12.88-19.64-15.61-30.06C52.23,61.47,68.5,5.54,109.63.91c30.63-3.45,53.22,2.24,71.43,27.81,13.83,19.43,16.61,56.67,11.31,79.38-.59,2.5-1.57,4.81-2.55,7.17Z"/>
    <path class="cls-8" d="M76.9,126.06c-.03-.05.55-.36.19-1.17-.57-1.29-4.25-4.99-1.2-5.96,3.43-1.09,3.71,3.49,5.25,5.24,1.12,1.27,1.82.31,1.5-.99l2.08.35c2.68,3.42,5.9,6.32,9.22,9.1l.2,2.06c5.77,2.44,7.15,7.99-.78,6.98l2.01,10.79c.68,3.42.46,6.8-2.79,8.84-.49.31-9.9,4.21-10.65,4.44l-1.46-.83c-2.71-1.89-3.15-2.48-2.16-5.75,11.54-7.39,6.97-16.59,2.29-27.11-1.01-2.26-2.71-3.94-3.73-5.98Z"/>
    <path class="cls-8" d="M189.82,115.27c-.03.23.05.49,0,.72-1.74-.38-1.49.88-2.03,1.89-3.25,6.11-13.86,25.29-20.24,27.3-3.26,1.03-1.78-1.88-4.35-1.86l.02-2.52c10.13-11.25,17.43-23.71,21.92-37.39l1.79-1.81c5.88-1.09,2.98,8.73,2.39,12.75-.07.49.5.87.49.92Z"/>
    <path class="cls-27" d="M180.47,41.9c2.67,12.24,3.79,24.83,3.35,37.77,2.88,26.19-8.19,48.59-27.08,65.81-4.89.82-9.42.87-14.38.71l6.99-4.09c.75-.3,1.13-1.28,1.64-1.66l.93-2.56c23.17-19.42,28.8-63.97,19-91.18-3.83-6.58-3.39-9.12,1.31-7.63-1.71-1.15-2.31-2.37-1.82-3.65-3.23-9.42-15.26-13.26-24.23-15.77-19.39-5.44-45.29-5.54-60.82,8.26l-.55,6.07c1.12.66,1.07,1.91-.15,3.76,4.95-3.2,6.38-.02,4.02,4.57-16.9,29.34-11.42,70.72,16.5,91.91l1.21,2.62c16.43,11.15,27.8,15.07,48.19,14.39,2.19-.05,2.72,4.3.72,5.04-11.66,3.17-23.08,1.06-34.06-3.7-2.05-.89-5.31-3.56-6.89-3.89-1.38-.29-1.53.75-2.2,1.12l-.08,1.6c-5.22,3.69,10.07,10.14,13.41,11.12,9.85,2.85.04,5.14-5.2,5.02-2.93,3.71,1.47,5.87,4.89,6.59l12.87.85c1.65-.14,3.37.1,5.04,0l.24,1.56c-2.29,1.41-4.05,3.05-5.28,4.92-13.48,1.57-27.78-1.99-38.84-10.07-5.5-2.41-12.27-6.41-4.89-11.67,1.22-3.87,3.57-4.73,5.6-.73.64,1.11,6.58,4.65,7.14,3.95l-8.28-10.46c-1.99-2.49-2.37-6.47,1.49-6.88,11.94,2.4,5.95-6.84-2.02-7.78l-4.07-3.11c-4.43-3.76-7.83-6.56-11.51-11.51-1.69-2.27-3.15-4.59-4.32-7.19-10.76-18.91-10.48-45.21-8.37-64.87l-.26-1.3c8.34-27.95,20.39-41.38,50.72-43.15,27.48-1.61,48.7,10.28,60.05,35.24Z"/>
    <path class="cls-8" d="M136.6,22.48l-1.25,1.48-10.38.83c-.34,1.08-.9,2.16-2.12,2.35l-14.74,1.64c-1.66.49-5.23,1.58-5.31,3.04-.4,1.59-1.54,3.1-3.44,4.54-1.94,3.28-4.15,6.32-6.63,9.13.4,1.93-.32,4.09-2.16,6.47-.06,2.85-2.42,6.83-4.32,9.35-5.81,24.69,1.6,55.86,23.02,71.21-1.01,1.64-.9,3.33-2.88,4.32-25.96-17.61-34.56-53.3-24.79-82.69,1.42-4.25,6.27-12.27,6.81-15.49.09-.52.14-1.24-.36-1.08l-5.4,2.87c-.6-.63,1.52-5.47,2.15-6.47-.62-5.05,8.62-8.82,12.98-10.47,8.43-3.18,19.59-5.15,28.57-4.59,2.93.18,9.35.86,10.24,3.55Z"/>
    <path class="cls-8" d="M170.4,35.43c2.26,1.95,3.77,3.19,5.03,6.12l-6.47-1.8c8.28,13.12,8.13,30.58,7.22,45.7-1.22,20.46-8.57,42.57-25.21,55-2.54-1.52-2.39-2.65-1.6-5.34l-.56-.42c14.22-11.09,23.72-57.02,20.86-74.09-2.18-4.6-4.89-8.04-9.61-10.43l-.46-1.8c-2.4-1.92-3.7-5.01,0-5.75,1.83-1.05,1.15-2.59-2.03-4.61-2.42-1.27-3.91-2.85-4.44-4.74-3.66-1.86-6.7-4.43-2.88-7.91l2.26-.82c5.86,1.46,15.49,5.27,17.88,10.89Z"/>
    <path class="cls-44" d="M95.6,172.09c2.17,1.6,3.7,4.18,6.54,6.05,18.43,12.2,55.31,10.3,71.15-5.33,1.36-1.56,2.48-.29,1.44,1.44-18.53,13.06-27.96,21.02-52.78,17.89-15.71-1.98-18.5-6.06-29.94-15.02.76-1.6.59-3.53-.53-5.77,1.75-2.88,3.05-1.49,4.13.73Z"/>
    <path class="cls-2" d="M112.14,149.8c-.02,1.54.9,1.96,1.91,2.76,8.87,7.03,26.11,10.69,37.21,9.39,2.48-.29,12.74-4.22,13.37-3.92,3.96,1.94-2.09,5.25-3.82,6.27-3.85,2.28-13.08,5.63-17.38,5.63h-17.98c-.67,0-2.93-2.19-2.52.71l15.11,4.32c-4.15.35-8.19,1.25-12.52.66-4.93-.67-10.72-4.55-5.86-9.33l9.75-1.39c-4.93-.42-20.71-6.93-20.16-12.57.22-2.22,1.74-1.91,2.9-2.55Z"/>
    <path class="cls-2" d="M186.95,101.6c-2.63,16.67-14.51,28.46-23.74,41.72-2.09,1.92-4.01,1.74-6.47,2.16-.47-3.37,2.17-3.75,3.59-5.4,23.8-27.63,22.99-38.09,21.55-74.05-.32-8.1.19-16.08-1.41-24.13,7.34,16.14,9.24,42.19,6.47,59.7Z"/>
    <path class="cls-2" d="M94.16,134.69c6.26,3.26,14.24,2.15,14.4,11.1-.05.47-3.98,1.78-4.77,1.83-2.51.17-5.46-2.41-4.98,1.84.27,2.37,11.94,14.85,11.18,15.43-4.14-.06-7.88-1.9-10.84-4.63-1.58-1.46-1.25-4.23-3.43-1.36-.48.63-3.6,5.31-3.59,5.64,0,.49,6.1,6.12,7.07,6.83-2.34-.47-5.78-3.29-3.6.72-.69-.51-2.18-.67-2.87-1.44l2.16,6.83-2.88-.35c-4.87-3.81-9.78-8.88-16.54-7.92-1.15-.97,4.38-3.94,5.03-4.31,2.16-1.24,5.61-2.93,7.92-3.95,1.35-.59,4.94-1.08,5.43-1.77,1.63-2.32-1.71-16.72-2.56-20.18,2.3.54,4.27,2.98,6.45.36-.92-2.03-1.91-3.26-3.58-4.68Z"/>
    <path class="cls-23" d="M138.04,181.44c-1-1.04-2.04-.23-.74-1.81.6-.73,4.99-4.27,5.77-4.66,2.38-1.2,3.63-.38,5.93-.9,5.85-1.33,10.93-2.9,15.88-6.42,3.32-2.36,5.96-8.18,9.83-2.41-8.91,10.99-23.16,14.63-36.68,16.2Z"/>
    <path class="cls-25" d="M173.28,172.81c1.16-1.15,2.87-3.07,3.93-4.35.66-.8,1.01-2.68,1.17-2.79.39-.29,7.56,1.83,7.85,2.12,1.6,1.59-3.32,1.62-4.13,1.98-1.89.84-5.6,3.23-7.38,4.49l-1.44-1.44Z"/>
    <path class="cls-34" d="M154.58,151.23c2.4-.08,5.71-2.27,6.48,1.11.83,3.65-3.05,3.19-5.76,3.93l-.72-5.04Z"/>
    <path class="cls-28" d="M69.7,49.81c2.87-.44.74,4.57.69,6.08-.64,18.7.24,42.87,7.94,60.09-14.93-19.86-15.52-43.09-8.63-66.18Z"/>
    <path class="cls-2" d="M170.4,35.43c-6.06-5.23-12.75-7.92-20.14-10.07-2.16.89-4.8.62-7.92-.8-2.58-.02-4.49-.71-5.74-2.08-2.92-.67-6.9-1.82-9.8-2.07-11.04-.94-35.54,3.41-41.99,13.58-5.92-7.3,5.94-12.21,11.74-14.52,19.97-7.96,44.12-5.27,63.33,3.83,4.92,2.33,11.55,5.74,10.53,12.13Z"/>
    <path class="cls-3" d="M135.16,38.3c1.94.17,3.3-.28,4.08-1.36,6.6.19,12.95,1.93,19.22,3.84l1.15,1.83c-1.15,1.86-1.12,3.97.71,5.4l-.71.35c-15.74-6.34-54.53-5.24-69.05,3.6-1.76-.97,1.24-5.66,2.16-6.47,3.76-5.14,14.15-7.13,20.14-5.75,2.69-1.97,6.16-2.8,10.41-2.47,4.57-.91,8.53-.56,11.88,1.03Z"/>
    <path class="cls-3" d="M136.6,22.48c5.16-.06,8.95,1.5,13.67,2.88.02,4.04-1.22,6,3.43,7.01l-.55.9c-1.77,1.45-8.18-.59-8.63-2.88l-2.81.6c-8.85-1.48-17.88-1.93-26.76-.34l-2.8-.97c-.34,2.34-7.62,3.62-9.35,2.16-2.29.19-1.47-.43-.34-1.42,6.37-5.54,10.8-2.53,17.8-3.78,2.14-.38,4.37-1.41,2.68-3.43,4.59.61,9.26-.68,13.67-.73Z"/>
    <path class="cls-42" d="M112.14,29.67c2.26,1.25,1.92,3.7-1.04,7.33,1.57.56,2.15,1.47,1.76,2.74-4.35.61-17.14,3.09-20.14,5.75l3.3-7.13c2-2.59,3.59-5.24,6.77-6.54,2.24-.91,6.8-1.68,9.35-2.16Z"/>
    <path class="cls-36" d="M153.14,33.27c3.13,1.51,9.48,6.55,10.78,9.72.14.33.19,1.18-.35,1.06-1.05-1.81-2.79-1.1-3.96-1.44-9.59-2.78-14.06-4.35-24.46-4.32-.46-1.03.07-1.67,1.59-1.93-.89-4.15,4.3-6.01,7.76-5.98,2.59.65,6.27,1.74,8.63,2.88Z"/>
    <path class="cls-5" d="M144.51,30.39l-6.14,3.6c-.78,1.26-.09,2.4.39,3.59l-3.6.73c-7.01.02-15.39.47-22.3,1.44l-3.59-2.17c.93-2.91,3.73-4.25,2.88-7.9,11.22-2.1,21.25-2.09,32.37.72Z"/>
    <path class="cls-33" d="M222.91,622.37c-9.06-1.16-17.41-4.71-25.15-9.46-5.72-3.32-11.14-7.45-2.19-7.08,1.99.33,2.33,1.83,3.97,2.15s6.06.69,7.87.76c9.32.36,16.33-2.07,21.6-10.06,4.97,2.42,16.65,13.89,14.67,19.64-1.13,3.29-17.41,4.12-20.77,4.06Z"/>
    <path class="cls-30" d="M108.54,628.13c-16.55.61-19.35-4.93-19.42-20.86,1.53.78,8.31-1.01,8.63-.72.18.16-.14,2.78,1.89,4.23,4.46,3.18,13.38,2,17.54-1.35.68,3.54-2.16,9.99-4.02,13.49-.82,2.85-2.36,4.58-4.61,5.21Z"/>
    <path class="cls-9" d="M117.18,609.43c2.78-5.61,6.23-3.64,11.5-5.03-2.34,6.73-7.99,22.06-15.64,23.56-1.51.3-2.99.12-4.5.17,4.09-5.65,5.75-12.89,8.63-18.7Z"/>
    <path class="cls-9" d="M195.58,605.83l-4.32.73c9.2,7.54,20.45,12.07,31.65,15.82-16.43-.33-31.44-5.55-43.16-17.26,5,1.77,10.8-.11,15.82.71Z"/>
    <path class="cls-1" d="M112.86,605.83c-.62,1.33-4.15,2.15-5.38,2.17-.81.01-5.45-.32-4.69-2.17h10.07Z"/>
    <path class="cls-32" d="M218.59,602.22c-1.44,1.76-5.98-.09,0-1.43-.04.44.12,1.29,0,1.43Z"/>
    <path class="cls-19" d="M215,602.24c.11.11-.04.98,0,1.43h-3.59s0-.71,0-.71c.83.18,3.35-.98,3.59-.72Z"/>
  </g>
</svg>