<?xml version="1.0" encoding="UTF-8" standalone="no"?>
<svg
   id="Layer_2"
   data-name="Layer 2"
   viewBox="0 0 274.14342 322.13907"
   version="1.1"
   sodipodi:docname="Human_09-torso_side.svg"
   width="274.14343"
   height="322.13907"
   xmlns:inkscape="http://www.inkscape.org/namespaces/inkscape"
   xmlns:sodipodi="http://sodipodi.sourceforge.net/DTD/sodipodi-0.dtd"
   xmlns="http://www.w3.org/2000/svg"
   xmlns:svg="http://www.w3.org/2000/svg">
  <sodipodi:namedview
     id="namedview88"
     pagecolor="#ffffff"
     bordercolor="#000000"
     borderopacity="0.25"
     inkscape:showpageshadow="2"
     inkscape:pageopacity="0.0"
     inkscape:pagecheckerboard="0"
     inkscape:deskcolor="#d1d1d1" />
  <defs
     id="defs4">
    <style
       id="style2">
      .cls-1 {
        fill: #161433;
      }

      .cls-2 {
        fill: #19173a;
      }

      .cls-3 {
        fill: #937454;
      }

      .cls-4 {
        fill: #b08861;
      }

      .cls-5 {
        fill: #8f8f8f;
      }

      .cls-6 {
        fill: #ae8965;
      }

      .cls-7 {
        fill: #cdcdcd;
      }

      .cls-8 {
        fill: #8e8e8e;
      }

      .cls-9 {
        fill: #f9f9f9;
      }

      .cls-10 {
        fill: #06006b;
      }

      .cls-11 {
        fill: #929292;
      }

      .cls-12 {
        fill: #6b6b46;
      }

      .cls-13 {
        fill: #626240;
      }

      .cls-14 {
        fill: #616161;
      }

      .cls-15 {
        fill: #b08962;
      }

      .cls-16 {
        fill: #191919;
      }

      .cls-17 {
        fill: #d0d0d0;
      }

      .cls-18 {
        fill: #0d0c1e;
      }

      .cls-19 {
        fill: #959595;
      }

      .cls-20 {
        fill: #949494;
      }

      .cls-21 {
        fill: #dadada;
      }

      .cls-22 {
        fill: #fefefe;
      }

      .cls-23 {
        fill: #8c8b56;
      }

      .cls-24 {
        fill: #d2d2d2;
      }

      .cls-25 {
        fill: #d9d9d9;
      }

      .cls-26 {
        fill: #0d0c1f;
      }

      .cls-27 {
        fill: #818181;
      }

      .cls-28 {
        fill: #161616;
      }
    </style>
  </defs>
  <g
     id="Layer_1-2"
     data-name="Layer 1"
     transform="translate(0.01256661,-0.00358232)">
    <path
       class="cls-6"
       d="m 126.82,0.78 c -1.71,-0.35 -4.54,0.8 -5.76,-0.72 2.65,-0.24 3.68,0.34 5.76,0.72 z"
       id="path6" />
    <path
       d="m 113.15,5.09 c 3.4,-0.35 7.62,2.85 3.6,5.76 1.1,0.5 1.17,1.4 0.19,2.69 7.98,2.63 15.62,6.61 21.57,12.76 -1.8,-2.33 -2.1,-4.13 -0.89,-5.38 -3.77,-3.31 -0.47,-10.41 4.32,-4.32 1.95,5.04 3.52,13.65 5.41,17.97 0.73,1.65 3.89,2.82 4.51,5.57 0.54,2.42 -0.14,5.17 0.24,7.67 0.84,5.6 2.54,11.13 3.41,16.73 3.59,23.11 5.68,46.45 10.48,69.38 5.76,0.83 12.17,1.91 18.04,0.61 5.82,1.74 16.86,-0.65 21.76,1.33 4.9,1.98 5.28,11.03 3.78,15.28 6.18,-0.88 8.68,3.13 12.71,5.64 7,4.38 12.06,4.79 17.81,12.41 13.65,18.08 -0.48,54.31 3.47,77.11 0.42,2.41 2.45,4.69 2.7,6.71 0.21,1.7 -0.84,3.72 -0.72,3.88 0.13,0.17 2.86,0.79 3.98,1.43 6.9,3.92 18.81,12.13 22.97,18.75 3.46,5.51 1.34,16.54 -5.34,18.34 -1.57,0.42 -4.27,0.06 -5.11,0.64 -1.28,0.87 -0.07,5.69 -2.99,7.08 -0.91,0.43 -9.36,1.26 -10.96,1.27 -1.3,0 -2.77,-0.76 -4.32,-0.78 -8.56,-0.11 -17.04,-0.53 -25.58,-0.69 0.13,5.27 0.75,20.92 -8,19.06 -1.15,-0.24 -4.23,-3.39 -4.23,-4.31 v -15.47 c -3.32,-0.9 -8.67,-0.09 -11.56,-1.03 -4.08,-1.34 -4.78,-10.66 -5.02,-14.4 -1.02,-15.91 0.77,-32.71 0.75,-48.6 L 84.35,235.3 c 0.1,6.12 0.03,12.96 0.78,19.01 0.54,4.34 3.38,6.08 0.8,11 -4.82,9.18 -19.03,6.12 -17.24,-5.01 0.34,-2.15 2.35,-4.55 2.5,-6.02 0.64,-6.14 -1.76,-16.9 -1.98,-23.62 -0.88,-27.09 1.28,-53.38 -2.22,-80.51 C 63.7,124.6 58.34,99.12 54.25,73.68 53.3,67.77 50.81,38.17 47.62,35.71 44.91,33.62 42.32,36.08 39.38,36.09 31.52,36.12 20.82,33.95 13.47,34.01 9.2,34.05 6.48,38.11 2.3,34.26 -1.09,31.14 -0.2,22.97 1.47,18.98 c 1.67,-3.99 4.24,-4.82 8.42,-5.25 9.12,-0.92 35.67,3.26 44.23,6.84 3.24,1.35 5.49,3.46 7.01,6.66 1.6,3.38 4.5,19.56 5.3,20.24 0.84,0.72 5.94,-1.43 8.91,2.97 0.88,1.31 0.61,3.25 1.81,3.57 2.12,-12.57 4.62,-24.57 15.61,-32.24 1.47,-1.03 5.68,-3.55 7.26,-4.25 4.52,-2.02 10.27,-1.12 11.52,-7.19 0.29,-1.39 -0.08,-4.76 0.25,-5.19 0.22,-0.29 1.21,0.07 1.36,-0.05 z M 42.56,22.44 C 35.54,22.01 28.37,20 21.4,19.5 18.45,19.29 11.04,19 8.45,19.48 5.47,20.04 4.55,30.04 6.39,30.33 c 1.37,0.21 5.09,-1.48 7.11,-1.48 2.38,0 5.23,1.34 7.89,1.45 4.07,0.17 16.91,0.73 20.05,0 1.48,-0.35 1.34,-6.47 1.12,-7.87 z m 61.08,-0.6 c -10.16,2.07 -14.18,8.89 -17.44,17.81 -3.26,8.92 -4.36,16.27 1.46,24.39 7.23,10.09 24.87,8.38 30.17,-2.83 5.82,-12.31 6.69,-43.63 -14.19,-39.37 z m -55.25,4.12 c -2.48,6.32 0.09,4.13 2.87,6.12 3.66,2.63 5.03,16.48 5.76,21.21 3.75,24.07 7.19,48.13 10.89,72.21 1.53,9.99 3.9,19.88 4.95,29.95 0.18,0.19 3.39,-2.79 3.65,-3.22 0.44,-0.7 -0.65,-11.05 -0.87,-12.88 C 73.76,124.13 70.24,108.99 67.9,93.85 65.56,78.71 64.67,63.87 61.34,48.97 60.42,44.87 59.53,38.92 57.74,35.3 57.3,29.77 54.78,24.21 48.43,24.58 c -0.24,0.43 0.06,1.08 -0.05,1.37 z m 63.32,47.48 C 104.27,76.39 91.02,75.8 85.79,68.78 L 81.5,62.65 c -0.7,11.48 2.84,22.83 3.58,34.18 0.43,6.57 -0.44,13.57 0.01,20.13 0.47,6.88 2.52,13.72 3.62,20.5 0.4,0.28 8.13,-1.32 9.69,-1.42 13.26,-0.85 26.64,-0.98 39.93,-1.45 7.44,-0.26 14.85,-0.96 22.31,-0.72 -0.57,-8.25 -2.42,-16.44 -3.8,-24.63 -2.41,-14.29 -4.03,-28.86 -6.38,-43.27 -0.61,-3.75 -2.62,-16.53 -3.89,-19.13 -0.67,-1.36 -11.93,-8.79 -14.34,-10.84 -1.04,-0.89 -7.43,-8.09 -8.29,-7.17 3.75,12.85 2.36,38.82 -12.24,44.6 z M 82.2,149.69 c -0.26,-2.14 1.63,-3.8 2.01,-5.55 1,-4.62 -2.59,-17.3 -3.33,-22.97 -2.56,-19.53 -3.69,-40.2 -7.4,-59.51 -0.58,-3.02 -1.33,-10.81 -5.27,-9.8 l 14,97.82 z m 8.01,-7.11 c -0.43,0.51 -0.12,3.42 0.28,4.24 1.3,2.69 4.96,0.73 7.17,0.68 9.04,-0.19 17.79,0.85 26.68,0.78 18.38,-0.15 36.85,-2.51 55.4,-1.5 3.64,0.2 22.83,3.5 24.12,2.59 1.29,-0.91 1.01,-7.33 -0.34,-8.39 -0.67,-0.53 -7.29,-1.36 -8.67,-1.39 -12.28,-0.33 -26.42,1.33 -38.86,1.5 -12.75,0.17 -25.57,-0.65 -38.17,-0.74 -3.43,-0.02 -26.48,0.88 -27.61,2.23 z m 117.2,13.59 c -27.6,-5.95 -49.76,-3.58 -77.32,-2.85 -13.33,0.35 -27.13,-1.77 -40.24,0.06 -16.34,2.28 -15.57,9.73 -15.55,24.38 0.87,-0.88 4.14,-0.57 4.31,-0.73 0.51,-0.47 -0.98,-8.98 2.87,-13.31 5.58,-6.28 23.26,-4.78 31.34,-4.7 14.44,0.13 28.72,1.47 43.14,2.19 13.64,0.68 28.9,0.23 42.24,2.38 4.64,0.75 12.93,1.99 14.48,7.1 1.55,5.11 -1.7,11.21 6.95,7.8 0.37,-0.15 1.3,0.43 1.47,-0.45 0.39,-5.63 -0.64,-17.42 -6.31,-20.25 -2.29,-1.14 -4.99,-1.08 -7.39,-1.6 z m 0.72,23.03 c -0.13,-2.38 0.7,-6.65 -1.48,-8.24 -1.82,-1.33 -12.68,-3.02 -15.45,-3.26 -24.72,-2.11 -52.22,-3.23 -76.95,-3.64 -7.32,-0.12 -14.67,0.15 -21.98,0.03 -0.37,4.45 0.48,8.8 1.86,12.99 7.72,-0.44 15.24,-0.59 22.96,-0.03 17.95,1.29 35.91,2.87 53.94,2.9 12.38,0.02 24.7,-1.21 37.09,-0.75 z m 32.38,75.53 c 0.36,-2.59 -1.49,-4.58 -1.98,-7.01 -1.78,-8.8 -0.85,-20.27 -0.17,-29.31 1.44,-19.26 9.77,-44.09 -12.95,-54.32 1.52,9.11 1.84,18.45 1.46,27.72 -0.77,19.3 -1.82,36.14 -0.74,55.36 0.23,4.17 -0.18,8.42 0,12.59 4.72,-1.88 8.92,-5.71 14.39,-5.04 z m -151.83,-77.7 -1.79,-11.5 c -4.07,2.65 -2.13,7.39 -2.53,11.51 h 4.32 z m 128.08,7.2 c -15.79,-0.46 -31.4,0.81 -47.16,0.75 -25.04,-0.1 -50,-3.23 -74.76,-2.88 -6.7,0.1 -13.75,-1.13 -20.55,-0.76 -0.92,10.89 -1.38,22.12 0.13,32.96 5.23,1.4 12.02,-0.46 17.48,-0.62 40.15,-1.17 83.2,-0.24 123.43,0.75 1.59,0.04 3.46,0.44 5.03,0.72 -0.35,-10.36 0.53,-20.66 1.45,-30.94 -1.67,-0.04 -3.37,0.05 -5.04,0 z m -10.07,35.25 c -7.3,-0.71 -14.61,-0.55 -21.94,-0.72 -24.77,-0.6 -49.86,1.06 -74.87,0.76 -5.51,-0.07 -12.2,-1.27 -17.84,-1.2 -2.59,0.03 -5.62,0.9 -8.4,0.44 v 5.04 c 4.98,-1.15 11.01,-0.89 16.22,-0.75 32.77,0.87 65.15,-1.11 97.86,0 2.86,0.1 5.89,1.33 8.97,0.75 z m 10.79,0.72 c -1.68,-0.2 -3.32,-0.07 -5.03,-0.72 -1.03,4.52 -0.38,8.7 -6.11,9.37 -40.91,-3.38 -82.29,2.05 -123.08,-0.71 -0.94,-0.06 -4.49,-0.45 -4.69,-1.19 -0.25,-4.58 2.03,-8.74 -4.27,-8.19 l 1.44,35.97 4.36,-1.16 -0.77,-22.58 c 21.04,-0.26 41.97,0.33 62.96,0.73 21.34,0.41 43.46,-0.31 64.78,2.14 6.02,0.69 3.79,5.6 4.7,6.45 0.24,0.22 2.74,0 3.57,0.03 1.43,0.05 2.89,-0.03 4.32,0 l 0.72,-20.15 c -0.94,-0.08 -1.94,0.11 -2.88,0 z m -22.3,21.59 c -1.33,3.22 -0.71,7.86 -0.72,11.51 -0.02,11.21 -0.92,24.69 0.01,35.6 0.15,1.7 0.9,7.2 2.14,7.93 0.78,0.46 9.04,0.69 9.37,0.35 0.1,-0.1 0.09,-2.76 0,-2.86 -0.27,-0.27 -6.16,-0.02 -7.2,-1.98 -1.36,-2.57 -1.62,-9.1 -1.45,-12.09 0.15,-2.71 2.33,-9.42 2.21,-10.7 -0.04,-0.47 -1.9,-1 -2.6,-1.8 -2.68,-3.09 -1.68,-10.36 -1.75,-14.45 0,-0.19 0.71,-2 0.72,-3.6 0.23,-3.64 0.61,-7.47 2.16,-10.78 l -2.87,-0.73 c -0.04,1.19 0.03,2.4 0,3.6 z m 5.75,23.02 v -14.03 c 0,-0.81 1.34,-5.87 1.86,-6.77 1.3,-2.29 5.13,-2.74 3.49,-5.11 -1.08,0.16 -2.46,-0.25 -3.43,-0.02 -2.31,0.54 -3.63,20.22 -3.29,23.35 0.08,0.7 0.31,2.71 1.37,2.58 z m 18.71,-18.71 c -1.92,-1.22 -11.42,-1.48 -12.57,0.74 -1.35,2.59 -1.63,22.25 -0.32,23.66 2.73,0.91 6,0.39 8.57,0.78 0.5,0.08 2,0.53 2.88,0.72 0.64,0.14 1.59,1.26 2.88,0.72 -0.7,-7.59 0.94,-16.76 0.04,-24.15 -0.2,-1.66 -0.18,-1.65 -1.48,-2.47 z M 76.25,258.49 c -2.82,0.83 -4.17,5.53 -0.93,7.11 6.79,3.31 10.19,-9.84 0.93,-7.11 z m 164.98,5.6 c 1.02,-0.81 1.8,-1.57 2.16,-2.87 -5.93,-2.7 -10.68,-0.16 -15.1,3.95 1.08,0.66 3.02,0.38 4.31,0.36 2.4,1.81 6.37,0.36 8.63,-1.44 z m 26.62,23.02 c 1.12,-3 1.96,-4.59 0,-7.56 -4.77,-7.23 -13.18,-10.96 -19.79,-16.18 -5.11,9.24 -12.9,7.76 -21.94,7.19 0.95,2.58 -1.15,4.84 -1.44,6.48 -1.87,1.44 -6.48,-0.43 -6.48,2.52 v 10.43 c 1.32,0.33 2.54,0.65 3.92,0.75 9.87,0.78 25.51,1.31 35.28,0.68 1.76,-0.11 7.65,-0.69 8.84,-1.19 1.48,-0.61 1.15,-1.91 1.6,-3.12 z m -57.56,-8.27 c -1.14,8.89 0.84,20 0,29.14 0.7,-0.12 2.65,0.19 2.86,-0.01 0.86,-0.85 0.96,-21.22 0.77,-24.12 -0.07,-1.15 -0.49,-7.26 -0.75,-7.53 -1.32,-1.33 -2.72,1.29 -2.88,2.52 z m -7.92,9.71 c 0.11,0.27 -0.25,1.08 0.08,1.33 0.57,0.44 2.59,-0.02 3.52,0.1 0.04,-0.48 -0.03,-0.96 0,-1.44 0.18,-3.81 -0.13,-7.7 0,-11.51 -1.02,0.11 -2.24,-0.18 -3.19,-0.03 -1.24,0.2 -1.21,9.56 -0.41,11.54 z m 53.97,7.92 c -11.98,0.28 -23.77,-1.77 -35.77,-1.91 -2.32,-0.03 -3.44,2.22 -2.37,3.33 1.07,1.11 24.12,0.71 27.73,0.7 3.27,0 6.88,0.59 10.41,0.03 z m -43.9,17.26 h -1.43 v 2.87 h 1.43 z"
       id="path8" />
    <path
       class="cls-19"
       d="m 216.76,184.23 c 0.56,0.03 1.41,0.2 1.41,0.55 0.02,3.53 -0.71,27.6 -1.38,28.89 l -1.48,0.78 c -40.23,-0.99 -83.27,-1.92 -123.43,-0.75 -5.45,0.16 -12.24,2.02 -17.48,0.62 -1.5,-10.84 -1.04,-22.07 -0.13,-32.96 6.8,-0.37 13.85,0.85 20.55,0.76 24.77,-0.36 49.72,2.78 74.76,2.88 15.76,0.06 31.37,-1.21 47.16,-0.75 z"
       id="path10" />
    <path
       class="cls-12"
       d="m 208.13,179.2 c -12.39,-0.46 -24.71,0.77 -37.09,0.75 -18.04,-0.04 -35.99,-1.61 -53.94,-2.9 -7.72,-0.55 -15.24,-0.4 -22.96,0.03 -1.38,-4.19 -2.23,-8.54 -1.86,-12.99 7.31,0.13 14.66,-0.15 21.98,-0.03 24.73,0.41 52.23,1.52 76.95,3.64 2.77,0.24 13.63,1.93 15.45,3.26 2.18,1.6 1.34,5.86 1.48,8.24 z"
       id="path12" />
    <path
       class="cls-19"
       d="m 207.41,156.17 c 4.87,2.53 8.59,5.72 9.72,11.8 -0.25,4.13 0.59,7.63 2.51,10.51 -8.65,3.42 -5.39,-2.68 -6.95,-7.8 -1.56,-5.12 -9.84,-6.35 -14.48,-7.1 -13.33,-2.15 -28.6,-1.7 -42.24,-2.38 -14.43,-0.72 -28.7,-2.05 -43.14,-2.19 -8.08,-0.07 -25.76,-1.58 -31.34,4.7 -3.85,4.33 -2.36,12.84 -2.87,13.31 -0.17,0.16 -3.44,-0.16 -4.31,0.73 -0.02,-14.65 -0.79,-22.1 15.55,-24.38 13.1,-1.83 26.9,0.3 40.24,-0.06 27.56,-0.73 49.72,-3.1 77.32,2.85 z"
       id="path14" />
    <path
       class="cls-23"
       d="m 240.51,254.73 c -5.48,-0.67 -9.67,3.15 -14.39,5.04 -0.18,-4.17 0.23,-8.42 0,-12.59 -1.08,-19.22 -0.03,-36.06 0.74,-55.36 0.37,-9.27 0.05,-18.61 -1.46,-27.72 22.73,10.23 14.4,35.06 12.95,54.32 -0.68,9.04 -1.61,20.51 0.17,29.31 0.49,2.43 2.35,4.42 1.98,7.01 z"
       id="path16" />
    <path
       class="cls-16"
       d="m 90.21,142.58 c 1.13,-1.34 24.18,-2.25 27.61,-2.23 12.6,0.09 25.42,0.91 38.17,0.74 12.44,-0.17 26.58,-1.82 38.86,-1.5 1.39,0.04 8,0.87 8.67,1.39 1.35,1.06 1.62,7.49 0.34,8.39 -1.28,0.9 -20.48,-2.39 -24.12,-2.59 -18.55,-1.01 -37.02,1.35 -55.4,1.5 -8.9,0.07 -17.64,-0.97 -26.68,-0.78 -2.21,0.05 -5.87,2.01 -7.17,-0.68 -0.4,-0.83 -0.7,-3.74 -0.28,-4.24 z"
       id="path18" />
    <path
       class="cls-19"
       d="m 215.33,240.35 c -0.83,-0.03 -3.33,0.19 -3.57,-0.03 -0.9,-0.86 1.32,-5.76 -4.7,-6.45 -21.31,-2.45 -43.43,-1.73 -64.78,-2.14 -20.99,-0.4 -41.91,-0.99 -62.96,-0.73 l 0.77,22.58 -4.36,1.16 -1.44,-35.97 c 6.3,-0.55 4.02,3.61 4.27,8.19 0.2,0.74 3.76,1.13 4.69,1.19 40.79,2.76 82.17,-2.68 123.08,0.71 5.73,-0.67 5.07,-4.85 6.11,-9.37 1.71,0.66 3.35,0.53 5.03,0.72 l 0.83,1.97 c -1.36,5.41 -1.88,10.93 -1.55,16.55 l -1.44,1.62 z"
       id="path20" />
    <path
       class="cls-2"
       d="m 267.85,287.11 -1.52,1.08 c -11.37,0.09 -22.73,-0.39 -34.08,-1.46 -4.76,-0.41 -12.45,-5.84 -7.57,-9.7 0.28,-1.64 2.39,-3.9 1.44,-6.48 9.04,0.57 16.83,2.05 21.94,-7.19 6.61,5.21 15.02,8.94 19.79,16.18 1.96,2.97 1.11,4.56 0,7.56 z"
       id="path22" />
    <path
       class="cls-16"
       d="m 61.35,48.98 c 3.33,14.9 4.23,29.86 6.56,44.88 2.33,15.02 5.87,30.28 7.74,45.5 0.23,1.83 1.31,12.18 0.87,12.88 -0.27,0.43 -3.47,3.4 -3.65,3.22 -1.05,-10.07 -3.42,-19.96 -4.95,-29.95 -3.7,-24.08 -7.13,-48.14 -10.89,-72.21 -0.06,-2.22 2.41,-3.62 4.32,-4.32 z"
       id="path24" />
    <path
       class="cls-16"
       d="m 206.69,219.48 v 4.32 c -3.08,0.57 -6.11,-0.66 -8.97,-0.75 -32.7,-1.11 -65.09,0.87 -97.86,0 -5.21,-0.14 -11.24,-0.4 -16.21,0.75 v -5.04 c 2.77,0.46 5.8,-0.41 8.39,-0.44 5.64,-0.07 12.33,1.13 17.84,1.2 25,0.3 50.1,-1.35 74.87,-0.76 7.33,0.18 14.64,0.01 21.94,0.72 z"
       id="path26" />
    <path
       class="cls-16"
       d="m 82.2,149.69 -14,-97.82 c 3.94,-1.01 4.69,6.77 5.27,9.8 3.71,19.31 4.84,39.98 7.4,59.51 0.74,5.66 4.33,18.34 3.33,22.97 -0.38,1.75 -2.26,3.4 -2.01,5.55 z"
       id="path28" />
    <path
       class="cls-16"
       d="m 42.56,22.44 c 0.23,1.4 0.37,7.52 -1.12,7.87 -3.14,0.73 -15.98,0.17 -20.05,0 -2.66,-0.11 -5.51,-1.45 -7.89,-1.45 -2.01,0 -5.73,1.69 -7.11,1.48 -1.84,-0.29 -0.92,-10.29 2.06,-10.85 2.58,-0.48 10,-0.19 12.95,0.02 6.97,0.5 14.14,2.51 21.16,2.94 z"
       id="path30" />
    <path
       class="cls-26"
       d="m 267.85,287.11 c -0.45,1.21 -0.13,2.51 -1.6,3.12 -1.19,0.5 -7.07,1.07 -8.84,1.19 -9.78,0.64 -25.42,0.1 -35.28,-0.68 -1.39,-0.11 -2.6,-0.42 -3.92,-0.75 v -10.43 c 0,-2.95 4.61,-1.08 6.48,-2.52 -0.98,5.71 3.41,7.24 7.89,8.3 8.1,1.9 16.74,1.08 24.81,1.02 3.49,-0.03 7.08,-0.3 10.47,0.75 z"
       id="path32" />
    <path
       class="cls-19"
       d="m 219.64,246.1 c -1.09,1.19 -2.29,2.27 -3.6,3.24 2.1,0.43 1.88,9.47 1.4,11.22 l -1.4,1.01 c 1.27,1.88 1.4,8.2 -0.72,9.71 -2.57,-0.39 -5.84,0.12 -8.57,-0.78 -1.31,-1.41 -1.03,-21.07 0.32,-23.66 1.16,-2.22 10.65,-1.96 12.57,-0.74 z"
       id="path34" />
    <path
       class="cls-7"
       d="m 216.76,184.23 c 1.67,0.05 3.37,-0.04 5.04,0 -0.92,10.28 -1.8,20.58 -1.45,30.94 -1.57,-0.28 -3.44,-0.68 -5.03,-0.72 z"
       id="path36" />
    <path
       class="cls-20"
       d="m 195.18,253.3 c 0.06,4.09 -0.94,11.36 1.75,14.45 0.69,0.8 2.56,1.32 2.6,1.8 0.11,1.28 -2.06,7.99 -2.21,10.7 -0.17,2.99 0.09,9.52 1.45,12.09 1.04,1.96 6.93,1.71 7.2,1.98 0.1,0.1 0.11,2.75 0,2.86 -0.32,0.34 -8.58,0.11 -9.37,-0.35 -1.24,-0.73 -1.99,-6.23 -2.14,-7.93 -0.93,-10.91 -0.03,-24.39 -0.01,-35.6 0.2,-0.63 0.44,-0.62 0.72,0 z"
       id="path38" />
    <path
       class="cls-21"
       d="m 207.41,156.17 c 2.4,0.52 5.1,0.46 7.39,1.6 5.67,2.83 6.7,14.62 6.31,20.25 -0.18,0.88 -1.1,0.31 -1.47,0.45 -4.53,0.33 -3.25,-6.69 -3.78,-9.53 -1.1,-5.82 -4.28,-9.84 -9.88,-11.71 l 1.43,-1.07 z"
       id="path40" />
    <path
       class="cls-20"
       d="m 256.34,296.47 v 2.15 c -3.53,0.56 -7.14,-0.04 -10.41,-0.03 -3.61,0.01 -26.66,0.41 -27.73,-0.7 -1.07,-1.11 0.05,-3.36 2.37,-3.33 12,0.13 23.78,2.19 35.77,1.91 z"
       id="path42" />
    <path
       class="cls-19"
       d="m 48.39,25.96 c 5.3,1.42 7.89,3.7 9.35,9.35 1.79,3.62 2.68,9.56 3.6,13.67 -0.11,2.37 -2.68,3.09 -4.32,4.32 -0.74,-4.73 -2.1,-18.58 -5.76,-21.21 -2.78,-2 -5.35,0.19 -2.87,-6.12 z"
       id="path44" />
    <path
       class="cls-5"
       d="m 210.29,278.84 c 0.16,-1.24 1.55,-3.85 2.88,-2.52 0.27,0.27 0.68,6.38 0.75,7.53 0.19,2.9 0.09,23.27 -0.77,24.12 -0.2,0.2 -2.15,-0.11 -2.86,0.01 0.84,-9.14 -1.14,-20.25 0,-29.14 z"
       id="path46" />
    <path
       class="cls-17"
       d="m 217.48,220.2 c 0.94,0.11 1.94,-0.09 2.88,0 l -0.72,20.15 c -1.43,-0.03 -2.89,0.05 -4.32,0 0.02,-6.72 -0.33,-13.84 2.16,-20.14 z"
       id="path48" />
    <path
       class="cls-25"
       d="m 219.64,246.1 c 0.96,7.57 0.78,17.34 -0.03,25.13 L 218.2,272 c -0.88,-0.19 -2.38,-0.64 -2.88,-0.72 0.14,-2.51 -0.2,-5.07 -0.03,-7.58 0.06,-0.93 0.75,-1.88 0.75,-2.13 v -12.23 c 0,-2.33 1.13,-4.03 3.6,-3.24 z"
       id="path50" />
    <path
       class="cls-20"
       d="m 219.64,246.1 c 1.3,0.83 1.27,0.82 1.48,2.47 0.9,7.39 -0.74,16.55 -0.04,24.15 -1.28,0.54 -2.24,-0.58 -2.88,-0.72 z"
       id="path52" />
    <path
       class="cls-11"
       d="m 76.25,258.49 c 9.26,-2.73 5.86,10.43 -0.93,7.11 -3.24,-1.58 -1.89,-6.28 0.93,-7.11 z"
       id="path54" />
    <path
       class="cls-9"
       d="m 232.59,265.53 c -1.29,0.03 -3.24,0.3 -4.31,-0.36 4.43,-4.11 9.18,-6.65 15.1,-3.95 -0.36,1.3 -1.13,2.06 -2.16,2.87 -2.68,1.23 -5.7,2.31 -8.63,1.44 z"
       id="path56" />
    <path
       class="cls-18"
       d="m 202.37,288.55 c -0.8,-1.98 -0.83,-11.34 0.41,-11.54 0.95,-0.15 2.17,0.14 3.19,0.03 -0.14,3.82 0.18,7.7 0,11.51 -0.17,1.13 -3.18,1.13 -3.6,0 z"
       id="path58" />
    <path
       class="cls-13"
       d="m 200.93,264.81 c -1.06,0.12 -1.3,-1.88 -1.37,-2.58 -0.34,-3.13 0.98,-22.81 3.29,-23.35 0.97,-0.23 2.36,0.18 3.43,0.02 1.65,2.37 -2.18,2.82 -3.49,5.11 -0.52,0.9 -1.86,5.96 -1.86,6.77 z"
       id="path60" />
    <path
       class="cls-28"
       d="m 88.68,177.03 h -4.32 c 0.4,-4.11 -1.54,-8.85 2.53,-11.5 z"
       id="path62" />
    <path
       class="cls-24"
       d="m 57.75,35.31 c -0.77,-1.55 -3.6,-5.19 -4.99,-6.16 -2.43,-1.68 -4.98,0.12 -4.36,-3.19 0.11,-0.29 -0.2,-0.94 0.05,-1.37 6.34,-0.37 8.86,5.19 9.31,10.72 z"
       id="path64" />
    <path
       class="cls-27"
       d="m 195.18,241.79 c 0.03,-1.2 -0.03,-2.4 0,-3.6 l 2.87,0.73 c -1.56,3.32 -1.93,7.14 -2.16,10.78 -0.42,-0.04 -0.75,-0.1 -0.77,-0.22 -0.47,-2.25 -0.21,-5.41 0.05,-7.7 z"
       id="path66" />
    <path
       class="cls-14"
       d="m 195.9,249.7 c 0,1.59 -0.72,3.41 -0.72,3.6 h -0.72 c 0,-3.66 -0.61,-8.29 0.72,-11.51 -0.08,2.82 0.72,6.19 0.72,7.91 z"
       id="path68" />
    <path
       class="cls-1"
       d="m 205.97,288.55 c -0.02,0.48 0.04,0.96 0,1.44 -0.94,-0.13 -2.95,0.34 -3.52,-0.1 -0.33,-0.25 0.03,-1.06 -0.08,-1.33 h 3.6 z"
       id="path70" />
    <rect
       class="cls-8"
       x="211.00999"
       y="313.73001"
       width="1.4299999"
       height="2.8699999"
       id="rect72" />
    <path
       class="cls-3"
       d="m 121.07,0.06 5.76,0.72 c 7.38,1.87 11.16,7.99 14.39,14.39 0.19,0.49 0.53,0.94 0.72,1.44 l -4.31,-1.44 c 0.21,1.78 -0.31,4.09 0,5.75 -1.38,1.3 -3.2,1.27 -5.48,-0.11 l -14.74,-8.03 -0.64,-1.94 c 0.16,-0.83 0.13,-3.01 -0.31,-3.64 -0.93,-1.34 -4.01,0.37 -3.29,-2.11 3.07,-2.47 1.42,-4.44 7.91,-5.04 z"
       id="path74" />
    <path
       class="cls-15"
       d="m 141.21,15.16 -5.74,-7.57 c -1.54,-1.82 -6.51,-6.38 -8.65,-6.82 9.65,1.75 11.07,5.93 14.39,14.39 z"
       id="path76" />
    <path
       class="cls-22"
       d="m 111.71,73.44 c 14.59,-5.78 15.98,-31.75 12.24,-44.6 0.86,-0.92 7.25,6.28 8.29,7.17 2.41,2.05 13.67,9.48 14.34,10.84 1.28,2.6 3.28,15.38 3.89,19.13 2.35,14.4 3.96,28.98 6.38,43.27 1.38,8.19 3.23,16.37 3.8,24.63 -7.46,-0.24 -14.87,0.46 -22.31,0.72 -3.41,-0.17 -6.82,-0.39 -10.24,-0.66 -12.52,-16.77 -16.37,-36.9 -17.54,-57.92 l 1.16,-2.57 z"
       id="path78" />
    <path
       class="cls-7"
       d="m 111.71,73.44 c 1.55,13.13 2.14,28.37 7.07,40.78 1.17,2.94 8.74,17.4 10.57,18.93 2.36,1.97 6.41,-0.53 8.99,1.44 -13.29,0.46 -26.67,0.6 -39.93,1.45 -1.57,0.1 -9.29,1.7 -9.69,1.42 -1.1,-6.78 -3.14,-13.62 -3.62,-20.5 C 84.65,110.4 85.51,103.4 85.09,96.83 84.35,85.48 80.8,74.14 81.51,62.65 l 4.29,6.13 c 5.23,7.02 18.47,7.61 25.92,4.66 z"
       id="path80" />
    <path
       class="cls-10"
       d="m 103.64,21.84 c 20.88,-4.26 20.01,27.05 14.19,39.37 -5.3,11.21 -22.94,12.93 -30.17,2.83 -5.82,-8.12 -4.67,-15.62 -1.46,-24.39 3.21,-8.77 7.29,-15.74 17.44,-17.81 z"
       id="path82" />
    <path
       class="cls-4"
       d="m 137.62,20.92 c 0.47,2.55 4.04,6.55 3.24,9.35 -4.44,-3.52 -8.9,-8.6 -13.8,-11.38 -2.01,-1.14 -11.07,-3.93 -11.45,-4.41 -0.95,-1.2 0.99,-2.88 1.14,-3.63 6.79,3.29 13.35,8.84 20.87,10.07 z"
       id="path84" />
  </g>
</svg>
