<?xml version="1.0" encoding="UTF-8" standalone="no"?>
<svg
   id="Layer_2"
   data-name="Layer 2"
   viewBox="0 0 44.729508 62.38272"
   version="1.1"
   sodipodi:docname="Human_09-hand_side.svg"
   width="44.729507"
   height="62.382721"
   xmlns:inkscape="http://www.inkscape.org/namespaces/inkscape"
   xmlns:sodipodi="http://sodipodi.sourceforge.net/DTD/sodipodi-0.dtd"
   xmlns="http://www.w3.org/2000/svg"
   xmlns:svg="http://www.w3.org/2000/svg">
  <sodipodi:namedview
     id="namedview22"
     pagecolor="#ffffff"
     bordercolor="#000000"
     borderopacity="0.25"
     inkscape:showpageshadow="2"
     inkscape:pageopacity="0.0"
     inkscape:pagecheckerboard="0"
     inkscape:deskcolor="#d1d1d1" />
  <defs
     id="defs4">
    <style
       id="style2">
      .cls-1 {
        fill: #907151;
      }

      .cls-2 {
        fill: #937353;
      }

      .cls-3 {
        fill: #927353;
      }

      .cls-4 {
        fill: #b28a63;
      }

      .cls-5 {
        fill: #70583f;
      }
    </style>
  </defs>
  <g
     id="Layer_1-2"
     data-name="Layer 1"
     transform="translate(2.3796093e-4,0.00245596)">
    <path
       d="m 27.47,0.49 c 0.61,0.06 1.56,-0.72 2.88,-0.4 2.01,0.48 6.62,4.07 7.9,5.8 4.3,5.79 2.83,15.43 3.68,22.22 0.73,5.85 4.71,15.07 1.67,20.52 -1.19,2.13 -11.89,10.85 -14.17,11.73 -3.86,1.49 -5.06,-1 -6.51,-0.74 -1.56,0.28 -3.96,2.79 -7.34,2.76 C 10.74,62.33 11.23,58.51 10.14,57.35 9.89,57.08 5.92,58.06 3.03,56.22 -0.22,54.14 -1.25,49.09 1.91,46.52 5.26,43.8 9.14,46.38 9.44,39.59 9.6,35.98 4.22,25.83 3.81,20.18 3.35,14.02 6.61,3.64 12.93,1.39 14.02,1 15.24,1.41 15.96,1.22 c 3.07,-0.72 2.83,4.55 0,4.32 -5.85,6.66 -6.48,10.95 -4.44,19.37 l 3.74,11.5 c 0.41,5.82 -0.73,14.61 -7.96,14.73 1.33,0.61 2.71,0.28 4.13,-0.99 l 1.63,0.72 c 2.82,-2.97 4.37,-6.94 4.64,-11.9 1.47,-2.6 5.44,-3.04 5.43,0.39 1.88,7.02 -1.04,15.12 -8.63,17.27 1.25,1.8 5.2,-1.03 6.81,-2.25 4.14,-3.14 4.22,-4.33 4.43,-9.59 -0.5,-4.9 0.74,-12.25 6.59,-7.34 -0.54,-3.05 2.53,-7.52 4.48,-3.84 1.18,-0.38 1.69,2.38 1.44,3.6 1.34,1.68 1.23,4.46 0.72,6.47 0.29,0.48 0.53,0.5 0.72,0 C 39.24,41.64 39,39.48 38.97,37.21 37.65,34.18 35.72,28.97 36.81,26.06 35.57,23.29 35.62,16.73 36.81,13.83 34.89,10.51 32.49,7.52 29.61,4.84 27.27,6 24.53,1.44 27.45,0.52 Z"
       id="path6" />
    <path
       class="cls-4"
       d="m 27.47,0.49 c -0.43,2.09 1.44,3.05 2.16,4.32 l 4.18,4.28 c 2.01,2.01 2.53,3.82 1.58,5.44 1.24,2.54 1.18,8.82 0,11.51 1.26,1 2.18,5.89 1.44,7.55 -1.61,-0.11 -2.52,-0.04 -2.88,1.79 -1.13,5.82 4.26,14.69 -2.87,18.35 -0.37,-3.48 2.35,-13.69 -0.31,-15.89 -5.28,-4.36 -3.53,12.01 -4.37,13.73 -0.71,1.47 -9.52,6.84 -11.5,6.47 -1.24,-0.23 -0.9,-0.56 -0.38,-1.44 7.64,-2.17 10.43,-10.15 8.63,-17.27 -5.93,-4.38 -5,7.22 -6.86,10.05 -0.84,1.28 -2.32,0.99 -3.21,1.46 l -1.07,-1.23 c 2.75,-4.13 4.2,-9.53 2.98,-14.42 -3.68,-9.72 -6.28,-20.93 0.97,-29.68 0.35,-1.5 1.38,-2.61 0,-4.32 5.93,-1.57 5.37,-1.35 11.51,-0.7 z"
       id="path8" />
    <path
       class="cls-2"
       d="m 13.08,50.85 c -2.19,1.16 -4.07,3.17 -6.74,1.35 -4.15,-2.82 3.5,-2.38 5.28,-3.89 1.19,-1 2.52,-5.75 2.71,-7.37 0.65,-5.37 -1.56,-6.71 -2.9,-11.11 -2.7,-8.84 -5.33,-18.96 4.52,-24.31 -2.09,8.8 -4.68,10.08 -2.39,20.02 1.87,8.12 4.4,10.11 1.78,19.3 l -2.27,6.01 z"
       id="path10" />
    <path
       class="cls-2"
       d="m 38.98,37.18 c -0.2,0.63 -0.44,0.62 -0.72,0 -0.36,-1.83 -1.34,-3.06 -1.44,-3.6 -0.32,-1.79 -1.44,-6.29 -1.44,-7.55 V 14.52 c 0,-3.31 -3.81,-5.34 -5.37,-7.6 -0.5,-0.72 -0.22,-1.81 -0.38,-2.11 3.86,0.81 7.2,5.22 7.2,8.99 v 12.23 c 0,1.96 1.72,8.27 2.16,11.15 z"
       id="path12" />
    <path
       class="cls-3"
       d="m 14.52,56.61 c 1.42,-2.4 4.38,-1.91 5.92,-4.51 1.64,-2.79 2.23,-9.36 2.72,-12.75 0.82,0.6 1.18,0.39 1.43,1.79 1.18,6.57 -2.81,15.07 -10.06,15.48 z"
       id="path14" />
    <path
       class="cls-1"
       d="m 39.7,43.66 c -0.2,0.63 -0.44,0.62 -0.72,0 -0.22,-2.11 -0.31,-4.39 -0.72,-6.47 h 0.72 c 0.03,0.2 0.63,0.81 0.75,1.75 0.18,1.45 -0.06,3.19 -0.03,4.72 z"
       id="path16" />
    <path
       class="cls-5"
       d="m 39.7,43.66 c 0,0.3 1.19,1.98 -0.36,2.89 -0.71,-0.01 -0.28,-2.12 -0.36,-2.89 z"
       id="path18" />
  </g>
</svg>
