<?xml version="1.0" encoding="UTF-8" standalone="no"?>
<svg
   id="Layer_2"
   data-name="Layer 2"
   viewBox="0 0 221.03856 397.68511"
   version="1.1"
   sodipodi:docname="Human_08-torso.svg"
   width="221.03856"
   height="397.68512"
   xmlns:inkscape="http://www.inkscape.org/namespaces/inkscape"
   xmlns:sodipodi="http://sodipodi.sourceforge.net/DTD/sodipodi-0.dtd"
   xmlns="http://www.w3.org/2000/svg"
   xmlns:svg="http://www.w3.org/2000/svg">
  <sodipodi:namedview
     id="namedview58"
     pagecolor="#ffffff"
     bordercolor="#000000"
     borderopacity="0.25"
     inkscape:showpageshadow="2"
     inkscape:pageopacity="0.0"
     inkscape:pagecheckerboard="0"
     inkscape:deskcolor="#d1d1d1" />
  <defs
     id="defs4">
    <style
       id="style2">
      .cls-1 {
        fill: #cab196;
      }

      .cls-2 {
        fill: #baa794;
      }

      .cls-3 {
        fill: #010101;
      }

      .cls-4 {
        fill: #080808;
      }

      .cls-5 {
        fill: #c4ab92;
      }

      .cls-6 {
        fill: #c9af95;
      }

      .cls-7 {
        fill: #282828;
      }

      .cls-8 {
        fill: #cbb196;
      }

      .cls-9 {
        fill: #cbcbcb;
      }

      .cls-10 {
        fill: #fdfdfc;
      }

      .cls-11 {
        fill: #1b1b1b;
      }

      .cls-12 {
        fill: #fefe7f;
      }

      .cls-13 {
        fill: #959595;
      }

      .cls-14 {
        fill: #e5ceb5;
      }
    </style>
  </defs>
  <g
     id="Layer_1-2"
     data-name="Layer 1"
     transform="translate(-0.00144318,-5.694278e-4)">
    <path
       class="cls-4"
       d="m 38.94,83.6 c 1.71,1.6 1.98,3.88 0.8,6.83 -9.21,22.07 -8.62,49.7 5.58,69.46 2.93,7.37 3.5,15.38 1.7,24.01 l 9.24,5.09 0.68,1.89 c 30.94,13.12 68.19,8.91 100.08,1.44 1.27,-1.9 3.51,-2.96 6.7,-3.16 -1.79,-9.95 -2.65,-23.46 1.44,-32.96 12.04,-19.27 17.99,-42.12 6.87,-63.16 -1.21,-2.89 -1.65,-6.2 1.55,-8 4.7,-0.7 5.53,3.51 7.2,7.2 18.52,40.86 -14.88,58.18 -9.3,92.48 0.47,2.87 3.48,4 5.34,6.15 6.26,7.19 16.26,15.13 19.41,23.78 0.66,1.82 1.09,3.8 1.1,5.74 l -2.11,-1.13 c -3.07,-6.26 -6.98,-13.34 -13.09,-16.46 15.93,18.24 18.82,41.21 21.14,65.06 0.78,8.05 1.64,16.9 1.79,24.94 l -1.26,2.47 c -0.86,-0.72 -1.48,-1.59 -1.85,-2.64 l -5.37,-36.62 c -1.97,-14.79 -6.58,-28.92 -12.5,-42.45 -14.33,11.95 -36.25,16.55 -54.77,18.42 -32.26,3.25 -72.87,-0.74 -98.38,-21.72 l -11.23,24.37 -1.66,0.16 v -0.72 l -1.11,-1.4 c 3.14,-7.9 5.36,-15.88 6.69,-23.94 -2.5,8.65 -6.04,16.62 -10.62,23.91 -0.63,0.91 -0.87,0.67 -0.72,-0.72 6.46,-23 14.25,-29.96 25.92,-48.96 0.81,-0.41 1.29,-1.13 1.44,-2.16 3.42,-18.94 -10,-26.8 -12.76,-44.48 -1.95,-12.46 -0.42,-40.43 6.28,-51.28 1.39,-2.25 3.52,-2.31 5.76,-1.44 z"
       id="path6" />
    <path
       class="cls-2"
       d="m 39.66,180.8 c -0.13,0.7 1.08,2.61 -1.44,2.16 0.44,-0.72 0.56,-1.67 1.44,-2.16 z"
       id="path8" />
    <path
       class="cls-9"
       d="m 51.9,195.92 c 10.83,5.27 26.3,7.47 38.16,9.37 -2.41,5.28 -3.62,12.3 -2.16,17.99 -15.14,-1.85 -29.74,-4.89 -43.2,-12.23 -1.26,-1.44 -1.11,-3.33 0.45,-5.69 1.26,-2.98 3.92,-8.56 6.75,-9.43 z"
       id="path10" />
    <path
       class="cls-9"
       d="m 160.62,198.08 c 1.21,1.21 2.13,2.97 2.78,5.26 l 6.75,9.12 -0.89,1.46 c -12.81,6.22 -26.42,7.88 -40.32,10.08 v -16.2 c 0,-0.54 -1.61,-3.81 -1.44,-3.95 11.14,-1.36 22.16,-3.46 33.12,-5.77 z"
       id="path12" />
    <path
       class="cls-12"
       d="m 101.58,206 c 0.36,1.56 0.48,3.24 0.36,5.04 0.07,-0.56 0.23,-1.38 0.63,-1.44 1.07,-0.15 11.49,-0.25 12.04,0 0.55,0.25 0.8,0.87 1.01,1.44 1.94,-1.62 2.67,0.35 3.24,2.27 0.05,4.4 1.49,6.28 4.32,5.65 -0.1,1.3 0.05,3.12 -0.91,4.14 -2.96,3.17 -24.04,3.24 -27.48,0.84 -1.72,-1.2 -1.36,-8.08 -1.13,-10.38 0.15,-1.43 1.42,-6.95 2.07,-7.86 1.12,-1.56 4.6,0.22 5.84,0.29 z"
       id="path14" />
    <path
       class="cls-13"
       d="m 51.9,195.92 c -2.35,5.04 -6.06,9.54 -7.2,15.12 -3.18,-1.73 -11.71,-6.05 -10.68,-10.25 0.32,-1.31 6.21,-10.18 7.59,-10.53 2.44,-0.62 8.07,4.58 10.29,5.66 z"
       id="path16" />
    <path
       class="cls-13"
       d="m 160.62,198.08 c 3.39,-0.71 6.71,-1.87 10.1,-2.52 l 10.05,11.52 c -3.79,2.33 -7.49,4.88 -11.52,6.84 -2.42,-5.5 -9.17,-9.13 -8.64,-15.84 z"
       id="path18" />
    <path
       class="cls-10"
       d="m 101.58,206 c 6.82,0.37 13.29,-1.07 20.06,-0.62 1.26,4.32 1.89,9.08 1.54,13.58 -0.48,1.97 -3.22,1.67 -4.15,0.54 -0.82,-0.99 -1.32,-8.46 -3.41,-8.46 h -13.68 c -1.66,0 -2.38,-3.93 -0.36,-5.04 z"
       id="path20" />
    <path
       class="cls-7"
       d="m 154.86,41.12 1.98,-0.81 c 7.43,2.46 17.57,6.2 24.38,9.82 1.76,0.94 5.16,2.93 5.32,4.67 -0.45,0.67 -0.47,13.42 -0.81,16.11 -0.76,6.05 -2.45,12.05 -3.53,18.07 -0.23,1.26 -0.09,2.51 -1.42,3.26 -1.66,-0.56 -2.94,-2.12 -3.83,-4.68 -1.38,-0.77 -2.5,-1.61 -3.37,-2.52 -1.78,1.09 -2.25,2.93 -2.67,4.82 1.1,7.87 1.93,15.87 1.56,23.84 -1.07,23.16 -11.14,37.18 -25.58,53.92 -1.17,1.24 -1.02,2.79 0.73,3.27 5.14,-2.1 10.37,-4.21 7.96,3.94 -0.27,5.26 -0.17,10.67 2.08,15.54 l -0.63,1.96 c -0.41,0.47 -0.84,0.92 -1.33,1.3 -0.49,0.38 -0.95,0.71 -1.45,0.82 -22.24,4.75 -44.79,8.1 -67.57,5.46 -6.16,-0.71 -24.89,-3.73 -28.57,-7.5 -0.44,-0.45 -0.81,-0.97 -1.15,-1.51 l -0.54,-1.61 c 1.98,-4.32 1.97,-9.17 -0.03,-14.56 0.61,-2.31 2.81,-2.71 6.6,-1.19 17.41,0.2 -2.13,-12.81 -7.57,-16.2 C 34.67,138.01 36.63,112.16 40.4,86.52 c 0.03,-1.15 -0.56,-2.19 -1.46,-2.9 -1.71,0.99 -3.63,1.47 -5.76,1.44 C 29.82,73.83 29.79,61.41 30.3,49.78 l 0.27,-1.99 c 2.41,-2.73 15,-5.13 19.01,-5.57 l 1.6,1.08 c 1.97,0.34 5.08,-0.84 6.95,-1.77 0.97,-1.98 2.6,-2.24 4.61,-1.31 7.61,14.41 18.29,23.85 31.42,32.75 10.97,7.43 15.28,7.14 26.62,-0.23 12.07,-7.85 23.34,-18.74 29,-32.21 0.89,-1.59 2.59,-1.38 5.09,0.61 z"
       id="path22" />
    <path
       class="cls-8"
       d="m 137.58,12.32 c 0.42,2 0.45,6.14 -1.44,7.2 -0.69,4.85 -6.99,8.51 -11.23,10.71 -10.54,5.47 -23.08,6.44 -33.86,1.13 C 86.88,29.31 80.43,23.49 78.54,19.52 77.35,18.87 76.99,17.4 77.44,15.1 76.59,13.65 76.47,12.48 77.1,11.6 c 0.21,-0.13 0.98,-2.27 2.2,-3.2 15.01,-11.46 46.08,-12.15 58.28,3.92 z"
       id="path24" />
    <path
       class="cls-4"
       d="m 155.58,35.36 c -1.43,1.7 -1.67,3.62 -0.72,5.76 -0.88,-0.32 -2.52,-0.34 -3.56,-0.71 -1.82,4.72 -4.64,9.56 -7.66,13.61 C 137.2,62.66 117.3,80.13 106.25,80.06 102.8,80.04 93.13,74.11 89.84,71.94 78.56,64.52 68.08,53.17 61.89,41.21 60.77,40.5 54.57,43.27 52.83,43.86 51.62,44.27 51,45.8 51.17,43.28 c 0.39,-1.6 2.32,-2.65 5.79,-3.16 0,-1.61 0,-3.2 -0.03,-4.76 1.08,-0.27 8.38,-3.07 9.36,-3.6 0.71,0.47 1.07,1.33 1.08,2.59 1.79,-0.23 3.35,-0.14 4.68,0.29 2.2,0.81 0.71,3.27 -1.44,2.16 0.34,1.26 -0.28,2.12 -1.85,2.57 2.08,4.16 5.1,7.14 9.05,8.95 l 1.07,-1.33 c 3.01,-0.03 14.23,0.88 14.94,3.79 1.5,6.05 -9.49,4.71 -12.41,1.86 -0.17,1.17 -0.85,1.33 -1.83,1.16 5.09,4.84 20.05,17.88 26.73,18.35 8.58,0.6 23.52,-13.96 28.95,-20.34 -2.64,0.84 -3.26,0.97 -5.61,0.11 -1.27,3.77 -8.99,0.28 -5.28,-3.71 1.49,-1.6 11.04,-4.36 12.48,-2.05 3.49,-1.07 5.36,-2.64 7.2,-5.76 -1.62,-1.41 0.16,-4.34 2.16,-3.6 -0.79,-1.14 -0.31,-1.99 1.44,-2.55 -0.94,-1.33 -0.94,-2.39 0,-3.21 2.95,0.55 5.5,3.16 7.92,4.32 z"
       id="path26" />
    <path
       d="m 155.58,35.36 c 7.13,3.41 16.28,5.53 23.74,9.02 2.46,1.15 8.92,3.87 9.38,6.48 0.75,4.23 -1.9,3.54 -2.16,3.94 -2.76,-0.4 -4.17,-2.63 -6.69,-3.75 -6.96,-3.07 -17.78,-7.32 -24.99,-9.93 -3.18,-1.75 -2.96,-5.12 0.72,-5.76 z"
       id="path28" />
    <path
       d="m 56.94,35.36 c 2.03,0.54 1.88,4.71 1.12,5.81 -0.38,0.54 -5.61,1.77 -6.88,2.11 -7.41,2.02 -14.61,1.5 -20.88,6.48 -7.52,-1.39 -1.59,-6.23 2.23,-8.21 8.3,-4.3 16.19,-4.17 24.41,-6.19 z"
       id="path30" />
    <path
       d="m 77.1,11.6 c 2.52,2.59 1.81,4.63 1.44,7.92 2.07,2.1 0.55,6.28 -0.51,8.79 -1,2.36 -3.21,6.99 -5.97,6.33 -3.35,2.22 -7.82,1.82 -5.76,-2.88 6.77,-3.67 3.42,-16.09 8.68,-19.79 0.68,-0.48 1.88,-0.21 2.12,-0.37 z"
       id="path32" />
    <path
       class="cls-3"
       d="m 137.58,12.32 c 4.95,-3.72 5.2,10.25 6.45,13.35 0.89,2.19 2.5,3.51 3.63,5.37 3.39,5.61 0.08,3.97 -1.44,5.76 -2.7,2.22 -6.39,-3.58 -7.8,-5.97 -1.84,-3.11 -4.4,-8.1 -2.28,-11.31 -0.15,-2.11 -0.37,-5.84 1.44,-7.2 z"
       id="path34" />
    <path
       class="cls-11"
       d="m 38.94,83.6 c 3.17,1.22 2.38,3.36 2.15,6.83 -1.71,24.83 -5.51,38.93 10.5,60.8 5.07,6.92 10.5,7.94 15.81,12.99 2.1,1.99 6.12,6.65 3.19,8.98 -3.94,3.13 -8.62,1.81 -12.92,0.4 0.82,5.89 3.85,12.26 -0.72,17.28 -3.97,-1.68 -7.4,-4.43 -11.51,-5.8 0.71,-5.68 1.48,-13.96 0.54,-19.59 -0.76,-4.52 -6.5,-11.89 -8.59,-16.61 -6.67,-15.04 -6.16,-34.87 -2.13,-50.62 1,-3.89 3.28,-7.74 4.09,-11.08 0.34,-1.4 0.52,-2.34 -0.4,-3.59 z"
       id="path36" />
    <path
       class="cls-11"
       d="m 173.58,85.04 c -3.26,3.76 1.4,10.31 2.89,14.75 5.34,15.92 3.1,30.23 -3.72,45.27 -2.68,5.91 -7.47,11.77 -8.35,18.29 -0.67,4.92 -0.75,16.48 -0.19,21.41 0.25,2.22 0.87,3.62 2.16,5.39 -3.18,0.43 -6.25,1.44 -9.36,2.17 -3.05,-5.63 -3.17,-11.37 -2.88,-17.63 0.05,-1.02 1.06,-3.48 0.71,-3.94 -1.82,-2.42 -6.38,4.12 -9.42,0.4 -2.47,-3.02 1.83,-5.62 3.25,-7.69 7.07,-10.29 14.9,-17.55 18.94,-30.02 4.71,-14.57 3.92,-28.63 1.88,-43.62 0.41,-2.3 1.6,-4.4 4.09,-4.77 z"
       id="path38" />
    <path
       class="cls-14"
       d="m 136.14,19.52 c 0.4,5.59 4.58,14.97 10.08,17.28 -0.14,0.16 -1.76,2.94 -2.16,3.6 -1.66,3.08 -3.8,4.84 -7.2,5.76 -2.58,0.56 -10.75,1.44 -11.9,3.58 -1.37,2.54 3.33,2.37 4.7,2.18 l 2.41,-0.13 c -3.25,7.26 -15.2,19.65 -23.67,20.15 -7.73,0.45 -22.09,-12.27 -27.51,-17.73 l 0.53,-1.57 c 2.35,0.25 13.85,2.89 10.7,-2.07 -0.81,-1.28 -12.27,-1.95 -14.3,-2.25 -3.93,-1.21 -9.09,-7.84 -7.2,-11.52 1.46,-1.15 1.13,-1.81 1.44,-2.16 4.51,-5.02 5.71,-8.3 6.48,-15.12 5.27,3.38 8.55,8.58 14.4,11.16 14.85,6.55 33.08,0.85 43.2,-11.16 z"
       id="path40" />
    <path
       class="cls-1"
       d="m 129.66,51.92 c 2.38,-0.33 6.54,-2.94 9.36,-1.8 -7.24,7.04 -22.11,23.5 -32.76,23.47 -2.8,0 -12.76,-6.28 -15.57,-8.25 C 88.38,63.72 77.89,54.88 77.11,53 c -0.89,-2.16 3.73,-0.41 4.31,-0.35 4.79,5.59 19.82,17.77 26.99,17.86 8.4,0.1 16.62,-11.18 21.61,-17.14 0.9,-1.08 2.09,-1.57 -0.36,-1.44 z"
       id="path42" />
    <path
       class="cls-6"
       d="m 70.62,36.8 c 1.3,4.15 4.24,8.34 7.2,11.52 -1.93,-0.29 -3.67,-0.05 -5.42,-1.42 -0.37,-0.29 -5.22,-7.15 -5.37,-7.59 -0.42,-1.2 2.47,-1.62 3.59,-2.51 z"
       id="path44" />
    <path
       class="cls-5"
       d="m 136.86,46.16 7.2,-5.76 c -0.7,1.16 -0.65,3.47 -2.2,4.64 -1.55,1.17 -3.45,0.78 -5,1.12 z"
       id="path46" />
    <path
       d="m 197.34,220.4 c 7.64,16.78 11.9,53.87 12.24,72.72 l 0.72,5.04 c 0.31,11.62 3.1,27.37 5.27,39.01 1.51,8.12 3.65,16.01 5.47,24.04 -7.67,11.66 -20.6,17.01 -33.41,21.19 -47.41,15.5 -91.12,21.72 -139.88,6.66 C 32.94,384.48 23.38,378.41 10.17,371.2 5.21,368.49 2.08,369.66 0.95,362.42 -0.59,352.5 0.17,331.74 0.33,320.95 c 0.43,-29.54 2.92,-56.44 10.53,-84.72 0.84,-1.14 1.56,-2.34 2.16,-3.6 3.18,-8.04 6.28,-16.12 9.13,-24.29 1.51,-2.11 3.01,-2.02 3.18,0.89 0.22,3.86 -5.89,19.47 -7.26,24.85 -12.41,41.68 -13.61,86.59 -10.66,129.44 17.29,10.17 35.1,18.03 55.2,22.66 46.42,10.7 89.99,3.18 132.91,-13.15 3.68,-1.4 7.47,-3 10.49,-5.42 1.72,-3.12 4.69,-5.48 8.91,-7.08 -0.71,-2.52 -1.5,-5.1 -2.37,-7.76 -4.75,-18.97 -7.41,-37.72 -8.73,-57.5 -1.88,-24.14 -2.51,-59.08 -14.51,-80.17 -1.55,-2.73 -8.4,-10.28 -8.56,-11.65 -0.79,-6.65 7.41,2.11 8.68,3.61 3.32,3.93 5.79,8.68 7.9,13.34 z"
       id="path48" />
    <path
       class="cls-11"
       d="m 18.06,234.8 12.6,-27.36 c 2.7,4.24 7.71,7.16 12.1,9.49 24.6,13.05 60.51,16.96 87.87,13.44 18.99,-2.44 38.03,-6.43 53.73,-17.9 11.81,20.4 13.54,43.85 17.17,66.72 0.85,5.33 1.46,10.94 2.28,16.08 0.72,21.66 4.28,42.46 10.68,62.39 -0.19,2.83 -14.66,11.9 -18.6,11.05 -1.38,-2.3 -2.08,-5.14 -2.09,-8.52 -4.01,-14.76 -6.93,-30.17 -7.77,-45.95 -0.52,-29.31 -3.66,-58.07 -9.44,-86.28 -36.7,12.59 -72.86,16.27 -110.57,6.35 C 57.22,232 46.69,229.11 39.84,223.47 25.82,271.21 19.69,322 26.29,371.29 l -1.75,0.29 c -0.67,0.2 -1.29,0.31 -1.77,0.1 C 18.33,369.69 11.71,366.51 7.68,364.02 6.11,363.05 6.04,344.41 6.1,341.56 6.12,306.28 6.83,269.14 18.06,234.78 Z"
       id="path50" />
    <path
       class="cls-4"
       d="m 18.06,234.8 c -8.26,32.81 -10.6,64.71 -10.77,98.25 -0.02,4.59 -0.71,28.38 0.83,30.48 5.61,2.3 11.1,5.2 16.41,8.07 l 2.61,-0.25 c 50.75,21.44 113.65,23.55 164.18,-1.95 l 4.57,-0.68 c 6.26,-3.23 12.5,-6.78 17.99,-11.21 -4.54,-8.5 -6.52,-19.3 -7.81,-28.85 -1.5,-11.11 -1.4,-22.28 -2.26,-33.38 2.64,16.53 4.43,34.92 8.13,51.27 1.04,4.61 1.91,10.11 4.71,13.9 -1.2,2.93 -6.35,3.65 -7.79,5.04 -1.01,0.98 -0.65,2.39 -2.63,3.85 -10.66,7.87 -59,19.88 -73.34,21.7 -33.78,4.26 -71.92,0.12 -102.87,-14.48 -7.35,-3.47 -14.63,-8.46 -22.34,-11.5 -1.43,-1.14 -1.74,-4.8 -1.9,-6.74 -1.67,-21.29 -0.53,-50.43 0.75,-72.02 1.02,-17.23 5.82,-36.02 11.51,-52.21 -0.06,0.23 0.06,0.49 0,0.72 z"
       id="path52" />
    <path
       class="cls-7"
       d="m 24.54,371.6 c 0.89,-1.09 0.32,-2.18 0.16,-3.34 -5.01,-36.26 -2.21,-75.38 5.23,-111.15 2.43,-11.66 5.57,-23.31 9.38,-34.56 11.14,6.26 24.42,9.99 36.92,12.76 21.79,4.84 46,4.33 67.84,-0.14 11.12,-2.28 21.98,-5.87 33.07,-8.26 2.94,8.48 4.44,17.46 5.72,26.34 4.25,29.54 2.69,60.75 8.22,89.7 1.65,8.66 5.31,16.71 4.83,25.77 -44,22.69 -86.61,25.17 -134.79,14.91 C 46.7,380.56 37.39,378.54 24.55,371.6 Z"
       id="path54" />
  </g>
</svg>
