<?xml version="1.0" encoding="UTF-8" standalone="no"?>
<svg
   id="Layer_2"
   data-name="Layer 2"
   viewBox="0 0 203.43367 359.45446"
   version="1.1"
   sodipodi:docname="Human_09-torso_back.svg"
   width="203.43367"
   height="359.45447"
   xmlns:inkscape="http://www.inkscape.org/namespaces/inkscape"
   xmlns:sodipodi="http://sodipodi.sourceforge.net/DTD/sodipodi-0.dtd"
   xmlns="http://www.w3.org/2000/svg"
   xmlns:svg="http://www.w3.org/2000/svg">
  <sodipodi:namedview
     id="namedview152"
     pagecolor="#ffffff"
     bordercolor="#000000"
     borderopacity="0.25"
     inkscape:showpageshadow="2"
     inkscape:pageopacity="0.0"
     inkscape:pagecheckerboard="0"
     inkscape:deskcolor="#d1d1d1" />
  <defs
     id="defs4">
    <style
       id="style2">
      .cls-1 {
        fill: #646464;
      }

      .cls-2 {
        fill: #313131;
      }

      .cls-3 {
        fill: #0c0b1e;
      }

      .cls-4 {
        fill: #150e49;
      }

      .cls-5 {
        fill: #2c2c2c;
      }

      .cls-6 {
        fill: #2a2a2a;
      }

      .cls-7 {
        fill: #8f8f8f;
      }

      .cls-8 {
        fill: #cdcdcd;
      }

      .cls-9 {
        fill: #3c3c3c;
      }

      .cls-10 {
        fill: #6e6e6e;
      }

      .cls-11 {
        fill: #05005a;
      }

      .cls-12 {
        fill: #090909;
      }

      .cls-13 {
        fill: #262626;
      }

      .cls-14 {
        fill: #8a88a4;
      }

      .cls-15 {
        fill: #927253;
      }

      .cls-16 {
        fill: #b28a63;
      }

      .cls-17 {
        fill: #6b6b46;
      }

      .cls-18 {
        fill: #282828;
      }

      .cls-19 {
        fill: #c8c8c8;
      }

      .cls-20 {
        fill: #656565;
      }

      .cls-21 {
        fill: #212121;
      }

      .cls-22 {
        fill: #939393;
      }

      .cls-23 {
        fill: #2b2b2b;
      }

      .cls-24 {
        fill: #868686;
      }

      .cls-25 {
        fill: #6d6d6d;
      }

      .cls-26 {
        fill: #937354;
      }

      .cls-27 {
        fill: #1b1b1b;
      }

      .cls-28 {
        fill: #191919;
      }

      .cls-29 {
        fill: #d6d6d6;
      }

      .cls-30 {
        fill: #7c7b7b;
      }

      .cls-31 {
        fill: #898992;
      }

      .cls-32 {
        fill: #696969;
      }

      .cls-33 {
        fill: #959595;
      }

      .cls-34 {
        fill: #292929;
      }

      .cls-35 {
        fill: #a38363;
      }

      .cls-36 {
        fill: #fefefe;
      }

      .cls-37 {
        fill: #070707;
      }

      .cls-38 {
        fill: #0d0c1f;
      }

      .cls-39 {
        fill: #787878;
      }

      .cls-40 {
        fill: #5c5c5c;
      }
    </style>
  </defs>
  <g
     id="Layer_1-2"
     data-name="Layer 1"
     transform="translate(-0.01589101,0.00442259)">
    <path
       class="cls-35"
       d="m 36.46,146.65 2.88,-2.88 c -0.31,1.91 -0.93,2.57 -2.88,2.88 z"
       id="path6" />
    <path
       d="m 110.57,4.2 c 0.15,-0.04 0.65,-1.93 2.43,-1.39 0.52,0.16 1.89,2.15 1.89,2.47 v 11.51 c 0,2.77 2.97,7.45 5.56,8.83 2.59,1.38 26.19,6.51 27.4,5.8 0.28,-0.16 2.63,-3.81 4.09,-4.91 10.36,-7.8 17.62,3.04 15.32,13.16 -0.36,1.57 -2.05,3.13 -2.73,4.83 l -0.72,4.32 c -0.47,8.2 0.71,6.59 3.03,12.43 2.7,6.8 1.18,25.94 1.28,34.33 l 0.72,4.32 c 0.07,4.58 0.63,8.99 0.75,13.28 0.27,9.7 -0.26,19.47 -0.03,29.17 11.7,-2.89 21.83,8.96 14.55,19.22 -2.62,3.69 -6.16,2.76 -6.57,3.15 -0.12,0.11 -0.78,3.01 -0.78,3.17 v 21.94 c 3.51,-1.34 4.79,-4.71 9.08,-5.01 10.38,-0.73 14.08,14.82 14.66,22.64 1.72,23.37 0.26,47.7 0.7,71.24 0.37,19.81 1.83,39.87 2.18,59.69 0.13,7.12 0.74,15.58 -6.43,19.45 -5.63,3.04 -15.06,1.85 -18.17,-4.21 -2.2,-4.28 -1.66,-14.41 -2.85,-16.21 -0.26,-0.39 -5.34,-1.31 -7.68,-4.92 -3.69,-5.7 -1.72,-10.72 -3.14,-15.56 -0.44,-1.5 -2.94,-2.45 -3.7,-4.94 -0.9,-2.96 -0.4,-6.82 -1.2,-9.96 -2.89,0.63 -6.8,1.27 -9.71,1.43 -8.3,0.47 -31.19,2.81 -37.55,0.15 -3.89,-1.63 -6.01,-5.23 -4.01,-9.33 1.06,-2.18 3.04,-1.07 4.5,-2.68 -2.69,-1.49 -4.2,-4.15 -4.34,-7.22 -0.08,-1.72 0.9,-3.76 0.64,-4.86 -0.26,-1.1 -2.33,-2.02 -2.72,-4.5 -0.61,-3.82 0.25,-8.84 -0.05,-12.9 -0.56,-7.76 -2.31,-15.54 -2.15,-23.39 -5.09,-1.21 -3.71,6.07 -3.59,9.71 0.24,6.82 3.13,23.4 0.9,28.96 -0.41,1.01 -1.93,1.84 -2.05,2.67 -0.29,2.03 1.24,5.93 -0.32,8.62 0.07,0.82 6.44,-0.1 6.43,6.43 -0.02,12.33 -8.32,7.95 -16.81,9.83 -10.46,-1.25 -23.37,0.66 -33.34,-1.97 -3.29,-0.87 -5.75,-2.55 -8.78,-3.8 1.35,2.97 0.73,12.07 -1.11,14.35 -0.79,0.98 -2.61,1.2 -3.07,2.68 -1.66,5.39 1.43,11.13 -2.7,18.16 -2.72,4.64 -7.07,4.08 -8.09,5.23 -0.74,0.84 -0.83,8.74 -4.47,13.15 -8.58,10.35 -19.3,4.55 -22.96,-6.5 C -1.72,326.41 0.61,290.1 0.53,268.63 0.45,246.3 -0.98,221.65 1.31,199.62 3.55,178.07 23.94,177.91 30.55,196.11 l 0.89,6.66 v -33.09 c 0,-0.4 -5.23,-0.92 -7.1,-3.34 -3,-3.88 -3,-14.3 1.08,-17.43 3.36,-2.58 7.53,-1.7 11.06,-2.25 1.35,-0.59 2.28,-1.53 2.88,-2.88 0.56,-3.42 -0.68,-6.59 -0.75,-9.68 -0.43,-19.4 -2.77,-46.87 0.96,-65.28 0.55,-2.71 2.09,-5.46 2.49,-7.57 C 42.53,58.77 41.84,45.01 41.45,42.05 41.12,39.61 39.52,37.33 39.33,34.78 38,16.81 68.72,21.9 56.62,38.74 62,36.21 76.05,33.18 78.01,27.4 80.44,20.23 76.35,11.26 79.63,4.74 c 0.71,-1.41 2.83,-1.2 3.61,0.19 0.6,-0.03 1.5,-0.05 1.65,0.35 0.93,2.51 0.98,13.11 0.57,16.04 l -1.5,0.87 c -0.8,2.02 0.14,3.09 2.16,2.16 -0.8,-2.04 3.2,-4.12 4.32,-2.16 l 0.61,-1.59 c 4.51,-0.57 9.04,-0.76 13.6,-0.58 l 0.9,1.45 c 0.67,-1.18 1.95,-1.77 3.82,-1.77 -0.66,-4.55 -0.48,-9.16 -0.29,-13.74 l 1.5,-1.77 z"
       id="path8" />
    <path
       class="cls-23"
       d="m 162.38,225.79 -2.18,1.09 c -15.35,-0.37 -30.79,0.47 -46.3,2.54 -18.94,-0.04 -37.56,0.09 -55.88,0.4 -8.48,-1.91 -6.01,-17.93 2.4,-18.33 l 13.47,-0.8 c 27.71,-0.77 55.31,-3.57 83.09,-2.86 6.69,3.41 5.6,11.47 5.41,17.97 z"
       id="path10" />
    <path
       class="cls-17"
       d="m 96.18,238.73 1.07,36.69 c -6.69,6.78 -32.54,8.41 -38.18,1.5 -1.99,-2.44 -0.26,-3.55 -0.28,-6.14 -0.02,-4.21 -0.05,-8.14 0,-12.23 0.08,-6.36 -0.13,-12.74 -0.04,-19.1 l 37.42,-0.72 z"
       id="path12" />
    <path
       class="cls-17"
       d="m 149.43,271.11 c -3.41,0.08 -5.9,3.16 -8.97,4.34 -7.83,3.03 -19.91,3.34 -27.75,0.36 l -3.59,-36.72 c -0.1,-1.57 0.07,-0.9 1.08,-1.06 10.72,-1.77 23.6,-1.18 34.58,-1.42 1.01,-0.02 4.65,-1.32 4.65,0.32 v 34.17 z"
       id="path14" />
    <path
       class="cls-28"
       d="m 17.75,187.66 1.02,1.4 c 0.23,7.98 0.13,15.99 -0.29,24.02 l 2.35,9.26 c -1.24,17.66 -1.91,35.56 -2.42,53.47 1.58,8.29 2.92,15.74 2.78,24.62 -1.73,16.96 -2.04,33.66 -0.94,50.09 l -1.06,1.9 c -1.78,0.58 -1.63,1.4 -1.75,1.39 -2.66,-0.11 -2.41,-2 -2.56,-2.11 q 0.7,-1.09 0,0 C 13.27,350.5 12,350.72 10.56,348.1 9.85,327.54 8.36,307 6.11,286.49 6.76,259.84 7.04,233.61 6.96,207.81 7.12,204.1 6.23,199.56 7.68,196.3 l 0.5,0.33 c 0.17,-2.96 0.88,-6.09 3.1,-8.24 2.02,-0.98 4.61,-1.37 6.48,-0.72 z"
       id="path16" />
    <path
       class="cls-28"
       d="m 189,193.41 c 0.26,6.45 0.19,13.04 -0.23,19.76 0.04,-6.61 0.36,-13.2 0.95,-19.76 2.56,1.11 1.17,0.62 2.16,2.16 2.34,15.96 2.78,31.93 1.3,47.94 2.82,23.47 3.22,47.37 1.19,71.7 0.76,12.95 0.31,25.51 -1.36,37.67 l -1.14,0.97 c -3.25,0.4 -5.56,-0.84 -7.2,-3.6 -2.5,-17.25 -3.03,-35.61 -2.32,-53.33 0.02,-0.58 0.28,-1.15 0.55,-1.75 0.27,-0.6 0.65,-1.19 1.04,-1.75 l 1.01,1.34 c 0.06,15.99 0.91,33.72 3.3,48.3 0.2,-0.63 0.44,-0.62 0.72,0 0.8,0.99 1.03,2.28 0.7,3.86 0.32,-9.45 0.8,-18.89 1.46,-28.32 -1.67,-0.06 -2.08,-3.54 -0.72,-4.32 -0.64,-3.47 -0.83,-6.99 -0.56,-10.58 l -0.88,2.66 c 0.42,1.94 0.18,3.14 -0.72,3.6 -1.73,-1.94 -1.95,-4.31 -1.92,-6.83 0.47,-21.93 -0.16,-43.78 -1.88,-65.56 l 0.25,35.51 c -0.18,3.7 -0.68,7.36 -1.49,10.98 2.1,7.53 -1.87,15.23 -2.39,2.6 l 0.6,-16.96 c 0.47,-6.09 -0.6,-11.07 -3.32,-16.27 -0.96,-15.56 -0.93,-31.25 0.08,-47.07 0.53,-2.76 2.63,-9.86 4.3,-11.89 2.35,-2.84 3.66,-1.79 6.49,-1.06 z"
       id="path18" />
    <path
       class="cls-28"
       d="m 73.88,210.68 c -5.62,1.65 -13.74,-0.73 -17.88,4.78 -1.83,2.44 -2.3,8.78 -0.72,11.29 2.05,3.25 10.74,1.2 13.89,1.16 14.77,-0.19 29.98,0.65 44.67,0.06 11.42,-0.46 23.05,-2.51 34.48,-2.94 4.68,-0.17 9.49,-0.16 14.06,0.75 -0.05,1.67 0.04,3.37 0,5.04 -7.78,0.22 -15.63,-0.29 -23.42,-0.03 -26.32,0.88 -58.36,5.93 -84.07,3.54 -2.48,-0.23 -5.06,-1.46 -7.65,-1.36 1.75,-5.59 -0.85,-13.55 2.86,-18.36 4.37,-5.67 17.17,-3.76 23.76,-3.94 z"
       id="path20" />
    <path
       class="cls-28"
       d="m 27.11,223.63 c -1.18,8.2 -1.18,16.11 0,23.74 0,2.95 0.61,6.96 -0.72,9.35 -1.1,8.2 -1.12,18.37 0,27.34 0.14,7.93 0.95,15.8 0.72,23.74 -0.4,0.54 -0.73,1.08 -0.78,1.65 -1.26,13.35 -2.03,27.9 -2.09,40.8 -0.71,0.77 -1.21,1.04 -2.16,1.44 -2.2,-1.75 -3.12,-4.62 -2.79,-8.62 0,-10.31 0.49,-20.61 1.48,-30.89 1.39,-14.35 0.21,-27.93 -2.19,-42.18 l 3.5,-66.5 c -0.97,-4.68 -0.98,-9.01 -0.01,-12.97 7.34,6.48 4.94,23.71 5.04,33.09 z"
       id="path22" />
    <path
       class="cls-33"
       d="m 42.94,188.38 c 0.93,21.65 0.25,47.53 0.03,69.4 -0.07,6.88 2.92,24.09 -7.23,22.69 0.13,-5.39 -0.17,-10.82 -0.03,-16.22 0.74,-28.84 0.34,-57.76 0.75,-86.66 -0.75,-2.12 5.39,-2.18 5.6,-1.86 0.18,4.26 0.47,8.48 0.88,12.65 z"
       id="path24" />
    <path
       class="cls-23"
       d="m 191.88,195.57 c 1.06,1.64 1.46,2.09 1.96,4.16 2.27,9.33 1.29,22.46 1.61,32.2 0.89,27.3 0.75,54.68 1.44,82.02 0.19,7.76 1.59,15.9 1.5,23.75 -0.03,2.24 -0.56,9.31 -1.08,11.14 -0.61,2.14 -3.12,4.72 -5.43,5.01 l 1.47,-21.19 c -1.43,-21.11 1.1,-42.2 1.44,-63.31 0.15,-9.22 -2.29,-15.4 -2.94,-23.75 -0.53,-6.82 0.73,-13.64 0.78,-20.14 0.07,-10.01 -0.74,-19.9 -0.75,-29.89 z"
       id="path26" />
    <path
       class="cls-23"
       d="m 22.07,190.53 c 1.07,7.22 1.94,14.63 1.47,21.97 -0.42,6.52 -2.54,13.52 -2.9,20.12 -0.58,10.59 -0.28,21.61 -0.72,32.38 -0.4,9.8 2.56,17.71 2.9,26.58 0.2,5.17 -0.44,13.3 -0.75,18.73 -0.78,13.69 -4.53,27.99 0,41.37 -1.2,0.51 -2.01,0.44 -2.88,0.72 -0.87,-3.9 -0.87,-7.92 -0.75,-11.9 0.48,-16.76 2.18,-35.82 0.78,-52.51 -0.34,-4.02 -2.3,-8.19 -2.24,-12.2 0.11,-8.76 1.28,-17.84 1.47,-26.59 0.16,-7.6 1.61,-16.11 1.52,-23.06 -0.06,-4.61 -2.56,-8.61 -2.92,-12.95 -0.3,-3.68 0.75,-6.6 0.75,-10.07 0,-4.86 -2.09,-10.68 -0.05,-15.47 1.76,0.61 2.96,1.68 4.32,2.88 z"
       id="path28" />
    <path
       class="cls-25"
       d="m 53.62,239.55 c 0.79,13.72 -1.63,27.57 -0.64,41.3 1.31,18.2 12.04,10.19 25.6,11.81 l 21.92,1.47 c -0.09,1.28 0.45,3.93 -0.68,4.72 -1.19,0.84 -25.65,0.49 -29.18,0.31 -3.05,-0.16 -7.68,-0.48 -10.61,-0.9 -4.71,-0.68 -8.65,-1.46 -9.2,-6.63 -1.14,-10.63 -0.22,-21.12 0.05,-31.64 0.18,-7.07 -0.2,-14.19 -0.02,-21.25 l 2.77,0.82 z"
       id="path30" />
    <path
       class="cls-23"
       d="m 178.21,206.36 c 1.19,0.75 0.72,2.73 0.73,3.95 0.09,8.16 -0.16,16.34 -0.04,24.5 0.07,4.77 -0.47,11.5 0.03,15.8 0.44,3.84 3.05,6.61 3.54,10.13 1.33,9.73 -0.87,21.95 0.07,31.95 1.26,0.17 0.67,-1.63 0.71,-2.5 0.09,-2.03 -0.02,-4.1 0,-6.13 3.08,0 3.31,8.74 0.72,9.35 -0.86,16.85 -0.13,30.35 0.69,47.15 0.15,2.99 1.94,6.86 0.03,9.68 -5.77,-9.69 -3.66,-36.01 -4.29,-47.87 -1.49,-28.24 -7.42,-68.97 -2.19,-96.01 z"
       id="path32" />
    <path
       class="cls-25"
       d="m 153.02,291.97 c 1.7,-5.21 0.75,-4.45 0.72,-9 -0.08,-15.14 0.89,-29.92 0.46,-45.13 -0.1,-3.42 2.79,-2.92 3.14,1.25 0.6,7.15 0.29,14.44 0.72,21.58 0.41,6.78 3.71,31.42 0.06,36.05 -0.48,0.6 -1.13,0.9 -1.89,0.99 -7.43,0.03 -14.87,0.35 -22.28,0.75 -3.46,0.19 -8.18,1.47 -11.52,1.49 -3.73,0.02 -12.75,-2.42 -5.07,-2.97 10.9,-0.78 20.67,-0.25 31.33,-3.56 1.91,0.43 2.87,-0.19 4.32,-1.44 z"
       id="path34" />
    <path
       class="cls-33"
       d="m 171.73,174.71 c 2.32,23.68 -0.63,49.63 -0.03,73.77 0.04,1.7 0.72,3.27 0.78,4.98 0.27,8.4 0.38,16.8 0.69,25.21 -3.31,1.5 -4.07,-3.3 -4.31,-5.76 -1.18,-11.84 -0.43,-24.73 -0.7,-36.71 -0.15,-6.93 -2.26,-22.56 -0.77,-28.6 0.17,-0.69 1.79,-0.89 2.5,-1.96 2.33,-3.48 -0.21,-14.44 -0.36,-19.02 -0.16,-4.88 -0.07,-9.91 0.03,-14.78 1.8,-3.26 2.34,0.48 2.16,2.88 z"
       id="path36" />
    <path
       class="cls-6"
       d="m 6.96,207.8 1.47,14.78 c -3.34,8.51 0.14,16.76 0.03,24.44 -0.21,14.05 -2.71,28.29 -1.52,42.46 0.31,3.64 1.8,7.14 2.17,10.78 1.43,14.05 1.52,28.39 2.88,42.44 0.1,1.07 0.93,6.04 -1.43,5.39 C 9.45,346.06 8.82,342.77 8.49,340.45 7.34,332.53 6.55,321.98 6.22,313.95 4.76,278.93 5.46,242.72 6.97,207.8 Z"
       id="path38" />
    <path
       class="cls-28"
       d="m 32.87,334.42 -0.72,-50.36 c 5.32,1.78 6.43,9.02 6.51,14 0.04,2.69 -0.77,4.89 -0.79,7.19 -0.05,6.3 1.32,22.45 -1.8,26.97 -0.4,0.57 -2.54,2.96 -3.2,2.19 z"
       id="path40" />
    <path
       class="cls-28"
       d="m 173.89,284.06 1.08,48.19 c -6.71,-4.17 -4.32,-13.67 -4.65,-20.52 -0.38,-7.78 -1.67,-17.32 -0.67,-25.1 0.41,-3.2 1.21,-2.71 4.24,-2.58 z"
       id="path42" />
    <path
       class="cls-38"
       d="m 147.26,277.59 c -0.34,1.97 0.66,6.46 -0.33,7.94 -1.96,2.96 -22.71,3.29 -26.65,2.85 -4.92,-0.54 -6.99,-1.92 -6.11,-7.2 8.07,2.45 19.49,1.8 27.5,-0.92 2.18,-0.74 3.5,-2.2 5.59,-2.68 z"
       id="path44" />
    <path
       class="cls-34"
       d="m 27.11,307.8 c 0.21,4.5 0.72,10.65 0.72,14.75 v 13.67 c 0,0.23 0.49,0.8 0.43,1.8 -0.2,3.12 -1.89,9.92 -4.03,12.23 -2.18,0.4 -1.38,-1.1 -1.44,-2.49 -0.68,-17.26 3.77,-34.84 2.89,-52.19 1.26,-0.17 0.68,1.63 0.71,2.51 0.11,2.65 -0.09,5.32 -0.03,7.98 -0.22,0.66 0.74,1.55 0.75,1.74 z"
       id="path46" />
    <path
       class="cls-6"
       d="m 189.72,193.41 c 0.45,17.33 1.05,34.57 -1.08,51.81 -1.79,-8.17 -2.02,-16.48 -1.83,-24.86 L 189,193.41 c 0.24,0.06 0.54,-0.08 0.72,0 z"
       id="path48" />
    <path
       class="cls-28"
       d="m 32.14,152.4 c 2.19,2.47 5.06,4.39 8.63,5.76 0.24,1.8 1.35,4.1 0.72,6.48 -5.09,-0.51 -12.77,1.84 -13.6,-4.75 -0.57,-4.54 -0.5,-6.98 4.25,-7.48 z"
       id="path50" />
    <path
       class="cls-3"
       d="m 96.18,282.63 c 0.12,8.21 -6.93,5.1 -11.84,5 -5.84,-0.12 -15.74,0.97 -20.88,0.01 -2.71,-0.51 -4.65,-4.77 -2.26,-4.23 3.11,0.71 5.92,2.34 9.52,2.72 8.95,0.94 17.06,-0.79 25.45,-3.5 z"
       id="path52" />
    <path
       class="cls-28"
       d="m 180.37,152.4 c 2.3,7.81 -4.74,8.08 -10.8,7.92 0.05,-2.39 -0.07,-4.81 0,-7.2 1.39,-2.59 8.55,-2.99 10.79,-0.72 z"
       id="path54" />
    <path
       class="cls-6"
       d="m 180.37,152.4 -0.42,0.55 c -3.64,-1.3 -6.75,0.11 -10.37,0.17 0.05,-1.67 -0.04,-3.37 0,-5.04 5.14,0.25 9.1,-1.45 10.8,4.32 z"
       id="path56" />
    <path
       class="cls-10"
       d="m 36.46,177.58 c 0.04,-2.63 -0.03,-5.29 0,-7.92 h 5.76 c 0,0 0.72,18.71 0.72,18.71 0,-0.09 -0.7,-0.81 -0.75,-1.74 -0.18,-3.23 0.2,-6.54 0.02,-9.77 z"
       id="path58" />
    <path
       class="cls-6"
       d="m 32.14,152.4 c 1.19,-0.13 7.36,-0.18 7.81,0.1 1.11,1.78 0.58,3.86 0.82,5.66 -0.47,1.28 -2.24,0.1 -3.05,-0.18 -3.11,-1.06 -5.66,-1.41 -5.58,-5.58 z"
       id="path60" />
    <path
       class="cls-34"
       d="m 26.39,256.72 c 0.12,9.1 -0.16,18.24 0,27.34 -3.13,-10.75 -0.58,-22.12 -0.71,-33.09 1.37,0.74 0.69,4.3 0.71,5.75 z"
       id="path62" />
    <path
       class="cls-34"
       d="m 27.11,247.37 c -1.64,-0.5 -1.4,-1.86 -1.48,-3.2 -0.38,-6.64 -0.02,-14.08 1.48,-20.54 0.08,7.9 0.03,15.84 0,23.74 z"
       id="path64" />
    <path
       class="cls-20"
       d="m 169.57,171.83 c 0.07,-3.5 -1.45,-7.61 2.87,-6.48 l -0.71,9.36 c -0.17,-1.69 0.1,-2.87 -2.16,-2.88 z"
       id="path66" />
    <path
       class="cls-13"
       d="m 11.28,188.38 -2.56,7.87 -0.32,3.64 c -1.33,0.02 -0.65,-2.65 -0.71,-3.59 -0.21,-3.38 -0.1,-6.13 3.6,-7.91 z"
       id="path68" />
    <rect
       class="cls-27"
       x="164.53999"
       y="287.66"
       width="0.72000003"
       height="19.42"
       id="rect70" />
    <path
       class="cls-24"
       d="m 42.22,290.54 c -0.32,-2.24 -0.61,-3.63 -1.44,-5.75 l 2.88,-0.72 c 0.03,2.63 -0.03,5.28 0,7.91 -0.39,0.84 -0.87,0.36 -1.44,-1.44 z"
       id="path72" />
    <path
       class="cls-28"
       d="m 163.82,256 c -0.2,0.63 -0.44,0.62 -0.72,0 -0.1,-3.65 -0.59,-7.16 -0.72,-10.79 0,-0.81 0.25,-1.29 0.72,-1.44 1.41,3.55 0.6,8.26 0.72,12.23 z"
       id="path74" />
    <path
       class="cls-2"
       d="m 163.82,271.83 c -0.2,0.63 -0.44,0.62 -0.72,0 -0.27,-5.24 0.14,-10.58 0,-15.83 h 0.72 c 0.15,5.15 -0.41,10.79 0,15.83 z"
       id="path76" />
    <path
       class="cls-40"
       d="m 43.65,291.97 c 0.05,3.8 0.17,7.72 0,11.51 -0.93,0.95 -1.1,0.55 -0.72,-0.72 0.14,-4.29 -0.11,-8.01 -0.72,-12.23 z"
       id="path78" />
    <path
       class="cls-39"
       d="m 165.98,282.62 c -0.51,1.19 -0.99,1.43 -1.44,0.72 -0.4,-2.65 -0.49,-5.25 -0.72,-7.91 0.2,-0.63 0.44,-0.62 0.72,0 0.45,2.93 1.8,4.9 1.44,7.19 z"
       id="path80" />
    <path
       class="cls-5"
       d="m 43.65,303.49 c -0.05,1.05 0.02,2.05 -0.09,3.11 -0.09,0.84 -0.31,3.97 -1.34,4.08 0.09,-2.04 -0.16,-4.12 -0.04,-6.17 0.06,-0.93 0.75,-1.65 0.75,-1.74 z"
       id="path82" />
    <path
       class="cls-1"
       d="m 163.1,243.77 -0.72,1.44 c -0.1,-2.86 0.07,-5.77 0,-8.63 l 0.71,7.19 z"
       id="path84" />
    <path
       class="cls-30"
       d="m 153.02,291.97 c -0.17,0.51 0.23,1.93 0,2.14 -0.23,0.21 -4.05,0.34 -4.31,-0.7 1.46,-0.45 2.84,-1.07 4.32,-1.44 z"
       id="path86" />
    <path
       class="cls-18"
       d="m 164.54,275.43 h -0.72 c -0.06,-0.73 -0.63,-1.9 -0.72,-3.6 h 0.72 c 0.04,0.49 0.55,2.51 0.72,3.6 z"
       id="path88" />
    <path
       class="cls-32"
       d="m 165.98,282.62 c -0.13,0.82 -0.94,3.78 -1.43,2.87 -0.08,-0.7 0.09,-1.48 0,-2.15 l 1.44,-0.72 z"
       id="path90" />
    <path
       class="cls-23"
       d="m 14.87,339.45 -1.42,-7.56 C 15.04,317.27 11,302.77 9.82,288.76 8.64,274.75 12.65,257 11.21,243.48 c -0.87,-8.14 -0.66,-11.51 -0.61,-19.47 0.07,-11 -3,-22.54 2.48,-32.78 0.85,0.02 0.38,15.24 0.39,16.94 0.07,7.37 2,11.89 2.16,17.94 0.12,4.46 -1.34,9.3 -1.51,13.66 -0.23,5.89 1.03,11.35 0.74,17.29 -0.29,6 -2.22,13.45 -2.15,19.43 0.05,4.35 2.51,8.71 2.9,12.92 0.5,5.23 -0.06,13 0,18.71 0.11,10.44 0.27,20.96 -0.76,31.32 z"
       id="path92" />
    <path
       class="cls-13"
       d="m 14.87,351.69 c -0.8,-0.45 -0.48,-3.03 0,-3.59 0.82,-0.94 2.64,5.09 0,3.59 z"
       id="path94" />
    <path
       class="cls-23"
       d="m 183.24,284.06 c 0.06,-7.31 0.08,-14.65 0.03,-21.97 -0.11,-17.91 -1.06,-42.16 0.69,-59.69 0.07,-0.75 1.44,-7.18 2.88,-5.39 l -2.18,33.48 c 5.61,26.23 1.24,53.04 3.62,79.46 2.09,5.15 1.57,10.36 0.97,15.76 0.24,5.94 -0.08,11.71 -0.97,17.33 -0.02,0.92 0.59,3.64 -0.71,3.59 -0.06,-9.09 -3.01,-18.1 -3.6,-26.98 -0.57,-8.55 0.41,-17.65 0,-26.25 0.14,-2.82 0.49,-7.06 -0.72,-9.35 z"
       id="path96" />
    <path
       class="cls-6"
       d="m 190.44,314.28 0.05,1.52 c -1.68,2.19 -1.68,-8.57 -1.49,-9.43 0.33,-16.85 1.32,-33.89 0.75,-50.75 -0.07,-2.21 -0.72,-4.2 -0.79,-6.41 -0.02,-0.81 -0.45,-2.73 0.75,-2.54 -0.2,4.79 1.83,9.3 2.19,14 1.28,16.38 -1.52,36.6 -1.46,53.62 z"
       id="path98" />
    <path
       class="cls-21"
       d="m 189,306.36 0.72,8.29 0.72,-0.37 c 0,0.52 0.71,2.55 0.72,4.32 -0.67,8.18 -1.09,16.35 -1.25,24.53 L 189,343.06 h -0.72 c 0.29,-11.35 1.02,-21.78 0,-33.09 1.15,-0.6 0.7,-2.44 0.72,-3.6 z"
       id="path100" />
    <path
       class="cls-34"
       d="m 191.16,318.59 c 0.08,9.5 -0.24,18.93 -0.73,28.41 l -1.42,6.12 c 0.09,-3.34 -0.14,-6.73 0,-10.07 0,-0.1 0.72,-0.81 0.75,-1.74 0.23,-7.47 -1.17,-15.71 1.41,-22.72 z"
       id="path102" />
    <path
       class="cls-16"
       d="m 107.69,2.76 0.6,1.91 c -2.37,4.7 -2.45,10.06 -1.58,15.16 l -1.18,1.63 c -4.1,-0.06 -11.29,-0.19 -15.11,0.72 -1.7,0.83 -1.94,0.39 -2.21,-1.3 L 88.09,4.79 C 86.97,4.58 86.7,3.96 86.82,2.76 c 7.81,-3.8 13.08,-3.57 20.87,0 z"
       id="path104" />
    <path
       class="cls-26"
       d="m 86.83,2.76 2.75,1.05 c -0.34,4.77 0.06,9.61 0.11,14.42 0.01,1.22 -0.46,3.2 0.73,3.95 -0.69,0.16 -3.35,1.67 -4.32,2.16 -2.7,1.49 -3,0.53 -2.16,-2.16 0.27,-2.96 0.4,-15.27 -0.72,-17.27 1.13,-1.15 2.26,-1.51 3.6,-2.16 z"
       id="path106" />
    <path
       class="cls-15"
       d="m 110.57,4.2 c -0.2,6.08 -0.68,11.98 0.71,17.99 -1.86,-1.04 -3.76,-0.69 -5.75,-0.72 -1.23,-6.56 -1.3,-12.81 2.16,-18.71 0.63,0.29 2.65,1.5 2.88,1.44 z"
       id="path108" />
    <path
       class="cls-31"
       d="m 168.85,99.89 c -1.21,-0.78 -0.7,-2.96 -0.72,-4.32 1.21,0.78 0.7,2.96 0.72,4.32 z"
       id="path110" />
    <path
       class="cls-14"
       d="m 163.82,48.81 c 0.12,-2.1 -0.09,-2.28 0.72,-4.32 -0.1,1.36 0.55,3.51 -0.72,4.32 z"
       id="path112" />
    <path
       class="cls-23"
       d="m 147.99,63.2 3.01,0.2 c 1.37,16.67 1.55,33.54 0.53,50.62 2.3,27.23 3.06,55.03 2.29,83.42 l -0.78,5.34 c -0.48,0 -0.96,0 -1.44,0 -6.42,-0.46 -13.16,-0.92 -19.43,0 -22.57,0.56 -45.06,3.08 -67.64,2.88 l -8.73,-2.07 c -3.51,-0.64 -4.21,-3.29 -4.43,-6.44 -2.34,-41.93 -3.02,-84.07 -2.06,-126.41 -0.83,-2.19 -0.79,-3.98 0.11,-5.37 15.88,-3.73 39.95,1.72 57.23,0.75 4.81,-0.27 10.26,-1.86 14.72,-2.19 1.38,0.54 2.95,0.63 4.32,0 7.37,-0.43 14.91,-0.33 22.31,-0.72 z"
       id="path114" />
    <path
       class="cls-36"
       d="m 141.51,35.86 c 1.64,0.9 4.93,6.92 5.42,8.92 0.81,3.37 0.29,8.08 -3.03,9.31 -0.9,0.34 -17.91,2.59 -19.1,2.58 -19.66,0.48 -39.28,-0.05 -58.86,-1.61 -1.7,-0.23 -3.1,-11.34 -2.79,-13.15 l 1.37,-1.02 C 94.73,28.4 109.9,28.7 141.51,35.85 Z"
       id="path116" />
    <path
       class="cls-28"
       d="m 155.9,62.48 1.45,0.46 c 1.42,46.29 2.85,92.6 4.27,138.91 l -1.41,0.93 c -2.39,0.07 -4.81,-0.02 -7.2,0 -0.88,-24.77 -0.83,-49.65 -1.45,-74.45 -0.1,-3.89 -1.35,-9.01 -1.46,-12.93 -0.46,-15.56 1.72,-34.83 0.07,-49.71 -0.18,-1.63 -0.25,-2.49 -2.2,-2.48 2.36,-0.12 5.29,-0.68 7.91,-0.72 z"
       id="path118" />
    <path
       class="cls-28"
       d="m 49.41,65.35 c 2.23,5.42 1.57,12.46 1.47,18.38 -0.59,33.74 -1.35,67.01 1.4,100.7 0.24,2.99 -0.12,14.98 1.62,16.73 1.57,1.57 8.77,1.68 10.62,4.49 -5.52,-0.05 -11.15,0.45 -16.55,-0.73 0.52,-1.05 0.73,-1.99 0.77,-3.19 1.18,-36.63 -7.81,-75.82 -5.83,-113.02 1.41,-4 0.1,-19.83 2.7,-21.95 0.74,-0.6 2.77,-1.16 3.81,-1.4 z"
       id="path120" />
    <path
       class="cls-23"
       d="m 155.9,62.48 c 1.88,-0.03 3.81,-0.1 5.68,0.08 l 1.54,17.52 c 0.63,40.95 1.02,81.81 2.13,122.7 -1.67,0.04 -3.37,-0.05 -5.04,0 L 155.89,62.49 Z"
       id="path122" />
    <path
       class="cls-8"
       d="m 141.51,35.86 c 1.04,0.24 5.31,0.45 5.66,0.81 0.21,0.22 0.19,2.31 0.64,3.3 1.08,2.37 2.33,2.51 2.33,4.88 v 12.59 c -5.12,0.31 -10.33,1.15 -15.44,1.47 -20.05,1.24 -36.05,1.54 -56.12,0.66 -7.05,-0.31 -14.21,0.29 -21.26,0.03 0.27,-3.82 -1.14,-7.3 -0.73,-11.18 0.64,-6.12 3.17,-5.56 7.93,-7.53 0.12,1.98 0.89,12.52 1.92,12.97 19.29,1.48 38.71,1.53 58.15,1.4 2.78,-1.57 19.74,-2.13 20.42,-2.97 0.21,-0.26 0.85,-5.67 0.69,-6.55 -0.46,-2.52 -4.16,-6.48 -4.19,-9.9 z"
       id="path124" />
    <path
       class="cls-6"
       d="m 160.84,30.21 c 0.21,0.13 1.44,3.99 1.51,4.66 1,9.96 -13.54,7.71 -9.5,-1.7 1.07,-2.49 6.03,-4.2 7.99,-2.95 z"
       id="path126" />
    <path
       class="cls-23"
       d="m 45.26,29.55 c 1.26,-1.26 7.29,-1.47 8.53,0.12 3.95,5.02 -4.67,11.75 -8.01,9.47 -1.61,-1.1 -1.99,-8.12 -0.52,-9.59 z"
       id="path128" />
    <path
       class="cls-22"
       d="m 49.41,43.05 0.99,0.75 c -0.14,4.43 0,8.78 0.42,13.07 l 0.75,0.57 c 0,0.12 1.26,1.41 0.72,2.15 -0.21,0.29 -4.71,1.04 -5.03,0.73 0.82,-2.4 -2.06,-16.66 -1.44,-17.27 0.19,-0.19 2.76,0.1 3.6,0 z"
       id="path130" />
    <path
       class="cls-7"
       d="m 158.06,46.65 c 0.27,8.18 0.51,8.18 0.72,0 1.05,3.86 2.68,12.37 -3.6,10.79 -0.07,-3.62 0.4,-7.3 -0.72,-10.79 1.18,0.07 2.43,-0.12 3.6,0 z"
       id="path132" />
    <path
       class="cls-11"
       d="m 110.57,25.07 c 0.17,1.25 -1.63,0.68 -2.51,0.71 -7.97,0.3 -15.68,0.82 -23.39,2.87 7.04,-5.86 17.36,-4.25 25.9,-3.58 z"
       id="path134" />
    <path
       class="cls-29"
       d="m 49.41,43.05 c 0.46,-0.05 1.29,-1 2.15,-0.72 0.26,4.99 -0.34,10.12 0,15.11 -1.72,1.65 -1.95,-0.61 -2.09,-1.87 -0.43,-4.04 0.16,-8.44 -0.07,-12.52 z"
       id="path136" />
    <path
       class="cls-28"
       d="m 151.58,202.76 c -6.46,0.03 -12.97,-0.16 -19.43,0 0.75,-1.19 2.73,-0.72 3.95,-0.73 4.95,-0.05 10.79,-0.54 15.48,0.73 z"
       id="path138" />
    <path
       class="cls-19"
       d="m 158.78,46.65 -0.36,6.48 -0.36,-6.48 c 0.24,0.02 0.48,-0.02 0.72,0 z"
       id="path140" />
    <path
       class="cls-4"
       d="m 83.95,22.19 c -0.21,2.33 -0.17,2.37 2.16,2.16 -0.86,0.44 -1.45,1.87 -2.87,1.44 -0.67,-1.36 0.66,-3.02 0.72,-3.59 z"
       id="path142" />
    <path
       class="cls-9"
       d="m 125.68,63.91 c -0.68,1.16 -3.59,1.18 -4.32,0 1.42,-0.11 2.89,0.08 4.32,0 z"
       id="path144" />
    <path
       class="cls-12"
       d="m 55.88,67.51 c 0.89,6.82 0.73,13.65 0.75,20.53 0.1,31.33 1.75,61.56 2.84,92.78 0.22,6.38 -0.26,12.72 0.72,19.05 -1.06,0.06 -1.26,-2.56 -1.35,-3.32 -0.3,-2.56 -0.64,-6 -0.8,-8.56 -2.38,-38.22 -1.8,-76.32 -2.86,-114.41 -0.05,-1.76 -2.19,-6.62 0.69,-6.09 z"
       id="path146" />
    <path
       class="cls-37"
       d="m 155.89,199.88 c -1.11,0.1 -1.22,-1.81 -1.36,-2.59 -0.87,-4.83 -1.34,-12.17 -1.54,-17.16 -1.41,-33.54 0.78,-67.74 -0.7,-101.46 -0.17,-3.89 -0.92,-8.67 -1.42,-12.6 1.35,0.28 1.3,1.42 1.45,2.5 0.98,7.16 0.18,14.44 1.45,21.57 -0.14,36.65 0,73.21 2.12,109.74 z"
       id="path148" />
  </g>
</svg>
