<?xml version="1.0" encoding="UTF-8" standalone="no"?>
<svg
   id="Layer_2"
   data-name="Layer 2"
   viewBox="0 0 111.9105 329.74959"
   version="1.1"
   sodipodi:docname="Human_02-leg_side.svg"
   width="111.9105"
   height="329.7496"
   xmlns:inkscape="http://www.inkscape.org/namespaces/inkscape"
   xmlns:sodipodi="http://sodipodi.sourceforge.net/DTD/sodipodi-0.dtd"
   xmlns="http://www.w3.org/2000/svg"
   xmlns:svg="http://www.w3.org/2000/svg">
  <sodipodi:namedview
     id="namedview64"
     pagecolor="#ffffff"
     bordercolor="#000000"
     borderopacity="0.25"
     inkscape:showpageshadow="2"
     inkscape:pageopacity="0.0"
     inkscape:pagecheckerboard="0"
     inkscape:deskcolor="#d1d1d1" />
  <defs
     id="defs4">
    <style
       id="style2">
      .cls-1 {
        fill: #6e8e85;
      }

      .cls-2 {
        fill: #cacaca;
      }

      .cls-3 {
        fill: #010101;
      }

      .cls-4 {
        fill: #9eccc0;
      }

      .cls-5 {
        fill: #6feac7;
      }

      .cls-6 {
        fill: #499580;
      }

      .cls-7 {
        fill: #475c56;
      }

      .cls-8 {
        fill: #3c3c3c;
      }

      .cls-9 {
        fill: #245749;
      }

      .cls-10 {
        fill: #67a191;
      }

      .cls-11 {
        fill: #005c42;
      }

      .cls-12 {
        fill: #171717;
      }

      .cls-13 {
        fill: #003828;
      }

      .cls-14 {
        fill: #61ccae;
      }

      .cls-15 {
        fill: #d3d3d3;
      }

      .cls-16 {
        fill: #485d57;
      }

      .cls-17 {
        fill: #90664e;
      }

      .cls-18 {
        fill: #b9f0e1;
      }

      .cls-19 {
        fill: #142e27;
      }

      .cls-20 {
        fill: #b4b4b4;
      }

      .cls-21 {
        fill: #c1faea;
      }

      .cls-22 {
        fill: #f4f4f4;
      }

      .cls-23 {
        fill: #dadada;
      }

      .cls-24 {
        fill: #78fed8;
      }

      .cls-25 {
        fill: #46bf9d;
      }

      .cls-26 {
        fill: #3d3d3d;
      }

      .cls-27 {
        fill: #71513f;
      }
    </style>
  </defs>
  <g
     id="Layer_1-2"
     data-name="Layer 1"
     transform="translate(0.00170801,-0.00202246)">
    <path
       class="cls-3"
       d="m 88.62,288.87 c 9.8,0.38 17.12,-0.08 21.71,10.3 3.2,7.24 1.6,19.86 -5.39,24.36 -20.4,13.14 -35.65,2.1 -55.27,-2.55 -8.5,-2.02 -13.25,-1.06 -21.12,-6.94 -9.13,-6.81 -5.4,-22.03 -1.63,-31.12 0.83,-2.01 4.19,-6.82 4.14,-8 -0.13,-3.32 -4.5,-13.22 -5.54,-17.56 -4.24,-17.63 -7.73,-48.45 -8.05,-66.61 -0.06,-3.6 1.5,-10.86 1.08,-13.78 -0.12,-0.86 -3,-2.8 -3.83,-5.19 -1.75,-5.03 -0.93,-13.91 -1.81,-19.77 C 11.25,141.03 7.49,129.46 5.38,118.54 0.34,92.58 -5.9,36.18 11.29,14.81 20.75,3.05 37.97,-4.01 52.43,2.46 68.67,9.73 70.8,25.27 72.71,41.17 c 5.17,43.24 -9.64,86.06 -3.5,129.32 -0.38,3.62 -7.1,5.9 -7.16,7.9 3.96,30.82 2.29,62.13 4.39,93.12 3.95,0.16 3.15,3.25 4.53,5.9 1.79,3.46 9.65,9.19 13.35,10.74 l 4.32,0.72 z"
       id="path6" />
    <path
       class="cls-11"
       d="m 51.22,10.5 c 5.21,6.93 8.27,12.27 9.85,21.29 1.58,9.02 1.46,18.93 1.09,28.38 -3.18,34.14 -4.84,69.71 -2.4,103.57 1.23,2.06 1.75,3.97 1.54,5.73 -6.04,6.25 -25.17,5.78 -33.09,3.6 -1.08,-1.35 -1.3,-3.22 -0.64,-5.59 C 26.15,146.03 22.45,124.74 16.47,103.61 8.04,71.67 10.29,39.18 27.49,11.23 35.39,6.95 43.2,5.87 51.23,10.51 Z"
       id="path8" />
    <path
       class="cls-13"
       d="m 28.2,173.06 c -2.46,-0.68 -5.33,-1.11 -7.08,-3.35 C 20.39,142.08 10,115.93 7.35,88.53 6.42,78.86 7.46,72.47 8.05,63.35 9.31,43.62 7.33,22.14 27.48,11.21 c -0.65,6.46 -5.07,12.59 -7.54,18.71 -18.5,45.73 5.87,86.25 8.97,131.27 0.26,3.8 0.26,8.2 -0.71,11.86 z"
       id="path10" />
    <path
       class="cls-13"
       d="m 61.29,169.47 c -5.87,-6.34 -3.3,-17.8 -3.57,-26.28 -0.48,-14.93 -0.9,-29.58 -0.06,-44.6 1.19,-21.12 7.97,-61.26 -2.26,-79.68 -1.51,-2.72 -5.74,-5.38 -4.19,-8.4 10.29,5.94 12.31,17.6 14.19,28.61 5.98,35 -4.58,71.78 -4.83,106.97 l 2.16,21.59 c -0.1,1.45 -0.96,1.29 -1.45,1.79 z"
       id="path12" />
    <path
       class="cls-6"
       d="m 88.62,288.87 c -2.09,-0.08 -1.61,0.41 -4.32,-0.72 z"
       id="path14" />
    <path
       class="cls-17"
       d="m 40.43,263.7 -2.72,-1.13 C 32.02,237.64 29.1,211.89 29.53,186.12 l 2.93,-0.47 c 8.21,2.18 15.43,0.82 23.33,-1 0.59,0.8 0.98,1.73 1.18,2.8 2.37,22.29 1.75,45.58 2.12,68 0.04,2.36 1.96,4.91 -0.72,6.41 -3.97,2.23 -13.39,2.35 -17.95,1.83 z"
       id="path16" />
    <path
       class="cls-24"
       d="m 53.38,284.55 c 1.41,-1.65 1.98,-0.99 0.72,0.72 -2.95,3.63 0.07,7.28 4.31,6.48 -1.83,10.57 5.45,2.31 9.35,0 1.01,-0.95 1.38,-0.55 0.72,0.72 -1.34,1.49 -5.05,6.7 -1.7,7.83 3.35,1.13 5.24,-3.14 8.13,-4.64 5.3,-2.75 6.01,-0.77 10.55,-0.39 7.52,0.63 17.33,-1.02 19.54,8.51 1.19,5.14 -0.77,3.37 -4.47,4.56 -6.87,2.2 -4.86,2.9 -8.65,7.17 -3.79,4.27 -11.97,2.29 -16.93,0.7 -11.37,-1.94 -20.25,-8.02 -29.28,-15.09 l -8.21,-4.25 c -1.29,-1.24 0.9,-11.18 1.96,-12.19 l 1.72,-0.13 c 1.85,0.61 5.69,1.56 7.56,1.5 2.43,-0.07 3.06,-1.09 4.67,-1.5 z"
       id="path18" />
    <path
       class="cls-27"
       d="m 40.43,263.7 c -1.63,-0.19 -6,-0.61 -7.03,-1.6 -3.14,-3.05 -5.28,-30.15 -6.02,-36.06 -1.11,-8.89 -3.07,-17.71 -3.52,-26.69 -0.34,-6.8 0.31,-13.72 0.03,-20.53 10.46,3.22 21.71,2.66 32.36,0.71 0.28,2.62 0.45,5.3 0.72,7.92 -0.75,-1.22 -0.69,-1.61 -2.32,-1.32 -3.08,0.55 -6.05,1.86 -9.52,2.07 -5.08,0.3 -9.83,-0.57 -14.77,-1.46 1.05,12.02 0.87,24.32 2.16,36.32 1.29,12 3.78,26.99 6.39,38.21 0.29,1.23 0.06,1.81 1.51,2.43 z"
       id="path20" />
    <path
       class="cls-25"
       d="m 41.15,284.55 c -1.13,1.32 -3.27,10.67 -2.79,11.42 9.4,2.88 16.59,11.4 25.06,15.58 2.74,1.35 8.64,3.72 11.54,4.65 -7.51,-0.84 -16.06,-3.4 -22.53,-7.32 -2.44,-1.48 -4.52,-4.11 -6.78,-5.45 -4.43,-2.62 -10.99,-4.15 -15.98,-5.25 0.84,-5.73 2.52,-11.28 5.08,-16.47 0.73,-0.51 5.25,2.45 6.41,2.84 z"
       id="path22" />
    <path
       class="cls-21"
       d="m 50.5,313.33 c -0.15,0.71 -1.11,0.94 -2.88,0.72 -1,-0.21 -2.43,0.11 -3.75,-0.19 -5.16,-1.17 -14.2,-4.31 -14.23,-10.6 8.57,-0.33 14.38,6.45 20.86,10.07 z"
       id="path24" />
    <path
       class="cls-22"
       d="m 40.43,269.45 c 1.35,1.39 0.4,4.41 2.52,5.74 l 0.36,-5.74 c 3.32,-0.18 2.11,3.89 4.3,5.03 0.21,-1 -0.28,-4.72 0,-5.04 0.15,-0.17 1.59,0.13 2.16,0 0.72,0.42 1.2,1.38 1.44,2.88 0.61,-0.29 0.83,-0.02 0.72,0.72 -1.54,1.15 -1.49,6.21 -3.97,6.52 -1.87,0.23 -8.79,-2.27 -10.03,-3.67 -0.38,-0.42 -0.23,-1.13 -0.38,-1.41 -0.53,-1.26 -0.44,-1.57 0.72,-0.72 0.43,-0.55 0.67,-1.27 0.72,-2.16 -2.64,-0.85 -1.73,-3.45 1.44,-2.16 z"
       id="path26" />
    <path
       class="cls-5"
       d="m 54.1,285.27 c 0.11,-0.47 -0.32,-0.82 -0.72,-0.72 1.07,-1.15 2.04,-5.6 2.85,-6.14 1.96,-1.32 11.68,-0.21 7.95,2.2 -2.21,1.43 -6.86,0.7 -10.08,4.66 z"
       id="path28" />
    <path
       class="cls-18"
       d="m 103.72,313.33 c 0.17,4.74 -6,7.12 -10.07,7.18 2.77,-3.2 5.13,-7.67 10.07,-7.18 z"
       id="path30" />
    <path
       class="cls-20"
       d="m 51.22,269.45 c 0.61,-0.06 2.62,-2.05 3.51,0.46 1.21,3.41 -1.66,2.3 -2.79,3.14 -0.25,-0.23 -0.49,-0.47 -0.72,-0.72 -0.9,-1.49 -0.9,-2.45 0,-2.88 z"
       id="path32" />
    <path
       class="cls-16"
       d="m 81.43,322.68 c 1.26,-0.14 4.05,-1.75 5.03,0.71 -2,-0.17 -4.25,0.25 -6.19,0.06 -1.35,-0.14 -2.1,-0.72 -2.44,-0.77 0.73,-0.83 1.93,-0.83 3.6,0 z"
       id="path34" />
    <path
       class="cls-2"
       d="m 57.69,268.01 c 2.44,7.77 -4.88,1.49 -1.06,0 z"
       id="path36" />
    <path
       class="cls-8"
       d="m 40.43,269.45 h -2.16 c -0.18,0.16 0.74,1.49 0.72,2.16 0.09,0.92 -0.15,1.4 -0.72,1.44 -0.74,0.51 -1.22,-0.21 -1.44,-2.16 0,-0.27 -0.87,-1.23 -0.71,-1.41 0.54,-0.63 3.29,-1.07 4.31,-0.02 z"
       id="path38" />
    <path
       class="cls-19"
       d="m 52.66,314.05 c 1.29,0.6 3.21,0.73 3.6,2.15 -1.88,0.9 -3.76,-1.3 -4.32,-1.43 -0.83,-0.59 -0.59,-0.83 0.72,-0.72 z"
       id="path40" />
    <path
       class="cls-1"
       d="m 81.43,322.68 c -1.17,0.13 -2.41,-0.09 -3.6,0 -0.7,-0.11 -1.24,-0.68 -1.44,-0.72 -0.41,-0.36 -0.17,-0.6 0.72,-0.72 1.53,0.25 3.16,0.12 4.32,1.44 z"
       id="path42" />
    <path
       class="cls-15"
       d="m 60.57,271.6 c -2.07,0.69 -2.3,-3.66 -1.07,-4.31 z"
       id="path44" />
    <path
       class="cls-10"
       d="m 52.66,314.05 -0.72,0.72 c -1.21,-0.28 -2.81,-0.4 -4.32,-0.72 l 2.88,-0.72 c 0.76,0.42 1.56,0.44 2.16,0.72 z"
       id="path46" />
    <path
       class="cls-23"
       d="m 38.27,273.05 c 0.63,0.2 0.62,0.44 0,0.72 -0.36,-0.09 -0.84,0.26 -0.72,0.72 -1.43,-2.52 -0.73,-1.73 -0.72,-3.6 z"
       id="path48" />
    <path
       class="cls-14"
       d="m 67.76,291.75 c 0.54,-0.32 1,-2.11 2.88,-1.43 -0.13,1.14 -1.6,1.52 -2.16,2.15 z"
       id="path50" />
    <path
       class="cls-9"
       d="m 72.08,320.52 c 0.92,0.65 0.68,0.89 -0.72,0.72 -1.13,-0.29 -2.21,-1.01 -3.59,-0.73 v -0.7 c 1.72,-0.68 3.22,0.52 4.31,0.71 z"
       id="path52" />
    <path
       class="cls-26"
       d="m 51.22,269.45 v 2.88 c -0.83,-0.93 -1.44,-1.48 -1.44,-2.88 0.4,-0.09 0.97,0.04 1.44,0 z"
       id="path54" />
    <path
       class="cls-7"
       d="m 74.24,321.24 c 0.42,0.37 0.18,0.61 -0.72,0.72 -0.8,-0.21 -1.52,-0.56 -2.16,-0.72 l 0.72,-0.72 c 1.08,0.19 1.94,0.68 2.16,0.72 z"
       id="path56" />
    <path
       class="cls-4"
       d="m 77.11,321.24 -0.72,0.72 c -0.86,-0.16 -2.1,0.2 -2.88,0 l 0.72,-0.72 c 0.86,0.16 2,-0.15 2.88,0 z"
       id="path58" />
    <path
       class="cls-12"
       d="m 38.99,271.61 0.71,2.88 c -0.68,0.22 -1.14,-0.64 -1.43,-0.72 v -0.72 c -0.08,-0.52 0.71,-1.29 0.72,-1.44 z"
       id="path60" />
  </g>
</svg>
