<?xml version="1.0" encoding="UTF-8"?>
<svg id="Layer_2" data-name="Layer 2" xmlns="http://www.w3.org/2000/svg" viewBox="0 0 114.07 324.47">
  <defs>
    <style>
      .cls-1 {
        fill: #1e4f55;
      }

      .cls-2 {
        fill: #3c7279;
      }

      .cls-3 {
        fill: #010101;
      }

      .cls-4 {
        fill: #6d7581;
      }

      .cls-5 {
        fill: #6e7783;
      }

      .cls-6 {
        fill: #0f3768;
      }

      .cls-7 {
        fill: #215960;
      }

      .cls-8 {
        fill: #959ca5;
      }

      .cls-9 {
        fill: #0f3769;
      }

      .cls-10 {
        fill: #0b274a;
      }

      .cls-11 {
        fill: #0f3564;
      }

      .cls-12 {
        fill: #dadada;
      }

      .cls-13 {
        fill: #0d2e58;
      }
    </style>
  </defs>
  <g id="Layer_1-2" data-name="Layer 1">
    <path class="cls-3" d="M10.57,273.81c1.35-1.32,5.91-3.65,6.11-3.96,1.6-2.5-2.11-12.69-2.66-16.17-5.19-32.6-5.28-66.36-3.7-99.17,1.77-36.75,3.42-75.08,9.47-111.37,3.3-19.78,7.29-29.36,26.52-37.49,35.74-15.11,65.64.73,67.62,40.23,1.12,22.24-4.61,40.71-7.21,61.9-6.18,50.15-10.22,105.62-9.39,156.11.04,2.71,1.51,4.41.21,7.34-.44,1-1.93,1.88-2.04,2.66-.73,5.27-.32,12.63-.26,17.99.08,8.33-.48,12.09-8.89,15.62-4.08,1.71-7.81.48-9.16.98-.45.17-5.92,4.88-7.65,5.94-16.77,10.23-38.85,12.94-57.59,6.8-7.25-2.38-11-4.52-11.71-12.75-1.03-12.03,1.42-25.9,10.35-34.66Z"/>
    <path class="cls-2" d="M67.86,5.98c2.03-.23,3.32-.38,3.85,1.68,4.7,4.18,9.75,8.04,15.12,11.58,10.51,8.61,10.87,23.71,10.48,36.28l-11.36,79.25c-.38,1.57-1.4,2.06-2.94,1.64-1.12-.96-11.34-8.86-12.39-7.22-.11.18,1.6,1.72,2,2.07,3.24.8,17.37,14.83,10.16,16.65-10-4.38-11.69-4.74-1.59.75,1.37,1.07,2.29,2.53,2.5,4.28l-4.46,70.45c-.69,14.62-.52,29.04.23,43.44l-.83,1.69c-13.07-2.43-36.66-9.84-48.91-5.75-1.57-.11-1.23-.61,0-1.44,8.59-4.29,18.73-5.87,28.4-5.02,5.81.51,11.64,3.49,17.63,1.79-11.31-10.43-34.31-9.09-47.47-3.24-.56-.81-1.09-1.62-1.53-2.49s-.84-1.71-1.03-2.6c-5.8-26.94-8.13-54.71-4.71-82.15,1.47-37.61,4.85-74.91,9.2-112.26,2.28-19.6,5.16-34.6,21.8-45.78,5.91-2.09,9.54-2.96,15.82-3.6Z"/>
    <path class="cls-7" d="M78.65,268.52c-.63-8.07-1.49-15.97-1.43-24.09.24-30.53,3.5-60.86,5.06-91.4-.73-5.52-10.18-5.1-11.54-10.39,4.48.11,8.41,1.49,11.87,4.31,2.24-9.2-11.69-11.97-14.75-19.41,2.72-.13,5.97.82,8.4,2.02,3.31,1.63,4.98,4.74,8.14,5.88l11.5-80.21c.31-10.43.02-23.46-6.89-31.94-4.22-5.18-17.18-11.48-18.93-15.62-.56-1.32.79-2.13-2.22-1.71,24.46-2.46,38.73,14.37,40.31,37.73,1.53,22.64-4.31,39.33-7.14,60.53-6.08,45.6-9.32,96.56-9.41,142.31-.01,5.61.86,16-.03,20.89-.87,4.76-10.01,1.63-12.95,1.08Z"/>
    <path class="cls-7" d="M52.04,9.58c-2,5.43-7.61,7.71-11.09,12.29-5.71,7.53-6.67,17.97-8.21,27.03-8.14,47.73-7.82,97.64-12.4,145.89,1.28,20.17,3.55,40.38,7.97,60.07-2.36,1.05-5.68,5.75-7.19,1.79s-2.39-16-2.88-20.86c-4.15-41.47-2.2-81.67.68-123.02,1.53-21.86,3.11-43.68,6.62-65.31,3.54-21.78,4.12-29.97,26.49-37.88Z"/>
    <path class="cls-12" d="M71.46,273.56c3.04,2.06,1.19,8.44.03,11.65-3.13,8.68-10.59,15.13-19.46,17.47-7.35,1.82-14.78,3.39-22.29,4.69-5.17.07-19.13-.06-21.89-5.09-3.99-7.28,4.91-25.41,13.06-27.11,11.31-2.37,17.4,10.87,24.23,10.58,4.97-.21,4.24-3.83,4.75-4.27,1-.89,2.56,2.58,4.52,2.08,2.19-.56,3.18-4.65,3.49-4.85,2.09-1.29,9.04,1.56,7.81-6.58,1.94.37,3.84.96,5.75,1.44Z"/>
    <path class="cls-8" d="M71.46,273.56c5.88,1.46,11.82,3.08,17.98,2.88-.92,3.85-.8,9.3-3.94,12.24-2.24,2.09-5.71,2.03-8.29,3.22s-4.89,3.57-7.42,4.81c-12.72,6.18-25.69,10.48-40.05,10.66,4.45-.86,8.6-2.81,12.92-3.98,2.87-.78,6.03-.8,9.05-1.73,12.17-3.78,21.26-15.08,19.74-28.09Z"/>
    <path class="cls-5" d="M6.01,309.52c.15-.21,3.63,1.88,4.63,2.19,19.37,6.1,44.69-.28,62.25-9.39.32,1.87-.66,2.49-1.8,3.59-12.01,11.49-38.07,14.77-53.58,11.16-2.21-.51-14.39-3.56-11.5-7.56Z"/>
    <path class="cls-4" d="M77.93,298.74l11.5-4.32c.78,3.58-1.97,5.63-4.79,7.06-4.65,2.36-3.8,1.01-6.71-2.74Z"/>
    <path class="cls-9" d="M31.18,272.12c5.51,1.51,12.08,2.81,14.39,8.98-3.5.52-6.53-3.82-9.42-5.68-1.63-1.05-3.23-1.77-4.97-2.58-.5-.21-.49-.45,0-.72Z"/>
    <path class="cls-6" d="M42.68,268.52c5.07,1.13,10.58,3.62,11.5,9.35-4.58-4.34-8.38-6.87-14.38-8.63.01-.77.97-1.01,2.88-.72Z"/>
    <path class="cls-11" d="M61.39,274.27c-3.73.74-4.84-1.51-6.47-4.3,3.03-.43,5.56,1.5,6.47,4.3Z"/>
    <path class="cls-1" d="M29.74,261.33v1.44c-1.97.66-3.78,2.86-5.76,2.51.67-2.5,3.99-3.06,5.76-3.95Z"/>
    <path class="cls-13" d="M42.68,268.52l-2.88.72c-1.24-.36-3.96-.27-4.31-1.43,2.73-.43,4.78.17,7.19.71Z"/>
    <path class="cls-10" d="M31.18,272.12v.72c-1.41-.66-3.04-.93-4.32-1.8,1.44-1.25,3.39.82,4.32,1.08Z"/>
  </g>
</svg>