<?xml version="1.0" encoding="UTF-8" standalone="no"?>
<svg
   id="Layer_2"
   data-name="Layer 2"
   viewBox="0 0 117.63435 141.47992"
   version="1.1"
   sodipodi:docname="Human_03-head.svg"
   width="117.63435"
   height="141.47992"
   xmlns:inkscape="http://www.inkscape.org/namespaces/inkscape"
   xmlns:sodipodi="http://sodipodi.sourceforge.net/DTD/sodipodi-0.dtd"
   xmlns="http://www.w3.org/2000/svg"
   xmlns:svg="http://www.w3.org/2000/svg">
  <sodipodi:namedview
     id="namedview92"
     pagecolor="#ffffff"
     bordercolor="#000000"
     borderopacity="0.25"
     inkscape:showpageshadow="2"
     inkscape:pageopacity="0.0"
     inkscape:pagecheckerboard="0"
     inkscape:deskcolor="#d1d1d1" />
  <defs
     id="defs4">
    <style
       id="style2">
      .cls-1 {
        fill: #5c4a47;
      }

      .cls-2 {
        fill: #070706;
      }

      .cls-3 {
        fill: #574340;
      }

      .cls-4 {
        fill: #040101;
      }

      .cls-5 {
        fill: #d4a78d;
      }

      .cls-6 {
        fill: #453937;
      }

      .cls-7 {
        fill: #100d0d;
      }

      .cls-8 {
        fill: #52403e;
      }

      .cls-9 {
        fill: #100200;
      }

      .cls-10 {
        fill: #201a19;
      }

      .cls-11 {
        fill: #8f7773;
      }

      .cls-12 {
        fill: #392825;
      }

      .cls-13 {
        fill: #1d1817;
      }

      .cls-14 {
        fill: #907773;
      }

      .cls-15 {
        fill: #040303;
      }

      .cls-16 {
        fill: #0d0200;
      }

      .cls-17 {
        fill: #6f5b58;
      }

      .cls-18 {
        fill: #53403c;
      }

      .cls-19 {
        fill: #0f0200;
      }

      .cls-20 {
        fill: #5e4c49;
      }

      .cls-21 {
        fill: #050404;
      }

      .cls-22 {
        fill: #747474;
      }

      .cls-23 {
        fill: #1d1814;
      }

      .cls-24 {
        fill: #aa8671;
      }

      .cls-25 {
        fill: #453634;
      }

      .cls-26 {
        fill: #eabca2;
      }

      .cls-27 {
        fill: #f9f8f8;
      }

      .cls-28 {
        fill: #dadada;
      }

      .cls-29 {
        fill: #fcfbfa;
      }

      .cls-30 {
        fill: #040403;
      }

      .cls-31 {
        fill: #030202;
      }
    </style>
  </defs>
  <g
     id="Layer_1-2"
     data-name="Layer 1"
     transform="translate(-0.0018972,0.00540599)">
    <path
       d="m 82.59,120.77 c -6.18,6.66 -16.32,10.81 -25.52,10.06 -2.59,-0.21 -8.6,-3.15 -8.98,-2.87 -0.14,0.1 -0.22,1.84 -1.93,2.83 -1.11,0.64 -2.36,0.11 -3.6,0.58 -2.19,0.83 -3.87,3.21 -5.78,3.63 -1.8,0.4 -3.76,-0.18 -5.46,0.3 -2.04,0.57 -6.08,4.9 -10,5.84 -9.28,2.23 -4.11,-7.24 -4.11,-12.11 0,-9.61 -6.8,-20.61 -9.93,-29.7 C -0.43,76.97 -4.39,53.48 7.67,31.81 16.67,15.63 26.88,11 42.88,3.72 c 26.24,-11.94 63.09,6.32 71.16,33.45 5.58,18.76 4.46,44.66 -1.93,63.12 -2.5,7.23 -10.03,18.23 -8.5,25.71 0.64,3.1 4.66,5.93 0.93,9.17 -3.36,2.92 -8.02,1.39 -11.18,-1.08 -1.6,-1.25 -3.4,-4.4 -4.34,-5.01 -1.01,-0.65 -2.32,-0.27 -3.6,-1.44 -1.28,-1.17 -2.36,-5.04 -2.84,-6.88 z"
       id="path6" />
    <path
       class="cls-9"
       d="m 107.05,39.48 c 0.75,0.37 1.03,1.4 0.72,2.16 0.84,2.38 1.32,3.1 1.44,2.16 2.04,10.31 3.11,22.75 1.35,33.36 -1.31,7.92 -6.5,16.68 -8.9,24.9 -1.84,6.32 -3.32,12.85 -3.96,19.42 -0.39,-0.38 -0.76,-0.78 -1.03,-1.23 -0.26,-0.42 -0.46,-0.84 -0.49,-1.27 -0.71,-11.28 -0.05,-22.12 1.67,-33.17 -0.05,-0.39 -0.44,-1 -0.63,-1.07 -1.26,-0.46 -3.15,10.03 -3.41,11.7 -1.35,8.69 -1.43,18.07 -1.22,26.74 l -0.64,0.47 c -1.79,-1.64 -2.56,-9.09 -2.87,-11.88 -0.83,-7.56 -0.72,-15.74 -1.45,-23.37 l -0.75,6.86 c 0.24,2.74 0.81,5.05 0.76,7.88 -0.01,0.85 0.51,2.69 -0.72,2.52 0.13,-2.53 -0.95,-4.77 -2.03,-6.96 C 78.37,85.46 66.69,73.6 59.58,59.63 62,57.73 64.49,56.09 67.08,54.7 l 2.2,0.61 c 1.22,-1.12 2.39,-1.68 3.81,-0.43 1.17,3.19 3.95,5.84 3.73,0.47 l 1.47,-0.76 c -0.51,-1.26 -0.91,-3.36 0.72,-2.88 1.58,1.09 3.02,1.33 4.32,0.72 0.6,-1.67 0.83,-1.75 1.44,0 0.8,0.33 1.46,0.18 1.8,-0.57 0.39,-7.38 1.83,-8.87 4.32,-4.46 2.07,-0.85 3.68,-0.16 5.38,1.07 0.92,-1.27 1.88,-1.63 2.88,-1.08 0.61,0.25 1.09,0.73 1.44,1.44 0.78,-1.46 1.49,-2.9 2.16,-4.32 -0.59,-1.36 -0.52,-1.66 0.72,-0.72 l 1.86,-1.09 c -0.88,-2.8 0.84,-7.13 1.74,-3.22 z"
       id="path8" />
    <path
       class="cls-9"
       d="m 100.58,26.54 v 0.72 c -0.18,2.11 -1.79,2.56 -2.88,0.72 -1.89,0.83 -2.75,-0.54 -1.44,-2.16 -3.39,-1.66 -5.79,-1.18 -7.19,1.44 H 88.35 C 83.61,22.51 73.3,16.82 66.96,14.49 64.33,13.52 60.57,13.57 58.86,11.44 h 10.43 l 19.06,5.03 C 77.83,7.75 61.6,7.28 48.79,10.01 c -0.74,2.93 3.26,0.23 3.6,2.15 -1.23,0.2 -3.43,0.36 -4.35,1.1 -0.56,0.45 -0.2,3.92 -3.2,4.66 -2.86,-2.32 3.7,-6.55 2.52,-7.9 -0.83,-0.95 -2.53,2.6 -3.78,2.16 -0.93,2.43 -3.31,1.22 -5.56,1.44 -0.11,2.78 3.75,2.01 5.02,3.95 -5.89,2.45 -9.1,5.1 -12.81,10.19 -4.58,6.3 -7.48,13.63 -9.47,21.1 C 16.53,46.63 14.3,41.92 15.01,37.05 13.5,36.84 12.54,36.22 12.13,35.19 19.56,21.01 32.7,14.28 46.67,8.23 66.91,-0.54 87.98,11.3 100.61,26.56 Z"
       id="path10" />
    <path
       class="cls-9"
       d="m 74.68,33.73 c -1.72,2.15 -2.16,4.95 -1.34,8.42 -2.13,4.19 -4.22,0.38 -5.24,-2.65 l -1.63,-1.08 c 0.07,3.78 -1.08,6 -3.47,6.64 0.31,3.52 -2.22,3.57 -4.87,3.05 -0.42,1.82 -0.72,1.6 -1.44,0 -1.09,0.19 -1.77,-0.45 -2.04,-1.91 l -0.84,0.47 C 52.33,42.66 50.92,38.59 49.85,34.44 48.5,29.2 48.75,23.23 45.9,18.62 c 1.49,0.03 3.15,-1.46 4.54,-1.25 1.71,0.26 8.58,2.94 10.47,3.85 6.11,2.95 9.87,7.28 13.76,12.49 z"
       id="path12" />
    <path
       class="cls-9"
       d="m 5.63,63.22 c 2.26,-2.94 3.39,-6.56 3.38,-10.84 1.79,-3.51 4.24,-0.83 5.55,1.68 1.98,-0.77 3.8,-1.07 5.46,-0.91 -0.66,3 -1.67,6.03 -2.07,9.08 -2.38,18.15 3.26,34.77 4.22,52.78 l -9.35,-37.4 c -1.43,0.18 -0.68,3.57 -0.53,4.49 1.59,9.73 5.94,19.7 7.02,29.67 -0.77,1.15 -0.86,-0.56 -1.07,-1.08 C 12.46,96.32 5.73,78.91 5.63,63.22 Z"
       id="path14" />
    <path
       class="cls-14"
       d="m 74.68,33.73 c 3.03,4.06 6.25,9.21 8.63,13.67 1.06,-0.26 0.96,1.24 0.72,2.16 1.16,0.62 0.54,2.7 -0.72,2.88 C 82.19,56 80.3,54.78 78.99,51.72 L 78.11,51.4 c -0.14,-5.02 -0.35,1.06 0.16,3.2 -0.07,1.11 0.05,4.78 -1.18,5.07 -4.49,1.06 -4.51,-4.36 -5.65,-4.34 -0.13,0 -1.03,1.34 -2.18,1.44 -1.08,0.1 -2.17,-0.8 -2.79,-0.76 -0.41,0.03 -4.63,5.71 -6.9,3.62 -2.17,-4.27 -4.09,-8.44 -5.75,-12.95 0.17,-3.51 1.91,-0.47 2.88,1.44 0.53,0.28 0.99,0.41 1.44,0 0.96,-0.57 0.88,-2.42 3.59,-0.72 -1.15,-4.67 2.14,-3.7 2.79,-4.4 0.43,-0.47 -0.97,-8.73 4.11,-5 1.55,1.14 1.55,4.25 3.17,5.08 0.68,-3.55 -2.14,-9.3 2.88,-9.35 z"
       id="path16" />
    <path
       class="cls-5"
       d="m 50.23,53.87 c 7.43,17.94 18.71,28.77 27.64,44.65 4.34,7.73 6.62,11.11 -0.3,17.93 -2.41,-2.44 -2.87,-5.42 -3.6,-8.63 0,-1.11 0.37,-2.37 1.08,-3.78 -1.55,-0.29 -2.87,-0.71 -3.96,-1.26 -0.63,-3.11 -2.13,-6.09 -3.94,-8.67 -0.8,-1.14 -0.24,-1.86 -2.54,-1.4 l 0.06,-1.54 c 1.61,-0.8 3.18,-4.21 0.84,-4.78 -0.54,1.78 -1.21,3.55 -3.05,2 -2.16,-4.44 -5.6,-8.19 -8.04,-12.46 -0.91,-1.59 -3.25,-8.01 -3.59,-8.3 -0.39,-0.32 -1.03,0 -1.32,-0.1 -1.82,-0.62 -2.27,-3.06 -0.72,-4.32 -0.95,-2.89 -1.99,-5.73 -2.88,-8.63 0.46,-1.88 1.71,-2.44 2.88,-0.72 0.05,-1.23 0.52,-1.23 1.44,0 z"
       id="path18" />
    <path
       class="cls-14"
       d="m 12.11,35.17 h 4.31 c 0.11,2.2 -0.28,4.44 0.2,6.64 0.68,3.08 3.83,4 4.12,7.03 -0.41,1.54 -0.42,2.97 -0.72,4.32 -0.55,1.61 -4.81,2.43 -5.96,2.2 C 13.4,55.22 11.75,51.98 10.68,51.73 9.49,55.12 10.7,63.21 5.64,63.23 5.59,55.12 8.33,42.39 12.11,35.18 Z"
       id="path20" />
    <path
       class="cls-11"
       d="m 88.35,31.57 c 0.94,0.93 3.92,2.88 5.04,4.32 1.73,0.26 3.56,3.98 3.6,5.75 1.06,0.24 1.72,2.45 1.44,3.6 0.99,0.39 1.47,1.36 0.72,2.16 -3.35,4.73 -3.65,1.41 -6.1,1.04 -0.86,-0.13 -2.28,0.88 -3.3,0.11 -0.92,-0.7 -0.03,-2.73 -1.37,-2.59 0.12,2.53 0.55,8.11 -3.19,7.96 -0.67,-0.03 -0.33,-1.41 -0.41,-1.49 -0.31,-1.3 -0.31,-2.74 0,-4.32 -1.09,-0.23 -0.89,-1.25 -0.72,-2.16 -0.05,-0.47 0.04,-0.97 0,-1.44 -0.46,-0.96 -1.01,-2.34 0,-2.88 -2.77,-4.09 -1.7,-14.12 4.32,-10.07 z"
       id="path22" />
    <path
       class="cls-11"
       d="m 96.26,25.82 c 0.13,0.15 1.01,1.56 1.44,2.16 1.12,0.08 1.97,0.02 2.88,-0.72 v -0.72 c 4.24,5.12 4.83,5.23 7.19,12.23 0.22,0.98 0.13,1.3 -0.72,0.72 -0.12,-0.02 -0.17,-0.86 -0.71,-0.72 -0.03,2.13 1.61,4.86 -1.27,5.68 -0.91,0.26 -1.34,-0.58 -1.62,-0.64 -0.47,-0.03 -0.7,0.22 -0.72,0.72 0.82,2.34 0.94,4.01 -2.16,4.32 -0.83,-0.71 -1.55,-3.07 -1.44,-4.32 -1.03,-0.44 -1.6,-2.41 -1.44,-3.6 -1.59,-1.53 -3.42,-4.27 -3.6,-6.47 -1,-1.44 -4.62,-6.06 -5.75,-7.19 h 0.72 c 0.7,-3.79 4.41,-2.47 7.19,-1.44 z"
       id="path24" />
    <path
       class="cls-9"
       d="m 88.35,31.57 c -5.94,-0.28 -4.36,5.54 -4.32,10.07 -0.36,0.8 -0.84,0.32 -1.44,-1.44 -0.24,-0.62 -0.48,-0.95 -0.72,-1.44 -0.48,-1.99 -1.2,-2.95 -2.16,-2.88 -4.29,-7.3 -9.83,-14.21 -17.98,-17.27 -0.25,-1.14 1.25,-0.63 1.76,-1.4 0.26,-0.38 -0.39,-1.42 -0.33,-1.47 2.64,-1.82 21.55,11.44 24.43,14.08 0.67,0.61 0.63,1.62 0.75,1.74 z"
       id="path26" />
    <path
       class="cls-4"
       d="m 97.7,121.48 c 0.13,2.38 -0.09,4.81 0,7.19 -0.97,-0.44 -2.1,-0.64 -2.87,-1.44 -1.12,-6.92 -1.38,-8.17 -0.78,-3.74 l -0.66,0.86 c -0.71,0.06 -0.98,-0.3 -1.44,-0.72 l -0.03,-14.06 c 1.55,-10.43 0.87,-22.09 6.87,-31.26 0.83,7.25 -1.44,14.64 -1.83,21.91 -0.39,7.27 0.37,14.39 0.75,21.25 z"
       id="path28" />
    <path
       class="cls-9"
       d="m 30.81,115.01 c 2.25,0.97 3.09,3.48 4.68,5.03 1.39,1.35 5.31,2.56 4.56,4.55 -0.38,1.01 -3.88,4.27 -4.89,4.53 -1.29,0.33 -1.8,-2.33 -3.85,-1.8 -1.18,0.3 -5.29,6.08 -6.25,4.96 l -2.15,-24.45 6.05,14.44 c 6.74,2.41 3.09,-3.81 1.86,-7.25 z"
       id="path30" />
    <path
       class="cls-19"
       d="m 94.82,127.24 c -0.22,-0.22 -1.39,-2.56 -1.44,-2.88 -1.31,-8.11 0.63,-19.86 0.91,-28.22 l 2.68,-10.62 -2.18,19.75 z"
       id="path32" />
    <path
       class="cls-16"
       d="m 103.45,105.65 c -1.42,0.11 -0.56,-2.18 -0.39,-2.91 0.56,-2.45 1.97,-6.17 2.94,-8.57 0.35,-0.86 0.74,-2.88 1.76,-2.9 -0.14,5.11 -2.95,9.59 -4.32,14.38 z"
       id="path34" />
    <path
       class="cls-7"
       d="m 97.7,40.92 c 0.26,0.95 0.21,1.17 -0.72,0.72 -0.64,-1.27 -2.74,-4.65 -3.6,-5.75 l 0.72,-1.44 c 1.48,2.12 2.49,4.16 3.6,6.47 z"
       id="path36" />
    <path
       class="cls-25"
       d="m 84.03,41.64 c 0,0.68 -0.03,2.46 0,2.88 -1.47,-1.04 -0.99,-3.15 -1.44,-4.32 z"
       id="path38" />
    <path
       class="cls-20"
       d="m 79.72,35.89 0.37,-0.71 c 1.62,-0.43 1.57,2.13 1.79,3.59 -0.41,-0.84 -1.64,-2 -2.16,-2.88 z"
       id="path40" />
    <path
       class="cls-13"
       d="m 84.75,48.12 c 0.33,1.37 0.09,1.85 -0.72,1.44 -0.48,-0.59 -0.44,-1.63 -0.72,-2.16 l 0.72,-1.44 c 0.02,0.14 0.56,1.27 0.72,2.16 z"
       id="path42" />
    <path
       class="cls-17"
       d="m 108.49,41.64 c -0.2,0.63 -0.44,0.62 -0.72,0 -0.25,-0.71 -0.71,-1.36 -0.72,-2.16 0.29,0.05 0.86,-0.29 0.72,-0.72 0.43,1.27 0.45,1.82 0.72,2.88 z"
       id="path44" />
    <path
       class="cls-24"
       d="m 50.23,53.87 c -0.46,0.07 -1.04,-0.1 -1.44,0 -2.11,0.38 -2.53,-1.89 -0.72,-2.88 h 0.72 c 0.31,0.81 1.02,1.86 1.44,2.88 z"
       id="path46" />
    <path
       class="cls-8"
       d="m 109.21,43.8 -0.71,0.72 c 0.11,-1.06 -0.39,-1.93 -0.73,-2.88 h 0.72 c 0.15,0.58 0.51,1.12 0.72,2.16 z"
       id="path48" />
    <path
       class="cls-1"
       d="m 84.75,52.43 c -0.14,-0.13 -1.04,0.09 -1.44,0 0.28,-0.89 0.19,-1.64 0.72,-2.88 0.16,-0.37 0.8,-0.79 0.72,-1.44 0.22,1.18 1.6,2.45 0,4.32 z"
       id="path50" />
    <path
       class="cls-6"
       d="m 100.58,48.83 c -2.25,0.22 -1.11,-0.37 -1.44,-1.44 -0.24,-0.78 -0.39,-1.38 -0.72,-2.16 -0.19,-0.87 -0.15,-1.1 0.72,-0.72 0.5,1.3 1.76,2.48 1.44,4.32 z"
       id="path52" />
    <path
       class="cls-12"
       d="m 79,51.71 c -1.11,0.51 -0.66,1.94 -0.72,2.88 -1.44,-1.24 -0.5,-3.95 -0.71,-5.75 h 0.7 c -0.05,1.05 0.33,1.94 0.73,2.87 z"
       id="path54" />
    <path
       class="cls-3"
       d="m 103.46,43.8 c -0.3,-0.06 -0.86,0.28 -0.72,0.72 -0.36,-1.03 -1.8,-2.1 -1.43,-3.6 z"
       id="path56" />
    <path
       class="cls-30"
       d="m 40.16,67.54 c 1.1,-0.85 2.27,-1.31 3.6,-0.72 0.21,-0.64 0.45,-0.63 0.72,0 2.03,0.39 2.93,2.53 2.69,6.41 l 0.9,1.51 c 0.79,0.32 3.41,1.84 3.57,2.59 -0.82,3.74 -4.18,1.7 -6.77,1.69 -2.1,0 -10.78,0.9 -11.43,0.69 -1.86,-0.61 -1.75,-3.43 0.25,-4.24 -0.37,-1.35 0.58,-1.98 2.83,-1.89 -0.3,-3.73 0.44,-6.22 2.21,-7.46 0.68,-0.5 1.16,-0.02 1.44,1.44 z"
       id="path58" />
    <path
       class="cls-29"
       d="m 38.72,66.1 c -0.58,1.45 -0.51,8.24 -0.79,8.56 -0.33,0.38 -3.46,0.47 -4.25,0.79 -1.52,-1.65 -2.09,-3.77 -0.72,-5.75 0.32,-0.47 4.35,-3.95 5.04,-4.32 0.59,-0.26 0.8,0.02 0.72,0.72 z"
       id="path60" />
    <path
       class="cls-26"
       d="M 43.75,49.55 42.91,51 c -6.96,0.32 -18.24,14.52 -4.5,2.93 2.12,-1.75 6.88,-2.46 7.5,0.66 2.8,2.03 3.95,5.37 2.88,8.63 l -1.48,0.93 c -4.8,-3.61 -15.74,-0.89 -14.34,5.55 0.95,1.37 1.19,4.14 0.72,5.75 -0.02,1.01 0.01,1.96 0.09,2.85 5.63,-0.39 11.04,-0.63 16.26,-0.71 -1.62,-0.69 -2.27,-1.64 -1.96,-2.86 0.99,-2.06 0.61,-4 0.12,-6.18 l 1.32,-1.01 c -0.14,-2.27 1.97,-1.66 2.93,0.05 2.57,6.65 6.08,12.86 10.51,18.65 l -0.49,2.16 c -0.34,3.09 -5.38,2.21 -6.59,-0.32 -1.1,-11.63 -6.18,5.26 4.89,3.42 1.92,-0.36 3.2,0.04 3.85,1.22 l 2.44,-1.14 c 0.64,-0.11 7.03,9.97 4.03,11.21 1.22,2.49 -3.14,3.76 -5.28,4.38 -6.68,1.94 -12.67,-0.69 -18.63,-3.34 -1.63,-0.56 0.2,1.71 1.51,2.34 7.51,3.65 15.58,5.12 23.33,1.12 l 1.94,0.53 c 2.14,0.71 3.84,6.5 3.6,8.63 -3.38,3.33 -7.08,5.57 -11.51,7.19 -35.49,-3.3 -47.06,-41.11 -38.57,-71.9 0.7,-2.55 8.24,-18.4 10.18,-19.98 1.64,-1.34 1.8,-1.32 3.36,0.27 0.58,0.6 3.61,14.38 3.89,16.19 z"
       id="path62" />
    <path
       class="cls-5"
       d="m 66.05,123.64 c -8.35,3.07 -12.39,1.33 -19.9,-2.75 -6.46,-3.51 -17.57,-12.77 -19.77,-19.8 -5.66,-18.16 -4.06,-45.63 4.29,-62.82 0.8,-1.65 9.54,-15.53 11.64,-13.17 0.87,8.77 3.33,17.68 6.48,25.89 -0.2,0.63 -0.44,0.62 -0.72,0 -0.91,2.08 -4.51,0.67 -4.32,-1.44 L 39.43,31.57 30.91,46.41 c -10.96,26.43 -3.8,63.46 25.6,74.17 3.26,1.19 6.83,1.2 9.54,3.05 z"
       id="path64" />
    <path
       class="cls-31"
       d="m 71.09,102.78 c 5.2,-2.33 7.63,2.03 2.88,5.04 -6.66,4.2 -14.75,4 -21.96,1.46 -2.16,-0.76 -7.09,-2.9 -6.86,-5.41 0.35,-3.81 6.55,0.62 8.83,1.29 5.14,1.5 8.83,1.81 13.9,-0.2 1.51,-0.6 2.41,-1.81 3.22,-2.18 z"
       id="path66" />
    <path
       class="cls-15"
       d="m 62.46,88.4 c 1.68,-0.44 1.24,-2.81 2.53,-3.59 5.06,0.23 3.26,6.96 -0.37,7.9 -2.61,0.68 -10.5,0.11 -11.85,-2.89 -1.77,-3.93 1.1,-10.23 3.63,-6.51 1.23,1.81 -1.41,7.02 6.07,5.08 z"
       id="path68" />
    <path
       class="cls-21"
       d="m 43.75,49.55 c 0.74,0.06 3.19,1.3 4.32,1.44 l 0.72,2.88 c -1,0.25 -1.54,0.72 -2.88,0.72 -1.34,0 -2.42,-0.96 -4.49,-0.59 -3,0.54 -8.78,8.2 -10.59,5.6 -2.34,-3.35 8.59,-10.42 12.93,-10.05 z"
       id="path70" />
    <path
       class="cls-2"
       d="m 48.79,63.22 c 1.04,3.16 0.52,1.79 0.72,4.32 -1.02,1.54 -2.7,1.3 -5.04,-0.72 -0.1,0.12 -0.59,-0.12 -0.72,0 -1.56,0.08 -2.76,-0.4 -3.6,-1.44 -0.49,0.58 -1.21,0.58 -2.16,0 0.29,2.04 -2.97,5.44 -5.04,4.32 -4.88,-0.66 0.07,-5.25 1.8,-6.47 5.15,-3.63 8.72,-2.32 14.02,0 z"
       id="path72" />
    <path
       class="cls-27"
       d="m 49.51,67.54 c 0.18,2.34 2.05,7.16 -1.44,7.19 -0.43,-0.17 -1.8,0.29 -2.09,-0.05 -0.39,-0.46 -0.36,-6.58 -1.51,-7.87 0.19,-0.22 -0.4,-1.5 0.35,-1.43 1.38,1.62 3.12,1.61 4.68,2.15 z"
       id="path74" />
    <path
       class="cls-23"
       d="m 63.89,115.72 c -1.14,0.87 -8.01,1.18 -7.18,-1.06 0.48,-1.31 6.81,-0.68 7.18,1.06 z"
       id="path76" />
    <path
       class="cls-9"
       d="m 89.07,27.26 0.41,-3.61 c 2.38,-0.46 5.2,0.31 6.78,2.17 -2.55,0.52 -5.24,-0.58 -7.19,1.44 z"
       id="path78" />
    <path
       class="cls-9"
       d="m 100.58,27.26 v 5.03 C 98.72,31.72 98.45,29.03 97.7,27.97 l 2.88,-0.72 z"
       id="path80" />
    <path
       class="cls-18"
       d="M 58.14,48.12 57.78,51 c -0.66,0.02 -0.76,-2.25 -1.08,-2.88 0.42,-0.09 1.2,0.14 1.44,0 z"
       id="path82" />
    <path
       class="cls-10"
       d="m 99.14,44.52 -0.72,0.72 c -0.46,-1.1 -0.99,-2.71 -1.44,-3.6 l 0.72,-0.72 c 0.69,1.43 0.91,2.24 1.44,3.6 z"
       id="path84" />
    <path
       class="cls-28"
       d="m 43.75,66.82 c -1.38,1.21 -0.78,2.3 -3.6,0.72 -1.01,-1.37 -1.01,-2.09 0,-2.16 1.25,0.01 2.33,-1.63 3.6,1.44 z"
       id="path86" />
    <path
       class="cls-22"
       d="m 40.16,65.38 v 2.16 c -0.46,-0.26 -1.02,-1 -1.44,-1.44 -0.24,-0.24 -0.46,-0.5 -0.72,-0.72 1.7,-0.92 1.3,0 2.16,0 z"
       id="path88" />
  </g>
</svg>
