<?xml version="1.0" encoding="UTF-8" standalone="no"?>
<svg
   id="Layer_2"
   data-name="Layer 2"
   viewBox="0 0 135.10973 227.37444"
   version="1.1"
   sodipodi:docname="Human_01-torso.svg"
   width="135.10973"
   height="227.37444"
   xmlns:inkscape="http://www.inkscape.org/namespaces/inkscape"
   xmlns:sodipodi="http://sodipodi.sourceforge.net/DTD/sodipodi-0.dtd"
   xmlns="http://www.w3.org/2000/svg"
   xmlns:svg="http://www.w3.org/2000/svg">
  <sodipodi:namedview
     id="namedview52"
     pagecolor="#ffffff"
     bordercolor="#000000"
     borderopacity="0.25"
     inkscape:showpageshadow="2"
     inkscape:pageopacity="0.0"
     inkscape:pagecheckerboard="0"
     inkscape:deskcolor="#d1d1d1" />
  <defs
     id="defs4">
    <style
       id="style2">
      .cls-1 {
        fill: #fed9c4;
      }

      .cls-2 {
        fill: #d5cb8c;
      }

      .cls-3 {
        fill: #010101;
      }

      .cls-4 {
        fill: #2b291d;
      }

      .cls-5 {
        fill: #fee965;
      }

      .cls-6 {
        fill: #fef2a6;
      }

      .cls-7 {
        fill: #b3ad84;
      }

      .cls-8 {
        fill: #090906;
      }

      .cls-9 {
        fill: #dfb8a2;
      }

      .cls-10 {
        fill: #181710;
      }

      .cls-11 {
        fill: #fcee95;
      }

      .cls-12 {
        fill: #bbb382;
      }

      .cls-13 {
        fill: #feec7b;
      }

      .cls-14 {
        fill: #aca57c;
      }

      .cls-15 {
        fill: #f6eba1;
      }

      .cls-16 {
        fill: #cdc488;
      }

      .cls-17 {
        fill: #f7d2bd;
      }
    </style>
  </defs>
  <g
     id="Layer_1-2"
     data-name="Layer 1"
     transform="translate(9.3310755e-4,0.00251239)">
    <g
       id="g48">
      <path
         class="cls-6"
         d="m 118.61,33.26 c -1.85,5.79 -2.96,12.65 -3.6,18.7 -1.61,0.42 -4.16,-0.74 -5.04,-2.16 -1.86,1.32 -2.85,3.18 -3.71,5.23 -2.55,6.06 -2.78,19.74 -2.88,26.74 1.17,28.18 4.11,56.55 7.78,84.54 0.96,7.3 1.96,14.5 3.32,21.74 1.36,7.24 3.22,14.95 7.26,20.91 l -0.26,1.96 c -1.22,0.63 -2.46,1.23 -3.73,1.74 -1.27,0.51 -2.53,1.01 -3.84,1.28 -10.08,2.12 -20.06,4.07 -30.02,5.84 -17.8,3.16 -36.62,3.86 -53.64,-3.03 -5.78,-2.34 -13.68,-5.54 -16.66,-10.86 -0.31,-2.09 0.14,-4.45 1.34,-7.08 l 1.92,-11.94 C 29.87,148.29 31.9,108.05 25.96,68.04 25.01,61.65 22.72,56.84 17.19,53.41 c -1.18,1.09 -2.62,1.81 -4.32,2.16 -0.08,1.11 -0.32,2.06 -0.72,2.88 L 7.83,35.43 c 0.93,-1.3 2.62,-2.12 5.06,-2.46 7.17,-3.74 14.27,-6.57 22.43,-7.85 l 2.01,0.95 1.22,-0.36 c 1.28,2.21 2.56,4.49 3.81,6.83 1.8,1.23 4.79,3.29 5.75,5.04 2.39,0.73 6.29,2.11 7.91,3.6 3.15,0.57 6.26,0.57 9.35,0 0.22,-0.65 0.61,-1.17 1.27,-1.31 10.12,-2.04 18.79,-4.4 22.46,-14.52 -0.42,-0.65 -0.49,-1.39 0.11,-1.79 0.63,-0.42 12.79,2.66 14.75,3.25 4.93,1.5 10.27,4.11 14.63,6.44 z"
         id="path6" />
      <path
         class="cls-3"
         d="m 109.97,49.81 c 2.06,-0.19 4.02,0.28 5.04,2.16 -2.72,26.02 3.47,53.86 7.1,79.57 2.41,17.06 3.96,33.14 7.36,50.18 1.52,7.61 5.06,16.8 5.61,24.63 0.84,12.09 -16.91,11.1 -25.11,12.84 -28.24,5.98 -51.91,13.2 -80.92,3.26 -7.92,-2.71 -10.03,-5.47 -16.23,-9.66 C 7.13,208.96 0.04,207.91 0,199.85 c -0.11,-20.87 9.54,-41.02 10.7,-61.22 1.4,-24.26 2.19,-50.93 2.16,-75.16 -0.66,-2.61 -0.48,-5.28 0,-7.91 1.14,-2.76 1.05,-2.33 4.32,-2.16 1.11,0.48 2.34,1.04 2.78,2.26 1.47,17.52 0.56,35.27 -0.5,52.81 -0.04,0.66 -0.28,1.3 -0.55,1.96 -0.27,0.66 -0.63,1.32 -1.02,1.95 0.51,2.84 0.7,5.83 0,8.63 0.56,1.08 0.54,2.51 0,3.6 -0.45,1.36 -1.06,3.76 0.71,3.94 -0.1,9.68 -0.42,19.53 -2.36,28.96 -3.4,14.31 -6.2,28.69 -8.38,43.14 l 5.82,3.6 -0.11,1.65 c 27.45,19.62 52.8,16.07 84.3,9.86 7.83,-1.54 15.75,-3.24 23.59,-4.82 0.67,-1.45 2.08,-2.36 4.22,-2.71 -7.94,-42.07 -14.67,-84.07 -18.77,-126.49 -0.54,-5.62 -1.89,-23.82 0.32,-29.02 0.53,-1.25 1.49,-2.3 2.72,-2.9 z"
         id="path8" />
      <path
         class="cls-3"
         d="m 48.12,5.93 c 3.28,0.08 3.51,10.59 0.72,11.51 1.31,1.24 1.14,3.16 -0.48,5.76 6.76,11.73 26.1,8.34 33.3,-1.14 -1.4,-1.54 -1.79,-2.84 -1.17,-3.9 -3.37,0.23 -4.13,-11.35 -0.72,-11.51 0.24,0.01 1.07,-0.73 1.81,-0.67 3.34,0.26 2.68,6.02 3.77,8.39 2.32,5.08 18.78,6.95 24.29,8.8 1.74,0.58 8,3.01 9.01,4 0.16,0.16 1.15,4.09 1.15,4.31 0,1.04 -1.08,1.46 -1.19,1.79 -1.29,0.59 -1.88,0.39 -3.11,-0.06 -3.76,-1.36 -6.78,-3.46 -11.12,-4.77 -4.73,-1.43 -9.74,-1.81 -14.35,-3.66 -0.73,-0.05 -0.74,0.49 -0.91,0.58 -0.74,3.35 -5.64,9.44 -9.35,7.91 -0.64,-0.26 -1.35,0.22 -2.16,1.44 -1.54,0.12 -2.5,0.6 -2.88,1.44 -1.27,0.73 -2.47,0.97 -3.6,0.72 -1.46,0.95 -3.38,1.19 -5.75,0.72 C 57.26,41.31 43.59,34.96 42.36,26.08 L 40.2,26.8 c 0.63,0.2 0.62,0.44 0,0.72 0.68,3.49 -0.54,0.6 -1.32,-1.3 C 38.73,25.86 38.2,25.77 37.33,26.08 32.99,27.32 28,28.01 23.82,29.47 19.13,31.11 12.68,35.85 7.84,35.43 2.61,34.98 4.65,30.41 8.06,28.1 c 5.88,-3.99 33.59,-8.6 34.9,-10.77 0.76,-1.27 0.33,-7.98 1.67,-10.2 1.19,-1.97 2.73,-0.81 3.49,-1.19 z"
         id="path10" />
      <path
         class="cls-16"
         d="m 12.87,63.47 c -1.14,-0.89 -0.84,-3.57 -0.72,-5.04 0.14,-1.64 0.14,-1.48 0.72,-2.88 0,2.63 0,5.28 0,7.91 z"
         id="path12" />
      <path
         class="cls-5"
         d="m 13.59,205.89 c -1.06,-0.76 -6.83,-4.1 -7.04,-4.46 -1.33,-2.27 8.03,-41.52 8.99,-47.9 1.32,-8.72 1.53,-16.2 1.63,-24.98 0.02,-1.22 -0.46,-3.2 0.73,-3.95 0.2,0.8 0.44,-0.4 0.72,-3.6 -0.22,-2.77 -0.46,-5.65 -0.72,-8.63 0.48,-18.44 2.45,-37.34 0.75,-55.78 -0.12,-1.35 -0.63,-2.21 -1.47,-3.2 7.59,0.41 9.4,10.17 10.58,16.39 4.89,25.79 3.21,65.13 -2.17,90.92 -1.88,9 -5.32,17.49 -7.34,26.47 -1.43,6.36 -1.04,13.48 -4.67,18.71 z"
         id="path14" />
      <path
         class="cls-5"
         d="m 109.97,49.81 c -3.18,5.38 -2.36,13.58 -2.19,19.81 0.75,27.55 6.04,58.72 10.22,86.16 2.68,17.6 6.37,35.06 8.99,52.68 -1.3,1.83 -3.55,2.07 -5.51,2.47 -2.96,-3.37 -4.53,-7.61 -5.77,-11.86 -5.49,-18.88 -6.45,-38.83 -8.63,-58.26 -2.93,-26.11 -7.79,-54.08 -3.39,-80.37 0.69,-4.12 1.22,-10.17 6.28,-10.63 z"
         id="path16" />
      <path
         class="cls-8"
         d="m 65.38,41.17 c -3.05,0.58 -6.17,0.58 -9.35,0 -4.56,-0.87 -4.28,-1.13 -7.91,-3.6 -0.78,-0.99 -0.31,-1.23 1.44,-0.72 0.5,-0.48 1.04,-0.66 1.64,-0.43 6.53,2.47 9.99,2.54 17.06,1.87 0.61,-0.95 2.52,-1.09 3.6,-0.72 0.63,-0.66 1.59,-1.14 2.88,-1.44 0.35,-0.89 1.31,-1.37 2.88,-1.44 0.6,-1.2 1.32,-1.68 2.16,-1.44 1.45,-0.96 3.28,-1.95 4.58,-3.01 1.6,-1.3 3.09,-4.01 4.77,-4.9 1.42,0.63 0.36,2.25 -0.08,3.16 -4.31,8.86 -14.36,12.25 -23.66,12.67 z"
         id="path18" />
      <path
         class="cls-10"
         d="m 49.55,36.86 -1.44,0.72 c -2.83,-1.92 -3.4,-2.2 -5.75,-5.04 -0.95,-1.01 -0.55,-1.38 0.72,-0.72 1.96,-0.55 6.3,3.06 6.47,5.04 z"
         id="path20" />
      <path
         class="cls-4"
         d="m 37.33,26.07 c 0.41,-0.12 0.95,-1.21 2.15,-0.72 l 0.02,2.89 c 0.37,-0.04 0.65,-0.74 0.7,-0.73 1.66,-1.38 4.45,2.89 2.88,4.32 l -0.72,0.72 c -0.45,-0.54 -1.35,-0.78 -2.04,-1.89 -1.17,-1.88 -1.07,-5.02 -2.99,-4.58 z"
         id="path22" />
      <path
         class="cls-10"
         d="m 65.38,41.17 c -2.67,1.72 -6.5,0.54 -9.35,0 3.1,-0.1 6.25,0.14 9.35,0 z"
         id="path24" />
      <path
         class="cls-11"
         d="m 18.62,121.02 c -0.2,0.63 -0.44,0.62 -0.72,0 -0.04,-2.86 -0.07,-5.77 0,-8.63 1.3,2.12 0.75,5.94 0.72,8.63 z"
         id="path26" />
      <path
         class="cls-13"
         d="m 18.62,121.02 c -0.02,2.39 0.02,4.8 0,7.19 h -0.7 c -0.05,-1.19 0.04,-2.4 0,-3.59 -0.04,-1.19 0.01,-2.4 0,-3.6 h 0.72 z"
         id="path28" />
      <path
         class="cls-15"
         d="m 42.36,26.07 c 6.28,8.93 11.37,12.26 23.02,11.51 1.4,-0.14 2.36,0.1 2.88,0.72 -8.07,1.63 -11.4,2.77 -18.7,-1.44 -2.77,-1.6 -4.46,-2.53 -6.47,-5.04 -0.78,-0.97 -2.21,-4.22 -2.88,-4.32 v -0.72 c 0.15,-1.49 1.18,-1.76 2.16,-0.72 z"
         id="path30" />
      <path
         class="cls-2"
         d="m 71.13,36.86 c 0.6,0.01 0.89,0.06 0.72,0.72 -1.21,0.35 -2.38,0.47 -3.6,0.72 l -2.88,-0.72 c 1.15,-0.07 4.37,-0.5 5.75,-0.72 z"
         id="path32" />
      <path
         class="cls-12"
         d="m 74.73,36.14 c -0.85,0.37 -1.67,1.08 -2.88,1.44 l -0.72,-0.72 c 0.4,-0.06 3.44,-0.62 3.6,-0.72 z"
         id="path34" />
      <path
         class="cls-14"
         d="m 77.61,34.7 c -1.24,0.71 -1.56,0.87 -2.88,1.44 0.09,-0.06 -0.24,-1.11 0.07,-1.36 0.56,-0.45 2.31,0.16 2.81,-0.08 z"
         id="path36" />
      <path
         class="cls-7"
         d="m 79.76,33.26 c -0.8,0.53 -1.07,0.81 -2.16,1.44 0.14,-0.06 0.08,-1.99 1.81,-2.14 z"
         id="path38" />
      <path
         class="cls-4"
         d="m 42.36,26.07 -2.16,0.72 v -2.15 c 1.38,-0.31 1.52,0.53 2.16,1.43 z"
         id="path40" />
      <path
         class="cls-9"
         d="m 79.76,6.65 c -1.11,3.05 -0.68,8.64 0.72,11.51 -3.05,3.85 -10.99,3.88 -15.93,3.77 -4.94,-0.11 -12.88,-0.48 -15.72,-4.49 0.36,-3.36 0.65,-8.5 -0.72,-11.51 0.97,-0.49 2.44,-2.04 4.32,-2.88 l 3.6,-1.44 c 5.06,-1.52 10.73,-2.57 15.75,-0.29 1.69,0.77 7.15,5.27 7.99,5.32 z"
         id="path42" />
      <path
         class="cls-17"
         d="m 56.03,1.61 c -0.78,1.23 -2.24,1.47 -3.6,1.44 1.52,-0.67 1.69,-0.87 3.6,-1.44 z"
         id="path44" />
      <path
         class="cls-1"
         d="m 80.48,18.16 c 0.45,0.92 2.53,2.38 2.63,3.22 0.48,4.11 -9.26,8.58 -12.54,9.52 -6.81,1.96 -15.34,1.82 -20.69,-3.36 -5.63,-5.46 -1.59,-5.01 -1.05,-10.1 9.82,3.84 21.65,4.06 31.65,0.72 z"
         id="path46" />
    </g>
  </g>
</svg>
