<?xml version="1.0" encoding="UTF-8" standalone="no"?>
<svg
   id="Layer_2"
   data-name="Layer 2"
   viewBox="0 0 202.84564 470.50395"
   version="1.1"
   sodipodi:docname="Human_09-front.svg"
   width="202.84564"
   height="470.50394"
   xmlns:inkscape="http://www.inkscape.org/namespaces/inkscape"
   xmlns:sodipodi="http://sodipodi.sourceforge.net/DTD/sodipodi-0.dtd"
   xmlns="http://www.w3.org/2000/svg"
   xmlns:svg="http://www.w3.org/2000/svg">
  <sodipodi:namedview
     id="namedview368"
     pagecolor="#ffffff"
     bordercolor="#000000"
     borderopacity="0.25"
     inkscape:showpageshadow="2"
     inkscape:pageopacity="0.0"
     inkscape:pagecheckerboard="0"
     inkscape:deskcolor="#d1d1d1" />
  <defs
     id="defs4">
    <style
       id="style2">
      .cls-1 {
        fill: #1b150f;
      }

      .cls-2 {
        fill: #a7825d;
      }

      .cls-3 {
        fill: #181818;
      }

      .cls-4 {
        fill: #a5805c;
      }

      .cls-5 {
        fill: #040041;
      }

      .cls-6 {
        fill: #8b6d4e;
      }

      .cls-7 {
        fill: #8d8d6c;
      }

      .cls-8 {
        fill: #898989;
      }

      .cls-9 {
        fill: #898887;
      }

      .cls-10 {
        fill: #252525;
      }

      .cls-11 {
        fill: #19173a;
      }

      .cls-12 {
        fill: #8b8b8b;
      }

      .cls-13 {
        fill: #060066;
      }

      .cls-14 {
        fill: #6a6a46;
      }

      .cls-15 {
        fill: #937353;
      }

      .cls-16 {
        fill: #2a2a2a;
      }

      .cls-17 {
        fill: #231c13;
      }

      .cls-18 {
        fill: #050402;
      }

      .cls-19 {
        fill: #272727;
      }

      .cls-20 {
        fill: #cdcdcd;
      }

      .cls-21 {
        fill: #927353;
      }

      .cls-22 {
        fill: #8c6e4f;
      }

      .cls-23 {
        fill: #15110c;
      }

      .cls-24 {
        fill: #19140e;
      }

      .cls-25 {
        fill: #cecece;
      }

      .cls-26 {
        fill: #050403;
      }

      .cls-27 {
        fill: #795d43;
      }

      .cls-28 {
        fill: #6a6a45;
      }

      .cls-29 {
        fill: #b28a62;
      }

      .cls-30 {
        fill: #04004d;
      }

      .cls-31 {
        fill: #74744a;
      }

      .cls-32 {
        fill: #e5e5e5;
      }

      .cls-33 {
        fill: #b28a63;
      }

      .cls-34 {
        fill: #d5d5d5;
      }

      .cls-35 {
        fill: #2f2f2f;
      }

      .cls-36 {
        fill: #4a4a2b;
      }

      .cls-37 {
        fill: #8f7051;
      }

      .cls-38 {
        fill: #707050;
      }

      .cls-39 {
        fill: #6b5d3c;
      }

      .cls-40 {
        fill: #06006b;
      }

      .cls-41 {
        fill: #6b6b46;
      }

      .cls-42 {
        fill: #060503;
      }

      .cls-43 {
        fill: #d8d8d8;
      }

      .cls-44 {
        fill: #c4c4c4;
      }

      .cls-45 {
        fill: #666;
      }

      .cls-46 {
        fill: #0a0805;
      }

      .cls-47 {
        fill: #6f5e3f;
      }

      .cls-48 {
        fill: #0f0b08;
      }

      .cls-49 {
        fill: #d3d3d3;
      }

      .cls-50 {
        fill: #222;
      }

      .cls-51 {
        fill: #17120d;
      }

      .cls-52 {
        fill: #cbcbcb;
      }

      .cls-53 {
        fill: #16110c;
      }

      .cls-54 {
        fill: #130f0b;
      }

      .cls-55 {
        fill: #2b2b2b;
      }

      .cls-56 {
        fill: #79784c;
      }

      .cls-57 {
        fill: #7e6246;
      }

      .cls-58 {
        fill: #6d6d6d;
      }

      .cls-59 {
        fill: #8b6d4f;
      }

      .cls-60 {
        fill: #7a7a59;
      }

      .cls-61 {
        fill: #dfdfdf;
      }

      .cls-62 {
        fill: #191919;
      }

      .cls-63 {
        fill: #0b0b0b;
      }

      .cls-64 {
        fill: #515151;
      }

      .cls-65 {
        fill: #d0d0d0;
      }

      .cls-66 {
        fill: #896b4d;
      }

      .cls-67 {
        fill: #d6d6d6;
      }

      .cls-68 {
        fill: #413325;
      }

      .cls-69 {
        fill: #232323;
      }

      .cls-70 {
        fill: #917253;
      }

      .cls-71 {
        fill: #827e7a;
      }

      .cls-72 {
        fill: #ebebeb;
      }

      .cls-73 {
        fill: #03002c;
      }

      .cls-74 {
        fill: #c7c7c7;
      }

      .cls-75 {
        fill: #cfcfcf;
      }

      .cls-76 {
        fill: #545454;
      }

      .cls-77 {
        fill: #6b6b6b;
      }

      .cls-78 {
        fill: #f5f5f5;
      }

      .cls-79 {
        fill: #090705;
      }

      .cls-80 {
        fill: #353535;
      }

      .cls-81 {
        fill: #b9b9b9;
      }

      .cls-82 {
        fill: #959595;
      }

      .cls-83 {
        fill: #949494;
      }

      .cls-84 {
        fill: #292929;
      }

      .cls-85 {
        fill: #03003c;
      }

      .cls-86 {
        fill: #858565;
      }

      .cls-87 {
        fill: #5d5d5d;
      }

      .cls-88 {
        fill: #fefefe;
      }

      .cls-89 {
        fill: #8c8b56;
      }

      .cls-90 {
        fill: #242424;
      }

      .cls-91 {
        fill: #d1d1d1;
      }

      .cls-92 {
        fill: #0d0a43;
      }

      .cls-93 {
        fill: #d9d9d9;
      }

      .cls-94 {
        fill: #0d0c1f;
      }

      .cls-95 {
        fill: #fdfdfd;
      }

      .cls-96 {
        fill: #6b5d3d;
      }

      .cls-97 {
        fill: #3e3423;
      }

      .cls-98 {
        fill: #040403;
      }

      .cls-99 {
        fill: #15100c;
      }
    </style>
  </defs>
  <g
     id="Layer_1-2"
     data-name="Layer 1"
     transform="translate(-0.01060704,-0.01097017)">
    <path
       class="cls-62"
       d="m 18.77,301.3 c 0.49,1.86 1.21,2.58 2.16,2.16 0.85,1.11 1.77,2.22 2.16,3.6 -0.69,11.68 -0.45,23.19 0.72,34.52 0.66,4.26 0.71,10.2 -0.72,14.02 0.4,0.1 0.71,0.21 0.72,0.33 0.22,5.42 0.2,11.74 -0.02,17.17 0,0.17 -0.31,0.32 -0.7,0.47 0.66,0.39 0.75,1.34 0.26,2.86 l 1.18,9.01 c 0.08,8.79 0.23,13.16 -0.67,21.99 -0.6,5.93 -3.23,26.31 -1.49,30.51 -0.28,2.15 0.18,4.09 1.4,5.84 0.73,4.94 0.26,9.95 -1.4,15.02 -2.81,3.39 -7.95,2.16 -10.07,-1.44 0.24,-4.45 0,-5.17 -0.72,-2.16 C 8.44,449.91 7,440.89 6.55,434.7 5.39,418.43 5.9,399.77 5.82,383.29 c 1.72,-4.96 1.72,-9.52 0,-13.66 0,-2.63 -0.03,-5.28 0,-7.91 0.98,-5.19 0.98,-10.23 0,-15.1 0.28,-11.01 0.34,-23.97 2.39,-34.65 0.94,-4.89 0.96,-10.11 6.25,-11.37 q 0.63,1.34 0,0 c 0.26,-0.06 0.44,-0.7 1.59,-0.61 1.15,0.09 1.86,0.78 2.73,1.33 z"
       id="path6" />
    <path
       class="cls-62"
       d="m 42.51,407 0.21,2.15 c 2.99,0.31 3.61,6.73 0.51,6.84 0.56,0.07 1.4,0.24 1.44,0.64 0.36,3.52 0.59,16.81 0,19.9 l -1.44,1.03 1.47,1.26 c 0.74,2.29 0.85,9.65 -0.75,11.32 0.79,2.07 1.15,10.79 -1.88,10.45 -0.32,-0.04 -0.7,-2.34 -0.27,-2.9 -1.03,-5.42 -1.03,-10.81 0,-16.18 -1.04,5.69 -1.03,11.56 0.05,17.64 1.3,1.07 -0.37,2.87 -1.49,3.94 -5.91,2 -6.29,-4.54 -7.2,-8.63 -0.07,-6.84 -0.8,-14.04 -2.16,-20.85 -0.08,-5.11 0.23,-9.52 0.72,-14.38 q 0.71,3.61 0,0 c 0.34,-3.36 -0.07,-8.78 2.55,-11.51 0.7,-0.73 1.46,-0.52 1.77,-0.72 -0.08,1.64 0.4,1.4 1.44,-0.72 2.56,-0.71 2.43,-1.01 5.04,0.72 z"
       id="path8" />
    <path
       class="cls-62"
       d="m 192.18,306.33 c 1.17,5.15 1.67,10.42 1.51,15.83 -1.65,7.35 -2.53,14.25 0.31,21.35 -0.11,6.58 -0.97,13.14 -2.58,19.68 3.14,8.21 3.02,16.01 2.15,24.8 1.77,9.38 2.51,19.07 2.21,29.08 0.45,0.29 0.8,0.59 0.81,0.91 0.67,13.15 -0.79,26.51 -2.25,39.36 -0.61,1.37 -2.22,3.63 -3.6,4.31 l -1.22,-2.84 c 0.13,-12.64 0.8,-25.18 2.02,-37.62 -1.43,-7.57 -2.04,-15.28 -1.59,-22.95 -2.44,-7.3 -2.9,-15.03 -1.37,-23.2 -3.02,-8.43 -3.24,-17.33 -0.66,-26.71 -1.53,-11.22 -1.29,-22.21 0.72,-32.99 -1.21,-4.27 -1.86,-8.16 -0.98,-12.62 h 1.63 c 1.16,0.68 2.31,2.42 2.88,3.61 z"
       id="path10" />
    <path
       class="cls-55"
       d="m 189.3,302.73 c -3.58,4.79 0.75,8.36 0.78,12.57 0.02,3.43 -1.89,7.91 -2.21,11.53 -0.72,8.14 1.9,15.2 1.45,22.31 -0.34,5.38 -2.64,10.1 -2.21,15.82 0.29,3.79 2.41,6.15 2.84,9.38 0.63,4.74 -1.43,9.86 -1.31,14.25 0.08,2.92 2.44,6.33 2.74,9.51 0.37,3.91 -1.03,7.83 -0.64,12.13 0.31,3.33 1.88,6.55 2.18,10.05 0.54,6.43 -1.19,11.91 -1.5,17.97 -0.4,7.76 0.07,15.64 -0.69,23.4 -1.54,0.77 -1.78,0.36 -2.88,0 l -0.94,-2.6 c -0.2,-16.87 0.27,-33.63 1.4,-50.27 -2.76,-8.99 -3.59,-18.45 -2.48,-28.41 -2.2,-8.78 -2.67,-17.75 -1.42,-26.92 -1.16,-8.36 -0.4,-16.11 0.66,-24.47 -1.87,-7.52 -1.46,-13.82 0.26,-21.34 -0.23,-2.38 0.13,-4.25 1.08,-5.62 1.07,-0.03 1.96,0.19 2.88,0.72 z"
       id="path12" />
    <path
       class="cls-62"
       d="m 186.42,302.01 c 1.28,5.59 -1.49,11.94 -1.49,16.9 0,3.12 1.58,6.77 1.56,10.06 -0.05,5.84 -1.85,11.23 -1.49,17.97 0.37,6.93 0.33,8.92 0,15.84 -0.31,6.37 0.81,9.53 1.45,15.07 0.8,6.9 -0.32,16 0.74,22.99 0.36,2.39 1.93,4.04 2.14,7.21 0.53,7.99 -1.4,21.38 -1.5,30.2 -0.09,7.8 0.13,15.61 0.03,23.4 -2.16,-0.71 -1.62,-0.74 -2.88,-2.16 -1.21,-6.45 -0.81,-13.69 0,-20.13 2.95,-7.49 1.1,-17.16 0.72,-25.17 1.23,-3.78 0.61,-7.83 -0.72,-11.51 -0.07,-1.3 -0.68,-2.54 -0.72,-3.6 l -1.43,-2.96 0.78,-15.5 c -0.22,-1.62 -0.71,-2.75 -1.58,-4.17 -0.75,-8.43 0,-17.57 1.51,-25.55 -3.13,-6.93 -1.86,-14.54 -0.63,-21.83 l -0.09,-5.49 c -2.24,0.05 -2.31,-1.52 -0.72,-2.88 -0.38,-5.6 0.65,-11.17 2.16,-16.54 -1.35,-0.31 -1.01,-0.65 0,-1.44 0.8,-0.32 0.77,-0.69 2.16,-0.72 z"
       id="path14" />
    <path
       class="cls-55"
       d="m 196.5,403.4 c 0.41,4.34 0.86,9.84 -0.72,13.66 -2.91,-6.88 -0.42,-14.99 -1.48,-21.89 -0.33,-2.15 -1.9,-3.9 -2.12,-6.52 -0.4,-4.8 1.42,-10.33 0.67,-15.75 -0.46,-3.33 -2.86,-6.27 -2.87,-10.13 0,-4.76 2.9,-10.97 2.98,-15.82 0.06,-3.78 -1.91,-7.06 -2.24,-10.75 -0.73,-8.16 3.15,-16.12 2.15,-23.72 -0.24,-1.85 -2.76,-4.3 -0.68,-6.15 5.36,11.34 2.57,51.09 2.85,65.83 0.2,10.39 1.37,20.79 1.47,31.25 z"
       id="path16" />
    <path
       class="cls-62"
       d="m 172.75,404.84 c 1.43,2.07 2.19,4.29 2.28,6.65 l -0.14,14.43 c 1.71,11.38 2.19,22.81 1.46,34.3 -0.77,1.52 -1.7,1.92 -2.88,2.88 -0.46,-0.87 -0.68,-0.51 -0.72,0.72 -0.91,0.55 -1.8,1.25 -2.88,1.44 -1.06,-3.34 -1.49,-7.57 -1.69,-11.23 -0.63,-11.55 -1.28,-24.18 0.25,-35.51 -1.1,-4.93 -0.73,-10.47 1.44,-15.1 1.54,0.13 1.83,0.56 2.88,1.44 z"
       id="path18" />
    <path
       class="cls-62"
       d="m 184.27,302.73 c 0,0.48 0,0.96 0,1.44 -1.49,5.38 -2.53,10.93 -2.16,16.54 0.21,0.88 0.48,2 0.72,2.88 -0.4,6.62 -0.78,13.21 -1.12,19.77 0.84,2.65 0.97,4.93 0.4,6.84 l 0.71,2 c -0.58,13.99 -0.96,27.88 -1.13,41.65 l -1.74,1.66 c -0.31,-0.2 -1.39,0.41 -2.16,-0.72 -0.51,-5.39 0.09,-10.78 0.82,-16.12 l -0.82,-4.74 c 0,-1.44 -0.02,-2.88 0,-4.31 0.44,-6.44 0.92,-12.91 1.43,-19.4 0.34,3.36 -0.13,5.75 -1.43,7.17 l 0.72,-40.99 c 0.29,1.71 0.29,0.28 0,-4.31 0.46,-4.5 1.39,-7.61 5.76,-9.35 z"
       id="path20" />
    <path
       class="cls-62"
       d="m 169.15,403.4 c -1.08,4.9 -1.3,10.19 -1.44,15.1 -0.49,4.18 -0.49,8.33 0,12.45 l -0.73,0.85 c 0.45,0.06 0.81,0.13 0.81,0.22 0.15,2.64 0.96,20.88 0.15,21.6 -0.26,0.23 -0.6,0.37 -0.96,0.48 2.36,1.39 2.48,8.64 1.44,11.15 -1.28,-0.07 -1.17,-0.08 -2.16,-0.72 l -1.35,-2.83 c -1.16,-12.36 -1.91,-24.64 -2.24,-36.83 1.13,-4.56 1.37,-9.08 0.71,-13.55 0.79,-3.06 2.15,-7.38 5.76,-7.91 z"
       id="path22" />
    <path
       class="cls-16"
       d="m 183.55,350.91 c 0.52,8.55 -2.4,15.3 -0.55,23.92 0.38,1.78 1.83,2.9 2.03,5.2 0.42,4.94 -0.97,13.75 -0.76,19.05 -1.11,-1.36 -2.86,-2.64 -4.32,-3.6 1.27,-6.49 0.59,-13.2 0.75,-19.8 0.2,-8.39 1.17,-16.99 1.4,-25.5 0.3,-1.21 0.78,-0.97 1.44,0.72 z"
       id="path24" />
    <path
       class="cls-16"
       d="m 176.35,460.21 c -2.8,-7.25 -0.29,-14.57 -0.73,-21.92 -0.25,-4.2 -1.87,-8.77 -2.17,-12.93 -0.43,-5.93 0.75,-11.75 0.74,-17.65 h -2.15 c 0,0 -0.72,4.31 -0.72,4.31 -0.03,-2.41 -0.36,-5.27 1.43,-7.19 5.31,4.46 3.19,16.27 3.57,22.68 0.34,5.71 1.38,12.24 1.5,17.91 0.1,4.35 0.46,10.93 -1.47,14.78 z"
       id="path26" />
    <path
       class="cls-16"
       d="m 45.39,455.18 -0.72,0.15 -0.71,-5.19 c 0.09,-4.31 -0.72,-8.94 -0.72,-12.58 v -21.57 c 0,-0.97 1.48,-3.66 0.72,-5.4 h -2.15 c 0,0 -1.43,7.19 -1.43,7.19 0.16,-3.34 -0.82,-8.33 2.15,-10.78 1.87,1.24 3.32,3.12 3.63,5.36 1.03,7.49 0.75,35.64 -0.75,42.82 z"
       id="path28" />
    <path
       class="cls-16"
       d="m 166.28,464.53 c -1.76,-1.14 -2.54,-3.43 -2.82,-5.45 -1.67,-12.09 -3.02,-36.38 -0.06,-47.76 4.5,5.71 -0.33,10.76 -0.05,16.91 0.11,2.46 1.32,4.22 1.49,6.46 0.78,9.9 -0.96,20.05 1.43,29.85 z"
       id="path30" />
    <path
       class="cls-84"
       d="m 169.87,465.25 c -0.4,0.07 -1,0.02 -1.44,0 0.03,-1.53 0.07,-3.04 -0.09,-4.57 -0.18,-1.73 -1.35,-5.39 -1.35,-6.57 v -22.29 c 0,-0.56 -1.41,-2.28 -1.37,-4.23 0.05,-2.63 1.88,-6.56 2.09,-9.07 0.2,-0.63 0.44,-0.62 0.72,0 0.2,10.19 0.1,19.7 0.71,29.85 0.34,5.6 0.21,11.29 0.73,16.89 z"
       id="path32" />
    <path
       class="cls-16"
       d="m 24.53,341.56 c -0.2,0.63 -0.44,0.62 -0.72,0 -0.28,-2.4 -2.01,-5.26 -2.12,-7.65 -0.29,-6.21 -0.64,-16.86 0.04,-22.83 0.15,-1.3 0.44,-3.06 1.36,-4.04 1.17,4.14 0.55,8.93 0.9,13.13 0.65,7.87 0.51,13.41 0.54,21.39 z"
       id="path34" />
    <path
       class="cls-19"
       d="m 194.34,457.34 v -15.45 c 2.24,-8.29 1.2,-16.79 1.44,-24.82 0.13,-4.29 0.76,-9.01 0.72,-13.66 1.19,0.75 0.72,2.73 0.73,3.94 0.14,11.51 1.36,40.47 -2.89,49.99 z"
       id="path36" />
    <path
       class="cls-19"
       d="m 37.48,406.28 -1.19,8.89 c 2.2,9.78 1.28,20.7 0.46,30.66 L 35.29,434 c 1.33,-9.08 -0.46,-18.01 0.75,-27 0.5,-0.32 0.83,-0.55 1.44,-0.72 z"
       id="path38" />
    <path
       class="cls-84"
       d="m 173.47,463.09 c -0.26,0.21 -0.46,0.56 -0.72,0.72 -0.35,-10.81 -2.53,-21.64 -1.43,-32.36 1.65,0.71 1.99,3.82 2.14,5.4 0.81,8.33 -0.58,17.78 0,26.24 z"
       id="path40" />
    <path
       class="cls-10"
       d="m 24.53,385.43 -2.14,-8.36 c -0.67,-1.23 0.7,-2.97 0.7,-3.51 v -17.98 c 0,-4.13 1.28,-9.27 0.72,-14.02 h 0.72 c 0.05,14.61 -0.13,29.26 0,43.86 z"
       id="path42" />
    <path
       class="cls-19"
       d="m 12.29,457.34 c -0.42,-0.71 -0.56,-1.37 -0.72,-2.16 -1.31,-6.49 -1.11,-13.14 -1.51,-19.7 -0.1,-1.68 -1.17,-3.38 -1.23,-5.1 -0.07,-1.86 1.19,-4.62 0.59,-6.84 1,-1.4 2.12,6.67 2.18,7.52 0.3,4.14 -0.86,8.77 -0.7,12.2 0.16,3.76 4.26,9.65 1.4,14.07 z"
       id="path44" />
    <path
       class="cls-16"
       d="m 184.98,459.49 c -0.3,-0.34 -1.03,-0.52 -1.35,-1.14 -1.14,-2.25 -1.21,-12.21 -0.86,-15.08 0.03,-0.23 1.66,-2.54 2.21,-3.92 1.19,0.75 0.72,2.73 0.73,3.94 0.05,5.19 0.54,11.25 -0.73,16.19 z"
       id="path46" />
    <path
       class="cls-84"
       d="m 22.37,458.77 c -1.48,-3.33 1.68,-7.33 1.41,-11.06 -0.24,-3.32 -5.4,-7.09 -1.41,-9.79 0.54,1.3 2.07,1.96 2.51,2.89 0.6,1.29 -0.23,11.01 -0.53,13.1 -0.25,1.73 -0.84,3.5 -1.97,4.86 z"
       id="path48" />
    <path
       class="cls-10"
       d="m 40.36,463.09 c 2.18,-6.18 -0.75,-12.77 -0.03,-19.08 0.12,-1.08 0.15,-2.22 1.47,-2.49 v 16.18 c 0,0.12 0.71,2.1 1.43,1.79 1.11,-3.01 0.66,-6.2 0.73,-9.34 l 1.44,5.03 c -0.69,3.29 -1.65,6.76 -5.04,7.91 z"
       id="path50" />
    <path
       class="cls-19"
       d="M 33.16,454.46 C 31.6,447.41 31.12,440.8 31,433.61 c 2.87,5.07 2.2,11.33 2.8,16.99 0.12,1.18 0.59,3.12 -0.64,3.86 z"
       id="path52" />
    <path
       class="cls-10"
       d="m 177.79,369.61 c 0.04,-4.06 -0.16,-8.17 0,-12.22 0,-0.09 0.71,-0.81 0.75,-1.74 0.18,-3.95 -0.2,-7.97 -0.02,-11.92 0.94,-0.19 1.14,1.33 1.25,1.97 0.75,4.73 -0.79,9.51 -1.11,14.21 -0.18,2.55 1.28,6.87 -0.86,9.71 z"
       id="path54" />
    <path
       class="cls-84"
       d="m 177.79,394.78 c -1.19,-1.75 -0.73,-9.58 -0.72,-12.22 l 0.72,-7.91 c 0,-0.24 0,-0.48 0,-0.72 l 1.5,4.68 z"
       id="path56" />
    <path
       class="cls-16"
       d="m 5.82,369.61 c 5.57,3.41 1.53,8.82 0,13.66 -0.02,-4.54 -0.02,-9.12 0,-13.66 z"
       id="path58" />
    <path
       class="cls-16"
       d="m 20.93,303.45 -1.26,3.41 -1.61,10.25 c 0.68,-5.08 -1.38,-11.24 0.71,-15.82 1.24,0.78 1.34,1.09 2.16,2.16 z"
       id="path60" />
    <path
       class="cls-16"
       d="m 178.51,312.08 1.47,14.78 -1.47,8.23 c 0.17,-6.21 -0.26,-12.49 0,-18.69 0.06,-1.41 -0.14,-2.93 0,-4.31 z"
       id="path62" />
    <path
       class="cls-84"
       d="m 5.82,361.7 c 0.06,-5.02 -0.13,-10.08 0,-15.1 1.6,1.1 1.47,2.97 1.49,4.67 0.03,3.08 -0.7,7.43 -1.49,10.43 z"
       id="path64" />
    <path
       class="cls-90"
       d="m 185.7,414.19 c -0.18,-3.85 -0.52,-7.65 -0.72,-11.51 2.43,2.75 3.4,8.74 0.72,11.51 z"
       id="path66" />
    <path
       class="cls-45"
       d="m 156.92,418.51 c 0.26,4.51 -0.1,9.14 0,13.66 l -0.72,2.16 c -1.83,-2.31 -0.1,-5.65 0.03,-8.24 0.14,-2.94 -0.3,-6.14 -0.03,-9.02 0.97,-1.43 1.39,0.21 0.72,1.44 z"
       id="path68" />
    <path
       class="cls-63"
       d="m 182.11,422.1 c -0.08,0.48 -0.16,0.79 -0.72,0.72 -0.23,-4.28 -0.58,-10.01 -1.44,-14.38 -0.1,-1.04 0.14,-1.52 0.72,-1.44 0.66,4.75 1.26,10.13 1.44,15.1 z"
       id="path70" />
    <path
       class="cls-50"
       d="m 168.44,418.51 h -0.72 c 0.21,-2.46 -0.66,-4.62 -0.54,-6.64 0.14,-2.46 1.37,-5.97 1.98,-8.46 0.22,-0.03 0.5,-0.02 0.72,0 -1.47,5.15 -1.54,9.78 -1.44,15.1 z"
       id="path72" />
    <path
       class="cls-64"
       d="m 51.87,420.66 c -0.2,0.63 -0.44,0.62 -0.72,0 -0.12,-3.51 0.06,-5.76 -0.72,-9.35 1.53,-1.71 0.41,-4.93 0.72,-7.19 1.38,4.83 0.68,11.27 0.72,16.54 z"
       id="path74" />
    <path
       class="cls-80"
       d="m 51.87,432.17 c -0.2,0.63 -0.44,0.62 -0.72,0 -0.05,-3.82 0.13,-7.69 0,-11.51 h 0.72 c 0.03,3.82 0.05,7.68 0,11.51 z"
       id="path76" />
    <path
       class="cls-90"
       d="m 182.11,422.1 c 0.13,3.58 -0.09,7.2 0,10.78 -1.26,0.17 -0.68,-1.63 -0.71,-2.5 -0.1,-2.51 0.13,-5.06 0,-7.56 l 0.72,-0.72 z"
       id="path78" />
    <path
       class="cls-71"
       d="m 179.23,405.56 c -0.53,-1.71 -1.79,-3.06 -1.43,-5.03 2.85,0.69 1.72,1.46 2.15,2.88 0.24,1.34 0,2.06 -0.72,2.16 z"
       id="path80" />
    <path
       class="cls-62"
       d="m 177.07,382.55 c 0.01,-2.49 -0.6,-6.01 0.72,-7.91 -0.01,2.49 0.61,6.01 -0.72,7.91 z"
       id="path82" />
    <path
       class="cls-8"
       d="m 156.92,438.64 c 0.16,1.15 -0.08,1.63 -0.72,1.44 -0.16,-1.74 -0.08,-3.97 0,-5.75 0.03,-0.79 -0.22,-1.81 0.72,-2.16 0.05,2.14 -0.15,4.34 0,6.47 z"
       id="path84" />
    <path
       class="cls-64"
       d="m 30.28,351.63 c -1.26,0.17 -0.67,-1.63 -0.71,-2.5 -0.07,-1.55 0.04,-3.13 0,-4.68 1.26,-0.17 0.67,1.63 0.71,2.5 0.07,1.55 -0.04,3.13 0,4.68 z"
       id="path86" />
    <path
       class="cls-35"
       d="m 156.92,438.64 c 0.06,0.88 1.51,3.28 0.71,5.03 -1.18,0.13 -1.32,-2.34 -1.43,-3.59 z"
       id="path88" />
    <path
       class="cls-69"
       d="m 51.87,432.17 c -0.01,1 0.29,5.76 -0.36,5.76 -0.69,-1.67 -0.34,-3.93 -0.36,-5.76 z"
       id="path90" />
    <path
       class="cls-77"
       d="m 180.67,407 -0.72,1.44 c -0.22,-1.14 -0.38,-1.77 -0.72,-2.88 l 0.72,-2.16 c 0.51,1.67 0.49,1.94 0.72,3.6 z"
       id="path92" />
    <path
       class="cls-76"
       d="m 157.64,415.63 c -0.1,0.92 0.42,2.37 -0.72,2.88 -0.03,-0.61 -0.03,-1.25 -0.72,-1.44 0.11,-1.15 0.7,-1.97 0.72,-2.16 z"
       id="path94" />
    <path
       class="cls-55"
       d="m 16.6,435.04 -2.14,-12.59 c 1.03,-9.95 -0.15,-19.62 -0.52,-29.31 -0.15,-3.96 2.86,-10.16 3.3,-14.63 0.59,-6.11 -1.04,-10.15 -1.38,-15.7 -0.36,-5.82 1.39,-11.61 0.75,-17.29 -0.37,-3.3 -2.27,-5.74 -2.22,-9.34 0.08,-5.79 2.87,-12.48 3.29,-18.35 0.47,2.46 1.59,5.06 1.79,7.56 0.26,3.25 -0.84,5.76 -0.74,8.59 0.1,2.83 1.81,5.49 2.13,8.01 0.69,5.46 0,20.8 -0.72,26.49 -0.32,2.5 -2.1,5.35 -2.1,7.97 0,2.91 1.88,8.01 2.15,11.51 1.19,15.59 -2.86,31.55 -3.6,47.09 z"
       id="path96" />
    <path
       class="cls-16"
       d="m 9.41,391.89 c -1.28,-0.43 -0.83,-4.34 -0.7,-5.38 0.56,-4.85 2.67,-8.34 2.19,-13.71 -0.76,-8.49 -0.45,-10.32 -0.04,-18.66 0.23,-4.78 -0.18,-9.6 0,-14.38 0.03,-0.87 -0.54,-2.67 0.71,-2.51 -0.35,3.04 1.85,5.4 2.18,8.24 0.61,5.22 -1.72,10.79 -1.49,16.6 0.13,3.2 1.25,6.3 1.46,9.32 0.49,7.28 -1.44,13.93 -4.31,20.48 z"
       id="path98" />
    <path
       class="cls-16"
       d="m 14.45,300.58 c 1.22,0.28 0.68,2.24 0.72,3.24 0.18,4.53 -0.11,9.11 -0.01,13.65 l -3.58,16.19 c -0.26,-4.07 0.7,-7.8 0.75,-11.9 0.03,-2.68 -0.94,-4.92 -0.75,-7.86 0.29,-4.52 3.45,-8.68 2.88,-13.32 z"
       id="path100" />
    <path
       class="cls-16"
       d="m 10.13,417.78 -2.22,-6.1 2.58,-14.76 c 1.88,-0.04 -0.35,7.95 -0.38,9.04 -0.06,1.94 0.78,3.48 0.74,4.99 -0.05,2.09 -1.28,4.48 -0.73,6.83 z"
       id="path102" />
    <path
       class="cls-84"
       d="m 31.72,419.22 c 1.54,1.42 0.38,4.59 0.71,6.47 -1.67,-1 -0.27,-4.81 -0.71,-6.47 z"
       id="path104" />
    <path
       class="cls-90"
       d="m 37.47,459.49 c -1.66,-1 -0.28,-4.81 -0.7,-6.46 1.65,0.94 0.29,4.8 0.7,6.46 z"
       id="path106" />
    <path
       class="cls-19"
       d="m 183.55,350.91 -1.44,-0.72 c 0.13,-4.54 -1.61,-7.52 -1.47,-11.89 0.15,-4.61 2.12,-9.96 2.19,-14.72 2.3,8.46 -0.65,11.4 -0.65,19.13 0,2.49 1.22,5.78 1.37,8.19 z"
       id="path108" />
    <path
       class="cls-19"
       d="m 182.11,320.71 c -1.25,-5.32 -0.81,-11.67 2.16,-16.54 0.03,5.5 -1.72,11.08 -2.16,16.54 z"
       id="path110" />
    <path
       d="m 56.19,440.44 c -0.81,4.67 -4.58,3.57 -5,3.99 -0.32,0.31 0.07,7.22 -0.12,8.87 -0.61,5.27 -3.4,13.83 -9.21,15.24 -7.49,1.81 -11.85,-2.81 -13.01,-9.75 l -3.58,4.68 c -5.62,4.77 -13.11,2.65 -17.28,-2.89 -9.38,-12.47 -6.87,-48.2 -7.17,-64.03 -0.49,-26.46 -2.17,-56.34 1.51,-82.57 2.01,-14.31 8.42,-27.15 23.25,-14.08 l 2.55,5.71 c -0.69,-7.02 -0.59,-14.14 0.02,-21.2 0.17,-2.02 2.18,-10.88 2.04,-11.45 -0.23,-0.95 -2.08,-1.35 -2.79,-2.2 -2.22,-2.64 -1.98,-9.89 -0.85,-13.13 0.39,-1.13 2.06,-2.89 2.09,-3.44 0.04,-0.72 -1.77,-2.74 -2.16,-4.08 -3.34,-11.57 5.23,-37.06 6.61,-50.65 1.14,-11.23 -0.35,-22.56 4.27,-33.12 0.76,-1.74 3.38,-4.75 3.6,-5.78 0.46,-2.21 -0.87,-11.24 -0.61,-14.96 0.41,-5.78 1.12,-9.8 6.15,-13.27 3.44,-2.38 7.46,-1.83 10.47,1.05 5.11,4.89 -0.1,12.4 0.69,18.37 4.77,-2.03 9.77,-3.73 14.4,-6.1 7.88,-4.03 10.54,-4.56 9.36,-14.41 -0.5,-4.18 -4.7,-6.31 -7.19,-9.35 -1.62,-1.98 -5.03,-7.56 -6.44,-8.67 -2.06,-1.62 -4.88,-1.22 -7.25,-3.54 -5.01,-4.9 -13.93,-32.23 1.43,-27.69 -0.92,-3.61 0.99,-9.61 0.72,-12.56 -0.18,-1.91 -3.34,-5.89 -3.62,-10.06 -0.44,-6.64 2.21,-16.42 6.53,-21.58 2.85,-3.41 6.49,-4.5 9.33,-7.22 2.65,-2.54 8.14,-12.75 10.09,-13.65 4.05,-1.88 5.63,2.13 6.1,5.38 5.69,-6.87 12.32,-11.14 11.16,2.16 6.32,-1.38 12.3,-9.91 15.02,-15.55 1.1,-2.28 1.81,-8.22 4.18,-8.83 3.63,-0.93 5.74,7.8 5.97,10.36 0.27,2.98 -1.1,8.47 -0.76,9.95 0.15,0.67 2.64,0.85 3.81,2.83 4.28,7.22 3.07,20.08 -0.03,27.61 -0.55,1.33 -3.58,5.99 -3.55,6.35 0.03,0.36 1.88,2.1 2.38,3.19 2.54,5.48 4.24,11.96 3.92,18.01 12.74,-4.12 12.06,10.72 9.19,18.9 -1.98,5.62 -6.42,13.68 -13.4,12.14 -3.65,9.69 -12.76,14.77 -8.58,25.97 2.59,6.95 3.5,3.31 6.84,4.57 0.98,0.37 1.49,2.13 2.81,3.04 3.84,2.66 11.05,4.07 15.02,7.28 0.98,-6.12 -2.29,-11.56 1.48,-17.2 5.69,-8.51 17.44,-2.89 17.44,6.06 0,2.54 -1.91,4.41 -2.09,6.47 -0.19,2.24 0.87,5.15 0.83,7.94 -0.04,2.79 -1.44,6.54 -1.08,9.04 0.22,1.54 1.84,4.16 2.26,6.25 3.53,17.44 7.04,32.81 11.1,50.03 1.76,7.46 5.12,22.8 1.97,29.49 -0.87,1.86 -2.53,2.85 -2.79,4.76 8.34,-0.53 8.36,12.69 4.95,17.54 -1.07,1.52 -3.4,1.63 -3.57,2.35 -0.3,1.33 0.76,4.39 0.81,6.33 0.18,7.38 -0.56,14.62 -0.75,21.96 2.62,-0.82 3.64,-2.87 6.49,-3.93 5.72,-2.12 10.05,-0.52 13.65,4.3 4.65,6.22 4.78,21.44 5.07,29.45 0.59,16.26 -0.37,32.67 -0.06,48.96 0.42,22.46 4.49,51.97 -0.17,73.84 -2.26,10.59 -11.27,18.99 -19.94,8.47 -1.6,7.4 -14.82,10.98 -19.45,5.4 -4.32,-5.21 -3.02,-18.25 -3.66,-18.99 -0.44,-0.51 -3.73,0.18 -5.14,-2.41 -1.05,-1.94 -1.91,-9.84 -2.01,-12.37 -0.21,-5.3 0.78,-10.25 0.75,-15.49 -2.48,0.63 -5.31,-0.92 -7.49,-0.71 -1.65,0.16 -4.28,1.72 -6.62,2.08 -9.39,1.42 -23.84,0.95 -30.15,-7.13 -14.7,12.47 -33.57,4.57 -50.72,5.77 -0.8,6.59 1.09,15.68 0,21.93 z M 73.46,56.09 c 6.47,6.61 10.4,3.38 17.26,1.79 6,-1.39 13.78,-3.68 19.79,-3.21 5.93,0.46 6.34,3.12 11.89,-1.81 6.54,-5.81 6.58,-15.36 5.02,-23.38 -0.47,-0.47 -9.15,9.94 -10.69,3.8 -0.35,-1.4 3.62,-8.08 4.33,-10.53 0.38,-1.31 2.42,-11.92 0.97,-11.98 -3.79,7.98 -11.07,17.55 -19.6,20.71 -5.88,2.18 -5.31,-2.44 -5.23,-7.04 -4.58,3.52 -11.16,12.03 -11.86,0.72 -2.88,4.19 -5.43,8.16 -9.36,11.5 -1.64,1.39 -3.94,1.99 -5.68,3.67 -3.99,3.87 -5,9.87 -6.19,15.02 2.46,-0.13 3.3,-0.58 2.89,2.17 2.78,-3.08 3.19,-1.61 5.75,-1.44 0.22,0.01 0.55,0.05 0.72,0 z m 2.87,6.47 C 75.84,62.37 75.37,62.07 74.89,61.84 73.13,61 71.61,59.8 69.86,58.96 c -2.18,6.57 -3.84,13.89 -2.89,20.85 -0.26,1.74 0.18,3.93 0,5.75 -0.23,2.2 -0.42,6.21 0.72,7.91 -0.14,1.12 0.08,2.42 0,3.6 -4.5,2.14 -3.09,-6.01 -4.32,-8.63 -0.35,-0.76 -1.45,-2.18 -2.17,-2.5 -5.15,-2.27 -4.06,2.73 -3.59,6.09 0.52,3.64 1.36,6.05 2.88,9.35 1.03,2.23 2.23,5.81 4.8,6.35 3.36,0.71 -0.06,-3.97 4.55,-3.47 1.47,1.68 2.56,6.14 4.02,8.56 2.78,4.63 6.22,6.61 9.31,10.12 5.62,6.39 6.79,13.23 17.26,12.24 8,-0.76 16.38,-14.78 20.37,-21.35 2.46,-4.06 5.21,-8.7 6.61,-13.16 4.35,-2.53 1.83,1.93 4.68,3.58 0.48,-0.01 5.2,-7.33 5.4,-7.9 1.76,-2.81 3.57,-10.92 0.72,-12.94 -1.32,-0.94 -5.09,1.53 -5.6,2.33 -0.51,0.8 0,1.96 -0.16,2.7 -0.29,1.32 -0.82,1.56 -0.72,3.6 l -2.87,1.44 -0.73,-3.59 c 0.04,-0.23 -0.04,-0.49 0,-0.72 0.32,-1.69 1.79,-5.02 -1.44,-5.03 -0.25,-0.99 -0.48,-1.87 -0.72,-2.88 -0.31,-1.32 0.52,-1.88 -0.72,-3.6 -1.63,-2.27 -1.54,-0.52 -2.16,-4.31 -0.32,-1.97 0.92,-2.46 -2.16,-2.16 -2.15,-2.89 -0.97,-2.26 -0.72,-5.03 0.17,-1.92 0.41,-2.66 0.72,-4.31 0,0.48 0,0.96 0,1.44 -0.01,2.31 -0.96,6.5 2.16,6.47 1.07,2.68 2.97,5.05 3.61,7.91 2.67,0.7 1,-4.3 0.71,-5.75 -0.48,-2.46 -2.89,-11.56 -4.32,-12.94 -1.09,-1.06 -0.9,-0.45 -2.16,0 -0.58,0.21 -1.19,0.65 -1.44,0.72 -4.96,1.4 -8.66,-1.64 -13.22,-1.4 -10.02,0.54 -19.85,8.2 -29.96,4.27 z m 8.63,72.63 c 0.26,-0.54 -1.6,-3.67 -1.79,-3.59 -2.1,0.9 0.32,2.75 1.79,3.59 z m 31.67,4.31 c -0.83,-2.33 -1.3,-4.79 -1.81,-7.2 -1.6,0.04 -4.52,4.24 -6.16,5.35 -6.63,4.52 -16.86,4.15 -21.91,-2.46 -1.81,-0.75 -0.96,3.76 -1.07,4.31 -0.23,1.14 -1.52,2.67 -1.29,3.86 0.43,2.26 16.87,13.49 19.53,13.25 2.3,-0.21 13.89,-13.43 13.93,-15.33 0.02,-0.9 -1.1,-1.42 -1.23,-1.77 z m 41.72,-3.59 c 0.24,-1.36 -0.84,-2.39 -2.15,-2.15 z m -7.18,4.31 c -1.39,3.9 -0.07,7.38 -1.4,11.21 0.04,1.9 6.24,3.91 7.87,5.33 0.23,-4.25 0.05,-8.2 -0.71,-12.22 -0.66,-3.52 -3.22,-11.44 -5.76,-4.31 z m -102.9,-1.44 c -4.87,2.36 -2.21,14.01 -2.87,18.7 5.3,-3.94 7.76,-1.12 7.21,-9.05 -0.07,-0.95 -0.72,-1.55 -0.74,-1.74 -0.33,-2.54 -0.33,-9.49 -3.6,-7.91 z m 69.8,10.07 c -0.88,0.87 -2.55,1.18 -2.15,2.88 1.67,-0.31 1.65,-1.99 2.15,-2.88 0.88,-0.87 2.55,-1.18 2.15,-2.88 -1.67,0.31 -1.65,1.99 -2.15,2.88 z m 26.62,7.91 c -5.38,-4.5 -12.02,-6.92 -18.28,-10.01 -4.43,4.82 -15.71,22.99 -22.38,22.99 -5.6,0 -22.99,-16.49 -26.67,-21.61 l -18.57,9.28 c -0.75,0.31 -0.39,0.95 -0.45,1.49 -0.78,7.72 3.74,15.42 3.66,22.65 -0.11,9.49 -4.08,21.47 -4.37,31.65 -0.15,5.41 1.01,10.31 0.68,15.69 0.3,1.21 5.5,2.21 6.5,2.64 8,3.44 14.38,3.67 21.81,8.77 12.11,8.31 8.92,18.7 6.25,31.5 -0.05,0.23 0.05,0.49 0,0.72 -0.06,0.28 -1.4,1.23 -1.44,2.16 0,0.25 1.14,4.58 1.25,4.8 2.4,5.08 15.44,3.39 19.89,1.57 5.15,-2.11 7.91,-8.03 14.12,-7.82 -0.08,-2.83 -1.77,-1.97 -3.59,-1.43 -1.12,0.48 -3.05,-0.75 -3.6,-0.72 -10.24,-7.51 -8.54,-19.69 -3.74,-29.98 3.1,-6.64 7.3,-8.81 14.24,-10.22 4.7,-0.95 3.39,0.26 8.2,-2.23 1.84,-0.96 4.46,-1.03 5.02,-3.97 1,-5.34 0.03,-19.3 -0.71,-25.14 -0.61,-4.81 -3.52,-12.41 -3.51,-16.47 0.02,-7.63 4.13,-17.99 7.75,-24.66 0.43,-1.58 -1.68,-1.34 -2.07,-1.67 z M 90,153.88 c -0.77,-1.31 -2.09,-3.05 -3.6,-2.86 0.77,1.31 2.09,3.05 3.6,2.86 z m 18.71,5.04 c -5.22,3.74 -10.47,-0.35 -15.11,-2.88 -0.88,-0.48 -1.44,-1.86 -2.88,-1.43 0.21,1.1 1.42,1.54 2.16,2.15 1.56,1.28 9.95,7.66 11.15,7.67 1.86,0 4.19,-3.54 5.4,-4.79 1.96,-2.03 4.83,-4.45 5.75,-7.19 -2.49,1.09 -4.65,5.17 -6.47,6.47 z m -53.96,5.03 c -0.27,-1.42 -0.53,-2.88 -0.73,-4.32 -5.9,0.88 -7.86,2.72 -10.44,7.9 -4.85,9.74 -4.09,24.06 -5.48,34.79 -1.3,10.08 -6.22,24.98 -6.4,33.88 -0.02,0.81 -0.23,1.26 0.73,1.08 1.17,-2.86 4.7,-6.91 7.2,-8.62 3.97,-2.72 9.2,-2.86 13.66,-1.44 0.33,-6.73 -0.42,-13.8 0.01,-20.49 0.54,-8.29 4.39,-20.02 4.36,-27.33 -0.01,-3.38 -2.18,-11.48 -2.93,-15.46 z m 99.29,-2.16 c -1.12,-0.88 -2.22,-1.69 -3.59,-2.16 -2.99,6.85 -6.32,13.56 -6.83,21.23 4.1,14.11 4.8,28.82 4.66,43.49 2.1,-0.83 6.56,-2.25 8.63,-2.16 5.25,0.24 11.94,6.51 14.75,10.78 -0.01,-11.88 -5.45,-23.43 -8.05,-35.1 -2.03,-9.09 -2.49,-19.47 -4.9,-28.19 -1.07,-3.88 -1.49,-5.39 -4.68,-7.9 z m -25.9,74.79 c -3.3,0.85 -5.84,2.93 -7.34,5.97 -0.85,1.72 -4.36,13.16 -4.21,14.49 0.08,0.76 2,0.2 2.61,1.06 1.03,1.47 -0.67,6.36 2.12,7.96 0.92,-1.25 -1.17,-2.8 -0.05,-4.35 2.58,-3.57 7.8,5.05 8.33,7.22 1.4,0.12 0.55,-1.43 0.36,-2.16 -0.47,-1.84 -3.01,-5.2 1.07,-5.75 0.23,0.2 1.87,2.42 2.16,2.88 1.37,2.15 2.41,8.16 6.05,7.92 4.19,-0.27 7.44,-3.48 6.18,-7.91 -1.01,-1.13 -8.35,7.58 -7.91,-0.72 1.43,-3.52 3.96,-9.95 4.97,-13.38 0.95,-3.21 -0.47,-5.8 0.79,-8.91 1.17,-0.83 3.4,2.54 3.59,3.59 0.31,1.73 -0.7,5.92 0.67,6.88 6.87,0.11 18.98,2.23 23.8,-3.63 2.18,-2.65 0.2,-3.41 -0.73,-6.12 -0.61,-1.78 -1.06,-5.05 -2.53,-6.46 -1.02,-0.98 -2.49,-0.85 -3.5,-1.54 -2.16,-1.47 -2.81,-5.17 -6.62,-5.66 -5.41,0.72 -10.22,1.55 -14.95,4.4 -1.14,0.69 -1.03,1.98 -2.97,2.79 -3.1,1.3 -8.11,0.47 -11.88,1.43 z m -94.98,8.63 c -3.26,10.06 8.46,6.7 14.74,7.2 3.47,0.28 7.42,1.19 10.83,1.99 1.13,-0.21 1.19,-3.95 1.77,-5.59 0.72,-2.02 0.58,-2.35 2.88,-2.16 1.45,3.54 -0.61,7.11 0.05,11.11 0.66,4 3.51,8.69 3.57,13.74 0.04,3.55 -2.72,7.31 -2.18,11.1 1.74,2.08 5.54,-7.77 5.75,-8.63 0.94,-3.88 0,-4.5 0.05,-7.51 0.08,-3.8 2.71,-3.09 4.98,-1.12 2.02,6.47 -0.71,12.33 -3.6,17.97 5.2,-1.63 6.44,-8.28 7.2,-12.94 0.16,-0.96 0.76,-1.75 0.78,-3.22 0.04,-2.48 -2.42,-7.29 1.7,-6.88 2.23,0.22 1.89,1.76 2.55,2.9 -0.11,2.38 0.15,4.82 0,7.19 -0.02,0.26 -1.67,2.19 -0.36,2.88 0.27,0 0.97,-2.36 1.08,-2.88 0.32,-1.51 0.51,-4.05 0.72,-5.75 0.44,-3.56 -1.5,-9.94 4.31,-5.75 0.08,-5.26 0.93,-8.41 -3.23,-12.22 -1.27,-1.16 -8.84,-5.92 -10.25,-6.3 -4.42,-1.19 -6.09,2.06 -9.01,1.83 -3.67,-0.29 -0.97,-3.95 -2.39,-4.96 -0.58,-0.41 -12.29,-5.16 -13.21,-5.35 -1.93,-0.4 -4.96,-0.64 -6.85,-0.28 -0.75,0.14 -6.76,3.64 -7.29,4.22 -0.7,0.77 -4.18,8.05 -4.62,9.41 z m 113.69,13.66 c 1.28,-1.28 -2.57,-5.65 -2.87,0 0.69,-0.1 2.69,0.18 2.87,0 z M 38.2,258.15 c -7.31,0.32 -8.48,0.42 -7.19,8.63 5.12,-2.51 15.54,1.72 19.42,-0.72 2.04,-1.29 1.78,-2.8 0.89,-4.85 -1.2,-2.77 -2.49,-1.9 -4.49,-2.34 -2.88,-0.63 -4.15,-0.7 -7.2,-0.72 -0.48,0 -0.96,-0.02 -1.44,0 z m 117.28,0.72 c -2.73,0.35 -3.77,-1.21 -4.25,2.58 -0.33,2.57 -0.26,6.25 2.78,7.2 4.88,1.53 14.34,-9.95 19.81,-0.43 1.09,-0.86 1.57,-1.47 1.8,-2.87 0.27,-1.62 0.47,-6.55 -1.18,-7.09 -3.06,-1 -15.11,0.13 -18.97,0.62 z m -97.13,17.25 c 6.06,-1.65 1.95,-10.04 1.43,-14.37 z m 112.24,0.73 c 0.57,-4.54 -1.51,-9.77 -6.71,-6.53 -3.37,2.1 -1.38,16.21 -1.92,20.19 1.91,-0.08 3.86,0.11 5.76,0 0.95,-0.06 1.93,0.05 2.88,0 -0.41,-4.31 0.55,-9.49 0,-13.67 z m -123.04,3.23 c 0.45,4.19 -0.33,9.03 0,13.3 l 2.03,-5.52 c 4.65,-5.19 3.75,-11.15 5.16,-17.48 -3.17,0.91 -5.93,1.91 -9.35,1.44 -0.32,0.28 2.01,6.93 2.16,8.27 z m 103.62,-6.83 c -0.68,-0.2 -1.45,-1.54 -2.41,-1.36 -0.9,0.17 -4.08,3.96 -6.22,3.53 1.96,2.04 3.8,3.58 5.75,5.74 7.88,8.72 6.89,19.3 6.51,30.59 -0.06,1.66 -1.54,8.12 -0.71,8.92 0.17,0.16 2.75,0.02 3.55,0.75 l -0.71,-47.46 c -2,0.19 -3.86,-0.16 -5.76,-0.72 z m -110.81,0.72 c -1.63,-2.82 -4.34,-0.95 -5.4,1.43 -0.95,2.13 -2.55,19.05 -1.79,20.14 2.79,-1.26 4.89,-0.23 7.91,-1.44 0.37,-0.15 1.3,0.43 1.47,-0.45 -0.31,-5.91 0.88,-14.37 -2.19,-19.68 z m 75.55,110.02 c 7.84,-2.62 11.97,-4.31 20.13,-1.06 2.67,1.06 6.16,4.14 8.65,3.94 5.83,-0.46 5.99,-12.65 5.75,-16.89 -0.62,-10.64 -2.94,-22.28 -2.93,-33.07 0.01,-13.37 5.52,-36.45 0.18,-48.31 -1.69,-3.75 -3.32,-3.97 -5.88,-5.99 -1.86,-1.47 -2.17,-2.48 -5.04,-3.6 -15.14,-5.9 -20.42,7.19 -22.81,19.27 -5.58,28.17 -0.67,57.71 -5.28,86.05 0.52,3.82 5.36,0.29 7.23,-0.34 z M 83.53,282.6 c -3.18,2.73 -2.55,1.93 -6.26,3.45 -1.6,0.66 -2.49,2.54 -4.54,2 -4.02,-1.04 -1.27,-2.21 -6.47,-0.42 -4.43,0.67 -5.83,-1.03 -6.83,-5.03 -13.59,13.93 -5.32,33.13 -2.73,49.46 1.03,6.49 1.92,14.11 2.36,20.65 0.83,12.2 0.3,24.15 -0.71,36.3 0.69,0.79 4.95,-3.18 5.75,-3.59 11.92,-6.14 22.32,-3.36 34.54,-0.72 0.82,0.18 1.72,1.07 2.87,0.72 -1.55,-14.05 -5.38,-28.04 -7.1,-42.16 -2.15,-17.68 -1.12,-38.99 -4.5,-55.91 -0.26,-1.3 -2.08,-7.61 -3.15,-7.62 -1.24,0.77 -2.22,1.98 -3.24,2.86 z m 28.06,4.32 c -5.34,0.65 -11.34,1.53 -16.54,0 l 2.88,35.23 c 2.73,-2.53 5.44,-1.14 8.62,-0.72 -0.06,-11.66 1.81,-23.34 5.04,-34.51 z m 56.13,8.62 c -1.66,-0.1 -3.37,0.07 -5.04,0 v 37.75 c 1.7,-0.44 5.03,0.13 5.76,-1.08 l 2.17,-36.25 c -0.13,-0.8 -2.07,-0.37 -2.89,-0.42 z m -127.36,3.6 c -2.34,0.13 -4.69,1.18 -7.2,0.72 l 0.72,33.09 8.64,-0.72 v -33.08 c -0.71,0.01 -1.44,-0.04 -2.16,0 z m -25.91,1.44 c -5.29,1.27 -5.31,6.48 -6.25,11.37 -2.04,10.68 -2.11,23.64 -2.39,34.65 -0.13,5.02 0.06,10.08 0,15.1 -0.03,2.63 0,5.28 0,7.91 -0.02,4.54 -0.02,9.12 0,13.66 0.08,16.48 -0.44,35.13 0.73,51.41 0.44,6.19 1.88,15.21 5.03,20.5 0.16,0.79 0.3,1.45 0.72,2.16 2.13,3.6 7.27,4.83 10.07,1.44 1.13,-1.36 1.72,-3.13 1.97,-4.86 0.3,-2.09 1.14,-11.81 0.53,-13.1 -0.43,-0.92 -1.96,-1.58 -2.51,-2.89 -1.74,-4.2 0.89,-24.58 1.49,-30.51 0.89,-8.83 0.74,-13.2 0.67,-21.99 -0.13,-14.61 0.05,-29.26 0,-43.86 -0.03,-7.98 0.1,-13.52 -0.54,-21.39 -0.34,-4.2 0.27,-8.99 -0.9,-13.13 -0.39,-1.38 -1.31,-2.48 -2.16,-3.6 -0.85,-1.12 -0.92,-1.38 -2.16,-2.16 -0.87,-0.55 -1.59,-1.23 -2.73,-1.33 -1.14,-0.1 -1.33,0.54 -1.59,0.61 z m 169.82,2.15 c -4.36,1.73 -5.3,4.84 -5.76,9.35 -0.14,1.38 0.06,2.9 0,4.31 l -0.72,40.99 c -0.16,4.05 0.04,8.17 0,12.22 -0.02,1.44 0,2.88 0,4.31 0,0.24 0,0.48 0,0.72 -1.32,1.9 -0.71,5.42 -0.72,7.91 -0.01,2.65 -0.47,10.47 0.72,12.22 0.76,1.13 1.85,0.52 2.16,0.72 1.45,0.96 3.21,2.23 4.32,3.6 0.04,1.06 0.65,2.3 0.72,3.6 0.2,3.85 0.54,7.65 0.72,11.51 0.38,8 2.23,17.68 -0.72,25.17 -0.54,1.38 -2.18,3.69 -2.21,3.92 -0.35,2.87 -0.28,12.83 0.86,15.08 0.32,0.63 1.04,0.8 1.35,1.14 1.26,1.42 0.71,1.45 2.88,2.16 1.09,0.36 1.34,0.77 2.88,0 1.38,-0.69 2.99,-2.95 3.6,-4.31 4.25,-9.52 3.03,-38.47 2.89,-49.99 -0.02,-1.22 0.46,-3.2 -0.73,-3.94 -0.1,-10.46 -1.27,-20.86 -1.47,-31.25 -0.28,-14.74 2.51,-54.49 -2.85,-65.83 -0.56,-1.19 -1.71,-2.92 -2.88,-3.6 -0.92,-0.53 -1.81,-0.74 -2.88,-0.72 -1.39,0.03 -1.36,0.4 -2.16,0.72 z m -133.84,24.45 -2.15,-8.62 v 8.63 c 0,0 2.15,0 2.15,0 z m 55.4,10.79 v -10.43 c 0,-0.91 -6.66,-5.11 -7.24,2.12 -0.09,1.17 0.42,7.9 0.8,8.27 0.38,0.37 5.23,-0.19 6.44,0.04 z m 51.73,-12.14 c -0.14,-0.16 -4.07,-0.97 -4.23,-0.8 v 8.63 c 0,0 4.32,0 4.32,0 -0.29,-1.47 0.45,-7.21 -0.09,-7.83 z m -105.69,7.1 c -4.73,-1 -3.87,4.63 -4.32,7.91 h 5.04 c 0,0 -0.72,-7.91 -0.72,-7.91 z m -9.36,5.04 -7.92,-0.72 1.45,24.45 c 1.23,-0.81 2.37,-0.54 3.59,-0.72 0.71,-0.11 2.72,0.17 2.88,0 0.8,-0.83 -0.61,-20.03 0,-23.01 z m 123.05,0 c -0.73,0.18 -2.75,0.41 -2.93,1.19 0.9,6.09 1.33,12.48 0.24,18.61 0.25,1.36 2.43,1.01 3.41,1.05 5.14,0.22 2.27,-2.26 2.13,-6.08 -0.19,-5.14 0.21,-10.35 0.02,-15.49 -0.97,0.63 -1.94,0.49 -2.87,0.72 z m -7.95,2.91 c -0.35,-0.34 -3.33,0.13 -4.29,-0.04 -1.82,13.36 5.86,32.67 -0.09,44.86 -0.85,1.75 -4.07,4.79 -4.15,5.22 -0.11,0.66 1.43,2.53 1.75,3.83 1.25,5.07 1.37,8.49 -0.17,13.55 -0.63,2.08 -1.97,3.22 -2.37,5.17 1.06,-0.02 2.55,0.33 3.26,-0.69 0.9,-1.28 1.45,-9.33 2.84,-12.26 1.21,-2.55 4.7,-4.39 4.73,-4.73 0.07,-0.9 -1.72,-4.32 -2.01,-5.87 -2.97,-15.76 2.27,-28.53 1.28,-43.71 -0.05,-0.84 -0.59,-5.14 -0.78,-5.33 z m -51.77,1.4 h -5.76 c 0,0 4.33,28.04 4.33,28.04 l 1.46,-9.67 z m -75.56,9.35 c -0.04,-1.55 0.08,-3.13 0,-4.68 -0.04,-0.88 0.55,-2.67 -0.71,-2.5 0.04,1.55 -0.08,3.13 0,4.68 0.04,0.88 -0.55,2.67 0.71,2.5 z m 17.27,-6.47 v 15.46 c 0,1.11 1.95,1.81 2.36,2.69 2.27,4.85 0.52,7.99 0.48,12.38 -0.03,3.66 -0.66,17 0.14,19.33 0.23,0.66 4.18,3.5 4.91,4.79 -0.69,-1.39 1.61,-5.46 1.43,-5.7 -0.81,-1.1 -4.07,-1.05 -4.25,-5.5 -0.2,-4.98 2.01,-13.13 2.11,-18.64 0.02,-1.21 -0.71,-2.42 -0.72,-3.6 -0.05,-7.11 -0.13,-14.14 -0.72,-21.21 h -5.76 z m -17.99,10.07 v 11.51 c 1.93,-0.96 1.52,-4.98 1.47,-6.86 -0.03,-1.23 0.1,-4.31 -1.47,-4.64 z m 134.56,8.63 c -0.65,0.1 -1.41,-0.02 -1.82,0.68 -1.98,3.34 -1.09,20.9 0,25.23 1.85,7.39 2.6,6.05 9.73,7.16 0.05,-0.71 -0.04,-1.44 0,-2.15 0.46,-6.89 -0.26,-14.27 -0.03,-21.24 0.1,-3.07 1.36,-6.38 0.75,-9.68 -2.7,0.29 -6.06,-0.4 -8.64,0 z m -126.64,2.87 c -1.57,0.3 -2,0.45 -2.69,1.98 -2.26,4.97 -1.28,20.7 0.02,26.22 1.13,4.83 2.96,6.19 8.43,4.87 0.64,-0.15 1.13,-0.51 1.32,-1.18 0.1,-0.36 0.84,-5.36 0.84,-5.65 v -26.25 c -2.18,-0.64 -5.66,-0.44 -7.91,0 z m 85.98,21.57 c 2.77,0.71 8.04,-0.52 11.15,0 -0.86,-1.5 -4.57,-2.21 -6.12,-2.22 -2.03,0 -4.02,1.1 -6.12,0.78 -0.02,0.45 0.84,1.37 1.08,1.43 z m -39.93,-1.43 c -3.35,-0.13 -6.86,-0.28 -10.07,0.73 -0.17,1.25 1.63,0.68 2.5,0.71 1.92,0.07 4.25,0.16 6.13,0 1.25,-0.11 3.73,-0.26 3.59,-1.43 -0.71,-0.04 -1.44,0.02 -2.15,0 z m -10.79,5.75 c -1.47,-0.2 -5.02,-2.15 -6.12,-2.13 -5.29,0.11 -8.06,12.83 -5.71,16.48 4.59,7.14 20.8,8.29 28.38,7.22 10.56,-1.48 16.12,-3.28 12.45,-14.96 -1.45,-4.62 -4.5,-6.47 -7.1,-10.26 -6.28,3.51 -14.83,4.61 -21.9,3.64 z m 33.81,1.44 c -0.17,-0.94 0.63,-2.1 0.34,-2.9 -1.16,-3.26 -4.68,1.04 -0.34,2.9 z m 34.54,18.69 c 4.85,-2.9 5.91,-10.13 5.78,-15.42 -0.29,-11.72 -7.55,-4.52 -14.74,-3.97 -4.25,0.32 -8.56,-0.31 -12.62,-1.46 -2.34,-0.66 -3.45,-3.44 -6.44,-1.04 -2.76,2.21 -3.6,14.32 -2.59,17.61 2.34,7.67 24.67,7.84 30.62,4.28 z m -90.66,-1.44 c 0.78,3.58 0.6,5.84 0.72,9.35 0.13,3.82 -0.05,7.68 0,11.51 0.02,1.83 -0.33,4.09 0.36,5.76 0.65,0 0.35,-4.76 0.36,-5.76 0.05,-3.82 0.03,-7.68 0,-11.51 -0.04,-5.27 0.66,-11.71 -0.72,-16.54 -0.39,-1.36 -0.55,-2.66 -1.8,-3.59 -4.3,4.73 -1.2,3.99 0.53,8.13 0.43,1.03 0.35,1.75 0.55,2.66 z m 128.8,-5.75 c 0.34,1.1 0.5,1.74 0.72,2.88 0.86,4.38 1.21,10.1 1.44,14.38 0.13,2.5 -0.1,5.05 0,7.56 0.04,0.87 -0.54,2.67 0.71,2.5 -0.08,-3.58 0.13,-7.21 0,-10.78 -0.18,-4.97 -0.78,-10.35 -1.44,-15.1 -0.23,-1.66 -0.21,-1.92 -0.72,-3.6 -0.43,-1.41 0.7,-2.18 -2.15,-2.88 -0.35,1.97 0.9,3.32 1.43,5.03 z m -22.31,9.35 c -0.02,0.18 -0.61,1.01 -0.72,2.16 -0.27,2.88 0.17,6.08 0.03,9.02 -0.13,2.59 -1.86,5.93 -0.03,8.24 -0.08,1.78 -0.16,4.01 0,5.75 0.11,1.25 0.25,3.73 1.43,3.59 0.79,-1.75 -0.65,-4.15 -0.71,-5.03 -0.15,-2.13 0.05,-4.33 0,-6.47 -0.1,-4.52 0.26,-9.15 0,-13.66 1.14,-0.51 0.62,-1.95 0.72,-2.88 0.55,-5.16 1.86,-10.21 5.04,-14.37 -5.87,-0.79 -5.34,9.56 -5.76,13.66 z m 6.48,-3.6 c -2.95,11.38 -1.61,35.67 0.06,47.76 0.28,2.02 1.06,4.32 2.82,5.45 0.99,0.64 0.87,0.65 2.16,0.72 0.44,0.02 1.04,0.07 1.44,0 1.08,-0.19 1.97,-0.89 2.88,-1.44 0.25,-0.15 0.46,-0.51 0.72,-0.72 1.17,-0.96 2.11,-1.35 2.88,-2.88 1.94,-3.84 1.57,-10.42 1.47,-14.78 -0.13,-5.67 -1.17,-12.2 -1.5,-17.91 -0.38,-6.42 1.74,-18.22 -3.57,-22.68 -1.05,-0.88 -1.33,-1.31 -2.88,-1.44 -0.22,-0.02 -0.5,-0.03 -0.72,0 -3.61,0.53 -4.96,4.85 -5.76,7.91 z M 37.48,406.28 c -0.61,0.17 -0.94,0.4 -1.44,0.72 -0.31,0.2 -1.07,-0.01 -1.77,0.72 -2.62,2.73 -2.21,8.15 -2.55,11.51 -0.49,4.87 -0.8,9.27 -0.72,14.38 0.12,7.19 0.6,13.8 2.16,20.85 0.91,4.09 1.28,10.63 7.2,8.63 3.39,-1.15 4.35,-4.62 5.04,-7.91 1.5,-7.17 1.78,-35.33 0.75,-42.82 -0.31,-2.24 -1.76,-4.12 -3.63,-5.36 -2.6,-1.72 -2.47,-1.42 -5.04,-0.72 z m 22.3,7.18 -3.59,-3.59 v 3.6 c 0,0 3.59,-0.01 3.59,-0.01 z"
       id="path112" />
    <path
       class="cls-89"
       d="m 83.53,282.6 c 1.5,-1.02 1.59,-0.98 2.74,-0.08 1.54,1.2 4.49,22.04 4.69,26 0.84,23.51 3.74,46.71 8.7,69.61 0.76,2.85 0.42,5.04 -1.02,6.58 -12.22,-2.64 -22.62,-5.42 -34.54,0.72 -3.18,-4.63 4.77,-8.5 8.95,-9.58 8.25,-2.13 13.68,-0.71 21.27,1.83 2.34,0.78 1.32,-0.48 -0.06,-1.36 -5.45,-3.47 -10.68,-4.61 -17.13,-3.8 0.21,3.13 -11.56,5.41 -12.41,4.03 0.97,-10.47 1.52,-21.2 -0.48,-31.72 l -4.59,-29.2 c -1.73,-3.11 -1.1,-27.93 2.22,-28.17 1.36,0.63 2.82,0.69 4.39,0.18 5.2,-1.79 2.45,-0.62 6.47,0.42 2.05,0.53 2.94,-1.35 4.54,-2 3.71,-1.52 3.08,-0.72 6.26,-3.45 z"
       id="path114" />
    <path
       class="cls-89"
       d="m 141.81,282.6 2.22,2.76 c 3.17,7.94 2.97,16.74 2.69,25.16 -2.25,19.9 -3.71,38.89 1.32,58.36 1.55,7.19 0.43,13.19 -3.36,17.99 -2.49,0.19 -5.98,-2.88 -8.65,-3.94 -8.16,-3.25 -12.3,-1.55 -20.13,1.06 -3.88,-2.18 3.11,-9.62 6.48,-7.91 0.46,-0.1 0.7,-0.58 0.72,-1.44 0.6,-2.05 1.51,-1.94 2.16,0 5.69,-0.53 11.45,-0.29 17.27,0.72 -3.54,-8.76 -15.92,-7.5 -23.22,-4.04 -1.39,0.25 -1.96,-0.55 -2.63,-1.61 2.52,-19.23 2.58,-38.74 1.51,-58.47 0.37,-11.24 1.57,-31.17 16.41,-30.98 0.61,-0.59 1.34,-1 2.17,-1.24 2.86,1.12 3.18,2.13 5.04,3.6 z"
       id="path116" />
    <path
       class="cls-36"
       d="m 72.74,56.09 c -2.56,-0.17 -2.97,-1.64 -5.75,1.44 0.42,-2.74 -0.43,-2.29 -2.89,-2.17 1.2,-5.15 2.2,-11.15 6.19,-15.02 1.74,-1.68 4.04,-2.28 5.68,-3.67 3.92,-3.34 6.48,-7.31 9.36,-11.5 0.7,11.31 7.28,2.79 11.86,-0.72 -0.08,4.6 -0.65,9.22 5.23,7.04 8.53,-3.17 15.81,-12.73 19.6,-20.71 1.44,0.06 -0.59,10.66 -0.97,11.98 -0.71,2.45 -4.68,9.13 -4.33,10.53 1.54,6.13 10.22,-4.28 10.69,-3.8 1.56,8.02 1.52,17.57 -5.02,23.38 -5.55,4.92 -5.95,2.27 -11.89,1.81 -6.01,-0.47 -13.79,1.82 -19.79,3.21 -6.86,1.59 -10.79,4.83 -17.26,-1.79 l 5.58,-6.07 c 0.48,0.53 0.53,1.12 0.17,1.76 -1.07,4.14 1.33,4.14 7.2,0 0.81,0.39 1.15,1.33 0.96,2.21 3.79,-2.44 5.63,-2.46 5.52,-0.06 l 1.52,-0.93 c 3.52,-5.37 5.67,-5.63 6.45,-0.79 1.92,-3.55 3.74,-4.24 5.46,-2.09 2.65,-1.11 4.69,-1.65 6.1,-1.64 -3.07,0.51 -5.28,0.02 -6.62,-1.48 -2.84,3.33 -5.38,2.63 -4.46,-1.92 -1.78,2.11 -3.32,2.45 -4.61,1 -1.43,3.02 -3.19,4.67 -5.29,4.96 0.16,0.38 0.26,0.7 0.16,0.79 -3.16,2.91 -4.86,2.89 -3.92,-1.86 0,-0.02 -0.06,0.35 -0.25,0.4 -0.31,0.08 -0.66,0.03 -1.02,-0.05 -0.45,1.74 -6.9,6.14 -8.02,4.9 l 1.88,-4.66 c 0.16,-1.15 0.22,-1.83 -1.05,-1.67 -1.18,2.7 -3.34,5.09 -6.48,7.19 z"
       id="path118" />
    <path
       class="cls-41"
       d="m 136.78,279 c -0.37,3.92 -3.71,2.33 -5.94,3.05 -5.14,1.66 -6.93,5.54 -8.46,10.24 -5.52,16.99 -0.82,37.03 -2.12,54.69 l -2.18,23.34 c 5.14,-2.56 10.99,-3.67 16.73,-2.7 2.51,0.42 11.01,4.59 7.73,7.74 -5.8,-1 -11.56,-1.24 -17.27,-0.72 -0.64,0.04 -1.73,-0.15 -2.16,0 1.13,1.16 0.89,1.64 -0.72,1.44 -2.67,1.72 -6.92,3.88 -6.48,7.91 -1.87,0.63 -6.71,4.15 -7.23,0.34 4.61,-28.34 -0.29,-57.88 5.28,-86.05 2.39,-12.08 7.67,-25.17 22.81,-19.27 z"
       id="path120" />
    <path
       class="cls-41"
       d="m 66.26,287.63 c -1.16,0.4 -3.36,0.71 -3.5,0.82 -0.24,0.18 -1.71,4.83 -1.91,5.64 -3.43,13.4 5.33,45.73 6.13,62.22 0.31,6.51 0.25,13.47 -1.43,19.76 l 10.79,-2.88 -2.87,-0.72 c 0.04,-0.23 -0.1,-0.61 0,-0.7 1.04,-0.95 9.96,-0.95 11.87,-0.73 2.33,0.27 12.28,4.15 11.82,6.74 -0.66,3.75 -6.56,-0.59 -9.01,-0.92 -7.42,-1.02 -22.63,-1.11 -24.04,8.57 -0.81,0.42 -5.07,4.38 -5.75,3.59 1.01,-12.15 1.54,-24.1 0.71,-36.3 -0.44,-6.54 -1.33,-14.16 -2.36,-20.65 -2.59,-16.33 -10.86,-35.54 2.73,-49.46 1,4 2.4,5.7 6.83,5.03 z"
       id="path122" />
    <path
       class="cls-11"
       d="m 72.74,392.62 c 7.07,0.97 15.62,-0.13 21.9,-3.64 2.6,3.79 5.64,5.64 7.1,10.26 3.67,11.67 -1.89,13.47 -12.45,14.96 l -4.79,-1.03 c -12.2,-3.1 -21.04,-6.24 -14.42,-20.89 l 2.65,0.35 z"
       id="path124" />
    <path
       class="cls-11"
       d="m 141.09,412.75 c -5.43,-1.17 -10.98,-2.03 -16.66,-2.57 -5.39,-1.2 -7.7,-4.79 -7.85,-10.1 -0.06,-2.3 0.3,-8.13 2.92,-8.18 4.06,1.15 8.37,1.79 12.62,1.46 7.2,-0.55 14.45,-7.75 14.74,3.97 0.13,5.29 -0.93,12.51 -5.78,15.42 z"
       id="path126" />
    <path
       class="cls-14"
       d="m 144.69,386.87 c 5.42,-12.2 -0.1,-25 -1.35,-37.12 -2.28,-21.98 6.94,-45.79 -1.53,-67.15 2.56,2.02 4.19,2.24 5.88,5.99 5.34,11.87 -0.17,34.94 -0.18,48.31 0,10.79 2.31,22.43 2.93,33.07 0.24,4.24 0.08,16.44 -5.75,16.89 z"
       id="path128" />
    <path
       class="cls-14"
       d="m 111.59,286.92 c -3.22,11.17 -5.1,22.84 -5.04,34.51 -3.19,-0.42 -5.89,-1.81 -8.62,0.72 l -2.88,-35.23 c 5.2,1.54 11.19,0.65 16.54,0 z"
       id="path130" />
    <path
       class="cls-94"
       d="m 119.51,391.9 c -2.25,7.26 -3.12,15.69 6.3,17.07 5.73,0.84 9.98,-0.13 15.28,3.78 -5.95,3.56 -28.28,3.39 -30.62,-4.28 -1,-3.29 -0.17,-15.4 2.59,-17.61 2.99,-2.4 4.1,0.38 6.44,1.04 z"
       id="path132" />
    <path
       class="cls-82"
       d="m 37.48,366.73 c 1.35,0.6 3.29,0.8 5.81,0.6 1.4,0.85 1.29,28.82 -0.05,32.47 -5.48,1.31 -7.3,-0.05 -8.43,-4.87 -1.29,-5.51 -2.28,-21.25 -0.02,-26.22 0.7,-1.53 1.12,-1.68 2.69,-1.98 z"
       id="path134" />
    <path
       class="cls-94"
       d="m 72.74,392.62 c -1.69,-0.36 -1.59,0.78 -1.98,1.94 -6.02,17.9 8.63,12.32 18.53,19.63 -7.58,1.06 -23.79,-0.09 -28.38,-7.22 -2.35,-3.65 0.42,-16.37 5.71,-16.48 1.1,-0.02 4.65,1.93 6.12,2.13 z"
       id="path136" />
    <path
       class="cls-58"
       d="m 157.61,340.88 c 0.19,0.19 0.73,4.49 0.78,5.33 0.99,15.18 -4.26,27.95 -1.28,43.71 0.29,1.56 2.09,4.97 2.01,5.87 -0.03,0.34 -3.52,2.18 -4.73,4.73 -1.39,2.93 -1.94,10.98 -2.84,12.26 -0.71,1.02 -2.21,0.67 -3.26,0.69 0.4,-1.96 1.74,-3.09 2.37,-5.17 1.54,-5.05 1.42,-8.47 0.17,-13.55 -0.32,-1.3 -1.86,-3.17 -1.75,-3.83 0.07,-0.44 3.29,-3.47 4.15,-5.22 5.95,-12.19 -1.73,-31.5 0.09,-44.86 0.95,0.17 3.93,-0.3 4.29,0.04 z"
       id="path138" />
    <path
       class="cls-58"
       d="m 47.55,345.16 h 5.76 c 0.59,7.07 0.67,14.1 0.72,21.2 0,1.19 0.74,2.4 0.72,3.6 -0.1,5.51 -2.31,13.66 -2.11,18.64 0.18,4.45 3.44,4.4 4.25,5.5 0.17,0.24 -2.12,4.31 -1.43,5.7 -0.74,-1.29 -4.69,-4.13 -4.91,-4.79 -0.8,-2.33 -0.17,-15.67 -0.14,-19.33 0.04,-4.38 1.79,-7.53 -0.48,-12.38 -0.41,-0.88 -2.36,-1.58 -2.36,-2.69 v -15.46 z"
       id="path140" />
    <path
       class="cls-28"
       d="m 83.53,282.6 c 1.02,-0.88 2,-2.1 3.24,-2.86 1.07,0.01 2.89,6.33 3.15,7.62 3.38,16.92 2.34,38.24 4.5,55.91 1.72,14.11 5.55,28.11 7.1,42.16 -1.16,0.35 -2.06,-0.54 -2.87,-0.72 1.43,-14.67 -4.75,-28.51 -6.47,-42.79 -2.41,-20.03 -1,-36.97 -6.87,-57.17 -0.35,-1.19 0.14,-2.55 -1.78,-2.14 z"
       id="path142" />
    <path
       class="cls-82"
       d="m 164.12,363.86 c 5.43,1.14 5.9,3.29 5.88,8.67 l -0.22,16.71 c 0.22,1.99 0.59,4.42 2.26,5.54 -0.05,0.71 0.04,1.44 0,2.15 -7.13,-1.11 -7.88,0.23 -9.73,-7.16 -1.09,-4.33 -1.98,-21.89 0,-25.23 0.41,-0.69 1.17,-0.57 1.82,-0.68 z"
       id="path144" />
    <path
       class="cls-62"
       d="m 151.17,273.25 c 1.9,0.56 3.76,0.9 5.76,0.72 l 0.71,47.46 c -0.8,-0.74 -3.38,-0.59 -3.55,-0.75 -0.83,-0.8 0.65,-7.26 0.71,-8.92 0.39,-11.29 1.38,-21.87 -6.51,-30.59 -0.34,-2 0.88,-6.72 2.88,-7.91 z"
       id="path146" />
    <path
       class="cls-82"
       d="m 40.36,299.14 c -0.33,10.5 -0.21,21.05 0.36,31.64 1.07,-0.21 1.49,0.34 1.8,1.44 l -8.64,0.72 -0.72,-33.09 c 2.51,0.46 4.86,-0.59 7.2,-0.72 z"
       id="path148" />
    <path
       class="cls-82"
       d="m 167.72,295.54 1.11,3.67 -1.64,30.34 c 0.18,0.96 0.6,1.85 1.25,2.67 -0.73,1.2 -4.06,0.63 -5.76,1.08 v -37.75 c 1.67,0.07 3.38,-0.1 5.04,0 z"
       id="path150" />
    <path
       class="cls-62"
       d="m 155.48,258.87 c 0.79,0.26 1.48,0.61 1.48,1.48 l 9.65,-1.23 c 4.79,-0.53 8.76,1.1 9.02,6.22 -0.23,1.4 -0.71,2.01 -1.8,2.87 -5.47,-9.52 -14.93,1.96 -19.81,0.43 -3.04,-0.95 -3.11,-4.63 -2.78,-7.2 0.48,-3.79 1.51,-2.23 4.25,-2.58 z"
       id="path152" />
    <path
       class="cls-93"
       d="m 40.36,299.14 c 0.72,-0.04 1.45,0 2.16,0 v 33.08 c 0,0 -3.6,0 -3.6,0 0.66,-9.91 -0.85,-20.84 -0.05,-30.63 0.12,-1.45 0.1,-1.76 1.49,-2.45 z"
       id="path154" />
    <path
       class="cls-93"
       d="m 164.12,363.86 c 2.58,-0.4 5.94,0.29 8.64,0 0.6,3.3 -0.65,6.62 -0.75,9.68 -0.23,6.97 0.49,14.36 0.03,21.24 -1.2,1.03 -1.81,0.33 -2.46,-0.77 -3.17,-5.31 0.51,-20.53 -1.84,-27.5 -0.28,-0.82 -3.35,-0.7 -3.62,-2.65 z"
       id="path156" />
    <path
       class="cls-82"
       d="m 167.72,290.51 c -1.9,0.12 -3.86,-0.08 -5.76,0 0.54,-3.99 -1.44,-18.1 1.92,-20.19 5.2,-3.24 7.29,1.99 6.71,6.53 l -1.49,-0.23 c 0.17,4.28 0.16,8.56 -0.04,12.85 l -1.35,1.05 z"
       id="path158" />
    <path
       class="cls-82"
       d="m 40.36,273.97 c 0.56,1.3 0.02,1.65 -1.19,1.86 1.45,5.08 1.84,10.41 1.15,15.99 l 0.75,2.28 c -3.02,1.2 -5.11,0.18 -7.91,1.44 -0.77,-1.09 0.84,-18.01 1.79,-20.14 1.07,-2.38 3.77,-4.26 5.4,-1.43 z"
       id="path160" />
    <path
       class="cls-43"
       d="m 167.72,295.54 c 0.82,0.05 2.76,-0.38 2.89,0.42 l -2.17,36.25 c -1.04,-0.27 -3.06,0.9 -2.84,-1.03 1.38,-11.83 0.87,-23.82 2.12,-35.65 z"
       id="path162" />
    <path
       class="cls-62"
       d="m 47.55,280.08 c -0.14,-1.34 -2.48,-7.98 -2.16,-8.27 3.42,0.47 6.19,-0.52 9.35,-1.44 -1.42,6.34 -0.51,12.29 -5.16,17.48 l -2.03,5.52 c -0.33,-4.27 0.45,-9.11 0,-13.3 z"
       id="path164" />
    <path
       class="cls-82"
       d="m 42.51,337.97 c 0.05,1.2 -0.66,1.69 -2.12,1.48 l 0.64,20.44 -1.41,1.09 c -1.22,0.18 -2.36,-0.09 -3.59,0.72 l -1.45,-24.45 7.92,0.72 z"
       id="path166" />
    <path
       class="cls-62"
       d="m 38.2,258.15 c 0.6,0.94 1.12,1.98 1.58,3.12 3.78,0.62 7.37,1.6 10.77,2.94 l -0.11,1.85 c -3.88,2.45 -14.3,-1.78 -19.42,0.72 -1.29,-8.21 -0.12,-8.31 7.19,-8.63 z"
       id="path168" />
    <path
       class="cls-67"
       d="m 37.48,366.73 c 2.26,-0.44 5.74,-0.64 7.91,0 v 26.25 c 0,0.29 -0.74,5.29 -0.84,5.65 -0.19,0.67 -0.67,1.03 -1.32,1.18 l -0.75,-31.6 c -0.77,-0.74 -5.59,1.42 -5,-1.48 z"
       id="path170" />
    <path
       class="cls-62"
       d="m 105.83,337.97 c -1.21,-0.23 -6.05,0.34 -6.44,-0.04 -0.39,-0.38 -0.89,-7.11 -0.8,-8.27 0.58,-7.23 7.24,-3.03 7.24,-2.12 z"
       id="path172" />
    <path
       class="cls-82"
       d="m 151.17,140.22 c 1.83,-0.12 3.33,1.36 4.5,4.44 l 1.25,-0.12 c 0.76,4.03 0.94,7.97 0.71,12.22 -1.63,-1.42 -7.83,-3.43 -7.87,-5.33 1.33,-3.84 0.02,-7.31 1.4,-11.21 z"
       id="path174" />
    <path
       class="cls-34"
       d="m 42.51,337.97 c -0.61,2.99 0.8,22.19 0,23.01 -0.16,0.17 -2.17,-0.11 -2.88,0 l -0.72,-23.01 z"
       id="path176" />
    <path
       class="cls-65"
       d="m 165.56,337.97 c 0.93,-0.23 1.9,-0.08 2.87,-0.72 0.18,5.14 -0.21,10.34 -0.02,15.49 0.14,3.82 3.01,6.3 -2.13,6.08 -1.21,-0.06 -2.01,-0.51 -2.4,-1.34 -0.32,-1.01 0.11,-17.81 0.67,-18.55 0.28,-0.36 0.63,-0.67 1.01,-0.96 z"
       id="path178" />
    <path
       class="cls-93"
       d="m 40.36,273.97 c 3.07,5.31 1.88,13.77 2.19,19.68 -0.18,0.88 -1.11,0.31 -1.47,0.45 -2.52,0.09 -1.99,0.44 -2.16,-1.76 -0.44,-5.58 1.71,-13.03 -2.14,-17.29 z"
       id="path180" />
    <path
       class="cls-55"
       d="m 39.64,258.15 7.2,0.72 c 2,0.44 3.29,-0.43 4.49,2.34 0.89,2.05 1.15,3.56 -0.89,4.85 -3.42,-4.17 -15.01,-0.23 -12.23,-7.91 0.48,-0.02 0.96,0 1.44,0 z"
       id="path182" />
    <path
       class="cls-16"
       d="m 175.63,265.34 c -5.07,-9.02 -12.38,-3.23 -19.07,-3.57 -2.11,-0.11 -0.75,-1.9 -1.08,-2.9 3.86,-0.49 15.91,-1.62 18.97,-0.62 1.65,0.54 1.45,5.47 1.18,7.09 z"
       id="path184" />
    <path
       class="cls-49"
       d="m 170.59,276.85 c 0.56,4.18 -0.41,9.36 0,13.67 -0.95,0.05 -1.93,-0.06 -2.88,0 -0.73,-6.1 1.89,-13.96 -2.14,-19.06 2.69,-3.31 4.79,3.68 5.02,5.39 z"
       id="path186" />
    <path
       class="cls-74"
       d="m 151.17,273.25 c -0.18,2.45 -1,6.44 -2.88,7.91 -1.95,-2.16 -3.79,-3.7 -5.75,-5.74 2.14,0.43 5.32,-3.36 6.22,-3.53 0.96,-0.18 1.73,1.16 2.41,1.36 z"
       id="path188" />
    <path
       class="cls-82"
       d="m 165.56,337.97 c -0.26,6.08 -1.27,12.29 -0.77,18.4 0.12,1.44 0.1,1.76 1.49,2.45 -0.98,-0.04 -3.16,0.31 -3.41,-1.05 1.1,-6.13 0.66,-12.52 -0.24,-18.61 0.18,-0.79 2.2,-1.02 2.93,-1.19 z"
       id="path190" />
    <path
       class="cls-3"
       d="m 157.56,325.83 c 0.54,0.62 -0.21,6.36 0.09,7.83 h -4.33 c 0,0 0,-8.63 0,-8.63 0.16,-0.17 4.09,0.63 4.23,0.8 z"
       id="path192" />
    <path
       class="cls-3"
       d="m 51.87,332.93 0.72,7.91 h -5.04 c 0.44,-3.28 -0.41,-8.91 4.32,-7.91 z"
       id="path194" />
    <path
       class="cls-52"
       d="m 156.92,144.54 -1.07,2.87 -4.69,-7.18 c 2.53,-7.12 5.09,0.8 5.76,4.31 z"
       id="path196" />
    <path
       class="cls-44"
       d="m 58.35,276.12 1.43,-14.37 c 0.52,4.33 4.63,12.72 -1.43,14.37 z"
       id="path198" />
    <path
       class="cls-12"
       d="m 156.92,414.91 c 0.42,-4.09 -0.11,-14.45 5.76,-13.66 -3.18,4.17 -4.49,9.22 -5.04,14.37 -0.9,0.9 -0.93,0.51 -0.72,-0.72 z"
       id="path200" />
    <path
       class="cls-9"
       d="m 51.15,404.12 c 0.42,2.36 0.49,4.72 0.22,7.08 l -0.94,0.11 c -0.2,-0.91 -0.11,-1.62 -0.55,-2.66 -1.74,-4.14 -4.83,-3.4 -0.53,-8.13 1.25,0.93 1.41,2.23 1.8,3.59 z"
       id="path202" />
    <path
       class="cls-72"
       d="m 123.46,388.3 c -0.24,-0.06 -1.1,-0.98 -1.08,-1.43 2.09,0.31 4.09,-0.79 6.12,-0.78 1.55,0 5.26,0.72 6.12,2.22 -3.11,-0.52 -8.38,0.71 -11.15,0 z"
       id="path204" />
    <path
       class="cls-78"
       d="m 83.53,386.87 c 0.82,0.43 0.34,0.91 -1.44,1.44 -1.87,0.16 -4.21,0.07 -6.13,0 -0.87,-0.03 -2.67,0.54 -2.5,-0.71 3.21,-1.01 6.72,-0.86 10.07,-0.73 z"
       id="path206" />
    <path
       class="cls-38"
       d="m 79.21,51.77 -0.36,-0.71 c -1.35,0.97 -4.09,4.62 -5.4,5.02 -0.17,0.05 -0.5,0.01 -0.72,0 l 6.48,-7.19 c 2.08,-1.13 1.5,2.4 0,2.88 z"
       id="path208" />
    <polygon
       class="cls-3"
       points="48.28,318.56 50.43,327.18 48.27,327.19 "
       id="polygon210" />
    <polygon
       class="cls-87"
       points="56.19,409.88 59.78,413.46 56.18,413.48 "
       id="polygon212" />
    <path
       class="cls-62"
       d="m 46.83,258.87 c -2.26,-0.31 -5.49,0.81 -7.2,-0.72 3.05,0.02 4.31,0.09 7.2,0.72 z"
       id="path214" />
    <path
       class="cls-91"
       d="m 83.53,386.87 c 0.72,0.03 1.44,-0.03 2.15,0 0.14,1.17 -2.34,1.33 -3.59,1.43 l 1.44,-1.44 z"
       id="path216" />
    <path
       class="cls-99"
       d="m 158.35,135.91 -2.15,-2.15 c 1.31,-0.24 2.39,0.79 2.15,2.15 z"
       id="path218" />
    <path
       class="cls-31"
       d="m 123.1,374.64 c 0.44,1.52 1.87,1.35 3.09,1.58 6.12,1.19 9.84,0.77 14.68,5.46 0.39,0.38 2.59,1.37 1.65,2.3 -0.43,0.42 -6.15,-4.28 -7.7,-4.88 -4.13,-1.6 -8.78,-0.83 -12.44,-3.02 0.09,-0.06 0.1,-1.22 0.72,-1.44 z"
       id="path220" />
    <path
       class="cls-56"
       d="m 142.53,375.36 c -1.84,1.77 -13.47,-0.93 -17.27,-0.72 5.81,-3.4 11.46,-0.4 17.27,0.72 z"
       id="path222" />
    <path
       class="cls-7"
       d="m 91.44,51.05 6.12,-8.61 0.37,3.58 c 0.37,0.41 7.19,-8.19 4.32,2.16 1.83,-0.9 2.59,-3.39 5.03,-2.88 v 2.17 c 1.28,-0.53 4.19,-0.65 5.4,-0.39 1.08,0.23 1.29,1.63 2.56,1.53 2.38,-0.18 3.77,-2.99 5.7,-4.02 -0.43,3.32 -3.03,6.32 -6.29,7.07 -2.16,0.5 -1.35,-1.12 -2.1,-1.31 -3.4,-0.88 -5.53,1.68 -7.06,1.47 -0.47,-0.07 -0.07,-2.24 -1.8,-1.47 -1.67,4.32 -4.62,4.83 -4.69,-0.72 -2,1.56 -3.47,6.57 -6.12,4.31 -1,-1.07 -1.48,-2.03 -1.44,-2.88 z"
       id="path224" />
    <path
       class="cls-86"
       d="m 86.41,50.34 c 0.48,-1.24 2.42,-4.35 3.25,-5.77 0.24,-0.41 0.7,-2.78 1.79,-1.41 0.9,1.14 -3.75,7.84 -3.6,9.7 l 3.6,-1.79 h 1.43 c 0,0 0,2.88 0,2.88 -0.5,-0.42 -0.7,-1.59 -1.07,-1.43 -1.25,0.52 -3.14,3.36 -5.03,2.87 -1.89,-0.49 -0.48,-2.67 -0.37,-3.6 -0.81,-0.1 -0.81,-0.58 0,-1.44 z"
       id="path226" />
    <path
       class="cls-60"
       d="m 79.21,48.9 4.31,-5.75 -4.31,11.5 c 0.82,0.82 6.11,-3.58 7.19,-4.31 -0.03,0.07 0.11,0.53 0,1.44 -2.77,1.82 -5.68,5.45 -9.35,3.96 0.82,-1.2 1.63,-2.62 2.15,-3.96 0.38,-0.98 1.28,-1.33 0,-2.88 z"
       id="path228" />
    <path
       class="cls-88"
       d="m 144.69,156.76 0.56,1.13 c -5.8,10.97 -10.51,21.44 -8.52,34.41 l 2.97,25.35 c 0.61,4.3 0.12,7.97 -1.48,11.01 -4.81,2.49 -3.51,1.28 -8.2,2.23 -6.94,1.4 -11.14,3.58 -14.24,10.22 -4.81,10.29 -6.51,22.47 3.74,29.98 0,1.49 -4.32,2.99 -6.04,3.4 -3.68,0.88 -12.56,1.69 -14.83,-1.25 2.7,-1.02 -0.55,-1.73 -2.72,-1.7 -1.32,0.97 -2.33,1.06 -3.04,0.26 2.66,-12.8 5.85,-23.19 -6.25,-31.5 -7.43,-5.1 -13.81,-5.33 -21.81,-8.77 -0.41,-0.51 -0.79,-1.04 -1.09,-1.61 -0.3,-0.57 -0.57,-1.11 -0.6,-1.66 -1.02,-15.2 -0.27,-27.83 2.32,-42.29 l -2.15,-5.89 c -0.84,-7.27 -2.49,-14.33 -4.95,-21.17 0.05,-0.54 -0.3,-1.18 0.45,-1.49 l 18.57,-9.28 c 3.69,5.12 21.07,21.61 26.67,21.61 6.66,0 17.94,-18.17 22.38,-22.99 6.26,3.09 12.9,5.51 18.28,10.01 z"
       id="path230" />
    <path
       class="cls-33"
       d="m 119.51,64 c 0.35,0.51 0.59,1.23 0.72,2.16 -0.25,2.77 -1.43,2.14 0.72,5.03 1.42,0.21 1.93,0.75 2.16,2.16 0.62,3.79 0.52,2.04 2.16,4.31 l 0.72,3.6 c 0.24,1.01 0.47,1.89 0.72,2.88 1.84,0.94 1.8,3.18 1.44,5.03 -0.04,0.23 0.04,0.49 0,0.72 -0.6,3.31 0.04,4.68 3.43,3.17 l 0.17,1.14 c 1.38,4.99 0.1,5.32 -4.32,5.75 -5.57,12.61 -13.16,23.11 -22.77,31.49 -0.96,0.38 -4.2,1.14 -4.81,1.18 -4.35,0.3 -6.84,-1.54 -10.04,-4.4 -12.58,-9.75 -17.99,-21.64 -22.11,-36.9 -0.64,-2.73 0.18,-6.92 1.44,-9.35 l -0.3,-1.43 c 2.17,-5.01 4.18,-10.17 6.01,-15.48 l 1.48,0.38 1.62,-0.92 c 6.02,1.59 12.05,0.66 18.1,-2.79 l 0.78,0.83 c 0.03,-0.42 0.11,-0.78 0.34,-0.96 0.67,-0.53 13.91,-0.81 15.18,-0.48 l 1.04,1.44 c 0.64,-2.15 5.7,-0.46 6.12,1.44 z"
       id="path232" />
    <path
       class="cls-33"
       d="m 33.16,245.21 c 0.44,-1.36 3.91,-8.63 4.62,-9.41 0.53,-0.58 6.53,-4.08 7.29,-4.22 1.89,-0.36 4.92,-0.12 6.85,0.28 0.91,0.19 12.62,4.94 13.21,5.35 1.43,1.01 -1.27,4.67 2.39,4.96 2.92,0.23 4.59,-3.02 9.01,-1.83 1.41,0.38 8.98,5.14 10.25,6.3 4.16,3.81 3.31,6.96 3.23,12.22 -5.81,-4.18 -3.87,2.2 -4.31,5.75 -0.73,0.73 -1.21,0.25 -1.44,-1.44 -0.66,-1.14 -0.32,-2.68 -2.55,-2.9 -4.13,-0.41 -1.67,4.4 -1.7,6.88 -0.02,1.47 -0.63,2.26 -0.78,3.22 -1.46,0.41 -2.33,-0.61 -2.6,-3.05 l -0.99,-1.99 c -2.27,-1.97 -4.9,-2.68 -4.98,1.12 -0.06,3 0.88,3.62 -0.05,7.51 -0.77,-0.02 -1.42,-0.29 -1.92,-0.85 -0.02,-5.74 -0.88,-10.07 -3.6,-15.15 0.26,-4.35 -0.3,-8.13 -1.68,-11.32 -2.3,-0.2 -2.16,0.14 -2.88,2.16 -0.83,2.27 -9.14,0.85 -9.71,-1.44 -0.69,2.39 -9.68,2.2 -10.79,0 -0.9,2.3 -6.41,-0.11 -6.84,-2.16 z"
       id="path234" />
    <path
       class="cls-33"
       d="m 170.59,241.61 c 0.67,3.48 -5.4,4.52 -8.27,4.93 -3.46,0.49 -11.12,0.2 -14.53,-0.55 l -0.94,-1.5 c -0.19,-1.05 -2.42,-4.42 -3.59,-3.59 -1.26,3.11 0.16,5.7 -0.79,8.91 -1.02,3.43 -3.55,9.86 -4.97,13.38 -0.23,4.8 -1.76,3.84 -4.32,0.72 -0.29,-0.46 -1.93,-2.68 -2.16,-2.88 l -2.16,0.23 c -6.39,0.26 -7.77,-2.63 -7.13,-9.17 0.45,-4.5 3.97,-11.87 6.41,-15.51 3.77,-0.97 8.78,-0.13 11.88,-1.43 1.94,-0.81 1.83,-2.1 2.97,-2.79 4.73,-2.85 9.54,-3.68 14.95,-4.4 3.81,0.49 4.46,4.18 6.62,5.66 1.01,0.69 2.48,0.56 3.5,1.54 1.47,1.41 1.92,4.67 2.53,6.46 z"
       id="path236" />
    <path
       class="cls-40"
       d="m 154.04,161.79 c 3.2,2.51 3.61,4.03 4.68,7.9 2.41,8.71 2.87,19.1 4.9,28.19 2.6,11.66 8.04,23.22 8.05,35.1 -2.81,-4.27 -9.5,-10.54 -14.75,-10.78 l -1.86,-1.84 c -1.12,-11.48 -3.71,-22.55 -6.43,-33.67 -1.09,-5.4 -1.75,-10.92 -0.9,-16.41 0.43,-2.75 2.93,-10.93 6.32,-8.49 z"
       id="path238" />
    <path
       class="cls-40"
       d="m 54.75,163.95 c 0.75,3.98 2.92,12.08 2.93,15.46 0.03,7.31 -3.82,19.04 -4.36,27.33 -0.44,6.69 0.31,13.76 -0.01,20.49 -4.46,-1.42 -9.7,-1.28 -13.66,1.44 -1.97,0.76 -2,-0.8 -1.78,-2.53 3.38,-14.16 6.3,-28.44 6.27,-42.97 0.36,-4.61 1.43,-9.11 3.5,-13.26 1.31,-2.64 5.47,-10.29 7.12,-5.96 z"
       id="path240" />
    <path
       class="cls-92"
       d="m 39.64,228.67 c -2.5,1.71 -6.03,5.77 -7.2,8.62 -0.96,0.18 -0.75,-0.27 -0.73,-1.08 0.18,-8.9 5.1,-23.8 6.4,-33.88 1.39,-10.74 0.63,-25.05 5.48,-34.79 2.58,-5.18 4.54,-7.02 10.44,-7.9 0.19,1.44 0.46,2.89 0.73,4.32 -2.02,-1.45 -1.07,-0.32 -1.86,0.63 -9.48,11.35 -6.8,22.14 -8.31,35.59 -0.88,7.84 -3.23,15.59 -4.71,23.33 -0.26,1.36 -1.16,4.07 -0.23,5.17 z"
       id="path242" />
    <path
       class="cls-20"
       d="m 64.82,231.54 c -1.01,-0.43 -6.21,-1.43 -6.5,-2.64 0.33,-5.38 -0.84,-10.28 -0.68,-15.69 0.29,-10.18 4.26,-22.16 4.37,-31.65 0.09,-7.23 -4.43,-14.93 -3.66,-22.65 5.23,5.23 4.59,12.96 5.94,19.59 0.41,2.02 2.51,5.49 2.6,7.33 0.24,4.74 -2.49,14.47 -2.81,20.14 -0.47,8.47 0.1,17.15 0.75,25.56 z"
       id="path244" />
    <path
       class="cls-92"
       d="m 154.04,161.79 c -1.72,-0.21 -3.24,3.3 -3.74,4.54 -4.55,11.31 2.2,27.82 4.26,39.88 0.91,5.29 1.1,10.75 2.35,15.99 -2.07,-0.09 -6.52,1.32 -8.63,2.16 0.14,-14.67 -0.56,-29.38 -4.66,-43.49 0.5,-7.67 3.83,-14.38 6.83,-21.23 1.37,0.47 2.47,1.28 3.59,2.16 z"
       id="path246" />
    <path
       class="cls-20"
       d="m 138.21,228.67 c -0.18,-3.92 0.26,-7.94 0,-11.86 -1.06,-15.72 -6.31,-31.2 -0.54,-46.57 1.78,-4.75 5.11,-8.79 7.02,-13.48 0.39,0.32 2.5,0.09 2.07,1.67 -3.62,6.67 -7.72,17.03 -7.75,24.66 -0.01,4.05 2.9,11.66 3.51,16.47 0.74,5.83 1.72,19.8 0.71,25.14 -0.55,2.95 -3.17,3.02 -5.02,3.97 z"
       id="path248" />
    <path
       class="cls-15"
       d="m 67.7,91.32 c 5.91,7.34 6.38,19.3 12.63,26.56 1.35,1.57 12.65,11.33 14.35,12.34 1.27,0.76 1.98,-0.05 2.39,0.15 0.26,0.13 -0.08,1.77 1.94,1.22 0.28,-0.07 0.3,-1.45 0.76,-1.47 0.63,-0.02 1.54,0.72 2.66,0.59 2.7,-0.33 7.67,-5.54 9.53,-7.76 5.16,-6.15 10.64,-18.25 15.46,-23.02 0.49,0.21 0.49,0.45 0,0.72 -1.4,4.46 -4.16,9.11 -6.61,13.16 -3.98,6.58 -12.36,20.6 -20.37,21.35 -10.46,0.99 -11.64,-5.85 -17.26,-12.24 -3.08,-3.51 -6.52,-5.49 -9.31,-10.12 -1.46,-2.43 -2.55,-6.89 -4.02,-8.56 -0.74,-0.11 -1.22,-0.35 -1.44,-0.72 -0.87,-1.23 -1.75,-2.73 -1.44,-4.31 -0.62,-0.18 -0.61,-0.42 0,-0.72 -0.92,-0.3 -0.68,-0.78 0.72,-1.44 0.08,-1.17 -0.14,-2.47 0,-3.6 -0.36,-0.86 -0.36,-1.58 0,-2.16 z"
       id="path250" />
    <path
       class="cls-29"
       d="m 116.63,139.5 c 0.12,0.35 1.25,0.87 1.23,1.77 -0.04,1.9 -11.63,15.13 -13.93,15.33 -2.66,0.24 -19.11,-10.99 -19.53,-13.25 -0.22,-1.18 1.07,-2.72 1.29,-3.86 l 2.03,-0.32 c 8.3,6.2 18.86,8.37 26.79,0.39 l 2.12,-0.07 z"
       id="path252" />
    <path
       class="cls-15"
       d="m 85.69,139.5 c 0.11,-0.55 -0.74,-5.06 1.07,-4.31 5.05,6.62 15.28,6.99 21.91,2.46 1.64,-1.12 4.56,-5.32 6.16,-5.35 0.5,2.41 0.98,4.86 1.81,7.2 -9.83,10.21 -20.51,7.69 -30.94,0 z"
       id="path254" />
    <path
       class="cls-15"
       d="m 146.85,244.49 c 7.5,0.39 17.78,2.7 23.74,-2.88 0.93,2.71 2.91,3.47 0.73,6.12 -4.82,5.86 -16.93,3.75 -23.8,3.63 -1.37,-0.96 -0.37,-5.15 -0.67,-6.88 z"
       id="path256" />
    <path
       class="cls-15"
       d="m 128.14,236.58 c -0.48,6.96 -5.89,11.6 -4.98,19 0.08,0.66 1.19,4.59 1.39,4.73 0.29,0.21 2.55,-2.63 6.47,0.72 -4.08,0.55 -1.54,3.91 -1.07,5.75 0.19,0.73 1.03,2.28 -0.36,2.16 -0.53,-2.17 -5.75,-10.79 -8.33,-7.22 -1.12,1.55 0.97,3.1 0.05,4.35 -2.78,-1.61 -1.08,-6.5 -2.12,-7.96 -0.6,-0.86 -2.52,-0.29 -2.61,-1.06 -0.15,-1.33 3.36,-12.77 4.21,-14.49 1.5,-3.04 4.04,-5.12 7.34,-5.97 z"
       id="path258" />
    <path
       class="cls-15"
       d="m 60.5,248.8 c -0.58,1.64 -0.63,5.38 -1.77,5.59 -3.41,-0.79 -7.37,-1.71 -10.83,-1.99 -6.29,-0.5 -18,2.86 -14.74,-7.2 1.8,0 5.53,2.16 6.84,2.16 h 10.79 z"
       id="path260" />
    <path
       class="cls-95"
       d="m 123.1,271.81 c 1.83,-0.54 3.52,-1.4 3.59,1.43 -6.21,-0.21 -8.97,5.71 -14.12,7.82 -4.44,1.82 -17.49,3.51 -19.89,-1.57 -0.11,-0.22 -1.26,-4.56 -1.25,-4.8 0.52,-0.44 1.15,-0.77 1.82,-0.61 10.47,2.45 16.78,2.99 26.47,-2.08 l 3.37,-0.18 z"
       id="path262" />
    <path
       class="cls-15"
       d="m 119.51,59.68 c 1.05,0.74 0.76,3.24 0,4.31 -1.65,0.2 -5.26,-1.44 -6.12,-1.44 H 96.84 c -1.57,0 -7.06,3.83 -10.13,4.25 -3.73,0.51 -6.91,-0.18 -10.37,-1.37 -1.78,-0.06 -1.5,-2.32 0,-2.88 10.11,3.93 19.94,-3.73 29.96,-4.27 4.56,-0.25 8.25,2.8 13.22,1.4 z"
       id="path264" />
    <path
       class="cls-21"
       d="m 63.38,246.65 c 3.11,0.27 2.16,7.71 3.07,10.96 0.78,2.82 2.73,4.86 3.22,8.29 0.39,2.71 -0.5,5.8 0.91,8.08 -0.21,0.86 -4.01,10.7 -5.75,8.63 -0.54,-3.8 2.22,-7.55 2.18,-11.1 -0.06,-5.05 -2.92,-9.76 -3.57,-13.74 -0.65,-3.98 1.41,-7.57 -0.05,-11.11 z"
       id="path266" />
    <path
       class="cls-25"
       d="m 123.1,271.81 c -7.05,2.07 -8.42,5.49 -18.36,5.75 -5.07,0.13 -8.77,-0.87 -13.3,-2.87 0.04,-0.93 1.38,-1.88 1.44,-2.16 1.81,-1.01 6.36,-2.08 5.76,0.72 5.64,0.69 8.77,0.63 14.58,-0.17 1.59,-0.22 5.06,-1.93 6.29,-1.99 0.54,-0.03 2.48,1.2 3.6,0.72 z"
       id="path268" />
    <path
       class="cls-96"
       d="m 74.89,61.84 c 0.37,0.14 0.66,0.29 0.68,0.47 0.12,1.19 -5.07,15.27 -5.98,15.26 -0.59,0 -0.98,-0.72 -1.18,-1.35 -0.14,1.83 -0.62,3.03 -1.44,3.6 -0.95,-6.96 0.71,-14.28 2.89,-20.85 1.75,0.83 3.27,2.04 5.03,2.88 z"
       id="path270" />
    <path
       class="cls-83"
       d="m 48.27,138.78 c 0.94,0.03 1.23,0.58 1.33,1.4 -0.32,7.26 0.44,9.42 2.27,6.51 0.03,0.19 0.68,0.79 0.74,1.74 0.55,7.93 -1.92,5.11 -7.21,9.05 0.67,-4.68 -2,-16.34 2.87,-18.7 z"
       id="path272" />
    <path
       class="cls-70"
       d="m 137.49,263.18 c -0.44,8.3 6.9,-0.4 7.91,0.72 1.26,4.43 -1.99,7.64 -6.18,7.91 -3.64,0.24 -4.68,-5.77 -6.05,-7.92 l 3.59,1.44 c -0.24,-0.95 0.46,-1.51 0.73,-2.16 z"
       id="path274" />
    <path
       class="cls-48"
       d="m 58.34,92.04 c -1.73,-3.4 0.96,-7.46 3.88,-3.15 l 1.15,-0.45 c 1.23,2.62 -0.18,10.77 4.32,8.63 -0.06,0.84 -0.71,1.36 -0.72,1.44 l -1.42,1.33 c 2.82,8.08 -2.68,7.5 -4.34,0.83 -0.89,-2.83 -1.85,-5.71 -2.88,-8.63 z"
       id="path276" />
    <path
       class="cls-22"
       d="m 137.49,96.36 c -0.19,0.56 -4.92,7.88 -5.4,7.9 -2.85,-1.65 -0.32,-6.11 -4.68,-3.58 v -0.72 c 2.85,-2.82 5.16,-1.07 4.32,-5.75 l 1.74,-0.39 c 0.37,-2.21 2.37,-6.23 5.04,-4.71 1.01,0.57 -0.56,6.07 -1.03,7.26 z"
       id="path278" />
    <path
       class="cls-79"
       d="m 137.49,96.36 c 0.24,-0.69 0.91,-6.21 0.71,-6.47 -4.61,1.18 -2.43,5.72 -4.68,8.62 -2.25,0.07 -0.14,-2.53 -1.79,-4.31 -1.04,-1.12 -4.51,2.06 -4.32,-3.22 0.02,-0.7 0.7,-1 0.72,-1.09 l 0.73,3.59 2.87,-1.44 c 0.21,0.07 0.38,0.16 0.42,0.29 0.44,1.28 -0.66,0.61 0.18,-1.31 0.1,-0.22 0.43,-0.33 0.84,-0.42 -0.25,-2.89 0.41,-5.65 3.8,-5.68 -0.17,-0.76 0.57,-1.16 1.24,-1.51 2.85,2.02 1.04,10.13 -0.72,12.94 z"
       id="path280" />
    <path
       class="cls-47"
       d="m 123.1,58.96 c 0.74,4.58 2.18,8.9 4.32,12.94 0.28,1.45 1.96,6.45 -0.71,5.75 -0.63,-2.86 -2.53,-5.23 -3.61,-7.91 -1.63,-1.41 -2.35,-3.56 -2.16,-6.47 0,-0.48 0,-0.96 0,-1.44 -1.41,-0.12 -1.03,-2.03 0,-2.88 1.26,-0.45 1.07,-1.06 2.16,0 z"
       id="path282" />
    <path
       class="cls-37"
       d="m 79.21,270.37 c -0.76,4.66 -2,11.31 -7.2,12.94 2.89,-5.64 5.62,-11.5 3.6,-17.97 1.99,1.72 1.99,3.27 3.6,5.03 z"
       id="path284" />
    <path
       class="cls-13"
       d="m 108.71,158.92 c 1.01,-0.95 1.38,-0.55 0.72,0.72 -1.21,1.25 -3.53,4.8 -5.4,4.79 -1.2,0 -9.6,-6.39 -11.15,-7.67 -0.95,-1.01 -0.55,-1.38 0.72,-0.72 4.64,2.53 9.89,6.62 15.11,2.88 z"
       id="path286" />
    <path
       class="cls-23"
       d="m 76.33,62.56 c -0.16,0.81 0.23,2.26 0,2.88 -0.1,0.26 -1.14,0.66 -1.37,1.31 -1.26,3.57 -2.21,8.71 -3.71,11.82 -0.4,0.84 -2.46,1.33 -2.12,3.42 -0.64,0.82 -0.88,0.34 -0.72,-1.44 -0.85,-0.9 -0.85,-2.33 0,-4.31 0.24,-0.14 1.24,0.35 1.46,-0.47 l 5.01,-13.92 c 0.48,0.23 0.95,0.53 1.44,0.72 z"
       id="path288" />
    <path
       class="cls-59"
       d="m 66.98,98.51 c -0.03,0.24 0.04,0.49 0,0.72 -0.27,1.61 0.57,3.04 1.44,4.31 0.07,0.07 0.84,0.03 1.44,0.72 -4.61,-0.5 -1.19,4.18 -4.55,3.47 -2.58,-0.54 -3.78,-4.12 -4.8,-6.35 -0.24,-1.06 -0.26,-1.31 0.72,-0.72 7.13,9.32 2.99,0.5 2.17,-4.31 l 3.59,2.15 z"
       id="path290" />
    <path
       class="cls-67"
       d="m 51.87,146.69 c -0.31,1.16 1.02,2.69 -1.08,2.88 -3.81,0.34 -2.15,-7.81 -2.52,-10.79 3.27,-1.58 3.26,5.37 3.6,7.91 z"
       id="path292" />
    <path
       class="cls-75"
       d="m 92.88,271.81 c 1.65,0.42 1.07,-1.48 2.5,-1.52 1.68,-0.04 3.36,0.89 5.06,0.86 3.18,-0.06 6.37,-1.34 9.71,-0.77 -0.13,1.06 -2.57,1.7 -3.44,1.94 -2.6,0.72 -5.36,1.06 -8.07,0.93 -0.06,0 -0.35,-0.65 -1.08,-0.71 -1.34,-0.12 -3.06,1.03 -4.67,0 0.05,-0.23 -0.05,-0.49 0,-0.72 z"
       id="path294" />
    <path
       class="cls-66"
       d="m 63.38,88.45 v 5.75 c -1.37,-0.69 -1.64,-5.32 -3.25,-5.75 -1.61,-0.43 -2.08,2.45 -1.79,3.59 -0.2,0.63 -0.44,0.62 -0.72,0 -0.48,-3.36 -1.57,-8.36 3.59,-6.09 0.72,0.32 1.81,1.74 2.17,2.5 z"
       id="path296" />
    <path
       class="cls-2"
       d="m 138.21,83.41 0.71,5.03 c -3.15,-4.46 -4.15,-1.31 -5.75,2.16 -0.77,0.37 -1.01,-0.35 -0.72,-2.16 0.16,-0.74 -0.35,-1.89 0.16,-2.7 0.51,-0.81 4.28,-3.27 5.6,-2.33 z"
       id="path298" />
    <path
       class="cls-6"
       d="m 61.22,100.67 c -0.05,0.34 -0.37,0.64 -0.72,0.72 -1.52,-3.3 -2.36,-5.71 -2.88,-9.35 h 0.72 c 3.13,0.08 3.25,6.16 2.88,8.63 z"
       id="path300" />
    <path
       class="cls-39"
       d="m 127.42,71.91 c -3.74,-3.07 -4.63,-8.19 -4.32,-12.94 1.43,1.38 3.84,10.49 4.32,12.94 z"
       id="path302" />
    <path
       class="cls-17"
       d="m 69.14,81.98 c 0.44,3.5 -1.1,5.82 -1.44,9.35 -0.07,0.7 0.09,1.46 0,2.16 -1.14,-1.7 -0.95,-5.71 -0.72,-7.91 -0.05,-2.33 0.43,-4.01 1.44,-5.03 -0.06,0.54 0.69,1.21 0.72,1.44 z"
       id="path304" />
    <path
       class="cls-30"
       d="m 109.43,159.64 -0.72,-0.72 c 1.82,-1.3 3.98,-5.38 6.47,-6.47 -0.92,2.74 -3.79,5.16 -5.75,7.19 z"
       id="path306" />
    <path
       class="cls-46"
       d="m 120.95,58.96 c -0.11,0.91 0.16,2.03 0,2.88 -0.31,1.65 -0.55,2.4 -0.72,4.31 -0.98,-0.37 -0.62,-1.39 -0.72,-2.16 -0.19,-1.45 -0.6,-2.87 0,-4.31 0.25,-0.07 0.86,-0.51 1.44,-0.72 z"
       id="path308" />
    <path
       class="cls-97"
       d="m 68.42,80.54 c -0.14,1.07 -1.33,4.01 -1.44,5.03 0.18,-1.82 -0.26,-4.01 0,-5.75 0.08,-0.56 0.99,-3.34 1.44,-3.6 -0.12,1.39 0.18,2.97 0,4.31 z"
       id="path310" />
    <path
       class="cls-68"
       d="m 85.69,264.62 c -0.21,1.7 -0.4,4.24 -0.72,5.75 -0.2,0.63 -0.44,0.62 -0.72,0 0.15,-2.37 -0.11,-4.81 0,-7.19 0.3,0.52 1.01,0.98 1.44,1.44 z"
       id="path312" />
    <path
       class="cls-81"
       d="m 146.85,258.87 c -0.18,0.18 -2.18,-0.1 -2.87,0 0.3,-5.64 4.15,-1.28 2.87,0 z"
       id="path314" />
    <path
       class="cls-46"
       d="m 123.1,69.75 c -3.11,0.03 -2.17,-4.16 -2.16,-6.47 l 0.58,0.48 c -0.48,2.85 0.8,4.03 1.58,5.99 z"
       id="path316" />
    <path
       class="cls-46"
       d="m 126.7,84.13 c 3.23,0.02 1.76,3.34 1.44,5.03 0.42,-2.01 -0.99,-3.3 -1.44,-5.03 z"
       id="path318" />
    <path
       class="cls-73"
       d="m 90,153.88 c -1.51,0.19 -2.83,-1.55 -3.6,-2.86 1.51,-0.19 2.83,1.55 3.6,2.86 z"
       id="path320" />
    <path
       class="cls-27"
       d="m 133.18,90.6 c -0.42,0.92 -0.75,1.84 -0.73,2.87 h -0.7 c -0.03,-0.47 0.02,-0.96 0,-1.43 -0.1,-2.04 0.43,-2.28 0.72,-3.6 l 0.72,2.16 z"
       id="path322" />
    <path
       class="cls-24"
       d="m 84.96,135.19 c -1.47,-0.84 -3.89,-2.69 -1.79,-3.59 0.19,-0.08 2.05,3.05 1.79,3.59 z"
       id="path324" />
    <path
       class="cls-5"
       d="m 93.6,156.04 -0.72,0.72 c -0.74,-0.61 -1.95,-1.05 -2.16,-2.15 1.44,-0.42 1.99,0.95 2.88,1.43 z"
       id="path326" />
    <path
       class="cls-85"
       d="m 118.07,148.85 c 0.5,-0.89 0.48,-2.57 2.15,-2.88 0.4,1.69 -1.27,2.01 -2.15,2.88 z"
       id="path328" />
    <path
       class="cls-30"
       d="m 118.07,148.85 c -0.5,0.89 -0.48,2.57 -2.15,2.88 -0.4,-1.69 1.27,-2.01 2.15,-2.88 z"
       id="path330" />
    <path
       class="cls-46"
       d="m 120.95,71.19 c 3.08,-0.3 1.84,0.19 2.16,2.16 -0.42,-0.91 -1.68,-1.51 -2.16,-2.16 z"
       id="path332" />
    <path
       class="cls-46"
       d="m 125.98,81.26 -0.72,-3.6 c 1.24,1.72 0.41,2.28 0.72,3.6 z"
       id="path334" />
    <path
       class="cls-1"
       d="m 84.97,270.37 c -0.11,0.52 -0.81,2.89 -1.08,2.88 -1.31,-0.69 0.34,-2.62 0.36,-2.88 z"
       id="path336" />
    <path
       class="cls-26"
       d="m 114.47,83.41 c -2.14,16.07 -11.05,5.12 -6.48,-4.31 -4.02,1.61 -4.55,-1.45 -1.06,-2.14 4.74,-0.94 9.99,1.53 12.03,5.92 0.36,0.77 1.31,4.31 -0.52,3.4 -1.16,-1.4 -2.04,-2.93 -3.25,-4.31 -0.87,-0.09 -0.81,0.65 -0.72,1.44 z"
       id="path338" />
    <path
       class="cls-26"
       d="m 84.25,115.06 c 4.17,0.36 6.7,3.18 11.11,3.63 2.02,0.21 5.8,0.16 7.78,-0.21 2.95,-0.55 7.59,-4.66 8.91,-4.78 2.63,-0.23 1.62,2.48 0.28,3.9 -4.6,4.85 -15.37,6.1 -21.27,3.23 -0.74,-0.36 -7.92,-4.8 -6.82,-5.77 z"
       id="path340" />
    <path
       class="cls-98"
       d="m 84.25,77.66 c 1.89,-0.19 5.76,-0.31 6.47,1.81 0.61,1.83 -1.83,0.75 -2.15,1.07 -0.14,0.14 0.73,2.9 0.76,3.92 0.44,14.46 -10.68,7.38 -6.52,-3.2 0.68,-0.52 1.16,0.2 1.44,2.16 1.86,-0.38 1.86,-1.34 0,-2.88 -3.79,0.55 -3.81,-1.38 0,-2.88 z"
       id="path342" />
    <path
       class="cls-18"
       d="m 106.55,105.71 c -2.69,5.35 -13.91,7.19 -15.83,0.72 -0.08,-0.85 -0.92,-3.69 0.02,-4.31 2.29,-1.51 2.12,1.74 2.79,2.55 1.95,2.38 10,0.48 10.01,-1.47 0,-0.41 -1.92,-1.91 -1.31,-3.24 4.95,-0.45 5.37,1.7 4.31,5.75 z"
       id="path344" />
    <path
       class="cls-42"
       d="m 92.16,68.32 c 2.08,3.26 -6.91,3.11 -9.33,3.96 -1.67,0.59 -7.38,5.51 -7.93,2.85 -0.65,-3.16 15.2,-10.06 17.26,-6.81 z"
       id="path346" />
    <path
       class="cls-79"
       d="m 104.4,70.47 c -0.37,-0.36 -0.04,-1.83 0.74,-2.48 3.29,-2.74 14.82,1.52 14.32,4.19 -1.98,3.71 -5.66,-1.06 -8.87,-1.85 -1.75,-0.43 -5.96,0.37 -6.19,0.14 z"
       id="path348" />
    <path
       class="cls-21"
       d="m 106.55,105.71 c -1.42,5.45 -6.39,6.38 -11.7,5.58 -4.79,-0.72 -3.79,-1.39 -4.13,-4.86 4.5,4.84 11.24,3.05 15.83,-0.72 z"
       id="path350" />
    <path
       class="cls-53"
       d="m 101.51,98.51 c -2.47,0.25 -2.7,-4.38 -2.86,-6.12 -0.23,-2.55 -0.6,-6.96 1.07,-8.97 z"
       id="path352" />
    <path
       class="cls-54"
       d="m 84.25,77.66 -2.16,2.15 c 0.83,-0.1 1.46,0.5 2.16,0.73 1.92,0.26 2.04,2.44 0,2.88 -0.58,-0.42 -0.85,-1.6 -1.44,-2.16 -2.04,-1.95 -3.78,3.35 -5.41,4.31 -1.77,0.3 -1.13,-1.27 -0.75,-2.19 1.2,-2.9 4.47,-5.4 7.6,-5.71 z"
       id="path354" />
    <path
       class="cls-51"
       d="m 103.68,124.41 c -0.56,2.81 -7.93,2.41 -8.63,1.42 -2.02,-2.85 7.5,-1.01 8.63,-1.42 z"
       id="path356" />
    <path
       class="cls-57"
       d="m 115.19,81.98 c -0.72,0.19 -0.64,0.84 -0.72,1.44 l -0.71,-2.88 c 0.86,-0.03 1.04,0.99 1.43,1.44 z"
       id="path358" />
    <path
       class="cls-4"
       d="m 68.42,103.55 c -0.77,-0.86 -1.19,-0.66 -1.71,-2.34 -0.52,-1.68 0.22,-1.64 0.27,-1.97 z"
       id="path360" />
    <path
       class="cls-61"
       d="m 111.59,79.1 v 3.6 c 0,0 -2.87,0 -2.87,0 -0.27,-2.35 0.15,-4.02 2.87,-3.59 z"
       id="path362" />
    <path
       class="cls-32"
       d="m 84.25,83.41 v -2.88 c 0.52,0.17 1.45,-0.16 2.14,0.35 1.8,1.33 0.35,4.34 -2.14,2.53 z"
       id="path364" />
  </g>
</svg>
