<?xml version="1.0" encoding="UTF-8"?>
<svg id="Layer_2" data-name="Layer 2" xmlns="http://www.w3.org/2000/svg" viewBox="0 0 44.73 62.38">
  <defs>
    <style>
      .cls-1 {
        fill: #907151;
      }

      .cls-2 {
        fill: #937353;
      }

      .cls-3 {
        fill: #927353;
      }

      .cls-4 {
        fill: #b28a63;
      }

      .cls-5 {
        fill: #70583f;
      }
    </style>
  </defs>
  <g id="Layer_1-2" data-name="Layer 1">
    <path d="M27.47.49c.61.06,1.56-.72,2.88-.4,2.01.48,6.62,4.07,7.9,5.8,4.3,5.79,2.83,15.43,3.68,22.22.73,5.85,4.71,15.07,1.67,20.52-1.19,2.13-11.89,10.85-14.17,11.73-3.86,1.49-5.06-1-6.51-.74-1.56.28-3.96,2.79-7.34,2.76-4.84-.05-4.35-3.87-5.44-5.03-.25-.27-4.22.71-7.11-1.13-3.25-2.08-4.28-7.13-1.12-9.7,3.35-2.72,7.23-.14,7.53-6.93.16-3.61-5.22-13.76-5.63-19.41C3.35,14.02,6.61,3.64,12.93,1.39c1.09-.39,2.31.02,3.03-.17,3.07-.72,2.83,4.55,0,4.32-5.85,6.66-6.48,10.95-4.44,19.37l3.74,11.5c.41,5.82-.73,14.61-7.96,14.73,1.33.61,2.71.28,4.13-.99l1.63.72c2.82-2.97,4.37-6.94,4.64-11.9,1.47-2.6,5.44-3.04,5.43.39,1.88,7.02-1.04,15.12-8.63,17.27,1.25,1.8,5.2-1.03,6.81-2.25,4.14-3.14,4.22-4.33,4.43-9.59-.5-4.9.74-12.25,6.59-7.34-.54-3.05,2.53-7.52,4.48-3.84,1.18-.38,1.69,2.38,1.44,3.6,1.34,1.68,1.23,4.46.72,6.47.29.48.53.5.72,0-.45-2.04-.69-4.2-.72-6.47-1.32-3.03-3.25-8.24-2.16-11.15-1.24-2.77-1.19-9.33,0-12.23-1.92-3.32-4.32-6.31-7.2-8.99-2.34,1.16-5.08-3.4-2.16-4.32Z"/>
    <path class="cls-4" d="M27.47.49c-.43,2.09,1.44,3.05,2.16,4.32l4.18,4.28c2.01,2.01,2.53,3.82,1.58,5.44,1.24,2.54,1.18,8.82,0,11.51,1.26,1,2.18,5.89,1.44,7.55-1.61-.11-2.52-.04-2.88,1.79-1.13,5.82,4.26,14.69-2.87,18.35-.37-3.48,2.35-13.69-.31-15.89-5.28-4.36-3.53,12.01-4.37,13.73-.71,1.47-9.52,6.84-11.5,6.47-1.24-.23-.9-.56-.38-1.44,7.64-2.17,10.43-10.15,8.63-17.27-5.93-4.38-5,7.22-6.86,10.05-.84,1.28-2.32.99-3.21,1.46l-1.07-1.23c2.75-4.13,4.2-9.53,2.98-14.42-3.68-9.72-6.28-20.93.97-29.68.35-1.5,1.38-2.61,0-4.32C21.89-.38,21.33-.16,27.47.49Z"/>
    <path class="cls-2" d="M13.08,50.85c-2.19,1.16-4.07,3.17-6.74,1.35-4.15-2.82,3.5-2.38,5.28-3.89,1.19-1,2.52-5.75,2.71-7.37.65-5.37-1.56-6.71-2.9-11.11-2.7-8.84-5.33-18.96,4.52-24.31-2.09,8.8-4.68,10.08-2.39,20.02,1.87,8.12,4.4,10.11,1.78,19.3l-2.27,6.01Z"/>
    <path class="cls-2" d="M38.98,37.18c-.2.63-.44.62-.72,0-.36-1.83-1.34-3.06-1.44-3.6-.32-1.79-1.44-6.29-1.44-7.55v-11.51c0-3.31-3.81-5.34-5.37-7.6-.5-.72-.22-1.81-.38-2.11,3.86.81,7.2,5.22,7.2,8.99v12.23c0,1.96,1.72,8.27,2.16,11.15Z"/>
    <path class="cls-3" d="M14.52,56.61c1.42-2.4,4.38-1.91,5.92-4.51,1.64-2.79,2.23-9.36,2.72-12.75.82.6,1.18.39,1.43,1.79,1.18,6.57-2.81,15.07-10.06,15.48Z"/>
    <path class="cls-1" d="M39.7,43.66c-.2.63-.44.62-.72,0-.22-2.11-.31-4.39-.72-6.47h.72c.03.2.63.81.75,1.75.18,1.45-.06,3.19-.03,4.72Z"/>
    <path class="cls-5" d="M39.7,43.66c0,.3,1.19,1.98-.36,2.89-.71-.01-.28-2.12-.36-2.89h.72Z"/>
  </g>
</svg>