<?xml version="1.0" encoding="UTF-8" standalone="no"?>
<svg
   id="Layer_2"
   data-name="Layer 2"
   viewBox="0 0 64.289077 305.74854"
   version="1.1"
   sodipodi:docname="Human_03-leg_front.svg"
   width="64.289078"
   height="305.74854"
   xmlns:inkscape="http://www.inkscape.org/namespaces/inkscape"
   xmlns:sodipodi="http://sodipodi.sourceforge.net/DTD/sodipodi-0.dtd"
   xmlns="http://www.w3.org/2000/svg"
   xmlns:svg="http://www.w3.org/2000/svg">
  <sodipodi:namedview
     id="namedview24"
     pagecolor="#ffffff"
     bordercolor="#000000"
     borderopacity="0.25"
     inkscape:showpageshadow="2"
     inkscape:pageopacity="0.0"
     inkscape:pagecheckerboard="0"
     inkscape:deskcolor="#d1d1d1" />
  <defs
     id="defs4">
    <style
       id="style2">
      .cls-1 {
        fill: #51453f;
      }

      .cls-2 {
        fill: #010101;
      }

      .cls-3 {
        fill: #655c57;
      }

      .cls-4 {
        fill: #32201d;
      }

      .cls-5 {
        fill: #33211e;
      }

      .cls-6 {
        fill: #8f7f7d;
      }

      .cls-7 {
        fill: #958482;
      }
    </style>
  </defs>
  <g
     id="Layer_1-2"
     data-name="Layer 1"
     transform="translate(7.2350364e-4,0.0048009)">
    <path
       class="cls-2"
       d="m 29.35,0.32 c 10.5,-1.44 23.09,1.8 28.02,11.89 7.29,14.93 0.41,41.59 -1.23,58.07 -3.24,32.64 -2.8,67.81 -2.2,100.72 0.56,30.67 3.29,61.42 5.72,92.12 0.11,1.37 -0.84,2.7 -0.66,4.19 0.18,1.49 2.08,3.01 2.7,4.56 10.42,26.04 -12.51,37.36 -35.1,32.94 -13.52,-2.65 -19.38,-9.68 -17.85,-23.69 0.37,-3.36 2.79,-7.6 2.73,-10.09 C 11.36,266.5 6.99,255.06 5.96,249.19 -3.79,193.2 0.67,133.14 3.66,76.77 4.5,60.92 3.27,25.51 10.97,12.87 14.88,6.43 21.79,1.36 29.35,0.32 Z"
       id="path6" />
    <path
       class="cls-3"
       d="m 20.89,261.96 c -2.69,1.25 -3.08,0.28 -2.88,-2.29 C 5.98,193.23 7.76,125.48 11.58,58.39 11.5,49.96 11.67,41.54 12.1,33.13 13.96,17 16.28,12.71 32.65,17.41 c 3.4,0.98 12.34,3.95 13.42,6.8 l -7.9,106.54 c -0.44,1.29 -1.67,2.01 -2.94,1.49 6.68,5.22 2.44,8.02 -4.27,6.66 3.33,0.07 5.74,0.95 7.21,2.66 l 5.68,111.54 -0.48,1.86 c 2.56,2.36 2.59,6.76 -1.63,4.85 -7.2,-0.52 -14.05,-0.18 -20.86,2.16 z"
       id="path8" />
    <path
       class="cls-1"
       d="m 20.89,261.96 c -0.88,0.3 -4.34,2.66 -5.03,2.16 C 12.7,252.27 10.75,240 9.39,227.79 3.09,171.39 7.9,114.68 10.85,58.07 11.55,44.73 8.77,21.09 18.7,11.25 c 8.12,-8.04 27.57,-7.98 33.4,2.63 7.25,13.21 0.09,34.81 -1.62,49.28 -4.45,37.61 -3.03,75.8 -2.22,113.53 0.47,21.83 0.43,43.71 2.14,65.48 0.22,2.83 2.9,18.75 2.14,19.79 -3.14,-1.74 -6.43,-1.15 -9.72,-1.46 -1.17,-0.11 -1,-0.7 -1.06,-0.7 3.32,1.43 1.48,-3.44 0.99,-3.63 -2.18,-0.81 -8.88,-0.83 -11.45,-0.72 -2.91,0.13 -7.46,1.59 -10.03,1.48 -0.83,-0.03 -0.9,-2.29 1.46,-2.85 5.72,-1.35 14.16,-1.75 19.74,-0.03 L 36.72,141.13 c -3.66,-0.17 -7.55,-0.79 -10.79,-2.52 0,-1.29 9.29,-1.62 10.79,-0.36 2.64,-5.85 -10.79,-6.25 -10.06,-9.7 0.67,-3.18 9.36,3.28 10.06,2.5 L 44.68,23.6 C 36.75,20.64 27.91,15.77 19.1,17.4 c -2.24,0.41 -4.52,7.1 -5.07,9.32 -2.66,10.79 -1.29,21.82 -1.73,32.79 -2.75,68.7 -5.01,131.86 7.15,199.99 0.24,1.34 -0.82,2.88 1.46,2.46 z"
       id="path10" />
    <path
       class="cls-5"
       d="m 39.59,266.28 c 1.81,0.58 2.47,0.88 0.72,2.16 l -1.06,1.31 c -5.36,-0.54 -12.02,-0.72 -15.67,3.91 2.64,-2.51 5.64,-3.36 9.18,-3.78 2.54,-0.3 8.17,-0.45 8.98,2.15 -2.76,9.86 4.88,20.88 3.59,2.32 l 1.45,-0.88 c 0.41,-1.13 1.65,-1.27 3.7,-0.41 -2.85,-0.96 -4.56,-2.27 -5.14,-3.91 -0.27,-0.87 0.07,-1.56 0.72,-2.16 6.89,1.33 9.66,3.33 11.71,10.23 1.7,5.74 1.21,7.36 -3.84,10.95 -6.28,4.45 -17.93,6.11 -25.48,5.43 -2.64,-0.24 -13.19,-3.01 -14.41,-5.01 -1.43,-2.35 0.28,-10.31 1.45,-12.96 4.4,-10 14.79,-10.04 24.1,-9.35 z"
       id="path12" />
    <path
       class="cls-4"
       d="m 15.86,292.9 c 13.23,6.45 28.49,5.26 40.99,-2.16 -2.89,6.96 -11.44,8.95 -18.31,9.38 -7.35,0.46 -18.36,-0.53 -22.69,-7.21 z"
       id="path14" />
    <path
       class="cls-6"
       d="m 46.07,267 c 0.96,1.1 0.63,1.65 -0.72,2.16 -0.92,1.83 -4.8,1.41 -5.04,-0.72 l -0.72,-2.16 c 2.11,0.16 4.41,0.32 6.47,0.72 z"
       id="path16" />
    <path
       class="cls-2"
       d="m 40.31,268.44 c 1.58,0.22 3.5,0.27 5.04,0.72 1.27,0.37 6.06,2.2 6.4,3.31 1.16,3.8 -3.33,1.47 -4.96,1 -0.98,1.99 -5,0.63 -5.04,-1.44 -4.66,-0.85 -9.5,-1.45 -14.16,0.58 -2.39,1.04 -3.96,3.87 -6.7,3.73 1.93,-8.56 12.17,-8.93 19.42,-7.91 z"
       id="path18" />
    <path
       class="cls-7"
       d="m 41.75,272.03 c 2.06,0.38 3.22,0.92 5.04,1.44 -0.2,3.52 2.21,13.53 -4.35,11.94 -2.72,-0.66 -2.36,-8.52 -2.77,-11.66 -0.31,-2.35 0.17,-1.71 2.09,-1.72 z"
       id="path20" />
  </g>
</svg>
