<?xml version="1.0" encoding="UTF-8"?>
<svg id="Layer_2" data-name="Layer 2" xmlns="http://www.w3.org/2000/svg" viewBox="0 0 37.89 97.21">
  <defs>
    <style>
      .cls-1 {
        fill: #b28a63;
      }

      .cls-2 {
        fill: #937354;
      }
    </style>
  </defs>
  <g id="Layer_1-2" data-name="Layer 1">
    <path class="cls-1" d="M25.93,85.68c2.03.17,2.72,2.74.72,3.6.11,5.06-7.95,10.68-12.54,6.42-1.37-1.27-2.96-4.53-2.57-6.42-1.86-1.12-.22-3.2,1.44-3.6-2.74-8.65-9.59-63.52-3.67-66.94,2.7-1.56,16.49-2.06,19.45-.84,3.3,1.36,2.24,24.73,2,28.97-1.73,12.92-3.34,25.86-4.82,38.8Z"/>
    <path d="M26.65,89.28c-.02-.79-.58-2.06-.72-3.6,1.39-12.48,2.96-25.01,4.71-37.57,1.28-7.74,2.74-45.94-11.68-41.1C6.8,11.09,6.39,24.75,6.45,35.8c.08,16.07,3.17,34.32,6.53,49.88-.14,2.2-1.27,2.75-1.44,3.6-5.5-.43-6.24-7.02-7-11.35C1.65,61.48-3.23,28.49,3.08,13.55,8.12,1.63,25.11-6.63,32.78,7.25c6.65,12.04,5.42,31.61,3.94,44.97-.92,8.24-2.86,26.47-5.22,33.63-.83,2.52-1.93,3.81-4.84,3.43Z"/>
    <path class="cls-2" d="M25.93,85.68c-1.26-13.86,2.84-27.41,3.59-41.37.19-3.48.44-23.91-1.38-25.22-6.04-.84-12.13-.23-18.09.72-.4.27-1.41,6.98-1.42,8-.04,5.42-.15,11.82.04,17.22.4,11.81,4.97,29.96,4.31,40.65-1.52-1.29-2.2-2.99-2.68-4.87-1.75-6.79-2.93-18.52-3.7-25.8C5.24,42.31,1.45,15.8,13.92,7.84c5.83-3.72,11.61-4.18,14.89,2.65,8.49,17.69,1.34,51.7-1.66,71.01-.21,1.32-.28,3.22-1.22,4.18Z"/>
  </g>
</svg>