<?xml version="1.0" encoding="UTF-8"?>
<svg id="Layer_2" data-name="Layer 2" xmlns="http://www.w3.org/2000/svg" viewBox="0 0 113.25 257.97">
  <defs>
    <style>
      .cls-1 {
        fill: #8b8b8b;
      }

      .cls-2 {
        fill: #080808;
      }

      .cls-3 {
        fill: #c4ab91;
      }

      .cls-4 {
        fill: #8a8a8a;
      }

      .cls-5 {
        fill: #bdbdbd;
      }

      .cls-6 {
        fill: #282828;
      }

      .cls-7 {
        fill: #cbb196;
      }

      .cls-8 {
        fill: #1b1b1b;
      }

      .cls-9 {
        fill: #e5ceb5;
      }

      .cls-10 {
        fill: #a2a2a2;
      }
    </style>
  </defs>
  <g id="Layer_1-2" data-name="Layer 1">
    <path class="cls-1" d="M113.13,75.14c-1.37-1.02-.55-3.46-.72-5.04.19,1.53.65,2.81.72,5.04Z"/>
    <path class="cls-2" d="M35.37,46.34l1.66.3c.95,5.81.85,11.8-.31,17.99-7.68,42.26-5.45,83.45,4.28,124.82.43,1.85.82,3.87.54,5.68,1.9.27,3.68,1.08,5.35,2.42,1.31-2.38,12.17-.39,12.89,1.22,1.57,3.54-6.31,5.06-8.88,5.28-2,.17-7.13-.06-7.6-2.18l-1.4,1.01c-4.57-2.01-4.09-.14.28.89l.39,1.7,2.18-.71c9.64,3.93,19.41,1.65,28.86-1.59l2.08.86,1.51-1.96c5.18-1.15,9.75-3.29,13.71-6.42l-.75-1.95c10.11-36.69,13.02-73.01,15.05-110.71.12-2.2.75-4.32,1.44-6.39.95-.6,1.94-.39,2.99.63.82-.1.79-9.19.61-10.61l1.44-.82c.13,1.14.53,2.8.72,4.32-.01,1.74.23,3.42.72,5.04.87,28.65-3.02,59.74-8.15,87.97-1.72,9.5-4.1,18.94-6.2,28.36,8.91,10.4,12.39,31.99-.09,40.95-14.23,10.21-27.38,16.58-44.44,21.08-16.18,4.27-55.79,12.33-54.19-15.3.66-11.48,12.94-26.25,21.7-33.04,3.08-2.38,11.71-6.47,12.16-10.21-1.8-12.08-5.63-23.88-7.09-36.02-2.32-19.27-2.75-43.18-1.53-62.54.89-14.07,4.22-28.13,5.03-42.13l1.42-.77c2.22,1.93,2.95-.14,2.19-6.21l1.43-.95Z"/>
    <path d="M111.69,65.78c-.09,4.07,1.54,17.92-5.04,10.8l-1.49-1.68c-1.48-13.59-1.71-27.22-.7-40.9,1.05-16.84-8.91-23.23-24-25.92-27.49-4.91-43.7,8.5-43.62,36.68l-1.47,1.59c-.05,4.1,1.64,12.79-5.04,7.92.99-16.99-2.68-27.32,9.71-41.77C57.87-8.3,108.56-3.14,110.96,27.99c.96,12.49-.73,25.06.73,37.79Z"/>
    <path class="cls-7" d="M106.65,76.58c.32,39.51-5.61,78.87-15.13,117.09-.04,1.35,2.85.76.2,3.18-4.4,4.01-10.54,5.47-16.03,7.17l-1.19-1.52c11.31-29.26,13.64-64.66,13.15-96.12-.16-10.55-.88-20.67-4.91-30.53-14.29-1.66-27.63-5.27-40.02-10.83-5.67,42.76-6.47,90.78,4.17,132.52-1.1-.17-7-1.14-7.21-1.45-.07-.1.67-1.27.55-2.3-.91-7.64-3.94-16.33-5.35-24.2-4.41-24.55-4.99-53.38-3.1-78.25.89-11.75,3.6-23.54,4.31-35.29.17-2.87.5-7.09-.71-9.71.22-16.82,4.2-33.46,22.48-39.08,12.86-3.95,41.77-.6,46.44,14.45,3.22,10.41.64,25.47.9,36.54.13,5.7,1.42,12.64,1.47,18.33Z"/>
    <path class="cls-9" d="M75.69,204.02c-12.62,3.92-20.24,6.61-33.12,1.44-2.07-.51-1.32-3.62.72-3.6,1.84.25,5.9.77,7.52.75,1.04-.02,7.18-1.75,7.59-2.2,1.12-1.2-.22-1.21-1.04-1.45-3.59-1.05-7.05-.89-10.47-1.42-.95-.58-1.42-1.05-1.82-2.13-1.97-5.31-3.57-15.61-4.45-21.48-4.63-30.72-3.88-66.05-.92-96.98.27-2.87.85-9.78,1.55-12.13.25-.82.77-1.24,1.66-1.22.75.02,11.17,4.8,13.91,5.57,8.78,2.48,17.98,3.2,26.77,5.63,6.81,14.13,5.59,32.67,5.09,48.25-.71,22.2-2.3,48.43-8.88,69.6-1.16,3.74-3.56,7.29-4.11,11.37Z"/>
    <path class="cls-6" d="M87.93,206.9c2.73.4,1.97,4.26,1.47,6.43-1.29,5.62-7.03,11.39-11.55,14.7-6.44,3.75-12.63,7.73-18.72,11.99-17.89,5.01-34.2,7.39-52.48,2.09-3.66-8.63,15.41-32.49,21.9-33.75,8.85-1.72,14.85,5.12,21.76,6.29,8.67,1.47,29.44-3.92,37.63-7.75Z"/>
    <path class="cls-8" d="M87.93,206.9l9.35-5.76c1.55,5.29,4.6,15.64,1.49,20.56-1.17,1.86-15.6,9.7-18.51,11.01-6.61,2.99-14.15,5.35-21.14,7.3,5.84-8.48,15.78-9.77,22.69-17.27,4.07-4.42,7.9-9.58,6.11-15.85Z"/>
    <path class="cls-5" d="M34.65,250.1c.63.2.62.44,0,.72-7.46.85-19.29,1.43-25.2-3.59,8.49,1.64,16.47,3.23,25.2,2.87Z"/>
    <path class="cls-3" d="M43.29,201.86l-.72,3.6c-1.74-.7-3.92-1.39-5.47-2.09-.67-.3-2.07-.23-1-1.5.11-.13,2.89-1.36,3.2-1.38,1.6-.1,3.15,1.26,4,1.37Z"/>
    <path class="cls-4" d="M37.53,249.38c.63.2.62.44,0,.72-.65.1-1.47.56-2.88.72v-.72c.15,0,1.61-.61,2.88-.72Z"/>
    <path class="cls-10" d="M37.53,249.38c.76-.06,3.61-.25,3.61.36-.77.81-2.54.2-3.61.36v-.72Z"/>
  </g>
</svg>