<?xml version="1.0" encoding="UTF-8" standalone="no"?>
<svg
   id="Layer_2"
   data-name="Layer 2"
   viewBox="0 0 58.84736 69.658848"
   version="1.1"
   sodipodi:docname="Human_09-hand_palmdown.svg"
   width="58.847359"
   height="69.658852"
   xmlns:inkscape="http://www.inkscape.org/namespaces/inkscape"
   xmlns:sodipodi="http://sodipodi.sourceforge.net/DTD/sodipodi-0.dtd"
   xmlns="http://www.w3.org/2000/svg"
   xmlns:svg="http://www.w3.org/2000/svg">
  <sodipodi:namedview
     id="namedview24"
     pagecolor="#ffffff"
     bordercolor="#000000"
     borderopacity="0.25"
     inkscape:showpageshadow="2"
     inkscape:pageopacity="0.0"
     inkscape:pagecheckerboard="0"
     inkscape:deskcolor="#d1d1d1" />
  <defs
     id="defs4">
    <style
       id="style2">
      .cls-1 {
        fill: #907152;
      }

      .cls-2 {
        fill: #535353;
      }

      .cls-3 {
        fill: #927253;
      }

      .cls-4 {
        fill: #b28a63;
      }

      .cls-5 {
        fill: #8f7051;
      }

      .cls-6 {
        fill: #8b6d4f;
      }

      .cls-7 {
        fill: #8d6f50;
      }
    </style>
  </defs>
  <g
     id="Layer_1-2"
     data-name="Layer 1"
     transform="translate(0.00660839,0.0142472)">
    <path
       d="m 22.36,1.38 c 2.87,1.2 -0.06,4.65 -2.53,4.94 -8.76,8.2 -9.44,14.59 -9.54,26.17 -0.11,0.98 -0.67,1.65 -1.61,1.98 l -0.82,5.24 c -2.32,12.17 -1.27,11.11 3.15,-3.17 1.1,-2.84 2.94,-6.49 6.3,-4.23 0.59,-0.25 1.47,-0.35 1.66,0.11 1.28,3.18 -2.5,16.76 -3.62,20.79 -0.08,0.29 -0.45,0.5 -0.91,0.68 0.16,6.63 1,7.14 2.53,1.55 l 3.48,-12.37 c 1.09,-5.87 3.4,-8.5 6.94,-7.89 1.99,-0.45 2.29,0.52 1.44,2.16 l 1.22,2.26 -1.27,12.97 C 28.4,70.85 31.12,49 30.31,42.99 29.96,40.1 30.67,38.22 32.43,37.34 32.2,34.61 37.02,34.23 38.19,36.52 L 38.9,46.7 c 1.54,1.94 2.49,4.57 2.85,7.88 1.93,-6.87 0.59,-14.24 -0.72,-21.2 -1.18,-5.34 -1.17,-10.26 0.03,-14.75 -0.22,-4.07 6.3,-0.84 4.32,2.16 0.11,1.11 4.99,9.04 5.51,8.95 1.37,-0.26 1.3,-0.67 0.96,-1.75 C 47.71,19.79 43.59,14.42 35.24,9.36 32.97,7.67 29.61,3.7 33.14,2.09 c 0.99,0.22 2.19,-0.09 3.6,0.34 2.21,0.67 12.78,9.5 14.39,11.53 1.45,1.82 7.79,16.76 7.71,18.59 -0.31,6.34 -7.57,7.12 -11.3,2.63 2.23,5.67 3.04,30.95 -7.4,27.93 -2.34,-0.68 -2.51,-3.85 -4.11,-4.91 -0.7,9.51 -10.92,15.98 -13.68,3.59 0.53,-1.03 0.58,-3.74 0,-2.16 -0.06,0.46 -4.07,7.34 -4.64,7.95 C 11.2,74.5 7.29,62.26 8.68,56.76 6.65,57.65 5.54,58.57 3.41,57.4 -3.97,53.35 2.75,39.27 3.77,32.73 5.57,21.18 2.67,17.69 10.26,6.9 12.5,3.72 18.45,-2.88 22.35,1.37 Z"
       id="path6" />
    <path
       class="cls-4"
       d="m 33.16,2.1 c -0.07,1.46 -0.32,2.7 0.73,3.95 3.17,3.77 11.71,8.44 13.99,11.91 1.71,2.6 2.73,7.06 3.99,10.04 0.18,0.58 0.64,2.3 0.21,2.34 -1.64,0.14 -6.13,-7.62 -6.69,-9.53 -1.56,-1.68 -1.8,-3.59 -4.32,-2.16 l -0.84,1.85 c 0.55,7.92 0.61,15.94 0.17,24.06 l -1.49,2.15 c -1,-1.57 -1.31,-9.36 -2.24,-9.99 -1.19,-0.81 -3.37,0.6 -4.24,0.64 -0.86,1.72 -2.4,0.93 -3.6,0 C 27.99,36.98 27.78,35.58 27.39,35.2 24,34.31 21.71,36.87 20.52,42.86 L 16.67,56.3 c -2.1,2.26 -2.88,-0.21 -2.24,-2.4 0.14,-1.18 -0.02,-2.39 0.2,-3.73 0.62,-3.86 4.69,-15.24 2.68,-17.85 -3.18,-1.75 -4.4,0.27 -5.77,3 -2.1,7.67 -4.73,6.4 -2.86,-0.84 1.3,-14.19 -0.97,-18.5 10.08,-29.13 0.67,-0.64 2.1,-0.68 2.7,-1.27 0.74,-0.72 0.64,-2.43 0.9,-2.7 1.81,-1.87 8.41,0.19 10.79,0.72 z"
       id="path8" />
    <path
       class="cls-2"
       d="m 22.36,59.65 c 0.03,-0.28 -1.02,-1.22 -0.72,-1.43 1.72,-1.23 2.15,2.55 0.72,3.59 -0.14,-0.61 0.09,-1.48 0,-2.16 z"
       id="path10" />
    <path
       class="cls-3"
       d="m 41.07,18.65 c -0.9,7.77 2.37,16.26 2.87,24.11 0.3,4.66 0.79,12.23 -2.86,15.46 -0.68,-3.89 -2.21,-7.44 -2.17,-11.51 0.06,-5.79 0.86,-12.21 0.75,-18.38 -0.06,-3.36 -2.33,-7.55 1.41,-9.68 z"
       id="path12" />
    <path
       class="cls-1"
       d="m 32.44,37.35 c -1.66,7.15 0.41,15.35 -1.79,22.31 -1.07,3.4 -2.91,5.32 -3.28,0.38 -0.56,-7.4 0.8,-15.35 1.47,-22.69 1.27,-1.42 2.98,0.03 3.6,0 z"
       id="path14" />
    <path
       class="cls-7"
       d="m 27.4,35.19 c -1.96,-0.19 -2.7,-0.16 -3.77,1.63 -2.28,3.83 -3.64,14.12 -5.38,19.08 -0.37,1.04 -2.79,7.08 -3.1,7.34 -0.09,0.08 -1.51,0.27 -1.43,-0.36 0.16,-2.39 -0.21,-4.87 -0.03,-7.25 0.07,-0.94 0.73,-1.57 0.75,-1.74 l 0.71,2.87 c 1.59,-5.11 3.15,-11.13 5.22,-16.01 0.97,-2.29 3.53,-8.98 7.02,-5.57 z"
       id="path16" />
    <path
       class="cls-5"
       d="m 17.33,32.32 c -1.49,-0.12 -2.55,-0.23 -3.54,1.14 -3.03,4.19 -3.41,15.01 -8.34,19 C 4.33,46.43 6.87,40.15 8.69,34.48 v 5.75 C 9.1,36.91 13.23,27 17.32,32.32 Z"
       id="path18" />
    <path
       class="cls-6"
       d="m 45.39,20.81 c 2.44,2.63 3.59,4.97 5.55,7.77 1.29,1.83 0.84,0.53 0.93,-0.58 0.57,1.35 1.66,2.86 2.16,4.31 -1.94,1.51 -9.81,-8.89 -8.63,-11.5 z"
       id="path20" />
  </g>
</svg>
