<?xml version="1.0" encoding="UTF-8" standalone="no"?>
<svg
   id="Layer_2"
   version="1.1"
   viewBox="0 0 81.601196 296.658"
   sodipodi:docname="Human_04-arm_palmup.svg"
   width="81.601196"
   height="296.65799"
   xmlns:inkscape="http://www.inkscape.org/namespaces/inkscape"
   xmlns:sodipodi="http://sodipodi.sourceforge.net/DTD/sodipodi-0.dtd"
   xmlns="http://www.w3.org/2000/svg"
   xmlns:svg="http://www.w3.org/2000/svg">
  <sodipodi:namedview
     id="namedview34"
     pagecolor="#ffffff"
     bordercolor="#000000"
     borderopacity="0.25"
     inkscape:showpageshadow="2"
     inkscape:pageopacity="0.0"
     inkscape:pagecheckerboard="0"
     inkscape:deskcolor="#d1d1d1" />
  <!-- Generator: Adobe Illustrator 29.8.4, SVG Export Plug-In . SVG Version: 2.1.1 Build 6)  -->
  <defs
     id="defs4">
    <style
       id="style2">
      .st0 {
        fill: #a22138;
      }

      .st1 {
        fill: #010101;
      }

      .st2 {
        fill: #5f4831;
      }

      .st3 {
        fill: #6b543b;
      }

      .st4 {
        fill: #020202;
      }

      .st5 {
        fill: #543c22;
      }

      .st6 {
        fill: #a94053;
      }

      .st7 {
        fill: #342515;
      }

      .st8 {
        fill: #080705;
      }

      .st9 {
        fill: #553c22;
      }
    </style>
  </defs>
  <g
     id="Layer_1-2"
     transform="translate(-12.899856,2.5779615)">
    <path
       class="st4"
       d="m 56.37,0.33 c 2.82,1.96 1.52,6.08 -1.79,5.51 L 53.09,6.59 C 52.33,6.47 46.84,4.2 46.24,3.51 45.43,5.3 40.1,7.43 38.37,6.4 L 36.2,9.76 c -11.41,9.8 -13.38,24.11 -9.77,38.25 4.08,12.04 6.54,24.17 7.38,36.4 0.37,4.89 4.77,6.53 8.9,7.67 l 0.93,1.74 2.32,-0.94 c 10.47,2.1 21.29,2.09 31.86,0.89 l 2.22,1.16 c 0.08,-2.17 3.52,-2.47 4.51,-0.6 6.06,1.52 3.05,5.9 -0.78,7.9 -14.77,2.93 -29.2,1.37 -43.72,-1.82 -2.48,16.38 -1.3,33.22 0.25,49.62 2.18,-1.16 8.66,-1.39 9.89,1.43 1.49,0.55 1.87,1.11 1.14,1.68 l -1.21,1.8 c -0.61,0.6 -8.28,1.4 -9.55,0.53 -4.36,18.22 -2.05,37.22 3.05,54.83 2.04,6.67 -2.39,8.27 -7.71,10.14 -4.12,5.34 -6.81,11.81 -8.09,19.42 -0.53,0.6 -8.73,18.19 -7.14,16.8 2.43,-2.11 5.12,-8.34 6.31,-11.53 0.62,-1.69 2.99,-3.25 4.49,-2.09 4.26,3.28 -0.08,11.36 -2.2,14.94 -4.88,5.54 -6.6,11.47 -5.19,17.79 0.34,-2.82 1.43,-4.45 3.26,-4.91 1.53,-5.53 4.14,-10.74 7.83,-15.63 0.53,-3.71 3.38,-10.58 7.54,-6.16 1.09,1.16 1.71,4.64 -0.42,4.87 -0.42,3.93 -1.54,7.51 -3.37,10.74 -3.81,2.97 -11.93,21.45 -5.67,23.08 1.4,-0.3 2.72,-0.18 3.97,0.37 0.78,-9.2 2.7,-17.28 6.9,-25.84 0.5,-4.02 3.38,-10.54 6.37,-5.31 2.2,3.19 2.22,6.98 0.07,11.37 -2.47,4.78 -4.03,9.72 -4.65,14.83 l -1.39,1.21 c 0.3,0.97 0.59,2.01 0.87,3.1 1.69,-0.34 3.2,-1.06 4.48,-2.16 l 1.7,0.41 c 0.85,-3.14 2.5,-6.21 4.93,-9.23 2.72,-3.35 2.6,-6.12 -0.37,-8.34 -2.46,-7.14 -1.48,-14.52 2.94,-22.13 l -6.13,-6.44 0.46,-1.85 c -0.52,-3.11 0.26,-6.09 3.99,-5.08 0.89,0.24 13.04,11.86 10.32,14.07 l -4.14,10.38 c -1.54,3.65 -1.41,9.27 3.48,9.39 l 1.13,1.16 0.19,-1.58 c 9.59,-8.82 10.57,-29.11 3.08,-39.81 l 0.6,-1.8 c -1.84,-2.39 0.1,-7.14 2.9,-7.5 1.03,0.54 1.26,1.62 0.69,3.2 2.21,0.62 3.03,1.71 2.46,3.26 8.98,9.68 5.55,44.15 -7.29,49.47 -1.71,0.71 -5.57,0.63 -6.12,1.16 -1.04,1 -3.77,8.8 -5.63,11.42 -2.2,3.09 -7.64,8.37 -11.64,8.22 -2.41,-0.09 -4.6,-1.73 -6.05,-1.72 -1.45,0.01 -3.85,2.1 -6.6,2.09 -4.17,-0.02 -7.72,-0.97 -9.37,-5.03 -0.57,-1.39 -0.63,-4.51 -0.78,-4.69 -0.3,-0.36 -2.4,-0.5 -3.39,-1.07 -4.19,-2.38 -3.36,-8.64 -4.64,-12.23 -0.45,-1.26 -1.73,-2.22 -2.17,-3.44 -5.11,-14.14 3.89,-20.81 7.83,-32.72 0.91,-2.74 0.99,-5.53 1.84,-8.15 2.14,-6.57 6.29,-11.94 12.85,-14.44 -4.74,-16.22 -6.57,-33.17 -4.99,-50.05 0.78,-8.33 1.26,-9.85 0.78,-18.36 -0.9,-15.74 -1.46,-31.41 0.61,-47.14 -0.17,-1.8 -2.71,-2.79 -3.83,-4.16 -3.97,-4.95 -3.03,-16.01 -4.45,-22.81 -2.05,-9.87 -6.52,-18.45 -7.04,-29.04 -0.7,-15.14 1.06,-19.77 9.4,-31.81 0.98,-1.41 1.35,-3.33 2.35,-4.68 1.67,-2.25 14.24,-6.52 17.53,-6.78 1.25,-0.1 5.04,-0.1 6.05,0.24 1.48,0.49 2.16,2.09 2.95,2.61 v 0 z"
       id="path6" />
    <path
       class="st1"
       d="m 56.37,0.33 c 10.48,6.81 19.57,15.44 25.67,26.53 7.82,14.24 14.45,52.25 11.91,68.2 -0.74,4.63 -2.97,3.09 -4.25,4.64 -1.09,1.31 1.83,15.76 2.12,18.89 1.1,11.89 0.57,24.95 -0.04,36.92 -1.18,23.23 -3.88,46.59 -13.6,67.96 -2.56,-2.76 -5.2,-0.81 -3.16,-6.46 l -0.33,-3.61 c 10.27,-35.19 13.61,-73.95 7.55,-109.39 -0.08,-0.93 0.67,-1.44 1.53,-1.77 0.58,-3.41 2.53,-3.38 2.81,-4.2 0.8,-2.39 -2.99,-1.53 -2.03,-3.71 C 83.9,92.9 85.82,91.57 86.64,92.48 85.73,61.13 82.4,26.92 54.99,7.87 L 54.58,5.86 c 1.44,-1.62 2.8,-3.27 1.79,-5.51 v 0 z"
       id="path8" />
    <path
       class="st6"
       d="m 46.23,3.52 c 13.43,8.66 23.59,17.7 29.65,33.4 5.86,15.19 6.67,39.33 5.57,55.66 l -1.43,2.35 C 68.94,96.52 54.5,96.57 43.62,93.83 L 42.41,92.71 C 40.91,83.02 39.14,73.22 37.11,63.33 29.49,44.73 27.43,24.15 38.36,6.41 41.08,4.69 42.97,3.81 46.23,3.52 Z"
       id="path10" />
    <path
       class="st9"
       d="m 83.76,102.23 c -0.61,3.62 1.82,12.8 2.19,17.27 2.46,29.65 -1.31,69.43 -10.93,97.5 -0.76,2.22 -2.83,4.8 -2.9,7.5 -0.51,-0.85 -2.02,-1.86 -2.39,-2.98 -1.1,-3.2 2.62,-10.33 3.48,-14 5.86,-25 10.71,-66.86 8.02,-92.19 -0.19,-1.74 -1.17,-9.43 -2.73,-9.61 -1.63,-0.2 -6.34,0.8 -8.7,0.82 -8.4,0.05 -16.28,-0.53 -24.24,-3.55 -1.55,1.01 2.26,33.08 4.28,36.44 2.9,4.86 11.91,8.51 8.4,15.26 -1.98,3.82 -6.78,1.44 -8.42,2.99 -0.99,0.94 -3.46,7.1 -3.91,8.73 -2.44,8.86 -1.46,22.85 -0.11,32.03 0.56,3.81 3.8,13.88 3.25,16.89 -0.74,3.98 -3.9,3.26 -6.36,5.18 -5.21,4.08 -9.75,16.82 -10.15,23.19 -0.11,1.63 1.5,1.44 1.66,2.57 1.01,7.08 -8.14,17.21 -6.79,24.61 -1.01,2.3 -1.82,4.7 -2.11,7.23 -3.35,1.68 -3.45,-8.06 -3.07,-10.05 1.08,-5.68 13.18,-18.52 9.75,-22.73 -3.43,-4.22 -4.4,3.07 -5.11,4.41 -2.24,4.28 -6.03,8.19 -7.45,13.02 -1.19,-0.23 -0.89,-2.6 -0.8,-3.44 0.94,-8.83 5.37,-13.2 8.14,-20.61 2.17,-5.8 2.73,-14.89 7.92,-19.11 2.77,-2.26 7.32,-1.42 7.98,-5.49 0.39,-2.34 -2.86,-12.02 -3.47,-15.49 -2.53,-14.41 -3.97,-30.03 0.61,-44.09 4.02,0.02 7.68,-0.25 11.55,-1.37 0.34,-0.58 -0.04,-1.14 -1.14,-1.68 -3.91,-0.83 -6.87,-0.68 -10.78,-0.65 -3.01,-17.33 -2.55,-35.31 -0.96,-52.85 1.71,1.32 3.82,1.59 5.89,1.89 6.74,0.98 16.21,2.66 22.79,2.77 5.09,0.09 10.05,-1.51 14.9,-1.66 1.6,-0.05 0.98,-0.65 1.74,1.28 z"
       id="path12" />
    <path
       class="st0"
       d="M 43.62,93.83 C 29.17,90.19 33.33,85.27 31.41,73.53 28.76,57.38 21.16,44.92 24.03,27.5 25.33,19.65 31.79,10.56 38.35,6.41 36.05,15.4 32.6,22.4 32.11,31.86 c -0.83,16.11 5.54,24.51 8.26,38.66 0.7,3.64 0.64,7.66 1.3,11.42 0.7,3.98 3.15,7.83 1.95,11.9 v 0 z"
       id="path14" />
    <path
       class="st0"
       d="m 54.58,5.84 c 9.39,6.13 20.56,19.28 24.45,29.81 6.64,17.95 8.93,38.33 8.7,57.39 -1.02,0.21 -2.32,1.04 -3.19,1.26 -1.1,0.28 -3.17,0.41 -4.51,0.6 C 79.8,69.04 82.4,42.35 65.2,21.05 59.62,14.14 54.5,11.54 47.89,6.37 46.81,5.53 45.87,5.17 46.24,3.49 c 4.12,-0.35 4.97,0.13 8.34,2.33 v 0 z"
       id="path16" />
    <path
       class="st7"
       d="m 50.18,151.47 c 1.17,0.24 2.36,0.42 3.54,0.68 -0.36,1.29 -1.65,0.78 -2.39,1 l -1.14,-1.68 v 0 z"
       id="path18" />
    <path
       class="st2"
       d="m 45.42,287.5 c -1.54,-1.49 -0.75,-1.51 -0.87,-3.1 l 0.83,-0.57 z"
       id="path20" />
    <path
       class="st3"
       d="m 72.11,224.5 c 3.84,6.43 5.5,9.47 5.73,17.32 0.2,6.58 -2.15,23.86 -9.59,25.88 -2.88,0.42 -4.46,-5.07 -1.82,-5.83 -0.54,-0.17 -1.34,-0.51 -1.29,-0.91 0.24,-2.16 2.92,-18.14 3.59,-18.81 0.45,-0.45 0.96,-0.74 1.61,-0.77 -3.11,-3.75 -18.22,-15.26 -16.89,-3.59 1.92,3.01 5,5.15 7.34,7.78 -2.14,6.87 -7.04,13.5 -3.92,20.96 0.74,1.78 3.26,3.77 3.33,4.53 0.27,2.93 -6.08,12.49 -8.59,14.73 l -1.73,-0.31 c -1.11,-5.81 -0.56,-11.78 1.65,-17.9 1.22,-4.05 0.89,-7.57 -1.01,-10.56 -1.19,-0.29 -2.92,-0.85 -3.66,0.5 -0.98,6.59 -4.99,12.96 -6.67,19.14 -0.9,3.32 -0.48,7.78 -1.17,10 -0.4,1.31 -0.96,1.09 -1.78,1.51 -1.55,0.51 -1.88,0.35 -2.83,-0.64 -1.26,-1.32 -0.82,-14.92 1.17,-17.16 3.33,-5.33 6.17,-9.97 6.73,-16.39 -0.09,-1.89 0.18,-4.68 -2.29,-4.69 -2.69,-0.02 -2.47,4.32 -3.25,6.04 -2.15,4.66 -6.97,10.01 -9.41,15.57 l -1.55,-0.85 c 0.71,-6.21 2.83,-12.14 6.35,-17.82 1.32,-3.34 2.28,-6.09 -1.09,-8.5 1.04,-8.15 4.5,-19.58 11.24,-24.73 5.48,-2.17 5.66,-2.41 4.88,-7.96 -3.43,-12.88 -5.36,-26.64 -3.67,-40.14 0.52,-4.19 2.98,-13.45 6.91,-15.08 9.96,-0.07 9.26,-5.43 -2.07,-16.06 -1.73,-3.33 -5.76,-33.92 -4.52,-36.09 0.78,-1.37 1.35,-2.26 3.05,-1.67 10.38,3.75 21.41,3.32 32.01,2.42 4.33,1.83 4.48,20.44 4.47,24.32 -0.05,30.12 -3.36,61.95 -12.35,90.36 0.17,1.8 0.53,3.6 1.07,5.41 v 0 z"
       id="path22" />
    <path
       class="st9"
       d="m 68.25,267.7 c -1.63,0.44 -1.77,0.77 -3.65,-0.28 -8.94,-5.01 3.21,-19 1.98,-23.47 -0.25,-0.91 -5.78,-5.56 -7.06,-6.9 -2.91,-3.04 -3.94,-7.23 -6.06,0.74 -2.11,-3.3 -0.07,-6.89 3.75,-6.26 3.25,0.53 13.96,5.51 13.13,9.85 l -3.92,20.49 c -0.17,0.9 0.6,5.29 1.82,5.83 v 0 z"
       id="path24" />
    <path
       class="st5"
       d="m 42.31,253.95 c 0.38,8.26 -1.17,9.67 -4.86,15.93 -2.66,4.51 -2.68,10.85 -1.79,15.97 0.21,1.2 -0.2,2.31 1.58,2.28 -6.75,3.47 -8.05,-2.09 -7.35,-7.61 1.27,-10.11 6.42,-13.1 10.18,-20.38 1.08,-2.09 0.51,-4.73 2.24,-6.2 v 0 z"
       id="path26" />
    <path
       class="st5"
       d="m 51.62,285.75 c -1.85,1.65 -4.05,3.83 -6.19,1.75 -0.25,-2.44 -0.54,-3.47 -0.87,-3.1 -0.75,-9.99 8.1,-17.2 5.97,-27.42 3.86,0.94 3.11,5.42 2.71,8.92 -0.69,6.18 -4.65,14.29 -1.63,19.86 v 0 z"
       id="path28" />
    <path
       class="st8"
       d="m 54.2,216.68 10.6,2.03 c 1.36,0.26 2.91,3.49 0.87,3.1 l -12.01,-2.3 c -0.92,-0.18 -1.15,-2.49 0.54,-2.83 z"
       id="path30" />
  </g>
</svg>
