<?xml version="1.0" encoding="UTF-8" standalone="no"?>
<svg
   id="Layer_2"
   data-name="Layer 2"
   viewBox="0 0 125.98005 179.39128"
   version="1.1"
   sodipodi:docname="Human_05-torso.svg"
   width="125.98005"
   height="179.39128"
   xmlns:inkscape="http://www.inkscape.org/namespaces/inkscape"
   xmlns:sodipodi="http://sodipodi.sourceforge.net/DTD/sodipodi-0.dtd"
   xmlns="http://www.w3.org/2000/svg"
   xmlns:svg="http://www.w3.org/2000/svg">
  <sodipodi:namedview
     id="namedview24"
     pagecolor="#ffffff"
     bordercolor="#000000"
     borderopacity="0.25"
     inkscape:showpageshadow="2"
     inkscape:pageopacity="0.0"
     inkscape:pagecheckerboard="0"
     inkscape:deskcolor="#d1d1d1" />
  <defs
     id="defs4">
    <style
       id="style2">
      .cls-1 {
        fill: #d57ed6;
      }

      .cls-2 {
        fill: #d1a178;
      }

      .cls-3 {
        fill: #080808;
      }

      .cls-4 {
        fill: #ce75cf;
      }

      .cls-5 {
        fill: #eb9eec;
      }
    </style>
  </defs>
  <g
     id="Layer_1-2"
     data-name="Layer 1"
     transform="translate(0.00825171,0.00161115)">
    <path
       class="cls-5"
       d="m 111.57,19.62 c 0.62,0.86 2.02,8.84 2.15,10.44 0.74,9.13 -0.29,19.15 -3.59,27.68 -1.77,-0.02 -2.52,-1.44 -2.27,-4.26 0.35,-6.47 0.24,-15.57 -6.62,-18.57 l -0.47,-1.62 -1.01,1.24 c -1.94,-0.65 -2.65,1.03 -2.12,5.04 2.34,12.06 0.28,21.47 -6.51,31.85 -7.49,15.95 -3.07,33.5 3.73,48.9 4.88,10.27 9.28,20.71 13.22,31.32 1.96,6.46 5.91,20.79 -5.14,17.59 l -1.87,1.1 c -17.08,-7.96 -32.09,-6.77 -48.53,1.41 -6.87,2.63 -14.36,3.35 -21.52,1.2 -5.08,-1.52 -12.77,-4.09 -15.11,-8.75 l -1.48,-1.9 c -0.2,-14.02 2.57,-27.89 8.3,-41.62 4.4,-12.1 5.93,-24.09 4.6,-35.95 C 21.94,77.6 18.86,69.18 17.93,60.14 L 16.27,40.17 c -0.72,-1.49 -1.8,-2.83 -3.24,-4.01 l -0.97,1.23 C 9.68,36.93 8.37,39.62 8.13,45.48 L 6.56,46.23 C 5.35,45.48 5.22,44.28 5.11,43.01 4.4,35.33 5.32,27.02 7.28,19.62 c 1.4,-2.74 8.86,-4.27 11.51,-2.88 h 1.73 c 22.36,13.74 58.47,18.79 78.53,-1.3 l 1.74,-0.14 c 1,-2.39 11.13,1.58 11.07,3.2 -0.02,0.38 -0.13,0.75 -0.28,1.12 z"
       id="path6" />
    <path
       class="cls-3"
       d="m 110.13,57.75 c -6.88,17.81 -12.98,20.93 -9.98,42.71 2.7,19.61 14.42,30.02 21.32,47.01 1.39,3.43 4.87,13.07 4.47,16.31 -0.61,5 -13.81,12.01 -18.39,12.59 -7.77,0.98 -15.34,-4.41 -22.71,-5.94 -17.41,-3.63 -25.99,7.88 -41.98,8.87 -17.83,1.1 -29.06,-8.1 -42.67,-17.73 -0.2,-1.84 -0.27,-3.79 -0.11,-5.63 C 1.91,135.27 14.26,117.75 15.2,98.42 15.83,85.58 7.64,77.54 5.91,65.21 4.96,58.41 5.39,52.98 6.54,46.24 7,43.56 7.52,36.32 10.61,35.62 c 0.78,-0.18 1.66,0.43 2.41,0.55 2,1.24 2.57,3.52 1.72,6.84 -2.9,12.65 -2.76,26.52 5.17,37.38 6.18,12.35 2.77,26.92 -1.45,39.42 -1.97,4.91 -13.22,36.36 -11.05,37.47 3.93,1.45 6.76,3.75 8.49,6.92 33.43,21.42 39.42,-4.48 68.51,-0.53 6.12,0.83 11.95,4.51 18.53,5.57 3,1.82 12.76,-4.13 14.5,-6.55 2.83,-3.94 -15.5,-35.66 -18.34,-40.53 -12.02,-24.14 -10.28,-41.8 2.28,-64.41 l 1.55,-0.36 c -2.39,-0.69 -2.2,-9.67 0,-10.79 -0.57,0 -1.29,-0.08 -1.49,-0.55 -1.17,-2.75 -4.33,-11.89 -0.67,-12.76 5.91,1.31 7.95,7.85 8.56,13.38 0.39,3.61 -0.74,7.75 0.8,11.07 z"
       id="path8" />
    <path
       class="cls-3"
       d="m 34.61,3.08 3.06,0.15 C 51.34,11.65 66.99,9.31 80.94,2.8 l 1.86,0.28 c 5.01,-2.13 3.73,1.96 7.4,3.75 4.09,1.99 24.24,4.36 24.27,10.28 0,1.4 -1.56,2.47 -2.9,2.52 -1.59,-2.21 -8.27,-3.48 -10.79,-4.32 l -2,0.88 c -5.42,-1.36 -10.56,-2.74 -14.97,-6.18 -15.53,8.73 -34.93,7.94 -50.89,0.36 -2.86,3.51 -9.81,8.11 -14.14,6.37 -3.41,1.2 -7.93,1.87 -11.51,2.88 -2.91,0.04 -2.51,-3.12 -0.93,-4.36 3.49,-2.73 14.8,-4.08 19.42,-7 3.44,-2.17 3.76,-8.02 8.84,-5.19 z"
       id="path10" />
    <path
       class="cls-2"
       d="M 82.8,3.08 C 70.25,8.41 65.69,11.64 50.88,9.47 42.85,8.29 41.04,6.66 34.61,3.08 43.59,0.19 54.3,-0.34 63.77,0.17 c 3.38,0.18 6.7,1.09 10.04,1.47 2.95,0.34 6.5,-0.83 8.98,1.45 z"
       id="path12" />
    <path
       class="cls-4"
       d="m 100.78,15.31 c -1.79,3.33 -4.09,4.87 -7.25,6.78 -20.4,12.32 -46.26,9.4 -67.1,-0.4 -2.59,-1.22 -6.12,-2.51 -7.65,-4.93 4.59,-1.61 11.99,-3.83 13.68,-8.63 14.83,8.53 32.88,8.73 48.45,2.07 0.88,-0.38 2.77,-1.94 2.97,-1.94 0.33,0 3.92,2.9 5.61,3.6 3.51,1.46 7.63,2.25 11.29,3.46 z"
       id="path14" />
    <path
       class="cls-4"
       d="m 13.03,36.17 c 4.42,0.66 4.6,2.25 5.03,6.84 1.23,13.28 0.3,22.37 6.61,35.11 0.99,2 3.19,4.02 4,6.07 3.24,8.14 -1.52,25.31 -3.76,33.99 -3.91,15.13 -11.51,30.06 -9,46.03 C 12.56,162.07 9.42,159.67 5.78,157.99 7.49,134.62 26.52,110.23 20.75,86.36 19.32,80.44 15.36,76.84 13.72,71.81 12.08,66.78 11.37,59.15 11.61,53.8 11.87,48.05 14.64,41.6 13.04,36.17 Z"
       id="path16" />
    <path
       class="cls-4"
       d="m 100.78,33.29 c -1.58,4.12 2.16,10.41 2.16,13.31 v 10.79 c 0,1.91 -8.08,16.09 -9.15,21.78 -6,31.77 9.34,43.36 20.56,68.24 1.22,2.71 5,12.03 4.98,14.44 -0.03,3.16 -9.43,7.9 -12.45,8.14 -2.22,0.18 -2.72,-0.54 -3.93,-0.74 3.95,-0.11 5.32,1.33 5.75,-3.23 0.57,-5.98 -1.22,-12.06 -3.25,-17.62 C 96.77,124.61 78.93,100.49 88.53,73.91 90.84,67.52 96.07,61.12 97.01,54.33 97.79,48.68 95.2,38.55 96.59,34.5 c 0.76,-2.22 2.74,-1.52 4.2,-1.2 z"
       id="path18" />
    <path
       class="cls-1"
       d="m 49.71,86.52 c -0.55,-2.11 2.49,-2.09 3.92,-2.19 2.97,-0.2 6.16,-0.11 9.02,0.76 0.31,0.72 -1.68,1.43 -1.79,1.43 z"
       id="path20" />
  </g>
</svg>
