<?xml version="1.0" encoding="UTF-8"?>
<svg id="Layer_2" data-name="Layer 2" xmlns="http://www.w3.org/2000/svg" viewBox="0 0 172.64 173.12">
  <defs>
    <style>
      .cls-1 {
        fill: #2b2b2b;
      }

      .cls-2 {
        fill: #959595;
      }

      .cls-3 {
        fill: #d9d9d9;
      }
    </style>
  </defs>
  <g id="Layer_1-2" data-name="Layer 1">
    <path d="M122.72,7.3l-.67,1.35c4.83,1.65,9.65,4.48,13.86,7.38,49.56,34.14,48.9,109.48-1.57,142.77-45.59,30.06-108.04,10.85-128-39.83C-22.44,45.91,52.13-22.94,122.72,7.3ZM85.87,6.03C28.1,6.5-10.41,66.28,12.52,119.27c25.44,58.78,106.97,65.16,141.89,11.41,34.88-53.69-4.96-125.17-68.54-124.65Z"/>
    <path class="cls-1" d="M85.87,6.03c63.58-.52,103.42,70.96,68.54,124.65-34.93,53.76-116.46,47.38-141.89-11.41C-10.41,66.28,28.1,6.5,85.87,6.03ZM74.35,13.94C8.63,22.86-2.46,119.04,52,150.3c28.97,16.63,74.54,12.66,91.97-18.55,15.57-27.88,19.84-58.41,1.66-86.58-13.07-20.25-47.68-34.44-71.28-31.24Z"/>
    <path d="M74.35,13.94c23.6-3.2,58.21,10.99,71.28,31.24,18.18,28.17,13.91,58.7-1.66,86.58-17.43,31.21-63,35.18-91.97,18.55C-2.46,119.04,8.63,22.86,74.35,13.94ZM81.72,18.78c-14.78,1.25-30.15,7.41-40.94,17.73-.27,1.59,17.22,22.65,19.7,25.45s11.77,13.78,14.69,14.05c1.5.14,4.34-2,6.55-1.11V18.78ZM89.1,76.88c1.48.62,3.03,2.22,4.15.61l35.63-42.17c-12.04-8.1-26.76-14.76-41.4-15.81l1.63,57.38ZM21.99,90.01l46.33-2.25c1.46-.49,1.32-4.11,2.5-5.49l-34.08-41.18-5.97,7.69c-7.18,12.23-9.01,27.25-8.78,41.23ZM152.24,88.57c-.11-2.5.17-5.05-.01-7.55-.64-8.85-5.31-26.97-10.8-33.81-.92-1.15-5.71-6.15-6.82-6.16l-37.74,41.36,1.88,4.75,53.49,1.41ZM77.4,82.81c-13.4,13.43,17.2,23.89,15.83,6.47-.29-3.71-1.92-5.88-5.25-7.34-5.08-2.22-6.85-2.87-10.58.86ZM152.23,94.33l-53.5-1.48-2.63,5.45,35.62,41.34c6.78-6.29,9.02-13.87,12.68-21.84,3.59-7.82,8.04-13.94,7.83-23.47ZM22,95.77c2.38,15.53,9.25,30.67,20.6,41.67l30.97-37.72c-1.29-1.58-3.28-5.76-5.15-6.12l-46.42,2.17ZM80.88,103.08c-.15-.24-2.32-1.02-2.67-.78l-30.22,38.56c-.22,2.2,12.59,8.25,15.03,9.22,1.67.66,19.56,6.05,19.43,3.6-.58-3.29-1.34-7.48-1.48-10.75-.24-5.46.98-38.16-.08-39.84ZM127.04,143.95c.78-1.12-6.4-7.28-7.56-8.61-6.36-7.31-12.01-15.33-18.36-22.65-1.58-1.82-8.53-10.22-10.1-10.13-.56.03-4.06,1.04-4.18,1.22.52,10.17-1.15,20.37-.84,30.51.21,6.88,1.9,14.2,1.48,21.19,3.25-1.46,6.96-.39,10.42-.73,10.56-1.04,20.12-5.54,29.15-10.8Z"/>
    <path class="cls-2" d="M77.4,82.81c.85.42,1.6,1.26,2.25,2.51,5.13.11,9.16,1.93,13.58,3.97,1.37,17.41-29.23,6.96-15.83-6.47Z"/>
    <path class="cls-3" d="M93.23,89.29c-3.26,1.77-4.83-1.14-7.87-1.84-3.79-.87-8.13.97-7.96-4.63,3.73-3.73,5.5-3.08,10.58-.86,3.33,1.46,4.96,3.62,5.25,7.34Z"/>
  </g>
</svg>