<?xml version="1.0" encoding="UTF-8" standalone="no"?>
<svg
   id="Layer_2"
   data-name="Layer 2"
   viewBox="0 0 96.070427 365.31706"
   version="1.1"
   sodipodi:docname="Human_08-arm_palmdown.svg"
   width="96.070427"
   height="365.31705"
   xmlns:inkscape="http://www.inkscape.org/namespaces/inkscape"
   xmlns:sodipodi="http://sodipodi.sourceforge.net/DTD/sodipodi-0.dtd"
   xmlns="http://www.w3.org/2000/svg"
   xmlns:svg="http://www.w3.org/2000/svg">
  <sodipodi:namedview
     id="namedview36"
     pagecolor="#ffffff"
     bordercolor="#000000"
     borderopacity="0.25"
     inkscape:showpageshadow="2"
     inkscape:pageopacity="0.0"
     inkscape:pagecheckerboard="0"
     inkscape:deskcolor="#d1d1d1" />
  <defs
     id="defs4">
    <style
       id="style2">
      .cls-1 {
        fill: #cab196;
      }

      .cls-2 {
        fill: #080808;
      }

      .cls-3 {
        fill: #c8af94;
      }

      .cls-4 {
        fill: #282828;
      }

      .cls-5 {
        fill: #5b5146;
      }

      .cls-6 {
        fill: #cbb196;
      }

      .cls-7 {
        fill: #c9b095;
      }

      .cls-8 {
        fill: #1b1b1b;
      }

      .cls-9 {
        fill: #e5ceb5;
      }
    </style>
  </defs>
  <g
     id="Layer_1-2"
     data-name="Layer 1"
     transform="translate(1.3302977e-4,1.8338699e-4)">
    <path
       d="m 53.34,3.79 c 8.98,-4 13.71,-5.65 23.53,-0.85 21.35,10.44 20.94,39.97 17.29,60.02 -2.43,13.33 -8.44,25.41 -11.96,38.44 -9.32,34.47 -12.59,71.9 -17.23,107.33 -2.38,18.17 -3.18,36.54 -8.4,54.21 0.03,2.71 10.44,14.28 12.24,18.78 2.9,7.25 2.38,16.13 4.33,23.75 1.68,6.58 9.36,18.82 2.9,24.49 -4.32,3.79 -9.32,-0.82 -12.61,-3.62 0.62,7.16 -2.29,31.47 -11.35,32.27 -2.35,0.21 -3.71,-1.94 -5.93,-2.03 -1.92,8.76 -10.31,11.43 -14.05,2.16 -2.89,6.07 -13.25,10.36 -15.32,1.63 -0.31,-1.33 -0.46,-7.67 -0.89,-8.12 -0.28,-0.29 -4.07,1.91 -7.57,-1.42 C 4.63,347.32 5.13,331.22 4.28,325.35 3.43,319.48 0.02,311.48 0,305.83 -0.02,301.04 2.22,292.5 3.43,287.6 c 1.38,-5.56 6.7,-18.32 6.59,-22.83 -0.06,-2.39 -2.65,-8.5 -3.27,-11.71 -4.08,-21.25 -5.91,-40.75 -4.53,-62.42 0.8,-12.54 3.45,-25.55 3.59,-37.81 1.13,-6.4 7.86,-3.94 5.76,2.16 l 1.23,1.13 c -1.18,10.82 -2.29,21.79 -3.33,32.91 l 0.66,1.96 c 0.58,-0.57 1.35,-1.1 2.16,-0.72 0.12,-1.87 1.79,-2.48 2.41,-0.67 l 1.91,-0.05 c 0.4,-0.42 0.81,-0.81 1.28,-1.12 3.42,-2.28 31.69,-1.87 34.96,0.63 0.45,0.34 0.84,0.77 1.2,1.21 l 1.21,-1.16 c 4.92,2.92 7.11,1.41 6.55,-4.53 C 63.98,147.33 71.14,109.55 83.52,74.46 91.71,50.84 95.12,4.04 59.09,7.38 53.95,11.72 46.22,9.62 53.33,3.78 Z"
       id="path6" />
    <path
       class="cls-9"
       d="m 51.18,195.31 1.39,3.06 c 0.12,23.57 -1.53,47.13 -4.94,70.67 1.45,3.63 3.55,7.03 6.31,10.19 4.01,4.72 16.13,39.55 14.9,42.72 -0.19,0.5 -1.15,0.38 -1.83,0.07 -1.31,-1.34 -4.27,-4.59 -4.87,-6.29 -1.09,-3.1 -1.41,-15.05 -3.8,-16.39 -0.77,-0.43 -1.5,-0.2 -2.14,-0.35 -3.16,0.99 -4.07,4.24 -2.75,9.74 1.95,13.04 1.75,25.82 -0.6,38.35 l -1.69,1.58 -1.47,-18.33 c -0.22,-3.3 1.18,-18.15 -2.63,-19.04 -1.56,-0.37 -2.19,1.07 -3.1,1.37 l -0.35,1.54 c -2.37,-0.11 -3.24,1.84 -2.63,5.84 1.63,10.87 0.12,22.2 -3.2,32.61 l -1.74,-0.4 C 34.18,341.9 35.87,330.8 34.51,320.3 c -0.28,-2.14 -0.57,-6 -3.14,-6.17 -0.79,-0.05 -1.36,0.6 -1.81,0.68 -0.24,2.1 -2.6,1.95 -4.32,1.8 0.34,-0.04 0.67,-0.04 0.96,0.06 1.5,0.5 1.14,30.06 0.48,31.5 l -1.44,0.84 c 2.24,1.95 -0.24,8.68 -2.16,10.44 -0.16,0.03 -0.26,1.28 -0.72,0.35 -1.42,-2.88 -0.5,-7.53 -0.7,-10.82 -0.06,-0.94 -0.75,-1.88 -0.75,-2.13 v -23.76 c 0,-0.63 -1.13,-4.98 -1.73,-5.47 -1.53,-1.26 -2.56,-0.46 -4.03,0.07 -0.46,0.65 -0.8,1.45 -1.05,2.41 0.19,5.91 -0.03,11.79 -0.65,17.66 -0.15,2.31 -1.03,3.3 -2.62,2.97 -0.36,-4.36 -0.24,-8.83 -0.81,-13.23 -1.5,-11.59 -6.54,-18.82 -2.79,-30.69 2.54,-8.48 5.23,-17.33 7.91,-25.97 0.43,-1.39 0.97,-2.63 2.17,-3.55 9.18,-4.22 16.33,-3.24 25.91,-5.05 -0.1,-1.14 -2.81,-1.52 -3.71,-1.68 -5.2,-0.92 -13.49,0.14 -18.61,1.69 -1.05,-1.2 -2.07,-2.49 -2.56,-4.03 -4.85,-15.04 -7.73,-44.57 -6.08,-60.24 0.18,-1.7 0.28,-2.13 2.16,-2.69 1.98,-0.36 6.74,-1.44 8.28,-1.44 h 21.6 c 0.9,0 5.33,1.14 6.84,1.44 z"
       id="path8" />
    <path
       class="cls-6"
       d="m 51.18,195.31 c 1.65,0.33 9.62,1.82 9.87,3.19 -2.64,13.01 -2.91,26.43 -4.94,39.54 -0.96,6.24 -5.29,20.38 -5,25.31 0.27,4.55 9.7,14.3 11.97,19.04 3.48,7.26 2.84,16.73 4.86,24.66 0.98,3.87 11.38,27.59 -0.93,14.97 1.32,-0.5 0.05,-2.2 -0.19,-3.04 -4.04,-14.19 -6.09,-25.2 -13.63,-38.22 -2.1,-3.63 -6.44,-7.52 -7,-11.72 2.04,-18.37 4.35,-36.9 5.01,-55.35 0.22,-6.11 -0.22,-12.28 -0.03,-18.39 z"
       id="path10" />
    <path
       class="cls-6"
       d="m 14.46,195.31 c -0.82,1.2 -0.71,2.55 -0.75,3.92 -0.64,21.24 1.53,42.64 7.23,63.04 -1.29,0.39 -3.02,2.04 -4.63,2.13 -2.37,-0.5 -5.52,-20.26 -6.05,-23.49 -1.12,-6.87 -2.57,-15.37 -2.99,-22.21 -0.21,-3.39 -0.62,-19.34 0.09,-21.49 0.44,-1.33 5.21,-1.56 7.1,-1.9 z"
       id="path12" />
    <path
       class="cls-6"
       d="m 43.98,312.67 c 0.56,12.28 1.49,23.97 -0.93,36.15 -1.31,6.61 -4.64,16.46 -6.99,3.45 1.32,-0.73 1.18,-2.02 1.43,-3.25 1.05,-5.21 2.81,-13.67 2.9,-18.74 0.06,-3.38 -2.29,-15.17 0.48,-16.95 0.96,-0.62 2.25,-0.37 3.11,-0.66 z"
       id="path14" />
    <path
       class="cls-6"
       d="m 56.22,298.99 c -3.08,4.49 0.05,9.95 0.63,14.85 1.38,11.5 2.43,24.67 -2.45,35.54 -0.62,1.38 -1.26,3.83 -3.22,3.61 0.11,-1.39 -0.18,-2.97 0,-4.32 0.62,-4.8 1.99,-9.76 2.19,-14.73 0.44,-10.62 -1.74,-21.29 -1.42,-31.65 0.12,-3.91 1.32,-3.99 4.27,-3.3 z"
       id="path16" />
    <path
       class="cls-1"
       d="m 29.58,314.83 c -2.39,13.39 3.98,27.82 -2.03,40.81 -1.37,2.97 -1.32,3.18 -4.45,3.83 -0.31,-3.09 2.16,-7.73 2.16,-10.44 v -32.4 c 0,-1.62 3.39,-1.63 4.32,-1.8 z"
       id="path18" />
    <path
       class="cls-3"
       d="m 15.18,317.71 c -0.82,9.78 3.37,20.72 -2.52,29.51 -1.88,-1.68 -1.62,-4.25 -1.8,-6.47 2.96,-3.52 1.08,-21.1 3.04,-22.91 0.36,-0.33 1,-0.03 1.28,-0.13 z"
       id="path20" />
    <path
       class="cls-7"
       d="m 7.26,296.83 c 0.8,-9.81 5.56,-18.66 7.18,-28.3 0.3,-0.72 2.08,-0.85 2.9,-1.22 -2.21,8.41 -5.17,16.61 -7.9,24.86 -0.52,1.58 -1.81,3.46 -2.18,4.66 z"
       id="path22" />
    <path
       class="cls-2"
       d="m 53.34,3.79 c -4.21,6.16 1.68,5.65 5.76,3.6 L 58.25,9.76 C 37.38,20.68 19.84,31.16 12.23,54.94 7.97,68.25 8.29,82.54 9.43,96.33 c 2.04,16.22 3.71,32.46 5,48.74 0.76,4.67 -0.19,7.98 -2.84,9.92 0.49,-4.37 -3.43,-6.12 -5.76,-2.16 C 6.19,121.38 -6.04,77.94 5.48,49.16 14.73,26.04 31.41,13.57 53.34,3.79 Z"
       id="path24" />
    <path
       class="cls-4"
       d="m 54.06,190.27 c -11.8,-2.39 -25.53,-2.23 -37.44,-0.72 -3.19,0.91 -4.39,-0.43 -3.59,-4.05 l 5.63,-34.93 1.56,-0.62 c 1.37,-1.72 3.74,-2.45 7.12,-2.18 l 17.3,1.66 c -6.43,-2.42 -13.55,-2.84 -20.38,-3.14 l -1.15,-1.39 -3.61,0.45 C 18.05,130.74 16.3,116.05 14.27,101.28 11.27,69.13 16.13,46.14 40.81,24.14 45.85,19.65 56.42,10.3 62,8.07 c 6.01,-2.4 14.17,1.23 17.84,6.2 4.42,5.97 4.29,22.39 3.94,29.89 -0.77,16.39 -5.1,30.23 -11,45.68 -6.95,30.6 -12.31,61.67 -16.08,93.2 -0.57,2.52 -1.45,4.92 -2.63,7.22 z"
       id="path26" />
    <path
       class="cls-8"
       d="m 59.1,7.39 c 0.8,-0.59 0.14,-1.18 2.47,-1.48 17.4,-2.19 27.34,13.85 28.48,29.21 2.16,29.34 -9.33,47.37 -15.61,74.37 -4.66,20.04 -8.22,41.23 -10.3,61.7 -0.7,6.93 -0.36,14.26 -2.17,21.23 -0.6,0.53 -6.64,-1.9 -7.92,-2.16 2.72,-16.1 4.7,-32.36 7.32,-48.48 2.36,-14.5 4.61,-31.15 8.03,-45.25 C 73.23,80.74 80.74,67.66 82.04,50.85 82.58,43.94 82.69,24.06 80.33,18.19 77.09,10.12 68,6.95 60.12,10.21 44.56,23.66 29.34,31.99 21.31,52.04 c -11.43,28.56 -5.16,48.88 -1.9,77.48 0.55,4.81 0.47,9.55 0.8,14.33 0.14,2.05 1.78,0.75 2.89,1.06 l 0.05,0.96 c -6.07,2.04 -7.4,2.93 -3.97,2.68 l 1.04,1.4 -5.75,35.65 c 0.16,2.07 -1.21,4.63 2.15,3.95 -1.19,0.15 -2.89,0.51 -4.32,0.72 -0.97,-0.16 -1.39,0.12 -2.16,0.72 -0.72,0.03 -1.44,0 -2.16,0 0.29,-9.52 1.65,-19 2.87,-28.45 0.37,-2.89 -0.03,-4.41 0.73,-7.55 0.71,-2.94 1.57,-3.86 1.48,-7.58 C 11.93,103.76 -7.9,55.56 32.84,23.25 41.2,16.62 51.23,13.28 59.1,7.39 Z"
       id="path28" />
    <path
       class="cls-5"
       d="m 12.3,190.27 c -0.11,0.02 -0.62,0.65 -2.16,0.72 0.38,-1.2 1.36,-1.9 2.16,-0.72 z"
       id="path30" />
    <path
       class="cls-2"
       d="m 23.1,144.91 c 3.96,-0.39 19.14,1.28 22.27,3.29 0.89,0.57 1.71,1.25 1.48,2.47 -1.18,1.03 -15.51,-1.4 -18.32,-1.46 -3.17,-0.08 -5.52,0.6 -8.31,0.75 -1.69,0.09 -5.19,0.23 -4.3,-2.5 0.32,-0.98 6.03,-2.43 7.18,-2.54 z"
       id="path32" />
  </g>
</svg>
