<?xml version="1.0" encoding="UTF-8"?>
<svg id="Layer_2" data-name="Layer 2" xmlns="http://www.w3.org/2000/svg" viewBox="0 0 55.37 71.16">
  <defs>
    <style>
      .cls-1 {
        fill: #937353;
      }

      .cls-2 {
        fill: #927353;
      }

      .cls-3 {
        fill: #927253;
      }

      .cls-4 {
        fill: #b28a63;
      }

      .cls-5 {
        fill: #947454;
      }
    </style>
  </defs>
  <g id="Layer_1-2" data-name="Layer 1">
    <path d="M38.32,3.22c.27-5.87,6-2.37,8.3-.02,5.72,5.85,3.78,12.18,4.75,19,1.14,8.08,7.52,29.37,1.37,35.37-3.02,2.95-6.88.83-7.19,1.06-1.42,1.03-1.61,9.2-9.21,5.92-2.47-1.06-2.1-3.28-3.77-4.49.39,4.31-4.66,13.21-9.54,10.65-3.84-2.02-3.33-9.34-4.15-9.94-.42-.3-3.2,1.53-5.04.38-.55-.34-2.22-3.83-2.5-4.7-2.11-6.52-.51-12.99,1.07-19.42-3.07,2.11-9.39,2.45-11.42-1.16-3.9-6.93,4.82-10.87,8.14-15.44C13.64,14.25,15.38,1.18,26.8,5.38c4,2.12-1.7,5.07-4.57,5.66l-1.9,1.58c-3.26,8.18-8.29,14.64-15.11,19.38,2.54,2.77,6.56-.89,8.52-2.9,4.03-5.4,8.78-11.21,15.94-7.9,4.2-2.07,3.86,5.55-.51,6-3.1.22-5.15.44-7.41,1.92-4.73,7.21-6.9,16.76-5.45,25.22l1.14-.04c-.5-2.46,2.98-19.51,3.98-19.64.34-.04.69.06,1.05.21,3.54-1.12,4.76,2.04,3.64,9.48-.56,2.72-2.99,19.07-.51,19.9.44-1.87,1.32-2.79,2.63-2.76-.42-4.09-.2-23.11,2.46-25,2.16-1.54,5.33-.89,4.74,1.98,1.51,6.8,2.66,13.72,3.45,20.75l1.59.11c-.2-7.5-.64-14.99-1.33-22.47,2.2-6.14,9.75-.96,6.37,3.05l1.58,9.46c.96.42,1.56,1.59,1.8,3.5,2.57.05-1.65-29.29-3.43-32.05.34-6.44-1.32-11.59-4.99-15.45-1.73.99-2.55-.53-2.16-2.16Z"/>
    <path class="cls-4" d="M38.32,3.22c1.15.34,1.53,1.3,2.16,2.16,1.93,1.36,3.25,3.34,3.78,5.62,1.22,8.45,2.6,16.77,4.13,24.95.87,1.09,1.65,12.28.96,12.84-.27.22-.61.36-.96.47-.34.72-.74.93-1.23.44l-1.65-9.79c-.79-2.2-.71-5.3-3.89-4.25-1.71.56-1.23,4.49-1.14,6.05.31,5.21,3.2,12.9-.01,17.63l-1.63-.26c-.67-7.05-1.81-13.92-3.41-20.61-2.13-1.73-3.56-2.33-4.71.68-1.26,7.19-.64,15.31-2.48,22.34-1.44,1.93-2.65.14-2.87-1.93-.06-6.15.25-12.31.93-18.46.49-5.66-.79-7.74-3.82-6.24-1.99,1.93-3.66,15.54-5.04,19.42-.45.31-.81.54-.87.48-2.96-3.05,1.75-22.06,5.19-25.66.3-.34.15-1.93,1.42-2.53,2.37-1.11,8.85.63,7.93-4.15-.12-.6-1.13-.85-1.43-1.23-7.45-3.11-11.72,2.23-16.02,7.98-1.93,2.05-6.3,5.63-8.45,2.81,1.28-3.71,5.99-6.25,8.23-9.4,3.07-4.32,3.03-9.67,8.06-12.8,1.3-.81,3.7-1,4.6-1.9s.54-2.3.7-2.52c.92-1.28,9.54-1.35,11.51-2.16Z"/>
    <path class="cls-5" d="M45.51,39.91c1.08,3.03,1.94,6.12,2.17,9.35h.71s0-13.31,0-13.31c0-3.82-3-11.96-3.98-16.16-1.26-5.38-.43-9.58-3.93-14.41,7.19,2.73,5.06,10.49,5.84,16.1,1,7.19,6.64,26.37,3.83,32.07-.3.6-.95.98-1.4,1.46-1.98-.03-3.48-12.84-3.24-15.09Z"/>
    <path class="cls-3" d="M22.49,34.88c2.04-1.98,3.46-.98,4.1,1.27,2.13,7.56-.33,14.58.18,22.15.09,1.34-.17,2.69,1.48,3.2-.38,1.46-2.42,7.09-3.76,4.13-3.96-8.69,1.56-20.66.89-29.69-.15-2.05-1.77-.75-2.88-1.05Z"/>
    <path class="cls-1" d="M17.45,54.3c-.25.71-.8,1.34-.73,2.16-4.07-3.86-1.52-17.48.58-22.09.92-2.03,3.04-3.64,4.47-5.24-2.11,7.15-4.02,13.98-4.83,21.44-.13,1.15-.83,2.99.51,3.74Z"/>
    <path class="cls-2" d="M5.22,32c10.23-.35,10.55-13.28,21.13-12.9,3.49.13,2.63,1.23,3.34,2.11-2.38.67-6.66.23-8.62,1.09-3.25,1.42-8.06,13.83-15.82,11.84-.4-1.15-.36-1.16-.02-2.14Z"/>
    <path class="cls-2" d="M40.48,59.34c-.45.66-.67,1.69-1.79,1.44-3.74-.84-2.01-18.69-3.25-22.3,4.37,3.56,2.81,15.58,5.04,20.86Z"/>
  </g>
</svg>