<?xml version="1.0" encoding="UTF-8"?>
<svg id="Layer_2" data-name="Layer 2" xmlns="http://www.w3.org/2000/svg" viewBox="0 0 202.97 348.61">
  <defs>
    <style>
      .cls-1 {
        fill: #181818;
      }

      .cls-2 {
        fill: #040041;
      }

      .cls-3 {
        fill: #cacaca;
      }

      .cls-4 {
        fill: #19173a;
      }

      .cls-5 {
        fill: #060066;
      }

      .cls-6 {
        fill: #937454;
      }

      .cls-7 {
        fill: #6a6a46;
      }

      .cls-8 {
        fill: #2a2a2a;
      }

      .cls-9 {
        fill: #272727;
      }

      .cls-10 {
        fill: #cdcdcd;
      }

      .cls-11 {
        fill: #cecece;
      }

      .cls-12 {
        fill: #262626;
      }

      .cls-13 {
        fill: #b28a62;
      }

      .cls-14 {
        fill: #04004c;
      }

      .cls-15 {
        fill: #1c1c1c;
      }

      .cls-16 {
        fill: #d5d5d5;
      }

      .cls-17 {
        fill: #f9f9f9;
      }

      .cls-18 {
        fill: #8a8a8a;
      }

      .cls-19 {
        fill: #6b6b46;
      }

      .cls-20 {
        fill: #282828;
      }

      .cls-21 {
        fill: #202020;
      }

      .cls-22 {
        fill: #dbdbdb;
      }

      .cls-23 {
        fill: #d3d3d3;
      }

      .cls-24 {
        fill: #878787;
      }

      .cls-25 {
        fill: #6d6d47;
      }

      .cls-26 {
        fill: #2b2b2b;
      }

      .cls-27 {
        fill: #969696;
      }

      .cls-28 {
        fill: #6d6d6d;
      }

      .cls-29 {
        fill: #616161;
      }

      .cls-30 {
        fill: #1b1b1b;
      }

      .cls-31 {
        fill: #191919;
      }

      .cls-32 {
        fill: #515151;
      }

      .cls-33 {
        fill: #d6d6d6;
      }

      .cls-34 {
        fill: #888;
      }

      .cls-35 {
        fill: #ebebeb;
      }

      .cls-36 {
        fill: #03002c;
      }

      .cls-37 {
        fill: #8c8b55;
      }

      .cls-38 {
        fill: #353535;
      }

      .cls-39 {
        fill: #959595;
      }

      .cls-40 {
        fill: #949494;
      }

      .cls-41 {
        fill: #979797;
      }

      .cls-42 {
        fill: #292929;
      }

      .cls-43 {
        fill: #03003c;
      }

      .cls-44 {
        fill: #5d5d5d;
      }

      .cls-45 {
        fill: #ececec;
      }

      .cls-46 {
        fill: #fefefe;
      }

      .cls-47 {
        fill: #8c8b56;
      }

      .cls-48 {
        fill: #d1d1d1;
      }

      .cls-49 {
        fill: #d9d9d9;
      }

      .cls-50 {
        fill: #0d0c1f;
      }
    </style>
  </defs>
  <g id="Layer_1-2" data-name="Layer 1">
    <path class="cls-15" d="M17.42,178.61c.17,4.15.46,8.46.86,12.93l-2.35,6.97c2.33,8.49,1.23,16.56,0,25.29-.63,5.51.13,10.84,2.27,16-2.05,4.93-2.28,9.55-.69,13.85l-.98,24.1c.99,3.15,1.64,6.37,1.94,9.66-1.25,16.59-.36,33.1,2.65,49.55l-.82,1.37c-.41.14-.7.8-1.8.8s-1.33-.61-1.8-.8c-1.29-2.95-2.01-3.43-2.16-1.44-.23-.18-1.14-.02-1.77-.72-.36-.4-2.31-3.72-2.55-4.32-1.83-10.66-2.6-21.42-2.32-32.3l-1.28-4.39c-.19-6.47-1.24-12.9-.72-19.42l1.47,1.22c.16-5.36,1.13-10.7,2.91-16.02-1.81-8.85-1.48-16.56-.06-25.45-3.05-8.45-3.73-15.72-1.39-24.5-1.19-6.1-1.09-12.3.3-18.59l-.36-5.14c.66-2.87.61-3.18,2.16-5.76l1.13,1.24c.88,15.6.89,5.74.56-2.79l1.18-1.33c.6-.23,1.12-.7,1.89-.72,1.19-.02,1.3.57,1.71.72Z"/>
    <path class="cls-26" d="M20.3,180.77c.24,1.22.19,2.67-.13,4.32,1.64,16.03,2.88,33.37-.66,49.2.86,2.09,1.63,4.24,2.31,6.44-1.45,32.14-1.24,64.19.65,96.15-1.02,1.35-.79.98-2.16,1.44-1.82-3.82-1-8.64-1.47-12.56-.83-6.84-2.87-15.88-2.91-23.06-.03-5.24,2.23-13.05,1.54-18.03-.34-2.43-2.08-2.69-2.27-4.98-.59-7.1,1.39-19.16.84-26.62-.13-1.8-1.38-3.01-1.48-4.37-.17-2.34,2.27-6.23,2.22-9.33-.05-2.83-1.91-3.68-2.25-6.44-1.06-8.8,1.52-17.22,1.5-25.2,0-3.45-1.66-6.65-1.53-9.35s2.61-5.81,2.68-8.75c.08-3.28-3.05-7.6.24-11.04,2.21.81,1.56.78,2.88,2.16Z"/>
    <path class="cls-30" d="M189.39,180.77c-1.47,6.48-1.78,14.2-.87,21.59l-.55,6.01c1.53,5.04,1.69,10.35.46,15.95,1.34,5.43,1.42,10.65.24,15.66,2.59,12.85,3.06,26.61,2.11,39.54,1.64,8.11,1.66,16.02.04,23.72,2.43,4.41,2.61,7.88.66,12.54.69,8.1-.01,16.09-2.1,23.97-.09.03-.25.67-.95.6-1.02-.1-1.36-.95-1.93-1.32.2-7.31-.1-15.23-.72-22.3,1.85-6.05.43-17.08,0-23.74.38-.05.68-.1.68-.14-.06-5.26-.88-10.89-1.74-16.08,1.22-3.14,1.13-6.44-.25-9.91.92-9.29.46-18.32-1.37-27.09,1.66-7.03,1.15-13.17.03-20.27.46-11.08.59-22.22.39-33.44-.14-2.95.86-4.95,2.98-6.02,1.63-.07,1.58,0,2.88.72Z"/>
    <path class="cls-30" d="M21.74,182.21c2.36,16.84,3.73,34.65,1.19,51.43.07,1.22.4,2.91,1.68,3.24v12.95c-.81,12.57-1.05,25.28-.72,38.13-.59,5.84-3.55,24.13-1.35,28.33.6,1.15,2.28,1.91,2.64,3.11.96,3.19-.62,14.69-2.73,17.48-.66-1.85-1.28-4.18-1.43-6.13-.52-7-.2-14.83-.74-21.57-1.41-17.32-.93-35.45-.71-53.23.06-4.47.94-10.89.79-15.13-.11-3.17-2.18-3.26-2.31-6.45-.11-2.73,1.23-4.89,1.44-7.29.78-8.98,1.03-19.85.8-28.7-.14-5.29-2.42-12.92,0-17.63.47.49.94.55,1.44,1.44Z"/>
    <path class="cls-30" d="M192.99,186.53c.39,16.62.78,33.51,1.17,50.66-.11-2.53.28-5.02.99-7.5,1.19.75.72,2.73.73,3.95.1,8.27-.21,16.57-.01,24.83l-.7.68c2.29,25.51,2.05,50.95-.73,76.3-1.11,2.44-1.76,2.46-3.6,3.6l-.68-1.02c3.31-20.1,2.91-40.72,1.1-61.22.5-12.29-.32-24.31-2.44-36.04l.97-6.73c-1.08-6.3-1.97-12.11-.33-18.62-1.22-8.51-1.71-17.61-1.39-26.22.07-1.78,1.11-6.38,2.05-7.7,1.53,1.56,2.19,3.01,2.88,5.04Z"/>
    <path class="cls-8" d="M189.39,180.77c.24.14.5.49.72.72,1.73,4.14-1.42,7.16-1.5,11.15-.14,6.75,1.01,13.5,1.53,20.11.39,4.93-1.3,9.93-.75,15.15.24,2.28,1.39,4.02,1.5,6.46.16,3.76-1.28,7.23-.71,11.46.33,2.44,1.9,4.68,2.11,7.26.36,4.46-.27,10.52-.02,15.83.78,16.86,2.69,34.21,1.47,51.04-.44,6.14-2.51,12.83-2.91,19.1-.5.31-.82.55-1.44.72v-9.71c2.95-5.25.48-10.25.67-14.39.09-2,1.55-3.36,1.56-5.76.01-3-2.02-4.42-2.22-6.54-.23-2.46,1.41-6.03,1.43-8.57.04-4.6-1.49-11.22-1.49-15.82,0-2.39,1.43-5.15,1.38-7.22-.04-1.61-1.24-3.12-1.33-5.01-.32-6.48.42-14.05.03-20.13-.17-2.57-2.05-4.74-2.16-6.54-.11-1.7,1.21-3.69,1.42-5.7.52-4.84-1.35-8.54-1.31-12.25.03-2.01,1.36-4.13,1.36-6.47,0-3.09-2.04-5.16-2.18-7.23s1.39-4.34,1.44-6.47c.17-7.37-2.33-10.11-.24-18.92.3-1.26-.39-2.69,1.65-2.27Z"/>
    <path class="cls-26" d="M8.79,187.24c3.86,5.1-.26,11.87-.07,16.92.09,2.53,1.55,3.99,1.57,6.45.03,3.31-2.13,7.88-2.07,11.53.07,4.45,3.38,9.51,3.47,13.7s-1.66,8.82-1.5,13.67c.13,3.8,1.72,7.81,1.53,11.49-.17,3.37-2.47,7.7-2.85,11.58-.52,5.25.94,10.5-1.54,15.38-1.25.17-.68-1.64-.71-2.51-.12-3.24-.6-6.77-.72-9.72-.79-19.4-.04-39.34.71-58.64.39-10.01-.09-19.99,2.17-29.85Z"/>
    <path class="cls-30" d="M40.45,284.37c.94,1.07-.66,4.86-1.43,6.47-.15.31,1.81-6.5,2.87-5.75,1.56.87,1.51.21,2.88,2.16-1.11,3.18-.28,6.3.69,9.54.21,13.21-.03,26.34-.69,39.39-1.27,3.83-4.6,7.81-8.63,4.32.9-7.87.66-15.71-.73-23.52.4-9.55.4-18.97.01-28.28-1.56-.82-1.01-1.77.72-1.44,1.07-.49,1.7-1.8,1.44-2.88.31-.09.57-.84,1.73-.75.71.05.99.7,1.15.75Z"/>
    <path class="cls-30" d="M171.4,282.21c.19,1.19-1.41,1.68-1.4,1.27.12-3.29,1.95,2.01.35,5.9,1.38,7.4,1.72,14.61,1.04,21.61,2.12,1.74,1.74,3.14,0,5.04,1.35,8.39,1.66,16.82.94,25.32l-.94,1.3c-2,.71-4.99,1.61-6.48-.72.11-2.96-.36-5.87-1.44-8.63-.25-1.97-1.29-4.14-.72-6.47l.73-.17c-1.01-7.57-1.13-15.08-.34-22.53-1.01-7.33,0-13.74,3.21-20.47,1.34-1.56,1.16-2.4,3.9-2.16.61.05.9.64,1.14.72Z"/>
    <path class="cls-8" d="M186.51,180.05c-3.62,6.82-1.14,13.17-1.41,19.8-.27,6.74-.74,7.17-.03,14.37.3,3.09-.77,5.33-.78,7.92,0,2.97,1.56,6.15,1.56,9.36s-2.12,7.1-2.02,9.24c.08,1.64,1.63,3.42,1.91,5.2.95,6.11-.46,14.35.04,20.82.16,2.08,1.46,3.84,1.46,5.75,0,2.1-1.52,4.01-1.52,6.47,0,2.14.65,6.57.84,9.28.22,3.13,1.18,6.44.65,9.78l-1.43-5.03c-.31-4.75.32-13.87-2.88-17.27l-.91-2.44c.66-11.94.85-23.79-.32-35.33.43-7.94.54-15.85-2.16-23.24,1.77-10.44,2.61-21.2,2.52-32.3l.87-.93c1.51-.9,1.28-1.33,3.6-1.44Z"/>
    <path class="cls-39" d="M40.45,244.8l.97,1.38c-.15,9.68.22,19.2,1.02,28.84.08,1.03.05,1.97-.54,2.87-7.86.66-7-3.87-7.82-10.52-.57-4.62-1.18-17.28,1.02-21.1,1.3-2.25,3.43-1.19,5.36-1.47Z"/>
    <path class="cls-15" d="M182.91,275.73c-.48-.51-2.1-1.56-2.88-2.16l-1.02-1.17c1.63-11.59,1.46-22.91.63-34.96l-1.77.16.72-43.17c.68.51,1.06,1.15,1.05,1.96-.16-4.54.21-9.03,1.11-13.47.63-.9,1.37-.97,2.16-1.44-1.26,7.5-.3,15.1-.73,22.65-.16,2.82-1.44,5.59-1.48,8.63-.06,4.29,1.85,8.13,2.2,12.25.39,4.59-.94,8.9-.72,12.91.28,5.14,1.47,7.2,1.42,13.67-.06,8.09-.56,16.07-.69,24.13Z"/>
    <path class="cls-41" d="M167.8,241.92c.65-.22,1.08-.12,1.08.46l.35,31.42-.71.5c-.88-.17-2.1.26-3.1-.12-4.7-1.78-4.8-26.44-3.26-31.06.63-1.88,3.96-1.14,5.64-1.2Z"/>
    <path class="cls-39" d="M40.45,177.17c-.33,10.5-.21,21.06.36,31.66,1.07-.21,1.49.34,1.8,1.44l-8.64.72-.72-33.1c2.51.46,4.86-.59,7.2-.72Z"/>
    <path class="cls-8" d="M180.04,273.58c-1.73-1.33-2.46-.21-2.89-3.94.52-10.66.38-21.37.73-32.03,0-.1.72-.81.75-1.74.17-6-.28-12.05-.03-18.05.04-.88-.54-2.68.71-2.51-.38,3.4,1.21,6.37,1.47,9.68.82,10.36-.13,21.9,1.37,32.29l-2.11,16.3Z"/>
    <path class="cls-26" d="M195.15,229.69c-.02,6.94.02,13.92,0,20.86l-2.17-5.37c.87-17.34-1.26-34.64-1.48-51.83-.03-2.03.45-5.06,1.5-6.83,3.6,10.53,2.19,31.42,2.16,43.17Z"/>
    <path class="cls-15" d="M173.56,283.65c.47.51.47.98.72,1.44,1.88,17.19,3.17,35.2,2.16,52.52-1.07,2.37-.93,1.99-2.88,3.6-.63,0-1.08-.24-1.27-.8.49-7.89.52-16.01-.14-23.91-.01-.18-.34-.33-.75-.47-.03-1.68.04-3.36,0-5.04l.71-.68c-.1-6.44-.65-12.84-1.65-19.2-.83-6.02.2-8.5,3.1-7.46Z"/>
    <path class="cls-30" d="M37.57,284.37c.35.92-.45,2.62-1.44,2.88-.21.45-.51.65-.72,1.44.32,9.51.32,19.04,0,28.6,1.54,7.61,1.78,15.34.72,23.2-2.31-2-3.04-7.14-3.6-10.07.73-3.02.52-6.15-.62-9.37l.62-.7c-1.91-.3-.55-12.56,0-12.23.13.08-.46,3-1.43,2.15.02-5.32.03-13.75,1.04-18.74.87-4.31,1.05-5.86,5.44-7.16Z"/>
    <path class="cls-3" d="M167.08,173.58c1.2.02,2.41-.02,3.6,0l-1.47,22.64c-.14,2.91.77,12.25-.86,13.89-.82.82-2.39.67-3.43.89-1.25-3.34-1.22-9.61-.73-13.47.19-1.48.44-2.37,2.17-2-.56-.13-1.24-.32-1.44-.81-.39-.94-.62-11.23,1.44-11.42-1.27-1.87-1.4-8.2.72-9.71Z"/>
    <path class="cls-8" d="M13.82,178.61c-.84,3.78.99,8.49.77,11.86-.24,3.68-2.83,5.4-2.15,10.75.98,7.68.36,7.38-.05,14.46-.28,4.88.19,9.85-.02,14.74-5.95-5.87-.79-13.91-.76-19.88.01-2.3-1.99-4.23-2.07-6.44-.09-2.35,2.06-6.4,2.14-9.33.13-4.35-2.29-8.88-.74-13.27,1.16-1.92-.1-1.75,2.88-2.88Z"/>
    <path class="cls-39" d="M167.08,173.58c-.14,2.51.2,5.08.03,7.58-.06.93-.75,1.88-.75,2.13v12.23c0,.25-.69,1.2-.75,2.13-.26,4.44,0,8.92-.69,13.34-.78.16-1.43.44-2.15.72v-38.13c1.42.01,2.87-.02,4.31,0Z"/>
    <path class="cls-31" d="M172.84,144.08c-8.75-4.08-9.18.62-15.24,2.4-6.36,1.87-8.13-6.03-5.62-8.88l12.16-.52c4.31-.82,11.45,2.67,8.71,7Z"/>
    <path class="cls-49" d="M40.45,177.17c.72-.04,1.45,0,2.16,0v33.1s-3.6,0-3.6,0c.66-9.92-.85-20.85-.05-30.65.12-1.45.1-1.76,1.49-2.45Z"/>
    <path class="cls-20" d="M195.87,258.47c.44,19.05,2.41,38.11,1.47,57.22-.24,4.91-1.02,15.58-2.91,19.75-1.42-.7-.37-2.42-.23-3.46,2.15-15.77,2.25-32.27,1.72-47.99-.26-7.69-1.92-16.35-1.48-24.47.09-1.76-.53-2.36,1.44-1.07Z"/>
    <path class="cls-8" d="M24.62,236.89l-1.44,1.07c-3.59-4.63-.41-8.47.03-13.63.98-11.63-.7-26.64-1.98-38.37-.13-1.16-.82-2.99.52-3.74,1.24,2.2,1.7,4.46,2.07,6.92,2.22,15.03.81,32.15.81,47.75Z"/>
    <path class="cls-31" d="M51.24,143.36c-2.57,3.68-15.8-1.2-20.14,1.44.2-2.51-.69-4.99.71-7.19,3.51-.36,13.39-1.33,16.25.81,1,.75,3.01,3.66,3.18,4.95Z"/>
    <path class="cls-39" d="M166.37,147.68c1.97,2.56,2.75,17.63,1.66,19.81-.2.41-.55.74-.94,1.05-1.67.04-3.37-.02-5.04,0,1.03-5.37-2.99-19.88,4.32-20.87Z"/>
    <path class="cls-42" d="M44.76,287.25c1.11,1.59,1.3,1.87,1.49,3.91.79,8.46.9,37.84-1.49,45.01-3.28-4.48-.31-9.94.03-14.72.28-3.98-.8-7.43-.81-10.82,0-3.74,1.26-7.32.78-11.51s-2.69-5.02-1.81-9.76c.22-1.2.08-2.52,1.81-2.11Z"/>
    <path class="cls-40" d="M38.29,150.55c.75.63,1.25,1.42,1.49,2.36l-.12,16.91c.39.68.9,1.45,1.51,2.31-3.02,1.2-5.11.18-7.91,1.44-.53-.75.55-14.62.9-16.72.37-2.25,1.35-6.11,4.13-6.3Z"/>
    <path class="cls-42" d="M176.44,337.61l-2.16-52.52c3.49,6.6,1.71,12.62,2.13,19.81.5,8.55,3.32,25.42.03,32.7Z"/>
    <path class="cls-40" d="M39.01,239.04c-1.03.18-1.89.14-2.87.72.27-2.48-2.28-24.29-1.03-24.47h7.5s-.72,23.75-.72,23.75l-1.52-.73.14-21.32c-.97,6.29-1.11,12.99-.43,20.08l-1.07,1.97Z"/>
    <path class="cls-40" d="M42.61,277.89c-.93-10.87-1.41-21.9-1.44-33.09,1.77-.15,3.85-2.53,4.35,1.76.68,5.76.4,17.78-.04,23.77-.2,2.73-.17,7.05-2.87,7.56Z"/>
    <path class="cls-33" d="M38.29,150.55c.7-.05,1.31.18,1.84.65,3.08,2.75,2.32,16.24,2.51,20.48-.18.88-1.11.31-1.47.45-1.1-.31-2.75.99-2.88-1.06-.45-6.67.35-13.8,0-20.53Z"/>
    <path class="cls-16" d="M39.01,239.04c-1.73-7.41-.37-15.5,0-23.03.81.08,1.72-.11,2.51,0,1.14.16-.11,20.76.36,23.03-.92.1-2.01-.15-2.88,0Z"/>
    <path class="cls-10" d="M164.93,216.02c1.09-.18,2.45.11,3.6,0l.72,20.87c-.96,0-1.92.03-2.88,0-1.24-.2-1.65-.57-2.11-1.65-.36-.86-.6-17.8-.13-18.6.16-.27.46-.46.79-.62Z"/>
    <path class="cls-27" d="M169.96,241.92c.96.02,1.93-.03,2.88,0-.3,11.03-1.09,22.01-.73,33.09-1.1.49-1.9-.68-2.16-.72-.4,0-.72-.02-.72-.06-.35-10.22-.58-21.26-.35-31.47.01-.51.5-.75,1.07-.84Z"/>
    <path class="cls-8" d="M172.84,144.08c-2.77-10.1-13.5-3.61-20.87-6.47.55-.63,7.3-1.33,9-1.43,2.48-.15,11.84-.47,13.56.09s1.52,6.61,1.07,8.06c-.92,2.96-2.59-.16-2.76-.25Z"/>
    <path class="cls-8" d="M10.23,331.85c-4.16-10.42-3.27-25.61-3.6-36.69,4.82,4.46,1.53,8.95,1.58,13.32.03,2.57,1.94,5.93,2.05,8.66.09,2.12-.82,3.83-.81,5.73,0,3.02,3.1,6.09.79,8.99Z"/>
    <path class="cls-22" d="M169.96,241.92v32.37c-.46-.06-1,.08-1.44,0l-.72-32.37c.71-.03,1.44-.02,2.16,0Z"/>
    <path class="cls-23" d="M41.17,244.8c2.17-.4,1.39,1.1,1.44,2.49.23,6.96-.29,13.97-.03,20.93.12,3.14,1.85,6.53.03,9.68-.23.04-.48-.02-.72,0-2-10.9-1.35-22.04-1.44-33.09.23-.03.48.02.72,0Z"/>
    <path class="cls-8" d="M16.7,338.33c-1.61-.64-1.2-.69-2.16-1.44-.79-3.16-.39-6.5-.76-9.68-.52-4.56-.53-5.47-.62-10.11-.08-3.99-2.99-8.31-1.15-12.59,2.91,1.97,1.45,5.26,1.86,8.21.21,1.55,1.27,3,1.34,4.42.1,2.11-1.59,4.54-1.4,6.41s2.45,2.45,2.77,3.75c.28,1.14-.76,2.77-.68,4.18.13,2.29,1.16,4.48.78,6.83Z"/>
    <path class="cls-20" d="M24.62,249.84c.19,13.25.6,25.02-.72,38.13-2.33-4.36-.74-9.11-.69-13.28.09-7.43.48-15.01.55-22.33.02-2.6-1.19-6.07-.57-8.99l1.43,6.47Z"/>
    <path class="cls-20" d="M166.37,283.65c-.4,3.84-2.55,7.29-2.87,11.16-.29,3.55.82,6.27.77,9.34s-1.62,5.53-1.55,8.64c.05,2.52,1.31,4.77,1.49,7.2.28,3.78-.19,7.7.01,11.5l-1.44-4.67c.76-2.14-.72-5.48-.72-6.83v-23.74c0-2.84,2.42-10.39,4.32-12.59Z"/>
    <path class="cls-42" d="M173.56,341.2c-.97.81-.46.83-2.16,1.44-1.18-3.35.95-6.49.75-10.45-.28-5.57-.65-10.47-.75-16.17l1.44-1.08.72,26.26Z"/>
    <path class="cls-42" d="M171.4,282.21c1.52.56,1.09.28,2.16,1.44-3.5.45-3.1,6.37-2.7,8.82,1.11,6.82,2.36,9.64,1.98,17.45-.09,1.76.52,2.35-1.44,1.07-.2-9.24-1.2-18.25-1.63-27.52-.1-2.22-1.25-1.26,1.63-1.26Z"/>
    <path class="cls-8" d="M180.76,182.93l.03,19.09-1.47,9.68c-1.26.17-.68-1.63-.71-2.51-.19-4.67-.22-10.1,0-14.76.16-3.36.15-8.63,2.16-11.51Z"/>
    <path class="cls-16" d="M167.8,147.68c3.36,5.26,3.26,15.17,1.44,20.86-.7.08-1.45-.02-2.16,0-.15-6.96.5-13.99-.72-20.86.42-.06,1.01-.04,1.44,0Z"/>
    <path class="cls-30" d="M185.79,338.33c-1.44-1.37-2.44-1.49-2.84-4-.44-2.77-.38-11.75.68-13.99,1.94-.31,2.35.99,2.74,2.63.44,1.88.42,12.63,0,14.79-.04.22-.28.4-.57.57Z"/>
    <path class="cls-42" d="M186.51,339.04c-.25-.17-.48-.49-.72-.72-.34-6.05,1.28-12.58-2.16-17.99.49-1.04,1.7-2.08,2.16-3.6,4.31,3.05.73,7.69.68,11.2-.04,2.31,1.34,3,1.47,4.3s-.81,5.45-1.43,6.81Z"/>
    <path class="cls-18" d="M167.8,147.68c1.71.18,2.39,1.56,2.71,3.4.57,3.28,1.37,13.16.55,16.07-.47,1.68-.47,1.23-1.82,1.39-.25-6.99.9-14.15-1.44-20.86Z"/>
    <path class="cls-40" d="M166.37,236.89c-1.06-.03-3.17.29-3.41-1.05.82-4.13.69-8.79.56-13.01-.08-2.86-2.5-6.17,1.41-6.81.75,6.63-1.66,14.99,1.44,20.86Z"/>
    <path class="cls-24" d="M157.01,293c.4-4.09-.09-14.46,5.76-13.66-3.17,4.18-4.3,9.28-5.04,14.38-.39.52-.63.28-.72-.72Z"/>
    <path class="cls-28" d="M157.73,293.72c-1,6.97-1.18,15.94-.72,23.02.28,1.45.04,2.17-.72,2.16-.96-8.62-.1-17.47.72-25.9l.72.72Z"/>
    <path class="cls-20" d="M32.53,320.34c.66,3.01,3.41,7.81,0,10.07-.52-2.73-1.26-7.4-1.44-10.07.23-1.91.89-1.83,1.44,0Z"/>
    <path class="cls-9" d="M32.53,320.34h-1.44c-.22-3.21-.01-6.8,0-10.07l1.43-2.15c.32,4.58-.97,7.74,0,12.23Z"/>
    <path class="cls-20" d="M164.93,341.92c-1.46-2.29-1.13-6.18-1.44-8.63,1.83,2.33,3.35,6.07,1.44,8.63Z"/>
    <path class="cls-12" d="M41.89,285.09l-2.87,5.75,1.43-6.47c.63.19.93.44,1.44.72Z"/>
    <rect class="cls-21" x="181.48" y="298.76" width=".72" height="12.95"/>
    <path class="cls-38" d="M51.96,310.99c-.2.63-.44.62-.72,0-.05-4.06.14-8.17,0-12.23h.72c.04,4.06.05,8.17,0,12.23Z"/>
    <path class="cls-24" d="M179.32,283.65c-.64-1.65-1.7-3.13-1.43-5.04,2.82.72,1.74,1.38,2.15,2.88.29,1.45.05,2.17-.72,2.16Z"/>
    <path class="cls-32" d="M30.37,229.69c-1.26.17-.67-1.63-.71-2.51-.07-1.55.04-3.13,0-4.68,1.26-.17.67,1.63.71,2.51.07,1.55-.04,3.13,0,4.68Z"/>
    <path class="cls-26" d="M157.01,316.74c.04.67,1.47,3.34.71,5.03-.43.94-1.33-2-1.43-2.87l.72-2.16Z"/>
    <path class="cls-1" d="M51.96,310.99c-.02,1.84.33,4.09-.36,5.76-.65,0-.35-4.76-.36-5.76h.72Z"/>
    <path class="cls-29" d="M180.04,281.49c.46,1.64,1.23,2.95.71,5.03h-.7c.07-1.05-.36-1.93-.73-2.87l.72-2.16Z"/>
    <path d="M117.44,6.67c.21.03.96-.7,1.43-.72.62,2.76,1.58,10.55,4.34,11.92,1.22.61,2.63-.51,4.11.05.98.37,1.49,2.13,2.81,3.05,3.84,2.66,11.05,4.07,15.02,7.29.98-6.12-2.29-11.56,1.48-17.21,6.2-9.27,19.06-1.75,17.15,7.74-.35,1.75-1.65,3.12-1.8,4.8-.2,2.34.88,5.64.81,8.67-.11,5.06-.67,9.71-.72,15.05-.17,18.38-.81,36.42-1.5,54.68-.35,9.24.05,18.56.75,27.73,12.17-.91,24.83,1.72,18.74,16.93-1.41,3.51-4.32,3.97-4.41,4.39-.2.99.78,3.89.82,5.62.17,8.09-.44,16.08-.75,24.13l4.99-4.72c6.01-3.09,11.18-1.68,15.15,3.64,4.65,6.23,4.78,21.45,5.07,29.47.59,16.27-.37,32.69-.06,48.98.42,22.1,4.67,53.18-.29,74.47-2.42,10.39-11.47,18.15-19.81,7.88-1.58,7.37-14.81,11-19.45,5.4-4.32-5.22-3.02-18.26-3.66-19-.22-.25-3.12-.36-4.22-1.18-1.86-1.39-2.83-10.96-2.94-13.61-.21-5.3.78-10.26.75-15.5-2.48.64-5.31-.92-7.49-.71-1.65.16-4.28,1.72-6.62,2.08-9.39,1.42-23.84.95-30.15-7.13-14.7,12.47-33.57,4.57-50.72,5.77v21.94c0,1.71-2.95,5.38-5.03,3.95.71,8.88-1.1,25.37-13.3,24.48-7.93-.58-7.64-8.54-9.38-9.37-4.65,8.53-14.78,8.69-20.5,1.07-5.09-6.77-6.79-23.09-7.23-31.62-1.38-26.77-.85-56,.06-82.73.37-10.73-.4-41.04,6.88-48.52,5-5.14,13.85-3.39,17.88,2.12l2.55,5.72c-.69-7.02-.59-14.15.02-21.21.17-2.02,2.18-10.89,2.04-11.45-.23-.96-3.01-1.41-3.89-4.69-2.92-10.86,2.66-16.13,13.36-15.87.34-9.99-.8-19.89-.75-29.89.09-19.05.1-39.13,1.55-58.17.47-6.18.37-6.13-.1-12.28-.53-6.86-.3-14.67,5.41-19.11,3.68-2.86,7.05-3.15,10.82,0,5.94,4.98-.15,12.62,1.42,18.7,3.91-1.97,8.21-3.21,12.14-5.13,1.64-.8,9.66-5.04,10.33-5.86,2.31-2.81-.27-7.64,1.65-10.59,2.69.08,7.16,7.44,3.6,8.63,1.36.63,1.4,1.97.15,4.03.49,1.97,15.72,12.46,17.84,12.36,1.71-.08,12.75-12.68,12.67-14.16-1.39-1.47-1.54-2.69-.43-3.67-4.02-.38-2.78-10.28,1.44-8.63ZM151.97,16.02c-1.31,1.19-2.24,13.73-1.83,14.36,1.52,2.3,5.1,3.5,7.58,4.34.13-4.58.19-8.59-.71-12.95-.4-1.94-1.94-8.56-5.04-5.76ZM46.2,19.62c-.83,2.28-1.34,14.09-.38,15.85.66,1.21.99.29,1.56.1,5.32-1.72,5.46-1.71,5.29-7.32-.05-1.63-1.61-10.99-2.19-11.48-1.75-1.49-3.68,1.18-4.29,2.85ZM118.16,26.81c-.88.87-2.55,1.18-2.15,2.88,1.67-.31,1.65-1.99,2.15-2.88.88-.87,2.55-1.18,2.15-2.88-1.67.31-1.65,1.99-2.15,2.88ZM64.19,33.29c-.98.56-5.55,1.7-5.78,2.64-1.05,7.68,3.77,16.3,3.68,23.62-.11,9.48-4.03,21.49-4.37,31.67-.59,17.77,2.38,36.17,2.08,53.31-.03,1.64-1.66,9.25-1.36,9.63,2.58-1.15,5.14-2.9,7.91-3.6,10.41-2.6,14.79.32,23.74,2.88.79,1.33,1.92,2.4,2.88,3.6.36.45.08,1.5,1.44,2.5,3.54,2.62,15.33,1.03,19.43-1.07,3.67-1.87,6.22-5.62,10.07-7.19,4.36-1.78,10.57-1.98,15.11-.72,1.09.3,6.83,4.01,7.19,3.59-.66-5.34-.31-10.84-.72-16.18-.69-9.07-2.54-18.2-2.73-27.35-.18-8.45,1.1-17.28.57-25.89-.99-16.09-6.79-22.04-.92-39.06,1.18-3.42,3.29-6.38,4.46-9.79-.23-.97-3.91-2.64-4.98-3.31-4.88-3.08-10.2-5.38-15.4-7.86-4.43,4.82-15.71,23-22.38,23.01-5.6,0-22.99-16.5-26.67-21.62-4.75,1.85-8.93,4.72-13.26,7.19ZM90.09,31.84c-.77-1.31-2.09-3.05-3.6-2.86.77,1.31,2.09,3.05,3.6,2.86ZM108.8,36.88c-5.22,3.74-10.47-.35-15.11-2.88-.88-.48-1.44-1.86-2.88-1.43.21,1.1,1.42,1.54,2.16,2.15,1.56,1.28,9.95,7.67,11.15,7.67,1.86,0,4.19-3.54,5.4-4.8,1.96-2.03,4.83-4.45,5.75-7.19-2.49,1.09-4.65,5.17-6.47,6.47ZM156.19,130.31c.34-.55.16-10.04.13-11.8-.29-15.45-.2-31.17,1.44-46.7-.54-9.57.42-20.89-.71-30.29-.3-2.48-3.84-4.44-6.06-3.97-1.48.31-6.58,15.28-6.85,17.76-.84,7.53,2.52,11.08,3.26,17.21,1.67,13.81-.22,27.93.23,41.73.18,5.66,1.76,11.84,1.47,17.59,1.3-.56,6.65-.83,7.09-1.54ZM54.11,131.85l-1.47-21.19c1.24-11.83-.1-25.06,1.51-36.68.66-4.74,3.63-11.62,3.61-16.59-.02-5.45-3.62-13.22-3.66-19.06l-9.38,4.06c-1.82,17.21,0,34.52.07,51.73,0,2.05-.77,3.81-.78,5.69-.05,10.24,0,20.41.74,30.61l9.35,1.43ZM31.81,137.6c-1.4,2.2-.52,4.69-.71,7.19,4.34-2.64,17.57,2.24,20.14-1.44,1.06-1.52.45-4.2-.68-5.44-1.58-1.75-15.75-2.42-18.04-1.38-.45.2-.5.74-.71,1.07ZM151.97,137.6c-2.51,2.85-.74,10.75,5.62,8.88s6.5-6.49,15.24-2.4c.17.08,1.84,3.21,2.76.25.45-1.45.62-7.51-1.07-8.06s-11.08-.25-13.56-.09c-1.7.1-8.45.81-9,1.43ZM166.37,147.68c-7.31.99-3.29,15.5-4.32,20.87,1.67-.02,3.37.03,5.04,0,.71-.02,1.46.08,2.16,0,1.35-.15,1.35.29,1.82-1.39.81-2.91.02-12.79-.55-16.07-.32-1.85-1-3.23-2.71-3.4-.43-.04-1.02-.06-1.44,0ZM47.64,158.11c.43,3.97-.31,8.55,0,12.59l5.57-10.62,1.62-11.68c-3.17.92-5.93,1.91-9.35,1.44-.32.28,2.01,6.93,2.16,8.27ZM38.29,150.55c-2.79.19-3.76,4.05-4.13,6.3-.35,2.1-1.43,15.97-.9,16.72,2.79-1.26,4.89-.24,7.91-1.44.37-.15,1.3.43,1.47-.45-.19-4.24.57-17.73-2.51-20.48-.53-.47-1.13-.7-1.84-.65ZM157.02,151.99c-2.45.24-4.44-.06-6.47-1.44.15,1.99-.23,4.2-.04,6.15.44,4.53,5.02,8.35,5.14,12.22.06,1.87-1.13,2.89-1.15,3.57-.25,8.56,1.05,17.28-.4,25.86l3.63,1.13-.71-47.49ZM62.75,157.03c-2.2,1.36-7.77,9.19-8.78,11.73-5.63,14.12,4.03,45.16,5.17,62.02.83,12.21.3,24.16-.71,36.32.57.65,4.23-2.43,5.03-2.87,9.98-5.54,19.28-5.11,30.22-2.88,2,.41,4.49,1.76,6.9,2.1,1.1.15,1.99.5,1.75-1.03-2.61-13.65-6.17-27.27-7.85-41.09-2.02-16.61-1.49-34.55-3.78-50.9-1.46-10.46-2.16-14.82-13.58-15.56-4.56-.29-10.41-.32-14.39,2.16ZM109.52,263.5c1.58,1.65,8.04-2.14,10.48-2.83,6.5-1.85,9.74-2.21,16.13.33,2.32.92,5.97,3.85,7.93,3.94,6.58.3,6.73-12.41,6.47-16.9-.61-10.64-2.94-22.29-2.93-33.09.01-13.69,6.86-42.3-2.79-52.56-6.66-7.07-18.54-10.09-25.21-1.4-10.91,14.21-7.7,62.49-8.61,81.32-.3,6.23-2.03,13.37-2.23,19.46-.04,1.14.14,1.08.76,1.73ZM111.68,164.95c-5.23.97-10.53.73-15.83.71l2.17,34.54c2.73-2.53,5.44-1.14,8.62-.72-.06-11.67,1.81-23.35,5.04-34.53ZM167.08,173.58c-1.44-.02-2.89,0-4.32,0v38.13c.73-.28,1.38-.56,2.16-.72,1.04-.22,2.61-.07,3.43-.89,1.63-1.64.72-10.97.86-13.89l1.47-22.64c-1.2-.02-2.4.02-3.6,0ZM40.45,177.17c-2.34.13-4.69,1.18-7.2.72l.72,33.1,8.64-.72v-33.1c-.71.01-1.44-.04-2.16,0ZM13.82,178.61c-2.98,1.12-1.72.95-2.88,2.88-1.55,2.58-1.5,2.89-2.16,5.76-2.26,9.86-1.77,19.84-2.17,29.85-.76,19.3-1.5,39.25-.71,58.64-.52,6.52.53,12.95.72,19.42.33,11.08-.56,26.27,3.6,36.69.24.6,2.19,3.91,2.55,4.32.63.7,1.54.54,1.77.72.96.75.55.8,2.16,1.44.47.19.67.8,1.8.8s1.39-.66,1.8-.8c1.37-.46,1.14-.08,2.16-1.44,2.11-2.8,3.69-14.29,2.73-17.48-.36-1.2-2.04-1.96-2.64-3.11-2.2-4.2.77-22.49,1.35-28.33,1.31-13.11.91-24.88.72-38.13v-12.95c0-15.61,1.41-32.72-.81-47.75-.36-2.47-.83-4.73-2.07-6.92-.5-.89-.97-.95-1.44-1.44-1.32-1.38-.67-1.35-2.88-2.16-.41-.15-.52-.74-1.71-.72-.76.01-1.28.49-1.89.72ZM182.91,181.49c-.79.47-1.53.53-2.16,1.44-2.01,2.88-2,8.15-2.16,11.51l-.72,43.17c-.35,10.65-.21,21.37-.73,32.03.43,3.73,1.16,2.61,2.89,3.94.78.6,2.4,1.65,2.88,2.16,3.19,3.4,2.57,12.52,2.88,17.27.43,6.66,1.85,17.69,0,23.74-.46,1.51-1.66,2.55-2.16,3.6-1.06,2.24-1.11,11.21-.68,13.99.39,2.51,1.4,2.63,2.84,4,.24.23.47.55.72.72.57.38.91,1.22,1.93,1.32.69.07.86-.58.95-.6.62-.17.94-.41,1.44-.72,1.84-1.14,2.49-1.15,3.6-3.6,1.89-4.17,2.67-14.84,2.91-19.75.94-19.11-1.02-38.18-1.47-57.22-.19-8.26.11-16.56.01-24.83-.02-1.22.46-3.2-.73-3.95.03-11.75,1.44-32.63-2.16-43.17-.69-2.02-1.35-3.47-2.88-5.04-.22-.23-.48-.58-.72-.72-1.29-.72-1.24-.79-2.88-.72-2.32.11-2.09.54-3.6,1.44ZM50.52,205.23l-2.15-8.62v8.63s2.15,0,2.15,0ZM105.92,216.02v-10.43c0-.91-6.66-5.12-7.24,2.12-.09,1.17.42,7.9.8,8.28s5.23-.19,6.44.04ZM157.65,203.87c-.14-.16-4.07-.97-4.23-.8v8.63s4.32,0,4.32,0c-.29-1.47.45-7.21-.09-7.84ZM51.96,210.98c-.13-.13-3.48-.13-3.6,0-.28.29-.39,6.68-.72,7.92h5.04c-.33-1.24-.44-7.63-.72-7.92ZM41.89,239.04l.72-23.74h-7.5c-1.24.18,1.3,21.98,1.03,24.46.98-.58,1.84-.54,2.87-.72.87-.15,1.96.1,2.88,0ZM164.93,216.02c-3.91.63-1.49,3.94-1.41,6.81.12,4.22.26,8.88-.56,13.01.25,1.33,2.35,1.01,3.41,1.05.96.03,1.93,0,2.88,0l-.72-20.87c-1.15.12-2.52-.17-3.6,0ZM157.72,218.91c-.24-.25-3.41.14-4.31-.01-1.82,13.35,5.87,32.7-.09,44.88-.79,1.62-4,4.79-4.02,5.12-.04.5,1.36,2.74,1.61,3.96,1.11,5.31,1.47,8.18-.16,13.54-.63,2.08-1.97,3.22-2.37,5.18,1.06-.02,2.55.33,3.26-.69.9-1.28,1.45-9.33,2.84-12.27,1.21-2.55,4.7-4.39,4.73-4.73.07-.9-1.72-4.32-2.01-5.88-2.95-15.63,2.21-28.06,1.29-43.01-.06-.94-.54-5.86-.76-6.08ZM105.93,220.33h-5.76s4.33,28.06,4.33,28.06l1.46-9.68-.03-18.38ZM30.37,229.69c-.04-1.55.08-3.13,0-4.68-.04-.88.55-2.67-.71-2.51.04,1.55-.08,3.13,0,4.68.04.88-.55,2.67.71,2.51ZM47.64,223.22v15.47c0,1.11,1.95,1.81,2.36,2.7,2.27,4.85.52,8,.48,12.38-.03,3.67-.66,16.99.14,19.34.32.95,4.07,2.91,4.57,4.79,2.35-5,.36-4.91-1.38-7.96-2.14-3.75.93-16.7,1.02-21.89.02-1.21-.71-2.42-.72-3.61-.05-7.11-.13-14.14-.72-21.22h-5.76ZM29.65,233.29v11.51c1.93-.96,1.52-4.98,1.47-6.87-.03-1.24.1-4.31-1.47-4.64ZM168.52,274.3c.43.08.98-.06,1.44,0,.25.03,1.05,1.2,2.16.72-.37-11.09.43-22.07.73-33.09-.96-.02-1.92.03-2.88,0-.71-.02-1.44-.03-2.16,0-1.67.06-5.01-.68-5.64,1.2-1.54,4.62-1.44,29.28,3.26,31.06,1,.38,2.22-.05,3.1.12ZM41.17,244.8c-.24.02-.49-.03-.72,0-1.93.28-4.06-.78-5.36,1.47-2.21,3.81-1.59,16.48-1.02,21.1.82,6.65-.04,11.19,7.82,10.52.24-.02.49.04.72,0,2.7-.51,2.67-4.83,2.87-7.56.45-5.99.72-18.01.04-23.77-.51-4.29-2.58-1.92-4.35-1.76ZM123.55,266.38c2.77.71,8.04-.52,11.15,0-.86-1.5-4.57-2.21-6.12-2.22-2.03,0-4.02,1.1-6.12.79-.02.45.84,1.37,1.08,1.43ZM83.62,264.94c-3.35-.13-6.86-.28-10.07.73-.17,1.25,1.63.68,2.5.71,1.92.07,4.25.16,6.13,0,1.25-.11,3.73-.26,3.59-1.43-.71-.04-1.44.02-2.15,0ZM92.25,268.54c-1.03.37-6.43,2.16-6.84,2.16h-12.95c-.46,0-3.44-1.21-4.68-1.44-.12-.02-.41-.72-1.06-.71-5.22.08-7.87,12.68-6.19,16.23,1.23,2.59,6.03,4.74,8.72,5.67,8.46,2.91,19.01,3.12,27.48.19,4.62-1.6,6.62-2.85,6.24-7.98-.54-7.22-3.96-10.18-7.91-15.51-1.32-.55-2.22,1.18-2.81,1.38ZM106.64,272.14c-.17-.94.63-2.1.34-2.9-1.16-3.26-4.68,1.04-.34,2.9ZM141.18,269.98c-3.26-.69-4.38.95-7.64,1.36-5.14.64-11.27-.3-16.11-2.08-.15-.05-.32-.93-.74-1.1-6.51-2.64-8.36,17.73-4.98,20.85,5.12,4.73,23.8,5.42,29.71,1.72s7.71-19.06-.24-20.74ZM50.52,289.4c.78,3.59.6,5.84.72,9.35.14,4.06-.05,8.17,0,12.23.01,1-.29,5.76.36,5.76.69-1.67.34-3.93.36-5.76.05-4.06.04-8.17,0-12.23-.06-5.29.67-11.69-.72-16.55-.39-1.36-.55-2.66-1.8-3.59-4.3,4.73-1.2,3.99.53,8.13.43,1.03.35,1.75.55,2.66ZM179.32,283.65c.37.94.8,1.82.73,2.87h.7c.51-2.09-.26-3.39-.71-5.03-.42-1.5.67-2.16-2.15-2.88-.27,1.9.79,3.39,1.43,5.04ZM157.01,293c-.82,8.43-1.68,17.28-.72,25.9.1.87,1,3.81,1.43,2.87.76-1.69-.67-4.36-.71-5.03-.46-7.08-.29-16.05.72-23.02.73-5.1,1.87-10.2,5.04-14.38-5.85-.8-5.36,9.57-5.76,13.66ZM166.37,283.65c-1.9,2.2-4.32,9.75-4.32,12.59v23.74c0,1.35,1.48,4.69.72,6.83-.57,2.34.47,4.51.72,6.47.31,2.45-.02,6.34,1.44,8.63s4.48,1.43,6.48.72c1.7-.61,1.19-.63,2.16-1.44,1.94-1.61,1.81-1.23,2.88-3.6,3.29-7.28.47-24.16-.03-32.7-.42-7.19,1.36-13.21-2.13-19.81-.24-.46-.25-.93-.72-1.44-1.06-1.16-.64-.87-2.16-1.44-.24-.09-.53-.67-1.14-.72-2.73-.24-2.55.6-3.9,2.16ZM37.57,284.37c-4.39,1.3-4.56,2.84-5.44,7.16-1.01,5-1.02,13.43-1.04,18.74-.01,3.27-.22,6.86,0,10.07.18,2.67.92,7.35,1.44,10.07.56,2.93,1.29,8.08,3.6,10.07,4.04,3.49,7.36-.49,8.63-4.32,2.38-7.17,2.28-36.55,1.49-45.01-.19-2.04-.37-2.32-1.49-3.91-1.37-1.95-1.32-1.29-2.88-2.16-.51-.28-.81-.53-1.44-.72-.16-.05-.44-.7-1.15-.75-1.16-.09-1.42.66-1.73.75ZM59.87,291.55l-3.59-3.59v3.6s3.59-.01,3.59-.01ZM182.19,311.71v-12.95h-.72v12.95h.72Z"/>
    <path class="cls-6" d="M117.44,6.67c-3.35,3.08-2.64,4.5-1.44,8.63l-.08,1.77c-9.63,6.37-23.15,12.02-30.14-.33.39-4.45-2.27-4.99-3.6-8.63,6.56-10.09,23.85-9.98,33.08-3.94.94.62,1.47,2.4,2.18,2.5Z"/>
    <path class="cls-46" d="M141.9,32.57l.76,2.12c-9.59,14.93-8.33,28.62-4.47,44.93,1.52,23.01,2.11,46.03,1.76,69.07l-.92,1.87c-4.54-1.26-10.75-1.06-15.11.72-9.44,2.62-19.45,4.26-29.15.72,1.23.3,1.87.73,1.8,2.16.67.48.43.72-.72.72-1.73,1.29-3.65.81-5.76-1.44-8.95-2.56-13.33-5.48-23.74-2.88-.36-.65-.7-1.31-.94-2s-.45-1.33-.48-2c-.57-12.59-1.14-25.34-1.34-37.94-.24-15.28.21-29.65,3.71-44.26,1.07-8.46-.34-13.19-3.58-20.98-1.9-4.37-1.75-7.73.46-10.09,4.33-2.47,8.51-5.33,13.26-7.19,3.68,5.12,21.07,21.62,26.67,21.62,6.66,0,17.94-18.18,22.38-23.01,5.2,2.47,10.52,4.77,15.4,7.86Z"/>
    <path class="cls-47" d="M77.14,154.87c9.87,3.92,10.84,16.92,11.18,26.36-.14,22.53,1.92,44.91,6.19,67.08.75,3.89.9,5.71-3.03,5.2-9.18-3.02-18.47-1.27-26.84,3.08l-1.27-.39c-1.18-21.47-3.65-42.76-7.42-63.87-2.11-12.87-1.49-24.84,6.8-35.3,3.99-2.48,9.83-2.45,14.39-2.16Z"/>
    <path class="cls-47" d="M144.06,264.94c-1.96-.09-5.61-3.02-7.93-3.94-6.39-2.54-9.64-2.18-16.13-.33-2.44.7-8.9,4.48-10.48,2.83l.34-1.84c2.25-.98,2.47-2.4,2.71-4.68-.21-27.02,2.5-54.34,6.18-81.38,1.27-9.37,5.51-23.68,17.39-17.44,11.46,6.02,11.2,20.2,10.67,31.59l-2.41,27.52c-1.22,11.52.2,22.97,2.64,34.01,1.31,5.82.31,10.38-3,13.66Z"/>
    <path class="cls-19" d="M77.14,154.87c11.42.73,12.12,5.1,13.58,15.56,2.29,16.35,1.76,34.29,3.78,50.9,1.68,13.82,5.23,27.44,7.85,41.09.24,1.53-.65,1.18-1.75,1.03-2.42-.34-4.91-1.69-6.9-2.1.12-.35-.31-3.17-.59-3.46-2.96-3.05-26.55-3.54-28.52,3.07.26,1.54-.11,2.63-1.1,3.27-.8.44-4.46,3.53-5.03,2.87,1.01-12.16,1.54-24.11.71-36.32-1.14-16.86-10.81-47.9-5.17-62.02,1.01-2.54,6.58-10.36,8.78-11.73-1.2,5.08-4.36,9.07-5.54,14.24-2.38,10.41,1.3,27.35,2.77,38.53,2,15.25,5.43,30.08,4.22,45.78,2.15-.16,3.54-1.91,5.55-2.71,7.98-3.2,15.86-2.97,23.94-.16-1.8-13.28-4.62-26.56-5.74-39.93s-.4-26.18-1.54-38.75c-.74-8.2-3.29-13.59-9.26-19.16Z"/>
    <path class="cls-19" d="M144.06,264.94c3.87-9.09.88-15.61-.49-24.33-2.95-18.7,1.64-36.37,1.96-55.14.14-8.16-.1-16.56-5.8-23.03-1.79-2.04-8.87-6.25-11.15-4.76-4.78,3.13-7,11.13-8.07,16.45-3.46,17.2-3.26,36.33-5.94,53.77-1.19,9.32.6,22.03-.77,30.89-.44,2.86-2.04,3.44-4.27,4.72-.62-.65-.8-.59-.76-1.73.2-6.09,1.93-13.23,2.23-19.46.91-18.84-2.3-67.11,8.61-81.32,6.67-8.69,18.56-5.67,25.21,1.4,9.65,10.26,2.8,38.88,2.79,52.56,0,10.8,2.31,22.44,2.93,33.09.26,4.48.11,17.2-6.47,16.9Z"/>
    <path class="cls-31" d="M54.11,131.85l-9.35-1.43c-.74-10.19-.79-20.37-.74-30.61,0-1.88.79-3.64.78-5.69-.07-17.21-1.89-34.53-.07-51.73l9.38-4.06c.04,5.84,3.63,13.62,3.66,19.06.02,4.97-2.95,11.85-3.61,16.59-1.61,11.62-.27,24.85-1.51,36.68l1.47,21.19Z"/>
    <path class="cls-31" d="M156.19,130.31c-.44.7-5.8.98-7.09,1.54.29-5.76-1.29-11.94-1.47-17.59-.45-13.8,1.44-27.92-.23-41.73-.74-6.14-4.1-9.68-3.26-17.21.28-2.48,5.37-17.44,6.85-17.76,2.22-.47,5.76,1.5,6.06,3.97,1.13,9.4.16,20.72.71,30.29-1.64,15.53-1.73,31.26-1.44,46.7.03,1.76.22,11.26-.13,11.8Z"/>
    <path class="cls-10" d="M64.19,33.29c-1.8,7.64,4.61,16.51,5.07,23.35.48,7.18-2.9,18.17-3.62,25.94-2.11,22.71,1.02,45.27.71,67.98-2.77.69-5.32,2.45-7.91,3.6-.3-.38,1.33-7.99,1.36-9.63.3-17.14-2.67-35.54-2.08-53.31.34-10.18,4.26-22.19,4.37-31.67.09-7.31-4.73-15.93-3.68-23.62.23-.94,4.8-2.08,5.78-2.64Z"/>
    <path class="cls-10" d="M141.9,32.57c1.07.67,4.75,2.34,4.98,3.31-1.18,3.41-3.28,6.37-4.46,9.79-5.88,17.02-.07,22.98.92,39.06.53,8.61-.74,17.44-.57,25.89.19,9.14,2.03,18.27,2.73,27.35.41,5.33.07,10.84.72,16.18-.36.41-6.1-3.29-7.19-3.59-.08-6.13-.58-12.19-.72-18.34-.43-18.28.8-33.46-1.54-52.43-1.54-12.49-5.47-19.62-1.36-32.5,1.64-5.14,4.8-9.63,6.5-14.72Z"/>
    <path class="cls-4" d="M92.25,268.54l1.7.13c4.05,8.92,5.45,17.49-6.7,19.51-2.24,4.75-8.41,2.96-12.35.92-3.32-1.71-5.02-4.3-6.43-7.65-1.2-2.83-3.38-10.52-.68-12.2,1.24.23,4.22,1.44,4.68,1.44h12.95c.4,0,5.8-1.79,6.84-2.16Z"/>
    <path class="cls-50" d="M92.25,268.54c.59-.21,1.49-1.93,2.81-1.38,3.96,5.33,7.38,8.29,7.91,15.51.38,5.12-1.62,6.38-6.24,7.98-8.46,2.93-19.01,2.72-27.48-.19-2.69-.93-7.49-3.08-8.72-5.67-1.68-3.55.97-16.15,6.19-16.23.65-.01.94.69,1.06.71.17,6.18,1.46,15.43,7.72,18.54.76.38,7.98,2.38,8.41,2.35.41-.03,1.16-2.17,2.2-2.93,2.32-1.7,7.93-1.58,8.87-4.8,1.18-4.07-.68-10.25-2.73-13.88Z"/>
    <path class="cls-4" d="M141.18,269.98c5.07,5.36.89,18.26-5.69,21.09-1.98.85-10.53-.29-12.77-1.3-5.64-2.57-7.34-6.99-7.57-12.9-.09-2.27-.25-7.36,2.29-7.61,4.84,1.78,10.97,2.72,16.11,2.08,3.26-.41,4.38-2.05,7.64-1.36Z"/>
    <path class="cls-7" d="M111.68,164.95c-3.22,11.17-5.1,22.85-5.04,34.53-3.19-.42-5.89-1.81-8.62.72l-2.17-34.54c5.3.02,10.61.26,15.83-.71Z"/>
    <path class="cls-50" d="M117.44,269.26c-1.69,7.42-1.62,17.42,7.33,19.65,2.96.74,5.71.02,8.28,1.82,8.69-4.02,9.91-12.08,8.14-20.75,7.95,1.68,6.39,16.88.24,20.74s-24.58,3.01-29.71-1.72c-3.39-3.13-1.54-23.49,4.98-20.85.43.17.59,1.05.74,1.1Z"/>
    <path class="cls-13" d="M85.78,16.74c2.83.58,5.36,4.66,7.87,5.44,7.2,2.23,16.51-3.08,22.35-6.88.34,1.16,1.63,2.54,1.82,3.54.39,2.01-11.33,15.51-13.81,15.73-2.83.26-19.6-11.24-19.54-13.74.02-1,1.18-2.64,1.3-4.1Z"/>
    <path class="cls-28" d="M157.72,218.91c.21.22.7,5.14.76,6.08.93,14.95-4.23,27.38-1.29,43.01.29,1.56,2.09,4.98,2.01,5.88-.03.34-3.52,2.18-4.73,4.73-1.39,2.94-1.94,10.99-2.84,12.27-.71,1.02-2.21.67-3.26.69.4-1.96,1.74-3.09,2.37-5.18,1.63-5.35,1.27-8.22.16-13.54-.25-1.21-1.65-3.46-1.61-3.96.03-.32,3.23-3.5,4.02-5.12,5.95-12.18-1.73-31.53.09-44.88.91.15,4.07-.24,4.31.01Z"/>
    <path class="cls-28" d="M47.64,223.22h5.76c.59,7.07.67,14.1.72,21.21,0,1.19.74,2.4.72,3.61-.09,5.19-3.16,18.14-1.02,21.89,1.74,3.05,3.73,2.96,1.38,7.96-.49-1.87-4.24-3.84-4.57-4.79-.81-2.35-.17-15.67-.14-19.34.04-4.38,1.79-7.53-.48-12.38-.41-.88-2.36-1.58-2.36-2.7v-15.47Z"/>
    <path class="cls-37" d="M63.47,264.22c-1.24-4.54.56-6.43,4.41-8.22.69-.32,11.03-1.79,12.53-1.87,2.05-.12,12.27,1.16,13.59,2.09.22.15,2.23,5.99-.3,5.12-10.94-2.23-20.24-2.66-30.22,2.88Z"/>
    <path class="cls-31" d="M157.02,151.99l.71,47.49-3.63-1.13c1.45-8.58.15-17.3.4-25.86.02-.68,1.21-1.7,1.15-3.57-.12-3.87-4.7-7.69-5.14-12.22-.19-1.95.19-4.16.04-6.15,2.04,1.37,4.02,1.67,6.47,1.44Z"/>
    <path class="cls-11" d="M123.91,151.27c-3.86,1.57-6.41,5.32-10.07,7.19-4.72.56-15.2,1.61-19.44-.17-.62-.26-1.1-.66-1.42-1.26-.95-1.19-2.09-2.27-2.88-3.6,1.93.55,3.79,1.01,5.76,1.44,2.21.25,2.45,0,.72-.72-3.04-.92-6.58-2.52-8.63-5.03,5.79.56,12.63,3.59,18.35,3.65,3.98.04,10-1.18,14.17-1.73,1.04-.14,2.75-1.19,3.46.23Z"/>
    <path class="cls-31" d="M47.64,158.11c-.14-1.34-2.48-7.99-2.16-8.27,3.42.47,6.19-.52,9.35-1.44l-1.62,11.68-5.57,10.62c-.31-4.04.43-8.62,0-12.59Z"/>
    <path class="cls-39" d="M151.97,16.02c2.64.12,3.62,3.7,4.11,6.02l.93-.26c.9,4.36.84,8.37.71,12.95-2.48-.84-6.06-2.04-7.58-4.34-.42-.63.51-13.18,1.83-14.36Z"/>
    <path class="cls-31" d="M105.92,216.02c-1.21-.23-6.05.34-6.44-.04s-.89-7.11-.8-8.28c.58-7.23,7.24-3.03,7.24-2.12v10.43Z"/>
    <path class="cls-39" d="M46.2,19.62c1.45-1.85,2.64,0,3.39,1.73.66,2.61,1.39,4.9,3.08,6.9.16,5.61.03,5.6-5.29,7.32-.58.19-.9,1.1-1.56-.1-.96-1.76-.45-13.56.38-15.85Z"/>
    <path class="cls-17" d="M113.84,158.47c-4.09,2.09-15.88,3.69-19.43,1.07-1.36-1.01-1.08-2.06-1.44-2.5l20.87,1.44Z"/>
    <path class="cls-42" d="M51.24,143.36c-2.71-.38-3.47-4.28-5.55-4.89-3.88-1.13-9.92,1.07-13.88-.87.21-.33.26-.87.71-1.07,2.3-1.04,16.47-.36,18.04,1.38,1.12,1.25,1.74,3.92.68,5.44Z"/>
    <path class="cls-5" d="M108.8,36.88c1.01-.95,1.38-.55.72.72-1.21,1.25-3.53,4.81-5.4,4.8-1.2,0-9.6-6.39-11.15-7.67-.95-1.01-.55-1.38.72-.72,4.64,2.53,9.89,6.62,15.11,2.88Z"/>
    <path class="cls-33" d="M46.2,19.62c.61-1.67,2.54-4.34,4.29-2.85.57.49,2.14,9.85,2.19,11.48-4.81.37-2.67-7.24-6.48-8.63Z"/>
    <path class="cls-1" d="M157.65,203.87c.54.62-.21,6.36.09,7.84h-4.32s0-8.63,0-8.63c.16-.17,4.09.63,4.23.8Z"/>
    <path class="cls-1" d="M51.96,210.98c.28.29.39,6.68.72,7.92h-5.04c.33-1.24.44-7.63.72-7.92.13-.13,3.48-.13,3.6,0Z"/>
    <path class="cls-34" d="M51.24,282.21c.42,2.36.49,4.73.22,7.08l-.94.11c-.2-.91-.11-1.62-.55-2.66-1.74-4.14-4.83-3.4-.53-8.13,1.25.93,1.41,2.23,1.8,3.59Z"/>
    <path class="cls-16" d="M157.01,21.78l-.36,3.59c-1.6-1.39-1.37-3.82-2.25-5.69-.83-1.76-2.32-1.96-2.43-3.66,3.1-2.81,4.64,3.82,5.04,5.76Z"/>
    <path class="cls-35" d="M123.55,266.38c-.24-.06-1.1-.98-1.08-1.43,2.09.31,4.09-.79,6.12-.79,1.55,0,5.26.72,6.12,2.22-3.11-.52-8.38.71-11.15,0Z"/>
    <path class="cls-32" d="M51.96,298.76c-.2.63-.44.62-.72,0-.12-3.51.06-5.77-.72-9.35,1.53-1.71.41-4.93.72-7.19,1.38,4.85.66,11.26.72,16.55Z"/>
    <path class="cls-45" d="M83.62,264.94c.82.43.34.91-1.44,1.44-1.87.16-4.21.07-6.13,0-.87-.03-2.67.54-2.5-.71,3.21-1.01,6.72-.86,10.07-.73Z"/>
    <polygon class="cls-1" points="50.52 205.23 48.37 205.23 48.37 196.6 50.52 205.23"/>
    <path class="cls-14" d="M109.52,37.6l-.72-.72c1.82-1.3,3.98-5.39,6.47-6.47-.92,2.74-3.79,5.17-5.75,7.19Z"/>
    <polygon class="cls-44" points="59.87 291.55 56.27 291.57 56.28 287.97 59.87 291.55"/>
    <path class="cls-36" d="M90.09,31.84c-1.51.19-2.83-1.55-3.6-2.86,1.51-.19,2.83,1.55,3.6,2.86Z"/>
    <path class="cls-48" d="M83.62,264.94c.72.03,1.44-.03,2.15,0,.14,1.17-2.34,1.33-3.59,1.43l1.44-1.44Z"/>
    <path class="cls-2" d="M93.69,34.01l-.72.72c-.74-.61-1.95-1.05-2.16-2.15,1.44-.42,1.99.95,2.88,1.43Z"/>
    <path class="cls-14" d="M118.16,26.81c-.5.89-.48,2.57-2.15,2.88-.4-1.69,1.27-2.01,2.15-2.88Z"/>
    <path class="cls-43" d="M118.16,26.81c.5-.89.48-2.57,2.15-2.88.4,1.69-1.27,2.01-2.15,2.88Z"/>
    <path class="cls-22" d="M96.57,154.15c6.71,2.04,10.3,1.24,16.92.73.79-.06,2.68-.53,2.5.71-6.84,1.32-13.42.75-20.14-.71l.72-.72Z"/>
    <path class="cls-25" d="M135.07,248.4c.91.12,2.62,1.61,3.95,1.45l-3.59,1.42c1.36-.24,6.6,5.02,5.75,5.76-3.93-.21-7.14-2.5-11.15-2.87-5-.46-9.18.85-14.02,1.43-.36-2.02.45-1.2,1.58-1.62.63-.23,3.61-1.26,3.81-1.26h11.51c.43,0,1.47,1.16,2.52.71-1.94-4.19-14.26-1.89-15.48-3.59-.71-.39.64-1.44.73-1.44,4.3,0,10.4-.54,14.39,0Z"/>
    <path class="cls-26" d="M13.82,275.37c-.58,3.37-5.14,6.57,1.5,8.7l-2.23,19-4.22-11.87c3.25-8.93,1.12-18.47,3.51-27.7.46-.05,1.43.96,1.43,1.08,0,3.09.47,8.04,0,10.79Z"/>
    <path class="cls-42" d="M12.38,246.95c-1.23.18-.77-1.71-.7-2.5.22-2.69.95-5.54,1.07-8.28,4.94,3.19.59,6.68-.37,10.78Z"/>
    <path class="cls-20" d="M12.39,257.75l-.72-7.91c2.31,1.36,3.42,6.51.72,7.91Z"/>
    <path class="cls-42" d="M36.13,340.48c-1.5-5.23.45-10.64,0-15.47-.24-2.6-1.99-5.1-2.14-7.27-.17-2.49,1-5.35.7-8.55-.66-7.06.4-6.34.73-12.25.18-3.11-.91-4.82-.02-8.25,3.24,6.79-.13,14.59.7,21.25,1.02,8.11,1.31,16.03,1.45,24.43l-1.43,6.12Z"/>
    <path class="cls-42" d="M41.16,328.97l-1.49-5.4c2.01-5.6-.09-9.57-.68-14.36-.55-4.48,1.23-8.86.75-13.33,1.14.37,2.07,3.83,2.13,4.76.19,2.76-1,6.48-.72,10.01.22,2.77,1.46,5.27,1.52,7.89.07,3.48-1.73,6.9-1.5,10.42Z"/>
    <path class="cls-42" d="M41.16,338.32c-1.66-1-.28-4.81-.7-6.47,1.65.94.29,4.8.7,6.47Z"/>
    <path class="cls-42" d="M36.13,287.25c.23-.5,1.29-2.82,1.44-2.88,1.48-.61-.04,3.21-1.08,3.58l-.36-.71Z"/>
    <path class="cls-8" d="M168.52,341.2l-2-8.43c2.31-6.71-.8-13.99-.93-19.99-.06-3.12,1.54-5.76,1.55-8.63,0-3.31-1.54-7.47-.77-11.14l2.13,5.45c.54,8.44-.6,19.13,0,27.31.19,2.53,1.44,5,1.46,7.16.02,2.52-1.64,5.58-1.44,8.27Z"/>
  </g>
</svg>