<?xml version="1.0" encoding="UTF-8"?>
<svg id="Layer_2" data-name="Layer 2" xmlns="http://www.w3.org/2000/svg" viewBox="0 0 58.38 262.03">
  <defs>
    <style>
      .cls-1 {
        fill: #cfa078;
      }

      .cls-2 {
        fill: #cd74ce;
      }

      .cls-3 {
        fill: #080808;
      }

      .cls-4 {
        fill: #ce75cf;
      }

      .cls-5 {
        fill: #e8be9a;
      }

      .cls-6 {
        fill: #bc6bbd;
      }

      .cls-7 {
        fill: #a4866d;
      }

      .cls-8 {
        fill: #ea9eeb;
      }

      .cls-9 {
        fill: #d0a178;
      }

      .cls-10 {
        fill: #6c446d;
      }

      .cls-11 {
        fill: #c571c6;
      }

      .cls-12 {
        fill: #eb9eec;
      }
    </style>
  </defs>
  <g id="Layer_1-2" data-name="Layer 1">
    <path class="cls-3" d="M45.77,233.27c1.12,5.32.98,23.79-6.83,23.76-.91,0-3.01-.97-3.24-.75-.14.13-.18,2.32-1.1,3.59-4.24,5.88-7.28-2.13-7.9-2.13-.68,0-1.69,5.02-6.36,3.47-1.9-.63-2.33-5.43-2.64-5.65-.29-.2-2.38,2.35-4.92-1.19-1.65-2.3-7.76-27.67-8.05-31.51s.32-6.89.97-10.59,5.51-18.06,5.35-19.55c-.19-1.78-2.8-3.2-3.27-5.28-.64-2.82.45-6.46-.3-9.05-.57-1.95-4.75-6.67-5.83-10-6.02-18.67,6.25-52.6,5.29-75.06-1.13-26.4-14.26-59.75,3.92-82.34C24.68-6.15,49.74-3.23,55.49,19.63c9.02,35.87-6.15,70.75-3.96,107.53.81,13.67,7.49,31.24-.85,43.76-1.21,1.81-5.09,4.64-5.49,6.02-.84,2.95-.35,8.11-1.02,11.21-.3,1.37-1.79,2.83-1.87,3.88-.15,1.79,6.63,9.7,7.57,12.32,1.34,3.75,1.04,9.63,1.87,13.96,1.44,7.54,8.82,20.31-5.96,14.96Z"/>
    <path class="cls-12" d="M32.82,5.97c2,.4,2.71,1.2,3.83,2.67,8.52,11.18,7.76,37.07,6.31,50.72-4.84,29.52-8.56,57.64-2.12,86.87,1.44,11.19-1.22,22.82-9.45,30.22-1.01.75-2.45.75-4.32,0-4.65-.15-6.71-.73-10.79-2.16-6.4-6.84-7.52-18.46-7.8-27.8,1.09-10.43,2.49-20.82,4.2-31.18,2.18-13.36,2.28-27.05.29-40.44C8.2,51.23,4.82,27.2,22.75,8.13c3.56-1.46,6.19-2.11,10.07-2.16Z"/>
    <path class="cls-4" d="M31.38,189.39c-1.56-1.15-2.18-3.23-1.87-6.23.38-1.95.05-3.47-1-4.56.35-1,1.41-.61,2.16-.72,0-1.12,1.92-1.05,2.88-.72.89-.59.65-.83-.72-.72-.48.84-1.03.89-1.44,0,.98-3.99,4.07-6.8,5.76-10.42,6.06-12.92-.55-33.38-1.44-47.49-1.45-22.94,5.67-45.81,6.5-69.02.5-14.21.45-32.49-9.38-43.55,11.52-.14,15.59,6.94,17.77,17.12,7.47,34.8-6.72,62.12-6.26,96.15.18,13.21,7.94,37.08.6,48.09-1.94,2.92-5.96,4.43-6.77,7.67-.6,2.42.62,9.42-.65,11.52-.54.9-4.83,2.55-6.13,2.87Z"/>
    <path class="cls-2" d="M22.75,8.13c-2.16,5.38-6.14,9.6-8.26,15.12-11.33,29.6,3.82,47.79.97,76.5-.49,4.94-1.38,10.85-2.79,15.55v-1.44c.93-14.63.27-30.3-1.53-44.86-2.27-18.39-8.63-32.15,2.13-49.85,1.85-3.05,4.09-4.68,5.82-7.2,1.57-2.29-1.36-1.77,3.66-3.83Z"/>
    <path class="cls-2" d="M12.68,115.31c-1.14,16.08-4.92,29.75-1.09,46.04,1.03,4.4,3.42,8.61,4.68,12.94-.7-.24-1.64-.01-2.64-.56-7.36-4.01-7.64-15.89-7.34-23.45l6.39-36.41c-.03.48.03.96,0,1.44Z"/>
    <path class="cls-8" d="M28.51,178.6c.96.02,1.92-.03,2.88,0-.98,3.99-.05,6.97,0,10.79-4.6,1.14-10.38.33-14.39-2.16-1.07-1.91-1.61-7.76,0-9.35,4.1,1.06,7.33.65,11.51.72Z"/>
    <path class="cls-11" d="M17,177.88c.66,3.21,1.24,6.16,0,9.35-.5-.31-1.57-.13-2.22-1-1.47-1.98-.31-6.59-.66-9.08,1.34-.57,2.26.56,2.87.72Z"/>
    <path class="cls-10" d="M31.38,176.45c.47-.02.98.06,1.44,0,1.08-.32,1.26-.33.72.72-1.15.42-1.65.54-2.88.72l-3.6-1.44c1.42.05,2.9.06,4.32,0Z"/>
    <path class="cls-5" d="M42.17,211.69c-.06.23-.48.57-.72.72-2.12,2.62-3.28,6.04-3.46,10.26l-1.58.53c-1.85-1.57-2.56.26-3.6.72-1.93,2.59-2.66,6.09-2.2,10.49.03,1.93-.67,2.74-2.11,2.45-.38-2.73.04-12.18-3.85-11.38-1.55.32-1.43,1.92-1.9,2.75-.52,6.07-.33,12.36.56,18.88.08,2.68-.58,3.58-2,2.69-1.08-4.17-1.69-19.92-3.94-22.32-1.06-1.13-2.18-.65-3.25.03-3.09,4.01-3.72-4.9-3.55-7.65.21-3.48,3.82-21.22,5.41-22.94,6.55.98,13.11,1.13,19.68.46,3.76-.81,8.3,10.74,7.98,13.27l-1.46,1.05Z"/>
    <path class="cls-9" d="M14.12,243.34c-1.13-5.24-5.02-18.53-5.03-22.66,0-2.6,5.34-25.19,6.44-25.95,4.68.68,9.06,1.59,14.08,1.16,1.79-.15,7.91-2.1,8.27-1.88.68.41,7.43,12.43,7.72,13.89.57,2.87.51,6.67,1,9.79.52,3.33,1.81,6.45,2.04,9.82-1.41.54-3.07-2.89-3.27-3.56-1.12-3.83.32-10.16-3.2-12.26.55-2.19-3.47-12.22-5.52-12.87-.63-.2-7.8.78-9.97.67-1.8-.09-9.75-1.83-10.34-1.42-1.15,6.56-3.97,13.85-4.36,20.46-.08,1.39.2,8.35.71,8.99.12.14,1.27-.16,1.43,0,.09.09-.78,1.32-.73,2.48.13,3.2,1.04,7.73,1.45,11.19.22,1.38-.02,2.1-.72,2.16Z"/>
    <path class="cls-1" d="M41.45,212.41c-2.95,5.31-.21,13.69.03,19.75.14,3.67.49,14.18-1.1,16.94-.2.35-.93.93-1.08.71-.57-6.34-1-12.7-1.45-19.05-.14-2-1.48-6.12-1.43-7.56.02-.47,2.02-8.27,2.31-8.84.99-1.97,1.73-1.32,2.73-1.95Z"/>
    <path class="cls-1" d="M32.82,223.92c-.88,5.57.82,11.27.75,16.94-.06,4.25-1.24,9.63-1.47,13.99-1.45-.28-1.17-1.52-1.43-2.52-1.15-4.56-1.48-10.64-2.16-15.46,1.65-3.43-.06-9.2,2.09-12.52.58-.9,1.79-.23,2.23-.42Z"/>
    <path class="cls-1" d="M22.75,228.24c-.02,5.22,2.19,11.95,2.15,16.9,0,1.14-1.8,11.09-2.87,9.71.18-1.71-.76-3.38-.73-5.03,0-.06.7.05.7-1.07,0-4.93-1.72-16.07-.32-19.77.17-.45.97-.58,1.07-.74Z"/>
    <path class="cls-7" d="M14.84,241.18c.16,1.4,1.43,3.66.71,5.75h-.7c.3-1.37-.49-2.5-.73-3.59l.72-2.16Z"/>
    <path class="cls-6" d="M32.82,176.45c.74-.1,2.51-2.18,2.16.72-.45.11-1.1-.12-1.44,0l-.72-.72Z"/>
  </g>
</svg>