<?xml version="1.0" encoding="UTF-8" standalone="no"?>
<svg
   id="Layer_2"
   data-name="Layer 2"
   viewBox="0 0 88.59206 337.62133"
   version="1.1"
   sodipodi:docname="Human_06-arm_palmup.svg"
   width="88.592056"
   height="337.62134"
   xmlns:inkscape="http://www.inkscape.org/namespaces/inkscape"
   xmlns:sodipodi="http://sodipodi.sourceforge.net/DTD/sodipodi-0.dtd"
   xmlns="http://www.w3.org/2000/svg"
   xmlns:svg="http://www.w3.org/2000/svg">
  <sodipodi:namedview
     id="namedview50"
     pagecolor="#ffffff"
     bordercolor="#000000"
     borderopacity="0.25"
     inkscape:showpageshadow="2"
     inkscape:pageopacity="0.0"
     inkscape:pagecheckerboard="0"
     inkscape:deskcolor="#d1d1d1" />
  <defs
     id="defs4">
    <style
       id="style2">
      .cls-1 {
        fill: #e6c4ae;
      }

      .cls-2 {
        fill: #00766d;
      }

      .cls-3 {
        fill: #080808;
      }

      .cls-4 {
        fill: #0c0c0c;
      }

      .cls-5 {
        fill: #6e6e6e;
      }

      .cls-6 {
        fill: #e9c5af;
      }

      .cls-7 {
        fill: #1f1f1f;
      }

      .cls-8 {
        fill: #eac6b0;
      }

      .cls-9 {
        fill: #03615a;
      }

      .cls-10 {
        fill: #e9c6b0;
      }

      .cls-11 {
        fill: #1b1b1b;
      }

      .cls-12 {
        fill: #008c82;
      }

      .cls-13 {
        fill: #00736b;
      }

      .cls-14 {
        fill: #00776e;
      }

      .cls-15 {
        fill: #f1ddc8;
      }
    </style>
  </defs>
  <g
     id="Layer_1-2"
     data-name="Layer 1"
     transform="translate(0.00650452,-0.00303611)">
    <path
       class="cls-5"
       d="m 74.92,96.25 c -0.07,-1.52 -0.47,-4.1 0.72,-5.04 0.16,1.41 0.4,4.19 -0.72,5.04 z"
       id="path6" />
    <path
       class="cls-3"
       d="m 75.64,91.21 -0.72,5.04 c 0.38,8.5 8.87,25.78 -5.76,23.04 0.47,5.03 -1.64,9.78 -1.47,14.78 0.14,4.38 1.8,9.81 2.19,14.39 1.45,17.2 2.09,33.05 -0.1,50.29 -2.14,16.85 -6.35,33.75 -8.96,50.54 0.32,2.17 13.09,9.27 15.44,12.3 3.23,4.18 4.69,13.68 6.95,18.97 2.57,5.98 9.1,11.48 2.54,17.69 -4.97,4.7 -12.76,2.06 -17.31,-1.83 -0.33,10.18 5.86,34.09 -10.52,34.5 -1.49,0.04 -4.15,-1.26 -5.23,-0.55 -0.49,0.32 -2.33,5.7 -5.82,6.78 -4.99,1.54 -12.37,-0.71 -13.73,-6.16 C 25.08,339.93 7.32,332.83 13.71,320.2 7.63,319.85 0.22,315.81 0,309.01 c -0.22,-6.8 5.21,-18.45 5.78,-25.9 0.57,-7.45 -2.21,-13.53 -0.53,-22.85 0.82,-4.56 4.75,-12 4.9,-15.31 0.13,-2.78 -1.82,-7.56 -2.19,-10.81 -3.84,-33.11 0.89,-65.7 0.74,-98.6 0,-2.08 -0.49,-4.19 -0.48,-5.91 0.01,-2.26 1.02,-5.42 0.47,-7.68 C 8.49,121.12 5.08,120.56 4,119.29 1.68,116.53 2.08,108.18 2.19,104.56 2.42,97.12 4.48,88.06 4.37,80.83 4.01,56.42 -7.17,37.59 8.66,14.2 l 3.6,-3.6 C 25,-0.19 37.35,-2.89 53.14,3.19 53.73,3.42 54.81,2.78 55.51,3.06 57,3.65 66.29,12.1 67.7,13.82 c 8.23,10.05 9.21,25.53 8.65,38.14 -0.33,7.39 -4.03,20.62 -3.57,26.62 0.1,1.36 1.47,2.52 1.41,3.64 -0.05,1 -1.26,1.76 -1.27,2.17 -0.01,0.38 2.4,3.92 2.72,6.82 z"
       id="path8" />
    <path
       class="cls-15"
       d="m 25.24,122.89 c 8.79,-0.89 17.43,-4.04 26.29,-5.03 1.6,-0.18 9.83,-0.87 10.48,-0.41 1.94,1.38 -1.54,13 -1.51,15.85 0.04,3.42 1.83,7.99 2.17,11.56 1.65,17.21 2.91,34.53 0.64,51.74 l -9.28,52.29 c -3.86,-1.33 -12.23,-3.64 -7.16,2.48 7.31,3.1 19.66,7.14 24.75,13.41 2.59,3.18 4.77,13.46 6.54,17.94 1.09,2.75 2.96,5.14 3.95,7.93 -2.29,3.27 -7,-2.18 -8.82,-4.46 -2.49,-4.72 -5.68,-8.24 -9.56,-10.58 -2.05,0.96 -3.6,0.94 -4.66,-0.08 -6.64,1.15 -13.44,-0.08 -19.74,-2.47 -4.93,-1.1 -6.98,-0.8 -4.02,3.91 2.59,1.98 5.01,3.61 8.45,4.15 6.18,0.96 14.46,-2.25 17.65,5.39 0.71,1.7 1.79,10.75 1.97,13.15 0.3,3.91 -0.03,8.27 -0.02,12.26 0.01,3.99 2.04,8.75 -2.13,11.85 -1.38,0.11 -2.06,-0.7 -2.03,-2.42 l -1.26,-18.78 c -0.36,-4.51 -1.98,-13.5 -8.23,-11.2 -2.06,3.46 -0.05,26.52 -0.72,32.76 -0.28,2.62 -0.92,3.38 -2.16,5.4 -2.29,3.14 -6.11,-1.86 -6.43,-4.91 0.06,-9.66 0.59,-19.38 1.58,-29.18 0.48,-3.36 -0.54,-5.2 -3.08,-5.51 -0.59,0.24 -1.54,-0.2 -2.57,0.65 -4,3.28 -1,30.01 -7.85,36.83 -1.05,1.04 -1.34,0.96 -2.55,1.4 -3.48,-0.82 -4.4,-4.15 -2.77,-9.98 l 3.44,-14.04 c 1.05,-5.62 1.89,-10.57 -2.11,-14.86 -1.65,-0.42 -3.44,-1.06 -4.65,0.75 -2.31,3.46 -2.39,20.37 -6.87,23.42 -0.94,0.64 -1.53,-0.24 -2.16,-0.42 l -1.28,-0.82 7,-27.75 c -2.98,-14 -0.89,-27.49 7.24,-39.11 l -1.41,-1.08 c -2.3,-11.28 -2.63,-22.15 -2.62,-34.11 0.02,-22.9 0.34,-46.12 2.11,-68.55 l 3.36,-0.65 1.42,-1.55 c 7.87,0.36 15.68,1.29 23.44,2.77 -6.67,-3.94 -15.34,-4.59 -22.98,-4.91 l -1.16,-1.36 c -2.09,0.51 -3.29,0.24 -3.59,-0.82 l 1.38,-8.44 c -0.21,-2.09 0.29,-3.56 1.49,-4.42 z"
       id="path10" />
    <path
       class="cls-8"
       d="m 25.24,122.89 c 0.57,4.1 -0.89,7.99 -1.36,11.97 -0.28,2.36 0.13,1.71 2.08,1.71 l -0.14,0.98 c -4.36,1.81 -4.88,2.69 -1.55,2.66 l 0.97,1.4 c -0.87,0.87 -2.02,0.17 -2.22,1.75 -0.85,6.92 -0.15,14.01 -1.41,20.9 1.12,21.72 -1.39,44.74 0,66.3 0.31,4.88 2.48,10.98 2.19,15.45 -0.2,0.63 -0.44,0.62 -0.72,0 -1.49,-1.39 -5.5,-0.2 -6.39,-0.81 -0.33,-0.22 -1.86,-6.55 -2.06,-7.66 -5.42,-30.33 -0.68,-64.35 0.52,-94.85 0.11,-2.77 -0.53,-19.45 1.19,-19.83 2.88,-0.15 6.07,0.32 8.9,0.04 z"
       id="path12" />
    <path
       class="cls-8"
       d="m 10.84,313.69 c -3.02,-0.81 -5.05,-1.91 -5.11,-5.38 -0.11,-7.04 5.34,-17.89 5.83,-25.23 0.26,-3.92 -1.2,-7.05 -1.47,-10.76 -0.42,-5.77 0.61,-19.63 6.5,-22.35 2.39,-1.11 6.21,-0.52 6.49,-3.95 h 0.72 c -0.34,5.11 -1.97,5.42 -3.72,9.6 -4.31,10.28 -3.77,18.73 -2.09,29.55 l -7.14,28.54 z"
       id="path14" />
    <path
       class="cls-10"
       d="m 25.96,328.81 c -3.08,1.13 -4.88,0.38 -7.57,-1.43 -0.03,-12.38 6.89,-24.91 6.13,-37.45 3.71,0.95 4.04,2.79 4.35,6.81 0.66,8.76 -5.51,20.77 -4.74,28.87 0.12,1.26 1.28,2.15 1.83,3.2 z"
       id="path16" />
    <path
       class="cls-10"
       d="m 38.92,289.93 c 0.79,-0.33 3.28,-1.65 3.59,-1.44 2.3,9.13 -0.26,18.61 -0.71,27.72 -0.24,4.82 -1.39,12.43 5.03,13.31 -0.83,1.34 -0.3,2.99 -3.16,2.87 -7.13,-0.31 -6.5,-6.46 -6.19,-11.86 0.51,-9.09 3.78,-18.19 2.91,-27.4 -0.13,-1.35 -0.62,-2.21 -1.47,-3.2 z"
       id="path18" />
    <path
       class="cls-8"
       d="m 82.12,290.65 c 1.52,4.31 -1.34,4.84 -5.23,4.15 -7.06,-1.25 -11.56,-14.74 -17.81,-18.55 -0.63,-0.2 -0.62,-0.44 0,-0.72 1.25,-0.11 3.13,-1.39 4.71,-1.35 6.39,0.19 10.14,15.95 18.33,16.47 z"
       id="path20" />
    <path
       class="cls-6"
       d="m 61.24,323.77 c -1.72,1.28 -2.8,2.11 -5.09,1.13 -0.59,-3.57 -1.25,-8.48 -1.42,-12.26 -0.17,-3.78 0.95,-18.64 -1.03,-20.57 -1.09,-1.07 -2.65,-0.71 -3.98,-0.7 1.22,-2.05 5.59,-0.14 6.88,1.4 4.53,5.37 2.29,23.87 4.64,31 z"
       id="path22" />
    <path
       class="cls-1"
       d="m 59.08,275.53 v 0.72 c -3.85,-0.26 -8.09,0.37 -11.87,0 -3.78,-0.37 -6.89,-2.46 -10.82,-2.17 -2.06,0.15 -0.77,1.78 -1.07,2.9 -1.06,-0.81 -3.05,-0.7 -2.85,-3.26 0.48,-5.99 11.59,0.23 14.91,0.92 3.32,0.69 8.35,1.2 11.7,0.9 z"
       id="path24" />
    <path
       class="cls-4"
       d="m 25.24,141.61 c -1.42,0.13 -2.9,-0.08 -4.32,0 -1.14,-3.71 1.89,-4.67 5.04,-5.04 4.93,-0.59 18.67,1.55 23.08,3.92 4.63,2.5 4.62,4.34 -0.99,3.69 -8.92,-1.03 -12.99,-3.46 -22.8,-2.57 z"
       id="path26" />
    <path
       class="cls-9"
       d="m 12.28,10.57 -3.6,3.6 c 2.08,-3.07 1.45,-1.78 3.6,-3.6 z"
       id="path28" />
    <path
       class="cls-12"
       d="m 39.64,5.53 c 20.72,3.68 23.61,22.13 24.12,40.14 -0.39,10.82 -0.55,21.62 -0.49,32.4 l -1.32,1.61 -2.47,1.28 c -10.42,-0.11 -20.83,0.39 -31.21,1.5 l -2.31,-1.34 c -1.12,0.49 -4.25,1.11 -5.23,0.75 C 19.06,81.25 17.97,51.99 17.9,47.32 17.69,33.53 19.29,16.07 30.28,6.96 33.11,6.26 36.72,5.59 39.64,5.52 Z"
       id="path30" />
    <path
       class="cls-14"
       d="m 30.28,6.97 c -0.95,3.4 -3.74,5.7 -5.32,8.72 -4.31,8.22 -5.04,17.03 -5.47,26.21 -0.63,13.4 0.83,26.06 2.15,39.24 1.43,-0.03 2.89,0.05 4.32,0 0.63,0.2 0.62,0.44 0,0.72 0.03,0.56 0.01,1.41 -0.38,1.53 -1.61,0.49 -13.68,2.7 -14.93,2.6 L 9.4,84.75 C 9.73,58.69 -6.39,16.07 30.28,6.97 Z"
       id="path32" />
    <path
       class="cls-2"
       d="m 39.64,5.53 c 12.77,-0.3 26.03,13.11 28.48,25.16 3.31,16.28 -1.05,32.7 -1.12,49 -0.22,2.49 -2.7,3 -3.6,0.72 C 62.75,80.24 62.27,80 61.96,79.69 60.16,60.3 67.81,28.08 52.63,13.06 49.26,9.72 43.92,7.38 39.64,5.53 Z"
       id="path34" />
    <path
       class="cls-12"
       d="m 50.44,102.73 c 2.56,-0.31 14.34,-1.14 15.85,0.01 0.6,0.46 3.21,10.83 -1.45,7.91 -13.69,-1.08 -28.24,4.02 -41.76,5.76 -3.9,0.25 -3.93,-7.56 -1.44,-9.36 -0.48,-1.9 1.58,-3 2.88,-1.44 0.44,-0.47 0.89,-0.92 1.41,-1.29 3.68,-2.61 19.85,-3.56 24.51,-1.59 z"
       id="path36" />
    <path
       class="cls-11"
       d="m 25.96,81.85 1.7,0.07 c 1.1,1.06 0.08,19.74 -0.62,21.26 -0.65,1.43 -0.93,1.72 -2.52,2.42 -0.59,0.13 -1.79,1.28 -2.88,1.44 l -0.91,1.56 C 18.14,109.23 8.86,109.03 7.96,106.32 8.15,99.13 9.31,91.93 9.4,84.72 l 16.56,-2.88 z"
       id="path38" />
    <path
       class="cls-2"
       d="m 21.64,107.05 c 0.34,3.02 -1.09,7.12 1.44,9.36 -2.26,0.29 -5.99,1.49 -8.23,1.4 -8.06,-0.33 -7.05,-5.34 -6.89,-11.48 3.86,0.76 9.83,1.3 13.68,0.72 z"
       id="path40" />
    <path
       class="cls-11"
       d="m 68.44,101.29 c 0.2,2.41 -1.72,2.78 -2.88,0.72 -3.74,-0.14 -5.5,-2.69 -5.27,-7.66 -0.47,-3.36 -1.94,-15.87 3.11,-13.94 1.15,-0.2 2.49,0.18 3.6,-0.72 -0.03,7.37 0.45,14.43 1.44,21.6 z"
       id="path42" />
    <path
       class="cls-13"
       d="m 64.84,110.65 c 2.17,0.36 1.48,-0.93 1.26,-2.33 -0.13,-0.82 -1.12,-5.34 -1.33,-5.52 -0.54,-0.47 -12.36,-0.12 -14.33,-0.07 L 51.29,101 c 4.88,-0.85 9.9,-1.06 14.27,1.01 1.04,-0.05 1.99,-0.12 2.88,-0.72 0.27,1.96 2.21,8.83 2.14,9.73 -0.16,1.97 -5.01,-0.31 -5.74,-0.37 z"
       id="path44" />
    <path
       class="cls-7"
       d="m 61.96,79.69 c 0.61,0.05 1.25,0.02 1.44,0.72 -0.62,0.11 -1.05,-0.42 -1.47,0.46 -1.26,2.67 -0.35,16.56 0.87,19.21 0.57,1.23 1.9,1.11 2.75,1.93 -4.9,0.24 -10.48,-0.79 -15.12,0.72 -8.7,0.22 -17.43,0.98 -25.92,2.88 2.13,-3.33 1.09,-6.89 1.45,-10.43 0.43,-4.25 2.46,-9.63 0,-13.33 v -0.72 c 12.9,-0.48 22.18,-2.51 36,-1.44 z"
       id="path46" />
  </g>
</svg>
