<?xml version="1.0" encoding="UTF-8"?>
<svg id="Layer_2" data-name="Layer 2" xmlns="http://www.w3.org/2000/svg" viewBox="0 0 43.2 96.57">
  <defs>
    <style>
      .cls-1 {
        fill: #06006b;
      }

      .cls-2 {
        fill: #0d0a43;
      }
    </style>
  </defs>
  <g id="Layer_1-2" data-name="Layer 1">
    <path d="M18.5.32c18.15-2.89,20.21,14.67,19.65,28.27-.67,16.03-2.05,25.72.9,42.21.84,4.67,4.32,14.32,4.15,18.19-.2,4.47-4.35,6.99-8.38,7.5-3.24.4-5.56-.66-8.54-.69-6.94-.07-13.82.24-20.73.58-9.11-1.62-4.31-16.05-4.09-22.46s.17-13.21,0-19.49C.97,37.24-6.55,4.31,18.5.32Z"/>
    <path class="cls-1" d="M25.88,6.62c4.6,2.81,5.24,8.32,4.75,13.25-3.44,21.55-.79,42.85,4.2,64.16.79,2.81.44,5.07-1.04,6.77-6.59.49-13.83-.22-20.53-.03-2.05.06-4.01,1.04-6.09.75-.73-2.15-.54-4.69.59-7.62.55-14.61.15-29.24-1.19-43.89-.22-12.93.41-23.72,9.24-33.38,2.99-1.26,4.61-2.07,8.17-1.29,1.12.24,1.48,1.1,1.91,1.29Z"/>
    <path class="cls-2" d="M15.81,6.62c-.12,4.39-4.19,7.57-5.57,11.34-5.26,14.4.5,47.08-.88,64.59-.25,3.14-1.13,6.04-2.18,8.97-.65-.09-1.41,0-1.82-.67-1.39-2.26.99-13.48,1.13-16.92.24-5.75.16-12.27,0-18.05C6.08,41.26-1.17,13.76,15.81,6.62Z"/>
    <path class="cls-2" d="M33.8,90.79c.11-12.02-4.85-24.6-5.75-36.34-.54-7.1-.29-16.54-.04-23.76.29-8.16,3.83-16.61-2.13-24.07,2.83,1.26,4.14,1.62,5.4,5.03,3.03,8.22.53,18.06.32,26.23-.31,12.14.25,23.14,2.4,35.07.57,3.14,5.02,15.79,2.69,17.53-.74.55-2.03.25-2.91.31Z"/>
  </g>
</svg>