<?xml version="1.0" encoding="UTF-8" standalone="no"?>
<svg
   id="Layer_2"
   data-name="Layer 2"
   viewBox="0 0 338.29543 702.47557"
   version="1.1"
   sodipodi:docname="Human_06Asset 1.svg"
   width="338.29544"
   height="702.47559"
   xmlns:inkscape="http://www.inkscape.org/namespaces/inkscape"
   xmlns:sodipodi="http://sodipodi.sourceforge.net/DTD/sodipodi-0.dtd"
   xmlns="http://www.w3.org/2000/svg"
   xmlns:svg="http://www.w3.org/2000/svg">
  <sodipodi:namedview
     id="namedview282"
     pagecolor="#ffffff"
     bordercolor="#000000"
     borderopacity="0.25"
     inkscape:showpageshadow="2"
     inkscape:pageopacity="0.0"
     inkscape:pagecheckerboard="0"
     inkscape:deskcolor="#d1d1d1" />
  <defs
     id="defs4">
    <style
       id="style2">
      .cls-1 {
        fill: #0c0b0b;
      }

      .cls-2 {
        fill: #757575;
      }

      .cls-3 {
        fill: #525252;
      }

      .cls-4 {
        fill: #00766d;
      }

      .cls-5 {
        fill: #c1bd84;
      }

      .cls-6 {
        fill: #a39f63;
      }

      .cls-7 {
        fill: #a49d38;
      }

      .cls-8 {
        fill: #c6c288;
      }

      .cls-9 {
        fill: #e6c3ae;
      }

      .cls-10 {
        fill: #727272;
      }

      .cls-11 {
        fill: #b3af7b;
      }

      .cls-12 {
        fill: #a7a7a7;
      }

      .cls-13 {
        fill: #a39c34;
      }

      .cls-14 {
        fill: #080808;
      }

      .cls-15 {
        fill: #b2ac58;
      }

      .cls-16 {
        fill: #626262;
      }

      .cls-17 {
        fill: #1e1e1e;
      }

      .cls-18 {
        fill: #3a3835;
      }

      .cls-19 {
        fill: #aaa9a9;
      }

      .cls-20 {
        fill: #090909;
      }

      .cls-21 {
        fill: #0c0c0b;
      }

      .cls-22 {
        fill: #9b9b9b;
      }

      .cls-23 {
        fill: #c0bb7d;
      }

      .cls-24 {
        fill: #c3bf84;
      }

      .cls-25 {
        fill: #8d8a5d;
      }

      .cls-26 {
        fill: #78675c;
      }

      .cls-27 {
        fill: #b8b36d;
      }

      .cls-28 {
        fill: #a29b34;
      }

      .cls-29 {
        fill: #e2e2e2;
      }

      .cls-30 {
        fill: #00766e;
      }

      .cls-31 {
        fill: #f2f2f2;
      }

      .cls-32 {
        fill: #a39c37;
      }

      .cls-33 {
        fill: #404040;
      }

      .cls-34 {
        fill: #bdb975;
      }

      .cls-35 {
        fill: #1f1f1f;
      }

      .cls-36 {
        fill: #e8c5af;
      }

      .cls-37 {
        fill: #bdb97a;
      }

      .cls-38 {
        fill: #f1f1f1;
      }

      .cls-39 {
        fill: #c0bc82;
      }

      .cls-40 {
        fill: #c4c086;
      }

      .cls-41 {
        fill: #eac6b0;
      }

      .cls-42 {
        fill: #aaa447;
      }

      .cls-43 {
        fill: #474747;
      }

      .cls-44 {
        fill: #26251c;
      }

      .cls-45 {
        fill: #c3a593;
      }

      .cls-46 {
        fill: #1a1a1a;
      }

      .cls-47 {
        fill: #a49d39;
      }

      .cls-48 {
        fill: #a8a8a8;
      }

      .cls-49 {
        fill: #2d2c22;
      }

      .cls-50 {
        fill: #1b1b1b;
      }

      .cls-51 {
        fill: #c2b49d;
      }

      .cls-52 {
        fill: #121110;
      }

      .cls-53 {
        fill: #a59e3a;
      }

      .cls-54 {
        fill: #a39c35;
      }

      .cls-55 {
        fill: #b4af5d;
      }

      .cls-56 {
        fill: #dedede;
      }

      .cls-57 {
        fill: #beba7a;
      }

      .cls-58 {
        fill: #008c82;
      }

      .cls-59 {
        fill: #0a0a09;
      }

      .cls-60 {
        fill: #008b81;
      }

      .cls-61 {
        fill: #a9a9a9;
      }

      .cls-62 {
        fill: #e9c5b0;
      }

      .cls-63 {
        fill: #949494;
      }

      .cls-64 {
        fill: #ababab;
      }

      .cls-65 {
        fill: #00776e;
      }

      .cls-66 {
        fill: #0a0909;
      }

      .cls-67 {
        fill: #016d65;
      }

      .cls-68 {
        fill: #a49d37;
      }

      .cls-69 {
        fill: #0a0a0a;
      }

      .cls-70 {
        fill: #d8c7b1;
      }

      .cls-71 {
        fill: #a8a244;
      }

      .cls-72 {
        fill: #fefefe;
      }

      .cls-73 {
        fill: #c0bc80;
      }

      .cls-74 {
        fill: #a7a145;
      }

      .cls-75 {
        fill: #a1a1a1;
      }

      .cls-76 {
        fill: #dbc9b4;
      }

      .cls-77 {
        fill: #f0dcc7;
      }

      .cls-78 {
        fill: #a8a365;
      }

      .cls-79 {
        fill: #787878;
      }

      .cls-80 {
        fill: #dcbca7;
      }

      .cls-81 {
        fill: #fdfdfd;
      }

      .cls-82 {
        fill: #f1ddc8;
      }

      .cls-83 {
        fill: #00786f;
      }

      .cls-84 {
        fill: #818181;
      }

      .cls-85 {
        fill: #2e2e2e;
      }
    </style>
  </defs>
  <g
     id="Layer_1-2"
     data-name="Layer 1"
     transform="translate(-0.00572905,-0.05622914)">
    <path
       class="cls-72"
       d="m 217.33,638.61 c 0.43,0.42 1.92,0.51 2.11,0.78 0.54,0.78 -2.01,4.74 0.42,7.85 1.96,2.5 4.28,0.86 5.3,1.54 0.7,0.47 0.16,4.31 3.35,4.94 6.21,1.22 20.79,-7.97 29.86,-7.91 l 2.64,-1.08 c 2.53,-0.19 10.72,21.48 10.08,25.05 -0.14,0.79 -0.64,1.42 -1.21,1.95 -15.74,13.43 -41.88,9.41 -59.04,0.72 -0.68,-0.57 -1.4,-1.24 -1.62,-2.13 -1.57,-6.17 -0.57,-20.48 1.68,-26.57 0.83,-2.23 4,-7.38 6.42,-5.14 z"
       id="path6" />
    <path
       class="cls-72"
       d="m 115.81,649.41 c 1.12,-4.05 4.27,0.26 5.83,2.43 3.54,4.94 5.72,11.35 5.76,17.43 l -1.5,1.02 c -0.75,0.33 -2.26,1.94 -3.57,2.55 -17.17,7.96 -36.75,11.49 -54.03,1.77 l -1.34,-1.43 c -0.2,-6.43 1.18,-18.1 4.02,-23.78 1.3,-2.59 3.65,-6.95 6.68,-6.46 1.11,2.19 -0.58,4.21 0.15,6.69 1.61,5.51 10.65,0.16 14.62,-0.2 3.62,-0.33 8.47,0.38 12.22,0.72 3.37,0.31 6.92,2.2 10.02,0.61 0.64,-0.33 0.9,-1.19 1.15,-1.35 z"
       id="path8" />
    <path
       class="cls-72"
       d="m 269.17,680.37 c 3.86,0.25 2.59,8.73 0,10.8 -13.31,7.69 -41.94,5.41 -54.72,-2.88 -2.55,-1.82 -5.76,-7.49 -1.44,-7.92 18.14,7.9 38.13,9.12 56.16,0 z"
       id="path10" />
    <path
       class="cls-72"
       d="m 123.73,678.93 c 2.4,0.83 2.08,7.98 0,9.36 -16.65,6.68 -36.7,6.75 -53.28,0 -2.15,-1.71 -6.16,-6.35 -2.88,-7.92 17.95,9.41 38.32,6.74 56.16,-1.44 z"
       id="path12" />
    <path
       class="cls-81"
       d="m 110.05,619.17 c 1.99,1.57 0.99,8.65 -1.44,9.36 -4.78,-3.56 -18.52,-3.62 -23.76,-1.44 -3.42,0.03 -2.74,-5.89 -0.72,-7.92 6.37,-2.89 19.66,-3.11 25.92,0 z"
       id="path14" />
    <path
       class="cls-81"
       d="m 247.57,617.01 c 2.24,0.78 1.53,8.03 -0.72,8.64 -8.15,-0.86 -18.77,-3.24 -25.92,2.16 -2.83,2.56 -5.4,-3.35 -3.6,-5.76 6,-4.19 22.95,-5.64 30.24,-5.04 z"
       id="path16" />
    <path
       class="cls-64"
       d="m 269.89,671.73 c -0.69,-5.96 -1.76,-10.83 -4.19,-16.33 -0.64,-1.45 -4.59,-8.94 -5.34,-9.44 -0.57,-0.38 -1.34,-0.15 -1.99,-0.15 6.2,-3.16 -0.91,-5.17 0.36,-9.36 7.85,5.6 13.97,21.99 14.07,31.36 0.04,4.04 -1.56,2.76 -2.91,3.91 z"
       id="path18" />
    <path
       class="cls-64"
       d="m 78.37,640.05 c -0.45,0.96 -0.87,1.76 -0.72,2.88 -9.04,7.54 -8.49,20.92 -9.36,31.68 -1.18,-0.67 -4.62,-2.26 -4.97,-3.37 0.88,-7.72 2.39,-16.78 6.54,-23.5 2.08,-3.38 5.2,-5.44 7.79,-8.41 1.01,-0.95 1.38,-0.55 0.72,0.72 z"
       id="path20" />
    <path
       class="cls-64"
       d="m 115.81,649.41 1.07,-7.19 c 8.84,7.58 13.33,16.21 13.32,28.07 -1.49,-0.79 -2.79,-0.67 -4.31,0 0.63,-6.41 -3.01,-15.61 -7.55,-20.17 -1.24,-1.25 -1.02,-1.67 -2.53,-0.71 z"
       id="path22" />
    <path
       class="cls-64"
       d="m 216.61,636.45 c 0.28,0.5 0.21,1.66 0.72,2.16 -3.76,0.86 -5.69,6.58 -6.3,9.9 -1.41,7.75 -0.85,16.14 -0.18,23.94 -0.93,-0.47 -4.18,-1.21 -4.35,-1.91 0.16,-9.15 -0.96,-18.04 2.78,-26.66 1.45,-3.36 4.26,-5.92 5.9,-8.86 0.76,-0.86 1.24,-0.38 1.44,1.44 z"
       id="path24" />
    <path
       class="cls-64"
       d="m 123.73,678.93 c 1.4,-0.64 4.87,-3.55 6.11,-3.61 2.56,6.78 0.28,10.41 -6.11,12.97 z"
       id="path26" />
    <path
       class="cls-61"
       d="m 269.17,680.37 c 0.79,-0.4 4.45,-3.55 5.04,-2.88 0.3,7.76 2.32,9.42 -5.04,13.68 0.47,-3.34 1.7,-7.7 0,-10.8 z"
       id="path28" />
    <path
       class="cls-48"
       d="m 110.05,619.17 c 7.96,3.96 3.64,6.1 2.15,12.96 -0.63,0.49 -3.13,-3.25 -3.59,-3.6 z"
       id="path30" />
    <path
       class="cls-48"
       d="m 247.57,617.01 c 1.18,0.1 2.87,0.35 3.97,0.7 0.94,0.3 1.15,-0.58 1.08,1.07 -0.06,1.32 -1,6.08 -1.78,6.88 -1.62,1.65 -2.82,0.1 -3.98,-0.02 l 0.72,-8.64 z"
       id="path32" />
    <path
       class="cls-48"
       d="m 67.57,680.37 c -0.01,3.49 2.56,5.28 2.88,7.92 -6.28,-2.55 -8.03,-2.9 -7.19,-10.8 0.33,-0.44 3.78,2.6 4.31,2.88 z"
       id="path34" />
    <path
       class="cls-48"
       d="m 213.01,680.37 c -1.79,2.04 0.84,5.6 1.44,7.92 -1.67,-1.09 -4.55,-1.81 -5.79,-3.93 -0.44,-0.74 -2.62,-7.5 -0.35,-6.86 1.41,0.4 3.5,2.34 4.7,2.86 z"
       id="path36" />
    <path
       class="cls-48"
       d="m 96.37,642.21 c 4.03,-0.09 9.14,-0.31 11.52,3.59 -4.69,-0.02 -8.92,-0.87 -13.68,-0.71 -1.38,-1.14 -0.66,-2.1 2.16,-2.88 z"
       id="path38" />
    <path
       class="cls-12"
       d="m 84.85,627.09 c -1.3,0.54 -2.84,3.02 -4.31,3.6 0.36,-5.03 -1.79,-9.08 3.59,-11.52 0.34,2.49 -0.84,5.97 0.72,7.92 z"
       id="path40" />
    <path
       class="cls-19"
       d="m 217.33,622.05 c 0.72,1.82 1.5,6.06 3.6,5.76 -0.45,0.34 -3.35,3.76 -3.6,4.32 -0.21,0.6 -0.45,0.59 -0.72,0 0.53,-4.26 -3.82,-6.91 0.72,-10.08 z"
       id="path42" />
    <path
       class="cls-31"
       d="m 96.37,642.21 -2.16,2.88 c -3.72,0.12 -6.51,0.62 -10.08,1.43 0.55,-0.71 0.53,-2.4 0.87,-2.72 0.64,-0.6 9.67,-1.55 11.37,-1.59 z"
       id="path44" />
    <path
       class="cls-56"
       d="m 256.93,640.05 c -0.92,1.48 -7.02,2.75 -8.44,2.69 -1.42,-0.06 -2.77,-2.09 -4.52,-1.99 0.32,-1.25 3.66,-1.45 4.66,-1.47 2.96,-0.04 5.42,0.68 8.3,0.76 z"
       id="path46" />
    <path
       class="cls-29"
       d="m 89.89,636.45 c 1.7,-0.61 4.67,-0.51 2.88,1.44 -1.26,0.23 -8.34,1.76 -8.64,1.44 -0.2,-0.21 -0.27,-1.74 0.47,-2.17 1.19,-0.69 3.89,-0.52 5.28,-0.71 z"
       id="path48" />
    <path
       class="cls-22"
       d="m 240.37,645.09 -9.35,3.59 c 0.75,-3.71 6.52,-3.68 9.35,-3.59 z"
       id="path50" />
    <path
       class="cls-75"
       d="m 89.89,636.45 c 0.19,-0.03 0.8,-0.66 1.74,-0.75 2.24,-0.2 4.63,0.19 6.89,0.03 0.47,2.3 -4.39,1.91 -5.76,2.16 -0.37,-1.32 -1.62,-1.56 -2.88,-1.44 z"
       id="path52" />
    <path
       class="cls-63"
       d="m 229.57,639.33 c 0.56,0.21 0.55,0.45 0,0.72 -1.56,0.94 -3.09,1.97 -4.68,2.88 -1.78,-2.9 2.71,-2.78 4.68,-3.6 z"
       id="path54" />
    <path
       class="cls-43"
       d="m 103.57,630.69 c -0.66,1.54 -5.43,1.01 -5.76,-0.72 z"
       id="path56" />
    <path
       class="cls-33"
       d="m 93.49,630.69 -5.75,1.43 c 0.73,-1.88 4.15,-1.37 5.75,-1.43 z"
       id="path58" />
    <path
       class="cls-3"
       d="m 216.61,636.45 c -0.28,-0.51 -1.02,-0.98 -1.44,-1.44 0.37,-0.66 1.38,-2.37 1.44,-2.88 h 0.72 c -0.55,1.21 -0.7,2.97 -0.72,4.32 z"
       id="path60" />
    <path
       class="cls-84"
       d="m 229.57,639.33 c 0.76,-0.31 2.22,-1.77 3.25,-2.15 1.48,1.58 -1.9,2.06 -3.25,2.87 z"
       id="path62" />
    <path
       class="cls-2"
       d="m 78.37,640.05 -0.72,-0.72 c 0.62,-0.71 1.04,-1.96 2.15,-2.16 0.76,1.84 -1.27,2.53 -1.43,2.88 z"
       id="path64" />
    <rect
       class="cls-16"
       x="229.57001"
       y="629.96997"
       width="5.0300002"
       height="0.70999998"
       id="rect66" />
    <path
       class="cls-10"
       d="m 236.05,637.16 c -1.52,1.55 -4.1,-0.05 -0.35,-1.43 0.62,-0.09 0.41,1.37 0.35,1.43 z"
       id="path68" />
    <path
       class="cls-85"
       d="m 115.81,640.04 c -1.36,0.24 -2.4,-0.84 -2.15,-2.15 z"
       id="path70" />
    <path
       class="cls-79"
       d="m 226.69,632.13 c 0.74,0.35 -1.94,1.72 -2.88,1.43 0.35,-1.38 1.59,-1.62 2.88,-1.43 z"
       id="path72" />
    <path
       class="cls-35"
       d="m 69.73,504.69 0.8,-1.78 c 1.31,-0.31 4.89,-1.24 5.2,-2.58 3.28,-26.69 8.17,-53.36 15.95,-79.32 3.17,-0.32 6.3,0.15 9.4,1.41 38.3,17.82 83.07,15.7 123.56,6.7 5.48,-1.93 10.93,-3.87 16.35,-5.83 5.29,21.8 10.57,43.55 15.83,65.25 l -0.47,1.38 c -4.12,3.7 -4.58,7.1 -1.37,10.21 l -0.22,1.68 c 0.35,0.22 0.35,0.46 0,0.72 -0.29,0.56 -0.61,1.1 -1,1.58 -2.86,3.51 -19.4,8.54 -24.72,9.81 -5.92,1.42 -24.59,5.07 -29.3,3.76 -0.64,-0.18 -1.25,-0.45 -1.86,-0.75 -2.55,0.48 -5.16,0.58 -7.82,0.32 -1.18,1.72 -3.9,1.37 -5.14,-0.32 -2.39,0.58 -4.07,0.34 -5.04,-0.72 -0.03,-0.48 0.03,-0.96 0,-1.44 l 1.34,-1.02 c 5.3,1.7 6.99,-2.49 6.61,-7.04 -2.14,-19.68 -6.03,-39.08 -11.65,-58.21 0,-1.02 0.28,-1.97 0.82,-2.85 -0.29,-1.28 1.91,-0.58 -1.44,-3.6 -16.91,-4.35 -25.02,-5.29 -29.41,14.18 -3.96,17.56 -7.3,38.82 -5,56.5 l -0.87,1.32 c 0.03,2.15 -1.17,2.63 -3.6,1.44 -0.43,0.39 -0.87,0.76 -1.37,1.05 -3.52,2.03 -22.51,0.07 -27.84,-0.56 -10.08,-1.19 -21.27,-2.53 -29.84,-7.69 -1.36,2.07 -8.13,-1.37 -7.92,-3.6 z"
       id="path74" />
    <path
       class="cls-50"
       d="m 69.01,504.69 c 0.53,-6.28 1.37,-12.71 2.28,-18.96 3.64,-24.87 9.33,-48.66 17.17,-72.48 13.26,4.84 26.19,8.36 40.18,10.57 19.39,3.07 37.83,2.74 57.37,0.94 20.55,-1.9 38.46,-7.51 56.85,-16.58 5.98,10.62 9.05,22.67 11.56,34.57 4.06,19.21 7.61,40.19 8.99,59.77 -1.88,2.78 -7.57,2.8 -8.64,-0.72 -1.61,-1.04 -3.56,-4.22 -3.52,-6.13 0.07,-3.51 4.68,-5.17 4.2,-8.51 -5.48,-20.93 -11.37,-41.77 -15.09,-63.12 -9.79,6.14 -21.6,8.15 -32.87,9.96 -25.18,4.05 -58.43,4.96 -83.19,-1.53 -10.83,-2.84 -20.63,-9.03 -31.83,-10.62 -3.49,16.01 -8.15,31.96 -11,48.12 -1.81,10.23 -2.29,20.65 -4.4,30.83 -1.64,2.94 -4.63,2.83 -7.33,3.88 -0.2,0.63 -0.44,0.62 -0.72,0 z"
       id="path76" />
    <path
       class="cls-50"
       d="m 175.57,442.05 -23.05,1.07 c -2.34,2.44 -0.78,4.4 2.16,5.04 -1.94,5.84 -3.35,12.01 -4.22,18.1 -2.45,17.32 -3.84,32.55 -3.69,49.95 -0.62,2.49 -6.36,0.04 -6.48,-2.16 -1.03,-1.54 -1.34,-2.8 -1.48,-4.65 -0.99,-13.35 2.71,-36.67 5.3,-50.21 1.21,-6.29 2.26,-12.71 6.98,-17.5 4.03,-4.09 8.53,-3.68 14.06,-3.28 4.26,0.32 7.2,0.73 10.41,3.63 z"
       id="path78" />
    <path
       class="cls-35"
       d="m 264.13,513.33 c -0.07,1.94 0.44,3.61 -0.67,5.45 -0.9,1.51 -8.55,5.68 -10.59,6.68 -10.62,5.25 -25.23,8.56 -36.96,10.56 -12.22,2.08 -23.18,2.59 -35.2,-1.19 -0.3,-1.63 -0.01,-3.3 -0.09,-4.95 1.14,-0.96 2.84,-1.16 5.09,-0.58 2.34,-0.44 4.25,-0.25 5.71,0.58 l 2.66,-1.56 c 20.7,-0.48 40.75,-4.24 59.82,-12.44 l 3.05,0.32 c 0.57,-2.62 5.02,-4.53 7.2,-2.88 z"
       id="path80" />
    <path
       class="cls-35"
       d="m 79.09,521.97 3.81,-0.39 c 16.51,4.78 33.72,6.58 50.87,5.63 l 3.63,1.24 c 0.57,-2.2 7.13,-1.86 8.64,-0.72 0.94,2.58 -1.14,4.24 -6.26,4.98 -1.03,1.48 -2.07,2.7 -3.1,3.66 -20.45,3.63 -43.72,2.04 -61.92,-8.64 -0.31,-2.14 -1.16,-3.94 -2.54,-5.4 l 0.38,-1.8 c 1.17,-1.97 6.43,-0.75 6.48,1.44 z"
       id="path82" />
    <path
       class="cls-50"
       d="m 179.89,514.77 c -1.25,-19.58 -0.8,-36.07 -4.55,-55.57 -0.48,-2.49 -2.83,-10.16 -2.69,-11.7 0.05,-0.53 3.6,-0.96 4.35,-1.84 4.19,18.65 11.95,43.25 12.3,62.28 0.11,5.87 -3.68,9.35 -9.42,6.84 z"
       id="path84" />
    <path
       class="cls-4"
       d="m 77.65,508.29 c 8.11,2.34 7.38,9.99 1.44,13.68 -1.99,-0.6 -4.78,-0.83 -6.48,-1.44 -4.38,2.95 -5.5,-3.63 -4.32,-7.2 0.05,-2.89 0.48,-5.76 0.72,-8.64 h 0.72 c 2.37,0.92 5.69,2.89 7.92,3.6 z"
       id="path86" />
    <path
       class="cls-4"
       d="m 197.89,516.93 c 0.33,2.09 -1.54,2.8 -5.61,2.15 1,3.32 1.38,6.87 0.73,10.3 l -1.61,0.51 c -0.13,0 -1.17,0.71 -2.43,0.77 -2.64,0.13 -5.98,0.28 -8.37,-0.77 -0.21,-4.1 -0.47,-8.15 -0.72,-12.24 1.4,-0.58 3.08,-0.82 5.04,-0.72 4.17,-0.35 8.74,0.25 12.96,0 z"
       id="path88" />
    <path
       class="cls-4"
       d="m 146.77,516.21 c 0.03,3.73 0.24,7.85 0,11.52 -0.2,0.63 -0.44,0.62 -0.72,0 -2.63,1.33 -5.78,0.54 -8.64,0.72 -6.96,-0.43 -3.01,-14.31 0.02,-12.28 0.05,0.03 -0.61,0.31 -0.74,-0.68 0.56,-0.04 3.15,-1.43 3.6,-1.44 1.15,-0.02 4.7,2.11 6.48,2.16 z"
       id="path90" />
    <path
       class="cls-30"
       d="m 263.41,502.53 c 0.26,3.73 0.86,6.94 0.72,10.8 -2.47,0.75 -4.82,1.9 -7.2,2.88 -6.25,0.09 -7.5,-7.17 -3.07,-11.04 0.04,-0.99 0.35,-1.87 0.91,-2.64 v -0.72 c 3.08,2 5.32,0.83 8.64,0.72 z"
       id="path92" />
    <path
       class="cls-50"
       d="m 72.61,520.53 c 1.87,2.4 4.23,3.82 2.16,7.2 -1.54,-0.9 -6.57,-3.31 -7.08,-4.8 -0.58,-1.68 -0.41,-7.8 0.6,-9.6 -0.08,4.55 -0.41,5.51 4.32,7.2 z"
       id="path94" />
    <path
       class="cls-46"
       d="m 146.77,527.73 c -0.16,2.42 -0.92,4.74 -0.73,7.19 -3.17,0.07 -6.26,0.9 -9.35,1.45 -0.27,-5.12 3.78,-5.63 7.62,-6.46 1.87,-0.4 1.97,0.65 1.74,-2.18 z"
       id="path96" />
    <path
       class="cls-60"
       d="m 184.93,516.93 c -0.97,0.08 -3.26,1.45 -5.04,0.72 -0.03,-0.48 0.03,-0.96 0,-1.44 z"
       id="path98" />
    <path
       class="cls-58"
       d="m 256.93,516.21 c -25.1,10.27 -38.27,12.55 -65.52,13.68 1,-3.43 0.42,-9.3 -1.44,-12.23 2.01,-0.18 4.21,0.24 6.18,0.02 0.93,-0.11 1.58,-0.73 1.74,-0.75 8.17,-0.98 16.52,-1.62 24.63,-3.09 11.58,-2.09 21.81,-5.97 32.25,-11.31 1.89,3.43 -0.67,3.83 -1.62,5.94 -1.87,4.14 1.08,5.36 3.78,7.74 z"
       id="path100" />
    <path
       class="cls-58"
       d="m 136.69,515.49 c 2.47,-0.14 1.16,0.37 0.43,1.51 -3.49,5.51 -3.1,5.64 0.29,11.45 -20.99,1.35 -38.19,-0.4 -58.32,-6.48 -1.52,-2 1.21,-1.39 2.21,-3.91 0.72,-1.82 1.22,-6.05 -0.22,-7.45 -0.79,-0.77 -4.54,-0.57 -3.44,-2.32 17.45,5.57 40.77,8.48 59.04,7.2 z"
       id="path102" />
    <path
       class="cls-14"
       d="m 113.65,22.29 c -2.21,-0.37 -1.13,0.6 -1.44,1.76 -0.49,1.8 -0.96,3.63 -1.43,5.44 2.02,-1.36 2,-5.03 2.87,-7.19 z m 12.95,139.68 c -1.79,-1.93 -1.45,3.17 -1.35,3.88 1.83,14.18 16.1,28.94 27.35,36.73 1.83,1.27 10.1,6.76 11.49,7.26 2.54,0.91 6.83,-2.07 5.28,-3.28 -0.95,-0.74 -4.13,-1.5 -5.58,-2.21 -18.19,-9.01 -27.33,-17.56 -35.57,-36.43 -0.57,-1.31 -1.41,-5.72 -1.62,-5.95 z M 170.53,203 c 0.08,0.11 2.24,0.7 2.55,0.69 2.35,-0.12 10.68,-11.59 12.44,-14.13 3.85,-5.59 9.81,-15.12 11.66,-21.48 0.36,-1.22 1.15,-1.43 -0.38,-2.5 -6.34,10.09 -10.6,20.39 -18.71,29.53 -1.95,2.2 -4.4,3.92 -6.36,5.88 -0.46,0.46 -1.93,1.06 -1.2,2.03 z m 84.96,46.81 c 4.2,-1.5 8.74,-2.73 13.07,-3.85 1.56,-0.4 5.22,-0.18 5.57,-1.6 -2.53,-15.76 -5.11,-44.16 -19.12,-54.18 -5.61,-4.02 -18.94,-8.83 -25.78,-10.94 -9.01,-2.78 -18.67,-3.4 -27,-7.91 -5.16,11.99 -12.66,24.65 -21.59,34.22 -2.82,3.02 -11.54,11.55 -15.44,11.14 -1.26,-0.13 -13.39,-7.83 -15.35,-9.2 -14.03,-9.78 -26.47,-23.25 -30.08,-40.49 -10.92,6.59 -24.15,6.64 -36.02,10.78 -9.15,3.19 -21.4,10.96 -28.75,17.33 -15.47,13.39 -21.69,36.33 -27.02,55.42 11.1,-0.95 25.14,-1.37 36,1.44 2.42,0.63 6.11,2.71 8.63,3.6 l -0.74,-19.11 c 1.5,-3.88 0.37,-19.38 2.12,-21.63 1.39,-1.79 4.33,-1.21 4.96,0.93 0.61,11.5 -1.21,22.94 -0.6,34.44 0.58,10.99 2.93,25.7 6.31,36.17 5.82,18.06 13.65,24.12 10.9,45.05 -2.39,18.22 -8.73,37.96 -9.97,56.27 -0.24,3.6 -0.59,12.65 0,15.83 0.24,1.33 0.63,1.37 1.64,1.96 3.13,1.85 9.22,2.95 12.77,4.15 42.09,14.31 92.45,14.45 133.2,-4.32 2.04,-0.94 9.91,-3.29 10.04,-5.33 -2.93,-15.49 -5.56,-31.14 -8.93,-46.53 -1.83,-8.35 -5.02,-16.85 -6.53,-25.15 -2.11,-11.59 1.89,-17.84 4.5,-28.67 4.69,-19.51 9.68,-41.54 8.84,-61.7 -0.22,-5.37 -1.82,-11.44 -2.14,-16.58 -0.09,-1.43 -0.6,-5.51 1.65,-5.29 5.48,0.55 4.9,8.64 6.26,12.5 v 24.84 c 3.01,-0.87 5.67,-2.54 8.64,-3.6 z m -114.48,-68.4 c 1.43,2.03 2.53,4.33 4.29,6.15 2.32,2.4 16.49,12.28 19.11,12.3 4.2,0.02 11.62,-10.17 14.04,-13.41 2.6,-3.47 5.45,-6.7 7.2,-10.79 -12.77,1.57 -25.59,4.93 -38.15,0.34 -4.41,-1.61 -10.17,-6.51 -13.34,-7.54 -0.47,-0.15 -1.22,-0.14 -1.06,0.35 2.42,4.38 5.03,8.51 7.92,12.6 z m 139.68,80.63 c -1.59,-1.51 -4.24,-10.67 -5.01,-11.19 -2.88,-1.96 -25.05,6.86 -29.45,8.42 l -1.54,12.13 c 11.45,-4.97 23.53,-8.16 36,-9.36 z M 74.77,272.12 c -0.78,-2.95 -0.14,-9.05 -2.18,-11.13 -5.41,-5.55 -37.4,-8.21 -45.52,-5.42 l -2.69,7.57 c 17.29,-0.21 34.56,1.79 50.39,8.99 z m 181.44,0.73 c -2.16,0.68 -10.99,3.34 -12.06,4.5 -1.84,1.98 -2.89,13.96 -4.5,17.1 7.7,0.58 12.75,-4.28 18.72,-7.19 5.56,-2.71 12.47,-6.19 18.34,-7.94 3.39,-1.01 7.38,-1.05 10.2,-2.06 0.74,-0.27 1.3,0.32 0.92,-1.08 -0.19,-0.68 -3.56,-7.36 -3.88,-7.65 -3.32,-2.96 -22.99,2.84 -27.73,4.33 z M 67.57,275.01 C 52.86,269.23 38.76,267.6 22.93,268.53 l -1.44,9.36 c 12.77,0.55 26.85,4.9 38.88,9.37 6.76,2.51 13.22,7.86 20.88,7.19 -2.83,-3.3 -3.06,-12.85 -4.99,-15.53 -1.32,-1.83 -6.57,-3.07 -8.69,-3.91 z m -40.32,9.36 -6.48,0.71 5.4,2.87 c 1.15,-0.45 1.42,-3.23 1.08,-3.58 z m 222.48,15.12 c -3.7,1.16 -7.81,1.3 -11.51,2.51 2.5,10.28 5.68,20.46 8.14,30.74 6.78,28.33 11.55,56.24 24.59,82.69 0.93,1.89 3.52,4.59 3.85,6.28 1.14,5.71 -5.7,14.61 -5.7,21.43 0,3.1 4.46,23.01 5.91,25.11 1.13,1.63 5.44,2.89 6.47,1.46 1.18,-1.62 -0.95,-17 -0.08,-20.46 0.2,-1.65 0.45,-3.4 0.72,-5.04 2.09,-3.73 10.53,-6.42 14.27,-5.3 2.44,0.73 14.09,12.78 15.56,15.43 3.47,6.25 2.32,18.48 0.05,25.14 -1.47,4.31 -6.34,7.47 -6.12,12.24 4.42,0.75 5.63,-0.7 8.64,-2.88 1.37,-0.99 2.18,-0.82 3.49,-2.63 3.32,-4.56 12.8,-22.95 13.61,-28.14 0.73,-4.69 -1.08,-7.82 -2.81,-11.97 -4.35,-10.42 -10.95,-22.33 -17.55,-31.41 -3.76,-22.88 -3.62,-47.4 -9.34,-69.86 -3.97,-15.59 -13.19,-30.55 -17.16,-44.76 -0.75,-2.69 -1.24,-14.32 -3.1,-14.94 -4.26,-1.43 -26.09,12.52 -31.95,14.35 z m -234,198 c 1.22,2.27 3.35,6.24 6.48,4.7 3.59,-1.77 1.27,-6.69 1.37,-9.38 0.13,-3.64 0.85,-6.88 0.82,-10.83 -0.04,-4.26 -1.94,-5.42 0.55,-10.19 2.92,-5.61 19.82,-24.05 23.18,-10.3 0.3,1.22 0.64,5.9 0.75,7.53 0.36,5.62 -0.69,11.36 0.75,16.9 0.45,0.19 0.92,0.03 1.38,0.05 2.34,0.08 4.59,-0.38 5.43,-2.85 l 3.24,-29.23 c -0.58,-7.4 -9.99,-14.71 -9.74,-19.14 0.22,-3.92 6.76,-17.88 8.45,-23.12 7.28,-22.54 12.11,-46.39 14.2,-70.04 0.39,-4.39 -0.45,-9.11 0.18,-13.5 1.16,-8.06 7.12,-18.62 9.18,-26.82 -4.81,-0.52 -9.17,-1.55 -13.67,-3.23 -3.6,-1.34 -7.38,-3.69 -11.14,-5.06 -7.86,-2.86 -16.01,-5.22 -24.13,-7.19 -2.49,12.4 -0.76,25.2 -2.24,37.72 -0.55,4.64 -4.57,13.18 -6.04,18.44 -6.86,24.52 -8.93,52.65 -9,78.11 -0.02,5.56 1.37,16.5 0.67,20.85 -0.59,3.7 -5.57,11.36 -6.95,16.09 -0.95,3.24 -2.15,8.74 -2.35,12.04 -0.37,6.01 5.6,22.79 8.63,28.43 z m 248.4,-46.08 c -0.28,-1.52 -1.42,-6.98 -1.44,-7.92 -0.17,-8.31 3.6,-10.95 4.88,-17.08 1.11,-5.34 -4.72,-13.97 -6.86,-19.46 -3.41,-8.79 -7.24,-19.26 -9.9,-28.26 -6.28,-21.29 -8.74,-43.74 -15.84,-64.81 -2.55,6.03 -1.21,11.06 0.13,17.16 4.93,22.45 12.38,46.7 14.68,69.6 0.18,1.82 -0.7,3.62 -0.56,4.96 0.17,1.67 3.9,7.67 4.85,10.15 3.03,7.97 7.73,30.12 7.9,31.34 l 2.16,11.53 c 1.81,9.46 3.77,18.94 4.95,28.52 0.86,7 1.93,16.03 2.24,22.96 0.66,14.9 -3.91,15.24 -15.89,21.67 2.03,6.55 3.97,13.16 4.41,20.05 1.19,18.67 -2.18,37.01 -2.94,55.44 -0.24,5.8 1.76,6.3 2.2,10.09 0.37,3.15 -1.61,8.88 -1.33,10.04 0.15,0.62 8.19,5.98 9.94,8 9.15,10.59 13.2,33.75 13.72,47.47 0.24,6.29 -1.28,8.74 -6.16,12.62 -14.57,11.57 -54.94,8.04 -69.08,-4.32 -5.02,-4.39 -5.25,-8.39 -6.05,-14.83 -1.41,-11.28 -1.21,-27.27 4.1,-37.47 1.15,-2.22 6.18,-7.56 5.94,-9.19 -0.03,-0.23 -2.18,-1.16 -3.08,-2.78 -2.4,-4.27 -6.43,-16.01 -8.31,-21.21 -7.1,-19.67 -14.54,-41.71 -11.7,-62.82 -3.2,0.27 -11.84,-1.43 -12.82,-4.82 -1.24,-13.35 -1.14,-26.82 -2.31,-40.17 -0.8,-9.16 -2.59,-18.26 -3.59,-27.37 -0.3,-2.75 -0.48,-21.49 -2.65,-21.98 -0.56,-0.13 -3.7,-0.1 -3.83,0.04 -0.51,0.52 -1.29,12.15 -1.67,14.52 -1.94,12 -6.26,24.18 -7,36.2 -0.69,11.18 1.7,26.97 -0.14,37.3 -1.15,6.44 -11.12,5.27 -16.39,6.29 5.37,31.72 -7.59,63 -15.11,93.33 1.78,4.75 6.87,8.1 9.66,12.58 3.41,5.49 4.84,12.66 5.45,19.03 0.41,4.29 0.86,15.29 -0.31,19.11 -1.56,5.11 -15.56,9.37 -20.41,10.55 -16.04,3.89 -34.18,3.42 -49.37,-3.49 -5.02,-2.29 -9.16,-4.32 -9.83,-10.33 -1.47,-13.22 1.94,-34.2 11.13,-44.31 1.76,-1.94 5.4,-2.87 5.5,-6.08 -2.52,-24.5 -6.07,-50.24 -4.42,-74.92 0.55,-8.25 3.52,-15.16 5.85,-22.93 -3.49,-1.63 -13,-7.15 -13.72,-10.9 -0.26,-1.35 -0.1,-3.57 -0.04,-5.06 0.97,-25.61 7.02,-59.9 14.07,-84.56 0.94,-3.29 8.1,-23.26 7.46,-24.36 -0.19,-0.32 -2.45,-0.83 -3.12,-2.3 -1.55,-3.39 -0.33,-6.61 -0.34,-9.67 0,-3.97 -0.34,-8.41 -0.06,-12.3 1.42,-20.15 9.86,-43 10.82,-62.62 0.29,-5.99 -0.77,-9.32 -2.88,-14.75 -0.99,0.08 -1.14,1.05 -1.47,1.76 -6.48,14.16 -5.76,24.74 -7.26,39.54 -2.9,28.8 -10.72,57.62 -21.5,84.35 2.99,4.97 8.46,10.62 9.28,16.6 0.72,5.23 -1.9,30.11 -3.72,35.03 -2.92,7.87 -16.58,9.54 -19.21,0.14 -0.67,-2.4 -1.48,-9.07 -1.48,-11.48 v -11.16 c -4.5,3.22 -8.28,7.42 -11.38,12.05 0.12,7.25 1.82,18.67 0.41,25.59 -0.62,3.07 -4.51,6.92 -7.56,7.56 -5.56,1.16 -8.85,-1.47 -11.88,-5.79 C 9.09,500.01 0.3,477.34 0.04,473.9 c -0.33,-4.3 1.8,-14.49 3.09,-18.88 1.09,-3.7 6.7,-14.14 6.82,-16.23 0.33,-5.53 -1.54,-14.16 -1.44,-20.87 0.42,-27.43 3.85,-56.56 11.36,-82.96 1.9,-6.69 4.7,-11.27 5.22,-18.54 0.52,-7.27 -0.17,-15.34 0.76,-22.91 -0.2,-0.82 -12.29,-4.54 -12.11,-10.72 0.1,-3.44 2.37,-12.34 3.21,-16.28 5.47,-25.67 14.41,-58.67 34.06,-76.82 1.14,-1.05 4.32,-2.71 4.86,-3.47 0.42,-0.59 1.31,-1.24 2.3,-1.56 2.7,-0.89 9.55,-6.8 13,-8.66 16.73,-9.01 35.87,-6.72 50.41,-18.73 -6.63,-8.38 -14.01,-12.3 -16.93,-23.37 -0.65,-2.48 -0.6,-6.44 -1.2,-8.16 -0.18,-0.53 -4.9,-4.18 -6.01,-5.51 -4.32,-5.17 -9.19,-17.4 -9.74,-24.1 -0.59,-7.29 0.56,-20.41 10.82,-14.79 0.27,-17.6 -0.66,-41.37 7.9,-57.26 3.1,-5.75 6.75,-1.92 7.22,-2.5 0.35,-0.42 -0.37,-6.19 2.66,-7.09 3.48,-1.03 3.43,2.57 3.11,4.93 -0.23,3.15 -0.66,9 -2.88,10.8 -0.42,2.88 -1.48,5.29 -3.19,7.23 l -1.85,-0.75 c -1.29,0.97 -1.87,-0.11 -1.44,-1.44 h -1.44 c 0.28,1.76 0.36,5.26 -1.44,5.76 0.68,7.38 -0.04,14.34 -2.16,20.88 0.51,8.55 0.96,17.15 1.34,25.8 -0.5,3.02 -2.39,3.78 -5.66,2.28 -0.46,0.37 -1.07,0.66 -1.49,0.36 -4.61,-3.35 -4.85,-3.14 -4.37,3.21 1.02,3.35 1.29,6.48 0.82,9.4 l 1.76,0.78 c 3.35,10.93 3.81,9.8 1.37,-3.37 l 1.19,-1.73 c -0.64,-1.87 -0.37,-2.29 1.44,-1.44 3.46,-1.94 4.63,0.71 5.92,3.83 2.07,9.49 3.47,19.11 4.17,28.88 0.73,3.74 1.49,5.37 3.55,8.33 6.56,9.44 24.94,26.63 35.87,30.5 6.98,2.47 26.25,2.08 32.88,-1.04 4.13,-1.94 18.13,-21.49 21.25,-26.39 6.87,-10.8 8.67,-15.88 7.38,-29.07 0.39,-4.47 1.26,-13.05 6.33,-13.6 -0.52,-3.12 4.23,-1.77 2.16,0.72 3.15,1.87 2.72,5.38 0.72,7.92 0.48,0.74 0.1,1.84 -0.72,2.16 0.14,0.95 0.38,1.19 0.72,0.72 -0.47,-0.8 -0.13,-1.77 0.72,-2.16 -0.12,-2.88 0.6,-5.04 2.16,-6.48 -0.9,-2.68 -0.89,-5.82 0.01,-9.4 0.17,-5.09 0.32,-10.65 -3.42,-3.72 l -1.63,0.16 c -0.93,2.84 -4.65,4.08 -5.04,0.72 -0.45,-0.06 -0.81,-0.13 -0.82,-0.22 -0.11,-1.61 -0.67,-14.26 -0.14,-14.78 0.24,-0.24 0.58,-0.37 0.96,-0.48 -0.38,-0.09 -0.73,-0.21 -0.97,-0.44 -0.34,-0.32 -0.76,-8.22 -0.47,-9.28 -2.36,-0.81 -4.41,-1.95 -5.26,-4.42 -1.45,1.65 -3.33,1.41 -4.45,-0.45 -2.18,3.2 -4.97,3.28 -7,-0.03 -3.83,3.01 -5.97,1.14 -6.69,-3.15 -4.62,1.45 -5.71,-5.07 -3.97,-7.78 -1.21,-1.63 -1.45,-3.79 -0.72,-6.48 -3.34,-3.75 3.48,-4.73 4.45,0.45 2.62,-1.11 4.06,1.14 4.7,3.45 2.55,-0.35 4.2,-0.11 5.5,2.28 1.71,-2.73 5.24,-2.54 6.83,0.23 2.25,-1.37 3.52,-0.8 4.96,1.25 l 0.93,-0.46 c -1.36,-5.13 -2.44,-10.35 -3.23,-15.64 -3.13,-0.13 -5.96,-0.83 -4.69,-4.52 -0.97,-0.4 -1.93,-0.64 -2.88,-0.72 -0.06,2.15 -2.29,1.96 -2.88,0 -0.2,0.63 -0.44,0.62 -0.72,0 -2.19,0.69 -2.35,-0.99 -2.16,-2.88 -1.53,-0.07 -2.41,-1.41 -2.64,-4.02 l -0.96,0.42 c 0.14,2.43 -1.69,2.78 -2.88,0.72 -0.22,1.38 -0.78,1.3 -1.44,0 -0.99,-0.68 -1.71,-1.88 -2.16,-3.6 -0.63,-0.2 -0.62,-0.44 0,-0.72 -2.02,-0.02 -2.3,-0.09 -1.44,-2.16 -0.28,-1.34 -0.76,-0.62 -1.44,2.16 1.03,1.04 0.85,3.3 -0.72,3.6 -0.44,1.61 -0.92,1.85 -1.44,0.72 -0.28,2.07 -1.49,1.94 -2.16,0 -1.65,1.17 -1.89,0.27 -1.44,-1.44 -1.62,0.77 -2.34,-0.19 -2.16,-2.88 l -0.93,0.26 c -0.46,-2.48 -1.11,-4.24 -1.95,-5.3 0.25,2.75 -0.23,4.43 -1.44,5.04 0.42,2.2 0.83,6.15 -2.16,4.32 -2.56,2.68 -3.04,0.58 -3.6,-2.16 -0.29,-0.21 -0.28,-0.45 0,-0.72 l -1.58,-0.31 c 0.26,-1.37 -0.65,-1.26 -2.74,0.31 -0.49,5.81 -5.49,2.26 -6.48,-1.44 -0.06,2.58 -0.78,3.78 -2.16,3.6 -0.2,2.05 -1.56,1.96 -2.16,0 -1.77,1.49 -2.31,0.65 -2.16,-1.44 -0.66,-0.35 -1.14,-0.35 -1.44,0 -0.54,1.96 -0.84,2.75 -2.16,0.72 -0.75,1.64 -1.78,1.23 -2.9,0.05 0,1.97 -0.72,3.15 -2.14,3.55 -0.5,1.25 -0.98,1.49 -1.44,0.72 -0.74,1.92 -1.43,1.92 -2.16,0 -0.68,0.11 -1.16,-0.61 -1.44,-2.16 -1.13,-0.03 -1.37,-0.99 -0.72,-2.88 -1.27,0.04 -0.82,-1.56 -0.5,-2.57 0.26,-0.82 -2.97,16.73 -7.42,9.77 -0.98,1.12 -0.93,-0.82 -0.92,-0.73 0.2,1.4 0.38,2.73 -0.12,4.13 -0.16,0.44 -1.16,0.37 -1.84,0.21 -1.85,0.82 -2.81,0.82 -2.88,0 -0.6,0 -1.16,-0.17 -1.58,-0.63 -0.46,-0.51 1.34,-9.17 2.3,-10.17 0.39,-2.65 -0.11,-11.65 5.05,-9.02 1.7,0.87 1.05,2.68 1.79,3.98 2.53,-4.25 3.39,-20.08 9.36,-9.35 0.29,-2.39 6.01,-4.1 7.57,-3.28 1.73,0.91 3.89,9.5 6.11,11.19 0.95,-2.56 1.25,-11.55 5.82,-7.98 1.4,1.09 0.88,3.85 2.45,4.38 0,-2.01 0.84,-7 3.26,-7.24 3.23,-0.33 3.64,4.82 4.59,6.96 0.26,0.59 0.44,2.4 1.51,1.01 0.77,-1 0.21,-13.71 5.45,-10.13 2.06,1.4 3.98,8.22 4.64,10.85 l 1.59,-7.4 c 4.47,-6.99 6.98,2.76 8.49,6.68 1.81,-1.08 0.85,-4.59 2.09,-6.17 4.63,-5.9 7.6,11.04 8.71,13.37 l 1.83,-6.44 c 5.66,-5.51 6.01,3.48 6.9,4.19 0.42,0.34 2.34,-0.1 3.51,0.44 2.17,1 4.24,11.16 4.82,13.9 1.44,6.72 2.41,14.18 3.09,21.03 l 1.44,28.08 c 0.63,0.7 6.08,-4.72 9.5,1.66 6.37,11.87 -2.48,33.12 -9.18,43.67 0,14.32 -12.76,24.85 -19.73,36.41 3.16,1.78 5.03,5.33 8.39,6.68 4.8,1.92 11.47,2.17 16.62,3.54 15.34,4.1 36.42,11.26 43.75,26.09 8.47,17.15 9.06,36.9 13.75,54.59 l 13.09,27.34 c 0.79,5.23 -6.46,4.47 -7.02,5.28 -0.36,0.51 1.23,10.94 1.57,12.36 1.04,4.36 4.29,9.24 5.93,13.51 7.58,19.84 12.45,34.12 15.49,55.43 2.19,15.35 3.21,30.87 5.23,46.25 6.91,11.05 22.17,33.97 20.61,46.91 -0.8,6.62 -13.03,30.37 -17.98,34.58 -8.72,7.42 -24.39,7.93 -20.48,-6.8 0.83,-3.15 4.85,-6.52 5.95,-9.89 1.17,-3.58 2.23,-13.23 1.3,-16.75 -0.79,-3.01 -5.84,-8.35 -8.29,-10.43 -2.61,-2.21 -7.07,-6.4 -10.03,-2.09 -5,7.27 8.47,32.5 -12.49,28.93 -8.42,-1.44 -8.39,-9.86 -10.41,-16.26 l -1.64,-8.77 z m -0.72,2.16 c -0.05,1.19 0.03,2.4 0,3.6 m 0,45.36 c -1.38,-19.58 -4.93,-40.55 -8.99,-59.77 -2.52,-11.9 -5.58,-23.95 -11.56,-34.57 -18.39,9.07 -36.3,14.68 -56.85,16.58 -19.54,1.8 -37.98,2.13 -57.37,-0.94 -13.99,-2.22 -26.92,-5.74 -40.18,-10.57 -7.83,23.82 -13.53,47.61 -17.17,72.48 -0.91,6.25 -1.75,12.68 -2.28,18.96 -0.24,2.88 -0.67,5.75 -0.72,8.64 -1.01,1.8 -1.18,7.92 -0.6,9.6 0.51,1.48 5.55,3.9 7.08,4.8 18.2,10.68 41.47,12.27 61.92,8.64 3.09,-0.55 6.18,-1.38 9.35,-1.45 -0.19,-2.46 0.57,-4.77 0.73,-7.19 0.24,-3.67 0.03,-7.79 0,-11.52 -0.15,-17.4 1.24,-32.63 3.69,-49.95 0.86,-6.1 2.27,-12.26 4.22,-18.1 -2.93,-0.64 -4.49,-2.59 -2.16,-5.04 l 23.05,-1.07 c 3.35,3.02 1.15,2.32 1.44,3.6 -0.75,0.89 -4.3,1.31 -4.35,1.84 -0.15,1.55 2.21,9.21 2.69,11.7 3.75,19.51 3.29,35.99 4.55,55.57 0.03,0.48 -0.03,0.96 0,1.44 0.03,0.48 -0.03,0.96 0,1.44 0.25,4.09 0.51,8.14 0.72,12.24 0.08,1.64 -0.2,3.32 0.09,4.95 12.02,3.78 22.98,3.27 35.2,1.19 11.74,-1.99 26.34,-5.31 36.96,-10.56 2.04,-1.01 9.69,-5.17 10.59,-6.68 1.11,-1.85 0.6,-3.51 0.67,-5.45 0.14,-3.86 -0.46,-7.07 -0.72,-10.8 z m -60.48,41.76 c -3.09,0.17 -6.24,-0.17 -9.32,0.04 -3.26,25.43 8.75,50.75 17.25,74.12 4.02,-1.83 7.86,-4.7 12.23,-5.76 8.31,-2.01 18.81,-2.09 27.36,-2.16 l 2.91,-34.17 c -0.24,-14.33 1.33,-28.45 -3.64,-42.15 -14.65,4.83 -31.33,9.23 -46.79,10.08 z m -95.04,0 c -9.73,-0.99 -18.21,-3.1 -27.35,-6.48 -0.35,4.1 -2.77,7.91 -3.72,11.77 -1.94,7.91 -1.29,15.96 -1.29,23.84 0,14.2 0.65,28.03 2.13,42.15 8.89,-5.52 26.64,-6.92 35.99,-2.16 0.81,0.41 6.19,5.33 6.47,5.04 5.54,-24.03 15.33,-49.13 9.99,-74.06 z m -23.76,74.88 c -5.38,2.44 -3.23,6.49 -3.59,11.52 1.47,-0.58 3.01,-3.06 4.31,-3.6 5.24,-2.18 18.98,-2.12 23.76,1.44 0.47,0.35 2.97,4.08 3.59,3.6 1.48,-6.86 5.81,-9 -2.15,-12.96 -6.26,-3.11 -19.55,-2.89 -25.92,0 z m 133.2,2.88 c -4.54,3.17 -0.19,5.82 -0.72,10.08 -0.06,0.51 -1.07,2.22 -1.44,2.88 -1.64,2.95 -4.44,5.5 -5.9,8.86 -3.74,8.63 -2.61,17.51 -2.78,26.66 0.17,0.7 3.42,1.44 4.35,1.91 17.16,8.69 43.3,12.71 59.04,-0.72 1.35,-1.15 2.95,0.13 2.91,-3.91 -0.1,-9.37 -6.23,-25.77 -14.07,-31.36 -1.26,4.19 5.84,6.2 -0.36,9.36 -9.07,-0.06 -23.65,9.13 -29.86,7.91 -3.19,-0.63 -2.65,-4.47 -3.35,-4.94 -1.02,-0.68 -3.34,0.96 -5.3,-1.54 -2.44,-3.12 0.12,-7.07 -0.42,-7.85 -0.19,-0.27 -1.68,-0.36 -2.11,-0.78 -0.51,-0.5 -0.44,-1.66 -0.72,-2.16 0.02,-1.35 0.17,-3.11 0.72,-4.32 0.25,-0.56 3.15,-3.98 3.6,-4.32 7.15,-5.4 17.77,-3.02 25.92,-2.16 1.16,0.12 2.37,1.67 3.98,0.02 0.79,-0.81 1.73,-5.56 1.78,-6.88 0.07,-1.65 -0.15,-0.77 -1.08,-1.07 -1.1,-0.35 -2.79,-0.61 -3.97,-0.7 -7.29,-0.6 -24.24,0.85 -30.24,5.04 z m -113.76,8.64 -5.76,-0.72 c 0.33,1.73 5.09,2.26 5.76,0.72 z m 131.04,-0.72 h -5.03 v 0.71 h 5.03 z m -141.12,0.72 c -1.6,0.06 -5.02,-0.45 -5.75,1.43 z m 133.2,1.44 c -1.28,-0.2 -2.52,0.04 -2.88,1.43 0.94,0.29 3.62,-1.08 2.88,-1.43 z m -136.8,4.32 c -1.4,0.19 -4.09,0.02 -5.28,0.71 -0.75,0.43 -0.67,1.96 -0.47,2.17 0.3,0.32 7.37,-1.21 8.64,-1.44 1.36,-0.24 6.22,0.14 5.76,-2.16 -2.26,0.15 -4.65,-0.23 -6.89,-0.03 -0.95,0.08 -1.55,0.72 -1.74,0.75 z m 146.16,0.71 c 0.05,-0.05 0.27,-1.52 -0.35,-1.43 -3.75,1.38 -1.16,2.98 0.35,1.43 z m -158.4,2.17 c -2.59,2.97 -5.71,5.03 -7.79,8.41 -4.15,6.72 -5.66,15.78 -6.54,23.5 0.35,1.11 3.79,2.7 4.97,3.37 17.28,9.73 36.85,6.19 54.03,-1.77 1.31,-0.61 2.82,-2.22 3.57,-2.55 1.52,-0.67 2.83,-0.79 4.31,0 0,-11.87 -4.48,-20.5 -13.32,-28.07 l -1.07,7.19 c -0.24,0.16 -0.51,1.02 -1.15,1.35 -3.11,1.59 -6.66,-0.31 -10.02,-0.61 -3.76,-0.34 -8.6,-1.05 -12.22,-0.72 -3.97,0.36 -13.01,5.7 -14.62,0.2 -0.72,-2.48 0.97,-4.49 -0.15,-6.69 -0.15,-1.12 0.27,-1.92 0.72,-2.88 0.17,-0.35 2.19,-1.04 1.43,-2.88 -1.12,0.2 -1.54,1.45 -2.15,2.16 z m 151.92,0 c -1.98,0.81 -6.46,0.7 -4.68,3.6 1.59,-0.91 3.12,-1.94 4.68,-2.88 1.35,-0.81 4.72,-1.3 3.25,-2.87 -1.03,0.38 -2.49,1.84 -3.25,2.15 z m -113.76,0.71 -2.15,-2.15 c -0.24,1.31 0.79,2.39 2.15,2.15 z m 141.12,0.01 c -2.87,-0.08 -5.34,-0.8 -8.3,-0.76 -0.99,0.01 -4.33,0.22 -4.66,1.47 1.75,-0.11 3.04,1.93 4.52,1.99 1.48,0.06 7.52,-1.21 8.44,-2.69 z m -160.56,2.16 c -1.7,0.04 -10.73,0.99 -11.37,1.59 -0.34,0.32 -0.32,2.01 -0.87,2.72 3.57,-0.82 6.36,-1.31 10.08,-1.43 4.76,-0.16 8.99,0.69 13.68,0.71 -2.38,-3.9 -7.49,-3.69 -11.52,-3.59 z m 144,2.88 c -2.84,-0.09 -8.6,-0.12 -9.35,3.59 z m -116.64,33.84 c -17.84,8.18 -38.21,10.85 -56.16,1.44 -0.53,-0.28 -3.99,-3.32 -4.31,-2.88 -0.84,7.9 0.92,8.25 7.19,10.8 16.58,6.75 36.63,6.68 53.28,0 6.38,-2.56 8.67,-6.19 6.11,-12.97 -1.24,0.07 -4.7,2.97 -6.11,3.61 z m 90.72,9.36 c 12.78,8.29 41.41,10.57 54.72,2.88 7.35,-4.25 5.33,-5.91 5.04,-13.68 -0.58,-0.68 -4.24,2.48 -5.04,2.88 -18.03,9.12 -38.02,7.9 -56.16,0 -1.2,-0.52 -3.29,-2.47 -4.7,-2.86 -2.27,-0.64 -0.09,6.12 0.35,6.86 1.24,2.12 4.12,2.84 5.79,3.93 z"
       id="path104" />
    <path
       class="cls-58"
       d="m 63.97,251.97 c -10.86,-2.82 -24.89,-2.4 -36,-1.44 5.33,-19.08 11.54,-42.03 27.02,-55.42 7.36,-6.37 19.6,-14.13 28.75,-17.33 11.86,-4.14 25.1,-4.2 36.02,-10.78 3.61,17.24 16.05,30.71 30.08,40.49 1.96,1.36 14.08,9.06 15.35,9.2 3.9,0.41 12.61,-8.12 15.44,-11.14 8.93,-9.57 16.44,-22.23 21.59,-34.22 8.33,4.5 17.99,5.13 27,7.91 6.84,2.11 20.17,6.92 25.78,10.94 14.01,10.02 16.59,38.42 19.12,54.18 -0.35,1.43 -4,1.2 -5.57,1.6 -4.33,1.12 -8.87,2.35 -13.07,3.85 l -1.54,-0.6 c -1.8,-9.26 -3.73,-19.13 -7.47,-27.94 -2.83,-6.68 -10.2,-16.4 -12.55,-3.69 -0.07,29.64 -3.13,59.02 -13.92,86.51 -4.06,11.28 -2.74,22.44 0.37,33.94 6.55,20.7 9.59,41.8 12.24,63.02 1.2,1.62 1.38,3.05 0.54,4.27 -40.75,18.77 -91.11,18.63 -133.2,4.32 l -1.03,-1.22 c -1.4,-12.21 -2.55,-25.11 0.5,-37.56 l 6.82,-32.46 c 1.54,-8.39 1.58,-16.8 -1.23,-24.85 C 90.25,283.5 85.55,250.5 84.93,217.23 c 0.34,-3.54 -1.57,-5.31 -5.76,-5.3 -1.36,-4.49 -3.47,-3.93 -5.67,-0.17 -4.68,7.96 -6.38,23.66 -6.5,32.9 0.21,3.93 -0.81,6.37 -3.05,7.31 z"
       id="path106" />
    <path
       class="cls-65"
       d="m 63.97,251.97 c 2.63,-5.79 1.22,-13.58 2.2,-19.76 0.58,-3.67 4.47,-18.38 6.13,-21.23 0.37,-0.64 2.65,-3.04 3.2,-3.3 4.05,-1.89 3.8,2.6 4.42,3.12 0.38,0.32 2.73,0.07 4.04,0.65 3.65,1.63 2,8.7 2.34,12.06 2.22,22.2 3.14,46.74 10.96,67.52 5.51,14.64 12.97,24.36 11.27,41.12 -2.35,23.11 -12.01,43.27 -9.2,67.7 0.38,3.32 2.46,6.2 0.65,9.79 -3.54,-1.2 -9.63,-2.31 -12.77,-4.15 -1.01,-0.59 -1.39,-0.64 -1.64,-1.96 -0.58,-3.18 -0.24,-12.23 0,-15.83 1.24,-18.31 7.58,-38.05 9.97,-56.27 2.75,-20.94 -5.09,-26.99 -10.9,-45.05 -3.37,-10.47 -5.73,-25.19 -6.31,-36.17 -0.6,-11.51 1.22,-22.95 0.6,-34.44 -0.63,-2.13 -3.57,-2.72 -4.96,-0.93 -1.76,2.26 -0.62,17.75 -2.12,21.63 l 0.74,19.11 c -2.53,-0.89 -6.22,-2.97 -8.63,-3.6 z"
       id="path108" />
    <path
       class="cls-65"
       d="m 255.49,249.81 c -2.97,1.06 -5.63,2.73 -8.64,3.6 v -24.84 c -1.35,-3.86 -0.78,-11.95 -6.26,-12.5 -2.25,-0.22 -1.74,3.86 -1.65,5.29 0.32,5.14 1.92,11.21 2.14,16.58 0.83,20.16 -4.15,42.19 -8.84,61.7 -2.61,10.83 -6.61,17.09 -4.5,28.67 1.51,8.3 4.7,16.8 6.53,25.15 3.38,15.39 6,31.04 8.93,46.53 -0.13,2.04 -8,4.4 -10.04,5.33 -0.54,-1.39 -1.64,-2.67 -1.99,-4.13 -2.1,-8.73 -2.23,-20.58 -3.98,-29.86 -3,-15.91 -9.29,-32.6 -11.11,-48.65 -1.47,-13 6.21,-27.87 9.52,-40.48 5.48,-20.88 6.4,-42.35 6.82,-63.68 0.08,-3.92 2.47,-10.54 7.39,-8.17 8.39,4.03 14.49,30.52 15.67,39.46 z"
       id="path110" />
    <path
       class="cls-58"
       d="m 67.57,275.01 0.03,1.67 c -2.55,2.6 -4.08,6.26 -4.59,10.97 l -2.64,-0.41 c -12.03,-4.46 -26.11,-8.81 -38.88,-9.37 l 1.44,-9.36 c 15.84,-0.93 29.93,0.71 44.64,6.48 z"
       id="path112" />
    <path
       class="cls-35"
       d="m 74.77,272.12 c -15.83,-7.19 -33.1,-9.19 -50.39,-8.99 l 2.69,-7.57 c 8.12,-2.8 40.1,-0.14 45.52,5.42 2.04,2.09 1.4,8.19 2.18,11.13 z"
       id="path114" />
    <path
       class="cls-35"
       d="m 280.69,262.04 c -12.47,1.21 -24.55,4.39 -36,9.36 l 1.54,-12.13 c 4.4,-1.56 26.57,-10.38 29.45,-8.42 0.76,0.52 3.42,9.68 5.01,11.19 z"
       id="path116" />
    <path
       class="cls-58"
       d="m 256.21,272.85 c 4.74,-1.49 24.41,-7.29 27.73,-4.33 0.32,0.29 3.69,6.97 3.88,7.65 0.39,1.4 -0.18,0.81 -0.92,1.08 -2.82,1.01 -6.81,1.05 -10.2,2.06 -5.87,1.75 -12.78,5.23 -18.34,7.94 l -1.3,-0.87 c 1.85,-4.66 1.39,-8.63 -1.38,-11.9 z"
       id="path118" />
    <path
       class="cls-4"
       d="m 258.37,287.25 c -5.97,2.91 -11.02,7.77 -18.72,7.19 1.62,-3.13 2.66,-15.12 4.5,-17.1 1.07,-1.16 9.9,-3.82 12.06,-4.5 1.76,2.09 3.15,4.13 3.57,6.93 l -1.41,7.47 z"
       id="path120" />
    <path
       class="cls-4"
       d="m 67.57,275.01 c 2.12,0.83 7.38,2.08 8.69,3.91 1.93,2.67 2.16,12.23 4.99,15.53 -7.66,0.66 -14.12,-4.68 -20.88,-7.19 1.69,0.34 1.65,-0.75 1.95,-1.98 1.09,-4.6 0.34,-7.41 5.25,-10.26 z"
       id="path122" />
    <path
       class="cls-35"
       d="m 126.6,161.97 c 0.21,0.23 1.05,4.64 1.62,5.95 8.24,18.87 17.38,27.42 35.57,36.43 1.45,0.72 4.63,1.47 5.58,2.21 1.54,1.21 -2.75,4.19 -5.28,3.28 -1.39,-0.5 -9.66,-5.99 -11.49,-7.26 -11.25,-7.79 -25.52,-22.55 -27.35,-36.73 -0.09,-0.72 -0.43,-5.81 1.35,-3.88 z"
       id="path124" />
    <path
       class="cls-17"
       d="m 170.53,203 c -0.72,-0.97 0.75,-1.57 1.2,-2.03 1.96,-1.96 4.41,-3.67 6.36,-5.88 8.1,-9.14 12.36,-19.44 18.71,-29.53 1.52,1.07 0.73,1.28 0.38,2.5 -1.85,6.36 -7.82,15.89 -11.66,21.48 -1.75,2.55 -10.09,14.01 -12.44,14.13 -0.31,0.02 -2.47,-0.58 -2.55,-0.69 z"
       id="path126" />
    <path
       class="cls-67"
       d="m 27.25,284.37 c 0.35,0.35 0.07,3.13 -1.08,3.58 l -5.4,-2.87 z"
       id="path128" />
    <path
       class="cls-83"
       d="m 178.44,321.1 c -0.42,0.99 -3.67,1.19 -4.76,1.34 -8.05,1.09 -15.66,0.6 -23.7,0.77 -1.48,0.03 -5.83,1.36 -6.81,0.03 -1.5,-2.03 5.61,-2.76 6.85,-2.86 5.17,-0.42 12.93,-0.9 18.02,-0.76 3.12,0.09 7.24,0.99 10.4,1.48 z"
       id="path130" />
    <path
       class="cls-82"
       d="m 68.29,298.05 c 0.31,0.45 0.6,0.91 0.79,1.4 0.88,2.23 -4.26,21.57 -5.33,21.97 l -2.67,-0.33 -0.98,1.22 -11.86,-1.94 c -6.91,0.54 -4.73,1.29 6.52,2.27 3.17,0.48 5.27,1.64 6.32,3.48 l 0.83,1.76 c -2.44,20.49 -5.36,41.45 -8.77,61.67 l -7.18,27.96 c -2.3,7.09 -2.58,13.96 -0.81,20.6 7.36,13.96 12.4,25.75 7.56,41.75 0.21,2.64 -0.36,4.67 -1.7,6.1 -0.46,-0.01 -0.93,0.14 -1.38,-0.05 -1.45,-5.54 -0.39,-11.28 -0.75,-16.9 -0.11,-1.63 -0.45,-6.31 -0.75,-7.53 0.1,-20.96 -26.91,-1.11 -28.92,9.04 -0.95,9.06 -1.53,18.1 -1.74,27.12 l -1.74,-0.17 C 12.7,491.83 6.74,475.05 7.1,469.04 c 0.2,-3.3 1.4,-8.8 2.35,-12.04 1.38,-4.72 6.36,-12.39 6.95,-16.09 0.69,-4.35 -0.69,-15.29 -0.67,-20.85 0.07,-25.46 2.14,-53.59 9,-78.11 1.47,-5.26 5.49,-13.8 6.04,-18.44 1.49,-12.52 -0.25,-25.32 2.24,-37.72 8.13,1.97 16.28,4.32 24.13,7.19 3.77,1.37 7.54,3.72 11.14,5.06 z"
       id="path132" />
    <path
       class="cls-41"
       d="m 68.29,298.05 c 4.51,1.68 8.87,2.71 13.67,3.23 -2.06,8.2 -8.02,18.76 -9.18,26.82 -0.63,4.39 0.21,9.11 -0.18,13.5 -2.09,23.64 -6.93,47.5 -14.2,70.04 -1.69,5.24 -8.23,19.2 -8.45,23.12 -0.25,4.43 9.16,11.73 9.74,19.14 l -3.24,29.23 c -0.84,2.47 -3.1,2.92 -5.43,2.85 -0.48,-8.34 2.94,-15.59 2.07,-24.03 -1.07,-10.43 -9.24,-18.57 -10.52,-28.35 -1.37,-10.42 9.04,-40.2 11.1,-53.32 0.94,-5.96 0.92,-12.11 1.76,-17.68 1.83,-12.18 4.8,-24.16 5.67,-36.45 l 1.99,-1.12 c 5.62,0.98 5.07,0.22 -1.64,-2.3 L 61.1,321.1 c 1.82,0.37 1.53,-0.82 1.94,-1.99 2.35,-6.82 4.45,-13.85 5.26,-21.05 z"
       id="path134" />
    <path
       class="cls-41"
       d="m 48.13,461.49 c -3.37,-13.75 -20.27,4.69 -23.18,10.3 -2.49,4.78 -0.59,5.93 -0.55,10.19 0.04,3.95 -0.68,7.2 -0.82,10.83 -0.1,2.69 2.22,7.61 -1.37,9.38 -3.13,1.54 -5.27,-2.43 -6.48,-4.7 1.19,-0.75 0.72,-2.73 0.73,-3.95 0.07,-6.63 -0.23,-20.99 2.34,-26.46 3.41,-7.27 22.57,-23.17 29.23,-13.06 1.41,2.14 2.15,5.47 0.1,7.47 z"
       id="path136" />
    <path
       class="cls-21"
       d="m 61.09,321.09 c 3.25,0.98 8.34,3.42 10.8,5.75 -3.6,0.13 -7.27,0 -10.8,-0.71 -3.04,-0.61 -6.17,-2.29 -9.81,-2.79 -2.17,-0.3 -5.27,0.37 -7,-0.2 -1.53,-0.5 -1.72,-3.05 -0.5,-3.89 1.93,-1.33 14.49,0.98 17.31,1.84 z"
       id="path138" />
    <path
       class="cls-82"
       d="m 314.53,488.85 -1.14,-1.53 4.84,-16.76 c 5.67,-14.38 -5.23,-26.27 -16.41,-33.72 -6.66,-4.44 -17.85,-0.93 -19.69,7.36 -0.27,1.64 -0.52,3.39 -0.72,5.04 -0.57,3.5 -0.67,7.11 -0.29,10.83 -0.26,1.04 -0.87,1.21 -1.84,0.63 -0.9,-0.54 -4,-18.11 -1.96,-20.44 5.2,-13.75 8.39,-26.45 1.86,-40.75 -9.21,-19.96 -15.9,-39.41 -18.23,-61.59 l -5.07,-18.77 1.05,-2.4 1.12,-1.78 c 6.14,-0.66 12.22,-1.54 18.23,-2.62 0.4,-1.55 -18.72,0.23 -19.83,1.12 l -1.68,-1.04 -1.64,-0.25 -4.37,-11.23 0.97,-1.48 c 5.85,-1.83 27.69,-15.78 31.95,-14.35 1.86,0.63 2.35,12.25 3.1,14.94 3.97,14.21 13.19,29.17 17.16,44.76 5.71,22.46 5.58,46.98 9.34,69.86 6.6,9.08 13.2,20.99 17.55,31.41 1.73,4.14 3.54,7.28 2.81,11.97 -0.81,5.2 -10.29,23.58 -13.61,28.14 -1.31,1.8 -2.13,1.64 -3.49,2.63 z"
       id="path140" />
    <path
       class="cls-41"
       d="m 249.73,299.49 5.04,12.96 -0.11,1.56 c -7.12,3.22 -6.79,6.09 0.85,1.77 l 1.41,1 c 1.05,7.15 3.85,13.81 5.42,20.86 2.19,9.82 2.95,20.56 5.74,30.26 4.9,17.06 19.25,37.7 15.86,55.47 -1.21,6.37 -5.82,16.47 -6.1,22.03 -0.23,4.41 2.87,9.93 2.12,14.66 1.25,0.17 0.68,-1.64 0.71,-2.51 0.08,-2.13 -0.25,-4.52 -0.03,-6.55 0.1,-0.96 0.74,-1.6 0.75,-1.74 -0.87,3.45 1.25,18.83 0.08,20.46 -1.03,1.42 -5.34,0.17 -6.47,-1.46 -1.45,-2.1 -5.91,-22.02 -5.91,-25.11 0,-6.82 6.85,-15.72 5.7,-21.43 -0.34,-1.69 -2.92,-4.39 -3.85,-6.28 -13.04,-26.45 -17.82,-54.35 -24.59,-82.69 -2.46,-10.28 -5.64,-20.46 -8.14,-30.74 3.7,-1.2 7.8,-1.35 11.51,-2.51 z"
       id="path142" />
    <path
       class="cls-82"
       d="m 202.93,544.29 c 15.46,-0.85 32.14,-5.25 46.79,-10.08 4.97,13.7 3.4,27.82 3.64,42.15 l -2.91,34.17 c -8.55,0.07 -19.05,0.15 -27.36,2.16 -5.21,1.62 -10.21,-7.85 -11.89,-11.99 -7.08,-17.41 -9.7,-37.22 -10.14,-55.81 z"
       id="path144" />
    <path
       class="cls-82"
       d="m 107.89,544.29 c 4.89,0.47 9.88,0.61 14.97,0.4 -0.3,4.65 -0.9,9.39 -1.81,14.22 -0.79,17.02 -2.42,34 -5.54,50.93 l -1.86,3.56 c -9.35,-4.76 -27.11,-3.36 -35.99,2.16 -1.48,-14.12 -2.13,-27.94 -2.13,-42.15 0,-7.88 -0.65,-15.93 1.29,-23.84 0.95,-3.86 3.37,-7.67 3.72,-11.77 9.14,3.38 17.62,5.49 27.35,6.48 z"
       id="path146" />
    <path
       class="cls-41"
       d="m 107.89,544.29 22.22,0.1 c 5.34,24.93 -4.45,50.02 -9.99,74.06 -0.29,0.29 -5.67,-4.63 -6.47,-5.04 1.02,-10 3.25,-19.88 4.31,-29.89 1.37,-12.81 0.45,-26.26 4.33,-38.51 -4.11,-0.29 -8.59,0.36 -12.65,0.02 -1.51,-0.12 -1.65,-0.74 -1.75,-0.75 z"
       id="path148" />
    <path
       class="cls-41"
       d="m 202.93,544.29 c -0.83,1.2 -0.77,2.46 -0.66,3.84 1.27,15.68 4.14,41.74 11.88,55.14 1.74,3.01 5.32,9.14 8.94,9.42 -4.37,1.05 -8.21,3.92 -12.23,5.76 -8.51,-23.37 -20.51,-48.69 -17.25,-74.12 3.09,-0.21 6.24,0.13 9.32,-0.04 z"
       id="path150" />
    <path
       class="cls-41"
       d="m 314.53,488.85 c -3.01,2.18 -4.22,3.63 -8.64,2.88 -0.22,-4.77 4.65,-7.93 6.12,-12.24 2.28,-6.66 3.42,-18.9 -0.05,-25.14 -1.47,-2.65 -13.12,-14.7 -15.56,-15.43 -3.74,-1.12 -12.18,1.57 -14.27,5.3 0.27,-1.6 -0.29,-2.96 0.54,-4.86 1.87,-4.29 12.01,-6.65 16.22,-5.77 4.21,0.88 17.8,14.39 19.95,18.2 6.07,10.78 -2.07,26.01 -4.31,37.07 z"
       id="path152" />
    <path
       class="cls-1"
       d="m 256.93,316.77 c -1.95,0.56 -7.72,4.45 -8.58,1.71 -0.95,-3 4.17,-5.33 6.42,-6.03 3.53,-1.1 13.16,-2.26 16.93,-2.21 2.68,0.03 6.28,0.65 8.26,2.57 -7.14,3.14 -15.36,1.75 -23.03,3.96 z"
       id="path154" />
    <path
       class="cls-39"
       d="m 120.13,20.13 c -0.52,3.48 -1.82,7.38 -0.72,10.8 0.43,0.14 0.76,0.28 0.76,0.41 -0.01,0.72 -3.15,13.47 -3.78,13.83 -0.54,0.31 -1.03,0.43 -1.06,0.35 -1.08,-3.03 0.41,-11.83 1.2,-15.31 0.51,-3.71 2.47,-7.81 2.88,-10.8 z"
       id="path156" />
    <path
       class="cls-82"
       d="m 120.13,53.97 1.3,-1.12 c 2.38,-4.3 4.39,-4.95 6.03,-1.97 2.4,-7.16 5.04,-8.03 7.91,-2.62 3.42,-7.02 6.01,-7.6 7.77,-1.73 3.42,-8.74 5.63,-5.44 7.13,1.84 l 1.56,0.9 c 2.38,-6.33 5.92,-13.88 8.02,-2.76 0.27,0.63 0.76,0.93 1.41,1.06 2.73,-8.92 5.05,-9.89 6.97,-2.91 1.3,2.73 2.03,2.89 2.2,0.48 l 1.53,-0.54 c 0.29,-1.32 0.79,-1.14 1.44,0 1.08,-0.02 1.89,0.74 2.45,2.25 1.01,-2.28 3.21,-3.27 4.62,-0.79 0.12,3.24 1.44,9.48 2.2,2.94 l 1.53,-0.81 c 0.23,-1.91 0.89,-1.83 1.44,0 0.16,0.95 1.22,6.24 1.5,6.43 0.98,0.68 3.43,-0.81 3.54,-0.67 0.23,0.31 0.78,8.17 3.95,4.3 1.14,-1.39 0.34,-4.31 1.81,-5.02 -0.47,6.31 5.3,10.88 5.77,2.16 l 3.31,4.28 3.15,-2.84 c 0.29,1.18 0.6,3.14 1.4,4.01 1.87,2.03 2.17,-0.75 2.93,3.18 0.29,8.1 0.49,16.29 0.62,24.57 1.5,6.23 0.44,12.76 -3.27,17.98 -1.39,6.88 -2.41,13.88 -3.06,21.01 -1.55,6.22 -17.96,30.43 -22.95,34.3 -6.42,4.98 -26.17,6.31 -33.25,2.14 -11.02,-6.49 -30.8,-26.36 -35.14,-38.42 -1.56,-9.54 -2.69,-19.18 -3.39,-28.93 -4.9,-10.02 -5.49,-21.4 -2.53,-31.94 -0.7,-3.72 0.94,-4.67 4.9,-2.83 -0.23,-2.28 0.29,-3.73 1.58,-4.37 -2.05,-1.09 -0.79,-4.6 1.44,-4.32 0.52,-1.8 1.24,-1.56 2.16,0.72 z"
       id="path158" />
    <path
       class="cls-41"
       d="m 106.45,61.89 1.35,1.26 c -0.34,1.83 0.17,2.37 1.53,1.62 0.2,-0.63 0.44,-0.62 0.72,0 -0.7,4.46 -0.29,19.65 0.74,24.1 0.39,1.68 2.07,2.72 2.68,5.24 4.73,19.41 -2.86,27.73 12.77,45.55 5.05,5.76 20.83,20.63 27.07,24.05 5.09,2.78 25.44,1.13 30.11,-2.89 4.05,-3.49 19.88,-26.43 21.8,-31.48 2.78,-7.31 1.15,-14.39 3.08,-21.4 0.84,-3.07 3.58,-5.95 3.95,-8.29 1.32,-8.21 -0.07,-22.62 0.03,-31.65 0.01,-1.22 -0.46,-3.2 0.73,-3.95 0.45,2.34 1.44,7.67 1.44,9.72 v 15.48 c 0,0.4 4.29,1.07 5.04,-0.72 l 0.97,1.48 c -0.8,3.32 -1.36,6.19 -1.69,8.6 -7.26,8.07 -4.09,18.89 -5.05,28.43 -0.62,6.22 -9.14,17.48 -13.08,22.92 -2.67,3.69 -12.94,17.7 -16.26,19.02 -3.32,1.32 -19.64,3.16 -23.57,3.13 -7.23,-0.06 -15.33,-3.58 -21.19,-7.67 -4.86,-3.39 -25.74,-23.74 -27.77,-28.39 -3.8,-8.7 -2.32,-22.19 -5.2,-32.24 -0.86,-3.02 -1.54,-6.39 -5.24,-6.64 l 0.84,-5.12 c -1.34,-0.13 -1.84,-0.59 -1.56,-2.08 6.79,0.35 3.48,-5.57 3.55,-9.72 0.11,-5.76 0.43,-12.57 0.77,-18.36 0.63,-2.43 1.65,-2.63 1.44,0 z"
       id="path160" />
    <path
       class="cls-8"
       d="m 160.45,19.41 c 1.35,-0.32 1.81,0.23 2.09,1.41 1.13,9.36 2.08,10.68 2.84,3.97 0.51,-2.11 1.5,-2.95 2.99,-2.5 0.27,-0.38 1.12,-0.57 1.62,-1.62 0.5,-1.05 0.31,-1.92 0.54,-2.7 l 1.06,-0.12 c 0.86,3.58 1.66,7.14 2.41,10.69 l 1.39,-7.53 1.62,-0.16 c 0.42,0.81 1.4,1.34 1.44,1.44 1.11,0.89 1.82,2.46 2.15,4.7 0.42,7.64 1.39,4.68 2.91,-8.86 0.8,-1.52 1.08,-1.57 2.14,-0.16 0.06,0.22 -0.05,0.49 0,0.72 1.73,5.8 3.23,11.68 4.48,17.64 1.74,-1.5 3.22,-0.42 4.44,3.26 l 0.95,-8.77 c 0.19,-1.85 0.98,-2.77 2.37,-2.78 h 0.72 l 1.56,0.38 2.22,12.42 c 0.29,-1.09 0.95,-2 1.98,-2.72 0.2,-0.63 0.44,-0.62 0.72,0 1.45,0.63 3.11,0.84 4.97,0.63 0.54,3.47 1.28,6.86 2.23,10.17 0.04,0.62 1.14,1.78 0.72,2.88 -2.25,0.29 -1.86,-2.7 -3.96,-2.92 -2.6,-0.28 -1.65,1.62 -3.23,2.2 -0.29,-2.17 -1.34,-4.32 -3.86,-3.51 -2.04,0.65 -1.07,3.76 -2.62,4.23 -1.23,-4.45 -2.5,-6.96 -6.48,-2.87 0.75,-1.73 -1.41,-7.83 -3.24,-5.02 -0.51,0.78 0.15,2.33 -1.08,2.14 0.15,-1.14 -1.31,-7.27 -2.9,-6.13 -0.75,0.54 -0.49,1.38 -0.71,1.81 0.17,2.14 -0.31,3.34 -1.44,3.6 v 0.72 c -0.53,1.2 -1.23,1.4 -1.44,0 l -1.5,-0.61 c -0.93,-8.7 -2.1,-10.12 -3.52,-4.26 -2,-0.21 -3.45,0.21 -4.33,1.26 0.22,1.6 -2.03,1.45 -2.16,0 L 169,42.28 c -1.48,-6.46 -3.02,-8.34 -4.63,-5.64 -1.32,5.85 -3.75,5.88 -7.28,0.1 l -1.48,1.96 c -3.11,8.41 -5.1,7.06 -7.54,-0.46 -1.28,1.83 -2.42,2.27 -3.44,1.32 L 143.19,41 c -1.33,-0.07 -2.28,-1.02 -2.85,-2.87 -1.01,1.99 -2.22,2.95 -3.63,2.87 -0.32,0.62 -0.79,0.88 -1.44,0.72 -1.35,0.24 -2.19,-0.72 -2.53,-2.91 l -2.79,3.71 c -2.37,-1.12 -3.91,-0.74 -4.61,1.13 -1.13,3.58 -3.42,7.72 -5.45,2.34 -0.3,0.83 -1.08,0.9 -1.89,0.77 -1.77,0.62 -2.87,-0.5 -1.35,-1.62 l 2.87,-12.6 c 0.17,-1.02 1.1,-1.56 2.8,-1.62 1.61,-1.57 1.55,-2.86 1.45,-5.04 0.82,-0.12 1.17,1.35 1.43,1.44 l 1.5,0.57 c -0.86,11.56 -0.16,11.62 2.11,0.18 0.57,-1.61 2.63,-6.7 3.36,-8.13 0.04,-0.08 0.45,0.02 0.96,0.18 0.11,0.72 0.62,1.28 0.72,2.88 0.67,2.68 0.95,5.5 0.83,8.49 l 1.67,0.09 c 0.51,-2.65 1.36,-5.03 2.54,-7.14 0.54,-2.6 0.94,-5.23 0.73,-7.92 1.92,1.19 1.49,3.9 4.31,4.32 l 0.98,0.45 c -0.28,10.78 0.95,10.89 3.69,0.35 l 1.09,-0.08 c 0.52,0.17 1.51,-0.12 2.16,0 l 1.2,0.79 c -0.28,2.78 2.03,12.99 2.29,5.77 0.7,0.02 1.23,-0.21 1.54,-0.79 -0.09,-0.63 -0.33,-0.87 -0.72,-0.72 0.66,1.28 0.31,3.26 -1.27,2.86 -2.42,-0.61 -2.08,-9.28 -0.89,-11.5 0.27,-0.65 -0.66,-2.35 0.71,-2.15 0.04,2.72 2.9,7.62 5.77,3.59 z"
       id="path162" />
    <path
       class="cls-41"
       d="m 141.01,181.41 c -2.88,-4.09 -5.49,-8.22 -7.92,-12.6 -0.15,-0.49 0.6,-0.5 1.06,-0.35 3.17,1.03 8.93,5.93 13.34,7.54 12.56,4.58 25.39,1.23 38.15,-0.34 -1.75,4.1 -4.6,7.32 -7.2,10.79 -4.09,3.87 -9.89,3.28 -15.24,2.58 -7.18,-0.94 -16.69,-2.99 -22.2,-7.62 z"
       id="path164" />
    <path
       class="cls-82"
       d="m 178.45,186.45 c -2.42,3.24 -9.84,13.43 -14.04,13.41 -2.63,-0.01 -16.8,-9.9 -19.11,-12.3 -1.76,-1.82 -2.86,-4.13 -4.29,-6.15 l 9.36,3.24 c 7.22,1.9 14.38,3.95 21.96,3.25 l 6.12,-1.44 z"
       id="path166" />
    <path
       class="cls-13"
       d="m 187.81,22.29 c 0.38,0.03 0.7,0.09 0.79,0.27 1.09,2.11 -0.28,2.49 0.05,0.27 0.03,-0.2 0.28,-0.37 0.59,-0.53 1.03,-0.05 1.99,-0.11 2.88,-0.72 1.17,0.75 1.96,2.02 2.36,3.83 l 1.24,-0.23 c 0.33,0.69 2.14,2.09 2.16,2.88 0,0.25 -1.22,3.49 -1.35,4.77 -0.2,1.97 0.46,11.44 -3.34,7.48 -0.78,-0.81 -1.02,-2.49 -1.08,-3.61 -0.34,-0.36 -1.46,1.66 -2.49,1.45 -2.24,-0.48 -3.26,-16.29 -3.98,-19.45 0.99,0.89 1.72,2.37 2.16,3.6 z"
       id="path168" />
    <path
       class="cls-28"
       d="m 201.49,28.05 c 0.95,0.4 1.91,0.64 2.88,0.72 1.45,4.62 5.02,2.25 5.73,2.91 0.64,0.59 2.04,15.08 2.19,17.25 -3.2,-1.54 -1.38,-6.77 -2.5,-8.68 -0.7,-1.2 -4.78,1.68 -4.7,-2.12 -0.43,-2.64 -0.67,-2.64 -0.72,0 -0.02,0.84 0.15,4.17 0,4.32 -0.1,0.1 -2.43,0.13 -2.78,-0.11 -1.35,-0.92 -2.06,-12.19 -2.98,-14.3 h 2.88 z"
       id="path170" />
    <path
       class="cls-77"
       d="m 100.69,89.97 c 1.17,0.8 2.83,0.59 2.93,1.12 0.13,0.71 0.15,4.31 -0.01,4.9 -0.15,0.56 -1.52,0.59 -2.2,1.18 -0.41,0.35 -0.84,0.92 -1.44,1.44 0.02,2.06 -2.37,4.48 -4.32,4.32 -1.94,-6.13 -3.34,-10.56 -1.43,-17.28 1.68,1.14 3.73,1.81 5.42,2.88 0.6,0.38 0.83,1.29 1.05,1.44 z"
       id="path172" />
    <path
       class="cls-77"
       d="m 219.49,88.53 c 1.15,-2.84 2.43,-4.7 5.76,-5.76 1.47,6.31 0.73,12.53 -0.72,18.72 -0.94,2.4 -1.49,1.61 -1.97,-0.57 l -1.63,-1.59 c -0.19,-0.12 -0.28,-0.86 -0.71,-1.05 -0.69,-0.3 -1.19,0.33 -1.45,0.33 -0.32,0 -0.61,0.02 -0.71,-0.36 -0.43,-3.95 0.01,-6.2 1.43,-9.72 z"
       id="path174" />
    <path
       class="cls-9"
       d="m 99.97,98.61 2.87,18.72 c -3.94,-3.76 -5.6,-9.37 -7.19,-14.4 1.12,-2.64 2.62,-2.85 4.32,-4.32 z"
       id="path176" />
    <path
       class="cls-32"
       d="m 164.77,19.41 c -0.31,0.8 -0.62,1.66 0,0.72 0.97,1.31 1.75,2.5 3.6,2.16 -2.47,3.45 -1.56,4.22 -2.89,7.55 -2.76,6.96 -3.5,-5.06 -3.67,-6.39 -0.17,-1.33 -1.35,-3.83 -1.36,-4.04 -0.03,-0.88 2.06,-4.77 1.8,-6.49 0.35,-0.01 2.39,5.76 2.52,6.49 z"
       id="path178" />
    <path
       class="cls-47"
       d="m 133.09,20.13 c -2.15,2.18 -4.75,17.98 -5.82,18.66 -0.24,0.15 -2.02,0.13 -2.09,0.06 -0.42,-0.4 0.3,-9.8 0,-11.52 6.07,2.14 5.01,-7.89 7.56,-10.8 0.81,0.76 0.19,2.54 0.36,3.6 z"
       id="path180" />
    <path
       class="cls-74"
       d="m 116.53,30.21 c -0.68,4.94 -0.75,10.12 -0.71,15.12 l 3.59,-14.4 h 2.88 c -0.61,0.59 -1.81,0.5 -2.16,1.24 -0.72,1.58 -1.81,8.84 -2.29,11.24 -0.19,0.98 -1.16,2.76 0.12,3.35 1.88,6.99 -6.71,8.36 -3.6,0.72 -1.89,-1.63 -1.41,-4.59 0,-6.48 0.52,-1.15 0.82,-3.3 -0.72,-2.88 v 0.72 c -0.2,0.63 -0.44,0.62 -0.72,0 -1.44,-0.34 -2.01,-0.53 -1.44,-2.16 4.01,0.48 3.12,-4.35 5.04,-6.48 z"
       id="path182" />
    <path
       class="cls-53"
       d="m 185.65,17.97 c -2.27,-0.41 -1.23,1.12 -1.45,2.47 -0.69,4.19 -0.99,8.42 -1.43,12.65 -0.83,-0.1 -1.59,0.41 -2.22,-0.44 -1.68,-2.26 -1.2,-7.97 -2.1,-10.37 0.69,-0.08 1.5,0.11 2.16,0 0.58,0.22 1.06,-0.02 1.44,-0.72 0.2,-1.24 0.47,-2.38 0.72,-3.6 0.2,-1.53 0.68,-2.25 1.44,-2.16 0.37,0.66 1.15,1.09 1.44,2.16 z"
       id="path184" />
    <path
       class="cls-7"
       d="m 171.97,12.93 c 0.98,1.15 1.6,2.89 1.84,5.23 l 1.04,-0.19 c 0.42,0.8 1.58,1.77 2.16,2.88 -1.72,1.43 -0.45,10.73 -3.23,10.08 -2.07,-0.49 -1.66,-11.04 -3.25,-12.96 0.53,-1.74 0.79,-3.21 1.44,-5.04 z"
       id="path186" />
    <path
       class="cls-54"
       d="m 146.05,20.13 c 0.91,-0.32 0.46,3.97 0.23,3.97 -0.23,0 0.2,-4.33 1.21,-3.97 0.3,0.31 1.79,1.32 2.16,1.44 -0.93,1.57 -2.47,10.76 -3.96,10.79 -2.67,0.04 -1.64,-9.58 -1.8,-11.51 0.58,0.09 1.58,-0.45 2.16,-0.72 z"
       id="path188" />
    <path
       class="cls-5"
       d="m 109.33,52.53 c 2.19,1.2 -0.7,8.77 -2.88,9.36 l -0.36,-0.7 -1.08,0.7 c 0.4,-6.92 0.88,-14.03 2.16,-20.88 0.69,-0.27 1.15,-0.21 1.18,0.39 l 0.31,8.03 c 1.22,0.17 1.29,2.12 0.67,3.1 z"
       id="path190" />
    <path
       class="cls-42"
       d="m 109.33,35.25 c 1.41,1.35 1.89,3.2 1.43,5.56 0.26,-1.29 0.67,-2.05 2.17,-1.96 h 0.72 c 0.32,4.88 -1.03,9.77 -3.6,13.68 -0.2,0.63 -0.44,0.62 -0.72,0 0,-0.15 -1.19,-1.46 -1.27,-2.67 -0.21,-2.89 0.42,-6.35 -0.89,-8.85 0.34,-1.82 0.89,-3.99 1.44,-5.76 0.2,-0.63 0.44,-0.62 0.72,0 z"
       id="path192" />
    <path
       class="cls-68"
       d="m 153.97,17.97 0.72,10.08 c 2.22,0.36 1.11,-0.56 1.44,-1.44 0.97,-0.96 0.93,-0.58 0.72,0.72 -0.37,2.19 0.06,6.56 -2.91,4.71 -1.47,-0.91 -2.5,-8.64 -2.13,-10.47 0.16,-0.77 1.76,-2.63 2.16,-3.6 z"
       id="path194" />
    <path
       class="cls-40"
       d="m 111.49,36.69 c 0.79,0.73 1.84,0.62 1.44,2.16 l -3.59,10.8 c -0.89,-4.8 0.33,-9.51 0,-14.4 0.18,-0.63 0.42,-0.62 0.72,0 0.09,0.05 1.03,1.07 1.44,1.44 z"
       id="path196" />
    <path
       class="cls-71"
       d="m 135.25,25.17 h 2.16 c 0.43,-0.07 0.97,-0.56 1.44,-0.72 -0.54,2.59 -1.49,6.94 -2.71,9.16 -0.36,0.66 -0.53,1.9 -1.6,0.91 -1.19,-1.1 -0.59,-9.28 -0.73,-11.52 0.63,0.49 1.32,1.39 1.44,2.16 z"
       id="path198" />
    <path
       class="cls-73"
       d="m 174.85,17.97 -1.43,5.76 -1.45,-10.8 c 0.12,-0.34 -0.08,-0.98 0,-1.43 0.76,-1.19 2.56,5.88 2.87,6.47 z"
       id="path200" />
    <path
       class="cls-73"
       d="m 195.73,25.17 -1.43,4.31 c -0.13,-2.45 -2.09,-5.7 -2.17,-7.91 -0.04,-1.18 0.03,-2.54 1.43,-2.88 0.3,2.04 1.29,4.63 2.17,6.48 z"
       id="path202" />
    <path
       class="cls-37"
       d="m 204.37,28.77 -2.15,4.32 c 0.5,-1.58 -0.82,-3.87 -0.73,-5.04 0.02,-0.24 1.48,-4.14 2.15,-4.32 0.5,1.44 0.34,3.8 0.73,5.04 z"
       id="path204" />
    <path
       class="cls-80"
       d="m 220.93,99.33 c 0.9,0.59 1.92,0.46 2.65,2.17 h 0.95 c -0.53,2.24 -1.34,4.32 -2.16,6.47 -0.66,0.93 -0.9,0.69 -0.72,-0.72 0.61,-2.75 1.55,-5.65 -0.72,-7.92 z"
       id="path206" />
    <path
       class="cls-57"
       d="m 137.41,25.17 -1.8,6.49 c -0.76,0 -0.19,-5.41 -0.36,-6.49 0.69,-0.08 1.5,0.11 2.16,0 z"
       id="path208" />
    <path
       class="cls-49"
       d="m 185.65,48.21 h -1.44 c -0.47,-0.38 -0.71,-1.34 -0.72,-2.88 0.52,-1.49 0.65,-2.1 1.44,-3.6 0.69,2.1 0.37,4.34 0.72,6.48 z"
       id="path210" />
    <path
       class="cls-27"
       d="m 189.25,22.29 0.72,4.32 c -2.01,0.57 -1.41,-2.23 -2.16,-4.32 0.48,-0.02 0.96,0.03 1.44,0 z"
       id="path212" />
    <path
       class="cls-78"
       d="m 147.49,20.13 -1.08,4.33 c -0.61,0 -0.41,-3.46 -0.36,-4.33 0.04,-0.66 -0.34,-1.97 0.36,-2.17 0.61,-0.02 0.6,1.68 1.08,2.17 z"
       id="path214" />
    <path
       class="cls-23"
       d="m 182.05,21.57 c -0.25,1.58 0.07,3.37 -0.73,5.03 l -0.71,-4.31 c 0.43,-0.07 0.97,-0.56 1.44,-0.72 z"
       id="path216" />
    <path
       class="cls-6"
       d="m 184.21,15.81 -1.44,2.16 c 0.26,-1.25 -0.46,-3.15 1.43,-3.6 0.1,0.44 -0.13,1.19 0,1.44 z"
       id="path218" />
    <path
       class="cls-44"
       d="m 113.65,22.29 c -0.87,2.16 -0.85,5.84 -2.87,7.19 0.46,-1.8 0.93,-3.64 1.43,-5.44 0.32,-1.16 -0.77,-2.13 1.44,-1.76 z"
       id="path220" />
    <path
       class="cls-34"
       d="m 164.77,20.13 v 3.6 c 0,0 -0.71,0 -0.71,0 0.12,-1.32 -0.59,-3.46 0.71,-4.32 0.04,0.23 -0.03,0.48 0,0.72 z"
       id="path222" />
    <path
       class="cls-26"
       d="m 221.65,110.13 c -0.43,0.99 -0.55,2.4 -1.43,2.16 -0.59,-1.26 0.56,-2.26 0.71,-2.88 0.65,-0.89 0.89,-0.65 0.72,0.72 z"
       id="path224" />
    <path
       class="cls-45"
       d="m 222.37,107.97 c -0.28,0.72 -0.47,1.58 -0.72,2.16 l -0.72,-0.72 c 0.21,-0.86 0.62,-1.71 0.72,-2.16 z"
       id="path226" />
    <path
       class="cls-25"
       d="m 110.05,35.25 c -0.15,-0.09 -0.48,0.06 -0.72,0 h -0.72 c 0.21,-0.68 0.75,-2.89 1.08,-2.89 z"
       id="path228" />
    <path
       class="cls-20"
       d="m 170.53,42.45 c 1.01,0.27 1.49,0.99 1.44,2.16 -1.02,8.33 -6.04,1.11 -6.12,-3.6 -2.56,1.62 -1.74,8.57 -5,7.92 -3.26,-0.65 -2.57,-4.8 -3.64,-7.2 -2.25,1.54 -3.09,9.38 -5.75,9.4 l -2.37,-2 -2.31,-7.4 c -0.22,1.25 -2.39,6.27 -3.26,6.47 -2.35,0.55 -2.42,-4.46 -3.94,-5.03 -1.31,5.62 -5.36,10.42 -7.57,2.16 -1.77,1.15 -2.6,8.89 -5.62,6.46 -0.8,-0.64 -0.12,-1.84 -1.58,-1.42 -2.01,2.35 -0.96,4.9 -4.69,3.59 -0.63,-0.69 -1.18,-1.23 -2.16,-0.72 -0.56,1.47 -1.15,2.72 -1.44,4.32 l -0.85,1.99 c -2.72,-0.71 -4.74,-0.42 -4.59,2.61 -0.78,0.47 -1.37,1.34 -1.76,2.6 -0.37,2.06 0.36,6.34 -2.88,6.48 0.23,-3.01 -0.33,-6.42 0,-9.36 0.21,-1.89 2.91,-8.87 2.88,-9.36 h 0.72 l 1.02,-1.05 c 0.77,-4.64 1.87,-5.98 3.3,-3.99 l 1.43,5.03 c 0.36,-2.05 1.21,-3.93 2.17,-5.75 0.27,-0.52 0.61,-1.9 0.83,-2.02 0.49,-0.27 2.66,-0.24 2.76,-0.14 0.38,0.36 -0.79,3.05 0.71,2.88 1.23,-3.46 3.02,-9.77 7.2,-5.76 -0.35,-1.65 3.05,-5.96 4.38,-3.9 0.13,0.2 1.17,3.22 1.39,3.9 0.43,-0.16 0.91,-0.4 1.44,-0.72 2.98,-5.52 4.38,-6.23 6.48,0 0.41,-0.44 0.89,-0.92 1.44,-1.44 1.43,-0.13 4.11,-8.62 6.84,4.32 1.74,-1.83 3.27,-10.29 6.86,-8.32 1.21,0.66 1.99,5.18 3.58,4 0.17,-0.13 0.58,-2.79 1.44,-3.97 4.16,-5.64 6.26,3.64 7.21,6.85 z"
       id="path230" />
    <path
       class="cls-20"
       d="m 135.69,135.38 c 2.48,-0.79 3.18,1.71 4.32,1.94 3.49,0.7 18.46,-2.47 25.11,-1.99 4.92,0.36 13.19,3.28 17.3,2.94 1.82,-0.15 8.64,-6.42 8.28,0.23 -0.55,10.02 -21.78,2.87 -27.7,2.55 -5.92,-0.32 -21.67,2.85 -25.27,0.79 -1.5,-0.86 -4.91,-5.55 -2.04,-6.46 z"
       id="path232" />
    <path
       class="cls-20"
       d="m 178.45,110.85 c 0.52,4.99 -2.42,9.31 -7.2,10.8 -2.35,4.58 -15.77,1.59 -15.84,-3.6 0.18,-0.6 -1.02,-1.95 -0.72,-2.88 1.17,-1.07 20.32,5.87 18.01,-5.41 -0.64,-3.15 -8.38,-1.53 -10.66,-5.91 -1.25,-2.39 -2.26,-14.22 -0.15,-16.05 4.39,-0.75 6.25,2.76 5.58,10.53 l 0.41,1.84 c 5.52,1.15 12.59,3.79 10.57,10.68 z"
       id="path234" />
    <path
       class="cls-66"
       d="m 118.89,72.15 c 1.56,-1.69 11.21,-3.02 13.81,-3.09 4.35,-0.13 14.45,2.19 17.2,1.5 1.05,-0.26 0.63,-3.46 3.02,-3.68 3.9,-0.36 4.05,5.45 2.14,7.96 -2.89,3.8 -13.53,0.24 -18,0.01 -5.55,-0.28 -11.12,0.41 -16.44,1.97 -2.57,-0.4 -3.48,-2.76 -1.71,-4.67 z"
       id="path236" />
    <path
       class="cls-69"
       d="m 176.42,68.97 c 0.41,0.25 7.74,-0.69 9.62,-0.63 2.99,0.11 16.31,1.97 18.29,3.3 1.83,1.23 2.13,3.35 0.45,4.72 -1.4,1.13 -9.88,-1.65 -12.48,-2.04 -2.02,-0.3 -5.87,-0.88 -7.74,-0.92 -3.72,-0.07 -6.99,1.24 -10.65,0.54 -4.35,-0.84 -3.11,-8.62 0.46,-7.68 1.44,0.38 1.65,2.45 2.06,2.69 z"
       id="path238" />
    <path
       class="cls-59"
       d="m 134.53,80.61 c 1.19,1.46 2.63,2.18 4.32,2.16 0.18,-1.34 0.55,-1.83 1.44,-0.72 0.72,2.24 0.76,5.22 0.76,7.59 0,1.67 -0.92,4.07 -0.81,4.9 0.06,0.45 6.4,3.23 0.43,4.08 -2.71,0.38 -13.58,2.24 -13.3,-1.82 0.07,-1.07 3.4,-1.41 3.6,-2.27 0.94,-3.95 -0.9,-10.83 2.85,-14.64 1.15,-0.82 1.5,-0.56 0.72,0.72 z"
       id="path240" />
    <path
       class="cls-69"
       d="m 189.97,82.77 c 0.08,0.04 0.51,-1.18 1.3,0.44 2.18,4.48 1.69,9.4 0.14,13.95 2.46,-0.1 5.15,0.24 6.85,2.16 0.68,0.48 -0.4,1.23 -0.82,1.35 -0.8,0.22 -11.32,-0.41 -12.9,-0.59 -5.47,-0.61 -0.55,-2.94 -0.5,-3.21 0.15,-0.97 -1.11,-4.24 -1.11,-5.82 0,-2.47 1.11,-5.72 1.29,-8.27 0.93,-0.2 0.86,0.92 1.43,1.44 1.59,0.05 3.03,-0.43 4.32,-1.44 z"
       id="path242" />
    <path
       class="cls-21"
       d="m 182.05,46.05 c 0.47,0.35 0.95,0.34 1.44,0 0.07,-0.23 -0.07,-0.51 0,-0.72 0.8,0.82 0.81,1.82 0.72,2.88 -0.92,10.35 -5.41,4.54 -5.04,-2.16 -2.31,-0.63 -1.23,2.93 -3.9,2.11 -1.33,-0.41 -1.43,-2.56 -1.85,-3.55 -1.74,-0.27 -2.01,-0.91 -0.72,-2.16 -1.76,-6.32 2.88,-1.52 3.59,-2.16 0.2,-0.18 0.07,-4.5 2.54,-4.15 2.47,0.35 3.04,7.92 3.23,9.91 z"
       id="path244" />
    <path
       class="cls-62"
       d="m 161.89,87.81 c 3.97,-3.45 4.7,0.37 6.15,2.11 3.69,4.42 2.93,5.62 5.48,9.65 2.13,3.35 9.79,6.95 4.92,11.28 -0.13,-1.24 -1.58,-5.64 -2.48,-6.52 -2.26,-2.18 -7.75,-1.45 -9.11,-3.13 -2.27,-2.78 1.18,-13.74 -4.96,-13.4 z"
       id="path246" />
    <path
       class="cls-41"
       d="m 171.25,121.65 c 1.45,7.06 -8.55,9.33 -13,5.45 -1.32,-1.15 -1.35,-2.46 -2.1,-3.47 -0.9,-1.21 -3.38,-1.55 -2.37,-3.94 0.42,-1.01 1.6,-1.52 1.64,-1.63 4.19,4.01 10.25,5.34 15.84,3.6 z"
       id="path248" />
    <path
       class="cls-41"
       d="m 153.97,144.69 c 3.3,2.69 7.16,1.71 10.97,0.42 l 1.27,1.02 c 1.55,2.42 3.19,4.44 0.75,6.88 -3.91,3.93 -16.96,-1.36 -15.07,-7.15 0.42,-1.3 1.59,-0.88 2.08,-1.17 z"
       id="path250" />
    <path
       class="cls-52"
       d="m 166.21,146.13 c -2.74,1.33 -12.57,3.7 -12.24,-1.44 2.88,-1.74 5.53,-1.93 8.95,-1.39 3.06,0.48 2.3,1.3 3.29,2.83 z"
       id="path252" />
    <path
       class="cls-36"
       d="m 116.53,57.57 c -0.35,1.97 1.15,6.31 -2.49,5.78 -1.48,-0.22 -3.28,-3.11 -3.99,1.42 h -0.72 c 0.26,-1.42 0.36,-4.19 0.74,-5.21 0.38,-1.02 3.56,-1.45 2.87,-4.14 1.59,0.73 0.46,4.31 3.59,2.16 z"
       id="path254" />
    <path
       class="cls-38"
       d="m 189.97,82.77 c -0.89,3.66 -1.47,4.01 -4.32,1.44 0.24,-4.45 1.79,-2.78 4.32,-1.44 z"
       id="path256" />
    <path
       class="cls-18"
       d="m 140.29,82.05 c -0.41,0.28 -1.1,0.42 -1.44,0.72 -1.16,-1.14 -2.6,-1.86 -4.32,-2.16 -0.04,-0.33 -0.38,-0.65 -0.72,-0.72 2.87,-2.92 5.38,-1.27 6.48,2.16 z"
       id="path258" />
    <path
       class="cls-51"
       d="m 172.69,42.45 c 0.22,0.77 0.4,1.41 0.72,2.16 -0.48,-0.03 -0.97,0.05 -1.44,0 -2.56,-0.25 -0.91,-0.36 -1.44,-2.16 z"
       id="path260" />
    <path
       class="cls-11"
       d="m 120.13,53.97 c -0.71,-0.25 -1.36,-0.72 -2.16,-0.72 0.36,-0.94 0.79,-1.82 0.73,-2.88 h 0.7 c 0,0 0.73,3.6 0.73,3.6 z"
       id="path262" />
    <path
       class="cls-76"
       d="m 144.61,39.57 c -0.38,1.09 -0.31,3.08 -1.43,2.87 -0.09,-0.45 0.11,-1.08 0,-1.43 v -2.16 c 0.23,-0.31 1.2,0.74 1.44,0.72 z"
       id="path264" />
    <path
       class="cls-70"
       d="m 136.69,41.01 c -0.51,0.95 -0.2,3.12 -1.43,2.88 -0.13,-0.66 0.16,-1.63 0,-2.16 -0.12,-1.92 -0.03,-1.64 1.44,-0.72 z"
       id="path266" />
    <path
       class="cls-55"
       d="m 156.85,27.33 -0.72,-0.72 c 0.35,-0.94 0.82,-1.82 0.73,-2.88 h 0.7 c 0.68,1.47 -0.58,2.84 -0.71,3.6 z"
       id="path268" />
    <path
       class="cls-15"
       d="m 205.09,38.13 h -0.72 c 0.02,-0.82 -0.31,-3.61 0.36,-3.61 z"
       id="path270" />
    <path
       class="cls-49"
       d="m 183.49,46.05 c -0.25,0.87 -0.22,2.02 -1.43,2.16 -0.06,-0.71 0.06,-1.45 0,-2.16 h 1.44 z"
       id="path272" />
    <path
       class="cls-24"
       d="m 114.37,41.01 c 0.05,2.15 -0.04,4.33 0,6.48 -2.34,-0.37 -2.48,3.97 -2.89,5.76 l -1.43,-0.72 c 1.28,-4.53 2.15,-9.19 3.6,-13.68 0.07,-0.22 -0.07,-0.51 0,-0.72 1.51,-0.84 1.31,1.63 0.72,2.88 z"
       id="path274" />
    <path
       class="cls-42"
       d="m 114.37,41.01 c -0.02,-0.95 0.36,-2.38 -0.72,-2.88 0.18,-0.53 1.06,-2.96 1.43,-2.16 -0.16,1.58 0.66,4.02 -0.71,5.04 z"
       id="path276" />
    <path
       class="cls-29"
       d="m 138.85,82.77 c -3.48,3.11 -3.85,1.56 -4.32,-2.16 2.37,-1.43 4.66,-0.97 4.32,2.16 z"
       id="path278" />
  </g>
</svg>
