<?xml version="1.0" encoding="UTF-8" standalone="no"?>
<svg
   id="Layer_1"
   version="1.1"
   viewBox="0 0 207.89059 150.58496"
   sodipodi:docname="Hummingbird.svg"
   width="207.89059"
   height="150.58496"
   xmlns:inkscape="http://www.inkscape.org/namespaces/inkscape"
   xmlns:sodipodi="http://sodipodi.sourceforge.net/DTD/sodipodi-0.dtd"
   xmlns="http://www.w3.org/2000/svg"
   xmlns:svg="http://www.w3.org/2000/svg">
  <sodipodi:namedview
     id="namedview77"
     pagecolor="#ffffff"
     bordercolor="#000000"
     borderopacity="0.25"
     inkscape:showpageshadow="2"
     inkscape:pageopacity="0.0"
     inkscape:pagecheckerboard="0"
     inkscape:deskcolor="#d1d1d1" />
  <!-- Generator: Adobe Illustrator 29.8.3, SVG Export Plug-In . SVG Version: 2.1.1 Build 3)  -->
  <defs
     id="defs4">
    <style
       id="style2">
      .st0 {
        fill: #313131;
      }

      .st1 {
        fill: #00632a;
      }

      .st2 {
        fill: #01632b;
      }

      .st3 {
        fill: #016a2d;
      }

      .st4 {
        fill: #ce0312;
      }

      .st5 {
        fill: #020202;
      }

      .st6 {
        fill: #4c4c4c;
      }

      .st7 {
        fill: #053117;
      }

      .st8 {
        fill: #f78b92;
      }

      .st9 {
        fill: #ea606a;
      }

      .st10 {
        fill: #d6fee7;
      }

      .st11 {
        fill: #c5c5c5;
      }

      .st12 {
        fill: #006c2e;
      }

      .st13 {
        fill: #f5868e;
      }

      .st14 {
        fill: #00481e;
      }

      .st15 {
        fill: #00451d;
      }

      .st16 {
        fill: #5b856d;
      }

      .st17 {
        fill: #dedede;
      }

      .st18 {
        fill: #f9959c;
      }

      .st19 {
        fill: #ce0311;
      }

      .st20 {
        fill: #003f1b;
      }

      .st21 {
        fill: #fefefe;
      }

      .st22 {
        fill: #e7e7e7;
      }

      .st23 {
        fill: #00662b;
      }

      .st24 {
        fill: #006e2f;
      }

      .st25 {
        fill: #01632a;
      }

      .st26 {
        fill: #fdfdfd;
      }

      .st27 {
        fill: #006f2f;
      }

      .st28 {
        fill: #00461d;
      }

      .st29 {
        fill: #006d2e;
      }
    </style>
  </defs>
  <path
     d="m 149.08307,73.571761 c 11.58,-1.77 23.77,-1.77 35.1,1.25 1.85,0.5 1,2.73 -0.26,3.72 -4.44,3.5 -18.96,5.81 -24.76,5.84 -0.18,1.07 1.35,0.89 2.15,1.07 5.17,1.18 10.59,1.53 15.71,3.02 l 7.34,3.81 c -4.8,2.66 -34.71,-7.06 -35.99,-5.75 0.45,5.93 2.51,11.65 2.91,17.609999 0.57,8.44 1.04,36.7 -2.16,43.26 -5.32,10.93 -16.67,-9.4 -18.88,-14.31 -1.47,-3.27 -4.38,-14.06 -6.85,-15.47 -0.6,-0.34 -7.25,-2.12 -7.68,-1.68 -0.98,1.01 -1.09,2.8 -1.27,2.93 -1.76,0.1 -2.54,-2.05 -3.19,-3.5 -1.16,0.08 -1.46,3.21 -3.17,3.1 -2.06,-0.13 -0.88,-4.01 -4,-4.6 -3.57,-0.74 -3.06,3.72 -3.44,3.76 -2.339998,0.26 -1.639998,-3.81 -3.229998,-5.67 -5.58,-2.84 -16.06,-7.72 -22.17,-13.169999 -5.6,-5 -3.07,-7.76 -11.08,-3.2 -2.95,1.68 -7.36,6.169999 -9.43,7.139999 -3.09,1.45 -4.53,-1.02 -3.04,-3.769999 l 12.41,-17.47 -25.91,19.809999 c -0.32,1.4 0.41,0.9 0.9,1.26 3.46,2.51 8.21,3.87 10.61,7.72 -3.46,1.58 -13.49,-6.53 -14.63,-6.36 -2.69,0.41 -15.24,14 -20.13,15.88 -2.29,0.88 -5.2299995,1.32 -5.9799995,-1.57 -1.03,-3.95 11.5299995,-19.309999 14.7999995,-22.699999 -16.5299995,-16.43 -19.2199995,-48.53 -9.26,-69.03 1.76,-3.63 7.4,-11.2 11.25,-12.51 0.89,-0.3 2.7,-0.8 2.34,0.9 -10.71,6.94 -14.6,18.3 -16.36,30.44 -2.3499995,16.18 2.11,35.98 13.12,48.39 l 17.64,-15.47 c -4.33,-0.17 -8.77,0.98 -13.14,0.19 -1.85,-0.33 -4.5,-1.2 -3.09,-3.46 l 21.27,-7.16 c -4.66,-0.15 -29.94,0.66 -32.08,-2.13 -2.63,-3.44 9.5,-5.59 11.57,-5.79 1.42,-0.13 15.46,0.16 15.48,-1.09 -3.76,-0.91 -7.53,-1.87 -11.18,-3.23 -3.28,-1.22 -16.96,-6.46 -15.41,-11.08 1.38,-4.1 19.27,0.69 22.98,0.99 0.8,-0.99 -4.16,-5.1 -5.01,-6.14 -2.34,-2.83 -10.39,-12.61 -10.14,-15.81 0.18,-2.32 2.59,-2.07 4.33,-1.42 5.3,1.98 13.54,11.16 18.39,14.72 0.82,-1.17 4.85,-4.01 4.63,-5.29 -0.08,-0.48 -5.25,-5.87 -6.29,-7.43 -1.16,-1.73 -5.83,-7.96 -1.83,-8.75 3.38,-0.67 10.6,13.6 12.99,14.19 1.27,0.31 7.3,-0.9 10.48,-0.43 3.18,0.47 7.53,4.08 7.98,4.03 0.87,-0.08 4.3,-2.69 6.04,-3.34 6.35,-2.37 17.83,-0.93 24.149998,1.45 6.32,2.38 12.98,7.03 18.18,11.34 4.43,-8.66 8.36,-18.29 16.19,-24.48 -0.63,7.67 -5.8,13.58 -9.01,20.15 -2.16,4.42 -5.49,8.8 1.08,10.81 6.51,-9.56 14.32,-18.63 22.31,-27.01 2.6,-2.73 8.88,-9.75 11.57,-11.46 1.59,-1.0099995 5.14,-2.0999995 4.9,0.55 -0.43,4.92 -24.37,26.83 -29.07,32.16 -1.31,1.49 -7.79,9.18 -7.55,10.44 0.18,0.92 1.25,1.08 2.21,0.8 1.4,-0.4 7.89,-5.83 10.09,-7.21 8.7,-5.44 26.57,-16.09 35.92,-18.81 2.25,-0.65 4.36,-0.34 3.13,2.37 -12.88,10.15 -27.26,19.77 -41.27,28.27 0.14,0.34 0.62,0.34 1.44,0 10.22,-4.38 23.58,-7.6 34.55,-9.73 2.89,-0.56 7.76,-1.9 10.45,-1.85 10.73,0.17 -8.55,10.52 -10.68,11.71 -9.67,5.39 -20.02,9.54 -30,14.28 q -1.47,0.17 0,0 l 0.02,-0.03 z"
     id="path6" />
  <path
     d="m 190.11307,95.881761 c -1.35,0.16 -0.56,-1.46 -0.39,-2.19 4.2,-18.34 9.92,-32.41 5.81,-51.81 -4.23,-19.95 -20.86,-35.4799995 -41.14,-38.0599995 -2.87,-0.37 -8.13,1.18 -8.91,-1.88 0.76,-3.66 13.45,-1.15000005 16.29,-0.46 20.2,4.87 35.34,23.4499995 38.34,43.7399995 2.53,17.1 -1.81,35.66 -10,50.67 v 0 z"
     id="path8" />
  <path
     d="m 12.993072,84.371761 c -9.1299995,-6.88 -13.11999954,-21.73 -12.98999954,-32.78 0.01,-1.19 0.5,-6.09 0.73,-7.05 0.26,-1.08 2.59000004,-1.98 2.94000004,1.28 1.3,12.08 -0.49,16.83 4.65,29.18 1.34,3.22 3.4199995,6.12 4.6599995,9.37 z"
     id="path10" />
  <path
     d="m 207.40307,46.931761 c 0.66,1.61 0.64,3.43 0,5.04 -0.02,1.04 0.62,4.17 -0.71,4.32 0.12,-11.51 -3.67,-23.1 -10.51,-32.34 -1.22,-1.65 -8.18,-8.45 -8.21,-9.06 -0.02,-0.46 1.04,-1.31 2.16,-0.73 2.19,1.13 9.86,10.6 11.38,13.1 4.03,6.62 5.46,12.04 5.89,19.67 z"
     id="path12" />
  <path
     class="st20"
     d="m 143.32307,59.171761 h 1.44 c -0.97,0.42 -1.94,1.58 -3.23,1.45 -1.08,-1 1.52,-1.28 1.79,-1.45 z"
     id="path14" />
  <path
     class="st27"
     d="m 95.803072,67.811761 c 4.489998,-3.12 7.269998,-6.35 8.839998,-11.68 1.91,-6.47 1.1,-8.94 -0.35,-15.17 -0.13,-0.54 -1.33,-1.83 0.5,-1.22 1.66,0.55 14.5,9 15.18,10.08 -0.11,3.63 -4.14,12.86 -2.2,15.87 0.44,0.68 1.94,0.45 1.79,1.04 -0.41,1.71 -3.58,4.16 -2.15,7.56 2.74,0.71 3,-2.26 4.32,-3.6 1.09,-1.06 1.48,-0.66 0.72,0.72 0.09,0.57 -0.16,2.02 0,2.16 1.93,1.64 9.14,-4.57 11.51,-5.04 l 1.41,6.44 c -2.2,0.12 -3.76,1.63 -6.06,1.54 -2.42,-0.1 -5.53,-2.84 -7.84,-2.16 -3.51,1.04 1.65,3.7 2.42,4.97 -1.69,-0.14 -7.63,1.84 -7.2,3.96 0.65,3.18 11.57,-2.15 14.04,-2.15 9.15,0 9.99,5.96 11.53,13.31 2.25,10.759999 1.88,21.459999 1.79,32.409999 l -1.56,-0.26 -1.99,-7.69 -2.83,0.41 c 1.01,2.54 5,13.26 0.12,10.92 l -6.06,-15.16 -1.36,0.27 c -2.92,-4.96 -2.76,-3.9 -7.92,-5.04 -2.22,-1.37 -9.51,-11.079999 -9.82,-13.249999 -0.39,-2.69 0.23,-3.07 2.73,-3.74 -3.06,-2.77 -4.56,-5.96 -4.49,-9.56 -2.25,-1.94 -4.26,-3.98 -6.04,-6.15 5.4,-5.2 -3.93,-7.57 -8.229998,-8.34 l -0.79,-1.44 h -0.01 z"
     id="path16" />
  <path
     class="st10"
     d="m 95.803072,67.811761 c 4.469998,-0.28 17.469998,5 10.079998,9.72 1.74,1.47 5.93,4.24 6.67,6.32 0.45,1.28 -0.41,2.43 -0.09,3.59 0.54,1.92 8.55,6.87 1.33,7.74 -1.26,1.31 8.42,12.539999 8.64,15.109999 -1.76,-0.39 -4.55,-0.38 -5.95,-0.88 -1.08,-0.39 -1.65,-1.69 -2.47,-1.9 -1.03,-0.26 -2.82,0.91 -3.09,0.63 -0.18,-0.18 0.32,-2.28 -1.17,-2.81 -3.42,-1.24 -3.83,2.07 -4.3,2.12 -1.26,0.13 -8.439998,-2.74 -10.139998,-3.51 -6.92,-3.11 -14.32,-8.489999 -18.95,-14.529999 -1.03,-2.99 0.6,-3.24 4.88,-0.76 l 2.45,-4.06 c 5.47,1.35 6.69,-1.24 6.81,-6.45 2.7,-2.71 3.88,-5.74 3.52,-9.09 l 1.06,-1.24 c 0.2,-0.05 0.47,0.02 0.72,0 z"
     id="path18" />
  <path
     class="st21"
     d="m 85.543072,35.561761 c 5.51,-0.82 12.31,4.8 13.07,10.35 0.9,6.47 -0.15,11.35 -5.46,15.29 -18.77,13.91 -28.98,-22.44 -7.61,-25.64 z"
     id="path20" />
  <path
     class="st26"
     d="m 69.873072,37.581761 -2.89,7.91 c -15.33,-11.75 -16.69,19.41 0,7.2 3.07,11.08 -12.42,10.95 -16.7,2.66 -5.96,-11.54 8.21,-24.91 19.58,-17.77 z"
     id="path22" />
  <path
     class="st24"
     d="m 182.19307,52.691761 c -0.17,1.08 -1.36,1.34 -2.14,1.81 -11.76,6.97 -24.59,12.33 -37.45,16.91 0.12,-2.56 -3.54,-5.46 -1.01,-7.12 1.83,-1.21 7.92,-3.22 10.36,-4.05 9.81,-3.31 20.18,-5.19 30.25,-7.55 z"
     id="path24" />
  <path
     class="st15"
     d="m 130.36307,115.33176 c 1.63,-1.64 -2.91,-6.09 0.71,-5.76 l 7.92,20.87 c -0.29,-6.53 -4.73,-14.28 -5.04,-20.53 -0.07,-1.43 0.13,-1.13 1.43,-1.07 l 3.6,10.07 c 0.27,-4.16 -1.97,-8.63 -2.15,-12.61 -0.07,-1.5 -0.44,-2.06 1.43,-1.79 l 5.77,22.32 c -0.03,3.86 0.28,8.1 0,11.89 -0.08,1.07 0.56,2.08 -1.07,1.78 -6.74,-6.93 -8.01,-17.37 -12.61,-25.2 v 0.03 z"
     id="path26" />
  <path
     class="st6"
     d="m 26.683072,102.37176 c -0.33,-0.22 -0.32,-0.46 0,-0.72 12.52,-15.119999 29.76,-25.189999 44.28,-38.149999 l 3.23,3.23 c 0,0 -47.51,35.639999 -47.51,35.639999 z"
     id="path28" />
  <path
     class="st19"
     d="m 95.083072,67.811761 c 0.9,1.53 0.34,5.22 -0.17,6.67 -0.51,1.45 -2.58,2.33 -3.11,4.08 -0.5,1.65 0.04,3.96 -0.49,4.92 -0.11,0.19 -2.98,2.91 -3.19,2.98 -1.39,0.47 -3.08,-0.88 -4.55,-0.65 0.94,1.62 -0.2,3.75 -1.96,4.22 -2.66,0.7 -3.97,-3.82 -5.24,-0.62 -2.15,-2.81 -3.63,-5.42 -5.04,-8.64 1.21,-3.25 4.46,-3.02 6.3,-0.27 l 0.96,-1.2 c 3.19,1.1 5.03,-0.31 5.5,-4.23 2.7,-0.62 3.73,-1.84 3.08,-3.66 1.36,-0.75 2.41,-0.86 3.6,-1.44 -2.54,8.42 -2.3,8.42 0.72,0 1.22,-0.52 2.82,-1.95 3.6,-2.16 z"
     id="path30" />
  <path
     class="st29"
     d="m 177.15307,77.881761 c -9.83,2.3 -19.01,4.37 -29.17,2.9 -1.04,-0.15 -1.86,0 -2.5,-1.1 l 1.2,-2.39 c 9.27,-0.69 18.69,-2.63 27.95,-0.83 1.05,0.2 2.23,0 2.53,1.43 v 0 z"
     id="path32" />
  <path
     class="st12"
     d="m 42.513072,56.281761 c -6.67,-3.03 -14.34,-4.75 -20.16,-9.35 4.16,0.72 8.4,1.71 12.61,2.15 6.68,0.7 8.29,-2.2 7.55,7.2 z"
     id="path34" />
  <path
     class="st4"
     d="m 87.163072,71.411761 c 1.69,1.58 -1.34,3.09 -3.09,3.79 -0.67,3.94 -2.24,5.2 -4.71,3.77 -1.97,1.33 -2.8,1.79 -4.04,-0.86 -2.19,1.18 -5.36,1.24 -4,-1.66 1.39,-1.71 6.36,-5.24 8.47,-5.63 1.4,-0.26 5.6,0.38 7.37,0.59 z"
     id="path36" />
  <path
     class="st18"
     d="m 87.163072,71.411761 c 0.5,0.06 1.46,-0.31 1.45,0.37 -0.18,3.79 -3.05,3.62 -3.95,4.67 -0.76,0.89 -0.66,3.31 -1.81,4.01 -1.5,0.92 -2.97,-0.46 -3.51,-0.26 -0.07,0.02 -0.12,0.93 -0.62,1.28 -2.3,1.62 -2.99,-1.95 -4.15,-1.97 -0.43,0 -2,1.8 -3.26,1.27 -0.41,-0.93 -1.49,-2.23 -1.34,-3.16 0.13,-0.78 1.13,-0.89 1.34,-1.16 1.91,3.75 5.07,-3.7 5.77,2.88 1.9,-3.34 4.54,-0.29 5.03,-0.72 0.26,-0.9 0.56,-4.7 0.82,-4.94 0.28,-0.27 1.9,-0.05 2.77,-0.47 0.87,-0.42 1.22,-1.66 1.45,-1.78 v -0.02 z"
     id="path38" />
  <path
     class="st3"
     d="m 49.723072,64.931761 h -22.68 c -0.21,0 -4,-0.76 -3.96,-1.43 5.12,-1.03 10.31,-0.44 15.46,-0.74 4.7,-0.27 8.28,-3.52 11.17,2.17 v 0 z"
     id="path40" />
  <path
     class="st2"
     d="m 51.883072,70.691761 c -4.65,3.99 -12.7,4.9 -18.72,5.03 l 12.23,-3.96 z"
     id="path42" />
  <path
     class="st25"
     d="m 156.28307,46.211761 c -6.25,4.19 -12.4,8.7 -19.07,12.25 -0.96,-0.37 0.85,-1.48 1.15,-1.73 3.37,-2.77 12.62,-9.34 16.49,-10.51 0.7,-0.55 1.18,-0.55 1.44,0 v 0 z"
     id="path44" />
  <path
     class="st23"
     d="m 43.953072,42.601761 c -0.82,0.7 -2.68,-1.59 -3.24,-2.15 l -5.38,-7.21 c 1.47,1.57 11.33,7.06 8.63,9.36 v 0 z"
     id="path46" />
  <path
     class="st8"
     d="m 91.483072,69.971761 c -0.6,3.31 -1.84,8.81 -4.67,10.81 -0.41,-4.09 3.18,-7.04 3.95,-10.81 0.19,-0.09 0.51,0.09 0.72,0 z"
     id="path48" />
  <path
     class="st23"
     d="m 66.993072,86.531761 c 0.12,0.09 0.8,2.29 0.42,2.88 -0.23,0.36 -5.15,3.18 -5.46,2.87 -0.16,-1.48 3.86,-6.65 5.03,-5.75 z"
     id="path50" />
  <path
     class="st1"
     d="m 122.43307,62.761761 c -1.32,0.16 -0.62,-1.54 -0.52,-2.32 0.28,-2.07 0.89,-4.36 1.6,-6.31 4.15,2.93 -0.61,5.18 -1.09,8.63 v 0 z"
     id="path52" />
  <path
     class="st28"
     d="m 128.92307,64.931761 c -2.01,2.31 -3.91,4.74 -6.48,6.48 -0.05,-0.34 -0.37,-0.64 -0.72,-0.72 2.24,-2.27 4.52,-4.23 7.2,-5.76 z"
     id="path54" />
  <path
     class="st11"
     d="m 64.113072,44.771761 c 1.19,1.18 -1.84,4.56 -2.87,1.79 -0.92,-2.48 2.56,-2.1 2.87,-1.79 z"
     id="path56" />
  <path
     class="st16"
     d="m 158.44307,44.771761 c -0.71,0.45 -1.45,0.97 -2.16,1.44 -0.45,0.08 -1.07,-0.11 -1.44,0 0.8,-0.8 1.85,-1.7 2.88,-2.16 0.83,-0.17 1.07,-0.11 0.72,0.72 z"
     id="path58" />
  <path
     class="st0"
     d="m 26.683072,102.37176 -1.8,2.16 -0.36,-0.36 c -0.2,-1.46 1.61,-1.84 2.17,-2.51 v 0.72 h -0.01 z"
     id="path60" />
  <path
     class="st14"
     d="m 128.92307,64.931761 c 0.62,-0.71 1.04,-1.96 2.15,-2.16 0.41,2.02 -1.23,1.63 -2.15,2.16 z"
     id="path62" />
  <path
     class="st7"
     d="m 149.08307,73.571761 c -0.48,0.07 -1.63,1.3 -2.88,0.71 -0.22,-1.11 1.84,-1.3 2.88,-0.71 z"
     id="path64" />
  <path
     class="st17"
     d="m 157.72307,44.051761 c 0.55,-0.24 2.57,-0.97 2.88,-0.71 -0.06,1.36 -1.64,1.1 -2.16,1.43 z"
     id="path66" />
  <path
     class="st5"
     d="m 81.223072,41.301761 c 4.47,-0.86 9.71,4.52 9.58,8.89 -0.17,5.78 -10.02,8.92 -14.13,4.7 -4.54,-4.67 -1.43,-12.43 4.55,-13.59 z"
     id="path68" />
  <path
     class="st13"
     d="m 76.363072,85.811761 c 2.38,-0.81 3.82,0.45 6.11,-1.45 1.12,3.56 -5.68,3.48 -6.83,1.45 0.2,-0.63 0.44,-0.62 0.72,0 z"
     id="path70" />
  <path
     class="st9"
     d="m 76.363072,85.811761 h -0.72 c -1.9,-3.34 -0.02,-4.33 0.72,0 z"
     id="path72" />
  <path
     class="st22"
     d="m 86.433072,46.921761 c -0.53,0.52 -4.65,-0.84 -4.31,-2.51 0.61,-3.08 5.95,0.91 4.31,2.51 z"
     id="path74" />
</svg>
