<?xml version="1.0" encoding="UTF-8" standalone="no"?>
<!-- Generator: Adobe Illustrator 18.0.0, SVG Export Plug-In . SVG Version: 6.00 Build 0)  -->

<svg
   version="1.1"
   id="Layer_2"
   x="0px"
   y="0px"
   viewBox="0 0 19.852648 53.1"
   enable-background="new 0 0 19.9 53.1"
   xml:space="preserve"
   sodipodi:docname="I-story-2.svg"
   width="19.852648"
   height="53.099998"
   xmlns:inkscape="http://www.inkscape.org/namespaces/inkscape"
   xmlns:sodipodi="http://sodipodi.sourceforge.net/DTD/sodipodi-0.dtd"
   xmlns="http://www.w3.org/2000/svg"
   xmlns:svg="http://www.w3.org/2000/svg"><defs
   id="defs17" /><sodipodi:namedview
   id="namedview15"
   pagecolor="#ffffff"
   bordercolor="#000000"
   borderopacity="0.25"
   inkscape:showpageshadow="2"
   inkscape:pageopacity="0.0"
   inkscape:pagecheckerboard="0"
   inkscape:deskcolor="#d1d1d1" />
<g
   id="g12"
   transform="translate(-0.05555556)">
	<path
   fill="#f7941e"
   d="m 16.1,7.2 c 0,-0.8 0.1,-1.7 0.2,-2.5 0.2,-1.6 0.5,-2 2.1,-2.3 C 18.7,2.3 19,2.3 19.3,2.2 19.5,2.1 19.7,2 19.8,1.8 20.1,0.6 19.8,0.1 18.6,0.1 14.4,0.1 10.2,0.1 6,0 5.3,0 4.7,0.2 4.2,0.7 3.2,1.9 2,3 0.9,4.1 0.5,4.5 0.4,6.2 0.7,6.6 0.8,6.7 1,6.7 1.1,6.7 c 0.8,0.1 1.5,0.1 2.3,0.2 1,0.2 1.5,0.9 1.5,1.9 -0.2,2.5 -0.3,5.1 -0.4,7.6 -0.2,7 0.3,14 0,21 -0.1,2.5 0.1,5 0.1,7.5 0,0.2 -0.2,0.6 -0.3,0.8 -1.3,1.1 -2.7,2.1 -4,3.2 -0.1,0.1 -0.2,0.3 -0.2,0.5 0,0.6 -0.1,1.3 0,1.9 0,0.3 0.4,0.7 0.6,0.7 1.9,0.3 3.8,0.5 5.8,0.7 1.2,0.1 2.5,0 3.8,0 v 0.4 c 1.9,0 3.8,0 5.8,0 0.3,0 0.7,-0.2 0.8,-0.4 0.9,-1.6 1.8,-3.2 2.6,-4.8 0.8,-1.7 0.3,-2.6 -1.5,-2.8 -0.1,0 -0.2,0 -0.2,0 -0.9,-0.1 -1.5,-0.4 -1.6,-1.4 0,-0.5 -0.1,-0.9 -0.1,-1.4 0,-4.5 0,-9 -0.1,-13.4 0,-3.7 -0.1,-7.3 -0.1,-11 C 15.7,14.4 16,10.8 16.1,7.2 Z M 15,31.8 c 0,3.7 0.1,7.4 0.1,11.1 0,0.5 0,1.1 0.1,1.6 0.1,0.7 0.5,1.1 1.2,1.1 0.3,0 0.6,0 0.9,0.1 1.5,0.1 1.5,0.1 1.5,1.8 -0.2,0 -0.4,0.1 -0.7,0.1 C 16,47.5 13.9,47.4 11.8,47.3 9.9,47 8,46.9 6.1,46.9 5.4,46.9 5.2,46.6 5.4,46 5.9,46 6.5,45.9 7,45.8 8.3,45.7 9,45 9.3,43.9 9.6,42.4 9.9,40.7 9.9,39.2 9.8,31.1 9.6,23 9.4,14.9 9.3,12.1 9.2,9.4 9.2,6.6 9.2,5.9 9.2,5.1 9.3,4.4 9.5,2.9 9.1,2.3 7.6,2 7.1,1.8 6.5,1.9 5.8,1.8 V 0.7 H 19 V 1.8 C 18.6,1.9 18.2,2 17.8,2.1 16.2,2.5 15.5,3.2 15.5,4.9 15.3,10.4 15,15.9 14.9,21.5 14.8,24.8 15,28.3 15,31.8 Z"
   id="path2" />
	<path
   fill="#ffffff"
   d="M 15.5,4.8 C 15.6,3.1 16.2,2.4 17.8,2 18.2,1.9 18.6,1.8 19,1.7 v -1 H 5.8 V 1.9 C 6.5,1.9 7,1.9 7.6,2.1 9.1,2.4 9.4,3 9.3,4.5 9.2,5.1 9.1,5.9 9.2,6.6 c 0,2.8 0.1,5.5 0.2,8.3 0.2,8.1 0.4,16.2 0.5,24.3 0,1.6 -0.3,3.2 -0.6,4.7 -0.2,1 -0.9,1.8 -2.2,1.9 -0.5,0 -1.1,0.1 -1.6,0.2 -0.2,0.6 -0.1,0.9 0.7,0.9 1.9,0 3.8,0.1 5.7,0.2 2.1,0.1 4.2,0.2 6.3,0.3 0.2,0 0.5,0 0.7,-0.1 0,-1.6 0,-1.6 -1.5,-1.8 -0.3,0 -0.6,0 -0.9,-0.1 -0.7,0 -1.1,-0.4 -1.2,-1.1 -0.1,-0.5 -0.1,-1 -0.1,-1.6 0,-3.7 0,-7.4 -0.1,-11.1 0,-3.5 -0.2,-6.9 -0.1,-10.4 0,-5.4 0.3,-10.9 0.5,-16.4 z M 11.8,4.3 c 0.1,0 0.2,0 0.2,0 0,0.3 0.1,0.5 0.2,0.8 0.1,2.5 0.2,5 0.3,7.6 0.1,2.1 0.2,4.2 0.2,6.2 0,0.8 0,1.6 -0.1,2.4 0,0.2 -0.2,0.4 -0.4,0.6 -0.1,-0.2 -0.3,-0.4 -0.3,-0.6 -0.1,-4.9 -0.3,-9.7 -0.4,-14.6 0.1,-0.9 0.2,-1.6 0.3,-2.4 z m 0.7,27.3 c 0,3.3 0,6.5 0,9.8 0,0.8 -0.1,1.6 -0.2,2.4 -0.1,0 -0.2,0 -0.4,0 -0.3,-5.5 -0.2,-11.1 0,-16.7 0.6,-0.1 0.7,0.3 0.7,0.8 0,1.2 -0.1,2.4 -0.1,3.7 z m -0.4,-6.5 c -0.3,0 -0.6,-0.4 -1.1,-0.8 0.5,-0.4 0.7,-0.8 1,-0.8 0.6,0 0.8,0.5 0.8,1 0,0.3 -0.5,0.7 -0.7,0.6 z"
   id="path4" />
	<path
   fill="#f7941e"
   d="m 12.7,18.8 c 0,0.8 0,1.6 -0.1,2.4 0,0.2 -0.2,0.4 -0.4,0.6 -0.1,-0.2 -0.3,-0.4 -0.3,-0.6 -0.1,-4.9 -0.3,-9.7 -0.4,-14.6 0,-0.8 0.1,-1.5 0.2,-2.3 0.1,0 0.2,0 0.2,0 0,0.3 0.1,0.5 0.2,0.8 0.1,2.5 0.2,5 0.3,7.6 0.2,2 0.3,4 0.3,6.1 z"
   id="path6" />
	<path
   fill="#f7941e"
   d="m 12.6,27.8 c 0,1.3 -0.1,2.5 -0.1,3.8 0,3.3 0,6.5 0,9.8 0,0.8 -0.1,1.6 -0.2,2.4 -0.1,0 -0.2,0 -0.4,0 -0.3,-5.5 -0.2,-11.1 0,-16.7 0.6,-0.1 0.7,0.3 0.7,0.7 z"
   id="path8" />
	<path
   fill="#f7941e"
   d="m 12.8,24.5 c 0,0.2 -0.5,0.6 -0.7,0.6 -0.3,0 -0.6,-0.4 -1.1,-0.8 0.5,-0.4 0.7,-0.8 1,-0.8 0.6,0 0.8,0.6 0.8,1 z"
   id="path10" />
</g>
</svg>
