<?xml version="1.0" encoding="UTF-8" standalone="no"?>
<svg
   version="1.1"
   width="59.91"
   height="78.646782"
   id="svg8"
   sodipodi:docname="J-glow.svg"
   xmlns:inkscape="http://www.inkscape.org/namespaces/inkscape"
   xmlns:sodipodi="http://sodipodi.sourceforge.net/DTD/sodipodi-0.dtd"
   xmlns="http://www.w3.org/2000/svg"
   xmlns:svg="http://www.w3.org/2000/svg">
  <defs
     id="defs12" />
  <sodipodi:namedview
     id="namedview10"
     pagecolor="#ffffff"
     bordercolor="#000000"
     borderopacity="0.25"
     inkscape:showpageshadow="2"
     inkscape:pageopacity="0.0"
     inkscape:pagecheckerboard="0"
     inkscape:deskcolor="#d1d1d1" />
  <!-- Exported by Scratch - http://scratch.mit.edu/ -->
  <g
     id="ID0.5927098118700087"
     transform="translate(0,-2.1428571e-4)">
    <g
       id="ID0.4447302892804146">
      <g
         id="ID0.7447618972510099">
        <path
           id="ID0.10947818402200937"
           fill="#00cccc"
           d="m 59.88,14.117 c -0.29,3.45 -1.77,6.5 -4.13,8.8 1.16,4.71 1.7,8.39 1.7,11.48 v 8 c 0,5.36 -0.37,9.24 -1.16,12.23 -1.41,5.31 -1.8,6.49 -2.05,7.18 -1.76,4.89 -4.43,8.76 -7.92,11.46 -3.55,2.74 -7.65,4.47 -12.2,5.16 -0.19,0.03 -0.39,0.06 -0.58,0.08 -0.95,0.09 -1.96,0.14 -3.01,0.14 -6.55,0 -12.89,-1.91 -18.82,-5.67 C 1.63,66.547 -0.04,58.427 0.06,53.427 0.02,52.937 0,52.437 0,51.897 c 0,-2.65 0.53,-5.37 1.59,-8.07 1.86,-4.81 4.89,-7.31 7.1,-8.55 4.78,-2.63 8.42,-3.79 11.9,-3.79 3.48,0 6.8,1.24 9.5,3.53 -0.12,-1.38 -0.36,-2.85 -0.73,-4.41 -2.57,-0.09 -5,-0.82 -7.06,-2.12 -2.75,-1.76 -4.67,-3.91 -5.79,-6.45 -1.65,-3.68 -1.28,-6.88 -0.63,-8.99 1.69,-5.6 6.32,-9.65 12.74,-11.1 0.34,-0.08 0.69,-0.14 1.04,-0.19 1.7,-0.22 3.43,-0.44 5.18,-0.66 1.52,-0.28 4.26,-0.63 11.06,-1.07 0.7,-0.05 1.4,-0.03 2.09,0.06 1.95,0.24 4.87,1.09 7.68,3.75 3.69,3.48 4.24,7.36 4.24,9.36 0,0.31 -0.01,0.62 -0.03,0.92 z" />
      </g>
    </g>
    <g
       id="ID0.1137806847691536">
      <path
         id="ID0.6012937603518367"
         fill="#ffffff"
         d="m 48.914,13.198 c -0.118,1.407 -0.998,2.346 -2.639,2.814 -1.291,0.294 -2.582,0.587 -3.871,0.88 0.762,1.701 1.584,4.31 2.463,7.828 1.056,4.164 1.584,7.389 1.584,9.676 V 42.4 c 0,4.281 -0.265,7.419 -0.792,9.412 -0.938,3.519 -1.525,5.601 -1.759,6.245 -1.056,2.933 -2.493,5.103 -4.311,6.51 -2.053,1.583 -4.428,2.579 -7.124,2.99 -0.587,0.058 -1.231,0.088 -1.936,0.088 -4.457,0 -8.768,-1.319 -12.931,-3.958 -4.691,-2.991 -6.86,-6.538 -6.509,-10.644 -0.059,-0.293 -0.088,-0.674 -0.088,-1.144 0,-1.289 0.277,-2.652 0.836,-4.09 0.557,-1.437 1.304,-2.419 2.243,-2.947 2.872,-1.583 5.042,-2.375 6.509,-2.375 0.996,0 1.891,0.396 2.683,1.188 0.792,0.792 1.188,1.687 1.188,2.684 0,0.821 -0.352,1.525 -1.056,2.11 -0.235,0.176 -0.763,0.295 -1.583,0.353 -0.938,0.118 -1.511,0.015 -1.716,-0.309 -0.206,-0.321 -0.659,-0.776 -1.363,-1.363 -0.234,-0.116 -0.587,-0.058 -1.056,0.176 -0.763,0.295 -1.202,0.998 -1.319,2.111 0.059,0.587 0.088,1.438 0.088,2.551 -0.059,1.936 0.733,3.93 2.375,5.981 0.177,0.176 1.144,0.822 2.903,1.936 3.459,2.111 6.479,3.166 9.06,3.166 0.645,0 1.261,-0.058 1.848,-0.176 0.879,-0.116 2.022,-0.557 3.43,-1.319 1.993,-2.111 3.372,-5.043 4.135,-8.796 0.409,-2.111 0.732,-5.424 0.967,-9.939 V 36.86 c 0,-3.694 -0.675,-7.74 -2.022,-12.139 0,-0.176 0,-0.439 0,-0.792 -0.235,-0.176 -0.439,-0.615 -0.616,-1.319 -0.294,-0.938 -0.47,-1.465 -0.527,-1.583 -0.059,-0.527 -0.147,-1.128 -0.264,-1.803 -0.118,-0.674 -0.44,-1.1 -0.968,-1.276 -0.294,-0.058 -1.29,0.207 -2.99,0.792 -1.878,0.587 -3.167,0.88 -3.871,0.88 -0.703,0 -1.29,-0.146 -1.759,-0.44 -0.822,-0.527 -1.35,-1.055 -1.583,-1.583 -0.235,-0.527 -0.294,-0.968 -0.176,-1.319 0.527,-1.816 2.08,-3.02 4.661,-3.606 1.817,-0.233 3.664,-0.469 5.542,-0.703 1.349,-0.293 4.69,-0.616 10.027,-0.968 0.469,0.059 0.968,0.338 1.495,0.836 0.527,0.498 0.792,0.951 0.792,1.361 z" />
    </g>
  </g>
</svg>
