<?xml version="1.0" encoding="UTF-8" standalone="no"?>
<svg
   version="1.1"
   width="77.669998"
   height="73.82"
   id="svg8"
   sodipodi:docname="K-glow.svg"
   xmlns:inkscape="http://www.inkscape.org/namespaces/inkscape"
   xmlns:sodipodi="http://sodipodi.sourceforge.net/DTD/sodipodi-0.dtd"
   xmlns="http://www.w3.org/2000/svg"
   xmlns:svg="http://www.w3.org/2000/svg">
  <defs
     id="defs12" />
  <sodipodi:namedview
     id="namedview10"
     pagecolor="#ffffff"
     bordercolor="#000000"
     borderopacity="0.25"
     inkscape:showpageshadow="2"
     inkscape:pageopacity="0.0"
     inkscape:pagecheckerboard="0"
     inkscape:deskcolor="#d1d1d1" />
  <!-- Exported by Scratch - http://scratch.mit.edu/ -->
  <g
     id="ID0.051367413718253374">
    <g
       id="ID0.8733905404806137">
      <g
         id="ID0.1347602866590023">
        <path
           id="ID0.9752935594879091"
           fill="#00cccc"
           d="m 77.67,55.77 v 0.62 c 0,6.55 -4.23,11.88 -10.81,13.66 -1.82,0.53 -3.88,0.68 -8.72,0.68 0,0 -0.79,0.05 -2.82,0.57 -2.39,0.62 -4.73,1.23 -7.03,1.81 -0.13,0.04 -0.25,0.07 -0.38,0.09 -1.91,0.42 -3.58,0.62 -5.11,0.62 -0.34,0 -0.68,-0.01 -1,-0.03 -2.21,-0.11 -5.28,-0.9 -8.28,-3.74 -0.14,-0.13 -0.27,-0.26 -0.4,-0.39 -1.8,0.39 -3.83,0.56 -6.21,0.49 -0.25,0.05 -0.55,0.12 -0.89,0.19 -2.23,0.49 -3.82,0.72 -5.25,0.74 -0.1,0.01 -0.3,0.04 -0.64,0.11 -1.75,0.34 -3.28,0.51 -4.65,0.51 -3.12,0 -6.07,-0.76 -8.77,-2.27 C 6.45,69.29 6.21,69.14 5.97,68.98 2.13,66.44 0.11,61.99 0.7,57.38 1.4,52.03 4.59,47.9 9.23,45.99 V 44.81 C 8.78,43.06 8.76,41.2 9.2,39.41 9.22,39.26 9.27,38.75 9.24,37.71 9.23,37.66 9.23,37.61 9.23,37.57 9.18,34.28 9.17,31.76 9.21,29.91 8.17,29.54 7.17,29.06 6.23,28.47 2.32,26.03 0,21.87 0,17.33 0,13.31 1.81,6.24 13.93,4.05 16.08,3.65 19.3,3.04 23.6,2.24 c 0.29,-0.07 0.78,-0.2 1.47,-0.38 1.84,-0.49 3.38,-0.72 4.84,-0.72 1.42,0 2.73,0.18 3.93,0.49 C 34.39,1.4 34.95,1.2 35.52,1.04 37.37,0.5 39.61,0.27 47.13,0.27 48.98,0.15 51.43,0.06 54.59,0 c 0.39,0 0.79,0.01 1.18,0.04 0.09,0 0.19,-0.01 0.31,-0.01 C 56.33,0.01 56.57,0 56.82,0 h 2.11 c 6.22,0 11.38,3.03 13.8,8.11 0.07,0.13 0.13,0.27 0.19,0.41 2.01,4.7 1.1,9.96 -2.43,14.08 -2.22,2.64 -5.07,3.71 -7.38,4.34 -1.78,0.53 -3.7,0.7 -6.03,0.55 -0.46,0.38 -1.24,1.07 -2.4,2.26 -0.06,0.06 -0.11,0.12 -0.17,0.18 0.27,0.67 0.57,1.38 0.87,2.13 1.33,3.24 2.01,4.74 2.32,5.38 0.32,0.46 0.62,0.95 0.87,1.46 0.51,1.01 1.25,2.44 2.22,4.28 0.24,-0.03 0.5,-0.07 0.76,-0.1 2.36,-0.44 4.87,-0.18 7.39,0.76 3.53,1.33 6.21,3.8 7.58,6.97 l 0.27,0.63 c 0.58,1.37 0.88,2.84 0.88,4.33 z" />
      </g>
    </g>
    <g
       id="ID0.1337555479258299">
      <path
         id="ID0.23075303388759494"
         fill="#ffffff"
         d="m 66.41,55.157 c 0.176,0.411 0.264,0.616 0.264,0.616 0,0 0,0.206 0,0.615 0,1.584 -0.938,2.61 -2.814,3.079 -0.527,0.176 -2.434,0.264 -5.717,0.264 -1.35,0 -3.211,0.308 -5.586,0.924 -2.375,0.615 -4.706,1.218 -6.993,1.803 -1.35,0.295 -2.404,0.411 -3.166,0.353 -0.352,0 -0.792,-0.249 -1.319,-0.748 -0.528,-0.497 -0.792,-0.981 -0.792,-1.451 0,-0.233 0.058,-0.439 0.176,-0.616 0.762,-1.113 2.169,-1.904 4.223,-2.375 2.403,-0.469 3.927,-0.938 4.573,-1.407 -1.583,-2.58 -3.841,-6.538 -6.772,-11.875 -0.763,-1.816 -2.142,-4.808 -4.134,-8.972 -0.295,-0.703 -0.822,-1.847 -1.584,-3.431 -1.407,0.998 -3.05,2.463 -4.926,4.398 -2.17,2.229 -3.753,3.782 -4.75,4.662 -0.41,0.294 -1.055,0.821 -1.935,1.583 -0.118,5.044 0.116,8.943 0.703,11.699 0.821,0.059 1.861,-0.015 3.123,-0.221 1.26,-0.204 2.067,-0.308 2.419,-0.308 0.938,0 1.612,0.411 2.023,1.231 0.233,0.528 0.352,0.968 0.352,1.319 0,2.17 -2.493,3.109 -7.477,2.814 -0.294,0 -1.174,0.163 -2.639,0.484 -1.467,0.323 -2.507,0.483 -3.123,0.483 -0.615,0 -1.451,0.104 -2.507,0.309 -1.056,0.206 -1.906,0.308 -2.551,0.308 -1.231,0 -2.375,-0.293 -3.431,-0.88 -0.352,-0.233 -0.499,-0.586 -0.439,-1.056 0.229,-1.759 1.265,-2.727 3.104,-2.902 2.987,-0.352 4.653,-0.616 4.998,-0.792 0.345,-0.176 0.519,-0.645 0.519,-1.407 0,-0.527 0,-1.349 0,-2.463 0,-1.172 0,-1.993 0,-2.463 v -5.981 c 0,-0.058 -0.118,-0.293 -0.353,-0.703 0.293,-1.113 0.41,-2.668 0.353,-4.662 -0.06,-3.694 -0.06,-6.392 0,-8.093 0.058,-2.463 0.264,-5.482 0.615,-9.06 0.117,-0.88 0.058,-1.377 -0.176,-1.495 -0.646,0.059 -1.701,0.25 -3.166,0.571 -1.467,0.323 -2.522,0.483 -3.167,0.483 -0.822,0 -1.583,-0.22 -2.287,-0.659 -0.703,-0.439 -1.056,-1.04 -1.056,-1.804 0,-1.055 1.642,-1.876 4.926,-2.463 2.169,-0.409 5.454,-1.024 9.852,-1.847 0.293,-0.058 0.997,-0.233 2.111,-0.528 0.88,-0.233 1.553,-0.352 2.023,-0.352 1.641,0 2.463,0.587 2.463,1.76 0,0.938 -0.297,1.789 -0.891,2.551 -0.712,0.47 -1.767,0.747 -3.16,0.835 -1.395,0.088 -2.152,0.206 -2.271,0.353 -0.119,0.147 -0.325,1.451 -0.621,3.914 -0.357,2.814 -0.534,4.78 -0.534,5.894 0,0.646 0,1.935 0,3.87 0,1.877 0,3.313 0,4.31 l 0.264,0.265 19.527,-18.427 c -0.822,-0.058 -2.082,-0.117 -3.782,-0.178 -2.874,-0.058 -4.398,-1.209 -4.574,-3.453 0,-0.354 0.249,-0.782 0.747,-1.285 0.498,-0.502 0.981,-0.812 1.452,-0.931 0.761,-0.236 3.752,-0.354 8.972,-0.354 1.7,-0.118 4.134,-0.206 7.3,-0.266 0.469,0.06 1.145,0.06 2.023,0 0.996,0 1.701,0 2.111,0 1.992,0 3.283,0.616 3.871,1.848 0.352,0.821 0.115,1.701 -0.705,2.639 -0.234,0.294 -0.91,0.587 -2.023,0.88 -0.703,0.234 -1.934,0.234 -3.693,0 -0.764,-0.058 -1.906,-0.058 -3.43,0 -0.176,0.587 -0.529,1.026 -1.057,1.319 -1.35,0.821 -3.049,2.287 -5.102,4.397 -1.701,1.76 -3.401,3.549 -5.102,5.366 0.704,1.877 1.876,4.809 3.519,8.796 1.993,4.868 3.167,7.389 3.519,7.564 0.586,1.174 1.465,2.874 2.639,5.102 2.521,3.988 3.986,5.981 4.398,5.981 1.699,-0.176 4.25,-0.497 7.652,-0.968 0.41,-0.116 0.967,-0.044 1.672,0.22 0.704,0.267 1.143,0.604 1.319,1.014 z" />
    </g>
  </g>
</svg>
