<?xml version="1.0" encoding="UTF-8" standalone="no"?>
<!-- Generator: Adobe Illustrator 18.0.0, SVG Export Plug-In . SVG Version: 6.00 Build 0)  -->

<svg
   version="1.1"
   id="Layer_2"
   x="0px"
   y="0px"
   viewBox="0 0 48.490683 52.702777"
   enable-background="new 0 0 48.4 52.7"
   xml:space="preserve"
   sodipodi:docname="K-story-2.svg"
   width="48.490685"
   height="52.702778"
   xmlns:inkscape="http://www.inkscape.org/namespaces/inkscape"
   xmlns:sodipodi="http://sodipodi.sourceforge.net/DTD/sodipodi-0.dtd"
   xmlns="http://www.w3.org/2000/svg"
   xmlns:svg="http://www.w3.org/2000/svg"><defs
   id="defs17" /><sodipodi:namedview
   id="namedview15"
   pagecolor="#ffffff"
   bordercolor="#000000"
   borderopacity="0.25"
   inkscape:showpageshadow="2"
   inkscape:pageopacity="0.0"
   inkscape:pagecheckerboard="0"
   inkscape:deskcolor="#d1d1d1" />
<g
   id="g12"
   transform="translate(-0.00931652)">
	<path
   fill="#f7941e"
   d="m 45.4,45.1 c -2.3,-0.4 -4.3,-1.4 -6.1,-3 -2,-1.8 -3.9,-3.8 -5.9,-5.6 -0.8,-0.7 -1.6,-1.3 -2.4,-2.1 -3.3,-3.3 -6.5,-6.7 -9.8,-10.1 -0.4,-0.4 -0.3,-0.5 0.1,-0.9 1,-0.9 1.9,-1.8 2.9,-2.8 1.1,-1.1 2.1,-2.2 3.2,-3.3 0.7,-0.7 1.6,-1.2 2.4,-1.8 0.7,-0.5 1.4,-1.1 2,-1.7 1.9,-2.1 3.8,-4.3 5.7,-6.4 0.4,-0.4 0.8,-0.9 1.3,-1.2 0.9,-0.7 1.8,-1.3 2.7,-1.9 0.8,-0.5 1.6,-1 2.4,-1.2 1,-0.2 1.4,-0.7 1.3,-1.7 0,-0.1 0,-0.3 0,-0.4 C 45.3,0.5 45.1,0.2 44.5,0.2 43.7,0.2 42.9,0 42.1,0 c -3.5,0.2 -7,0.5 -10.5,0.8 -0.2,0 -0.3,0.1 -0.5,0.2 -1.2,0.8 -2.5,1.5 -3.8,2.3 -0.5,0.3 -0.8,1.4 -0.5,2 0.3,0.7 0.8,0.4 1.3,0.3 0.5,-0.1 1,-0.1 1.7,-0.2 -0.2,0.4 -0.3,0.5 -0.4,0.6 -0.7,0.7 -1.4,1.3 -2.1,2 -1.2,1.1 -2.4,2.3 -3.6,3.4 -0.4,0.4 -0.8,0.8 -1.2,1.3 -1.5,1.8 -3,3.7 -4.5,5.5 -0.4,0.5 -0.9,0.9 -1.3,1.3 -0.1,0 -0.2,-0.1 -0.2,-0.1 0,-1.4 0,-2.8 0,-4.1 0,-3.1 0,-6.2 -0.1,-9.3 0,-1.8 0.7,-2.7 2.5,-2.7 0.3,0 0.5,0 0.8,0 0.6,0 0.8,-0.2 0.9,-0.8 0,-0.3 0,-0.6 0,-0.9 C 20.6,1.1 20.4,1 19.9,1 19.2,1 18.5,0.9 17.8,0.9 13.8,0.8 9.8,0.7 5.8,0.7 5.3,0.7 4.7,0.9 4.3,1.2 3.3,2 2.5,2.9 1.6,3.8 0.7,4.7 -0.3,5.5 0.1,7 c 0.1,0.5 0.3,0.8 0.8,0.8 0.9,0 1.7,0.1 2.6,0.1 2,0.1 2,0.5 2.1,2.2 0.1,2 0.1,3.9 0.1,5.9 0,4.1 -0.1,8.2 -0.1,12.2 0,5.1 -0.1,10.1 0,15.2 0,1.7 -0.4,2.8 -1.7,3.9 -1.2,1.1 -2.4,2.3 -2.2,4.2 0.1,0.8 0.3,1 1.1,1 0.9,-0.1 1.9,-0.2 2.8,-0.1 3.1,0.1 6.2,0.2 9.4,0.3 0.8,0 1.6,0.1 1.9,-0.9 0,-0.1 0.2,-0.1 0.2,-0.2 1,-1.4 2.2,-2.6 2.9,-4.2 0.6,-1.6 0.5,-1.6 -1.2,-1.5 -1.5,0.1 -2.3,-0.4 -2.3,-1.9 0,-2.4 0,-4.7 0,-7.1 0,-0.1 0.1,-0.1 0.1,-0.1 0.9,1 1.7,2 2.6,2.9 1.1,1.1 2.2,2.1 3.4,3.2 1.2,1.2 2.3,2.5 3.7,3.6 3.1,2.6 6.7,4.5 10.8,5.1 1.1,0.2 2.2,0.1 3.3,0.3 1.6,0.3 2.8,-0.5 4,-1.2 1.1,-0.7 2.1,-1.5 3.1,-2.4 0.7,-0.7 0.8,-1.5 1,-2.4 -1.2,-0.4 -2.1,-0.6 -3.1,-0.8 z m 1.1,2.2 c -2.6,0 -5,-0.8 -7.4,-1.3 -0.8,-0.2 -1.5,-0.4 -2.3,-0.6 -2,-0.6 -3.6,-1.9 -5.1,-3.3 C 30.2,40.7 28.8,39.2 27.3,37.8 25.5,36.2 23.7,34.6 22,33 21.7,32.7 21.4,32.3 21.1,32 19.6,30.4 18,28.8 16.4,27.3 16.3,27.2 16.1,27.1 15.8,27 c 0,0.5 -0.1,0.8 -0.1,1.2 0.5,4.4 0.1,8.8 0.1,13.2 0,0.9 0,1.7 0,2.6 0.1,1.7 1,2.4 2.7,2.4 h 1.2 c -0.2,0.5 -0.4,1 -0.5,1.4 H 6.3 c 0,-0.4 -0.1,-0.9 -0.1,-1.1 1.1,-0.4 2.2,-0.7 3.2,-1.2 0.3,-0.2 0.7,-0.6 0.7,-1 0,-4.3 0,-8.6 0,-12.9 0,-3.7 -0.3,-7.4 -0.2,-11.1 0.3,-4.7 0,-9.5 0,-14.2 C 9.9,5.6 9.7,4.9 9.6,4.3 9.4,3.5 8.8,3.1 8,2.9 7.6,2.8 7.2,2.6 6.7,2.6 5.9,2.6 5.6,2.1 5.8,1.3 c 4.7,-0.5 9.4,0.3 14,0.2 0.2,0.9 0.2,1 -0.6,0.9 -1.4,0 -2.6,0.4 -3.2,1.8 -0.1,0.3 -0.2,0.7 -0.2,1.1 0,3.3 0,6.6 -0.1,9.9 0,2.1 -0.1,4.3 -0.1,6.4 0,1.5 0.2,1.6 1.5,0.9 1.1,-0.6 2,-1.4 2.8,-2.3 1.5,-1.8 3,-3.5 4.5,-5.2 0.4,-0.4 0.8,-0.8 1.2,-1.2 0.8,-0.8 1.6,-1.5 2.3,-2.3 C 29.5,10 31,8.4 32.6,6.8 33.4,5.9 34.3,5.1 35.1,4.2 35.6,3.7 35.4,3 34.8,2.8 34.3,2.6 33.8,2.6 33.3,2.5 32.9,2.4 32.5,2.4 32.1,2.4 c 0,-0.4 0,-0.7 -0.1,-1 4.2,0 8.3,-1.1 12.5,-0.3 0.2,0.7 0.1,1.1 -0.8,1.3 -0.5,0.1 -1,0.3 -1.5,0.6 -1.9,1.1 -3.8,2.2 -5.3,3.8 -2,2.1 -3.9,4.4 -5.8,6.5 -0.3,0.3 -0.6,0.6 -0.9,0.9 -0.8,0.6 -1.7,1.2 -2.5,1.9 -1.5,1.2 -3.1,2.5 -4.2,4.1 -0.7,1 -1.7,1.9 -2.5,2.8 -0.7,0.8 -0.7,1.1 -0.1,1.9 0.6,0.8 1.1,1.5 1.8,2.2 3.5,3.5 6.9,7.1 10.5,10.5 1.9,1.9 3.9,3.7 6,5.4 1.8,1.5 3.9,2.5 6.3,2.8 0.7,0.1 1.4,0.3 2.1,0.4 -0.1,1.1 -0.1,1.1 -1.1,1.1 z"
   id="path2" />
	<path
   fill="#ffffff"
   d="M 45.5,45.8 C 43.1,45.5 41,44.5 39.2,43 c -2.1,-1.7 -4,-3.5 -6,-5.4 -3.5,-3.5 -7,-7 -10.5,-10.5 C 22,26.4 21.5,25.6 20.9,24.9 20.3,24.1 20.3,23.7 21,23 c 0.9,-0.9 1.8,-1.8 2.5,-2.8 1.2,-1.7 2.7,-2.9 4.2,-4.1 0.8,-0.6 1.7,-1.2 2.5,-1.9 0.3,-0.3 0.6,-0.6 0.9,-0.9 C 33,11.1 34.9,8.9 36.9,6.8 38.4,5.2 40.4,4.1 42.2,3 42.6,2.7 43.1,2.5 43.7,2.4 44.5,2.2 44.6,1.8 44.5,1.1 40.3,0.3 36.2,1.4 32,1.4 c 0,0.3 0,0.6 0.1,1 0.4,0 0.8,0.1 1.2,0.1 0.5,0.1 1,0.1 1.5,0.3 0.6,0.3 0.8,0.9 0.3,1.4 -0.8,0.9 -1.7,1.8 -2.5,2.6 -1.5,1.6 -3.1,3.1 -4.7,4.7 -0.8,0.8 -1.5,1.6 -2.3,2.3 -0.4,0.4 -0.9,0.8 -1.2,1.2 -1.5,1.7 -3,3.4 -4.5,5.2 -0.8,1 -1.7,1.7 -2.8,2.3 -1.3,0.7 -1.5,0.6 -1.5,-0.9 0,-2.1 0.1,-4.2 0.1,-6.4 0,-3.3 0,-6.6 0.1,-9.9 0,-0.4 0,-0.7 0.2,-1.1 0.6,-1.4 1.7,-1.9 3.2,-1.8 0.8,0 0.9,0 0.7,-0.9 -4.7,0 -9.4,-0.7 -14,-0.2 -0.2,0.8 0,1.2 0.9,1.3 0.4,0 0.9,0.2 1.3,0.3 0.8,0.2 1.4,0.6 1.5,1.4 0.1,0.7 0.3,1.3 0.3,2 0.1,4.7 0.3,9.5 0,14.2 -0.2,3.8 0.1,7.4 0.1,11.1 0.1,4.3 0,8.6 0,12.9 0,0.3 -0.4,0.8 -0.7,1 -1,0.4 -2,0.8 -3.2,1.2 0,0.2 0.1,0.7 0.1,1.1 H 19 c 0.1,-0.4 0.3,-0.9 0.5,-1.4 h -1.2 c -1.7,0 -2.5,-0.7 -2.7,-2.4 -0.1,-0.9 0,-1.7 0,-2.6 0,-4.4 0.4,-8.8 -0.1,-13.2 0,-0.3 0.1,-0.7 0.1,-1.2 0.3,0.1 0.5,0.2 0.6,0.3 1.6,1.6 3.1,3.1 4.7,4.7 0.3,0.3 0.6,0.7 0.9,1 1.8,1.6 3.6,3.2 5.3,4.8 1.5,1.4 2.9,2.9 4.4,4.3 1.5,1.4 3.1,2.7 5.1,3.3 0.8,0.2 1.5,0.4 2.3,0.6 2.5,0.5 4.9,1.3 7.4,1.3 1,0 1,0 1.1,-1.1 C 46.9,46 46.2,45.9 45.5,45.8 Z M 11.8,5.8 c 0.1,0 0.2,0 0.3,0 0.1,0.4 0.3,0.9 0.3,1.3 0.1,2.3 0,4.5 0.1,6.8 0,2.2 0.1,4.5 0.2,6.7 0,0.4 0,0.8 -0.6,0.7 C 11.6,16.1 11.8,11 11.8,5.8 Z m 1.1,36.5 c 0,0.2 -0.1,0.5 -0.1,0.7 h -0.3 c -0.1,-0.9 -0.1,-1.8 -0.2,-2.7 0,-3.5 0,-7.1 0,-10.6 0,-0.5 0,-1 0.1,-1.4 0,-0.1 0.3,-0.2 0.4,-0.4 0.1,0.2 0.3,0.3 0.3,0.5 0,4.6 -0.1,9.3 -0.2,13.9 z M 12.6,25.6 c -0.4,-0.5 -0.7,-0.7 -0.8,-1 -0.1,-0.4 0.1,-0.9 0.6,-0.8 0.4,0.1 0.7,0.6 0.9,0.9 0,0.1 -0.3,0.4 -0.7,0.9 z"
   id="path4" />
	<path
   fill="#f7941e"
   d="M 12,21.3 C 11.5,16.1 11.8,11 11.8,5.9 c 0.1,0 0.2,0 0.3,0 0.1,0.4 0.3,0.9 0.3,1.3 0.1,2.3 0,4.5 0.1,6.8 0,2.2 0.1,4.5 0.2,6.7 0,0.3 0,0.6 -0.7,0.6 z"
   id="path6" />
	<path
   fill="#f7941e"
   d="m 13.2,28.4 c -0.1,4.6 -0.2,9.3 -0.3,13.9 0,0.2 -0.1,0.5 -0.1,0.7 h -0.3 c -0.1,-0.9 -0.1,-1.8 -0.2,-2.7 0,-3.5 0,-7.1 0,-10.6 0,-0.5 0,-1 0.1,-1.4 0,-0.1 0.3,-0.2 0.4,-0.4 0.2,0.2 0.4,0.3 0.4,0.5 z"
   id="path8" />
	<path
   fill="#f7941e"
   d="m 13.3,24.7 c 0.1,0.1 -0.3,0.4 -0.6,0.9 -0.4,-0.5 -0.7,-0.7 -0.8,-1 -0.1,-0.4 0.1,-0.9 0.6,-0.8 0.3,0.1 0.6,0.5 0.8,0.9 z"
   id="path10" />
</g>
</svg>
