<?xml version="1.0" encoding="UTF-8" standalone="no"?>
<!-- Generator: Adobe Illustrator 18.0.0, SVG Export Plug-In . SVG Version: 6.00 Build 0)  -->

<svg
   version="1.1"
   id="Layer_2"
   x="0px"
   y="0px"
   viewBox="0 0 43.1 48.510358"
   enable-background="new 0 0 43.1 48.6"
   xml:space="preserve"
   sodipodi:docname="K-story-3.svg"
   width="43.099998"
   height="48.510357"
   xmlns:inkscape="http://www.inkscape.org/namespaces/inkscape"
   xmlns:sodipodi="http://sodipodi.sourceforge.net/DTD/sodipodi-0.dtd"
   xmlns="http://www.w3.org/2000/svg"
   xmlns:svg="http://www.w3.org/2000/svg"><defs
   id="defs9" /><sodipodi:namedview
   id="namedview7"
   pagecolor="#ffffff"
   bordercolor="#000000"
   borderopacity="0.25"
   inkscape:showpageshadow="2"
   inkscape:pageopacity="0.0"
   inkscape:pagecheckerboard="0"
   inkscape:deskcolor="#d1d1d1" />
<g
   id="g4"
   transform="translate(0,0.08535824)">
	<path
   fill="#41a2f2"
   d="m 43.1,45.8 c -0.2,0.6 -0.2,1.1 -0.5,1.6 -0.1,0.3 -0.6,0.5 -0.9,0.5 -1.5,-0.1 -3.1,-0.1 -4.5,-0.5 -2.4,-0.5 -4.8,-1.1 -7.1,-1.8 -1.7,-0.5 -3,-1.8 -4.3,-3 -1.5,-1.4 -2.9,-2.9 -4.4,-4.3 -1.8,-1.6 -3.6,-3.2 -5.3,-4.8 -0.6,-0.6 -1.1,-1.3 -1.6,-1.9 -1.2,-1.2 -2.4,-2.5 -3.4,-3.6 0.1,1.3 0.4,2.8 0.4,4.2 0,3 -0.2,6 -0.2,9 0,0.9 0,1.7 0.1,2.6 0.1,1.3 1,2 2.3,1.9 1.8,-0.2 1.8,-0.1 1.2,1.5 -0.1,0.2 -0.1,0.4 -0.2,0.6 -0.1,0.5 -0.4,0.7 -0.9,0.6 C 12.7,48.3 11.6,48.2 10.5,48.1 9,48 7.6,47.9 6.1,47.9 c -1.5,0 -3,0.2 -4.5,0.2 -0.4,0 -1,-0.1 -1,-0.3 -0.2,-0.6 -0.2,-1.3 -0.2,-2 0,-0.1 0.4,-0.1 0.6,-0.2 1,-0.3 2,-0.5 2.9,-0.9 0.3,-0.1 0.5,-0.6 0.5,-1 C 4.5,39 4.7,34.4 4.3,29.7 4,27.1 4.1,24 4.1,21 c 0,-0.1 0,-0.3 0,-0.4 C 4.1,16.5 4.2,12.4 4.2,8.4 4.2,7.2 4,6 3.8,4.8 3.7,4.1 3.3,3.7 2.6,3.6 2,3.4 1.3,3.4 0.7,3.2 0.4,3.1 0.1,2.9 0.1,2.7 0,2.2 0,1.6 0,1.1 0,0.7 0.2,0.6 0.6,0.6 c 0.7,0 1.4,0 2.1,0 3.9,0.1 7.8,0.2 11.7,0.3 0.7,0 0.9,0.2 0.9,0.9 0,1.1 -0.1,1.4 -0.9,1.4 -0.3,0 -0.5,0 -0.8,0 -1.7,0 -2.5,1 -2.5,2.7 0.1,3.1 0.1,6.2 0.1,9.3 0,2.1 -0.1,4.2 -0.1,6.3 0,0.2 0.1,0.5 0.1,0.9 0.7,-0.6 1.4,-1.1 1.9,-1.7 0.9,-0.9 1.7,-1.8 2.6,-2.8 0.9,-1.1 1.8,-2.2 2.7,-3.3 0.5,-0.5 1,-1 1.5,-1.5 0.9,-0.9 1.7,-1.7 2.5,-2.6 C 23.8,9.1 25.3,7.7 26.7,6.2 27.6,5.3 28.5,4.4 29.5,3.4 29.5,3.3 29.4,3.2 29.4,3.1 28.7,3 28.1,2.9 27.4,2.9 26.3,2.8 26.2,2.7 26.2,1.6 26.2,1.3 26.2,1 26.2,0.7 27,0.6 27.7,0.6 28.5,0.5 32,0 35.5,-0.3 39,0.1 c 0.7,0.1 1.1,0.3 0.9,1.1 0,0.1 0,0.2 0,0.2 C 40,2.3 39.6,2.7 38.6,3 37.7,3.2 36.9,3.8 36.1,4.3 35.2,4.9 34.3,5.5 33.4,6.2 33,6.5 32.6,6.9 32.2,7.3 c -1.9,2.2 -3.8,4.4 -5.8,6.5 -0.6,0.7 -1.3,1.2 -2,1.8 -0.7,0.6 -1.5,1 -2.1,1.6 -1.2,1.1 -2.3,2.4 -3.5,3.5 -1,1.1 -2.1,2.1 -3.2,3.2 0.8,0.9 1.6,1.8 2.5,2.8 2.6,2.7 5.2,5.3 7.9,8 0.6,0.6 1.4,1.2 2.1,1.8 2,1.8 3.9,3.8 5.9,5.6 1.8,1.7 3.9,2.7 6.4,3.1 0.9,0.1 1.8,0.4 2.7,0.6 z"
   id="path2" />
</g>
</svg>
