<?xml version="1.0" encoding="UTF-8" standalone="no"?>
<svg
   version="1.1"
   width="175.95778"
   height="47.355392"
   viewBox="-1 -1 175.95778 47.355392"
   id="svg30"
   sodipodi:docname="keyboard-b.svg"
   xmlns:inkscape="http://www.inkscape.org/namespaces/inkscape"
   xmlns:sodipodi="http://sodipodi.sourceforge.net/DTD/sodipodi-0.dtd"
   xmlns="http://www.w3.org/2000/svg"
   xmlns:svg="http://www.w3.org/2000/svg">
  <defs
     id="defs34" />
  <sodipodi:namedview
     id="namedview32"
     pagecolor="#ffffff"
     bordercolor="#000000"
     borderopacity="0.25"
     inkscape:showpageshadow="2"
     inkscape:pageopacity="0.0"
     inkscape:pagecheckerboard="0"
     inkscape:deskcolor="#d1d1d1" />
  <!-- Exported by Scratch - http://scratch.mit.edu/ -->
  <g
     id="ID0.16787050105631351"
     transform="matrix(0.77378094,0,0,0.77378094,-1.2321343,-1.3095124)">
    <g
       id="ID0.43104934599250555">
      <g
         id="ID0.7900916617363691">
        <path
           id="ID0.8114587897434831"
           fill="#ffffff"
           stroke="#010101"
           d="M 126.8,149.9 H 143 v 60.2 h -16.2 z"
           transform="translate(-126,-149)" />
        <path
           id="ID0.46980072651058435"
           fill="#ffffff"
           stroke="#010101"
           d="m 143,149.9 h 16.2 v 60.2 H 143 Z"
           transform="translate(-126,-149)" />
        <path
           id="ID0.20858941739425063"
           fill="#ffffff"
           stroke="#010101"
           d="m 159.1,149.9 h 16.2 v 60.2 h -16.2 z"
           transform="translate(-126,-149)" />
        <path
           id="ID0.16320018516853452"
           fill="#ffffff"
           stroke="#010101"
           d="m 175.3,149.9 h 16.2 v 60.2 h -16.2 z"
           transform="translate(-126,-149)" />
        <path
           id="ID0.15105019183829427"
           fill="#ffffff"
           stroke="#010101"
           d="m 191.5,149.9 h 16.2 v 60.2 h -16.2 z"
           transform="translate(-126,-149)" />
        <path
           id="ID0.567800638731569"
           fill="#ffffff"
           stroke="#010101"
           d="m 207.7,149.9 h 16.2 v 60.2 h -16.2 z"
           transform="translate(-126,-149)" />
        <path
           id="ID0.9613261804915965"
           fill="#ffffff"
           stroke="#010101"
           d="M 223.8,149.9 H 240 v 60.2 h -16.2 z"
           transform="translate(-126,-149)" />
        <path
           id="ID0.0464581367559731"
           fill="#fbd43f"
           stroke="#010101"
           d="m 240,149.9 h 16.2 v 60.2 H 240 Z"
           transform="translate(-126,-149)" />
        <path
           id="ID0.6082547027617693"
           fill="#ffffff"
           stroke="#010101"
           d="m 256.2,149.9 h 16.2 v 60.2 h -16.2 z"
           transform="translate(-126,-149)" />
        <path
           id="ID0.5232797577045858"
           fill="#ffffff"
           stroke="#010101"
           d="m 272.3,149.9 h 16.2 v 60.2 h -16.2 z"
           transform="translate(-126,-149)" />
        <path
           id="ID0.32484686467796564"
           fill="#ffffff"
           stroke="#010101"
           d="m 288.5,149.9 h 16.2 v 60.2 h -16.2 z"
           transform="translate(-126,-149)" />
        <path
           id="ID0.8162111486308277"
           fill="#ffffff"
           stroke="#010101"
           d="m 304.7,149.9 h 16.2 v 60.2 h -16.2 z"
           transform="translate(-126,-149)" />
        <path
           id="ID0.16932364366948605"
           fill="#ffffff"
           stroke="#010101"
           d="m 320.9,149.9 h 16.2 v 60.2 h -16.2 z"
           transform="translate(-126,-149)" />
        <path
           id="ID0.4926524441689253"
           fill="#ffffff"
           stroke="#010101"
           d="m 337,149.9 h 16.2 v 60.2 H 337 Z"
           transform="translate(-126,-149)" />
      </g>
      <g
         id="ID0.860373720061034">
        <path
           id="ID0.7259815195575356"
           fill="#010101"
           d="m 138.8,149.9 h 8.3 v 40.4 h -8.3 z"
           transform="translate(-126,-149)" />
        <path
           id="ID0.023649102076888084"
           fill="#010101"
           d="m 155,149.9 h 8.3 v 40.4 H 155 Z"
           transform="translate(-126,-149)" />
        <path
           id="ID0.44002401316538453"
           fill="#010101"
           d="m 187.3,149.9 h 8.3 v 40.4 h -8.3 z"
           transform="translate(-126,-149)" />
        <path
           id="ID0.7576319496147335"
           fill="#010101"
           d="m 203.3,149.9 h 8.3 v 40.4 h -8.3 z"
           transform="translate(-126,-149)" />
        <path
           id="ID0.8615642078220844"
           fill="#010101"
           d="m 219.7,149.9 h 8.3 v 40.4 h -8.3 z"
           transform="translate(-126,-149)" />
        <path
           id="ID0.03337179543450475"
           fill="#010101"
           d="m 252,149.9 h 8.3 v 40.4 H 252 Z"
           transform="translate(-126,-149)" />
        <path
           id="ID0.07775716530159116"
           fill="#010101"
           d="m 268.2,149.9 h 8.3 v 40.4 h -8.3 z"
           transform="translate(-126,-149)" />
        <path
           id="ID0.9087489941157401"
           fill="#010101"
           d="m 300.5,149.9 h 8.3 v 40.4 h -8.3 z"
           transform="translate(-126,-149)" />
        <path
           id="ID0.5818645157851279"
           fill="#010101"
           d="m 316.7,149.9 h 8.3 v 40.4 h -8.3 z"
           transform="translate(-126,-149)" />
        <path
           id="ID0.5238553006201982"
           fill="#010101"
           d="m 332.9,149.9 h 8.3 v 40.4 h -8.3 z"
           transform="translate(-126,-149)" />
      </g>
    </g>
  </g>
</svg>
