<?xml version="1.0" encoding="UTF-8" standalone="no"?>
<!-- Generator: Adobe Illustrator 18.0.0, SVG Export Plug-In . SVG Version: 6.00 Build 0)  -->

<svg
   version="1.1"
   id="Layer_2"
   x="0px"
   y="0px"
   viewBox="0 0 35.618097 47.814816"
   enable-background="new 0 0 35.6 47.8"
   xml:space="preserve"
   sodipodi:docname="L-story-3.svg"
   width="35.618095"
   height="47.814816"
   xmlns:inkscape="http://www.inkscape.org/namespaces/inkscape"
   xmlns:sodipodi="http://sodipodi.sourceforge.net/DTD/sodipodi-0.dtd"
   xmlns="http://www.w3.org/2000/svg"
   xmlns:svg="http://www.w3.org/2000/svg"><defs
   id="defs9" /><sodipodi:namedview
   id="namedview7"
   pagecolor="#ffffff"
   bordercolor="#000000"
   borderopacity="0.25"
   inkscape:showpageshadow="2"
   inkscape:pageopacity="0.0"
   inkscape:pagecheckerboard="0"
   inkscape:deskcolor="#d1d1d1" />
<g
   id="g4"
   transform="translate(0.00604915,0.01481481)">
	<path
   fill="#41a2f2"
   d="m 35.4,38.2 c -0.3,1.9 -0.6,3.7 -0.9,5.6 -0.2,1.2 -0.5,2.3 -0.8,3.4 0,0.1 -0.4,0.3 -0.6,0.3 -2.2,0.1 -4.3,0.2 -6.5,0.1 -3.9,0 -7.8,-0.2 -11.8,-0.2 -4,0 -7.9,0.3 -11.9,0.4 -0.9,0 -1.8,0 -2.8,0 0,-0.3 0,-0.5 0,-0.8 0,-1.7 0,-1.7 1.7,-2 1.4,-0.2 2.1,-1.1 2,-2.5 0,-0.2 -0.1,-0.4 0,-0.5 C 4.7,40.1 4.3,38.1 4.3,36.2 4.2,27.6 4,19 4.3,10.5 4.4,9.2 4.2,7.9 4.2,6.6 c 0,-0.7 0,-1.3 0,-2 C 4.2,3.4 3.9,2.9 2.6,2.6 2,2.6 1.4,2.5 0.8,2.5 0.2,2.5 0,2.3 0,1.8 0,-0.3 -0.2,0 1.7,0 c 3.5,0 7,0 10.5,0 0.8,0 1.5,0 2.3,0.1 0.2,0 0.5,0.3 0.5,0.5 0.1,0.4 0.1,0.9 0,1.3 0,0.2 -0.3,0.4 -0.5,0.5 -0.7,0.2 -1.3,0.4 -2,0.5 -0.7,0.1 -0.9,0.5 -1,1.2 -0.1,2.8 -0.3,5.6 -0.4,8.4 -0.1,2.6 -0.2,5.1 -0.3,7.7 0,0.7 0,1.5 0,2.2 0,3.7 -0.1,7.5 -0.1,11.2 0,2.3 0.1,4.6 0.1,6.9 0,0.8 -0.1,1.6 -0.1,2.4 -0.1,0.7 0.4,0.9 0.9,0.8 3.9,-0.6 7.8,-0.1 11.7,-0.3 2.1,-0.1 4.3,0 6.3,-0.8 0.9,-0.3 1.6,-0.8 1.9,-1.7 0.4,-1.2 0.8,-2.5 1.2,-3.7 0.2,-0.7 0.4,-1 1.2,-1 1.9,0 1.9,0 1.5,2 z"
   id="path2" />
</g>
</svg>
