<?xml version="1.0" encoding="UTF-8" standalone="no"?>
<!-- Generator: Adobe Illustrator 18.0.0, SVG Export Plug-In . SVG Version: 6.00 Build 0)  -->

<svg
   version="1.1"
   id="Layer_2"
   x="0px"
   y="0px"
   viewBox="0 0 39.9 52.444442"
   enable-background="new 0 0 39.9 52.2"
   xml:space="preserve"
   sodipodi:docname="L-story-2.svg"
   width="39.900002"
   height="52.444443"
   xmlns:inkscape="http://www.inkscape.org/namespaces/inkscape"
   xmlns:sodipodi="http://sodipodi.sourceforge.net/DTD/sodipodi-0.dtd"
   xmlns="http://www.w3.org/2000/svg"
   xmlns:svg="http://www.w3.org/2000/svg"><defs
   id="defs17" /><sodipodi:namedview
   id="namedview15"
   pagecolor="#ffffff"
   bordercolor="#000000"
   borderopacity="0.25"
   inkscape:showpageshadow="2"
   inkscape:pageopacity="0.0"
   inkscape:pagecheckerboard="0"
   inkscape:deskcolor="#d1d1d1" />
<g
   id="g12"
   transform="translate(0,0.2)">
	<path
   fill="#f7941e"
   d="m 39.6,36.3 c -1,0 -2.1,-0.4 -2.9,0.6 -0.9,1.1 -1.9,2.2 -2.9,3.2 -0.5,0.6 -1,1.1 -1.4,1.8 -0.3,0.6 -1.1,1.1 -1.8,1.2 -1.4,0.2 -2.9,0.2 -4.3,0.3 -3.5,0.1 -6.9,0.2 -10.4,0.3 -0.5,0 -1,-0.2 -0.9,-0.9 0.1,-0.9 0.1,-1.8 0.1,-2.8 0,-3.5 -0.1,-7.1 -0.1,-10.6 0,-2.5 0,-5 0,-7.5 0,-2.2 0.1,-4.4 0.2,-6.5 0,-1.4 0.1,-2.8 0.1,-4.3 0.1,-2 0.4,-4 0.3,-6 0,-1.8 0.8,-2.3 2.3,-2.6 1.3,-0.2 1.3,-0.3 1.2,-1.7 0,-0.1 0,-0.1 0,-0.2 C 18.9,0.4 18.7,0 18.5,0 17.6,-0.1 16.7,-0.1 15.7,-0.2 12.6,0 9.2,0.1 5.9,0 4.4,-0.1 3.5,0.6 2.6,1.5 2.2,2 1.8,2.5 1.4,3 0.7,3.8 0.2,4.7 0.3,5.8 c 0,0 0,0.1 0,0.2 0,0.5 0.1,0.7 0.7,0.7 0.8,-0.1 1.5,-0.1 2.3,-0.1 1.3,0 1.6,0.3 1.7,1.5 0,1.9 0.2,3.8 0.2,5.7 0,5.7 -0.1,11.4 -0.1,17.1 0,2 0,3.9 0,5.9 0,2.9 -0.4,5.7 0.1,8.5 C 4.8,45.5 4.4,45.5 4.1,45.8 2.9,46.8 1.9,48 0.8,49 0,49.8 0,50.6 0,51.5 c 0,0.5 0.3,0.7 0.8,0.7 2.8,0 5.6,0.1 8.4,0 4.4,0 8.8,-0.1 13.2,-0.1 3,0 6,0.1 9.1,0.1 0.7,0 1.4,0 2,-0.1 0.2,0 0.6,-0.1 0.7,-0.2 1.1,-1.2 2.1,-2.5 3.2,-3.7 0.2,-0.3 0.6,-0.5 0.7,-0.9 0.3,-0.9 0.4,-1.8 0.6,-2.7 0.2,-1.5 0.4,-3.1 0.7,-4.6 0.1,-1 0.3,-2 0.5,-3 0,-0.3 -0.2,-0.7 -0.3,-0.7 z M 37.7,46.7 C 26.8,47.4 16,46.2 5.1,47.4 V 46.1 C 5.7,45.9 6.3,45.7 7,45.6 8,45.4 8.6,45 8.9,43.8 9.5,41.2 9.7,38.5 9.6,35.8 9.5,32.9 9.3,30.1 9.3,27.2 9.3,21.4 9.4,15.7 9.4,9.9 9.4,8.6 9.2,7.3 9.1,6 9.1,5.6 9.1,5.2 9.1,4.8 9.3,3.2 8.8,2.5 7.2,2.1 6.6,2.1 5.9,2 5.1,1.9 V 0.6 H 18.6 V 2 c -0.8,0.2 -1.5,0.4 -2.3,0.6 -0.6,0.2 -1,0.6 -1.1,1.2 -0.2,2.5 -0.3,5 -0.5,7.5 -0.1,1.4 -0.1,2.8 -0.2,4.3 0,2.6 0,5.2 -0.1,7.8 0,1.2 -0.1,2.4 -0.1,3.6 0,4.2 0,8.4 0,12.6 0,1.2 -0.1,2.3 -0.1,3.5 0,0.9 0.2,1.1 1.1,1.1 1.2,0 2.4,-0.1 3.5,-0.1 2.8,0 5.7,0 8.5,0 1.8,0 3.5,-0.2 5.3,-0.4 0.5,0 1,-0.3 1.5,-0.5 1,-0.3 1.6,-0.9 1.9,-1.8 0.4,-1.1 0.8,-2.3 1.1,-3.4 0.3,-1.2 0.3,-1.2 1.8,-1.1 -0.3,3.4 -0.8,6.6 -1.2,9.8 z"
   id="path2" />
	<path
   fill="#ffffff"
   d="m 37.4,38.1 c -0.3,1.1 -0.8,2.3 -1.1,3.4 -0.3,0.9 -1,1.5 -1.9,1.8 -0.5,0.2 -1,0.4 -1.5,0.5 -1.8,0.2 -3.5,0.4 -5.3,0.4 -2.8,0.1 -5.7,0 -8.5,0 -1.2,0 -2.4,0.1 -3.5,0.1 -1,0 -1.1,-0.2 -1.1,-1.1 0,-1.2 0.1,-2.3 0.1,-3.5 0,-4.2 0,-8.4 0,-12.6 0,-1.2 0.1,-2.4 0.1,-3.6 0,-2.6 0,-5.2 0.1,-7.8 0,-1.4 0.1,-2.8 0.2,-4.3 0.1,-2.5 0.3,-5 0.5,-7.5 0,-0.6 0.4,-1.1 1.1,-1.2 0.8,-0.2 1.5,-0.4 2.3,-0.6 V 0.6 H 5.1 v 1.2 c 0.8,0.2 1.5,0.3 2.2,0.4 1.5,0.3 2.1,1.1 1.9,2.7 0,0.4 -0.1,0.8 0,1.2 0,1.2 0.2,2.6 0.2,3.9 0,5.8 -0.1,11.5 -0.1,17.3 0,2.9 0.2,5.7 0.3,8.6 0.1,2.7 -0.1,5.4 -0.7,8 C 8.6,45 8,45.4 6.9,45.6 6.3,45.7 5.6,45.9 5,46.1 v 1.3 c 10.9,-1.2 21.7,0 32.6,-0.6 0.5,-3.2 1,-6.5 1.5,-9.7 -1.4,-0.2 -1.4,-0.2 -1.7,1 z M 11.3,8.1 c 0,-1 0.1,-2.1 0.2,-3.1 0,-0.3 0.1,-0.6 0.2,-0.8 0.1,0 0.3,0 0.4,0 0,1.1 0,2.1 0,3.2 0,3.3 0,6.6 -0.1,9.9 0,1.1 0,2.2 -0.1,3.2 0,0.2 -0.2,0.4 -0.4,0.7 -0.1,-0.2 -0.3,-0.5 -0.3,-0.7 0,-4.1 0.1,-8.3 0.1,-12.4 z M 12.2,43 h -0.3 c -0.1,-1.5 -0.4,-3 -0.4,-4.5 -0.1,-3.3 -0.1,-6.6 -0.1,-9.9 0,-0.5 0,-0.9 0.1,-1.3 0,-0.2 0.2,-0.3 0.3,-0.5 0.1,0.1 0.4,0.3 0.4,0.5 0,0.6 -0.1,1.2 -0.1,1.8 0.1,3.7 0.2,7.4 0.2,11 0,0.9 -0.1,1.9 -0.1,2.9 z M 11.8,24.8 c -0.1,0 -0.5,-0.5 -0.5,-0.6 0.1,-0.4 0.5,-0.7 0.7,-1 0.2,0.2 0.4,0.4 0.8,0.8 -0.4,0.4 -0.6,0.7 -1,0.8 z"
   id="path4" />
	<path
   fill="#f7941e"
   d="m 12.3,40 c 0,1 0,2 -0.1,2.9 h -0.3 c -0.1,-1.5 -0.4,-3 -0.4,-4.5 -0.1,-3.3 -0.1,-6.6 -0.1,-9.9 0,-0.5 0,-0.9 0.1,-1.3 0,-0.2 0.2,-0.3 0.3,-0.5 0.1,0.1 0.4,0.3 0.4,0.5 0,0.6 -0.1,1.2 -0.1,1.8 0,3.7 0.1,7.4 0.2,11 z"
   id="path6" />
	<path
   fill="#f7941e"
   d="m 12.1,4.2 c 0,1.1 0,2.1 0,3.2 0,3.3 0,6.6 -0.1,9.9 0,1.1 0,2.2 -0.1,3.2 0,0.2 -0.2,0.4 -0.4,0.7 -0.1,-0.2 -0.3,-0.5 -0.3,-0.7 0,-4.1 0.1,-8.3 0.1,-12.4 0,-1 0.1,-2.1 0.2,-3.1 0,-0.3 0.1,-0.6 0.2,-0.8 0.1,0 0.2,0 0.4,0 z"
   id="path8" />
	<path
   fill="#f7941e"
   d="m 12.8,24.1 c -0.4,0.3 -0.7,0.6 -1,0.8 -0.1,0 -0.5,-0.5 -0.5,-0.6 0.1,-0.4 0.5,-0.7 0.7,-1 0.2,0.2 0.5,0.4 0.8,0.8 z"
   id="path10" />
</g>
</svg>
