<?xml version="1.0" encoding="UTF-8" standalone="no"?>
<!-- Generator: Adobe Illustrator 18.0.0, SVG Export Plug-In . SVG Version: 6.00 Build 0)  -->

<svg
   version="1.1"
   id="Layer_2"
   x="0px"
   y="0px"
   viewBox="0 0 39.999998 52.444442"
   enable-background="new 0 0 39.9 52.2"
   xml:space="preserve"
   sodipodi:docname="L-story-1.svg"
   width="40"
   height="52.444443"
   xmlns:inkscape="http://www.inkscape.org/namespaces/inkscape"
   xmlns:sodipodi="http://sodipodi.sourceforge.net/DTD/sodipodi-0.dtd"
   xmlns="http://www.w3.org/2000/svg"
   xmlns:svg="http://www.w3.org/2000/svg"><defs
   id="defs19" /><sodipodi:namedview
   id="namedview17"
   pagecolor="#ffffff"
   bordercolor="#000000"
   borderopacity="0.25"
   inkscape:showpageshadow="2"
   inkscape:pageopacity="0.0"
   inkscape:pagecheckerboard="0"
   inkscape:deskcolor="#d1d1d1" />
<g
   id="g14"
   transform="translate(0,0.2)">
	<path
   fill="#53ad4e"
   d="m 39.6,36.3 c -1,0 -2.1,-0.3 -2.9,0.6 -0.9,1.1 -1.9,2.2 -2.9,3.2 -0.5,0.6 -1,1.1 -1.4,1.8 -0.3,0.6 -1,1.1 -1.7,1.2 -1.1,0.2 -2.4,0.2 -3.5,0.3 -3.8,0.1 -7.5,0.2 -11.3,0.3 -0.5,0 -1,-0.2 -0.9,-0.9 0.1,-0.8 0.1,-1.6 0.1,-2.4 0,-2.3 -0.1,-4.6 -0.1,-7 0,-3.7 0,-7.4 0.1,-11.1 0,-2.4 0.1,-4.8 0.2,-7.2 0,-1.3 0,-2.6 0.1,-4 0.1,-2 0.4,-4 0.3,-6 0,-1.8 0.8,-2.3 2.4,-2.5 1.3,-0.2 1.3,-0.3 1.2,-1.7 0,-0.1 0,-0.1 0,-0.2 C 19.1,0.5 18.9,0.1 18.7,0.1 17.8,0 16.8,0 15.9,-0.1 c -3.3,0 -6.7,0 -10,-0.1 C 4.3,-0.1 3.4,0.7 2.5,1.7 2.2,2 2,2.4 1.7,2.7 0.8,3.6 0.1,4.6 0.3,5.9 c 0,0 0,0 0,0.1 -0.1,0.5 0.1,0.7 0.7,0.7 0.8,0 1.5,-0.1 2.3,-0.1 1.2,0 1.6,0.3 1.7,1.5 0,2 0.2,3.9 0.2,5.7 0,5.5 -0.1,11 -0.1,16.4 0,2.2 0,4.3 0,6.5 C 5,39.6 4.7,42.4 5.2,45.2 4.8,45.4 4.4,45.4 4.1,45.7 2.9,46.8 1.9,48 0.8,49 0,49.8 0,50.6 0,51.5 c 0,0.5 0.3,0.7 0.8,0.7 2.8,0 5.6,0.1 8.4,0 4.4,0 8.8,-0.1 13.2,-0.1 3,0 6,0.1 9.1,0.1 0.7,0 1.4,0 2.1,-0.1 0.2,0 0.6,-0.1 0.7,-0.2 1.1,-1.2 2.1,-2.5 3.2,-3.7 0.2,-0.3 0.6,-0.5 0.7,-0.9 0.3,-0.9 0.4,-1.8 0.6,-2.7 0.2,-1.6 0.4,-3.1 0.7,-4.7 0.2,-1 0.3,-2 0.5,-3 -0.1,-0.2 -0.3,-0.6 -0.4,-0.6 z m -2.8,1.4 c 0,1.6 -0.6,3 -1.5,4.2 -0.5,0.6 -1.5,0.8 -2.2,1.1 0.6,-2.2 2.7,-3.4 3.7,-5.3 z M 1.4,3.9 C 2.4,3 3.2,2.1 4.2,1.2 4.3,1.3 4.4,1.3 4.5,1.4 3.6,3 2.3,4.3 1.1,5.8 0.7,5 0.8,4.5 1.4,3.9 Z M 3.6,6.1 H 1.8 C 2.7,5 3.5,3.9 4.4,3 4.6,2.7 5,2.6 5.3,2.5 c 0.4,-0.1 0.8,0 1.2,0 1.8,0.3 2,0.7 2,2.5 0,1.1 0.1,2.2 0.1,3.2 0,5.1 -0.2,10.3 -0.1,15.4 0,5.3 0.3,10.6 0.4,15.9 0,0.7 -0.2,1.4 -0.4,2.1 0,0.2 -0.1,0.4 -0.1,0.6 0,2.1 -0.5,2.6 -2.7,2.8 0,-1.2 0,-2.3 0,-3.4 C 5.8,37.4 5.9,33.3 5.9,29.1 5.9,24.4 6,19.7 5.9,15 5.9,12.6 5.8,10.2 5.7,7.8 5.6,6.6 5,6.1 3.6,6.1 Z M 0.7,50.9 c 0,-0.2 0,-0.6 0.1,-0.8 1.1,-1.3 2.3,-2.7 3.5,-4 0.4,1.4 0.2,1.9 -0.9,2.7 -0.9,0.7 -1.7,1.4 -2.7,2.1 z M 34,51.3 c -0.1,0.2 -0.5,0.3 -0.7,0.3 -3.2,0 -6.4,-0.1 -9.5,-0.2 -2.7,0 -5.3,0.1 -8,0.1 -4.7,0 -9.5,0 -14.2,0 -0.1,0 -0.2,0 -0.3,0 1,-1.6 3.2,-1.9 4.1,-3.8 10.4,0 20.8,-0.1 31.4,-0.1 -0.9,1.3 -1.8,2.5 -2.8,3.7 z"
   id="path2" />
	<path
   fill="#ffffff"
   d="M 4.4,1.4 C 3.6,3 2.3,4.3 1.1,5.8 0.7,5 0.8,4.5 1.4,3.9 2.4,3 3.2,2.1 4.2,1.2 c 0,0.1 0.1,0.2 0.2,0.2 z"
   id="path4" />
	<path
   fill="#ffffff"
   d="m 8.8,39.6 c 0,0.7 -0.2,1.4 -0.4,2.1 0,0.2 -0.1,0.4 -0.1,0.6 0,2.1 -0.5,2.6 -2.7,2.8 0,-1.2 0,-2.3 0,-3.4 0.1,-4.2 0.2,-8.3 0.2,-12.5 0,-4.7 0.1,-9.4 0,-14.1 C 5.8,12.7 5.7,10.3 5.6,7.9 5.6,6.6 5,6.1 3.6,6.1 H 1.8 C 2.7,5 3.5,3.9 4.4,3 4.6,2.7 5,2.6 5.3,2.5 c 0.4,-0.1 0.8,0 1.2,0 1.8,0.3 2,0.7 2,2.5 0,1.1 0.1,2.2 0.1,3.2 0,5.1 -0.2,10.3 -0.1,15.4 0,5.4 0.2,10.7 0.3,16 z"
   id="path6" />
	<path
   fill="#ffffff"
   d="m 3.5,48.8 c -0.9,0.7 -1.8,1.4 -2.8,2.1 0,-0.2 0,-0.6 0.1,-0.8 1.1,-1.3 2.3,-2.7 3.5,-4 0.5,1.5 0.2,2 -0.8,2.7 z"
   id="path8" />
	<path
   fill="#ffffff"
   d="m 36.8,37.7 c 0,1.6 -0.6,3 -1.5,4.2 -0.5,0.6 -1.5,0.8 -2.2,1.1 0.6,-2.2 2.7,-3.4 3.7,-5.3 z"
   id="path10" />
	<path
   fill="#ffffff"
   d="m 36.9,47.6 c -1,1.4 -2,2.6 -2.9,3.8 -0.1,0.2 -0.5,0.3 -0.7,0.3 -3.2,0 -6.4,-0.1 -9.5,-0.2 -2.7,0 -5.3,0.1 -8,0.1 -4.7,0 -9.5,0 -14.2,0 -0.1,0 -0.2,0 -0.3,0 1,-1.6 3.2,-1.9 4.1,-3.8 10.4,-0.2 20.9,-0.2 31.5,-0.2 z"
   id="path12" />
</g>
</svg>
