<?xml version="1.0" encoding="UTF-8" standalone="no"?>
<svg
   id="Layer_1"
   version="1.1"
   viewBox="0 0 208.24829 214.20334"
   sodipodi:docname="Ladybug.svg"
   width="208.24829"
   height="214.20334"
   xmlns:inkscape="http://www.inkscape.org/namespaces/inkscape"
   xmlns:sodipodi="http://sodipodi.sourceforge.net/DTD/sodipodi-0.dtd"
   xmlns="http://www.w3.org/2000/svg"
   xmlns:svg="http://www.w3.org/2000/svg">
  <sodipodi:namedview
     id="namedview79"
     pagecolor="#ffffff"
     bordercolor="#000000"
     borderopacity="0.25"
     inkscape:showpageshadow="2"
     inkscape:pageopacity="0.0"
     inkscape:pagecheckerboard="0"
     inkscape:deskcolor="#d1d1d1" />
  <!-- Generator: Adobe Illustrator 29.8.3, SVG Export Plug-In . SVG Version: 2.1.1 Build 3)  -->
  <defs
     id="defs4">
    <style
       id="style2">
      .st0 {
        fill: #4e4344;
      }

      .st1 {
        fill: #69060b;
      }

      .st2 {
        fill: #d3000c;
      }

      .st3 {
        fill: #d5000d;
      }

      .st4 {
        fill: #585354;
      }

      .st5 {
        fill: #090909;
      }

      .st6 {
        fill: #5e070c;
      }

      .st7 {
        fill: #fbfbfb;
      }

      .st8 {
        fill: #93060f;
      }

      .st9 {
        fill: #ca000c;
      }

      .st10 {
        fill: #929292;
      }

      .st11 {
        fill: #222;
      }

      .st12 {
        fill: #fefcfc;
      }

      .st13 {
        fill: #fc5761;
      }

      .st14 {
        fill: #333;
      }

      .st15 {
        fill: #1a1a1a;
      }

      .st16 {
        fill: #4a4646;
      }

      .st17 {
        fill: #0e0e0e;
      }

      .st18 {
        fill: #fe6c74;
      }

      .st19 {
        fill: #232323;
      }

      .st20 {
        fill: #817373;
      }

      .st21 {
        fill: #979797;
      }

      .st22 {
        fill: #fe000f;
      }

      .st23 {
        fill: #0a0a0a;
      }

      .st24 {
        fill: #fdfdfd;
      }

      .st25 {
        fill: #323232;
      }
    </style>
  </defs>
  <path
     d="m 64.90632,55.49187 c 1.16,-2.32 8.63,-4.53 9.19,-5.21 0.62,-0.75 2.37,-9.65 3.42,-12.06 2.58,-5.95 8.39,-10.25 14.75,-11.54 -0.38,-5.5 -9.1,-13.03 -5.08,-18.3900002 5.83,-7.74999995 15.37,10.3900002 13.72,15.5200002 2.37,0.12 4.25,-1.43 6.47,0 -0.38,-6.71 3.34,-20.2700002 11.9,-19.5000002 6.97,0.63 2.37,11.7700002 0.22,15.4100002 -0.76,1.29 -4.77,5.41 -4.19,6.24 6.9,1.9 12.34,8.33 15.24,14.65 0.84,1.83 2.6,8.52 2.92,8.96 0.48,0.68 6.54,2.7 7.75,3.76 l 7.09,-12.61 c -4.37,-4.43 -8.93,-8.79 -13.55,-12.96 -3.84,-3.47 -7.52,-3.23 -7.27,-10.08 0.15,-4.3 3.6,-6.8 4.26,-9.5400002 0.43,-1.79 -1.27,-3.69 -0.25,-5.22 1.73,-2.56999995 4.15,2.89 3.98,4.33 1.92,-1.58 2.64,-4.03 5.75,-3.59 0.99,3.31 -2.36,4.72 -3.21,6.5100002 -0.3,0.63 -2.57,7.7 -2.47,8.11 0.27,1.05 6.5,5.36 7.85,6.61 3.04,2.83 12.58,11.57 12.94,15.2 0.42,4.23 -8.1,12.94 -8.69,17.83 4.32,0.75 13.24,14.2 14.95,14.72 3.16,0.97 7.09,-0.69 10.3,-0.59 -0.09,-6.86 3.43,-13.03 5.43,-19.41 1.62,-5.17 -0.12,-7.17 5.4,-11.16 1.11,-0.8 3.05,-0.9 3.42,-1.26 0.41,-0.41 1.71,-9.01 5.27,-4.56 1.39,1.73 -0.58,4.15 -0.07,4.72 0.55,0.62 7.37,-0.19 5.42,3.61 -1.38,2.68 -4.12,0.21 -6.33,0.82 -4.46,1.24 -3.09,7.76 -3.89,11.28 -0.47,2.04 -8.57,20.32 -9.58,21.38 -2.5,2.64 -7.54,1.81 -10.81,2.86 6.81,11.23 12.15,22.78 13.67,36.01 0.54,4.68 -0.03,10.02 0.24,14.3 0.2,3.16 3.69,11.17 4.58,15.44 1,4.75 2.83,25.98 5.3,27.82 1.57,1.18 4.3,0.88 6.49,2.87 2.61,2.37 2.18,5.61 3.51,7.29 1.49,1.89 6.05,0.92 7.24,5 0.62,2.14 -3.6,0.54 -4.31,1.07 1.6,2.84 1.86,6.84 -2.37,6.34 -2.78,-0.33 -3.49,-5.39 -5.06,-7.57 -2.83,-3.94 -10.52,-8.4 -12.35,-11.05 -3.42,-4.94 -4.8,-13.68 -6.52,-19.42 -1.68,-0.32 -0.85,0.77 -1.15,1.7 -1.55,4.83 -2.6,9.37 -4.63,14.12 -23.36,54.71 -117.29,52.67 -139.11,-2.68 -0.81,-2.05 -3.34,-11.95 -3.79,-12.42 -1.18,-1.24 -1.22,0.39 -1.5,1.01 -3.04,6.7 -4,14.68 -6.1,21.29 -0.99,3.1 -5.74,4.06 -7.11,5.82 -2.41,3.08 -3.62,10.24 -5.8099997,12.91 -0.28,0.34 -0.8,0.99 -1.05,0.74 -0.63,-2.85 -1.09,-5.06 -0.01,-7.91 -2.47,-0.46 -2.94,1.38 -4.13,2.68 -0.43,0.47 -0.17,1.79 -1.65,0.58 -4.64,-3.82 2.58,-6.87 3.95,-8.33 1.37,-1.46 1.79,-4.45 3.26,-6.1 1.3599997,-1.52 5.0799997,-2.65 5.6299997,-4.45 1.67,-12.87 3.79,-27.91 8.11,-40.13 1.23,-3.47 3.78,-5.32 4.52,-7.72 0.74,-2.4 0.19,-4.42 0.57,-6.63 2.19,-12.91 6.06,-25.63 11.43,-37.54 -13.93,-0.69 -19.3,-9.98 -23.57,-21.77 -1.02,-2.8 -2.01,-8.83 -2.69,-10.27 -0.28,-0.6 -6.5899997,-5.69 -7.6099997,-6.97 -2.07,-5.62 1.93,-6.37 5.7899997,-3.1 -0.23,-2.1 -0.29,-5.49 2.53,-5.5 4.22,0 1.67,6.5 2.67,8.23 0.54,0.92 3.3,1.6 4.55,5.17 2.61,7.45 4.03,8.3 8.42,14.62 1.03,1.48 4.05,7.32 4.51,7.73 0.64,0.57 10.14,1.78 11.02,1.27 0.26,-0.15 2.53,-3.98 3.38,-4.89 2.87,-3.09 5.96,-6.12 9.32,-8.69 4.03,-5.29 -9.74,-11.77 -10.2,-16.97 -0.46,-5.2 17.62,-21.81 20.55,-27.42 0.68,-1.96 -0.47,-3.73 -0.58,-5.6 -0.06,-0.97 0.68,-2.0200002 0.65,-2.9200002 -0.06,-1.71 -2.87,-3.62 -1.75,-6.06 1.72,-3.72 4.14,1.52 5.39,0.67 0.19,-0.13 1.04,-3.29999995 3.26,-2.85999995 2.67,0.53 -0.2,4.93999995 -0.25,6.07999995 -0.12,2.97 1.97,7.9000002 1.98,10.1200002 0.02,8.41 -19.23,26.11 -19.22,28.09 2.86,3.28 7,6.71 7.8,11.15 z"
     id="path6" />
  <path
     class="st22"
     d="m 100.89632,131.81187 -0.67,1.71 c -15.01,6.17 -18.66,26.72 -0.38,31.27 0.8,2.51 0.9,4.96 0.33,7.34 0.24,10.55 -0.69,21.05 0,31.68 l -1.19,1.06 -18.51,-4.84 c -3.39,-0.9 -4.26,-2.28 -2.62,-4.14 l -1.49,-0.79 c 0.94,-11.35 -10.2,-21.62 -20.22,-25.01 l -0.6,-1.56 c -1.87,-0.54 -3.9,-0.54 -6.09,0 -6.66,-12.17 -7.57,-24.31 -6.41,-38.25 0.66,-7.94 1.9,-18.4 3.57,-26.13 0.6,-2.79 3.45,-9.39 6.05,-10.49 9.18,-1.51 19.12,-2.66 28.43,-2.15 7.47,0.4 15.59,1.52 21.12,6.89 -2.12,10.95 -1.24,22.28 -1.31,33.42 z"
     id="path8" />
  <path
     class="st22"
     d="m 151.29632,94.37187 c 0.54,1.77 0.25,5.67 -0.72,7.2 l -1.62,1.08 c -26.76,-4.04 -22.74,47.14 4.1,33.7 l 1.84,0.51 c 1.95,3.76 0.28,11.66 -2.16,15.12 -0.99,4.91 -0.5,9.52 0.68,14.34 l -1.4,1.5 -0.2,0.98 c -14.24,1.26 -24.55,16.06 -16.05,28.97 l -0.3,1.73 c -6.86,3.22 -14.08,5.43 -21.6,6.48 -2.17,-0.33 -4.38,-0.5 -6.63,-0.49 l -0.57,-1.67 c -0.05,-2.74 -0.72,-6.31 -0.72,-8.28 v -21.6 c 0,-1.69 0.67,-5.05 0.72,-7.56 l 0.98,-1.34 c 19.52,-3.56 16.77,-24.94 0.32,-32.15 l -0.58,-1.79 c 0.09,-9.63 -0.53,-19.11 0,-28.8 0.33,-2.66 1.02,-3.28 3.41,-4.62 12.22,-6.88 26.45,-6.12 39.65,-4.63 l 0.86,1.33 z"
     id="path10" />
  <path
     class="st25"
     d="m 138.33632,61.25187 c 0.59,1.86 -3.44,4.29 -5.04,3.6 -1.17,0.16 -2.54,0.03 -4.09,-0.37 0.66,1.64 1.31,3.2 1.93,4.69 l 1.34,0.94 c -0.07,4.59 3.82,8.04 7.78,9.68 l 0.24,1.62 -1.74,1.51 c -11.28,-0.23 -21.83,0.81 -31.8,6.09 -9.42,-5.96 -20.74,-9.13 -32.07,-9.7 l -2.08,-1.5 c -0.22,-1.34 0.16,-2.93 1.17,-4.76 -1.29,-2.83 -1.44,-4.85 -0.45,-6.04 4.64,-5 9.76,-9.01 17.36,-9.32 l 12.9,1 c 4.51,0.58 8.34,-1.15 12.22,-3.21 10.71,-0.64 13.5,0.37 22.32,5.76 z"
     id="path12" />
  <path
     class="st3"
     d="m 52.65632,93.65187 -4.66,10.82 c -1.8,16.12 -6.93,35.85 -2.02,51.66 0.44,1.41 4.1,11.23 4.62,11.58 0.92,0.63 4.02,-0.76 4.95,0.81 -0.56,1.78 -4.87,2.31 -5.76,0.72 -2.39,1.81 -3.77,4.61 -4.13,8.4 l -1.63,0.24 c -12.56,-20.87 -11.91,-45.84 -5.7,-68.7 0.67,-2.46 3.15,-11.33 4.21,-12.89 1.34,-1.99 7.98,-2.29 10.13,-2.65 z"
     id="path14" />
  <path
     class="st18"
     d="m 159.93632,93.65187 c 11.09,10.44 10.52,31.22 8.82,45.49 -0.52,4.37 -3.98,23.59 -7.57,24.85 -0.39,0.14 -0.82,0.19 -1.25,0.23 -8.59,7 -8.4,-6.38 -7.2,-12.24 0.29,-5.09 1.68,-10.07 2.16,-15.12 l 1.42,-3.12 c 9.08,-10.4 4.81,-23.38 -5.02,-31.44 -1.04,0.98 -1.44,0.55 -0.72,-0.72 -1.26,-2.37 -1.14,-5.21 0.72,-7.2 -0.31,-1.49 0.89,-2.21 3.6,-2.16 2.08,0.37 3.06,0.48 5.04,1.44 z"
     id="path16" />
  <path
     class="st17"
     d="m 55.53632,168.53187 c 8.08,1 19.9,12.44 21.83,20.29 0.66,2.71 0.27,4.57 0.49,7.07 -0.07,0.58 -0.31,0.82 -0.72,0.72 -2.18,1.04 -4.35,1.99 -6.48,2.88 -10.29,-4.4 -18.76,-10.12 -25.2,-19.44 0.22,-4.77 1.66,-8.37 4.32,-10.8 2.08,-0.75 3.37,-1.01 5.76,-0.72 z"
     id="path18" />
  <path
     class="st17"
     d="m 152.01632,167.81187 1.67,2.3 c 1.23,-0.92 2.64,-1.53 4.09,-0.86 2.52,-2.87 5.32,2.4 5.76,5.04 -4.75,9.8 -18.32,20.62 -28.08,25.2 -8.44,-7.77 -3.03,-25 6.44,-29.2 2.33,-1.03 7.59,-2.35 10.12,-2.48 z"
     id="path20" />
  <path
     class="st11"
     d="m 140.49632,81.41187 c 0.6,-2.07 1.11,-1.76 2.16,0 1.56,0.66 2.83,1.11 4.5,0.55 l 0.54,0.89 c 1.24,-2.13 6.01,-0.43 5.04,2.16 -12.04,-0.94 -28.47,-1.51 -39.79,3.05 -1.66,0.67 -6.83,4.09 -7.25,4.05 -0.74,-0.07 -5.29,-3.16 -6.98,-3.85 -13.41,-5.47 -28.41,-2.02 -42.47,-2.53 -0.77,-1.47 -0.22,-5.14 1.44,-5.76 4.87,-0.04 9.67,-0.76 14.4,-2.16 0.13,-0.64 0.38,-0.62 0.72,0 9.54,0.1 20.44,2.6 29.06,6.58 1.28,0.59 4.63,3.22 5.15,3.25 0.85,0.05 5.07,-2.66 6.64,-3.19 9.94,-3.34 16.8,-2.55 26.84,-3.04 z"
     id="path22" />
  <path
     class="st22"
     d="m 159.93632,93.65187 c 2.52,1.22 2.77,2.08 4.78,3.51 0.94,0.67 2.59,0.46 3.2,1.27 0.67,0.9 2.93,7.89 3.32,9.47 4.57,18.2 0.48,49.47 -7.71,66.39 -1.96,0.38 -1.77,-2.15 -3.2,-3.66 -1.06,-1.11 -1.64,-0.9 -2.56,-1.38 -1.14,0.52 -1.49,0.31 -0.72,-0.72 -0.84,-1.79 0.12,-3.23 2.88,-4.32 8.64,-14.11 10.47,-44.8 5.24,-60.32 -1.24,-3.68 -3.38,-6.89 -5.24,-10.24 z"
     id="path24" />
  <path
     class="st17"
     d="m 107.37632,131.09187 c 7,2.59 13.36,9.46 15.35,16.68 2.21,8.03 -7.07,20.03 -16.07,18.6 0.25,-11.77 0.61,-23.5 0.72,-35.28 z"
     id="path26" />
  <path
     class="st17"
     d="m 100.89632,131.81187 c -0.08,11.94 -0.67,24.64 0.04,36.34 0.07,1.17 0.36,3.26 -0.76,3.98 -0.22,-9.42 -1.09,-4.6 -7.44,-8.76 -6.35,-4.16 -8.11,-12.04 -5.56,-19 1.73,-4.74 8.66,-11.36 13.72,-12.56 z"
     id="path28" />
  <path
     class="st12"
     d="m 155.61632,77.09187 c 2.36,3.38 -4.64,6.22 -6.48,3.6 -1.93,1.41 -4.23,2.34 -6.48,0.72 -0.72,0.04 -1.44,-0.04 -2.16,0 -4.95,-1.62 -10.28,-6.56 -9.36,-12.24 -1.88,-1.16 0.03,-4.97 2.16,-4.32 1.23,-1.8 3.19,-2.64 5.04,-3.6 7.35,4.49 12.22,8.86 17.28,15.84 z"
     id="path30" />
  <path
     class="st24"
     d="m 68.49632,62.69187 4.32,4.32 c 0.24,-0.61 0.48,-0.6 0.72,0 1.71,4.62 3.5,6.83 -0.72,10.8 -0.24,0 -0.48,0 -0.72,0 -4.8,1.68 -10.11,2.43 -15.12,1.44 -1.64,2.35 -6.41,-0.04 -4.32,-2.88 4.88,-6.31 9.75,-9.13 15.84,-13.68 z"
     id="path32" />
  <path
     class="st19"
     d="m 116.01632,55.49187 c -5.48,7.74 -15.66,3.62 -23.39,3.55 -4.36,-0.04 -10.04,1.72 -13.5,4.36 -2.3,1.76 -0.84,3.53 -5.59,3.61 -0.23,0 -0.5,0.03 -0.72,0 -1.68,-1.23 -3.12,-2.67 -4.32,-4.32 2.87,-2.14 5.28,-5.95 9.07,-6.4 9.58,-1.13 19.23,1.14 28.76,0.67 3.04,-0.15 6.76,-1.29 9.69,-1.47 z"
     id="path34" />
  <path
     class="st25"
     d="m 111.69632,31.02187 c -3.91,4.89 -6.49,12.86 -3.6,18.71 h -7.92 c 2.05,-6.83 0.04,-13.22 -5.04,-17.99 5.55,-1.38 10.87,-2.2 16.56,-0.72 z"
     id="path36" />
  <path
     class="st7"
     d="m 81.46632,49.73187 c -0.13,-5.27 2.96,-15.55 9.68,-14.41 4.18,0.71 7.16,9.48 4.33,12.95 -1.9,2.33 -10.67,-0.52 -14.01,1.46 z"
     id="path38" />
  <path
     class="st9"
     d="m 77.85632,195.89187 c 0.06,0.67 -0.31,0.97 0.43,1.51 3.59,2.61 17.14,4.24 21.89,6.41 0.05,0.72 1.55,2.7 0.37,3.59 -8.94,-2.03 -18.42,-3.2 -27.01,-6.47 -2.81,-2.07 1.31,-3.7 3.6,-4.32 0.2,-0.27 0.48,-0.49 0.72,-0.72 z"
     id="path40" />
  <path
     class="st7"
     d="m 126.09632,48.29187 c -2.47,-0.89 -11.65,1.31 -12.99,0.4 -2.98,-2.04 0.69,-16.12 4.36,-14.47 3.41,1.54 8,10.22 8.62,14.06 z"
     id="path42" />
  <path
     class="st8"
     d="m 154.89632,92.21187 c -0.88,0.46 -2.87,2.01 -3.6,2.16 -3.25,0.66 -8.98,-1.27 -12.57,-1.47 -10.1,-0.55 -20.7,1.53 -29.4,6.66 -1.25,0.74 -1.16,1.75 -1.95,2.73 0.08,-1.41 -0.42,-2.74 0.71,-3.97 0.23,-0.25 5.13,-3.3 5.76,-3.6 9.12,-4.21 31.08,-4.3 41.05,-2.51 z"
     id="path44" />
  <path
     class="st15"
     d="m 52.65632,76.37187 c -0.44,2 2.71,2.3 4.32,2.88 0.58,0.02 0.86,0.11 0.72,0.72 0.2,2.18 0.13,4.12 -1.44,5.76 l -10.08,2.16 c -0.74,-0.75 5.45,-10.19 6.48,-11.52 z"
     id="path46" />
  <path
     class="st14"
     d="m 155.61632,77.09187 c 0.69,0.95 5.73,8.02 5.04,8.64 -2.65,-0.21 -5.26,-0.51 -7.92,-0.72 -1.01,-1.17 -3.59,-1.9 -5.04,-2.16 -2.79,-0.67 -0.53,-1.5 1.44,-2.16 2.27,-0.47 6.36,-0.8 6.48,-3.6 z"
     id="path48" />
  <path
     class="st6"
     d="m 49.77632,169.25187 c -4.36,2.68 0.32,9.55 -4.32,10.8 -0.49,-0.71 -1,-1.42 -1.44,-2.16 1.54,-3.89 1.34,-7.05 5.76,-8.64 z"
     id="path50" />
  <path
     class="st1"
     d="m 77.13632,196.61187 c -1.45,1.96 -3.47,2.55 -3.6,4.32 -0.76,-0.29 -1.83,-0.99 -2.88,-1.44 0.24,-3.11 4,-3.01 6.48,-2.88 z"
     id="path52" />
  <path
     class="st2"
     d="m 113.85632,205.97187 c -2.12,0.29 -4.57,1.31 -7.2,0.72 -0.02,-0.96 0.02,-1.92 0,-2.88 2.27,1.42 5.55,-0.19 7.2,2.16 z"
     id="path54" />
  <path
     class="st17"
     d="m 60.38632,105.35187 c 13.69,-2.35 24.29,14.44 17.78,26.42 -5.7,10.49 -20.19,12.29 -27.27,2.16 -6.69,-9.58 -2.99,-26.44 9.48,-28.58 z"
     id="path56" />
  <path
     class="st17"
     d="m 150.57632,101.57187 c 0.21,0.06 0.46,0.61 0.72,0.72 1.17,1 2.21,2.06 2.91,3.44 1.41,2.79 2.06,8.1 2.43,11.35 0.7,6.1 1.23,14.5 -1.74,19.77 -8.36,5.97 -19.06,3.73 -23.4,-5.76 -6.3,-13.77 1.58,-34.52 19.08,-29.52 z"
     id="path58" />
  <path
     class="st13"
     d="m 159.93632,164.21187 c -0.9,1.46 -1.47,3 -2.88,4.32 -1.35,1.56 -4.26,1.19 -5.04,-0.72 -0.12,-5.03 -0.52,-11.04 0.72,-15.84 -0.34,6.03 -1.64,15.26 7.2,12.24 z"
     id="path60" />
  <path
     class="st4"
     d="m 133.29632,64.85187 c -0.32,0.47 -2.12,4.08 -2.16,4.32 -6.11,-3.09 -3.17,-9.51 2.16,-4.32 z"
     id="path62" />
  <path
     class="st20"
     d="m 154.89632,136.85187 c 1.12,-11.76 1.38,-23.59 -3.6,-34.56 13.43,5.6 15.47,26.08 3.6,34.56 z"
     id="path64" />
  <path
     class="st0"
     d="m 157.05632,168.53187 c 0.23,0.08 0.46,0.58 0.72,0.72 l -5.76,3.6 c -0.04,-1.67 0.04,-3.36 0,-5.04 1.74,-0.09 3.41,0.17 5.04,0.72 z"
     id="path66" />
  <path
     class="st10"
     d="m 72.09632,77.81187 c -3.85,3.28 -9.67,3.42 -14.4,2.16 -0.23,-0.06 -0.49,-0.64 -0.72,-0.72 5.03,-0.55 10.03,-1.39 15.12,-1.44 z"
     id="path68" />
  <path
     class="st16"
     d="m 149.13632,80.69187 c -0.9,0.56 -1.69,0.96 -1.44,2.16 -0.79,-0.14 -3.32,1.65 -5.04,-1.44 2.31,-0.14 4.19,-0.24 6.48,-0.72 z"
     id="path70" />
  <path
     class="st21"
     d="m 72.81632,67.01187 c -2.42,-0.37 -4.22,-1.68 -4.32,-4.32 1.86,0.85 4.1,2.02 4.32,4.32 z"
     id="path72" />
  <path
     class="st23"
     d="m 85.95632,45.23187 c -2.5,-2.44 1.9,-7.16 4.14,-4.52 2.61,3.08 -1.32,7.28 -4.14,4.52 z"
     id="path74" />
  <path
     class="st5"
     d="m 117.24632,39.03187 c 5.33,-1.48 4.97,8.45 -0.33,5.86 -2.61,-1.28 -2.07,-5.19 0.33,-5.86 z"
     id="path76" />
</svg>
