<?xml version="1.0" encoding="UTF-8"?>
<svg id="Layer_1" xmlns="http://www.w3.org/2000/svg" version="1.1" viewBox="0 0 288 288">
  <!-- Generator: Adobe Illustrator 29.8.3, SVG Export Plug-In . SVG Version: 2.1.1 Build 3)  -->
  <defs>
    <style>
      .st0 {
        fill: #4e4344;
      }

      .st1 {
        fill: #69060b;
      }

      .st2 {
        fill: #d3000c;
      }

      .st3 {
        fill: #d5000d;
      }

      .st4 {
        fill: #585354;
      }

      .st5 {
        fill: #090909;
      }

      .st6 {
        fill: #5e070c;
      }

      .st7 {
        fill: #fbfbfb;
      }

      .st8 {
        fill: #93060f;
      }

      .st9 {
        fill: #ca000c;
      }

      .st10 {
        fill: #929292;
      }

      .st11 {
        fill: #222;
      }

      .st12 {
        fill: #fefcfc;
      }

      .st13 {
        fill: #fc5761;
      }

      .st14 {
        fill: #333;
      }

      .st15 {
        fill: #1a1a1a;
      }

      .st16 {
        fill: #4a4646;
      }

      .st17 {
        fill: #0e0e0e;
      }

      .st18 {
        fill: #fe6c74;
      }

      .st19 {
        fill: #232323;
      }

      .st20 {
        fill: #817373;
      }

      .st21 {
        fill: #979797;
      }

      .st22 {
        fill: #fe000f;
      }

      .st23 {
        fill: #0a0a0a;
      }

      .st24 {
        fill: #fdfdfd;
      }

      .st25 {
        fill: #323232;
      }
    </style>
  </defs>
  <path d="M106.57,85.74c1.16-2.32,8.63-4.53,9.19-5.21.62-.75,2.37-9.65,3.42-12.06,2.58-5.95,8.39-10.25,14.75-11.54-.38-5.5-9.1-13.03-5.08-18.39,5.83-7.75,15.37,10.39,13.72,15.52,2.37.12,4.25-1.43,6.47,0-.38-6.71,3.34-20.27,11.9-19.5,6.97.63,2.37,11.77.22,15.41-.76,1.29-4.77,5.41-4.19,6.24,6.9,1.9,12.34,8.33,15.24,14.65.84,1.83,2.6,8.52,2.92,8.96.48.68,6.54,2.7,7.75,3.76l7.09-12.61c-4.37-4.43-8.93-8.79-13.55-12.96-3.84-3.47-7.52-3.23-7.27-10.08.15-4.3,3.6-6.8,4.26-9.54.43-1.79-1.27-3.69-.25-5.22,1.73-2.57,4.15,2.89,3.98,4.33,1.92-1.58,2.64-4.03,5.75-3.59.99,3.31-2.36,4.72-3.21,6.51-.3.63-2.57,7.7-2.47,8.11.27,1.05,6.5,5.36,7.85,6.61,3.04,2.83,12.58,11.57,12.94,15.2.42,4.23-8.1,12.94-8.69,17.83,4.32.75,13.24,14.2,14.95,14.72,3.16.97,7.09-.69,10.3-.59-.09-6.86,3.43-13.03,5.43-19.41,1.62-5.17-.12-7.17,5.4-11.16,1.11-.8,3.05-.9,3.42-1.26.41-.41,1.71-9.01,5.27-4.56,1.39,1.73-.58,4.15-.07,4.72.55.62,7.37-.19,5.42,3.61-1.38,2.68-4.12.21-6.33.82-4.46,1.24-3.09,7.76-3.89,11.28-.47,2.04-8.57,20.32-9.58,21.38-2.5,2.64-7.54,1.81-10.81,2.86,6.81,11.23,12.15,22.78,13.67,36.01.54,4.68-.03,10.02.24,14.3.2,3.16,3.69,11.17,4.58,15.44,1,4.75,2.83,25.98,5.3,27.82,1.57,1.18,4.3.88,6.49,2.87,2.61,2.37,2.18,5.61,3.51,7.29,1.49,1.89,6.05.92,7.24,5,.62,2.14-3.6.54-4.31,1.07,1.6,2.84,1.86,6.84-2.37,6.34-2.78-.33-3.49-5.39-5.06-7.57-2.83-3.94-10.52-8.4-12.35-11.05-3.42-4.94-4.8-13.68-6.52-19.42-1.68-.32-.85.77-1.15,1.7-1.55,4.83-2.6,9.37-4.63,14.12-23.36,54.71-117.29,52.67-139.11-2.68-.81-2.05-3.34-11.95-3.79-12.42-1.18-1.24-1.22.39-1.5,1.01-3.04,6.7-4,14.68-6.1,21.29-.99,3.1-5.74,4.06-7.11,5.82-2.41,3.08-3.62,10.24-5.81,12.91-.28.34-.8.99-1.05.74-.63-2.85-1.09-5.06-.01-7.91-2.47-.46-2.94,1.38-4.13,2.68-.43.47-.17,1.79-1.65.58-4.64-3.82,2.58-6.87,3.95-8.33s1.79-4.45,3.26-6.1c1.36-1.52,5.08-2.65,5.63-4.45,1.67-12.87,3.79-27.91,8.11-40.13,1.23-3.47,3.78-5.32,4.52-7.72s.19-4.42.57-6.63c2.19-12.91,6.06-25.63,11.43-37.54-13.93-.69-19.3-9.98-23.57-21.77-1.02-2.8-2.01-8.83-2.69-10.27-.28-.6-6.59-5.69-7.61-6.97-2.07-5.62,1.93-6.37,5.79-3.1-.23-2.1-.29-5.49,2.53-5.5,4.22,0,1.67,6.5,2.67,8.23.54.92,3.3,1.6,4.55,5.17,2.61,7.45,4.03,8.3,8.42,14.62,1.03,1.48,4.05,7.32,4.51,7.73.64.57,10.14,1.78,11.02,1.27.26-.15,2.53-3.98,3.38-4.89,2.87-3.09,5.96-6.12,9.32-8.69,4.03-5.29-9.74-11.77-10.2-16.97s17.62-21.81,20.55-27.42c.68-1.96-.47-3.73-.58-5.6-.06-.97.68-2.02.65-2.92-.06-1.71-2.87-3.62-1.75-6.06,1.72-3.72,4.14,1.52,5.39.67.19-.13,1.04-3.3,3.26-2.86,2.67.53-.2,4.94-.25,6.08-.12,2.97,1.97,7.9,1.98,10.12.02,8.41-19.23,26.11-19.22,28.09,2.86,3.28,7,6.71,7.8,11.15Z"/>
  <path class="st22" d="M142.56,162.06l-.67,1.71c-15.01,6.17-18.66,26.72-.38,31.27.8,2.51.9,4.96.33,7.34.24,10.55-.69,21.05,0,31.68l-1.19,1.06-18.51-4.84c-3.39-.9-4.26-2.28-2.62-4.14l-1.49-.79c.94-11.35-10.2-21.62-20.22-25.01l-.6-1.56c-1.87-.54-3.9-.54-6.09,0-6.66-12.17-7.57-24.31-6.41-38.25.66-7.94,1.9-18.4,3.57-26.13.6-2.79,3.45-9.39,6.05-10.49,9.18-1.51,19.12-2.66,28.43-2.15,7.47.4,15.59,1.52,21.12,6.89-2.12,10.95-1.24,22.28-1.31,33.42Z"/>
  <path class="st22" d="M192.96,124.62c.54,1.77.25,5.67-.72,7.2l-1.62,1.08c-26.76-4.04-22.74,47.14,4.1,33.7l1.84.51c1.95,3.76.28,11.66-2.16,15.12-.99,4.91-.5,9.52.68,14.34l-1.4,1.5-.2.98c-14.24,1.26-24.55,16.06-16.05,28.97l-.3,1.73c-6.86,3.22-14.08,5.43-21.6,6.48-2.17-.33-4.38-.5-6.63-.49l-.57-1.67c-.05-2.74-.72-6.31-.72-8.28v-21.6c0-1.69.67-5.05.72-7.56l.98-1.34c19.52-3.56,16.77-24.94.32-32.15l-.58-1.79c.09-9.63-.53-19.11,0-28.8.33-2.66,1.02-3.28,3.41-4.62,12.22-6.88,26.45-6.12,39.65-4.63l.86,1.33Z"/>
  <path class="st25" d="M180,91.5c.59,1.86-3.44,4.29-5.04,3.6-1.17.16-2.54.03-4.09-.37.66,1.64,1.31,3.2,1.93,4.69l1.34.94c-.07,4.59,3.82,8.04,7.78,9.68l.24,1.62-1.74,1.51c-11.28-.23-21.83.81-31.8,6.09-9.42-5.96-20.74-9.13-32.07-9.7l-2.08-1.5c-.22-1.34.16-2.93,1.17-4.76-1.29-2.83-1.44-4.85-.45-6.04,4.64-5,9.76-9.01,17.36-9.32l12.9,1c4.51.58,8.34-1.15,12.22-3.21,10.71-.64,13.5.37,22.32,5.76Z"/>
  <path class="st3" d="M94.32,123.9l-4.66,10.82c-1.8,16.12-6.93,35.85-2.02,51.66.44,1.41,4.1,11.23,4.62,11.58.92.63,4.02-.76,4.95.81-.56,1.78-4.87,2.31-5.76.72-2.39,1.81-3.77,4.61-4.13,8.4l-1.63.24c-12.56-20.87-11.91-45.84-5.7-68.7.67-2.46,3.15-11.33,4.21-12.89,1.34-1.99,7.98-2.29,10.13-2.65Z"/>
  <path class="st18" d="M201.6,123.9c11.09,10.44,10.52,31.22,8.82,45.49-.52,4.37-3.98,23.59-7.57,24.85-.39.14-.82.19-1.25.23-8.59,7-8.4-6.38-7.2-12.24.29-5.09,1.68-10.07,2.16-15.12l1.42-3.12c9.08-10.4,4.81-23.38-5.02-31.44-1.04.98-1.44.55-.72-.72-1.26-2.37-1.14-5.21.72-7.2-.31-1.49.89-2.21,3.6-2.16,2.08.37,3.06.48,5.04,1.44Z"/>
  <path class="st17" d="M97.2,198.78c8.08,1,19.9,12.44,21.83,20.29.66,2.71.27,4.57.49,7.07-.07.58-.31.82-.72.72-2.18,1.04-4.35,1.99-6.48,2.88-10.29-4.4-18.76-10.12-25.2-19.44.22-4.77,1.66-8.37,4.32-10.8,2.08-.75,3.37-1.01,5.76-.72Z"/>
  <path class="st17" d="M193.68,198.06l1.67,2.3c1.23-.92,2.64-1.53,4.09-.86,2.52-2.87,5.32,2.4,5.76,5.04-4.75,9.8-18.32,20.62-28.08,25.2-8.44-7.77-3.03-25,6.44-29.2,2.33-1.03,7.59-2.35,10.12-2.48Z"/>
  <path class="st11" d="M182.16,111.66c.6-2.07,1.11-1.76,2.16,0,1.56.66,2.83,1.11,4.5.55l.54.89c1.24-2.13,6.01-.43,5.04,2.16-12.04-.94-28.47-1.51-39.79,3.05-1.66.67-6.83,4.09-7.25,4.05-.74-.07-5.29-3.16-6.98-3.85-13.41-5.47-28.41-2.02-42.47-2.53-.77-1.47-.22-5.14,1.44-5.76,4.87-.04,9.67-.76,14.4-2.16.13-.64.38-.62.72,0,9.54.1,20.44,2.6,29.06,6.58,1.28.59,4.63,3.22,5.15,3.25.85.05,5.07-2.66,6.64-3.19,9.94-3.34,16.8-2.55,26.84-3.04Z"/>
  <path class="st22" d="M201.6,123.9c2.52,1.22,2.77,2.08,4.78,3.51.94.67,2.59.46,3.2,1.27.67.9,2.93,7.89,3.32,9.47,4.57,18.2.48,49.47-7.71,66.39-1.96.38-1.77-2.15-3.2-3.66-1.06-1.11-1.64-.9-2.56-1.38-1.14.52-1.49.31-.72-.72-.84-1.79.12-3.23,2.88-4.32,8.64-14.11,10.47-44.8,5.24-60.32-1.24-3.68-3.38-6.89-5.24-10.24Z"/>
  <path class="st17" d="M149.04,161.34c7,2.59,13.36,9.46,15.35,16.68,2.21,8.03-7.07,20.03-16.07,18.6.25-11.77.61-23.5.72-35.28Z"/>
  <path class="st17" d="M142.56,162.06c-.08,11.94-.67,24.64.04,36.34.07,1.17.36,3.26-.76,3.98-.22-9.42-1.09-4.6-7.44-8.76s-8.11-12.04-5.56-19c1.73-4.74,8.66-11.36,13.72-12.56Z"/>
  <path class="st12" d="M197.28,107.34c2.36,3.38-4.64,6.22-6.48,3.6-1.93,1.41-4.23,2.34-6.48.72-.72.04-1.44-.04-2.16,0-4.95-1.62-10.28-6.56-9.36-12.24-1.88-1.16.03-4.97,2.16-4.32,1.23-1.8,3.19-2.64,5.04-3.6,7.35,4.49,12.22,8.86,17.28,15.84Z"/>
  <path class="st24" d="M110.16,92.94l4.32,4.32c.24-.61.48-.6.72,0,1.71,4.62,3.5,6.83-.72,10.8-.24,0-.48,0-.72,0-4.8,1.68-10.11,2.43-15.12,1.44-1.64,2.35-6.41-.04-4.32-2.88,4.88-6.31,9.75-9.13,15.84-13.68Z"/>
  <path class="st19" d="M157.68,85.74c-5.48,7.74-15.66,3.62-23.39,3.55-4.36-.04-10.04,1.72-13.5,4.36-2.3,1.76-.84,3.53-5.59,3.61-.23,0-.5.03-.72,0-1.68-1.23-3.12-2.67-4.32-4.32,2.87-2.14,5.28-5.95,9.07-6.4,9.58-1.13,19.23,1.14,28.76.67,3.04-.15,6.76-1.29,9.69-1.47Z"/>
  <path class="st25" d="M153.36,61.27c-3.91,4.89-6.49,12.86-3.6,18.71h-7.92c2.05-6.83.04-13.22-5.04-17.99,5.55-1.38,10.87-2.2,16.56-.72Z"/>
  <path class="st7" d="M123.13,79.98c-.13-5.27,2.96-15.55,9.68-14.41,4.18.71,7.16,9.48,4.33,12.95-1.9,2.33-10.67-.52-14.01,1.46Z"/>
  <path class="st9" d="M119.52,226.14c.06.67-.31.97.43,1.51,3.59,2.61,17.14,4.24,21.89,6.41.05.72,1.55,2.7.37,3.59-8.94-2.03-18.42-3.2-27.01-6.47-2.81-2.07,1.31-3.7,3.6-4.32.2-.27.48-.49.72-.72Z"/>
  <path class="st7" d="M167.76,78.54c-2.47-.89-11.65,1.31-12.99.4-2.98-2.04.69-16.12,4.36-14.47,3.41,1.54,8,10.22,8.62,14.06Z"/>
  <path class="st8" d="M196.56,122.46c-.88.46-2.87,2.01-3.6,2.16-3.25.66-8.98-1.27-12.57-1.47-10.1-.55-20.7,1.53-29.4,6.66-1.25.74-1.16,1.75-1.95,2.73.08-1.41-.42-2.74.71-3.97.23-.25,5.13-3.3,5.76-3.6,9.12-4.21,31.08-4.3,41.05-2.51Z"/>
  <path class="st15" d="M94.32,106.62c-.44,2,2.71,2.3,4.32,2.88.58.02.86.11.72.72.2,2.18.13,4.12-1.44,5.76l-10.08,2.16c-.74-.75,5.45-10.19,6.48-11.52Z"/>
  <path class="st14" d="M197.28,107.34c.69.95,5.73,8.02,5.04,8.64-2.65-.21-5.26-.51-7.92-.72-1.01-1.17-3.59-1.9-5.04-2.16-2.79-.67-.53-1.5,1.44-2.16,2.27-.47,6.36-.8,6.48-3.6Z"/>
  <path class="st6" d="M91.44,199.5c-4.36,2.68.32,9.55-4.32,10.8-.49-.71-1-1.42-1.44-2.16,1.54-3.89,1.34-7.05,5.76-8.64Z"/>
  <path class="st1" d="M118.8,226.86c-1.45,1.96-3.47,2.55-3.6,4.32-.76-.29-1.83-.99-2.88-1.44.24-3.11,4-3.01,6.48-2.88Z"/>
  <path class="st2" d="M155.52,236.22c-2.12.29-4.57,1.31-7.2.72-.02-.96.02-1.92,0-2.88,2.27,1.42,5.55-.19,7.2,2.16Z"/>
  <path class="st17" d="M102.05,135.6c13.69-2.35,24.29,14.44,17.78,26.42-5.7,10.49-20.19,12.29-27.27,2.16-6.69-9.58-2.99-26.44,9.48-28.58Z"/>
  <path class="st17" d="M192.24,131.82c.21.06.46.61.72.72,1.17,1,2.21,2.06,2.91,3.44,1.41,2.79,2.06,8.1,2.43,11.35.7,6.1,1.23,14.5-1.74,19.77-8.36,5.97-19.06,3.73-23.4-5.76-6.3-13.77,1.58-34.52,19.08-29.52Z"/>
  <path class="st13" d="M201.6,194.46c-.9,1.46-1.47,3-2.88,4.32-1.35,1.56-4.26,1.19-5.04-.72-.12-5.03-.52-11.04.72-15.84-.34,6.03-1.64,15.26,7.2,12.24Z"/>
  <path class="st4" d="M174.96,95.1c-.32.47-2.12,4.08-2.16,4.32-6.11-3.09-3.17-9.51,2.16-4.32Z"/>
  <path class="st20" d="M196.56,167.1c1.12-11.76,1.38-23.59-3.6-34.56,13.43,5.6,15.47,26.08,3.6,34.56Z"/>
  <path class="st0" d="M198.72,198.78c.23.08.46.58.72.72l-5.76,3.6c-.04-1.67.04-3.36,0-5.04,1.74-.09,3.41.17,5.04.72Z"/>
  <path class="st10" d="M113.76,108.06c-3.85,3.28-9.67,3.42-14.4,2.16-.23-.06-.49-.64-.72-.72,5.03-.55,10.03-1.39,15.12-1.44Z"/>
  <path class="st16" d="M190.8,110.94c-.9.56-1.69.96-1.44,2.16-.79-.14-3.32,1.65-5.04-1.44,2.31-.14,4.19-.24,6.48-.72Z"/>
  <path class="st21" d="M114.48,97.26c-2.42-.37-4.22-1.68-4.32-4.32,1.86.85,4.1,2.02,4.32,4.32Z"/>
  <path class="st23" d="M127.62,75.48c-2.5-2.44,1.9-7.16,4.14-4.52,2.61,3.08-1.32,7.28-4.14,4.52Z"/>
  <path class="st5" d="M158.91,69.28c5.33-1.48,4.97,8.45-.33,5.86-2.61-1.28-2.07-5.19.33-5.86Z"/>
</svg>