<?xml version="1.0" encoding="UTF-8" standalone="no"?>
<svg
   version="1.1"
   id="Layer_1"
   x="0px"
   y="0px"
   width="139.8868"
   height="92.632759"
   viewBox="0 0 139.8868 92.632759"
   enable-background="new 0 0 150 150"
   xml:space="preserve"
   sodipodi:docname="lioness.svg"
   xmlns:inkscape="http://www.inkscape.org/namespaces/inkscape"
   xmlns:sodipodi="http://sodipodi.sourceforge.net/DTD/sodipodi-0.dtd"
   xmlns="http://www.w3.org/2000/svg"
   xmlns:svg="http://www.w3.org/2000/svg"><defs
   id="defs69" /><sodipodi:namedview
   id="namedview67"
   pagecolor="#ffffff"
   bordercolor="#000000"
   borderopacity="0.25"
   inkscape:showpageshadow="2"
   inkscape:pageopacity="0.0"
   inkscape:pagecheckerboard="0"
   inkscape:deskcolor="#d1d1d1" />
  <g
   id="g64"
   transform="translate(-5.000447,-43.999335)">
    <path
   fill="#96669b"
   d="m 122.6,80.244 c -1.498,3.371 -1.548,5.875 -0.351,9.23 0.399,1.146 1.635,1.397 1.548,2.629 -0.05,0.655 -0.512,0.922 -0.998,1.287 -1.16,0.881 -3.456,2.084 -3.594,0.502 -0.188,-2.098 0.273,-3.496 -0.699,-5.312 -0.972,-1.816 -3.355,-2.125 -2.994,-4.196 0.387,-2.194 1.859,-2.95 3.594,-4.026 1.273,-0.786 2.808,-1.653 3.494,-0.114 z"
   id="path2" />
    <path
   fill="#f5d03c"
   d="m 125.645,56.187 c -2.971,-0.224 -4.742,-0.224 -6.938,-0.112 0,-4.056 -5.117,-6.517 -8.536,-5.258 -1.797,0.671 -3.243,0.699 -4.394,2.349 -1.348,1.93 -0.696,4.308 0.602,6.266 -10.061,0.923 -14.5,8.839 -24.559,8.839 -10.458,0 -16.195,-3.357 -26.652,-3.357 -11.105,0 -19.091,1.483 -26.953,10.294 -2.046,2.293 -3.594,4.615 -6.389,5.481 -2.221,0.67 -4.642,1.062 -5.191,-1.455 -1.098,-5.005 3.095,-10.18 7.587,-11.3 5.565,-1.37 8.436,-3.608 13.576,-6.489 4.368,-2.433 7.387,-6.825 5.99,-12.084 -1.198,-4.559 -8.884,-3.692 -10.781,0.56 -2.496,5.623 -4.917,8.587 -9.783,11.524 -3.818,2.294 -5.865,2.797 -9.483,5.482 -4.867,3.637 -7.787,9.455 -7.787,16 0,9.566 10.856,13.817 18.567,9.51 0.999,3.355 1.273,5.957 -0.199,9.062 -1.397,2.938 -3.668,3.272 -5.49,5.933 -3.219,4.644 1.896,8.948 1.896,14.769 0,3.134 -1.522,5.397 -0.399,8.28 1.198,3.021 2.071,4.56 4.991,4.922 1.648,0.197 2.92,0.084 4.093,-1.229 0.374,-0.42 0.25,-1.397 0.798,-1.343 2.545,0.335 5.341,-3.021 4.193,-5.596 1.597,-0.896 1.921,-2.854 1.497,-4.698 -0.424,-1.875 -2.57,-1.763 -4.292,-1.455 -3.27,0.588 -3.17,-5.007 -3.495,-8.728 3.744,0.336 5.89,-0.561 9.483,-1.789 1.773,3.438 4.243,4.14 6.889,6.713 2.645,2.572 2.62,6.125 5.89,7.72 2.67,1.288 4.217,-2.235 6.189,-4.587 1.672,-1.985 -0.274,-6.797 -2.695,-6.377 -2.296,0.391 -4.816,-1.092 -4.991,-3.693 -0.075,-1.006 0.924,-1.258 1.597,-1.9 1.423,-1.371 1.298,-3.524 3.095,-4.142 0.798,-0.251 3.519,1.847 4.492,2.351 6.639,3.496 10.532,6.604 17.871,6.604 0,5.26 -0.25,11.271 3.691,14.21 3.594,0.562 8.484,0 8.484,-4.026 1.322,0.14 2.121,-2.545 1.197,-3.582 -1.322,-1.48 -3.42,-1.092 -3.992,-3.133 -0.448,-1.648 -1.474,-2.824 -0.799,-4.363 0.947,-2.153 3.043,-2.153 5.19,-2.351 1.621,5.511 2.845,7.832 4.989,13.091 1.647,4.086 2.496,7.104 5.99,9.286 3.442,2.154 6.64,2.49 10.082,0.337 1.873,-1.176 3.818,-1.285 4.491,-3.58 0.449,-1.566 -0.198,-3.303 -1.598,-3.805 0.823,-1.875 -1.821,-3.413 -3.69,-3.469 -2.299,-0.083 -3.396,-1.959 -4.595,-4.143 -2.444,-4.392 -3.294,-7.58 -3.294,-12.756 0,-1.957 1.396,-2.685 1.896,-4.586 0.848,-3.301 0.571,-5.623 2.494,-8.279 1.174,-1.649 3.918,-2.678 4.791,-0.782 1.498,3.243 0.301,3.805 -0.5,6.04 1.549,0.867 4.094,-0.141 4.094,1.791 0.801,1.818 3.045,1.287 4.941,-0.672 0.631,-0.647 0,1.791 0.25,2.688 0.225,0.812 1.174,0.923 1.896,0.671 3.193,-1.118 2.796,-5.397 2.796,-9.175 -2.945,-0.167 -4.269,-3.523 -4.493,-6.825 -0.148,-2.377 0.148,-4.309 1.996,-5.481 0.6,-0.363 1.822,0.252 2.296,0.783 2.621,2.938 1.974,5.481 5.392,7.051 2.422,1.09 4.293,0.056 6.688,-1.121 3.22,-1.594 5.666,-3.021 6.589,-6.824 0.673,-2.77 0.624,-5.874 -1.695,-7.049 -4.867,-2.489 -8.785,-1.902 -9.783,-11.86 -0.469,-3.335 -3.112,-5.153 -6.083,-5.153 z"
   id="path4" />
    <path
   fill="#c38741"
   d="m 143.712,74.313 c -0.424,-1.314 -1.997,-0.224 -3.194,0.111 -1.697,0.477 -2.994,-0.027 -4.392,1.119 -1.397,1.146 -1.448,3.637 -0.201,5.035 1.772,1.984 4.293,3.049 6.19,1.343 1.023,-0.923 0.974,-2.126 1.197,-3.581 0.25,-1.537 0.876,-2.545 0.4,-4.027 z"
   id="path6" />
    <ellipse
   fill="#272525"
   cx="136.52499"
   cy="68.468002"
   rx="0.92400002"
   ry="1.036"
   id="ellipse8" />
    <path
   fill="#ffffff"
   d="m 137.116,68.22 c 0.209,1.152 -1.868,1.353 -3.14,0.781 -0.211,-0.385 -0.41,-0.83 -0.586,-1.299 0.84,-0.684 3.481,-0.83 3.726,0.518 z"
   id="path10" />
    <path
   fill="#272525"
   d="m 138.163,68.665 c -0.106,1.265 -1.033,1.944 -2.166,2.135 -1.642,-0.744 -2.509,-2.28 -2.904,-4.265 1.789,-1.312 5.339,-1.024 5.07,2.13 z"
   id="path12" />
    <path
   fill="#272525"
   d="m 70.616,66.265 c 5.384,1.337 13.175,2.074 18.407,-0.135 3.804,-1.605 7.311,-3.659 10.822,-5.907 1.139,-0.731 6.391,-2.758 4.59,0.895 -3.771,1.021 -6.949,3.082 -10.541,4.7 -6.394,2.879 -11.715,4.499 -18.688,3.446 -12.09,-1.826 -25.991,-5.147 -37.733,0 -3.155,1.383 -6.264,4.302 -8.825,6.757 -2.957,2.838 -6.635,7.881 -11.1,5.506 -1.281,-0.682 -2.374,-2.016 -2.675,-3.581 -1.617,-8.38 9.223,-10.948 14.175,-12.89 5.005,-1.962 9.635,-4.516 12.538,-9.756 4.53,-8.177 -5.452,-11.617 -7.946,-4.296 -1.232,3.617 -3.684,7.754 -7.267,10.204 -1.353,0.925 -2.227,1.812 -3.953,1.611 l -0.479,-0.761 c 1.057,-0.906 2.307,-1.454 3.474,-2.148 7.016,-4.167 4.671,-15.143 12.258,-15.888 2.156,-0.212 4.655,1.081 5.83,3.133 1.359,2.374 1.581,6.76 0.12,9.129 -4.4,7.138 -11.887,9.646 -18.808,12.128 -3.184,1.143 -7.808,4.882 -7.946,8.996 -0.041,1.214 0.244,2.295 1.238,2.908 2.18,1.348 5.104,-0.596 6.628,-2.371 1.2,-1.398 2.216,-2.902 3.507,-4.232 6.697,-6.899 14.927,-9.63 23.885,-9.731 6.208,-0.07 18.489,2.283 18.489,2.283 z"
   id="path14" />
    <path
   fill="#272525"
   d="m 118.533,59.373 -0.479,-0.224 c 0.592,-5.639 -3.22,-9.409 -8.146,-7.698 -1.229,0.427 -3.047,2.229 -3.436,3.625 -1.297,4.64 6.639,7.802 4.672,8.593 -2.271,-0.319 -4.379,-1.945 -5.631,-4.073 -1.133,-1.926 -1.605,-5.129 -0.279,-7.072 4.555,-6.656 17.116,-1.997 13.299,6.849 z"
   id="path16" />
    <path
   fill="#272525"
   d="m 116.536,84.749 c 2.675,1.981 4.108,5.341 3.354,8.906 1.164,0.019 2.08,-1.003 3.233,-1.073 0.239,-0.312 0.649,-0.312 0.958,-0.136 l 0.12,0.536 c -1.056,0.744 -2.563,1.647 -3.754,2.061 -5.642,1.95 -8.41,-7.693 -5.552,-12.441 1.482,-2.459 4.814,-3.84 7.389,-3.356 4.617,0.868 4.973,8.918 10.145,8.504 4.078,-0.327 8.539,-4.372 9.701,-8.817 0.404,-1.545 1.018,-3.603 0.079,-5.057 -10.295,-0.4 -8.646,-6.065 -12.458,-13.65 -1.352,-2.688 -4.248,-3.976 -6.906,-3.625 -0.998,0.131 -1.945,0.271 -2.955,0.223 0.059,-1.379 2.436,-1.407 3.435,-1.611 0.116,-4.725 5.868,-5.933 8.065,-2.283 1.861,3.093 -1.201,4.53 -0.76,5.371 0.698,1.324 1.406,2.449 1.953,3.889 0.734,1.937 1.223,4.748 2.239,6.449 2.784,4.658 10.243,1.256 10.062,9.129 -0.107,4.754 -4.468,9.394 -8.146,11.056 -10.75,4.854 -10.006,-9.509 -16.293,-8.19 -1.778,0.37 -3.67,2.003 -3.909,4.115 z"
   id="path18" />
    <path
   fill="#f5d03c"
   d="m 129.751,57 c -1.45,-1.218 -3.013,-1.486 -4.756,-1.765 -0.2,-0.727 0.103,-1.422 0.499,-1.958 2.041,-2.759 6.817,0.787 4.257,3.723 z"
   id="path20" />
    <path
   fill="#272525"
   d="m 109.068,53.242 c 1.916,-2.235 6.104,-0.322 6.986,2.282 1.161,3.411 -1.791,6.414 -4.711,5.057 -3.917,-1.82 -3.093,-6.384 -2.275,-7.339 z"
   id="path22" />
    <path
   fill="#cfab7d"
   d="m 114.417,55.39 c 0.646,1.022 0.71,2.972 0.146,3.483 -1.793,1.624 -4.19,-0.798 -4.655,-2.408 -1.049,-3.63 2.996,-3.48 4.509,-1.075 z"
   id="path24" />
    <path
   fill="#272525"
   d="m 20.783,63.355 c -0.08,0.626 -0.798,0.939 -1.238,1.387 -6.468,2.327 -11.979,9.22 -12.338,16.962 -0.399,4.476 2.795,7.071 5.83,8.95 2.316,1.119 5.55,1.477 8.065,0.537 0.799,0.179 1.678,0.269 2.396,0.851 0.08,0.761 -0.479,1.298 -0.878,1.7 -4.233,1.746 -9.583,0.762 -13.018,-2.46 C 6.487,88.372 4.371,84.478 5.17,79.689 6.487,73.513 10.88,67.158 16.311,64.742 c 1.438,-0.492 2.715,-1.477 4.312,-1.701 z"
   id="path26" />
    <path
   fill="#272525"
   d="m 127.387,64.666 c 1.154,2.342 -6.549,0.94 -7.468,0.94 -0.356,0 -0.567,-0.532 -0.358,-0.851 1.296,-1.987 6.407,-2.965 7.826,-0.089 z"
   id="path28" />
    <path
   fill="#c38741"
   d="m 125.389,64.666 c -1.318,0 -2.756,0 -3.912,0 1.117,-0.807 2.794,-0.807 3.912,0 z"
   id="path30" />
    <path
   fill="#272525"
   d="m 127.025,68.682 c 1.466,3.5 -5.074,5.803 -6.508,2.551 -1.288,-2.931 4.699,-6.88 6.508,-2.551 z"
   id="path32" />
    <path
   fill="#ffffff"
   d="m 125.708,68.771 c 1.085,1.383 -2.793,3.136 -4.033,2.059 -1.008,-0.877 2.828,-3.596 4.033,-2.059 z"
   id="path34" />
    <ellipse
   fill="#272525"
   cx="125.034"
   cy="69.725998"
   rx="1.187"
   ry="1.2029999"
   id="ellipse36" />
    <path
   fill="#272525"
   d="m 143.014,75.264 c -0.676,0.047 -5.873,1.032 -6.988,1.341 -0.365,0.104 -0.799,1.01 -0.322,1.877 1.104,2.029 4.814,3.326 5.814,2.937 -0.193,0.499 -1.055,2.321 -1.748,2.183 -4.043,-0.951 -5.482,-3.67 -6.039,-5.539 -0.299,-1.006 -0.057,-2.229 0.648,-2.686 1.896,-1.231 7.374,-1.45 8.285,-1.511 0.002,0 0.511,1.01 0.35,1.398 z"
   id="path38" />
    <path
   fill="#ff8eb7"
   d="m 118.533,93.208 c -2.651,-0.839 -2.84,-4.017 -2.276,-6.534 1.947,1.426 2.432,4.092 2.276,6.534 z"
   id="path40" />
    <path
   fill="#272525"
   d="m 122.005,92.582 c -2.252,-2.938 -3.252,-7.65 -1.558,-11.188 0.255,-0.158 0.722,-0.252 0.879,0.133 0.267,0.656 -1.074,4.885 0.679,8.236 0.736,1.403 1.996,1.911 0,2.819 z"
   id="path42" />
    <path
   fill="#272525"
   d="m 26.732,129.416 0.199,-0.312 c 1.637,0.086 3.511,0.801 4.113,2.685 1.76,-0.151 3.804,-2.149 2.795,-4.297 -0.468,-0.995 -2.2,-1.446 -3.075,-1.833 l 0.2,-0.538 c 1.226,-0.168 2.419,0.208 3.434,0.983 1.468,-0.604 1.632,-2.783 0.399,-3.761 -2.026,-1.603 -4.443,2.772 -5.67,-0.534 -0.969,-2.615 -1.797,-9.488 -1.797,-9.488 1.511,-1.197 3.604,-1.201 5.351,-1.7 5.75,-1.647 12.492,-2.986 15.333,-9.668 0.357,-0.839 0.726,-4.351 1.517,-4.072 0.333,0.884 0.23,1.981 0.12,2.908 -1.064,8.927 -13.55,14.483 -20.724,13.204 0,0 1.452,5.152 1.836,7.742 0.099,0.09 3.539,-1.664 5.471,0.535 1.019,1.162 1.005,2.711 0.758,4.162 -0.322,1.896 -2.086,1.17 -1.158,3.225 0.99,2.187 -2.607,6.305 -4.592,4.742 -2.159,5.139 -9.334,3.623 -11.5,-0.852 -1.785,-3.688 0.925,-7.816 0.479,-11.812 -0.481,-4.322 -5.554,-8.58 -2.955,-12.801 2.078,-3.373 4.86,-5.195 6.109,-9.354 1.259,-4.188 -0.465,-7.472 0,-11.502 l 0.879,-0.181 c 0.219,0.947 1.286,6.998 1.438,8.996 0.389,5.146 -2.171,9.041 -5.87,11.502 -1.089,0.726 -1.956,2.804 -1.597,4.207 0.585,2.295 2.716,4.231 3.354,6.981 1.091,4.703 -0.303,5.608 -0.599,9.31 -0.147,1.844 1.331,4.729 2.676,5.729 3.46,2.567 9.137,-0.688 3.076,-4.206 z"
   id="path44" />
    <path
   fill="#272525"
   d="m 112.223,94.191 c -2.315,-2.032 -0.63,-1.979 -2.117,-3.535 -1.75,0.224 -2.608,2.16 -3.752,3.4 -2.412,0.131 0.847,-3.957 1.558,-4.477 0.774,-0.566 2.499,-0.92 3.437,-1.208 0.855,0.977 1.163,4.479 0.874,5.82 z"
   id="path46" />
    <path
   fill="#272525"
   d="m 108.469,121.448 c 2.158,-0.101 7.229,-0.316 6.148,3.894 1.713,2.077 1.506,6.938 -1.639,7.071 -0.318,-0.25 -1.084,-0.57 -0.758,-1.164 1.629,-0.938 3.174,-2.933 1.797,-4.967 -1.047,-1.55 -3.494,0.04 -4.394,-1.7 0.944,-0.861 2.294,-0.244 3.354,-0.09 -0.316,-3.271 -4.388,-0.871 -5.668,-2.283 -3.545,-3.898 -6.275,-11.646 -5.91,-17.188 0.271,-4.131 3.093,-6.172 2.556,-10.965 -0.159,-1.418 -1.029,-3.076 -0.56,-4.477 1.033,0.34 1.123,1.729 1.438,2.686 1.023,3.135 0.896,6.647 -0.268,9.717 -0.24,0.637 -0.687,1.265 -0.893,1.877 -1.501,4.447 1.895,13.516 4.312,17.053 0.139,0.192 0.33,0.363 0.485,0.536 z"
   id="path48" />
    <path
   fill="#272525"
   d="m 118.93,102.337 c -0.142,-1.067 0.672,-2.032 0.36,-3.088 -1.285,1.612 -3.626,2.329 -5.353,1.164 -0.082,-0.535 0.131,-1.093 0.398,-1.522 -1.165,-0.102 -4.259,0.377 -4.712,-1.388 -0.151,-0.601 2.129,-3.021 2.478,-3.088 0.627,1.003 -0.308,1.823 -0.479,2.774 1.247,0.537 3.339,0.172 4.337,0.508 -0.249,0.783 -0.409,1.553 -0.584,1.863 2.175,1.479 3.788,-1.978 4.791,-1.834 0.502,0.892 0.671,1.961 0.562,2.998 3.399,-0.004 3.686,-5.271 4.03,-7.922 0.257,-0.304 0.607,-0.006 0.681,0.312 0.881,3.948 -2.07,12.136 -6.509,9.223 z"
   id="path50" />
    <path
   fill="#272525"
   d="m 88.941,102.875 c 1.863,8.585 4.117,16.771 8.029,23.854 1.997,3.621 6.635,8.029 10.738,6.76 1.971,-0.609 3.411,-2.956 1.238,-4.521 -0.649,0.021 -1.162,-0.406 -1.719,-0.717 0.818,-1.771 3.808,-0.016 4.395,1.389 2.574,6.144 -6.559,7.119 -10.702,4.521 -6.876,-4.313 -9.823,-15.017 -11.618,-23.095 -0.705,-3.172 -1.461,-7.166 -1.318,-10.428 0.901,0.003 0.773,1.383 0.957,2.237 z"
   id="path52" />
    <path
   fill="#272525"
   d="m 55.762,104.484 c 9.125,5.812 20.642,9.222 30.865,5.371 0.561,0.135 1.396,-0.357 1.639,0.447 -1.679,2.953 -5.414,3.48 -8.426,3.982 -7.202,1.201 -14.575,-0.762 -20.524,-4.743 -3.234,-1.97 -6.189,-4.878 -9.863,-5.685 -0.359,-0.226 0.399,-1.209 0.479,-1.387 2.235,-0.176 4.072,0.899 5.83,2.015 z"
   id="path54" />
    <path
   fill="#272525"
   d="m 49.751,110.909 c 0.419,1.315 1.171,2.503 2.196,3.312 6.828,-4.068 7.083,6.795 3.833,7.43 -0.166,1.594 -0.689,3.095 -2.037,3.851 -4.707,2.64 -6.44,-3.293 -8.505,-6.534 -2.17,-3.408 -8.795,-2.812 -6.908,-8.056 1.566,1.71 1.572,3.054 3.913,3.849 3.333,1.131 4.747,5.19 6.548,8.057 0.397,0.629 1.998,1.746 2.676,1.834 1.895,0.248 4.484,-2.582 2.276,-4.071 -0.497,-0.334 -1.253,-0.043 -1.318,-0.851 -0.121,-1.506 2.361,0.002 2.755,0.625 1.769,-0.299 1.873,-2.203 0.399,-2.998 -0.797,-0.43 -1.91,0.688 -2.196,-0.446 -0.312,-1.238 2.21,-0.946 2.755,-0.626 0.086,-0.462 -0.465,-1.266 -0.839,-1.389 -0.993,-0.328 -2.936,1.688 -4.033,0.625 -1.261,-1.221 -3.837,-4.832 -2.315,-6.668 1.095,-1.319 2.371,-2.24 3.354,-3.76 1.309,1.707 -1.673,4.876 -2.554,5.816 z"
   id="path56" />
    <path
   fill="#272525"
   d="m 88.538,124.382 c 0.354,1.681 -0.968,3.525 -2.812,3.357 -0.483,0.782 -0.617,1.212 -1.824,1.338 -7.406,0.778 -8.897,-6.761 -7.943,-14.636 h 0.6 c 0.221,4.373 0.564,8.238 3.196,11.414 1.458,1.759 6.188,3.201 5.167,-1.209 -0.271,-1.176 -1.416,-1.188 -1.969,-2.016 1.109,-0.921 3.352,1.346 3.305,3.09 0.902,0.311 1.692,-2.166 1.195,-3.224 -0.502,-1.063 -2.531,-2.147 -2.531,-2.147 1.428,-0.317 2.787,0.613 3.621,2.06 0.661,-0.92 0.699,-2.671 -1.09,-2.909 -2.113,0.74 -3.116,-3.962 -2.812,-5.906 1.42,0.795 0.818,3.963 2.392,4.297 2.911,0.618 3.813,2.604 3.483,4.088 -0.573,2.571 -1.187,2.068 -1.978,2.403 z"
   id="path58" />
    <path
   fill="#272525"
   d="m 133.623,63.418 c -0.6,2.352 4.684,0.364 5.328,0.288 0.25,-0.029 0.351,-0.559 0.176,-0.849 -1.092,-1.805 -4.77,-2.325 -5.504,0.561 z"
   id="path60" />
    <path
   fill="#c38741"
   d="m 135.023,63.253 c 0.927,-0.109 1.937,-0.228 2.748,-0.324 -0.856,-0.682 -2.035,-0.545 -2.748,0.324 z"
   id="path62" />
  </g>
</svg>
