<?xml version="1.0" encoding="UTF-8" standalone="no"?>
<svg
   id="Layer_1"
   version="1.1"
   viewBox="0 0 202.74956 334.14545"
   sodipodi:docname="Lizard.svg"
   width="202.74956"
   height="334.14545"
   xmlns:inkscape="http://www.inkscape.org/namespaces/inkscape"
   xmlns:sodipodi="http://sodipodi.sourceforge.net/DTD/sodipodi-0.dtd"
   xmlns="http://www.w3.org/2000/svg"
   xmlns:svg="http://www.w3.org/2000/svg">
  <sodipodi:namedview
     id="namedview243"
     pagecolor="#ffffff"
     bordercolor="#000000"
     borderopacity="0.25"
     inkscape:showpageshadow="2"
     inkscape:pageopacity="0.0"
     inkscape:pagecheckerboard="0"
     inkscape:deskcolor="#d1d1d1" />
  <!-- Generator: Adobe Illustrator 29.8.3, SVG Export Plug-In . SVG Version: 2.1.1 Build 3)  -->
  <defs
     id="defs4">
    <style
       id="style2">
      .st0 {
        fill: #94963e;
      }

      .st1 {
        fill: #715921;
      }

      .st2 {
        fill: #807b31;
      }

      .st3 {
        fill: #898736;
      }

      .st4 {
        fill: #92963e;
      }

      .st5 {
        fill: #8a8938;
      }

      .st6 {
        fill: #766125;
      }

      .st7 {
        fill: #8a8a38;
      }

      .st8 {
        fill: #95993f;
      }

      .st9 {
        fill: #725b22;
      }

      .st10 {
        fill: #a8b44d;
      }

      .st11 {
        fill: #745d23;
      }

      .st12 {
        fill: #8c8b38;
      }

      .st13 {
        fill: #828134;
      }

      .st14 {
        fill: #92943d;
      }

      .st15 {
        fill: #69521d;
      }

      .st16 {
        fill: #7a6829;
      }

      .st17 {
        fill: #9a9f43;
      }

      .st18 {
        fill: #d2b983;
      }

      .st19 {
        fill: #705821;
      }

      .st20 {
        fill: #a7b24c;
      }

      .st21 {
        fill: #735b23;
      }

      .st22 {
        fill: #6c541e;
      }

      .st23 {
        fill: #94953d;
      }

      .st24 {
        fill: #0a0a04;
      }

      .st25 {
        fill: #6b541e;
      }

      .st26 {
        fill: #796628;
      }

      .st27 {
        fill: #735f25;
      }

      .st28 {
        fill: #6a531e;
      }

      .st29 {
        fill: #90913c;
      }

      .st30 {
        fill: #9aa245;
      }

      .st31 {
        fill: #8c8c39;
      }

      .st32 {
        fill: #c4ac76;
      }

      .st33 {
        fill: #8d8d3a;
      }

      .st34 {
        fill: #9da245;
      }

      .st35 {
        fill: #706425;
      }

      .st36 {
        fill: #8d8d39;
      }

      .st37 {
        fill: #969840;
      }

      .st38 {
        fill: #8e8e3a;
      }

      .st39 {
        fill: #715922;
      }

      .st40 {
        fill: #705721;
      }

      .st41 {
        fill: #91923c;
      }

      .st42 {
        fill: #a7b34c;
      }

      .st43 {
        fill: #6d551f;
      }

      .st44 {
        fill: #725922;
      }

      .st45 {
        fill: #8f903b;
      }

      .st46 {
        fill: #030303;
      }

      .st47 {
        fill: #735c23;
      }

      .st48 {
        fill: #776226;
      }

      .st49 {
        fill: #6a521d;
      }

      .st50 {
        fill: #6f5720;
      }

      .st51 {
        fill: #725c23;
      }

      .st52 {
        fill: #e2cf8f;
      }

      .st53 {
        fill: #8c8c38;
      }

      .st54 {
        fill: #755f24;
      }

      .st55 {
        fill: #0f0f06;
      }

      .st56 {
        fill: #725a22;
      }

      .st57 {
        fill: #745e24;
      }

      .st58 {
        fill: #7b6829;
      }

      .st59 {
        fill: #837e32;
      }

      .st60 {
        fill: #a9b54e;
      }

      .st61 {
        fill: #735d24;
      }

      .st62 {
        fill: #a1ad4a;
      }

      .st63 {
        fill: #90913b;
      }

      .st64 {
        fill: #fefefe;
      }

      .st65 {
        fill: #040404;
      }

      .st66 {
        fill: #a9b54d;
      }

      .st67 {
        fill: #a5b04b;
      }

      .st68 {
        fill: #8e903c;
      }

      .st69 {
        fill: #94973e;
      }

      .st70 {
        fill: #d1ccc0;
      }

      .st71 {
        fill: #776326;
      }

      .st72 {
        fill: #93963e;
      }

      .st73 {
        fill: #766025;
      }

      .st74 {
        fill: #f0d79e;
      }
    </style>
  </defs>
  <path
     d="m 152.52132,80.026859 c 5.4,-5.37 12.84,5.31 13.47,4.84 5.85,-15.26 18.87,-17.14 13.69,2.88 12.38,-2.28 17.96,8.16 6.48,14.420001 -0.4,0.58 10.62,6.56 3.56,11.12 -6.16,3.98 -15.77,-3.01 -17.88,-1.68 -6.11,16.8 -22.03,20.45 -38.25,16.47 1.15,16.05 0.97,32.64 6.45,47.91 4.56,0.89 9.41,-0.05 14.06,0.34 17.54,1.46 36.38,16.86 29.89,35.98 5.08,-1.2 20.27,3.24 15.75,10.37 -0.97,1.54 -5.3,2.79 -4.95,4.38 0.17,0.8 2.8,2.02 3.59,2.9 7.36,8.21 5.56,15.07 -6.47,11.88 5.17,11.33 -6.98,10.73 -13.67,5.75 1.92,6.05 0.63,13.28 -7.23,11.18 -8.19,-2.19 -14.54,-22.58 -13.59,-30.19 0.71,-5.73 5.64,-7.23 2.5,-14.15 -2.66,-5.86 -6.92,-6.99 -13,-6.43 -2.73,0.25 -13.86,3.4 -14.07,6.11 0.47,3.89 1.38,9.09 1.39,12.89 0.06,27.81 -11.51,58.25 -32.71,76.74 -10.530003,9.18 -26.820003,14.99 -35.620003,24.86 -1.19,1.33 -1.85,4.23 -3.61,5.03 -8.53,3.92 -4.39,-15.54 -3.01,-19.57 6.08,-17.69 21.71,-27.19 28.83,-43.89 4.69,-11 1.85,-37.22 -0.97,-49.22 -0.45,-1.91 -1.24,-7.19 -3.01,-7.79 -5.41,-0.84 -11.71,-1.09 -16.95,-2.49 -5.24,-1.4 -10.06,-5.05 -16.41,-3.38 1.1,4.02 6.34,8.67 6.52,12.6 0.15,3.16 -1.97,4.63 -2.2,6.53 -0.4,3.18 1.24,9.1 0.66,13.56 -0.75,5.74 -5.69,13.63 -11.45,7.62 -0.83,3.41 -3,10.76 -6.87,11.51 -7.94,1.53 -6.93,-8.59 -8.62,-9.35 -8.48,16.1 -22.2099997,9.23 -14.04,-7.2 -21.2799997,1.1 -4.9899997,-15.76 4.53,-19.59 2.5,-1.01 9.81,-0.73 10.53,-3.21 0.3,-1.06 -6.72,-14.31 -7.08,-18.7 -1.02,-12.42 13.54,-22.03 24.78,-21.93 3.62,0.03 15.06,3.43 16.9,2.6 4.27,-1.93 3.8,-10.59 3.62,-14.41 l -4.37,-39.91 c -11.78,0.87 -25.62,-0.95 -33.37,-10.92 -2.54,-3.26 -7.03,-15.2 -9.08,-16.14 -1.69,-0.770001 -8.59,0.75 -11.7999997,0.3 -9.72999997,-1.370001 -14.36,-12.300001 -1.87,-13.970001 -4.37,-2.37 -8.89,-8.64 -4.81,-13.1 4.4,-4.8 13.9599997,2.67 14.8899997,1.93 -6.23,-17.1 9.16,-16.22 13.69,-2.87 1.13,0.83 4.55,-4.12 6.43,-4.71 8.71,-2.75 9.46,6.68 7.1,12.85 -0.77,2.01 -4.01,5.81 -4.1,7.3 -0.11,1.88 2.07,8.73 3.2,10.45 4.92,7.470001 23.61,6.880001 28.3,-1.15 4.43,-7.59 -0.02,-10.62 -2.67,-16.56 -5.43,-12.16 -3.66,-13.91 -2.32,-25.87 1.66,-14.83 1.73,-23.35 9.04,-37.04 21.25,-39.78 42.860003,-4.66 48.400003,22.19 0.9,4.37 0.96,8.91 1.85,13.27 0.6,2.92 2.44,5.14 2.71,8.8 0.67,8.84 -4.81,15.86 -5.71,24.59 -1.11,10.79 9.51,16.940001 19.1,17.520001 3.01,0.18 10.98,-4.21 11.68,-6.950001 0.86,-3.36 -6.62,-12.56 -1.85,-17.29 z"
     id="path6" />
  <path
     class="st60"
     d="m 100.48132,84.146859 c 1.07,1.14 1.95,1.63 3.6,1.44 1.11,0.34 1.58,0.57 2.88,0.72 l 1.37,1.43 c -0.06,2.14 0.69,4.06 2.23,5.77 4.12,1.42 3.02,-0.23 6.48,-1.44 1.12,11.440001 15.6,18.590001 25.92,18.720001 2.4,0.15 4.08,3.37 2.16,5.04 0,0.37 -0.04,0.74 -0.13,1.09 -0.54,1.97 -15.55,3.73 -14.99,-1.81 -5.14,-2.91 -5.18,0.08 -5.04,5.04 -2.45,-0.9 -1.4,-9.07 -1.38,-2.33 1.68,10.76 1.9,21.86 0.66,33.29 l 1.37,2.43 c -0.04,9.4 -0.5,18.67 -1.37,27.81 1.94,-0.14 3.06,2.35 1.44,3.6 l 1.03,1.15 c -0.95,1.56 -0.09,1.66 2.57,0.29 -0.5,-1.95 0,-2.09 1.44,-0.72 2.23,-0.44 4.49,1.06 4.33,-2.88 4.06,2.47 6.64,0.73 10.4,0.69 8.78,-0.09 13.53,-0.03 21.27,4.35 0.38,3 -5.59,8.92 -8.25,10.36 -1.32,0.71 -2.29,1.17 -3.27,-0.28 l -1.93,0.61 c -6.67,-3.17 -14.51,-3.82 -21.32,-0.72 l -1.95,-0.61 c -0.66,-2.81 -0.49,-7.08 -4.69,-6.91 -1.63,0.06 -2.08,1.66 -2.51,1.87 -0.03,1.37 -0.97,2.15 -2.83,2.33 -1.62,3.44 -2.1,7.33 -1.46,11.66 l -1.47,1.13 -1.79,1.22 c -5.72,-0.57 -11.55,-0.25 -17.130003,1.15 l -1.96,-0.93 -1.82,0.17 -5.32,-7.14 c -2.03,-2.53 -4.69,-4.42 -7.98,-3.11 -1.11,0.96 -1.67,2.86 -1.44,4.32 l -1.53,0.66 c -8.83,-4.77 -19.97,-9.66 -29.83,-5.28 l -1.76,-1.14 c -2.56,1.75 -8.94,-5.58 -8.49,-7.82 l 1.29,-1.54 c 2.65,-1.13 6.86,-1.61 9.75,-1.47 8.78,0.43 13.93,6.2 21.21,-0.69 0.53,-0.66 1.08,-0.86 1.64,-0.58 1.4,7.42 7.29,4.41 6.28,-1.58 l -0.84,-0.68 c -0.95,-8.1 -1.84,-16.21 -2.67,-24.33 l 0.63,-0.91 c -0.08,-12.62 -0.26,-25.33 -0.53,-38.12 0.14,-2.7 -1.12,-4.39 -3.79,-5.08 -1.85,0.54 -2.86,0.11 -3.6,2.88 -0.95,1.24 -6.6,2.75 -8.35,2.76 -3.15,0.02 -4.86,-0.46 -7.8,-1.52 -2.58,-0.94 -8.02,-3.01 -8.33,-5.56 -2.02,-1.27 -0.24,-5.08 2.16,-4.32 10.95,4.97 27.77,3.35 33.75,-8.37 0.68,-1.340001 1.4,-5.050001 1.58,-5.290001 0.06,-0.08 1.22,0.53 1.9,0.2 0.88,-0.43 1.16,-1.37 1.65,-1.67 0.29,-2.86 2.45,-4.06 6.48,-3.6 -0.29,-1.49 -0.25,-4.42 1.44,-5.04 3.55,-1.46 5.23,-5.74 8.640003,-0.72 z"
     id="path8" />
  <path
     class="st60"
     d="m 99.041317,11.426859 1.120003,0.97 c -0.240003,1.87 0.99,5.39 3.2,4.07 4.21,0.36 6.98,7 8.56,10.82 1.86,4.49 4.69,12.49 2.24,16.54 -2.28,-0.84 -6.17,-1.56 -8.64,-1.44 l -1.53,-0.11 c -1.42,-2.84 -3.57,-3.03 -2.99,0.56 l -1.240003,0.99 c -0.98,0.33 -1.91,1.1 -2.88,1.44 -0.86,-0.55 -1.49,-1.57 -1.9,-3.06 -1.09,1.06 -2.14,1.6 -3.14,1.62 -3.32,-1.17 -8.04,-2.1 -11.52,-1.44 -2.88,-0.99 -0.28,-5.86 2.16,-5.04 0.93,-0.54 1.65,-1.26 2.16,-2.16 -3.14,0.21 -3.09,-0.59 -2.31,-3.53 l 5.75,-14.06 1.6,-0.41 c 1.53,-1.32 2.2,-3.02 2,-5.1 l 1.6,-0.66 c -2.99,-4.6100003 7.360003,-5.7000003 5.76,0 z"
     id="path10" />
  <path
     class="st64"
     d="m 114.16132,52.466859 c 0.99,1.93 2.32,2.84 4.32,3.6 0.73,0.81 1.5,0.84 2.3,2.37 5.61,10.65 -6.4,26.96 -17.78,18.51 -0.63,-0.47 -2.62,-2.33 -2.87,-2.89 -0.750003,-1.65 -0.620003,-14.3 -0.370003,-16.9 0.960003,-9.69 7.550003,-8.9 14.390003,-4.69 z"
     id="path12" />
  <path
     class="st64"
     d="m 82.291317,49.746859 c 2.88,-0.58 7.28,0.58 9.52,2.39 2.54,2.05 0.75,3.07 0.72,5.7 -0.05,4.09 -0.05,8.21 0,12.3 0.04,3.87 2.3,4.93 -2.08,7.21 -4.38,2.28 -8.57,1.75 -12.64,-1.12 -8.41,-5.91 -4.91,-24.57 4.49,-26.48 z"
     id="path14" />
  <path
     class="st14"
     d="m 80.321317,42.386859 c -1.3,0.25 -4.07,2.7 -5.77,2.51 1.54,-10.34 5.06,-20.69 10.95,-29.37 3.45,-5.09 8.55,-11.5600003 15.240003,-7.5900003 7.54,4.4800003 17.43,27.6500003 17.74,36.2700003 0.15,4.1 -2.91,0.14 -4.31,-0.38 -0.64,-9.69 -3.95,-20.42 -10.8,-27.36 l -1.46,-0.74 c -0.12,-1.9 -1.07,-3.34 -2.860003,-4.3 -1.33,-0.52 -3.33,-7.1400003 -5.76,0 -1.72,0.92 -3.13,2.33 -2.6,4.44 l -1,1.32 c -1.04,4.56 -5.99,12.57 -6.39,16.95 -0.05,0.51 0.9,0.51 1.35,1.05 -0.33,1.09 -1.01,1.98 -2.16,2.16 -0.64,1.39 -2.61,2.82 -2.16,5.04 z"
     id="path16" />
  <path
     class="st40"
     d="m 117.04132,207.26686 c 1.32,-1.67 2.33,-1.42 2.16,0.72 -0.31,4.12 -0.18,8.22 0.37,12.3 l -1.09,1.38 c -0.19,0.62 -0.43,0.61 -0.72,0 l -1.62,1.09 c -4.95,-1.33 -9.97,-0.68 -14.93,0.16 l -1.450003,-1.25 c -0.31,2.21 -3.55,2.1 -5.04,0.72 -0.89,-4.24 -1.97,-7.53 -3.6,-11.52 0.17,-1.95 3.6,-3.74 5.04,-2.16 6.210003,-1.96 14.510003,-2.4 20.880003,-1.44 z"
     id="path18" />
  <path
     class="st60"
     d="m 42.161317,213.02686 c 0.34,0.04 0.67,0.1 0.94,0.26 0.52,0.3 4.63,10.3 4.69,10.9 0.19,2.2 -0.76,8.49 -3.47,8.28 -5.82,-0.9 -4.5,7.46 -5.36,11.56 -0.51,2.41 -1.18,5.35 -2.92,7.16 -1.89,-3.34 2.09,-15.43 -1.26,-16.81 -2.58,-1.06 -3.28,0.07 -4.86,1.69 h -0.72 c 0.71,-4.6 -0.49,-3.79 -2.88,-5.76 -1.91,0.41 -2.14,-0.11 -0.72,-1.44 4.15,-0.77 5.45,-0.63 8.98,-3.62 6.1,-5.16 2.34,-7.83 -0.34,-13.66 -1.08,-3.34 7.3,-0.75 7.92,1.44 z"
     id="path20" />
  <path
     class="st50"
     d="m 101.20132,258.38686 c 2.17,-2.29 11.29,-0.12 12.24,2.88 2.22,-0.06 5.81,-0.16 6.48,2.88 -1.85,4.82 -3.12,8.31 -5.76,12.96 -1.75,0.23 -3.86,-0.9 -3.6,-2.88 -1.22,0.84 -2.8,0.73 -4.73,-0.34 -2.81,-0.13 -4.6,-0.97 -5.35,-2.54 -2.210003,1.11 -3.890003,0.87 -5.040003,-0.72 1.56,-4.55 1.92,-7.42 2.16,-12.24 0.42,-2.03 3.260003,-2.14 3.600003,0 z"
     id="path22" />
  <path
     class="st40"
     d="m 117.76132,231.74686 c 1.23,-1.07 1.72,-0.61 0.72,0.72 1.53,3.46 1.03,10.79 -1.44,13.68 l -1.7,0.77 c -3.88,-1.4 -7.94,-1.91 -12.2,-1.5 l -1.22,-1.43 c -0.63,2.05 -3.720003,2.13 -4.320003,0 -0.2,-3.49 -0.98,-7.95 -1.44,-11.52 0.15,-2.14 4.570003,-3.34 5.760003,-1.44 1.75,-1.79 4.55,-2.31 8.39,-1.57 3.65,-0.37 6.13,0.4 7.45,2.29 z"
     id="path24" />
  <path
     class="st66"
     d="m 177.52132,210.14686 c -0.36,3.72 -2.54,7.81 2.57,8.59 2.21,0.34 10.67,-0.35 11.83,0.78 1.16,1.13 -0.25,1.24 -1,1.51 -3.31,1.18 -10.66,0.28 -9.84,5.3 0.47,2.91 11.46,5.26 13,9.01 -2.37,0 -5.05,-0.85 -7.2,-1.8 -2.32,-1.02 -5.4,-4.97 -7.93,-2.17 -3.44,3.79 5.33,7.98 5.77,11.89 -0.83,0.79 -9.02,-5.34 -10.08,-6.48 -2.57,-0.35 -5.35,-3.52 -3.6,-5.76 l -0.89,-1.55 c 1.47,-4.08 1.4,-8.66 -0.02,-12.75 l 0.91,-1.54 c -0.43,-2.2 4.69,-6.94 6.48,-5.04 z"
     id="path26" />
  <path
     class="st66"
     d="m 18.401317,90.626859 c 2.76,-6.55 -8.5599997,-7.27 -10.7999997,-12.23 3.6399997,0.11 15.4099997,8.88 17.1399997,3.08 1.24,-4.16 -3.49,-7.65 -2.39,-11.73 2.94,1.51 5.76,10.75 8.07,11.42 3.74,1.09 5.76,-5.86 8.85,-7.11 -2.29,9.12 -7.26,8.63 -5.03,19.44 0,1.84 -4.41,4.47 -5.76,2.88 -1.54,-0.51 -3.17,-1.64 -4.9,-3.37 -2.81,-0.01 -4.53,-0.81 -5.18,-2.39 z"
     id="path28" />
  <path
     class="st10"
     d="m 178.96132,99.986859 -1.13,1.390001 c -5.34,-1.550001 -11.69,-0.47 -15.04,4.3 l -1.82,0.07 c -2.1,1.23 -3.91,-1.04 -2.16,-2.88 5.67,-6.330001 0.88,-8.790001 0,-15.840001 3.13,1.74 3.35,7.81 8.13,6.36 2.18,-0.66 5.14,-8.89 7.35,-10.68 0.66,3.17 -3.59,8.43 -1.1,11.17 2.74,3.02 10.06,-2.35 12.96,0.71 -0.02,0.77 -6.26,5.25 -7.19,5.4 z"
     id="path30" />
  <path
     class="st40"
     d="m 175.36132,195.02686 0.42,1.39 c 0.09,0.69 -9.24,9.43 -10.5,7.97 0.91,1.88 -0.27,3.22 -2.16,2.16 -2.76,-3.03 -6.61,-5.38 -10.8,-5.76 -0.76,-1.83 1.03,-3.87 2.88,-2.88 0.61,-0.42 1.97,-0.38 3.24,-1.43 2.87,-2.38 5.77,-5.85 8.28,-8.65 3.48,1.97 6.35,3.78 8.64,7.2 z"
     id="path32" />
  <path
     class="st43"
     d="m 95.441317,282.86686 c 1.88,-1.53 6.240003,2.23 5.040003,4.32 1.86,-1.14 3.75,1.7 3.6,3.6 -2.96,3.33 -5.890003,6.54 -9.360003,9.36 -1.74,-0.18 -3.49,-2.86 -2.16,-4.32 -2.17,0.16 -2.61,-1.16 -1.44,-2.88 -2.11,-0.71 -4.03,-2.15 -5.76,-4.32 1.76,-2.41 4.33,-6.11 5.76,-8.64 1.69,-1.2 4.95,0.84 4.32,2.88 z"
     id="path34" />
  <path
     class="st5"
     d="m 155.20132,197.90686 c -0.6,0.41 -1.79,2.41 -2.88,2.88 -7.31,-0.67 -14.34,2.23 -20.88,5.04 -0.26,-2.91 -0.78,-5.81 -1.44,-8.64 7.62,-4.31 17.74,-3.43 25.2,0.72 z"
     id="path36" />
  <path
     class="st29"
     d="m 79.601317,202.94686 c 0.4,0.31 1.66,1.98 1.44,2.15 -0.59,0.03 -1.18,0.04 -1.78,0 -9.47,-0.73 -20.78,-5.99 -29.9,-4.31 -2.07,0.69 -3.95,-1.76 -2.88,-3.6 3.01,-0.35 5.95,-2.13 9.04,-2.18 6.19,-0.11 19.18,4.11 24.08,7.94 z"
     id="path38" />
  <path
     class="st45"
     d="m 91.121317,292.94686 c -1.03,2.07 -0.55,3.03 1.44,2.88 0.72,1.32 2.18,2.42 2.16,4.32 -2.76,2.24 -5.73,3.81 -8.64,5.76 l -1.67,0.2 c -1.67,-2.89 -3.87,-5.06 -6.6,-6.51 l -0.38,-1.62 c 2.66,-3.24 5.38,-5.88 7.92,-9.36 3.42,-0.23 4.17,2.04 5.76,4.32 z"
     id="path40" />
  <path
     class="st49"
     d="m 118.48132,232.46686 1.08,-1.22 c 2.61,1.08 5.13,1.49 7.56,1.22 -0.28,6 -1.51,12.86 -2.88,18.72 -1.84,2.53 -6.94,-2.58 -7.2,-5.04 0.39,-4.47 0.53,-9.36 1.44,-13.68 z"
     id="path42" />
  <path
     class="st32"
     d="m 75.281317,157.58686 c 0.76,7.77 1.49,18.62 2.88,25.92 0.81,1.85 -0.15,2.18 -1.44,0.72 -1.59,-21.66 -6.26,-43.03 -5.04,-64.8 2.26,-1.43 2.91,1.14 3.31,3.19 0,11.63 0.09,23.29 0.29,34.97 z"
     id="path44" />
  <path
     class="st15"
     d="m 119.20132,207.98686 c 1.29,-2.35 5.18,-1.18 5.76,1.44 0.76,5.23 1.94,10.53 2.16,15.84 -1.85,2.01 -8.11,-1.23 -8.64,-3.6 -1.17,-3.32 -0.84,-7.63 -0.72,-11.19 0.05,-1.39 -0.73,-2.89 1.44,-2.49 z"
     id="path46" />
  <path
     class="st19"
     d="m 46.481317,197.18686 c 0.87,0.76 2.03,2.63 2.88,3.6 -1.74,0.32 -4.64,2.39 -5.04,4.32 -0.84,1.23 -1.51,0.81 -1.44,-0.72 l -1.92,0.46 c -2.77,-1.49 -9.35,-8.13 -8.16,-11.26 1.68,-2.13 3.95,-4.68 6.48,-5.76 0.09,5.01 4.27,6.81 7.2,9.36 z"
     id="path48" />
  <path
     class="st18"
     d="m 130.72132,185.66686 c -0.25,0.05 -1.3,0.57 -1.44,0.72 -1.22,2.11 -4.36,1.06 -3.6,-1.44 -0.11,-0.86 -1.33,-2.08 -1.44,-3.6 0.91,-8.63 1.37,-17.48 1.37,-26.57 l 1.51,-2.95 3.59,19.81 c 0.81,4.76 -1.58,9.46 0.01,14.03 z"
     id="path50" />
  <path
     class="st41"
     d="m 45.761317,212.30686 c 0.85,1.87 4.85,5.58 5.05,7.6 0.21,2.12 -1.98,3.78 -2.16,5.78 -0.25,2.71 1.18,7.81 1.01,11.19 -0.08,1.52 -0.01,4.36 -1.72,4.95 -0.51,-2.45 -1.1,-5.4 -1.95,-7.72 -0.32,-0.87 -1.66,-1.52 -1.65,-1.64 0.06,-0.71 2.3,-4.91 2.13,-7.53 -0.17,-2.62 -4.61,-8.25 -4.29,-11.91 0.81,-1.81 2.14,-2.01 3.6,-0.72 z"
     id="path52" />
  <path
     class="st31"
     d="m 67.361317,117.26686 c -0.23,0.86 0.32,3.18 -0.04,3.56 -0.59,0.62 -8.9,0.86 -10.44,0.79 -5.62,-0.25 -11.39,-1.42 -16.16,-4.35 -1.67,-1.54 -0.05,-4.62 2.16,-4.32 4.49,1.91 9.87,5.55 14.87,5.71 3.17,0.1 6.17,-2.21 9.61,-1.39 z"
     id="path54" />
  <path
     class="st53"
     d="m 178.96132,99.986859 c -2.47,4.340001 1.23,5.320001 3.6,7.910001 -3.01,-0.71 -6.95,-1.7 -9.77,-2.82 -1.28,-0.51 -2.55,-2.32 -3.45,-2.16 -2.54,0.43 -4.32,6.61 -5.5,8.59 -2.68,1.03 -4.66,-3.95 -2.88,-5.76 3.72,-5.46 7.76,-6.500001 14.04,-6.470001 1.26,0 2.82,0.900001 3.96,0.71 z"
     id="path56" />
  <path
     class="st15"
     d="m 86.081317,305.90686 c -2.76,1.85 -5.14,3.29 -7.92,5.04 -1.93,0.61 -3.16,-1.24 -2.16,-2.88 -1.47,1.26 -4.91,-1.03 -4.32,-2.88 1.79,-2.96 3.71,-4.7 5.76,-7.2 4.21,1.05 6.19,4.85 8.64,7.92 z"
     id="path58" />
  <path
     class="st33"
     d="m 124.24132,251.18686 c -1.11,4.76 -2.6,8.46 -4.32,12.96 -2.33,-0.3 -4.44,-2.12 -6.48,-2.88 1.24,-4.32 1.91,-8.79 2.01,-13.4 l 1.59,-1.72 c 2.52,1.32 4.51,4.33 7.2,5.04 z"
     id="path60" />
  <path
     class="st33"
     d="m 124.96132,209.42686 c -1.82,-1.25 -3.87,-1.04 -5.76,-1.44 -0.46,-0.1 -1.01,-0.55 -2.16,-0.72 0.24,-3.44 -1.05,-11.89 2.19,-14.01 0.85,-0.55 2.4,-0.54 3.57,-1.11 0.14,5.78 1.33,11.53 2.16,17.28 z"
     id="path62" />
  <path
     class="st33"
     d="m 127.12132,225.26686 c 0.1,2.33 0.11,4.88 0,7.2 -1.06,0.75 0.03,2.02 -1.48,1.86 -1.86,-0.2 -4.98,-1.36 -7.16,-1.86 -0.05,-0.01 0.26,-0.52 -0.72,-0.72 -2.33,-0.73 -2.23,-8.98 0,-10.08 0.23,0.06 0.5,-0.06 0.72,0 3.01,0.88 5.59,2.83 8.64,3.6 z"
     id="path64" />
  <path
     class="st74"
     d="m 126.40132,135.98686 c 0.89,4.91 0.79,10.82 0.72,15.84 -0.12,8.36 -0.85,17.88 -1.4,26.32 -0.09,1.34 0.17,2.7 -1.48,3.2 -0.66,-9.2 -0.26,-20.88 0,-30.24 0.36,-6.21 0.52,-12.51 0.48,-18.88 0.35,-1.92 2.19,2.58 1.68,3.76 z"
     id="path66" />
  <path
     class="st66"
     d="m 175.36132,195.02686 c 0.93,1.38 2.66,4.88 2.88,6.48 -0.77,3.7 -6.45,8.85 -10.08,7.92 -1.98,0.61 -4.43,-3.61 -2.88,-5.04 z"
     id="path68" />
  <path
     class="st22"
     d="m 152.32132,112.94686 c 2.82,-0.05 4.18,6.61 1.44,7.92 -2.67,0.81 -4.52,0.66 -7.2,0.72 -1.38,-1.24 -3.02,-4.3 -1.44,-5.76 -0.64,-1.74 -1.15,-3.46 -2.16,-5.04 3.99,0.05 4.59,-0.55 7.92,-2.16 1.71,0.65 3.01,2.9 1.44,4.32 z"
     id="path70" />
  <path
     class="st37"
     d="m 75.281317,157.58686 c -1.09,-11.19 -0.55,-22.03 -1.45,-32.75 -0.14,-1.63 -0.45,-4.63 -2.15,-5.41 0.1,-1.71 0.19,-3.5 -0.72,-5.04 2.91,-0.84 4.39,-0.44 5,3.28 1.45,8.82 -1.08,20.85 -0.71,30.23 0.12,3.13 1.85,6.88 0.03,9.69 z"
     id="path72" />
  <path
     class="st19"
     d="m 42.161317,206.54686 c 0.61,-1.57 1.94,-0.89 2.16,0.72 0.05,0.34 1.33,4.8 1.44,5.04 -1.11,0.69 -2.33,0.79 -3.6,0.72 -2.64,-0.15 -5.03,-1.48 -7.59,-1.96 l -0.33,0.52 c -1.26,-2.73 -2.79,-4.64 -3.6,-7.92 2.59,-1.84 9.63,0.43 11.52,2.88 z"
     id="path74" />
  <path
     class="st10"
     d="m 42.881317,204.38686 c 1.02,0.8 0.73,2.45 -0.72,2.16 -4.22,-0.64 -7.44,-2.1 -11.52,-2.88 -1.34,-5.39 -1.15,-5.88 2.16,-10.08 2.47,3.97 6.06,8.35 10.08,10.8 z"
     id="path76" />
  <path
     class="st19"
     d="m 177.52132,210.14686 c -2.14,1.1 -4.64,3.94 -6.48,5.04 0.23,2.19 -1.9,2.54 -2.88,0.72 -0.16,-1.19 -1.52,-3.83 -2.16,-5.04 -0.54,-1.84 0.53,-2.44 2.16,-1.44 4.06,-2.43 6.67,-4.66 10.08,-7.92 0.46,3.25 -0.46,5.95 -0.72,8.64 z"
     id="path78" />
  <path
     class="st38"
     d="m 114.16132,277.10686 c -3.21,5.65 -5.82,8.87 -10.08,13.68 -1.71,-0.72 -2.48,-2.45 -3.6,-3.6 l 0.16,-1.75 c 3.82,-2.61 6.13,-6.81 8.16,-10.88 l 1.76,-0.34 c 1.44,0.74 2.93,1.23 3.6,2.88 z"
     id="path80" />
  <path
     class="st25"
     d="m 45.041317,108.62686 c -1.33,1.24 -1.51,2.94 -2.16,4.32 -0.65,1.38 -1.57,2.83 -2.16,4.32 -2.6,-1.59 -4.75,-3.19 -6.48,-5.76 -0.64,-1.93 1.43,-6.42 3.6,-5.76 -1.21,-0.84 -0.79,-1.49 0.72,-1.44 0.58,0.63 5.58,3.91 6.48,4.32 z"
     id="path82" />
  <path
     class="st41"
     d="m 130.00132,115.10686 c 0.28,0.16 0.4,1.06 1.3,1.38 3.93,1.38 9.99,1.03 13.82,-0.66 0.66,1.79 2.05,3.3 1.44,5.76 -2.44,0.05 -14.4,-0.41 -15.7,-1.57 -0.5,-0.44 -0.83,-3.9 -0.86,-4.91 z"
     id="path84" />
  <path
     class="st59"
     d="m 171.04132,215.18686 c 2.1,4.48 2.2,11.37 0,15.84 -0.39,1.48 -0.36,3.11 0.08,4.87 l -1.52,0.89 c -0.03,4.16 -3.44,-0.2 -2.16,-2.88 -1.11,-0.41 -1.11,-1.3 0,-2.68 -0.86,-2.64 -0.86,-5.11 0,-7.4 -0.07,-2.6 1.11,-5.06 0.72,-7.92 0.79,-0.34 2.25,-0.34 2.88,-0.72 z"
     id="path86" />
  <path
     class="st28"
     d="m 160.96132,105.74686 c 0.89,1.58 1.07,4.43 2.88,5.76 -1.65,2.78 -2.76,3.7 -5.04,5.76 -2.36,-1.22 -3.38,-5.55 -2.88,-7.92 -1.21,0.44 -1.93,-0.28 -2.16,-2.16 1.19,-0.79 4.11,-3.29 5.04,-4.32 0.02,1.38 1.85,2.33 2.16,2.88 z"
     id="path88" />
  <path
     class="st8"
     d="m 96.161317,208.70686 c -1.42,0.45 -3.21,2.13 -5.04,2.16 -1.71,-4.2 -4.72,-12.99 -10.08,-12.24 6.48,-5.63 11.42,6.62 15.12,10.08 z"
     id="path90" />
  <path
     class="st50"
     d="m 34.241317,93.506859 c 0.24,1.15 1.73,6.16 2.16,7.200001 1.19,2.07 -0.5,2.98 -2.16,1.44 0.81,1.85 -1.05,3.11 -2.88,2.88 -1.31,-2.45 -2.55,-5.920001 -4.32,-7.920001 -0.05,-1.78 0,-1.82 1.44,-0.72 1.87,-1.04 3.6,-2.48 5.76,-2.88 z"
     id="path92" />
  <path
     class="st4"
     d="m 28.481317,96.386859 c -0.42,0.24 -0.78,0.77 -1.44,0.72 -6.25,-7.06 -13.8,1.43 -19.4399997,-4.31 3.1999997,0.43 8.1899997,-2.07 10.7999997,-2.17 0.29,-0.01 5.44,0.95 5.75,1.09 1.37,0.59 3.07,3.6 4.33,4.67 z"
     id="path94" />
  <path
     class="st69"
     d="m 99.761317,221.66686 c 2.900003,0.27 2.470003,6.79 2.160003,9.36 -1.29,0.12 -4.100003,1.38 -5.760003,1.44 -0.42,-3.3 -0.76,-6.84 -1.44,-10.08 1.64,-0.76 3.42,-0.5 5.04,-0.72 z"
     id="path96" />
  <path
     class="st0"
     d="m 101.92132,243.98686 1.07,1.44 c -0.49,3.92 -0.59,7.88 -0.3,11.87 l -1.5,1.09 c -1.18,-0.12 -2.410003,0.08 -3.600003,0 0.22,-4.45 0.25,-9.96 0,-14.4 h 4.320003 z"
     id="path98" />
  <path
     class="st23"
     d="m 100.48132,271.34686 c -0.600003,3.07 -1.630003,6.42 -3.100003,10.06 l -1.94,1.46 c -1.42,-0.99 -3.05,-1.68 -4.32,-2.88 1.65,-2.92 3.23,-6.17 4.32,-9.36 1.99,-0.61 3.66,0.46 5.040003,0.72 z"
     id="path100" />
  <path
     class="st72"
     d="m 86.801317,86.306859 c 1.22,1.46 2.16,2.37 3.6,3.6 -1.05,0.72 -2.18,0.57 -2.67,0.92 -1.74,1.27 -1.55,1.33 -3.81,2.68 l -5.04,-8.64 c 2.7,0.47 5.04,1.69 7.92,1.44 z"
     id="path102" />
  <path
     class="st45"
     d="m 76.001317,308.06686 c 0.37,0.55 0.62,1.12 0.56,1.81 -0.09,0.98 -8.6,7.28 -9.92,6.11 1.47,-3.62 3.01,-7.46 5.04,-10.8 1.48,0.66 3.16,1.78 4.32,2.88 z"
     id="path104" />
  <path
     class="st12"
     d="m 158.80132,117.26686 c -1.89,1.71 -2.07,2.7 -5.04,3.6 0.45,-3.06 -0.4,-5.21 -1.44,-7.92 -0.22,-1.83 2.04,-3.1 3.6,-3.6 1.36,2.45 2.72,5.06 2.88,7.92 z"
     id="path106" />
  <path
     class="st52"
     d="m 124.96132,120.14686 c 0.09,0.94 -0.12,1.96 0,2.88 0.53,1.36 0.77,2.8 0.72,4.32 0.38,2.89 1.09,5.66 0.72,8.64 -0.09,-0.49 -0.78,-3.64 -1.43,-3.6 -0.18,5.64 0.21,11.33 0.02,16.97 -0.03,0.93 -0.75,1.65 -0.75,1.74 -0.6,-9.19 0.82,-19.36 -0.01,-28.43 -0.18,-1.95 -2.24,-7.52 -2.15,-7.92 0.29,-1.31 2.67,-1.36 2.79,-0.04 0.04,0.39 -0.81,1.78 -0.72,2.94 0.1,1.3 0.79,2.24 0.81,2.48 z"
     id="path108" />
  <path
     class="st62"
     d="m 29.921317,236.06686 c -4.46,4.61 -5.55,12.5 -11.15,15.85 -0.29,-6.19 6.29,-11.84 10.43,-15.85 z"
     id="path110" />
  <path
     class="st7"
     d="m 169.60132,236.78686 c 0.66,-1.39 1.5,-1.38 2.16,0 -4.54,3.85 0.3,8.74 0,13.68 -2.68,-2.2 -4.62,-6.69 -5.03,-10.08 -0.76,-1.87 -1.23,-4.87 0,-6.48 0.2,-0.63 0.44,-0.62 0.72,0 -0.13,0.83 0.94,3.26 1.77,3.4 0.18,0.03 0.34,-0.52 0.39,-0.52 z"
     id="path112" />
  <path
     class="st35"
     d="m 167.44132,233.90686 h -0.72 c -0.25,1.27 -0.55,1.93 -1.44,0.72 -0.03,-0.21 -0.7,-0.8 -0.75,-1.75 -0.19,-3.58 0.49,-6.34 2.91,-9.05 0.05,2.07 1.57,5.54 1.42,7.55 -0.09,1.19 -1.35,2.06 -1.42,2.53 z"
     id="path114" />
  <path
     class="st36"
     d="m 37.841317,105.74686 c -1.22,2 -2.06,4.43 -3.6,5.76 -1.32,-1.95 -1.89,-4.64 -2.88,-6.48 0.62,-1.34 1.7,-2.09 2.88,-2.88 1.77,-0.18 3.01,2.13 3.6,3.6 z"
     id="path116" />
  <path
     class="st2"
     d="m 78.161317,310.94686 c -4.29,2.7 -8.8,5.24 -12.6,8.64 -1.09,-1.08 0.72,-2.69 1.08,-3.6 l 7.55,-5.05 1.81,-2.87 c 0.89,0.84 1.56,1.83 2.16,2.88 z"
     id="path118" />
  <path
     class="st13"
     d="m 106.96132,86.306859 c 2.04,0.24 4.39,-0.18 6.48,0 -0.63,2.5 -4.7,4.35 -2.88,7.19 -4.03,-1.39 -3.81,-3.27 -3.6,-7.2 z"
     id="path120" />
  <path
     class="st30"
     d="m 25.601317,228.86686 c 0.29,0.36 0.46,1.22 0.72,1.44 -1.88,0.21 -12.44,6.24 -12.95,5.76 -1.22,-1.14 0.99,-1.57 1.34,-1.87 4.07,-3.55 5.76,-4.37 10.89,-5.33 z"
     id="path122" />
  <path
     class="st68"
     d="m 78.161317,183.50686 c 0.06,0.34 2.66,1.16 0.91,4.87 -0.93,1.97 -4.26,2.28 -5.96,1.26 -1.7,-1.02 -0.4,-4.37 -2.87,-3.97 0.63,-0.59 0.6,-1.85 2.15,-1.44 0.41,5.51 4.8,6.46 4.33,0 z"
     id="path124" />
  <path
     class="st47"
     d="m 91.841317,84.866859 c 0.01,2.32 0.63,3.63 -1.44,5.04 -2.95,0.4 -4,-0.61 -3.6,-3.6 0.64,-0.06 4.29,-1.13 5.04,-1.44 z"
     id="path126" />
  <path
     class="st61"
     d="m 105.52132,42.386859 c -2.05,0.1 -3.85,0.81 -5.760003,1.44 -1.67,-5.97 3.840003,-7.06 5.760003,-1.44 z"
     id="path128" />
  <path
     class="st67"
     d="m 153.76132,107.18686 c 1.77,-0.42 1.54,1.04 2.16,2.16 -0.06,2.05 -1.94,2.9 -3.6,3.6 -0.53,-1.4 -1.67,-2.58 -1.44,-4.32 0.91,-0.44 2.07,-0.9 2.88,-1.44 z"
     id="path130" />
  <path
     class="st51"
     d="m 96.881317,45.266859 c -3.45,1.21 -2.9,-0.68 -5.04,-1.44 1.83,-4.74 5.86,-3.68 5.04,1.44 z"
     id="path132" />
  <path
     class="st17"
     d="m 174.64132,236.78686 c -0.96,0.01 -1.92,-0.02 -2.88,0 -0.72,0.01 -1.44,0 -2.16,0 0.39,-1.25 -0.57,-3.04 -0.44,-4 0.15,-1.09 1.72,-1.45 1.88,-1.76 0.65,1.44 2.66,4.76 3.6,5.76 z"
     id="path134" />
  <path
     class="st3"
     d="m 168.16132,209.42686 c -0.64,0.38 -1.21,1.29 -2.16,1.44 -0.6,-1.14 -2.06,-3.41 -2.88,-4.32 l 2.16,-2.16 z"
     id="path136" />
  <path
     class="st42"
     d="m 38.561317,104.30686 c -0.26,0.47 -0.44,0.99 -0.72,1.44 -2.05,-0.06 -2.9,-1.94 -3.6,-3.6 0.67,-0.44 1.68,-0.55 2.16,-1.44 0.1,0.23 2.02,3.45 2.16,3.6 z"
     id="path138" />
  <path
     class="st70"
     d="m 118.48132,56.066859 c -2.6,0.36 -4.54,-0.79 -4.32,-3.6 2.35,1.45 2.49,1.57 4.32,3.6 z"
     id="path140" />
  <path
     class="st59"
     d="m 166.72132,240.38686 c -1.71,-1.5 -1.18,-3.85 -1.44,-5.76 l 1.44,-0.72 c 0.17,2.08 -0.25,4.46 0,6.48 z"
     id="path142" />
  <path
     class="st27"
     d="m 104.08132,85.586859 c -3.36,4.21 -3.04,-0.62 -3.6,-1.44 1.2,0.44 2.39,1.07 3.6,1.44 z"
     id="path144" />
  <path
     class="st63"
     d="m 44.321317,205.10686 c -0.1,0.48 -0.08,1.64 0,2.16 -0.67,-0.41 -1.39,-0.6 -2.16,-0.72 l 0.72,-2.16 c 0.45,0.28 0.97,0.46 1.44,0.72 z"
     id="path146" />
  <path
     class="st60"
     d="m 125.68132,127.34686 c -0.17,-1.26 -0.52,-2.74 -0.72,-4.32 1.27,0.81 0.62,2.96 0.72,4.32 z"
     id="path148" />
  <path
     class="st44"
     d="m 113.38132,149.03686 c -0.16,-0.23 -1.3,-0.33 -1.73,-0.79 -2.35,-2.52 -3.58,-9.08 -1.11,-11.92 5.02,-5.78 8.21,4.37 7.92,8.62 -0.13,1.85 -1.9,2.87 -2.03,3.76 -0.07,0.46 4,8.5 -1.8,6.63 -3.13,-1.01 -1.04,-6.01 -1.24,-6.3 z"
     id="path150" />
  <path
     class="st1"
     d="m 111.80132,104.42686 c 4.51,-0.69 5.12,6.37 5.24,9.62 0.15,3.91 -2.07,7.92 -6.04,5.3 -2.53,-1.67 -4.55,-14.1 0.8,-14.92 z"
     id="path152" />
  <path
     class="st39"
     d="m 91.631317,173.92686 c -7.34,5.95 -11.5,-10.43 -4.14,-12.44 6.04,-1.65 7.71,9.54 4.14,12.44 z"
     id="path154" />
  <path
     class="st56"
     d="m 92.561317,121.58686 c -0.17,1.36 -0.19,6.82 -1.92,7.24 -5.79,1.4 -7.29,-8.85 -4.09,-10.9 0.27,-0.17 6.89,-2.79 6,0.06 1.44,0.19 1.44,1.39 0,3.6 z"
     id="path156" />
  <path
     class="st44"
     d="m 106.07132,105.91686 c 1.88,1.9 2.86,13.14 -3.64,11.22 -4.680003,-1.38 -2.33,-17.230001 3.64,-11.22 z"
     id="path158" />
  <path
     class="st1"
     d="m 104.44132,153.50686 c 2.85,0 3.54,3.32 3.08,5.7 -0.65,3.32 -2.48,7.59 -6.56,6.18 -4.080003,-1.41 0.06,-11.88 3.48,-11.88 z"
     id="path160" />
  <path
     class="st44"
     d="m 103.53132,129.68686 c 1.73,-1.75 4.98,-0.33 5.46,1.76 0.1,0.42 -0.92,8.25 -1.11,8.65 -1.37,2.89 -5.39,2.9 -5.97,-0.15 -0.4,-2.1 0.12,-8.75 1.61,-10.26 z"
     id="path162" />
  <path
     class="st1"
     d="m 98.151317,103.40686 c -0.7,0.69 -2.76,1.04 -3.75,0.91 -3.46,-0.46 -6.38,-12.420001 2.11,-10.820001 3.26,0.61 3.25,8.300001 1.64,9.910001 z"
     id="path164" />
  <path
     class="st56"
     d="m 89.471317,140.39686 c 7.23,-2.08 3.93,16.51 -1.56,9.95 -1.9,-2.27 -1.32,-9.13 1.56,-9.95 z"
     id="path166" />
  <path
     class="st56"
     d="m 103.54132,193.39686 c -1.21,-1.4 -1.63,-8.46 0.54,-9.55 4.31,-2.18 5.78,5.59 4.9,8.51 -0.68,2.25 -4.16,2.53 -5.44,1.05 z"
     id="path168" />
  <path
     class="st56"
     d="m 110.01132,163.51686 c 5.16,-5.16 8.48,7.3 2.73,8.9 -4.57,1.27 -4.48,-7.14 -2.73,-8.9 z"
     id="path170" />
  <path
     class="st44"
     d="m 91.601317,187.19686 c 5.42,-1.83 7.01,7.77 3.38,8.44 -3.09,0.57 -7.17,-7.16 -3.38,-8.44 z"
     id="path172" />
  <path
     class="st57"
     d="m 112.18132,180.44686 c -1.79,-1.77 -0.34,-4.9 1.78,-5.44 0.77,-0.19 1.96,0.56 2.4,0.26 0.59,-0.41 1.34,-3.97 2.47,-3.99 0.93,-0.02 1.28,2.05 0.96,3.1 -0.26,0.83 -1.38,1.31 -1.64,1.97 -0.76,1.9 -0.05,4.7 -2.94,5.01 -0.82,0.09 -2.44,-0.32 -3.03,-0.91 z"
     id="path174" />
  <path
     class="st21"
     d="m 78.991317,127.45686 c 0.3,-0.47 2.95,-0.99 3.73,-0.76 2.89,0.87 2.42,8 -0.68,9.25 -3.26,-0.12 -4.04,-6.91 -3.05,-8.49 z"
     id="path176" />
  <path
     class="st21"
     d="m 100.23132,167.82686 c 4.71,-0.44 3.74,8.4 0.64,8.48 -4.250003,0.11 -5.780003,-8 -0.64,-8.48 z"
     id="path178" />
  <path
     class="st21"
     d="m 94.481317,131.77686 c 5.820003,-2.01 7.250003,6.22 1.87,6.99 -3.79,0.54 -5.15,-5.86 -1.87,-6.99 z"
     id="path180" />
  <path
     class="st9"
     d="m 84.641317,114.38686 c -1.02,-2.55 1.48,-10.17 5.04,-8.32 3.97,2.07 -1.26,9.39 -5.04,8.32 z"
     id="path182" />
  <path
     class="st47"
     d="m 98.501317,144.08686 c 4.060003,-4.22 6.220003,6.86 1.520003,7.67 -2.730003,0.47 -3.190003,-5.93 -1.520003,-7.67 z"
     id="path184" />
  <path
     class="st21"
     d="m 101.88132,131.61686 c -3.260003,2.22 -6.700003,-8.07 -1,-7.86 3.46,0.13 2.32,6.96 1,7.86 z"
     id="path186" />
  <path
     class="st9"
     d="m 92.561317,117.98686 c 0.08,-0.23 3.08,-3.51 3.32,-3.56 4.240003,-0.89 2.41,12.86 -1.89,5.01 l -1.43,2.16 c 0.13,-1.04 -0.25,-2.86 0,-3.6 z"
     id="path188" />
  <path
     class="st48"
     d="m 112.00132,124.46686 c 0.2,0.59 1.01,1.17 0.73,2.16 1.91,-2.5 4.6,-0.67 4.86,1.9 0.07,0.72 -0.99,5.12 -2.34,4.57 -1.25,-0.51 -2.95,-4.41 -3.25,-5.75 -2.11,-0.56 -1.98,-2.22 0,-2.88 z"
     id="path190" />
  <path
     class="st47"
     d="m 80.041317,146.11686 c 4.02,-1.31 5.47,5.31 1.94,6.31 -4.34,1.23 -3.76,-5.72 -1.94,-6.31 z"
     id="path192" />
  <path
     class="st47"
     d="m 112.00132,124.46686 c 0.12,0.89 -0.18,2.07 0,2.88 l -1.44,2.53 c -2.23,-0.98 -3.21,-7.61 -1.07,-8.28 2.84,-0.42 2.05,1.51 2.51,2.87 z"
     id="path194" />
  <path
     class="st57"
     d="m 105.51132,102.85686 c -3.03,0.26 -5.1,-6.250001 -2.44,-7.130001 4.24,-1.4 3.44,4.490001 2.44,7.130001 z"
     id="path196" />
  <path
     class="st54"
     d="m 103.26132,196.56686 c 1.03,0.65 1.82,7.79 -2.33,6.29 -2.490003,-0.9 -1.220003,-8.51 2.33,-6.29 z"
     id="path198" />
  <path
     class="st54"
     d="m 92.021317,182.59686 c -2.95,-3.05 1.26,-7.7 3.49,-3.09 1.53,3.17 -1.62,5.03 -3.49,3.09 z"
     id="path200" />
  <path
     class="st6"
     d="m 113.94132,191.50686 c 3.74,0 3.79,3.6 1.27,5.68 -2.89,-0.94 -4.73,-3.91 -1.27,-5.68 z"
     id="path202" />
  <path
     class="st6"
     d="m 98.251317,87.106859 c 0.37,0.51 -0.09,2.33 0.07,3.16 -5.21,1.63 -2.38,-6.29 -0.07,-3.16 z"
     id="path204" />
  <path
     class="st34"
     d="m 129.28132,186.38686 c -0.48,0.52 -0.05,3.11 -3.16,2.1 -2.46,-0.8 -0.41,-3.33 -0.44,-3.54 0.78,1.23 2.24,1.47 3.6,1.44 z"
     id="path206" />
  <path
     class="st26"
     d="m 86.451317,98.546859 c 2.8,-0.75 3.26,3.170001 1.42,3.590001 -1.53,0.35 -3.68,-2.980001 -1.42,-3.590001 z"
     id="path208" />
  <path
     class="st58"
     d="m 96.161317,111.49686 c -1.2,1.21 -4.77,-1.64 -1.08,-3.58 1.07,0.34 1.48,3.18 1.08,3.58 z"
     id="path210" />
  <path
     class="st24"
     d="m 103.36132,16.466859 c -0.37,5.65 -6.270003,-1.79 -4.320003,-5.04 0.17,0.06 1.700003,-1.3 3.200003,0.76 0.66,0.91 1.2,3.14 1.12,4.28 z"
     id="path212" />
  <path
     class="st73"
     d="m 107.67132,40.946859 c -0.18,0.13 -2.16,-1.09 -2.52,-1.43 -5.400003,-5.15 6.11,-7.77 2.52,1.43 z"
     id="path214" />
  <path
     class="st55"
     d="m 93.281317,11.426859 c -0.69,2.03 0.79,6.16 -3.6,5.76 0.03,-0.12 -0.73,-1.18 -0.57,-2.32 0.29,-2.11 1.85,-5.2700003 4.17,-3.44 z"
     id="path216" />
  <path
     class="st6"
     d="m 92.381317,29.266859 c -0.82,0.88 -2.36,0.51 -3.37,0.1 -1.01,-8.18 7.48,-4.53 3.37,-0.1 z"
     id="path218" />
  <path
     class="st11"
     d="m 101.57132,27.986859 c 3.06,-0.94 3.29,4.45 1.43,5.03 -3.060003,0.94 -3.290003,-4.45 -1.43,-5.03 z"
     id="path220" />
  <path
     class="st71"
     d="m 99.651317,27.886859 c -0.63,0.38 -1.94,-0.01 -2.77,0.1 -0.23,-2.1 -0.05,-3.76 1.8,-5.03 1.470003,0.69 2.150003,4.22 0.97,4.92 z"
     id="path222" />
  <path
     class="st6"
     d="m 97.531317,37.996859 c -2.54,1.6 -5.29,-2.51 -2.1,-3.93 2,-0.89 3.77,2.88 2.1,3.93 z"
     id="path224" />
  <path
     class="st16"
     d="m 88.611317,36.626859 c 2.43,-0.57 2.66,5.26 -0.72,4.31 -2.02,-0.57 -0.72,-3.97 0.72,-4.31 z"
     id="path226" />
  <path
     class="st73"
     d="m 84.641317,35.186859 c 1.7,2.05 -0.16,3.67 -2.16,2.16 0.49,-1.07 -1.23,-2.72 2.16,-2.16 z"
     id="path228" />
  <path
     class="st46"
     d="m 112.53132,59.126859 c 2.03,2.15 1.22,7.78 -2.36,8.45 -10.370003,1.95 -4.44,-15.64 2.36,-8.45 z"
     id="path230" />
  <path
     class="st65"
     d="m 80.531317,68.086859 c -3.95,-3.2 -0.71,-11.3 4.81,-8.77 6.55,2.99 0.54,13.11 -4.81,8.77 z"
     id="path232" />
  <path
     class="st66"
     d="m 117.76132,221.66686 v 10.08 c -4.51,-0.93 -11.24,-1.16 -15.84,-0.72 -2.260003,-2.54 -0.88,-6.33 -2.160003,-9.36 7.270003,-1 10.360003,-1.97 18.000003,0 z"
     id="path234" />
  <path
     class="st60"
     d="m 117.04132,246.14686 c -0.4,4.67 -0.6,8.61 -1.46,13.34 -0.35,1.92 0.77,1.99 -2.14,1.78 -3.45,-1.28 -8.58,-2.52 -12.24,-2.88 0.36,-4.69 -0.83,-9.92 0.72,-14.4 5.51,0 10.04,-0.5 15.12,2.16 z"
     id="path236" />
  <path
     class="st60"
     d="m 100.48132,271.34686 c 3.96,0.74 6.34,0.94 10.08,2.88 -2.15,4.57 -5.49,10.66 -10.08,12.96 -1.720003,-1.78 -3.000003,-2.91 -5.040003,-4.32 0.88,-3.19 2.15,-6.26 3.25,-9.39 0.4,-1.15 -0.15,-2.55 1.790003,-2.13 z"
     id="path238" />
  <path
     class="st20"
     d="m 91.121317,292.94686 c 0.78,1.11 0.93,1.95 1.44,2.88 l -7.2,5.03 c 1.28,-1.97 2.49,-4.01 3.73,-6.02 0.58,-0.93 0.24,-2.3 2.03,-1.9 z"
     id="path240" />
</svg>
