<?xml version="1.0" encoding="UTF-8" standalone="no"?>
<!-- Generator: Adobe Illustrator 18.0.0, SVG Export Plug-In . SVG Version: 6.00 Build 0)  -->

<svg
   version="1.1"
   id="Layer_2"
   x="0px"
   y="0px"
   viewBox="0 0 60.325002 51.767568"
   enable-background="new 0 0 60.3 51.6"
   xml:space="preserve"
   sodipodi:docname="M-story-2.svg"
   width="60.325001"
   height="51.767567"
   xmlns:inkscape="http://www.inkscape.org/namespaces/inkscape"
   xmlns:sodipodi="http://sodipodi.sourceforge.net/DTD/sodipodi-0.dtd"
   xmlns="http://www.w3.org/2000/svg"
   xmlns:svg="http://www.w3.org/2000/svg"><defs
   id="defs23" /><sodipodi:namedview
   id="namedview21"
   pagecolor="#ffffff"
   bordercolor="#000000"
   borderopacity="0.25"
   inkscape:showpageshadow="2"
   inkscape:pageopacity="0.0"
   inkscape:pagecheckerboard="0"
   inkscape:deskcolor="#d1d1d1" />
<g
   id="g18">
	<path
   fill="#f7941e"
   d="M 60.2,0.8 C 60.1,0.6 59.5,0.4 59.1,0.3 56.7,0.2 54.3,0.2 51.8,0.2 51,0.2 50.1,0.3 49.3,0.3 49.1,0.3 48.9,0.4 48.8,0.5 48.3,0.9 47.8,1.3 47.3,1.7 45.7,3 43.9,4 42.9,5.9 42.3,7.1 41.5,8.2 41,9.4 c -0.5,1.2 -0.8,2.5 -1.1,3.7 -0.4,1.3 -0.8,2.5 -1.2,3.7 -1,2.7 -1.8,5.4 -2.9,8 -1.2,2.8 -2.6,5.6 -3.9,8.4 -0.2,0.4 -0.5,0.8 -0.8,1.4 -0.3,-0.8 -0.5,-1.4 -0.7,-2 -0.9,-2 -1.8,-4 -2.6,-6 C 26.9,24.4 26,22.1 25.1,19.9 24.2,17.5 23.5,15.1 22.5,12.7 21,8.9 19.4,5.2 17.9,1.4 17.4,0.2 17.2,0 15.9,0 12.7,0 9.5,0 6.3,0 6,0 5.5,0.2 5.3,0.5 4,1.9 2.8,3.5 1.5,4.9 0.3,6.1 0,7.4 0,9 c 0,0.6 0.2,0.9 0.8,0.9 0.5,0 1,0 1.5,0 1.1,0 1.5,0.4 1.6,1.5 0.1,1.3 0.3,2.7 0.3,4.1 0,3.7 0,7.3 -0.1,11 -0.1,6.3 -0.3,12.7 -0.4,19.1 0,0.7 -0.2,1.2 -0.8,1.5 -1.3,0.8 -1.9,1.8 -1.6,3.4 0.2,0.7 0.3,1 1.1,1 3.8,0 7.6,0 11.5,0 0.6,0 0.9,-0.3 1.2,-0.7 0.5,-0.8 1.1,-1.4 1.7,-2.2 0.2,-0.3 0.4,-0.6 0.5,-0.9 0.1,-0.7 0.1,-1.4 0.2,-2 0.1,-0.6 -0.1,-0.8 -0.7,-0.8 -0.5,0 -1,0 -1.4,-0.2 -0.5,-0.2 -1.2,-0.6 -1.4,-1.1 -0.3,-0.9 -0.3,-1.9 -0.3,-2.9 0.1,-4.5 0.2,-9 0.3,-13.4 0,-1.8 0,-3.7 0,-5.5 0.1,0.2 0.2,0.3 0.3,0.5 1.7,3.4 3.4,6.8 5.1,10.3 0.1,0.3 0.3,0.6 0.4,0.9 1.4,3.4 2.8,6.8 4.4,10.2 1.2,2.5 2.6,5 3.4,7.7 0,0.1 0.3,0.3 0.5,0.3 0.3,0.1 0.6,0 0.9,0 1.1,0.2 1.8,0 2.4,-1.2 0.9,-1.9 2.2,-3.6 3.1,-5.4 1.2,-2.4 2.4,-4.8 3.4,-7.2 1.1,-2.6 2.1,-5.2 3.2,-7.8 1.2,-2.9 2.5,-5.8 3.7,-8.7 0.3,-0.7 0.5,-1.5 0.8,-2.2 0.1,0 0.2,0 0.3,0 0,2.4 0,4.7 0,7.1 -0.1,4.2 -0.4,8.4 0.1,12.5 0.2,1.9 0.3,3.7 0.4,5.6 0,0.2 0,0.6 -0.2,0.7 -0.8,0.6 -1.6,1.3 -2.4,1.8 -1.1,0.8 -1.7,1.8 -1.5,3.2 0.1,0.8 0.2,1 1.1,1.1 1.9,0.1 3.7,0.2 5.6,0.3 2.6,0.1 5.3,0 7.9,0 0.1,-0.2 0.1,-0.5 0.2,-0.6 0.9,-1.1 2,-2.2 2.8,-3.4 0.3,-0.5 0.3,-1.3 0.3,-1.9 0,-0.2 -0.6,-0.3 -1,-0.4 -0.3,-0.1 -0.6,-0.1 -0.9,-0.1 -1.4,-0.1 -1.8,-0.5 -1.7,-1.9 0.1,-2.5 0.2,-4.9 0.2,-7.3 0.1,-7.4 0.1,-14.7 0.1,-22.1 0,-1 -0.1,-2 -0.1,-3.1 0,-2.3 0,-4.5 0,-6.8 0,-0.6 0.4,-0.9 1,-0.9 0.7,0 1.3,0 2,0 0.2,0 0.5,-0.1 0.5,-0.2 0,-0.8 0.1,-1.4 -0.1,-2 z m -0.6,1.5 c -0.8,0 -1.5,0 -2.2,0 -0.9,0 -1.3,0.4 -1.4,1.3 0,2.7 0,5.5 0,8.2 0,3 0,6.1 0,9.2 0,5 -0.1,10 -0.1,14.9 0,2.4 -0.1,4.8 -0.2,7.3 0,1.6 0.5,2.2 2.1,2.3 0.5,0 1,0.1 1.6,0.2 -0.1,0.4 -0.1,0.8 -0.2,1.2 -4.4,0.8 -8.8,0.5 -13.2,0.6 -0.5,-1.2 -0.2,-1.8 1,-2 0.5,-0.1 1.1,-0.2 1.6,-0.4 1.1,-0.3 1.7,-1.1 1.7,-2.4 -0.1,-5 -0.1,-10 -0.3,-14.9 -0.2,-5.5 -0.2,-10.9 0,-16.3 0.1,-1 -0.1,-2 -0.3,-3 0,-0.2 -0.1,-0.5 -0.3,-0.9 -0.7,1.3 -1.5,2.3 -1.9,3.5 -1.3,3.6 -2.5,7.2 -3.8,10.8 -1,2.6 -2.2,5.1 -3.3,7.6 -0.7,1.6 -1.4,3.1 -2,4.7 -1.5,4 -3.2,7.8 -5.3,11.6 -0.2,0.4 -0.4,0.5 -0.8,0.5 C 30.8,46.5 30.1,46 29.4,44.5 26,37.7 23.4,30.6 21,23.5 20.4,21.6 19.4,19.8 18.6,18 17.4,15.3 16.2,12.7 15,10 14.5,9 14,8 13.5,7 13.5,6.9 13.2,6.8 13.1,6.8 13,6.9 12.8,7.1 12.8,7.3 c 0,2.5 0,4.9 0,7.3 0,2.7 0.1,5.4 0.1,8.1 0.1,2.3 0.1,4.7 0.1,7 0,3 -0.2,6 -0.2,9.1 0,1.5 0,3 0.1,4.5 0,1.1 1,2 2.1,2 0.5,0 0.9,0 1.5,0 -0.1,0.8 -0.2,1.4 -0.2,2.2 -0.2,0 -0.5,0.1 -0.9,0.1 -2.2,0.1 -4.5,0.1 -6.7,0.2 -0.6,0 -1.3,0.1 -1.9,0.1 C 6,48 5.7,47.7 5.9,46.9 6,46.5 6.1,46.1 6.1,45.8 7.2,45.4 8.1,45.2 9,45 c 0.6,-0.2 0.9,-0.6 0.9,-1.3 0,-2.7 0,-5.3 0.1,-8 0.1,-2.1 0.3,-4.2 0.4,-6.3 0,-1.3 -0.2,-2.6 -0.2,-3.9 0,-2.4 0,-4.9 -0.1,-7.3 0,-1.6 0,-3.2 0,-4.8 C 10.1,11.2 10.1,9 10,6.8 10,5.8 9.9,4.9 9.8,3.9 9.7,3 9.1,2.5 8,2.3 7.5,2.2 7,2.2 6.4,2.1 V 0.5 H 15 c 0.1,0 0.2,0 0.3,0 0.9,0.1 1.5,0.2 1.9,1.3 1.2,3.4 2.8,6.7 4.1,10.1 1.1,2.7 2,5.5 3,8.2 0.9,2.3 1.8,4.6 2.7,6.8 0.8,2 1.8,4 2.7,6 0.5,1.2 1,2.5 1.5,3.7 0.5,1.2 1,2.4 1.5,3.6 0,0.1 0.2,0.3 0.3,0.3 0.1,0 0.4,-0.1 0.4,-0.3 1.1,-2.2 2.2,-4.4 3.1,-6.6 0.8,-1.8 1.3,-3.8 2,-5.6 0.5,-1.2 1.2,-2.3 1.7,-3.6 1.2,-3.1 2.3,-6.2 3.5,-9.3 1.6,-4.2 3.5,-8.3 5,-12.5 0.5,-1.5 1.3,-1.8 2.7,-1.8 2.7,0.1 5.4,0 8.2,0 z"
   id="path2" />
	<path
   fill="#ffffff"
   d="m 57.5,2.3 c 0.7,0 1.4,0 2.2,0 V 0.9 c -2.8,0 -5.5,0.1 -8.2,0 -1.4,0 -2.1,0.3 -2.7,1.8 -1.5,4.2 -3.4,8.3 -5,12.5 -1.2,3.1 -2.3,6.2 -3.5,9.3 -0.5,1.2 -1.2,2.3 -1.7,3.6 -0.7,1.9 -1.3,3.8 -2,5.6 -1,2.2 -2.1,4.4 -3.1,6.6 -0.1,0.1 -0.3,0.2 -0.4,0.3 -0.1,0 -0.3,-0.2 -0.3,-0.3 -0.5,-1.2 -1,-2.4 -1.5,-3.6 -0.5,-1.2 -1,-2.5 -1.5,-3.7 -0.9,-2 -1.8,-4 -2.7,-6 -1,-2.3 -1.9,-4.5 -2.7,-6.8 -1,-2.7 -2,-5.5 -3,-8.2 C 20.1,8.6 18.6,5.3 17.3,1.9 16.9,0.8 16.3,0.7 15.4,0.6 c -0.1,0 -0.2,0 -0.3,0 H 6.3 V 2.1 C 6.9,2.2 7.4,2.2 8,2.3 9.1,2.5 9.7,3 9.9,4 c 0.1,1 0.2,1.9 0.2,2.9 0.1,2.2 0.1,4.4 0.1,6.6 0,1.6 0,3.2 0,4.8 0,2.4 0,4.9 0.1,7.3 0,1.3 0.2,2.6 0.2,3.9 -0.1,2.1 -0.3,4.2 -0.4,6.3 -0.1,2.7 -0.1,5.3 -0.1,8 0,0.7 -0.2,1.1 -0.9,1.3 -0.9,0.2 -1.8,0.4 -2.7,0.7 -0.2,0.2 -0.3,0.6 -0.4,1 -0.1,0.8 0.2,1.1 0.9,1 0.6,0 1.3,-0.1 1.9,-0.1 2.2,-0.1 4.5,-0.1 6.7,-0.2 0.3,0 0.6,-0.1 0.9,-0.1 0.1,-0.8 0.2,-1.4 0.2,-2.2 -0.5,0 -1,0 -1.5,0 -1.1,0 -2,-0.9 -2.1,-2 0,-1.5 -0.1,-3 -0.1,-4.5 0,-3 0.2,-6 0.2,-9.1 0,-2.3 -0.1,-4.7 -0.1,-7 0,-2.7 -0.1,-5.4 -0.1,-8.1 0,-2.5 0,-4.9 0,-7.3 0,-0.2 0.2,-0.3 0.3,-0.5 0,0 0.3,0.1 0.4,0.2 0.5,1 1,2 1.5,3 1.2,2.7 2.4,5.3 3.6,8 0.8,1.8 1.8,3.6 2.4,5.5 2.4,7.2 5,14.2 8.4,21 0.7,1.4 1.4,2 2.9,1.8 0.4,-0.1 0.6,-0.1 0.8,-0.5 2,-3.7 3.7,-7.6 5.3,-11.6 0.6,-1.6 1.3,-3.2 2,-4.7 1.1,-2.5 2.3,-5 3.3,-7.6 1.3,-3.6 2.5,-7.2 3.8,-10.8 0.4,-1.1 1.2,-2.2 1.9,-3.5 0.2,0.5 0.3,0.7 0.3,0.9 0.1,1 0.3,2 0.3,3 -0.2,5.5 -0.3,10.9 0,16.3 0.2,5 0.2,9.9 0.3,14.9 0,1.3 -0.6,2.1 -1.7,2.4 -0.5,0.1 -1.1,0.2 -1.6,0.4 -1.2,0.2 -1.5,0.8 -1,2 4.4,-0.1 8.8,0.1 13.2,-0.6 0.1,-0.4 0.1,-0.7 0.2,-1.2 -0.6,-0.1 -1.1,-0.2 -1.6,-0.2 -1.6,-0.1 -2.2,-0.7 -2.1,-2.3 0.1,-2.4 0.2,-4.8 0.2,-7.3 0.1,-5 0.1,-10 0.1,-14.9 0,-3.1 0,-6.1 0,-9.2 0,-2.8 -0.1,-5.5 0,-8.2 0,-0.8 0.5,-1.2 1.4,-1.2 z M 22.6,22.1 C 22.5,22.2 22,21.8 21.9,21.6 21,19.5 20.1,17.3 19.2,15.2 c -0.8,-2 -1.7,-4 -2.6,-5.9 -0.4,-0.8 -0.7,-1.7 -1,-2.5 0.1,0 0.2,-0.1 0.2,-0.1 0.2,0.2 0.4,0.5 0.5,0.7 1.4,3 2.7,6.1 4,9.2 0.7,1.6 1.4,3.2 2.1,4.8 0.4,0.2 0.7,0.5 0.2,0.7 z m 0.8,2.6 c -0.2,0 -0.6,-0.4 -0.6,-0.5 0.1,-0.3 0.4,-0.5 0.7,-1 0.3,0.5 0.6,0.8 0.6,1 0,0.2 -0.4,0.5 -0.7,0.5 z m 7.4,17.2 c -0.1,0 -0.2,0.1 -0.3,0.1 -0.4,-0.9 -0.8,-1.7 -1.2,-2.6 -0.9,-2.1 -1.8,-4.2 -2.7,-6.4 -0.8,-2.1 -1.5,-4.2 -2.1,-6.3 -0.1,-0.2 0.1,-0.4 0.2,-0.6 0.2,0.1 0.4,0.2 0.5,0.4 0.5,1.4 0.9,2.7 1.4,4.1 0.4,1.1 0.8,2.1 1.2,3.2 1,2.6 2,5.3 3,7.9 0,0 0,0.1 0,0.2 z M 52.2,7.8 c 0,-0.2 0,-0.4 0.1,-0.6 0.1,0 0.1,0 0.2,-0.1 0.1,0.2 0.2,0.4 0.2,0.6 0.1,3.3 0.2,6.6 0.2,9.9 0,1.8 0,3.6 0,5.4 0,0.2 -0.2,0.5 -0.4,0.7 -0.1,-0.2 -0.3,-0.5 -0.3,-0.7 0,-3.2 0,-6.4 0,-9.6 0.1,-1.9 0,-3.7 0,-5.6 z m 1,26.9 c 0,2.2 0,4.3 -0.1,6.5 0,0.9 0,1.8 -0.1,2.8 0,0.1 -0.1,0.3 -0.2,0.4 0,0 -0.1,0 -0.2,0 0,-0.4 -0.1,-0.9 -0.1,-1.3 -0.5,-3.6 -0.3,-7.1 0.1,-10.7 0.1,-0.9 -0.1,-1.7 -0.1,-2.6 0,-0.2 0.2,-0.4 0.3,-0.6 0.1,0.2 0.4,0.4 0.4,0.5 0.1,1.6 0.1,3.3 0,5 z m -0.3,-7.3 c -0.3,0 -0.6,-0.4 -1.1,-0.7 0.5,-0.4 0.7,-0.7 1,-0.9 0.3,0.3 0.6,0.7 0.8,1 0,0.1 -0.5,0.6 -0.7,0.6 z"
   id="path4" />
	<path
   fill="#f7941e"
   d="m 30.8,41.9 c -0.1,0 -0.2,0.1 -0.3,0.1 -0.4,-0.9 -0.8,-1.7 -1.2,-2.6 -0.9,-2.1 -1.8,-4.2 -2.7,-6.4 -0.8,-2.1 -1.5,-4.2 -2.1,-6.3 -0.1,-0.2 0.1,-0.4 0.2,-0.6 0.2,0.1 0.4,0.2 0.5,0.4 0.5,1.4 0.9,2.7 1.4,4.1 0.4,1.1 0.8,2.1 1.2,3.2 1,2.6 2,5.3 3,7.9 0,0 0,0.1 0,0.2 z"
   id="path6" />
	<path
   fill="#f7941e"
   d="M 22.6,22.1 C 22.5,22.2 22,21.8 21.9,21.6 21,19.5 20.1,17.3 19.2,15.2 c -0.8,-2 -1.7,-4 -2.6,-5.9 -0.4,-0.8 -0.7,-1.7 -1,-2.5 0.1,0 0.2,-0.1 0.2,-0.1 0.2,0.2 0.4,0.5 0.5,0.7 1.4,3 2.7,6.1 4,9.2 0.7,1.6 1.4,3.2 2.1,4.8 0.4,0.2 0.7,0.5 0.2,0.7 z"
   id="path8" />
	<path
   fill="#f7941e"
   d="m 52.9,23 c 0,0.2 -0.2,0.5 -0.4,0.7 -0.1,-0.2 -0.3,-0.5 -0.3,-0.7 0,-3.2 0,-6.4 0,-9.6 0,-1.9 0,-3.7 0,-5.6 0,-0.2 0,-0.4 0.1,-0.6 0.1,0 0.1,0 0.2,-0.1 0.1,0.2 0.2,0.4 0.2,0.6 0.1,3.3 0.2,6.6 0.2,9.9 0,1.8 0,3.6 0,5.4 z"
   id="path10" />
	<path
   fill="#f7941e"
   d="m 53.3,29.6 c 0,1.7 0,3.4 -0.1,5.1 0,2.2 0,4.3 -0.1,6.5 0,0.9 0,1.8 -0.1,2.8 0,0.1 -0.1,0.3 -0.2,0.4 0,0 -0.1,0 -0.2,0 0,-0.4 -0.1,-0.9 -0.1,-1.3 -0.5,-3.6 -0.3,-7.1 0.1,-10.7 0.1,-0.9 -0.1,-1.7 -0.1,-2.6 0,-0.2 0.2,-0.4 0.3,-0.6 0.2,0 0.5,0.2 0.5,0.4 z"
   id="path12" />
	<path
   fill="#f7941e"
   d="m 53.5,26.8 c 0,0.1 -0.4,0.6 -0.6,0.6 -0.3,0 -0.6,-0.4 -1.1,-0.7 0.5,-0.4 0.7,-0.7 1,-0.9 0.2,0.3 0.6,0.6 0.7,1 z"
   id="path14" />
	<path
   fill="#f7941e"
   d="m 24.1,24.2 c 0,0.2 -0.4,0.5 -0.7,0.5 -0.2,0 -0.6,-0.4 -0.6,-0.5 0.1,-0.3 0.4,-0.5 0.7,-1 0.3,0.5 0.7,0.8 0.6,1 z"
   id="path16" />
</g>
</svg>
