<svg version="1.1" width="172" height="167" xmlns="http://www.w3.org/2000/svg" xmlns:xlink="http://www.w3.org/1999/xlink">
  <!-- Exported by Scratch - http://scratch.mit.edu/ -->
  <g id="ID0.09293325105682015" transform="matrix(0.6634204387664795, 0, 0, 0.6634204387664795, -0.15, 0.05)">
    <g id="Microphone">
      <g id="Handle">
        <path id="Purple" fill="#626CB1" d="M 72.401 27.559 L 35.453 20.836 L 33.944 30.596 L 71.196 35.349 L 72.401 27.559 " transform="matrix(0.6983373165130615, 0, 0, 0.6983373165130615, 0.65, 0.5)"/>
        <path id="Blue" fill="#2EAAE1" d="M 79.176 36.367 L 80.314 29 L 74.532 27.949 L 73.346 35.624 L 79.176 36.367 " transform="matrix(0.6983373165130615, 0, 0, 0.6983373165130615, 0.65, 0.5)"/>
        <path id="Outline_1_" fill="#231F20" d="M 34.611 18.922 L 32.520 32.442 L 32.338 33.617 L 81.397 39.179 L 83.282 26.990 L 34.835 17.471 L 34.611 18.922 L 34.611 18.922 L 34.611 18.922 Z M 35.453 20.836 L 72.401 27.559 L 71.196 35.349 L 33.945 30.596 L 35.453 20.836 L 35.453 20.836 L 35.453 20.836 Z M 80.314 29 L 79.175 36.367 L 73.345 35.624 L 74.532 27.949 L 80.314 29 L 80.314 29 L 80.314 29 Z " transform="matrix(0.6983373165130615, 0, 0, 0.6983373165130615, 0.65, 0.5)"/>
        <path id="Button" fill="#231F20" d="M 45.947 21.325 L 48.520 21.325 L 48.520 30.200 L 45.947 30.200 L 45.947 21.325 L 45.947 21.325 Z " transform="matrix(-0.10670594125986099, 0.6901667714118958, -0.6901667714118958, -0.10670594125986099, 56.4, -11.3)"/>
      </g>
      <g id="Top">
        <path id="Fill" fill="#8BD6F3" d="M 18.598 9.601 C 23.202 9.601 27.375 11.128 30.396 13.594 C 33.417 16.061 35.287 19.467 35.287 23.226 C 35.287 26.985 33.417 30.391 30.396 32.858 C 27.375 35.324 23.202 36.851 18.598 36.851 C 13.994 36.851 9.821 35.324 6.800 32.858 C 3.779 30.391 1.909 26.985 1.909 23.226 C 1.909 19.467 3.779 16.061 6.800 13.594 C 9.821 11.128 13.994 9.601 18.598 9.601 L 18.598 9.601 Z " transform="matrix(-0.690096914768219, -0.10677577555179596, 0.10677577555179596, -0.690096914768219, 23.95, 34.7)"/>
        <path id="Outline" fill="#231F20" d="M 18.954 5.654 L 18.615 7.847 C 9.373 7.374 1.346 12.647 0.150 20.374 C -1.045 28.099 5.015 35.549 13.968 37.891 L 13.630 40.079 C 13.546 40.624 13.920 41.136 14.465 41.220 L 17.595 41.703 C 18.140 41.787 18.652 41.413 18.736 40.868 L 19.084 38.614 C 28.112 38.873 35.873 33.664 37.045 26.081 C 38.218 18.497 32.396 11.181 23.711 8.699 L 24.060 6.445 C 24.144 5.898 23.769 5.388 23.225 5.304 L 20.095 4.820 C 19.550 4.734 19.039 5.107 18.954 5.654 L 18.954 5.654 L 18.954 5.654 Z M 21.751 22.390 L 22.961 23.993 L 21.311 25.163 L 21.189 25.002 L 21.573 22.515 L 21.751 22.390 L 21.751 22.390 L 21.751 22.390 Z M 22.975 21.521 L 24.632 20.345 L 25.842 21.947 L 24.185 23.123 L 22.975 21.521 L 22.975 21.521 L 22.975 21.521 Z M 15.087 22.776 L 16.456 21.805 L 16.099 24.115 L 15.087 22.776 L 15.087 22.776 L 15.087 22.776 Z M 15.093 25.273 L 13.457 26.434 L 12.227 24.806 L 13.864 23.645 L 15.093 25.273 L 15.093 25.273 L 15.093 25.273 Z M 14.182 21.577 L 12.969 19.973 L 14.623 18.799 L 15.835 20.404 L 14.182 21.577 L 14.182 21.577 L 14.182 21.577 Z M 23.866 25.190 L 25.090 26.811 L 23.440 27.980 L 22.216 26.361 L 23.866 25.190 L 23.866 25.190 L 23.866 25.190 Z M 16.850 19.258 L 15.848 17.931 L 17.204 16.969 L 16.850 19.258 L 16.850 19.258 L 16.850 19.258 Z M 14.943 16.732 L 13.731 15.128 L 15.381 13.957 L 16.593 15.561 L 14.943 16.732 L 14.943 16.732 L 14.943 16.732 Z M 13.719 17.601 L 12.065 18.774 L 10.853 17.170 L 12.508 15.997 L 13.719 17.601 L 13.719 17.601 L 13.719 17.601 Z M 10.840 19.643 L 9.204 20.803 L 7.992 19.199 L 9.629 18.038 L 10.840 19.643 L 10.840 19.643 L 10.840 19.643 Z M 11.746 20.840 L 12.958 22.445 L 11.322 23.606 L 10.108 22.001 L 11.746 20.840 L 11.746 20.840 L 11.746 20.840 Z M 10.097 24.476 L 8.451 25.643 L 7.238 24.038 L 8.884 22.871 L 10.097 24.476 L 10.097 24.476 L 10.097 24.476 Z M 11.002 25.673 L 12.232 27.302 L 10.586 28.470 L 9.356 26.841 L 11.002 25.673 L 11.002 25.673 L 11.002 25.673 Z M 13.138 28.500 L 14.348 30.103 L 12.702 31.270 L 11.492 29.668 L 13.138 28.500 L 13.138 28.500 L 13.138 28.500 Z M 14.360 27.633 L 15.701 26.682 L 15.351 28.945 L 14.360 27.633 L 14.360 27.633 L 14.360 27.633 Z M 20.828 27.345 L 20.992 27.228 L 22.216 28.848 L 20.562 30.021 L 20.439 29.859 L 20.828 27.345 L 20.828 27.345 L 20.828 27.345 Z M 23.119 30.046 L 24.342 31.665 L 22.688 32.838 L 21.465 31.219 L 23.119 30.046 L 23.119 30.046 L 23.119 30.046 Z M 24.344 29.177 L 25.993 28.007 L 27.216 29.627 L 25.566 30.796 L 24.344 29.177 L 24.344 29.177 L 24.344 29.177 Z M 27.217 27.139 L 28.876 25.963 L 30.099 27.581 L 28.442 28.757 L 27.217 27.139 L 27.217 27.139 L 27.217 27.139 Z M 26.312 25.941 L 25.089 24.321 L 26.746 23.145 L 27.970 24.764 L 26.312 25.941 L 26.312 25.941 L 26.312 25.941 Z M 27.971 22.279 L 29.617 21.110 L 30.841 22.730 L 29.195 23.897 L 27.971 22.279 L 27.971 22.279 L 27.971 22.279 Z M 27.067 21.082 L 25.857 19.479 L 27.503 18.311 L 28.713 19.913 L 27.067 21.082 L 27.067 21.082 L 27.067 21.082 Z M 24.952 18.281 L 23.723 16.652 L 25.369 15.485 L 26.600 17.114 L 24.952 18.281 L 24.952 18.281 L 24.952 18.281 Z M 22.497 17.520 L 23.727 19.148 L 22.070 20.324 L 21.939 20.152 L 22.328 17.641 L 22.497 17.520 L 22.497 17.520 L 22.497 17.520 Z M 17.601 14.406 L 16.605 13.089 L 17.952 12.134 L 17.601 14.406 L 17.601 14.406 L 17.601 14.406 Z M 15.674 11.856 C 15.705 11.855 15.734 11.850 15.764 11.846 L 15.700 11.892 L 15.674 11.856 L 15.674 11.856 L 15.674 11.856 Z M 13.965 12.084 L 14.476 12.760 L 12.826 13.931 L 11.820 12.598 C 12.508 12.384 13.226 12.214 13.965 12.084 L 13.965 12.084 L 13.965 12.084 Z M 10.347 13.138 L 11.602 14.801 L 9.947 15.974 L 8.521 14.086 C 9.096 13.734 9.701 13.411 10.347 13.138 L 10.347 13.138 L 10.347 13.138 Z M 7.284 14.937 L 8.723 16.841 L 7.086 18.002 L 5.820 16.326 C 6.258 15.829 6.744 15.361 7.284 14.937 L 7.284 14.937 L 7.284 14.937 Z M 3.916 19.637 C 4.145 18.908 4.470 18.217 4.879 17.567 L 5.863 18.871 L 4.217 20.038 L 3.916 19.637 L 3.916 19.637 L 3.916 19.637 Z M 6.767 20.067 L 7.978 21.671 L 6.333 22.839 L 5.121 21.235 L 6.767 20.067 L 6.767 20.067 L 6.767 20.067 Z M 3.524 22.368 L 3.898 22.103 L 5.110 23.708 L 3.848 24.603 C 3.646 23.870 3.537 23.124 3.524 22.368 L 3.524 22.368 L 3.524 22.368 Z M 4.386 26.062 L 6.016 24.907 L 7.229 26.512 L 5.386 27.818 C 4.992 27.252 4.660 26.665 4.386 26.062 L 4.386 26.062 L 4.386 26.062 Z M 6.319 28.996 L 8.133 27.709 L 9.364 29.337 L 7.799 30.447 C 7.257 29.992 6.769 29.503 6.319 28.996 L 6.319 28.996 L 6.319 28.996 Z M 9.056 31.395 L 10.267 30.536 L 11.478 32.138 L 10.941 32.519 C 10.277 32.178 9.648 31.801 9.056 31.395 L 9.056 31.395 L 9.056 31.395 Z M 13.607 32.468 L 14.955 31.511 L 14.603 33.785 L 13.607 32.468 L 13.607 32.468 L 13.607 32.468 Z M 19.697 34.653 L 20.076 32.204 L 20.241 32.087 L 21.464 33.706 L 20.126 34.656 C 19.983 34.657 19.841 34.655 19.697 34.653 L 19.697 34.653 L 19.697 34.653 Z M 25.869 33.686 C 25.197 33.921 24.494 34.112 23.766 34.265 L 23.593 34.035 L 25.247 32.862 L 25.869 33.686 L 25.869 33.686 L 25.869 33.686 Z M 27.307 33.100 L 26.472 31.994 L 28.121 30.824 L 29.096 32.114 C 28.540 32.482 27.936 32.804 27.307 33.100 L 27.307 33.100 L 27.307 33.100 Z M 31.723 29.734 C 31.305 30.262 30.817 30.749 30.287 31.203 L 29.345 29.956 L 31.003 28.780 L 31.723 29.734 L 31.723 29.734 L 31.723 29.734 Z M 32.594 28.398 L 32.226 27.910 L 33.106 27.285 C 32.961 27.668 32.791 28.040 32.594 28.398 L 32.594 28.398 L 32.594 28.398 Z M 32.969 25.545 L 31.322 26.713 L 30.099 25.094 L 31.746 23.926 L 32.969 25.545 L 32.969 25.545 L 32.969 25.545 Z M 33.667 23.981 L 32.969 23.058 L 33.528 22.662 C 33.606 23.099 33.654 23.540 33.667 23.981 L 33.667 23.981 L 33.667 23.981 Z M 33.118 21.114 L 32.065 21.862 L 30.841 20.242 L 32.215 19.266 C 32.578 19.864 32.886 20.480 33.118 21.114 L 33.118 21.114 L 33.118 21.114 Z M 31.368 18.031 L 29.937 19.045 L 28.727 17.443 L 29.990 16.547 C 30.493 17.018 30.956 17.513 31.368 18.031 L 31.368 18.031 L 31.368 18.031 Z M 28.808 15.546 L 27.822 16.244 L 26.593 14.617 L 26.989 14.336 C 27.634 14.707 28.239 15.112 28.808 15.546 L 28.808 15.546 L 28.808 15.546 Z M 23.222 12.700 C 23.240 12.705 23.258 12.709 23.275 12.714 L 24.463 14.286 L 22.816 15.453 L 22.692 15.287 L 23.077 12.802 L 23.222 12.700 L 23.222 12.700 L 23.222 12.700 Z " transform="matrix(0.6983373165130615, 0, 0, 0.6983373165130615, 0.65, 0.5)"/>
      </g>
    </g>
    <g id="Moveable_Arm">
      <g id="Pole_1_">
        <path id="ID0.32684058230370283" fill="#ADC4E6" d="M 240.767 52.146 C 240.502 52.146 240.236 52.117 239.975 52.060 L 71.707 14.940 C 70.777 14.735 69.957 14.169 69.457 13.388 C 68.987 12.651 68.829 11.786 69.013 10.953 C 69.346 9.440 70.715 8.384 72.341 8.384 C 72.606 8.384 72.872 8.413 73.133 8.471 L 241.401 45.591 C 242.332 45.796 243.151 46.362 243.650 47.144 C 244.120 47.880 244.277 48.744 244.092 49.577 C 243.759 51.090 242.391 52.146 240.767 52.146 L 240.767 52.146 L 240.767 52.146 L 240.767 52.146 Z " transform="matrix(0.6983373165130615, 0, 0, 0.6983373165130615, 0.65, 0.5)"/>
        <path id="ID0.8971877084113657" d="M 72.341 9.384 C 72.530 9.384 72.724 9.405 72.918 9.447 L 241.186 46.567 C 242.529 46.863 243.393 48.114 243.117 49.360 C 242.882 50.427 241.889 51.146 240.767 51.146 C 240.577 51.146 240.384 51.125 240.190 51.083 L 71.922 13.964 C 70.580 13.669 69.714 12.417 69.990 11.170 C 70.226 10.103 71.218 9.384 72.341 9.384 M 72.341 7.384 L 72.341 7.384 C 70.242 7.384 68.472 8.763 68.037 10.738 C 67.795 11.831 68 12.964 68.615 13.926 C 69.256 14.930 70.305 15.655 71.493 15.917 L 239.760 53.037 C 240.092 53.110 240.431 53.147 240.768 53.147 C 242.865 53.147 244.634 51.767 245.071 49.792 C 245.313 48.700 245.109 47.568 244.495 46.606 C 243.854 45.602 242.806 44.876 241.618 44.614 L 73.349 7.495 C 73.018 7.421 72.678 7.384 72.341 7.384 L 72.341 7.384 L 72.341 9.384 L 72.341 9.384 Z " transform="matrix(0.6983373165130615, 0, 0, 0.6983373165130615, 0.65, 0.5)"/>
      </g>
      <g id="Clip">
        <path id="ID0.5672634481452405" fill="#ADC4E6" d="M 69.937 41.965 C 68.427 41.965 66.802 40.629 66.802 37.696 C 66.802 36.624 66.777 34.085 66.746 30.833 C 66.485 4.016 66.635 2.499 66.946 1.984 C 67.342 1.331 68.321 1 69.857 1 C 70.743 1 72.321 1.113 72.936 1.872 C 73.332 2.360 73.551 2.629 73.224 31.103 C 73.188 34.260 73.160 36.700 73.160 37.697 C 73.160 38.915 72.848 39.968 72.259 40.743 C 71.667 41.520 70.820 41.965 69.937 41.965 C 69.938 41.965 69.938 41.965 69.937 41.965 L 69.937 41.965 L 69.937 41.965 Z " transform="matrix(0.6983373165130615, 0, 0, 0.6983373165130615, 0.65, 0.5)"/>
        <path id="ID0.14857174968346953" d="M 69.857 2 C 70.859 2 71.898 2.179 72.159 2.501 C 72.666 3.125 72.159 33.455 72.159 37.696 C 72.159 39.845 71.041 40.965 69.937 40.965 C 68.863 40.965 67.802 39.903 67.802 37.696 C 67.802 33.223 67.372 3.212 67.802 2.501 C 68.011 2.157 68.918 2 69.857 2 M 69.857 0 C 67.920 0 66.688 0.479 66.091 1.466 C 65.627 2.235 65.470 2.493 65.746 30.843 C 65.777 34.077 65.802 36.633 65.802 37.696 C 65.802 41.155 67.882 42.965 69.937 42.965 C 72.035 42.965 74.159 41.155 74.159 37.696 C 74.159 36.709 74.187 34.240 74.223 31.114 C 74.555 2.279 74.393 2.080 73.711 1.241 C 73.045 0.418 71.748 0 69.857 0 L 69.857 0 L 69.857 2 L 69.857 2 Z " transform="matrix(0.6983373165130615, 0, 0, 0.6983373165130615, 0.65, 0.5)"/>
      </g>
    </g>
    <g id="Stand">
      <g id="Base">
        <path id="Fill_1_" fill="#8095CB" d="M 170.647 228.854 C 186.396 228.854 199.542 224.393 202.906 219.656 C 200.024 213.615 188.884 208.907 176.003 207.863 C 176.003 207.863 169.090 207.463 164.893 207.903 C 152.193 209.011 141.266 213.674 138.407 219.642 C 141.818 224.154 154.948 228.854 170.647 228.854 L 170.647 228.854 L 170.647 228.854 Z " transform="matrix(0.6983373165130615, 0, 0, 0.6983373165130615, 0.65, 0.5)"/>
        <path id="Edge" fill="#556495" d="M 170.647 230.377 C 156.549 230.377 144.260 227.007 137.700 223.414 C 138.553 231.254 153.714 234.783 170.655 234.783 C 187.583 234.783 202.735 231.258 203.607 223.429 C 197.052 227.078 184.763 230.375 170.647 230.377 L 170.647 230.377 L 170.647 230.377 Z " transform="matrix(0.6983373165130615, 0, 0, 0.6983373165130615, 0.65, 0.5)"/>
        <path id="Outline_2_" fill="#231F20" d="M 176.009 205.338 C 170.337 204.822 165.305 205.338 165.305 205.338 C 147.831 206.613 134.424 214.043 134.424 223.024 C 134.424 232.898 150.644 237.390 170.656 237.390 C 190.665 237.390 206.885 232.901 206.885 223.024 C 206.886 214.043 193.477 206.614 176.009 205.338 L 176.009 205.338 L 176.009 205.338 Z M 170.655 234.784 C 153.714 234.784 138.552 231.255 137.700 223.415 C 144.261 227.008 156.550 230.378 170.647 230.378 C 184.763 230.375 197.052 227.078 203.607 223.431 C 202.735 231.258 187.583 234.784 170.655 234.784 L 170.655 234.784 L 170.655 234.784 Z M 164.892 207.903 C 169.089 207.463 176.002 207.863 176.002 207.863 C 188.883 208.907 200.023 213.615 202.905 219.656 C 199.541 224.393 186.395 228.854 170.646 228.854 C 154.947 228.854 141.817 224.154 138.405 219.642 C 141.265 213.674 152.192 209.011 164.892 207.903 L 164.892 207.903 L 164.892 207.903 Z " transform="matrix(0.6983373165130615, 0, 0, 0.6983373165130615, 0.65, 0.5)"/>
      </g>
      <g id="Pole">
        <path id="ID0.7562611470930278" fill="#ADC4E6" d="M 170.757 216.666 C 168.931 216.666 167.445 214.891 167.445 212.709 L 167.486 7.898 C 167.486 5.716 168.971 3.940 170.797 3.940 C 172.625 3.940 174.111 5.716 174.111 7.898 L 174.070 212.710 C 174.070 214.891 172.584 216.666 170.757 216.666 L 170.757 216.666 L 170.757 216.666 L 170.757 216.666 Z " transform="matrix(0.6983373165130615, 0, 0, 0.6983373165130615, 0.65, 0.5)"/>
        <path id="ID0.3760282564908266" d="M 170.796 4.940 C 170.797 4.940 170.797 4.940 170.798 4.940 C 172.076 4.940 173.110 6.264 173.110 7.898 L 173.070 212.710 C 173.070 214.342 172.036 215.665 170.758 215.665 C 170.758 215.665 170.758 215.665 170.757 215.665 C 169.481 215.665 168.445 214.342 168.445 212.708 L 168.486 7.897 C 168.486 6.265 169.521 4.940 170.796 4.940 M 170.798 2.940 L 170.796 2.940 C 168.419 2.940 166.485 5.164 166.485 7.898 L 166.444 212.709 C 166.444 215.442 168.379 217.666 170.756 217.666 C 173.135 217.666 175.069 215.443 175.069 212.711 L 175.110 7.899 C 175.111 5.165 173.176 2.940 170.798 2.940 L 170.798 2.940 L 170.796 4.940 L 170.796 4.940 Z " transform="matrix(0.6983373165130615, 0, 0, 0.6983373165130615, 0.65, 0.5)"/>
      </g>
      <path id="Center" fill="#556495" stroke="#000000" stroke-width="2" d="M 177.827 39.377 C 177.827 42.520 175.279 45.068 172.136 45.068 L 168.935 45.068 C 165.791 45.068 163.244 42.520 163.244 39.377 L 163.244 30.128 C 163.244 26.985 165.792 24.437 168.935 24.437 L 172.136 24.437 C 175.280 24.437 177.827 26.985 177.827 30.128 L 177.827 39.377 L 177.827 39.377 L 177.827 39.377 Z " transform="matrix(0.6983373165130615, 0, 0, 0.6983373165130615, 0.65, 0.5)"/>
    </g>
  </g>
</svg>