<?xml version="1.0" encoding="UTF-8" standalone="no"?>
<svg
   id="Layer_1"
   version="1.1"
   viewBox="0 0 222.55099 415.60596"
   sodipodi:docname="Mola.svg"
   width="222.55099"
   height="415.60596"
   xmlns:inkscape="http://www.inkscape.org/namespaces/inkscape"
   xmlns:sodipodi="http://sodipodi.sourceforge.net/DTD/sodipodi-0.dtd"
   xmlns="http://www.w3.org/2000/svg"
   xmlns:svg="http://www.w3.org/2000/svg">
  <sodipodi:namedview
     id="namedview216"
     pagecolor="#ffffff"
     bordercolor="#000000"
     borderopacity="0.25"
     inkscape:showpageshadow="2"
     inkscape:pageopacity="0.0"
     inkscape:pagecheckerboard="0"
     inkscape:deskcolor="#d1d1d1" />
  <!-- Generator: Adobe Illustrator 29.8.3, SVG Export Plug-In . SVG Version: 2.1.1 Build 3)  -->
  <defs
     id="defs19">
    <style
       id="style2">
      .st0 {
        fill: #968e87;
      }

      .st1 {
        fill: #010101;
      }

      .st2 {
        fill: #0e0d0c;
      }

      .st3 {
        fill: #181716;
      }

      .st4 {
        fill: #d3ccc6;
      }

      .st5 {
        fill: #9d968e;
      }

      .st6 {
        fill: #2b2a29;
      }

      .st7 {
        fill: #d5cfc9;
      }

      .st8 {
        fill: #c9c2bc;
      }

      .st9 {
        fill: #fcfcfc;
      }

      .st10 {
        fill: #b3aca5;
      }

      .st11 {
        fill: #1c1b19;
      }

      .st12 {
        fill: #52504e;
      }

      .st13 {
        fill: #aca59e;
      }

      .st14 {
        fill: #9e978f;
      }

      .st15 {
        fill: #ebe5df;
      }

      .st16 {
        fill: #ccc5bf;
      }

      .st17 {
        fill: #e3ded8;
      }

      .st18 {
        fill: #989189;
      }

      .st19 {
        fill: #efeae4;
      }

      .st20 {
        fill: #0b0b0a;
      }

      .st21 {
        fill: #99918a;
      }

      .st22 {
        fill: #beb7b1;
      }

      .st23 {
        fill: #ccc6c0;
      }

      .st24 {
        fill: #1b1a18;
      }

      .st25 {
        fill: #9d968f;
      }

      .st26 {
        fill: #f1ece6;
      }

      .st27 {
        fill: #45413d;
      }

      .st28 {
        fill: #6e6861;
      }

      .st29 {
        fill: #99928a;
      }

      .st30 {
        fill: #bfb8b2;
      }

      .st31 {
        fill: #948c84;
      }

      .st32 {
        fill: #aba49d;
      }

      .st33 {
        fill: #cec7c1;
      }

      .st34 {
        fill: #0f0e0e;
      }

      .st35 {
        fill: #c5beb8;
      }

      .st36 {
        fill: #d7d1cb;
      }

      .st37 {
        fill: #dcd6d0;
      }

      .st38 {
        fill: #b8b0aa;
      }

      .st39 {
        fill: #84807d;
      }

      .st40 {
        fill: #e3ddd7;
      }

      .st41 {
        fill: #726c65;
      }

      .st42 {
        fill: #141312;
      }

      .st43 {
        fill: #e7e1db;
      }

      .st44 {
        fill: #d6d0ca;
      }

      .st45 {
        fill: #a59d96;
      }

      .st46 {
        fill: #cdc7c1;
      }

      .st47 {
        fill: #e2dcd6;
      }

      .st48 {
        fill: #ada69f;
      }

      .st49 {
        fill: #d3cdc7;
      }

      .st50 {
        fill: #9a938d;
      }

      .st51 {
        fill: #a09992;
      }

      .st52 {
        fill: #0a0a0a;
      }

      .st53 {
        fill: #eae5df;
      }

      .st54 {
        fill: #c7c0ba;
      }

      .st55 {
        fill: #bab3ac;
      }

      .st56 {
        fill: #aaa39d;
      }

      .st57 {
        fill: url(#linear-gradient);
      }

      .st58 {
        fill: #9e968f;
      }

      .st59 {
        fill: #22201f;
      }

      .st60 {
        fill: #b2aba4;
      }

      .st61 {
        fill: #383532;
      }
    </style>
    <linearGradient
       id="linear-gradient"
       x1="950.53998"
       y1="1515.02"
       x2="945.66998"
       y2="1773.9399"
       gradientTransform="matrix(0.72,0,0,0.72,-504.51913,-970.14918)"
       gradientUnits="userSpaceOnUse">
      <stop
         offset="0"
         stop-color="#978f87"
         id="stop4" />
      <stop
         offset=".3"
         stop-color="#999189"
         id="stop6" />
      <stop
         offset=".38"
         stop-color="#a19992"
         id="stop8" />
      <stop
         offset=".41"
         stop-color="#b8b1ab"
         id="stop10" />
      <stop
         offset=".59"
         stop-color="#c6c0ba"
         id="stop12" />
      <stop
         offset=".74"
         stop-color="#ece7e1"
         id="stop14" />
      <stop
         offset="1"
         stop-color="#efeae4"
         id="stop16" />
    </linearGradient>
  </defs>
  <path
     d="m 195.41087,309.62082 c -0.45,0.37 -0.65,1.33 -1.24,1.79 -3.71,2.9 -8,5.21 -11.91,7.84 6.31,12.04 6.21,25.49 8.48,38.47 2.27,12.98 6.7,26.3 9,39.31 2.2,12.42 4.78,22.34 -12.41,17.18 -22.1,-6.64 -39.55,-26.61 -46.39,-48.19 -4.46,-14.06 -5.6,-39.06 -18.23,-47.78 -4.02,-2.78 -14.25,-2.12 -19.65,-2.8 -16.809997,-2.13 -33.729997,-7.7 -48.979997,-14.98 -24.82,-11.84 -36.12,-25.55 -45.36,-51.27 -1.4,-3.91 -6.46,-18.04 -6.76,-21.19 -0.37,-3.83 3.54,-9.01 3.04,-11.22 -0.55,-2.47 -4.93999998,-5.8 -4.99999997907,-9.78 -0.0600000009,-3.7 2.98999997907,-5.99 3.80999997907,-9.02 2.3,-8.49 2.57,-17.16 5.96,-26.02 11.2,-29.28 45.83,-44 73.98,-51.91 7.89,-2.22 16.12,-3.08 24.039997,-5.23 4.63,-2.65 9.1,-21.369997 11.18,-26.929997 11.4,-30.62 30.96,-71.12 61.91,-85.7599999 12.67,-6 17.64,1.34 17.75,13.6599999 -6.11,27.04 -14.01,53.74 -15.7,81.61 -0.3,4.859997 0.45,10.149997 0,14.959997 -0.11,1.15 -1.28,2.52 -1.26,2.77 0.06,0.91 13.7,5.95 16.22,8.2 3.86,3.45 5.41,8.4 4.75,13.51 -0.25,1.9 -2.56,6.3 -2.36,7.26 0.2,0.96 9.18,10.87 10.87,13.6 3.35,5.42 7.7,14.07 6.36,20.55 -0.53,2.58 -4.63,6.95 -4.45,8.89 0.19,2.11 5.71,9.63 6.98,12.71 2.22,5.43 3.37,11.57 1.75,17.37 -1.75,6.25 -8.31,9.45 -7.36,16.13 1.52,10.64 8.75,16.95 1.76,28.62 -1.06,1.77 -5.69,6.29 -5.9,7.08 -0.45,1.65 1.7,6.29 1.94,8.7 0.93,9.31 -1.15,8.82 -4.22,15.5 -1.19,2.58 -1.07,5.17 -2.96,7.93 -2.38,3.49 -6.47,5.9 -9.59,8.44 z"
     id="path21" />
  <path
     class="st57"
     d="m 143.47087,118.85082 c 6.92,-0.26 22.45,-0.47 28.77,0.83 2.82,0.58 18.97,7.34 20.84,9.1 2.12,2.01 3.07,4.21 2.5,7.11 -0.12,0.64 -2.33,6.37 -2.59,6.62 -1.23,1.22 -11.89,2.58 0.69,4.39 4.34,6.65 10.11,11.37 13.66,18.66 0.96,1.96 3.23,6.99 3.34,8.93 0.08,1.36 -4.22,9.97 -4.71,10.26 -1.06,0.64 -5.66,-0.66 -6,2.47 1.32,2.49 3.88,1.85 5.63,2.55 1.45,0.58 8.3,13.87 8.98,16.2 1.1,3.76 1.42,6.41 -0.08,10.12 -0.39,0.97 -6,9.84 -6.52,10.15 -1.33,0.78 -6.8,-0.58 -8.71,1.16 1.86,2.5 4.41,3.17 7.43,3.12 -0.09,6.65 5.89,16.53 5.34,22.59 -0.38,4.19 -3.67,6.45 -5.97,9 -1.03,1.15 -1.68,3.21 -2.78,4.03 -1.24,0.93 -3.71,0.89 -4.7,2.77 1.35,1.56 3.42,0.88 4.62,2.85 1.2,1.97 2.15,8.84 1.9,11.11 -0.12,1.07 -1.92,5.61 -2.57,6 -0.76,0.45 -5.36,-1.12 -8.46,0.04 -3.54,1.33 4.93,3.74 6.54,3.48 -0.74,1.25 -0.48,2.86 -1.05,4.05 -1.54,3.19 -13.75,11.41 -17.32,12.96 l -3.6,0.09 c -2.32,1.35 -4.27,0.08 -2.52,-2.13 -0.59,-0.22 -0.59,-0.45 0,-0.68 -0.37,-0.8 -0.16,-2.29 0.68,-2.72 -0.46,-0.7 -0.17,-1.84 0.68,-2.04 5.68,-29.34 11.28,-59.02 10.88,-89.08 l 0.68,-2.11 c 0.23,-1.45 0.45,-2.81 0.68,-4.08 1.17,-1.1 1.64,-2.31 1.41,-3.63 l 1.31,-1.14 c -0.78,-2.15 2.57,-3.89 4.47,-4.52 -1.8,0.03 -3.67,-0.44 -5.61,-1.42 l -1.59,1.17 -0.83,0.49 c -0.54,-19.8 -4.65,-38.61 -9.32,-58.11 -0.1,-0.41 2.64,7.6 1.3,7.95 -0.71,0.89 -1.73,0.76 -3.05,-0.39 -1.37,0.27 -2.31,-0.09 -2.83,-1.07 -2.68,2.2 -4.61,-0.36 -5.89,-2.68 -3.04,2.58 -5.56,3.14 -9.42,1.71 -1.85,4.63 -10.64,5.91 -5.54,-0.2 -1.37,-2.09 -1.41,-3.84 -0.11,-5.23 -0.86,-2.44 -1.66,-4.75 -2.42,-6.93 -7.77,2.01 -10.01,0.99 -6.7,-3.05 -0.38,-3.17 -1.18,-6.25 -2.4,-9.23 l 0.94,-1.51 z"
     id="path23"
     style="fill:url(#linear-gradient)" />
  <path
     class="st31"
     d="m 190.42087,17.450823 c 0.16,0.66 0.39,1.34 0.68,2.04 -0.91,3.37 -1.86,6.83 -2.72,10.21 l -0.52,0.89 c -6.07,2.53 -12.02,5.18 -17.85,7.95 -0.86,1.04 -0.64,1.27 0.68,0.68 4.93,-3.76 11.65,-7.05 17.69,-8.17 -1.19,4.47 -2.89,8.85 -3.52,13.49 -5.7,1.51 -13.01,1.99 -17.57,5.91 2.44,1.23 16.29,-4.45 17.01,-3.74 -0.76,2.57 -1.12,8.9 -2.41,10.86 -0.97,1.47 -11.78,4.19 -14.6,5.47 -1.99,1.83 -0.88,1.89 1.36,1.36 3.84,-1.29 7.79,-2.63 11.57,-4.08 0.9,-0.38 1.13,0.3 0.68,2.04 -0.69,2.87 -1.11,5.8 -1.48,8.73 -6.01,1.95 -13.81,0.65 -18.26,5.91 2.56,1.78 16.72,-3.31 17.69,-2.38 l -1.45,12.15 c -5.61,1.66 -12.14,1.34 -16.92,5.2 5.48,0.87 11.06,-1.83 16.33,-3.07 v 10.55 c 0,0.23 -0.74,1.629997 -1.15,1.729997 -3.98,0.95 -10.53,-0.42 -15.86,0.66 -0.75,0.44 -1.94,1.03 -2.79,1.02 -0.09,0 1.51,-0.61 1.43,0.34 5.74,1.26 11.85,0.72 17.71,0.29 1.15,0.83 0.17,7.66 -0.7,8.55 -17.59,-2.1 -34.64,-0.9 -51.94,1.08 -2.79,0.5 -4.76,0.14 -5.9,-1.08 13.11,-35.259997 27.42,-81.039997 61.72,-101.259997 2.01,-1.1899999 8.48,-5.1199999 10.43,-3.8999999 1.78,1.12 3.37,9.2899999 0.67,10.5799999 z"
     id="path25" />
  <path
     class="st0"
     d="m 131.22087,120.21082 c 1.37,1.03 3.78,0.95 7.25,-0.24 0.38,3.58 -1.59,6.75 -5.91,9.52 l -0.72,1.76 c 3.85,0.85 5.61,2.65 5.27,5.4 4.06,3.75 6.09,9.05 -1.55,8.31 -2.21,1.99 -4.35,4.06 -6.44,6.19 -0.49,2.75 -2.62,3.8 -6.41,3.16 1.86,4.24 1.26,6.51 -3.65,6.98 l 1.29,7.56 c 4.54,2.23 6.06,3.2 6.06,9.05 2.82,1.13 5.77,2.03 8.64,1.76 1.89,-2.15 3.98,-1.3 5.86,0.4 6.31,0 7.57,-0.73 3.79,-2.2 -1.55,-7.51 6.65,-11.06 7.08,-2.03 l 1.16,2.01 c 4.38,-1.14 7.35,-0.31 8.92,2.51 0.96,-3.63 3.67,-8.12 7.83,-5.41 l 1.89,-1.25 c 4.19,1.45 4.66,-0.79 4.27,-4.59 0.86,-4.95 8.63,-1.2 9.84,2.16 1.23,0.04 1.24,1.17 0,1.36 -0.54,1.17 -1.1,1.19 -2.21,1 -1.15,0.38 -4.61,6.05 -5.39,7.49 -2.14,0.11 -4.32,0.43 -6.53,0.95 l -1.7,-0.42 c 0.24,2.91 -1.58,3.77 -4.19,3.42 -1.24,3.92 -3.61,2.7 -5.71,0.27 -1.14,3.56 -6.06,6.45 -8.97,3.61 0.26,-2.81 -1.31,-2.44 -1.36,0 0.62,0.19 0.61,0.42 0,0.68 3.17,4.17 -4.88,3.32 -7.65,1.64 -1.9,4.67 -5.48,3.08 -5.44,-1.5 -1.24,-0.19 -2.1,-1.01 -2.75,-2.03 -0.06,1.69 -0.25,2.51 -2.02,2.71 -1.5,4.83 -4.08,-2.35 -2.56,-4.9 l -4.06,0.67 c -1.54,0.25 -4.37,0.42 -5.8,-0.45 -0.75,-2.42 -1.09,-3.46 -3.08,-1.08 -2.73,-0.53 -5.37,-1.26 -7.93,-2.22 -1.66,2.71 -3.81,4.43 -6.46,5.17 -0.6,4.11 -4.049997,2.76 -5.829997,0.06 -1.77,0.55 -3.39,-0.21 -4.85,-2.28 -2.61,1.42 -4.33,0.29 -5.16,-3.38 -0.19,1.3 -0.77,2.02 -1.74,2.15 l -0.76,1.65 c -2.2,-0.13 -2.99,0.64 -4,2.43 1.65,1.09 -0.38,3.24 -2.04,3.4 0.46,3.98 -0.63,4.88 -3.28,2.69 -1.44,0.68 -2.39,0.46 -2.84,-0.65 -0.59,1.95 -1.05,1.65 -2.04,0 -0.37,0.88 -1.5,1.34 -3.4,1.36 0.94,2.12 -1.97,2.64 -2.72,0.68 -1.57,-1.74 -3.47,-2.78 -6.05,-2.72 -0.71,-1 -4.05,-4.83 -4.95,-1.66 1.91,0.44 2.13,2.12 0.66,5.04 0.24,1.29 0.06,2.21 -0.55,2.75 0.83,0.88 0.43,1.29 -0.68,0.68 l -1.27,1.5 c 2.91,5.25 -3.07,5.9 -4.65,2.11 0.45,-5.52 -4.62,-2.23 -5.98,0.58 l -1.03,-0.11 c -1.7,0.25 -3.62,-0.18 -5.76,-1.3 -2.49,0.09 -4.43,-0.38 -5.81,-1.42 -1.58,-1.08 -1.07,-2.14 0.12,-3.31 4.74,-1.99 5.15,-5.78 -0.66,-5.29 -0.95,-3.18 -2.76,-3.33 -5.95,-3.04 4.65,9.82 -8.04,6.59 -6.7,-1.31 0.5,-2.97 0.92,-3.15 3.82,-2.2 -2.07,-4.28 -1.94,-7.06 0.38,-8.34 -0.23,-1.91 -0.18,-3.84 0.13,-5.77 4.81,-10.75 13.53,-19.17 23.14,-25.86 4.26,1.53 0.72,7.14 -3.65,6.16 0.47,5.53 -3.76,8.1 -8.12,10.49 -1.22,2.48 -2.92,3.51 -5.27,4.68 0.73,4.42 2.07,8.43 4.03,12.02 -1.12,1.26 -0.27,2.1 2.54,2.5 5.22,6.09 12.82,5.08 18.49,0.17 l 1.77,-0.59 c 4.56,2.07 8.6,1.74 12.94,-0.57 2.29,0.95 4.58,1.81 6.87,2.59 3.19,-3.7 7.31,-6.66 12.35,-8.88 1.34,-5.13 3.47,-6.48 6.41,-4.03 5.17,1.92 9.44,-1.41 2.64,-2.54 -4.84,-5.05 6.29,-7.93 9.739997,-8.19 l 2.54,-4.6 c -2.59,-0.81 -3.6,-2.17 -3.04,-4.08 2.12,-4.88 3.73,-9.46 -2.869997,-10.79 -0.49,-3.1 -1.39,-4.28 -2.68,-3.54 1.55,1.94 1.55,3.64 -0.99,4.49 4.1,2.02 1.21,8.04 -2.4,8.04 -2.29,0 -14.25,-10.48 -4.87,-10.14 -3.1,-2.76 -3.58,-5.08 -1.44,-6.96 -3.55,-0.76 -4.94,-2.07 -4.15,-3.93 16.86,-5.56 31.539997,-6.89 48.999997,-8.17 z"
     id="path27" />
  <path
     class="st31"
     d="m 82.220873,128.37082 c 0.76,2.3 9.5,3.67 9.51,4.42 0.03,2.11 -4.75,-0.52 -5.43,1.37 -0.74,2.9 8.38,6.36 -1.37,6.8 0.02,0.81 6.58,6.54 7.83,7.16 1.5,0.01 3.36,-2.97 3.12,-4.36 -0.11,-0.66 -1.71,-0.34 -2.13,-2.11 -0.71,-3.01 2.78,-0.8 2.06,-2.74 -0.53,-1.44 -4.42,-2.17 -4.07,-4.43 1.24,-0.37 1.61,1.02 2.53,1.24 0.92,0.22 1.8,-0.46 2.59,-0.42 3.849997,0.19 1.65,2.22 2.5,3.81 0.52,0.97 4.429997,1.41 5.029997,2.16 0.18,0.22 0.33,5.26 0.27,5.74 -0.17,1.34 -2.09,4.55 -1.89,5.55 0.23,1.17 3.22,0.64 3.27,2.65 0.02,0.93 -2.24,5.2 -3.14,5.76 -3.049997,1.91 -11.289997,0.15 -9.809997,6.19 h 4.09 c -0.13,0.84 -0.49,5.25 -0.69,5.45 -0.25,0.25 -6.44,-0.58 -7.12,-0.7 -0.95,-0.17 -2.5,-1.76 -3.07,-1.34 -0.2,0.15 -0.76,3.63 -1.73,4.74 -2.1,2.42 -6.95,3.76 -9.53,5.44 -1.37,0.89 -2.58,3.77 -3.48,4.03 -2.17,0.63 -5.97,-2.37 -7.49,-2.5 -1.52,-0.13 -2.52,1.78 -3.99,1.89 -0.33,0.03 -5.66,-0.07 -5.96,-0.12 -0.91,-0.13 -1.78,-1.24 -2.87,-1.22 -1.48,0.02 -6.5,4.74 -9.42,4.71 -1.1,0 -6.33,-0.66 -7.29,-0.95 -1.83,-0.56 -2.85,-2.79 -4.56,-3.64 -1.26,-0.63 -4.64,-0.51 -4.93,-0.83 -1.3,-1.44 2.4,-1.49 2.03,-3.04 -0.09,-0.4 -1.51,-1.11 -1.88,-2.21 -0.37,-1.1 -0.1,-2.46 -0.45,-3.63 -0.6,-1.98 -2.34,-4.27 -1.66,-6.31 0.41,-1.23 2.64,-1.55 3.68,-2.48 0.85,-0.76 1.22,-2.23 1.98,-2.78 2.48,-1.79 2.17,-0.37 5.15,-3.73 0.53,-0.6 1.72,-0.84 1.89,-1.13 0.43,-0.75 0.34,-5.56 0.83,-5.99 0.33,-0.3 6.97,1.71 4.76,-4.76 10.51,-7.32 28.34,-13.58 40.83,-17.69 z"
     id="path29" />
  <path
     class="st31"
     d="m 176.13087,322.32082 c 0.89,2.02 2.08,3.97 2.72,6.12 -0.84,0.62 -9.89,-1.39 -11.91,-1.41 -1.58,-0.01 -3.91,0.57 -5.79,0.74 -0.47,0.45 -0.46,0.9 0,1.36 2.84,0.63 17.96,2.38 18.73,3.38 0.36,0.47 1.99,7.19 1.68,7.5 -5.09,-0.34 -10.27,-2.28 -15.32,-2.71 -0.9,-0.08 -4.21,-0.58 -4.41,0.66 6.57,2.46 13.45,3.55 20.31,4.87 l 0.77,10.79 c -6.76,-1.2 -13.37,-4.66 -20.41,-3.06 5.93,4.28 14.07,4.14 20.95,5.92 1.02,3.77 2,7.63 2.86,11.43 l -0.24,1.23 c -13.78,-3.94 -13.81,-4.01 -0.1,-0.21 l 0.34,1.03 c 0.3,1.37 2.64,7.37 2.03,8.17 -5.47,-1.18 -11.95,-3.41 -17.43,-4 -0.75,-0.08 -2.45,-0.61 -2.29,0.59 6.3,3.08 13.22,3.79 19.97,5.39 1.18,0.74 2.06,7.16 2.49,8.91 -4.94,-0.96 -10.39,-3.17 -14.97,-5.44 -0.87,0.13 -1.09,0.36 -0.68,0.68 5.2,1.19 11.45,3 15.65,6.12 0.59,2.9 2.49,6.21 2.04,9.52 -0.55,0.63 -13.96,-4.64 -16.32,-3.74 2.3,4.21 15.31,5.13 16.85,6.62 1.13,1.1 0.8,4.41 0.84,5.97 -15.21,-2.33 -32.56,-15.6 -40.27,-28.81 -10.35,-17.74 -9.17,-40.13 -17.58,-55.58 -1.5,-3.02 5.62,-1.75 5.78,0.68 0.13,-0.53 0.32,-1.21 0.8,-1.36 1.83,-0.57 18.96,-0.21 22.03,0 l 1,1.36 c 1.46,-2.08 8.28,-5.43 9.87,-2.72 z"
     id="path31" />
  <path
     class="st31"
     d="m 143.47087,118.85082 c 0.83,2.76 3.54,9.32 2.64,11.83 -0.43,1.2 -2.08,0.62 -1.96,1.77 2.49,0.55 8.2,-3.3 9.41,0.46 0.94,2.92 -0.85,4.41 3.5,6.7 -5.2,1.69 -1.33,3.1 -1.57,5.46 -0.1,0.97 -2.27,1.54 -1.81,3.05 0.16,0.17 3.8,-2.08 4.07,-2.41 0.8,-0.96 0.61,-2.27 0.7,-2.36 0.24,-0.23 4.43,1.47 6.45,1.02 1.5,-0.34 3.05,-2.82 4.67,-2.34 1.28,0.38 1.85,4.29 4.51,3.37 -0.86,-2.38 1.81,-4.2 3.76,-4.07 2.85,0.19 -2.57,3.75 -1.71,4.74 2.01,-1.16 3.13,0.3 4.76,1.36 3.09,7.14 4.94,16.03 4.76,23.82 -1.38,-0.86 -6.59,-3.56 -7.79,-3.37 -1.97,0.31 1.31,4.91 -2.74,7.5 -1.87,1.2 -1.7,-0.4 -2.74,-0.5 -0.96,-0.09 -2.05,1.6 -2.71,1.59 -0.79,-0.02 -1.69,-2.14 -4.03,-0.4 -2.6,1.93 -2.02,7.41 -5.16,6.74 1.66,-0.92 -1.51,-4.02 -1.84,-4.08 -3.13,-0.59 -6.34,3.11 -8.18,-2.55 -0.49,-1.51 0.46,-4.19 -1.84,-4.23 -3.66,-0.07 -1.8,3.14 -3.1,5.42 5.19,-0.2 3.12,2.37 0,4.44 -0.56,1.46 1.74,1.01 1.97,2.07 0.14,0.67 -0.84,2.07 -0.62,3.02 -3.62,-0.18 -1.69,-3.59 -2.09,-5 -0.56,-1.97 -2.65,-0.19 -4.19,-0.55 -1.37,-0.33 -2.2,-2.58 -4.12,-1.26 -0.46,0.32 -0.52,1.22 -0.58,1.25 -0.46,0.17 -1.44,-0.68 -2.22,-0.62 -0.68,0.05 0.18,1.76 -1.42,1.43 -0.61,-0.13 -0.06,-1.09 -0.82,-1.35 -1.11,-0.37 -5.41,-0.99 -6.2,-2.19 -0.6,-0.91 -0.09,-4.84 -1.43,-6.39 -1.23,-1.44 -3.35,-0.3 -4.69,-2.83 -0.3,-0.56 -1.57,-8.18 -1.43,-8.59 0.65,-1.86 4.1,-0.41 4.65,-2.21 0.36,-1.2 -1.73,-5.33 -1.31,-5.7 1.6,-0.27 4.94,0.55 6.16,-0.32 0.59,-0.42 0.44,-1.73 0.85,-2.19 2.17,-2.39 3.17,-3.59 5.86,-5.4 0.52,-0.35 0.62,-1.36 0.87,-1.51 0.2,-0.12 3.67,0.57 4.63,-0.12 0.29,-3.36 -2.67,-4.11 -3.58,-6.3 -0.34,-0.81 0.23,-1.91 -0.15,-2.51 -1.16,-1.81 -4.83,-0.53 -5.16,-3.09 -0.55,-4.25 8.33,-6.26 6.84,-11.22 -0.22,-0.3 -6.98,4.92 -6.12,0 3.89,-0.29 8.13,-1.21 12.25,-1.36 z"
     id="path33" />
  <path
     class="st19"
     d="m 162.52087,268.56082 1.22,-1.59 c 2.83,0.36 4.28,0.24 1.85,-2.1 -2.11,-5.8 12.3,-7.95 14.16,-2.55 2.56,-0.86 3.63,-0.98 3.18,2.16 1.5,3.57 0.52,9.34 -2.04,12.25 -0.46,-1.04 -1.31,-0.75 -2.55,0.88 -4.02,8.77 -12.64,3.26 -7.87,-4.32 -3.86,0.09 -7.86,0.7 -10.81,3.26 -4.64,-0.73 -5.49,1.46 -4.78,5.79 -0.49,1.41 -1.82,1.85 -3.99,1.31 -0.15,4.15 -6.62,14.37 -9.82,6.84 l -2.34,0.66 c -0.89,4.53 -2.69,7.13 -5.4,7.78 -0.2,0.38 2.24,7.69 2.97,7.71 3.55,-1.34 6.4,0 5.72,3.8 0.66,-0.95 1.32,-1.88 2.5,-2.71 -0.86,-2.91 2.95,-4.21 3.03,-1.07 l 1.4,0.31 c 2.1,-1.23 3.23,-0.2 3.37,3.09 0.64,-0.19 0.87,0.04 0.68,0.68 1.17,2.53 -3.32,2.73 -4.91,1.33 -3.3,0.84 -6.75,0.61 -10.06,0.02 -1.37,-1.67 -1.86,-1.59 -3.4,-1.36 -4.07,-1.91 -20.99,-1.48 -26.88,-2.04 -5.71,-0.55 -12.479997,-1.4 -18.039997,-2.72 -2.57,-0.99 -0.5,-3.79 1.31,-4.76 5.34,-1.57 8.76,-3.5 8.14,-9.4 3.459997,-1.19 5.239997,-3.74 5.339997,-7.63 2.74,-0.6 5.07,-1.74 7,-3.41 3.49,1.88 8.55,0.93 12.14,-0.68 1.53,-3.03 4.47,-4.01 8.81,-2.96 l 3.8,-1.12 c 7.17,2.11 8.46,-0.22 6.67,-7 1.1,-5.15 13.26,-6.52 13.63,0.08 1.96,0.1 3.95,-0.09 5.98,-0.55 z"
     id="path35" />
  <path
     class="st53"
     d="m 119.65087,266.51082 c 0.39,-0.93 0.92,-1.6 1.83,-1.22 3.56,2.62 5.47,3.05 5.73,1.29 3.19,-0.22 6.39,-0.77 9.6,-1.65 0.53,-2.51 5.86,-3.56 7.78,-3.3 l 2.84,1.3 c 1.13,-1.1 1.9,-1.81 3.26,-0.54 3.48,-1.2 10.59,-0.25 8.59,4.51 1.64,-0.55 2.72,-0.23 3.24,0.97 0.59,0.19 0.59,0.42 0,0.68 -2.54,0.58 -4.8,3.38 -7.29,0.48 -0.62,-0.72 -0.61,-2.16 -0.99,-2.41 -0.34,-0.22 -5.51,-0.89 -6.2,-0.69 -0.23,0.07 -3.71,2.52 -3.82,2.72 -0.25,0.43 2.67,7 -1.41,9.09 -2.29,1.18 -4.48,-0.38 -6.5,-0.38 -1.48,0 -2.53,1.04 -3.71,1.12 -1.31,0.08 -5.33,-0.37 -5.71,-0.26 -1.24,0.38 -1.79,3.27 -3.62,3.79 -0.56,0.16 -9.52,1.55 -10.03,1.52 -0.4,-0.02 -0.43,-1.36 -0.72,-1.4 -2.24,-0.37 -1.81,1.36 -2.57,1.87 -0.89,0.59 -4.14,0.51 -4.5,0.96 -0.27,0.33 -0.09,4.02 -1.4,5.56 -1.51,1.78 -6.129997,0.39 -2.77,5.54 -1.899997,0.84 -2.789997,3.14 -4.089997,4.11 -2.43,1.83 -7.68,1.19 -7.48,5.79 -11.49,-2.72 -27.64,-9.38 -38.11,-14.97 -1.45,-2.87 3.81,-5.54 6.64,-5.91 1.03,-4.18 2.95,-6.3 5.76,-6.35 1.57,-4.37 6.36,-2.51 7.91,1.04 1.93,-0.23 3.39,-0.36 4.88,1.19 1.62,-2.59 4.21,-4.81 7.76,-6.67 -0.67,-11.2 12.64,-4.6 4.73,1.2 0.74,1.34 2.75,3.98 3.79,1.99 3.36,-2.27 3.89,0.3 3.13,3.24 l 3.35,0.65 c 1.549997,-2.69 5.759997,-9.8 8.559997,-9.94 1.6,3.75 3.91,4.86 6.94,3.35 2.83,4.51 6.61,-4.9 3.7,-6.87 l 0.89,-1.4 z"
     id="path37" />
  <path
     class="st43"
     d="m 27.100873,269.92082 c -1.3,-2.81 2.07,-2.97 3.35,-0.49 -0.97,-9.31 10.17,-16.32 14.76,-6.66 1.63,-0.7 3.06,-0.81 4.56,0.13 4.91,-3.55 6.97,-3.6 8.31,2.67 0.4,0.31 5.74,1.56 6.61,0.47 5.3,-1.76 8.83,-0.78 10.59,2.96 0.64,-1.87 1.27,-3.2 3.56,-2.97 0.77,-2.74 1.69,-2.79 4.07,-1.56 l 1.52,-0.72 c 3.65,1.85 7.36,3.67 11.53,2.19 l 1.24,1.25 c 2.17,-1.54 3.249997,0.47 3.969997,2.45 1.06,-0.62 2.09,-0.98 3.32,-0.51 3.22,1.22 0.43,2.33 1.57,1.06 2.35,-2.64 4.9,-2.38 4.35,1.37 0.57,1.09 7.58,-0.22 7.36,-0.85 -2.85,-1.85 -0.82,-6.03 1.89,-4.19 -0.03,0.98 3,5.92 2.73,6.12 -0.2,0.14 -1.36,-0.27 -1.87,0.14 -0.43,0.35 -0.92,3.51 -2.22,4.28 -2.56,1.5 -2.72,-0.73 -3.06,-0.86 -1.26,-0.48 -3.12,1.21 -4.23,0.74 -0.93,-0.39 -2.85,-5.3 -4.27,-4.29 -0.06,0.04 0.08,0.77 -0.5,1.34 -2.94,2.85 -1.12,2.35 -1.67,3.25 -0.19,0.3 -1.38,0.53 -1.83,1.25 -0.59,0.94 -1.78,3.83 -2.12,4.07 -1.319997,0.94 -3.609997,-1.64 -5.529997,0.61 -1.04,1.22 0.65,1.63 0.36,3.07 -0.43,2.14 -2.92,3.31 -3.08,4.44 -0.31,2.25 3.52,5.55 -1.99,4.41 l 0.69,-1.35 c -1.46,0.27 -4.22,0.19 -4.08,-1.71 0.03,-0.4 5.91,-2.71 5.46,-5.44 -0.07,-0.44 -1.55,0.02 -1.32,-1.24 0.65,-3.52 3.04,-3 3.68,-3.82 0.15,-0.2 -0.33,-2.64 1.01,-3.44 -2.17,-0.75 -1.73,1.39 -3.04,1.43 -3.61,0.11 -3.48,-2.55 -5.79,-4.5 8.12,-3.1 0.65,-6.87 -0.63,-5.03 -0.46,0.67 0.51,3.21 -0.7,5.08 -1.05,1.63 -6.95,4.34 -7.45,5.2 -0.27,0.47 1.09,1.89 -0.44,2.58 -1.41,0.06 -2.46,-1.7 -3.55,-1.91 -0.98,-0.19 -2.09,0.73 -2.9,0.25 -0.76,-0.45 -1.11,-2.58 -2.91,-3.29 -3.48,-1.37 -2.94,1.79 -3.15,1.91 -1.14,0.62 -2.73,-0.06 -3.85,0.99 -1.12,1.05 -0.18,6.96 -5.93,6.1 l -3.89,4.12 c -10.38,-5.54 -17.76,-11.48 -24.5,-21.1 z"
     id="path39" />
  <path
     class="st47"
     d="m 23.020873,263.79082 c -0.26,-2.06 1.98,-4.81 4.12,-5.13 l 0.57,-1.21 c -4.16,-0.75 -3.45,-6.07 -0.67,-8.04 1.73,-1.23 11.37,0 13.82,0.43 2.29,1.27 4.89,2.07 6.84,0.59 6.69,-5.12 7.36,-2.58 4.7,4.19 0.1,1.51 4.49,1.67 5.64,1.23 2.93,0.43 6.77,1.41 8.45,3.97 4.44,-2.31 7.53,-1.95 9.26,1.1 0.87,-0.74 1.48,-0.66 2.4,0.15 1.33,-1.53 5.49,1.59 4.76,3.4 -2.93,-0.75 -2.44,2.43 -3.36,3.08 -0.37,0.26 -1.6,-0.47 -2.11,-0.08 -0.63,0.49 -0.55,3.24 -2.38,2.98 -1.17,-0.17 -2.02,-3.48 -3.51,-3.85 -0.48,-0.12 -5.36,0.61 -6.54,0.74 -0.73,0.08 -1.52,0.98 -2.17,0.95 -0.73,-0.04 -1.82,-1.36 -4.13,-1.18 -1,0.08 -1.74,2.58 -3.03,1.43 -0.64,-0.57 1.04,-1.83 1.1,-2.37 0.11,-1.03 -1.42,-3.03 -1.11,-4.44 -0.97,-0.87 -4.78,2.42 -5.8,2.47 -1.29,0.06 -2.56,-2.09 -4.74,0.88 -2.05,-0.89 -0.62,-2.89 -1.98,-4.05 -0.98,-0.83 -3.54,-1.48 -4.83,-1.39 -6.33,0.42 -6.77,7.97 -6.46,12.98 -2.39,0.85 -2.76,-6.29 -4.76,-2.72 -1.61,-2.3 -2.64,-3.46 -4.08,-6.12 z"
     id="path41" />
  <path
     class="st22"
     d="m 47.520873,222.96082 c 3.5,-1.13 5.49,-0.59 5.97,1.62 l 2.2,-0.59 c 1.72,-6.57 6.29,-8.15 13.7,-4.75 3.94,-3.04 6.99,-1.09 3.75,2.91 -0.45,-0.84 -0.37,-0.57 0.25,0.82 l 0.94,0.29 c -1.1,4.71 0.29,4.97 4.16,0.78 l 1.71,0.29 c 2.28,-0.33 2.49,1.31 0.63,4.93 3.75,3.73 -0.89,5.12 -4.04,5.96 l -0.84,1 c -3.43,-0.41 -6.7,-1.88 -9.81,-4.41 -1.47,0.55 -2.84,0.4 -4.11,-0.45 -0.66,3.57 -7.6,4.27 -8.03,0.23 -3.56,0.64 -7.05,0.01 -10.45,-1.88 -2.17,1.99 -4.18,2.41 -6.02,1.26 l -3.15,0.63 c -2.86,-1.53 -5.56,-2.4 -8.69,-1.56 -3.13,-2.24 -5.38,-2.33 -6.74,-0.27 2.36,0.39 1.2,2.78 -1.1,2.83 -2.18,-0.18 -4.31,0.01 -6.38,0.57 -1.04,-3.76 -2.61,-4.46 -1.36,-8.85 1.04,-1.88 2.22,-1.3 1.36,0.68 0.56,1.79 -0.87,3.01 3.59,1.86 0.77,-0.2 1.31,-0.98 1.85,-1.18 0.04,-0.86 2.99,-3.12 3.58,-3.15 0.27,-0.01 3.87,1.31 4.59,1.79 3.57,0.88 7.2,1.77 10.87,2.67 l 1.64,-0.63 c 1.4,-4.13 5.57,-3.73 8.52,-2.27 0.14,-0.72 0.66,-0.98 1.43,-1.13 z"
     id="path43" />
  <path
     class="st37"
     d="m 53.640873,242.70082 c 5.24,-0.86 12.1,2.47 11.88,8.41 2.98,1.05 5.6,2.56 7.86,4.52 1.9,-0.82 5.6,3.57 4.76,5.44 l -3.39,2.04 c -0.91,-7.1 -5.87,-1.24 -9.08,-1.99 -0.63,-0.15 -0.64,-1.39 -1.15,-1.75 -0.22,-0.16 -4.45,-1.83 -4.89,-1.97 -2.03,-0.62 -3.11,0.45 -5.24,-0.1 -6.47,-1.67 -1.49,-4.65 -1.78,-8.5 -4.85,0.64 -3.52,0.53 -3.06,4.77 l -3.05,-1.37 -0.35,2.05 c -1.98,-2.74 -4.62,-3.01 -7.78,-3.37 -1.57,-0.18 -4.14,-0.52 -5.45,-0.62 -0.49,-0.04 -4.91,0.07 -5.13,0.2 -0.58,0.36 -1.91,3.05 -1.73,3.85 0.62,2.86 3.67,0.81 2.95,3.54 -0.72,2.73 -2.31,1.96 -2.87,2.51 -0.95,0.91 -1.39,2.89 -3.11,3.42 -1.33,-2.45 -2.29,-4.95 -3.4,-7.49 -0.4,-3.65 0.7,-6.15 3.29,-7.48 -0.92,-3.73 6.09,-7.34 8.71,-5.81 0.91,2.14 2.58,4.34 4.99,2.77 2,0.66 3,0.87 5.11,0.7 0.66,1.71 1.77,2.04 3.34,0.99 2.24,1.53 4.83,-1.43 5.57,-3.73 l 1.65,-0.38 c -0.44,-1.81 0.08,-2.01 1.36,-0.68 z"
     id="path45" />
  <path
     class="st16"
     d="m 18.940873,229.77082 c -0.58,-2.59 2.06,-1.87 3.41,-0.19 2.41,0.49 4.71,1.16 6.92,2.02 1.61,-1.41 3.45,-1.77 4.43,0.35 4.77,-1.87 7.06,-1.2 6.86,2.01 0.21,0.17 4.72,2.27 4.55,1.55 -1.23,-3.24 -1.04,-4.75 2.65,-4.23 2.18,0.31 6.47,1.09 8.19,2.79 0.62,2.04 1.67,3.78 3.14,5.23 1.38,3.4 -2.82,3.65 -5.44,3.4 -0.38,0.26 -1.18,0.46 -1.36,0.68 -1.14,1.83 -2.64,1.26 -4.18,0.22 -2.03,-3.17 -7.93,-6.4 -9.22,-1.26 -2.65,2.88 -7.17,-3.44 -4.88,-5.47 1.89,-1.67 1.71,0.37 -0.72,1.22 -1.23,3.11 -4.01,5.29 -8.35,6.54 -1.58,3.27 -7.45,3.73 -9.4,0.79 -1.47,-4.12 -2.91,-8.01 -4.08,-12.25 1.11,-3.45 6.35,-1.29 7.4,-2.16 0.32,-0.26 -0.01,-1.12 0.09,-1.25 z"
     id="path47" />
  <path
     class="st18"
     d="m 18.250873,171.93082 c 0.44,0.89 1.57,6.51 1.36,6.79 -0.18,0.25 -2.75,0.35 -2.74,1.06 1.32,2.74 2.71,4.48 2.06,7.8 -0.94,0.27 -3.64,-1.09 -4.08,-0.68 -1.74,1.63 1.68,7.21 4.43,7.48 2.89,0.28 -0.4,-4.73 -0.33,-5.05 0.45,-2.13 6.18,-1.04 7.07,-0.38 1.32,0.97 0.95,2.52 1.13,2.68 0.38,0.35 4.14,-1.61 4.74,1.76 1.06,5.99 -4.25,3.02 -4.78,7.79 0.34,1.89 -3.88,4.49 -5.44,3.4 l -1.48,0.58 c -2.87,-2.95 -6.15,-2.44 -8.88,0.28 -2.06,0.47 -2.72,-0.34 -1.89,-2.22 4.05,-9.75 3.93,-20.3 8.85,-31.3 z"
     id="path49" />
  <path
     class="st49"
     d="m 15.530873,245.42082 c 1.94,0.21 4.78,0.78 6.65,0.24 1.14,-0.33 7.58,-4.72 8.69,-5.65 3.37,-2.85 -1.89,-2.81 -1.72,-5.47 1.41,0.64 3.59,-0.52 4.42,0.68 0.39,0.56 -1.94,2.15 2.37,0.69 l -1.4,3.08 c 4.23,5.76 2.5,2 4.42,0.28 1.92,-1.72 5.58,-0.67 7.57,0.68 1.93,1.31 1.41,3.41 5.75,3.44 -0.48,0.59 -0.5,2.01 -1.05,2.68 -1.31,1.57 -1.36,0.38 -2.8,2.75 -1.53,2.52 -1.82,0.03 -3.3,0 -1.14,-0.03 -1.71,1.7 -3.05,1.38 l -1.04,-2.72 c -1.45,-0.58 -0.63,1.97 -2.02,1.35 -0.6,-0.26 -1.16,-1.5 -1.71,-1.75 -0.67,-0.29 -1.23,0.81 -1.7,0.77 -4.57,-0.39 -4.72,-4.31 -5.42,-4.39 -0.27,-0.03 -4.93,1.44 -5.14,1.6 -1.14,0.87 -0.36,3.15 -0.99,4.47 -0.43,0.9 -1.99,1.06 -2.44,1.8 -0.91,1.52 0.06,4.14 -1.99,4.98 -1.73,-3.95 -2.68,-6.98 -4.08,-10.89 z"
     id="path51" />
  <path
     class="st41"
     d="m 176.13087,322.32082 c -3.03,-0.28 -7.12,2.72 -9.87,2.72 h -23.82 c -1,0 -3.98,-1.27 -5.48,-1.11 l -0.31,0.43 c -0.33,-0.6 -4.44,-5.17 -4.08,-5.44 13.89,2.1 28.35,2.13 42.16,-0.68 0.46,1.27 0.87,2.88 1.39,4.07 z"
     id="path53" />
  <path
     class="st25"
     d="m 9.410873,203.23082 c 1.21,2.69 1.62,0.07 3.24,-0.56 4.54,-1.77 5.32,-0.86 9.01,1.92 l 0.54,1.55 c -2.15,3.33 -2.56,7.66 -1.08,11.33 l -0.82,1.42 c 0.47,4.28 -3.83,2.23 -3.73,-1.6 0.41,0.84 0.29,1.37 -0.35,1.6 -0.86,-2.56 -9,-10.92 -8.71,-12.47 0.12,-0.64 1.45,-2.1 1.9,-3.18 z"
     id="path55" />
  <path
     class="st41"
     d="m 175.45087,112.04082 c -1.89,1.94 -9.82,0.04 -12.56,-0.03 -15.41,-0.39 -30.67,0.66 -45.96,2.07 -0.45,-1.15 0.51,-1.58 0.68,-2.04 9,2.22 18.57,-1.45 27.57,-2.03 9.83,-0.64 20.71,-0.21 30.27,2.03 z"
     id="path57" />
  <path
     class="st17"
     d="m 152.99087,310.75082 c 1,-4.7 3.66,-3.34 5.37,0.1 3.64,-2.86 5.7,-3.12 6.2,-0.78 1.97,1.33 0.32,2.07 -1.36,2.72 -9.5,0.8 -20.09,1.93 -28.58,-2.04 0.86,-2.28 2.33,-0.33 4.08,-0.67 l -0.68,2.03 c 4.29,0.47 7.41,-0.18 11.21,-2.04 1.28,0.51 0.26,1.99 0.35,2.04 1.4,0.74 2.73,-1.07 3.4,-1.35 z"
     id="path59" />
  <path
     class="st17"
     d="m 174.77087,307.34082 h 1.36 l 1.02,2.03 c 1.41,-2.1 3.11,-0.2 5.1,0.01 -3.83,1.65 -5.79,1.44 -9.53,2.04 -3.55,0.6 -5.36,-0.31 -5.44,-2.72 -3.66,-5.16 5.42,-4.63 7.49,-1.36 z"
     id="path61" />
  <path
     class="st2"
     d="m 186.34087,367.91082 c 0.35,1.51 -0.02,1.93 0,2.04 -6.87,-2.04 -15.95,-3.07 -21.1,-8.16 6.35,0.97 12.25,3.7 18.21,5.94 0.76,0.28 2.43,1.38 2.88,0.17 z"
     id="path63" />
  <path
     class="st56"
     d="m 20.300873,218.88082 c 1.85,-0.27 6.34,3.53 5.44,5.44 -0.13,0.61 -0.36,0.58 -0.68,0 -1.82,0.08 -4.45,1.83 -4.09,-0.68 h -0.66 c 0.3,1.73 -1.86,1.45 -3.41,2.04 0.92,-2.48 -0.42,-4.54 -0.68,-6.8 -0.08,-0.66 0.04,-1.37 0,-2.04 2.31,1.46 0.99,4.89 4.08,2.04 z"
     id="path65" />
  <path
     class="st42"
     d="m 190.42087,17.450823 c 2.47,1.21 0.88,1.3 0.68,2.04 -1.06,-1.37 -4.16,0.49 -5.42,1.04 -4.67,2.04 -8.75,5.41 -13.63,6.43 l 6.11,-4.43 c 3.5,-2.61 8.73,-3.41 12.26,-5.09 z"
     id="path67" />
  <path
     class="st11"
     d="m 188.38087,31.060823 c -6.16,2.16 -11.8,5.45 -17.69,8.17 -0.96,0.9 -1.31,0.52 -0.68,-0.68 5.27,-3.98 12.33,-6.27 18.37,-8.85 -0.1,0.39 0.1,0.97 0,1.36 z"
     id="path69" />
  <path
     class="st3"
     d="m 191.10087,389.00082 c 0.24,0.96 -0.01,1.29 0,1.36 -5.04,-2.38 -10.68,-3.64 -15.65,-6.12 -0.9,-0.88 -0.53,-1.04 0.68,-0.68 5.45,1.23 9.87,3.33 14.97,5.44 z"
     id="path71" />
  <path
     class="st36"
     d="m 172.73087,311.43082 c -3.14,0.5 -6.17,1.08 -9.53,1.36 l 1.36,-2.72 c -0.74,-1.76 1.52,-2.73 2.72,-1.36 0.4,-0.18 1.2,-0.86 1.35,-0.68 0.03,3.49 1.59,2.87 4.09,3.41 z"
     id="path73" />
  <path
     class="st20"
     d="m 167.28087,63.050823 -0.68,1.35 h 2.04 c -1.73,0.59 -3.34,1.72 -5.44,1.36 0.74,-1.66 2.65,-2.07 4.08,-2.72 z"
     id="path75" />
  <path
     class="st50"
     d="m 11.450873,225.00082 c -0.24,-0.77 -0.66,-0.75 -1.36,-0.68 0.2,-0.71 1.38,-3.95 2.03,-3.4 0.44,1.65 1.05,2.95 -0.67,4.08 z"
     id="path77" />
  <path
     class="st59"
     d="m 161.16087,327.76082 v 1.36 c -1.04,-0.23 -2.41,0.17 -2.72,-1.35 0.9,-0.07 1.83,0.07 2.72,0 z"
     id="path79" />
  <path
     class="st24"
     d="m 159.80087,101.84082 -1.36,1.36 c -0.58,-0.13 -1.39,0.09 -2.04,0 -0.11,-1.21 2.21,-1.11 3.4,-1.35 z"
     id="path81" />
  <path
     class="st20"
     d="m 180.21087,60.330823 c 0.15,-0.06 0.11,-1.05 1.36,-0.68 0.54,1.24 -0.53,2.13 -0.68,2.72 z"
     id="path83" />
  <path
     class="st34"
     d="m 180.89087,147.43082 c -1.24,-5.34 -4.18,-13.09 -4.72,-18.09 -0.15,-1.35 0.14,-0.99 1.31,-0.97 5.98,20.95 11.36,43.06 11.56,65 0.01,1.15 -0.43,3.03 0.69,3.73 1.73,0.77 1.73,1.26 0,2.04 -0.26,3.87 -0.48,7.73 -0.68,11.57 -0.06,29.53 -2.98,62.93 -11.57,91.19 -0.55,0.48 -0.78,0.02 -0.68,-1.36 -0.65,-7.72 0.72,-16.84 4.08,-23.82 0.71,-4.15 1.49,-8.03 2.04,-12.25 -1.31,-2.17 -0.82,-7.49 1.36,-9.53 -0.65,-2.78 -0.43,-4.37 0.68,-4.76 -0.47,-0.16 -0.83,-0.32 -0.84,-0.5 -0.04,-0.85 0.44,-4.17 1.52,-3.58 -0.91,-1.84 -1.73,-4.71 0.68,-5.44 l 0.37,-3.21 c -1.41,-0.85 -1.83,-6.52 0.31,-7 l -1.26,-1.7 c 0.52,-4.3 0.77,-8.6 0.73,-12.92 l 1.21,-1.71 -0.52,-3.71 c -1.06,-2.08 -1.83,-7.31 0.52,-8.54 -2.02,-2.79 -1.95,-7.34 0,-10.21 -0.61,-0.13 -0.58,-0.36 0,-0.68 -2.26,-1.97 -2.08,-5.67 -0.68,-8.17 -2.27,-2.46 -3.02,-7.27 -1.36,-10.21 -0.06,-0.44 0.06,-0.93 0,-1.36 -1.2,-8.07 -2.93,-15.89 -4.76,-23.82 z"
     id="path85" />
  <path
     class="st13"
     d="m 189.74087,197.10082 c 0.05,-1.58 -0.04,-3.18 0,-4.76 2.12,-0.45 1.64,1.97 2.15,2.59 0.1,0.13 0.88,-0.31 1.24,-0.11 1.64,0.91 1.4,2.42 3.77,0.23 2.08,3.86 1.53,-0.51 1.72,-0.63 0.38,-0.24 1.85,0.03 2.71,-0.35 1.24,-0.56 1.96,-1.81 3.38,-1.73 l 0.68,7.48 c -3.34,-2.73 -5.67,-0.03 -8.83,1.36 l 1.35,-2.38 c -1.58,-0.87 -3.97,2.37 -5.44,3.07 -0.12,2.43 -2.52,2.38 -2.72,0 -0.3,-0.87 -0.3,-1.78 0,-2.72 0,-0.68 -0.02,-1.36 0,-2.04 z"
     id="path87" />
  <path
     class="st38"
     d="m 192.46087,201.87082 c 0.07,3.04 0.82,4.47 -2.72,4.76 -0.63,-1.52 -0.58,-3.23 0,-4.76 1.12,0.43 1.62,0.52 2.72,0 z"
     id="path89" />
  <path
     class="st51"
     d="m 189.74087,201.87082 c 0,1.59 0.02,3.18 0,4.76 -0.02,1.28 0.46,3.34 -0.68,4.08 0,-3.69 -0.58,-8.29 0.68,-11.57 -0.01,0.91 0,1.81 0,2.72 z"
     id="path91" />
  <path
     class="st12"
     d="m 176.81087,303.94082 c -0.26,0.89 -0.37,1.86 -0.68,2.72 -0.88,0.9 -1.04,0.53 -0.68,-0.68 -1.8,-1.02 -1.28,-2.23 0.68,-2.72 0.61,-0.86 0.83,-0.64 0.68,0.68 z"
     id="path93" />
  <path
     class="st6"
     d="m 177.49087,301.90082 c -0.21,0.69 -0.48,1.37 -0.68,2.04 l -0.68,-0.68 c -1.8,-0.99 -1.27,-2.23 0.68,-2.72 z"
     id="path95" />
  <path
     class="st39"
     d="m 176.13087,306.66082 c -0.07,0.2 0.08,0.49 0,0.68 -0.1,0.25 -0.79,1.38 -1.02,1.37 -0.56,0.03 -0.4,-0.98 -0.34,-1.37 -1.47,-1.21 -1.16,-1.83 0.68,-1.36 z"
     id="path97" />
  <path
     class="st27"
     d="m 170.69087,39.230823 c -0.78,0.36 -1.37,1.8 -2.72,1.35 0.22,-1.02 1.3,-1.48 2.04,-2.03 z"
     id="path99" />
  <path
     class="st58"
     d="m 71.330873,202.55082 c -0.9,-4.41 1.36,-4.09 4.63,-2.43 l 2.55,-0.06 c -0.15,2.64 6.75,-0.34 6.68,-1.77 -2.88,-3.38 1.1,-4.81 3.98,-3.91 4.41,-7.24 7.22,-8.13 8.43,-2.68 1.72,-0.08 3.019997,0.64 3.639997,2.31 1.9,-0.43 2.75,0.68 3.5,2.27 l 1.57,-1.83 c -3.86,-0.58 -4,-3.98 0.04,-4.04 0.75,-4.09 4.28,-8.38 7.85,-4.25 1.84,-0.53 3.45,0.24 4.82,2.3 0.77,-1.88 2.44,-1.7 4.15,-1.5 0.56,-1.16 1.15,-1.43 1.78,-0.79 l 4.22,-0.65 c 1.9,1.13 1.67,1.61 0,3.07 1.78,0.53 1.5,1.27 1.37,3.06 0.86,-0.17 2.08,-3.74 1.9,-3.98 -0.12,-0.17 -0.89,-0.07 -1.05,-0.25 -0.23,-0.28 0.5,-3.3 2.84,-1.17 1.39,1.26 1.1,2.74 4.46,2.01 -0.92,2.22 -1.57,3.88 1.03,4.75 l 1.02,-3.4 c 0.65,-0.58 8.78,4.28 8.84,0 3.09,0.25 7.7,0.85 10.34,3.09 l 2.78,-0.39 c 1.91,-1.05 5.06,-0.55 6.62,0.71 0.65,-0.55 1.33,-1.01 2.04,-1.36 -1.33,-4.31 5.67,-3.55 3.4,0 2.15,0.66 1.44,5.57 -0.66,5.81 -2.57,-0.89 -5.3,-1.92 -8.18,-3.09 -0.37,1.21 -1.18,1.28 -2.22,1.13 0.09,2.98 -4.83,3.75 -6.57,2.27 -0.45,-3.27 -5.77,-3.16 -6.86,-0.57 l -3.14,1.52 c -0.64,3.54 -9.29,1.76 -8.93,-1.7 -1.94,-1.01 -3.61,-2.68 -5.02,-4.99 0.17,2.79 -4.58,6.82 -6.92,8.21 -2.49,1.47 -4.9,2.68 -4.77,-1.41 2.44,-3.32 -1.5,-4.09 -4.57,-4.37 1.22,0.55 -2.04,2.71 -3.15,0.82 -0.8,3.03 -1.95,5.19 -4.92,6.22 2.98,5.2 -5.2,7.14 -6.83,2.79 l -1.31,-1.04 -8.659997,1.23 c -1.4,-0.89 -2.46,-1.4 -3.19,-1.54 -2.12,2.55 -4.32,4.02 -6.84,1.6 -0.78,1.63 -1.98,2.11 -3.76,2.44 l -1.25,0.4 c 0.76,2.4 -3.5,5.24 -4.97,2.64 -1.62,0.27 -2,-5.06 -1.87,-6.41 l 1.19,-1.07 z"
     id="path101" />
  <path
     class="st21"
     d="m 84.260873,184.18082 c 0.21,-1.36 -0.29,-4.16 2.32,-3.35 1.91,0.59 1.09,7.49 4.15,1.99 0.45,0.83 3.79,4.07 4.08,4.07 0.47,0 1.67,-2.56 3.06,-2.03 -0.94,2.46 -0.65,2.94 1.72,4.07 2.099997,0.33 -0.09,-1.22 0.599997,-2.05 0.69,-0.83 2.38,-0.43 3.15,-1 0.19,-0.14 1.71,-1.9 3.08,-3.02 1.07,-0.88 0.56,-2.71 2.67,-2.09 0.31,0.09 0.24,1.21 0.83,1.35 0.91,0.22 2.07,-0.09 3.12,0.16 0.95,0.23 2.09,1.3 2.83,1.26 0.54,-0.03 1.05,-4.55 4.24,0.21 0.4,0.6 0.13,1.67 0.23,1.79 0.17,0.21 2.05,-1.45 3.03,-1.4 0.35,0.02 0.3,1.28 0.81,1.4 1.95,0.48 3.31,-1.01 4.99,0 -1.15,1.6 -3.2,0.72 -4.28,1.33 -0.42,0.24 -0.4,1.26 -0.95,1.38 -2.19,0.48 -4.19,-1.3 -3.62,2.05 -2.22,0.41 -3.12,-2.6 -4.77,-3.07 -0.91,-0.26 -1.4,0.98 -1.69,0.98 -0.59,0 -1.45,-2.62 -2.03,-2.63 -0.16,0 -2.81,1.35 -2.92,1.48 -1,1.18 -0.1,5.84 -4.25,4.61 -0.64,2.15 3.06,0.62 4.09,2.05 l -4.09,4.75 c -0.9,0.49 -1.41,-2.66 -2.03,-3.11 -0.51,-0.37 -1.61,0.3 -2.07,0.02 -0.56,-0.35 -0.689997,-1.58 -1.369997,-2.01 -0.79,-0.5 -2.05,-0.14 -2.55,-0.47 -0.84,-0.56 -0.23,-4.89 -2.79,-3.21 -0.17,0.11 -0.37,1.63 -0.83,2.21 -0.81,1.03 -1.9,1.86 -2.49,2.98 -0.59,1.12 -0.84,5.39 -2.87,3.59 -0.89,-0.8 2.51,-2.29 0.35,-3.38 -0.49,0.73 -2.27,0.55 -2.39,0.66 -1.44,1.33 1.86,1.06 1.35,2.36 -0.09,0.23 -1.81,2.5 -2.08,2.73 -0.79,0.66 -4.6,1.43 -5.24,1.88 -0.26,0.18 -0.2,0.82 -0.16,1.18 -1.36,0.2 -1.91,-3.22 -2.05,-3.39 -0.07,-0.08 -1.06,0.56 -1.58,0.44 -1.99,-0.45 -3.73,-2.08 -4.52,1.59 -2.01,0.19 -4.04,-4.65 -2.72,-6.12 -1.8,-0.96 -1.33,-2.61 0.68,-2.72 0.67,-0.06 1.37,0.03 2.04,0 l 1.37,0.53 c 0.98,3.99 5.44,0.55 4.75,-2.58 0.58,-2.14 1.99,-3.2 2.04,-3.4 2.2,-1.03 3.31,-2.16 3.32,-3.39 l 1.45,-0.7 z"
     id="path103" />
  <path
     class="st29"
     d="m 185.66087,172.61082 c 0.48,3.41 1.06,6.75 1.36,10.21 -0.55,3.38 -1.79,4.87 -3.74,4.47 0.14,2.94 -0.72,3.42 -3.5,2.89 -0.95,1.57 -3.19,4.22 -5.01,1.48 -0.18,-0.77 -1.17,-1.46 -1.7,-2.04 -0.55,0.69 -0.75,1.6 -1.7,2.04 -0.22,0.59 -0.9,1.04 -2.04,1.36 -0.19,0.19 -5.18,1.55 -4.09,-0.68 h -0.66 c 1.19,1.25 -4.47,1.8 -4.85,1.71 -0.97,-0.21 -1.94,-1.57 -2.87,-1.91 -1.26,-0.47 -2.12,0.16 -2.74,-0.02 -1.1,-0.3 -2.81,-2.46 -4.52,-2.52 0,-0.23 0.06,-0.56 0,-0.68 0.21,-1.84 0.6,-1.65 1.36,0 2.4,0.47 3.48,-1.07 6.12,-0.69 l -0.67,-2.03 c 1.69,1.42 2.06,-1.08 2.73,-2.72 1.17,-0.81 3.02,2.56 3.74,2.72 1.99,0.43 0.95,-1.91 1.06,-1.98 2.85,-1.85 5.78,2.31 4.04,-5.5 1.68,-0.67 2.72,1.89 3.17,2.01 0.18,0.05 3.49,-0.54 3.63,-0.66 0.08,-0.07 -1.76,-1.84 0.66,-1.35 l 2.05,2.03 c -0.86,-2.9 1.16,-2.58 1.95,-3.81 1.71,-2.68 1.64,-5.79 6.22,-4.36 z"
     id="path105" />
  <path
     class="st1"
     d="m 38.670873,203.91082 c 0.94,-0.67 1.62,0.01 2.04,2.04 1.68,-0.39 1.7,0.06 0.68,1.36 2.07,0.57 2.3,2.62 0.68,6.12 2.18,2.33 -0.58,7.61 -3.4,8.17 -1.31,4.54 -9.31,4.36 -12.93,2.72 -1.74,-1.66 -4.27,-3.29 -5.44,-5.44 -2.32,-4.27 -1.73,-10.53 1.36,-14.29 0.65,-0.79 4.56,-3.24 5.44,-3.4 4.04,-0.76 8.4,0.11 11.57,2.72 z"
     id="path107" />
  <path
     class="st1"
     d="m 68.610873,196.42082 c 0.59,0.63 2.5,5.15 2.72,6.12 0.34,1.46 0.7,5.86 0.68,7.49 2.45,1.3 0.72,5.32 -1.36,6.12 2.04,3.99 -7.41,3.27 -7.49,0 -3.15,-0.12 -4.05,-3.26 -2.04,-5.44 -0.41,-1.78 -0.04,-1.84 1.36,-0.68 l 1.16,-1.17 c 2.81,1.92 1.21,-7.09 -1.11,-4.17 l -1.41,-0.78 c -0.99,1.63 -3.15,-1.25 -3.38,-2.35 -0.42,-2.02 1.75,-3.37 3.38,-3.77 -0.92,-0.99 -0.51,-1.38 0.68,-0.68 -1.03,-1.68 -0.36,-2.21 1.36,-1.36 0.27,-0.2 2.05,0.04 2.72,-0.68 1.11,-1.13 3.28,-0.47 2.72,1.36 z"
     id="path109" />
  <path
     class="st18"
     d="m 38.670873,203.91082 c 0.83,-1.28 3.68,-4.56 5.09,-4.51 2.65,0.08 2.1,2.89 2.54,3.66 0.58,1.01 4.79,3.48 3.78,-0.02 -0.45,-1.55 -2.2,-1.43 0.84,-3.49 0.3,-0.2 0.64,0.3 0.68,0.28 0.33,0.9 0.51,2.13 0.53,3.71 4.85,-1.32 6.61,2.18 2.87,4.45 -1.33,1.59 -3.05,0.54 -2.72,-1.36 -1.15,1.94 -4.64,0.77 -6.12,0 -0.95,0.95 -1.34,0.56 -0.68,-0.68 -1.54,0.25 -1.65,-0.71 -1.78,-1.97 -0.77,-0.14 -1.77,0.52 -2.98,1.97 -1.12,-0.22 -1.5,-1.6 -2.04,-2.04 z"
     id="path111" />
  <path
     class="st18"
     d="m 52.280873,199.15082 c -0.69,-1.72 0.79,-4.66 0.7,-5.73 -0.06,-0.72 -2.68,-0.52 -2.02,-2.73 0.23,-0.77 3.81,-2.49 4.38,-3.79 0.56,6.01 2.24,4.46 6.81,6.1 1.88,0.67 0.85,1.14 1.01,2.74 -0.21,0.15 -0.88,0.94 -1.36,1.36 -0.58,0.41 -1.18,0.48 -1.7,-0.02 -0.53,-2.44 -1.56,-3.11 -3.07,-2.02 -0.13,0.61 -0.36,0.59 -0.68,0 -1.07,-0.52 -1.98,0.39 -2.72,2.72 1.25,0.41 1.26,0.94 0,1.36 -0.49,1.18 -1.13,1.3 -1.36,0 z"
     id="path113" />
  <path
     class="st18"
     d="m 77.460873,191.66082 0.69,4.76 c -0.43,0.44 -3.39,-1.06 -2.72,1.36 h 3.4 c -0.39,4.41 -7.85,-0.69 -7.48,-4.08 0.89,-0.04 1.97,-0.81 3.03,-0.68 1.33,0.15 1.71,1.6 3.09,1.36 -1.13,-1.63 -0.22,-1.92 0,-2.72 z"
     id="path115" />
  <path
     class="st21"
     d="m 53.640873,199.15082 c 0.74,0.33 1.14,1.04 1.2,2.12 4.15,-1.22 7.56,6.23 4,8.27 -1.23,0.71 -4.03,0.33 -3.84,-1.54 l 0.68,-4.08 c -3.84,0.86 -5.41,-0.06 -4.08,-4.09 0.25,-0.1 0.48,-0.62 0.68,-0.68 0.35,-0.11 0.94,0.07 1.36,0 z"
     id="path117" />
  <path
     class="st18"
     d="m 84.260873,184.18082 c -0.12,0.77 -0.3,3.84 -0.69,4.09 -0.33,0.21 -1.28,-0.53 -1.72,-0.61 -0.27,-0.05 -0.29,2.47 -2.36,0.61 0.08,-0.31 -1.33,-1.2 0.3,-2.75 1.52,-1.45 2.88,-0.54 4.46,-1.33 z"
     id="path119" />
  <path
     class="st31"
     d="m 126.98087,142.81082 c 1.14,1.92 -0.38,3.19 -2.3,3.24 -5.32,0.14 -0.01,-7.13 2.3,-3.24 z"
     id="path121" />
  <path
     class="st31"
     d="m 149.59087,188.94082 c -0.09,-0.18 -1.58,-0.54 -1.36,-1.65 0.48,-2.39 7.62,-2.48 2.72,1.65 -0.41,-0.08 -0.93,0.05 -1.36,0 z"
     id="path123" />
  <path
     class="st18"
     d="m 69.290873,193.70082 -0.68,2.72 c -0.45,-0.48 -2.06,-0.87 -2.72,-1.36 0.11,-0.12 -0.39,-1.16 0.45,-1.39 0.76,-0.21 2.03,0.11 2.96,0.03 z"
     id="path125" />
  <polygon
     class="st18"
     points="60.66,207.61 60.67,206.26 64.07,206.26 64.06,208.3 "
     id="polygon127"
     transform="translate(-27.439127,-7.7891769)" />
  <path
     class="st31"
     d="m 96.510873,176.69082 c 0.23,0.25 0.43,2.55 -1.01,2.03 -2.1,-0.75 0.35,-2.74 1.01,-2.03 z"
     id="path129" />
  <path
     class="st58"
     d="m 146.18087,188.26082 -0.33,2.03 c -0.72,-0.62 -1.24,-1.03 -1.02,-2.03 z"
     id="path131" />
  <path
     class="st61"
     d="m 176.13087,383.56082 -0.68,0.68 c -0.93,-0.46 -2.26,-0.47 -2.04,-1.35 1.2,-0.56 2.16,0.55 2.72,0.67 z"
     id="path133" />
  <path
     class="st26"
     d="m 147.55087,306.66082 c -0.66,0.05 -1.92,-0.83 -2.04,-0.68 1.13,4.8 0.53,2.48 -1.12,3.62 -1.24,0.86 -2.53,3.59 -4.33,0.47 l 2.04,-0.68 c -1.4,0.27 -1.86,-1.74 -2.18,-1.93 -1.11,-0.65 -3.62,1.79 -5.36,-0.41 -1.13,-1.44 -1.72,-6.94 -1.99,-7.2 -0.43,-0.42 -2.52,0.57 -3.12,0.48 -0.64,-0.1 -0.8,-1.39 -1.45,-1.89 -0.73,-0.56 -4.5,-0.9 -1.28,-3.41 3.53,-2.74 5.8,2.59 6.85,2.61 3.15,0.06 1.91,-6.12 4.63,-7.81 0.36,-0.23 3.71,-1 3.87,-0.88 0.5,0.36 -0.12,4.37 3.44,2.4 1.06,-0.59 1.15,-2.06 1.78,-3.01 0.32,-0.48 1.26,-0.61 1.42,-0.91 1.23,-2.23 -0.72,-6.84 4.94,-4.59 -0.27,-2.49 -0.96,-4.48 0.91,-6.59 1.8,-2.03 3.25,-0.58 4.72,-1 0.87,-0.25 1.44,-1.49 2.38,-1.76 2.72,-0.79 11.31,-3.42 11.74,0.5 -3.95,-0.49 -4.17,6.41 -0.31,6.84 2.42,0.27 2.68,-3.02 4.83,-4.69 1.37,-1.06 3.76,-2.51 2.96,0.58 -1.36,7.9 -2.5,15.97 -4.08,23.82 -0.15,0.75 -0.47,1.69 -0.68,2.72 -0.16,0.78 -0.47,1.64 -0.68,2.72 -0.04,0.22 -0.58,0.7 -0.68,1.36 -3.46,0.79 -6.92,-4.34 -7.49,1.36 -0.74,0.34 -2.15,1.29 -2.72,1.36 -0.91,0.12 -2.42,-0.7 -2.63,-0.58 -0.13,0.07 -0.27,1.26 -1.22,1.81 -4.66,2.74 -2.96,-1.77 -6.35,-2.59 1.38,3.37 0.07,1.44 -1.37,2.04 -0.25,-0.19 -0.43,-0.49 -0.68,-0.68 -0.05,-2.78 -1.63,-3.91 -4.76,-3.4 z"
     id="path135" />
  <path
     class="st15"
     d="m 184.30087,254.95082 c 0.26,3.24 -0.97,6.55 -1.36,9.53 0.43,-2.74 -2.39,-0.53 -3.63,-0.66 -0.37,-0.04 -1.45,-2.12 -2,-2.44 -2.65,-1.54 -9.41,-0.89 -10.7,2.09 -0.56,1.28 1.27,0.84 1.38,1.46 0.25,1.28 -0.36,3.39 0.65,5 -2.26,-1.57 -3.36,-1.99 -6.12,-1.36 v -0.68 c -2.4,-3.74 -1.13,-12.12 4.38,-11.66 l 0.65,-1.06 c 2.04,0.14 3.39,-0.69 3.86,-2.28 2.57,-0.62 5.32,-0.86 8.24,-0.73 4.07,-1.47 5.62,-0.54 4.65,2.8 z"
     id="path137" />
  <path
     class="st17"
     d="m 147.55087,306.66082 c 1.79,-0.14 3.37,-1.86 5.44,-1.36 l -0.68,4.76 c -1.72,-1.34 -1.11,-2.38 -1.39,-2.71 -0.12,-0.14 -2.61,1.31 -3.37,-0.69 z"
     id="path139" />
  <path
     class="st40"
     d="m 98.550873,265.83082 2.099997,-1.16 c 2.2,-3.05 4.14,-4.26 8.12,-3.92 1.92,-3.04 4.56,-4.81 6.36,0.24 l 2.42,1.22 c 3.34,-2.89 6.42,-3.87 9.22,-2.95 2.06,-1.95 3.59,-2.27 4.59,-0.95 3.01,-3.16 6.14,-4.02 6.14,1.5 0.84,-1.8 2.1,-2.47 4.09,-2.1 1.41,-2.26 6.8,-2.79 8.99,-1.79 4.38,4.37 7.35,4.69 8.89,0.94 l 1.93,-0.86 c -3.17,-3.24 2.5,-8.08 3.83,-3.52 l 3.46,0.79 c 1.61,-3.21 4.85,-4.94 9.74,-5.19 -1.56,-7.15 7.6,-2.97 6.56,2.1 -0.22,1.54 0.58,3.45 -0.68,4.76 -0.07,-0.9 -0.66,-1.8 -0.69,-2.73 -1.67,2.12 -10.97,1.18 -11.45,1.52 -0.24,0.17 -0.28,1.21 -0.81,1.52 -0.82,0.49 -1.91,0.17 -2.53,0.55 -1.16,0.71 -0.3,2.67 -4.26,1.18 1.67,2.97 -0.96,1.74 -1.69,3.35 -0.44,0.96 0.82,5.92 -0.35,7.53 l -5.44,0.68 c -0.61,-0.55 2.23,-3.23 1.36,-4.07 -0.12,-0.12 -1.07,0.21 -1.46,-0.07 -0.59,-0.41 -0.64,-1.19 -1.01,-1.26 -1.36,-0.24 -6.91,1.5 -6.38,-0.72 -2.2,4 -4,0.2 -7.18,0.05 -0.29,-0.01 -0.16,1.05 -0.77,1.28 -0.78,0.29 -2.17,-0.25 -2.98,0.32 -0.73,0.51 -0.42,1.99 -0.7,2.37 -0.07,0.1 -1.38,-0.39 -2.37,-0.08 -3.01,0.93 -4.24,2.08 -7.76,0.82 l 0.68,2.03 c -3.66,1.45 -5.52,-3.26 -8.85,-2.72 -0.47,0.08 -1.89,1.31 -2.04,1.71 -0.46,1.27 1.32,0.91 1.41,1.41 0.74,4.34 -2.97,2.8 -4.42,3.01 -1.58,0.22 -2.98,2.31 -5.24,-0.31 -0.74,-0.85 0.34,-2.22 0.09,-2.41 -0.08,-0.06 -1.97,-0.07 -2.04,0 -0.12,0.11 0.23,1.3 -0.15,1.84 -0.27,0.38 -2.31,1.15 -2.58,0.87 -0.16,-0.16 0.39,-1.48 -0.4,-2.08 -1.42,-1.1 -2.49,0.8 -3.27,0.68 -1.599997,-0.25 -1.299997,-3.99 -3.819997,-4.04 -1.35,-1.62 -0.32,-2.65 1.36,-1.36 z"
     id="path141" />
  <path
     class="st41"
     d="m 72.010873,245.42082 1.03,0.1 c 2.95,10.28 17.55,22.54 27.179997,13.34 1.18,-3.73 3.33,-9.77 7.86,-8.67 0.96,1.25 -0.1,2.66 -1.36,3.4 0.52,2.52 -1.94,5.93 -4.08,7.49 0.91,1.52 -2.26,4.19 -4.079997,4.76 -0.36,0.39 -1.19,0.6 -1.36,1.36 -1.63,-0.03 -3.24,0.91 -5.72,0.63 -2.48,-0.28 -6.44,-2.13 -8.57,-3.35 -1.05,-0.6 -3.87,-2.6 -4.76,-3.4 -0.95,-0.85 -4.18,-4.43 -4.76,-5.44 -3.44,-0.86 -4.42,-8.24 -1.36,-9.53 -0.59,-0.23 -0.59,-0.45 0,-0.68 z"
     id="path143" />
  <path
     d="m 110.12087,210.03082 c 2.54,-1.13 6.82,7.26 4.76,8.85 4.07,3.28 0.83,11.35 -1.78,15.3 -0.32,0.48 -1.02,0.48 -1.62,0.35 l 1.06,1.2 c 0.08,4.06 -0.86,11.02 -3.78,13.78 0,0.45 -0.23,0.68 -0.68,0.68 -1.03,0.92 -3.48,2.37 -4.11,3.22 -2.49,3.4 -1.05,7.47 -6.769997,9.38 -6.84,2.28 -14.02,-1.6 -19.07,-6.13 -3.98,-3.58 -4.18,-6.76 -6.12,-11.24 -1.88,-3.83 3.52,-2.61 3.4,0.68 l 1.81,-0.19 6.83,6.54 c 2.75,2.56 10.01,7.47 12.12,2.45 -3.66,-0.5 -17.95,-7.77 -18.74,-10.62 -0.26,-0.94 0.59,-3.94 1.86,-3.2 l 18.48,9.2 c 0.33,-0.15 5.519997,-4.76 5.299997,-5.06 l -12.629997,-2.02 c -15.78,-3.6 -10.58,-11.4 2.21,-5.56 l 10.889997,1.76 c 0.23,-2.47 0.79,-4.96 1.67,-7.48 -3.58,0.31 -19.549997,1.71 -21.229997,-1.43 -0.99,-1.85 0.61,-3.27 2.52,-3.38 l 18.209997,-0.37 c 3.9,0.69 5.09,-1.58 3.57,-6.82 -6.41,1.31 -12.419997,3.58 -18.029997,6.8 -1.22,0.41 -2.42,0.39 -3.03,-0.88 -2.12,-4.38 14.209997,-10.14 17.929997,-10.45 -7.929997,-2.06 -17.509997,4.17 -23.329997,9.28 l -1.68,-0.36 c -1.6,1.33 -3.78,4.09 -5.62,3.96 -3.83,-0.27 -0.75,-4.81 -1.19,-5.32 0.04,-0.5 0.11,-1 0.26,-1.46 1.34,-4.09 20.64,-15.19 26.959997,-13.51 -0.12,-2.14 3.89,-1.47 5.45,-1.06 1.56,0.41 5.07,1.39 4.08,3.1 z"
     id="path145" />
  <path
     class="st31"
     d="m 80.180873,224.32082 c 2.73,-2.28 4.51,-4.21 7.91,-6.04 4.82,-2.59 16.589997,-8.28 19.989997,-2.13 -6.05,1.32 -13.579997,3.07 -18.319997,7.21 -0.78,0.68 -1.68,1.05 -1.41,2.32 3.3,-0.16 5.61,-2.67 8.67,-3.92 3.879997,-1.59 8.079997,-2.36 12.079997,-3.58 0.59,0 2,8.54 -0.1,9.57 -6.94,0.89 -14.099997,0.11 -21.019997,0.62 -0.73,0.05 -3.01,0.06 -3.02,1.05 -0.01,2.61 20.509997,1.81 23.119997,0.35 -2.66,3.62 -3.09,7.14 -2.73,11.56 -4.18,-1.43 -8.639997,-1.53 -12.949997,-2.36 -2.47,-0.47 -6.56,-2.27 -8.54,-2.38 -3.35,-0.18 -2.2,1.53 -0.08,2.83 5.62,3.44 14.61,2.93 20.889997,4.63 0.04,3.87 -4.879997,4.72 -6.449997,8.07 l -20.09,-10.11 c -1.58,1.55 9.5,8.19 10.63,8.76 2.19,1.11 6.94,2.2 8.45,3.15 0.89,0.56 0.08,2.68 -0.47,3.12 -6.97,5.47 -16.91,-7.11 -21.33,-10.94 -0.42,-1.35 -0.12,-2.95 0.89,-4.81 -0.22,-2.37 -0.06,-4.39 0.47,-6.08 1.38,-1.79 2.17,-3.14 4.76,-2.73 -0.44,-1.2 -1.92,-1.6 -2.07,-3.08 -0.19,-1.85 2.41,-3.55 0.7,-5.08 z"
     id="path147" />
  <path
     class="st10"
     d="m 70.650873,216.16082 c 2.2,-2.35 5.53,-6.12 7.42,-9.38 1.22,-0.41 2.05,-0.99 2.47,-1.74 1.88,1.43 4.7,0.86 6.9,0.04 0.58,-2.8 2.62,-2.71 6.12,0.25 1.86,-1.51 3.2,-1.92 4.51,0.64 1.72,-0.1 3.119997,0.1 2.519997,2.02 -1.579997,0.23 -6.999997,2.33 -8.829997,3.07 -6.87,2.78 -12.96,6.91 -18.38,11.9 -0.09,-0.11 -1.31,0.2 -1.31,-0.29 0,-0.56 1.46,-3.66 1.31,-3.79 -1.37,-0.3 -1.87,1.13 -2.92,1.51 -3.54,1.27 -7.3,-3.98 -11.1,-0.9 -0.68,0.55 -1.66,4.46 -2.48,5.29 -0.82,0.83 -2.03,0.56 -2.88,0.91 -0.16,0.07 0.76,3.18 -1.26,0.47 -1.08,-1.45 -0.34,-2.45 -0.45,-2.51 -0.74,-0.39 -2.68,0.82 -3.67,0.72 -0.36,-0.04 -0.34,-0.88 -1.09,-1.41 -0.11,0.38 0.13,1 -0.12,1.59 -0.29,0.69 -3.63,3.75 -3.97,2.14 -0.31,-1.48 2.87,-1.03 1.36,-2.37 -0.13,-0.12 -1.54,0.43 -2.27,0.43 -0.66,0 -1.49,-0.55 -2.03,-0.47 -1.21,0.18 -0.44,5.34 -7.27,3.79 -1.82,-0.41 -4.1,-2.27 -5.41,-2.66 -1.16,-0.35 -4.6,1.45 -2.75,-1.09 0.23,-0.01 0.45,0 0.68,0 7.04,-0.2 6.66,0.26 12.93,-2.72 1.15,-0.35 1.91,-1.16 2.28,-2.42 l 1.17,-0.02 c 2.27,-5.46 4.98,0.67 5.4,3.81 -1.79,-2.85 -0.83,-6.17 3.46,-5.68 0.16,-1.06 0.12,-2.18 -0.14,-3.36 4.53,-2.11 5.25,-2.44 8.62,1.46 1.59,-0.49 2.83,-0.23 3.72,0.77 0.69,0.08 2.21,1.45 4.44,1.43 2.73,-0.03 2.34,-1.09 3.04,-1.43 z"
     id="path149" />
  <path
     class="st35"
     d="m 18.940873,229.77082 -1.36,-2.72 c 1.63,0.13 3.49,-0.27 5.07,0.03 2.78,0.53 2.63,3.47 5.81,-0.03 l 0.36,2.06 c 3.07,-1.89 3.72,1.66 6.92,1.14 1.17,-0.19 1.72,-1.14 2.6,-1.18 0.4,-0.02 0.35,1.37 0.69,1.42 1.94,0.31 2.48,-1.91 4.11,-2.11 1.26,-0.16 2.11,0.62 2.74,0.66 0.2,0.01 0.1,-2.33 3,-0.61 0.76,0.59 -2.84,0.84 -1.35,2.03 0.23,0.18 1.42,-0.58 2.28,-0.46 0.49,0.07 0.98,0.83 1.47,0.87 0.57,0.04 3.93,-1.45 5.09,-0.4 1.48,1.34 -2.87,1.33 -0.68,2.39 0.58,0.28 3.73,-0.02 4.28,-0.32 1.23,-0.66 -0.2,-3.66 4.57,-2.07 l -0.69,1.35 c 4.77,-2.37 6.88,2.17 10.21,3.14 1.38,0.4 2.25,-0.69 2.72,0.27 1.84,3.74 1.22,7.79 -1.36,10.89 -0.9,-0.78 -2.18,-1.22 -3.07,-2.04 -0.64,-0.03 -0.26,0.9 -0.34,1.36 -2.18,0.49 -4.05,-3.49 -4.53,-5.53 1.03,-3.85 -1.98,-7.47 -4.15,-3.3 -2.91,-0.45 -3.96,0.05 -3.17,1.51 l -1.07,1.2 c -3.51,0.36 -3.36,-4.02 -4.78,-5.09 -2.14,-1.61 -7.58,0.2 -7.48,-2.39 -2.34,0.58 0.02,3.33 -0.3,4.09 -0.25,0.58 -1.95,2.05 -2.75,2.04 -0.48,0 -0.51,-1.4 -1.41,-2 -2.16,-1.42 -3.74,0.59 -3.02,-4.14 l -7.48,2.04 0.68,-2.03 c -1.38,-0.53 -2.46,1.15 -3.19,1.25 -0.97,0.13 -1.5,-1.31 -2.47,-1.16 -0.63,0.1 -1.3,1.25 -1.49,1.25 -0.47,0 -0.72,-1.54 -1.2,-1.84 -0.59,-0.37 -1.69,-0.18 -2.49,-0.55 -1.05,-0.49 -1.61,-2.46 -2.77,-1 z"
     id="path151" />
  <path
     class="st7"
     d="m 59.080873,239.30082 c 1.86,-2.11 7.84,-4.68 7.03,0.78 1.4,1.4 1.86,3.2 2.22,5.14 1.86,-0.49 3.09,-0.19 3.68,0.89 -0.63,3.61 -0.56,6.2 1.36,9.53 -4.35,-0.04 -5.84,-3.26 -9.53,-3.41 1.74,-6.7 -5.55,-7.47 -10.2,-9.52 2.22,-1.52 2.07,-0.82 3.9,-1.56 0.23,-0.09 0.87,-1.64 1.54,-1.84 z"
     id="path153" />
  <path
     class="st30"
     d="m 157.08087,212.08082 c 2.89,-1.48 5.36,0.5 5.31,4.22 1.14,-1.67 2.5,-2.4 3.96,-0.69 0.42,-2.95 0.91,-6.11 4.7,-5.65 -0.41,-2.78 5.19,-4.15 5.65,-0.98 2.38,0.8 5.1,1.08 7.39,-0.2 2.27,-1.81 3.47,-0.03 3.61,5.34 0.64,5.41 -0.42,11.01 -0.68,16.33 -0.34,1.39 -1.69,1.66 -4.04,0.83 l -0.84,1.31 c 0.54,2.08 -0.08,3.93 -2.32,4.41 l -10.58,-4.04 -1.59,0.6 c -0.58,2.13 -4.76,3.16 -5.8,1.65 -0.71,0.87 -1.69,0.84 -2.72,0.68 -1.33,1.43 -2.63,1.34 -2.72,-0.68 l -3.24,0.61 c -1.04,2.58 -2.49,3.38 -4.72,1.64 -1.21,2.07 -2.02,2.44 -4.02,0.87 -1.19,0.32 -2.12,0.31 -2.81,-0.04 -5.43,4.49 -8.11,0.83 -3.15,-4.26 -4.34,-4.59 -7.92,-5.05 -10.74,-1.38 -1.7,-0.55 -3.49,-0.38 -5.34,0.53 -0.72,0.45 -1.84,0.52 -3.37,0.22 -3.92,3.47 -6.43,3.85 -7.52,1.14 0.81,-2.31 2.4,-3.66 3.2,-6.67 0.8,-3.01 0.89,-5.98 0.21,-8.99 0.07,-1.71 1.35,-2.75 2.72,-1.36 -0.35,-2.58 3.1,-1.14 4.27,0.64 2.19,-1.63 4.04,-1.73 5.58,-0.29 1.61,-1.14 3.53,-1.09 5.42,-0.82 -0.37,-3.32 2.77,-4.74 4.45,-1.71 l 4.12,-0.75 c -0.49,-3 1.1,-3.78 4.77,-2.33 2.21,-0.46 4.44,-0.74 6.68,-0.86 -1.05,-3.91 3.31,-3.75 4.17,-0.69 0.92,0.02 0.91,1.05 0,1.36 z"
     id="path155" />
  <path
     class="st45"
     d="m 165.92087,194.38082 c 2.99,0.8 5.84,1.78 8.55,2.94 0.39,-1.64 1.78,-2.09 4.19,-1.34 l 1.53,-2.23 c -2.77,-2.85 -1.54,-4.07 3.71,-3.65 2.04,-2.03 2.96,-1.87 3.8,0.88 0,0.23 0,0.45 0,0.68 l -0.55,1.49 c -3.23,0.16 -3.6,1.99 -1.11,5.47 0.78,2.12 -3.39,4.21 -4.25,2.48 -1.22,1.11 -2.6,0.93 -3.45,-0.47 -1.5,1.71 -3.34,2.09 -5.52,2.17 -1.05,4.13 -3.3,3.3 -6.15,1.4 -0.44,0.77 -1.14,1.35 -2.1,1.75 -2.24,0.48 -8.72,0.81 -6.55,-3.37 -2.76,-1.81 -4.68,-1.39 -5.78,1.25 -2.48,-0.02 -4.75,0.55 -6.8,1.74 -3.33,5.25 -7.07,0.45 -7.75,-3.87 -1.45,-0.53 -2.95,-1.4 -4.51,-2.62 -0.95,3.41 -3.57,4.27 -6.81,3.9 4.28,5.22 -4.49,6.89 -7.52,4.26 0.12,-2.82 -0.11,-3.87 -1.65,-6.21 2.62,-7.21 -0.03,-2.96 -1.73,0.89 -1,0.5 -4.74,3.04 -4.33,3.92 2.2,1.36 1.54,4.53 -1,4.19 -2.18,-1.73 -6.81,-2.43 -9.53,-2.04 -1.789997,-1.76 -4.819997,0.93 -4.089997,-2.72 -2.89,-0.12 0.36,3.52 -3.86,1.11 -0.42,-0.24 -1.5,-0.98 -2.12,-1.37 -0.1,-0.06 -0.34,-2.33 -1.5,-1.1 -0.31,0.34 0.99,2.14 -2.72,3.06 -0.84,0.21 -1.61,-0.23 -2.26,-0.11 -0.72,0.14 -1.21,1.06 -2.16,1.15 -0.15,0.01 -1.05,-2.64 -2.38,-1.38 -1.05,0.99 3.26,3.02 -2.72,2.73 l 2.03,2.71 c -3.11,-1.72 -2.29,0.08 -3.2,0.69 -2.82,1.88 -2.39,2.76 -3.07,3.27 -0.55,0.41 -1.59,-0.02 -1.89,0.12 0.83,-1.95 1.33,-3.98 1.36,-6.12 0.74,0.23 3.93,-1.24 4.04,-1.42 0.2,-0.31 -2.24,-2.11 2.02,-2.96 0.69,-0.14 1.96,0.45 2.09,0.3 0.16,-0.19 -0.35,-1.53 0.41,-2.1 2.78,-2.08 3.14,0.74 3.36,0.77 2.16,0.33 3.19,-3.24 6.12,-2.61 0.42,0.09 0.24,1.01 0.66,1.06 3.49,0.45 7.35,-1.71 10.919997,-1.07 0.44,0.08 0.31,0.83 0.49,0.92 1.66,0.78 2.39,-0.54 1.2,3.02 l 2.38,-2.71 0.34,2.04 c 5.06,-0.45 0.94,-2.35 1.41,-4.38 0.23,-0.99 2.25,-0.98 3.01,-1.75 1.48,-1.51 3.03,-6.68 1.7,-8.84 3.15,-0.13 1.06,4.52 3.75,4.76 0.33,0.03 0.28,-1.12 0.65,-1.24 0.47,-0.15 4.66,0.02 5.82,-0.48 0.84,0.62 -0.11,1.73 0.28,2.44 0.36,0.66 1.97,-0.14 2.42,0.98 -0.02,0.33 -4.25,3.26 -1.68,3.74 0.95,0.18 6.25,-5.7 8.1,-6.11 l 0.4,-4.1 c 3.02,0.06 3.61,2.99 5.47,4.95 0.53,0.56 1.57,0.4 1.8,0.65 0.63,0.71 0.64,2.99 0.92,3.23 0.08,0.07 1.1,-0.52 2.01,-0.37 1.46,0.25 3.07,1.44 3.75,0.38 0.14,-0.22 -0.41,-1.09 -0.21,-1.26 0.36,-0.3 3.78,-1.5 4.27,-2.11 0.28,-0.35 -0.39,-1.35 -0.33,-1.39 0.41,-0.24 5.47,-0.46 6.48,-0.08 2.46,0.93 1.99,3.48 2.71,3.45 0.15,0 0.54,-0.77 1,-0.85 0.66,-0.11 1.79,0.13 2.08,-0.11 1.19,-0.99 -0.6,-3.34 4.06,-2.43 z"
     id="path157" />
  <path
     class="st4"
     d="m 186.34087,240.66082 c 0.04,2.4 -0.5,3.72 -0.68,5.44 l -1.38,0.34 c -1.36,-1.61 -3.19,-2.89 -5.24,-3.46 -0.33,2.81 -1.09,5.02 -4.4,4.03 l -10.36,1.06 c -1.19,2.46 -2.98,4.47 -5.37,6.03 3.46,5.9 -3.85,6.13 -7.03,1.75 -2.69,0.12 -5.15,-0.17 -7.39,-0.89 -2.69,2.81 -4.12,2.23 -6.57,-0.25 -2.91,0.77 -4,0.63 -5.39,-2.39 l -4,4.74 c -1.36,0.83 -2.29,0.86 -2.77,-0.76 -0.27,-1.62 -0.74,-3.22 -1.41,-4.81 0.84,-1.84 0.91,-3.76 0.19,-5.77 2.41,-0.52 4.7,-1.08 6.86,-1.69 0.71,1.17 1.81,1.95 3.28,2.32 1.25,-1 5.59,-1.14 6.59,0.52 -0.49,4.96 2.56,2.09 3.21,-0.64 1.66,0.55 2.97,-0.06 3.94,-1.82 1.75,1.1 3.5,1.43 5.25,1 l 2.45,-1.07 c 3,-5.33 5.46,-6.12 7.38,-2.37 l 4.58,-1.81 c 1.38,-2.67 3.89,-1.62 4.81,0.97 1.92,-0.6 3.68,-1.44 5.29,-2.52 0.55,-1.61 1.38,-1.49 2.58,-0.4 3.48,-2.16 7.34,-2.66 5.58,2.44 z"
     id="path159" />
  <path
     class="st37"
     d="m 125.77087,256.31082 c 0.39,-0.16 1.22,0.18 2.01,-0.34 0.56,-0.37 4.64,-6.35 5.46,-5.78 0.15,0.92 1.44,3.42 2.05,3.79 0.61,0.37 1.22,-1.17 3.09,-0.53 2.27,0.78 2.5,5.12 5.77,-1.22 l 2.02,2.71 1.7,-4.07 2.38,1.7 c -4.31,3.43 0.06,1.71 1.6,1.9 2.3,0.28 3.1,4.76 7.25,2.51 0.27,-0.34 -2.67,-2.88 -2.03,-4.08 1.54,0.88 4.21,-2.53 5.36,-3.82 0.5,-0.56 0.54,-2.01 0.86,-2.21 0.54,-0.33 2.33,0.01 3.46,-0.27 3.94,-0.99 4.3,-0.2 7.79,-0.94 0.69,-0.15 1.67,0.56 2.28,0.15 1.19,-0.78 0.43,-3.56 0.66,-3.81 1.64,-1.72 7.27,2.17 8.17,4.09 -0.17,1.65 -0.5,2.78 -0.68,4.08 l -2.05,-0.35 1.37,-2.37 c -1.54,0.3 -3.41,-2.23 -4.41,-2.05 -2.16,0.38 0.81,2.68 0.32,3.39 -3.3,1.69 -6.65,0.74 -9.77,3.38 -0.76,0.64 0.01,1.7 -1.29,2.31 -0.75,0.35 -4.96,-0.82 -5.18,-1.03 -0.43,-0.41 0.29,-2.04 -0.42,-1.91 -0.1,0.02 -1.66,0.87 -1.74,1.11 -0.72,2.4 1.43,2.4 1.4,2.61 -0.46,2.8 -3.9,2.89 -4.1,3.08 -0.61,0.6 2.27,1.89 -1.16,2.45 -4.58,0.75 -7.22,-4.14 -9.37,-4.23 -0.25,-0.01 -4.7,0.77 -4.93,0.87 -0.84,0.37 -0.74,1.43 -1.36,1.57 -0.85,0.2 -1.97,-0.29 -2.77,0.17 -0.56,0.32 -0.75,2.84 -3.54,1.89 0.65,-8.17 -2.21,-1.8 -4.55,-1.45 -1.07,0.16 -1.8,-1.53 -2.25,-1.27 -0.05,0.03 0.13,0.71 -0.26,1.07 -2.54,2.38 -3.09,0.53 -5.88,-0.09 -1.7,1.08 -0.79,2.13 -0.69,3.78 -2.21,-2.58 -3.21,0.43 -4.41,0.44 -0.2,0 -3.58,-1.36 -3.74,-1.48 -0.8,-0.58 -1.08,-3.97 -2.69,-3 -0.06,0.04 0.1,0.85 -0.59,1.25 -2.52,1.43 -4.84,0.62 -7.54,2.53 -1.41,0.99 -1.9,3.51 -4.839997,2.98 0.99,-1.07 3.429997,-3.74 4.079997,-4.76 1.26,-2.02 2.16,-2.73 4.6,-2.18 -1.04,-8.06 9.43,-9.66 9.72,-0.6 l 0.81,1.47 c 0.74,-2.95 1.18,-4.08 4,-1.8 1.05,-0.8 2.16,-1.35 3.33,-1.66 0.2,-0.6 0.42,-0.59 0.68,0 z"
     id="path161" />
  <path
     class="st54"
     d="m 187.02087,230.45082 c -0.16,3.28 0.69,7.36 -0.68,10.21 -0.02,-1.13 0.02,-2.27 0,-3.4 l -1.7,2.04 c -0.3,-2.65 -3.33,0.28 -4.76,1.36 -0.89,-1.51 0.56,-2.21 -1.7,-2.04 -0.93,1.67 -2.46,2.13 -4.11,1.03 -2.3,-2.62 -11.86,-2.29 -14.6,0.18 -1.48,3.02 -3.4,4.88 -5.79,5.59 -1.38,0.06 -2.64,0.37 -3.77,0.94 l -0.31,-2.3 0.35,-1.53 c -1.95,-1.76 -0.67,-5.73 1.8,-4.5 0.67,-2.47 2.42,-2.69 4.66,-2.81 1.04,0.22 1.73,0.41 2.72,0.68 1.04,0.17 1.94,-0.06 2.72,-0.68 5.8,-0.55 3.18,-1.68 5.44,-3.06 2.26,-1.38 4.11,0.2 5.95,0.75 2.12,0.63 1.35,0.69 1.99,0.95 1.57,0.64 3.45,0.55 4.65,2.03 0.87,-0.43 1.44,-2.14 1.02,-2.71 -0.27,-0.37 -2.86,1.08 -2.04,-2.04 4.27,1.73 2.14,-0.73 2.72,-1.37 0.19,-0.2 4.47,0.8 5.44,0.68 z"
     id="path163" />
  <path
     class="st55"
     d="m 187.70087,201.87082 v 12.25 c -0.1,-0.82 -0.97,-4.44 -1.77,-4.72 -2.29,-0.78 -3.27,1.76 -4,1.81 -0.47,0.03 -1.53,-0.94 -2.61,-1.01 -0.92,-0.06 -2.22,0.6 -2.78,0.53 -0.56,-0.07 -0.26,-4.17 -4.48,-2.06 l 1.35,3.4 c -8.62,-3.59 -2.61,5.61 -8.84,6.8 -0.33,-0.34 0.95,-2.4 0.68,-2.71 -1.1,-1.28 -1.45,1.29 -1.79,1.37 -3.83,0.84 -1.47,-2.43 -3.29,-4.11 -0.86,-0.8 -2.63,-0.35 -3.08,-1.34 0.62,-0.68 0.74,-2.16 0.34,-4.47 2.47,-2.06 5.76,-2.16 9.87,-0.3 0.16,-1.36 0.76,-1.07 1.36,0 0.09,-1.14 0.77,-1.42 2.04,-0.85 2.62,-1.97 6.95,-2.79 8.13,0.96 4.18,0.72 4.7,-1.63 3.75,-5.08 0.03,-1.3 5.16,-3.8 5.13,-0.47 z"
     id="path165" />
  <path
     class="st48"
     d="m 187.70087,201.87082 c -6.37,-1.48 -2.98,0.97 -2.97,2.38 0,0.41 -0.83,0.95 -0.89,1.47 -0.09,0.8 0.6,1.79 0.39,2.16 -0.57,1.01 -6.46,1.02 -6.72,0.77 -0.19,-0.18 0.92,-3.08 -3.53,-2.34 -1.28,0.21 -2.18,1.31 -3.09,1.49 -0.86,0.16 -1.81,-0.54 -2.24,-0.48 -1.16,-1.2 -1.84,-1.66 -2.04,-1.36 -0.21,1.57 -1.6,1.67 -2.04,0 0.01,-3.9 5.07,-0.74 6.13,-1.65 0.74,-0.63 0.61,-2.08 1.33,-2.77 0.2,-0.19 2.6,-0.12 3.58,-0.5 1.31,-0.51 1.84,-2.18 3.59,-1.92 0.54,0.08 -0.18,1.76 1.36,1.4 0.66,-0.15 0.2,-0.98 0.49,-1.13 2.43,-1.25 1.3,1.38 2.57,1.8 l 1.36,-1.68 c -2.55,-5.05 -3.42,-6.72 2.73,-7.84 0.13,3.38 0,6.82 0,10.21 z"
     id="path167" />
  <path
     class="st14"
     d="m 187.70087,190.98082 -1.7,-1.37 c -1.22,3.15 -3.82,1.4 -6.46,1.38 -0.15,1.08 1.07,0.44 1.59,1.49 1.37,2.77 -0.51,2.52 -0.62,2.76 -1.86,4.19 -1.19,1.52 -4.66,1.86 -1.34,0.13 -2.46,1.46 -3.45,1.4 -0.51,-0.03 -0.13,-1.63 -0.68,-1.4 -0.49,0.21 -0.52,1.04 -1.69,1.04 -2.47,0 -0.33,-1.93 -0.69,-2.39 -0.11,-0.15 -3.23,-1.33 -3.41,-1.37 1.68,0.19 4.09,0.29 5.61,0.86 1.35,0.51 1.68,2.07 3.23,1.86 -0.93,-1.59 0.27,-4.3 0,-5.44 2.72,0.23 3.43,-1.73 4.75,-2.32 0.53,-0.24 1.5,0.33 2.08,-0.04 0.8,-0.51 -0.19,-1.78 0.6,-2.79 1.07,-1.37 2.47,-0.06 2.74,-0.31 0.23,-0.21 0.16,-3.15 2.09,-3.39 0.24,2.82 0.56,5.26 0.68,8.17 z"
     id="path169" />
  <path
     class="st14"
     d="m 171.37087,191.66082 c 0.34,1.66 -0.59,1.5 -2.04,1.36 0.15,-0.15 -0.17,-1.22 0,-1.36 0.25,-0.21 1.62,0.19 2.04,0 z"
     id="path171" />
  <path
     class="st5"
     d="m 57.040873,195.06082 c 1.47,-1.08 2.83,-0.18 4.08,2.72 -0.68,0.85 -2.05,2.74 -2.03,3.76 0.03,1.64 1.71,1.85 2.03,2.37 2.48,0.03 3.23,4.72 1.36,6.12 -0.26,-0.03 -0.98,0.65 -1.36,0.68 -0.44,-0.57 -0.54,0.21 -0.3,2.35 -2.96,-0.8 -5.62,-0.72 -7.98,0.23 -1.47,1.85 -3.29,1.71 -5.46,-0.41 -1.28,1.34 -3.06,1.52 -5.32,0.56 0.41,-2.2 -0.38,-4.11 -0.68,-6.12 -0.4,-2.02 3.06,-3.07 4.08,-1.36 0.03,0.25 0.66,0.55 0.68,0.68 1.74,1.31 4.32,0.99 6.12,0 0.83,0.17 1.86,1.14 2.72,1.36 0.86,0.22 2.78,0.71 3.44,0.37 1.92,-5.34 -1.51,-6.77 -6.15,-5.14 0.06,-1.56 1.08,-2.43 1.35,-4.08 0.07,-0.43 -0.09,-0.96 0,-1.36 0.13,-1.65 1.36,-4.51 2.72,-2.72 0.2,-0.05 0.45,0.03 0.68,0 z"
     id="path173" />
  <path
     class="st32"
     d="m 42.070873,213.44082 c 0.35,-0.95 1.51,-2.05 1.37,-3.4 1.62,0.55 -0.49,3.72 2.36,2.53 0.53,-0.22 0.13,-1.38 1.37,-1.21 1.84,0.26 2.9,3.36 6.47,1.39 l -1.35,-1.35 c 1.65,0.41 3.73,-0.48 5.14,-0.39 1.72,0.11 3.37,3 3.03,-0.99 0.49,-0.15 0.62,0.69 0.67,0.69 -0.32,2.22 0.81,3.77 2.04,5.44 -0.8,-0.1 -3.17,1.02 -4.46,0.41 -1.35,-0.64 -4.7,-6.98 -7.1,-1.09 1.93,-1.26 3.49,0.87 3.77,2.69 0.03,0.18 -0.94,3.31 -1.06,3.44 -0.27,0.31 -1.66,0.34 -1.37,-1.03 0.36,-1.66 2.49,-2.68 -0.66,-4.41 0.55,3.78 -2.93,1.84 -3.95,2.86 -0.53,0.53 -0.57,3.02 -0.82,3.95 -0.17,-0.12 -1.13,0.24 -1.31,-0.04 -0.26,-0.4 0.18,-1.58 -0.08,-2.14 -0.33,-0.73 -1.91,-0.84 -1.33,-2.58 -2.97,-0.66 -0.02,3.35 -0.68,4.08 -1.56,0.42 -2.2,-1.69 -3.06,-2.04 -0.56,-0.22 -0.07,1.04 -0.8,1.36 -0.51,0.23 -1.31,-0.13 -1.58,0 2.39,-2.36 2.43,-5.5 3.4,-8.17 z"
     id="path175" />
  <path
     class="st9"
     d="m 28.260873,206.10082 c 9.35,-2.14 12.25,9.27 5.44,12.91 -10.39,5.56 -13.65,-11.04 -5.44,-12.91 z"
     id="path177" />
  <path
     class="st21"
     d="m 40.710873,205.95082 c -0.02,-0.17 0.22,-3.27 0.32,-3.41 0.71,-1.01 1.6,0.17 2.22,-0.15 0.16,-0.08 0.59,-2.38 2.23,-0.86 -0.95,1.95 -0.2,2.98 -0.01,4.41 l -4.08,1.36 c -0.01,-0.09 -0.58,-0.57 -0.68,-1.36 z"
     id="path179" />
  <path
     class="st28"
     d="m 61.130873,203.91082 3.75,-2.04 c 0.9,1.21 2.19,8.84 1.69,9.52 -1.32,-0.58 -2.62,-1.18 -4.08,-1.36 -0.43,-1.8 -0.41,-4.61 -1.36,-6.12 z"
     id="path181" />
  <path
     class="st21"
     d="m 61.810873,197.10082 c -0.22,0.2 -0.5,0.45 -0.68,0.68 l -2.04,0.35 c -1.74,-1.04 1.98,-3.6 -2.04,-3.07 1.83,-2.65 3.4,0.24 4.76,2.04 z"
     id="path183" />
  <path
     class="st21"
     d="m 52.280873,206.63082 c -1.62,4.17 -1.81,2.07 -3.89,1.63 -0.65,-0.14 -2.65,0.02 -2.92,-0.28 -0.14,-0.16 0.72,-1.17 0.68,-1.35 1.67,-0.32 4.56,-0.32 6.12,0 z"
     id="path185" />
  <path
     class="st21"
     d="m 53.640873,197.79082 c 0.01,-0.07 -0.47,-0.6 -0.32,-1.39 0.18,-0.96 1.77,-5 3.04,-4.05 v 2.72 c -3.01,0.78 0.83,2.35 0,3.4 -1.11,-0.44 -1.52,-1.78 -2.72,-0.68 z"
     id="path187" />
  <path
     class="st33"
     d="m 144.15087,243.38082 c 1.47,0.36 2.99,0.13 4.57,-0.68 l 0.87,1.36 c 0.41,1.55 2.74,1.64 4.08,1.36 -0.58,0.12 -2.62,0.6 -2.89,0.71 -0.57,0.23 -0.68,2.4 -1.87,1.33 -0.23,-0.21 1.97,-2.99 -0.33,-2.71 -1.9,2.63 0.9,5.94 -3.75,2.04 1.75,1.99 -2.94,5.68 -4.46,3.43 -0.58,-0.85 -0.24,-2.41 -0.31,-3.43 -1.97,0.21 -3.08,1.79 -3.74,-0.68 -1.57,3.63 -2.01,0.95 -4.12,0.68 -0.14,-0.02 -0.57,2.67 -1.67,1.36 -0.29,-0.34 0.96,-2.37 0.68,-2.71 -1.1,-1.3 -1.43,1.29 -1.78,1.36 -1.05,0.21 -3.73,-1.72 -4.34,0.67 5.44,0.5 0.76,2.74 0.67,3.1 -0.58,2.4 2.05,1.52 2.06,3.37 0,0.52 -2.5,0.65 -2.05,2.39 -0.21,0.09 -0.56,-0.1 -0.68,0 l -1.4,-0.14 c -1.2,2.71 -3.16,2.41 -5.9,-0.88 l -0.97,-0.35 c -1.87,-4.44 -6.12,-3.82 -8.98,-0.29 l -1.13,-1.06 1.36,-3.4 c 0.24,-0.21 0.44,-0.47 0.68,-0.68 l 1.45,-1.53 c 0.33,-5.56 8.37,-8.33 7.28,-1.52 0,0.27 4.72,1.22 5.2,0.46 -3.42,-4.34 -0.81,-5.97 7.85,-4.89 0.22,-0.62 0.45,-0.62 0.68,0 1.4,-1.05 2.71,-0.63 3.42,0.96 1.8,-0.92 2.37,-0.95 3.99,0.27 1.55,-0.68 3.8,-0.56 5.52,0.13 z"
     id="path189" />
  <path
     class="st44"
     d="m 106.72087,253.59082 c 0.4,-0.31 1.9,-0.18 2.38,-1.32 0.28,-0.68 -0.56,-1.86 -0.33,-2.07 0.24,-0.23 5.06,1.57 6.12,-0.69 -0.41,3.47 0.92,1.39 3.41,1.37 l -1.35,3.4 c 2.54,-1.8 3.05,1.76 4.42,3.39 0.31,0.03 2.17,-6.31 3.74,-1.35 -0.17,0.14 0.05,1.51 -1.53,2.22 -0.2,0.09 -3.03,0.47 -3.15,0.37 -0.32,-0.29 0.39,-1.5 -0.76,-1.22 -0.59,6.6 -5.07,2.67 -4.09,-2.04 -1.83,-0.65 -1.16,1.06 -1.43,1.26 -0.65,0.47 -1.74,-0.37 -1.96,-0.93 -0.58,-1.45 2.01,-1.08 2.03,-2.36 -2.38,-0.82 -5.5,0.73 -5.96,3.14 -0.16,0.83 0.98,3.18 0.51,3.65 -0.22,0.23 -4.83,-1.09 -6.12,0.68 1.45,-2.3 1.39,-5.39 4.08,-7.49 z"
     id="path191" />
  <path
     class="st23"
     d="m 59.080873,239.30082 -1.36,-4.76 1.37,1.35 c 2,-2.25 2.55,-0.04 3.06,-0.05 0.29,0 2.24,-3.01 2.54,-3.14 2.75,-1.22 1.45,1.18 2.01,1.7 0.39,0.36 1.55,-0.23 1.93,0.57 0.8,1.69 -0.08,4.72 0.31,5.66 0.39,0.94 2.35,3.13 3.07,4.79 -0.04,0.22 0.04,0.46 0,0.68 -2.41,0.52 -6.57,1.34 -4.77,-2.04 l -2.04,0.67 c 2.55,-3.76 0.09,-2.48 -0.62,-3.49 -0.44,-0.62 1.32,-3 -0.42,-3.31 -0.59,-0.11 -1.75,1.07 -2.76,1.34 -0.78,0.21 -1.82,-0.13 -2.33,0.02 z"
     id="path193" />
  <path
     class="st60"
     d="m 110.12087,210.03082 1.35,-2.72 h -2.71 c 1.45,-1.05 1.04,-3.43 1.4,-4.06 0.11,-0.19 2.57,1.5 2.01,-2.75 l 2.04,1.03 3.06,-6.46 3.65,2.36 c -4.75,4.17 -1.15,4.03 -0.74,6.21 0.34,1.81 -1.95,5.58 3.53,2.31 -0.54,3.5 3.47,-0.67 2.73,-1.37 -0.82,-0.77 -2.78,2.8 -3.4,0.01 2.78,0.14 1.68,-2.9 2.05,-3.42 0.19,-0.27 4.15,1.84 6.15,-0.99 0.55,-0.78 0.5,-2.38 1.03,-2.44 4.66,-0.51 4.26,5.37 5.39,2.07 2.58,1.08 1.44,0.98 1.04,3.41 l 2.03,-0.67 c -1.9,2.92 1.01,2.19 0.69,4.75 1.18,0.32 0.4,-1.02 0.73,-1.32 0.36,-0.34 1.89,0.87 1.98,0.65 0.15,-0.35 -0.29,-1.35 0.16,-1.9 0.22,-0.27 1.22,-0.08 1.84,-0.62 1.25,-1.1 4.09,-5.41 2.76,-1.58 3.96,1.91 3.07,-2.37 4.48,-2.68 0.61,-0.14 6.85,1.48 7.1,3.03 0.24,0.58 -0.96,0.22 -1.13,0.49 -1.7,2.66 0.65,1.35 1.36,1.43 1.25,0.15 2.48,0.91 3.86,1.14 0.63,0.1 1.38,-0.07 2.04,0 0.97,-0.13 1.35,0.66 0.68,1.36 -0.49,0.1 -1.81,1.29 -2.41,1.35 -0.24,0.02 -0.24,-1.09 -0.83,-1.3 -2.37,-0.81 -5.16,-0.85 -5.93,2.02 -0.42,1.55 1.39,3.04 -1.03,2.69 -0.13,-0.29 0.11,-0.96 0,-1.36 -2.13,-1.32 -3.45,-2.79 -3.95,-4.41 -2.23,1.96 -4.43,2.39 -6.59,1.32 l -1.06,1.22 c 1.78,4.1 -4.06,4.96 -4.57,1.03 l -2.95,-0.87 c -1.69,3.12 -5.75,3.6 -8.1,1.03 -0.54,2.25 -8.59,2.07 -9.53,0 1.93,2 2.36,8.4 -1.94,6.47 l -0.79,1.02 c -0.85,0.4 -1.56,1.37 -2.72,1.36 -0.46,-1.99 -3.2,-7.61 -4.76,-8.85 z"
     id="path195" />
  <path
     class="st8"
     d="m 122.37087,233.17082 c 2.64,-1.32 4.85,-1.39 6.64,-0.21 6.95,0.36 8.18,5.04 1.47,7.78 l 0.06,1.28 c -0.43,0.11 -1.25,1.06 -2.57,1.23 -1.86,0.23 -3.73,-0.43 -5.6,0.14 -0.55,1.8 0.98,1.05 1.32,1.86 0.38,0.89 0.38,2.52 0.71,3.57 -0.34,0.29 -8.57,-1 -8.84,-1.36 -0.51,-0.68 1.19,-2 1.19,-2.38 0,-0.4 -1.6,-1.89 -1.86,-1.69 -0.05,0.04 0.15,0.93 -0.18,1.16 -0.68,0.48 -1.81,-0.05 -2.41,0.31 -0.46,0.27 -0.93,2.9 -1.7,3.79 -0.44,0.51 -1.47,0.54 -1.84,0.86 2.66,-4.64 1.16,-10.53 2.72,-14.97 3.69,2.05 4.74,-2.35 8.01,-2.62 1.62,-0.13 1.85,0.76 2.88,1.25 z"
     id="path197" />
  <path
     class="st55"
     d="m 117.61087,217.52082 c -0.34,-1.18 -2.87,-5 -2.73,-5.77 0.48,-2.67 2.45,2.09 4.09,1.01 0.25,0.21 -4.1,4.17 2.04,2.71 -1.45,-0.8 -0.97,-5.44 -0.68,-5.44 h 9.53 c 0.11,0 -0.16,-1.87 0,-2.04 1.57,-1.64 0.69,1.64 1.78,1.95 5.51,1.56 4.83,-2.73 5.35,-2.61 0.67,0.16 4.78,1.32 4.98,1.49 0.45,0.38 0.08,2.81 1.83,2.57 2.11,-1.11 -0.68,-2.8 -0.3,-3.36 0.04,-0.06 0.75,0.05 1.05,-0.3 3,-3.42 2.08,-0.73 4.42,-0.75 1.63,-0.01 4.65,-4.11 6.74,-1.38 0.2,0.56 -1.49,0.24 -1.37,0.66 0.84,3.01 1.96,0.34 3.41,2.06 -1.9,0.63 -1.16,0.61 -0.68,2.38 l -3.08,-1.36 c -0.37,0.99 1.44,4.41 1.03,4.76 -1.34,1.15 -2.3,-1.37 -2.46,-1.39 -3.1,-0.31 -6.7,2.58 -9.78,-0.65 -0.46,0.62 1.01,3.09 0.68,3.4 -0.27,0.25 -6.78,1.44 -7.14,1.38 -1.05,-0.18 1.08,-3 -2.38,-1.37 l 1.36,2.71 c -1.85,0.62 -3.77,-0.17 -5.61,0.12 -0.96,0.15 -1.88,1.29 -2.88,1.28 -0.39,0 -0.06,-1.52 -1.35,-1.47 -2.05,0.07 -2.86,2.41 -4.85,0.81 -1.54,-1.24 0.15,-2.89 -3,-1.41 z"
     id="path199" />
  <path
     class="st35"
     d="m 122.37087,233.17082 c 1.28,-1.51 3.34,-1.06 4.74,-1.73 1.16,-0.56 2.18,-2.76 3.88,-2.89 1.43,-0.11 9.12,3.89 9.12,4.99 0,1.25 -3.14,4.14 -3.44,5.75 0.2,0.16 4.35,-1.11 4.94,-1.39 0.59,-0.28 0.42,-1.35 0.84,-1.34 1.53,0.01 1.73,2 3.11,1.78 2.17,-0.34 1.13,-4.46 6.07,-0.4 0.22,-4.21 1.11,-3.48 4.77,-2.72 -1.78,1.4 -6.49,3.14 -6.16,5.78 0.03,0.25 4.05,1.77 -0.65,3.07 -0.4,0.11 -1.06,-0.13 -1.62,0.09 -1.51,0.61 -0.98,4.7 -3.82,-0.77 -0.97,-0.76 -1.9,-1.63 -2.79,-2.62 0,3.33 -3.87,3.35 -5.04,1.09 -1.75,0.14 -3.45,0.2 -5.1,0.17 -0.19,-0.02 -0.5,-0.05 -0.68,0 l -2.39,-0.68 c 4.03,-3.98 0.28,-1.98 -0.35,-2.34 -0.68,-0.39 -0.96,-2.08 -0.66,-2.42 0.25,-0.29 1.72,0.79 1.98,0.63 0.21,-0.14 0.49,-1.91 1.08,-1.98 1.32,-0.14 -0.15,4.2 2.37,3.39 2.71,-4.7 -0.92,-3.3 -4.06,-4.39 -0.95,-0.33 -1.82,-1.46 -2.56,-1.64 -1.75,-0.41 -1.52,1.57 -3.58,0.59 z"
     id="path201" />
  <path
     class="st35"
     d="m 161.84087,235.21082 c -0.98,2.4 -1.81,0.93 -2.72,0.68 0.84,-0.6 1.75,-0.59 2.72,-0.68 z"
     id="path203" />
  <path
     class="st46"
     d="m 178.17087,238.61082 c -0.34,2.75 -2.94,2.95 -4.54,3.63 -0.34,0.14 -1.07,2.14 -3.62,1.13 0.67,-1.01 2.38,-2.54 0.33,-3.39 -1.12,-0.46 -0.84,0.99 -1.54,1.29 -0.77,0.34 -4.98,2.1 -5.27,2.1 -2.15,-0.05 -2.28,-3.93 -3.72,-2.71 -0.15,0.13 -0.83,2.32 -1.91,3.39 -2.62,2.6 -3.15,1.14 -4.23,1.36 1.41,-0.3 3.57,-4.64 4.37,-5.5 2.55,-2.72 6.8,-4.49 10.13,-2.81 1.54,-1.81 2.21,-0.1 2.85,-0.13 0.64,-0.03 1.12,-1.03 1.37,-1.03 0.39,0 1.27,2.84 4.21,3.14 0.79,0.08 1.27,-0.46 1.57,-0.48 z"
     id="path205" />
  <path
     class="st35"
     d="m 154.34087,238.62082 c 0.11,0.09 0.82,2.58 0.69,2.72 -1.59,1.63 -2.97,-4.57 -0.69,-2.72 z"
     id="path207" />
  <path
     class="st45"
     d="m 168.64087,207.31082 c -0.44,0.06 -0.96,-0.08 -1.36,0 -0.61,-0.29 -0.49,-0.95 -0.68,-1.36 -1.43,-3.13 1.84,-0.82 2.04,1.36 z"
     id="path209" />
  <path
     class="st52"
     d="m 28.950873,209.47082 c 4.62,-1.37 6.9,4.97 2.26,6.42 -4.65,1.45 -5.58,-5.44 -2.26,-6.42 z"
     id="path211" />
  <path
     class="st8"
     d="m 131.22087,242.02082 c 0.54,-1.81 4.37,-1.7 5.65,-1.37 0.9,0.23 0.77,2.41 2.17,2.05 1.3,-0.27 0.32,-3.83 2.74,-4.09 0.15,-0.02 0.57,2.32 2.38,1.36 0.08,-0.04 -1.62,-1.76 0.32,-1.35 3.18,2.79 0.9,1.51 0.02,2.73 -0.54,0.74 -0.2,1.76 -0.35,2.03 -1.13,2.04 -5.64,0.13 -7.06,0.2 -1.01,0.05 -2.3,1.08 -2.84,1.02 -0.82,-0.08 -0.75,-2.4 -3.03,-2.58 z"
     id="path213" />
</svg>
