<?xml version="1.0" encoding="UTF-8" standalone="no"?>
<svg
   version="1.1"
   width="121.83447"
   height="172.29433"
   id="svg119"
   sodipodi:docname="monkey2-c.svg"
   xmlns:inkscape="http://www.inkscape.org/namespaces/inkscape"
   xmlns:sodipodi="http://sodipodi.sourceforge.net/DTD/sodipodi-0.dtd"
   xmlns="http://www.w3.org/2000/svg"
   xmlns:svg="http://www.w3.org/2000/svg">
  <sodipodi:namedview
     id="namedview121"
     pagecolor="#ffffff"
     bordercolor="#000000"
     borderopacity="0.25"
     inkscape:showpageshadow="2"
     inkscape:pageopacity="0.0"
     inkscape:pagecheckerboard="0"
     inkscape:deskcolor="#d1d1d1" />
  <defs
     id="defs47">
    <linearGradient
       id="grad_1"
       y2="157.14503"
       gradientTransform="scale(0.82248424,1.2158288)"
       x1="266.52431"
       y1="126.01126"
       x2="297.65808"
       gradientUnits="userSpaceOnUse">
      <stop
         offset="0"
         stop-color="#9F7A29"
         stop-opacity="1"
         id="stop2" />
      <stop
         offset="1"
         stop-color="#D29839"
         stop-opacity="1"
         id="stop4" />
    </linearGradient>
    <linearGradient
       id="grad_2"
       y2="157.14503"
       gradientTransform="scale(0.82248424,1.2158288)"
       x1="266.52431"
       y1="126.01126"
       x2="297.65808"
       gradientUnits="userSpaceOnUse">
      <stop
         offset="0"
         stop-color="#F3B271"
         stop-opacity="1"
         id="stop7" />
      <stop
         offset="1"
         stop-color="#FFCB99"
         stop-opacity="1"
         id="stop9" />
    </linearGradient>
    <linearGradient
       id="grad_3"
       y2="180.89135"
       gradientTransform="scale(0.92609939,1.0797977)"
       x1="204.29469"
       y1="152.78811"
       x2="232.39793"
       gradientUnits="userSpaceOnUse">
      <stop
         offset="0"
         stop-color="#AC7F2E"
         stop-opacity="1"
         id="stop12" />
      <stop
         offset="1"
         stop-color="#D29839"
         stop-opacity="1"
         id="stop14" />
    </linearGradient>
    <linearGradient
       id="grad_4"
       y2="180.32614"
       gradientTransform="scale(0.92321756,1.0831683)"
       x1="205.00048"
       y1="152.37354"
       x2="232.95308"
       gradientUnits="userSpaceOnUse">
      <stop
         offset="0"
         stop-color="#AC7F2E"
         stop-opacity="1"
         id="stop17" />
      <stop
         offset="1"
         stop-color="#D29839"
         stop-opacity="1"
         id="stop19" />
    </linearGradient>
    <linearGradient
       id="grad_5"
       x2="193.52871"
       gradientTransform="scale(1.029563,0.97128586)"
       x1="167.78963"
       y1="98.580659"
       y2="98.580659"
       gradientUnits="userSpaceOnUse">
      <stop
         offset="0"
         stop-color="#CBBD7C"
         stop-opacity="1"
         id="stop22" />
      <stop
         offset="1"
         stop-color="#B4812D"
         stop-opacity="1"
         id="stop24" />
    </linearGradient>
    <linearGradient
       id="grad_6"
       x2="193.52871"
       gradientTransform="scale(1.029563,0.97128586)"
       x1="167.78963"
       y1="98.580659"
       y2="98.580659"
       gradientUnits="userSpaceOnUse">
      <stop
         offset="0"
         stop-color="#B4812D"
         stop-opacity="1"
         id="stop27" />
      <stop
         offset="1"
         stop-color="#CBBD7C"
         stop-opacity="1"
         id="stop29" />
    </linearGradient>
    <linearGradient
       id="grad_7"
       y2="202.80954"
       gradientTransform="scale(1.3961358,0.7162627)"
       x1="148.37381"
       y1="175.7694"
       x2="175.41395"
       gradientUnits="userSpaceOnUse">
      <stop
         offset="0"
         stop-color="#FFCB6B"
         stop-opacity="1"
         id="stop32" />
      <stop
         offset="1"
         stop-color="#FFCB99"
         stop-opacity="1"
         id="stop34" />
    </linearGradient>
    <linearGradient
       id="grad_8"
       x2="201.42492"
       gradientTransform="scale(1.0425721,0.9591663)"
       x1="189.43535"
       y1="137.88016"
       y2="137.88016"
       gradientUnits="userSpaceOnUse">
      <stop
         offset="0"
         stop-color="#FE9E6C"
         stop-opacity="1"
         id="stop37" />
      <stop
         offset="1"
         stop-color="#FFCB99"
         stop-opacity="1"
         id="stop39" />
    </linearGradient>
    <linearGradient
       id="grad_9"
       x2="201.42492"
       gradientTransform="scale(1.0425721,0.9591663)"
       x1="189.43535"
       y1="137.88016"
       y2="137.88016"
       gradientUnits="userSpaceOnUse">
      <stop
         offset="0"
         stop-color="#FE9E6C"
         stop-opacity="1"
         id="stop42" />
      <stop
         offset="1"
         stop-color="#FFCB99"
         stop-opacity="1"
         id="stop44" />
    </linearGradient>
  </defs>
  <!-- Exported by Scratch - http://scratch.mit.edu/ -->
  <g
     id="ID0.13725759088993073"
     transform="translate(-0.16552854,0.0034781)">
    <g
       id="ID0.4129900340922177">
      <path
         id="ID0.4288085182197392"
         fill="#b4852d"
         stroke="none"
         stroke-linecap="round"
         d="m 216.9,192.9 c 4.167,-0.258 9.699,1.222 11.85,3.7 1.199,1.272 -3.697,2.166 -5.15,3.8 -1.415,1.59 -2.391,3.559 -3.1,5.6 -0.628,1.8 -0.723,3.767 -0.85,5.75 -0.294,4.604 0.468,9.309 -0.35,13.85 -0.147,1.149 -1.376,0.852 -2.15,0.9 -1.694,0.105 -4.585,1.218 -5.25,-0.4 -1.93,-5.271 -1.066,-11.239 -1.25,-16.85 -0.059,-1.787 0.312,-3.508 0.7,-5.325 0.469,-2.186 1,-4.408 1.95,-6.425 0.927,-1.712 1.659,-4.48 3.6,-4.6 z"
         transform="matrix(-1,0,0,1,301.15,-60.35)" />
      <path
         id="ID0.9969862452708185"
         fill="#fdcb96"
         stroke="none"
         stroke-linecap="round"
         d="m 215.375,215.5 c 1.754,-0.185 3.747,0.63 5.037,1.649 1.29,1.018 1.791,2.51 2.088,3.976 0.239,1.183 0.436,2.955 -0.6,3.575 -1.827,1.093 -4.256,0.655 -6.4,0.65 -2.042,0.005 -4.323,0.378 -6.1,-0.65 -1.264,-0.731 -1.95,-2.545 -1.8,-4 0.129,-1.216 1.479,-1.996 2.5,-2.7 1.603,-1.095 3.313,-2.292 5.275,-2.5 z"
         transform="matrix(-1,0,0,1,301.9,-53.5)" />
      <path
         id="ID0.9179897592402995"
         fill="#cc9832"
         stroke="none"
         stroke-linecap="round"
         d="m 215,220.5 c 1.319,0.071 2.788,0.027 3.888,0.733 0.816,0.522 1.281,1.725 1.212,2.767 -0.013,0.483 -0.803,0.608 -1.4,0.7 -2.305,0.342 -4.611,0.513 -7,0.4 -1.073,-0.052 -2.254,-0.206 -3.1,-0.9 -0.438,-0.361 -0.102,-1.153 0.15,-1.7 0.324,-0.698 0.881,-1.455 1.6,-1.65 1.495,-0.514 3.132,-0.431 4.65,-0.35 z"
         transform="matrix(-1,0,0,1,300.2,-58.65)" />
    </g>
    <path
       id="ID0.13197573041543365"
       fill="#a97a2a"
       stroke="none"
       stroke-linecap="round"
       d="m 180.75,157.6 c 3.586,1.493 6.556,4.357 9.25,7.15 1.474,1.647 2.46,3.775 3,5.9 0.907,3.569 0.744,7.34 1.15,11 0.371,3.339 -0.039,6.753 1.1,9.85 0.657,1.782 2.077,3.38 3.75,3.9 2.814,0.952 5.938,0.49 8.75,0.2 3.375,-0.345 6.762,-0.775 10,-1.95 2.33,-0.845 4.045,-3.523 6.4,-3.8 3.629,-0.426 12.4,0.087 10.85,1.65 -2.728,2.752 -13.156,6.019 -20.121,7.774 -4.587,1.154 -9.397,1.476 -14.029,1.076 -2.881,-0.324 -6.068,-1.174 -8,-3.2 -2.079,-2.18 -2.583,-5.532 -3.1,-8.5 -0.774,-4.443 -0.021,-8.925 -0.75,-13.3 -0.44,-2.638 -1.067,-5.61 -2.85,-7.75 -2.281,-2.692 -5.451,-4.68 -8.8,-6.1 -4.287,-1.816 -9.493,-0.929 -13.6,-3.25 -1.16,-0.656 -0.454,-3.838 0.9,-3.9 5.385,-0.246 11.051,1.148 16.1,3.25 z"
       transform="translate(-163,-55)" />
    <g
       id="ID0.7912502754479647">
      <path
         id="path54"
         fill="#b4852d"
         stroke="none"
         stroke-linecap="round"
         d="m 216.9,192.9 c 4.167,-0.258 9.699,1.222 11.85,3.7 1.199,1.272 -3.697,2.166 -5.15,3.8 -1.415,1.59 -2.391,3.559 -3.1,5.6 -0.628,1.8 -0.723,3.767 -0.85,5.75 -0.294,4.604 0.468,9.309 -0.35,13.85 -0.147,1.149 -1.376,0.852 -2.15,0.9 -1.694,0.105 -4.585,1.218 -5.25,-0.4 -1.93,-5.271 -1.066,-11.239 -1.25,-16.85 -0.059,-1.787 0.312,-3.508 0.7,-5.325 0.469,-2.186 1,-4.408 1.95,-6.425 0.927,-1.712 1.659,-4.48 3.6,-4.6 z"
         transform="translate(-164.65,-60.25)" />
      <path
         id="path56"
         fill="#fdcb96"
         stroke="none"
         stroke-linecap="round"
         d="m 215.375,215.5 c 1.754,-0.185 3.747,0.63 5.037,1.649 1.29,1.018 1.791,2.51 2.088,3.976 0.239,1.183 0.436,2.955 -0.6,3.575 -1.827,1.093 -4.256,0.655 -6.4,0.65 -2.042,0.005 -4.323,0.378 -6.1,-0.65 -1.264,-0.731 -1.95,-2.545 -1.8,-4 0.129,-1.216 1.479,-1.996 2.5,-2.7 1.603,-1.095 3.313,-2.292 5.275,-2.5 z"
         transform="translate(-164.8,-53.15)" />
      <path
         id="path58"
         fill="#cc9832"
         stroke="none"
         stroke-linecap="round"
         d="m 215,220.5 c 1.319,0.071 2.788,0.027 3.888,0.733 0.816,0.522 1.281,1.725 1.212,2.767 -0.013,0.483 -0.803,0.608 -1.4,0.7 -2.305,0.342 -4.611,0.513 -7,0.4 -1.073,-0.052 -2.254,-0.206 -3.1,-0.9 -0.438,-0.361 -0.102,-1.153 0.15,-1.7 0.324,-0.698 0.881,-1.455 1.6,-1.65 1.495,-0.514 3.132,-0.431 4.65,-0.35 z"
         transform="translate(-163.05,-58.5)" />
    </g>
    <g
       id="ID0.5157573288306594">
      <path
         id="ID0.49259263556450605"
         fill="url(#grad_1)"
         stroke="none"
         stroke-linecap="round"
         d="m 243,153.75 c 1.845,0.267 1.159,0.33 1.25,2.75 0.363,9.679 1.075,19.513 0,29.25 -0.266,2.329 -1.966,3.637 -3.75,4.5 -2.259,1.093 -4.948,0.75 -7.5,0.75 -2.882,0 -6.062,0.38 -8.75,-0.75 -1.952,-0.832 -3.917,-2.317 -4.25,-4.75 -1.331,-9.733 -0.663,-19.618 -0.25,-29.5 0.103,-2.471 -0.044,-2.094 1.75,-2.25 7.178,-0.626 14.434,-0.813 21.5,0 z"
         transform="matrix(1.608976,0,0,1.5191545,-305.55,-149.5)"
         style="fill:url(#grad_1)" />
      <path
         id="path62"
         fill="url(#grad_2)"
         stroke="none"
         stroke-linecap="round"
         d="m 243,153.75 c 1.845,0.267 1.159,0.33 1.25,2.75 0.363,9.679 1.075,19.513 0,29.25 -0.266,2.329 -1.966,3.637 -3.75,4.5 -2.259,1.093 -4.948,0.75 -7.5,0.75 -2.882,0 -6.062,0.38 -8.75,-0.75 -1.952,-0.832 -3.917,-2.317 -4.25,-4.75 -1.331,-9.733 -0.663,-19.618 -0.25,-29.5 0.103,-2.471 -0.044,-2.094 1.75,-2.25 7.178,-0.626 14.434,-0.813 21.5,0 z"
         transform="translate(-163.75,-58.5)"
         style="fill:url(#grad_2)" />
      <path
         id="ID0.9902052730321884"
         fill="#fccded"
         stroke="none"
         stroke-linecap="round"
         d="m 105.75,185.25 c 0.552,0 1.052,0.168 1.414,0.44 0.362,0.271 0.586,0.646 0.586,1.06 0,0.414 -0.224,0.789 -0.586,1.06 -0.362,0.272 -0.862,0.44 -1.414,0.44 -0.552,0 -1.052,-0.168 -1.414,-0.44 -0.362,-0.271 -0.586,-0.646 -0.586,-1.06 0,-0.414 0.224,-0.789 0.586,-1.06 0.362,-0.272 0.862,-0.44 1.414,-0.44 z"
         transform="translate(-37.5,-59.5)" />
    </g>
    <g
       id="ID0.35395473008975387">
      <path
         id="ID0.4081752202473581"
         fill="#fccd97"
         stroke="none"
         stroke-linecap="round"
         d="m 193.375,190 c 1.118,0.076 2.569,-1.446 3.375,-0.75 1.205,1.372 1.045,3.621 1,5.25 -0.03,1.149 -0.49,2.367 -1.282,3.181 -0.792,0.815 -1.886,1.319 -3.093,1.319 -1.207,0 -2.301,-0.504 -3.093,-1.319 -0.792,-0.814 -1.244,-2.035 -1.282,-3.181 -0.055,-1.619 -0.212,-3.879 1,-5.25 0.8,-0.698 2.231,0.67 3.375,0.75 z"
         transform="translate(-86.5,-64.75)" />
      <path
         id="ID0.30281658796593547"
         fill="url(#grad_3)"
         stroke="none"
         d="m 202.65,168 c 3.11,-1.787 6.739,-3.205 10.25,-3 1.508,0.202 2.874,2.822 2.1,4 -1.253,1.895 -4.337,1.567 -6.25,2.75 -2.457,1.674 -4.915,3.435 -6.75,5.75 -1.658,2.101 -2.644,5.051 -3.5,7.75 -0.924,2.916 0.466,7.174 -2,9.25 -1.737,1.544 -6.52,0.856 -7,-1.5 -1.114,-5.487 1.013,-11.372 3.65,-16.25 2.108,-3.903 5.782,-6.604 9.5,-8.75 z"
         transform="matrix(-1,0,0,1,300.15,-66)"
         style="fill:url(#grad_3)" />
      <path
         id="ID0.30041926680132747"
         fill="#cd9934"
         stroke="none"
         stroke-linecap="round"
         d="m 145,187 c 1.31,0 2.498,0.28 3.358,0.733 0.86,0.452 1.392,1.077 1.392,1.767 0,0.69 -0.532,1.315 -1.392,1.767 -0.86,0.453 -2.048,0.733 -3.358,0.733 -1.31,0 -2.498,-0.28 -3.358,-0.733 -0.86,-0.452 -1.392,-1.077 -1.392,-1.767 0,-0.69 0.532,-1.315 1.392,-1.767 C 142.502,187.28 143.69,187 145,187 Z"
         transform="translate(-38.25,-62.4)" />
    </g>
    <g
       id="ID0.1456865668296814">
      <path
         id="path70"
         fill="#fccd97"
         stroke="none"
         stroke-linecap="round"
         d="m 193.375,190 c 1.118,0.076 2.569,-1.446 3.375,-0.75 1.205,1.372 1.045,3.621 1,5.25 -0.03,1.149 -0.49,2.367 -1.282,3.181 -0.792,0.815 -1.886,1.319 -3.093,1.319 -1.207,0 -2.301,-0.504 -3.093,-1.319 -0.792,-0.814 -1.244,-2.035 -1.282,-3.181 -0.055,-1.619 -0.212,-3.879 1,-5.25 0.8,-0.698 2.231,0.67 3.375,0.75 z"
         transform="translate(-163.5,-64.25)" />
      <path
         id="path72"
         fill="url(#grad_4)"
         stroke="none"
         d="m 204,166.5 c 2.025,-1.299 4.812,-1.761 7.25,-1.25 1.728,0.363 4.259,2.229 3.75,3.75 -0.625,1.844 -4.337,1.567 -6.25,2.75 -2.457,1.674 -4.915,3.435 -6.75,5.75 -1.658,2.101 -2.644,5.051 -3.5,7.75 -0.924,2.916 0.466,7.174 -2,9.25 -1.737,1.544 -6.576,0.846 -7,-1.5 -0.975,-5.408 1.17,-11.029 3.75,-15.75 2.389,-4.398 6.533,-7.888 10.75,-10.75 z"
         transform="translate(-163.75,-65.75)"
         style="fill:url(#grad_4)" />
      <path
         id="path74"
         fill="#cd9934"
         stroke="none"
         stroke-linecap="round"
         d="m 145,187 c 1.31,0 2.498,0.28 3.358,0.733 0.86,0.452 1.392,1.077 1.392,1.767 0,0.69 -0.532,1.315 -1.392,1.767 -0.86,0.453 -2.048,0.733 -3.358,0.733 -1.31,0 -2.498,-0.28 -3.358,-0.733 -0.86,-0.452 -1.392,-1.077 -1.392,-1.767 0,-0.69 0.532,-1.315 1.392,-1.767 C 142.502,187.28 143.69,187 145,187 Z"
         transform="translate(-115,-62)" />
    </g>
    <g
       id="ID0.9301250060088933">
      <path
         id="ID0.676788670476526"
         fill="#cd9934"
         stroke="none"
         d="m 216.125,148.5 c 1.966,0 3.747,0.896 5.037,2.345 1.29,1.448 2.088,3.448 2.088,5.655 0,2.207 -0.798,4.207 -2.088,5.655 -1.29,1.449 -3.071,2.345 -5.037,2.345 -1.966,0 -3.747,-0.896 -5.037,-2.345 -1.29,-1.448 -2.088,-3.448 -2.088,-5.655 0,-2.207 0.798,-4.207 2.088,-5.655 1.29,-1.449 3.071,-2.345 5.037,-2.345 z"
         transform="translate(-167.75,-59.5)" />
      <path
         id="path78"
         fill="#cd9934"
         stroke="none"
         d="m 216.125,148.5 c 1.966,0 3.747,0.896 5.037,2.345 1.29,1.448 2.088,3.448 2.088,5.655 0,2.207 -0.798,4.207 -2.088,5.655 -1.29,1.449 -3.071,2.345 -5.037,2.345 -1.966,0 -3.747,-0.896 -5.037,-2.345 -1.29,-1.448 -2.088,-3.448 -2.088,-5.655 0,-2.207 0.798,-4.207 2.088,-5.655 1.29,-1.449 3.071,-2.345 5.037,-2.345 z"
         transform="translate(-155.15,-59.75)" />
      <path
         id="path80"
         fill="#cd9934"
         stroke="none"
         d="m 216.125,148.5 c 1.966,0 3.747,0.896 5.037,2.345 1.29,1.448 2.088,3.448 2.088,5.655 0,2.207 -0.798,4.207 -2.088,5.655 -1.29,1.449 -3.071,2.345 -5.037,2.345 -1.966,0 -3.747,-0.896 -5.037,-2.345 -1.29,-1.448 -2.088,-3.448 -2.088,-5.655 0,-2.207 0.798,-4.207 2.088,-5.655 1.29,-1.449 3.071,-2.345 5.037,-2.345 z"
         transform="translate(-141.25,-59.75)" />
      <path
         id="path82"
         fill="#cd9934"
         stroke="none"
         d="m 216.125,148.5 c 1.966,0 3.747,0.896 5.037,2.345 1.29,1.448 2.088,3.448 2.088,5.655 0,2.207 -0.798,4.207 -2.088,5.655 -1.29,1.449 -3.071,2.345 -5.037,2.345 -1.966,0 -3.747,-0.896 -5.037,-2.345 -1.29,-1.448 -2.088,-3.448 -2.088,-5.655 0,-2.207 0.798,-4.207 2.088,-5.655 1.29,-1.449 3.071,-2.345 5.037,-2.345 z"
         transform="translate(-127.5,-60)" />
      <path
         id="ID0.303304610773921"
         fill="#cd9934"
         stroke="none"
         d="m 232,147 c 6.139,0 11.701,0.686 15.729,1.795 4.028,1.109 6.521,2.64 6.521,4.33 0,1.69 -2.493,3.221 -6.521,4.33 -4.028,1.109 -9.59,1.795 -15.729,1.795 -6.139,0 -11.701,-0.686 -15.729,-1.795 -4.028,-1.109 -6.521,-2.64 -6.521,-4.33 0,-1.69 2.493,-3.221 6.521,-4.33 C 220.299,147.686 225.861,147 232,147 Z"
         transform="translate(-164.5,-60.25)" />
    </g>
    <g
       id="ID0.9992362693883479">
      <g
         id="ID0.7608959171921015">
        <path
           id="ID0.1028266386128962"
           fill="url(#grad_5)"
           stroke="none"
           d="m 186,95.75 c 3.656,0 6.968,1.401 9.367,3.664 2.398,2.262 3.883,5.387 3.883,8.836 0,3.449 -1.485,6.574 -3.883,8.836 -2.399,2.263 -5.711,3.664 -9.367,3.664 -3.656,0 -6.968,-1.401 -9.367,-3.664 -2.398,-2.262 -3.883,-5.387 -3.883,-8.836 0,-3.449 1.485,-6.574 3.883,-8.836 2.399,-2.263 5.711,-3.664 9.367,-3.664 z"
           transform="translate(-159,-63)"
           style="fill:url(#grad_5)" />
        <path
           id="ID0.6595424772240222"
           fill="#fecc99"
           stroke="none"
           d="m 184.125,99.75 c 2.242,0 4.273,0.84 5.744,2.198 1.471,1.358 2.381,3.233 2.381,5.302 0,2.069 -0.91,3.944 -2.381,5.302 -1.471,1.358 -3.502,2.198 -5.744,2.198 -2.242,0 -4.273,-0.84 -5.744,-2.198 -1.471,-1.358 -2.381,-3.233 -2.381,-5.302 0,-2.069 0.91,-3.944 2.381,-5.302 1.471,-1.358 3.502,-2.198 5.744,-2.198 z"
           transform="matrix(1,0,0,1.05,-158,-67.25)" />
      </g>
      <g
         id="ID0.45486381743103266">
        <path
           id="path89"
           fill="url(#grad_6)"
           stroke="none"
           d="m 186,95.75 c 3.656,0 6.968,1.401 9.367,3.664 2.398,2.262 3.883,5.387 3.883,8.836 0,3.449 -1.485,6.574 -3.883,8.836 -2.399,2.263 -5.711,3.664 -9.367,3.664 -3.656,0 -6.968,-1.401 -9.367,-3.664 -2.398,-2.262 -3.883,-5.387 -3.883,-8.836 0,-3.449 1.485,-6.574 3.883,-8.836 2.399,-2.263 5.711,-3.664 9.367,-3.664 z"
           transform="translate(-77.25,-62.75)"
           style="fill:url(#grad_6)" />
        <path
           id="path91"
           fill="#fecc99"
           stroke="none"
           d="m 184.125,99.75 c 2.242,0 4.273,0.84 5.744,2.198 1.471,1.358 2.381,3.233 2.381,5.302 0,2.069 -0.91,3.944 -2.381,5.302 -1.471,1.358 -3.502,2.198 -5.744,2.198 -2.242,0 -4.273,-0.84 -5.744,-2.198 -1.471,-1.358 -2.381,-3.233 -2.381,-5.302 0,-2.069 0.91,-3.944 2.381,-5.302 1.471,-1.358 3.502,-2.198 5.744,-2.198 z"
           transform="matrix(1,0,0,1.05,-74,-67)" />
      </g>
      <g
         id="ID0.29344215244054794">
        <g
           id="ID0.08768309932202101">
          <g
             id="ID0.4464206430129707">
            <path
               id="ID0.012127960566431284"
               fill="#cd9933"
               stroke="none"
               d="m 232.5,97.5 c 9.932,0 18.932,3.978 25.449,10.404 6.517,6.427 10.551,15.302 10.551,25.096 0,9.794 -4.034,18.669 -10.551,25.096 -6.517,6.426 -15.517,10.404 -25.449,10.404 -9.932,0 -18.932,-3.978 -25.449,-10.404 C 200.534,151.669 196.5,142.794 196.5,133 c 0,-9.794 4.034,-18.669 10.551,-25.096 C 213.568,101.478 222.568,97.5 232.5,97.5 Z"
               transform="matrix(1.1267606,0,0,1.1267606,-193.65,-102.25)" />
            <path
               id="ID0.8087072358466685"
               fill="#ffcb99"
               stroke="none"
               stroke-linecap="round"
               d="m 239.5,104.25 c 5.596,-0.34 11.535,0.977 16,4 5.06,3.503 9.031,8.849 11,14.5 1.763,5.024 0.269,10.585 0,16 -0.067,1.354 -0.928,-0.568 -0.5,0 1.71,2.271 4.302,4.118 5.75,6.75 0.96,2.101 1.644,4.665 1.25,7 -0.655,3.876 -1.26,8.452 -4.25,11 -5.781,4.904 -13.327,8.437 -21,10 -9.209,1.933 -18.933,1.655 -28.5,0.25 -7.101,-1.044 -14.25,-3.423 -20.25,-7.5 -3.323,-2.344 -5.187,-6.635 -6.25,-10.75 -0.837,-3.249 0.031,-6.694 1.25,-10 0.925,-2.499 3.267,-4.173 5,-6.25 0.433,-0.519 0.865,-0.342 1,-1.5 0.54,-4.631 -0.796,-9.519 0.5,-14 1.439,-4.959 3.764,-10.518 8,-14 4.149,-3.298 9.873,-4.899 15.5,-5 3.283,-0.055 5.818,3.339 8.5,5 0.671,0.415 -1.04,0.465 -0.5,0 2.153,-1.857 4.404,-5.311 7.5,-5.5 z"
               transform="translate(-165.25,-81.5)" />
          </g>
          <path
             id="ID0.4197602206841111"
             fill="url(#grad_7)"
             stroke="none"
             stroke-linecap="round"
             d="m 226.375,126 c 4.176,0.006 8.615,-0.644 12.225,1.25 3.083,1.625 6.142,4.752 6.3,8.1 0.081,3.417 -2.748,6.748 -5.712,8.359 -3.808,2.07 -8.633,1.498 -13.038,1.441 -4.188,0.057 -8.772,0.491 -12.588,-1.441 -3.023,-1.529 -6.205,-4.503 -6.412,-7.909 -0.006,-3.333 2.928,-6.731 5.9,-8.3 3.952,-2.087 8.862,-1.505 13.325,-1.5 z"
             transform="matrix(1.1445783,0,0,1.1445783,-190.6,-80.65)"
             style="fill:url(#grad_7)" />
          <path
             id="ID0.7313267411664128"
             fill="url(#grad_8)"
             stroke="none"
             stroke-linecap="round"
             d="m 203.75,132.25 c 1.724,0 3.287,0.644 4.418,1.685 1.132,1.041 1.832,2.479 1.832,4.065 0,1.586 -0.7,3.024 -1.832,4.065 -1.131,1.041 -2.694,1.685 -4.418,1.685 -1.724,0 -3.287,-0.644 -4.418,-1.685 -1.132,-1.041 -1.832,-2.479 -1.832,-4.065 0,-1.586 0.7,-3.024 1.832,-4.065 1.131,-1.041 2.694,-1.685 4.418,-1.685 z"
             transform="translate(-164.5,-61)"
             style="fill:url(#grad_8)" />
          <path
             id="path99"
             fill="url(#grad_9)"
             stroke="none"
             d="m 203.75,132.25 c 1.724,0 3.287,0.644 4.418,1.685 1.132,1.041 1.832,2.479 1.832,4.065 0,1.586 -0.7,3.024 -1.832,4.065 -1.131,1.041 -2.694,1.685 -4.418,1.685 -1.724,0 -3.287,-0.644 -4.418,-1.685 -1.132,-1.041 -1.832,-2.479 -1.832,-4.065 0,-1.586 0.7,-3.024 1.832,-4.065 1.131,-1.041 2.694,-1.685 4.418,-1.685 z"
             transform="translate(-106.75,-62.25)"
             style="fill:url(#grad_9)" />
        </g>
        <path
           id="ID0.3959277127869427"
           fill="#cd9933"
           stroke="none"
           stroke-linecap="round"
           d="m 71,81 c 0.685,-0.011 0.597,3.136 1.5,4.5 0.891,1.257 2.578,1.756 3.75,2.75 0.944,0.799 2.395,1.274 2.75,2.5 0.32,0.743 -0.488,1.554 -1.136,2.181 -0.74,0.71 -1.67,1.319 -2.739,1.319 -1.069,0 -2.24,-0.438 -2.739,-1.319 C 71.05,90.412 70.007,87.94 69.75,85.25 69.605,83.649 70.44,80.885 71,81 Z"
           transform="translate(-8.5,-81)" />
      </g>
      <g
         id="ID0.44282918609678745">
        <path
           id="ID0.9467326030135155"
           fill="#ffffff"
           stroke="none"
           d="m 208.75,122 c 2.069,0 3.944,1.401 5.302,3.664 1.358,2.262 2.198,5.387 2.198,8.836 0,3.449 -0.84,6.574 -2.198,8.836 -1.358,2.263 -3.233,3.664 -5.302,3.664 -2.069,0 -3.944,-1.401 -5.302,-3.664 -1.358,-2.262 -2.198,-5.387 -2.198,-8.836 0,-3.449 0.84,-6.574 2.198,-8.836 1.358,-2.263 3.233,-3.664 5.302,-3.664 z"
           transform="translate(-161.05,-78.75)" />
        <path
           id="ID0.8799754590727389"
           fill="#9a6732"
           stroke="none"
           d="m 210.875,108.25 c 1.207,0 2.301,0.742 3.093,1.942 0.792,1.199 1.282,2.855 1.282,4.683 0,1.828 -0.49,3.484 -1.282,4.683 -0.792,1.2 -1.886,1.942 -3.093,1.942 -1.207,0 -2.301,-0.742 -3.093,-1.942 -0.792,-1.199 -1.282,-2.855 -1.282,-4.683 0,-1.828 0.49,-3.484 1.282,-4.683 0.792,-1.2 1.886,-1.942 3.093,-1.942 z"
           transform="matrix(1,0,0,1.0566038,-159.8,-65.1)" />
      </g>
      <g
         id="g111">
        <path
           id="path107"
           fill="#ffffff"
           stroke="none"
           d="m 208.75,122 c 2.069,0 3.944,1.401 5.302,3.664 1.358,2.262 2.198,5.387 2.198,8.836 0,3.449 -0.84,6.574 -2.198,8.836 -1.358,2.263 -3.233,3.664 -5.302,3.664 -2.069,0 -3.944,-1.401 -5.302,-3.664 -1.358,-2.262 -2.198,-5.387 -2.198,-8.836 0,-3.449 0.84,-6.574 2.198,-8.836 1.358,-2.263 3.233,-3.664 5.302,-3.664 z"
           transform="translate(-120.25,-78.25)" />
        <path
           id="path109"
           fill="#9a6732"
           stroke="none"
           d="m 210.875,108.25 c 1.207,0 2.301,0.742 3.093,1.942 0.792,1.199 1.282,2.855 1.282,4.683 0,1.828 -0.49,3.484 -1.282,4.683 -0.792,1.2 -1.886,1.942 -3.093,1.942 -1.207,0 -2.301,-0.742 -3.093,-1.942 -0.792,-1.199 -1.282,-2.855 -1.282,-4.683 0,-1.828 0.49,-3.484 1.282,-4.683 0.792,-1.2 1.886,-1.942 3.093,-1.942 z"
           transform="matrix(1,0,0,1.0566038,-119,-64.6)" />
      </g>
      <g
         id="ID0.7243713932111859">
        <path
           id="ID0.45482554798945785"
           fill="#343432"
           stroke="none"
           d="m 226.5,122.5 c 1.931,0 3.681,0.448 4.948,1.172 1.268,0.724 2.052,1.724 2.052,2.828 0,1.104 -0.784,2.104 -2.052,2.828 -1.267,0.724 -3.017,1.172 -4.948,1.172 -1.931,0 -3.681,-0.448 -4.948,-1.172 -1.268,-0.724 -2.052,-1.724 -2.052,-2.828 0,-1.104 0.784,-2.104 2.052,-2.828 1.267,-0.724 3.017,-1.172 4.948,-1.172 z"
           transform="translate(-158,-60)" />
        <path
           id="ID0.49038872541859746"
           fill="none"
           stroke="#343432"
           stroke-width="3"
           stroke-linecap="round"
           d="M 226.25,125.5 V 136"
           transform="translate(-158,-58.5)" />
        <path
           id="ID0.7079106429591775"
           fill="none"
           stroke="#343432"
           stroke-width="3"
           stroke-linecap="round"
           d="M 218.25,136.25 H 235"
           transform="translate(-158,-58.5)" />
      </g>
    </g>
  </g>
</svg>
