<svg version="1.1" width="274" height="249" viewBox="9 22 274 249" xmlns="http://www.w3.org/2000/svg" xmlns:xlink="http://www.w3.org/1999/xlink">
  <!-- Exported by Scratch - http://scratch.mit.edu/ -->
  <g id="ID0.8665216066874564" transform="matrix(1, 0, 0, 1, -196, -135)">
    <g id="R_Arm" transform="matrix(1, 0, 0, 1, 196, 135)">
      <path id="Arm_1_" fill="#594A42" stroke="#000000" stroke-width="2" d="M 291.202 417.848 C 294.269 418.354 305.893 420.368 310.575 426.912 C 316.487 435.180 318.491 441.639 318.493 441.711 C 318.667 447.197 328.413 450.031 328.413 440.465 L 328.413 440.465 C 328.364 440.049 327.073 430.192 317.974 420.184 C 307.617 408.797 292.210 407.428 287.730 407.760 C 287.730 407.760 284.658 408.190 284.999 411.692 C 285.334 415.191 291.202 417.848 291.202 417.848 L 291.202 417.848 L 291.202 417.848 L 291.202 417.848 L 291.202 417.848 L 291.202 417.848 L 291.202 417.848 L 291.202 417.848 L 291.202 417.848 L 291.202 417.848 L 291.202 417.848 L 291.202 417.848 L 291.202 417.848 Z " transform="matrix(0.4864557385444641, 0, 0, 0.4864557385444641, -83.1, -129.85)"/>
      <path id="Hand_1_" fill="#9B8579" stroke="#000000" stroke-width="2" d="M 316.043 445.732 C 316.043 445.732 312.772 456.683 316.781 457.650 C 320.789 458.619 320.998 452.119 320.998 452.119 C 320.998 452.119 328.439 465.228 336.250 458.908 C 344.061 452.590 332.109 441.213 332.109 441.213 C 332.109 441.213 328.228 438.725 323.638 439.651 C 319.055 440.574 316.043 445.732 316.043 445.732 L 316.043 445.732 L 316.043 445.732 L 316.043 445.732 L 316.043 445.732 L 316.043 445.732 L 316.043 445.732 L 316.043 445.732 L 316.043 445.732 L 316.043 445.732 L 316.043 445.732 L 316.043 445.732 L 316.043 445.732 Z " transform="matrix(0.4864557385444641, 0, 0, 0.4864557385444641, -83.1, -129.85)"/>
    </g>
    <g id="L_Arm" transform="matrix(1, 0, 0, 1, 196, 135)">
      <path id="Arm" fill="#594A42" stroke="#000000" stroke-width="2" d="M 262.930 412.344 C 262.852 408.826 259.750 408.766 259.750 408.766 C 255.263 408.969 240.128 412.159 231.199 424.696 C 223.354 435.716 223.244 445.655 223.245 446.075 L 223.245 446.075 C 224.383 455.573 233.722 451.602 233.243 446.134 C 233.237 446.062 234.457 439.409 239.346 430.497 C 243.215 423.444 254.517 420.061 257.503 419.194 C 257.502 419.193 263.012 415.857 262.930 412.344 L 262.930 412.344 L 262.930 412.344 L 262.930 412.344 L 262.930 412.344 L 262.930 412.344 L 262.930 412.344 L 262.930 412.344 L 262.930 412.344 L 262.930 412.344 L 262.930 412.344 L 262.930 412.344 L 262.930 412.344 Z " transform="matrix(0.4864557385444641, 0, 0, 0.4864557385444641, -83.1, -129.85)"/>
      <path id="Hand" fill="#9B8579" stroke="#000000" stroke-width="2" d="M 227.887 444.697 C 223.220 444.324 219.663 447.256 219.663 447.256 C 219.663 447.256 209.149 459.975 217.656 465.318 C 226.163 470.666 231.992 456.763 231.992 456.763 C 231.992 456.763 232.971 463.193 236.837 461.755 C 240.703 460.317 236.153 449.833 236.153 449.833 C 236.153 449.833 232.549 445.070 227.887 444.697 L 227.887 444.697 L 227.887 444.697 L 227.887 444.697 L 227.887 444.697 L 227.887 444.697 L 227.887 444.697 L 227.887 444.697 L 227.887 444.697 L 227.887 444.697 L 227.887 444.697 L 227.887 444.697 L 227.887 444.697 Z " transform="matrix(0.4864557385444641, 0, 0, 0.4864557385444641, -83.1, -129.85)"/>
    </g>
    <path id="Tail" fill="#594A42" stroke="#000000" stroke-width="2" d="M 248.180 495.502 C 239.803 498.389 229.494 499.924 216.949 498.746 C 188.464 496.074 175.080 472.461 171.983 460.348 C 171.162 457.137 173.099 453.866 176.309 453.047 C 179.520 452.229 182.788 454.164 183.608 457.375 C 183.892 458.451 190.997 484.260 218.070 486.801 C 255.492 490.313 268.251 465.348 268.777 464.283 C 270.237 461.324 273.820 460.080 276.788 461.523 C 279.757 462.964 281.012 466.517 279.586 469.494 C 279.106 470.492 270.528 487.803 248.180 495.502 L 248.180 495.502 L 248.180 495.502 L 248.180 495.502 L 248.180 495.502 L 248.180 495.502 L 248.180 495.502 L 248.180 495.502 L 248.180 495.502 L 248.180 495.502 L 248.180 495.502 L 248.180 495.502 L 248.180 495.502 L 248.180 495.502 Z " transform="matrix(0.4864557385444641, 0, 0, 0.4864557385444641, 112.9, 5.15)"/>
    <g id="L_Leg" transform="matrix(1, 0, 0, 1, 196, 135)">
      <path id="Leg_1_" fill="#594A42" stroke="#000000" stroke-width="2" d="M 254.948 518.365 C 251.844 516.467 249.648 511.666 248.594 507.697 C 246.990 501.654 245.938 497.386 247.594 486.543 C 248.551 480.283 253.016 471.635 253.016 471.635 C 253.016 471.635 256.260 464.365 261.600 467.197 C 264.432 468.715 261.600 477.056 261.600 477.056 C 261.600 477.056 259.357 483.999 258.739 495.126 C 258.289 503.259 263.157 514.126 261.927 518.530 C 261.465 520.186 258.055 520.266 254.948 518.365 L 254.948 518.365 L 254.948 518.365 L 254.948 518.365 L 254.948 518.365 L 254.948 518.365 L 254.948 518.365 L 254.948 518.365 L 254.948 518.365 L 254.948 518.365 L 254.948 518.365 L 254.948 518.365 L 254.948 518.365 Z " transform="matrix(0.4864557385444641, 0, 0, 0.4864557385444641, -83.1, -129.85)"/>
      <path id="Foot_1_" fill="#C2B59B" stroke="#000000" stroke-width="2" stroke-linecap="round" stroke-linejoin="round" d="M 263.408 520.881 C 263.408 520.881 260.398 501.303 238.411 502.205 C 216.423 503.109 217.221 516.041 217.476 519.373 C 218.080 527.203 228.622 527.055 228.622 527.055 L 263.560 523.442 L 263.408 520.881 L 263.408 520.881 L 263.408 520.881 L 263.408 520.881 L 263.408 520.881 L 263.408 520.881 L 263.408 520.881 L 263.408 520.881 L 263.408 520.881 L 263.408 520.881 L 263.408 520.881 L 263.408 520.881 L 263.408 520.881 Z " transform="matrix(0.4864557385444641, 0, 0, 0.4864557385444641, -83.1, -129.85)"/>
    </g>
    <g id="R_Leg" transform="matrix(1, 0, 0, 1, 196, 135)">
      <path id="Leg" fill="#594A42" stroke="#000000" stroke-width="2" d="M 292.833 518.531 C 291.604 514.127 296.472 503.260 296.021 495.127 C 295.403 484 293.160 477.057 293.160 477.057 C 293.160 477.057 290.328 468.715 293.160 467.198 C 298.500 464.366 301.744 471.636 301.744 471.636 C 301.744 471.636 306.209 480.284 307.165 486.544 C 308.821 497.388 307.770 501.655 306.165 507.698 C 305.111 511.667 302.915 516.468 299.811 518.366 C 296.706 520.266 293.295 520.186 292.833 518.531 L 292.833 518.531 L 292.833 518.531 L 292.833 518.531 L 292.833 518.531 L 292.833 518.531 L 292.833 518.531 L 292.833 518.531 L 292.833 518.531 L 292.833 518.531 L 292.833 518.531 L 292.833 518.531 L 292.833 518.531 Z " transform="matrix(0.4864557385444641, 0, 0, 0.4864557385444641, -83.1, -129.85)"/>
      <path id="Foot" fill="#C2B59B" stroke="#000000" stroke-width="2" stroke-linecap="round" stroke-linejoin="round" d="M 291.202 523.441 L 326.139 527.054 C 326.139 527.054 336.680 527.202 337.285 519.372 C 337.541 516.040 338.338 503.108 316.349 502.204 C 294.362 501.302 291.352 520.880 291.352 520.880 L 291.202 523.441 L 291.202 523.441 L 291.202 523.441 L 291.202 523.441 L 291.202 523.441 L 291.202 523.441 L 291.202 523.441 L 291.202 523.441 L 291.202 523.441 L 291.202 523.441 L 291.202 523.441 L 291.202 523.441 L 291.202 523.441 Z " transform="matrix(0.4864557385444641, 0, 0, 0.4864557385444641, -83.1, -129.85)"/>
    </g>
    <g id="Body_1_" transform="matrix(1, 0, 0, 1, 196, 135)">
      <path id="Body" fill="#594A42" stroke="#000000" stroke-width="2" d="M 303.038 469.514 C 308.524 461.946 310.174 451.301 307.455 441.041 C 305.153 432.353 306.091 435.701 300.752 423.637 C 288.648 396.284 263.558 393.032 253.787 413.080 C 250.021 420.807 249.191 424.510 249.194 424.553 L 249.207 424.748 L 249.144 424.943 C 249.091 425.101 243.851 440.845 245.527 454.562 C 247.088 467.337 259.268 480.271 279.529 480.271 C 280.471 480.271 281.437 480.244 282.399 480.189 C 291.206 479.684 298.341 475.992 303.038 469.514 L 303.038 469.514 L 303.038 469.514 L 303.038 469.514 L 303.038 469.514 L 303.038 469.514 L 303.038 469.514 L 303.038 469.514 L 303.038 469.514 L 303.038 469.514 L 303.038 469.514 L 303.038 469.514 L 303.038 469.514 Z " transform="matrix(0.4864557385444641, 0, 0, 0.4864557385444641, -83.1, -129.85)"/>
      <path id="Belly" fill="#C2B59B" stroke="#000000" stroke-width="2" d="M 258.551 474.311 C 257.671 472.272 254.300 463.655 255.522 453.973 C 256.923 442.875 263.927 434.793 275.238 433.717 C 286.549 432.641 296.138 440.936 299.262 452.031 C 301.391 459.592 301.694 469.148 301.735 471.228 L 301.722 471.423 C 297.239 476.220 290.837 479.452 282.454 479.935 C 272.829 480.488 264.817 478.304 258.665 474.519 L 258.551 474.311 L 258.551 474.311 L 258.551 474.311 L 258.551 474.311 L 258.551 474.311 L 258.551 474.311 L 258.551 474.311 L 258.551 474.311 L 258.551 474.311 L 258.551 474.311 L 258.551 474.311 L 258.551 474.311 L 258.551 474.311 Z " transform="matrix(0.4864557385444641, 0, 0, 0.4864557385444641, -83.1, -129.85)"/>
    </g>
    <g id="R_Ear" transform="matrix(1, 0, 0, 1, 196, 135)">
      <path id="Ear_1_" fill="#9B8579" stroke="#000000" stroke-width="2" d="M 320.205 348.907 C 320.205 348.907 325.975 348.530 330.256 345.673 C 336.633 341.416 337.936 331.768 331.912 322.398 C 325.889 313.029 320.775 312.728 316.185 314.988 C 312.927 316.592 312.162 320.817 312.029 321.751 L 312.002 321.859 C 317.389 335.293 318.115 347.250 318.115 347.250 C 318.115 347.250 319.637 347.960 320.205 348.907 L 320.205 348.907 L 320.205 348.907 L 320.205 348.907 L 320.205 348.907 L 320.205 348.907 L 320.205 348.907 L 320.205 348.907 L 320.205 348.907 L 320.205 348.907 L 320.205 348.907 L 320.205 348.907 L 320.205 348.907 Z " transform="matrix(0.4864557385444641, 0, 0, 0.4864557385444641, -83.1, -129.85)"/>
      <path id="Inner_Ear_1_" fill="none" stroke="#000000" stroke-width="4" stroke-linecap="round" d="M 324.357 328.919 C 324.357 328.919 322.777 333.378 316.169 335.590 " transform="matrix(0.4864557385444641, 0, 0, 0.4864557385444641, -83.1, -129.85)"/>
    </g>
    <g id="L_Ear" transform="matrix(1, 0, 0, 1, 196, 135)">
      <path id="Ear" fill="#9B8579" stroke="#000000" stroke-width="2" d="M 211.912 333.698 C 211.912 333.698 211.124 328.656 207.972 327.868 C 204.820 327.080 197.256 326.608 192.528 336.693 C 187.800 346.778 190.371 356.169 197.256 359.544 C 201.026 361.391 205.568 361.167 207.112 361.023 C 207.112 361.023 209.803 358.136 210.498 357.520 C 210.498 357.519 209.871 347.216 211.965 334.369 L 211.912 333.698 L 211.912 333.698 L 211.912 333.698 L 211.912 333.698 L 211.912 333.698 L 211.912 333.698 L 211.912 333.698 L 211.912 333.698 L 211.912 333.698 L 211.912 333.698 L 211.912 333.698 L 211.912 333.698 L 211.912 333.698 Z " transform="matrix(0.4864557385444641, 0, 0, 0.4864557385444641, -83.1, -129.85)"/>
      <path id="Inner_Ear" fill="none" stroke="#000000" stroke-width="4" stroke-linecap="round" stroke-linejoin="round" d="M 201.842 342.540 C 201.842 342.540 203.999 346.750 210.841 348.065 " transform="matrix(0.4864557385444641, 0, 0, 0.4864557385444641, -83.1, -129.85)"/>
    </g>
    <path id="Head_1_" fill="#726658" stroke="#000000" stroke-width="2" d="M 320.145 347.784 C 316.672 345.780 313.237 344.597 310.891 343.945 L 310.871 343.844 C 310.871 343.844 300.518 302.125 278.143 302.125 C 267.250 302.125 261.143 320.625 261.143 320.625 C 261.143 320.625 253.476 302.958 237.060 305.708 C 218.593 308.802 216.720 349.290 216.596 352.646 L 216.602 352.859 C 214.586 354.056 212.112 355.740 209.688 357.937 L 209.683 357.705 C 209.488 353.656 207.459 297.088 246.257 286.822 L 246.286 286.704 C 246.181 285.424 246.136 282.709 246.956 278.564 C 248.136 272.603 251.744 267.626 251.744 267.626 C 251.744 267.626 252.694 272.775 255.269 276.501 C 257.919 280.335 260.244 281.476 260.244 281.476 C 260.244 281.476 259.437 278.499 259.567 276.128 C 259.832 271.314 262.143 268.925 262.143 268.925 C 262.143 268.925 264.945 275.776 268.445 279.726 C 272.188 283.951 276.721 286.714 276.721 286.714 L 276.787 286.732 C 317.039 296.742 320.116 347.250 320.116 347.250 L 320.145 347.784 L 320.145 347.784 L 320.145 347.784 L 320.145 347.784 L 320.145 347.784 L 320.145 347.784 L 320.145 347.784 L 320.145 347.784 L 320.145 347.784 L 320.145 347.784 L 320.145 347.784 L 320.145 347.784 L 320.145 347.784 Z " transform="matrix(0.4864557385444641, 0, 0, 0.4864557385444641, 112.9, 5.15)"/>
    <path id="Face" fill="#C2B59B" stroke="#000000" stroke-width="2" d="M 310.871 343.844 C 310.871 343.844 300.518 302.125 278.143 302.125 C 267.250 302.125 261.143 320.625 261.143 320.625 C 261.143 320.625 253.476 302.958 237.060 305.708 C 218.531 308.812 216.708 349.559 216.595 352.678 L 216.532 352.901 C 209.992 356.801 202.083 364.511 203.242 379.500 C 204.867 400.500 231.875 416.070 273.304 411.750 C 317.641 407.125 334.327 385.844 329.305 363.563 C 326.391 350.633 316.877 345.623 310.951 343.964 L 310.871 343.844 L 310.871 343.844 L 310.871 343.844 L 310.871 343.844 L 310.871 343.844 L 310.871 343.844 L 310.871 343.844 L 310.871 343.844 L 310.871 343.844 L 310.871 343.844 L 310.871 343.844 L 310.871 343.844 L 310.871 343.844 Z " transform="matrix(0.4864557385444641, 0, 0, 0.4864557385444641, 112.9, 5.15)"/>
    <path id="Mouth" d="M 283.162 378.388 C 282.549 377.483 281.310 377.248 280.396 377.846 C 280.362 377.869 276.813 380.113 266.562 380.958 C 264.958 375.152 265.961 371.469 265.979 371.409 C 266.133 370.881 265.833 370.326 265.304 370.169 C 264.770 370.011 264.218 370.314 264.060 370.842 C 264.006 371.023 262.904 374.919 264.529 381.101 C 254.916 381.652 251.006 380.130 250.899 380.087 C 249.894 379.655 248.724 380.110 248.279 381.114 C 247.832 382.124 248.288 383.305 249.298 383.752 C 249.703 383.932 252.897 385.230 260.421 385.230 C 262.145 385.230 264.097 385.162 266.294 384.996 C 278.124 384.106 282.235 381.441 282.665 381.141 C 283.560 380.513 283.774 379.292 283.162 378.388 L 283.162 378.388 L 283.162 378.388 L 283.162 378.388 L 283.162 378.388 L 283.162 378.388 L 283.162 378.388 L 283.162 378.388 L 283.162 378.388 L 283.162 378.388 L 283.162 378.388 L 283.162 378.388 L 283.162 378.388 Z " transform="matrix(0.48645085096359253, 0.0021844382863491774, -0.0021844382863491774, 0.48645085096359253, 113.55, 7)"/>
    <path id="Nose" fill="#726658" stroke="#000000" stroke-width="2" d="M 264.082 356.001 C 268.203 356.001 271.938 356.848 274.642 358.217 C 277.346 359.586 279.020 361.477 279.020 363.563 C 279.020 365.649 277.346 367.540 274.642 368.909 C 271.938 370.278 268.203 371.125 264.082 371.125 C 259.961 371.125 256.226 370.278 253.522 368.909 C 250.818 367.540 249.144 365.649 249.144 363.563 C 249.144 361.477 250.818 359.586 253.522 358.217 C 256.226 356.848 259.961 356.001 264.082 356.001 L 264.082 356.001 L 264.082 356.001 L 264.082 356.001 L 264.082 356.001 L 264.082 356.001 L 264.082 356.001 L 264.082 356.001 L 264.082 356.001 L 264.082 356.001 L 264.082 356.001 L 264.082 356.001 Z " transform="matrix(0.399894118309021, -0.014281933195888996, 0.014281933195888996, 0.399894118309021, 130.6, 43.95)"/>
    <g id="L_Eye_1_" transform="matrix(1, 0, 0, 1, 196, 135)">
      <path id="White" fill="#F1F2F2" d="M 297.542 352.173 C 297.797 345.977 297.822 323.785 284.994 325.112 C 270.764 326.584 276.793 350.737 277.363 352.904 L 277.373 353.064 C 279.452 352.648 282.557 352.161 286.407 351.958 C 292.144 351.657 296.068 352.063 297.498 352.255 L 297.542 352.173 L 297.542 352.173 L 297.542 352.173 L 297.542 352.173 L 297.542 352.173 L 297.542 352.173 L 297.542 352.173 L 297.542 352.173 L 297.542 352.173 L 297.542 352.173 L 297.542 352.173 L 297.542 352.173 L 297.542 352.173 Z " transform="matrix(0.4864557385444641, 0, 0, 0.4864557385444641, -81.85, -126.1)"/>
      <path id="Pupil" fill="#594A42" stroke="#000000" stroke-width="2" d="M 283.205 351.505 C 283.205 351.505 279.521 332.255 286.057 332.255 C 292.590 332.255 293.066 351.505 293.066 351.505 " transform="matrix(0.4864557385444641, 0, 0, 0.4864557385444641, -81.85, -126.1)"/>
      <path id="Outline" d="M 293.014 326.037 C 290.801 323.872 288.050 322.945 284.839 323.274 C 281.423 323.628 278.765 325.165 276.937 327.844 C 272.260 334.697 274.567 347.200 275.575 351.573 C 274.628 351.796 274.086 351.958 274.022 351.977 L 274.899 354.846 C 274.944 354.832 279.429 353.481 286.486 353.111 C 290.795 352.883 294.062 353.069 295.962 353.248 C 295.961 353.266 295.959 353.289 295.959 353.292 L 297.370 353.406 C 297.669 353.447 297.828 353.473 297.836 353.475 L 297.842 353.444 L 298.949 353.533 C 299.015 352.712 300.488 333.345 293.014 326.037 L 293.014 326.037 L 293.014 326.037 L 293.014 326.037 L 293.014 326.037 L 293.014 326.037 L 293.014 326.037 L 293.014 326.037 L 293.014 326.037 L 293.014 326.037 L 293.014 326.037 L 293.014 326.037 L 293.014 326.037 Z M 296.085 350.243 C 294.049 350.056 290.715 349.882 286.327 350.114 C 283.190 350.279 280.549 350.627 278.520 350.978 C 277.618 347.047 275.413 335.397 279.414 329.535 C 280.740 327.592 282.615 326.520 285.147 326.259 C 287.464 326.015 289.346 326.648 290.915 328.180 C 295.789 332.943 296.190 344.663 296.085 350.243 L 296.085 350.243 L 296.085 350.243 L 296.085 350.243 L 296.085 350.243 L 296.085 350.243 L 296.085 350.243 L 296.085 350.243 L 296.085 350.243 L 296.085 350.243 L 296.085 350.243 L 296.085 350.243 L 296.085 350.243 Z " transform="matrix(0.4864557385444641, 0, 0, 0.4864557385444641, -81.85, -126.1)"/>
    </g>
    <g id="R_Eye_1_" transform="matrix(1, 0, 0, 1, 196, 135)">
      <path id="White_1_" fill="#F1F2F2" d="M 250.680 352.173 C 250.935 345.977 250.960 323.785 238.132 325.112 C 223.902 326.584 229.931 350.737 230.501 352.904 L 230.511 353.064 C 232.590 352.648 235.695 352.161 239.545 351.958 C 245.282 351.657 249.206 352.063 250.636 352.255 L 250.680 352.173 L 250.680 352.173 L 250.680 352.173 L 250.680 352.173 L 250.680 352.173 L 250.680 352.173 L 250.680 352.173 L 250.680 352.173 L 250.680 352.173 L 250.680 352.173 L 250.680 352.173 L 250.680 352.173 L 250.680 352.173 Z " transform="matrix(0.4864557385444641, 0, 0, 0.4864557385444641, -84.3, -124.4)"/>
      <path id="Pupil_1_" fill="#594A42" stroke="#000000" stroke-width="2" d="M 236.343 351.505 C 236.343 351.505 232.659 332.255 239.195 332.255 C 245.728 332.255 246.204 351.505 246.204 351.505 " transform="matrix(0.4864557385444641, 0, 0, 0.4864557385444641, -84.3, -124.4)"/>
      <path id="Outline_1_" d="M 246.153 326.037 C 243.940 323.872 241.189 322.945 237.978 323.274 C 234.562 323.628 231.904 325.165 230.076 327.844 C 225.399 334.697 227.706 347.200 228.714 351.573 C 227.767 351.796 227.225 351.958 227.161 351.977 L 228.038 354.846 C 228.083 354.832 232.568 353.481 239.625 353.111 C 243.934 352.883 247.201 353.069 249.101 353.248 C 249.100 353.266 249.098 353.289 249.098 353.292 L 250.509 353.406 C 250.808 353.447 250.967 353.473 250.975 353.475 L 250.981 353.444 L 252.088 353.533 C 252.154 352.712 253.626 333.345 246.153 326.037 L 246.153 326.037 L 246.153 326.037 L 246.153 326.037 L 246.153 326.037 L 246.153 326.037 L 246.153 326.037 L 246.153 326.037 L 246.153 326.037 L 246.153 326.037 L 246.153 326.037 L 246.153 326.037 L 246.153 326.037 Z M 249.224 350.243 C 247.188 350.056 243.854 349.882 239.466 350.114 C 236.329 350.279 233.688 350.627 231.659 350.978 C 230.757 347.047 228.552 335.397 232.553 329.535 C 233.879 327.592 235.754 326.520 238.286 326.259 C 240.603 326.015 242.485 326.648 244.054 328.180 C 248.927 332.943 249.329 344.663 249.224 350.243 L 249.224 350.243 L 249.224 350.243 L 249.224 350.243 L 249.224 350.243 L 249.224 350.243 L 249.224 350.243 L 249.224 350.243 L 249.224 350.243 L 249.224 350.243 L 249.224 350.243 L 249.224 350.243 L 249.224 350.243 Z " transform="matrix(0.4864557385444641, 0, 0, 0.4864557385444641, -84.3, -124.4)"/>
    </g>
  </g>
</svg>