<?xml version="1.0" encoding="UTF-8" standalone="no"?>
<svg
   id="Layer_1"
   version="1.1"
   viewBox="0 0 243.55687 194.06593"
   sodipodi:docname="Moth.svg"
   width="243.55687"
   height="194.06593"
   xmlns:inkscape="http://www.inkscape.org/namespaces/inkscape"
   xmlns:sodipodi="http://sodipodi.sourceforge.net/DTD/sodipodi-0.dtd"
   xmlns="http://www.w3.org/2000/svg"
   xmlns:svg="http://www.w3.org/2000/svg">
  <sodipodi:namedview
     id="namedview343"
     pagecolor="#ffffff"
     bordercolor="#000000"
     borderopacity="0.25"
     inkscape:showpageshadow="2"
     inkscape:pageopacity="0.0"
     inkscape:pagecheckerboard="0"
     inkscape:deskcolor="#d1d1d1" />
  <!-- Generator: Adobe Illustrator 29.8.3, SVG Export Plug-In . SVG Version: 2.1.1 Build 3)  -->
  <defs
     id="defs4">
    <style
       id="style2">
      .st0 {
        fill: #dbf9bf;
      }

      .st1 {
        fill: #88ce7e;
      }

      .st2 {
        fill: #77af6d;
      }

      .st3 {
        fill: #70a967;
      }

      .st4 {
        fill: #d5f5ba;
      }

      .st5 {
        fill: #85c87a;
      }

      .st6 {
        fill: #363825;
      }

      .st7 {
        fill: #0f150e;
      }

      .st8 {
        fill: #dcfac0;
      }

      .st9 {
        fill: #11180f;
      }

      .st10 {
        fill: #7bba72;
      }

      .st11 {
        fill: #83c679;
      }

      .st12 {
        fill: #78b46f;
      }

      .st13 {
        fill: #7ab870;
      }

      .st14 {
        fill: #88cd7d;
      }

      .st15 {
        fill: #77b26d;
      }

      .st16 {
        fill: #78b56e;
      }

      .st17 {
        fill: #8ad07f;
      }

      .st18 {
        fill: #86ca7c;
      }

      .st19 {
        fill: #62925a;
      }

      .st20 {
        fill: #7bb971;
      }

      .st21 {
        fill: #7dbb73;
      }

      .st22 {
        fill: #75af6b;
      }

      .st23 {
        fill: #82c377;
      }

      .st24 {
        fill: #273a24;
      }

      .st25 {
        fill: #293c26;
      }

      .st26 {
        fill: #7fbf75;
      }

      .st27 {
        fill: #72ab69;
      }

      .st28 {
        fill: #ddfbc0;
      }

      .st29 {
        fill: #75ad6c;
      }

      .st30 {
        fill: #80c076;
      }

      .st31 {
        fill: #73ac6a;
      }

      .st32 {
        fill: #73ac69;
      }

      .st33 {
        fill: #73ad6a;
      }

      .st34 {
        fill: #79b66f;
      }

      .st35 {
        fill: #85c87b;
      }

      .st36 {
        fill: #d7f5bc;
      }

      .st37 {
        fill: #75ad6b;
      }

      .st38 {
        fill: #1e2c1c;
      }

      .st39 {
        fill: #8acf7f;
      }

      .st40 {
        fill: #86c97b;
      }

      .st41 {
        fill: #daf8be;
      }

      .st42 {
        fill: #72a768;
      }

      .st43 {
        fill: #89cf7e;
      }

      .st44 {
        fill: #74aa6a;
      }

      .st45 {
        fill: #89ce7e;
      }

      .st46 {
        fill: #78b36e;
      }

      .st47 {
        fill: #caeab1;
      }

      .st48 {
        fill: #76b16d;
      }

      .st49 {
        fill: #7dbc73;
      }

      .st50 {
        fill: #d9f9be;
      }

      .st51 {
        fill: #84c77a;
      }

      .st52 {
        fill: #74ad6a;
      }

      .st53 {
        fill: #696d47;
      }

      .st54 {
        fill: #daf9be;
      }

      .st55 {
        fill: #252619;
      }

      .st56 {
        fill: #dffdc2;
      }

      .st57 {
        fill: #121a10;
      }

      .st58 {
        fill: #6d714a;
      }

      .st59 {
        fill: #6a9e61;
      }

      .st60 {
        fill: #dbfbbf;
      }

      .st61 {
        fill: #82c378;
      }

      .st62 {
        fill: #d1f1b7;
      }

      .st63 {
        fill: #7dba73;
      }

      .st64 {
        fill: #75aa6b;
      }

      .st65 {
        fill: #defcc2;
      }

      .st66 {
        fill: #7fc075;
      }

      .st67 {
        fill: #d5f4ba;
      }

      .st68 {
        fill: #7ebe74;
      }

      .st69 {
        fill: #cdebb3;
      }

      .st70 {
        fill: #3f4b37;
      }

      .st71 {
        fill: #83c579;
      }

      .st72 {
        fill: #74ae6a;
      }

      .st73 {
        fill: #74ae6b;
      }

      .st74 {
        fill: #81bf76;
      }

      .st75 {
        fill: #111910;
      }

      .st76 {
        fill: #6e724a;
      }

      .st77 {
        fill: #71a968;
      }

      .st78 {
        fill: #72ac69;
      }

      .st79 {
        fill: #d6f6bb;
      }

      .st80 {
        fill: #7ab770;
      }

      .st81 {
        fill: #d9f7bd;
      }

      .st82 {
        fill: #84c87a;
      }

      .st83 {
        fill: #0a0f09;
      }

      .st84 {
        fill: #0a0e09;
      }

      .st85 {
        fill: #74a469;
      }

      .st86 {
        fill: #c4e7ac;
      }

      .st87 {
        fill: #86ca7b;
      }

      .st88 {
        fill: #79b56f;
      }

      .st89 {
        fill: #7cba72;
      }

      .st90 {
        fill: #d0edb6;
      }

      .st91 {
        fill: #b8dba2;
      }

      .st92 {
        fill: #d4f2b9;
      }

      .st93 {
        fill: #81c277;
      }

      .st94 {
        fill: #dcfbc0;
      }

      .st95 {
        fill: #74ac6a;
      }

      .st96 {
        fill: #dbfabf;
      }

      .st97 {
        fill: #72a868;
      }

      .st98 {
        fill: #67995e;
      }

      .st99 {
        fill: #c3e2aa;
      }

      .st100 {
        fill: #42633d;
      }

      .st101 {
        fill: #72aa69;
      }

      .st102 {
        fill: #ddfcc1;
      }

      .st103 {
        fill: #cfedb5;
      }

      .st104 {
        fill: #ddfbc1;
      }

      .st105 {
        fill: #80bf76;
      }

      .st106 {
        fill: #0d110c;
      }

      .st107 {
        fill: #060805;
      }

      .st108 {
        fill: #8ad17f;
      }

      .st109 {
        fill: #3d5c38;
      }

      .st110 {
        fill: #defcc1;
      }

      .st111 {
        fill: #defdc1;
      }

      .st112 {
        fill: #0b0f0a;
      }
    </style>
  </defs>
  <path
     d="m 123.21226,53.946704 c 0.64,-0.59 3.43,-1.34 3.55,-1.5 0.29,-0.39 -0.84,-7.51 -0.7,-9.69 0.67,-10.47 8.58,-25.1 17.37,-30.87 3.16,-2.0799997 7.17,-3.4599997 10.52,-5.3199997 2.23,-1.24 5.73,-5.81000001 8.21,-2.72 1.95,2.43 -2.2,7.8099997 -3.28,10.5199997 -6.98,17.4 -8.35,27.68 -22.69,41.42 -0.26,0.25 -4.19,2.25 -1.81,2.48 2.82,0.28 4.24,-1.78 7.82,0.09 3.99,2.09 2.55,5.6 3.44,6.99 0.45,0.69 9.93,2.49 9.92,7.67 0,2.18 -3.56,4.34 -1.02,6.12 14.12,-11.27 27.24,-24.91 42.89,-34.14 7.01,-4.13 22.56,-9.7 30.55,-10.49 9.44,-0.94 12.59,1.41 14.55,10.63 3.55,16.64 -2.55,35.22 -11.75,49.06 -1.36,2.04 -6.67,7.599996 -7.17,8.729996 -0.39,0.9 0.49,2.06 0.4,2.13 -0.13,0.1 -1.97,-0.09 -3.29,0.68 -2.26,1.32 -6.72,7.18 -9.34,9.38 -2.62,2.2 -5.63,4.57 -8.98,5.79 l 1.44,2.14 c -4.5,-1.88 -6.56,1.79 -10.8,2.17 -0.45,0.47 5.59,7.85 6.34,9.14 6.55,11.22 14.07,42.61 6.5,53.74 -6.1,8.96 -17.42,6.27 -25.56,2.04 -10.77,-5.59 -19.64,-15.95 -24.73,-26.76 -5.51,0.95 -8.33,10.89 -12.26,12.62 -1.58,0.7 -3.02,-0.39 -3.62,-0.05 -1.39,0.78 -2.35,6.67 -6.25,7.46 -1.1,0.22 -7.48,-1.18 -8.85,-1.65 -5.28,-1.8 -14.18,-19.79 -15.45,-19.81 -5.48,9.56 -12.550004,20.11 -21.620004,26.61 -9.07,6.5 -19.36,7.86 -25.66,-3.1 -8.75,-15.23 -8.73,-36.62 -3.79,-53.07 -19,-8.99 -33.66,-25.81 -44.2,-43.669996 -7.5500005,-12.8 -18.7900005,-33.91 -11.5700005,-48.73 1.74,-3.56 5,-6.32 8.9700005,-6.87 20.94,-2.9 57.85,21.04 74.38,33.49 1.77,1.33 10.49,9.53 11.23,9.54 0.22,0 3.790004,-1.93 3.920004,-2.11 0.84,-1.13 -4.590004,-12.47 7.97,-10.01 1.5,-6.48 -3.21,-7.82 -6.47,-11.9 -7.610004,-9.51 -14.630004,-33.2 -15.170004,-45.3199997 -0.13,-2.88 -0.23,-7.41000001 3.83,-6.74000001 0.94,0.16 13.360004,10.25999971 14.930004,11.73999971 11.55,10.92 15.59,26.79 17.28,42.13 z"
     id="path6" />
  <path
     class="st108"
     d="m 116.00226,97.146704 -0.99,-6.13 c 0.38,-2.04 2.62,-1.99 3.17,0.19 1.73,-3.15 1.95,-6.66 1.6,-10.15 l 1.33,-3.4 c -1.7,-1.14 -1.71,-2.85 -0.02,-5.14 -1.56,-0.49 -1.56,-2.39 -0.81,-3.75 0.75,-1.36 8.13,-0.13 6.85,3.79 3.12,0.97 4.61,2.66 3.49,5.97 2.36,3.07 5.27,9.52 3.74,13.04 1.55,0.25 3.47,2.68 3.97,4.14 0.2,-0.63 0.44,-0.62 0.72,0 -0.01,0.24 0.04,0.49 0,0.72 -0.24,3.03 -1.18,5.979996 -2.84,8.849996 0.9,1.4 1.23,2.95 1,4.67 1.25,3.14 2.33,7.17 1.84,10.24 1.2,0.5 1.23,1.11 0,1.44 1.38,0.66 1.24,1.56 -0.44,2.71 -0.29,3.81 -1.1,7.72 -2.42,11.73 1.46,2.07 1.43,4.92 -0.1,8.55 2.26,1.55 1.42,3.61 0.43,5.8 1.96,5.39 1.21,8.23 -2.25,8.52 -0.76,1.36 -1.56,1.88 -2.42,1.57 1.89,4.7 -4.52,6.53 -4.73,1.06 -3.68,-1.9 -4.96,-4.07 -3.84,-6.53 -2.43,-0.33 -4.84,-3.32 -2.95,-5.33 -1.13,-3.32 -0.87,-8.63 -0.46,-12.32 0.2,-1.79 0.86,-3.61 1.8,-5.59 l -2.33,-3.94 c 2.91,-3.05 3.22,-4.85 0.94,-5.4 -0.31,-2.53 -0.46,-4.96 -0.43,-7.27 1.74,-1.37 1.32,-2.81 -1.26,-4.33 1.71,-2.85 2.05,-5.74 1.02,-8.68 -2.36,0.74 -5.66,-3.239996 -3.6,-5.039996 z"
     id="path8" />
  <path
     class="st13"
     d="m 150.56226,151.8667 -1.63,0.43 c -2.17,-2.41 -2.54,-2.2 -4.89,-0.19 -5.52,-0.46 -4.47,-4.64 -2.01,-7.59 -0.71,-5.18 -1.09,-10.77 0.59,-15.6 -1.48,-2.04 -1.95,-3.75 -1.41,-5.13 -1.71,-0.3 -1.68,-1.05 0,-1.44 -0.77,-0.16 -1.09,-0.38 -1.09,-1.14 0,-0.33 0.79,-6.18 0.92,-6.49 0.62,-0.27 2.77,-3.23 2.76,-3.47 -0.02,-0.56 -0.82,-8.43 -0.99,-8.85 -1.7,-1.38 -3.33,-3.859996 -2.32,-5.969996 1.59,0.14 5.23,0.87 6.09,2.19 0.53,0.81 0.34,2.209996 1.08,3.239996 1.57,2.21 5.59,4.56 6.68,7 0.27,0.6 2.37,7.92 2.41,8.41 0.04,0.43 -2.02,3.57 -2.39,5.63 -1.73,9.55 -2.99,19.35 -3.79,28.97 z"
     id="path10" />
  <path
     class="st16"
     d="m 113.84226,97.146704 c 1.45,0.68 2.12,2.55 2.02,5.599996 l 1.05,1.19 c 0.03,4.68 -0.03,9.05 -0.18,13.12 1.85,0.83 1.24,4.2 0.11,6.09 1.7,1.73 1.76,4.17 0.17,7.32 0.89,1.38 1.18,3.16 -0.54,3.87 1.23,1.41 1.06,2.98 0.31,4.5 l 1.53,1.51 c -0.6,2.48 -0.98,4.96 -1.13,7.42 2.08,0.39 3.74,2.67 1.77,4 3.87,3.44 2.78,7.39 -2.42,4.67 l -1.25,1.2 c -3.45,-3.95 -3.05,-10.5 -6.48,-14.4 -4.17,-0.45 -4.21,-3.27 -2.53,-6.56 2.19,-3.41 5.02,-8.88 1.25,-11.82 l -0.48,-1.86 c -2.27,1.3 -3.55,-4.56 -3.38,-5.21 0.4,-1.51 3.66,-5.96 4.98,-7.28 -5.82,2.41 -4.54,-2.05 -1.99,-5.44 0.02,-5.799996 3.32,-4.57 7.2,-7.919996 z"
     id="path12" />
  <path
     class="st66"
     d="m 126.08226,63.306704 c -0.27,0.92 -0.54,1.41 -1.38,1.54 3.89,4.17 -0.16,5.75 -3.71,2.92 -0.48,2.75 -1.45,5.43 -2.91,8.06 1.19,1.78 1.54,3.4 1.06,4.86 1.92,2.67 0.86,4.64 -3.18,5.9 l 0.45,1.87 c -1.79,2.38 -2.03,5.2 0.47,6.95 l -0.89,1.75 c 1.39,3.749996 2.27,2.67 3.6,5.039996 0.77,2.28 0.94,4.32 0.5,6.12 -0.86,1.55 -2.93,6.32 0,7.21 l 0.15,5.63 c 1.61,1.13 2.19,2.48 1.74,4.05 -3,2.12 -3.54,7.73 -1.35,11.28 -1.21,3.69 -1.59,9.43 -0.32,13.23 0.55,0.94 1.37,3.22 1.63,3.43 0.57,0.48 2.26,0.1 2.66,1.33 0.38,1.15 -0.76,2.88 -0.63,3.09 0.63,0.94 6.5,2.79 4.25,5.83 3.77,0.52 2.31,-0.45 3.6,-2.88 2.37,-1.26 4.77,-2.7 7.2,-4.32 5.34,-3.71 2.81,5.08 1.91,8.2 l -1.91,0.44 c -0.39,0.76 -0.91,0.91 -1.59,0.42 -2.07,3.86 -4.15,4.56 -6.24,2.1 l -4.2,5.26 -1.65,-0.57 c -3.24,-3.86 -4.05,-8.13 -7.2,-12.24 -0.6,0.15 -1.32,0.15 -2.16,0 -0.42,-0.5 -0.57,-1.49 -0.72,-2.16 -0.19,-0.88 -1.1,-6.53 0.36,-6.47 1.09,0.05 0.88,3.83 2.5,4.69 1.15,0.61 2.2,-0.35 2.16,-0.74 -0.03,-0.27 -3.01,-1.37 -2.91,-4.28 0.02,-0.6 2.25,0.06 1.48,-1.84 -6,2.02 -1.31,-6.42 -1.53,-7.46 -0.18,-0.85 -1.73,-1.45 -1.91,-2.34 -0.31,-1.59 2.06,-3.49 -0.89,-4.24 -0.05,-2.02 3,-2.36 2.91,-2.88 -3.38,-0.68 0.15,-3.71 -0.18,-5.64 -0.16,-0.95 -1.73,-1.92 -1.85,-3.11 -0.12,-1.11 1.34,-2.56 1.38,-4.24 0.03,-1.29 -1.33,-0.91 -1.5,-1.53 -0.93,-3.27 1.39,-3.22 1.38,-3.43 -0.22,-2.35 -1.22,-6.45 -2.12,-8.68 h 2.16 c -3.61,-1.41 -2.1,-5.28 -2.88,-8.289996 -0.82,-3.17 -1.68,-1.5 -2.88,-2.16 -3.24,1.26 -4.08,-1.86 -2.37,-4.43 -0.24,-1.81 1.1,-13.31 1.86,-13.8 l 1.72,0.12 c 0.33,-2.13 0.65,-4.25 0.96,-6.37 2.16,-0.32 2.59,-3.76 3.04,-4.16 0.24,-0.21 4.07,-1.12 5.51,-2.05 1.56,-1.01 2.65,-2.67 4.05,-3.87 0.85,0.43 0.11,2.15 0.36,2.88 z"
     id="path14" />
  <path
     class="st108"
     d="m 26.002256,55.386704 c 0.88,0.79 1.39,2.14 1.53,4.06 7.56,0.65 4.82,7.48 2.07,11.78 -3.27,-0.47 -15.47,-1.01 -17.26,-2.54 -2.31,-1.98 -5.8500005,-20.61 -4.3300005,-22.66 5.6500005,4.73 11.1800005,6.89 17.9900005,9.36 z"
     id="path16" />
  <path
     class="st108"
     d="m 218.24226,64.026704 c 5.44,-2.41 10.8,-6.19 17.28,-5.04 1,1.01 -4.03,20.14 -6.44,21.23 -0.93,0.42 -4.67,-0.93 -6.17,-0.92 -2.5,0 -5.37,0.59 -8.28,0.57 -0.53,-0.19 -1.3,-0.53 -1.26,-0.94 0.13,-1.39 2.52,-12.32 3.03,-13.25 z"
     id="path18" />
  <path
     class="st11"
     d="m 126.08226,63.306704 c 1.93,5.76 10.94,0.85 11.52,1.44 0,0.56 -0.55,2.77 -0.72,2.88 -1.28,-0.41 -1,0.81 0.85,3.65 -2.09,1.5 -2.69,9.69 -2.35,12.43 0.15,1.22 1.12,3.25 2.51,3.19 1.28,1.98 0.93,6.61 0.43,8.8 -1.47,-1.27 -1.95,0.95 -3.6,0.72 1.35,-5.37 0.23,-2.68 -1.26,-3.71 -1.49,-1.03 0.36,-2.79 0.36,-3.69 -0.04,-6.02 -4.49,-9.21 -4.74,-10.29 -0.17,-0.75 0.93,-1.93 0.3,-3.18 -0.69,-1.36 -3.06,-1.3 -3.66,-2.12 -0.16,-0.21 0.51,-3.66 -2.13,-4.06 -0.21,-0.03 -2.45,0.34 -2.55,0.42 -1.38,1.29 1.59,1.16 1.51,2.49 -0.1,1.9 -1.51,2.31 -1.51,3.98 l 3.59,0.36 c -2.55,1.71 -3.19,2.62 -3.61,5.75 l 2.89,0.73 c -4.33,1.6 -2.23,1.8 -2.93,5.02 -0.37,1.69 -1.88,2.67 -0.67,4.7 -0.85,-0.61 -3.48,0.16 -3.59,0.01 -0.35,-0.47 0.69,-2.39 -0.72,-2.17 v 4.31 c 0,0 3.6,-1.07 3.6,-1.07 l -3.61,3.23 c -0.49,-1.32 -1.95,-5.22 -1.99,-6.25 -0.05,-1.22 1.1,-2.11 1.06,-2.76 -0.05,-0.85 -2.53,-1.33 0.79,-3.17 3.08,-1.71 4.34,0.05 0.87,-5.47 l 2.16,-0.36 c -4.42,-2.93 -1.24,-4.74 0.05,-8.22 0.56,-1.52 0.42,-3.63 1.02,-4.74 1.01,-1.89 3.6,3.38 4.69,2.17 1.28,-1.42 -1.62,-2.17 -1.44,-3.23 0.3,-1.84 1.4,-1.88 2.89,-1.8 z"
     id="path20" />
  <path
     class="st76"
     d="m 116.00226,48.186704 c -0.2,0.63 -0.44,0.62 -0.72,0 -4.2,-10.55 -8.05,-17.35 -14.4,-26.64 -1.120004,-1.26 -1.360004,-1.02 -0.72,0.72 3.2,10 6.42,19.93 11.51,29.17 0.17,1.56 -0.23,1.29 -1.08,0.36 -5.39,-5.89 -9.38,-13.19 -11.510004,-20.89 l -4.33,-19.43 c 13.460004,8.3 18.590004,21.8 21.240004,36.72 z"
     id="path22" />
  <path
     class="st10"
     d="m 136.88226,67.626704 c 0.86,4.34 6.58,4.58 10.08,5.05 -4.4,4.47 -1.63,6.99 1.44,10.79 0.99,1.21 0.56,2.44 -1.31,3.69 0.87,2.04 -1.69,6.1 -3.73,5.67 -1.24,-0.25 -2.98,0.16 -4.32,0 -0.05,0.95 0.06,1.93 0,2.88 h -0.72 c 1.04,-2.24 -1.29,-2.98 -1.39,-3.35 -0.23,-0.89 0.9,-4.22 0.66,-4.57 -1.41,1.63 -3.45,-2.3 -3.64,-3.92 -0.22,-1.84 0.68,-11.3 1.51,-12.84 0.3,-0.55 0.86,-0.6 1.41,-0.53 v -0.7 c -2.01,0.28 -1.45,-1.29 -1.43,-2.89 0.18,-0.27 1.24,0.85 1.43,0.72 z"
     id="path24" />
  <path
     class="st45"
     d="m 51.922256,65.466704 c 3.52,3.01 3.49,7.97 -1.44,8.64 -6.44,-1.17 -13.81,-1.97 -20.16,-2.88 2.3,-1.02 4.05,-10.05 2.91,-11.17 -2.85,-0.19 -7.99,-0.9 -4.35,-3.95 8.52,3.11 14.8,5.4 23.04,9.36 z"
     id="path26" />
  <path
     class="st108"
     d="m 218.24226,45.306704 c 4.07,-0.83 10.26,-5.03 14.67,-3.5 2.13,0.74 2.95,12.58 2.6,15.02 -4.75,-1.61 -10.6,1.15 -15.11,2.88 -1,-1.68 -1.36,-3.84 -1.09,-6.49 -1.09,-2.68 -1.45,-5.07 -1.07,-7.19 -0.63,-0.2 -0.62,-0.44 0,-0.72 z"
     id="path28" />
  <path
     class="st108"
     d="m 182.96226,172.0267 c -0.78,-5.05 4.4,-1.34 6.42,0.92 2.42,-4.85 5.96,-4.57 10.14,-2.36 1.3,-1.22 1.73,-0.14 1.44,1.44 1.9,3.81 0.34,12.66 -4.28,14.08 -3.98,1.22 -6.04,0.05 -9.4,-1.12 -2.29,-3.33 -4.37,-8.94 -4.32,-12.96 z"
     id="path30" />
  <path
     class="st108"
     d="m 35.362256,87.786704 4.17,0.9 c 0.76,2.94 1.99,5.4 3.68,7.38 3.41,0.53 5.35,2.09 5.82,4.669996 -2.72,0.55 -13.29,4.41 -15.11,3.26 l -10.81,-15.489996 c 4.07,-0.74 8.14,-0.56 12.24,-0.73 z"
     id="path32" />
  <path
     class="st43"
     d="m 67.762256,165.5467 c 1.1,-2.01 2.56,-1.87 4.4,0.41 1.77,-1.31 3.19,-1.45 4.24,-0.41 2.34,-0.05 3.5,2.92 3.6,5.04 0.42,0.13 0.75,0.28 0.78,0.47 0.23,1.46 -3.89,11.68 -5.1,13.21 -0.17,0.38 -1.39,1.86 -1.76,1.92 -5.18,0.85 -8.7,-11.01 -9.76,-14.88 0.11,-1.95 1.87,-4.89 3.6,-5.76 z"
     id="path34" />
  <path
     class="st108"
     d="m 203.84226,96.426704 v -1.6 c 5.03,-1.8 6.84,-6.53 8.34,-11.28 l 1.74,-0.79 c 1.94,-0.29 14.41,-1.9 14.39,0.36 -0.01,1.2 -11.05,16.1 -12.6,16.25 -1.83,0.18 -8.99,-3.27 -11.87,-2.93 z"
     id="path36" />
  <path
     class="st33"
     d="m 106.64226,105.0667 c 0,0.63 0.8,1.9 0.66,2.09 -0.17,0.23 -1.33,0.3 -1.76,0.78 -0.35,0.38 0.03,3.72 2.53,1.09 0.61,-0.64 0.38,-1.97 1.43,-1.79 -0.33,1.18 0.82,3.12 0.62,3.92 -0.17,0.69 -1.43,0.82 -1.81,1.4 -1.08,1.66 -1.5,4.77 -3.85,4.04 1.76,1.85 1.13,2.74 0.72,5.03 4.09,-0.95 3.18,2.43 3.63,2.87 0.51,0.49 3.27,-1.02 4.3,-0.7 -4.12,2.74 -2.03,3.22 -2.41,6.01 -0.62,4.51 -2.32,5.33 -3.37,8.01 -2.06,5.27 0.06,3.84 1.45,5.42 -4.53,1.02 -4.96,-2.79 -5.67,-6.21 -0.77,-3.7 -1.51,-11.3 -1.55,-15.06 -0.03,-3.02 2.26,-7.16 2.12,-9.37 -0.06,-0.96 -1.13,-1.67 -1.14,-2.13 -0.01,-0.38 3.12,-4.91 4.08,-5.39 z"
     id="path38" />
  <path
     class="st43"
     d="m 215.36226,61.866704 c -5.18,2.41 -10.84,5.76 -15.84,8.64 -4.12,0.38 -3.5,-1.16 1.87,-4.62 -1.4,-0.77 -1.32,-2.28 -0.72,-3.59 -1.83,-1.21 -3.01,-2.19 -1.15,-4.03 0.7,-2.64 10.87,-10.15 12.91,-10.31 0.49,-0.04 0.98,0.07 1.49,0.23 4.64,1.55 4.13,10.11 1.44,13.68 z"
     id="path40" />
  <path
     class="st108"
     d="m 33.922256,75.546704 c 2.29,0.73 2.23,8.44 0,9.36 -1.21,0.53 -2.65,0.77 -4.32,0.72 -2.64,0.39 -5.23,0.72 -7.82,1.37 l -7.3,-14.33 c 6.42,1.15 12.97,2.02 19.43,2.88 z"
     id="path42" />
  <path
     class="st48"
     d="m 63.442256,65.466704 c -0.06,-2.21 1.86,-2.45 5.76,-0.72 5.2,3.49 10.58,6.87 15.46,10.82 1.62,1.31 8.88,7.39 9.43,8.62 0.37,0.83 -2.21,3.56 -2.93,4.31 -7.2,-8.32 -17.45,-14.63 -27,-20.15 -1.25,-1.33 -1.49,-2.29 -0.72,-2.88 z"
     id="path44" />
  <path
     class="st43"
     d="m 55.522256,56.106704 c 1.91,1.24 0.08,6.59 -2.16,6.48 -7.5,-3.63 -15.25,-6.45 -23.04,-9.36 0.86,-2.33 3.55,-6.07 5.76,-7.2 6.66,2.71 13.21,6.52 19.44,10.08 z"
     id="path46" />
  <path
     class="st108"
     d="m 33.202256,45.306704 c 1.54,1.92 -2.63,7.41 -5.04,7.2 -6.28,-2.32 -13.72,-3.4 -19.1300005,-7.9 1.5700005,-6.83 16.1100005,-2.49 21.1400005,-0.95 1.48,0.46 2.32,1.38 3.02,1.65 z"
     id="path48" />
  <path
     class="st66"
     d="m 141.20226,123.7867 c 3.33,5.92 2.28,6.78 1.44,12.66 -0.29,2.03 0.99,5.33 0.68,7.79 -0.33,2.62 -1.78,2.46 -1.91,2.74 -0.62,1.31 0.59,3.25 1.57,4.18 l 4.69,-3.6 c -0.39,2.04 1.65,2.99 2.89,4.32 -0.13,1.54 -0.19,2.83 -0.72,4.32 l -1.06,0.82 c -1.1,2.23 -6.31,4.79 -6.63,-1.3 l -3.1,-0.24 c -0.15,0.52 -0.41,0.97 -0.85,1.29 -1.63,1.2 -2.54,-11.69 0.85,-11.37 q 1.36,-1.39 0,0 c -0.38,0.16 -0.76,0.29 -1.15,0.32 -3.49,0.29 0.36,-9.5 1.15,-11.4 -1.64,-2.24 -2.51,-4.73 0.76,-5.88 -2.62,-1.86 -1.24,-7.53 1.4,-4.64 z"
     id="path50" />
  <path
     class="st3"
     d="m 60.562256,84.906704 c 6.63,-1.97 12.94,-0.65 18.98,2.26 4.37,2.11 11.23,5.11 8.35,10.67 -4.22,-1.23 -7.5,-0.15 -11.49,0.03 -0.63,-0.2 -0.62,-0.44 0,-0.72 1.04,-2.02 -1.02,-3.23 -2.81,-3.31 -4.66,0.73 -7.04,-1.79 -7.13,-7.54 -2.32,0 -4.28,-0.46 -5.9,-1.39 z"
     id="path52" />
  <path
     class="st13"
     d="m 113.12226,70.506704 c 2.84,0.57 0.8,3.24 0.39,4.71 -0.28,1.04 1.14,3.38 -1.83,3.21 l -0.72,-1.43 c 0.55,4.25 -0.7,8.55 -1.45,12.95 l 4.32,-0.36 c -1.14,2.78 -1.01,1.18 -3.6,1.09 l -1.44,2.16 c -0.26,0.3 1.71,1.91 2.16,2.15 -0.56,1.3 -2.16,1.03 -2.88,1.44 -4.6,1.84 -3.47,-2.59 -2.45,-5.51 -3.24,2.48 -6.890004,-0.35 -4.03,-3.85 1.6,-2.16 2.52,-6.37 3.01,-7.06 0.58,-0.81 3.68,-0.14 4.61,-2.99 0.93,-2.85 -1.25,-3.84 -1.14,-6.51 1.55,0.2 3.61,-0.29 5.04,0 z"
     id="path54" />
  <path
     class="st27"
     d="m 75.682256,100.0267 c 1.9,0.83 11.33,6.48 11.12,7.63 -0.06,0.34 -0.18,0.68 -0.32,1.01 -6.93,0.29 -14,1.11 -20.88,2.16 -1.59,-0.46 -1.44,-1.48 0.45,-3.05 l -3.61,-3.37 c -1.94,-0.31 -3.05,-1.05 -3.32,-2.22 z"
     id="path56" />
  <path
     class="st68"
     d="m 199.52226,58.266704 c -0.32,2.73 4.61,3.33 3.52,4.99 -0.16,0.24 -2.05,-0.47 -1.36,1.49 l 2.88,-0.35 c -1.58,1.92 -4.64,5.93 -7.2,4.67 l 2.15,1.44 c -3.59,2.07 -7.25,4.33 -10.8,6.48 -2.67,-1.11 -1.68,-7.21 0,-9.36 1.79,-3.77 6.63,-8.58 10.8,-9.36 z"
     id="path58" />
  <path
     class="st68"
     d="m 140.48226,96.426704 c 0.39,0.84 2.62,4.569996 2.84,4.739996 0.5,0.4 1.89,-0.68 2.2,-0.42 -1.51,1.77 -1.42,7.59 -0.73,9.68 0.23,0.7 1.6,-0.6 2.16,0.76 l -1.43,1.79 c 3.68,-1.7 3.54,1.06 1.76,1.44 -1.04,0.22 -3.22,-2.13 -3.92,-1.43 -0.28,0.28 1.56,2.8 -0.37,3.59 -0.72,0.3 0.19,-1.8 -1.07,-1.43 0.47,1.3 -0.27,3.91 0.67,4.66 1.77,1.42 2.65,-1.29 2.88,-1.43 0.6,-0.36 1.68,0.58 2.08,0.26 0.4,-0.32 -0.37,-1.64 0.83,-1.33 0.53,3.63 0.72,5.57 -2.52,7.91 -2.01,0.06 0.48,-2.62 -1.79,-3.96 -3.3,-1.97 -2.73,0.94 -2.88,1.09 -0.6,1.3 -2.72,1.34 -2.16,-0.72 0.02,-0.09 -0.3,-0.04 0,-1.44 0.23,-3.8 -0.62,-7.18 -2.56,-10.16 0.63,-4.33 1.58,-8.75 2.85,-13.269996 l 0.42,-0.33 c 0.24,0.02 0.48,-0.02 0.72,0 z"
     id="path60" />
  <path
     class="st77"
     d="m 184.40226,68.346704 c -0.03,0.55 -0.1,1.08 -0.31,1.55 -0.95,2.07 -16.94,15.88 -20.17,18.5 -2.85,2.9 -4.43,2.93 -4.72,0.11 -0.05,-0.9 -0.61,-2.2 -0.33,-2.91 0.22,-0.54 4.78,-4.9 5.71,-5.75 6.15,-5.67 13.19,-10.72 19.82,-15.82 2.74,0.08 1.06,2.74 0,4.32 z"
     id="path62" />
  <path
     class="st83"
     d="m 218.24226,45.306704 v 0.72 c 0.25,1.9 -3.01,3.71 -4.32,2.16 -5.3,3.12 -9.56,6.37 -14.4,10.08 -3.86,2.96 -7.13,6.26 -10.8,9.36 -0.6,2.86 -2.01,4.44 -5.04,4.32 -6.19,8.16 -14.24,15.45 -22.35,21.08 l -1.41,-0.92 c -0.07,-0.89 -0.64,-2.07 -0.72,-3.6 0.96,2.24 1.75,1.13 3.23,-0.01 7.41,-5.72 14.68,-13.82 21.97,-20.15 0.54,-2.59 1.53,-4.02 4.32,-3.6 0.65,-3.24 4.89,-7.35 7.92,-7.2 3.01,-4.95 9.7,-8.23 15.12,-10.8 3.17,-2.1 3.61,-0.86 6.48,-1.44 z"
     id="path64" />
  <path
     class="st43"
     d="m 213.20226,66.186704 1.18,1.17 -3.01,11.09 c 0.98,-0.12 1.46,0.43 1.83,1.42 -4.68,1.35 -10.29,0.67 -15.12,1.44 -5.72,0.77 -2.03,-4.16 0,-6.48 5.06,-2.96 9.84,-6.01 15.12,-8.64 z"
     id="path66" />
  <path
     class="st77"
     d="m 182.24226,79.866704 c -0.12,0.58 -0.6,1.3 -1.44,2.16 -6.97,4.33 -13.88,8.83 -20.52,13.67 -2.16,-1.18 -0.3,-2.86 -0.36,-3.59 2.28,-0.98 4.96,-3.38 6.82,-5.06 5.65,-5.1 11.25,-10.17 16.94,-15.1 1.99,1.23 1.12,7.58 -1.44,7.92 z"
     id="path68" />
  <path
     class="st107"
     d="m 170.00226,136.7467 c 2.02,-1.1 3.34,0.87 2.88,2.88 3.91,1.03 7.05,3.47 9.44,7.33 2.86,1.49 4.51,3.36 4.96,5.63 2.08,-0.51 2.67,0.08 2.16,2.16 2.18,-0.82 3.57,0.72 2.88,2.88 3.13,0.99 5.66,3.44 7.6,7.33 l 1.04,-0.13 c 0.37,2.38 1.44,4.35 0,7.2 -0.23,-0.46 -1.14,-0.94 -1.44,-1.44 -3.38,-1.33 -7.49,-6.52 -7.92,-10.08 -1.9,0.96 -2.84,-0.18 -2.16,-2.16 -3.06,-0.15 -6.38,-3.4 -6.48,-6.48 -4.26,-1.14 -7.92,-4.5 -9.36,-8.64 -1.56,1.44 -3.64,-0.29 -2.88,-2.16 -1.63,1 -3.36,-2.09 -3.6,-3.6 -0.96,-0.1 -1.68,-0.82 -2.16,-2.16 -0.56,0.25 -1.04,0.49 -1.44,0.72 -2.4,0.03 -3.21,-1.98 -1.44,-3.6 0.67,0.22 1.09,1.05 2.16,0.71 -1.17,-1.24 -1.48,-2.18 -2.16,-3.59 3.56,0.89 6.85,3.65 7.92,7.2 z"
     id="path70" />
  <path
     class="st15"
     d="m 201.68226,112.2667 c -1.68,1.1 -6.56,4.21 -8.27,4.25 -2.4,0.05 -9.65,-3.47 -12.61,-4.25 -0.12,-0.41 -0.21,-0.82 -0.2,-1.23 0.01,-1.53 6.9,-4.76 8.84,-5.25 3.44,-0.7 10.98,3.2 12.24,6.48 z"
     id="path72" />
  <path
     class="st73"
     d="m 59.122256,84.906704 1.47,0.61 c 2.86,-0.29 4.55,0.43 5.05,2.17 0.36,8.06 2.73,8.6 10,8.01 l 0.76,1.45 v 0.72 c -6.7,0.31 -13.5,0.39 -20.16,1.44 l -0.38,-2.89 c -3.41,-0.5 -3,-3.58 -0.44,-5.24 0.19,-1.6 -0.38,-2.64 -1.72,-3.12 l 0.38,-1.71 c 1.41,-0.19 3.33,-1.26 5.04,-1.44 z"
     id="path74" />
  <path
     class="st32"
     d="m 101.60226,87.066704 c 0.04,1.44 -0.63,2.19 0.89,3.09 2.69,1.59 1.51,-1.52 3.06,-0.92 4.38,1.7 -2.73,6.37 2.53,7.19 -1.14,0.65 -4.73,3.34 -5.37,4.339996 -1.76,2.76 -0.5,6.74 -3.980004,8.61 -0.36,-3.17 2.310004,-10.889996 -0.32,-13.029996 -1.26,-1.02 -2.72,0.11 -2.57,-1.71 0.27,-3.33 4.310004,-5.63 5.760004,-7.58 z"
     id="path76" />
  <path
     class="st101"
     d="m 170.00226,112.9867 c 3.97,0.29 12.71,2.54 16.4,4.12 0.89,0.38 2.12,0.38 2.32,1.63 -7.77,1.83 -14.99,2.7 -23.04,2.17 -0.02,-1.2 0.02,-2.4 0,-3.6 2.02,-1.11 3.46,-2.55 4.32,-4.32 z"
     id="path78" />
  <path
     class="st58"
     d="m 131.84226,46.026704 0.34,-7.23 c 3.09,-11.24 9.86,-21.84 21.26,-25.89 1.41,1.71 -6.29,6.56 -7.57,7.9 -6.1,6.39 -10.86,17.01 -14.03,25.21 z"
     id="path80" />
  <path
     class="st77"
     d="m 178.64226,102.9067 c 2.56,0.14 4.48,0.86 5.76,2.16 0.36,0.56 0.63,1.43 0.19,1.74 -2.56,1.77 -6.02,3.55 -8.83,4.74 -0.53,-0.1 -1.21,0.1 -1.79,0 -0.36,-0.13 -0.4,-0.38 -0.37,-0.71 -0.61,-0.69 -1.37,-0.5 -2.16,0 -4.33,-0.6 -7.81,0.25 -7.2,-5.04 4.91,-0.35 9.62,-1.94 14.4,-2.88 z"
     id="path82" />
  <path
     class="st35"
     d="m 90.802256,174.9067 c -1.95,-0.65 -1.96,-1.5 0,-2.16 0.23,-1.35 0.49,-1.64 0.78,-0.86 0.39,-5.59 1.57,-10.82 3.54,-15.7 1.3,-1.8 6.700004,-2.4 8.640004,-1.44 -4.000004,8.7 -6.520004,13 -12.960004,20.16 z"
     id="path84" />
  <path
     class="st14"
     d="m 66.322256,147.5467 c 1.52,-1.22 1.83,-0.94 2.58,0.7 -0.08,4.6 -0.22,8.93 -0.42,12.98 -0.11,2.64 -2.65,7.44 -5.04,8.64 -0.89,-3.9 -2.48,-16.11 -0.76,-19.12 0.58,-1.02 2.65,-2.38 3.64,-3.2 z"
     id="path86" />
  <path
     class="st102"
     d="m 60.562256,84.906704 c 1.16,-0.08 6.85,-0.16 7.13,0.07 0.46,0.39 0.88,6.58 1.6,7.04 1.72,1.09 8.04,-1.52 9.26,4.78 -0.15,0.67 -1.54,0.37 -2.15,0.35 -2.08,-0.04 -5.1,0.08 -6.8,-0.03 -5.95,-0.4 -4.43,-8.11 -5.75,-10.1 -0.8,-1.21 -4.15,0.09 -4.73,-2.11 0.47,-0.05 0.97,0.03 1.44,0 z"
     id="path88" />
  <path
     class="st27"
     d="m 188.00226,87.066704 0.6,1.54 c -1.17,1.91 -1.51,4.12 -1,6.61 -2.27,0.84 -2.85,1.49 -1.76,1.93 -5.44,0.77 -11.09,2.58 -16.56,3.599996 l -0.34,-1.099996 c 3.61,-3.63 7.57,-7.1 11.86,-10.42 2.45,-0.8 4.71,-1.47 7.2,-2.16 z"
     id="path90" />
  <path
     class="st110"
     d="m 180.80226,89.226704 c 1.38,0.51 -1.03,2.92 -1.41,3.27 -3.16,2.92 -7.41,4.76 -10.11,8.249996 -4.14,0.78 -6.83,3.51 -7.92,-2.159996 2.86,-1.74 5.74,-3.66 8.64,-5.76 3.52,-1.46 7.19,-2.43 10.8,-3.6 z"
     id="path92" />
  <path
     class="st72"
     d="m 186.56226,130.2667 c 2.91,3.12 2.39,4.46 -1.55,4.01 -0.11,2.32 -0.8,3.86 -2.05,4.63 -4.06,-0.6 -7.8,-3.1 -10.08,-6.48 -1,-1.35 -1.1,-3 0.72,-3.6 3.87,-0.2 7.3,0.19 11.09,-1.33 1.14,0.28 1.29,2.09 1.87,2.77 z"
     id="path94" />
  <path
     class="st7"
     d="m 164.96226,135.3067 c 0.81,1.02 1.29,1.98 1.44,2.88 2.59,1.27 3.15,3.78 3.6,6.48 1.94,-0.68 2.65,0.5 1.44,2.16 2.9,0.6 6.3,7.4 5.04,10.08 3.37,1.78 5.04,6.42 4.32,10.08 2.02,0.17 2.15,0.74 0.72,2.16 2.14,0.08 2.62,1.04 1.44,2.88 1.63,4.11 2.99,8.72 4.32,12.96 -0.78,-0.27 -1.12,-0.22 -2.16,-0.72 -2.54,-4.12 -4.7,-8.52 -6.51,-13.2 l 0.75,-1.92 c -2.17,-0.04 -2.26,-1.54 -0.72,-2.88 -4.42,-4.62 -7.93,-11.67 -8.64,-18 -1.71,-0.29 -2.23,-1.34 -1.44,-2.88 -3.22,-1.41 -5.81,-5.94 -5.04,-9.36 l 0.74,-1.44 c 0.67,-0.16 0.6,0.64 0.7,0.72 z"
     id="path96" />
  <path
     class="st17"
     d="m 89.362256,176.3467 c -2.69,2.77 -4.96,5.78 -8.41,7.79 -1.86,1.08 -2.59,2.04 -4.55,0.85 0.88,-4.81 2.56,-9.13 5.04,-12.96 1.44,-1.89 8.28,2.05 7.92,4.32 z"
     id="path98" />
  <path
     class="st17"
     d="m 185.12226,184.2667 c -6.15,-2.97 -9.86,-6.7 -14.4,-11.52 0.85,-0.83 2.16,-1.16 3.94,-1.02 1.56,-1.57 3.12,-2.43 4.7,-2.58 2.02,4.9 5,9.7 5.76,15.12 z"
     id="path100" />
  <path
     class="st78"
     d="m 85.042256,85.626704 c 0.95,1.01 0.55,1.38 -0.72,0.72 -6.33,-3.42 -14.74,-7.32 -21.6,-9.36 -2.15,-0.57 -1.43,-5.54 0.72,-5.76 7.29,4.17 15.25,8.92 21.6,14.4 z"
     id="path102" />
  <path
     class="st52"
     d="m 87.922256,134.5867 c 0.66,1.15 -0.06,2.83 -2.16,5.04 0.31,0.98 -0.54,1.69 -1.44,2.16 -1.6,3.78 -6.12,8.09 -9.36,10.08 -2.49,-1.49 -0.7,-9.4 1.44,-11.52 -0.05,-0.25 0.19,-0.49 0.72,-0.72 3.55,-1.92 7.15,-3.58 10.8,-5.04 z"
     id="path104" />
  <path
     class="st111"
     d="m 213.92226,82.746704 c -1.01,3.59 -3.07,9.33 -6.11,11.53 -0.37,0.26 -3.75,2.1 -3.97,2.15 -1.32,0.3 -3.5,-0.13 -5.04,0 -2.18,-1.31 -0.02,-4.61 2.16,-4.32 -0.11,-1.58 1.06,-2.6 3.52,-3.06 1.62,-3.87 4.04,-5.97 7.28,-6.3 0.6,-0.14 1.49,0.1 2.16,0 z"
     id="path106" />
  <path
     class="st71"
     d="m 198.80226,84.186704 c 0.93,0.77 4.01,6.33 3.64,6.81 l -1.48,1.11 c -0.32,1.43 -2.09,2.66 -2.16,4.32 -1.41,0.12 -2.92,-0.14 -4.32,0 -1.76,-1.76 -2.87,-3.91 -3.32,-6.47 -3.53,0.2 -3.93,-1.88 -1,-3.61 2.96,-0.76 5.56,-1.63 8.64,-2.16 z"
     id="path108" />
  <path
     class="st57"
     d="m 96.562256,136.7467 c -0.86,3.51 -2.78,7.11 -5.76,10.8 1.46,1.7 0.82,3.43 -1.44,3.6 -0.08,5.85 -3.24,12.93 -7.2,17.28 1.66,1.37 1.5,3.21 -0.72,3.6 -1.49,4.31 -3.3,8.73 -5.04,12.96 -0.24,-0.15 -0.45,-0.54 -0.72,-0.72 1.1,-2.45 3.62,-10.83 4.32,-13.68 -1.13,-1.49 -1.34,-2.65 0.72,-2.88 0.23,-2.55 0.64,-5.07 1.23,-7.54 l 1.65,-0.38 c -0.86,-3.58 1.63,-9.1 5.04,-10.8 -1.85,-0.93 -1.31,-2.01 0.72,-2.16 -0.25,-4.69 2.68,-10.22 6.48,-12.96 0.23,0.99 0.54,1.66 0.72,2.88 z"
     id="path110" />
  <path
     class="st61"
     d="m 59.122256,112.2667 c -2.64,0.99 -5.94,2.24 -8.64,2.88 -3.25,0.71 -4.93,-1.13 -5.06,-5.52 -4.03,-1.91 -4.98,-3.19 -2.86,-3.84 2.03,-0.5 5.03,-1.94 7.2,-2.16 2.49,3.14 5.49,5.06 9.21,6.98 z"
     id="path112" />
  <path
     class="st22"
     d="m 76.402256,117.3067 c 5.23,-4.08 6.95,-7.88 15.12,-6.48 0.53,4.71 -0.08,4.99 -3.6,7.2 0.24,1.53 -1.67,2.38 -2.88,1.44 -0.43,0.37 -0.91,0.42 -1.45,0.4 -1.92,-0.04 -7.55,-0.35 -7.19,-2.56 z"
     id="path114" />
  <path
     class="st46"
     d="m 59.122256,102.1867 c 5.09,0.28 4.47,1.88 7.24,3.94 0.62,0.46 1.99,0.27 2.12,0.39 0.86,0.77 -3.03,3.24 -2.88,4.31 -1.19,0.18 -2.87,1.39 -5.04,1.44 -0.86,-3.34 -5.02,-5.88 -8.88,-7.09 l -0.48,-1.55 c 2.2,-1.24 5.44,-1.58 7.92,-1.44 z"
     id="path116" />
  <path
     class="st88"
     d="m 125.36226,172.0267 c 1.58,-0.67 5.57,-7.18 6.12,-7.19 0.99,0 1.67,2.77 1.81,2.87 0.76,0.52 3.81,-4.55 4.68,-5.03 2.39,-0.26 -0.7,1.99 1.07,2.15 -0.85,1.45 -6.59,10.84 -7.17,11.17 -2.18,1.25 -5.32,-2.54 -6.51,-3.97 z"
     id="path118" />
  <path
     class="st23"
     d="m 59.122256,79.866704 c 0.1,1.67 -0.38,2.63 -1.44,2.88 -4.88,0.86 -8.66,1.66 -13.68,2.16 -2.78,0.35 -2.89,-1.29 -0.33,-4.93 -1.13,-1.56 -1.01,-2.8 1.05,-2.99 4.97,0.82 9.51,1.62 14.4,2.88 z"
     id="path120" />
  <path
     class="st1"
     d="m 200.96226,100.7467 c 3.84,0.4 7.65,0.3 11.52,1.44 0.22,1.34 -0.94,2.08 -1.78,2.89 -1.74,1.68 -4.89,4.31 -6.86,5.74 -1.63,1.05 -4.08,-0.13 -3.6,-2.16 -1.45,-1.01 -1.46,-1.62 -0.07,-2.56 -1.04,-2.62 -0.77,-4.4 0.79,-5.36 z"
     id="path122" />
  <path
     class="st20"
     d="m 54.082256,86.346704 c 1.95,2.63 3.78,0 2.17,4.32 l 5.03,-0.71 c 0.18,3.2 -5.49,1.12 -6.47,3.97 -0.61,1.77 1.59,0.49 2.18,1.54 0.72,1.3 1.14,3.29 -0.74,3.85 -1.38,0.22 -2.96,0.46 -4.32,0.719996 -2.2,0.5 -2.43,-0.899996 -0.72,-2.159996 -0.68,-1.43 -0.8,-2.9 -0.37,-4.41 -6.72,-1.08 -5.26,-4.82 0.8,-5.48 l -0.43,-0.91 c 0.54,-0.07 1.6,-0.55 2.88,-0.72 z"
     id="path124" />
  <path
     class="st80"
     d="m 190.16226,86.346704 -1.08,2.16 h 3.96 c 0,0 -0.72,2.87 -0.72,2.87 h 2.88 c -2.69,2.38 0.21,2.77 -0.72,5.04 -2.73,0.28 -6.11,0.36 -8.64,0.72 -1.86,0.74 -3.78,-0.66 -3.58,-2.53 0.25,-2.25 3.28,1.18 4.3,0.36 -1.17,-2.87 -0.57,-5.65 1.44,-7.91 0.6,-0.17 1.24,-0.49 2.16,-0.72 z"
     id="path126" />
  <path
     class="st78"
     d="m 148.40226,83.466704 c 0.94,1.16 2.88,1.86 3.33,3.59 0.39,1.49 -0.96,2.06 -1.17,3.3 -0.69,4.15 4.36,9.11 5.03,13.269996 -3.32,-1.27 -3.09,-4.789996 -4.99,-6.879996 -0.95,-1.04 -5.98,-3.67 -7.24,-3.92 1.4,-0.88 0.58,-3.48 0.74,-3.57 0.49,-0.26 1.9,0.17 2.15,-0.04 0.21,-0.17 -0.93,-1.64 -0.8,-2.42 0.04,-0.23 2.5,-2.2 2.95,-3.34 z"
     id="path128" />
  <path
     class="st12"
     d="m 82.162256,121.6267 c 1.3,0.37 -2.1,5.12 -2.4,5.34 -1.78,1.3 -6.25,0.93 -8.4,0.42 -1.02,-0.05 -7.38,-0.22 -5.75,-2.15 2.87,-1.31 5.49,-3.77 7.91,-5.77 1.23,-0.37 2.61,-0.03 4.15,1.02 2,-0.16 3.5,0.23 4.49,1.14 z"
     id="path130" />
  <path
     class="st22"
     d="m 162.08226,132.4267 c 0.12,1.35 0.88,2.43 1.44,3.6 1.54,3.2 3.41,6.21 5.04,9.36 -0.71,1.63 -4.97,3.18 -6.48,2.16 -1.68,-1.16 -3.42,-5 -2.88,-7.2 -0.9,-3.3 1.31,-5.09 0.72,-8.64 1.06,-0.33 1.48,0.49 2.16,0.72 z"
     id="path132" />
  <path
     class="st56"
     d="m 218.24226,64.026704 -3.6,15.84 c -0.48,0 -0.96,0.02 -1.44,0 -0.81,-0.03 -3.64,0.32 -3.61,-0.37 l 3.61,-13.31 c 1.67,-0.83 3.36,-1.41 5.04,-2.16 z"
     id="path134" />
  <path
     class="st40"
     d="m 197.36226,149.7067 c 1.36,5.16 2.78,9.75 3.6,15.12 l -0.72,2.53 c -2.7,-3.17 -5.07,-6.7 -7.92,-9.73 -1.49,-1.96 1.11,-7.98 3.6,-7.92 0.31,-1.68 0.83,-1.54 1.44,0 z"
     id="path136" />
  <path
     class="st18"
     d="m 69.922256,134.5867 1.44,0.72 c 1.41,1.08 0.72,3.63 0,5.04 0.93,1.91 -4,5.45 -5.76,5.76 -1.1,1 -2.4,1.99 -3.59,2.88 l 2.79,-13.97 c 0.64,-0.88 3.86,-0.38 5.12,-0.43 z"
     id="path138" />
  <path
     class="st60"
     d="m 28.882256,56.106704 c -0.17,3.72 2.02,1.43 4.88,2.64 2.86,1.21 0.22,9.15 -0.52,11.43 -0.64,1.97 -1.33,0.86 -2.92,1.05 -0.24,-0.03 -0.48,0.03 -0.72,0 -0.95,-1.84 2.21,-8.6 1.44,-9.36 -0.89,-0.88 -6.91,0.97 -5.04,-6.48 0.92,0.33 1.97,0.39 2.88,0.72 z"
     id="path140" />
  <path
     class="st65"
     d="m 218.24226,46.026704 c 2.47,4.31 3.32,8.87 2.16,13.68 -1.63,0.63 -3.45,1.42 -5.04,2.16 -1.11,-2.26 0.88,-4.96 0.69,-7.48 -0.14,-1.86 -1.56,-4.34 -2.13,-6.2 1.37,-0.8 2.75,-1.77 4.32,-2.16 z"
     id="path142" />
  <path
     class="st39"
     d="m 44.722256,76.986704 c -1.49,3.58 2.68,2.21 4.32,2.52 l -5.04,1.81 c 2.22,1.88 -3.54,1.9 0,3.59 -4.76,0.48 -9.52,1.13 -14.4,0.72 1.47,-0.22 2.25,-0.64 4.32,-0.72 0.35,-1.12 1.17,-1.44 2.16,-1.64 -0.6,-3.38 -0.12,-5.71 1.44,-7 2.26,0.33 4.71,0.31 7.2,0.72 z"
     id="path144" />
  <path
     class="st112"
     d="m 167.84226,128.8267 c 1.22,0.32 1.94,0.8 2.16,1.44 1.53,-1.3 3.6,0.25 2.88,2.16 3.35,2.19 6.68,4.36 10.08,6.48 3.4,-0.41 7.42,1.81 8.64,5.04 1.13,-0.96 2.57,0 4.32,2.88 0.76,1.17 0.39,-1.12 1.44,2.88 -0.43,-0.09 -1.17,0.14 -1.44,0 -1.29,1.7 -3.7,-0.3 -2.88,-2.16 -3.62,0.37 -8.77,-2.32 -10.08,-5.76 -3.57,0.49 -8.18,-3.14 -9.36,-6.48 -2.03,1.49 -3.14,-0.01 -3.6,-2.16 -1.38,1.56 -5.55,-2.11 -4.32,-3.6 0.41,-0.01 1.36,-0.7 2.16,-0.72 z"
     id="path146" />
  <path
     class="st111"
     d="m 41.842256,87.786704 c 1.73,0.47 2.89,2.27 3.51,5.41 4.18,0.14 6.13,1.7 5.85,4.67 0.28,0.52 0.24,1.57 0.72,2.159996 -0.84,0.16 -1.85,0.51 -2.88,0.72 -1.69,0.37 -1.43,-1.359996 -2.66,-1.999996 -3.21,-1.67 -4.55,-0.28 -6.56,-4.99 -1.59,-3.71 0.4,-4.03 -4.47,-5.97 2.15,-0.09 4.34,0.13 6.48,0 z"
     id="path148" />
  <path
     class="st104"
     d="m 83.602256,100.0267 c 3.08,1.52 6.16,3.77 8.64,5.76 0.06,0.95 -0.03,1.93 0,2.88 -1.91,0.06 -3.85,-0.08 -5.76,0 -3.14,-3.01 -9.1,-4.82 -10.8,-8.64 2.63,0.08 5.3,-0.119996 7.92,0 z"
     id="path150" />
  <path
     class="st26"
     d="m 72.802256,154.7467 c -0.16,2.32 -2.26,5.4 -4.32,6.48 -2.81,-2.57 -1.16,-2.53 -1.12,-3.95 0.06,-2.46 0.11,-5.12 0.08,-7.59 -0.02,-1.28 0.81,-1.22 -1.11,-2.15 0.26,-0.21 0.46,-0.5 0.72,-0.72 -0.04,-1.57 4.09,-5.73 5.76,-4.32 l 1.37,1.41 c -1.15,3.7 -1.4,7.28 -1.37,10.83 z"
     id="path152" />
  <path
     class="st30"
     d="m 190.88226,135.3067 2.15,7.4 c -0.19,0.69 -0.69,1.08 -1.43,1.24 -2.86,-1.71 -5.78,-3.25 -8.64,-5.04 0.29,-4 -0.16,-7.64 5.04,-5.77 l -1.44,-2.87 c 1.41,1.68 3.07,3.19 4.32,5.04 z"
     id="path154" />
  <path
     class="st21"
     d="m 62.722256,114.4267 c 2.58,0.1 6.76,3.17 5.76,5.76 -1.65,1.27 -4.34,4.95 -6.48,5.04 -1.32,-0.2 -1.8,-1.2 -1.44,-3 -3.12,0.02 -5.69,-2.66 -4.32,-5.64 2.16,-0.67 3.96,-1.61 6.48,-2.16 z"
     id="path156" />
  <path
     class="st93"
     d="m 51.202256,87.066704 c 1.99,-0.28 1.88,0.67 0.74,1.85 -1.35,1.4 -3.67,-0.08 -4.34,2.46 5.91,0.48 5.08,1.7 3.6,6.49 -2.2,-4.07 -5.51,-2.28 -7.04,-3.77 -0.96,-0.94 -1.3,-4.92 -2.32,-6.31 2.93,-0.17 6.51,-0.34 9.36,-0.72 z"
     id="path158" />
  <path
     class="st34"
     d="m 139.04226,155.4667 c 2.55,-3.02 6.09,-0.68 4.33,2.88 1.06,-0.73 2.52,-0.14 3.41,-0.53 1.84,-0.8 1.06,-3.31 3.06,-1.63 -0.4,1.14 -5.75,8.68 -6.43,8.99 -0.82,0.37 -3.16,-0.75 -4.37,-0.35 1.8,-3.09 1.66,-3.04 -0.72,-5.75 2.1,0.56 2.25,1.3 2.72,-1.24 0.44,-2.34 -0.17,-1.61 -2,-1.64 -0.62,-0.23 -0.62,-0.47 0,-0.72 z"
     id="path160" />
  <path
     class="st17"
     d="m 211.76226,82.746704 c -4.98,1.17 -3.24,4.92 -6.09,7.23 -1.21,0.98 -3.38,1.15 -4.71,2.13 0.7,-3.14 -3.81,-5.21 -2.16,-7.92 4.28,-0.74 8.64,-0.96 12.96,-1.44 z"
     id="path162" />
  <path
     class="st105"
     d="m 54.802256,66.906704 c 0.68,1.51 2.12,1.63 3.6,1.44 1.13,0.6 2.03,1.69 2.88,2.16 -0.2,2.43 -0.92,4.35 -2.16,5.76 -2.79,-0.72 -5.84,-1.65 -8.64,-2.16 0.98,-3.44 5.58,-2.88 0.72,-5.4 2.16,-0.62 1.64,-1.58 0.72,-3.24 1.01,0.49 1.89,0.94 2.88,1.44 z"
     id="path164" />
  <path
     class="st31"
     d="m 162.08226,152.5867 c 2.1,1.7 7.6,16.72 6.2,16.82 -0.38,0.03 -0.77,-0.1 -1.16,-0.26 -2.11,-2.68 -8.8,-12.41 -9.71,-15.17 -0.45,-1.37 0.36,-2.02 0.35,-2.83 1.44,-2.32 3.27,-0.2 4.32,1.44 z"
     id="path166" />
  <path
     class="st43"
     d="m 42.562256,105.7867 c -0.23,2.8 1.41,0.45 2.06,0.84 0.13,0.08 1.95,2.13 2.03,2.27 1.52,2.88 -0.79,5.6 3.83,6.26 -0.81,0.19 -1.85,0.7 -2.59,0.69 -3.7,-0.06 -8.24,-6.68 -11.08,-8.97 1.8,-0.64 3.9,-0.62 5.76,-1.08 z"
     id="path168" />
  <path
     class="st8"
     d="m 188.72226,76.986704 c -1.79,1.08 -3.89,2.44 -5.76,3.6 -1.14,0.55 -1.4,0.42 -0.72,-0.72 0.91,-2.28 0.81,-5.47 1.44,-7.92 1.66,-1.44 3.37,-2.91 5.04,-4.32 z"
     id="path170" />
  <path
     class="st5"
     d="m 139.76226,96.426704 c -0.7,3.54 -1.45,5.029996 0,8.649996 l -1.44,-0.36 c 1.62,3.37 -0.38,3.12 -0.53,3.59 -0.45,1.4 2.17,6.12 2.48,8.05 0.27,1.67 -1.01,2.87 -1.22,3.84 1.14,-2.16 -2.75,-3.4 -2.87,-3.61 -0.13,-0.23 2.2,-2.24 1.36,-4.58 -0.62,-1.74 -3.77,-0.25 -2.83,-2.97 0.11,-0.3 1.5,-0.29 1.48,-0.72 -0.06,-1.27 -1.68,-1.7 -1.36,-3.4 0.5,-2.61 3.73,-5.319996 4.21,-8.479996 h 0.72 z"
     id="path172" />
  <path
     class="st89"
     d="m 198.08226,74.826704 c -0.43,2.65 1.62,-0.32 2.16,2.52 0.46,2.39 -2.06,-0.8 -3.27,1.05 -0.54,0.84 -1.14,3.46 1.11,2.91 -2.98,0.48 -8.42,2 -11.52,2.88 -0.88,-0.39 -0.88,-1.11 0,-2.16 3.86,-2.36 7.59,-4.9 11.52,-7.2 z"
     id="path174" />
  <path
     class="st53"
     d="m 137.61226,45.306704 12.95,-25.92 c -2.27,9.27 -6.3,19.05 -12.95,25.92 z"
     id="path176" />
  <path
     class="st75"
     d="m 162.08226,147.5467 c 2.23,0.94 2.63,2.23 1.44,4.32 l 2.08,1.48 c 1.83,3.27 3.78,8.18 2.96,11.48 2.17,-0.21 3.36,3.78 1.44,5.04 2.13,0.15 1.97,1.67 0,2.16 -0.85,-0.96 -1.8,-1.51 -2.88,-2.88 1.3,-0.49 0.09,-2.23 -0.18,-3.05 -1.47,-4.55 -3.24,-9.02 -4.86,-13.51 -1.95,-1.25 -3.17,-2.3 -1.44,-4.32 -1.28,-1.34 -2.24,-3.02 -2.88,-5.04 0.24,-2.08 1.59,-1.04 1.44,-2.88 0.63,2.31 2.11,4.97 2.88,7.2 z"
     id="path178" />
  <path
     class="st82"
     d="m 56.242256,116.5867 c 2.43,3.2 0.95,5.53 5.75,2.88 v 5.76 c -3.35,0.14 -9.63,-4.64 -12.23,-6.84 1.94,-1.08 4.44,-1.16 6.48,-1.8 z"
     id="path180" />
  <path
     class="st27"
     d="m 96.562256,136.7467 c 0.25,1.68 0.83,5.03 0.72,6.48 0.75,2.42 -1.38,7.35 -2.88,9.36 -1.85,0.5 -3.05,-1.18 -3.6,-5.04 1.29,-2.9 2.61,-5.8 3.95,-8.69 0.48,-1.05 -0.16,-2.55 1.81,-2.11 z"
     id="path182" />
  <path
     class="st102"
     d="m 51.202256,103.6267 c 1.72,0.12 6.22,2.42 7.57,3.59 0.66,0.57 4.58,4.69 1.79,5.05 -0.46,0.01 -1.04,0.07 -1.44,0 -0.59,-0.11 -7.42,-4.27 -7.87,-4.73 -1.14,-1.16 -1.54,-2.3 -1.49,-3.91 0.45,-0.04 0.99,-0.03 1.44,0 z"
     id="path184" />
  <path
     class="st8"
     d="m 189.44226,105.7867 c -1.7,3.64 -6.38,3.48 -8.64,6.48 -1.35,-0.35 -3.5,-0.42 -5.04,-0.72 1.05,-3.31 6.41,-4.19 8.64,-6.48 0.56,-1.43 4.81,-0.74 5.04,0.72 z"
     id="path186" />
  <path
     class="st49"
     d="m 69.202256,64.746704 c -1.95,3.39 -2.1,0.18 -2.61,0.03 -0.83,-0.24 -2.79,0.7 -3.15,0.69 l -0.34,0.93 c -1.55,-0.61 -3.11,-0.92 -4.7,-0.93 -0.27,-0.14 -0.47,-0.59 -0.72,-0.72 -1.96,-1.09 -0.84,-6.35 1.44,-6.48 3.63,2.19 6.58,4.13 10.08,6.48 z"
     id="path188" />
  <path
     class="st9"
     d="m 180.80226,102.1867 6.24,0.41 0.24,1.03 c 1.45,-1.84 5.6,-1.07 5.76,1.44 3.97,-0.38 6.37,0.82 7.2,3.6 1.02,0.54 1.93,2.23 3.6,2.16 -0.74,0.54 -1.4,0.94 -2.16,1.44 -3.49,-2.47 -8.15,-5.25 -12.24,-6.48 -1.89,-0.57 -3.5,-0.39 -5.04,-0.72 -2.16,-0.46 -4.93,-0.37 -5.76,-2.16 0.36,-0.07 1.05,-0.53 2.16,-0.72 z"
     id="path190" />
  <path
     class="st77"
     d="m 95.842256,133.8667 c -2.11,4.32 -4.45,8.6 -6.48,12.96 -4.6,-0.39 -2.64,-6.34 0,-8.64 0.46,-2.45 2.96,-4.31 5.04,-5.76 0.45,-0.16 1.25,-0.94 1.43,-0.72 0.11,0.68 -0.13,1.55 0,2.16 z"
     id="path192" />
  <path
     class="st25"
     d="m 85.042256,141.7867 c 1.47,1.28 1.29,2.12 -0.72,2.16 0.01,3.55 -4.73,7.78 -7.92,8.64 0.08,0.56 -0.16,0.8 -0.72,0.72 1.29,1.62 0.57,2.76 -1.44,2.16 l -1.1,3.88 c -0.95,2.26 -3.31,6.03 -5.38,6.2 -1.07,1.92 -2.32,3.96 -3.6,5.76 -0.13,-0.47 -0.61,-0.98 -0.72,-1.44 2.08,-2.58 3.31,-5.85 5.04,-8.64 1.34,-2.15 2.81,-4.44 4.32,-6.48 -0.93,-1.92 0.04,-3.6 2.16,-2.88 2.62,-3.32 6.95,-6.75 9.36,-10.08 0.22,-0.3 0.46,-0.29 0.72,0 z"
     id="path194" />
  <path
     class="st38"
     d="m 98.722256,144.6667 c 0,2.46 -0.17,7.54 -2.88,7.92 1.77,1.32 1.44,3.07 -0.72,3.6 -1.05,4.76 -1.72,9.53 -2.65,14.31 -0.25,1.28 0.29,2.68 -1.67,2.25 -0.65,-0.07 -0.62,-0.32 0,-0.72 -1.75,-4.93 -0.35,-12.46 2.88,-16.56 -1.7,-1.35 -1.39,-2.45 0.72,-2.88 0.56,-2.51 2.69,-6.9 2.88,-9.36 0.75,0.26 1.12,0.74 1.44,1.44 z"
     id="path196" />
  <path
     class="st54"
     d="m 90.802256,172.0267 c -0.03,0.23 0.01,0.48 0,0.72 -0.03,0.72 0.02,1.44 0,2.16 -0.49,0.54 -0.96,0.94 -1.44,1.44 l -7.92,-4.32 c 0.33,-0.97 0.3,-2.42 0.72,-3.6 1.57,-1.87 8.6,1.22 8.64,3.6 z"
     id="path198" />
  <path
     class="st28"
     d="m 195.20226,100.7467 c 8.71,-2.429996 3.94,7.07 -2.16,4.32 -1.83,-0.72 -3.84,-1.03 -5.76,-1.44 -2.09,-0.91 -1.09,-1.6 0.72,-2.16 2.58,-0.28 4.33,-0.74 7.2,-0.72 z"
     id="path200" />
  <path
     class="st65"
     d="m 85.042256,119.4667 c 0.52,1.61 -1.42,3.22 -2.88,2.16 -3.35,1.05 -6.2,0.46 -8.64,-2.16 0.91,-0.76 1.94,-1.43 2.88,-2.16 2.72,1.51 7.17,-0.6 8.64,2.16 z"
     id="path202" />
  <path
     class="st82"
     d="m 211.76226,46.746704 c -4.95,3.28 -10.46,7.13 -15.12,10.8 -0.9,-0.09 -1.38,-0.57 -1.44,-1.44 5.19,-3.57 9.89,-8.28 16.56,-9.36 z"
     id="path204" />
  <path
     class="st74"
     d="m 200.96226,100.7467 c -0.79,2.69 2.24,6 -0.71,6.95 v 0.97 c -1.73,-0.9 -5.69,-3 -7.21,-3.6 3.18,0.6 4.5,-2.19 6.48,-3.96 -1.09,-0.69 -3,-0.35 -4.32,-0.36 1.53,-1.929996 4.3,-0.15 5.76,0 z"
     id="path206" />
  <path
     class="st50"
     d="m 178.64226,166.2667 c 0.48,1.13 0.45,2.23 0.72,2.88 -2.3,3.09 -4.53,5.47 -8.64,3.6 -0.23,-0.25 -0.5,-0.47 -0.72,-0.72 -0.1,-0.67 0.15,-1.57 0,-2.16 0.78,-1.09 2.09,-1.6 3.96,-1.53 0.71,-1.33 1.55,-2.02 2.52,-2.07 0.36,-2.06 1.1,-1.52 2.16,0 z"
     id="path208" />
  <path
     class="st94"
     d="m 104.48226,151.1467 c 2.17,2.36 -0.42,2.94 -0.72,3.6 -2.73,1.49 -5.590004,1.62 -8.640004,1.44 0.26,-1.18 0.43,-2.44 0.72,-3.6 1.57,-1.93 6.170004,-2.51 8.640004,-1.44 z"
     id="path210" />
  <path
     class="st102"
     d="m 37.522256,76.266704 v 8.64 c -1.19,0.04 -2.4,-0.05 -3.6,0 v -9.36 c 1.45,0.19 2.62,0.58 3.6,0.72 z"
     id="path212" />
  <path
     class="st41"
     d="m 92.962256,122.3467 c 5.75,2.29 -1.62,2.85 -4.32,3.6 -3.21,0.23 -4.65,-0.73 -4.32,-2.88 -0.86,-1.83 2.07,-3.93 3.6,-2.88 1.96,-0.6 4.14,0.23 5.04,2.16 z"
     id="path214" />
  <path
     class="st54"
     d="m 68.482256,113.7067 c 2.36,0.3 4.04,1.26 5.04,2.88 -1.65,1.31 -3.51,2.42 -5.04,3.6 l -5.76,-5.76 c 1.95,-0.43 3.93,-0.43 5.76,-0.72 z"
     id="path216" />
  <path
     class="st96"
     d="m 36.082256,46.026704 c -0.58,2.57 -3.3,6.38 -5.76,7.2 -0.64,-0.24 -1.38,-0.43 -2.16,-0.72 l 5.04,-7.2 c 0.73,0.27 1.75,0.26 2.88,0.72 z"
     id="path218" />
  <path
     class="st20"
     d="m 195.20226,56.106704 c 1.53,-0.17 1.61,-0.09 1.44,1.44 -2.38,1.88 -5.35,5.03 -7.92,7.2 -2.02,-0.38 -1.57,-2.19 -0.72,-3.6 2.41,-1.8 4.73,-3.34 7.2,-5.04 z"
     id="path220" />
  <path
     class="st73"
     d="m 104.48226,151.1467 c -3.03,0.44 -5.370004,2.1 -8.640004,1.44 0.63,-2.53 1.32,-6.04 2.88,-7.92 0.64,1.39 0.45,2.11 1.780004,3.62 1.33,1.51 3.09,1.88 3.98,2.86 z"
     id="path222" />
  <path
     class="st54"
     d="m 59.122256,58.266704 -1.44,6.48 c -1.42,-0.74 -2.88,-1.46 -4.32,-2.16 l 2.16,-6.48 c 1.24,0.71 2.39,1.43 3.6,2.16 z"
     id="path224" />
  <path
     class="st79"
     d="m 195.92226,146.8267 c -1.74,-0.45 -2.99,-2.08 -4.32,-2.88 0.8,-2.96 -1.89,-6.38 -0.72,-8.64 2.73,4.05 4.01,9.94 5.04,11.52 z"
     id="path226" />
  <path
     class="st106"
     d="m 87.922256,118.0267 c -0.07,0.69 0.95,0.8 1.44,0.72 0.83,1.85 0.42,2.27 -1.44,1.44 -1.83,1.22 -2,1.3 -3.6,2.88 1.88,1.27 -2.5,4.16 -2.64,3.93 -0.37,-0.59 0.71,-1.15 0.48,0.39 -3.15,0.45 -7.57,1.61 -10.8,0 9.71,0.45 5.98,-0.5 10.8,-5.76 0.6,-0.65 2.07,-1.57 2.88,-2.16 1.08,-0.78 2.12,-0.96 2.88,-1.44 z"
     id="path228" />
  <path
     class="st84"
     d="m 76.402256,138.1867 c -0.9,1.37 -1.09,1.56 0.72,1.44 0.11,0.81 -0.57,0.62 -0.72,0.72 -0.84,2.69 -2.04,3.41 -3.6,2.16 -1.67,1.25 -4.31,3.08 -5.76,4.32 l -1.44,-0.72 c 1.43,-1.3 4.4,-4.84 5.76,-5.76 -0.11,-2.05 1.06,-2.34 2.16,-0.72 0.47,-1.79 1.32,-2.77 2.88,-1.44 z"
     id="path230" />
  <path
     class="st29"
     d="m 68.482256,113.7067 c 3.3,-0.53 6.59,-1.92 10.08,-1.43 -1.38,1.66 -3.35,2.97 -5.04,4.31 -2.47,-0.51 -3.76,-0.13 -5.04,-2.88 z"
     id="path232" />
  <path
     class="st81"
     d="m 61.282256,70.506704 c 0.48,0.27 1.42,0.3 2.16,0.72 l -0.72,5.76 c -1.02,-0.3 -2.42,-0.42 -3.6,-0.72 -0.69,-1.46 0.32,-6.42 2.16,-5.76 z"
     id="path234" />
  <path
     class="st95"
     d="m 165.68226,129.5467 c 1.06,1.34 2.9,2.65 4.32,3.6 1.39,1.44 2.45,2.79 0,3.6 -2.58,-2.43 -5.22,-4.89 -7.92,-7.2 -0.02,-0.05 -0.84,0.1 -0.72,-0.71 1.43,-0.41 3.14,0.75 4.32,0.71 z"
     id="path236" />
  <path
     class="st97"
     d="m 83.602256,100.0267 c 6.1,0.27 3.1,0.55 6.09,2.93 1.85,1.47 2.3,-0.77 2.55,2.83 -3.63,-1.15 -6.64,-2.26 -8.64,-5.76 z"
     id="path238" />
  <path
     class="st37"
     d="m 88.642256,125.9467 c -2.48,0.69 -3.86,1.06 -6.48,1.44 l -1.44,-0.36 c 1,-1.6 2.29,-2.68 3.6,-3.96 z"
     id="path240" />
  <path
     class="st62"
     d="m 170.00226,112.9867 c 1.14,1.12 1.95,0.16 0.72,1.8 -0.94,1.26 -3.28,4.17 -5.04,2.52 -0.02,-1.44 0,-2.89 0,-4.32 1.43,0.07 2.9,-0.1 4.32,0 z"
     id="path242" />
  <path
     class="st4"
     d="m 188.72226,64.746704 c -1.42,1.2 -2.92,2.38 -4.32,3.6 v -4.32 c 1.21,-0.93 2.35,-1.95 3.6,-2.88 1.17,0.61 0.68,2.45 0.72,3.6 z"
     id="path244" />
  <path
     class="st44"
     d="m 170.00226,92.826704 c -2.15,2.72 -4.69,6.21 -8.64,5.76 -0.01,-0.07 -0.77,-0.11 -0.42,-0.7 1.22,-2.03 6.79,-4.12 9.06,-5.06 z"
     id="path246" />
  <path
     class="st2"
     d="m 80.722256,136.0267 c -1.46,0.66 -2.9,1.43 -4.32,2.16 -0.99,0.51 -1.79,0.79 -2.88,1.44 -2.56,-1.62 -1.36,-3.83 1.44,-4.32 1.36,-0.6 5.61,-1 5.76,0.72 z"
     id="path248" />
  <path
     class="st67"
     d="m 160.64226,148.2667 c 0.52,1.41 0.93,2.91 1.44,4.32 l -4.32,-1.44 c -0.02,-1.41 -0.11,-2.93 0,-4.32 0.69,-1.42 1.65,-0.94 2.88,1.44 z"
     id="path250" />
  <path
     class="st90"
     d="m 186.56226,84.186704 c -2.41,0.68 -5.85,3.38 -8.65,2.52 2.84,-1.54 5.88,-2.99 8.65,-4.68 l 0.56,0.35 z"
     id="path252" />
  <path
     class="st70"
     d="m 94.402256,132.4267 c -1.6,1.94 -3.29,3.96 -5.04,5.76 -1.2,2.83 -2.64,4.03 -4.32,3.6 h -0.72 c 0.5,-0.7 0.99,-1.43 1.44,-2.16 1.73,-2.86 3.25,-5.15 6.48,-6.48 0.7,-0.21 1.46,-0.48 2.16,-0.72 z"
     id="path254" />
  <path
     class="st42"
     d="m 92.962256,122.3467 c -1.42,-0.57 -3.87,-0.26 -5.04,-2.16 0.53,-0.36 0.96,-1 1.44,-1.44 3.78,-0.6 2.15,-0.02 3.6,3.6 z"
     id="path256" />
  <path
     class="st69"
     d="m 92.242256,133.1467 -6.48,6.48 c 0.64,-1.04 1.45,-3.75 2.16,-5.04 1.49,-0.59 2.8,-0.98 4.32,-1.44 z"
     id="path258" />
  <path
     class="st86"
     d="m 63.442256,65.466704 1.45,2.51 -0.73,0.37 c -1.84,-1.06 -3.88,-1.88 -5.76,-2.88 1.16,-1.75 3.59,-0.05 5.04,0 z"
     id="path260" />
  <path
     class="st92"
     d="m 173.60226,128.8267 c -0.04,1.15 0.45,2.99 -0.72,3.6 -1.22,-0.79 -1.95,-1.51 -2.88,-2.16 -1.16,-0.65 -1.41,-1.2 0,-1.44 1.2,-0.04 2.41,0.06 3.6,0 z"
     id="path262" />
  <path
     class="st84"
     d="m 69.922256,134.5867 c 4.54,-0.17 9.13,0.12 13.68,0 0.03,1.27 -2.04,1.05 -2.88,1.43 -1.21,-1.31 -3.94,-0.67 -5.76,-0.72 -1.74,2 -2.94,2 -3.6,0 -0.61,-0.05 -1.25,-0.02 -1.44,-0.72 z"
     id="path264" />
  <path
     class="st103"
     d="m 59.122256,79.866704 c 0.99,0.26 1.8,0.38 2.88,0.72 1.73,0.53 1.75,0.86 0,1.44 -1.4,0.2 -2.91,0.47 -4.32,0.72 0.09,-1.81 -0.72,-3.33 1.44,-2.88 z"
     id="path266" />
  <path
     class="st64"
     d="m 188.00226,101.4667 -0.72,2.16 c -2.15,-0.46 -4.66,-0.47 -6.48,-1.44 2.19,-0.38 4.94,-0.48 7.2,-0.72 z"
     id="path268" />
  <path
     class="st59"
     d="m 157.76226,143.2267 c 1.74,-0.55 2.2,3.19 2.88,5.04 l -2.88,-1.44 c 0.09,-1.18 -0.13,-2.43 0,-3.6 z"
     id="path270" />
  <path
     class="st99"
     d="m 58.402256,68.346704 -0.5,0.62 c -1.71,0.53 -2.82,-0.41 -3.81,-1.7 l 0.71,-0.36 c 0.99,0.5 2.35,0.78 3.6,1.44 z"
     id="path272" />
  <path
     class="st55"
     d="m 100.88226,21.546704 -0.72,0.72 c -0.200004,-0.64 -2.120004,-1.9 -1.430004,-3.6 0.32,-0.71 1.680004,2.18 2.150004,2.88 z"
     id="path274" />
  <path
     class="st19"
     d="m 62.002256,80.586704 c 1.15,0.36 2.72,0.36 3.61,1.08 0,0.74 -2.77,0.24 -3.61,0.36 z"
     id="path276" />
  <path
     class="st100"
     d="m 85.042256,85.626704 c 0.71,0.62 1.96,1.04 2.16,2.15 -1.44,0.43 -2,-0.96 -2.88,-1.43 z"
     id="path278" />
  <path
     class="st6"
     d="m 116.00226,48.186704 c 0.08,0.43 1.66,2.14 0.36,2.89 -0.38,0 -0.78,-2.13 -1.08,-2.89 z"
     id="path280" />
  <path
     class="st47"
     d="m 171.44226,110.8267 c -0.35,-2.59 0.86,-0.56 2.89,-0.69 -0.11,0.31 -0.71,0.58 -0.73,0.69 -0.7,-0.06 -1.47,0.1 -2.16,0 z"
     id="path282" />
  <path
     class="st100"
     d="m 118.16226,159.7867 c -1.27,0.82 -1.34,0.98 -2.16,0 l 0.73,-1.44 c 0.56,-0.29 1.16,1.09 1.43,1.44 z"
     id="path284" />
  <path
     class="st24"
     d="m 100.16226,115.1567 v 1.43 c -1.060004,0.23 -1.500004,-0.32 -2.150004,-1.08 z"
     id="path286" />
  <path
     class="st91"
     d="m 182.96226,80.586704 c -0.72,0.44 -1.41,0.98 -2.16,1.44 -0.35,-1.26 1.36,-1.96 1.44,-2.16 z"
     id="path288" />
  <path
     class="st85"
     d="m 170.00226,128.8267 v 1.44 c -0.49,-0.34 -1.94,-0.09 -2.16,-1.44 0.72,-0.02 1.44,0.02 2.16,0 z"
     id="path290" />
  <path
     class="st5"
     d="m 141.20226,122.3467 c 0.09,0.42 -0.14,1.19 0,1.44 -5.53,-0.26 0.7,3.83 0.73,5.39 l -2.88,1.1 c -0.52,1.63 1.41,2.76 1.41,3.95 0,2.79 -5.32,8.68 -1.42,11.16 0.26,-1.09 -0.18,-2.56 1.43,-2.88 l 0.72,3.6 c -0.6,-0.44 -1.81,-0.5 -2.15,-0.72 -0.53,2.24 -1.3,6.07 -1.47,8.26 -0.19,2.44 0,1.33 1.47,1.82 -0.11,0.13 0.09,0.49 0,0.72 -0.63,1.57 0.09,2.06 0,2.15 -0.78,0.89 -5.74,-0.88 -5.06,5.76 l -2.15,-3.59 c 2.3,-4.3 3.18,-2.14 4.21,-2.97 1.99,-1.61 -1.33,-6.78 -1.36,-8.18 0,-0.36 2.22,-0.07 1.47,-2.79 -0.15,-0.55 -1.47,-0.2 -1.52,-1.52 -0.09,-2.39 1.89,-3.7 1.61,-6.53 -0.13,-1.37 -1.53,-1.01 -1.55,-1.46 -0.12,-3.84 3.25,-11.15 4.35,-15.43 0.39,0.23 1.97,0.9 2.16,0.72 z"
     id="path292" />
  <path
     class="st18"
     d="m 119.60226,102.1867 c 0.89,1.58 1.93,4.23 1.44,6.01 -0.17,0.63 -1.91,0.21 -1.44,1.54 0.58,1.62 3.47,2.36 3.59,2.55 0.71,1.08 -1.67,2.21 -2.01,3.37 -0.25,0.83 -0.32,5.74 -0.11,5.94 0.2,0.19 3.68,-0.08 4.28,1.84 -4.86,0.44 -1.61,0.85 -2.5,2.54 -0.37,0.71 -2.08,-0.12 -2.53,1.06 0.8,1.01 2.77,3.83 2.71,4.93 -0.03,0.57 -0.76,1.23 -0.87,1.85 -0.13,0.74 0.43,1.69 0.18,2.05 -0.25,0.36 -1.41,0.28 -1.89,1.36 -1.58,3.57 0.37,4.48 0.56,6.38 0.17,1.62 -1.31,4.12 -0.71,6.1 -0.58,-1.01 -2.01,-1.66 -2.08,-3.2 -0.1,-2.11 1.55,-6.7 1.35,-8.65 -0.11,-1.09 -1.25,-1.85 -1.4,-2.95 -0.21,-1.62 -0.28,-4.88 -0.09,-6.47 0.17,-1.45 1.75,-1.4 2.41,-2.65 1.98,-3.73 -0.68,-2.2 -0.91,-2.35 -1.15,-0.75 0.11,-1.67 -0.14,-2.71 -0.19,-0.81 -1.3,-1.26 -1.33,-2.34 -0.01,-0.49 1.56,-0.37 1.48,-0.71 -0.61,-2.46 -1.95,-1.29 -2.17,-1.44 -0.62,-0.41 -0.19,-4.56 0.14,-5.62 0.28,-0.88 1.31,-1.36 1.79,-2.43 0.16,-0.36 -0.5,-1.18 -0.27,-1.55 0.12,-0.2 1.23,0.01 1.24,-0.49 0.03,-1.19 -2.77,-2.77 -0.75,-3.95 z"
     id="path294" />
  <path
     class="st87"
     d="m 199.52226,170.5867 c -2.05,1.5 -4.74,-0.64 -6.76,-0.06 -0.25,0.07 -1.96,3.8 -2.94,4.37 -1.89,-0.89 -3.13,-2.77 -4.89,-3.76 -1.35,-0.76 -2.24,-1.22 -1.96,0.88 -0.33,-0.84 -1.01,-1.84 -1.44,-2.88 2.42,-2.92 5.29,-5.52 8.59,-7.79 l 1.49,-0.85 c 2.98,3.38 5.56,6.16 7.92,10.08 z"
     id="path296" />
  <path
     class="st110"
     d="m 75.682256,153.3067 c 2.69,-0.55 3.94,1.63 3.75,6.54 1.97,2.47 2.4,5.09 1.29,7.86 -0.04,0.82 -0.5,2 -0.72,2.88 -1.61,-0.8 -2.77,-3.33 -3.6,-5.04 -3.93,-0.64 -4.29,-6.98 -2.16,-10.08 0.51,-0.69 0.92,-1.48 1.44,-2.16 z"
     id="path298" />
  <path
     class="st93"
     d="m 76.402256,165.5467 -4.64,2.2 c -0.24,0.01 -2.61,-3.73 -4,-2.2 2.28,-4.1 3.7,-6.31 6.48,-10.08 -0.64,4.37 0.41,6.46 2.16,10.08 z"
     id="path300" />
  <path
     class="st80"
     d="m 189.44226,158.3467 0.74,1.74 c -2.66,2.28 -5.26,4.56 -7.82,6.85 l -1.56,0.05 c -1.4,-3.3 -2.79,-6.85 -4.32,-10.08 -0.47,-1.49 0.6,-2.11 3.19,-1.86 -0.06,-2.57 0.85,-5.12 3.29,-3.18 2.26,2.18 4.34,4.17 6.48,6.48 z"
     id="path302" />
  <path
     class="st3"
     d="m 182.96226,151.8667 c -3.13,0.69 -1.26,4.13 -1.43,4.32 -0.45,0.5 -4.22,0.14 -5.05,0.72 -1.44,-3.05 -3.46,-7.09 -5.04,-10.08 -0.21,-1.6 0.68,-3 2.16,-3.6 3.19,2.86 6.28,5.66 9.36,8.64 z"
     id="path304" />
  <path
     class="st52"
     d="m 182.96226,141.7867 c -0.22,3.41 1.53,5.63 5.3,4.75 2.93,0.62 2.3,7.07 -0.98,6.05 -4.56,-4.55 -9.65,-8.62 -14.4,-12.96 -0.8,-1.17 -1.39,-3.99 0.72,-4.32 3.12,2.06 6.22,4.52 9.36,6.48 z"
     id="path306" />
  <path
     class="st26"
     d="m 193.04226,147.5467 c 1.8,1.49 -1.33,7.52 -3.6,7.2 -0.7,-0.71 -1.45,-1.45 -2.16,-2.16 1.46,-1.6 2.44,-4.03 0,-5.04 l -1.43,2.16 c -0.71,-3.32 -6.94,-3.26 -2.89,-7.92 3.23,2.02 6.79,3.75 10.08,5.76 z"
     id="path308" />
  <path
     class="st94"
     d="m 191.60226,160.5067 c 0.19,3.93 -4.17,3.98 -5.57,5.23 -1.12,1.01 -0.55,4.01 -4.51,3.41 -0.31,-0.74 -0.46,-1.54 -0.72,-2.16 1.51,-4.56 6.94,-4.2 8.64,-8.64 0.65,0.7 1.36,1.25 2.16,2.16 z"
     id="path310" />
  <path
     class="st41"
     d="m 195.92226,149.7067 -3.6,7.92 c -0.89,-0.94 -1.95,-1.93 -2.88,-2.88 l 3.6,-7.2 c 1.03,0.63 2.54,1.98 2.88,2.16 z"
     id="path312" />
  <path
     class="st36"
     d="m 173.60226,135.3067 c -0.1,1.36 0.55,3.51 -0.72,4.32 -1.11,-1.02 -1.94,-1.99 -2.88,-2.88 v -3.6 c 1.11,0.75 2.43,1.39 3.6,2.16 z"
     id="path314" />
  <path
     class="st67"
     d="m 173.60226,143.2267 c 0.19,1.72 -0.59,2.94 -2.16,3.6 -0.32,-0.6 -0.98,-1.31 -1.44,-2.16 -1.27,-3.01 -1.03,-4.21 0.72,-3.6 0.84,0.77 2.03,1.4 2.88,2.16 z"
     id="path316" />
  <path
     class="st98"
     d="m 170.72226,141.0667 c -1.17,0.61 -0.68,2.45 -0.72,3.6 -1.15,-2.14 -2.4,-4.36 -3.6,-6.48 -0.78,-1.01 -0.45,-1.4 0.72,-0.72 1.26,1.18 2.5,2.6 3.6,3.6 z"
     id="path318" />
  <path
     class="st109"
     d="m 167.12226,137.4667 -0.72,0.72 c -0.46,-0.82 -1.62,-1.45 -1.44,-2.88 1.17,0.87 1.39,1.44 2.16,2.16 z"
     id="path320" />
  <path
     class="st33"
     d="m 170.00226,148.2667 c 3.01,5.94 6.02,11.88 8.64,18 -0.69,-0.08 -1.5,0.11 -2.16,0 -0.89,0.95 -4.8,0.38 -6.26,-0.28 -0.08,-0.04 -1.06,-1.4 -1.1,-1.49 -0.03,-0.06 1.03,-0.1 -0.56,0.33 -1.42,-4.3 -3.52,-8.63 -5.04,-12.96 -0.56,-2.78 4.85,-6.39 6.48,-3.6 z"
     id="path322" />
  <path
     class="st96"
     d="m 168.56226,145.3867 c 0.49,0.95 0.96,1.92 1.44,2.88 -2.9,0.18 -4.38,1.97 -6.48,3.6 -0.5,-1.44 -0.94,-2.89 -1.44,-4.32 1.84,-1.43 4.1,-2.32 6.48,-2.16 z"
     id="path324" />
  <path
     class="st96"
     d="m 74.962256,151.8667 c -0.7,0.88 -1.48,1.96 -2.16,2.88 -3.49,-3.45 0.17,-8.24 0,-12.24 1.16,-0.87 2.52,-1.42 3.6,-2.16 z"
     id="path326" />
  <path
     class="st51"
     d="m 93.682256,155.4667 c -1.16,5.41 -2.26,11.06 -2.88,16.56 l -8.64,-3.6 c 2.12,-5.91 4.73,-11.53 7.2,-17.28 1.98,0 3.66,2.6 4.32,4.32 z"
     id="path328" />
  <path
     class="st73"
     d="m 88.642256,148.9867 c -1.61,3.59 -3.64,7.1 -5.04,10.8 -2.89,-0.51 -5.05,-3.19 -5.35,-6.23 -0.29,0.52 -0.91,0.2 -1.85,-0.97 2.54,-3.25 5.31,-5.72 7.92,-8.64 l 1.77,0.09 c 0.85,1.69 1.7,3.34 2.55,4.95 z"
     id="path330" />
  <path
     class="st63"
     d="m 76.402256,152.5867 c 4.04,-0.74 2.37,1.14 3.61,3.08 0.79,1.24 3.61,2.13 3.59,4.12 -0.95,2.53 -1.22,5.68 -2.88,7.92 0.23,-4.75 -2.06,-4.82 -2.73,-7.71 -0.44,-1.91 0.74,-6.79 -2.31,-6.69 0.2,-0.27 0.52,-0.46 0.72,-0.72 z"
     id="path332" />
  <path
     class="st54"
     d="m 89.362256,146.8267 c -0.36,0.77 -0.45,1.57 -0.72,2.16 -2.97,-0.15 -2.86,-3.22 -4.32,-5.04 0.22,-0.24 0.22,-1.61 0.72,-2.16 1.04,-1.14 3.21,-2.46 4.32,-3.6 -1.46,3.5 -2.06,5.18 0,8.64 z"
     id="path334" />
  <path
     class="st54"
     d="m 90.802256,147.5467 c 2.36,-0.43 1.81,3.56 3.6,5.04 -0.22,0.97 -0.52,1.94 -0.72,2.88 -2.29,-0.23 -3.5,-2.43 -4.32,-4.32 0.51,-1.18 0.91,-2.4 1.44,-3.6 z"
     id="path336" />
  <path
     class="st0"
     d="m 74.962256,135.3067 c -1.09,1.26 -1.7,2.61 -1.44,4.32 -0.71,0.42 -1.83,0.49 -2.16,0.72 -1.43,-1.08 -0.77,-3.67 0,-5.04 1.18,0.1 2.41,-0.03 3.6,0 z"
     id="path338" />
  <path
     class="st30"
     d="m 168.56226,164.8267 c -0.1,-3.59 2.32,0.35 3.21,0.44 0.77,0.08 1.82,-0.63 2.79,-0.47 0.6,0.1 -0.1,1.13 1.92,1.47 -0.84,4.19 -2.66,3.83 -6.48,3.6 -0.32,-1.31 -1.02,-3.77 -1.44,-5.04 z"
     id="path340" />
</svg>
