<?xml version="1.0" encoding="UTF-8"?>
<svg id="Layer_1" xmlns="http://www.w3.org/2000/svg" version="1.1" viewBox="0 0 288 288">
  <!-- Generator: Adobe Illustrator 29.8.3, SVG Export Plug-In . SVG Version: 2.1.1 Build 3)  -->
  <defs>
    <style>
      .st0 {
        fill: #dbf9bf;
      }

      .st1 {
        fill: #88ce7e;
      }

      .st2 {
        fill: #77af6d;
      }

      .st3 {
        fill: #70a967;
      }

      .st4 {
        fill: #d5f5ba;
      }

      .st5 {
        fill: #85c87a;
      }

      .st6 {
        fill: #363825;
      }

      .st7 {
        fill: #0f150e;
      }

      .st8 {
        fill: #dcfac0;
      }

      .st9 {
        fill: #11180f;
      }

      .st10 {
        fill: #7bba72;
      }

      .st11 {
        fill: #83c679;
      }

      .st12 {
        fill: #78b46f;
      }

      .st13 {
        fill: #7ab870;
      }

      .st14 {
        fill: #88cd7d;
      }

      .st15 {
        fill: #77b26d;
      }

      .st16 {
        fill: #78b56e;
      }

      .st17 {
        fill: #8ad07f;
      }

      .st18 {
        fill: #86ca7c;
      }

      .st19 {
        fill: #62925a;
      }

      .st20 {
        fill: #7bb971;
      }

      .st21 {
        fill: #7dbb73;
      }

      .st22 {
        fill: #75af6b;
      }

      .st23 {
        fill: #82c377;
      }

      .st24 {
        fill: #273a24;
      }

      .st25 {
        fill: #293c26;
      }

      .st26 {
        fill: #7fbf75;
      }

      .st27 {
        fill: #72ab69;
      }

      .st28 {
        fill: #ddfbc0;
      }

      .st29 {
        fill: #75ad6c;
      }

      .st30 {
        fill: #80c076;
      }

      .st31 {
        fill: #73ac6a;
      }

      .st32 {
        fill: #73ac69;
      }

      .st33 {
        fill: #73ad6a;
      }

      .st34 {
        fill: #79b66f;
      }

      .st35 {
        fill: #85c87b;
      }

      .st36 {
        fill: #d7f5bc;
      }

      .st37 {
        fill: #75ad6b;
      }

      .st38 {
        fill: #1e2c1c;
      }

      .st39 {
        fill: #8acf7f;
      }

      .st40 {
        fill: #86c97b;
      }

      .st41 {
        fill: #daf8be;
      }

      .st42 {
        fill: #72a768;
      }

      .st43 {
        fill: #89cf7e;
      }

      .st44 {
        fill: #74aa6a;
      }

      .st45 {
        fill: #89ce7e;
      }

      .st46 {
        fill: #78b36e;
      }

      .st47 {
        fill: #caeab1;
      }

      .st48 {
        fill: #76b16d;
      }

      .st49 {
        fill: #7dbc73;
      }

      .st50 {
        fill: #d9f9be;
      }

      .st51 {
        fill: #84c77a;
      }

      .st52 {
        fill: #74ad6a;
      }

      .st53 {
        fill: #696d47;
      }

      .st54 {
        fill: #daf9be;
      }

      .st55 {
        fill: #252619;
      }

      .st56 {
        fill: #dffdc2;
      }

      .st57 {
        fill: #121a10;
      }

      .st58 {
        fill: #6d714a;
      }

      .st59 {
        fill: #6a9e61;
      }

      .st60 {
        fill: #dbfbbf;
      }

      .st61 {
        fill: #82c378;
      }

      .st62 {
        fill: #d1f1b7;
      }

      .st63 {
        fill: #7dba73;
      }

      .st64 {
        fill: #75aa6b;
      }

      .st65 {
        fill: #defcc2;
      }

      .st66 {
        fill: #7fc075;
      }

      .st67 {
        fill: #d5f4ba;
      }

      .st68 {
        fill: #7ebe74;
      }

      .st69 {
        fill: #cdebb3;
      }

      .st70 {
        fill: #3f4b37;
      }

      .st71 {
        fill: #83c579;
      }

      .st72 {
        fill: #74ae6a;
      }

      .st73 {
        fill: #74ae6b;
      }

      .st74 {
        fill: #81bf76;
      }

      .st75 {
        fill: #111910;
      }

      .st76 {
        fill: #6e724a;
      }

      .st77 {
        fill: #71a968;
      }

      .st78 {
        fill: #72ac69;
      }

      .st79 {
        fill: #d6f6bb;
      }

      .st80 {
        fill: #7ab770;
      }

      .st81 {
        fill: #d9f7bd;
      }

      .st82 {
        fill: #84c87a;
      }

      .st83 {
        fill: #0a0f09;
      }

      .st84 {
        fill: #0a0e09;
      }

      .st85 {
        fill: #74a469;
      }

      .st86 {
        fill: #c4e7ac;
      }

      .st87 {
        fill: #86ca7b;
      }

      .st88 {
        fill: #79b56f;
      }

      .st89 {
        fill: #7cba72;
      }

      .st90 {
        fill: #d0edb6;
      }

      .st91 {
        fill: #b8dba2;
      }

      .st92 {
        fill: #d4f2b9;
      }

      .st93 {
        fill: #81c277;
      }

      .st94 {
        fill: #dcfbc0;
      }

      .st95 {
        fill: #74ac6a;
      }

      .st96 {
        fill: #dbfabf;
      }

      .st97 {
        fill: #72a868;
      }

      .st98 {
        fill: #67995e;
      }

      .st99 {
        fill: #c3e2aa;
      }

      .st100 {
        fill: #42633d;
      }

      .st101 {
        fill: #72aa69;
      }

      .st102 {
        fill: #ddfcc1;
      }

      .st103 {
        fill: #cfedb5;
      }

      .st104 {
        fill: #ddfbc1;
      }

      .st105 {
        fill: #80bf76;
      }

      .st106 {
        fill: #0d110c;
      }

      .st107 {
        fill: #060805;
      }

      .st108 {
        fill: #8ad17f;
      }

      .st109 {
        fill: #3d5c38;
      }

      .st110 {
        fill: #defcc1;
      }

      .st111 {
        fill: #defdc1;
      }

      .st112 {
        fill: #0b0f0a;
      }
    </style>
  </defs>
  <path d="M145.57,95.8c.64-.59,3.43-1.34,3.55-1.5.29-.39-.84-7.51-.7-9.69.67-10.47,8.58-25.1,17.37-30.87,3.16-2.08,7.17-3.46,10.52-5.32,2.23-1.24,5.73-5.81,8.21-2.72,1.95,2.43-2.2,7.81-3.28,10.52-6.98,17.4-8.35,27.68-22.69,41.42-.26.25-4.19,2.25-1.81,2.48,2.82.28,4.24-1.78,7.82.09,3.99,2.09,2.55,5.6,3.44,6.99.45.69,9.93,2.49,9.92,7.67,0,2.18-3.56,4.34-1.02,6.12,14.12-11.27,27.24-24.91,42.89-34.14,7.01-4.13,22.56-9.7,30.55-10.49,9.44-.94,12.59,1.41,14.55,10.63,3.55,16.64-2.55,35.22-11.75,49.06-1.36,2.04-6.67,7.6-7.17,8.73-.39.9.49,2.06.4,2.13-.13.1-1.97-.09-3.29.68-2.26,1.32-6.72,7.18-9.34,9.38s-5.63,4.57-8.98,5.79l1.44,2.14c-4.5-1.88-6.56,1.79-10.8,2.17-.45.47,5.59,7.85,6.34,9.14,6.55,11.22,14.07,42.61,6.5,53.74-6.1,8.96-17.42,6.27-25.56,2.04-10.77-5.59-19.64-15.95-24.73-26.76-5.51.95-8.33,10.89-12.26,12.62-1.58.7-3.02-.39-3.62-.05-1.39.78-2.35,6.67-6.25,7.46-1.1.22-7.48-1.18-8.85-1.65-5.28-1.8-14.18-19.79-15.45-19.81-5.48,9.56-12.55,20.11-21.62,26.61s-19.36,7.86-25.66-3.1c-8.75-15.23-8.73-36.62-3.79-53.07-19-8.99-33.66-25.81-44.2-43.67-7.55-12.8-18.79-33.91-11.57-48.73,1.74-3.56,5-6.32,8.97-6.87,20.94-2.9,57.85,21.04,74.38,33.49,1.77,1.33,10.49,9.53,11.23,9.54.22,0,3.79-1.93,3.92-2.11.84-1.13-4.59-12.47,7.97-10.01,1.5-6.48-3.21-7.82-6.47-11.9-7.61-9.51-14.63-33.2-15.17-45.32-.13-2.88-.23-7.41,3.83-6.74.94.16,13.36,10.26,14.93,11.74,11.55,10.92,15.59,26.79,17.28,42.13Z"/>
  <path class="st108" d="M138.36,139l-.99-6.13c.38-2.04,2.62-1.99,3.17.19,1.73-3.15,1.95-6.66,1.6-10.15l1.33-3.4c-1.7-1.14-1.71-2.85-.02-5.14-1.56-.49-1.56-2.39-.81-3.75s8.13-.13,6.85,3.79c3.12.97,4.61,2.66,3.49,5.97,2.36,3.07,5.27,9.52,3.74,13.04,1.55.25,3.47,2.68,3.97,4.14.2-.63.44-.62.72,0-.01.24.04.49,0,.72-.24,3.03-1.18,5.98-2.84,8.85.9,1.4,1.23,2.95,1,4.67,1.25,3.14,2.33,7.17,1.84,10.24,1.2.5,1.23,1.11,0,1.44,1.38.66,1.24,1.56-.44,2.71-.29,3.81-1.1,7.72-2.42,11.73,1.46,2.07,1.43,4.92-.1,8.55,2.26,1.55,1.42,3.61.43,5.8,1.96,5.39,1.21,8.23-2.25,8.52-.76,1.36-1.56,1.88-2.42,1.57,1.89,4.7-4.52,6.53-4.73,1.06-3.68-1.9-4.96-4.07-3.84-6.53-2.43-.33-4.84-3.32-2.95-5.33-1.13-3.32-.87-8.63-.46-12.32.2-1.79.86-3.61,1.8-5.59l-2.33-3.94c2.91-3.05,3.22-4.85.94-5.4-.31-2.53-.46-4.96-.43-7.27,1.74-1.37,1.32-2.81-1.26-4.33,1.71-2.85,2.05-5.74,1.02-8.68-2.36.74-5.66-3.24-3.6-5.04Z"/>
  <path class="st13" d="M172.92,193.72l-1.63.43c-2.17-2.41-2.54-2.2-4.89-.19-5.52-.46-4.47-4.64-2.01-7.59-.71-5.18-1.09-10.77.59-15.6-1.48-2.04-1.95-3.75-1.41-5.13-1.71-.3-1.68-1.05,0-1.44-.77-.16-1.09-.38-1.09-1.14,0-.33.79-6.18.92-6.49.62-.27,2.77-3.23,2.76-3.47-.02-.56-.82-8.43-.99-8.85-1.7-1.38-3.33-3.86-2.32-5.97,1.59.14,5.23.87,6.09,2.19.53.81.34,2.21,1.08,3.24,1.57,2.21,5.59,4.56,6.68,7,.27.6,2.37,7.92,2.41,8.41.04.43-2.02,3.57-2.39,5.63-1.73,9.55-2.99,19.35-3.79,28.97Z"/>
  <path class="st16" d="M136.2,139c1.45.68,2.12,2.55,2.02,5.6l1.05,1.19c.03,4.68-.03,9.05-.18,13.12,1.85.83,1.24,4.2.11,6.09,1.7,1.73,1.76,4.17.17,7.32.89,1.38,1.18,3.16-.54,3.87,1.23,1.41,1.06,2.98.31,4.5l1.53,1.51c-.6,2.48-.98,4.96-1.13,7.42,2.08.39,3.74,2.67,1.77,4,3.87,3.44,2.78,7.39-2.42,4.67l-1.25,1.2c-3.45-3.95-3.05-10.5-6.48-14.4-4.17-.45-4.21-3.27-2.53-6.56,2.19-3.41,5.02-8.88,1.25-11.82l-.48-1.86c-2.27,1.3-3.55-4.56-3.38-5.21.4-1.51,3.66-5.96,4.98-7.28-5.82,2.41-4.54-2.05-1.99-5.44.02-5.8,3.32-4.57,7.2-7.92Z"/>
  <path class="st66" d="M148.44,105.16c-.27.92-.54,1.41-1.38,1.54,3.89,4.17-.16,5.75-3.71,2.92-.48,2.75-1.45,5.43-2.91,8.06,1.19,1.78,1.54,3.4,1.06,4.86,1.92,2.67.86,4.64-3.18,5.9l.45,1.87c-1.79,2.38-2.03,5.2.47,6.95l-.89,1.75c1.39,3.75,2.27,2.67,3.6,5.04.77,2.28.94,4.32.5,6.12-.86,1.55-2.93,6.32,0,7.21l.15,5.63c1.61,1.13,2.19,2.48,1.74,4.05-3,2.12-3.54,7.73-1.35,11.28-1.21,3.69-1.59,9.43-.32,13.23.55.94,1.37,3.22,1.63,3.43.57.48,2.26.1,2.66,1.33.38,1.15-.76,2.88-.63,3.09.63.94,6.5,2.79,4.25,5.83,3.77.52,2.31-.45,3.6-2.88,2.37-1.26,4.77-2.7,7.2-4.32,5.34-3.71,2.81,5.08,1.91,8.2l-1.91.44c-.39.76-.91.91-1.59.42-2.07,3.86-4.15,4.56-6.24,2.1l-4.2,5.26-1.65-.57c-3.24-3.86-4.05-8.13-7.2-12.24-.6.15-1.32.15-2.16,0-.42-.5-.57-1.49-.72-2.16-.19-.88-1.1-6.53.36-6.47,1.09.05.88,3.83,2.5,4.69,1.15.61,2.2-.35,2.16-.74-.03-.27-3.01-1.37-2.91-4.28.02-.6,2.25.06,1.48-1.84-6,2.02-1.31-6.42-1.53-7.46-.18-.85-1.73-1.45-1.91-2.34-.31-1.59,2.06-3.49-.89-4.24-.05-2.02,3-2.36,2.91-2.88-3.38-.68.15-3.71-.18-5.64-.16-.95-1.73-1.92-1.85-3.11-.12-1.11,1.34-2.56,1.38-4.24.03-1.29-1.33-.91-1.5-1.53-.93-3.27,1.39-3.22,1.38-3.43-.22-2.35-1.22-6.45-2.12-8.68h2.16c-3.61-1.41-2.1-5.28-2.88-8.29-.82-3.17-1.68-1.5-2.88-2.16-3.24,1.26-4.08-1.86-2.37-4.43-.24-1.81,1.1-13.31,1.86-13.8l1.72.12c.33-2.13.65-4.25.96-6.37,2.16-.32,2.59-3.76,3.04-4.16.24-.21,4.07-1.12,5.51-2.05,1.56-1.01,2.65-2.67,4.05-3.87.85.43.11,2.15.36,2.88Z"/>
  <path class="st108" d="M48.36,97.24c.88.79,1.39,2.14,1.53,4.06,7.56.65,4.82,7.48,2.07,11.78-3.27-.47-15.47-1.01-17.26-2.54-2.31-1.98-5.85-20.61-4.33-22.66,5.65,4.73,11.18,6.89,17.99,9.36Z"/>
  <path class="st108" d="M240.6,105.88c5.44-2.41,10.8-6.19,17.28-5.04,1,1.01-4.03,20.14-6.44,21.23-.93.42-4.67-.93-6.17-.92-2.5,0-5.37.59-8.28.57-.53-.19-1.3-.53-1.26-.94.13-1.39,2.52-12.32,3.03-13.25l1.84-1.65Z"/>
  <path class="st11" d="M148.44,105.16c1.93,5.76,10.94.85,11.52,1.44,0,.56-.55,2.77-.72,2.88-1.28-.41-1,.81.85,3.65-2.09,1.5-2.69,9.69-2.35,12.43.15,1.22,1.12,3.25,2.51,3.19,1.28,1.98.93,6.61.43,8.8-1.47-1.27-1.95.95-3.6.72,1.35-5.37.23-2.68-1.26-3.71s.36-2.79.36-3.69c-.04-6.02-4.49-9.21-4.74-10.29-.17-.75.93-1.93.3-3.18-.69-1.36-3.06-1.3-3.66-2.12-.16-.21.51-3.66-2.13-4.06-.21-.03-2.45.34-2.55.42-1.38,1.29,1.59,1.16,1.51,2.49-.1,1.9-1.51,2.31-1.51,3.98l3.59.36c-2.55,1.71-3.19,2.62-3.61,5.75l2.89.73c-4.33,1.6-2.23,1.8-2.93,5.02-.37,1.69-1.88,2.67-.67,4.7-.85-.61-3.48.16-3.59.01-.35-.47.69-2.39-.72-2.17v4.31s3.6-1.07,3.6-1.07l-3.61,3.23c-.49-1.32-1.95-5.22-1.99-6.25-.05-1.22,1.1-2.11,1.06-2.76-.05-.85-2.53-1.33.79-3.17,3.08-1.71,4.34.05.87-5.47l2.16-.36c-4.42-2.93-1.24-4.74.05-8.22.56-1.52.42-3.63,1.02-4.74,1.01-1.89,3.6,3.38,4.69,2.17,1.28-1.42-1.62-2.17-1.44-3.23.3-1.84,1.4-1.88,2.89-1.8Z"/>
  <path class="st76" d="M138.36,90.04c-.2.63-.44.62-.72,0-4.2-10.55-8.05-17.35-14.4-26.64-1.12-1.26-1.36-1.02-.72.72,3.2,10,6.42,19.93,11.51,29.17.17,1.56-.23,1.29-1.08.36-5.39-5.89-9.38-13.19-11.51-20.89l-4.33-19.43c13.46,8.3,18.59,21.8,21.24,36.72Z"/>
  <path class="st10" d="M159.24,109.48c.86,4.34,6.58,4.58,10.08,5.05-4.4,4.47-1.63,6.99,1.44,10.79.99,1.21.56,2.44-1.31,3.69.87,2.04-1.69,6.1-3.73,5.67-1.24-.25-2.98.16-4.32,0-.05.95.06,1.93,0,2.88h-.72c1.04-2.24-1.29-2.98-1.39-3.35-.23-.89.9-4.22.66-4.57-1.41,1.63-3.45-2.3-3.64-3.92-.22-1.84.68-11.3,1.51-12.84.3-.55.86-.6,1.41-.53v-.7c-2.01.28-1.45-1.29-1.43-2.89.18-.27,1.24.85,1.43.72Z"/>
  <path class="st45" d="M74.28,107.32c3.52,3.01,3.49,7.97-1.44,8.64-6.44-1.17-13.81-1.97-20.16-2.88,2.3-1.02,4.05-10.05,2.91-11.17-2.85-.19-7.99-.9-4.35-3.95,8.52,3.11,14.8,5.4,23.04,9.36Z"/>
  <path class="st108" d="M240.6,87.16c4.07-.83,10.26-5.03,14.67-3.5,2.13.74,2.95,12.58,2.6,15.02-4.75-1.61-10.6,1.15-15.11,2.88-1-1.68-1.36-3.84-1.09-6.49-1.09-2.68-1.45-5.07-1.07-7.19-.63-.2-.62-.44,0-.72Z"/>
  <path class="st108" d="M205.32,213.88c-.78-5.05,4.4-1.34,6.42.92,2.42-4.85,5.96-4.57,10.14-2.36,1.3-1.22,1.73-.14,1.44,1.44,1.9,3.81.34,12.66-4.28,14.08-3.98,1.22-6.04.05-9.4-1.12-2.29-3.33-4.37-8.94-4.32-12.96Z"/>
  <path class="st108" d="M57.72,129.64l4.17.9c.76,2.94,1.99,5.4,3.68,7.38,3.41.53,5.35,2.09,5.82,4.67-2.72.55-13.29,4.41-15.11,3.26l-10.81-15.49c4.07-.74,8.14-.56,12.24-.73Z"/>
  <path class="st43" d="M90.12,207.4c1.1-2.01,2.56-1.87,4.4.41,1.77-1.31,3.19-1.45,4.24-.41,2.34-.05,3.5,2.92,3.6,5.04.42.13.75.28.78.47.23,1.46-3.89,11.68-5.1,13.21-.17.38-1.39,1.86-1.76,1.92-5.18.85-8.7-11.01-9.76-14.88.11-1.95,1.87-4.89,3.6-5.76Z"/>
  <path class="st108" d="M226.2,138.28v-1.6c5.03-1.8,6.84-6.53,8.34-11.28l1.74-.79c1.94-.29,14.41-1.9,14.39.36-.01,1.2-11.05,16.1-12.6,16.25-1.83.18-8.99-3.27-11.87-2.93Z"/>
  <path class="st33" d="M129,146.92c0,.63.8,1.9.66,2.09-.17.23-1.33.3-1.76.78-.35.38.03,3.72,2.53,1.09.61-.64.38-1.97,1.43-1.79-.33,1.18.82,3.12.62,3.92-.17.69-1.43.82-1.81,1.4-1.08,1.66-1.5,4.77-3.85,4.04,1.76,1.85,1.13,2.74.72,5.03,4.09-.95,3.18,2.43,3.63,2.87.51.49,3.27-1.02,4.3-.7-4.12,2.74-2.03,3.22-2.41,6.01-.62,4.51-2.32,5.33-3.37,8.01-2.06,5.27.06,3.84,1.45,5.42-4.53,1.02-4.96-2.79-5.67-6.21-.77-3.7-1.51-11.3-1.55-15.06-.03-3.02,2.26-7.16,2.12-9.37-.06-.96-1.13-1.67-1.14-2.13-.01-.38,3.12-4.91,4.08-5.39Z"/>
  <path class="st43" d="M237.72,103.72c-5.18,2.41-10.84,5.76-15.84,8.64-4.12.38-3.5-1.16,1.87-4.62-1.4-.77-1.32-2.28-.72-3.59-1.83-1.21-3.01-2.19-1.15-4.03.7-2.64,10.87-10.15,12.91-10.31.49-.04.98.07,1.49.23,4.64,1.55,4.13,10.11,1.44,13.68Z"/>
  <path class="st108" d="M56.28,117.4c2.29.73,2.23,8.44,0,9.36-1.21.53-2.65.77-4.32.72-2.64.39-5.23.72-7.82,1.37l-7.3-14.33c6.42,1.15,12.97,2.02,19.43,2.88Z"/>
  <path class="st48" d="M85.8,107.32c-.06-2.21,1.86-2.45,5.76-.72,5.2,3.49,10.58,6.87,15.46,10.82,1.62,1.31,8.88,7.39,9.43,8.62.37.83-2.21,3.56-2.93,4.31-7.2-8.32-17.45-14.63-27-20.15-1.25-1.33-1.49-2.29-.72-2.88Z"/>
  <path class="st43" d="M77.88,97.96c1.91,1.24.08,6.59-2.16,6.48-7.5-3.63-15.25-6.45-23.04-9.36.86-2.33,3.55-6.07,5.76-7.2,6.66,2.71,13.21,6.52,19.44,10.08Z"/>
  <path class="st108" d="M55.56,87.16c1.54,1.92-2.63,7.41-5.04,7.2-6.28-2.32-13.72-3.4-19.13-7.9,1.57-6.83,16.11-2.49,21.14-.95,1.48.46,2.32,1.38,3.02,1.65Z"/>
  <path class="st66" d="M163.56,165.64c3.33,5.92,2.28,6.78,1.44,12.66-.29,2.03.99,5.33.68,7.79-.33,2.62-1.78,2.46-1.91,2.74-.62,1.31.59,3.25,1.57,4.18l4.69-3.6c-.39,2.04,1.65,2.99,2.89,4.32-.13,1.54-.19,2.83-.72,4.32l-1.06.82c-1.1,2.23-6.31,4.79-6.63-1.3l-3.1-.24c-.15.52-.41.97-.85,1.29-1.63,1.2-2.54-11.69.85-11.37q1.36-1.39,0,0c-.38.16-.76.29-1.15.32-3.49.29.36-9.5,1.15-11.4-1.64-2.24-2.51-4.73.76-5.88-2.62-1.86-1.24-7.53,1.4-4.64Z"/>
  <path class="st3" d="M82.92,126.76c6.63-1.97,12.94-.65,18.98,2.26,4.37,2.11,11.23,5.11,8.35,10.67-4.22-1.23-7.5-.15-11.49.03-.63-.2-.62-.44,0-.72,1.04-2.02-1.02-3.23-2.81-3.31-4.66.73-7.04-1.79-7.13-7.54-2.32,0-4.28-.46-5.9-1.39Z"/>
  <path class="st13" d="M135.48,112.36c2.84.57.8,3.24.39,4.71-.28,1.04,1.14,3.38-1.83,3.21l-.72-1.43c.55,4.25-.7,8.55-1.45,12.95l4.32-.36c-1.14,2.78-1.01,1.18-3.6,1.09l-1.44,2.16c-.26.3,1.71,1.91,2.16,2.15-.56,1.3-2.16,1.03-2.88,1.44-4.6,1.84-3.47-2.59-2.45-5.51-3.24,2.48-6.89-.35-4.03-3.85,1.6-2.16,2.52-6.37,3.01-7.06.58-.81,3.68-.14,4.61-2.99s-1.25-3.84-1.14-6.51c1.55.2,3.61-.29,5.04,0Z"/>
  <path class="st27" d="M98.04,141.88c1.9.83,11.33,6.48,11.12,7.63-.06.34-.18.68-.32,1.01-6.93.29-14,1.11-20.88,2.16-1.59-.46-1.44-1.48.45-3.05l-3.61-3.37c-1.94-.31-3.05-1.05-3.32-2.22l16.56-2.16Z"/>
  <path class="st68" d="M221.88,100.12c-.32,2.73,4.61,3.33,3.52,4.99-.16.24-2.05-.47-1.36,1.49l2.88-.35c-1.58,1.92-4.64,5.93-7.2,4.67l2.15,1.44c-3.59,2.07-7.25,4.33-10.8,6.48-2.67-1.11-1.68-7.21,0-9.36,1.79-3.77,6.63-8.58,10.8-9.36Z"/>
  <path class="st68" d="M162.84,138.28c.39.84,2.62,4.57,2.84,4.74.5.4,1.89-.68,2.2-.42-1.51,1.77-1.42,7.59-.73,9.68.23.7,1.6-.6,2.16.76l-1.43,1.79c3.68-1.7,3.54,1.06,1.76,1.44-1.04.22-3.22-2.13-3.92-1.43-.28.28,1.56,2.8-.37,3.59-.72.3.19-1.8-1.07-1.43.47,1.3-.27,3.91.67,4.66,1.77,1.42,2.65-1.29,2.88-1.43.6-.36,1.68.58,2.08.26s-.37-1.64.83-1.33c.53,3.63.72,5.57-2.52,7.91-2.01.06.48-2.62-1.79-3.96-3.3-1.97-2.73.94-2.88,1.09-.6,1.3-2.72,1.34-2.16-.72.02-.09-.3-.04,0-1.44.23-3.8-.62-7.18-2.56-10.16.63-4.33,1.58-8.75,2.85-13.27l.42-.33c.24.02.48-.02.72,0Z"/>
  <path class="st77" d="M206.76,110.2c-.03.55-.1,1.08-.31,1.55-.95,2.07-16.94,15.88-20.17,18.5-2.85,2.9-4.43,2.93-4.72.11-.05-.9-.61-2.2-.33-2.91.22-.54,4.78-4.9,5.71-5.75,6.15-5.67,13.19-10.72,19.82-15.82,2.74.08,1.06,2.74,0,4.32Z"/>
  <path class="st83" d="M240.6,87.16v.72c.25,1.9-3.01,3.71-4.32,2.16-5.3,3.12-9.56,6.37-14.4,10.08-3.86,2.96-7.13,6.26-10.8,9.36-.6,2.86-2.01,4.44-5.04,4.32-6.19,8.16-14.24,15.45-22.35,21.08l-1.41-.92c-.07-.89-.64-2.07-.72-3.6.96,2.24,1.75,1.13,3.23-.01,7.41-5.72,14.68-13.82,21.97-20.15.54-2.59,1.53-4.02,4.32-3.6.65-3.24,4.89-7.35,7.92-7.2,3.01-4.95,9.7-8.23,15.12-10.8,3.17-2.1,3.61-.86,6.48-1.44Z"/>
  <path class="st43" d="M235.56,108.04l1.18,1.17-3.01,11.09c.98-.12,1.46.43,1.83,1.42-4.68,1.35-10.29.67-15.12,1.44-5.72.77-2.03-4.16,0-6.48,5.06-2.96,9.84-6.01,15.12-8.64Z"/>
  <path class="st77" d="M204.6,121.72c-.12.58-.6,1.3-1.44,2.16-6.97,4.33-13.88,8.83-20.52,13.67-2.16-1.18-.3-2.86-.36-3.59,2.28-.98,4.96-3.38,6.82-5.06,5.65-5.1,11.25-10.17,16.94-15.1,1.99,1.23,1.12,7.58-1.44,7.92Z"/>
  <path class="st107" d="M192.36,178.6c2.02-1.1,3.34.87,2.88,2.88,3.91,1.03,7.05,3.47,9.44,7.33,2.86,1.49,4.51,3.36,4.96,5.63,2.08-.51,2.67.08,2.16,2.16,2.18-.82,3.57.72,2.88,2.88,3.13.99,5.66,3.44,7.6,7.33l1.04-.13c.37,2.38,1.44,4.35,0,7.2-.23-.46-1.14-.94-1.44-1.44-3.38-1.33-7.49-6.52-7.92-10.08-1.9.96-2.84-.18-2.16-2.16-3.06-.15-6.38-3.4-6.48-6.48-4.26-1.14-7.92-4.5-9.36-8.64-1.56,1.44-3.64-.29-2.88-2.16-1.63,1-3.36-2.09-3.6-3.6-.96-.1-1.68-.82-2.16-2.16-.56.25-1.04.49-1.44.72-2.4.03-3.21-1.98-1.44-3.6.67.22,1.09,1.05,2.16.71-1.17-1.24-1.48-2.18-2.16-3.59,3.56.89,6.85,3.65,7.92,7.2Z"/>
  <path class="st15" d="M224.04,154.12c-1.68,1.1-6.56,4.21-8.27,4.25-2.4.05-9.65-3.47-12.61-4.25-.12-.41-.21-.82-.2-1.23.01-1.53,6.9-4.76,8.84-5.25,3.44-.7,10.98,3.2,12.24,6.48Z"/>
  <path class="st73" d="M81.48,126.76l1.47.61c2.86-.29,4.55.43,5.05,2.17.36,8.06,2.73,8.6,10,8.01l.76,1.45v.72c-6.7.31-13.5.39-20.16,1.44l-.38-2.89c-3.41-.5-3-3.58-.44-5.24.19-1.6-.38-2.64-1.72-3.12l.38-1.71c1.41-.19,3.33-1.26,5.04-1.44Z"/>
  <path class="st32" d="M123.96,128.92c.04,1.44-.63,2.19.89,3.09,2.69,1.59,1.51-1.52,3.06-.92,4.38,1.7-2.73,6.37,2.53,7.19-1.14.65-4.73,3.34-5.37,4.34-1.76,2.76-.5,6.74-3.98,8.61-.36-3.17,2.31-10.89-.32-13.03-1.26-1.02-2.72.11-2.57-1.71.27-3.33,4.31-5.63,5.76-7.58Z"/>
  <path class="st101" d="M192.36,154.84c3.97.29,12.71,2.54,16.4,4.12.89.38,2.12.38,2.32,1.63-7.77,1.83-14.99,2.7-23.04,2.17-.02-1.2.02-2.4,0-3.6,2.02-1.11,3.46-2.55,4.32-4.32Z"/>
  <path class="st58" d="M154.2,87.88l.34-7.23c3.09-11.24,9.86-21.84,21.26-25.89,1.41,1.71-6.29,6.56-7.57,7.9-6.1,6.39-10.86,17.01-14.03,25.21Z"/>
  <path class="st77" d="M201,144.76c2.56.14,4.48.86,5.76,2.16.36.56.63,1.43.19,1.74-2.56,1.77-6.02,3.55-8.83,4.74-.53-.1-1.21.1-1.79,0-.36-.13-.4-.38-.37-.71-.61-.69-1.37-.5-2.16,0-4.33-.6-7.81.25-7.2-5.04,4.91-.35,9.62-1.94,14.4-2.88Z"/>
  <path class="st35" d="M113.16,216.76c-1.95-.65-1.96-1.5,0-2.16.23-1.35.49-1.64.78-.86.39-5.59,1.57-10.82,3.54-15.7,1.3-1.8,6.7-2.4,8.64-1.44-4,8.7-6.52,13-12.96,20.16Z"/>
  <path class="st14" d="M88.68,189.4c1.52-1.22,1.83-.94,2.58.7-.08,4.6-.22,8.93-.42,12.98-.11,2.64-2.65,7.44-5.04,8.64-.89-3.9-2.48-16.11-.76-19.12.58-1.02,2.65-2.38,3.64-3.2Z"/>
  <path class="st102" d="M82.92,126.76c1.16-.08,6.85-.16,7.13.07.46.39.88,6.58,1.6,7.04,1.72,1.09,8.04-1.52,9.26,4.78-.15.67-1.54.37-2.15.35-2.08-.04-5.1.08-6.8-.03-5.95-.4-4.43-8.11-5.75-10.1-.8-1.21-4.15.09-4.73-2.11.47-.05.97.03,1.44,0Z"/>
  <path class="st27" d="M210.36,128.92l.6,1.54c-1.17,1.91-1.51,4.12-1,6.61-2.27.84-2.85,1.49-1.76,1.93-5.44.77-11.09,2.58-16.56,3.6l-.34-1.1c3.61-3.63,7.57-7.1,11.86-10.42,2.45-.8,4.71-1.47,7.2-2.16Z"/>
  <path class="st110" d="M203.16,131.08c1.38.51-1.03,2.92-1.41,3.27-3.16,2.92-7.41,4.76-10.11,8.25-4.14.78-6.83,3.51-7.92-2.16,2.86-1.74,5.74-3.66,8.64-5.76,3.52-1.46,7.19-2.43,10.8-3.6Z"/>
  <path class="st72" d="M208.92,172.12c2.91,3.12,2.39,4.46-1.55,4.01-.11,2.32-.8,3.86-2.05,4.63-4.06-.6-7.8-3.1-10.08-6.48-1-1.35-1.1-3,.72-3.6,3.87-.2,7.3.19,11.09-1.33,1.14.28,1.29,2.09,1.87,2.77Z"/>
  <path class="st7" d="M187.32,177.16c.81,1.02,1.29,1.98,1.44,2.88,2.59,1.27,3.15,3.78,3.6,6.48,1.94-.68,2.65.5,1.44,2.16,2.9.6,6.3,7.4,5.04,10.08,3.37,1.78,5.04,6.42,4.32,10.08,2.02.17,2.15.74.72,2.16,2.14.08,2.62,1.04,1.44,2.88,1.63,4.11,2.99,8.72,4.32,12.96-.78-.27-1.12-.22-2.16-.72-2.54-4.12-4.7-8.52-6.51-13.2l.75-1.92c-2.17-.04-2.26-1.54-.72-2.88-4.42-4.62-7.93-11.67-8.64-18-1.71-.29-2.23-1.34-1.44-2.88-3.22-1.41-5.81-5.94-5.04-9.36l.74-1.44c.67-.16.6.64.7.72Z"/>
  <path class="st17" d="M111.72,218.2c-2.69,2.77-4.96,5.78-8.41,7.79-1.86,1.08-2.59,2.04-4.55.85.88-4.81,2.56-9.13,5.04-12.96,1.44-1.89,8.28,2.05,7.92,4.32Z"/>
  <path class="st17" d="M207.48,226.12c-6.15-2.97-9.86-6.7-14.4-11.52.85-.83,2.16-1.16,3.94-1.02,1.56-1.57,3.12-2.43,4.7-2.58,2.02,4.9,5,9.7,5.76,15.12Z"/>
  <path class="st78" d="M107.4,127.48c.95,1.01.55,1.38-.72.72-6.33-3.42-14.74-7.32-21.6-9.36-2.15-.57-1.43-5.54.72-5.76,7.29,4.17,15.25,8.92,21.6,14.4Z"/>
  <path class="st52" d="M110.28,176.44c.66,1.15-.06,2.83-2.16,5.04.31.98-.54,1.69-1.44,2.16-1.6,3.78-6.12,8.09-9.36,10.08-2.49-1.49-.7-9.4,1.44-11.52-.05-.25.19-.49.72-.72,3.55-1.92,7.15-3.58,10.8-5.04Z"/>
  <path class="st111" d="M236.28,124.6c-1.01,3.59-3.07,9.33-6.11,11.53-.37.26-3.75,2.1-3.97,2.15-1.32.3-3.5-.13-5.04,0-2.18-1.31-.02-4.61,2.16-4.32-.11-1.58,1.06-2.6,3.52-3.06,1.62-3.87,4.04-5.97,7.28-6.3.6-.14,1.49.1,2.16,0Z"/>
  <path class="st71" d="M221.16,126.04c.93.77,4.01,6.33,3.64,6.81l-1.48,1.11c-.32,1.43-2.09,2.66-2.16,4.32-1.41.12-2.92-.14-4.32,0-1.76-1.76-2.87-3.91-3.32-6.47-3.53.2-3.93-1.88-1-3.61,2.96-.76,5.56-1.63,8.64-2.16Z"/>
  <path class="st57" d="M118.92,178.6c-.86,3.51-2.78,7.11-5.76,10.8,1.46,1.7.82,3.43-1.44,3.6-.08,5.85-3.24,12.93-7.2,17.28,1.66,1.37,1.5,3.21-.72,3.6-1.49,4.31-3.3,8.73-5.04,12.96-.24-.15-.45-.54-.72-.72,1.1-2.45,3.62-10.83,4.32-13.68-1.13-1.49-1.34-2.65.72-2.88.23-2.55.64-5.07,1.23-7.54l1.65-.38c-.86-3.58,1.63-9.1,5.04-10.8-1.85-.93-1.31-2.01.72-2.16-.25-4.69,2.68-10.22,6.48-12.96.23.99.54,1.66.72,2.88Z"/>
  <path class="st61" d="M81.48,154.12c-2.64.99-5.94,2.24-8.64,2.88-3.25.71-4.93-1.13-5.06-5.52-4.03-1.91-4.98-3.19-2.86-3.84,2.03-.5,5.03-1.94,7.2-2.16,2.49,3.14,5.49,5.06,9.21,6.98l.15,1.66Z"/>
  <path class="st22" d="M98.76,159.16c5.23-4.08,6.95-7.88,15.12-6.48.53,4.71-.08,4.99-3.6,7.2.24,1.53-1.67,2.38-2.88,1.44-.43.37-.91.42-1.45.4-1.92-.04-7.55-.35-7.19-2.56Z"/>
  <path class="st46" d="M81.48,144.04c5.09.28,4.47,1.88,7.24,3.94.62.46,1.99.27,2.12.39.86.77-3.03,3.24-2.88,4.31-1.19.18-2.87,1.39-5.04,1.44-.86-3.34-5.02-5.88-8.88-7.09l-.48-1.55c2.2-1.24,5.44-1.58,7.92-1.44Z"/>
  <path class="st88" d="M147.72,213.88c1.58-.67,5.57-7.18,6.12-7.19.99,0,1.67,2.77,1.81,2.87.76.52,3.81-4.55,4.68-5.03,2.39-.26-.7,1.99,1.07,2.15-.85,1.45-6.59,10.84-7.17,11.17-2.18,1.25-5.32-2.54-6.51-3.97Z"/>
  <path class="st23" d="M81.48,121.72c.1,1.67-.38,2.63-1.44,2.88-4.88.86-8.66,1.66-13.68,2.16-2.78.35-2.89-1.29-.33-4.93-1.13-1.56-1.01-2.8,1.05-2.99,4.97.82,9.51,1.62,14.4,2.88Z"/>
  <path class="st1" d="M223.32,142.6c3.84.4,7.65.3,11.52,1.44.22,1.34-.94,2.08-1.78,2.89-1.74,1.68-4.89,4.31-6.86,5.74-1.63,1.05-4.08-.13-3.6-2.16-1.45-1.01-1.46-1.62-.07-2.56-1.04-2.62-.77-4.4.79-5.36Z"/>
  <path class="st20" d="M76.44,128.2c1.95,2.63,3.78,0,2.17,4.32l5.03-.71c.18,3.2-5.49,1.12-6.47,3.97-.61,1.77,1.59.49,2.18,1.54.72,1.3,1.14,3.29-.74,3.85-1.38.22-2.96.46-4.32.72-2.2.5-2.43-.9-.72-2.16-.68-1.43-.8-2.9-.37-4.41-6.72-1.08-5.26-4.82.8-5.48l-.43-.91c.54-.07,1.6-.55,2.88-.72Z"/>
  <path class="st80" d="M212.52,128.2l-1.08,2.16h3.96s-.72,2.87-.72,2.87h2.88c-2.69,2.38.21,2.77-.72,5.04-2.73.28-6.11.36-8.64.72-1.86.74-3.78-.66-3.58-2.53.25-2.25,3.28,1.18,4.3.36-1.17-2.87-.57-5.65,1.44-7.91.6-.17,1.24-.49,2.16-.72Z"/>
  <path class="st78" d="M170.76,125.32c.94,1.16,2.88,1.86,3.33,3.59.39,1.49-.96,2.06-1.17,3.3-.69,4.15,4.36,9.11,5.03,13.27-3.32-1.27-3.09-4.79-4.99-6.88-.95-1.04-5.98-3.67-7.24-3.92,1.4-.88.58-3.48.74-3.57.49-.26,1.9.17,2.15-.04.21-.17-.93-1.64-.8-2.42.04-.23,2.5-2.2,2.95-3.34Z"/>
  <path class="st12" d="M104.52,163.48c1.3.37-2.1,5.12-2.4,5.34-1.78,1.3-6.25.93-8.4.42-1.02-.05-7.38-.22-5.75-2.15,2.87-1.31,5.49-3.77,7.91-5.77,1.23-.37,2.61-.03,4.15,1.02,2-.16,3.5.23,4.49,1.14Z"/>
  <path class="st22" d="M184.44,174.28c.12,1.35.88,2.43,1.44,3.6,1.54,3.2,3.41,6.21,5.04,9.36-.71,1.63-4.97,3.18-6.48,2.16-1.68-1.16-3.42-5-2.88-7.2-.9-3.3,1.31-5.09.72-8.64,1.06-.33,1.48.49,2.16.72Z"/>
  <path class="st56" d="M240.6,105.88l-3.6,15.84c-.48,0-.96.02-1.44,0-.81-.03-3.64.32-3.61-.37l3.61-13.31c1.67-.83,3.36-1.41,5.04-2.16Z"/>
  <path class="st40" d="M219.72,191.56c1.36,5.16,2.78,9.75,3.6,15.12l-.72,2.53c-2.7-3.17-5.07-6.7-7.92-9.73-1.49-1.96,1.11-7.98,3.6-7.92.31-1.68.83-1.54,1.44,0Z"/>
  <path class="st18" d="M92.28,176.44l1.44.72c1.41,1.08.72,3.63,0,5.04.93,1.91-4,5.45-5.76,5.76-1.1,1-2.4,1.99-3.59,2.88l2.79-13.97c.64-.88,3.86-.38,5.12-.43Z"/>
  <path class="st60" d="M51.24,97.96c-.17,3.72,2.02,1.43,4.88,2.64s.22,9.15-.52,11.43c-.64,1.97-1.33.86-2.92,1.05-.24-.03-.48.03-.72,0-.95-1.84,2.21-8.6,1.44-9.36-.89-.88-6.91.97-5.04-6.48.92.33,1.97.39,2.88.72Z"/>
  <path class="st65" d="M240.6,87.88c2.47,4.31,3.32,8.87,2.16,13.68-1.63.63-3.45,1.42-5.04,2.16-1.11-2.26.88-4.96.69-7.48-.14-1.86-1.56-4.34-2.13-6.2,1.37-.8,2.75-1.77,4.32-2.16Z"/>
  <path class="st39" d="M67.08,118.84c-1.49,3.58,2.68,2.21,4.32,2.52l-5.04,1.81c2.22,1.88-3.54,1.9,0,3.59-4.76.48-9.52,1.13-14.4.72,1.47-.22,2.25-.64,4.32-.72.35-1.12,1.17-1.44,2.16-1.64-.6-3.38-.12-5.71,1.44-7,2.26.33,4.71.31,7.2.72Z"/>
  <path class="st112" d="M190.2,170.68c1.22.32,1.94.8,2.16,1.44,1.53-1.3,3.6.25,2.88,2.16,3.35,2.19,6.68,4.36,10.08,6.48,3.4-.41,7.42,1.81,8.64,5.04,1.13-.96,2.57,0,4.32,2.88.76,1.17.39-1.12,1.44,2.88-.43-.09-1.17.14-1.44,0-1.29,1.7-3.7-.3-2.88-2.16-3.62.37-8.77-2.32-10.08-5.76-3.57.49-8.18-3.14-9.36-6.48-2.03,1.49-3.14-.01-3.6-2.16-1.38,1.56-5.55-2.11-4.32-3.6.41-.01,1.36-.7,2.16-.72Z"/>
  <path class="st111" d="M64.2,129.64c1.73.47,2.89,2.27,3.51,5.41,4.18.14,6.13,1.7,5.85,4.67.28.52.24,1.57.72,2.16-.84.16-1.85.51-2.88.72-1.69.37-1.43-1.36-2.66-2-3.21-1.67-4.55-.28-6.56-4.99-1.59-3.71.4-4.03-4.47-5.97,2.15-.09,4.34.13,6.48,0Z"/>
  <path class="st104" d="M105.96,141.88c3.08,1.52,6.16,3.77,8.64,5.76.06.95-.03,1.93,0,2.88-1.91.06-3.85-.08-5.76,0-3.14-3.01-9.1-4.82-10.8-8.64,2.63.08,5.3-.12,7.92,0Z"/>
  <path class="st26" d="M95.16,196.6c-.16,2.32-2.26,5.4-4.32,6.48-2.81-2.57-1.16-2.53-1.12-3.95.06-2.46.11-5.12.08-7.59-.02-1.28.81-1.22-1.11-2.15.26-.21.46-.5.72-.72-.04-1.57,4.09-5.73,5.76-4.32l1.37,1.41c-1.15,3.7-1.4,7.28-1.37,10.83Z"/>
  <path class="st30" d="M213.24,177.16l2.15,7.4c-.19.69-.69,1.08-1.43,1.24-2.86-1.71-5.78-3.25-8.64-5.04.29-4-.16-7.64,5.04-5.77l-1.44-2.87c1.41,1.68,3.07,3.19,4.32,5.04Z"/>
  <path class="st21" d="M85.08,156.28c2.58.1,6.76,3.17,5.76,5.76-1.65,1.27-4.34,4.95-6.48,5.04-1.32-.2-1.8-1.2-1.44-3-3.12.02-5.69-2.66-4.32-5.64,2.16-.67,3.96-1.61,6.48-2.16Z"/>
  <path class="st93" d="M73.56,128.92c1.99-.28,1.88.67.74,1.85-1.35,1.4-3.67-.08-4.34,2.46,5.91.48,5.08,1.7,3.6,6.49-2.2-4.07-5.51-2.28-7.04-3.77-.96-.94-1.3-4.92-2.32-6.31,2.93-.17,6.51-.34,9.36-.72Z"/>
  <path class="st34" d="M161.4,197.32c2.55-3.02,6.09-.68,4.33,2.88,1.06-.73,2.52-.14,3.41-.53,1.84-.8,1.06-3.31,3.06-1.63-.4,1.14-5.75,8.68-6.43,8.99-.82.37-3.16-.75-4.37-.35,1.8-3.09,1.66-3.04-.72-5.75,2.1.56,2.25,1.3,2.72-1.24.44-2.34-.17-1.61-2-1.64-.62-.23-.62-.47,0-.72Z"/>
  <path class="st17" d="M234.12,124.6c-4.98,1.17-3.24,4.92-6.09,7.23-1.21.98-3.38,1.15-4.71,2.13.7-3.14-3.81-5.21-2.16-7.92,4.28-.74,8.64-.96,12.96-1.44Z"/>
  <path class="st105" d="M77.16,108.76c.68,1.51,2.12,1.63,3.6,1.44,1.13.6,2.03,1.69,2.88,2.16-.2,2.43-.92,4.35-2.16,5.76-2.79-.72-5.84-1.65-8.64-2.16.98-3.44,5.58-2.88.72-5.4,2.16-.62,1.64-1.58.72-3.24,1.01.49,1.89.94,2.88,1.44Z"/>
  <path class="st31" d="M184.44,194.44c2.1,1.7,7.6,16.72,6.2,16.82-.38.03-.77-.1-1.16-.26-2.11-2.68-8.8-12.41-9.71-15.17-.45-1.37.36-2.02.35-2.83,1.44-2.32,3.27-.2,4.32,1.44Z"/>
  <path class="st43" d="M64.92,147.64c-.23,2.8,1.41.45,2.06.84.13.08,1.95,2.13,2.03,2.27,1.52,2.88-.79,5.6,3.83,6.26-.81.19-1.85.7-2.59.69-3.7-.06-8.24-6.68-11.08-8.97,1.8-.64,3.9-.62,5.76-1.08Z"/>
  <path class="st8" d="M211.08,118.84c-1.79,1.08-3.89,2.44-5.76,3.6-1.14.55-1.4.42-.72-.72.91-2.28.81-5.47,1.44-7.92,1.66-1.44,3.37-2.91,5.04-4.32v9.36Z"/>
  <path class="st5" d="M162.12,138.28c-.7,3.54-1.45,5.03,0,8.65l-1.44-.36c1.62,3.37-.38,3.12-.53,3.59-.45,1.4,2.17,6.12,2.48,8.05.27,1.67-1.01,2.87-1.22,3.84,1.14-2.16-2.75-3.4-2.87-3.61-.13-.23,2.2-2.24,1.36-4.58-.62-1.74-3.77-.25-2.83-2.97.11-.3,1.5-.29,1.48-.72-.06-1.27-1.68-1.7-1.36-3.4.5-2.61,3.73-5.32,4.21-8.48h.72Z"/>
  <path class="st89" d="M220.44,116.68c-.43,2.65,1.62-.32,2.16,2.52.46,2.39-2.06-.8-3.27,1.05-.54.84-1.14,3.46,1.11,2.91-2.98.48-8.42,2-11.52,2.88-.88-.39-.88-1.11,0-2.16,3.86-2.36,7.59-4.9,11.52-7.2Z"/>
  <path class="st53" d="M159.97,87.16l12.95-25.92c-2.27,9.27-6.3,19.05-12.95,25.92Z"/>
  <path class="st75" d="M184.44,189.4c2.23.94,2.63,2.23,1.44,4.32l2.08,1.48c1.83,3.27,3.78,8.18,2.96,11.48,2.17-.21,3.36,3.78,1.44,5.04,2.13.15,1.97,1.67,0,2.16-.85-.96-1.8-1.51-2.88-2.88,1.3-.49.09-2.23-.18-3.05-1.47-4.55-3.24-9.02-4.86-13.51-1.95-1.25-3.17-2.3-1.44-4.32-1.28-1.34-2.24-3.02-2.88-5.04.24-2.08,1.59-1.04,1.44-2.88.63,2.31,2.11,4.97,2.88,7.2Z"/>
  <path class="st82" d="M78.6,158.44c2.43,3.2.95,5.53,5.75,2.88v5.76c-3.35.14-9.63-4.64-12.23-6.84,1.94-1.08,4.44-1.16,6.48-1.8Z"/>
  <path class="st27" d="M118.92,178.6c.25,1.68.83,5.03.72,6.48.75,2.42-1.38,7.35-2.88,9.36-1.85.5-3.05-1.18-3.6-5.04,1.29-2.9,2.61-5.8,3.95-8.69.48-1.05-.16-2.55,1.81-2.11Z"/>
  <path class="st102" d="M73.56,145.48c1.72.12,6.22,2.42,7.57,3.59.66.57,4.58,4.69,1.79,5.05-.46.01-1.04.07-1.44,0-.59-.11-7.42-4.27-7.87-4.73-1.14-1.16-1.54-2.3-1.49-3.91.45-.04.99-.03,1.44,0Z"/>
  <path class="st8" d="M211.8,147.64c-1.7,3.64-6.38,3.48-8.64,6.48-1.35-.35-3.5-.42-5.04-.72,1.05-3.31,6.41-4.19,8.64-6.48.56-1.43,4.81-.74,5.04.72Z"/>
  <path class="st49" d="M91.56,106.6c-1.95,3.39-2.1.18-2.61.03-.83-.24-2.79.7-3.15.69l-.34.93c-1.55-.61-3.11-.92-4.7-.93-.27-.14-.47-.59-.72-.72-1.96-1.09-.84-6.35,1.44-6.48,3.63,2.19,6.58,4.13,10.08,6.48Z"/>
  <path class="st9" d="M203.16,144.04l6.24.41.24,1.03c1.45-1.84,5.6-1.07,5.76,1.44,3.97-.38,6.37.82,7.2,3.6,1.02.54,1.93,2.23,3.6,2.16-.74.54-1.4.94-2.16,1.44-3.49-2.47-8.15-5.25-12.24-6.48-1.89-.57-3.5-.39-5.04-.72-2.16-.46-4.93-.37-5.76-2.16.36-.07,1.05-.53,2.16-.72Z"/>
  <path class="st77" d="M118.2,175.72c-2.11,4.32-4.45,8.6-6.48,12.96-4.6-.39-2.64-6.34,0-8.64.46-2.45,2.96-4.31,5.04-5.76.45-.16,1.25-.94,1.43-.72.11.68-.13,1.55,0,2.16Z"/>
  <path class="st25" d="M107.4,183.64c1.47,1.28,1.29,2.12-.72,2.16.01,3.55-4.73,7.78-7.92,8.64.08.56-.16.8-.72.72,1.29,1.62.57,2.76-1.44,2.16l-1.1,3.88c-.95,2.26-3.31,6.03-5.38,6.2-1.07,1.92-2.32,3.96-3.6,5.76-.13-.47-.61-.98-.72-1.44,2.08-2.58,3.31-5.85,5.04-8.64,1.34-2.15,2.81-4.44,4.32-6.48-.93-1.92.04-3.6,2.16-2.88,2.62-3.32,6.95-6.75,9.36-10.08.22-.3.46-.29.72,0Z"/>
  <path class="st38" d="M121.08,186.52c0,2.46-.17,7.54-2.88,7.92,1.77,1.32,1.44,3.07-.72,3.6-1.05,4.76-1.72,9.53-2.65,14.31-.25,1.28.29,2.68-1.67,2.25-.65-.07-.62-.32,0-.72-1.75-4.93-.35-12.46,2.88-16.56-1.7-1.35-1.39-2.45.72-2.88.56-2.51,2.69-6.9,2.88-9.36.75.26,1.12.74,1.44,1.44Z"/>
  <path class="st54" d="M113.16,213.88c-.03.23.01.48,0,.72-.03.72.02,1.44,0,2.16-.49.54-.96.94-1.44,1.44l-7.92-4.32c.33-.97.3-2.42.72-3.6,1.57-1.87,8.6,1.22,8.64,3.6Z"/>
  <path class="st28" d="M217.56,142.6c8.71-2.43,3.94,7.07-2.16,4.32-1.83-.72-3.84-1.03-5.76-1.44-2.09-.91-1.09-1.6.72-2.16,2.58-.28,4.33-.74,7.2-.72Z"/>
  <path class="st65" d="M107.4,161.32c.52,1.61-1.42,3.22-2.88,2.16-3.35,1.05-6.2.46-8.64-2.16.91-.76,1.94-1.43,2.88-2.16,2.72,1.51,7.17-.6,8.64,2.16Z"/>
  <path class="st82" d="M234.12,88.6c-4.95,3.28-10.46,7.13-15.12,10.8-.9-.09-1.38-.57-1.44-1.44,5.19-3.57,9.89-8.28,16.56-9.36Z"/>
  <path class="st74" d="M223.32,142.6c-.79,2.69,2.24,6-.71,6.95v.97c-1.73-.9-5.69-3-7.21-3.6,3.18.6,4.5-2.19,6.48-3.96-1.09-.69-3-.35-4.32-.36,1.53-1.93,4.3-.15,5.76,0Z"/>
  <path class="st50" d="M201,208.12c.48,1.13.45,2.23.72,2.88-2.3,3.09-4.53,5.47-8.64,3.6-.23-.25-.5-.47-.72-.72-.1-.67.15-1.57,0-2.16.78-1.09,2.09-1.6,3.96-1.53.71-1.33,1.55-2.02,2.52-2.07.36-2.06,1.1-1.52,2.16,0Z"/>
  <path class="st94" d="M126.84,193c2.17,2.36-.42,2.94-.72,3.6-2.73,1.49-5.59,1.62-8.64,1.44.26-1.18.43-2.44.72-3.6,1.57-1.93,6.17-2.51,8.64-1.44Z"/>
  <path class="st102" d="M59.88,118.12v8.64c-1.19.04-2.4-.05-3.6,0v-9.36c1.45.19,2.62.58,3.6.72Z"/>
  <path class="st41" d="M115.32,164.2c5.75,2.29-1.62,2.85-4.32,3.6-3.21.23-4.65-.73-4.32-2.88-.86-1.83,2.07-3.93,3.6-2.88,1.96-.6,4.14.23,5.04,2.16Z"/>
  <path class="st54" d="M90.84,155.56c2.36.3,4.04,1.26,5.04,2.88-1.65,1.31-3.51,2.42-5.04,3.6l-5.76-5.76c1.95-.43,3.93-.43,5.76-.72Z"/>
  <path class="st96" d="M58.44,87.88c-.58,2.57-3.3,6.38-5.76,7.2-.64-.24-1.38-.43-2.16-.72l5.04-7.2c.73.27,1.75.26,2.88.72Z"/>
  <path class="st20" d="M217.56,97.96c1.53-.17,1.61-.09,1.44,1.44-2.38,1.88-5.35,5.03-7.92,7.2-2.02-.38-1.57-2.19-.72-3.6,2.41-1.8,4.73-3.34,7.2-5.04Z"/>
  <path class="st73" d="M126.84,193c-3.03.44-5.37,2.1-8.64,1.44.63-2.53,1.32-6.04,2.88-7.92.64,1.39.45,2.11,1.78,3.62s3.09,1.88,3.98,2.86Z"/>
  <path class="st54" d="M81.48,100.12l-1.44,6.48c-1.42-.74-2.88-1.46-4.32-2.16l2.16-6.48c1.24.71,2.39,1.43,3.6,2.16Z"/>
  <path class="st79" d="M218.28,188.68c-1.74-.45-2.99-2.08-4.32-2.88.8-2.96-1.89-6.38-.72-8.64,2.73,4.05,4.01,9.94,5.04,11.52Z"/>
  <path class="st106" d="M110.28,159.88c-.07.69.95.8,1.44.72.83,1.85.42,2.27-1.44,1.44-1.83,1.22-2,1.3-3.6,2.88,1.88,1.27-2.5,4.16-2.64,3.93-.37-.59.71-1.15.48.39-3.15.45-7.57,1.61-10.8,0,9.71.45,5.98-.5,10.8-5.76.6-.65,2.07-1.57,2.88-2.16,1.08-.78,2.12-.96,2.88-1.44Z"/>
  <path class="st84" d="M98.76,180.04c-.9,1.37-1.09,1.56.72,1.44.11.81-.57.62-.72.72-.84,2.69-2.04,3.41-3.6,2.16-1.67,1.25-4.31,3.08-5.76,4.32l-1.44-.72c1.43-1.3,4.4-4.84,5.76-5.76-.11-2.05,1.06-2.34,2.16-.72.47-1.79,1.32-2.77,2.88-1.44Z"/>
  <path class="st29" d="M90.84,155.56c3.3-.53,6.59-1.92,10.08-1.43-1.38,1.66-3.35,2.97-5.04,4.31-2.47-.51-3.76-.13-5.04-2.88Z"/>
  <path class="st81" d="M83.64,112.36c.48.27,1.42.3,2.16.72l-.72,5.76c-1.02-.3-2.42-.42-3.6-.72-.69-1.46.32-6.42,2.16-5.76Z"/>
  <path class="st95" d="M188.04,171.4c1.06,1.34,2.9,2.65,4.32,3.6,1.39,1.44,2.45,2.79,0,3.6-2.58-2.43-5.22-4.89-7.92-7.2-.02-.05-.84.1-.72-.71,1.43-.41,3.14.75,4.32.71Z"/>
  <path class="st97" d="M105.96,141.88c6.1.27,3.1.55,6.09,2.93,1.85,1.47,2.3-.77,2.55,2.83-3.63-1.15-6.64-2.26-8.64-5.76Z"/>
  <path class="st37" d="M111,167.8c-2.48.69-3.86,1.06-6.48,1.44l-1.44-.36c1-1.6,2.29-2.68,3.6-3.96l4.32,2.88Z"/>
  <path class="st62" d="M192.36,154.84c1.14,1.12,1.95.16.72,1.8-.94,1.26-3.28,4.17-5.04,2.52-.02-1.44,0-2.89,0-4.32,1.43.07,2.9-.1,4.32,0Z"/>
  <path class="st4" d="M211.08,106.6c-1.42,1.2-2.92,2.38-4.32,3.6v-4.32c1.21-.93,2.35-1.95,3.6-2.88,1.17.61.68,2.45.72,3.6Z"/>
  <path class="st44" d="M192.36,134.68c-2.15,2.72-4.69,6.21-8.64,5.76-.01-.07-.77-.11-.42-.7,1.22-2.03,6.79-4.12,9.06-5.06Z"/>
  <path class="st2" d="M103.08,177.88c-1.46.66-2.9,1.43-4.32,2.16-.99.51-1.79.79-2.88,1.44-2.56-1.62-1.36-3.83,1.44-4.32,1.36-.6,5.61-1,5.76.72Z"/>
  <path class="st67" d="M183,190.12c.52,1.41.93,2.91,1.44,4.32l-4.32-1.44c-.02-1.41-.11-2.93,0-4.32.69-1.42,1.65-.94,2.88,1.44Z"/>
  <path class="st90" d="M208.92,126.04c-2.41.68-5.85,3.38-8.65,2.52,2.84-1.54,5.88-2.99,8.65-4.68l.56.35-.56,1.81Z"/>
  <path class="st70" d="M116.76,174.28c-1.6,1.94-3.29,3.96-5.04,5.76-1.2,2.83-2.64,4.03-4.32,3.6h-.72c.5-.7.99-1.43,1.44-2.16,1.73-2.86,3.25-5.15,6.48-6.48.7-.21,1.46-.48,2.16-.72Z"/>
  <path class="st42" d="M115.32,164.2c-1.42-.57-3.87-.26-5.04-2.16.53-.36.96-1,1.44-1.44,3.78-.6,2.15-.02,3.6,3.6Z"/>
  <path class="st69" d="M114.6,175l-6.48,6.48c.64-1.04,1.45-3.75,2.16-5.04,1.49-.59,2.8-.98,4.32-1.44Z"/>
  <path class="st86" d="M85.8,107.32l1.45,2.51-.73.37c-1.84-1.06-3.88-1.88-5.76-2.88,1.16-1.75,3.59-.05,5.04,0Z"/>
  <path class="st92" d="M195.96,170.68c-.04,1.15.45,2.99-.72,3.6-1.22-.79-1.95-1.51-2.88-2.16-1.16-.65-1.41-1.2,0-1.44,1.2-.04,2.41.06,3.6,0Z"/>
  <path class="st84" d="M92.28,176.44c4.54-.17,9.13.12,13.68,0,.03,1.27-2.04,1.05-2.88,1.43-1.21-1.31-3.94-.67-5.76-.72-1.74,2-2.94,2-3.6,0-.61-.05-1.25-.02-1.44-.72Z"/>
  <path class="st103" d="M81.48,121.72c.99.26,1.8.38,2.88.72,1.73.53,1.75.86,0,1.44-1.4.2-2.91.47-4.32.72.09-1.81-.72-3.33,1.44-2.88Z"/>
  <path class="st64" d="M210.36,143.32l-.72,2.16c-2.15-.46-4.66-.47-6.48-1.44,2.19-.38,4.94-.48,7.2-.72Z"/>
  <path class="st59" d="M180.12,185.08c1.74-.55,2.2,3.19,2.88,5.04l-2.88-1.44c.09-1.18-.13-2.43,0-3.6Z"/>
  <path class="st99" d="M80.76,110.2l-.5.62c-1.71.53-2.82-.41-3.81-1.7l.71-.36c.99.5,2.35.78,3.6,1.44Z"/>
  <path class="st55" d="M123.24,63.4l-.72.72c-.2-.64-2.12-1.9-1.43-3.6.32-.71,1.68,2.18,2.15,2.88Z"/>
  <path class="st19" d="M84.36,122.44c1.15.36,2.72.36,3.61,1.08,0,.74-2.77.24-3.61.36v-1.44Z"/>
  <path class="st100" d="M107.4,127.48c.71.62,1.96,1.04,2.16,2.15-1.44.43-2-.96-2.88-1.43l.72-.72Z"/>
  <path class="st6" d="M138.36,90.04c.08.43,1.66,2.14.36,2.89-.38,0-.78-2.13-1.08-2.89h.72Z"/>
  <path class="st47" d="M193.8,152.68c-.35-2.59.86-.56,2.89-.69-.11.31-.71.58-.73.69-.7-.06-1.47.1-2.16,0Z"/>
  <path class="st100" d="M140.52,201.64c-1.27.82-1.34.98-2.16,0l.73-1.44c.56-.29,1.16,1.09,1.43,1.44Z"/>
  <path class="st24" d="M122.52,157.01v1.43c-1.06.23-1.5-.32-2.15-1.08l2.15-.35Z"/>
  <path class="st91" d="M205.32,122.44c-.72.44-1.41.98-2.16,1.44-.35-1.26,1.36-1.96,1.44-2.16l.72.72Z"/>
  <path class="st85" d="M192.36,170.68v1.44c-.49-.34-1.94-.09-2.16-1.44.72-.02,1.44.02,2.16,0Z"/>
  <path class="st5" d="M163.56,164.2c.09.42-.14,1.19,0,1.44-5.53-.26.7,3.83.73,5.39l-2.88,1.1c-.52,1.63,1.41,2.76,1.41,3.95,0,2.79-5.32,8.68-1.42,11.16.26-1.09-.18-2.56,1.43-2.88l.72,3.6c-.6-.44-1.81-.5-2.15-.72-.53,2.24-1.3,6.07-1.47,8.26-.19,2.44,0,1.33,1.47,1.82-.11.13.09.49,0,.72-.63,1.57.09,2.06,0,2.15-.78.89-5.74-.88-5.06,5.76l-2.15-3.59c2.3-4.3,3.18-2.14,4.21-2.97,1.99-1.61-1.33-6.78-1.36-8.18,0-.36,2.22-.07,1.47-2.79-.15-.55-1.47-.2-1.52-1.52-.09-2.39,1.89-3.7,1.61-6.53-.13-1.37-1.53-1.01-1.55-1.46-.12-3.84,3.25-11.15,4.35-15.43.39.23,1.97.9,2.16.72Z"/>
  <path class="st18" d="M141.96,144.04c.89,1.58,1.93,4.23,1.44,6.01-.17.63-1.91.21-1.44,1.54.58,1.62,3.47,2.36,3.59,2.55.71,1.08-1.67,2.21-2.01,3.37-.25.83-.32,5.74-.11,5.94.2.19,3.68-.08,4.28,1.84-4.86.44-1.61.85-2.5,2.54-.37.71-2.08-.12-2.53,1.06.8,1.01,2.77,3.83,2.71,4.93-.03.57-.76,1.23-.87,1.85-.13.74.43,1.69.18,2.05s-1.41.28-1.89,1.36c-1.58,3.57.37,4.48.56,6.38.17,1.62-1.31,4.12-.71,6.1-.58-1.01-2.01-1.66-2.08-3.2-.1-2.11,1.55-6.7,1.35-8.65-.11-1.09-1.25-1.85-1.4-2.95-.21-1.62-.28-4.88-.09-6.47.17-1.45,1.75-1.4,2.41-2.65,1.98-3.73-.68-2.2-.91-2.35-1.15-.75.11-1.67-.14-2.71-.19-.81-1.3-1.26-1.33-2.34-.01-.49,1.56-.37,1.48-.71-.61-2.46-1.95-1.29-2.17-1.44-.62-.41-.19-4.56.14-5.62.28-.88,1.31-1.36,1.79-2.43.16-.36-.5-1.18-.27-1.55.12-.2,1.23.01,1.24-.49.03-1.19-2.77-2.77-.75-3.95Z"/>
  <path class="st87" d="M221.88,212.44c-2.05,1.5-4.74-.64-6.76-.06-.25.07-1.96,3.8-2.94,4.37-1.89-.89-3.13-2.77-4.89-3.76-1.35-.76-2.24-1.22-1.96.88-.33-.84-1.01-1.84-1.44-2.88,2.42-2.92,5.29-5.52,8.59-7.79l1.49-.85c2.98,3.38,5.56,6.16,7.92,10.08Z"/>
  <path class="st110" d="M98.04,195.16c2.69-.55,3.94,1.63,3.75,6.54,1.97,2.47,2.4,5.09,1.29,7.86-.04.82-.5,2-.72,2.88-1.61-.8-2.77-3.33-3.6-5.04-3.93-.64-4.29-6.98-2.16-10.08.51-.69.92-1.48,1.44-2.16Z"/>
  <path class="st93" d="M98.76,207.4l-4.64,2.2c-.24.01-2.61-3.73-4-2.2,2.28-4.1,3.7-6.31,6.48-10.08-.64,4.37.41,6.46,2.16,10.08Z"/>
  <path class="st80" d="M211.8,200.2l.74,1.74c-2.66,2.28-5.26,4.56-7.82,6.85l-1.56.05c-1.4-3.3-2.79-6.85-4.32-10.08-.47-1.49.6-2.11,3.19-1.86-.06-2.57.85-5.12,3.29-3.18,2.26,2.18,4.34,4.17,6.48,6.48Z"/>
  <path class="st3" d="M205.32,193.72c-3.13.69-1.26,4.13-1.43,4.32-.45.5-4.22.14-5.05.72-1.44-3.05-3.46-7.09-5.04-10.08-.21-1.6.68-3,2.16-3.6,3.19,2.86,6.28,5.66,9.36,8.64Z"/>
  <path class="st52" d="M205.32,183.64c-.22,3.41,1.53,5.63,5.3,4.75,2.93.62,2.3,7.07-.98,6.05-4.56-4.55-9.65-8.62-14.4-12.96-.8-1.17-1.39-3.99.72-4.32,3.12,2.06,6.22,4.52,9.36,6.48Z"/>
  <path class="st26" d="M215.4,189.4c1.8,1.49-1.33,7.52-3.6,7.2-.7-.71-1.45-1.45-2.16-2.16,1.46-1.6,2.44-4.03,0-5.04l-1.43,2.16c-.71-3.32-6.94-3.26-2.89-7.92,3.23,2.02,6.79,3.75,10.08,5.76Z"/>
  <path class="st94" d="M213.96,202.36c.19,3.93-4.17,3.98-5.57,5.23-1.12,1.01-.55,4.01-4.51,3.41-.31-.74-.46-1.54-.72-2.16,1.51-4.56,6.94-4.2,8.64-8.64.65.7,1.36,1.25,2.16,2.16Z"/>
  <path class="st41" d="M218.28,191.56l-3.6,7.92c-.89-.94-1.95-1.93-2.88-2.88l3.6-7.2c1.03.63,2.54,1.98,2.88,2.16Z"/>
  <path class="st36" d="M195.96,177.16c-.1,1.36.55,3.51-.72,4.32-1.11-1.02-1.94-1.99-2.88-2.88v-3.6c1.11.75,2.43,1.39,3.6,2.16Z"/>
  <path class="st67" d="M195.96,185.08c.19,1.72-.59,2.94-2.16,3.6-.32-.6-.98-1.31-1.44-2.16-1.27-3.01-1.03-4.21.72-3.6.84.77,2.03,1.4,2.88,2.16Z"/>
  <path class="st98" d="M193.08,182.92c-1.17.61-.68,2.45-.72,3.6-1.15-2.14-2.4-4.36-3.6-6.48-.78-1.01-.45-1.4.72-.72,1.26,1.18,2.5,2.6,3.6,3.6Z"/>
  <path class="st109" d="M189.48,179.32l-.72.72c-.46-.82-1.62-1.45-1.44-2.88,1.17.87,1.39,1.44,2.16,2.16Z"/>
  <path class="st33" d="M192.36,190.12c3.01,5.94,6.02,11.88,8.64,18-.69-.08-1.5.11-2.16,0-.89.95-4.8.38-6.26-.28-.08-.04-1.06-1.4-1.1-1.49-.03-.06,1.03-.1-.56.33-1.42-4.3-3.52-8.63-5.04-12.96-.56-2.78,4.85-6.39,6.48-3.6Z"/>
  <path class="st96" d="M190.92,187.24c.49.95.96,1.92,1.44,2.88-2.9.18-4.38,1.97-6.48,3.6-.5-1.44-.94-2.89-1.44-4.32,1.84-1.43,4.1-2.32,6.48-2.16Z"/>
  <path class="st96" d="M97.32,193.72c-.7.88-1.48,1.96-2.16,2.88-3.49-3.45.17-8.24,0-12.24,1.16-.87,2.52-1.42,3.6-2.16l-1.44,11.52Z"/>
  <path class="st51" d="M116.04,197.32c-1.16,5.41-2.26,11.06-2.88,16.56l-8.64-3.6c2.12-5.91,4.73-11.53,7.2-17.28,1.98,0,3.66,2.6,4.32,4.32Z"/>
  <path class="st73" d="M111,190.84c-1.61,3.59-3.64,7.1-5.04,10.8-2.89-.51-5.05-3.19-5.35-6.23-.29.52-.91.2-1.85-.97,2.54-3.25,5.31-5.72,7.92-8.64l1.77.09c.85,1.69,1.7,3.34,2.55,4.95Z"/>
  <path class="st63" d="M98.76,194.44c4.04-.74,2.37,1.14,3.61,3.08.79,1.24,3.61,2.13,3.59,4.12-.95,2.53-1.22,5.68-2.88,7.92.23-4.75-2.06-4.82-2.73-7.71-.44-1.91.74-6.79-2.31-6.69.2-.27.52-.46.72-.72Z"/>
  <path class="st54" d="M111.72,188.68c-.36.77-.45,1.57-.72,2.16-2.97-.15-2.86-3.22-4.32-5.04.22-.24.22-1.61.72-2.16,1.04-1.14,3.21-2.46,4.32-3.6-1.46,3.5-2.06,5.18,0,8.64Z"/>
  <path class="st54" d="M113.16,189.4c2.36-.43,1.81,3.56,3.6,5.04-.22.97-.52,1.94-.72,2.88-2.29-.23-3.5-2.43-4.32-4.32.51-1.18.91-2.4,1.44-3.6Z"/>
  <path class="st0" d="M97.32,177.16c-1.09,1.26-1.7,2.61-1.44,4.32-.71.42-1.83.49-2.16.72-1.43-1.08-.77-3.67,0-5.04,1.18.1,2.41-.03,3.6,0Z"/>
  <path class="st30" d="M190.92,206.68c-.1-3.59,2.32.35,3.21.44.77.08,1.82-.63,2.79-.47.6.1-.1,1.13,1.92,1.47-.84,4.19-2.66,3.83-6.48,3.6-.32-1.31-1.02-3.77-1.44-5.04Z"/>
</svg>