<?xml version="1.0" encoding="UTF-8" standalone="no"?>
<svg
   version="1.1"
   width="59.150345"
   height="79.811546"
   id="svg5"
   sodipodi:docname="n-block.svg"
   xmlns:inkscape="http://www.inkscape.org/namespaces/inkscape"
   xmlns:sodipodi="http://sodipodi.sourceforge.net/DTD/sodipodi-0.dtd"
   xmlns="http://www.w3.org/2000/svg"
   xmlns:svg="http://www.w3.org/2000/svg">
  <defs
     id="defs9" />
  <sodipodi:namedview
     id="namedview7"
     pagecolor="#ffffff"
     bordercolor="#000000"
     borderopacity="0.25"
     inkscape:showpageshadow="2"
     inkscape:pageopacity="0.0"
     inkscape:pagecheckerboard="0"
     inkscape:deskcolor="#d1d1d1" />
  <!-- Exported by Scratch - http://scratch.mit.edu/ -->
  <g
     id="ID0.9138948866166174"
     transform="translate(-0.86281961,-0.41261302)">
    <path
       id="ID0.808124350849539"
       fill="#ff9400"
       d="m 334,360 c -0.575,24.396 0.922,38.802 0,63 -2.247,1.753 -7.521,0.479 -10,2 -7.254,-12.08 -16.84,-21.827 -25,-33 -3.484,11.575 -0.016,23.034 1,35 -2.434,1.9 -8.366,0.301 -11,2 -3.013,-23.57 -4.466,-40.386 -6,-63 3.53,-1.136 6.234,-3.099 11,-3 11.754,10.246 14.414,29.586 28,38 3.461,-11.81 -0.89,-29.27 -1,-41 4.685,-3.483 7.884,-2.22 13,0 z"
       transform="matrix(0.93552166,0,0,0.93552166,-256.25,-330.7)" />
    <path
       id="ID0.6956496383063495"
       d="m 338,376 c 0.079,14.988 0.083,30.005 0,45 -0.271,0.936 -0.667,0 -1,0 0.718,5.718 -4.998,5.002 -3,12 -5.089,1.244 -12.226,0.441 -17,2 -3.372,-9.961 -9.14,-17.527 -15,-25 -3.502,6.794 2.875,11.578 1,20 -2.826,-0.826 -2.591,1.409 -5,1 0.309,2.338 1.844,4.27 0,6 -2.298,0.899 -6.287,-0.206 -8,1 -2.996,0.088 -7.087,2.759 -9,0 -5.174,-34.857 -2.812,-50.447 -6,-65 -0.286,-3.353 -0.147,-2.048 0,-3 4.757,-0.558 5.784,-4.883 8,-8 7.188,-0.91 12.218,-3.353 18,-1 5.5,9.118 10.477,24.587 15,26 0.248,-2.812 -3.962,-15.916 -5,-24 1.924,-2.012 3.927,0.83 7,-1 0.575,-1.758 -1.209,-5.875 1,-6 3.1,0.1 5.314,-0.731 7,-2 1.327,-0.06 2.676,-0.113 4,0 2.22,0.773 3.913,0.007 6,1 1.197,2.11 0.959,5.204 2,7 0.111,1.407 -0.36,2.863 -0.5,4.4 -0.073,3.225 -0.161,6.088 0.5,9.6 z m -17,-16 c 0.11,11.73 4.461,29.19 1,41 -13.586,-8.414 -16.246,-27.754 -28,-38 -4.766,-0.099 -7.47,1.864 -11,3 1.534,22.614 2.987,39.43 6,63 2.634,-1.699 8.566,-0.1 11,-2 -1.016,-11.966 -4.484,-23.425 -1,-35 8.16,11.173 17.746,20.92 25,33 2.479,-1.521 7.753,-0.247 10,-2 0.922,-24.198 -0.575,-38.604 0,-63 -5.116,-2.22 -8.315,-3.483 -13,0 z"
       transform="matrix(0.93552166,0,0,0.93552166,-256.25,-330.7)" />
  </g>
</svg>
