<?xml version="1.0" encoding="UTF-8" standalone="no"?>
<svg
   version="1.1"
   width="75.309998"
   height="78.32402"
   id="svg8"
   sodipodi:docname="N-glow.svg"
   xmlns:inkscape="http://www.inkscape.org/namespaces/inkscape"
   xmlns:sodipodi="http://sodipodi.sourceforge.net/DTD/sodipodi-0.dtd"
   xmlns="http://www.w3.org/2000/svg"
   xmlns:svg="http://www.w3.org/2000/svg">
  <defs
     id="defs12" />
  <sodipodi:namedview
     id="namedview10"
     pagecolor="#ffffff"
     bordercolor="#000000"
     borderopacity="0.25"
     inkscape:showpageshadow="2"
     inkscape:pageopacity="0.0"
     inkscape:pagecheckerboard="0"
     inkscape:deskcolor="#d1d1d1" />
  <!-- Exported by Scratch - http://scratch.mit.edu/ -->
  <g
     id="ID0.8442582632414997"
     transform="translate(0,1.8642787e-5)">
    <g
       id="ID0.9731424255296588">
      <g
         id="ID0.1037183185108006">
        <path
           id="ID0.6886274544522166"
           fill="#00cccc"
           d="m 75.31,13.754 c 0,2.93 -1.05,5.7 -2.96,7.91 -1.71,2.09 -3.9,3.69 -6.4,4.72 0.05,2.27 0.12,5.04 0.21,8.26 v 4.83 c 0.27,6.31 0.39,8.83 0.44,9.83 0.05,0.38 0.08,0.77 0.09,1.17 0.06,3.07 -0.03,7.46 -0.27,13.43 -0.02,0.46 -0.07,0.92 -0.15,1.37 -0.43,2.57 -1.6,5.07 -3.48,7.42 -2.49,3.1 -5.92,5.07 -9.68,5.54 -0.46,0.06 -0.92,0.09 -1.38,0.09 -2.17,0 -3.67,-0.56 -6.15,-1.49 -3.04,-1.14 -5.4,-3.56 -6.49,-6.58 -2.48,0.93 -5.05,1.3 -7.62,1.09 -1.22,-0.06 -3.02,0.03 -5.31,0.25 -0.34,0.04 -1.4,0.2 -3.79,0.73 -0.12,0.03 -0.24,0.05 -0.36,0.07 -2.46,0.47 -4.84,0.65 -7,0.56 -0.16,-0.01 -0.33,-0.02 -0.49,-0.04 -6.96,-0.61 -13.99,-5.33 -13.99,-14.47 0,-1.54 0.25,-3.06 0.74,-4.54 0.31,-0.91 0.73,-1.77 1.26,-2.58 1.26,-1.92 3.81,-4.78 8.29,-6.2 v -1.72 c 0,-0.81 0.09,-1.62 0.27,-2.4 l -0.16,-2.69 c 0,-0.07 -0.01,-0.14 -0.01,-0.22 -0.05,-1.22 -0.13,-2.31 -0.26,-3.24 -0.04,-0.29 -0.07,-0.58 -0.08,-0.87 -0.04,-0.57 -0.07,-1.19 -0.11,-1.87 C 4.23,30.534 0,25.104 0,18.064 c 0,-3.3 1.35,-6.33 4,-8.99 2.05,-2.07 4.36,-3.37 6.86,-3.89 1.8,-0.38 3.83,-0.47 7.1,-0.32 0.33,0 0.99,-0.03 2.19,-0.1 1.65,-0.11 2.8,-0.16 3.64,-0.16 2.95,0 5.38,1.11 7.13,2.13 2.6,-3.05 6.1,-4.94 10.15,-5.47 0.29,-0.03 0.57,-0.06 0.86,-0.08 l 3.33,-0.17 c 0.12,-0.01 0.24,-0.01 0.36,-0.01 2.69,-0.06 7.14,-0.36 13.24,-0.92 3.33,-0.36 6.66,0.44 9.73,2.34 4.27,2.63 6.72,6.76 6.72,11.33 z" />
      </g>
    </g>
    <g
       id="ID0.6217719060368836">
      <path
         id="ID0.2878211308270693"
         fill="#ffffff"
         d="m 63.957,14.549 c -0.939,1.231 -2.287,1.936 -4.047,2.111 -2.874,0.176 -4.516,0.323 -4.926,0.439 -0.059,1.231 -0.088,3.197 -0.088,5.894 0.029,2.757 0.117,6.744 0.264,11.963 0,1.114 0,2.697 0,4.75 0.353,8.327 0.528,11.992 0.528,10.994 0.058,2.815 -0.03,7.067 -0.264,12.755 -0.118,0.704 -0.528,1.495 -1.231,2.375 -0.704,0.88 -1.526,1.377 -2.463,1.495 -0.118,0 -0.88,-0.264 -2.287,-0.791 C 49.267,65.772 49.032,65.126 48.739,64.598 47.565,62.839 45.982,60.347 43.99,57.121 42.699,54.6 40.676,50.818 37.921,45.773 35.985,43.077 33.083,38.737 29.213,32.755 28.802,31.935 28.098,30.703 27.102,29.061 h -0.176 c -0.176,2.581 -0.147,5.189 0.088,7.828 0,0.118 0.044,0.323 0.132,0.616 0.088,0.294 0.132,0.527 0.132,0.703 v 6.069 c 0,2.815 -0.118,5.044 -0.352,6.686 0.059,0.821 0.207,2.022 0.443,3.606 0.827,0.47 1.832,0.703 3.015,0.703 0.473,0 1.122,-0.058 1.95,-0.176 0.827,-0.117 1.448,-0.176 1.862,-0.176 1.714,0 2.954,0.615 3.725,1.847 0.292,1.174 -0.323,2.111 -1.848,2.815 -1.29,0.646 -2.551,0.909 -3.782,0.791 -1.759,-0.116 -4.193,-0.023 -7.301,0.279 -1.114,0.125 -2.786,0.436 -5.014,0.932 -1.643,0.309 -3.138,0.432 -4.486,0.373 -2.639,-0.234 -3.958,-1.407 -3.958,-3.519 0,-0.352 0.058,-0.704 0.175,-1.056 0.929,-1.407 2.587,-2.111 4.971,-2.111 0.29,0 0.755,0 1.396,0 0.581,0 1.017,0 1.309,0 1.162,0 1.976,-0.204 2.441,-0.615 0,-0.353 0,-0.938 0,-1.76 v -9.499 c 0.234,-0.646 0.322,-1.554 0.265,-2.728 -0.06,-0.996 -0.118,-1.992 -0.176,-2.99 -0.06,-1.583 -0.177,-3.02 -0.353,-4.311 -0.118,-2.11 -0.264,-4.926 -0.439,-8.443 0,0.176 0.028,-0.381 0.088,-1.672 0.058,-0.762 -0.132,-1.289 -0.571,-1.583 -0.44,-0.293 -1.13,-0.44 -2.067,-0.44 -0.47,0 -1.174,0.06 -2.111,0.177 -0.938,0.118 -1.643,0.176 -2.111,0.176 -2.229,0 -3.342,-1.173 -3.342,-3.519 0,-0.293 0.262,-0.704 0.787,-1.231 0.525,-0.528 0.964,-0.82 1.314,-0.88 0.758,-0.176 2.305,-0.204 4.641,-0.088 0.7,0 1.736,-0.044 3.107,-0.132 1.372,-0.088 2.351,-0.132 2.935,-0.132 0.408,0 1.079,0.298 2.014,0.895 0.935,0.597 1.576,1.191 1.927,1.787 0.059,0 1.714,2.955 4.964,8.861 1.292,2.402 2.776,4.88 4.452,7.428 1.674,2.55 3.628,5.641 5.861,9.272 1.468,2.521 3.613,6.329 6.435,11.427 0.234,-0.996 0.353,-2.052 0.353,-3.166 0,-0.293 0.058,-0.981 0.176,-2.067 0.118,-1.084 0.177,-1.861 0.177,-2.331 0,-0.469 -0.059,-1.216 -0.176,-2.243 -0.118,-1.025 -0.176,-1.568 -0.176,-1.627 v -5.102 c 0,-0.528 -0.146,-7.741 -0.436,-21.639 -0.233,-0.058 -0.495,-0.088 -0.786,-0.088 -0.523,0 -1.309,0.118 -2.355,0.352 -1.048,0.235 -1.774,0.383 -2.182,0.44 -0.757,-0.058 -1.775,-0.088 -3.055,-0.088 -0.058,-0.058 -0.451,-0.337 -1.178,-0.836 -0.729,-0.498 -1.062,-0.924 -1.004,-1.275 0,-0.409 0.146,-0.968 0.44,-1.671 0.82,-0.997 1.904,-1.584 3.254,-1.76 1.113,-0.058 2.229,-0.117 3.343,-0.176 2.99,-0.058 7.71,-0.381 14.161,-0.968 0.88,-0.116 1.817,0.132 2.815,0.748 0.996,0.615 1.495,1.275 1.495,1.979 -0.001,0.299 -0.12,0.563 -0.353,0.796 z" />
    </g>
  </g>
</svg>
