<?xml version="1.0" encoding="UTF-8" standalone="no"?>
<!-- Generator: Adobe Illustrator 18.0.0, SVG Export Plug-In . SVG Version: 6.00 Build 0)  -->

<svg
   version="1.1"
   id="Layer_2"
   x="0px"
   y="0px"
   viewBox="0 0 53.224999 51.6"
   enable-background="new 0 0 53.3 51.6"
   xml:space="preserve"
   sodipodi:docname="N-story-1.svg"
   width="53.224998"
   height="51.599998"
   xmlns:inkscape="http://www.inkscape.org/namespaces/inkscape"
   xmlns:sodipodi="http://sodipodi.sourceforge.net/DTD/sodipodi-0.dtd"
   xmlns="http://www.w3.org/2000/svg"
   xmlns:svg="http://www.w3.org/2000/svg"><defs
   id="defs25" /><sodipodi:namedview
   id="namedview23"
   pagecolor="#ffffff"
   bordercolor="#000000"
   borderopacity="0.25"
   inkscape:showpageshadow="2"
   inkscape:pageopacity="0.0"
   inkscape:pagecheckerboard="0"
   inkscape:deskcolor="#d1d1d1" />
<g
   id="g20">
	<path
   fill="#53ad4e"
   d="m 53.2,0.2 c 0,0 -0.2,-0.1 -0.4,-0.1 -0.2,0 -0.4,0 -0.6,0 -2,0 -4.1,0.1 -6.1,0.2 -1.4,0 -2.8,0 -4.3,0 -0.4,0 -0.9,0.2 -1.3,0.4 -0.6,0.3 -1.1,0.7 -1.6,1.2 -0.7,0.6 -1.4,1.2 -1.8,1.9 -0.2,0.4 0.2,1.2 0.3,1.8 0,0 0,0 0,0.1 0.1,0.5 0.3,0.6 0.8,0.6 0.9,0 1.7,0 2.6,0.2 0.9,0.1 1.4,0.7 1.5,1.6 0.2,2.5 0.6,5.1 0.6,7.6 0.1,3.7 -0.1,7.5 -0.2,11.2 0,1.2 -0.1,2.4 -0.2,3.8 C 41.7,29.9 41,29.2 40.4,28.5 38.5,26.6 36.6,24.7 34.7,22.7 32.9,20.8 31.2,18.9 29.3,17 27.5,15.2 25.6,13.5 23.8,11.8 22.7,10.7 21.7,9.6 20.7,8.4 19,6.6 17.4,4.9 15.7,3.1 15.5,2.9 15.3,2.7 15,2.6 13,1.4 10.9,0.6 8.6,0.4 7.1,0.1 5.6,0.1 4.1,0 4,0.4 4,0.6 3.9,0.8 2.7,2.1 1.5,3.5 0.2,4.9 0.2,4.9 0.1,5.1 0.1,5.2 0,5.8 0,6.3 0,6.9 0,7 0.3,7.3 0.4,7.3 c 1.4,0.2 2.8,0.3 4.1,0.5 1.7,0.3 2.8,1.4 2.9,3.1 0.1,1.2 0.2,2.5 0.2,3.8 0,4 0,8.1 0,12.2 0,4.6 -0.1,9.3 -0.2,13.9 0,0.3 0,0.6 -0.1,0.9 -0.1,0.5 -0.2,1 -0.2,1.4 0,0.6 0.2,1.2 0.1,1.8 0,0.3 -0.2,0.7 -0.4,0.9 C 6,46.7 5,47.7 4,48.6 c -0.6,0.5 -0.8,1.2 -0.8,1.9 0,0.7 0.3,1 1,1 1.1,0 2.2,0.1 3.3,0.1 2.7,-0.1 5.5,-0.2 8.2,-0.3 0.6,0 1,-0.4 1.3,-0.9 0.5,-0.8 0.9,-1.6 1.5,-2.3 0.5,-0.6 0.8,-1.3 0.7,-2.1 0,-0.5 -0.2,-0.7 -0.6,-0.7 -0.6,0 -1.2,-0.1 -1.7,-0.2 -0.7,-0.1 -1,-0.5 -1.1,-1.2 -0.2,-1.5 0.1,-3 0.1,-4.5 0.1,-4.7 -0.8,-9.3 -0.3,-14 0.1,-1 0,-2 0,-3 0.1,-0.1 0.2,-0.1 0.4,-0.1 1.7,1.7 3.5,3.3 5,5.1 4.2,5.2 8.9,10 14.1,14.3 3.3,2.7 6.6,5.3 9.5,8.5 0.5,0.6 1,1 1.9,1 0.9,0 1.3,-0.2 1.8,-1 0.9,-1.4 1.8,-2.8 1.8,-4.5 C 50,42.4 49.9,39.1 49.8,35.8 49.6,29.9 49.5,24 50,18.2 50.3,14.8 50.3,11.4 49.7,8 49.5,6.7 49.4,5.4 49.5,4 49.6,3.1 49.9,2.8 50.8,2.7 51.4,2.6 52,2.6 52.5,2.5 c 0.2,0 0.6,-0.2 0.6,-0.4 0.2,-0.7 0.1,-1.3 0.1,-1.9 z M 38,5.3 C 37.6,4.6 37.6,4.1 38.2,3.5 39.2,2.6 40.1,1.7 41.1,0.7 41.7,3.5 39.5,4.1 38,5.3 Z m 1.9,0.3 C 39.6,5.6 39.3,5.6 39,5.5 39,5.4 39,5.3 39.1,5.3 40.2,4.9 41,4 41.8,3 c 0.6,-0.8 2.5,-0.6 2.9,0.3 0.2,0.5 0.5,1.1 0.4,1.7 -0.3,2.9 0.4,5.7 0.5,8.5 0,1.5 0,3 0,4.4 0,5 0.1,10 0.2,14.9 v 1 c -0.1,0 -0.2,0.1 -0.3,0.1 -0.3,-0.3 -0.7,-0.6 -1,-1 -0.2,-0.2 -0.2,-0.6 -0.5,-0.7 -0.9,-0.7 -0.9,-1.7 -0.8,-2.7 0.1,-3.6 0,-7.2 0.2,-10.7 0.2,-3.4 -0.1,-6.8 -0.5,-10.2 -0.2,-2 -1,-2.8 -3,-3 z M 0.5,6.1 C 0.6,5.8 0.6,5.4 0.8,5.2 1.9,4 3.1,2.8 4.2,1.5 4.2,1.4 4.3,1.4 4.6,1.3 4.5,1.8 4.5,2.3 4.3,2.5 3.2,3.8 2,5.1 0.8,6.3 0.7,6.2 0.6,6.1 0.5,6.1 Z m 7,3 C 6.8,7.3 5,7 3.3,6.8 2.6,6.7 2,6.7 1.4,6.7 2.4,5.6 3.5,4.6 4.5,3.5 4.9,3.1 5.2,2.4 5.5,2.4 c 1,0.1 2.1,0.2 2.9,0.7 2.2,1.1 2.7,3.2 2.7,5.5 0,2.2 0.2,4.3 0.2,6.5 0.1,1.4 0.1,2.8 0.1,4.3 -0.1,4.6 -0.2,9.1 -0.2,13.7 0,1.8 0.3,3.6 0.3,5.4 0,1.6 0,3.2 -0.2,4.9 -0.2,1.7 -0.3,1.8 -2,2 -0.5,0.1 -1,0.1 -1.6,0.1 0,-1 0.1,-2.1 0.2,-3.1 C 8,41.9 8,41.4 8,41 8,36.7 8,32.3 8.1,28 8.1,26 8.2,24.1 8.3,22.2 8.3,19.1 8.4,16 8.3,13 8.2,11.6 8,10.3 7.5,9.1 Z M 4,50.9 C 3.9,50.3 4,49.8 4.4,49.4 5.5,48.3 6.5,47.1 7.5,46 c 0.6,1.3 0,2.2 -1,3 -0.8,0.6 -1.6,1.2 -2.5,1.9 z m 13.8,-3.3 c -0.5,0.9 -1,1.7 -1.5,2.5 -0.2,0.2 -0.5,0.4 -0.8,0.4 -3.2,0.1 -6.5,0.2 -9.8,0.3 -0.2,0 -0.3,0 -0.5,-0.1 1.5,-0.7 2.7,-1.7 3.4,-3.4 3,0.1 6.1,0.2 9.2,0.3 z m 27.3,2.2 C 42.6,46.6 39.3,44.3 36.2,41.7 30.9,37.2 26,32.3 21.7,27 c -1.3,-1.7 -3,-3 -4.6,-4.5 -0.9,-0.9 -1.7,-1.8 -1.6,-3.2 0.1,-1.8 0,-3.6 0.1,-5.3 0,-0.2 0.1,-0.4 0.2,-0.7 0.9,1 1.7,1.9 2.5,2.8 0.9,0.9 1.9,1.7 2.8,2.6 0.6,0.6 1.2,1.1 1.7,1.7 2.3,2.5 4.7,5 7,7.6 1.3,1.4 2.4,2.9 3.7,4.2 1.3,1.5 2.7,2.9 4,4.3 0.7,0.8 1.2,1.7 1.9,2.5 1.6,1.6 3.3,3.2 5,4.7 1.1,1 2.2,2.1 3.2,3.1 0.1,0.1 0.2,0.5 0.1,0.6 -0.3,0.6 -0.7,1.3 -1.1,1.9 -0.2,0.3 -0.5,0.6 -0.8,1 -0.2,-0.2 -0.5,-0.3 -0.7,-0.5 z m 2.3,0.7 c -0.1,0.2 -0.5,0.2 -0.8,0.2 0,-0.1 -0.1,-0.2 -0.2,-0.2 1.3,-0.6 1.5,-2.1 2.5,-2.9 0.1,0.1 0.2,0.1 0.2,0.2 -0.5,0.9 -1.1,1.8 -1.7,2.7 z"
   id="path2" />
	<path
   fill="#ffffff"
   d="M 38,5.3 C 37.6,4.6 37.6,4.1 38.2,3.5 39.2,2.6 40.1,1.7 41.1,0.7 41.7,3.5 39.5,4.1 38,5.3 Z"
   id="path4" />
	<path
   fill="#ffffff"
   d="M 4.7,1.3 C 4.6,1.8 4.6,2.3 4.4,2.5 3.2,3.8 2,5.1 0.8,6.3 0.7,6.2 0.6,6.1 0.5,6.1 0.6,5.8 0.6,5.4 0.8,5.2 1.9,4 3.1,2.8 4.2,1.5 c 0.1,0 0.2,0 0.5,-0.2 z"
   id="path6" />
	<path
   fill="#ffffff"
   d="m 6.5,48.9 c -0.8,0.7 -1.7,1.3 -2.6,2 -0.1,-0.6 0,-1.1 0.4,-1.5 1.1,-1.1 2.1,-2.3 3.1,-3.4 0.7,1.2 0.1,2.2 -0.9,2.9 z"
   id="path8" />
	<path
   fill="#ffffff"
   d="m 17.8,47.6 c -0.5,0.9 -1,1.7 -1.5,2.5 -0.2,0.2 -0.5,0.4 -0.8,0.4 -3.2,0.1 -6.5,0.2 -9.8,0.3 -0.2,0 -0.3,0 -0.5,-0.1 1.5,-0.7 2.7,-1.7 3.4,-3.4 3,0.1 6.1,0.2 9.2,0.3 z"
   id="path10" />
	<path
   fill="#ffffff"
   d="m 49.1,47.8 c -0.6,0.9 -1.1,1.8 -1.8,2.7 -0.1,0.2 -0.5,0.2 -0.8,0.2 0,-0.1 -0.1,-0.2 -0.2,-0.2 1.3,-0.6 1.5,-2.1 2.5,-2.9 0.2,0 0.3,0.1 0.3,0.2 z"
   id="path12" />
	<path
   fill="#ffffff"
   d="m 45.7,32.8 v 1 c -0.1,0 -0.2,0.1 -0.3,0.1 -0.3,-0.3 -0.7,-0.6 -1,-1 -0.2,-0.2 -0.2,-0.6 -0.5,-0.7 -0.9,-0.7 -0.9,-1.7 -0.8,-2.7 0.1,-3.6 0,-7.2 0.2,-10.7 0.2,-3.4 -0.1,-6.8 -0.5,-10.2 -0.2,-2.1 -1,-2.8 -3.1,-3 -0.3,0 -0.6,0 -0.9,-0.1 0,-0.1 0,-0.2 0.1,-0.2 C 40.2,4.9 41,4 41.8,3 c 0.6,-0.8 2.5,-0.6 2.9,0.3 0.2,0.5 0.5,1.1 0.4,1.7 -0.3,2.9 0.4,5.7 0.5,8.5 0,1.5 0,3 0,4.4 0,5 0.1,9.9 0.1,14.9 z"
   id="path14" />
	<path
   fill="#ffffff"
   d="m 47.7,47.5 c -0.3,0.6 -0.7,1.3 -1.1,1.9 -0.2,0.3 -0.5,0.6 -0.8,1 C 45.6,50.2 45.3,50.1 45.1,49.9 42.6,46.7 39.3,44.4 36.2,41.8 30.9,37.2 26,32.3 21.7,27 c -1.3,-1.7 -3,-3 -4.6,-4.5 -0.9,-0.9 -1.7,-1.8 -1.6,-3.2 0.1,-1.8 0,-3.6 0.1,-5.3 0,-0.2 0.1,-0.4 0.2,-0.7 0.9,1 1.7,1.9 2.5,2.8 0.9,0.9 1.9,1.7 2.8,2.6 0.6,0.6 1.2,1.1 1.7,1.7 2.3,2.5 4.7,5 7,7.6 1.3,1.4 2.4,2.9 3.7,4.2 1.3,1.5 2.7,2.9 4,4.3 0.7,0.8 1.2,1.7 1.9,2.5 1.6,1.6 3.3,3.2 5,4.7 1.1,1 2.2,2.1 3.2,3.1 0.2,0.2 0.2,0.5 0.1,0.7 z"
   id="path16" />
	<path
   fill="#ffffff"
   d="m 11.4,43.3 c -0.2,1.7 -0.3,1.8 -2,2 -0.5,0.1 -1,0.1 -1.6,0.1 0,-1 0.1,-2.1 0.2,-3.1 C 8,41.9 8,41.4 8,41 8,36.7 8,32.3 8.1,28 8.1,26 8.2,24.1 8.3,22.2 8.3,19.1 8.4,16 8.3,13 8.3,11.7 8.1,10.4 7.6,9.2 6.8,7.3 5,7 3.3,6.8 2.6,6.7 2,6.7 1.4,6.7 2.4,5.6 3.5,4.6 4.5,3.5 4.9,3.1 5.2,2.4 5.5,2.4 c 1,0.1 2.1,0.2 2.9,0.7 2.2,1.1 2.7,3.2 2.7,5.5 0,2.2 0.2,4.3 0.2,6.5 0.1,1.4 0.1,2.8 0.1,4.3 -0.1,4.6 -0.2,9.1 -0.2,13.7 0,1.8 0.3,3.6 0.3,5.4 0.1,1.5 0.1,3.2 -0.1,4.8 z"
   id="path18" />
</g>
</svg>
