<?xml version="1.0" encoding="UTF-8" standalone="no"?>
<!-- Generator: Adobe Illustrator 18.0.0, SVG Export Plug-In . SVG Version: 6.00 Build 0)  -->

<svg
   version="1.1"
   id="Layer_2"
   x="0px"
   y="0px"
   viewBox="0 0 49.919121 50.700002"
   enable-background="new 0 0 50 50.6"
   xml:space="preserve"
   sodipodi:docname="O-story-1.svg"
   width="49.919121"
   height="50.700001"
   xmlns:inkscape="http://www.inkscape.org/namespaces/inkscape"
   xmlns:sodipodi="http://sodipodi.sourceforge.net/DTD/sodipodi-0.dtd"
   xmlns="http://www.w3.org/2000/svg"
   xmlns:svg="http://www.w3.org/2000/svg"><defs
   id="defs13" /><sodipodi:namedview
   id="namedview11"
   pagecolor="#ffffff"
   bordercolor="#000000"
   borderopacity="0.25"
   inkscape:showpageshadow="2"
   inkscape:pageopacity="0.0"
   inkscape:pagecheckerboard="0"
   inkscape:deskcolor="#d1d1d1" />
<g
   id="g8"
   transform="translate(0.01078831)">
	<path
   fill="#53ad4e"
   d="M 48.5,16 C 46.9,12.2 45.4,8.4 42,5.7 39.1,3.5 36.3,1.2 32.5,0.7 30.7,0.4 28.8,0 26.9,0 25.4,0 23.9,0.3 22.4,0.6 20.8,0.9 19.2,1.2 17.8,1.9 13.4,4 9.4,6.6 6.2,10.3 2.4,14.7 -0.2,19.5 0,25.6 c 0.1,1.6 0.3,3.3 0.3,5 0.2,4 1.8,7.4 3.9,10.7 1.8,2.9 4.5,4.8 7.3,6.5 3.5,2.2 7.5,2.9 11.6,2.9 0.2,0 0.4,0 0.6,-0.1 2.5,-0.7 5,-1.3 7.4,-2.2 3.4,-1.2 6.5,-3.1 9.3,-5.4 2.3,-1.9 4.2,-4.2 5.7,-6.8 1.9,-3.4 3.2,-7 3.6,-10.8 C 50.2,22.1 49.8,19 48.5,16 Z M 19.2,6.6 c 1.8,-1.3 3.9,-2 6.2,-1.8 3.5,0.2 5.9,2.1 7.6,5.1 1,1.9 1.6,4 2.1,6.1 0.8,3.3 1.4,6.7 1.1,10.2 0.4,3.2 -0.3,6.3 -1.2,9.3 -1,3 -2.5,5.6 -4.7,7.8 -1.6,1.6 -3.5,1.9 -5.6,1.4 -2.7,-0.6 -4.4,-2.4 -6.2,-4.3 -2.8,-3 -4.3,-6.7 -5.2,-10.5 -0.7,-2.7 -0.6,-5.5 -0.4,-8.2 0.3,-4.1 1.7,-7.9 3.6,-11.5 0.7,-1.4 1.6,-2.7 2.7,-3.6 z m 8,42.5 C 23.8,50.2 20.3,50.2 16.8,49.2 14.3,48.5 12.1,47.2 10,45.7 7.5,43.9 5.5,41.5 3.7,39 2.4,37.1 1.8,34.9 1.4,32.7 0.8,29.6 0.7,26.5 0.8,23.3 0.8,21.3 1.5,19.5 2.2,17.6 3.3,14.5 5.5,12.1 7.7,9.8 9.5,7.9 11.6,6.3 13.8,5 14,4.9 14.1,4.8 14.4,4.8 5.6,12.2 3.6,21.5 6.8,32.2 c 4.1,9.2 11.9,16.2 23.6,16 -1.1,0.3 -2.1,0.6 -3.2,0.9 z m 13.1,-14 c -0.8,2.7 -2.2,5 -4.4,6.8 -0.5,0.4 -1,0.8 -1.5,1.3 -1.5,1.4 -3.4,1.8 -5.5,2 3.1,-2.2 5,-5.2 6.3,-8.4 0.6,-1.5 0.9,-3.3 1.2,-5 0.3,-1.8 0.5,-3.5 0.7,-5.3 0.3,-2.9 -0.2,-5.7 -0.8,-8.5 -0.4,-2.2 -1,-4.3 -1.7,-6.5 C 33.7,9 32,7.2 30,5.7 27.7,4 25.1,3.9 22.4,4.4 22.2,4.4 21.9,4.5 21.7,4.5 23,3.5 24.4,3 26,2.7 c 2.1,-0.4 4,-0.3 6,0.9 2.4,1.4 4.7,2.8 6.2,5.1 1.7,2.6 3,5.5 3.6,8.6 1.2,6.1 0.3,12 -1.5,17.8 z"
   id="path2" />
	<path
   fill="#ffffff"
   d="m 40.3,35.1 c -0.8,2.7 -2.2,5 -4.4,6.8 -0.5,0.4 -1,0.8 -1.5,1.3 -1.5,1.4 -3.4,1.8 -5.5,2 3.1,-2.2 5,-5.2 6.3,-8.4 0.6,-1.5 0.9,-3.3 1.2,-5 0.3,-1.8 0.5,-3.5 0.7,-5.3 0.3,-2.9 -0.2,-5.7 -0.8,-8.5 -0.4,-2.2 -1,-4.3 -1.7,-6.5 C 33.7,9 32,7.2 30,5.7 27.7,4 25.1,3.9 22.4,4.4 22.2,4.4 21.9,4.5 21.7,4.5 23,3.5 24.4,3 26,2.7 c 2.1,-0.4 4,-0.3 6,0.9 2.4,1.4 4.7,2.8 6.2,5.1 1.7,2.6 3,5.5 3.6,8.6 1.2,6.1 0.3,12 -1.5,17.8 z"
   id="path4" />
	<path
   fill="#ffffff"
   d="m 30.4,48.1 c -1.1,0.3 -2.1,0.7 -3.2,1 -3.4,1.1 -6.9,1.1 -10.4,0.1 C 14.3,48.5 12.1,47.2 10,45.7 7.5,43.9 5.5,41.5 3.7,39 2.4,37.1 1.8,34.9 1.4,32.7 0.8,29.6 0.7,26.5 0.8,23.3 0.8,21.3 1.5,19.5 2.2,17.6 3.3,14.5 5.5,12.1 7.7,9.8 9.5,7.9 11.6,6.3 13.8,5 14,4.9 14.1,4.8 14.4,4.8 5.6,12.2 3.6,21.5 6.8,32.2 c 4.1,9.2 11.9,16.2 23.6,15.9 z"
   id="path6" />
</g>
</svg>
