<?xml version="1.0" encoding="UTF-8" standalone="no"?>
<svg
   version="1.1"
   id="Layer_1"
   x="0px"
   y="0px"
   width="140.68774"
   height="144.63423"
   viewBox="0 0 140.68774 144.63423"
   enable-background="new 0 0 150 150"
   xml:space="preserve"
   sodipodi:docname="octopus-a.svg"
   xmlns:inkscape="http://www.inkscape.org/namespaces/inkscape"
   xmlns:sodipodi="http://sodipodi.sourceforge.net/DTD/sodipodi-0.dtd"
   xmlns="http://www.w3.org/2000/svg"
   xmlns:svg="http://www.w3.org/2000/svg"><defs
   id="defs37" /><sodipodi:namedview
   id="namedview35"
   pagecolor="#ffffff"
   bordercolor="#000000"
   borderopacity="0.25"
   inkscape:showpageshadow="2"
   inkscape:pageopacity="0.0"
   inkscape:pagecheckerboard="0"
   inkscape:deskcolor="#d1d1d1" />
  <g
   id="g32"
   transform="translate(-3.9982614,-0.99986253)">
    <path
   fill="#3e9946"
   d="m 74.675,141.854 c -0.664,-2.119 7.537,-5.664 6.849,-9.281 -0.573,-3.018 -5.645,-7.028 -4.362,-10.596 2.437,-6.785 7.912,-4.611 10.332,-10.842 5.745,-14.796 -6.968,-23.39 5.178,-31.664 1.699,-1.154 10.853,-5.81 12.543,-5.521 5.698,0.971 13.034,6.093 12.335,12.491 -0.818,7.479 -8.8,9.199 -11.854,15.223 -1.688,3.322 -0.201,7.176 -1.487,10.699 -3.156,8.636 -12.867,8.67 -16.674,15.789 -1.819,3.404 3.126,9.324 -3.778,14.322 -2.793,2.023 -8.42,1.497 -9.082,-0.62 z"
   id="path2" />
    <path
   fill="#3e9946"
   d="m 49.354,129.544 c -0.361,-3.383 6.812,-3.821 7.587,-7.833 0.856,-4.434 1.49,-10.001 2.954,-14.318 3.831,-11.306 11.355,-7.086 14.506,-16.58 1.186,-3.573 1.63,-7.342 2.873,-10.901 2.291,-6.574 8.636,-13.978 16.5,-11.322 8.906,3.008 -2.201,15.654 -4.894,19.693 -4.972,7.46 -3.28,17.872 -12.056,22.936 -4.413,2.546 -10.196,3.036 -12.417,8.21 -1.589,3.705 -2.016,7.602 -6.47,10.895 -2.802,2.069 -8.28,2.059 -8.583,-0.78 z"
   id="path4" />
    <path
   fill="#3e9946"
   d="m 24.604,111.566 c -0.955,-3.381 3.542,-3.059 5.9,-5.658 1.763,-1.943 1.514,-4.721 2.184,-7.088 2.319,-8.188 11.825,-8.451 18.616,-9.975 13.713,-3.072 7.912,-25.311 22.265,-30.221 4.662,-1.595 5.865,2.805 5.945,6.361 0.234,10.313 -5.31,26.026 -14.421,31.778 -7.147,4.512 -13.777,2.275 -21.194,4.739 -4.007,1.331 -5.686,6.099 -8.816,8.993 -2.73,2.528 -9.929,3.019 -10.479,1.071 z"
   id="path6" />
    <path
   fill="#3e9946"
   d="m 75.48,59.522 c -2.401,3.983 -6.583,3.351 -10.016,5.595 -6.419,4.201 -8.36,11.622 -16.764,13.238 -6.49,1.25 -12.399,-2.517 -18.761,-1.344 -5.213,0.961 -6.242,10.782 -18.415,8.995 -2.663,-0.39 -9.989,-3.177 -6.686,-6.883 2.825,-3.167 6.731,-1.085 10.263,-1.636 7.379,-1.153 8.375,-10.005 16.104,-13.196 7.509,-3.1 14.914,1.618 21.225,-1.965 6.6,-3.747 3.809,-12.383 17.654,-12.57 3.994,-0.052 7.52,6.244 5.396,9.766 z"
   id="path8" />
    <path
   fill="#ffffff"
   d="m 121.871,31.28 c -0.996,-4.316 2.855,-8.893 8.604,-10.221 5.744,-1.329 11.213,1.094 12.207,5.41 0.994,4.316 -2.856,8.893 -8.604,10.221 -5.748,1.328 -11.215,-1.094 -12.207,-5.41 z"
   id="path10" />
    <path
   fill="none"
   stroke="#3e9946"
   stroke-width="3.3515"
   stroke-miterlimit="3.8637"
   d="m 121.871,31.28 c -0.996,-4.316 2.855,-8.893 8.604,-10.221 5.744,-1.329 11.213,1.094 12.207,5.41 0.994,4.316 -2.856,8.893 -8.604,10.221 -5.748,1.328 -11.215,-1.094 -12.207,-5.41 z"
   id="path12" />
    <ellipse
   fill="#3e9946"
   cx="140.35201"
   cy="26.511999"
   rx="4.3340001"
   ry="3.3469999"
   id="ellipse14" />
    <path
   fill="#69d776"
   d="m 68.543,20.996 c 6.945,-16.94 27.807,-24.61 46.59,-17.132 18.688,7.439 28.283,27.062 21.551,43.941 -5.232,-1.058 -12.227,-0.177 -12.227,4.903 3.37,0 7.579,0.23 10.271,-0.886 C 126.426,66.109 107.32,72.112 89.98,65.208 71.196,57.73 61.598,37.936 68.543,20.996 Z"
   id="path16" />
    <path
   fill="#ffffff"
   d="m 93.303,24.419 c -1.16,-5.037 3.334,-10.377 10.038,-11.927 6.706,-1.551 13.083,1.275 14.244,6.312 1.162,5.037 -3.332,10.376 -10.038,11.927 -6.706,1.551 -13.083,-1.276 -14.244,-6.312 z"
   id="path18" />
    <path
   fill="none"
   stroke="#3e9946"
   stroke-width="3.3515"
   stroke-miterlimit="3.8637"
   d="m 93.303,24.419 c -1.16,-5.037 3.334,-10.377 10.038,-11.927 6.706,-1.551 13.083,1.275 14.244,6.312 1.162,5.037 -3.332,10.376 -10.038,11.927 -6.706,1.551 -13.083,-1.276 -14.244,-6.312 z"
   id="path20" />
    <ellipse
   fill="#3e9946"
   cx="112.893"
   cy="20.802999"
   rx="7.1129999"
   ry="5.3400002"
   id="ellipse22" />
    <path
   fill="#69d776"
   d="m 81.672,48.334 c 11.732,1.222 12.768,12.186 2.744,16.58 -4.032,1.766 -8.538,-0.044 -12.358,1.961 -3.985,2.091 -4.68,6.059 -6.346,9.816 -5.884,13.269 -17.565,8.843 -28.138,11.688 -6.508,1.753 -6.746,9.979 -15.162,12.573 -3.934,1.216 -7.502,1.479 -11.457,0.146 -1.957,-0.66 -3.72,-3.117 -2.234,-5.025 2.095,-2.693 5.028,-1.236 7.552,-2.481 8.129,-4.011 7.846,-15.567 18.166,-17.679 5.158,-1.055 10.404,0.102 14.939,-3.152 3.096,-2.221 4.21,-5.303 5.975,-8.499 4.704,-8.519 16.178,-16.984 26.319,-15.928 z"
   id="path24" />
    <path
   fill="#69d776"
   d="m 97.699,58.94 c 0.191,1.498 0.617,3.133 0.648,4.635 0.125,6.121 -6.457,6.79 -11.056,9.364 -3.536,1.983 -5.382,7.267 -5.799,11.471 -0.94,9.476 -9.95,14.329 -18.591,16.477 -9.708,2.413 -8.671,17.801 -21.333,22.949 -2.709,1.104 -10.132,1.581 -8.958,-3.084 1.273,-5.062 6.605,-5.84 10.35,-8.34 7.53,-5.025 3.146,-16.163 11.661,-21.917 3.705,-2.505 7.969,-3.976 11.787,-6.272 10.919,-6.574 1.221,-20.216 22.136,-30.333 3.661,-1.77 8.655,1.178 9.155,5.05 z"
   id="path26" />
    <path
   fill="#69d776"
   d="m 99.389,53.729 c 4.565,-0.697 11.346,3.407 9.323,8.661 -0.815,2.119 -2.642,3.134 -2.45,5.389 0.201,2.392 0.223,5.068 0.182,7.476 -0.25,14.009 -13.457,14.796 -14.537,21.013 -0.824,4.744 0.777,8.635 -2,13.121 -3.961,6.398 -10.85,5.543 -15.34,10.506 -4.669,5.157 2.612,14.28 -13.228,22.471 -2.756,1.427 -6.249,0.4 -5.706,-3.23 0.7,-4.684 7.38,-6.025 8.998,-13.074 1.145,-4.988 -1.226,-9.018 0.975,-14.187 2.532,-5.946 8.002,-6.49 12.761,-9.739 3.396,-2.318 2.42,-6.771 2.485,-10.303 0.129,-7.042 5.474,-9.477 9.64,-14.053 4.436,-4.873 -0.245,-7.259 -0.772,-9.402 -1.689,-6.858 2.617,-13.573 9.669,-14.649 z"
   id="path28" />
    <path
   fill="#69d776"
   d="m 86.225,144.307 c -1.023,-2.82 3.057,-2.836 2.996,-7.108 -0.043,-2.974 -3.589,-4.679 -3.771,-8.668 -0.515,-11.429 17.464,-6.722 17.741,-11.979 0.207,-3.996 -4.082,-6.796 -4.52,-11.749 -0.592,-6.721 3.021,-8.926 6.398,-13.647 4.078,-5.702 -8.444,-21.339 -4.059,-27.201 0.99,-1.321 2.146,-2.564 3.281,-3.761 1.169,-1.231 2.473,-2.638 4.046,-3.353 7.802,-3.548 6.753,5.117 6.052,11.296 -1.443,12.676 9.844,12.2 5.961,22.607 -2.063,5.525 -5.759,7.226 -9.035,11.851 -3.795,5.353 9.934,17.273 -4.695,23.927 -1.782,0.812 -9.574,0.535 -11.137,4.865 -1.779,4.936 1.382,9.732 -5.666,13.471 -1.717,0.91 -2.91,1.342 -3.592,-0.551 z"
   id="path30" />
  </g>
</svg>
