<?xml version="1.0" encoding="UTF-8" standalone="no"?>
<svg
   version="1.1"
   id="Layer_1"
   x="0px"
   y="0px"
   width="136.00006"
   height="135.11447"
   viewBox="0 0 136.00006 135.11447"
   enable-background="new 0 0 150 150"
   xml:space="preserve"
   sodipodi:docname="octopus-b.svg"
   xmlns:inkscape="http://www.inkscape.org/namespaces/inkscape"
   xmlns:sodipodi="http://sodipodi.sourceforge.net/DTD/sodipodi-0.dtd"
   xmlns="http://www.w3.org/2000/svg"
   xmlns:svg="http://www.w3.org/2000/svg"><defs
   id="defs37" /><sodipodi:namedview
   id="namedview35"
   pagecolor="#ffffff"
   bordercolor="#000000"
   borderopacity="0.25"
   inkscape:showpageshadow="2"
   inkscape:pageopacity="0.0"
   inkscape:pagecheckerboard="0"
   inkscape:deskcolor="#d1d1d1" />
  <g
   id="g32"
   transform="translate(-4.0001148,-16.883946)">
    <path
   fill="#ffffff"
   d="m 115.708,48.349 c -1.04,-4.486 2.987,-9.241 8.996,-10.622 6.008,-1.381 11.723,1.137 12.764,5.622 1.04,4.485 -2.985,9.241 -8.995,10.621 -6.01,1.381 -11.723,-1.136 -12.765,-5.621 z"
   id="path2" />
    <path
   fill="none"
   stroke="#3e9946"
   stroke-width="3.3515"
   stroke-miterlimit="3.8637"
   d="m 115.708,48.349 c -1.04,-4.486 2.987,-9.241 8.996,-10.622 6.008,-1.381 11.723,1.137 12.764,5.622 1.04,4.485 -2.985,9.241 -8.995,10.621 -6.01,1.381 -11.723,-1.136 -12.765,-5.621 z"
   id="path4" />
    <ellipse
   fill="#3e9946"
   cx="135.032"
   cy="43.394001"
   rx="4.5300002"
   ry="3.4779999"
   id="ellipse6" />
    <path
   fill="#3e9946"
   d="m 71.729,104.54 c -5.477,6.052 -20.299,0.346 -22.308,8.266 -0.955,3.74 -0.804,8.855 -4.221,10.825 -2.914,1.673 -10.45,-2.165 -9.043,2.36 1.256,4.043 10.953,7.281 15.073,2.56 2.3,-2.638 1.105,-9.595 4.019,-11.612 2.714,-1.869 5.427,-1.326 8.642,-0.59 6.481,1.477 10.702,1.477 15.074,-3.543 5.225,-6.002 8.742,-12.497 6.631,-20.074 -1.004,-3.641 -3.666,-7.675 -7.234,-6.494 -3.367,1.13 -1.407,12.546 -6.633,18.302 z"
   id="path8" />
    <path
   fill="#3e9946"
   d="m 69.116,76.396 c -3.518,0.541 -6.029,-0.296 -8.843,1.771 -3.014,2.214 -2.412,5.312 -4.421,8.462 -2.261,3.593 -6.682,3.297 -10.853,2.165 -4.824,-1.278 -8.139,3.197 -10.049,7.677 -2.21,5.116 -12.962,3.149 -13.264,5.513 -0.785,6.146 14.319,7.33 16.48,1.571 1.005,-2.706 1.91,-4.771 4.823,-5.313 4.221,-0.787 5.778,1.23 9.848,0.396 4.22,-0.837 5.125,-5.361 9.446,-5.709 3.567,-0.245 7.235,0.051 8.641,-3.148 1.558,-3.495 1.86,-12.843 -1.808,-13.385 z"
   id="path10" />
    <path
   fill="#3e9946"
   d="m 102.68,86.433 c 2.764,1.083 7.538,4.918 7.635,7.873 0.203,6.102 -2.764,7.626 -5.021,11.809 -3.062,5.756 1.856,8.463 8.438,8.463 3.52,0 8.24,1.971 9.244,5.313 1.006,3.493 -1.307,6.298 -4.422,8.267 -3.062,1.918 1.633,5.227 -1.406,7.084 -3.215,1.972 -6.229,-1.969 -5.828,-6.101 0.287,-2.959 2.465,-6.149 -0.398,-7.086 -3.367,-1.082 -6.229,-0.639 -9.646,-1.573 -6.885,-1.92 -11.404,-7.727 -10.651,-14.762 0.401,-3.738 1.759,-5.707 2.212,-9.445 0.345,-2.954 8.686,-16.681 9.843,-9.842 z"
   id="path12" />
    <path
   fill="#3e9946"
   d="m 94.038,101.981 c 3.517,3.443 -2.864,7.186 -3.017,12.006 -0.149,5.312 2.965,8.562 7.638,11.414 4.221,2.561 5.577,7.773 3.216,12.006 -1.507,2.656 -3.566,5.267 -6.632,4.526 -1.509,-0.346 -1.537,-2.901 -0.401,-3.938 2.914,-2.653 1.809,-6.101 -0.804,-7.674 -5.526,-3.347 -11.759,-3.347 -13.468,-9.445 -1.709,-6.104 -0.301,-11.021 4.021,-15.744 2.613,-2.856 6.682,-5.858 9.447,-3.151 z"
   id="path14" />
    <path
   fill="#69d776"
   d="m 59.953,37.662 c 7.262,-17.603 29.072,-25.573 48.714,-17.801 19.539,7.73 29.571,28.121 22.531,45.661 -5.472,-1.1 -12.783,-0.185 -12.783,5.095 3.522,0 7.924,0.239 10.741,-0.921 C 120.476,84.543 100.499,90.78 82.368,83.607 62.725,75.834 52.69,55.265 59.953,37.662 Z"
   id="path16" />
    <path
   fill="#ffffff"
   d="m 85.839,41.219 c -1.214,-5.234 3.486,-10.782 10.497,-12.393 7.012,-1.611 13.68,1.326 14.893,6.56 1.215,5.234 -3.482,10.783 -10.496,12.394 -7.012,1.61 -13.68,-1.327 -14.894,-6.561 z"
   id="path18" />
    <path
   fill="none"
   stroke="#3e9946"
   stroke-width="3.3515"
   stroke-miterlimit="3.8637"
   d="m 85.839,41.219 c -1.214,-5.234 3.486,-10.782 10.497,-12.393 7.012,-1.611 13.68,1.326 14.893,6.56 1.215,5.234 -3.482,10.783 -10.496,12.394 -7.012,1.61 -13.68,-1.327 -14.894,-6.561 z"
   id="path20" />
    <path
   fill="#69d776"
   d="M 67.726,68.918 C 57.275,70.689 55.064,59.471 46.02,59.865 37.521,60.235 33.007,62.177 30.545,70.098 28.234,77.479 27.933,86.533 20.094,87.025 13.763,87.419 11.43,77.254 5.624,79.743 2.409,81.12 2.61,96.274 19.09,97.848 c 7.611,0.728 13.515,-2.854 17.284,-9.446 2.01,-3.543 3.668,-11.021 7.838,-11.415 3.818,-0.344 6.129,3.297 9.848,4.134 4.421,0.984 13.968,2.41 16.881,-0.984 2.262,-2.658 2.798,-6.496 -3.215,-11.219 z"
   id="path22" />
    <path
   fill="#69d776"
   d="m 66.118,78.955 c -1.2,5.102 2.009,7.282 0,11.218 -2.111,4.133 -7.084,4.625 -11.657,3.346 -3.718,-1.033 -7.285,-0.64 -9.647,2.361 -3.768,4.771 -3.667,10.824 -9.647,12.202 -8.842,2.065 -18.59,-4.575 -23.715,2.755 -1.306,1.918 -2.412,5.167 -0.804,6.889 1.508,1.574 3.869,0.641 5.627,-0.591 3.366,-2.411 5.577,-3.788 9.446,-2.165 5.125,2.165 7.285,5.708 12.862,6.298 5.226,0.542 8.542,-2.606 11.455,-6.888 3.015,-4.428 3.267,-9.891 8.642,-10.628 4.422,-0.591 7.084,0.394 11.456,-0.591 9.646,-2.215 14.27,-10.676 14.27,-20.271 10e-4,-6.986 -16.68,-10.773 -18.288,-3.935 z"
   id="path24" />
    <path
   fill="#69d776"
   d="m 77.574,86.433 c 1.507,2.854 4.32,3.297 5.427,6.299 1.656,4.428 -1.408,8.217 -5.226,11.021 -3.568,2.605 -6.332,4.525 -7.035,8.855 -0.451,2.901 1.356,4.524 2.412,7.28 2.663,7.036 -3.888,9.685 -9.747,14.466 -4.823,3.938 -4.817,11.016 -2.11,14.858 2.009,2.854 5.542,3.399 7.435,2.165 1.81,-1.184 -2.411,-3.444 -2.109,-5.904 0.301,-2.707 2.612,-5.312 6.33,-6.495 5.052,-1.604 9.296,-0.345 12.861,-4.133 7.187,-7.578 -3.565,-18.942 4.021,-26.372 3.215,-3.148 6.528,-3.443 9.043,-7.085 3.565,-5.116 3.216,-10.233 0.806,-15.94 -2.914,-6.938 -11.558,-7.774 -18.894,-5.708 -2.813,0.79 -4.572,4.135 -3.214,6.693 z"
   id="path26" />
    <path
   fill="#69d776"
   d="m 98.796,78.568 c 6.983,-3.481 16.198,-4.515 19.838,2.255 3.505,6.446 -3.655,17.17 3.644,18.379 4.219,0.695 6.777,-1.045 11.064,-0.471 3.754,0.504 6.042,3.394 6.576,7.113 1.066,7.854 -8.686,13.887 -3.425,19.903 1.498,1.204 3.594,2.52 2.728,4.198 -0.867,1.686 -3.061,1.812 -4.875,1.19 -3.802,-1.303 -5.152,-4.167 -6.576,-7.928 -1.274,-3.39 0.35,-8.197 -2.381,-10.573 -3.265,-2.854 -8.396,1.188 -12.674,0.254 -7.566,-1.65 0.615,-19.376 -12.047,-20.951 -2.96,-0.362 -6.333,-11.165 -1.872,-13.369 z"
   id="path28" />
    <ellipse
   fill="#3e9946"
   cx="106.322"
   cy="37.462002"
   rx="7.4380002"
   ry="5.5489998"
   id="ellipse30" />
  </g>
</svg>
