<?xml version="1.0" encoding="UTF-8" standalone="no"?>
<svg
   id="Layer_1"
   version="1.1"
   viewBox="0 0 217.11977 223.81119"
   sodipodi:docname="Octopus.svg"
   width="217.11977"
   height="223.81119"
   xmlns:inkscape="http://www.inkscape.org/namespaces/inkscape"
   xmlns:sodipodi="http://sodipodi.sourceforge.net/DTD/sodipodi-0.dtd"
   xmlns="http://www.w3.org/2000/svg"
   xmlns:svg="http://www.w3.org/2000/svg">
  <sodipodi:namedview
     id="namedview194"
     pagecolor="#ffffff"
     bordercolor="#000000"
     borderopacity="0.25"
     inkscape:showpageshadow="2"
     inkscape:pageopacity="0.0"
     inkscape:pagecheckerboard="0"
     inkscape:deskcolor="#d1d1d1" />
  <!-- Generator: Adobe Illustrator 29.8.3, SVG Export Plug-In . SVG Version: 2.1.1 Build 3)  -->
  <defs
     id="defs9">
    <style
       id="style2">
      .st0 {
        fill: #b35527;
      }

      .st1 {
        fill: #9c4418;
      }

      .st2 {
        fill: #c96636;
      }

      .st3 {
        fill: #e08e54;
      }

      .st4 {
        fill: #bd5d2d;
      }

      .st5 {
        fill: #c76534;
      }

      .st6 {
        fill: #fcfcfc;
      }

      .st7 {
        fill: #b05324;
      }

      .st8 {
        fill: #dc7c48;
      }

      .st9 {
        fill: #a54a1e;
      }

      .st10 {
        fill: #af5224;
      }

      .st11 {
        fill: #c66433;
      }

      .st12 {
        fill: #c36c38;
      }

      .st13 {
        fill: #9f4519;
      }

      .st14 {
        fill: #150904;
      }

      .st15 {
        fill: #844221;
      }

      .st16 {
        fill: #da7442;
      }

      .st17 {
        fill: #a26649;
      }

      .st18 {
        fill: #b65728;
      }

      .st19 {
        fill: #cb7b45;
      }

      .st20 {
        fill: #c56333;
      }

      .st21 {
        fill: #050505;
      }

      .st22 {
        fill: #a54a1d;
      }

      .st23 {
        fill: #bd5e2f;
      }

      .st24 {
        fill: #ad5022;
      }

      .st25 {
        fill: #0e0602;
      }

      .st26 {
        fill: #b25628;
      }

      .st27 {
        fill: #b25425;
      }

      .st28 {
        fill: #cf6b3a;
      }

      .st29 {
        fill: #c05f2f;
      }

      .st30 {
        fill: #b65729;
      }

      .st31 {
        fill: #c26131;
      }

      .st32 {
        fill: #ad5123;
      }

      .st33 {
        fill: #a84c1e;
      }

      .st34 {
        fill: #e29459;
      }

      .st35 {
        fill: #dc7f49;
      }

      .st36 {
        fill: #ba5a2b;
      }

      .st37 {
        fill: #d4703e;
      }

      .st38 {
        fill: #bb5b2c;
      }

      .st39 {
        fill: #a1471b;
      }

      .st40 {
        fill: #de844d;
      }

      .st41 {
        fill: #b55727;
      }

      .st42 {
        fill: #b87c5f;
      }

      .st43 {
        fill: #b75829;
      }

      .st44 {
        fill: #010000;
      }

      .st45 {
        fill: #b05224;
      }

      .st46 {
        fill: #a3491c;
      }

      .st47 {
        fill: #d57542;
      }

      .st48 {
        fill: #b15426;
      }

      .st49 {
        fill: #1d0d06;
      }

      .st50 {
        fill: #090401;
      }

      .st51 {
        fill: #e09357;
      }

      .st52 {
        fill: #ae5124;
      }

      .st53 {
        fill: #120802;
      }

      .st54 {
        fill: #de8850;
      }

      .st55 {
        fill: #ab4f22;
      }

      .st56 {
        fill: #c97540;
      }

      .st57 {
        fill: #aa4e21;
      }

      .st58 {
        fill: #b96935;
      }

      .st59 {
        fill: #cd7e46;
      }

      .st60 {
        fill: #0a0401;
      }

      .st61 {
        fill: #b6612f;
      }

      .st62 {
        fill: #da7b46;
      }

      .st63 {
        fill: url(#linear-gradient);
      }

      .st64 {
        fill: #be5e2f;
      }

      .st65 {
        fill: #d8854d;
      }

      .st66 {
        fill: #c1723d;
      }

      .st67 {
        fill: #df8d53;
      }

      .st68 {
        fill: #b65829;
      }
    </style>
    <linearGradient
       id="linear-gradient"
       x1="924.07001"
       y1="1464.01"
       x2="961.17999"
       y2="1560.1"
       gradientTransform="matrix(0.72,0,0,0.72,-510.92672,-1019.5668)"
       gradientUnits="userSpaceOnUse">
      <stop
         offset="0"
         stop-color="#b36330"
         id="stop4" />
      <stop
         offset="1"
         stop-color="#9e4417"
         id="stop6" />
    </linearGradient>
  </defs>
  <path
     d="m 152.60328,120.23323 c 5.86,7.33 7.8,16.72 7.92,25.92 6.33,-0.83 11.9,2.22 17.28,5.04 6.19,-21.6 28.64,-12.21 35.42,3.83 6.65,15.74 -3.73,35.78 -20.13,39.89 -1.59,0.4 -7.44,0.71 -7.97,1.04 -0.18,0.11 -0.79,2.25 -1.55,3.13 -15.49,18.18 -37.34,20.94 -55.09,3.97 -6.96,13.75 -13.8,24.23 -31.210001,19.68 -14.66,-3.83 -17.29,-21.15 -18.11,-34.09 -1.68,-0.36 -1.16,0.21 -1.61,0.92 -1.09,1.72 -1.73,3.67 -3.13,5.49 -10.92,14.24 -31.91,14.31 -45.6,3.96 -3.02,-2.28 -6.25,-7.47 -8.31,-8.97 -1.34,-0.98 -3.35,-0.81 -4.89,-1.59 -9.52,-4.79 -14.79999996,-13.36 -15.56999996,-24.02 -1.17000004,-16.21 17.14999996,-34.79 33.25999996,-25.35 0.71,0.42 2.12,2.01 2.28,2.01 0.18,0 1.83,-1.8 2.73,-2.28 3.53,-1.86 6.58,-2.38 10.59,-2 -0.15,-13.05 10.48,-21.95 18.59,-30.6 -6.34,-7.810003 -3.13,-19.800003 2.41,-27.240003 1.28,-1.72 5.63,-4.89 5.69,-5.27 0.22,-1.5 -1.59,-5.92 -1.55,-8.53 0.31,-17.27 15.2,-41.73 29.350001,-51.35 39.93,-27.16 100.39,-13.89999968 112.49,36.28 6.5,26.93 -13.74,58.370003 -39.35,67.110003 -8.15,2.78 -15.57,2.08 -23.96,3.05 z"
     id="path11" />
  <path
     class="st63"
     d="m 190.04328,22.303227 c -1.24,2.44 -2.7,4.98 -4.37,7.63 1.45,1.6 2.06,2.91 0.55,4.6 l 1.9,0.75 c 0.4,2.82 6.46,5.32 4.19,1.29 l 0.34,-3.36 c -4.71,-0.93 -1.3,-9.33 2.42,-5.87 21.8,25.41 17.9,52.67 -7.19,73.810003 -12.82,10.8 -23.53,10.73 -39.61,10.43 -1.45,-2.64 -2.74,-3.87 -5.33,-5.54 l 0.29,-1.66 c -2.43,-2.04 -2.54,-2.96 -0.72,-5.760003 -0.67,-0.72 -0.67,-2.16 0,-4.32 -1.8,-0.19 -3.13,-1.46 -3.98,-3.82 0.04,1.13 -0.61,1.51 -1.78,1.66 -5.63,0.63 -8.02,-2.12 -7.37,-7.77 l -0.55,-1.59 c -2.96,-0.86 -7.17,-7.15 -5.76,-10.08 -2.78,0.02 -2.48,-2.51 0,-2.88 2.53,-2.18 5.58,-3.42 9.16,-3.71 2.45,-3.5 3.92,-3.67 4.42,-0.51 0.5,0.46 1.77,-0.25 3.82,-2.16 l 6.03,-0.93 c -0.39,-3.95 0.74,-5.74 3.4,-5.36 4.08,-2.48 8.67,-4.08 13.76,-4.77 2.18,-2.52 5.46,-5.66 9.02,-5.48 3.85,1.86 4.36,1.89 1.62,-1.95 -8.56,3.25 -10.12,-3.69 -1.3,-4.57 l -2.17,-5.21 c -4.74,4.36 -5.86,-1.26 -2.4,-4.21 0.4,-0.98 1.4,-1.57 3.02,-1.78 0.29,-1.56 0.96,-2.64 2.02,-3.26 l 0.08,-1.54 c 5.83,-0.39 8.75,-2.41 8.77,-6.07 l 1.23,-1.03 c 3.04,1.81 4.04,2.85 6.48,5.04 z"
     id="path13"
     style="fill:url(#linear-gradient)" />
  <path
     class="st28"
     d="m 86.363279,79.183227 c 4.28,0.44 6.06,1.72 5.33,3.85 2.62,1.74 2.52,4.43 -0.71,5.18 2.6,3.34 1.3,7.04 -3.91,11.08 2.97,-0.52 6.15,-0.96 9.55,-1.31 3.14,5.760003 0.65,9.070003 -5.87,9.290003 l -3.47,1.15 c 1.42,0.82 2.07,2.21 1.86,3.82 3.95,-0.28 8.84,0.28 4.24,4.37 h 3.05 c -2.31,-9.4 7.380001,-7.97 11.940001,-1.87 10.13,4.18 14.88,10.46 20.43,19.04 l 0.03,1.56 c -0.3,4.78 -1.06,9.59 -0.72,14.4 -0.18,3.97 -3.46,6.76 -5.48,1.96 1.27,-2.46 1.24,-3.49 -1.49,-2.02 -0.94,-0.22 -7.24,-5.22 -4.38,-7.16 -5.87,-1.53 -1.13,-6.65 2.21,-7.46 -1.08,-3.49 -2.22,-5.79 -4.92,-8.24 -2.98,-2.7 -9.1,-7.06 -8.34,-0.28 -4.24,-0.28 -5.35,0.47 -3.32,2.25 0.33,1.6 -5.540001,2.81 -6.690001,2.17 -1.63,-0.91 -2.21,-2.23 -0.71,-3.54 l -0.31,-0.73 c -1.75,0.88 -2.89,-0.96 -2.16,-2.8 2.9,-2.42 0.57,-3.71 -2.76,-3.96 l -2.31,-1.14 c -0.84,-4.95 -2.52,-4.33 -5.37,-1.08 -4.34,1.93 -6.28,1.1 -5.82,-2.52 -2.82,-3.68 -8.72,2.62 -10.8,5.04 -2.24,1.73 -4.6,3.12 -2.88,-0.72 3.24,-3.85 10.44,-9.53 12.57,-12.99 0.88,-1.43 1.32,-2.58 1.11,-4.29 -0.51,-1.1 0.17,-2.19 2.03,-3.270003 -0.74,-3.53 -0.24,-6.14 1.5,-7.84 2.47,-0.06 7.83,-3.79 3.74,-5.02 l -0.07,-1.86 c 0.16,-1.52 0.03,-3.45 0,-5.04 0.91,-1.4 1.97,-1.4 2.88,0 z"
     id="path15" />
  <path
     class="st46"
     d="m 59.723279,194.38323 c 0.56,-2.52 3.96,0.06 3.54,0.96 -1.33,2.9 -7.92,1.6 -3.54,-0.96 z"
     id="path17" />
  <path
     class="st46"
     d="m 32.363279,163.42323 c 0.46,2.48 -0.72,4.71 -0.66,6.77 0.39,13.58 18.63,18.72 27.68,9.81 1.81,-1.78 3.6,-5.93 5.38,-7.22 1.52,-2 5.02,-5.7 7.32,-6.42 2,-0.62 4.13,-1.04 4.2,1.38 -0.09,8.67 -3.01,17.86 -8.64,24.48 -2.54,0.96 -5.18,1.68 -7.92,2.16 -0.57,1.1 -1.29,2.3 -2.16,3.6 -1.08,0.31 -1.69,0.52 -2.88,0.72 -5.26,-0.24 -6.06,-4.3 -0.76,-5.9 4.48,-6.22 -4.98,-9.24 -2.92,-1.78 -6.24,7.95 -9.96,6.54 -13.92,-2.45 l -7.61,-3.39 c -1.08,-1.77 -2.51,-2.3 -4.31,-1.59 -4.09,-8.99 -3.83,-20.89 3.6,-28.08 2.36,1.39 4.52,5.13 3.6,7.92 z"
     id="path19" />
  <path
     class="st45"
     d="m 85.643279,141.82323 c 5.51,2.07 7.84,5.24 6.96,9.5 2.27,-0.46 4.62,-0.9 7.05,-1.3 l 1.110001,1.16 c -0.03,1.43 0.8,3.3 0.38,4.31 -0.31,0.75 -2.330001,2.11 -3.130001,3.38 -5.9,9.38 -7.44,25.08 -2.16,35.02 1.74,3.27 3.31,4.52 6.350001,5.53 0.96,1.12 1.37,3.39 0.91,4.86 3.98,1.23 4.18,4.01 0.05,5.3 -0.35,2.43 -1.04,6.51 -3.850001,6.4 -0.8,-0.18 -1.41,-0.38 -2.16,-0.72 -4.75,-3.58 -5.19,-6.18 -1.31,-7.81 l 0.32,-2.5 c -2.71,2.07 -5.18,3.27 -6.93,-0.48 -5.91,-17.31 -7.65,-45.04 -3.6,-62.64 z"
     id="path21" />
  <path
     class="st16"
     d="m 102.20328,85.663227 0.49,1.65 c -8.750001,14.260003 3.42,28.920003 18.74,21.440003 l 1.65,0.67 c 1.74,-1.18 2.63,-0.88 3.12,1.14 l 1.55,16.79 c 2.36,0.69 4.29,3.45 1.8,5.11 0.02,0.84 -0.66,2 -0.72,2.88 -3.88,-1.96 -4.61,-6.2 -6.89,-9.31 -3.84,-5.23 -9.37,-6.8 -14.38,-10.1 -2.41,-1.59 -5.09,-5.55 -7.55,-4.78 -4.730001,1.47 -2.430001,4.5 0.02,6.91 h -9.360001 c -0.3,-2.45 2.84,-2.7 3.59,-4.31 -1.12,-0.2 -6.24,0.25 -6.48,0 -0.84,-0.91 2.34,-5.72 -5.75,-3.61 -0.34,-1.85 0.32,-1.28 1.43,-1.77 1.64,-0.73 4.58,-1.76 6.35,-2.32 4.57,-1.45 7.6,0.77 6.62,-6.700003 -2.93,-1.38 -9.54,4.330003 -10.76,0.27 -0.73,-2.42 5.26,-5.42 5.6,-7.21 0.27,-1.39 -2.26,-3.59 -2.05,-5.29 l 2.88,-0.74 c 0.39,-1.52 -1.28,-1.85 -1.72,-2.85 -0.26,-0.58 0.36,-1.74 -0.01,-2.19 -0.89,-1.08 -3.5,-0.25 -4.02,-2.15 l 3.73,-1.78 c -1.62,-6.23 1.51,-5.93 5.84,-2.55 3.96,3.09 4.120001,4.05 3.79,8.84 1.150001,0.52 1.980001,1.17 2.480001,1.96 z"
     id="path23" />
  <path
     class="st43"
     d="m 123.80328,191.50323 c -2.13,2.56 -4.18,-0.37 -3.25,-3.11 l -3.23,-1.21 c -1.4,-18.21 -13.46,-16.92 -16.57,-0.72 l -1.460001,-6.08 c -0.68,-10.38 4.950001,-27.37 17.980001,-17.99 9.4,6.77 8.51,19.2 6.53,29.11 z"
     id="path25" />
  <path
     class="st3"
     d="m 111.56328,17.983227 c 1.97,0.13 1.81,1.35 -0.48,3.67 l -0.24,1.37 c 0.84,0.51 1.1,1.42 0.77,2.73 1.59,1.28 2.49,2.44 1.64,4.59 1.25,1.84 1.1,4.35 -0.45,7.52 8.65,-9.27 12.88,3.09 2.22,4.7 0.26,3.36 -4.15,5.29 -4.88,1.06 -2.57,-1.33 -5.33,-1.03 -8.28,0.89 -4.200001,-4.4 -5.920001,-4.31 -5.140001,0.27 4.160001,0.56 4.150001,3.14 -0.01,7.73 -0.62,1.32 -1.76,3.91 -0.98,5.08 -0.33,1.29 -1.31,1.9 -2.16,0.72 -2.97,-0.11 -6.83,-0.62 -4.33,-4.48 -1.98,-2.88 -1.74,-6.02 0.71,-9.43 l 0.02,-3.36 c 5.47,-10.63 10.890001,-17.21 21.600001,-23.04 z"
     id="path27" />
  <path
     class="st37"
     d="m 128.84328,102.22323 c 3.11,-4.780003 5.59,2.08 5.13,5.49 1.94,1.69 2.15,2.99 0.63,3.87 -0.04,0.37 -1.27,0.65 -1.41,1.25 -1.39,5.79 0.75,5.33 5.01,6.67 2.31,3.13 4.93,6.09 7.95,8.83 1.31,1.71 2.23,5.03 -0.21,5.47 -1.92,2.94 -4.1,5.71 -6.86,7.94 -0.2,2.38 -0.29,3.36 -3.04,3.68 -0.2,0.63 -0.44,0.62 -0.72,0 -0.47,-4.7 2.35,-17.66 -5.76,-12.96 -0.12,-4.31 -2.51,-3.38 -2.91,-4.06 -1.05,-1.79 -1.14,-11.95 -1.5,-14.93 -0.12,-1.04 -0.15,-4.63 -2.07,-4.04 -0.06,-2.42 3.49,-6.31 5.76,-7.2 z"
     id="path29" />
  <path
     class="st30"
     d="m 208.76328,161.98323 c 0.89,2.4 0.78,5.66 -2.36,5.16 -0.14,1.64 -1.41,2.95 -3.83,3.94 -0.26,4.82 -3.98,14.82 -8.56,7.3 -2.78,0.71 -3.85,0.41 -3.26,-2.72 0.1,-2.06 -1,-4.79 -0.77,-5.99 0.06,-0.31 3.83,-2.34 4.99,-3.84 8.35,-10.85 -5.79,-22.16 -10.7,-8.9 -4.25,-1.04 0.63,-8.48 2.52,-10.09 9.01,-7.63 20.25,6.44 21.97,15.13 z"
     id="path31" />
  <path
     class="st22"
     d="m 168.44328,185.74323 c 1.2,-0.45 1.83,0.25 1.89,2.09 2.35,-2.83 3.98,-1.83 6.46,0.09 1,-2.48 4.51,-3.14 4.61,-0.02 -3.28,9.5 -12.41,17.03 -22.32,18.72 -1.53,0.28 -2.15,-0.62 -1.86,-2.7 -4.29,-3.68 -8.6,-8.92 -11.1,-12.42 -1.83,-1.12 -1.33,-2.13 0.72,-1.44 1.72,0.7 10.49,0.99 12.55,0.67 2.52,-0.38 7.26,-3.16 9.05,-4.99 z"
     id="path33" />
  <path
     class="st5"
     d="m 95.003279,127.42323 c 0.55,3.76 3.95,2.36 6.480001,2.16 l -2.880001,-3.59 c 2.280001,-0.65 4.260001,-1.3 6.470001,0 l -1.43,-4.32 c 5.56,-0.25 11.97,3.17 14.7,7.97 0.39,0.68 2.63,6.41 2.58,6.77 -0.3,2.21 -2.37,-0.29 -2.53,-0.28 -0.55,0.03 -1.6,3.17 -3.23,2.84 -0.18,2.52 2.39,2.23 4.31,2.14 0.5,1.58 -1.92,2.32 -1.98,3.23 -0.07,1.02 2.24,3.18 3.08,3.97 1.41,0.48 0.92,-1.47 1.43,-1.46 1.1,0.02 1.51,1.14 2.26,1.28 0.79,0.16 2.19,-0.78 2.41,-0.53 1.54,1.73 -2.87,3.24 -2.86,3.96 l 1.8,1.79 2.51,-3.59 c 0.17,2.32 0.97,7.48 1.44,10.08 0.52,4.85 -2.66,1.67 -3.66,-1.33 -1.43,-0.04 -2.86,-0.56 -4.26,-1.55 -0.69,-0.53 -2.01,-0.99 -2.88,-1.44 -0.58,-1.9 -0.55,-3.78 0.1,-5.66 -1.42,-0.56 -4.2,-1.28 -4.2,1 -1.25,1.42 -3.26,1.59 -3.82,-0.38 -0.59,-5.52 -0.21,-12.45 0,-18 0.19,-0.96 1.17,-1.59 2.94,-1.88 -2.16,-0.65 -3.81,-2.25 -4.95,-4.79 0.86,2.94 0.57,4.92 -0.87,5.95 -2.58,0.24 -2.09,1.38 -2.88,2.88 -1.66,2.63 -3.49,0.26 -3.55,-2.31 -0.6,-0.48 -8.970001,3.64 -2.620001,2.44 1.290001,0.31 3.110001,5.17 2.600001,5.91 -0.22,0.32 -7.440001,-0.08 -7.760001,-0.29 -0.54,-0.36 -1.97,-2.09 -2.3,-2.66 -1.09,-1.94 -0.61,-13.16 3.55,-10.28 z"
     id="path35" />
  <path
     class="st24"
     d="m 65.483279,136.78323 c 1.16,-3.45 4.03,-1.72 5.42,0.91 1,-3.94 4.84,-1.67 5.38,1.25 -2.54,9.14 0.1,19.49 0,28.8 -4.2,-1.47 -5.93,1.81 -8.72,3.9 -0.76,0.58 -2.13,0.64 -2.8,1.14 3.99,-11.23 -1.08,-23.11 -0.03,-34.26 0.09,-0.96 0.71,-1.51 0.75,-1.74 z"
     id="path37" />
  <path
     class="st57"
     d="m 117.32328,187.18323 c 2.58,-1.71 4.15,-0.15 5.76,1.8 -2.52,0.52 -1.67,2.23 0.72,2.52 -2.63,13.14 -8.28,28.19 -24.480001,24.48 1.230001,-2.55 3.830001,-6.55 1.440001,-8.63 5.54,1.63 5.6,-1.97 0,-1.45 -0.41,-1.28 1.07,-1.67 1.23,-2.62 0.19,-1.09 -1.01,-2.62 0.21,-3.86 2.65,0.88 1.21,1.34 2.86,3.26 8.15,9.43 12.77,-8.86 12.26,-15.5 z"
     id="path39" />
  <path
     class="st7"
     d="m 143.96328,158.38323 c -0.91,2.26 -3.08,8.81 -1.26,10.62 3.35,3.34 5.77,-1.93 7.8,-3.01 0.86,-0.46 5.17,-1.55 5.67,-1.1 0.1,0.09 0.25,1.84 0.61,2.61 2.05,4.48 4.31,7.43 9.51,8.16 0.51,0.69 -2.5,5.97 -3.93,6.17 -1.03,0.15 -7.82,-0.37 -9.22,-0.6 -10.81,-1.78 -12.89,-14.2 -14.93,-22.87 1.3,-1.16 5.15,-2.18 5.76,0 z"
     id="path41" />
  <path
     class="st20"
     d="m 76.283279,115.18323 c 0.95,1.24 0.43,1.91 1.08,2.88 1.15,-1.7 2.89,-0.74 4.48,-1.87 1.48,-1.06 0.95,-2.48 3.23,-2.32 6.12,0.44 2.93,2.42 2.93,3.11 0,2.31 10,2.55 12.050001,2.53 -0.910001,2.26 -3.900001,1.27 -5.760001,1.44 2.87,2.54 -0.6,2.95 -0.71,3.95 -0.18,1.75 3.45,0.24 3.58,0.36 1.31,1.29 -1.7,1.8 -2.15,2.16 -0.78,0.61 -1.64,0.71 -2.01,1.94 -0.71,2.36 -0.92,9.19 1.26,10.73 0.3,0.21 5.36,-0.35 6.500001,0.28 0.02,-1.13 -1.840001,-1.16 -2.100001,-1.53 -0.35,-0.5 1.04,-2.4 0.66,-2.78 -0.19,-0.19 -4.44,1.74 -4.16,-1.82 0.12,-1.57 6.760001,-4.21 7.750001,-3.21 0.31,0.31 -0.69,3.95 2.18,3.59 -0.85,1.61 -2.4,4.87 -2.88,6.48 l -0.83,1.41 c -8.120001,0.52 -16.030001,-1.83 -12.850001,-11.49 0.75,-2.03 3.2,-5.97 -0.51,-7.08 -2.78,-0.83 -5.36,2.07 -6.69,4.2 -1.36,0.17 -3,-0.11 -4.92,-0.85 -2.95,4.02 -6.86,3.86 -6.6,-1.31 2.4,-3.62 6.95,-6.47 6.48,-10.8 z"
     id="path43" />
  <path
     class="st29"
     d="m 136.04328,145.42323 c 1.45,-0.89 2.98,-1.85 4.58,-2.88 l 1.78,-4.1 c 2.76,-4.35 5.51,-7.98 5.88,-0.76 2.09,-1.04 3.77,-1.1 5.04,-0.18 0.54,2.77 2.31,6.74 1.32,9.6 -0.37,1.06 -8.4,5.64 -10.68,11.28 -2,-0.2 -3.98,1.35 -5.76,0 -0.87,-3.71 -2.53,-9.43 -2.88,-12.96 z"
     id="path45" />
  <path
     class="st13"
     d="m 25.163279,183.58323 c 4.76,-7.52 3.11,-1.63 4.22,-0.33 1.65,1.93 6.87,2.36 9.1,4.65 1.64,1.68 2.81,7.25 5.03,7.25 0.34,0 5.63,-3.34 5.81,-3.63 1,-1.59 -0.93,-3.13 0.24,-4.72 2.6,-3.51 7.39,-0.18 7.16,2.05 -0.03,0.25 -1.54,4.61 -1.69,4.81 -0.78,1.07 -3.67,0.64 -3.23,2.88 l 2.88,2.16 c -12.19,2.02 -24.24,-3.52 -29.52,-15.12 z"
     id="path47" />
  <path
     class="st27"
     d="m 183.56328,171.34323 c 0.76,4.95 -0.53,11.82 -2.16,16.56 -3.46,-1.87 -3.03,0.94 -3.7,1.33 -1.57,0.93 -3.64,-1.97 -4.59,-1.9 -0.73,0.06 -2.09,2.84 -3.94,2.01 l -0.73,-3.6 c 4.82,-4.93 6,-13.6 2.16,-19.44 4.54,-2.13 8.53,-0.53 10.38,4.27 0.96,-0.1 1.82,0.16 2.58,0.77 z"
     id="path49" />
  <path
     class="st38"
     d="m 183.56328,171.34323 c -4.95,2.68 -4.17,-2.88 -6.47,-3.97 -1.96,-0.92 -4.56,0.28 -6.49,-1.07 -3.44,-5.23 -11.89,-8.36 -18,-7.93 7.03,-10.31 22.83,-3.2 27.89,5.6 0.69,1.2 2.89,6.2 3.07,7.37 z"
     id="path51" />
  <path
     class="st1"
     d="m 159.08328,206.62323 c -9.12,1.56 -16.58,-0.54 -23.76,-6.48 0.28,-0.91 0.97,-1.75 2.07,-2.5 1.75,-5.04 2.69,-7.73 8.73,-6.14 1.64,-1.38 1.5,0.08 2.31,0.92 2.34,2.43 3.94,4.82 5.93,7.03 1.03,1.15 2.69,1.6 3.63,2.87 1.37,1.84 0.15,2.81 1.09,4.29 z"
     id="path53" />
  <path
     class="st9"
     d="m 208.76328,161.98323 c 0.04,0.18 0.6,0.55 0.66,1.13 1.31,11.16 -9.51,26.79 -21.54,26.94 l 2.88,-14.4 c -0.45,2.53 2.33,1.12 3.81,1.46 0.44,0.1 2.43,3.49 4.11,2.86 -0.83,-2.4 1.64,-3.53 2.02,-4.82 0.42,-1.41 -0.15,-2.98 0.51,-4.53 1.32,-3.08 7.07,-1.11 1.79,-5.04 4.02,-0.31 6.65,1.74 5.76,-3.61 z"
     id="path55" />
  <path
     class="st3"
     d="m 130.28328,10.783227 c 1.29,0.38 1.51,1.45 0.68,3.22 2.42,-4.6799997 5.13,-3.01 4.04,1.26 3.4,1.14 6.96,1.66 10.69,1.56 l 0.43,1.16 -0.23,1.58 c -5.7,1.82 -10.93,4.6 -15.68,8.35 -4.05,2.76 -9.37,1.82 -8.26,-3.87 l -1.46,-0.32 c -1.2,3.13 -8.54,2.34 -8.93,-0.7 -1.45,-2.25 2.72,-6.77 5.44,-4.11 2.12,-1.27 4.55,-1.15 7.27,0.36 -1.87,-2.75 -0.59,-5.34 3.85,-7.78 0.72,-0.22 1.38,-0.5 2.16,-0.72 z"
     id="path57" />
  <path
     class="st66"
     d="m 171.32328,11.503227 c 0.22,0.93 0.23,1.88 0.05,2.86 2.47,4.49 0.75,5.26 -3.68,5.63 4.23,1.06 4.24,3.75 0.03,8.08 0.23,1.82 -0.18,2.05 -1.44,0.72 -0.5,0.77 -0.72,2.52 -0.58,2.6 1.65,0.95 2.02,1.66 0.78,3.79 -0.66,1.14 -1.01,1.38 -2.37,0.81 -3.09,-0.18 -3.02,-6.09 -0.86,-8.31 -5.05,0.68 -7.15,-0.3 -6.28,-2.93 l -0.06,-3.88 c -2.8,-1.57 -0.08,-2.96 1.97,-3.64 l 1.29,-3.16 c -3.03,-3.57 -3.15,-5.3799997 -0.39,-5.4499997 3.89,0.79 7.78,1.5499997 11.52,2.8799997 z"
     id="path59" />
  <path
     class="st36"
     d="m 88.523279,131.02323 c 0.06,1.75 0.05,5.22 0.71,6.69 0.29,0.66 3.34,1.02 3.62,3.06 l 9.350001,0.33 c -1.08,3.65 -1.35,6.29 -1.44,10.08 -2.260001,0.91 -5.040001,-0.29 -4.320001,2.88 l -2.17,-2.16 c -0.8,-0.5 -1.44,3.43 -2.86,2.16 -1.16,-1.04 0.44,-5.08 -0.11,-6.72 -0.55,-1.64 -5.86,-2.41 -5.66,-5.52 1.02,-4.42 1.21,-6.29 2.88,-10.8 z"
     id="path61" />
  <path
     class="st23"
     d="m 76.283279,102.22323 c -0.12,0.01 -1.07,-0.6 -1.86,-0.64 -2.29,-0.1 -2.74,1.55 -3.59,-2.200003 -1.56,-6.91 1.49,-14.67 6.53,-19.48 1.43,2.6 -2.01,7.36 0.65,9.42 4.06,3.16 5.13,-1.93 5.47,-5.11 0.76,1.48 2.8,0.59 2.87,0.72 0.22,0.42 0.08,3.11 -0.13,3.82 -0.68,2.27 -5.57,2.27 -6.76,4.83 -0.6,1.29 0.75,1.67 0.83,2.52 0.03,0.32 -0.62,0.87 -0.71,1.42 -0.1,0.66 0.33,1.49 0.17,2.03 -0.17,0.570003 -3.26,2.630003 -3.48,2.660003 z"
     id="path63" />
  <path
     class="st2"
     d="m 153.32328,137.50323 c -5.69,1.77 -6.56,4.09 -6.84,-3.6 -4.7,4.51 -1.61,11.82 -10.44,11.52 2.34,-0.84 0.94,-2.94 1.61,-4.16 0.74,-1.34 5.74,-4.9 6.8,-6.15 5.89,-6.93 -7.1,-8.58 -6.25,-15.62 11.4,3.59 12.92,6.59 15.12,18 z"
     id="path65" />
  <path
     class="st58"
     d="m 171.32328,11.503227 c 3.76,1.33 9.24,3.97 12.24,5.76 0.81,2.71 0.06,5.12 -2.5,6.55 -0.44,0.25 -6.01,1.54 -7.58,2.09 -0.38,2.1 -4.24,3.75 -5.76,2.16 -1.26,-2.57 0.65,-3.09 1.72,-4.32 1.92,-2.21 -3.68,-1.56 -3.15,-3.94 0.59,-2.66 4.94,-0.66 5.01,-2.18 0.03,-0.69 -3.2,-3.76 0.02,-6.12 z"
     id="path67" />
  <path
     class="st39"
     d="m 15.803279,157.66323 c -2.62,4.98 0.44,5.97 0.64,8.97 0.15,2.25 -0.81,6.34 -0.67,9.43 0.07,1.66 0.73,3.03 0.75,4.65 -8.17,-4.37 -10.53,-13.87 -8.63,-22.32 1.72,-1.5 7.08,-3.52 7.92,-0.72 z"
     id="path69" />
  <path
     class="st35"
     d="m 93.563279,58.303227 c 0.63,0.2 0.62,0.44 0,0.72 -5.79,1.85 -3.37,3.28 0.7,0.99 l 1.46,0.45 c 5.030001,-1.59 2.12,4.65 -1.98,3.87 2.12,1.12 3.5,2.47 4.14,4.05 0.78,5.5 -2.55,5.01 -6.52,3.11 0.16,1.57 -0.35,2.33 -1.54,2.29 2.58,7.54 -9.81,6.1 -3.39,0.45 1.68,-3.98 1.28,-11.73 -2.79,-13.64 l -0.16,-3 c 0.26,-1.12 0.38,-1.72 0.72,-2.88 1.33,-0.71 1.81,-1.91 1.44,-3.6 1.53,-4.2 2.26,-6.07 4.32,-10.08 4.01,4.07 -1.44,5.69 -0.71,9.67 0.35,1.92 2.92,2.95 0,5.09 l 4.31,2.52 z"
     id="path71" />
  <path
     class="st55"
     d="m 195.08328,27.343227 c -2.16,-0.23 -2.08,0.18 -2.85,1.83 -1.8,3.88 0.57,1.73 1.48,2.92 1.26,1.65 -1.25,4.5 1.01,6.04 l 0.36,-3.59 c 1.64,-0.27 3.01,0.62 3.59,2.14 -1.9,0.7 -4.01,3.38 -6.24,3.47 -0.23,0 -4.22,-1.31 -4.4,-1.46 -0.47,-0.41 -0.24,-3.16 -1.95,-2.72 -0.61,0.16 -2.66,4.76 -5.4,3.6 -0.82,-0.72 4.63,-5.72 5.03,-6.85 0.62,-1.75 -2.81,-0.74 -2.87,-2.49 3.71,-1.43 2.36,-6.13 7.2,-7.93 2.02,1.81 3.25,2.95 5.04,5.04 z"
     id="path73" />
  <path
     class="st31"
     d="m 136.76328,92.143227 0.95,-0.42 c 1.46,0.85 2.82,1.71 4.09,2.58 1.2,1.41 0.26,3.58 -0.72,5.04 1.32,1.250003 0.72,3.870003 -1.44,2.880003 -3.67,0.18 -4.05,4.6 -2.16,7.2 1.15,0.53 0.91,1.01 -0.72,1.44 -0.52,0.05 -1.42,0.78 -2.16,0.72 0.09,-0.86 -3.26,-7.7 -2.89,-9.61 l -2.87,0.25 c -1.52,-1.32 -1.26,-6.420003 0.72,-7.200003 -1.36,-3.46 -2.09,-7.02 -2.18,-10.67 l 1.46,-1.57 c 0.18,0.35 0.93,0.66 1.12,1.39 0.35,1.36 -0.63,3.65 0.67,5.1 0.63,0.71 3.89,0.86 6.13,2.87 z"
     id="path75" />
  <path
     class="st0"
     d="m 69.803279,125.98323 3.24,3.6 c 1.06,-4.92 5.18,-4.55 8.28,-1.44 -0.74,1.18 -4.71,9.61 -5.04,10.8 -1.4,0.35 -2.87,-2.11 -3.24,-2.15 -1.79,-0.16 0.36,3.95 -0.72,4.3 -3.27,-1.04 -2.67,-6.46 -6.84,-4.32 0.83,-4.85 1.6,-6.7 4.32,-10.8 z"
     id="path77" />
  <path
     class="st9"
     d="m 131.72328,190.78323 0.79,-0.26 c -0.06,-7.59 6.36,-6.52 10.43,-2.34 l 1.03,-0.28 c 0.79,0.55 2.71,2.09 2.88,2.16 -0.7,0.27 -0.56,0.89 -0.72,1.44 -0.27,0.95 -0.57,1.91 -0.73,2.88 -2.42,0.48 -1.34,-3.16 -3.61,-1.82 -3.14,1.86 -1.46,7.47 -6.46,7.58 -1.09,-0.9 -4.65,-3.65 -4.86,-4.76 -0.13,-0.69 0.71,-4.27 1.26,-4.6 z"
     id="path79" />
  <path
     class="st54"
     d="m 133.16328,10.063227 c 2.78,-0.4599997 3.53,0.48 4.81,2.65 l 2.12,-0.19 c 3.09,2.45 6.55,2.05 10.38,-1.2 1.52,-1.06 2.95,-1 4.29,0.18 3.49,-4.3699997 7.82,3.14 1.68,4.34 -0.64,1.85 -2.45,3.25 -5.43,4.21 l 0.15,0.81 c 0.3,0.35 0.52,0.63 0.46,0.71 -2.65,3.42 -3.81,0.74 -2.62,-2.87 l -1.01,-0.82 c 0.93,1.24 -0.9,1.3 -1.87,0.1 -2.46,-1.07 -5.65,0.26 -7.51,0.01 -1.59,-0.22 -2.76,-2.12 -5.45,-0.73 l 1.08,-5.75 c -1.32,2.26 -2.7,4.45 -4.27,6.55 -0.6,0.8 0.01,1.79 -1.85,1.36 l 2.16,-8.64 c 1.04,-0.29 1.86,-0.47 2.88,-0.72 z"
     id="path81" />
  <path
     class="st62"
     d="m 154.04328,7.1832273 c 3.37,1.54 4.19,2.18 0.72,4.3199997 -4.21,0.41 -8.14,4.34 -10.43,4.38 -2.13,0.03 -2.87,-1.39 -4.46,-1.97 -0.5,-0.18 -1.53,0.49 -2.37,0.13 -1.56,-0.67 -1.96,-3.78 -4.34,-3.97 7.22,-1.7999997 13.12,-3.4899997 20.88,-2.8799997 z"
     id="path83" />
  <path
     class="st26"
     d="m 62.603279,119.50323 c -0.36,2.61 0.91,0.56 2.88,0.72 -4.52,5.27 -7.98,15.01 -7.99,21.96 0,2.86 0.89,6.67 1.15,9.72 0.06,0.75 1.07,2.3 -0.35,2.15 -6.44,-14.46 -5.74,-22.61 4.31,-34.55 z"
     id="path85" />
  <path
     class="st8"
     d="m 124.52328,55.423227 c 0.74,-2.01 2.75,-1.39 2.88,0.72 0.05,-1.57 3.51,-0.08 3.61,0.15 0.59,1.28 1.47,5.95 0,7.05 -0.14,1.83 -1.59,1.97 -4.33,0.41 -2.95,0.75 -3.61,1.53 -1.98,2.32 0.12,0.91 -3.36,5.93 -4.44,5.89 0.69,1.75 -0.46,5.29 -2,6.4 0.87,3.65 -0.97,4.63 -5.5,2.94 1.04,-4.87 0.74,-4.46 -1.86,-0.78 l -2.94,1.55 c 0.28,2.1 -4.01,4.79 -5.76,3.6 -6.090001,0.71 -3.220001,-4.69 -3.930001,-6.47 -0.8,-2 -5.81,-5.08 -7.95,-5.77 -1.77,1.57 2.64,3.87 1.8,5.02 -1.98,0.73 -3.7,0.69 -5.76,0.73 -0.96,0.02 -1.92,-0.01 -2.88,0 -0.19,-9.23 -2.3,-11.73 0,-21.6 -0.28,2.36 2.24,1.72 2.94,2.63 0.25,0.33 2.63,7.48 2.64,7.94 0,0.36 -1.25,6.65 -1.36,6.99 -0.11,0.34 -4.31,2.58 -0.97,3.32 2.78,0.61 3.41,-7.63 3.24,-9.36 2.27,1.21 4.46,2.61 7.19,2.16 l -3.6,-2.87 h 4.32 c 0,0 0.88,-0.71 0.88,-0.71 3.810001,1.64 7.660001,1.23 11.530001,-1.21 -1.29,-1.93 -1.37,-3.77 0.59,-5.23 -3.84,-5.81 -3.16,-7.62 2.05,-5.43 1.2,1.51 3.12,1.63 5.77,0.34 0.73,-3.15 3.66,-2.12 5.83,-0.73 z"
     id="path87" />
  <path
     class="st57"
     d="m 21.563279,152.62323 c -0.13,0.12 0.09,1.26 -0.71,1.78 -1.8,1.17 -3.33,-0.01 -5.05,3.26 -2.67,-0.7 -5.92,1.99 -7.92,0.72 1.14,-5.07 4.33,-9.26 8.64,-12.24 4.18,-0.99 7.9,2.37 5.04,6.48 z"
     id="path89" />
  <path
     class="st10"
     d="m 131.72328,169.18323 c 2.07,7.03 6.09,14.45 12.24,18.72 0.2,3.49 -3.03,-0.73 -4.3,-1.11 -0.22,-0.06 -4.35,-0.4 -4.57,-0.36 -0.9,0.14 -1.8,3.91 -2.64,4.73 -0.84,0.82 -0.69,-0.4 -0.73,-0.38 0.8,-7.24 1,-14.59 -1.44,-21.6 0.3,-1.98 0.67,-1.75 1.44,0 z"
     id="path91" />
  <path
     class="st54"
     d="m 128.12328,11.503227 c -0.43,2.17 -4.02,4.68 -3.6,6.12 0.17,0.57 3.48,1.34 2.16,2.51 -2.05,1.83 -5.38,-0.78 -6.84,-0.8 -1.74,-0.02 -2.47,1.55 -3.59,1.55 -0.43,0 -0.36,-1.48 -0.73,-1.51 -1.64,-0.11 -3.54,2.05 -3.95,3.64 -0.2,0.63 -0.44,0.62 -0.72,0 -0.04,-0.14 -1.43,-0.65 -1.39,-1.07 0.04,-0.45 2.9,-2.22 2.11,-3.97 5.79,-3.15 10.34,-4.57 16.56,-6.48 z"
     id="path93" />
  <path
     class="st32"
     d="m 49.643279,173.51323 c 1.38,1.62 -3.65,2.22 -4.65,2.18 -8.41,-0.33 -6.96,-10.57 -2.9,-15.15 0.52,4.97 1.85,8.42 5.38,11.92 0.75,0.74 2.09,0.96 2.17,1.05 z"
     id="path95" />
  <path
     class="st48"
     d="m 54.073279,164.03323 c 1.28,0.76 3.83,-1.22 4.08,2.09 0.37,5 -7.28,4.88 -9.4,0 -1.71,-3.95 1.65,-5.32 1.62,-9.18 1.82,0.59 2.91,6.62 3.7,7.09 z"
     id="path97" />
  <path
     class="st19"
     d="m 159.80328,8.6232273 c -2.26,3.1399997 2.2,4.3299997 2.18,4.6999997 -0.01,0.25 -1.71,4.42 -1.85,4.63 -0.97,1.46 -3.6,0.63 -3.21,2.91 l -0.84,0.38 c -0.93,-0.97 -2.15,-1.57 -3.48,-1.1 0.62,0.99 0.27,1.33 -0.72,0.72 -0.2,0.63 -0.44,0.62 -0.72,0 -1.94,0.31 -1.93,-0.73 -0.76,-1.84 1.27,-1.2 2.81,-0.79 3.64,-1.4 0.79,-0.58 0.6,-2.08 1.47,-2.85 0.99,-0.88 4.17,-0.57 2.48,-3.27 -1.07,0.08 -2.17,-0.1 -3.23,0 l -1.43,-0.73 v -0.7 c 0,0 2.87,-0.3599997 2.87,-0.3599997 l -2.16,-2.52 c 2.28,0.18 3.92,1.07 5.76,1.44 z"
     id="path99" />
  <path
     class="st52"
     d="m 28.763279,155.50323 c 3.68,-3.56 7.73,-5.54 12.24,-1.8 -5.1,1.18 -6.49,5.62 -8.64,9.72 -0.38,-2.08 -3.7,-5.2 -3.6,-7.92 z"
     id="path101" />
  <path
     class="st68"
     d="m 48.763279,142.71323 c 1.19,1.25 1.56,7.3 3.05,9.18 -4.52,1.23 -2.68,0.6 -4.64,-1.45 -2.27,-2.37 -4.74,-4.93 -8.32,-5.03 0.89,-2.79 8.3,-4.4 9.91,-2.7 z"
     id="path103" />
  <path
     class="st48"
     d="m 21.563279,152.62323 -0.59,-0.48 c 1.51,-4.67 -1.73,-3.76 -4.45,-6 4.34,-2.99 9.52,-4.64 13.67,-0.36 -3.03,2.08 -5.97,4.31 -8.63,6.84 z"
     id="path105" />
  <path
     class="st26"
     d="m 110.12328,181.42323 c 1.91,5.66 2.33,12.1 -1.07,17.26 -4.07,-0.02 -2.66,-15.58 1.07,-17.26 z"
     id="path107" />
  <path
     class="st57"
     d="m 89.243279,204.46323 c 4,2.99 5.24,-1.45 9.36,-2.16 l -1.44,4.31 c 0.11,0.11 3.840001,-0.27 2.16,1.44 -0.32,0.33 -4.68,0.12 -5.05,3.24 -0.22,1.87 0.86,0.7 1.58,1.09 1.19,0.66 1,1.8 1.31,2.87 -5.37,-2.43 -6.19,-5.73 -7.92,-10.8 z"
     id="path109" />
  <path
     class="st64"
     d="m 110.84328,150.46323 h 2.87 c -1.25,-3.35 5.32,-3.05 6.36,-1.3 0.72,1.21 -0.95,3.85 -0.6,4.18 0.51,0.47 2.96,-1.2 2.16,2.16 h -2.87 c -1.16,-0.6 -2.37,-1.33 -3.59,-1.81 -2.82,-1.1 -3.88,0.93 -4.33,-3.23 z"
     id="path111" />
  <path
     class="st64"
     d="m 121.64328,156.94323 c 5.57,0.72 3.11,-0.48 5.75,-3.6 -1.07,2.95 -0.58,4.08 0.91,6.66 0.81,1.4 1.43,2.21 1.26,-0.18 0.42,2.34 1.5,7.11 2.16,9.36 h -1.44 c -1.2,-3.46 -5.78,-10.03 -8.64,-12.24 z"
     id="path113" />
  <path
     class="st42"
     d="m 188.62328,164.86323 c -1.31,-3.23 -3.08,-6.22 0.2,-9.14 4.84,-4.3 5.96,8.17 -0.2,9.14 z"
     id="path115" />
  <path
     class="st28"
     d="m 107.96328,131.74323 c -0.56,-2.95 0.03,-5.05 -1.44,-7.92 3.94,-0.66 4.26,3.19 5.99,4.81 0.52,0.49 2.37,0.29 2.61,1.36 0.63,2.74 -2.51,2.57 -4.29,2.46 -0.64,-0.04 -1.58,-0.84 -2.88,-0.72 z"
     id="path117" />
  <path
     class="st41"
     d="m 143.24328,104.38323 -1.05,0.46 c 0.12,2.04 0.21,4.04 -0.39,6.02 -1.57,-0.05 -3.53,-0.15 -5.04,0 0.13,-0.42 0.74,-1.14 0.72,-1.44 -2.63,-2 -1.36,-7.82 2.16,-7.2 0.77,-0.79 1.24,-1.77 1.44,-2.880003 -0.48,-0.94 0.8,-1.66 1.44,-0.72 0.17,1.810003 -0.43,3.500003 0.72,5.760003 z"
     id="path119" />
  <path
     class="st18"
     d="m 141.80328,110.86323 c -2.11,-1 -0.88,-1.06 -0.95,-1.98 -0.14,-1.86 0.2,-3.91 -0.49,-5.94 1.84,-0.68 1.96,0.57 2.88,1.44 1.75,1.64 6.7,4.99 5.04,7.2 -0.48,0 -0.96,0.01 -1.44,0 -1.38,0.05 -2.04,-3.45 -1.8,-3.6 0.15,-0.09 0.99,3.34 -0.36,2.88 -0.96,-0.04 -1.92,0.03 -2.88,0 z"
     id="path121" />
  <path
     class="st13"
     d="m 67.643279,192.22323 c -3.39,3.99 -5.27,4.36 -10.08,5.76 -1.94,-4.37 1.2,-2.89 2.16,-3.6 -1.07,1.21 0.92,3.25 2.16,2.16 0.78,-0.69 -1.48,-2.92 -2.16,-2.16 0.12,-0.09 -0.03,-1.68 1.15,-2.06 1.79,-0.58 4.77,0.18 6.77,-0.1 z"
     id="path123" />
  <path
     class="st3"
     d="m 85.643279,51.103227 c 1.18,0.09 2.5,4.01 2.16,4.32 l -3.6,-0.72 c 0.53,-1.79 1.02,-2.45 1.44,-3.6 z"
     id="path125" />
  <path
     class="st17"
     d="m 165.56328,171.33323 c -2.58,0.05 -3.93,-2.41 -5.04,-4.31 2.58,-0.05 3.93,2.41 5.04,4.31 z"
     id="path127" />
  <path
     class="st15"
     d="m 107.24328,153.33323 c -2.88,0.44 -0.87,-5.01 -1.43,-6.47 z"
     id="path129" />
  <path
     class="st33"
     d="m 146.84328,111.58323 c -1.2,-0.03 -2.05,-0.72 -2.16,-0.72 l 0.36,-2.88 z"
     id="path131" />
  <path
     class="st12"
     d="m 166.28328,28.783227 c 1.13,0.3 2.01,0.93 2.16,2.16 0.53,0.17 2.36,0.7 2.16,1.43 -2.73,-0.13 -3.18,1.06 -2.87,3.6 l 3.24,-2.86 c 1.07,-0.03 3.43,6.87 3.97,8.26 0,0.66 -7.04,0.06 -6.49,3.25 1.24,-0.02 7.61,-1.7 7.91,-1.43 0.22,0.19 -0.65,1.09 -0.55,1.69 0.17,1 3.47,2.58 0.57,4.47 -1.77,1.16 -2.94,-1.68 -5.25,-1.03 -0.26,0.07 -3.96,2.39 -4.52,2.78 -0.74,0.52 -0.68,1.66 -1.96,2.39 -2.52,1.43 -7.06,1.32 -10.28,2.62 -2.34,0.94 -3.63,3.57 -6.8,2.2 2.42,7.68 -2.15,5.12 -7.34,6.7 -3.1,0.94 -2.48,3.68 -5.26,-0.93 -2.29,4.21 -7.81,3.93 -11.88,5.75 0.66,-1.97 1.4,-3.93 2.22,-5.87 l 1.61,-0.16 c 2.84,1.67 4.37,1.29 6.25,-1.17 1.02,-1.57 2.87,-1.82 5.54,-0.78 0,-0.38 0.03,-0.69 0.17,-0.75 1.14,-0.5 5.89,-2.84 6.13,-3.48 -1.14,-2.2 -0.73,-4.91 1.75,-5.93 l -0.2,-1.1 c 2.89,-1.63 3.86,-3.25 2.89,-4.86 1.94,-2.69 4.17,-3.56 6.7,-2.61 3.77,-1.32 3.96,-1.8 5.1,-4.96 0.49,-1.21 1.5,-2.37 2.88,-2.16 3.98,-5.21 0.62,-2.56 0.65,-4.65 0.03,-1.84 0.42,-1.72 1.51,-2.55 z"
     id="path133" />
  <path
     class="st47"
     d="m 133.16328,62.623227 c 0.17,6.09 -6.81,1.87 -7.19,2.16 -0.13,0.1 -0.37,2.31 -0.89,3.09 -0.63,0.95 -1.45,1.28 -2,1.95 -0.82,1 -0.57,1.47 0,2.88 0.36,1.04 -0.15,2.17 -1.53,3.39 1.95,2.9 4.98,7.96 2.97,11.01 l -0.68,0.69 c -4.95,-3.07 -9.84,-4.61 -14.65,-4.62 l -1.23,-1.12 4.77,-6.44 3.15,1.77 c -2.67,0.75 -0.77,1.32 -0.68,2.84 0.05,0.78 -1.81,-0.12 -1.48,1.11 5.11,0.57 2.56,-2.01 3.21,-3.57 0.42,-1 2.44,-1.55 2.58,-3.3 0.14,-1.75 -1.82,-2.77 -1.48,-4.26 0.06,-0.27 1.17,-1.28 1.43,-1.1 0.14,0.1 -0.42,2 1.08,1.43 1.14,-0.43 2.44,-2.96 3.25,-3.96 -2.13,-1.22 -4.35,1.08 -6.47,1.08 0.46,-0.81 1.79,-2.53 2.47,-2.92 0.3,-0.17 6.24,-2.11 6.58,-2.14 2.15,-0.22 1.86,2.1 4.62,0.75 -0.25,-2 0.48,-2.66 2.16,-1.44 0.63,0.2 0.62,0.44 0,0.72 z"
     id="path135" />
  <path
     class="st11"
     d="m 128.84328,82.783227 c -0.18,4.19 0.69,8.03 0.72,12.24 -2.39,0.56 -5.32,-5.75 -5.04,-7.92 -0.98,-1.99 -1.06,-4.43 -1.85,-6.43 -1.34,-3.38 -5.16,-4.33 0.41,-7.97 1.44,3.56 3.93,6.55 5.76,10.08 z"
     id="path137" />
  <path
     class="st60"
     d="m 172.05328,97.183227 c 0.73,-0.73 7.77,2.950003 9.36,0.71 0.62,-0.87 -2.26,-3.88 -1.79,-5.04 3.72,0.36 7.47,4.29 3.5,7.12 -4.78,3.400003 -13.33,-0.52 -11.07,-2.79 z"
     id="path139" />
  <path
     class="st25"
     d="m 179.25328,83.483227 c -0.17,-0.21 0.09,-1.54 -0.01,-2.13 2.45,0.04 4.93,0.37 6.86,-1.43 l 3.94,-5.77 c 2.26,4.56 -2.62,9.52 -7,9.92 -0.6,0.06 -3.66,-0.44 -3.78,-0.59 z"
     id="path141" />
  <path
     class="st50"
     d="m 161.96328,102.94323 c 1.32,-0.7 1.8,0.02 1.44,2.16 -1.5,4.11 -5.26,4.43 -9.05,2.93 -2.08,-0.82 -4.14,-3.42 -0.72,-2.88 2.07,0.33 3.93,1.75 6.17,1.39 0.64,-0.64 -1.55,-6.35 2.16,-3.6 z"
     id="path143" />
  <path
     class="st14"
     d="m 197.97328,74.143227 c 1.2,-4.95 5.58,-6.27 2.15,-11.87 7.11,-0.92 2.18,10.63 -2.15,11.87 z"
     id="path145" />
  <path
     class="st53"
     d="m 161.96328,102.94323 c -0.05,-0.21 0.48,-2.12 0,-2.88 4.03,0.67 5.11,2.87 9.36,0.72 -0.76,5.68 -7.54,2.57 -7.91,2.88 -0.15,0.12 0.13,1.06 0,1.44 -0.66,-0.52 -1.26,-1.35 -1.44,-2.16 z"
     id="path147" />
  <path
     class="st61"
     d="m 173.48328,25.903227 c -0.01,3.75 -0.7,5.62 -5.04,5.04 -1.42,-0.45 -2.63,1.13 -2.16,-2.16 0.38,-0.29 0.99,-0.46 1.44,-0.72 2.28,-1.33 3.78,-1.46 5.76,-2.16 z"
     id="path149" />
  <path
     class="st41"
     d="m 136.76328,92.143227 c 0.78,-2.93 -0.06,-5.62 4.32,-5.03 -3.25,3.72 0.86,4.32 1.44,7.19 -0.2,0.63 -0.44,0.62 -0.72,0 -1.57,-0.74 -1.53,2.81 -2.87,1.44 -0.16,-0.16 -0.17,-1.82 -2.17,-3.6 z"
     id="path151" />
  <path
     class="st49"
     d="m 202.99328,56.863227 c -0.07,0.06 -1.52,0.27 -1.44,-0.37 1.42,-2.98 -0.74,-6.06 -1.43,-8.98 4.63,-0.38 5.13,7.28 2.87,9.35 z"
     id="path153" />
  <path
     class="st25"
     d="m 189.33328,87.113227 c 0.28,-0.37 6.53,-2.42 5.77,-6.49 4.07,3.07 -1.53,7.26 -4.69,8.62 -0.61,-0.41 -1.53,-1.53 -1.07,-2.13 z"
     id="path155" />
  <path
     class="st18"
     d="m 142.52328,98.623227 -1.44,0.72 c 0.03,-0.19 -0.66,-0.73 -0.67,-1.1 0,-0.24 2.56,-1.05 1.39,-3.94 h 0.72 c 0.24,1.21 -0.13,2.97 0,4.32 z"
     id="path157" />
  <path
     class="st44"
     d="m 124.52328,87.103227 c 2.07,1.67 3.6,5.69 5.04,7.92 0.02,2.58 0.12,4.68 -0.72,7.200003 -0.84,2.52 -3.6,5.76 -5.76,7.2 -9.18,6.15 -23.380001,1.74 -24.510001,-9.680003 -0.45,-4.54 0.41,-10.64 3.630001,-14.08 0.75,-0.8 4.64,-3.21 5.76,-3.6 2.16,-0.75 3.54,-0.87 5.8,-0.41 1.12,0.23 9.86,4.72 10.76,5.45 z"
     id="path159" />
  <path
     class="st34"
     d="m 146.12328,17.983227 c 0.89,-0.28 1.66,-1.06 2.88,-0.72 0.03,0.48 -0.02,0.96 0,1.44 -0.32,1.45 -0.37,2.87 -0.16,4.26 -0.18,0.44 -7.97,4.53 -8.48,2.94 q -1.46,-0.97 0,0 c 3.26,2.01 -0.89,4.34 -2.97,5.19 -0.51,2.3 -1.48,4.11 -2.92,5.44 1.14,1.09 1.81,2.33 2.01,3.72 -2.13,6.54 -5.42,8.55 -12.36,6.06 1.52,4.6 -2.27,7.11 -5.7,3.88 -2.01,4.22 -8.03,6.69 -9.83,1.05 -1.91,3.38 -3.61,5.36 -7.45,5.94 -1.850001,-2.13 -3.650001,-1.36 -5.420001,0.4 -1.4,-0.12 -2.69,0.79 -1.78,-1.42 0.63,-1.53 0.97,-3.27 1.47,-4.29 1.04,-2.13 6.690001,-7.22 0.31,-5.09 -1.15,-3.45 -0.24,-6.03 0.72,-9.36 1.32,-0.11 0.38,1.6 1.43,2.51 0.55,0.48 1.87,0.51 2.940001,1.42 0.54,0.45 0.58,1.74 0.68,1.82 0.64,0.47 3.66,-2.21 5.4,-2.09 0.24,0.02 4.39,1.35 4.57,1.52 0.63,0.59 -1.04,2.75 2.25,2.03 -0.59,-5.46 0.7,-2.68 3.59,-3.97 1.9,-0.85 5.33,-6.19 -0.17,-4.49 -2.71,0.83 -3.1,3.66 -5.58,4.13 -1.29,-2.73 1.47,-6.79 1.49,-8.23 0,-0.63 -2.19,-0.84 -2.2,-1.48 0,-0.18 1.55,-1.13 1.39,-2.08 -0.12,-0.66 -1.72,-1.37 -2.03,-2.41 -0.4,-1.37 0.67,-2.93 0.63,-3.08 h 0.72 c 2.16,0.69 10.35,3.12 6.48,-1.43 0.91,0.44 5.53,1.25 5.76,1.44 0.23,0.19 -2.3,3.86 1.23,4.91 3.05,0.91 9.31,-5.02 12.52,-6.65 2.11,-1.07 6.24,-2.59 8.57,-3.31 z"
     id="path161" />
  <path
     class="st67"
     d="m 149.00328,18.703227 c 0.05,1.19 -0.04,2.41 0,3.6 l 2.15,-1.44 h 0.72 c 4.81,0.91 -1.27,4.36 -3.82,5.41 l -4,3.04 c 1.84,0.32 3.01,1.1 3.5,2.35 1.44,0.17 1.38,0.89 0,1.44 1.95,5.13 0.67,8.34 -3.83,9.64 -0.85,3.9 -6.55,11.08 -9.49,6.42 l -4.69,3.26 c -0.25,2.84 -0.97,4.07 -2.16,3.72 -0.47,-0.17 -2.3,-0.61 -2.88,-0.72 -0.71,-0.67 -5.34,-1.66 -5.7,-1.54 -1.02,4.34 -3.66,4.65 -6.63,1.61 -1.52,-1.38 -3.76,0.26 -4.21,1.57 -0.12,0.34 0.14,6.1 0.67,6.68 -0.63,9.32 -13.340001,3.74 -12.670001,0.26 0.05,-0.27 2.77,-3.44 3.92,-2.79 0.730001,-2.51 -2.11,-4.57 -3.21,-1.63 l -1.69,0.15 c -1.36,1.37 -1.48,1.18 -1.44,-0.72 v -0.72 c 1.1,0.21 1.41,-0.06 2.16,-0.72 0.75,-0.66 1.36,-2.47 2.67,-2.81 1.57,-0.4 2.200001,1.37 3.440001,1.4 0.38,0 0.18,-1.07 0.92,-1.44 0.48,-0.24 1.62,0.2 2.19,-0.15 0.54,-0.33 2.37,-7.11 5.19,-3.85 1.18,1.36 -0.09,4.26 2.5,3.25 2.35,-0.92 -0.19,-2.82 -0.37,-4 -0.48,-3.18 5.32,-8.37 4.38,-2.79 -0.38,2.24 -3.99,3.51 -1.11,4.64 1.48,0.58 0.93,-1.57 1.78,-2.51 2.32,-2.54 2.52,0.68 2.99,1.01 0.31,0.22 2.66,-0.6 2.75,-0.71 0.48,-0.65 -1.14,-3.76 -0.68,-4.98 0.74,-0.74 9.18,3.72 11.17,-0.77 0.34,-0.77 -0.32,-1.62 -0.17,-1.98 0.05,-0.13 1.87,-0.48 1.7,-1.94 -0.13,-1.11 -3.43,-3.85 -2.63,-4.68 3.8,0.72 1.82,-4.02 4.65,-5.83 1.62,-1.04 3.44,1.56 3.27,-3.53 -0.69,0.35 -1.26,0.88 -1.8,1.43 -2.22,-1.63 -0.51,-3.23 1.8,-2.86 0.02,0.48 -0.01,0.96 0,1.44 1.94,-0.99 3.4,-2.03 4.9,-2.85 2.39,-1.31 2.69,0.67 3.74,-4.35 z"
     id="path163" />
  <path
     class="st20"
     d="m 105.00328,128.23323 c 0.09,0.07 0.48,1.67 0.8,2.06 -1.37,0.29 -1.94,-0.92 -2.88,-1.8 0.06,-0.66 1.83,-0.45 2.08,-0.26 z"
     id="path165" />
  <path
     class="st59"
     d="m 156.92328,20.863227 c 2.37,1.42 0.69,1.03 0.68,3.25 -0.02,4.33 3.22,1.36 5.28,1.89 3,0.78 1.67,3.15 -0.03,4.66 l 1.28,5.32 c -0.59,0.77 -0.01,2.72 -2.88,2.16 -0.72,2.97 -4.86,1.53 -4.35,-1.65 -2.11,-4.04 -3.87,-5.86 -0.97,-0.16 -0.03,0.5 -3.85,8.06 -4.9,8.21 -1.12,3.34 -4.37,9.04 -7.78,5.85 -4.42,0.69 -2.85,-2.83 -0.07,-4.49 -0.79,-2.32 0.59,-3.99 4.14,-5.01 1.22,-2 1.31,-4.59 0.25,-7.79 0.02,-0.48 -0.04,-0.97 0,-1.44 -3.73,-1.72 0,-6.15 3.14,-6.7 4.93,0.89 5.57,-0.72 1.9,-4.82 1.4,-1.04 2.73,-0.23 4.32,0.72 z"
     id="path167" />
  <path
     class="st19"
     d="m 168.44328,16.523227 -4.31,2.89 -1.44,-5.75 c 1.32,-0.88 6.22,2.21 5.76,2.86 z"
     id="path169" />
  <path
     class="st40"
     d="m 124.52328,55.423227 c -5.89,-1.09 -3.45,1.03 -5.19,2.01 -1.28,0.71 -4.16,-0.81 -4.19,2.31 -2.4,-1.07 -2.46,-4.91 -5.74,-4.32 0.11,2.08 2.2,2.7 2.74,4.85 0.78,3.07 -1.44,1.89 -1.38,3.41 0.06,1.74 1.47,2.39 1.52,3.97 -5.39,1.69 -9.06,2.7 -14.400001,0.73 -5.59,-2.07 -9.31,-6.09 -0.73,-5.76 0.38,-1.53 -0.74,-1.51 -1.43,-2.16 -1,0.79 -1.46,0.4 -0.72,-0.72 l 1.44,-2.87 c 3.620001,-0.97 6.260001,2.17 4.350001,5.36 -0.11,0.19 -3.180001,0.42 -3.620001,2.19 1.62,1.56 5.120001,4.5 7.420001,4.01 0.27,-0.06 2.66,-3.48 2.68,-4 0.1,-2.55 -2.79,-0.94 -2.91,-1.08 -1.69,-2.08 2.15,-2.33 2.58,-2.85 0.61,-0.74 -0.68,-2.46 -0.33,-3.84 0.74,-2.99 7.52,-2.7 8.91,0.19 2.04,-1.16 1.34,-3.54 2.88,-5.01 1.93,1.6 4.4,1.03 6.12,3.59 z"
     id="path171" />
  <path
     class="st8"
     d="m 93.563279,59.023227 c 0.41,0.13 1.05,0.48 1.44,0.72 0.23,0.14 0.48,0.5 0.72,0.72 -7.53,6.61 -10.12,-3.86 -2.16,-1.44 z"
     id="path173" />
  <path
     class="st4"
     d="m 131.72328,91.423227 c 0.17,0.18 1.38,4.47 1.41,4.71 0.02,0.15 -1.95,0.77 -1.76,2.49 -1.83,-0.8 -1.58,-9.26 0.35,-7.2 z"
     id="path175" />
  <path
     class="st18"
     d="m 139.64328,102.22323 c -0.86,0.88 -2.07,0.36 -2.58,2.1 -0.7,2.39 0.3,3.28 0.42,5.1 l -2.88,-1.81 c -0.24,-1.51 1.07,-0.6 1.53,-2.14 0.39,-1.3 0.15,-2.68 -0.09,-3.97 z"
     id="path177" />
  <path
     class="st65"
     d="m 152.60328,20.143227 c 3.1,-0.26 4.72,4.13 3.24,5.78 -1.1,1.23 -4.95,-0.56 -7.26,1.36 -1.47,1.22 -0.88,2.81 -1.02,4.38 -1.83,0.23 -4.56,-1.41 -5.4,-1.47 -0.7,-0.04 0.29,1.85 -1.44,1.47 -0.61,-0.14 -0.52,-1.46 -0.37,-1.8 0.31,-0.67 11.88,-7.13 12.13,-8.01 0.12,-0.42 -0.62,-0.92 -0.61,-0.99 0.15,-0.72 0.52,-0.57 0.72,-0.72 z"
     id="path179" />
  <path
     class="st56"
     d="m 143.24328,50.383227 c 1.89,-0.7 6.94,-0.95 6.12,-4.32 -1.08,1.08 -3.1,2.85 -4.67,1.81 0.9,-1.77 1.02,-5.26 3.94,-4.73 0.47,0.09 0.06,2.23 1.8,1.47 1.6,-2.21 1.74,-4.24 2.56,-6.45 0.25,-0.68 1.57,-1.26 1.61,-1.81 0.05,-0.71 -2.94,-3.39 -1.22,-4.63 2.12,-1.53 3.97,2.41 4.79,4.11 0.32,0.66 0,2.05 0.21,2.28 0.34,0.36 2.41,-0.22 2.84,0.03 0.3,0.17 1.05,2.98 0.01,3.96 -0.39,0.37 -4.34,2.32 -4.87,2.41 -1.53,0.23 -2.45,-0.57 -3.48,-0.57 -2.12,0 -1.96,2.93 -2.87,4.23 -1.61,2.31 -3.24,0.04 -1.03,5.09 -4.91,-1.8 -2.55,5.47 -2.87,5.75 -0.17,0.15 -2.93,0.32 -4.28,1.17 -1.25,0.79 -3.64,4.07 -4.73,5.31 l -0.36,-3.59 -3.6,0.72 v -0.72 c -0.3,-0.62 -0.03,-0.84 0.72,-0.72 -0.44,-3.28 2.63,-3.32 5.04,-2.16 0.22,-0.8 0.46,-1.59 1.22,-1.43 -4.16,-3.9 -2.16,-9.31 3.1,-7.21 z"
     id="path181" />
  <path
     class="st65"
     d="m 147.56328,33.103227 c 1.46,1.57 1.87,4.72 1.29,6.69 -0.72,2.44 -3.86,2.42 -4.6,3.37 -0.6,0.76 0.61,2.22 0.36,3.16 -0.37,1.39 -5.22,2.1 -1.37,4.07 -1.43,0.53 -2.83,1.38 -4.33,1.81 0,0.59 1.41,3.62 1.8,3.96 1.15,1.02 4.02,0.21 3.25,1.78 -0.77,1.57 -3.58,0.98 -5.03,1.09 -1.42,-0.82 -2.33,-0.74 -2.73,0.24 -1.06,-2.05 -2.61,0.12 -2.31,1.92 -0.22,0.25 -0.48,0.48 -0.72,0.72 -0.38,0.39 -1.63,1.18 -2.16,1.44 l -0.72,-2.88 -2.88,0.71 3.6,-3.58 c -1.45,0.14 -2.59,-1.09 -3.6,-1.45 1.19,-0.8 -0.29,-2.15 0.32,-3.57 1.35,-3.11 7.47,-3.35 5.43,-6.5 3.02,-0.33 1.74,0.18 2.2,1.74 0.86,2.91 2.55,2.74 1.75,-0.29 0.26,1.23 3.64,-0.7 3.79,-0.87 0.44,-0.53 0.08,-2.08 1.2,-3.52 1.33,-1.72 4.99,-2.32 5.87,-3.52 0.52,-0.72 -0.77,-1.07 -0.77,-1.77 0,-1.4 0.29,-3.15 0.37,-4.72 z"
     id="path183" />
  <path
     class="st6"
     d="m 120.68328,102.69323 c -6.55,6.75 -17.3,2.04 -15.55,-8.720003 1.23,-7.57 8.95,-5.15 13.6,-2.17 3.99,2.55 5.49,7.23 1.95,10.880003 z"
     id="path185" />
  <path
     class="st47"
     d="m 138.92328,59.023227 c -0.58,0.05 -2.03,-0.12 -2.16,0 -1.62,1.55 2.38,1.21 1.07,2.16 -4.17,1.17 -1.56,-2.06 -1.8,-2.16 -1.82,-0.74 -1.19,1.08 -2.16,2.15 -2.28,-2.86 3.38,-4.68 5.04,-2.16 z"
     id="path187" />
  <path
     class="st51"
     d="m 133.74328,51.303227 c 0.58,0.76 -0.69,2.47 1.59,1.96 l 1.44,-2.16 c 1.61,2.22 -3.81,8.09 -5.03,7.19 -1.08,-2.91 -2.12,-4.79 -0.72,-7.92 0.33,-0.23 2.41,0.52 2.72,0.93 z"
     id="path189" />
  <path
     class="st21"
     d="m 110.64328,93.713227 c 6.96,-2.06 12.85,6.410003 3.43,7.080003 -7.25,0.51 -6.48,-6.180003 -3.43,-7.080003 z"
     id="path191" />
</svg>
