<?xml version="1.0" encoding="UTF-8" standalone="no"?>
<svg
   version="1.1"
   width="43.714378"
   height="79.57309"
   id="svg6"
   sodipodi:docname="p-block.svg"
   xmlns:inkscape="http://www.inkscape.org/namespaces/inkscape"
   xmlns:sodipodi="http://sodipodi.sourceforge.net/DTD/sodipodi-0.dtd"
   xmlns="http://www.w3.org/2000/svg"
   xmlns:svg="http://www.w3.org/2000/svg">
  <defs
     id="defs10" />
  <sodipodi:namedview
     id="namedview8"
     pagecolor="#ffffff"
     bordercolor="#000000"
     borderopacity="0.25"
     inkscape:showpageshadow="2"
     inkscape:pageopacity="0.0"
     inkscape:pagecheckerboard="0"
     inkscape:deskcolor="#d1d1d1" />
  <!-- Exported by Scratch - http://scratch.mit.edu/ -->
  <g
     id="ID0.33697850117459893"
     transform="translate(-0.28511038,-0.33978081)">
    <path
       id="ID0.39866629615426064"
       d="m 289.5,349.75 c 7.963,-1.849 13.737,-1.623 17.5,-0.75 11.14,3.202 22.789,6.544 25,19 0,2.667 0,5.333 0,8 -6.482,11.184 -12.056,23.278 -27,26 2.457,8.877 2.591,20.076 5,29 -1.742,4.3 -6.489,2.365 -4,9 -5.659,-0.326 -9.294,1.373 -13,3 -1.333,0 -2.667,0 -4,0 -4.269,-23.398 -5.079,-50.254 -9,-74 0,-3 0,-6 0,-9 4.118,0.785 6.372,0.34 9,-1 1.947,-2.049 -1.784,-7.163 0.5,-9.25 z M 327,379 c 7.433,-19.66 -15.918,-30.679 -35,-25 -0.663,27.355 0.59,53.25 7,77 0.431,-2.236 4.928,-0.405 7,-1 -2.024,-13.282 -4.155,-26.218 -4,-39 12.498,-0.234 22.048,-4.191 25,-12 z"
       transform="matrix(0.84066111,0,0,0.84066111,-235.1,-292.5)" />
    <path
       id="ID0.3580125533044338"
       fill="#ff9400"
       d="m 302,391 c -0.155,12.782 1.976,25.718 4,39 -2.072,0.595 -6.569,-1.236 -7,1 -6.41,-23.75 -7.663,-49.645 -7,-77 19.082,-5.679 42.433,5.34 35,25 -2.952,7.809 -12.502,11.766 -25,12 z m 0,-8 c 4.079,1.095 12.507,-1.261 17,-3 7.561,-12.167 -1.813,-22.832 -18,-20 0.584,7.917 1.068,17.235 1,23 z"
       transform="matrix(0.84066111,0,0,0.84066111,-235.1,-292.5)" />
    <path
       id="ID0.986502141226083"
       d="m 301,360 c 16.187,-2.832 25.561,7.833 18,20 -4.493,1.739 -12.921,4.095 -17,3 0.068,-5.765 -0.416,-15.083 -1,-23 z m 4,19 c 2.05,1.32 7.658,-0.484 10,-2 -0.264,-5.426 -6.326,-10.31 -11,-8 2.28,1.387 0.373,6.96 1,10 z"
       transform="matrix(0.84066111,0,0,0.84066111,-235.1,-292.5)" />
  </g>
</svg>
