<?xml version="1.0" encoding="UTF-8" standalone="no"?>
<!-- Generator: Adobe Illustrator 18.0.0, SVG Export Plug-In . SVG Version: 6.00 Build 0)  -->

<svg
   version="1.1"
   id="Layer_2"
   x="0px"
   y="0px"
   viewBox="0 0 40.757262 51.912442"
   enable-background="new 0 0 40.7 51.8"
   xml:space="preserve"
   sodipodi:docname="P-story-1.svg"
   width="40.757263"
   height="51.912441"
   xmlns:inkscape="http://www.inkscape.org/namespaces/inkscape"
   xmlns:sodipodi="http://sodipodi.sourceforge.net/DTD/sodipodi-0.dtd"
   xmlns="http://www.w3.org/2000/svg"
   xmlns:svg="http://www.w3.org/2000/svg"><defs
   id="defs23" /><sodipodi:namedview
   id="namedview21"
   pagecolor="#ffffff"
   bordercolor="#000000"
   borderopacity="0.25"
   inkscape:showpageshadow="2"
   inkscape:pageopacity="0.0"
   inkscape:pagecheckerboard="0"
   inkscape:deskcolor="#d1d1d1" />
<g
   id="g18"
   transform="translate(-0.01344736,0.01244272)">
	<path
   fill="#53ad4e"
   d="M 40.7,12.3 C 40.5,10 39.6,7.9 38.4,6 37.2,4.2 35.5,2.6 33.5,1.6 31.1,0.4 28.6,-0.1 25.9,0 23,0.2 20,0.2 17.1,0.1 13.2,-0.1 9.4,0 5.5,0.3 5.1,0.3 4.7,0.5 4.4,0.8 3.2,2 2.1,3.4 0.9,4.6 0,5.4 -0.1,6.3 0.1,7.3 0.1,7.5 0.5,7.8 0.7,7.8 1.9,7.9 3,7.8 4.2,7.9 4.8,7.9 5.1,8.2 5,9 4.9,10.1 4.9,11.3 4.9,12.5 5,15 5.1,17.5 5,20 5,23.6 4.8,27.2 4.8,30.7 4.7,34.9 5.3,39 4.7,43.2 c -0.1,0.8 0,1.7 0,2.6 -1.2,1 -2.5,2 -3.8,3 -0.4,0.3 -0.4,2.3 0,2.7 0.1,0.1 0.3,0.2 0.4,0.2 1.5,0.1 2.9,0.2 4.4,0.2 2.6,0 5.3,-0.1 7.9,-0.2 1.8,-0.1 3.8,0.2 4.7,-2 0,0 0.1,-0.1 0.1,-0.1 0.8,-0.9 1.7,-1.8 1.6,-3.1 0,-0.6 -0.1,-0.9 -0.8,-1 -0.5,-0.1 -1,-0.2 -1.5,-0.3 -0.8,-0.2 -1.1,-0.6 -1.1,-1.4 -0.1,-2.4 -0.3,-4.9 -0.4,-7.3 -0.1,-1.9 -0.3,-3.7 -0.4,-5.6 0.9,0 1.7,0 2.6,0 2.1,0 4.3,0.1 6.4,0 1.5,-0.1 3.1,-0.4 4.6,-0.8 1.1,-0.3 2.3,-0.7 3.2,-1.4 1,-0.7 1.8,-1.8 2.7,-2.8 0.9,-1.1 1.7,-2.2 2.4,-3.3 0.9,-1.5 1.8,-3 2.5,-4.6 0.7,-1.9 0.6,-3.8 0.5,-5.7 z M 0.6,6.8 C 0.7,6.5 0.6,6 0.8,5.8 2.1,4.2 3.4,2.7 4.9,1.2 4.8,1.7 4.9,2.2 4.7,2.6 3.5,4.1 2.2,5.5 0.9,6.9 0.8,6.9 0.7,6.8 0.6,6.8 Z m 3.6,0.3 c -0.4,0 -0.8,0 -1.2,0 H 1.8 C 2.4,6.3 3.1,5.6 3.7,4.9 4.1,4.3 4.5,3.7 5,3.2 5.2,3 5.5,2.7 5.8,2.7 6.6,2.7 7.4,2.7 8.1,3 8.6,3.2 9,3.9 9.1,4.4 9.2,5.9 9,7.4 9,8.8 c 0,1 0,2 0.1,3.1 0.2,3 0.6,6 0.6,9.1 0,3.4 -0.4,6.8 -0.6,10.2 0,0.4 -0.1,0.8 0,1.2 0.1,3.3 0.2,6.6 0.3,9.9 0,0.3 0,0.6 0,1 0,1.8 -0.4,2.2 -2.2,2.2 h -2 c 0.1,-0.9 0.3,-1.9 0.3,-2.9 0.1,-2 0.1,-4 0.1,-6 0,-3.3 -0.1,-6.5 0,-9.8 0.1,-4 0.3,-8 0.3,-12 0,-1.3 -0.2,-2.7 -0.3,-4 C 5.6,10.2 5.7,9.7 5.8,9.1 5.9,8 5.3,7.2 4.2,7.1 Z M 1.9,48.9 c 1.2,-0.8 2.2,-1.8 3.5,-2.8 0.1,1 0.1,1.6 -0.5,2.3 -1,1.1 -2.1,1.8 -3.4,2.4 -0.4,-0.7 -0.4,-1.3 0.4,-1.9 z m 16.6,-1 c 0,0.1 0,0.2 0.1,0.3 -0.6,0.8 -1.2,1.6 -1.8,2.4 -0.1,0.1 -0.4,0.2 -0.6,0.2 -1.7,0.1 -3.4,0.2 -5,0.2 -2.7,0 -5.4,0 -8.1,0 1.1,-1 2.1,-2 3.1,-3 0.1,-0.1 0.4,-0.2 0.5,-0.2 4,0.1 7.9,0.1 11.8,0.1 z M 16.7,27.3 c 0.8,-0.5 1.5,-1.1 2.3,-1.6 0.1,0 0.2,0.1 0.2,0.1 -0.1,0.3 0,0.7 -0.2,0.9 -1,0.9 -2,1.8 -3.1,2.8 -0.3,-1 -0.1,-1.7 0.8,-2.2 z M 15.9,27 c 0.2,-6.9 0.4,-13.6 0.5,-20.4 3.2,0.3 6.7,0 9.9,1.2 1.7,0.7 3.2,1.7 3.8,3.5 0.4,1.3 0.6,2.6 0.6,4 0,1.6 -0.1,3.2 -0.3,4.8 -0.1,1 -0.7,1.9 -1.5,2.6 -2.1,2.1 -4.8,2.1 -7.4,2.4 -1.9,0.2 -3.9,0.2 -5.6,1.9 z m 18.4,-1.3 c -1.6,2 -3.5,3.3 -6.1,3.8 -3.5,0.7 -7,0.6 -10.4,0.6 -0.4,0 -0.9,-0.1 -1.3,-0.2 0.8,-0.7 1.5,-1.5 2.4,-2 0.4,-0.3 1.1,-0.4 1.7,-0.4 3.4,0.3 6.8,0.3 10.2,-0.7 1.4,-0.4 2.8,-0.5 3.9,-1.6 -0.2,0.2 -0.3,0.4 -0.4,0.5 z m -0.9,-6.1 c -0.8,1.5 -2.1,2.6 -3.6,3.4 2,-3.7 1.7,-7.6 1.1,-11.4 C 30.7,10.1 29.6,8.8 28.2,8 26,6.7 23.7,6.3 21.2,6.2 c -1.6,-0.1 -3.3,0 -5,0 C 16.3,5.6 16.3,5 16.5,4.6 16.6,4.3 17,3.9 17.4,3.8 20.5,3 23.7,2.7 26.8,3.5 c 3.4,0.9 6.3,3 7.4,6.7 1,3.1 0.9,6.4 -0.8,9.4 z"
   id="path2" />
	<path
   fill="#ffffff"
   d="M 4.9,1.2 C 4.8,1.7 4.9,2.2 4.7,2.6 3.5,4.1 2.2,5.5 0.9,6.9 0.8,6.9 0.7,6.8 0.6,6.8 0.7,6.5 0.6,6 0.8,5.8 2.1,4.2 3.5,2.7 4.9,1.2 Z"
   id="path4" />
	<path
   fill="#ffffff"
   d="m 33.4,19.6 c -0.8,1.5 -2.1,2.6 -3.6,3.4 2,-3.7 1.7,-7.6 1.1,-11.4 C 30.7,10.1 29.6,8.8 28.2,8 26,6.7 23.7,6.3 21.2,6.2 c -1.6,-0.1 -3.3,0 -5,0 C 16.3,5.6 16.3,5 16.5,4.6 16.6,4.3 17,3.9 17.4,3.8 20.5,3 23.7,2.7 26.8,3.5 c 3.4,0.9 6.3,3 7.4,6.7 1,3.1 0.9,6.4 -0.8,9.4 z"
   id="path6" />
	<path
   fill="#ffffff"
   d="m 34.5,25.2 c -0.1,0.2 -0.1,0.3 -0.2,0.5 -1.6,2 -3.5,3.3 -6.1,3.8 -3.5,0.7 -7,0.6 -10.4,0.6 -0.4,0 -0.9,-0.1 -1.3,-0.2 0.8,-0.7 1.5,-1.5 2.4,-2 0.4,-0.3 1.1,-0.4 1.7,-0.4 3.4,0.3 6.8,0.3 10.2,-0.7 1.2,-0.3 2.6,-0.5 3.7,-1.6 z"
   id="path8" />
	<path
   fill="#ffffff"
   d="m 19.2,25.8 c -0.1,0.3 0,0.7 -0.2,0.9 -1,0.9 -2,1.8 -3.1,2.8 -0.3,-1 -0.1,-1.7 0.7,-2.2 0.8,-0.5 1.5,-1.1 2.3,-1.6 0.1,0 0.2,0.1 0.3,0.1 z"
   id="path10" />
	<path
   fill="#ffffff"
   d="M 4.8,48.4 C 3.8,49.5 2.7,50.2 1.4,50.8 1.2,50 1.1,49.4 1.9,48.8 3.1,48 4.1,47 5.4,46 c 0.1,1.1 0,1.7 -0.6,2.4 z"
   id="path12" />
	<path
   fill="#ffffff"
   d="m 18.6,48.2 c -0.6,0.8 -1.2,1.6 -1.8,2.4 -0.1,0.1 -0.4,0.2 -0.6,0.2 -1.7,0.1 -3.4,0.2 -5,0.2 -2.7,0 -5.4,0 -8.1,0 1.1,-1 2.1,-2 3.1,-3 0.1,-0.1 0.4,-0.2 0.5,-0.2 3.9,0 7.9,0 11.8,0 0.1,0.2 0.1,0.3 0.1,0.4 z"
   id="path14" />
	<path
   fill="#ffffff"
   d="m 9.3,42.2 c 0,0.3 0,0.6 0,1 0,1.8 -0.4,2.2 -2.2,2.2 h -2 c 0.1,-0.9 0.3,-1.9 0.3,-2.9 0.1,-2 0.1,-4 0.1,-6 0,-3.3 -0.1,-6.5 0,-9.8 0.1,-4 0.3,-8 0.3,-12 C 5.8,13.4 5.6,12 5.5,10.7 5.5,10.1 5.6,9.6 5.7,9 5.9,8 5.3,7.2 4.2,7.1 3.8,7.1 3.4,7.1 3,7.1 H 1.8 C 2.4,6.3 3.1,5.6 3.7,4.9 4.1,4.3 4.5,3.7 5,3.2 5.2,3 5.5,2.7 5.8,2.7 6.6,2.7 7.4,2.7 8.1,3 8.6,3.2 9,3.9 9.1,4.4 9.2,5.9 9,7.4 9,8.8 c 0,1 0,2 0.1,3.1 0.2,3 0.6,6 0.6,9.1 0,3.4 -0.4,6.8 -0.6,10.2 0,0.4 -0.1,0.8 0,1.2 0,3.2 0.1,6.5 0.2,9.8 z"
   id="path16" />
</g>
</svg>
