<?xml version="1.0" encoding="UTF-8" standalone="no"?>
<svg
   id="Layer_1"
   version="1.1"
   viewBox="0 0 234.86407 213.15103"
   sodipodi:docname="Parrot1.svg"
   width="234.86407"
   height="213.15103"
   xmlns:inkscape="http://www.inkscape.org/namespaces/inkscape"
   xmlns:sodipodi="http://sodipodi.sourceforge.net/DTD/sodipodi-0.dtd"
   xmlns="http://www.w3.org/2000/svg"
   xmlns:svg="http://www.w3.org/2000/svg">
  <sodipodi:namedview
     id="namedview101"
     pagecolor="#ffffff"
     bordercolor="#000000"
     borderopacity="0.25"
     inkscape:showpageshadow="2"
     inkscape:pageopacity="0.0"
     inkscape:pagecheckerboard="0"
     inkscape:deskcolor="#d1d1d1" />
  <!-- Generator: Adobe Illustrator 29.8.3, SVG Export Plug-In . SVG Version: 2.1.1 Build 3)  -->
  <defs
     id="defs4">
    <style
       id="style2">
      .st0 {
        fill: #fcfcfc;
      }

      .st1 {
        fill: #4d4d4d;
      }

      .st2 {
        fill: #004cde;
      }

      .st3 {
        fill: #fee000;
      }

      .st4 {
        fill: #2d2d2d;
      }

      .st5 {
        fill: #fff;
      }

      .st6 {
        fill: #0049d7;
      }

      .st7 {
        fill: #004cdd;
      }

      .st8 {
        fill: #0054f7;
      }

      .st9 {
        fill: #4c4c4c;
      }

      .st10 {
        fill: #060607;
      }

      .st11 {
        fill: #a8a93d;
      }

      .st12 {
        fill: #003395;
      }

      .st13 {
        fill: #0056fb;
      }

      .st14 {
        fill: #003bac;
      }

      .st15 {
        fill: #2b2b2b;
      }

      .st16 {
        fill: #0050ea;
      }

      .st17 {
        fill: #0053f3;
      }

      .st18 {
        fill: #0046cd;
      }

      .st19 {
        fill: #dadada;
      }

      .st20 {
        fill: #f8f8f8;
      }

      .st21 {
        fill: #242424;
      }

      .st22 {
        fill: #0048d1;
      }

      .st23 {
        fill: #0045c9;
      }

      .st24 {
        fill: #0056fd;
      }

      .st25 {
        fill: #0057fe;
      }

      .st26 {
        fill: #fdfdfd;
      }

      .st27 {
        fill: #004ad9;
      }

      .st28 {
        fill: #0046cb;
      }
    </style>
  </defs>
  <g
     id="g10"
     transform="translate(-20.986717,-18.28)">
    <path
       class="st14"
       d="m 95.11,136.71 c 0.74,-0.83 1.92,-1.15 3.53,-0.94 -11.34,-32.09 1.37,-55.32 28.99,-73.9 3.21,-2.16 19.42,-12.4 21.66,-11.68 3.72,1.18 -4.16,10.21 -5.66,11.92 l -11.58,11.45 c -4.05,6.46 -1.01,6.82 9.11,1.09 11.03,-4.71 13.95,0.22 3.59,7.1 -21.65,12.61 -12.71,14.33 4,6.29 11.08,-2.18 3.72,7.51 -1.19,10.56 l -10.29,7.4 c -4.54,4.02 -1.34,5.17 9.6,3.45 1.81,-0.3 6.55,0.17 6.13,2.62 -0.74,4.35 -15.57,9.49 -20.21,10.92 -3.27,1.04 -2.71,3.72 0.41,4.35 4.85,-1.02 11.49,0 5.54,5.24 -5.69,2.28 -10.15,5.58 -13.38,9.89 -3.35,0.12 -7.54,1.85 -11.17,2.15 -6.1,0.5 -19.15,0.64 -19.07,-7.91 z"
       id="path6" />
    <path
       d="m 89.35,107.91 c 1.47,-22.18 17.12,-38.86 34.76,-50.56 4.51,-2.99 20.29,-12.87 24.7,-13.45 16.75,-2.21 3.01,18.53 -2.58,23.34 -0.03,0.65 0.94,0.32 1.44,0.36 1.86,-0.57 3.78,-0.57 5.76,0 4.55,1.35 6.48,3.85 4.32,8.64 0.35,0.18 0.62,0.36 0.62,0.54 -0.01,1.46 -4.24,4.93 -5.66,5.94 1.25,-0.02 1.97,0.22 2.16,0.72 1.04,0.27 3.67,1.42 4.32,2.16 0.57,1.61 0.57,3.29 0,5.04 -2.2,6.34 -9.39,10.08 -10.79,13.33 -0.56,1.29 0.52,0.94 1.04,1.09 2.95,0.89 10.01,0.75 9.76,5.31 -0.15,2.76 -4.73,7.27 -6.83,9.09 -1.49,1.28 -6.62,3.99 -6.86,4.32 -0.27,0.36 3.01,3.76 0.3,8.57 -2.2,3.9 -12.16,10.34 -16.59,10.83 -1.88,0.2 -3.26,-0.71 -3.87,-0.69 -2.37,-6.36 14.25,-9.58 14.39,-13.32 0.05,-1.5 -5.33,-0.18 -6.77,-0.4 -3.14,-0.48 -5.31,-3.59 -2.61,-6.12 1.33,-1.24 10.16,-3.55 13.02,-4.98 3.14,-1.57 5.89,-3.61 8.62,-5.78 -3.37,-3.49 -21.55,3.9 -17.62,-4.67 1.99,-4.34 17.65,-10.67 19.07,-18 -5.6,-1.22 -14.46,5.34 -19.2,5.57 -4.26,0.21 -4.91,-4.06 -1.31,-7.02 5.44,-4.46 13.56,-7.2 17.64,-13.68 -2.62,-0.14 -5.13,0.63 -7.58,1.41 -2.98,0.95 -8.22,4.48 -10.32,4.69 -3.77,0.39 -4.77,-2.75 -3.01,-5.79 2.1,-3.64 11.62,-11.17 15.14,-15.81 0.72,-0.96 4.97,-6.86 4.33,-7.55 -19.77,10.76 -43.7,23.9 -50.6,46.96 -1.93,6.45 -3.26,14.29 -2.59,20.99 0.35,3.53 4.55,15.59 4.15,17.31 -0.45,1.89 -3.7,0.9 -4.95,0.42 -0.86,-0.33 -1.37,-0.03 -2.03,-1.18 -1.9,-3.28 -3.17,-10.81 -3.73,-14.66 l -0.72,-3.6 c -0.12,-1.62 -0.02,-3.4 0,-5.04 l 0.72,-4.32 z"
       id="path8" />
  </g>
  <path
     class="st0"
     d="M 41.973283,4.32 V 0 c 1.08,2.76 0.72,1.85 0,4.32 z"
     id="path12" />
  <g
     id="g62"
     transform="translate(-20.986717,-18.28)">
    <path
       d="m 186.08,137.08 c 12.14,-3.26 20.89,-9.43 35.01,-10.71 19.56,-1.77 18.87,10.07 2.44,15.04 -0.15,1.26 2.03,0.68 2.87,0.71 2.1,-0.6 4.39,-0.7 6.48,0 6.17,0.46 23.72,3.78 16.61,12.65 l -13,5.35 c 4.15,0.38 18.67,4.9 19.32,9.17 0.97,6.35 -15.64,8.13 -20.05,8.12 2.42,2.43 9.92,5.6 5.79,9.74 -3.8,3.81 -22.61,1.25 -28.1,-0.03 -4.74,-1.11 -20.81,-7.81 -24.01,-6.73 -1.26,0.43 -8.86,14.34 -10.56,16.45 10.17,-1.15 16.13,15.78 5.95,17.88 -6.51,1.35 -5.89,-8.35 -10.99,-1.67 12.28,2.86 6.09,14.14 -3.03,16.45 -1.65,0.42 -8.22,1.74 -9.66,1.88 -5.79,0.58 -7.08,-3.97 -8.65,-4.24 -1.19,-0.21 -2.81,2.68 -4.54,3.23 -4.18,1.31 -5.35,-0.63 -8.36,-1.08 -3.27,-0.48 -5.56,0.9 -8.61,-1.47 -3.4,-2.64 -2.44,-6.29 -2.51,-10.09 -15.32,3.73 -29.1,1.25 -41.38,-8.66 -3.24,-2.62 -14.74,-14.83 -17.45,-15.67 -0.63,-0.19 -5.69,-0.93 -6.36,-0.91 -2.73,0.06 -7.82,6.8 -9.56,9.16 -3.19,4.33 -6.02,11.81 -8.76,15 -5.9,6.88 -17.52,-8.76 -19.96,-13.9 -6.91,-14.52 -5.13,-28.6 6.98,-39.4 6.6,-5.88 13.46,-8.45 22.33,-6.84 -3.82,-11.56 5.31,-30.23 18.91,-27.9 2.05,0.35 3.85,1.98 5.91,2.01 2.24,0.03 4.63,-1.54 7.19,-1.48 5.33,0.12 9.07,1.8 14.07,5.78 l 1.39,2.28 c 0.91,-0.02 5.46,-1.03 6.65,-1.17 0,0 21.12,-1.77 28.43,-1.57 10.85,0.31 43.45,2.62 44.89,2.62 1.33,0.53 2.77,0.53 4.32,0 z"
       id="path14" />
    <g
       id="g60">
      <path
         class="st0"
         d="m 232.88,142.12 c -2.13,-0.16 -4.34,0.07 -6.48,0 1.34,-1.21 5.14,-1.21 6.48,0 z"
         id="path16" />
      <path
         class="st25"
         d="m 214.88,138.52 c -3.54,1.26 -12.16,8.01 -5.76,10.8 -0.29,2.42 0.26,4.54 1.63,6.36 l -0.91,1.56 c 0.04,0.64 -1.33,3.01 -0.72,4.32 -0.44,0.74 -1.04,1.24 -1.8,1.51 1.15,5.3 -2.27,6.47 -10.27,3.53 -4.75,-0.51 -6.63,0.33 -10.19,3.6 l -1.5,-0.72 -0.75,2.13 c -3.82,2.41 -7,4.56 -9.72,8.21 -2.89,7.24 -12.73,13.52 -20.27,14.89 -1.73,3.37 -4.08,4.88 -7.04,4.55 -1.12,1.24 -2.21,1.88 -3.27,1.9 l -0.78,1.62 c -2.75,-0.32 -4.65,0.59 -5.7,2.7 -1.2,2.02 -7.97,1.63 -10.46,1.2 -3.43,-0.59 -7.64,-2.9 -6.16,-6.79 -0.98,-5.25 0.24,-9.47 3.66,-12.66 -0.95,-4.37 -1.26,-8.73 -0.94,-13.07 -1.9,-2.29 -3.69,-4.63 -5.38,-7.03 2.45,-5.92 1.41,-8.78 -3.12,-8.56 -4.01,-1.79 -8.1,-2.76 -12.28,-2.91 l -1.31,-1.3 c 0.83,-3.52 0.59,-7.98 0,-11.52 11.54,-1.93 23.18,-3.65 34.95,-2.91 15.52,0.97 41.15,6.64 55.61,3.11 7.17,-1.75 14.14,-5.04 21.04,-7.4 2.89,-0.61 3.74,1.03 1.44,2.88 z"
         id="path18" />
      <path
         class="st3"
         d="m 101.84,154.36 c 5.11,-0.77 8.96,1.16 13.5,2.7 1.84,0.62 3.17,-0.51 4.85,1.63 3.01,3.83 -0.69,6.54 -0.28,8.12 0.31,1.21 4.8,4.94 5.41,6.96 0.61,2.02 -0.5,3.38 -0.4,5.32 0.16,3.15 2.91,6.58 0.61,10.11 -0.66,1.01 -2.32,1.28 -2.69,2.35 -0.95,2.7 0.65,8.45 -0.83,11.76 1.87,-0.51 3.57,1.7 4.66,1.84 2.9,0.39 7.89,0.07 11.18,0.33 3.93,0.75 5.13,1.95 3.6,3.6 -9.5,1.47 -22.84,4.51 -32.03,3.59 -6.13,-0.61 -10,-3.43 -14.77,-6.47 -0.11,-0.7 0.1,-1.25 0.69,-1.63 6.24,-1 7.61,-1.53 10.01,-7.32 1.14,-2.76 5.18,-14.95 4.13,-17.22 -2.44,-2.9 -4.15,-6.04 -5.15,-9.41 -3.53,-1.88 -8.45,-4.58 -6.08,-9.06 1.12,-1.32 3.2,-5.48 3.6,-7.2 z"
         id="path20" />
      <path
         class="st1"
         d="m 37.76,208.36 c -18.11,-16.06 -9.5,-47.56 15.39,-45.27 1.31,0.12 10.83,1.68 11.22,2.1 0.31,0.33 -0.11,2.13 0.03,2.85 3.49,0.9 4,-3.25 7.2,-2.88 l -0.72,3.59 c 3.11,0.55 3.08,-1.97 2.88,-4.31 1,-0.24 1.42,0.32 2.16,0.72 4.6,6.17 -2.22,9.17 -7.25,11.37 -11.81,7.62 -23.24,17.38 -28.92,30.59 l -2,1.24 z"
         id="path22" />
      <path
         class="st25"
         d="m 94.64,206.2 c -4.63,-2.95 -9.07,-6.05 -12.96,-10.07 5.54,0.84 12.4,1.31 14.56,-5.24 3.83,-11.6 -11.06,-12.66 -10.97,-22.84 4.2,0 10.33,-3.37 12.96,-6.48 1.06,1.05 0.57,2.55 1.4,4 1.22,2.14 4.82,2.85 5.84,4.23 0.83,1.12 0.63,2.71 1.25,3.79 1.12,1.91 4.3,5.18 4.36,7.02 0.15,4.06 -4.31,18.72 -6.76,21.99 -1.79,2.39 -6.85,2.92 -9.7,3.62 z"
         id="path24" />
      <path
         class="st27"
         d="m 185.36,173.8 c -3.37,2.17 -9.12,14.05 -12.36,18.24 -6.07,7.83 -14.47,14.19 -24.36,16.32 -2.93,-0.2 -4.61,-1.16 -5.04,-2.88 -1.99,-0.91 -1.43,-3.92 0.72,-4.32 1.8,-5.28 5.98,-2.75 7.1,-3.71 0.23,-0.2 0.2,-1.7 0.78,-2.42 2.68,-3.34 5.06,-1.75 7.8,-3.03 0.69,-0.32 11.54,-8.28 11.99,-8.89 0.81,-1.1 1.01,-3.1 1.97,-4.51 2.65,-3.9 7.54,-6.56 11.4,-9.12 2.36,-0.03 1.79,3.35 0,4.32 z"
         id="path26" />
      <path
         class="st28"
         d="m 209.12,161.56 c 0.49,0.1 1.33,1.14 2.58,1.37 10.44,1.88 21.25,1.91 31.26,5.84 -0.28,1.45 -1.52,1.17 -2.52,1.43 -2.3,0.58 -8.55,1.46 -10.83,1.47 -3.86,0.02 -18.78,-3.6 -20.49,-2.56 -1.88,1.14 -1.62,4.31 0.03,5.75 1.89,1.65 12.02,4.37 15.09,5.42 0.66,0.69 0.18,0.93 -1.44,0.72 -10,-1.29 -16.05,-4.3 -25.21,-6.83 -4.11,-1.14 -8.39,-2.84 -12.23,-0.37 v -4.32 c 5.11,-3.38 4.36,-5.02 11.88,-4.31 1.83,0.17 7.96,2.26 9,1.42 0.29,-0.23 -2.36,-6.08 2.88,-5.03 z"
         id="path28" />
      <path
         class="st4"
         d="m 75.92,165.16 c 4.66,2.48 3.04,9.2 5.43,12.93 1.58,2.46 12.16,6.61 8.65,11.6 -1.7,2.41 -16.39,-2.83 -19.84,-1.49 -0.77,-1.88 2.99,-1.96 3.85,-1.9 3.11,0.23 8.82,4.5 10.26,-0.24 0.71,-2.33 -0.99,-3.39 -2.81,-4.48 -14.55,-8.78 -30.72,11.7 -37.53,22.53 -0.82,1.31 -2.55,5.61 -3.28,6.09 -1.65,1.08 -2.15,-1.15 -2.9,-1.82 4.57,-13.42 17.86,-25.19 29.58,-32.7 4.95,-3.17 10.1,-2.68 8.58,-10.5 z"
         id="path30" />
      <path
         class="st9"
         d="m 183.21,209.8 c -3.1,-12.69 -19.32,2.61 -15.85,8.81 1.51,2.7 7.28,-0.04 7.92,0.55 -0.32,4.62 -8.01,7.22 -10.38,2.82 -1.2,-2.23 -0.05,-5.69 -3.54,-5.48 -3.75,0.23 -1.61,6.78 -0.48,9.12 -5.79,0.07 -5.04,-8.88 -2.5,-12.22 0.46,-0.6 11.15,-7.39 12.66,-8.22 0.76,-0.42 6.55,-3.13 6.93,-3.18 3.97,-0.53 10.41,4.61 5.24,7.78 z"
         id="path32" />
      <path
         class="st22"
         d="m 209.12,149.32 c 1.29,0.56 11.62,0.06 14.07,0.03 2.57,-0.03 4.9,-0.89 7.92,-0.78 3.02,0.11 6.49,1.43 9.69,1.47 -0.2,1.21 -1.4,1.29 -2.32,1.64 -9.29,3.55 -19.53,2.44 -28.64,5.56 -0.09,-1.48 -4.34,-4.29 -0.72,-7.92 z"
         id="path34" />
      <path
         class="st15"
         d="m 144.32,216.29 c -4.42,7.08 2.71,6.03 3.6,7.2 0.98,1.29 -2.38,4.06 -5.45,2.2 -3.23,-1.96 -2,-8.36 -6.79,-7.25 l 0.71,6.48 c -3.6,0.02 -4.43,-6.08 -2.18,-7.58 1.25,-0.84 7.92,-0.18 10.11,-1.04 z"
         id="path36" />
      <path
         class="st20"
         d="m 69.43,144.28 c -3.32,-1.87 -3.66,-1.22 -6.87,-0.74 -2.76,0.41 1.4,-4.8 2.1,-5.48 1.94,-1.89 10.23,-5.12 8.75,-1.7 -0.83,1.93 -4.47,4.79 -3.98,7.92 z"
         id="path38" />
      <path
         class="st20"
         d="m 70.16,158.67 c -5.94,2.04 -10.7,-2.56 -10.07,-8.63 1.73,3.53 7.33,1.98 7.95,2.46 0.97,0.73 0.65,4.84 2.12,6.18 z"
         id="path40" />
      <path
         class="st11"
         d="m 143.6,205.48 c 1.21,0.2 4.56,1.59 5.04,2.88 -2.28,0.49 -5.02,0.38 -7.2,0.72 -0.31,-1.54 -3.34,-2.75 -3.6,-3.6 0.41,-2.08 5.68,-2.35 5.76,0 z"
         id="path42" />
      <path
         class="st6"
         d="m 213.44,135.64 c 3.49,-1.2 7.03,-2.43 10.8,-2.15 l -9.36,5.03 c 0.12,-1.26 -0.12,-2.51 -1.44,-2.88 z"
         id="path44" />
      <path
         class="st19"
         d="m 67.28,145 c 1.19,1.18 -1.84,4.56 -2.87,1.79 -0.92,-2.48 2.56,-2.1 2.87,-1.79 z"
         id="path46" />
      <path
         class="st21"
         d="m 150.8,219.88 c -1.5,1.73 -3.3,-3.4 0.72,-4.32 -0.34,0.81 -0.57,4.15 -0.72,4.32 z"
         id="path48" />
      <path
         class="st12"
         d="m 224.24,180.28 c 0.95,0.32 1.82,0.83 2.88,0.73 v 0.7 c -1.62,0.74 -3.4,-0.59 -4.32,-0.71 z"
         id="path50" />
      <path
         class="st16"
         d="m 144.32,201.16 c -0.55,1.63 -0.23,2.91 -0.72,4.32 -1.69,-0.28 -3.94,0.14 -5.76,0 -1.47,-4.74 3.88,-3.58 6.48,-4.32 z"
         id="path52" />
      <g
         id="g58">
        <path
           class="st26"
           d="m 85.75,135.85 c 2.44,-0.12 7.21,2.77 8.5,4.86 6.22,10.1 -4.68,27.12 -15.27,18.87 -8.71,-6.79 -2.73,-23.26 6.77,-23.73 z"
           id="path54" />
        <path
           class="st10"
           d="m 81.68,144.28 2.24,-0.17 c 1.83,1.3 1.7,0.13 3.19,4.42 1.49,4.29 -8.26,6.21 -9.04,1.86 -0.49,-2.76 0.26,-6.26 3.61,-6.11 z"
           id="path56" />
      </g>
    </g>
  </g>
  <g
     id="g96"
     transform="translate(-20.986717,-18.28)">
    <path
       d="m 233.87,31.38 c 1.57,-0.67 3.47,-0.71 5.04,0 0.17,0.06 2.02,2.6 2.16,2.88 0.53,1.45 0.35,2.85 0,4.32 -2.67,10.89 -11.69,16.87 -18.72,24.48 1.92,1.1 4.32,1.58 7.2,1.44 4.09,0.97 9.11,2.17 10.8,6.48 0.43,1.44 0.36,2.86 0,4.32 -2.05,7 -8.66,12.34 -14.64,15.96 -1.39,0.85 -7.39,3.19 -7.68,3.49 -1.63,1.67 2.93,1.5 3.62,1.77 4.91,1.91 7.34,4.41 6.41,10.06 -1.37,8.35 -22.62,15.27 -30.19,16.25 15.37,12.36 6.34,20.99 -10.08,21.6 0.37,1.2 1.88,1.26 2.89,2.5 1.93,2.37 2.76,5.35 1.82,8.34 -2.73,8.7 -21.1,5.6 -21.97,6.47 -0.46,0.46 0.69,4.63 -3.42,5.57 -4.91,1.13 -11.74,-2.17 -12.74,-1.92 -1.21,0.31 -1.15,3.57 -5.83,3.57 -5.55,0 -9.88,-3.99 -11.88,-8.7 v -0.72 c -0.78,-5.97 7.25,-1.82 10.16,0.38 2.09,-5.18 6.59,-5.64 13.5,-1.37 -0.64,-6.57 3.28,-8.43 11.78,-5.58 9.44,0.7 17.6,1.14 3.9,-6.48 -3.67,-2.4 -5.27,-9.65 0.26,-8.56 0.17,-1.32 1.27,-2.02 3.3,-2.1 l 12.94,-0.64 c 8.58,-0.59 5.51,-3.27 -9.22,-8.04 -4.01,-1.58 -5.02,-5.85 -1.38,-8.57 2.76,-2.06 20.95,-6.69 25.04,-7.2 0.86,-0.11 1.68,0.27 2.43,0.63 3.47,-2.19 6.83,-4.56 10.06,-7.11 l -0.7,-1.53 c -1.78,1.26 -2.74,1.02 -2.88,-0.72 -0.06,0.35 -0.15,0.67 -0.33,0.94 -0.42,0.6 -12.68,0 -14.5,-0.25 l -1.01,-1.4 c -4.42,1.61 -5.62,-4.12 -2.83,-6.85 9.48,-4.05 18.72,-8.49 27.73,-13.33 1.94,-2.39 3.96,-3.82 6.07,-4.3 0.13,-1.43 0.63,-2.6 1.51,-3.51 -1.6,-0.39 -2.58,-1.14 -2.95,-2.25 -2.01,0.86 -4.33,1.27 -6.97,1.23 -7.39,1.69 -14.59,4.01 -21.62,6.96 L 199.3,78.9 c -2.72,2.16 -4.88,2.4 -6.48,0.72 -2.86,1.26 -3.87,-4 -1.44,-5.04 -0.86,-2.42 3.93,-5.28 5.76,-3.6 l 1.14,-2.21 c 10.17,-5.58 27.87,-16.21 32.41,-27.2 0.68,-1.64 -28.89,12.82 -31.8,14.3 -1.06,0.28 -2.13,0.27 -3.2,0 l -1.57,2.45 c -29.21,16.18 -48.18,43.9 -60.29,74.16 -1.71,3.69 -9.53,16.32 -13.1,16.43 -0.45,0.01 -0.91,-0.06 -1.36,-0.16 -0.38,-0.1 -0.97,0.04 -1.44,0 -2.41,-0.14 -2.03,-1.68 -1.44,-3.6 1.2,-3.1 4.84,-6.8 6.75,-10.17 5.4,-9.52 8.77,-20.27 14.01,-29.91 8.22,-15.15 21.18,-30.8 34.35,-41.97 14.01,-11.88 27.62,-16.49 44.03,-23.65 5.39,-2.36 12.58,-7.33 18.23,-8.05 z"
       id="path64" />
    <path
       class="st25"
       d="m 195.71,55.86 0.81,0.62 c -0.48,4.59 -0.38,5.44 3.71,7.65 0.37,1.01 -1.98,5.93 -3.07,6.85 -2.11,1.07 -3.97,1.98 -5.76,3.6 -6.62,-1.59 -12.32,-0.16 -18.36,3.03 -4.05,2.14 -9.25,5.24 -2.69,8.52 2.19,-0.84 5.57,-0.62 4.39,2.22 -9.2,7.68 -9.87,12.18 -2,13.5 1.11,2.28 -0.54,4.04 -4.93,5.29 -1.72,1.04 -2.11,2.8 -1.17,5.3 l -0.67,1.52 c -7.56,2.04 -9.76,5.04 -6.59,8.99 l -0.17,1.85 c -3.93,2.41 -5.55,3.64 -4.88,8.43 -2.48,2 -4.25,4.55 -5.29,7.65 -5.38,1.91 -13.24,4.96 -11.13,11.97 -1.51,1.94 -1.67,3.62 -0.48,5.06 l -0.75,1.64 c 0.08,0.22 -0.08,0.52 0,0.72 -1.13,-1.43 -4.71,-2.8 -5.56,-3.8 -0.76,-0.9 -1.72,-5.02 -2.49,-5.45 -0.99,-0.56 -2.72,0.59 -4.21,0.29 -1.41,-0.29 -3.45,-2.16 -5.02,-2.56 12.47,-9.35 16.5,-26.09 23.64,-39.36 11.2,-20.83 31.54,-42.88 52.68,-53.52 z"
       id="path66" />
    <path
       class="st27"
       d="m 215.87,102.66 c 1.48,0.24 1.48,1.44 0,3.6 0.13,1.7 -1.44,3.07 -4.73,4.1 l -1.75,1.66 c -8.47,3.35 -17.28,3.86 -24.65,6.67 -2.98,1.14 -5.14,3.65 -2.39,6.34 1.81,1.77 19.57,5.3 16.21,10 -1.46,2.04 -15.41,2.17 -18.33,2.2 -1.24,0.01 -2.91,0.95 -3.96,0.72 -2.99,-0.66 -5.93,-7.25 -3.6,-10.08 -0.99,-1.28 -0.31,-1.87 0.7,-2.74 -1.57,-0.39 -2.21,-0.72 -2.86,-2.3 -0.08,-0.24 0.1,-0.6 0,-0.72 l -0.19,-1.7 5.93,-3.53 c 1.11,-2.02 2.32,-3.4 3.62,-4.13 0.06,-0.07 1.37,0.29 1.49,-0.45 0.19,-1.16 -1.22,-2.78 -0.66,-4.78 1.46,-5.13 12.04,-3.93 16.03,-4.19 1.51,-0.1 3.1,-1.36 3.3,-1.38 2.59,-0.21 12.57,0.45 15.84,0.72 z"
       id="path68" />
    <path
       class="st7"
       d="m 195.71,55.86 c 10.46,-5.26 23.34,-11.42 34.08,-15.96 0.73,-0.31 3.7,-1.69 4.08,-1.32 -6.76,14.91 -22.61,25.23 -36.72,32.4 -0.41,-2.7 0.61,-4.45 2.16,-6.47 -5.01,-0.71 -5.01,-4.52 -3.6,-8.65 z"
       id="path70" />
    <path
       class="st8"
       d="m 209.39,112.02 c -0.31,-2.91 3.81,-3.37 6.48,-5.76 0.29,-2.3 1.25,-3.26 2.88,-2.88 0.87,0.27 2.14,-0.27 2.86,1.08 -2.63,4.41 -7.78,5.81 -12.22,7.56 z"
       id="path72" />
    <path
       class="st2"
       d="m 218.75,103.38 c -1.14,0.81 -1.79,1.9 -2.88,2.88 v -3.6 c 1.64,0.13 1.67,0.34 2.88,0.72 z"
       id="path74" />
    <g
       id="g94">
      <path
         class="st2"
         d="m 229.55,71.7 c 2.78,1.87 3.26,3.79 1.44,5.76 -3.51,4.7 -6.78,6.96 -12.21,9.75 -3.87,1.99 -20.12,7.09 -21.29,9.71 -0.98,2.2 0.13,4.58 2.53,5.02 1.24,1.67 -0.98,2.31 -2.55,2.72 l -9.35,0.33 c -4.54,0.76 -7.47,1.32 -5.36,6.71 -0.28,2.31 -1.96,3.33 -2.9,1.03 l -1.04,1.44 c -7.25,-0.84 -10.84,0.34 -8.32,7.92 0.62,0.24 0.62,0.48 0,0.72 2.22,0.82 3.09,3.89 0.72,5.04 q -2.89,2.2 0,0 c 0.1,-1.96 0.82,-1.86 1.44,0 0.61,1.34 0.94,2.98 1,4.93 1.21,1.77 2.07,3.49 2.6,5.15 -3.75,1.93 -2.07,4.96 0.36,7.19 3.27,3.01 15.62,8.15 3.58,9.35 -2.02,0.2 -5.18,0.2 -7.21,0.04 -5.78,-0.47 -13.93,-4.94 -10.42,5.73 -3.89,0.72 -10.27,-5.77 -13.3,-2.13 -1.03,1.24 -0.97,3.46 -1.11,3.58 -1.46,1.26 -9.01,-7.27 -11.51,-2.16 -0.43,-1.26 -1.68,-1.66 -1.52,-3.96 0.1,-1.54 1.2,-2.24 1.37,-3.07 0.37,-1.82 -1.31,-2.68 0.25,-5.48 0.55,-0.99 5.06,-4.79 6.13,-5.39 1.34,-0.75 4.8,-1.37 5.13,-1.71 0.2,-0.2 1.37,-3.72 2.43,-5.13 0.74,-0.99 2.42,-1.51 2.69,-2.38 0.23,-0.79 -0.51,-1.89 -0.39,-2.66 0.71,-4.63 5.48,-5.14 5.5,-5.86 0.02,-0.72 -3.48,-2.74 -1.01,-6.78 2.03,-3.32 7.13,-3.15 7.92,-4.34 0.31,-0.47 -0.55,-2.24 -0.49,-3.28 0.28,-4.4 5.45,-4.1 7.99,-6.49 -13.54,-1.91 -4.36,-10.74 1.44,-15.84 -1.1,-0.74 -2.36,0.5 -3.88,0.38 -3.63,-0.29 -5.11,-4.05 -3.66,-7.21 1.22,-2.67 12.91,-7.32 16.01,-7.74 2.26,-0.3 7.9,-0.61 8.82,1.97 0.41,1.15 -0.45,3.71 1.44,5.04 l 0.47,1.38 c -2.96,3.98 -7.93,12.8 -0.27,3.83 0.72,-3.15 2.82,-5.12 6.28,-5.93 8.89,-2.67 21.1,-9.4 30.24,-7.2 z"
         id="path76" />
      <g
         id="g92">
        <path
           class="st24"
           d="m 199.31,78.9 -3.93,3.63 c -0.83,4.24 -5.24,9.7 -9.75,6.81 2.31,-1.12 5.74,-9.38 7.2,-9.72 1.7,-0.4 4.37,-0.09 6.48,-0.72 z"
           id="path78" />
        <path
           class="st17"
           d="m 229.55,71.7 c 1.52,0.37 3.33,0.14 4.27,1.87 0.18,2.06 -2.14,2.96 -2.83,3.89 0.5,-2.61 -1.17,-3.83 -2.88,-5.4 z"
           id="path80" />
        <path
           class="st23"
           d="m 179.87,112.74 c -0.17,0.22 -0.23,2.62 -1.77,4.36 -2.03,2.29 -5.36,3 -7.59,5 -0.33,-0.39 -2.02,0.48 -2.19,-3.26 -0.34,-7.78 5.9,-5.98 11.55,-6.1 z"
           id="path82" />
        <path
           class="st18"
           d="m 151.07,149.46 c -0.42,1.33 -11.17,7.58 -12.95,3.23 -0.23,-2.53 3.1,0.09 4.31,-0.67 0.6,-0.38 1.01,-1.88 1.79,-2.58 2.89,-2.59 3.99,-0.63 6.86,0.01 z"
           id="path84" />
        <path
           class="st18"
           d="m 151.07,149.46 c 0.79,-2.46 -0.46,-6.07 4.68,-5.83 5.66,0.26 0.59,7.01 -4.68,5.83 z"
           id="path86" />
        <path
           class="st27"
           d="m 171.23,127.86 c -0.39,3.8 -5.2,4.37 -5.76,5.06 -0.16,0.2 1.48,2.34 0.36,2.85 -2.43,-2.24 -0.58,-6.22 1.99,-7.38 1.39,-0.63 2.6,-0.28 3.4,-0.54 z"
           id="path88" />
        <path
           class="st13"
           d="m 170.51,122.82 5.76,1.44 -3.6,3.6 c -0.45,0.08 -1.08,-0.12 -1.44,0 0.11,-1.07 -0.37,-4.01 -0.72,-5.04 z"
           id="path90" />
      </g>
    </g>
  </g>
  <ellipse
     class="st5"
     cx="23.645786"
     cy="141.48082"
     rx="1.7"
     ry="1.89"
     transform="rotate(-16.41)"
     id="ellipse98" />
</svg>
