<?xml version="1.0" encoding="UTF-8" standalone="no"?>
<svg
   id="Layer_1"
   version="1.1"
   viewBox="0 0 234.86407 213.15103"
   sodipodi:docname="Parrot4.svg"
   width="234.86407"
   height="213.15103"
   xmlns:inkscape="http://www.inkscape.org/namespaces/inkscape"
   xmlns:sodipodi="http://sodipodi.sourceforge.net/DTD/sodipodi-0.dtd"
   xmlns="http://www.w3.org/2000/svg"
   xmlns:svg="http://www.w3.org/2000/svg">
  <sodipodi:namedview
     id="namedview101"
     pagecolor="#ffffff"
     bordercolor="#000000"
     borderopacity="0.25"
     inkscape:showpageshadow="2"
     inkscape:pageopacity="0.0"
     inkscape:pagecheckerboard="0"
     inkscape:deskcolor="#d1d1d1" />
  <!-- Generator: Adobe Illustrator 29.8.3, SVG Export Plug-In . SVG Version: 2.1.1 Build 3)  -->
  <defs
     id="defs4">
    <style
       id="style2">
      .st0 {
        fill: #fcfcfc;
      }

      .st1 {
        fill: #4d4d4d;
      }

      .st2 {
        fill: #004cde;
      }

      .st3 {
        fill: #fee000;
      }

      .st4 {
        fill: #2d2d2d;
      }

      .st5 {
        fill: #fff;
      }

      .st6 {
        fill: #0049d7;
      }

      .st7 {
        fill: #004cdd;
      }

      .st8 {
        fill: #0054f7;
      }

      .st9 {
        fill: #4c4c4c;
      }

      .st10 {
        fill: #060607;
      }

      .st11 {
        fill: #a8a93d;
      }

      .st12 {
        fill: #003395;
      }

      .st13 {
        fill: #0056fb;
      }

      .st14 {
        fill: #003bac;
      }

      .st15 {
        fill: #2b2b2b;
      }

      .st16 {
        fill: #0050ea;
      }

      .st17 {
        fill: #0053f3;
      }

      .st18 {
        fill: #0046cd;
      }

      .st19 {
        fill: #dadada;
      }

      .st20 {
        fill: #f8f8f8;
      }

      .st21 {
        fill: #242424;
      }

      .st22 {
        fill: #0048d1;
      }

      .st23 {
        fill: #0045c9;
      }

      .st24 {
        fill: #0056fd;
      }

      .st25 {
        fill: #0057fe;
      }

      .st26 {
        fill: #fdfdfd;
      }

      .st27 {
        fill: #004ad9;
      }

      .st28 {
        fill: #0046cb;
      }
    </style>
  </defs>
  <g
     id="g10"
     transform="translate(-20.986717,-18.28)">
    <path
       class="st14"
       d="m 72.95,154.93 c 0.79,-0.37 2,-0.37 3.57,-0.04 -8.71,-19.57 5.7,-30.82 34.51,-37.41 3.35,-0.76 20.21,-4.26 22.37,-3.55 3.59,1.18 -4.92,5.15 -6.54,5.9 l -12.37,4.81 c -4.51,3.06 -1.54,3.68 8.94,1.88 11.29,-1.11 13.8,2.07 3,4.48 -22.43,4.07 -13.71,6.28 3.46,4.08 11.15,0.3 3.1,4.72 -2.01,5.76 l -10.77,2.73 c -4.81,1.62 -1.73,2.71 9.24,3.26 1.81,0.08 6.47,1.01 5.86,2.32 -1.08,2.34 -16.17,3.16 -20.87,3.32 -3.32,0.13 -2.97,1.71 0.07,2.49 4.89,0.1 11.38,1.59 5.07,3.71 -5.81,0.49 -10.49,1.72 -14.03,3.69 -3.33,-0.39 -7.61,0 -11.23,-0.34 -6.08,-0.57 -19.01,-2.3 -18.26,-7.08 v 0 c 0,0 0,-0.01 0,-0.01 z"
       id="path6" />
    <path
       d="m 69.52,137.98 c 3.2,-12.24 20.01,-19.41 38.4,-23.53 4.7,-1.05 21.11,-4.41 25.52,-4.11 16.76,1.08 1.53,10.8 -4.39,12.72 -0.08,0.37 0.91,0.31 1.4,0.4 1.88,-0.06 3.78,0.21 5.7,0.8 4.41,1.38 6.12,3.06 3.6,5.44 0.33,0.15 0.59,0.28 0.57,0.39 -0.12,0.82 -4.59,2.18 -6.08,2.54 1.24,0.16 1.93,0.39 2.08,0.71 1,0.29 3.53,1.3 4.11,1.81 0.43,0.98 0.31,1.92 -0.39,2.83 -2.68,3.25 -10.09,4.35 -11.73,5.98 -0.66,0.65 0.44,0.6 0.94,0.76 2.85,0.9 9.85,1.81 9.25,4.33 -0.36,1.52 -5.25,3.42 -7.48,4.14 -1.57,0.52 -6.87,1.32 -7.14,1.48 -0.3,0.16 2.69,2.53 -0.38,4.85 -2.48,1.88 -12.85,4.12 -17.28,3.77 -1.88,-0.14 -3.18,-0.85 -3.78,-0.92 -1.85,-3.89 14.87,-3.4 15.29,-5.47 0.17,-0.83 -5.27,-0.83 -6.67,-1.17 -3.07,-0.7 -4.98,-2.75 -2.1,-3.8 1.41,-0.51 10.34,-0.58 13.29,-0.99 3.23,-0.45 6.11,-1.2 9,-2.04 -3.06,-2.43 -21.65,-0.8 -17.09,-5.06 2.32,-2.16 18.32,-3.53 20.3,-7.44 -5.45,-1.46 -14.74,0.99 -19.45,0.47 -4.24,-0.47 -4.54,-2.96 -0.75,-4.12 5.74,-1.74 13.99,-2.16 18.54,-5.22 -2.58,-0.45 -5.13,-0.36 -7.62,-0.26 -3.03,0.12 -8.49,1.38 -10.59,1.21 -3.77,-0.31 -4.5,-2.21 -2.53,-3.66 2.36,-1.75 12.38,-4.65 16.23,-6.77 0.79,-0.43 5.46,-3.15 4.88,-3.63 -20.42,3.29 -45.15,7.34 -53.8,19.32 -2.42,3.34 -4.35,7.56 -4.22,11.42 0.07,2.02 3.29,9.37 2.76,10.28 -0.59,1 -3.73,0 -4.93,-0.45 -0.83,-0.31 -1.35,-0.2 -1.92,-0.94 -1.62,-2.11 -2.29,-6.5 -2.54,-8.74 l -0.43,-2.12 c 0,-0.93 0.25,-1.92 0.39,-2.83 l 1.05,-2.33 -0.02,-0.04 v 0 z"
       id="path8" />
  </g>
  <path
     class="st0"
     d="M 41.973283,4.32 V 0 c 1.08,2.76 0.72,1.85 0,4.32 z"
     id="path12" />
  <g
     id="g62"
     transform="translate(-20.986717,-18.28)">
    <path
       d="m 186.08,137.08 c 12.14,-3.26 20.89,-9.43 35.01,-10.71 19.56,-1.77 18.87,10.07 2.44,15.04 -0.15,1.26 2.03,0.68 2.87,0.71 2.1,-0.6 4.39,-0.7 6.48,0 6.17,0.46 23.72,3.78 16.61,12.65 l -13,5.35 c 4.15,0.38 18.67,4.9 19.32,9.17 0.97,6.35 -15.64,8.13 -20.05,8.12 2.42,2.43 9.92,5.6 5.79,9.74 -3.8,3.81 -22.61,1.25 -28.1,-0.03 -4.74,-1.11 -20.81,-7.81 -24.01,-6.73 -1.26,0.43 -8.86,14.34 -10.56,16.45 10.17,-1.15 16.13,15.78 5.95,17.88 -6.51,1.35 -5.89,-8.35 -10.99,-1.67 12.28,2.86 6.09,14.14 -3.03,16.45 -1.65,0.42 -8.22,1.74 -9.66,1.88 -5.79,0.58 -7.08,-3.97 -8.65,-4.24 -1.19,-0.21 -2.81,2.68 -4.54,3.23 -4.18,1.31 -5.35,-0.63 -8.36,-1.08 -3.27,-0.48 -5.56,0.9 -8.61,-1.47 -3.4,-2.64 -2.44,-6.29 -2.51,-10.09 -15.32,3.73 -29.1,1.25 -41.38,-8.66 -3.24,-2.62 -14.74,-14.83 -17.45,-15.67 -0.63,-0.19 -5.69,-0.93 -6.36,-0.91 -2.73,0.06 -7.82,6.8 -9.56,9.16 -3.19,4.33 -6.02,11.81 -8.76,15 -5.9,6.88 -17.52,-8.76 -19.96,-13.9 -6.91,-14.52 -5.13,-28.6 6.98,-39.4 6.6,-5.88 13.46,-8.45 22.33,-6.84 -3.82,-11.56 5.31,-30.23 18.91,-27.9 2.05,0.35 3.85,1.98 5.91,2.01 2.24,0.03 4.63,-1.54 7.19,-1.48 5.33,0.12 9.07,1.8 14.07,5.78 l 1.39,2.28 c 0.91,-0.02 5.46,-1.03 6.65,-1.17 0,0 21.12,-1.77 28.43,-1.57 10.85,0.31 43.45,2.62 44.89,2.62 1.33,0.53 2.77,0.53 4.32,0 z"
       id="path14" />
    <g
       id="g60">
      <path
         class="st0"
         d="m 232.88,142.12 c -2.13,-0.16 -4.34,0.07 -6.48,0 1.34,-1.21 5.14,-1.21 6.48,0 z"
         id="path16" />
      <path
         class="st25"
         d="m 214.88,138.52 c -3.54,1.26 -12.16,8.01 -5.76,10.8 -0.29,2.42 0.26,4.54 1.63,6.36 l -0.91,1.56 c 0.04,0.64 -1.33,3.01 -0.72,4.32 -0.44,0.74 -1.04,1.24 -1.8,1.51 1.15,5.3 -2.27,6.47 -10.27,3.53 -4.75,-0.51 -6.63,0.33 -10.19,3.6 l -1.5,-0.72 -0.75,2.13 c -3.82,2.41 -7,4.56 -9.72,8.21 -2.89,7.24 -12.73,13.52 -20.27,14.89 -1.73,3.37 -4.08,4.88 -7.04,4.55 -1.12,1.24 -2.21,1.88 -3.27,1.9 l -0.78,1.62 c -2.75,-0.32 -4.65,0.59 -5.7,2.7 -1.2,2.02 -7.97,1.63 -10.46,1.2 -3.43,-0.59 -7.64,-2.9 -6.16,-6.79 -0.98,-5.25 0.24,-9.47 3.66,-12.66 -0.95,-4.37 -1.26,-8.73 -0.94,-13.07 -1.9,-2.29 -3.69,-4.63 -5.38,-7.03 2.45,-5.92 1.41,-8.78 -3.12,-8.56 -4.01,-1.79 -8.1,-2.76 -12.28,-2.91 l -1.31,-1.3 c 0.83,-3.52 0.59,-7.98 0,-11.52 11.54,-1.93 23.18,-3.65 34.95,-2.91 15.52,0.97 41.15,6.64 55.61,3.11 7.17,-1.75 14.14,-5.04 21.04,-7.4 2.89,-0.61 3.74,1.03 1.44,2.88 z"
         id="path18" />
      <path
         class="st3"
         d="m 101.84,154.36 c 5.11,-0.77 8.96,1.16 13.5,2.7 1.84,0.62 3.17,-0.51 4.85,1.63 3.01,3.83 -0.69,6.54 -0.28,8.12 0.31,1.21 4.8,4.94 5.41,6.96 0.61,2.02 -0.5,3.38 -0.4,5.32 0.16,3.15 2.91,6.58 0.61,10.11 -0.66,1.01 -2.32,1.28 -2.69,2.35 -0.95,2.7 0.65,8.45 -0.83,11.76 1.87,-0.51 3.57,1.7 4.66,1.84 2.9,0.39 7.89,0.07 11.18,0.33 3.93,0.75 5.13,1.95 3.6,3.6 -9.5,1.47 -22.84,4.51 -32.03,3.59 -6.13,-0.61 -10,-3.43 -14.77,-6.47 -0.11,-0.7 0.1,-1.25 0.69,-1.63 6.24,-1 7.61,-1.53 10.01,-7.32 1.14,-2.76 5.18,-14.95 4.13,-17.22 -2.44,-2.9 -4.15,-6.04 -5.15,-9.41 -3.53,-1.88 -8.45,-4.58 -6.08,-9.06 1.12,-1.32 3.2,-5.48 3.6,-7.2 v 0 z"
         id="path20" />
      <path
         class="st1"
         d="m 37.76,208.36 c -18.11,-16.06 -9.5,-47.56 15.39,-45.27 1.31,0.12 10.83,1.68 11.22,2.1 0.31,0.33 -0.11,2.13 0.03,2.85 3.49,0.9 4,-3.25 7.2,-2.88 l -0.72,3.59 c 3.11,0.55 3.08,-1.97 2.88,-4.31 1,-0.24 1.42,0.32 2.16,0.72 4.6,6.17 -2.22,9.17 -7.25,11.37 -11.81,7.62 -23.24,17.38 -28.92,30.59 l -2,1.24 z"
         id="path22" />
      <path
         class="st25"
         d="m 94.64,206.2 c -4.63,-2.95 -9.07,-6.05 -12.96,-10.07 5.54,0.84 12.4,1.31 14.56,-5.24 3.83,-11.6 -11.06,-12.66 -10.97,-22.84 4.2,0 10.33,-3.37 12.96,-6.48 1.06,1.05 0.57,2.55 1.4,4 1.22,2.14 4.82,2.85 5.84,4.23 0.83,1.12 0.63,2.71 1.25,3.79 1.12,1.91 4.3,5.18 4.36,7.02 0.15,4.06 -4.31,18.72 -6.76,21.99 -1.79,2.39 -6.85,2.92 -9.7,3.62 z"
         id="path24" />
      <path
         class="st27"
         d="m 185.36,173.8 c -3.37,2.17 -9.12,14.05 -12.36,18.24 -6.07,7.83 -14.47,14.19 -24.36,16.32 -2.93,-0.2 -4.61,-1.16 -5.04,-2.88 -1.99,-0.91 -1.43,-3.92 0.72,-4.32 1.8,-5.28 5.98,-2.75 7.1,-3.71 0.23,-0.2 0.2,-1.7 0.78,-2.42 2.68,-3.34 5.06,-1.75 7.8,-3.03 0.69,-0.32 11.54,-8.28 11.99,-8.89 0.81,-1.1 1.01,-3.1 1.97,-4.51 2.65,-3.9 7.54,-6.56 11.4,-9.12 2.36,-0.03 1.79,3.35 0,4.32 z"
         id="path26" />
      <path
         class="st28"
         d="m 209.12,161.56 c 0.49,0.1 1.33,1.14 2.58,1.37 10.44,1.88 21.25,1.91 31.26,5.84 -0.28,1.45 -1.52,1.17 -2.52,1.43 -2.3,0.58 -8.55,1.46 -10.83,1.47 -3.86,0.02 -18.78,-3.6 -20.49,-2.56 -1.88,1.14 -1.62,4.31 0.03,5.75 1.89,1.65 12.02,4.37 15.09,5.42 0.66,0.69 0.18,0.93 -1.44,0.72 -10,-1.29 -16.05,-4.3 -25.21,-6.83 -4.11,-1.14 -8.39,-2.84 -12.23,-0.37 v -4.32 c 5.11,-3.38 4.36,-5.02 11.88,-4.31 1.83,0.17 7.96,2.26 9,1.42 0.29,-0.23 -2.36,-6.08 2.88,-5.03 z"
         id="path28" />
      <path
         class="st4"
         d="m 75.92,165.16 c 4.66,2.48 3.04,9.2 5.43,12.93 1.58,2.46 12.16,6.61 8.65,11.6 -1.7,2.41 -16.39,-2.83 -19.84,-1.49 -0.77,-1.88 2.99,-1.96 3.85,-1.9 3.11,0.23 8.82,4.5 10.26,-0.24 0.71,-2.33 -0.99,-3.39 -2.81,-4.48 -14.55,-8.78 -30.72,11.7 -37.53,22.53 -0.82,1.31 -2.55,5.61 -3.28,6.09 -1.65,1.08 -2.15,-1.15 -2.9,-1.82 4.57,-13.42 17.86,-25.19 29.58,-32.7 4.95,-3.17 10.1,-2.68 8.58,-10.5 v -0.02 0 z"
         id="path30" />
      <path
         class="st9"
         d="m 183.21,209.8 c -3.1,-12.69 -19.32,2.61 -15.85,8.81 1.51,2.7 7.28,-0.04 7.92,0.55 -0.32,4.62 -8.01,7.22 -10.38,2.82 -1.2,-2.23 -0.05,-5.69 -3.54,-5.48 -3.75,0.23 -1.61,6.78 -0.48,9.12 -5.79,0.07 -5.04,-8.88 -2.5,-12.22 0.46,-0.6 11.15,-7.39 12.66,-8.22 0.76,-0.42 6.55,-3.13 6.93,-3.18 3.97,-0.53 10.41,4.61 5.24,7.78 z"
         id="path32" />
      <path
         class="st22"
         d="m 209.12,149.32 c 1.29,0.56 11.62,0.06 14.07,0.03 2.57,-0.03 4.9,-0.89 7.92,-0.78 3.02,0.11 6.49,1.43 9.69,1.47 -0.2,1.21 -1.4,1.29 -2.32,1.64 -9.29,3.55 -19.53,2.44 -28.64,5.56 -0.09,-1.48 -4.34,-4.29 -0.72,-7.92 z"
         id="path34" />
      <path
         class="st15"
         d="m 144.32,216.29 c -4.42,7.08 2.71,6.03 3.6,7.2 0.98,1.29 -2.38,4.06 -5.45,2.2 -3.23,-1.96 -2,-8.36 -6.79,-7.25 l 0.71,6.48 c -3.6,0.02 -4.43,-6.08 -2.18,-7.58 1.25,-0.84 7.92,-0.18 10.11,-1.04 v 0 z"
         id="path36" />
      <path
         class="st20"
         d="m 69.43,144.28 c -3.32,-1.87 -3.66,-1.22 -6.87,-0.74 -2.76,0.41 1.4,-4.8 2.1,-5.48 1.94,-1.89 10.23,-5.12 8.75,-1.7 -0.83,1.93 -4.47,4.79 -3.98,7.92 z"
         id="path38" />
      <path
         class="st20"
         d="m 70.16,158.67 c -5.94,2.04 -10.7,-2.56 -10.07,-8.63 1.73,3.53 7.33,1.98 7.95,2.46 0.97,0.73 0.65,4.84 2.12,6.18 v 0 z"
         id="path40" />
      <path
         class="st11"
         d="m 143.6,205.48 c 1.21,0.2 4.56,1.59 5.04,2.88 -2.28,0.49 -5.02,0.38 -7.2,0.72 -0.31,-1.54 -3.34,-2.75 -3.6,-3.6 0.41,-2.08 5.68,-2.35 5.76,0 z"
         id="path42" />
      <path
         class="st6"
         d="m 213.44,135.64 c 3.49,-1.2 7.03,-2.43 10.8,-2.15 l -9.36,5.03 c 0.12,-1.26 -0.12,-2.51 -1.44,-2.88 z"
         id="path44" />
      <path
         class="st19"
         d="m 67.28,145 c 1.19,1.18 -1.84,4.56 -2.87,1.79 -0.92,-2.48 2.56,-2.1 2.87,-1.79 z"
         id="path46" />
      <path
         class="st21"
         d="m 150.8,219.88 c -1.5,1.73 -3.3,-3.4 0.72,-4.32 -0.34,0.81 -0.57,4.15 -0.72,4.32 z"
         id="path48" />
      <path
         class="st12"
         d="m 224.24,180.28 c 0.95,0.32 1.82,0.83 2.88,0.73 v 0.7 c -1.62,0.74 -3.4,-0.59 -4.32,-0.71 z"
         id="path50" />
      <path
         class="st16"
         d="m 144.32,201.16 c -0.55,1.63 -0.23,2.91 -0.72,4.32 -1.69,-0.28 -3.94,0.14 -5.76,0 -1.47,-4.74 3.88,-3.58 6.48,-4.32 z"
         id="path52" />
      <g
         id="g58">
        <path
           class="st26"
           d="m 85.75,135.85 c 2.44,-0.12 7.21,2.77 8.5,4.86 6.22,10.1 -4.68,27.12 -15.27,18.87 -8.71,-6.79 -2.73,-23.26 6.77,-23.73 z"
           id="path54" />
        <path
           class="st10"
           d="m 81.68,144.28 2.24,-0.17 c 1.83,1.3 1.7,0.13 3.19,4.42 1.49,4.29 -8.26,6.21 -9.04,1.86 -0.49,-2.76 0.26,-6.26 3.61,-6.11 z"
           id="path56" />
      </g>
    </g>
  </g>
  <g
     id="g96"
     transform="translate(-20.986717,-18.28)">
    <path
       d="m 241.58,119.8 c 1.51,0.05 3.23,0.58 4.57,1.46 0.15,0.09 1.52,2.15 1.61,2.35 0.31,1.03 -0.02,1.81 -0.51,2.6 -3.72,5.76 -12.61,6.74 -19.89,9.27 1.61,1.22 3.73,2.21 6.35,2.95 3.59,1.77 8,3.95 9.02,7.03 0.22,0.99 -0.02,1.82 -0.51,2.6 -2.69,3.61 -9.32,4.9 -15.17,5.33 -1.36,0.11 -7.08,-0.24 -7.38,-0.13 -1.68,0.53 2.48,1.76 3.07,2.11 4.23,2.58 6.13,4.79 4.61,7.91 -2.24,4.62 -22.33,2.6 -29.31,0.98 12.46,11.89 3.25,14.46 -11.71,10.05 0.19,0.82 1.56,1.3 2.33,2.34 1.47,1.99 1.87,4.02 0.66,5.54 -3.51,4.44 -19.8,-2.77 -20.69,-2.5 -0.47,0.14 0.07,2.99 -3.77,2.36 -4.59,-0.75 -10.39,-4.72 -11.32,-4.85 -1.13,-0.17 -1.47,1.81 -5.71,0.45 -5.03,-1.61 -8.49,-5.27 -9.74,-8.69 l 0.08,-0.43 c 0,-3.82 6.79,1.01 9.17,3.18 2.51,-2.5 6.65,-1.48 12.41,3.1 0.2,-4.14 3.98,-4.11 11.35,0.07 8.48,3.17 15.83,5.8 4.31,-2.76 -3.04,-2.51 -3.62,-7.33 1.26,-5.06 0.31,-0.75 1.4,-0.84 3.24,-0.3 l 11.81,3.38 c 7.85,2.14 5.39,-0.37 -7.41,-7.51 -3.45,-2.12 -3.85,-4.98 -0.23,-5.55 2.75,-0.43 19.8,2.07 23.57,2.96 0.79,0.18 1.49,0.65 2.13,1.09 3.41,-0.31 6.73,-0.75 9.97,-1.35 l -0.46,-1.12 c -1.77,0.24 -2.61,-0.18 -2.53,-1.27 -0.09,0.19 -0.22,0.36 -0.42,0.46 -0.45,0.24 -11.51,-3.68 -13.12,-4.37 l -0.74,-1.14 c -4.19,-0.32 -4.61,-4.11 -1.76,-4.94 9.08,0.32 17.99,0.34 26.73,0.05 2.04,-0.87 4.05,-1.15 6.01,-0.82 0.29,-0.82 0.89,-1.38 1.79,-1.67 -1.4,-0.69 -2.2,-1.44 -2.4,-2.21 -1.92,-0.07 -4.08,-0.49 -6.47,-1.29 -6.9,-1.13 -13.71,-1.84 -20.44,-2.1 l -1.38,-1.08 c -2.72,0.51 -4.71,0.03 -5.96,-1.45 -2.74,-0.07 -3.03,-3.52 -0.71,-3.45 -0.5,-1.7 4.19,-2.03 5.66,-0.49 l 1.3,-1 c 9.89,-0.4 27.2,-1.64 32.63,-6.92 0.81,-0.79 -27.73,-0.69 -30.54,-0.65 -1,-0.14 -1.96,-0.45 -2.9,-0.93 l -1.72,1.02 c -28.42,1.22 -48.92,12.37 -63.5,27.03 -1.98,1.72 -10.58,7.03 -13.83,6.06 -0.41,-0.13 -0.81,-0.3 -1.22,-0.49 -0.34,-0.17 -0.89,-0.26 -1.31,-0.42 -2.17,-0.79 -1.63,-1.6 -0.88,-2.59 1.46,-1.51 5.2,-2.68 7.33,-4.14 6.03,-4.15 10.37,-9.63 16.26,-13.91 9.26,-6.72 22.87,-12.35 36.14,-15.24 14.12,-3.06 27.01,-1.87 42.75,-1.41 5.17,0.16 12.28,-0.75 17.5,0.47 v 0 z"
       id="path64" />
    <path
       class="st25"
       d="m 204.06,123.42 0.66,0.6 c -0.98,2.62 -1,3.15 2.45,5.68 0.22,0.71 -2.51,2.98 -3.6,3.22 -2.05,0.03 -3.83,0.04 -5.66,0.49 -5.82,-2.87 -11.16,-3.67 -17.02,-3.52 -3.93,0.11 -9.01,0.46 -3.45,4.34 2.09,0.13 5.13,1.24 3.72,2.61 -9.26,1.94 -10.4,4.46 -3.42,7.53 0.73,1.69 -0.97,2.28 -5.11,1.74 -1.69,0.13 -2.25,1.07 -1.7,2.84 l -0.79,0.72 c -7.1,-0.97 -9.45,0.19 -7.05,3.49 l -0.37,1.07 c -3.86,0.3 -5.47,0.58 -5.43,3.65 -2.49,0.49 -4.39,1.5 -5.71,3.06 -5.11,-0.42 -12.6,-0.87 -11.51,3.96 -1.6,0.72 -1.94,1.69 -1.04,2.9 l -0.88,0.76 c 0.03,0.16 -0.14,0.29 -0.08,0.43 -0.86,-1.19 -3.94,-3.05 -4.59,-3.89 -0.58,-0.77 -0.96,-3.51 -1.61,-4 -0.83,-0.62 -2.53,-0.44 -3.85,-1.05 -1.24,-0.58 -2.87,-2.3 -4.25,-3 12.43,-1.99 18.07,-10.88 26.13,-16.78 12.64,-9.26 33.71,-16.59 54.15,-16.84 v 0 c 0,0 0,0 0,0 z"
       id="path66" />
    <path
       class="st27"
       d="m 216.77,157.4 c 1.31,0.57 1.17,1.3 -0.43,2.17 -0.08,1.06 -1.68,1.42 -4.77,1.09 l -1.79,0.48 c -8.08,-0.44 -16.13,-2.71 -23.15,-3.16 -2.83,-0.18 -5.09,0.7 -2.92,3.11 1.42,1.58 17.12,8.88 13.51,10.73 -1.56,0.8 -14.23,-3.18 -16.89,-4 -1.12,-0.36 -2.76,-0.27 -3.68,-0.72 -2.63,-1.27 -4.51,-6.08 -2.06,-7.11 -0.75,-1.06 -0.06,-1.22 0.96,-1.44 -1.38,-0.69 -1.92,-1.07 -2.32,-2.21 -0.03,-0.17 0.16,-0.33 0.08,-0.43 l 0.03,-1.08 5.8,-0.39 c 1.25,-0.89 2.51,-1.37 3.77,-1.43 0.06,-0.01 1.2,0.57 1.41,0.16 0.31,-0.64 -0.78,-2.03 -0.02,-3.06 1.93,-2.66 11.38,1.14 15.03,2.14 1.38,0.38 2.97,0.08 3.15,0.13 2.37,0.63 11.35,3.93 14.28,5.04 v 0 z"
       id="path68" />
    <path
       class="st7"
       d="m 204.06,123.42 c 10.11,-0.12 22.53,-0.08 32.81,0.32 0.7,0.02 3.55,0.06 3.85,0.39 -7.91,7 -23.51,8.59 -37.15,8.8 -0.05,-1.75 1.09,-2.5 2.73,-3.26 -4.46,-1.88 -4.01,-4.17 -2.23,-6.25 v 0 z"
       id="path70" />
    <path
       class="st8"
       d="m 209.77,161.14 c 0.06,-1.84 3.86,-0.92 6.56,-1.58 0.54,-1.3 1.53,-1.6 2.96,-0.89 0.76,0.42 1.97,0.46 2.47,1.48 -2.9,1.88 -7.75,1.23 -11.98,0.99 v 0 z"
       id="path72" />
    <path
       class="st2"
       d="m 219.29,158.67 c -1.14,0.16 -1.85,0.63 -2.96,0.89 l 0.43,-2.17 c 1.47,0.56 1.47,0.69 2.53,1.27 v 0 z"
       id="path74" />
    <g
       id="g94">
      <path
         class="st2"
         d="m 232.87,142.78 c 2.3,1.93 2.51,3.22 0.62,3.88 -3.75,1.8 -6.98,2.21 -12.23,2.31 -3.75,0.07 -19.09,-1.59 -20.46,-0.36 -1.15,1.03 -0.43,2.79 1.7,3.75 0.93,1.37 -1.16,1.1 -2.64,0.89 l -8.52,-2.52 c -4.21,-0.87 -6.93,-1.38 -5.66,2.47 -0.52,1.3 -2.17,1.43 -2.75,-0.22 l -1.11,0.57 c -6.47,-2.6 -9.87,-2.95 -8.49,2.33 0.54,0.33 0.51,0.47 -0.08,0.43 1.92,1.14 2.34,3.23 0.06,3.24 q -1.28,0.22 0,0 c 0.32,-1.15 0.97,-0.88 1.31,0.42 0.39,0.98 0.49,2.06 0.31,3.25 0.88,1.42 1.47,2.7 1.75,3.85 -3.63,0.06 -2.47,2.38 -0.53,4.42 2.61,2.76 13.2,9.45 2.14,6.67 -1.86,-0.47 -4.72,-1.38 -6.55,-2.08 -5.18,-1.97 -12.04,-7.02 -10.13,0.41 -3.61,-0.69 -8.63,-6.45 -11.8,-5.15 -1.08,0.44 -1.29,1.79 -1.43,1.83 -1.48,0.34 -7.3,-6.99 -10.18,-4.64 -0.24,-0.88 -1.32,-1.48 -0.91,-2.82 0.28,-0.89 1.36,-1 1.61,-1.44 0.55,-0.99 -0.86,-1.99 0.88,-3.23 0.62,-0.44 5.16,-1.4 6.2,-1.45 1.31,-0.06 4.52,0.57 4.86,0.47 0.2,-0.06 1.68,-1.84 2.81,-2.38 0.79,-0.37 2.38,-0.2 2.72,-0.65 0.3,-0.41 -0.24,-1.28 -0.04,-1.72 1.2,-2.57 5.58,-1.5 5.69,-1.92 0.11,-0.42 -2.83,-2.66 -0.11,-4.36 2.24,-1.4 6.84,0.18 7.69,-0.31 0.34,-0.2 -0.23,-1.51 -0.05,-2.11 0.77,-2.56 5.44,-0.88 8.02,-1.58 -12.05,-5.08 -2.67,-7.72 3.19,-9.1 -0.91,-0.77 -2.2,-0.39 -3.57,-0.9 -3.25,-1.22 -4.15,-3.91 -2.47,-5.39 1.43,-1.25 12.58,-0.64 15.44,0 2.08,0.47 7.23,1.93 7.76,3.75 0.24,0.82 -0.85,2.1 0.71,3.45 l 0.27,0.96 c -3.15,1.53 -8.71,5.39 -0.7,2.22 1.03,-1.68 3.16,-2.26 6.4,-1.73 8.38,0.98 20.26,0.49 28.28,4.47 h -0.02 c 0,0 0,0 0,0 z"
         id="path76" />
      <g
         id="g92">
        <path
           class="st24"
           d="m 204.58,138.31 -3.99,1.04 c -1.26,2.31 -5.91,4.31 -9.65,1.25 2.23,0 6.32,-3.97 7.68,-3.75 1.59,0.25 3.98,1.22 5.96,1.45 v 0 z"
           id="path78" />
        <path
           class="st17"
           d="m 232.87,142.78 c 1.34,0.66 3,1.05 3.65,2.37 -0.08,1.29 -2.29,1.16 -3.02,1.51 0.76,-1.43 -0.61,-2.64 -1.97,-4.08 l 1.35,0.2 v 0 c 0,0 0,0 0,0 z"
           id="path80" />
        <path
           class="st23"
           d="m 182.92,153 c -0.18,0.08 -0.52,1.51 -2.13,2.1 -2.11,0.79 -5.22,0.25 -7.48,0.8 -0.25,-0.33 -1.9,-0.3 -1.6,-2.6 0.62,-4.77 6.06,-1.88 11.2,-0.3 v 0 z"
           id="path82" />
        <path
           class="st18"
           d="m 152.43,166.69 c -0.54,0.67 -11.03,1.31 -12.14,-1.82 0.09,-1.59 2.81,0.96 3.99,0.85 0.58,-0.05 1.14,-0.84 1.92,-1.02 2.94,-0.72 3.69,0.79 6.21,2 v 0 c 0,0 0,0 0,0 z"
           id="path84" />
        <path
           class="st18"
           d="m 152.43,166.69 c 1,-1.26 0.31,-3.78 4.93,-2.14 5.1,1.81 -0.3,4.38 -4.93,2.14 z"
           id="path86" />
        <path
           class="st27"
           d="m 173.29,159.56 c -0.8,2.17 -5.23,1.11 -5.83,1.37 -0.17,0.08 1.06,1.83 0,1.81 -1.94,-2.05 0.22,-3.9 2.68,-3.85 1.33,0.03 2.4,0.6 3.15,0.66 v 0 z"
           id="path88" />
        <path
           class="st13"
           d="m 173.23,156.33 5.05,2.55 -3.7,1.11 c -0.41,-0.08 -0.96,-0.39 -1.31,-0.42 0.23,-0.61 0.14,-2.52 -0.06,-3.24 v 0 c 0,0 0,0 0,0 z"
           id="path90" />
      </g>
    </g>
  </g>
  <ellipse
     class="st5"
     cx="23.648203"
     cy="141.48407"
     rx="1.7"
     ry="1.89"
     transform="rotate(-16.41)"
     id="ellipse98" />
</svg>
