<?xml version="1.0" encoding="UTF-8" standalone="no"?>
<svg
   xmlns:dc="http://purl.org/dc/elements/1.1/"
   xmlns:cc="http://creativecommons.org/ns#"
   xmlns:rdf="http://www.w3.org/1999/02/22-rdf-syntax-ns#"
   xmlns:svg="http://www.w3.org/2000/svg"
   xmlns="http://www.w3.org/2000/svg"
   xmlns:sodipodi="http://sodipodi.sourceforge.net/DTD/sodipodi-0.dtd"
   xmlns:inkscape="http://www.inkscape.org/namespaces/inkscape"
   version="1.1"
   width="175"
   height="205"
   id="svg901"
   sodipodi:docname="parrot-b.svg"
   inkscape:version="0.92.2 5c3e80d, 2017-08-06">
  <metadata
     id="metadata907">
    <rdf:RDF>
      <cc:Work
         rdf:about="">
        <dc:format>image/svg+xml</dc:format>
        <dc:type
           rdf:resource="http://purl.org/dc/dcmitype/StillImage" />
        <dc:title></dc:title>
      </cc:Work>
    </rdf:RDF>
  </metadata>
  <defs
     id="defs905" />
  <sodipodi:namedview
     pagecolor="#ffffff"
     bordercolor="#666666"
     borderopacity="1"
     objecttolerance="10"
     gridtolerance="10"
     guidetolerance="10"
     inkscape:pageopacity="0"
     inkscape:pageshadow="2"
     inkscape:window-width="928"
     inkscape:window-height="480"
     id="namedview903"
     showgrid="false"
     fit-margin-top="0"
     fit-margin-left="0"
     fit-margin-right="0"
     fit-margin-bottom="0"
     inkscape:object-nodes="false"
     units="px"
     inkscape:pagecheckerboard="false"
     inkscape:zoom="2"
     inkscape:cx="90.008407"
     inkscape:cy="75.789362"
     inkscape:window-x="-2"
     inkscape:window-y="360"
     inkscape:window-maximized="0"
     inkscape:current-layer="svg901" />
  <!-- Exported by Scratch - http://scratch.mit.edu/ -->
  <g
     id="ID0.4731595115736127"
     transform="matrix(0.90249997,0,0,0.90249997,12.413492,4.576084)">
    <g
       id="Back_Wing">
      <path
         id="Outer_1_"
         d="m 123.271,110.894 c 0.396,12.5 15.305,34.272 25.38,43.338 2.336,2.103 4.285,6.949 3.972,16.063 -0.144,4.061 -0.802,8.322 -2.535,12.896 0,0 -0.689,4.151 -5.004,11.729 -7.49,13.15 -32.371,23.73 -29.308,-3.83 0.916,-8.252 4.92,-16.797 7.354,-20.354 -1.617,0.864 -9.622,5.766 -13.014,1.821 -4.341,-5.048 11.015,-17.396 11.015,-17.396 -4.07,1.771 -9.608,3.076 -11.393,-0.156 -2.5,-4.539 5.312,-11.735 5.312,-11.735 -2.411,-0.122 -6.667,0.161 -7.533,-2.147 -0.866,-2.311 2.429,-7.326 3.941,-8.729 -4.5,-0.347 -6.821,-2.252 -6.915,-4.207 -0.291,-2.071 2.652,-6.327 7.312,-9.558 -2.895,-5.062 -0.165,-10.823 2.16,-12.11 2.229,-1.234 4.438,-1.092 6.657,0.125 1.051,0.563 2.52,1.742 2.599,4.25 z"
         inkscape:connector-curvature="0"
         style="fill:#279afa" />
      <path
         id="Inner_2_"
         d="m 123.271,110.894 c 0.396,12.5 15.305,34.272 25.38,43.338 2.336,2.103 4.285,6.949 3.972,16.063 -0.144,4.061 -0.802,8.322 -2.535,12.896 -2.529,6.797 -13.592,20.033 -21.236,18.461 -13.607,-2.801 3.729,-37.096 3.729,-37.096 -26.615,8.772 -3.36,-13.524 -3.36,-13.524 -24.232,5.395 -6.782,-10.81 -6.782,-10.81 -16.812,1.043 -3.695,-11.043 -3.695,-11.043 -14.289,-0.108 -6.882,-10.556 -6.882,-10.556 -2.896,-5.062 -0.166,-10.824 2.159,-12.11 2.229,-1.233 4.438,-1.092 6.657,0.127 1.045,0.567 2.514,1.746 2.593,4.254 z"
         inkscape:connector-curvature="0"
         style="fill:#0043a5" />
    </g>
    <path
       id="Back_Foot"
       d="m 129.685,121.754 c 2.035,-3.521 4.691,-5.062 8.737,-5.56 1.737,-0.198 2.979,-0.149 4.368,0.894 1.266,0.943 -0.491,3.498 -6.174,4.492 6.106,0.567 9.351,1.267 9.847,3.649 0.373,1.86 -2.283,2.854 -4.169,2.579 -4.293,-0.618 -8.985,-2.281 -11.021,1.591 -0.521,0.991 -0.746,1.96 -1.787,2.282 -1.144,0.35 -2.532,-0.373 -2.683,-1.588 -0.248,-2.16 0.949,-3.489 0.396,-5.561 -0.197,-0.744 -8.339,-3.873 -11.664,-5.213 1.638,-0.396 3.797,-1.812 5.409,-2.283 1.097,-0.321 6.011,2.338 8.741,4.718 z"
       inkscape:connector-curvature="0"
       style="fill:#ffa600" />
    <g
       id="Body">
      <path
         id="Body_1_"
         d="m 137.13,96.778 c 0.157,-0.935 0.418,-1.913 0.784,-2.952 2.132,-6.038 6.535,-9.625 12.645,-11.649 0.948,-0.312 1.938,-0.604 2.951,-0.863 4.486,-1.146 9.451,-1.582 13.56,0.184 -0.668,-0.813 -1.468,-1.629 -2.444,-2.445 C 151.538,68.129 135.432,73.657 120.87,82.747 109.718,89.708 81.372,108.888 73.702,107.468 48.538,88.907 39.605,91.839 37.619,95.818 c -1.849,3.765 2.415,7.956 5.824,10.514 -6.129,1.047 -9.681,0.62 -10.088,4.83 -0.374,3.857 5.114,4.404 8.95,5.396 -3.41,1.421 -6.307,3.668 -4.991,6.444 1.279,2.701 7.814,3.271 11.792,2.131 -2.131,3.979 -5.112,13.214 4.141,9.896 8.592,-3.083 13.496,-7.812 20.741,-13.639 11.224,11.647 27.845,16.905 35.942,13.778 14.174,-5.469 22.61,-18.465 27.514,-33.243 -0.508,-1.618 -0.625,-3.292 -0.314,-5.147 z"
         inkscape:connector-curvature="0"
         style="fill:#ff0600" />
      <path
         id="Eye_Spot"
         d="m 150.558,82.176 c 0.948,-0.313 1.938,-0.604 2.951,-0.863 -5.875,-4.839 -13.856,-4.01 -21.212,-0.706 -4.64,2.088 -7.823,7.101 -4.931,10.966 3.484,4.658 7.888,5.578 9.764,5.206 0.156,-0.935 0.418,-1.913 0.785,-2.952 2.131,-6.04 6.535,-9.627 12.643,-11.651 z"
         inkscape:connector-curvature="0"
         style="fill:#0043a5" />
      <path
         id="Beak"
         d="m 168.886,82.46 c -0.583,-0.378 -1.189,-0.695 -1.816,-0.965 -4.106,-1.766 -9.071,-1.33 -13.56,-0.185 -1.012,0.26 -2.003,0.551 -2.951,0.864 -6.107,2.024 -10.513,5.611 -12.645,11.649 -0.365,1.039 -0.627,2.018 -0.784,2.952 -0.312,1.854 -0.193,3.528 0.312,5.146 0.597,1.913 1.736,3.743 3.456,5.683 3.872,4.368 10.778,6.766 15.469,3.034 -3.906,-1.277 -5.878,-5.2 -5.38,-9.285 11.914,-4.068 20.58,14.543 23.155,26.424 13.38,-29.331 -5.256,-45.317 -5.256,-45.317 z"
         inkscape:connector-curvature="0"
         style="fill:#ffa600" />
    </g>
    <path
       id="Front_Foot"
       d="m 124.139,136.463 c 3.666,-4.523 7.766,-6.104 13.594,-5.9 2.5,0.105 5.365,1.079 5.847,3.521 0.866,4.404 -9.66,1.988 -11.791,4.119 7.812,-0.994 15.121,3.45 15.289,6.93 0.106,2.713 -3.866,3.521 -6.474,2.715 -5.93,-1.838 -12.188,-5.237 -15.931,-0.223 -0.959,1.287 -1.492,2.604 -3.037,2.826 -1.69,0.235 -3.495,-1.093 -3.434,-2.845 0.134,-3.106 2.825,-4.879 1.807,-7.771 -1.578,-4.477 -9.959,-7.176 -15.321,-9.979 2.404,-0.193 6.071,-1.459 7.922,-3.164 1.986,0.713 8.204,5.794 11.529,9.771 z"
       inkscape:connector-curvature="0"
       style="fill:#ffa600" />
    <g
       id="Eye">
      <path
         id="White"
         d="m 147.319,83.608 c 4.714,5.284 -3.229,13.113 -10.226,7.915 -2.729,-2.03 -2.284,-5.958 -0.742,-7.713 2.52,-2.867 8.169,-3.339 10.968,-0.202 z"
         inkscape:connector-curvature="0"
         style="fill:#ffffff" />
      <path
         id="Pupil"
         d="m 145.605,86.504 c 0.624,0 1.19,0.228 1.599,0.596 0.41,0.368 0.663,0.876 0.663,1.437 0,0.561 -0.253,1.069 -0.663,1.437 -0.409,0.368 -0.975,0.596 -1.599,0.596 -0.624,0 -1.19,-0.228 -1.599,-0.596 -0.41,-0.368 -0.663,-0.876 -0.663,-1.437 0,-0.561 0.253,-1.069 0.663,-1.437 0.409,-0.368 0.975,-0.596 1.599,-0.596 z"
         inkscape:connector-curvature="0"
         style="fill:#272525" />
    </g>
    <g
       id="Front_Wing">
      <path
         id="Outer"
         d="m 119.803,109.106 c -9.573,14.059 -10.623,49.921 -6.807,67.948 0.885,4.182 -0.854,11.071 -8.5,20.838 -3.402,4.349 -7.541,8.505 -13.109,12.14 0,0 -4.083,4.016 -14.891,8.887 -18.762,8.455 -54.576,0.16 -29.144,-27.678 7.616,-8.334 18.856,-14.521 24.381,-16.48 -2.47,-0.344 -15.189,-1.368 -15.762,-8.418 -0.729,-9.02 26.034,-10.301 26.034,-10.301 -5.891,-1.312 -13.021,-4.312 -12.393,-9.293 0.886,-6.988 15.23,-8.646 15.23,-8.646 -2.551,-2.065 -7.457,-5.159 -6.56,-8.394 0.896,-3.234 8.534,-6.106 11.321,-6.439 -4.671,-3.982 -5.694,-7.938 -4.23,-10.16 1.341,-2.514 7.984,-4.829 15.688,-4.648 0.873,-7.88 8.485,-12.027 12.073,-11.58 3.438,0.425 5.748,2.351 7.218,5.469 0.703,1.465 1.37,3.934 -0.549,6.755 z"
         inkscape:connector-curvature="0"
         style="fill:#279afa" />
      <path
         id="Inner_1_"
         d="m 119.803,109.106 c -9.573,14.059 -10.623,49.921 -6.807,67.948 0.885,4.182 -0.854,11.071 -8.5,20.838 -3.402,4.349 -7.541,8.505 -13.109,12.14 -8.221,5.444 -30.978,11.137 -38.12,3.287 -12.716,-13.975 33.801,-37.779 33.801,-37.779 -36.276,-11.67 7.138,-17.56 7.138,-17.56 -30.956,-13.478 1.198,-17.312 1.198,-17.312 -19.312,-12.312 4.775,-15.098 4.775,-15.098 -15.614,-11.561 0.889,-17.107 0.889,-17.107 0.875,-7.881 8.485,-12.026 12.073,-11.581 3.438,0.425 5.748,2.351 7.218,5.47 0.696,1.464 1.363,3.933 -0.556,6.754 z"
         inkscape:connector-curvature="0"
         style="fill:#0043a5" />
    </g>
  </g>
</svg>
