<?xml version="1.0" encoding="UTF-8" standalone="no"?>
<svg
   id="Layer_1"
   version="1.1"
   viewBox="0 0 234.90825 213.15103"
   sodipodi:docname="Parrot2.svg"
   width="234.90825"
   height="213.15103"
   xmlns:inkscape="http://www.inkscape.org/namespaces/inkscape"
   xmlns:sodipodi="http://sodipodi.sourceforge.net/DTD/sodipodi-0.dtd"
   xmlns="http://www.w3.org/2000/svg"
   xmlns:svg="http://www.w3.org/2000/svg">
  <sodipodi:namedview
     id="namedview101"
     pagecolor="#ffffff"
     bordercolor="#000000"
     borderopacity="0.25"
     inkscape:showpageshadow="2"
     inkscape:pageopacity="0.0"
     inkscape:pagecheckerboard="0"
     inkscape:deskcolor="#d1d1d1" />
  <!-- Generator: Adobe Illustrator 29.8.3, SVG Export Plug-In . SVG Version: 2.1.1 Build 3)  -->
  <defs
     id="defs4">
    <style
       id="style2">
      .st0 {
        fill: #fcfcfc;
      }

      .st1 {
        fill: #4d4d4d;
      }

      .st2 {
        fill: #004cde;
      }

      .st3 {
        fill: #fee000;
      }

      .st4 {
        fill: #2d2d2d;
      }

      .st5 {
        fill: #fff;
      }

      .st6 {
        fill: #0049d7;
      }

      .st7 {
        fill: #004cdd;
      }

      .st8 {
        fill: #0054f7;
      }

      .st9 {
        fill: #4c4c4c;
      }

      .st10 {
        fill: #060607;
      }

      .st11 {
        fill: #a8a93d;
      }

      .st12 {
        fill: #003395;
      }

      .st13 {
        fill: #0056fb;
      }

      .st14 {
        fill: #003bac;
      }

      .st15 {
        fill: #2b2b2b;
      }

      .st16 {
        fill: #0050ea;
      }

      .st17 {
        fill: #0053f3;
      }

      .st18 {
        fill: #0046cd;
      }

      .st19 {
        fill: #dadada;
      }

      .st20 {
        fill: #f8f8f8;
      }

      .st21 {
        fill: #242424;
      }

      .st22 {
        fill: #0048d1;
      }

      .st23 {
        fill: #0045c9;
      }

      .st24 {
        fill: #0056fd;
      }

      .st25 {
        fill: #0057fe;
      }

      .st26 {
        fill: #fdfdfd;
      }

      .st27 {
        fill: #004ad9;
      }

      .st28 {
        fill: #0046cb;
      }
    </style>
  </defs>
  <g
     id="g10"
     transform="translate(-20.986717,-18.28)">
    <path
       class="st14"
       d="m 65.1,144.76 c 0.87,0.06 1.93,0.63 3.15,1.68 1.76,-21.35 19.8,-24.3 48.24,-16.24 3.3,0.94 19.77,5.97 21.33,7.63 2.58,2.76 -6.79,2.15 -8.57,2.03 l -13.16,-1.72 c -5.43,0.52 -3.12,2.49 6.94,5.94 10.44,4.45 11.11,8.44 0.48,5.37 -21.63,-7.2 -15.04,-1.08 1.08,5.24 9.63,5.62 0.45,5.63 -4.53,4.09 L 109.3,156 c -5,-0.89 -2.82,1.54 6.54,7.3 1.55,0.94 5.19,3.99 4.03,4.85 -2.07,1.54 -15.7,-4.99 -19.9,-7.11 -2.98,-1.48 -3.43,0.07 -1.14,2.22 4.24,2.43 9.22,6.86 2.67,5.69 -5.33,-2.36 -10.03,-3.53 -14.08,-3.5 -2.73,-1.94 -6.67,-3.66 -9.69,-5.69 -5.06,-3.42 -15.57,-11.15 -12.62,-14.98 H 65.1 Z"
       id="path6" />
    <path
       d="m 70.23,128.24 c 8.68,-9.2 26.87,-7.42 44.98,-2.2 4.63,1.34 20.63,6.27 24.36,8.65 14.18,9 -3.85,10.21 -9.96,9.05 -0.25,0.28 0.65,0.71 1.04,1.02 1.68,0.85 3.22,2 4.62,3.44 3.2,3.33 3.9,5.62 0.54,6.5 0.22,0.29 0.38,0.53 0.31,0.62 -0.5,0.66 -5.07,-0.29 -6.55,-0.69 1.01,0.74 1.51,1.27 1.49,1.62 0.74,0.74 2.47,2.83 2.74,3.56 -0.09,1.07 -0.65,1.83 -1.7,2.29 -3.91,1.57 -10.94,-1.03 -13.16,-0.39 -0.89,0.25 0.1,0.74 0.46,1.12 2.07,2.16 7.77,6.32 6.03,8.24 -1.05,1.16 -6.25,0.48 -8.55,0.04 -1.63,-0.3 -6.66,-2.14 -6.97,-2.13 -0.34,0 1.14,3.51 -2.66,4.07 -3.08,0.46 -13.25,-2.56 -16.97,-4.99 -1.58,-1.03 -2.38,-2.27 -2.87,-2.62 0.25,-4.3 14.67,4.16 16.04,2.55 0.55,-0.65 -4.22,-3.26 -5.29,-4.23 -2.36,-2.09 -3.05,-4.8 -0.02,-4.34 1.48,0.23 9.35,4.46 12.13,5.51 3.05,1.16 5.94,1.88 8.87,2.53 -1.52,-3.6 -18.6,-11.1 -12.56,-12.64 3.07,-0.78 17.76,5.7 21.38,3.22 -4.08,-3.9 -13.4,-6.21 -17.29,-8.93 -3.49,-2.45 -2.56,-4.78 1.32,-3.97 5.87,1.23 13.31,4.83 18.77,4.33 -2.05,-1.63 -4.33,-2.78 -6.56,-3.89 -2.71,-1.35 -8.11,-2.87 -9.87,-4.03 -3.16,-2.08 -2.89,-4.1 -0.46,-4.43 2.91,-0.4 13.09,1.87 17.49,1.86 0.9,0 6.3,-0.14 6.02,-0.84 -19.49,-6.92 -43.13,-15.25 -56.47,-8.89 -3.73,1.77 -7.45,4.54 -9.18,7.99 -0.91,1.81 -1.62,9.8 -2.52,10.34 -1,0.59 -3.27,-1.8 -4.11,-2.76 -0.58,-0.67 -1.09,-0.83 -1.23,-1.75 -0.41,-2.63 1.11,-6.8 1.97,-8.88 l 0.64,-2.07 c 0.45,-0.81 1.14,-1.56 1.7,-2.29 l 2.04,-1.54 v -0.05 z"
       id="path8" />
  </g>
  <path
     class="st0"
     d="M 41.973283,4.32 V 0 c 1.08,2.76 0.72,1.85 0,4.32 z"
     id="path12" />
  <g
     id="g62"
     transform="translate(-20.986717,-18.28)">
    <path
       d="m 186.08,137.08 c 12.14,-3.26 20.89,-9.43 35.01,-10.71 19.56,-1.77 18.87,10.07 2.44,15.04 -0.15,1.26 2.03,0.68 2.87,0.71 2.1,-0.6 4.39,-0.7 6.48,0 6.17,0.46 23.72,3.78 16.61,12.65 l -13,5.35 c 4.15,0.38 18.67,4.9 19.32,9.17 0.97,6.35 -15.64,8.13 -20.05,8.12 2.42,2.43 9.92,5.6 5.79,9.74 -3.8,3.81 -22.61,1.25 -28.1,-0.03 -4.74,-1.11 -20.81,-7.81 -24.01,-6.73 -1.26,0.43 -8.86,14.34 -10.56,16.45 10.17,-1.15 16.13,15.78 5.95,17.88 -6.51,1.35 -5.89,-8.35 -10.99,-1.67 12.28,2.86 6.09,14.14 -3.03,16.45 -1.65,0.42 -8.22,1.74 -9.66,1.88 -5.79,0.58 -7.08,-3.97 -8.65,-4.24 -1.19,-0.21 -2.81,2.68 -4.54,3.23 -4.18,1.31 -5.35,-0.63 -8.36,-1.08 -3.27,-0.48 -5.56,0.9 -8.61,-1.47 -3.4,-2.64 -2.44,-6.29 -2.51,-10.09 -15.32,3.73 -29.1,1.25 -41.38,-8.66 -3.24,-2.62 -14.74,-14.83 -17.45,-15.67 -0.63,-0.19 -5.69,-0.93 -6.36,-0.91 -2.73,0.06 -7.82,6.8 -9.56,9.16 -3.19,4.33 -6.02,11.81 -8.76,15 -5.9,6.88 -17.52,-8.76 -19.96,-13.9 -6.91,-14.52 -5.13,-28.6 6.98,-39.4 6.6,-5.88 13.46,-8.45 22.33,-6.84 -3.82,-11.56 5.31,-30.23 18.91,-27.9 2.05,0.35 3.85,1.98 5.91,2.01 2.24,0.03 4.63,-1.54 7.19,-1.48 5.33,0.12 9.07,1.8 14.07,5.78 l 1.39,2.28 c 0.91,-0.02 5.46,-1.03 6.65,-1.17 0,0 21.12,-1.77 28.43,-1.57 10.85,0.31 43.45,2.62 44.89,2.62 1.33,0.53 2.77,0.53 4.32,0 z"
       id="path14" />
    <g
       id="g60">
      <path
         class="st0"
         d="m 232.88,142.12 c -2.13,-0.16 -4.34,0.07 -6.48,0 1.34,-1.21 5.14,-1.21 6.48,0 z"
         id="path16" />
      <path
         class="st25"
         d="m 214.88,138.52 c -3.54,1.26 -12.16,8.01 -5.76,10.8 -0.29,2.42 0.26,4.54 1.63,6.36 l -0.91,1.56 c 0.04,0.64 -1.33,3.01 -0.72,4.32 -0.44,0.74 -1.04,1.24 -1.8,1.51 1.15,5.3 -2.27,6.47 -10.27,3.53 -4.75,-0.51 -6.63,0.33 -10.19,3.6 l -1.5,-0.72 -0.75,2.13 c -3.82,2.41 -7,4.56 -9.72,8.21 -2.89,7.24 -12.73,13.52 -20.27,14.89 -1.73,3.37 -4.08,4.88 -7.04,4.55 -1.12,1.24 -2.21,1.88 -3.27,1.9 l -0.78,1.62 c -2.75,-0.32 -4.65,0.59 -5.7,2.7 -1.2,2.02 -7.97,1.63 -10.46,1.2 -3.43,-0.59 -7.64,-2.9 -6.16,-6.79 -0.98,-5.25 0.24,-9.47 3.66,-12.66 -0.95,-4.37 -1.26,-8.73 -0.94,-13.07 -1.9,-2.29 -3.69,-4.63 -5.38,-7.03 2.45,-5.92 1.41,-8.78 -3.12,-8.56 -4.01,-1.79 -8.1,-2.76 -12.28,-2.91 l -1.31,-1.3 c 0.83,-3.52 0.59,-7.98 0,-11.52 11.54,-1.93 23.18,-3.65 34.95,-2.91 15.52,0.97 41.15,6.64 55.61,3.11 7.17,-1.75 14.14,-5.04 21.04,-7.4 2.89,-0.61 3.74,1.03 1.44,2.88 z"
         id="path18" />
      <path
         class="st3"
         d="m 101.84,154.36 c 5.11,-0.77 8.96,1.16 13.5,2.7 1.84,0.62 3.17,-0.51 4.85,1.63 3.01,3.83 -0.69,6.54 -0.28,8.12 0.31,1.21 4.8,4.94 5.41,6.96 0.61,2.02 -0.5,3.38 -0.4,5.32 0.16,3.15 2.91,6.58 0.61,10.11 -0.66,1.01 -2.32,1.28 -2.69,2.35 -0.95,2.7 0.65,8.45 -0.83,11.76 1.87,-0.51 3.57,1.7 4.66,1.84 2.9,0.39 7.89,0.07 11.18,0.33 3.93,0.75 5.13,1.95 3.6,3.6 -9.5,1.47 -22.84,4.51 -32.03,3.59 -6.13,-0.61 -10,-3.43 -14.77,-6.47 -0.11,-0.7 0.1,-1.25 0.69,-1.63 6.24,-1 7.61,-1.53 10.01,-7.32 1.14,-2.76 5.18,-14.95 4.13,-17.22 -2.44,-2.9 -4.15,-6.04 -5.15,-9.41 -3.53,-1.88 -8.45,-4.58 -6.08,-9.06 1.12,-1.32 3.2,-5.48 3.6,-7.2 v 0 z"
         id="path20" />
      <path
         class="st1"
         d="m 37.76,208.36 c -18.11,-16.06 -9.5,-47.56 15.39,-45.27 1.31,0.12 10.83,1.68 11.22,2.1 0.31,0.33 -0.11,2.13 0.03,2.85 3.49,0.9 4,-3.25 7.2,-2.88 l -0.72,3.59 c 3.11,0.55 3.08,-1.97 2.88,-4.31 1,-0.24 1.42,0.32 2.16,0.72 4.6,6.17 -2.22,9.17 -7.25,11.37 -11.81,7.62 -23.24,17.38 -28.92,30.59 l -2,1.24 z"
         id="path22" />
      <path
         class="st25"
         d="m 94.64,206.2 c -4.63,-2.95 -9.07,-6.05 -12.96,-10.07 5.54,0.84 12.4,1.31 14.56,-5.24 3.83,-11.6 -11.06,-12.66 -10.97,-22.84 4.2,0 10.33,-3.37 12.96,-6.48 1.06,1.05 0.57,2.55 1.4,4 1.22,2.14 4.82,2.85 5.84,4.23 0.83,1.12 0.63,2.71 1.25,3.79 1.12,1.91 4.3,5.18 4.36,7.02 0.15,4.06 -4.31,18.72 -6.76,21.99 -1.79,2.39 -6.85,2.92 -9.7,3.62 z"
         id="path24" />
      <path
         class="st27"
         d="m 185.36,173.8 c -3.37,2.17 -9.12,14.05 -12.36,18.24 -6.07,7.83 -14.47,14.19 -24.36,16.32 -2.93,-0.2 -4.61,-1.16 -5.04,-2.88 -1.99,-0.91 -1.43,-3.92 0.72,-4.32 1.8,-5.28 5.98,-2.75 7.1,-3.71 0.23,-0.2 0.2,-1.7 0.78,-2.42 2.68,-3.34 5.06,-1.75 7.8,-3.03 0.69,-0.32 11.54,-8.28 11.99,-8.89 0.81,-1.1 1.01,-3.1 1.97,-4.51 2.65,-3.9 7.54,-6.56 11.4,-9.12 2.36,-0.03 1.79,3.35 0,4.32 z"
         id="path26" />
      <path
         class="st28"
         d="m 209.12,161.56 c 0.49,0.1 1.33,1.14 2.58,1.37 10.44,1.88 21.25,1.91 31.26,5.84 -0.28,1.45 -1.52,1.17 -2.52,1.43 -2.3,0.58 -8.55,1.46 -10.83,1.47 -3.86,0.02 -18.78,-3.6 -20.49,-2.56 -1.88,1.14 -1.62,4.31 0.03,5.75 1.89,1.65 12.02,4.37 15.09,5.42 0.66,0.69 0.18,0.93 -1.44,0.72 -10,-1.29 -16.05,-4.3 -25.21,-6.83 -4.11,-1.14 -8.39,-2.84 -12.23,-0.37 v -4.32 c 5.11,-3.38 4.36,-5.02 11.88,-4.31 1.83,0.17 7.96,2.26 9,1.42 0.29,-0.23 -2.36,-6.08 2.88,-5.03 z"
         id="path28" />
      <path
         class="st4"
         d="m 75.92,165.16 c 4.66,2.48 3.04,9.2 5.43,12.93 1.58,2.46 12.16,6.61 8.65,11.6 -1.7,2.41 -16.39,-2.83 -19.84,-1.49 -0.77,-1.88 2.99,-1.96 3.85,-1.9 3.11,0.23 8.82,4.5 10.26,-0.24 0.71,-2.33 -0.99,-3.39 -2.81,-4.48 -14.55,-8.78 -30.72,11.7 -37.53,22.53 -0.82,1.31 -2.55,5.61 -3.28,6.09 -1.65,1.08 -2.15,-1.15 -2.9,-1.82 4.57,-13.42 17.86,-25.19 29.58,-32.7 4.95,-3.17 10.1,-2.68 8.58,-10.5 v -0.02 z"
         id="path30" />
      <path
         class="st9"
         d="m 183.21,209.8 c -3.1,-12.69 -19.32,2.61 -15.85,8.81 1.51,2.7 7.28,-0.04 7.92,0.55 -0.32,4.62 -8.01,7.22 -10.38,2.82 -1.2,-2.23 -0.05,-5.69 -3.54,-5.48 -3.75,0.23 -1.61,6.78 -0.48,9.12 -5.79,0.07 -5.04,-8.88 -2.5,-12.22 0.46,-0.6 11.15,-7.39 12.66,-8.22 0.76,-0.42 6.55,-3.13 6.93,-3.18 3.97,-0.53 10.41,4.61 5.24,7.78 z"
         id="path32" />
      <path
         class="st22"
         d="m 209.12,149.32 c 1.29,0.56 11.62,0.06 14.07,0.03 2.57,-0.03 4.9,-0.89 7.92,-0.78 3.02,0.11 6.49,1.43 9.69,1.47 -0.2,1.21 -1.4,1.29 -2.32,1.64 -9.29,3.55 -19.53,2.44 -28.64,5.56 -0.09,-1.48 -4.34,-4.29 -0.72,-7.92 z"
         id="path34" />
      <path
         class="st15"
         d="m 144.32,216.29 c -4.42,7.08 2.71,6.03 3.6,7.2 0.98,1.29 -2.38,4.06 -5.45,2.2 -3.23,-1.96 -2,-8.36 -6.79,-7.25 l 0.71,6.48 c -3.6,0.02 -4.43,-6.08 -2.18,-7.58 1.25,-0.84 7.92,-0.18 10.11,-1.04 v 0 z"
         id="path36" />
      <path
         class="st20"
         d="m 69.43,144.28 c -3.32,-1.87 -3.66,-1.22 -6.87,-0.74 -2.76,0.41 1.4,-4.8 2.1,-5.48 1.94,-1.89 10.23,-5.12 8.75,-1.7 -0.83,1.93 -4.47,4.79 -3.98,7.92 z"
         id="path38" />
      <path
         class="st20"
         d="m 70.16,158.67 c -5.94,2.04 -10.7,-2.56 -10.07,-8.63 1.73,3.53 7.33,1.98 7.95,2.46 0.97,0.73 0.65,4.84 2.12,6.18 v 0 z"
         id="path40" />
      <path
         class="st11"
         d="m 143.6,205.48 c 1.21,0.2 4.56,1.59 5.04,2.88 -2.28,0.49 -5.02,0.38 -7.2,0.72 -0.31,-1.54 -3.34,-2.75 -3.6,-3.6 0.41,-2.08 5.68,-2.35 5.76,0 z"
         id="path42" />
      <path
         class="st6"
         d="m 213.44,135.64 c 3.49,-1.2 7.03,-2.43 10.8,-2.15 l -9.36,5.03 c 0.12,-1.26 -0.12,-2.51 -1.44,-2.88 z"
         id="path44" />
      <path
         class="st19"
         d="m 67.28,145 c 1.19,1.18 -1.84,4.56 -2.87,1.79 -0.92,-2.48 2.56,-2.1 2.87,-1.79 z"
         id="path46" />
      <path
         class="st21"
         d="m 150.8,219.88 c -1.5,1.73 -3.3,-3.4 0.72,-4.32 -0.34,0.81 -0.57,4.15 -0.72,4.32 z"
         id="path48" />
      <path
         class="st12"
         d="m 224.24,180.28 c 0.95,0.32 1.82,0.83 2.88,0.73 v 0.7 c -1.62,0.74 -3.4,-0.59 -4.32,-0.71 z"
         id="path50" />
      <path
         class="st16"
         d="m 144.32,201.16 c -0.55,1.63 -0.23,2.91 -0.72,4.32 -1.69,-0.28 -3.94,0.14 -5.76,0 -1.47,-4.74 3.88,-3.58 6.48,-4.32 z"
         id="path52" />
      <g
         id="g58">
        <path
           class="st26"
           d="m 85.75,135.85 c 2.44,-0.12 7.21,2.77 8.5,4.86 6.22,10.1 -4.68,27.12 -15.27,18.87 -8.71,-6.79 -2.73,-23.26 6.77,-23.73 z"
           id="path54" />
        <path
           class="st10"
           d="m 81.68,144.28 2.24,-0.17 c 1.83,1.3 1.7,0.13 3.19,4.42 1.49,4.29 -8.26,6.21 -9.04,1.86 -0.49,-2.76 0.26,-6.26 3.61,-6.11 z"
           id="path56" />
      </g>
    </g>
  </g>
  <g
     id="g96"
     transform="translate(-20.986717,-18.28)">
    <path
       d="m 250.11,138.65 c 1.59,0.32 3.31,1.12 4.55,2.17 0.14,0.11 1.16,2.25 1.22,2.45 0.11,1 -0.4,1.66 -1.09,2.29 -5.16,4.61 -14.81,3.89 -23.08,4.89 1.45,1.41 3.5,2.7 6.13,3.86 3.44,2.27 7.67,5.07 8.11,8.08 0.02,0.95 -0.4,1.67 -1.09,2.29 -3.62,2.82 -10.93,2.8 -17.24,2.14 -1.47,-0.15 -7.47,-1.5 -7.81,-1.46 -1.9,0.18 2.27,2.06 2.82,2.49 3.95,3.13 5.51,5.5 3.24,8.09 -3.35,3.83 -24.27,-1.66 -31.35,-4.41 10.74,13.16 0.42,13.84 -14.55,7.09 0.03,0.79 1.38,1.47 1.98,2.57 1.14,2.09 1.14,4.02 -0.46,5.2 -4.66,3.43 -20.45,-6.13 -21.46,-6.04 -0.53,0.04 -0.55,2.75 -4.5,1.48 -4.72,-1.52 -10.05,-6.21 -11.01,-6.5 -1.17,-0.36 -1.94,1.39 -6.16,-0.62 -5.01,-2.39 -7.91,-6.37 -8.52,-9.73 l 0.18,-0.38 c 0.8,-3.5 7,2.16 9.07,4.58 3.19,-1.84 7.37,-0.15 12.53,5.09 1.08,-3.76 5.09,-3.05 12.04,2.12 8.34,4.44 15.6,8.19 5.16,-1.75 -2.7,-2.85 -2.31,-7.38 2.4,-4.41 0.49,-0.63 1.66,-0.52 3.51,0.31 l 11.84,5.24 c 7.89,3.38 5.8,0.64 -6.29,-8.23 -3.22,-2.57 -3.05,-5.26 0.92,-5.13 3.01,0.1 20.6,5.49 24.42,6.98 0.8,0.31 1.45,0.87 2.03,1.38 3.69,0.33 7.31,0.53 10.88,0.57 l -0.25,-1.11 c -1.93,-0.1 -2.73,-0.64 -2.42,-1.62 -0.14,0.16 -0.31,0.29 -0.54,0.35 -0.53,0.14 -11.45,-5.46 -13.02,-6.38 l -0.55,-1.18 c -4.39,-1.05 -4.04,-4.6 -0.83,-4.85 9.58,1.94 19.04,3.57 28.39,4.89 2.35,-0.43 4.54,-0.32 6.56,0.34 0.48,-0.7 1.23,-1.1 2.25,-1.21 -1.34,-0.89 -2.04,-1.72 -2.09,-2.46 -2.03,-0.41 -4.23,-1.19 -6.6,-2.35 -7.09,-2.29 -14.18,-4.17 -21.27,-5.63 l -1.24,-1.24 c -3,-0.03 -5.01,-0.83 -6.03,-2.41 -2.9,-0.56 -2.48,-3.78 -0.03,-3.29 -0.17,-1.65 4.88,-1.1 6.11,0.58 l 1.59,-0.68 c 10.59,1.43 29.24,3.43 36.12,-0.43 1.03,-0.58 -29.31,-5.66 -32.31,-6.13 -1.03,-0.31 -1.99,-0.77 -2.88,-1.38 l -2.04,0.62 c -30.45,-4.03 -54.57,2.47 -73.14,13.27 -2.47,1.22 -12.72,4.53 -15.97,3.05 -0.41,-0.19 -0.8,-0.42 -1.19,-0.67 -0.32,-0.22 -0.89,-0.4 -1.3,-0.62 -2.14,-1.12 -1.4,-1.76 -0.39,-2.53 1.87,-1.12 6.09,-1.51 8.66,-2.47 7.28,-2.71 13.04,-6.95 20.2,-9.8 11.25,-4.48 26.89,-7.18 41.6,-7.42 15.64,-0.25 29.09,3.18 45.71,6.45 5.46,1.08 13.2,1.54 18.49,3.6 v 0 z"
       id="path64" />
    <path
       class="st25"
       d="m 209.49,135.17 0.57,0.67 c -1.59,2.22 -1.72,2.71 1.41,5.65 0.08,0.69 -3.29,2.28 -4.5,2.3 -2.18,-0.34 -4.08,-0.66 -6.11,-0.58 -5.58,-3.69 -11.08,-5.39 -17.34,-6.31 -4.2,-0.61 -9.67,-1.21 -4.58,3.35 2.19,0.5 5.19,2.07 3.4,3.07 -10.24,0.1 -11.98,2.2 -5.21,6.28 0.42,1.68 -1.51,1.91 -5.79,0.67 -1.82,-0.19 -2.61,0.57 -2.4,2.3 l -0.99,0.52 c -7.34,-2.18 -10.08,-1.54 -8.22,1.92 l -0.62,0.91 c -4.16,-0.42 -5.93,-0.46 -6.53,2.36 -2.75,0 -4.98,0.58 -6.71,1.77 -5.34,-1.31 -13.2,-3.08 -13.06,1.54 -1.85,0.37 -2.42,1.2 -1.71,2.47 l -1.09,0.54 c 0,0.15 -0.21,0.24 -0.18,0.38 -0.66,-1.25 -3.55,-3.51 -4.06,-4.4 -0.46,-0.81 -0.28,-3.39 -0.87,-3.96 -0.75,-0.72 -2.6,-0.86 -3.87,-1.66 -1.2,-0.76 -2.57,-2.63 -3.88,-3.52 13.62,0.43 21.48,-6.7 31.28,-10.65 15.37,-6.2 39.3,-9.1 61.07,-5.62 z"
       id="path66" />
    <path
       class="st27"
       d="m 215.86,168.62 c 1.27,0.76 0.97,1.4 -0.91,1.91 -0.31,0.96 -2.08,1 -5.3,0.13 l -2,0.12 c -8.49,-1.87 -16.57,-5.41 -23.93,-7.09 -2.97,-0.68 -5.56,-0.28 -3.76,2.32 1.18,1.71 16.32,11.24 12.1,12.28 -1.83,0.45 -14.45,-5.49 -17.1,-6.73 -1.12,-0.53 -2.87,-0.75 -3.76,-1.33 -2.53,-1.64 -3.52,-6.39 -0.7,-6.89 -0.57,-1.11 0.19,-1.13 1.32,-1.15 -1.32,-0.88 -1.81,-1.33 -2,-2.45 0,-0.16 0.24,-0.27 0.18,-0.38 l 0.26,-0.98 6.25,0.69 c 1.51,-0.59 2.95,-0.8 4.31,-0.63 0.07,0 1.16,0.74 1.46,0.4 0.46,-0.53 -0.4,-2 0.62,-2.81 2.61,-2.09 11.85,3.11 15.52,4.69 1.39,0.6 3.14,0.61 3.32,0.69 2.39,1.01 11.23,5.66 14.11,7.21 v 0 z"
       id="path68" />
    <path
       class="st7"
       d="m 209.49,135.17 c 10.77,1.72 23.95,4.01 34.79,6.24 0.74,0.15 3.76,0.7 4.01,1.06 -9.87,4.98 -26.78,3.61 -41.32,1.33 0.31,-1.61 1.68,-2.09 3.58,-2.49 -4.34,-2.53 -3.38,-4.55 -1.06,-6.13 v 0 z"
       id="path70" />
    <path
       class="st8"
       d="m 207.64,170.78 c 0.45,-1.68 4.29,-0.14 7.3,-0.26 0.85,-1.09 1.96,-1.19 3.33,-0.28 0.72,0.52 2,0.78 2.31,1.8 -3.48,1.2 -8.49,-0.28 -12.94,-1.26 z"
       id="path72" />
    <path
       class="st2"
       d="m 218.27,170.24 c -1.24,-0.06 -2.1,0.24 -3.33,0.28 l 0.91,-1.91 c 1.44,0.78 1.42,0.9 2.42,1.62 v 0 z"
       id="path74" />
    <g
       id="g94">
      <path
         class="st2"
         d="m 236.03,158.13 c 2.04,2.19 1.99,3.41 -0.16,3.67 -4.36,0.97 -7.88,0.76 -13.48,-0.1 -4,-0.62 -19.95,-4.92 -21.66,-4.04 -1.44,0.74 -1.04,2.48 1.02,3.75 0.7,1.42 -1.46,0.8 -2.99,0.34 l -8.52,-3.85 c -4.29,-1.56 -7.07,-2.52 -6.53,1.24 -0.83,1.1 -2.61,0.92 -2.87,-0.7 l -1.3,0.32 c -6.33,-3.56 -9.87,-4.49 -9.51,0.6 0.5,0.4 0.44,0.52 -0.18,0.38 1.8,1.39 1.81,3.39 -0.62,2.98 q -2.11,-0.05 0,0 c 0.58,-1 1.21,-0.63 1.3,0.62 0.21,0.97 0.09,1.98 -0.35,3.04 0.64,1.46 0.99,2.74 1.05,3.85 -3.87,-0.6 -3.12,1.73 -1.49,3.96 2.19,3 12.04,11.05 0.87,6.5 -1.88,-0.77 -4.72,-2.12 -6.52,-3.09 -5.09,-2.74 -11.32,-8.62 -10.85,-1.46 -3.69,-1.29 -7.81,-7.48 -11.46,-6.86 -1.24,0.21 -1.75,1.41 -1.9,1.42 -1.64,0.04 -6.29,-7.73 -9.84,-6.1 -0.07,-0.85 -1.09,-1.6 -0.38,-2.75 0.48,-0.77 1.65,-0.67 2.01,-1.03 0.79,-0.81 -0.5,-1.98 1.61,-2.8 0.75,-0.29 5.78,-0.35 6.89,-0.21 1.4,0.18 4.68,1.34 5.07,1.31 0.23,-0.02 2.17,-1.38 3.49,-1.67 0.92,-0.2 2.57,0.25 3.03,-0.1 0.41,-0.32 0.02,-1.22 0.32,-1.58 1.81,-2.14 6.24,-0.36 6.45,-0.73 0.21,-0.37 -2.45,-2.95 0.8,-4.02 2.67,-0.88 7.23,1.4 8.24,1.11 0.4,-0.12 0.07,-1.43 0.39,-1.94 1.36,-2.21 5.96,0.18 8.85,0 -11.74,-6.84 -1.22,-7.56 5.3,-7.76 -0.8,-0.87 -2.26,-0.76 -3.6,-1.47 -3.2,-1.71 -3.59,-4.34 -1.49,-5.39 1.78,-0.89 13.5,1.69 16.4,2.8 2.11,0.81 7.28,3.08 7.46,4.84 0.08,0.79 -1.34,1.77 0.03,3.29 l 0.08,0.93 c -3.67,0.83 -10.39,3.36 -1.21,1.91 1.45,-1.35 3.83,-1.5 7.16,-0.43 8.7,2.42 21.42,4.12 29.11,9.22 z"
         id="path76" />
      <g
         id="g92">
        <path
           class="st24"
           d="m 206.92,148.91 -4.46,0.23 c -1.82,1.89 -7.18,2.88 -10.52,-0.6 2.37,0.41 7.55,-2.49 8.95,-2.05 1.64,0.52 3.97,1.84 6.03,2.41 v 0 z"
           id="path78" />
        <path
           class="st17"
           d="m 236.03,158.13 c 1.28,0.85 2.97,1.51 3.38,2.83 -0.36,1.17 -2.68,0.65 -3.53,0.84 1.11,-1.17 -0.09,-2.53 -1.23,-4.1 l 1.39,0.43 z"
           id="path80" />
        <path
           class="st23"
           d="m 180.82,158.45 c -0.21,0.04 -0.87,1.29 -2.7,1.54 -2.41,0.34 -5.6,-0.72 -8.12,-0.62 -0.2,-0.35 -1.95,-0.62 -1.15,-2.67 1.66,-4.26 6.83,-0.63 11.96,1.75 v 0 z"
           id="path82" />
        <path
           class="st18"
           d="m 145.55,165.47 c -0.72,0.52 -11.99,-0.8 -12.51,-3.87 0.43,-1.44 2.78,1.39 4.06,1.5 0.63,0.06 1.39,-0.56 2.26,-0.59 3.27,-0.13 3.76,1.39 6.18,2.96 z"
           id="path84" />
        <path
           class="st18"
           d="m 145.55,165.47 c 1.33,-0.97 1.12,-3.41 5.69,-1.07 5.04,2.58 -1.24,3.96 -5.69,1.07 z"
           id="path86" />
        <path
           class="st27"
           d="m 169.21,162.72 c -1.31,1.84 -5.79,0.07 -6.48,0.2 -0.2,0.04 0.74,1.87 -0.39,1.66 -1.63,-2.23 1.05,-3.54 3.66,-3.04 1.41,0.27 2.42,0.98 3.21,1.18 z"
           id="path88" />
        <path
           class="st13"
           d="m 169.83,159.75 4.83,3.25 -4.16,0.35 c -0.42,-0.15 -0.94,-0.53 -1.3,-0.62 0.37,-0.52 0.68,-2.28 0.62,-2.98 z"
           id="path90" />
      </g>
    </g>
  </g>
  <ellipse
     class="st5"
     cx="23.648203"
     cy="141.48407"
     rx="1.7"
     ry="1.89"
     transform="rotate(-16.41)"
     id="ellipse98" />
</svg>
