<svg version="1.1" width="107" height="164" xmlns="http://www.w3.org/2000/svg" xmlns:xlink="http://www.w3.org/1999/xlink">
  <!-- Exported by Scratch - http://scratch.mit.edu/ -->
  <g id="ID0.1114896503277123" transform="matrix(0.949999988079071, 0, 0, 0.949999988079071, -0.3, 0.05)">
    <g id="Back_Foot_1_">
      <path id="ID0.6249615093693137" fill="#F7941E" d="M 101.780 182.414 C 101.539 182.414 101.295 182.396 101.050 182.359 C 98.212 181.932 95.782 179.981 93.781 178.130 C 89.247 173.931 87.061 168.964 87.284 163.369 L 87.343 161.912 L 89.282 161.933 C 91.886 161.933 94.178 161.687 96.289 161.182 L 97.200 160.964 L 97.796 161.688 C 98.942 163.078 102.139 163.078 103.341 163.078 C 103.626 163.078 103.903 163.075 104.163 163.071 C 104.964 163.064 105.756 163.006 106.596 162.941 C 107.501 162.874 108.441 162.802 109.396 162.802 L 109.542 162.803 C 112.370 162.820 113.821 163.742 113.919 165.552 C 113.950 166.125 113.749 166.676 113.353 167.096 C 112.739 167.743 111.780 167.969 110.742 168.037 C 112.076 168.822 112.715 170.235 112.647 171.564 C 112.557 173.330 111.168 175.117 108.684 175.117 C 108.369 175.117 108.038 175.088 107.705 175.029 C 106.144 174.756 104.563 174.051 102.872 172.879 C 102.816 172.934 102.764 173.025 102.764 173.077 C 103.786 173.993 104.657 175.046 105.409 176.243 C 106.243 177.583 106.330 179.053 105.648 180.278 C 104.912 181.596 103.433 182.414 101.780 182.414 L 101.780 182.414 Z " transform="matrix(0.7718464732170105, 0, 0, 0.7718464732170105, 1.95, 3.85)"/>
      <path id="ID0.13570731366053224" d="M 96.638 162.640 C 98.072 164.381 101.014 164.577 103.340 164.577 C 103.632 164.577 103.913 164.574 104.183 164.570 C 105.924 164.554 107.651 164.301 109.395 164.301 C 109.440 164.301 109.485 164.302 109.530 164.302 C 110.411 164.308 112.348 164.284 112.421 165.631 C 112.469 166.485 110.869 166.567 109.739 166.567 C 109.473 166.567 109.235 166.562 109.049 166.562 C 108.928 166.562 108.826 166.564 108.758 166.571 C 107.563 166.683 107.086 167.490 107.362 168.135 C 107.253 168.145 107.149 168.158 107.057 168.176 C 107.066 168.176 107.075 168.176 107.082 168.176 C 107.186 168.176 107.290 168.191 107.394 168.197 C 107.582 168.565 108.020 168.869 108.722 168.941 C 112.014 169.276 111.915 173.616 108.682 173.616 C 108.456 173.616 108.216 173.595 107.961 173.552 C 106.396 173.277 104.958 172.508 103.673 171.611 C 103.408 171.427 103.137 171.347 102.874 171.347 C 101.644 171.347 100.637 173.108 101.724 174.122 C 102.665 175.001 103.449 175.946 104.135 177.040 C 105.450 179.152 103.763 180.913 101.781 180.913 C 101.614 180.913 101.445 180.900 101.276 180.875 C 98.781 180.500 96.581 178.676 94.799 177.027 C 90.758 173.284 88.570 168.789 88.782 163.427 C 88.949 163.429 89.115 163.430 89.281 163.430 C 91.835 163.432 94.283 163.203 96.638 162.640 M 97.763 159.287 L 95.940 159.724 C 93.944 160.202 91.766 160.434 89.283 160.434 C 89.129 160.434 88.973 160.433 88.818 160.431 L 85.902 160.398 L 85.786 163.312 C 85.545 169.364 87.891 174.720 92.763 179.232 C 94.934 181.240 97.587 183.358 100.830 183.845 C 101.142 183.892 101.462 183.915 101.781 183.915 C 103.978 183.915 105.962 182.802 106.957 181.009 C 107.737 179.604 107.811 177.992 107.195 176.461 C 107.277 176.479 107.360 176.493 107.443 176.509 C 107.863 176.581 108.280 176.618 108.682 176.618 C 111.700 176.618 113.995 174.525 114.143 171.641 C 114.195 170.627 113.964 169.674 113.516 168.846 C 113.850 168.658 114.161 168.421 114.440 168.125 C 115.125 167.402 115.470 166.457 115.416 165.466 C 115.351 164.227 114.650 161.330 109.613 161.302 L 109.550 161.302 L 109.397 161.301 C 108.384 161.301 107.418 161.373 106.485 161.445 C 105.672 161.507 104.904 161.563 104.159 161.570 C 103.890 161.574 103.622 161.577 103.345 161.577 C 100.131 161.577 99.216 161.050 98.956 160.733 L 97.763 159.287 L 97.763 159.287 Z " transform="matrix(0.7718464732170105, 0, 0, 0.7718464732170105, 1.95, 3.85)"/>
    </g>
    <g id="Front_Foot_2_">
      <path id="ID0.06999378418549895" fill="#F7941E" d="M 80.534 205.683 C 79.773 205.683 79 205.524 78.295 205.222 C 75.074 203.848 72.859 200.896 70.944 197.910 C 66.809 191.454 65.731 184.814 67.739 178.177 L 68.161 176.781 L 69.568 177.164 C 73.005 178.099 76.100 178.579 79.031 178.637 L 79.969 178.656 L 80.364 179.507 C 81.440 181.822 85.677 182.863 87.954 183.424 C 88.943 183.671 89.934 183.851 90.985 184.040 C 92.161 184.253 93.379 184.474 94.587 184.796 C 95.838 185.130 99.388 186.075 98.775 189.081 C 98.686 189.519 98.225 190.959 96.041 190.959 L 96.041 190.959 C 94.962 190.959 93.695 190.617 92.858 190.393 C 92.615 190.328 92.420 190.272 92.300 190.249 C 92.289 190.248 92.279 190.246 92.272 190.245 C 94.940 191.236 95.796 193.560 95.461 195.425 C 95.086 197.513 93.332 198.971 91.195 198.971 C 90.400 198.971 89.573 198.778 88.737 198.397 C 86.954 197.583 85.275 196.237 83.603 194.282 C 83.515 194.179 83.466 194.179 83.431 194.179 C 83.252 194.179 82.972 194.344 82.836 194.588 C 82.737 194.768 82.779 194.860 82.836 194.949 C 83.774 196.428 84.487 197.955 85.017 199.621 C 85.504 201.183 85.309 202.672 84.464 203.820 C 83.609 204.986 82.139 205.683 80.534 205.683 L 80.534 205.683 Z " transform="matrix(0.7718464732170105, 0, 0, 0.7718464732170105, 1.95, 3.85)"/>
      <path id="ID0.22005585068836808" d="M 69.175 178.611 C 72.498 179.514 75.757 180.073 79.003 180.135 C 80.352 183.034 84.649 184.153 87.596 184.876 C 89.780 185.423 92.022 185.659 94.200 186.241 C 95.272 186.528 97.643 187.114 97.304 188.777 C 97.200 189.285 96.693 189.455 96.038 189.455 C 94.802 189.455 93.045 188.848 92.538 188.766 C 92.358 188.737 92.189 188.723 92.030 188.723 C 90.858 188.723 90.223 189.460 90.339 190.231 C 90.202 190.210 90.071 190.193 89.953 190.184 C 90.089 190.216 90.224 190.273 90.359 190.320 C 90.473 190.828 90.911 191.339 91.743 191.647 C 95.309 192.971 94.380 197.467 91.194 197.467 C 90.645 197.467 90.029 197.332 89.358 197.028 C 87.536 196.196 86.026 194.804 84.743 193.303 C 84.364 192.861 83.897 192.675 83.431 192.675 C 82.044 192.675 80.660 194.313 81.570 195.748 C 82.441 197.119 83.095 198.519 83.587 200.070 C 84.390 202.632 82.586 204.181 80.534 204.181 C 79.988 204.181 79.424 204.072 78.887 203.841 C 75.962 202.594 73.858 199.671 72.207 197.099 C 68.464 191.256 67.219 185.081 69.175 178.611 M 67.149 174.951 L 66.305 177.743 C 64.163 184.820 65.300 191.878 69.682 198.721 C 71.627 201.757 74.105 205.067 77.709 206.605 C 78.607 206.990 79.560 207.185 80.534 207.185 C 82.613 207.185 84.535 206.259 85.674 204.706 C 86.810 203.163 87.084 201.199 86.449 199.177 C 86.404 199.034 86.359 198.895 86.311 198.755 C 86.901 199.145 87.499 199.479 88.113 199.758 C 89.148 200.230 90.183 200.469 91.195 200.469 C 94.070 200.469 96.431 198.502 96.937 195.689 C 97.140 194.555 97.011 193.439 96.603 192.433 C 98.861 192.222 99.963 190.755 100.244 189.374 C 100.577 187.739 100.348 184.777 95.056 183.367 L 94.974 183.346 C 93.703 183.006 92.455 182.781 91.249 182.562 C 90.226 182.376 89.256 182.202 88.320 181.968 C 86.422 181.500 82.494 180.534 81.721 178.871 L 80.931 177.173 L 79.058 177.137 C 76.250 177.081 73.275 176.617 69.958 175.717 L 67.149 174.951 L 67.149 174.951 Z " transform="matrix(0.7718464732170105, 0, 0, 0.7718464732170105, 1.95, 3.85)"/>
    </g>
    <g id="Wing_Back_1_">
      <path id="ID0.6576538775116205" fill="#0062A3" d="M 97.274 102.511 C 97.054 102.511 96.836 102.505 96.619 102.491 L 96.032 102.460 L 83.744 77.130 L 85.685 77.487 C 86.647 77.664 87.621 77.753 88.578 77.753 C 95.008 77.753 100.476 73.820 106.267 69.657 C 112.432 65.224 118.807 60.641 126.796 60.641 C 127.679 60.641 128.576 60.699 129.464 60.811 C 132.141 61.152 133.667 62.022 134.131 63.472 C 135.053 66.355 130.969 70.127 127.365 73.454 C 126.283 74.454 125.261 75.398 124.575 76.146 C 120.453 81.221 117.222 86.230 113.360 92.653 C 110.447 97.498 103.632 102.511 97.274 102.511 C 97.275 102.511 97.275 102.511 97.274 102.511 Z " transform="matrix(0.7718464732170105, 0, 0, 0.7718464732170105, 1.95, 3.85)"/>
      <path id="ID0.9325869199819863" d="M 126.797 61.640 C 127.626 61.640 128.475 61.693 129.339 61.803 C 139.347 63.076 127.505 71.470 123.839 75.470 C 119.505 80.804 116.151 86.076 112.505 92.137 C 109.646 96.891 103.125 101.511 97.274 101.511 C 97.074 101.511 96.874 101.505 96.673 101.493 L 85.505 78.470 C 86.555 78.663 87.577 78.753 88.577 78.753 C 102.374 78.753 111.781 61.640 126.797 61.640 M 126.797 59.640 C 118.485 59.640 111.978 64.319 105.685 68.844 C 100.028 72.911 94.686 76.752 88.579 76.752 C 87.683 76.752 86.769 76.668 85.868 76.502 L 81.982 75.789 L 83.707 79.343 L 94.875 102.366 L 95.389 103.426 L 96.564 103.491 C 96.800 103.504 97.039 103.511 97.276 103.511 C 104.242 103.511 111.206 98.182 114.221 93.168 C 118.049 86.803 121.249 81.837 125.355 76.779 C 126.012 76.068 127.001 75.154 128.047 74.189 C 132.057 70.486 136.202 66.657 135.086 63.167 C 134.203 60.405 130.732 59.964 129.593 59.819 C 128.662 59.700 127.722 59.640 126.797 59.640 L 126.797 59.640 Z " transform="matrix(0.7718464732170105, 0, 0, 0.7718464732170105, 1.95, 3.85)"/>
    </g>
    <g id="Body_2_">
      <g id="Body_3_">
        <path id="ID0.8946978682652116" fill="#0062A3" d="M 63.385 182.539 C 56.850 182.539 49.910 181.252 43.198 180.007 C 43.010 179.972 42.751 179.912 42.377 179.828 C 41.932 179.725 41.309 179.584 40.544 179.420 C 35.093 178.250 29.902 177.633 25.535 177.633 C 24.523 177.633 23.539 177.666 22.609 177.731 C 22.588 177.733 21.048 177.817 20.420 177.817 C 8.835 177.817 -0.338 164.260 -0.500 152.597 L -0.496 152.461 C 0.089 144.853 4.478 142.752 8.350 140.900 C 11.730 139.283 14.649 137.885 15.523 132.979 C 16.107 129.697 16.294 125.849 16.493 121.777 C 16.741 116.684 16.997 111.420 18.021 106.127 C 18.831 101.951 19.827 98.298 20.980 94.066 C 22.908 86.996 25.092 78.982 27.318 65.307 C 28.164 60.114 25.746 55.315 23.185 50.236 C 19.985 43.888 16.359 36.694 18.631 27.495 C 25.015 -2.687 62.421 -3.035 64.010 -3.035 C 64.741 -3.035 65.301 -3.007 65.672 -2.952 C 68.394 -2.557 71.416 -1.232 72.706 -0.665 C 72.889 -0.585 73.033 -0.521 73.134 -0.480 C 78.527 1.757 83.588 6.605 86.125 9.296 C 87.617 10.878 88.666 12.163 88.935 12.570 C 89.385 13.256 89.843 14.021 90.335 14.910 C 90.354 14.937 90.398 15.013 90.442 15.092 L 90.721 15.619 C 91.261 16.645 91.712 17.582 92.100 18.487 C 92.151 18.606 92.198 18.731 92.236 18.858 C 92.480 19.429 92.719 20.004 92.957 20.581 L 93.033 20.766 L 93.056 20.965 C 93.704 26.188 92.582 35.421 90.790 39.604 C 89.076 43.608 86.901 46.132 84.984 48.360 C 78.460 55.937 74.520 60.510 108.597 122.651 C 109.885 125.003 110.928 127.430 111.698 129.874 L 111.726 129.978 C 113.401 137.082 112.728 144.207 109.724 151.155 C 106.872 157.753 101.912 164.128 94.982 170.102 C 81.694 181.549 70.703 182.440 67.649 182.440 C 67.251 182.440 66.953 182.425 66.759 182.415 C 65.653 182.496 64.517 182.539 63.385 182.539 L 63.385 182.539 Z " transform="matrix(0.7718464732170105, 0, 0, 0.7718464732170105, 1.95, 3.85)"/>
        <path id="ID0.13931147987022996" d="M 64.010 -1.536 C 64.463 -1.536 65.082 -1.524 65.453 -1.470 C 68.372 -1.046 71.766 0.577 72.561 0.905 C 77.457 2.935 82.192 7.311 85.033 10.323 C 86.512 11.890 87.484 13.095 87.680 13.393 C 88.108 14.044 88.546 14.777 89.021 15.635 C 89.060 15.698 89.097 15.759 89.132 15.822 L 89.395 16.319 C 89.916 17.308 90.349 18.210 90.721 19.077 C 90.762 19.172 90.795 19.270 90.825 19.369 C 91.077 19.958 91.325 20.552 91.568 21.148 C 92.199 26.222 91.068 35.145 89.413 39.012 C 81.653 57.145 63.565 43.647 107.285 123.370 C 108.590 125.751 109.558 128.065 110.268 130.321 C 111.870 137.108 111.235 143.883 108.349 150.556 C 105.586 156.950 100.759 163.140 94.004 168.963 C 81.109 180.070 70.573 180.936 67.650 180.936 C 67.648 180.936 67.648 180.936 67.648 180.936 C 67.213 180.936 66.913 180.918 66.754 180.907 C 65.681 180.991 64.548 181.036 63.383 181.036 C 56.966 181.036 50.073 179.755 43.408 178.517 C 43.138 178.467 42.220 178.243 40.855 177.950 C 37.544 177.241 31.560 176.131 25.533 176.131 C 24.520 176.131 23.507 176.163 22.504 176.234 C 22.504 176.234 21.024 176.316 20.418 176.316 C 9.704 176.316 1.150 163.666 0.998 152.576 C 1.998 139.576 14.902 145.014 16.998 133.242 C 18.318 125.816 17.649 115.929 19.493 106.412 C 21.624 95.415 25.218 87.539 28.798 65.549 C 30.828 53.077 16.162 43.744 20.087 27.855 C 26.234 -1.201 62.470 -1.536 64.010 -1.536 M 64.010 -4.536 C 62.372 -4.536 23.835 -4.178 17.163 27.184 C 14.783 36.897 18.535 44.341 21.846 50.910 C 24.400 55.977 26.605 60.352 25.838 65.065 C 23.624 78.662 21.451 86.635 19.533 93.669 C 18.371 97.929 17.368 101.608 16.549 105.839 C 15.504 111.238 15.233 116.797 14.994 121.701 C 14.798 125.724 14.612 129.525 14.046 132.715 C 13.308 136.863 10.957 137.986 7.703 139.543 C 3.887 141.369 -1.339 143.869 -1.991 152.343 L -2.001 152.479 L -1.999 152.616 C -1.825 165.220 7.800 179.315 20.420 179.315 C 21.089 179.315 22.512 179.237 22.672 179.227 C 23.609 179.163 24.558 179.130 25.535 179.130 C 29.799 179.130 34.880 179.736 40.228 180.884 C 40.985 181.046 41.602 181.187 42.042 181.287 C 42.444 181.380 42.725 181.441 42.861 181.467 L 42.923 181.479 C 49.702 182.737 56.711 184.038 63.384 184.038 C 64.520 184.038 65.658 183.997 66.772 183.915 C 67.043 183.931 67.337 183.937 67.648 183.937 C 70.834 183.937 82.284 183.021 95.962 171.237 C 103.066 165.114 108.160 158.555 111.103 151.749 C 114.238 144.499 114.939 137.060 113.188 129.634 L 113.164 129.527 L 113.131 129.423 C 112.333 126.888 111.251 124.367 109.916 121.932 C 93.717 92.393 85.376 74.560 82.871 64.107 C 80.809 55.508 82.809 53.186 86.123 49.339 C 88.013 47.144 90.365 44.412 92.170 40.194 C 94.077 35.742 95.232 26.307 94.546 20.780 L 94.496 20.383 L 94.345 20.013 C 94.116 19.451 93.881 18.890 93.645 18.335 C 93.593 18.179 93.539 18.030 93.475 17.886 C 93.077 16.955 92.608 15.982 92.050 14.923 L 91.785 14.422 L 91.768 14.392 L 91.750 14.362 C 91.706 14.282 91.659 14.205 91.610 14.126 C 91.112 13.228 90.645 12.450 90.185 11.750 C 89.827 11.204 88.690 9.835 87.211 8.268 C 84.592 5.490 79.355 0.479 73.707 -1.863 C 73.606 -1.904 73.474 -1.964 73.304 -2.038 C 71.958 -2.628 68.806 -4.011 65.880 -4.434 C 65.725 -4.462 65.222 -4.536 64.010 -4.536 L 64.010 -4.536 Z " transform="matrix(0.7718464732170105, 0, 0, 0.7718464732170105, 1.95, 3.85)"/>
      </g>
      <path id="Belly_1_" fill="#FFFFFF" d="M 63.385 181.039 C 64.550 181.039 65.683 180.992 66.756 180.910 C 66.914 180.922 67.214 180.939 67.650 180.939 C 67.650 180.939 67.650 180.939 67.652 180.939 C 70.576 180.939 81.112 180.074 94.006 168.965 C 100.761 163.142 105.588 156.950 108.351 150.558 C 111.237 143.884 111.872 137.111 110.270 130.322 C 109.560 128.068 108.590 125.752 107.287 123.373 C 63.565 43.648 81.654 57.145 89.412 39.013 C 91.067 35.146 92.198 26.223 91.567 21.149 C 91.324 20.553 91.076 19.959 90.824 19.370 C 90.796 19.271 90.762 19.173 90.720 19.078 C 90.348 18.210 89.914 17.308 89.394 16.320 L 89.131 15.823 C 89.096 15.760 89.059 15.700 89.020 15.636 C 88.545 14.779 88.107 14.046 87.679 13.394 C 87.483 13.096 86.509 11.891 85.032 10.324 C 73.301 -0.091 51.079 -5.691 47.528 27.357 C 45.469 46.523 77.634 86.596 57.885 99.116 C 50.276 103.940 34.406 118.579 34.406 133.802 C 34.406 149.023 41.635 166.493 40.946 176.857 C 40.921 177.242 40.889 177.600 40.857 177.953 C 42.221 178.244 43.140 178.471 43.410 178.519 C 50.075 179.756 56.968 181.039 63.385 181.039 Z " transform="matrix(0.7718464732170105, 0, 0, 0.7718464732170105, 1.95, 3.85)"/>
    </g>
    <path id="Wing_Front_1_" fill="#0062A3" stroke="#000000" stroke-width="3" stroke-linecap="round" stroke-linejoin="round" d="M 49.855 91.257 C 49.855 91.257 38.392 113.049 43.755 132.153 C 49.119 151.256 57.231 163.227 68.554 146.460 C 83.107 124.909 71.802 91.993 61.915 72.638 " transform="matrix(0.7718464732170105, 0, 0, 0.7718464732170105, 1.95, 3.85)"/>
    <g id="Beak_1_">
      <path id="ID0.6922540375962853" fill="#F7941E" d="M 87.450 65.327 C 80.563 65.327 69.623 61.381 66.859 52.608 C 64.704 45.774 69.849 38.584 74.547 33.756 L 75.400 32.873 C 78.402 29.754 81.505 26.528 85.170 26.190 C 85.538 26.156 85.900 26.140 86.262 26.140 C 90.267 26.140 93.680 28.104 96.981 30.003 C 99.404 31.399 101.693 32.714 103.984 33.103 C 105.968 33.440 107.828 33.511 109.466 33.572 C 113.387 33.719 117.091 33.859 118.551 38.153 C 119.024 39.544 118.835 41.182 118.021 42.766 C 116.498 45.727 112.980 48.166 108.118 49.631 C 105.751 50.344 102.664 50.736 99.426 50.736 C 99.425 50.736 99.425 50.736 99.424 50.736 C 93.660 50.736 88.126 49.533 83.842 47.349 C 83.815 47.335 83.785 47.324 83.755 47.315 C 83.770 47.446 83.811 47.643 83.909 47.908 C 85.799 52.976 90.710 54.436 94.654 55.609 C 97.554 56.471 99.845 57.152 100.402 59.195 C 100.644 60.086 100.509 60.954 100.012 61.705 C 98.624 63.802 94.888 64.454 89.345 65.210 L 89.128 65.240 C 88.562 65.301 88.015 65.327 87.450 65.327 L 87.450 65.327 Z " transform="matrix(0.7718464732170105, 0, 0, 0.7718464732170105, 1.95, 3.85)"/>
      <path id="ID0.7753897323273122" d="M 86.260 27.641 C 92.724 27.641 97.955 33.603 103.731 34.583 C 110.561 35.744 115.507 33.867 117.129 38.637 C 117.976 41.128 115.874 45.727 107.682 48.196 C 105.543 48.840 102.631 49.237 99.420 49.237 C 94.584 49.237 89.071 48.335 84.519 46.014 C 84.244 45.873 83.930 45.797 83.627 45.797 C 82.666 45.797 81.801 46.560 82.500 48.434 C 85.953 57.694 98.059 56.309 98.952 59.591 C 99.696 62.328 93.799 63.090 88.923 63.756 C 88.457 63.803 87.965 63.827 87.450 63.827 C 80.884 63.827 70.747 59.955 68.291 52.158 C 66.504 46.492 70.496 40.072 75.622 34.803 C 78.696 31.641 81.881 28.001 85.306 27.685 C 85.627 27.655 85.945 27.641 86.260 27.641 M 86.260 24.641 C 85.851 24.641 85.437 24.660 85.031 24.698 C 80.810 25.087 77.510 28.517 74.318 31.834 C 74.036 32.129 73.754 32.422 73.471 32.712 C 66.327 40.055 63.547 47.091 65.429 53.061 C 68.419 62.557 80.106 66.828 87.450 66.828 C 88.064 66.828 88.664 66.799 89.226 66.741 L 89.277 66.736 L 89.329 66.729 L 89.546 66.700 C 95.495 65.888 99.525 65.160 101.261 62.536 C 101.993 61.430 102.201 60.104 101.847 58.804 C 101.072 55.955 98.160 55.090 95.079 54.174 C 92.318 53.354 89.293 52.454 87.213 50.366 C 90.904 51.586 95.106 52.239 99.420 52.239 C 102.803 52.239 106.043 51.824 108.547 51.071 C 115.284 49.040 118.142 45.809 119.353 43.456 C 120.355 41.507 120.576 39.454 119.970 37.674 C 118.177 32.403 113.578 32.229 109.521 32.076 C 107.849 32.013 106.122 31.948 104.234 31.627 C 102.208 31.283 100.032 30.031 97.727 28.705 C 94.416 26.800 90.665 24.641 86.260 24.641 L 86.260 24.641 Z " transform="matrix(0.7718464732170105, 0, 0, 0.7718464732170105, 1.95, 3.85)"/>
    </g>
    <path id="Eye_1_" d="M 66.847 17.512 C 67.893 17.512 68.841 18.057 69.527 18.938 C 70.213 19.818 70.638 21.034 70.638 22.376 C 70.638 23.718 70.213 24.934 69.527 25.814 C 68.841 26.695 67.893 27.240 66.847 27.240 C 65.801 27.240 64.853 26.695 64.167 25.814 C 63.481 24.934 63.056 23.718 63.056 22.376 C 63.056 21.034 63.481 19.818 64.167 18.938 C 64.853 18.057 65.801 17.512 66.847 17.512 Z " transform="matrix(0.7718464732170105, 0, 0, 0.7718464732170105, 1.95, 3.85)"/>
  </g>
</svg>