<?xml version="1.0" encoding="UTF-8" standalone="no"?>
<svg
   version="1.1"
   width="100.65495"
   height="155.2453"
   id="svg22"
   sodipodi:docname="penguin2_talk-b.svg"
   xmlns:inkscape="http://www.inkscape.org/namespaces/inkscape"
   xmlns:sodipodi="http://sodipodi.sourceforge.net/DTD/sodipodi-0.dtd"
   xmlns="http://www.w3.org/2000/svg"
   xmlns:svg="http://www.w3.org/2000/svg">
  <defs
     id="defs26" />
  <sodipodi:namedview
     id="namedview24"
     pagecolor="#ffffff"
     bordercolor="#000000"
     borderopacity="0.25"
     inkscape:showpageshadow="2"
     inkscape:pageopacity="0.0"
     inkscape:pagecheckerboard="0"
     inkscape:deskcolor="#d1d1d1" />
  <!-- Exported by Scratch - http://scratch.mit.edu/ -->
  <g
     id="ID0.1114896503277123"
     transform="matrix(0.94999999,0,0,0.94999999,-0.38525844,-0.33145917)">
    <g
       id="Back_Foot_1_">
      <path
         id="ID0.6249615093693137"
         fill="#f7941e"
         d="m 101.78,182.414 c -0.241,0 -0.485,-0.018 -0.73,-0.055 -2.838,-0.427 -5.268,-2.378 -7.269,-4.229 -4.534,-4.199 -6.72,-9.166 -6.497,-14.761 l 0.059,-1.457 1.939,0.021 c 2.604,0 4.896,-0.246 7.007,-0.751 l 0.911,-0.218 0.596,0.724 c 1.146,1.39 4.343,1.39 5.545,1.39 0.285,0 0.562,-0.003 0.822,-0.007 0.801,-0.007 1.593,-0.065 2.433,-0.13 0.905,-0.067 1.845,-0.139 2.8,-0.139 l 0.146,0.001 c 2.828,0.017 4.279,0.939 4.377,2.749 0.031,0.573 -0.17,1.124 -0.566,1.544 -0.614,0.647 -1.573,0.873 -2.611,0.941 1.334,0.785 1.973,2.198 1.905,3.527 -0.09,1.766 -1.479,3.553 -3.963,3.553 -0.315,0 -0.646,-0.029 -0.979,-0.088 -1.561,-0.273 -3.142,-0.978 -4.833,-2.15 -0.056,0.055 -0.108,0.146 -0.108,0.198 1.022,0.916 1.893,1.969 2.645,3.166 0.834,1.34 0.921,2.81 0.239,4.035 -0.736,1.318 -2.215,2.136 -3.868,2.136 z"
         transform="matrix(0.77184647,0,0,0.77184647,1.95,3.85)" />
      <path
         id="ID0.13570731366053224"
         d="m 96.638,162.64 c 1.434,1.741 4.376,1.937 6.702,1.937 0.292,0 0.573,-0.003 0.843,-0.007 1.741,-0.016 3.468,-0.269 5.212,-0.269 0.045,0 0.09,0.001 0.135,0.001 0.881,0.006 2.818,-0.018 2.891,1.329 0.048,0.854 -1.552,0.936 -2.682,0.936 -0.266,0 -0.504,-0.005 -0.69,-0.005 -0.121,0 -0.223,0.002 -0.291,0.009 -1.195,0.112 -1.672,0.919 -1.396,1.564 -0.109,0.01 -0.213,0.023 -0.305,0.041 0.009,0 0.018,0 0.025,0 0.104,0 0.208,0.015 0.312,0.021 0.188,0.368 0.626,0.672 1.328,0.744 3.292,0.335 3.193,4.675 -0.04,4.675 -0.226,0 -0.466,-0.021 -0.721,-0.064 -1.565,-0.275 -3.003,-1.044 -4.288,-1.941 -0.265,-0.184 -0.536,-0.264 -0.799,-0.264 -1.23,0 -2.237,1.761 -1.15,2.775 0.941,0.879 1.725,1.824 2.411,2.918 1.315,2.112 -0.372,3.873 -2.354,3.873 -0.167,0 -0.336,-0.013 -0.505,-0.038 -2.495,-0.375 -4.695,-2.199 -6.477,-3.848 -4.041,-3.743 -6.229,-8.238 -6.017,-13.6 0.167,0.002 0.333,0.003 0.499,0.003 2.554,0.002 5.002,-0.227 7.357,-0.79 m 1.125,-3.353 -1.823,0.437 c -1.996,0.478 -4.174,0.71 -6.657,0.71 -0.154,0 -0.31,-0.001 -0.465,-0.003 l -2.916,-0.033 -0.116,2.914 c -0.241,6.052 2.105,11.408 6.977,15.92 2.171,2.008 4.824,4.126 8.067,4.613 0.312,0.047 0.632,0.07 0.951,0.07 2.197,0 4.181,-1.113 5.176,-2.906 0.78,-1.405 0.854,-3.017 0.238,-4.548 0.082,0.018 0.165,0.032 0.248,0.048 0.42,0.072 0.837,0.109 1.239,0.109 3.018,0 5.313,-2.093 5.461,-4.977 0.052,-1.014 -0.179,-1.967 -0.627,-2.795 0.334,-0.188 0.645,-0.425 0.924,-0.721 0.685,-0.723 1.03,-1.668 0.976,-2.659 -0.065,-1.239 -0.766,-4.136 -5.803,-4.164 h -0.063 l -0.153,-0.001 c -1.013,0 -1.979,0.072 -2.912,0.144 -0.813,0.062 -1.581,0.118 -2.326,0.125 -0.269,0.004 -0.537,0.007 -0.814,0.007 -3.214,0 -4.129,-0.527 -4.389,-0.844 z"
         transform="matrix(0.77184647,0,0,0.77184647,1.95,3.85)" />
    </g>
    <g
       id="Front_Foot_2_">
      <path
         id="ID0.06999378418549895"
         fill="#f7941e"
         d="m 80.534,205.683 c -0.761,0 -1.534,-0.159 -2.239,-0.461 -3.221,-1.374 -5.436,-4.326 -7.351,-7.312 -4.135,-6.456 -5.213,-13.096 -3.205,-19.733 l 0.422,-1.396 1.407,0.383 c 3.437,0.935 6.532,1.415 9.463,1.473 l 0.938,0.019 0.395,0.851 c 1.076,2.315 5.313,3.356 7.59,3.917 0.989,0.247 1.98,0.427 3.031,0.616 1.176,0.213 2.394,0.434 3.602,0.756 1.251,0.334 4.801,1.279 4.188,4.285 -0.089,0.438 -0.55,1.878 -2.734,1.878 v 0 c -1.079,0 -2.346,-0.342 -3.183,-0.566 -0.243,-0.065 -0.438,-0.121 -0.558,-0.144 -0.011,-0.001 -0.021,-0.003 -0.028,-0.004 2.668,0.991 3.524,3.315 3.189,5.18 -0.375,2.088 -2.129,3.546 -4.266,3.546 -0.795,0 -1.622,-0.193 -2.458,-0.574 -1.783,-0.814 -3.462,-2.16 -5.134,-4.115 -0.088,-0.103 -0.137,-0.103 -0.172,-0.103 -0.179,0 -0.459,0.165 -0.595,0.409 -0.099,0.18 -0.057,0.272 0,0.361 0.938,1.479 1.651,3.006 2.181,4.672 0.487,1.562 0.292,3.051 -0.553,4.199 -0.855,1.166 -2.325,1.863 -3.93,1.863 z"
         transform="matrix(0.77184647,0,0,0.77184647,1.95,3.85)" />
      <path
         id="ID0.22005585068836808"
         d="m 69.175,178.611 c 3.323,0.903 6.582,1.462 9.828,1.524 1.349,2.899 5.646,4.018 8.593,4.741 2.184,0.547 4.426,0.783 6.604,1.365 1.072,0.287 3.443,0.873 3.104,2.536 -0.104,0.508 -0.611,0.678 -1.266,0.678 -1.236,0 -2.993,-0.607 -3.5,-0.689 -0.18,-0.029 -0.349,-0.043 -0.508,-0.043 -1.172,0 -1.807,0.737 -1.691,1.508 -0.137,-0.021 -0.268,-0.038 -0.386,-0.047 0.136,0.032 0.271,0.089 0.406,0.136 0.114,0.508 0.552,1.019 1.384,1.327 3.566,1.324 2.637,5.82 -0.549,5.82 -0.549,0 -1.165,-0.135 -1.836,-0.439 -1.822,-0.832 -3.332,-2.224 -4.615,-3.725 -0.379,-0.442 -0.846,-0.628 -1.312,-0.628 -1.387,0 -2.771,1.638 -1.861,3.073 0.871,1.371 1.525,2.771 2.017,4.322 0.803,2.562 -1.001,4.111 -3.053,4.111 -0.546,0 -1.11,-0.109 -1.647,-0.34 -2.925,-1.247 -5.029,-4.17 -6.68,-6.742 -3.743,-5.843 -4.988,-12.018 -3.032,-18.488 m -2.026,-3.66 -0.844,2.792 c -2.142,7.077 -1.005,14.135 3.377,20.978 1.945,3.036 4.423,6.346 8.027,7.884 0.898,0.385 1.851,0.58 2.825,0.58 2.079,0 4.001,-0.926 5.14,-2.479 1.136,-1.543 1.41,-3.507 0.775,-5.529 -0.045,-0.143 -0.09,-0.282 -0.138,-0.422 0.59,0.39 1.188,0.724 1.802,1.003 1.035,0.472 2.07,0.711 3.082,0.711 2.875,0 5.236,-1.967 5.742,-4.78 0.203,-1.134 0.074,-2.25 -0.334,-3.256 2.258,-0.211 3.36,-1.678 3.641,-3.059 0.333,-1.635 0.104,-4.597 -5.188,-6.007 l -0.082,-0.021 c -1.271,-0.34 -2.519,-0.565 -3.725,-0.784 -1.023,-0.186 -1.993,-0.36 -2.929,-0.594 -1.898,-0.468 -5.826,-1.434 -6.599,-3.097 l -0.79,-1.698 -1.873,-0.036 c -2.808,-0.056 -5.783,-0.52 -9.1,-1.42 z"
         transform="matrix(0.77184647,0,0,0.77184647,1.95,3.85)" />
    </g>
    <g
       id="Wing_Back_1_">
      <path
         id="ID0.6576538775116205"
         fill="#0062a3"
         d="m 97.274,102.511 c -0.22,0 -0.438,-0.006 -0.655,-0.02 l -0.587,-0.031 -12.288,-25.33 1.941,0.357 c 0.962,0.177 1.936,0.266 2.893,0.266 6.43,0 11.898,-3.933 17.689,-8.096 6.165,-4.433 12.54,-9.016 20.529,-9.016 0.883,0 1.78,0.058 2.668,0.17 2.677,0.341 4.203,1.211 4.667,2.661 0.922,2.883 -3.162,6.655 -6.766,9.982 -1.082,1 -2.104,1.944 -2.79,2.692 -4.122,5.075 -7.353,10.084 -11.215,16.507 -2.913,4.845 -9.728,9.858 -16.086,9.858 0.001,0 0.001,0 0,0 z"
         transform="matrix(0.77184647,0,0,0.77184647,1.95,3.85)" />
      <path
         id="ID0.9325869199819863"
         d="m 126.797,61.64 c 0.829,0 1.678,0.053 2.542,0.163 10.008,1.273 -1.834,9.667 -5.5,13.667 -4.334,5.334 -7.688,10.606 -11.334,16.667 -2.859,4.754 -9.38,9.374 -15.231,9.374 -0.2,0 -0.4,-0.006 -0.601,-0.018 L 85.505,78.47 c 1.05,0.193 2.072,0.283 3.072,0.283 13.797,0 23.204,-17.113 38.22,-17.113 m 0,-2 c -8.312,0 -14.819,4.679 -21.112,9.204 -5.657,4.067 -10.999,7.908 -17.106,7.908 -0.896,0 -1.81,-0.084 -2.711,-0.25 l -3.886,-0.713 1.725,3.554 11.168,23.023 0.514,1.06 1.175,0.065 c 0.236,0.013 0.475,0.02 0.712,0.02 6.966,0 13.93,-5.329 16.945,-10.343 3.828,-6.365 7.028,-11.331 11.134,-16.389 0.657,-0.711 1.646,-1.625 2.692,-2.59 4.01,-3.703 8.155,-7.532 7.039,-11.022 -0.883,-2.762 -4.354,-3.203 -5.493,-3.348 -0.931,-0.119 -1.871,-0.179 -2.796,-0.179 z"
         transform="matrix(0.77184647,0,0,0.77184647,1.95,3.85)" />
    </g>
    <g
       id="Body_2_">
      <g
         id="Body_3_">
        <path
           id="ID0.8946978682652116"
           fill="#0062a3"
           d="m 63.385,182.539 c -6.535,0 -13.475,-1.287 -20.187,-2.532 -0.188,-0.035 -0.447,-0.095 -0.821,-0.179 -0.445,-0.103 -1.068,-0.244 -1.833,-0.408 -5.451,-1.17 -10.642,-1.787 -15.009,-1.787 -1.012,0 -1.996,0.033 -2.926,0.098 -0.021,0.002 -1.561,0.086 -2.189,0.086 -11.585,0 -20.758,-13.557 -20.92,-25.22 l 0.004,-0.136 c 0.585,-7.608 4.974,-9.709 8.846,-11.561 3.38,-1.617 6.299,-3.015 7.173,-7.921 0.584,-3.282 0.771,-7.13 0.97,-11.202 0.248,-5.093 0.504,-10.357 1.528,-15.65 0.81,-4.176 1.806,-7.829 2.959,-12.061 1.928,-7.07 4.112,-15.084 6.338,-28.759 0.846,-5.193 -1.572,-9.992 -4.133,-15.071 -3.2,-6.348 -6.826,-13.542 -4.554,-22.741 6.384,-30.182 43.79,-30.53 45.379,-30.53 0.731,0 1.291,0.028 1.662,0.083 2.722,0.395 5.744,1.72 7.034,2.287 0.183,0.08 0.327,0.144 0.428,0.185 5.393,2.237 10.454,7.085 12.991,9.776 1.492,1.582 2.541,2.867 2.81,3.274 0.45,0.686 0.908,1.451 1.4,2.34 0.019,0.027 0.063,0.103 0.107,0.182 l 0.279,0.527 c 0.54,1.026 0.991,1.963 1.379,2.868 0.051,0.119 0.098,0.244 0.136,0.371 0.244,0.571 0.483,1.146 0.721,1.723 l 0.076,0.185 0.023,0.199 c 0.648,5.223 -0.474,14.456 -2.266,18.639 -1.714,4.004 -3.889,6.528 -5.806,8.756 -6.524,7.577 -10.464,12.15 23.613,74.291 1.288,2.352 2.331,4.779 3.101,7.223 l 0.028,0.104 c 1.675,7.104 1.002,14.229 -2.002,21.177 -2.852,6.598 -7.812,12.973 -14.742,18.947 -13.288,11.447 -24.279,12.338 -27.333,12.338 -0.398,0 -0.696,-0.015 -0.89,-0.025 -1.106,0.081 -2.242,0.124 -3.374,0.124 z"
           transform="matrix(0.77184647,0,0,0.77184647,1.95,3.85)" />
        <path
           id="ID0.13931147987022996"
           d="m 64.01,-1.536 c 0.453,0 1.072,0.012 1.443,0.066 2.919,0.424 6.313,2.047 7.108,2.375 4.896,2.03 9.631,6.406 12.472,9.418 1.479,1.567 2.451,2.772 2.647,3.07 0.428,0.651 0.866,1.384 1.341,2.242 0.039,0.063 0.076,0.124 0.111,0.187 l 0.263,0.497 c 0.521,0.989 0.954,1.891 1.326,2.758 0.041,0.095 0.074,0.193 0.104,0.292 0.252,0.589 0.5,1.183 0.743,1.779 0.631,5.074 -0.5,13.997 -2.155,17.864 -7.76,18.133 -25.848,4.635 17.872,84.358 1.305,2.381 2.273,4.695 2.983,6.951 1.602,6.787 0.967,13.562 -1.919,20.235 -2.763,6.394 -7.59,12.584 -14.345,18.407 -12.895,11.107 -23.431,11.973 -26.354,11.973 -0.002,0 -0.002,0 -0.002,0 -0.435,0 -0.735,-0.018 -0.894,-0.029 -1.073,0.084 -2.206,0.129 -3.371,0.129 -6.417,0 -13.31,-1.281 -19.975,-2.519 -0.27,-0.05 -1.188,-0.274 -2.553,-0.567 -3.311,-0.709 -9.295,-1.819 -15.322,-1.819 -1.013,0 -2.026,0.032 -3.029,0.103 0,0 -1.48,0.082 -2.086,0.082 -10.714,0 -19.268,-12.65 -19.42,-23.74 1,-13 13.904,-7.562 16,-19.334 1.32,-7.426 0.651,-17.313 2.495,-26.83 C 21.624,95.415 25.218,87.539 28.798,65.549 30.828,53.077 16.162,43.744 20.087,27.855 26.234,-1.201 62.47,-1.536 64.01,-1.536 m 0,-3 c -1.638,0 -40.175,0.358 -46.847,31.72 -2.38,9.713 1.372,17.157 4.683,23.726 2.554,5.067 4.759,9.442 3.992,14.155 -2.214,13.597 -4.387,21.57 -6.305,28.604 -1.162,4.26 -2.165,7.939 -2.984,12.17 -1.045,5.399 -1.316,10.958 -1.555,15.862 -0.196,4.023 -0.382,7.824 -0.948,11.014 -0.738,4.148 -3.089,5.271 -6.343,6.828 -3.816,1.826 -9.042,4.326 -9.694,12.8 l -0.01,0.136 0.002,0.137 c 0.174,12.604 9.799,26.699 22.419,26.699 0.669,0 2.092,-0.078 2.252,-0.088 0.937,-0.064 1.886,-0.097 2.863,-0.097 4.264,0 9.345,0.606 14.693,1.754 0.757,0.162 1.374,0.303 1.814,0.403 0.402,0.093 0.683,0.154 0.819,0.18 l 0.062,0.012 c 6.779,1.258 13.788,2.559 20.461,2.559 1.136,0 2.274,-0.041 3.388,-0.123 0.271,0.016 0.565,0.022 0.876,0.022 3.186,0 14.636,-0.916 28.314,-12.7 7.104,-6.123 12.198,-12.682 15.141,-19.488 3.135,-7.25 3.836,-14.689 2.085,-22.115 l -0.024,-0.107 -0.033,-0.104 c -0.798,-2.535 -1.88,-5.056 -3.215,-7.491 C 93.717,92.393 85.376,74.56 82.871,64.107 80.809,55.508 82.809,53.186 86.123,49.339 c 1.89,-2.195 4.242,-4.927 6.047,-9.145 1.907,-4.452 3.062,-13.887 2.376,-19.414 l -0.05,-0.397 -0.151,-0.37 c -0.229,-0.562 -0.464,-1.123 -0.7,-1.678 -0.052,-0.156 -0.106,-0.305 -0.17,-0.449 -0.398,-0.931 -0.867,-1.904 -1.425,-2.963 l -0.265,-0.501 -0.017,-0.03 -0.018,-0.03 C 91.706,14.282 91.659,14.205 91.61,14.126 91.112,13.228 90.645,12.45 90.185,11.75 89.827,11.204 88.69,9.835 87.211,8.268 84.592,5.49 79.355,0.479 73.707,-1.863 73.606,-1.904 73.474,-1.964 73.304,-2.038 71.958,-2.628 68.806,-4.011 65.88,-4.434 65.725,-4.462 65.222,-4.536 64.01,-4.536 Z"
           transform="matrix(0.77184647,0,0,0.77184647,1.95,3.85)" />
      </g>
      <path
         id="Belly_1_"
         fill="#ffffff"
         d="m 63.385,181.039 c 1.165,0 2.298,-0.047 3.371,-0.129 0.158,0.012 0.458,0.029 0.894,0.029 0,0 0,0 0.002,0 2.924,0 13.46,-0.865 26.354,-11.974 6.755,-5.823 11.582,-12.015 14.345,-18.407 2.886,-6.674 3.521,-13.447 1.919,-20.236 -0.71,-2.254 -1.68,-4.57 -2.983,-6.949 C 63.565,43.648 81.654,57.145 89.412,39.013 91.067,35.146 92.198,26.223 91.567,21.149 91.324,20.553 91.076,19.959 90.824,19.37 90.796,19.271 90.762,19.173 90.72,19.078 90.348,18.21 89.914,17.308 89.394,16.32 L 89.131,15.823 C 89.096,15.76 89.059,15.7 89.02,15.636 88.545,14.779 88.107,14.046 87.679,13.394 87.483,13.096 86.509,11.891 85.032,10.324 73.301,-0.091 51.079,-5.691 47.528,27.357 c -2.059,19.166 30.106,59.239 10.357,71.759 -7.609,4.824 -23.479,19.463 -23.479,34.686 0,15.221 7.229,32.691 6.54,43.055 -0.025,0.385 -0.057,0.743 -0.089,1.096 1.364,0.291 2.283,0.518 2.553,0.566 6.665,1.237 13.558,2.52 19.975,2.52 z"
         transform="matrix(0.77184647,0,0,0.77184647,1.95,3.85)" />
    </g>
    <path
       id="Wing_Front_1_"
       fill="#0062a3"
       stroke="#000000"
       stroke-width="3"
       stroke-linecap="round"
       stroke-linejoin="round"
       d="m 49.855,91.257 c 0,0 -11.463,21.792 -6.1,40.896 5.364,19.103 13.476,31.074 24.799,14.307 14.553,-21.551 3.248,-54.467 -6.639,-73.822"
       transform="matrix(0.77184647,0,0,0.77184647,1.95,3.85)" />
    <g
       id="Beak_1_">
      <path
         id="ID0.6922540375962853"
         fill="#f7941e"
         d="m 87.45,65.327 c -6.887,0 -17.827,-3.946 -20.591,-12.719 -2.155,-6.834 2.99,-14.024 7.688,-18.852 L 75.4,32.873 c 3.002,-3.119 6.105,-6.345 9.77,-6.683 0.368,-0.034 0.73,-0.05 1.092,-0.05 4.005,0 7.418,1.964 10.719,3.863 2.423,1.396 4.712,2.711 7.003,3.1 1.984,0.337 3.844,0.408 5.482,0.469 3.921,0.147 7.625,0.287 9.085,4.581 0.473,1.391 0.284,3.029 -0.53,4.613 -1.523,2.961 -5.041,5.4 -9.903,6.865 -2.367,0.713 -5.454,1.105 -8.692,1.105 -0.001,0 -0.001,0 -0.002,0 -5.764,0 -11.298,-1.203 -15.582,-3.387 -0.027,-0.014 -0.057,-0.025 -0.087,-0.034 0.015,0.131 0.056,0.328 0.154,0.593 1.89,5.068 6.801,6.528 10.745,7.701 2.9,0.862 5.191,1.543 5.748,3.586 0.242,0.891 0.107,1.759 -0.39,2.51 -1.388,2.097 -5.124,2.749 -10.667,3.505 l -0.217,0.03 c -0.566,0.061 -1.113,0.087 -1.678,0.087 z"
         transform="matrix(0.77184647,0,0,0.77184647,1.95,3.85)" />
      <path
         id="ID0.7753897323273122"
         d="m 86.26,27.641 c 6.464,0 11.695,5.962 17.471,6.942 6.83,1.161 11.776,-0.716 13.398,4.054 0.847,2.491 -1.255,7.09 -9.447,9.559 -2.139,0.644 -5.051,1.041 -8.262,1.041 -4.836,0 -10.349,-0.902 -14.901,-3.223 -0.275,-0.141 -0.589,-0.217 -0.892,-0.217 -0.961,0 -1.826,0.763 -1.127,2.637 3.453,9.26 15.559,7.875 16.452,11.157 0.744,2.737 -5.153,3.499 -10.029,4.165 -0.466,0.047 -0.958,0.071 -1.473,0.071 -6.566,0 -16.703,-3.872 -19.159,-11.669 -1.787,-5.666 2.205,-12.086 7.331,-17.355 3.074,-3.162 6.259,-6.802 9.684,-7.118 0.321,-0.03 0.639,-0.044 0.954,-0.044 m 0,-3 c -0.409,0 -0.823,0.019 -1.229,0.057 -4.221,0.389 -7.521,3.819 -10.713,7.136 -0.282,0.295 -0.564,0.588 -0.847,0.878 -7.144,7.343 -9.924,14.379 -8.042,20.349 2.99,9.496 14.677,13.767 22.021,13.767 0.614,0 1.214,-0.029 1.776,-0.087 l 0.051,-0.005 0.052,-0.007 0.217,-0.029 c 5.949,-0.812 9.979,-1.54 11.715,-4.164 0.732,-1.106 0.94,-2.432 0.586,-3.732 -0.775,-2.849 -3.687,-3.714 -6.768,-4.63 -2.761,-0.82 -5.786,-1.72 -7.866,-3.808 3.691,1.22 7.893,1.873 12.207,1.873 3.383,0 6.623,-0.415 9.127,-1.168 6.737,-2.031 9.595,-5.262 10.806,-7.615 1.002,-1.949 1.223,-4.002 0.617,-5.782 -1.793,-5.271 -6.392,-5.445 -10.449,-5.598 -1.672,-0.063 -3.399,-0.128 -5.287,-0.449 -2.026,-0.344 -4.202,-1.596 -6.507,-2.922 C 94.416,26.8 90.665,24.641 86.26,24.641 Z"
         transform="matrix(0.77184647,0,0,0.77184647,1.95,3.85)" />
    </g>
    <path
       id="Eye_1_"
       d="m 66.847,17.512 c 1.046,0 1.994,0.545 2.68,1.426 0.686,0.88 1.111,2.096 1.111,3.438 0,1.342 -0.425,2.558 -1.111,3.438 -0.686,0.881 -1.634,1.426 -2.68,1.426 -1.046,0 -1.994,-0.545 -2.68,-1.426 -0.686,-0.88 -1.111,-2.096 -1.111,-3.438 0,-1.342 0.425,-2.558 1.111,-3.438 0.686,-0.881 1.634,-1.426 2.68,-1.426 z"
       transform="matrix(0.77184647,0,0,0.77184647,1.95,3.85)" />
  </g>
</svg>
