<svg version="1.1" width="119" height="188" xmlns="http://www.w3.org/2000/svg" xmlns:xlink="http://www.w3.org/1999/xlink">
  <!-- Exported by Scratch - http://scratch.mit.edu/ -->
  <g id="ID0.528692465275526" transform="matrix(1.0499999523162842, 0, 0, 1.0499999523162842, -1, 0.25)">
    <g id="ID0.969818405341357">
      <g id="R_Foot_2_">
        <g id="R_Foot_3_">
          <path id="Foot_Fill_4_" fill="#FF9248" d="M 45.127 90.150 C 45.703 89.630 47.268 88.510 49.620 88.983 C 50.682 89.197 51.778 89.717 52.878 90.532 C 52.919 90.046 53.087 89.273 53.701 88.722 C 54.299 88.187 55.169 87.992 56.293 88.138 L 47.434 80.920 C 47.431 80.920 46.427 80.262 45.342 80.043 C 44.423 79.858 43.726 80.041 43.275 80.585 C 42.219 81.853 44.154 87.649 45.127 90.150 L 45.127 90.150 Z " transform="matrix(1.8856489658355713, 0, 0, 1.8856489658355713, -9.15, -1.7)"/>
          <path id="Shadow_8_" fill="#E87528" d="M 51.659 89.718 C 51.659 89.718 42.341 73.998 45.220 89.787 C 45.219 89.788 48.009 87.762 51.659 89.718 Z " transform="matrix(1.8856489658355713, 0, 0, 1.8856489658355713, -9.15, -1.7)"/>
          <path id="Shadow_7_" fill="#E87528" d="M 55.663 87.884 C 55.663 87.884 53.619 88.113 52.912 89.969 C 52.912 89.969 40.176 75.275 55.663 87.884 Z " transform="matrix(1.8856489658355713, 0, 0, 1.8856489658355713, -9.15, -1.7)"/>
          <path id="Outline_17_" d="M 45.299 80.257 C 46.346 80.467 47.320 81.108 47.332 81.114 L 55.623 87.873 C 54.763 87.869 54.070 88.099 53.554 88.560 C 53.030 89.032 52.806 89.649 52.712 90.146 C 51.685 89.431 50.661 88.970 49.664 88.770 C 47.492 88.333 45.962 89.206 45.219 89.788 C 43.998 86.600 42.577 81.760 43.442 80.726 C 43.846 80.241 44.455 80.087 45.299 80.257 M 45.385 79.830 C 44.570 79.667 43.700 79.734 43.108 80.446 C 41.682 82.159 45.047 90.537 45.047 90.537 C 45.047 90.537 46.710 88.621 49.578 89.197 C 50.602 89.403 51.778 89.926 53.090 90.968 C 53.090 90.968 52.793 87.641 56.714 88.429 C 56.841 88.454 56.968 88.483 57.103 88.517 L 47.573 80.752 C 47.573 80.752 46.534 80.061 45.385 79.830 L 45.385 79.830 Z " transform="matrix(1.8856489658355713, 0, 0, 1.8856489658355713, -9.15, -1.7)"/>
        </g>
        <g id="R_Skate_2_">
          <g id="Blade_6_">
            <path id="Blade_7_" fill="#B7B7B7" d="M 45.995 92.544 C 45.995 92.544 46.370 94.064 49.405 95.008 L 49.093 97.666 C 49.093 97.666 43.585 94.855 42.508 88.345 L 42.873 86.531 L 42.349 84.223 L 41.751 86.305 C 41.751 86.305 41.492 84.479 41.197 83.905 C 40.951 83.426 40.290 83.584 40.642 86.083 C 40.760 86.913 41.442 99.998 53.834 99.897 L 50.857 98.281 L 52.186 95.117 C 52.186 95.117 55.394 95.047 55.290 92.248 C 55.292 92.248 52.074 95.433 45.995 92.544 Z " transform="matrix(1.8856489658355713, 0, 0, 1.8856489658355713, -9.15, -1.7)"/>
            <path id="Blade_Outline_3_" d="M 50.699 99.831 C 42.517 98.186 40.805 89.830 40.448 86.312 L 40.427 86.112 C 40.294 85.177 40.223 83.983 40.634 83.594 C 40.864 83.375 41.219 83.469 41.391 83.806 C 41.555 84.121 41.701 84.769 41.807 85.322 L 42.140 84.164 L 42.562 84.175 L 43.088 86.574 L 42.723 88.387 C 43.632 93.807 47.796 96.643 48.915 97.315 L 49.168 95.161 C 46.208 94.188 45.800 92.663 45.783 92.598 L 45.673 92.152 L 46.088 92.350 C 47.089 92.825 48.074 93.162 49.019 93.351 C 52.991 94.150 55.119 92.115 55.138 92.095 L 55.491 91.747 L 55.510 92.240 C 55.540 93.060 55.306 93.743 54.812 94.266 C 54.007 95.120 52.759 95.291 52.338 95.326 L 51.135 98.185 L 53.837 100.115 C 52.734 100.123 51.679 100.029 50.699 99.831 L 50.699 99.831 Z M 40.921 83.906 C 40.928 83.915 40.597 84.206 40.857 86.051 L 40.880 86.269 C 41.229 89.690 42.888 97.818 50.784 99.405 C 51.470 99.544 51.765 99.605 52.518 99.639 L 50.578 98.378 L 52.041 94.902 L 52.183 94.899 C 52.197 94.897 53.660 94.852 54.496 93.965 C 54.809 93.630 54.997 93.214 55.057 92.721 C 54.245 93.307 52.187 94.431 48.931 93.777 C 48.143 93.620 47.327 93.361 46.500 93.010 C 46.877 93.504 47.705 94.251 49.469 94.800 L 49.642 94.853 L 49.272 98.003 L 48.994 97.860 C 48.937 97.832 43.377 94.923 42.294 88.380 L 42.650 86.534 L 42.324 85.097 L 42.054 86.036 L 41.702 86.905 C 41.632 86.407 41.230 84.447 41.003 84.004 C 40.965 83.934 40.931 83.910 40.921 83.906 L 40.921 83.906 Z " transform="matrix(1.8856489658355713, 0, 0, 1.8856489658355713, -9.15, -1.7)"/>
          </g>
          <g id="Boot_6_">
            <g id="Boot_7_">
              <path id="Fill_7_" fill="#FFFFFF" d="M 42.232 83.497 C 42.232 83.497 43.264 90.575 45.078 92.605 C 46.892 94.635 52.531 94.743 54.625 93.720 C 56.718 92.697 57.361 88.946 56.678 87.920 C 55.996 86.894 48.735 81.447 48.735 81.447 C 48.735 81.447 44.964 77.603 42.533 80.336 C 42.532 80.336 41.862 82.031 42.232 83.497 Z " transform="matrix(1.8856489658355713, 0, 0, 1.8856489658355713, -9.15, -1.7)"/>
              <path id="Outline_16_" d="M 48.203 94.315 L 48.203 94.315 C 47.151 94.104 45.728 93.660 44.916 92.751 C 43.082 90.694 42.059 83.820 42.017 83.529 C 41.640 82.034 42.301 80.328 42.329 80.257 C 43.161 79.304 44.159 78.975 45.343 79.213 C 47.194 79.584 48.822 81.227 48.891 81.296 C 49.162 81.497 56.164 86.755 56.861 87.801 C 57.234 88.362 57.257 89.571 56.923 90.810 C 56.518 92.297 55.716 93.430 54.722 93.917 C 53.307 94.606 50.505 94.778 48.203 94.315 L 48.203 94.315 Z M 42.697 80.481 C 42.710 80.483 42.100 82.086 42.443 83.445 C 42.457 83.536 43.490 90.502 45.241 92.461 C 45.821 93.111 46.874 93.604 48.289 93.889 L 48.289 93.889 C 50.473 94.328 53.213 94.167 54.529 93.526 C 55.413 93.094 56.131 92.063 56.500 90.697 C 56.796 89.607 56.795 88.491 56.497 88.042 C 55.953 87.226 50.615 83.132 48.603 81.623 C 48.563 81.586 46.974 79.985 45.256 79.641 C 44.237 79.434 43.375 79.717 42.697 80.481 L 42.697 80.481 L 42.697 80.481 Z " transform="matrix(1.8856489658355713, 0, 0, 1.8856489658355713, -9.15, -1.7)"/>
            </g>
            <g id="Laces_3_">
              <path id="Lace_7_" fill="#5BDDDD" stroke="#000000" stroke-width="0.25" d="M 50.661 82.940 C 50.661 82.940 47.443 81.839 45.892 83.472 C 45.892 83.472 45.113 84.314 46.190 84.476 C 47.270 84.638 47.146 82.736 51.623 83.686 L 50.661 82.940 Z " transform="matrix(1.8856489658355713, 0, 0, 1.8856489658355713, -9.15, -1.7)"/>
              <path id="Lace_6_" fill="#5BDDDD" stroke="#000000" stroke-width="0.25" d="M 53.239 84.775 C 53.239 84.775 49.469 83.394 47.573 85.676 C 47.573 85.676 46.617 86.854 47.887 87.033 C 49.159 87.211 49.084 84.627 54.350 85.753 L 53.239 84.775 Z " transform="matrix(1.8856489658355713, 0, 0, 1.8856489658355713, -9.15, -1.7)"/>
            </g>
          </g>
        </g>
      </g>
      <g id="L_Foot_2_">
        <g id="L_Foot_3_">
          <path id="Foot_Fill_3_" fill="#FF9248" d="M 18.589 89.626 C 18.353 88.888 17.567 87.132 15.296 86.355 C 14.269 86.003 13.063 85.902 11.701 86.051 C 11.911 85.611 12.155 84.860 11.901 84.073 C 11.655 83.309 11.001 82.702 9.957 82.263 L 21.245 80.490 C 21.248 80.491 22.446 80.428 23.494 80.786 C 24.381 81.090 24.890 81.598 25.008 82.296 C 25.282 83.924 20.691 87.957 18.589 89.626 L 18.589 89.626 Z " transform="matrix(1.8856489658355713, 0, 0, 1.8856489658355713, -9.15, -1.7)"/>
          <path id="Shadow_6_" fill="#E87528" d="M 13.166 85.963 C 13.166 85.963 29.133 77.077 18.692 89.267 C 18.692 89.267 17.302 86.113 13.166 85.963 Z " transform="matrix(1.8856489658355713, 0, 0, 1.8856489658355713, -9.15, -1.7)"/>
          <path id="Shadow_3_" fill="#E87528" d="M 10.628 82.364 C 10.628 82.364 12.280 83.590 11.956 85.551 C 11.957 85.550 30.359 79.270 10.628 82.364 Z " transform="matrix(1.8856489658355713, 0, 0, 1.8856489658355713, -9.15, -1.7)"/>
          <path id="Outline_15_" d="M 23.424 80.994 C 24.239 81.273 24.688 81.713 24.792 82.334 C 25.017 83.663 21.354 87.128 18.691 89.268 C 18.343 88.392 17.462 86.867 15.366 86.151 C 14.402 85.821 13.286 85.705 12.039 85.804 C 12.209 85.326 12.326 84.681 12.109 84.009 C 11.896 83.351 11.413 82.804 10.668 82.373 L 21.236 80.712 C 21.249 80.710 22.414 80.649 23.424 80.994 M 23.565 80.582 C 22.457 80.203 21.211 80.277 21.211 80.277 L 9.066 82.184 C 9.199 82.222 9.325 82.262 9.446 82.303 C 13.232 83.598 11.299 86.324 11.299 86.324 C 12.957 86.084 14.237 86.224 15.226 86.562 C 17.994 87.508 18.465 90.001 18.465 90.001 C 18.465 90.001 25.593 84.458 25.223 82.261 C 25.069 81.348 24.352 80.851 23.565 80.582 L 23.565 80.582 Z " transform="matrix(1.8856489658355713, 0, 0, 1.8856489658355713, -9.15, -1.7)"/>
        </g>
        <g id="L_Skate_1_">
          <g id="Blade_4_">
            <path id="Blade_5_" fill="#B7B7B7" d="M 16.634 91.259 C 16.634 91.259 15.545 92.382 12.447 91.669 L 11.378 94.123 C 11.378 94.123 17.551 94.469 21.762 89.387 L 22.361 87.636 L 23.976 85.906 L 23.444 88.007 C 23.444 88.007 24.588 86.560 25.132 86.212 C 25.586 85.922 26.077 86.392 24.515 88.373 C 23.995 89.031 16.815 99.991 6.160 93.662 L 9.546 93.766 L 9.990 90.362 C 9.990 90.362 7.255 88.686 8.754 86.321 C 8.752 86.320 9.927 90.692 16.634 91.259 Z " transform="matrix(1.8856489658355713, 0, 0, 1.8856489658355713, -9.15, -1.7)"/>
            <path id="Blade_Outline_2_" d="M 8.901 95.184 C 7.955 94.861 6.996 94.411 6.048 93.850 L 9.354 93.542 L 9.755 90.467 C 9.407 90.225 8.417 89.449 8.151 88.305 C 7.989 87.605 8.130 86.897 8.569 86.203 L 8.834 85.787 L 8.963 86.264 C 8.972 86.291 9.784 89.121 13.617 90.432 C 14.529 90.744 15.550 90.950 16.653 91.042 L 17.111 91.080 L 16.792 91.411 C 16.745 91.459 15.623 92.570 12.576 91.920 L 11.710 93.908 C 13.015 93.891 18.041 93.540 21.556 89.316 L 22.156 87.564 L 23.817 85.756 L 24.187 85.958 L 23.891 87.127 C 24.261 86.703 24.714 86.218 25.015 86.027 C 25.331 85.823 25.686 85.921 25.774 86.226 C 25.934 86.768 25.271 87.764 24.686 88.505 L 24.567 88.666 C 22.486 91.528 16.797 97.884 8.901 95.184 L 8.901 95.184 Z M 25.368 86.351 C 25.359 86.350 25.315 86.353 25.248 86.396 C 24.827 86.664 23.494 88.156 23.182 88.549 L 23.317 87.621 L 23.557 86.675 L 22.552 87.750 L 21.931 89.525 C 17.700 94.632 11.429 94.343 11.368 94.340 L 11.055 94.322 L 12.322 91.415 L 12.500 91.455 C 14.299 91.869 15.392 91.642 15.965 91.405 C 15.075 91.292 14.240 91.103 13.478 90.843 C 10.336 89.769 9.124 87.760 8.719 86.846 C 8.522 87.301 8.475 87.755 8.577 88.203 C 8.851 89.390 10.093 90.165 10.105 90.174 L 10.225 90.248 L 9.738 93.987 L 7.426 94.100 C 8.092 94.450 8.379 94.546 9.041 94.772 C 16.662 97.378 22.189 91.193 24.213 88.413 L 24.344 88.237 C 25.499 86.774 25.358 86.355 25.368 86.351 L 25.368 86.351 Z " transform="matrix(1.8856489658355713, 0, 0, 1.8856489658355713, -9.15, -1.7)"/>
          </g>
          <g id="Boot_4_">
            <g id="Boot_5_">
              <path id="Fill_6_" fill="#FFFFFF" d="M 24.443 85.338 C 24.443 85.338 19.985 90.932 17.396 91.773 C 14.806 92.614 9.881 89.866 8.586 87.928 C 7.293 85.990 8.629 82.425 9.734 81.882 C 10.840 81.340 19.857 80.292 19.857 80.292 C 19.857 80.292 25.049 78.870 25.775 82.456 C 25.776 82.457 25.500 84.258 24.443 85.338 Z " transform="matrix(1.8856489658355713, 0, 0, 1.8856489658355713, -9.15, -1.7)"/>
              <path id="Outline_14_" d="M 13.835 91.676 C 11.612 90.916 9.278 89.357 8.404 88.048 C 7.790 87.126 7.668 85.744 8.068 84.256 C 8.402 83.016 9.033 81.983 9.638 81.687 C 10.765 81.134 19.461 80.120 19.799 80.083 C 19.892 80.058 22.126 79.459 23.912 80.069 C 25.054 80.460 25.752 81.248 25.988 82.490 C 25.977 82.565 25.690 84.374 24.611 85.474 C 24.427 85.704 20.082 91.128 17.462 91.980 C 16.303 92.357 14.851 92.023 13.835 91.676 C 13.836 91.676 13.836 91.676 13.835 91.676 L 13.835 91.676 Z M 25.561 82.499 L 25.561 82.499 C 25.359 81.497 24.756 80.818 23.773 80.481 C 22.115 79.915 19.937 80.498 19.882 80.508 C 17.385 80.799 10.710 81.646 9.830 82.077 C 9.348 82.316 8.784 83.280 8.490 84.370 C 8.122 85.737 8.222 86.989 8.768 87.808 C 9.581 89.026 11.869 90.544 13.976 91.265 C 13.977 91.265 13.977 91.265 13.977 91.265 C 15.341 91.732 16.500 91.835 17.328 91.567 C 19.827 90.755 24.228 85.258 24.287 85.187 C 25.266 84.185 25.548 82.494 25.561 82.499 L 25.561 82.499 Z " transform="matrix(1.8856489658355713, 0, 0, 1.8856489658355713, -9.15, -1.7)"/>
            </g>
            <g id="Laces_2_">
              <path id="Lace_5_" fill="#5BDDDD" stroke="#000000" stroke-width="0.25" d="M 17.442 80.612 C 17.442 80.612 20.775 81.282 21.293 83.473 C 21.293 83.473 21.543 84.593 20.529 84.190 C 19.516 83.786 20.581 82.206 16.234 80.771 L 17.442 80.612 Z " transform="matrix(1.8856489658355713, 0, 0, 1.8856489658355713, -9.15, -1.7)"/>
              <path id="Lace_4_" fill="#5BDDDD" stroke="#000000" stroke-width="0.25" d="M 14.290 80.898 C 14.290 80.898 18.242 81.604 18.730 84.531 C 18.730 84.531 18.963 86.029 17.775 85.544 C 16.587 85.059 17.953 82.864 12.837 81.184 L 14.290 80.898 Z " transform="matrix(1.8856489658355713, 0, 0, 1.8856489658355713, -9.15, -1.7)"/>
            </g>
          </g>
        </g>
      </g>
      <path id="Left_Flipper_1_" fill="#303A82" stroke="#000000" stroke-width="0.5" d="M 23.173 40.612 C 23.173 40.612 11.909 35.550 10.200 32.960 C 8.490 30.371 5.882 28.221 5.454 31.518 C 5.027 34.816 5.608 45.513 14.438 52.341 C 14.439 52.341 25.350 49.209 23.173 40.612 Z " transform="matrix(1.8856489658355713, 0, 0, 1.8856489658355713, -9.15, -1.7)"/>
      <path id="Right_Flipper_1_" fill="#303A82" stroke="#000000" stroke-width="0.5" d="M 50.698 43.100 C 50.698 43.100 60.063 51.149 63.135 51.596 C 66.205 52.042 69.259 53.492 66.456 55.280 C 63.651 57.066 53.721 61.084 43.788 55.988 C 43.788 55.988 41.990 44.781 50.698 43.100 Z " transform="matrix(1.8856489658355713, 0, 0, 1.8856489658355713, -9.15, -1.7)"/>
      <g id="Body_2_">
        <g id="Body_3_">
          <g id="Body_Base_1_">
            <path id="ID0.9607957485131919" fill="#303A82" d="M 54.617 54.945 C 53.347 41.085 46.371 41.774 45.597 36.070 C 44.822 30.366 44.935 17.404 34.001 17.518 C 23.068 17.632 23.001 30.685 22.346 36.403 C 21.691 42.121 14.722 41.645 13.742 55.528 C 12.762 69.411 18.726 77.372 20.539 80.340 C 22.352 83.310 26.348 81.837 26.871 80.788 C 27.394 79.739 28.589 77.316 28.589 77.316 C 29.943 78.493 34.002 78.644 34.496 78.651 C 34.496 78.651 39.096 78.504 40.426 77.298 C 40.426 77.298 41.670 79.696 42.215 80.734 C 42.762 81.773 46.785 83.162 48.537 80.156 C 50.287 77.150 55.888 68.802 54.617 54.945 Z " transform="matrix(1.8856489658355713, 0, 0, 1.8856489658355713, -9.15, -1.7)"/>
            <path id="Outline_13_" d="M 54.867 54.922 C 54.076 46.305 51.121 43.270 48.746 40.832 C 47.285 39.333 46.131 38.149 45.846 36.037 C 45.756 35.376 45.678 34.617 45.594 33.792 C 44.959 27.612 43.899 17.268 34.145 17.268 L 34 17.269 C 23.883 17.374 22.879 28.135 22.279 34.564 C 22.217 35.223 22.160 35.832 22.097 36.376 C 21.855 38.494 20.730 39.711 19.304 41.253 C 16.987 43.760 14.103 46.881 13.492 55.512 C 12.587 68.325 17.639 76.250 19.798 79.634 C 19.997 79.947 20.176 80.227 20.325 80.472 C 21.270 82.022 22.694 82.347 23.721 82.347 C 25.283 82.347 26.752 81.585 27.094 80.902 C 27.510 80.067 28.352 78.362 28.678 77.700 C 30.389 78.834 34.449 78.903 34.502 78.904 C 34.684 78.898 38.697 78.757 40.320 77.693 L 40.320 77.700 C 40.328 77.696 40.336 77.688 40.341 77.684 C 40.681 78.338 41.556 80.027 41.991 80.853 C 42.341 81.518 43.751 82.229 45.292 82.229 C 46.792 82.229 48.019 81.539 48.751 80.285 L 49.116 79.667 C 51.197 76.175 56.066 68.002 54.867 54.922 Z M 48.689 79.410 L 48.322 80.032 C 47.504 81.434 46.224 81.728 45.295 81.728 C 43.906 81.728 42.674 81.072 42.438 80.620 C 41.971 79.732 40.999 77.860 40.725 77.335 C 41.192 76.791 41.666 75.904 41.666 75.904 L 40.504 76.908 L 40.498 76.897 L 40.258 77.115 C 39.012 78.245 34.533 78.402 34.500 78.403 C 34.457 78.402 30.111 78.310 28.753 77.130 L 28.508 76.917 L 27.336 75.904 C 27.336 75.904 27.822 76.810 28.293 77.352 C 28.035 77.875 27.098 79.778 26.648 80.678 C 26.410 81.154 25.152 81.846 23.722 81.846 C 22.823 81.846 21.577 81.562 20.752 80.211 C 20.601 79.963 20.421 79.681 20.219 79.364 C 18.088 76.021 13.097 68.194 13.991 55.546 C 14.589 47.090 17.407 44.042 19.671 41.591 C 21.100 40.046 22.333 38.712 22.595 36.431 C 22.657 35.885 22.714 35.271 22.777 34.609 C 23.361 28.348 24.339 17.868 34.005 17.767 L 34.145 17.766 C 43.448 17.766 44.440 27.440 45.096 33.842 C 45.180 34.673 45.260 35.437 45.350 36.103 C 45.659 38.379 46.924 39.677 48.387 41.180 C 50.707 43.562 53.596 46.526 54.369 54.966 C 55.552 67.886 50.744 75.961 48.689 79.410 Z " transform="matrix(1.8856489658355713, 0, 0, 1.8856489658355713, -9.15, -1.7)"/>
          </g>
          <path id="Tummy_Fill_1_" fill="#FFFFFF" d="M 44.929 38.320 C 43.513 36.070 43.183 35.761 43.222 34.778 C 44.097 12.445 34.304 24.365 34.304 24.365 C 34.304 24.365 23.292 13.237 24.950 34.695 C 25.025 35.668 24.913 36.070 23.497 38.320 C 22.079 40.570 15.245 50.237 17.829 59.737 C 20.413 69.237 30.123 72.379 34.122 72.397 C 37.763 72.414 48.013 69.237 50.597 59.737 C 53.181 50.237 46.347 40.570 44.929 38.320 Z " transform="matrix(1.8856489658355713, 0, 0, 1.8856489658355713, -9.15, -1.7)"/>
        </g>
        <g id="L_Eye_1_">
          <path id="White_3_" fill="#FFFFFF" stroke="#000000" stroke-width="0.25" d="M 28.114 23.692 C 28.700 23.692 29.232 24.107 29.616 24.779 C 30.001 25.450 30.239 26.377 30.239 27.400 C 30.239 28.423 30.001 29.350 29.616 30.021 C 29.232 30.693 28.700 31.108 28.114 31.108 C 27.528 31.108 26.996 30.693 26.612 30.021 C 26.227 29.350 25.989 28.423 25.989 27.400 C 25.989 26.377 26.227 25.450 26.612 24.779 C 26.996 24.107 27.528 23.692 28.114 23.692 Z " transform="matrix(1.8567986488342285, 0.32904574275016785, -0.32904574275016785, 1.8567986488342285, 0.6, -10)"/>
          <path id="Iris_3_" fill="#5BDDDD" stroke="#000000" stroke-width="0.25" d="M 27.831 26.083 C 28.300 26.083 28.724 26.363 29.032 26.815 C 29.340 27.267 29.530 27.892 29.530 28.581 C 29.530 29.270 29.340 29.895 29.032 30.347 C 28.724 30.799 28.300 31.079 27.831 31.079 C 27.362 31.079 26.938 30.799 26.630 30.347 C 26.322 29.895 26.132 29.270 26.132 28.581 C 26.132 27.892 26.322 27.267 26.630 26.815 C 26.938 26.363 27.362 26.083 27.831 26.083 Z " transform="matrix(1.8728265762329102, 0.21892385184764862, -0.21892385184764862, 1.8728265762329102, -2.5, -7.3)"/>
          <path id="Pupil_3_" d="M 27.831 27.091 C 28.128 27.091 28.396 27.278 28.591 27.580 C 28.786 27.882 28.906 28.300 28.906 28.760 C 28.906 29.220 28.786 29.638 28.591 29.940 C 28.396 30.242 28.128 30.429 27.831 30.429 C 27.534 30.429 27.266 30.242 27.071 29.940 C 26.876 29.638 26.756 29.220 26.756 28.760 C 26.756 28.300 26.876 27.882 27.071 27.580 C 27.266 27.278 27.534 27.091 27.831 27.091 Z " transform="matrix(1.8732036352157593, 0.21590681374073029, -0.21590681374073029, 1.8732036352157593, -2.6, -7.25)"/>
          <path id="Highlight_3_" fill="#FFFFFF" d="M 27.336 26.806 C 27.499 26.806 27.646 26.872 27.752 26.979 C 27.859 27.085 27.925 27.232 27.925 27.395 C 27.925 27.558 27.859 27.705 27.752 27.811 C 27.646 27.918 27.499 27.984 27.336 27.984 C 27.173 27.984 27.026 27.918 26.920 27.811 C 26.813 27.705 26.747 27.558 26.747 27.395 C 26.747 27.232 26.813 27.085 26.920 26.979 C 27.026 26.872 27.173 26.806 27.336 26.806 Z " transform="matrix(1.8856489658355713, 0, 0, 1.8856489658355713, -9.15, -1.7)"/>
        </g>
        <g id="R_Eye_2_">
          <path id="White_2_" fill="#FFFFFF" stroke="#000000" stroke-width="0.25" d="M 40.094 23.262 C 40.681 23.262 41.212 23.677 41.597 24.349 C 41.982 25.020 42.220 25.947 42.220 26.970 C 42.220 27.993 41.982 28.920 41.597 29.591 C 41.212 30.263 40.681 30.678 40.094 30.678 C 39.507 30.678 38.976 30.263 38.591 29.591 C 38.206 28.920 37.968 27.993 37.968 26.970 C 37.968 25.947 38.206 25.020 38.591 24.349 C 38.976 23.677 39.507 23.262 40.094 23.262 Z " transform="matrix(1.870186686515808, -0.240608811378479, 0.240608811378479, 1.870186686515808, -14.95, 8.2)"/>
          <path id="Iris_2_" fill="#5BDDDD" stroke="#000000" stroke-width="0.25" d="M 40.177 25.683 C 40.646 25.683 41.071 25.963 41.379 26.415 C 41.687 26.867 41.877 27.492 41.877 28.181 C 41.877 28.870 41.687 29.495 41.379 29.947 C 41.071 30.399 40.646 30.679 40.177 30.679 C 39.708 30.679 39.283 30.399 38.975 29.947 C 38.667 29.495 38.477 28.870 38.477 28.181 C 38.477 27.492 38.667 26.867 38.975 26.415 C 39.283 25.963 39.708 25.683 40.177 25.683 Z " transform="matrix(1.8526501655578613, -0.3507307171821594, 0.3507307171821594, 1.8526501655578613, -17.6, 13.2)"/>
          <path id="Pupil_2_" d="M 40.231 26.683 C 40.528 26.683 40.796 26.870 40.991 27.172 C 41.186 27.474 41.306 27.892 41.306 28.352 C 41.306 28.812 41.186 29.230 40.991 29.532 C 40.796 29.834 40.528 30.021 40.231 30.021 C 39.934 30.021 39.666 29.834 39.471 29.532 C 39.276 29.230 39.156 28.812 39.156 28.352 C 39.156 27.892 39.276 27.474 39.471 27.172 C 39.666 26.870 39.934 26.683 40.231 26.683 Z " transform="matrix(1.8522729873657227, -0.35337063670158386, 0.35337063670158386, 1.8522729873657227, -17.8, 13.3)"/>
          <path id="Highlight_2_" fill="#FFFFFF" d="M 39.349 26.608 C 39.512 26.608 39.659 26.674 39.765 26.781 C 39.872 26.887 39.938 27.034 39.938 27.197 C 39.938 27.360 39.872 27.507 39.765 27.613 C 39.659 27.720 39.512 27.786 39.349 27.786 C 39.186 27.786 39.039 27.720 38.933 27.613 C 38.826 27.507 38.760 27.360 38.760 27.197 C 38.760 27.034 38.826 26.887 38.933 26.781 C 39.039 26.674 39.186 26.608 39.349 26.608 Z " transform="matrix(1.8856489658355713, 0, 0, 1.8856489658355713, -9.15, -1.7)"/>
        </g>
        <g id="Beak_1_">
          <path id="Bottom_Beak_1_" fill="#DD5900" stroke="#000000" stroke-width="0.25" d="M 37.384 31.289 C 36.179 32.378 34.280 33.850 31.230 31.455 L 31.211 31.455 C 31.211 31.455 31.185 33.828 34.280 33.850 C 37.255 33.872 37.470 31.582 37.384 31.289 L 37.384 31.289 Z " transform="matrix(1.8856489658355713, 0, 0, 1.8856489658355713, -9.15, -1.7)"/>
          <g id="Top_Beak_2_">
            <path id="Fill_5_" fill="#FF822E" d="M 34.304 32.975 C 36.033 32.953 37.286 31.434 37.911 31.122 C 38.165 30.997 38.304 30.908 38.304 30.908 C 37.179 30.300 37.388 30.141 36.179 29.280 C 34.970 28.419 33.498 28.752 32.679 29.280 C 31.835 29.824 30.304 31.122 30.304 31.122 C 30.457 31.195 30.626 31.216 30.757 31.314 C 31.638 31.975 33.268 32.989 34.304 32.975 Z " transform="matrix(1.8856489658355713, 0, 0, 1.8856489658355713, -9.15, -1.7)"/>
            <path id="Outline_12_" d="M 38.351 30.385 C 38.445 30.562 38.447 30.737 38.439 30.839 L 38.365 30.799 C 37.748 30.466 37.549 30.278 37.272 30.016 C 37.058 29.814 36.791 29.562 36.252 29.179 C 35.217 28.442 33.685 28.484 32.611 29.176 C 31.856 29.663 30.590 30.719 30.293 30.968 C 30.288 30.863 30.297 30.705 30.382 30.544 C 30.382 30.544 29.444 30.900 29.601 31.949 L 30.367 31.280 C 30.394 31.290 30.422 31.302 30.449 31.311 C 30.537 31.340 30.619 31.367 30.682 31.415 C 31.720 32.192 33.285 33.100 34.284 33.100 L 34.306 33.100 C 35.607 33.083 36.652 32.244 37.342 31.688 C 37.593 31.487 37.810 31.313 37.968 31.234 C 38.134 31.151 38.232 31.095 38.296 31.058 L 39.132 31.789 C 39.289 30.741 38.351 30.385 38.351 30.385 Z M 37.857 31.011 C 37.673 31.102 37.459 31.275 37.185 31.494 C 36.482 32.060 35.517 32.835 34.303 32.850 L 34.283 32.975 L 34.283 32.850 C 33.346 32.850 31.839 31.969 30.832 31.215 C 30.752 31.155 30.664 31.124 30.577 31.094 L 30.585 31.087 L 30.564 31.087 C 30.558 31.086 30.554 31.082 30.548 31.080 C 30.966 30.733 32.081 29.815 32.747 29.385 C 33.735 28.748 35.153 28.702 36.106 29.382 C 36.631 29.756 36.879 29.990 37.099 30.197 C 37.348 30.432 37.551 30.623 38.049 30.909 C 37.996 30.939 37.931 30.973 37.857 31.011 Z " transform="matrix(1.8856489658355713, 0, 0, 1.8856489658355713, -9.15, -1.7)"/>
          </g>
        </g>
      </g>
      <g id="Hat_1_">
        <g id="Hat_Base_1_">
          <path id="Fill_4_" fill="#AF2020" d="M 25.731 18.599 C 25.731 18.599 25.285 14.084 30.593 11.257 C 35.902 8.429 38.853 5.587 39.259 5.054 C 39.568 4.649 40.218 3.168 40.960 3.963 C 41.706 4.757 41.706 7.783 40.960 10.909 C 40.218 14.034 41.964 15.970 41.761 18.302 C 41.761 18.302 34.265 14.878 25.731 18.599 Z " transform="matrix(1.8856489658355713, 0, 0, 1.8856489658355713, -9.15, -1.7)"/>
          <g id="Stripes_7_">
            <path id="ID0.4963077115826309" fill="#871212" d="M 26.092 16.217 C 26.092 16.217 33.368 12.239 41.525 16.217 L 41.097 14.779 C 41.097 14.779 34.814 11.490 26.746 14.780 L 26.092 16.217 Z " transform="matrix(1.8856489658355713, 0, 0, 1.8856489658355713, -9.15, -1.7)"/>
            <path id="ID0.9561287104152143" fill="#871212" d="M 29.263 11.987 C 29.263 11.987 36.156 10.077 40.542 12.907 L 40.804 11.737 C 40.804 11.737 36.034 9.034 31.211 10.635 L 29.263 11.987 Z " transform="matrix(1.8856489658355713, 0, 0, 1.8856489658355713, -9.15, -1.7)"/>
            <path id="ID0.20460291113704443" fill="#871212" d="M 36.109 8.104 C 36.109 8.104 39.703 8.132 40.857 10.227 L 41.302 9.165 C 41.302 9.165 40.595 7.113 37.054 7.154 L 35.988 8.193 " transform="matrix(1.8856489658355713, 0, 0, 1.8856489658355713, -9.15, -1.7)"/>
            <path id="ID0.16744692157953978" fill="#871212" d="M 39.259 5.054 C 39.259 5.054 41.013 5.362 41.472 6.445 L 41.302 5.054 L 39.597 4.100 L 39.259 5.054 Z " transform="matrix(1.8856489658355713, 0, 0, 1.8856489658355713, -9.15, -1.7)"/>
          </g>
          <path id="Outline_11_" d="M 25.516 18.965 L 25.482 18.623 C 25.478 18.577 25.082 13.909 30.476 11.036 C 35.843 8.177 38.749 5.311 39.060 4.903 C 39.113 4.836 39.173 4.736 39.244 4.623 C 39.541 4.142 39.951 3.482 40.517 3.482 C 40.740 3.482 40.951 3.586 41.144 3.792 C 42.072 4.780 41.876 8.149 41.205 10.967 C 40.791 12.711 41.178 14.065 41.553 15.375 C 41.834 16.362 42.102 17.293 42.012 18.323 L 41.981 18.676 L 41.659 18.530 C 41.628 18.516 38.503 17.115 34.079 17.115 C 31.215 17.115 28.440 17.692 25.833 18.828 L 25.516 18.965 L 25.516 18.965 Z M 40.517 3.982 C 40.228 3.982 39.865 4.570 39.667 4.886 C 39.587 5.015 39.517 5.128 39.458 5.205 C 39.118 5.652 36.228 8.538 30.711 11.477 C 26.406 13.769 25.986 17.135 25.970 18.225 C 28.542 17.156 31.268 16.614 34.077 16.614 C 37.817 16.614 40.595 17.565 41.528 17.933 C 41.530 17.121 41.305 16.337 41.071 15.512 C 40.696 14.204 40.272 12.722 40.717 10.851 C 41.514 7.510 41.369 4.763 40.778 4.134 C 40.685 4.033 40.597 3.982 40.517 3.982 L 40.517 3.982 Z " transform="matrix(1.8856489658355713, 0, 0, 1.8856489658355713, -9.15, -1.7)"/>
        </g>
        <path id="Puff_1_" fill="#FFFFFF" stroke="#000000" stroke-width="0.5" d="M 40.857 1.173 C 41.353 1.173 41.803 1.365 42.129 1.674 C 42.454 1.983 42.656 2.411 42.656 2.882 C 42.656 3.353 42.454 3.781 42.129 4.090 C 41.803 4.399 41.353 4.591 40.857 4.591 C 40.361 4.591 39.911 4.399 39.585 4.090 C 39.260 3.781 39.058 3.353 39.058 2.882 C 39.058 2.411 39.260 1.983 39.585 1.674 C 39.911 1.365 40.361 1.173 40.857 1.173 Z " transform="matrix(1.8856489658355713, 0, 0, 1.8856489658355713, -9.15, -1.7)"/>
        <g id="Brim_1_">
          <path id="Brim_Fill_1_" fill="#FFFFFF" d="M 25.005 19.989 C 25.005 19.989 24.304 19.241 25.005 18.599 C 25.706 17.958 29.533 16.169 33.719 16.218 C 37.904 16.267 39.281 16.764 40.355 17.260 C 41.427 17.756 43.523 19.046 42.623 20.187 C 42.623 20.187 43.894 22.285 42.760 22.285 C 42.504 22.285 41.731 21.973 41.731 21.973 C 41.731 21.973 35.376 18.401 25.899 21.973 C 25.898 21.974 22.966 23.180 25.005 19.989 Z " transform="matrix(1.8856489658355713, 0, 0, 1.8856489658355713, -9.15, -1.7)"/>
          <path id="Brim_Outline_1_" d="M 42.898 20.189 C 43.066 19.923 43.113 19.635 43.041 19.332 C 42.768 18.194 40.850 17.256 40.469 17.080 C 39.367 16.571 37.942 16.070 33.754 16.020 L 33.580 16.019 C 29.414 16.019 25.635 17.783 24.902 18.453 C 24.664 18.672 24.538 18.926 24.527 19.207 C 24.514 19.541 24.673 19.829 24.785 19.989 C 24.220 20.734 24.041 21.390 24.250 21.941 C 24.605 22.872 26.144 22.107 26.144 22.107 C 28.869 21.097 31.594 20.585 34.247 20.585 C 38.341 20.585 41.024 21.822 41.565 22.095 C 41.565 22.095 42.430 22.481 42.756 22.471 C 43.127 22.459 43.281 22.213 43.356 21.883 C 43.505 21.228 43.082 20.478 42.898 20.189 Z M 42.968 21.794 C 42.798 22.306 41.859 21.800 41.859 21.800 C 41.742 21.734 38.935 20.187 34.246 20.187 C 31.500 20.187 28.677 20.725 25.859 21.788 L 25.716 21.842 C 25.716 21.842 24.813 22.303 24.620 21.798 C 24.453 21.359 24.645 20.792 25.190 20.114 L 25.298 19.979 C 25.298 19.979 25.593 19.604 26.213 19.307 C 26.213 19.307 25.692 19.311 25.094 19.735 C 25.016 19.620 24.914 19.433 24.922 19.222 C 24.930 19.048 25.010 18.892 25.170 18.746 C 25.783 18.184 29.481 16.415 33.578 16.415 L 33.747 16.416 C 37.855 16.465 39.236 16.949 40.301 17.440 C 41.352 17.925 42.487 18.727 42.653 19.423 C 42.698 19.605 42.655 19.773 42.565 19.937 C 42.003 19.571 41.522 19.566 41.522 19.566 C 42.143 19.863 42.438 20.239 42.438 20.239 L 42.448 20.238 L 42.495 20.304 C 42.667 20.541 43.140 21.280 42.968 21.794 Z " transform="matrix(1.8856489658355713, 0, 0, 1.8856489658355713, -9.15, -1.7)"/>
        </g>
      </g>
      <g id="Scarf_1_">
        <g id="Bottom_1_">
          <g id="Fringe_1_">
            <path id="ID0.8003017934970558" fill="#871212" d="M 12.664 74.363 C 12.543 74.361 12.139 74.333 12.033 74.043 C 11.927 73.754 12.207 73.511 12.299 73.431 C 12.393 73.380 14.014 72.795 15.462 71.289 C 15.271 71.188 15.088 71.086 14.913 70.984 C 14.341 71.804 12.564 72.903 11.090 73.354 C 11.086 73.354 11.082 73.354 11.078 73.354 C 10.864 73.354 10.475 73.300 10.387 73.010 C 10.297 72.715 10.590 72.488 10.687 72.412 C 10.784 72.366 12.463 71.862 14.002 70.405 C 13.789 70.257 13.589 70.108 13.404 69.961 C 12.887 70.691 10.966 71.756 9.411 72.140 C 9.199 72.129 8.801 72.056 8.728 71.756 C 8.655 71.457 8.960 71.247 9.061 71.178 C 9.163 71.137 10.957 70.710 12.611 69.250 C 12.467 69.104 12.331 68.956 12.202 68.804 C 11.580 69.486 9.642 70.366 8.101 70.625 C 7.892 70.600 7.500 70.498 7.450 70.193 C 7.400 69.889 7.720 69.702 7.825 69.640 C 7.931 69.607 9.798 69.309 11.578 67.935 C 11.462 67.740 11.370 67.559 11.300 67.401 C 10.551 68.083 8.770 68.863 7.335 69.104 C 7.125 69.079 6.732 68.977 6.682 68.672 C 6.631 68.369 6.952 68.182 7.057 68.120 C 7.165 68.086 9.110 67.774 10.924 66.323 L 10.965 66.291 C 11.011 66.002 11.345 65.729 11.494 65.621 L 11.774 65.417 L 11.879 65.747 C 12.901 68.949 17.180 70.895 17.223 70.914 L 17.609 71.087 L 16.568 71.874 L 16.440 71.805 C 15.922 72.621 14.204 73.818 12.754 74.347 L 12.711 74.364 L 12.664 74.363 Z " transform="matrix(1.8856489658355713, 0, 0, 1.8856489658355713, -9.15, -1.7)"/>
            <path id="ID0.6091966386884451" d="M 11.640 65.824 C 12.709 69.174 17.120 71.143 17.120 71.143 L 16.545 71.578 L 16.331 71.462 C 16.327 71.477 16.328 71.485 16.323 71.502 C 16.131 72.134 14.265 73.529 12.669 74.113 C 12.669 74.113 11.909 74.101 12.464 73.619 C 12.464 73.619 14.306 72.973 15.870 71.218 C 15.490 71.028 15.143 70.833 14.824 70.640 C 14.818 70.662 14.817 70.679 14.808 70.704 C 14.583 71.324 12.644 72.618 11.018 73.115 C 11.018 73.115 10.260 73.062 10.841 72.610 C 10.841 72.610 12.733 72.061 14.396 70.371 C 13.986 70.099 13.624 69.827 13.314 69.561 C 13.303 69.602 13.293 69.644 13.270 69.699 C 13.010 70.305 11.004 71.490 9.353 71.897 C 9.353 71.897 8.600 71.801 9.205 71.384 C 9.205 71.384 11.182 70.932 12.955 69.278 C 12.955 69.278 12.968 69.274 12.989 69.269 C 12.658 68.957 12.393 68.655 12.176 68.372 C 12.163 68.407 12.155 68.439 12.132 68.482 C 11.827 69.066 9.738 70.096 8.061 70.379 C 8.061 70.379 7.317 70.228 7.951 69.856 C 7.951 69.856 9.955 69.555 11.849 68.040 C 11.849 68.040 11.883 68.031 11.931 68.027 C 11.635 67.578 11.469 67.192 11.380 66.921 C 11.372 66.936 11.371 66.945 11.363 66.962 C 11.058 67.546 8.970 68.576 7.293 68.858 C 7.293 68.858 6.547 68.708 7.183 68.337 C 7.183 68.337 9.187 68.034 11.080 66.520 C 11.080 66.520 11.142 66.506 11.214 66.506 C 11.235 66.506 11.256 66.507 11.277 66.510 C 11.275 66.490 11.272 66.479 11.272 66.479 C 11.010 66.283 11.640 65.824 11.640 65.824 M 11.905 65.011 L 11.345 65.419 C 11.149 65.563 10.842 65.828 10.741 66.148 C 8.991 67.537 7.125 67.838 7.106 67.841 L 7.012 67.856 L 6.930 67.905 C 6.455 68.182 6.398 68.498 6.434 68.714 C 6.511 69.176 7.035 69.317 7.193 69.349 L 7.283 69.368 L 7.374 69.352 C 8.623 69.142 10.302 68.477 11.215 67.802 C 11.226 67.823 11.238 67.846 11.250 67.867 C 9.581 69.088 7.893 69.359 7.875 69.362 L 7.781 69.377 L 7.698 69.425 C 7.224 69.703 7.167 70.019 7.203 70.235 C 7.280 70.697 7.803 70.839 7.961 70.871 L 8.052 70.890 L 8.144 70.874 C 9.490 70.646 11.337 69.891 12.186 69.165 C 12.207 69.188 12.228 69.211 12.249 69.234 C 10.698 70.519 9.110 70.894 9.093 70.898 L 8.999 70.919 L 8.920 70.972 C 8.468 71.284 8.434 71.603 8.486 71.816 C 8.597 72.271 9.129 72.373 9.289 72.393 L 9.381 72.405 L 9.471 72.383 C 10.836 72.046 12.687 71.112 13.441 70.307 C 13.495 70.348 13.550 70.389 13.606 70.430 C 12.175 71.692 10.717 72.126 10.701 72.130 L 10.609 72.157 L 10.533 72.216 C 10.099 72.554 10.084 72.874 10.148 73.083 C 10.284 73.531 10.821 73.603 10.982 73.614 L 11.074 73.620 L 11.162 73.594 C 11.481 73.496 11.826 73.364 12.176 73.206 L 12.134 73.242 C 11.719 73.602 11.722 73.923 11.797 74.128 C 11.958 74.568 12.497 74.610 12.659 74.613 L 12.752 74.614 L 12.839 74.583 C 14.135 74.108 15.835 73.009 16.522 72.135 L 16.589 72.171 L 16.846 71.978 L 17.421 71.543 L 18.096 71.033 L 17.324 70.687 C 17.282 70.667 13.103 68.765 12.116 65.671 L 11.905 65.011 L 11.905 65.011 Z M 12.333 73.134 C 13.396 72.636 14.476 71.930 14.996 71.319 C 15.014 71.330 15.032 71.340 15.049 71.349 C 13.824 72.530 12.557 73.048 12.333 73.134 L 12.333 73.134 Z " transform="matrix(1.8856489658355713, 0, 0, 1.8856489658355713, -9.15, -1.7)"/>
          </g>
          <path id="ID0.301447163335979" fill="#AF2020" d="M 30.696 43.089 C 30.696 43.089 24.629 43.895 21.036 49.292 C 17.444 54.687 20.090 58.771 11.171 65.968 C 11.171 65.968 11.031 69.149 16.802 71.896 C 16.802 71.896 24.304 65.380 25.037 58.372 C 25.771 51.363 30.747 46.460 33.798 45.797 L 37.027 44.612 L 30.696 43.089 Z " transform="matrix(1.8856489658355713, 0, 0, 1.8856489658355713, -9.15, -1.7)"/>
          <g id="Stripes_6_">
            <path id="ID0.7702099848538637" fill="#871212" d="M 13.480 64.004 C 13.480 64.004 14.093 68.078 19.282 69.439 L 20.215 68.283 C 20.215 68.283 14.944 64.878 14.671 62.763 L 13.480 64.004 Z " transform="matrix(1.8856489658355713, 0, 0, 1.8856489658355713, -9.15, -1.7)"/>
            <path id="ID0.29858202300965786" fill="#871212" d="M 16.446 60.474 C 16.446 60.474 17.383 63.512 22.449 65.130 L 23.495 63.420 C 23.495 63.420 18.571 61.917 17.308 58.862 L 16.446 60.474 Z " transform="matrix(1.8856489658355713, 0, 0, 1.8856489658355713, -9.15, -1.7)"/>
            <path id="ID0.94218366779387" fill="#871212" d="M 18.186 56.706 C 18.186 56.706 19.887 59.624 24.848 59.731 L 25.132 57.839 C 25.132 57.839 19.851 57.325 18.572 55.446 L 18.186 56.706 Z " transform="matrix(1.8856489658355713, 0, 0, 1.8856489658355713, -9.15, -1.7)"/>
            <path id="ID0.9307069252245128" fill="#871212" d="M 19.640 51.998 C 19.640 51.998 21.044 54.497 25.911 54.511 L 26.636 52.841 C 26.636 52.841 21.032 51.612 20.259 50.614 L 19.640 51.998 Z " transform="matrix(1.8856489658355713, 0, 0, 1.8856489658355713, -9.15, -1.7)"/>
            <path id="ID0.4161816337145865" fill="#871212" d="M 21.943 48.081 L 28.452 49.734 L 29.788 47.942 C 29.788 47.942 23.663 46.450 23.347 46.639 C 23.030 46.828 21.943 48.081 21.943 48.081 Z " transform="matrix(1.8856489658355713, 0, 0, 1.8856489658355713, -9.15, -1.7)"/>
            <path id="ID0.39353090059012175" fill="#871212" d="M 26.661 44.669 L 32.109 46.436 L 34.329 45.598 L 28.828 43.498 L 26.661 44.669 " transform="matrix(1.8856489658355713, 0, 0, 1.8856489658355713, -9.15, -1.7)"/>
          </g>
          <path id="ID0.1931856549344957" d="M 16.842 72.191 L 16.695 72.122 C 10.841 69.335 10.916 66.094 10.921 65.957 L 10.927 65.844 L 11.014 65.774 C 16.710 61.178 17.637 57.867 18.535 54.665 C 19.025 52.912 19.533 51.100 20.827 49.154 C 23.887 44.559 28.753 43.229 30.171 42.931 C 30.484 42.865 30.662 42.842 30.662 42.842 L 37.889 44.562 L 33.885 46.032 C 30.745 46.717 25.982 51.744 25.287 58.397 C 24.551 65.423 17.276 71.817 16.967 72.085 L 16.842 72.191 L 16.842 72.191 Z M 11.427 66.083 C 11.474 66.637 11.957 69.264 16.761 71.598 C 17.728 70.719 24.126 64.687 24.789 58.346 C 25.537 51.199 30.560 46.244 33.745 45.553 L 36.167 44.662 L 30.660 43.339 C 30.653 43.351 30.502 43.374 30.274 43.421 C 28.901 43.710 24.198 44.995 21.245 49.431 C 19.994 51.311 19.518 53.006 19.016 54.800 C 18.103 58.057 17.159 61.427 11.427 66.083 L 11.427 66.083 Z " transform="matrix(1.8856489658355713, 0, 0, 1.8856489658355713, -9.15, -1.7)"/>
        </g>
        <g id="Middle_1_">
          <path id="Base_Fill_3_" fill="#AF2020" d="M 30.804 44.903 C 30.804 44.903 36.597 47.529 42.232 46.341 C 47.867 45.153 49.679 43.714 51.742 44.903 C 51.742 44.903 52.867 42.779 49.180 41.279 C 49.180 41.279 50.430 38.717 48.430 37.654 C 48.429 37.654 40.742 34.589 30.804 44.903 Z " transform="matrix(1.8856489658355713, 0, 0, 1.8856489658355713, -9.15, -1.7)"/>
          <g id="Stripes_5_">
            <path id="Stripe_21_" fill="#871212" d="M 38.443 39.056 C 38.443 39.056 41.382 41.145 40.250 46.650 L 39.350 46.650 C 39.350 46.650 40.176 41.979 37.618 39.529 L 38.443 39.056 Z " transform="matrix(1.8856489658355713, 0, 0, 1.8856489658355713, -9.15, -1.7)"/>
            <path id="Stripe_20_" fill="#871212" d="M 41.617 37.779 C 41.617 37.779 44.168 39.821 43.689 45.753 L 44.818 45.463 C 44.818 45.463 45.367 40.591 42.929 37.435 L 41.617 37.779 Z " transform="matrix(1.8856489658355713, 0, 0, 1.8856489658355713, -9.15, -1.7)"/>
            <path id="Stripe_19_" fill="#871212" d="M 35.054 41.091 C 35.054 41.091 36.929 43.466 36.429 46.450 L 35.784 46.349 C 35.784 46.349 35.272 42.276 34.366 41.668 L 35.054 41.091 Z " transform="matrix(1.8856489658355713, 0, 0, 1.8856489658355713, -9.15, -1.7)"/>
            <path id="Stripe_18_" fill="#871212" d="M 48.429 40.966 C 48.361 40.796 48.279 38.091 47.636 37.435 L 46.210 37.228 C 46.210 37.228 47.655 38.545 47.323 40.834 C 47.323 40.834 49.046 42.360 48.846 44.366 L 49.897 44.366 C 49.898 44.366 49.960 42.029 48.429 40.966 Z " transform="matrix(1.8856489658355713, 0, 0, 1.8856489658355713, -9.15, -1.7)"/>
          </g>
          <path id="Outline_10_" d="M 52.015 43.360 C 51.695 42.478 50.853 41.734 49.511 41.147 C 49.925 40.115 50.161 38.290 48.523 37.421 C 48.476 37.403 47.388 36.978 45.507 36.978 C 42.124 36.978 36.798 38.323 30.624 44.729 L 30.378 44.984 L 30.701 45.130 C 30.740 45.148 34.655 46.899 39.136 46.899 C 40.238 46.899 41.296 46.794 42.284 46.586 C 44.188 46.184 45.663 45.753 46.848 45.406 C 49.147 44.733 50.391 44.414 51.616 45.119 L 51.841 45.248 L 51.962 45.019 C 51.978 44.990 52.347 44.276 52.015 43.360 Z M 51.605 44.548 C 50.322 43.932 48.988 44.259 46.709 44.926 C 45.533 45.270 44.068 45.699 42.182 46.096 C 41.229 46.297 40.203 46.399 39.137 46.399 C 35.512 46.399 32.263 45.223 31.241 44.814 C 37.182 38.760 42.270 37.478 45.509 37.478 C 47.269 37.478 48.310 37.874 48.314 37.874 C 49.765 38.645 49.294 40.312 49.056 40.932 C 48.452 40.738 47.003 40.509 44.994 41.747 C 44.994 41.747 47.092 40.697 49.275 41.600 C 50.478 42.124 51.269 42.782 51.543 43.520 C 51.701 43.951 51.662 44.321 51.605 44.548 Z " transform="matrix(1.8856489658355713, 0, 0, 1.8856489658355713, -9.15, -1.7)"/>
        </g>
        <g id="Top_1_">
          <path id="Base_Fill_2_" fill="#AF2020" d="M 21.242 36.529 C 21.242 36.529 19.992 35.591 20.617 34.467 C 21.242 33.343 22.367 32.860 22.367 32.976 C 22.367 33.092 33.179 41.987 45.367 32.571 L 45.367 31.290 C 45.367 31.290 49.929 33.405 48.429 37.655 C 48.429 37.655 45.693 36.780 43.156 39.530 C 40.617 42.280 38.367 48.155 18.929 42.592 C 18.929 42.592 17.367 42.092 18.179 40.592 C 18.991 39.092 21.429 37.654 21.242 36.529 Z " transform="matrix(1.8856489658355713, 0, 0, 1.8856489658355713, -9.15, -1.7)"/>
          <g id="Stripes_4_">
            <path id="Stripe_17_" fill="#871212" d="M 23.541 33.850 C 23.541 33.850 21.836 34.458 22.711 37.228 C 22.711 37.228 22.649 38.810 21.399 40.123 C 20.149 41.436 20.180 42.373 19.961 42.873 L 21.961 43.350 C 21.961 43.350 22.055 41.623 22.867 40.655 C 23.679 39.687 23.828 38.284 23.910 37.657 C 23.992 37.030 23.117 35.530 24.461 34.499 L 23.541 33.850 Z " transform="matrix(1.8856489658355713, 0, 0, 1.8856489658355713, -9.15, -1.7)"/>
            <path id="Stripe_16_" fill="#871212" d="M 26.896 35.660 C 26.914 35.400 26.292 36.746 26.500 38.513 C 26.709 40.280 25.646 41.183 25.240 42.356 C 24.834 43.529 24.775 44.034 24.775 44.034 L 26.232 44.313 C 26.232 44.313 26.925 41.779 27.525 40.737 C 28.125 39.695 27.792 38.677 27.792 37.645 C 27.792 36.613 28.115 36.157 28.115 36.157 L 26.896 35.660 Z " transform="matrix(1.8856489658355713, 0, 0, 1.8856489658355713, -9.15, -1.7)"/>
            <path id="Stripe_15_" fill="#871212" d="M 30.804 36.659 C 30.804 36.738 30.097 38.571 30.513 40.404 C 30.929 42.237 29.815 44.538 29.815 44.538 L 31.211 44.630 C 31.211 44.630 32.054 42.510 31.846 40.645 C 31.638 38.780 31.579 38.199 31.879 36.802 L 30.804 36.659 Z " transform="matrix(1.8856489658355713, 0, 0, 1.8856489658355713, -9.15, -1.7)"/>
            <path id="Stripe_14_" fill="#871212" d="M 34.648 36.810 C 34.648 36.810 35.586 39.435 34.804 41.779 C 34.804 41.779 35.492 43.168 34.366 44.630 L 35.115 44.630 C 35.115 44.630 36.210 43.693 35.897 41.940 C 35.897 41.940 37.170 40.809 35.954 36.811 L 34.648 36.811 Z " transform="matrix(1.8856489658355713, 0, 0, 1.8856489658355713, -9.15, -1.7)"/>
            <path id="Stripe_13_" fill="#871212" d="M 38.759 36.101 C 38.759 36.101 40.657 38.487 39.763 41.716 C 39.763 41.716 39.992 42.195 39.554 43.049 L 40.638 42.320 C 40.638 42.320 40.892 41.752 40.826 41.549 C 40.760 41.346 41.986 39.725 40.178 35.627 L 38.759 36.101 Z " transform="matrix(1.8856489658355713, 0, 0, 1.8856489658355713, -9.15, -1.7)"/>
            <path id="Stripe_12_" fill="#871212" d="M 43.138 34.133 C 43.138 34.133 44.909 35.404 44.472 38.425 L 45.576 37.800 C 45.576 37.800 45.576 34.654 44.055 33.592 L 43.138 34.133 Z " transform="matrix(1.8856489658355713, 0, 0, 1.8856489658355713, -9.15, -1.7)"/>
            <path id="Stripe_11_" fill="#871212" d="M 45.617 32.692 C 45.617 32.692 48.549 33.614 48.303 37.228 L 48.317 37.614 C 48.317 37.614 50.389 34.237 45.368 31.383 L 45.617 32.692 Z " transform="matrix(1.8856489658355713, 0, 0, 1.8856489658355713, -9.15, -1.7)"/>
          </g>
          <path id="Outline_9_" d="M 45.472 31.062 L 45.117 30.897 L 45.117 32.446 C 41.480 35.228 37.613 36.639 33.622 36.639 C 27.367 36.639 23.068 33.245 22.604 32.856 L 22.587 32.707 L 22.337 32.707 C 22.038 32.707 20.989 33.281 20.398 34.344 C 19.863 35.308 20.492 36.213 20.979 36.635 L 20.971 36.657 C 20.980 36.664 20.990 36.668 20.999 36.675 C 20.981 37.189 20.272 37.887 19.584 38.564 C 18.963 39.175 18.321 39.806 17.960 40.473 C 17.677 40.994 17.620 41.472 17.790 41.894 C 18.061 42.570 18.821 42.820 18.860 42.832 C 24.242 44.372 28.756 45.153 32.278 45.153 C 38.827 45.153 41.008 42.500 42.600 40.563 C 42.854 40.255 43.094 39.962 43.338 39.699 C 44.807 38.107 46.336 37.772 47.359 37.772 C 47.961 37.772 48.349 37.892 48.353 37.893 L 48.583 37.966 L 48.663 37.738 C 50.222 33.324 45.519 31.084 45.472 31.062 Z M 48.265 37.357 C 47.501 37.203 45.122 37.029 42.972 39.359 C 42.722 39.629 42.476 39.929 42.216 40.245 C 41.976 40.536 41.726 40.837 41.456 41.140 C 36.892 42.646 32.397 41.091 32.397 41.091 C 35.571 42.897 39.565 42.100 40.864 41.767 C 39.323 43.281 37.009 44.653 32.278 44.653 C 28.803 44.653 24.335 43.879 19.007 42.354 C 19.001 42.352 18.435 42.162 18.253 41.704 C 18.143 41.428 18.192 41.094 18.399 40.711 C 18.724 40.110 19.339 39.505 19.934 38.921 C 20.627 38.239 21.282 37.588 21.452 36.956 C 22.867 37.734 24.554 37.685 24.554 37.685 C 22.788 37.244 21.896 36.736 21.478 36.428 L 21.472 36.389 L 21.392 36.329 C 21.349 36.296 20.326 35.506 20.835 34.588 C 21.317 33.719 22.107 33.283 22.307 33.216 C 23.269 34.134 27.781 37.139 33.621 37.139 C 37.761 37.139 41.765 35.668 45.520 32.767 L 45.616 32.692 L 45.616 31.704 C 46.613 32.278 49.255 34.146 48.265 37.357 Z " transform="matrix(1.8856489658355713, 0, 0, 1.8856489658355713, -9.15, -1.7)"/>
        </g>
      </g>
    </g>
  </g>
</svg>