<?xml version="1.0" encoding="UTF-8" standalone="no"?>
<svg
   version="1.1"
   width="297.55817"
   height="176.00012"
   viewBox="-1 -1 297.55817 176.00012"
   id="svg185"
   sodipodi:docname="piano.svg"
   xmlns:inkscape="http://www.inkscape.org/namespaces/inkscape"
   xmlns:sodipodi="http://sodipodi.sourceforge.net/DTD/sodipodi-0.dtd"
   xmlns="http://www.w3.org/2000/svg"
   xmlns:svg="http://www.w3.org/2000/svg">
  <defs
     id="defs189" />
  <sodipodi:namedview
     id="namedview187"
     pagecolor="#ffffff"
     bordercolor="#000000"
     borderopacity="0.25"
     inkscape:showpageshadow="2"
     inkscape:pageopacity="0.0"
     inkscape:pagecheckerboard="0"
     inkscape:deskcolor="#d1d1d1" />
  <!-- Exported by Scratch - http://scratch.mit.edu/ -->
  <path
     id="ID0.9018703494220972"
     fill="#653614"
     stroke="#010101"
     stroke-width="0.5"
     d="M -1,105.29816" />
  <path
     id="ID0.20333377132192254"
     fill="#653614"
     stroke="#010101"
     stroke-width="0.5"
     d="M 269.5,113.29816" />
  <path
     id="ID0.17055229283869267"
     fill="#653614"
     d="M 8.8,94.298163" />
  <g
     id="ID0.39796314761042595"
     transform="matrix(0.77378094,0,0,0.77378094,-29.9,-52.301837)">
    <path
       id="ID0.24559980118647218"
       fill="#653614"
       stroke="#010101"
       d="M 83.8,89.8 391,98.5 V 276 L 83.8,263 V 89.8" />
    <path
       id="ID0.7567501273006201"
       fill="#653614"
       stroke="#010101"
       d="M 112.4,66.8 80.3,79.9 391,88 421.4,75.7 112.4,66.8" />
    <path
       id="ID0.31316186441108584"
       fill="#653614"
       stroke="#010101"
       d="M 421.4,85 391,98.5 V 88 L 421.4,75.7 V 85" />
    <path
       id="ID0.2996890274807811"
       fill="#653614"
       stroke="#010101"
       d="M 77.9,217.8 H 58.6 v -25.1 h 18.1 l 1.2,25.1" />
    <path
       id="ID0.045056203845888376"
       fill="#653614"
       stroke="#010101"
       d="m 352.1,205.2 h 18.2 v 22.6 h -18.2 z" />
    <path
       id="ID0.46900033624842763"
       fill="#653614"
       stroke="#010101"
       d="m 352.1,278.5 v 12.8 l 18.2,1.9 v -13.1 l -18.2,-1.6" />
    <path
       id="ID0.07098396448418498"
       fill="#653614"
       stroke="#010101"
       d="m 370.3,280.1 20.9,-17.7 -16.4,-0.9 -22.7,17 18.2,1.6" />
    <path
       id="ID0.7630109400488436"
       fill="#653614"
       stroke="#010101"
       d="m 370.3,293.2 22,-16.6 -1.1,-14.2 -20.9,17.7 v 13.1" />
    <path
       id="ID0.918982457369566"
       fill="#653614"
       stroke="#010101"
       d="m 368.4,227.9 -0.6,48.4 -7.8,-0.1 -2.9,-48.3 h 11.3" />
    <path
       id="ID0.2943453914485872"
       fill="#653614"
       stroke="#010101"
       d="m 58.6,266.9 h 17 v 13.2 l -17,-0.3 v -12.9" />
    <path
       id="ID0.40090712532401085"
       fill="#653614"
       stroke="#010101"
       d="m 58.6,266.9 24.7,-17.8 h 19.4 l -27.1,17.8 h -17" />
    <path
       id="ID0.7157609509304166"
       fill="#653614"
       stroke="#010101"
       d="M 65.2,263.1 H 75.6 V 217.8 H 63.2 l 2,45.3" />
    <path
       id="ID0.5842729681171477"
       fill="#653614"
       stroke="#010101"
       d="m 75.6,280.1 27.1,-19 v -12 l -27.1,17.8 v 13.2" />
    <path
       id="ID0.6402663891203701"
       fill="#653614"
       stroke="#010101"
       d="m 77.8,216.4 274.3,9.5 V 212 l -275,-9.7 0.7,14.1" />
    <path
       id="ID0.8810831452719867"
       fill="#653614"
       stroke="#010101"
       d="m 77.1,202.3 -0.4,-9.6 22.5,-15.5 0.4,11 -22.5,14.1" />
    <path
       id="ID0.7411722778342664"
       fill="#653614"
       stroke="#010101"
       d="m 89.1,89.2 v 88 l -7.3,-0.4 1.5,-87.6 h 5.8" />
    <path
       id="ID0.8971734633669257"
       fill="#653614"
       stroke="#010101"
       d="m 391,188.6 0.2,-90.4 h -6.7 v 90 l 6.5,0.4" />
    <path
       id="ID0.40815907903015614"
       fill="#653614"
       stroke="#010101"
       d="m 81.8,176.8 17.4,0.4 -22.5,15.5 H 58.6 l 23.2,-15.9" />
    <path
       id="ID0.11669638939201832"
       fill="#653614"
       stroke="#010101"
       d="m 77.1,202.3 275,9.7 v -4.8 l -268.8,-8.7 -6.2,3.8" />
    <path
       id="ID0.8388672973960638"
       fill="#ffffff"
       stroke="#010101"
       d="m 93.5,188 -9.7,7.5 -0.5,3 268.8,8.7 v -2 L 364.4,195.9 93.5,188" />
    <g
       id="ID0.27846914948895574"
       transform="translate(57,66)">
      <path
         id="ID0.0028967373073101044"
         fill="#010101"
         d="m 364.4,195.9 -6.3,5.2 -1.1,-0.1 -1.9,-0.3 6.2,-4.9 3.1,0.1"
         transform="translate(-57,-66)" />
      <g
         id="ID0.6020338893868029">
        <g
           id="ID0.6149324565194547">
          <path
             id="ID0.05569248739629984"
             fill="#010101"
             d="m 125.1,189 -5.8,4.6 -1.1,-0.2 -1.8,-0.2 5.6,-4.3 3.1,0.1"
             transform="translate(-57,-66)" />
          <path
             id="ID0.04531349753960967"
             fill="#010101"
             d="m 115,196.2 -0.2,3.6 h -0.4 l 0.2,-3.6 8.8,-7.3 h 0.4 l -8.8,7.3"
             transform="translate(-57,-66)" />
        </g>
        <g
           id="ID0.8509628805331886">
          <path
             id="ID0.2106060259975493"
             fill="#010101"
             d="m 130.7,189.1 -5.7,4.6 -1.2,-0.2 -1.8,-0.2 5.6,-4.3 3.1,0.1"
             transform="translate(-57,-66)" />
          <path
             id="ID0.1646832493133843"
             fill="#010101"
             d="m 120.6,196.3 -0.2,3.6 H 120 l 0.2,-3.7 8.8,-7.2 h 0.4 l -8.8,7.3"
             transform="translate(-57,-66)" />
        </g>
        <g
           id="ID0.7421482065692544">
          <path
             id="ID0.910424089524895"
             fill="#010101"
             d="m 136.1,189.1 -5.7,4.6 -1.1,-0.1 -1.9,-0.3 5.6,-4.3 3.1,0.1"
             transform="translate(-57,-66)" />
          <path
             id="ID0.9965165909379721"
             fill="#010101"
             d="m 126,196.3 -0.2,3.6 h -0.4 l 0.2,-3.6 8.8,-7.2 h 0.4 l -8.8,7.2"
             transform="translate(-57,-66)" />
        </g>
      </g>
      <g
         id="ID0.8461869028396904">
        <g
           id="ID0.31245004292577505">
          <g
             id="ID0.4372937558218837">
            <path
               id="ID0.48171380488201976"
               fill="#010101"
               d="m 109.1,188.5 -5.7,4.6 -1.1,-0.2 -1.9,-0.2 5.7,-4.3 3,0.1"
               transform="translate(-57,-66)" />
            <path
               id="ID0.6444358085282147"
               fill="#010101"
               d="m 99.1,195.6 -0.2,3.6 h -0.4 l 0.2,-3.6 8.8,-7.2 h 0.4 l -8.8,7.2"
               transform="translate(-57,-66)" />
          </g>
          <g
             id="ID0.9639371102675796">
            <path
               id="ID0.6452005682513118"
               fill="#010101"
               d="m 114.4,188.4 -6.3,5.2 -1.1,-0.2 -1.9,-0.2 6.2,-4.9 3.1,0.1"
               transform="translate(-57,-66)" />
            <path
               id="ID0.2775643072091043"
               fill="#010101"
               d="m 103.7,196.1 -0.1,3.1 h -0.4 l 0.2,-3.1 8.8,-7.2 h 0.4 l -8.9,7.2"
               transform="translate(-57,-66)" />
          </g>
        </g>
        <path
           id="ID0.6546635702252388"
           fill="#010101"
           d="m 109.7,196.1 -0.2,3.1 h -0.4 l 0.2,-3.1 8.8,-7.2 h 0.4 l -8.8,7.2"
           transform="translate(-57,-66)" />
        <path
           id="ID0.6873722793534398"
           fill="#010101"
           d="m 94.1,195.4 -0.2,3.7 h -0.4 l 0.2,-3.7 8.8,-7.2 h 0.4 l -8.8,7.2"
           transform="translate(-57,-66)" />
      </g>
      <g
         id="ID0.5353171383030713">
        <path
           id="ID0.33504540007561445"
           fill="#010101"
           d="m 99.2,188 -5.7,4.6 -1.1,-0.1 -1.9,-0.3 5.6,-4.3 3.1,0.1"
           transform="translate(-57,-66)" />
        <path
           id="ID0.7970625082962215"
           fill="#010101"
           d="m 89.1,195.2 -0.2,3.6 h -0.3 l 0.1,-3.6 8.8,-7.2 h 0.4 l -8.8,7.2"
           transform="translate(-57,-66)" />
      </g>
      <g
         id="ID0.3588647567667067">
        <g
           id="ID0.9576510586775839">
          <g
             id="ID0.5002353303134441">
            <path
               id="ID0.21939515927806497"
               fill="#010101"
               d="m 146.2,189.3 -5.7,4.6 -1.1,-0.1 -1.9,-0.3 5.6,-4.3 3.1,0.1"
               transform="translate(-57,-66)" />
            <path
               id="ID0.9377802242524922"
               fill="#010101"
               d="m 136.1,196.5 -0.2,3.6 h -0.4 l 0.2,-3.6 8.8,-7.2 h 0.4 l -8.8,7.2"
               transform="translate(-57,-66)" />
          </g>
          <g
             id="ID0.845962350256741">
            <path
               id="ID0.5181161314249039"
               fill="#010101"
               d="m 150.9,189.8 -5.7,4.6 -1.1,-0.1 -1.9,-0.3 5.6,-4.3 3.1,0.1"
               transform="translate(-57,-66)" />
            <path
               id="ID0.5040079629980028"
               fill="#010101"
               d="m 140.8,197 -0.2,3.6 h -0.4 l 0.2,-3.6 8.8,-7.2 h 0.4 l -8.8,7.2"
               transform="translate(-57,-66)" />
          </g>
        </g>
        <path
           id="ID0.903286068700254"
           fill="#010101"
           d="m 146.7,197 -0.2,3.6 h -0.3 l 0.1,-3.6 8.8,-7.2 h 0.4 l -8.8,7.2"
           transform="translate(-57,-66)" />
        <path
           id="ID0.3428169242106378"
           fill="#010101"
           d="m 131.1,196.3 -0.2,3.6 h -0.3 l 0.1,-3.6 8.8,-7.2 h 0.5 l -8.9,7.2"
           transform="translate(-57,-66)" />
      </g>
      <g
         id="ID0.7824945580214262">
        <g
           id="ID0.7048882320523262">
          <path
             id="ID0.8590545319020748"
             fill="#010101"
             d="m 161.3,190.2 -5.7,4.6 -1.1,-0.2 -1.9,-0.2 5.6,-4.3 3.1,0.1"
             transform="translate(-57,-66)" />
          <path
             id="ID0.6323136640712619"
             fill="#010101"
             d="m 151.2,197.4 -0.1,3.6 h -0.4 l 0.1,-3.7 8.8,-7.2 h 0.5 l -8.9,7.3"
             transform="translate(-57,-66)" />
        </g>
        <g
           id="ID0.6792240007780492">
          <path
             id="ID0.9690444748848677"
             fill="#010101"
             d="m 166.9,190.3 -5.7,4.6 -1.1,-0.2 -1.9,-0.2 5.6,-4.3 3.1,0.1"
             transform="translate(-57,-66)" />
          <path
             id="ID0.758364933077246"
             fill="#010101"
             d="m 156.8,197.5 -0.1,3.6 h -0.4 l 0.1,-3.7 8.8,-7.2 h 0.5 l -8.9,7.3"
             transform="translate(-57,-66)" />
        </g>
        <g
           id="ID0.3744732914492488">
          <path
             id="ID0.06686371937394142"
             fill="#010101"
             d="m 172.3,190.3 -5.7,4.6 -1.1,-0.1 -1.9,-0.3 5.6,-4.3 3.1,0.1"
             transform="translate(-57,-66)" />
          <path
             id="ID0.7527062534354627"
             fill="#010101"
             d="m 162.2,197.5 -0.1,3.6 h -0.4 l 0.2,-3.6 8.8,-7.2 h 0.4 l -8.9,7.2"
             transform="translate(-57,-66)" />
        </g>
      </g>
      <g
         id="ID0.9649927709251642">
        <g
           id="ID0.82623609341681">
          <g
             id="ID0.9426002246327698">
            <path
               id="ID0.9657575218006968"
               fill="#010101"
               d="m 182.4,190.4 -5.7,4.6 -1.1,-0.2 -1.9,-0.2 5.6,-4.3 3.1,0.1"
               transform="translate(-57,-66)" />
            <path
               id="ID0.9139557592570782"
               fill="#010101"
               d="m 172.3,197.6 -0.1,3.6 h -0.4 l 0.1,-3.7 8.8,-7.2 h 0.5 l -8.9,7.3"
               transform="translate(-57,-66)" />
          </g>
          <g
             id="ID0.6709551969543099">
            <path
               id="ID0.49488796573132277"
               fill="#010101"
               d="m 187.1,190.9 -5.7,4.6 -1.1,-0.2 -1.9,-0.2 5.6,-4.3 3.1,0.1"
               transform="translate(-57,-66)" />
            <path
               id="ID0.045076449401676655"
               fill="#010101"
               d="m 177,198.1 -0.1,3.6 h -0.4 l 0.1,-3.7 8.8,-7.2 h 0.5 l -8.9,7.3"
               transform="translate(-57,-66)" />
          </g>
        </g>
        <path
           id="ID0.566569734364748"
           fill="#010101"
           d="m 182.9,198.1 -0.1,3.6 h -0.4 l 0.2,-3.7 8.7,-7.2 h 0.5 l -8.9,7.3"
           transform="translate(-57,-66)" />
        <path
           id="ID0.9686140199191868"
           fill="#010101"
           d="m 167.3,197.4 -0.1,3.6 h -0.4 l 0.2,-3.6 8.8,-7.3 h 0.4 l -8.9,7.3"
           transform="translate(-57,-66)" />
      </g>
      <g
         id="ID0.7633622516877949">
        <g
           id="ID0.42501507978886366">
          <path
             id="ID0.04638845240697265"
             fill="#010101"
             d="m 197.3,191.2 -5.7,4.6 -1.1,-0.2 -1.9,-0.2 5.6,-4.3 3.1,0.1"
             transform="translate(-57,-66)" />
          <path
             id="ID0.3925710660405457"
             fill="#010101"
             d="m 187.2,198.3 -0.2,3.6 h -0.4 l 0.2,-3.6 8.8,-7.2 h 0.4 l -8.8,7.2"
             transform="translate(-57,-66)" />
        </g>
        <g
           id="ID0.2913860883563757">
          <path
             id="ID0.13780470052734017"
             fill="#010101"
             d="m 202.9,191.3 -5.7,4.6 -1.1,-0.2 -1.9,-0.2 5.6,-4.3 3.1,0.1"
             transform="translate(-57,-66)" />
          <path
             id="ID0.15666300896555185"
             fill="#010101"
             d="m 192.8,198.4 -0.2,3.6 h -0.3 l 0.1,-3.6 8.8,-7.2 h 0.4 l -8.8,7.2"
             transform="translate(-57,-66)" />
        </g>
        <g
           id="ID0.441098069306463">
          <path
             id="ID0.714820871129632"
             fill="#010101"
             d="m 208.3,191.3 -5.7,4.6 -1.1,-0.2 -1.9,-0.2 5.6,-4.3 3.1,0.1"
             transform="translate(-57,-66)" />
          <path
             id="ID0.0688434592448175"
             fill="#010101"
             d="m 198.2,198.5 -0.2,3.6 h -0.3 l 0.1,-3.7 8.8,-7.2 h 0.4 l -8.8,7.3"
             transform="translate(-57,-66)" />
        </g>
      </g>
      <g
         id="ID0.2153304610401392">
        <g
           id="ID0.35889078537002206">
          <g
             id="ID0.47834252612665296">
            <path
               id="ID0.847481562756002"
               fill="#010101"
               d="m 218.5,191.5 -5.7,4.6 -1.1,-0.2 -1.9,-0.2 5.6,-4.3 3.1,0.1"
               transform="translate(-57,-66)" />
            <path
               id="ID0.19335697125643492"
               fill="#010101"
               d="m 208.4,198.7 -0.2,3.6 h -0.3 l 0.1,-3.7 8.8,-7.2 h 0.4 l -8.8,7.3"
               transform="translate(-57,-66)" />
          </g>
          <g
             id="ID0.14385672891512513">
            <path
               id="ID0.9752044840715826"
               fill="#010101"
               d="m 223.2,192 -5.7,4.6 -1.1,-0.2 -1.9,-0.2 5.6,-4.3 3.1,0.1"
               transform="translate(-57,-66)" />
            <path
               id="ID0.7869619964621961"
               fill="#010101"
               d="m 213.1,199.2 -0.2,3.6 h -0.3 l 0.1,-3.7 8.8,-7.2 h 0.4 l -8.8,7.3"
               transform="translate(-57,-66)" />
          </g>
        </g>
        <path
           id="ID0.22956209257245064"
           fill="#010101"
           d="m 219,199.2 -0.1,3.6 h -0.4 l 0.1,-3.7 8.8,-7.2 h 0.5 l -8.9,7.3"
           transform="translate(-57,-66)" />
        <path
           id="ID0.3631910579279065"
           fill="#010101"
           d="m 203.4,198.5 -0.1,3.6 h -0.4 l 0.1,-3.6 8.8,-7.3 h 0.5 l -8.9,7.3"
           transform="translate(-57,-66)" />
      </g>
      <g
         id="ID0.2765174596570432">
        <g
           id="ID0.6300803078338504">
          <path
             id="ID0.920213452540338"
             fill="#010101"
             d="m 233.6,192.5 -5.7,4.6 -1.1,-0.2 -1.9,-0.2 5.6,-4.3 3.1,0.1"
             transform="translate(-57,-66)" />
          <path
             id="ID0.9844606732949615"
             fill="#010101"
             d="m 223.5,199.6 -0.2,3.7 h -0.4 l 0.2,-3.7 8.8,-7.2 h 0.4 l -8.8,7.2"
             transform="translate(-57,-66)" />
        </g>
        <g
           id="ID0.6032179389148951">
          <path
             id="ID0.6214253595098853"
             fill="#010101"
             d="m 239.2,192.6 -5.7,4.6 -1.1,-0.2 -1.9,-0.2 5.6,-4.3 3.1,0.1"
             transform="translate(-57,-66)" />
          <path
             id="ID0.2499992586672306"
             fill="#010101"
             d="m 229.1,199.7 -0.2,3.7 h -0.3 l 0.1,-3.7 8.8,-7.2 h 0.4 l -8.8,7.2"
             transform="translate(-57,-66)" />
        </g>
        <g
           id="ID0.979905710555613">
          <path
             id="ID0.9992955317720771"
             fill="#010101"
             d="m 244.6,192.6 -5.7,4.6 -1.1,-0.1 -1.9,-0.3 5.6,-4.3 3.1,0.1"
             transform="translate(-57,-66)" />
          <path
             id="ID0.02911887550726533"
             fill="#010101"
             d="m 234.5,199.8 -0.2,3.6 H 234 l 0.1,-3.6 8.8,-7.2 h 0.4 l -8.8,7.2"
             transform="translate(-57,-66)" />
        </g>
      </g>
      <g
         id="ID0.010363378096371889">
        <g
           id="ID0.8747963118366897">
          <g
             id="ID0.41189994663000107">
            <path
               id="ID0.12796298833563924"
               fill="#010101"
               d="m 255.2,192.5 -5.7,4.6 -1.1,-0.1 -1.9,-0.3 5.6,-4.3 3.1,0.1"
               transform="translate(-57,-66)" />
            <path
               id="ID0.1648713517934084"
               fill="#010101"
               d="m 245.1,199.7 -0.1,4.2 h -0.4 l 0.1,-4.2 8.8,-7.2 h 0.5 l -8.9,7.2"
               transform="translate(-57,-66)" />
          </g>
          <g
             id="ID0.6643101270310581">
            <path
               id="ID0.007184034213423729"
               fill="#010101"
               d="m 259.9,193 -5.7,4.6 -1.1,-0.1 -1.9,-0.3 5.6,-4.3 3.1,0.1"
               transform="translate(-57,-66)" />
            <path
               id="ID0.8279236410744488"
               fill="#010101"
               d="m 249.8,200.2 -0.2,3.6 h -0.3 l 0.1,-3.6 8.8,-7.2 h 0.5 l -8.9,7.2"
               transform="translate(-57,-66)" />
          </g>
        </g>
        <path
           id="ID0.18114699563011527"
           fill="#010101"
           d="m 255.7,200.2 -0.1,4.2 h -0.4 l 0.1,-4.2 8.8,-7.2 h 0.5 l -8.9,7.2"
           transform="translate(-57,-66)" />
        <path
           id="ID0.029794640373438597"
           fill="#010101"
           d="m 240.1,199.5 -0.1,3.6 h -0.4 l 0.2,-3.6 8.8,-7.2 h 0.4 l -8.9,7.2"
           transform="translate(-57,-66)" />
      </g>
      <g
         id="ID0.7463410058990121">
        <g
           id="ID0.4079849887639284">
          <path
             id="ID0.5488035809248686"
             fill="#010101"
             d="m 270.8,193.4 -5.7,4.6 -1.1,-0.2 -1.9,-0.2 5.6,-4.3 3.1,0.1"
             transform="translate(-57,-66)" />
          <path
             id="ID0.278435624204576"
             fill="#010101"
             d="m 260.7,200.5 -0.2,3.6 h -0.3 l 0.1,-3.6 8.8,-7.2 h 0.4 l -8.8,7.2"
             transform="translate(-57,-66)" />
        </g>
        <g
           id="ID0.3247892688959837">
          <path
             id="ID0.4040160244330764"
             fill="#010101"
             d="m 276.4,193.4 -5.7,4.7 -1.1,-0.2 -1.9,-0.2 5.6,-4.3 h 3.1"
             transform="translate(-57,-66)" />
          <path
             id="ID0.032053894829005"
             fill="#010101"
             d="m 266.3,200.6 -0.1,3.6 h -0.4 l 0.1,-3.6 8.8,-7.2 h 0.5 l -8.9,7.2"
             transform="translate(-57,-66)" />
        </g>
        <g
           id="ID0.8055254854261875">
          <path
             id="ID0.39091239171102643"
             fill="#010101"
             d="m 281.8,193.5 -5.7,4.6 -1.1,-0.2 -1.9,-0.2 5.6,-4.3 3.1,0.1"
             transform="translate(-57,-66)" />
          <path
             id="ID0.03683853521943092"
             fill="#010101"
             d="m 271.7,200.7 -0.1,3.6 h -0.4 l 0.2,-3.7 8.7,-7.2 h 0.5 l -8.9,7.3"
             transform="translate(-57,-66)" />
        </g>
      </g>
      <g
         id="ID0.4470215141773224">
        <g
           id="ID0.582835981156677">
          <g
             id="ID0.8569614328444004">
            <path
               id="ID0.46947140898555517"
               fill="#010101"
               d="m 291.8,193.9 -5.7,4.6 -1.1,-0.1 -1.9,-0.3 5.6,-4.3 3.1,0.1"
               transform="translate(-57,-66)" />
            <path
               id="ID0.6911392039619386"
               fill="#010101"
               d="m 281.7,201.1 -0.2,3.6 h -0.3 l 0.1,-3.6 8.8,-7.2 h 0.4 l -8.8,7.2"
               transform="translate(-57,-66)" />
          </g>
          <g
             id="ID0.1627408997155726">
            <path
               id="ID0.5659334203228354"
               fill="#010101"
               d="m 297.1,193.8 -6.3,5.2 -1.1,-0.1 -1.9,-0.3 6.2,-4.9 3.1,0.1"
               transform="translate(-57,-66)" />
            <path
               id="ID0.8470185892656446"
               fill="#010101"
               d="m 286.4,201.6 -0.2,3.6 h -0.4 l 0.2,-3.6 8.8,-7.2 h 0.4 l -8.8,7.2"
               transform="translate(-57,-66)" />
          </g>
        </g>
        <path
           id="ID0.5791576220653951"
           fill="#010101"
           d="m 292.3,201.6 -0.2,3.6 h -0.3 l 0.1,-3.6 8.8,-7.2 h 0.4 l -8.8,7.2"
           transform="translate(-57,-66)" />
        <path
           id="ID0.9067206815816462"
           fill="#010101"
           d="m 276.7,200.9 -0.1,3.6 h -0.4 l 0.1,-3.6 8.8,-7.2 h 0.5 l -8.9,7.2"
           transform="translate(-57,-66)" />
      </g>
      <g
         id="ID0.35553160961717367">
        <g
           id="ID0.06275487458333373">
          <path
             id="ID0.7617951552383602"
             fill="#010101"
             d="m 307.1,194.4 -5.7,4.6 -1.1,-0.2 -1.9,-0.2 5.6,-4.3 3.1,0.1"
             transform="translate(-57,-66)" />
          <path
             id="ID0.5518058147281408"
             fill="#010101"
             d="m 297,201.6 -0.2,3.6 h -0.4 l 0.2,-3.6 8.8,-7.3 h 0.4 l -8.8,7.3"
             transform="translate(-57,-66)" />
        </g>
        <g
           id="ID0.4146307623013854">
          <path
             id="ID0.9478620626032352"
             fill="#010101"
             d="m 312.7,194.5 -5.7,4.6 -1.1,-0.2 -1.9,-0.2 5.6,-4.3 3.1,0.1"
             transform="translate(-57,-66)" />
          <path
             id="ID0.9797355886548758"
             fill="#010101"
             d="m 302.6,201.7 -0.2,3.6 H 302 l 0.2,-3.6 8.8,-7.3 h 0.4 l -8.8,7.3"
             transform="translate(-57,-66)" />
        </g>
        <g
           id="ID0.5502126859501004">
          <path
             id="ID0.06591497967019677"
             fill="#010101"
             d="m 318.1,194.5 -5.7,4.6 -1.1,-0.1 -1.9,-0.3 5.6,-4.3 3.1,0.1"
             transform="translate(-57,-66)" />
          <path
             id="ID0.40066339215263724"
             fill="#010101"
             d="m 308,201.7 -0.2,3.6 h -0.3 l 0.1,-3.6 8.8,-7.2 h 0.4 l -8.8,7.2"
             transform="translate(-57,-66)" />
        </g>
      </g>
      <g
         id="ID0.6127760615199804">
        <g
           id="ID0.23255063593387604">
          <g
             id="ID0.6457197605632246">
            <path
               id="ID0.49826717423275113"
               fill="#010101"
               d="m 328.2,195 -5.7,4.7 -1.1,-0.2 -1.9,-0.2 5.7,-4.3 h 3"
               transform="translate(-57,-66)" />
            <path
               id="ID0.7202667626552284"
               fill="#010101"
               d="m 318.2,202.2 -0.2,3.6 h -0.4 l 0.2,-3.6 8.8,-7.2 h 0.4 l -8.8,7.2"
               transform="translate(-57,-66)" />
          </g>
          <g
             id="ID0.7361480947583914">
            <path
               id="ID0.9817520040087402"
               fill="#010101"
               d="m 333.5,195 -6.3,5.2 -1.1,-0.2 -1.9,-0.2 6.2,-4.9 3.1,0.1"
               transform="translate(-57,-66)" />
            <path
               id="ID0.9951007757335901"
               fill="#010101"
               d="m 322.8,202.7 -0.1,3.6 h -0.4 l 0.2,-3.6 8.8,-7.2 h 0.4 l -8.9,7.2"
               transform="translate(-57,-66)" />
          </g>
        </g>
        <path
           id="ID0.0756415082141757"
           fill="#010101"
           d="m 328.8,202.7 -0.2,3.6 h -0.4 l 0.2,-3.6 8.8,-7.2 h 0.4 l -8.8,7.2"
           transform="translate(-57,-66)" />
        <path
           id="ID0.7261860272847116"
           fill="#010101"
           d="m 313.2,202 -0.2,3.6 h -0.4 l 0.2,-3.6 8.8,-7.2 h 0.4 l -8.8,7.2"
           transform="translate(-57,-66)" />
      </g>
      <g
         id="ID0.2783802803605795">
        <g
           id="ID0.33441187674179673">
          <path
             id="ID0.27372729359194636"
             fill="#010101"
             d="m 343.8,195.5 -5.7,4.6 -1.1,-0.1 -1.9,-0.3 5.6,-4.3 3.1,0.1"
             transform="translate(-57,-66)" />
          <path
             id="ID0.5839720093645155"
             fill="#010101"
             d="m 333.7,202.7 -0.1,3.6 h -0.4 l 0.2,-3.6 8.8,-7.2 h 0.4 l -8.9,7.2"
             transform="translate(-57,-66)" />
        </g>
        <g
           id="ID0.9474432794377208">
          <path
             id="ID0.29591756127774715"
             fill="#010101"
             d="m 349.4,195.6 -5.7,4.6 -1.1,-0.1 -1.9,-0.3 5.6,-4.3 3.1,0.1"
             transform="translate(-57,-66)" />
          <path
             id="ID0.25531289260834455"
             fill="#010101"
             d="m 339.4,202.8 -0.2,3.6 h -0.4 l 0.2,-3.6 8.8,-7.2 h 0.4 l -8.8,7.2"
             transform="translate(-57,-66)" />
        </g>
        <g
           id="ID0.16486621042713523">
          <path
             id="ID0.08157985657453537"
             fill="#010101"
             d="m 355.4,195.1 -6.2,5.1 -1.2,-0.1 -1.8,-0.2 6.1,-4.9 3.1,0.1"
             transform="translate(-57,-66)" />
          <path
             id="ID0.46460446482524276"
             fill="#010101"
             d="m 344.8,202.8 -0.2,3.6 h -0.4 l 0.2,-3.6 8.8,-7.2 h 0.4 l -8.8,7.2"
             transform="translate(-57,-66)" />
        </g>
      </g>
      <path
         id="ID0.3297708057798445"
         fill="#010101"
         d="m 350.4,203.4 -0.2,3.6 h -0.4 l 0.2,-3.6 9.4,-7.8 h 0.4 l -9.4,7.8"
         transform="translate(-57,-66)" />
    </g>
    <path
       id="ID0.7170490431599319"
       fill="#653614"
       stroke="#010101"
       d="m 94.9,183.8 277.8,6.4 -5.5,6 L 94.9,188 v -4.2" />
    <g
       id="ID0.685191837605089"
       transform="translate(57,66)">
      <path
         id="ID0.8515744232572615"
         fill="#e5e5e5"
         stroke="#010101"
         d="m 214.6,276.6 v 0 c -1.6,0 -3,-1.3 -3,-3 l 6.4,-7.7 c 0,-1.6 1.3,-3 3,-3 v 0 c 1.6,0 3,1.3 3,3 l -6.4,7.7 c 0,1.7 -1.3,3 -3,3 z"
         transform="translate(-57,-66)" />
      <path
         id="ID0.7391436570324004"
         fill="#e5e5e5"
         stroke="#010101"
         d="m 222.5,276.6 v 0 c -1.6,0 -3,-1.3 -3,-3 l 6.4,-7.7 c 0,-1.6 1.3,-3 3,-3 v 0 c 1.6,0 3,1.3 3,3 l -6.4,7.7 c 0,1.7 -1.4,3 -3,3 z"
         transform="translate(-57,-66)" />
      <path
         id="ID0.08578196866437793"
         fill="#e5e5e5"
         stroke="#010101"
         d="m 230.4,276.6 v 0 c -1.6,0 -3,-1.3 -3,-3 l 6.4,-7.7 c 0,-1.6 1.3,-3 3,-3 v 0 c 1.6,0 3,1.3 3,3 l -6.4,7.7 c -0.1,1.7 -1.4,3 -3,3 z"
         transform="translate(-57,-66)" />
    </g>
    <path
       id="ID0.09200343862175941"
       fill="#653614"
       stroke="#010101"
       d="m 370.3,227.9 v -22.7 l 20.7,-16.6 -0.6,28 -20.1,11.3" />
    <path
       id="ID0.10539988009259105"
       fill="#653614"
       stroke="#010101"
       d="M 80.3,79.9 391,88 V 98.5 L 80.3,89.2 v -9.3" />
    <path
       id="ID0.8770759645849466"
       fill="#653614"
       stroke="#010101"
       d="m 377.7,185.7 -5,4.5 -277.8,-6.4 4.3,-4.6 278.5,6.5" />
    <path
       id="ID0.01847740449011326"
       fill="#653614"
       stroke="#010101"
       d="m 376.3,187.3 14.7,1.3 -20.7,16.6 h -18.2 l 24.2,-17.9" />
    <path
       id="ID0.47149527026340365"
       fill="#653614"
       stroke="#010101"
       d="m 416.4,259.9 1.7,-173.7 -27.7,12.4 v 179.3 l 26,-18" />
    <path
       id="ID0.7990236985497177"
       fill="#653614"
       stroke="#010101"
       d="m 99.2,168.7 v 10.5 l 278.5,6.5 v -8.9 L 99.2,168.7" />
    <path
       id="ID0.36175320763140917"
       fill="#653614"
       stroke="#010101"
       d="m 377.7,171.4 -6.2,5.3 2.1,0.1 2.3,11.2 2.1,-0.7 -0.3,-15.9" />
    <path
       id="ID0.1842570244334638"
       fill="#653614"
       stroke="#010101"
       d="m 99.2,163.9 -4.3,2.9 4.3,1.9 272.3,8 6.2,-5.3 -278.5,-7.5" />
  </g>
</svg>
