<?xml version="1.0" encoding="UTF-8" standalone="no"?>
<svg
   version="1.1"
   id="Layer_1"
   x="0px"
   y="0px"
   width="90.7118"
   height="136.49518"
   viewBox="0 0 90.7118 136.49518"
   enable-background="new 0 0 150 150"
   xml:space="preserve"
   sodipodi:docname="princess.svg"
   xmlns:inkscape="http://www.inkscape.org/namespaces/inkscape"
   xmlns:sodipodi="http://sodipodi.sourceforge.net/DTD/sodipodi-0.dtd"
   xmlns="http://www.w3.org/2000/svg"
   xmlns:svg="http://www.w3.org/2000/svg"><defs
   id="defs95" /><sodipodi:namedview
   id="namedview93"
   pagecolor="#ffffff"
   bordercolor="#000000"
   borderopacity="0.25"
   inkscape:showpageshadow="2"
   inkscape:pageopacity="0.0"
   inkscape:pagecheckerboard="0"
   inkscape:deskcolor="#d1d1d1" />
  <g
   id="g90"
   transform="translate(-30.997201,-4.9995825)">
    <path
   fill="#f9c4f7"
   d="m 45.638,120.479 c -1.728,-1.168 -2.271,-2.513 -4.249,-3.271 -1.917,-0.72 -3.499,-0.371 -5.25,0.621 -3.729,2.144 -5.582,6.556 -3.917,10.353 0.792,1.826 1.021,1.596 2.583,2.879 2.333,1.926 4.291,2.918 7.417,2.801 3.104,-0.115 5.145,-2.274 8.081,-3.271 4.354,-1.495 6.875,-1.42 11.25,-0.153 1.979,0.563 9.103,3.562 11.665,2.565 4.457,-1.729 7.707,-4.261 12.415,-2.956 4.791,1.344 6.749,4.064 11.666,4.438 3.956,0.293 6.331,-0.545 9.914,-2.104 1.938,-0.837 2.541,-2.044 3.333,-3.891 0.771,-1.812 1,-2.395 1,-4.357 0,-3.576 -2.084,-7.604 -5.915,-7.312 -2.812,0.216 -4.438,0.254 -7.166,1.013 -1.563,0.424 -48.14,1.555 -52.827,2.645 z"
   id="path2" />
    <path
   fill="#ffff6e"
   d="m 61.885,42.195 c -2.042,-0.778 -3.416,0.836 -5.333,1.945 -2,1.167 -4.52,0.292 -5.749,-1.556 -1.187,-1.791 -1.625,-3.735 -3.833,-4.046 -2.416,-0.351 -3.145,2.217 -5.498,2.878 -0.312,-2.101 0.062,-3.561 1,-5.447 0.709,-1.44 1.146,-1.751 2.5,-2.724 3,-2.179 5.228,-2.645 8.998,-3.346 3.979,-0.739 5.985,-3.153 7.152,-6.713 0.729,-2.217 0.451,-4.2 1.347,-6.36 1.27,-3.072 1.041,-5.407 3.583,-7.781 2.25,-2.1 4.5,-1.906 7.582,-2.568 5.479,-1.166 12.206,0.934 12.706,6.459 2.688,-0.175 5.479,0.993 6.582,3.268 1.334,2.743 -0.375,5.195 -1.874,8.016 -1.541,-0.856 -1.375,-2.277 -2.084,-3.813 -0.729,-1.595 -1.771,-2.198 -3.082,-3.424 -1.167,-1.089 -1.688,-2.121 -3.249,-2.645 -1.604,-0.526 -3.021,0.777 -3.667,2.255 -1.146,2.607 -1.208,4.28 -1.416,7.082 -0.312,4.28 -1.041,6.945 -4.083,10.271 -0.729,0.798 -1.062,1.654 -2.167,1.712 -1.229,0.058 -1.916,-0.974 -3.083,-0.623 -2.082,0.642 -2.082,2.84 -2.082,4.902 -1.667,0.121 -3.417,0.917 -4.25,2.258 z"
   id="path4" />
    <path
   fill="#f9c4f7"
   d="m 70.884,48.108 c -0.292,3.658 -2.25,5.369 -3.833,8.716 -3.749,7.899 -11.456,14.434 -20.163,11.206 -1.958,-0.427 -3.875,-0.817 -4.333,-2.646 -0.251,-0.934 1.333,-1.012 2.165,-1.557 1.834,-1.244 2.75,-2.1 4.334,-3.579 2.583,-2.413 3.916,-3.968 6.5,-6.381 3.248,-3.035 3.873,-6.03 7.831,-8.248 2.666,-1.475 7.707,-0.389 7.499,2.489 z"
   id="path6" />
    <path
   fill="#f9c4f7"
   d="m 72.549,59.003 h 19.747 v 4.786 H 72.549 c 0.668,-1.748 0.459,-2.997 0,-4.786 z"
   id="path8" />
    <path
   fill="#ff00ff"
   d="m 91.297,82.501 c -0.521,2.996 0.521,4.67 0.999,7.628 0.751,4.61 0.919,7.236 1.417,11.904 0.459,4.396 1.438,6.771 3.083,10.896 1.376,3.424 1.438,6.28 4.75,8.246 1.438,-1.343 3.938,-0.113 4.832,1.559 1.104,2.062 -1.396,3.6 -3.25,5.138 -1.562,1.282 -3.665,1.282 -5.415,0.153 -2.792,-1.811 -3.208,-4.279 -6.416,-5.368 -4.291,-1.438 -7.749,0.021 -11.166,2.802 -1.998,1.635 -3.541,2.997 -6.165,2.566 -2.687,-0.445 -3.666,-1.943 -5.916,-3.346 -1.833,-1.13 -2.583,-2.258 -4.583,-3.035 -2.749,-1.068 -4.895,-0.66 -7.666,0.467 -4.457,1.812 -6.603,5.66 -11.414,5.992 -2.396,0.153 -3.271,0.465 -5.667,0.231 -1.834,-0.176 -2.438,-2.021 -2.5,-3.733 -0.062,-1.906 0.625,-4.301 2.666,-4.201 2.104,0.098 2.938,1.596 4.167,3.188 3.291,-2.724 2.104,-6.089 2.833,-10.191 0.771,-4.317 1.395,-6.573 2.166,-10.896 1.083,-6.165 3.667,-9.162 7.749,-14.083 1.876,-2.258 3.625,-3.134 4.583,-5.836 5.646,-7.043 11.915,-9.397 14.665,-17.976 1.979,-6.167 1.625,-12.431 -4.25,-15.719 -2.958,6.633 -3.875,11.283 -9.499,16.185 -1.645,1.419 -2.437,2.567 -4.5,3.423 -4.686,1.946 -9.332,1.031 -12.748,-2.491 6.916,-4.843 11.79,-6.808 16.831,-13.54 1.813,-2.431 2,-4.045 3.416,-6.691 0,-1.556 1.313,-2.14 1.917,-3.579 1.938,-4.552 5.374,-6.673 10.499,-7.859 0,3.677 2.896,6.264 6.749,7.003 1.208,0.233 2.604,0.661 3.166,-0.39 0.312,-0.603 -0.292,-1.05 -0.666,-1.633 -1.188,-1.868 -2.583,-2.821 -2.583,-4.98 2.188,0 3.249,1.147 4.999,2.412 2.583,1.868 4.146,3.911 3.749,6.926 -0.209,1.674 -0.812,2.549 -1.749,3.969 -0.479,0.72 -1.418,0.739 -1.667,1.556 -0.833,2.607 0.562,4.202 0.916,6.926 1.377,10.333 1.668,16.048 1.668,26.377 z"
   id="path10" />
    <path
   fill="#f9c4f7"
   d="m 88.963,48.618 c 0.907,0.632 1.542,0.875 2.625,1.206 2.521,0.778 4.114,1.274 6.707,0.856 0.866,-0.137 1.365,-0.312 2.25,-0.351 1.223,-0.049 2.18,-0.623 3.125,0.078 1.083,0.807 1.531,1.44 2.417,2.451 1.021,1.167 1.771,1.693 2.541,2.996 0.416,0.7 1.763,0.817 1.417,1.556 -0.154,0.35 -0.511,0.379 -0.876,0.545 -1.968,0.914 -3.302,1.157 -5.457,0.855 -0.905,-0.127 -1.427,0.097 -2.333,0.039 -2.968,-0.204 -4.624,-0.35 -7.54,-0.934 -1.001,-0.195 -1.543,-0.437 -2.501,-0.778 -0.82,-0.292 -1.802,-0.176 -1.999,-0.972 -0.126,-0.535 -0.104,-0.856 -0.167,-1.401 -0.25,-2.181 0.316,-4.016 -0.209,-6.146 z"
   id="path12" />
    <path
   fill="#ffdfa4"
   d="m 104.15,51.037 c 0.929,-0.214 1.008,-0.646 1.646,-1.307 1.386,-1.439 2.155,-2.228 3.083,-3.968 1.193,-2.247 1.124,-3.969 3,-5.719 0.979,-0.914 1.551,-1.547 2.832,-2.023 1.055,-0.389 1.969,-0.74 2.916,-0.156 0.376,0.234 0.771,0.399 0.749,0.817 -0.03,0.574 -0.638,0.701 -1.166,0.973 -1.396,0.72 -2.54,1.148 -3.04,2.567 1.438,-0.204 2.229,-0.563 3.666,-0.428 0.469,0.039 0.885,0.379 0.833,0.817 -0.125,0.962 -1.208,1.031 -2.124,1.478 -0.264,0.127 -0.615,0.117 -0.667,0.39 -0.073,0.36 0.146,0.827 0.541,0.817 0.626,-0.02 0.958,-0.312 1.584,-0.272 0.812,0.048 1.509,-0.136 2.04,0.428 0.312,0.33 0.455,0.263 0.145,0.602 -1.084,1.158 -3.311,1.032 -3.978,2.433 -0.612,1.293 -1.321,2.256 -2.832,2.49 -0.847,0.126 -1.321,0.195 -2.166,0.195 -0.616,0 -1.306,-0.351 -1.583,0.155 -0.699,1.246 -1.104,1.926 -1.585,3.269 z"
   id="path14" />
    <path
   fill="#ffdfa4"
   d="m 49.178,68.615 c -0.375,0.895 -2.53,3.979 -3.708,3.93 -1.822,-0.078 -2.843,0.398 -4.5,1.167 -1.167,0.545 -1.792,0.935 -2.707,1.791 -0.521,0.483 -1.147,0.748 -1.125,1.438 0.032,0.76 1.291,0.447 2.083,0.23 0.864,-0.23 1.281,-0.506 2.124,-0.814 -0.27,0.634 -0.468,1.17 -0.833,1.752 -0.958,1.547 -1.562,2.344 -1.417,4.125 0.031,0.445 0.052,0.795 0.417,1.09 0.479,0.379 1.011,-0.04 1.583,-0.273 1.385,-0.574 1.343,-1.828 2.25,-2.957 0,1.713 0.417,2.646 1,4.279 0.26,0.73 0.75,1.586 1.542,1.361 0.916,-0.262 0.927,-1.188 1.082,-2.062 0.313,-1.682 0.626,-2.605 1.208,-4.238 0.563,-1.576 1.718,-3.017 3.458,-2.727 1.521,0.266 1.938,2.598 3.333,1.982 1.417,-0.621 1.302,-2.564 0.333,-3.732 -0.583,-0.71 -1.072,-1.1 -1.999,-1.322 -0.636,-0.156 -1.49,-0.166 -1.458,-0.778 0.094,-1.742 2.166,-1.995 2.625,-3.736 -1.875,-0.538 -3.416,0.027 -5.291,-0.506 z"
   id="path16" />
    <path
   fill="#e179ff"
   d="m 55.719,138.294 c 0.25,-0.933 0.542,-1.479 1.167,-2.257 2.645,3.717 6.936,5.798 11.331,4.124 0.875,-0.329 2.396,-1.146 1.667,-1.711 -0.937,-0.739 -1.645,-1.015 -2.749,-1.479 -2.083,-0.877 -3.981,-2.271 -5.001,-4.18 -0.958,-1.811 -0.665,-2.941 -2.664,-3.684 -2.125,-0.776 -5.083,-1.146 -5.833,0.854 -0.895,2.395 -2.062,3.521 -2.833,5.992 -0.604,1.955 2.771,2.341 4.915,2.341 z"
   id="path18" />
    <path
   fill="#e179ff"
   d="m 88.463,130.668 c -0.604,2.898 -1.79,9.241 -0.916,9.809 0.666,0.428 3.958,-0.332 5.166,-0.471 0.104,-0.99 -0.146,-1.982 0.751,-2.486 0.581,-0.332 3.604,2.957 5.332,2.957 3.188,0 6.499,-0.271 7.499,-3.11 -2.25,-0.877 -4.041,0.003 -6.166,-1.093 -3.645,-1.876 -7.041,-3.893 -11.666,-5.606 z"
   id="path20" />
    <path
   fill="#272525"
   d="m 86.505,12.7 c 7.75,0.124 10.089,7.04 4.542,11.523 0.284,1.381 1.814,5.723 0.791,6.886 -1.288,1.462 -5.378,0.979 -7.248,0.622 -0.244,0.392 0.004,1.166 10e-4,1.598 1.206,-1.144 3.832,-1.052 3.664,1.359 0.75,-0.233 1.806,-0.363 2.5,0.235 0.913,0.78 1.209,2.372 0.209,3.462 0.458,0.623 0.976,1.017 1.536,1.976 1.634,2.788 0.052,7.101 -3.251,8.146 1.88,12.973 2.719,26.045 4.172,39.062 1.271,11.363 1.847,26.646 10.239,35.818 -0.126,0.153 -4.947,-1.353 -8.831,-11.638 C 89.034,96.4 91.182,81.033 89.355,65.254 88.699,59.54 87.876,54.067 87.334,48.345 c 0.706,-0.263 1.548,-0.427 2.209,-1.012 5.293,-4.693 -0.358,-8.148 -4.198,-11.728 0.229,1.842 2.643,3.798 2.87,6.223 -3.819,2.292 -12.737,-2.218 -12.243,-6.577 -1.172,0.234 -1.902,0.639 -2.816,0.961 -0.04,0.597 0.306,0.967 0.379,1.568 1.292,0.458 2.234,0.015 2.979,1.367 0.979,1.775 0.123,3.188 -1.408,4.351 2.473,4.004 -3.476,9.633 -6.227,4.458 -3.367,1.271 -6.047,1.072 -5.367,-2.89 C 62.494,45 61.32,44.411 60.88,43.598 c -0.697,-1.289 0.5,-3.968 4,-4.357 -0.25,-1.323 -0.53,-1.735 0.583,-3.635 1.334,-2.279 4.916,-2.706 6.944,-0.399 1.303,-0.726 5.37,-0.729 4.106,-3.7 -1.091,0.819 -2.757,3.286 -4.219,3.579 1.141,-1.177 4.092,-5.595 4.374,-7.907 0.595,-4.874 -0.709,-10.922 4.667,-13.531 -5.502,-0.98 -9.395,2.291 -10.374,5.371 -0.846,2.654 1.476,6.362 -0.029,8.947 -3.124,5.364 -8.069,3.434 -10.943,7.893 -1.174,1.823 -1.795,3.9 -2.979,5.717 -0.855,-0.299 -1.007,-1.439 -1.029,-2.175 -0.23,-7.694 9.342,-7.101 13.052,-10.428 3.659,-3.28 -1.28,-6.696 0.221,-10.468 1.646,-4.136 7.291,-6.576 13.222,-5.717 0.322,0.408 -0.436,0.492 -0.649,0.708 0.946,-0.177 1.887,-0.193 2.513,0.456 1.758,1.823 5.208,5.407 6.29,9.104 1.897,-2.515 4.25,-9.61 -4.901,-9.762 C 85.797,5.082 73.289,5.82 68.134,9.517 60.513,14.984 64.32,29.318 53.873,31.356 c -4.737,0.924 -9.553,0.596 -11.735,8.431 3.166,-2.879 7.728,-2.499 8.647,-0.892 0.999,1.744 0.026,3.909 2.601,4.755 3.117,1.025 4.126,-3.039 6.988,-2.074 l 0.163,0.708 c -2.538,0.431 -2.138,3.214 -4.714,4.25 -6.926,2.784 -4.977,-8.481 -10.238,-6.932 -1.597,0.471 -3.014,2.866 -3.522,4.25 -2.546,-0.323 -0.712,-8.179 0.108,-9.562 2.396,-4.041 8.684,-3.991 12.859,-4.938 7.095,-1.61 6.437,-13.844 8.106,-17.07 1.974,-3.812 5.998,-7.124 12.664,-7.28 3.188,-0.074 9.54,1.553 10.499,4.591 0.256,0.806 0.156,2.263 0.206,3.107 z"
   id="path22" />
    <path
   fill="#272525"
   d="m 82.48,11.672 c -2.283,-0.125 -4.756,-1.417 -7.045,-0.998 -10.66,1.95 -5.003,16.042 -16.574,22.145 -3.694,1.949 -6.178,3.165 -10.565,3.391 3.997,-0.984 8.932,-2.712 12.015,-5.25 2.833,-2.331 3.688,-5.485 4.617,-8.967 1.422,-5.332 2.263,-10.168 8.883,-11.991 2.791,-0.767 6.089,0.104 8.669,1.67 z"
   id="path24" />
    <path
   fill="#ffbc99"
   d="m 80.882,20.796 c 2.124,0.545 2.208,-1.245 1.042,-2.334 -0.824,-0.771 -3.261,0.243 -4.085,0.623 -0.646,0.301 -0.198,1.982 0.445,2.177 0.754,0.236 1.842,-0.658 2.598,-0.466 z"
   id="path26" />
    <path
   fill="#ffbc99"
   d="m 87.173,20.138 c -1.133,0.288 -2.153,0.52 -2.043,-0.079 0.229,-1.204 0.918,-2.373 2.187,-1.805 0.537,0.24 0.869,0.551 1.064,1.066 0.167,0.416 -0.727,0.818 -1.208,0.818 z"
   id="path28" />
    <path
   fill="#ffdfa4"
   d="m 90.672,29.9 c -1.771,1.742 -5.166,1.129 -7.65,0.39 -1.223,4.59 1.119,7.421 3.088,10.523 -3.494,0.464 -6.401,-2.275 -8.021,-4.857 0.188,-2.399 0.376,-5.005 -0.958,-7.651 1.844,-3.671 -2.082,-12.255 6.458,-14.006 3.973,3.659 7.298,10.222 7.083,15.601 z"
   id="path30" />
    <path
   fill="#272525"
   d="m 85.547,19.94 c 0.419,1.989 1.626,3.425 3.001,4.63 0.782,1.646 -2.894,2.824 -4.879,1.217 -0.247,-0.283 -0.121,-0.672 0.271,-0.607 0.971,0.068 2.777,0.847 3.468,-0.354 -1.107,-1.072 -2.572,-2.371 -3.19,-4.886 -0.118,-0.482 1.24,-0.44 1.329,0 z"
   id="path32" />
    <path
   fill="#272525"
   d="m 115.387,41.59 c 1.725,-0.869 8.112,-0.615 1.34,2.878 1.492,0.281 4.028,-0.809 4.982,0.917 -0.958,2.178 -4.479,0.666 -6.048,4.61 -0.74,1.865 -3.781,1.853 -5.466,1.802 l -1.184,2.275 c 0.801,0.877 4.278,3.121 4.67,4.146 0.289,0.771 -0.781,1.18 -1.408,1.316 -5.703,1.229 -17.885,1.314 -22.479,-2.709 0.189,-0.572 -0.521,-1.488 0.271,-1.72 6.172,2.548 11.979,3.309 18.687,1.9 0,0 -3.938,-3.98 -5.741,-5.869 -2.848,0.675 -12.271,1.123 -14.213,-1.691 -0.361,-0.523 -0.005,-1.306 0.541,-1.569 3.473,1.299 8.081,3.425 14.104,1.439 1.375,1.281 3.435,2.629 4.678,4.005 0.343,-0.643 0.929,-2.273 1.656,-2.555 3.945,1.25 5.521,-2.014 6.246,-3.556 1.324,-0.605 4.013,-1.223 3.916,-1.564 -0.094,-0.341 -1.873,-0.532 -2.664,-0.321 -0.019,1.743 -2.398,1.508 -3.582,3.038 -1.532,1.987 -2.896,2.073 -4.032,1.477 0.188,-0.828 1.185,-0.112 1.788,-0.523 1.396,-0.949 1.635,-2.981 3.779,-3.012 0.744,0.041 0.726,-0.645 0.726,-0.645 -1.021,-1.547 -4.017,0.49 -4.845,0.967 -0.357,-0.121 -0.527,-0.531 -0.166,-0.827 1.312,-1.072 2.811,-0.955 4.195,-1.674 0.313,-0.162 2.557,-1.258 3.071,-1.961 -1.683,-0.559 -4.188,0.273 -5.916,1.917 1.021,-2.502 4.442,-4.551 5.505,-5.634 -0.338,-0.526 -2.279,-0.08 -2.792,0.105 -4.767,1.722 -4.713,9.91 -9.29,12.139 l -0.923,-0.479 c 1.834,-1.401 3.493,-4.043 3.998,-5.707 0.929,-3.069 3.192,-6.923 6.937,-7.453 1.133,-0.161 3.271,0.198 3.601,0.96 0.355,0.776 -3.38,2.674 -3.942,3.578 z"
   id="path34" />
    <path
   fill="#9145ff"
   d="m 87.193,35.147 c -0.606,-0.362 -1.065,-0.894 -1.57,-1.366 0.546,-1.114 2.384,0.198 1.57,1.366 z"
   id="path36" />
    <path
   fill="#9145ff"
   d="m 90.381,37.877 c 0,0 -1.652,-1.45 -2.436,-2.021 1.268,-0.936 3.061,-0.273 2.436,2.021 z"
   id="path38" />
    <path
   fill="#9145ff"
   d="m 74.216,40.484 c 0.451,2.522 -1.338,1.776 -2.356,2.051 1.156,1.567 2.646,3.679 -0.271,4.755 -1.218,0.45 -1.892,-1.06 -2.492,-1.72 -1.254,0.75 -1.601,0.965 -2.871,0.86 -1.01,-0.664 -0.508,-1.823 0.164,-2.783 -1.254,0.105 -1.983,-0.165 -2.222,-0.859 -0.233,-0.68 0.217,-2.46 2.979,-1.722 -0.52,-2.317 0.112,-6.704 3.792,-4.25 0.934,0.623 0.696,1.954 0.612,3.044 1.154,0.081 2.499,-0.311 2.665,0.624 z"
   id="path40" />
    <path
   fill="#272525"
   d="m 85.895,47.292 c -0.004,1.255 -1.447,2.844 -2.604,3.39 -1.855,0.879 -4.055,-0.16 -5.408,-1.248 -0.595,-0.477 -0.076,-1.825 0.332,-1.479 3.459,2.919 6.165,0.776 7.68,-0.663 z"
   id="path42" />
    <path
   fill="#272525"
   d="m 64.057,47.632 c -1.92,6.858 -10.785,13.875 -18.583,18.67 1.63,1.085 4.102,1.455 5.999,1.609 7.004,0.574 10.354,-3.832 13.613,-9.148 1.856,-3.028 3.866,-6.181 4.28,-9.714 h 2.491 c 0,0.421 -0.883,3.5 -1.223,4.312 -2.118,5.085 -5.562,12.43 -10.859,15.268 -5.128,2.749 -13.97,0.528 -18.095,-2.781 7.434,-4.341 18.03,-12.4 21.956,-19.802 0.59,-0.004 0.134,1.229 0.421,1.586 z"
   id="path44" />
    <path
   fill="#272525"
   d="m 72.406,49.965 c 4.203,3.345 6.005,9.956 4.654,14.779 -2.869,10.235 -15.395,16.39 -21.237,25.247 -4.672,7.084 -8.451,15.606 -8.451,24.03 0,4.302 -1.297,9.207 -5.851,11.185 0,0 1.732,-2.331 2.491,-3.744 1.694,-3.153 1.4,-8.026 2.059,-11.536 1.943,-10.345 4.396,-21.639 12.894,-29.142 6.819,-6.021 17.596,-11.913 15.98,-22.109 -0.402,-2.545 -1.625,-6.186 -3.191,-8.355 0.064,-0.304 0.348,-0.419 0.652,-0.355 z"
   id="path46" />
    <path
   fill="#272525"
   d="m 89.839,58.757 c 0.379,0.303 0.647,0.607 0.542,1.114 -1.585,0.785 -4.115,0.05 -6.122,0.101 -2.868,-0.152 -5.798,-0.202 -8.723,-0.254 -0.379,-0.354 -0.435,-0.809 -0.379,-1.314 l 1.138,-0.606 c 4.663,0.052 9.047,0.251 13.544,0.959 z"
   id="path48" />
    <path
   fill="#272525"
   d="m 75.109,122.675 c -8.335,-15.054 8.226,-28.921 6.449,-44.319 -0.438,-3.793 -1.41,-8.71 -0.218,-12.396 -0.209,9.617 4.716,15.779 1.408,24.031 -5.393,13.469 -10.199,18.659 -7.639,32.684 z"
   id="path50" />
    <path
   fill="#272525"
   d="m 87.842,90.145 c -1.49,8.021 -2.652,15.078 2.166,22.465 0.311,0.475 2.205,4.289 2.385,6.426 -3.142,-4.051 -8.47,-9.438 -8.992,-14.57 -1.209,-11.848 6.057,-22.65 3.356,-36.427 2.456,6.062 2.272,15.731 1.085,22.106 z"
   id="path52" />
    <path
   fill="#272525"
   d="m 48.188,123.891 c 0.702,-1.623 1.973,-4.289 2.438,-5.465 4.941,-12.479 -0.352,-21.716 13.273,-31.471 3.72,-2.663 9.154,-7.332 12.322,-14.725 0.526,4.27 -5.657,12.542 -8.909,15.333 -4.836,4.146 -10.354,7.056 -11.485,13.711 -0.973,5.721 -0.525,17.414 -7.639,22.617 z"
   id="path54" />
    <path
   fill="#272525"
   d="m 50.398,68.956 -3.358,4.098 c -2.889,0.39 -7.359,0.881 -8.984,3.615 0.336,0.625 2.242,-0.368 2.583,-0.622 1.458,-1.09 2.345,-1.428 3.909,-1.525 -0.952,1.525 -6.019,5.816 -4.459,7.939 0,0 1.008,-0.579 1.342,-0.891 1.906,-1.938 2.737,-5.024 5.881,-5.381 0,0 -3.609,6.014 -2.091,8.492 1.69,-0.555 2.062,-4.268 2.74,-5.66 1.235,-2.539 4.125,-4.42 6.009,-1.106 0.356,0.627 1.193,-0.226 1.25,-0.713 0.282,-2.386 -3.267,-2.918 -4.929,-3.644 0.1,-1.329 1.447,-2.978 2.329,-3.997 0.683,-0.788 2.868,-0.361 2.112,0.708 l -1.841,2.53 c 1.688,0.787 3.468,2.042 3.792,3.896 0.15,0.859 -0.463,2.074 -1.422,3.047 -0.958,0.974 -2.297,-3.521 -4.321,-2.54 -1.948,0.944 -2.882,7.002 -4.039,8.545 -2.078,2.769 -3.93,-1.728 -3.762,-3.938 -0.98,1.529 -3.961,3.969 -5,1.519 -0.597,-1.411 1.866,-4.688 2.457,-5.953 -1.858,0.438 -3.812,1.002 -4.248,0.545 -0.873,-0.919 1.546,-3.793 3.433,-4.963 1.734,-1.076 4.282,-0.772 6.107,-1.419 1,-0.778 1.976,-1.449 2.452,-2.982 0.688,-0.053 1.471,0.04 2.058,0.4 z"
   id="path56" />
    <path
   fill="#272525"
   d="m 61.566,117.314 c -2.764,-9.131 2.65,-16.737 10.944,-27.32 1.516,-1.936 2.873,-3.364 5.04,-10.288 0.847,4.847 -3.688,12.251 -6.881,15.903 -6.189,7.082 -9.228,12.245 -9.103,21.705 z"
   id="path58" />
    <path
   fill="#272525"
   d="m 98.963,116.584 c 3.25,-0.583 7.01,-1.831 10.062,-0.23 2.455,1.281 3.783,2.979 3.899,5.717 0.222,5.037 -2.979,10.188 -7.965,12.145 -13.331,5.225 -15.506,-5.484 -24.271,-3.543 -5.508,1.223 -8.711,7.426 -14.685,4.146 -2.76,-1.512 -4.015,-3.783 -7.313,-4.398 -9.767,-1.822 -15.227,9.061 -23.512,2.684 -1.681,-1.295 -3.72,-4.021 -4.063,-6.07 -0.766,-4.582 2.215,-13.319 8.614,-11.991 1.735,0.358 3.887,2.124 4.171,3.847 0.197,1.189 -1.788,-0.328 -1.841,-0.354 -4.05,-1.907 -9.411,2.463 -9.372,6.323 0.028,2.861 2.558,5.916 5.471,6.776 8.27,2.449 15.668,-8.395 24.974,-2.274 8.136,5.349 11.106,1.697 19.071,-1.469 5.771,-2.293 8.705,3.699 13.271,5.215 3.75,1.237 8.772,0.83 11.703,-1.821 6.631,-6.005 2.764,-14.914 -3.74,-13.457 -0.42,0.093 -1.979,0.241 -3.396,0.786 -0.707,0.267 -1.133,-1.457 -1.078,-2.032 z"
   id="path60" />
    <path
   fill="#272525"
   d="m 41.415,123.129 c -1.774,-1.562 -6.273,-0.783 -4.008,2.582 1.544,2.292 5.299,2.029 7.801,1.564 4.018,-0.735 7.395,-5.444 12.082,-6.776 12.666,-3.601 11.659,8.315 18.582,6.524 2.455,-0.635 4.786,-2.729 6.881,-4.098 2.593,-1.697 4.612,-2.244 7.802,-1.367 3.604,0.988 5.157,3.67 7.908,5.617 2.139,1.512 6.939,-0.259 7.312,-2.684 0.688,-4.487 -3.484,-1.812 -4.062,-3.165 -1.145,-2.688 4.646,-3.626 5.852,-0.832 1.395,3.233 -1.271,6.837 -3.899,8.703 -7.774,5.519 -11.008,-7.597 -18.203,-5.566 -4.743,1.341 -6.957,6.593 -12.839,5.566 -4.53,-0.791 -5.965,-5.771 -10.51,-6.527 -7.147,-1.188 -10.192,2.755 -15.765,5.466 -2.476,1.205 -7.28,1.342 -9.589,-0.255 -5.485,-3.788 1.444,-11.831 4.55,-7.282 0.402,0.603 0.275,1.878 0.105,2.53 z"
   id="path62" />
    <path
   fill="#272525"
   d="m 88.793,132.007 c 1.141,2.179 0.163,4.707 -0.105,6.935 h 3.143 c 0,-1.467 0.109,-4.353 0.109,-4.353 1.896,2.326 4.332,4.854 7.525,4.957 1.409,0.054 4.332,-0.63 5.096,-1.819 -2.008,-0.455 -4.117,-0.76 -5.853,-1.819 v -0.354 c 2.979,0.254 6.176,0.76 9.479,0.708 0.436,0.354 0.436,0.81 0.106,1.216 -2.653,2.937 -7.043,4.553 -11.16,3.289 -1.405,-0.203 -2.489,-1.416 -3.521,-2.179 l -0.106,2.278 c -2.329,0.101 -4.771,0.353 -7.043,0.253 0.056,-1.113 0.106,-7.742 1.302,-9.208 0.432,-0.155 0.651,0.252 1.028,0.096 z"
   id="path64" />
    <path
   fill="#272525"
   d="m 90.088,63.352 c 0.38,0.304 0.648,0.607 0.542,1.113 -0.833,0.455 -4.114,0.05 -6.121,0.101 -2.87,-0.152 -5.797,-0.203 -8.723,-0.253 -0.379,-0.354 -0.433,-0.809 -0.379,-1.315 l 1.138,-0.607 c 4.662,0.047 9.048,0.253 13.543,0.961 z"
   id="path66" />
    <path
   fill="#272525"
   d="m 54.518,129.592 c 0.495,2.379 -1.147,4.584 -2.026,6.668 l 3.036,0.764 c 0.406,-1.418 1.311,-4.178 1.311,-4.178 1.187,2.704 2.84,5.738 5.9,6.607 1.346,0.389 4.358,0.438 5.423,-0.529 -1.81,-0.923 -6.106,-2.494 -6.454,-6.277 l 0.099,-0.342 c 1.833,3.034 7.062,5.33 10.268,6.079 0.321,0.447 0.194,0.89 -0.231,1.199 -3.378,2.19 -8.065,2.694 -11.691,0.479 -1.305,-0.537 -2.015,-1.974 -2.799,-2.953 l -0.736,2.175 c -2.277,-0.468 -4.703,-0.812 -6.872,-1.458 0.36,-1.062 2.25,-7.45 3.807,-8.58 0.455,-0.039 0.553,0.402 0.965,0.346 z"
   id="path68" />
    <path
   fill="#d718b9"
   d="m 83.277,27.717 c 0.004,0.592 1.178,1.488 1.578,1.778 0.766,0.549 1.861,1.04 2.438,0.33 0.398,-0.498 -0.675,-0.723 -1.309,-0.937 -1.009,-0.347 -1.714,-0.784 -2.707,-1.171 z"
   id="path70" />
    <path
   fill="#9e0096"
   d="m 83.27,27.726 c 0.955,-0.258 1.446,-0.494 2.033,-0.583 0.605,-0.086 0.953,0.27 1.564,0.232 0.314,-0.019 0.309,-0.41 0.604,-0.528 0.678,-0.265 1.036,-0.086 1.758,-0.26 -0.661,0.954 -2.428,1.755 -5.959,1.139 z"
   id="path72" />
    <path
   fill="#272525"
   d="m 76.425,20.212 c 0.31,-1.83 3.97,-2.593 5.622,-2.046 -1.832,0.257 -5.464,1.356 -5.622,2.046 z"
   id="path74" />
    <path
   fill="#272525"
   d="M 89.421,18.297 C 88.492,17.735 86.626,17.311 86.184,18.255 Z"
   id="path76" />
    <path
   fill="#272525"
   d="m 82.49,20.808 c -1.819,1.614 -5.25,1.334 -6.333,0.537 1.646,-0.576 4.374,-2.179 6.333,-0.537 z"
   id="path78" />
    <path
   fill="#272525"
   d="m 80.357,21.241 c -0.117,-0.371 0.021,-0.733 0.31,-0.809 0.287,-0.076 0.612,0.163 0.729,0.535 0.112,0.371 -0.023,0.732 -0.312,0.809 -0.287,0.075 -0.611,-0.168 -0.727,-0.535 z"
   id="path80" />
    <path
   fill="#ffffff"
   d="m 81.464,20.916 c -0.737,0.657 -2.028,0.527 -2.396,0.283 0.683,-0.517 1.721,-0.706 2.396,-0.283 z"
   id="path82" />
    <path
   fill="#272525"
   d="m 89.658,19.034 c -0.188,0.856 -0.508,1.186 -0.823,1.393 -1.077,0.695 -2.289,0.466 -2.823,0.04 0.736,-0.893 1.562,-1.426 2.415,-1.408 0.43,0.006 0.665,0.267 1.231,-0.025 z"
   id="path84" />
    <path
   fill="#272525"
   d="m 88.143,20.042 c -0.101,-0.325 0.021,-0.643 0.27,-0.709 0.246,-0.065 0.529,0.144 0.629,0.469 0.104,0.326 -0.02,0.642 -0.268,0.708 -0.249,0.069 -0.529,-0.141 -0.631,-0.468 z"
   id="path86" />
    <path
   fill="#ffffff"
   d="m 89,19.702 c -0.484,0.69 -1.434,0.62 -1.714,0.396 0.452,-0.553 1.189,-0.786 1.714,-0.396 z"
   id="path88" />
  </g>
</svg>
