<?xml version="1.0" encoding="UTF-8" standalone="no"?>
<svg
   version="1.1"
   width="63.404907"
   height="79.469749"
   id="svg6"
   sodipodi:docname="q-block.svg"
   xmlns:inkscape="http://www.inkscape.org/namespaces/inkscape"
   xmlns:sodipodi="http://sodipodi.sourceforge.net/DTD/sodipodi-0.dtd"
   xmlns="http://www.w3.org/2000/svg"
   xmlns:svg="http://www.w3.org/2000/svg">
  <defs
     id="defs10" />
  <sodipodi:namedview
     id="namedview8"
     pagecolor="#ffffff"
     bordercolor="#000000"
     borderopacity="0.25"
     inkscape:showpageshadow="2"
     inkscape:pageopacity="0.0"
     inkscape:pagecheckerboard="0"
     inkscape:deskcolor="#d1d1d1" />
  <!-- Exported by Scratch - http://scratch.mit.edu/ -->
  <g
     id="ID0.9514507986605167"
     transform="translate(-0.56227281,-0.54190911)">
    <path
       id="ID0.33620395278558135"
       fill="#ff9400"
       d="m 329,416 c 2.883,4.45 9.146,5.521 9,13 -2.503,-0.17 -3.131,1.536 -4,3 -5.109,-0.224 -4.443,-6.224 -8,-8 -10.647,-1.143 -10.693,5.549 -18,6 -11.419,0.705 -23.618,-9.873 -27,-20 -5.875,-17.593 2.198,-45.075 14,-53 7.63,-5.124 22.071,-6.381 31,0 6.893,4.925 11.124,20.814 11,32 -0.131,11.743 -2.776,17.906 -8,27 z m -20,4 c 2.651,-0.356 5.868,-2.068 7,-6 -0.979,-3.688 -4.379,-4.954 -6,-8 6.223,-7.67 7.712,1.503 15,3 5.747,-12.67 2.689,-33.299 -3,-45 -36.375,-22.637 -44.531,60.237 -13,56 z"
       transform="matrix(0.84539878,0,0,0.84539878,-226.85,-294.5)" />
    <path
       id="ID0.25073340628296137"
       d="m 322,364 c 5.689,11.701 8.747,32.33 3,45 -7.288,-1.497 -8.777,-10.67 -15,-3 1.621,3.046 5.021,4.312 6,8 -1.132,3.932 -4.349,5.644 -7,6 -31.531,4.237 -23.375,-78.637 13,-56 z m -15,51 c -6.829,-4.285 6.356,-24.092 13,-15 -0.789,-15.732 -3.705,-32.899 -21,-29 -9.63,12.405 -8.639,42.665 8,44 z"
       transform="matrix(0.84539878,0,0,0.84539878,-226.85,-294.5)" />
    <path
       id="ID0.5218712696805596"
       d="m 344,427 c 0,3 0,6 0,9 -5.124,0.543 -6.415,4.918 -10,7 -1.667,0 -3.333,0 -5,0 -0.939,-4.394 -4.312,-6.355 -8,-8 -22.445,15.141 -49.851,-4.257 -52,-28 0,-6.333 0,-12.667 0,-19 6.474,-19.526 18.254,-33.745 39,-39 1,0 2,0 3,0 29.955,-0.39 34.158,41.866 23,65 2.985,4.682 5.775,9.558 10,13 z m -7,-38 c 0.124,-11.186 -4.107,-27.075 -11,-32 -8.929,-6.381 -23.37,-5.124 -31,0 -11.802,7.925 -19.875,35.407 -14,53 3.382,10.127 15.581,20.705 27,20 7.307,-0.451 7.353,-7.143 18,-6 3.557,1.776 2.891,7.776 8,8 0.869,-1.464 1.497,-3.17 4,-3 0.146,-7.479 -6.117,-8.55 -9,-13 5.224,-9.094 7.869,-15.257 8,-27 z"
       transform="matrix(0.84539878,0,0,0.84539878,-226.85,-294.5)" />
  </g>
</svg>
