<?xml version="1.0" encoding="UTF-8" standalone="no"?>
<!-- Generator: Adobe Illustrator 18.0.0, SVG Export Plug-In . SVG Version: 6.00 Build 0)  -->

<svg
   version="1.1"
   id="Layer_2"
   x="0px"
   y="0px"
   viewBox="0 0 51.120302 61.503963"
   enable-background="new 0 0 51.1 61.5"
   xml:space="preserve"
   sodipodi:docname="Q-story-1.svg"
   width="51.1203"
   height="61.503963"
   xmlns:inkscape="http://www.inkscape.org/namespaces/inkscape"
   xmlns:sodipodi="http://sodipodi.sourceforge.net/DTD/sodipodi-0.dtd"
   xmlns="http://www.w3.org/2000/svg"
   xmlns:svg="http://www.w3.org/2000/svg"><defs
   id="defs17" /><sodipodi:namedview
   id="namedview15"
   pagecolor="#ffffff"
   bordercolor="#000000"
   borderopacity="0.25"
   inkscape:showpageshadow="2"
   inkscape:pageopacity="0.0"
   inkscape:pagecheckerboard="0"
   inkscape:deskcolor="#d1d1d1" />
<g
   id="g12"
   transform="translate(0.01267927,0.08190799)">
	<path
   fill="#53ad4e"
   d="m 44.8,40.1 c 0.9,-1.2 1.8,-2.3 2.6,-3.5 1.4,-2.2 2.2,-4.7 2.9,-7.1 C 51.2,26.7 51.2,23.9 51,21 50.6,16.9 49.5,13.1 46.8,9.8 45.3,8 43.8,6.2 41.7,5 40.5,4.3 39.3,3.5 38,2.9 35.6,1.7 33.2,0.7 30.6,0.2 27.9,-0.4 25.1,0 22.5,1 19.2,2.3 15.7,3.5 12.8,5.7 9.8,7.9 6.9,10.3 4.6,13.3 3.1,15.2 1.8,17.2 1.2,19.5 0.4,23.1 -0.1,26.7 0,30.3 c 0.1,4.1 1.3,7.9 3.8,11.2 2.8,3.7 6.5,6.2 10.6,8.1 1.4,0.6 2.9,0.9 4.3,1.2 1.1,0.2 2.2,0.2 3.4,0.3 -0.3,0.4 -0.6,0.7 -0.9,1 -1.3,1.4 -2.6,2.9 -3.9,4.3 -0.1,0.2 -0.2,0.7 -0.1,0.8 0.5,0.5 1,0.8 1.5,1.2 0,0 0.2,-0.1 0.3,-0.1 1.5,-0.7 3,-1.4 4.6,-2.1 1.8,-0.9 3.4,-0.5 4.9,0.8 1.2,1 2.3,2.1 3.5,3.1 1.5,1.3 3.4,1.5 5.2,1.2 1.5,-0.3 2.9,-1 4.1,-2 0.4,-0.3 0.8,-0.7 1.2,-0.9 1.9,-1.1 3.5,-2.5 4.9,-4.2 0.2,-0.3 0.3,-0.6 0.5,-0.8 -0.5,-0.4 -1,-0.6 -1.3,-1 -0.4,-0.5 -0.6,-0.5 -1.1,-0.1 -0.8,0.8 -1.7,1.5 -2.6,2.2 -1,0.8 -3.6,0.9 -4.5,0.2 -0.9,-0.7 -1.8,-1.4 -2.6,-2.1 -1,-0.9 -2,-1.8 -2.9,-2.5 1.2,-0.7 2.5,-1.4 3.6,-2.3 3.2,-2.2 6.1,-4.6 8.3,-7.7 z M 26.3,3.1 c 4.7,-1.2 8.4,0.7 11.5,4.1 1.4,1.5 2.6,3.2 3.7,5 1,1.6 1.5,3.5 1.7,5.5 0.6,5.1 0.6,10.2 -0.8,15.2 -0.6,2 -1.3,4.1 -2.6,5.8 -2.1,2.6 -4.4,5.1 -7.8,6.1 -0.2,0.1 -0.5,0.1 -0.7,0.2 -0.1,0 -0.1,0 -0.3,0 2,-1.4 3.2,-3.3 4.2,-5.3 1.5,-3 2.8,-6.1 3.1,-9.5 0.3,-3.3 0.5,-6.6 0.1,-9.8 C 38,17.2 37.6,14 35.9,11.1 34.8,9.2 33.6,7.3 31.7,6 29.4,4.4 26.8,4.2 24.1,4.6 c -0.3,0 -0.5,0.1 -0.8,0.1 0,0 -0.1,0 -0.2,-0.1 1,-0.9 2.1,-1.2 3.2,-1.5 z m -10.2,9.3 c 1.1,-2.8 3,-5 5.8,-6.4 2.5,-1.3 5.1,-1.5 7.7,-0.7 1.8,0.5 3.2,1.6 4,3.4 0.3,0.7 0.9,1.3 1.3,2 0.9,1.4 1.5,3 1.9,4.7 0.8,3.3 1.2,6.6 1.1,9.9 -0.1,2.8 0,5.6 -0.9,8.3 -1.1,3.2 -2.3,6.3 -4.5,8.9 -1.3,1.7 -3,2.9 -5.2,3 -1.5,0 -2.8,-0.6 -4,-1.4 C 18.9,41.2 16.2,37.1 15.2,32 15,31.2 14.8,30.5 14.7,29.8 14.5,27.9 14.3,25.9 14.1,24 c 0.1,0 0.2,0 0.2,0 -0.4,-4.1 0.4,-7.9 1.8,-11.6 z m 2.5,45.4 c -0.3,-0.3 -0.5,-0.5 -0.8,-0.7 1.1,-1.4 2.1,-2.8 3.2,-4.1 0.2,0.2 0.3,0.3 0.5,0.4 0.7,0.8 0.7,0.8 0,1.6 -0.9,0.9 -1.9,1.8 -2.9,2.8 z m 20.6,1.6 c 0.3,0 0.6,-0.1 1,-0.1 -1.1,1.2 -3.9,1.7 -5.4,1.3 -2.1,-0.5 -3.5,-1.9 -4.8,-3.4 -1.8,-2.1 -4.5,-2.6 -7.2,-1.3 -0.5,0.2 -1,0.5 -1.5,0.7 -0.1,-0.1 -0.1,-0.1 -0.2,-0.2 0.7,-0.7 1.3,-1.5 2.1,-2 1.3,-0.7 2.7,-1.2 4.1,-1.5 1.7,-0.4 3,0.5 3.9,1.9 2,2.9 4.6,4.4 8,4.6 z M 31.1,49.3 c -2.5,-1.1 -4.9,-0.6 -7.2,0.6 -0.5,0.2 -1,0.4 -1.5,0.4 -1.3,0 -2.6,0 -3.9,-0.1 C 18.2,50.2 18,50.1 17.7,50 15.9,49.3 14,48.7 12.3,47.7 9.4,46.1 6.8,44.1 4.6,41.4 2.1,38.3 1.3,34.8 0.9,31 0.5,27.7 1,24.3 1.7,20.9 2.3,18.2 3.5,15.8 5.2,13.7 7,11.6 9.1,9.7 11.3,8 12.1,7.4 12.9,6.7 13.7,6.1 l 0.1,0.1 c -0.8,1 -1.6,2 -2.4,3 C 9.1,12.5 7.2,16 6.8,20 6.5,23.1 6.1,26.3 7,29.4 c 0.5,1.9 1.4,3.7 2,5.5 1.6,4.3 4.9,7.1 8.4,9.6 3.5,2.4 7.5,3.4 11.9,3.1 3.9,-0.3 7.4,-1.6 10.7,-3.7 0.1,-0.1 0.2,-0.1 0.3,-0.2 0.1,0 0.1,0 0.3,0 -0.4,0.4 -0.8,0.8 -1.2,1.1 -1.9,1.5 -3.7,3.2 -5.9,4.2 -0.8,0.4 -1.4,0.7 -2.4,0.3 z"
   id="path2" />
	<path
   fill="#ffffff"
   d="m 21.5,54.9 c -0.9,1 -1.9,1.9 -2.8,2.9 -0.3,-0.3 -0.5,-0.5 -0.8,-0.7 1.1,-1.4 2.1,-2.8 3.2,-4.1 0.2,0.2 0.3,0.3 0.5,0.4 0.6,0.7 0.6,0.8 -0.1,1.5 z"
   id="path4" />
	<path
   fill="#ffffff"
   d="m 40.2,59.3 c -1.1,1.2 -3.9,1.7 -5.4,1.3 -2.1,-0.5 -3.5,-1.9 -4.8,-3.4 -1.8,-2.1 -4.5,-2.6 -7.2,-1.3 -0.5,0.2 -1,0.5 -1.5,0.7 -0.1,-0.1 -0.1,-0.1 -0.2,-0.2 0.7,-0.7 1.3,-1.5 2.1,-2 1.3,-0.7 2.7,-1.2 4.1,-1.5 1.7,-0.4 3,0.5 3.9,1.9 1.9,2.9 4.5,4.5 8,4.7 0.3,-0.1 0.7,-0.2 1,-0.2 z"
   id="path6" />
	<path
   fill="#ffffff"
   d="m 42.4,32.8 c -0.6,2 -1.3,4.1 -2.6,5.8 -2.1,2.6 -4.4,5.1 -7.8,6.1 -0.2,0.1 -0.5,0.1 -0.7,0.2 -0.1,0 -0.1,0 -0.3,0 2,-1.4 3.2,-3.3 4.2,-5.3 1.5,-3 2.8,-6.1 3.1,-9.5 0.3,-3.3 0.5,-6.6 0.1,-9.8 C 38,17.1 37.6,13.9 35.9,11 34.8,9.1 33.6,7.2 31.7,5.9 29.4,4.3 26.8,4.1 24.1,4.5 c -0.3,0 -0.5,0.1 -0.8,0.1 0,0 -0.1,0 -0.2,-0.1 0.9,-0.8 2,-1.1 3,-1.4 4.7,-1.2 8.4,0.7 11.5,4.1 1.4,1.5 2.6,3.2 3.7,5 1,1.6 1.5,3.5 1.7,5.5 0.9,5 0.9,10.1 -0.6,15.1 z"
   id="path8" />
	<path
   fill="#ffffff"
   d="m 40.6,43.7 c -0.4,0.4 -0.8,0.8 -1.2,1.1 -1.9,1.5 -3.7,3.2 -5.9,4.2 -0.8,0.4 -1.4,0.7 -2.4,0.2 -2.5,-1.1 -4.9,-0.6 -7.2,0.6 -0.5,0.2 -1,0.4 -1.5,0.4 -1.3,0 -2.6,0 -3.9,-0.1 C 18.2,50.1 18,50 17.7,49.9 15.9,49.2 14,48.6 12.3,47.6 9.4,46 6.8,44 4.6,41.3 2.1,38.2 1.3,34.7 0.9,30.9 0.5,27.7 1,24.3 1.7,20.9 2.3,18.2 3.5,15.8 5.2,13.7 7,11.6 9.1,9.7 11.3,8 12.1,7.4 12.9,6.7 13.7,6.1 l 0.1,0.1 c -0.8,1 -1.6,2 -2.4,3 C 9.1,12.5 7.2,16 6.8,20 6.5,23.1 6.1,26.3 7,29.4 c 0.5,1.9 1.4,3.7 2,5.5 1.6,4.3 4.9,7.1 8.4,9.6 3.5,2.4 7.5,3.4 11.9,3.1 3.9,-0.3 7.4,-1.6 10.7,-3.7 0.1,-0.1 0.2,-0.1 0.3,-0.2 0.1,0 0.2,-0.1 0.3,0 z"
   id="path10" />
</g>
</svg>
