<?xml version="1.0" encoding="UTF-8" standalone="no"?>
<svg
   version="1.1"
   width="71.946266"
   height="77.440384"
   id="svg9"
   sodipodi:docname="R-glow.svg"
   xmlns:inkscape="http://www.inkscape.org/namespaces/inkscape"
   xmlns:sodipodi="http://sodipodi.sourceforge.net/DTD/sodipodi-0.dtd"
   xmlns="http://www.w3.org/2000/svg"
   xmlns:svg="http://www.w3.org/2000/svg">
  <defs
     id="defs13" />
  <sodipodi:namedview
     id="namedview11"
     pagecolor="#ffffff"
     bordercolor="#000000"
     borderopacity="0.25"
     inkscape:showpageshadow="2"
     inkscape:pageopacity="0.0"
     inkscape:pagecheckerboard="0"
     inkscape:deskcolor="#d1d1d1" />
  <!-- Exported by Scratch - http://scratch.mit.edu/ -->
  <g
     id="ID0.5629414552822709"
     transform="translate(-1.2053285e-4,0.00238482)">
    <g
       id="ID0.6002094144932926">
      <g
         id="ID0.8163827913813293">
        <path
           id="ID0.6007779934443533"
           fill="#faa83b"
           d="m 60.881,57.091 c 0.233,0.88 -0.161,2.215 -1.186,4.003 -1.023,1.789 -2.105,3.064 -3.246,3.826 -1.141,0.762 -2.911,1.261 -5.308,1.495 -1.931,0.176 -3.73,-0.675 -5.396,-2.551 -1.668,-1.876 -2.617,-3.958 -2.851,-6.245 -0.645,-6.45 -1.464,-11.083 -2.458,-13.898 -0.118,-0.703 -0.439,-1.743 -0.966,-3.122 -0.526,-1.377 -1.725,-2.507 -3.597,-3.387 -1.405,-0.527 -2.837,-1.084 -4.299,-1.671 -0.234,-0.058 -0.526,-0.058 -0.877,0 -0.819,0.234 -2.517,0.703 -5.09,1.407 v 1.671 6.861 c 0,0.118 0.044,0.675 0.132,1.671 0.088,0.998 0.132,1.702 0.132,2.111 0.117,0.998 0.265,3.637 0.44,7.916 0.409,0.177 0.849,0.177 1.319,0 1.583,-0.645 2.99,-0.791 4.222,-0.439 0.88,0.294 1.319,0.998 1.319,2.111 0,1.643 -0.865,2.625 -2.595,2.946 -1.73,0.323 -4.266,0.778 -7.608,1.364 -2.698,0.527 -4.692,0.791 -5.981,0.791 -1.994,0 -3.373,-0.469 -4.134,-1.407 -0.176,-1.936 0.82,-3.107 2.99,-3.519 1.76,-0.176 3.519,-0.381 5.277,-0.616 0.234,-0.292 0.353,-0.615 0.353,-0.967 -0.06,-1.349 -0.382,-6.187 -0.968,-14.514 -0.176,-1.993 -0.235,-3.519 -0.176,-4.574 -1.056,-0.058 -1.76,-0.146 -2.111,-0.264 -0.88,-0.293 -1.438,-0.85 -1.671,-1.671 v -0.265 c 0.116,-0.058 0.204,-0.352 0.264,-0.879 0.82,-1.29 1.876,-1.788 3.167,-1.496 0.116,-0.352 0.088,-1.289 -0.089,-2.814 -0.527,-5.57 -0.851,-10.027 -0.967,-13.37 -0.235,-0.233 -0.734,-0.293 -1.496,-0.176 -1.173,0.235 -1.789,0.352 -1.847,0.352 -3.167,0 -4.692,-0.761 -4.574,-2.287 0.117,-1.407 1.319,-2.256 3.606,-2.551 2.052,-0.409 6.362,-1.055 12.931,-1.935 -0.294,0.059 1.788,0.146 6.245,0.264 5.159,0.411 8.766,1.262 10.819,2.551 2.228,1.467 3.723,3.401 4.485,5.806 0.233,0.763 0.293,1.906 0.176,3.431 -0.059,1.525 -0.294,2.609 -0.703,3.254 -1.35,2.463 -4.076,4.662 -8.181,6.598 0,0.176 0.029,0.294 0.088,0.352 1.466,1.056 2.463,1.994 2.991,2.814 1.523,2.463 2.551,6.041 3.078,10.731 0.762,6.393 1.377,10.409 1.847,12.051 0.059,0.352 0.469,0.909 1.231,1.671 0.762,0.764 1.378,1.174 1.848,1.231 1.816,0.118 2.932,-0.703 3.343,-2.463 -0.06,-0.645 0.204,-1.524 0.791,-2.639 0.821,-0.762 1.817,-1.144 2.991,-1.144 1.175,0.002 1.937,0.531 2.29,1.585 z M 43.289,26.217 c 0.527,-0.527 0.791,-1.348 0.791,-2.463 0,-2.99 -1.056,-5.13 -3.166,-6.421 -2.111,-1.289 -6.686,-1.876 -13.723,-1.759 -0.527,0 -1.319,0.234 -2.375,0.703 0.177,0.88 0.177,1.613 0,2.199 -0.059,0.88 -0.059,1.701 0,2.463 0.029,1.583 0.089,3.549 0.177,5.894 0.292,3.46 0.439,5.396 0.439,5.805 0.996,-0.058 2.463,-0.352 4.398,-0.879 0.292,-0.293 0.703,-0.616 1.231,-0.968 0.409,-0.117 1.465,-0.176 3.166,-0.176 3.226,0.001 6.247,-1.464 9.062,-4.398 z" />
        <path
           id="ID0.0849599870853126"
           fill="#00cccc"
           d="m 50.648,77.438 c -3.449,0 -8.526,-1.088 -13.128,-6.269 -0.076,-0.086 -0.151,-0.172 -0.227,-0.259 -1.404,0.801 -2.985,1.382 -4.707,1.702 -1.729,0.322 -4.271,0.779 -7.614,1.365 -3.42,0.665 -5.96,0.975 -7.984,0.975 -6.808,0 -10.652,-2.98 -12.679,-5.48 C 2.935,67.778 2.096,65.712 1.899,63.54 1.336,57.336 4.525,51.982 9.934,49.454 9.855,48.305 9.765,47.003 9.662,45.531 7.927,43.904 6.648,41.821 5.968,39.427 5.69,38.449 5.549,37.437 5.549,36.42 v -0.265 c 0,-1.246 0.211,-2.461 0.605,-3.601 C 6.441,31.431 6.904,30.357 7.53,29.373 7.855,28.862 8.203,28.378 8.572,27.92 8.564,27.832 8.556,27.743 8.55,27.655 6.766,26.986 4.927,25.916 3.341,24.203 0.936,21.603 -0.237,18.206 0.04,14.635 0.701,6.685 7.208,2.947 12.769,2.085 c 2.388,-0.458 6.752,-1.11 13.314,-1.989 1.029,-0.137 2.045,-0.129 3.026,0.012 0.621,0.028 1.998,0.08 4.969,0.158 0.195,0.005 0.391,0.016 0.585,0.031 7.113,0.566 12.132,1.9 15.793,4.199 0.068,0.042 0.135,0.085 0.202,0.129 4.316,2.843 7.401,6.877 8.921,11.667 0.011,0.036 0.022,0.071 0.033,0.107 0.64,2.091 0.844,4.411 0.64,7.289 -0.15,3.249 -0.861,5.917 -2.17,8.135 -0.759,1.344 -1.673,2.609 -2.747,3.801 0.916,2.609 1.583,5.57 2.017,8.929 0.41,-0.031 0.824,-0.047 1.242,-0.047 5.88,0 10.873,3.57 12.72,9.096 0.073,0.221 0.14,0.442 0.199,0.667 1.51,5.689 -1.337,10.658 -2.272,12.291 -1.895,3.312 -4.082,5.77 -6.682,7.506 -2.695,1.8 -6.08,2.878 -10.346,3.296 -0.569,0.054 -1.07,0.076 -1.565,0.076 z" />
      </g>
    </g>
    <g
       id="ID0.23415496619418263">
      <path
         id="ID0.2135459086857736"
         fill="#ffffff"
         d="m 60.881,57.091 c 0.233,0.88 -0.161,2.215 -1.186,4.003 -1.023,1.789 -2.105,3.064 -3.246,3.826 -1.141,0.762 -2.911,1.261 -5.308,1.495 -1.931,0.176 -3.73,-0.675 -5.396,-2.551 -1.668,-1.876 -2.617,-3.958 -2.851,-6.245 -0.645,-6.45 -1.464,-11.083 -2.458,-13.898 -0.118,-0.703 -0.439,-1.743 -0.966,-3.122 -0.526,-1.377 -1.725,-2.507 -3.597,-3.387 -1.405,-0.527 -2.837,-1.084 -4.299,-1.671 -0.234,-0.058 -0.526,-0.058 -0.877,0 -0.819,0.234 -2.517,0.703 -5.09,1.407 v 1.671 6.861 c 0,0.118 0.044,0.675 0.132,1.671 0.088,0.998 0.132,1.702 0.132,2.111 0.117,0.998 0.265,3.637 0.44,7.916 0.409,0.177 0.849,0.177 1.319,0 1.583,-0.645 2.99,-0.791 4.222,-0.439 0.88,0.294 1.319,0.998 1.319,2.111 0,1.643 -0.865,2.625 -2.595,2.946 -1.73,0.323 -4.266,0.778 -7.608,1.364 -2.698,0.527 -4.692,0.791 -5.981,0.791 -1.994,0 -3.373,-0.469 -4.134,-1.407 -0.176,-1.936 0.82,-3.107 2.99,-3.519 1.76,-0.176 3.519,-0.381 5.277,-0.616 0.234,-0.292 0.353,-0.615 0.353,-0.967 -0.06,-1.349 -0.382,-6.187 -0.968,-14.514 -0.176,-1.993 -0.235,-3.519 -0.176,-4.574 -1.056,-0.058 -1.76,-0.146 -2.111,-0.264 -0.88,-0.293 -1.438,-0.85 -1.671,-1.671 v -0.265 c 0.116,-0.058 0.204,-0.352 0.264,-0.879 0.82,-1.29 1.876,-1.788 3.167,-1.496 0.116,-0.352 0.088,-1.289 -0.089,-2.814 -0.527,-5.57 -0.851,-10.027 -0.967,-13.37 -0.235,-0.233 -0.734,-0.293 -1.496,-0.176 -1.173,0.235 -1.789,0.352 -1.847,0.352 -3.167,0 -4.692,-0.761 -4.574,-2.287 0.117,-1.407 1.319,-2.256 3.606,-2.551 2.052,-0.409 6.362,-1.055 12.931,-1.935 -0.294,0.059 1.788,0.146 6.245,0.264 5.159,0.411 8.766,1.262 10.819,2.551 2.228,1.467 3.723,3.401 4.485,5.806 0.233,0.763 0.293,1.906 0.176,3.431 -0.059,1.525 -0.294,2.609 -0.703,3.254 -1.35,2.463 -4.076,4.662 -8.181,6.598 0,0.176 0.029,0.294 0.088,0.352 1.466,1.056 2.463,1.994 2.991,2.814 1.523,2.463 2.551,6.041 3.078,10.731 0.762,6.393 1.377,10.409 1.847,12.051 0.059,0.352 0.469,0.909 1.231,1.671 0.762,0.764 1.378,1.174 1.848,1.231 1.816,0.118 2.932,-0.703 3.343,-2.463 -0.06,-0.645 0.204,-1.524 0.791,-2.639 0.821,-0.762 1.817,-1.144 2.991,-1.144 1.175,0.002 1.937,0.531 2.29,1.585 z M 43.289,26.217 c 0.527,-0.527 0.791,-1.348 0.791,-2.463 0,-2.99 -1.056,-5.13 -3.166,-6.421 -2.111,-1.289 -6.686,-1.876 -13.723,-1.759 -0.527,0 -1.319,0.234 -2.375,0.703 0.177,0.88 0.177,1.613 0,2.199 -0.059,0.88 -0.059,1.701 0,2.463 0.029,1.583 0.089,3.549 0.177,5.894 0.292,3.46 0.439,5.396 0.439,5.805 0.996,-0.058 2.463,-0.352 4.398,-0.879 0.292,-0.293 0.703,-0.616 1.231,-0.968 0.409,-0.117 1.465,-0.176 3.166,-0.176 3.226,0.001 6.247,-1.464 9.062,-4.398 z" />
    </g>
  </g>
</svg>
