<?xml version="1.0" encoding="UTF-8" standalone="no"?>
<!-- Generator: Adobe Illustrator 18.0.0, SVG Export Plug-In . SVG Version: 6.00 Build 0)  -->

<svg
   version="1.1"
   id="Layer_2"
   x="0px"
   y="0px"
   viewBox="0 0 41.001236 47.599998"
   enable-background="new 0 0 41 47.7"
   xml:space="preserve"
   sodipodi:docname="R-story-3.svg"
   width="41.001236"
   height="47.599998"
   xmlns:inkscape="http://www.inkscape.org/namespaces/inkscape"
   xmlns:sodipodi="http://sodipodi.sourceforge.net/DTD/sodipodi-0.dtd"
   xmlns="http://www.w3.org/2000/svg"
   xmlns:svg="http://www.w3.org/2000/svg"><defs
   id="defs9" /><sodipodi:namedview
   id="namedview7"
   pagecolor="#ffffff"
   bordercolor="#000000"
   borderopacity="0.25"
   inkscape:showpageshadow="2"
   inkscape:pageopacity="0.0"
   inkscape:pagecheckerboard="0"
   inkscape:deskcolor="#d1d1d1" />
<g
   id="g4"
   transform="translate(0.00123457)">
	<path
   fill="#41a2f2"
   d="m 41,46.1 c 0,0.6 -0.4,0.8 -0.9,0.7 -1.5,-0.1 -2.9,-0.3 -4.4,-0.4 -0.3,0 -0.5,-0.1 -0.8,-0.1 C 32.6,46 31,44.6 30,42.6 c -1,-1.8 -1.6,-3.7 -2.2,-5.7 -0.7,-2.8 -1.9,-5.6 -4.1,-7.6 -1.3,-1.3 -3,-2.1 -5,-2.1 -1.5,-0.1 -3,-0.2 -4.5,-0.4 -0.1,0 -0.3,-0.1 -0.3,-0.2 -0.4,-0.6 0.2,-2.1 0.9,-2.3 1.3,-0.2 2.6,-0.4 3.8,-0.6 1.3,-0.2 2.7,-0.5 4,-0.8 2,-0.5 3.3,-1.9 4.4,-3.5 1.5,-2 1.8,-4.4 1.9,-6.8 0,-0.7 -0.3,-1.4 -0.5,-2.1 C 27.2,6 22.4,2.9 18.2,3.1 17,3.2 15.8,3 14.7,2.9 13.6,2.8 12.5,3.1 11.5,3.7 c -0.2,0.2 -0.4,0.6 -0.4,0.9 0,1 0.1,1.9 0.1,2.9 0,1.3 -0.2,2.6 -0.3,3.9 -0.1,2.6 -0.1,5.2 -0.2,7.7 -0.1,3.3 -0.1,6.7 -0.2,10 0,3.3 0,6.6 0,9.9 0,1.3 0,2.5 0,3.8 0,1 0.5,1.6 1.4,1.8 0.7,0.2 1.5,0.2 2.3,0.3 0.2,0 0.5,0.1 0.5,0.2 0,0.7 0,1.5 -0.1,2.2 0,0.2 -0.7,0.3 -1.1,0.3 -4.1,0 -8.3,-0.1 -12.4,-0.2 -1.1,0 -1.1,0 -1.1,-1.1 0,-1.9 -0.1,-1.5 1.5,-1.5 0.2,0 0.5,0 0.7,0 C 3.3,44.7 3.8,44.3 3.8,43.2 3.9,40.8 3.9,38.5 3.9,36.1 3.9,34 3.8,31.8 3.8,29.7 3.8,26.5 3.7,23.3 3.7,20.1 3.7,18.4 3.9,16.6 3.9,14.9 3.9,13 3.8,11.2 3.8,9.3 3.8,8.1 4,7 4,5.8 4,5 4,4.2 3.8,3.4 3.7,2.7 3.1,2.5 2.4,2.4 1.8,2.4 1.2,2.5 0.7,2.4 0.5,2.4 0.1,2 0.1,1.8 0,1.3 0.1,0.7 0.1,0.1 0.3,0.1 0.5,0 0.7,0 2.8,0.1 4.9,0 7.1,0 12.4,0.1 17.7,0.1 23,0.4 c 1.7,0.1 3.4,0.9 5.2,1.3 1.9,0.5 3,1.9 4.1,3.3 1.5,1.7 2.2,3.8 2.7,5.9 0.5,2.1 0.5,4.2 -0.3,6.2 -0.7,1.8 -1.4,3.7 -2.8,5.1 -0.8,0.8 -1.8,1.5 -2.8,2.1 -1,0.6 -2,1 -3.1,1.5 0.3,0.1 0.5,0.2 0.8,0.2 2.5,0.5 4,2.1 4.7,4.4 0.7,2 1.1,4.1 1.7,6.1 0.8,2.6 1.7,5.1 3.8,7 0.7,0.6 1.7,0.8 2.6,1.1 0.4,0.1 0.9,0.1 1.3,0.2 0,0.5 0.1,0.9 0.1,1.3 z"
   id="path2" />
</g>
</svg>
