<?xml version="1.0" encoding="UTF-8" standalone="no"?>
<svg
   xmlns:dc="http://purl.org/dc/elements/1.1/"
   xmlns:cc="http://creativecommons.org/ns#"
   xmlns:rdf="http://www.w3.org/1999/02/22-rdf-syntax-ns#"
   xmlns:svg="http://www.w3.org/2000/svg"
   xmlns="http://www.w3.org/2000/svg"
   xmlns:sodipodi="http://sodipodi.sourceforge.net/DTD/sodipodi-0.dtd"
   xmlns:inkscape="http://www.inkscape.org/namespaces/inkscape"
   version="1.1"
   width="78.712555"
   height="138.45441"
   id="svg4834"
   sodipodi:docname="reindeer.svg"
   inkscape:version="0.92.2 5c3e80d, 2017-08-06">
  <metadata
     id="metadata4840">
    <rdf:RDF>
      <cc:Work
         rdf:about="">
        <dc:format>image/svg+xml</dc:format>
        <dc:type
           rdf:resource="http://purl.org/dc/dcmitype/StillImage" />
        <dc:title></dc:title>
      </cc:Work>
    </rdf:RDF>
  </metadata>
  <defs
     id="defs4838" />
  <sodipodi:namedview
     pagecolor="#ffffff"
     bordercolor="#666666"
     borderopacity="1"
     objecttolerance="10"
     gridtolerance="10"
     guidetolerance="10"
     inkscape:pageopacity="0"
     inkscape:pageshadow="2"
     inkscape:window-width="640"
     inkscape:window-height="480"
     id="namedview4836"
     showgrid="false"
     fit-margin-top="0"
     fit-margin-left="0"
     fit-margin-right="0"
     fit-margin-bottom="0"
     inkscape:zoom="0.94779116"
     inkscape:cx="135.30592"
     inkscape:cy="14.360498"
     inkscape:window-x="-4"
     inkscape:window-y="-4"
     inkscape:window-maximized="0"
     inkscape:current-layer="svg4834" />
  <!-- Exported by Scratch - http://scratch.mit.edu/ -->
  <g
     id="ID0.048281502444297075"
     transform="translate(-201.19408,-110.4061)">
    <path
       id="ID0.10931513691321015"
       d="m 1128.857,867.043 c 0,6.626 5.374,12 12,12 h 10.351 c 6.626,0 12,-5.374 12,-12 v -90.288 c 0,-6.63 -5.374,-12 -12,-12 h -10.351 c -6.626,0 -12,5.37 -12,12 z"
       transform="matrix(0.27767,0,0,0.27767,-64.85,3.25)"
       inkscape:connector-curvature="0"
       style="fill:#764e2a;stroke:#000000" />
    <path
       id="ID0.7591547076590359"
       d="m 1146.034,858.543 c 6.988,0 13.326,1.428 17.912,3.735 4.586,2.311 7.424,5.497 7.424,9.014 0,3.517 -2.838,6.703 -7.424,9.01 -4.586,2.311 -10.924,3.739 -17.912,3.739 -6.992,0 -13.326,-1.428 -17.912,-3.739 -4.586,-2.307 -7.428,-5.494 -7.428,-9.01 0,-3.517 2.842,-6.703 7.428,-9.014 4.586,-2.307 10.92,-3.735 17.912,-3.735 z"
       transform="matrix(0.27767,0,0,0.27767,-64.85,3.25)"
       inkscape:connector-curvature="0"
       style="fill:#010101;stroke:#010101" />
    <path
       id="ID0.0989027488976717"
       d="m 1072.037,867.043 c 0,6.626 -5.372,12 -12,12 h -10.351 c -6.626,0 -12,-5.374 -12,-12 v -90.288 c 0,-6.63 5.374,-12 12,-12 h 10.351 c 6.628,0 12,5.37 12,12 z"
       transform="matrix(0.27767,0,0,0.27767,-64.85,3.25)"
       inkscape:connector-curvature="0"
       style="fill:#764e2a;stroke:#000000" />
    <path
       id="ID0.4515355387702584"
       d="m 1054.862,858.543 c 6.99,0 13.324,1.428 17.912,3.735 4.588,2.311 7.426,5.497 7.426,9.014 0,3.517 -2.838,6.703 -7.426,9.01 -4.588,2.311 -10.922,3.739 -17.912,3.739 -6.99,0 -13.324,-1.428 -17.912,-3.739 -4.588,-2.307 -7.426,-5.494 -7.426,-9.01 0,-3.517 2.838,-6.703 7.426,-9.014 4.587,-2.307 10.922,-3.735 17.912,-3.735 z"
       transform="matrix(0.27767,0,0,0.27767,-64.85,3.25)"
       inkscape:connector-curvature="0"
       style="fill:#010101;stroke:#010101" />
    <g
       id="ID0.8780540516600013"
       transform="translate(201,110)">
      <path
         id="ID0.3386278133839369"
         d="m 1007.292,732.448 c 1.695,7.009 -1.445,14.335 -7.73,16.452 -2.654,0.893 -3.978,1.336 -6.635,2.23 -6.28,2.117 -13.725,-2.944 -15.772,-11.402 -13.238,-64.976 4.435,-125.493 50.576,-173.122 6.278,-6.026 15.274,-6.283 19.431,-1.12 1.755,2.182 2.633,3.271 4.391,5.453 4.154,5.163 2.858,13.029 -2.346,18.025 -38.241,40.076 -52.578,89.122 -41.915,143.484 z"
         transform="matrix(0.27767,0,0,0.27767,-265.9,-106.75)"
         inkscape:connector-curvature="0"
         style="fill:#603a17;stroke:#010101" />
    </g>
    <g
       id="ID0.878742640838027"
       transform="translate(201,110)">
      <path
         id="ID0.49854832142591476"
         d="m 1192.81,732.448 c -1.699,7.009 1.442,14.335 7.723,16.452 2.652,0.893 3.978,1.336 6.633,2.23 6.278,2.117 13.723,-2.944 15.77,-11.402 13.249,-64.98 -4.438,-125.486 -50.571,-173.122 -6.281,-6.026 -15.278,-6.283 -19.431,-1.12 -1.755,2.182 -2.634,3.271 -4.389,5.453 -4.154,5.163 -2.859,13.029 2.346,18.025 38.251,40.083 52.558,89.115 41.919,143.484 z"
         transform="matrix(0.27767,0,0,0.27767,-265.9,-106.75)"
         inkscape:connector-curvature="0"
         style="fill:#603a17;stroke:#010101" />
    </g>
    <g
       id="ID0.1720329625532031"
       transform="translate(201,110)">
      <path
         id="ID0.45218329411000013"
         d="m 1063.666,443.944 c -4.171,-2.794 -5.594,-6.25 -6.093,-11.279 -0.499,-5.017 -0.911,-9.981 -1.62,-14.977 -1.083,-7.635 -6.496,-18.162 -16.141,-14.472 -7.94,3.035 -4.653,12.913 -2.807,18.865 0.174,0.561 0.571,1.998 0.791,2.754 -0.146,0.234 -0.302,1.991 -0.373,2.237 -0.292,1.041 -0.64,2.07 -1.092,3.053 -2.115,4.606 -7.604,0.61 -7.384,-3.366 0.327,-5.937 0.876,-10.154 -1.308,-15.906 -1.28,-3.373 -2.669,-7.219 -5.321,-9.793 -5.766,-5.603 -10.628,1.576 -11.784,6.837 -0.893,4.067 -1.018,8.951 -2.012,13.299 -10.911,-10.106 -14.036,-29.46 -29.312,-33.976 -6.651,-1.966 -15.03,-2.502 -19.206,4.115 -3.345,5.3 -1.055,12.818 1.053,18.104 2.365,5.926 5.52,11.594 9.39,16.669 5.877,7.702 14.617,13.428 22.787,18.433 20.789,12.742 45.348,20.671 69.645,22.5 2.084,0.158 3.482,-0.786 4.212,-2.147 0.798,-0.186 1.591,-0.607 2.323,-1.314 8.016,-7.761 1.438,-14.826 -5.748,-19.636 z"
         transform="matrix(0.27767,0,0,0.27767,-265.9,-106.75)"
         inkscape:connector-curvature="0"
         style="fill:#010101" />
      <path
         id="ID0.6435688906349242"
         d="m 1136.429,443.944 c 4.171,-2.794 5.596,-6.25 6.095,-11.279 0.499,-5.017 0.911,-9.981 1.621,-14.977 1.083,-7.635 6.492,-18.162 16.136,-14.472 7.941,3.035 4.653,12.913 2.807,18.865 -0.172,0.561 -0.57,1.998 -0.791,2.754 0.148,0.234 0.306,1.991 0.373,2.237 0.292,1.041 0.64,2.07 1.094,3.053 2.114,4.606 7.604,0.61 7.386,-3.366 -0.331,-5.937 -0.879,-10.154 1.308,-15.906 1.277,-3.373 2.666,-7.219 5.318,-9.793 5.768,-5.603 10.628,1.576 11.789,6.837 0.893,4.067 1.02,8.951 2.012,13.299 10.91,-10.106 14.033,-29.46 29.311,-33.976 6.647,-1.966 15.032,-2.502 19.203,4.115 3.348,5.3 1.055,12.818 -1.055,18.104 -2.363,5.926 -5.515,11.594 -9.39,16.669 -5.873,7.702 -14.617,13.428 -22.783,18.433 -20.789,12.742 -45.348,20.671 -69.643,22.5 -2.089,0.158 -3.482,-0.786 -4.213,-2.147 -0.802,-0.186 -1.59,-0.607 -2.321,-1.314 -8.019,-7.761 -1.442,-14.826 5.743,-19.636 z"
         transform="matrix(0.27767,0,0,0.27767,-265.9,-106.75)"
         inkscape:connector-curvature="0"
         style="fill:#010101" />
    </g>
    <path
       id="ID0.6784169343300164"
       d="m 1099.902,535.542 c 30.032,0 57.243,15.582 76.952,40.755 19.702,25.176 31.903,59.94 31.903,98.307 0,38.367 -12.2,73.132 -31.903,98.303 -19.709,25.175 -46.92,40.758 -76.952,40.758 -30.031,0 -57.246,-15.584 -76.952,-40.758 -19.704,-25.171 -31.903,-59.937 -31.903,-98.303 0,-38.367 12.199,-73.13 31.903,-98.307 19.706,-25.172 46.92,-40.755 76.952,-40.755 z"
       transform="matrix(0.27767,0,0,0.27767,-64.85,3.25)"
       inkscape:connector-curvature="0"
       style="fill:#764e2a;stroke:#000000" />
    <path
       id="ID0.4672161932103336"
       d="m 1029.613,735.023 c 0,21.369 4.799,41.163 12.965,57.376 16.764,13.47 36.601,21.267 57.869,21.267 21.268,0 41.103,-7.797 57.869,-21.267 8.167,-16.213 12.967,-36.007 12.967,-57.376 0,-54.942 -31.716,-99.482 -70.836,-99.482 -39.12,0 -70.834,44.539 -70.834,99.482 z"
       transform="matrix(0.27767,0,0,0.27767,-64.85,3.25)"
       inkscape:connector-curvature="0"
       style="fill:#c2b59c" />
    <path
       id="ID0.3050416838377714"
       d="m 1145.507,492.065 c 0.162,-2.145 0.25,-4.321 0.25,-6.524 0,-16.108 -4.417,-30.791 -11.673,-41.873 3.313,-0.798 6.753,-2.694 9.7,-5.599 6.58,-6.491 8.198,-15.519 3.615,-20.166 -4.583,-4.649 -13.635,-3.156 -20.212,3.334 -2.779,2.736 -4.656,5.923 -5.574,9.042 -6.32,-4.614 -13.519,-7.238 -21.165,-7.238 -8.015,0 -15.54,2.882 -22.071,7.918 -0.832,-3.334 -2.782,-6.788 -5.759,-9.723 -6.58,-6.491 -15.631,-7.984 -20.214,-3.334 -4.584,4.648 -2.965,13.676 3.617,20.166 3.232,3.188 7.062,5.163 10.662,5.803 -7.178,11.059 -11.548,25.658 -11.548,41.669 0,2.203 0.088,4.379 0.248,6.524 -9.362,7.716 -15.091,17.819 -15.091,28.904 0,12.074 6.74,23.015 17.631,30.935 10.889,7.922 25.929,12.825 42.526,12.825 16.597,0 31.635,-4.903 42.524,-12.825 10.889,-7.92 17.631,-18.862 17.631,-30.935 0,-11.085 -5.735,-21.186 -15.097,-28.903 z"
       transform="matrix(0.27767,0,0,0.27767,-64.85,3.25)"
       inkscape:connector-curvature="0"
       style="fill:#764e2a;stroke:#000000" />
    <path
       id="ID0.1214322866871953"
       d="m 1082.219,457.416 c 1.579,0 3.012,0.7 4.048,1.832 1.037,1.131 1.679,2.694 1.679,4.419 0,1.722 -0.642,3.287 -1.679,4.416 -1.036,1.134 -2.469,1.832 -4.048,1.832 -1.583,0 -3.014,-0.7 -4.052,-1.832 -1.036,-1.131 -1.678,-2.694 -1.678,-4.416 0,-1.725 0.642,-3.288 1.678,-4.419 1.037,-1.132 2.469,-1.832 4.052,-1.832 z"
       transform="matrix(0.27767,0,0,0.27767,-64.85,3.25)"
       inkscape:connector-curvature="0"
       style="fill:#010101" />
    <path
       id="ID0.11229029856622219"
       d="m 1121.282,457.416 c 1.579,0 3.014,0.7 4.048,1.832 1.041,1.131 1.681,2.694 1.681,4.419 0,1.722 -0.64,3.287 -1.681,4.416 -1.034,1.134 -2.469,1.832 -4.048,1.832 -1.579,0 -3.014,-0.7 -4.048,-1.832 -1.041,-1.131 -1.681,-2.694 -1.681,-4.416 0,-1.725 0.64,-3.288 1.681,-4.419 1.034,-1.132 2.469,-1.832 4.048,-1.832 z"
       transform="matrix(0.27767,0,0,0.27767,-64.85,3.25)"
       inkscape:connector-curvature="0"
       style="fill:#010101" />
    <path
       id="ID0.12470964528620243"
       d="m 1100.447,513.598 c -25.176,0 -45.585,15.42 -45.585,34.444 0,0.499 0.023,0.994 0.049,1.488 11.031,9.292 27.334,15.179 45.536,15.179 18.204,0 34.505,-5.889 45.538,-15.179 0.028,-0.494 0.049,-0.988 0.049,-1.488 0,-19.024 -20.409,-34.444 -45.587,-34.444 z"
       transform="matrix(0.27767,0,0,0.27767,-64.85,3.25)"
       inkscape:connector-curvature="0"
       style="fill:#c2b59c" />
    <path
       id="ID0.37403157306835055"
       d="m 1100.447,490.75 c 3.739,0 7.129,1.692 9.584,4.426 2.455,2.734 3.971,6.51 3.971,10.678 0,4.168 -1.516,7.943 -3.971,10.678 -2.455,2.736 -5.845,4.426 -9.584,4.426 -3.739,0 -7.127,-1.692 -9.582,-4.426 -2.453,-2.734 -3.972,-6.51 -3.972,-10.678 0,-4.168 1.519,-7.943 3.972,-10.678 2.455,-2.734 5.843,-4.426 9.582,-4.426 z"
       transform="matrix(0.27767,0,0,0.27767,-64.85,3.25)"
       inkscape:connector-curvature="0"
       style="fill:#ec2227;stroke:#ed1c24" />
    <path
       id="ID0.9377652462571859"
       d="m 1128.857,539.719 c 0,9.406 -12.721,17.028 -28.41,17.028 -15.691,0 -28.41,-7.621 -28.41,-17.028 0,-9.407 12.719,-8.035 28.41,-8.035 15.689,0 28.41,-1.371 28.41,8.035 z"
       transform="matrix(0.27767,0,0,0.27767,-64.85,3.25)"
       inkscape:connector-curvature="0"
       style="fill:#ffffff;stroke:#010101" />
  </g>
</svg>
