<?xml version="1.0" encoding="UTF-8" standalone="no"?>
<svg
   version="1.1"
   id="robot1"
   x="0px"
   y="0px"
   width="136.9803"
   height="133.75566"
   viewBox="0 0 136.9803 133.75566"
   enable-background="new 0 0 150 150"
   xml:space="preserve"
   sodipodi:docname="robot1.svg"
   xmlns:inkscape="http://www.inkscape.org/namespaces/inkscape"
   xmlns:sodipodi="http://sodipodi.sourceforge.net/DTD/sodipodi-0.dtd"
   xmlns="http://www.w3.org/2000/svg"
   xmlns:svg="http://www.w3.org/2000/svg"><defs
   id="defs97" /><sodipodi:namedview
   id="namedview95"
   pagecolor="#ffffff"
   bordercolor="#000000"
   borderopacity="0.25"
   inkscape:showpageshadow="2"
   inkscape:pageopacity="0.0"
   inkscape:pagecheckerboard="0"
   inkscape:deskcolor="#d1d1d1" />
  <g
   id="g92"
   transform="translate(-3.0224311,-0.00232251)">
    <g
   id="Back_Arm">
      <path
   id="Arm"
   fill="#ff8e09"
   d="m 74.384,40.51 c 0,0 20.351,19.674 33.847,15.806 13.496,-3.867 14.055,-10.469 14.055,-10.469 l 2.343,1.621 c 0,0 -4.813,14.11 -20.485,14.598 C 88.473,62.554 77.18,49.333 77.18,49.333 Z" />
      <path
   id="Claw"
   fill="#8db61e"
   d="m 125.93,44.92 c -2.891,-1.141 -6.365,-2.504 -6.867,-5.008 -0.437,-2.18 1.521,-2.667 4.348,-2.793 0.475,-1.252 2.755,-6.058 2.755,-6.058 0,0 -8.837,0.778 -11.41,5.216 -2.171,3.745 1.957,8.41 9.462,11.115 7.163,2.581 12.627,3.342 15.061,-0.905 2.435,-4.247 -2.055,-10.383 -2.055,-10.383 l -6.563,3.139 c 0,0 3.96,4.014 2.84,5.752 -1.123,1.739 -4.678,1.065 -7.571,-0.075 z" />
    </g>
    <g
   id="Smoke">
      <path
   id="Light"
   fill="#b1dcee"
   d="m 33.523,126.229 c 0.64,-1.91 1.776,-3.391 -0.142,-5.054 -1.173,-1.017 -3.659,-1.11 -4.547,0.123 -0.426,-1.85 -2.344,-2.312 -3.835,-0.862 -0.285,-4.438 -7.885,-4.314 -9.377,-0.371 1.281,-5.873 -10.573,-5.562 -11.525,-0.364 0.283,-0.075 0.572,-0.126 0.869,-0.13 2.208,-0.03 3.765,1.234 3.264,3.187 0.714,-3.063 7.889,-4.541 9.736,-0.043 2.1,-3.665 9.732,-1.664 7.459,2.157 2.842,-1.85 7.388,-0.309 5.762,2.303 3.556,-0.25 5.955,1.169 5.249,3.799 -0.019,0.069 -0.044,0.133 -0.064,0.201 0.045,-0.007 0.088,-0.007 0.134,-0.015 2.06,-0.372 1.776,-5.795 -2.983,-4.931 z" />
      <path
   id="Dark"
   fill="#91bcce"
   d="m 31.187,127.174 c 1.626,-2.611 -2.92,-4.152 -5.762,-2.303 2.273,-3.821 -5.359,-5.822 -7.459,-2.157 -1.847,-4.498 -9.022,-3.021 -9.736,0.043 0.501,-1.952 -1.056,-3.217 -3.264,-3.187 -0.297,0.004 -0.586,0.055 -0.869,0.13 -0.157,0.855 -0.029,1.839 0.514,2.954 -3.836,2.957 0.071,6.84 3.338,4.807 -1.918,4.868 6.891,6.161 8.524,2.341 -0.213,2.527 6.891,4.745 8.383,0.863 2.273,1.851 6.073,0.431 6.536,-1.603 0.974,1.689 2.868,2.427 4.98,2.111 0.02,-0.068 0.045,-0.132 0.064,-0.201 0.706,-2.629 -1.693,-4.048 -5.249,-3.798 z" />
    </g>
    <g
   id="Wheel">
      <g
   id="Wheel_1_">
        <path
   id="Outer_Ring"
   fill="#004d91"
   d="m 50.396,119.259 c -3.531,-1.56 -8.226,0.296 -10.489,4.146 -2.261,3.853 -1.233,8.239 2.297,9.8 3.531,1.561 8.227,-0.296 10.489,-4.146 2.262,-3.853 1.234,-8.239 -2.297,-9.8 z m -0.523,8.748 c -0.934,1.59 -2.642,2.617 -4.351,2.617 -0.548,0 -1.068,-0.107 -1.544,-0.317 -0.889,-0.394 -1.543,-1.122 -1.842,-2.052 -0.356,-1.107 -0.177,-2.396 0.492,-3.534 0.934,-1.59 2.642,-2.617 4.352,-2.617 0.548,0 1.068,0.107 1.544,0.317 0.888,0.393 1.542,1.12 1.842,2.049 0.356,1.107 0.176,2.396 -0.493,3.537 z" />
        <path
   id="Inner_Ring"
   fill="#004d91"
   d="m 48.254,123.028 c -0.392,-0.173 -0.821,-0.261 -1.276,-0.261 -1.479,0 -2.963,0.898 -3.779,2.289 -0.573,0.977 -0.73,2.067 -0.432,2.994 0.241,0.748 0.766,1.333 1.479,1.648 0.391,0.173 0.82,0.261 1.276,0.261 1.479,0 2.962,-0.898 3.779,-2.289 0.574,-0.978 0.731,-2.069 0.432,-2.997 -0.241,-0.746 -0.766,-1.33 -1.479,-1.645 z" />
        <path
   id="White_Ring"
   fill="#ffffff"
   d="m 48.522,122.421 c -0.476,-0.21 -0.996,-0.317 -1.544,-0.317 -1.71,0 -3.418,1.027 -4.352,2.617 -0.669,1.139 -0.848,2.427 -0.492,3.534 0.299,0.93 0.954,1.658 1.842,2.052 0.477,0.21 0.996,0.317 1.544,0.317 1.709,0 3.417,-1.027 4.351,-2.617 0.669,-1.141 0.849,-2.43 0.491,-3.537 -0.298,-0.929 -0.951,-1.657 -1.84,-2.049 z m 0.779,5.25 c -0.816,1.391 -2.3,2.289 -3.779,2.289 -0.456,0 -0.885,-0.088 -1.276,-0.261 -0.713,-0.315 -1.238,-0.9 -1.479,-1.648 -0.298,-0.927 -0.141,-2.018 0.432,-2.994 0.816,-1.391 2.3,-2.289 3.779,-2.289 0.455,0 0.884,0.088 1.276,0.261 0.712,0.314 1.237,0.898 1.479,1.646 0.299,0.927 0.142,2.018 -0.432,2.996 z" />
        <path
   id="Center"
   fill="#272525"
   d="m 44.511,125.579 c 0.616,-1.05 1.896,-1.556 2.857,-1.13 0.962,0.426 1.242,1.621 0.626,2.67 -0.616,1.05 -1.896,1.556 -2.857,1.131 -0.962,-0.426 -1.242,-1.621 -0.626,-2.671 z" />
      </g>
      <path
   id="Stand"
   fill="#ff8e09"
   d="m 62.365,89.993 c 0,0 13.214,16.885 -16.542,36.241 34.729,-9.866 27.908,-35.379 24.782,-37.228 -1.563,0.249 -8.24,0.987 -8.24,0.987 z" />
    </g>
    <g
   id="Body">
      <g
   id="Lower_Body">
        <path
   id="Inside"
   fill="#6c1158"
   d="m 31.802,67.766 v 0 c 3.244,3.553 12.003,9.139 35.557,9.139 23.674,0 32.227,-5.375 35.292,-8.851 h -0.003 c 0,0 1.206,-1.933 0.805,-2.787 -4.482,-12.061 -68.007,-12.056 -72.436,0.016 -0.271,1.08 0.785,2.483 0.785,2.483 z" />
        <path
   id="Inside_Fill"
   fill="#341144"
   d="m 32.326,68.016 c 0,-13.191 69.296,-13.191 69.296,0 0,13.191 -15.513,23.884 -34.648,23.884 -19.136,0 -34.648,-10.693 -34.648,-23.884 z" />
        <g
   id="Insides">
          <polygon
   id="Wire4"
   fill="#0676b4"
   points="76.714,77.055 79.13,75.45 77.283,74.589 80.125,73.479 77.143,71.63 80.408,70.397 76.855,68.918 80.408,66.946 77.143,65.962 55.403,65.962 51.993,67.81 54.835,69.535 52.42,71.138 54.267,72 51.425,73.109 54.408,74.958 51.141,76.189 54.692,77.669 51.141,79.641 54.408,80.628 76.146,80.628 79.557,78.777 " />
          <path
   id="Wire3"
   fill="#dc0067"
   d="m 82.391,80.582 c -3.276,-2.303 -3.027,-4.457 -2.769,-5.277 0.503,-1.591 2.247,-2.579 4.552,-2.579 0.388,0 0.82,0.046 1.278,0.094 2.105,0.223 3.522,0.245 4.016,-1.413 0.097,-0.328 0.027,-0.498 -0.054,-0.62 -0.143,-0.216 -0.43,-0.418 -0.812,-0.585 -0.024,0.074 -0.05,0.149 -0.077,0.226 -0.39,1.088 -1.621,1.698 -2.668,1.82 -1.049,0.12 -1.916,-0.219 -2.38,-0.935 -0.392,-0.608 -0.392,-1.313 -0.004,-1.938 0.518,-0.833 1.652,-1.378 2.711,-1.541 -0.192,-0.08 -0.41,-0.156 -0.633,-0.233 -1.127,-0.391 -2.829,-0.981 -2.875,-3.158 l 2,-0.042 c 0.015,0.693 0.32,0.891 1.529,1.311 0.857,0.297 1.925,0.667 2.425,1.712 0.109,0.228 0.184,0.474 0.223,0.738 0.827,0.274 1.709,0.738 2.229,1.523 0.444,0.671 0.549,1.464 0.303,2.293 -1.005,3.375 -4.346,3.021 -6.143,2.832 -0.397,-0.042 -0.763,-0.083 -1.068,-0.083 -1.38,0 -2.418,0.464 -2.645,1.182 -0.203,0.643 0.219,1.777 2.012,3.037 z m 2.937,-10.315 c 0.129,0.014 0.331,0.009 0.584,-0.062 0.394,-0.111 0.64,-0.309 0.712,-0.416 -0.507,0.044 -1.032,0.274 -1.296,0.478 z" />
          <path
   id="Wire2"
   fill="#dc0067"
   d="m 42.434,79.479 c -0.51,-1.824 0.376,-3.465 2.636,-4.877 l 0.208,-0.127 c 0.771,-0.471 1.027,-0.672 1.027,-0.934 0,-0.248 -0.12,-0.405 -0.49,-0.825 -0.206,-0.233 -0.421,-0.48 -0.618,-0.772 -1.006,-1.462 -0.703,-2.605 -0.432,-3.155 0.551,-1.121 1.897,-1.819 3.694,-1.917 2.438,-0.132 2.462,-0.975 2.532,-3.477 l 0.003,-0.113 1.999,0.057 -0.003,0.112 c -0.068,2.431 -0.145,5.186 -4.423,5.418 -1.223,0.066 -1.846,0.473 -2.007,0.802 -0.181,0.368 0.104,0.876 0.291,1.146 0.151,0.223 0.313,0.403 0.464,0.575 0.442,0.5 0.991,1.123 0.991,2.148 0,1.428 -1.101,2.101 -1.984,2.641 L 46.127,76.3 c -2.132,1.332 -1.866,2.282 -1.766,2.64 z" />
          <path
   id="Wire1"
   fill="#fff100"
   d="m 84.46,79.626 -1.283,-0.34 C 83.842,76.778 83.418,75.155 81.803,74.021 80.741,73.273 79.807,72.959 78.727,72.594 77.992,72.346 77.232,72.09 76.359,71.675 73.172,70.162 71.203,68.296 70.506,66.128 70,64.555 70.201,62.873 71.089,61.265 l 1.162,0.642 c -0.717,1.298 -0.879,2.581 -0.482,3.814 0.581,1.805 2.316,3.405 5.159,4.754 0.803,0.381 1.524,0.625 2.224,0.861 1.129,0.381 2.195,0.741 3.414,1.599 2.08,1.46 2.701,3.649 1.894,6.691 z" />
        </g>
        <path
   id="Edge"
   fill="#8db61e"
   d="m 103.452,65.268 c 0.401,0.854 -0.805,2.787 -0.805,2.787 h 0.003 c -3.064,3.476 -11.617,8.851 -35.292,8.851 -23.554,0 -32.313,-5.586 -35.557,-9.138 v -0.001 c 0,0 -1.056,-1.402 -0.785,-2.482 -0.16,0.437 -0.25,0.887 -0.25,1.355 0,0.76 0.058,1.51 0.153,2.253 0.172,0.285 0.36,0.569 0.579,0.85 l 0.008,0.016 v -0.004 c 3.943,5.036 15.377,9.349 35.73,9.349 22.139,0 33.542,-5.023 36.359,-10.589 0.066,-0.62 0.111,-1.244 0.111,-1.875 0.003,-0.475 -0.09,-0.931 -0.254,-1.372 z" />
        <path
   id="Bottom"
   fill="#6c1158"
   d="m 98.477,76.273 c 0,-0.948 0.717,-1.716 1.603,-1.716 0.574,0 1.073,0.326 1.356,0.811 1.16,-2.161 1.905,-4.46 2.162,-6.854 -2.817,5.566 -14.22,10.589 -36.359,10.589 -20.353,0 -31.788,-4.313 -35.73,-9.349 v 0.004 L 31.5,69.743 c -0.219,-0.281 -0.407,-0.565 -0.579,-0.85 0.282,2.185 0.977,4.287 2.017,6.275 0.294,-0.371 0.727,-0.61 1.216,-0.61 0.885,0 1.603,0.769 1.603,1.716 0,0.769 -0.474,1.412 -1.124,1.631 5.991,8.229 18.338,13.877 32.605,13.878 14.233,0 26.547,-5.625 32.553,-13.822 -0.747,-0.147 -1.314,-0.844 -1.314,-1.688 z" />
        <g
   id="Bolts">
          <ellipse
   fill="#8b8da8"
   cx="67.115997"
   cy="82.498001"
   rx="1.979"
   ry="1.716"
   id="ellipse24" />
          <ellipse
   fill="#8b8da8"
   cx="79.619003"
   cy="82.004997"
   rx="1.979"
   ry="1.716"
   id="ellipse26" />
          <ellipse
   fill="#8b8da8"
   cx="90.417"
   cy="80.218002"
   rx="1.781"
   ry="1.717"
   id="ellipse28" />
          <path
   fill="#8b8da8"
   d="m 100.079,74.557 c -0.886,0 -1.603,0.769 -1.603,1.716 0,0.844 0.567,1.541 1.314,1.687 0.615,-0.839 1.167,-1.702 1.645,-2.592 -0.283,-0.485 -0.782,-0.811 -1.356,-0.811 z"
   id="path30" />
          <path
   fill="#8b8da8"
   d="m 35.757,76.273 c 0,-0.948 -0.718,-1.716 -1.603,-1.716 -0.489,0 -0.922,0.24 -1.216,0.61 0.491,0.938 1.053,1.854 1.695,2.737 0.65,-0.218 1.124,-0.862 1.124,-1.631 z"
   id="path32" />
          <ellipse
   fill="#8b8da8"
   cx="43.814999"
   cy="80.218002"
   rx="1.781"
   ry="1.717"
   id="ellipse34" />
          <ellipse
   fill="#8b8da8"
   cx="54.613998"
   cy="82.004997"
   rx="1.979"
   ry="1.716"
   id="ellipse36" />
        </g>
      </g>
      <g
   id="Upper_Body">
        <path
   fill="#6c1158"
   d="m 105.798,54.077 c -0.069,-1.117 -0.241,-2.215 -0.504,-3.293 -3.068,-12.586 -18.939,-22.178 -38.07,-22.178 -19.133,0 -35.006,9.593 -38.073,22.182 -0.261,1.071 -0.432,2.164 -0.502,3.274 -0.024,0.387 -0.042,0.775 -0.042,1.166 0,14.702 77.233,14.702 77.233,0 0,-0.387 -0.019,-0.77 -0.042,-1.151 z"
   id="path40" />
        <path
   fill="#8db61e"
   d="m 25.815,55.454 c 0.022,-1.798 2.078,-2.727 2.948,-2.665 -0.125,0.909 0.018,2.049 0.071,2.942 0.183,3.061 12.547,8.628 38.377,8.628 25.455,0 37.6,-6.116 38.344,-8.134 0.353,-0.948 0.269,-2.172 0.17,-3.097 0.832,-0.059 2.842,0.815 2.959,2.48 0,0 -0.014,0.534 -0.055,0.674 -1.148,7.312 -21.753,11.774 -41.434,11.772 -20.268,0 -41.473,-4.883 -41.38,-12.6 z"
   id="path42" />
        <ellipse
   fill="#8b8da8"
   cx="67.115997"
   cy="61.176998"
   rx="1.979"
   ry="1.716"
   id="ellipse44" />
        <path
   fill="#8b8da8"
   d="m 27.685,52.489 c 0,0.704 0.397,1.308 0.964,1.572 0.07,-1.11 0.241,-2.203 0.502,-3.274 -0.82,0.076 -1.466,0.804 -1.466,1.702 z"
   id="path46" />
        <path
   fill="#8b8da8"
   d="m 106.797,52.489 c 0,-0.911 -0.665,-1.649 -1.503,-1.706 0.263,1.078 0.435,2.176 0.504,3.293 0.586,-0.255 0.999,-0.868 0.999,-1.587 z"
   id="path48" />
        <ellipse
   fill="#8b8da8"
   cx="79.619003"
   cy="60.685001"
   rx="1.979"
   ry="1.716"
   id="ellipse50" />
        <ellipse
   fill="#8b8da8"
   cx="90.417"
   cy="58.896999"
   rx="1.781"
   ry="1.717"
   id="ellipse52" />
        <ellipse
   fill="#8b8da8"
   cx="100.079"
   cy="56.432999"
   rx="1.603"
   ry="1.717"
   id="ellipse54" />
        <ellipse
   fill="#8b8da8"
   cx="34.153999"
   cy="56.432999"
   rx="1.603"
   ry="1.717"
   id="ellipse56" />
        <ellipse
   fill="#8b8da8"
   cx="43.814999"
   cy="58.896999"
   rx="1.781"
   ry="1.717"
   id="ellipse58" />
        <ellipse
   fill="#8b8da8"
   cx="54.613998"
   cy="60.685001"
   rx="1.979"
   ry="1.716"
   id="ellipse60" />
      </g>
    </g>
    <g
   id="Front_Arm">
      <path
   fill="#ff8e09"
   d="m 52.703,44.763 c 0,0 -29.703,5.901 -32.346,18.016 -2.644,12.115 3.743,15.739 3.743,15.739 l -2.771,0.992 c 0,0 -11.893,-10.494 -4.788,-22.621 7.104,-12.126 25.911,-14.283 25.911,-14.283 z"
   id="path64" />
      <path
   fill="#8db61e"
   d="m 41.455,38.655 c 3.637,-1.749 8.375,-0.368 10.581,3.085 2.207,3.453 1.046,7.669 -2.591,9.418 -3.638,1.75 -11.628,-10.755 -7.99,-12.503 z"
   id="path66" />
      <path
   fill="#8db61e"
   d="m 23.847,81.477 c 3.029,-0.83 8.267,-2.731 8.967,-0.265 0.701,2.468 -4.146,3.797 -4.146,3.797 l 2.626,6.101 c 0,0 9.036,-4.905 7.524,-9.696 -1.275,-4.043 -7.942,-5.114 -15.606,-2.769 -7.313,2.239 -11.96,4.846 -10.493,9.414 1.467,4.568 13.189,4.184 13.189,4.184 l -0.462,-6.926 c 0,0 -6.774,2.438 -7.283,0.496 -0.507,-1.942 2.656,-3.504 5.684,-4.336 z"
   id="path68" />
    </g>
    <g
   id="Head_1_">
      <path
   fill="#e9538d"
   d="m 72.436,24.308 c -2.09,-2.072 -4.737,-2.651 -7.934,-3.105 l -0.858,3.226 c 2.243,0.35 5.452,0.22 8.792,-0.121 z"
   id="path71" />
      <path
   id="Fin"
   fill="#8db61e"
   d="M 64.241,0.9 C 52.498,-2.438 36.335,4.455 36.933,6.558 37.608,8.954 43.571,14.265 50.379,17.357 51.297,10.428 54.524,2.457 64.241,0.9 Z" />
      <g
   id="Head_2_">
        <path
   id="Head"
   fill="#6c1158"
   d="m 72.436,24.308 c -3.339,0.341 -6.548,0.471 -8.792,0.121 l 0.858,-3.226 0.847,-3.183 18.875,0.723 C 83.525,11.034 80.398,1.163 69.044,0.641 67.281,0.56 65.697,0.667 64.241,0.9 54.524,2.457 51.297,10.428 50.379,17.357 c -0.762,5.749 0.052,10.768 0.052,10.768 v 0.002 h 35.377 c 0,0 1.672,-3.53 1.703,-6.286 0.001,0 -7.844,1.729 -15.075,2.467 z" />
        <rect
   id="Neck"
   x="45.883999"
   y="27.754999"
   fill="#8db61e"
   width="44.187"
   height="3.451" />
      </g>
      <g
   id="L_Eye">
        <polygon
   fill="#ffffff"
   points="78.917,12.103 78.064,5.633 69.823,9.453 71.458,14.075 "
   id="polygon77" />
        <path
   fill="#ff8e09"
   d="m 79.2,2.429 -11.862,6.224 2.841,7.394 10.94,-3.204 z m -7.742,11.646 -1.635,-4.622 8.241,-3.82 0.853,6.47 z"
   id="path79" />
        <polygon
   fill="#6c1158"
   points="79.77,10.809 75.648,10.809 75.648,8.098 79.77,8.098 "
   id="polygon81" />
      </g>
      <g
   id="R_Eye">
        <path
   fill="#ff8e09"
   d="m 85.809,3.846 -6.182,2.342 2.984,8.811 4.617,-2.28 z m -3.056,9.367 -2.201,-5.546 3.906,-1.665 0.994,5.855 z"
   id="path84" />
        <polygon
   fill="#ffffff"
   points="85.452,11.857 84.458,6.002 80.552,7.667 82.753,13.213 "
   id="polygon86" />
        <polygon
   fill="#6c1158"
   points="86.093,10.625 83.464,10.625 83.464,8.591 86.093,8.591 "
   id="polygon88" />
      </g>
    </g>
  </g>
</svg>
