<?xml version="1.0" encoding="UTF-8" standalone="no"?>
<svg
   version="1.1"
   width="123.9372"
   height="76.635674"
   viewBox="-1 -1 123.9372 76.635674"
   id="svg18"
   sodipodi:docname="rocks.svg"
   xmlns:inkscape="http://www.inkscape.org/namespaces/inkscape"
   xmlns:sodipodi="http://sodipodi.sourceforge.net/DTD/sodipodi-0.dtd"
   xmlns="http://www.w3.org/2000/svg"
   xmlns:svg="http://www.w3.org/2000/svg">
  <defs
     id="defs22" />
  <sodipodi:namedview
     id="namedview20"
     pagecolor="#ffffff"
     bordercolor="#000000"
     borderopacity="0.25"
     inkscape:showpageshadow="2"
     inkscape:pageopacity="0.0"
     inkscape:pagecheckerboard="0"
     inkscape:deskcolor="#d1d1d1" />
  <!-- Exported by Scratch - http://scratch.mit.edu/ -->
  <g
     id="ID0.9941649297252297"
     transform="translate(-1.1506762,-1.15)">
    <g
       id="Large_Rock">
      <g
         id="Rock_1_">
        <path
           id="ID0.9607255985029042"
           fill="#91b6c5"
           d="m 152.494,98.805 c -8.763,0 -19.755,-0.125 -30.386,-0.245 -8.701,-0.099 -16.921,-0.192 -22.959,-0.204 -0.845,0.032 -2.007,0.048 -3.384,0.048 -15.021,0 -56.166,-1.854 -56.58,-1.873 -2.039,0.011 -4.639,0.229 -7.391,0.461 -3.313,0.278 -7.069,0.595 -10.669,0.595 -7.385,0 -17.444,-1.149 -19.524,-11.089 -0.479,-2.29 0.768,-5.81 2.211,-9.885 1.079,-3.045 2.194,-6.193 2.234,-8.112 0.038,-1.784 -0.183,-3.939 -0.417,-6.22 -0.571,-5.564 -1.218,-11.871 1.621,-16 3.063,-4.458 8.393,-7.6 13.095,-10.372 3.421,-2.017 6.652,-3.922 8.294,-5.92 1.724,-2.098 3.128,-4.403 4.486,-6.633 2.948,-4.84 5.732,-9.412 11.272,-11.301 2.137,-0.729 4.229,-1.083 6.393,-1.083 3,0 5.787,0.676 8.737,1.391 3.573,0.866 7.269,1.762 12.135,1.762 2.12,0 4.25,-0.169 6.511,-0.518 9.139,-1.408 12.026,-3.476 15.083,-5.666 3.2,-2.292 6.509,-4.663 16.444,-6.01 2.111,-0.287 4.199,-0.432 6.206,-0.432 19.312,0 33.106,13.691 35.145,34.88 0.827,8.609 7.321,11.466 14.84,14.773 5.772,2.539 11.741,5.165 15.587,10.706 5.748,8.284 4.033,15.622 1.583,20.319 -4.932,9.45 -17.251,16.598 -28.657,16.624 z"
           transform="matrix(0.66342044,0,0,0.66342044,0.15,0.15)" />
        <path
           id="ID0.9454199550673366"
           d="m 115.909,3 c 20.367,0 31.894,15.249 33.651,33.523 1.582,16.457 22.18,13.932 30.688,26.191 12.154,17.516 -9.182,34.549 -25.846,34.588 -0.622,0.002 -1.258,0.002 -1.907,0.002 -16.015,0 -40.009,-0.423 -53.343,-0.449 -0.889,0.032 -2.032,0.048 -3.387,0.048 -15.161,0 -56.512,-1.871 -56.512,-1.871 -4.775,0.021 -11.637,1.054 -18.128,1.054 C 12.629,96.086 4.77,94.315 3.069,86.19 2.332,82.66 7.449,73.148 7.547,68.531 7.68,62.302 4.871,52.388 8.486,47.131 c 5.09,-7.405 17.15,-11.125 21.312,-16.189 5.459,-6.643 7.604,-14.917 15.084,-17.467 2.123,-0.724 4.052,-1.002 5.909,-1.002 6.245,0 11.67,3.153 20.873,3.153 2.043,0 4.274,-0.156 6.74,-0.536 C 97.515,12.147 90.9,5.996 109.904,3.418 111.985,3.136 113.985,3 115.909,3 m 0,-3 c -2.074,0 -4.229,0.15 -6.408,0.445 -10.303,1.398 -13.766,3.878 -17.115,6.277 -2.907,2.083 -5.654,4.05 -14.438,5.403 -2.186,0.337 -4.241,0.5 -6.283,0.5 -4.688,0 -8.294,-0.875 -11.782,-1.72 -3.04,-0.737 -5.911,-1.433 -9.09,-1.433 -2.332,0 -4.582,0.38 -6.877,1.163 -6.055,2.064 -9.113,7.084 -12.07,11.94 -1.331,2.186 -2.708,4.445 -4.364,6.461 -1.474,1.793 -4.594,3.632 -7.897,5.58 C 14.748,37.468 9.266,40.7 6.014,45.432 2.863,50.014 3.54,56.612 4.138,62.433 4.367,64.667 4.584,66.777 4.548,68.467 4.513,70.146 3.39,73.316 2.4,76.112 0.881,80.4 -0.43,84.103 0.135,86.804 c 2.57,12.282 16.435,12.282 20.991,12.282 3.663,0 7.452,-0.318 10.794,-0.6 2.69,-0.227 5.232,-0.44 7.274,-0.454 2.011,0.091 41.824,1.871 56.571,1.871 1.394,0 2.55,-0.017 3.438,-0.048 6.026,0.013 14.218,0.105 22.89,0.204 10.635,0.12 21.632,0.245 30.402,0.245 l 1.914,-0.002 c 11.924,-0.028 24.813,-7.521 29.983,-17.43 3.735,-7.158 3.139,-14.925 -1.68,-21.868 -4.087,-5.89 -10.53,-8.724 -16.215,-11.225 C 158.308,46.177 153.253,43.595 152.546,36.235 151.57,26.097 147.894,17.325 141.913,10.869 135.327,3.759 126.335,0 115.909,0 v 0 3 z"
           transform="matrix(0.66342044,0,0,0.66342044,0.15,0.15)" />
      </g>
      <path
         id="Line_6_"
         fill="#231f20"
         d="m 46.916,36.619 c 2.291,0.538 3.254,-2.912 0.975,-3.525 C 34.77,29.56 26.139,40.399 16.857,47.81 c -0.748,0.597 0.207,1.528 0.938,1.215 4.496,-1.933 8.16,-5.778 12.08,-8.626 5.328,-3.873 10.555,-5.307 17.041,-3.78 z"
         transform="matrix(0.66342044,0,0,0.66342044,0.15,0.15)" />
      <path
         id="Line_5_"
         fill="#231f20"
         d="m 27.402,46.312 c 4.232,-0.373 7.877,-1.57 11.832,-3.092 5.498,-2.113 10.654,-2.168 16.234,-0.295 2,0.672 2.842,-2.467 0.865,-3.142 -10.82,-3.696 -18.865,3.173 -29.055,5.63 -0.491,0.121 -0.395,0.945 0.124,0.899 z"
         transform="matrix(0.66342044,0,0,0.66342044,0.15,0.15)" />
      <path
         id="Line_4_"
         fill="#231f20"
         d="m 135.24,69.192 c -0.916,0.797 0.412,2.104 1.326,1.326 6,-5.113 11.49,-11.761 10.52,-20.101 -0.484,-4.191 -4.646,-6.457 -5.164,-10.463 -0.297,-2.309 0.158,-6.344 -1.266,-8.334 -0.619,-0.867 -1.916,-1.004 -2.51,0 -1.926,3.27 0.117,10.719 2.256,13.491 1.566,2.033 3.311,2.927 4.234,5.638 1.004,2.94 0.467,6.159 -0.725,8.938 -1.64,3.835 -5.595,6.832 -8.671,9.505 z"
         transform="matrix(0.66342044,0,0,0.66342044,0.15,0.15)" />
      <path
         id="Line_3_"
         fill="#231f20"
         d="m 132.049,76.887 c 5.447,-1.555 9.842,-4.557 14.02,-8.381 2.836,-2.594 6.49,-7.86 4.377,-11.76 -0.496,-0.912 -1.959,-0.715 -2.207,0.287 -0.342,1.391 -0.162,2.705 -0.209,4.131 -0.086,2.664 -2.074,5.194 -3.752,7.064 -3.172,3.531 -8.467,5.611 -12.652,7.648 -0.571,0.281 -0.167,1.179 0.423,1.011 z"
         transform="matrix(0.66342044,0,0,0.66342044,0.15,0.15)" />
      <path
         id="Line_2_"
         fill="#231f20"
         d="m 109.152,10.156 c 1.209,-0.056 1.174,-1.738 0,-1.852 -4.049,-0.389 -7.363,1.845 -10.566,4.068 -4.721,3.273 -9.676,6.73 -15.199,8.539 -0.086,0.027 -0.055,0.156 0.035,0.135 4.391,-1.051 7.998,-2.317 11.887,-4.666 4.709,-2.841 8.046,-5.956 13.843,-6.224 z"
         transform="matrix(0.66342044,0,0,0.66342044,0.15,0.15)" />
    </g>
    <g
       id="Small_Rock">
      <g
         id="Rock">
        <path
           id="ID0.07369212992489338"
           fill="#5f8ba5"
           d="m 80.466,114.016 c -0.476,0 -0.941,-0.013 -1.396,-0.037 -3.279,-0.181 -6.516,-1.377 -9.646,-2.533 -3.456,-1.278 -7.03,-2.599 -10.716,-2.599 -0.168,0 -0.337,0.002 -0.506,0.008 -2.043,0.067 -4.34,0.52 -6.562,0.957 -2.505,0.494 -5.096,1.005 -7.48,1.005 -4.037,0 -6.839,-1.507 -8.567,-4.605 -3.353,-6.013 -0.636,-8.48 4.297,-12.961 1.515,-1.376 3.232,-2.936 5.201,-4.938 0.442,-0.449 1.083,-1.742 1.763,-3.112 2.618,-5.278 7.491,-15.104 19.684,-15.104 9.384,0 17.104,7.857 22.213,13.057 1.172,1.192 2.185,2.223 3.015,2.949 4.629,4.05 11.17,15.971 7.611,20.996 -3.065,4.329 -12.023,6.917 -18.911,6.917 z"
           transform="matrix(0.66342044,0,0,0.66342044,0.15,0.15)" />
        <path
           id="ID0.917163701262325"
           d="m 66.537,71.596 c 10.865,0 19.746,11.703 24.24,15.635 4.494,3.932 10.234,14.963 7.375,19 -2.676,3.78 -11.101,6.285 -17.687,6.285 -0.447,0 -0.886,-0.012 -1.313,-0.035 -6.564,-0.36 -13.052,-5.134 -20.445,-5.134 -0.185,0 -0.37,0.003 -0.555,0.009 -4.49,0.147 -9.673,1.961 -13.993,1.961 -3.016,0 -5.611,-0.884 -7.257,-3.836 -3.625,-6.5 0.754,-7.469 9.258,-16.117 2.647,-2.69 5.742,-17.768 20.377,-17.768 m 0,-3 c -13.123,0 -18.265,10.367 -21.027,15.938 -0.53,1.068 -1.19,2.398 -1.494,2.732 -1.934,1.967 -3.634,3.511 -5.135,4.874 -4.953,4.499 -8.532,7.749 -4.599,14.802 1.989,3.566 5.312,5.375 9.877,5.375 2.53,0 5.194,-0.525 7.77,-1.033 2.263,-0.445 4.399,-0.866 6.321,-0.93 0.153,-0.005 0.305,-0.007 0.457,-0.007 3.418,0 6.71,1.217 10.196,2.505 3.235,1.196 6.58,2.432 10.084,2.624 0.478,0.026 0.975,0.04 1.478,0.04 7.17,0 16.664,-2.646 20.135,-7.552 4.388,-6.194 -3.297,-19.01 -7.848,-22.991 -0.787,-0.689 -1.781,-1.7 -2.932,-2.872 C 84.536,76.723 76.551,68.596 66.537,68.596 v 0 3 z"
           transform="matrix(0.66342044,0,0,0.66342044,0.15,0.15)" />
      </g>
      <path
         id="Line_1_"
         fill="#231f20"
         d="m 59.732,89.754 c -2.672,-0.76 -5.162,-1.822 -7.777,-2.717 -0.17,-0.059 -0.307,0.147 -0.225,0.293 2.5,4.354 9.514,3.627 13.094,6.854 0.963,0.87 2.396,-0.617 1.408,-1.408 -1.939,-1.551 -4.134,-2.35 -6.5,-3.022 z"
         transform="matrix(0.66342044,0,0,0.66342044,0.15,0.15)" />
      <path
         id="Line"
         fill="#231f20"
         d="m 61.854,93.674 c -1.688,-1.029 -3.713,-1.17 -5.609,-1.541 -2.572,-0.506 -4.174,-1.394 -5.793,-3.451 -0.271,-0.346 -0.811,0.031 -0.705,0.41 1.27,4.611 8.113,3.688 11.457,5.695 0.714,0.428 1.357,-0.681 0.65,-1.113 z"
         transform="matrix(0.66342044,0,0,0.66342044,0.15,0.15)" />
    </g>
  </g>
</svg>
