<?xml version="1.0" encoding="UTF-8" standalone="no"?>
<svg
   id="Layer_1"
   version="1.1"
   viewBox="0 0 140.74313 111.1784"
   sodipodi:docname="SandDollar.svg"
   width="140.74313"
   height="111.1784"
   xmlns:inkscape="http://www.inkscape.org/namespaces/inkscape"
   xmlns:sodipodi="http://sodipodi.sourceforge.net/DTD/sodipodi-0.dtd"
   xmlns="http://www.w3.org/2000/svg"
   xmlns:svg="http://www.w3.org/2000/svg">
  <sodipodi:namedview
     id="namedview85"
     pagecolor="#ffffff"
     bordercolor="#000000"
     borderopacity="0.25"
     inkscape:showpageshadow="2"
     inkscape:pageopacity="0.0"
     inkscape:pagecheckerboard="0"
     inkscape:deskcolor="#d1d1d1" />
  <!-- Generator: Adobe Illustrator 29.8.3, SVG Export Plug-In . SVG Version: 2.1.1 Build 3)  -->
  <defs
     id="defs4">
    <style
       id="style2">
      .st0 {
        fill: #a94db9;
      }

      .st1 {
        fill: #cf77de;
      }

      .st2 {
        fill: #c46dd4;
      }

      .st3 {
        fill: #ba60ca;
      }

      .st4 {
        fill: #c870d8;
      }

      .st5 {
        fill: #a950b9;
      }

      .st6 {
        fill: #bc62cc;
      }

      .st7 {
        fill: #d47de3;
      }

      .st8 {
        fill: #b257c2;
      }

      .st9 {
        fill: #a74eb7;
      }

      .st10 {
        fill: #ab50ba;
      }

      .st11 {
        fill: #a94eb9;
      }

      .st12 {
        fill: #cc76db;
      }

      .st13 {
        fill: #bd66cd;
      }

      .st14 {
        fill: #b55bc4;
      }

      .st15 {
        fill: #a84fb8;
      }

      .st16 {
        fill: #c26cd1;
      }

      .st17 {
        fill: #c46cd3;
      }

      .st18 {
        fill: #af56bf;
      }

      .st19 {
        fill: #b45bc4;
      }

      .st20 {
        fill: #a046b0;
      }

      .st21 {
        fill: #cc74db;
      }

      .st22 {
        fill: #c56cd5;
      }

      .st23 {
        fill: #c76fd7;
      }

      .st24 {
        fill: #a74cb6;
      }

      .st25 {
        fill: #a64db6;
      }

      .st26 {
        fill: #c068cf;
      }

      .st27 {
        fill: #b65ec6;
      }

      .st28 {
        fill: #ca73d9;
      }

      .st29 {
        fill: #c56dd4;
      }

      .st30 {
        fill: #cd75dc;
      }

      .st31 {
        fill: #ba61ca;
      }

      .st32 {
        fill: #010001;
      }

      .st33 {
        fill: #a74db7;
      }
    </style>
  </defs>
  <path
     d="m 85.73,5.73 c 0.27,0.26 7.1,1.37 7.47,1.3 1.71,-0.34 2.33,-4.57 4.76,-4.17 0.56,1.3 -1.13,5.12 -0.69,5.72 0.53,0.72 6.62,2.25 7.54,0.06 1.56,0.76 0.21,2.39 1.03,3.22 2.97,3 5.19,1.57 8.69,1.09 -1.84,1.97 -1.6,4.87 1.39,5.44 0.97,0.18 5.13,-2.94 7.25,-1.84 -5.2,5.73 -0.98,10.76 5.76,7.92 -7.23,5.87 4.32,8.98 4.31,9.71 0,0.35 -4.02,2.68 -1.06,6.12 0.85,0.99 3.38,1.03 4.67,1.45 -2.5,2.16 -4.19,3.88 -2.19,7.44 0.32,0.56 7.59,1.55 5.8,3.35 -0.29,0.29 -4.83,0.58 -5,0.77 -0.23,0.25 -0.89,6.37 -0.82,6.7 0.17,0.86 3.49,0.95 3.66,2.61 -5.36,0.99 -5.09,2.1 -2.16,5.76 -3.71,-1.22 -7.43,7.63 -4.33,9.73 -0.8,1.5 -2.12,0.11 -3.25,0.98 -0.37,0.29 -2.97,4.5 -3.09,4.97 -0.59,2.31 1.23,3.12 1.3,5.21 -1.43,0.33 -2.99,-1.58 -4.34,-1.07 -5.05,1.92 -0.42,7.24 -1.42,8.27 -2.34,0.25 -4.08,-1.83 -6.49,-1.15 -0.38,0.11 -5.26,2.99 -5.42,3.27 -0.44,0.78 1.45,3.46 -0.76,4.33 -2.27,0.35 -3.13,-2.14 -5.34,-1.85 -2.36,0.31 -7.12,1.8 -5.76,4.76 -2.97,-1.38 -5.81,-1.64 -8.82,0 -1.15,0.62 -1.07,3.25 -2.31,3.45 -0.94,0.15 -2.89,-1.84 -4.84,-1.85 -0.68,0 -5.17,0.68 -5.65,0.91 -1.04,0.5 -1.19,2.48 -1.87,2.6 -1.78,0.3 -3.29,-1.88 -4.98,-2.19 -2.55,-0.48 -6.18,0.06 -8.97,-0.75 0.29,7.4 -4.01,-0.4 -4.87,-0.7 -0.68,-0.24 -6.29,-1.36 -7.07,-1.4 -1.38,-0.08 -2.85,1 -4.16,0.6 -0.91,-0.28 -0.96,-1.67 -1.69,-2.13 -0.37,-0.23 -6.85,-2.7 -7.24,-2.75 -1.88,-0.25 -3.06,2.35 -5.23,1.01 -1.52,-0.94 -1.01,-3.73 -1.58,-4.55 -0.31,-0.43 -7.31,-4.7 -8.82,-5.94 -1.9,-1.56 -4.86,-5.58 -6.46,-6.5 C 11.24,84.81 8.88,85.12 8.26,84.29 7.34,83.07 8.85,80.78 8.57,79.02 8.51,78.67 6.08,72.73 5.88,72.44 5.2,71.48 1.74,72.08 1.44,70.82 0.71,67.77 3.25,67.1 3.63,65.15 3.82,64.17 3.88,60.39 3.67,59.52 3.42,58.5 0,58.74 0,56.53 0,54.32 4.43,53.68 4.41,51.48 4.39,49.75 1.01,49.35 1.01,47.17 c 0,-3.31 4.72,-2.81 5.38,-3.37 0.24,-0.21 2.24,-5.67 2.25,-5.99 0,-1.23 -1.57,-2.99 -1.39,-3.23 0.18,-0.24 3.5,-1.1 5.04,-2.53 2.72,-2.53 2.17,-5 3.24,-6.84 0.62,-1.06 4.05,-1.56 5.01,-3.63 0.62,-1.34 0.12,-3.32 1.4,-4.37 1.28,-1.05 4.9,0.27 6.15,-1.43 0.49,-0.67 -2.85,-4.25 0.03,-6.09 2.15,-1.38 3.36,1.88 5.05,2.56 0.06,-1.25 -0.48,-7.26 1.09,-7.19 0.61,0.03 3.36,6.3 5.05,3.59 C 38.3,1.71 41.36,0.61 45.07,6.48 47.06,5.93 45.55,4.29 49.02,5.76 V 1.44 c 2.14,-0.54 1.4,1.84 2.86,2.53 5.32,2.51 4.67,-2.9 6.15,-3.24 1.83,-0.42 1.44,2.7 2.23,2.92 0.79,0.22 5.28,0.1 6.38,-0.07 1.19,-0.18 1.85,-1.41 2.89,-1.45 0.43,-0.01 0.26,1.32 0.84,1.47 0.54,0.14 10.01,0.87 10.7,0.79 1.56,-0.17 2.7,-3.98 4.66,-4.39 0.21,1.07 -0.27,5.48 0.01,5.75 z"
     id="path6" />
  <path
     class="st20"
     d="M 23.09,84.93 C 11.88,74.39 8.81,59.66 14.07,45.31 c 1.84,-5.01 5.08,-5.03 5.82,-6.46 0.74,-1.43 -0.55,-2.8 0.37,-4.56 9.57,-18.21 37.73,-24.71 56.29,-21.89 2.64,0.4 3.15,2.42 4.48,2.41 1.82,-0.01 1.76,-1.88 2.22,-1.89 7.38,-0.25 21,7.05 26.94,11.53 0.03,4.58 -5.72,5.79 -7.92,2.16 -1.55,2.39 -8.04,-1 -7.2,-3.6 -3.94,0.02 -6.31,-0.08 -8.73,-3.53 l -4.37,0.99 c -1.71,-2.9 -4.28,-3.45 -7.7,-1.66 -0.08,-0.49 -0.16,-0.88 -0.27,-0.89 -3.39,-0.25 -6.18,-0.49 -9.18,-2.23 -1.96,0.57 -3.01,1.55 -3.15,2.96 L 59.8,19.4 c -1.68,1.23 -2.32,2.37 -3.26,4.48 l -3.21,0.69 c -1,1.88 -4.14,2.77 -5.78,1.31 -0.4,1.81 -1.6,1.57 -3.6,-0.72 -0.96,-1.01 -2.27,-0.07 -2.3,0.14 -0.52,2.99 -2.73,2.12 -4.45,0.36 -1.42,1.41 -3.16,2.9 -5.24,4.49 1.48,1.64 1.24,3.33 -0.25,5.09 0.64,0.81 0.96,1.65 0.95,2.53 -2.09,1.85 -4.45,5.38 -5.95,7.85 -0.57,0.94 -1.5,2.4 -2.28,2.36 0.74,1.6 0,2.51 -1.47,3.29 -0.97,3.39 -2.46,6.46 -4.46,9.2 2.68,1.8 5.76,8.3 3.86,10.77 0.11,1.47 0.06,2.95 -0.15,4.45 2.81,1.5 3.41,4.13 2.21,6.43 2.13,1.82 1.06,4.57 -1.34,2.81 z"
     id="path8" />
  <path
     class="st20"
     d="m 85.01,98.61 c -3.66,-2.19 1.7,-8.7 4.86,-5.76 0.48,-2.61 2.46,-4.53 5.94,-5.76 l 0.43,-1.67 c 2.14,-1.47 4.36,-2.73 6.67,-3.77 l 1.54,-2.48 c -1.62,-1.21 -1.26,-1.75 0.72,-1.44 1.33,-0.48 2.77,-0.64 4.32,-0.48 1.43,-2.6 3.44,-4.32 6.01,-5.15 5.21,2.95 3.23,-0.62 1.32,-4.06 2.47,-3.52 0.58,-10.63 -0.84,-14.84 -0.57,-3.53 -0.33,-6.05 0.4,-9.28 -1.83,-2.29 -1.23,-4.27 1.69,-4.9 -2.24,-1.48 -3.42,-3.21 -3.54,-5.21 -0.99,0.15 -5.08,-4.29 -5.3,-5.36 -0.35,-1.68 -0.07,-2.73 1.7,-3.28 9.19,7.27 17.12,17.78 16.58,30.56 -0.1,2.25 -2.26,11.28 -3.07,13.55 -2.33,6.45 -11.49,20.42 -18.53,21.82 -1.3,0.26 -2.57,-0.73 -3.6,-0.08 -0.57,0.36 -0.84,1.67 -1.51,2.15 -2.51,1.8 -12.32,4.6 -15.79,5.45 z"
     id="path10" />
  <path
     class="st24"
     d="m 22.37,71.25 1.02,0.03 c 0.18,2.08 1.18,3.96 3.01,5.62 l 0.23,2.97 c 1.26,-0.87 6.74,1.03 7.03,1.8 -1.07,4.29 2.58,7.13 6.68,6.41 1.21,1.27 2.53,2.71 3.62,4.04 2.7,-0.01 7.59,3.75 4.32,5.76 -2.66,-0.66 -8.41,-2.22 -10.59,-3.45 -1.66,-0.94 -2.33,-2.88 -2.89,-3.04 -6,-1.69 -6.88,-1.92 -11.72,-6.47 3.18,-1.71 0.08,-1.18 -0.02,-1.87 -0.43,-3.01 1.4,-2.47 1.48,-2.8 0.49,-2.06 -1.06,-1.66 -1.22,-1.97 -0.16,-0.31 0.46,-0.94 0.32,-1.13 -0.28,-0.4 -1.67,-0.41 -1.95,-1.3 -0.33,-1.05 1.06,-3.22 0.67,-4.6 z"
     id="path12" />
  <path
     class="st25"
     d="m 95.81,87.09 c 0.08,2.45 -3.79,2.07 -4.65,4.3 -0.31,0.79 1.31,3.17 -2.87,2.94 -0.44,-0.02 -0.43,-1.5 -0.75,-1.49 -2.22,0.06 -2.23,4.03 -2.53,5.77 -2.37,0.58 -9.24,2.24 -11.2,2.21 -1.73,-0.02 -1.02,-2.27 -2.84,-2.26 -1.25,0 -1.94,1.85 -3.61,2.2 -2.42,0.5 -3.45,-0.58 -4.67,-0.71 -0.91,-3.01 3.49,-4.49 5.76,-3.6 1.32,-2.4 2.89,-3.2 2.58,0.26 1.58,-2.04 3.14,-2.42 5.19,-0.57 2.53,-3.6 4.44,-4.79 9.13,-3.54 0.19,0.05 -3.37,1.23 -2.5,-1.19 1.43,-1.05 3.35,-1.8 5.77,-2.25 1.48,-1.59 2.91,-2.28 4.31,-2.07 0.82,-1.42 2.41,-1.23 2.88,0 z"
     id="path14" />
  <path
     class="st3"
     d="m 77.09,89.25 0.1,1.55 c -2.79,1.03 -4.53,2.18 -6.13,4.74 -0.72,-0.49 -1.59,-0.19 -2.6,0.91 -2.49,2.17 -4.35,1.11 -5.76,3.6 -0.24,-0.03 -0.48,0.02 -0.72,0 -1.49,-0.07 -1.93,-1.02 -1.32,-2.85 -1.89,1.29 -4.2,0.69 -6.93,-1.77 -5.54,-0.26 -7.1,-1.36 -4.7,-3.29 0.43,-1.98 5.29,-3.73 7.2,-2.88 0.47,0.32 0.73,0.76 0.82,1.31 0.32,2.05 -1.37,-0.61 1.63,-0.48 1.33,0.06 1.88,0.47 2.82,1.38 2.24,0.55 3.8,0.73 4.63,-1.28 2.79,-1.04 5.63,-2.16 8.11,-3.82 1.69,-1.31 3.97,1.16 2.88,2.88 z"
     id="path16" />
  <path
     class="st8"
     d="m 49.01,92.13 c 0.12,0.08 -0.32,1.33 0.43,1.43 4.56,0.6 3.65,-0.57 7.95,2.47 0.4,0.29 0.24,1.08 0.29,1.12 0.33,0.21 3.13,-2.46 3.55,-2.14 1.65,2.36 0.29,2.86 0.74,5.04 -4.85,-0.49 -8.94,-0.98 -13.68,-2.16 0.35,-2.59 -2.89,-3.81 -4.32,-5.76 v -0.72 c 0.66,-1.93 4.95,-1.39 5.04,0.72 z"
     id="path18" />
  <path
     class="st33"
     d="m 110.93,25.17 c -1.71,3.28 1.08,4.11 2.4,5.94 0.62,0.87 0.91,2.33 1.2,2.7 -2.89,3.56 -9.4,5.89 -7.13,-0.91 l -2.24,-1.47 c -3.47,2.28 -5.44,-3.11 -2.87,-4.82 1.73,0.37 1.68,0.56 3.59,-0.72 l 0.35,2.15 3.97,-3.59 c 0.27,0.2 0.47,0.52 0.72,0.72 z"
     id="path20" />
  <path
     class="st18"
     d="m 69.17,19.41 c -0.91,-2.82 4.18,-1.88 5.84,-0.9 l 4.09,-0.76 c 2.94,3.83 5.36,5.81 10.23,6.37 2.33,-1.8 2.97,-2.28 5.76,-1.1 2.36,1.73 4.05,2.93 7.2,3.6 l 0.73,4.32 c 1.26,0.31 0.46,-1.21 0.73,-1.41 0.5,-0.39 6.32,2.35 5.76,4.66 -0.12,0.52 -2.19,-0.09 -1.46,1.8 1.94,0.66 4.83,-3.57 6.48,-2.16 2.26,3.62 2.19,5.48 -0.22,5.59 2.33,-0.36 2.3,0.63 1.18,2.48 0.35,1.03 0.9,2.01 1.63,2.93 l -0.87,0.72 c -0.02,4.29 -1.31,6.38 -3.89,6.27 -0.75,1.98 -3.41,0.51 -2.88,-1.44 -0.03,-0.59 -0.04,-1.26 0.47,-1.52 -1.94,-0.52 -2.36,-1.96 -0.47,-2.8 0.28,-3.07 -1.45,-5.03 -5.19,-5.89 -0.73,-4.13 -2.05,-6.14 -6.39,-5.67 -1.66,-1.59 -3.32,-2.38 -4.97,-2.38 l -2.17,-3.34 c -2.4,1.56 -8.33,-0.53 -10.21,-2.87 -1.67,2.63 -4.63,2.14 -6.35,-0.01 -2.01,0.05 -4.91,-4.43 -5.04,-6.48 z"
     id="path22" />
  <path
     class="st10"
     d="m 31.73,35.25 c 3.58,0.14 3.09,3.41 0.43,5.13 l -1.02,0.73 c 0.19,2.57 -0.23,4.64 -2.73,5.86 2.76,0.84 2.39,2.67 -1.13,5.5 -1.54,1.25 -1.74,2.47 -0.6,3.65 1.33,1.47 1.1,6.96 0,8.64 -0.91,3.01 -0.51,5.23 0.56,7.91 2.5,1.62 4.28,3.81 5.35,6.57 2.81,-0.36 3.61,1.81 3.02,4.38 1.79,0.7 4.31,2.06 5.48,3.46 1.93,-0.26 3.86,2.63 2.88,4.32 v 0.72 c -0.61,-1.28 -2.75,-0.68 -2.82,-0.81 -0.29,-0.55 0.41,-1.76 -0.51,-2.1 -1.32,-0.5 -5.72,0.16 -5.96,-0.01 C 34.4,89 34.33,87.44 33.82,86.79 33.19,86 31.7,85.65 31.67,85.24 c -0.09,-1.17 2.57,-3.14 0.4,-3.91 -2.82,-1 -1.29,4.01 -3.22,2.15 -0.15,-0.14 -0.54,-2.29 -0.74,-2.87 -1.24,-0.34 -0.45,1.09 -0.77,1.38 -0.08,0.07 -1.93,-0.69 -1.99,-0.78 -0.46,-0.73 0.15,-2.58 -0.22,-3.73 -0.37,-1.15 -2.43,-1.35 -2.55,-2.22 -0.19,-1.3 0.7,-1.36 -0.22,-4.01 -0.61,-1.75 -2.35,-7.02 -3.02,-8.14 -0.72,-1.21 -2.46,-1.64 -2.73,-2.31 -1.03,-2.52 1.42,-1.4 1.99,-1.9 0.36,-0.32 0.56,-2.67 1.04,-3.69 1.17,-2.51 3.39,-2.49 0.56,-6.27 6.6,1.69 1.87,-0.19 2.16,-1.79 0.25,-1.37 2.59,-0.05 3.26,-1.09 0.39,-0.6 -0.57,-1.59 -0.31,-2.02 0.33,-0.54 6.68,-3.25 4.24,-5.9 2.63,0.4 2.39,-0.49 2.17,-2.88 z"
     id="path24" />
  <path
     class="st11"
     d="m 59.81,19.41 c 1.25,-2.33 0.79,-5.53 3.6,-3.59 -0.37,-2.7 0.43,-2.27 2.89,-2.16 l -0.73,1.43 c 3.31,-0.29 5.97,2.51 9.22,2.76 2.12,0.17 2.54,-0.93 3.81,-0.97 2.03,-0.07 2.31,2.11 3.47,2.22 0.72,0.07 3.6,-1.52 4.95,-0.9 1.35,0.62 4.1,6.55 5.54,0.5 1.89,0.81 0.06,3.22 0.37,3.57 0.08,0.09 1.25,0.09 2.15,0.75 -3.08,-0.44 -4.4,3.59 -7.56,2.59 -0.75,-0.24 -1.22,-1.21 -1.78,-1.4 -1.58,-0.55 -3.02,0.4 -4.76,-1.85 -2.1,-2.7 0.74,-4.61 -4.83,-3.51 -0.86,0.17 -2.85,1.78 -3.39,1.28 -1.65,-1.52 2.41,-1.22 1.06,-2.17 l -4.67,1.45 c -2.18,1.22 -7.1,1.82 -9.36,0.72 -0.63,-0.2 -0.62,-0.44 0,-0.72 z"
     id="path26" />
  <path
     class="st9"
     d="m 31.73,35.25 c -0.07,-0.72 -2.18,-1.7 0.72,-2.52 -5.28,-3.87 2.18,-5.21 3.27,-6.86 0.37,-0.56 -0.58,-2.63 0.7,-2.86 2.25,-0.41 2.35,3.43 2.52,3.6 1.51,1.54 1.2,-1.73 1.9,-2.18 3.4,-2.16 2.97,0.59 3.13,0.74 0.24,0.24 2.93,0.7 3.6,0.72 0.63,0.2 0.62,0.44 0,0.72 1.57,0.95 1.66,1.58 -0.13,1.48 0.38,3.64 -4.97,-0.86 -3.47,-2.92 0.11,1.99 0.22,5.34 -1.74,2.64 -1.57,1.02 -3.17,1.16 -4.79,0.44 l -2.5,3.77 c -0.04,3.73 -1.11,4.81 -3.21,3.23 z"
     id="path28" />
  <path
     class="st15"
     d="m 47.57,25.89 c 5.09,0.19 3.27,-1.45 5.04,-2.53 2.18,-1.32 4.66,1.31 4.33,-4.67 l 2.87,0.72 v 0.72 c 0.72,1.17 0.39,2.73 -0.98,4.67 -0.56,2.92 -1.67,4.72 -3.34,5.41 -2.37,0.03 -4.74,-0.8 -7.09,-2.48 -1,1.03 -1.05,0.33 -0.83,-1.12 z"
     id="path30" />
  <path
     class="st5"
     d="m 114.53,33.81 c 0.89,1.11 5.41,4.76 5.76,5.41 1.12,2.08 -4.85,0.88 -4.32,2.87 0.1,0.38 2.6,1.24 2.88,2.89 -0.13,0.77 -1.75,0.06 -2.08,0.4 -1.17,1.2 2.7,16.7 2.84,19.83 0.1,2.34 -1.5,1.66 -1.51,2.1 -0.05,1.37 2.6,4.01 2.83,5.77 -0.08,0.79 -3.22,1.75 -3.96,1.79 -1.48,0.1 -0.58,-1.77 -1.98,-1.4 -3.17,0.82 -4.69,6.09 -9.81,4.27 -1.63,-2.19 1.31,-3.22 3.48,-2.49 0.49,-1.9 1.43,-3.7 3.35,-4.49 -1.82,-1.21 -2.41,-2.48 -1.79,-3.82 l -0.1,-1.67 c 4.31,-2.88 7.54,-7.91 2.25,-11.69 v -1.76 c 1.06,-1.35 3.45,-4.7 3.46,-6.25 0,-0.94 -1,-1.56 -1.07,-2.14 -0.11,-1 0.78,-2.62 0.49,-3.13 -0.09,-0.16 -1.97,1.59 -2.14,-1.81 l 2.15,-0.36 c 0.33,-1.22 -1.41,-0.31 -1.51,-1.14 -0.1,-0.83 1.13,-2.88 0.79,-3.17 z"
     id="path32" />
  <path
     class="st27"
     d="m 110.21,66.93 5.04,5.03 c -5.22,-1.04 -4.92,4.27 -5.76,5.05 -0.54,0.5 -2.38,-2.12 -4.31,0.71 -0.44,0.65 -0.46,0.74 -0.72,1.44 -1.2,2.33 -3.58,3.96 -7.13,4.88 -0.9,1.75 -3.56,3.76 -2.95,0.88 -2.13,-0.44 -1.95,-3.09 0,-3.6 l 6.03,-4.24 c -0.55,-3.93 0.85,-5.62 4.41,-6.16 l -0.36,-1.12 c -1.02,-1.94 4.42,-4.54 5.76,-2.88 z"
     id="path34" />
  <path
     class="st0"
     d="m 104.45,79.17 c -0.21,0.57 0.32,1.83 -0.35,2.87 -0.77,1.21 -3.02,1.23 -3.25,1.46 -1.46,1.51 1.82,1.13 1.43,2.14 -2.7,-0.82 -4.53,0.94 -6.48,1.45 -0.77,0.2 -2,-0.14 -2.88,0 -2.08,-1.03 -0.51,-3.67 1.44,-2.16 0.07,0 0.39,0.61 0.68,0.72 0.24,-4.78 6.56,-3.18 9.4,-6.48 z"
     id="path36" />
  <path
     class="st32"
     d="m 96.53,48.21 c 0.21,-2.18 4.17,-2.23 4.32,0 2.32,-1.43 8.16,-0.75 8.64,2.16 0.15,0.06 2.75,1.35 2.88,1.44 7.51,4.97 3.95,11.13 -2.16,15.12 -0.55,0.36 -4.92,2.52 -5.76,2.88 -3.23,3.1 -7.63,4.72 -13.2,4.87 l 3.89,4.94 -0.77,1.71 c 0.27,0.86 -0.19,2.56 0,3.6 -0.98,0.12 -0.97,1.57 -1.44,2.16 -2.8,3.54 -5.35,4.83 -10.08,4.32 -1.12,1.97 -6.65,0.26 -5.76,-2.16 -0.17,-0.12 -2.56,-2.52 -2.88,-2.88 -1.67,1.12 -2.39,0.16 -2.16,-2.88 -2.66,1.34 -5.62,-7.15 -4.43,-9.01 1.19,-1.86 3.64,-2.69 4.43,-0.35 2.08,-0.18 5.39,4.5 4.32,6.48 l 1.33,-0.08 c 5.75,7.96 16.05,5.17 4.91,-3.33 l -0.47,-2.35 c -3.34,1.26 -10.28,-5.72 -5.78,-8.74 4.48,-0.48 9.09,-0.32 13.85,0.48 2.89,-0.73 5.24,-0.62 7.05,0.33 0.25,-2.03 4.89,-3.87 6.48,-2.16 1.96,-2.27 4.39,-4.34 7.29,-6.21 -2.5,-1.69 -4.93,-3.46 -7.29,-5.31 -1.1,2.05 -4.74,0.98 -6.55,0.08 l -2.09,-0.08 -0.83,1.54 c -6.52,0.74 -12.71,3.01 -18.57,6.81 -2.98,1.63 -8.86,2.91 -8.29,-2.07 0.54,-4.71 14.78,-9.71 18.88,-10.77 3.62,-0.94 6.26,-1.33 9.6,-1.46 l 0.65,0.92 z"
     id="path38" />
  <path
     class="st18"
     d="m 82.85,91.41 c 0.87,0.3 1.59,1.1 2.88,0.73 -0.19,1.36 -1.69,1.06 -2.65,1.7 -0.38,0.25 -0.19,1.13 -0.24,1.16 -0.45,0.32 -1.46,-1.88 -2.8,-1.36 -0.31,0.12 -2.23,4.38 -4.74,4.29 -0.38,-0.01 -0.06,-2.03 -2.17,-1.49 -0.23,0.06 -0.96,2.67 -3.96,1.45 l 0.71,-2.87 c -0.94,-0.2 -0.86,0.94 -1.43,1.44 l 4.14,-5.06 4.5,-2.14 c 1.75,1.2 3.83,1.49 5.76,2.16 z"
     id="path40" />
  <path
     class="st23"
     d="m 61.25,84.21 c 1.11,-1.15 2.25,-0.76 3.4,1.17 2.75,-3.68 4.72,-4.12 5.91,-1.31 l 1.49,-0.58 c 0.49,0.75 1.59,2.24 2.16,2.88 -0.02,1.63 1.7,1.59 -0.34,2.16 -3.07,0.87 -4.59,2.53 -7.59,2.89 0.24,1.21 1.01,2.03 -0.36,2.86 -2.01,0.71 -1.68,-1.32 -2.27,-1.43 -1.1,-0.2 -2.34,0.23 -3.38,0 -0.57,-0.13 -0.42,-1.47 -0.83,-1.47 -1.74,0 -4.03,4.19 -5.4,0.75 l 2.16,-2.89 c -1.43,-1.76 3.14,-6.05 5.04,-5.04 z"
     id="path42" />
  <path
     class="st32"
     d="m 38.21,51.81 c 0.07,-0.39 0.18,-0.74 0.41,-0.93 2.41,-2.02 18.56,4.6 20.74,7.83 3.45,5.13 1.64,9.55 -4.33,6.27 -4.17,-3.52 -8.8,-5.46 -13.9,-5.83 l -0.76,-1.57 c -6.75,-0.73 -12.19,2.63 -3.47,6.26 l 0.59,1.66 1.18,-1.11 c 6.1,1.72 12.52,2.7 18.87,2.62 l 0.83,1.37 c 4.74,3.8 -2.24,6.41 -6.09,7.18 -1.58,1.44 -3.15,2.41 -4.71,2.9 -0.2,0.73 0.14,1.38 0.57,1.99 -2.53,6.6 0.16,6.9 8.07,0.89 -0.23,-0.28 -0.43,-0.57 -0.52,-0.88 -0.13,-0.5 4.51,-8.55 4.86,-8.93 2.27,-2.48 5.18,-2.21 6.07,1.11 0.67,2.51 -2.08,12.16 -5.37,11.58 -0.21,0.29 -4.76,4.82 -5.04,5.04 -1.64,1.24 -5.13,2.69 -7.2,2.88 -0.24,-0.18 -4.24,-0.3 -5.04,-0.72 -0.71,-0.37 -2.57,-3.19 -2.88,-4.32 -3.24,-0.77 -1.61,-4.96 0,-6.48 -1.01,-1.9 -0.46,-4.24 1.65,-7.03 L 33.03,70.95 32.44,69.1 c -2.37,0.85 -6.8,-1.82 -5.76,-4.32 -1,-1.75 -1,-6.91 0,-8.64 l -0.52,-1.52 c 3.22,-3.58 7.23,-4.52 12.04,-2.8 z"
     id="path44" />
  <path
     class="st32"
     d="m 69.17,19.41 c 2,0.87 4.44,4.46 5.04,6.48 2.96,0.46 1.96,4.05 1.05,5.89 l 0.39,3.47 v 0.72 l 1.25,1.34 c -0.41,3.67 -3.82,21.86 -9.49,19.29 -2.44,-1.1 -1.6,-5.93 -1.23,-8.05 0.39,-2.25 1.79,-7.58 3.71,-8.26 0.46,-1.63 0.52,-3.33 0.39,-4.99 -1.27,-2.14 -2.05,-6.17 -1.11,-8.69 -4.28,-3.26 -7.09,-0.66 -8.45,7.81 l -0.91,0.83 c 1.41,0.59 2.05,1.82 0.68,2.57 l 0.04,5.35 1.56,0.4 c 1.41,2.71 4.93,11.72 3.17,13.94 -3.47,4.38 -6.45,-0.99 -8.05,-3.98 -1.18,-2.2 -3.85,-9.01 -1.72,-10.37 -2.43,-0.29 -3.12,-7.25 -0.72,-7.92 -1.22,-1.71 -2.07,-3.53 0.72,-4.32 -0.63,-0.24 -0.63,-0.48 0,-0.72 0.37,-1.79 3,-9.39 4.32,-10.08 2.08,-1.09 7.09,-1.71 9.36,-0.72 z"
     id="path46" />
  <path
     class="st22"
     d="m 74.21,25.89 c 1.35,-1.15 2.35,0.58 3.68,0.4 1.78,-0.23 1.59,-3.06 3.51,-2.56 0.1,0.92 0.58,2.13 1.44,2.53 2.2,1.03 5.44,1.27 7.93,2.5 1.3,1.59 2.4,3.29 3.27,5.11 4.68,-0.7 8.87,5.11 11.01,8.74 1.52,-2.94 6.09,1.05 4.44,3.43 0.03,0.48 -0.03,0.96 0,1.44 l 2.88,-0.35 c -0.19,1.54 -1.17,3.28 -2.89,3.23 -1.75,-0.65 -6.92,-1.98 -8.64,-2.16 -0.4,-0.42 -0.75,-1 -0.51,-1.45 1.27,-2.31 0.18,-3.54 -2.32,-4.2 -2.12,-2.75 -4.52,-4.4 -7.19,-4.95 -2.24,0.35 -4.78,0.19 -7.62,-0.51 l -1.91,-1.37 c 0.34,-5.81 -4.2,-5.04 -5.65,-0.48 -1.33,-2.63 -0.49,-6.18 -1.44,-9.36 z"
     id="path48" />
  <path
     class="st31"
     d="m 90.77,28.77 c 1.45,0.72 2.39,1.98 2.57,2.03 1.77,0.42 2.19,-1.95 3.55,2.29 l 1.43,-1.44 -0.36,1.44 c 0.87,0.34 4.77,-0.05 4.94,0.13 0.44,0.43 0.45,2.1 1.56,3.11 0.22,0.2 5.29,2.26 2.51,2.44 -0.68,0.04 -1.42,-0.88 -1.81,0.81 2.1,-0.11 2.62,1.65 3.24,-0.71 2.85,1.76 -0.61,5.08 3.24,4.33 l -2.16,2.87 c -0.19,-3.32 -0.23,-1.38 -1.91,-2.41 -0.43,-0.27 -0.22,-1.15 -0.27,-1.18 -0.85,-0.61 -1.1,2.83 -2.5,2.15 -1.24,-0.74 -1.35,-2.83 -2.18,-3.6 -1.29,-1.21 -1.21,-0.99 -2.27,-2.13 -0.42,-0.45 -3.08,-3.32 -3.3,-3.4 C 95.69,35 93.52,35.62 93,35.18 92.74,34.96 90.53,29.82 90.74,28.81 Z"
     id="path50" />
  <path
     class="st19"
     d="m 43.97,25.17 c 0.21,0.13 1.97,3.94 2.87,3.6 l 0.73,-2.16 2.09,1.09 1.52,-1.08 -0.36,1.44 2.51,-1.45 v 2.88 c 0,0 2.17,0.72 2.17,0.72 -0.05,0.23 0.04,0.49 0,0.72 -1.25,1.32 -3.18,1.41 -5.78,0.29 -1.22,3.35 -6.47,1.4 -8.2,-0.83 -1.34,2.48 -3.2,4.23 -5.56,5.23 0.25,2.52 0.04,5.82 -2.15,7.06 l 0.61,1.81 c -0.95,2.98 -1.13,5.18 -0.52,6.6 0.66,-1.95 1.5,-1.96 2.16,0 0.74,-2.39 3.17,-1.65 2.16,0.72 -1.92,-0.12 -4.73,-0.24 -6.52,0.32 -0.63,0.2 -4.78,3.63 -5,4 -0.83,0.15 -3.01,-0.05 -2.53,-1.43 0.89,-2.54 3.58,-4.66 5.41,-6.49 l -3.59,0.71 c -1.11,-3.72 2.11,-2.43 3.3,-4.5 0.5,-0.86 0.99,-4.09 2.13,-5.59 0.59,-0.79 4.71,0.15 0.32,-3.59 h 2.15 c -1.36,-3.99 0.22,-4.29 1.94,-6.75 0.43,-0.62 0.14,-1.77 0.25,-1.88 0.5,-0.5 5.64,1.94 7.19,0.7 l -0.72,-2.15 c 0.44,0.05 1.26,-0.12 1.44,0 z"
     id="path52" />
  <path
     class="st14"
     d="m 26.69,64.77 c 0.32,0.55 4.88,3.87 5.76,4.32 -1.84,3.92 0.88,7.33 5.67,7.39 0.07,1.88 0.89,3.2 2.46,3.96 -1.74,0.4 -1.57,0.46 0.51,0.17 -0.13,2.01 -0.54,4.52 0,6.48 h -4.31 c 0.59,-2.95 -1.11,-1.75 -1.95,-2.32 -1.47,-0.99 -0.04,-4.03 -0.21,-4.16 -0.26,-0.2 -1.89,0.32 -2.73,-0.15 -1.79,-0.99 -0.36,-6.14 -4.47,-3.45 1.42,-3.58 -0.13,-3.83 -3.61,-3.61 3.51,-2.7 1.37,-1.33 0.84,-4.12 -0.16,-0.84 0.63,-2.07 0.51,-2.28 -0.4,-0.66 -5.02,-1.96 1.53,-2.24 z"
     id="path54" />
  <path
     class="st2"
     d="m 104.45,69.81 c 3.98,0.39 -2.08,3.13 -2.23,3.36 -0.99,1.52 0.19,3.52 -0.69,4.81 -1.59,2.33 -4.28,4.13 -7.16,3.35 -0.66,-2.12 -4.62,-5.69 -5.76,-7.91 5.41,-0.34 10.87,-1.47 15.84,-3.61 z"
     id="path56" />
  <path
     class="st7"
     d="m 75.65,35.97 c 0.44,-4.08 3.99,-5.47 4.32,-0.73 2.45,1.11 4.82,2.41 7.11,3.91 l 2.13,4.37 c 2.25,-1.51 4.42,-1.48 4.63,1.57 2.82,-0.66 5.24,1.17 2.7,3.12 -6.15,0.3 -15.81,3.54 -21.36,6.36 -3.19,1.62 -5.59,2.41 -6.68,6.27 -0.13,0.56 2.12,0.88 2.87,0.76 3.88,-0.65 10.74,-5.46 15.43,-6.93 3.23,-1.01 5.08,-1.06 8.3,-1.42 6.97,-0.7 6.66,5.2 3.06,9.6 1.19,2.03 1.65,3.16 -0.9,4.08 -8.61,2.15 -9.76,0.61 -17.75,0.05 -2.66,-0.19 -4.1,0.89 -2.78,3.56 0.16,0.31 4.3,3.3 5.41,4.31 3.45,3.54 -2.66,8.14 -5.76,5.76 -1.32,-1.71 -3.55,-4.58 -4.32,-6.48 -3.53,-0.5 -5.17,-1.69 -4.92,-3.55 -2.65,0.04 -4.31,-0.96 -3.17,-3.68 -0.85,1.42 -4.34,2.61 -5.59,1.48 -4.6,0.55 -16.33,-1.17 -20.88,-2.88 -3.4,-4.37 -4.76,-8.97 2.88,-7.92 3.12,0.52 5.5,0.47 8.63,1.81 1.89,0.81 12.52,9.92 10.51,2.49 C 57.93,55.98 43.6,52.16 38.22,51.82 37.87,50.87 36.85,51.14 36.06,51.1 33,48.06 39.65,40.75 43.42,41.19 c 2.12,-2 3.75,-2.2 5.42,0.33 1.3,-2.28 3.38,-0.97 4.11,1.21 1.04,-0.65 1.71,-0.65 2.55,0.44 0.49,2.77 3.67,14.45 6.84,14.42 1.08,0 2.51,-1.3 2.4,-2.41 -0.21,-2.22 -3.47,-8.14 -4.2,-12.02 -0.37,-3.46 -0.29,-10.08 3.14,-4.55 l 3.22,-2.83 c 2.68,-6.91 4.4,0.69 2.99,4.5 -0.4,4.74 -3.73,9.54 -2.52,13.7 0.27,0.93 0.17,1.72 1.43,1.41 3.92,-1.61 6.27,-15.41 6.85,-19.43 z"
     id="path58" />
  <path
     class="st1"
     d="m 58.37,68.37 c 0.26,-0.03 1.28,-0.95 1.99,-1.23 0.76,-0.3 2.2,-0.11 2.33,-0.21 0.23,-0.18 -1.29,-4.47 0.34,-5.75 5.16,1.3 2.26,4.02 1.81,7.91 3.33,-0.05 4.04,-0.8 3.6,2.89 1.83,0.67 1.33,-1.06 1.6,-1.22 2.89,-1.7 1.19,1.37 2,3.38 -6.57,-1.12 -1.62,6.89 0,9.36 -0.24,2.28 -0.82,3.19 -3.23,2.88 -0.98,-0.13 1.83,-3.15 -0.73,-2.88 -1.44,2.62 -3.71,3.75 -5.77,5.75 -0.03,-2.85 2.58,-2.82 -1.08,-5.04 1.47,-1.96 6.55,-12.02 2.5,-12.96 -2.36,-0.55 -3.97,5.4 -4.78,6.71 -0.92,1.49 -1.86,2.23 -2.75,3.37 -0.85,1.18 -2.22,1.74 -4.08,1.68 -3.5,5.34 -5.62,-0.64 -4.56,-4.56 1.22,-2.1 1.68,-3.02 4.08,-4.2 3.45,-1.7 7.74,-0.41 6.72,-5.88 z"
     id="path60" />
  <path
     class="st30"
     d="m 75.65,35.25 c 0.2,-1.28 -0.54,-3.89 0.7,-4.74 0.3,-0.2 6.12,0.11 6.47,0.48 0.61,0.64 -3.52,6.68 4.71,4.23 l 0.37,2.19 c 1.24,-1.18 3.51,-1.59 5.11,-1.02 2.82,1.01 1.89,4.35 6.4,2.46 -1.97,4.13 0.34,2.14 1.8,3.57 0.92,0.9 0.82,2.99 1.79,3.99 l -2.15,1.79 c -1.28,-0.13 -3,-0.06 -4.32,0 -0.43,-3.99 -2.47,-0.69 -3.24,-0.74 -1.15,-0.07 -0.75,-3.33 -1.08,-3.58 -0.79,-0.58 -2.77,1.98 -3.58,1.43 -1.4,-0.96 -1.58,-8.63 -7.21,-5.76 2.01,-4.37 -2.67,-1.94 -2.88,-2.16 v -4.32 c 0,0 -2.88,2.88 -2.88,2.88 0.03,-0.24 -0.04,-0.49 0,-0.72 z"
     id="path62" />
  <path
     class="st12"
     d="m 103.73,53.25 c 2.45,1.58 4.66,4.39 2.33,6.92 0.65,1.26 -0.12,2.8 -2.33,4.6 -2.57,1.18 -3.79,1.49 -6.48,2.16 1.62,-1.73 -1.6,-4.8 -1.44,-5.02 0.07,-0.1 2.13,-0.42 2.15,-1.1 0.02,-0.68 -3.48,-1.41 -2.86,-3.24 0.62,0.61 4.59,2.47 4.29,0.4 -0.35,-2.37 -1.36,-5.06 -4.29,-4.72 3.7,-0.41 4.52,-0.9 8.64,0 z"
     id="path64" />
  <path
     class="st17"
     d="m 76.37,80.61 c 3.06,-1.02 6.36,-1.68 5.76,-5.76 2.53,2.3 11.96,9.94 3.94,11.5 -5.49,1.07 -7,-2.23 -9.7,-5.74 z"
     id="path66" />
  <path
     class="st16"
     d="m 103.73,64.77 c -1.17,-1.8 2.49,-2.45 1.44,-3.59 -0.86,-0.93 -4.51,0.63 -3.6,-1.08 0.48,-0.91 2.25,0.57 0.73,-3.25 l 2.87,2.88 c 1.46,-3.52 -1.29,-3.64 -1.43,-6.48 2.22,0.49 8.7,2.64 8.68,5.41 -0.01,1.89 -6.95,5.31 -8.68,6.11 z"
     id="path68" />
  <path
     class="st13"
     d="m 32.45,69.09 c 4.1,2.09 9.03,2.13 12.95,3.96 -2.67,1.88 -2.95,5.02 -4.31,7.56 -0.2,0.38 -0.82,1.5 -1.08,1.45 -1.42,-2.44 -3.39,-0.6 -2.53,-5.04 -1.52,0.32 -0.38,3.42 -2.86,2.87 0.5,-4.43 -3.78,-4.48 -4.34,-5.04 -0.29,-0.3 0.85,-1.99 0.73,-2.15 -0.24,-0.33 -3.13,0.1 -3.6,-1.09 z"
     id="path70" />
  <path
     class="st28"
     d="m 40.37,57.57 c -0.83,-0.22 -4.05,1.23 -4.24,1.52 -0.15,0.23 0.63,4.99 2.81,3.52 l -1.45,2.87 c -3.18,-1.19 -7.34,-2.23 -6.19,-6.53 1.15,-4.3 6.61,-1.8 9.07,-1.39 z"
     id="path72" />
  <path
     class="st29"
     d="m 47.57,78.45 c -0.1,2.39 4.62,2.58 0.72,3.96 l 1.8,1.8 1.13,-2.82 4.98,-0.06 c -0.26,0.33 -0.22,1.38 -1.01,2.2 -6.2,6.35 -12.77,3.77 -7.63,-5.08 z"
     id="path74" />
  <path
     class="st21"
     d="m 33.89,51.09 c -0.92,-0.93 1.06,-11.58 1.51,-12.04 1.68,-0.28 2.89,-1.63 3.62,-4.06 3.02,-0.69 6.07,-1.31 9.15,-1.85 1.34,-3.84 6.85,-1.37 6.59,2.11 -0.07,2.28 0.32,5.66 0.72,7.92 l -3.24,1.44 -1.81,-3.6 -0.71,2.87 c -1.88,0.62 -2.33,-2.65 -3.25,-2.87 -1.51,-0.37 -1.5,1.85 -1.86,2.09 -0.22,0.14 -1.85,-0.98 -3.05,-0.6 -1.02,0.32 -1.52,2.83 -3.26,2.92 l 0.62,2.07 -2.15,-1.44 -0.73,5.04 c -0.72,-0.04 -1.44,0.04 -2.16,0 z"
     id="path76" />
  <path
     class="st26"
     d="m 33.89,51.09 c -2.9,-0.14 -0.48,-2.4 -0.67,-5.39 -0.22,-3.48 -3.87,-4.67 1.05,-4.65 1.01,-1.7 -0.28,-5.08 0.48,-6.37 0.24,-0.41 2.44,-1.02 3.21,-1.82 0.26,-0.27 3.66,-5.83 4.55,-4.8 0.24,0.27 -0.4,3.39 2.89,2.87 l -1.8,-2.87 c 2.09,0.15 2.71,5.28 4.68,3.59 0.45,-0.38 -1.49,-2.95 -0.36,-3.59 2.2,2.62 4.62,2.34 7.56,2.88 -0.12,0.67 -0.71,4.1 -0.72,4.32 -0.6,-2.19 -2.75,-1.33 -3.46,-1.68 -0.3,-0.15 0.41,-1.58 -1.21,-1.21 -0.65,0.15 -0.33,1.18 -1.12,1.77 -0.63,0.48 -1.89,0.25 -2.12,0.45 -0.23,0.2 1.12,2.18 -0.37,2.82 -0.89,-0.17 0.17,-2.04 -0.7,-2.06 -1.77,-0.05 -3.36,-0.34 -3.62,1.35 -3.66,-4.21 -2.22,5.82 -6.12,2.88 0.9,3.86 -1.91,7.47 -2.17,11.52 z"
     id="path78" />
  <path
     class="st4"
     d="m 69.89,40.29 c 0.06,-0.71 0.4,-8.07 -1.44,-5.76 -0.11,0.14 0.34,1.21 -0.49,2.19 -0.24,0.28 -3.53,3.22 -3.77,3.28 -3.02,0.62 -1.18,-1.95 -2.94,-2.59 l -0.73,5.75 c -0.54,-2.88 -0.93,-4.89 -0.72,-7.92 1.29,-3.94 3.44,-5.6 6.44,-4.99 -0.55,-2.39 0.34,-4.74 2.92,-3.65 0.34,1.04 1.34,5.06 1.46,6.1 0.24,1.99 0.39,5.83 -0.74,7.58 z"
     id="path80" />
  <path
     class="st6"
     d="m 69.17,26.61 c -3.39,2.45 -0.75,3.44 -0.73,3.96 0.05,1.74 -5.45,0.96 -5.66,1.17 -0.69,0.7 -0.32,3.41 -2.97,3.51 0.15,-2.22 1.4,-9.11 2.9,-10.42 2.56,-2.24 5.39,-1.48 6.46,1.78 z"
     id="path82" />
</svg>
