<?xml version="1.0" encoding="UTF-8"?>
<svg id="Layer_1" xmlns="http://www.w3.org/2000/svg" version="1.1" viewBox="0 0 216 216">
  <!-- Generator: Adobe Illustrator 29.8.3, SVG Export Plug-In . SVG Version: 2.1.1 Build 3)  -->
  <defs>
    <style>
      .st0 {
        fill: #a94db9;
      }

      .st1 {
        fill: #cf77de;
      }

      .st2 {
        fill: #c46dd4;
      }

      .st3 {
        fill: #ba60ca;
      }

      .st4 {
        fill: #c870d8;
      }

      .st5 {
        fill: #a950b9;
      }

      .st6 {
        fill: #bc62cc;
      }

      .st7 {
        fill: #d47de3;
      }

      .st8 {
        fill: #b257c2;
      }

      .st9 {
        fill: #a74eb7;
      }

      .st10 {
        fill: #ab50ba;
      }

      .st11 {
        fill: #a94eb9;
      }

      .st12 {
        fill: #cc76db;
      }

      .st13 {
        fill: #bd66cd;
      }

      .st14 {
        fill: #b55bc4;
      }

      .st15 {
        fill: #a84fb8;
      }

      .st16 {
        fill: #c26cd1;
      }

      .st17 {
        fill: #c46cd3;
      }

      .st18 {
        fill: #af56bf;
      }

      .st19 {
        fill: #b45bc4;
      }

      .st20 {
        fill: #a046b0;
      }

      .st21 {
        fill: #cc74db;
      }

      .st22 {
        fill: #c56cd5;
      }

      .st23 {
        fill: #c76fd7;
      }

      .st24 {
        fill: #a74cb6;
      }

      .st25 {
        fill: #a64db6;
      }

      .st26 {
        fill: #c068cf;
      }

      .st27 {
        fill: #b65ec6;
      }

      .st28 {
        fill: #ca73d9;
      }

      .st29 {
        fill: #c56dd4;
      }

      .st30 {
        fill: #cd75dc;
      }

      .st31 {
        fill: #ba61ca;
      }

      .st32 {
        fill: #010001;
      }

      .st33 {
        fill: #a74db7;
      }
    </style>
  </defs>
  <path d="M123.11,56.06c.27.26,7.1,1.37,7.47,1.3,1.71-.34,2.33-4.57,4.76-4.17.56,1.3-1.13,5.12-.69,5.72.53.72,6.62,2.25,7.54.06,1.56.76.21,2.39,1.03,3.22,2.97,3,5.19,1.57,8.69,1.09-1.84,1.97-1.6,4.87,1.39,5.44.97.18,5.13-2.94,7.25-1.84-5.2,5.73-.98,10.76,5.76,7.92-7.23,5.87,4.32,8.98,4.31,9.71,0,.35-4.02,2.68-1.06,6.12.85.99,3.38,1.03,4.67,1.45-2.5,2.16-4.19,3.88-2.19,7.44.32.56,7.59,1.55,5.8,3.35-.29.29-4.83.58-5,.77-.23.25-.89,6.37-.82,6.7.17.86,3.49.95,3.66,2.61-5.36.99-5.09,2.1-2.16,5.76-3.71-1.22-7.43,7.63-4.33,9.73-.8,1.5-2.12.11-3.25.98-.37.29-2.97,4.5-3.09,4.97-.59,2.31,1.23,3.12,1.3,5.21-1.43.33-2.99-1.58-4.34-1.07-5.05,1.92-.42,7.24-1.42,8.27-2.34.25-4.08-1.83-6.49-1.15-.38.11-5.26,2.99-5.42,3.27-.44.78,1.45,3.46-.76,4.33-2.27.35-3.13-2.14-5.34-1.85-2.36.31-7.12,1.8-5.76,4.76-2.97-1.38-5.81-1.64-8.82,0-1.15.62-1.07,3.25-2.31,3.45-.94.15-2.89-1.84-4.84-1.85-.68,0-5.17.68-5.65.91-1.04.5-1.19,2.48-1.87,2.6-1.78.3-3.29-1.88-4.98-2.19-2.55-.48-6.18.06-8.97-.75.29,7.4-4.01-.4-4.87-.7-.68-.24-6.29-1.36-7.07-1.4-1.38-.08-2.85,1-4.16.6-.91-.28-.96-1.67-1.69-2.13-.37-.23-6.85-2.7-7.24-2.75-1.88-.25-3.06,2.35-5.23,1.01-1.52-.94-1.01-3.73-1.58-4.55-.31-.43-7.31-4.7-8.82-5.94-1.9-1.56-4.86-5.58-6.46-6.5-1.44-.83-3.8-.52-4.42-1.35-.92-1.22.59-3.51.31-5.27-.06-.35-2.49-6.29-2.69-6.58-.68-.96-4.14-.36-4.44-1.62-.73-3.05,1.81-3.72,2.19-5.67.19-.98.25-4.76.04-5.63-.25-1.02-3.67-.78-3.67-2.99s4.43-2.85,4.41-5.05c-.02-1.73-3.4-2.13-3.4-4.31,0-3.31,4.72-2.81,5.38-3.37.24-.21,2.24-5.67,2.25-5.99,0-1.23-1.57-2.99-1.39-3.23s3.5-1.1,5.04-2.53c2.72-2.53,2.17-5,3.24-6.84.62-1.06,4.05-1.56,5.01-3.63.62-1.34.12-3.32,1.4-4.37s4.9.27,6.15-1.43c.49-.67-2.85-4.25.03-6.09,2.15-1.38,3.36,1.88,5.05,2.56.06-1.25-.48-7.26,1.09-7.19.61.03,3.36,6.3,5.05,3.59-1.01-6.94,2.05-8.04,5.76-2.17,1.99-.55.48-2.19,3.95-.72v-4.32c2.14-.54,1.4,1.84,2.86,2.53,5.32,2.51,4.67-2.9,6.15-3.24,1.83-.42,1.44,2.7,2.23,2.92s5.28.1,6.38-.07c1.19-.18,1.85-1.41,2.89-1.45.43-.01.26,1.32.84,1.47.54.14,10.01.87,10.7.79,1.56-.17,2.7-3.98,4.66-4.39.21,1.07-.27,5.48.01,5.75Z"/>
  <path class="st20" d="M60.47,135.26c-11.21-10.54-14.28-25.27-9.02-39.62,1.84-5.01,5.08-5.03,5.82-6.46s-.55-2.8.37-4.56c9.57-18.21,37.73-24.71,56.29-21.89,2.64.4,3.15,2.42,4.48,2.41,1.82-.01,1.76-1.88,2.22-1.89,7.38-.25,21,7.05,26.94,11.53.03,4.58-5.72,5.79-7.92,2.16-1.55,2.39-8.04-1-7.2-3.6-3.94.02-6.31-.08-8.73-3.53l-4.37.99c-1.71-2.9-4.28-3.45-7.7-1.66-.08-.49-.16-.88-.27-.89-3.39-.25-6.18-.49-9.18-2.23-1.96.57-3.01,1.55-3.15,2.96l-1.87.75c-1.68,1.23-2.32,2.37-3.26,4.48l-3.21.69c-1,1.88-4.14,2.77-5.78,1.31-.4,1.81-1.6,1.57-3.6-.72-.96-1.01-2.27-.07-2.3.14-.52,2.99-2.73,2.12-4.45.36-1.42,1.41-3.16,2.9-5.24,4.49,1.48,1.64,1.24,3.33-.25,5.09.64.81.96,1.65.95,2.53-2.09,1.85-4.45,5.38-5.95,7.85-.57.94-1.5,2.4-2.28,2.36.74,1.6,0,2.51-1.47,3.29-.97,3.39-2.46,6.46-4.46,9.2,2.68,1.8,5.76,8.3,3.86,10.77.11,1.47.06,2.95-.15,4.45,2.81,1.5,3.41,4.13,2.21,6.43,2.13,1.82,1.06,4.57-1.34,2.81Z"/>
  <path class="st20" d="M122.39,148.94c-3.66-2.19,1.7-8.7,4.86-5.76.48-2.61,2.46-4.53,5.94-5.76l.43-1.67c2.14-1.47,4.36-2.73,6.67-3.77l1.54-2.48c-1.62-1.21-1.26-1.75.72-1.44,1.33-.48,2.77-.64,4.32-.48,1.43-2.6,3.44-4.32,6.01-5.15,5.21,2.95,3.23-.62,1.32-4.06,2.47-3.52.58-10.63-.84-14.84-.57-3.53-.33-6.05.4-9.28-1.83-2.29-1.23-4.27,1.69-4.9-2.24-1.48-3.42-3.21-3.54-5.21-.99.15-5.08-4.29-5.3-5.36-.35-1.68-.07-2.73,1.7-3.28,9.19,7.27,17.12,17.78,16.58,30.56-.1,2.25-2.26,11.28-3.07,13.55-2.33,6.45-11.49,20.42-18.53,21.82-1.3.26-2.57-.73-3.6-.08-.57.36-.84,1.67-1.51,2.15-2.51,1.8-12.32,4.6-15.79,5.45Z"/>
  <path class="st24" d="M59.75,121.58l1.02.03c.18,2.08,1.18,3.96,3.01,5.62l.23,2.97c1.26-.87,6.74,1.03,7.03,1.8-1.07,4.29,2.58,7.13,6.68,6.41,1.21,1.27,2.53,2.71,3.62,4.04,2.7-.01,7.59,3.75,4.32,5.76-2.66-.66-8.41-2.22-10.59-3.45-1.66-.94-2.33-2.88-2.89-3.04-6-1.69-6.88-1.92-11.72-6.47,3.18-1.71.08-1.18-.02-1.87-.43-3.01,1.4-2.47,1.48-2.8.49-2.06-1.06-1.66-1.22-1.97s.46-.94.32-1.13c-.28-.4-1.67-.41-1.95-1.3-.33-1.05,1.06-3.22.67-4.6Z"/>
  <path class="st25" d="M133.19,137.42c.08,2.45-3.79,2.07-4.65,4.3-.31.79,1.31,3.17-2.87,2.94-.44-.02-.43-1.5-.75-1.49-2.22.06-2.23,4.03-2.53,5.77-2.37.58-9.24,2.24-11.2,2.21-1.73-.02-1.02-2.27-2.84-2.26-1.25,0-1.94,1.85-3.61,2.2-2.42.5-3.45-.58-4.67-.71-.91-3.01,3.49-4.49,5.76-3.6,1.32-2.4,2.89-3.2,2.58.26,1.58-2.04,3.14-2.42,5.19-.57,2.53-3.6,4.44-4.79,9.13-3.54.19.05-3.37,1.23-2.5-1.19,1.43-1.05,3.35-1.8,5.77-2.25,1.48-1.59,2.91-2.28,4.31-2.07.82-1.42,2.41-1.23,2.88,0Z"/>
  <path class="st3" d="M114.47,139.58l.1,1.55c-2.79,1.03-4.53,2.18-6.13,4.74-.72-.49-1.59-.19-2.6.91-2.49,2.17-4.35,1.11-5.76,3.6-.24-.03-.48.02-.72,0-1.49-.07-1.93-1.02-1.32-2.85-1.89,1.29-4.2.69-6.93-1.77-5.54-.26-7.1-1.36-4.7-3.29.43-1.98,5.29-3.73,7.2-2.88.47.32.73.76.82,1.31.32,2.05-1.37-.61,1.63-.48,1.33.06,1.88.47,2.82,1.38,2.24.55,3.8.73,4.63-1.28,2.79-1.04,5.63-2.16,8.11-3.82,1.69-1.31,3.97,1.16,2.88,2.88Z"/>
  <path class="st8" d="M86.39,142.46c.12.08-.32,1.33.43,1.43,4.56.6,3.65-.57,7.95,2.47.4.29.24,1.08.29,1.12.33.21,3.13-2.46,3.55-2.14,1.65,2.36.29,2.86.74,5.04-4.85-.49-8.94-.98-13.68-2.16.35-2.59-2.89-3.81-4.32-5.76v-.72c.66-1.93,4.95-1.39,5.04.72Z"/>
  <path class="st33" d="M148.31,75.5c-1.71,3.28,1.08,4.11,2.4,5.94.62.87.91,2.33,1.2,2.7-2.89,3.56-9.4,5.89-7.13-.91l-2.24-1.47c-3.47,2.28-5.44-3.11-2.87-4.82,1.73.37,1.68.56,3.59-.72l.35,2.15,3.97-3.59c.27.2.47.52.72.72Z"/>
  <path class="st18" d="M106.55,69.74c-.91-2.82,4.18-1.88,5.84-.9l4.09-.76c2.94,3.83,5.36,5.81,10.23,6.37,2.33-1.8,2.97-2.28,5.76-1.1,2.36,1.73,4.05,2.93,7.2,3.6l.73,4.32c1.26.31.46-1.21.73-1.41.5-.39,6.32,2.35,5.76,4.66-.12.52-2.19-.09-1.46,1.8,1.94.66,4.83-3.57,6.48-2.16,2.26,3.62,2.19,5.48-.22,5.59,2.33-.36,2.3.63,1.18,2.48.35,1.03.9,2.01,1.63,2.93l-.87.72c-.02,4.29-1.31,6.38-3.89,6.27-.75,1.98-3.41.51-2.88-1.44-.03-.59-.04-1.26.47-1.52-1.94-.52-2.36-1.96-.47-2.8.28-3.07-1.45-5.03-5.19-5.89-.73-4.13-2.05-6.14-6.39-5.67-1.66-1.59-3.32-2.38-4.97-2.38l-2.17-3.34c-2.4,1.56-8.33-.53-10.21-2.87-1.67,2.63-4.63,2.14-6.35-.01-2.01.05-4.91-4.43-5.04-6.48Z"/>
  <path class="st10" d="M69.11,85.58c3.58.14,3.09,3.41.43,5.13l-1.02.73c.19,2.57-.23,4.64-2.73,5.86,2.76.84,2.39,2.67-1.13,5.5-1.54,1.25-1.74,2.47-.6,3.65,1.33,1.47,1.1,6.96,0,8.64-.91,3.01-.51,5.23.56,7.91,2.5,1.62,4.28,3.81,5.35,6.57,2.81-.36,3.61,1.81,3.02,4.38,1.79.7,4.31,2.06,5.48,3.46,1.93-.26,3.86,2.63,2.88,4.32v.72c-.61-1.28-2.75-.68-2.82-.81-.29-.55.41-1.76-.51-2.1-1.32-.5-5.72.16-5.96-.01-.28-.2-.35-1.76-.86-2.41-.63-.79-2.12-1.14-2.15-1.55-.09-1.17,2.57-3.14.4-3.91-2.82-1-1.29,4.01-3.22,2.15-.15-.14-.54-2.29-.74-2.87-1.24-.34-.45,1.09-.77,1.38-.08.07-1.93-.69-1.99-.78-.46-.73.15-2.58-.22-3.73s-2.43-1.35-2.55-2.22c-.19-1.3.7-1.36-.22-4.01-.61-1.75-2.35-7.02-3.02-8.14-.72-1.21-2.46-1.64-2.73-2.31-1.03-2.52,1.42-1.4,1.99-1.9.36-.32.56-2.67,1.04-3.69,1.17-2.51,3.39-2.49.56-6.27,6.6,1.69,1.87-.19,2.16-1.79.25-1.37,2.59-.05,3.26-1.09.39-.6-.57-1.59-.31-2.02.33-.54,6.68-3.25,4.24-5.9,2.63.4,2.39-.49,2.17-2.88Z"/>
  <path class="st11" d="M97.19,69.74c1.25-2.33.79-5.53,3.6-3.59-.37-2.7.43-2.27,2.89-2.16l-.73,1.43c3.31-.29,5.97,2.51,9.22,2.76,2.12.17,2.54-.93,3.81-.97,2.03-.07,2.31,2.11,3.47,2.22.72.07,3.6-1.52,4.95-.9s4.1,6.55,5.54.5c1.89.81.06,3.22.37,3.57.08.09,1.25.09,2.15.75-3.08-.44-4.4,3.59-7.56,2.59-.75-.24-1.22-1.21-1.78-1.4-1.58-.55-3.02.4-4.76-1.85-2.1-2.7.74-4.61-4.83-3.51-.86.17-2.85,1.78-3.39,1.28-1.65-1.52,2.41-1.22,1.06-2.17l-4.67,1.45c-2.18,1.22-7.1,1.82-9.36.72-.63-.2-.62-.44,0-.72Z"/>
  <path class="st9" d="M69.11,85.58c-.07-.72-2.18-1.7.72-2.52-5.28-3.87,2.18-5.21,3.27-6.86.37-.56-.58-2.63.7-2.86,2.25-.41,2.35,3.43,2.52,3.6,1.51,1.54,1.2-1.73,1.9-2.18,3.4-2.16,2.97.59,3.13.74.24.24,2.93.7,3.6.72.63.2.62.44,0,.72,1.57.95,1.66,1.58-.13,1.48.38,3.64-4.97-.86-3.47-2.92.11,1.99.22,5.34-1.74,2.64-1.57,1.02-3.17,1.16-4.79.44l-2.5,3.77c-.04,3.73-1.11,4.81-3.21,3.23Z"/>
  <path class="st15" d="M84.95,76.22c5.09.19,3.27-1.45,5.04-2.53,2.18-1.32,4.66,1.31,4.33-4.67l2.87.72v.72c.72,1.17.39,2.73-.98,4.67-.56,2.92-1.67,4.72-3.34,5.41-2.37.03-4.74-.8-7.09-2.48-1,1.03-1.05.33-.83-1.12v-.72Z"/>
  <path class="st5" d="M151.91,84.14c.89,1.11,5.41,4.76,5.76,5.41,1.12,2.08-4.85.88-4.32,2.87.1.38,2.6,1.24,2.88,2.89-.13.77-1.75.06-2.08.4-1.17,1.2,2.7,16.7,2.84,19.83.1,2.34-1.5,1.66-1.51,2.1-.05,1.37,2.6,4.01,2.83,5.77-.08.79-3.22,1.75-3.96,1.79-1.48.1-.58-1.77-1.98-1.4-3.17.82-4.69,6.09-9.81,4.27-1.63-2.19,1.31-3.22,3.48-2.49.49-1.9,1.43-3.7,3.35-4.49-1.82-1.21-2.41-2.48-1.79-3.82l-.1-1.67c4.31-2.88,7.54-7.91,2.25-11.69v-1.76c1.06-1.35,3.45-4.7,3.46-6.25,0-.94-1-1.56-1.07-2.14-.11-1,.78-2.62.49-3.13-.09-.16-1.97,1.59-2.14-1.81l2.15-.36c.33-1.22-1.41-.31-1.51-1.14s1.13-2.88.79-3.17Z"/>
  <path class="st27" d="M147.59,117.26l5.04,5.03c-5.22-1.04-4.92,4.27-5.76,5.05-.54.5-2.38-2.12-4.31.71-.44.65-.46.74-.72,1.44-1.2,2.33-3.58,3.96-7.13,4.88-.9,1.75-3.56,3.76-2.95.88-2.13-.44-1.95-3.09,0-3.6l6.03-4.24c-.55-3.93.85-5.62,4.41-6.16l-.36-1.12c-1.02-1.94,4.42-4.54,5.76-2.88Z"/>
  <path class="st0" d="M141.83,129.5c-.21.57.32,1.83-.35,2.87-.77,1.21-3.02,1.23-3.25,1.46-1.46,1.51,1.82,1.13,1.43,2.14-2.7-.82-4.53.94-6.48,1.45-.77.2-2-.14-2.88,0-2.08-1.03-.51-3.67,1.44-2.16.07,0,.39.61.68.72.24-4.78,6.56-3.18,9.4-6.48Z"/>
  <path class="st32" d="M133.91,98.54c.21-2.18,4.17-2.23,4.32,0,2.32-1.43,8.16-.75,8.64,2.16.15.06,2.75,1.35,2.88,1.44,7.51,4.97,3.95,11.13-2.16,15.12-.55.36-4.92,2.52-5.76,2.88-3.23,3.1-7.63,4.72-13.2,4.87l3.89,4.94-.77,1.71c.27.86-.19,2.56,0,3.6-.98.12-.97,1.57-1.44,2.16-2.8,3.54-5.35,4.83-10.08,4.32-1.12,1.97-6.65.26-5.76-2.16-.17-.12-2.56-2.52-2.88-2.88-1.67,1.12-2.39.16-2.16-2.88-2.66,1.34-5.62-7.15-4.43-9.01s3.64-2.69,4.43-.35c2.08-.18,5.39,4.5,4.32,6.48l1.33-.08c5.75,7.96,16.05,5.17,4.91-3.33l-.47-2.35c-3.34,1.26-10.28-5.72-5.78-8.74,4.48-.48,9.09-.32,13.85.48,2.89-.73,5.24-.62,7.05.33.25-2.03,4.89-3.87,6.48-2.16,1.96-2.27,4.39-4.34,7.29-6.21-2.5-1.69-4.93-3.46-7.29-5.31-1.1,2.05-4.74.98-6.55.08l-2.09-.08-.83,1.54c-6.52.74-12.71,3.01-18.57,6.81-2.98,1.63-8.86,2.91-8.29-2.07.54-4.71,14.78-9.71,18.88-10.77,3.62-.94,6.26-1.33,9.6-1.46l.65.92Z"/>
  <path class="st18" d="M120.23,141.74c.87.3,1.59,1.1,2.88.73-.19,1.36-1.69,1.06-2.65,1.7-.38.25-.19,1.13-.24,1.16-.45.32-1.46-1.88-2.8-1.36-.31.12-2.23,4.38-4.74,4.29-.38-.01-.06-2.03-2.17-1.49-.23.06-.96,2.67-3.96,1.45l.71-2.87c-.94-.2-.86.94-1.43,1.44l4.14-5.06,4.5-2.14c1.75,1.2,3.83,1.49,5.76,2.16Z"/>
  <path class="st23" d="M98.63,134.54c1.11-1.15,2.25-.76,3.4,1.17,2.75-3.68,4.72-4.12,5.91-1.31l1.49-.58c.49.75,1.59,2.24,2.16,2.88-.02,1.63,1.7,1.59-.34,2.16-3.07.87-4.59,2.53-7.59,2.89.24,1.21,1.01,2.03-.36,2.86-2.01.71-1.68-1.32-2.27-1.43-1.1-.2-2.34.23-3.38,0-.57-.13-.42-1.47-.83-1.47-1.74,0-4.03,4.19-5.4.75l2.16-2.89c-1.43-1.76,3.14-6.05,5.04-5.04Z"/>
  <path class="st32" d="M75.59,102.14c.07-.39.18-.74.41-.93,2.41-2.02,18.56,4.6,20.74,7.83,3.45,5.13,1.64,9.55-4.33,6.27-4.17-3.52-8.8-5.46-13.9-5.83l-.76-1.57c-6.75-.73-12.19,2.63-3.47,6.26l.59,1.66,1.18-1.11c6.1,1.72,12.52,2.7,18.87,2.62l.83,1.37c4.74,3.8-2.24,6.41-6.09,7.18-1.58,1.44-3.15,2.41-4.71,2.9-.2.73.14,1.38.57,1.99-2.53,6.6.16,6.9,8.07.89-.23-.28-.43-.57-.52-.88-.13-.5,4.51-8.55,4.86-8.93,2.27-2.48,5.18-2.21,6.07,1.11.67,2.51-2.08,12.16-5.37,11.58-.21.29-4.76,4.82-5.04,5.04-1.64,1.24-5.13,2.69-7.2,2.88-.24-.18-4.24-.3-5.04-.72-.71-.37-2.57-3.19-2.88-4.32-3.24-.77-1.61-4.96,0-6.48-1.01-1.9-.46-4.24,1.65-7.03l-9.71-2.64-.59-1.85c-2.37.85-6.8-1.82-5.76-4.32-1-1.75-1-6.91,0-8.64l-.52-1.52c3.22-3.58,7.23-4.52,12.04-2.8Z"/>
  <path class="st32" d="M106.55,69.74c2,.87,4.44,4.46,5.04,6.48,2.96.46,1.96,4.05,1.05,5.89l.39,3.47v.72l1.25,1.34c-.41,3.67-3.82,21.86-9.49,19.29-2.44-1.1-1.6-5.93-1.23-8.05.39-2.25,1.79-7.58,3.71-8.26.46-1.63.52-3.33.39-4.99-1.27-2.14-2.05-6.17-1.11-8.69-4.28-3.26-7.09-.66-8.45,7.81l-.91.83c1.41.59,2.05,1.82.68,2.57l.04,5.35,1.56.4c1.41,2.71,4.93,11.72,3.17,13.94-3.47,4.38-6.45-.99-8.05-3.98-1.18-2.2-3.85-9.01-1.72-10.37-2.43-.29-3.12-7.25-.72-7.92-1.22-1.71-2.07-3.53.72-4.32-.63-.24-.63-.48,0-.72.37-1.79,3-9.39,4.32-10.08,2.08-1.09,7.09-1.71,9.36-.72Z"/>
  <path class="st22" d="M111.59,76.22c1.35-1.15,2.35.58,3.68.4,1.78-.23,1.59-3.06,3.51-2.56.1.92.58,2.13,1.44,2.53,2.2,1.03,5.44,1.27,7.93,2.5,1.3,1.59,2.4,3.29,3.27,5.11,4.68-.7,8.87,5.11,11.01,8.74,1.52-2.94,6.09,1.05,4.44,3.43.03.48-.03.96,0,1.44l2.88-.35c-.19,1.54-1.17,3.28-2.89,3.23-1.75-.65-6.92-1.98-8.64-2.16-.4-.42-.75-1-.51-1.45,1.27-2.31.18-3.54-2.32-4.2-2.12-2.75-4.52-4.4-7.19-4.95-2.24.35-4.78.19-7.62-.51l-1.91-1.37c.34-5.81-4.2-5.04-5.65-.48-1.33-2.63-.49-6.18-1.44-9.36Z"/>
  <path class="st31" d="M128.15,79.1c1.45.72,2.39,1.98,2.57,2.03,1.77.42,2.19-1.95,3.55,2.29l1.43-1.44-.36,1.44c.87.34,4.77-.05,4.94.13.44.43.45,2.1,1.56,3.11.22.2,5.29,2.26,2.51,2.44-.68.04-1.42-.88-1.81.81,2.1-.11,2.62,1.65,3.24-.71,2.85,1.76-.61,5.08,3.24,4.33l-2.16,2.87c-.19-3.32-.23-1.38-1.91-2.41-.43-.27-.22-1.15-.27-1.18-.85-.61-1.1,2.83-2.5,2.15-1.24-.74-1.35-2.83-2.18-3.6-1.29-1.21-1.21-.99-2.27-2.13-.42-.45-3.08-3.32-3.3-3.4-1.36-.5-3.53.12-4.05-.32-.26-.22-2.47-5.36-2.26-6.37Z"/>
  <path class="st19" d="M81.35,75.5c.21.13,1.97,3.94,2.87,3.6l.73-2.16,2.09,1.09,1.52-1.08-.36,1.44,2.51-1.45v2.88s2.17.72,2.17.72c-.05.23.04.49,0,.72-1.25,1.32-3.18,1.41-5.78.29-1.22,3.35-6.47,1.4-8.2-.83-1.34,2.48-3.2,4.23-5.56,5.23.25,2.52.04,5.82-2.15,7.06l.61,1.81c-.95,2.98-1.13,5.18-.52,6.6.66-1.95,1.5-1.96,2.16,0,.74-2.39,3.17-1.65,2.16.72-1.92-.12-4.73-.24-6.52.32-.63.2-4.78,3.63-5,4-.83.15-3.01-.05-2.53-1.43.89-2.54,3.58-4.66,5.41-6.49l-3.59.71c-1.11-3.72,2.11-2.43,3.3-4.5.5-.86.99-4.09,2.13-5.59.59-.79,4.71.15.32-3.59h2.15c-1.36-3.99.22-4.29,1.94-6.75.43-.62.14-1.77.25-1.88.5-.5,5.64,1.94,7.19.7l-.72-2.15c.44.05,1.26-.12,1.44,0Z"/>
  <path class="st14" d="M64.07,115.1c.32.55,4.88,3.87,5.76,4.32-1.84,3.92.88,7.33,5.67,7.39.07,1.88.89,3.2,2.46,3.96-1.74.4-1.57.46.51.17-.13,2.01-.54,4.52,0,6.48h-4.31c.59-2.95-1.11-1.75-1.95-2.32-1.47-.99-.04-4.03-.21-4.16-.26-.2-1.89.32-2.73-.15-1.79-.99-.36-6.14-4.47-3.45,1.42-3.58-.13-3.83-3.61-3.61,3.51-2.7,1.37-1.33.84-4.12-.16-.84.63-2.07.51-2.28-.4-.66-5.02-1.96,1.53-2.24Z"/>
  <path class="st2" d="M141.83,120.14c3.98.39-2.08,3.13-2.23,3.36-.99,1.52.19,3.52-.69,4.81-1.59,2.33-4.28,4.13-7.16,3.35-.66-2.12-4.62-5.69-5.76-7.91,5.41-.34,10.87-1.47,15.84-3.61Z"/>
  <path class="st7" d="M113.03,86.3c.44-4.08,3.99-5.47,4.32-.73,2.45,1.11,4.82,2.41,7.11,3.91l2.13,4.37c2.25-1.51,4.42-1.48,4.63,1.57,2.82-.66,5.24,1.17,2.7,3.12-6.15.3-15.81,3.54-21.36,6.36-3.19,1.62-5.59,2.41-6.68,6.27-.13.56,2.12.88,2.87.76,3.88-.65,10.74-5.46,15.43-6.93,3.23-1.01,5.08-1.06,8.3-1.42,6.97-.7,6.66,5.2,3.06,9.6,1.19,2.03,1.65,3.16-.9,4.08-8.61,2.15-9.76.61-17.75.05-2.66-.19-4.1.89-2.78,3.56.16.31,4.3,3.3,5.41,4.31,3.45,3.54-2.66,8.14-5.76,5.76-1.32-1.71-3.55-4.58-4.32-6.48-3.53-.5-5.17-1.69-4.92-3.55-2.65.04-4.31-.96-3.17-3.68-.85,1.42-4.34,2.61-5.59,1.48-4.6.55-16.33-1.17-20.88-2.88-3.4-4.37-4.76-8.97,2.88-7.92,3.12.52,5.5.47,8.63,1.81,1.89.81,12.52,9.92,10.51,2.49-1.59-5.9-15.92-9.72-21.3-10.06-.35-.95-1.37-.68-2.16-.72-3.06-3.04,3.59-10.35,7.36-9.91,2.12-2,3.75-2.2,5.42.33,1.3-2.28,3.38-.97,4.11,1.21,1.04-.65,1.71-.65,2.55.44.49,2.77,3.67,14.45,6.84,14.42,1.08,0,2.51-1.3,2.4-2.41-.21-2.22-3.47-8.14-4.2-12.02-.37-3.46-.29-10.08,3.14-4.55l3.22-2.83c2.68-6.91,4.4.69,2.99,4.5-.4,4.74-3.73,9.54-2.52,13.7.27.93.17,1.72,1.43,1.41,3.92-1.61,6.27-15.41,6.85-19.43Z"/>
  <path class="st1" d="M95.75,118.7c.26-.03,1.28-.95,1.99-1.23.76-.3,2.2-.11,2.33-.21.23-.18-1.29-4.47.34-5.75,5.16,1.3,2.26,4.02,1.81,7.91,3.33-.05,4.04-.8,3.6,2.89,1.83.67,1.33-1.06,1.6-1.22,2.89-1.7,1.19,1.37,2,3.38-6.57-1.12-1.62,6.89,0,9.36-.24,2.28-.82,3.19-3.23,2.88-.98-.13,1.83-3.15-.73-2.88-1.44,2.62-3.71,3.75-5.77,5.75-.03-2.85,2.58-2.82-1.08-5.04,1.47-1.96,6.55-12.02,2.5-12.96-2.36-.55-3.97,5.4-4.78,6.71-.92,1.49-1.86,2.23-2.75,3.37-.85,1.18-2.22,1.74-4.08,1.68-3.5,5.34-5.62-.64-4.56-4.56,1.22-2.1,1.68-3.02,4.08-4.2,3.45-1.7,7.74-.41,6.72-5.88Z"/>
  <path class="st30" d="M113.03,85.58c.2-1.28-.54-3.89.7-4.74.3-.2,6.12.11,6.47.48.61.64-3.52,6.68,4.71,4.23l.37,2.19c1.24-1.18,3.51-1.59,5.11-1.02,2.82,1.01,1.89,4.35,6.4,2.46-1.97,4.13.34,2.14,1.8,3.57.92.9.82,2.99,1.79,3.99l-2.15,1.79c-1.28-.13-3-.06-4.32,0-.43-3.99-2.47-.69-3.24-.74-1.15-.07-.75-3.33-1.08-3.58-.79-.58-2.77,1.98-3.58,1.43-1.4-.96-1.58-8.63-7.21-5.76,2.01-4.37-2.67-1.94-2.88-2.16v-4.32s-2.88,2.88-2.88,2.88c.03-.24-.04-.49,0-.72Z"/>
  <path class="st12" d="M141.11,103.58c2.45,1.58,4.66,4.39,2.33,6.92.65,1.26-.12,2.8-2.33,4.6-2.57,1.18-3.79,1.49-6.48,2.16,1.62-1.73-1.6-4.8-1.44-5.02.07-.1,2.13-.42,2.15-1.1s-3.48-1.41-2.86-3.24c.62.61,4.59,2.47,4.29.4-.35-2.37-1.36-5.06-4.29-4.72,3.7-.41,4.52-.9,8.64,0Z"/>
  <path class="st17" d="M113.75,130.94c3.06-1.02,6.36-1.68,5.76-5.76,2.53,2.3,11.96,9.94,3.94,11.5-5.49,1.07-7-2.23-9.7-5.74Z"/>
  <path class="st16" d="M141.11,115.1c-1.17-1.8,2.49-2.45,1.44-3.59-.86-.93-4.51.63-3.6-1.08.48-.91,2.25.57.73-3.25l2.87,2.88c1.46-3.52-1.29-3.64-1.43-6.48,2.22.49,8.7,2.64,8.68,5.41-.01,1.89-6.95,5.31-8.68,6.11Z"/>
  <path class="st13" d="M69.83,119.42c4.1,2.09,9.03,2.13,12.95,3.96-2.67,1.88-2.95,5.02-4.31,7.56-.2.38-.82,1.5-1.08,1.45-1.42-2.44-3.39-.6-2.53-5.04-1.52.32-.38,3.42-2.86,2.87.5-4.43-3.78-4.48-4.34-5.04-.29-.3.85-1.99.73-2.15-.24-.33-3.13.1-3.6-1.09l5.04-2.52Z"/>
  <path class="st28" d="M77.75,107.9c-.83-.22-4.05,1.23-4.24,1.52-.15.23.63,4.99,2.81,3.52l-1.45,2.87c-3.18-1.19-7.34-2.23-6.19-6.53s6.61-1.8,9.07-1.39Z"/>
  <path class="st29" d="M84.95,128.78c-.1,2.39,4.62,2.58.72,3.96l1.8,1.8,1.13-2.82,4.98-.06c-.26.33-.22,1.38-1.01,2.2-6.2,6.35-12.77,3.77-7.63-5.08Z"/>
  <path class="st21" d="M71.27,101.42c-.92-.93,1.06-11.58,1.51-12.04,1.68-.28,2.89-1.63,3.62-4.06,3.02-.69,6.07-1.31,9.15-1.85,1.34-3.84,6.85-1.37,6.59,2.11-.07,2.28.32,5.66.72,7.92l-3.24,1.44-1.81-3.6-.71,2.87c-1.88.62-2.33-2.65-3.25-2.87-1.51-.37-1.5,1.85-1.86,2.09-.22.14-1.85-.98-3.05-.6-1.02.32-1.52,2.83-3.26,2.92l.62,2.07-2.15-1.44-.73,5.04c-.72-.04-1.44.04-2.16,0Z"/>
  <path class="st26" d="M71.27,101.42c-2.9-.14-.48-2.4-.67-5.39-.22-3.48-3.87-4.67,1.05-4.65,1.01-1.7-.28-5.08.48-6.37.24-.41,2.44-1.02,3.21-1.82.26-.27,3.66-5.83,4.55-4.8.24.27-.4,3.39,2.89,2.87l-1.8-2.87c2.09.15,2.71,5.28,4.68,3.59.45-.38-1.49-2.95-.36-3.59,2.2,2.62,4.62,2.34,7.56,2.88-.12.67-.71,4.1-.72,4.32-.6-2.19-2.75-1.33-3.46-1.68-.3-.15.41-1.58-1.21-1.21-.65.15-.33,1.18-1.12,1.77-.63.48-1.89.25-2.12.45s1.12,2.18-.37,2.82c-.89-.17.17-2.04-.7-2.06-1.77-.05-3.36-.34-3.62,1.35-3.66-4.21-2.22,5.82-6.12,2.88.9,3.86-1.91,7.47-2.17,11.52Z"/>
  <path class="st4" d="M107.27,90.62c.06-.71.4-8.07-1.44-5.76-.11.14.34,1.21-.49,2.19-.24.28-3.53,3.22-3.77,3.28-3.02.62-1.18-1.95-2.94-2.59l-.73,5.75c-.54-2.88-.93-4.89-.72-7.92,1.29-3.94,3.44-5.6,6.44-4.99-.55-2.39.34-4.74,2.92-3.65.34,1.04,1.34,5.06,1.46,6.1.24,1.99.39,5.83-.74,7.58Z"/>
  <path class="st6" d="M106.55,76.94c-3.39,2.45-.75,3.44-.73,3.96.05,1.74-5.45.96-5.66,1.17-.69.7-.32,3.41-2.97,3.51.15-2.22,1.4-9.11,2.9-10.42,2.56-2.24,5.39-1.48,6.46,1.78Z"/>
</svg>