<?xml version="1.0" encoding="UTF-8" standalone="no"?>
<svg
   id="Layer_1"
   version="1.1"
   viewBox="0 0 259.87857 319.02386"
   sodipodi:docname="Saxophone.svg"
   width="259.87857"
   height="319.02386"
   xmlns:inkscape="http://www.inkscape.org/namespaces/inkscape"
   xmlns:sodipodi="http://sodipodi.sourceforge.net/DTD/sodipodi-0.dtd"
   xmlns="http://www.w3.org/2000/svg"
   xmlns:svg="http://www.w3.org/2000/svg">
  <sodipodi:namedview
     id="namedview123"
     pagecolor="#ffffff"
     bordercolor="#000000"
     borderopacity="0.25"
     inkscape:showpageshadow="2"
     inkscape:pageopacity="0.0"
     inkscape:pagecheckerboard="0"
     inkscape:deskcolor="#d1d1d1" />
  <!-- Generator: Adobe Illustrator 29.8.3, SVG Export Plug-In . SVG Version: 2.1.1 Build 3)  -->
  <defs
     id="defs4">
    <style
       id="style2">
      .st0 {
        fill: #b6850e;
      }

      .st1 {
        fill: #fefbb1;
      }

      .st2 {
        fill: #bd8b10;
      }

      .st3 {
        fill: #b69a2c;
      }

      .st4 {
        fill: #be890b;
      }

      .st5 {
        fill: #bc870a;
      }

      .st6 {
        fill: #d3a31d;
      }

      .st7 {
        fill: #f1cb3a;
      }

      .st8 {
        fill: #dfbe44;
      }

      .st9 {
        fill: #b4810a;
      }

      .st10 {
        fill: #bc870b;
      }

      .st11 {
        fill: #edc434;
      }

      .st12 {
        fill: #c69211;
      }

      .st13 {
        fill: #b2800a;
      }

      .st14 {
        fill: #ebc638;
      }

      .st15 {
        fill: #8b7521;
      }

      .st16 {
        fill: #c4a530;
      }

      .st17 {
        fill: #d9b735;
      }

      .st18 {
        fill: #c3a42f;
      }

      .st19 {
        fill: #bd870a;
      }

      .st20 {
        fill: #f6d03c;
      }

      .st21 {
        fill: #614707;
      }

      .st22 {
        fill: #625218;
      }

      .st23 {
        fill: #e3bf35;
      }

      .st24 {
        fill: #a88d29;
      }

      .st25 {
        fill: #a97a0a;
      }

      .st26 {
        fill: #ab9029;
      }

      .st27 {
        fill: #f7d03c;
      }

      .st28 {
        fill: #232323;
      }

      .st29 {
        fill: #f6cf3b;
      }

      .st30 {
        fill: #f4cd3b;
      }

      .st31 {
        fill: #c59111;
      }

      .st32 {
        fill: #f4ce3b;
      }

      .st33 {
        fill: #fefcb3;
      }

      .st34 {
        fill: #f2cc3b;
      }

      .st35 {
        fill: #bd880b;
      }

      .st36 {
        fill: #473c11;
      }
    </style>
  </defs>
  <path
     class="st15"
     d="m 67.767922,0.87751603 c -1.4,-0.03 -2.94,-0.11 -4.32,0 0.68,-1.16 3.59,-1.18 4.32,0 z"
     id="path6" />
  <g
     id="g120"
     transform="translate(-18.672078,-51.592484)">
    <path
       d="m 82.12,52.47 c 1.35,-0.66 2.97,-0.62 4.32,0 14.96,0.33 29.29,9.56 37.31,22.09 2.48,3.87 3.98,10.59 5.85,13.4 0.75,1.13 4,2.91 5.39,4.88 4.34,6.15 5.93,15.17 0.53,21.2 7.28,5.65 8.01,13.09 4.2,21.22 8.01,0.36 6.06,14.62 5.75,20.52 -1.93,37.6 -6.23,68.99 -4.28,107.32 0.16,3.21 -2.09,6.21 1.62,9.48 2.38,2.09 6.15,-2.68 7.58,-4.6 12.97,-17.45 13.97,-40.14 12.36,-61.06 -0.97,-12.57 -7.13,-28.96 9.39,-34.55 29.12,-9.85 78.67,26.28 94.46,49.49 6.18,9.08 21.38,35.3 3.6,39.92 -8.32,2.16 -14.08,-1.28 -21.42,5.22 -21.25,18.85 -29.41,53.43 -46.85,76.27 -16.49,21.6 -44.65,30.03 -71.13,26.61 C 98.47,365.7 91.04,349.2 85.22,319.7 c -0.65,-3.31 -0.91,-10.12 -1.79,-12.61 -0.39,-1.11 -8.87,-5.49 -9.81,-9.63 -1.18,-5.23 -0.09,-17.51 -0.12,-23.64 -0.09,-18.21 1.81,-34.46 2.84,-52.54 1.4,-24.67 2.17,-49.55 3.6,-74.16 0.54,-9.25 -0.11,-30.29 5.05,-37.43 2.06,-2.85 4.65,-2.6 4.16,-7 C 87.22,85.44 71.2,88.7 59.41,93.47 c -4.86,1.97 -7.45,4.61 -13.03,5.69 -0.86,0.17 -1.96,-0.58 -3.18,-0.32 -3.58,0.75 -27.08,19.53 -24.3,3.82 0.8,-4.5 5.9,-4.97 8.49,-8.09 1.73,-2.08 2.37,-5.54 4,-7.52 2,-2.44 6.59,-4.73 8.96,-6.88 11,-10.03 26.18,-26.54 41.75,-27.73 z"
       id="path8" />
    <path
       class="st27"
       d="m 117.4,168.39 c -2.14,8.33 -0.08,20.63 10.79,15.12 -0.58,21.99 -1.71,44.61 0.73,66.59 1.11,9.98 5.93,39.15 21.95,27.72 13.18,-9.4 19.45,-37.69 19.8,-52.92 0.22,-9.56 -1.09,-19.67 -2.15,-29.15 l 12.95,18 c 3.33,19.94 -2.42,53.71 -14.87,69.89 -20.13,26.15 -32.61,5.82 -38.21,-18.87 -4.61,-20.29 -4.05,-41.12 -3.18,-61.73 1.23,-4.43 -2.27,-21.59 -3.89,-9.41 0.11,29.13 0.65,57.76 5.82,87.23 6.73,38.32 44.53,25.82 57.72,-1 l 10.47,-17.63 c 5.29,-9.94 13.31,-15.32 22.86,-19.68 10.82,5.84 21.79,10.59 33.85,13.32 -10.01,4.57 -17.77,15.33 -23.93,24.32 -3.15,4.6 -5.5,9.58 -8.48,14.2 -9.73,18.96 -20.59,38.16 -39.12,49.8 -6.74,4.23 -30.9,13.61 -38.01,10.88 -0.66,-0.25 -1.03,-0.98 -1.35,-1.64 5.73,-21.23 -26.78,-35.98 -36.72,-15.84 l -1,1.43 c -1.36,0.74 -6.78,-11.32 -3.32,-12.23 17.37,4.37 29.57,-18.71 17.66,-30.98 -1.22,-1.26 -6.19,-4.91 -7.8,-5.88 -4.26,-2.55 -9.77,-3.02 -14.18,-0.58 -2.97,-0.03 -3.52,-9.55 0,-9.36 16.99,5.01 28.94,-17.77 16.51,-29.83 -4.57,-4.43 -10.21,-6.7 -16.51,-4.73 -2.35,-3.55 -2.45,-12.84 0.72,-15.84 14.84,5.1 23.6,-10.38 21.43,-23.23 -0.8,-4.72 -6.11,-8.76 -6.26,-9.63 -0.09,-0.51 3.89,-6.12 4.23,-9.34 0.72,-6.87 -5.02,-11.56 -5.01,-12.87 0,-0.36 1.83,-0.92 2.56,-1.77 1.24,-1.44 2.37,-3.37 3.21,-5.08 0.94,-0.95 1.19,-0.55 0.72,0.72 v 0 z"
       id="path10" />
    <path
       class="st33"
       d="m 181.48,213.75 c 9.35,12.55 23.08,21.44 36.72,28.8 -0.99,3.87 -6.6,4.54 -9.6,6.6 -15.56,10.64 -23.45,44.24 -42.76,53 -22.91,10.4 -35.69,1.25 -40.31,-22.01 -4.62,-23.26 -5.72,-48.3 -5.22,-72.48 0.06,-3.06 -0.8,-16.06 -0.22,-17.46 1.76,-4.25 5.33,-2.08 5.91,1.63 1.66,10.62 -0.39,27.33 0,38.87 0.61,17.33 3.09,45.72 14.77,59.39 11.5,13.45 26.29,-7.63 30.76,-17.52 4.43,-9.8 9.81,-36.18 9.97,-46.9 0.06,-4.1 -1.51,-8.36 -0.03,-11.92 v 0 z"
       id="path12" />
    <path
       class="st27"
       d="m 64.12,67.59 2.96,-0.73 c 18.74,-10.32 36,-2.1 44.43,16.63 -0.05,1.24 4.55,17.71 6.75,12.65 3.46,-7.98 -6.99,-22.64 -12.83,-28.02 -0.77,-1.14 -0.22,-1.85 1.17,-1.97 3.27,2.51 6.75,4.98 9.34,8.3 9.41,12.07 9.5,29.96 10.86,44.57 -6.69,1.16 -10.31,7.98 -10.17,14.46 0.06,2.66 1.65,5.56 1.49,7.16 -0.18,1.78 -4.08,6.14 -3.61,9.03 -3.03,-1.58 -6.18,-7.42 -9.35,-7.92 l -1.44,-2 c 2.44,-28.55 2.61,-69.85 -37.86,-61.5 -6.81,1.41 -13.18,4.53 -18.74,8.7 l -2.44,0.08 c 0.12,-6.89 1.27,-3.85 4.69,-6.47 4.92,-3.77 9.27,-8.8 14.75,-12.97 z"
       id="path14" />
    <path
       class="st19"
       d="m 247.72,231.75 c 5.15,3.96 9.96,11.77 12.12,18.13 0.11,0.33 -0.18,0.8 -0.6,1.31 -31.65,-5.73 -61.15,-24.27 -79.2,-50.4 1.14,-4.8 10.01,-2.84 13.93,-1.78 18.55,5.01 42.12,17.46 53.75,32.74 z"
       id="path16" />
    <path
       class="st27"
       d="m 266.44,237.51 -2.2,-0.35 c -9.46,-16.54 -22.39,-26.52 -38.12,-36.37 -1.52,-0.5 -2,-0.5 -1.44,0 20.52,10.9 37.15,28.23 46.08,49.68 0,0.48 0.03,0.96 0,1.44 -1.67,-0.02 -3.37,0.05 -5.05,0 l -2.18,-1.49 c -4.18,-9.58 -9.97,-18.56 -17.87,-25.49 1.54,1.81 2.91,3.59 2.77,6.1 0.95,1.01 0.55,1.38 -0.72,0.72 -11.54,-12.25 -32.69,-24.08 -48.59,-29.53 -5.87,-2.01 -13.3,-4.85 -19.09,-1.43 -2.19,-3.16 -3.83,-5.01 -5.76,-8.64 0.24,-0.5 0.5,-0.91 0.83,-0.99 8.11,-1.79 15.91,-1.31 23.65,-0.45 -1.49,-1.31 -3.77,-2.54 -5.45,-3.19 -7.4,-2.86 -14.39,-3.71 -21.91,-4.01 0.31,-3.75 1.48,-4.44 5.46,-4.98 11.07,-1.51 29.04,4.74 38.94,9.89 20.37,10.6 40.63,28.2 50.64,49.08 h 0.01 z"
       id="path18" />
    <path
       class="st19"
       d="m 105.16,141.75 c -3.07,-0.49 -5.37,0.71 -7.91,2.16 C 97.67,122.36 105.66,78.18 71.04,82.07 62.8,83 52.23,87.6 45.76,92.79 44.82,93.09 44.67,87.83 44.69,87.04 57.13,76.94 73.3,72.72 88.6,78.77 c 5.09,2.02 7.57,4.46 10.39,9.05 10.11,16.46 6.02,35.69 6.18,53.94 v 0 z"
       id="path20" />
    <path
       class="st19"
       d="m 141.16,353.43 c 10.61,1.79 24.85,-3.72 34.54,-8.3 20.36,-9.62 32.33,-32.73 43.94,-50.74 -12.25,26.55 -24.5,56.63 -55.29,65.31 -4.68,1.32 -24.81,4.64 -28.25,2.74 -1.49,-0.82 2.18,-3.44 2.78,-4.44 0.51,-0.86 2.07,-3.82 2.27,-4.57 v 0 z"
       id="path22" />
    <path
       class="st33"
       d="m 106.6,66.15 c -0.87,0.89 0.51,1.59 1.06,2.16 5.92,6.07 13.06,16.63 12.66,25.55 -0.22,5 -4.39,5.96 -6.7,1.62 -2.31,-4.34 -1.77,-9.65 -5.43,-15.46 C 100.18,67.3 89.81,60.7 74.33,65.21 c -3.1,0.9 -7.02,4.45 -10.22,2.38 15.28,-11.62 26.34,-13.83 42.48,-1.44 v 0 z"
       id="path24" />
    <path
       class="st27"
       d="m 133.96,353.43 c -2.11,1.54 -9.95,1.02 -12.53,0.07 -2.07,-0.76 -3.68,-1.58 -5.08,-3.34 -2.48,-3.13 -3.71,-7.45 -4.72,-11.13 0.19,-0.25 0.05,-1.1 0.74,-1.75 8.71,-8.14 27.16,3.06 21.58,16.15 v 0 z"
       id="path26" />
    <path
       class="st27"
       d="m 113.08,315.27 c -1.81,0.52 -7.17,-0.38 -9.27,-1.11 -6.78,-2.35 -7.62,-10.98 -5.85,-16.89 0.4,-0.33 0.37,-1.5 1.66,-1.34 4.19,2.28 9.5,1.39 13.03,5.01 4.27,4.39 3.57,9.49 0.43,14.33 z"
       id="path28" />
    <path
       class="st19"
       d="m 133.96,353.43 c -3.67,8.61 -19.76,7.97 -23.56,0.16 -2.76,-5.66 -2.35,-9.8 1.24,-14.56 2.9,1.34 2.69,4.75 3.93,7.23 4.35,8.78 10.49,5.38 18.39,7.17 z"
       id="path30" />
    <path
       class="st32"
       d="m 85,195.03 c -1.11,-0.43 -1.35,-1.87 -0.72,-4.32 0.96,-21.12 0.43,-44.27 2.89,-65.15 0.43,-3.65 0.7,-9.5 3.59,-11.89 -0.57,20.51 -1.34,41.08 -3.68,61.47 -0.76,6.63 -3.25,12.77 -2.07,19.89 v 0 z"
       id="path32" />
    <path
       class="st20"
       d="m 108.76,219.51 c -6.68,3.12 -17.89,-7.47 -14.4,-14.4 4.35,-2.59 9.06,0.41 11.77,-1.42 0.63,-0.43 0.58,-2.98 3.38,0.32 3.51,4.13 1.98,11.32 -0.75,15.5 z"
       id="path34" />
    <path
       class="st4"
       d="m 226.12,200.79 c 10.55,5.5 19.32,9.9 27.34,19.1 4.79,5.49 8.6,12.75 12.98,17.62 2.19,2.44 4.38,9.69 4.32,12.96 -3.52,-4.63 -6.16,-9.84 -9.49,-14.63 -2.94,-4.22 -6.89,-9.69 -10.3,-13.46 -7.63,-8.45 -17.76,-14.16 -26.29,-21.59 0.36,-0.31 0.84,-0.31 1.44,0 z"
       id="path36" />
    <path
       class="st27"
       d="m 107.32,169.83 c -7.4,-1.48 -10.8,-6.89 -10.08,-14.4 1.7,-5.19 3.18,-8.42 8.57,-4.61 6.58,4.64 8.98,14 1.51,19.01 z"
       id="path38" />
    <path
       class="st27"
       d="m 108.04,269.19 -1.61,0.84 c -7.61,-1.76 -11.05,-5.64 -12.79,-13.08 6.84,-12.07 22.02,1.4 14.4,12.24 z"
       id="path40" />
    <path
       class="st19"
       d="m 113.08,315.27 c -3.1,4.77 -7.08,5.99 -12.45,4.17 -8.31,-2.82 -8.96,-17.01 -2.67,-22.17 1.39,4.34 -0.11,9.46 2.86,13.34 2.97,3.88 8.43,1.37 12.26,4.66 z"
       id="path42" />
    <path
       class="st20"
       d="m 107.32,190.71 c -6.75,5.72 -13.82,-3.99 -12.24,-10.8 5.99,-4.99 18.21,0.74 12.24,10.8 z"
       id="path44" />
    <path
       class="st4"
       d="m 265.72,251.91 c -1.96,-0.06 -2.83,-0.5 -4.32,-0.72 l -1.23,-0.56 c -3.01,-7.18 -6.92,-13.71 -11.73,-19.6 -3.1,-4.08 -6.05,-8.31 -9.36,-12.23 0.67,-0.62 6.64,4.27 7.54,5.05 8.41,7.27 14.99,17.79 19.1,28.06 z"
       id="path46" />
    <path
       class="st19"
       d="m 108.04,269.19 c -6.99,9.95 -22,1.18 -14.4,-12.24 3.06,1.19 2.74,4.25 4.01,6.43 2.22,3.79 6.9,3.99 10.39,5.81 z"
       id="path48" />
    <path
       class="st19"
       d="m 96.52,229.59 c -1.07,5.17 -0.65,10.56 -0.72,15.84 -2.59,0.81 -4.41,2.74 -6.47,4.32 l 0.72,-24.48 c 1.7,1.05 4.74,3.72 6.47,4.32 z"
       id="path50" />
    <path
       class="st19"
       d="m 108.76,219.51 c -8.82,13.52 -24.28,-8.53 -14.4,-14.4 0.87,8.6 6.13,13.1 14.4,14.4 z"
       id="path52" />
    <path
       class="st5"
       d="m 95.8,279.99 c -1.56,2.55 -0.71,6.58 0,9.36 -2.42,1.34 -4.03,4.38 -6.47,5.76 l -0.72,-19.44 c 2.16,1.23 4.84,3.63 7.19,4.32 z"
       id="path54" />
    <path
       class="st5"
       d="m 100.12,326.79 c 0.02,3.1 1.14,6.05 2.37,8.83 0.48,1.08 0.1,2.36 1.95,1.97 -1.38,2.79 -2.02,5.49 -2.17,8.64 l -3.94,-7.21 -3.97,-14.38 c 0.38,-0.4 4.65,1.88 5.76,2.16 v 0 z"
       id="path56" />
    <path
       class="st19"
       d="m 107.32,190.71 c -2.63,4.43 -2.36,2.85 -6.8,3.66 -2.49,0.45 -3.15,2.11 -6.2,-1.1 -2.05,-2.16 -1.23,-11.71 0.76,-13.36 2.8,7.07 2.68,12.51 12.24,10.8 z"
       id="path58" />
    <path
       class="st34"
       d="m 136.84,174.87 c -0.45,1.56 -0.93,1.8 -1.44,0.72 0.38,-11.79 1.04,-23.47 0,-35.28 2.24,0.15 3.37,0.97 3.64,3.19 1.06,8.75 -1.47,22.11 -2.2,31.36 v 0 z"
       id="path60" />
    <path
       class="st29"
       d="m 171.4,184.95 c 2.37,-3.71 24.3,2.27 23.04,3.73 -0.34,0.4 -0.93,0.51 -1.44,0.59 -3.21,0.67 -6.67,0.93 -10.37,0.78 -3.18,0.64 -6.2,0.86 -9.07,0.66 -1.19,-2.52 -1.89,-2.09 -2.16,-5.76 z"
       id="path62" />
    <path
       class="st9"
       d="m 81.4,248.31 c -0.62,16.6 -0.34,30.59 0.75,47.13 0.05,0.79 0.24,3.25 -0.39,3.27 -4.18,-3.98 -1.85,-7.22 -1.77,-11.85 0.25,-13.5 -0.12,-24.78 0.69,-38.55 0.2,-0.63 0.44,-0.62 0.72,0 z"
       id="path64" />
    <path
       class="st35"
       d="m 107.32,169.83 c -3.31,2.22 -5.29,1.9 -8.59,-0.41 -4.73,-3.31 -3.08,-9.16 -1.49,-13.99 1.6,2.71 1.59,7.14 3.68,9.64 1.51,1.81 5.17,1.77 6.4,4.76 z"
       id="path66" />
    <path
       class="st12"
       d="m 198.76,190.71 c -1.32,0.6 -5.15,-0.09 -5.76,-1.44 l 0.46,-0.81 c -7.29,-2.5 -14.23,-4.25 -22.06,-3.51 -0.03,-0.46 -0.04,-0.98 0,-1.44 6.73,-1.8 16.51,0.69 22.81,3.47 1.64,0.72 4.52,1.56 4.55,3.73 z"
       id="path68" />
    <path
       class="st30"
       d="m 121,151.11 c 0.26,-2.23 1.32,-8.67 4.96,-6.39 0.24,0.15 2.16,4.78 2.17,5.29 0.05,1.94 -1.67,4.56 -2.81,6.14 -1.95,1.71 -4.46,-2.92 -4.32,-5.04 z"
       id="path70" />
    <path
       class="st31"
       d="m 193,189.27 c 2.24,0.15 3.75,0.91 5.76,1.44 1.23,0.33 2.4,0.46 3.78,0.89 0.84,0.26 3.29,0.98 3.42,1.98 -10.52,-2.69 -20.95,-4.38 -31.68,-1.43 -0.26,-0.49 -0.48,-0.93 -0.72,-1.44 6.36,-1.3 12.92,-1.89 19.44,-1.44 z"
       id="path72" />
    <path
       class="st7"
       d="m 126.04,175.59 c -1.26,2.15 -3.29,-0.22 -3.6,-2.16 0.4,-6.35 6.64,-13.71 5.76,-3.24 -0.23,2.75 -1.12,3.39 -2.16,5.4 z"
       id="path74" />
    <path
       class="st11"
       d="m 261.4,251.19 c -0.68,-0.1 -1.51,0.12 -2.16,0 -2.19,-7.35 -6.29,-13.89 -11.52,-19.44 l 0.72,-0.72 c 0.25,0.33 1.15,0.7 1.73,1.48 4.23,5.73 8.84,11.94 11.23,18.68 z"
       id="path76" />
    <path
       class="st28"
       d="m 31.72,98.54 c 2.56,-3.4 3.09,-7.95 7.19,-10.07 2.07,7.06 -1.7,7.51 -7.19,10.07 z"
       id="path78" />
    <path
       class="st25"
       d="m 135.4,196.47 c -0.2,0.63 -0.44,0.62 -0.72,0 -0.08,-4.89 -0.17,-9.9 -0.03,-14.79 0.06,-1.99 0.68,-3.87 0.75,-6.09 l 1.44,-0.72 c -0.57,7.19 -1.28,14.37 -1.44,21.6 z"
       id="path80" />
    <path
       class="st14"
       d="m 126.04,134.55 c -3.49,1.52 -3.32,-3.02 -2.88,-5.76 0.23,-0.67 1.26,-3.97 2.52,-2.16 1.26,1.81 1.01,5.82 0.36,7.92 z"
       id="path82" />
    <path
       class="st10"
       d="m 125.32,156.15 c -0.63,0.87 -2.07,3.58 -3.24,2.16 -0.75,-0.91 -1.61,-4.46 -1.66,-5.65 -0.04,-1.11 0.56,-1.42 0.57,-1.55 l 4.32,5.04 v 0 z"
       id="path84" />
    <path
       class="st2"
       d="m 126.04,134.55 c -0.53,1.71 -1.48,3.37 -3.6,2.88 -0.04,-3.25 -0.33,-5.59 0.72,-8.64 -0.23,2.35 0.68,4.69 2.88,5.76 z"
       id="path86" />
    <path
       class="st0"
       d="m 126.04,175.59 c -0.31,0.6 -0.23,1.61 -0.8,2.41 -2.6,3.68 -2.95,-2.17 -2.8,-4.57 z"
       id="path88" />
    <path
       class="st13"
       d="m 136.12,125.19 c 0.69,2.65 0.57,4.85 -1.08,7.21 -0.19,-2.37 -0.93,-4.87 -1.08,-7.21 0.07,-2.12 1.42,-1.78 2.16,0 z"
       id="path90" />
    <path
       class="st26"
       d="m 81.4,244.71 c -0.2,0.63 -0.44,0.62 -0.72,0 0.24,-4.3 0.46,-8.66 0.72,-12.96 0.2,-0.63 0.44,-0.62 0.72,0 -0.2,4.27 -0.55,8.92 -0.72,12.96 z"
       id="path92" />
    <path
       class="st34"
       d="m 85,195.03 c -0.11,2.31 -0.61,4.62 -0.72,7.2 -0.2,0.63 -0.44,0.62 -0.72,0 0.21,-3.71 -0.76,-8.25 0.72,-11.52 -0.08,1.81 0.73,4.05 0.72,4.32 z"
       id="path94" />
    <path
       class="st17"
       d="m 133.24,101.43 c 0.75,2.42 0.88,4.67 0.72,7.2 -1.77,2.34 -1.46,-4.36 -1.44,-5.04 -0.58,-1.14 -0.72,-2.78 0.72,-2.16 z"
       id="path96" />
    <path
       class="st22"
       d="m 82.84,219.51 c -0.2,0.63 -0.44,0.62 -0.72,0 0.15,-2.74 0.57,-5.42 0.72,-7.92 0.2,-0.63 0.44,-0.62 0.72,0 -0.11,2.74 -0.61,5.22 -0.72,7.92 z"
       id="path98" />
    <path
       class="st18"
       d="m 83.56,211.59 h -0.72 c 0.18,-3.1 0.56,-6.41 0.72,-9.36 h 0.72 c -0.13,2.99 -0.59,6.13 -0.72,9.36 z"
       id="path100" />
    <path
       class="st16"
       d="m 117.4,168.39 -0.72,-0.72 c 0.35,-0.72 0.62,-4.7 2.16,-3.97 1.45,0.69 -1.22,3.84 -1.44,4.69 z"
       id="path102" />
    <path
       class="st36"
       d="m 82.84,226.71 c -0.08,1.91 -0.65,3.59 -0.72,5.04 H 81.4 c 0.11,-1.89 0.65,-3.91 0.72,-5.04 0.2,-0.63 0.44,-0.62 0.72,0 z"
       id="path104" />
    <path
       class="st8"
       d="m 136.12,125.19 h -2.16 c -0.08,-1.19 0.05,-2.41 0,-3.6 1.56,0.49 1.8,2.26 2.15,3.6 z"
       id="path106" />
    <path
       class="st3"
       d="m 82.84,226.71 h -0.72 c 0.15,-2.38 -0.13,-4.82 0,-7.2 h 0.72 c -0.1,2.39 0.1,4.81 0,7.2 z"
       id="path108" />
    <path
       class="st21"
       d="m 135.4,196.47 c -0.03,1.59 0.35,3.66 -0.36,5.05 -0.65,0 -0.34,-4.1 -0.36,-5.05 z"
       id="path110" />
    <path
       class="st24"
       d="m 133.24,101.43 c -0.94,0.35 -0.69,1.37 -0.72,2.16 -1.28,-0.79 -0.61,-2.96 -0.71,-4.32 0.36,-0.79 1.26,1.61 1.43,2.16 z"
       id="path112" />
    <path
       class="st23"
       d="m 81.4,248.31 h -0.72 c 0.07,-1.19 -0.07,-2.41 0,-3.6 h 0.72 c -0.05,1.2 0.04,2.4 0,3.6 z"
       id="path114" />
    <path
       class="st1"
       d="m 121.55,113.49 c -1.21,1.21 -5.38,1.24 -6.37,-0.31 -1.89,-2.97 -0.43,-9.43 3.85,-8.76 3.95,0.62 4.52,7.06 2.51,9.07 v 0 z"
       id="path116" />
    <path
       class="st6"
       d="m 226.12,200.79 c -0.47,-0.04 -0.97,0.06 -1.44,0 -1.58,-0.19 -5.07,-1.89 -5.39,-3.61 2.5,0.54 4.73,2.51 6.83,3.61 z"
       id="path118" />
  </g>
</svg>
