<?xml version="1.0" encoding="UTF-8" standalone="no"?>
<svg
   version="1.1"
   width="88.249657"
   height="74.724503"
   viewBox="-0.015924454 -0.68192449 88.249655 74.724501"
   id="svg35"
   sodipodi:docname="scarf1.svg"
   xmlns:inkscape="http://www.inkscape.org/namespaces/inkscape"
   xmlns:sodipodi="http://sodipodi.sourceforge.net/DTD/sodipodi-0.dtd"
   xmlns="http://www.w3.org/2000/svg"
   xmlns:svg="http://www.w3.org/2000/svg">
  <defs
     id="defs39" />
  <sodipodi:namedview
     id="namedview37"
     pagecolor="#ffffff"
     bordercolor="#000000"
     borderopacity="0.25"
     inkscape:showpageshadow="2"
     inkscape:pageopacity="0.0"
     inkscape:pagecheckerboard="0"
     inkscape:deskcolor="#d1d1d1" />
  <!-- Exported by Scratch - http://scratch.mit.edu/ -->
  <g
     id="Scarf"
     transform="translate(-0.9793879,-0.94282449)">
    <g
       id="Bottom">
      <g
         id="Fringe">
        <path
           id="ID0.7067680577747524"
           fill="#871212"
           d="m 10.2722,74.4895 c -0.2244,-0.0509 -0.9579,-0.2621 -1.0409,-0.8391 -0.0811,-0.5752 0.5299,-0.9127 0.7298,-1.024 0.1942,-0.0584 3.4092,-0.5091 6.6657,-2.7247 -0.313,-0.2621 -0.609,-0.5186 -0.8919,-0.7731 -1.3614,1.2822 -5.0762,2.6267 -7.9763,2.8869 C 7.3664,71.9382 6.6461,71.6874 6.5933,71.1104 6.5443,70.5315 7.1741,70.2241 7.3815,70.1223 7.5776,70.0752 10.8718,69.798 14.2773,67.7068 13.9417,67.3504 13.6305,66.9959 13.3477,66.6527 12.1126,67.8011 8.1527,69.0211 5.1338,69.1248 4.7472,69.0249 4.0401,68.7382 4.0213,68.1556 4.0024,67.5729 4.6492,67.3051 4.8604,67.2165 5.064,67.1788 8.5412,67.0883 12.1597,65.0329 11.9504,64.7086 11.7562,64.3805 11.5771,64.0524 10.2628,64.9915 6.7366,65.8343 3.8553,65.8343 3.6686,65.8343 3.4838,65.8306 3.3047,65.823 2.9276,65.6948 2.245,65.3516 2.2695,64.7689 2.294,64.1901 2.9578,63.9694 3.1746,63.8959 L 3.6611,63.877 c 0.8674,0 3.8901,-0.1206 7.1014,-1.6763 -0.1396,-0.4092 -0.2395,-0.7769 -0.3093,-1.0937 -1.5349,0.8957 -4.7575,1.6198 -7.4257,1.6198 -0.1867,0 -0.3696,-0.0038 -0.5506,-0.0113 -0.3771,-0.1282 -1.0616,-0.4714 -1.0371,-1.0541 0.0245,-0.5789 0.6883,-0.7995 0.907,-0.8731 l 0.4808,-0.015 c 0.8901,0 4.0485,-0.132 7.3522,-1.8008 l 0.0867,-0.0434 c 0.1961,-0.5148 0.9183,-0.8881 1.2351,-1.0315 l 0.5959,-0.2658 0.066,0.6486 c 0.643,6.3056 7.7858,11.5534 7.8575,11.6081 l 0.6449,0.4676 -2.2251,1.0503 -0.2131,-0.181 c -1.2841,1.3143 -4.9102,2.8511 -7.7839,3.2622 l -0.0868,0.0151 z"
           stroke-width="1.88565" />
        <path
           id="ID0.8515774309635162"
           d="m 11.694,58.3332 c 0.6713,6.596 8.0498,11.94 8.0498,11.94 l -1.2294,0.5826 -0.3508,-0.2979 c -0.0132,0.0264 -0.0151,0.0396 -0.0301,0.0698 -0.5997,1.0899 -4.5841,2.9435 -7.7557,3.4036 0,0 -1.3992,-0.3168 -0.1848,-0.99 0,0 3.6487,-0.479 7.2164,-3.1113 -0.628,-0.5016 -1.1937,-0.99 -1.7065,-1.4727 -0.0208,0.0396 -0.0283,0.0697 -0.0566,0.115 -0.6562,1.0579 -4.7349,2.6927 -7.9273,2.9793 0,0 -1.3784,-0.3941 -0.1301,-1.0013 0,0 3.7034,-0.279 7.4276,-2.7549 -0.6506,-0.66 -1.2144,-1.2992 -1.682,-1.912 -0.0358,0.0697 -0.0698,0.1433 -0.1339,0.2357 -0.7147,1.0201 -4.8763,2.4268 -8.0819,2.5381 0,0 -1.3539,-0.4677 -0.0754,-1.0013 0,0 3.8222,-0.0698 7.7368,-2.4344 0,0 0.0283,0 0.0679,-0.0038 -0.4903,-0.7033 -0.8636,-1.3633 -1.1522,-1.9705 -0.0377,0.0585 -0.0659,0.1169 -0.1244,0.1886 -0.7467,0.9051 -4.5916,1.9328 -7.7161,1.9328 -0.1791,0 -0.3564,-0.0038 -0.5317,-0.0113 0,0 -1.3162,-0.5676 0,-1.0089 0,0 0.1188,0.0076 0.3375,0.0076 1.0182,0 4.1993,-0.1509 7.5615,-1.8479 0,0 0.0037,0 0.0113,0 0.0226,0 0.0773,0.0037 0.1433,0.0113 -0.3715,-0.9466 -0.5299,-1.7197 -0.5883,-2.2572 -0.0189,0.0264 -0.0246,0.0396 -0.0453,0.0698 -0.7467,0.9051 -4.5916,1.9328 -7.7161,1.9328 -0.1791,0 -0.3564,-0.0038 -0.5317,-0.0113 0,0 -1.3162,-0.5676 0,-1.0051 0,0 0.1169,0.0076 0.3318,0.0076 1.0145,0 4.1994,-0.1509 7.5653,-1.8517 0,0 0,0 0.0019,0 0.0207,0 0.2017,0.0037 0.3658,0.0584 0.0019,-0.0377 0.0037,-0.0584 0.0037,-0.0584 -0.411,-0.4677 0.9297,-1.0711 0.9297,-1.0711 m 0.8051,-1.3954 -1.1917,0.5375 C 10.8888,57.6638 10.2175,58.0315 9.9083,58.5878 6.7177,60.183 3.6818,60.3075 2.8239,60.3075 2.6542,60.3075 2.5561,60.3 2.5448,60.3 L 2.3657,60.2924 2.1941,60.3471 c -0.9843,0.3281 -1.2125,0.8881 -1.2295,1.2992 -0.0377,0.8844 0.8731,1.3445 1.154,1.4652 l 0.1603,0.0697 0.1754,0.0076 c 0.1867,0.0075 0.3771,0.0113 0.5694,0.0113 2.3326,0 5.3232,-0.5525 7.1203,-1.3765 0.0113,0.0396 0.0245,0.0848 0.0377,0.1282 -2.9794,1.3445 -5.7154,1.4538 -6.5244,1.4538 -0.1716,0 -0.2715,-0.0037 -0.2847,-0.0037 L 3.1935,63.3905 3.0219,63.4452 c -0.9825,0.3319 -1.2106,0.8919 -1.2276,1.303 -0.0377,0.8844 0.8731,1.3445 1.154,1.4652 l 0.1603,0.0697 0.1754,0.0076 c 0.1866,0.0075 0.3771,0.0113 0.5694,0.0113 2.5306,0 5.838,-0.6487 7.5521,-1.5953 0.0301,0.0472 0.0584,0.1 0.0886,0.1471 -3.3433,1.7612 -6.4395,1.8479 -6.4716,1.8479 l -0.1791,0.0038 -0.1659,0.0698 c -0.9561,0.3978 -1.1409,0.9767 -1.1277,1.3878 0.0283,0.8806 0.9712,1.2747 1.2578,1.3747 l 0.1659,0.0641 0.1754,-0.0076 c 2.6493,-0.0924 6.4282,-1.0974 8.1309,-2.291 0.083,0.0961 0.1678,0.1923 0.2546,0.2903 C 10.4212,69.3548 7.5455,69.6 7.5135,69.6038 L 7.3362,69.6207 7.1741,69.698 c -0.9334,0.4526 -1.0843,1.039 -1.0485,1.452 0.0792,0.8806 1.0409,1.2181 1.3351,1.303 l 0.1678,0.0471 0.1735,-0.0132 c 0.6279,-0.0584 1.3162,-0.1697 2.0252,-0.3243 l -0.0924,0.0509 c -0.907,0.5053 -1.0277,1.0974 -0.9692,1.5029 0.1244,0.8768 1.1049,1.1634 1.4029,1.2294 l 0.1697,0.0396 0.1716,-0.0264 c 2.5758,-0.3715 6.1378,-1.7423 7.7443,-3.0906 l 0.1113,0.0962 0.5506,-0.2621 1.2294,-0.5789 1.4407,-0.6807 -1.2898,-0.9353 C 20.2265,69.4567 13.2515,64.3258 12.6311,58.2333 Z m -2.3759,15.1588 c 2.1591,-0.5091 4.4351,-1.3916 5.6343,-2.3194 0.0283,0.0264 0.0566,0.0509 0.0868,0.0736 -2.7568,1.7253 -5.3251,2.1817 -5.7211,2.2458 z"
           stroke-width="1.88565"
           fill="undefined" />
      </g>
      <path
         id="ID0.4368065632879734"
         fill="#ba2915"
         d="m 55.6748,23.7674 c 0,0 -11.51,-0.8636 -20.2311,7.6991 -8.7211,8.5665 -5.4212,17.1292 -24.6699,26.9516 0,0 -1.4935,5.8153 8.0932,13.1222 0,0 16.3712,-9.1152 20.4423,-21.766 4.0711,-12.6471 15.155,-19.7673 21.0419,-19.8088 l 6.4169,-0.9353 z"
         stroke-width="1.88565" />
      <g
         id="Stripes_2_">
        <path
           id="ID0.9594653621315956"
           fill="#871212"
           d="m 15.7971,55.6895 c 0,0 -0.4506,7.7557 8.5986,12.2794 l 2.1704,-1.7706 c 0,0 -8.4062,-8.3271 -8.0932,-12.3341 z"
           stroke-width="1.88565" />
        <path
           id="ID0.4252018965780735"
           fill="#871212"
           d="m 22.6364,50.3268 c 0,0 0.5506,5.9699 9.2717,10.9198 l 2.5928,-2.7512 c 0,0 -8.5043,-4.6802 -9.6489,-10.8085 z"
           stroke-width="1.88565" />
        <path
           id="ID0.09512140555307269"
           fill="#871212"
           d="m 27.3071,44.0476 c 0,0 2.0064,6.0435 11.1216,8.1648 l 1.2577,-3.381 c 0,0 -9.5451,-2.9944 -11.1762,-6.9561 z"
           stroke-width="1.88565" />
        <path
           id="ID0.781469791661948"
           fill="#871212"
           d="m 31.8195,35.9204 c 0,0 1.6217,5.1591 10.5992,7.0712 l 1.9837,-2.7983 c 0,0 -9.8657,-4.4426 -10.9047,-6.5847 z"
           stroke-width="1.88565" />
        <path
           id="ID0.6844138544984162"
           fill="#871212"
           d="m 37.5896,29.5846 11.3686,5.5759 3.1603,-2.7889 c 0,0 -10.7256,-5.129 -11.3818,-4.9027 -0.6562,0.2263 -3.1471,2.1157 -3.1471,2.1157 z"
           stroke-width="1.88565" />
        <path
           id="ID0.42429394368082285"
           fill="#871212"
           d="m 47.6175,25.1194 9.366,5.3722 4.4218,-0.6864 -9.3358,-6.0095 -4.452,1.3237"
           stroke-width="1.88565" />
      </g>
      <path
         id="ID0.09295754041522741"
         d="M 18.8255,72.1004 18.5804,71.9156 C 8.8579,64.5012 10.2514,58.5501 10.3174,58.2993 l 0.0528,-0.2056 0.1886,-0.0961 C 22.8513,51.7259 25.8476,45.9728 28.744,40.412 c 1.5858,-3.0453 3.2245,-6.1962 6.3697,-9.2811 7.4276,-7.2937 16.9218,-7.8594 19.6541,-7.8594 0.6053,0 0.9429,0.0264 0.9429,0.0264 l 12.6659,5.9756 -7.9575,1.1597 C 54.3587,30.4784 43.6218,37.9116 39.7562,49.9176 35.6738,62.5986 19.7702,71.5761 19.0951,71.9533 Z M 11.1999,58.7273 c -0.1263,1.0428 -0.2527,6.0775 7.7048,12.2454 C 21.0298,69.7282 35.176,61.0768 38.8605,49.631 43.0127,36.7331 54.2003,29.5375 60.3475,29.4941 l 4.814,-0.7052 -9.6488,-4.5784 c -0.017,0.0189 -0.3055,0.0038 -0.7449,0.0019 -2.6418,0 -11.823,0.5487 -18.9922,7.5879 -3.0378,2.9831 -4.5708,5.9284 -6.1944,9.0435 -2.9491,5.6626 -5.9982,11.5157 -18.3813,17.8835 z"
         stroke-width="1.88565"
         fill="undefined" />
    </g>
    <g
       id="Middle">
      <path
         id="Base_Fill_1_"
         fill="#ba2915"
         d="m 48.9582,26.6713 c 0,0 10.9235,4.9517 21.5473,2.7116 10.6256,-2.2402 14.0424,-4.9536 17.9325,-2.7116 0,0 2.1213,-4.0051 -4.831,-6.8336 0,0 2.357,-4.831 -1.4143,-6.8355 -0.0019,0 -14.4987,-5.7776 -33.2345,13.6691 z"
         stroke-width="1.88565" />
      <g
         id="Stripes_1_">
        <path
           id="Stripe_10_"
           fill="#871212"
           d="m 63.3607,15.6459 c 0,0 5.542,3.9391 3.4074,14.3196 H 65.071 c 0,0 1.5576,-8.8078 -3.264,-13.4277 z"
           stroke-width="1.88565" />
        <path
           id="Stripe_9_"
           fill="#871212"
           d="m 69.3439,13.2379 c 0,0 4.8103,3.8505 3.9071,15.0362 l 2.1289,-0.5468 c 0,0 1.0352,-9.1869 -3.562,-15.138 z"
           stroke-width="1.88565" />
        <path
           id="Stripe_8_"
           fill="#871212"
           d="m 56.9722,19.4851 c 0,0 3.5356,4.4784 2.5927,10.1052 l -1.2162,-0.1905 c 0,0 -0.9655,-7.6802 -2.6739,-8.8267 z"
           stroke-width="1.88565" />
        <path
           id="Stripe_7_"
           fill="#871212"
           d="M 82.1908,19.2494 C 82.0626,18.9288 81.908,13.8281 80.6955,12.5912 l -2.6889,-0.3904 c 0,0 2.7247,2.4834 2.0987,6.7997 0,0 3.249,2.8775 2.8719,6.6601 h 1.9818 c 0.0019,0 0.1188,-4.4087 -2.7682,-6.4112 z"
           stroke-width="1.88565" />
      </g>
      <path
         id="Outline_5_"
         d="m 88.9528,23.7636 c -0.6034,-1.6631 -2.1912,-3.066 -4.7217,-4.1729 0.7807,-1.946 1.2257,-5.3873 -1.863,-7.0259 -0.0886,-0.034 -2.1402,-0.8354 -5.6871,-0.8354 -6.3792,0 -16.4221,2.5362 -28.0623,14.6157 l -0.4638,0.4808 0.609,0.2753 c 0.0736,0.034 7.4578,3.3357 15.9036,3.3357 2.078,0 4.073,-0.198 5.936,-0.5902 3.5903,-0.758 6.3716,-1.5707 8.6061,-2.225 4.3351,-1.2691 6.6809,-1.8706 8.9908,-0.5412 l 0.4243,0.2432 0.2281,-0.4318 c 0.0302,-0.0566 0.726,-1.4029 0.1,-3.1283 z m -0.7731,2.2383 c -2.4193,-1.1616 -4.9348,-0.545 -9.2322,0.7128 -2.2175,0.6486 -4.98,1.4576 -8.5363,2.2062 -1.797,0.379 -3.7317,0.5713 -5.7418,0.5713 -6.8355,0 -12.962,-2.2175 -14.8891,-2.9887 11.2026,-11.4157 20.7968,-13.8331 26.9026,-13.8331 3.3187,0 5.2817,0.7467 5.2892,0.7467 2.7361,1.4538 1.8479,4.5972 1.3992,5.7663 -1.139,-0.3658 -3.8713,-0.7976 -7.6596,1.5368 0,0 3.9561,-1.9799 8.0725,-0.2772 2.2684,0.9881 3.76,2.2288 4.2767,3.6204 0.2979,0.8146 0.2244,1.5104 0.1188,1.9385 z"
         stroke-width="1.88565"
         fill="undefined" />
    </g>
    <g
       id="Top">
      <path
         id="Base_Fill"
         fill="#ba2915"
         d="m 30.9257,10.8809 c 0,0 -2.3571,-1.7688 -1.1785,-3.8882 1.1785,-2.1195 3.2999,-3.0303 3.2999,-2.8115 0,0.2187 20.3876,16.9915 43.368,-0.7637 V 1.002 c 0,0 8.6023,3.9881 5.7739,12.0021 0,0 -5.1592,-1.6499 -9.9431,3.5356 -4.7876,5.1855 -9.0303,16.2637 -45.6817,5.7739 0,0 -2.9454,-0.9429 -1.4142,-3.7713 1.5311,-2.8285 6.1302,-5.5401 5.7757,-7.6614 z"
         stroke-width="1.88565" />
      <g
         id="Stripes">
        <path
           id="Stripe_1_"
           fill="#871212"
           d="m 35.2608,5.8311 c 0,0 -3.215,1.1465 -1.5651,6.3697 0,0 -0.1169,2.9831 -2.474,5.459 -2.357,2.4758 -2.2986,4.2427 -2.7115,5.1855 l 3.7713,0.8995 c 0,0 0.1772,-3.2565 1.7084,-5.0819 1.5311,-1.8253 1.8121,-4.4708 1.9667,-5.6531 0.1546,-1.1823 -1.4953,-4.0108 1.039,-5.9549 z"
           stroke-width="1.88565" />
        <path
           id="Stripe"
           fill="#871212"
           d="m 41.589,9.2422 c 0.034,-0.4902 -1.1389,2.0479 -0.7467,5.3798 0.3922,3.3319 -1.6103,5.0347 -2.3778,7.2465 -0.7674,2.2119 -0.8749,3.1642 -0.8749,3.1642 l 2.7474,0.5261 c 0,0 1.3067,-4.7783 2.4381,-6.7431 1.1314,-1.9649 0.5035,-3.8845 0.5035,-5.8304 0,-1.946 0.609,-2.8059 0.609,-2.8059 z"
           stroke-width="1.88565" />
        <path
           id="Stripe_2_"
           fill="#871212"
           d="m 48.9582,11.126 c 0,0.149 -1.3351,3.6054 -0.5507,7.0618 0.7845,3.4564 -1.3161,7.7952 -1.3161,7.7952 l 2.6323,0.1735 c 0,0 1.5896,-3.9976 1.1974,-7.5143 -0.3922,-3.5167 -0.5034,-4.6123 0.0622,-7.2465 z"
           stroke-width="1.88565" />
        <path
           id="Stripe_3_"
           fill="#871212"
           d="m 56.2066,11.4126 c 0,0 1.7687,4.9499 0.2942,9.3698 0,0 1.2954,2.6192 -0.826,5.376 h 1.4124 c 0,0 2.0648,-1.7669 1.4765,-5.0724 0,0 2.4004,-2.1327 0.1056,-9.6715 h -2.4627 z"
           stroke-width="1.88565" />
        <path
           id="Stripe_4_"
           fill="#871212"
           d="m 63.9566,10.0757 c 0,0 3.579,4.4992 1.8932,10.5879 0,0 0.4318,0.9032 -0.3941,2.5136 l 2.044,-1.3747 c 0,0 0.479,-1.071 0.3545,-1.4538 -0.1244,-0.3828 2.1874,-3.4394 -1.2219,-11.1668 z"
           stroke-width="1.88565" />
        <path
           id="Stripe_5_"
           fill="#871212"
           d="m 72.2139,6.3629 c 0,0 3.3395,2.3966 2.5154,8.0932 l 2.0818,-1.1786 c 0,0 0,-5.9322 -2.8681,-7.9348 z"
           stroke-width="1.88565" />
        <path
           id="Stripe_6_"
           fill="#871212"
           d="m 76.8865,3.6475 c 0,0 5.5287,1.7386 5.0649,8.5533 l 0.0264,0.7279 c 0,0 3.907,-6.3679 -5.5608,-11.7495 z"
           stroke-width="1.88565" />
      </g>
      <path
         id="Outline_4_"
         d="M 76.615,0.572 75.9456,0.2609 V 3.1818 C 69.0875,8.4276 61.7975,11.0883 54.27,11.0883 42.4753,11.0883 34.3708,4.6884 33.494,3.9549 l -0.0321,-0.281 h -0.4714 c -0.5619,0 -2.5419,1.0824 -3.6544,3.0868 -1.0107,1.8178 0.1754,3.5243 1.0956,4.32 l -0.0151,0.0415 c 0.0169,0.0132 0.0358,0.0208 0.0528,0.034 -0.034,0.9692 -1.369,2.2854 -2.6682,3.562 -1.171,1.1521 -2.3816,2.3419 -3.0642,3.5997 -0.5318,0.9824 -0.6392,1.8837 -0.3206,2.6795 0.5129,1.2747 1.9441,1.7461 2.0196,1.7687 10.1485,2.9039 18.6603,4.3766 25.3016,4.3766 12.3472,0 16.4617,-5.0026 19.4637,-8.6551 0.4789,-0.5808 0.9315,-1.1333 1.3916,-1.6292 2.77,-3.002 5.6532,-3.6337 7.5822,-3.6337 1.1351,0 1.8668,0.2263 1.8743,0.2282 l 0.4337,0.1376 0.1509,-0.4299 C 85.5718,4.8374 76.7036,0.6154 76.615,0.572 Z m 5.2666,11.8702 c -1.4406,-0.2904 -5.9266,-0.6185 -9.9808,3.7751 -0.4714,0.5091 -0.9352,1.0748 -1.4255,1.6706 -0.4526,0.5488 -0.924,1.1163 -1.4331,1.6877 -8.6061,2.8398 -17.0802,-0.0924 -17.0802,-0.0924 5.985,3.4055 13.5144,1.9026 15.9639,1.2747 -2.9058,2.8549 -7.2692,5.442 -16.1883,5.442 -6.5526,0 -14.9777,-1.4595 -25.0263,-4.3351 -0.0113,-0.0038 -1.0786,-0.3621 -1.4218,-1.2257 -0.2074,-0.5204 -0.115,-1.1502 0.2753,-1.8724 0.6147,-1.1333 1.7744,-2.2741 2.8964,-3.3754 1.3067,-1.286 2.5418,-2.5135 2.8605,-3.7053 2.6701,1.4671 5.8512,1.3747 5.8512,1.3747 -3.3301,-0.8316 -5.014,-1.7895 -5.8003,-2.3703 l -0.0113,-0.0735 -0.1509,-0.1132 c -0.0829,-0.0622 -2.012,-1.5518 -1.0503,-3.2829 0.9089,-1.6386 2.3986,-2.4607 2.7738,-2.5871 1.8121,1.731 10.3202,7.3974 21.3342,7.3974 7.8047,0 15.3549,-2.7738 22.4374,-8.244 l 0.181,-0.1415 v -1.863 c 1.88,1.0824 6.8619,4.6048 4.9951,10.6596 z"
         stroke-width="1.88565"
         fill="undefined" />
    </g>
  </g>
</svg>
