<?xml version="1.0" encoding="UTF-8" standalone="no"?>
<svg
   version="1.1"
   width="153.31071"
   height="71.353363"
   id="svg39"
   sodipodi:docname="shark-c_.svg"
   xmlns:inkscape="http://www.inkscape.org/namespaces/inkscape"
   xmlns:sodipodi="http://sodipodi.sourceforge.net/DTD/sodipodi-0.dtd"
   xmlns="http://www.w3.org/2000/svg"
   xmlns:svg="http://www.w3.org/2000/svg">
  <defs
     id="defs43" />
  <sodipodi:namedview
     id="namedview41"
     pagecolor="#ffffff"
     bordercolor="#000000"
     borderopacity="0.25"
     inkscape:showpageshadow="2"
     inkscape:pageopacity="0.0"
     inkscape:pagecheckerboard="0"
     inkscape:deskcolor="#d1d1d1" />
  <!-- Exported by Scratch - http://scratch.mit.edu/ -->
  <g
     id="ID0.8153662532567978"
     transform="matrix(1.05,0,0,1.05,-0.47107596,-0.9335196)">
    <g
       id="Body">
      <g
         id="Teeth">
        <path
           id="ID0.47505385521799326"
           fill="#ffffff"
           stroke="#000000"
           d="m 110.782,88.075 c 0.405,-1.116 1.872,-2.964 2.257,-2.767 0.389,0.194 -0.402,2.35 -0.846,3.387 l -1.411,-0.62 v 0 z"
           transform="matrix(1.0997436,0,0,1.0997436,-9.45,-46.4)" />
        <path
           id="ID0.1700705992989242"
           fill="#ffffff"
           stroke="#000000"
           d="m 107.191,87.348 c 0.406,-1.115 1.871,-2.962 2.259,-2.765 0.387,0.196 -0.404,2.349 -0.847,3.388 l -1.412,-0.623 v 0 z"
           transform="matrix(1.0997436,0,0,1.0997436,-9.45,-46.4)" />
        <path
           id="ID0.22641177149489522"
           fill="#ffffff"
           stroke="#000000"
           d="m 103.955,86.466 c 0.402,-1.114 1.869,-2.96 2.256,-2.765 0.387,0.197 -0.404,2.351 -0.846,3.388 l -1.41,-0.623 v 0 z"
           transform="matrix(1.0997436,0,0,1.0997436,-9.45,-46.4)" />
        <path
           id="ID0.5497826454229653"
           fill="#ffffff"
           stroke="#000000"
           d="m 100.839,82.824 c -0.32,0.119 -0.941,-1.03 -1.414,-2.066 0.405,-0.396 0.834,-0.759 1.286,-1.089 0.367,1.206 0.496,3.019 0.128,3.155 v 0 z"
           transform="matrix(1.0997436,0,0,1.0997436,-9.45,-46.4)" />
        <path
           id="ID0.713533132802695"
           fill="#ffffff"
           stroke="#000000"
           d="m 100.738,85.607 c 0.514,-0.904 2.048,-2.274 2.35,-2.045 0.305,0.229 -0.693,1.977 -1.227,2.806 l -1.123,-0.761 v 0 z"
           transform="matrix(1.0997436,0,0,1.0997436,-9.45,-46.4)" />
        <path
           id="ID0.8864496797323227"
           fill="#ffffff"
           stroke="#000000"
           d="m 110.496,82.635 c -0.418,-0.176 0.039,-2.051 0.486,-3.513 0.604,0.24 1.205,0.485 1.82,0.696 -0.685,1.409 -1.886,2.994 -2.306,2.817 v 0 z"
           transform="matrix(1.0997436,0,0,1.0997436,-9.45,-46.4)" />
        <path
           id="ID0.9374523004516959"
           fill="#ffffff"
           stroke="#000000"
           d="m 106.977,81.189 c -0.465,-0.101 -0.561,-1.513 -0.348,-3.047 0,0 1.869,0.087 2.311,0.177 -0.39,1.563 -1.484,2.979 -1.963,2.87 v 0 z"
           transform="matrix(1.0997436,0,0,1.0997436,-9.45,-46.4)" />
        <path
           id="ID0.8298322623595595"
           fill="#ffffff"
           stroke="#000000"
           d="m 103.399,81.957 c -0.388,0.027 -0.707,-1.67 -0.867,-2.888 0.5,-0.183 1.025,-0.329 1.574,-0.442 0.086,1.271 -0.294,3.303 -0.707,3.33 v 0 z"
           transform="matrix(1.0997436,0,0,1.0997436,-9.45,-46.4)" />
        <path
           id="ID0.38277680333703756"
           fill="#ffffff"
           stroke="#000000"
           d="m 115.402,83.256 c -0.36,-0.102 -0.264,-1.43 -0.064,-2.734 0.104,0.004 0.211,0.006 0.211,0.006 0,0 -0.055,-0.002 -0.211,-0.006 1.08,0.01 1.525,-0.037 1.945,-0.108 -0.537,1.417 -1.469,2.957 -1.881,2.842 v 0 z"
           transform="matrix(1.0997436,0,0,1.0997436,-9.45,-46.4)" />
        <path
           id="ID0.23444315837696195"
           fill="#ffffff"
           stroke="#000000"
           d="m 129.897,83.919 c -0.354,-0.252 0.221,-1.668 0.912,-3.033 l 1.836,1.029 c -1.072,1.209 -2.378,2.262 -2.748,2.004 v 0 z"
           transform="matrix(1.0997436,0,0,1.0997436,-9.45,-46.4)" />
        <path
           id="ID0.5970389265567064"
           fill="#ffffff"
           stroke="#000000"
           d="m 125.376,82.407 c -0.442,-0.193 -0.007,-2.03 0.492,-3.644 0.8,0.047 1.485,0.308 2.161,0.589 -0.841,1.582 -2.187,3.262 -2.653,3.055 v 0 z"
           transform="matrix(1.0997436,0,0,1.0997436,-9.45,-46.4)" />
        <path
           id="ID0.7332274583168328"
           fill="#ffffff"
           stroke="#000000"
           d="m 120.911,82.421 c -0.423,-0.045 -0.554,-1.498 -0.562,-3.046 0.721,-0.172 1.437,-0.391 2.174,-0.609 -0.311,1.775 -1.113,3.709 -1.612,3.655 v 0 z"
           transform="matrix(1.0997436,0,0,1.0997436,-9.45,-46.4)" />
        <path
           id="ID0.5271980953402817"
           fill="#ffffff"
           stroke="#000000"
           d="m 133.544,86.136 c -0.366,-0.263 0.263,-1.767 0.983,-3.174 0.143,0.079 0.285,0.161 0.285,0.161 0,0 -0.073,-0.045 -0.285,-0.161 1.119,0.667 1.447,0.914 1.771,1.164 -1.073,1.211 -2.385,2.268 -2.754,2.01 v 0 z"
           transform="matrix(1.0997436,0,0,1.0997436,-9.45,-46.4)" />
      </g>
      <path
         id="Fill"
         fill="#2f8eff"
         d="m 94.141,84.009 c 2.262,-4.468 8.434,-7.817 13.188,-7.429 4.07,0.334 7.393,3.861 11.703,2.118 10.176,-4.12 11.738,0.028 19.171,5.307 2.146,-14.91 -7.581,-28.441 -18.146,-33.775 -8.985,-4.536 -34.028,-3.758 -49.195,4.57 -0.019,0.034 -0.047,0.066 -0.088,0.095 C 67.239,57.378 45.399,41.776 42.544,47.92 40.548,52.215 54.143,65.529 53.951,65.696 52.821,66.675 33.3,76.524 31.534,77.393 30.992,76.789 31.068,75.952 30.829,75.247 28.491,68.371 21.78,62.392 12.332,62.943 c -3.805,8.306 6.628,17.098 15.353,18.054 -2.973,3.038 -9.235,10.688 -8.183,17.172 0.11,0.677 0.494,2.324 0.846,2.901 0.381,0.625 1.084,1.144 1.895,1.359 1.977,0.526 4.814,-0.772 6.474,-1.609 4.721,-2.381 6.677,-12.045 4.916,-18.036 -0.089,-0.304 3.885,-0.185 4.373,-0.185 8.846,0.002 19.508,1.896 27.574,4.808 l 4.669,1.718 c 0,0 12.704,4.633 17.165,6.754 7.048,3.131 16.873,-1.148 22.9,-6.604 -2.728,-0.625 -14.715,-2.521 -16.217,-3.623 -0.562,-0.412 -0.206,-1.145 0.044,-1.643 v 0 z"
         transform="matrix(1.0997436,0,0,1.0997436,-9.45,-46.4)" />
      <path
         id="Outline"
         d="m 132.512,56.863 c -3.105,-3.305 -7.15,-6.371 -12.414,-8.852 -9.916,-4.674 -35.712,-3.079 -50.06,5.815 -5.601,-2.777 -24.511,-13.253 -28.99,-7.768 -0.139,0.17 -0.252,0.349 -0.354,0.53 -1.155,2.059 0,4.737 1.015,6.66 1.326,2.514 7.09,10.885 8.324,12.805 -5.811,3.061 -17.44,9.263 -17.44,9.263 C 31.319,68.356 23.489,62.08 14.976,60.815 14.552,60.752 14.127,60.69 13.7,60.652 c -0.417,-0.037 -1.003,-0.084 -1.615,-0.089 -1.23,-0.011 -2.573,0.161 -2.921,1.019 -0.081,0.2 -0.14,2.099 -0.15,2.431 -0.108,3.827 0.415,6.704 2.881,10.017 1.162,1.561 2.171,2.816 3.745,3.891 0.461,0.314 0.963,0.615 1.54,0.901 3.044,1.508 5.334,2.261 8.236,2.685 -0.024,0.016 -0.049,0.036 -0.073,0.053 -3.821,2.528 -7.582,9.176 -8.383,13.074 -0.351,1.71 -0.176,4.367 0.75,6.557 0.587,1.39 1.475,2.592 2.729,3.242 1.827,0.947 4.226,-0.213 5.945,-0.787 0.823,-0.274 1.572,-0.613 2.287,-0.98 7.139,-3.667 8.995,-11.668 7.302,-18.327 -0.011,-0.042 -0.017,-0.084 -0.028,-0.125 1.289,-0.031 2.566,-0.029 3.832,0.003 3.655,0.096 7.218,0.461 10.722,1.043 4.224,0.7 8.358,1.731 12.452,3.02 0.804,0.252 1.608,0.501 2.41,0.773 0.285,0.098 1.779,0.743 3.078,1.075 l -10e-4,0.001 c 0.302,0.105 0.722,0.26 1.228,0.45 4.639,1.744 16.76,6.601 16.76,6.601 8.359,3.76 19.429,0.87 25.823,-6.368 0.219,-0.247 0.446,-0.485 0.653,-0.743 0.269,-0.334 0.535,-0.877 0.326,-1.303 -4.982,-2.494 -11.037,-2.148 -15.807,-4.877 1.65,-4.588 9.153,-6.177 12.965,-4.154 4.42,2.348 6.819,1.079 10.784,0.188 0.316,-0.071 0.646,-0.139 0.984,-0.203 0.199,-0.037 0.396,-0.076 0.604,-0.11 6.846,-1.127 15.09,7.017 17.053,6.916 2.385,-0.123 4.837,-16.746 -7.299,-29.663 v 0 z M 87.414,95.879 C 82.953,93.758 70.249,89.125 70.249,89.125 L 65.58,87.407 c -8.066,-2.912 -18.728,-4.806 -27.574,-4.808 -0.488,0 -4.462,-0.119 -4.373,0.185 1.761,5.991 -0.195,15.655 -4.916,18.036 -1.66,0.837 -4.497,2.136 -6.474,1.609 -0.811,-0.216 -1.514,-0.734 -1.895,-1.359 -0.352,-0.577 -0.736,-2.225 -0.846,-2.901 C 18.45,91.686 24.712,84.035 27.685,80.997 18.96,80.041 8.527,71.249 12.332,62.943 c 9.448,-0.551 16.159,5.428 18.497,12.304 0.239,0.704 0.163,1.542 0.705,2.146 C 33.3,76.524 52.821,66.675 53.951,65.696 54.143,65.529 40.548,52.215 42.544,47.92 c 2.855,-6.144 24.695,9.458 28.23,6.975 0.041,-0.029 0.069,-0.061 0.088,-0.095 15.167,-8.328 40.209,-9.105 49.195,-4.57 10.564,5.334 20.291,18.865 18.146,33.775 -7.433,-5.278 -8.995,-9.427 -19.171,-5.307 -4.311,1.743 -7.633,-1.784 -11.703,-2.118 -4.754,-0.389 -10.926,2.961 -13.188,7.429 -0.25,0.498 -0.605,1.231 -0.043,1.644 1.502,1.102 13.489,2.998 16.217,3.623 -6.028,5.454 -15.853,9.734 -22.901,6.603 v 0 z"
         transform="matrix(1.0997436,0,0,1.0997436,-9.45,-46.4)" />
      <path
         id="Gill_1_"
         d="m 84.604,82.543 c -5.91,-2.343 -6.82,-12.067 -4.096,-16.168 0.58,-0.873 2.008,-2.863 2.817,-2.575 1.503,0.535 -0.123,1.595 -0.615,2.433 -2.172,3.695 -1.799,9.138 0.244,12.812 0.522,0.938 1.534,1.627 2.313,2.354 0.799,0.737 0.167,1.472 -0.663,1.144 v 0 z"
         transform="matrix(1.0997436,0,0,1.0997436,-9.45,-46.4)" />
      <path
         id="Gill"
         d="m 73.813,69.378 c -0.161,1.421 -0.383,1.699 -0.396,2.934 -0.04,3.942 1.629,6.01 4.446,8.228 0.688,0.542 0.523,1.394 -0.527,1.288 -2.156,-0.219 -3.17,-2.076 -4.139,-3.434 -1.452,-2.328 -2.067,-6.016 -1.635,-8.755 0.273,-1.744 2.436,-1.889 2.251,-0.261 v 0 z"
         transform="matrix(1.0997436,0,0,1.0997436,-9.45,-46.4)" />
    </g>
    <g
       id="Fin">
      <path
         id="Fill_1_"
         fill="#2f8eff"
         d="m 65.27,98.568 c 0.549,0.979 3.075,1.108 4.226,1.217 5.473,0.503 11.867,-2.026 15.107,-5.58 0.729,-0.8 1.254,-3.562 3.172,-2.934 -5.392,-9.479 -14.423,-4.903 -14.423,-4.903 0,0.002 0,0.004 0,0.006 0.278,0.235 0.415,0.767 0.461,1.034 0.947,5.522 -9.621,9.238 -8.543,11.16 v 0 z"
         transform="matrix(1.0997436,0,0,1.0997436,-9.45,-46.4)" />
      <path
         id="Outline_3_"
         d="m 87.775,91.271 c -1.918,-0.629 -2.443,2.134 -3.172,2.934 -3.24,3.554 -9.635,6.083 -15.107,5.58 -1.151,-0.108 -3.677,-0.237 -4.226,-1.217 -1.078,-1.922 9.49,-5.639 8.543,-11.16 -0.046,-0.268 -0.183,-0.799 -0.461,-1.034 -0.187,-0.159 -0.437,-0.187 -0.771,0.104 -1.608,7.018 -11.685,9.233 -11.846,11.838 -0.185,2.936 10.144,3.029 12.551,2.754 2.315,-0.264 4.461,-0.725 6.562,-1.536 3.77,-1.458 7.76,-3.156 8.896,-5.829 0.274,-0.65 -0.092,-2.146 -0.969,-2.434 v 0 z"
         transform="matrix(1.0997436,0,0,1.0997436,-9.45,-46.4)" />
    </g>
    <g
       id="L_Eye">
      <path
         id="White"
         fill="#ffffff"
         d="m 93.497,54.108 c 0.207,1.779 1.923,3.73 4.099,4.22 4.725,1.066 11.363,-7.311 9.645,-10.98 -2.374,-5.071 -14.686,-1.406 -13.744,6.76 v 0 z"
         transform="matrix(1.0997436,0,0,1.0997436,-9.45,-46.4)" />
      <path
         id="Pupil"
         d="m 100.242,51.307 c 0.851,0 1.621,0.23 2.179,0.603 0.559,0.372 0.904,0.886 0.904,1.453 0,0.567 -0.345,1.081 -0.904,1.453 -0.558,0.373 -1.328,0.603 -2.179,0.603 -0.851,0 -1.621,-0.23 -2.179,-0.603 -0.559,-0.372 -0.904,-0.886 -0.904,-1.453 0,-0.567 0.345,-1.081 0.904,-1.453 0.558,-0.373 1.328,-0.603 2.179,-0.603 z"
         transform="matrix(1.0997436,0,0,1.0997436,-9.45,-46.4)" />
      <g
         id="Eyelid_1_">
        <path
           id="Eyelid"
           fill="#2f8eff"
           d="m 107.24,47.348 c -2.002,-4.279 -11.08,-2.338 -13.303,3.278 4.031,-1.324 9.719,-2.281 13.539,-2.364 -0.038,-0.325 -0.106,-0.637 -0.236,-0.914 v 0 z"
           transform="matrix(1.0997436,0,0,1.0997436,-9.45,-46.4)" />
        <path
           id="Eyelash"
           d="m 108.868,48.272 c -4.058,-0.19 -11.72,1.07 -16.207,2.803 -1.424,0.55 -2.528,1.147 -3.095,1.762 -0.229,0.246 -0.522,0.696 -0.098,0.93 1.813,-0.615 3.42,-1.499 5.264,-2.074 3.699,-1.155 7.598,-1.863 11.629,-1.909 1.303,-0.016 3.172,0.318 4.354,0.192 0.496,-0.054 0.961,-0.484 0.828,-0.859 -0.18,-0.51 -1.185,-0.775 -2.675,-0.845 v 0 z"
           transform="matrix(1.0997436,0,0,1.0997436,-9.45,-46.4)" />
      </g>
      <path
         id="Outline_1_"
         d="m 108.827,45.773 c -4.69,-7.004 -19.097,0.579 -17.573,8.154 0.499,2.493 2.838,5.443 6.034,6.01 6.424,1.14 14.944,-9.071 11.539,-14.164 v 0 z M 97.596,58.328 c -2.176,-0.49 -3.892,-2.441 -4.099,-4.22 -0.147,-1.276 0.029,-2.442 0.44,-3.482 2.223,-5.616 11.301,-7.557 13.303,-3.278 0.13,0.277 0.197,0.589 0.236,0.914 0.475,3.975 -5.513,11.051 -9.88,10.066 v 0 z"
         transform="matrix(1.0997436,0,0,1.0997436,-9.45,-46.4)" />
    </g>
    <g
       id="R_Eye">
      <path
         id="White_1_"
         fill="#ffffff"
         d="m 123.283,56.465 c 0.132,1.103 1.229,2.314 2.619,2.616 3.022,0.661 7.464,-4.62 6.17,-6.808 -2.654,-4.49 -9.396,-0.871 -8.789,4.192 v 0 z"
         transform="matrix(1.0997436,0,0,1.0997436,-9.45,-46.4)" />
      <path
         id="Pupil_1_"
         d="m 127.566,54.36 c 0.552,0 1.053,0.149 1.415,0.391 0.363,0.241 0.587,0.575 0.587,0.943 0,0.368 -0.224,0.702 -0.587,0.943 -0.362,0.242 -0.863,0.391 -1.415,0.391 -0.552,0 -1.053,-0.149 -1.415,-0.391 -0.363,-0.241 -0.587,-0.575 -0.587,-0.943 0,-0.368 0.224,-0.702 0.587,-0.943 0.362,-0.242 0.863,-0.391 1.415,-0.391 z"
         transform="matrix(1.0997436,0,0,1.0997436,-9.45,-46.4)" />
      <g
         id="Eyelid_3_">
        <path
           id="Eyelash_1_"
           d="m 133.062,51.613 c -2.842,0.023 -7.331,0.854 -10.292,1.993 -1.247,0.479 -2.222,1.013 -2.688,1.564 -0.159,0.191 -0.37,0.54 -0.069,0.722 1.289,-0.477 2.432,-1.165 3.74,-1.611 2.632,-0.897 5.4,-1.446 8.271,-1.483 0.922,-0.012 2.248,0.248 3.091,0.15 0.354,-0.042 0.684,-0.375 0.589,-0.667 -0.155,-0.481 -1.183,-0.68 -2.642,-0.668 v 0 z"
           transform="matrix(1.0997436,0,0,1.0997436,-9.45,-46.4)" />
        <path
           id="Eyelid_2_"
           fill="#2f8eff"
           d="m 123.951,53.193 c 2.378,-0.76 5.334,-1.322 7.694,-1.508 -2.159,-2.645 -6.095,-1.344 -7.694,1.508 v 0 z"
           transform="matrix(1.0997436,0,0,1.0997436,-9.45,-46.4)" />
      </g>
      <path
         id="Outline_2_"
         d="m 133.678,50.92 c -4.466,-7.125 -13.572,0.398 -12.49,5.619 0.354,1.717 2.017,3.749 4.287,4.14 4.567,0.785 10.461,-6.158 8.203,-9.759 v 0 z m -7.776,8.161 c -1.391,-0.302 -2.487,-1.513 -2.619,-2.616 -0.145,-1.204 0.136,-2.321 0.668,-3.272 1.599,-2.852 5.535,-4.153 7.694,-1.508 0.148,0.182 0.296,0.368 0.427,0.588 1.294,2.188 -3.147,7.469 -6.17,6.808 v 0 z"
         transform="matrix(1.0997436,0,0,1.0997436,-9.45,-46.4)" />
    </g>
  </g>
</svg>
