<?xml version="1.0" encoding="UTF-8" standalone="no"?>
<svg
   version="1.1"
   id="shark1-b"
   x="0px"
   y="0px"
   width="140.44925"
   height="93.143318"
   viewBox="0 0 140.44925 93.143318"
   enable-background="new 0 0 150 150"
   xml:space="preserve"
   sodipodi:docname="shark-b_.svg"
   xmlns:inkscape="http://www.inkscape.org/namespaces/inkscape"
   xmlns:sodipodi="http://sodipodi.sourceforge.net/DTD/sodipodi-0.dtd"
   xmlns="http://www.w3.org/2000/svg"
   xmlns:svg="http://www.w3.org/2000/svg"><defs
   id="defs84" /><sodipodi:namedview
   id="namedview82"
   pagecolor="#ffffff"
   bordercolor="#000000"
   borderopacity="0.25"
   inkscape:showpageshadow="2"
   inkscape:pageopacity="0.0"
   inkscape:pagecheckerboard="0"
   inkscape:deskcolor="#d1d1d1" />
  <g
   id="g79"
   transform="translate(-5.9993726,-23.999475)">
    <g
   id="Body">
      <g
   id="Teeth">
        <path
   fill="#ffffff"
   stroke="#000000"
   d="m 92.652,82.128 c 0.969,-0.229 2.943,-0.013 2.984,0.369 0.043,0.381 -1.83,0.813 -2.764,0.979 z"
   id="path2" />
        <path
   fill="#ffffff"
   stroke="#000000"
   d="m 93.505,87.201 c 0.943,-0.49 3.039,-0.784 3.181,-0.399 0.142,0.384 -1.687,1.321 -2.605,1.735 z"
   id="path4" />
        <path
   fill="#ffffff"
   stroke="#000000"
   d="m 92.799,84.227 c 0.969,-0.229 2.942,-0.014 2.984,0.367 0.042,0.383 -1.831,0.815 -2.762,0.979 z"
   id="path6" />
        <path
   fill="#ffffff"
   stroke="#000000"
   d="m 92.752,78.867 c 1.107,-0.001 3.199,0.736 3.15,1.16 -0.049,0.426 -2.19,0.42 -3.244,0.361 z"
   id="path8" />
        <path
   fill="#ffffff"
   stroke="#000000"
   d="m 94.566,90.427 c 0.799,-0.706 2.763,-1.506 2.99,-1.169 0.228,0.338 -1.322,1.696 -2.117,2.325 z"
   id="path10" />
        <path
   fill="#ffffff"
   stroke="#000000"
   d="m 96.695,92.823 c 0.693,-0.813 2.527,-1.882 2.8,-1.578 0.272,0.301 -1.076,1.864 -1.777,2.601 z"
   id="path12" />
        <path
   fill="#ffffff"
   stroke="#000000"
   d="m 92.928,75.412 c 1.215,0.148 3.408,1.242 3.299,1.701 -0.106,0.46 -2.457,0.16 -3.602,-0.047 z"
   id="path14" />
        <path
   fill="#ffffff"
   stroke="#000000"
   d="m 93.96,71.891 c 1.169,0.36 3.144,1.822 2.956,2.256 -0.188,0.434 -2.445,-0.273 -3.539,-0.681 z"
   id="path16" />
        <path
   fill="#ffffff"
   stroke="#000000"
   d="m 95.627,68.147 c 1.234,0.581 3.186,2.502 2.913,2.949 -0.271,0.447 -2.651,-0.686 -3.793,-1.305 z"
   id="path18" />
        <path
   fill="#ffffff"
   stroke="#000000"
   d="m 98.04,64.716 c 1.153,0.73 2.858,2.877 2.536,3.288 -0.323,0.41 -2.551,-1.009 -3.609,-1.765 z"
   id="path20" />
        <path
   fill="#ffffff"
   stroke="#000000"
   d="m 101.568,97.143 c 0.621,-0.871 2.355,-2.099 2.654,-1.818 0.297,0.275 -0.912,1.953 -1.549,2.746 z"
   id="path22" />
        <path
   fill="#ffffff"
   stroke="#000000"
   d="m 98.85,95.127 c 0.693,-0.812 2.528,-1.881 2.801,-1.579 0.271,0.304 -1.073,1.867 -1.774,2.603 z"
   id="path24" />
        <path
   fill="#ffffff"
   stroke="#000000"
   d="m 113.971,103.413 c 0.43,-1.146 1.985,-3.017 2.393,-2.8 0.408,0.217 -0.436,2.426 -0.901,3.49 z"
   id="path26" />
        <path
   fill="#ffffff"
   stroke="#000000"
   d="m 110.283,102.732 c 0.432,-1.146 2.24,-3.586 2.646,-3.369 0.405,0.217 -0.688,2.994 -1.156,4.059 z"
   id="path28" />
        <path
   fill="#ffffff"
   stroke="#000000"
   d="m 107.059,100.973 c 0.435,-1.146 1.987,-3.018 2.396,-2.801 0.406,0.217 -0.412,2.592 -0.885,3.654 z"
   id="path30" />
        <path
   fill="#ffffff"
   stroke="#000000"
   d="m 104.074,99.327 c 0.543,-0.923 2.167,-2.298 2.486,-2.05 0.317,0.25 -0.74,2.027 -1.308,2.875 z"
   id="path32" />
        <path
   fill="#ffffff"
   stroke="#000000"
   d="m 101.509,61.345 c 1.171,1.065 2.685,3.856 2.235,4.257 -0.45,0.401 -2.701,-1.668 -3.758,-2.742 z"
   id="path34" />
        <path
   fill="#ffffff"
   stroke="#000000"
   d="m 126.252,50.595 c 0.325,1.854 -0.264,5.569 -0.969,5.611 -0.705,0.042 -1.319,-3.545 -1.531,-5.324 z"
   id="path36" />
        <path
   fill="#ffffff"
   stroke="#000000"
   d="m 120.609,51.232 c 0.422,1.834 0.021,5.576 -0.678,5.655 -0.703,0.079 -1.5,-3.47 -1.807,-5.235 z"
   id="path38" />
        <path
   fill="#ffffff"
   stroke="#000000"
   d="m 114.798,52.367 c 0.668,1.757 0.788,5.518 0.103,5.696 -0.684,0.178 -1.961,-3.225 -2.504,-4.93 z"
   id="path40" />
        <path
   fill="#ffffff"
   stroke="#000000"
   d="m 109.596,54.636 c 0.784,1.493 1.299,4.835 0.706,5.07 -0.591,0.234 -2.098,-2.659 -2.766,-4.12 z"
   id="path42" />
        <path
   fill="#ffffff"
   stroke="#000000"
   d="m 105.248,57.633 c 0.982,1.368 1.949,4.604 1.396,4.92 -0.556,0.316 -2.442,-2.336 -3.307,-3.688 z"
   id="path44" />
        <path
   fill="#ffffff"
   stroke="#000000"
   d="m 137.538,50.737 c -0.32,1.855 -2.127,5.142 -2.804,4.937 -0.678,-0.206 -0.045,-3.79 0.354,-5.535 z"
   id="path46" />
        <path
   fill="#ffffff"
   stroke="#000000"
   d="m 131.914,50.426 c 0.036,1.883 -1.119,5.459 -1.822,5.389 -0.703,-0.07 -0.757,-3.71 -0.691,-5.501 z"
   id="path48" />
        <path
   fill="#ffffff"
   stroke="#000000"
   d="m 142.854,52.395 c -0.567,1.792 -2.81,4.791 -3.451,4.493 -0.645,-0.299 0.477,-3.759 1.111,-5.43 z"
   id="path50" />
      </g>
      <path
   id="Fill"
   fill="#2f8eff"
   d="M 135.825,40.68 C 119.926,28.1 95.09,30.743 71.396,51.139 c -0.016,0.023 -0.027,0.048 -0.051,0.069 -0.03,0.026 -0.072,0.038 -0.104,0.062 -0.018,0.015 -0.035,0.029 -0.053,0.044 l -0.009,-0.008 c -0.119,0.076 -0.257,0.127 -0.405,0.167 -0.007,0.002 -0.014,0.011 -0.021,0.013 -0.002,0 -0.005,-10e-4 -0.007,-10e-4 C 65.647,52.756 44.375,34.222 41.484,41.992 39.373,47.668 53.753,65.263 53.549,65.482 52.354,66.777 31.706,79.79 29.838,80.938 29.264,80.139 29.345,79.035 29.093,78.102 26.619,69.019 19.521,61.118 9.527,61.843 c -4.025,10.976 7.011,22.591 16.24,23.854 -3.145,4.018 -9.77,14.127 -8.656,22.693 0.116,0.895 0.522,3.069 0.895,3.836 0.402,0.821 1.146,1.51 2.003,1.795 2.091,0.701 5.092,-1.021 6.848,-2.127 4.993,-3.146 7.062,-15.918 5.198,-23.834 -0.094,-0.399 4.111,-0.244 4.626,-0.244 9.355,0.004 20.634,2.509 29.167,6.354 0,0 5.394,3.004 6.839,3.9 4.822,2.99 11.291,7.043 17.864,9.799 l -0.001,0.001 c 0.967,0.339 1.932,0.689 2.922,0.956 6.377,1.71 13.711,1.083 19.102,-3.071 -7.721,-2.216 -10.643,-4.819 -15.65,-10.774 -1.879,-2.231 -4.449,-6.771 -5.029,-9.645 -0.787,-3.893 -0.933,-8.6 0.371,-12.146 5.596,-15.255 16.358,-21.321 28.275,-24.248 6.16,-1.512 16.803,-0.76 22.505,1.191 -2.208,-4.551 -4.138,-7.014 -7.221,-9.453 z" />
      <path
   id="Outline"
   d="M 146.439,52.203 C 146.033,47.365 140.371,39.902 136.609,37.126 125.109,28.628 109.71,28.13 99.021,31.818 89.721,35.027 77.9,42.807 70.668,49.86 64.879,46.296 44.667,32.243 39.9,39.536 c -1.822,2.787 -0.468,6.735 0.699,9.499 1.403,3.323 7.499,14.384 8.804,16.921 -6.146,4.046 -18.448,12.24 -18.448,12.24 C 29.54,68.541 20.484,59.863 10.97,58.82 9.644,58.673 6.724,58.349 6.172,60.048 6.086,60.311 6.023,62.822 6.013,63.26 c -0.113,5.056 0.44,8.858 3.048,13.233 1.589,2.666 2.895,4.667 5.59,6.333 3.218,1.99 5.641,2.986 8.711,3.546 -4.069,3.294 -8.092,12.164 -8.944,17.349 -0.608,3.692 0.261,10.733 3.68,12.947 1.934,1.252 4.472,-0.283 6.289,-1.04 9.615,-4.004 12.146,-15.969 10.114,-25.679 10.975,-0.333 21.154,2.102 31.114,6.396 4.197,1.81 17.432,10.171 22.313,12.4 2.15,0.982 7.264,2.23 8.106,2.348 7.357,1.026 14.02,0.228 20.217,-4.301 1.137,-0.83 2.828,-1.69 0.932,-2.837 -8.8,-0.448 -15.527,-5.846 -20.358,-12.947 -5.05,-7.429 -3.39,-17.83 1.353,-25.05 5.449,-8.297 14.928,-13.715 24.596,-14.889 5.412,-0.657 11.229,-0.745 16.562,0.502 1.833,0.428 4.541,1.906 5.895,2.145 0.985,0.175 1.277,-0.709 1.208,-1.513 z m -25.898,-3.261 c -11.917,2.927 -22.68,8.993 -28.275,24.248 -1.304,3.546 -1.158,8.253 -0.371,12.146 0.58,2.873 3.15,7.413 5.029,9.645 5.008,5.955 7.93,8.559 15.65,10.774 -5.391,4.154 -12.725,4.781 -19.102,3.071 -0.99,-0.267 -1.955,-0.617 -2.922,-0.956 l 0.001,-0.001 c -6.573,-2.756 -13.042,-6.809 -17.864,-9.799 -1.446,-0.896 -6.839,-3.9 -6.839,-3.9 -8.533,-3.845 -19.812,-6.35 -29.167,-6.354 -0.515,0 -4.72,-0.155 -4.626,0.244 1.864,7.916 -0.205,20.688 -5.198,23.834 -1.756,1.105 -4.757,2.828 -6.848,2.127 -0.857,-0.285 -1.601,-0.974 -2.003,-1.795 -0.373,-0.767 -0.779,-2.941 -0.895,-3.836 C 15.997,99.824 22.622,89.714 25.767,85.697 16.538,84.433 5.502,72.819 9.527,61.843 c 9.994,-0.726 17.092,7.175 19.566,16.259 0.252,0.933 0.171,2.037 0.745,2.836 1.868,-1.147 22.516,-14.161 23.711,-15.456 0.204,-0.219 -14.176,-17.814 -12.065,-23.49 2.891,-7.771 24.163,10.764 29.262,9.493 0.01,-0.002 0.018,-0.009 0.028,-0.012 0.148,-0.04 0.286,-0.092 0.405,-0.167 l 0.009,0.008 c 0.018,-0.015 0.035,-0.029 0.053,-0.044 0.033,-0.023 0.075,-0.035 0.104,-0.062 0.024,-0.021 0.035,-0.046 0.051,-0.069 23.694,-20.396 48.53,-23.039 64.429,-10.459 3.083,2.439 5.013,4.902 7.221,9.453 -5.702,-1.951 -16.345,-2.703 -22.505,-1.191 z" />
      <path
   id="Gill_1_"
   d="M 85.973,87.746 C 79.721,84.65 78.757,71.799 81.641,66.381 c 0.613,-1.155 2.125,-3.783 2.98,-3.402 1.59,0.705 -0.131,2.106 -0.652,3.213 -2.296,4.884 -1.9,12.076 0.26,16.932 0.556,1.242 1.623,2.147 2.447,3.106 0.844,0.978 0.176,1.952 -0.703,1.516 z" />
      <path
   id="Gill"
   d="m 74.559,70.35 c -0.17,1.878 -0.405,2.244 -0.419,3.876 -0.042,5.209 1.723,7.94 4.706,10.872 0.729,0.717 0.553,1.842 -0.56,1.7 -2.282,-0.284 -3.354,-2.739 -4.379,-4.539 -1.537,-3.069 -2.188,-7.943 -1.73,-11.568 0.291,-2.304 2.577,-2.493 2.382,-0.341 z" />
    </g>
    <g
   id="Fin">
      <path
   id="Fill_1_"
   fill="#2f8eff"
   d="m 65.521,108.919 c 0.582,1.295 3.254,1.467 4.472,1.606 5.788,0.664 12.551,-2.678 15.978,-7.373 0.698,-0.96 1.223,-4.029 2.82,-3.985 -3.22,-9.386 -12.646,-6.677 -14.507,-6.035 0.156,0.343 0.24,0.785 0.275,1.04 1.002,7.295 -10.177,12.208 -9.038,14.747 z" />
      <path
   id="Outline_1_"
   d="m 89.325,99.277 c -0.192,-0.079 -0.367,-0.106 -0.534,-0.11 -1.598,-0.044 -2.122,3.025 -2.82,3.985 -3.427,4.695 -10.189,8.037 -15.978,7.373 -1.218,-0.14 -3.89,-0.312 -4.472,-1.606 -1.139,-2.539 10.04,-7.452 9.038,-14.747 -0.035,-0.255 -0.12,-0.697 -0.275,-1.04 -0.205,-0.45 -0.531,-0.729 -1.03,-0.188 -1.698,9.274 -12.358,12.203 -12.531,15.642 -0.195,3.877 10.731,4.004 13.276,3.642 2.45,-0.35 4.717,-0.959 6.94,-2.033 3.985,-1.928 8.209,-4.17 9.41,-7.702 0.292,-0.862 -0.096,-2.839 -1.024,-3.216 z" />
    </g>
    <g
   id="L_Eye">
      <path
   d="M 97.152,26.395 C 96.478,26.654 95.3,26.365 94.59,26.254 91.774,25.815 86.444,26.889 84.294,25.923 84.051,25.814 83.879,25.37 83.968,25.12 c 0.733,-2.04 11.373,-0.157 12.952,0.708 0.18,0.098 0.266,0.378 0.232,0.567 z"
   id="path61" />
      <path
   d="m 102.695,30.129 c -1.408,-2.953 -5.608,-4.921 -8.711,-4.773 -7.041,0.332 -12.33,8.959 -8.385,15.313 4.747,7.644 22.169,0.096 17.096,-10.54 z m -4.148,8.65 c -2.684,2.614 -6.811,3.983 -9.5,1.89 -2.958,-2.302 -1.96,-7.308 0.66,-10.545 2.65,-3.276 8.148,-3.271 10.521,0.241 1.893,2.799 0.717,6.077 -1.681,8.414 z"
   id="path63" />
      <path
   fill="#ffffff"
   d="m 89.707,30.124 c -2.62,3.237 -3.618,8.243 -0.66,10.545 2.689,2.093 6.816,0.724 9.5,-1.89 2.398,-2.337 3.574,-5.615 1.682,-8.414 -2.374,-3.512 -7.872,-3.517 -10.522,-0.241 z"
   id="path65" />
      <ellipse
   cx="98.555"
   cy="34.534"
   rx="3.2620001"
   ry="2.7179999"
   id="ellipse67" />
    </g>
    <g
   id="R_Eye">
      <path
   d="m 116.598,27.507 c 0.512,0.062 1.281,-0.347 1.756,-0.549 1.885,-0.801 5.771,-0.991 7.102,-2.04 0.148,-0.119 0.191,-0.457 0.089,-0.615 -0.854,-1.289 -7.931,1.89 -8.878,2.771 -0.112,0.099 -0.123,0.307 -0.069,0.433 z"
   id="path70" />
      <path
   d="m 120.421,25.974 c -2.222,-0.105 -5.229,1.303 -6.239,3.419 -3.632,7.617 7.2,15.185 12.246,7.548 2.951,-4.467 -0.964,-10.729 -6.007,-10.967 z m 3.16,10.543 c -5.043,3.682 -10.304,-3.235 -7.206,-6.642 2.211,-2.431 5.334,-2.145 7.027,0.168 1.536,2.098 2.046,5.111 0.179,6.474 z"
   id="path72" />
      <path
   fill="#ffffff"
   d="m 116.375,29.875 c -3.098,3.407 2.163,10.324 7.206,6.642 1.867,-1.363 1.356,-4.376 -0.179,-6.474 -1.693,-2.313 -4.816,-2.599 -7.027,-0.168 z"
   id="path74" />
      <ellipse
   cx="123.536"
   cy="32.973999"
   rx="2.4170001"
   ry="2.0139999"
   id="ellipse76" />
    </g>
  </g>
</svg>
