<?xml version="1.0" encoding="UTF-8" standalone="no"?>
<svg
   version="1.1"
   id="shark1-a"
   x="0px"
   y="0px"
   width="140.50035"
   height="102.53328"
   viewBox="0 0 140.50035 102.53328"
   enable-background="new 0 0 150 150"
   xml:space="preserve"
   sodipodi:docname="shark-a_.svg"
   xmlns:inkscape="http://www.inkscape.org/namespaces/inkscape"
   xmlns:sodipodi="http://sodipodi.sourceforge.net/DTD/sodipodi-0.dtd"
   xmlns="http://www.w3.org/2000/svg"
   xmlns:svg="http://www.w3.org/2000/svg"><defs
   id="defs58" /><sodipodi:namedview
   id="namedview56"
   pagecolor="#ffffff"
   bordercolor="#000000"
   borderopacity="0.25"
   inkscape:showpageshadow="2"
   inkscape:pageopacity="0.0"
   inkscape:pagecheckerboard="0"
   inkscape:deskcolor="#d1d1d1" />
  <g
   id="g53"
   transform="translate(-4.99976,-19.000001)">
    <g
   id="Body">
      <g
   id="Teeth">
        <path
   fill="#ffffff"
   stroke="#000000"
   d="m 95.999,76.837 c -0.5,0.129 -1.312,-1.987 -1.851,-3.673 0.705,-0.352 1.388,-0.678 2.056,-0.979 0.362,1.831 0.325,4.516 -0.205,4.652 z"
   id="path2" />
        <path
   fill="#ffffff"
   stroke="#000000"
   d="m 123.373,74.146 c -0.605,2.03 -2.988,5.427 -3.671,5.09 -0.685,-0.34 0.507,-4.258 1.182,-6.15 z"
   id="path4" />
        <path
   fill="#ffffff"
   stroke="#000000"
   d="m 117.764,71.741 c -0.509,2.062 -2.722,5.587 -3.418,5.288 -0.699,-0.301 0.297,-4.278 0.881,-6.208 z"
   id="path6" />
        <path
   fill="#ffffff"
   stroke="#000000"
   d="m 109.044,75.492 c -0.673,-0.178 -0.321,-3.674 -0.004,-5.782 1.062,0.063 1.838,0.209 2.661,0.37 -0.366,2.161 -1.965,5.594 -2.657,5.412 z"
   id="path8" />
        <path
   fill="#ffffff"
   stroke="#000000"
   d="m 106.182,69.262 c 0,0.095 -0.004,0.196 -0.004,0.196 0,0 0,-0.053 0.004,-0.196 -0.193,2.513 -1.218,5.528 -1.83,5.45 -0.572,-0.071 -0.647,-2.782 -0.603,-4.708 0,0 0.032,-0.902 0,0 0.033,-0.902 2.433,-0.742 2.433,-0.742 z"
   id="path10" />
        <path
   fill="#ffffff"
   stroke="#000000"
   d="m 99.625,75.527 c -0.55,0.016 -0.962,-2.422 -1.175,-4.308 0.771,-0.271 1.544,-0.503 2.333,-0.701 0.055,1.996 -0.556,4.996 -1.158,5.009 z"
   id="path12" />
        <path
   fill="#ffffff"
   stroke="#000000"
   d="m 128.835,83.802 c -0.489,-0.521 1.456,-3.3 2.731,-4.935 0.801,0.461 1.625,0.876 2.234,1.631 -1.277,1.67 -4.445,3.859 -4.965,3.304 z"
   id="path14" />
        <path
   fill="#ffffff"
   stroke="#000000"
   d="m 128.77,77.033 c -0.894,1.902 -3.734,4.854 -4.358,4.406 -0.626,-0.45 1.112,-4.121 2.056,-5.875 z"
   id="path16" />
        <path
   fill="#ffffff"
   stroke="#000000"
   d="m 132.618,87.531 c -0.382,-0.538 1.479,-2.623 2.93,-4.068 0.396,0.85 0.741,1.719 1.093,2.598 -1.621,1.084 -3.683,1.95 -4.023,1.47 z"
   id="path18" />
        <path
   fill="#ffffff"
   stroke="#000000"
   d="m 125.243,82.48 c 0.511,0.062 0.604,2.354 0.573,4.137 -0.771,0.068 -1.517,0.124 -2.237,0.158 0.235,-1.851 1.122,-4.362 1.664,-4.295 z"
   id="path20" />
        <path
   fill="#ffffff"
   stroke="#000000"
   d="m 98.857,79.396 c 0.668,-1.552 2.867,-4.002 3.381,-3.662 0.514,0.344 -0.785,3.336 -1.494,4.77 z"
   id="path22" />
        <path
   fill="#ffffff"
   stroke="#000000"
   d="m 103.018,81.086 c 0.735,-1.979 3.33,-5.188 3.989,-4.799 0.658,0.389 -0.78,4.208 -1.575,6.045 z"
   id="path24" />
        <path
   fill="#ffffff"
   stroke="#000000"
   d="m 111.966,78.396 c 0.614,0.349 -0.509,3.646 -1.289,5.609 -1.017,-0.34 -1.735,-0.683 -2.499,-1.054 0.838,-1.998 3.157,-4.91 3.788,-4.555 z"
   id="path26" />
        <path
   fill="#ffffff"
   stroke="#000000"
   d="m 113.34,84.898 c 0.021,-0.094 0.049,-0.189 0.049,-0.189 0,0 -0.014,0.05 -0.049,0.189 0.751,-2.391 2.419,-5.045 2.996,-4.812 0.539,0.221 0.008,2.872 -0.47,4.729 0,0 -0.233,0.867 0,0 -0.233,0.867 -2.526,0.083 -2.526,0.083 z"
   id="path28" />
        <path
   fill="#ffffff"
   stroke="#000000"
   d="m 120.988,81.671 c 0.521,0.188 0.14,2.632 -0.26,4.479 -0.812,-0.03 -1.608,-0.1 -2.414,-0.202 0.581,-1.893 2.104,-4.485 2.674,-4.277 z"
   id="path30" />
        <path
   fill="#ffffff"
   stroke="#000000"
   d="m 95.341,77.453 c 0.722,-1.162 2.792,-2.839 3.166,-2.492 0.374,0.348 -1.032,2.588 -1.774,3.648 z"
   id="path32" />
      </g>
      <path
   id="Fill"
   fill="#2f8eff"
   d="M 129.993,41.787 C 109.316,22.731 87.081,31.349 75.246,43.596 75.077,43.876 74.84,44.12 74.633,44.203 73.916,44.489 51.205,29.966 47.955,32.762 43.43,36.657 55.242,55.193 57.413,59.486 50.548,63.348 41.418,78.743 39.051,84.703 l -0.302,0.232 C 35.397,82.355 30.212,80.14 26.09,79.796 22.623,79.51 4.845,79.439 7.426,86.942 c 0.831,2.418 5.315,5.173 7.388,6.306 8.948,4.89 19.835,0.972 22.385,-0.006 -1.076,7.271 -2.037,16.655 2.068,22.28 0.992,1.354 3.437,3.476 5.185,2.709 2.424,-1.065 3.938,-5.58 4.58,-7.192 1.801,-4.528 1.3,-13.485 -4.796,-21.388 12.469,-14.279 31.096,-6.423 35.255,-2.709 4.572,4.082 10.509,8.724 22.621,9.454 7.438,-0.828 19.602,-3.268 24.907,-8.999 -10.82,-1.562 -29.961,-3.213 -36.43,-13.578 19.361,-9.773 39.021,-4.521 48.311,13.693 3.779,-5.021 3.561,-13.228 3.396,-15.867 -0.746,-12.122 -3.605,-21.841 -12.303,-29.858 z" />
      <path
   id="Outline_2_"
   d="M 109.305,27.857 C 103.178,26.812 85.381,27.561 74.411,41.785 69.857,38.082 51.697,26.98 46.313,29.634 44.045,30.751 44.018,35.147 44.542,37.479 45.84,43.251 51.473,53.5 54.604,58.368 49.034,62.649 41.215,72.61 37.588,81.853 34.035,78.249 29.638,78.035 25.051,77.091 20.83,76.224 3.984,78.004 5.048,85.496 c 0.889,6.244 10.782,10.963 15.857,11.86 3.455,0.611 8.577,1.189 11.839,-0.326 0.77,-0.357 1.507,-0.789 2.29,-1.121 -1.626,6.874 -1.34,13.091 1.858,19.38 0.853,1.676 3.458,5.763 5.271,6.164 4.733,1.047 8.346,-8.427 9.333,-12.095 1.891,-7.034 -0.559,-13.74 -4.477,-19.236 7.657,-6.771 17.628,-8.025 26.381,-3.832 0.746,0.357 1.475,0.883 2.218,1.375 C 88,98.5 92.652,98.5 98.006,99.23 l 0.002,-0.002 c 5.632,1.438 27.396,-5.024 31.43,-12.018 0.164,-0.283 -0.597,-0.925 -0.863,-1.027 -2.139,-0.797 -29.639,-3.807 -34.482,-11.8 12.838,-5.783 32.494,-5.549 43.835,16.399 5.294,-3.852 6.919,-10.383 7.345,-14.944 C 147.445,52.65 133.932,32.06 109.305,27.857 Z M 138.9,87.514 C 129.611,69.3 109.951,64.048 90.59,73.821 c 6.469,10.365 25.609,12.015 36.43,13.578 -5.306,5.731 -17.469,8.171 -24.907,8.999 C 90,95.667 84.063,91.025 79.491,86.943 75.332,83.229 56.705,75.373 44.236,89.652 c 6.096,7.902 6.597,16.859 4.796,21.388 -0.642,1.612 -2.156,6.127 -4.58,7.192 -1.748,0.767 -4.193,-1.354 -5.185,-2.709 -4.105,-5.625 -3.144,-15.01 -2.068,-22.28 -2.55,0.978 -13.437,4.896 -22.385,0.006 C 12.741,92.116 8.257,89.361 7.426,86.943 4.845,79.439 22.623,79.51 26.09,79.797 c 4.122,0.344 9.307,2.559 12.659,5.139 l 0.302,-0.232 C 41.418,78.744 50.548,63.349 57.413,59.487 55.242,55.194 43.43,36.658 47.955,32.763 c 3.25,-2.796 25.961,11.727 26.678,11.441 0.208,-0.083 0.444,-0.327 0.613,-0.607 11.835,-12.247 34.07,-20.865 54.747,-1.809 8.698,8.017 11.557,17.736 12.303,29.86 0.165,2.638 0.384,10.844 -3.396,15.866 z" />
      <path
   id="Gill_1_"
   d="m 84.342,79.682 c -4.48,-5.018 -1.303,-17.28 2.904,-21.322 0.896,-0.861 3.033,-2.784 3.663,-2.136 1.161,1.2 -0.774,1.91 -1.574,2.76 -3.526,3.747 -5.433,10.559 -5.067,15.809 0.094,1.342 0.742,2.55 1.162,3.723 0.425,1.196 -0.459,1.87 -1.088,1.166 z" />
      <path
   id="Gill"
   d="m 79.834,59.617 c -0.734,1.685 -1.057,1.944 -1.576,3.455 -1.666,4.823 -0.98,7.964 0.699,11.708 0.412,0.913 -0.096,1.897 -1.018,1.388 -1.9,-1.048 -2.066,-3.694 -2.398,-5.714 -0.379,-3.38 0.577,-8.126 2.107,-11.333 0.977,-2.044 3.029,-1.435 2.186,0.496 z" />
    </g>
    <g
   id="Front_Fin">
      <path
   id="Fill_1_"
   fill="#2f8eff"
   d="m 73.932,101.641 c 0.584,1.387 3.27,1.568 4.494,1.721 5.815,0.712 12.611,-2.865 16.057,-7.895 0.774,-1.133 1.33,-5.035 3.371,-4.146 -5.437,-9.734 -13.379,-7.554 -15.271,-6.86 0.257,0.361 0.385,1.045 0.431,1.396 1.006,7.808 -10.227,13.066 -9.082,15.784 z" />
      <path
   id="Outline_3_"
   d="m 97.854,91.32 c -2.041,-0.889 -2.597,3.014 -3.371,4.146 -3.445,5.029 -10.241,8.606 -16.057,7.895 -1.224,-0.152 -3.91,-0.334 -4.494,-1.721 -1.145,-2.718 10.087,-7.976 9.082,-15.785 -0.046,-0.351 -0.174,-1.034 -0.431,-1.396 -0.204,-0.287 -0.489,-0.371 -0.881,0.08 -1.707,9.931 -12.418,13.063 -12.592,16.747 -0.195,4.15 10.781,4.286 13.341,3.896 2.462,-0.377 4.744,-1.031 6.974,-2.18 4.009,-2.061 8.249,-4.464 9.456,-8.246 0.292,-0.914 -0.095,-3.029 -1.027,-3.436 z" />
    </g>
    <g
   id="L_Eye">
      <path
   id="White"
   fill="#ffffff"
   d="m 103.382,25.383 c -2.905,2.694 -4.61,7.392 -2.274,10.146 2.125,2.504 6.113,1.892 8.979,-0.186 2.557,-1.855 4.15,-4.842 2.869,-7.894 -1.61,-3.829 -6.63,-4.791 -9.574,-2.066 z" />
      <path
   id="Pupil"
   d="m 107.723,30.726 c 0.237,-1.46 1.764,-2.39 3.408,-2.077 1.646,0.314 2.785,1.752 2.547,3.212 -0.238,1.46 -1.765,2.39 -3.408,2.076 -1.646,-0.313 -2.788,-1.75 -2.547,-3.211 z" />
      <path
   id="Outline"
   d="m 115.248,27.648 c -0.818,-3.118 -4.346,-5.763 -7.199,-6.16 -6.484,-0.902 -12.686,6.57 -10.089,13.44 3.122,8.263 20.231,3.952 17.288,-7.28 z m -5.162,7.695 c -2.865,2.078 -6.854,2.69 -8.979,0.186 -2.336,-2.754 -0.631,-7.452 2.274,-10.146 2.944,-2.725 7.964,-1.763 9.573,2.066 1.282,3.052 -0.311,6.039 -2.868,7.894 z" />
      <path
   id="Eyebrow"
   d="m 110.777,23.05 c -0.656,0.135 -1.688,-0.352 -2.318,-0.583 -2.503,-0.919 -7.542,-0.8 -9.352,-2.114 -0.205,-0.149 -0.293,-0.611 -0.17,-0.839 0.994,-1.856 10.41,1.827 11.715,2.944 0.15,0.127 0.183,0.415 0.125,0.592 z" />
    </g>
    <g
   id="R_Eye">
      <path
   id="White_1_"
   fill="#ffffff"
   d="m 130.432,36.125 c -3.947,1.664 -2.334,10.118 3.346,9.064 2.103,-0.39 2.887,-3.289 2.445,-5.828 -0.487,-2.798 -2.973,-4.423 -5.791,-3.236 z" />
      <path
   id="Pupil_1_"
   d="m 133.07,41.016 c 0.447,-0.988 1.709,-1.313 2.822,-0.727 1.111,0.586 1.651,1.862 1.207,2.851 -0.445,0.989 -1.709,1.313 -2.82,0.727 -1.113,-0.587 -1.653,-1.863 -1.209,-2.851 z" />
      <path
   id="Outline_1_"
   d="m 135.37,34.437 c -1.812,-1.069 -4.886,-1.14 -6.573,0.295 -6.081,5.168 -0.084,16.647 7.182,12.083 4.25,-2.67 3.496,-9.951 -0.609,-12.378 z m -1.593,10.752 c -5.68,1.054 -7.293,-7.4 -3.346,-9.064 2.818,-1.187 5.305,0.438 5.791,3.236 0.442,2.539 -0.342,5.438 -2.445,5.828 z" />
      <path
   id="Eyebrow_1_"
   d="m 131.564,34.119 c 0.402,0.28 1.207,0.256 1.687,0.285 1.892,0.116 5.206,1.655 6.731,1.308 0.172,-0.039 0.347,-0.32 0.322,-0.507 -0.199,-1.521 -7.367,-1.806 -8.514,-1.443 -0.125,0.041 -0.22,0.222 -0.226,0.357 z" />
    </g>
  </g>
</svg>
