<?xml version="1.0" encoding="UTF-8" standalone="no"?>
<svg
   id="Layer_1"
   version="1.1"
   viewBox="0 0 392.1087 194.15329"
   sodipodi:docname="Shark.svg"
   width="392.1087"
   height="194.15329"
   xmlns:inkscape="http://www.inkscape.org/namespaces/inkscape"
   xmlns:sodipodi="http://sodipodi.sourceforge.net/DTD/sodipodi-0.dtd"
   xmlns="http://www.w3.org/2000/svg"
   xmlns:svg="http://www.w3.org/2000/svg">
  <sodipodi:namedview
     id="namedview189"
     pagecolor="#ffffff"
     bordercolor="#000000"
     borderopacity="0.25"
     inkscape:showpageshadow="2"
     inkscape:pageopacity="0.0"
     inkscape:pagecheckerboard="0"
     inkscape:deskcolor="#d1d1d1" />
  <!-- Generator: Adobe Illustrator 29.8.3, SVG Export Plug-In . SVG Version: 2.1.1 Build 3)  -->
  <defs
     id="defs22">
    <style
       id="style2">
      .st0 {
        fill: #d5d6e0;
      }

      .st1 {
        fill: #898c9c;
      }

      .st2 {
        fill: #b7b9c6;
      }

      .st3 {
        fill: #a9abb8;
      }

      .st4 {
        fill: #a7a9b8;
      }

      .st5 {
        fill: #040405;
      }

      .st6 {
        fill: #c2c3cf;
      }

      .st7 {
        fill: #d5d6e5;
      }

      .st8 {
        fill: #8b8fa2;
      }

      .st9 {
        fill: #9b9ead;
      }

      .st10 {
        fill: #adb0bc;
      }

      .st11 {
        fill: #cccdd8;
      }

      .st12 {
        fill: #9b9eac;
      }

      .st13 {
        fill: #d8d9eb;
      }

      .st14 {
        fill: url(#linear-gradient1);
      }

      .st15 {
        fill: #bebfcf;
      }

      .st16 {
        fill: #a4a7b5;
      }

      .st17 {
        fill: #e5e6f4;
      }

      .st18 {
        fill: #999caf;
      }

      .st19 {
        fill: #b5b7c3;
      }

      .st20 {
        fill: #030304;
      }

      .st21 {
        fill: #9699a9;
      }

      .st22 {
        fill: #9497a9;
      }

      .st23 {
        fill: #a8abc1;
      }

      .st24 {
        fill: #5b6179;
      }

      .st25 {
        fill: #c1c3cf;
      }

      .st26 {
        fill: #c0c1cd;
      }

      .st27 {
        fill: #7d8192;
      }

      .st28 {
        fill: #a1a4b2;
      }

      .st29 {
        fill: #9397a5;
      }

      .st30 {
        fill: #aeb0bd;
      }

      .st31 {
        fill: #030303;
      }

      .st32 {
        fill: #ddddec;
      }

      .st33 {
        fill: #abadba;
      }

      .st34 {
        fill: #a4a7ba;
      }

      .st35 {
        fill: #a3a6b3;
      }

      .st36 {
        fill: #cbcdd8;
      }

      .st37 {
        fill: #020303;
      }

      .st38 {
        fill: #8a8d9d;
      }

      .st39 {
        fill: #26262b;
      }

      .st40 {
        fill: #60667c;
      }

      .st41 {
        fill: #b2b5c1;
      }

      .st42 {
        fill: #9c9fad;
      }

      .st43 {
        fill: #c9cad5;
      }

      .st44 {
        fill: #c6c7d2;
      }

      .st45 {
        fill: #aaacba;
      }

      .st46 {
        fill: #9497a6;
      }

      .st47 {
        fill: #e7e7e7;
      }

      .st48 {
        fill: #bbbdc9;
      }

      .st49 {
        fill: #9195a4;
      }

      .st50 {
        fill: #c8c9de;
      }

      .st51 {
        fill: url(#linear-gradient);
      }

      .st52 {
        fill: #888c9b;
      }

      .st53 {
        fill: #656a80;
      }

      .st54 {
        fill: #a4a7b4;
      }

      .st55 {
        fill: #bec0d4;
      }
    </style>
    <linearGradient
       id="linear-gradient"
       x1="868.25"
       y1="1444.46"
       x2="895.65997"
       y2="1679.87"
       gradientTransform="matrix(0.72,0,0,0.72,-477.77189,-1026.6759)"
       gradientUnits="userSpaceOnUse">
      <stop
         offset="0"
         stop-color="#5f657c"
         id="stop4" />
      <stop
         offset=".28"
         stop-color="#61667d"
         id="stop6" />
      <stop
         offset=".65"
         stop-color="#828696"
         id="stop8" />
      <stop
         offset=".76"
         stop-color="#808494"
         id="stop10" />
      <stop
         offset=".86"
         stop-color="#656a80"
         id="stop12" />
      <stop
         offset="1"
         stop-color="#676c82"
         id="stop14" />
    </linearGradient>
    <linearGradient
       id="linear-gradient1"
       x1="1119.2"
       y1="1506.39"
       x2="1151.66"
       y2="1593.54"
       gradientTransform="matrix(0.72,0,0,0.72,-477.77189,-1026.6759)"
       gradientUnits="userSpaceOnUse">
      <stop
         offset="0"
         stop-color="#6b7085"
         id="stop17" />
      <stop
         offset="1"
         stop-color="#828696"
         id="stop19" />
    </linearGradient>
  </defs>
  <path
     d="m 177.54811,49.574074 c 21.7,1.05 42.98,7.01 63.79,12.94 4.94,-1.42 9.44,-4.23 14.37,-5.69 4.06,-1.2 15.59,-3.83 19.24,-2.77 6.11,1.77 1.63,17.01 0.51,21.43 l 28.44,14.86 c 4.29,0.02 18,-18.22 21.59,-22.06 15.22,-16.26 33.66,-32.06 55.25,-39.07 11.28,-3.66 13.69,-1.45 9.33,10.05 -1.36,3.6 -8.45,13.63 -8.68,15.16 -0.48,3.25 8.84,9.08 6.01,15.31 -1.52,3.35 -9.3,4.48 -12.25,5.74 -2.95,1.26 -7.5,5.62 -10.07,7.93 -5.64,5.07 -10.67,11 -16.07,16.32 -0.32,1.629996 15.67,24.489996 17.77,28.099996 1.83,3.16 4.44,7.65 3.71,11.38 -0.87,4.47 -7,2.87 -10.23,2.34 -13.39,-2.16 -30.29,-8.1 -42.08,-14.8 -2.69,-1.53 -14.47,-10.65 -15.4,-10.61 -1.38,0.06 -15.09,5.68 -15.63,6.33 -0.68,0.82 -1.66,7.33 -2.51,9.36 -1.36,3.25 -2.49,4.47 -5.59,5.93 -8.49,4.01 -9.89,-0.07 -16.87,-3.88 l -24.87,7.5 c -1.54,1.15 1.1,4.35 1.65,6.25 6.22,21.72 -25.43,5.39 -33.69,5.56 -7.57,0.16 -20.54,4.87 -29.53,5.81 -7.03,0.73 -14.17,0.8 -21.23,0.73 2.67,6.63 8.14,12.14 11.19,18.68 1.65,3.54 5.56,12.41 1.33,15.08 -2.68,1.69 -15.98,-0.27 -19.76,-0.97 -21.05,-3.87 -36.08,-15.06 -49.109998,-31.53 -26.4,-5.2 -52.23,-12.29 -74.63,-27.61 -17.3399996,-11.87 -36.67,-31.39 -11.35,-47.219996 30.37,-18.99 66.68,-30.49 101.839998,-36.76 13.19,-20.97 34.96,-40.2200004 59.21,-47.0000004 9.58,-2.68 17.95,-5.92 14.76,7.56 -2.17,9.2100004 -6.17,18.7900004 -8.38,28.3400004 -0.86,3.71 -1.49,7.49 -2.06,11.25 z"
     id="path24" />
  <path
     class="st51"
     d="m 8.3481124,99.974074 c 1.36,-3.52 4.2399996,-4.83 7.2599996,-6.78 28.13,-18.22 68.27,-31.4 101.159998,-36.35 3.12,-0.47 9.28,-0.35 11.63,-1.33 3.59,-1.5 3.16,-6.07 -0.66,-6.89 l -4.91,-0.83 c 11.7,-15.35 36.63,-38.1000004 56.58,-39.9100004 0.98,-0.09 2.07,-0.56 1.65,0.93 -3,8.0900004 -5.53,16.4000004 -7.64,24.7700004 -0.66,2.6 -2.53,15.39 -3.12,15.96 -0.43,0.41 -11.51,-1.32 -7.22,5.31 1.24,1.92 16.58,1.57 19.84,1.93 11.82,1.31 24.82,4.29 36.37,7.19 2.3,0.89 1.4,2.27 -0.82,2.77 -0.23,2.69 -2.23,7.1 -5.33,4.96 -1.52,0.21 -4.38,0.81 -5.14,1.69 l 6.63,6.02 c 3.19,0.02 5.48,0.33 7.68,3.1 l 9.59,-1.91 c 2.48,1.18 5.26,1.62 8.36,1.33 l 5.46,1.43 c 1.5,3.8 6.17,6.01 10.74,5.04 1.62,-2.32 3.46,-4.21 6.42,-2.91 3.59,3.02 9.07,3.44 12.57,0.08 -1.88,-0.9 -1.47,-2.6 0.72,-2.16 9.83,4.69 20.34,10.63 30.24,15.12 l -0.42,1.589996 c -3.71,0.2 -7.25,1.49 -10.63,3.89 l -1.18,-1.16 -1.4,1.32 c -12.55,2.62 -24.5,6.19 -36.74,9.95 -2.31,0.71 -5.04,1.35 -7.21,1.69 -2.85,-0.18 -5.25,0.3 -7.2,1.44 0.94,1 0.54,1.28 -0.72,0.72 -0.89,0.61 -1.24,0.27 -0.72,-0.72 -0.56,-2.49 -7.76,-1.18 -10.41,-0.48 -2.24,0.53 -4.29,1.65 -6.15,3.36 -4.82,2.63 -9.38,3.11 -13.68,1.44 -4.6,-0.17 -7.32,-2.13 -3.8,-6.41 l -18.97,4.84 -2.44,-0.41 c -2.8,2.67 -7,0.55 -4.6,-3.43 l -8.4,2.86 -1.38,-1.05 c -1.35,1.89 -2.65,2.81 -3.91,2.76 l -0.5,1.4 c -2.52,0.98 -4.89,2.23 -7.11,3.76 -0.4,1.37 -2.67,0.57 -2.88,-0.72 -0.76,0.04 -1.52,-0.08 -2.29,-0.36 -1.03,2.3 -4.03,4.46 -5.63,1.8 -1.53,0.1 -3.03,0.19 -4.49,0.27 -0.37,1.82 -0.96,2.05 -2.79,1.75 -0.71,2.57 -3.61,1.37 -5.01,-0.38 l -0.72,1.27 c -0.4,4.11 -2.11,6.43 -5.11,6.96 1.67,0.46 2.68,1.26 3.01,2.37 l -0.18,4.86 c 3.62,3.12 30.17,41.62 28.25,43.38 -21.22,-1.15 -37.78,-8.27 -51.86,-24.1 -4.46,-5.02 -8.93,-13.05 -13.729998,-17.22 -1.43,-1.24 -2.96,-2.17 -4.97,-1.87 -1.24,-1.57 -2.2,-3.25 -2.88,-5.04 -1.57,-2.16 -1.57,-3.36 0,-3.6 0.77,-0.89 1.3,-0.33 0.78,-0.07 -0.4,0.2 -6.17,-5 -4.11,-6.64 l -3.38,-2.15 c -1.97,-3.29 -3.8,-4.1 -7.69,-4.1 -1,0.89 -4.26,-0.28 -5.92,-0.87 -0.22,-0.08 -0.4,-0.3 -0.56,-0.57 -5.42,-2.21 -10.94,-4.61 -16.56,-7.2 -3.07,0.53 -7.36,-0.27 -10.68,-0.95 -1.64,-0.34 -8.59,-1.88 -9.01,-2.18 -0.45,-0.32 -0.83,-0.74 -1.19,-1.19 -0.63,-0.2 -0.62,-0.44 0,-0.72 1.61,-2.88 4.73,-2.98 9.34,-0.28 l 2.9,-0.44 0.06,-1.59 c 7.23,-4.06 -6.32,-12.669996 -5.17,-2.32 l -1.37,1.03 c 0,2.63 -3.31,1.69 -3.62,-0.76 -3.02,0.36 -4.54,0.37 -6.38,-2.19 -5.53,0.11 -11.01,0.07 -16.4399996,-0.12 l -0.2,-1.969996 z"
     id="path26"
     style="fill:url(#linear-gradient)" />
  <path
     class="st14"
     d="m 306.42811,98.534074 c 1.55,0.7 5.69,2.589996 7.04,2.759996 2.6,0.33 4.71,-1.2 2.65,-3.429996 -1.19,-1.28 -5.19,-1.94 -4.64,-3.28 21.26,-22.39 40.4,-48.52 71.27,-57.97 1.67,1.66 -9.28,14.68 -9.41,18.38 -0.12,3.34 4.97,7.68 6.52,10.78 -3.52,2.46 -7.5,2.08 -11.14,4.68 -5.22,3.73 -21.46,19.39 -25.22,24.46 -2.23,3 -2.32,4.79 -1.22,8.449996 2.07,6.88 11.64,15.69 13.84,23.24 -2.96,-0.36 -6,-0.82 -9.13,-1.38 -0.45,-2.01 -3.79,-0.86 -5.25,0.18 -1.58,-3.27 -4.25,-3.96 -7.82,-3.07 l -3.73,-1.2 c -0.86,-1.72 -2.29,-3.02 -4.3,-3.89 -0.98,0.85 -1.37,0.44 -0.72,-0.72 l -1.47,-0.82 c -3.44,-0.07 -9.63,-3.63 -7.17,-7.1 l -1.59,-0.7 c 0.15,-2.16 -0.19,-2.67 -1.54,-4.27 -4.68,1.26 -8.01,1.25 -11.99,-0.79 0.35,0.48 0.56,1.04 0.37,1.63 -0.24,0.79 -5.26,1.23 -6.13,1.25 -0.36,1.83 -2.39,2.44 -6.08,1.82 -1.58,1.29 -2.91,1.65 -4,1.06 -0.23,0.63 -0.47,0.63 -0.72,0 -0.5,-0.05 -0.8,-0.16 -0.72,-0.72 0.22,-1.59 1.72,-2.6 4.48,-3.04 2.31,0.04 4.18,-0.63 5.6,-2 4.41,-1.21 3.82,-2.08 6.46,-3.259996 1.84,-0.82 3.91,-0.5 5.78,-1.06 z"
     id="path28"
     style="fill:url(#linear-gradient1)" />
  <path
     class="st17"
     d="m 39.308112,121.57407 c -4.05,-3.72 0.82,-5.49 3.94,-1.72 l 1.56,0.48 c 6.73,1.07 14.49,3.24 20.31,6.51 0.8,2.92 3.18,5.11 7.13,6.55 l 0.18,1.13 c 1.84,-0.82 3.25,-1.03 2.88,1.44 4.82,1.14 7,13.67 -0.46,10.17 -1.68,0.43 -3.45,0.4 -5.3,-0.09 -3.46,-1.03 -7.01,-1.64 -10.45,-2.87 -13.62,-4.85 -28.42,-13.18 -39.23,-22.69 0.25,-0.8 1.66,-0.26 2.33,-0.17 4.93,0.72 33.82,11.19 35.11,9.89 0.3,-0.31 0.09,-2.58 -0.71,-3.24 -1.35,-1.12 -14.41,-4.52 -17.29,-5.39 z"
     id="path30" />
  <path
     class="st53"
     d="m 230.82811,66.854074 c 1.14,1.11 0.81,2.65 -0.98,4.62 1.46,2.22 3.33,4.08 5.62,5.59 l 0.59,1.81 c 2.7,0.74 4.41,0.96 6.96,1.1 6.21,4.86 11.1,3.69 16.75,-0.88 l 1.06,0.15 c 3.33,4.75 6.78,8.74 13.23,5.44 l 1.42,0.89 c -2.21,3.03 -3.78,3.15 -7.5,2.83 -1.32,-0.11 -6.77,-2.01 -7.13,-1.97 -1.79,0.21 -3.01,3.08 -3.83,3.34 -1.04,0.33 -3.84,0.32 -4.99,0.16 -1.53,-0.21 -7.31,-3.32 -7.52,-4.73 -0.08,-0.53 2.64,0.09 0.74,-1.45 -2.37,0.88 -4.24,-0.93 -6.18,-1.02 -1.71,-0.08 -3.7,1.19 -5.6,0.69 -0.58,-0.15 -0.41,-1.49 -0.84,-1.48 -0.43,0.01 -7,1.37 -8.47,1.64 -0.73,0.13 -1.48,1.26 -1.61,1.25 -0.31,0 -2.23,-3.06 -4.7,-3.84 -1.32,-0.42 -2.33,0.4 -3.52,-0.13 -1.93,-0.87 -4.19,-4.3 -4.55,-4.5 -1.35,-0.76 -3.34,1.13 -2.72,-2.32 l -2.87,-0.36 c -0.64,-1.61 2.26,-0.72 3.64,-2.11 1.82,-1.83 3.11,-9 5,-3.29 l -2.88,2.89 c 1.33,0.58 2.69,-1.24 3.25,-1.23 0.65,0.01 1.32,1.51 1.77,1.23 0.16,-0.1 1.99,-3.05 2.01,-3.24 0.06,-0.73 -1.27,-1.83 -1.26,-2.17 0.06,-2.18 4.27,1.3 3.58,-1.8 3.78,0.95 7.8,1.81 11.52,2.88 z"
     id="path32" />
  <path
     class="st0"
     d="m 178.98811,137.41407 c 0.24,-0.64 0.48,-0.64 0.72,0 1.56,-0.56 2.52,-0.32 2.88,0.72 2.16,-1.48 4.77,-1.16 7.2,-0.72 1.04,-0.97 1.45,-0.53 0.72,0.72 3.84,-0.77 7.53,-0.58 11.05,0.58 0.77,-3.03 6.52,-1.18 4.79,1.58 2.02,2.98 -2.87,3.59 -5.47,3.09 -4.97,2.17 -9.87,4.5 -14.69,6.99 -6.02,1.1 -10.47,1.66 -16.56,2.16 -5.33,0.26 -7.4,-1.09 -6.2,-4.05 -2.07,-4.41 -0.16,-5.69 4.03,-6.78 -1.31,-1.9 -0.35,-3.09 2.89,-3.57 1.65,-1.5 6.4,-1.77 8.64,-0.72 z"
     id="path34" />
  <path
     class="st24"
     d="m 241.62811,70.454074 c 2.02,0.66 4.37,2.67 6.68,2.05 4.12,-1.11 1.65,-5.81 2.01,-6.31 1.45,-2.03 17.62,-4.97 20.83,-5.82 0.66,0.93 -1.66,11.87 -2.16,12.24 -0.46,0.35 -5.87,-2.66 -6.51,1.09 -0.68,3.98 3.73,3.99 5.8,6.1 0.46,3.41 -6.02,1.47 -7.39,-0.03 -0.21,-2.93 -1.44,-3.71 -3.68,-2.32 2.3,3.63 -1.41,5.15 -4.65,3.8 -2.34,4.03 -8.69,0.06 -10.34,-2.88 -1.14,3.94 -4.37,1.16 -6.04,-1.21 -7.5,-4.63 -0.09,-7.49 5.45,-6.72 z"
     id="path36" />
  <path
     class="st6"
     d="m 297.06811,107.89407 c 0.34,-0.69 0.92,-0.59 1.44,0 1.08,0.96 1.56,0.96 1.44,0 1.72,-1.34 4.36,-0.35 3.6,2.16 -5.82,0.91 -17.85,6.83 -23.04,10.08 -2.12,0.12 -4.21,0.91 -6.27,2.37 l -1.08,-0.33 c -2.32,3.5 -6.45,0.99 -7,-2.61 -2.81,0.88 -5.47,1.79 -7.97,2.72 -0.17,0.62 -0.42,0.6 -0.72,0 -1.07,1.73 -3.56,0.8 -4.78,-0.54 l -3.14,0.54 -0.79,1.51 c -4.4,1.09 -8.68,2.61 -12.84,4.54 l -1.49,-1 c -0.31,-0.22 -0.58,-0.46 -0.72,-0.76 -0.76,-1.55 12.76,-6.76 14.4,-7.16 0.18,-0.64 0.42,-0.62 0.72,0 3.75,-1.32 7.59,-2.04 11.52,-2.16 0.56,-2.7 8.33,-4.67 10.08,-2.88 0.23,-1.38 1.44,-1.75 3.63,-1.09 2.08,-2.02 5.89,-3.91 7.53,-3.82 0.45,-1.41 2.09,-1.37 3.24,-0.85 0.23,-0.08 0.53,0.08 0.72,0 3.29,0.21 6.73,-0.35 10.32,-1.69 z"
     id="path38" />
  <path
     class="st40"
     d="m 241.62811,70.454074 c -2.88,3.23 -7.06,-1.05 -7.22,4.65 4.02,0.46 3.49,3.04 6.14,4.71 -0.21,-3.25 1.61,-2.68 1.79,-2.89 0.38,-0.45 -2.47,-1.92 -1.07,-2.87 3.85,-0.14 0.79,3.02 3.21,5.44 0.58,0.59 4.18,2.31 4.85,2.37 1.32,0.12 1.82,-1.68 2.88,-1.94 0.9,-0.23 4.57,1.43 4.53,-0.46 0,-0.26 -2.84,-2.9 1.24,-3.85 4.67,-1.08 3.64,3.2 3.86,3.44 0.15,0.16 3.83,1.22 4.07,1.26 0.94,0.16 2.05,-0.57 2.37,-0.49 3.27,0.78 5.18,2.29 7.92,3.6 -0.75,0.41 -0.18,1.42 -0.72,2.16 -3.02,1.64 -6.64,2.41 -9.85,0.92 -1.83,-0.85 -1.72,-2.12 -2.63,-2.88 -0.85,-0.71 -2.64,0.89 -1.92,-3.08 -2.99,-0.52 -3.93,2.73 -5.73,3.33 -0.33,0.11 -6.44,0.93 -6.78,0.87 -0.77,-0.15 -1.27,-1.4 -1.91,-1.66 -1.04,-0.41 -3.91,-1.68 -4.14,-1.75 -1.55,-0.45 -8.55,-1.09 -8.8,-1.51 -0.1,-0.17 0.91,-1.3 0.62,-2.02 -0.09,-0.23 -3.3,-2.39 -3.91,-2.97 -0.92,-0.88 -0.89,-3.12 -2.41,-2.12 -0.08,0.06 -0.1,2.73 -1.49,1.35 -0.07,-0.07 -0.72,-1.7 -0.71,-1.8 0.06,-0.84 2.17,-0.82 2.66,-1.29 0.17,-0.17 2.17,-3.41 2.37,-4.11 3.61,1.04 7.21,2.42 10.8,3.6 z"
     id="path40" />
  <path
     class="st0"
     d="m 249.54811,122.29407 3.15,-0.68 c 1.5,1.26 2.9,2.02 4.77,0.68 0.25,0.04 0.53,-0.07 0.72,0 5.06,-3.16 3.75,4.7 -0.72,5.76 -8.56,1.8 -16.76,5.52 -25.2,7.2 -3.43,0.93 -5.72,1.82 -8.23,3.99 -10.21,-0.26 -1.62,-8.47 4,-8.7 l 3.51,-2.49 c -0.13,-1.79 2.22,-2.54 2.88,-0.72 4.52,-1.51 10.74,-4.9 15.12,-5.04 z"
     id="path42" />
  <path
     class="st13"
     d="m 13.388112,114.37407 c -2.25,-3.04 1.74,-3.72 4.45,-3.21 2.98,1.71 5.6,2.09 7.87,1.12 3.87,0.73 7.69,1.32 11.48,1.77 1.24,0.4 6.66,3.25 6.44,4.64 3.16,0.41 6.3,1.17 9.36,2.16 0.81,-1.07 1.45,-0.66 1.44,0.72 4.85,0.74 8.97,2.2 12.36,4.4 3.11,-0.06 4.67,1.6 4.66,4.97 5.28,-0.59 6.36,4.33 0.98,3.58 -2.7,-1.21 -5.57,-2.61 -7.92,-4.69 -1.01,-0.89 -0.42,-2.19 -0.91,-3.04 -1.44,-2.49 -9.13,-2.28 -12.06,-3.53 -0.95,-0.41 -1.44,-1.91 -2.65,-2.28 -1.95,-0.6 -4.48,0.3 -6.19,-0.12 -0.29,-0.07 -4.15,-5.81 -3.38,0.7 -4.65,-1.4 -13.35,-4.85 -17.75,-4.99 -5.69,-0.18 -3.23,3.36 -8.17,-2.21 z"
     id="path44" />
  <path
     class="st29"
     d="m 155.94811,125.17407 c -0.45,1.79 -0.5,3.66 -0.16,5.6 1.27,2.04 -0.38,4.16 -2.88,3.8 2.05,3.09 -0.63,7.58 -4.12,6.67 l -1.24,3.16 c 1.48,1.83 2.72,4.56 -0.24,5.25 -2.27,-2.79 -4.57,-5.58 -6.48,-8.64 2.07,-2.85 2.81,-0.33 0.57,-0.69 -4.07,-0.65 -2.9,-5.08 0.52,-6.06 -3.41,-3.79 -3.25,-5.87 0.49,-6.24 1.47,-1.74 3.34,-2.21 5.62,-1.41 1.11,-0.35 2.53,-0.04 3.66,-1.09 0.73,-0.67 -0.14,-1.74 -0.06,-1.79 0.69,-0.43 3.96,-0.16 4.32,1.43 z"
     id="path46" />
  <path
     class="st28"
     d="m 158.82811,125.89407 h 0.72 c 1.85,0.4 0.84,2.24 -0.72,2.16 -2.37,1.16 3.47,4.72 4.62,3.63 l 1.14,1.41 c 2.2,-2.23 7.68,-1.04 5.76,2.16 l -0.2,0.83 c -4.69,0.07 -8.1,1.38 -10.24,3.94 -0.65,-0.51 -5.19,0 -5.52,1.3 -0.31,1.2 -1.46,7.82 -1.25,8.22 2.13,0.89 2.82,2.13 2.1,3.7 -1.78,-0.08 -4.2,0.4 -5.77,-0.35 -1.22,-0.59 -1.48,-2.42 -2.15,-3.25 1.28,-3.27 -1.4,-4.36 -1.38,-4.63 0.03,-0.73 1.49,-4.78 2.1,-5.14 1.04,-0.6 2.19,1.2 3.53,-0.73 1.79,-2.56 -0.36,-3.61 -0.65,-6.06 0.79,-0.15 3.4,0.21 3.6,0 0.52,-0.55 0.61,-6.51 -1.44,-7.19 1.01,0.29 2.25,-0.69 2.88,-0.73 1.26,-0.07 2.35,0.71 2.88,0.72 z"
     id="path48" />
  <path
     class="st11"
     d="m 258.18811,122.29407 c 0.29,-3.8 3.03,-2.11 4.34,-2.61 2.86,-1.1 4.71,-2.93 8.62,-2.43 0.18,3.24 -2.73,1.31 -2.87,1.44 -1.8,1.52 1.18,4.56 3.6,3.59 -1.17,-0.99 0.77,-2.95 1.79,-2.88 -0.5,4.61 2.68,-0.71 3.01,-0.76 l 3.84,1.48 c -0.45,0.29 -1.66,-0.16 -2.06,1.17 -0.56,1.85 -0.04,5.09 -0.82,7.47 -0.64,0.77 -2.22,1.96 -3.21,1.95 -1.41,-0.01 -3.97,-0.63 -5.43,-1.23 -5.74,-3.11 -5.47,-2.71 -11.52,-1.44 l 2.87,-4.68 c -0.55,-1.04 -1.41,-0.81 -2.15,-1.08 z"
     id="path50" />
  <path
     class="st1"
     d="m 132.90811,138.85407 c -2.78,0.01 -4.35,-1.16 -5.76,-3.59 1.06,-0.64 4.53,-0.5 4.93,-0.84 0.3,-0.25 1.26,-4.84 1.75,-5.81 2.24,-4.42 3.24,0.22 5.06,0.04 3.44,-0.34 5.03,-3.81 5.91,-4.2 1.49,-0.67 1.09,2.58 3.23,2.16 -0.24,0.08 -0.67,0.96 -1.32,1.09 -2.58,0.51 -3.52,-2.39 -2.28,2.51 l -4.32,-1.43 c 1.69,1.77 1.5,4.97 4.32,4.32 -0.57,3.41 -5.01,2.32 -4.32,5.76 2.13,-1.56 1.08,0.74 1.79,0.72 0.77,-0.02 -0.24,-2.61 1.46,-0.73 l 0.34,2.88 c -0.3,0.22 -2.37,-0.46 -2.88,-0.71 -1.44,-0.71 -2.36,-2.37 -4.13,-2.76 -2,-0.44 -2.97,0.6 -3.79,0.6 z"
     id="path52" />
  <path
     class="st50"
     d="m 11.228112,107.89407 c 6.75,0.1 13.21,2.23 19.44,4.32 1.48,-2.23 10.11,-0.91 8.64,2.16 l 6.35,1.17 c 6.25,2.92 12.75,4.79 19.52,5.62 1.18,1.69 0.46,2.64 -1.38,1.85 -0.18,0.94 -1.11,0.94 -2.77,0 l -6.59,-1.44 c -0.46,-0.24 -0.98,-0.51 -1.44,-0.72 -3.06,-0.96 -6.18,-1.68 -9.36,-2.16 -2.18,-0.89 -4.82,-2.88 -6.24,-3.36 -1.18,-0.4 -3.93,0.16 -5.47,-0.29 -0.58,-0.17 -0.68,-1.66 -2.67,-1.84 -0.2,-0.02 -3.7,0.45 -3.88,0.51 -0.64,0.22 -0.39,1.4 -0.83,1.4 -0.73,0 -6.26,-2.56 -7.76,-2.71 -0.57,-0.06 -4.12,0.18 -3.39,1.96 -2.24,-2.52 -4.0299996,-4.65 -5.0399996,-7.92 0.24,-1.9 1.59,-2.02 2.8799996,-0.72 1.55,0.46 1.35,1.51 0,2.16 z"
     id="path54" />
  <path
     class="st15"
     d="m 55.868112,118.69407 c 2.71,-1.68 8.02,0 10.08,2.16 5.94,1.74 11.7,4.6 16.21,8.89 -0.59,2.2 2.43,5.79 4.65,6.76 l 0.74,2.34 c 1.56,1.81 3.5,2.07 2.88,5.04 -0.14,0.69 -0.8,1.19 -1.44,1.44 -1.71,-1.03 -2.73,-2.85 -3.08,-5.44 l -4.75,-2.75 c -2.5,-0.62 -3.15,-2.11 -2.5,-4.49 l -5.96,-1.85 c -0.31,-3.01 -1.54,-4.21 -4.23,-3.64 -1.53,-0.61 -4.69,-2.02 -4.68,-4.15 l 1.07,-1.44 c -7.6,0.12 -13.95,-3.56 -20.91,-5.68 -2.26,-0.69 -2.18,0.74 -4.64,-1.52 l 0.93,-1.59 c 5.88,0.15 11,2.61 15.63,5.91 z"
     id="path56" />
  <path
     class="st32"
     d="m 75.308112,135.97407 c 0.63,-4.01 4.04,-0.64 5.28,1.5 3.85,1.18 6.23,1.93 6.36,6.21 1.84,0.57 2.85,4.14 1.47,5.18 0.65,0.65 1.08,1.35 0.57,2.23 -6.74,-1.13 -12.94,-3.1 -19.44,-5.04 1.78,-3.42 1.05,0.83 2.51,0 5.05,-2.91 2.12,-0.81 5.06,-0.7 2.94,0.11 0.83,-1.92 0.74,-2.49 -0.19,-1.24 -0.07,-3.31 -0.39,-4.17 -0.32,-0.86 -1.27,-0.76 -1.75,-1.3 -0.48,-0.54 -0.34,-1.36 -0.4,-1.41 z"
     id="path58" />
  <path
     class="st7"
     d="m 54.428112,121.57407 9.36,1.44 c 1.98,0.76 2.8,2.64 2.99,2.74 0.3,0.16 3.99,-0.63 6.39,1.23 1.23,0.95 -0.11,2.32 0,2.47 0.45,0.64 6.9,1.95 7.19,2.2 0.29,0.25 -0.82,3.4 -0.69,3.53 0.28,0.27 1.7,0.31 2.41,0.86 1.03,0.79 3.39,2.47 4.04,3.13 2.56,2.57 2.06,3.33 2.86,6.16 0.45,1.59 0.32,3.28 1.44,5.04 0.95,0.94 0.55,1.19 -0.72,0.72 -0.24,-0.03 -0.49,0.04 -0.72,0 l -2.88,-2.16 c -0.64,-2.39 1.87,-1.08 2.16,-1.44 1.58,-1.92 -1.63,-2.22 -2.1,-2.58 -1.09,-0.83 -0.69,-2.53 -3.67,-1.74 -1.3,-2.37 4.88,-0.75 2.88,-2.87 -0.14,-0.14 -2.29,-0.42 -3.06,-0.78 -1.82,-0.85 -2.47,-0.62 -2.61,-0.71 -0.43,-0.27 -1.6,-4.63 -4.41,-2.84 -0.16,-0.14 -2.38,-1.21 -2.88,-1.44 l 2.88,-2.16 c -5.56,0.48 -5.51,0 -5.76,-5.04 -0.93,-0.41 -0.76,3.01 -2.14,1.44 -0.15,-0.17 0.13,-2.01 -0.69,-2.58 -0.42,-0.3 -1.47,0.55 -2.02,0.28 -0.23,-0.11 -2.15,-2.54 -3.84,-3.09 -3.02,-0.98 -2.36,0.28 -6.42,-1.81 z"
     id="path60" />
  <path
     class="st10"
     d="m 316.50811,117.25407 c -1.83,-2.54 0.75,-4.12 2.68,-1.53 2.18,-0.76 4.15,-0.88 5.96,0.81 0.1,0.16 0.66,0.31 0.72,0.72 2.04,0.95 3.58,2.24 4.63,3.87 l 2.95,1.05 c 2.55,-0.26 6.73,-0.64 7.44,2.42 1.01,-0.59 1.95,-0.07 2.83,1.56 6.48,-4.64 5.79,4.73 -0.56,3.35 -10.13,-2.97 -17.82,-6.42 -26.64,-12.24 z"
     id="path62" />
  <path
     class="st44"
     d="m 170.34811,138.13407 c -5.01,1.41 0.22,3.3 -0.72,4.31 -0.87,0.36 -5.58,1.93 -5.76,2.18 -0.1,0.14 0.74,3.11 0.83,3.26 0.44,0.69 1.37,0.25 2.05,0.34 l -2.87,2.14 c 1.85,1.61 3.65,1.11 5.75,2.17 -4.23,0.34 -7.72,0.82 -12.24,0.72 -4.38,-0.43 -1.73,-5.84 1.44,-4.32 -0.33,-0.96 1.04,-0.64 0.96,-0.63 -2.74,0.3 -3.03,-3.14 -0.19,-4.01 l 0.18,-3.06 c 2.49,-2.7 7.03,-4.2 10.57,-3.1 z"
     id="path64" />
  <path
     class="st30"
     d="m 172.50811,131.65407 c 2.87,-2.66 5.34,3.66 2.88,4.32 v 0.88 c 0,0 -12.93,1.73 -12.93,1.73 -0.74,2.24 -2.1,3.51 -4.07,3.82 1.05,1.3 0.78,2.61 -0.83,3.91 0.75,0.47 1.45,1.81 1.27,2.61 -1.55,1.12 -4.2,3.48 -1.44,4.32 -0.72,-0.02 -1.44,0.03 -2.16,0 -1.71,-1.89 -2.05,-2.71 -5.04,-2.17 -0.32,-1.19 1.37,-0.35 1.5,-1.14 0.19,-1.13 -0.81,-2.57 -0.63,-3.05 0.05,-0.15 2.16,-0.85 2.01,-2.27 l -2.87,-2.17 2.87,0.71 c 0.3,-0.3 -0.82,-1.63 -0.61,-2.06 0.36,-0.71 7.03,-5.22 6.38,-1.55 h 0.7 c 1.02,-4.18 7.84,-2.33 10.81,-4.31 -0.94,-1.84 0.52,-3.5 2.16,-3.6 z"
     id="path66" />
  <path
     class="st27"
     d="m 8.3481124,99.974074 c 3.3999996,3.999996 5.2699996,1.189996 8.4599996,0.899996 1.06,-0.1 8,-0.3 8.48,-0.21 1.78,0.32 1.5,2.01 2.29,2.21 1.4,0.35 3.49,-0.34 4.87,-0.07 0.79,0.16 0.12,1.68 0.48,2.11 0.39,0.46 1.73,-0.07 2.08,0.11 l 1.76,-0.43 c 1.29,1.47 2.86,2.57 4.72,3.31 -3.96,1.52 -4.82,0.22 -8.32,-0.03 -1.4,-0.1 -3.23,0.87 -3.92,0.75 -3.91,0.12 -6.07,-0.84 -6.48,-2.88 -0.82,-0.91 -2.02,-1.39 -3.6,-1.44 -0.66,0.62 -1.39,0.12 -1.44,-0.72 -3.32,0.23 -6.5,0.35 -9.5199996,0.36 l -0.56,-1.08 c 0.02,-1.72 0.23,-1.61 0.72,-2.879996 z"
     id="path68" />
  <path
     class="st48"
     d="m 227.94811,138.13407 c -0.47,1.15 -0.43,1.75 0,2.88 1.39,3.71 0.22,3.9 -3.07,2.86 -5.77,1.76 -11.47,2.49 -17.09,2.18 -4.03,0.79 -8.19,1.41 -12.24,2.16 -3.49,-2.09 7.52,-6.14 8.97,-4.32 6.24,-4.63 12.53,-5.63 20.47,-4.83 0.68,-1.8 2.42,-3.31 2.95,-0.93 z"
     id="path70" />
  <path
     class="st3"
     d="m 231.54811,148.93407 c 1.56,3.25 -6.28,3.56 -3.85,0.12 l -2.89,0.8 c -2.75,-1.06 -5.31,-1.36 -7.66,-0.92 -3.05,-0.83 -6.54,-1.33 -9.36,-2.88 5.65,-1.11 11.47,-2.66 16.96,-3.6 1.77,-0.31 3.74,2.5 3.2,-1.44 0.93,2.41 2.49,5.08 3.6,7.92 z"
     id="path72" />
  <path
     class="st42"
     d="m 325.86811,117.25407 c 3.65,-0.29 3.69,2.75 7.32,3.84 2.77,0.83 8.52,-0.3 7.81,3.36 1.19,0.31 0.31,-1.25 1.19,-1.45 0.88,-0.2 2.11,0.08 3.32,-0.16 1.21,-0.24 3.45,-3.09 1.97,1.6 2.41,-0.99 6.55,0.76 8.64,2.17 0.48,0.32 1,0.99 1.44,1.44 -0.33,1.84 -1.78,1.94 -4.36,0.32 l -7.16,2.56 c -1.11,-0.18 -2.16,-1.23 -2.88,-1.44 l 4.32,-2.17 c -2.22,-3.97 -2.22,1.18 -3.95,0.73 -0.31,-0.08 -3.64,-4.49 -4.11,-4.84 -0.26,-0.19 -5.83,-1.7 -5.26,0.55 -0.82,-1.14 -5.18,-1.3 -5.35,-1.52 -0.34,-0.44 0.29,-2.21 -0.12,-2.74 -0.24,-0.31 -3.26,-0.53 -3.52,-0.82 -0.18,-0.19 0.75,-1.24 0.72,-1.43 z"
     id="path74" />
  <path
     class="st43"
     d="m 231.54811,128.05407 c -0.88,0.52 -2.75,3.28 -3.05,3.47 -0.3,0.19 -3.48,-0.48 -4.51,2.29 -0.47,-3.77 -4.06,2.43 -3.23,3.59 3.56,2.16 5.23,-1.71 6.18,-1.99 0.58,-0.17 3.87,0.13 5.34,-0.16 -1.52,0.85 -2.9,1.88 -4.32,2.88 -0.15,0.11 -1,-0.29 -1.32,0.14 -0.37,0.49 0.26,1.91 -0.52,2.07 -4.24,0.86 -8.88,-1.06 -14.03,0.28 -2.65,0.69 -4.25,0.71 -2.85,3.26 -1.77,-0.68 -3.6,1.43 -4.69,1.44 -1.09,0.01 -1.94,-1.59 -3.54,-1.48 -0.17,0.01 -0.93,1.73 -2.16,2.28 -1.69,0.75 -2.62,-1.18 -3.3,2.09 -2.93,0.54 -6.06,1.56 -9.36,2.16 0.28,-1.53 0.75,-1.55 1.77,-2.26 4.99,-3.47 11.53,-4.75 17.12,-6.42 0.66,-0.2 0.94,-1.36 1.27,-1.4 1.47,-0.57 1.63,-1 0.49,-1.3 2.13,-0.06 4.23,-0.25 6.32,-0.57 1.49,-2.41 2.45,-3.73 5.43,-3.89 0.65,-1.11 1.61,-2.07 2.88,-2.88 1.56,-1.68 6.45,-3.59 9.09,-4.27 0.26,-0.07 0.61,0.25 0.99,0.67 z"
     id="path76" />
  <path
     class="st19"
     d="m 297.06811,107.17407 0.38,-1.51 c 4.23,-0.63 8.43,-0.13 12.58,1.51 1.57,0.22 2.77,0.7 3.6,1.44 2.99,0.71 4.45,6.75 1.44,7.92 -0.93,-0.67 -2.71,-1 -3.28,-2.16 -0.57,-1.16 0.81,-2.96 0.4,-3.57 -0.32,-0.47 -7.65,-0.9 -8.63,-0.74 -1.03,-1.17 -2.05,-1.83 -3.6,-2.16 -0.14,1.37 -0.86,1.11 -1.44,0 -0.45,-0.04 -0.98,-0.03 -1.44,0 -0.63,-0.2 -0.62,-0.44 0,-0.72 z"
     id="path78" />
  <path
     class="st33"
     d="m 357.54811,128.05407 c 0.66,0.67 4.62,6.23 4.32,6.47 -2.17,-0.39 -4.33,-0.94 -6.48,-1.43 -1.9,-1.64 -4.3,-2.36 -7.2,-2.16 -0.64,0.04 -1.57,0.1 -2.16,0 0.8,-1.98 5.31,-3.71 7.17,-3.98 1.05,-0.15 2.72,1.77 4.35,1.1 z"
     id="path80" />
  <path
     class="st35"
     d="m 313.62811,108.61407 c 0.68,-2.04 2.18,-2 2.88,0 2.24,6.26 6.31,4.26 8.64,7.92 -2.36,-1.29 -4.49,1.04 -6.86,0.57 -0.13,-0.02 -1.46,-3.63 -1.78,0.15 -0.35,-0.23 -0.9,-0.33 -1.44,-0.72 0.86,-1.67 -0.49,-6.01 -1.44,-7.92 -1.46,0.1 -2.72,0.54 -4.32,0 l 0.72,-1.43 c -0.63,-0.2 -0.62,-0.44 0,-0.72 0.7,-3.45 7.07,-0.05 3.6,2.16 z"
     id="path82" />
  <path
     class="st42"
     d="m 217.14811,148.93407 c 3.86,-4.12 3.56,-0.55 5.48,-0.16 1.92,0.39 5.78,-3.13 7.47,0.52 0.14,0.31 -3.98,1.68 -1.07,1.8 l 2.52,-2.17 c 0.19,0.5 1.69,2.69 1.44,2.87 -5.54,0.61 -10.65,-1.46 -15.84,-2.87 z"
     id="path84" />
  <path
     class="st26"
     d="m 268.98811,129.49407 c 4.12,0.63 2.13,-6.1 6.48,-4.68 l -2.15,4.68 4.32,-0.72 c -0.69,2.11 -2.28,3.71 -4.72,3.56 -1.56,-0.1 -2.68,-2.17 -3.92,-2.84 z"
     id="path86" />
  <path
     class="st8"
     d="m 17.708112,103.57407 c 0.98,1.14 0.57,1.55 -0.72,0.72 0.32,1.97 -0.96,2.09 -2.16,0.72 -1.24,0.6 -2.44,0.84 -3.6,0.72 -0.95,0.47 -1.7799996,0.82 -2.8799996,0.72 -0.44,-1.43 -0.74,-1.92 -0.72,-3.6 2.4399996,0.66 6.2399996,-0.74 8.1899996,-0.51 0.7,0.08 1.29,0.96 1.89,1.23 z"
     id="path88" />
  <path
     class="st42"
     d="m 348.18811,130.93407 c 3.7,-0.24 5.3,-2.96 7.2,2.16 -2.34,-0.53 -5.14,-0.96 -7.2,-2.16 z"
     id="path90" />
  <path
     class="st32"
     d="m 90.428112,150.37407 c 0.23,0.37 1.53,0.58 1.44,1.43 -1.11,0.47 -1.79,-0.66 -2.16,-0.71 z"
     id="path92" />
  <path
     class="st12"
     d="m 240.18811,117.25407 c 0.22,0.09 0.44,0.57 0.72,0.72 0.82,-0.46 2.01,-0.28 2.16,0.72 0.78,1.57 -3.21,2.93 -4.18,1.55 -1.45,1.08 -2.69,2.24 -3.74,3.49 -0.61,2.85 -6.97,4.92 -10.02,5.79 -0.18,0.05 -0.46,-0.29 -0.78,-0.75 -3.86,-0.3 -7.94,0.18 -12.24,1.44 -2.22,1.86 -7.66,3.65 -10.08,1.44 l -2.53,-0.33 c 0.63,-1.31 0.76,-2.64 0.37,-3.99 -2.92,-4.58 0.54,-5.57 4.32,-5.04 0.41,-1.84 0.71,-1.72 1.44,0 2.39,-0.12 4.61,0.61 6.66,2.18 3.61,-2.1 7.9,-3.4 12.06,-4.34 1.26,-2.75 3.43,-2.94 6.53,-0.57 0.76,-1.22 1.66,-1.7 3.15,-1.37 0.73,-2.5 5.95,-4.01 6.16,-0.95 z"
     id="path94" />
  <path
     class="st52"
     d="m 170.34811,117.97407 c 1.96,-0.62 11.29,-4.28 12.24,-3.59 l -2.16,5.03 c 3.78,0.94 26.39,-6.78 27.36,-5.75 1.52,1.62 -2.09,3.69 -1.97,4.69 0.17,1.35 3.15,2.4 4.13,3.23 0,1.42 -1.45,1.66 -4.32,0.72 -0.34,0.04 -1.26,0.08 -1.44,0 -1.68,0.01 -3.15,0.54 -4.4,1.59 -3.93,-2.29 -6.17,-2.34 -10.54,-0.1 -2.8,-1.5 -4.27,-1.63 -4.41,-0.37 -2.53,-1 -4.93,-1.28 -7.19,-0.86 -1.61,1.57 -3.76,2.21 -5.32,0.17 -4.83,-0.34 -6.34,-1.59 -1.98,-4.75 z"
     id="path96" />
  <path
     class="st46"
     d="m 170.34811,117.97407 -1.44,2.52 c 2.1,2.58 3.53,0.01 5.75,-0.35 l -1.44,1.44 c 0.87,2.6 3.34,-0.45 6.12,-0.44 1.64,0 3.22,0.61 4.32,1.86 l 1.09,-2.87 c 1.86,-0.19 2.15,1.95 3.99,2.19 2.2,0.28 7.18,-1.57 9.27,-1.48 0.44,0.02 0.36,1.32 0.86,1.46 2.67,0.75 2.53,-1.43 2.8,-1.47 1.99,-0.28 2.22,1.33 2.51,1.47 l -2.52,2.16 -1.07,-1.43 c -1.37,2.97 0.46,1.78 1.43,3.59 -0.95,-0.25 -1.59,0.53 -2.16,0.73 -1.27,1.95 -2.31,2.35 -3.13,1.2 -1.29,-3.49 -4.47,-6.65 -5.45,-1.4 -2.62,0.77 -8.54,2.01 -7.27,-1.96 -1.11,-0.24 -2.78,-0.45 -5.03,-0.64 -1.57,4.23 -6.66,2.9 -8.35,-0.19 -2.18,1.1 -4.29,1.31 -6.82,0.91 -1.72,1.51 -3.15,1.72 -4.28,0.63 -0.23,0.02 -0.49,0 -0.72,0 3.53,-1.92 0.74,-2.87 0,-5.75 1.86,-0.38 2.33,2.24 3.96,2.17 0.59,-0.02 -0.29,-2.31 2.52,-0.74 -1.61,-4.22 0.94,-1.97 2.4,-2.11 0.17,-0.02 0.54,-0.82 2.64,-1.48 z"
     id="path98" />
  <path
     class="st31"
     d="m 93.308112,87.734074 c 5.42,0.41 8.559998,11.68 8.659998,16.239996 0.08,3.59 -1.36,15.98 -6.909998,12.6 -0.41,-5.1 2.57,-9.81 2.37,-15.32 -0.22,-5.959996 -3.84,-8.279996 -4.12,-13.519996 z"
     id="path100" />
  <path
     class="st49"
     d="m 294.18811,102.85407 c -1.09,3.96 -2.44,1.81 -5.05,2.44 -2.15,0.52 -3.79,2.18 -5.03,2.6 -1.04,1.64 -2.39,2.13 -4.03,1.5 -1.97,1.37 -3.98,1.83 -6.05,1.38 -5.83,3.18 -13.27,5.48 -20.44,5.57 -3.23,1.81 -7.09,3.52 -10.52,2.35 -1.14,0.34 -1.49,-0.35 -2.16,-0.72 0.29,-0.14 0.63,-0.41 0.72,-0.72 1.9,-1.09 4.3,-1.57 7.2,-1.44 6.01,-3.08 13.05,-5.48 19.86,-7.14 8.13,-1.99 16.81,-3.43 25.5,-5.82 z"
     id="path102" />
  <path
     class="st37"
     d="m 86.678112,87.894074 c 1.6,0.91 4.3,9.46 4.5,11.69 0.25,2.719996 -0.15,13.939996 -3.95,14.049996 -5.33,0.15 -0.84,-6.94 -0.46,-9.76 0.2,-1.51 0.19,-3.47 0.08,-5.009996 -0.28,-4.12 -2.77,-6.9 -2.91,-10.05 -0.08,-1.7 1.87,-1.42 2.74,-0.92 z"
     id="path104" />
  <path
     class="st20"
     d="m 74.588112,88.454074 c 3.91,-1.16 5.43,5.53 6.14,8.61 0.71,3.079996 1.83,16.109996 -2.92,16.629996 -5.02,0.54 -0.9,-5.63 -0.52,-7.77 1.22,-6.869996 -2.09,-11.159996 -2.7,-17.469996 z"
     id="path106" />
  <path
     class="st37"
     d="m 108.23811,112.73407 c -2.82,2.71 -4.74,0 -3.98,-3.6 0.84,-3.94 2.63,-4.52 2,-10.249996 -0.27,-2.45 -4.37,-9.65 -3.6,-10.43 1.35,-1.37 4.42,3.23 4.91,4.08 2.74,4.74 4.92,16.099996 0.66,20.199996 z"
     id="path108" />
  <path
     class="st5"
     d="m 66.718112,113.60407 c -1.83,-1.27 1.97,-8.82 2.04,-11.17 0.12,-3.959996 -2.85,-8.759996 -2.84,-12.159996 0,-2.21 2.03,-0.99 2.94,-0.05 1.73,1.77 3.68,11.049996 3.62,13.709996 -0.05,2.41 -2.13,12.2 -5.76,9.67 z"
     id="path110" />
  <path
     class="st31"
     d="m 41.468112,107.89407 c -4.27,1.4 -4.85,-2.06 -6.48,-2.88 -1.47,-16.189996 18.31,-1.67 6.48,2.88 z"
     id="path112" />
  <path
     class="st34"
     d="m 29.228112,109.33407 c 7.3,1.34 13.68,2.44 20.88,4.32 l 1.87,1.16 c 4.2,1.09 5.49,2.38 3.89,3.88 -5.67,-1.83 -10.25,-5.59 -16.56,-4.32 -4.27,-3.93 -4.76,-1.41 -8.64,-2.16 -2.22,-0.27 -5.16,-1.36 -6.48,-2.88 -1.75,-3.21 3.48,-1.19 5.04,0 z"
     id="path114" />
  <path
     class="st38"
     d="m 223.62811,120.13407 c 0.87,-1.01 1.77,-3.41 2.88,-3.96 2.77,-1.37 11.58,-1.4 15.12,-2.51 l -1.44,3.59 c -1.03,-0.44 -1.6,-0.41 -2.66,-0.16 -3.24,0.76 -1.83,2.08 -2.01,2.32 -1.09,1.4 -1.74,-0.02 -2.83,0 -0.31,0 -0.28,2.3 -3.53,1.42 -0.6,-0.16 -0.22,-1.42 -1.55,-1.5 -0.73,-0.04 -2.93,0.3 -3.26,0.8 -0.2,0.63 -0.44,0.62 -0.72,0 z"
     id="path116" />
  <path
     class="st4"
     d="m 73.148112,122.29407 c 3.75,-0.4 6.22,0.88 7.41,3.84 2.88,1.42 4.28,3.34 4.21,5.76 1.28,1.04 2.21,2.16 2.78,3.36 v 3.6 c -1.9,-2.2 -2.75,-2.24 -3.61,-3.16 -1.49,-1.6 -2.92,-5.67 -4.36,-7.23 -1.69,-1.82 -4.08,-1.51 -5.55,-2.39 -1.04,-0.62 -2.76,-2.89 -4.03,-3.49 -1.34,-0.64 -3.14,-0.18 -4.06,-1.73 0.24,-0.62 0.48,-0.62 0.72,0 2.13,0.48 4.4,0.79 6.48,1.44 z"
     id="path118" />
  <path
     class="st21"
     d="m 73.148112,122.29407 c 1.34,-0.18 6.36,-0.72 7.11,0.09 0.25,0.28 -0.02,1.8 0.49,2.76 0.36,0.68 3.81,2.89 4.26,3.67 0.51,0.87 0.16,2.27 0.53,2.69 0.51,0.58 4.06,0.84 3.44,4.47 -0.17,0.22 -0.97,-0.58 -1.43,-0.72 -0.61,-0.19 -2.02,-0.27 -2.18,-0.41 -0.88,-0.74 -0.88,-1.84 -1.44,-2.68 -0.48,-0.72 -2.07,-0.36 -1.44,-2.31 0.21,-0.66 1.82,0.11 1.46,-1.07 -2.59,0.63 -5.83,-4.68 -7.21,-5.4 -0.58,-0.3 -2.58,-0.77 -3.59,-1.09 z"
     id="path120" />
  <path
     class="st49"
     d="m 223.62811,120.13407 h 0.72 c -0.16,0.25 0.16,1.3 0,1.44 -0.16,0.14 -1.75,-1.03 -3.09,-0.65 -1.44,0.41 -1.51,2.2 -2.14,2.61 -0.95,0.63 -3.64,0.51 -5.02,0.97 -0.59,0.2 -0.57,1.36 -1,1.42 -2.84,0.37 -4.79,-3.33 -7.46,-3.63 1.3,-0.16 2.41,-0.6 4.32,-0.72 4.6,-0.29 9.12,-0.8 13.68,-1.44 z"
     id="path122" />
  <path
     class="st18"
     d="m 50.108112,113.65407 c 5,1.3 10.39,2.47 14.78,5.05 0.97,0.57 2.11,0.59 1.78,2.15 -0.23,-0.05 -0.49,0.05 -0.72,0 -3.23,-0.75 -6.78,-1.09 -10.08,-2.16 0.08,-2.32 -4.59,-2.12 -5.76,-5.04 z"
     id="path124" />
  <path
     class="st22"
     d="m 19.148112,104.29407 c 1.64,-0.53 2.84,-0.05 3.6,1.44 1.09,0.46 5.26,2.66 6.48,2.88 v 0.72 c -1.41,-0.26 -3.73,-1.81 -5.04,0 -1.4,1.02 -2.16,1.09 -2.16,-0.72 -3.46,-0.94 -5.14,-2.38 -5.04,-4.32 0.32,-0.09 0.58,-0.42 0.72,-0.72 0.49,0.22 0.96,0.49 1.44,0.72 z"
     id="path126" />
  <path
     class="st38"
     d="m 248.82811,115.81407 c -2.78,1.42 -4.54,0.71 -7.2,1.44 1.11,-3.76 4,-1.07 7.2,-1.44 z"
     id="path128" />
  <path
     class="st49"
     d="m 301.38811,102.85407 c 0.34,-0.36 0.49,-1.16 1.09,-1.44 1.54,-0.32 1.4,2.04 2.28,2.21 1.53,0.3 9.24,-2.17 10.31,-1.49 0.06,0.04 -0.62,0.97 -0.3,1.46 0.35,0.51 1.37,0.47 1.62,1.06 0.1,0.24 -0.44,2.4 0.12,3.96 -0.96,0.04 -1.93,-0.06 -2.88,0 -0.21,-0.42 0.11,-1.29 -0.7,-1.82 -0.95,-0.62 -2.1,-0.16 -2.9,-0.34 -1.65,0.4 -7.09,-0.28 -8.62,-0.98 -0.79,-0.37 -0.95,-2.02 -0.02,-2.62 z"
     id="path130" />
  <path
     class="st2"
     d="m 284.10811,107.89407 0.72,0.72 c -0.51,0.17 -1.5,-0.12 -2.16,0 -0.34,1.23 2.22,0.2 1.43,1.78 -0.18,0.37 -2.12,1.68 -2.53,1.82 -0.31,0.11 -0.3,-2.62 -1.79,-1.44 -0.52,0.41 1.83,0.94 -0.19,1.24 -4.4,0.66 -3.72,2.65 -7.72,3.06 l 1.43,-1.43 c -1.08,-0.35 -2.17,0.62 -2.88,0.71 -2.6,-0.72 -1.4,-1.92 3.6,-3.6 0.36,-0.67 0.71,-1.38 0.73,-2.16 2.4,2.49 2.39,0.05 4.23,-0.33 1.35,-0.28 3.37,0.21 5.12,-0.39 z"
     id="path132" />
  <path
     class="st2"
     d="m 295.62811,105.73407 c 1.36,-1.56 2.48,-0.3 1.44,1.44 v 0.72 c -0.27,0.02 -4.57,1.12 -4.82,1.22 -1.97,0.84 -2.78,3.97 -3.47,0.91 -1.52,0 -3,3.52 -3.24,-1.42 0.8,-0.36 1.79,-2.27 4.28,-2.57 2.24,-0.27 3.45,1.26 5.8,-0.31 z"
     id="path134" />
  <path
     class="st16"
     d="m 301.38811,102.85407 1.44,2.16 c 2.84,-1.62 3.17,0.7 4.35,1.08 0.68,0.22 1.7,0.1 2.84,0.36 v 0.72 c -1.83,-0.62 -4.14,0.61 -5.45,0.65 -0.34,0 -0.21,-1.32 -0.75,-1.4 -1.1,-0.17 -5.32,0.55 -6.75,0.76 l -1.44,-1.44 c 0.32,-0.21 0.58,-1.22 1.63,-1.65 2.07,-0.84 1.98,1.02 4.13,-1.23 z"
     id="path136" />
  <path
     class="st36"
     d="m 216.42811,134.53407 c 0.51,-1.77 1.5,-1.63 2.16,0 l -1.8,0.72 c -1.43,0.76 -2.23,3.16 -3.23,3.88 -0.43,0.31 -1.35,0.01 -1.95,0.28 -1.35,0.62 -3.27,3.29 -3.11,0.15 -1.24,-0.3 -0.44,1.02 -0.77,1.37 -0.24,0.26 -1.18,-0.67 -1.38,-0.65 l -2.52,-2.87 c -1.14,0 -0.43,5.61 -4.32,1.43 -0.66,2.74 -1.1,0.42 -3.02,0.14 -2.45,-0.35 -3.62,0.24 -5.97,-0.87 1.65,-3.59 10,-4.84 12.24,-1.44 l 1.81,-0.78 c 1.4,1 3.7,1.44 5.39,0.78 0.13,-0.64 0.38,-0.61 0.72,0 0.85,0.34 1.81,0.34 2.88,0 -1.99,-0.79 -1.31,-2.2 0.72,-2.16 0.41,-0.92 1.44,-0.76 2.16,0 z"
     id="path138" />
  <path
     class="st25"
     d="m 221.46811,131.65407 c 0.58,2.33 -0.85,2.37 -2.88,2.88 -0.58,0.14 -1.48,-0.08 -2.16,0 h -2.16 c -0.28,0.68 -0.65,2.03 -0.72,2.16 -0.71,0.64 -2.26,0.74 -2.88,0 -0.24,0.01 -0.48,0 -0.72,0 l -1.37,0.98 c -1.48,-1.19 -4.05,-1.64 -5.83,-0.98 -1.13,0 -1.89,0.28 -2.87,0.73 v -2.17 c -1.89,1.32 -4,0.5 -5.26,0.72 -0.24,0.04 -2.13,2.72 -4.1,2.16 -0.27,-0.13 -0.49,-0.62 -0.72,-0.72 -2.56,-0.4 -4.89,-0.7 -7.2,0.72 -1.65,0.04 -2.57,-0.7 -2.88,-0.72 -0.68,-1.58 0.7,-2.41 4.15,-2.51 1.62,-1.51 4.29,-1.72 7.98,-0.63 4.62,-1.41 8.91,-1.83 12.88,-1.25 l 7.99,-2.07 0.84,0.7 c 2,-0.78 6.52,-1.43 7.92,0 z"
     id="path140" />
  <path
     class="st45"
     d="m 172.50811,131.65407 c -1.13,-1.7 4.39,-4.24 5.24,-1.16 2.12,-0.4 3.24,0.68 3.34,3.24 1.55,-0.26 3.01,-0.71 4.38,-1.36 0.11,-1.9 0.81,-1.79 1.44,0 l 0.73,-0.65 c 3.63,1.45 9.24,1.55 12.75,-1.26 0.28,0.81 0.88,1.08 1.64,1.19 3.35,-0.45 7.02,-1.12 10.08,-1.44 1.06,-0.32 2.02,-0.32 2.88,0 1.14,0.58 0.66,1.06 -1.44,1.44 -3.43,0.09 -5.88,3.07 -10.38,2.87 -0.54,-0.02 -0.1,-1.5 -1.45,-1.5 -4.53,0 -10.21,3.65 -13.75,0.78 -0.76,2.7 -1.5,0.87 -2.9,0.8 -0.4,-0.02 -0.25,1.02 -0.69,1.15 -1.48,0.45 -3.4,0.49 -4.67,1.65 -0.23,-0.01 -0.5,-0.03 -0.72,0 -1.6,-0.29 -2.8,-0.77 -3.6,-1.44 0.98,-2.23 -2.18,-0.46 -2.15,-1.8 0,-0.44 3.85,-2.93 -0.73,-2.52 z"
     id="path142" />
  <path
     class="st48"
     d="m 178.98811,137.41407 c -3.45,0.48 -5.15,0.24 -8.64,0.72 -2.26,0.31 -3.37,0.66 -5.4,1.1 -1.47,0.32 -2.64,-1.62 -3.77,2.33 -0.35,1.21 0.09,2.84 -0.34,3.63 -0.25,0.45 -2.93,0.84 -1.96,2.26 0.07,0.1 2.7,-0.03 1.39,1.47 -0.16,0.19 -1.21,-0.16 -1.44,0 -2.15,-2.78 -4.56,0.28 -3.59,-5.04 1.15,-0.38 0.47,1.65 1.06,1.44 0.4,-0.14 0.79,-1.04 1.81,-0.74 -3.84,-4.78 2.81,-3.74 3.55,-4.41 0.27,-0.24 -0.35,-1.62 0.51,-2.11 0.58,-0.33 11.85,-2 13.22,-2.12 1.44,-0.13 3.1,-0.18 3.6,1.44 z"
     id="path144" />
  <path
     class="st36"
     d="m 189.78811,137.41407 c -2.47,0.28 -4.68,0.66 -7.2,0.72 2,-2.97 4.49,-1.87 7.2,-0.72 z"
     id="path146" />
  <path
     class="st35"
     d="m 274.02811,110.77407 c -0.35,0.65 -0.65,2.09 -0.74,2.16 -0.36,0.26 -3.7,-2.55 -2.86,1.44 -4.39,0.58 -5.97,1.67 -10.08,2.88 -3.93,0.15 -7.77,0.87 -11.52,2.16 -0.24,0.03 -0.48,-0.03 -0.72,0 -3.98,1.47 -7.92,3.06 -11.83,4.77 l -1.13,-0.45 -2.15,-1.43 c 2.96,0.62 4.51,-3.19 5.44,-3.57 1.93,-0.79 1.78,1.41 2.12,1.43 1.38,0.07 1.86,-1.21 2.52,-1.47 3.45,-1.37 4.58,-0.4 6.74,-0.74 0.67,-0.1 0.65,-1.36 1.21,-1.71 3.11,-1.95 4.93,-0.42 7.25,-0.81 1.06,-0.18 2.49,-1.52 3.88,-1.83 3.97,-0.9 7.93,-1.49 11.87,-2.82 z"
     id="path148" />
  <path
     class="st41"
     d="m 248.10811,119.41407 c -3.79,0.76 -4.61,3.02 -8,4.6 -2.05,0.96 -4.54,0.24 -5.68,3.32 -0.96,0.32 -1.9,0.39 -2.88,0.72 -3.33,1.11 -6.68,2.86 -10.08,3.6 -4.24,0.93 -4.71,-0.09 -7.92,0 l 1.44,-1.44 c 3.21,-1.82 6.33,-2.3 9.36,-1.44 5.38,-1.54 6.36,-2.98 10.8,-5.04 4.44,-2.06 8.29,-3.71 12.96,-4.32 z"
     id="path150" />
  <path
     class="st11"
     d="m 249.54811,122.29407 c 0.72,-0.64 3.18,-1.53 3.91,-1.47 0.44,0.04 0.32,1.4 0.84,1.46 0.81,0.09 1.38,-0.31 3.17,0 l 0.35,2.89 c -1.95,-0.46 -2.78,-3.1 -3.59,0 -0.75,-3.31 -1.62,-2.98 -4.68,-2.89 z"
     id="path152" />
  <path
     class="st41"
     d="m 260.34811,117.25407 c -4.38,1.29 -7.09,1.53 -11.52,2.16 4.33,-1.58 6.74,-3.69 11.52,-2.16 z"
     id="path154" />
  <path
     class="st2"
     d="m 299.94811,107.89407 c 1.91,2.98 -0.83,3.19 -1.44,0 0.47,0.05 1.03,-0.09 1.44,0 z"
     id="path156" />
  <path
     class="st7"
     d="m 52.988112,120.85407 -7.42,-0.88 c -0.92,0.09 -1.55,-1.12 -1.94,-1.28 2.61,-1.61 6.71,0.94 9.36,2.16 z"
     id="path158" />
  <path
     class="st54"
     d="m 159.54811,125.89407 c 1.79,-0.19 2.64,-1.74 4.12,-2.04 0.82,-0.17 2.03,0.65 2.27,0.45 0.29,-0.25 -0.26,-1.07 0.46,-1.29 1.54,-0.49 1.04,1.1 1.08,2.17 l 0.72,-1.42 c 4.51,-2.23 3.31,0.97 4.99,1.75 0.16,0.07 3.4,0.37 3.56,0.28 0.29,-0.16 0.53,-2.34 1.97,-2.61 0.26,-0.05 5.03,0.52 5.24,0.67 0.34,0.25 -0.03,1.13 0.08,1.33 2.01,2.23 0.77,2.73 -1.85,3.09 1.23,1 2.06,1.56 3.27,2.32 0.41,0.26 0.21,1.18 0.01,1.79 -1.44,2.53 -6.9,2.85 -5.04,0 -2.45,-1.08 -2.45,0.26 -4.32,1.43 1.74,-3.62 -1.53,-5.19 -3.61,-2.16 -1,1.46 -0.5,2.49 -2.16,3.6 -0.17,-1.41 -1.87,-3.17 -3.22,-2.88 -1.81,0.39 -0.26,2.79 -0.38,2.88 -1.26,0.98 -1.75,-1.11 -2.16,-2.15 -0.63,-0.23 -0.63,-0.47 0,-0.72 l 0.32,-1.95 c 2.07,0.51 3.4,0.2 4,-0.93 5.34,-3.13 -1.99,-2.16 -4.77,-1.46 -1.74,2.47 -5.41,3.58 -5.31,0.02 l 0.72,-2.16 z"
     id="path160" />
  <path
     class="st45"
     d="m 158.82811,128.05407 c 0.66,0.18 1.55,1.26 2.88,0.71 l -0.73,-1.43 c 2.98,1.32 4.49,-1.38 4.77,-1.41 1.33,-0.17 8.57,0.17 6.03,2.12 0.78,0.49 3.53,-1.12 2.88,1.44 -1.91,0.06 -3.85,-0.07 -5.76,0 l 0.07,0.95 c -1.86,0.02 -3.32,0.67 -4.39,1.93 0.07,0.23 -0.08,0.52 0,0.72 -3.94,-0.45 -1.3,4.43 -6.48,2.87 -0.27,-1.12 1.05,-0.53 1.49,-1.21 2.48,-3.85 -1.9,-3.21 -2.83,-3.92 -0.14,-0.11 -0.22,-2.79 -0.83,-3.5 1.21,-0.37 2.01,0.48 2.88,0.72 z"
     id="path162" />
  <path
     class="st55"
     d="m 22.028112,108.61407 c 0.58,0.16 1.28,0.49 2.16,0.72 1.5,0.39 5.13,2.62 6.48,2.88 -3.01,1.09 -7.41,-3.97 -8.27,-0.72 -1.62,-2.93 -10.52,-1.98 -11.17,-3.6 0.23,-1.54 1.12,-2.03 2.16,-0.72 1.71,-2.54 6.95,-0.12 8.64,1.44 z"
     id="path164" />
  <path
     class="st39"
     d="m 14.828112,105.01407 c 0.37,1.42 -0.04,2.06 -1.44,2.16 -0.45,0.02 -1.45,0.79 -2.16,0.72 -0.18,-0.46 0.13,-1.54 0,-2.16 0.68,-0.34 1.15,-2.6 3.6,-0.72 z"
     id="path166" />
  <path
     class="st8"
     d="m 22.748112,105.73407 c -1.22,-0.52 -2.21,-0.78 -3.6,-1.44 h 0.99 c 0.68,-2.74 2.2,-0.56 2.61,1.44 z"
     id="path168" />
  <path
     class="st23"
     d="m 16.988112,104.29407 c 2.01,0.86 3.02,3.71 4.82,2.31 l 0.22,2.01 c -1.15,-0.31 -7.85,-1.47 -8.64,-1.44 -0.25,-1.22 0.55,-1.59 1.44,-2.16 1.08,-0.7 1.3,-0.46 2.16,-0.72 z"
     id="path170" />
  <path
     class="st54"
     d="m 212.10811,130.21407 c 3.64,-0.87 6.85,-2.79 10.46,-3.6 l 1.78,2.16 c -3.93,1.12 -5.67,1.14 -9.36,1.44 -0.95,0.08 -1.94,-0.1 -2.88,0 z"
     id="path172" />
  <path
     class="st54"
     d="m 199.86811,127.33407 c 1.03,-0.55 1.99,0.96 2.17,1.81 0.04,0.19 -3.48,0.54 -0.01,2.51 -4.09,0.55 -9.86,2.75 -13.72,1.87 -0.68,-0.15 -1.19,-1.09 -1.4,-1.15 -4.16,-2.91 1.67,-3.91 4.78,-3.16 1.22,2.38 3.6,1.52 5.76,0.59 -0.68,-1.12 0.13,-1.94 2.42,-2.47 z"
     id="path174" />
  <path
     class="st9"
     d="m 184.02811,125.17407 c 1.53,2.67 3.62,0.26 6.48,1.45 -0.92,-3.76 1.95,-2.93 4.67,-4.33 1.59,0.79 0.2,2.13 0.51,2.71 0.11,0.2 1.03,0.23 1.32,0.67 1.41,2.13 -0.52,2.83 2.87,1.66 -1.05,0.56 -2.15,2.61 0,2.52 -0.6,1.74 -5.59,2.51 -7.26,2.21 -1.29,-0.23 -2.46,-4.21 -2.83,-0.41 -0.29,0.28 -3.5,-3.87 -2.87,0.72 -0.41,-0.11 -1.04,0.12 -1.44,0 -0.32,-0.09 -0.7,-0.91 -1.73,-0.78 -0.16,0.02 -1.19,2.76 -2.59,1.5 -0.81,-0.73 1.95,-2.45 1.43,-3.59 l -2.15,0.72 c 0.88,-1.03 -0.16,-3.49 0,-3.59 0.86,-0.56 4.15,1.29 3.6,-1.45 z"
     id="path176" />
  <path
     class="st47"
     d="m 41.458112,99.254074 c 1.14,1.139996 -1.01,3.289996 -2.15,2.149996 -1.14,-1.14 1.01,-3.289996 2.15,-2.149996 z"
     id="path178" />
  <path
     class="st43"
     d="m 202.74811,136.69407 2.51,-2.17 -0.36,1.43 c 1.74,0.61 3.23,0.67 5.05,0.73 l -1.43,2.15 c 0.37,-2.01 -4.17,-2.15 -5.77,-2.15 z"
     id="path180" />
  <path
     class="st43"
     d="m 213.54811,136.69407 c -1.14,2.04 -3.26,2.32 -2.88,0 0.32,-0.01 1.58,-1.44 2.88,0 z"
     id="path182" />
  <path
     class="st43"
     d="m 216.42811,134.53407 c -0.61,0.07 -1.26,0.87 -2.16,0 0.57,-1.39 -0.05,-3.14 2.16,0 z"
     id="path184" />
  <path
     class="st28"
     d="m 164.58811,132.37407 c -0.57,-1.85 -1.52,-4.94 1.25,-3.33 0.14,0.08 0.19,1.17 0.61,1.2 0.62,0.05 1.7,-0.72 2.47,-0.75 l 2.16,2.88 c -2.79,-0.74 -3.73,-2.17 -6.48,0 z"
     id="path186" />
</svg>
