<svg version="1.1" width="62" height="52" viewBox="-1 -1 62 52" xmlns="http://www.w3.org/2000/svg" xmlns:xlink="http://www.w3.org/1999/xlink">
  <!-- Exported by Scratch - http://scratch.mit.edu/ -->
  <path id="ID0.39242670126259327" fill="#CCFFFF" stroke="#000000" stroke-width="1" stroke-linecap="round" d="M 245.500 195.400 C 246.998 195.806 248.107 196.930 249.550 197.300 C 250.825 197.627 252.143 197.848 253.350 197.550 C 254.443 197.229 255.074 195.965 256.050 195.550 C 257.065 195.123 258.265 194.637 259.300 195 C 261.385 195.732 263.499 196.822 264.850 198.500 C 265.802 199.668 265.848 201.434 265.650 202.850 C 265.507 203.870 264.637 204.707 263.900 205.400 C 263.357 205.916 262.510 205.763 261.900 206.100 C 261.698 206.234 261.674 206.605 261.600 206.350 C 261.331 205.713 261.013 203.479 261.150 204.150 C 261.609 206.406 262.115 209.826 262.850 212.600 C 263.115 213.605 263.715 214.498 264.200 215.450 C 264.483 215.949 265.402 216.394 265.150 216.950 C 264.629 218.108 263.394 218.910 262.300 219.500 C 261.297 220.038 260.151 220.244 259 220.400 C 255.938 220.811 252.837 221.300 249.750 221.150 C 247.415 221.036 245.230 220.337 243.050 219.650 C 241.515 219.166 240.021 218.505 238.700 217.600 C 238.357 217.369 238.318 216.771 238.550 216.400 C 238.919 215.554 240.023 215.165 240.350 214.250 C 241.427 211.366 241.853 208.125 242.500 205.300 C 242.662 204.594 242.500 207.134 241.800 207.450 C 240.709 207.816 239.369 207.398 238.300 206.900 C 237.029 206.305 235.747 205.308 234.900 204.050 C 234.228 203.091 233.464 201.656 233.950 200.550 C 234.776 198.670 236.680 197.586 238.300 196.500 C 239.207 195.788 240.330 195.377 241.400 195.250 C 242.762 195.091 244.181 195.044 245.500 195.400 Z " transform="matrix(1.845070481300354, 0, 0, 1.845070481300354, -429.9, -357.75)"/>
  <path id="ID0.5080645787529647" fill="none" stroke="#000000" stroke-width="1" stroke-linecap="round" d="M 224.250 154 C 224.250 154 224.823 157.586 225.500 159.250 C 226.277 161.152 226.716 163.137 228.250 164.250 C 229.984 165.509 232.236 165.689 234.250 165.500 C 235.596 165.512 236.977 164.777 237.750 163.750 C 238.586 162.636 239 159.750 239 159.750 " transform="matrix(1, 0, 0, 1, -205, -152)"/>
  <path id="ID0.9119275128468871" fill="none" stroke="#000000" stroke-width="1" stroke-linecap="round" d="M 252.250 155 C 252.250 155 252.841 156.320 252.750 157 C 252.499 158.882 252.036 160.772 251.250 162.500 C 250.658 163.804 249.998 165.145 248.750 165.500 C 247.063 166.046 244.949 165.642 243.500 164.500 C 241.852 163.451 240.250 159.500 240.250 159.500 " transform="matrix(1, 0, 0, 1, -205, -152)"/>
</svg>