<?xml version="1.0" encoding="UTF-8" standalone="no"?>
<svg
   version="1.1"
   width="67.245766"
   height="98.376213"
   viewBox="0 0 67.245766 98.376213"
   id="svg186"
   sodipodi:docname="shirt2-a.svg"
   xmlns:inkscape="http://www.inkscape.org/namespaces/inkscape"
   xmlns:sodipodi="http://sodipodi.sourceforge.net/DTD/sodipodi-0.dtd"
   xmlns="http://www.w3.org/2000/svg"
   xmlns:svg="http://www.w3.org/2000/svg">
  <defs
     id="defs190" />
  <sodipodi:namedview
     id="namedview188"
     pagecolor="#ffffff"
     bordercolor="#000000"
     borderopacity="0.25"
     inkscape:showpageshadow="2"
     inkscape:pageopacity="0.0"
     inkscape:pagecheckerboard="0"
     inkscape:deskcolor="#d1d1d1" />
  <!-- Exported by Scratch - http://scratch.mit.edu/ -->
  <path
     id="ID0.8950433996506035"
     fill="#cc99ff"
     stroke="#000000"
     stroke-width="1.36047"
     stroke-linecap="round"
     d="m 43.307636,3.7509655 c 4.45521,-1.7325117 11.561899,2.2533561 14.136586,6.6117655 5.421832,9.052693 8.865924,19.88194 9.153564,30.471796 0.09246,3.396643 -5.133615,3.500864 -8.138724,3.818422 C 54.772608,45.035465 49.8709,46.49164 47.825707,43.060896 43.257965,35.397432 42.998948,25.985357 42.301413,17.353531 41.924723,12.640402 40.231619,5.5117757 43.307636,3.7509655 Z" />
  <g
     id="ID0.7572521781548858"
     transform="translate(-2.0408761,-0.91967236)">
    <path
       id="ID0.48384885350242257"
       fill="#ffff00"
       stroke="#000000"
       stroke-width="2"
       d="m 74.5,173.5 c 0.828,0 1.578,0.336 2.121,0.879 0.543,0.543 0.879,1.293 0.879,2.121 0,0.828 -0.336,1.578 -0.879,2.121 -0.543,0.543 -1.293,0.879 -2.121,0.879 -0.828,0 -1.578,-0.336 -2.121,-0.879 -0.543,-0.543 -0.879,-1.293 -0.879,-2.121 0,-0.828 0.336,-1.578 0.879,-2.121 0.543,-0.543 1.293,-0.879 2.121,-0.879 z"
       transform="matrix(0.32345015,-0.10802538,-0.13503172,-0.40431267,52.55,92.8)" />
    <path
       id="ID0.7823918559588492"
       fill="#00ff55"
       stroke="#000000"
       stroke-width="2"
       d="m 73,160.5 c 0.552,0 1.052,0.728 1.414,1.905 0.362,1.177 0.586,2.802 0.586,4.595 0,1.793 -0.224,3.418 -0.586,4.595 -0.362,1.177 -0.862,1.905 -1.414,1.905 -0.552,0 -1.052,-0.728 -1.414,-1.905 C 71.224,170.418 71,168.793 71,167 c 0,-1.793 0.224,-3.418 0.586,-4.595 0.362,-1.177 0.862,-1.905 1.414,-1.905 z"
       transform="matrix(0.32345015,-0.10802538,-0.13503172,-0.40431267,52.95,92.85)" />
    <path
       id="path5"
       fill="#00ff55"
       stroke="#000000"
       stroke-width="2"
       d="m 73,160.5 c 0.552,0 1.052,0.728 1.414,1.905 0.362,1.177 0.586,2.802 0.586,4.595 0,1.793 -0.224,3.418 -0.586,4.595 -0.362,1.177 -0.862,1.905 -1.414,1.905 -0.552,0 -1.052,-0.728 -1.414,-1.905 C 71.224,170.418 71,168.793 71,167 c 0,-1.793 0.224,-3.418 0.586,-4.595 0.362,-1.177 0.862,-1.905 1.414,-1.905 z"
       transform="matrix(0.13083537,-0.36381426,-0.32517022,-0.20682701,100.8,76.7)" />
    <path
       id="path7"
       fill="#00ff55"
       stroke="#000000"
       stroke-width="2"
       d="m 73,160.5 c 0.552,0 1.052,0.728 1.414,1.905 0.362,1.177 0.586,2.802 0.586,4.595 0,1.793 -0.224,3.418 -0.586,4.595 -0.362,1.177 -0.862,1.905 -1.414,1.905 -0.552,0 -1.052,-0.728 -1.414,-1.905 C 71.224,170.418 71,168.793 71,167 c 0,-1.793 0.224,-3.418 0.586,-4.595 0.362,-1.177 0.862,-1.905 1.414,-1.905 z"
       transform="matrix(-0.15178974,-0.3980988,-0.31593263,0.12905635,119.7,19.85)" />
    <path
       id="path9"
       fill="#00ff55"
       stroke="#000000"
       stroke-width="2"
       d="m 73,160.5 c 0.552,0 1.052,0.728 1.414,1.905 0.362,1.177 0.586,2.802 0.586,4.595 0,1.793 -0.224,3.418 -0.586,4.595 -0.362,1.177 -0.862,1.905 -1.414,1.905 -0.552,0 -1.052,-0.728 -1.414,-1.905 C 71.224,170.418 71,168.793 71,167 c 0,-1.793 0.224,-3.418 0.586,-4.595 0.362,-1.177 0.862,-1.905 1.414,-1.905 z"
       transform="matrix(-0.33612826,0.06378362,0.09935468,0.41360593,59.55,-64.35)" />
    <path
       id="path11"
       fill="#00ff55"
       stroke="#000000"
       stroke-width="2"
       d="m 73,160.5 c 0.552,0 1.052,0.728 1.414,1.905 0.362,1.177 0.586,2.802 0.586,4.595 0,1.793 -0.224,3.418 -0.586,4.595 -0.362,1.177 -0.862,1.905 -1.414,1.905 -0.552,0 -1.052,-0.728 -1.414,-1.905 C 71.224,170.418 71,168.793 71,167 c 0,-1.793 0.224,-3.418 0.586,-4.595 0.362,-1.177 0.862,-1.905 1.414,-1.905 z"
       transform="matrix(-0.30668876,-0.24984662,-0.16969255,0.33573037,105,-27.7)" />
  </g>
  <path
     id="ID0.8537395023740828"
     fill="#cc99ff"
     stroke="#000000"
     stroke-width="1.62855"
     stroke-linecap="round"
     d="M 45.445503,3.0152699 C 36.46793,-0.03631929 22.55102,-0.80269661 16.723442,6.1086194 9.566933,14.597544 16.536534,27.485984 15.780329,38.124786 c -0.15004,2.671107 -1.334075,3.797087 -1.629012,5.761363 -0.275217,1.83745 -0.03944,2.364866 0,5.568029 0.308655,7.793694 0.82308,15.605175 1.286062,23.393456 0.486989,8.254603 0.182621,16.141097 1.71475,23.857457 0.372959,2.165345 1.534702,-0.206481 2.786469,-0.502669 4.500361,-0.987552 9.117325,-1.86761 13.718,-2.281345 7.471165,-0.672031 15.01778,-0.723844 22.506093,-1.23734 1.871649,-0.128374 2.539544,1.478621 2.700731,-0.154668 C 59.506453,85.995142 58.560768,79.444201 57.87744,72.847634 56.80315,62.473313 54.651996,52.173233 53.590566,41.798139 52.793207,34.007538 53.926657,25.963283 52.304503,18.250016 51.167624,12.852894 51.153906,4.9756801 45.445503,3.0152699 Z" />
  <g
     id="g33"
     transform="translate(-2.0408761,-0.91967236)">
    <path
       id="path15"
       fill="#ffff00"
       stroke="#000000"
       stroke-width="2"
       d="m 74.5,173.5 c 0.828,0 1.578,0.336 2.121,0.879 0.543,0.543 0.879,1.293 0.879,2.121 0,0.828 -0.336,1.578 -0.879,2.121 -0.543,0.543 -1.293,0.879 -2.121,0.879 -0.828,0 -1.578,-0.336 -2.121,-0.879 -0.543,-0.543 -0.879,-1.293 -0.879,-2.121 0,-0.828 0.336,-1.578 0.879,-2.121 0.543,-0.543 1.293,-0.879 2.121,-0.879 z"
       transform="matrix(-0.34101239,0,0,0.42626551,48.9,-30.55)" />
    <path
       id="path17"
       fill="#00ff55"
       stroke="#000000"
       stroke-width="2"
       d="m 73,160.5 c 0.552,0 1.052,0.728 1.414,1.905 0.362,1.177 0.586,2.802 0.586,4.595 0,1.793 -0.224,3.418 -0.586,4.595 -0.362,1.177 -0.862,1.905 -1.414,1.905 -0.552,0 -1.052,-0.728 -1.414,-1.905 C 71.224,170.418 71,168.793 71,167 c 0,-1.793 0.224,-3.418 0.586,-4.595 0.362,-1.177 0.862,-1.905 1.414,-1.905 z"
       transform="matrix(-0.34101239,0,0,0.42626551,48.55,-30.75)" />
    <path
       id="path19"
       fill="#00ff55"
       stroke="#000000"
       stroke-width="2"
       d="m 73,160.5 c 0.552,0 1.052,0.728 1.414,1.905 0.362,1.177 0.586,2.802 0.586,4.595 0,1.793 -0.224,3.418 -0.586,4.595 -0.362,1.177 -0.862,1.905 -1.414,1.905 -0.552,0 -1.052,-0.728 -1.414,-1.905 C 71.224,170.418 71,168.793 71,167 c 0,-1.793 0.224,-3.418 0.586,-4.595 0.362,-1.177 0.862,-1.905 1.414,-1.905 z"
       transform="matrix(-0.23934579,0.30363184,0.24290545,0.29918221,-1.95,-30.6)" />
    <path
       id="path21"
       fill="#00ff55"
       stroke="#000000"
       stroke-width="2"
       d="m 73,160.5 c 0.552,0 1.052,0.728 1.414,1.905 0.362,1.177 0.586,2.802 0.586,4.595 0,1.793 -0.224,3.418 -0.586,4.595 -0.362,1.177 -0.862,1.905 -1.414,1.905 -0.552,0 -1.052,-0.728 -1.414,-1.905 C 71.224,170.418 71,168.793 71,167 c 0,-1.793 0.224,-3.418 0.586,-4.595 0.362,-1.177 0.862,-1.905 1.414,-1.905 z"
       transform="matrix(0.0178634,0.42568025,0.34054422,-0.02232925,-37.9,17.3)" />
    <path
       id="path23"
       fill="#00ff55"
       stroke="#000000"
       stroke-width="2"
       d="m 73,160.5 c 0.552,0 1.052,0.728 1.414,1.905 0.362,1.177 0.586,2.802 0.586,4.595 0,1.793 -0.224,3.418 -0.586,4.595 -0.362,1.177 -0.862,1.905 -1.414,1.905 -0.552,0 -1.052,-0.728 -1.414,-1.905 C 71.224,170.418 71,168.793 71,167 c 0,-1.793 0.224,-3.418 0.586,-4.595 0.362,-1.177 0.862,-1.905 1.414,-1.905 z"
       transform="matrix(0.33902276,0.04597944,0.03678355,-0.42377844,-7.55,116.3)" />
    <path
       id="path25"
       fill="#00ff55"
       stroke="#000000"
       stroke-width="2"
       d="m 73,160.5 c 0.552,0 1.052,0.728 1.414,1.905 0.362,1.177 0.586,2.802 0.586,4.595 0,1.793 -0.224,3.418 -0.586,4.595 -0.362,1.177 -0.862,1.905 -1.414,1.905 -0.552,0 -1.052,-0.728 -1.414,-1.905 C 71.224,170.418 71,168.793 71,167 c 0,-1.793 0.224,-3.418 0.586,-4.595 0.362,-1.177 0.862,-1.905 1.414,-1.905 z"
       transform="matrix(0.21174814,0.33413178,0.26730543,-0.26468515,-39.1,67.15)" />
    <path
       id="path27"
       fill="#00ff55"
       stroke="#000000"
       stroke-width="2"
       d="m 73,160.5 c 0.552,0 1.052,0.728 1.414,1.905 0.362,1.177 0.586,2.802 0.586,4.595 0,1.793 -0.224,3.418 -0.586,4.595 -0.362,1.177 -0.862,1.905 -1.414,1.905 -0.552,0 -1.052,-0.728 -1.414,-1.905 C 71.224,170.418 71,168.793 71,167 c 0,-1.793 0.224,-3.418 0.586,-4.595 0.362,-1.177 0.862,-1.905 1.414,-1.905 z"
       transform="matrix(-0.21174814,0.33413178,-0.26730543,-0.26468515,86,67.55)" />
    <path
       id="path29"
       fill="#00ff55"
       stroke="#000000"
       stroke-width="2"
       d="m 73,160.5 c 0.552,0 1.052,0.728 1.414,1.905 0.362,1.177 0.586,2.802 0.586,4.595 0,1.793 -0.224,3.418 -0.586,4.595 -0.362,1.177 -0.862,1.905 -1.414,1.905 -0.552,0 -1.052,-0.728 -1.414,-1.905 C 71.224,170.418 71,168.793 71,167 c 0,-1.793 0.224,-3.418 0.586,-4.595 0.362,-1.177 0.862,-1.905 1.414,-1.905 z"
       transform="matrix(-0.0178634,0.42568025,-0.34054422,-0.02232925,85,17.55)" />
    <path
       id="path31"
       fill="#00ff55"
       stroke="#000000"
       stroke-width="2"
       d="m 73,160.5 c 0.552,0 1.052,0.728 1.414,1.905 0.362,1.177 0.586,2.802 0.586,4.595 0,1.793 -0.224,3.418 -0.586,4.595 -0.362,1.177 -0.862,1.905 -1.414,1.905 -0.552,0 -1.052,-0.728 -1.414,-1.905 C 71.224,170.418 71,168.793 71,167 c 0,-1.793 0.224,-3.418 0.586,-4.595 0.362,-1.177 0.862,-1.905 1.414,-1.905 z"
       transform="matrix(0.23934579,0.30363184,-0.24290545,0.29918221,48.9,-30.4)" />
  </g>
  <g
     id="g53"
     transform="translate(-2.0408761,-0.91967236)">
    <path
       id="path35"
       fill="#ffff00"
       stroke="#000000"
       stroke-width="2"
       d="m 74.5,173.5 c 0.828,0 1.578,0.336 2.121,0.879 0.543,0.543 0.879,1.293 0.879,2.121 0,0.828 -0.336,1.578 -0.879,2.121 -0.543,0.543 -1.293,0.879 -2.121,0.879 -0.828,0 -1.578,-0.336 -2.121,-0.879 -0.543,-0.543 -0.879,-1.293 -0.879,-2.121 0,-0.828 0.336,-1.578 0.879,-2.121 0.543,-0.543 1.293,-0.879 2.121,-0.879 z"
       transform="matrix(-0.34101239,0,0,0.42626551,52.65,-60.35)" />
    <path
       id="path37"
       fill="#00ff55"
       stroke="#000000"
       stroke-width="2"
       d="m 73,160.5 c 0.552,0 1.052,0.728 1.414,1.905 0.362,1.177 0.586,2.802 0.586,4.595 0,1.793 -0.224,3.418 -0.586,4.595 -0.362,1.177 -0.862,1.905 -1.414,1.905 -0.552,0 -1.052,-0.728 -1.414,-1.905 C 71.224,170.418 71,168.793 71,167 c 0,-1.793 0.224,-3.418 0.586,-4.595 0.362,-1.177 0.862,-1.905 1.414,-1.905 z"
       transform="matrix(-0.34101239,0,0,0.42626551,52.3,-60.55)" />
    <path
       id="path39"
       fill="#00ff55"
       stroke="#000000"
       stroke-width="2"
       d="m 73,160.5 c 0.552,0 1.052,0.728 1.414,1.905 0.362,1.177 0.586,2.802 0.586,4.595 0,1.793 -0.224,3.418 -0.586,4.595 -0.362,1.177 -0.862,1.905 -1.414,1.905 -0.552,0 -1.052,-0.728 -1.414,-1.905 C 71.224,170.418 71,168.793 71,167 c 0,-1.793 0.224,-3.418 0.586,-4.595 0.362,-1.177 0.862,-1.905 1.414,-1.905 z"
       transform="matrix(-0.23934579,0.30363184,0.24290545,0.29918221,1.7,-60.4)" />
    <path
       id="path41"
       fill="#00ff55"
       stroke="#000000"
       stroke-width="2"
       d="m 73,160.5 c 0.552,0 1.052,0.728 1.414,1.905 0.362,1.177 0.586,2.802 0.586,4.595 0,1.793 -0.224,3.418 -0.586,4.595 -0.362,1.177 -0.862,1.905 -1.414,1.905 -0.552,0 -1.052,-0.728 -1.414,-1.905 C 71.224,170.418 71,168.793 71,167 c 0,-1.793 0.224,-3.418 0.586,-4.595 0.362,-1.177 0.862,-1.905 1.414,-1.905 z"
       transform="matrix(0.0178634,0.42568025,0.34054422,-0.02232925,-34.15,-12.4)" />
    <path
       id="path43"
       fill="#00ff55"
       stroke="#000000"
       stroke-width="2"
       d="m 73,160.5 c 0.552,0 1.052,0.728 1.414,1.905 0.362,1.177 0.586,2.802 0.586,4.595 0,1.793 -0.224,3.418 -0.586,4.595 -0.362,1.177 -0.862,1.905 -1.414,1.905 -0.552,0 -1.052,-0.728 -1.414,-1.905 C 71.224,170.418 71,168.793 71,167 c 0,-1.793 0.224,-3.418 0.586,-4.595 0.362,-1.177 0.862,-1.905 1.414,-1.905 z"
       transform="matrix(0.33902276,0.04597944,0.03678355,-0.42377844,-3.8,86.5)" />
    <path
       id="path45"
       fill="#00ff55"
       stroke="#000000"
       stroke-width="2"
       d="m 73,160.5 c 0.552,0 1.052,0.728 1.414,1.905 0.362,1.177 0.586,2.802 0.586,4.595 0,1.793 -0.224,3.418 -0.586,4.595 -0.362,1.177 -0.862,1.905 -1.414,1.905 -0.552,0 -1.052,-0.728 -1.414,-1.905 C 71.224,170.418 71,168.793 71,167 c 0,-1.793 0.224,-3.418 0.586,-4.595 0.362,-1.177 0.862,-1.905 1.414,-1.905 z"
       transform="matrix(0.21174814,0.33413178,0.26730543,-0.26468515,-35.3,37.35)" />
    <path
       id="path47"
       fill="#00ff55"
       stroke="#000000"
       stroke-width="2"
       d="m 73,160.5 c 0.552,0 1.052,0.728 1.414,1.905 0.362,1.177 0.586,2.802 0.586,4.595 0,1.793 -0.224,3.418 -0.586,4.595 -0.362,1.177 -0.862,1.905 -1.414,1.905 -0.552,0 -1.052,-0.728 -1.414,-1.905 C 71.224,170.418 71,168.793 71,167 c 0,-1.793 0.224,-3.418 0.586,-4.595 0.362,-1.177 0.862,-1.905 1.414,-1.905 z"
       transform="matrix(-0.21174814,0.33413178,-0.26730543,-0.26468515,89.8,37.75)" />
    <path
       id="path49"
       fill="#00ff55"
       stroke="#000000"
       stroke-width="2"
       d="m 73,160.5 c 0.552,0 1.052,0.728 1.414,1.905 0.362,1.177 0.586,2.802 0.586,4.595 0,1.793 -0.224,3.418 -0.586,4.595 -0.362,1.177 -0.862,1.905 -1.414,1.905 -0.552,0 -1.052,-0.728 -1.414,-1.905 C 71.224,170.418 71,168.793 71,167 c 0,-1.793 0.224,-3.418 0.586,-4.595 0.362,-1.177 0.862,-1.905 1.414,-1.905 z"
       transform="matrix(-0.0178634,0.42568025,-0.34054422,-0.02232925,88.8,-12.15)" />
    <path
       id="path51"
       fill="#00ff55"
       stroke="#000000"
       stroke-width="2"
       d="m 73,160.5 c 0.552,0 1.052,0.728 1.414,1.905 0.362,1.177 0.586,2.802 0.586,4.595 0,1.793 -0.224,3.418 -0.586,4.595 -0.362,1.177 -0.862,1.905 -1.414,1.905 -0.552,0 -1.052,-0.728 -1.414,-1.905 C 71.224,170.418 71,168.793 71,167 c 0,-1.793 0.224,-3.418 0.586,-4.595 0.362,-1.177 0.862,-1.905 1.414,-1.905 z"
       transform="matrix(0.23934579,0.30363184,-0.24290545,0.29918221,52.7,-60.15)" />
  </g>
  <g
     id="ID0.08513205265626311"
     transform="translate(-2.0408761,-0.91967236)">
    <path
       id="path55"
       fill="#cc99ff"
       stroke="#000000"
       stroke-width="1"
       stroke-linecap="round"
       d="m 83,255.75 c 2.817,-0.564 6.068,2.632 6.75,5.5 1.932,6.959 2.527,14.651 0.5,21.75 -0.65,2.277 -4.647,1.516 -7,1.25 -2.885,-0.331 -6.922,-0.14 -7.75,-2.75 -1.849,-5.83 -0.395,-12.224 1.25,-18 0.947,-3.352 3.003,-7.1 6.25,-7.75 z"
       transform="matrix(1.2398585,0.26260346,-0.24868628,1.4401456,-20.8,-383.8)" />
  </g>
  <g
     id="g76"
     transform="translate(-2.0408761,-0.91967236)">
    <path
       id="path58"
       fill="#ffff00"
       stroke="#000000"
       stroke-width="2"
       d="m 74.5,173.5 c 0.828,0 1.578,0.336 2.121,0.879 0.543,0.543 0.879,1.293 0.879,2.121 0,0.828 -0.336,1.578 -0.879,2.121 -0.543,0.543 -1.293,0.879 -2.121,0.879 -0.828,0 -1.578,-0.336 -2.121,-0.879 -0.543,-0.543 -0.879,-1.293 -0.879,-2.121 0,-0.828 0.336,-1.578 0.879,-2.121 0.543,-0.543 1.293,-0.879 2.121,-0.879 z"
       transform="matrix(-0.34101239,0,0,0.42626551,74,5.7)" />
    <path
       id="path60"
       fill="#00ff55"
       stroke="#000000"
       stroke-width="2"
       d="m 73,160.5 c 0.552,0 1.052,0.728 1.414,1.905 0.362,1.177 0.586,2.802 0.586,4.595 0,1.793 -0.224,3.418 -0.586,4.595 -0.362,1.177 -0.862,1.905 -1.414,1.905 -0.552,0 -1.052,-0.728 -1.414,-1.905 C 71.224,170.418 71,168.793 71,167 c 0,-1.793 0.224,-3.418 0.586,-4.595 0.362,-1.177 0.862,-1.905 1.414,-1.905 z"
       transform="matrix(-0.34101239,0,0,0.42626551,73.7,5.5)" />
    <path
       id="path62"
       fill="#00ff55"
       stroke="#000000"
       stroke-width="2"
       d="m 73,160.5 c 0.552,0 1.052,0.728 1.414,1.905 0.362,1.177 0.586,2.802 0.586,4.595 0,1.793 -0.224,3.418 -0.586,4.595 -0.362,1.177 -0.862,1.905 -1.414,1.905 -0.552,0 -1.052,-0.728 -1.414,-1.905 C 71.224,170.418 71,168.793 71,167 c 0,-1.793 0.224,-3.418 0.586,-4.595 0.362,-1.177 0.862,-1.905 1.414,-1.905 z"
       transform="matrix(-0.23934579,0.30363184,0.24290545,0.29918221,23.15,5.65)" />
    <path
       id="path64"
       fill="#00ff55"
       stroke="#000000"
       stroke-width="2"
       d="m 73,160.5 c 0.552,0 1.052,0.728 1.414,1.905 0.362,1.177 0.586,2.802 0.586,4.595 0,1.793 -0.224,3.418 -0.586,4.595 -0.362,1.177 -0.862,1.905 -1.414,1.905 -0.552,0 -1.052,-0.728 -1.414,-1.905 C 71.224,170.418 71,168.793 71,167 c 0,-1.793 0.224,-3.418 0.586,-4.595 0.362,-1.177 0.862,-1.905 1.414,-1.905 z"
       transform="matrix(0.0178634,0.42568025,0.34054422,-0.02232925,-12.65,53.65)" />
    <path
       id="path66"
       fill="#00ff55"
       stroke="#000000"
       stroke-width="2"
       d="m 73,160.5 c 0.552,0 1.052,0.728 1.414,1.905 0.362,1.177 0.586,2.802 0.586,4.595 0,1.793 -0.224,3.418 -0.586,4.595 -0.362,1.177 -0.862,1.905 -1.414,1.905 -0.552,0 -1.052,-0.728 -1.414,-1.905 C 71.224,170.418 71,168.793 71,167 c 0,-1.793 0.224,-3.418 0.586,-4.595 0.362,-1.177 0.862,-1.905 1.414,-1.905 z"
       transform="matrix(0.33902276,0.04597944,0.03678355,-0.42377844,17.6,152.65)" />
    <path
       id="path68"
       fill="#00ff55"
       stroke="#000000"
       stroke-width="2"
       d="m 73,160.5 c 0.552,0 1.052,0.728 1.414,1.905 0.362,1.177 0.586,2.802 0.586,4.595 0,1.793 -0.224,3.418 -0.586,4.595 -0.362,1.177 -0.862,1.905 -1.414,1.905 -0.552,0 -1.052,-0.728 -1.414,-1.905 C 71.224,170.418 71,168.793 71,167 c 0,-1.793 0.224,-3.418 0.586,-4.595 0.362,-1.177 0.862,-1.905 1.414,-1.905 z"
       transform="matrix(0.21174814,0.33413178,0.26730543,-0.26468515,-13.85,103.5)" />
    <path
       id="path70"
       fill="#00ff55"
       stroke="#000000"
       stroke-width="2"
       d="m 73,160.5 c 0.552,0 1.052,0.728 1.414,1.905 0.362,1.177 0.586,2.802 0.586,4.595 0,1.793 -0.224,3.418 -0.586,4.595 -0.362,1.177 -0.862,1.905 -1.414,1.905 -0.552,0 -1.052,-0.728 -1.414,-1.905 C 71.224,170.418 71,168.793 71,167 c 0,-1.793 0.224,-3.418 0.586,-4.595 0.362,-1.177 0.862,-1.905 1.414,-1.905 z"
       transform="matrix(-0.21174814,0.33413178,-0.26730543,-0.26468515,111.2,103.9)" />
    <path
       id="path72"
       fill="#00ff55"
       stroke="#000000"
       stroke-width="2"
       d="m 73,160.5 c 0.552,0 1.052,0.728 1.414,1.905 0.362,1.177 0.586,2.802 0.586,4.595 0,1.793 -0.224,3.418 -0.586,4.595 -0.362,1.177 -0.862,1.905 -1.414,1.905 -0.552,0 -1.052,-0.728 -1.414,-1.905 C 71.224,170.418 71,168.793 71,167 c 0,-1.793 0.224,-3.418 0.586,-4.595 0.362,-1.177 0.862,-1.905 1.414,-1.905 z"
       transform="matrix(-0.0178634,0.42568025,-0.34054422,-0.02232925,110.25,53.9)" />
    <path
       id="path74"
       fill="#00ff55"
       stroke="#000000"
       stroke-width="2"
       d="m 73,160.5 c 0.552,0 1.052,0.728 1.414,1.905 0.362,1.177 0.586,2.802 0.586,4.595 0,1.793 -0.224,3.418 -0.586,4.595 -0.362,1.177 -0.862,1.905 -1.414,1.905 -0.552,0 -1.052,-0.728 -1.414,-1.905 C 71.224,170.418 71,168.793 71,167 c 0,-1.793 0.224,-3.418 0.586,-4.595 0.362,-1.177 0.862,-1.905 1.414,-1.905 z"
       transform="matrix(0.23934579,0.30363184,-0.24290545,0.29918221,74.1,5.9)" />
  </g>
  <g
     id="g96"
     transform="translate(-2.0408761,-0.91967236)">
    <path
       id="path78"
       fill="#ffff00"
       stroke="#000000"
       stroke-width="2"
       d="m 74.5,173.5 c 0.828,0 1.578,0.336 2.121,0.879 0.543,0.543 0.879,1.293 0.879,2.121 0,0.828 -0.336,1.578 -0.879,2.121 -0.543,0.543 -1.293,0.879 -2.121,0.879 -0.828,0 -1.578,-0.336 -2.121,-0.879 -0.543,-0.543 -0.879,-1.293 -0.879,-2.121 0,-0.828 0.336,-1.578 0.879,-2.121 0.543,-0.543 1.293,-0.879 2.121,-0.879 z"
       transform="matrix(-0.34101239,0,0,0.42626551,51.65,-1.85)" />
    <path
       id="path80"
       fill="#00ff55"
       stroke="#000000"
       stroke-width="2"
       d="m 73,160.5 c 0.552,0 1.052,0.728 1.414,1.905 0.362,1.177 0.586,2.802 0.586,4.595 0,1.793 -0.224,3.418 -0.586,4.595 -0.362,1.177 -0.862,1.905 -1.414,1.905 -0.552,0 -1.052,-0.728 -1.414,-1.905 C 71.224,170.418 71,168.793 71,167 c 0,-1.793 0.224,-3.418 0.586,-4.595 0.362,-1.177 0.862,-1.905 1.414,-1.905 z"
       transform="matrix(-0.34101239,0,0,0.42626551,51.3,-2.1)" />
    <path
       id="path82"
       fill="#00ff55"
       stroke="#000000"
       stroke-width="2"
       d="m 73,160.5 c 0.552,0 1.052,0.728 1.414,1.905 0.362,1.177 0.586,2.802 0.586,4.595 0,1.793 -0.224,3.418 -0.586,4.595 -0.362,1.177 -0.862,1.905 -1.414,1.905 -0.552,0 -1.052,-0.728 -1.414,-1.905 C 71.224,170.418 71,168.793 71,167 c 0,-1.793 0.224,-3.418 0.586,-4.595 0.362,-1.177 0.862,-1.905 1.414,-1.905 z"
       transform="matrix(-0.23934579,0.30363184,0.24290545,0.29918221,0.75,-1.9)" />
    <path
       id="path84"
       fill="#00ff55"
       stroke="#000000"
       stroke-width="2"
       d="m 73,160.5 c 0.552,0 1.052,0.728 1.414,1.905 0.362,1.177 0.586,2.802 0.586,4.595 0,1.793 -0.224,3.418 -0.586,4.595 -0.362,1.177 -0.862,1.905 -1.414,1.905 -0.552,0 -1.052,-0.728 -1.414,-1.905 C 71.224,170.418 71,168.793 71,167 c 0,-1.793 0.224,-3.418 0.586,-4.595 0.362,-1.177 0.862,-1.905 1.414,-1.905 z"
       transform="matrix(0.0178634,0.42568025,0.34054422,-0.02232925,-35.15,45.95)" />
    <path
       id="path86"
       fill="#00ff55"
       stroke="#000000"
       stroke-width="2"
       d="m 73,160.5 c 0.552,0 1.052,0.728 1.414,1.905 0.362,1.177 0.586,2.802 0.586,4.595 0,1.793 -0.224,3.418 -0.586,4.595 -0.362,1.177 -0.862,1.905 -1.414,1.905 -0.552,0 -1.052,-0.728 -1.414,-1.905 C 71.224,170.418 71,168.793 71,167 c 0,-1.793 0.224,-3.418 0.586,-4.595 0.362,-1.177 0.862,-1.905 1.414,-1.905 z"
       transform="matrix(0.33902276,0.04597944,0.03678355,-0.42377844,-4.75,145)" />
    <path
       id="path88"
       fill="#00ff55"
       stroke="#000000"
       stroke-width="2"
       d="m 73,160.5 c 0.552,0 1.052,0.728 1.414,1.905 0.362,1.177 0.586,2.802 0.586,4.595 0,1.793 -0.224,3.418 -0.586,4.595 -0.362,1.177 -0.862,1.905 -1.414,1.905 -0.552,0 -1.052,-0.728 -1.414,-1.905 C 71.224,170.418 71,168.793 71,167 c 0,-1.793 0.224,-3.418 0.586,-4.595 0.362,-1.177 0.862,-1.905 1.414,-1.905 z"
       transform="matrix(0.21174814,0.33413178,0.26730543,-0.26468515,-36.3,95.8)" />
    <path
       id="path90"
       fill="#00ff55"
       stroke="#000000"
       stroke-width="2"
       d="m 73,160.5 c 0.552,0 1.052,0.728 1.414,1.905 0.362,1.177 0.586,2.802 0.586,4.595 0,1.793 -0.224,3.418 -0.586,4.595 -0.362,1.177 -0.862,1.905 -1.414,1.905 -0.552,0 -1.052,-0.728 -1.414,-1.905 C 71.224,170.418 71,168.793 71,167 c 0,-1.793 0.224,-3.418 0.586,-4.595 0.362,-1.177 0.862,-1.905 1.414,-1.905 z"
       transform="matrix(-0.21174814,0.33413178,-0.26730543,-0.26468515,88.8,96.2)" />
    <path
       id="path92"
       fill="#00ff55"
       stroke="#000000"
       stroke-width="2"
       d="m 73,160.5 c 0.552,0 1.052,0.728 1.414,1.905 0.362,1.177 0.586,2.802 0.586,4.595 0,1.793 -0.224,3.418 -0.586,4.595 -0.362,1.177 -0.862,1.905 -1.414,1.905 -0.552,0 -1.052,-0.728 -1.414,-1.905 C 71.224,170.418 71,168.793 71,167 c 0,-1.793 0.224,-3.418 0.586,-4.595 0.362,-1.177 0.862,-1.905 1.414,-1.905 z"
       transform="matrix(-0.0178634,0.42568025,-0.34054422,-0.02232925,87.8,46.2)" />
    <path
       id="path94"
       fill="#00ff55"
       stroke="#000000"
       stroke-width="2"
       d="m 73,160.5 c 0.552,0 1.052,0.728 1.414,1.905 0.362,1.177 0.586,2.802 0.586,4.595 0,1.793 -0.224,3.418 -0.586,4.595 -0.362,1.177 -0.862,1.905 -1.414,1.905 -0.552,0 -1.052,-0.728 -1.414,-1.905 C 71.224,170.418 71,168.793 71,167 c 0,-1.793 0.224,-3.418 0.586,-4.595 0.362,-1.177 0.862,-1.905 1.414,-1.905 z"
       transform="matrix(0.23934579,0.30363184,-0.24290545,0.29918221,51.7,-1.7)" />
  </g>
  <g
     id="g116"
     transform="translate(-2.0408761,-0.91967236)">
    <path
       id="path98"
       fill="#ffff00"
       stroke="#000000"
       stroke-width="2"
       d="m 74.5,173.5 c 0.828,0 1.578,0.336 2.121,0.879 0.543,0.543 0.879,1.293 0.879,2.121 0,0.828 -0.336,1.578 -0.879,2.121 -0.543,0.543 -1.293,0.879 -2.121,0.879 -0.828,0 -1.578,-0.336 -2.121,-0.879 -0.543,-0.543 -0.879,-1.293 -0.879,-2.121 0,-0.828 0.336,-1.578 0.879,-2.121 0.543,-0.543 1.293,-0.879 2.121,-0.879 z"
       transform="matrix(-0.34101239,0,0,0.42626551,66.1,-20.35)" />
    <path
       id="path100"
       fill="#00ff55"
       stroke="#000000"
       stroke-width="2"
       d="m 73,160.5 c 0.552,0 1.052,0.728 1.414,1.905 0.362,1.177 0.586,2.802 0.586,4.595 0,1.793 -0.224,3.418 -0.586,4.595 -0.362,1.177 -0.862,1.905 -1.414,1.905 -0.552,0 -1.052,-0.728 -1.414,-1.905 C 71.224,170.418 71,168.793 71,167 c 0,-1.793 0.224,-3.418 0.586,-4.595 0.362,-1.177 0.862,-1.905 1.414,-1.905 z"
       transform="matrix(-0.34101239,0,0,0.42626551,65.75,-20.55)" />
    <path
       id="path102"
       fill="#00ff55"
       stroke="#000000"
       stroke-width="2"
       d="m 73,160.5 c 0.552,0 1.052,0.728 1.414,1.905 0.362,1.177 0.586,2.802 0.586,4.595 0,1.793 -0.224,3.418 -0.586,4.595 -0.362,1.177 -0.862,1.905 -1.414,1.905 -0.552,0 -1.052,-0.728 -1.414,-1.905 C 71.224,170.418 71,168.793 71,167 c 0,-1.793 0.224,-3.418 0.586,-4.595 0.362,-1.177 0.862,-1.905 1.414,-1.905 z"
       transform="matrix(-0.23934579,0.30363184,0.24290545,0.29918221,15.2,-20.4)" />
    <path
       id="path104"
       fill="#00ff55"
       stroke="#000000"
       stroke-width="2"
       d="m 73,160.5 c 0.552,0 1.052,0.728 1.414,1.905 0.362,1.177 0.586,2.802 0.586,4.595 0,1.793 -0.224,3.418 -0.586,4.595 -0.362,1.177 -0.862,1.905 -1.414,1.905 -0.552,0 -1.052,-0.728 -1.414,-1.905 C 71.224,170.418 71,168.793 71,167 c 0,-1.793 0.224,-3.418 0.586,-4.595 0.362,-1.177 0.862,-1.905 1.414,-1.905 z"
       transform="matrix(0.0178634,0.42568025,0.34054422,-0.02232925,-20.6,27.5)" />
    <path
       id="path106"
       fill="#00ff55"
       stroke="#000000"
       stroke-width="2"
       d="m 73,160.5 c 0.552,0 1.052,0.728 1.414,1.905 0.362,1.177 0.586,2.802 0.586,4.595 0,1.793 -0.224,3.418 -0.586,4.595 -0.362,1.177 -0.862,1.905 -1.414,1.905 -0.552,0 -1.052,-0.728 -1.414,-1.905 C 71.224,170.418 71,168.793 71,167 c 0,-1.793 0.224,-3.418 0.586,-4.595 0.362,-1.177 0.862,-1.905 1.414,-1.905 z"
       transform="matrix(0.33902276,0.04597944,0.03678355,-0.42377844,9.6,126.5)" />
    <path
       id="path108"
       fill="#00ff55"
       stroke="#000000"
       stroke-width="2"
       d="m 73,160.5 c 0.552,0 1.052,0.728 1.414,1.905 0.362,1.177 0.586,2.802 0.586,4.595 0,1.793 -0.224,3.418 -0.586,4.595 -0.362,1.177 -0.862,1.905 -1.414,1.905 -0.552,0 -1.052,-0.728 -1.414,-1.905 C 71.224,170.418 71,168.793 71,167 c 0,-1.793 0.224,-3.418 0.586,-4.595 0.362,-1.177 0.862,-1.905 1.414,-1.905 z"
       transform="matrix(0.21174814,0.33413178,0.26730543,-0.26468515,-21.8,77.35)" />
    <path
       id="path110"
       fill="#00ff55"
       stroke="#000000"
       stroke-width="2"
       d="m 73,160.5 c 0.552,0 1.052,0.728 1.414,1.905 0.362,1.177 0.586,2.802 0.586,4.595 0,1.793 -0.224,3.418 -0.586,4.595 -0.362,1.177 -0.862,1.905 -1.414,1.905 -0.552,0 -1.052,-0.728 -1.414,-1.905 C 71.224,170.418 71,168.793 71,167 c 0,-1.793 0.224,-3.418 0.586,-4.595 0.362,-1.177 0.862,-1.905 1.414,-1.905 z"
       transform="matrix(-0.21174814,0.33413178,-0.26730543,-0.26468515,103.3,77.75)" />
    <path
       id="path112"
       fill="#00ff55"
       stroke="#000000"
       stroke-width="2"
       d="m 73,160.5 c 0.552,0 1.052,0.728 1.414,1.905 0.362,1.177 0.586,2.802 0.586,4.595 0,1.793 -0.224,3.418 -0.586,4.595 -0.362,1.177 -0.862,1.905 -1.414,1.905 -0.552,0 -1.052,-0.728 -1.414,-1.905 C 71.224,170.418 71,168.793 71,167 c 0,-1.793 0.224,-3.418 0.586,-4.595 0.362,-1.177 0.862,-1.905 1.414,-1.905 z"
       transform="matrix(-0.0178634,0.42568025,-0.34054422,-0.02232925,102.3,27.75)" />
    <path
       id="path114"
       fill="#00ff55"
       stroke="#000000"
       stroke-width="2"
       d="m 73,160.5 c 0.552,0 1.052,0.728 1.414,1.905 0.362,1.177 0.586,2.802 0.586,4.595 0,1.793 -0.224,3.418 -0.586,4.595 -0.362,1.177 -0.862,1.905 -1.414,1.905 -0.552,0 -1.052,-0.728 -1.414,-1.905 C 71.224,170.418 71,168.793 71,167 c 0,-1.793 0.224,-3.418 0.586,-4.595 0.362,-1.177 0.862,-1.905 1.414,-1.905 z"
       transform="matrix(0.23934579,0.30363184,-0.24290545,0.29918221,66.15,-20.15)" />
  </g>
  <g
     id="g136"
     transform="translate(-2.0408761,-0.91967236)">
    <path
       id="path118"
       fill="#ffff00"
       stroke="#000000"
       stroke-width="2"
       d="m 74.5,173.5 c 0.828,0 1.578,0.336 2.121,0.879 0.543,0.543 0.879,1.293 0.879,2.121 0,0.828 -0.336,1.578 -0.879,2.121 -0.543,0.543 -1.293,0.879 -2.121,0.879 -0.828,0 -1.578,-0.336 -2.121,-0.879 -0.543,-0.543 -0.879,-1.293 -0.879,-2.121 0,-0.828 0.336,-1.578 0.879,-2.121 0.543,-0.543 1.293,-0.879 2.121,-0.879 z"
       transform="matrix(-0.34101239,0,0,0.42626551,72,-53.7)" />
    <path
       id="path120"
       fill="#00ff55"
       stroke="#000000"
       stroke-width="2"
       d="m 73,160.5 c 0.552,0 1.052,0.728 1.414,1.905 0.362,1.177 0.586,2.802 0.586,4.595 0,1.793 -0.224,3.418 -0.586,4.595 -0.362,1.177 -0.862,1.905 -1.414,1.905 -0.552,0 -1.052,-0.728 -1.414,-1.905 C 71.224,170.418 71,168.793 71,167 c 0,-1.793 0.224,-3.418 0.586,-4.595 0.362,-1.177 0.862,-1.905 1.414,-1.905 z"
       transform="matrix(-0.34101239,0,0,0.42626551,71.7,-53.9)" />
    <path
       id="path122"
       fill="#00ff55"
       stroke="#000000"
       stroke-width="2"
       d="m 73,160.5 c 0.552,0 1.052,0.728 1.414,1.905 0.362,1.177 0.586,2.802 0.586,4.595 0,1.793 -0.224,3.418 -0.586,4.595 -0.362,1.177 -0.862,1.905 -1.414,1.905 -0.552,0 -1.052,-0.728 -1.414,-1.905 C 71.224,170.418 71,168.793 71,167 c 0,-1.793 0.224,-3.418 0.586,-4.595 0.362,-1.177 0.862,-1.905 1.414,-1.905 z"
       transform="matrix(-0.23934579,0.30363184,0.24290545,0.29918221,21.1,-53.75)" />
    <path
       id="path124"
       fill="#00ff55"
       stroke="#000000"
       stroke-width="2"
       d="m 73,160.5 c 0.552,0 1.052,0.728 1.414,1.905 0.362,1.177 0.586,2.802 0.586,4.595 0,1.793 -0.224,3.418 -0.586,4.595 -0.362,1.177 -0.862,1.905 -1.414,1.905 -0.552,0 -1.052,-0.728 -1.414,-1.905 C 71.224,170.418 71,168.793 71,167 c 0,-1.793 0.224,-3.418 0.586,-4.595 0.362,-1.177 0.862,-1.905 1.414,-1.905 z"
       transform="matrix(0.0178634,0.42568025,0.34054422,-0.02232925,-14.75,-5.75)" />
    <path
       id="path126"
       fill="#00ff55"
       stroke="#000000"
       stroke-width="2"
       d="m 73,160.5 c 0.552,0 1.052,0.728 1.414,1.905 0.362,1.177 0.586,2.802 0.586,4.595 0,1.793 -0.224,3.418 -0.586,4.595 -0.362,1.177 -0.862,1.905 -1.414,1.905 -0.552,0 -1.052,-0.728 -1.414,-1.905 C 71.224,170.418 71,168.793 71,167 c 0,-1.793 0.224,-3.418 0.586,-4.595 0.362,-1.177 0.862,-1.905 1.414,-1.905 z"
       transform="matrix(0.33902276,0.04597944,0.03678355,-0.42377844,15.55,93.15)" />
    <path
       id="path128"
       fill="#00ff55"
       stroke="#000000"
       stroke-width="2"
       d="m 73,160.5 c 0.552,0 1.052,0.728 1.414,1.905 0.362,1.177 0.586,2.802 0.586,4.595 0,1.793 -0.224,3.418 -0.586,4.595 -0.362,1.177 -0.862,1.905 -1.414,1.905 -0.552,0 -1.052,-0.728 -1.414,-1.905 C 71.224,170.418 71,168.793 71,167 c 0,-1.793 0.224,-3.418 0.586,-4.595 0.362,-1.177 0.862,-1.905 1.414,-1.905 z"
       transform="matrix(0.21174814,0.33413178,0.26730543,-0.26468515,-15.9,44)" />
    <path
       id="path130"
       fill="#00ff55"
       stroke="#000000"
       stroke-width="2"
       d="m 73,160.5 c 0.552,0 1.052,0.728 1.414,1.905 0.362,1.177 0.586,2.802 0.586,4.595 0,1.793 -0.224,3.418 -0.586,4.595 -0.362,1.177 -0.862,1.905 -1.414,1.905 -0.552,0 -1.052,-0.728 -1.414,-1.905 C 71.224,170.418 71,168.793 71,167 c 0,-1.793 0.224,-3.418 0.586,-4.595 0.362,-1.177 0.862,-1.905 1.414,-1.905 z"
       transform="matrix(-0.21174814,0.33413178,-0.26730543,-0.26468515,109.15,44.4)" />
    <path
       id="path132"
       fill="#00ff55"
       stroke="#000000"
       stroke-width="2"
       d="m 73,160.5 c 0.552,0 1.052,0.728 1.414,1.905 0.362,1.177 0.586,2.802 0.586,4.595 0,1.793 -0.224,3.418 -0.586,4.595 -0.362,1.177 -0.862,1.905 -1.414,1.905 -0.552,0 -1.052,-0.728 -1.414,-1.905 C 71.224,170.418 71,168.793 71,167 c 0,-1.793 0.224,-3.418 0.586,-4.595 0.362,-1.177 0.862,-1.905 1.414,-1.905 z"
       transform="matrix(-0.0178634,0.42568025,-0.34054422,-0.02232925,108.15,-5.5)" />
    <path
       id="path134"
       fill="#00ff55"
       stroke="#000000"
       stroke-width="2"
       d="m 73,160.5 c 0.552,0 1.052,0.728 1.414,1.905 0.362,1.177 0.586,2.802 0.586,4.595 0,1.793 -0.224,3.418 -0.586,4.595 -0.362,1.177 -0.862,1.905 -1.414,1.905 -0.552,0 -1.052,-0.728 -1.414,-1.905 C 71.224,170.418 71,168.793 71,167 c 0,-1.793 0.224,-3.418 0.586,-4.595 0.362,-1.177 0.862,-1.905 1.414,-1.905 z"
       transform="matrix(0.23934579,0.30363184,-0.24290545,0.29918221,72,-53.55)" />
  </g>
  <g
     id="g150"
     transform="translate(-2.0408761,-0.91967236)">
    <path
       id="path138"
       fill="#ffff00"
       stroke="#000000"
       stroke-width="2"
       d="m 74.5,173.5 c 0.828,0 1.578,0.336 2.121,0.879 0.543,0.543 0.879,1.293 0.879,2.121 0,0.828 -0.336,1.578 -0.879,2.121 -0.543,0.543 -1.293,0.879 -2.121,0.879 -0.828,0 -1.578,-0.336 -2.121,-0.879 -0.543,-0.543 -0.879,-1.293 -0.879,-2.121 0,-0.828 0.336,-1.578 0.879,-2.121 0.543,-0.543 1.293,-0.879 2.121,-0.879 z"
       transform="matrix(-0.34101239,0,0,0.42626551,80.5,-32.5)" />
    <path
       id="path140"
       fill="#00ff55"
       stroke="#000000"
       stroke-width="2"
       d="m 73,160.5 c 0.552,0 1.052,0.728 1.414,1.905 0.362,1.177 0.586,2.802 0.586,4.595 0,1.793 -0.224,3.418 -0.586,4.595 -0.362,1.177 -0.862,1.905 -1.414,1.905 -0.552,0 -1.052,-0.728 -1.414,-1.905 C 71.224,170.418 71,168.793 71,167 c 0,-1.793 0.224,-3.418 0.586,-4.595 0.362,-1.177 0.862,-1.905 1.414,-1.905 z"
       transform="matrix(-0.34101239,0,0,0.42626551,80.15,-32.7)" />
    <path
       id="path142"
       fill="#00ff55"
       stroke="#000000"
       stroke-width="2"
       d="m 73,160.5 c 0.552,0 1.052,0.728 1.414,1.905 0.362,1.177 0.586,2.802 0.586,4.595 0,1.793 -0.224,3.418 -0.586,4.595 -0.362,1.177 -0.862,1.905 -1.414,1.905 -0.552,0 -1.052,-0.728 -1.414,-1.905 C 71.224,170.418 71,168.793 71,167 c 0,-1.793 0.224,-3.418 0.586,-4.595 0.362,-1.177 0.862,-1.905 1.414,-1.905 z"
       transform="matrix(-0.23934579,0.30363184,0.24290545,0.29918221,29.6,-32.5)" />
    <path
       id="path144"
       fill="#00ff55"
       stroke="#000000"
       stroke-width="2"
       d="m 73,160.5 c 0.552,0 1.052,0.728 1.414,1.905 0.362,1.177 0.586,2.802 0.586,4.595 0,1.793 -0.224,3.418 -0.586,4.595 -0.362,1.177 -0.862,1.905 -1.414,1.905 -0.552,0 -1.052,-0.728 -1.414,-1.905 C 71.224,170.418 71,168.793 71,167 c 0,-1.793 0.224,-3.418 0.586,-4.595 0.362,-1.177 0.862,-1.905 1.414,-1.905 z"
       transform="matrix(0.0178634,0.42568025,0.34054422,-0.02232925,-6.25,15.35)" />
    <path
       id="path146"
       fill="#00ff55"
       stroke="#000000"
       stroke-width="2"
       d="m 73,160.5 c 0.552,0 1.052,0.728 1.414,1.905 0.362,1.177 0.586,2.802 0.586,4.595 0,1.793 -0.224,3.418 -0.586,4.595 -0.362,1.177 -0.862,1.905 -1.414,1.905 -0.552,0 -1.052,-0.728 -1.414,-1.905 C 71.224,170.418 71,168.793 71,167 c 0,-1.793 0.224,-3.418 0.586,-4.595 0.362,-1.177 0.862,-1.905 1.414,-1.905 z"
       transform="matrix(0.33902276,0.04597944,0.03678355,-0.42377844,24,114.4)" />
    <path
       id="path148"
       fill="#00ff55"
       stroke="#000000"
       stroke-width="2"
       d="m 73,160.5 c 0.552,0 1.052,0.728 1.414,1.905 0.362,1.177 0.586,2.802 0.586,4.595 0,1.793 -0.224,3.418 -0.586,4.595 -0.362,1.177 -0.862,1.905 -1.414,1.905 -0.552,0 -1.052,-0.728 -1.414,-1.905 C 71.224,170.418 71,168.793 71,167 c 0,-1.793 0.224,-3.418 0.586,-4.595 0.362,-1.177 0.862,-1.905 1.414,-1.905 z"
       transform="matrix(0.21174814,0.33413178,0.26730543,-0.26468515,-7.45,65.2)" />
  </g>
  <g
     id="g170"
     transform="translate(-2.0408761,-0.91967236)">
    <path
       id="path152"
       fill="#ffff00"
       stroke="#000000"
       stroke-width="2"
       d="m 74.5,173.5 c 0.828,0 1.578,0.336 2.121,0.879 0.543,0.543 0.879,1.293 0.879,2.121 0,0.828 -0.336,1.578 -0.879,2.121 -0.543,0.543 -1.293,0.879 -2.121,0.879 -0.828,0 -1.578,-0.336 -2.121,-0.879 -0.543,-0.543 -0.879,-1.293 -0.879,-2.121 0,-0.828 0.336,-1.578 0.879,-2.121 0.543,-0.543 1.293,-0.879 2.121,-0.879 z"
       transform="matrix(-0.34101239,0,0,0.36571643,39.3,-35.35)" />
    <path
       id="path154"
       fill="#00ff55"
       stroke="#000000"
       stroke-width="2"
       d="m 73,160.5 c 0.552,0 1.052,0.728 1.414,1.905 0.362,1.177 0.586,2.802 0.586,4.595 0,1.793 -0.224,3.418 -0.586,4.595 -0.362,1.177 -0.862,1.905 -1.414,1.905 -0.552,0 -1.052,-0.728 -1.414,-1.905 C 71.224,170.418 71,168.793 71,167 c 0,-1.793 0.224,-3.418 0.586,-4.595 0.362,-1.177 0.862,-1.905 1.414,-1.905 z"
       transform="matrix(-0.34101239,0,0,0.36571643,39,-35.5)" />
    <path
       id="path156"
       fill="#00ff55"
       stroke="#000000"
       stroke-width="2"
       d="m 73,160.5 c 0.552,0 1.052,0.728 1.414,1.905 0.362,1.177 0.586,2.802 0.586,4.595 0,1.793 -0.224,3.418 -0.586,4.595 -0.362,1.177 -0.862,1.905 -1.414,1.905 -0.552,0 -1.052,-0.728 -1.414,-1.905 C 71.224,170.418 71,168.793 71,167 c 0,-1.793 0.224,-3.418 0.586,-4.595 0.362,-1.177 0.862,-1.905 1.414,-1.905 z"
       transform="matrix(-0.23934579,0.26050231,0.24290545,0.25668475,-11.55,-35.4)" />
    <path
       id="path158"
       fill="#00ff55"
       stroke="#000000"
       stroke-width="2"
       d="m 73,160.5 c 0.552,0 1.052,0.728 1.414,1.905 0.362,1.177 0.586,2.802 0.586,4.595 0,1.793 -0.224,3.418 -0.586,4.595 -0.362,1.177 -0.862,1.905 -1.414,1.905 -0.552,0 -1.052,-0.728 -1.414,-1.905 C 71.224,170.418 71,168.793 71,167 c 0,-1.793 0.224,-3.418 0.586,-4.595 0.362,-1.177 0.862,-1.905 1.414,-1.905 z"
       transform="matrix(0.0178634,0.36521432,0.34054422,-0.01915748,-47.5,5.65)" />
    <path
       id="path160"
       fill="#00ff55"
       stroke="#000000"
       stroke-width="2"
       d="m 73,160.5 c 0.552,0 1.052,0.728 1.414,1.905 0.362,1.177 0.586,2.802 0.586,4.595 0,1.793 -0.224,3.418 -0.586,4.595 -0.362,1.177 -0.862,1.905 -1.414,1.905 -0.552,0 -1.052,-0.728 -1.414,-1.905 C 71.224,170.418 71,168.793 71,167 c 0,-1.793 0.224,-3.418 0.586,-4.595 0.362,-1.177 0.862,-1.905 1.414,-1.905 z"
       transform="matrix(0.33902276,0.03944827,0.03678355,-0.36358267,-17.15,90.65)" />
    <path
       id="path162"
       fill="#00ff55"
       stroke="#000000"
       stroke-width="2"
       d="m 73,160.5 c 0.552,0 1.052,0.728 1.414,1.905 0.362,1.177 0.586,2.802 0.586,4.595 0,1.793 -0.224,3.418 -0.586,4.595 -0.362,1.177 -0.862,1.905 -1.414,1.905 -0.552,0 -1.052,-0.728 -1.414,-1.905 C 71.224,170.418 71,168.793 71,167 c 0,-1.793 0.224,-3.418 0.586,-4.595 0.362,-1.177 0.862,-1.905 1.414,-1.905 z"
       transform="matrix(0.21174814,0.28666988,0.26730543,-0.22708784,-48.6,48.45)" />
    <path
       id="path164"
       fill="#00ff55"
       stroke="#000000"
       stroke-width="2"
       d="m 73,160.5 c 0.552,0 1.052,0.728 1.414,1.905 0.362,1.177 0.586,2.802 0.586,4.595 0,1.793 -0.224,3.418 -0.586,4.595 -0.362,1.177 -0.862,1.905 -1.414,1.905 -0.552,0 -1.052,-0.728 -1.414,-1.905 C 71.224,170.418 71,168.793 71,167 c 0,-1.793 0.224,-3.418 0.586,-4.595 0.362,-1.177 0.862,-1.905 1.414,-1.905 z"
       transform="matrix(-0.21174814,0.28666988,-0.26730543,-0.22708784,76.45,48.75)" />
    <path
       id="path166"
       fill="#00ff55"
       stroke="#000000"
       stroke-width="2"
       d="m 73,160.5 c 0.552,0 1.052,0.728 1.414,1.905 0.362,1.177 0.586,2.802 0.586,4.595 0,1.793 -0.224,3.418 -0.586,4.595 -0.362,1.177 -0.862,1.905 -1.414,1.905 -0.552,0 -1.052,-0.728 -1.414,-1.905 C 71.224,170.418 71,168.793 71,167 c 0,-1.793 0.224,-3.418 0.586,-4.595 0.362,-1.177 0.862,-1.905 1.414,-1.905 z"
       transform="matrix(-0.0178634,0.36521432,-0.34054422,-0.01915748,75.45,5.9)" />
    <path
       id="path168"
       fill="#00ff55"
       stroke="#000000"
       stroke-width="2"
       d="m 73,160.5 c 0.552,0 1.052,0.728 1.414,1.905 0.362,1.177 0.586,2.802 0.586,4.595 0,1.793 -0.224,3.418 -0.586,4.595 -0.362,1.177 -0.862,1.905 -1.414,1.905 -0.552,0 -1.052,-0.728 -1.414,-1.905 C 71.224,170.418 71,168.793 71,167 c 0,-1.793 0.224,-3.418 0.586,-4.595 0.362,-1.177 0.862,-1.905 1.414,-1.905 z"
       transform="matrix(0.23934579,0.26050231,-0.24290545,0.25668475,39.35,-35.2)" />
  </g>
  <g
     id="g184"
     transform="translate(-2.0408761,-0.91967236)">
    <path
       id="path172"
       fill="#ffff00"
       stroke="#000000"
       stroke-width="2"
       d="m 74.5,173.5 c 0.828,0 1.578,0.336 2.121,0.879 0.543,0.543 0.879,1.293 0.879,2.121 0,0.828 -0.336,1.578 -0.879,2.121 -0.543,0.543 -1.293,0.879 -2.121,0.879 -0.828,0 -1.578,-0.336 -2.121,-0.879 -0.543,-0.543 -0.879,-1.293 -0.879,-2.121 0,-0.828 0.336,-1.578 0.879,-2.121 0.543,-0.543 1.293,-0.879 2.121,-0.879 z"
       transform="matrix(-0.3403368,0.0214551,0.02681888,0.42542103,87.85,-39.5)" />
    <path
       id="path174"
       fill="#00ff55"
       stroke="#000000"
       stroke-width="2"
       d="m 73,160.5 c 0.552,0 1.052,0.728 1.414,1.905 0.362,1.177 0.586,2.802 0.586,4.595 0,1.793 -0.224,3.418 -0.586,4.595 -0.362,1.177 -0.862,1.905 -1.414,1.905 -0.552,0 -1.052,-0.728 -1.414,-1.905 C 71.224,170.418 71,168.793 71,167 c 0,-1.793 0.224,-3.418 0.586,-4.595 0.362,-1.177 0.862,-1.905 1.414,-1.905 z"
       transform="matrix(-0.3403368,0.0214551,0.02681888,0.42542103,87.5,-39.7)" />
    <path
       id="path176"
       fill="#00ff55"
       stroke="#000000"
       stroke-width="2"
       d="m 73,160.5 c 0.552,0 1.052,0.728 1.414,1.905 0.362,1.177 0.586,2.802 0.586,4.595 0,1.793 -0.224,3.418 -0.586,4.595 -0.362,1.177 -0.862,1.905 -1.414,1.905 -0.552,0 -1.052,-0.728 -1.414,-1.905 C 71.224,170.418 71,168.793 71,167 c 0,-1.793 0.224,-3.418 0.586,-4.595 0.362,-1.177 0.862,-1.905 1.414,-1.905 z"
       transform="matrix(-0.21976833,0.31808895,0.26124755,0.2833069,37.1,-36.4)" />
    <path
       id="path178"
       fill="#00ff55"
       stroke="#000000"
       stroke-width="2"
       d="m 73,160.5 c 0.552,0 1.052,0.728 1.414,1.905 0.362,1.177 0.586,2.802 0.586,4.595 0,1.793 -0.224,3.418 -0.586,4.595 -0.362,1.177 -0.862,1.905 -1.414,1.905 -0.552,0 -1.052,-0.728 -1.414,-1.905 C 71.224,170.418 71,168.793 71,167 c 0,-1.793 0.224,-3.418 0.586,-4.595 0.362,-1.177 0.862,-1.905 1.414,-1.905 z"
       transform="matrix(0.04461006,0.42371303,0.33846468,-0.04371065,4.2,13.65)" />
    <path
       id="path180"
       fill="#00ff55"
       stroke="#000000"
       stroke-width="2"
       d="m 73,160.5 c 0.552,0 1.052,0.728 1.414,1.905 0.362,1.177 0.586,2.802 0.586,4.595 0,1.793 -0.224,3.418 -0.586,4.595 -0.362,1.177 -0.862,1.905 -1.414,1.905 -0.552,0 -1.052,-0.728 -1.414,-1.905 C 71.224,170.418 71,168.793 71,167 c 0,-1.793 0.224,-3.418 0.586,-4.595 0.362,-1.177 0.862,-1.905 1.414,-1.905 z"
       transform="matrix(0.34124395,0.02455842,0.01004828,-0.42525315,40.8,110.55)" />
    <path
       id="path182"
       fill="#00ff55"
       stroke="#000000"
       stroke-width="2"
       d="m 73,160.5 c 0.552,0 1.052,0.728 1.414,1.905 0.362,1.177 0.586,2.802 0.586,4.595 0,1.793 -0.224,3.418 -0.586,4.595 -0.362,1.177 -0.862,1.905 -1.414,1.905 -0.552,0 -1.052,-0.728 -1.414,-1.905 C 71.224,170.418 71,168.793 71,167 c 0,-1.793 0.224,-3.418 0.586,-4.595 0.362,-1.177 0.862,-1.905 1.414,-1.905 z"
       transform="matrix(0.23235084,0.32014748,0.25012296,-0.28097856,6.2,63.45)" />
  </g>
</svg>
