<svg version="1.1" width="79" height="110" viewBox="5 -1 79 110" xmlns="http://www.w3.org/2000/svg" xmlns:xlink="http://www.w3.org/1999/xlink">
  <!-- Exported by Scratch - http://scratch.mit.edu/ -->
  <g id="ID0.543725757393986">
    <g id="ID0.08513205265626311">
      <path id="ID0.8950433996506035" fill="#FF0000" stroke="#000000" stroke-width="1" stroke-linecap="round" d="M 83 255.750 C 86.335 255.825 88.666 260.308 89.400 263.600 C 90.666 269.271 89.123 275.214 88.900 281 C 88.690 283.642 88.321 286.266 88.100 288.900 C 87.785 292.695 87.192 296.379 87.050 300.100 C 87.024 302.773 87.546 305.397 87.600 308.050 C 87.671 311.681 87.479 315.024 87.550 318.500 C 87.593 320.452 89.702 323.041 88.400 324.550 C 86.327 326.504 82.722 326.175 80 326.250 C 79.318 326.269 79.472 325.140 79.500 324.550 C 79.611 322.318 80.205 320.165 79.850 318 C 79.369 310.948 78.099 303.971 77 297 C 76.266 292.344 75.101 287.660 74.900 283 C 74.884 276.327 74.549 269.396 76.350 263.150 C 77.267 259.967 79.733 255.678 83 255.750 Z " transform="matrix(-1.2398585081100464, 0.2504478096961975, 0.248686283826828, 1.3734828233718872, 100.35, -366.8)"/>
    </g>
    <path id="ID0.8537395023740828" fill="#FFFFFF" stroke="#000000" stroke-width="2" stroke-linecap="round" d="M 151 68.450 C 161.471 64.504 177.703 63.513 184.500 72.450 C 192.847 83.427 184.718 100.093 185.600 113.850 C 185.775 117.304 187.156 118.760 187.500 121.300 C 187.821 123.676 187.546 124.358 187.500 128.500 C 187.140 138.578 186.540 148.679 186 158.750 C 185.432 169.424 185.787 179.622 184 189.600 C 183.565 192.400 182.210 189.333 180.750 188.950 C 175.501 187.673 170.116 186.535 164.750 186 C 156.036 185.131 147.234 185.064 138.500 184.400 C 136.317 184.234 135.538 186.312 135.350 184.200 C 134.600 175.751 135.703 167.280 136.500 158.750 C 137.753 145.335 140.262 132.016 141.500 118.600 C 142.430 108.526 141.108 98.124 143 88.150 C 144.326 81.171 144.342 70.985 151 68.450 Z " transform="matrix(-0.8573749661445618, 0, 0, 0.7733373641967773, 186.95, -49)"/>
    <g id="ID0.08513205265626311">
      <path id="ID0.8950433996506035" fill="#FF0000" stroke="#000000" stroke-width="1" stroke-linecap="round" d="M 83 255.750 C 86.335 255.825 88.666 260.308 89.400 263.600 C 90.666 269.271 89.123 275.214 88.900 281 C 88.690 283.642 88.321 286.266 88.100 288.900 C 87.785 292.695 87.192 296.379 87.050 300.100 C 87.024 302.773 87.323 305.439 87.600 308.050 C 88.119 313.192 88.837 318.206 89.650 323.450 C 89.853 324.761 90.746 324.456 90.050 324.700 C 86.733 325.615 83.285 326.290 80 326.250 C 79.180 326.236 79.797 326.293 79.500 324.550 C 78.563 317.584 77.677 310.569 76.800 303.600 C 75.871 296.219 74.542 289.511 74.300 281.400 C 74.134 275.295 74.392 268.934 76.350 263.150 C 77.420 260.005 79.733 255.678 83 255.750 Z " transform="matrix(1.2398585081100464, 0.2626034617424011, -0.248686283826828, 1.4401456117630005, -9.65, -383.65)"/>
    </g>
  </g>
</svg>