<?xml version="1.0" encoding="UTF-8" standalone="no"?>
<svg
   version="1.1"
   width="67.245766"
   height="98.376213"
   viewBox="0 0 67.245766 98.376213"
   id="svg8"
   sodipodi:docname="shirt-a.svg"
   xmlns:inkscape="http://www.inkscape.org/namespaces/inkscape"
   xmlns:sodipodi="http://sodipodi.sourceforge.net/DTD/sodipodi-0.dtd"
   xmlns="http://www.w3.org/2000/svg"
   xmlns:svg="http://www.w3.org/2000/svg">
  <defs
     id="defs12" />
  <sodipodi:namedview
     id="namedview10"
     pagecolor="#ffffff"
     bordercolor="#000000"
     borderopacity="0.25"
     inkscape:showpageshadow="2"
     inkscape:pageopacity="0.0"
     inkscape:pagecheckerboard="0"
     inkscape:deskcolor="#d1d1d1" />
  <!-- Exported by Scratch - http://scratch.mit.edu/ -->
  <g
     id="ID0.491726438049227"
     transform="translate(-2.0408761,-0.91967236)">
    <path
       id="ID0.8950433996506035"
       fill="#006666"
       stroke="#000000"
       stroke-width="1"
       stroke-linecap="round"
       d="m 80.4,254.6 c 3.756,-0.446 8.316,3.338 9.35,6.65 2.204,6.891 2.527,14.651 0.5,21.75 -0.65,2.277 -4.647,1.516 -7,1.25 -2.885,-0.331 -6.922,-0.14 -7.75,-2.75 -1.849,-5.83 -0.05,-12.14 1.25,-18 0.713,-3.199 0.937,-8.216 3.65,-8.9 z"
       transform="matrix(1.2327666,-0.29410258,0.39251405,1.4077631,-153.7,-330.1)" />
    <path
       id="ID0.8537395023740828"
       fill="#ffffff"
       stroke="#000000"
       stroke-width="2"
       stroke-linecap="round"
       d="m 151,68.45 c 10.471,-3.946 26.703,-4.937 33.5,4 8.347,10.977 0.218,27.643 1.1,41.4 0.175,3.454 1.556,4.91 1.9,7.45 0.321,2.376 0.046,3.058 0,7.2 -0.36,10.078 -0.96,20.179 -1.5,30.25 -0.568,10.674 -0.213,20.872 -2,30.85 -0.435,2.8 -1.79,-0.267 -3.25,-0.65 -5.249,-1.277 -10.634,-2.415 -16,-2.95 -8.714,-0.869 -17.516,-0.936 -26.25,-1.6 -2.183,-0.166 -2.962,1.912 -3.15,-0.2 -0.75,-8.449 0.353,-16.92 1.15,-25.45 1.253,-13.415 3.762,-26.734 5,-40.15 0.93,-10.074 -0.392,-20.476 1.5,-30.45 1.326,-6.979 1.342,-17.165 8,-19.7 z"
       transform="matrix(-0.85737497,0,0,0.77333736,176.95,-49)" />
    <g
       id="ID0.08513205265626311">
      <path
         id="path4"
         fill="#006666"
         stroke="#000000"
         stroke-width="1"
         stroke-linecap="round"
         d="m 83,255.75 c 2.817,-0.564 6.068,2.632 6.75,5.5 1.932,6.959 2.527,14.651 0.5,21.75 -0.65,2.277 -4.647,1.516 -7,1.25 -2.885,-0.331 -6.922,-0.14 -7.75,-2.75 -1.849,-5.83 -0.395,-12.224 1.25,-18 0.947,-3.352 3.003,-7.1 6.25,-7.75 z"
         transform="matrix(1.2398585,0.26260346,-0.24868628,1.4401456,-20.8,-383.8)" />
    </g>
  </g>
</svg>
