<?xml version="1.0" encoding="UTF-8" standalone="no"?>
<svg
   version="1.1"
   width="67.166908"
   height="37.368362"
   viewBox="4 3 67.166908 37.368362"
   id="svg41"
   sodipodi:docname="shoes1.svg"
   xmlns:inkscape="http://www.inkscape.org/namespaces/inkscape"
   xmlns:sodipodi="http://sodipodi.sourceforge.net/DTD/sodipodi-0.dtd"
   xmlns="http://www.w3.org/2000/svg"
   xmlns:svg="http://www.w3.org/2000/svg">
  <defs
     id="defs45" />
  <sodipodi:namedview
     id="namedview43"
     pagecolor="#ffffff"
     bordercolor="#000000"
     borderopacity="0.25"
     inkscape:showpageshadow="2"
     inkscape:pageopacity="0.0"
     inkscape:pagecheckerboard="0"
     inkscape:deskcolor="#d1d1d1" />
  <!-- Exported by Scratch - http://scratch.mit.edu/ -->
  <g
     id="ID0.5856816666200757"
     transform="matrix(0.94999999,0,0,0.94999999,-1.5839818,-0.88151083)">
    <path
       id="ID0.966071086935699"
       fill="#000000"
       stroke="#000000"
       stroke-width="2"
       stroke-linecap="round"
       d="m 150.75,332.5 -9.75,12.25 4.75,1.25 6.5,-6.75 z"
       transform="matrix(-0.85737497,0,0,0.85737497,137.35,-263.8)" />
    <path
       id="ID0.28506059385836124"
       fill="#666666"
       stroke="#000000"
       stroke-width="2"
       d="m 127.45,271.15 c 3.803,0.08 7.157,1.236 10.6,0.8 1.411,-0.067 2.1,-2.877 3.25,-2.25 2.562,1.514 2.675,4.764 4.6,6.8 1.772,1.661 4.638,1.988 6.3,4.1 0.53,0.677 -0.714,1.532 -1.05,2.3 -1.132,2.545 -1.994,5.32 -3.75,7.5 -0.658,0.79 -1.76,0.73 -3.25,1.05 -5.455,0.941 -11.003,2.528 -16.65,2.55 -4.702,0.019 -9.906,-0.339 -13.85,-2.7 -3.45,-2.328 -6.558,-6.4 -6.65,-10.3 -0.083,-3.647 2.697,-7.527 6,-9.2 4.246,-2.122 9.635,-0.742 14.45,-0.65 z"
       transform="matrix(-0.68840301,-0.51107049,-0.51107049,0.68840301,257.1,-99.9)" />
    <path
       id="path4"
       fill="#7f7f7f"
       stroke="#000000"
       stroke-width="2"
       d="m 127.45,271.15 c 3.803,0.08 7.132,1.505 10.6,0.8 1.994,-0.407 2.841,-3.392 4.85,-3.9 0.979,-0.246 0.862,1.727 1.5,2.2 2.177,1.193 4.928,1.294 6.7,2.65 1.258,0.999 1.792,2.761 2.55,4.1 0.529,0.903 1.425,1.967 1.05,2.95 -1.451,3.8 -3.518,7.612 -6.25,10.5 -1.356,1.434 -3.743,1.28 -5.7,1.65 -5.88,1.041 -11.971,3.078 -18.05,2.75 -4.61,-0.266 -9.63,-1.566 -13.25,-4.5 -3.354,-2.912 -6.58,-7.373 -6.25,-11.85 0.284,-3.397 4.562,-5.551 7.8,-6.7 4.538,-1.607 9.635,-0.742 14.45,-0.65 z"
       transform="matrix(-0.6246379,-0.46373126,-0.44827357,0.60381663,231.25,-83.95)" />
    <path
       id="ID0.868237994145602"
       fill="none"
       stroke="#000000"
       stroke-width="2"
       stroke-linecap="round"
       d="M 136.5,326.9 Z"
       transform="matrix(-0.85737497,0,0,0.85737497,137.15,-264)" />
    <path
       id="ID0.9931649724021554"
       fill="none"
       stroke="#000000"
       stroke-width="1"
       stroke-linecap="round"
       d="m 126.25,331 3.5,1.25 6.5,-5.5 -0.75,-6"
       transform="matrix(-0.85737497,0,0,0.85737497,137.15,-264)" />
    <path
       id="ID0.7034772103652358"
       fill="none"
       stroke="#000000"
       stroke-width="1"
       stroke-linecap="round"
       d="m 141.75,343.25 -4.5,-6.25 7.5,-7.5 4,-6"
       transform="matrix(-0.85737497,0,0,0.85737497,137.15,-264)" />
    <g
       id="ID0.7672867947258055">
      <path
         id="ID0.485372981056571"
         fill="none"
         stroke="#000000"
         stroke-width="1"
         d="m 135.45,336.6 c 0.469,0 0.894,0.185 1.202,0.484 0.308,0.298 0.498,0.711 0.498,1.166 0,0.455 -0.19,0.868 -0.498,1.166 -0.308,0.299 -0.733,0.484 -1.202,0.484 -0.469,0 -0.894,-0.185 -1.202,-0.484 -0.308,-0.298 -0.498,-0.711 -0.498,-1.166 0,-0.455 0.19,-0.868 0.498,-1.166 0.308,-0.299 0.733,-0.484 1.202,-0.484 z"
         transform="matrix(-0.75994599,0,0,0.75994599,121.05,-233.45)" />
      <path
         id="path10"
         fill="none"
         stroke="#000000"
         stroke-width="1"
         d="m 135.45,336.6 c 0.469,0 0.894,0.185 1.202,0.484 0.308,0.298 0.498,0.711 0.498,1.166 0,0.455 -0.19,0.868 -0.498,1.166 -0.308,0.299 -0.733,0.484 -1.202,0.484 -0.469,0 -0.894,-0.185 -1.202,-0.484 -0.308,-0.298 -0.498,-0.711 -0.498,-1.166 0,-0.455 0.19,-0.868 0.498,-1.166 0.308,-0.299 0.733,-0.484 1.202,-0.484 z"
         transform="matrix(-0.75994599,0,0,0.75994599,118.05,-236.15)" />
      <path
         id="path12"
         fill="none"
         stroke="#000000"
         stroke-width="1"
         d="m 135.45,336.6 c 0.469,0 0.894,0.185 1.202,0.484 0.308,0.298 0.498,0.711 0.498,1.166 0,0.455 -0.19,0.868 -0.498,1.166 -0.308,0.299 -0.733,0.484 -1.202,0.484 -0.469,0 -0.894,-0.185 -1.202,-0.484 -0.308,-0.298 -0.498,-0.711 -0.498,-1.166 0,-0.455 0.19,-0.868 0.498,-1.166 0.308,-0.299 0.733,-0.484 1.202,-0.484 z"
         transform="matrix(-0.75994599,0,0,0.75994599,124.85,-240.4)" />
      <path
         id="path14"
         fill="none"
         stroke="#000000"
         stroke-width="1"
         stroke-linecap="round"
         d="m 135.45,336.6 c 0.469,0 0.894,0.185 1.202,0.484 0.308,0.298 0.498,0.711 0.498,1.166 0,0.455 -0.19,0.868 -0.498,1.166 -0.308,0.299 -0.733,0.484 -1.202,0.484 -0.469,0 -0.894,-0.185 -1.202,-0.484 -0.308,-0.298 -0.498,-0.711 -0.498,-1.166 0,-0.455 0.19,-0.868 0.498,-1.166 0.308,-0.299 0.733,-0.484 1.202,-0.484 z"
         transform="matrix(-0.75994599,0,0,0.75994599,128.05,-237.75)" />
    </g>
    <path
       id="ID0.5520394304767251"
       fill="none"
       stroke="#000000"
       stroke-width="1"
       stroke-linecap="round"
       d="m 138.9,335.4 -8.3,-5.1"
       transform="matrix(-0.85737497,0,0,0.85737497,137.15,-264)" />
    <path
       id="ID0.5189701002091169"
       fill="none"
       stroke="#000000"
       stroke-width="1"
       stroke-linecap="round"
       d="m 142.4,332.25 -8,-4.85"
       transform="matrix(-0.85737497,0,0,0.85737497,137.15,-264)" />
    <path
       id="path19"
       fill="#666666"
       stroke="#000000"
       stroke-width="2"
       d="m 127.45,271.15 c 3.803,0.08 7.157,1.236 10.6,0.8 1.411,-0.067 2.1,-2.877 3.25,-2.25 2.562,1.514 2.537,5.01 4.6,6.8 1.624,1.405 4.679,0.484 6.25,2 0.784,0.768 -0.742,2.011 -1.2,3 -1.258,3.624 -2.407,7.334 -3.95,10.85 -0.389,0.884 -0.389,1.227 -0.75,1.35 -2.024,0.259 -3.979,0.055 -5.7,-0.3 -0.42,-0.087 0.523,-1.049 -0.55,-1.1 -4.298,-0.211 -8.809,0.484 -13.2,0.2 -3.289,-0.207 -6.674,-0.473 -9.85,-1.5 -2.774,-1.058 -5.855,-2.301 -7.7,-4.65 -1.671,-2.132 -2.644,-5.426 -1.95,-7.9 0.793,-2.805 2.892,-5.596 5.7,-6.65 4.511,-1.685 9.635,-0.742 14.45,-0.65 z"
       transform="matrix(-0.76943302,-0.37823886,-0.37823886,0.76943302,263.45,-147.65)" />
    <path
       id="path21"
       fill="#7f7f7f"
       stroke="#000000"
       stroke-width="2"
       d="m 127.45,271.15 c 3.803,0.08 7.102,1.315 10.6,0.8 1.137,-0.172 0.775,-2.784 1.95,-3.1 1.783,-0.471 3.872,0.006 5.3,1.1 1.492,1.128 1.25,3.989 2.6,5.5 1.375,1.536 4.573,0.956 5.45,2.75 0.717,1.65 -1,3.505 -1.55,5.25 -1.077,2.324 -2.188,4.697 -3.35,7 -0.467,0.905 0.957,2.435 -1,2.55 -8.339,0.66 -16.814,0.188 -24.9,-0.6 -3.548,-0.346 -7.17,-1.143 -10.35,-2.75 -2.355,-1.193 -4.538,-2.834 -5.95,-4.9 -1.173,-2.031 -2.399,-4.842 -1.4,-6.75 1.606,-3.006 4.919,-5.131 8.15,-6.2 4.571,-1.508 9.635,-0.742 14.45,-0.65 z"
       transform="matrix(-0.69816226,-0.34320351,-0.33176342,0.67489016,240.8,-127.4)" />
    <path
       id="path23"
       fill="none"
       stroke="#000000"
       stroke-width="2"
       stroke-linecap="round"
       d="M 136.5,326.9 Z"
       transform="matrix(-0.84325624,0.15495406,0.15495406,0.84325624,115.7,-287.4)" />
    <path
       id="ID0.7954719536937773"
       fill="none"
       stroke="#000000"
       stroke-width="1"
       stroke-linecap="round"
       d="m 108.05,318 -1.75,4.75 -10.55,7 2.5,8.5"
       transform="matrix(-0.85737497,0,0,0.85737497,138,-264.45)" />
    <g
       id="g34">
      <path
         id="path26"
         fill="none"
         stroke="#000000"
         stroke-width="1"
         d="m 135.45,336.6 c 0.469,0 0.894,0.185 1.202,0.484 0.308,0.298 0.498,0.711 0.498,1.166 0,0.455 -0.19,0.868 -0.498,1.166 -0.308,0.299 -0.733,0.484 -1.202,0.484 -0.469,0 -0.894,-0.185 -1.202,-0.484 -0.308,-0.298 -0.498,-0.711 -0.498,-1.166 0,-0.455 0.19,-0.868 0.498,-1.166 0.308,-0.299 0.733,-0.484 1.202,-0.484 z"
         transform="matrix(-0.74743164,0.13734564,0.13734564,0.74743164,109.1,-254.1)" />
      <path
         id="path28"
         fill="none"
         stroke="#000000"
         stroke-width="1"
         d="m 135.45,336.6 c 0.469,0 0.894,0.185 1.202,0.484 0.308,0.298 0.498,0.711 0.498,1.166 0,0.455 -0.19,0.868 -0.498,1.166 -0.308,0.299 -0.733,0.484 -1.202,0.484 -0.469,0 -0.894,-0.185 -1.202,-0.484 -0.308,-0.298 -0.498,-0.711 -0.498,-1.166 0,-0.455 0.19,-0.868 0.498,-1.166 0.308,-0.299 0.733,-0.484 1.202,-0.484 z"
         transform="matrix(-0.74743164,0.13734564,0.13734564,0.74743164,105.7,-256.2)" />
      <path
         id="path30"
         fill="none"
         stroke="#000000"
         stroke-width="1"
         d="m 135.45,336.6 c 0.469,0 0.894,0.185 1.202,0.484 0.308,0.298 0.498,0.711 0.498,1.166 0,0.455 -0.19,0.868 -0.498,1.166 -0.308,0.299 -0.733,0.484 -1.202,0.484 -0.469,0 -0.894,-0.185 -1.202,-0.484 -0.308,-0.298 -0.498,-0.711 -0.498,-1.166 0,-0.455 0.19,-0.868 0.498,-1.166 0.308,-0.299 0.733,-0.484 1.202,-0.484 z"
         transform="matrix(-0.74743164,0.13734564,0.13734564,0.74743164,111.6,-261.65)" />
      <path
         id="path32"
         fill="none"
         stroke="#000000"
         stroke-width="1"
         stroke-linecap="round"
         d="m 135.45,336.6 c 0.469,0 0.894,0.185 1.202,0.484 0.308,0.298 0.498,0.711 0.498,1.166 0,0.455 -0.19,0.868 -0.498,1.166 -0.308,0.299 -0.733,0.484 -1.202,0.484 -0.469,0 -0.894,-0.185 -1.202,-0.484 -0.308,-0.298 -0.498,-0.711 -0.498,-1.166 0,-0.455 0.19,-0.868 0.498,-1.166 0.308,-0.299 0.733,-0.484 1.202,-0.484 z"
         transform="matrix(-0.74743164,0.13734564,0.13734564,0.74743164,115.25,-259.6)" />
    </g>
    <path
       id="path36"
       fill="none"
       stroke="#000000"
       stroke-width="1"
       stroke-linecap="round"
       d="m 138.9,335.4 -8.3,-5.1"
       transform="matrix(-0.84325624,0.15495406,0.15495406,0.84325624,119.35,-287)" />
    <path
       id="path38"
       fill="none"
       stroke="#000000"
       stroke-width="1"
       stroke-linecap="round"
       d="m 142.4,332.25 -8,-4.85"
       transform="matrix(-0.84325624,0.15495406,0.15495406,0.84325624,119.35,-287)" />
  </g>
</svg>
