<?xml version="1.0" encoding="UTF-8" standalone="no"?>
<!-- Generator: Adobe Illustrator 17.0.0, SVG Export Plug-In . SVG Version: 6.00 Build 0)  -->

<svg
   version="1.1"
   id="Originals_1_"
   x="0px"
   y="0px"
   width="201.002"
   height="201"
   viewBox="0 0 201.002 201.00001"
   enable-background="new 0 0 208 207.333"
   xml:space="preserve"
   sodipodi:docname="snowflake.svg"
   xmlns:inkscape="http://www.inkscape.org/namespaces/inkscape"
   xmlns:sodipodi="http://sodipodi.sourceforge.net/DTD/sodipodi-0.dtd"
   xmlns="http://www.w3.org/2000/svg"
   xmlns:svg="http://www.w3.org/2000/svg"><defs
   id="defs20" /><sodipodi:namedview
   id="namedview18"
   pagecolor="#ffffff"
   bordercolor="#000000"
   borderopacity="0.25"
   inkscape:showpageshadow="2"
   inkscape:pageopacity="0.0"
   inkscape:pagecheckerboard="0"
   inkscape:deskcolor="#d1d1d1" />
<g
   id="Background_copy_xA0_Image_1_"
   transform="translate(-2.903,-3.5)">
	<g
   id="g14">
		<g
   opacity="0.17"
   id="g6">
			<path
   fill="#ffffff"
   d="M 203.403,102.324 H 184.48 l 16.25,-13.651 -2.152,-2.562 -17.218,14.464 v -8.086 l 6.154,-6.517 -2.57,-2.427 -6.953,7.364 0.036,0.034 v 11.381 h -24.709 l 17.074,-23.792 -0.127,0.085 0.817,-1.047 0.911,-1.27 0.662,-1.096 -1.165,-0.118 -1.543,-0.254 -0.217,0.027 -0.951,-0.219 -28.897,-4.751 17.472,-17.472 8.047,8.048 -0.001,0.05 10.124,0.29 0.101,-3.533 -8.96,-0.257 -5.718,-5.718 22.402,-1.947 -0.29,-3.333 -21.143,1.838 13.381,-13.381 -2.509,-2.509 -13.214,13.215 1.811,-20.838 -3.333,-0.29 -1.947,22.402 -5.718,-5.718 -0.257,-8.96 -3.533,0.101 0.29,10.124 0.05,-10e-4 7.908,7.908 -17.372,17.372 -4.711,-28.657 -0.219,-0.951 0.027,-0.217 -0.254,-1.543 -0.118,-1.165 -1.096,0.662 -1.27,0.911 -0.401,0.172 -0.56,0.518 -23.792,17.074 V 29.376 h 11.381 l 0.034,0.036 7.364,-6.953 -2.427,-2.57 -6.517,6.154 h -8.086 L 121.292,8.825 118.73,6.673 105.079,22.923 V 4 h -3.548 V 22.689 L 88.076,6.673 85.514,8.825 99.978,26.043 h -8.086 l -6.517,-6.154 -2.427,2.57 7.364,6.953 0.034,-0.036 h 11.184 v 24.568 l -23.595,-16.932 -0.56,-0.518 -0.401,-0.172 -1.27,-0.911 -1.096,-0.662 -0.118,1.165 -0.254,1.543 0.027,0.217 -0.219,0.951 -4.751,28.895 -17.472,-17.472 8.047,-8.047 0.05,0.001 0.29,-10.124 -3.533,-0.101 -0.257,8.96 -5.718,5.718 -1.947,-22.402 -3.333,0.29 1.838,21.143 -13.381,-13.382 -2.509,2.509 13.215,13.215 -20.838,-1.811 -0.29,3.333 22.402,1.947 -5.718,5.718 -8.96,0.257 0.101,3.533 10.124,-0.29 -0.001,-0.05 7.908,-7.908 17.372,17.372 -28.657,4.711 -0.951,0.219 -0.217,-0.027 -1.543,0.254 -1.165,0.118 0.662,1.096 0.912,1.27 0.817,1.047 -0.127,-0.085 17.074,23.792 H 28.779 V 90.943 l 0.036,-0.034 -6.953,-7.364 -2.57,2.427 6.154,6.517 v 8.086 L 8.228,86.112 6.076,88.674 22.326,102.325 H 3.403 v 3.548 h 18.689 l -16.016,13.454 2.152,2.562 17.218,-14.464 v 8.086 l -6.154,6.517 2.57,2.427 6.953,-7.364 -0.036,-0.034 v -11.184 h 24.568 l -16.932,23.595 -0.518,0.56 -0.172,0.401 -0.912,1.27 -0.662,1.096 1.165,0.118 1.543,0.254 0.217,-0.027 0.951,0.219 28.657,4.711 -17.372,17.372 -7.908,-7.908 10e-4,-0.05 -10.124,-0.29 -0.101,3.533 8.96,0.257 5.718,5.718 -22.402,1.947 0.29,3.333 20.838,-1.811 -13.215,13.215 2.509,2.509 13.381,-13.381 -1.838,21.143 3.333,0.29 1.947,-22.402 5.718,5.718 0.257,8.96 3.533,-0.101 -0.29,-10.124 -0.05,0.001 -8.047,-8.048 17.472,-17.472 4.751,28.897 0.219,0.951 -0.027,0.217 0.254,1.543 0.118,1.165 1.096,-0.662 1.27,-0.911 0.401,-0.172 0.56,-0.518 23.595,-16.932 v 24.568 H 90.346 l -0.034,-0.036 -7.364,6.953 2.427,2.57 6.517,-6.154 h 8.086 l -14.464,17.218 2.562,2.152 13.454,-16.015 V 204 h 3.548 v -18.923 l 13.651,16.25 2.562,-2.152 -14.464,-17.218 h 8.086 l 6.517,6.154 2.427,-2.57 -7.364,-6.953 -0.034,0.036 h -11.381 v -24.709 l 23.792,17.074 0.56,0.518 0.401,0.172 1.27,0.911 1.096,0.662 0.118,-1.165 0.254,-1.543 -0.027,-0.217 0.219,-0.951 4.711,-28.657 17.372,17.372 -7.908,7.908 -0.05,-0.001 -0.29,10.124 3.533,0.101 0.257,-8.96 5.718,-5.718 1.947,22.402 3.333,-0.29 -1.811,-20.838 13.215,13.215 2.509,-2.509 -13.381,-13.381 21.143,1.838 0.29,-3.333 -22.402,-1.947 5.718,-5.718 8.96,-0.257 -0.101,-3.533 -10.124,0.29 0.001,0.05 -8.047,8.048 -17.472,-17.472 28.897,-4.751 0.951,-0.219 0.217,0.027 1.543,-0.254 1.165,-0.118 -0.662,-1.096 -0.911,-1.27 -0.172,-0.401 -0.518,-0.56 -16.932,-23.595 h 24.568 v 11.184 l -0.036,0.034 6.953,7.364 2.57,-2.427 -6.154,-6.517 v -8.086 l 17.218,14.464 2.152,-2.562 -16.015,-13.454 h 18.689 v -3.549 z m -36.952,-24.44 -17.539,24.44 h -28.813 l 14.851,-9.326 1.009,-0.231 4.076,6.094 2.706,-1.81 -4.895,-7.319 -1.714,-8.637 -3.193,0.634 1.427,7.191 -0.877,0.551 -17.095,3.907 20.374,-20.374 z m -54.855,20.452 12.228,-2.794 -10.622,6.67 0.071,0.113 h -0.192 -5.632 l 3.982,-3.982 v 0 l 0.136,-0.136 z m -2.675,-2.503 v 0 l -3.843,3.843 V 94.323 94.13 l 0.113,0.071 6.67,-10.622 -2.759,12.073 z m -7.391,-1.51 v 5.435 l -3.921,-3.921 0.13,-0.03 -2.794,-12.228 6.586,10.488 v 0.256 z m -2.451,8.001 h -5.353 -0.192 l 0.071,-0.113 -10.622,-6.67 12.072,2.759 z m -5.354,3.549 h 5.156 l -3.827,3.827 -12.073,2.759 10.488,-6.586 z m 7.805,2.369 v 5.435 0.256 l -6.586,10.488 2.794,-12.228 -0.13,-0.03 z m 3.548,5.435 v -5.353 l 3.843,3.843 v 0 l 0.181,0.181 2.759,12.073 -6.67,-10.622 -0.113,0.071 z m 6.489,-3.883 -0.136,-0.136 v 0 l -3.785,-3.785 h 5.435 0.256 l 10.488,6.586 -12.228,-2.794 z m 17.951,-68.842 4.841,29.444 -20.252,20.252 3.824,-16.734 0.551,-0.877 7.191,1.427 0.634,-3.193 -8.637,-1.714 -7.319,-4.895 -1.81,2.706 6.094,4.076 -0.231,1.009 -9.326,14.851 V 58.49 Z m -52.231,0 24.243,17.397 V 86.99 l -9.129,-14.537 -0.231,-1.009 6.094,-4.076 -1.81,-2.706 -7.319,4.895 -8.637,1.714 0.634,3.193 7.191,-1.427 0.551,0.877 3.907,17.095 L 72.407,70.635 Z M 40.354,77.884 69.798,73.043 90.05,93.295 73.316,89.471 72.439,88.92 l 1.427,-7.191 -3.193,-0.634 -1.714,8.637 -4.895,7.319 2.706,1.81 4.076,-6.094 1.009,0.231 14.851,9.326 H 57.893 Z m 0,52.232 17.397,-24.243 h 28.641 l -14.537,9.129 -1.009,0.231 -4.076,-6.094 -2.706,1.81 4.895,7.319 1.714,8.637 3.193,-0.634 -1.427,-7.191 0.877,-0.551 16.734,-3.824 -20.252,20.252 z m 36.933,36.932 -4.88,-29.683 20.374,-20.374 -3.907,17.095 -0.551,0.877 -7.191,-1.427 -0.634,3.193 8.637,1.714 7.319,4.895 1.81,-2.706 -6.094,-4.076 0.231,-1.009 9.129,-14.537 v 28.641 z m 52.231,0 -24.44,-17.539 v -28.813 l 9.326,14.851 0.231,1.009 -6.094,4.076 1.81,2.706 7.319,-4.895 8.637,-1.714 -0.634,-3.193 -7.191,1.427 -0.551,-0.877 -3.824,-16.734 20.252,20.252 z m 36.933,-36.932 -29.683,4.88 -20.374,-20.374 17.095,3.907 0.877,0.551 -1.427,7.191 3.193,0.634 1.714,-8.637 4.895,-7.319 -2.706,-1.81 -4.076,6.094 -1.009,-0.231 -14.537,-9.129 h 28.641 z"
   id="path2" />
			<path
   fill="none"
   stroke="#ffffff"
   stroke-miterlimit="10"
   d="M 203.403,102.324 H 184.48 l 16.25,-13.651 -2.152,-2.562 -17.218,14.464 v -8.086 l 6.154,-6.517 -2.57,-2.427 -6.953,7.364 0.036,0.034 v 11.381 h -24.709 l 17.074,-23.792 -0.127,0.085 0.817,-1.047 0.911,-1.27 0.662,-1.096 -1.165,-0.118 -1.543,-0.254 -0.217,0.027 -0.951,-0.219 -28.897,-4.751 17.472,-17.472 8.047,8.048 -0.001,0.05 10.124,0.29 0.101,-3.533 -8.96,-0.257 -5.718,-5.718 22.402,-1.947 -0.29,-3.333 -21.143,1.838 13.381,-13.381 -2.509,-2.509 -13.214,13.215 1.811,-20.838 -3.333,-0.29 -1.947,22.402 -5.718,-5.718 -0.257,-8.96 -3.533,0.101 0.29,10.124 0.05,-10e-4 7.908,7.908 -17.372,17.372 -4.711,-28.657 -0.219,-0.951 0.027,-0.217 -0.254,-1.543 -0.118,-1.165 -1.096,0.662 -1.27,0.911 -0.401,0.172 -0.56,0.518 -23.792,17.074 V 29.376 h 11.381 l 0.034,0.036 7.364,-6.953 -2.427,-2.57 -6.517,6.154 h -8.086 L 121.292,8.825 118.73,6.673 105.079,22.923 V 4 h -3.548 V 22.689 L 88.076,6.673 85.514,8.825 99.978,26.043 h -8.086 l -6.517,-6.154 -2.427,2.57 7.364,6.953 0.034,-0.036 h 11.184 v 24.568 l -23.595,-16.932 -0.56,-0.518 -0.401,-0.172 -1.27,-0.911 -1.096,-0.662 -0.118,1.165 -0.254,1.543 0.027,0.217 -0.219,0.951 -4.751,28.895 -17.472,-17.472 8.047,-8.047 0.05,0.001 0.29,-10.124 -3.533,-0.101 -0.257,8.96 -5.718,5.718 -1.947,-22.402 -3.333,0.29 1.838,21.143 -13.381,-13.382 -2.509,2.509 13.215,13.215 -20.838,-1.811 -0.29,3.333 22.402,1.947 -5.718,5.718 -8.96,0.257 0.101,3.533 10.124,-0.29 -0.001,-0.05 7.908,-7.908 17.372,17.372 -28.657,4.711 -0.951,0.219 -0.217,-0.027 -1.543,0.254 -1.165,0.118 0.662,1.096 0.912,1.27 0.817,1.047 -0.127,-0.085 17.074,23.792 H 28.779 V 90.943 l 0.036,-0.034 -6.953,-7.364 -2.57,2.427 6.154,6.517 v 8.086 L 8.228,86.112 6.076,88.674 22.326,102.325 H 3.403 v 3.548 h 18.689 l -16.016,13.454 2.152,2.562 17.218,-14.464 v 8.086 l -6.154,6.517 2.57,2.427 6.953,-7.364 -0.036,-0.034 v -11.184 h 24.568 l -16.932,23.595 -0.518,0.56 -0.172,0.401 -0.912,1.27 -0.662,1.096 1.165,0.118 1.543,0.254 0.217,-0.027 0.951,0.219 28.657,4.711 -17.372,17.372 -7.908,-7.908 10e-4,-0.05 -10.124,-0.29 -0.101,3.533 8.96,0.257 5.718,5.718 -22.402,1.947 0.29,3.333 20.838,-1.811 -13.215,13.215 2.509,2.509 13.381,-13.381 -1.838,21.143 3.333,0.29 1.947,-22.402 5.718,5.718 0.257,8.96 3.533,-0.101 -0.29,-10.124 -0.05,0.001 -8.047,-8.048 17.472,-17.472 4.751,28.897 0.219,0.951 -0.027,0.217 0.254,1.543 0.118,1.165 1.096,-0.662 1.27,-0.911 0.401,-0.172 0.56,-0.518 23.595,-16.932 v 24.568 H 90.346 l -0.034,-0.036 -7.364,6.953 2.427,2.57 6.517,-6.154 h 8.086 l -14.464,17.218 2.562,2.152 13.454,-16.015 V 204 h 3.548 v -18.923 l 13.651,16.25 2.562,-2.152 -14.464,-17.218 h 8.086 l 6.517,6.154 2.427,-2.57 -7.364,-6.953 -0.034,0.036 h -11.381 v -24.709 l 23.792,17.074 0.56,0.518 0.401,0.172 1.27,0.911 1.096,0.662 0.118,-1.165 0.254,-1.543 -0.027,-0.217 0.219,-0.951 4.711,-28.657 17.372,17.372 -7.908,7.908 -0.05,-0.001 -0.29,10.124 3.533,0.101 0.257,-8.96 5.718,-5.718 1.947,22.402 3.333,-0.29 -1.811,-20.838 13.215,13.215 2.509,-2.509 -13.381,-13.381 21.143,1.838 0.29,-3.333 -22.402,-1.947 5.718,-5.718 8.96,-0.257 -0.101,-3.533 -10.124,0.29 0.001,0.05 -8.047,8.048 -17.472,-17.472 28.897,-4.751 0.951,-0.219 0.217,0.027 1.543,-0.254 1.165,-0.118 -0.662,-1.096 -0.911,-1.27 -0.172,-0.401 -0.518,-0.56 -16.932,-23.595 h 24.568 v 11.184 l -0.036,0.034 6.953,7.364 2.57,-2.427 -6.154,-6.517 v -8.086 l 17.218,14.464 2.152,-2.562 -16.015,-13.454 h 18.689 v -3.549 z m -36.952,-24.44 -17.539,24.44 h -28.813 l 14.851,-9.326 1.009,-0.231 4.076,6.094 2.706,-1.81 -4.895,-7.319 -1.714,-8.637 -3.193,0.634 1.427,7.191 -0.877,0.551 -17.095,3.907 20.374,-20.374 z m -54.855,20.452 12.228,-2.794 -10.622,6.67 0.071,0.113 h -0.192 -5.632 l 3.982,-3.982 v 0 l 0.136,-0.136 z m -2.675,-2.503 v 0 l -3.843,3.843 V 94.323 94.13 l 0.113,0.071 6.67,-10.622 -2.759,12.073 z m -7.391,-1.51 v 5.435 l -3.921,-3.921 0.13,-0.03 -2.794,-12.228 6.586,10.488 v 0.256 z m -2.451,8.001 h -5.353 -0.192 l 0.071,-0.113 -10.622,-6.67 12.072,2.759 z m -5.354,3.549 h 5.156 l -3.827,3.827 -12.073,2.759 10.488,-6.586 z m 7.805,2.369 v 5.435 0.256 l -6.586,10.488 2.794,-12.228 -0.13,-0.03 z m 3.548,5.435 v -5.353 l 3.843,3.843 v 0 l 0.181,0.181 2.759,12.073 -6.67,-10.622 -0.113,0.071 z m 6.489,-3.883 -0.136,-0.136 v 0 l -3.785,-3.785 h 5.435 0.256 l 10.488,6.586 -12.228,-2.794 z m 17.951,-68.842 4.841,29.444 -20.252,20.252 3.824,-16.734 0.551,-0.877 7.191,1.427 0.634,-3.193 -8.637,-1.714 -7.319,-4.895 -1.81,2.706 6.094,4.076 -0.231,1.009 -9.326,14.851 V 58.49 Z m -52.231,0 24.243,17.397 V 86.99 l -9.129,-14.537 -0.231,-1.009 6.094,-4.076 -1.81,-2.706 -7.319,4.895 -8.637,1.714 0.634,3.193 7.191,-1.427 0.551,0.877 3.907,17.095 L 72.407,70.635 Z M 40.354,77.884 69.798,73.043 90.05,93.295 73.316,89.471 72.439,88.92 l 1.427,-7.191 -3.193,-0.634 -1.714,8.637 -4.895,7.319 2.706,1.81 4.076,-6.094 1.009,0.231 14.851,9.326 H 57.893 Z m 0,52.232 17.397,-24.243 h 28.641 l -14.537,9.129 -1.009,0.231 -4.076,-6.094 -2.706,1.81 4.895,7.319 1.714,8.637 3.193,-0.634 -1.427,-7.191 0.877,-0.551 16.734,-3.824 -20.252,20.252 z m 36.933,36.932 -4.88,-29.683 20.374,-20.374 -3.907,17.095 -0.551,0.877 -7.191,-1.427 -0.634,3.193 8.637,1.714 7.319,4.895 1.81,-2.706 -6.094,-4.076 0.231,-1.009 9.129,-14.537 v 28.641 z m 52.231,0 -24.44,-17.539 v -28.813 l 9.326,14.851 0.231,1.009 -6.094,4.076 1.81,2.706 7.319,-4.895 8.637,-1.714 -0.634,-3.193 -7.191,1.427 -0.551,-0.877 -3.824,-16.734 20.252,20.252 z m 36.933,-36.932 -29.683,4.88 -20.374,-20.374 17.095,3.907 0.877,0.551 -1.427,7.191 3.193,0.634 1.714,-8.637 4.895,-7.319 -2.706,-1.81 -4.076,6.094 -1.009,-0.231 -14.537,-9.129 h 28.641 z"
   id="path4" />
		</g>
		<g
   id="g12">
			<path
   fill="#bee4fa"
   d="M 203.403,102.324 H 184.48 l 16.25,-13.651 -2.152,-2.562 -17.218,14.464 v -8.086 l 6.154,-6.517 -2.57,-2.427 -6.953,7.364 0.036,0.034 v 11.381 h -24.709 l 17.074,-23.792 -0.127,0.085 0.817,-1.047 0.911,-1.27 0.662,-1.096 -1.165,-0.118 -1.543,-0.254 -0.217,0.027 -0.951,-0.219 -28.897,-4.751 17.472,-17.472 8.047,8.048 -0.001,0.05 10.124,0.29 0.101,-3.533 -8.96,-0.257 -5.718,-5.718 22.402,-1.947 -0.29,-3.333 -21.143,1.838 13.381,-13.381 -2.509,-2.509 -13.214,13.215 1.811,-20.838 -3.333,-0.29 -1.947,22.402 -5.718,-5.718 -0.257,-8.96 -3.533,0.101 0.29,10.124 0.05,-10e-4 7.908,7.908 -17.372,17.372 -4.711,-28.657 -0.219,-0.951 0.027,-0.217 -0.254,-1.543 -0.118,-1.165 -1.096,0.662 -1.27,0.911 -0.401,0.172 -0.56,0.518 -23.792,17.074 V 29.376 h 11.381 l 0.034,0.036 7.364,-6.953 -2.427,-2.57 -6.517,6.154 h -8.086 L 121.292,8.825 118.73,6.673 105.079,22.923 V 4 h -3.548 V 22.689 L 88.076,6.673 85.514,8.825 99.978,26.043 h -8.086 l -6.517,-6.154 -2.427,2.57 7.364,6.953 0.034,-0.036 h 11.184 v 24.568 l -23.595,-16.932 -0.56,-0.518 -0.401,-0.172 -1.27,-0.911 -1.096,-0.662 -0.118,1.165 -0.254,1.543 0.027,0.217 -0.219,0.951 -4.751,28.895 -17.472,-17.472 8.047,-8.047 0.05,0.001 0.29,-10.124 -3.533,-0.101 -0.257,8.96 -5.718,5.718 -1.947,-22.402 -3.333,0.29 1.838,21.143 -13.381,-13.382 -2.509,2.509 13.215,13.215 -20.838,-1.811 -0.29,3.333 22.402,1.947 -5.718,5.718 -8.96,0.257 0.101,3.533 10.124,-0.29 -0.001,-0.05 7.908,-7.908 17.372,17.372 -28.657,4.711 -0.951,0.219 -0.217,-0.027 -1.543,0.254 -1.165,0.118 0.662,1.096 0.912,1.27 0.817,1.047 -0.127,-0.085 17.074,23.792 H 28.779 V 90.943 l 0.036,-0.034 -6.953,-7.364 -2.57,2.427 6.154,6.517 v 8.086 L 8.228,86.112 6.076,88.674 22.326,102.325 H 3.403 v 3.548 h 18.689 l -16.016,13.454 2.152,2.562 17.218,-14.464 v 8.086 l -6.154,6.517 2.57,2.427 6.953,-7.364 -0.036,-0.034 v -11.184 h 24.568 l -16.932,23.595 -0.518,0.56 -0.172,0.401 -0.912,1.27 -0.662,1.096 1.165,0.118 1.543,0.254 0.217,-0.027 0.951,0.219 28.657,4.711 -17.372,17.372 -7.908,-7.908 10e-4,-0.05 -10.124,-0.29 -0.101,3.533 8.96,0.257 5.718,5.718 -22.402,1.947 0.29,3.333 20.838,-1.811 -13.215,13.215 2.509,2.509 13.381,-13.381 -1.838,21.143 3.333,0.29 1.947,-22.402 5.718,5.718 0.257,8.96 3.533,-0.101 -0.29,-10.124 -0.05,0.001 -8.047,-8.048 17.472,-17.472 4.751,28.897 0.219,0.951 -0.027,0.217 0.254,1.543 0.118,1.165 1.096,-0.662 1.27,-0.911 0.401,-0.172 0.56,-0.518 23.595,-16.932 v 24.568 H 90.346 l -0.034,-0.036 -7.364,6.953 2.427,2.57 6.517,-6.154 h 8.086 l -14.464,17.218 2.562,2.152 13.454,-16.015 V 204 h 3.548 v -18.923 l 13.651,16.25 2.562,-2.152 -14.464,-17.218 h 8.086 l 6.517,6.154 2.427,-2.57 -7.364,-6.953 -0.034,0.036 h -11.381 v -24.709 l 23.792,17.074 0.56,0.518 0.401,0.172 1.27,0.911 1.096,0.662 0.118,-1.165 0.254,-1.543 -0.027,-0.217 0.219,-0.951 4.711,-28.657 17.372,17.372 -7.908,7.908 -0.05,-0.001 -0.29,10.124 3.533,0.101 0.257,-8.96 5.718,-5.718 1.947,22.402 3.333,-0.29 -1.811,-20.838 13.215,13.215 2.509,-2.509 -13.381,-13.381 21.143,1.838 0.29,-3.333 -22.402,-1.947 5.718,-5.718 8.96,-0.257 -0.101,-3.533 -10.124,0.29 0.001,0.05 -8.047,8.048 -17.472,-17.472 28.897,-4.751 0.951,-0.219 0.217,0.027 1.543,-0.254 1.165,-0.118 -0.662,-1.096 -0.911,-1.27 -0.172,-0.401 -0.518,-0.56 -16.932,-23.595 h 24.568 v 11.184 l -0.036,0.034 6.953,7.364 2.57,-2.427 -6.154,-6.517 v -8.086 l 17.218,14.464 2.152,-2.562 -16.015,-13.454 h 18.689 v -3.549 z m -36.952,-24.44 -17.539,24.44 h -28.813 l 14.851,-9.326 1.009,-0.231 4.076,6.094 2.706,-1.81 -4.895,-7.319 -1.714,-8.637 -3.193,0.634 1.427,7.191 -0.877,0.551 -17.095,3.907 20.374,-20.374 z m -54.855,20.452 12.228,-2.794 -10.622,6.67 0.071,0.113 h -0.192 -5.632 l 3.982,-3.982 v 0 l 0.136,-0.136 z m -2.675,-2.503 v 0 l -3.843,3.843 V 94.323 94.13 l 0.113,0.071 6.67,-10.622 -2.759,12.073 z m -7.391,-1.51 v 5.435 l -3.921,-3.921 0.13,-0.03 -2.794,-12.228 6.586,10.488 v 0.256 z m -2.451,8.001 h -5.353 -0.192 l 0.071,-0.113 -10.622,-6.67 12.072,2.759 z m -5.354,3.549 h 5.156 l -3.827,3.827 -12.073,2.759 10.488,-6.586 z m 7.805,2.369 v 5.435 0.256 l -6.586,10.488 2.794,-12.228 -0.13,-0.03 z m 3.548,5.435 v -5.353 l 3.843,3.843 v 0 l 0.181,0.181 2.759,12.073 -6.67,-10.622 -0.113,0.071 z m 6.489,-3.883 -0.136,-0.136 v 0 l -3.785,-3.785 h 5.435 0.256 l 10.488,6.586 -12.228,-2.794 z m 17.951,-68.842 4.841,29.444 -20.252,20.252 3.824,-16.734 0.551,-0.877 7.191,1.427 0.634,-3.193 -8.637,-1.714 -7.319,-4.895 -1.81,2.706 6.094,4.076 -0.231,1.009 -9.326,14.851 V 58.49 Z m -52.231,0 24.243,17.397 V 86.99 l -9.129,-14.537 -0.231,-1.009 6.094,-4.076 -1.81,-2.706 -7.319,4.895 -8.637,1.714 0.634,3.193 7.191,-1.427 0.551,0.877 3.907,17.095 L 72.407,70.635 Z M 40.354,77.884 69.798,73.043 90.05,93.295 73.316,89.471 72.439,88.92 l 1.427,-7.191 -3.193,-0.634 -1.714,8.637 -4.895,7.319 2.706,1.81 4.076,-6.094 1.009,0.231 14.851,9.326 H 57.893 Z m 0,52.232 17.397,-24.243 h 28.641 l -14.537,9.129 -1.009,0.231 -4.076,-6.094 -2.706,1.81 4.895,7.319 1.714,8.637 3.193,-0.634 -1.427,-7.191 0.877,-0.551 16.734,-3.824 -20.252,20.252 z m 36.933,36.932 -4.88,-29.683 20.374,-20.374 -3.907,17.095 -0.551,0.877 -7.191,-1.427 -0.634,3.193 8.637,1.714 7.319,4.895 1.81,-2.706 -6.094,-4.076 0.231,-1.009 9.129,-14.537 v 28.641 z m 52.231,0 -24.44,-17.539 v -28.813 l 9.326,14.851 0.231,1.009 -6.094,4.076 1.81,2.706 7.319,-4.895 8.637,-1.714 -0.634,-3.193 -7.191,1.427 -0.551,-0.877 -3.824,-16.734 20.252,20.252 z m 36.933,-36.932 -29.683,4.88 -20.374,-20.374 17.095,3.907 0.877,0.551 -1.427,7.191 3.193,0.634 1.714,-8.637 4.895,-7.319 -2.706,-1.81 -4.076,6.094 -1.009,-0.231 -14.537,-9.129 h 28.641 z"
   id="path8" />
			<path
   fill="none"
   stroke="#4bb4f0"
   stroke-miterlimit="10"
   d="M 203.403,102.324 H 184.48 l 16.25,-13.651 -2.152,-2.562 -17.218,14.464 v -8.086 l 6.154,-6.517 -2.57,-2.427 -6.953,7.364 0.036,0.034 v 11.381 h -24.709 l 17.074,-23.792 -0.127,0.085 0.817,-1.047 0.911,-1.27 0.662,-1.096 -1.165,-0.118 -1.543,-0.254 -0.217,0.027 -0.951,-0.219 -28.897,-4.751 17.472,-17.472 8.047,8.048 -0.001,0.05 10.124,0.29 0.101,-3.533 -8.96,-0.257 -5.718,-5.718 22.402,-1.947 -0.29,-3.333 -21.143,1.838 13.381,-13.381 -2.509,-2.509 -13.214,13.215 1.811,-20.838 -3.333,-0.29 -1.947,22.402 -5.718,-5.718 -0.257,-8.96 -3.533,0.101 0.29,10.124 0.05,-10e-4 7.908,7.908 -17.372,17.372 -4.711,-28.657 -0.219,-0.951 0.027,-0.217 -0.254,-1.543 -0.118,-1.165 -1.096,0.662 -1.27,0.911 -0.401,0.172 -0.56,0.518 -23.792,17.074 V 29.376 h 11.381 l 0.034,0.036 7.364,-6.953 -2.427,-2.57 -6.517,6.154 h -8.086 L 121.292,8.825 118.73,6.673 105.079,22.923 V 4 h -3.548 V 22.689 L 88.076,6.673 85.514,8.825 99.978,26.043 h -8.086 l -6.517,-6.154 -2.427,2.57 7.364,6.953 0.034,-0.036 h 11.184 v 24.568 l -23.595,-16.932 -0.56,-0.518 -0.401,-0.172 -1.27,-0.911 -1.096,-0.662 -0.118,1.165 -0.254,1.543 0.027,0.217 -0.219,0.951 -4.751,28.895 -17.472,-17.472 8.047,-8.047 0.05,0.001 0.29,-10.124 -3.533,-0.101 -0.257,8.96 -5.718,5.718 -1.947,-22.402 -3.333,0.29 1.838,21.143 -13.381,-13.382 -2.509,2.509 13.215,13.215 -20.838,-1.811 -0.29,3.333 22.402,1.947 -5.718,5.718 -8.96,0.257 0.101,3.533 10.124,-0.29 -0.001,-0.05 7.908,-7.908 17.372,17.372 -28.657,4.711 -0.951,0.219 -0.217,-0.027 -1.543,0.254 -1.165,0.118 0.662,1.096 0.912,1.27 0.817,1.047 -0.127,-0.085 17.074,23.792 H 28.779 V 90.943 l 0.036,-0.034 -6.953,-7.364 -2.57,2.427 6.154,6.517 v 8.086 L 8.228,86.112 6.076,88.674 22.326,102.325 H 3.403 v 3.548 h 18.689 l -16.016,13.454 2.152,2.562 17.218,-14.464 v 8.086 l -6.154,6.517 2.57,2.427 6.953,-7.364 -0.036,-0.034 v -11.184 h 24.568 l -16.932,23.595 -0.518,0.56 -0.172,0.401 -0.912,1.27 -0.662,1.096 1.165,0.118 1.543,0.254 0.217,-0.027 0.951,0.219 28.657,4.711 -17.372,17.372 -7.908,-7.908 10e-4,-0.05 -10.124,-0.29 -0.101,3.533 8.96,0.257 5.718,5.718 -22.402,1.947 0.29,3.333 20.838,-1.811 -13.215,13.215 2.509,2.509 13.381,-13.381 -1.838,21.143 3.333,0.29 1.947,-22.402 5.718,5.718 0.257,8.96 3.533,-0.101 -0.29,-10.124 -0.05,0.001 -8.047,-8.048 17.472,-17.472 4.751,28.897 0.219,0.951 -0.027,0.217 0.254,1.543 0.118,1.165 1.096,-0.662 1.27,-0.911 0.401,-0.172 0.56,-0.518 23.595,-16.932 v 24.568 H 90.346 l -0.034,-0.036 -7.364,6.953 2.427,2.57 6.517,-6.154 h 8.086 l -14.464,17.218 2.562,2.152 13.454,-16.015 V 204 h 3.548 v -18.923 l 13.651,16.25 2.562,-2.152 -14.464,-17.218 h 8.086 l 6.517,6.154 2.427,-2.57 -7.364,-6.953 -0.034,0.036 h -11.381 v -24.709 l 23.792,17.074 0.56,0.518 0.401,0.172 1.27,0.911 1.096,0.662 0.118,-1.165 0.254,-1.543 -0.027,-0.217 0.219,-0.951 4.711,-28.657 17.372,17.372 -7.908,7.908 -0.05,-0.001 -0.29,10.124 3.533,0.101 0.257,-8.96 5.718,-5.718 1.947,22.402 3.333,-0.29 -1.811,-20.838 13.215,13.215 2.509,-2.509 -13.381,-13.381 21.143,1.838 0.29,-3.333 -22.402,-1.947 5.718,-5.718 8.96,-0.257 -0.101,-3.533 -10.124,0.29 0.001,0.05 -8.047,8.048 -17.472,-17.472 28.897,-4.751 0.951,-0.219 0.217,0.027 1.543,-0.254 1.165,-0.118 -0.662,-1.096 -0.911,-1.27 -0.172,-0.401 -0.518,-0.56 -16.932,-23.595 h 24.568 v 11.184 l -0.036,0.034 6.953,7.364 2.57,-2.427 -6.154,-6.517 v -8.086 l 17.218,14.464 2.152,-2.562 -16.015,-13.454 h 18.689 v -3.549 z m -36.952,-24.44 -17.539,24.44 h -28.813 l 14.851,-9.326 1.009,-0.231 4.076,6.094 2.706,-1.81 -4.895,-7.319 -1.714,-8.637 -3.193,0.634 1.427,7.191 -0.877,0.551 -17.095,3.907 20.374,-20.374 z m -54.855,20.452 12.228,-2.794 -10.622,6.67 0.071,0.113 h -0.192 -5.632 l 3.982,-3.982 v 0 l 0.136,-0.136 z m -2.675,-2.503 v 0 l -3.843,3.843 V 94.323 94.13 l 0.113,0.071 6.67,-10.622 -2.759,12.073 z m -7.391,-1.51 v 5.435 l -3.921,-3.921 0.13,-0.03 -2.794,-12.228 6.586,10.488 v 0.256 z m -2.451,8.001 h -5.353 -0.192 l 0.071,-0.113 -10.622,-6.67 12.072,2.759 z m -5.354,3.549 h 5.156 l -3.827,3.827 -12.073,2.759 10.488,-6.586 z m 7.805,2.369 v 5.435 0.256 l -6.586,10.488 2.794,-12.228 -0.13,-0.03 z m 3.548,5.435 v -5.353 l 3.843,3.843 v 0 l 0.181,0.181 2.759,12.073 -6.67,-10.622 -0.113,0.071 z m 6.489,-3.883 -0.136,-0.136 v 0 l -3.785,-3.785 h 5.435 0.256 l 10.488,6.586 -12.228,-2.794 z m 17.951,-68.842 4.841,29.444 -20.252,20.252 3.824,-16.734 0.551,-0.877 7.191,1.427 0.634,-3.193 -8.637,-1.714 -7.319,-4.895 -1.81,2.706 6.094,4.076 -0.231,1.009 -9.326,14.851 V 58.49 Z m -52.231,0 24.243,17.397 V 86.99 l -9.129,-14.537 -0.231,-1.009 6.094,-4.076 -1.81,-2.706 -7.319,4.895 -8.637,1.714 0.634,3.193 7.191,-1.427 0.551,0.877 3.907,17.095 L 72.407,70.635 Z M 40.354,77.884 69.798,73.043 90.05,93.295 73.316,89.471 72.439,88.92 l 1.427,-7.191 -3.193,-0.634 -1.714,8.637 -4.895,7.319 2.706,1.81 4.076,-6.094 1.009,0.231 14.851,9.326 H 57.893 Z m 0,52.232 17.397,-24.243 h 28.641 l -14.537,9.129 -1.009,0.231 -4.076,-6.094 -2.706,1.81 4.895,7.319 1.714,8.637 3.193,-0.634 -1.427,-7.191 0.877,-0.551 16.734,-3.824 -20.252,20.252 z m 36.933,36.932 -4.88,-29.683 20.374,-20.374 -3.907,17.095 -0.551,0.877 -7.191,-1.427 -0.634,3.193 8.637,1.714 7.319,4.895 1.81,-2.706 -6.094,-4.076 0.231,-1.009 9.129,-14.537 v 28.641 z m 52.231,0 -24.44,-17.539 v -28.813 l 9.326,14.851 0.231,1.009 -6.094,4.076 1.81,2.706 7.319,-4.895 8.637,-1.714 -0.634,-3.193 -7.191,1.427 -0.551,-0.877 -3.824,-16.734 20.252,20.252 z m 36.933,-36.932 -29.683,4.88 -20.374,-20.374 17.095,3.907 0.877,0.551 -1.427,7.191 3.193,0.634 1.714,-8.637 4.895,-7.319 -2.706,-1.81 -4.076,6.094 -1.009,-0.231 -14.537,-9.129 h 28.641 z"
   id="path10" />
		</g>
	</g>
</g>
</svg>
