<?xml version="1.0" encoding="UTF-8" standalone="no"?>
<svg
   version="1.1"
   width="111.66286"
   height="183.7363"
   id="svg23"
   sodipodi:docname="spaceship-a.svg"
   xmlns:inkscape="http://www.inkscape.org/namespaces/inkscape"
   xmlns:sodipodi="http://sodipodi.sourceforge.net/DTD/sodipodi-0.dtd"
   xmlns="http://www.w3.org/2000/svg"
   xmlns:svg="http://www.w3.org/2000/svg">
  <defs
     id="defs27" />
  <sodipodi:namedview
     id="namedview25"
     pagecolor="#ffffff"
     bordercolor="#000000"
     borderopacity="0.25"
     inkscape:showpageshadow="2"
     inkscape:pageopacity="0.0"
     inkscape:pagecheckerboard="0"
     inkscape:deskcolor="#d1d1d1" />
  <!-- Exported by Scratch - http://scratch.mit.edu/ -->
  <g
     id="ID0.25528564071282744"
     transform="matrix(0.90249997,0,0,0.90249997,-0.75369594,0.01220103)">
    <path
       id="ID0.5150838536210358"
       fill="#d1d3d4"
       stroke="#c2b59b"
       d="m 74.521,76.826 c -3.329,4.729 -5.53,12.881 -5.53,22.15 0,9.269 2.201,17.423 5.53,22.151 3.33,-4.729 5.531,-12.882 5.531,-22.151 0,-9.269 -2.2,-17.421 -5.531,-22.15 z"
       transform="matrix(2.0633752,0,0,2.0633752,-85.35,-48.15)" />
    <path
       id="ID0.586994057521224"
       fill="#d1d3d4"
       stroke="#c2b59b"
       d="m 52.586,77.438 c 0,0 -10.317,7.58 -10.317,18.317 0,10.739 5.158,22.741 5.158,22.741 L 60.586,98.913 Z"
       transform="matrix(2.0633752,0,0,2.0633752,-85.35,-48.15)" />
    <path
       id="ID0.3152541941963136"
       fill="#cd372e"
       d="m 98.409,67.019 c 0.515,2.14 0.788,4.374 0.788,6.676 0,15.364 -12.162,27.818 -27.163,27.818 -15,0 -26.978,-13.028 -26.978,-28.393 0,-4.473 0.788,-8.491 2.434,-12.236 1.646,-3.746 4.064,-7.249 9.673,-14.115 5.61,-6.865 8.624,-9.044 11.303,-14.318 2.679,-5.275 2.847,-8.622 4.019,-8.622 1.172,0 1.508,4.604 3.768,8.875 2.261,4.271 7.45,8.875 13.396,16.662 5.945,7.785 8.061,14.718 8.73,17.564 z"
       transform="matrix(2.0633752,0,0,2.0633752,-85.35,-48.15)" />
    <path
       id="ID0.9130098931491375"
       fill="#27aae1"
       d="m 61.87,56.481 c 3.057,0 5.827,1.242 7.833,3.248 2.006,2.006 3.248,4.776 3.248,7.833 0,3.057 -1.242,5.827 -3.248,7.833 -2.006,2.006 -4.776,3.248 -7.833,3.248 -3.057,0 -5.827,-1.242 -7.833,-3.248 -2.006,-2.006 -3.248,-4.776 -3.248,-7.833 0,-3.057 1.242,-5.827 3.248,-7.833 2.006,-2.006 4.776,-3.248 7.833,-3.248 z"
       transform="matrix(2.0633752,0,0,2.0633752,-85.35,-48.15)" />
    <path
       id="ID0.6974497074261308"
       fill="#e6e7e8"
       d="m 77.33,100.783 c 0,0 -4.756,-4.597 -5.754,-10.506 -1.201,-7.121 0.907,-14.519 2.213,-18.251 l 0.021,-0.045 c 0.65,-1.689 1.01,-3.563 1.01,-5.534 0,-7.498 -5.223,-13.578 -11.668,-13.578 -5.919,0 -11.937,5.613 -12.771,13.03 -0.815,7.243 -0.565,12.371 3,22.002 2.366,6.392 4.725,9.146 6.134,10.305 l 0.034,0.052 c 3.725,2.072 7.969,3.255 12.486,3.255 1.841,0 3.64,-0.188 5.378,-0.546 z M 61.455,78.037 c -4.94,0 -8.945,-4.084 -8.945,-9.121 0,-5.036 4.005,-9.12 8.945,-9.12 4.94,0 8.945,4.084 8.945,9.12 -0.001,5.037 -4.005,9.121 -8.945,9.121 z"
       transform="matrix(2.0633752,0,0,2.0633752,-85.35,-48.15)" />
    <path
       id="ID0.5012194369919598"
       fill="#da1c5c"
       d="m 77.671,35.005 c -1.877,0.543 -3.954,0.844 -6.14,0.844 -1.655,0 -3.248,-0.173 -4.74,-0.492 l -0.024,0.002 c 0.593,-0.885 1.153,-1.832 1.7,-2.908 0.166,-0.326 0.322,-0.645 0.469,-0.954 l 0.057,0.007 c 0.821,0.12 1.67,0.183 2.539,0.183 1.392,0 2.733,-0.16 3.994,-0.458 h 0.022 c 0.213,0.491 0.447,0.986 0.706,1.476 0.396,0.75 0.884,1.512 1.45,2.296 z"
       transform="matrix(2.0633752,0,0,2.0633752,-85.35,-48.15)" />
    <path
       id="ID0.29763966565951705"
       fill="#da1c5c"
       d="m 64.711,38.113 c 2.076,0.794 4.49,1.249 7.065,1.249 2.989,0 5.759,-0.613 8.038,-1.657 l 0.012,-0.016 c 1.406,1.673 3.059,3.505 4.875,5.611 l -0.021,0.005 c -3.4,1.602 -7.91,2.576 -12.857,2.576 -4.549,0 -8.727,-0.824 -12.013,-2.201"
       transform="matrix(2.0633752,0,0,2.0633752,-85.35,-48.15)" />
    <path
       id="ID0.420181293040514"
       fill="#a7a9ac"
       d="m 85.089,98.094 c -3.874,2.179 -8.321,3.419 -13.054,3.419 -4.478,0 -8.688,-1.162 -12.39,-3.2 l 0.036,0.126 c 0.363,2.313 5.906,4.903 12.692,4.903 7.021,0 12.715,-2.719 12.715,-5.146 0,-0.04 -0.002,-0.078 -0.005,-0.119 z"
       transform="matrix(2.0633752,0,0,2.0633752,-85.35,-48.15)" />
    <path
       id="ID0.1553567578084767"
       fill="none"
       stroke="#c2b59b"
       d="m 85.083,98.077 c 0.003,0.041 0.005,0.079 0.005,0.119 0,2.427 -5.693,5.146 -12.715,5.146 -6.786,0 -12.329,-2.59 -12.692,-4.903"
       transform="matrix(2.0633752,0,0,2.0633752,-85.35,-48.15)" />
    <path
       id="ID0.32193026412278414"
       fill="none"
       stroke="#c2b59b"
       d="m 84.764,43.268 c -3.409,1.622 -7.953,2.614 -12.941,2.614 -4.561,0 -8.75,-0.829 -12.039,-2.212"
       transform="matrix(2.0633752,0,0,2.0633752,-85.35,-48.15)" />
    <path
       id="ID0.9922009585425258"
       fill="none"
       stroke="#c2b59b"
       d="m 77.722,34.989 c -1.89,0.553 -3.985,0.859 -6.191,0.859 -1.665,0 -3.267,-0.175 -4.766,-0.499"
       transform="matrix(2.0633752,0,0,2.0633752,-85.35,-48.15)" />
    <path
       id="ID0.14914615079760551"
       fill="none"
       stroke="#c2b59b"
       d="m 75.59,31.212 c -1.279,0.309 -2.644,0.474 -4.059,0.474 -0.869,0 -1.718,-0.062 -2.539,-0.183"
       transform="matrix(2.0633752,0,0,2.0633752,-85.35,-48.15)" />
    <path
       id="ID0.9143646494485438"
       fill="none"
       stroke="#c2b59b"
       d="m 79.943,37.646 c -2.302,1.08 -5.121,1.717 -8.167,1.717 -2.584,0 -5.004,-0.459 -7.083,-1.256"
       transform="matrix(2.0633752,0,0,2.0633752,-85.35,-48.15)" />
    <path
       id="ID0.2940642866306007"
       stroke="#c2b59b"
       d="m 59.786,43.665 c 1.951,-2.238 3.536,-3.92 4.908,-5.566"
       transform="matrix(2.0633752,0,0,2.0633752,-85.35,-48.15)" />
    <path
       id="ID0.5523908301256597"
       fill="#726658"
       d="m 65.319,60.714 c -4.78,0.186 -8.6,4.195 -8.6,9.115 0,3.597 2.042,6.707 5.01,8.192 l 0.03,0.01 c -0.101,0.004 -0.202,0.006 -0.304,0.006 -4.94,0 -8.945,-4.084 -8.945,-9.121 0,-5.036 4.005,-9.12 8.945,-9.12 1.397,0 2.721,0.326 3.899,0.909 z"
       transform="matrix(2.0633752,0,0,2.0633752,-85.35,-48.15)" />
    <path
       id="ID0.559367491863668"
       fill="none"
       stroke="#c2b59b"
       d="m 59.773,98.411 c -1.365,-1.025 -3.875,-3.707 -6.392,-10.51 -3.564,-9.631 -3.814,-14.759 -3,-22.002 0.833,-7.417 6.851,-13.03 12.771,-13.03 6.445,0 11.668,6.08 11.668,13.578 0,1.971 -0.359,3.845 -1.01,5.534 l -0.021,0.045 c -1.307,3.732 -3.415,11.13 -2.213,18.251 0.999,5.909 5.754,10.506 5.754,10.506"
       transform="matrix(2.0633752,0,0,2.0633752,-85.35,-48.15)" />
    <path
       id="ID0.9389773323200643"
       fill="none"
       stroke="#c2b59b"
       d="m 61.454,59.795 c 2.468,0 4.704,1.022 6.323,2.673 1.62,1.651 2.622,3.932 2.622,6.448 0,2.516 -1.002,4.797 -2.622,6.448 -1.619,1.651 -3.855,2.673 -6.323,2.673 -2.468,0 -4.704,-1.022 -6.323,-2.673 -1.62,-1.651 -2.622,-3.932 -2.622,-6.448 0,-2.516 1.002,-4.797 2.622,-6.448 1.619,-1.651 3.855,-2.673 6.323,-2.673 z"
       transform="matrix(2.0633752,0,0,2.0633752,-85.35,-48.15)" />
    <path
       id="ID0.6667452291585505"
       fill="none"
       stroke="#c2b59b"
       d="m 98.409,67.019 c 0.515,2.14 0.788,4.374 0.788,6.676 0,15.364 -12.162,27.818 -27.163,27.818 -15,0 -26.978,-13.028 -26.978,-28.393 0,-4.473 0.788,-8.491 2.434,-12.236 1.646,-3.746 4.064,-7.249 9.673,-14.115 5.61,-6.865 8.624,-9.044 11.303,-14.318 2.679,-5.275 2.847,-8.622 4.019,-8.622 1.172,0 1.508,4.604 3.768,8.875 2.261,4.271 7.45,8.875 13.396,16.662 5.945,7.785 8.061,14.718 8.73,17.564 z"
       transform="matrix(2.0633752,0,0,2.0633752,-85.35,-48.15)" />
    <path
       id="ID0.8488279492594302"
       fill="none"
       stroke="#c2b59b"
       d="m 61.755,78.035 c -2.982,-1.48 -5.037,-4.6 -5.037,-8.206 0,-4.92 3.82,-8.93 8.6,-9.115"
       transform="matrix(2.0633752,0,0,2.0633752,-85.35,-48.15)" />
    <path
       id="ID0.8557561589404941"
       fill="#d1d3d4"
       stroke="#c2b59b"
       d="m 90.916,79.702 c 0,0 10.316,7.581 10.316,18.318 0,10.738 -5.158,22.74 -5.158,22.74 l -13.16,-19.582 z"
       transform="matrix(2.0633752,0,0,2.0633752,-85.35,-48.15)" />
  </g>
</svg>
