<?xml version="1.0" encoding="UTF-8" standalone="no"?>
<svg
   version="1.1"
   id="starfish1-a"
   x="0px"
   y="0px"
   width="117.89789"
   height="129.33278"
   viewBox="0 0 117.89789 129.33278"
   enable-background="new 0 0 150 150"
   xml:space="preserve"
   sodipodi:docname="starfish-a.svg"
   xmlns:inkscape="http://www.inkscape.org/namespaces/inkscape"
   xmlns:sodipodi="http://sodipodi.sourceforge.net/DTD/sodipodi-0.dtd"
   xmlns="http://www.w3.org/2000/svg"
   xmlns:svg="http://www.w3.org/2000/svg"><defs
   id="defs33" /><sodipodi:namedview
   id="namedview31"
   pagecolor="#ffffff"
   bordercolor="#000000"
   borderopacity="0.25"
   inkscape:showpageshadow="2"
   inkscape:pageopacity="0.0"
   inkscape:pagecheckerboard="0"
   inkscape:deskcolor="#d1d1d1" />
  <g
   id="g28"
   transform="translate(-16.998745,-8.0008791)">
    <g
   id="Body">
      <path
   id="Fill"
   fill="#ff13fa"
   d="M 88.206,27.417 C 80.87,20.408 74.681,10.063 64.938,11.434 c -3.385,0.477 -5.962,1.594 -7.289,4.735 -5.143,12.184 10.872,24.151 10.544,37.727 -0.028,1.185 -1.017,1.772 -2.594,1.722 C 56.436,55.334 28.371,45.431 22.95,54.98 c -4.421,7.788 10.989,18.664 16.767,21.868 4.132,2.291 15.483,6.768 21.091,7.971 -2.614,5.385 -9.046,14.842 -14.704,25.117 -3.045,5.532 -6.491,12.836 -3.46,19.129 0.9,1.867 3.407,4.086 5.589,4.398 6.611,0.944 18.721,-1.822 25.549,-8.227 7.413,-6.95 19.344,-25.523 21.557,-25.564 2.214,-0.042 19.419,26.871 27.147,20.018 4.488,-3.979 2.641,-13.92 1.265,-18.934 -2.258,-8.214 -9.892,-21.182 -11.978,-24.227 7.3,-3.118 26.922,-24.067 16.433,-31.05 -4.808,-3.202 -16.729,6.41 -21.442,8.273 -0.265,0.104 -0.508,0.14 -0.74,0.147 -3.209,0.519 -3.647,-1.4 -6.578,-8.732 -3.141,-7.863 -11.241,-17.75 -11.24,-17.75 z" />
      <path
   id="Outline_2_"
   d="m 134.742,48.132 c -0.458,-3.37 -2.195,-5.653 -5.736,-6.925 -4.913,-1.764 -16.972,5.354 -22.15,9.075 v 0 l -0.002,0.001 c -0.299,0.216 -0.569,0.417 -0.82,0.607 -0.879,0.478 -2.26,0.709 -3.148,-1.741 -0.41,-1.131 -1.393,-3.594 -2.521,-6.296 C 98.612,38.654 96.505,33.871 95.618,32.562 94.882,31.476 93.582,29.684 91.889,27.551 85.885,19.98 74.929,8.094 66.544,8.002 62.217,7.955 59.093,9.385 56.166,12.501 44.884,24.51 63.288,40.447 64.334,52.367 50.817,50.891 35.018,44.51 23.149,49.944 c -7.185,3.29 -6.95,7.19 -4.913,12.751 3.66,9.989 20.019,18.463 28.997,21.231 2.924,0.9 5.882,1.774 8.782,2.739 -3.035,3.749 -13.912,21.769 -16.3,31.18 -1.31,5.162 -2.814,14.009 4.325,18.104 3.223,1.85 12.004,1.637 15.483,0.581 22.398,-6.802 34.323,-31.927 36.083,-32.27 1.759,-0.342 12.213,15.656 17.699,18.664 2.731,1.498 7.25,1.945 10.109,0.907 3.523,-1.275 5.982,-5.001 6.391,-8.542 1.424,-12.383 -5.623,-27.472 -12.91,-37.36 9.093,-6.06 19.39,-18.389 17.847,-29.797 z M 99.445,45.167 c 2.93,7.333 3.367,9.251 6.578,8.732 0.231,-0.007 0.476,-0.043 0.74,-0.147 4.713,-1.863 16.635,-11.475 21.441,-8.273 10.488,6.983 -9.133,27.932 -16.434,31.05 2.086,3.045 9.721,16.013 11.979,24.227 1.376,5.014 3.225,14.955 -1.266,18.934 -7.729,6.854 -24.934,-20.06 -27.146,-20.018 -2.213,0.041 -14.145,18.614 -21.557,25.564 -6.828,6.404 -18.938,9.171 -25.549,8.227 -2.182,-0.312 -4.689,-2.531 -5.589,-4.398 -3.031,-6.293 0.415,-13.597 3.46,-19.129 C 51.76,99.661 58.192,90.204 60.806,84.819 55.198,83.616 43.847,79.139 39.715,76.848 33.937,73.644 18.527,62.768 22.948,54.98 c 5.421,-9.549 33.486,0.354 42.649,0.638 1.577,0.05 2.566,-0.537 2.594,-1.722 C 68.52,40.32 52.505,28.353 57.648,16.169 c 1.327,-3.141 3.904,-4.258 7.289,-4.735 9.743,-1.371 15.932,8.974 23.268,15.983 h -0.001 c 0.001,0 8.101,9.887 11.241,17.75 z" />
    </g>
    <g
   id="Mouth">
      <path
   id="Inside"
   fill="#9913fa"
   d="m 74.867,57.073 c -1.42,4.358 -2.704,12.101 2.472,19.208 4.786,6.572 9.735,7.422 13.162,6.976 -3.178,-1.687 -6.196,-4.139 -6.054,-9.132 0.59,-2.734 0.492,-10.092 14.271,-16.772 -9.648,-0.479 -15.82,-1.06 -22.408,-3.775 0.001,-0.001 -0.738,1.332 -1.443,3.495 z" />
      <g
   id="Tongue">
        <path
   fill="#ff9efa"
   d="m 86.18,74.107 c 0.779,-3.692 -8.729,-1.085 -11.506,-0.96 0.774,2.396 1.874,4.083 4.818,6.055 1.871,-1.295 6.227,-2.903 6.688,-5.095 z"
   id="path6" />
        <path
   d="M 88.909,71.811 C 85.99,68.619 77.594,70.128 73.738,70.536 c -0.175,0.94 0.301,1.752 0.599,2.614 0.096,0.005 0.212,0.003 0.337,-0.003 2.775,-0.125 12.285,-2.732 11.506,0.96 -0.461,2.192 -4.814,3.8 -6.688,5.095 -0.078,0.054 -0.159,0.108 -0.229,0.161 0,0 1.906,1.537 2.924,1.311 2.749,-0.615 9.553,-5.767 6.722,-8.863 z"
   id="path8" />
        <path
   d="m 82.322,73.469 c -1.758,1.426 -3.969,2.87 -6.389,2.614 -0.146,-0.468 -0.522,-1.082 -0.135,-1.53 1.716,-0.523 4.818,-1.356 6.524,-1.084 z"
   id="path10" />
      </g>
      <g
   id="Teeth">
        <path
   fill="#ffffff"
   d="m 98.342,63.59 c -7.232,0 -18.876,-2.333 -24.021,-5.679 l -0.644,-0.419 0.238,-0.729 c 0.727,-2.228 1.488,-3.612 1.52,-3.67 l 0.432,-0.78 0.824,0.34 c 6.944,2.862 13.582,3.303 23.834,3.786 l 0.783,0.037 1.307,6.699 -0.998,0.18 c -0.87,0.156 -1.971,0.235 -3.275,0.235 z"
   id="path13" />
        <path
   d="m 76.311,53.577 c 6.981,2.877 13.49,3.358 24.168,3.86 l 0.961,4.933 c -0.826,0.149 -1.881,0.221 -3.098,0.221 -6.715,0 -18.34,-2.178 -23.475,-5.518 0.705,-2.163 1.444,-3.496 1.444,-3.496 m -0.886,-2.528 -0.864,1.56 c -0.034,0.061 -0.839,1.526 -1.596,3.844 l -0.476,1.46 1.287,0.837 c 5.783,3.761 18.195,5.841 24.565,5.841 1.362,0 2.524,-0.084 3.452,-0.252 l 1.996,-0.36 -0.389,-1.991 -0.961,-4.933 -0.299,-1.542 -1.57,-0.074 C 90.425,54.962 83.864,54.527 77.07,51.728 Z"
   id="path15" />
      </g>
      <path
   id="Mouth_1_"
   d="m 105.436,52.776 c -0.59,-1.123 -3.519,-5.359 -4.213,-6.228 C 100.53,45.679 99,43.75 99.446,45.797 99.892,47.844 103,54.5 103,54.5 l -0.083,0.167 C 91.167,56.417 73.7,49.999 73.7,49.999 c -4.392,9.885 -4.117,22.835 3.315,30.698 7.434,7.861 16.9,4.638 16.9,4.638 0.083,1.917 -1,4.166 -2.5,5.083 -1.5,0.917 0,1.667 2,0.5 2,-1.167 2.417,-2.75 3.583,-6.583 1.166,-3.833 -0.833,-2.917 -2.287,-2.341 -0.556,0.22 -2.094,0.988 -4.212,1.264 -3.427,0.446 -8.376,-0.402 -13.162,-6.976 -5.176,-7.108 -3.893,-14.851 -2.472,-19.208 0.706,-2.163 1.444,-3.496 1.444,-3.496 6.588,2.716 12.76,3.296 22.408,3.775 0.575,0.028 1.158,0.057 1.76,0.085 0.121,0.006 0.235,0.011 0.357,0.017 10.898,0.508 5.189,-3.556 4.602,-4.679 z" />
    </g>
    <g
   id="R_Eye">
      <path
   id="Outline_1_"
   d="m 103.49,35.363 c -7.42,-5.676 -12.996,6.756 -9.489,11.875 1.351,1.969 4.192,3.177 6.581,2.627 4.831,-1.11 6.527,-11.731 2.908,-14.502 z m -2.892,12.17 c -0.996,0.498 -2.896,0.436 -3.754,-0.298 -3.002,-2.569 -1.673,-7.3 0.385,-9.739 1.625,-1.929 4.5,-1.797 5.75,0.345 1.298,2.224 0.399,8.307 -2.381,9.692 z" />
      <path
   id="White_1_"
   fill="#ffffff"
   d="m 97.229,37.496 c -2.058,2.439 -3.387,7.17 -0.385,9.739 0.857,0.734 2.758,0.796 3.754,0.298 2.78,-1.385 3.68,-7.468 2.381,-9.692 -1.25,-2.142 -4.125,-2.274 -5.75,-0.345 z" />
      <ellipse
   id="Pupil_1_"
   cx="101.607"
   cy="42.755001"
   rx="2.1619999"
   ry="2.072" />
    </g>
    <g
   id="L_Eye">
      <path
   id="White"
   fill="#ffffff"
   d="m 74.354,33.796 c -2.495,2.961 -3.492,8.883 0.148,12 1.039,0.89 3.348,0.965 4.557,0.362 3.373,-1.682 4.465,-9.063 2.892,-11.76 -1.521,-2.6 -5.624,-2.94 -7.597,-0.602 z" />
      <ellipse
   id="Pupil"
   cx="79.811996"
   cy="40.264"
   rx="3.332"
   ry="3.1930001" />
      <path
   id="Outline"
   d="m 82.564,31.391 c -9,-6.888 -15.767,8.197 -11.509,14.408 1.636,2.39 5.085,3.855 7.984,3.188 5.861,-1.348 7.92,-14.235 3.525,-17.596 z m -3.505,14.767 c -1.209,0.603 -3.518,0.528 -4.557,-0.362 -3.64,-3.117 -2.643,-9.039 -0.148,-12 1.973,-2.338 6.076,-1.998 7.595,0.602 1.574,2.697 0.483,10.078 -2.89,11.76 z" />
    </g>
  </g>
</svg>
