<?xml version="1.0" encoding="UTF-8" standalone="no"?>
<!-- Generator: Adobe Illustrator 14.0.0, SVG Export Plug-In . SVG Version: 6.00 Build 43363)  -->

<svg
   version="1.1"
   id="Layer_1"
   x="0px"
   y="0px"
   width="130.10989"
   height="98.344276"
   viewBox="0 0 130.10989 98.344276"
   enable-background="new 0 0 144 144"
   xml:space="preserve"
   sodipodi:docname="sun.svg"
   xmlns:inkscape="http://www.inkscape.org/namespaces/inkscape"
   xmlns:sodipodi="http://sodipodi.sourceforge.net/DTD/sodipodi-0.dtd"
   xmlns="http://www.w3.org/2000/svg"
   xmlns:svg="http://www.w3.org/2000/svg"><defs
   id="defs25" /><sodipodi:namedview
   id="namedview23"
   pagecolor="#ffffff"
   bordercolor="#000000"
   borderopacity="0.25"
   inkscape:showpageshadow="2"
   inkscape:pageopacity="0.0"
   inkscape:pagecheckerboard="0"
   inkscape:deskcolor="#d1d1d1" />
<g
   id="g20"
   transform="translate(-6.8071489,-23.341198)">
	<ellipse
   fill="#e3d930"
   cx="76.482002"
   cy="74.903"
   rx="36.521"
   ry="32.181999"
   id="ellipse2" />
	<g
   id="g8">
		<path
   fill="#fbb040"
   d="m 134.421,84.762 c 1.455,-0.092 2.451,-0.276 2.451,-0.276 0,0 -1.16,-0.026 -2.451,0.276 z"
   id="path4" />
		<path
   fill="#fbb040"
   d="m 131.087,89.187 c -0.639,-2.878 1.481,-3.99 3.334,-4.425 -4.116,0.258 -11.989,-0.262 -11.989,-8.042 0,-9.398 14.081,-10.496 14.081,-10.496 0,0 -10.802,-1.139 -12.792,-5.841 -1.989,-4.701 10.62,-10.613 10.62,-10.613 0,0 -6.869,3.438 -12.836,-0.721 -5.968,-4.158 3.978,-14.104 3.978,-14.104 0,0 -13.378,5.786 -16.272,5.423 -2.894,-0.361 -1.446,-4.336 -1.446,-4.336 0,0 -3.614,5.965 -10.667,4.518 -7.052,-1.448 -4.158,-11.211 -4.158,-11.211 0,0 -2.53,9.04 -11.57,8.317 -9.04,-0.722 -7.053,-11.211 -7.053,-11.211 0,0 -2.53,9.221 -8.134,9.221 -5.605,0 -7.232,-12.293 -7.232,-12.293 0,0 0.903,12.114 -5.967,17.175 -6.872,5.062 -16.453,2.169 -16.453,2.169 0,0 5.424,3.98 1.446,7.414 -3.979,3.434 -12.295,0.181 -12.295,0.181 0,0 7.414,3.073 5.788,9.583 -1.626,6.509 -24.591,1.627 -24.591,1.627 0,0 19.167,5.062 19.527,8.317 0.359,3.254 -7.051,5.604 -7.051,5.604 0,0 6.689,-0.361 7.954,3.254 1.264,3.616 -4.882,10.488 -4.882,10.488 0,0 6.691,-1.812 9.042,1.985 2.351,3.799 -1.628,9.221 -1.628,9.221 0,0 5.786,-4.338 9.401,-2.171 3.615,2.171 0.18,7.955 0.18,7.955 0,0 6.147,-4.337 9.042,-2.168 2.894,2.168 0,8.497 0,8.497 0,0 5.422,-5.425 8.317,-4.339 2.894,1.086 1.266,8.858 1.266,8.858 0,0 4.158,-7.594 10.124,-6.869 5.965,0.722 5.062,8.318 5.062,8.318 0,0 2.711,-6.872 10.486,-7.053 7.774,-0.182 14.827,9.583 14.827,9.583 0,0 0.903,-9.041 5.427,-11.029 4.521,-1.99 12.652,6.509 12.652,6.509 0,0 -3.072,-9.219 1.267,-13.741 4.34,-4.521 11.57,4.701 11.57,4.701 0,0 -3.252,-5.786 -1.444,-9.4 1.807,-3.617 5.786,-2.713 5.786,-2.713 0,0 -1.631,-1.264 -2.717,-6.142 z m -54.605,17.898 c -20.171,0 -36.521,-14.409 -36.521,-32.183 0,-17.773 16.352,-32.182 36.521,-32.182 20.167,0 36.521,14.409 36.521,32.182 0.001,17.774 -16.351,32.183 -36.521,32.183 z"
   id="path6" />
	</g>
	<ellipse
   fill="none"
   stroke="#9b8579"
   stroke-width="0.5"
   cx="76.482002"
   cy="74.903"
   rx="36.521"
   ry="32.181999"
   id="ellipse10" />
	<ellipse
   fill="#9b8579"
   cx="89.339996"
   cy="66.370003"
   rx="2.4389999"
   ry="8.5319996"
   id="ellipse12" />
	<ellipse
   fill="#9b8579"
   cx="63.827"
   cy="66.370003"
   rx="2.4400001"
   ry="8.5319996"
   id="ellipse14" />
	<path
   fill="none"
   stroke="#9b8579"
   stroke-width="0.5"
   d="m 36.527,42.718 c 0,0 9.581,2.894 16.452,-2.169 6.871,-5.063 5.968,-17.175 5.968,-17.175 0,0 1.627,12.293 7.232,12.293 5.604,0 8.136,-9.221 8.136,-9.221 0,0 -1.989,10.488 7.052,11.211 9.04,0.723 11.571,-8.317 11.571,-8.317 0,0 -2.894,9.763 4.158,11.211 7.052,1.447 10.666,-4.518 10.666,-4.518 0,0 -1.446,3.977 1.447,4.336 2.894,0.363 16.272,-5.423 16.272,-5.423 0,0 -9.945,9.945 -3.979,14.104 5.966,4.159 12.837,0.721 12.837,0.721 0,0 -12.611,5.914 -10.619,10.613 1.99,4.7 12.789,5.841 12.789,5.841 0,0 -14.08,1.1 -14.08,10.496 0,10.533 14.441,7.766 14.441,7.766 0,0 -6.872,-0.183 -5.788,4.701 1.086,4.879 2.713,6.146 2.713,6.146 0,0 -3.98,-0.902 -5.787,2.712 -1.809,3.616 1.445,9.401 1.445,9.401 0,0 -7.23,-9.223 -11.57,-4.701 -4.34,4.521 -1.265,13.74 -1.265,13.74 0,0 -8.134,-8.497 -12.657,-6.508 -4.521,1.989 -5.424,11.027 -5.424,11.027 0,0 -7.053,-9.761 -14.827,-9.581 -7.772,0.179 -10.486,7.052 -10.486,7.052 0,0 0.902,-7.595 -5.062,-8.316 -5.965,-0.726 -10.124,6.87 -10.124,6.87 0,0 1.627,-7.775 -1.266,-8.861 -2.895,-1.086 -8.318,4.341 -8.318,4.341 0,0 2.895,-6.331 0,-8.499 -2.894,-2.17 -9.042,2.168 -9.042,2.168 0,0 3.436,-5.785 -0.179,-7.954 -3.615,-2.169 -9.402,2.171 -9.402,2.171 0,0 3.979,-5.423 1.628,-9.22 -2.352,-3.796 -9.041,-1.988 -9.041,-1.988 0,0 6.146,-6.87 4.881,-10.486 -1.264,-3.616 -7.953,-3.255 -7.953,-3.255 0,0 7.41,-2.352 7.05,-5.604 C 26.037,66.59 6.871,61.527 6.871,61.527 c 0,0 22.963,4.881 24.591,-1.627 1.627,-6.51 -5.788,-9.583 -5.788,-9.583 0,0 8.318,3.253 12.295,-0.181 3.978,-3.436 -1.442,-7.418 -1.442,-7.418 z"
   id="path16" />
	<path
   fill="none"
   stroke="#9b8579"
   stroke-width="0.5"
   d="m 59.828,80.49 c 0,0 1.238,6.005 16.437,6.005 15.195,0 16.963,-4.593 16.963,-4.593"
   id="path18" />
</g>
</svg>
