<?xml version="1.0" encoding="UTF-8" standalone="no"?>
<!-- Generator: Adobe Illustrator 18.0.0, SVG Export Plug-In . SVG Version: 6.00 Build 0)  -->

<svg
   version="1.1"
   id="Layer_2"
   x="0px"
   y="0px"
   viewBox="0 0 45.031563 54.352829"
   enable-background="new 0 0 45 54.5"
   xml:space="preserve"
   sodipodi:docname="T-story-2.svg"
   width="45.031563"
   height="54.352829"
   xmlns:inkscape="http://www.inkscape.org/namespaces/inkscape"
   xmlns:sodipodi="http://sodipodi.sourceforge.net/DTD/sodipodi-0.dtd"
   xmlns="http://www.w3.org/2000/svg"
   xmlns:svg="http://www.w3.org/2000/svg"><defs
   id="defs19" /><sodipodi:namedview
   id="namedview17"
   pagecolor="#ffffff"
   bordercolor="#000000"
   borderopacity="0.25"
   inkscape:showpageshadow="2"
   inkscape:pageopacity="0.0"
   inkscape:pagecheckerboard="0"
   inkscape:deskcolor="#d1d1d1" />
<g
   id="g14"
   transform="translate(0.00496575,0.02783032)">
	<path
   fill="#f7941e"
   d="m 16.4,46.8 c 0,0.1 0,0.3 0,0.4 0.1,0 0.2,0 0.4,0 0,-0.1 0,-0.3 0.1,-0.5 -0.2,0 -0.3,0 -0.5,0.1 z"
   id="path2" />
	<path
   fill="#f7941e"
   d="M 45,11.4 C 44.3,8 43.6,4.5 42.8,1 42.6,0 42,-0.2 41.1,0.1 40.8,0.2 40.6,0.4 40.3,0.6 39.2,1.5 38,2.1 36.5,2 31.3,1.9 26.1,1.8 20.9,1.8 19.2,1.8 17.4,2 15.7,2 14,2 12.3,1.9 10.7,1.8 9.8,1.8 9.1,1.7 8.4,1 8.1,0.7 7.8,0.5 7.4,0.4 6.7,0 6.1,0.1 5.5,0.8 5,1.4 4.5,2.1 3.9,2.7 3,3.7 2.4,4.8 2.7,6.2 2.7,6.4 2.7,6.6 2.6,6.8 1.9,8.9 1.3,11 0.6,13 0.4,13.5 0.2,13.9 0.1,14.4 0,15 -0.2,15.7 0.5,16 1.2,16.3 2,16.8 2.7,16.2 3.5,15.5 4.3,14.8 5.1,14.1 5.2,14 5.4,13.7 5.4,13.6 5.2,12.5 6.1,12.4 6.7,12.2 c 0.5,-0.1 1,-0.1 1.5,-0.1 2.7,-0.2 5.3,-0.4 8,-0.6 1.1,-0.1 1.1,0 1,1 -0.2,2 -0.4,4.1 -0.4,6.1 -0.1,3.8 0,7.6 -0.1,11.4 -0.1,4.5 -0.2,8.9 -0.3,13.3 0,0.6 0,2.4 0,3.3 0.1,-0.1 0.3,-0.1 0.4,-0.1 0,0.2 0,0.4 -0.1,0.5 -0.1,0 -0.2,0 -0.3,0 v -0.4 c -0.4,0.2 -0.7,0.4 -1.1,0.8 -1,1.2 -2.1,2.3 -3.3,3.3 -0.5,0.5 -0.6,1 -0.4,1.6 0.1,0.3 0.2,0.6 0.2,0.8 0.1,0.6 0.3,0.9 1,0.6 0.2,-0.1 0.5,0 0.8,0 4.1,0.5 8.2,0.7 12.3,0.6 0.8,0 1.4,-0.3 1.9,-1 1,-1.3 2,-2.6 3.1,-3.9 0.1,-0.2 0.2,-0.5 0.2,-0.7 0,-0.5 0,-0.9 0.1,-1.4 0,-0.6 -0.2,-0.8 -0.8,-0.8 -0.6,0 -1.2,0 -1.8,0 -0.6,0 -1,-0.3 -1,-1 0,-2.1 0,-4.3 -0.1,-6.4 0,-0.7 0,-1.3 0,-2 0,-2.6 0.1,-5.2 0.1,-7.7 -0.1,-5.7 -0.3,-11.4 -0.4,-17.1 0,-0.3 0,-0.6 0,-1.1 2,0.2 4,0.3 5.9,0.6 2.8,0.3 4.5,2 5.5,4.6 0.1,0.2 0.2,0.4 0.4,0.4 0.7,0.1 1.3,0 2,0.1 0.6,0.1 0.9,-0.1 1.1,-0.6 0.1,-0.4 0.4,-0.8 0.6,-1.1 0.7,-0.9 1.4,-1.7 2,-2.6 0.2,-0.2 0.4,-0.8 0.3,-1.2 z m -1.8,0.5 C 42.6,10.8 42.2,9.7 41.6,8.7 40,6.3 37.6,5.7 35,5.3 32.3,5 29.8,5.6 27.1,5.7 c -0.2,0 -0.5,0.3 -0.5,0.5 0,2.1 -0.1,4.3 0,6.4 0.1,6.6 0.3,13.2 0.4,19.7 0.1,4 0,8 -0.1,12 0,0.2 0,0.4 0,0.5 0.1,2 0.5,2.3 2.4,2.3 0.4,0 0.7,0 1.1,0 0.1,0.1 0.1,0.1 0.1,0.2 -0.1,2.1 0.3,1.9 -1.9,1.9 -3.8,0 -7.5,-0.2 -11.4,-0.2 0,-0.6 0,-1.1 0,-1.6 0,-0.1 0.2,-0.3 0.4,-0.3 0.6,-0.1 1.3,-0.2 1.9,-0.3 1.1,-0.2 1.4,-0.4 1.5,-1.5 0.2,-2 0.3,-4 0.3,-6 0.1,-2.5 0.1,-5.1 0.1,-7.7 0,-1.4 -0.1,-2.8 -0.1,-4.2 0,-3.7 0.2,-7.5 0.2,-11.2 0,-3 -0.2,-5.9 -0.3,-8.8 0,-0.2 0,-0.3 0,-0.5 0,-1.3 0,-1.3 -1.3,-1.2 -2.8,0.1 -5.6,0 -8.3,0.6 C 9.3,6.8 7.7,8.1 6.4,9.8 5.7,10.6 5.3,11.7 4.7,12.6 3.7,12.6 3.5,12.4 3.8,11.4 4.2,9.9 4.6,8.4 5,6.9 5.4,5.2 5.8,3.5 6.1,1.8 6.3,0.9 6.6,0.7 7.4,1.2 c 0,0 0.1,0 0.1,0 1.3,1.5 3.1,1.4 4.9,1.4 1.5,0 3,-0.2 4.5,-0.2 1,0 2,0.1 3,0.1 4,0 8,0 11.9,0.1 1.6,0 3.1,0.1 4.7,0.2 1.6,0.1 2.9,-0.5 4.1,-1.4 0.2,-0.1 0.3,-0.3 0.5,-0.4 0.7,-0.3 1.1,-0.2 1.2,0.5 0.7,3 1.4,6 2,9 0.1,0.4 0.1,0.9 0.1,1.4 -0.5,-0.1 -0.9,0 -1.2,0 z"
   id="path4" />
	<path
   fill="#ffffff"
   d="m 44.4,10.5 c -0.7,-3 -1.3,-6 -2,-9 C 42.2,0.8 41.8,0.6 41.2,1 41,1.1 40.9,1.2 40.7,1.4 39.5,2.3 38.2,2.9 36.6,2.8 35.1,2.7 33.5,2.6 31.9,2.6 c -4,0 -8,0 -11.9,-0.1 -1,0 -2,-0.1 -3,-0.1 -1.5,0 -3,0.2 -4.5,0.2 -1.8,0 -3.6,0.1 -4.9,-1.4 0,0 0,0 -0.1,0 C 6.7,0.7 6.4,0.8 6.2,1.8 5.8,3.5 5.5,5.2 5.1,6.9 c -0.4,1.5 -0.8,3 -1.2,4.5 -0.3,1 -0.1,1.2 0.9,1.2 0.6,-1 1,-2 1.7,-2.8 1.3,-1.7 2.9,-3 5.1,-3.5 2.8,-0.6 5.6,-0.5 8.3,-0.6 1.2,-0.1 1.2,0 1.3,1.2 0,0.2 0,0.3 0,0.5 0.1,2.9 0.3,5.9 0.3,8.8 0,3.7 -0.1,7.5 -0.2,11.2 0,1.4 0.1,2.8 0.1,4.2 0,2.6 0,5.1 -0.1,7.7 -0.1,2 -0.2,4 -0.3,6 -0.1,1.1 -0.4,1.3 -1.5,1.5 -0.6,0.1 -1.3,0.2 -1.9,0.3 -0.2,0 -0.4,0.2 -0.4,0.3 0,0.5 0,1 0,1.6 3.8,0.1 7.6,0.2 11.4,0.2 2.2,0 1.8,0.2 1.9,-1.9 0,0 -0.1,-0.1 -0.1,-0.2 -0.3,0 -0.7,0 -1.1,0 -2,-0.1 -2.3,-0.4 -2.4,-2.3 0,-0.2 0,-0.4 0,-0.5 0,-4 0.1,-8 0.1,-12 -0.1,-6.6 -0.3,-13.2 -0.4,-19.7 0,-2.1 0,-4.3 0,-6.4 0,-0.2 0.3,-0.5 0.5,-0.5 2.6,-0.1 5.2,-0.7 7.9,-0.4 2.7,0.3 5.1,1 6.6,3.4 0.6,1 1.1,2.1 1.6,3.2 0.4,0 0.8,0 1.3,-0.1 -0.1,-0.5 -0.1,-0.9 -0.1,-1.3 z M 23.2,10.1 c 0,-0.2 0.1,-0.4 0.2,-0.5 0.1,0 0.2,0 0.3,0 -0.2,4.9 1.1,9.7 0.8,14.6 -0.7,0.1 -0.6,-0.4 -0.6,-0.8 -0.1,-2 -0.2,-4 -0.4,-6.1 -0.1,-1.8 -0.3,-3.5 -0.4,-5.3 0,-0.6 0.1,-1.2 0.1,-1.9 z m 0.9,26.5 c -0.1,2.4 -0.2,4.9 -0.4,7.3 0,0.2 -0.1,0.5 -0.1,0.8 -0.1,0 -0.2,0 -0.3,0 -0.1,-0.9 -0.2,-1.7 -0.2,-2.5 0.1,-3.9 0.3,-7.8 0.5,-11.7 0,-0.3 0,-0.6 0.1,-0.8 0.1,-0.2 0.3,-0.2 0.4,-0.4 0.1,0.2 0.2,0.3 0.2,0.5 0.1,2.2 0,4.5 -0.2,6.8 z m -0.3,-9.3 c -0.1,0.1 -0.7,-0.4 -0.6,-0.6 0.1,-0.3 0.3,-0.8 0.6,-0.9 0.2,-0.1 0.6,0.3 1,0.4 0,0.1 0,0.2 0,0.3 -0.3,0.3 -0.6,0.7 -1,0.8 z"
   id="path6" />
	<path
   fill="#f7941e"
   d="m 24.5,29.7 c -0.1,2.3 -0.2,4.6 -0.3,6.9 -0.1,2.4 -0.2,4.9 -0.4,7.3 0,0.2 -0.1,0.5 -0.1,0.8 -0.1,0 -0.2,0 -0.3,0 -0.1,-0.9 -0.2,-1.7 -0.2,-2.5 0.1,-3.9 0.3,-7.8 0.5,-11.7 0,-0.3 0,-0.6 0.1,-0.8 0.1,-0.2 0.3,-0.2 0.4,-0.4 0.1,0.1 0.3,0.3 0.3,0.4 z"
   id="path8" />
	<path
   fill="#f7941e"
   d="m 24.5,24.2 c -0.7,0.1 -0.6,-0.4 -0.6,-0.8 -0.1,-2 -0.2,-4 -0.4,-6.1 -0.1,-1.8 -0.3,-3.5 -0.4,-5.3 0,-0.6 0.1,-1.3 0.1,-1.9 0,-0.2 0.1,-0.4 0.2,-0.5 0.1,0 0.2,0 0.3,0 -0.2,4.9 1.1,9.7 0.8,14.6 z"
   id="path10" />
	<path
   fill="#f7941e"
   d="m 24.8,26.6 c -0.3,0.3 -0.7,0.6 -1,0.8 -0.1,0.1 -0.7,-0.4 -0.6,-0.6 0.1,-0.3 0.3,-0.8 0.6,-0.9 0.2,-0.1 0.6,0.3 1,0.4 0,0.1 0,0.2 0,0.3 z"
   id="path12" />
</g>
</svg>
