<?xml version="1.0" encoding="UTF-8" standalone="no"?>
<svg
   version="1.1"
   width="46.365059"
   height="25.499664"
   viewBox="-1 -1 46.365059 25.499664"
   id="svg29"
   sodipodi:docname="taco-a.svg"
   xmlns:inkscape="http://www.inkscape.org/namespaces/inkscape"
   xmlns:sodipodi="http://sodipodi.sourceforge.net/DTD/sodipodi-0.dtd"
   xmlns="http://www.w3.org/2000/svg"
   xmlns:svg="http://www.w3.org/2000/svg">
  <defs
     id="defs33" />
  <sodipodi:namedview
     id="namedview31"
     pagecolor="#ffffff"
     bordercolor="#000000"
     borderopacity="0.25"
     inkscape:showpageshadow="2"
     inkscape:pageopacity="0.0"
     inkscape:pagecheckerboard="0"
     inkscape:deskcolor="#d1d1d1" />
  <!-- Exported by Scratch - http://scratch.mit.edu/ -->
  <g
     id="ID0.6225546635687351"
     transform="translate(-37.954598,-1.2503357)">
    <path
       id="ID0.8981337421573699"
       fill="#ffebae"
       stroke="#231f20"
       d="M 77.4,25 H 77.2 C 74.9,25 73,23 72.5,20.2 71.1,12.4 66.4,6.2 60.3,4 61.9,3.4 63.7,3.1 65.4,3.1 72.9,3 79.3,8.8 81.9,16.9 83.1,20.7 80.8,25 77.4,25 Z"
       transform="translate(0.15,0.25)" />
    <path
       id="ID0.39622050849720836"
       fill="#37b34a"
       stroke="#231f20"
       stroke-linecap="round"
       stroke-linejoin="round"
       d="m 78.4,17.7 c 0,0 5.8,-2.2 3.9,-4.9 C 80.9,11 78.9,11.8 78.2,11 77.5,10.2 77.7,5.2 75.3,5.1 72.9,5 72.1,6.4 70.3,5.6 68.5,4.8 69.1,1.3 66.5,2 63.9,2.7 64,3.8 62.4,3.5 60.8,3.2 59.4,0.2 57.4,0.8 55.4,1.4 54.9,2.9 53.3,3.2 51.7,3.5 50,1.9 47.9,2.6 45.8,3.3 46.8,5.7 45.2,6.2 43.6,6.7 42,5.7 41.2,8.4 c -0.8,2.7 0,3 -0.7,4.4 -0.7,1.4 31,4.7 37.9,4.9 z"
       transform="translate(0.15,0.25)" />
    <path
       id="ID0.6380414562299848"
       fill="#be1e2d"
       stroke="#231f20"
       stroke-linecap="round"
       stroke-linejoin="round"
       d="m 78.9,17.9 -1.7,-1 c -0.4,-0.2 -0.5,-0.6 -0.3,-0.9 0,0 0,0 0,-0.1 l 1,-1.7 c 0.2,-0.4 0.6,-0.5 0.9,-0.3 0,0 0,0 0.1,0 l 1.7,1 c 0.4,0.2 0.5,0.6 0.3,0.9 0,0 0,0 0,0.1 l -1,1.7 c -0.2,0.3 -0.6,0.5 -1,0.3 0,0 0,0 0,0 z"
       transform="translate(0.15,0.25)" />
    <path
       id="ID0.802543097641319"
       fill="none"
       stroke="#fff100"
       stroke-linecap="round"
       stroke-linejoin="round"
       d="M 71.9,12.7 71.3,10.5"
       transform="translate(0.15,0.25)" />
    <path
       id="ID0.8520334078930318"
       fill="#be1e2d"
       stroke="#231f20"
       stroke-linecap="round"
       stroke-linejoin="round"
       d="M 38.7,16.3 37.4,14 c -0.2,-0.4 -0.1,-0.9 0.3,-1.1 0,0 0,0 0,0 L 40,11.6 c 0.2,-0.3 0.7,-0.3 0.9,0 0.1,0.1 0.1,0.1 0.2,0.2 l 1.3,2.3 c 0.2,0.4 0.1,0.9 -0.3,1.1 0,0 0,0 0,0 l -2.3,1.3 c -0.4,0.2 -0.9,0.2 -1.1,-0.2 0,0 0,0 0,0 z"
       transform="translate(0.15,0.25)" />
    <path
       id="ID0.20036644209176302"
       fill="none"
       stroke="#fff100"
       stroke-linecap="round"
       stroke-linejoin="round"
       d="M 74.6,12.9 71,14.6"
       transform="translate(0.15,0.25)" />
    <path
       id="ID0.7809704001992941"
       fill="none"
       stroke="#fff100"
       stroke-linecap="round"
       stroke-linejoin="round"
       d="m 79.6,9.8 -4.1,0.4"
       transform="translate(0.15,0.25)" />
    <path
       id="ID0.7918770764954388"
       fill="#8a5d3b"
       stroke="#231f20"
       stroke-linecap="round"
       stroke-linejoin="round"
       d="m 77.4,17 c 0.3,-0.1 0.5,-0.1 0.8,-0.1 0.6,0.1 1,0.4 1.3,0.9 0.3,-0.3 0.8,-0.5 1.3,-0.4 0.9,0.1 1.6,0.9 1.5,1.8 0,0.4 -0.2,0.9 -0.6,1.1 0.4,0.3 0.6,0.9 0.5,1.4 -0.1,0.9 -0.9,1.6 -1.8,1.5 h -0.2 c -0.2,0.8 -1,1.3 -1.8,1.2 -0.2,0 -0.4,-0.1 -0.6,-0.2 -0.4,0.4 -0.9,0.6 -1.5,0.6 -0.4,0 -0.7,-0.2 -1,-0.4 -0.3,0.3 -0.8,0.4 -1.2,0.4 -0.9,-0.1 -1.6,-0.9 -1.5,-1.8 0.1,-0.6 0.5,-1.2 1.1,-1.4 V 21.2 C 72.8,21 72.3,20 72.5,19.1 c 0.2,-0.8 0.9,-1.3 1.7,-1.2 -0.1,-0.2 -0.1,-0.5 -0.1,-0.7 0.1,-0.9 0.9,-1.6 1.8,-1.5 0.7,0.1 1.3,0.6 1.5,1.3 z"
       transform="translate(0.15,0.25)" />
    <path
       id="ID0.26839282596483827"
       fill="#be1e2d"
       stroke="#231f20"
       stroke-linecap="round"
       stroke-linejoin="round"
       d="m 74.1,16.3 -2.3,1.3 c -0.4,0.2 -0.9,0.1 -1.1,-0.3 0,0 0,0 0,0 L 69.4,15 c -0.2,-0.4 -0.1,-0.9 0.3,-1.1 0,0 0,0 0,0 L 72,12.6 c 0.4,-0.2 0.9,-0.1 1.1,0.3 0,0 0,0 0,0 l 1.3,2.3 c 0.2,0.3 0.1,0.8 -0.2,1 -0.1,0 -0.1,0.1 -0.1,0.1 z"
       transform="translate(0.15,0.25)" />
    <path
       id="ID0.9713004296645522"
       fill="#be1e2d"
       stroke="#231f20"
       stroke-linecap="round"
       stroke-linejoin="round"
       d="m 67.3,10.2 -2.7,0.2 C 64.2,10.4 63.8,10 63.7,9.6 L 63.5,6.9 C 63.5,6.5 63.9,6.1 64.3,6 L 67,5.8 c 0.5,0 0.9,0.3 0.9,0.8 l 0.2,2.7 c -0.1,0.4 -0.4,0.8 -0.8,0.9 z"
       transform="translate(0.15,0.25)" />
    <path
       id="ID0.7196992384269834"
       fill="#be1e2d"
       stroke="#231f20"
       stroke-linecap="round"
       stroke-linejoin="round"
       d="M 52.9,5.8 50.7,4.2 C 50.3,4 50.2,3.6 50.4,3.2 c 0,0 0,-0.1 0.1,-0.1 l 1.6,-2.2 c 0.2,-0.4 0.6,-0.5 1,-0.3 0,0 0.1,0 0.1,0.1 l 2.2,1.6 c 0.4,0.2 0.5,0.6 0.3,1 0,0 0,0.1 -0.1,0.1 L 54,5.6 c -0.2,0.3 -0.7,0.4 -1.1,0.2 0,0 0,0 0,0 z"
       transform="translate(0.15,0.25)" />
    <path
       id="ID0.9369668094441295"
       fill="none"
       stroke="#fff100"
       stroke-linecap="round"
       stroke-linejoin="round"
       d="M 68.1,10.6 70.6,7.5"
       transform="translate(0.15,0.25)" />
    <path
       id="ID0.01696129236370325"
       fill="none"
       stroke="#fff100"
       stroke-linecap="round"
       stroke-linejoin="round"
       d="M 57,4.4 59.4,1.3"
       transform="translate(0.15,0.25)" />
    <path
       id="ID0.20967063819989562"
       fill="#ffebae"
       d="m 77.2,25 h -34 c -3.4,0 -5.7,-4.2 -4.5,-8.1 2.6,-8.1 9,-13.8 16.4,-13.8 1.8,0 3.6,0.3 5.3,0.9 -0.1,0 -0.2,0 -0.2,0.1 6.2,2.1 10.9,8.3 12.3,16.1 0.5,2.7 2.4,4.8 4.7,4.8 z"
       transform="translate(0.15,0.25)" />
    <path
       id="ID0.02154682297259569"
       fill="none"
       stroke="#ffffff"
       stroke-linecap="round"
       stroke-linejoin="round"
       d="M 41.8,14.4 C 44,10.2 47.2,7 51,5.6"
       transform="translate(0.15,0.25)" />
    <path
       id="ID0.06361814867705107"
       fill="#cebd8e"
       stroke="#cebd8e"
       stroke-linecap="round"
       stroke-linejoin="round"
       d="m 75.3,25 h -32 c -3.1,0 -5.4,-3.6 -4.7,-7.3 0.5,2.5 2.3,4.6 4.6,4.6 H 73 c 0.1,0.8 2.3,1.7 2.3,2.7 z"
       transform="translate(0.15,0.25)" />
    <path
       id="ID0.3869165335781872"
       fill="#cebd8e"
       d="m 59.1,14.4 c 0.248,0 0.473,0.101 0.636,0.264 C 59.899,14.827 60,15.052 60,15.3 60,15.548 59.899,15.773 59.736,15.936 59.573,16.099 59.348,16.2 59.1,16.2 58.852,16.2 58.627,16.099 58.464,15.936 58.301,15.773 58.2,15.548 58.2,15.3 c 0,-0.248 0.101,-0.473 0.264,-0.636 C 58.627,14.501 58.852,14.4 59.1,14.4 Z"
       transform="translate(0.15,0.25)" />
    <path
       id="ID0.18960871454328299"
       fill="#cebd8e"
       d="m 47,11 c 0.248,0 0.473,0.101 0.636,0.264 0.163,0.163 0.264,0.388 0.264,0.636 0,0.248 -0.101,0.473 -0.264,0.636 C 47.473,12.699 47.248,12.8 47,12.8 46.752,12.8 46.527,12.699 46.364,12.536 46.201,12.373 46.1,12.148 46.1,11.9 c 0,-0.248 0.101,-0.473 0.264,-0.636 C 46.527,11.101 46.752,11 47,11 Z"
       transform="translate(0.15,0.25)" />
    <path
       id="ID0.7332960367202759"
       fill="#cebd8e"
       d="m 50.8,15.9 c 0.248,0 0.473,0.101 0.636,0.264 0.163,0.163 0.264,0.388 0.264,0.636 0,0.248 -0.101,0.473 -0.264,0.636 C 51.273,17.599 51.048,17.7 50.8,17.7 50.552,17.7 50.327,17.599 50.164,17.436 50.001,17.273 49.9,17.048 49.9,16.8 c 0,-0.248 0.101,-0.473 0.264,-0.636 C 50.327,16.001 50.552,15.9 50.8,15.9 Z"
       transform="translate(0.15,0.25)" />
    <path
       id="ID0.5612127794884145"
       fill="#cebd8e"
       d="m 43.5,16.8 c 0.248,0 0.473,0.101 0.636,0.264 0.163,0.163 0.264,0.388 0.264,0.636 0,0.248 -0.101,0.473 -0.264,0.636 C 43.973,18.499 43.748,18.6 43.5,18.6 43.252,18.6 43.027,18.499 42.864,18.336 42.701,18.173 42.6,17.948 42.6,17.7 c 0,-0.248 0.101,-0.473 0.264,-0.636 C 43.027,16.901 43.252,16.8 43.5,16.8 Z"
       transform="translate(0.15,0.25)" />
    <path
       id="ID0.9774294998496771"
       fill="#cebd8e"
       d="m 61.5,9.3 c 0.248,0 0.473,0.101 0.636,0.264 0.163,0.163 0.264,0.388 0.264,0.636 0,0.248 -0.101,0.473 -0.264,0.636 C 61.973,10.999 61.748,11.1 61.5,11.1 61.252,11.1 61.027,10.999 60.864,10.836 60.701,10.673 60.6,10.448 60.6,10.2 60.6,9.952 60.701,9.727 60.864,9.564 61.027,9.401 61.252,9.3 61.5,9.3 Z"
       transform="translate(0.15,0.25)" />
    <path
       id="ID0.950283263809979"
       fill="#cebd8e"
       d="m 65.8,16.3 c 0.248,0 0.473,0.101 0.636,0.264 0.163,0.163 0.264,0.388 0.264,0.636 0,0.248 -0.101,0.473 -0.264,0.636 C 66.273,17.999 66.048,18.1 65.8,18.1 65.552,18.1 65.327,17.999 65.164,17.836 65.001,17.673 64.9,17.448 64.9,17.2 c 0,-0.248 0.101,-0.473 0.264,-0.636 C 65.327,16.401 65.552,16.3 65.8,16.3 Z"
       transform="translate(0.15,0.25)" />
    <path
       id="ID0.9049051431939006"
       fill="#cebd8e"
       d="m 54.2,7.5 c 0.248,0 0.473,0.101 0.636,0.264 C 54.999,7.927 55.1,8.152 55.1,8.4 55.1,8.648 54.999,8.873 54.836,9.036 54.673,9.199 54.448,9.3 54.2,9.3 53.952,9.3 53.727,9.199 53.564,9.036 53.401,8.873 53.3,8.648 53.3,8.4 53.3,8.152 53.401,7.927 53.564,7.764 53.727,7.601 53.952,7.5 54.2,7.5 Z"
       transform="translate(0.15,0.25)" />
    <path
       id="ID0.2982359016314149"
       fill="none"
       stroke="#fff100"
       stroke-linecap="round"
       stroke-linejoin="round"
       d="M 75.3,6.8 73,8.1"
       transform="translate(0.15,0.25)" />
    <path
       id="ID0.03489873092621565"
       fill="none"
       stroke="#fff100"
       stroke-linecap="round"
       stroke-linejoin="round"
       d="M 67.5,4.3 64.9,4.6"
       transform="translate(0.15,0.25)" />
    <path
       id="ID0.031841687858104706"
       fill="none"
       stroke="#231f20"
       stroke-linecap="round"
       stroke-linejoin="round"
       d="m 77.2,25 h -34 c -3.4,0 -5.7,-4.2 -4.5,-8.1 2.6,-8.1 9,-13.8 16.4,-13.8 1.8,0 3.6,0.3 5.3,0.9 -0.1,0 -0.2,0 -0.2,0.1 6.2,2.1 10.9,8.3 12.3,16.1 0.5,2.7 2.4,4.8 4.7,4.8 z"
       transform="translate(0.15,0.25)" />
  </g>
</svg>
