<?xml version="1.0" encoding="UTF-8"?>
<svg id="Layer_1" xmlns="http://www.w3.org/2000/svg" version="1.1" viewBox="0 0 288 216">
  <!-- Generator: Adobe Illustrator 29.8.3, SVG Export Plug-In . SVG Version: 2.1.1 Build 3)  -->
  <defs>
    <style>
      .st0 {
        fill: #838383;
      }

      .st1 {
        fill: #a03900;
      }

      .st2 {
        fill: #b8b8b8;
      }

      .st3 {
        fill: #c2c2c2;
      }

      .st4 {
        fill: #bababa;
      }

      .st5 {
        fill: #a6a6a6;
      }

      .st6 {
        fill: #cecece;
      }

      .st7 {
        fill: #9f3800;
      }

      .st8 {
        fill: #b2b2b2;
      }

      .st9 {
        fill: #d5d5d5;
      }

      .st10 {
        fill: #d54b00;
      }

      .st11 {
        fill: #171717;
      }

      .st12 {
        fill: #e0e0e0;
      }

      .st13 {
        fill: #bbb;
      }

      .st14 {
        fill: #e3e3e3;
      }

      .st15 {
        fill: #d34b00;
      }

      .st16 {
        fill: #bdbdbd;
      }

      .st17 {
        fill: #cbcbcb;
      }

      .st18 {
        fill: #6d6d6d;
      }

      .st19 {
        fill: #b3b3b3;
      }

      .st20 {
        fill: #828282;
      }

      .st21 {
        fill: #aeaeae;
      }

      .st22 {
        fill: #393939;
      }

      .st23 {
        fill: #0a0a0a;
      }

      .st24 {
        fill: #fefefe;
      }

      .st25 {
        fill: #b7b7b7;
      }

      .st26 {
        fill: #a1a1a1;
      }

      .st27 {
        fill: #242424;
      }

      .st28 {
        fill: #d54c00;
      }

      .st29 {
        fill: #323232;
      }

      .st30 {
        fill: #818181;
      }

      .st31 {
        fill: #161616;
      }
    </style>
  </defs>
  <path d="M239.74,103.46c.25.45,2.99,1.07,4.06,1.82,6.12,4.32,13.16,13.41,8.42,20.83-3.34,5.24-11.48,7.23-13.11,9.35-3.45,4.5-3.64,10.56-9.4,16.43-32.92,33.53-81,38.07-125.11,31.96-25.94-3.6-59.17-16.04-61.76-46.13-8.75-3.8-25.01-12.51-19.85-24.31,2.07-4.74,8.83-10.2,13.37-12.62,1.4-.75,6.91-2.5,7.14-2.8.32-.43,2.26-8.12,3.23-10.2,12.2-26.14,48.3-36.95,74.5-42.95,41.58-9.52,110.33,1.08,118.39,51.71.27,1.67-.05,6.61.11,6.91h0Z"/>
  <path class="st24" d="M198.29,60.12c18.13,5.31,39.53,24.43,28.22,44.56-16.9,30.1-84.48,42.69-115.87,37.67-25.34-4.06-72.24-18.51-55.99-53.07,11.69-24.85,66.04-39.24,91.56-39.68,21.06-.37,32.7,4.85,52.07,10.53h0Z"/>
  <path class="st28" d="M217.23,125.76c.67-.48,1.35-.63,2.04-.44.64.4,2.26,11.56-.27,11.91-6.06,3.19-5.36,3.8-12.14,4.05-1.56.06-26.05,11.61-28.39,13.18-3.76,2.52-2.22,5.21-3.17,5.99-.39.32-9.37,2.43-9.88,2.37-2.08-.26-2.92-2.26-4.69-2.95-5.16-2.01-27.01-1.39-32.88-.16-4.67.98-5.23,1.27-4.71,6.31l-22.23-2.34c.44-1.6,2.04-3.67,1.28-5.32-1.47-3.19-18.48-9.28-22.58-10.55-3.95-1.22-10.75-3.18-14.4-1.67-3.91,5.12-4.33-8.94-4.22-11.56l1.36-1.11c11.73,7.66,31.57,13.83,45.44,16.29,29.74,5.28,85.49-5.26,109.42-24.01h.02Z"/>
  <path class="st28" d="M66.43,155.08c5.75,9.49,11.19,14.29,23.32,12.93,2.3-.26,6.91-2.44,7.87-2.36,6.05.53,13.28,3.16,20.58,3.66,1.7.12,5.58-.49,6.62-.2.84.24,5.96,9.06,9.19,8.81-.15.98-.99.49-1.72.47-21.98-.6-46.13-3.95-64.82-15.96-1.32-1.3-4.06-5.05-3.3-6.88.68-1.64.95-1.76,2.26-.46h0Z"/>
  <path class="st10" d="M187.5,169.12c-2.64,2.22-30.01,10.23-30.9,8.19,2.67-2,5.43-10.24,7.45-11.4.56-.32,11.93-3.27,12.57-3.19.73.08,7.67,7.07,10.87,6.4h.01Z"/>
  <path class="st1" d="M62.37,133.47l1.01,13.49c.79.51,1.13-.53,1.85-.83-.7,1.91-.29,2.39-2.43,1.38-3.66-1.72-12.65-11.22-13.81-15.04-.41-1.34-1.22-12.47-.58-12.83,3.9,5.33,8.38,10.19,13.97,13.84h0,0Z"/>
  <path class="st1" d="M219,137.23c.25-2.97-.19-6.04-.55-8.98-.14-1.14.55-2.23-1.22-2.5,1.58-1.24,3.17-2.52,4.7-3.84l10.32-11.22c1.91,9-7.28,14.62-10.32,21.31-.79,1.73.19,3.33-.32,4.19-.54.9-1.99.7-2.61,1.03h0Z"/>
  <path class="st0" d="M239.81,115.14c.46-1.29.82-2.19.61-3.61,7.73,5.75,10.19,9.67,1.21,15.82-2.27,1.55-7.77,4.55-10.42,4.15.97-2.51,4.25-5.68,5.24-7.62.42-.51.64-.42.67.26,1.57-.15,2.29-.56,3.05-1.92l-.37-.65c1.26-1.41,1.49-2.35.57-3.89-.3-.73-.5-1.58-.57-2.53h0,0Z"/>
  <path class="st7" d="M66.43,155.08l-.81.09c-.15,2.55,1.31,4.82,1.85,7.25-8.49-5.46-14.3-10.34-16.74-20.69l7.45,6.71c4.03,3.01,5.62,2.28,8.25,6.63h0Z"/>
  <path class="st20" d="M203.66,149.09c.95-.36,2.19-2.26,3.36-.66.72.98.47,5.93.12,7.24-2.59,9.55-18.09,9.32-24.71,4.56-.28-.7,3.62-2.79,4.23-3l2.37.14c7.27,4.41,16.95,1.42,15.46-6.41-2.06.13-2.31-.43-.83-1.86h0Z"/>
  <path class="st0" d="M37.18,120.73l2.37,1.32c1.31-1.02,1.68-.4,2.08,1.16,0,1.01.34,6-.05,6.15-9.47-4.05-19.31-12.09-5.76-19.17-2.83,4.53-2.97,7.28,1.36,10.55h0Z"/>
  <path class="st15" d="M223.15,146.53c-.71.71-9.36,9.08-9.91,7.77,1.61-1.82-1.21-9.16-.8-9.83.75-1.25,6.18-3.01,7.55-3.77,2.06-.05,3.24,3.92,3.16,5.84h0Z"/>
  <path class="st19" d="M204.49,150.95c1.39,8.7-10.04,11.01-15.29,5.7l2.69-2.04c4.15-1.75,7.51-3.92,11.78-5.52.25.62.43,1.32.83,1.86h-.01Z"/>
  <path class="st20" d="M153.23,165.99c.38.05,1.36-.77,2.27.1-3.31,11.53-18.74,10.2-24.31,1.08.19-1.48,1.58-.71,2.65-.9,1.98,1.46,4.16,2.54,6.55,3.23l.33.95c4.43.95,8.6-.54,12.5-4.46h0Z"/>
  <path class="st19" d="M153.23,165.99c.95,3.71-8.3,6.3-10.58,5.86-1.6-.31-1.77-1.33-1.93-1.4,1.03-1.24,4.25-1.47,5.99-1.56.23-.48.09-.79-.41-.93-2.38,2.81-10.21,1.84-10.86-1.85,5.87-.55,11.95-.86,17.78-.12h0Z"/>
  <path class="st5" d="M76.04,154.14c1.29.98,1.83.93,1.6-.16,3.73,1.19,7.76,2.91,11.43,4.38,1.69,2.14-1.05,3.05-2.89,3.52-7.07-.33-11.33-2.23-14.3-8.96,1.32-.73,3.34.99,4.16,1.21h0Z"/>
  <path class="st7" d="M219.99,140.69c.92-.51,2.06-2.59,3.89-3.16.74-.23,5.68-.42,5.82-.06-.91,4.04-3.89,6.39-6.55,9.05-1.94-1.09-2.59-3.79-3.16-5.84h0Z"/>
  <path class="st8" d="M41.31,109.98c-.13,2.9.23,6.39.27,9.36.1,2.9-.74,3.09-2.53.57-1.37-1.2-2.81-.85-3.26-3.56,0-1.77.88-3.26,1.8-4.71.6-.9.74-1.58,1.7-2.43,1.2-.42,2.38-.76,2.02.77h0Z"/>
  <path class="st31" d="M204.49,150.95s.79-.6.99.31c.78,3.61-1.35,6.55-4.48,8.1-5.25,2.6-9.35-.36-14.33-2.14.5-.17,2.23-.63,2.53-.57,3.56.65,4.84,2.89,9.4,1.7,4.19-1.09,4.59-3.65,5.9-7.41h0Z"/>
  <path class="st27" d="M146.72,168.9c-1.96,1.04-3.8,1.44-5.99,1.56-2.44-1.03-5.59-1.57-6.88-4.18.52-.09,1.07-.11,1.6-.16,2.93,3.35,7.11,3.14,10.86,1.85,1.29-.53,1.49-.02.41.93Z"/>
  <path class="st11" d="M77.64,153.98c1.53,3.31,5.1,4,8.22,4.7-3.29,2.62-8.77-.88-9.82-4.55.41.11,1.25-.27,1.6-.16h0Z"/>
  <path class="st30" d="M89.07,158.36c1.47.59,3.52.99,4.58,2.14-2.5,1.55-4.67,1.51-7.47,1.38l2.89-3.52h0Z"/>
  <path class="st29" d="M240.18,122.22c-.55,1.37-1.61,1.88-3.05,1.92l-.67-.26c.11-.22.84-2.35,1.29-3.36.25,1.22,1.13.27,2.63-2.85.35,1.54,2.77-.57-.2,4.55Z"/>
  <path class="st21" d="M239.81,115.14c2.48.34.41,1.83.57,2.53.5,2.38-.58,3.72-2.81,4.31l.18-1.47c.77-1.73,1.43-3.59,2.06-5.38h0Z"/>
  <path class="st23" d="M41.63,123.21c-2.13-.32-3.07-1.44-4.45-2.48l2.69,1.02c.58-.05-.43-1.5-.83-1.85,1.58.64,2.16,1.35,2.53-.57.02,1.21.05,2.6.06,3.88Z"/>
  <path class="st23" d="M35.78,116.34c-.51-3.1.6-2.92,1.8-4.71l-1.8,4.71Z"/>
  <path class="st18" d="M41.31,109.98l-2.02-.77c.71-.63,1.79-1.35,2.78-1.25-.11.66-.74,1.47-.77,2.02h.01Z"/>
  <path class="st23" d="M37.42,110.03l-.66-.25c-.06-1.99.51-2.75,2.62-2.85l-1.96,3.1Z"/>
  <path class="st25" d="M155.03,58.73c-6.65,7.14-13.9,15.01-17.7,24.06l16.39-7.64c.83-.82,2.31-.24,2.87-.4l.67.26c-2.53,1.51-4.98,3.39-7.61,4.8-4.98,2.66-14.47,5.38-16.77,10.52-.91-.57-1.86-1.45-2.85-2.63-.87-.02-.99,1.58-2.35,1.67-5.79.4-18.13-3.8-26.27-3.98-4.57-.1-9.97,1.72-14.21-.61,5.34-1.3,12.79-1.66,18.39-1.27,6.89.48,13.39,2.83,20.28,2.98-1.49-3.19-18.37-12.59-18.61-13.73-.39-1.88,1.58-2.26,3.14-1.59,5.1,2.21,11.88,8.26,17.15,10.94-1.02-6.38-3.96-12.89-2.55-19.48,3.6,1.75,6.92,21.85,8.01,22.33,1.01.45,4.63-7.4,5.54-8.82,4.45-7.02,9.58-13.21,16.06-18.36,1.21-.56,1.24-.12.41.93v.02h.01Z"/>
  <path class="st2" d="M175.72,75.14c1.27.03,1.43.08.41.93-11.92,1.79-23.35,4.51-33.12,11.97,15.79-.36,31.48,1.3,46.99,4.14,1.02.28,1.38.67,1.09,1.19-11.33-.96-22.69-2.77-34.06-3.25-6.99-.29-13.98.55-20.94-.11,2.93-.57,3.7-2.5,5.34-3.61,10.98-7.4,20.92-11.25,34.29-11.27h0Z"/>
  <path class="st13" d="M139.46,101.34c-.43-2.53-1.56-5.26-.78-8.01l1.95,3.92c4.12,1.1,9.37,2.04,13.3,3.44,7.05,2.51,17.63,7.21,23.2,12,.87.75,3.01,2.23,2.91,3.43-3.9-1.58-7.33-4.67-11.01-6.51-6.93-3.47-17.34-7.55-24.82-9.43-2.65-.67-2.54-.79-3.84.75.17,1.38-.04,1.53-.93.41h.02,0Z"/>
  <path class="st16" d="M130.04,87.7c1.44.04,2.88,1.12,2.85,2.63-.07.17.32.86.1,1.2-.52.8-11.47.76-13.84,1.11-3.41.49-6.71,1.65-10.05,2.47-7.48,3.44-15.48,5.79-23.08,8.86-.21-.32-.11-.54.26-.67,13.9-6.85,29.46-14.84,45.43-11.89l-1.66-3.71h-.01Z"/>
  <path class="st4" d="M103.24,121.38c-1.29-.32-.03-1.65.35-2.34,4.73-8.77,18.8-18.99,27.9-23.06l-28.25,25.41h0Z"/>
  <path class="st3" d="M140.39,100.93c1.22,5.26,2.96,10.42,4.34,15.62.33,1.25,1.05,2.73.48,3.96-3.59-5.7-4.63-12.64-5.75-19.17.34-.02.71-.16.93-.41h0Z"/>
  <path class="st12" d="M190.01,92.19c1.98.36,4.53.37,6.56.98-1.38,1.38-3.78.35-5.48.21l-1.09-1.19h0Z"/>
  <path class="st6" d="M155.03,58.73l-.41-.93c1.3-1.03,2.41-2.92,4.23-3.01-.64,1.73-2.67,2.7-3.81,3.94h0Z"/>
  <path class="st9" d="M175.72,75.14c1.37,0,2.97-.83,4.54.21.8.83-3.57.64-4.13.72l-.41-.93h0Z"/>
  <path class="st14" d="M86.01,103.98c-.98.4-2.13,1.57-3.39,1.78l-.21-.47c.62-1.58,2.75-1.44,3.85-1.99l-.26.67h.01Z"/>
  <path class="st17" d="M156.59,74.75c.76-.21,1.85-1.86,3.12-1.12l.21.47c-.65.62-2.12.59-2.66.91l-.67-.26h0Z"/>
  <path class="st26" d="M237.13,124.13l3.05-1.92c-.31.53.44,2.88-3.05,1.92Z"/>
  <path class="st22" d="M146.72,168.9l-.41-.93c.73-.25,1.69-1.55,2.78-1.25-.23,2.05-1.44,1.68-2.37,2.18Z"/>
</svg>