<?xml version="1.0" encoding="UTF-8" standalone="no"?>
<svg
   id="Layer_1"
   version="1.1"
   viewBox="0 0 231.77588 144.46799"
   sodipodi:docname="Tambourine.svg"
   width="231.77588"
   height="144.46799"
   xmlns:inkscape="http://www.inkscape.org/namespaces/inkscape"
   xmlns:sodipodi="http://sodipodi.sourceforge.net/DTD/sodipodi-0.dtd"
   xmlns="http://www.w3.org/2000/svg"
   xmlns:svg="http://www.w3.org/2000/svg">
  <sodipodi:namedview
     id="namedview89"
     pagecolor="#ffffff"
     bordercolor="#000000"
     borderopacity="0.25"
     inkscape:showpageshadow="2"
     inkscape:pageopacity="0.0"
     inkscape:pagecheckerboard="0"
     inkscape:deskcolor="#d1d1d1" />
  <!-- Generator: Adobe Illustrator 29.8.3, SVG Export Plug-In . SVG Version: 2.1.1 Build 3)  -->
  <defs
     id="defs4">
    <style
       id="style2">
      .st0 {
        fill: #838383;
      }

      .st1 {
        fill: #a03900;
      }

      .st2 {
        fill: #b8b8b8;
      }

      .st3 {
        fill: #c2c2c2;
      }

      .st4 {
        fill: #bababa;
      }

      .st5 {
        fill: #a6a6a6;
      }

      .st6 {
        fill: #cecece;
      }

      .st7 {
        fill: #9f3800;
      }

      .st8 {
        fill: #b2b2b2;
      }

      .st9 {
        fill: #d5d5d5;
      }

      .st10 {
        fill: #d54b00;
      }

      .st11 {
        fill: #171717;
      }

      .st12 {
        fill: #e0e0e0;
      }

      .st13 {
        fill: #bbb;
      }

      .st14 {
        fill: #e3e3e3;
      }

      .st15 {
        fill: #d34b00;
      }

      .st16 {
        fill: #bdbdbd;
      }

      .st17 {
        fill: #cbcbcb;
      }

      .st18 {
        fill: #6d6d6d;
      }

      .st19 {
        fill: #b3b3b3;
      }

      .st20 {
        fill: #828282;
      }

      .st21 {
        fill: #aeaeae;
      }

      .st22 {
        fill: #393939;
      }

      .st23 {
        fill: #0a0a0a;
      }

      .st24 {
        fill: #fefefe;
      }

      .st25 {
        fill: #b7b7b7;
      }

      .st26 {
        fill: #a1a1a1;
      }

      .st27 {
        fill: #242424;
      }

      .st28 {
        fill: #d54c00;
      }

      .st29 {
        fill: #323232;
      }

      .st30 {
        fill: #818181;
      }

      .st31 {
        fill: #161616;
      }
    </style>
  </defs>
  <path
     d="m 217.74024,61.772469 c 0.25,0.45 2.99,1.07 4.06,1.82 6.12,4.32 13.16,13.41 8.42,20.83 -3.34,5.24 -11.48,7.23 -13.11,9.35 -3.45,4.5 -3.64,10.560001 -9.4,16.430001 -32.92,33.53 -81,38.07 -125.110005,31.96 -25.94,-3.6 -59.17,-16.04 -61.76,-46.130001 -8.75,-3.8 -25.0099996,-12.51 -19.84999956,-24.31 2.06999996,-4.74 8.82999996,-10.2 13.36999956,-12.62 1.4,-0.75 6.91,-2.5 7.14,-2.8 0.32,-0.43 2.26,-8.12 3.23,-10.2 12.2,-26.14 48.3,-36.9500001 74.5,-42.9500001 41.580005,-9.52 110.330005,1.08 118.390005,51.7100001 0.27,1.67 -0.05,6.61 0.11,6.91 v 0 z"
     id="path6" />
  <path
     class="st24"
     d="m 176.29024,18.432469 c 18.13,5.31 39.53,24.43 28.22,44.56 -16.9,30.1 -84.48,42.690001 -115.870005,37.670001 -25.34,-4.060001 -72.24,-18.510001 -55.99,-53.070001 11.69,-24.85 66.04,-39.2400001 91.560005,-39.6800001 21.06,-0.37 32.7,4.8500001 52.07,10.5300001 v 0 z"
     id="path8" />
  <path
     class="st28"
     d="m 195.23024,84.072469 c 0.67,-0.48 1.35,-0.63 2.04,-0.44 0.64,0.4 2.26,11.56 -0.27,11.91 -6.06,3.19 -5.36,3.8 -12.14,4.05 -1.56,0.06 -26.05,11.610001 -28.39,13.180001 -3.76,2.52 -2.22,5.21 -3.17,5.99 -0.39,0.32 -9.37,2.43 -9.88,2.37 -2.08,-0.26 -2.92,-2.26 -4.69,-2.95 -5.16,-2.01 -27.01,-1.39 -32.88,-0.16 -4.67,0.98 -5.23,1.27 -4.71,6.31 l -22.230005,-2.34 c 0.44,-1.6 2.04,-3.67 1.28,-5.32 -1.47,-3.19 -18.48,-9.28 -22.58,-10.55 -3.95,-1.22 -10.75,-3.18 -14.4,-1.67 -3.91,5.12 -4.33,-8.940001 -4.22,-11.560001 l 1.36,-1.11 c 11.73,7.66 31.57,13.830001 45.44,16.290001 29.740005,5.28 85.490005,-5.26 109.420005,-24.010001 h 0.02 z"
     id="path10" />
  <path
     class="st28"
     d="m 44.430235,113.39247 c 5.75,9.49 11.19,14.29 23.32,12.93 2.3,-0.26 6.91,-2.44 7.87,-2.36 6.05,0.53 13.28,3.16 20.58,3.66 1.7,0.12 5.580005,-0.49 6.620005,-0.2 0.84,0.24 5.96,9.06 9.19,8.81 -0.15,0.98 -0.99,0.49 -1.72,0.47 -21.980005,-0.6 -46.130005,-3.95 -64.820005,-15.96 -1.32,-1.3 -4.06,-5.05 -3.3,-6.88 0.68,-1.64 0.95,-1.76 2.26,-0.46 v 0 z"
     id="path12" />
  <path
     class="st10"
     d="m 165.50024,127.43247 c -2.64,2.22 -30.01,10.23 -30.9,8.19 2.67,-2 5.43,-10.24 7.45,-11.4 0.56,-0.32 11.93,-3.27 12.57,-3.19 0.73,0.08 7.67,7.07 10.87,6.4 z"
     id="path14" />
  <path
     class="st1"
     d="m 40.370235,91.782469 1.01,13.490001 c 0.79,0.51 1.13,-0.53 1.85,-0.83 -0.7,1.91 -0.29,2.39 -2.43,1.38 -3.66,-1.72 -12.65,-11.220001 -13.81,-15.040001 -0.41,-1.34 -1.22,-12.47 -0.58,-12.83 3.9,5.33 8.38,10.19 13.97,13.84 v 0 0 z"
     id="path16" />
  <path
     class="st1"
     d="m 197.00024,95.542469 c 0.25,-2.97 -0.19,-6.04 -0.55,-8.98 -0.14,-1.14 0.55,-2.23 -1.22,-2.5 1.58,-1.24 3.17,-2.52 4.7,-3.84 l 10.32,-11.22 c 1.91,9 -7.28,14.62 -10.32,21.31 -0.79,1.73 0.19,3.33 -0.32,4.19 -0.54,0.9 -1.99,0.7 -2.61,1.03 v 0 z"
     id="path18" />
  <path
     class="st0"
     d="m 217.81024,73.452469 c 0.46,-1.29 0.82,-2.19 0.61,-3.61 7.73,5.75 10.19,9.67 1.21,15.82 -2.27,1.55 -7.77,4.55 -10.42,4.15 0.97,-2.51 4.25,-5.68 5.24,-7.62 0.42,-0.51 0.64,-0.42 0.67,0.26 1.57,-0.15 2.29,-0.56 3.05,-1.92 l -0.37,-0.65 c 1.26,-1.41 1.49,-2.35 0.57,-3.89 -0.3,-0.73 -0.5,-1.58 -0.57,-2.53 v 0 0 z"
     id="path20" />
  <path
     class="st7"
     d="m 44.430235,113.39247 -0.81,0.09 c -0.15,2.55 1.31,4.82 1.85,7.25 -8.49,-5.46 -14.3,-10.34 -16.74,-20.69 l 7.45,6.71 c 4.03,3.01 5.62,2.28 8.25,6.63 v 0 z"
     id="path22" />
  <path
     class="st20"
     d="m 181.66024,107.40247 c 0.95,-0.36 2.19,-2.26 3.36,-0.66 0.72,0.98 0.47,5.93 0.12,7.24 -2.59,9.55 -18.09,9.32 -24.71,4.56 -0.28,-0.7 3.62,-2.79 4.23,-3 l 2.37,0.14 c 7.27,4.41 16.95,1.42 15.46,-6.41 -2.06,0.13 -2.31,-0.43 -0.83,-1.86 v 0 z"
     id="path24" />
  <path
     class="st0"
     d="m 15.180235,79.042469 2.37,1.32 c 1.31,-1.02 1.68,-0.4 2.08,1.16 0,1.01 0.34,6 -0.05,6.15 -9.47,-4.05 -19.30999956,-12.09 -5.76,-19.17 -2.83,4.53 -2.97,7.28 1.36,10.55 v 0 z"
     id="path26" />
  <path
     class="st15"
     d="m 201.15024,104.84247 c -0.71,0.71 -9.36,9.08 -9.91,7.77 1.61,-1.82 -1.21,-9.16 -0.8,-9.83 0.75,-1.25 6.18,-3.010001 7.55,-3.770001 2.06,-0.05 3.24,3.920001 3.16,5.840001 v 0 z"
     id="path28" />
  <path
     class="st19"
     d="m 182.49024,109.26247 c 1.39,8.7 -10.04,11.01 -15.29,5.7 l 2.69,-2.04 c 4.15,-1.75 7.51,-3.92 11.78,-5.52 0.25,0.62 0.43,1.32 0.83,1.86 z"
     id="path30" />
  <path
     class="st20"
     d="m 131.23024,124.30247 c 0.38,0.05 1.36,-0.77 2.27,0.1 -3.31,11.53 -18.74,10.2 -24.31,1.08 0.19,-1.48 1.58,-0.71 2.65,-0.9 1.98,1.46 4.16,2.54 6.55,3.23 l 0.33,0.95 c 4.43,0.95 8.6,-0.54 12.5,-4.46 v 0 z"
     id="path32" />
  <path
     class="st19"
     d="m 131.23024,124.30247 c 0.95,3.71 -8.3,6.3 -10.58,5.86 -1.6,-0.31 -1.77,-1.33 -1.93,-1.4 1.03,-1.24 4.25,-1.47 5.99,-1.56 0.23,-0.48 0.09,-0.79 -0.41,-0.93 -2.38,2.81 -10.21,1.84 -10.86,-1.85 5.87,-0.55 11.95,-0.86 17.78,-0.12 v 0 z"
     id="path34" />
  <path
     class="st5"
     d="m 54.040235,112.45247 c 1.29,0.98 1.83,0.93 1.6,-0.16 3.73,1.19 7.76,2.91 11.43,4.38 1.69,2.14 -1.05,3.05 -2.89,3.52 -7.07,-0.33 -11.33,-2.23 -14.3,-8.96 1.32,-0.73 3.34,0.99 4.16,1.21 v 0 z"
     id="path36" />
  <path
     class="st7"
     d="m 197.99024,99.002469 c 0.92,-0.51 2.06,-2.59 3.89,-3.16 0.74,-0.23 5.68,-0.42 5.82,-0.06 -0.91,4.04 -3.89,6.390001 -6.55,9.050001 -1.94,-1.09 -2.59,-3.79 -3.16,-5.840001 v 0 z"
     id="path38" />
  <path
     class="st8"
     d="m 19.310235,68.292469 c -0.13,2.9 0.23,6.39 0.27,9.36 0.1,2.9 -0.74,3.09 -2.53,0.57 -1.37,-1.2 -2.81,-0.85 -3.26,-3.56 0,-1.77 0.88,-3.26 1.8,-4.71 0.6,-0.9 0.74,-1.58 1.7,-2.43 1.2,-0.42 2.38,-0.76 2.02,0.77 z"
     id="path40" />
  <path
     class="st31"
     d="m 182.49024,109.26247 c 0,0 0.79,-0.6 0.99,0.31 0.78,3.61 -1.35,6.55 -4.48,8.1 -5.25,2.6 -9.35,-0.36 -14.33,-2.14 0.5,-0.17 2.23,-0.63 2.53,-0.57 3.56,0.65 4.84,2.89 9.4,1.7 4.19,-1.09 4.59,-3.65 5.9,-7.41 v 0 z"
     id="path42" />
  <path
     class="st27"
     d="m 124.72024,127.21247 c -1.96,1.04 -3.8,1.44 -5.99,1.56 -2.44,-1.03 -5.59,-1.57 -6.88,-4.18 0.52,-0.09 1.07,-0.11 1.6,-0.16 2.93,3.35 7.11,3.14 10.86,1.85 1.29,-0.53 1.49,-0.02 0.41,0.93 z"
     id="path44" />
  <path
     class="st11"
     d="m 55.640235,112.29247 c 1.53,3.31 5.1,4 8.22,4.7 -3.29,2.62 -8.77,-0.88 -9.82,-4.55 0.41,0.11 1.25,-0.27 1.6,-0.16 v 0 z"
     id="path46" />
  <path
     class="st30"
     d="m 67.070235,116.67247 c 1.47,0.59 3.52,0.99 4.58,2.14 -2.5,1.55 -4.67,1.51 -7.47,1.38 z"
     id="path48" />
  <path
     class="st29"
     d="m 218.18024,80.532469 c -0.55,1.37 -1.61,1.88 -3.05,1.92 l -0.67,-0.26 c 0.11,-0.22 0.84,-2.35 1.29,-3.36 0.25,1.22 1.13,0.27 2.63,-2.85 0.35,1.54 2.77,-0.57 -0.2,4.55 z"
     id="path50" />
  <path
     class="st21"
     d="m 217.81024,73.452469 c 2.48,0.34 0.41,1.83 0.57,2.53 0.5,2.38 -0.58,3.72 -2.81,4.31 l 0.18,-1.47 c 0.77,-1.73 1.43,-3.59 2.06,-5.38 v 0 z"
     id="path52" />
  <path
     class="st23"
     d="m 19.630235,81.522469 c -2.13,-0.32 -3.07,-1.44 -4.45,-2.48 l 2.69,1.02 c 0.58,-0.05 -0.43,-1.5 -0.83,-1.85 1.58,0.64 2.16,1.35 2.53,-0.57 0.02,1.21 0.05,2.6 0.06,3.88 z"
     id="path54" />
  <path
     class="st23"
     d="m 13.780235,74.652469 c -0.51,-3.1 0.6,-2.92 1.8,-4.71 z"
     id="path56" />
  <path
     class="st18"
     d="m 19.310235,68.292469 -2.02,-0.77 c 0.71,-0.63 1.79,-1.35 2.78,-1.25 -0.11,0.66 -0.74,1.47 -0.77,2.02 z"
     id="path58" />
  <path
     class="st23"
     d="m 15.420235,68.342469 -0.66,-0.25 c -0.06,-1.99 0.51,-2.75 2.62,-2.85 z"
     id="path60" />
  <path
     class="st25"
     d="m 133.03024,17.042469 c -6.65,7.14 -13.9,15.01 -17.7,24.06 l 16.39,-7.64 c 0.83,-0.82 2.31,-0.24 2.87,-0.4 l 0.67,0.26 c -2.53,1.51 -4.98,3.39 -7.61,4.8 -4.98,2.66 -14.47,5.38 -16.77,10.52 -0.91,-0.57 -1.86,-1.45 -2.85,-2.63 -0.87,-0.02 -0.99,1.58 -2.35,1.67 -5.790005,0.4 -18.130005,-3.8 -26.270005,-3.98 -4.57,-0.1 -9.97,1.72 -14.21,-0.61 5.34,-1.3 12.79,-1.66 18.39,-1.27 6.89,0.48 13.39,2.83 20.280005,2.98 -1.49,-3.19 -18.370005,-12.59 -18.610005,-13.73 -0.39,-1.88 1.58,-2.26 3.14,-1.59 5.1,2.21 11.880005,8.26 17.150005,10.94 -1.02,-6.38 -3.96,-12.89 -2.55,-19.48 3.6,1.75 6.92,21.85 8.01,22.33 1.01,0.45 4.63,-7.4 5.54,-8.82 4.45,-7.02 9.58,-13.21 16.06,-18.36 1.21,-0.56 1.24,-0.12 0.41,0.93 v 0.02 z"
     id="path62" />
  <path
     class="st2"
     d="m 153.72024,33.452469 c 1.27,0.03 1.43,0.08 0.41,0.93 -11.92,1.79 -23.35,4.51 -33.12,11.97 15.79,-0.36 31.48,1.3 46.99,4.14 1.02,0.28 1.38,0.67 1.09,1.19 -11.33,-0.96 -22.69,-2.77 -34.06,-3.25 -6.99,-0.29 -13.98,0.55 -20.94,-0.11 2.93,-0.57 3.7,-2.5 5.34,-3.61 10.98,-7.4 20.92,-11.25 34.29,-11.27 v 0 z"
     id="path64" />
  <path
     class="st13"
     d="m 117.46024,59.652469 c -0.43,-2.53 -1.56,-5.26 -0.78,-8.01 l 1.95,3.92 c 4.12,1.1 9.37,2.04 13.3,3.44 7.05,2.51 17.63,7.21 23.2,12 0.87,0.75 3.01,2.23 2.91,3.43 -3.9,-1.58 -7.33,-4.67 -11.01,-6.51 -6.93,-3.47 -17.34,-7.55 -24.82,-9.43 -2.65,-0.67 -2.54,-0.79 -3.84,0.75 0.17,1.38 -0.04,1.53 -0.93,0.41 z"
     id="path66" />
  <path
     class="st16"
     d="m 108.04024,46.012469 c 1.44,0.04 2.88,1.12 2.85,2.63 -0.07,0.17 0.32,0.86 0.1,1.2 -0.52,0.8 -11.470005,0.76 -13.840005,1.11 -3.41,0.49 -6.71,1.65 -10.05,2.47 -7.48,3.44 -15.48,5.79 -23.08,8.86 -0.21,-0.32 -0.11,-0.54 0.26,-0.67 13.9,-6.85 29.46,-14.84 45.430005,-11.89 l -1.66,-3.71 z"
     id="path68" />
  <path
     class="st4"
     d="m 81.240235,79.692469 c -1.29,-0.32 -0.03,-1.65 0.35,-2.34 4.73,-8.77 18.800005,-18.99 27.900005,-23.06 l -28.250005,25.41 v 0 z"
     id="path70" />
  <path
     class="st3"
     d="m 118.39024,59.242469 c 1.22,5.26 2.96,10.42 4.34,15.62 0.33,1.25 1.05,2.73 0.48,3.96 -3.59,-5.7 -4.63,-12.64 -5.75,-19.17 0.34,-0.02 0.71,-0.16 0.93,-0.41 z"
     id="path72" />
  <path
     class="st12"
     d="m 168.01024,50.502469 c 1.98,0.36 4.53,0.37 6.56,0.98 -1.38,1.38 -3.78,0.35 -5.48,0.21 l -1.09,-1.19 v 0 z"
     id="path74" />
  <path
     class="st6"
     d="m 133.03024,17.042469 -0.41,-0.93 c 1.3,-1.03 2.41,-2.92 4.23,-3.01 -0.64,1.73 -2.67,2.7 -3.81,3.94 v 0 z"
     id="path76" />
  <path
     class="st9"
     d="m 153.72024,33.452469 c 1.37,0 2.97,-0.83 4.54,0.21 0.8,0.83 -3.57,0.64 -4.13,0.72 z"
     id="path78" />
  <path
     class="st14"
     d="m 64.010235,62.292469 c -0.98,0.4 -2.13,1.57 -3.39,1.78 l -0.21,-0.47 c 0.62,-1.58 2.75,-1.44 3.85,-1.99 l -0.26,0.67 h 0.01 z"
     id="path80" />
  <path
     class="st17"
     d="m 134.59024,33.062469 c 0.76,-0.21 1.85,-1.86 3.12,-1.12 l 0.21,0.47 c -0.65,0.62 -2.12,0.59 -2.66,0.91 z"
     id="path82" />
  <path
     class="st26"
     d="m 215.13024,82.442469 3.05,-1.92 c -0.31,0.53 0.44,2.88 -3.05,1.92 z"
     id="path84" />
  <path
     class="st22"
     d="m 124.72024,127.21247 -0.41,-0.93 c 0.73,-0.25 1.69,-1.55 2.78,-1.25 -0.23,2.05 -1.44,1.68 -2.37,2.18 z"
     id="path86" />
</svg>
