<?xml version="1.0" encoding="UTF-8"?>
<svg id="Layer_1" xmlns="http://www.w3.org/2000/svg" version="1.1" viewBox="0 0 216 216">
  <!-- Generator: Adobe Illustrator 29.8.3, SVG Export Plug-In . SVG Version: 2.1.1 Build 3)  -->
  <defs>
    <style>
      .st0 {
        fill: #782c6c;
      }

      .st1 {
        fill: #af2e9b;
      }

      .st2 {
        fill: #d843c1;
      }

      .st3 {
        fill: #df9bd5;
      }

      .st4 {
        fill: #efade5;
      }

      .st5 {
        fill: #d740c0;
      }

      .st6 {
        fill: #080307;
      }

      .st7 {
        fill: #f2b1e8;
      }

      .st8 {
        fill: #da41c2;
      }

      .st9 {
        fill: #d441bd;
      }

      .st10 {
        fill: #d33fbc;
      }

      .st11 {
        fill: #010001;
      }
    </style>
  </defs>
  <path d="M130.3,43.6c24.77,1.65,60.37,11.55,69.77,37.12,10.61,28.85,11.37,58.15-15.9,77.97-36.86,26.79-118.84,26.59-156.15,1.25-25.66-17.43-23.96-63.64-3.9-84.59,30.42-31.77,64.36-34.54,106.19-31.75h-.01Z"/>
  <g>
    <path class="st1" d="M17.58,99.14c3.95,13.15,5.1,24.88,16.27,34.12,26.89,22.24,82.45,27.06,115.46,19.5,12.17-2.79,35.01-13.18,44.96-20.7,1.33-1.01,2.73-3.26,4.2-4.34-9.23,28.74-34.84,37.16-62.08,42.41-30.22,5.82-80.3,2.9-106.07-15.44-17-12.09-17.87-37.08-12.73-55.56h0Z"/>
    <path class="st7" d="M93.69,57.65c6.18.59,9.36-.04,13.85-4.23,2.17-2.02,1.81-3.95,5.53-4.19,1.04-.07,6.6.2,7.03.52.21.16.36,1.61.82,2.24,6.32,8.75,19.62,5.26,28.36,2.56,2.81-1.04,7.89.88,8.99,3.5-5.98.59-9.67,3.52-10.47,9.66-4.66-3.53-36.56-6.55-38.92-4.41l-1.34-.11c-1.54-1.15-3.82-2.24-3.3.37-.48,1.96-8.28,2.75-8.08.02-.97,1.25-1.42.91-1.11-.65-1.22-1.3-1.75-3.54-1.37-5.29h.01Z"/>
    <path class="st7" d="M172.68,66.54c2.7,4.15,1.29,10.4-4.07,11.12-6.52.87-9.09-6.56-15.23-7.26-.1-10.97,12.91-6.39,19.3-3.86Z"/>
    <path class="st5" d="M97.45,53.29c-3.01.27-3.97.41-7-.64-.53-.18-4.89-2.17-3.71-2.98l18.49-.46c-.43.78-1.19,1.61-1.88,2.17l-5.9,1.9h0Z"/>
    <path class="st4" d="M141.44,51.12c.98.32,1.52.54.5,1.19-4.88,1.72-14.17,2.26-17.73-2.09,5.71.02,11.56.3,17.24.9h-.01Z"/>
    <path class="st9" d="M149.28,54.55c.3-.09.72-.82,1.61-.94,4.15-.57,10.65,3.65,14.88,4.39.07,1.01-1.34.45-2.04.43-1.52-.04-4.12-.05-5.46-.38-2.37-.58-5.99-3.72-8.99-3.5Z"/>
    <path class="st10" d="M71.49,53.24c-1.66,4.16-7.96,4.33-11.83,4.37l4.37-2.1,7.46-2.27Z"/>
    <path class="st3" d="M103.35,51.39c-2.31,1.89-3.17,1.65-5.9,1.9,1.36-1.12,4.48-3.11,5.9-1.9Z"/>
    <path class="st0" d="M141.44,51.12c.76.08,1.54.08,2.3.16-.14,1.01-1.16.8-1.8,1.02l-.5-1.19h0Z"/>
    <g>
      <path class="st8" d="M93.69,57.65c1.32.67,1.8,3.91,1.37,5.29-5.59,7.39,10.51,4.4,12.54.56l1.28-.19c-.1-.47-.21-1.17.1-1.33,3.79-2.04,35.15,1.54,38.56,4.24l.26,1.5c-1.45,11.14,7.16,19.27,14.78,25.71,1.89,1.6,8.74,7.88,10.64,7.52,4.38-.82.54-5.13-1.01-6.74-6.55-6.82-18.72-12.65-18.82-23.81,1.1-1.25,2.74-1,4.92.74,5.63,6.7,17.23,8.44,13.72-3.47l.66-1.14c5.61,2.22,17.9,9.24,20.85,14.48,2.02,3.58,6.76,22.03,7.29,26.57,1,8.45.18,12.25-2.35,20.13-2.01,4.3-4.43,6.14-8.58,8.68-16.16,9.9-35.09,17.74-54.09,19.78-32.16,3.45-75.53-1.14-101.8-21.32-10.66-8.19-15.48-22.81-16.42-35.73,3.72-13.39,11.86-22.42,23.13-30.13.43-.06.35.61.22.87-1.45,2.92-11.4,12.88-14.39,16.31-1.03,1.18-3.22,2.35-3.86,3.67-1.26,2.58.79,3.55,3.2,2.38,1.14-.55,15.75-16.75,17.13-18.73,2.15-3.09,2.74-7.25,4.03-9.01.28-.38,5.03-3.49,5.51-3.62,1.79-.49,2.67.59,4.22.6,5,.04,13.23-.44,16.76-4.36,2.57-2.86,1.41-6.08,6.58-6.04,1.03,0,4.9,3.71,6.8,4.64,2.5,1.23,4.01,1.66,6.78,1.92v.03Z"/>
      <g>
        <path d="M59.87,69.31c11.26-.76,18.05,5.63,14.14,16.85-2.85,8.18-11.36,18.36-17.69,24.3-2.58,2.42-6.34,4.9-6.5-.59,5.89-7.3,13.46-13.34,17.65-21.91,2.72-5.54,5.25-11.92-3.19-13.64-10.87-2.22-23.07,10.1-28.28,18.41-1.26,2.02-3.6,8.99-5.66,9.05-5.89.15.77-10.51,2.09-12.53,5.78-8.83,16.34-19.18,27.43-19.93h0Z"/>
        <path d="M81.75,120.13c-3.96,3.59-4.52-5.86-4.53-7.93-.02-12.47,5.34-43.59,24.13-35.6,10.66,4.53,16.11,31.25,15.85,41.8-.15,5.81-4.47,5.99-5.24,2.38-.61-2.83-.25-7.93-.68-11.28-1.02-7.9-2.84-14.76-6.5-21.86-7-13.55-15.79-6.65-19.53,4.6-2.3,6.91-2.58,14.77-2.98,22.03-.1,1.77,1.07,4.42-.52,5.86Z"/>
        <path class="st11" d="M133.17,77.21c8.28-.08,17.63,10.62,21.32,17.32,1.18,2.14,6.28,12.96,5.92,14.59-.34,1.53-1.51,2.4-3.07,1.85-2.06-.73-7.08-14.38-9.11-17.46-2.91-4.4-10.99-12.62-16.66-11.33-11.21,2.56-5.4,20.67-3.13,28.03.67,2.19,3.45,6.29,2.32,8.24-2.35,4.06-5.7-4.14-6.35-5.81-2.36-6.07-5.1-17.1-4.05-23.44.99-6,6.47-11.93,12.81-11.99h0Z"/>
        <path class="st7" d="M179.52,78.72c5.98-4.81,15.96,8.23,8.48,12.52s-14.38-7.77-8.48-12.52Z"/>
        <path class="st6" d="M108.87,63.3c-.13.12-.18.99-.65,1.39-3.76,3.2-8.86,4.66-13.79,3.36-2.96-.78-2.23-4.8.62-5.13.17.19.81.51,1.11.65.73,2.55,6.66,2.14,8.08-.02-1.09-.99-4.53-2.9.05-2.72,1.68.06,3.99.66,4.58,2.46h0Z"/>
      </g>
    </g>
    <path class="st2" d="M104.24,63.56c.41.37.82.19.49,1.18-3.36,1.16-6.29,1.72-9.88,1.05l1.31-2.21c2.34,1.1,5.85,1.47,8.08-.02Z"/>
  </g>
</svg>