<?xml version="1.0" encoding="UTF-8"?>
<svg id="Layer_1" xmlns="http://www.w3.org/2000/svg" version="1.1" viewBox="0 0 72 216">
  <!-- Generator: Adobe Illustrator 29.8.3, SVG Export Plug-In . SVG Version: 2.1.1 Build 3)  -->
  <defs>
    <style>
      .st0 {
        fill: #7c7978;
      }

      .st1 {
        fill: #2b2b2b;
      }

      .st2 {
        fill: #733c23;
      }
    </style>
  </defs>
  <path d="M45.02,53.31c-.46,1-.56,18.74-.82,21.95-2.42,30.18-1.24,55.94-1.54,85.79-.06,5.71.13,22.13-3.14,26.2s-12.59,3.19-14.76-.99c-1.58-3.04-1.12-10.84-1.11-14.61.08-21.92,1.3-44.43,1.86-66.41.45-17.64,2.23-35.34,1.81-52.91-6.78-6.18-11.19-14.5-5.22-22.84,11.91-16.62,38.3-.6,28.19,17.6-1.12,2.02-4.97,5.55-5.28,6.21h0Z"/>
  <path class="st2" d="M37.96,55.63c1.53,1.07-1.66,25.98-1.91,29.82-1.55,23.88-.05,45.88-.05,69.55,0,5.03.27,22.9-1.48,26.43-1.01,2.03-3.48,2.23-4.16.67-.17-.38-.08-7.08-.09-8.38-.03-22.12,1.2-44.89,1.63-67.08.33-16.83,1.75-33.61,2.12-50.45.06-1.1,3.77-.67,3.93-.56h0Z"/>
  <path class="st1" d="M44.31,34.31l-1.17,1.1c-6.53-2.02-6.03,9.39.37,6.19l1.37.9c-5.58,14.66-21.62.65-18.24-7.41,3.05-7.29,14.21-7.24,17.68-.78h0Z"/>
  <path class="st0" d="M44.87,42.5c-9.93,5.82-10.67-12.35-.56-8.19,1.48,2.76,1.65,5.32.56,8.19Z"/>
</svg>