<?xml version="1.0" encoding="UTF-8" standalone="no"?>
<svg
   version="1.1"
   width="146.34109"
   height="206.59706"
   viewBox="-1 -1 146.34109 206.59706"
   id="svg108"
   sodipodi:docname="tree1.svg"
   xmlns:inkscape="http://www.inkscape.org/namespaces/inkscape"
   xmlns:sodipodi="http://sodipodi.sourceforge.net/DTD/sodipodi-0.dtd"
   xmlns="http://www.w3.org/2000/svg"
   xmlns:svg="http://www.w3.org/2000/svg">
  <sodipodi:namedview
     id="namedview110"
     pagecolor="#ffffff"
     bordercolor="#000000"
     borderopacity="0.25"
     inkscape:showpageshadow="2"
     inkscape:pageopacity="0.0"
     inkscape:pagecheckerboard="0"
     inkscape:deskcolor="#d1d1d1" />
  <defs
     id="defs77">
    <radialGradient
       id="grad_1"
       cx="367.00229"
       cy="161.91829"
       r="41.535835"
       gradientTransform="scale(0.67750749,1.4759985)"
       fx="367.00229"
       fy="161.91829"
       gradientUnits="userSpaceOnUse">
      <stop
         offset="0"
         stop-color="#995900"
         stop-opacity="1"
         id="stop2" />
      <stop
         offset="1"
         stop-color="#663B00"
         stop-opacity="1"
         id="stop4" />
    </radialGradient>
    <radialGradient
       id="grad_2"
       cx="156.89797"
       cy="218.54486"
       r="41.062823"
       gradientTransform="scale(1.3630861,0.73362937)"
       fx="156.89797"
       fy="218.54486"
       gradientUnits="userSpaceOnUse">
      <stop
         offset="0"
         stop-color="#006622"
         stop-opacity="1"
         id="stop7" />
      <stop
         offset="1"
         stop-color="#009933"
         stop-opacity="1"
         id="stop9" />
    </radialGradient>
    <radialGradient
       id="grad_3"
       cx="196.60745"
       cy="163.64368"
       r="48.647108"
       gradientTransform="scale(1.0956961,0.9126618)"
       fx="196.60745"
       fy="163.64368"
       gradientUnits="userSpaceOnUse">
      <stop
         offset="0"
         stop-color="#006622"
         stop-opacity="1"
         id="stop12" />
      <stop
         offset="1"
         stop-color="#009933"
         stop-opacity="1"
         id="stop14" />
    </radialGradient>
    <radialGradient
       id="grad_4"
       cx="156.89797"
       cy="218.54486"
       r="41.062823"
       gradientTransform="scale(1.3630861,0.73362937)"
       fx="156.89797"
       fy="218.54486"
       gradientUnits="userSpaceOnUse">
      <stop
         offset="0"
         stop-color="#006622"
         stop-opacity="1"
         id="stop17" />
      <stop
         offset="1"
         stop-color="#009933"
         stop-opacity="1"
         id="stop19" />
    </radialGradient>
    <radialGradient
       id="grad_5"
       cx="155.55006"
       cy="219.99177"
       r="41.334686"
       gradientTransform="scale(1.3721107,0.7288042)"
       fx="155.55006"
       fy="219.99177"
       gradientUnits="userSpaceOnUse">
      <stop
         offset="0"
         stop-color="#006622"
         stop-opacity="1"
         id="stop22" />
      <stop
         offset="1"
         stop-color="#009933"
         stop-opacity="1"
         id="stop24" />
    </radialGradient>
    <radialGradient
       id="grad_6"
       cx="156.89797"
       cy="218.54486"
       r="41.062823"
       gradientTransform="scale(1.3630861,0.73362937)"
       fx="156.89797"
       fy="218.54486"
       gradientUnits="userSpaceOnUse">
      <stop
         offset="0"
         stop-color="#006622"
         stop-opacity="1"
         id="stop27" />
      <stop
         offset="1"
         stop-color="#009933"
         stop-opacity="1"
         id="stop29" />
    </radialGradient>
    <radialGradient
       id="grad_7"
       cx="156.89797"
       cy="218.54486"
       r="41.062823"
       gradientTransform="scale(1.3630861,0.73362937)"
       fx="156.89797"
       fy="218.54486"
       gradientUnits="userSpaceOnUse">
      <stop
         offset="0"
         stop-color="#006622"
         stop-opacity="1"
         id="stop32" />
      <stop
         offset="1"
         stop-color="#009933"
         stop-opacity="1"
         id="stop34" />
    </radialGradient>
    <radialGradient
       id="grad_8"
       cx="156.89797"
       cy="218.54486"
       r="41.062823"
       gradientTransform="scale(1.3630861,0.73362937)"
       fx="156.89797"
       fy="218.54486"
       gradientUnits="userSpaceOnUse">
      <stop
         offset="0"
         stop-color="#006622"
         stop-opacity="1"
         id="stop37" />
      <stop
         offset="1"
         stop-color="#009933"
         stop-opacity="1"
         id="stop39" />
    </radialGradient>
    <radialGradient
       id="grad_9"
       cx="156.84062"
       cy="218.6053"
       r="41.076992"
       gradientTransform="scale(1.3634562,0.73343022)"
       fx="156.84062"
       fy="218.6053"
       gradientUnits="userSpaceOnUse">
      <stop
         offset="0"
         stop-color="#006622"
         stop-opacity="1"
         id="stop42" />
      <stop
         offset="1"
         stop-color="#009933"
         stop-opacity="1"
         id="stop44" />
    </radialGradient>
    <radialGradient
       id="grad_10"
       cx="194.30572"
       cy="167.71124"
       r="47.120848"
       gradientTransform="scale(1.1114642,0.89971405)"
       fx="194.30572"
       fy="167.71124"
       gradientUnits="userSpaceOnUse">
      <stop
         offset="0"
         stop-color="#006622"
         stop-opacity="1"
         id="stop47" />
      <stop
         offset="1"
         stop-color="#009933"
         stop-opacity="1"
         id="stop49" />
    </radialGradient>
    <radialGradient
       id="grad_11"
       cx="156.89797"
       cy="218.54486"
       r="41.062823"
       gradientTransform="scale(1.3630861,0.73362937)"
       fx="156.89797"
       fy="218.54486"
       gradientUnits="userSpaceOnUse">
      <stop
         offset="0"
         stop-color="#006622"
         stop-opacity="1"
         id="stop52" />
      <stop
         offset="1"
         stop-color="#009933"
         stop-opacity="1"
         id="stop54" />
    </radialGradient>
    <radialGradient
       id="grad_12"
       cx="196.60745"
       cy="163.64368"
       r="48.647108"
       gradientTransform="scale(1.0956961,0.9126618)"
       fx="196.60745"
       fy="163.64368"
       gradientUnits="userSpaceOnUse">
      <stop
         offset="0"
         stop-color="#006622"
         stop-opacity="1"
         id="stop57" />
      <stop
         offset="1"
         stop-color="#009933"
         stop-opacity="1"
         id="stop59" />
    </radialGradient>
    <radialGradient
       id="grad_13"
       cx="196.60745"
       cy="163.64368"
       r="48.647108"
       gradientTransform="scale(1.0956961,0.9126618)"
       fx="196.60745"
       fy="163.64368"
       gradientUnits="userSpaceOnUse">
      <stop
         offset="0"
         stop-color="#006622"
         stop-opacity="1"
         id="stop62" />
      <stop
         offset="1"
         stop-color="#009933"
         stop-opacity="1"
         id="stop64" />
    </radialGradient>
    <radialGradient
       id="grad_14"
       cx="156.06512"
       cy="214.52495"
       r="36.476699"
       gradientTransform="scale(1.3460758,0.74290021)"
       fx="156.06512"
       fy="214.52495"
       gradientUnits="userSpaceOnUse">
      <stop
         offset="0"
         stop-color="#006622"
         stop-opacity="1"
         id="stop67" />
      <stop
         offset="1"
         stop-color="#009933"
         stop-opacity="1"
         id="stop69" />
    </radialGradient>
    <radialGradient
       id="grad_15"
       cx="156.06512"
       cy="214.52495"
       r="36.476699"
       gradientTransform="scale(1.3460758,0.74290021)"
       fx="156.06512"
       fy="214.52495"
       gradientUnits="userSpaceOnUse">
      <stop
         offset="0"
         stop-color="#006622"
         stop-opacity="1"
         id="stop72" />
      <stop
         offset="1"
         stop-color="#009933"
         stop-opacity="1"
         id="stop74" />
    </radialGradient>
  </defs>
  <!-- Exported by Scratch - http://scratch.mit.edu/ -->
  <g
     id="ID0.7957091517746449"
     transform="translate(-1.4589116,-1.4250718)">
    <path
       id="ID0.3466357826255262"
       fill="url(#grad_1)"
       stroke="#995900"
       d="m 227.5,193 h 41 v 90.5 h -41 z"
       transform="matrix(0.69174755,0,0,1.4918033,-96.1,-216.65)"
       style="fill:url(#grad_1)" />
    <path
       id="ID0.6449568010866642"
       fill="url(#grad_2)"
       stroke="none"
       stroke-linecap="round"
       d="m 210.5,149.5 c 8.625,-0.913 18.932,1.905 25.449,4.982 6.517,3.078 10.551,7.328 10.551,12.018 0,4.69 -5.373,10.858 -10.551,12.018 -4.631,1.024 -8.869,-5.324 -13.449,-4.718 -2.309,0.269 -1.367,4.915 -3.5,6.4 -2.162,1.986 -5.427,3.388 -8.5,3.3 -6.368,-0.184 -12.258,-0.564 -16.5,-4 -5.63,-3.851 -10.516,-10.146 -11,-16.3 -0.161,-2.81 4.968,-2.814 7.5,-4.25 6.404,-3.604 12.443,-8.654 20,-9.45 z"
       transform="matrix(0.71428573,0,0,0.50420171,-105.1,18.65)"
       style="fill:url(#grad_2)" />
    <path
       id="path81"
       fill="url(#grad_3)"
       stroke="none"
       stroke-linecap="round"
       d="m 205.25,133.15 c 2.943,-0.424 2.28,6.529 5.5,7.05 4.646,0.737 9.72,-6.501 13.5,-4.2 6.198,3.787 7.515,13.122 11.699,18.482 3.296,4.17 10.551,7.328 10.551,12.018 0,4.69 -5.373,10.858 -10.551,12.018 -4.631,1.024 -8.869,-5.324 -13.449,-4.718 -2.309,0.269 -1.367,4.915 -3.5,6.4 -2.162,1.986 -5.427,3.388 -8.5,3.3 -6.368,-0.184 -11.766,-0.918 -16.5,-4 -3.895,-2.535 -6.224,-6.703 -6.75,-10.95 -1.043,-8.408 -2.543,-17.917 1,-25.5 3.241,-5.76 10.827,-9.01 17,-9.9 z"
       transform="matrix(1.4583509,0,0,0.87075692,-225,-115.5)"
       style="fill:url(#grad_3)" />
    <path
       id="path83"
       fill="url(#grad_4)"
       stroke="none"
       stroke-linecap="round"
       d="m 210.5,149.5 c 8.625,-0.913 18.932,1.905 25.449,4.982 6.517,3.078 10.551,7.328 10.551,12.018 0,4.69 -5.373,10.858 -10.551,12.018 -4.631,1.024 -8.869,-5.324 -13.449,-4.718 -2.309,0.269 -1.367,4.915 -3.5,6.4 -2.162,1.986 -5.427,3.388 -8.5,3.3 -6.368,-0.184 -12.258,-0.564 -16.5,-4 -5.63,-3.851 -10.516,-10.146 -11,-16.3 -0.161,-2.81 4.968,-2.814 7.5,-4.25 6.404,-3.604 12.443,-8.654 20,-9.45 z"
       transform="matrix(1,0,0,0.70588237,-109.75,-22.95)"
       style="fill:url(#grad_4)" />
    <path
       id="path85"
       fill="url(#grad_5)"
       stroke="none"
       stroke-linecap="round"
       d="m 210.5,149.5 c 8.625,-0.913 18.932,1.905 25.449,4.982 6.517,3.078 10.551,7.328 10.551,12.018 0,4.69 -5.373,10.858 -10.551,12.018 -4.631,1.024 -8.869,-5.324 -13.449,-4.718 -2.309,0.269 -1.367,4.915 -3.5,6.4 -2.162,1.986 -5.427,3.388 -8.5,3.3 -6.368,-0.184 -11.351,-1.719 -16.5,-4 -4.442,-1.996 -10.98,-2.626 -11.75,-6.75 -0.88,-5.567 4.393,-10.83 8.25,-13.8 5.859,-4.445 12.443,-8.654 20,-9.45 z"
       transform="matrix(1,0,0,0.70588237,-168.25,-29.45)"
       style="fill:url(#grad_5)" />
    <path
       id="path87"
       fill="url(#grad_6)"
       stroke="none"
       stroke-linecap="round"
       d="m 210.5,149.5 c 8.625,-0.913 18.932,1.905 25.449,4.982 6.517,3.078 10.551,7.328 10.551,12.018 0,4.69 -5.373,10.858 -10.551,12.018 -4.631,1.024 -8.869,-5.324 -13.449,-4.718 -2.309,0.269 -1.367,4.915 -3.5,6.4 -2.162,1.986 -5.427,3.388 -8.5,3.3 -6.368,-0.184 -12.258,-0.564 -16.5,-4 -5.63,-3.851 -10.516,-10.146 -11,-16.3 -0.161,-2.81 4.968,-2.814 7.5,-4.25 6.404,-3.604 12.443,-8.654 20,-9.45 z"
       transform="matrix(1,0,0,0.70588237,-144.25,-19.45)"
       style="fill:url(#grad_6)" />
    <path
       id="path89"
       fill="url(#grad_7)"
       stroke="none"
       stroke-linecap="round"
       d="m 210.5,149.5 c 8.625,-0.913 18.932,1.905 25.449,4.982 6.517,3.078 10.551,7.328 10.551,12.018 0,4.69 -5.373,10.858 -10.551,12.018 -4.631,1.024 -8.869,-5.324 -13.449,-4.718 -2.309,0.269 -1.367,4.915 -3.5,6.4 -2.162,1.986 -5.427,3.388 -8.5,3.3 -6.368,-0.184 -12.258,-0.564 -16.5,-4 -5.63,-3.851 -10.516,-10.146 -11,-16.3 -0.161,-2.81 4.968,-2.814 7.5,-4.25 6.404,-3.604 12.443,-8.654 20,-9.45 z"
       transform="matrix(1,0,0,0.70588237,-147.25,-47.45)"
       style="fill:url(#grad_7)" />
    <path
       id="path91"
       fill="url(#grad_8)"
       stroke="none"
       stroke-linecap="round"
       d="m 210.5,149.5 c 8.625,-0.913 18.932,1.905 25.449,4.982 6.517,3.078 10.551,7.328 10.551,12.018 0,4.69 -5.373,10.858 -10.551,12.018 -4.631,1.024 -8.869,-5.324 -13.449,-4.718 -2.309,0.269 -1.367,4.915 -3.5,6.4 -2.162,1.986 -5.427,3.388 -8.5,3.3 -6.368,-0.184 -12.258,-0.564 -16.5,-4 -5.63,-3.851 -10.516,-10.146 -11,-16.3 -0.161,-2.81 4.968,-2.814 7.5,-4.25 6.404,-3.604 12.443,-8.654 20,-9.45 z"
       transform="matrix(1,0,0,0.70588237,-113.25,-37.45)"
       style="fill:url(#grad_8)" />
    <path
       id="path93"
       fill="url(#grad_9)"
       stroke="none"
       stroke-linecap="round"
       d="m 210.5,149.5 c 8.625,-0.913 18.932,1.905 25.449,4.982 6.517,3.078 10.551,7.328 10.551,12.018 0,4.69 -5.373,10.858 -10.551,12.018 -4.631,1.024 -8.869,-5.324 -13.449,-4.718 -2.309,0.269 -1.367,4.915 -3.5,6.4 -2.162,1.986 -5.48,3.161 -8.5,3.3 -2.791,0.094 -5.469,-0.851 -7.75,-2.25 -3.37,-2.059 -5.307,-6.254 -8,-9.2 -3.917,-3.095 -10.74,-4.359 -11.75,-8.85 -0.585,-2.568 4.968,-2.814 7.5,-4.25 6.404,-3.604 12.443,-8.654 20,-9.45 z"
       transform="matrix(1,0,0,0.70588237,-175.75,-49.45)"
       style="fill:url(#grad_9)" />
    <path
       id="path95"
       fill="url(#grad_10)"
       stroke="none"
       stroke-linecap="round"
       d="m 208.3,141.35 c 0.93,-0.11 1.265,-0.751 2.45,-1.15 4.455,-1.502 9.72,-6.501 13.5,-4.2 6.198,3.787 7.515,13.122 11.699,18.482 3.296,4.17 10.551,7.328 10.551,12.018 0,4.69 -5.373,10.858 -10.551,12.018 -4.631,1.024 -8.869,-5.324 -13.449,-4.718 -2.309,0.269 -1.367,4.915 -3.5,6.4 -2.162,1.986 -5.427,3.388 -8.5,3.3 -6.368,-0.184 -11.766,-0.918 -16.5,-4 -3.895,-2.535 -7.789,-6.803 -6.75,-10.95 1.636,-6.43 9.808,-8.886 12,-14.85 1.15,-3.116 -5.649,-6.479 -3.8,-9.1 2.395,-3.393 8.512,-1.845 12.85,-3.25 z"
       transform="matrix(1.3192722,0,0,0.93125093,-246.35,-106.15)"
       style="fill:url(#grad_10)" />
    <path
       id="path97"
       fill="url(#grad_11)"
       stroke="none"
       stroke-linecap="round"
       d="m 210.5,149.5 c 8.625,-0.913 18.932,1.905 25.449,4.982 6.517,3.078 10.551,7.328 10.551,12.018 0,4.69 -5.373,10.858 -10.551,12.018 -4.631,1.024 -8.869,-5.324 -13.449,-4.718 -2.309,0.269 -1.367,4.915 -3.5,6.4 -2.162,1.986 -5.427,3.388 -8.5,3.3 -6.368,-0.184 -12.258,-0.564 -16.5,-4 -5.63,-3.851 -10.516,-10.146 -11,-16.3 -0.161,-2.81 4.968,-2.814 7.5,-4.25 6.404,-3.604 12.443,-8.654 20,-9.45 z"
       transform="matrix(1.2637795,0,0,0.89207971,-170.65,-103.15)"
       style="fill:url(#grad_11)" />
    <path
       id="path99"
       fill="url(#grad_12)"
       stroke="none"
       stroke-linecap="round"
       d="m 205.25,133.15 c 2.943,-0.424 2.28,6.529 5.5,7.05 4.646,0.737 9.72,-6.501 13.5,-4.2 6.198,3.787 7.515,13.122 11.699,18.482 3.296,4.17 10.551,7.328 10.551,12.018 0,4.69 -5.373,10.858 -10.551,12.018 -4.631,1.024 -8.869,-5.324 -13.449,-4.718 -2.309,0.269 -1.367,4.915 -3.5,6.4 -2.162,1.986 -5.427,3.388 -8.5,3.3 -6.368,-0.184 -11.766,-0.918 -16.5,-4 -3.895,-2.535 -6.224,-6.703 -6.75,-10.95 -1.043,-8.408 -2.543,-17.917 1,-25.5 3.241,-5.76 10.827,-9.01 17,-9.9 z"
       transform="matrix(1,0,0,0.70588237,-99.7,-47.25)"
       style="fill:url(#grad_12)" />
    <path
       id="path101"
       fill="url(#grad_13)"
       stroke="none"
       stroke-linecap="round"
       d="m 205.25,133.15 c 2.943,-0.424 2.28,6.529 5.5,7.05 4.646,0.737 9.72,-6.501 13.5,-4.2 6.198,3.787 7.515,13.122 11.699,18.482 3.296,4.17 10.551,7.328 10.551,12.018 0,4.69 -5.373,10.858 -10.551,12.018 -4.631,1.024 -8.869,-5.324 -13.449,-4.718 -2.309,0.269 -1.367,4.915 -3.5,6.4 -2.162,1.986 -5.427,3.388 -8.5,3.3 -6.368,-0.184 -11.766,-0.918 -16.5,-4 -3.895,-2.535 -6.224,-6.703 -6.75,-10.95 -1.043,-8.408 -2.543,-17.917 1,-25.5 3.241,-5.76 10.827,-9.01 17,-9.9 z"
       transform="matrix(1,0,0,0.70588237,-147.35,-60.75)"
       style="fill:url(#grad_13)" />
    <path
       id="path103"
       fill="url(#grad_14)"
       stroke="none"
       stroke-linecap="round"
       d="m 210.5,149.5 c 5.237,-0.29 9.592,1.617 13.35,4 20.123,15.1 14.901,21.035 12.099,25.018 -2.419,2.277 -8.833,-5.29 -13.449,-4.718 -2.336,0.262 -1.138,6.776 -3.5,6.4 -4.95,-0.891 -7.204,-9.853 -12.65,-10.8 -5.022,-0.815 -9.128,7.015 -14,5.95 -4.876,-1.524 -9.506,-6.954 -9.35,-12.15 0.133,-4.186 6.402,-5.021 10.05,-7.7 5.611,-1.934 11.312,-5.647 17.45,-6 z"
       transform="matrix(0.71428573,0,0,0.36595285,-55.9,45.3)"
       style="fill:url(#grad_14)" />
    <path
       id="path105"
       fill="url(#grad_15)"
       stroke="none"
       stroke-linecap="round"
       d="m 210.5,149.5 c 5.237,-0.29 9.592,1.617 13.35,4 20.123,15.1 14.901,21.035 12.099,25.018 -2.419,2.277 -8.833,-5.29 -13.449,-4.718 -2.336,0.262 -1.138,6.776 -3.5,6.4 -4.95,-0.891 -7.204,-9.853 -12.65,-10.8 -5.022,-0.815 -9.128,7.015 -14,5.95 -4.876,-1.524 -9.506,-6.954 -9.35,-12.15 0.133,-4.186 6.402,-5.021 10.05,-7.7 5.611,-1.934 11.312,-5.647 17.45,-6 z"
       transform="matrix(0.71428573,0,0,0.50420171,-106.2,-64)"
       style="fill:url(#grad_15)" />
  </g>
</svg>
