<svg version="1.1" width="105" height="138" xmlns="http://www.w3.org/2000/svg" xmlns:xlink="http://www.w3.org/1999/xlink">
  <!-- Exported by Scratch - http://scratch.mit.edu/ -->
  <g id="ID0.5285904193297029" transform="matrix(1.1024999618530273, 0, 0, 1.1024999618530273, 0.55, 0)">
    <g id="ID0.8156192279420793">
      <g id="ID0.8212421177886426">
        <g id="Bottom">
          <g id="Bottom_1_">
            <path id="ID0.26467505656182766" fill="#20891D" d="M 47.989 114.262 C 26.487 114.262 6.851 103.231 3.921 101.510 C 32.034 86.121 43.103 34.365 44.622 26.582 C 60.555 76.465 84.960 94.387 87.632 96.228 C 77.433 108.194 64.096 114.262 47.989 114.262 L 47.989 114.262 Z " transform="matrix(1.1576249599456787, 0, 0, 1.1576249599456787, -2.55, -0.45)"/>
            <path id="ID0.09849025495350361" d="M 44.681 27.580 C 53.369 54.389 64.421 71.590 72.244 81.366 C 79.714 90.701 85.580 95.110 87.259 96.278 C 77.133 108.046 63.923 114.011 47.989 114.011 C 27.322 114.011 8.374 103.782 4.427 101.514 C 20.043 92.733 30.207 72.831 36.012 57.553 C 41.050 44.294 43.754 32.164 44.681 27.580 M 44.561 25.560 C 44.561 25.560 34.235 85.091 3.416 101.499 C 3.416 101.499 24.442 114.512 47.990 114.512 C 61.689 114.512 76.241 110.109 88.004 96.176 C 88.003 96.176 61.501 79.390 44.561 25.560 L 44.561 25.560 Z " transform="matrix(1.1576249599456787, 0, 0, 1.1576249599456787, -2.55, -0.45)"/>
          </g>
          <path id="Snow_10_" fill="#FFFFFF" stroke="#000000" stroke-width="0.5" d="M 90.594 92.673 C 89.116 91.963 84.433 91.604 83.746 93.580 C 83.615 93.954 83.842 94.285 84.121 94.501 C 85.288 95.401 82.230 96.446 81.791 97.198 C 81.498 97.697 81.398 98.296 81.342 98.862 C 81.122 101.071 80.383 101.800 78.215 102.309 C 76.231 102.776 74.027 104.541 73.498 106.658 C 71.823 106.566 70.175 106.727 69.553 106.901 C 68.581 107.173 67.786 107.774 67.031 108.411 C 66.635 108.823 66.248 109.246 65.874 109.680 C 64.615 111.098 63.848 110.637 62.536 110.837 C 61.341 111.020 60.222 111.431 59.271 112.093 C 59.090 112.006 58.899 111.932 58.698 111.874 C 55.641 111.001 52.853 113.585 49.677 112.863 C 48.222 112.533 46.767 111.886 45.240 112.283 C 44.652 112.436 43.626 112.865 42.652 113.058 C 41.723 112.372 41.208 111.430 40.314 110.495 C 38.580 108.679 35.499 109.137 33.616 110.364 C 32.689 110.968 31.016 109.984 29.920 110.267 C 29.850 110.286 29.763 110.284 29.688 110.295 C 29.265 110.115 28.814 109.986 28.405 109.873 C 27.391 109.592 26.359 109.140 25.333 109.260 C 24.781 109.017 24.273 108.768 23.865 108.554 C 23.422 108.322 22.910 107.619 22.350 107.060 C 23.992 107.217 25.767 106.872 26.808 105.538 C 26.871 105.457 26.790 105.317 26.689 105.384 C 24.714 106.683 21.896 105.849 19.835 105.088 C 19.322 104.899 18.817 104.760 18.316 104.643 C 17.482 104.364 16.609 104.191 15.792 104.105 C 15.283 103.934 14.675 103.912 14.188 103.884 C 13.525 103.847 12.959 103.617 12.381 103.402 C 11.715 102.775 11.178 101.995 10.371 101.476 C 9.244 100.750 8.467 100.152 8.387 98.924 C 8.458 98.893 8.529 98.865 8.599 98.845 C 9.051 98.715 9.442 98.461 9.658 98.043 C 10.156 97.078 6.354 96.462 4.388 97.471 C 2.892 98.239 2.445 99.878 2.465 101.363 C 2.481 102.536 3.571 103.885 4.644 104.274 C 6.487 104.942 8.348 105.059 9.666 106.660 C 10.485 107.654 11.140 108.250 12.430 108.605 C 13.155 108.804 13.968 108.675 14.702 108.555 C 19.370 107.795 19.904 110.331 22.161 113.038 C 23.238 114.330 23.406 114.259 25.122 114.795 C 25.785 115.002 28.413 117.125 29.473 117.317 C 32.419 117.848 34.529 115.889 37.349 116.105 C 38.711 116.544 39.682 118.216 41.053 118.704 C 43.032 119.408 44.547 118.650 46.413 117.951 C 48.672 117.105 51.698 118.877 54.140 118.794 C 56.088 118.729 57.955 118.014 59.474 116.815 C 59.769 116.583 60 116.329 60.182 116.064 C 60.958 116.234 61.708 116.611 62.625 116.913 C 64.536 117.543 66.020 116.709 67.511 115.512 C 68.365 114.825 69.006 113.821 69.737 113.009 C 71.180 111.404 73.253 111.741 75.170 111.637 C 76.538 111.562 77.576 110.715 77.906 109.425 C 78.032 108.932 77.954 108.529 77.752 108.187 C 77.846 107.962 77.940 107.744 78.045 107.546 C 79.229 105.321 82.022 105.738 84.014 104.767 C 85.478 104.053 85.935 102.024 86.550 100.689 C 87.406 98.831 89.923 98.976 91.504 98.078 C 93.840 96.748 92.485 93.584 90.594 92.673 Z " transform="matrix(1.1576249599456787, 0, 0, 1.1576249599456787, -2.55, -0.45)"/>
          <path id="Snow_9_" fill="#FFFFFF" stroke="#000000" stroke-width="0.5" d="M 74.366 94.353 C 74.432 94.109 74.123 93.928 73.943 94.108 C 72.373 95.669 71.238 97.556 68.797 97.749 C 66.918 97.896 65.075 96.542 63.201 97.361 C 62.515 97.661 61.993 98.029 61.412 98.487 C 60.142 99.488 59.305 99.083 57.925 98.698 C 56.630 98.337 55.101 99.450 54.281 100.292 C 54.184 100.391 54.308 100.557 54.429 100.484 C 55.112 100.078 55.796 99.960 56.483 99.991 C 57.802 100.512 59.239 101.495 60.648 101.495 C 61.041 101.495 61.458 101.306 61.793 101.110 C 62.979 100.415 64.047 99.756 65.495 99.730 C 67.788 99.690 70.147 100.191 71.579 98.462 C 72.938 97.540 73.920 96.005 74.366 94.353 Z " transform="matrix(1.1576249599456787, 0, 0, 1.1576249599456787, -2.55, -0.45)"/>
          <path id="Snow_8_" fill="#FFFFFF" stroke="#000000" stroke-width="0.5" d="M 46.713 94.631 C 42.930 95.744 39.101 92.642 35.136 92.670 C 32.683 92.688 30.458 92.005 28.219 91.093 C 26.919 90.563 19.541 92.081 20.063 89.011 C 20.182 88.315 19.769 87.603 18.994 87.607 C 14.730 87.630 17.620 93.357 19.860 94.477 C 22.664 95.878 27.766 94.243 30.394 96.301 C 34.142 99.236 35.458 96.091 39.744 95.935 C 42.500 96.664 44.150 97.135 46.958 95.213 C 47.245 95.017 47.074 94.525 46.713 94.631 Z " transform="matrix(1.1576249599456787, 0, 0, 1.1576249599456787, -2.55, -0.45)"/>
          <path id="Snow_7_" fill="#FFFFFF" stroke="#000000" stroke-width="0.5" d="M 76.124 80.998 C 75.339 80.621 74.595 80.834 74.091 81.531 C 74.007 81.648 73.923 81.766 73.838 81.884 C 73.605 82.208 73.671 82.619 73.870 82.938 C 73.297 83.126 72.736 83.350 72.282 83.594 C 70.693 84.448 69.912 86.076 67.857 86.245 C 65.943 86.403 64.301 86.782 62.352 86.625 C 61.908 86.588 61.493 86.636 61.093 86.728 C 60.275 86.527 59.492 86.326 58.879 86.197 C 56.240 85.640 54.342 88.320 51.510 87.772 C 49.521 87.388 48.218 87.840 46.544 88.844 C 46.389 88.937 46.493 89.163 46.663 89.127 C 52.769 87.812 49.082 90.517 52.888 90.160 C 55.561 89.911 57.840 88.158 60.692 89.576 C 61.571 90.013 62.461 90.246 63.359 90.352 C 65.262 92.503 69.332 90.546 71.581 90.056 C 74.766 89.359 77.227 88.098 77.601 84.597 C 78.279 83.267 78.083 81.942 76.124 80.998 Z " transform="matrix(1.1576249599456787, 0, 0, 1.1576249599456787, -2.55, -0.45)"/>
          <g id="Lights_4_">
            <path id="String_3_" d="M 77.228 86.298 C 76.672 86.404 76.920 87.209 77.458 87.133 C 80.453 86.706 79.565 90.871 79.106 92.363 C 78.475 94.408 76.853 95.996 75.301 97.375 C 72.078 100.241 67.936 101.994 63.763 102.903 C 55.528 104.699 46.585 102.524 39.623 97.973 C 33.975 94.283 30.919 87.105 24.312 84.937 C 19.232 83.271 16.122 86.707 16.119 91.508 C 16.119 91.653 16.327 91.677 16.367 91.541 C 17.674 87.201 18.669 84.183 24.139 85.565 C 28.367 86.634 31.076 90.719 33.799 93.795 C 39.170 99.862 46.892 103.306 54.859 104.170 C 62.656 105.015 70.706 102.780 76.590 97.531 C 78.902 95.469 80.555 92.691 80.557 89.534 C 80.561 87.422 79.398 85.885 77.228 86.298 Z " transform="matrix(1.1576249599456787, 0, 0, 1.1576249599456787, -2.55, -0.45)"/>
            <g id="Light_17_">
              <path id="Base_8_" fill="#B7B7B7" stroke="#000000" stroke-width="0.5" d="M 14.765 90.554 C 14.483 90.455 14.371 90.048 14.512 89.643 L 14.512 89.643 C 14.653 89.238 14.995 88.988 15.278 89.088 L 16.685 89.578 C 16.967 89.677 17.080 90.085 16.939 90.490 L 16.939 90.490 C 16.797 90.894 16.454 91.144 16.173 91.046 L 14.765 90.554 Z " transform="matrix(1.1576249599456787, 0, 0, 1.1576249599456787, -2.55, -0.45)"/>
              <path id="Light_18_" fill="#EA0000" stroke="#000000" stroke-width="0.5" d="M 13.364 90.907 C 12.073 90.197 11.037 89.348 11.324 88.529 C 11.610 87.710 12.945 87.692 14.401 87.940 C 15.876 88.188 16.459 89.404 16.174 90.223 C 15.889 91.042 14.676 91.630 13.364 90.907 Z " transform="matrix(1.1576249599456787, 0, 0, 1.1576249599456787, -2.55, -0.45)"/>
              <path id="Highlight_10_" fill="#FFFFFF" d="M 14.488 88.812 C 13.703 88.474 13.263 88.602 13.330 88.407 C 13.400 88.211 13.601 88.165 14.426 88.391 C 15.263 88.620 15.714 89.020 15.647 89.215 C 15.578 89.413 15.287 89.153 14.488 88.812 Z " transform="matrix(1.1576249599456787, 0, 0, 1.1576249599456787, -2.55, -0.45)"/>
            </g>
            <g id="Light_19_">
              <path id="Base_9_" fill="#B7B7B7" stroke="#000000" stroke-width="0.5" d="M 31.398 88.257 C 31.625 88.063 32.033 88.169 32.315 88.493 L 32.315 88.493 C 32.595 88.817 32.641 89.239 32.413 89.434 L 31.285 90.408 C 31.059 90.602 30.649 90.497 30.368 90.174 L 30.368 90.174 C 30.089 89.849 30.044 89.426 30.270 89.233 L 31.398 88.257 Z " transform="matrix(1.1576249599456787, 0, 0, 1.1576249599456787, -2.55, -0.45)"/>
              <path id="Light_20_" fill="#FFF533" stroke="#000000" stroke-width="0.5" d="M 31.792 86.867 C 33.051 86.103 34.304 85.629 34.870 86.287 C 35.437 86.944 34.786 88.109 33.844 89.247 C 32.892 90.401 31.548 90.299 30.980 89.643 C 30.414 88.987 30.510 87.643 31.792 86.867 Z " transform="matrix(1.1576249599456787, 0, 0, 1.1576249599456787, -2.55, -0.45)"/>
              <path id="Highlight_11_" fill="#FFFFFF" d="M 33.045 88.888 C 33.730 88.376 33.838 87.930 33.974 88.086 C 34.109 88.244 34.048 88.441 33.440 89.043 C 32.823 89.653 32.252 89.845 32.116 89.689 C 31.981 89.532 32.351 89.408 33.045 88.888 Z " transform="matrix(1.1576249599456787, 0, 0, 1.1576249599456787, -2.55, -0.45)"/>
            </g>
            <g id="Light_21_">
              <path id="Base_10_" fill="#B7B7B7" stroke="#000000" stroke-width="0.5" d="M 44.120 102.716 C 43.953 102.963 43.531 102.967 43.174 102.728 L 43.174 102.728 C 42.819 102.487 42.665 102.091 42.834 101.845 L 43.669 100.611 C 43.837 100.364 44.261 100.360 44.617 100.598 L 44.617 100.598 C 44.971 100.840 45.124 101.236 44.956 101.482 L 44.120 102.716 Z " transform="matrix(1.1576249599456787, 0, 0, 1.1576249599456787, -2.55, -0.45)"/>
              <path id="Light_22_" fill="#FF6D00" stroke="#000000" stroke-width="0.5" d="M 44.102 104.161 C 43.084 105.225 41.999 106.010 41.281 105.522 C 40.561 105.035 40.888 103.741 41.501 102.397 C 42.120 101.035 43.445 100.783 44.163 101.269 C 44.881 101.756 45.138 103.079 44.102 104.161 Z " transform="matrix(1.1576249599456787, 0, 0, 1.1576249599456787, -2.55, -0.45)"/>
              <path id="Highlight_12_" fill="#FFFFFF" d="M 42.366 102.537 C 41.839 103.209 41.849 103.668 41.678 103.553 C 41.506 103.436 41.514 103.229 41.945 102.491 C 42.382 101.740 42.883 101.407 43.055 101.522 C 43.226 101.638 42.901 101.853 42.366 102.537 Z " transform="matrix(1.1576249599456787, 0, 0, 1.1576249599456787, -2.55, -0.45)"/>
            </g>
            <g id="Light_23_">
              <path id="Base_11_" fill="#B7B7B7" stroke="#000000" stroke-width="0.5" d="M 61.561 102.604 C 61.572 102.306 61.929 102.080 62.358 102.094 L 62.358 102.094 C 62.788 102.112 63.127 102.367 63.113 102.665 L 63.055 104.154 C 63.041 104.453 62.684 104.679 62.255 104.665 L 62.255 104.665 C 61.827 104.645 61.487 104.391 61.501 104.093 L 61.561 102.604 Z " transform="matrix(1.1576249599456787, 0, 0, 1.1576249599456787, -2.55, -0.45)"/>
              <path id="Light_24_" fill="#EA0000" stroke="#000000" stroke-width="0.5" d="M 60.813 101.366 C 61.116 99.924 61.624 98.685 62.491 98.721 C 63.360 98.754 63.765 100.027 63.954 101.492 C 64.146 102.975 63.153 103.888 62.287 103.855 C 61.421 103.820 60.504 102.831 60.813 101.366 Z " transform="matrix(1.1576249599456787, 0, 0, 1.1576249599456787, -2.55, -0.45)"/>
              <path id="Highlight_13_" fill="#FFFFFF" d="M 63.145 101.830 C 63.240 100.980 62.989 100.597 63.196 100.604 C 63.403 100.613 63.505 100.792 63.529 101.647 C 63.553 102.515 63.303 103.062 63.097 103.055 C 62.889 103.048 63.052 102.693 63.145 101.830 Z " transform="matrix(1.1576249599456787, 0, 0, 1.1576249599456787, -2.55, -0.45)"/>
            </g>
            <g id="Light_25_">
              <path id="Base_12_" fill="#B7B7B7" stroke="#000000" stroke-width="0.5" d="M 80.926 88.437 C 81.118 88.210 81.538 88.253 81.867 88.532 L 81.867 88.532 C 82.193 88.812 82.300 89.221 82.105 89.448 L 81.137 90.581 C 80.941 90.808 80.521 90.764 80.193 90.487 L 80.193 90.487 C 79.870 90.207 79.760 89.797 79.956 89.570 L 80.926 88.437 Z " transform="matrix(1.1576249599456787, 0, 0, 1.1576249599456787, -2.55, -0.45)"/>
              <path id="Light_26_" fill="#0074FF" stroke="#000000" stroke-width="0.5" d="M 81.104 87.003 C 82.236 86.059 83.401 85.400 84.059 85.966 C 84.721 86.530 84.251 87.780 83.492 89.048 C 82.725 90.331 81.379 90.434 80.721 89.871 C 80.062 89.307 79.953 87.963 81.104 87.003 Z " transform="matrix(1.1576249599456787, 0, 0, 1.1576249599456787, -2.55, -0.45)"/>
              <path id="Highlight_14_" fill="#FFFFFF" d="M 82.647 88.812 C 83.248 88.203 83.288 87.747 83.446 87.880 C 83.603 88.016 83.572 88.220 83.061 88.906 C 82.543 89.602 82.008 89.878 81.851 89.744 C 81.693 89.608 82.040 89.432 82.647 88.812 Z " transform="matrix(1.1576249599456787, 0, 0, 1.1576249599456787, -2.55, -0.45)"/>
            </g>
          </g>
        </g>
        <g id="Middle">
          <g id="Middle_1_">
            <path id="ID0.12049101293087006" fill="#20891D" d="M 46.830 78.137 C 33.151 78.136 21.885 74.294 19.688 73.495 C 37.042 58.016 40.129 24.281 40.550 18.204 C 62.066 61.738 74.713 68.992 77.379 70.092 C 68.733 75.431 58.460 78.137 46.834 78.137 C 46.834 78.137 46.832 78.137 46.830 78.137 Z " transform="matrix(1.1576249599456787, 0, 0, 1.1576249599456787, -2.55, -0.45)"/>
            <path id="ID0.2506782151758671" d="M 40.731 19.133 C 60.998 59.922 73.383 68.440 76.848 70.123 C 68.327 75.275 58.233 77.887 46.830 77.887 C 33.868 77.887 23.078 74.426 20.166 73.401 C 36.587 58.398 40.095 27.081 40.731 19.133 M 40.357 17.249 C 40.357 17.249 38.660 56.648 19.210 73.583 C 19.210 73.583 31.410 78.387 46.830 78.387 C 56.669 78.387 67.817 76.433 77.952 70.029 C 77.952 70.028 64.698 66.767 40.357 17.249 L 40.357 17.249 Z " transform="matrix(1.1576249599456787, 0, 0, 1.1576249599456787, -2.55, -0.45)"/>
          </g>
          <path id="Snow_3_" fill="#FFFFFF" stroke="#000000" stroke-width="0.5" d="M 68.220 60.096 C 68.095 59.645 67.695 59.176 67.212 59.088 C 67.047 59.059 66.882 59.029 66.717 58.999 C 66.215 58.909 65.691 59.128 65.552 59.660 C 65.167 61.138 63.612 61.024 62.329 61.643 C 61.743 61.926 61.145 62.361 60.807 62.933 C 59.888 64.488 58.555 63.655 57.174 64.047 C 54.708 64.750 53.735 66.909 50.935 66.846 C 48.975 66.801 47.670 67.585 46.688 69.195 C 46.580 69.370 46.755 69.578 46.946 69.530 C 48.823 69.061 50.156 69.153 52.057 69.268 C 52.940 69.321 53.980 69.420 54.793 68.945 C 56.081 68.191 57.037 66.950 58.763 67.123 C 60.109 67.257 60.964 67.093 62.093 66.344 C 62.884 65.820 63.110 64.655 64.074 64.318 C 64.871 64.038 65.645 63.768 66.422 63.431 C 67.826 62.822 68.631 61.577 68.220 60.096 Z " transform="matrix(1.1576249599456787, 0, 0, 1.1576249599456787, -2.55, -0.45)"/>
          <path id="Snow_2_" fill="#FFFFFF" stroke="#000000" stroke-width="0.5" d="M 54.965 58.822 C 53.562 61.445 50.697 58.970 48.752 59.344 C 47.131 59.656 46.077 60.685 44.628 60.779 C 44.555 60.749 44.482 60.720 44.397 60.701 C 44.011 60.613 43.654 60.586 43.315 60.603 C 43.194 60.565 43.072 60.524 42.944 60.472 C 41.389 59.834 39.691 61.702 38.416 62.203 C 38.224 62.279 38.017 62.324 37.824 62.377 C 36.665 62.275 35.475 61.866 34.455 61.540 C 34.338 61.502 34.238 61.642 34.298 61.743 C 35.200 63.269 36.608 64.251 38.294 64.729 C 39.200 64.986 40.130 64.871 40.995 64.544 C 41.558 64.330 42.267 63.674 42.945 63.407 C 44.157 63.763 45.417 64.654 46.702 63.563 C 47.850 62.587 48.792 61.154 50.409 61.121 C 51.270 61.104 52.034 61.127 52.884 61 C 54.059 60.824 54.788 59.903 55.130 58.890 C 55.162 58.794 55.013 58.732 54.965 58.822 Z " transform="matrix(1.1576249599456787, 0, 0, 1.1576249599456787, -2.55, -0.45)"/>
          <path id="Snow_1_" fill="#FFFFFF" stroke="#000000" stroke-width="0.5" d="M 77.452 66.556 C 75.996 65.607 74.524 66.527 73.035 66.657 C 72.572 66.698 70.913 68.912 70.771 70.095 C 70.626 71.295 66.210 72.333 65.865 72.513 C 63.642 73.667 63.020 74.113 60.285 74.065 C 60.166 74.063 60.059 74.077 59.944 74.079 C 59.788 73.964 57.215 74.486 56.053 74.991 C 53.631 76.043 54.008 75.191 51.885 75.542 C 48.860 76.041 46.429 76.910 43.151 76.396 C 42.036 76.222 40.561 76.028 39.452 76.325 C 39.265 76.375 39.087 76.412 38.908 76.450 C 37.419 76.423 35.630 76.301 33.984 75.969 C 32.653 75.448 31.352 74.710 29.816 74.070 C 29.816 74.069 29.815 74.069 29.815 74.068 C 28.330 72.409 22.952 71.772 22.745 71.648 C 22.711 71.627 22.454 70.175 21.625 70.405 C 19.890 70.886 15.940 71.946 17.502 74.613 C 18.003 75.467 19.317 75.421 20.150 75.429 C 21.927 75.450 24.074 77.297 25.922 76.509 C 26.398 76.306 26.862 76.288 27.320 76.405 C 27.543 76.493 27.765 76.580 27.987 76.668 C 28.508 76.942 34.560 83.812 37.425 82.114 C 40.264 80.429 42.404 79.898 44.280 80.755 C 46.508 81.771 49.086 83.536 51.209 83.108 C 53.353 82.675 54.956 81.311 56.780 83.217 C 57.676 84.155 58.828 84.082 59.938 83.847 C 60.812 83.661 61.392 82.546 61.811 81.868 C 62.394 80.920 66.679 80.039 66.801 79.914 C 67.643 79.725 68.595 79.353 68.844 78.449 C 68.884 78.303 68.904 78.134 68.926 77.967 C 69.909 76.876 72.410 75.303 72.455 75.277 C 73.644 74.850 74.860 74.314 75.753 73.579 C 76.249 73.376 76.717 73.104 77.231 72.728 C 78.228 71.998 79.122 71.082 79.292 69.811 C 79.474 68.459 78.521 67.251 77.452 66.556 Z " transform="matrix(1.1576249599456787, 0, 0, 1.1576249599456787, -2.55, -0.45)"/>
          <g id="Lights_3_">
            <path id="String_2_" d="M 70.245 61.517 C 68.920 60.788 67.214 62.371 66.542 63.321 C 62.208 69.444 56.691 73.107 49.121 73.949 C 45.683 74.332 41.977 73.887 38.624 73.125 C 35.208 72.347 32.604 70.364 29.812 68.397 C 28.448 67.435 25.826 65.835 24.087 66.828 C 22.669 67.638 22.398 68.625 23.045 70.057 C 23.117 70.215 23.367 70.102 23.321 69.941 C 23.288 67.223 25.696 66.637 27.499 67.761 C 27.961 67.984 28.408 68.234 28.838 68.512 C 29.722 69.044 30.537 69.705 31.360 70.324 C 32.876 71.462 34.466 72.383 36.216 73.105 C 40.099 74.709 44.981 75.028 49.119 74.739 C 53.255 74.450 57.332 73.041 60.761 70.722 C 62.157 69.778 63.361 68.576 64.479 67.325 C 65 66.743 65.489 66.120 65.956 65.494 C 66.276 65.069 66.591 64.640 66.899 64.208 C 67.127 63.910 67.354 63.612 67.582 63.315 C 68.772 61.749 70.730 61.778 70.459 64.872 C 70.252 65.190 70.797 65.505 70.967 65.168 C 71.508 64.096 71.969 62.466 70.245 61.517 Z " transform="matrix(1.1576249599456787, 0, 0, 1.1576249599456787, -2.55, -0.45)"/>
            <g id="Light_11_">
              <path id="Base_5_" fill="#B7B7B7" stroke="#000000" stroke-width="0.5" d="M 72.188 61.359 C 72.459 61.233 72.824 61.448 73.004 61.837 L 73.004 61.837 C 73.185 62.227 73.112 62.644 72.841 62.769 L 71.489 63.397 C 71.218 63.522 70.852 63.308 70.671 62.918 L 70.671 62.918 C 70.492 62.529 70.565 62.112 70.835 61.987 L 72.188 61.359 Z " transform="matrix(1.1576249599456787, 0, 0, 1.1576249599456787, -2.55, -0.45)"/>
              <path id="Light_12_" fill="#FFF533" stroke="#000000" stroke-width="0.5" d="M 72.947 60.131 C 74.368 59.742 75.702 59.629 76.067 60.417 C 76.432 61.205 75.485 62.148 74.269 62.982 C 73.036 63.831 71.771 63.364 71.406 62.577 C 71.040 61.791 71.503 60.525 72.947 60.131 Z " transform="matrix(1.1576249599456787, 0, 0, 1.1576249599456787, -2.55, -0.45)"/>
              <path id="Highlight_7_" fill="#FFFFFF" d="M 73.599 62.417 C 74.398 62.113 74.625 61.714 74.713 61.901 C 74.800 62.089 74.687 62.263 73.937 62.674 C 73.176 63.092 72.575 63.120 72.487 62.933 C 72.398 62.744 72.788 62.729 73.599 62.417 Z " transform="matrix(1.1576249599456787, 0, 0, 1.1576249599456787, -2.55, -0.45)"/>
            </g>
            <g id="Light_15_">
              <path id="Base_7_" fill="#B7B7B7" stroke="#000000" stroke-width="0.5" d="M 37.049 75.051 C 36.865 75.286 36.444 75.262 36.105 74.999 L 36.105 74.999 C 35.767 74.735 35.640 74.331 35.825 74.095 L 36.740 72.919 C 36.924 72.684 37.346 72.707 37.687 72.971 L 37.687 72.971 C 38.023 73.235 38.150 73.640 37.966 73.874 L 37.049 75.051 Z " transform="matrix(1.1576249599456787, 0, 0, 1.1576249599456787, -2.55, -0.45)"/>
              <path id="Light_16_" fill="#0074FF" stroke="#000000" stroke-width="0.5" d="M 36.935 76.490 C 35.849 77.486 34.714 78.195 34.030 77.661 C 33.345 77.128 33.756 75.857 34.457 74.558 C 35.165 73.240 36.503 73.077 37.188 73.609 C 37.873 74.141 38.040 75.480 36.935 76.490 Z " transform="matrix(1.1576249599456787, 0, 0, 1.1576249599456787, -2.55, -0.45)"/>
              <path id="Highlight_9_" fill="#FFFFFF" d="M 35.311 74.755 C 34.740 75.391 34.721 75.850 34.557 75.723 C 34.393 75.595 34.415 75.389 34.893 74.680 C 35.378 73.961 35.901 73.661 36.065 73.787 C 36.229 73.915 35.890 74.107 35.311 74.755 Z " transform="matrix(1.1576249599456787, 0, 0, 1.1576249599456787, -2.55, -0.45)"/>
            </g>
            <g id="Light_13_">
              <path id="Base_6_" fill="#B7B7B7" stroke="#000000" stroke-width="0.5" d="M 59.884 71.873 C 60.096 72.083 60.022 72.499 59.720 72.804 L 59.720 72.804 C 59.418 73.110 59 73.187 58.788 72.975 L 57.730 71.925 C 57.518 71.715 57.592 71.298 57.894 70.992 L 57.894 70.992 C 58.197 70.688 58.614 70.611 58.825 70.822 L 59.884 71.873 Z " transform="matrix(1.1576249599456787, 0, 0, 1.1576249599456787, -2.55, -0.45)"/>
              <path id="Light_14_" fill="#FF6D00" stroke="#000000" stroke-width="0.5" d="M 61.300 72.158 C 62.158 73.355 62.727 74.567 62.115 75.183 C 61.503 75.798 60.290 75.239 59.085 74.387 C 57.861 73.527 57.859 72.178 58.470 71.562 C 59.080 70.947 60.428 70.940 61.300 72.158 Z " transform="matrix(1.1576249599456787, 0, 0, 1.1576249599456787, -2.55, -0.45)"/>
              <path id="Highlight_1_" fill="#FFFFFF" d="M 60.534 72.678 C 60.016 71.997 59.569 71.893 59.724 71.755 C 59.881 71.618 60.079 71.678 60.686 72.281 C 61.300 72.892 61.497 73.462 61.342 73.599 C 61.187 73.737 61.061 73.368 60.534 72.678 Z " transform="matrix(1.1576249599456787, 0, 0, 1.1576249599456787, -2.55, -0.45)"/>
            </g>
          </g>
        </g>
        <g id="Top">
          <g id="Top_1_">
            <path id="ID0.985733509529382" fill="#20891D" d="M 34.373 50.762 C 30.957 50.762 28.458 50.490 27.508 50.367 C 38.780 35.491 36.244 19.694 34.724 10.225 L 34.482 8.702 C 34.362 7.936 33.943 6.372 33.598 5.147 C 53.735 36.904 63.239 40.935 65.670 41.424 C 55.337 49.129 42.982 50.762 34.373 50.762 C 34.374 50.762 34.374 50.762 34.373 50.762 Z " transform="matrix(1.1576249599456787, 0, 0, 1.1576249599456787, -2.55, -0.45)"/>
            <path id="ID0.27076679933816195" d="M 34.272 6.673 C 52.591 35.279 61.807 40.612 65.077 41.549 C 54.890 48.934 42.821 50.512 34.373 50.512 C 31.400 50.512 29.123 50.304 27.967 50.171 C 39.003 35.313 36.485 19.620 34.970 10.186 C 34.886 9.660 34.804 9.152 34.728 8.664 C 34.657 8.203 34.479 7.459 34.272 6.673 M 32.866 3.520 C 32.866 3.520 34.027 7.408 34.235 8.741 C 35.706 18.179 39.182 34.853 27.049 50.556 C 27.049 50.556 29.920 51.012 34.373 51.012 C 42.398 51.012 55.563 49.532 66.334 41.234 C 66.334 41.234 66.298 41.239 66.225 41.239 C 65.138 41.239 55.810 40.084 32.866 3.520 L 32.866 3.520 Z " transform="matrix(1.1576249599456787, 0, 0, 1.1576249599456787, -2.55, -0.45)"/>
          </g>
          <path id="Snow_6_" fill="#FFFFFF" stroke="#000000" stroke-width="0.5" d="M 68.288 40.882 C 66.157 38.077 60.845 37.734 57.586 38.408 C 56.010 38.734 54.206 41.090 56.018 42.314 C 56.830 42.864 55.895 42.578 55.080 42.936 C 54.406 43.232 54.012 43.541 53.518 43.954 C 52.398 44.295 51.263 44.596 50.132 44.902 C 48.547 44.314 46.773 43.938 45.237 44.950 C 43.743 45.936 42.116 47.241 40.249 47.358 C 38.373 47.476 36.543 46.566 34.745 46.687 C 32.969 46.806 30.437 46.162 28.799 46.706 C 26.293 47.538 21.927 50.150 26.260 52.689 C 27.926 53.665 30.654 51.690 32.583 52.397 C 33.036 52.563 33.670 52.561 34.136 52.433 C 36.014 51.916 37.430 51.628 39.407 52.076 C 41.333 52.512 43.031 51.211 44.853 50.593 C 45.467 50.510 46.874 50.299 46.972 50.311 C 47.885 50.420 49.034 49.927 49.841 49.619 C 51.240 49.083 52.601 49.636 53.929 48.872 C 55.243 48.116 57.373 46.619 58.437 46.263 C 60.017 45.735 61.048 45.785 62.424 44.809 C 64.490 43.344 66.689 44.633 68.289 42.177 C 68.513 41.831 68.547 41.222 68.288 40.882 Z " transform="matrix(1.1576249599456787, 0, 0, 1.1576249599456787, -2.55, -0.45)"/>
          <path id="Snow_5_" fill="#FFFFFF" stroke="#000000" stroke-width="0.5" d="M 51.767 30.198 C 50.694 30.645 49.850 31.552 49.339 32.578 C 49.162 32.933 47.610 32.707 47.276 32.691 C 46.645 32.662 46.017 33.038 45.508 33.358 C 44.067 34.268 43.515 35.341 41.671 35.719 C 40.463 35.968 39.716 36.539 39.365 37.698 C 39.345 37.763 39.407 37.808 39.466 37.799 C 41.223 37.515 43.247 37.929 44.890 37.318 C 45.471 37.103 45.908 36.697 46.340 36.270 C 47.446 35.178 48.503 35.943 49.711 35.599 C 51.446 35.665 53.625 34.456 54.594 33.385 C 56.416 31.372 53.792 29.355 51.767 30.198 Z " transform="matrix(1.1576249599456787, 0, 0, 1.1576249599456787, -2.55, -0.45)"/>
          <path id="Snow_4_" fill="#FFFFFF" stroke="#000000" stroke-width="0.5" d="M 40.987 27.456 C 41.014 27.333 40.934 27.241 40.814 27.228 C 40.060 27.147 39.549 27.436 38.779 27.157 C 38.115 26.916 37.402 26.618 36.678 26.786 C 35.882 26.972 35.403 27.475 34.926 28.105 C 34.832 28.242 34.759 28.390 34.707 28.548 C 34.676 28.620 34.657 28.673 34.649 28.714 C 34.432 28.796 34.224 28.889 34.050 29.063 C 32.825 30.287 34.363 32.314 35.906 31.742 C 36.550 31.504 36.993 31.135 37.388 30.576 C 37.545 30.353 37.688 30.118 37.865 29.910 C 38.085 29.650 38.447 29.574 38.677 29.297 C 38.748 29.211 38.806 29.109 38.853 29.003 C 39.821 28.984 40.765 28.476 40.987 27.456 Z " transform="matrix(1.1576249599456787, 0, 0, 1.1576249599456787, -2.55, -0.45)"/>
          <g id="Lights_2_">
            <path id="String_1_" d="M 58.844 35.198 C 57.308 34.055 55.673 34.969 54.284 36.137 C 52.089 37.983 50.459 40.211 49.175 42.762 C 47.688 45.716 46.966 49.012 44.414 51.288 C 41.017 54.318 35.579 54.779 31.537 56.787 C 29.264 57.917 25.521 60.176 28.182 62.701 C 28.353 62.865 28.578 62.625 28.436 62.449 C 24.685 57.817 39.836 55.090 42.651 53.313 C 45.367 51.598 47.060 49.591 48.268 46.721 C 49.187 44.539 50.110 42.400 51.402 40.409 C 52.102 39.331 52.990 38.443 53.874 37.526 C 54.315 37.086 54.793 36.689 55.306 36.333 C 56.135 35.611 59.705 34.854 58.173 36.688 C 57.963 36.883 58.232 37.199 58.470 37.072 C 59.104 36.736 59.764 35.883 58.844 35.198 Z " transform="matrix(1.1576249599456787, 0, 0, 1.1576249599456787, -2.55, -0.45)"/>
            <g id="Light_4_">
              <path id="Base" fill="#B7B7B7" stroke="#000000" stroke-width="0.5" d="M 44.502 53.715 C 44.502 54.013 44.153 54.255 43.725 54.255 L 43.725 54.255 C 43.296 54.255 42.949 54.013 42.949 53.715 L 42.949 52.224 C 42.949 51.926 43.297 51.684 43.725 51.684 L 43.725 51.684 C 44.154 51.684 44.502 51.926 44.502 52.224 L 44.502 53.715 Z " transform="matrix(1.1576249599456787, 0, 0, 1.1576249599456787, -2.55, -0.45)"/>
              <path id="Light_1_" fill="#EA0000" stroke="#000000" stroke-width="0.5" d="M 45.297 54.921 C 45.053 56.375 44.594 57.631 43.726 57.631 C 42.858 57.631 42.401 56.374 42.154 54.921 C 41.904 53.445 42.858 52.494 43.725 52.494 C 44.592 52.494 45.546 53.445 45.297 54.921 Z " transform="matrix(1.1576249599456787, 0, 0, 1.1576249599456787, -2.55, -0.45)"/>
              <path id="Highlight_2_" fill="#FFFFFF" d="M 42.949 54.550 C 42.889 55.402 43.157 55.777 42.949 55.777 C 42.742 55.777 42.632 55.601 42.573 54.748 C 42.513 53.882 42.741 53.324 42.949 53.324 C 43.157 53.324 43.008 53.685 42.949 54.550 Z " transform="matrix(1.1576249599456787, 0, 0, 1.1576249599456787, -2.55, -0.45)"/>
            </g>
            <g id="Light_5_">
              <path id="Base_2_" fill="#B7B7B7" stroke="#000000" stroke-width="0.5" d="M 27.754 60.070 C 27.461 60.130 27.155 59.835 27.070 59.415 L 27.070 59.415 C 26.986 58.994 27.154 58.605 27.447 58.547 L 28.908 58.253 C 29.200 58.194 29.506 58.487 29.591 58.908 L 29.591 58.908 C 29.676 59.328 29.508 59.717 29.215 59.776 L 27.754 60.070 Z " transform="matrix(1.1576249599456787, 0, 0, 1.1576249599456787, -2.55, -0.45)"/>
              <path id="Light_6_" fill="#FF6D00" stroke="#000000" stroke-width="0.5" d="M 26.728 61.088 C 25.255 61.134 23.933 60.933 23.761 60.081 C 23.590 59.231 24.732 58.534 26.108 58.006 C 27.505 57.470 28.627 58.217 28.797 59.068 C 28.968 59.919 28.224 61.041 26.728 61.088 Z " transform="matrix(1.1576249599456787, 0, 0, 1.1576249599456787, -2.55, -0.45)"/>
              <path id="Highlight_4_" fill="#FFFFFF" d="M 26.628 58.712 C 25.781 58.822 25.466 59.157 25.425 58.954 C 25.384 58.751 25.535 58.609 26.360 58.383 C 27.197 58.154 27.790 58.267 27.830 58.471 C 27.871 58.674 27.489 58.600 26.628 58.712 Z " transform="matrix(1.1576249599456787, 0, 0, 1.1576249599456787, -2.55, -0.45)"/>
            </g>
            <g id="Light_3_">
              <path id="Base_1_" fill="#B7B7B7" stroke="#000000" stroke-width="0.5" d="M 53.092 39.997 C 53.360 40.127 53.426 40.546 53.238 40.932 L 53.238 40.932 C 53.051 41.318 52.682 41.525 52.413 41.394 L 51.072 40.744 C 50.803 40.614 50.738 40.195 50.926 39.810 L 50.926 39.810 C 51.113 39.424 51.482 39.216 51.751 39.346 L 53.092 39.997 Z " transform="matrix(1.1576249599456787, 0, 0, 1.1576249599456787, -2.55, -0.45)"/>
              <path id="Light_2_" fill="#FFF533" stroke="#000000" stroke-width="0.5" d="M 54.523 39.808 C 55.724 40.662 56.656 41.623 56.276 42.404 C 55.898 43.185 54.568 43.048 53.152 42.635 C 51.714 42.217 51.275 40.943 51.653 40.163 C 52.033 39.382 53.305 38.939 54.523 39.808 Z " transform="matrix(1.1576249599456787, 0, 0, 1.1576249599456787, -2.55, -0.45)"/>
              <path id="Highlight_3_" fill="#FFFFFF" d="M 53.166 41.759 C 53.906 42.184 54.360 42.107 54.270 42.295 C 54.179 42.481 53.973 42.503 53.181 42.185 C 52.375 41.860 51.972 41.412 52.063 41.225 C 52.154 41.038 52.412 41.328 53.166 41.759 Z " transform="matrix(1.1576249599456787, 0, 0, 1.1576249599456787, -2.55, -0.45)"/>
            </g>
          </g>
          <g id="Lights">
            <path id="String" d="M 46.807 22.303 C 43.580 22.991 43.065 27.417 41.494 29.772 C 39.914 32.140 38.031 34.411 35.276 35.386 C 34.091 35.805 32.901 36.224 32.085 37.225 C 30.988 38.572 31.855 40.796 33.528 39.848 C 33.804 39.691 33.294 39.415 32.986 39.512 C 31.729 39.309 32.485 37.377 33.634 36.906 C 34.070 36.669 34.524 36.471 34.996 36.313 C 35.604 36.084 36.218 35.888 36.813 35.625 C 38.633 34.820 40.015 33.054 41.188 31.522 C 42.492 29.820 43.276 28.051 44.108 26.103 C 44.591 24.974 46.018 21.939 47.761 23.327 C 48.598 23.993 48.618 25.714 48.649 26.670 C 48.663 27.084 49.298 27.087 49.294 26.670 C 49.278 25.340 48.981 21.840 46.807 22.303 Z " transform="matrix(1.1576249599456787, 0, 0, 1.1576249599456787, -2.55, -0.45)"/>
            <g id="Light_7_">
              <path id="Base_3_" fill="#B7B7B7" stroke="#000000" stroke-width="0.5" d="M 38.085 35.775 C 37.895 36.006 37.472 35.970 37.142 35.697 L 37.142 35.697 C 36.811 35.424 36.697 35.016 36.888 34.785 L 37.837 33.637 C 38.027 33.407 38.449 33.442 38.780 33.715 L 38.780 33.715 C 39.110 33.988 39.225 34.396 39.035 34.627 L 38.085 35.775 Z " transform="matrix(1.1576249599456787, 0, 0, 1.1576249599456787, -2.55, -0.45)"/>
              <path id="Light_8_" fill="#EA0000" stroke="#000000" stroke-width="0.5" d="M 37.929 37.212 C 36.815 38.176 35.661 38.854 34.991 38.300 C 34.322 37.748 34.770 36.487 35.506 35.210 C 36.253 33.913 37.594 33.787 38.263 34.340 C 38.933 34.893 39.061 36.233 37.929 37.212 Z " transform="matrix(1.1576249599456787, 0, 0, 1.1576249599456787, -2.55, -0.45)"/>
              <path id="Highlight_5_" fill="#FFFFFF" d="M 36.355 35.430 C 35.767 36.050 35.734 36.508 35.573 36.376 C 35.413 36.244 35.441 36.039 35.938 35.344 C 36.444 34.639 36.976 34.353 37.136 34.485 C 37.296 34.617 36.952 34.801 36.355 35.430 Z " transform="matrix(1.1576249599456787, 0, 0, 1.1576249599456787, -2.55, -0.45)"/>
            </g>
            <g id="Light_9_">
              <path id="Base_4_" fill="#B7B7B7" stroke="#000000" stroke-width="0.5" d="M 46.961 22.891 C 47.260 22.871 47.521 23.204 47.547 23.633 L 47.547 23.633 C 47.574 24.062 47.356 24.423 47.057 24.442 L 45.570 24.535 C 45.271 24.552 45.009 24.220 44.982 23.792 L 44.982 23.792 C 44.956 23.365 45.175 23.002 45.474 22.984 L 46.961 22.891 Z " transform="matrix(1.1576249599456787, 0, 0, 1.1576249599456787, -2.55, -0.45)"/>
              <path id="Light_10_" fill="#0074FF" stroke="#000000" stroke-width="0.5" d="M 48.116 22.022 C 49.580 22.177 50.864 22.556 50.917 23.423 C 50.972 24.289 49.746 24.823 48.310 25.158 C 46.853 25.500 45.844 24.606 45.790 23.740 C 45.736 22.875 46.627 21.865 48.116 22.022 Z " transform="matrix(1.1576249599456787, 0, 0, 1.1576249599456787, -2.55, -0.45)"/>
              <path id="Highlight_6_" fill="#FFFFFF" d="M 47.891 24.389 C 48.745 24.396 49.103 24.106 49.116 24.314 C 49.129 24.521 48.960 24.641 48.113 24.752 C 47.252 24.864 46.680 24.672 46.668 24.464 C 46.654 24.258 47.022 24.384 47.891 24.389 Z " transform="matrix(1.1576249599456787, 0, 0, 1.1576249599456787, -2.55, -0.45)"/>
            </g>
          </g>
          <g id="Star_2_">
            <path id="Star" fill="#FFF533" stroke="#000000" stroke-width="0.5" d="M 42.774 14.080 C 42.002 15.353 36.836 13.563 36.836 13.563 C 36.836 13.563 34.494 18.504 33.043 18.162 C 31.593 17.821 31.700 12.355 31.700 12.355 C 31.700 12.355 26.278 11.655 26.154 10.170 C 26.030 8.684 31.262 7.097 31.262 7.097 C 31.262 7.097 30.252 1.724 31.626 1.147 C 33.001 0.570 36.127 5.056 36.127 5.056 C 36.127 5.056 40.925 2.434 41.898 3.564 C 42.871 4.692 39.572 9.052 39.572 9.052 C 39.572 9.052 43.548 12.805 42.774 14.080 Z " transform="matrix(1.1576249599456787, 0, 0, 1.1576249599456787, -2.55, -0.45)"/>
            <path id="Star_1_" fill="#FFFFFF" d="M 38.814 11.870 C 38.426 12.510 35.830 11.610 35.830 11.610 C 35.830 11.610 34.654 14.093 33.924 13.921 C 33.195 13.750 33.249 11.004 33.249 11.004 C 33.249 11.004 30.524 10.652 30.463 9.906 C 30.401 9.159 33.030 8.362 33.030 8.362 C 33.030 8.362 32.522 5.662 33.212 5.372 C 33.903 5.082 35.474 7.336 35.474 7.336 C 35.474 7.336 37.885 6.019 38.374 6.586 C 38.863 7.154 37.206 9.344 37.206 9.344 C 37.206 9.344 39.203 11.229 38.814 11.870 Z " transform="matrix(1.1576249599456787, 0, 0, 1.1576249599456787, -2.55, -0.45)"/>
          </g>
        </g>
      </g>
    </g>
  </g>
</svg>