<?xml version="1.0" encoding="UTF-8" standalone="no"?>
<svg
   version="1.1"
   width="97.838295"
   height="186.86267"
   viewBox="-1 -1 97.838295 186.86267"
   id="svg37"
   sodipodi:docname="trees-a.svg"
   xmlns:inkscape="http://www.inkscape.org/namespaces/inkscape"
   xmlns:sodipodi="http://sodipodi.sourceforge.net/DTD/sodipodi-0.dtd"
   xmlns="http://www.w3.org/2000/svg"
   xmlns:svg="http://www.w3.org/2000/svg">
  <defs
     id="defs41" />
  <sodipodi:namedview
     id="namedview39"
     pagecolor="#ffffff"
     bordercolor="#000000"
     borderopacity="0.25"
     inkscape:showpageshadow="2"
     inkscape:pageopacity="0.0"
     inkscape:pagecheckerboard="0"
     inkscape:deskcolor="#d1d1d1" />
  <!-- Exported by Scratch - http://scratch.mit.edu/ -->
  <g
     id="ID0.550294317305088"
     transform="matrix(0.90249997,0,0,0.90249997,-1.7706893,-1.4361316)">
    <path
       id="ID0.3859007330611348"
       fill="#00a3a6"
       d="m 180.5,193.2 c 1.5,16 8.9,52.9 56.2,51.1 29.1,-1.1 45.5,-23.3 50.4,-43.1 4.9,-19.8 4,-63.8 3,-77 -1.9,-25.7 -23.5,-47.7 -52.2,-47.7 -26.5,0 -52.2,15 -55.6,46.8 -3.2,29.8 -2.4,63.7 -1.8,69.9 z"
       transform="matrix(0.90249997,0,0,0.90249997,-161.55,-58.45)" />
    <path
       id="ID0.7298086956143379"
       fill="#597933"
       d="m 276.9,190.8 c -0.3,0 -0.6,-0.1 -0.8,-0.4 -0.4,-0.4 -0.3,-1.1 0.1,-1.4 0.1,-0.1 14.2,-12.1 22,-23.9 0.3,-0.5 0.9,-0.6 1.4,-0.3 0.5,0.3 0.6,0.9 0.3,1.4 -7.9,12 -22.2,24.2 -22.3,24.3 -0.2,0.2 -0.5,0.3 -0.7,0.3 z"
       transform="matrix(0.90249997,0,0,0.90249997,-161.55,-58.45)" />
    <path
       id="ID0.947684551589191"
       fill="#597933"
       d="m 241.7,94.5 c -0.4,0 -0.8,-0.2 -0.9,-0.6 -5.5,-12.9 -6.6,-27.4 -6.6,-27.5 0,-0.6 0.4,-1 0.9,-1.1 0.6,0 1,0.4 1.1,0.9 0,0.1 1.1,14.3 6.5,26.9 0.2,0.5 0,1.1 -0.5,1.3 -0.3,0 -0.4,0.1 -0.5,0.1 z"
       transform="matrix(0.90249997,0,0,0.90249997,-161.55,-58.45)" />
    <g
       id="ID0.05148568330332637">
      <path
         id="ID0.24444019235670567"
         fill="#008994"
         d="m 233.7,217.5 c -21.2,0 -40.1,-9.1 -53.2,-23.5 1.7,16.4 9.6,52.1 56.1,50.4 29.1,-1.1 45.5,-23.3 50.4,-43.1 0.7,-2.7 1.2,-5.9 1.7,-9.4 -13,15.6 -32.8,25.6 -55,25.6 z"
         transform="matrix(0.90249997,0,0,0.90249997,-161.55,-58.45)" />
      <path
         id="ID0.6204115836881101"
         fill="#658542"
         d="m 235.6,76.6 c 1,5.1 2.6,11.3 5.1,17.3 0.2,0.4 0.5,0.6 0.9,0.6 0.1,0 0.3,0 0.4,-0.1 0.5,-0.2 0.7,-0.8 0.5,-1.3 -2.4,-5.7 -4,-11.7 -4.9,-16.5 -0.6,-0.1 -1.3,-0.1 -2,0 z"
         transform="matrix(0.90249997,0,0,0.90249997,-161.55,-58.45)" />
      <path
         id="ID0.6880362373776734"
         fill="#658542"
         d="m 290,178.5 c 0.1,-1 0.1,-2.1 0.2,-3.2 -6.8,7.6 -13.9,13.6 -14,13.7 -0.4,0.4 -0.5,1 -0.1,1.4 0.2,0.2 0.5,0.4 0.8,0.4 0.2,0 0.5,-0.1 0.6,-0.2 0.1,-0.1 6.2,-5.2 12.5,-12.1 z"
         transform="matrix(0.90249997,0,0,0.90249997,-161.55,-58.45)" />
      <path
         id="ID0.22185335354879498"
         fill="#658542"
         d="m 290.8,149 c 0,-0.5 0,-1 0,-1.4 -5.6,5.9 -11.2,10.2 -11.2,10.3 -0.2,0.2 -0.3,0.5 -0.1,0.7 0.1,0.1 0.2,0.2 0.4,0.2 0.1,0 0.2,0 0.3,-0.1 0.1,-0.1 5.2,-4.1 10.6,-9.7 z"
         transform="matrix(0.90249997,0,0,0.90249997,-161.55,-58.45)" />
    </g>
    <path
       id="ID0.6895963493734598"
       fill="#668543"
       d="m 220.2,188.9 11.1,-1.9 c 0,0 -2.1,24.2 -0.1,41.9 8.6,-13.5 23.3,-18.3 29,-46.4 l 8.9,0.6 c -1,24.5 -20.2,37.2 -28.1,54 -7.9,16.8 -4.6,56.3 -4.6,56.3 0,0 -4.5,1.5 -11.9,1.3 -6.3,-31.2 -8,-81.1 -4.3,-105.8 z"
       transform="matrix(0.90249997,0,0,0.90249997,-161.55,-58.45)" />
    <path
       id="ID0.32222417602315545"
       fill="#658542"
       d="m 214,134 c -0.1,0 -0.1,0 -0.2,0 -9.7,-4.6 -18.8,-15.9 -18.9,-16 -0.2,-0.2 -0.1,-0.5 0.1,-0.7 0.2,-0.2 0.5,-0.1 0.7,0.1 0.1,0.1 9.1,11.3 18.6,15.8 0.2,0.1 0.4,0.4 0.2,0.7 -0.1,-0.1 -0.3,0.1 -0.5,0.1 z"
       transform="matrix(0.90249997,0,0,0.90249997,-161.55,-58.45)" />
    <path
       id="ID0.7736222739331424"
       fill="#658542"
       d="m 244.1,122.9 c -0.2,0 -0.5,-0.1 -0.7,-0.3 -0.4,-0.4 -0.4,-1 -0.1,-1.4 7.7,-8.5 13.3,-23.5 13.3,-23.6 0.2,-0.5 0.8,-0.8 1.3,-0.6 0.5,0.2 0.8,0.8 0.6,1.3 -0.2,0.6 -5.8,15.4 -13.7,24.2 -0.2,0.2 -0.5,0.4 -0.7,0.4 z"
       transform="matrix(0.90249997,0,0,0.90249997,-161.55,-58.45)" />
    <path
       id="ID0.05090508842840791"
       fill="#00d9f9"
       d="m 202.6,134.2 c 0.91,0 1.735,0.37 2.333,0.967 0.597,0.598 0.967,1.423 0.967,2.333 0,0.91 -0.37,1.735 -0.967,2.333 -0.598,0.597 -1.423,0.967 -2.333,0.967 -0.91,0 -1.735,-0.37 -2.333,-0.967 -0.597,-0.598 -0.967,-1.423 -0.967,-2.333 0,-0.91 0.37,-1.735 0.967,-2.333 0.598,-0.597 1.423,-0.967 2.333,-0.967 z"
       transform="matrix(0.90249997,0,0,0.90249997,-161.55,-58.45)" />
    <path
       id="ID0.632450308650732"
       fill="#00d9f9"
       d="m 197.5,141.6 c 0.828,0 1.578,0.336 2.121,0.879 0.543,0.543 0.879,1.293 0.879,2.121 0,0.828 -0.336,1.578 -0.879,2.121 -0.543,0.543 -1.293,0.879 -2.121,0.879 -0.828,0 -1.578,-0.336 -2.121,-0.879 -0.543,-0.543 -0.879,-1.293 -0.879,-2.121 0,-0.828 0.336,-1.578 0.879,-2.121 0.543,-0.543 1.293,-0.879 2.121,-0.879 z"
       transform="matrix(0.90249997,0,0,0.90249997,-161.55,-58.45)" />
    <path
       id="ID0.5379299973137677"
       fill="#00d9f9"
       d="m 205.3,142.9 c 0.828,0 1.578,0.336 2.121,0.879 0.543,0.543 0.879,1.293 0.879,2.121 0,0.828 -0.336,1.578 -0.879,2.121 -0.543,0.543 -1.293,0.879 -2.121,0.879 -0.828,0 -1.578,-0.336 -2.121,-0.879 -0.543,-0.543 -0.879,-1.293 -0.879,-2.121 0,-0.828 0.336,-1.578 0.879,-2.121 0.543,-0.543 1.293,-0.879 2.121,-0.879 z"
       transform="matrix(0.90249997,0,0,0.90249997,-161.55,-58.45)" />
    <path
       id="ID0.361918181180954"
       fill="#00d9f9"
       d="m 256.3,119.1 c 0.828,0 1.578,0.336 2.121,0.879 0.543,0.543 0.879,1.293 0.879,2.121 0,0.828 -0.336,1.578 -0.879,2.121 -0.543,0.543 -1.293,0.879 -2.121,0.879 -0.828,0 -1.578,-0.336 -2.121,-0.879 -0.543,-0.543 -0.879,-1.293 -0.879,-2.121 0,-0.828 0.336,-1.578 0.879,-2.121 0.543,-0.543 1.293,-0.879 2.121,-0.879 z"
       transform="matrix(0.90249997,0,0,0.90249997,-161.55,-58.45)" />
    <path
       id="ID0.18709017150104046"
       fill="#00d9f9"
       d="m 265.6,121.5 c 0.828,0 1.578,0.336 2.121,0.879 0.543,0.543 0.879,1.293 0.879,2.121 0,0.828 -0.336,1.578 -0.879,2.121 -0.543,0.543 -1.293,0.879 -2.121,0.879 -0.828,0 -1.578,-0.336 -2.121,-0.879 -0.543,-0.543 -0.879,-1.293 -0.879,-2.121 0,-0.828 0.336,-1.578 0.879,-2.121 0.543,-0.543 1.293,-0.879 2.121,-0.879 z"
       transform="matrix(0.90249997,0,0,0.90249997,-161.55,-58.45)" />
    <path
       id="ID0.17630170844495296"
       fill="#00d9f9"
       d="m 257.9,128.7 c 0.772,0 1.472,0.314 1.979,0.821 0.507,0.507 0.821,1.207 0.821,1.979 0,0.772 -0.314,1.472 -0.821,1.979 -0.507,0.507 -1.207,0.821 -1.979,0.821 -0.772,0 -1.472,-0.314 -1.979,-0.821 -0.507,-0.507 -0.821,-1.207 -0.821,-1.979 0,-0.772 0.314,-1.472 0.821,-1.979 0.507,-0.507 1.207,-0.821 1.979,-0.821 z"
       transform="matrix(0.90249997,0,0,0.90249997,-161.55,-58.45)" />
    <path
       id="ID0.502802615519613"
       fill="#00d9f9"
       d="m 208,76.5 c 0.772,0 1.472,0.314 1.979,0.821 0.507,0.507 0.821,1.207 0.821,1.979 0,0.772 -0.314,1.472 -0.821,1.979 -0.507,0.507 -1.207,0.821 -1.979,0.821 -0.772,0 -1.472,-0.314 -1.979,-0.821 -0.507,-0.507 -0.821,-1.207 -0.821,-1.979 0,-0.772 0.314,-1.472 0.821,-1.979 0.507,-0.507 1.207,-0.821 1.979,-0.821 z"
       transform="matrix(0.90249997,0,0,0.90249997,-161.55,-58.45)" />
    <path
       id="ID0.693880258128047"
       fill="#00d9f9"
       d="m 216.2,77.8 c 0.828,0 1.578,0.336 2.121,0.879 0.543,0.543 0.879,1.293 0.879,2.121 0,0.828 -0.336,1.578 -0.879,2.121 -0.543,0.543 -1.293,0.879 -2.121,0.879 -0.828,0 -1.578,-0.336 -2.121,-0.879 -0.543,-0.543 -0.879,-1.293 -0.879,-2.121 0,-0.828 0.336,-1.578 0.879,-2.121 0.543,-0.543 1.293,-0.879 2.121,-0.879 z"
       transform="matrix(0.90249997,0,0,0.90249997,-161.55,-58.45)" />
    <path
       id="ID0.7145482078194618"
       fill="#00d9f9"
       d="m 211.1,85.7 c 0.8,0 1.525,0.325 2.05,0.85 0.525,0.525 0.85,1.25 0.85,2.05 0,0.8 -0.325,1.525 -0.85,2.05 -0.525,0.525 -1.25,0.85 -2.05,0.85 -0.8,0 -1.525,-0.325 -2.05,-0.85 -0.525,-0.525 -0.85,-1.25 -0.85,-2.05 0,-0.8 0.325,-1.525 0.85,-2.05 0.525,-0.525 1.25,-0.85 2.05,-0.85 z"
       transform="matrix(0.90249997,0,0,0.90249997,-161.55,-58.45)" />
    <path
       id="ID0.8779263910837471"
       fill="#658542"
       d="m 259.5,169.7 c -0.2,0 -0.4,-0.1 -0.6,-0.2 -9.7,-7 -18.8,-25.2 -19.2,-25.9 -0.2,-0.5 0,-1.1 0.5,-1.3 0.5,-0.2 1.1,0 1.3,0.5 0.1,0.2 9.2,18.4 18.6,25.2 0.4,0.3 0.5,0.9 0.2,1.4 -0.2,0.1 -0.5,0.3 -0.8,0.3 z"
       transform="matrix(0.90249997,0,0,0.90249997,-161.55,-58.45)" />
    <path
       id="ID0.06188164837658405"
       fill="#597933"
       d="m 279.9,158.8 c -0.1,0 -0.3,-0.1 -0.4,-0.2 -0.2,-0.2 -0.1,-0.5 0.1,-0.7 0.1,-0.1 11.3,-8.8 18,-18.5 0.2,-0.2 0.5,-0.3 0.7,-0.1 0.2,0.2 0.3,0.5 0.1,0.7 -6.8,9.8 -18.1,18.6 -18.2,18.7 -0.1,0 -0.2,0.1 -0.3,0.1 z"
       transform="matrix(0.90249997,0,0,0.90249997,-161.55,-58.45)" />
    <path
       id="ID0.8177636587060988"
       fill="#658542"
       d="m 212.2,192.6 c -0.2,0 -0.3,0 -0.4,-0.1 -9.9,-5 -22.4,-23.6 -23,-24.4 -0.3,-0.5 -0.2,-1.1 0.3,-1.4 0.5,-0.3 1.1,-0.2 1.4,0.3 0.1,0.2 12.7,19 22.2,23.7 0.5,0.2 0.7,0.8 0.4,1.3 -0.1,0.4 -0.5,0.6 -0.9,0.6 z"
       transform="matrix(0.90249997,0,0,0.90249997,-161.55,-58.45)" />
    <path
       id="ID0.11684365104883909"
       fill="#658542"
       d="m 201.1,182.7 c -0.3,0 -0.5,-0.2 -0.5,-0.5 -0.6,-7.7 -3.8,-15.2 -3.8,-15.3 -0.1,-0.3 0,-0.5 0.3,-0.7 0.3,-0.2 0.5,0 0.7,0.3 0,0.1 3.3,7.7 3.9,15.6 -0.1,0.3 -0.3,0.6 -0.6,0.6 0,0 0,0 0,0 z"
       transform="matrix(0.90249997,0,0,0.90249997,-161.55,-58.45)" />
    <path
       id="ID0.11691076727584004"
       fill="#658542"
       d="m 207.8,206.3 c -0.1,0 -0.1,0 -0.2,0 -9.6,-3.8 -19.6,-10.8 -19.7,-10.9 -0.2,-0.2 -0.3,-0.5 -0.1,-0.7 0.2,-0.2 0.5,-0.3 0.7,-0.1 0.1,0.1 10,7 19.5,10.8 0.3,0.1 0.4,0.4 0.3,0.6 -0.1,0.2 -0.3,0.3 -0.5,0.3 z"
       transform="matrix(0.90249997,0,0,0.90249997,-161.55,-58.45)" />
    <path
       id="ID0.7919257855974138"
       fill="#6f7138"
       d="m 225,283 c -0.2,0 -0.3,-0.1 -0.4,-0.3 -1.8,-12.2 -3,-34.1 -3,-34.3 0,-0.2 0.1,-0.4 0.4,-0.4 0.2,0 0.4,0.1 0.4,0.4 0,0.2 1.2,22.1 3,34.3 0,0.1 -0.1,0.3 -0.4,0.3 0,0 0,0 0,0 z"
       transform="matrix(0.90249997,0,0,0.90249997,-161.55,-58.45)" />
    <path
       id="ID0.15677868807688355"
       fill="#6f7138"
       d="m 227.4,269.6 c 0,-0.2 -0.2,-0.4 -0.4,-0.3 -0.2,0 -0.4,0.2 -0.3,0.4 0,0.2 1.2,17.3 2.5,25 0.3,0 0.5,0 0.8,-0.1 -1.4,-7.6 -2.6,-24.8 -2.6,-25 z"
       transform="matrix(0.90249997,0,0,0.90249997,-161.55,-58.45)" />
    <path
       id="ID0.2363038375042379"
       fill="#6f7138"
       d="m 257,201.3 c 0.1,0 0.1,0 0.2,0 0.1,0 0.3,-0.1 0.3,-0.2 0.1,-0.1 5,-9 5.7,-18.5 h -0.7 c -0.7,9.3 -5.6,18.1 -5.6,18.2 -0.2,0.2 -0.1,0.4 0.1,0.5 z"
       transform="matrix(0.90249997,0,0,0.90249997,-161.55,-58.45)" />
    <path
       id="ID0.13449593726545572"
       fill="#6f7138"
       d="m 231.3,239.6 c 0,0 -0.1,0 -0.1,0 -0.2,-0.1 -0.3,-0.3 -0.2,-0.5 5.8,-14 15.9,-21.2 16,-21.3 0.2,-0.1 0.4,-0.1 0.5,0.1 0.1,0.2 0.1,0.4 -0.1,0.5 -0.1,0.1 -10,7.2 -15.8,21 0,0.1 -0.1,0.2 -0.3,0.2 z"
       transform="matrix(0.90249997,0,0,0.90249997,-161.55,-58.45)" />
    <path
       id="ID0.9665087992325425"
       fill="#6f7138"
       d="m 244.7,225.3 c -0.1,0 -0.2,0 -0.3,-0.1 -0.1,-0.1 -0.2,-0.4 0,-0.5 17.4,-18.1 19.2,-31.2 19.3,-31.3 0,-0.2 0.2,-0.4 0.4,-0.3 0.2,0 0.4,0.2 0.3,0.4 0,0.1 -1.9,13.5 -19.5,31.8 0,-0.1 -0.1,0 -0.2,0 z"
       transform="matrix(0.90249997,0,0,0.90249997,-161.55,-58.45)" />
    <path
       id="ID0.47477131709456444"
       fill="#6f7138"
       d="m 223.9,188.2 c -1,9.1 -1,21.2 -1,21.4 0,0.2 0.2,0.4 0.4,0.4 0.2,0 0.4,-0.2 0.4,-0.4 0,-0.1 0,-12.4 1,-21.5 z"
       transform="matrix(0.90249997,0,0,0.90249997,-161.55,-58.45)" />
    <path
       id="ID0.817719716578722"
       fill="#6f7138"
       d="m 226.5,201.7 c 0,0 0.1,0 0,0 0.2,0 0.4,-0.2 0.4,-0.4 0,-0.1 0.4,-7.6 1,-13.8 l -0.8,0.1 c -0.6,6.2 -1,13.6 -1,13.7 0.1,0.3 0.2,0.4 0.4,0.4 z"
       transform="matrix(0.90249997,0,0,0.90249997,-161.55,-58.45)" />
    <path
       id="ID0.8305955952964723"
       fill="#6f7138"
       d="m 226.8,259.1 c -0.2,0 -0.4,-0.2 -0.4,-0.4 -0.1,-6.2 -1,-12.2 -2.1,-18.6 -1.3,-7.8 -2.6,-15.9 -2.4,-25.1 0,-0.2 0.2,-0.4 0.4,-0.4 0.2,0 0.4,0.2 0.4,0.4 -0.2,9.2 1.1,17.2 2.4,25 1,6.4 2,12.5 2.1,18.7 0,0.2 -0.2,0.4 -0.4,0.4 0,0 0,0 0,0 z"
       transform="matrix(0.90249997,0,0,0.90249997,-161.55,-58.45)" />
    <path
       id="ID0.6774556548334658"
       fill="#6f7138"
       d="m 232.4,273.1 c -0.2,0 -0.4,-0.1 -0.4,-0.3 -2.6,-24 3.2,-35.4 3.3,-35.5 0.1,-0.2 0.3,-0.3 0.5,-0.2 0.2,0.1 0.3,0.3 0.2,0.5 -0.1,0.1 -5.8,11.3 -3.2,35 0,0.3 -0.1,0.5 -0.4,0.5 0,0 0,0 0,0 z"
       transform="matrix(0.90249997,0,0,0.90249997,-161.55,-58.45)" />
  </g>
</svg>
