<?xml version="1.0" encoding="UTF-8" standalone="no"?>
<svg
   version="1.1"
   width="115.8505"
   height="151.10054"
   id="svg90"
   sodipodi:docname="tree-lights-b.svg"
   xmlns:inkscape="http://www.inkscape.org/namespaces/inkscape"
   xmlns:sodipodi="http://sodipodi.sourceforge.net/DTD/sodipodi-0.dtd"
   xmlns="http://www.w3.org/2000/svg"
   xmlns:svg="http://www.w3.org/2000/svg">
  <defs
     id="defs94" />
  <sodipodi:namedview
     id="namedview92"
     pagecolor="#ffffff"
     bordercolor="#000000"
     borderopacity="0.25"
     inkscape:showpageshadow="2"
     inkscape:pageopacity="0.0"
     inkscape:pagecheckerboard="0"
     inkscape:deskcolor="#d1d1d1" />
  <!-- Exported by Scratch - http://scratch.mit.edu/ -->
  <g
     id="ID0.5285904193297029"
     transform="matrix(1.1025,0,0,1.1025,-0.01479333,-0.57876208)">
    <g
       id="ID0.8156192279420793">
      <g
         id="ID0.8212421177886426">
        <g
           id="Bottom">
          <g
             id="Bottom_1_">
            <path
               id="ID0.26467505656182766"
               fill="#20891d"
               d="M 47.989,114.262 C 26.487,114.262 6.851,103.231 3.921,101.51 32.034,86.121 43.103,34.365 44.622,26.582 60.555,76.465 84.96,94.387 87.632,96.228 77.433,108.194 64.096,114.262 47.989,114.262 Z"
               transform="matrix(1.157625,0,0,1.157625,-2.55,-0.45)" />
            <path
               id="ID0.09849025495350361"
               d="m 44.681,27.58 c 8.688,26.809 19.74,44.01 27.563,53.786 7.47,9.335 13.336,13.744 15.015,14.912 -10.126,11.768 -23.336,17.733 -39.27,17.733 -20.667,0 -39.615,-10.229 -43.562,-12.497 C 20.043,92.733 30.207,72.831 36.012,57.553 41.05,44.294 43.754,32.164 44.681,27.58 m -0.12,-2.02 c 0,0 -10.326,59.531 -41.145,75.939 0,0 21.026,13.013 44.574,13.013 13.699,0 28.251,-4.403 40.014,-18.336 -0.001,0 -26.503,-16.786 -43.443,-70.616 z"
               transform="matrix(1.157625,0,0,1.157625,-2.55,-0.45)" />
          </g>
          <path
             id="Snow_10_"
             fill="#ffffff"
             stroke="#000000"
             stroke-width="0.5"
             d="m 90.594,92.673 c -1.478,-0.71 -6.161,-1.069 -6.848,0.907 -0.131,0.374 0.096,0.705 0.375,0.921 1.167,0.9 -1.891,1.945 -2.33,2.697 -0.293,0.499 -0.393,1.098 -0.449,1.664 -0.22,2.209 -0.959,2.938 -3.127,3.447 -1.984,0.467 -4.188,2.232 -4.717,4.349 -1.675,-0.092 -3.323,0.069 -3.945,0.243 -0.972,0.272 -1.767,0.873 -2.522,1.51 -0.396,0.412 -0.783,0.835 -1.157,1.269 -1.259,1.418 -2.026,0.957 -3.338,1.157 -1.195,0.183 -2.314,0.594 -3.265,1.256 -0.181,-0.087 -0.372,-0.161 -0.573,-0.219 -3.057,-0.873 -5.845,1.711 -9.021,0.989 -1.455,-0.33 -2.91,-0.977 -4.437,-0.58 -0.588,0.153 -1.614,0.582 -2.588,0.775 -0.929,-0.686 -1.444,-1.628 -2.338,-2.563 -1.734,-1.816 -4.815,-1.358 -6.698,-0.131 -0.927,0.604 -2.6,-0.38 -3.696,-0.097 -0.07,0.019 -0.157,0.017 -0.232,0.028 -0.423,-0.18 -0.874,-0.309 -1.283,-0.422 -1.014,-0.281 -2.046,-0.733 -3.072,-0.613 -0.552,-0.243 -1.06,-0.492 -1.468,-0.706 -0.443,-0.232 -0.955,-0.935 -1.515,-1.494 1.642,0.157 3.417,-0.188 4.458,-1.522 0.063,-0.081 -0.018,-0.221 -0.119,-0.154 -1.975,1.299 -4.793,0.465 -6.854,-0.296 -0.513,-0.189 -1.018,-0.328 -1.519,-0.445 -0.834,-0.279 -1.707,-0.452 -2.524,-0.538 -0.509,-0.171 -1.117,-0.193 -1.604,-0.221 -0.663,-0.037 -1.229,-0.267 -1.807,-0.482 -0.666,-0.627 -1.203,-1.407 -2.01,-1.926 -1.127,-0.726 -1.904,-1.324 -1.984,-2.552 0.071,-0.031 0.142,-0.059 0.212,-0.079 0.452,-0.13 0.843,-0.384 1.059,-0.802 0.498,-0.965 -3.304,-1.581 -5.27,-0.572 -1.496,0.768 -1.943,2.407 -1.923,3.892 0.016,1.173 1.106,2.522 2.179,2.911 1.843,0.668 3.704,0.785 5.022,2.386 0.819,0.994 1.474,1.59 2.764,1.945 0.725,0.199 1.538,0.07 2.272,-0.05 4.668,-0.76 5.202,1.776 7.459,4.483 1.077,1.292 1.245,1.221 2.961,1.757 0.663,0.207 3.291,2.33 4.351,2.522 2.946,0.531 5.056,-1.428 7.876,-1.212 1.362,0.439 2.333,2.111 3.704,2.599 1.979,0.704 3.494,-0.054 5.36,-0.753 2.259,-0.846 5.285,0.926 7.727,0.843 1.948,-0.065 3.815,-0.78 5.334,-1.979 0.295,-0.232 0.526,-0.486 0.708,-0.751 0.776,0.17 1.526,0.547 2.443,0.849 1.911,0.63 3.395,-0.204 4.886,-1.401 0.854,-0.687 1.495,-1.691 2.226,-2.503 1.443,-1.605 3.516,-1.268 5.433,-1.372 1.368,-0.075 2.406,-0.922 2.736,-2.212 0.126,-0.493 0.048,-0.896 -0.154,-1.238 0.094,-0.225 0.188,-0.443 0.293,-0.641 1.184,-2.225 3.977,-1.808 5.969,-2.779 1.464,-0.714 1.921,-2.743 2.536,-4.078 0.856,-1.858 3.373,-1.713 4.954,-2.611 2.336,-1.33 0.981,-4.494 -0.91,-5.405 z"
             transform="matrix(1.157625,0,0,1.157625,-2.55,-0.45)" />
          <path
             id="Snow_9_"
             fill="#ffffff"
             stroke="#000000"
             stroke-width="0.5"
             d="m 74.366,94.353 c 0.066,-0.244 -0.243,-0.425 -0.423,-0.245 -1.57,1.561 -2.705,3.448 -5.146,3.641 -1.879,0.147 -3.722,-1.207 -5.596,-0.388 -0.686,0.3 -1.208,0.668 -1.789,1.126 -1.27,1.001 -2.107,0.596 -3.487,0.211 -1.295,-0.361 -2.824,0.752 -3.644,1.594 -0.097,0.099 0.027,0.265 0.148,0.192 0.683,-0.406 1.367,-0.524 2.054,-0.493 1.319,0.521 2.756,1.504 4.165,1.504 0.393,0 0.81,-0.189 1.145,-0.385 1.186,-0.695 2.254,-1.354 3.702,-1.38 2.293,-0.04 4.652,0.461 6.084,-1.268 1.359,-0.922 2.341,-2.457 2.787,-4.109 z"
             transform="matrix(1.157625,0,0,1.157625,-2.55,-0.45)" />
          <path
             id="Snow_8_"
             fill="#ffffff"
             stroke="#000000"
             stroke-width="0.5"
             d="m 46.713,94.631 c -3.783,1.113 -7.612,-1.989 -11.577,-1.961 -2.453,0.018 -4.678,-0.665 -6.917,-1.577 -1.3,-0.53 -8.678,0.988 -8.156,-2.082 0.119,-0.696 -0.294,-1.408 -1.069,-1.404 -4.264,0.023 -1.374,5.75 0.866,6.87 2.804,1.401 7.906,-0.234 10.534,1.824 3.748,2.935 5.064,-0.21 9.35,-0.366 2.756,0.729 4.406,1.2 7.214,-0.722 0.287,-0.196 0.116,-0.688 -0.245,-0.582 z"
             transform="matrix(1.157625,0,0,1.157625,-2.55,-0.45)" />
          <path
             id="Snow_7_"
             fill="#ffffff"
             stroke="#000000"
             stroke-width="0.5"
             d="m 76.124,80.998 c -0.785,-0.377 -1.529,-0.164 -2.033,0.533 -0.084,0.117 -0.168,0.235 -0.253,0.353 -0.233,0.324 -0.167,0.735 0.032,1.054 -0.573,0.188 -1.134,0.412 -1.588,0.656 -1.589,0.854 -2.37,2.482 -4.425,2.651 -1.914,0.158 -3.556,0.537 -5.505,0.38 -0.444,-0.037 -0.859,0.011 -1.259,0.103 -0.818,-0.201 -1.601,-0.402 -2.214,-0.531 -2.639,-0.557 -4.537,2.123 -7.369,1.575 -1.989,-0.384 -3.292,0.068 -4.966,1.072 -0.155,0.093 -0.051,0.319 0.119,0.283 6.106,-1.315 2.419,1.39 6.225,1.033 2.673,-0.249 4.952,-2.002 7.804,-0.584 0.879,0.437 1.769,0.67 2.667,0.776 1.903,2.151 5.973,0.194 8.222,-0.296 3.185,-0.697 5.646,-1.958 6.02,-5.459 0.678,-1.33 0.482,-2.655 -1.477,-3.599 z"
             transform="matrix(1.157625,0,0,1.157625,-2.55,-0.45)" />
          <g
             id="Lights_4_">
            <path
               id="String_3_"
               d="m 77.228,86.298 c -0.556,0.106 -0.308,0.911 0.23,0.835 2.995,-0.427 2.107,3.738 1.648,5.23 -0.631,2.045 -2.253,3.633 -3.805,5.012 -3.223,2.866 -7.365,4.619 -11.538,5.528 -8.235,1.796 -17.178,-0.379 -24.14,-4.93 -5.648,-3.69 -8.704,-10.868 -15.311,-13.036 -5.08,-1.666 -8.19,1.77 -8.193,6.571 0,0.145 0.208,0.169 0.248,0.033 1.307,-4.34 2.302,-7.358 7.772,-5.976 4.228,1.069 6.937,5.154 9.66,8.23 5.371,6.067 13.093,9.511 21.06,10.375 7.797,0.845 15.847,-1.39 21.731,-6.639 2.312,-2.062 3.965,-4.84 3.967,-7.997 0.004,-2.112 -1.159,-3.649 -3.329,-3.236 z"
               transform="matrix(1.157625,0,0,1.157625,-2.55,-0.45)" />
            <g
               id="Light_17_">
              <path
                 id="Base_8_"
                 fill="#b7b7b7"
                 stroke="#000000"
                 stroke-width="0.5"
                 d="m 14.765,90.554 c -0.282,-0.099 -0.394,-0.506 -0.253,-0.911 v 0 c 0.141,-0.405 0.483,-0.655 0.766,-0.555 l 1.407,0.49 c 0.282,0.099 0.395,0.507 0.254,0.912 v 0 c -0.142,0.404 -0.485,0.654 -0.766,0.556 z"
                 transform="matrix(1.157625,0,0,1.157625,-2.55,-0.45)" />
              <path
                 id="Light_18_"
                 fill="#ea0000"
                 stroke="#000000"
                 stroke-width="0.5"
                 d="m 13.364,90.907 c -1.291,-0.71 -2.327,-1.559 -2.04,-2.378 0.286,-0.819 1.621,-0.837 3.077,-0.589 1.475,0.248 2.058,1.464 1.773,2.283 -0.285,0.819 -1.498,1.407 -2.81,0.684 z"
                 transform="matrix(1.157625,0,0,1.157625,-2.55,-0.45)" />
              <path
                 id="Highlight_10_"
                 fill="#ffffff"
                 d="m 14.488,88.812 c -0.785,-0.338 -1.225,-0.21 -1.158,-0.405 0.07,-0.196 0.271,-0.242 1.096,-0.016 0.837,0.229 1.288,0.629 1.221,0.824 -0.069,0.198 -0.36,-0.062 -1.159,-0.403 z"
                 transform="matrix(1.157625,0,0,1.157625,-2.55,-0.45)" />
            </g>
            <g
               id="Light_19_">
              <path
                 id="Base_9_"
                 fill="#b7b7b7"
                 stroke="#000000"
                 stroke-width="0.5"
                 d="m 31.398,88.257 c 0.227,-0.194 0.635,-0.088 0.917,0.236 v 0 c 0.28,0.324 0.326,0.746 0.098,0.941 l -1.128,0.974 c -0.226,0.194 -0.636,0.089 -0.917,-0.234 v 0 C 30.089,89.849 30.044,89.426 30.27,89.233 Z"
                 transform="matrix(1.157625,0,0,1.157625,-2.55,-0.45)" />
              <path
                 id="Light_20_"
                 fill="#fff533"
                 stroke="#000000"
                 stroke-width="0.5"
                 d="m 31.792,86.867 c 1.259,-0.764 2.512,-1.238 3.078,-0.58 0.567,0.657 -0.084,1.822 -1.026,2.96 -0.952,1.154 -2.296,1.052 -2.864,0.396 -0.566,-0.656 -0.47,-2 0.812,-2.776 z"
                 transform="matrix(1.157625,0,0,1.157625,-2.55,-0.45)" />
              <path
                 id="Highlight_11_"
                 fill="#ffffff"
                 d="m 33.045,88.888 c 0.685,-0.512 0.793,-0.958 0.929,-0.802 0.135,0.158 0.074,0.355 -0.534,0.957 -0.617,0.61 -1.188,0.802 -1.324,0.646 -0.135,-0.157 0.235,-0.281 0.929,-0.801 z"
                 transform="matrix(1.157625,0,0,1.157625,-2.55,-0.45)" />
            </g>
            <g
               id="Light_21_">
              <path
                 id="Base_10_"
                 fill="#b7b7b7"
                 stroke="#000000"
                 stroke-width="0.5"
                 d="m 44.12,102.716 c -0.167,0.247 -0.589,0.251 -0.946,0.012 v 0 c -0.355,-0.241 -0.509,-0.637 -0.34,-0.883 l 0.835,-1.234 c 0.168,-0.247 0.592,-0.251 0.948,-0.013 v 0 c 0.354,0.242 0.507,0.638 0.339,0.884 z"
                 transform="matrix(1.157625,0,0,1.157625,-2.55,-0.45)" />
              <path
                 id="Light_22_"
                 fill="#ff6d00"
                 stroke="#000000"
                 stroke-width="0.5"
                 d="m 44.102,104.161 c -1.018,1.064 -2.103,1.849 -2.821,1.361 -0.72,-0.487 -0.393,-1.781 0.22,-3.125 0.619,-1.362 1.944,-1.614 2.662,-1.128 0.718,0.487 0.975,1.81 -0.061,2.892 z"
                 transform="matrix(1.157625,0,0,1.157625,-2.55,-0.45)" />
              <path
                 id="Highlight_12_"
                 fill="#ffffff"
                 d="m 42.366,102.537 c -0.527,0.672 -0.517,1.131 -0.688,1.016 -0.172,-0.117 -0.164,-0.324 0.267,-1.062 0.437,-0.751 0.938,-1.084 1.11,-0.969 0.171,0.116 -0.154,0.331 -0.689,1.015 z"
                 transform="matrix(1.157625,0,0,1.157625,-2.55,-0.45)" />
            </g>
            <g
               id="Light_23_">
              <path
                 id="Base_11_"
                 fill="#b7b7b7"
                 stroke="#000000"
                 stroke-width="0.5"
                 d="m 61.561,102.604 c 0.011,-0.298 0.368,-0.524 0.797,-0.51 v 0 c 0.43,0.018 0.769,0.273 0.755,0.571 l -0.058,1.489 c -0.014,0.299 -0.371,0.525 -0.8,0.511 v 0 c -0.428,-0.02 -0.768,-0.274 -0.754,-0.572 z"
                 transform="matrix(1.157625,0,0,1.157625,-2.55,-0.45)" />
              <path
                 id="Light_24_"
                 fill="#ea0000"
                 stroke="#000000"
                 stroke-width="0.5"
                 d="m 60.813,101.366 c 0.303,-1.442 0.811,-2.681 1.678,-2.645 0.869,0.033 1.274,1.306 1.463,2.771 0.192,1.483 -0.801,2.396 -1.667,2.363 -0.866,-0.035 -1.783,-1.024 -1.474,-2.489 z"
                 transform="matrix(1.157625,0,0,1.157625,-2.55,-0.45)" />
              <path
                 id="Highlight_13_"
                 fill="#ffffff"
                 d="m 63.145,101.83 c 0.095,-0.85 -0.156,-1.233 0.051,-1.226 0.207,0.009 0.309,0.188 0.333,1.043 0.024,0.868 -0.226,1.415 -0.432,1.408 -0.208,-0.007 -0.045,-0.362 0.048,-1.225 z"
                 transform="matrix(1.157625,0,0,1.157625,-2.55,-0.45)" />
            </g>
            <g
               id="Light_25_">
              <path
                 id="Base_12_"
                 fill="#b7b7b7"
                 stroke="#000000"
                 stroke-width="0.5"
                 d="m 80.926,88.437 c 0.192,-0.227 0.612,-0.184 0.941,0.095 v 0 c 0.326,0.28 0.433,0.689 0.238,0.916 l -0.968,1.133 c -0.196,0.227 -0.616,0.183 -0.944,-0.094 v 0 C 79.87,90.207 79.76,89.797 79.956,89.57 Z"
                 transform="matrix(1.157625,0,0,1.157625,-2.55,-0.45)" />
              <path
                 id="Light_26_"
                 fill="#0074ff"
                 stroke="#000000"
                 stroke-width="0.5"
                 d="m 81.104,87.003 c 1.132,-0.944 2.297,-1.603 2.955,-1.037 0.662,0.564 0.192,1.814 -0.567,3.082 -0.767,1.283 -2.113,1.386 -2.771,0.823 -0.659,-0.564 -0.768,-1.908 0.383,-2.868 z"
                 transform="matrix(1.157625,0,0,1.157625,-2.55,-0.45)" />
              <path
                 id="Highlight_14_"
                 fill="#ffffff"
                 d="m 82.647,88.812 c 0.601,-0.609 0.641,-1.065 0.799,-0.932 0.157,0.136 0.126,0.34 -0.385,1.026 -0.518,0.696 -1.053,0.972 -1.21,0.838 -0.158,-0.136 0.189,-0.312 0.796,-0.932 z"
                 transform="matrix(1.157625,0,0,1.157625,-2.55,-0.45)" />
            </g>
          </g>
        </g>
        <g
           id="Middle">
          <g
             id="Middle_1_">
            <path
               id="ID0.12049101293087006"
               fill="#20891d"
               d="M 46.83,78.137 C 33.151,78.136 21.885,74.294 19.688,73.495 37.042,58.016 40.129,24.281 40.55,18.204 c 21.516,43.534 34.163,50.788 36.829,51.888 -8.646,5.339 -18.919,8.045 -30.545,8.045 0,0 -0.002,0 -0.004,0 z"
               transform="matrix(1.157625,0,0,1.157625,-2.55,-0.45)" />
            <path
               id="ID0.2506782151758671"
               d="m 40.731,19.133 c 20.267,40.789 32.652,49.307 36.117,50.99 -8.521,5.152 -18.615,7.764 -30.018,7.764 -12.962,0 -23.752,-3.461 -26.664,-4.486 16.421,-15.003 19.929,-46.32 20.565,-54.268 m -0.374,-1.884 c 0,0 -1.697,39.399 -21.147,56.334 0,0 12.2,4.804 27.62,4.804 9.839,0 20.987,-1.954 31.122,-8.358 0,-10e-4 -13.254,-3.262 -37.595,-52.78 z"
               transform="matrix(1.157625,0,0,1.157625,-2.55,-0.45)" />
          </g>
          <path
             id="Snow_3_"
             fill="#ffffff"
             stroke="#000000"
             stroke-width="0.5"
             d="m 68.22,60.096 c -0.125,-0.451 -0.525,-0.92 -1.008,-1.008 -0.165,-0.029 -0.33,-0.059 -0.495,-0.089 -0.502,-0.09 -1.026,0.129 -1.165,0.661 -0.385,1.478 -1.94,1.364 -3.223,1.983 -0.586,0.283 -1.184,0.718 -1.522,1.29 -0.919,1.555 -2.252,0.722 -3.633,1.114 -2.466,0.703 -3.439,2.862 -6.239,2.799 -1.96,-0.045 -3.265,0.739 -4.247,2.349 -0.108,0.175 0.067,0.383 0.258,0.335 1.877,-0.469 3.21,-0.377 5.111,-0.262 0.883,0.053 1.923,0.152 2.736,-0.323 1.288,-0.754 2.244,-1.995 3.97,-1.822 1.346,0.134 2.201,-0.03 3.33,-0.779 0.791,-0.524 1.017,-1.689 1.981,-2.026 0.797,-0.28 1.571,-0.55 2.348,-0.887 1.404,-0.609 2.209,-1.854 1.798,-3.335 z"
             transform="matrix(1.157625,0,0,1.157625,-2.55,-0.45)" />
          <path
             id="Snow_2_"
             fill="#ffffff"
             stroke="#000000"
             stroke-width="0.5"
             d="m 54.965,58.822 c -1.403,2.623 -4.268,0.148 -6.213,0.522 -1.621,0.312 -2.675,1.341 -4.124,1.435 -0.073,-0.03 -0.146,-0.059 -0.231,-0.078 -0.386,-0.088 -0.743,-0.115 -1.082,-0.098 -0.121,-0.038 -0.243,-0.079 -0.371,-0.131 -1.555,-0.638 -3.253,1.23 -4.528,1.731 -0.192,0.076 -0.399,0.121 -0.592,0.174 -1.159,-0.102 -2.349,-0.511 -3.369,-0.837 -0.117,-0.038 -0.217,0.102 -0.157,0.203 0.902,1.526 2.31,2.508 3.996,2.986 0.906,0.257 1.836,0.142 2.701,-0.185 0.563,-0.214 1.272,-0.87 1.95,-1.137 1.212,0.356 2.472,1.247 3.757,0.156 1.148,-0.976 2.09,-2.409 3.707,-2.442 0.861,-0.017 1.625,0.006 2.475,-0.121 1.175,-0.176 1.904,-1.097 2.246,-2.11 0.032,-0.096 -0.117,-0.158 -0.165,-0.068 z"
             transform="matrix(1.157625,0,0,1.157625,-2.55,-0.45)" />
          <path
             id="Snow_1_"
             fill="#ffffff"
             stroke="#000000"
             stroke-width="0.5"
             d="m 77.452,66.556 c -1.456,-0.949 -2.928,-0.029 -4.417,0.101 -0.463,0.041 -2.122,2.255 -2.264,3.438 -0.145,1.2 -4.561,2.238 -4.906,2.418 -2.223,1.154 -2.845,1.6 -5.58,1.552 -0.119,-0.002 -0.226,0.012 -0.341,0.014 -0.156,-0.115 -2.729,0.407 -3.891,0.912 -2.422,1.052 -2.045,0.2 -4.168,0.551 -3.025,0.499 -5.456,1.368 -8.734,0.854 -1.115,-0.174 -2.59,-0.368 -3.699,-0.071 -0.187,0.05 -0.365,0.087 -0.544,0.125 -1.489,-0.027 -3.278,-0.149 -4.924,-0.481 -1.331,-0.521 -2.632,-1.259 -4.168,-1.899 0,-10e-4 -10e-4,-10e-4 -10e-4,-0.002 -1.485,-1.659 -6.863,-2.296 -7.07,-2.42 -0.034,-0.021 -0.291,-1.473 -1.12,-1.243 -1.735,0.481 -5.685,1.541 -4.123,4.208 0.501,0.854 1.815,0.808 2.648,0.816 1.777,0.021 3.924,1.868 5.772,1.08 0.476,-0.203 0.94,-0.221 1.398,-0.104 0.223,0.088 0.445,0.175 0.667,0.263 0.521,0.274 6.573,7.144 9.438,5.446 2.839,-1.685 4.979,-2.216 6.855,-1.359 2.228,1.016 4.806,2.781 6.929,2.353 2.144,-0.433 3.747,-1.797 5.571,0.109 0.896,0.938 2.048,0.865 3.158,0.63 0.874,-0.186 1.454,-1.301 1.873,-1.979 0.583,-0.948 4.868,-1.829 4.99,-1.954 0.842,-0.189 1.794,-0.561 2.043,-1.465 0.04,-0.146 0.06,-0.315 0.082,-0.482 0.983,-1.091 3.484,-2.664 3.529,-2.69 1.189,-0.427 2.405,-0.963 3.298,-1.698 0.496,-0.203 0.964,-0.475 1.478,-0.851 0.997,-0.73 1.891,-1.646 2.061,-2.917 0.182,-1.352 -0.771,-2.56 -1.84,-3.255 z"
             transform="matrix(1.157625,0,0,1.157625,-2.55,-0.45)" />
          <g
             id="Lights_3_">
            <path
               id="String_2_"
               d="m 70.245,61.517 c -1.325,-0.729 -3.031,0.854 -3.703,1.804 -4.334,6.123 -9.851,9.786 -17.421,10.628 -3.438,0.383 -7.144,-0.062 -10.497,-0.824 -3.416,-0.778 -6.02,-2.761 -8.812,-4.728 -1.364,-0.962 -3.986,-2.562 -5.725,-1.569 -1.418,0.81 -1.689,1.797 -1.042,3.229 0.072,0.158 0.322,0.045 0.276,-0.116 -0.033,-2.718 2.375,-3.304 4.178,-2.18 0.462,0.223 0.909,0.473 1.339,0.751 0.884,0.532 1.699,1.193 2.522,1.812 1.516,1.138 3.106,2.059 4.856,2.781 3.883,1.604 8.765,1.923 12.903,1.634 4.136,-0.289 8.213,-1.698 11.642,-4.017 1.396,-0.944 2.6,-2.146 3.718,-3.397 0.521,-0.582 1.01,-1.205 1.477,-1.831 0.32,-0.425 0.635,-0.854 0.943,-1.286 0.228,-0.298 0.455,-0.596 0.683,-0.893 1.19,-1.566 3.148,-1.537 2.877,1.557 -0.207,0.318 0.338,0.633 0.508,0.296 0.541,-1.072 1.002,-2.702 -0.722,-3.651 z"
               transform="matrix(1.157625,0,0,1.157625,-2.55,-0.45)" />
            <g
               id="Light_11_">
              <path
                 id="Base_5_"
                 fill="#b7b7b7"
                 stroke="#000000"
                 stroke-width="0.5"
                 d="m 72.188,61.359 c 0.271,-0.126 0.636,0.089 0.816,0.478 v 0 c 0.181,0.39 0.108,0.807 -0.163,0.932 l -1.352,0.628 c -0.271,0.125 -0.637,-0.089 -0.818,-0.479 v 0 c -0.179,-0.389 -0.106,-0.806 0.164,-0.931 z"
                 transform="matrix(1.157625,0,0,1.157625,-2.55,-0.45)" />
              <path
                 id="Light_12_"
                 fill="#fff533"
                 stroke="#000000"
                 stroke-width="0.5"
                 d="m 72.947,60.131 c 1.421,-0.389 2.755,-0.502 3.12,0.286 0.365,0.788 -0.582,1.731 -1.798,2.565 -1.233,0.849 -2.498,0.382 -2.863,-0.405 -0.366,-0.786 0.097,-2.052 1.541,-2.446 z"
                 transform="matrix(1.157625,0,0,1.157625,-2.55,-0.45)" />
              <path
                 id="Highlight_7_"
                 fill="#ffffff"
                 d="m 73.599,62.417 c 0.799,-0.304 1.026,-0.703 1.114,-0.516 0.087,0.188 -0.026,0.362 -0.776,0.773 -0.761,0.418 -1.362,0.446 -1.45,0.259 -0.089,-0.189 0.301,-0.204 1.112,-0.516 z"
                 transform="matrix(1.157625,0,0,1.157625,-2.55,-0.45)" />
            </g>
            <g
               id="Light_15_">
              <path
                 id="Base_7_"
                 fill="#b7b7b7"
                 stroke="#000000"
                 stroke-width="0.5"
                 d="m 37.049,75.051 c -0.184,0.235 -0.605,0.211 -0.944,-0.052 v 0 c -0.338,-0.264 -0.465,-0.668 -0.28,-0.904 l 0.915,-1.176 c 0.184,-0.235 0.606,-0.212 0.947,0.052 v 0 c 0.336,0.264 0.463,0.669 0.279,0.903 z"
                 transform="matrix(1.157625,0,0,1.157625,-2.55,-0.45)" />
              <path
                 id="Light_16_"
                 fill="#0074ff"
                 stroke="#000000"
                 stroke-width="0.5"
                 d="m 36.935,76.49 c -1.086,0.996 -2.221,1.705 -2.905,1.171 -0.685,-0.533 -0.274,-1.804 0.427,-3.103 0.708,-1.318 2.046,-1.481 2.731,-0.949 0.685,0.532 0.852,1.871 -0.253,2.881 z"
                 transform="matrix(1.157625,0,0,1.157625,-2.55,-0.45)" />
              <path
                 id="Highlight_9_"
                 fill="#ffffff"
                 d="m 35.311,74.755 c -0.571,0.636 -0.59,1.095 -0.754,0.968 -0.164,-0.128 -0.142,-0.334 0.336,-1.043 0.485,-0.719 1.008,-1.019 1.172,-0.893 0.164,0.128 -0.175,0.32 -0.754,0.968 z"
                 transform="matrix(1.157625,0,0,1.157625,-2.55,-0.45)" />
            </g>
            <g
               id="Light_13_">
              <path
                 id="Base_6_"
                 fill="#b7b7b7"
                 stroke="#000000"
                 stroke-width="0.5"
                 d="m 59.884,71.873 c 0.212,0.21 0.138,0.626 -0.164,0.931 v 0 C 59.418,73.11 59,73.187 58.788,72.975 l -1.058,-1.05 c -0.212,-0.21 -0.138,-0.627 0.164,-0.933 v 0 c 0.303,-0.304 0.72,-0.381 0.931,-0.17 z"
                 transform="matrix(1.157625,0,0,1.157625,-2.55,-0.45)" />
              <path
                 id="Light_14_"
                 fill="#ff6d00"
                 stroke="#000000"
                 stroke-width="0.5"
                 d="m 61.3,72.158 c 0.858,1.197 1.427,2.409 0.815,3.025 -0.612,0.615 -1.825,0.056 -3.03,-0.796 -1.224,-0.86 -1.226,-2.209 -0.615,-2.825 0.61,-0.615 1.958,-0.622 2.83,0.596 z"
                 transform="matrix(1.157625,0,0,1.157625,-2.55,-0.45)" />
              <path
                 id="Highlight_1_"
                 fill="#ffffff"
                 d="m 60.534,72.678 c -0.518,-0.681 -0.965,-0.785 -0.81,-0.923 0.157,-0.137 0.355,-0.077 0.962,0.526 0.614,0.611 0.811,1.181 0.656,1.318 -0.155,0.138 -0.281,-0.231 -0.808,-0.921 z"
                 transform="matrix(1.157625,0,0,1.157625,-2.55,-0.45)" />
            </g>
          </g>
        </g>
        <g
           id="Top">
          <g
             id="Top_1_">
            <path
               id="ID0.985733509529382"
               fill="#20891d"
               d="m 34.373,50.762 c -3.416,0 -5.915,-0.272 -6.865,-0.395 C 38.78,35.491 36.244,19.694 34.724,10.225 L 34.482,8.702 c -0.12,-0.766 -0.539,-2.33 -0.884,-3.555 20.137,31.757 29.641,35.788 32.072,36.277 -10.333,7.705 -22.688,9.338 -31.297,9.338 0.001,0 0.001,0 0,0 z"
               transform="matrix(1.157625,0,0,1.157625,-2.55,-0.45)" />
            <path
               id="ID0.27076679933816195"
               d="m 34.272,6.673 c 18.319,28.606 27.535,33.939 30.805,34.876 -10.187,7.385 -22.256,8.963 -30.704,8.963 -2.973,0 -5.25,-0.208 -6.406,-0.341 C 39.003,35.313 36.485,19.62 34.97,10.186 34.886,9.66 34.804,9.152 34.728,8.664 34.657,8.203 34.479,7.459 34.272,6.673 M 32.866,3.52 c 0,0 1.161,3.888 1.369,5.221 1.471,9.438 4.947,26.112 -7.186,41.815 0,0 2.871,0.456 7.324,0.456 8.025,0 21.19,-1.48 31.961,-9.778 0,0 -0.036,0.005 -0.109,0.005 -1.087,0 -10.415,-1.155 -33.359,-37.719 z"
               transform="matrix(1.157625,0,0,1.157625,-2.55,-0.45)" />
          </g>
          <path
             id="Snow_6_"
             fill="#ffffff"
             stroke="#000000"
             stroke-width="0.5"
             d="m 68.288,40.882 c -2.131,-2.805 -7.443,-3.148 -10.702,-2.474 -1.576,0.326 -3.38,2.682 -1.568,3.906 0.812,0.55 -0.123,0.264 -0.938,0.622 -0.674,0.296 -1.068,0.605 -1.562,1.018 -1.12,0.341 -2.255,0.642 -3.386,0.948 -1.585,-0.588 -3.359,-0.964 -4.895,0.048 -1.494,0.986 -3.121,2.291 -4.988,2.408 -1.876,0.118 -3.706,-0.792 -5.504,-0.671 -1.776,0.119 -4.308,-0.525 -5.946,0.019 -2.506,0.832 -6.872,3.444 -2.539,5.983 1.666,0.976 4.394,-0.999 6.323,-0.292 0.453,0.166 1.087,0.164 1.553,0.036 1.878,-0.517 3.294,-0.805 5.271,-0.357 1.926,0.436 3.624,-0.865 5.446,-1.483 0.614,-0.083 2.021,-0.294 2.119,-0.282 0.913,0.109 2.062,-0.384 2.869,-0.692 1.399,-0.536 2.76,0.017 4.088,-0.747 1.314,-0.756 3.444,-2.253 4.508,-2.609 1.58,-0.528 2.611,-0.478 3.987,-1.454 2.066,-1.465 4.265,-0.176 5.865,-2.632 0.224,-0.346 0.258,-0.955 -0.001,-1.295 z"
             transform="matrix(1.157625,0,0,1.157625,-2.55,-0.45)" />
          <path
             id="Snow_5_"
             fill="#ffffff"
             stroke="#000000"
             stroke-width="0.5"
             d="m 51.767,30.198 c -1.073,0.447 -1.917,1.354 -2.428,2.38 -0.177,0.355 -1.729,0.129 -2.063,0.113 -0.631,-0.029 -1.259,0.347 -1.768,0.667 -1.441,0.91 -1.993,1.983 -3.837,2.361 -1.208,0.249 -1.955,0.82 -2.306,1.979 -0.02,0.065 0.042,0.11 0.101,0.101 1.757,-0.284 3.781,0.13 5.424,-0.481 0.581,-0.215 1.018,-0.621 1.45,-1.048 1.106,-1.092 2.163,-0.327 3.371,-0.671 1.735,0.066 3.914,-1.143 4.883,-2.214 1.822,-2.013 -0.802,-4.03 -2.827,-3.187 z"
             transform="matrix(1.157625,0,0,1.157625,-2.55,-0.45)" />
          <path
             id="Snow_4_"
             fill="#ffffff"
             stroke="#000000"
             stroke-width="0.5"
             d="m 40.987,27.456 c 0.027,-0.123 -0.053,-0.215 -0.173,-0.228 -0.754,-0.081 -1.265,0.208 -2.035,-0.071 -0.664,-0.241 -1.377,-0.539 -2.101,-0.371 -0.796,0.186 -1.275,0.689 -1.752,1.319 -0.094,0.137 -0.167,0.285 -0.219,0.443 -0.031,0.072 -0.05,0.125 -0.058,0.166 -0.217,0.082 -0.425,0.175 -0.599,0.349 -1.225,1.224 0.313,3.251 1.856,2.679 0.644,-0.238 1.087,-0.607 1.482,-1.166 0.157,-0.223 0.3,-0.458 0.477,-0.666 0.22,-0.26 0.582,-0.336 0.812,-0.613 0.071,-0.086 0.129,-0.188 0.176,-0.294 0.968,-0.019 1.912,-0.527 2.134,-1.547 z"
             transform="matrix(1.157625,0,0,1.157625,-2.55,-0.45)" />
          <g
             id="Lights_2_">
            <path
               id="String_1_"
               d="m 58.844,35.198 c -1.536,-1.143 -3.171,-0.229 -4.56,0.939 -2.195,1.846 -3.825,4.074 -5.109,6.625 -1.487,2.954 -2.209,6.25 -4.761,8.526 -3.397,3.03 -8.835,3.491 -12.877,5.499 -2.273,1.13 -6.016,3.389 -3.355,5.914 0.171,0.164 0.396,-0.076 0.254,-0.252 -3.751,-4.632 11.4,-7.359 14.215,-9.136 2.716,-1.715 4.409,-3.722 5.617,-6.592 0.919,-2.182 1.842,-4.321 3.134,-6.312 0.7,-1.078 1.588,-1.966 2.472,-2.883 0.441,-0.44 0.919,-0.837 1.432,-1.193 0.829,-0.722 4.399,-1.479 2.867,0.355 -0.21,0.195 0.059,0.511 0.297,0.384 0.634,-0.336 1.294,-1.189 0.374,-1.874 z"
               transform="matrix(1.157625,0,0,1.157625,-2.55,-0.45)" />
            <g
               id="Light_4_">
              <path
                 id="Base"
                 fill="#b7b7b7"
                 stroke="#000000"
                 stroke-width="0.5"
                 d="m 44.502,53.715 c 0,0.298 -0.349,0.54 -0.777,0.54 v 0 c -0.429,0 -0.776,-0.242 -0.776,-0.54 v -1.491 c 0,-0.298 0.348,-0.54 0.776,-0.54 v 0 c 0.429,0 0.777,0.242 0.777,0.54 z"
                 transform="matrix(1.157625,0,0,1.157625,-2.55,-0.45)" />
              <path
                 id="Light_1_"
                 fill="#ea0000"
                 stroke="#000000"
                 stroke-width="0.5"
                 d="m 45.297,54.921 c -0.244,1.454 -0.703,2.71 -1.571,2.71 -0.868,0 -1.325,-1.257 -1.572,-2.71 -0.25,-1.476 0.704,-2.427 1.571,-2.427 0.867,0 1.821,0.951 1.572,2.427 z"
                 transform="matrix(1.157625,0,0,1.157625,-2.55,-0.45)" />
              <path
                 id="Highlight_2_"
                 fill="#ffffff"
                 d="m 42.949,54.55 c -0.06,0.852 0.208,1.227 0,1.227 -0.207,0 -0.317,-0.176 -0.376,-1.029 -0.06,-0.866 0.168,-1.424 0.376,-1.424 0.208,0 0.059,0.361 0,1.226 z"
                 transform="matrix(1.157625,0,0,1.157625,-2.55,-0.45)" />
            </g>
            <g
               id="Light_5_">
              <path
                 id="Base_2_"
                 fill="#b7b7b7"
                 stroke="#000000"
                 stroke-width="0.5"
                 d="m 27.754,60.07 c -0.293,0.06 -0.599,-0.235 -0.684,-0.655 v 0 c -0.084,-0.421 0.084,-0.81 0.377,-0.868 l 1.461,-0.294 c 0.292,-0.059 0.598,0.234 0.683,0.655 v 0 c 0.085,0.42 -0.083,0.809 -0.376,0.868 z"
                 transform="matrix(1.157625,0,0,1.157625,-2.55,-0.45)" />
              <path
                 id="Light_6_"
                 fill="#ff6d00"
                 stroke="#000000"
                 stroke-width="0.5"
                 d="m 26.728,61.088 c -1.473,0.046 -2.795,-0.155 -2.967,-1.007 -0.171,-0.85 0.971,-1.547 2.347,-2.075 1.397,-0.536 2.519,0.211 2.689,1.062 0.171,0.851 -0.573,1.973 -2.069,2.02 z"
                 transform="matrix(1.157625,0,0,1.157625,-2.55,-0.45)" />
              <path
                 id="Highlight_4_"
                 fill="#ffffff"
                 d="m 26.628,58.712 c -0.847,0.11 -1.162,0.445 -1.203,0.242 -0.041,-0.203 0.11,-0.345 0.935,-0.571 0.837,-0.229 1.43,-0.116 1.47,0.088 0.041,0.203 -0.341,0.129 -1.202,0.241 z"
                 transform="matrix(1.157625,0,0,1.157625,-2.55,-0.45)" />
            </g>
            <g
               id="Light_3_">
              <path
                 id="Base_1_"
                 fill="#b7b7b7"
                 stroke="#000000"
                 stroke-width="0.5"
                 d="m 53.092,39.997 c 0.268,0.13 0.334,0.549 0.146,0.935 v 0 c -0.187,0.386 -0.556,0.593 -0.825,0.462 l -1.341,-0.65 c -0.269,-0.13 -0.334,-0.549 -0.146,-0.934 v 0 c 0.187,-0.386 0.556,-0.594 0.825,-0.464 z"
                 transform="matrix(1.157625,0,0,1.157625,-2.55,-0.45)" />
              <path
                 id="Light_2_"
                 fill="#fff533"
                 stroke="#000000"
                 stroke-width="0.5"
                 d="m 54.523,39.808 c 1.201,0.854 2.133,1.815 1.753,2.596 -0.378,0.781 -1.708,0.644 -3.124,0.231 -1.438,-0.418 -1.877,-1.692 -1.499,-2.472 0.38,-0.781 1.652,-1.224 2.87,-0.355 z"
                 transform="matrix(1.157625,0,0,1.157625,-2.55,-0.45)" />
              <path
                 id="Highlight_3_"
                 fill="#ffffff"
                 d="m 53.166,41.759 c 0.74,0.425 1.194,0.348 1.104,0.536 -0.091,0.186 -0.297,0.208 -1.089,-0.11 -0.806,-0.325 -1.209,-0.773 -1.118,-0.96 0.091,-0.187 0.349,0.103 1.103,0.534 z"
                 transform="matrix(1.157625,0,0,1.157625,-2.55,-0.45)" />
            </g>
          </g>
          <g
             id="Lights">
            <path
               id="String"
               d="m 46.807,22.303 c -3.227,0.688 -3.742,5.114 -5.313,7.469 -1.58,2.368 -3.463,4.639 -6.218,5.614 -1.185,0.419 -2.375,0.838 -3.191,1.839 -1.097,1.347 -0.23,3.571 1.443,2.623 0.276,-0.157 -0.234,-0.433 -0.542,-0.336 -1.257,-0.203 -0.501,-2.135 0.648,-2.606 0.436,-0.237 0.89,-0.435 1.362,-0.593 0.608,-0.229 1.222,-0.425 1.817,-0.688 1.82,-0.805 3.202,-2.571 4.375,-4.103 1.304,-1.702 2.088,-3.471 2.92,-5.419 0.483,-1.129 1.91,-4.164 3.653,-2.776 0.837,0.666 0.857,2.387 0.888,3.343 0.014,0.414 0.649,0.417 0.645,0 -0.016,-1.33 -0.313,-4.83 -2.487,-4.367 z"
               transform="matrix(1.157625,0,0,1.157625,-2.55,-0.45)" />
            <g
               id="Light_7_">
              <path
                 id="Base_3_"
                 fill="#b7b7b7"
                 stroke="#000000"
                 stroke-width="0.5"
                 d="m 38.085,35.775 c -0.19,0.231 -0.613,0.195 -0.943,-0.078 v 0 c -0.331,-0.273 -0.445,-0.681 -0.254,-0.912 l 0.949,-1.148 c 0.19,-0.23 0.612,-0.195 0.943,0.078 v 0 c 0.33,0.273 0.445,0.681 0.255,0.912 z"
                 transform="matrix(1.157625,0,0,1.157625,-2.55,-0.45)" />
              <path
                 id="Light_8_"
                 fill="#ea0000"
                 stroke="#000000"
                 stroke-width="0.5"
                 d="m 37.929,37.212 c -1.114,0.964 -2.268,1.642 -2.938,1.088 -0.669,-0.552 -0.221,-1.813 0.515,-3.09 0.747,-1.297 2.088,-1.423 2.757,-0.87 0.67,0.553 0.798,1.893 -0.334,2.872 z"
                 transform="matrix(1.157625,0,0,1.157625,-2.55,-0.45)" />
              <path
                 id="Highlight_5_"
                 fill="#ffffff"
                 d="m 36.355,35.43 c -0.588,0.62 -0.621,1.078 -0.782,0.946 -0.16,-0.132 -0.132,-0.337 0.365,-1.032 0.506,-0.705 1.038,-0.991 1.198,-0.859 0.16,0.132 -0.184,0.316 -0.781,0.945 z"
                 transform="matrix(1.157625,0,0,1.157625,-2.55,-0.45)" />
            </g>
            <g
               id="Light_9_">
              <path
                 id="Base_4_"
                 fill="#b7b7b7"
                 stroke="#000000"
                 stroke-width="0.5"
                 d="m 46.961,22.891 c 0.299,-0.02 0.56,0.313 0.586,0.742 v 0 c 0.027,0.429 -0.191,0.79 -0.49,0.809 l -1.487,0.093 c -0.299,0.017 -0.561,-0.315 -0.588,-0.743 v 0 c -0.026,-0.427 0.193,-0.79 0.492,-0.808 z"
                 transform="matrix(1.157625,0,0,1.157625,-2.55,-0.45)" />
              <path
                 id="Light_10_"
                 fill="#0074ff"
                 stroke="#000000"
                 stroke-width="0.5"
                 d="m 48.116,22.022 c 1.464,0.155 2.748,0.534 2.801,1.401 0.055,0.866 -1.171,1.4 -2.607,1.735 -1.457,0.342 -2.466,-0.552 -2.52,-1.418 -0.054,-0.865 0.837,-1.875 2.326,-1.718 z"
                 transform="matrix(1.157625,0,0,1.157625,-2.55,-0.45)" />
              <path
                 id="Highlight_6_"
                 fill="#ffffff"
                 d="m 47.891,24.389 c 0.854,0.007 1.212,-0.283 1.225,-0.075 0.013,0.207 -0.156,0.327 -1.003,0.438 -0.861,0.112 -1.433,-0.08 -1.445,-0.288 -0.014,-0.206 0.354,-0.08 1.223,-0.075 z"
                 transform="matrix(1.157625,0,0,1.157625,-2.55,-0.45)" />
            </g>
          </g>
          <g
             id="Star_2_">
            <path
               id="Star"
               fill="#fff533"
               stroke="#000000"
               stroke-width="0.5"
               d="m 42.774,14.08 c -0.772,1.273 -5.938,-0.517 -5.938,-0.517 0,0 -2.342,4.941 -3.793,4.599 -1.45,-0.341 -1.343,-5.807 -1.343,-5.807 0,0 -5.422,-0.7 -5.546,-2.185 -0.124,-1.486 5.108,-3.073 5.108,-3.073 0,0 -1.01,-5.373 0.364,-5.95 1.375,-0.577 4.501,3.909 4.501,3.909 0,0 4.798,-2.622 5.771,-1.492 0.973,1.128 -2.326,5.488 -2.326,5.488 0,0 3.976,3.753 3.202,5.028 z"
               transform="matrix(1.157625,0,0,1.157625,-2.55,-0.45)" />
            <path
               id="Star_1_"
               fill="#ffffff"
               d="m 38.814,11.87 c -0.388,0.64 -2.984,-0.26 -2.984,-0.26 0,0 -1.176,2.483 -1.906,2.311 -0.729,-0.171 -0.675,-2.917 -0.675,-2.917 0,0 -2.725,-0.352 -2.786,-1.098 -0.062,-0.747 2.567,-1.544 2.567,-1.544 0,0 -0.508,-2.7 0.182,-2.99 0.691,-0.29 2.262,1.964 2.262,1.964 0,0 2.411,-1.317 2.9,-0.75 0.489,0.568 -1.168,2.758 -1.168,2.758 0,0 1.997,1.885 1.608,2.526 z"
               transform="matrix(1.157625,0,0,1.157625,-2.55,-0.45)" />
          </g>
        </g>
      </g>
    </g>
  </g>
</svg>
