<?xml version="1.0" encoding="UTF-8"?>
<svg id="Layer_1" xmlns="http://www.w3.org/2000/svg" version="1.1" viewBox="0 0 360 288">
  <!-- Generator: Adobe Illustrator 29.8.3, SVG Export Plug-In . SVG Version: 2.1.1 Build 3)  -->
  <defs>
    <style>
      .st0 {
        fill: #484a47;
      }

      .st1 {
        fill: #0f120c;
      }

      .st2 {
        fill: #4f733c;
      }

      .st3 {
        fill: #454643;
      }

      .st4 {
        fill: #5a8645;
      }

      .st5 {
        fill: #f0f1f0;
      }

      .st6 {
        fill: #9dc76b;
      }

      .st7 {
        fill: #e6ecb5;
      }

      .st8 {
        fill: #5b8746;
      }

      .st9 {
        fill: #9ac369;
      }

      .st10 {
        fill: #4a4b48;
      }

      .st11 {
        fill: #e7edb5;
      }

      .st12 {
        fill: #5e8847;
      }

      .st13 {
        fill: #9dc86b;
      }

      .st14 {
        fill: #0b0d08;
      }

      .st15 {
        fill: #5c8646;
      }

      .st16 {
        fill: #9fca6d;
      }

      .st17 {
        fill: #5e8947;
      }

      .st18 {
        fill: #192011;
      }

      .st19 {
        fill: #4e761d;
      }

      .st20 {
        fill: #5c8846;
      }

      .st21 {
        fill: #43473f;
      }

      .st22 {
        fill: #628d4a;
      }

      .st23 {
        fill: #4f771d;
      }

      .st24 {
        fill: #5b8646;
      }

      .st25 {
        fill: #9fca6c;
      }

      .st26 {
        fill: #598344;
      }

      .st27 {
        fill: #ececec;
      }

      .st28 {
        fill: #99c368;
      }

      .st29 {
        fill: #11150b;
      }

      .st30 {
        fill: #9ac469;
      }

      .st31 {
        fill: #d1d1d1;
      }

      .st32 {
        fill: #5c8746;
      }
    </style>
  </defs>
  <path d="M113.66,45.53c.44.39,9.36,1.74,11.58,2.46,25.75,8.34,40.91,20.5,61.79,36.13,24.83,18.57,61.68,26.25,92.44,24.19,19.66-1.32,39.49-8.56,59.57-3.39,3.77.97,6.13,1.88,4.73,6.49-1.89,6.24-19.83,6.99-25.78,8.78-15.96,4.81-26.39,16.26-38.93,25.87-19.97,15.3-42.24,27.46-64.98,38.01-2.68,1.25-3.35-.34-2.32,4.21.55,2.4,2.38,4.31,2.6,6.8,1.19,13.97-18.1,49.28-31.51,54.2-5.21,1.91-10.55-.71-15.66-.59-2.31.05-4.76,1.76-7.06,1.35-2.17-.39-3.34-3.05-4.65-3.39-1.51-.39-3.06.82-5.27.35-6.34-1.35-5.78-7.57-2.85-11.96-2.15-.24-4.74.35-6.81-.04-1.51-.29-2.37-1.66-3.77-1.99-4.84-1.12-8.87.71-6.92-7.21,2.54-10.33,11.12-7.42,14.94-12.41,2.23-2.91,6.19-12.48,5.29-15.97-.35-1.33-3.15-4.71-4.06-6.77-1.94-4.37-3.93-8.95-3.82-13.82-3.01-.24-16.18-7.94-17.53-7.84-.59.05-6.41,5.84-9.69,6.66-2.69.68-6.01-.29-8.23,1.13-1.86,1.19-2.44,5.44-5.08,7.17-3.62,2.37-6.24-4.14-5.44-7.24-6.96,4.25-9.46-2.28-5.35-7.88l5.35-4.36c-3.67-1.5-6.96,3.14-9.55,2.76-3.19-.48-2.59-3.29-3.62-4.71-1.55-2.13-6.19-2.43-1.25-7.09,5.89-5.56,14.5-1.88,21.63-3.93l-13.7-21.22c-10.69-13.14-25.73-9.11-40.57-11.27-21.66-3.14-27.81-23.26-26.4-42.78,2.51-34.66,21.61-27.03,47.9-29.14,5.47-.44,11.5-2.07,17.17-2.13,1.37-3.1,4.76-10.77,8.78-10.53.88.05,1.71,1.12,2.76,1.02,1.32-.12,2.37-2.09,4.43-2.1,2.76,0,7.24,6.25,8.69,8.67.59.98.91,3.27,1.17,3.51Z"/>
  <path class="st16" d="M112.8,51.42c4.47,4.2,6.79,12.24,7.88,18.39-1.49,21.72,4.21-1.25,2.02-8.4-1.18-2.93-1.6-5.54-1.26-7.83,1.46.5,2.44,1.02,3.6,1.44,9.4,7.52,8.9,20.13,5.76,30.74.92,8.6-.77,15.1-4.59,22.7-1.36,6.86-.53,6.45,2.48-1.24,2.47-6.77,4.08-13.75,4.83-20.96,6.13-8.91,4.52-15.09,1.84-24.91l1.19-1.3c1.85.8,3.91,1.3,5.76,2.16,1.37.94,2.13,2.1,2.27,3.46l.67,16.44c2.06-4.78,2.77-9.95,1.75-15.09l1.07-1.93c1.62.8,3.37,1.26,5.04,2.16,5.08,4.64,4.81,10.84,3.25,16.97-3.04,11.97-9.03,23.1-16.06,33.1-2.98,5.94-3.53,7.98.58.94,10.48-12.08,21.1-27.21,19.35-43.95l1.52-1.31c2.3,1.52,4.16,2.62,6.48,4.32l1.24,2c-.34,2.04.45,2.33,2.36.88,1.26.94,2.48,2.05,3.6,2.88,5.05,5.39-.94,15.77-4.51,20.98-7.47,7.75-12.67,16.36-15.59,25.85l10.37-12.21c8.6-6.45,14.63-15.07,17.19-25.76l1.9-1.67c3.77,2.75,7.4,5.67,11.52,7.92,3.84,3.38-.12,9.74-2.61,13.26-7.86,7.41-10.83,15.82-13.11,26.07l-1.56.63c2.95,1.47,1.25,7.64,0,10.44,3.99-9.9,9.02-20.5,16.41-28.27,3.64-5.06,6.85-10.65,7.27-17.01l1.51-1.52c1.64.7,3.39,1.55,5.04,2.16,1.79,1.46,2.09,3.87.9,7.22-3.98,16.54.77.27,1.74-5.38l1.68-.4c.37.13,1.06-.13,1.44,0,3.2,3.44,2.74,12.23,2.08,17.06-1.99,5.74-4.1,11.43-6.31,17.08,10.68-6.43,10.47-20.14,9.4-31.13.81-.46,1.72-.5,2.74-.12,2.17.65,4.43,1.61,6.48,2.16l1.91,1.42c6.34,15.09,2.47,28.37-2.15,43.22-.01,3.4-.66,6.28-1.93,8.64-.62,2.89-9.44,2.81-10.08,0,1.14-.76,2.5-1.44,4.07-2.02l.44-7.08c.73.18,5.24-19.89,4.19-17.9-3.99,7.6-7.58,16.69-8.03,25.29l-1.4,1.71c-.49,2.32-3.82,1.77-3.6-.72.33-6.97-4.52-15.12-12.24-14.4-.91,5.23,6.16,8.24,6.45,12.63.24,3.71-2.46,12.07-2.16,16.5-1.36,10.74,4.39,15.56,1.84,26.32-2.66,11.18-13.94,31.14-23.47,37.73-2.96,2.04-3.5,1.98-7.13,1.87-.67-3.49-2.54-5.56-4.79-1.44-1.68.48-3.37.27-5.06,0-.41-4.87-1.94-3.7-4.95-.96l-1.75-.49c-.09-.06-2.05-.71-2.16-.72-2.48-.96-.98-4.37.72-5.76.73-.35,2.44-.24,3.78-.89,9.69-4.67,18.36-25.51,17.1-35.83l.73-1.51c6.59.11,15.68-12.63,3.65-3.1-2.74,1.95-4.68,2.04-5.83.29-.54-1.02-4.03-5.33-5.04-6.48l.16-1.71c7.09-1.32,12.77-4.04,17.05-8.14-.96-1.09-13.24,2.89-15.21,3.72-3.8,1.21-6.91,1.1-9.91-1.8-2.4-3.19-2.2-3.92-3.6-7.2l1.29-1.18c7.59,2.42,14.66.22,21.22-6.61-7.73,1.59-15.64,1.46-23.49,1.32l-1.9-1.45c-.59-2.58-.43-4.52-.88-6.68-.83-3.98-5.1-3.82-5.6.92-5.75,1.38-13.69.03-19.74-1.04l-1.14-1.12c-.24-.18-.49-3.74-3.62-1.82-.91.56-2.63,6.53-3.58,8.3-2.12.73-6.95-1.89-5.04-4.32.38-1.24.91-4.17.74-5.36-.29-1.94-1.99-2.19-2.18-2.56l-1.81-.39c-6.75-11.38-13.54-22.75-20.38-34.1l.59-1.51c4.55-2.29,4.64-12.98,5.9-14.98,1.07-1.69,15.74-2.15,8.14-10.93-1.74.58-2.33,3.92-2.98,4.37-1.01.7-3.59.56-5.1,1.21-4.57,1.99-8.53,6.33-13.69,7.19-8.66,1.44-18.42.52-27.18.9-4.72.2-24.81,2.98-27.38.72-1.27-1.12-3.34-8.62-3.74-10.66-1.98-10.19-1.83-33.58,10.59-36.87.94.3,1.46,1.12,1.56,2.46,5.77-1.8,11.73-3.1,17.88-3.9,10.15-.68,20.31-1.51,30.41-3.07,2.61-1.06,3.76-5.79,4.87-8.45.89-1.29,2.81-1.77,5.76-1.44.95-.4,2.72-2.36,3.61-1.84,3.72,3.53,3.79,10.98,8.63,12.64Z"/>
  <path class="st23" d="M138.72,223.5c2.43-1.36,4.85-1.59,6.99-2.73,5.58-2.98,11.51-17.89,9.95-23.93-.65-2.53-9.61-16.32-8.29-17.98,3.63,1.88,9.31,2.19,12.76,4.1.43.24,6.36,5.93,7.05,6.69,1.88,2.08,6.07,7.76,6.12,10.43.16,8.61-7.94,26.8-17.25,28.86-3.18.7-4.37-.4-5.81-.4-1.23-.33-2.19-1.49-2.89-3.51-2.02,1.96-4.18,2.89-6.47,2.79-.45-.21-1.03-.64-1.44-.72-.95-1.02-1.34-2.34-.72-3.6Z"/>
  <path class="st11" d="M95.52,114.06c1.28.8,13.34,22.36,15.54,25.86,2.51,3.99,3.97,5.92,6.06,10.14l-2.17,3.6c-.83.73-5.3-4.1-6.12-5.03-12.79-14.45-14.05-31.7-37.52-33.76-8.76-.77-21.86.56-29.78-2.62-1.8-.72-7.11-3.62-2.54-3.95,12.86-.93,26.7-.38,39.64-.69,3.34-.08,7.42-2.16,10.47.27,1.54,1.22,2.51,4.51,3.88,5.51,1.04.77,2.26.49,2.54.67Z"/>
  <path class="st8" d="M255.36,114.78l-1.38,1.56c2.11,5.31,3.17,10.94,3.53,16.62.43,6.88.34,16.52-3.58,22.13-1.7,1.1-3.28,2.52-5.04,3.6-2.65.53-5.23,1.34-7.75,2.43l-1.61-.99-.96-1.8c5.84-13.73,6.86-27.04,3.07-39.95-1.59-1.97-2.3-3.89-2.11-5.77l15.84,2.16Z"/>
  <path class="st8" d="M204.24,101.82c-.14,7.74-3.35,13.3-7.62,19.38-1.5,2.14-4.9,5.08-5.96,7-2.23,4.04-2.91,6.29-5.73,10.83-1.99,3.21-3.34,6.92-5.88,9.6v-10.44c0-1.42,4.45-16.08,5.44-17.6,4.51-6.91,13.52-12.79,11.84-22.36,2.52,1.38,5.28,2.48,7.92,3.6Z"/>
  <path class="st8" d="M184.8,90.3c-1.98,8.57-5.46,16.22-11.5,22.7-2.04,2.19-4.8,3.79-6.53,5.71-4.84,5.34-8.98,11.39-14.36,16.23,1.59-4.76,2.63-11.05,5.14-15.38,3.18-5.47,9.86-12.27,13.45-18.23,3.06-5.08,6.59-12.32,4.45-18.23,3.16,2.34,6.19,4.88,9.36,7.2Z"/>
  <path class="st16" d="M255.36,114.78c1.91-.08,3.85.02,5.76,0,6.29,2.87,6.81,13.62,6.56,20-.18,4.6-.59,10.39-3.68,13.84-3.43,2.4-6.64,4.26-10.08,6.48,3.05-13.44,3.58-27.52-2.16-40.32,1.19-.05,2.4.05,3.6,0Z"/>
  <path class="st8" d="M136.56,60.06l2.9,13.35c.88,5.38-3.85,9.99-4.76,13.95-1.1,4.77-.77,8.68-2.46,14.1s-4.43,12.48-7.92,16.91c.12-2.92-.29-5.91.17-8.83.66-4.23,4.23-9.03,4.8-13.2.47-3.4-.26-7.28.07-10.73.36-3.78,2.05-7.41,2.19-11.49.25-7.8-2.86-12.65-6.51-19.11,4.15,1.52,7.63,3.36,11.52,5.04Z"/>
  <path class="st8" d="M235.2,111.9l1.65,1.58c3.74,13.87,6.65,28.83.34,42.18-.09,2.61-.75,4.58-1.99,5.91-.34,2.41-6.48,4.28-7.92,2.16-1.21-12.22,6.59-22.81,6.21-35.04-.17-5.33-2.53-13.04-4.05-18.24,1.86.5,3.88,1.03,5.76,1.44Z"/>
  <path class="st8" d="M161.76,73.02c-.32,3.62.34,7.31-.19,10.97-1.61,11.07-11.8,27.17-19.55,35.17l-6.17,10.01c-.59-10.57,6.39-16.2,10.7-24.2,3.03-5.61,9.6-21.28,9.47-27.23-.08-3.61-1.7-7.17-2.9-10.48,3.19,1.71,5.7,3.82,8.64,5.76Z"/>
  <path class="st11" d="M151.68,157.98c-.55,5.26,1.96,12.26,4.31,16.93.5,1.56-9.95-2.57-10.78-2.9-5.83-2.31-11.24-5.75-17.29-7.56l2.88-8.63c.09.07,1.08-.59,2.16-.38,6.24,1.18,12.49,1.5,18.72,2.54Z"/>
  <path class="st24" d="M278.4,114.78c.14,1.41-.91,2.16-3.13,2.26,1.36,5.88,2.56,12.79,3.5,19.23l-1.09,2.27c-4.54,3.45-9.01,6.81-13.68,10.08,2.65-11.18,4.44-24.04-2.88-33.84,5.75-.05,11.53.04,17.28,0Z"/>
  <path class="st25" d="M239.52,112.62c11.23,12.86,4.41,32.99,0,47.52-.1,2.22-2.91,3.21-4.32,1.44-.77-6.41,3.53-12.38,4.24-18.44,1.26-10.69-3.08-20.79-4.24-31.24,1.41.31,2.89.48,4.32.72Z"/>
  <path class="st7" d="M248.88,158.7c-12.14,7.47-24.42,12.95-37.08,19.44-1.56-5.07.85-10.19,1.08-15.12,1.11.9,2.47.51,3.6.72.18-.62.42-.61.72,0,4.47.59,5.43.75,10.08,0,3.07-.5,5.14-1.42,7.92-2.16,1.54-.41,2.87-1,4.32-1.44,2.66-.81,7.09-2.83,9.36-1.44Z"/>
  <path class="st25" d="M283.44,114.78c5.29.44,8.49,10.48,5.04,14.4-3.55,2.7-6.93,6.42-10.8,9.36l-2.64-16.44-2.4-6.59c2.12.68,4.32-.55,5.76-.73,1.58-.2,3.47.21,5.04,0Z"/>
  <path class="st8" d="M222.96,108.3c-2.4-.32-1.19.87-1.09,2.17.9,12.55.1,25.47-12.58,31.67-.52-7.28,5.48-12.83,6.41-19.86.66-4.96.15-11.93-.66-16.86,2.6.9,5.28,2.09,7.92,2.88Z"/>
  <path class="st8" d="M158.16,163.74c10.82,0,21.56.93,31.68-3.59-.34,1.02-1.41,1.79-2.22,2.45-1.8,1.47-12.53,9.31-13.93,9.83-4.23,1.59-8.49.16-12.65-.77-1.34-3.13-2.05-4.26-2.88-7.92Z"/>
  <path class="st8" d="M121.44,53.58c3.91,6.33,3.96,17.43,1.57,24.25l-3,5.27c-2.13-4.75-.23-10.07-.9-14.58-.8-5.31-4.65-11.9-6.31-17.09,2.59.89,5.55,1.1,8.64,2.16Z"/>
  <path class="st8" d="M164.64,178.86c7.29,3.11,12.28-1.28,19.26-2.7,1.09-.22,7.79-1.17,8.09-.9-2.68,9.16-12.65,7.69-19.44,11.52-2.36-2.7-5.52-4.71-7.92-7.92Z"/>
  <path class="st24" d="M294.96,112.62c2.62.25,5.89,7.33,4.32,9.36-3.28,1.99-7.78,4.89-10.8,7.2.52-5.92-.65-10.37-5.04-14.4,3.79-.51,7.72-1.63,11.52-2.16Z"/>
  <path class="st32" d="M148.08,65.1c1.36,5.93,1.08,10.91-1.09,16.55-.44,1.16-1.4,3.77-2.5,4.33-2.02-7.84.32-15.94-2.17-23.75,1.94.9,3.85,1.93,5.76,2.88Z"/>
  <path class="st19" d="M107.05,163.02c-.12-.08-.18-1.9-1.44-2.52-3.91-1.93-13.83-1.3-18,.37l-.73-2.88c4.44-1.59,9.46-.15,13.98-.79,1.99-.28,5.07-2.34,6.39-2,.78.2,4.21,3.62,4.06,4.49-.13.72-3.45,3.88-4.26,3.33Z"/>
  <path class="st20" d="M179.04,197.58c-.11-.87-1.03-3.55-1.44-4.32,5.51.18,8.51-5.49,13.67-6.48-.2,6.32-6.34,10.47-12.23,10.8Z"/>
  <path class="st10" d="M159.6,240.78c1.9-1.2,3.25-3.59,5.86-3.24,3.12.41.67,5.87,3.79,4.61,1.36-.55,1.5-2.3,2.37-2.85,3.35-2.1,6.77.83,4.54,4.36-3.11-.1-6.51-1.02-9.73-1.06-1.43-.02-3.16,1.1-4.22.9-1.33-.25-2.01-2.32-2.61-2.72Z"/>
  <path class="st17" d="M213.6,105.42c-2.4,6.01-1.04,13.27-7.19,17.28.15-6.43,3.62-12.24,2.87-18.72,1.39.52,2.89.94,4.32,1.44Z"/>
  <path class="st13" d="M301.44,111.9c3.04-.11,5.7,5.38,2.88,7.2-1.46.77-3.61,2.02-5.04,2.88l-4.32-9.36c2.14-.3,4.34-.45,6.48-.72Z"/>
  <path class="st4" d="M310.8,110.46c2.13.19,3.89,2.59,2.16,4.32-2.29.82-6.3,3.08-8.64,4.32.32-2.8-1.41-5.04-2.88-7.2,3.13-.39,6.2-1.13,9.36-1.44Z"/>
  <path class="st24" d="M59.52,53.58c-1.48,1.14-3.66.7-5.62,1.22-4.5,1.2-15.12,8.87-13.82.22,6.71-1.78,12.8-1,19.44-1.44Z"/>
  <path class="st0" d="M150.24,228.54c-4.86.02-5.04,1.25-9.36-.72l6.12-4.35c2.12-.02,2.96,3.39,3.24,5.07Z"/>
  <path class="st22" d="M171.84,80.22c-2.1,3.1-.34,8.48-3.59,10.8v-13.68c1.29.95,2.45,2.03,3.59,2.88Z"/>
  <path class="st15" d="M328.8,110.46c-1.02.26-.78.5.72.72-3.76.67-7.83,1.22-11.52,2.16-2.15-.05-1.99-3.21,0-3.6,4.11-.14,6.95.16,10.8.72Z"/>
  <path class="st3" d="M157.44,240.06c-1.26-.12-6.56,1.77-5.75-.35s4.35-4.41,6.47-5.41l-.72,5.76Z"/>
  <path class="st6" d="M318,109.74v3.6c-1.32.34-3.86,1.02-5.04,1.44l-2.16-4.32c.71-.07,1.45.06,2.16,0l3.6-.72c.48-.03.96.02,1.44,0Z"/>
  <path class="st9" d="M104.16,169.5c4.29-.93,5.73-.21,4.32,2.16-1.14.18-2.24-.15-3.62.32-3.12,1.06-3.57,4.3-5.02-2.48,1.42.08,2.9-.13,4.32,0Z"/>
  <path class="st5" d="M96.95,102.55c.54.56-1.65,6.49-2.52,6.46l-3.23-3.95,5.74-2.52Z"/>
  <path class="st26" d="M112.8,170.94c-1.93.5-2.62.45-4.32.72-.94-2.33-2.31-1.98-4.32-2.16,2.39-1.1,4.66-.9,7.2-2.16,2-.77,3.18,2.5,1.44,3.6Z"/>
  <path class="st32" d="M119.28,167.34c-1.22,1.07-1.32,1.29-2.88,2.16-1.45-.33-2.41-1.53-2.88-3.6.93-.78,1.72-2.78,2.88-3.6,2.03-.16,4.68,3.37,2.88,5.04Z"/>
  <path class="st12" d="M118.56,157.98c-.24,2.08,3.65,2.47,5.04,4.32-.6,1.11-1.38,1.92-2.16,2.88-1.71-.5-3.87-2.17-5.04-3.6.17-.85,1.87-2.64,2.16-3.6Z"/>
  <path class="st30" d="M116.4,169.5c-1.66.92-1.73.96-3.6,1.44l-1.44-3.6c.62-.31,1.62-.99,2.16-1.44,2.03-.02,2.62,1.86,2.88,3.6Z"/>
  <path class="st30" d="M121.44,165.18c-.88,1.08-1.18,1.29-2.16,2.16-.41-1.64-2.67-3.57-2.88-5.04-.03-.2-.04-.53,0-.72,2.21-.04,4.84,1.1,5.04,3.6Z"/>
  <path class="st21" d="M138.72,223.5c1.33.9,1.73,2.32.72,3.6-1.04-.21-2.48.16-3.6,0,.66-.86,1.03-2.89,1.62-3.43.38-.35,1.07-.06,1.26-.16Z"/>
  <path class="st2" d="M100.56,40.62c-1.92.82-3.57,1.66-5.76,1.44.29-.7-.28-2.22,1.1-2.89,1.63.61,2.73,1.91,4.66,1.45Z"/>
  <path class="st28" d="M328.8,110.46c1.13.16,2.44-.12,3.6,0v.71c-.92.12-2.01-.15-2.88,0-3.13.41-4.37-.91-.72-.72Z"/>
  <path class="st15" d="M316.56,109.74c-.46.02-2.18.6-3.6.72.61-1.17,2.45-.68,3.6-.72Z"/>
  <path class="st8" d="M216.48,163.74c-.6-11.27,5.84-21.55,9.72-31.69,3.49,8.4-1.53,15.32-3.07,22.86-1.03,5.04,1.96,10.3-5.93,8.83-.24-.03-.49.04-.72,0Z"/>
  <path class="st14" d="M103.44,44.22c-.91,1.02-.91,1.5,0,1.44.42-.19,1.31-.9,1.43-.72-.09,2.77.88,8.43-3.08,7.06-4.85-1.68-.35-11.85,1.65-7.78Z"/>
  <path class="st1" d="M94.9,52.03c-.3-.46-.26-6.47.02-7.33,1.18-3.74,5.73.59,4.06,6.22-.58,1.95-3.32,2.29-4.07,1.12Z"/>
  <path class="st29" d="M46.93,59.35c2.55-.51,2.18,5.78.71,5.74-1.63-.05-2.8-5.32-.71-5.74Z"/>
  <path class="st18" d="M37.91,60.07c.7.75-.59,5.07-1.8,5.02-3.49-.12-.2-7.18,1.8-5.02Z"/>
  <path class="st31" d="M103.44,44.22c.14.28-.09,1.01,0,1.44-3.67,1.65-2.66-1.06,0-1.44Z"/>
  <path class="st27" d="M98.39,47.1c-.72.73-2.89-1.41-2.15-2.15s2.89,1.41,2.15,2.15Z"/>
</svg>