<?xml version="1.0" encoding="UTF-8"?>
<svg id="Layer_1" xmlns="http://www.w3.org/2000/svg" version="1.1" viewBox="0 0 216 216">
  <!-- Generator: Adobe Illustrator 29.8.3, SVG Export Plug-In . SVG Version: 2.1.1 Build 3)  -->
  <defs>
    <style>
      .st0 {
        fill: #cbc8bd;
      }

      .st1 {
        fill: #858275;
      }

      .st2 {
        fill: #cac8bd;
      }

      .st3 {
        fill: #79776b;
      }

      .st4 {
        fill: #858276;
      }

      .st5 {
        fill: #aca99f;
      }

      .st6 {
        fill: #b8b5a9;
      }

      .st7 {
        fill: #d3d0c5;
      }

      .st8 {
        fill: #d1cec3;
      }

      .st9 {
        fill: #848174;
      }
    </style>
  </defs>
  <path d="M113.6,66.47c6.01,2.39,11.53,8.57,15.42,13.76,13.43,17.94,31.3,52.13,39.12,73.2,1.53,4.11,6.05,13.94,3.82,17.68-.16.27-4.56,3.86-4.86,3.95-12.79,3.87-19.98-22.28-23.85-30.58-6.47-13.88-13.19-27.68-21.15-40.77-1.29-2.13-9.98-16.66-10.97-16.82-.67-.11-5.88.65-6.58,1.15-16.47,21.4-34.44,41.83-47.23,65.81-1.22,2.29-6.81,12.71-6.31,14.44.25.85.98,1.04,1.75,1.17,5.84,1.01,12.82.34,18.71.73,24.78,1.61,49.12,1.47,73.98.9,5.13.69,12.34,4.53,12.77,10.34.1,1.32-.52,2.36-.56,3.52-.06,1.64,1.25,2.28-.09,4.36-1.41,2.2-11.72,3.06-14.78,3.23-27.09,1.55-67.3.48-93.42-6.72-33.44-9.22-11.32-36.92,1-54.74,12.41-17.96,28-38.45,42.37-54.83,4.42-5.03,11.06-7.91,10.82-15.16-.35-10.79-2.32-21.2-1.51-32.41.27-3.72.47-7.78,3.84-9.84,11.61-7.07,13.24,2.32,12.02,12.02l-4.31,35.63v-.02ZM112.88,22.58c-.19-.2-3.66.49-4.13.89-2.23,1.94-.35,30.17-.18,35.1l3.59-25.56s.72-10.43.72-10.43ZM109.28,78.73c-.42-1.67.95-5.53-.71-6.47.42,1.66-.96,5.47.71,6.47ZM85.52,96.73c-.11.16.11.56,0,.72-4.39,3.91-8.16,9.06-11.81,13.75-8.63,11.11-18.64,24.06-25.93,35.99-3.83,6.26-13.78,21.79-6.14,27.62,5.63,4.3,29.16,7.33,37.13,8.23,23.7,2.68,48.48,1.62,72.27.81.36-3.28-1.04-3.95-3.6-5.04-4.04-1.72-6.65-1.3-10.8-1.44-3.81-.13-8.84-.51-12.24.72-9.34-.19-18.74.22-28.08,0-2.63-.06-5.3.11-7.92,0-9.21-.39-18.1-2.03-27.36-2.16-.61-1.15-2.44-.69-3.6-.72-1.44-.03-2.88.02-4.32,0-4.26-1.68-8.24-2.02-7.77-8.07.44-5.7,12.73-26.41,16.41-32.25.33-.53.5-1.1.72-1.44,7.73-12,19.1-26.05,28.08-37.44,2.67-3.38,11.24-11.1,12.57-14.43.71-1.78.63-4.63.03-6.45-5.79,6.82-12.44,14.32-17.64,21.6h0ZM114.32,78.01c-.1.7-1.28,1.7-.37,2.83,12.48,17.45,23.07,36.29,32.18,55.72,3.65,7.78,7.89,21.77,12.23,28.09.86,1.26,5.95,6.93,6.37,3.72.73-5.52-5.67-17.34-7.93-22.68-1.23-2.9-2.2-6.42-3.6-9.36-.87-1.82-2.07-3.45-2.88-5.04-7.05-13.88-16.86-32.63-25.76-45.16-2.93-4.13-6.2-7.53-9.88-11-.77.45-.24,2.03-.36,2.88h0Z"/>
  <path class="st4" d="M61.76,132.73c-2.57,4.07-2.84,4.69-.79,1.88l.79.28c-3.68,5.84-15.98,26.55-16.41,32.25-.46,6.05,3.51,6.4,7.77,8.07,11.7,1.86,23.46,3.06,35.28,3.6,3.09-.35,6.6-.64,9.36.72,3.92-.64,8.12-.64,12.6.01,5.44,2.51,35.4.87,15.25-.03l-1.21-1.43c3.4-1.23,8.43-.85,12.24-.72,3.18,4.51,6.52,5.07,10.8,1.44,2.56,1.09,3.96,1.75,3.6,5.04-23.8.81-48.57,1.87-72.27-.81-7.96-.9-31.49-3.93-37.13-8.23-7.64-5.83,2.31-21.35,6.14-27.62,7.29-11.93,17.3-24.87,25.93-35.99,3.65-4.69,7.41-9.84,11.81-13.75-.62,2.14-1.37,4.26-2.64,6.11-6.17,8.95-12.53,17.92-18.9,26.73-.64.89-1.41,1.68-2.22,2.44h0Z"/>
  <path class="st1" d="M150.32,131.29c.81,1.59,2.01,3.22,2.88,5.04-.63,2.72,1.23,7.99,3.6,9.36,2.26,5.34,8.66,17.16,7.93,22.68-.42,3.21-5.51-2.47-6.37-3.72-4.34-6.32-8.58-20.3-12.23-28.09-9.11-19.43-19.7-38.27-32.18-55.72-.91-1.14.28-2.13.37-2.83,2.77,1.02,5.06,3.04,6.88,6.06,9.83,13.57,17.7,28.89,24.79,43.67,1.08,1.75,2.91,4.02,4.33,3.56h0Z"/>
  <path class="st7" d="M150.32,131.29c-.76,1.79-1,1.4-2.38.6-3.71-2.14-5.31-8.47-7.32-12.14-7.88-14.38-15.08-29.58-26.29-41.75.12-.85-.42-2.42.36-2.88,3.68,3.46,6.95,6.87,9.88,11,8.9,12.53,18.71,31.28,25.76,45.16h0Z"/>
  <path class="st7" d="M124.4,178.09c2.44.05,7.29-.59,9.04.68,2.89,2.1-1.47,3.54-3.65,3.69-8.8.6-22.64-2.27-32.03-2.93-1.41-.3-1.89-.78-1.44-1.44,9.34.22,18.74-.19,28.08,0Z"/>
  <path class="st8" d="M90.56,96.01c-8.98,11.39-20.35,25.44-28.08,37.44-1.01.95-1.38.55-.72-.72,7.82-11.75,15.56-23.8,23.76-35.28.11-.16-.11-.56,0-.72,1.81-1.89,6.35-5.83,5.04-.72h0Z"/>
  <path class="st9" d="M90.56,96.01c-1.58-3.38-2.69.62-5.04.72,5.21-7.27,11.85-14.77,17.64-21.6.6,1.82.68,4.67-.03,6.45-1.34,3.33-9.9,11.04-12.57,14.43h0Z"/>
  <path class="st2" d="M57.44,175.21l3.6.72c9.26.13,18.15,1.77,27.36,2.16.63.2.62.44,0,.72-12.57-.75-23.22,1.14-35.28-3.6,1.44.02,2.88-.03,4.32,0h0Z"/>
  <path class="st8" d="M147.44,178.81c-.19,5.88-11.89,4.68-10.8-1.44,4.15.14,6.76-.28,10.8,1.44Z"/>
  <path class="st0" d="M153.2,136.33c1.4,2.94,2.37,6.46,3.6,9.36-1.23,1.93-2.53-.97-2.92-1.76s-3.86-8.26-.68-7.6Z"/>
  <path class="st5" d="M96.32,178.09l1.44,1.44c-3.13-.22-6.22-.53-9.36-.72v-.72c2.62.11,5.29-.06,7.92,0Z"/>
  <path class="st6" d="M62.48,133.45c-.22.34-.39.91-.72,1.44l-2.52,2.16-.36-.36c.05-1.7,2.2-2.93,2.89-3.95l.72.72h0Z"/>
  <path class="st3" d="M109.28,78.73c-1.66-1-.28-4.81-.71-6.47,1.66.94.29,4.81.71,6.47Z"/>
  <path class="st4" d="M61.04,175.93c-1.15-.02-3,.43-3.6-.72,1.16.03,2.99-.43,3.6.72Z"/>
</svg>