<?xml version="1.0" encoding="UTF-8"?>
<svg id="Layer_1" xmlns="http://www.w3.org/2000/svg" version="1.1" viewBox="0 0 720 288">
  <!-- Generator: Adobe Illustrator 29.8.3, SVG Export Plug-In . SVG Version: 2.1.1 Build 3)  -->
  <defs>
    <style>
      .st0 {
        fill: #fcf9b0;
      }

      .st1 {
        fill: #fefbb1;
      }

      .st2 {
        fill: #f5cf3c;
      }

      .st3 {
        fill: #e9d877;
      }

      .st4 {
        fill: #efc735;
      }

      .st5 {
        fill: #fcf7a8;
      }

      .st6 {
        fill: #f8f5ac;
      }

      .st7 {
        fill: #f6e889;
      }

      .st8 {
        fill: #ddd382;
      }

      .st9 {
        fill: #bb870b;
      }

      .st10 {
        fill: #f1cb3a;
      }

      .st11 {
        fill: #bd880a;
      }

      .st12 {
        fill: #efc93a;
      }

      .st13 {
        fill: #b4810a;
      }

      .st14 {
        fill: #f6d03d;
      }

      .st15 {
        fill: #f9f7ae;
      }

      .st16 {
        fill: #eabf30;
      }

      .st17 {
        fill: #fbe678;
      }

      .st18 {
        fill: #f5d03e;
      }

      .st19 {
        fill: #bd870a;
      }

      .st20 {
        fill: #f6d03c;
      }

      .st21 {
        fill: #f0cb3a;
      }

      .st22 {
        fill: #f3ce3f;
      }

      .st23 {
        fill: #f1cb3b;
      }

      .st24 {
        fill: #eec939;
      }

      .st25 {
        fill: #f7d03c;
      }

      .st26 {
        fill: #f8f5ab;
      }

      .st27 {
        fill: #f6cf3b;
      }

      .st28 {
        fill: #d6a71f;
      }

      .st29 {
        fill: #edc83c;
      }

      .st30 {
        fill: #f5cf3e;
      }

      .st31 {
        fill: #f6cf3c;
      }

      .st32 {
        fill: #f8f2a3;
      }

      .st33 {
        fill: #f6ef9f;
      }

      .st34 {
        fill: #c59111;
      }

      .st35 {
        fill: #fefbb2;
      }

      .st36 {
        fill: #f6ec96;
      }

      .st37 {
        fill: #fefcb3;
      }

      .st38 {
        fill: #f2cc3b;
      }

      .st39 {
        fill: #b3820d;
      }

      .st40 {
        fill: #d9ab22;
      }
    </style>
  </defs>
  <path class="st25" d="M636.05,189.62c5.55,4.57,9.12,10,8.36,17.43-2,19.68-18.96,24.14-34.71,28.09-1.33.33-2.63.75-3.89,1.27-24.16,2.54-47.42,1.83-71.63.71l-31.33-3.59,2.55-.76c30.47,1.71,61.17,2.59,91.43.47,1.77-.12,7.66-1.5,6.05-3.22-10.02.5-20.11.71-30.15.58-.84,0-1.68-.22-2.54-.46s-1.71-.57-2.54-.93l21.14-2.26c10.16-.42,41.25-9.48,44.04-20.04,3.27-12.34-13.89-18.27-23.26-19.98-7.51-1.37-14.79-.98-22.11-1.65-36.82-3.34-74.6-5.67-111.58-7.22-11.84-.5-23.82-.22-35.67-.69.34-2.65-.56-4.5-2.16-6.48,5.76-1.51,11.81-1.81,18.16-.9,31.77,2.99,63.54,4.73,95.32,5.23,1.61.33,21.58,3.28,21.27,1.07-7-2.9-14.7-4.38-23.11-4.45l-.77-1.67c22.93.92,70.84,1.03,87.12,19.44h.01Z"/>
  <path class="st37" d="M441.65,164.42c14.75,0,30.78,2.84,45.69,3.63,20.43,1.08,41.08,1.31,61.59,2.13,8.5,2.28,20.06-.34,26.64,6.47-7.76,4.16-16.03.52-24.13.02-11.61-.72-23.65-.04-35.27-.73-26.73-1.6-50.79-4.85-78.13-5.03-2.38-.02-4.87-.02-7.2,0-7.23,1.89-16.78,2.12-24.48,1.87-1.28-.04-2.48-.58-3.6-1.15-.01-.21-.73-.46-.46-2.13.38-2.31,1.43-2.93,2.62-4.35l3.38-.98c11.13-.19,22.54-.33,33.34.26h.01Z"/>
  <path class="st37" d="M502.85,233.54c-.71-.06-1.45.06-2.16,0-10.5-.9-21-1.71-31.51-2.43l-2.33-1.17c-.79-.55-.31-.79,1.44-.72,11.31-.87,22.94.6,34.17.75,21.78.3,43.51-.42,65.19-.75,11.83-.18,23.66.04,35.48-.56l2.67,1.64c-2.64,3.85-7.52,4.34-11.88,4.67-28.85,2.22-62.24.88-91.07-1.43h0Z"/>
  <path class="st20" d="M383.33,224.18c.48,0,.96,0,1.44,0,1.52.25,2.96.49,4.32.72,3.32-.16,6.68.08,10.08.72l10.8.72c11.26.02,22.72.24,33.84,1.44,2.04-.05,3.96.19,5.76.72,5.75-.17,11.68.27,17.28,1.44,11.29.94,22.66,2.7,33.84,3.6-13.05-1.42-26.19-.87-39.27-1.41-23.57-.98-47.84-1.3-71.26-2.9-2.98-.2-7.79.71-10.12-.68-.96-.57-3.73-4.44-1.75-5.09l5.04.72h0Z"/>
  <path class="st11" d="M605.81,236.42c3.88-3.59,10.63-3.81,15.69-5.55,10.41-3.59,16.73-8.36,20.45-19.15,2.9-8.42-.24-15.7-5.9-22.1,10.22,6.78,16.02,16,8.51,27.59-2.96,4.58-18.79,16.59-24.06,17.7-4.38.92-10.14,1.03-14.69,1.51h0Z"/>
  <path class="st18" d="M430.85,170.9c-.56,2-2.9,1.85-3.94,2.9-1.46,1.47-.23,3.22-3.58,3.62-5.93.72-13.25-.63-19.36,0-1.38-.32-1.13-4.56-1.2-5.79,9.35-.89,18.69-.64,28.08-.72Z"/>
  <path class="st14" d="M244.55,220.85c.93,0,6.95.46,7.2.72.22.22-.43,4.61.72,5.76-.82.57-17.12-1.91-19.81-2.15-4.89-.43-18.38-.08-21.95-2.17l2.25-1.06c10.56-.75,21.09-1.12,31.59-1.1Z"/>
  <path class="st31" d="M171.83,214.37l1.67-.78c2.82,2.27,5.62,3.49,8.41,3.66.58-.45,12.66,1.28,14.4,1.44,2.35.76,3.79,1.96,4.32,3.6-6-.17-10.58-.71-16.56,0l-4.58,1.7c-4.18,3.42-6.49,3.33-6.94-.26-.25-3.58-1.24-5.36-.72-9.36h0Z"/>
  <path class="st0" d="M244.55,220.85c-.09,0-.82.74-1.74.75-10.81.06-21.35.96-32.1,1.41-1.23-.71-2.26-2.08-2.16-3.6l36,1.44h0Z"/>
  <path class="st30" d="M441.65,164.42c-3.45,0-6.71.73-9.69.75-9.01.07-18.03-.11-27.03-.03,4.37-5.21,6.29-2.26,11.85-2.13,8.3.2,16.75-.7,24.87,1.41Z"/>
  <path class="st15" d="M428.69,190.34c-2.74,4.45-6.43,9-9.36,13.68-2.67,2.94-5.06,2.57-2.88-1.44,3.33-5.39,6.72-11.07,10.08-16.56,2.95-1.89,3.34,1.78,2.16,4.32Z"/>
  <path class="st23" d="M255.35,188.45c-1.94,1.25-3.74,2.7-5.41,4.33l-1.79-.73c1.95-2.73,11.74-17.4,14.76-17.26,2.04.09.14,3.43-.23,4.08-1.97,3.48-5.05,6.5-7.34,9.58h.01Z"/>
  <path class="st22" d="M276.95,169.73c-.02,2.35.31,4.21.72,6.48-1.87.12-6.33,1.52-7.81.6-.31-.19-2.23-5.59-3.71-6.36,3.63-.13,7.14-1.01,10.8-.72Z"/>
  <path class="st9" d="M184.07,222.29c-5.09,3.7-14.24,13.03-17.28,2.16.2-2.26,2.73-1.83,3.6,0,.08.17,1.9,2.42,2.15,2.16-.03-.95.07-1.93,0-2.88,1.77,3.63,4.7-.74,7-1.29,1.54-.37,3.09.02,4.52-.15h0Z"/>
  <path class="st21" d="M428.69,190.34c.02-1.72-.49-3.55-2.16-4.32,1.01-1.64,4.8-9.53,5.23-9.89,1.02-.86,3.13-.84,3.81.52.3.7-5.89,12.09-6.87,13.69h-.01Z"/>
  <path class="st6" d="M255.35,188.45c-3.28,4.42-6.67,8.61-10.08,12.96-1.62,1.18-2.71,1.65-2.88-.72,1.98-2.82,3.92-6.07,5.76-8.64,2.66-.94,4.1-3.89,7.2-3.6h0Z"/>
  <path class="st38" d="M167.51,210.77c1.53-.39,2.01-.1,2.16,1.44-.64,4.27-1.2,8.06.72,12.24h-3.6c-1.44-5.14-.92-8.82.72-13.68h0Z"/>
  <path class="st13" d="M414.29,211.94c-2.06,3.32-1.77,8.01-7.2,6.47,1.54-3.48,3.13-6.77,5.04-10.07,1.48.6,2.37,2,2.16,3.6Z"/>
  <path class="st26" d="M181.91,217.25c-.06.05.26,1.32-.45,1.48-2.61.61-7.18-3.35-9.63-4.36.1-.73-.16-3.57,1.08-3.59.55,0,7.62,5.75,9,6.47Z"/>
  <path class="st24" d="M416.45,202.58c-.37,3.09.44,2.18,2.88,1.44-1.64,2.62-3.48,5.4-5.04,7.92-1.57-.66-2.35-1.88-2.16-3.6,1.15-1.99,3.31-4.13,4.32-5.76Z"/>
  <path class="st13" d="M239.51,204.29c1.5.06,2.05.68,1.44,2.16-.56.79-1.81,2.89-2.33,3.82-1.46,2.58.62,3.2-4.87,2.66,1.54-3.12,3.72-5.84,5.76-8.63h0Z"/>
  <path class="st33" d="M196.31,218.69c2.35.21,4.84-.15,7.2,0v4.33c-1.4.5-2.1-.45-2.88-.72-1.88-.66-4.31-1.33-4.32-3.6h0Z"/>
  <path class="st36" d="M468.29,229.22c-.61.05-1.25.02-1.44.72-5.78-.48-11.7-.84-17.28-1.44.22-.47.94-.71,2.16-.72l16.56,1.44Z"/>
  <path class="st29" d="M245.27,201.41c-1.25,1.6-3.37,3.71-4.32,5.04-.9-.56-1.69-.96-1.44-2.16.91-1.24,2.16-2.57,2.88-3.6l2.88.72h0Z"/>
  <path class="st8" d="M399.89,225.62h-.72c-3.77-.1-6.38-.27-10.08-.72-.63-.2-.62-.44,0-.72,3.27.17,7.86.72,10.8,1.44Z"/>
  <path class="st3" d="M409.97,226.34c-3.42,0-7.84.61-10.8-.72h.72c3.2.04,7.35-.64,10.08.72Z"/>
  <path class="st32" d="M167.51,210.77c.17-.51-.13-1.51,0-2.16,3.69.54,2.59.72,2.16,3.6-1.2.25-1.6-.54-2.16-1.44Z"/>
  <path class="st5" d="M451.73,227.78l-2.16.72c-1.92-.21-4.06-.54-5.76-.72h7.92Z"/>
  <path class="st7" d="M389.09,224.18v.72c-1.33-.16-3.51.6-4.32-.72,1.43.04,2.89-.08,4.32,0Z"/>
  <path class="st1" d="M592.13,178.1c-3.14,2.16-13.52,1.08-12.14-3.8s13.86,1.52,12.14,3.8Z"/>
  <path class="st25" d="M171.11,106.37c.63.2.62.44,0,.72l-1.82,1.49c-16.25.73-32.58.56-48.98-.52-15.09-.12-30.53.31-44.96,4.78-1.44.75-3.27,1.41-4.55,2.29-15.7,10.76-21.68,40.71-1.69,50.4,8.04,3.9,29.96,4.94,39.37,4.91,1.63.15,3.07.39,4.32.72,17.67-1.21,35.41-1.29,53.22-.23l3.66.95c.26,1.97,1.57,3.69,1.44,5.76-22.13.04-44.21.51-66.24-1.44l-21.07-1.27c-28.03.77-45.55-21.57-37.97-48.41,2.38-6.7,3.24-9,7.92-14.4,10.46-5.45,19.97-9.47,32.09-10.2,26.52,2.04,53.61,2.68,80.83,3.09.74.01,1.48.21,2.22.44s1.49.56,2.21.91h0Z"/>
  <path class="st25" d="M262.55,114.29l-2.04,1.04c-8.75-2.59-17.96-3.54-27.17-4.34-19.7-1.72-39.51-2.42-59.26-2.47-1.11-.22-2.1-.7-2.96-1.43v-.72l3.49-1.55c16.18-.75,32.24-1.89,48.17-3.41,4.08-1.04,6.35-5.95.29-4.81-3.06.63-5.49.29-7.31-1.02,18.55-5.6,34.47-18.68,49.67-30.24-3.83,16.04-4.58,32.55-2.87,48.96h-.01Z"/>
  <path class="st11" d="M284.87,61.01c.18,1.39.18,2.59,0,3.6.95,1.34,1.21,3.39.72,5.04,2.39,2.54,3.95,11.92,3.35,15.81-.95.4-1.11,1.37-.47,2.91.56,4.92.74,10.23,0,15.12,1.09,1.25,1.16,3.91-.72,4.32.49.97.59,1.96,0,2.88.44.88.37,1.38-.72,1.44.26,3.39-.21,7.36-2.16,10.08-.64,4.8-1.88,10.21-4.33,14.4l-2.15.72c-1.16-.83-1.33-1.05-2.16-2.16-1.26-.67,2.28-12.1,2.15-11.52-.66,2.96-1.39,5.96-2.55,8.78l-1.04-.14c-9.37-18.47-6.55-53.59.72-72.72,2.37-1.29,4.35,2.17,5.4,4.17,7.4,14.06,5.26,44.05,1.08,58.47-.08,2.43.16,2.91.72,1.44,4.2-22.46,5.08-45.82-4.45-67.2l.13-3.36c.18-.26.5-.48.72-.72,2.9-1.63,7.72,6.48,5.76,8.64Z"/>
  <path class="st11" d="M171.11,107.09c23.3-.1,56.64,1.1,79.44,4.44,4.09.6,7.96,2,12,2.76.48,4.61,1.65,9.08,2.15,13.68-8.1-4.05-16.6-8.49-25.37-10.99-19-5.41-38.99-3.51-58.54-4.1-19.09-.58-38.4-1.97-57.54-2.22-15.94-.21-32.28-.91-47.91,2.19,19.39-10.14,60.88-4.89,83.91-5.01,3.73-.02,7.74-.74,11.85-.75h.01Z"/>
  <path class="st37" d="M215.75,95.57c4.41-.35,8.6-.73,12.96,0-.55,3.02-1.58,6.14-4.84,7.03-9,2.47-22.09.52-31.52,3.04-7.11-.05-14.14.56-21.23.73-16.71.39-35.58.36-52.23-.69-28.53-1.8-34.53-7.42-61.83,6.51-1.04.53-2.51,1.41-3.3-.06,6.23-7.18,9.26-8.1,18.59-9.85,21.69-4.07,44.12.84,66.04.52,26.03-.38,51.75-5.2,77.37-7.23h-.01Z"/>
  <path class="st25" d="M278.39,137.33c3.22-4.89,4.9-9.52,6.48-15.12.61-.56.85-.08.72,1.44,1,2.04,2.51-5.62,2.7-7.16.42-3.28.76-6.52.69-9.76,2.51-15.24-.61-31.06-4.11-45.73-1.42-3.08-2.78-6.57-5.76-8.64,2.21-2.42,3.17-4.35,6.86-1.45,4.13,3.24,7.22,22.18,7.57,27.7.8,12.51-1.63,47.53-8.79,57.51-1.37,1.9-2.49,3.31-5.16,2.52-.9-.26-.97-1.16-1.2-1.32h0Z"/>
  <path class="st1" d="M175.43,171.89c-.67-2.9-.67-4.01.04-7.16,15.5,0,31.12-.29,46.39-2.93.66,2.91-.57,5.63-.35,8.65-2.41,1.56-11.46,2.25-14.17,1.72-.57-.11-.97-.55-1.31-1-.06.56-.25,1.41-.65,1.44-2.57.17-21.15.62-22.06,0-.53-.36-.9-.8-1.05-1.44,0,2.5-6.26,3.41-6.84.72Z"/>
  <path class="st25" d="M221.51,170.45c.07.93,1.71,6.25,1.44,6.48-14.91.67-29.85.9-44.85.74-1.78-1.69-2.16-3.59-2.67-5.77,2.14.76,5.49-.72,6.84-.72h23.76c.27,0,1.19-.71,2.13-.75,4.43-.18,8.92.18,13.35.03h0Z"/>
  <path class="st37" d="M277.67,163.97c-.52,1.61-.71,4.03-.72,5.76-2.25,2.13-8.19,2.58-10.8.72-1.99.07-4.16-.08-6.48,0-9.98,2.61-21.66,3.12-31.68.72-.58-3.46-.84-2.74,0-6.48,1.79-.97,4.15-1.16,7.07-.56,2.85-.51,5.17-.32,6.97.56.07-.56.24-1.39.64-1.44,4.05-.47,16.72-.57,20.64,0l1.04,1.44c-.14-3.88,10.78-2.58,13.32-.72h0Z"/>
  <path class="st11" d="M104.87,176.21c-3.22-.11-6.49.17-9.71,0-10.58-.57-29.26-1.07-38.29-5.63-17.68-8.92-16.77-27.94-11.03-44.05-2.75,20.26,3.37,39.84,24.75,45.45,9.46,2.48,24.36,3.35,34.29,4.23h-.01Z"/>
  <path class="st35" d="M115.67,169.73c18.05-.75,35.95-3.21,54-4.32.24.24-.17,5.23,0,6.48-7.32.05-14.66-.05-21.99-.03-11.56.04-23.2-.41-34.89-.69.18-.76,1.14-1.24,2.88-1.44h0Z"/>
  <path class="st14" d="M227.99,164.69c.25-1.13-.55-2.92,1.18-3.5,16.65-1.67,33.26,0,49.94-.09.51,1.41-1.22,2.22-1.44,2.88-3.71.15-7.48-.2-11.19-.03-.94.04-1.87.75-2.13.75h-22.32c-.3,0-1.58.72-2.83.77-3.52.14-7.93.33-11.21-.77h0Z"/>
  <path class="st2" d="M259.67,170.45c-2.56.79-6.32,5.37-7.93,6.11-1.21.55-20.38.74-21.83.25-2.24-.76-1.65-4.01-1.92-5.64,10.56.09,21.14-.34,31.68-.72Z"/>
  <path class="st27" d="M282.71,123.65c-.58.52-.82.04-.72-1.44,2.85-13.11,3.66-26.59,2.15-39.95-.86-7.59-2.15-17.98-8.63-22.69,1.05-2.76,1.03-3.82,2.88-6.48,9.59,21.41,10.54,48.08,4.32,70.56Z"/>
  <path class="st10" d="M107.75,127.25c-.21,11.7-.4,23.69.72,35.28h-4.32c-.2-12.03-.04-24.05.72-36,.66-2.04,2.86-1.34,2.88.72Z"/>
  <path class="st12" d="M193.43,128.69c.06-1.97,2.23-2.18,2.36-.22l-.2,22.54c-.05,1.91.04,3.85,0,5.76h-2.15c-.26-9.33.34-18.76,0-28.08h-.01Z"/>
  <path class="st39" d="M193.43,128.69c-.09-2.51-1.27-5.19-.72-7.92h3.61l-.72,30.24c.15-6.37.49-14.31,0-20.56-.17-2.21.36-1.85-2.16-1.76h0Z"/>
  <path class="st19" d="M104.87,126.53c.18-2.85-.13-5.79,0-8.64h3.6c-.59,3.13-.66,6.19-.72,9.36l-2.88-.72Z"/>
  <path class="st4" d="M276.23,135.17c-.83-1.11-.92-1.86-1.44-2.88l1.79-2.88,1.8-5.76-2.15,11.52h0Z"/>
  <path class="st17" d="M115.67,169.73l-2.88,1.44c-1.36-.03-3.53.5-4.32-.72,2.48,0,4.68-.62,7.2-.72Z"/>
  <path class="st1" d="M240.01,88.48c4.35-.23-.34,12.04-5.56,8.9-4.45-2.68,1.73-8.7,5.56-8.9Z"/>
  <path class="st34" d="M284.87,61.01c6.63,14.36,6.68,39.93,4.12,55.6-.38,2.32-3.02,13.83-4.13,14.96-.37.37-1.63.43-1.32-.96.48-2.15,1.49-4.62,2.05-6.96.81-3.79,1.29-7.63,1.44-11.52.07-.35-.11-.77,0-1.07.15-.34.37-.42.71-.37.75-.45.37-2.01,0-2.88,0-2.02.66-3.36.72-4.32.83-5.56.83-10.6,0-15.12-1.45-2.55-.51-5.99-.81-8.91-.35-3.32-1.44-6.56-2.07-9.81.39-1.46.06-6.25-.72-5.04-.16-.89-1.54-1.96,0-3.6h.01Z"/>
  <path class="st28" d="M288.47,88.37c0-.38-.43-3.76.72-2.52v15.84c0,.55.31,3.74-.72,1.79.31-4.89-.09-10.16,0-15.12h0Z"/>
  <path class="st16" d="M282.71,123.65c-.68,2.46-1.4,5-2.34,7.38-.38.96-.89,3.25-1.97,3.42.5-4.24,2.7-8.13,3.59-12.24l.72,1.44Z"/>
  <path class="st28" d="M285.59,123.65l-.72-1.44c.95-3.35,1.53-6.66,2.16-10.08,1.84,3.32-.66,8.28-1.44,11.52Z"/>
  <path class="st40" d="M285.59,69.65c-.31-1.59-.43-3.4-.72-5.04l.71-.72c-.07,1.8,1.76,4.35,0,5.76h.01Z"/>
  <path class="st28" d="M287.75,107.81c1.2.64.64,2.49.71,3.61-.36-.06-.6-.72-.71-.73v-2.88Z"/>
  <path d="M612.3,169.1c-40.09-10.29-89.54-7.14-131.41-9.71-23.5-1.44-47.15-3.46-70.82-4.62-.37-.02-.75-.03-1.12-.05-7.05,1.26-9.93,7.78-11.55,14.37-1.6,6.51,1.17,14.09,5.69,15.8,5.64-.26,11.29-.43,16.97-.3l-19.55,33.03-18.87-1.44c-6.35.46-6.45,3.94-8.31,9.06-1.59,4.41.98,9.78,3.59,11.42,35.69,2.08,71.82,1.32,107.61,3.34,41.65,2.35,80.83,8.95,123.08,4.34,4.7-.51,13.51-1.29,17.67-2.49,3.05-.88,19.97-13.55,22.58-16.3,24.79-26.06-12.3-50.48-35.56-56.45h0ZM412.13,208.34c1.15-1.99,3.31-4.13,4.32-5.76,3.33-5.39,6.72-11.07,10.08-16.56,1.01-1.64,4.8-9.53,5.23-9.89,1.02-.86,3.13-.84,3.81.52.3.7-5.89,12.09-6.87,13.69-2.74,4.45-6.43,9-9.36,13.68-1.64,2.62-3.48,5.4-5.04,7.92-2.06,3.32-1.77,8.01-7.2,6.47,1.54-3.48,3.13-6.77,5.04-10.07h-.01ZM438.2,184.74l.93-.22c2.21-.25,4.3.76,6.46.82,47.83,1.4,95.61,3.61,143.32,7.88,9.6.86,25.76.07,33.5,6.83,4.99,4.36,2.72,5.74-1.7,8.42-19.54,11.85-42.79,11.87-64.95,12.81-30.32,1.28-60.45.5-90.7-.68-15.97-.63-31.93-1.37-47.87-2.17,6.81-11.38,13.31-22.88,21.02-33.68h0ZM644.56,217.21c-2.96,4.58-18.79,16.59-24.06,17.7-4.38.92-10.14,1.03-14.69,1.51-24.16,2.54-47.42,1.83-71.63.71l-31.33-3.59c-.71-.06-1.45.06-2.16,0-13.05-1.42-26.19-.87-39.27-1.41-23.57-.98-47.84-1.3-71.26-2.9-2.98-.2-7.79.71-10.12-.68-.96-.57-3.73-4.44-1.75-5.09.87-.29,4.49-.28,5.04.72.48,0,.96,0,1.44,0,1.43.04,2.89-.08,4.32,0,3.27.17,7.86.72,10.8,1.44,3.2.04,7.35-.64,10.08.72,11.26.02,22.72.24,33.84,1.44h7.92l16.56,1.44c11.31-.87,22.94.6,34.17.75,21.78.3,43.51-.42,65.19-.75l21.14-2.26c10.16-.42,41.25-9.48,44.04-20.04,3.27-12.34-13.89-18.27-23.26-19.98-7.51-1.37-14.79-.98-22.11-1.65-36.82-3.34-74.6-5.67-111.58-7.22-11.84-.5-23.82-.22-35.67-.69.34-2.65-.56-4.5-2.16-6.48-2.38-.02-4.87-.02-7.2,0-.56,2-2.9,1.85-3.94,2.9-1.46,1.47-.23,3.22-3.58,3.62-5.93.72-13.25-.63-19.36,0-1.38-.32-1.13-4.56-1.2-5.79-.01-.21-.73-.46-.46-2.13.38-2.31,1.43-2.93,2.62-4.35,4.37-5.21,6.29-2.26,11.85-2.13,8.3.2,16.75-.7,24.87,1.41,14.75,0,30.78,2.84,45.69,3.63,20.43,1.08,41.08,1.31,61.59,2.13,22.93.92,70.84,1.03,87.12,19.44,10.22,6.78,16.02,16,8.51,27.59h0Z"/>
  <path d="M265.55,224c.62-4.18.98-7.43-3.06-9.22l-17.94-1.14c-.63-.54,3.69-5.99,4.34-6.82,5.84-7.53,12.35-14.62,17.99-22.33,5.09-.18,10.14-.47,15.2-.71.3,0,3.59-.03,3.89-.04,3.46-2.79,6.1-8.74,6.2-15.9.1-6.56.78-10.57-3.16-14.46-21.15-.93-45.31-1.11-66.41.51-7.28.56-14.57,2.83-21.97,2.15v-34.2c0-.51,1.2-.97,1.8-1.08,2.98-.55,11.76-.26,15.15-.03,12.73.87,27.2,5.35,38.51,11.17,6.54,3.37,16.01,11.92,21.38,13.9,8.73,3.21,13.14-3.89,16.18-10.88,8.21-18.87,10.81-67.16.72-85.22-2.57-4.6-9.16-9.49-14.55-7.84-4.17,1.28-13.93,13.02-17.97,16.62-13.55,12.07-35.09,27.48-53.03,30.49-25.51,4.28-59.04,6.63-84.89,5.89-34.39-.99-72.06-11.08-86.02,29.84-7.2,21.1-4.6,43.88,17.75,53.55,13.6,5.89,52.52,6.47,68.66,6.58l6.48.72,115.2-1.43-18.06,24.78-.68,3.27-42-2.37c-9.36-6.11-22.34-17.17-26.2.76-3.77,17.54,4.5,34.68,23.82,22.38,4.95-3.15,2.59-3.79,10.24-3.5,19.58.74,40.7,4.5,60.46,5.78.95.06,4.9.11,5.84.17,3.22-.45,5.46-6.72,6.15-11.41l-.02.02ZM275.51,59.57c1.05-2.76,1.03-3.82,2.88-6.48.18-.26.5-.48.72-.72,2.21-2.42,3.17-4.35,6.86-1.45,4.13,3.24,7.22,22.18,7.57,27.7.8,12.51-1.63,47.53-8.79,57.51-1.37,1.9-2.49,3.31-5.16,2.52-.9-.26-.97-1.16-1.2-1.32-1.16-.83-1.33-1.05-2.16-2.16-.83-1.11-.92-1.86-1.44-2.88-9.37-18.47-6.55-53.59.72-72.72h0ZM104.87,176.21c-3.22-.11-6.49.17-9.71,0-10.58-.57-29.26-1.07-38.29-5.63-17.68-8.92-16.77-27.94-11.03-44.05,2.38-6.7,3.24-9,7.92-14.4,6.23-7.18,9.26-8.1,18.59-9.85,21.69-4.07,44.12.84,66.04.52,26.03-.38,51.75-5.2,77.37-7.23,18.55-5.6,34.47-18.68,49.67-30.24-3.83,16.04-4.58,32.55-2.87,48.96.48,4.61,1.65,9.08,2.15,13.68-8.1-4.05-16.6-8.49-25.37-10.99-19-5.41-38.99-3.51-58.54-4.1-19.09-.58-38.4-1.97-57.54-2.22-15.94-.21-32.28-.91-47.91,2.19-1.44.75-3.27,1.41-4.55,2.29-15.7,10.76-21.68,40.71-1.69,50.4,8.04,3.9,29.96,4.94,39.37,4.91,2.48,0,4.68-.62,7.2-.72,18.05-.75,35.95-3.2,54-4.32.24.24-.17,5.23,0,6.48.26,1.97,1.57,3.69,1.44,5.76-22.13.04-44.21.51-66.24-1.44h0ZM193.43,128.69c-.09-2.51-1.27-5.19-.72-7.92h3.61l-.72,30.24c-.05,1.91.04,3.85,0,5.76h-2.15c-.26-9.33.34-18.76,0-28.08h-.02ZM189.11,156.77l-76.32,5.76v-44.64l75.6,2.16.72,36.73h0ZM108.46,162.53h-4.32c-.2-12.03-.04-24.04.72-36,.18-2.85-.13-5.79,0-8.64h3.6c-.59,3.13-.66,6.19-.72,9.36-.21,11.7-.4,23.69.72,35.28ZM99,117.99l-.61,43.82c-17.61-.33-38.4,0-33.52-23.8,1.67-8.14,5.79-15.67,14.21-18.19,2.29-.68,18.82-2.51,19.92-1.83ZM222.94,176.93c-14.91.67-29.85.9-44.85.74-1.78-1.69-2.16-3.59-2.67-5.77-.67-2.9-.67-4.01.04-7.16,15.5,0,31.12-.29,46.39-2.93.66,2.91-.57,5.63-.35,8.65.07.93,1.71,6.25,1.44,6.48h0ZM229.9,176.81c-2.24-.76-1.65-4.01-1.92-5.64-.58-3.46-.84-2.74,0-6.48.25-1.13-.55-2.92,1.18-3.5,16.65-1.67,33.26,0,49.94-.09.51,1.41-1.22,2.22-1.44,2.88-.52,1.61-.71,4.03-.72,5.76-.02,2.35.31,4.21.72,6.48-1.87.12-6.33,1.52-7.81.6-.31-.19-2.23-5.59-3.71-6.36-1.99.07-4.16-.08-6.48,0-2.56.79-6.32,5.37-7.93,6.11-1.21.55-20.38.74-21.83.25h0ZM239.51,204.29c.91-1.24,2.16-2.57,2.88-3.6,1.98-2.82,3.92-6.07,5.76-8.64,1.95-2.73,11.74-17.4,14.76-17.26,2.04.09.14,3.43-.23,4.08-1.97,3.48-5.05,6.5-7.34,9.58-3.28,4.42-6.67,8.61-10.08,12.96-1.25,1.6-3.37,3.71-4.32,5.04-.56.79-1.81,2.89-2.33,3.82-1.46,2.58.62,3.2-4.87,2.66,1.54-3.12,3.72-5.84,5.76-8.63h.01ZM203.5,223.01c-1.39.5-2.1-.45-2.88-.72-6-.17-10.58-.71-16.56,0-5.09,3.7-14.24,13.03-17.28,2.16-1.44-5.14-.92-8.82.72-13.68.17-.51-.13-1.51,0-2.16,3.69.54,2.59.72,2.16,3.6-.64,4.27-1.2,8.06.72,12.24.08.17,1.9,2.42,2.15,2.16-.03-.95.07-1.93,0-2.88-.25-3.58-1.24-5.36-.72-9.36.1-.73-.16-3.57,1.08-3.59.55,0,7.62,5.75,9,6.47.58-.45,12.66,1.28,14.4,1.44,2.35.21,4.84-.15,7.2,0v4.33h.01ZM232.66,225.18c-4.89-.43-18.38-.08-21.95-2.17-1.23-.71-2.26-2.08-2.16-3.6l36,1.44c.93,0,6.95.46,7.2.72.22.22-.43,4.61.72,5.76-.82.57-17.12-1.91-19.81-2.15Z"/>
  <rect x="282.77" y="159.63" width="118.96" height="19.17"/>
  <rect x="312.31" y="165.52" width="10.17" height="118.96" transform="translate(83.4 535.82) rotate(-88.36)"/>
</svg>