<?xml version="1.0" encoding="UTF-8"?>
<svg id="Layer_1" xmlns="http://www.w3.org/2000/svg" version="1.1" viewBox="0 0 720 288">
  <!-- Generator: Adobe Illustrator 29.8.3, SVG Export Plug-In . SVG Version: 2.1.1 Build 3)  -->
  <defs>
    <style>
      .st0 {
        fill: #fcf9b0;
      }

      .st1 {
        fill: #fefbb1;
      }

      .st2 {
        fill: #f5cf3c;
      }

      .st3 {
        fill: #e9d877;
      }

      .st4 {
        fill: #efc735;
      }

      .st5 {
        fill: #fcf7a8;
      }

      .st6 {
        fill: #f8f5ac;
      }

      .st7 {
        fill: #f6e889;
      }

      .st8 {
        fill: #ddd382;
      }

      .st9 {
        fill: #bb870b;
      }

      .st10 {
        fill: #f1cb3a;
      }

      .st11 {
        fill: #bd880a;
      }

      .st12 {
        fill: #efc93a;
      }

      .st13 {
        fill: #b4810a;
      }

      .st14 {
        fill: #f6d03d;
      }

      .st15 {
        fill: #f9f7ae;
      }

      .st16 {
        fill: #eabf30;
      }

      .st17 {
        fill: #fbe678;
      }

      .st18 {
        fill: #f5d03e;
      }

      .st19 {
        fill: #bd870a;
      }

      .st20 {
        fill: #f6d03c;
      }

      .st21 {
        fill: #e3d67f;
      }

      .st22 {
        fill: #f0cb3a;
      }

      .st23 {
        fill: #f3ce3f;
      }

      .st24 {
        fill: #f1cb3b;
      }

      .st25 {
        fill: #eec939;
      }

      .st26 {
        fill: #f7d03c;
      }

      .st27 {
        fill: #f8f5ab;
      }

      .st28 {
        fill: #f6cf3b;
      }

      .st29 {
        fill: #d6a71f;
      }

      .st30 {
        fill: #edc83c;
      }

      .st31 {
        fill: #f5cf3e;
      }

      .st32 {
        fill: #f6cf3c;
      }

      .st33 {
        fill: #f8f2a3;
      }

      .st34 {
        fill: #f6ef9f;
      }

      .st35 {
        fill: #c59111;
      }

      .st36 {
        fill: #fefbb2;
      }

      .st37 {
        fill: #f6ec96;
      }

      .st38 {
        fill: #fefcb3;
      }

      .st39 {
        fill: #f2cc3b;
      }

      .st40 {
        fill: #b3820d;
      }

      .st41 {
        fill: #d9ab22;
      }
    </style>
  </defs>
  <path class="st26" d="M516.71,188.45c5.55,4.57,9.12,10,8.36,17.43-2,19.68-18.96,24.14-34.71,28.09-1.33.33-2.63.75-3.89,1.27-24.16,2.54-47.42,1.83-71.63.71l-31.33-3.59,2.55-.76c30.47,1.71,61.17,2.59,91.43.47,1.77-.12,7.66-1.5,6.05-3.22-10.02.5-20.11.71-30.15.58-.84,0-1.68-.22-2.54-.46s-1.71-.57-2.54-.93l21.14-2.26c10.16-.42,41.25-9.48,44.04-20.04,3.27-12.34-13.89-18.27-23.26-19.98-7.51-1.37-14.79-.98-22.11-1.65-36.82-3.34-74.6-5.67-111.58-7.22-11.84-.5-23.82-.22-35.67-.69.34-2.65-.56-4.5-2.16-6.48,5.76-1.51,11.81-1.81,18.16-.9,31.77,2.99,63.54,4.73,95.32,5.23,1.61.33,21.58,3.28,21.27,1.07-7-2.9-14.7-4.38-23.11-4.45l-.77-1.67c22.93.92,70.84,1.03,87.12,19.44h.01Z"/>
  <path class="st38" d="M322.31,163.25c14.75,0,30.78,2.84,45.69,3.63,20.43,1.08,41.08,1.31,61.59,2.13,8.5,2.28,20.06-.34,26.64,6.47-7.76,4.16-16.03.52-24.13.02-11.61-.72-23.65-.04-35.27-.73-26.73-1.6-50.79-4.85-78.13-5.03-2.38-.02-4.87-.02-7.2,0-7.23,1.89-16.78,2.12-24.48,1.87-1.28-.04-2.48-.58-3.6-1.15-.01-.21-.73-.46-.46-2.13.38-2.31,1.43-2.93,2.62-4.35l3.38-.98c11.13-.19,22.54-.33,33.34.26h.01Z"/>
  <path class="st38" d="M383.51,232.37c-.71-.06-1.45.06-2.16,0-10.5-.9-21-1.71-31.51-2.43l-2.33-1.17c-.79-.55-.31-.79,1.44-.72,11.31-.87,22.94.6,34.17.75,21.78.3,43.51-.42,65.19-.75,11.83-.18,23.66.04,35.48-.56l2.67,1.64c-2.64,3.85-7.52,4.34-11.88,4.67-28.85,2.22-62.24.88-91.07-1.43h0Z"/>
  <path class="st20" d="M263.99,223.01c.48,0,.96,0,1.44,0,1.52.25,2.96.49,4.32.72,3.32-.16,6.68.08,10.08.72l10.8.72c11.26.02,22.72.24,33.84,1.44,2.04-.05,3.96.19,5.76.72,5.75-.17,11.68.27,17.28,1.44,11.29.94,22.66,2.7,33.84,3.6-13.05-1.42-26.19-.87-39.27-1.41-23.57-.98-47.84-1.3-71.26-2.9-2.98-.2-7.79.71-10.12-.68-.96-.57-3.73-4.44-1.75-5.09l5.04.72h0Z"/>
  <path class="st11" d="M486.47,235.25c3.88-3.59,10.63-3.81,15.69-5.55,10.41-3.59,16.73-8.36,20.45-19.15,2.9-8.42-.24-15.7-5.9-22.1,10.22,6.78,16.02,16,8.51,27.59-2.96,4.58-18.79,16.59-24.06,17.7-4.38.92-10.14,1.03-14.69,1.51h0Z"/>
  <path class="st18" d="M311.51,169.73c-.56,2-2.9,1.85-3.94,2.9-1.46,1.47-.23,3.22-3.58,3.62-5.93.72-13.25-.63-19.36,0-1.38-.32-1.13-4.56-1.2-5.79,9.35-.89,18.69-.64,28.08-.72h0Z"/>
  <path class="st14" d="M244.55,220.85c.93,0,6.95.46,7.2.72.22.22-.43,4.61.72,5.76-.82.57-17.12-1.91-19.81-2.15-4.89-.43-18.38-.08-21.95-2.17l2.25-1.06c10.56-.75,21.09-1.12,31.59-1.1Z"/>
  <path class="st32" d="M171.83,214.37l1.67-.78c2.82,2.27,5.62,3.49,8.41,3.66.58-.45,12.66,1.28,14.4,1.44,2.35.76,3.79,1.96,4.32,3.6-6-.17-10.58-.71-16.56,0l-4.58,1.7c-4.18,3.42-6.49,3.33-6.94-.26-.25-3.58-1.24-5.36-.72-9.36h0Z"/>
  <path class="st0" d="M244.55,220.85c-.09,0-.82.74-1.74.75-10.81.06-21.35.96-32.1,1.41-1.23-.71-2.26-2.08-2.16-3.6l36,1.44h0Z"/>
  <path class="st31" d="M322.31,163.25c-3.45,0-6.71.73-9.69.75-9.01.07-18.03-.11-27.03-.03,4.37-5.21,6.29-2.26,11.85-2.13,8.3.2,16.75-.7,24.87,1.41Z"/>
  <path class="st15" d="M309.35,189.17c-2.74,4.45-6.43,9-9.36,13.68-2.67,2.94-5.06,2.57-2.88-1.44,3.33-5.39,6.72-11.07,10.08-16.56,2.95-1.89,3.34,1.78,2.16,4.32h0Z"/>
  <path class="st24" d="M255.35,188.45c-1.94,1.25-3.74,2.7-5.41,4.33l-1.79-.73c1.95-2.73,11.74-17.4,14.76-17.26,2.04.09.14,3.43-.23,4.08-1.97,3.48-5.05,6.5-7.34,9.58h.01Z"/>
  <path class="st23" d="M276.95,169.73c-.02,2.35.31,4.21.72,6.48-1.87.12-6.33,1.52-7.81.6-.31-.19-2.23-5.59-3.71-6.36,3.63-.13,7.14-1.01,10.8-.72Z"/>
  <path class="st9" d="M184.07,222.29c-5.09,3.7-14.24,13.03-17.28,2.16.2-2.26,2.73-1.83,3.6,0,.08.17,1.9,2.42,2.15,2.16-.03-.95.07-1.93,0-2.88,1.77,3.63,4.7-.74,7-1.29,1.54-.37,3.09.02,4.52-.15h0Z"/>
  <path class="st22" d="M309.35,189.17c.02-1.72-.49-3.55-2.16-4.32,1.01-1.64,4.8-9.53,5.23-9.89,1.02-.86,3.13-.84,3.81.52.3.7-5.89,12.09-6.87,13.69h-.01Z"/>
  <path class="st6" d="M255.35,188.45c-3.28,4.42-6.67,8.61-10.08,12.96-1.62,1.18-2.71,1.65-2.88-.72,1.98-2.82,3.92-6.07,5.76-8.64,2.66-.94,4.1-3.89,7.2-3.6h0Z"/>
  <path class="st39" d="M167.51,210.77c1.53-.39,2.01-.1,2.16,1.44-.64,4.27-1.2,8.06.72,12.24h-3.6c-1.44-5.14-.92-8.82.72-13.68h0Z"/>
  <path class="st13" d="M294.95,210.77c-2.06,3.32-1.77,8.01-7.2,6.47,1.54-3.48,3.13-6.77,5.04-10.07,1.48.6,2.37,2,2.16,3.6h0Z"/>
  <path class="st27" d="M181.91,217.25c-.06.05.26,1.32-.45,1.48-2.61.61-7.18-3.35-9.63-4.36.1-.73-.16-3.57,1.08-3.59.55,0,7.62,5.75,9,6.47Z"/>
  <path class="st25" d="M297.11,201.41c-.37,3.09.44,2.18,2.88,1.44-1.64,2.62-3.48,5.4-5.04,7.92-1.57-.66-2.35-1.88-2.16-3.6,1.15-1.99,3.31-4.13,4.32-5.76Z"/>
  <path class="st13" d="M239.51,204.29c1.5.06,2.05.68,1.44,2.16-.56.79-1.81,2.89-2.33,3.82-1.46,2.58.62,3.2-4.87,2.66,1.54-3.12,3.72-5.84,5.76-8.63h0Z"/>
  <path class="st34" d="M196.31,218.69c2.35.21,4.84-.15,7.2,0v4.33c-1.4.5-2.1-.45-2.88-.72-1.88-.66-4.31-1.33-4.32-3.6h0Z"/>
  <path class="st37" d="M348.95,228.05c-.61.05-1.25.02-1.44.72-5.78-.48-11.7-.84-17.28-1.44.22-.47.94-.71,2.16-.72l16.56,1.44Z"/>
  <path class="st30" d="M245.27,201.41c-1.25,1.6-3.37,3.71-4.32,5.04-.9-.56-1.69-.96-1.44-2.16.91-1.24,2.16-2.57,2.88-3.6l2.88.72h0Z"/>
  <path class="st8" d="M280.55,224.45h-.72c-3.77-.1-6.38-.27-10.08-.72-.63-.2-.62-.44,0-.72,3.27.17,7.86.72,10.8,1.44Z"/>
  <path class="st3" d="M290.63,225.17c-3.42,0-7.84.61-10.8-.72h.72c3.2.04,7.35-.64,10.08.72Z"/>
  <path class="st33" d="M167.51,210.77c.17-.51-.13-1.51,0-2.16,3.69.54,2.59.72,2.16,3.6-1.2.25-1.6-.54-2.16-1.44Z"/>
  <path class="st5" d="M332.39,226.61l-2.16.72c-1.92-.21-4.06-.54-5.76-.72h7.92Z"/>
  <path class="st21" d="M263.99,223.01c-1.58-.02-4.06.54-5.04-.72.87-.29,4.49-.28,5.04.72Z"/>
  <path class="st7" d="M269.75,223.01v.72c-1.33-.16-3.51.6-4.32-.72,1.43.04,2.89-.08,4.32,0Z"/>
  <path class="st1" d="M472.78,176.92c-3.14,2.16-13.52,1.08-12.14-3.8s13.86,1.52,12.14,3.8Z"/>
  <g>
    <path d="M124.31,184.85c-16.13-.11-55.05-.7-68.66-6.58-22.36-9.67-24.95-32.45-17.75-53.55,13.96-40.92,51.63-30.83,86.02-29.84,25.85.75,59.38-1.6,84.89-5.89,17.94-3.01,39.48-18.43,53.03-30.49,4.04-3.59,13.8-15.34,17.97-16.62,5.39-1.66,11.98,3.24,14.55,7.84,10.09,18.06,7.49,66.35-.72,85.22-3.04,6.98-7.45,14.09-16.18,10.88-5.37-1.98-14.84-10.53-21.38-13.9-11.31-5.82-25.78-10.3-38.51-11.17-3.38-.23-12.17-.52-15.15.03-.6.11-1.8.57-1.8,1.08v34.2c7.4.68,14.69-1.59,21.97-2.15,22.66-1.74,45.4-1.42,68.12-.3,23.68,1.16,47.32,3.18,70.82,4.62,41.87,2.57,91.33-.58,131.41,9.71,23.25,5.97,60.35,30.39,35.56,56.45-2.61,2.75-19.54,15.42-22.58,16.3-4.16,1.2-12.97,1.98-17.67,2.49-42.25,4.61-81.43-1.99-123.08-4.34-37.13-2.09-74.62-1.19-111.62-3.58-19.76-1.28-40.87-5.04-60.46-5.78-7.64-.29-5.28.35-10.24,3.5-19.32,12.3-27.6-4.84-23.82-22.38,3.86-17.93,16.84-6.87,26.2-.76l42,2.37.68-3.27,18.06-24.78-115.2,1.43-6.48-.72.02-.02ZM279.11,52.37c-.22.24-.54.46-.72.72-1.85,2.66-1.83,3.72-2.88,6.48-7.27,19.13-10.09,54.25-.72,72.72.52,1.02.61,1.77,1.44,2.88s1,1.33,2.16,2.16c.22.16.3,1.06,1.2,1.32,2.67.79,3.79-.62,5.16-2.52,7.17-9.98,9.6-44.99,8.79-57.51-.35-5.52-3.44-24.46-7.57-27.7-3.69-2.9-4.65-.96-6.86,1.45h0ZM215.75,95.57c-25.62,2.03-51.34,6.85-77.37,7.23-21.92.32-44.35-4.59-66.04-.52-9.33,1.75-12.36,2.67-18.59,9.85-4.68,5.4-5.54,7.7-7.92,14.4-5.73,16.1-6.64,35.13,11.03,44.05,9.04,4.56,27.71,5.05,38.29,5.63,3.22.17,6.49-.1,9.71,0,22.03,1.94,44.1,1.48,66.24,1.44.13-2.07-1.18-3.78-1.44-5.76-.16-1.25.24-6.24,0-6.48-18.05,1.12-35.95,3.58-54,4.32-2.52.1-4.72.71-7.2.72-9.41.03-31.33-1.02-39.37-4.91-19.98-9.69-14-39.64,1.69-50.4,1.29-.88,3.11-1.53,4.55-2.29,15.63-3.1,31.97-2.41,47.91-2.19,19.13.26,38.45,1.65,57.54,2.22,19.55.59,39.54-1.3,58.54,4.1,8.77,2.5,17.26,6.93,25.37,10.99-.51-4.6-1.67-9.07-2.15-13.68-1.71-16.41-.95-32.92,2.87-48.96-15.21,11.56-31.13,24.64-49.67,30.24h0ZM99,117.99c-1.1-.68-17.63,1.15-19.92,1.83-8.42,2.52-12.54,10.05-14.21,18.19-4.88,23.8,15.91,23.47,33.52,23.8l.61-43.82ZM104.87,126.53c-.76,11.95-.92,23.97-.72,36h4.32c-1.11-11.59-.93-23.58-.72-35.28.06-3.18.13-6.23.72-9.36h-3.6c-.13,2.85.19,5.79,0,8.64ZM188.39,120.05l-75.6-2.16v44.64l76.32-5.76-.72-36.73h0ZM193.43,128.69c.34,9.33-.25,18.75,0,28.08h2.15c.04-1.91-.04-3.85,0-5.76l.72-30.24h-3.61c-.54,2.73.63,5.42.72,7.92h.02ZM227.99,164.69c-.84,3.74-.58,3.02,0,6.48.27,1.63-.32,4.89,1.92,5.64,1.45.49,20.62.3,21.83-.25,1.62-.74,5.37-5.32,7.93-6.11,2.32-.08,4.49.07,6.48,0,1.48.77,3.4,6.17,3.71,6.36,1.48.92,5.93-.48,7.81-.6-.41-2.27-.74-4.13-.72-6.48.01-1.73.2-4.15.72-5.76.21-.66,1.94-1.46,1.44-2.88-16.68.1-33.28-1.57-49.94.09-1.72.58-.93,2.37-1.18,3.5h0ZM285.59,163.97c-1.19,1.42-2.24,2.04-2.62,4.35-.27,1.67.44,1.92.46,2.13.07,1.23-.18,5.47,1.2,5.79,6.11-.62,13.43.73,19.36,0,3.34-.4,2.11-2.16,3.58-3.62,1.05-1.05,3.38-.9,3.94-2.9,2.33-.02,4.82-.02,7.2,0,1.6,1.98,2.51,3.83,2.16,6.48,11.85.47,23.83.19,35.67.69,36.98,1.55,74.76,3.88,111.58,7.22,7.32.66,14.6.28,22.11,1.65,9.37,1.71,26.53,7.64,23.26,19.98-2.8,10.55-33.88,19.61-44.04,20.04l-21.14,2.26c-21.68.33-43.41,1.06-65.19.75-11.22-.16-22.85-1.62-34.17-.75l-16.56-1.44h-7.92c-11.12-1.2-22.58-1.42-33.84-1.44-2.73-1.36-6.88-.68-10.08-.72-2.94-.72-7.53-1.27-10.8-1.44-1.43-.08-2.89.04-4.32,0-.48,0-.96,0-1.44,0-.55-1-4.17-1.01-5.04-.72-1.98.65.79,4.52,1.75,5.09,2.33,1.38,7.14.47,10.12.68,23.42,1.61,47.69,1.93,71.26,2.9,13.08.54,26.22,0,39.27,1.41.71.06,1.45-.06,2.16,0l31.33,3.59c24.22,1.12,47.47,1.83,71.63-.71,4.54-.48,10.31-.59,14.69-1.51,5.27-1.11,21.1-13.12,24.06-17.7,7.51-11.59,1.71-20.81-8.51-27.59-16.28-18.41-64.19-18.52-87.12-19.44-20.51-.82-41.16-1.05-61.59-2.13-14.91-.79-30.94-3.63-45.69-3.63-8.12-2.11-16.57-1.21-24.87-1.41-5.56-.13-7.48-3.08-11.85,2.13h0ZM221.51,170.45c-.22-3.02,1.01-5.74.35-8.65-15.27,2.64-30.89,2.92-46.39,2.93-.71,3.15-.71,4.27-.04,7.16.51,2.18.89,4.08,2.67,5.77,15,.16,29.94-.07,44.85-.74.27-.23-1.37-5.55-1.44-6.48h0ZM309.35,189.17c.98-1.6,7.17-12.98,6.87-13.69-.68-1.37-2.78-1.38-3.81-.52-.43.36-4.22,8.25-5.23,9.89-3.36,5.49-6.75,11.17-10.08,16.56-1.01,1.63-3.17,3.77-4.32,5.76-1.91,3.31-3.5,6.59-5.04,10.07,5.43,1.54,5.14-3.15,7.2-6.47,1.56-2.52,3.4-5.3,5.04-7.92,2.93-4.68,6.62-9.23,9.36-13.68h.01ZM248.15,192.05c-1.84,2.57-3.78,5.82-5.76,8.64-.72,1.03-1.97,2.36-2.88,3.6-2.04,2.79-4.22,5.51-5.76,8.63,5.48.55,3.41-.07,4.87-2.66.53-.93,1.77-3.03,2.33-3.82.95-1.33,3.07-3.44,4.32-5.04,3.41-4.35,6.8-8.54,10.08-12.96,2.29-3.08,5.37-6.11,7.34-9.58.37-.65,2.27-3.99.23-4.08-3.03-.14-12.81,14.53-14.76,17.26h-.01ZM300.7,183.41c-6.24-.14-12.43.08-18.63.38-5.06.24-10.11.53-15.2.71-5.64,7.71-12.15,14.8-17.99,22.33-.64.83-4.96,6.27-4.34,6.82l36.6,2.8,19.55-33.03h.01ZM297.83,217.24c15.95.81,31.9,1.55,47.87,2.17,30.25,1.19,60.38,1.96,90.7.68,22.16-.93,45.41-.96,64.95-12.81,4.42-2.68,6.69-4.06,1.7-8.42-7.73-6.76-23.9-5.97-33.5-6.83-47.7-4.27-95.49-6.48-143.32-7.88-2.16-.06-4.25-1.07-6.46-.82l-.93.22c-7.71,10.8-14.21,22.3-21.02,33.68h0ZM167.51,210.77c-1.64,4.86-2.16,8.54-.72,13.68,3.04,10.87,12.19,1.54,17.28-2.16,5.98-.71,10.56-.17,16.56,0,.78.28,1.48,1.22,2.88.72v-4.33c-2.36-.15-4.85.22-7.2,0-1.74-.16-13.82-1.89-14.4-1.44-1.38-.71-8.45-6.47-9-6.47-1.24,0-.98,2.85-1.08,3.59-.52,4,.47,5.78.72,9.36.07.95-.03,1.93,0,2.88-.25.27-2.07-1.99-2.15-2.16-1.92-4.18-1.36-7.97-.72-12.24.43-2.88,1.54-3.06-2.16-3.6-.13.65.17,1.65,0,2.16h-.01ZM210.71,223.01c3.58,2.08,17.07,1.74,21.95,2.17,2.69.23,18.99,2.71,19.81,2.15-1.15-1.15-.5-5.54-.72-5.76-.26-.26-6.28-.72-7.2-.72l-36-1.44c-.1,1.52.93,2.88,2.16,3.6Z"/>
    <path class="st26" d="M171.11,106.37c.63.2.62.44,0,.72l-1.82,1.49c-16.25.73-32.58.56-48.98-.52-15.09-.12-30.53.31-44.96,4.78-1.44.75-3.27,1.41-4.55,2.29-15.7,10.76-21.68,40.71-1.69,50.4,8.04,3.9,29.96,4.94,39.37,4.91,1.63.15,3.07.39,4.32.72,17.67-1.21,35.41-1.29,53.22-.23l3.66.95c.26,1.97,1.57,3.69,1.44,5.76-22.13.04-44.21.51-66.24-1.44l-21.07-1.27c-28.03.77-45.55-21.57-37.97-48.41,2.38-6.7,3.24-9,7.92-14.4,10.46-5.45,19.97-9.47,32.09-10.2,26.52,2.04,53.61,2.68,80.83,3.09.74.01,1.48.21,2.22.44s1.49.56,2.21.91h0Z"/>
    <path class="st26" d="M262.55,114.29l-2.04,1.04c-8.75-2.59-17.96-3.54-27.17-4.34-19.7-1.72-39.51-2.42-59.26-2.47-1.11-.22-2.1-.7-2.96-1.43v-.72l3.49-1.55c16.18-.75,32.24-1.89,48.17-3.41,4.08-1.04,6.35-5.95.29-4.81-3.06.63-5.49.29-7.31-1.02,18.55-5.6,34.47-18.68,49.67-30.24-3.83,16.04-4.58,32.55-2.87,48.96h-.01Z"/>
    <path class="st11" d="M284.87,61.01c.18,1.39.18,2.59,0,3.6.95,1.34,1.21,3.39.72,5.04,2.39,2.54,3.95,11.92,3.35,15.81-.95.4-1.11,1.37-.47,2.91.56,4.92.74,10.23,0,15.12,1.09,1.25,1.16,3.91-.72,4.32.49.97.59,1.96,0,2.88.44.88.37,1.38-.72,1.44.26,3.39-.21,7.36-2.16,10.08-.64,4.8-1.88,10.21-4.33,14.4l-2.15.72c-1.16-.83-1.33-1.05-2.16-2.16-1.26-.67,2.28-12.1,2.15-11.52-.66,2.96-1.39,5.96-2.55,8.78l-1.04-.14c-9.37-18.47-6.55-53.59.72-72.72,2.37-1.29,4.35,2.17,5.4,4.17,7.4,14.06,5.26,44.05,1.08,58.47-.08,2.43.16,2.91.72,1.44,4.2-22.46,5.08-45.82-4.45-67.2l.13-3.36c.18-.26.5-.48.72-.72,2.9-1.63,7.72,6.48,5.76,8.64Z"/>
    <path class="st11" d="M171.11,107.09c23.3-.1,56.64,1.1,79.44,4.44,4.09.6,7.96,2,12,2.76.48,4.61,1.65,9.08,2.15,13.68-8.1-4.05-16.6-8.49-25.37-10.99-19-5.41-38.99-3.51-58.54-4.1-19.09-.58-38.4-1.97-57.54-2.22-15.94-.21-32.28-.91-47.91,2.19,19.39-10.14,60.88-4.89,83.91-5.01,3.73-.02,7.74-.74,11.85-.75h.01Z"/>
    <path class="st38" d="M215.75,95.57c4.41-.35,8.6-.73,12.96,0-.55,3.02-1.58,6.14-4.84,7.03-9,2.47-22.09.52-31.52,3.04-7.11-.05-14.14.56-21.23.73-16.71.39-35.58.36-52.23-.69-28.53-1.8-34.53-7.42-61.83,6.51-1.04.53-2.51,1.41-3.3-.06,6.23-7.18,9.26-8.1,18.59-9.85,21.69-4.07,44.12.84,66.04.52,26.03-.38,51.75-5.2,77.37-7.23h-.01Z"/>
    <path class="st26" d="M278.39,137.33c3.22-4.89,4.9-9.52,6.48-15.12.61-.56.85-.08.72,1.44,1,2.04,2.51-5.62,2.7-7.16.42-3.28.76-6.52.69-9.76,2.51-15.24-.61-31.06-4.11-45.73-1.42-3.08-2.78-6.57-5.76-8.64,2.21-2.42,3.17-4.35,6.86-1.45,4.13,3.24,7.22,22.18,7.57,27.7.8,12.51-1.63,47.53-8.79,57.51-1.37,1.9-2.49,3.31-5.16,2.52-.9-.26-.97-1.16-1.2-1.32h0Z"/>
    <path class="st1" d="M175.43,171.89c-.67-2.9-.67-4.01.04-7.16,15.5,0,31.12-.29,46.39-2.93.66,2.91-.57,5.63-.35,8.65-2.41,1.56-11.46,2.25-14.17,1.72-.57-.11-.97-.55-1.31-1-.06.56-.25,1.41-.65,1.44-2.57.17-21.15.62-22.06,0-.53-.36-.9-.8-1.05-1.44,0,2.5-6.26,3.41-6.84.72Z"/>
    <path class="st26" d="M221.51,170.45c.07.93,1.71,6.25,1.44,6.48-14.91.67-29.85.9-44.85.74-1.78-1.69-2.16-3.59-2.67-5.77,2.14.76,5.49-.72,6.84-.72h23.76c.27,0,1.19-.71,2.13-.75,4.43-.18,8.92.18,13.35.03h0Z"/>
    <path class="st38" d="M277.67,163.97c-.52,1.61-.71,4.03-.72,5.76-2.25,2.13-8.19,2.58-10.8.72-1.99.07-4.16-.08-6.48,0-9.98,2.61-21.66,3.12-31.68.72-.58-3.46-.84-2.74,0-6.48,1.79-.97,4.15-1.16,7.07-.56,2.85-.51,5.17-.32,6.97.56.07-.56.24-1.39.64-1.44,4.05-.47,16.72-.57,20.64,0l1.04,1.44c-.14-3.88,10.78-2.58,13.32-.72h0Z"/>
    <path class="st11" d="M104.87,176.21c-3.22-.11-6.49.17-9.71,0-10.58-.57-29.26-1.07-38.29-5.63-17.68-8.92-16.77-27.94-11.03-44.05-2.75,20.26,3.37,39.84,24.75,45.45,9.46,2.48,24.36,3.35,34.29,4.23h-.01Z"/>
    <path class="st36" d="M115.67,169.73c18.05-.75,35.95-3.21,54-4.32.24.24-.17,5.23,0,6.48-7.32.05-14.66-.05-21.99-.03-11.56.04-23.2-.41-34.89-.69.18-.76,1.14-1.24,2.88-1.44h0Z"/>
    <path class="st14" d="M227.99,164.69c.25-1.13-.55-2.92,1.18-3.5,16.65-1.67,33.26,0,49.94-.09.51,1.41-1.22,2.22-1.44,2.88-3.71.15-7.48-.2-11.19-.03-.94.04-1.87.75-2.13.75h-22.32c-.3,0-1.58.72-2.83.77-3.52.14-7.93.33-11.21-.77h0Z"/>
    <path class="st2" d="M259.67,170.45c-2.56.79-6.32,5.37-7.93,6.11-1.21.55-20.38.74-21.83.25-2.24-.76-1.65-4.01-1.92-5.64,10.56.09,21.14-.34,31.68-.72Z"/>
    <path class="st28" d="M282.71,123.65c-.58.52-.82.04-.72-1.44,2.85-13.11,3.66-26.59,2.15-39.95-.86-7.59-2.15-17.98-8.63-22.69,1.05-2.76,1.03-3.82,2.88-6.48,9.59,21.41,10.54,48.08,4.32,70.56Z"/>
    <path class="st10" d="M107.75,127.25c-.21,11.7-.4,23.69.72,35.28h-4.32c-.2-12.03-.04-24.05.72-36,.66-2.04,2.86-1.34,2.88.72Z"/>
    <path class="st12" d="M193.43,128.69c.06-1.97,2.23-2.18,2.36-.22l-.2,22.54c-.05,1.91.04,3.85,0,5.76h-2.15c-.26-9.33.34-18.76,0-28.08h-.01Z"/>
    <path class="st40" d="M193.43,128.69c-.09-2.51-1.27-5.19-.72-7.92h3.61l-.72,30.24c.15-6.37.49-14.31,0-20.56-.17-2.21.36-1.85-2.16-1.76h0Z"/>
    <path class="st19" d="M104.87,126.53c.18-2.85-.13-5.79,0-8.64h3.6c-.59,3.13-.66,6.19-.72,9.36l-2.88-.72Z"/>
    <path class="st4" d="M276.23,135.17c-.83-1.11-.92-1.86-1.44-2.88l1.79-2.88,1.8-5.76-2.15,11.52h0Z"/>
    <path class="st17" d="M115.67,169.73l-2.88,1.44c-1.36-.03-3.53.5-4.32-.72,2.48,0,4.68-.62,7.2-.72Z"/>
    <path class="st1" d="M240.01,88.48c4.35-.23-.34,12.04-5.56,8.9-4.45-2.68,1.73-8.7,5.56-8.9Z"/>
    <path class="st35" d="M284.87,61.01c6.63,14.36,6.68,39.93,4.12,55.6-.38,2.32-3.02,13.83-4.13,14.96-.37.37-1.63.43-1.32-.96.48-2.15,1.49-4.62,2.05-6.96.81-3.79,1.29-7.63,1.44-11.52.07-.35-.11-.77,0-1.07.15-.34.37-.42.71-.37.75-.45.37-2.01,0-2.88,0-2.02.66-3.36.72-4.32.83-5.56.83-10.6,0-15.12-1.45-2.55-.51-5.99-.81-8.91-.35-3.32-1.44-6.56-2.07-9.81.39-1.46.06-6.25-.72-5.04-.16-.89-1.54-1.96,0-3.6h.01Z"/>
    <path class="st29" d="M288.47,88.37c0-.38-.43-3.76.72-2.52v15.84c0,.55.31,3.74-.72,1.79.31-4.89-.09-10.16,0-15.12h0Z"/>
    <path class="st16" d="M282.71,123.65c-.68,2.46-1.4,5-2.34,7.38-.38.96-.89,3.25-1.97,3.42.5-4.24,2.7-8.13,3.59-12.24l.72,1.44Z"/>
    <path class="st29" d="M285.59,123.65l-.72-1.44c.95-3.35,1.53-6.66,2.16-10.08,1.84,3.32-.66,8.28-1.44,11.52Z"/>
    <path class="st41" d="M285.59,69.65c-.31-1.59-.43-3.4-.72-5.04l.71-.72c-.07,1.8,1.76,4.35,0,5.76h.01Z"/>
    <path class="st29" d="M287.75,107.81c1.2.64.64,2.49.71,3.61-.36-.06-.6-.72-.71-.73v-2.88Z"/>
  </g>
</svg>