<?xml version="1.0" encoding="UTF-8" standalone="no"?>
<svg
   version="1.1"
   width="283.9772"
   height="72.56086"
   viewBox="-1 -1 283.9772 72.56086"
   id="svg7"
   sodipodi:docname="trombone-b.svg"
   xmlns:inkscape="http://www.inkscape.org/namespaces/inkscape"
   xmlns:sodipodi="http://sodipodi.sourceforge.net/DTD/sodipodi-0.dtd"
   xmlns="http://www.w3.org/2000/svg"
   xmlns:svg="http://www.w3.org/2000/svg">
  <defs
     id="defs11" />
  <sodipodi:namedview
     id="namedview9"
     pagecolor="#ffffff"
     bordercolor="#000000"
     borderopacity="0.25"
     inkscape:showpageshadow="2"
     inkscape:pageopacity="0.0"
     inkscape:pagecheckerboard="0"
     inkscape:deskcolor="#d1d1d1" />
  <!-- Exported by Scratch - http://scratch.mit.edu/ -->
  <g
     id="ID0.15856806794181466"
     transform="translate(-1.6367039,-1.5371765)">
    <path
       id="ID0.2259777677245438"
       fill="#fcd53e"
       d="M 456,204.3 H 168.8 V 173.6 H 208 c 21.7,4.3 38.7,11.8 49.3,23.9 8.5,-24.1 9.2,-47.3 0,-69.5 -9.2,13.7 -38.9,28.3 -49.3,31.7 -8.8,2.8 -61.2,7.3 -77.5,8 -2.1,0.1 -3.6,0.1 -4.3,0.1 v 0 c -0.3,0 -0.5,0 -0.5,-0.1 h -44 c -0.3,0 -0.7,0 -1,0.1 -15.1,1.4 -21.9,16.4 -18.5,28.7 3.7,13.5 18.5,15.9 18.5,15.9 h 111.2 v 9.3 h -8.3 c -0.8,-1.6 -2.2,-2.7 -3.7,-2.7 -1.6,0 -2.9,1.1 -3.7,2.7 h -9.4 c -1.2,-1.1 -2.9,-1.8 -4.8,-1.8 -1.3,0 -3.2,-0.6 -4.3,-0.2 -0.4,-0.5 -0.9,-0.9 -1.5,-1.2 -1.3,-0.7 -3.1,0 -3.4,1.5 -0.8,3.3 -0.9,6.6 -0.2,10 0.4,1.7 2.4,2.5 3.8,1.4 0.2,-0.2 0.5,-0.4 0.7,-0.6 1.2,0.5 3.7,0.3 5,0.3 2,0 3.8,-0.8 5,-2 h 9.7 c 0.8,1.2 2,2 3.3,2 1.3,0 2.5,-0.8 3.3,-2 H 456 c 0,0 9.3,-0.7 11.5,-8.4 2,-7.2 -2.2,-15.9 -11.5,-16.4 z m -366.6,0 h -8.7 c -16.6,-1.7 -12.9,-28 1,-30.7 h 7.7 z m 25.7,0 h -18 v -30.7 h 18 z m 45.8,0 h -39 v -30.7 h 30.4 c 0,0 0.2,0 0.5,0 h 8.2 z m 50,17.4 h -13.2 v -9.3 h 13.2 z m 245.1,0 H 216.7 v -9.3 H 456 c 5.3,-0.1 7.9,7.3 0,9.3 z"
       transform="matrix(0.69833732,0,0,0.69833732,-42.2,-88.85)" />
    <path
       id="ID0.8608506550081074"
       fill="none"
       stroke="#fcd53e"
       d="m 277.7,162.5 h 42"
       transform="matrix(0.69833732,0,0,0.69833732,-42.2,-88.85)" />
    <path
       id="ID0.9644269701093435"
       fill="none"
       stroke="#fcd53e"
       d="m 277.7,173.7 36.4,21"
       transform="matrix(0.69833732,0,0,0.69833732,-42.2,-88.85)" />
    <path
       id="ID0.4391731065697968"
       fill="none"
       stroke="#fcd53e"
       d="m 277.7,151.3 36.4,-21"
       transform="matrix(0.69833732,0,0,0.69833732,-42.2,-88.85)" />
  </g>
</svg>
