<?xml version="1.0" encoding="UTF-8" standalone="no"?>
<svg
   id="Layer_1"
   version="1.1"
   viewBox="0 0 280.2551 131.82436"
   sodipodi:docname="Trumpet.svg"
   width="280.2551"
   height="131.82436"
   xmlns:inkscape="http://www.inkscape.org/namespaces/inkscape"
   xmlns:sodipodi="http://sodipodi.sourceforge.net/DTD/sodipodi-0.dtd"
   xmlns="http://www.w3.org/2000/svg"
   xmlns:svg="http://www.w3.org/2000/svg">
  <sodipodi:namedview
     id="namedview77"
     pagecolor="#ffffff"
     bordercolor="#000000"
     borderopacity="0.25"
     inkscape:showpageshadow="2"
     inkscape:pageopacity="0.0"
     inkscape:pagecheckerboard="0"
     inkscape:deskcolor="#d1d1d1" />
  <!-- Generator: Adobe Illustrator 29.8.3, SVG Export Plug-In . SVG Version: 2.1.1 Build 3)  -->
  <defs
     id="defs4">
    <style
       id="style2">
      .st0 {
        fill: #fefaae;
      }

      .st1 {
        fill: #f8f5ac;
      }

      .st2 {
        fill: #c2a22c;
      }

      .st3 {
        fill: #a47609;
      }

      .st4 {
        fill: #bc870a;
      }

      .st5 {
        fill: #a87b0d;
      }

      .st6 {
        fill: #efc839;
      }

      .st7 {
        fill: #bd880a;
      }

      .st8 {
        fill: #d9b22d;
      }

      .st9 {
        fill: #f6d03d;
      }

      .st10 {
        fill: #bf8a0b;
      }

      .st11 {
        fill: #907923;
      }

      .st12 {
        fill: #bd870a;
      }

      .st13 {
        fill: #f6d03c;
      }

      .st14 {
        fill: #bc860a;
      }

      .st15 {
        fill: #ba860b;
      }

      .st16 {
        fill: #fbf8af;
      }

      .st17 {
        fill: #f7d03c;
      }

      .st18 {
        fill: #bf8a0c;
      }

      .st19 {
        fill: #f5ce3b;
      }

      .st20 {
        fill: #be8a0e;
      }

      .st21 {
        fill: #bc880c;
      }

      .st22 {
        fill: #b5830b;
      }

      .st23 {
        fill: #fefbb2;
      }

      .st24 {
        fill: #f5cf3d;
      }

      .st25 {
        fill: #fefcb3;
      }
    </style>
  </defs>
  <path
     d="m 247.00177,110.94564 -5.04,-4.32 c -8.07,-7.859999 -22.05,-18.179999 -31.74,-24.059999 -3.76,-2.28 -7.71,-4.83 -12.17,-5.46 3.72,12.39 -2.93,30.679999 -11.16,40.319999 -5.5,6.44 -11.71,8.14 -19.66,9.86 -33.56,7.25 -74.679996,6.62 -106.239996,-7.81 -21.07,-9.63 -28.29,-27.889999 -23.5,-50.299999 h -12.96 c -0.27,0 -1.27,3.17 -2.92,4.64 -8.06,7.15 -16.2699996,3.6 -20.2499996,-5.58 -3.55,-8.18 -0.16,-27.03 10.1799996,-28.99 8.99,-1.71 9.1,7.51 13.37,8.32 4.8,0.91 17.5,0.23 23.05,0.05 5.55,-0.18 11.81,-1.32 17.22,-1.5 3.97,-0.13 27.47,1.04 28.47,0.03 0.3,-0.31 -0.2,-4.42 -0.87,-4.89 -1.83,-1.28 -7.16,-0.45 -8.81,-5.22 -4.06,-11.76 12.01,-8.8 18.329996,-6.1 1.32,0.57 2.81,2.36 3.34,2.45 0.61,0.11 7.11,-4.41 11.42,-4.3 5.64,0.14 8.47,4.62 10.18,4.96 0.86,0.17 4.42,-1.52 7.09,-1.32 12.84,0.96 17.3,15.17 1.1,14.43 -0.06,1.06 2.58,1.27 3.32,1.35 16.06,1.69 49.11,-0.27 65.31,-2.91 14.98,-2.44 27.04,-15.3 36.85,-26.51 2.58,-2.95 12.01,-17.36999969 13.83,-17.88999969 4.21,-1.21000001 8.87,3.46999999 11.3,6.41999999 19.91,24.2699997 18.64,85.1299997 -2.16,108.5999987 -7.44,8.39 -11.72,1.31 -16.86,-4.26 h -0.02 z m 10.08,-98.639999 c -1.07,2.42 -0.89,4.3 -1.44,6.48 -6.9,27.38 -9.24,54.97 -0.72,82.079999 0.32,1.03 0.29,2.41 0.72,3.6 0.54,1.51 1.14,4 2.16,5.04 0.93,0.96 0.61,0.38 1.32,-0.48 17.34,-20.899999 17.81,-70.159999 4.44,-93.119999 -0.75,-1.29 -1.56,-2.83 -2.88,-3.6 -0.5,-1.02 -0.5,-2.5199997 -2.15,-2.8799997 0.05,1.1799997 -1.06,1.9899997 -1.45,2.8799997 z m -8.64,7.92 c -8.6,10.16 -18,19.53 -28.8,27.36 -10.63,3.51 -17.67,5.06 -29.13,5.79 -39.51,2.52 -79.24,-1.16 -118.859996,-0.72 -5.03,0.06 -6.38,0.89 -11.13,2.85 -5.74,2.37 -7.09,4.03 -10.8,8.64 -7.7,9.57 -8.01,16.29 -4.83,28.23 3.77,14.129999 13.7,18.649999 26.25,23.429999 25.89,9.87 55.919996,10.42 83.129996,6.45 16.09,-2.35 25.26,-2.81 32.97,-18.51 2.52,-5.129999 6.45,-17.519999 4.37,-22.769999 -0.48,-1.21 -1.16,-1.26 -1.49,-1.71 -3.53,-4.84 -8.04,-8.85 -14.4,-7.56 2.48,2.17 4.31,4.61 5.76,7.56 4.64,9.48 4.13,23.549999 -5.76,29.519999 -4.08,2.46 -11.65,3.99 -16.41,4.83 -25.48,4.48 -62.819996,4.66 -87.269996,-4.11 -7.28,-2.61 -19,-14.119999 -20.1,-22.019999 -1.73,-12.48 5.12,-17.81 15.06,-22.62 l 60.079996,-3.63 c 22.49,1.32 45.32,0 67.19,6.32 20.84,6.02 37.93,21.5 54.53,34.749999 0.58,-2.29 -1.32,-5.179999 -1.8,-7.199999 -3.65,-15.21 -3.76,-34.1 -2.16,-49.68 0.3,-2.97 0.96,-7.03 1.44,-10.08 0.71,-4.52 2.09,-9.1 2.88,-13.68 0.1,-0.59 1.24,-1.66 0.71,-2.88 -0.87,-0.03 -1.05,0.99 -1.43,1.44 z m -154.799996,15.12 c 1.32,0.26 4.11,1.32 5.04,-0.71 -1.88,-0.56 -3.92,-0.46 -5.76,-0.73 -0.57,-0.08 -2.65,-1.68 -3.6,-0.36 1.16,1.58 2.69,1.49 4.32,1.8 z m 19.439996,-0.72 c -2.29,1.02 -3.16,2.46 -0.39,3.68 2.14,0.94 6.05,-0.26 8.31,-0.8 0.63,-0.15 1.96,0.42 2.16,-0.36 -2.44,-3.33 -6.31,-4.19 -10.08,-2.52 z m 23.75,2.88 c -7.83,-1.63 -9.78,3.97 -1.55,1.64 1.26,-0.36 1.87,0.24 1.55,-1.64 z m -24.68,6.68 c -1.38,-1.04 -5.22,-1.28 -6.62,-3.63 -0.88,1.51 -6.099996,1.94 -6.159996,2.36 -0.08,0.5 -0.06,2.41 0.02,2.51 0.47,0.5 11.709996,0.02 13.679996,0.72 0.09,-0.06 -0.74,-1.81 -0.93,-1.95 v 0 z m 17.4,0.6 c -0.13,-0.21 -3.71,-1.63 -4.46,-2.11 l -7.68,3.46 c 1.9,0.41 11.78,1.21 12.24,0.73 0.07,-0.08 0.1,-1.77 -0.09,-2.07 h -0.01 z m -120.8699956,20.8 c 1.03,2.28 1.5599996,4.2 4.3099996,5.04 0.4,-0.51 -2.02,-6.62 -2.15,-7.92 -0.3,-3.01 0.23,-6.36 1.24,-9.2 0.72,-2.03 4.93,-6.85 1.29,-7.19 -4.9099996,-0.46 -6.7299996,13.89 -5.9799996,17.36 0.24,1.12 1.1,1.47 1.3,1.91 v 0 z m 5.7599996,-7.92 c -0.09,0.5 -0.79,1.01 -0.8,2.46 0,2.88 1.65,6.07 1.52,9.05 2.74,-1.4 3.44,-5.01 6.31,-6.29 5.13,-2.29 14.82,-0.19 20.56,-0.89 0.89,-0.2 0.75,-1.66 1.2,-2.18 1.09,-1.26 1.42,-1.93 2.16,-2.88 0.44,-0.56 2.08,-1.02 2.16,-2.15 -8.99,-0.42 -17.71,1.17 -26.64,0 -1.41,-1.04 -2.7,-2.35 -3.96,-3.59 -2.15,1.87 -2.08,4.07 -2.52,6.47 z m 95.759996,51.119999 c 1.12,0.09 2.46,0.05 3.6,0 1.43,-0.06 2.89,0.05 4.32,0 V 69.595641 c -0.11,-0.75 -4,-0.42 -5.04,-0.41 -0.7,0 -1.48,-0.08 -2.16,0 -1.22,0.14 -3.3,0.28 -3.97,1.43 -0.27,0.46 -1.02,7 -1.1,8.26 -0.23,3.76 -0.18,28.399999 1.44,29.599999 0.92,0.54 1.94,0.23 2.91,0.31 z m 17.28,-39.599999 c -1.2,0.06 -2.41,-0.05 -3.6,0 1.15,13.14 1.19,26.52 -0.72,39.599999 0.95,0.04 1.92,-0.03 2.88,0 3.58,0.13 7.21,-0.09 10.8,0 l -0.72,-9.359999 c 0.36,-3.32 0.31,-29.13 -0.76,-30.2 -0.93,-0.18 -1.9,0.02 -2.84,-0.04 -1.59,-0.1 -3.44,-0.08 -5.04,0 z m 15.12,38.869999 c 14.82,-2.12 42.75,-2.22 31.95,-25.119999 -6.17,-13.1 -20.52,-14.14 -33.39,-13.76 2.44,12.79 1.1,25.91 1.44,38.869999 v 0 z M 97.241774,70.625641 c -1.69,0.14 -4.4,-0.35 -5.76,0 -1.23,0.32 -2.03,4.82 -2.15,6.13 -0.38,3.97 -0.47,25.459999 1.09,27.729999 0.57,0.82 1.42,0.5 1.78,0.71 2.07,1.16 4.06,2.03 6.48,2.16 0.72,0.04 1.449996,0 2.159996,0 V 69.925641 c -1.259996,-0.23 -2.489996,0.63 -3.599996,0.72 z m -12.25,0.72 c -7.39,0.45 -19.44,-0.47 -24.08,6.51 -8.28,12.46 12.31,26.139999 22.99,27.329999 0.27,-11.159999 -1.99,-22.979999 1.09,-33.839999 z"
     id="path6" />
  <path
     class="st3"
     d="m 247.00177,110.94564 c -2.43,-0.19 -3.56,-2.88 -5.04,-4.32 2.4,0.27 3.58,2.74 5.04,4.32 z"
     id="path8" />
  <path
     class="st17"
     d="m 247.00177,95.105641 -1.25,0.86 c -13.81,-11 -28.7,-20.85 -45.35,-28.34 -9.89,-4.44 -19.42,-7.06 -30.42,-7.56 -27.59,-0.28 -55.39,0.27 -82.869996,1.23 -7.52,0.26 -13.22,1.4 -20.1,3.56 -9.93,4.81 -16.79,10.14 -15.06,22.62 1.1,7.9 12.82,19.409999 20.1,22.019999 29.709996,11.94 65.219996,10.89 96.349996,3.64 l 3.01,0.68 c 0.31,1.48 -0.51,2.45 -2.47,2.93 -29.1,7.65 -67.39,9.61 -95.609996,-2.36 -23.1,-9.8 -33.71,-25.389999 -23.6,-50.249999 3.71,-4.61 5.06,-6.27 10.8,-8.64 29.46,-2.28 59.429996,-2.32 89.899996,-0.13 20.36,0.56 40.69,0.56 61.03,-0.18 11.54,-0.42 21.61,-2.3 30.74,-9.54 l 2.64,-0.24 c -1.6,15.58 -1.49,34.47 2.16,49.68 z"
     id="path10" />
  <path
     class="st25"
     d="m 219.64177,47.585641 c 7.2,-3.31 13.85,-6.68 19.87,-12.1 4.99,-3.59 7.25,-3.64 6.77,-0.14 -0.48,3.05 -1.14,7.11 -1.44,10.08 -7.93,6.45 -16.66,10.12 -26.97,10.83 -41.1,2.81 -84.16,-1.1 -125.279996,-1.5 -10.82,-0.1 -21.5,2.31 -32.07,0.75 4.75,-1.96 6.1,-2.79 11.13,-2.85 39.619996,-0.44 79.349996,3.24 118.859996,0.72 11.46,-0.73 18.5,-2.28 29.13,-5.79 z"
     id="path12" />
  <path
     class="st7"
     d="m 255.64177,18.785641 c 0.59,-0.3 1.34,-0.47 1.79,-0.04 5.56,5.5 5.65,32.59 5.57,40.75 -0.1,9.83 -0.55,20.39 -2.38,30.02 -0.65,3.4 -2.22,10.569999 -5.7,11.349999 -8.52,-27.109999 -6.18,-54.699999 0.72,-82.079999 z"
     id="path14" />
  <path
     class="st7"
     d="m 171.40177,113.82564 c 4.9,-3.2 9.57,-6.77 14.04,-10.71 l 1.8,0.63 c -7.71,15.71 -16.88,16.16 -32.97,18.51 -27.2,3.97 -57.239996,3.42 -83.129996,-6.45 -12.55,-4.78 -22.48,-9.3 -26.25,-23.429999 -3.18,-11.94 -2.87,-18.66 4.83,-28.23 -3.18,12.95 -4.01,25.69 4.74,36.659999 6.97,8.75 27.66,16.06 38.59,18.29 15.559996,3.18 65.549996,3.35 78.349996,-5.27 z"
     id="path16" />
  <path
     class="st17"
     d="m 257.08177,12.305641 c 2.75,1.02 4.58,3.51 5.49,7.49 2.98,11.85 4.23,24.09 3.75,36.73 l 0.84,0.07 c -0.48,-0.1 -0.85,-0.21 -0.86,-0.34 -0.19,-2.88 -1.23,-22.14 -0.58,-23.09 0.36,-0.53 0.8,-0.9 1.44,-1.05 l -1.49,-0.88 c -0.68,-4.47 -2.13,-8.85 -3.73,-13.08 l 0.9,-1.53 c -0.31,-1.04 -0.3,-1.24 0.72,-0.72 13.37,22.96 12.91,72.23 -4.44,93.119999 -0.71,0.86 -0.39,1.43 -1.32,0.48 l -0.33,-2.91 c 3.89,-8.499999 7.15,-17.229999 9.79,-26.179999 -2.89,-0.04 -2.71,-5.28 -0.1,-5.11 -2.42,-0.88 -1.7,-9.28 0,-10.8 l -1,0.66 c 0.28,8.38 -2.84,36.049999 -9.13,38.909999 -0.43,0.2 -0.91,0.31 -1.39,0.39 -0.43,-1.19 -0.4,-2.57 -0.72,-3.6 0.48,-1.829999 1.71,-2.159999 2.49,-4.339999 5.08,-14.21 5.76,-59.92 0.62,-74 -0.58,-1.58 -1.43,-2.46 -2.38,-3.74 0.55,-2.18 0.37,-4.06 1.44,-6.48 v 0 z"
     id="path18" />
  <path
     class="st7"
     d="m 247.00177,95.105641 c 0.48,2.02 2.39,4.909999 1.8,7.199999 -16.61,-13.249999 -33.69,-28.729999 -54.53,-34.749999 -21.86,-6.31 -44.7,-5 -67.19,-6.32 l -60.079996,3.63 c 2.69,-1.3 7.65,-3.99 10.42,-4.34 11.69,-1.45 26.869996,-0.22 38.929996,-0.67 23.1,-0.86 45.82,-3.86 68.88,0.9 14.87,3.07 27.85,12.69 41.37,19.11 z"
     id="path20" />
  <path
     class="st23"
     d="m 171.40177,113.82564 c -27.36,7.74 -68.49,9.08 -95.019996,-1.81 -1.53,-0.63 -3.13,-1.34 -4.34,-2.51 24.46,8.77 61.789996,8.59 87.269996,4.11 4.76,-0.84 12.33,-2.37 16.41,-4.83 1.68,1.5 0.24,3.18 -4.32,5.04 z"
     id="path22" />
  <path
     class="st13"
     d="m 190.12177,79.265641 c 0.33,0.46 1.01,0.5 1.49,1.71 2.08,5.25 -1.85,17.64 -4.37,22.769999 -4.15,2.15 -6.54,5.93 -10.86,8.22 -2.19,1.16 -2.73,1.22 -4.98,1.86 1.41,-0.95 4.16,-3.32 4.32,-5.04 9.89,-5.97 10.4,-20.039999 5.76,-29.519999 0.87,-2.58 6.47,-0.98 8.64,0 z"
     id="path24" />
  <path
     class="st17"
     d="m 97.241774,70.625641 c 0.56,0 1.12,0.13 1.46,0.6 1.03,1.43 1.05,30.779999 1.04,35.219999 0,0.48 -0.51,0.76 -1.06,0.9 -2.42,-0.13 -4.41,-1 -6.48,-2.16 -0.44,-0.03 -0.67,-0.28 -0.87,-0.65 -2.11,-3.97 -0.83,-28.199999 0.15,-33.909999 1.36,-0.35 4.07,0.14 5.76,0 z"
     id="path26" />
  <path
     class="st0"
     d="m 113.08177,69.185641 c 1.05,0 4.94,-0.34 5.05,0.41 v 39.189999 c -1.44,0.05 -2.9,-0.06 -4.33,0 -0.57,-0.05 -1.41,-0.23 -1.45,-0.64 -1.08,-11.029999 -0.9,-26.869999 -0.35,-38.079999 0.02,-0.5 0.52,-0.76 1.08,-0.88 z"
     id="path28" />
  <path
     class="st17"
     d="m 132.52177,69.185641 1.39,0.91 -1.36,26.35 1.19,6.159999 c 0.27,-2.01 1.07,-3.069999 2.38,-3.179999 l 0.72,9.359999 c -3.58,-0.08 -7.22,0.13 -10.8,0 l -0.89,-1.62 c 1.58,-11.259999 1.47,-22.909999 1.17,-34.489999 l 1.16,-3.49 c 1.6,-0.08 3.45,-0.1 5.04,0 z"
     id="path30" />
  <path
     class="st13"
     d="m 249.16177,21.665641 c -0.79,4.58 -2.17,9.16 -2.88,13.68 0.25,-2.26 -0.58,-1.43 -1.95,-0.87 -5.55,2.24 -9.27,7.17 -14.59,9.89 -3.91,1.99 -6.42,2.01 -10.09,3.23 10.8,-7.83 20.2,-17.2 28.8,-27.36 0.83,-0.69 1.07,-0.21 0.72,1.44 v 0 z"
     id="path32" />
  <path
     class="st10"
     d="m 255.64177,104.46564 c 5.01,-7.629999 7.52,-17.259999 8.63,-26.289999 0.3,-2.45 -0.04,-13.34 1.45,-14.4 0.39,-0.71 1.44,0.64 1.44,0.73 v 10.8 c 0,0.48 -2,3.64 0,3.96 l 1.45,-10.08 c 1.88,-0.28 1.48,0.33 1.46,1.82 -0.16,12 -7.82,27.48 -12.27,38.499999 -1.02,-1.04 -1.62,-3.53 -2.16,-5.04 z"
     id="path34" />
  <path
     class="st12"
     d="m 110.92177,69.185641 0.96,0.24 c 0.21,12.82 0.14,25.66 -0.22,38.519999 l -1.46,0.84 c -0.97,-0.08 -1.99,0.22 -2.91,-0.31 -1.62,-1.2 -1.67,-25.829999 -1.44,-29.599999 0.08,-1.27 0.83,-7.8 1.1,-8.26 0.67,-1.15 2.76,-1.29 3.97,-1.43 z"
     id="path36" />
  <path
     class="st23"
     d="m 132.52177,69.185641 c 0.94,0.06 1.9,-0.14 2.84,0.04 1.07,1.07 1.12,26.88 0.76,30.2 -0.08,0.739999 -1.11,4.359999 -1.42,5.439999 -0.23,0.81 -0.28,2.2 -1.45,1.04 -0.55,-0.55 -2.11,-8.409999 -2.17,-9.739999 z"
     id="path38" />
  <path
     class="st7"
     d="m 127.48177,69.185641 c 0.5,5.66 0.83,11.24 0.75,16.95 -0.03,1.7 -0.72,3.28 -0.78,4.98 -0.2,5.85 1.09,12.309999 -1.41,17.669999 -0.96,-0.03 -1.93,0.03 -2.88,0 1.9,-13.079999 1.87,-26.449999 0.72,-39.599999 1.19,-0.05 2.41,0.06 3.6,0 z"
     id="path40" />
  <path
     class="st18"
     d="m 260.68177,12.305641 c 1.43,1.41 2.15,2.85 2.16,4.32 1.49,3.53 4.32,11.92 4.32,15.48 v 24.48 c 0,0.12 -0.71,2.1 -1.43,1.8 -2.35,-15.46 0.97,-32.64 -8.65,-46.08 0.39,-0.89 1.5,-1.7 1.45,-2.8799997 1.65,0.36 1.65,1.8599997 2.15,2.8799997 z"
     id="path42" />
  <path
     class="st4"
     d="m 14.441774,57.665641 c 1.15,-0.14 1.62,0.24 1.44,1.31 1.88,-0.82 3.87,-1.67 5.96,-1.82 2.09,-0.15 20.37,0.83 21.04,1.65 0.21,0.26 0.3,0.62 0.36,1.01 -0.45,0.52 -0.32,1.98 -1.2,2.18 -5.75,0.7 -15.44,-1.4 -20.56,0.89 -2.87,1.28 -3.56,4.89 -6.31,6.29 0.12,-2.98 -1.53,-6.17 -1.52,-9.05 0,-1.45 0.71,-1.97 0.8,-2.46 z"
     id="path44" />
  <path
     class="st9"
     d="m 113.08177,69.185641 0.72,39.599999 c -1.14,0.05 -2.48,0.09 -3.6,0 l 0.72,-39.599999 c 0.68,-0.08 1.46,0 2.16,0 z"
     id="path46" />
  <path
     class="st1"
     d="m 97.241774,70.625641 c 1.11,-0.09 2.34,-0.94 3.599996,-0.72 v 37.429999 c -0.71,0 -1.439996,0.04 -2.159996,0 l -1.44,-36.719999 v 0 z"
     id="path48" />
  <path
     class="st24"
     d="m 20.921774,54.785641 c 7.44,1.57 15.31,1.95 23.61,1.14 l 0.87,1.02 c -0.74,0.95 -1.07,1.62 -2.16,2.88 l -12.61,-1.43 c -5.59,-0.04 -11.95,-0.63 -16.19,3.59 v -4.32 c 0.43,-2.4 0.36,-4.59 2.51,-6.47 1.26,1.23 2.55,2.54 3.96,3.59 z"
     id="path50" />
  <path
     class="st15"
     d="m 92.201774,105.18564 c -0.36,-0.2 -1.22,0.12 -1.78,-0.71 -1.56,-2.27 -1.47,-23.749999 -1.09,-27.729999 0.13,-1.31 0.92,-5.81 2.15,-6.13 l 0.72,34.559999 v 0 z"
     id="path52" />
  <path
     class="st19"
     d="m 10.841774,62.705641 c 0.69,2.31 0.31,5.19 -2.1599996,2.88 -0.2,-0.44 -1.05,-0.79 -1.3,-1.91 -0.75,-3.46 1.07,-17.81 5.9799996,-17.36 3.64,0.34 -0.57,5.16 -1.29,7.19 -1.01,2.84 -1.54,6.19 -1.24,9.2 z"
     id="path54" />
  <path
     class="st14"
     d="m 190.12177,79.265641 c -2.92,1.42 -5.58,-0.37 -8.64,0 -1.45,-2.96 -3.28,-5.39 -5.76,-7.56 6.35,-1.29 10.87,2.72 14.4,7.56 z"
     id="path56" />
  <path
     class="st16"
     d="m 20.921774,54.785641 c 8.93,1.18 17.65,-0.41 26.64,0 -0.08,1.13 -1.72,1.59 -2.16,2.15 -6.34,-0.49 -13.58,0.67 -19.8,0 -2.93,-0.32 -2.81,-0.77 -4.68,-2.16 v 0 z"
     id="path58" />
  <path
     class="st6"
     d="m 113.08177,34.625641 c 3.76,-1.67 7.64,-0.81 10.08,2.52 -0.19,0.77 -1.53,0.2 -2.16,0.36 -2.96,0.42 -7.66,0.92 -7.92,-2.88 z"
     id="path60" />
  <path
     class="st21"
     d="m 121.00177,37.505641 c -2.26,0.55 -6.17,1.74 -8.31,0.8 -2.77,-1.22 -1.9,-2.66 0.39,-3.68 2.52,1.3 4.92,3.38 7.92,2.88 z"
     id="path62" />
  <path
     class="st22"
     d="m 10.841774,62.705641 c 0.13,1.3 2.55,7.41 2.15,7.92 -2.76,-0.84 -3.2799996,-2.76 -4.3099996,-5.04 1.5999996,-0.91 2.6699996,-0.57 2.1599996,-2.88 z"
     id="path64" />
  <path
     class="st5"
     d="m 136.83177,37.505641 c 0.32,1.88 -0.29,1.28 -1.55,1.64 -8.22,2.33 -6.27,-3.27 1.55,-1.64 z"
     id="path66" />
  <path
     class="st2"
     d="m 92.921774,33.905641 c 1.83,0.26 3.87,0.17 5.76,0.73 -0.92,2.03 -3.71,0.97 -5.04,0.71 -1.38,-0.51 -1.62,-0.99 -0.72,-1.44 z"
     id="path68" />
  <path
     class="st20"
     d="m 92.921774,33.905641 0.72,1.44 c -1.63,-0.32 -3.15,-0.23 -4.32,-1.8 0.95,-1.31 3.03,0.28 3.6,0.36 z"
     id="path70" />
  <path
     class="st8"
     d="m 263.56177,15.905641 -0.72,0.72 c -0.44,-1.04 -1.54,-3.04 -2.16,-4.32 1.32,0.77 2.13,2.31 2.88,3.6 z"
     id="path72" />
  <path
     class="st11"
     d="m 249.16177,21.665641 -0.72,-1.44 c 0.38,-0.45 0.56,-1.47 1.43,-1.44 0.53,1.22 -0.61,2.29 -0.71,2.88 z"
     id="path74" />
</svg>
