<?xml version="1.0" encoding="UTF-8" standalone="no"?>
<!-- Generator: Adobe Illustrator 18.0.0, SVG Export Plug-In . SVG Version: 6.00 Build 0)  -->

<svg
   version="1.1"
   id="Layer_2"
   x="0px"
   y="0px"
   viewBox="0 0 48.8 52.010902"
   enable-background="new 0 0 48.8 52"
   xml:space="preserve"
   sodipodi:docname="U-story-2.svg"
   width="48.799999"
   height="52.010902"
   xmlns:inkscape="http://www.inkscape.org/namespaces/inkscape"
   xmlns:sodipodi="http://sodipodi.sourceforge.net/DTD/sodipodi-0.dtd"
   xmlns="http://www.w3.org/2000/svg"
   xmlns:svg="http://www.w3.org/2000/svg"><defs
   id="defs17" /><sodipodi:namedview
   id="namedview15"
   pagecolor="#ffffff"
   bordercolor="#000000"
   borderopacity="0.25"
   inkscape:showpageshadow="2"
   inkscape:pageopacity="0.0"
   inkscape:pagecheckerboard="0"
   inkscape:deskcolor="#d1d1d1" />
<g
   id="g12">
	<path
   fill="#f7941e"
   d="m 47.6,0 c -3.2,0 -6.5,0.1 -9.7,0.2 -0.6,0 -1.2,0.1 -1.7,0.4 -1.7,1.2 -3.4,2.4 -5.1,3.6 -0.1,0.1 -0.2,0.4 -0.2,0.5 0,0.5 0,1 0,1.4 0,0.5 0.2,0.7 0.8,0.7 1.3,-0.1 2.6,-0.1 3.9,-0.1 1.2,0 1.9,1.1 1.5,2.2 C 37,9.2 37,9.5 37,9.7 c 0,2.3 0,4.7 0,7 0,3 0,6 0,9 0,3.3 -0.1,6.6 0,9.9 0,2.6 -0.5,4.8 -2.8,6.4 -1.7,1.2 -3.4,2 -5.6,1.9 C 27,43.8 25.5,43.2 24,42.6 19.5,40.7 17,37.2 16.8,32.5 16.5,26.9 16.7,21.2 16.7,15.6 c 0,-1.4 0.1,-2.8 0.1,-4.2 C 16.7,9.6 16.5,7.8 16.7,5.9 16.9,4.5 17.6,3.8 18.8,3.5 19.2,3.4 19.7,3.4 20.2,3.3 20.4,3.2 20.7,3 20.7,2.8 c 0,-0.7 0,-1.3 -0.1,-2 0,-0.2 -0.3,-0.5 -0.4,-0.5 -1,0 -2.1,0 -3.1,0 C 15.3,0.4 13.4,0.5 11.6,0.6 10.7,0.6 9.9,0.5 9,0.5 6.9,0.4 5,0.4 3.5,2 2.6,3 1.3,3.7 0.3,4.5 0.1,4.6 0,4.9 0,5.1 0,5.6 0.1,6.1 0.1,6.6 0.1,7.1 0.4,7.3 0.9,7.3 2,7.2 3.1,7.1 4.2,7 5.5,7 6,7.4 5.9,8.7 c 0,1.5 -0.1,3.1 -0.1,4.6 0,4.6 0,9.2 0,13.8 v 0 c 0,2.6 0,5.1 0,7.7 0,1.3 0,2.7 0.4,3.9 1.2,4.8 4.1,8.3 8.4,10.8 0.8,0.5 1.6,0.9 2.4,1.2 2.3,0.8 4.7,1.4 7.2,1.3 1.9,-0.1 3.8,0 5.6,-0.4 3.3,-0.7 5.8,-2.9 8,-5.3 1.9,-2.1 3.4,-4.5 5,-6.9 1.1,-1.7 1.8,-3.7 2,-5.7 0.2,-2.3 0.2,-4.6 0.2,-6.9 0,-4.5 0,-8.9 -0.1,-13.4 0,-2.6 -0.2,-5.3 -0.2,-7.9 0,-0.5 0.2,-1.2 0.6,-1.6 0.5,-0.5 1.2,-0.6 1.9,-0.9 0.5,-0.2 1.2,0 1.4,-0.3 0.3,-0.4 0.1,-1 0.2,-1.5 V 1.1 C 48.8,0 48.8,0 47.6,0 Z m -0.1,2.4 c -1.3,0 -2.4,0.4 -3,1.6 -0.2,0.4 -0.3,0.9 -0.3,1.3 0,1.3 0.1,2.6 0.1,3.9 0,3.3 0.1,6.6 0.1,9.9 0,3 -0.1,6.1 -0.1,9.2 0,1.7 0.1,3.4 0,5 -0.1,1.2 -0.4,2.4 -0.8,3.5 -1,2.7 -2.7,4.9 -4.8,6.8 -1.8,1.6 -3.8,2.7 -6,3.5 -0.9,0.4 -2,0.5 -3,0.5 -2,0 -4,0 -6,-0.2 C 22.3,47.2 20.9,47 19.7,46 18.5,45.1 17,44.5 16,43.4 13.6,40.8 11.4,38 10.9,34.3 10.6,32.1 10.4,29.9 10.4,27.6 10,23.9 9.9,19.9 9.9,16 c 0,-1.5 0.2,-2.9 0.2,-4.3 0,-2.1 0,-4.2 -0.1,-6.2 C 10,4.3 9.6,3.9 8.5,3.5 7.9,3.2 7.2,3 6.3,2.8 6.3,2.2 6.2,1.7 6.1,1 7,1 7.8,1.1 8.7,1.1 11.3,1.1 13.9,1 16.4,1 c 0.9,0 1.9,0 2.8,0 0.7,0 1,0.3 0.8,0.9 0,0.2 0,0.5 0,0.8 -0.2,0 -0.5,0 -0.7,0.1 -1.8,0 -3,1.2 -3,2.9 -0.1,1.8 -0.1,3.7 -0.1,5.5 C 16,17.3 16,23.4 16,29.5 c 0,1 0,2 0,2.9 0,1.8 0.6,3.3 1.4,4.9 1.3,2.8 3.4,4.8 6.3,5.8 1.6,0.5 3.2,1.1 4.8,1.5 1.4,0.3 2.8,-0.2 4.1,-0.8 2.4,-1 4.3,-2.8 6.1,-4.7 1.9,-2.2 2.6,-4.7 2.5,-7.5 -0.1,-3.2 0.1,-6.4 0.2,-9.6 0,-2.6 0,-5.2 0,-7.7 0,-2 0.2,-4 0.2,-6 0,-1.2 0,-2.4 -0.3,-3.6 C 41.2,4.1 40.6,3.6 40.2,3.2 39.8,2.9 39.2,2.7 38.7,2.6 37.7,2.4 37.5,2.2 37.6,1.2 c 0,-0.2 0,-0.3 0,-0.4 h 10.7 c 0,0.3 0,0.5 0,0.8 0,0.5 -0.2,0.8 -0.8,0.8 z"
   id="path2" />
	<path
   fill="#ffffff"
   d="M 48.2,0.8 H 37.5 c 0,0.1 0,0.3 0,0.4 -0.1,1 0.1,1.2 1.1,1.4 0.5,0.1 1.1,0.3 1.5,0.6 0.5,0.4 1,0.9 1.1,1.5 0.2,1.2 0.3,2.4 0.3,3.6 0,2 -0.1,4 -0.2,6 0,2.6 0,5.2 0,7.7 0,3.2 -0.2,6.4 -0.2,9.6 0.1,2.8 -0.6,5.3 -2.5,7.5 -1.7,1.9 -3.6,3.7 -6.1,4.7 -1.3,0.5 -2.7,1.1 -4.1,0.8 -1.6,-0.4 -3.2,-1 -4.8,-1.5 -2.9,-1 -5,-3 -6.3,-5.8 -0.7,-1.6 -1.4,-3.1 -1.4,-4.9 0,-1 0,-1.9 0,-2.9 0,-6.1 0.1,-12.2 0.1,-18.2 0,-1.8 0.1,-3.7 0.1,-5.5 0.1,-1.8 1.2,-2.9 3,-2.9 0.2,0 0.5,0 0.7,-0.1 0,-0.3 0,-0.6 0.1,-0.8 0.2,-0.7 0,-1 -0.8,-0.9 -1,0 -1.9,0 -2.8,0 -2.6,0 -5.2,0.1 -7.7,0.1 C 7.8,1.1 7,1 6.1,1 6.2,1.7 6.3,2.3 6.4,2.8 7.2,3 7.9,3.2 8.5,3.4 c 1.1,0.4 1.5,0.8 1.5,2 0,2.1 0.1,4.2 0.1,6.2 0,1.5 -0.2,2.9 -0.2,4.3 0,4 0.1,7.9 0.2,11.8 0.1,2.2 0.2,4.5 0.5,6.7 0.5,3.7 2.7,6.5 5.1,9.1 1,1.1 2.5,1.7 3.7,2.6 1.2,0.9 2.6,1.2 4,1.4 2,0.2 4,0.2 6,0.2 1,0 2.1,-0.2 3,-0.5 2.2,-0.8 4.3,-1.9 6,-3.5 2.1,-2 3.8,-4.1 4.8,-6.8 0.4,-1.1 0.7,-2.3 0.8,-3.5 0.1,-1.7 0,-3.4 0,-5 0,-3.1 0.1,-6.1 0.1,-9.2 0,-3.3 0,-6.6 -0.1,-9.9 C 44,8 43.9,6.7 43.9,5.4 43.9,4.9 44,4.4 44.2,4.1 44.8,2.9 46,2.5 47.2,2.5 47.8,2.5 48,2.2 48,1.7 48.3,1.3 48.2,1 48.2,0.8 Z M 12.5,5.5 c 0.1,0 0.2,0 0.3,0 0.1,0.4 0.2,0.8 0.2,1.2 0,3.3 -0.1,6.7 -0.1,10 0,1.2 0,2.4 0,3.5 0,0.7 -0.1,0.7 -0.7,0.8 0,-5.1 0.1,-10.3 0.3,-15.5 z m -0.6,19 c 0,-0.5 0.1,-1 0.8,-1.1 0.6,0 1,0.5 1.1,1.2 0,0.5 -0.3,0.8 -0.8,0.8 -0.7,0 -1.1,-0.3 -1.1,-0.9 z m 7,18.9 c -0.2,-0.1 -0.5,-0.1 -0.6,-0.2 -1.3,-0.9 -2.2,-2 -3,-3.4 -2,-3.7 -2.5,-7.8 -2.6,-11.9 0,-0.3 0.1,-0.6 0.2,-0.9 0.2,0 0.3,0 0.5,0 -0.1,3 0.3,5.9 1,8.8 0.8,2.9 2.4,5.3 4.6,7.4 0,0.1 -0.1,0.2 -0.1,0.2 z"
   id="path4" />
	<path
   fill="#f7941e"
   d="m 19,43.2 c 0,0.1 -0.1,0.1 -0.1,0.2 -0.2,-0.1 -0.5,-0.1 -0.6,-0.2 -1.3,-0.9 -2.2,-2 -3,-3.4 -2,-3.7 -2.5,-7.8 -2.6,-11.9 0,-0.3 0.1,-0.6 0.2,-0.9 0.2,0 0.3,0 0.5,0 -0.1,3 0.3,5.9 1,8.8 0.8,3 2.3,5.4 4.6,7.4 z"
   id="path6" />
	<path
   fill="#f7941e"
   d="m 13,6.7 c 0,3.3 -0.1,6.7 -0.1,10 0,1.2 0,2.4 0,3.5 0,0.7 -0.1,0.7 -0.7,0.8 0.1,-5.3 0.2,-10.4 0.4,-15.6 0.1,0 0.2,0 0.3,0 0,0.5 0.1,0.9 0.1,1.3 z"
   id="path8" />
	<path
   fill="#f7941e"
   d="m 13.7,24.6 c 0,0.5 -0.3,0.8 -0.8,0.8 -0.6,0 -1,-0.2 -1,-0.9 0,-0.5 0.1,-1 0.8,-1.1 0.5,-0.1 1,0.5 1,1.2 z"
   id="path10" />
</g>
</svg>
