<?xml version="1.0" encoding="UTF-8" standalone="no"?>
<!-- Generator: Adobe Illustrator 18.0.0, SVG Export Plug-In . SVG Version: 6.00 Build 0)  -->

<svg
   version="1.1"
   id="Layer_2"
   x="0px"
   y="0px"
   viewBox="0 0 48.900001 52.110906"
   enable-background="new 0 0 48.7 52.1"
   xml:space="preserve"
   sodipodi:docname="U-story-1.svg"
   width="48.900002"
   height="52.110905"
   xmlns:inkscape="http://www.inkscape.org/namespaces/inkscape"
   xmlns:sodipodi="http://sodipodi.sourceforge.net/DTD/sodipodi-0.dtd"
   xmlns="http://www.w3.org/2000/svg"
   xmlns:svg="http://www.w3.org/2000/svg"><defs
   id="defs17" /><sodipodi:namedview
   id="namedview15"
   pagecolor="#ffffff"
   bordercolor="#000000"
   borderopacity="0.25"
   inkscape:showpageshadow="2"
   inkscape:pageopacity="0.0"
   inkscape:pagecheckerboard="0"
   inkscape:deskcolor="#d1d1d1" />
<g
   id="g12">
	<path
   fill="#53ad4e"
   d="m 47.8,0 c -3.3,0.1 -6.6,0.1 -10,0.2 -0.5,0 -1.1,0.1 -1.5,0.4 -1.3,0.8 -2.6,1.8 -3.9,2.6 -1.1,0.7 -1.9,1.5 -1.5,2.9 0,0 0,0.1 0,0.2 0,0.5 0.1,0.7 0.7,0.7 1.3,-0.1 2.6,-0.1 3.9,-0.1 1.3,0 2,1 1.6,2.3 C 37,9.4 37,9.6 37,9.8 c 0,2.4 0,4.8 0.1,7.3 0,2.9 0,5.7 0,8.6 0,3.3 -0.1,6.7 0,10 0,2.6 -0.5,4.8 -2.9,6.4 -1.9,1.3 -3.9,2.2 -6.2,1.7 -1.3,-0.3 -2.7,-0.7 -4,-1.2 -4.5,-1.8 -6.9,-5.3 -7.2,-10 -0.3,-5.6 -0.1,-11.3 -0.1,-16.9 0,-1.2 0.1,-2.4 0.1,-3.6 0,-2.1 -0.4,-4.2 0,-6.4 0.2,-1 0.6,-1.6 1.4,-1.9 0.6,-0.2 1.3,-0.3 2,-0.5 0.2,-0.1 0.5,-0.3 0.5,-0.5 0,-0.7 0,-1.4 -0.1,-2 0,-0.2 -0.3,-0.4 -0.5,-0.4 -1.2,0 -2.5,0 -3.7,0 C 13,0.4 9.7,0.5 6.3,0.5 5.5,0.5 5.1,0.7 4.6,1.1 3.2,2.3 1.7,3.4 0.3,4.5 c -0.4,0.3 -0.4,2.5 0,2.7 0.1,0.1 0.4,0.1 0.5,0.1 1,-0.1 2,-0.1 3.1,-0.2 1.5,-0.1 2,0.3 2,1.7 0,1.6 -0.1,3.1 -0.1,4.7 0,4.5 0,9.1 0,13.7 v 0 c 0,2.6 0,5.1 0,7.7 0,1.3 0.1,2.7 0.4,4 1.1,4.6 3.9,8 7.8,10.4 0.9,0.6 1.9,1.1 3,1.5 2.3,0.8 4.7,1.4 7.2,1.3 1.9,-0.1 3.8,0 5.6,-0.4 3.3,-0.7 5.8,-2.8 8,-5.3 1.9,-2.1 3.4,-4.5 5,-6.9 1.1,-1.7 1.8,-3.7 2,-5.7 C 45,31.5 45,29.2 45,26.9 45,22.5 45,18 45,13.6 45,11 44.9,8.3 44.8,5.7 c 0,-1 0.4,-1.7 1.2,-2.1 0.6,-0.3 1.4,-0.5 2.1,-0.5 0.6,0 0.8,-0.2 0.8,-0.8 0,-0.4 0,-0.9 0,-1.3 C 48.8,0.2 48.5,0 47.8,0 Z M 31.9,4.5 C 33.5,3.4 35,2.1 36.6,0.9 36.9,2 36.7,2.8 35.7,3.4 34.3,4.2 33,5.1 31.6,5.9 31.4,5.3 31.4,5 31.9,4.5 Z M 0.8,6.2 C 0.5,5.6 0.6,5.2 1.1,4.8 2.6,3.7 4,2.5 5.6,1.2 5.7,2 5.6,2.6 4.9,3.1 3.5,4 2.2,5.1 0.8,6.2 Z m 36.1,40 c -2.1,2 -4.3,3.8 -7.1,4.7 -1,0.3 -2,0.5 -3,0.5 C 24.5,51.3 22.2,51.1 20,50.8 18.9,50.6 17.8,50.2 16.8,49.8 12.9,48.2 10,45.5 8.1,41.8 6.9,39.5 6.6,36.9 6.6,34.4 6.6,29.9 6.7,25.4 6.7,20.9 6.7,17.6 6.6,14.4 6.5,11.1 6.5,10.1 6.6,9 6.5,8 6.3,6.8 5.8,6.4 4.6,6.4 3.6,6.4 2.6,6.5 1.4,6.6 2.2,6 2.9,5.5 3.6,5 4,4.7 4.4,4.4 4.8,4.1 5.2,3.8 5.7,3.4 6,3.4 c 1,0.2 1.9,0.5 2.8,0.9 0.3,0.1 0.4,0.8 0.4,1.2 0,2.9 -0.1,5.8 -0.1,8.7 0,2.6 0.1,5.1 0.1,7.7 0,2.2 -0.2,4.4 0,6.5 0.4,3 0,6.2 1.3,9 1.4,3.1 3.2,5.8 6,7.9 2.9,2.1 6.2,3.3 9.8,3.2 1.1,0 2.2,0.1 3.2,-0.1 3.1,-0.3 5.8,-1.5 8.1,-3.5 0.1,-0.1 0.2,-0.1 0.3,-0.1 -0.1,0.5 -0.5,1 -1,1.4 z m 3.7,-32.3 c -0.1,5.5 -0.1,10.9 -0.2,16.3 0,1.2 0,2.4 -0.1,3.5 -0.1,2.3 -1.3,4 -3,5.6 0.1,-0.7 0.3,-1.4 0.3,-2.1 0,-1.9 0,-3.9 0,-5.8 0,-6.8 -0.1,-13.7 -0.1,-20.5 0,-0.8 0.2,-1.6 0.2,-2.4 0,-1.8 -0.8,-2.5 -2.6,-2.5 -0.7,0 -1.4,0.1 -2.2,0 0.3,-0.2 0.6,-0.5 0.9,-0.7 1,-0.7 2.1,-1.3 3.1,-2 0.9,-0.6 1.8,-0.2 2.7,0.1 0.7,0.3 1,1 1,1.8 0,0.9 0.2,1.9 0.2,2.8 0,2.1 -0.2,4 -0.2,5.9 z"
   id="path2" />
	<path
   fill="#ffffff"
   d="M 4.9,3.1 C 3.5,4.1 2.2,5.1 0.8,6.2 0.5,5.6 0.6,5.2 1.1,4.8 2.6,3.7 4,2.5 5.6,1.2 5.7,2 5.6,2.6 4.9,3.1 Z"
   id="path4" />
	<path
   fill="#ffffff"
   d="M 35.7,3.4 C 34.3,4.2 33,5.1 31.6,5.9 31.4,5.3 31.4,4.9 31.9,4.5 33.5,3.4 35,2.1 36.6,0.9 c 0.3,1.2 0.1,1.9 -0.9,2.5 z"
   id="path6" />
	<path
   fill="#ffffff"
   d="m 40.8,8.2 c 0,1.9 -0.2,3.8 -0.2,5.8 -0.1,5.5 -0.1,10.9 -0.2,16.3 0,1.2 0,2.4 -0.1,3.5 -0.1,2.3 -1.3,4 -3,5.6 0.1,-0.7 0.3,-1.4 0.3,-2.1 0,-1.9 0,-3.9 0,-5.8 0,-6.8 -0.1,-13.7 -0.1,-20.5 0,-0.8 0.2,-1.6 0.2,-2.4 0,-1.8 -0.8,-2.5 -2.6,-2.5 -0.7,0 -1.4,0.1 -2.2,0 0.3,-0.2 0.6,-0.5 0.9,-0.7 1,-0.7 2.1,-1.3 3.1,-2 0.9,-0.6 1.8,-0.2 2.7,0.1 0.7,0.3 1,1 1,1.8 -0.1,1 0.2,2 0.2,2.9 z"
   id="path8" />
	<path
   fill="#ffffff"
   d="m 38.2,44.8 c -0.4,0.5 -0.8,1 -1.3,1.4 -2.1,2 -4.3,3.8 -7.1,4.7 -1,0.3 -2,0.5 -3,0.5 C 24.5,51.3 22.2,51.1 20,50.8 18.9,50.6 17.8,50.2 16.8,49.8 12.9,48.2 10,45.5 8.1,41.8 6.9,39.5 6.6,36.9 6.6,34.4 6.6,29.9 6.7,25.4 6.7,20.9 6.7,17.6 6.6,14.4 6.5,11.1 6.5,10.1 6.6,9 6.5,8 6.3,6.8 5.8,6.4 4.6,6.4 3.6,6.4 2.6,6.5 1.4,6.6 2.2,6 2.9,5.5 3.6,5 4,4.7 4.4,4.4 4.8,4.1 5.2,3.8 5.7,3.4 6,3.4 c 1,0.2 1.9,0.5 2.8,0.9 0.3,0.1 0.4,0.8 0.4,1.2 0,2.9 -0.1,5.8 -0.1,8.7 0,2.6 0.1,5.1 0.1,7.7 0,2.2 -0.2,4.4 0,6.5 0.4,3 0,6.2 1.3,9 1.4,3.1 3.2,5.8 6,7.9 2.9,2.1 6.2,3.3 9.8,3.2 1.1,0 2.2,0.1 3.2,-0.1 3.1,-0.3 5.8,-1.5 8.1,-3.5 0.3,-0.1 0.4,-0.1 0.6,-0.1 z"
   id="path10" />
</g>
</svg>
