<?xml version="1.0" encoding="UTF-8" standalone="no"?>
<svg
   version="1.1"
   width="59.890644"
   height="155.04636"
   viewBox="-1 -1 59.890644 155.04636"
   id="svg22"
   sodipodi:docname="ukulele.svg"
   xmlns:inkscape="http://www.inkscape.org/namespaces/inkscape"
   xmlns:sodipodi="http://sodipodi.sourceforge.net/DTD/sodipodi-0.dtd"
   xmlns="http://www.w3.org/2000/svg"
   xmlns:svg="http://www.w3.org/2000/svg">
  <defs
     id="defs26" />
  <sodipodi:namedview
     id="namedview24"
     pagecolor="#ffffff"
     bordercolor="#000000"
     borderopacity="0.25"
     inkscape:showpageshadow="2"
     inkscape:pageopacity="0.0"
     inkscape:pagecheckerboard="0"
     inkscape:deskcolor="#d1d1d1" />
  <!-- Exported by Scratch - http://scratch.mit.edu/ -->
  <g
     id="ID0.46669195406138897"
     transform="matrix(0.77378094,0,0,0.77378094,-156.7621,-62.767064)">
    <path
       id="ID0.5715679354034364"
       fill="#cc9966"
       d="m 278.7,246.1 c 0,27.6 -17.3,34.1 -38.7,34.1 -21.4,0 -38.7,-6.4 -38.7,-34.1 0,-20.7 5.7,-52.5 19.6,-60.1 4.6,-2.6 13.7,-5 19.1,-5 5.3,0 13.3,2.4 17.9,4.9 14,7.6 20.8,39.4 20.8,60.2 z" />
    <path
       id="ID0.2632656176574528"
       fill="#653614"
       d="m 246.9,265.2 h -13.7 c -0.6,0 -1,-0.5 -1,-1 v -3.8 c 0,-0.6 0.4,-1 1,-1 h 13.7 c 0.6,0 1,0.4 1,1 v 3.8 c 0,0.6 -0.4,1 -1,1 z" />
    <path
       id="ID0.46370426332578063"
       fill="#2f1110"
       d="m 240,211.6 c 4.442,0 8.467,1.804 11.381,4.719 2.915,2.914 4.719,6.939 4.719,11.381 0,4.442 -1.804,8.467 -4.719,11.381 -2.914,2.915 -6.939,4.719 -11.381,4.719 -4.442,0 -8.467,-1.804 -11.381,-4.719 -2.915,-2.914 -4.719,-6.939 -4.719,-11.381 0,-4.442 1.804,-8.467 4.719,-11.381 2.914,-2.915 6.939,-4.719 11.381,-4.719 z" />
    <path
       id="ID0.388372132088989"
       fill="#653614"
       d="m 246.6,115.6 v 97.6 c -2,-1 -4.3,-1.6 -6.7,-1.6 -2.4,0 -4.6,0.5 -6.6,1.5 v -97.5 z" />
    <path
       id="ID0.6198205868713558"
       fill="#653614"
       d="m 248.9,83.8 v 28.9 c 0,1.6 -0.9,3 -2.3,3.6 -0.5,0.2 -1,0.3 -1.6,0.3 h -10.2 c -0.5,0 -1.1,-0.1 -1.5,-0.3 -1.4,-0.6 -2.4,-2 -2.4,-3.6 V 83.8 c 0,-0.2 -0.1,-0.5 0,-0.5 0.7,-0.4 1.5,0.3 2.3,0.3 2.9,0 4.4,-2.4 6.2,-3.7 0.2,-0.1 0.7,-0.1 0.9,0 1.9,1.3 3.3,3.7 6.2,3.7 0.8,0 1.6,-0.7 2.2,-0.3 0.3,0.1 0.2,0.3 0.2,0.5 z" />
    <g
       id="ID0.97087123664096">
      <g
         id="ID0.7588415276259184">
        <path
           id="ID0.8962486400268972"
           fill="#653614"
           d="m 227.1,89.2 h 5.5 v 2.2 h -5.5 z" />
        <path
           id="ID0.5130643951706588"
           fill="#653614"
           d="m 224.7,86.9 c 0.938,0 1.788,0.381 2.404,0.996 0.615,0.616 0.996,1.466 0.996,2.404 0,0.938 -0.381,1.788 -0.996,2.404 -0.616,0.615 -1.466,0.996 -2.404,0.996 -0.938,0 -1.788,-0.381 -2.404,-0.996 -0.615,-0.616 -0.996,-1.466 -0.996,-2.404 0,-0.938 0.381,-1.788 0.996,-2.404 0.616,-0.615 1.466,-0.996 2.404,-0.996 z" />
        <path
           id="ID0.8823780459351838"
           fill="#653614"
           d="m 227.1,103.2 h 5.5 v 2.2 h -5.5 z" />
        <path
           id="ID0.15817534504458308"
           fill="#653614"
           d="m 224.7,100.9 c 0.938,0 1.788,0.381 2.404,0.996 0.615,0.616 0.996,1.466 0.996,2.404 0,0.938 -0.381,1.788 -0.996,2.404 -0.616,0.615 -1.466,0.996 -2.404,0.996 -0.938,0 -1.788,-0.381 -2.404,-0.996 -0.615,-0.616 -0.996,-1.466 -0.996,-2.404 0,-0.938 0.381,-1.788 0.996,-2.404 0.616,-0.615 1.466,-0.996 2.404,-0.996 z" />
      </g>
      <g
         id="ID0.8796758367680013">
        <path
           id="ID0.05671292310580611"
           fill="#653614"
           d="m 247.3,88.2 h 5.5 v 2.2 h -5.5 z" />
        <path
           id="ID0.6627348009496927"
           fill="#653614"
           d="m 255.2,85.9 c 0.938,0 1.788,0.381 2.404,0.996 0.615,0.616 0.996,1.466 0.996,2.404 0,0.938 -0.381,1.788 -0.996,2.404 -0.616,0.615 -1.466,0.996 -2.404,0.996 -0.938,0 -1.788,-0.381 -2.404,-0.996 -0.615,-0.616 -0.996,-1.466 -0.996,-2.404 0,-0.938 0.381,-1.788 0.996,-2.404 0.616,-0.615 1.466,-0.996 2.404,-0.996 z" />
        <path
           id="ID0.06794263934716582"
           fill="#653614"
           d="m 247.3,103.2 h 5.5 v 2.2 h -5.5 z" />
        <path
           id="ID0.03759184991940856"
           fill="#653614"
           d="m 255.2,100.9 c 0.938,0 1.788,0.381 2.404,0.996 0.615,0.616 0.996,1.466 0.996,2.404 0,0.938 -0.381,1.788 -0.996,2.404 -0.616,0.615 -1.466,0.996 -2.404,0.996 -0.938,0 -1.788,-0.381 -2.404,-0.996 -0.615,-0.616 -0.996,-1.466 -0.996,-2.404 0,-0.938 0.381,-1.788 0.996,-2.404 0.616,-0.615 1.466,-0.996 2.404,-0.996 z" />
      </g>
    </g>
    <path
       id="ID0.31520919455215335"
       fill="#ffffff"
       d="m 237.7,261.9 c 0,0.9 -0.7,1.7 -1.7,1.7 -0.9,0 -1.7,-0.8 -1.7,-1.7 0,-0.7 0.5,-1.3 1.1,-1.6 V 116.6 h 1.1 v 143.7 c 0.7,0.2 1.2,0.8 1.2,1.6 z" />
    <path
       id="ID0.5427017947658896"
       fill="#ffffff"
       d="m 241.6,261.9 c 0,0.9 -0.7,1.7 -1.7,1.7 -0.9,0 -1.7,-0.8 -1.7,-1.7 0,-0.7 0.5,-1.3 1.1,-1.6 V 116.6 h 1.1 v 143.7 c 0.7,0.2 1.2,0.8 1.2,1.6 z" />
    <path
       id="ID0.15375822084024549"
       fill="#ffffff"
       d="m 245.5,261.9 c 0,0.9 -0.8,1.7 -1.7,1.7 -0.9,0 -1.7,-0.8 -1.7,-1.7 0,-0.7 0.5,-1.3 1.1,-1.6 V 116.6 h 1.1 v 143.7 c 0.8,0.2 1.2,0.8 1.2,1.6 z" />
  </g>
</svg>
