<?xml version="1.0" encoding="UTF-8" standalone="no"?>
<!-- Generator: Adobe Illustrator 18.0.0, SVG Export Plug-In . SVG Version: 6.00 Build 0)  -->

<svg
   version="1.1"
   id="Layer_2"
   x="0px"
   y="0px"
   viewBox="0 0 50.299999 51.400711"
   enable-background="new 0 0 50.5 51.5"
   xml:space="preserve"
   sodipodi:docname="V-story-2.svg"
   width="50.299999"
   height="51.400711"
   xmlns:inkscape="http://www.inkscape.org/namespaces/inkscape"
   xmlns:sodipodi="http://sodipodi.sourceforge.net/DTD/sodipodi-0.dtd"
   xmlns="http://www.w3.org/2000/svg"
   xmlns:svg="http://www.w3.org/2000/svg"><defs
   id="defs17" /><sodipodi:namedview
   id="namedview15"
   pagecolor="#ffffff"
   bordercolor="#000000"
   borderopacity="0.25"
   inkscape:showpageshadow="2"
   inkscape:pageopacity="0.0"
   inkscape:pagecheckerboard="0"
   inkscape:deskcolor="#d1d1d1" />
<g
   id="g12"
   transform="translate(0,-0.0072078)">
	<path
   fill="#f7941e"
   d="M 45.6,0.2 C 42.4,-0.2 39.2,0.1 36,0.4 c -0.2,0 -0.4,0.1 -0.5,0.2 -1.3,1 -2.7,1.9 -4,2.9 -1.3,0.9 -1.6,1.7 -1.1,3.3 0.1,0.2 0.4,0.5 0.7,0.5 0.9,0.1 1.8,0 2.8,0 1.1,0 1.4,0.4 1.1,1.4 -0.2,0.9 -0.6,1.8 -0.9,2.7 -1.1,3.1 -2.1,6.3 -3.3,9.4 -1.1,2.9 -2.4,5.7 -3.6,8.5 C 26.7,30.1 26.4,31 26,32 25.9,31.7 25.8,31.5 25.7,31.3 24.3,27.2 22.8,23.2 21.4,19.1 20.4,16.1 19.3,13 18.3,9.9 17.8,8.5 17.2,7.1 16.7,5.7 16.2,4.4 16.5,3.8 17.8,3.5 18.4,3.3 19.1,3.4 19.8,3.3 20,3.3 20.4,3.1 20.4,2.9 20.5,2.3 20.5,1.7 20.5,1 20.5,0.4 20.3,0.2 19.7,0.2 19,0.2 18.2,0.3 17.5,0.3 14.1,0.3 10.8,0.3 7.4,0.2 6.1,0.2 5,0.4 4,1.2 2.9,2 1.6,2.9 0.4,3.9 0.2,4 0,4.4 0,4.6 c 0,0.6 0,1.2 0.1,1.8 0,0.2 0.4,0.5 0.6,0.5 0.8,0 1.7,0 2.5,-0.1 1.2,-0.1 2.1,0.7 2.6,1.9 0.7,1.6 1.3,3.3 1.9,5 2.8,7 4.5,14.4 6.8,21.5 0.9,2.8 1.8,5.5 2.8,8.3 0.8,2.1 1.7,4.1 2.5,6.1 0.9,2.3 0.2,1.9 2.7,1.5 0.4,-0.1 0.9,-0.1 1.3,-0.3 1.2,-0.9 2.2,-1.8 3.3,-2.7 0.3,-0.2 0.5,-0.5 0.6,-0.9 0.9,-2.2 1.9,-4.5 2.8,-6.7 1.5,-3.6 3,-7.2 4.4,-10.8 1.5,-3.9 2.6,-7.9 4.1,-11.8 1.7,-4.3 3.7,-8.4 5.6,-12.6 0.6,-1.2 1.6,-2 3,-2.1 0.6,-0.1 1.3,0 1.9,-0.1 0.2,0 0.6,-0.2 0.6,-0.4 0.1,-0.8 0.1,-1.6 0.2,-2.5 -1.5,0 -3.1,0.1 -4.7,0 z m 4.2,2.3 c -0.4,0 -0.8,0 -1.2,0 -2.3,0 -3.8,0.9 -4.8,3 -1.3,2.9 -2.7,5.7 -3.9,8.5 -1,2.5 -1.8,5 -2.7,7.5 -1.6,4.4 -3.2,8.9 -4.8,13.3 -0.6,1.7 -1.3,3.4 -2,5.1 -0.7,1.7 -1.5,3.3 -2.2,4.9 -0.1,0.3 -0.2,0.5 -0.3,0.8 -0.3,1.3 -0.7,1.6 -2,1.4 -0.4,0 -0.8,-0.5 -1,-0.8 -2.9,-8 -5.8,-16 -8.6,-24 -1.2,-3.4 -2.4,-6.7 -3.6,-10 C 12.1,10.6 11.8,8.8 11.2,7.2 10.8,6 10.2,4.8 9.5,3.6 9,2.9 8.2,2.5 7.2,2.4 6.2,2.3 6.2,2.3 6.3,1.3 6.3,1.1 6.4,0.9 6.4,0.6 h 13.4 c -0.1,0.8 -0.1,1.4 -0.2,2.1 -1.2,0 -2.4,0.2 -3.4,1 -0.4,0.4 -0.5,0.8 -0.3,1.3 1,3 2,6.1 3,9.1 1.3,3.8 2.7,7.6 4,11.4 1.2,3.3 2.2,6.6 3.4,9.9 0.4,1.1 0.9,2.2 1.4,3.4 0.1,0.2 0.3,0.3 0.5,0.5 0.2,-0.2 0.3,-0.4 0.4,-0.6 0.7,-1.8 1.4,-3.6 2.1,-5.4 0.4,-1.1 0.9,-2.1 1.3,-3.2 1.8,-4.6 3.6,-9.2 5.4,-13.8 1,-2.5 2,-5.1 2.9,-7.7 C 40.7,7.5 41,6.3 41.3,5.1 41.5,4.3 41.1,3.3 40.1,3 39.2,2.7 38.3,2.6 37.4,2.6 36,2.5 36,2.5 36,1.1 40.5,0.5 45,1 49.5,1.1 v 1.4 z"
   id="path2" />
	<path
   fill="#ffffff"
   d="m 36.2,1 c -0.1,1.5 0,1.5 1.4,1.5 0.9,0 1.8,0.1 2.7,0.4 1,0.3 1.5,1.3 1.2,2.1 -0.3,1.2 -0.6,2.3 -1,3.5 -0.9,2.6 -1.9,5.1 -2.9,7.7 -1.8,4.6 -3.6,9.2 -5.4,13.8 -0.4,1.1 -0.9,2.1 -1.3,3.2 -0.7,1.8 -1.4,3.6 -2.1,5.4 -0.1,0.2 -0.3,0.4 -0.4,0.6 C 28.2,39 28,38.9 27.9,38.7 27.4,37.6 26.9,36.5 26.5,35.3 25.4,32 24.3,28.7 23.1,25.4 21.8,21.6 20.4,17.8 19.1,14 18.1,11 17.1,7.9 16.1,4.9 15.9,4.4 16,4 16.4,3.6 c 1,-0.9 2.1,-1 3.4,-1 C 19.9,1.9 19.9,1.3 20,0.5 H 6.4 c 0,0.3 -0.1,0.5 -0.1,0.7 -0.1,1 -0.1,1 0.9,1.1 1,0.1 1.8,0.5 2.2,1.3 0.6,1.2 1.2,2.3 1.7,3.6 0.6,1.6 0.9,3.3 1.5,5 1.2,3.4 2.4,6.7 3.6,10 2.9,8 5.7,16 8.6,24 0.1,0.4 0.6,0.8 1,0.8 1.3,0.2 1.6,-0.1 2,-1.4 0.1,-0.3 0.2,-0.6 0.3,-0.8 0.7,-1.6 1.5,-3.3 2.2,-4.9 0.7,-1.7 1.4,-3.4 2,-5.1 1.6,-4.4 3.2,-8.9 4.8,-13.3 0.9,-2.5 1.7,-5 2.7,-7.5 1.2,-2.9 2.6,-5.7 3.9,-8.5 0.9,-2.1 2.5,-3.1 4.8,-3 0.4,0 0.8,0 1.2,0 V 1 C 45.2,0.9 40.7,0.4 36.2,1 Z M 18.1,20.5 C 18,20.4 17.8,20.4 17.7,20.2 17.6,20 17.5,19.8 17.5,19.6 16,15.3 14.4,11 12.9,6.8 12.8,6.6 12.7,6.3 12.7,6.1 12.8,6.1 12.8,6 12.9,6 c 0.2,0.2 0.4,0.4 0.5,0.6 0.6,1.3 1.2,2.6 1.7,4 1.1,3 2.1,6 3.2,9 0,0.2 0.2,0.3 0.1,0.4 0,0.2 -0.2,0.4 -0.3,0.5 z m 1,4.3 c -0.3,0 -0.5,-0.3 -0.7,-0.5 0.1,-0.7 0.2,-1.2 0.8,-1.2 0.3,0.1 0.8,0.3 0.9,0.6 0.3,0.4 -0.5,1.1 -1,1.1 z M 25,41.4 C 24.6,40.3 24.1,39.1 23.8,38 22.7,34.6 21.5,31.2 20.4,27.8 20.3,27.5 19.9,27.1 20.5,27 c 0.2,0 0.5,0.4 0.6,0.6 0.6,1.6 1.1,3.3 1.6,5 0.8,2.6 1.7,5.2 2.5,7.8 0.1,0.3 0.1,0.7 0.2,1 -0.2,-0.1 -0.3,-0.1 -0.4,0 z"
   id="path4" />
	<path
   fill="#f7941e"
   d="m 18.4,20 c 0,0.2 -0.2,0.3 -0.3,0.5 C 18,20.4 17.8,20.4 17.7,20.2 17.6,20 17.5,19.8 17.5,19.6 16,15.3 14.4,11 12.9,6.8 12.8,6.6 12.7,6.3 12.7,6.1 12.8,6.1 12.8,6 12.9,6 c 0.2,0.2 0.4,0.4 0.5,0.6 0.6,1.3 1.2,2.6 1.7,4 1.1,3 2.1,6 3.2,9 0,0.1 0.1,0.3 0.1,0.4 z"
   id="path6" />
	<path
   fill="#f7941e"
   d="m 25.4,41.3 c -0.1,0 -0.2,0.1 -0.4,0.1 -0.4,-1.1 -0.9,-2.3 -1.2,-3.4 -1.1,-3.4 -2.3,-6.8 -3.4,-10.2 -0.1,-0.3 -0.5,-0.7 0.1,-0.8 0.2,0 0.5,0.4 0.6,0.6 0.6,1.6 1.1,3.3 1.6,5 0.8,2.6 1.7,5.2 2.5,7.8 0.1,0.2 0.1,0.5 0.2,0.9 z"
   id="path8" />
	<path
   fill="#f7941e"
   d="m 19.1,24.8 c -0.3,0 -0.5,-0.3 -0.7,-0.5 0.1,-0.7 0.2,-1.2 0.8,-1.2 0.3,0.1 0.8,0.3 0.9,0.6 0.3,0.4 -0.5,1.1 -1,1.1 z"
   id="path10" />
</g>
</svg>
