<?xml version="1.0" encoding="UTF-8" standalone="no"?>
<!-- Generator: Adobe Illustrator 18.0.0, SVG Export Plug-In . SVG Version: 6.00 Build 0)  -->

<svg
   version="1.1"
   id="Layer_2"
   x="0px"
   y="0px"
   viewBox="0 0 50.5 51.450001"
   enable-background="new 0 0 50.5 51.5"
   xml:space="preserve"
   sodipodi:docname="V-story-1.svg"
   width="50.5"
   height="51.450001"
   xmlns:inkscape="http://www.inkscape.org/namespaces/inkscape"
   xmlns:sodipodi="http://sodipodi.sourceforge.net/DTD/sodipodi-0.dtd"
   xmlns="http://www.w3.org/2000/svg"
   xmlns:svg="http://www.w3.org/2000/svg"><defs
   id="defs19" /><sodipodi:namedview
   id="namedview17"
   pagecolor="#ffffff"
   bordercolor="#000000"
   borderopacity="0.25"
   inkscape:showpageshadow="2"
   inkscape:pageopacity="0.0"
   inkscape:pagecheckerboard="0"
   inkscape:deskcolor="#d1d1d1" />
<g
   id="g14"
   transform="translate(0,-0.05)">
	<path
   fill="#53ad4e"
   d="M 45.8,0.2 C 43.2,0 40.6,0 38,0.2 c -0.8,0.1 -1.8,0 -2.5,0.4 -1.4,0.8 -2.7,1.9 -4,2.8 -1.5,1 -1.7,1.4 -1.3,3.2 0.1,0.5 0.3,0.8 0.9,0.8 0.9,0 1.8,0 2.7,0 1,0 1.3,0.4 1.1,1.3 -0.2,0.9 -0.6,1.8 -0.9,2.7 -0.8,2.5 -1.5,5 -2.5,7.4 -1.5,3.8 -3.1,7.4 -4.7,11.1 -0.3,0.6 -0.5,1.3 -0.8,2.2 C 25.9,31.7 25.8,31.6 25.8,31.4 24.4,27.3 23,23.3 21.6,19.2 20,14.6 18.3,10 16.7,5.4 16.3,4.3 16.5,3.8 17.6,3.5 c 0.7,-0.2 1.5,-0.2 2.2,-0.3 0.2,0 0.5,-0.3 0.5,-0.5 0.1,-0.5 0.1,-1.1 0.1,-1.6 0,-0.9 0,-1 -0.9,-1 -2.2,0 -4.4,0 -6.5,0 -2.2,0 -4.5,0 -6.7,0.1 C 5.9,0.2 5.5,0.3 5.2,0.5 3.6,1.5 2,2.7 0.4,3.9 0.2,4.1 0,4.4 0,4.6 c 0,0.6 0,1.2 0.1,1.7 0,0.2 0.4,0.6 0.6,0.6 0.8,0 1.7,0 2.5,0 1.2,-0.1 2.1,0.7 2.7,1.9 0.6,1.6 1.1,3.2 1.8,4.8 2.5,6.4 4.2,13.1 6.3,19.7 1,3.2 2,6.3 3.1,9.4 1,2.8 2.2,5.5 3.4,8.3 0.1,0.2 0.3,0.5 0.4,0.5 1,-0.1 2.1,-0.1 2.9,-0.6 1.3,-0.8 2.5,-1.9 3.7,-2.9 0.1,-0.1 0.2,-0.3 0.3,-0.5 1.5,-3.4 3,-6.7 4.4,-10.1 2,-5 3.9,-10.1 5.6,-15.2 1.7,-5.3 3.9,-10.4 6.3,-15.4 0.4,-0.8 0.8,-1.6 1.4,-2.3 1,-1.2 2.5,-1.3 4,-1.3 0.3,0 0.7,-0.1 0.8,-0.3 C 50.4,2 50.5,1.2 50.5,0.3 48.8,0.2 47.3,0.3 45.8,0.2 Z M 31,6.1 C 30.9,6.1 30.8,6 30.7,6 30.9,5.5 30.9,4.9 31.2,4.6 32.6,3.5 34.1,2.5 35.7,1.4 35.9,2.2 35.6,2.8 34.9,3.3 33.8,4.1 32.7,4.9 31.6,5.7 31.4,5.9 31.2,6 31,6.1 Z M 1.2,4.2 C 2.7,3.2 4.1,2 5.6,0.9 5.9,1.8 5.7,2.4 4.9,2.9 3.5,3.8 2.1,4.8 0.7,5.9 0.5,5.1 0.5,4.7 1.2,4.2 Z M 20,47.7 C 19,45.4 18,43.1 17.2,40.7 15.9,36.9 14.7,33.1 13.6,29.3 12,24 10.5,18.7 8.4,13.5 7.7,11.6 7,9.6 6,7.8 5.6,6.9 4.7,6.2 3.5,6.2 2.9,6.2 2.3,6.2 1.6,6.2 2.1,5.9 2.4,5.6 2.8,5.3 3.6,4.7 4.5,4.2 5.3,3.6 6.5,2.6 8.5,3 9.2,4.4 c 0.7,1.4 1.2,3 1.7,4.5 0.8,2.5 1.6,5 2.4,7.4 2.5,7.3 5.1,14.6 7.6,21.8 0.8,2.2 1.7,4.3 2.5,6.5 0.3,0.8 0.6,1.7 0.9,2.5 0,0.2 -0.1,0.6 -0.3,0.7 -0.9,0.8 -1.9,1.5 -3,2.4 -0.4,-0.8 -0.7,-1.7 -1,-2.5 z m 1.5,3 c 1.2,-1 2.5,-2 3.7,-2.9 0.2,-0.1 0.5,0 1,0 -1.4,1.5 -2.6,2.8 -4.7,2.9 z M 40.8,5.1 c -2.1,5.9 -4.2,11.8 -6.4,17.6 -1.3,3.4 -2.8,6.8 -4.2,10.2 -0.7,1.5 -1.3,3.1 -1.9,4.7 -0.1,0 -0.2,0 -0.3,0 -0.5,-1.4 -1,-2.7 -1.5,-4 -0.1,-0.3 0,-0.6 0.1,-0.9 1.8,-4.6 3.7,-9.3 5.5,-14 0.9,-2.3 1.6,-4.7 2.4,-7.1 0.3,-1 0.7,-2 1,-3 0.3,-1.3 -0.2,-2 -1.5,-2 h -2.1 c 0.2,-0.1 0.3,-0.3 0.4,-0.4 1.2,-0.9 2.4,-1.9 3.7,-2.7 0.3,-0.2 0.8,-0.3 1.3,-0.3 0.7,0 1.4,0.1 2.1,0.2 0.4,0.1 0.8,0.2 1.2,0.5 0.3,0.2 0.4,0.7 0.2,1.2 z"
   id="path2" />
	<path
   fill="#ffffff"
   d="M 34.9,3.3 C 33.8,4.1 32.7,4.9 31.6,5.7 31.4,5.9 31.2,6 31,6.1 30.9,6.1 30.8,6 30.7,6 30.9,5.5 30.9,4.9 31.2,4.6 32.6,3.5 34.1,2.5 35.7,1.4 35.9,2.2 35.6,2.8 34.9,3.3 Z"
   id="path4" />
	<path
   fill="#ffffff"
   d="m 26.2,47.8 c -1.4,1.5 -2.6,2.8 -4.7,2.9 1.2,-1 2.5,-2 3.7,-2.9 0.2,-0.1 0.5,0 1,0 z"
   id="path6" />
	<path
   fill="#ffffff"
   d="M 4.9,2.9 C 3.5,3.8 2.1,4.8 0.7,5.9 0.5,5.1 0.5,4.7 1.2,4.2 2.7,3.2 4.1,2 5.6,0.9 5.9,1.8 5.7,2.4 4.9,2.9 Z"
   id="path8" />
	<path
   fill="#ffffff"
   d="m 24.2,47.2 c 0,0.2 -0.1,0.6 -0.3,0.7 -0.9,0.8 -1.9,1.5 -3,2.4 -0.3,-0.9 -0.6,-1.7 -1,-2.5 -1,-2.3 -2,-4.6 -2.8,-7 C 15.8,37 14.6,33.2 13.5,29.4 12,24 10.5,18.7 8.4,13.5 7.7,11.6 7,9.6 6,7.8 5.6,6.9 4.7,6.2 3.5,6.2 2.9,6.2 2.3,6.2 1.6,6.2 2.1,5.9 2.4,5.6 2.8,5.3 3.6,4.7 4.5,4.2 5.3,3.6 6.5,2.6 8.5,3 9.2,4.4 c 0.7,1.4 1.2,3 1.7,4.5 0.8,2.5 1.6,5 2.4,7.4 2.5,7.3 5.1,14.6 7.6,21.8 0.8,2.2 1.7,4.3 2.5,6.5 0.3,0.9 0.6,1.7 0.8,2.6 z"
   id="path10" />
	<path
   fill="#ffffff"
   d="m 40.8,5.1 c -2.1,5.9 -4.2,11.8 -6.4,17.6 -1.3,3.4 -2.8,6.8 -4.2,10.2 -0.7,1.5 -1.3,3.1 -1.9,4.7 -0.1,0 -0.2,0 -0.3,0 -0.5,-1.4 -1,-2.7 -1.5,-4 -0.1,-0.3 0,-0.6 0.1,-0.9 1.8,-4.6 3.7,-9.3 5.5,-14 0.9,-2.3 1.6,-4.7 2.4,-7.1 0.3,-1 0.7,-2 1,-3 0.3,-1.3 -0.2,-2 -1.5,-2 h -2.1 c 0.2,-0.1 0.3,-0.3 0.4,-0.4 1.2,-0.9 2.4,-1.9 3.7,-2.7 0.3,-0.2 0.8,-0.3 1.3,-0.3 0.7,0 1.4,0.1 2.1,0.2 0.4,0.1 0.8,0.2 1.2,0.5 0.3,0.2 0.4,0.7 0.2,1.2 z"
   id="path12" />
</g>
</svg>
