<?xml version="1.0" encoding="UTF-8" standalone="no"?>
<svg
   id="Layer_1"
   version="1.1"
   viewBox="0 0 186.93283 448.84247"
   sodipodi:docname="Violin.svg"
   width="186.93283"
   height="448.84247"
   xmlns:inkscape="http://www.inkscape.org/namespaces/inkscape"
   xmlns:sodipodi="http://sodipodi.sourceforge.net/DTD/sodipodi-0.dtd"
   xmlns="http://www.w3.org/2000/svg"
   xmlns:svg="http://www.w3.org/2000/svg">
  <sodipodi:namedview
     id="namedview93"
     pagecolor="#ffffff"
     bordercolor="#000000"
     borderopacity="0.25"
     inkscape:showpageshadow="2"
     inkscape:pageopacity="0.0"
     inkscape:pagecheckerboard="0"
     inkscape:deskcolor="#d1d1d1" />
  <!-- Generator: Adobe Illustrator 29.8.3, SVG Export Plug-In . SVG Version: 2.1.1 Build 3)  -->
  <defs
     id="defs4">
    <style
       id="style2">
      .st0 {
        fill: #9f4f2c;
      }

      .st1 {
        fill: #302724;
      }

      .st2 {
        fill: #2a2a2a;
      }

      .st3 {
        fill: #322925;
      }

      .st4 {
        fill: #a2512c;
      }

      .st5 {
        fill: #a0502c;
      }

      .st6 {
        fill: #312925;
      }

      .st7 {
        fill: #2f2623;
      }

      .st8 {
        fill: #8b4525;
      }

      .st9 {
        fill: #181311;
      }

      .st10 {
        fill: #312824;
      }

      .st11 {
        fill: #bf5f33;
      }

      .st12 {
        fill: #924827;
      }

      .st13 {
        fill: #020100;
      }

      .st14 {
        fill: #c66235;
      }

      .st15 {
        fill: #a3522d;
      }

      .st16 {
        fill: #040201;
      }

      .st17 {
        fill: #1e1916;
      }

      .st18 {
        fill: #62311b;
      }

      .st19 {
        fill: #c76235;
      }

      .st20 {
        fill: #080402;
      }
    </style>
  </defs>
  <path
     class="st3"
     d="m 89.216149,270.53303 -10.72,-1.56 c 2.86,-29.17 3.26,-58.54 5.01,-87.79 2.23,-37.28 6.05,-74.5 6.97,-111.840004 -0.62,-2.75 4.38,-3.92 5.74,-2.47 1.15,1.23 0.74,29.48 0.62,33.570004 -1,36.81 -2.73,72.99 -5.59,109.68 -1.55,19.86 -0.07,40.5 -2.04,60.41 v 0 z"
     id="path6" />
  <path
     class="st3"
     d="m 100.77615,66.063026 2.02,202.710004 -0.35,1.59 -10.230001,0.04 c 1.46,-18.15 0.52,-36.58 1.65,-54.71 1.34,-21.49 3.79,-41.61 4.34,-63.41 0.46,-18.29 1.09,-36.61 1.52,-54.920004 0.22,-9.53 -1.25,-20.87 -0.68,-29.87 0.1,-1.52 0.07,-2.05 1.730001,-1.42 v 0 z"
     id="path8" />
  <path
     class="st3"
     d="m 113.71615,269.06303 c -0.3,0.3 -8.09,2.04 -7.71,-0.6 l -1.92,-186.950004 z"
     id="path10" />
  <path
     class="st3"
     d="m 74.976149,268.20303 c -2.19,-0.11 -1.02,-0.76 -1.06,-2.01 -0.29,-9.66 1.28,-19.32 1.61,-28.95 1.48,-43.16 1.9,-86.55 4.66,-129.69 0.94,-14.760004 2.78,-29.540004 4.25,-44.260004 0.9,0.92 2.55,2.08 2.8,3.34 0.4,2.09 -0.27,8.99 -0.37,11.76 -1.24,34.240004 -4.83,68.470004 -6.92,102.660004 -1.77,29.03 -2.03,58.2 -4.97,87.15 z"
     id="path12" />
  <path
     class="st15"
     d="m 84.726149,14.013026 c 3.38,-3.85 13.63,-5.3400001 15.800001,-0.26 0.33,3.97 1.13,7.82 2.4,11.54 -0.03,0.33 0.76,0.83 0.12,2.38 -0.38,0.9 -2.98,5.21 -3.670001,5.73 -3.58,2.68 -16.01,2.19 -16.89,-2.01 -0.71,-3.35 0.67,-14.19 2.25,-17.37 v 0 z"
     id="path14" />
  <path
     class="st3"
     d="m 102.79615,59.803026 c -2.67,-0.28 -11.570001,2.5 -13.270001,0.81 -0.78,-0.78 -0.51,-17.32 -0.64,-19.96 l 11.810001,-1.51 c 0.9,0.98 2.92,19.92 2.1,20.67 v 0 z"
     id="path16" />
  <path
     class="st2"
     d="m 122.93615,17.203026 c 2.13,1.93 2.6,17.17 -0.12,18.26 -2.56,1.02 -3.54,-5.8 -5.64,-6.95 -2.85,-1.56 -5.32,-0.67 -8.22,-0.45 -0.14,-4.95 4.38,-1.97 6.32,-3.82 1.48,-1.41 2.09,-6.16 3.57,-7.14 0.76,-0.5 3.41,-0.52 4.1,0.1 z"
     id="path18" />
  <path
     class="st10"
     d="m 117.78615,267.83303 c -0.27,-21.07 -3.02,-42.04 -2.62,-63.16 l 2.7,19.16 c 0.59,10.28 1.61,20.58 1.95,30.87 0.08,2.45 0.81,9.55 0.43,11.24 -0.25,1.07 -1.41,1.77 -2.45,1.89 v 0 z"
     id="path20" />
  <path
     class="st2"
     d="m 75.056149,28.133026 c -0.66,0.9 0.1,3.55 -0.04,3.67 -0.25,0.21 -4.91,0.14 -6.46,0.81 -3.44,1.48 -3.95,7.99 -6.8,2.6 -1.75,-3.31 -1.38,-10.45 0.18,-13.79 3.23,-6.89 4.61,4.19 6.73,5.69 2.12,1.5 4.1,1.03 6.39,1.02 z"
     id="path22" />
  <path
     class="st2"
     d="m 77.796149,53.033026 c -0.57,5.21 -1.01,2.71 -4.37,3.07 -4.89,0.53 -3.34,6.43 -5.9,8.7 -3.91,3.48 -5.21,-9.35 -4.32,-12.24 2.31,-7.5 4.63,-0.51 7.56,0.48 2.76,0.93 4.38,0.11 7.02,-0.01 v 0 z"
     id="path24" />
  <path
     class="st14"
     d="m 84.726149,14.013026 c 3.7,-7.4400001 11.68,-6.3400001 18.670001,-4.7800001 -0.46,5.3600001 -0.02,10.6900001 -0.47,16.0600001 -4.440001,-2.69 -2.36,-8.71 -4.370001,-12.77 -4.85,-0.79 -9.31,-0.36 -13.82,1.5 h -0.01 z"
     id="path26" />
  <path
     class="st1"
     d="m 114.22615,171.33303 c -0.1,0.7 -0.18,0.95 -0.86,0.55 l -3.57,-65.57 2.19,18.88 c 0.71,15.39 2.3,30.74 2.23,46.14 z"
     id="path28" />
  <path
     class="st2"
     d="m 122.12615,45.013026 c 1.05,0.96 0.48,15.41 -0.37,15.99 -3.65,-0.02 -3.35,-5.77 -5.66,-6.99 -2.18,-1.15 -4.51,1 -4.05,-2.23 0.31,-2.12 3.1,-0.43 4.67,-1.85 1.74,-1.56 2.17,-7.87 5.4,-4.92 z"
     id="path30" />
  <path
     class="st7"
     d="m 108.99615,92.873026 -4.51,-26.52 c -0.21,-1.39 1.94,-0.74 2.88,-1.81 1.37,9.31 1.94,18.89 1.63,28.33 z"
     id="path32" />
  <path
     class="st17"
     d="m 83.386149,47.593026 c -1.07,-0.97 -1.16,-4.15 -1.22,-5.57 -0.05,-1.18 -0.19,-2.33 0.24,-3.48 1.87,2.27 1.57,6.42 0.99,9.05 z"
     id="path34" />
  <path
     class="st9"
     d="m 114.22615,171.33303 c 0,2.24 0.93,4.92 -0.11,7.34 l -0.74,-6.78 0.86,-0.55 v 0 z"
     id="path36" />
  <path
     d="m 64.386149,43.513026 c -0.9,-0.32 -1.91,-0.32 -2.94,-0.8 -10.56,-4.92 -7.85,-32.09 4.66,-29.43 5.4,1.14 4.93,7.65 6.55,8.85 3.19,2.36 2.41,-4.57 2.76,-6.03 3.33,-13.8700001 17.01,-19.1200001 29.820001,-14.4200001 9.54,3.5 2.63,11.1000001 5.75,18.7100001 l 4.73,-6.73 c 15.51,-9.7100001 18.27,21.98 8.17,27.17 5.56,1.64 4.25,17.5 2.69,21.54 -2.34,6.02 -10.59,5.12 -12.67,-0.84 -0.52,-0.23 -0.57,0.56 -0.56,0.96 0.28,8.38 2.93,19.24 3.76,27.88 2.15,22.580004 3.09,45.380004 4.46,68.030004 l 0.79,1.31 c 11.91,6.4 24.92,12.75 32.56,24.42 8.1,12.37 18.98,54.77 15.36,68.79 -1.42,5.49 -7.67,5.5 -12.11,7.53 -13.4,6.1 -17.81,8.91 -19.79,24.68 -2.47,19.57 7.66,25.92 23.79,33.12 3.52,1.57 15.15,5.13 16.68,7.11 0.69,0.89 5.03,16.74 5.56,19.13 4.77,21.5 3.63,55.39 -10.8,73.09 -3.15,3.86 -12.38,11.07 -16.68,14.06 -2.34,2.49 -5.3,4.5 -8.55,5.53 -0.59,0.63 -1.4,0.95 -2.41,0.95 -32.27,14.83 -74.940001,15.1 -105.300001,-4.41 -35.3400004,-22.71 -45.3700004,-47.95 -38.7600004,-89.51 0.8,-5.03 3.3,-19.07 5.15,-23.07 1.6,-3.47 14.6500004,-6.11 18.9100004,-8.26 22.33,-11.26 37.37,-42.97 11.58,-58.97 -4.25,-2.64 -17.09,-6.3 -18.97,-9.56 -1.13,-1.96 -0.75,-15.23 -0.55,-18.43 1.95,-31.86 17.65,-58.53 48.13,-70.38 2.03,-0.79 3.13,-1.17 5.38,-1.16 l 5.8,-92.130004 -2.74,-1.07 c -3.94,18.03 -18.63,8.21 -17.07,-6.24 0.73,-6.75 2.08,-7.75 6.88,-11.42 q 3.41,-0.55 0,0 z m 20.34,-29.5 c -1.58,3.18 -2.96,14.01 -2.25,17.37 0.89,4.21 13.31,4.7 16.89,2.01 0.690001,-0.52 3.300001,-4.82 3.670001,-5.73 0.65,-1.55 -0.15,-2.04 -0.12,-2.38 0.45,-5.37 0,-10.7 0.47,-16.0600001 -6.990001,-1.56 -14.970001,-2.66 -18.670001,4.7800001 v 0 z m 38.210001,3.19 c -0.69,-0.63 -3.34,-0.6 -4.1,-0.1 -1.48,0.97 -2.09,5.72 -3.57,7.14 -1.93,1.85 -6.46,-1.13 -6.32,3.82 2.9,-0.21 5.36,-1.11 8.22,0.45 2.1,1.15 3.08,7.96 5.64,6.95 2.72,-1.08 2.25,-16.33 0.12,-18.26 z m -47.880001,10.93 c -2.29,0 -4.36,0.41 -6.39,-1.02 -2.03,-1.43 -3.5,-12.57 -6.73,-5.69 -1.56,3.34 -1.93,10.48 -0.18,13.79 2.84,5.39 3.36,-1.12 6.8,-2.6 1.55,-0.67 6.21,-0.6 6.46,-0.81 0.14,-0.12 -0.62,-2.77 0.04,-3.67 z m 39.350001,4.86 c -0.49,-0.43 -4.14,0.12 -4.48,0.84 1.45,3.76 1.35,7.08 1.87,10.89 0.08,0.55 -0.53,2.21 0.9,1.81 1.51,-0.42 2.95,-6.1 5.54,-6.89 -2.52,-0.15 -3.19,-6.08 -3.84,-6.65 z m -11.61,26.81 c 0.81,-0.75 -1.2,-19.68 -2.1,-20.67 l -11.810001,1.51 c 0.13,2.64 -0.15,19.18 0.64,19.96 1.7,1.7 10.600001,-1.09 13.270001,-0.81 v 0 z m 19.33,-14.79 c -3.23,-2.96 -3.67,3.35 -5.4,4.92 -1.58,1.42 -4.37,-0.27 -4.67,1.85 -0.46,3.23 1.87,1.08 4.05,2.23 2.3,1.22 2.01,6.97 5.66,6.99 0.86,-0.58 1.42,-15.03 0.37,-15.99 z m -38.740001,2.58 c 0.58,-2.63 0.89,-6.77 -0.99,-9.05 -0.43,1.15 -0.29,2.3 -0.24,3.48 0.06,1.41 0.15,4.6 1.22,5.57 z m -5.59,5.44 c -2.64,0.13 -4.26,0.94 -7.02,0.01 -2.94,-0.98 -5.25,-7.98 -7.56,-0.48 -0.89,2.89 0.4,15.71 4.32,12.24 2.55,-2.27 1.01,-8.17 5.9,-8.7 3.36,-0.36 3.8,2.14 4.37,-3.07 v 0 z m 31.200001,39.84 c 0.31,-9.44 -0.26,-19.01 -1.63,-28.33 -0.94,1.07 -3.1,0.42 -2.88,1.81 z m -8.22,-26.81 c -1.660001,-0.63 -1.630001,-0.1 -1.730001,1.42 -0.57,9 0.9,20.35 0.68,29.87 -0.43,18.310004 -1.05,36.630004 -1.52,54.920004 -0.55,21.8 -3,41.93 -4.34,63.41 -1.13,18.14 -0.19,36.56 -1.65,54.71 l 10.230001,-0.04 0.35,-1.59 -2.02,-202.710004 v 0 z M 74.976149,268.20303 c 2.94,-28.94 3.19,-58.12 4.97,-87.15 2.09,-34.2 5.69,-68.42 6.92,-102.660004 0.1,-2.77 0.77,-9.67 0.37,-11.76 -0.24,-1.26 -1.9,-2.42 -2.8,-3.34 -1.47,14.71 -3.3,29.5 -4.25,44.260004 -2.76,43.14 -3.18,86.52 -4.66,129.69 -0.33,9.63 -1.91,19.29 -1.61,28.95 0.04,1.25 -1.14,1.9 1.06,2.01 z m 14.24,2.33 c 1.96,-19.91 0.49,-40.56 2.04,-60.41 2.86,-36.69 4.58,-72.87 5.59,-109.68 0.11,-4.090004 0.52,-32.340004 -0.62,-33.570004 -1.35,-1.45 -6.35,-0.29 -5.74,2.47 -0.93,37.340004 -4.74,74.560004 -6.97,111.840004 -1.75,29.24 -2.14,58.62 -5.01,87.79 l 10.72,1.56 v 0 z m 24.500001,-1.47 -9.63,-187.550004 1.92,186.950004 c -0.38,2.64 7.41,0.9 7.71,0.6 z m -0.35,-97.18 0.74,6.78 c 1.04,-2.42 0.1,-5.09 0.11,-7.34 0.07,-15.4 -1.52,-30.75 -2.23,-46.14 l -2.19,-18.88 3.57,65.57 v 0 z m 8.75,0.41 c -1.03,19.53 1.82,36.14 3.22,55.19 0.79,10.67 3.15,30.07 2.02,39.91 -0.99,8.59 -7.33,5.1 -8.86,7.72 -0.73,1.24 -0.69,9.1 -0.65,11.15 0.17,9.57 1.99,19.06 2.7,28.56 1.15,15.4 2.15,30.85 2.96,46.27 0.61,0.9 10.92,-0.04 13.92,3.43 2.18,2.52 0.93,15.8 -0.49,18.85 -2.86,6.17 -19.07,3.63 -20.2,5.52 -0.49,0.82 -2.4,6.58 -2.35,7.39 0.05,0.74 2.09,1.06 2.88,1.87 2.73,2.78 0.95,20.7 -2.12,23.74 -2.17,2.14 -17.450001,4.36 -20.650001,3.76 -4.75,-0.9 -5.5,-3.63 -7.15,-7.55 -1.76,-4.18 -4.36,-12.85 -2.63,-17.04 0.42,-1.02 1.87,-1.7 1.9,-2.47 0.02,-0.43 -4.09,-6.95 -4.56,-7.38 -3.38,-3.09 -12.34,1.25 -16.4,-4.56 -1.74,-2.5 -2.46,-15.89 -1,-18.51 1.54,-2.78 8.26,-1.26 8.42,-2.05 l 1.89,-91.22 c -3.49,-0.79 -7.11,-0.88 -7.71,-5.02 -1.39,-9.57 1.6,-27.09 1.95,-37.63 0.51,-15.26 0.14,-30.67 0.76,-45.95 0.35,-8.54 1.6,-17.23 1.25,-25.65 -0.93,0.36 -1.51,1.19 -2.22,1.73 -7.32,5.57 -15.48,7.89 -22.91,14.72 -18.12,16.65 -21.45,39.86 -21.03,63.36 1.39,0.95 3.23,1.22 4.66,1.84 17.23,7.41 31.13,18.59 28.34,39.58 -3.32,24.99 -21.67,34.72 -42.38,42.83 -0.68,0.26 -2.05,0 -2.39,0.72 -5.8800004,29.34 -12.4900004,65.02 12.98,86.99 1.32,1.14 2.65,2.06 3.77,3.02 1.21,1.43 1.95,3.28 4.32,3.88 2.68,2.22 5.88,5.89 8.91,7.33 1.22,0.58 2.08,0.72 3.4,0.47 24.31,17.6 54.700001,16.5 82.150001,8.48 7.59,-2.22 15.44,-4.61 21.87,-9.32 0.7,-2.16 -2.66,0.54 -0.84,-2.24 2.33,-3.57 9.1,-6.65 12.85,-12.48 10.37,-16.1 10.45,-45.44 7.93,-64.22 -0.57,-4.21 -2.69,-9.7 -2.91,-13.28 -0.07,-1.1 -0.13,-2.01 1.26,-1.42 3.21,5.92 3.84,12.95 4.47,19.54 1.73,17.95 1.56,41.04 -6.16,57.59 -0.51,1.09 -1.43,2.84 -2.09,3.8 -0.48,0.69 -2.2,1.02 -2.01,2.51 1.07,-0.02 1.85,-0.97 2.56,-1.66 13.01,-12.66 14.69,-43.2 12.25,-60.35 -1.1,-7.73 -3.85,-14.8 -5.47,-22.37 -0.26,-0.8 -1,-1.14 -1.71,-1.45 -13.34,-5.87 -31.76,-10.57 -38.23,-25.34 -4.19,-9.56 -3.12,-26.45 1.52,-35.65 4.78,-9.49 14.77,-13.75 23.97,-17.78 1.08,-0.47 3.74,0.05 4.12,-1.68 0.49,-17 -3.48,-37.72 -10.4,-53.35 -6.44,-14.52 -15.56,-20.42 -29.32,-27.73 -1.3,0.67 -0.35,2.72 -0.39,3.59 h 0.03 z m -4.33,95.54 c 1.03,-0.12 2.2,-0.82 2.45,-1.89 0.39,-1.69 -0.35,-8.79 -0.43,-11.24 -0.34,-10.29 -1.36,-20.59 -1.95,-30.87 l -2.7,-19.16 c -0.4,21.12 2.35,42.09 2.62,63.16 v 0 z m -3.24,8.14 -9.05,1.03 c 0,10.04 -0.66,20.19 -0.4,30.23 0.43,16.84 2.2,34.14 3.78,50.9 0.11,1.18 0.1,2.33 -0.23,3.48 2.2,-0.26 10.85,0.62 11.37,-1.56 l -5.99,-73.14 0.52,-10.95 v 0 z m -9.18,87.11 c 1.33,-0.98 -1.74,-18.48 -1.95,-21.42 -0.45,-6.54 -0.12,-13.16 -0.43,-19.72 -0.7,-14.92 -2.18,-29.87 -0.46,-44.86 H 92.216149 l 0.45,86.99 12.700001,-0.98 v 0 z m -16.110001,-85.92 -10.71,-1.56 c -2.41,30.19 -2.19,60.6 -2.22,90.85 2.62,-0.85 12.04,-0.07 13.22,-2.08 1.18,-2.01 0.73,-18.42 0.66,-22.06 -0.17,-10.18 -1.38,-20.35 -1.56,-30.51 -0.2,-11.5 0.78,-23.13 0.6,-34.64 v 0 z m 41.820001,93 c -0.33,-0.5 -6.07,-1.61 -7.28,-0.58 -1.94,1.66 -2.84,8.81 -4.55,11.25 l 10.4,-0.78 c 0.57,-0.43 1.76,-9.39 1.43,-9.89 z m -11.52,-1.05 c -0.4,-0.62 -9.49,0.11 -10.15,0.73 -0.52,0.49 -1.69,11.09 -1.28,11.52 1.14,-0.05 6.93,0.2 7.23,0.01 0.62,-0.39 3.89,-10.52 4.2,-12.26 z m -13.58,1.5 c -0.36,-0.57 -11.940001,1.08 -12.560001,1.71 -1.7,1.74 1.29,7.22 0.59,9.67 l 10.210001,-0.05 1.77,-11.34 h -0.01 z m -16.070001,2.49 c -0.43,-0.48 -12.48,0.5 -12.7,1.26 1.08,1.72 2.09,7.06 3.4,8.14 1.59,1.33 8.61,-0.16 10.94,0.46 z m -19.29,0.96 c -0.33,0.29 0.56,8.28 1.04,8.71 0.38,0.33 5.71,0.73 5.96,-0.21 0.11,-0.43 -2.97,-7.79 -3.4,-8.15 -0.71,-0.59 -3.37,-0.55 -3.6,-0.35 z m 42.440001,15.01 c -7.21,-0.92 -6.44,1.17 -6.74,7.39 5.42,1.53 4.71,-4.01 6.74,-7.39 z m -8.9,0.3 c -1.29,0 -7.340001,-0.06 -7.550001,0.95 1.29,0.89 2.23,5.86 2.85,6.16 5.480001,2.64 3.720001,-3.97 4.700001,-7.11 z m -7.600001,7.93 c 0.32,-0.2 -2.48,-6.55 -2.93,-6.92 -1.21,-0.99 -6.8,0.33 -8.68,-0.72 l 3.85,8.25 z m -6.04,7.55 c 0.49,2.13 2.93,12.55 4.25,13.34 1.82,1.08 14.390001,-0.69 15.330001,-2.25 1.76,-2.91 0.76,-9.07 1.33,-12.49 l -20.910001,1.41 v 0 z"
     id="path38" />
  <path
     class="st15"
     d="m 69.026149,162.34303 c 0.71,-0.54 1.29,-1.37 2.22,-1.73 0.35,8.42 -0.91,17.12 -1.25,25.65 -0.62,15.28 -0.25,30.68 -0.76,45.95 -0.35,10.54 -3.35,28.06 -1.95,37.63 0.6,4.14 4.22,4.24 7.71,5.02 l -1.89,91.22 c -0.15,0.78 -6.88,-0.73 -8.42,2.05 -1.45,2.62 -0.74,16.01 1,18.51 4.05,5.81 13.02,1.47 16.4,4.56 0.47,0.43 4.58,6.95 4.56,7.38 -0.04,0.77 -1.49,1.45 -1.9,2.47 -1.73,4.19 0.87,12.86 2.63,17.04 1.65,3.92 2.4,6.66 7.15,7.55 3.2,0.6 18.490001,-1.62 20.650001,-3.76 3.07,-3.03 4.85,-20.96 2.12,-23.74 -0.8,-0.81 -2.83,-1.13 -2.88,-1.87 -0.05,-0.8 1.86,-6.57 2.35,-7.39 1.13,-1.89 17.34,0.65 20.2,-5.52 1.41,-3.05 2.67,-16.32 0.49,-18.85 -3.01,-3.48 -13.31,-2.53 -13.92,-3.43 -0.82,-15.42 -1.81,-30.87 -2.96,-46.27 -0.71,-9.5 -2.53,-18.99 -2.7,-28.56 -0.04,-2.05 -0.07,-9.91 0.65,-11.15 1.53,-2.62 7.87,0.87 8.86,-7.72 1.13,-9.84 -1.23,-29.24 -2.02,-39.91 -1.41,-19.06 -4.25,-35.67 -3.22,-55.19 0.33,-0.57 0.57,-0.51 0.7,0.15 7.3,4.77 14.75,10.14 18.99,18.06 l -0.5,2.12 c 8.67,16.19 11.34,35.37 12.08,53.41 0.64,1.5 -0.67,3.11 -3.92,4.83 2.67,-1.1 4.9,-1.28 6.69,-0.55 1.41,-1.6 2.43,-0.83 1.96,1.16 -9.2,4.03 -19.19,8.29 -23.97,17.78 -4.64,9.21 -5.7,26.09 -1.52,35.65 0.05,9.03 6.37,14.43 12.86,19.69 6.88,5.58 13.6,9.1 21.51,12.7 6.77,24.06 5.86,51.61 -4.28,74.23 -3.75,5.83 -10.52,8.9 -12.85,12.48 -1.82,2.78 1.55,0.08 0.84,2.24 -6.42,4.7 -14.28,7.1 -21.87,9.32 -27.45,8.02 -57.830001,9.12 -82.150001,-8.48 -36.58,-19.6 -34.67,-62.41 -31.01,-97.84 l -0.04,-0.9 c -1.73,-0.75 -0.97,-2.57 0.05,-3.67 20.71,-8.11 39.06,-17.84 42.38,-42.83 2.79,-20.99 -11.11,-32.16 -28.34,-39.58 -1.39,-0.83 -1.52,-1.35 -0.4,-1.56 0.93,-1.08 2.66,-0.99 5.17,0.29 l -5.47,-2.39 c -2.82,-22.8 12.79,-58.38 33.79,-68.49 2.1,-0.2 3.76,-0.92 4.98,-2.14 -1.74,-1.45 0,-3.07 1.32,-4.24 l -0.11,-1.39 v 0 z"
     id="path40" />
  <path
     class="st15"
     d="m 89.256149,277.16303 c 0.18,11.51 -0.8,23.14 -0.6,34.64 0.17,10.16 1.38,20.34 1.56,30.51 0.06,3.64 0.49,20.09 -0.66,22.06 -1.15,1.97 -10.6,1.23 -13.22,2.08 0.03,-30.26 -0.19,-60.67 2.22,-90.85 l 10.71,1.56 v 0 z"
     id="path42" />
  <path
     class="st15"
     d="m 105.36615,363.08303 -12.700001,0.98 -0.45,-87 h 10.310001 c -1.72,15 -0.24,29.95 0.46,44.87 0.31,6.56 -0.02,13.18 0.43,19.72 0.2,2.95 3.28,20.44 1.95,21.42 v 0 z"
     id="path44" />
  <path
     class="st15"
     d="m 114.54615,275.97303 -0.52,10.95 5.99,73.14 c -0.52,2.18 -9.16,1.3 -11.37,1.56 0.32,-1.15 0.34,-2.3 0.23,-3.48 -1.58,-16.76 -3.35,-34.06 -3.78,-50.9 -0.26,-10.04 0.4,-20.19 0.4,-30.23 l 9.05,-1.03 v 0 z"
     id="path46" />
  <path
     class="st19"
     d="m 132.63615,304.90303 c 6.47,14.77 24.89,19.47 38.23,25.34 0.71,0.31 1.45,0.65 1.71,1.45 1.63,7.57 4.38,14.64 5.47,22.37 2.43,17.15 0.75,47.68 -12.25,60.35 -1.19,0.72 -1.47,0.25 -0.55,-0.86 0.66,-0.96 1.58,-2.71 2.09,-3.8 7.72,-16.54 7.88,-39.63 6.16,-57.59 -0.63,-6.59 -1.27,-13.62 -4.47,-19.54 -1.39,-0.59 -1.32,0.32 -1.26,1.42 0.22,3.57 2.34,9.07 2.91,13.28 2.52,18.78 2.44,48.12 -7.93,64.22 l 5.91,-20.49 c 2.62,-17.47 2.16,-34.45 -1.38,-51.69 -0.45,-1.15 -9.99,-4.97 -12.16,-6.24 -5.4,-3.14 -17.18,-12.02 -20.42,-17.11 -1.39,-2.19 -4.8,-9.09 -2.04,-11.11 z"
     id="path48" />
  <path
     class="st14"
     d="m 122.11615,172.29303 c 0.05,-0.87 -0.91,-2.91 0.39,-3.59 13.76,7.31 22.88,13.21 29.32,27.73 6.93,15.62 10.89,36.35 10.4,53.35 -0.37,1.73 -3.04,1.21 -4.12,1.68 l -1.96,-1.16 c -0.17,-12.44 -2,-27.96 -5.65,-40.77 -4.1,-14.38 -12.66,-31.09 -27.26,-36.19 l -0.42,-0.91 -0.7,-0.15 v 0 z"
     id="path50" />
  <path
     class="st19"
     d="m 15.646149,328.35303 c 0.1,6.22 -0.28,12.56 -1.12,19.02 -1.82,21.71 -0.86,44.8 12.65,62.89 l -0.02,1.57 c 0.74,1.11 0.31,1.19 -0.86,0.55 -25.4700004,-21.97 -18.8600004,-57.65 -12.98,-86.99 0.34,-0.72 1.71,-0.45 2.39,-0.72 1.13,1.79 0.14,2.63 -0.05,3.67 v 0 z"
     id="path52" />
  <path
     class="st14"
     d="m 69.026149,162.34303 c 3.4,0.34 -0.59,3.68 -1.21,5.63 -1.06,1.21 -2.72,1.92 -4.97,2.14 -20.38,8.28 -38.54,49.34 -33.5,70.6 l 0.4,1.56 c -1.43,-0.62 -3.27,-0.89 -4.66,-1.84 -0.42,-23.5 2.91,-46.71 21.03,-63.36 7.43,-6.83 15.59,-9.16 22.91,-14.72 v 0 z"
     id="path54" />
  <path
     class="st3"
     d="m 90.516149,404.85303 20.910001,-1.41 c -0.57,3.42 0.44,9.58 -1.33,12.49 -0.95,1.57 -13.510001,3.33 -15.330001,2.25 -1.33,-0.78 -3.76,-11.21 -4.25,-13.34 v 0 z"
     id="path56" />
  <path
     class="st20"
     d="m 15.646149,328.35303 c 2.07,-0.08 1.18,2.54 1.15,3.79 -0.66,24.11 -5.9,46.74 5.94,69.51 4.35,8.38 16.28,19.87 23.97,25.43 -1.33,0.24 -2.19,0.11 -3.4,-0.47 -3.03,-1.44 -6.23,-5.11 -8.91,-7.33 -1.66,-1.02 -3.1,-2.31 -4.32,-3.88 -1.48,-1.11 -2.45,-2.3 -2.91,-3.57 -17.2100004,-22.49 -16.46,-56.67 -11.5,-83.49 h -0.02 z"
     id="path58" />
  <path
     class="st3"
     d="m 105.97615,370.61303 -1.77,11.34 -10.210001,0.05 c 0.7,-2.45 -2.28,-7.92 -0.59,-9.67 0.62,-0.64 12.200001,-2.29 12.560001,-1.71 h 0.01 z"
     id="path60" />
  <path
     class="st3"
     d="m 89.906149,373.10303 1.64,9.86 c -2.32,-0.62 -9.35,0.87 -10.94,-0.46 -1.3,-1.09 -2.32,-6.42 -3.4,-8.14 0.22,-0.75 12.27,-1.73 12.7,-1.26 z"
     id="path62" />
  <path
     class="st3"
     d="m 119.55615,369.11303 c -0.31,1.74 -3.58,11.87 -4.2,12.26 -0.31,0.19 -6.09,-0.06 -7.23,-0.01 -0.4,-0.43 0.76,-11.03 1.28,-11.52 0.66,-0.62 9.75,-1.35 10.15,-0.73 z"
     id="path64" />
  <path
     class="st6"
     d="m 131.07615,370.16303 c 0.34,0.51 -0.86,9.46 -1.43,9.89 l -10.4,0.78 c 1.71,-2.44 2.6,-9.58 4.55,-11.25 1.21,-1.03 6.95,0.08 7.28,0.58 z"
     id="path66" />
  <path
     class="st4"
     d="m 96.556149,397.30303 -7.76,0.61 -3.85,-8.25 c 1.88,1.05 7.47,-0.27 8.68,0.72 0.45,0.37 3.25,6.72 2.93,6.92 z"
     id="path68" />
  <path
     class="st10"
     d="m 70.616149,374.06303 c 0.23,-0.19 2.89,-0.24 3.6,0.35 0.43,0.36 3.51,7.72 3.4,8.15 -0.25,0.94 -5.59,0.54 -5.96,0.21 -0.47,-0.42 -1.37,-8.42 -1.04,-8.71 z"
     id="path70" />
  <path
     class="st5"
     d="m 104.15615,389.37303 c -0.97,3.14 0.78,9.76 -4.700001,7.11 -0.63,-0.3 -1.56,-5.27 -2.85,-6.16 0.21,-1.01 6.260001,-0.95 7.550001,-0.95 z"
     id="path72" />
  <path
     class="st0"
     d="m 113.05615,389.07303 c -2.03,3.38 -1.32,8.92 -6.74,7.39 0.3,-6.21 -0.47,-8.31 6.74,-7.39 z"
     id="path74" />
  <path
     class="st18"
     d="m 34.386149,419.28303 c -2.37,-0.59 -3.11,-2.45 -4.32,-3.88 1.41,1.22 3.19,2.94 4.32,3.88 z"
     id="path76" />
  <path
     class="st12"
     d="m 30.066149,415.41303 c -1.12,-0.96 -2.45,-1.88 -3.77,-3.02 l 0.86,-0.55 c 0.87,1.14 1.98,2.47 2.91,3.57 z"
     id="path78" />
  <path
     class="st8"
     d="m 165.78615,414.40303 c -0.71,0.69 -1.48,1.64 -2.56,1.66 -0.19,-1.5 1.53,-1.82 2.01,-2.51 l 0.55,0.86 v 0 z"
     id="path80" />
  <path
     d="m 65.336149,329.28303 c -4.11,2.77 -9.14,-1.11 -11.77,7.56 -4.53,14.91 8.1,38.74 -5.39,52.66 -3.98,4.11 -17.8,6.3 -17.37,-0.98 0.41,-6.95 9.71,0.27 13.41,-7.03 8.01,-15.82 -7.63,-44.19 7.4,-56.09 2.87,-2.27 12.16,-4.84 14.8,-1.66 1.2,1.45 0.32,4.6 -1.08,5.54 z"
     id="path82" />
  <path
     d="m 163.99615,391.92303 c -0.96,7.47 -4.02,9.28 -10.94,6.16 -17.49,-7.9 -0.2,-45.34 -8.39,-60.03 -4.22,-7.56 -16.1,-2.36 -15.05,-9.12 0.56,-3.63 3.99,-3.48 7.09,-3.18 27.16,2.61 15.51,37.82 15.9,55.05 0.2,8.57 2.32,11.42 11.39,11.12 z"
     id="path84" />
  <path
     class="st13"
     d="m 156.15615,250.31303 c -1.04,0.77 -4.88,1.7 -6.32,1.94 -0.76,0.13 -2.09,1.22 -2.53,-0.16 -0.64,-2.01 4.89,-4.61 6.09,-6.06 -0.64,-17.84 -3.45,-37.26 -12.08,-53.41 -4.22,-8.33 -9.46,-12.06 -16.74,-17.37 -1.11,-0.81 -2.25,-0.97 -1.75,-2.81 5.38,-0.89 12.9,6.96 16.29,10.99 14.68,17.47 16.27,42.36 18.95,64.09 -0.09,0.74 -1.32,2.34 -1.9,2.78 v 0 z"
     id="path86" />
  <path
     class="st16"
     d="m 67.816149,167.97303 c -0.08,0.25 0.83,1.51 -0.04,2.23 -0.49,0.41 -3.57,0.65 -5.18,1.42 -15.05,7.15 -26.8,30.98 -30.62,46.43 -1.65,6.7 -2.74,12.9 -1.94,19.79 3.46,0.64 6.52,2.49 9.24,4.64 -0.36,1.7 -8.48,-0.91 -9.94,-1.77 -0.91,-0.53 -1.73,-0.95 -1.99,-2.09 -0.56,-2.46 -0.38,-9.99 -0.01,-12.68 2.19,-16.16 11.22,-36 22.52,-47.77 4.46,-4.64 11.21,-10.61 17.96,-10.2 z"
     id="path88" />
  <path
     class="st11"
     d="m 153.39615,246.03303 c -1.87,-6.35 -1.55,-13.29 -2.54,-19.88 -1.59,-10.5 -4.83,-24.23 -9.54,-33.54 4.72,6.11 6.87,14.51 8.66,21.98 1.45,6.06 3.01,13.89 3.69,20.04 0.25,2.33 0.91,8.01 0.64,9.99 -0.17,1.28 -0.55,0.96 -0.91,1.39 z"
     id="path90" />
</svg>
