<?xml version="1.0" encoding="UTF-8" standalone="no"?>
<svg
   version="1.1"
   width="96.385544"
   height="80"
   id="svg5"
   sodipodi:docname="w-block.svg"
   xmlns:inkscape="http://www.inkscape.org/namespaces/inkscape"
   xmlns:sodipodi="http://sodipodi.sourceforge.net/DTD/sodipodi-0.dtd"
   xmlns="http://www.w3.org/2000/svg"
   xmlns:svg="http://www.w3.org/2000/svg">
  <defs
     id="defs9" />
  <sodipodi:namedview
     id="namedview7"
     pagecolor="#ffffff"
     bordercolor="#000000"
     borderopacity="0.25"
     inkscape:showpageshadow="2"
     inkscape:pageopacity="0.0"
     inkscape:pagecheckerboard="0"
     inkscape:deskcolor="#d1d1d1" />
  <!-- Exported by Scratch - http://scratch.mit.edu/ -->
  <g
     id="ID0.9138977387920022"
     transform="translate(-0.59699402,-0.00482767)">
    <path
       id="ID0.025131658650934696"
       fill="#ff9400"
       d="m 354,364 c -0.654,7.261 -6.335,11.825 -9,17 -5.858,11.377 -5.513,29.96 -11,43 -4,0 -8,0 -12,0 -1.741,-13.592 -6.632,-24.034 -13,-33 -7.8,7.533 -8.203,22.464 -12,34 -2.163,0.82 -7.273,-0.553 -11,1 -8.117,-19.883 -15.752,-40.248 -24,-60 3.252,-2.748 8.131,-3.869 14,-4 4.89,13.11 8.072,27.928 17,37 4.119,-10.214 10.885,-17.782 16,-27 8.817,4.516 9.945,16.722 18,22 4.916,-3.625 2.461,-9.933 4,-15 0.604,-1.988 3.169,-3.08 4,-5 1.886,-4.357 1.459,-10.848 4,-15 7.671,-1.004 11.392,1.941 15,5 z"
       transform="matrix(0.96385545,0,0,0.96385545,-246.15,-341.2)" />
    <path
       id="ID0.4344252715818584"
       d="m 294,437 c -6,0 -12,0 -18,0 -7.567,-16.434 -12.675,-35.325 -20,-52 0,-4.667 0,-9.333 0,-14 6.603,-1.005 0.122,-5.831 1,-10 9.347,1.014 13.862,-2.804 21,-4 3.002,10.331 7.104,19.562 11,29 4.613,-6.053 7.005,-14.329 12,-20 3.417,-0.75 1.271,4.063 5,3 1.566,-1.434 0.787,-5.212 4,-5 5.68,2.654 5.369,11.298 11,14 2.63,-6.037 4.665,-12.668 7,-19 2.465,-0.132 4.818,-0.151 6,1 -0.045,-3.044 2.111,-3.889 3,-6 1,0 2,0 3,0 0,0.333 0,0.667 0,1 6.097,0.57 10.74,2.593 16,4 0,3.333 0,6.667 0,10 -0.333,0 -0.667,0 -1,0 -2.126,9.274 -8.218,18.17 -11,28 -0.599,2.117 0.416,4.956 0,7 -1.484,7.299 -7.304,14.281 -5,22 -8.704,-1.371 -4.947,9.72 -11,11 -1,0 -2,0 -3,0 0,-0.333 0,-0.667 0,-1 -3.676,-2.004 -6.724,-0.091 -11,0 -3.716,-10.838 -1.658,-21.552 -8,-29 -1.605,7.395 -3.974,14.025 -6,21 -7.325,-1.484 -4.969,6.797 -6,9 z m 45,-78 c -2.541,4.152 -2.114,10.643 -4,15 -0.831,1.92 -3.396,3.012 -4,5 -1.539,5.067 0.916,11.375 -4,15 -8.055,-5.278 -9.183,-17.484 -18,-22 -5.115,9.218 -11.881,16.786 -16,27 -8.928,-9.072 -12.11,-23.89 -17,-37 -5.869,0.131 -10.748,1.252 -14,4 8.248,19.752 15.883,40.117 24,60 3.727,-1.553 8.837,-0.18 11,-1 3.797,-11.536 4.2,-26.467 12,-34 6.368,8.966 11.259,19.408 13,33 4,0 8,0 12,0 5.487,-13.04 5.142,-31.623 11,-43 2.665,-5.175 8.346,-9.739 9,-17 -3.608,-3.059 -7.329,-6.004 -15,-5 z"
       transform="matrix(0.96385545,0,0,0.96385545,-246.15,-341.2)" />
  </g>
</svg>
