<?xml version="1.0" encoding="UTF-8" standalone="no"?>
<!-- Generator: Adobe Illustrator 18.0.0, SVG Export Plug-In . SVG Version: 6.00 Build 0)  -->

<svg
   version="1.1"
   id="Layer_2"
   x="0px"
   y="0px"
   viewBox="0 0 69.7 48.700001"
   enable-background="new 0 0 69.7 48.5"
   xml:space="preserve"
   sodipodi:docname="W-story-3.svg"
   width="69.699997"
   height="48.700001"
   xmlns:inkscape="http://www.inkscape.org/namespaces/inkscape"
   xmlns:sodipodi="http://sodipodi.sourceforge.net/DTD/sodipodi-0.dtd"
   xmlns="http://www.w3.org/2000/svg"
   xmlns:svg="http://www.w3.org/2000/svg"><defs
   id="defs9" /><sodipodi:namedview
   id="namedview7"
   pagecolor="#ffffff"
   bordercolor="#000000"
   borderopacity="0.25"
   inkscape:showpageshadow="2"
   inkscape:pageopacity="0.0"
   inkscape:pagecheckerboard="0"
   inkscape:deskcolor="#d1d1d1" />
<g
   id="g4">
	<path
   fill="#41a2f2"
   d="m 68.2,3.5 c -2.5,0.2 -4.4,1.2 -5.3,3.8 -1,2.8 -2,5.7 -3.1,8.4 -1.2,3 -2.6,6 -3.8,9 -1.1,2.7 -2,5.5 -3,8.3 -0.7,2.1 -1.4,4.2 -2.3,6.3 -0.9,2.2 -1.9,4.4 -2.9,6.6 -0.2,0.5 -0.4,1.1 -0.5,1.7 -0.1,0.5 -0.4,0.8 -0.9,0.8 -0.8,0 -1.6,-0.1 -2.4,-0.2 -0.2,0 -0.5,-0.3 -0.6,-0.6 -1.4,-3.6 -2.7,-7.1 -4,-10.7 -0.9,-2.5 -1.8,-5 -2.6,-7.5 -1.1,-3.2 -2.2,-6.5 -3.3,-9.7 0,-0.1 -0.1,-0.1 -0.3,-0.3 -0.7,1.9 -1.5,3.7 -2,5.6 -0.7,2.5 -1.7,4.9 -2.7,7.2 -1.3,3 -2.4,6.1 -3.6,9.1 -0.9,2.3 -1.7,4.6 -2.6,6.9 -0.1,0.1 -0.2,0.3 -0.4,0.3 -1,0.1 -1.9,0.2 -2.9,0.2 -0.3,0 -0.8,-0.4 -0.9,-0.7 -0.6,-1.8 -1,-3.7 -1.6,-5.5 C 14.7,37.7 13.4,32.7 11.9,27.7 10.5,22.9 8.6,18.3 6.9,13.7 6.7,13.1 6.3,12.5 6,11.9 5.2,10.3 4.8,8.6 4.4,7 4.1,5.7 3.4,4.6 2.2,4 1.8,3.7 1.2,3.8 0.6,3.8 0.2,3.8 0,3.6 0,3.2 0,2.3 0,1.4 0,0.3 1.4,0.2 2.8,0 4.2,0 7,0 9.8,0.2 12.6,0.3 c 0.6,0 1.2,0 1.7,0 0.5,0 0.7,0.1 0.6,0.6 -0.1,0.6 -0.2,1.2 -0.2,1.9 0,0.5 -0.2,0.7 -0.8,0.7 -0.7,0 -1.5,0.2 -2.2,0.4 -1,0.2 -1.1,0.5 -0.8,1.5 0.8,2.4 1.5,4.8 2.3,7.2 0.7,2.1 1.6,4.2 2.3,6.4 2.1,5.9 4.1,11.8 6.2,17.8 0.1,0.3 0.3,0.6 0.5,1.1 0.3,-0.7 0.4,-1.3 0.6,-1.8 1.2,-2.9 2.4,-5.9 3.5,-8.8 1.3,-3.1 2.6,-6.3 3.9,-9.4 0.5,-1.2 0.9,-2.4 1.4,-3.6 0.1,-0.2 0.1,-0.5 0,-0.7 C 30.8,11.3 30.1,8.9 29.1,6.6 28.7,5.6 27.8,4.8 27.1,4 26.9,3.8 26.5,3.7 26.2,3.6 25.8,3.5 25.1,3.6 25,3.3 25,2.7 25,2 25,1.4 c 0,-0.2 0.4,-0.6 0.6,-0.6 2.8,-0.2 5.5,-0.4 8.3,-0.2 2.4,0.2 4.8,0 7.2,0.1 0.2,0 0.5,0.2 0.5,0.4 0.1,0.6 0.1,1.3 0.1,1.9 0,0.9 -0.1,0.9 -1,0.8 -1,-0.1 -1.9,-0.1 -2.9,0 -1.4,0.2 -1.8,1 -1.3,2.4 0.4,1 0.6,2.1 1,3.1 0.8,2.2 1.5,4.4 2.3,6.5 1.4,4.1 2.9,8.2 4.3,12.3 1,3.1 2,6.2 3,9.3 0.1,0.2 0.1,0.3 0.3,0.6 0.5,-1.1 1,-2 1.4,-3 1.8,-4.8 3.6,-9.7 5.5,-14.6 1.1,-3 2.3,-6 3.5,-9.1 0.7,-1.7 1.4,-3.4 2.1,-5.1 0,0 0,-0.1 0,-0.2 0.6,-1.8 0.2,-2.4 -1.7,-2.5 -0.8,0 -1.5,0 -2.3,0 C 55.3,3.5 55,3.2 55,2.6 55,2.2 55,1.8 55,1.3 54.9,0.4 55,0.4 55.9,0.4 c 1.5,0.1 3,0.1 4.5,0.1 2.8,0 5.7,0 8.5,0 0.5,0 0.8,0.2 0.8,0.7 0,0.1 0,0.3 0,0.4 0,1.8 0,1.7 -1.5,1.9 z"
   id="path2" />
</g>
</svg>
