<?xml version="1.0" encoding="UTF-8" standalone="no"?>
<!-- Generator: Adobe Illustrator 18.0.0, SVG Export Plug-In . SVG Version: 6.00 Build 0)  -->

<svg
   version="1.1"
   id="Layer_2"
   x="0px"
   y="0px"
   viewBox="0 0 74.4 51.460446"
   enable-background="new 0 0 74.4 51.3"
   xml:space="preserve"
   sodipodi:docname="W-story-2.svg"
   width="74.400002"
   height="51.460445"
   xmlns:inkscape="http://www.inkscape.org/namespaces/inkscape"
   xmlns:sodipodi="http://sodipodi.sourceforge.net/DTD/sodipodi-0.dtd"
   xmlns="http://www.w3.org/2000/svg"
   xmlns:svg="http://www.w3.org/2000/svg"><defs
   id="defs23" /><sodipodi:namedview
   id="namedview21"
   pagecolor="#ffffff"
   bordercolor="#000000"
   borderopacity="0.25"
   inkscape:showpageshadow="2"
   inkscape:pageopacity="0.0"
   inkscape:pagecheckerboard="0"
   inkscape:deskcolor="#d1d1d1" />
<g
   id="g18"
   transform="translate(0,-0.05555556)">
	<path
   fill="#f7941e"
   d="m 74.4,1.8 c 0,-0.2 0,-0.4 0,-0.5 C 74.2,1.1 74,0.7 73.8,0.7 c -1.4,0 -2.8,0 -4.2,0 -2.6,0 -5.2,0.1 -7.8,0.1 -1.1,0 -2.2,-0.4 -3,0.7 C 58.7,1.6 58.6,1.6 58.5,1.7 57.1,2.4 55.8,3.2 54.4,3.9 54.2,4 54,4.2 54,4.3 c -0.1,0.8 -0.1,1.5 -0.1,2.3 0,0.1 0.3,0.3 0.4,0.3 1,0 2,0 3.1,0 0.8,0 1.3,0.3 1.4,1.1 0.1,0.5 0.1,1.1 -0.1,1.6 -0.3,1.2 -0.7,2.5 -1.2,3.7 -2.1,5.5 -4.2,11 -6.2,16.5 -0.3,0.8 -0.6,1.6 -1,2.5 C 49.8,30.8 49.4,29.5 48.9,28.1 47.5,24 46.1,19.9 44.6,15.8 43.9,13.7 43.1,11.5 42.4,9.4 42,8.4 41.8,7.3 41.4,6.2 40.9,4.7 41.2,3.9 42.8,3.7 c 0.9,-0.1 1.9,0 2.9,0 0.6,0 0.9,0 0.9,-0.7 -0.1,-0.6 0,-1.3 -0.1,-2 0,-0.2 -0.3,-0.4 -0.5,-0.4 -2.4,0 -4.8,0 -7.2,-0.1 C 35.2,0.4 31.5,0 28,1.5 26.9,2 25.8,2.5 24.7,3.1 24.2,3.4 24,3.7 24,3.9 c 0,0.6 0,1.3 0.1,1.9 0,0.2 0.3,0.5 0.5,0.5 1.1,0.1 2.2,0 3.3,0.1 1.1,0.1 1.9,0.5 2.4,1.5 0.3,0.7 0.7,1.5 1,2.2 0.6,1.5 1.2,3.1 1.7,4.7 0.1,0.3 0,0.6 -0.1,0.9 -0.9,1.9 -1.8,3.8 -2.6,5.7 -0.6,1.2 -1.1,2.5 -1.6,3.7 -0.8,1.7 -1.6,3.4 -2.4,5.2 -0.4,0.9 -0.7,1.8 -1,2.7 C 25.2,32.8 25.1,32.7 25.1,32.6 23.6,28.1 22,23.6 20.5,19.2 19.7,17 18.8,14.8 18.1,12.5 17.3,10.1 16.6,7.8 15.8,5.4 15.5,4.5 15.6,4.3 16.4,4 17,3.8 17.6,3.7 18.3,3.6 c 1.2,-0.1 1.3,-0.1 1.4,-1.4 0,-0.1 0,-0.3 0,-0.4 0,-1.4 0,-1.3 -1.4,-1.4 C 16,0.3 13.7,0.1 11.4,0.1 9,0 6.8,0.1 4.7,0.1 4.6,0.1 4.4,0.2 4.3,0.3 3.2,1.6 2.1,2.8 1,4.1 0.7,4.4 0.4,4.6 0,4.9 0,5.6 0,6.3 0,7 c 0,0.2 0.3,0.4 0.5,0.5 1,0.1 2,0.1 3.1,0.1 1,0 1.6,0.4 2,1.3 0.3,0.8 0.7,1.6 1.1,2.4 0.4,1 1,2 1.3,3 1.8,5.7 3.4,11.5 5.2,17.2 0.9,3.1 1.9,6.1 2.9,9.2 0.5,1.6 1,3.1 1.5,4.7 0.5,1.4 1.2,2.7 1.6,4.1 0.5,1.6 0.5,1.5 2.1,1.8 1.6,0.2 3,-0.1 4.1,-1.2 0.6,-0.6 1.5,-1.1 1.8,-1.8 1,-2.3 1.8,-4.6 2.7,-6.9 1.2,-3.1 2.3,-6.2 3.6,-9.2 1,-2.3 2.1,-4.7 2.6,-7.2 0.1,-0.2 0.2,-0.4 0.3,-0.7 0.7,2.9 1.4,5.6 2.1,8.3 0.5,1.8 1.2,3.6 1.7,5.4 0.4,1.3 0.6,2.7 1.1,3.9 1.2,3 2.6,5.9 3.9,8.9 0.1,0.2 0.3,0.4 0.5,0.5 0.6,0.1 1.2,0.2 1.7,0.2 0.5,0 1.1,0.1 1.4,-0.2 1.5,-1.3 3.2,-2.4 3.6,-4.6 0,-0.2 0.1,-0.3 0.2,-0.5 1,-2.2 2,-4.4 2.9,-6.7 0.8,-2 1.5,-4.2 2.2,-6.2 1,-2.8 1.9,-5.6 3,-8.4 1.2,-3 2.5,-5.8 3.7,-8.8 1.1,-2.8 2.2,-5.7 3.2,-8.6 C 68.5,5 70.4,4 72.8,3.8 74.4,3.4 74.4,3.4 74.4,1.8 Z M 72.5,3 c -2.1,0 -4.7,1 -5.8,4.5 -0.6,2 -1.4,3.9 -2.2,5.8 -0.8,2.2 -1.6,4.4 -2.5,6.6 -1,2.4 -2.2,4.8 -3.1,7.2 -1,2.8 -1.8,5.6 -2.8,8.4 -0.9,2.4 -2,4.8 -2.9,7.2 -0.6,1.4 -1.1,2.8 -1.7,4.3 -0.2,0.4 -0.4,0.6 -0.8,0.6 -1.6,0 -1.7,0 -2.2,-1.5 -1.2,-3.3 -2.4,-6.6 -3.6,-9.9 -0.8,-2.3 -1.6,-4.6 -2.4,-6.8 -1.2,-3.5 -2.5,-7.1 -3.7,-10.7 -0.2,-0.5 -0.1,-1 -0.2,-1.7 -0.5,0.9 -0.9,1.6 -1.2,2.4 -0.8,2.1 -1.5,4.3 -2.3,6.4 -0.7,1.9 -1.5,3.7 -2.2,5.6 -1.7,4.3 -3.4,8.6 -5,13 -0.4,1.1 -0.8,2.1 -1.3,3.2 0,0 0,0.1 -0.1,0.1 -0.7,0.1 -1.5,0.2 -2.2,0.2 -0.2,0 -0.6,-0.3 -0.7,-0.5 -1.7,-5 -3.4,-10 -4.9,-15.1 C 17.3,27.2 15.8,22.1 13.8,17.1 12.9,14.8 11.7,12.5 10.7,10.2 10.1,8.8 9.8,7.3 9.3,5.9 8.5,3.9 7.7,3.3 5.4,3.4 V 0.6 c 4.5,0.1 9,0.3 13.5,0.4 0,0.3 0,0.6 0,0.8 0,0.6 -0.1,1 -0.9,1 -0.6,0 -1.1,0.2 -1.7,0.3 -1.4,0.4 -1.8,1.1 -1.3,2.5 1.6,4.7 3.2,9.5 4.8,14.2 2,5.8 4,11.5 6,17.2 0.2,0.7 0.4,1.5 0.6,2.2 0,0.2 0.3,0.4 0.3,0.3 0.2,0 0.4,-0.2 0.4,-0.4 0.4,-1.1 0.8,-2.2 1.2,-3.3 1.1,-2.8 2.2,-5.6 3.4,-8.4 1.3,-3.3 2.7,-6.5 4,-9.8 0.5,-1.2 0.9,-2.5 1.3,-3.8 0.1,-0.2 0.1,-0.4 0,-0.5 C 36.1,10.6 35.1,8 34.1,5.4 33.8,4.6 33.2,4 32.6,3.4 32.3,3.1 31.8,2.9 31.4,2.8 30.2,2.6 30.1,2.4 30.3,1.2 c 5,-0.8 10.1,0.3 15.2,0 0,0.6 0.1,1.2 0.1,1.6 -1.4,0.1 -2.7,0.2 -4,0.4 -1.2,0.3 -1.7,1.2 -1.3,2.4 0.5,1.6 0.9,3.2 1.5,4.8 2.2,6.2 4.3,12.4 6.5,18.6 1.1,3.1 2.1,6.2 3.1,9.4 0.1,0.3 0.4,0.6 0.7,0.9 0.2,-0.3 0.5,-0.5 0.6,-0.8 1.5,-3.6 2.9,-7.2 4.3,-10.8 2.2,-5.8 4.3,-11.5 6.5,-17.3 0.4,-1 0.9,-2 1.3,-3.1 C 65.1,6.5 65.3,5.7 65.4,4.9 65.6,4.2 65.2,3.7 64.6,3.6 63.8,3.4 62.9,3.2 62,3 61.9,3 61.7,3 61.6,3 60,3 59.8,2.7 60.4,1.2 h 13.2 c 0,0.2 0,0.3 0,0.5 0.1,1.2 0.1,1.3 -1.1,1.3 z"
   id="path2" />
	<path
   fill="#ffffff"
   d="m 73.7,1.7 c 0,-0.1 0,-0.2 0,-0.5 H 60.4 C 59.8,2.8 60,3 61.6,3 c 0.1,0 0.3,0 0.4,0 0.9,0.2 1.8,0.4 2.7,0.6 0.6,0.2 1,0.7 0.8,1.3 -0.2,0.8 -0.4,1.6 -0.6,2.4 -0.4,1 -0.9,2 -1.3,3.1 -2.2,5.8 -4.3,11.5 -6.5,17.3 -1.4,3.6 -2.8,7.2 -4.3,10.8 -0.1,0.3 -0.4,0.6 -0.6,0.8 C 52,39 51.7,38.8 51.5,38.4 50.4,35.3 49.5,32.2 48.4,29 46.3,22.8 44.1,16.6 41.9,10.4 41.4,8.8 40.9,7.2 40.4,5.6 40.1,4.4 40.5,3.5 41.7,3.2 c 1.3,-0.3 2.6,-0.3 4,-0.4 0,-0.4 -0.1,-1 -0.1,-1.6 -5.2,0.4 -10.2,-0.8 -15.2,0 -0.2,1.2 -0.1,1.4 1.1,1.6 0.4,0.1 0.9,0.3 1.2,0.6 0.6,0.6 1.2,1.2 1.5,2 1,2.6 2,5.3 2.9,7.9 0.1,0.2 0.1,0.4 0,0.5 -0.4,1.3 -0.8,2.6 -1.3,3.8 -1.3,3.3 -2.7,6.5 -4,9.8 -1.1,2.8 -2.3,5.6 -3.4,8.4 -0.4,1.1 -0.8,2.2 -1.2,3.3 -0.1,0.1 -0.3,0.3 -0.4,0.4 -0.1,0 -0.3,-0.2 -0.3,-0.3 -0.2,-0.7 -0.4,-1.5 -0.6,-2.2 -2,-5.7 -4,-11.5 -6,-17.2 C 18.3,15.1 16.7,10.3 15.1,5.6 14.6,4.2 15,3.5 16.4,3.1 17,3 17.5,2.8 18.1,2.8 18.8,2.8 19,2.5 19,1.8 19,1.6 19,1.3 19,1 14.5,0.9 10,0.7 5.5,0.6 v 2.6 c 2.3,0 3.2,0.5 3.9,2.5 0.5,1.4 0.8,2.9 1.4,4.3 1,2.3 2.1,4.6 3.1,6.9 2,4.9 3.5,10 4.9,15.2 1.4,5.1 3.2,10.1 4.9,15.1 0.1,0.2 0.4,0.5 0.7,0.5 0.7,0 1.4,-0.1 2.2,-0.2 0,0 0,-0.1 0.1,-0.1 0.4,-1 0.9,-2.1 1.3,-3.2 1.7,-4.3 3.3,-8.6 5,-13 0.7,-1.9 1.5,-3.7 2.2,-5.6 0.8,-2.1 1.5,-4.2 2.3,-6.4 0.3,-0.8 0.7,-1.5 1.2,-2.4 0.1,0.7 0.1,1.2 0.2,1.7 1.2,3.6 2.4,7.1 3.7,10.7 0.8,2.3 1.6,4.6 2.4,6.8 1.2,3.3 2.3,6.6 3.6,9.9 0.6,1.5 0.7,1.5 2.2,1.5 0.5,0 0.7,-0.2 0.8,-0.6 0.5,-1.4 1.1,-2.9 1.7,-4.3 1,-2.4 2,-4.8 2.9,-7.2 1,-2.8 1.8,-5.6 2.8,-8.4 0.9,-2.5 2.1,-4.8 3.1,-7.2 0.9,-2.2 1.7,-4.4 2.5,-6.6 0.7,-1.9 1.5,-3.9 2.2,-5.8 C 67.8,4 70.3,3 72.5,3 73.7,3 73.7,2.9 73.7,1.7 Z m -56.4,20 c -1.3,-4.8 -3.5,-9.3 -4,-14.4 0.1,0.2 0.3,0.5 0.4,0.7 0.3,0.9 0.5,1.7 0.8,2.6 1.1,3.4 2.2,6.8 3.3,10.1 0.1,0.5 0.4,0.9 -0.5,1 z m 1.5,3.7 c -0.3,0 -0.5,-0.4 -0.8,-0.6 0.2,-0.7 0.3,-1.1 1,-1.1 0.5,0 0.8,0.2 0.8,0.8 -0.1,0.6 -0.4,1 -1,0.9 z m 5.6,17.2 c -0.6,-1.7 -1.2,-3.3 -1.7,-5 -0.5,-1.7 -1.1,-3.4 -1.6,-5.1 -0.4,-1.4 -0.8,-2.9 -1.1,-4.3 -0.1,-0.2 0.1,-0.5 0.2,-0.7 0.2,0.2 0.4,0.4 0.5,0.6 0.5,1.6 0.9,3.2 1.3,4.8 0.8,2.8 1.7,5.7 2.5,8.5 0.1,0.4 0.1,0.8 0.1,1.2 -0.1,0 -0.1,0 -0.2,0 z M 41.7,20.1 C 40.8,17.3 39.8,14.6 39,11.8 38.5,10.1 38,8.4 37.6,6.7 c -0.1,-0.3 0,-0.6 0,-0.9 0.1,0 0.2,0 0.2,0 1.6,4.9 3.2,9.9 4.9,14.8 -0.8,0.4 -0.9,-0.1 -1,-0.5 z m 1.4,3.4 c 0.1,-0.1 0.3,-0.5 0.6,-0.6 0.4,-0.1 1.2,0.7 1,1.1 -0.1,0.3 -0.5,0.6 -0.8,0.6 -0.5,0.1 -0.8,-0.3 -0.8,-1.1 z m 6.5,17.9 C 49.3,40.8 48.8,40.2 48.6,39.5 48,37.9 47.3,36.4 46.8,34.8 46,32.5 45.3,30.3 44.6,28 c -0.1,-0.2 0.1,-0.5 0.1,-0.8 0.2,0.2 0.4,0.4 0.5,0.6 1.3,3.6 2.6,7.3 3.8,10.9 0.3,0.9 0.6,1.7 0.9,2.6 -0.1,0.1 -0.2,0.1 -0.3,0.1 z"
   id="path4" />
	<path
   fill="#f7941e"
   d="m 24.6,42.6 c -0.1,0 -0.2,0 -0.3,0.1 -0.6,-1.7 -1.2,-3.3 -1.7,-5 -0.5,-1.7 -1.1,-3.4 -1.6,-5.1 -0.4,-1.4 -0.8,-2.9 -1.1,-4.3 -0.1,-0.2 0.1,-0.5 0.2,-0.7 0.2,0.2 0.4,0.4 0.5,0.6 0.5,1.6 0.9,3.2 1.3,4.8 0.8,2.8 1.7,5.7 2.5,8.5 0.2,0.2 0.2,0.7 0.2,1.1 z"
   id="path6" />
	<path
   fill="#f7941e"
   d="M 42.6,20.6 C 41.9,20.9 41.8,20.4 41.7,20.1 40.8,17.3 39.8,14.6 39,11.8 38.5,10.1 38,8.4 37.6,6.7 c -0.1,-0.3 0,-0.6 0,-0.9 0.1,0 0.2,0 0.2,0 1.6,4.9 3.2,9.9 4.8,14.8 z"
   id="path8" />
	<path
   fill="#f7941e"
   d="m 49.9,41.3 c -0.1,0 -0.2,0.1 -0.3,0.1 -0.3,-0.6 -0.8,-1.2 -1,-1.9 C 48,37.9 47.3,36.4 46.8,34.8 46,32.5 45.3,30.3 44.6,28 c -0.1,-0.2 0.1,-0.5 0.1,-0.8 0.2,0.2 0.4,0.4 0.5,0.6 1.3,3.6 2.6,7.3 3.8,10.9 0.4,0.9 0.7,1.8 0.9,2.6 z"
   id="path10" />
	<path
   fill="#f7941e"
   d="m 17.3,21.7 c -1.3,-4.8 -3.5,-9.3 -4,-14.4 0.1,0.2 0.3,0.5 0.4,0.7 0.3,0.9 0.5,1.7 0.8,2.6 1.1,3.4 2.2,6.8 3.3,10.1 0.1,0.5 0.4,0.9 -0.5,1 z"
   id="path12" />
	<path
   fill="#f7941e"
   d="m 19.7,24.5 c 0,0.6 -0.3,1 -0.9,0.9 -0.3,0 -0.5,-0.4 -0.8,-0.6 0.2,-0.7 0.3,-1.1 1,-1.1 0.4,0.1 0.7,0.3 0.7,0.8 z"
   id="path14" />
	<path
   fill="#f7941e"
   d="m 44.8,24 c -0.1,0.3 -0.5,0.6 -0.8,0.6 -0.6,0.1 -0.8,-0.3 -0.9,-1.2 0.1,-0.1 0.3,-0.5 0.6,-0.6 0.4,0 1.2,0.8 1.1,1.2 z"
   id="path16" />
</g>
</svg>
