<?xml version="1.0" encoding="UTF-8" standalone="no"?>
<svg
   version="1.1"
   id="Layer_1"
   x="0px"
   y="0px"
   width="139.99982"
   height="95.78981"
   viewBox="6 39 139.99982 95.789809"
   enable-background="new 6 39 140 95.79"
   xml:space="preserve"
   sodipodi:docname="wizard.svg"
   xmlns:inkscape="http://www.inkscape.org/namespaces/inkscape"
   xmlns:sodipodi="http://sodipodi.sourceforge.net/DTD/sodipodi-0.dtd"
   xmlns="http://www.w3.org/2000/svg"
   xmlns:svg="http://www.w3.org/2000/svg"><defs
   id="defs101" /><sodipodi:namedview
   id="namedview99"
   pagecolor="#ffffff"
   bordercolor="#000000"
   borderopacity="0.25"
   inkscape:showpageshadow="2"
   inkscape:pageopacity="0.0"
   inkscape:pagecheckerboard="0"
   inkscape:deskcolor="#d1d1d1" />
  <g
   id="g96"
   transform="translate(-1.7936125e-4,-1.8835769e-4)">
    <path
   fill="#9100c1"
   d="m 36.01,66.403 c -11.443,3.01 -19.576,8.336 -24.767,19.68 -2.002,4.435 -1.062,7.399 -1.716,12.198 -1.145,8.215 -0.164,13.012 0.491,21.307 0.204,2.889 -1.062,3.903 0.98,5.938 3.474,3.457 7.643,3.658 12.588,2.85 8.827,-1.223 13.691,-3.009 21.416,-7.316 2.616,-1.467 6.894,-2.549 5.558,-5.203 -2.125,-4.229 -3.515,-8.136 -5.231,-13.5 -1.308,-4.147 3.556,-5.854 5.721,-9.6 2.003,-3.415 1.022,-2.688 0.736,-6.669 C 51.459,81.535 45.615,76.653 44.348,72.264 43.244,68.437 39.81,65.405 36.01,66.403 Z"
   id="path2" />
    <path
   fill="#9100c1"
   d="m 43.939,74.535 c -1.818,1.078 -3.351,0.772 -5.395,0.163 -1.675,-0.487 -3.31,-0.752 -3.76,-2.439 -0.878,-3.273 -0.919,-5.509 0.327,-8.62 0.674,-1.708 1.9,-2.42 2.207,-4.229 0.306,-1.79 -0.96,-2.704 -1.635,-4.392 -0.531,-1.362 -1.41,-3.131 -2.779,-2.602 -1.308,0.509 -2.636,0.122 -3.514,-0.976 -3.679,2.643 -5.987,4.107 -10.462,5.042 -1.839,0.367 -3.127,-0.874 -4.169,-2.439 -1.104,-1.667 1.859,-2.684 3.679,-3.578 4.209,-2.094 5.395,-4.838 8.909,-7.888 3.433,-2.989 7.234,-3.497 11.443,-1.87 4.25,1.625 6.948,1.586 11.443,2.521 3.883,0.813 6.151,1.586 10.054,0.976 3.985,-0.63 8.194,-0.609 9.891,3.009 0.92,1.972 0.245,3.64 -0.818,5.53 -0.797,1.423 -0.898,2.683 -2.369,3.415 -2.861,-2.439 -1.962,-4.473 -4.005,-5.53 -1.031,-0.533 -1.798,0.163 -2.943,0.408 -4.169,0.914 -6.764,1.3 -10.136,3.902 -2.574,1.992 -3.617,3.619 -5.313,6.344 -2.002,3.212 -2.534,6.872 -0.163,9.839 z"
   id="path4" />
    <path
   fill="#ffdeae"
   d="m 48.68,55.994 c 2.86,2.847 3.024,5.672 3.024,9.595 -0.858,-0.04 -2.248,0 -2.043,0.813 0.347,1.362 0.653,2.175 0.653,3.579 -0.551,-0.224 -0.817,-0.447 -1.389,-0.732 l 1.553,3.742 c 1.022,-0.407 0.715,-1.139 1.635,-1.708 1.042,-0.631 2.575,-0.346 2.698,-1.546 0.062,-0.589 -0.634,-0.711 -0.899,-1.22 2.514,-1.239 4.087,-1.87 6.703,-1.545 0.558,0.07 0.449,0.813 0.899,1.138 1.86,1.383 3.188,2.034 5.477,2.359 2.819,0.385 5.579,-0.122 6.866,-2.684 1.185,-2.357 -2.963,-2.907 -5.067,-4.473 1.124,-0.162 1.042,-1.687 0.735,-2.765 -0.45,-1.565 -1.351,-2.195 -2.208,-3.577 -1.492,-2.399 -2.084,-3.945 -3.924,-6.1 -0.735,-0.854 -1.839,-0.427 -2.942,-0.163 -1.778,0.428 -7.684,1.871 -11.771,5.287 z"
   id="path6" />
    <path
   fill="#ffffff"
   d="m 48.762,55.75 c 1.226,0.61 1.328,1.606 1.716,2.846 0.858,2.725 1.042,4.31 1.39,7.156 -0.837,0 -1.369,-0.041 -2.125,-0.406 0.144,1.85 0.654,3.333 -0.572,4.716 0.674,0.894 0.593,1.728 1.226,2.684 1.737,-0.936 2.595,-1.769 4.414,-2.521 -0.266,-0.834 -1.431,-1.342 -0.899,-2.033 0.797,-1.037 1.9,-0.712 3.188,-0.976 1.88,-0.386 2.799,-0.081 4.333,1.057 3.126,2.317 7.172,3.313 10.461,1.139 2.453,2.216 3.719,3.78 4.904,6.871 H 74.02 l 1.146,4.412 H 73.204 L 77.7,87.22 c -0.735,0.428 -1.474,0.307 -1.962,0.977 1.267,0.936 3.352,0.854 3.27,2.438 -0.062,1.141 -1.447,2.057 -0.652,2.848 0.84,0.836 1.676,0.938 2.535,1.789 2.351,2.338 2.939,6.729 0.082,8.377 -0.636,-3.23 -4.027,-3.455 -7.196,-4.229 v 2.113 c -5.006,0.407 -6.333,-3.822 -10.625,-6.668 l -0.573,3.172 c -2.411,-0.793 -3.433,-2.276 -4.659,-4.476 -1.246,-2.256 -2.881,-3.088 -3.515,-5.608 -0.899,0.67 -1.083,1.424 -1.961,2.112 -2.677,-3.681 -2.738,-6.606 -3.678,-11.062 -1.328,0 -1.921,1.933 -3.106,1.384 -0.674,-0.307 -0.531,-1.078 -0.735,-1.789 -0.511,-1.75 -0.756,-2.746 -0.899,-4.557 -0.266,-3.497 0.469,-5.57 -0.491,-8.945 -0.005,-4.141 2.407,-6.255 5.227,-9.346 z"
   id="path8" />
    <path
   fill="#ffdeae"
   d="m 88.648,70.55 3.599,0.245 c 0.407,-1.22 0.286,-2.704 1.553,-2.928 3.106,-0.569 4.845,1.524 8.011,1.301 0.92,-0.061 1.532,-0.264 2.371,0.081 1.104,0.468 0.797,2.095 0.164,3.091 -1.104,1.749 -3.74,-0.264 -5.229,1.22 0.489,0.61 1.021,0.894 1.799,0.894 0.104,1.627 -2.248,1.343 -3.271,2.603 -1.269,1.547 -2.289,2.074 -4.168,3.01 L 92.9,77.3 c -1.596,-0.243 -2.492,-0.264 -4.088,0.082 0,-2.704 0.249,-4.961 -0.164,-6.832 z"
   id="path10" />
    <path
   fill="#ffdeae"
   d="m 23.504,104.625 c -1.226,2.52 -2.595,3.882 -2.125,6.505 0.205,1.158 1.206,2.136 2.371,1.87 1.226,-0.283 1.308,-1.585 1.635,-2.766 0.327,1.811 1.655,4.104 3.433,3.742 1.717,-0.367 0.45,-2.399 0.735,-4.148 1.737,0.427 3.536,1.729 4.578,0.326 0.654,-0.875 -0.286,-1.789 -0.899,-2.685 -0.613,-0.915 -0.878,-1.524 -1.635,-2.358 1.267,-0.832 2.514,-1.036 3.025,-2.439 0.327,-0.873 -0.062,-2.031 -0.981,-2.193 -1.634,-0.307 -2.411,1.141 -4.005,1.625 -0.797,0.244 -1.001,-0.834 -1.635,-1.383 -1.941,-1.687 -4.025,-0.671 -6.539,-0.324 -0.736,0.104 -1.553,-0.103 -1.88,0.568 -0.245,0.51 0.552,0.771 0.981,1.139 1.123,0.996 1.756,1.585 2.941,2.521 z"
   id="path12" />
    <path
   fill="#ffa100"
   d="m 16.066,93.24 c -3.024,-0.996 -4.598,-2.541 -7.765,-2.44 -0.695,0.021 -1.308,0.61 -1.227,1.302 0.286,2.338 4.7,4.818 5.477,2.604 1.165,-0.002 2.964,-0.45 3.515,-1.466 z"
   id="path14" />
    <path
   fill="#ffa100"
   d="m 42.304,102.104 c -2.268,0 -3.535,-0.468 -5.803,-0.566 -0.797,-0.04 -1.328,0.347 -2.044,0 -1.063,-0.527 -1.961,-0.854 -3.024,-0.324 -1.349,0.671 -2.82,0.528 -3.842,-0.566 -0.368,-0.406 -1.185,-0.609 -0.98,-1.142 0.388,-0.996 1.655,-0.509 2.615,-0.979 0.879,-0.426 1.533,-1.301 2.37,-0.812 4.496,2.687 8.133,-0.08 13.324,-0.08 1.247,0 2.125,-0.549 3.188,0.08 0.756,0.448 0.368,1.587 -0.164,2.277 -1.45,1.847 -3.29,1.928 -5.64,2.112 z"
   id="path16" />
    <path
   fill="#9100c1"
   d="m 73.773,68.11 10.461,0.245 -0.815,10.167 -8.91,0.08 c -0.388,-1.18 -0.858,-0.957 -1.062,-2.193 1.43,-0.529 2.391,-0.245 3.923,-0.042 L 71.892,69.74 c 0.819,-0.409 1.31,-0.918 1.881,-1.63 z"
   id="path18" />
    <path
   fill="#ffffff"
   d="m 62.167,61.89 c -0.153,0.666 -0.981,1.749 -2.248,1.708 -0.698,-0.023 -1.139,-0.956 -1.308,-1.626 z"
   id="path20" />
    <path
   fill="#272525"
   d="m 63.065,61.524 c -0.326,2.195 -1.808,3.008 -3.31,3.008 -1.4,0 -2.054,-1.332 -2.33,-2.724 z"
   id="path22" />
    <path
   fill="#272525"
   d="m 70.545,61.728 c 0.061,0.701 -0.449,1.281 -1.145,1.382 -0.827,0.122 -1.655,-0.448 -1.859,-1.261 -0.092,-0.386 -0.235,-0.599 -0.102,-0.976 0.133,-0.397 0.685,-0.021 1.104,0.082 0.816,0.203 1.932,-0.061 2.002,0.773 z"
   id="path24" />
    <path
   fill="#ffffff"
   d="m 68.154,61.219 c 0,0.55 0.143,1.149 0.696,1.2 0.469,0.04 0.816,-0.306 0.918,-0.773 z"
   id="path26" />
    <ellipse
   fill="#272525"
   cx="61.554001"
   cy="62.825001"
   rx="0.77600002"
   ry="0.65100002"
   id="ellipse28" />
    <circle
   fill="#272525"
   cx="69.277"
   cy="62.133999"
   r="0.449"
   id="circle30" />
    <polygon
   fill="#ffffff"
   points="35.847,83.643 42.549,86.734 35.683,86.083 38.462,93.24 34.866,90.312 32.414,92.589 33.394,86.572 27.183,88.359 31.433,84.458 28.327,80.064 32.578,82.504 36.501,79.578 "
   id="polygon32" />
    <polygon
   fill="#ffffff"
   points="17.21,117.961 25.058,115.523 19.663,120.4 24.894,121.377 20.153,122.841 18.191,126.419 17.374,122.354 12.96,124.467 15.085,120.564 14.595,113.083 "
   id="polygon34" />
    <path
   fill="#ffffff"
   d="m 40.337,104.424 c -1.864,10.044 3.52,13.537 3.52,13.537 0,0 -7.04,-0.873 -7.04,-4.804 0,-3.931 3.52,-8.733 3.52,-8.733 z"
   id="path36" />
    <polygon
   fill="#ffffff"
   points="39.28,44.609 45.982,44.446 41.242,45.667 41.978,49.977 39.852,46.724 38.136,52.009 37.645,47.049 32.25,47.049 35.766,45.667 36.01,42.819 "
   id="polygon38" />
    <polygon
   fill="#ffffff"
   points="19.826,52.172 23.422,52.66 22.115,50.626 25.14,48.35 21.624,48.513 18.355,51.277 16.802,53.88 "
   id="polygon40" />
    <polygon
   fill="#ffffff"
   points="47.944,86.734 46.228,92.589 51.704,89.743 49.416,84.294 43.203,84.132 "
   id="polygon42" />
    <polygon
   fill="#ffff00"
   points="139.918,71.477 146,77.713 139.98,76 138.718,83.171 135.996,78.424 128.375,82.993 135.965,73.675 124.451,69.819 134.7,70.514 128.703,58.759 136.794,68.842 142.371,67.265 "
   id="polygon44" />
    <path
   fill="#272525"
   d="m 31.205,131.432 c -1.366,1.873 -3.501,3.316 -5.908,3.207 -1.186,-0.054 -1.98,-0.84 -2.977,-1 -0.554,-0.091 -0.886,0.916 -1.324,1.151 -1.369,-0.247 -2.595,-0.96 -3.844,-1.532 -0.025,-0.279 0.929,-4.271 1.121,-4.701 1.941,0.549 3.938,1.269 5.988,0.974 1.487,2.213 6.944,1.901 6.944,1.901 z"
   id="path46" />
    <path
   fill="#53c73b"
   d="m 29.185,132.314 c -3.842,2.97 -5.679,0.183 -6.825,-0.244 -1.254,-0.465 -0.957,2.057 -2.93,0.771 -1.058,-0.688 -0.073,-3.032 0.262,-4.104 1.192,0.287 2.399,0.568 3.634,0.563 0.652,0.983 3.263,3.249 5.859,3.014 z"
   id="path48" />
    <path
   fill="#272525"
   d="m 50.999,120.445 c 0,2.312 -0.873,4.729 -2.884,6.05 -0.992,0.649 -2.099,0.478 -3.001,0.931 -0.501,0.251 -0.174,1.26 -0.389,1.706 -1.253,0.601 -2.666,0.742 -4.015,1.009 -0.186,-0.213 -1.771,-3.998 -1.871,-4.459 1.895,-0.688 3.933,-1.279 5.417,-2.715 2.513,0.922 6.743,-2.522 6.743,-2.522 z"
   id="path50" />
    <path
   fill="#53c73b"
   d="m 49.661,123.166 c -1.227,3.335 -4.382,2.268 -5.561,2.592 -1.291,0.356 0.561,2.602 -1.793,2.715 -1.262,0.062 -1.852,-2.412 -2.215,-3.477 1.134,-0.467 2.277,-0.941 3.274,-1.668 1.108,0.414 4.333,1.546 6.295,-0.162 z"
   id="path52" />
    <path
   fill="#272525"
   d="m 60.126,43.972 c 0.036,2.405 -10.327,0.201 -11.888,0.116 -7.545,-0.411 -14.233,-7.98 -20.462,0 -3.337,4.274 -7.276,6.718 -12.005,9.113 -0.285,0.144 -0.526,0.432 -0.74,0.659 0.131,1.096 1.777,1.786 2.729,2.017 3.965,0.958 8.577,-2.32 11.108,-5.002 l 0.117,-3.917 c 1.184,0.131 -0.047,4.21 2.144,4.731 1.419,0.337 4.355,-1.94 5.535,-2.676 h 0.468 c 0.025,0.846 -1.934,2.221 -2.534,2.869 1.001,1.156 4.879,6.808 2.222,7.562 -1.257,0.357 -2.743,-5.117 -3.742,-6.243 -0.631,0.239 -1.764,0.393 -2.417,0.194 -0.683,-0.209 -0.722,-1.056 -1.325,-0.854 -1.169,0.393 -3.502,4.199 -6.236,5.119 -2.172,0.73 -4.88,0.922 -6.86,-0.388 -1.665,-1.101 -4.591,-3.409 -2.611,-5.661 1.107,-1.261 5.55,-2.05 7.484,-3.452 3.533,-2.562 5.858,-7.161 10.094,-8.531 7.3,-2.36 12.351,2.665 19.292,3.064 3.176,0.183 6.745,-0.392 9.627,1.28 z"
   id="path54" />
    <path
   fill="#272525"
   d="m 43.344,73.771 c 0.417,-0.66 -0.027,-1.472 0.39,-2.133 -7.433,2.896 -11.167,-9.637 -0.546,-7.445 1.405,-7.914 9.124,-11.97 14.187,-13.805 0.98,-0.354 7.519,-2.044 6.276,0.776 -7.791,0.135 -17.764,5.333 -19.839,13.378 0.818,0.576 1.858,1.312 1.793,2.443 -0.045,0.785 -0.343,1.671 -0.438,2.478 -0.244,2.088 -0.221,7.688 0.71,9.504 0.034,0.067 3.937,-1.861 3.937,-1.861 -0.08,3.969 -0.299,8.653 2.534,11.828 0.677,-0.604 1.378,-1.224 2.221,-1.59 1.409,3.562 4.077,6.813 7.484,8.646 0.643,-1.04 0.936,-3.412 0.936,-3.412 1.849,3.416 5.478,6.395 9.354,7.136 -0.507,-1.073 -0.694,-2.278 -1.403,-3.258 1.136,0.251 1.871,1.323 2.926,1.784 2.688,1.171 6.516,0.789 7.833,3.992 1.302,-6.222 -4.068,-7.76 -6.548,-10.586 0.583,-0.83 1.728,-0.604 2.535,-1.047 -1.994,-1.479 -5.962,-4.729 -5.962,-4.729 1.225,-0.396 2.332,0.366 3.545,0.349 -0.988,-2.601 -3.666,-5.35 -4.207,-6.979 1.086,-0.18 2.094,0.369 3.155,0.465 -0.417,-1.564 -1.301,-2.975 -2.146,-4.343 0.009,-0.598 4.077,0.314 4.077,0.314 -0.26,-1.423 -2.752,-3.309 -3.606,-4.424 l 1.13,-0.738 c 1.564,2.133 3.721,4.104 4.288,6.787 -0.874,0.074 -1.745,-0.113 -2.61,-0.193 0.053,1.641 1.354,2.93 1.402,4.576 -0.732,0.09 -1.402,-0.312 -2.145,-0.192 0,0 3.292,4.348 4.678,6.514 l -2.973,-0.048 c 1.211,0.763 3.889,2.085 4.766,3.229 -0.128,1.035 -1.555,0.513 -2.066,1.277 3.967,1.785 7.684,10.211 1.287,14.23 1.033,-6.553 -2.047,-4.575 -5.886,-5.937 0.039,0.736 0.546,1.357 0.741,2.058 -5.172,0.074 -8.795,-2.717 -11.771,-6.631 -0.11,0.998 0.188,1.986 0.078,2.983 -4.746,-1.289 -7.008,-6.413 -8.965,-10.433 -0.646,0.938 -0.574,2.185 -1.325,3.062 -3.816,-2.189 -4.788,-7.865 -5.223,-11.788 -0.834,0.535 -2.417,2.326 -2.417,2.326 -1.446,-1.946 -1.443,-4.479 -2.183,-6.708 -2.501,0.898 -6.168,0.479 -7.951,-1.667 -4.505,-5.426 0.439,-14.441 4.404,-18.73 3.322,-3.593 6.236,-6.279 10.68,-8.376 5.207,-2.458 9.446,-3.641 15.318,-3.063 2.102,0.208 4.805,1.916 5.612,3.918 0.817,2.028 -0.097,7.224 -2.222,8.26 -0.547,0.266 -1.548,-0.41 -1.676,-0.931 -0.097,-0.395 2.899,-3.332 2.143,-6.321 -0.305,-1.205 -1.68,-2.92 -2.922,-3.257 -5.615,-1.524 -14.225,2.048 -18.865,5.118 -5.218,3.454 -12.251,9.814 -12.823,16.403 -0.426,4.861 3.746,7.766 8.298,6.791 z"
   id="path56" />
    <path
   fill="#272525"
   d="m 69.232,57.34 c 1.906,-2.213 4.672,-2.469 6.47,0 -0.58,0.118 -1.376,0.877 -1.929,2.639 -1.25,3.988 -4.562,1.071 -7.152,1.006 l -1.225,0.335 c 0.065,-0.888 0.627,-2.916 1.498,-3.516 -1.197,-1.73 -1.99,-3.69 -2.689,-5.661 l 0.467,-0.194 c 1.426,1.867 2.748,3.862 4.56,5.391 z"
   id="path58" />
    <path
   fill="#272525"
   d="m 60.104,56.359 c 3.449,-0.671 4.618,0.825 5.223,4.11 2.093,1.274 8.266,4.198 9.472,5.934 0.561,0.806 -0.188,2.69 -0.857,3.258 -0.726,0.615 -2.68,1.703 -3.625,1.783 0.523,1.787 -0.424,3.27 -1.324,4.73 -4.948,-2.729 -7.959,-3.752 -13.642,-1.938 2.758,1.584 7.431,3.186 10.913,1.745 0.125,1.039 2.458,2.957 2.338,4.85 -0.767,0.271 -1.631,-0.438 -2.338,-0.659 0.121,1.062 0.989,3.849 -0.467,4.497 -0.359,-0.271 -0.034,-0.609 0,-0.934 0.142,-1.312 -1.625,-3.498 -1.949,-4.963 0.72,-0.261 1.405,-0.123 2.144,-0.075 -0.286,-0.481 -0.722,-0.741 -1.235,-0.875 -1.647,0.334 -2.884,0.094 -3.988,-0.058 -1.559,-0.209 -5.693,-1.64 -6.548,-2.986 -0.375,-0.592 0.892,-1.321 1.286,-1.59 2.858,-1.948 8.802,-1.879 11.615,0.116 0.548,0.388 1.067,0.864 1.6,1.28 0.571,-0.822 0.436,-1.925 0.467,-2.87 -4.484,0.543 -7.952,-2.966 -9.002,-4.188 -1.85,-0.037 -3.738,0.283 -5.301,1.318 0.54,0.472 1.56,0.763 1.403,1.667 -1.518,0.578 -3.23,0.93 -4.404,2.133 0.419,0.33 1.177,0.063 1.403,0.659 -0.785,1.599 -1.558,3.215 -2.066,4.924 -0.168,0.051 -0.373,-0.104 -0.39,-0.271 -0.118,-1.189 0.308,-3.167 0.936,-4.188 -0.653,-0.363 -1.405,-0.51 -2.144,-0.582 0.94,-1.825 3.675,-2.95 4.599,-3.141 -0.708,-0.603 -1.492,-0.961 -2.261,-1.667 2.205,-1.5 7.679,-1.784 7.679,-1.784 -0.144,-0.265 -0.596,-0.602 -0.39,-0.93 5.618,4.925 11.021,4.845 13.563,1.125 -1.89,-1.19 -6.394,-4.047 -7.863,-5.022 -2.804,-0.706 -8.612,2.753 -10.377,-1.415 -0.559,-1.321 -0.413,-3.709 -2.806,-4.189 1.92,-2.871 6.668,-2.973 8.336,0.196 z"
   id="path60" />
    <path
   fill="#ffffff"
   d="m 59.224,57.784 c 2.12,1.544 3.889,-1.733 4.895,2.57 l 0.214,0.602 c -2.015,-0.397 -7.359,1.307 -8.133,-1.057 -0.572,-1.749 -1,-3.24 -2.722,-4.003 2.955,-2.449 4.402,0.908 5.746,1.888 z"
   id="path62" />
    <path
   fill="#ffffff"
   d="m 73.979,56.929 c -1.287,0.97 -0.975,4.212 -3.352,3.863 0,0 -3.024,-0.854 -4.251,-0.488 0.327,-0.936 0.981,-1.87 2.248,-1.667 2.808,0.45 3.065,-3.253 5.355,-1.708 z"
   id="path64" />
    <path
   fill="#272525"
   d="m 50.555,66.208 c -0.072,1.327 1.021,2.896 0.117,4.111 -0.298,-0.1 -0.622,-0.166 -0.858,-0.388 -0.107,0.462 0.88,2.428 0.174,2.489 -0.201,-1.216 -1.922,-2.406 -2.24,-3.575 0.851,-0.206 1.251,-0.011 1.871,0 -0.247,-1.544 -0.896,-2.989 -1.287,-4.499 0.807,-0.196 2.611,-0.077 2.611,-0.077 -0.038,-2.249 -1.259,-5.274 -1.692,-7.463 1.622,-0.745 3.855,7.598 4.108,8.782 0.277,1.287 -2.184,0.91 -2.804,0.62 z"
   id="path66" />
    <path
   fill="#272525"
   d="m 89.375,63.999 c 0.468,0.155 1.363,11.206 0.663,16.362 -2.302,0.543 -4.911,0.738 -7.289,0.738 -1.325,-0.154 -0.467,-1.24 -0.856,-1.938 -1.014,0 -5.91,0.376 -6.729,-0.478 0.154,-0.468 -0.837,-0.705 -0.409,-0.979 l 7.528,-0.214 c 0.562,-3.161 1.208,-8.57 1.208,-8.57 -2.689,0.04 -7.188,0.008 -9.798,0.164 0.546,-0.349 0.078,-1.163 0.74,-1.396 2.922,0 6.874,-0.396 9.603,-0.551 0.429,-0.854 0.353,-1.939 0.663,-2.869 1.558,-0.619 3.037,-0.153 4.676,-0.269 z"
   id="path68" />
    <path
   fill="#53c73b"
   d="m 88.359,65.123 c 0.002,3.521 0.455,13.041 -0.66,13.107 l -3.664,0.191 c -0.188,-0.341 2.043,-12.406 2.183,-13.146 0.7,-0.197 1.44,0.038 2.141,-0.152 z"
   id="path70" />
    <path
   fill="#ffdeae"
   d="m 44.591,66.868 c -0.404,7.097 -7.208,3.137 -6.392,0.116 0.704,-2.61 5.255,-2.249 6.392,-0.116 z"
   id="path72" />
    <path
   fill="#272525"
   d="m 43.461,67.334 c 0.194,1.202 -1.325,0.348 -1.676,1.124 0.39,0.426 0.896,0.62 1.481,0.659 v 0.465 c -1.013,0.311 -2.72,-0.292 -2.842,-1.309 -0.074,-0.618 0.854,-0.825 1.36,-1.134 -0.818,-0.698 -1.715,-0.155 -2.456,-0.466 1.505,-1.084 3.509,-0.465 4.133,0.661 z"
   id="path74" />
    <path
   fill="#272525"
   d="m 34.13,66.729 c 0.187,0.557 0.129,1.215 -0.273,1.667 -10.336,2.586 -20.605,11.444 -22.396,22.127 0.935,0.688 4.488,1.731 5.095,2.797 -1.115,1.584 -6.648,-1.865 -7.98,-2.256 -0.244,-0.07 -0.638,0.103 -0.663,0.389 -0.147,1.745 4.002,2.951 5.127,3.576 l -0.35,1.085 c -0.339,0.22 -2.021,-0.568 -2.361,-0.666 -0.787,7.774 1.207,27.688 1.21,30.052 6.653,3.033 25.617,4.009 37.613,-9.307 0.007,-0.008 -4.313,-9.779 -4.395,-13.688 -2.606,0.457 -7.541,0.283 -10.14,-0.146 -0.242,-0.438 -0.219,-0.938 -0.078,-1.396 3.603,0.61 9.645,0.771 12.751,-1.058 0.562,-0.331 0.21,-1.641 -0.286,-1.588 -4.393,0.476 -11.313,1.504 -15.677,0.386 -1.2,-0.31 -0.373,-1.116 0.351,-1.318 5.667,0.538 15.251,-0.735 15.251,-0.735 0.611,-0.856 3.949,-5.143 4.677,-5.393 0.401,-0.138 0.465,0.428 0.624,0.659 -0.013,0.079 -3.092,4.699 -3.547,5.661 1.182,1.597 0.732,3.305 -2.533,4.382 0.321,3.813 4.458,11.364 4.793,11.711 0.301,-0.489 0.924,-0.578 1.404,-0.813 0.61,0.099 0.301,1.104 0.195,1.477 -0.802,2.805 -5.703,7.378 -8.146,8.958 -8.661,5.603 -20.899,8.569 -30.869,4.926 -1.687,-0.614 -4.156,-0.858 -5.535,-1.979 -0.038,-0.396 -0.001,-0.861 0.39,-1.085 1.525,0.214 0.778,-1.739 0.819,-2.637 C 9.274,120.89 8.302,97.388 8.383,94.869 7.925,93.896 5.659,92.101 6.044,90.875 6.489,89.452 8.039,89.564 9.202,89.866 9.697,89.178 9.793,88.32 10.059,87.54 13.568,77.219 23.178,68.5 34.13,66.729 Z"
   id="path76" />
    <path
   fill="#272525"
   d="m 105.668,70.396 c 1.372,0.261 27.818,0.723 31.577,0.822 0.446,1.907 0.103,3.44 -0.368,5.269 -4.254,-0.31 -24.98,-1.046 -29.261,-1.047 -0.421,3.754 -2.048,2.676 -3.271,3.167 0,2.683 -2.371,2.602 -3.845,2.602 -1.062,0.812 -1.082,1.486 -2.899,1.602 -1.396,0.09 -3.891,-0.351 -4.562,-1.783 -0.341,-0.724 -0.057,-0.957 0.023,-1.688 0.082,-0.372 -0.578,-1.396 -0.492,-1.763 -0.516,-0.189 -2.823,0.396 -3.129,0.021 -0.354,-0.438 0.123,-1.141 0.353,-1.512 l 3.907,0.365 c -0.115,0.699 -0.324,1.779 0.469,2.173 0.625,-1.095 1.184,-0.83 1.919,-0.83 0.571,-1.627 1.636,-2.684 3.187,-2.622 L 99.2,74.78 c -0.987,0.599 -4.81,0.165 -4.482,-0.931 1.97,-0.065 3.327,1.076 4.209,-1.861 1.448,0.097 4.396,0.756 5.226,-0.93 0.246,-0.502 -0.146,-1.411 -0.739,-1.474 -2.039,-0.217 -3.304,0.508 -5.417,-0.465 -1.278,-0.587 -3.206,-1.139 -4.405,-0.117 -0.809,0.69 -0.146,1.573 -0.737,2.172 -0.688,0.044 -2.487,0.14 -3.158,-0.116 0.046,-0.439 -0.588,-1.287 0.271,-1.319 l 2.419,0.194 c -0.277,-3.476 3.631,-2.898 5.689,-2.211 0.552,0.184 1.277,0.625 1.794,0.737 2.53,0.556 4.676,-2.581 5.798,1.937 z"
   id="path78" />
    <polygon
   fill="#ffffff"
   points="140.475,77.951 127.887,77.951 127.887,69.006 140.475,69.006 "
   id="polygon80" />
    <path
   fill="#0053e7"
   d="m 135.375,72.421 c 0.077,1.008 -0.193,1.474 -0.117,2.442 -3.078,-0.115 -31.929,-0.821 -34.93,-1.093 1.561,-0.388 3.74,0.194 4.872,-1.59 4.404,-0.348 25.459,0.279 30.175,0.241 z"
   id="path82" />
    <path
   fill="#272525"
   d="m 27.168,72.724 c -5.885,5.129 -10.139,11.575 -9.432,19.66 2.171,0.123 6.585,-0.69 8.419,-1.125 -1.18,-5.745 -1.56,-11.335 3.547,-17.605 0.395,-0.153 0.825,-0.805 1.208,-0.465 0.098,1.208 -1.033,1.975 -1.481,2.985 -1.876,4.23 -2.902,10.012 -1.793,14.542 1.18,0.21 3.112,-1.266 3.858,0.155 0.596,1.134 1.547,5.261 1.754,6.631 -3.443,2.441 -15.175,4.954 -19.371,4.381 -0.933,-2.578 -2.009,-5.104 -1.559,-7.908 0.963,-0.576 2.15,-0.396 3.157,-0.854 0.7,-9.016 3.322,-16.301 11.693,-20.94 z"
   id="path84" />
    <path
   fill="#ffdeae"
   d="m 106.137,75.05 c -0.613,1.708 -3.943,2.111 -5.264,1.125 -0.109,-0.477 0.162,-0.865 0.468,-1.202 z"
   id="path86" />
    <path
   fill="#ffdeae"
   d="m 99.438,76.486 c 0.287,1.871 2.143,1.938 3.31,2.016 -0.288,1.469 -4.541,0.961 -5.306,-0.193 -0.846,-1.291 1.283,-2.44 1.996,-1.823 z"
   id="path88" />
    <path
   fill="#ffdeae"
   d="m 98.65,80.945 c -1.178,1.391 -5.711,-0.254 -3.664,-1.514 0.406,-0.25 0.938,-0.31 1.402,-0.271 0.55,0.686 1.442,1.447 2.262,1.785 z"
   id="path90" />
    <path
   fill="#53c73b"
   d="m 30.442,92.189 c 0.432,1.539 1.088,3.035 1.13,4.65 -3.246,1.438 -13.449,2.723 -16.643,2.87 -0.573,-1.44 -1.005,-3.104 -0.662,-4.649 3.052,-0.742 13.862,-2.285 16.175,-2.871 z"
   id="path92" />
    <path
   fill="#272525"
   d="m 32.586,105.414 c 0,0 3.135,2.878 2.456,4.73 -0.734,2 -2.99,1.363 -4.482,0.931 0.138,1.519 0.464,2.679 -1.052,3.528 -1.81,1.015 -3.723,-1.851 -4.21,-3.259 -0.458,0.761 -0.6,1.743 -1.48,2.173 -0.731,0.354 -1.13,-0.028 -1.793,-0.468 -1.998,-2.601 -0.525,-5.407 0.39,-8.024 -0.262,-0.746 -4.109,-2.866 -3.486,-3.897 0.284,-0.47 2.37,-0.162 2.37,-0.162 0.875,0.836 2.697,2.649 3.65,3.401 -1.145,1.926 -3.659,5.111 -2.066,7.445 0.13,0.188 0.473,0.228 0.663,0.111 0.832,-0.488 0.873,-3.759 2.416,-4.846 0.211,0.979 0.472,6.146 2.534,5.506 1.689,-0.521 -0.428,-4.854 -0.273,-6.167 0.641,0.045 2.07,3.597 4.95,3.452 1.413,-1.379 -2.634,-3.396 -2.923,-5.312 1.458,-0.644 3.474,-0.955 3.858,-2.793 -1.506,-1.875 -3.085,0.45 -5.34,1.202 -0.437,-0.63 -2.488,-2.813 -2.488,-2.813 -0.128,-0.482 0.545,-0.438 0.741,-0.734 0.787,-0.375 2.064,1.221 2.683,1.609 0.985,-0.307 2.351,-0.941 3.352,-1.008 2.994,-0.19 2.335,3.655 -0.47,5.395 z"
   id="path94" />
  </g>
</svg>
