<svg version="1.1" id="wizardgirl2" x="0px" y="0px" width="172px" height="191px" viewBox="48.894 57.68 172 191" enable-background="new 48.894 57.68 172 191" xml:space="preserve" xmlns="http://www.w3.org/2000/svg" xmlns:xlink="http://www.w3.org/1999/xlink">
  <g>
    <g id="Wand">
      <path id="Blue" fill="#964197" d="M56.654,71.108c0.838,4.664,1.722,9.839,2.359,13.479c1.291,7.378,2.463,14.938,3.843,22.281&#xD;&#xA;&#x9;&#x9;c0.016,0.005,0.03,0.011,0.047,0.014c0.34,0.049,0.683,0.045,1.018-0.022c0.458-0.093,0.821-0.262,1.181-0.484&#xD;&#xA;&#x9;&#x9;c-1.892-10.798-3.981-24.186-6.119-35.745c-0.318,0.006-0.775,0.031-1.243,0.113C57.325,70.816,56.939,70.97,56.654,71.108z"/>
      <path id="White" fill="#FFFFFF" d="M56.654,71.108c0.285-0.137,0.67-0.292,1.085-0.363c0.468-0.083,0.925-0.107,1.243-0.113&#xD;&#xA;&#x9;&#x9;c-0.406-2.197-0.814-4.327-1.223-6.361c-0.306-0.03-0.624-0.09-0.913-0.043c-0.453,0.073-0.993,0.196-1.387,0.482&#xD;&#xA;&#x9;&#x9;C55.821,66.537,56.232,68.758,56.654,71.108z"/>
      <path id="Outline_5_" fill="#231F20" d="M54.544,64.494c-0.108,0.138-0.103,0.281-0.037,0.395&#xD;&#xA;&#x9;&#x9;c2.6,12.916,5.239,29.464,7.749,42.333c0.002,0.014,0.009,0.024,0.014,0.037c0.001,0.007,0.002,0.02,0.003,0.023&#xD;&#xA;&#x9;&#x9;c0.18,0.649,1.36,0.471,1.792,0.402c0.57-0.091,1.669-0.383,1.767-1.145c0.001-0.007-0.001-0.017-0.003-0.026&#xD;&#xA;&#x9;&#x9;c0.007-0.024,0.014-0.047,0.012-0.067c-1.149-7.56-2.281-15.074-3.592-22.573c-0.958-5.477-2.476-14.428-3.553-19.882&#xD;&#xA;&#x9;&#x9;c-0.06-0.304-0.283-0.438-0.5-0.435c-0.426-0.219-1.152-0.162-1.485-0.122C55.921,63.53,55.045,63.855,54.544,64.494z&#xD;&#xA;&#x9;&#x9; M57.759,64.27c0.409,2.034,0.816,4.164,1.223,6.36c2.138,11.559,4.227,24.946,6.119,35.746c-0.361,0.222-0.723,0.392-1.181,0.484&#xD;&#xA;&#x9;&#x9;c-0.335,0.067-0.677,0.072-1.018,0.022c-0.017-0.003-0.031-0.008-0.047-0.014c-1.38-7.343-2.552-14.904-3.843-22.281&#xD;&#xA;&#x9;&#x9;c-0.637-3.64-1.521-8.816-2.359-13.479c-0.422-2.351-0.833-4.571-1.195-6.399c0.394-0.286,0.934-0.409,1.387-0.482&#xD;&#xA;&#x9;&#x9;C57.136,64.18,57.453,64.24,57.759,64.27z"/>
    </g>
    <g id="L_Hand">
      <path id="Finger_2_" fill="#985B05" d="M60.764,104.162c0.41-0.027,1.453-0.118,1.648-0.587c0.133-0.314-0.288-0.736-0.469-0.929&#xD;&#xA;&#x9;&#x9;c-0.416-0.448-1.058-0.626-1.503-1.014c-1.099-0.014-2.245-0.391-3.232-0.911c-0.482,0.667-0.132,1.625,0.358,2.235&#xD;&#xA;&#x9;&#x9;C58.332,103.908,59.597,104.24,60.764,104.162z"/>
      <path id="Wrist" fill="#985B05" d="M69.654,107.632c-0.803-0.841-1.18-1.722-1.319-2.983c-0.253-2.3,2.546-4.997-0.129-6.644&#xD;&#xA;&#x9;&#x9;c-1.281-0.788-2.522-1.047-3.379-2.377c-1.708-0.607-2.146,0.073-1.314,2.039c0.475,0.706,1.064,1.302,1.763,1.789&#xD;&#xA;&#x9;&#x9;c0.537,0.413,1.419,0.604,1.851,1.106c0.307,0.357,0.16,0.807-0.257,0.975c-0.052,0.021-0.104,0.042-0.155,0.062&#xD;&#xA;&#x9;&#x9;c-0.354,0.144-0.615-0.117-0.679-0.424c-0.24-0.183-0.507-0.359-0.785-0.537c-0.724,0.465-1.044,1.312-1.012,2.17&#xD;&#xA;&#x9;&#x9;c0.022,0.53,0.296,0.979,0.712,1.296c0.412,0.315,0.88,0.356,0.968,0.94c0.033,0.22-0.019,0.445-0.231,0.563&#xD;&#xA;&#x9;&#x9;c-0.04,0.023-0.082,0.045-0.123,0.068c-0.204,0.113-0.517,0.15-0.716,0c-0.612-0.457-1.045-1.139-1.274-1.884&#xD;&#xA;&#x9;&#x9;c-0.217,0.772-1.165,1.291-2.007,1.512c-1.273,0.333-2.584,0.004-3.663-0.692c0.32,0.915,0.657,1.784,1.355,2.574&#xD;&#xA;&#x9;&#x9;c0.996,1.126,2.576,1.394,3.959,1.765c1.09,0.292,2.746,0.772,3.82,1.616C67.801,109.473,68.663,108.471,69.654,107.632z"/>
      <path id="Finger_1_" fill="#985B05" d="M57.494,99.688c1.012,0.471,3.114,1.324,4.106,0.447c0.84-0.741-0.679-1.875-2.345-2.82&#xD;&#xA;&#x9;&#x9;c-0.022-0.007-0.045-0.012-0.067-0.019c-0.099-0.03-0.173-0.087-0.237-0.152c-1.011-0.554-2.023-1.028-2.558-1.292&#xD;&#xA;&#x9;&#x9;c-0.104,0.066-0.229,0.093-0.341,0.052c-0.011,0.014-0.016,0.029-0.031,0.042C54.527,97.409,56.043,99.015,57.494,99.688z"/>
      <path id="Finger" fill="#985B05" d="M56.588,95.427c0.806,0.249,1.623,0.493,2.421,0.782c0.088-0.06,0.195-0.101,0.336-0.087&#xD;&#xA;&#x9;&#x9;c0.923,0.082,2.552,0.17,1.813-1.25c-0.43-0.826-1.381-1.408-2.174-1.834c-0.826-0.444-1.855-0.763-2.785-0.512&#xD;&#xA;&#x9;&#x9;c-1.341,0.363-0.087,2.22,0.34,2.79C56.566,95.351,56.576,95.389,56.588,95.427z"/>
      <path id="Outline_4_" fill="#231F20" d="M70.506,107.023c-0.035-0.057-0.055-0.113-0.083-0.168&#xD;&#xA;&#x9;&#x9;c-1.877-2.056-0.285-4.013,0.439-6.297c0.276-0.868-0.073-2.064-0.803-2.635c-1.254-0.98-3.729-1.338-4.5-2.727&#xD;&#xA;&#x9;&#x9;c-0.33-0.595-0.644-1.109-1.344-1.301c-0.733-0.202-1.273,0.271-1.636,0.918c-0.406-1.343-2.077-2.37-3.212-2.868&#xD;&#xA;&#x9;&#x9;c-1.251-0.548-3.125-0.855-4.19,0.228c-0.884,0.898-0.258,2.219,0.379,3.149c-0.003,0.002-0.008,0.002-0.013,0.004&#xD;&#xA;&#x9;&#x9;c-2.006,1.084-0.77,3.767,0.668,4.792c-0.661,1.041-0.344,2.488,0.456,3.425c0.133,0.155,0.277,0.301,0.427,0.441&#xD;&#xA;&#x9;&#x9;c-0.203,1.754,0.853,3.716,2.296,4.68c1.83,1.222,4.529,1.323,6.461,2.468c0.791,0.112,1.548,0.368,2.225,0.78&#xD;&#xA;&#x9;&#x9;c0.894-1.437,1.962-2.756,3.215-3.771C71.016,107.777,70.747,107.409,70.506,107.023z M59.259,107.186&#xD;&#xA;&#x9;&#x9;c-0.698-0.791-1.035-1.659-1.355-2.574c1.079,0.697,2.39,1.026,3.663,0.692c0.843-0.221,1.791-0.739,2.007-1.511&#xD;&#xA;&#x9;&#x9;c0.229,0.744,0.662,1.426,1.274,1.883c0.199,0.15,0.513,0.112,0.716,0c0.041-0.023,0.083-0.046,0.123-0.069&#xD;&#xA;&#x9;&#x9;c0.212-0.118,0.264-0.342,0.231-0.563c-0.088-0.584-0.556-0.625-0.968-0.94c-0.416-0.316-0.69-0.766-0.712-1.296&#xD;&#xA;&#x9;&#x9;c-0.032-0.857,0.288-1.705,1.012-2.17c0.278,0.178,0.545,0.355,0.785,0.537c0.064,0.308,0.325,0.568,0.679,0.425&#xD;&#xA;&#x9;&#x9;c0.052-0.021,0.104-0.041,0.155-0.063c0.417-0.168,0.564-0.618,0.257-0.975c-0.432-0.502-1.313-0.692-1.851-1.106&#xD;&#xA;&#x9;&#x9;c-0.699-0.486-1.288-1.083-1.763-1.788c-0.832-1.966-0.394-2.647,1.314-2.04c0.856,1.331,2.098,1.589,3.379,2.377&#xD;&#xA;&#x9;&#x9;c2.676,1.647-0.124,4.344,0.129,6.644c0.139,1.262,0.516,2.142,1.319,2.983c-0.991,0.838-1.853,1.842-2.615,2.935&#xD;&#xA;&#x9;&#x9;c-1.074-0.843-2.73-1.324-3.82-1.616C61.835,108.58,60.255,108.313,59.259,107.186z M56.199,92.525&#xD;&#xA;&#x9;&#x9;c0.93-0.251,1.959,0.068,2.785,0.512c0.792,0.426,1.744,1.008,2.174,1.834c0.739,1.419-0.89,1.332-1.813,1.25&#xD;&#xA;&#x9;&#x9;c-0.141-0.013-0.248,0.028-0.336,0.087c-0.798-0.289-1.616-0.533-2.421-0.782c-0.012-0.037-0.022-0.076-0.049-0.112&#xD;&#xA;&#x9;&#x9;C56.112,94.745,54.858,92.887,56.199,92.525z M63.6,101.433c-0.129,0.351-0.197,0.726-0.204,1.109&#xD;&#xA;&#x9;&#x9;c-0.001,0.047-0.005,0.096-0.004,0.144c-0.014-0.026-0.024-0.052-0.041-0.078c-0.004-0.007-0.011-0.015-0.015-0.022&#xD;&#xA;&#x9;&#x9;c-0.248-0.399-0.7-0.917-1.225-1.29c0.946-0.513,1.088-1.564,0.711-2.467c0.1,0.113,0.209,0.219,0.322,0.324&#xD;&#xA;&#x9;&#x9;c0.407,0.379,0.885,0.71,1.369,1.021C64.078,100.508,63.781,100.948,63.6,101.433z M56.021,95.947&#xD;&#xA;&#x9;&#x9;c0.015-0.014,0.02-0.029,0.031-0.043c0.112,0.041,0.237,0.014,0.341-0.052c0.535,0.265,1.547,0.738,2.558,1.292&#xD;&#xA;&#x9;&#x9;c0.064,0.064,0.138,0.122,0.237,0.152c0.022,0.007,0.045,0.012,0.067,0.019c1.667,0.944,3.186,2.079,2.345,2.819&#xD;&#xA;&#x9;&#x9;c-0.993,0.877-3.094,0.024-4.106-0.447C56.043,99.015,54.527,97.409,56.021,95.947z M57.208,100.721&#xD;&#xA;&#x9;&#x9;c0.988,0.52,2.133,0.896,3.232,0.911c0.445,0.388,1.087,0.566,1.503,1.014c0.181,0.192,0.602,0.614,0.469,0.929&#xD;&#xA;&#x9;&#x9;c-0.196,0.469-1.238,0.561-1.648,0.587c-1.167,0.078-2.432-0.254-3.198-1.207C57.075,102.346,56.726,101.389,57.208,100.721z&#xD;&#xA;&#x9;&#x9; M62.263,97.985c-0.091-0.092-0.187-0.182-0.291-0.26c-0.181-0.136-0.369-0.259-0.558-0.379c0.232-0.08,0.441-0.196,0.624-0.351&#xD;&#xA;&#x9;&#x9;C62.056,97.358,62.13,97.689,62.263,97.985z"/>
    </g>
    <g id="R_Hand">
      <path fill="#985B05" d="M195.956,171.01c-1.143-0.001-2.14-0.434-2.882-1.254c-1.687-1.863-2.681-3.676-2.061-6.463&#xD;&#xA;&#x9;&#x9;c0.27-1.206,0.4-1.908,0.465-2.302l-3.379-0.937l2.3-6.266l0.644,0.47c0.021,0.015,2.116,1.533,3.727,1.532&#xD;&#xA;&#x9;&#x9;c0.115,0,0.229-0.008,0.338-0.025c0.655-0.109,1.869-0.534,3.275-1.027c2.432-0.851,5.458-1.91,7.607-2.032&#xD;&#xA;&#x9;&#x9;c0.22-0.013,0.438-0.019,0.652-0.019c2.375,0,4.65,0.765,5.411,1.819c0.268,0.37,0.346,0.78,0.222,1.156&#xD;&#xA;&#x9;&#x9;c-0.087,0.257-0.305,0.913-4.378,1.515c2.462,0.513,4.956,1.42,5.518,3.016c0.654,1.009,0.809,2.057,0.411,2.816&#xD;&#xA;&#x9;&#x9;c-0.196,0.378-0.713,1.015-1.962,1.036l0,0c-1.171,0-2.607-0.808-3.996-1.589c-1.007-0.566-2.047-1.152-2.676-1.238&#xD;&#xA;&#x9;&#x9;c-0.538-0.073-1.234-0.129-1.92-0.171c1.061,0.603,2.211,1.332,2.853,1.981c0.306,0.309,2.979,3.061,2.873,4.849&#xD;&#xA;&#x9;&#x9;c-0.025,0.433-0.208,0.794-0.524,1.047c-0.271,0.216-0.615,0.326-1.023,0.326c-1.483,0-3.733-1.507-5.739-2.981&#xD;&#xA;&#x9;&#x9;c-1.226-0.901-3.47-1.909-4.641-1.909c-0.232,0-0.387,0.046-0.398,0.09c-0.319,1.056,0.494,1.958,0.938,2.23&#xD;&#xA;&#x9;&#x9;c0.071,0.043,1.7,1.061,1.821,2.218c0.041,0.385-0.091,0.745-0.374,1.014C198.491,170.458,197.243,171.01,195.956,171.01&#xD;&#xA;&#x9;&#x9;L195.956,171.01z"/>
      <path d="M206.644,153.288c3.015,0,5.373,1.251,5.063,2.186c-0.333,0.998-9.125,1.657-9.125,1.657s9.406,0.4,10.29,3.328&#xD;&#xA;&#x9;&#x9;c0.969,1.44,0.762,2.958-1.017,2.988c-0.01,0-0.02,0-0.03,0c-1.782,0-4.915-2.597-6.55-2.821c-1.644-0.227-4.655-0.285-4.655-0.285&#xD;&#xA;&#x9;&#x9;s3.76,1.777,5.08,3.112c1.321,1.334,3.503,4.127,2.401,5.003c-0.17,0.136-0.392,0.195-0.649,0.195&#xD;&#xA;&#x9;&#x9;c-1.407,0-3.919-1.788-5.384-2.864c-1.264-0.93-3.643-2.025-4.996-2.025c-0.502,0-0.863,0.151-0.974,0.518&#xD;&#xA;&#x9;&#x9;c-0.408,1.355,0.545,2.514,1.199,2.914c0.654,0.404,2.059,1.608,1.348,2.287c-0.414,0.397-1.509,0.93-2.689,0.93&#xD;&#xA;&#x9;&#x9;c-0.841,0-1.726-0.271-2.437-1.057c-1.706-1.887-2.459-3.507-1.919-5.929c0.54-2.423,0.54-2.873,0.54-2.873l-3.253-0.9l1.802-4.907&#xD;&#xA;&#x9;&#x9;c0,0,2.25,1.648,4.081,1.648c0.148,0,0.295-0.011,0.437-0.034c1.887-0.312,7.517-2.865,10.819-3.052&#xD;&#xA;&#x9;&#x9;C206.233,153.294,206.44,153.288,206.644,153.288 M206.644,152.087L206.644,152.087c-0.226,0-0.454,0.007-0.687,0.021&#xD;&#xA;&#x9;&#x9;c-2.234,0.126-5.304,1.201-7.771,2.064c-1.323,0.464-2.572,0.901-3.177,1.002c-0.072,0.012-0.153,0.018-0.239,0.018&#xD;&#xA;&#x9;&#x9;c-1.174,0-2.869-1.049-3.371-1.416l-1.288-0.942l-0.55,1.497l-1.801,4.907l-0.449,1.224l1.257,0.348l2.225,0.615&#xD;&#xA;&#x9;&#x9;c-0.076,0.401-0.191,0.964-0.364,1.739c-0.717,3.216,0.634,5.263,2.199,6.995c0.861,0.949,2.012,1.451,3.329,1.451&#xD;&#xA;&#x9;&#x9;c1.512,0,2.884-0.654,3.519-1.263c0.418-0.4,0.615-0.937,0.556-1.511c-0.149-1.423-1.904-2.543-2.104-2.665&#xD;&#xA;&#x9;&#x9;c-0.165-0.102-0.712-0.582-0.726-1.205c0.986,0.072,2.979,0.922,4.154,1.787c2.189,1.61,4.443,3.099,6.096,3.099&#xD;&#xA;&#x9;&#x9;c0.546,0,1.017-0.154,1.397-0.458c0.447-0.355,0.714-0.882,0.749-1.48c0.119-2.007-2.516-4.772-3.046-5.308&#xD;&#xA;&#x9;&#x9;c-0.142-0.143-0.307-0.29-0.486-0.438c0.468,0.228,1.007,0.53,1.509,0.812c1.457,0.819,2.963,1.667,4.249,1.667h0.051&#xD;&#xA;&#x9;&#x9;c1.561-0.027,2.227-0.863,2.485-1.359c0.49-0.939,0.338-2.188-0.402-3.363c-0.463-1.206-1.777-2.051-3.376-2.641&#xD;&#xA;&#x9;&#x9;c1.956-0.508,2.13-1.028,2.264-1.433c0.188-0.562,0.08-1.165-0.303-1.696C211.663,152.938,209.238,152.087,206.644,152.087&#xD;&#xA;&#x9;&#x9;L206.644,152.087z"/>
    </g>
    <g id="L_Foot">
      <g id="L_Sock_1_">
        <g id="L_Sock">
          <path fill="#FFFFFF" d="M110.262,240.6c-0.896,0-1.807-0.037-2.71-0.11c-4.382-0.358-7.333-1.438-7.456-1.484l-0.875-0.325&#xD;&#xA;&#x9;&#x9;&#x9;&#x9;l0.66-0.661c0.614-0.617,1.746-1.354,3.458-2.255c0.882-0.463,1.92-0.968,3.084-1.503c0.505-0.232,1.018-0.462,1.533-0.688&#xD;&#xA;&#x9;&#x9;&#x9;&#x9;c1.041-0.457,2.182-0.94,3.391-1.437c0.56-0.23,1.096-0.446,1.601-0.647c1.33-0.532,2.428-0.953,3.079-1.2l0.339-0.127&#xD;&#xA;&#x9;&#x9;&#x9;&#x9;l1.174-5.543l0.063-0.096c0.054-0.082,0.107-0.155,0.159-0.229l0.071-0.102c1.441-2.065,2.752-3.071,4.009-3.071&#xD;&#xA;&#x9;&#x9;&#x9;&#x9;c2.5,0,3.333,3.877,3.42,4.319l0.047,0.241l-0.136,0.206c-0.121,0.183-0.232,0.377-0.337,0.578&#xD;&#xA;&#x9;&#x9;&#x9;&#x9;c-0.3,0.571-0.557,1.252-0.765,2.021c-0.255,0.94-0.441,2.026-0.553,3.226c-0.054,0.58-0.091,1.186-0.11,1.8&#xD;&#xA;&#x9;&#x9;&#x9;&#x9;c-0.062,2.002,0.078,3.543,0.079,3.559l0.038,0.408l-0.366,0.185c-0.425,0.214-0.879,0.424-1.427,0.658&#xD;&#xA;&#x9;&#x9;&#x9;&#x9;c-0.677,0.291-1.368,0.556-2.052,0.786c-1.555,0.521-3.178,0.912-4.825,1.157c-0.718,0.107-1.458,0.189-2.201,0.245&#xD;&#xA;&#x9;&#x9;&#x9;&#x9;C111.867,240.571,111.062,240.6,110.262,240.6L110.262,240.6z"/>
          <path d="M121.841,221.722c2.079,0,2.831,3.835,2.831,3.835c-0.132,0.199-0.253,0.411-0.369,0.631&#xD;&#xA;&#x9;&#x9;&#x9;&#x9;c-0.339,0.648-0.605,1.377-0.813,2.144c-0.291,1.076-0.468,2.225-0.571,3.327c-0.06,0.637-0.094,1.256-0.113,1.837&#xD;&#xA;&#x9;&#x9;&#x9;&#x9;c-0.064,2.066,0.082,3.633,0.082,3.633c-0.465,0.234-0.929,0.443-1.395,0.643c-0.671,0.288-1.34,0.544-2.007,0.769&#xD;&#xA;&#x9;&#x9;&#x9;&#x9;c-1.604,0.538-3.19,0.904-4.722,1.133c-0.733,0.108-1.453,0.187-2.158,0.24c-0.806,0.061-1.59,0.088-2.346,0.088&#xD;&#xA;&#x9;&#x9;&#x9;&#x9;c-0.932,0-1.823-0.041-2.662-0.109c-4.35-0.354-7.295-1.447-7.295-1.447c0.615-0.617,1.822-1.364,3.312-2.146&#xD;&#xA;&#x9;&#x9;&#x9;&#x9;c0.932-0.489,1.973-0.992,3.055-1.489c0.502-0.23,1.013-0.459,1.525-0.684c1.149-0.506,2.302-0.991,3.376-1.431&#xD;&#xA;&#x9;&#x9;&#x9;&#x9;c0.558-0.229,1.092-0.445,1.596-0.646c1.326-0.529,2.421-0.949,3.07-1.195c0.409-0.155,0.645-0.242,0.645-0.242l0.348-1.645&#xD;&#xA;&#x9;&#x9;&#x9;&#x9;l0.526-2.482l0.344-1.625c0.076-0.114,0.149-0.213,0.223-0.32C119.78,222.449,120.937,221.722,121.841,221.722 M121.841,220.521&#xD;&#xA;&#x9;&#x9;&#x9;&#x9;c-1.467,0-2.94,1.089-4.502,3.329l-0.068,0.097c-0.056,0.08-0.112,0.158-0.169,0.244l-0.128,0.191l-0.048,0.226l-0.344,1.626&#xD;&#xA;&#x9;&#x9;&#x9;&#x9;l-0.526,2.481l-0.212,1.001c-0.011,0.004-0.021,0.008-0.031,0.012c-1.027,0.39-2.067,0.795-3.09,1.204&#xD;&#xA;&#x9;&#x9;&#x9;&#x9;c-0.506,0.202-1.043,0.419-1.605,0.65c-1.215,0.497-2.36,0.983-3.405,1.441c-0.518,0.229-1.034,0.46-1.542,0.692&#xD;&#xA;&#x9;&#x9;&#x9;&#x9;c-1.174,0.538-2.222,1.049-3.113,1.518c-1.768,0.929-2.947,1.701-3.604,2.362l-1.318,1.322l1.751,0.65&#xD;&#xA;&#x9;&#x9;&#x9;&#x9;c0.126,0.047,3.152,1.155,7.616,1.519c0.919,0.074,1.848,0.112,2.759,0.112c0.815,0,1.635-0.03,2.436-0.091&#xD;&#xA;&#x9;&#x9;&#x9;&#x9;c0.757-0.058,1.512-0.141,2.245-0.25c1.682-0.252,3.339-0.649,4.928-1.183c0.701-0.235,1.407-0.506,2.099-0.804&#xD;&#xA;&#x9;&#x9;&#x9;&#x9;c0.558-0.239,1.021-0.452,1.459-0.672l0.732-0.368l-0.076-0.816c-0.001-0.015-0.138-1.524-0.077-3.484&#xD;&#xA;&#x9;&#x9;&#x9;&#x9;c0.019-0.602,0.055-1.194,0.108-1.763c0.108-1.165,0.289-2.217,0.535-3.125c0.197-0.728,0.438-1.367,0.718-1.899&#xD;&#xA;&#x9;&#x9;&#x9;&#x9;c0.107-0.205,0.207-0.377,0.306-0.525l0.272-0.411l-0.095-0.484C125.754,224.833,124.822,220.521,121.841,220.521&#xD;&#xA;&#x9;&#x9;&#x9;&#x9;L121.841,220.521z"/>
        </g>
        <g id="Stripes">
          <path fill="#ED1D43" d="M117.758,226.482l5.733,1.849c0.208-0.767,0.474-1.495,0.813-2.143l-5.978-1.651&#xD;&#xA;&#x9;&#x9;&#x9;&#x9;c-0.075,0.106-0.147,0.206-0.224,0.32L117.758,226.482z"/>
          <path fill="#ED1D43" d="M116.883,230.609c0,0-0.236,0.087-0.645,0.241l6.569,2.645c0.018-0.581,0.053-1.2,0.113-1.837&#xD;&#xA;&#x9;&#x9;&#x9;&#x9;l-5.688-2.694L116.883,230.609z"/>
          <path fill="#ED1D43" d="M111.574,232.693l7.913,5.846c0.667-0.224,1.336-0.48,2.007-0.768l-8.326-5.724&#xD;&#xA;&#x9;&#x9;&#x9;&#x9;C112.666,232.247,112.132,232.464,111.574,232.693z"/>
          <path fill="#ED1D43" d="M100.305,238.443c0,0,2.946,1.093,7.295,1.448l-3.982-3.594&#xD;&#xA;&#x9;&#x9;&#x9;&#x9;C102.127,237.079,100.92,237.825,100.305,238.443z"/>
          <path fill="#ED1D43" d="M106.673,234.808l5.936,5.104c0.705-0.054,1.425-0.132,2.157-0.24l-6.568-5.548&#xD;&#xA;&#x9;&#x9;&#x9;&#x9;C107.685,234.348,107.175,234.577,106.673,234.808z"/>
        </g>
      </g>
      <path id="L_Shoe" fill="#FFFFFF" stroke="#000000" stroke-width="2" stroke-linecap="round" stroke-linejoin="round" d="&#xD;&#xA;&#x9;&#x9;M115.709,230.043l-3.288,1.209c0,0,2.963,2.041,0.525,3.615c-2.437,1.575-5.157-2.768-5.157-2.768s-8.597,3.816-9.808,6.782&#xD;&#xA;&#x9;&#x9;c0,0,19.259,7.079,28.732-2.974l-1.777-2.525C124.938,233.382,118.656,236.259,115.709,230.043z"/>
    </g>
    <g id="R_Foot">
      <g id="L_Sock_2_">
        <g id="L_Sock_3_">
          <path fill="#FFFFFF" d="M182.987,243.796c-0.244,0-0.49-0.002-0.742-0.008c-1.719-0.037-3.428-0.206-5.078-0.502&#xD;&#xA;&#x9;&#x9;&#x9;&#x9;c-0.73-0.132-1.458-0.29-2.163-0.471c-1.61-0.413-3.186-0.967-4.681-1.646c-0.652-0.297-1.313-0.631-1.962-0.992&#xD;&#xA;&#x9;&#x9;&#x9;&#x9;c-0.531-0.296-0.96-0.551-1.352-0.802l-0.345-0.221l0.079-0.401c0.003-0.015,0.302-1.534,0.444-3.531&#xD;&#xA;&#x9;&#x9;&#x9;&#x9;c0.044-0.615,0.069-1.222,0.075-1.803c0.012-1.203-0.062-2.302-0.219-3.266c-0.128-0.785-0.313-1.488-0.553-2.089&#xD;&#xA;&#x9;&#x9;&#x9;&#x9;c-0.085-0.212-0.176-0.416-0.277-0.61l-0.113-0.218l0.072-0.235c0.123-0.405,1.276-3.957,3.614-3.957&#xD;&#xA;&#x9;&#x9;&#x9;&#x9;c1.329,0,2.607,1.139,3.904,3.479l0.248,0.453l0.599,5.636c0.09,0.044,0.198,0.1,0.324,0.162c0.621,0.312,1.671,0.844,2.939,1.51&#xD;&#xA;&#x9;&#x9;&#x9;&#x9;c0.481,0.252,0.991,0.522,1.524,0.809c1.152,0.617,2.238,1.215,3.226,1.777c0.488,0.278,0.976,0.559,1.455,0.841&#xD;&#xA;&#x9;&#x9;&#x9;&#x9;c1.101,0.65,2.081,1.261,2.913,1.813c1.61,1.07,2.66,1.92,3.209,2.597l0.588,0.726l-0.904,0.234&#xD;&#xA;&#x9;&#x9;&#x9;&#x9;C189.699,243.108,186.986,243.796,182.987,243.796L182.987,243.796z"/>
          <path d="M169.786,223.645c0.935,0,2.067,0.802,3.38,3.169c0.062,0.114,0.124,0.22,0.188,0.342l0.177,1.652l0.268,2.522&#xD;&#xA;&#x9;&#x9;&#x9;&#x9;l0.177,1.671c0,0,0.227,0.111,0.616,0.309c0.621,0.311,1.667,0.841,2.932,1.505c0.479,0.251,0.988,0.521,1.52,0.806&#xD;&#xA;&#x9;&#x9;&#x9;&#x9;c1.023,0.548,2.121,1.149,3.213,1.771c0.485,0.275,0.97,0.556,1.446,0.836c1.025,0.605,2.009,1.214,2.886,1.796&#xD;&#xA;&#x9;&#x9;&#x9;&#x9;c1.402,0.932,2.525,1.798,3.074,2.475c0,0-2.707,0.698-6.676,0.698c-0.238,0-0.482-0.002-0.729-0.008&#xD;&#xA;&#x9;&#x9;&#x9;&#x9;c-1.523-0.033-3.209-0.174-4.984-0.492c-0.694-0.125-1.403-0.277-2.12-0.462c-1.501-0.385-3.04-0.911-4.581-1.612&#xD;&#xA;&#x9;&#x9;&#x9;&#x9;c-0.641-0.29-1.279-0.613-1.918-0.97c-0.44-0.246-0.883-0.502-1.32-0.782c0,0,0.307-1.543,0.455-3.605&#xD;&#xA;&#x9;&#x9;&#x9;&#x9;c0.041-0.58,0.069-1.199,0.076-1.839c0.011-1.106-0.047-2.267-0.227-3.367c-0.127-0.785-0.317-1.536-0.588-2.216&#xD;&#xA;&#x9;&#x9;&#x9;&#x9;c-0.092-0.23-0.191-0.453-0.303-0.666C166.747,227.176,167.828,223.645,169.786,223.645 M169.786,222.444L169.786,222.444&#xD;&#xA;&#x9;&#x9;&#x9;&#x9;c-2.768,0.001-4.05,3.933-4.188,4.382l-0.145,0.471l0.229,0.437c0.085,0.164,0.167,0.346,0.249,0.554&#xD;&#xA;&#x9;&#x9;&#x9;&#x9;c0.225,0.561,0.399,1.222,0.52,1.965c0.151,0.929,0.222,1.993,0.212,3.163c-0.006,0.568-0.031,1.162-0.074,1.764&#xD;&#xA;&#x9;&#x9;&#x9;&#x9;c-0.141,1.966-0.432,3.443-0.436,3.458l-0.159,0.805l0.689,0.44c0.403,0.258,0.842,0.519,1.384,0.82&#xD;&#xA;&#x9;&#x9;&#x9;&#x9;c0.663,0.369,1.338,0.711,2.007,1.015c1.526,0.693,3.135,1.26,4.778,1.682c0.72,0.184,1.461,0.345,2.206,0.479&#xD;&#xA;&#x9;&#x9;&#x9;&#x9;c1.682,0.302,3.421,0.474,5.172,0.512c0.257,0.006,0.508,0.008,0.755,0.008c4.074,0,6.86-0.707,6.977-0.736l1.81-0.467&#xD;&#xA;&#x9;&#x9;&#x9;&#x9;l-1.177-1.451c-0.588-0.726-1.682-1.615-3.343-2.72c-0.841-0.559-1.831-1.174-2.939-1.829c-0.482-0.285-0.972-0.567-1.463-0.847&#xD;&#xA;&#x9;&#x9;&#x9;&#x9;c-0.993-0.564-2.083-1.165-3.24-1.784c-0.534-0.288-1.048-0.56-1.53-0.812c-1.234-0.647-2.285-1.181-2.948-1.514&#xD;&#xA;&#x9;&#x9;&#x9;&#x9;c-0.012-0.006-0.021-0.011-0.031-0.015l-0.107-1.018l-0.269-2.523l-0.175-1.651l-0.025-0.232l-0.109-0.205&#xD;&#xA;&#x9;&#x9;&#x9;&#x9;c-0.045-0.086-0.089-0.163-0.134-0.242l-0.064-0.115C172.805,223.683,171.355,222.444,169.786,222.444L169.786,222.444z"/>
        </g>
        <g id="Stripes_1_">
          <path fill="#ED1D43" d="M173.531,228.808l-5.893,1.25c-0.128-0.785-0.317-1.536-0.588-2.216l6.116-1.028&#xD;&#xA;&#x9;&#x9;&#x9;&#x9;c0.062,0.113,0.125,0.22,0.189,0.342L173.531,228.808z"/>
          <path fill="#ED1D43" d="M173.977,233.002c0,0,0.226,0.111,0.616,0.308l-6.805,1.955c0.041-0.58,0.069-1.199,0.076-1.839&#xD;&#xA;&#x9;&#x9;&#x9;&#x9;l5.936-2.095L173.977,233.002z"/>
          <path fill="#ED1D43" d="M179.044,235.62l-8.472,5.002c-0.641-0.291-1.28-0.614-1.917-0.97l8.869-4.838&#xD;&#xA;&#x9;&#x9;&#x9;&#x9;C178.004,235.066,178.513,235.335,179.044,235.62z"/>
          <path fill="#ED1D43" d="M189.663,242.497c0,0-3.041,0.785-7.405,0.69l4.33-3.165C187.99,240.954,189.114,241.821,189.663,242.497&#xD;&#xA;&#x9;&#x9;&#x9;&#x9;z"/>
          <path fill="#ED1D43" d="M183.703,238.227l-6.43,4.469c-0.694-0.125-1.403-0.277-2.121-0.462l7.104-4.843&#xD;&#xA;&#x9;&#x9;&#x9;&#x9;C182.741,237.666,183.227,237.947,183.703,238.227z"/>
        </g>
      </g>
      <path id="L_Shoe_3_" fill="#FFFFFF" stroke="#000000" stroke-width="2" stroke-linecap="round" stroke-linejoin="round" d="&#xD;&#xA;&#x9;&#x9;M175.202,232.561l3.146,1.539c0,0-3.157,1.727-0.894,3.542c2.262,1.814,5.414-2.224,5.414-2.224s8.16,4.679,9.059,7.754&#xD;&#xA;&#x9;&#x9;c0,0-19.883,5.063-28.274-5.909l2.027-2.33C165.68,234.934,171.634,238.441,175.202,232.561z"/>
    </g>
    <g id="Robe">
      <g id="Robe_1_">
        <path fill="#964197" d="M167.403,236.708c-8.799,0-16.438-1.798-22.706-5.345c-10.384-5.875-20.98-6.752-26.373-6.752&#xD;&#xA;&#x9;&#x9;&#x9;c-2.402,0-3.857,0.175-3.872,0.177c-0.037,0.004-0.073,0.006-0.109,0.006c-0.226,0-0.445-0.085-0.613-0.239&#xD;&#xA;&#x9;&#x9;&#x9;c-0.194-0.181-0.3-0.438-0.288-0.701c0.001-0.034,0.15-3.392,0.065-8c-0.085-4.569-0.42-11.203-1.537-16.861&#xD;&#xA;&#x9;&#x9;&#x9;c-0.792-4.02-1.868-7.022-3.195-8.925c-2.822-4.047-3.26-12.637-3.13-19.13c0.074-3.689,0.353-7.703,0.808-11.609&#xD;&#xA;&#x9;&#x9;&#x9;c0.591-5.092,1.663-11.31,2.945-14.345c-1.163-0.047-2.932-0.154-5.146-0.396l-0.237-0.026c-1.707-0.192-3.403-0.431-5.086-0.717&#xD;&#xA;&#x9;&#x9;&#x9;c-3.537-0.598-7.028-1.4-10.379-2.383c-3.597-1.055-7.066-2.33-10.309-3.79c-3.825-1.721-7.435-3.752-10.729-6.039&#xD;&#xA;&#x9;&#x9;&#x9;c-1.918-1.33-3.717-2.731-5.347-4.165c-0.218-0.191-0.33-0.475-0.301-0.764c0.061-0.633,1.591-15.573,9.81-20.763&#xD;&#xA;&#x9;&#x9;&#x9;c0.148-0.093,0.314-0.138,0.48-0.138c0.245,0,0.486,0.099,0.662,0.288c0.019,0.02,1.849,1.988,4.998,4.759&#xD;&#xA;&#x9;&#x9;&#x9;c1.784,1.569,3.643,3.092,5.524,4.526c5.011,3.819,10.142,6.993,15.25,9.435c1.462,0.699,2.843,1.306,4.22,1.854&#xD;&#xA;&#x9;&#x9;&#x9;c0.698,0.167,7.352,1.749,13.047,2.348c0.292,0.031,0.579,0.056,0.866,0.081l0.101,0.008c0.533,0.046,1.054,0.084,1.559,0.107&#xD;&#xA;&#x9;&#x9;&#x9;c0.466,0.022,0.918,0.035,1.351,0.035c0.396,0,0.776-0.011,1.133-0.033c0.02-0.002,0.039-0.002,0.059-0.002&#xD;&#xA;&#x9;&#x9;&#x9;c0.397,0,0.75,0.262,0.863,0.648c0.012,0.041,1.223,4.156,2.93,8.562c0.613,1.582,1.224,3.027,1.813,4.295&#xD;&#xA;&#x9;&#x9;&#x9;c1.05,2.257,2.026,3.939,2.911,5.019c0.28-0.308,0.636-0.713,1.034-1.197c0.378-0.458,0.746-0.932,1.094-1.405&#xD;&#xA;&#x9;&#x9;&#x9;c2.227-3.03,4.741-7.552,4.075-11.882c-0.047-0.306,0.065-0.614,0.3-0.817c0.166-0.144,0.377-0.221,0.59-0.221&#xD;&#xA;&#x9;&#x9;&#x9;c0.088,0,0.175,0.013,0.26,0.039c0.027,0.008,2.722,0.819,6.847,2.113c1.56,0.49,3.329,1.05,5.248,1.666l1.242,0.4&#xD;&#xA;&#x9;&#x9;&#x9;c1.182,0.381,2.409,0.78,3.675,1.195l1.215,0.399c1.3,0.429,2.633,0.873,3.985,1.327c0.006,0.001,1.655,0.559,2.481,0.839&#xD;&#xA;&#x9;&#x9;&#x9;c2.56,0.873,4.992,1.721,7.227,2.521c1.283,0.459,2.554,0.92,3.804,1.381c4.74,1.751,8.736,3.349,11.877,4.748&#xD;&#xA;&#x9;&#x9;&#x9;c3.289,1.465,5.597,2.687,7.061,3.733c0.34,0.244,0.468,0.691,0.307,1.078l-8.164,19.634c-0.108,0.262-0.334,0.457-0.607,0.526&#xD;&#xA;&#x9;&#x9;&#x9;c-0.073,0.019-0.148,0.028-0.224,0.028c-0.201,0-0.401-0.067-0.562-0.196c-0.021-0.016-2.066-1.647-5.141-3.962&#xD;&#xA;&#x9;&#x9;&#x9;c-3.69-2.778-9.223-6.812-14.621-10.247c-1.028-0.656-2.04-1.281-3.006-1.857c-4.05-2.415-7.257-3.957-9.554-4.593&#xD;&#xA;&#x9;&#x9;&#x9;c-0.736,1.979-2.647,8.312-1.578,18.415c0.057,0.535,0.122,1.08,0.194,1.636c0.723,5.448,2.206,11.192,4.405,17.069&#xD;&#xA;&#x9;&#x9;&#x9;c1.206,3.22,2.666,6.567,4.341,9.947c1.072,2.164,2.243,4.36,3.479,6.529c1.772,3.107,3.755,6.292,5.892,9.465&#xD;&#xA;&#x9;&#x9;&#x9;c2.332,3.463,4.921,7.016,7.695,10.561c1.938,2.477,3.971,4.96,6.045,7.382c0.204,0.237,0.27,0.564,0.173,0.863&#xD;&#xA;&#x9;&#x9;&#x9;s-0.343,0.524-0.647,0.598C179.666,235.5,174.527,236.708,167.403,236.708L167.403,236.708z"/>
        <path d="M72.154,106.703c0,0,1.836,1.983,5.063,4.823c1.553,1.365,3.422,2.927,5.573,4.566c4.204,3.204,9.46,6.69,15.407,9.532&#xD;&#xA;&#x9;&#x9;&#x9;c1.409,0.674,2.853,1.314,4.336,1.903c0,0,7.104,1.739,13.226,2.383c0.333,0.036,0.658,0.063,0.984,0.091&#xD;&#xA;&#x9;&#x9;&#x9;c0.544,0.047,1.078,0.086,1.593,0.11c0.481,0.022,0.948,0.035,1.394,0.035c0.417,0,0.815-0.012,1.191-0.035&#xD;&#xA;&#x9;&#x9;&#x9;c0,0,1.211,4.138,2.954,8.634c0.564,1.456,1.184,2.946,1.836,4.35c1.178,2.531,2.462,4.769,3.718,5.957&#xD;&#xA;&#x9;&#x9;&#x9;c0,0,0.737-0.725,1.739-1.942c0.35-0.425,0.729-0.908,1.124-1.444c2.272-3.092,4.959-7.88,4.24-12.552c0,0,2.669,0.802,6.836,2.11&#xD;&#xA;&#x9;&#x9;&#x9;c1.559,0.488,3.327,1.049,5.243,1.664c0.407,0.131,0.822,0.264,1.241,0.399c1.18,0.381,2.406,0.779,3.67,1.194&#xD;&#xA;&#x9;&#x9;&#x9;c0.401,0.131,0.806,0.264,1.213,0.399c1.302,0.429,2.638,0.874,3.99,1.329c0.004,0,0.007,0.002,0.01,0.003&#xD;&#xA;&#x9;&#x9;&#x9;c0.813,0.274,1.634,0.551,2.459,0.833c2.396,0.816,4.824,1.66,7.216,2.515c1.279,0.458,2.547,0.918,3.793,1.378&#xD;&#xA;&#x9;&#x9;&#x9;c4.369,1.614,8.463,3.228,11.822,4.726c3,1.336,5.418,2.58,6.902,3.644l-8.164,19.633c0,0-2.039-1.627-5.16-3.977&#xD;&#xA;&#x9;&#x9;&#x9;c-3.84-2.892-9.321-6.878-14.679-10.288c-1.018-0.648-2.032-1.275-3.028-1.869c-4.075-2.432-7.87-4.32-10.556-4.879&#xD;&#xA;&#x9;&#x9;&#x9;c0,0-3.284,6.809-1.934,19.568c0.058,0.541,0.123,1.094,0.198,1.658c0.656,4.948,2.002,10.716,4.454,17.268&#xD;&#xA;&#x9;&#x9;&#x9;c1.184,3.163,2.634,6.511,4.377,10.031c1.055,2.128,2.218,4.319,3.505,6.575c1.744,3.059,3.712,6.233,5.927,9.522&#xD;&#xA;&#x9;&#x9;&#x9;c2.3,3.414,4.871,6.955,7.732,10.612c1.893,2.418,3.909,4.888,6.071,7.411c0,0-5.171,1.234-12.271,1.234&#xD;&#xA;&#x9;&#x9;&#x9;c-6.622,0-14.923-1.074-22.264-5.228c-10.519-5.951-21.215-6.868-26.815-6.868c-2.498,0-3.981,0.183-3.981,0.183&#xD;&#xA;&#x9;&#x9;&#x9;s0.153-3.362,0.065-8.058c-0.092-4.974-0.453-11.443-1.553-17.018c-0.736-3.733-1.802-7.062-3.34-9.268&#xD;&#xA;&#x9;&#x9;&#x9;c-2.383-3.415-3.125-10.768-2.969-18.596c0.078-3.865,0.374-7.844,0.802-11.524c0.889-7.653,2.344-14.007,3.567-15.312&#xD;&#xA;&#x9;&#x9;&#x9;c0,0-0.009,0-0.028,0c-0.29,0-2.736-0.012-6.537-0.428c-0.091-0.01-0.186-0.021-0.278-0.031c-1.483-0.167-3.162-0.395-4.993-0.704&#xD;&#xA;&#x9;&#x9;&#x9;c-3.07-0.52-6.565-1.271-10.275-2.359c-3.28-0.963-6.728-2.188-10.193-3.747c-3.563-1.603-7.143-3.569-10.586-5.957&#xD;&#xA;&#x9;&#x9;&#x9;c-1.8-1.249-3.565-2.605-5.265-4.102C62.76,126.791,64.214,111.716,72.154,106.703 M72.153,104.902&#xD;&#xA;&#x9;&#x9;&#x9;c-0.331,0-0.664,0.092-0.961,0.278c-8.587,5.422-10.163,20.786-10.226,21.438c-0.055,0.576,0.169,1.143,0.604,1.525&#xD;&#xA;&#x9;&#x9;&#x9;c1.656,1.457,3.482,2.879,5.428,4.229c3.34,2.317,6.999,4.376,10.874,6.12c3.282,1.477,6.789,2.765,10.425,3.833&#xD;&#xA;&#x9;&#x9;&#x9;c3.384,0.992,6.91,1.802,10.482,2.407c1.699,0.287,3.413,0.529,5.091,0.718l0.05,0.005l0.234,0.026&#xD;&#xA;&#x9;&#x9;&#x9;c1.56,0.17,2.903,0.275,3.972,0.338c-1.405,4.167-2.284,10.951-2.568,13.402c-0.458,3.934-0.739,7.979-0.813,11.696&#xD;&#xA;&#x9;&#x9;&#x9;c-0.133,6.627,0.331,15.418,3.292,19.663c1.255,1.8,2.281,4.688,3.05,8.584c1.104,5.593,1.435,12.171,1.52,16.702&#xD;&#xA;&#x9;&#x9;&#x9;c0.084,4.576-0.062,7.911-0.064,7.943c-0.024,0.53,0.187,1.043,0.576,1.403c0.335,0.311,0.772,0.479,1.224,0.479&#xD;&#xA;&#x9;&#x9;&#x9;c0.073,0,0.146-0.004,0.22-0.013c0.012-0.002,1.426-0.169,3.762-0.169c5.303,0,15.723,0.862,25.928,6.636&#xD;&#xA;&#x9;&#x9;&#x9;c6.405,3.623,14.195,5.461,23.15,5.461c7.229,0,12.47-1.231,12.689-1.284c0.61-0.146,1.101-0.598,1.294-1.195&#xD;&#xA;&#x9;&#x9;&#x9;c0.193-0.596,0.062-1.252-0.345-1.729c-2.065-2.411-4.091-4.884-6.02-7.349c-2.762-3.529-5.338-7.064-7.658-10.51&#xD;&#xA;&#x9;&#x9;&#x9;c-2.124-3.154-4.095-6.318-5.856-9.407c-1.229-2.154-2.391-4.336-3.455-6.483c-1.662-3.354-3.11-6.671-4.304-9.863&#xD;&#xA;&#x9;&#x9;&#x9;c-2.177-5.814-3.643-11.49-4.356-16.873c-0.073-0.558-0.138-1.099-0.191-1.609c-0.934-8.818,0.442-14.688,1.25-17.206&#xD;&#xA;&#x9;&#x9;&#x9;c2.142,0.724,4.999,2.148,8.524,4.251c0.958,0.571,1.962,1.191,2.983,1.843c5.373,3.419,10.886,7.438,14.563,10.207&#xD;&#xA;&#x9;&#x9;&#x9;c3.062,2.305,5.1,3.931,5.12,3.946c0.322,0.258,0.719,0.393,1.123,0.393c0.149,0,0.301-0.018,0.448-0.057&#xD;&#xA;&#x9;&#x9;&#x9;c0.548-0.14,0.998-0.53,1.215-1.053l8.164-19.634c0.321-0.774,0.066-1.667-0.614-2.155c-1.513-1.084-3.873-2.335-7.219-3.825&#xD;&#xA;&#x9;&#x9;&#x9;c-3.157-1.407-7.171-3.012-11.931-4.77c-1.243-0.459-2.525-0.926-3.812-1.385c-2.24-0.801-4.676-1.651-7.24-2.525&#xD;&#xA;&#x9;&#x9;&#x9;c-0.828-0.282-1.65-0.561-2.465-0.835c-0.006-0.002-0.011-0.003-0.016-0.005c-0.004-0.001-0.008-0.001-0.011-0.003&#xD;&#xA;&#x9;&#x9;&#x9;c-1.352-0.455-2.684-0.899-3.984-1.327l-1.216-0.4c-1.266-0.416-2.496-0.815-3.678-1.197l-1.246-0.4&#xD;&#xA;&#x9;&#x9;&#x9;c-1.919-0.616-3.691-1.178-5.253-1.667c-4.13-1.296-6.83-2.108-6.857-2.117c-0.17-0.051-0.345-0.077-0.518-0.077&#xD;&#xA;&#x9;&#x9;&#x9;c-0.429,0-0.85,0.154-1.183,0.442c-0.466,0.405-0.691,1.022-0.598,1.633c0.619,4.025-1.786,8.319-3.912,11.212&#xD;&#xA;&#x9;&#x9;&#x9;c-0.338,0.46-0.696,0.919-1.063,1.366c-0.095,0.115-0.188,0.226-0.277,0.333c-0.583-0.867-1.302-2.129-2.155-3.963&#xD;&#xA;&#x9;&#x9;&#x9;c-0.582-1.25-1.184-2.677-1.79-4.24c-1.692-4.367-2.893-8.449-2.905-8.49c-0.226-0.772-0.933-1.295-1.728-1.295&#xD;&#xA;&#x9;&#x9;&#x9;c-0.039,0-0.078,0.001-0.117,0.004c-0.325,0.021-0.687,0.032-1.076,0.032c-0.399,0-0.839-0.012-1.31-0.034&#xD;&#xA;&#x9;&#x9;&#x9;c-0.456-0.022-0.954-0.057-1.524-0.105l-0.1-0.009c-0.28-0.024-0.562-0.048-0.849-0.079c-5.507-0.579-11.92-2.087-12.868-2.314&#xD;&#xA;&#x9;&#x9;&#x9;c-1.339-0.535-2.684-1.126-4.106-1.806c-5.053-2.415-10.131-5.558-15.093-9.339c-1.864-1.421-3.706-2.93-5.475-4.487&#xD;&#xA;&#x9;&#x9;&#x9;c-3.107-2.734-4.914-4.674-4.931-4.694C73.125,105.1,72.642,104.902,72.153,104.902L72.153,104.902z"/>
      </g>
      <path id="Star_7_" fill="#F6EC50" d="M84.416,120.321l-2.251,10.958l11.107-5.688l5.771,5.688l-0.845-5.655&#xD;&#xA;&#x9;&#x9;c-5.947-2.842-11.204-6.328-15.408-9.532l-4.679,1.377L84.416,120.321z"/>
      <path id="Star_6_" fill="#F6EC50" d="M110.475,152.743l10.036,0.546l-9.277-7.451l1.216-5.431l-0.873-0.453l-7.228,3.736&#xD;&#xA;&#x9;&#x9;c4.053,0.442,6.566,0.428,6.566,0.428c-1.223,1.305-2.679,7.659-3.568,15.312l1.488,1.117L110.475,152.743z"/>
      <path id="Star_5_" fill="#F6EC50" d="M168.574,157.246l8.577,5.154l-2.572-6.955l7.731-4.554l-8.933-1.4l-1.174-4.554&#xD;&#xA;&#x9;&#x9;c-1.246-0.46-2.515-0.921-3.793-1.378l-3.218,3.932l-8.326,1.063l7.205,4.707l-4.174,3.545c0.997,0.594,2.011,1.221,3.029,1.869&#xD;&#xA;&#x9;&#x9;L168.574,157.246z"/>
      <path id="Star_4_" fill="#F6EC50" d="M143.808,161.848l-7.655,8.559l-7.835-2.052l5.457,8.105l-5.457,7.505l9.968-3.902&#xD;&#xA;&#x9;&#x9;l8.674,4.953l-3.151-8.556l3.799-3.308c-0.074-0.563-0.14-1.116-0.197-1.658h-4.22L143.808,161.848z"/>
      <path id="Star_3_" fill="#F6EC50" d="M127.296,194.172l-10.102-10.207l6.649-10.533l-10.95,3.929l-6.347-6.405&#xD;&#xA;&#x9;&#x9;c-0.157,7.828,0.585,15.181,2.968,18.596c1.538,2.205,2.604,5.534,3.34,9.268l2.583-7.348L127.296,194.172z"/>
      <path id="Star_2_" fill="#F6EC50" d="M128.317,206.355l10.877,4.931l-1.785,10.905l5.104,2.067l4.941-2.957l7.725,6.713&#xD;&#xA;&#x9;&#x9;l7.341,0.979l-5.091-10.619l8.441-1.824c-2.215-3.29-4.183-6.465-5.927-9.522l-2.515-0.518l-0.99-6.058&#xD;&#xA;&#x9;&#x9;c-1.744-3.521-3.192-6.868-4.377-10.031l-5.224,11.467L128.317,206.355z"/>
      <path id="Star_1_" fill="#F6EC50" d="M78.611,136.849c3.466,1.56,6.913,2.785,10.193,3.747l0.814-7.067L78.611,136.849z"/>
      <path id="Star" fill="#F6EC50" d="M99.376,138.434l-0.296,4.522c1.831,0.31,3.509,0.537,4.993,0.704L99.376,138.434z"/>
      <path id="Bottom" fill="#DBA0C7" d="M173.603,227.161c-2.989,0.088-7.431,0.094-12.121-0.335c-3.178-0.29-6.464-0.78-9.488-1.582&#xD;&#xA;&#x9;&#x9;c-2.479-0.656-4.774-1.523-6.688-2.658c-0.121-0.072-0.248-0.14-0.366-0.213c-1.973-1.238-4.412-2.241-7.06-3.06&#xD;&#xA;&#x9;&#x9;c-8.399-2.595-18.91-3.293-23.472-3.479c0.087,4.695-0.065,8.058-0.065,8.058s15.586-1.92,30.796,6.686&#xD;&#xA;&#x9;&#x9;c15.211,8.606,34.534,3.994,34.534,3.994C177.513,232.049,175.495,229.58,173.603,227.161z"/>
      <path id="Cuff" fill="#DBA0C7" d="M190.929,153.306c-1.484-1.063-3.902-2.308-6.902-3.644c-0.776,3.744-2.896,12.769-6.422,19.301&#xD;&#xA;&#x9;&#x9;c3.121,2.349,5.161,3.978,5.161,3.978L190.929,153.306z"/>
      <path id="Cuff_1_" fill="#DBA0C7" d="M72.154,106.703c-7.94,5.013-9.394,20.088-9.394,20.088c1.701,1.496,3.465,2.853,5.265,4.102&#xD;&#xA;&#x9;&#x9;c1.722-8.568,6.798-16.155,9.192-19.367C73.991,108.686,72.154,106.703,72.154,106.703z"/>
      <path id="Neck" fill="#DBA0C7" d="M143.369,135.222c-4.167-1.308-6.837-2.11-6.837-2.11c1.201,7.806-7.103,15.938-7.103,15.938&#xD;&#xA;&#x9;&#x9;c-4.101-3.876-8.508-18.94-8.508-18.94c-1.466,0.094-3.268-0.002-5.163-0.201c1.667,5.521,6.439,20.007,12.369,26.418&#xD;&#xA;&#x9;&#x9;C128.128,156.327,140.661,148.443,143.369,135.222z"/>
    </g>
    <g id="Head_1_">
      <g id="Hair_Right">
        <path id="Fill_4_" fill="#5F2E00" d="M157.261,133.203c0.188-0.886,0.699-1.675,1.53-2.106c1.845-0.956,0.312-1.734-1.058-2.778&#xD;&#xA;&#x9;&#x9;&#x9;c-0.461-0.35-0.782-0.715-1.147-1.156c-0.913-1.104-0.823-2.686-0.647-3.997c0.26-1.938,0.538-3.731-1.732-4.444&#xD;&#xA;&#x9;&#x9;&#x9;c-0.484-0.152-1.003-0.284-1.464-0.502c-0.783-0.371-1.691-0.786-2.027-1.659c-0.741-1.932-0.461-5.003-3.272-5.363&#xD;&#xA;&#x9;&#x9;&#x9;c-0.758-0.098-0.767-1.299,0-1.201c1.625,0.209,2.765,0.916,3.375,2.542c0.402,1.072,0.495,2.244,0.899,3.296&#xD;&#xA;&#x9;&#x9;&#x9;c0.504,1.313,2.297,1.554,3.449,1.951c1.003,0.345,2.077,1.172,2.183,2.318c0.186,2.023-1.213,5.205,0.556,6.777&#xD;&#xA;&#x9;&#x9;&#x9;c0.793,0.707,1.662,1.318,2.47,2.005c0.631,0.536,1.281,1.819,0.42,2.458c-1.094,0.811-3.089,1.646-1.839,3.517&#xD;&#xA;&#x9;&#x9;&#x9;c0.407,0.61,0.88,1.181,1.269,1.801c0.801,1.279,0.876,2.326,0.457,3.17c1.996-0.947,0.18-3.491,0.543-5.793&#xD;&#xA;&#x9;&#x9;&#x9;c0.14-0.885,1.079-1.631,1.691-2.182c0.674-0.606,1.713-1.895,0.386-2.213c-0.225-0.091-0.441-0.196-0.652-0.315&#xD;&#xA;&#x9;&#x9;&#x9;c-1.909-0.957-2.007-4.706-2.237-6.474c-0.29-2.229-0.345-4.582-2.551-5.754c-1.425-0.757-2.325-1.576-3.339-2.832&#xD;&#xA;&#x9;&#x9;&#x9;c-1.084-1.344-1.998-2.921-3.229-4.126c-1.547-1.514-3.203-1.215-5.053-1.738c-3.024-0.854-3.54-3.418-5.728-5.289&#xD;&#xA;&#x9;&#x9;&#x9;c-3.054-2.608-7.843-3.688-11.777-2.748c-3.875,0.926-7.962,3.523-9.887,7.124c-2.065,3.866-0.765,7.42-1.215,11.521&#xD;&#xA;&#x9;&#x9;&#x9;c-0.193,1.756-0.658,3.415-0.982,5.143c-0.415,2.215,0.235,3.62,1.409,5.371c0.122,0.182,0.207,0.38,0.275,0.584&#xD;&#xA;&#x9;&#x9;&#x9;c0.931,0.044,1.807,0.051,2.586,0c0,0,1.211,4.138,2.954,8.634c1.28,0.964,2.34,2.233,3.074,3.658&#xD;&#xA;&#x9;&#x9;&#x9;c1.223,2.375,2.862,3.498,5.343,3.261c2.272-3.092,4.959-7.88,4.24-12.552c0,0,2.669,0.803,6.836,2.11&#xD;&#xA;&#x9;&#x9;&#x9;c1.559,0.489,3.327,1.049,5.243,1.664c0.334-1.677,1.456-3.907-0.104-5.186c-1.218-0.999-2.443-1.653-2.469-3.39&#xD;&#xA;&#x9;&#x9;&#x9;c-0.012-0.775,1.189-0.774,1.201,0c0.023,1.682,2.002,1.992,2.761,3.257c0.714,1.189,0.601,2.392,0.224,3.697&#xD;&#xA;&#x9;&#x9;&#x9;c-0.201,0.702-0.393,1.347-0.372,2.022c1.18,0.381,2.407,0.779,3.67,1.194c0.746-0.82,1.131-1.848,0.638-3.139&#xD;&#xA;&#x9;&#x9;&#x9;c-0.099-0.258-0.928-1.567-0.916-2.127c0.039-1.892,1.804-3.334-0.829-4.347c-0.756-0.291-1.59-0.707-1.824-1.571&#xD;&#xA;&#x9;&#x9;&#x9;c-0.395-1.45,0.674-4.477-0.951-5.272c-0.695-0.339-0.088-1.375,0.606-1.037c1.899,0.929,1.876,1.754,1.462,3.629&#xD;&#xA;&#x9;&#x9;&#x9;c-0.697,3.15,2.967,3.098,3.917,5.491c0.468,1.178-1.725,1.953-1.046,3.263c0.493,0.951,1.093,2.09,0.988,3.206&#xD;&#xA;&#x9;&#x9;&#x9;c-0.088,0.926-0.386,1.671-0.83,2.302c1.302,0.43,2.638,0.875,3.99,1.33C161.938,138.377,156.684,135.932,157.261,133.203z"/>
        <path id="Wave_3_" d="M160.681,139.832c0.419-0.845,0.344-1.891-0.457-3.17c-0.389-0.62-0.861-1.191-1.269-1.801&#xD;&#xA;&#x9;&#x9;&#x9;c-1.25-1.872,0.744-2.706,1.839-3.517c0.861-0.638,0.211-1.922-0.42-2.458c-0.809-0.688-1.677-1.299-2.47-2.005&#xD;&#xA;&#x9;&#x9;&#x9;c-1.768-1.573-0.37-4.754-0.556-6.777c-0.105-1.146-1.18-1.974-2.182-2.319c-1.153-0.396-2.946-0.637-3.45-1.951&#xD;&#xA;&#x9;&#x9;&#x9;c-0.404-1.052-0.497-2.224-0.899-3.296c-0.61-1.625-1.75-2.333-3.375-2.541c-0.767-0.099-0.758,1.104,0,1.201&#xD;&#xA;&#x9;&#x9;&#x9;c2.812,0.361,2.531,3.431,3.272,5.363c0.336,0.874,1.244,1.288,2.027,1.659c0.461,0.218,0.979,0.35,1.464,0.502&#xD;&#xA;&#x9;&#x9;&#x9;c2.271,0.713,1.992,2.505,1.732,4.444c-0.176,1.312-0.266,2.893,0.647,3.998c0.365,0.441,0.688,0.806,1.147,1.155&#xD;&#xA;&#x9;&#x9;&#x9;c1.37,1.044,2.902,1.823,1.058,2.778c-0.831,0.431-1.343,1.22-1.53,2.106c-0.577,2.729,4.677,5.174,1.466,7.004&#xD;&#xA;&#x9;&#x9;&#x9;c0.004,0.001,0.007,0.002,0.01,0.003c0.113-0.006,0.228-0.013,0.34-0.022C159.778,140.136,160.3,140.013,160.681,139.832z"/>
        <path id="Wave_4_" d="M154.579,133.369c-0.679-1.309,1.514-2.084,1.046-3.262c-0.95-2.394-4.614-2.341-3.917-5.491&#xD;&#xA;&#x9;&#x9;&#x9;c0.414-1.875,0.438-2.701-1.462-3.629c-0.693-0.339-1.302,0.696-0.606,1.037c1.625,0.795,0.557,3.822,0.951,5.272&#xD;&#xA;&#x9;&#x9;&#x9;c0.235,0.865,1.068,1.279,1.824,1.571c2.633,1.013,0.868,2.455,0.829,4.347c-0.012,0.56,0.817,1.869,0.916,2.127&#xD;&#xA;&#x9;&#x9;&#x9;c0.493,1.29,0.109,2.319-0.638,3.139c0.402,0.131,0.806,0.264,1.214,0.398c0.443-0.631,0.741-1.376,0.829-2.303&#xD;&#xA;&#x9;&#x9;&#x9;C155.673,135.46,155.072,134.321,154.579,133.369z"/>
        <path id="Wave_5_" d="M150.226,135.263c0.377-1.305,0.489-2.507-0.224-3.696c-0.759-1.265-2.737-1.575-2.762-3.257&#xD;&#xA;&#x9;&#x9;&#x9;c-0.011-0.774-1.212-0.775-1.201,0c0.026,1.736,1.251,2.391,2.469,3.39c1.561,1.278,0.438,3.509,0.104,5.186&#xD;&#xA;&#x9;&#x9;&#x9;c0.407,0.131,0.822,0.265,1.241,0.399C149.833,136.61,150.023,135.965,150.226,135.263z"/>
        <path id="Outline_3_" d="M118.061,129.526c-1.174-1.751-1.824-3.156-1.409-5.371c0.324-1.728,0.789-3.387,0.982-5.143&#xD;&#xA;&#x9;&#x9;&#x9;c0.45-4.101-0.85-7.655,1.215-11.521c1.924-3.601,6.013-6.198,9.887-7.124c3.933-0.94,8.723,0.14,11.776,2.748&#xD;&#xA;&#x9;&#x9;&#x9;c2.188,1.87,2.703,4.434,5.728,5.289c1.852,0.523,3.506,0.224,5.053,1.738c1.231,1.205,2.146,2.783,3.23,4.126&#xD;&#xA;&#x9;&#x9;&#x9;c1.013,1.256,1.914,2.075,3.339,2.832c2.206,1.173,2.261,3.526,2.551,5.754c0.229,1.768,0.328,5.517,2.237,6.474&#xD;&#xA;&#x9;&#x9;&#x9;c0.211,0.12,0.428,0.225,0.652,0.315c1.327,0.318,0.288,1.607-0.386,2.213c-0.613,0.551-1.553,1.297-1.691,2.182&#xD;&#xA;&#x9;&#x9;&#x9;c-0.364,2.302,1.452,4.847-0.544,5.793c-0.381,0.18-0.9,0.304-1.604,0.355c-0.113,0.009-0.226,0.016-0.34,0.022&#xD;&#xA;&#x9;&#x9;&#x9;c0.813,0.274,1.634,0.551,2.459,0.833c1.23-0.443,1.83-1.303,1.811-2.82c-0.022-1.792-1.355-3.47,0.309-5.119&#xD;&#xA;&#x9;&#x9;&#x9;c0.645-0.64,1.589-1.209,1.941-2.095c0.202-0.507,0.407-1.14,0.021-1.621c-0.219-0.274-0.301-0.463-0.604-0.579&#xD;&#xA;&#x9;&#x9;&#x9;c-1.953-0.74-2.439-2.403-2.801-4.167c-0.52-2.54-0.169-5.897-2.228-7.815c-1.15-1.072-2.65-1.494-3.74-2.727&#xD;&#xA;&#x9;&#x9;&#x9;c-1.347-1.526-2.427-3.269-3.764-4.805c-0.832-0.956-1.854-1.45-3.061-1.744c-2.781-0.68-4.17-0.597-6.007-3.114&#xD;&#xA;&#x9;&#x9;&#x9;c-1.939-2.658-4.141-4.253-7.383-5.024c-6.477-1.539-12.644,0.847-16.834,5.941c-1.753,2.13-2.58,4.75-2.607,7.476&#xD;&#xA;&#x9;&#x9;&#x9;c-0.021,2.071,0.307,4.098,0.181,6.186c-0.141,2.327-1.006,4.514-1.217,6.829c-0.148,1.623,0.821,2.833,1.528,4.158&#xD;&#xA;&#x9;&#x9;&#x9;c0.544,0.047,1.078,0.086,1.593,0.11C118.268,129.906,118.183,129.708,118.061,129.526z"/>
      </g>
      <g id="Head">
        <path fill="#985B05" d="M129.372,149.554c-0.115-0.121-2.824-2.991-4.34-5.461c-1.525-2.483-2.705-6.495-2.754-6.666l-0.037-0.126&#xD;&#xA;&#x9;&#x9;&#x9;l0.174-1.172c-0.091-0.464-0.19-0.954-0.261-1.293c-0.102,0.003-0.201,0.005-0.296,0.005c-2.128,0-2.539-1.196-3.028-4.132&#xD;&#xA;&#x9;&#x9;&#x9;c-0.184-1.098-0.018-1.96,0.492-2.562c0.48-0.567,1.248-0.866,2.22-0.866c0.043,0,0.086,0,0.128,0.001&#xD;&#xA;&#x9;&#x9;&#x9;c-3.284-8.073-3.836-14.395-1.638-18.797c1.677-3.362,4.993-5.676,9.853-6.877c1.039-0.256,2.07-0.386,3.067-0.386&#xD;&#xA;&#x9;&#x9;&#x9;c6.265,0,9.595,4.965,10.202,5.966l0.011,0.005l0.106,0.194c8.865,14.791,6.527,22.399,4.344,25.614&#xD;&#xA;&#x9;&#x9;&#x9;c-0.583,0.972-1.403,1.828-2.42,2.519c-4.196,2.848-7.655,4.116-8.527,4.411l-6.778,10.17L129.372,149.554z"/>
        <path d="M132.952,101.823c6.543,0,9.774,5.823,9.774,5.823l0,0h0.001c0,0,0.006,0.011,0.015,0.026&#xD;&#xA;&#x9;&#x9;&#x9;c8.93,14.9,6.211,22.291,4.376,24.993c-0.525,0.872-1.252,1.673-2.261,2.358c-4.743,3.22-8.575,4.402-8.575,4.402l-6.475,9.716&#xD;&#xA;&#x9;&#x9;&#x9;c0,0-2.763-2.917-4.264-5.361c-1.501-2.444-2.689-6.52-2.689-6.52l0.17-1.144c0,0-0.371-1.901-0.4-1.901l0,0&#xD;&#xA;&#x9;&#x9;&#x9;c-0.284,0.015-0.538,0.027-0.766,0.027c-1.543,0-1.917-0.515-2.436-3.63c-0.386-2.316,1.048-2.73,2.121-2.73&#xD;&#xA;&#x9;&#x9;&#x9;c0.596,0,1.082,0.128,1.082,0.128c-7.505-17.612-1.101-23.716,7.405-25.818C131.068,101.934,132.042,101.822,132.952,101.823&#xD;&#xA;&#x9;&#x9;&#x9; M132.952,100.621L132.952,100.621c-1.045,0-2.125,0.136-3.211,0.404c-5.039,1.245-8.486,3.664-10.246,7.191&#xD;&#xA;&#x9;&#x9;&#x9;c-2.239,4.486-1.812,10.556,1.311,18.519c-0.814,0.128-1.477,0.476-1.941,1.024c-0.629,0.742-0.84,1.768-0.626,3.048&#xD;&#xA;&#x9;&#x9;&#x9;c0.467,2.804,0.889,4.549,3.428,4.631c0.046,0.224,0.094,0.467,0.141,0.705l-0.139,0.939l-0.039,0.261l0.074,0.252&#xD;&#xA;&#x9;&#x9;&#x9;c0.05,0.173,1.251,4.26,2.819,6.812c1.548,2.522,4.299,5.436,4.416,5.559l1.035,1.094l0.835-1.253l6.249-9.375&#xD;&#xA;&#x9;&#x9;&#x9;c1.145-0.404,4.491-1.71,8.477-4.415c1.08-0.733,1.953-1.643,2.599-2.705c2.257-3.348,4.665-11.193-4.352-26.244l-0.014-0.024&#xD;&#xA;&#x9;&#x9;&#x9;l-0.014-0.025c-0.009-0.015-0.02-0.033-0.033-0.055l-0.133-0.229l-0.011-0.005C142.729,105.397,139.254,100.621,132.952,100.621&#xD;&#xA;&#x9;&#x9;&#x9;L132.952,100.621z"/>
      </g>
      <g id="Mouth_1_">
        <g id="Tongue">
          <path id="Fill_1_" fill="#F17FB1" d="M132.683,132.454c1.066,0.602,2.428-0.354,3.184-1.261&#xD;&#xA;&#x9;&#x9;&#x9;&#x9;c-0.271-0.147-0.547-0.331-0.819-0.531c-0.11-0.08-0.22-0.157-0.329-0.244c-0.01-0.008-0.021-0.016-0.032-0.024&#xD;&#xA;&#x9;&#x9;&#x9;&#x9;c-0.335,0.321-0.894,0.788-1.134,0.583c-0.213-0.181,0.174-0.73,0.511-1.135c0.001-0.001,0.003-0.002,0.004-0.004&#xD;&#xA;&#x9;&#x9;&#x9;&#x9;c-0.284-0.282-0.548-0.584-0.782-0.902c-0.001-0.001-0.002-0.003-0.003-0.004C132.086,129.359,131.337,131.695,132.683,132.454z"/>
          <g id="Outline_1_">
            <path fill="#231F20" d="M134.686,130.395c0.011,0.009,0.022,0.016,0.032,0.024c-0.241-0.191-0.462-0.384-0.655-0.576&#xD;&#xA;&#x9;&#x9;&#x9;&#x9;&#x9;c-0.337,0.405-0.724,0.954-0.511,1.135C133.792,131.183,134.352,130.716,134.686,130.395z"/>
            <path fill="#231F20" d="M136.261,131.377c-0.215-0.104-0.416-0.212-0.607-0.326c-0.021-0.012-0.041-0.024-0.062-0.036&#xD;&#xA;&#x9;&#x9;&#x9;&#x9;&#x9;c-0.191-0.115-0.375-0.232-0.545-0.353c0.272,0.2,0.548,0.384,0.819,0.531c-0.755,0.907-2.117,1.862-3.183,1.261&#xD;&#xA;&#x9;&#x9;&#x9;&#x9;&#x9;c-1.346-0.759-0.596-3.095,0.599-3.521c0,0.001,0.002,0.003,0.003,0.004c-0.115-0.16-0.211-0.308-0.294-0.444&#xD;&#xA;&#x9;&#x9;&#x9;&#x9;&#x9;c-0.004-0.006-0.008-0.013-0.011-0.018c-0.083-0.136-0.148-0.256-0.201-0.361c-0.121-0.237-0.173-0.383-0.173-0.383&#xD;&#xA;&#x9;&#x9;&#x9;&#x9;&#x9;c-0.771,0.566-1.438,1.595-1.594,2.299c-0.244,1.094-0.175,2.364,0.72,3.149c1.65,1.447,4.099,0.018,5.25-1.485&#xD;&#xA;&#x9;&#x9;&#x9;&#x9;&#x9;C136.726,131.596,136.488,131.489,136.261,131.377z"/>
          </g>
        </g>
        <path id="Mouth" fill="#231F20" d="M142.445,130.989c-2.12,0.387-4.283,0.182-6.042-1.17c-1.4-1.075-1.844-2.555-2.931-3.816&#xD;&#xA;&#x9;&#x9;&#x9;c-0.388-0.449-1.15-0.083-1.141,0.473c0.008,0.421,0.109,0.842,0.273,1.256c0,0,0.051,0.145,0.171,0.379&#xD;&#xA;&#x9;&#x9;&#x9;c0.108,0.212,0.271,0.499,0.508,0.826c0.234,0.318,0.498,0.621,0.782,0.902c-0.001,0.001-0.003,0.003-0.004,0.004&#xD;&#xA;&#x9;&#x9;&#x9;c0.193,0.192,0.414,0.385,0.655,0.576c0.109,0.086,0.219,0.164,0.329,0.244c0.355,0.252,0.761,0.493,1.214,0.714&#xD;&#xA;&#x9;&#x9;&#x9;c0.228,0.111,0.464,0.218,0.721,0.316c1.85,0.696,3.816,0.815,5.79,0.475C143.544,132.034,143.217,130.847,142.445,130.989z"/>
      </g>
      <g id="Nose">
        <path id="Fill" fill="#985B05" d="M139.374,123.895c0.424,0.999,0.911,1.721,1.864,2.284c1.098,0.647,2.753,0.467,3.479-0.658&#xD;&#xA;&#x9;&#x9;&#x9;c0.862-1.335-1.883-3.864-2.589-4.857c-0.128-0.18-0.054-0.368,0.088-0.475c-2.864-0.512-3.561,2.001-3.728,3.25&#xD;&#xA;&#x9;&#x9;&#x9;C138.847,123.385,139.211,123.507,139.374,123.895z"/>
        <path id="Outline" fill="#231F20" d="M142.725,120.202c-0.149-0.148-0.364-0.123-0.508-0.014&#xD;&#xA;&#x9;&#x9;&#x9;c-0.142,0.107-0.216,0.296-0.088,0.475c0.707,0.993,3.451,3.522,2.589,4.857c-0.727,1.125-2.382,1.306-3.479,0.658&#xD;&#xA;&#x9;&#x9;&#x9;c-0.954-0.562-1.44-1.285-1.864-2.284c-0.163-0.388-0.527-0.509-0.885-0.458c-0.552,0.081-1.089,0.582-0.853,1.188&#xD;&#xA;&#x9;&#x9;&#x9;c1.064,2.722,5.163,4.927,7.57,2.38C147.437,124.649,144.378,121.844,142.725,120.202z"/>
      </g>
      <g id="L_Eye_1_">
        <ellipse id="L_Eye" fill="#231F20" cx="132.573" cy="117.544" rx="1.525" ry="1.801"/>
        <path id="L_Eyebrow" fill="#231F20" d="M133.744,112.701c-1.527-1.688-5.93,0.287-4.597,2.6c0.26,0.453,1.006,0.151,0.849-0.358&#xD;&#xA;&#x9;&#x9;&#x9;c-0.396-1.274,2.339-2.559,3.113-1.607C133.469,113.78,134.134,113.135,133.744,112.701z"/>
      </g>
      <g id="R_Eye_1_">
        <ellipse id="R_Eye" fill="#231F20" cx="144.431" cy="116.715" rx="1.176" ry="1.388"/>
        <path id="R_Eyebrow" fill="#231F20" d="M147.195,114.391c0.208-2.267-4.23-4.165-5.027-1.617c-0.155,0.499,0.572,0.842,0.84,0.381&#xD;&#xA;&#x9;&#x9;&#x9;c0.668-1.154,3.466-0.014,3.291,1.2C146.218,114.92,147.142,114.972,147.195,114.391z"/>
      </g>
      <g id="Hair_Left">
        <path id="Fill_2_" fill="#5F2E00" d="M125.927,103.033c-2.565,0.615-5.589,1.396-7.712,3.026c-3.615,2.776-1.29,5.98-1.538,9.606&#xD;&#xA;&#x9;&#x9;&#x9;c-0.144,2.102-2.088,3.281-3.608,4.371c-2.029,1.456-1.662,5.612-4.398,6.352c-1.086,0.293-2.068,0.216-3.188,0.182&#xD;&#xA;&#x9;&#x9;&#x9;c-2.011-0.061-2.085,2.387-2.467,3.822c-0.335,1.258-0.703,2.574-1.43,3.675c-0.426,0.644-1.372,1.734-1.276,2.531&#xD;&#xA;&#x9;&#x9;&#x9;c0.807,1.951,2.012,2.6,3.617,1.946c1.992-0.598,4.336-1.608,6.388-0.627c1.217,0.581,3.615,3.013,5.087,1.948&#xD;&#xA;&#x9;&#x9;&#x9;c1.09-0.788,1.886-1.853,3.094-2.46c0.749-0.375,3.861-0.287,3.173-2.121c-0.344-0.917-0.868-1.778-1.161-2.714&#xD;&#xA;&#x9;&#x9;&#x9;c-0.497-1.588-0.411-2.88,0.679-4.173c0.466-0.552,1.45-0.8,2.097-0.994c2.29-0.685,0.799-2.749,0.506-4.125&#xD;&#xA;&#x9;&#x9;&#x9;c-0.425-2.005,0.317-3.448,1.095-5.242c1.113-2.569-2.178-5.164-1.618-8.016c0.837-4.268,3.771-4.609,7.216-4.564&#xD;&#xA;&#x9;&#x9;&#x9;c-0.05-0.1-0.094-0.204-0.133-0.316C129.6,102.997,128.024,102.531,125.927,103.033z"/>
        <path id="Fill_3_" fill="#5F2E00" d="M132.985,105.315c0.036,0.018,0.061,0.041,0.092,0.061c0.607-0.205,1.319-1.085,1.704-1.243&#xD;&#xA;&#x9;&#x9;&#x9;c1.015-0.415,1.893-0.213,2.918,0.078c1.038,0.294,2.104,0.92,3.021,1.487c0.632,0.39,1.268,0.836,1.947,1.141&#xD;&#xA;&#x9;&#x9;&#x9;c1.39,0.235,1.438-0.312,0.141-1.641c-1.554-1.399-3.435-5.093-5.542-5.016c-1.438,0.052-3.613,0.054-4.845,0.995&#xD;&#xA;&#x9;&#x9;&#x9;c-0.552,0.421-1.024,0.781-1.551,1.081C131.531,103.287,131.593,104.641,132.985,105.315z"/>
        <path id="Wave_2_" fill="#231F20" d="M114.306,129.396c-0.143,1.473,3.037,7.088-1.35,6.191c-1.037-0.21-1.478,1.371-0.438,1.589&#xD;&#xA;&#x9;&#x9;&#x9;c2.015,0.422,4.407-0.152,4.469-2.676c0.037-1.523-0.565-2.691-1.001-4.11c-0.56-1.814,2.239-1.937,3.42-2.259&#xD;&#xA;&#x9;&#x9;&#x9;c2.34-0.64,2.922-2.773,2.058-4.979c-0.76-1.938,1.038-3.045,1.707-4.587c0.367-0.847,0.015-1.777-0.271-2.578&#xD;&#xA;&#x9;&#x9;&#x9;c-0.077-0.217-0.389-0.183-0.401,0.054c-0.07,1.556-0.505,2.4-1.388,3.582c-0.453,0.606-1.06,1.385-1.125,2.18&#xD;&#xA;&#x9;&#x9;&#x9;c-0.087,1.025,0.232,1.991,0.187,3.02c-0.076,1.761-1.998,1.843-3.147,2.227C116.012,127.389,114.424,128.145,114.306,129.396z"/>
        <path id="Wave_1_" fill="#231F20" d="M114.049,126.325c-0.008-0.733-1.078-0.716-1.126,0c-0.106,1.546-2.696,0.854-3.342,2.309&#xD;&#xA;&#x9;&#x9;&#x9;c-0.526,1.188-0.237,1.983,0.363,3.077c1.393,2.539-2.153,2.613-3.71,3.227c-1.149,0.455-2.102,1.004-2.711,2.113&#xD;&#xA;&#x9;&#x9;&#x9;c-0.473,0.859,0.839,1.626,1.312,0.767c1.418-2.582,7.203-1.354,6.935-5.208c-0.05-0.738-0.571-1.335-0.938-1.936&#xD;&#xA;&#x9;&#x9;&#x9;c-0.949-1.553,0.343-1.952,1.523-2.184C113.591,128.248,114.061,127.564,114.049,126.325z"/>
        <path id="Wave" fill="#231F20" d="M108.476,130.245c-0.444-0.84-1.582-1.899-0.142-2.354c0.474-0.149,0.274-0.817-0.202-0.734&#xD;&#xA;&#x9;&#x9;&#x9;c-0.921,0.164-1.709,0.465-1.745,1.51c-0.031,0.922,0.935,1.62,1.073,2.492c0.145,0.912-2.191,0.978-2.743,1.198&#xD;&#xA;&#x9;&#x9;&#x9;c-0.919,0.369-1.509,0.918-1.747,1.902c-0.194,0.794,1.007,1.126,1.22,0.338c0.475-1.754,3.376-0.9,4.372-2.467&#xD;&#xA;&#x9;&#x9;&#x9;C108.927,131.557,108.773,130.809,108.476,130.245z"/>
        <path fill="none" d="M125.927,103.033c-2.565,0.615-5.589,1.396-7.712,3.026c-3.615,2.776-1.29,5.98-1.538,9.606&#xD;&#xA;&#x9;&#x9;&#x9;c-0.144,2.102-2.088,3.281-3.608,4.371c-2.029,1.456-1.662,5.612-4.398,6.352c-1.086,0.293-2.068,0.216-3.188,0.182&#xD;&#xA;&#x9;&#x9;&#x9;c-2.011-0.061-2.085,2.387-2.467,3.822c-0.335,1.258-0.703,2.574-1.43,3.675c-0.426,0.644-1.372,1.734-1.276,2.531&#xD;&#xA;&#x9;&#x9;&#x9;c0.807,1.951,2.012,2.6,3.617,1.946c1.992-0.598,4.336-1.608,6.388-0.627c1.217,0.581,3.615,3.013,5.087,1.948&#xD;&#xA;&#x9;&#x9;&#x9;c1.09-0.788,1.886-1.853,3.094-2.46c0.749-0.375,3.861-0.287,3.173-2.121c-0.344-0.917-0.868-1.778-1.161-2.714&#xD;&#xA;&#x9;&#x9;&#x9;c-0.497-1.588-0.411-2.88,0.679-4.173c0.466-0.552,1.45-0.8,2.097-0.994c2.29-0.685,0.799-2.749,0.506-4.125&#xD;&#xA;&#x9;&#x9;&#x9;c-0.425-2.005,0.317-3.448,1.095-5.242c1.113-2.569-2.178-5.164-1.618-8.016c0.837-4.268,3.771-4.609,7.216-4.564&#xD;&#xA;&#x9;&#x9;&#x9;c-0.05-0.1-0.094-0.204-0.133-0.316C129.6,102.997,128.024,102.531,125.927,103.033z"/>
        <path id="Outline_2_" fill="#231F20" d="M133.542,107.377c0.459-0.083,0.93-0.628,1.239-0.935&#xD;&#xA;&#x9;&#x9;&#x9;c1.388-1.377,3.632-0.027,5.031,0.812c1.058,0.634,6.25,3.5,5.67-0.212c-0.277-1.775-1.049-2.864-2.415-3.991&#xD;&#xA;&#x9;&#x9;&#x9;c-1.584-1.306-1.316-3.167-3.177-4.24c-1.243-0.717-3.229-0.471-4.56-0.288c-1.021,0.14-1.99,0.317-2.972,0.637&#xD;&#xA;&#x9;&#x9;&#x9;c-0.978,0.319-1.668,1.148-2.574,1.639c-0.158,0.085-0.321,0.164-0.495,0.225c-0.048,0.016-0.091,0.039-0.133,0.061&#xD;&#xA;&#x9;&#x9;&#x9;c-0.021-0.004-0.037-0.012-0.057-0.016c-2.597-0.604-5.753,0.747-8.135,1.62c-2.403,0.88-4.557,2.112-6.007,4.262&#xD;&#xA;&#x9;&#x9;&#x9;c-2.198,3.26,1.538,7.349-1.028,10.227c-0.843,0.946-2.18,1.55-3.149,2.391c-0.917,0.796-1.165,2.142-1.433,3.251&#xD;&#xA;&#x9;&#x9;&#x9;c-0.994,4.12-5.467,0.195-6.868,3.054c-0.621,1.269-0.873,2.674-1.199,4.041c-0.447,1.876-1.404,3.327-2.35,4.959&#xD;&#xA;&#x9;&#x9;&#x9;c-0.838,1.445-0.413,4.131,1.138,5.007c2.282,1.288,4.491,0.324,6.821-0.351c3.359-0.973,5.208,2.792,8.52,2.299&#xD;&#xA;&#x9;&#x9;&#x9;c1.115-0.166,2.205-1.436,2.947-2.174c1.027-1.022,2.917-0.942,4.162-1.682c1.419-0.845,1.164-2.629,0.605-3.895&#xD;&#xA;&#x9;&#x9;&#x9;c-0.718-1.624-2.127-4.087,0.64-4.937c1.011-0.311,1.783-0.605,2.499-1.395c0.471-0.52,0.581-1.482,0.381-2.133&#xD;&#xA;&#x9;&#x9;&#x9;c-0.547-1.779-1.542-3.139-0.938-5.099c0.748-2.429,2.011-3.672,0.599-6.168c-1.483-2.62-2.061-6.741,1.891-7.168&#xD;&#xA;&#x9;&#x9;&#x9;c1.324-0.143,2.708,0.089,4.036,0.118c0.004,0,0.008-0.002,0.013-0.002c0.11,0.043,0.224,0.073,0.341,0.096&#xD;&#xA;&#x9;&#x9;&#x9;C132.87,107.443,133.181,107.441,133.542,107.377z M123.267,110.019c-0.56,2.852,2.731,5.447,1.618,8.016&#xD;&#xA;&#x9;&#x9;&#x9;c-0.777,1.794-1.521,3.237-1.095,5.242c0.292,1.376,1.784,3.44-0.506,4.125c-0.647,0.194-1.631,0.442-2.097,0.994&#xD;&#xA;&#x9;&#x9;&#x9;c-1.09,1.293-1.175,2.584-0.679,4.173c0.292,0.935,0.816,1.797,1.161,2.714c0.688,1.834-2.426,1.746-3.173,2.121&#xD;&#xA;&#x9;&#x9;&#x9;c-1.209,0.607-2.004,1.672-3.094,2.46c-1.473,1.064-3.871-1.367-5.087-1.949c-2.052-0.979-4.396,0.03-6.388,0.628&#xD;&#xA;&#x9;&#x9;&#x9;c-1.605,0.654-2.811,0.005-3.617-1.946c-0.096-0.797,0.85-1.888,1.276-2.531c0.728-1.101,1.095-2.417,1.43-3.675&#xD;&#xA;&#x9;&#x9;&#x9;c0.382-1.435,0.456-3.883,2.466-3.822c1.119,0.034,2.102,0.111,3.188-0.182c2.737-0.74,2.369-4.896,4.398-6.352&#xD;&#xA;&#x9;&#x9;&#x9;c1.52-1.09,3.464-2.269,3.607-4.371c0.249-3.626-2.076-6.83,1.539-9.606c2.123-1.63,5.147-2.411,7.712-3.026&#xD;&#xA;&#x9;&#x9;&#x9;c2.097-0.503,3.671-0.036,4.422,2.105c0.04,0.112,0.084,0.217,0.134,0.316C127.038,105.409,124.104,105.751,123.267,110.019z&#xD;&#xA;&#x9;&#x9;&#x9; M132.421,101.178c1.232-0.941,3.406-0.943,4.845-0.995c2.107-0.077,3.988,3.618,5.542,5.016c1.297,1.329,1.249,1.876-0.142,1.641&#xD;&#xA;&#x9;&#x9;&#x9;c-0.68-0.305-1.314-0.751-1.947-1.141c-0.918-0.567-1.983-1.193-3.021-1.487c-1.025-0.291-1.902-0.493-2.918-0.078&#xD;&#xA;&#x9;&#x9;&#x9;c-0.385,0.158-1.097,1.038-1.703,1.243c-0.031-0.02-0.056-0.043-0.092-0.061c-1.392-0.674-1.454-2.028-2.115-3.056&#xD;&#xA;&#x9;&#x9;&#x9;C131.398,101.959,131.87,101.599,132.421,101.178z"/>
      </g>
      <g id="Hat">
        <g>
          <path fill="#964197" d="M114.066,124.768c-0.4,0-0.75-0.222-0.936-0.592c-0.097-0.193-0.23-0.543-0.522-1.318&#xD;&#xA;&#x9;&#x9;&#x9;&#x9;c-0.508-1.349-1.361-3.606-2.569-6.341c-1.849-4.182-3.861-7.957-5.982-11.219c-0.64-0.984-1.435-1.9-2.364-2.723&#xD;&#xA;&#x9;&#x9;&#x9;&#x9;c-5.89-5.22-15.434-5.37-16.503-5.37c0,0-0.07,0-0.074,0c-0.389,0-0.734-0.25-0.855-0.619c-0.123-0.374,0.011-0.784,0.33-1.013&#xD;&#xA;&#x9;&#x9;&#x9;&#x9;c0.092-0.066,2.3-1.631,6.831-3.156c1.006-0.339,2.074-0.656,3.174-0.943c0.222-0.058,0.446-0.114,0.674-0.171&#xD;&#xA;&#x9;&#x9;&#x9;&#x9;c1.254-0.308,2.585-0.584,3.954-0.817c3.694-0.631,7.667-0.95,11.806-0.95c2.214,0,4.514,0.091,6.835,0.274&#xD;&#xA;&#x9;&#x9;&#x9;&#x9;c7.793,0.61,14.373,2.843,19.559,6.639c4.537,3.321,6.854,7.039,7.833,8.959c0.525,1.031,0.747,1.692,0.757,1.72&#xD;&#xA;&#x9;&#x9;&#x9;&#x9;c0.087,0.262,0.049,0.548-0.103,0.779s-0.399,0.378-0.674,0.403c-0.002,0-0.447,0.039-1.187,0.111&#xD;&#xA;&#x9;&#x9;&#x9;&#x9;c-0.687,0.065-1.623,0.159-2.726,0.276c-2.227,0.238-4.284,0.486-6.114,0.738c-4.804,0.663-11.211,4.66-14.227,7.288&#xD;&#xA;&#x9;&#x9;&#x9;&#x9;c-1.637,1.427-3.188,3.712-4.322,5.379C115.344,124.042,114.85,124.768,114.066,124.768L114.066,124.768z"/>
          <path d="M111.03,90.436c2.117,0,4.371,0.083,6.765,0.271c8.822,0.691,14.926,3.416,19.097,6.468&#xD;&#xA;&#x9;&#x9;&#x9;&#x9;c4.312,3.158,6.553,6.661,7.562,8.641c0.5,0.983,0.704,1.596,0.704,1.596s-0.447,0.039-1.193,0.111&#xD;&#xA;&#x9;&#x9;&#x9;&#x9;c-0.688,0.066-1.629,0.16-2.735,0.277c-1.786,0.19-3.98,0.443-6.142,0.741c-4.954,0.683-11.428,4.654-14.695,7.501&#xD;&#xA;&#x9;&#x9;&#x9;&#x9;c-3.034,2.646-5.614,7.825-6.326,7.825c-0.054,0-0.098-0.03-0.13-0.095c-0.247-0.494-1.269-3.539-3.073-7.62&#xD;&#xA;&#x9;&#x9;&#x9;&#x9;c-1.485-3.36-3.499-7.42-6.051-11.346c-0.72-1.107-1.576-2.069-2.522-2.906c-6.165-5.464-16.143-5.597-17.1-5.597&#xD;&#xA;&#x9;&#x9;&#x9;&#x9;c-0.049,0-0.075,0-0.075,0s2.138-1.534,6.592-3.034c0.935-0.315,1.973-0.627,3.115-0.925c0.217-0.056,0.438-0.112,0.662-0.167&#xD;&#xA;&#x9;&#x9;&#x9;&#x9;c1.19-0.292,2.488-0.565,3.891-0.805C102.663,90.812,106.539,90.436,111.03,90.436 M111.03,88.635&#xD;&#xA;&#x9;&#x9;&#x9;&#x9;c-4.19,0-8.213,0.324-11.957,0.962c-1.391,0.238-2.743,0.517-4.019,0.831c-0.232,0.057-0.461,0.115-0.686,0.173&#xD;&#xA;&#x9;&#x9;&#x9;&#x9;c-1.12,0.292-2.208,0.615-3.235,0.961c-4.658,1.567-6.972,3.209-7.068,3.278c-0.639,0.458-0.906,1.279-0.66,2.027&#xD;&#xA;&#x9;&#x9;&#x9;&#x9;c0.243,0.739,0.934,1.237,1.71,1.237c0.009,0,0.017,0,0.025,0h0.049c0.412,0,10.167,0.059,15.905,5.144&#xD;&#xA;&#x9;&#x9;&#x9;&#x9;c0.868,0.77,1.611,1.624,2.206,2.54c2.095,3.223,4.085,6.955,5.914,11.093c1.199,2.712,2.045,4.954,2.551,6.294&#xD;&#xA;&#x9;&#x9;&#x9;&#x9;c0.312,0.826,0.442,1.17,0.56,1.403c0.336,0.672,1.003,1.089,1.741,1.089c1.261,0,1.913-0.959,3.341-3.061&#xD;&#xA;&#x9;&#x9;&#x9;&#x9;c1.105-1.627,2.619-3.856,4.168-5.208c2.932-2.554,9.137-6.438,13.757-7.074c1.822-0.251,3.87-0.499,6.088-0.735&#xD;&#xA;&#x9;&#x9;&#x9;&#x9;c1.098-0.117,2.032-0.21,2.715-0.275c0.734-0.071,1.177-0.109,1.18-0.11c0.549-0.048,1.047-0.345,1.349-0.806&#xD;&#xA;&#x9;&#x9;&#x9;&#x9;c0.303-0.461,0.378-1.035,0.203-1.558c-0.024-0.076-0.263-0.772-0.808-1.844c-1.015-1.992-3.417-5.847-8.104-9.278&#xD;&#xA;&#x9;&#x9;&#x9;&#x9;c-5.323-3.896-12.059-6.187-20.021-6.81C115.591,88.727,113.268,88.635,111.03,88.635L111.03,88.635z"/>
        </g>
        <path fill="#F6EC50" d="M144.454,105.816c-1.01-1.98-3.25-5.483-7.562-8.641l-5.884,6.31h9.347l0.875,4.316&#xD;&#xA;&#x9;&#x9;&#x9;c1.106-0.118,2.047-0.212,2.735-0.277L144.454,105.816z"/>
        <path fill="#F6EC50" d="M111.777,111.517l10.312-4.105l-11.572-2.236l-1.242-8.643l-4.568,6.282l-2.417-0.914&#xD;&#xA;&#x9;&#x9;&#x9;c0.945,0.837,1.802,1.8,2.522,2.906c2.552,3.926,4.566,7.986,6.051,11.346l3.974,1.266L111.777,111.517z"/>
        <path fill="#F6EC50" d="M99.376,94.365v-2.992c-1.403,0.24-2.702,0.512-3.891,0.804L99.376,94.365z"/>
        <path fill="#F6EC50" d="M94.823,92.346c-1.142,0.297-2.179,0.609-3.115,0.924l1.063,2.249L94.823,92.346z"/>
      </g>
    </g>
  </g>
</svg>