<?xml version="1.0" encoding="UTF-8" standalone="no"?>
<svg
   version="1.1"
   width="138.49487"
   height="186.62508"
   id="svg83"
   sodipodi:docname="wizard2.svg"
   xmlns:inkscape="http://www.inkscape.org/namespaces/inkscape"
   xmlns:sodipodi="http://sodipodi.sourceforge.net/DTD/sodipodi-0.dtd"
   xmlns="http://www.w3.org/2000/svg"
   xmlns:svg="http://www.w3.org/2000/svg">
  <defs
     id="defs87" />
  <sodipodi:namedview
     id="namedview85"
     pagecolor="#ffffff"
     bordercolor="#000000"
     borderopacity="0.25"
     inkscape:showpageshadow="2"
     inkscape:pageopacity="0.0"
     inkscape:pagecheckerboard="0"
     inkscape:deskcolor="#d1d1d1" />
  <!-- Exported by Scratch - http://scratch.mit.edu/ -->
  <g
     id="ID0.4986550793983042"
     transform="matrix(1.0447565,0,0,1.0447565,-0.02983952,-0.37985744)">
    <g
       id="L_Foot">
      <path
         id="Fill_9_"
         fill="#8cb332"
         d="m 330.367,644.695 c 3.453,-0.872 6.95,-2.045 9.848,-4.185 1.717,-1.266 2.953,-2.903 4.418,-4.344 -3.639,-0.617 -7.185,-1.645 -10.569,-3.151 -0.164,-0.038 -0.323,-0.074 -0.478,-0.108 -3.035,2.729 -6.49,5.059 -9.933,7.171 -2.893,1.775 -5.995,3.711 -9.225,5.117 5.31,0.667 10.632,0.838 15.939,-0.5 z"
         transform="matrix(0.59873694,0,0,0.59873694,-173.85,-209.45)" />
      <path
         id="Outline_12_"
         fill="#231f20"
         d="m 308.268,644.878 c -0.498,0.587 -0.427,1.596 0.56,1.955 7.007,2.56 15.159,2.299 22.374,0.866 5.471,-1.082 14.563,-4.498 16.528,-10.503 0.063,-0.192 0.141,-0.379 0.188,-0.576 0,0 -1.348,-0.154 -3.296,-0.508 -2.856,-0.518 -7.004,-1.466 -10.119,-2.993 -1.405,-0.688 -2.602,-1.494 -3.37,-2.432 -0.944,0.828 -1.604,1.335 -1.604,1.335 l -0.023,-0.008 c -0.078,0.062 -0.16,0.119 -0.238,0.181 -6.07,4.834 -13.314,8.341 -20.216,11.605 -0.511,0.243 -0.747,0.647 -0.784,1.078 z m 15.385,-4.8 c 3.443,-2.112 6.898,-4.441 9.933,-7.171 0.023,-0.021 0.048,-0.04 0.072,-0.061 0.134,0.062 0.272,0.109 0.406,0.169 3.384,1.507 6.931,2.534 10.569,3.151 -1.465,1.44 -2.701,3.078 -4.418,4.344 -2.898,2.14 -6.395,3.312 -9.848,4.185 -5.307,1.338 -10.629,1.167 -15.939,0.5 3.23,-1.406 6.332,-3.341 9.225,-5.117 z"
         transform="matrix(0.59873694,0,0,0.59873694,-173.85,-209.45)" />
    </g>
    <g
       id="R_Foot">
      <path
         id="Fill_8_"
         fill="#8cb332"
         d="m 491.836,628.479 c -5.939,-0.997 -11.82,-2.905 -16.863,-6.245 -3.282,2.392 -6.395,4.055 -8.803,5.146 8.116,7.246 17.329,8.503 25.666,1.099 z"
         transform="matrix(0.59873694,0,0,0.59873694,-173.85,-209.45)" />
      <path
         id="Outline_11_"
         fill="#231f20"
         d="m 494.543,628.844 c 1.76,-0.146 1.604,-3.121 -0.385,-3.386 -5.805,-0.772 -11.324,-2.58 -16.281,-5.507 -0.975,0.828 -1.944,1.584 -2.904,2.282 5.043,3.34 10.924,5.248 16.863,6.245 -8.337,7.404 -17.55,6.147 -25.666,-1.099 -2.816,1.277 -4.67,1.787 -4.67,1.787 l 0.025,0.126 c 0.353,-0.13 0.709,-0.25 1.059,-0.387 8.195,10.35 23.742,9.887 31.959,-0.061 z"
         transform="matrix(0.59873694,0,0,0.59873694,-173.85,-209.45)" />
    </g>
    <g
       id="L_Hand">
      <path
         id="Fill_6_"
         fill="#f9dd9c"
         d="m 313.945,563.771 c -0.01,0.019 -0.021,0.027 -0.033,0.046 -0.148,0.573 -0.58,1.113 -1.18,1.077 -5.527,-0.338 -16.847,-0.781 -19.854,5.314 -1.122,2.273 5.11,-0.465 5.524,-0.681 2.309,-1.198 7.59,-1.702 10.309,-1.888 1.312,-0.089 1.275,1.416 0.072,1.765 -3.156,0.914 -6.062,3.229 -8.426,5.435 -1.289,1.203 -2.699,2.468 -3.652,3.967 -0.445,0.613 -0.793,1.277 -1.047,1.995 -1.072,2.653 2.951,2.782 4.507,0.819 3.651,-4.545 5.221,-9.35 11.667,-10.289 0.688,-0.1 1.588,0.297 1.502,1.146 -0.311,3.137 -2.078,5.354 -3.441,8.102 -0.76,1.532 -1.508,3.235 -1.451,5.002 -0.526,2.635 1.326,4.957 3.682,3.032 1.131,-0.926 0.758,-2.864 0.951,-4.3 0.451,-3.324 0.658,-11.683 4.957,-12.863 3.156,-0.867 3.65,3.403 5.391,4.81 3.352,2.706 2.611,-4.528 0.039,-5.927 -1.389,-0.756 -3.441,-0.736 -4.938,-1.125 -5.02,-1.297 -0.791,-5.317 1.684,-7.637 -1.277,-0.642 -2.484,-1.365 -3.58,-2.189 -0.907,1.454 -1.802,2.917 -2.683,4.389 z"
         transform="matrix(0.59873694,0,0,0.59873694,-173.85,-209.45)" />
      <path
         id="Outline_6_"
         fill="#231f20"
         d="m 320.207,561.57 c -2.475,2.318 -6.703,6.34 -1.684,7.637 1.496,0.389 3.549,0.369 4.938,1.125 2.572,1.398 3.312,8.633 -0.039,5.927 -1.74,-1.405 -2.234,-5.677 -5.391,-4.81 -4.299,1.182 -4.506,9.539 -4.957,12.864 -0.193,1.435 0.18,3.374 -0.951,4.299 -2.355,1.925 -4.208,-0.397 -3.682,-3.032 -0.057,-1.766 0.691,-3.47 1.451,-5.002 1.363,-2.748 3.131,-4.965 3.441,-8.102 0.086,-0.849 -0.814,-1.244 -1.502,-1.146 -6.446,0.94 -8.016,5.744 -11.667,10.289 -1.556,1.963 -5.579,1.834 -4.507,-0.819 0.254,-0.718 0.602,-1.382 1.047,-1.995 0.953,-1.499 2.363,-2.764 3.652,-3.967 2.363,-2.206 5.27,-4.521 8.426,-5.435 1.203,-0.349 1.24,-1.854 -0.072,-1.764 -2.719,0.185 -8,0.688 -10.309,1.887 -0.414,0.216 -6.646,2.954 -5.524,0.681 3.008,-6.097 14.327,-5.651 19.854,-5.314 0.6,0.036 1.031,-0.503 1.18,-1.077 0.012,-0.019 0.023,-0.027 0.033,-0.046 0.873,-1.458 1.759,-2.907 2.657,-4.35 -0.849,-0.604 -1.6,-1.253 -2.088,-1.905 -1.01,1.604 -2.01,3.217 -2.99,4.84 -0.006,0.014 -0.01,0.021 -0.016,0.033 -4.521,-0.189 -9.849,0.622 -13.917,1.997 -2.319,0.783 -6.339,3.267 -7.034,5.828 -0.644,2.373 0.9,3.68 3.209,3.666 1.608,-0.008 3.402,-1.075 4.787,-1.771 1.115,-0.562 2.168,-1.012 3.221,-1.382 -4.799,2.986 -9.338,7.601 -8.449,12.195 0.509,2.623 4.919,2.943 6.677,1.72 4.386,-3.062 5.237,-9.078 10.558,-10.646 -1.16,3.416 -3.842,6.299 -4.537,9.99 -0.457,2.426 0.258,6.913 3.119,7.7 7.078,1.946 5.641,-11.229 7.238,-14.75 0.521,-1.153 0.842,-2.502 1.895,-3.278 0.719,-0.529 2.529,2.945 2.855,3.404 0.541,0.764 1.492,1.522 2.402,1.772 1.523,0.418 3.674,0.334 4.275,-1.479 0.939,-2.844 -1.008,-6.661 -3.123,-8.476 -1.021,-0.873 -2.738,-0.931 -3.986,-1.123 -3.096,-0.479 0.256,-3.56 1.836,-5.131 0,0 -1.434,-0.595 -3.129,-1.502 0.269,0.151 0.527,0.31 0.803,0.448 z"
         transform="matrix(0.59873694,0,0,0.59873694,-173.85,-209.45)" />
    </g>
    <g
       id="R_Hand">
      <path
         id="Fill_7_"
         fill="#f9dd9c"
         d="m 488.174,410.494 c 2.521,2.385 1.974,6.885 -1.59,8.579 -1.574,0.75 -2.953,-1.608 -1.369,-2.349 1.758,-0.819 3.729,-4.444 1.104,-5.45 -1.039,-0.397 -2.011,-1.136 -0.961,-1.77 1.434,-0.863 4.614,-2.534 5.002,-4.396 0.301,-1.455 -0.685,-2.593 -2.006,-1.573 -1.474,1.139 -3.273,3.006 -4.494,4.409 -3.031,3.488 -7.955,9.396 -3.554,13.606 0.412,0.392 -0.209,1.288 -0.938,1.528 -2.926,2.695 -5.816,5.463 -8.709,8.254 1.936,1.353 3.602,3.102 5.035,5.088 2.166,-3.2 5.239,-6.477 8.149,-8.703 1.781,-1.364 1.771,-1.526 3.812,-1.127 2.631,0.518 4.061,-0.02 5.617,-1.477 -0.593,-0.334 -1.093,-0.83 -1.398,-1.539 -0.496,-1.158 -0.146,-2.48 0.65,-3.42 -0.377,-0.234 -0.729,-0.514 -1.019,-0.896 -1.244,-1.644 -1.078,-3.736 0.058,-5.209 -0.972,-0.505 -1.673,-1.302 -1.671,-2.531 0.005,-4.047 4.578,-5.048 7.755,-5.312 1.446,-0.119 1.438,2.136 0,2.25 -1.336,0.107 -2.961,0.25 -4.14,0.959 -0.451,0.27 -1.787,1.479 -1.358,2.196 0.711,1.189 3.045,1.192 4.229,0.987 1.826,-0.316 3.447,-1.448 4.34,-3.101 1.104,-2.049 0.414,-3.51 -1.942,-3.816 -0.946,-0.123 -1.076,-1.085 -0.596,-1.552 -1.801,-0.304 -4.691,1.048 -6.293,1.626 -0.537,2.047 -2.53,3.83 -3.713,4.739 z"
         transform="matrix(0.59873694,0,0,0.59873694,-173.85,-209.45)" />
      <g
         id="Wand">
        <path
           id="Blue"
           fill="#42b5e8"
           d="m 504.016,361.967 c -1.898,7.402 -4.073,15.588 -5.581,21.355 -3.055,11.688 -6.406,23.564 -9.307,35.262 0.019,0.018 0.036,0.036 0.058,0.052 0.467,0.301 0.973,0.524 1.508,0.649 0.733,0.172 1.381,0.166 2.059,0.083 4.467,-17.11 10.383,-38.15 15,-56.539 -0.471,-0.204 -1.157,-0.474 -1.899,-0.668 -0.659,-0.173 -1.328,-0.205 -1.838,-0.194 z"
           transform="matrix(0.59873694,0,0,0.59873694,-173.85,-209.45)" />
        <path
           id="White"
           fill="#ffffff"
           d="m 504.016,361.967 c 0.511,-0.011 1.18,0.021 1.838,0.193 0.741,0.194 1.428,0.464 1.898,0.669 0.877,-3.495 1.708,-6.894 2.473,-10.151 -0.429,-0.25 -0.854,-0.551 -1.31,-0.676 -0.715,-0.197 -1.589,-0.379 -2.358,-0.223 -0.697,2.924 -1.584,6.457 -2.541,10.188 z"
           transform="matrix(0.59873694,0,0,0.59873694,-173.85,-209.45)" />
        <path
           id="Outline_7_"
           fill="#231f20"
           d="m 505.357,350.85 c -0.252,0.13 -0.34,0.344 -0.32,0.554 -4.849,20.69 -12.078,46.735 -17.028,67.296 -0.005,0.023 -0.003,0.042 -0.004,0.062 -0.004,0.013 -0.008,0.031 -0.011,0.037 -0.172,1.072 1.678,1.603 2.359,1.792 0.896,0.25 2.705,0.558 3.358,-0.494 0.007,-0.01 0.009,-0.027 0.015,-0.042 0.022,-0.029 0.051,-0.059 0.062,-0.09 3.384,-11.86 6.763,-23.643 9.871,-35.522 2.268,-8.676 6.046,-22.826 8.123,-31.548 0.115,-0.485 -0.122,-0.831 -0.444,-0.972 -0.475,-0.606 -1.579,-1.011 -2.093,-1.175 -1.221,-0.389 -2.724,-0.501 -3.888,0.102 z m 4.867,1.828 c -0.766,3.257 -1.595,6.656 -2.473,10.15 -4.617,18.388 -10.532,39.428 -14.999,56.539 -0.678,0.084 -1.325,0.089 -2.06,-0.083 -0.535,-0.125 -1.041,-0.35 -1.507,-0.65 -0.022,-0.016 -0.039,-0.033 -0.059,-0.051 2.901,-11.698 6.253,-23.575 9.308,-35.263 1.509,-5.766 3.683,-13.951 5.581,-21.354 0.957,-3.731 1.845,-7.263 2.54,-10.188 0.77,-0.156 1.644,0.027 2.358,0.223 0.457,0.126 0.882,0.427 1.311,0.677 z"
           transform="matrix(0.59873694,0,0,0.59873694,-173.85,-209.45)" />
      </g>
      <g
         id="Outline_9_">
        <g
           id="Fingers">
          <path
             id="Finger1"
             fill="#f9dd9c"
             d="m 497.649,408.461 c -1.336,0.107 -2.961,0.25 -4.14,0.959 -0.451,0.27 -1.787,1.479 -1.358,2.196 0.711,1.189 3.045,1.192 4.229,0.988 1.826,-0.318 3.447,-1.45 4.34,-3.102 1.104,-2.048 0.414,-3.509 -1.942,-3.815 -0.368,-0.047 -0.609,-0.224 -0.742,-0.447 l -0.365,0.973 c 1.422,-0.093 1.408,2.134 -0.022,2.248 z"
             transform="matrix(0.59873694,0,0,0.59873694,-173.85,-209.45)" />
          <path
             id="Finger2"
             fill="#f9dd9c"
             d="m 500.693,412.639 c -1.241,1.201 -2.86,1.977 -4.646,2.13 -0.632,0.055 -1.427,0.048 -2.231,-0.06 -1.268,0.902 -1.477,3.009 0.156,3.711 1.287,0.555 2.799,0.313 4.107,-0.016 1.422,-0.357 2.558,-0.958 3.324,-2.275 0.892,-1.533 0.741,-2.748 -0.71,-3.49 z"
             transform="matrix(0.59873694,0,0,0.59873694,-173.85,-209.45)" />
          <path
             id="Finger3"
             fill="#f9dd9c"
             d="m 500.268,419.47 c -0.601,0.408 -1.261,0.736 -1.983,0.941 -1.205,0.344 -2.651,0.566 -3.972,0.375 -0.465,0.728 -0.956,1.67 -0.094,2.152 0.889,0.497 1.968,0.502 2.947,0.313 1.711,-0.327 4.559,-1.892 3.102,-3.781 z"
             transform="matrix(0.59873694,0,0,0.59873694,-173.85,-209.45)" />
        </g>
        <g
           id="Outline_8_">
          <path
             id="ID0.6469004470854998"
             fill="#231f20"
             d="m 479.369,423.08 c 0.729,-0.24 1.35,-1.138 0.938,-1.528 -4.401,-4.21 0.521,-10.118 3.554,-13.606 1.221,-1.403 3.021,-3.271 4.493,-4.409 1.322,-1.02 2.308,0.118 2.007,1.573 -0.388,1.862 -3.568,3.533 -5.002,4.396 -1.05,0.634 -0.078,1.371 0.961,1.77 2.625,1.006 0.653,4.631 -1.104,5.45 -1.584,0.739 -0.205,3.099 1.369,2.349 3.562,-1.694 4.109,-6.194 1.59,-8.579 1.185,-0.909 3.176,-2.692 3.714,-4.735 0.255,-0.968 0.188,-1.993 -0.454,-3.013 -1.436,-2.285 -3.823,-1.11 -5.588,0.152 -4.803,3.436 -11.322,12.548 -8.305,18.682 -3.039,2.805 -6.045,5.643 -9.041,8.485 0.786,0.301 1.53,0.721 2.23,1.199 2.87,-2.768 5.737,-5.513 8.638,-8.186 z"
             transform="matrix(0.59873694,0,0,0.59873694,-173.85,-209.45)" />
          <path
             id="ID0.6774034718982875"
             fill="#231f20"
             d="m 501.413,411.837 c 0.447,-0.575 0.822,-1.217 1.104,-1.918 1.188,-2.972 -0.34,-5.564 -3.498,-6.028 -0.371,-0.054 -0.646,0.061 -0.837,0.244 -0.294,0.285 -0.356,0.755 -0.146,1.106 0.133,0.223 0.374,0.399 0.742,0.447 2.356,0.307 3.047,1.768 1.942,3.815 -0.893,1.651 -2.514,2.783 -4.34,3.102 -1.184,0.204 -3.518,0.201 -4.229,-0.988 -0.429,-0.718 0.907,-1.927 1.358,-2.196 1.179,-0.709 2.804,-0.852 4.14,-0.959 1.43,-0.114 1.443,-2.341 0.021,-2.248 -0.008,0 -0.013,-0.003 -0.021,-0.002 -3.177,0.264 -7.75,1.265 -7.755,5.312 -0.002,1.229 0.699,2.025 1.671,2.53 -1.136,1.473 -1.302,3.565 -0.058,5.209 0.289,0.384 0.642,0.661 1.019,0.896 -0.797,0.938 -1.146,2.262 -0.65,3.42 0.307,0.709 0.807,1.205 1.398,1.539 -1.558,1.457 -2.986,1.993 -5.617,1.477 -2.039,-0.399 -2.029,-0.237 -3.812,1.127 -2.9,2.221 -5.964,5.482 -8.129,8.674 0.567,0.807 0.883,1.354 0.883,1.354 2.799,-2.868 7.848,-10.329 10.533,-9.237 3.447,1.402 6.041,-0.465 8.238,-2.864 0.541,0.016 1.09,-0.04 1.604,-0.162 3.078,-0.728 7.058,-3.99 4.541,-7.081 0.701,-0.749 1.261,-1.636 1.627,-2.61 0.694,-1.871 -0.14,-3.422 -1.729,-3.959 z m -4.247,11.415 c -0.979,0.188 -2.059,0.184 -2.947,-0.313 -0.862,-0.482 -0.371,-1.425 0.094,-2.152 1.32,0.191 2.767,-0.031 3.972,-0.375 0.723,-0.205 1.383,-0.533 1.983,-0.941 1.457,1.888 -1.391,3.453 -3.102,3.781 z m 4.238,-7.123 c -0.767,1.317 -1.902,1.918 -3.324,2.275 -1.309,0.329 -2.82,0.57 -4.107,0.016 -1.633,-0.702 -1.424,-2.809 -0.156,-3.711 0.805,0.107 1.6,0.114 2.231,0.06 1.785,-0.153 3.404,-0.929 4.646,-2.13 1.45,0.742 1.601,1.957 0.71,3.49 z"
             transform="matrix(0.59873694,0,0,0.59873694,-173.85,-209.45)" />
        </g>
      </g>
    </g>
    <g
       id="Robe">
      <g
         id="Robe_1_">
        <path
           id="Robe_Fill"
           fill="#1e8843"
           d="m 464.41,465.252 c -1.346,-6.655 -3.883,-14.476 -9.396,-18.982 -5.97,5.482 -12.138,10.711 -18.723,15.317 0,0 -12.117,12.913 -33.392,18.913 -21.275,6 -27.081,11.02 -43.032,24.25 -7.308,8.661 -15.394,16.642 -22.512,25.494 -1.293,1.606 -2.562,3.23 -3.822,4.863 7.166,6.229 19.557,10.508 29.447,9.369 0.996,-3.296 2.213,-6.472 3.365,-9.312 3.779,-9.328 8.787,-19.737 16.438,-26.549 1.436,-1.275 3.186,0.604 2.057,2.055 -4.602,5.908 -8.75,11.763 -12.137,18.18 0.02,0.041 0.041,0.076 0.053,0.126 2.777,13.83 -0.033,29.271 -4.027,42.612 -3.619,12.09 -8.691,23.763 -15.129,34.621 -5.006,8.443 -10.662,16.627 -17.238,23.935 -0.117,0.133 -0.246,0.255 -0.367,0.386 9.906,3.65 20.439,3.584 31.045,1.98 11.541,-1.744 22.705,-5.948 34.436,-6.271 9.558,-0.265 18.982,1.27 28.466,2.081 -5.742,-6.15 -9.068,-14.43 -11.425,-22.393 -3.514,-11.875 -5.225,-24.289 -6.188,-36.613 -0.91,-11.625 -1.299,-23.364 -0.859,-35.024 0.23,-6.233 0.166,-12.939 1.664,-19.043 0.465,-1.896 3.256,-1.082 2.894,0.797 -1.152,5.927 -1.09,12.24 -1.256,18.246 -0.304,10.927 -0.199,21.866 0.586,32.771 0.87,12.121 2.37,24.283 5.547,36.038 2.43,9.004 5.83,18.492 12.276,25.466 0.922,0.059 1.849,0.11 2.773,0.148 -5.969,-6.188 -9.377,-14.652 -11.781,-22.782 -3.516,-11.875 -5.225,-24.289 -6.188,-36.612 -0.91,-11.626 -1.3,-23.365 -0.861,-35.023 0.232,-6.235 0.166,-12.941 1.664,-19.045 0.467,-1.895 3.258,-1.08 2.895,0.797 -1.151,5.927 -1.09,12.242 -1.256,18.248 -0.305,10.925 -0.199,21.865 0.586,32.77 0.871,12.12 2.371,24.282 5.547,36.037 2.459,9.104 5.912,18.705 12.505,25.7 11.762,0.11 22.541,-2.829 32.27,-9.31 -5.408,-4.661 -9.293,-10.537 -13.143,-16.641 -8.923,-14.144 -16.746,-29.189 -22,-45.11 -6.234,-18.893 -9.644,-39.978 -4.505,-59.552 -0.04,0.012 -0.084,0.022 -0.125,0.034 -0.686,0.195 -1,-0.721 -0.461,-1.092 2.824,-1.959 6.386,-2.747 9.658,-3.678 5.678,-1.615 11.392,-3.115 17.111,-4.582 2.108,-0.539 4.225,-1.061 6.34,-1.572 0.993,-7.458 1.769,-14.321 0.2,-22.048 z"
           transform="matrix(0.59873694,0,0,0.59873694,-173.85,-209.45)" />
        <path
           id="Stripe"
           fill="#8cb332"
           d="m 422.896,595.146 c -2.477,-14.85 -4.252,-54.5 -3.924,-66 0.158,-5.573 0.941,-21.135 1.706,-25.391 l -5.355,-0.127 c -0.699,4.276 -2.41,25.431 -2.354,31.934 0.071,8.166 1.179,50.834 6.679,69.584 5.5,18.75 14.014,25.332 14.014,25.332 l 5.65,0.209 c 0,10e-4 -12.497,-12.041 -16.416,-35.541 z"
           transform="matrix(0.59873694,0,0,0.59873694,-173.85,-209.45)" />
        <path
           id="Outline_10_"
           fill="#231f20"
           d="m 482.436,452.001 c -1.172,-4.563 -3.006,-9.846 -5.834,-14.254 0,0 -0.314,-0.547 -0.883,-1.354 -0.009,0.009 -0.017,0.02 -0.023,0.029 -1.435,-1.986 -3.101,-3.734 -5.035,-5.088 0.022,-0.023 0.048,-0.046 0.071,-0.069 -0.701,-0.479 -1.445,-0.897 -2.231,-1.199 -0.004,-10e-4 -0.007,-0.004 -0.011,-0.006 l -0.941,0.885 c 0.004,0.003 0.009,0.007 0.013,0.011 -4.635,4.402 -9.27,8.803 -13.973,13.123 -0.01,-0.004 -0.021,-0.009 -0.031,-0.015 l -0.747,0.701 c 0.006,0.003 0.011,0.006 0.016,0.009 -0.204,0.188 -0.411,0.369 -0.615,0.555 l -0.197,0.185 -0.003,-0.004 c -5.298,4.817 -10.722,9.496 -16.387,13.911 0,0 -13.622,13.955 -35.622,18.455 -22,4.5 -43.334,26.875 -43.334,26.875 -7.872,6.978 -14.708,15.451 -21.254,23.545 -7.02,8.679 -13.551,17.754 -19.574,27.15 l -1.324,2.069 c 0.488,0.653 1.239,1.303 2.088,1.906 0.008,-0.014 0.017,-0.027 0.025,-0.041 0.521,0.392 1.069,0.757 1.636,1.105 0.096,0.057 0.192,0.113 0.288,0.17 0.277,0.165 0.567,0.314 0.854,0.471 1.695,0.907 3.129,1.502 3.129,1.502 4.393,1.791 9.262,2.78 13.127,3.437 8.391,1.424 18.305,1.66 26.096,-2.271 0.611,-0.311 0.814,-0.832 0.756,-1.345 0.379,-0.049 0.721,-0.271 0.781,-0.704 0.622,-4.519 1.324,-8.908 2.294,-13.255 l -0.019,0.005 c 0,0 0.051,-0.201 0.136,-0.532 0.099,-0.433 0.185,-0.866 0.29,-1.298 0.016,-0.003 0.031,-0.008 0.047,-0.011 0.235,-0.913 0.521,-2.014 0.767,-2.947 -0.013,0.004 -0.027,0.007 -0.041,0.011 0.125,-0.443 0.263,-0.889 0.395,-1.333 0.069,-0.252 0.125,-0.447 0.161,-0.563 0.002,-0.007 0.008,-0.009 0.011,-0.017 0.319,-1.047 0.653,-2.094 1.025,-3.142 0.877,-2.466 1.879,-4.813 2.971,-7.094 -1.021,13.331 -1.809,26.188 -5.566,39.198 -3.434,11.877 -8.646,23.195 -14.875,33.852 -4.688,8.021 -10.102,15.668 -16.279,22.604 -1.189,1.375 -2.488,2.597 -3.475,3.462 0.77,0.94 1.97,1.748 3.379,2.438 -0.004,-0.001 -0.009,-0.002 -0.013,-0.003 0.02,0.01 0.042,0.019 0.062,0.028 0.336,0.163 0.684,0.318 1.04,0.468 0.068,0.029 0.135,0.058 0.204,0.086 0.352,0.145 0.71,0.282 1.075,0.414 0.08,0.028 0.159,0.057 0.238,0.085 0.36,0.128 0.724,0.249 1.09,0.364 0.088,0.028 0.176,0.056 0.265,0.083 0.362,0.111 0.724,0.218 1.086,0.318 0.094,0.026 0.187,0.051 0.28,0.076 0.357,0.098 0.714,0.191 1.065,0.278 0.093,0.023 0.183,0.044 0.274,0.066 0.318,0.077 0.633,0.15 0.942,0.22 0.112,0.025 0.222,0.049 0.333,0.073 0.294,0.064 0.581,0.124 0.861,0.181 0.094,0.02 0.188,0.039 0.279,0.057 0.299,0.06 0.585,0.113 0.864,0.165 0.051,0.009 0.109,0.021 0.16,0.03 -0.002,-10e-4 -0.004,-0.002 -0.007,-0.002 1.953,0.354 3.305,0.509 3.305,0.509 4.908,0.524 9.926,0.424 14.854,-0.064 13.188,-1.305 25.422,-7.022 38.711,-7.51 13.78,-0.508 27.324,3.423 41.084,3.615 6.394,0.092 12.864,-1.126 18.955,-3.367 l -0.025,-0.126 c 0,0 1.854,-0.51 4.67,-1.787 -0.004,-0.004 -0.009,-0.008 -0.014,-0.012 3.092,-1.458 6.039,-3.19 8.775,-5.16 0.014,0.009 0.027,0.017 0.041,0.025 0.96,-0.698 1.93,-1.454 2.904,-2.282 -0.859,-0.507 -1.707,-1.037 -2.531,-1.613 -0.116,-0.104 -0.246,-0.186 -0.381,-0.253 -0.871,-0.626 -1.727,-1.284 -2.555,-1.989 -6.432,-5.486 -10.922,-14.01 -15.354,-21.113 -8.17,-13.09 -14.901,-27.062 -19.573,-41.777 -5.601,-17.633 -8.109,-37.104 -4.043,-55.344 0.014,-0.057 0.002,-0.104 0.004,-0.156 7.111,-1.99 14.296,-3.76 21.484,-5.516 l -0.001,-10e-4 16.25,-4.044 c 4.188,-1.082 8.358,-2.209 12.498,-3.435 0.556,-0.164 0.781,-0.61 0.771,-1.057 0,-0.003 0.002,-0.005 0.002,-0.007 1.208,-10.567 0.638,-21.343 -2.011,-31.645 z M 361.219,561.014 c -0.311,-0.062 -0.652,-0.031 -1.004,0.148 -6.871,3.535 -15.482,3.146 -22.943,2.34 -1.947,-0.211 -3.857,-0.527 -5.729,-0.938 -4.812,-1.056 -9.351,-2.804 -13.442,-5.494 2.249,-3.53 4.574,-7.008 6.971,-10.435 2.316,-3.313 4.698,-6.58 7.148,-9.799 1.312,1.225 2.813,2.37 4.45,3.424 4.554,2.93 10.176,5.123 15.813,6.208 3.321,0.64 6.646,0.899 9.76,0.688 -1.192,4.674 -1.79,9.471 -1.024,13.858 z m 71.961,67.55 c -6.446,-6.975 -9.848,-16.463 -12.276,-25.467 -3.177,-11.755 -4.677,-23.917 -5.547,-36.038 -0.785,-10.903 -0.89,-21.844 -0.586,-32.771 0.165,-6.006 0.104,-12.319 1.256,-18.246 0.024,-0.125 0.032,-0.245 0.03,-0.361 0.251,-3.124 0.318,-11.057 0.318,-11.057 L 420,504.5 l -1.5,12 0.021,10e-4 c -1.208,5.763 -1.182,11.979 -1.398,17.793 -0.438,11.658 -0.049,23.397 0.861,35.023 0.963,12.323 2.672,24.737 6.188,36.612 2.404,8.13 5.812,16.596 11.781,22.782 -0.926,-0.037 -1.851,-0.09 -2.773,-0.147 z m 31.029,-141.265 c -2.115,0.514 -4.23,1.033 -6.34,1.572 -5.721,1.467 -11.435,2.967 -17.111,4.582 -3.272,0.931 -6.834,1.719 -9.658,3.678 -0.539,0.371 -0.225,1.287 0.461,1.092 0.041,-0.012 0.085,-0.022 0.125,-0.034 -5.139,19.574 -1.729,40.659 4.505,59.552 5.254,15.921 13.077,30.968 22,45.11 3.85,6.104 7.733,11.979 13.143,16.641 -9.729,6.479 -20.508,9.42 -32.27,9.31 -6.593,-6.995 -10.046,-16.596 -12.505,-25.7 -3.176,-11.755 -4.676,-23.917 -5.547,-36.038 -0.785,-10.902 -0.891,-21.844 -0.586,-32.769 0.166,-6.006 0.104,-12.321 1.256,-18.248 0.049,-0.252 0.037,-0.483 -0.015,-0.693 l 1.833,-13.978 -9.125,0.75 -1.375,13.5 0.051,0.007 c -1.404,6.001 -1.356,12.554 -1.582,18.657 -0.438,11.66 -0.051,23.398 0.859,35.025 0.963,12.323 2.674,24.737 6.188,36.612 2.355,7.963 5.683,16.241 11.425,22.393 -9.482,-0.812 -18.908,-2.346 -28.466,-2.081 -11.729,0.322 -22.895,4.526 -34.436,6.271 -10.605,1.604 -21.139,1.67 -31.045,-1.98 0.121,-0.13 0.25,-0.253 0.367,-0.386 6.576,-7.308 12.232,-15.49 17.238,-23.935 6.438,-10.858 11.51,-22.531 15.129,-34.621 3.994,-13.342 6.805,-28.782 4.027,-42.612 -0.012,-0.05 -0.033,-0.085 -0.053,-0.126 3.387,-6.417 7.535,-12.271 12.137,-18.18 1.129,-1.449 -0.621,-3.33 -2.057,-2.055 -7.65,6.812 -12.658,17.221 -16.438,26.549 -1.152,2.842 -2.369,6.018 -3.365,9.312 -9.891,1.139 -22.281,-3.142 -29.447,-9.369 1.26,-1.633 2.529,-3.257 3.822,-4.863 7.118,-8.854 15.204,-16.833 22.512,-25.494 15.952,-13.229 21.758,-18.25 43.032,-24.25 21.273,-6 33.392,-18.913 33.392,-18.913 6.585,-4.606 12.753,-9.835 18.723,-15.316 5.515,4.507 8.052,12.326 9.396,18.981 1.57,7.727 0.794,14.59 -0.2,22.047 z m 18.187,-4.536 c -3.903,1.069 -7.838,2.043 -11.779,2.995 -1.26,0.304 -2.52,0.606 -3.78,0.909 0.512,-3.21 1.029,-6.354 1.093,-9.656 0.008,-0.455 0.009,-0.914 -0.001,-1.375 -0.041,-1.833 -0.191,-3.663 -0.397,-5.486 -0.187,-1.649 -0.422,-3.292 -0.727,-4.922 -0.19,-1.017 -0.396,-2.03 -0.628,-3.036 -1.199,-5.218 -3.202,-10.189 -6.65,-13.869 -1.042,-1.111 -2.209,-2.109 -3.533,-2.955 0.48,-0.444 0.949,-0.902 1.427,-1.35 1.507,-1.41 3.009,-2.826 4.499,-4.254 0.822,-0.788 1.643,-1.573 2.461,-2.363 1.646,-1.588 3.29,-3.179 4.929,-4.766 1.283,1.303 2.453,2.685 3.529,4.127 1.138,1.525 2.164,3.122 3.086,4.778 0.959,1.726 1.806,3.515 2.548,5.355 0.682,1.69 1.274,3.423 1.786,5.188 1.216,4.194 1.975,8.568 2.361,12.981 0.134,1.517 0.226,3.037 0.275,4.556 0.144,4.441 -0.051,8.871 -0.499,13.143 z"
           transform="matrix(0.59873694,0,0,0.59873694,-173.85,-209.45)" />
      </g>
      <g
         id="L_Sleeve_1_">
        <path
           id="L_Sleeve"
           fill="#8cb332"
           d="m 332.219,536.836 c -4.984,6.551 -9.697,13.291 -14.119,20.233 5.684,3.737 12.223,5.679 19.172,6.433 7.461,0.807 16.072,1.195 22.943,-2.34 0.352,-0.182 0.693,-0.211 1.004,-0.148 -0.766,-4.387 -0.168,-9.184 1.023,-13.857 -10.299,0.697 -22.914,-3.684 -30.023,-10.321 z"
           transform="matrix(0.59873694,0,0,0.59873694,-173.85,-209.45)" />
        <path
           id="ID0.32764302752912045"
           fill="#fff100"
           d="m 344.314,545.806 8.168,11.173 v -10.511 c -5.637,-1.085 -11.259,-3.278 -15.813,-6.208 l -1.187,13.219 8.832,-7.673 z"
           transform="matrix(0.59873694,0,0,0.59873694,-173.85,-209.45)" />
        <path
           id="ID0.09631677763536572"
           fill="#fff100"
           d="m 328.046,555.479 3.604,-10.666 -6.579,1.822 c -2.396,3.427 -4.722,6.904 -6.971,10.435 4.091,2.69 8.631,4.438 13.442,5.494 l 7.605,-1.085 -11.101,-6 z"
           transform="matrix(0.59873694,0,0,0.59873694,-173.85,-209.45)" />
      </g>
      <g
         id="R_Sleeve_1_">
        <path
           id="R_Sleeve"
           fill="#8cb332"
           d="m 455.994,445.365 c 5.709,3.646 8.621,10.029 10.184,16.824 1.013,4.403 1.65,8.922 1.752,13.444 0.082,3.812 -0.51,7.379 -1.092,11.031 5.203,-1.248 10.408,-2.492 15.559,-3.903 1.818,-17.357 -0.5,-37.341 -13.086,-50.13 -4.403,4.265 -8.811,8.561 -13.317,12.734 z"
           transform="matrix(0.59873694,0,0,0.59873694,-173.85,-209.45)" />
        <path
           id="ID0.9311188589781523"
           fill="#fff100"
           d="m 477.994,458.058 c 0,0 -1.479,8.968 -11.189,7.169 0.305,1.63 0.54,3.273 0.727,4.922 11.601,0.631 10.462,-12.091 10.462,-12.091 z"
           transform="matrix(0.59873694,0,0,0.59873694,-173.85,-209.45)" />
        <path
           id="ID0.4573269817046821"
           fill="#fff100"
           d="m 467.482,461.984 5.084,-11.006 7.691,1.103 c -0.512,-1.765 -1.104,-3.498 -1.786,-5.188 l -3.198,-1.679 0.65,-3.676 c -0.922,-1.657 -1.948,-3.253 -3.086,-4.778 l -3.393,2.552 -5.065,-1.913 c -0.818,0.79 -1.639,1.576 -2.461,2.363 l 0.333,2.509 -4.832,1.745 c -0.478,0.447 -0.946,0.905 -1.427,1.35 1.324,0.846 2.491,1.844 3.533,2.955 l 4.792,1.657 3.165,12.006 z"
           transform="matrix(0.59873694,0,0,0.59873694,-173.85,-209.45)" />
        <path
           id="ID0.9494522591121495"
           fill="#fff100"
           d="M 478.336,479.657 467.93,477.01 c -0.063,3.302 -0.581,6.446 -1.093,9.656 1.261,-0.302 2.521,-0.604 3.78,-0.909 l -0.281,-1.813 8,-4.287 z"
           transform="matrix(0.59873694,0,0,0.59873694,-173.85,-209.45)" />
        <path
           id="ID0.042959806974977255"
           fill="#fff100"
           d="m 482.895,469.618 c -0.05,-1.519 -0.142,-3.039 -0.275,-4.556 l -3.346,3.284 3.621,1.272 z"
           transform="matrix(0.59873694,0,0,0.59873694,-173.85,-209.45)" />
      </g>
      <g
         id="Collar2">
        <path
           id="Fill_5_"
           fill="#8cb332"
           d="m 417.717,513.012 c 1.918,-8.021 9.053,-15.617 14.681,-21.311 5.612,-5.684 11.104,-12.078 18.069,-16.174 -0.686,-0.404 -1.315,-0.847 -1.791,-1.115 -1.617,-0.917 -3.367,-2.149 -5.172,-2.834 0,0 -35.895,-14.51 -74.074,13.644 -4.248,5.152 -11.72,8.76 -13.617,15.303 2.914,-0.467 6.939,0.333 9.234,0.368 6.164,0.103 12.346,0.135 18.49,0.668 11.178,0.971 26.139,2.566 34.18,11.451 z"
           transform="matrix(0.59873694,0,0,0.59873694,-173.85,-209.45)" />
        <g
           id="Stars">
          <path
             id="Star_3_"
             fill="#fff100"
             d="m 390.316,492.896 -11.543,-3.125 -0.625,-4.218 -1.551,-5.15 c -1.018,0.621 -2.04,1.274 -3.063,1.953 l -1.386,1.584 -3.625,4.957 h -2.783 c -1.109,0.972 -2.259,1.928 -3.376,2.903 l 1.452,2.731 -3.367,5.971 c 1.734,0.146 3.401,0.37 4.598,0.389 0.353,0.007 0.706,0.012 1.059,0.018 l 6.043,-3.265 4.066,3.494 c 1.79,0.065 3.578,0.161 5.364,0.287 l -2.681,-6.894 11.418,-1.635 z"
             transform="matrix(0.59873694,0,0,0.59873694,-173.85,-209.45)" />
          <path
             id="Star_2_"
             fill="#fff100"
             d="m 424.625,479.25 7.125,0.589 3.648,6.681 1.292,-8.748 v -0.002 h 7.208 l -3.88,-4.611 v -2.711 c -2.805,-0.788 -7.19,-1.783 -12.744,-2.286 l 1.351,4.997 -4,6.091 z"
             transform="matrix(0.59873694,0,0,0.59873694,-173.85,-209.45)" />
          <path
             id="Star_1_"
             fill="#fff100"
             d="m 404,473.158 -4,8.467 -12,3.875 6.625,3.397 1.844,6.81 2.347,6.439 2.205,-3.891 v -10e-4 0 l 0.002,0.002 5.584,6.015 v -0.521 -2.369 -8.631 L 418.125,485.625 407.75,483.75 404,473.158"
             transform="matrix(0.59873694,0,0,0.59873694,-173.85,-209.45)" />
          <path
             id="Star"
             fill="#fff100"
             d="m 426.677,497.793 c 1.592,-1.828 3.229,-3.552 4.787,-5.144 l -2.493,-1.838 -2.294,6.982 z"
             transform="matrix(0.59873694,0,0,0.59873694,-173.85,-209.45)" />
        </g>
        <path
           id="Outline_5_"
           fill="#231f20"
           d="m 453.994,475.471 c -0.494,-1.559 -3.894,-2.567 -5.229,-3.213 -0.97,-0.466 -1.985,-0.965 -3.031,-1.378 -0.2,-0.177 -0.884,-0.317 -1.162,-0.416 -46.899,-16.418 -76.646,14.32 -76.646,14.32 -5.586,5.237 -13.456,8.887 -15.036,17.015 -0.223,1.132 0.672,1.707 1.471,1.574 0.943,0.375 2.119,0.472 3.34,0.448 l 4.176,-0.322 c 0.439,-0.037 0.856,-0.066 1.225,-0.072 5.328,-0.087 10.645,-0.104 15.971,0.116 6.924,0.289 13.805,1.107 20.547,2.729 6.551,1.573 12.219,4.587 18.195,7.543 0.032,0.018 0.062,0.01 0.094,0.012 0.225,0.131 0.522,0.115 0.686,-0.173 1.791,-3.212 3.256,-6.477 5.347,-9.528 2.737,-4 6.594,-7.457 10.002,-10.877 6.026,-6.051 11.771,-12.358 19.307,-16.556 0.191,-0.106 0.326,-0.241 0.422,-0.389 0.276,-0.138 0.415,-0.548 0.321,-0.833 z m -21.598,16.23 c -0.308,0.31 -0.618,0.627 -0.934,0.948 -1.558,1.592 -3.195,3.315 -4.787,5.144 -3.984,4.576 -7.664,9.799 -8.96,15.219 -8.041,-8.885 -23.002,-10.479 -34.18,-11.451 -0.652,-0.057 -1.305,-0.088 -1.958,-0.134 -1.786,-0.126 -3.574,-0.222 -5.364,-0.287 -3.369,-0.124 -6.74,-0.179 -10.109,-0.229 -0.353,-0.006 -0.706,-0.011 -1.059,-0.018 -1.196,-0.019 -2.864,-0.242 -4.598,-0.389 -1.593,-0.134 -3.242,-0.204 -4.637,0.021 1.022,-3.527 3.668,-6.199 6.552,-8.723 1.117,-0.977 2.267,-1.932 3.376,-2.903 1.34,-1.176 2.618,-2.376 3.689,-3.677 1.372,-1.012 2.74,-1.962 4.104,-2.865 1.023,-0.679 2.045,-1.333 3.063,-1.953 19.672,-11.989 38.146,-13.375 50.677,-12.241 5.554,0.502 9.939,1.498 12.744,2.286 2.25,0.633 3.484,1.131 3.484,1.131 1.805,0.685 3.555,1.917 5.172,2.834 0.476,0.27 1.105,0.711 1.791,1.115 -6.962,4.094 -12.452,10.49 -18.066,16.172 z"
           transform="matrix(0.59873694,0,0,0.59873694,-173.85,-209.45)" />
      </g>
      <g
         id="Collar1">
        <path
           id="Fill_4_"
           fill="#d8df21"
           d="m 378.152,472.224 c -2.733,1.12 -5.167,3.009 -7.271,5.051 -1.158,1.122 -2.422,2.614 -3.824,3.779 1.801,0.583 3.58,1.419 5.209,2.075 5.328,2.144 10.59,4.459 15.752,6.979 9.355,4.565 21.734,9.864 28.131,18.596 3.715,-6.928 6.512,-14.763 11.539,-20.884 5.262,-6.407 9.698,-13.434 15.045,-19.767 -1.628,-1.325 -3.671,-1.95 -5.73,-2.484 -10e-4,-0.001 -29.323,-7.622 -58.851,6.655 z"
           transform="matrix(0.59873694,0,0,0.59873694,-173.85,-209.45)" />
        <path
           id="Outline_4_"
           fill="#231f20"
           d="m 445.35,467.315 c -1.487,-1.52 -3.547,-2.325 -5.52,-3.02 -0.854,-0.3 -1.847,-0.63 -2.866,-0.866 l -0.005,-0.002 c -34.166,-8.82 -59.05,6.804 -59.05,6.804 -2.265,0.86 -4.256,2.232 -6.2,3.779 -1.506,1.197 -2.945,2.479 -4.451,3.677 -1.18,0.938 -2.598,1.677 -3.707,2.69 -1.365,0.172 -1.273,2.455 0.27,2.548 1.285,0.076 2.642,0.503 3.976,1.019 v -0.004 l 0.172,0.07 c 0.183,0.072 0.368,0.141 0.55,0.214 -0.003,0.003 -0.006,0.007 -0.009,0.01 l 1.296,0.534 c 0.001,-0.002 0.003,-0.003 0.004,-0.005 0.625,0.266 1.229,0.523 1.803,0.744 5.166,1.986 10.23,4.248 15.23,6.613 10.354,4.896 20.625,10.438 29.386,17.905 0.12,0.104 0.278,0.104 0.407,0.052 0.354,0.122 0.765,0.053 1.002,-0.375 3.826,-6.885 6.474,-14.291 11.422,-20.516 4.44,-5.588 8.622,-11.471 13.114,-17.035 h -0.015 l 0.396,-0.481 c 0.089,-0.107 0.174,-0.221 0.262,-0.329 0.003,10e-4 0.005,0.002 0.008,0.003 l 0.926,-1.125 c 0.244,-0.292 0.484,-0.588 0.73,-0.878 0.869,-0.015 1.681,-1.197 0.869,-2.026 z m -17.662,20.504 c -5.026,6.121 -7.823,13.956 -11.538,20.884 -6.396,-8.73 -18.775,-14.029 -28.131,-18.596 -5.162,-2.521 -10.424,-4.836 -15.752,-6.979 -1.629,-0.656 -3.408,-1.492 -5.209,-2.075 1.402,-1.165 2.666,-2.657 3.824,-3.779 2.104,-2.042 4.538,-3.931 7.271,-5.051 29.527,-14.275 58.85,-6.654 58.85,-6.654 2.06,0.535 4.103,1.159 5.73,2.484 -5.346,6.334 -9.784,13.359 -15.045,19.766 z"
           transform="matrix(0.59873694,0,0,0.59873694,-173.85,-209.45)" />
      </g>
    </g>
    <g
       id="Head">
      <g
         id="Head_1_">
        <path
           id="Fill_2_"
           fill="#f9dd9c"
           d="m 378.658,463.981 c 0.396,-0.117 0.727,-0.044 0.976,0.134 0.035,0.002 1.554,0.112 1.586,2.726 0.917,4.093 2.118,8.779 5.313,11.687 3.055,2.776 6.744,5.098 10.504,6.799 7.721,3.494 17.139,6.157 24.861,1.118 8.885,-5.796 13.944,-15.925 9.073,-26.106 -2.722,-5.682 -5.198,-10.921 -5.435,-17.214 h -10e-4 c 0,0 -1.359,-13.249 -7.886,-15.749 -6.527,-2.5 -11.26,-4.375 -21.581,-1.125 -10.321,3.25 -18.537,6.023 -13.616,31.887 0.054,0.178 0.033,0.35 -0.038,0.503 -0.004,0.251 -0.191,0.521 -0.465,0.487 -0.014,-0.002 -0.031,-0.008 -0.047,-0.011 -0.301,0.119 -0.656,0.103 -0.924,-0.157 -0.055,-0.053 -0.107,-0.115 -0.16,-0.174 -2.67,-1.101 -7.105,-4.236 -8.656,-1.197 -0.756,1.482 -0.459,3.379 0.346,4.789 1.265,2.217 3.9,2.269 6.15,1.603 z"
           transform="matrix(0.59873694,0,0,0.59873694,-173.85,-209.45)" />
        <path
           id="Outline_2_"
           fill="#231f20"
           d="m 435.111,467.337 c -0.291,-2.176 -1.062,-4.248 -1.401,-6.418 -0.013,0.01 -0.025,0.021 -0.038,0.03 -2.262,-6.246 -6.287,-12.205 -6.395,-19.051 0.054,-1.407 -0.233,-2.979 -0.625,-4.423 -0.039,-0.146 -0.079,-0.291 -0.12,-0.434 -0.707,-2.441 -1.657,-4.417 -1.657,-4.417 -6.25,-16.875 -27.5,-12.125 -39.75,-4.875 -11.002,6.512 -6.619,24.872 -5.611,28.546 -0.086,-0.082 -0.182,-0.149 -0.262,-0.239 -0.187,-0.116 -0.373,-0.233 -0.562,-0.349 -0.011,-0.007 -0.019,-0.015 -0.029,-0.022 -1.153,-0.408 -2.315,-0.688 -3.087,-0.862 -0.652,-0.147 -1.276,-0.189 -1.872,-0.149 -0.585,0.122 -1.172,0.233 -1.758,0.353 -0.114,0.09 -0.229,0.186 -0.353,0.311 -0.625,0.412 -1.16,1.016 -1.562,1.848 -1.061,2.202 -0.566,5.094 0.717,7.087 1.706,2.646 5.216,3 8.034,2.201 1.159,-0.255 1.369,0.377 1.369,0.377 -0.002,0.021 0.009,0.028 0.012,0.044 -0.076,0.913 -0.093,1.812 -0.032,2.688 -0.001,0 -0.002,0 -0.004,10e-4 0.057,0.536 0.223,1.924 0.246,1.919 2.82,15.125 25.76,23.754 38.887,19.23 8.197,-2.825 13.979,-10.866 15.609,-19.128 0.288,-1.463 0.339,-2.879 0.244,-4.268 z m -13.213,19.107 c -7.724,5.039 -17.142,2.376 -24.861,-1.118 -3.76,-1.701 -7.449,-4.021 -10.504,-6.799 -3.195,-2.907 -4.396,-7.594 -5.313,-11.687 -0.032,-2.613 -1.551,-2.724 -1.586,-2.726 -0.249,-0.178 -0.58,-0.251 -0.976,-0.135 -2.25,0.666 -4.885,0.613 -6.148,-1.604 -0.805,-1.41 -1.102,-3.307 -0.346,-4.789 1.551,-3.039 5.986,0.098 8.656,1.197 0.053,0.059 0.105,0.121 0.16,0.174 0.268,0.26 0.623,0.276 0.924,0.157 0.016,0.003 0.033,0.009 0.047,0.011 0.273,0.033 0.461,-0.236 0.465,-0.487 0.071,-0.153 0.092,-0.325 0.038,-0.503 -4.921,-25.862 3.296,-28.637 13.616,-31.887 10.32,-3.25 15.055,-1.375 21.582,1.125 6.525,2.5 7.886,15.749 7.886,15.749 h 10e-4 c 0.235,6.293 2.713,11.532 5.435,17.214 4.87,10.185 -0.191,20.312 -9.076,26.108 z"
           transform="matrix(0.59873694,0,0,0.59873694,-173.85,-209.45)" />
      </g>
      <g
         id="Mouth">
        <g
           id="Inside">
          <path
             id="ID0.6169269923120737"
             fill="#876aae"
             d="m 407.284,483.419 c -0.083,0 -0.167,-0.01 -0.25,-0.032 l -0.169,-0.044 c -0.068,-0.018 -0.134,-0.043 -0.195,-0.075 -1.879,-0.56 -3.679,-1.519 -5.352,-2.853 -1.182,-0.944 -2.133,-2.146 -2.829,-3.573 -0.024,-0.05 -0.044,-0.102 -0.061,-0.155 -0.068,-0.147 -0.131,-0.3 -0.184,-0.454 -0.032,-0.078 -0.059,-0.158 -0.083,-0.239 -0.021,-0.047 -0.037,-0.088 -0.052,-0.124 -0.06,-0.083 -0.107,-0.177 -0.144,-0.279 -0.969,-2.718 -1.106,-6.046 -0.391,-9.37 0.076,-0.352 0.335,-0.636 0.678,-0.743 0.098,-0.03 0.199,-0.046 0.299,-0.046 0.25,0 0.494,0.095 0.683,0.27 1.733,1.618 3.488,2.958 5.214,3.98 l 0.371,0.224 c 0.027,0.013 0.058,0.025 0.086,0.04 0.261,0.11 0.493,0.342 0.585,0.609 0.093,0.27 0.097,0.577 -0.042,0.825 -0.099,0.176 -2.346,4.375 2.604,10.404 0.275,0.334 0.305,0.808 0.07,1.172 -0.182,0.294 -0.502,0.463 -0.838,0.463 v 0 z"
             transform="matrix(0.59873694,0,0,0.59873694,-173.85,-209.45)" />
          <path
             id="ID0.0862634857185185"
             d="m 398.555,466.433 c 1.738,1.622 3.539,3.016 5.388,4.11 0,0 0,10e-4 -10e-4,10e-4 0.142,0.085 0.282,0.17 0.426,0.254 0.072,0.029 0.141,0.064 0.212,0.095 -0.257,0.46 -2.577,5.093 2.706,11.526 -0.093,-0.024 -0.16,-0.042 -0.16,-0.042 l -0.006,-0.02 c -1.882,-0.534 -3.642,-1.499 -5.177,-2.724 -1.115,-0.892 -1.951,-1.996 -2.554,-3.229 0.005,10e-4 0.011,10e-4 0.016,0.002 -0.085,-0.171 -0.163,-0.347 -0.223,-0.528 -0.041,-0.088 -0.062,-0.186 -0.095,-0.277 -0.033,-0.083 -0.076,-0.16 -0.104,-0.245 -0.015,-0.035 -0.03,-0.068 -0.045,-0.104 -0.009,10e-4 -0.019,0.002 -0.027,0.004 -0.983,-2.758 -0.972,-5.969 -0.356,-8.823 m 0,-2 c -0.199,0 -0.401,0.03 -0.599,0.093 -0.688,0.215 -1.205,0.782 -1.356,1.486 -0.754,3.503 -0.604,7.024 0.428,9.916 0.05,0.143 0.114,0.274 0.191,0.397 0.028,0.089 0.058,0.173 0.088,0.253 0.054,0.155 0.115,0.311 0.189,0.475 0.027,0.078 0.059,0.154 0.095,0.229 0.761,1.561 1.806,2.878 3.102,3.915 1.757,1.399 3.646,2.412 5.626,3.011 0.093,0.042 0.188,0.076 0.288,0.102 l 0.179,0.048 c 0.166,0.043 0.333,0.062 0.499,0.062 0.672,0 1.312,-0.339 1.687,-0.924 0.465,-0.73 0.408,-1.676 -0.141,-2.345 -4.511,-5.493 -2.589,-9.13 -2.505,-9.282 0.272,-0.496 0.326,-1.088 0.142,-1.623 -0.184,-0.535 -0.586,-0.971 -1.105,-1.192 -0.027,-0.013 -0.053,-0.023 -0.076,-0.035 l -0.232,-0.139 -0.019,-0.011 c -0.023,-0.016 -0.048,-0.03 -0.071,-0.044 -1.664,-0.987 -3.361,-2.283 -5.043,-3.854 -0.379,-0.351 -0.868,-0.538 -1.367,-0.538 v 0 2 0 z"
             transform="matrix(0.59873694,0,0,0.59873694,-173.85,-209.45)" />
        </g>
        <g
           id="Tongue">
          <path
             id="ID0.4410810386762023"
             fill="#f187b6"
             d="m 407.306,483.461 c -2.073,-0.507 -4.089,-1.532 -5.986,-3.046 -1.182,-0.944 -2.132,-2.146 -2.829,-3.573 l -0.822,-1.686 1.857,0.256 c 0.372,0.051 0.742,0.094 1.113,0.137 1.249,0.146 2.541,0.294 3.838,0.752 2.699,0.957 4.219,3.289 4.064,6.239 l -0.062,1.206 -1.173,-0.285 z"
             transform="matrix(0.59873694,0,0,0.59873694,-173.85,-209.45)" />
          <path
             id="ID0.08185158157721162"
             d="m 399.389,476.404 c 1.599,0.221 3.193,0.29 4.756,0.842 2.363,0.838 3.523,2.849 3.398,5.244 -2.045,-0.5 -3.949,-1.539 -5.602,-2.856 -1.115,-0.892 -1.951,-1.996 -2.552,-3.23 m -3.442,-2.494 1.645,3.372 c 0.761,1.561 1.805,2.878 3.102,3.915 2.016,1.606 4.158,2.694 6.376,3.236 l 2.346,0.574 0.126,-2.412 c 0.176,-3.365 -1.636,-6.138 -4.728,-7.232 -1.406,-0.497 -2.756,-0.653 -4.059,-0.805 -0.364,-0.042 -0.728,-0.084 -1.092,-0.135 l -3.716,-0.513 v 0 l 3.442,2.494 v 0 z"
             transform="matrix(0.59873694,0,0,0.59873694,-173.85,-209.45)" />
        </g>
        <path
           id="Mouth_1_"
           d="m 407.118,482.357 c -1.882,-0.534 -3.642,-1.499 -5.177,-2.724 -1.115,-0.892 -1.951,-1.996 -2.554,-3.229 0.005,10e-4 0.011,10e-4 0.016,0.002 -0.085,-0.171 -0.163,-0.347 -0.223,-0.528 -0.041,-0.088 -0.062,-0.186 -0.095,-0.277 -0.033,-0.083 -0.076,-0.16 -0.104,-0.245 -0.015,-0.035 -0.03,-0.068 -0.044,-0.104 -0.01,10e-4 -0.02,0.002 -0.028,0.004 -0.982,-2.758 -0.972,-5.969 -0.355,-8.823 1.738,1.622 3.539,3.016 5.388,4.11 0,0 0,10e-4 -0.001,10e-4 0.142,0.085 0.282,0.17 0.426,0.254 0.071,0.029 0.141,0.064 0.212,0.095 0.348,0.15 0.687,0.316 0.996,0.525 5.772,2.82 11.961,2.625 18.205,-2.642 0.608,-0.514 -0.164,-1.325 -0.795,-1.03 -4.595,2.156 -8.109,4.722 -13.441,2.992 -4.041,-1.312 -7.314,-4.646 -10.184,-7.638 -0.642,-0.67 -1.47,-0.511 -1.996,-0.02 -0.195,0.129 -0.357,0.321 -0.459,0.588 -2.154,5.746 -1.688,12.44 2.541,17.093 4.438,4.878 11.325,5.166 17.02,2.637 0.225,-0.101 0.174,-0.497 -0.068,-0.535 -2.008,-0.318 -3.95,-0.109 -5.977,-0.048 -0.303,0.013 -0.613,-10e-4 -0.919,-0.024 -0.023,-10e-4 -0.046,0 -0.069,-0.002 0,-10e-4 0,-0.002 0,-0.003 -0.759,-0.063 -1.462,-0.205 -1.889,-0.305 0,0.003 0,0.006 0,0.009 -0.034,-0.008 -0.067,-0.023 -0.102,-0.032 -0.066,-0.016 -0.11,-0.028 -0.157,-0.04 -0.093,-0.024 -0.16,-0.042 -0.16,-0.042 l -0.007,-0.019 z"
           transform="matrix(0.59873694,0,0,0.59873694,-173.85,-209.45)" />
      </g>
      <g
         id="Nose">
        <path
           id="Fill_3_"
           fill="#f9dd9c"
           d="m 412.527,460.766 c 0.825,2.288 2.848,3.564 5.25,3.518 1.729,-0.034 4.996,-0.42 5.481,-2.556 0.945,-4.165 -4.651,-5.732 -7.754,-6.323 -0.849,-0.162 -0.659,-1.249 0.021,-1.477 -5.852,0.572 -5.789,4.744 -5.536,6.367 0.623,-0.752 2.098,-0.751 2.538,0.471 z"
           transform="matrix(0.59873694,0,0,0.59873694,-173.85,-209.45)" />
        <path
           id="Outline_3_"
           fill="#231f20"
           d="m 415.926,453.89 c -0.147,-0.023 -0.278,-0.003 -0.399,0.038 -0.68,0.228 -0.868,1.314 -0.021,1.477 3.103,0.591 8.699,2.158 7.754,6.324 -0.485,2.135 -3.752,2.521 -5.481,2.555 -2.402,0.048 -4.425,-1.229 -5.25,-3.518 -0.44,-1.221 -1.915,-1.223 -2.538,-0.472 -0.249,0.3 -0.366,0.718 -0.221,1.231 1.812,6.371 10.882,6.958 14.683,2.063 4.297,-5.53 -4.578,-9.045 -8.527,-9.698 z"
           transform="matrix(0.59873694,0,0,0.59873694,-173.85,-209.45)" />
      </g>
      <path
         id="L_Eye"
         fill="#231f20"
         d="m 398.172,449.521 c 0.58,0 1.106,0.336 1.487,0.879 0.38,0.543 0.616,1.293 0.616,2.121 0,0.828 -0.236,1.578 -0.616,2.121 -0.381,0.543 -0.907,0.879 -1.487,0.879 -0.58,0 -1.106,-0.336 -1.487,-0.879 -0.38,-0.543 -0.616,-1.293 -0.616,-2.121 0,-0.828 0.236,-1.578 0.616,-2.121 0.381,-0.543 0.907,-0.879 1.487,-0.879 z"
         transform="matrix(0.59873694,0,0,0.59873694,-173.85,-209.45)" />
      <path
         id="R_Eye"
         fill="#231f20"
         d="m 422.287,447.729 c 0.435,0 0.829,0.252 1.114,0.659 0.285,0.408 0.462,0.97 0.462,1.591 0,0.621 -0.177,1.183 -0.462,1.591 -0.285,0.407 -0.679,0.659 -1.114,0.659 -0.435,0 -0.829,-0.252 -1.114,-0.659 -0.285,-0.408 -0.462,-0.97 -0.462,-1.591 0,-0.621 0.177,-1.183 0.462,-1.591 0.285,-0.407 0.679,-0.659 1.114,-0.659 z"
         transform="matrix(0.59873694,0,0,0.59873694,-173.85,-209.45)" />
    </g>
    <g
       id="Hair">
      <path
         id="Fill_1_"
         fill="#fdbc21"
         d="m 379.189,453.627 c -0.13,-1.765 0,-3.662 0.442,-5.314 2.19,-9.515 7.644,-5.094 7.644,-5.094 0.085,0.213 0.185,0.412 0.297,0.585 0.066,0.103 0.139,0.196 0.217,0.285 0.235,0.925 0.072,1.999 -0.248,2.982 2.004,-0.837 4.033,-1.522 4.842,-3.889 0.34,-1.002 1.68,-0.856 2,-0.132 1.504,1.669 0.314,4.118 -1.312,5.868 3.352,-0.777 6.82,-1.1 10.051,-2.455 5.598,-2.35 9.387,-5.913 12.879,-10.795 0.58,-0.81 1.781,-0.313 1.764,0.474 1.74,2.792 -0.727,5.772 -3.098,7.577 4.83,1.281 9.121,-2.945 11.346,-6.876 3.888,-10.279 -5.137,-17.095 -6.512,-18.164 -1.375,-1.068 -11.625,-11.306 -32.625,0.569 -20.315,11.488 -13.141,34.691 -12.651,36.191 2.309,0.101 5.5,1.671 5.5,1.671 l -0.025,-0.161 -0.068,-0.037 -0.443,-3.285 z"
         transform="matrix(0.59873694,0,0,0.59873694,-173.85,-209.45)" />
      <path
         id="Outline_1_"
         fill="#231f20"
         d="m 420.713,416.5 c -12.088,-9.625 -27.963,-3.625 -34.963,1 -7,4.625 -18.816,12.422 -14.158,37.836 0,0 0.031,0.048 0.086,0.114 0.122,0.146 0.371,0.388 0.712,0.453 0.297,0.056 0.447,0.212 1.11,0.139 0.273,-0.03 0.536,-0.162 0.75,-0.521 0,0 -0.01,-0.029 -0.026,-0.079 -0.489,-1.5 -7.664,-24.704 12.651,-36.191 21,-11.875 31.25,-1.639 32.625,-0.569 1.375,1.07 10.398,7.885 6.512,18.164 -2.225,3.931 -6.516,8.157 -11.346,6.876 2.371,-1.805 4.838,-4.784 3.098,-7.577 0.019,-0.787 -1.184,-1.282 -1.764,-0.474 -3.492,4.882 -7.281,8.445 -12.879,10.795 -3.23,1.355 -6.699,1.679 -10.051,2.455 1.627,-1.75 2.816,-4.199 1.312,-5.868 -0.32,-0.726 -1.66,-0.87 -2,0.132 -0.809,2.365 -2.838,3.052 -4.842,3.889 0.319,-0.983 0.483,-2.058 0.248,-2.982 -0.078,-0.089 -0.151,-0.184 -0.217,-0.285 -0.112,-0.173 -0.212,-0.373 -0.297,-0.585 0,0 -5.453,-4.421 -7.644,5.094 -0.441,1.652 -0.572,3.55 -0.442,5.314 l 0.442,3.288 0.068,0.037 0.996,0.537 1.056,0.568 -0.692,-3.528 c -0.417,-2.448 -0.066,-5.284 1.024,-7.437 0.384,-0.577 2.392,-3.484 3.527,-2.956 -0.1,0.059 -0.095,0.062 0.01,0.003 0.984,1.03 0.285,3.02 -0.186,4.145 -0.252,0.598 0.445,1.034 0.961,0.879 2.248,0.17 4.641,-1.021 6.283,-2.746 -0.582,1.318 -1.814,2.498 -2.789,3.474 -0.271,0.271 -0.209,0.595 -0.008,0.8 0.064,0.084 0.16,0.146 0.283,0.173 0.021,0.006 0.041,0.008 0.062,0.012 0.029,0.002 0.053,0.014 0.084,0.014 0.018,0 0.035,-0.002 0.053,-0.002 0.016,0 0.029,0 0.043,-0.002 9.846,-0.115 20.352,-4.959 26.25,-12.893 0.209,2.018 -1.701,3.803 -3.041,5.415 -0.488,-0.006 -0.754,0.796 -0.256,1.058 5.051,2.662 12.172,-1.863 14.25,-6.685 10e-4,-0.006 5.193,-11.659 -6.895,-21.284 z"
         transform="matrix(0.59873694,0,0,0.59873694,-173.85,-209.45)" />
    </g>
    <g
       id="Hat">
      <path
         id="Fill"
         fill="#8cb332"
         d="m 425.466,423.958 c -0.803,-2.522 -2.112,-5.074 -3.673,-7.44 -1.064,-1.614 -2.243,-3.141 -3.458,-4.514 -1.79,-2.021 -3.652,-3.711 -5.325,-4.838 -0.422,-0.284 -0.85,-0.557 -1.279,-0.828 -7.787,-4.901 -16.904,-7.622 -26.078,-8.292 -0.855,-0.062 -1.692,-0.079 -2.521,-0.076 -2.335,0.012 -4.571,0.273 -6.723,0.746 -8.013,1.759 -14.884,6.39 -21.547,11.506 -1.759,1.352 -3.504,2.734 -5.252,4.108 -0.373,0.293 -0.745,0.584 -1.118,0.876 -1.02,0.796 -2.041,1.586 -3.068,2.36 -1.771,1.334 -3.559,2.623 -5.381,3.819 0.375,0.313 0.721,0.69 1.018,1.131 0.914,1.358 -1.521,2.704 -2.146,1.255 -1.361,-3.155 -4.232,-0.78 -4.713,1.615 -0.232,1.158 -1.986,0.664 -1.764,-0.485 0.086,-0.443 0.227,-0.896 0.412,-1.333 -3.568,0.033 -7.863,-2.312 -9.643,-5.289 -2.045,-3.417 -1.467,-7.169 0.664,-10.396 0.147,-0.222 0.361,-0.274 0.549,-0.229 0.292,-0.451 0.44,-0.74 0.23,-0.846 -0.251,-0.125 -0.889,0.287 -1.65,0.939 0.303,0.013 0.478,0.431 0.246,0.664 -3.637,3.684 -4.646,7.432 -1.66,11.953 0.658,0.996 1.43,2.002 2.279,2.961 0.95,1.072 2.006,2.073 3.161,2.91 1.195,0.866 2.484,1.562 3.857,1.957 8.113,2.338 14.084,-3.369 21.725,-4.191 -0.232,-0.685 -0.389,-1.416 -0.465,-2.195 -0.092,-0.938 1.447,-1.134 1.635,-0.223 0.414,2.031 1.326,3.507 3.121,4.289 1.401,-1.581 2.886,-3.089 4.21,-4.738 0.029,-0.036 0.06,-0.069 0.089,-0.105 1.25,-1.569 3.529,0.671 2.221,2.222 -0.348,0.414 -0.707,0.819 -1.07,1.222 4.287,2.936 8.77,6.438 9.439,11.926 0.034,0.273 0.057,0.554 0.076,0.836 0.342,4.92 -1.262,10.917 1.09,15.298 l 0.566,-0.854 c 0.789,-1.471 1.836,-2.794 3.045,-4.005 1.648,-1.65 3.608,-3.083 5.707,-4.334 3.503,-2.089 7.366,-3.689 10.707,-5.02 2.698,-1.074 5.447,-2.152 8.235,-3.125 3.336,-1.165 6.729,-2.175 10.169,-2.832 3.924,-0.749 7.906,-1.043 11.926,-0.579 h 0.438 2.211 c 0.221,-0.801 0.334,-1.639 0.358,-2.5 0.044,-1.703 -0.271,-3.506 -0.85,-5.326 z"
         transform="matrix(0.59873694,0,0,0.59873694,-173.85,-209.45)" />
      <g
         id="Stars_1_">
        <path
           id="ID0.11494696792215109"
           fill="#fff100"
           d="m 391.432,418.646 15.176,3.5 -5.396,13.052 c 3.336,-1.165 6.729,-2.174 10.169,-2.832 l 4.937,-4.888 7.428,4.309 h 2.211 c 0.221,-0.801 0.334,-1.638 0.358,-2.5 l -4.026,-4.643 3.179,-0.688 c -0.803,-2.522 -2.111,-5.074 -3.673,-7.44 l -1.561,-0.606 -1.897,-3.906 c -1.79,-2.021 -3.652,-3.711 -5.325,-4.838 -0.422,-0.284 -0.85,-0.557 -1.279,-0.828 l -0.913,8.975 -19.388,3.333 z"
           transform="matrix(0.59873694,0,0,0.59873694,-173.85,-209.45)" />
        <path
           id="ID0.6186557998880744"
           fill="#fff100"
           d="m 385.148,432.27 -10.832,-5.906 11.834,-6.563 -18.877,0.537 -7.75,-7.817 1.583,8.62 c 0.029,-0.036 0.06,-0.069 0.089,-0.105 1.25,-1.569 3.529,0.671 2.221,2.222 -0.348,0.414 -0.707,0.819 -1.07,1.222 4.287,2.936 8.77,6.438 9.439,11.926 0.034,0.273 0.057,0.554 0.076,0.836 l 1.322,-4.968 h 11.965 v -0.004 z"
           transform="matrix(0.59873694,0,0,0.59873694,-173.85,-209.45)" />
        <path
           id="ID0.08594413287937641"
           fill="#fff100"
           d="m 348.49,415.207 c -1.02,0.796 -2.041,1.586 -3.068,2.36 l 4.101,2.669 -1.033,-5.029 z"
           transform="matrix(0.59873694,0,0,0.59873694,-173.85,-209.45)" />
        <path
           id="ID0.473344009835273"
           fill="#fff100"
           d="m 354.861,410.223 c -1.759,1.352 -3.504,2.734 -5.252,4.108 l 5.915,0.296 -0.663,-4.404 z"
           transform="matrix(0.59873694,0,0,0.59873694,-173.85,-209.45)" />
        <path
           id="ID0.1826361850835383"
           fill="#fff100"
           d="m 391.432,410.146 c 9.715,-0.5 10.342,-4.375 10.342,-4.375 0,0 -15.948,1.892 -18.644,-7.8 -2.335,0.012 -4.571,0.273 -6.723,0.746 0.857,5.963 5.977,11.894 15.025,11.429 z"
           transform="matrix(0.59873694,0,0,0.59873694,-173.85,-209.45)" />
        <path
           id="ID0.21344642853364348"
           fill="#fff100"
           d="m 323.863,423.33 c 0.95,1.072 2.006,2.073 3.161,2.91 v -3.762 l -3.161,0.852 z"
           transform="matrix(0.59873694,0,0,0.59873694,-173.85,-209.45)" />
        <path
           id="ID0.9997319127433002"
           fill="#fff100"
           d="m 376.563,447.677 c 1.648,-1.65 3.608,-3.083 5.707,-4.334 l -4.189,-6.03 -1.518,10.364 z"
           transform="matrix(0.59873694,0,0,0.59873694,-173.85,-209.45)" />
      </g>
      <path
         id="Outline"
         fill="#231f20"
         d="m 420.645,410.965 c -7.077,-8.771 -16.407,-13.051 -27.33,-15.125 -10.521,-1.997 -19.992,-0.57 -29.166,4.979 -9.291,5.621 -16.695,13.848 -25.865,19.666 -0.627,-0.156 -1.301,-0.184 -2.014,-0.052 -0.826,0.152 -1.529,0.577 -2.109,1.146 -0.072,-0.039 -0.141,-0.082 -0.232,-0.105 -3.146,-0.82 -5.848,-0.956 -8.348,-3.344 -2.812,-2.688 -2.342,-6.527 -0.818,-9.726 0.172,-0.361 -0.055,-0.675 -0.343,-0.748 -0.188,-0.047 -0.402,0.007 -0.549,0.229 -2.131,3.227 -2.709,6.979 -0.664,10.396 1.779,2.978 6.074,5.322 9.643,5.289 -0.186,0.438 -0.326,0.89 -0.412,1.333 -0.223,1.149 1.531,1.645 1.764,0.485 0.48,-2.396 3.352,-4.771 4.713,-1.615 0.625,1.449 3.061,0.104 2.146,-1.255 -0.297,-0.439 -0.643,-0.816 -1.018,-1.131 1.822,-1.196 3.61,-2.485 5.381,-3.819 1.027,-0.774 2.048,-1.564 3.068,-2.36 0.373,-0.292 0.746,-0.583 1.118,-0.876 1.748,-1.374 3.493,-2.757 5.252,-4.108 6.663,-5.116 13.534,-9.747 21.547,-11.506 2.152,-0.473 4.388,-0.734 6.723,-0.746 0.829,-0.003 1.666,0.014 2.521,0.076 9.173,0.67 18.291,3.39 26.078,8.292 0.431,0.271 0.857,0.543 1.279,0.828 1.673,1.127 3.535,2.815 5.325,4.838 1.215,1.373 2.395,2.899 3.458,4.514 1.562,2.367 2.87,4.918 3.673,7.44 0.579,1.82 0.896,3.623 0.849,5.33 -0.024,0.861 -0.139,1.698 -0.358,2.5 h -2.211 -0.438 c -4.02,-0.464 -8.002,-0.17 -11.926,0.579 -3.438,0.657 -6.833,1.667 -10.169,2.832 -2.789,0.974 -5.537,2.051 -8.235,3.125 -3.341,1.33 -7.204,2.931 -10.707,5.02 -2.099,1.251 -4.059,2.684 -5.707,4.334 -1.209,1.211 -2.256,2.535 -3.045,4.005 l -0.566,0.854 c -2.352,-4.381 -0.748,-10.378 -1.09,-15.298 -0.02,-0.282 -0.042,-0.562 -0.076,-0.836 -0.67,-5.488 -5.152,-8.99 -9.439,-11.926 0.363,-0.401 0.723,-0.808 1.07,-1.222 1.309,-1.551 -0.971,-3.791 -2.221,-2.222 -0.029,0.036 -0.06,0.07 -0.089,0.105 -1.324,1.649 -2.809,3.158 -4.21,4.738 -1.795,-0.782 -2.707,-2.258 -3.121,-4.289 -0.188,-0.911 -1.727,-0.715 -1.635,0.223 0.076,0.779 0.232,1.512 0.465,2.195 -7.641,0.822 -13.611,6.529 -21.725,4.191 -1.374,-0.396 -2.663,-1.091 -3.857,-1.957 -1.154,-0.837 -2.21,-1.838 -3.161,-2.91 -0.849,-0.958 -1.621,-1.965 -2.279,-2.961 -2.986,-4.521 -1.977,-8.271 1.66,-11.953 0.232,-0.233 0.057,-0.651 -0.246,-0.664 -0.042,-10e-4 -0.085,0.003 -0.131,0.02 -8.674,2.87 -4.314,12.827 -0.096,17.657 8.586,9.812 20.369,5.075 30.525,0.858 0.137,-0.057 0.258,-0.138 0.359,-0.233 0.73,1.044 1.711,1.927 2.967,2.608 0.576,0.312 1.176,0.198 1.658,-0.215 0.941,-0.803 1.848,-1.65 2.717,-2.531 2.875,2.099 5.438,4.234 7.238,7.422 1.629,2.886 1.104,6.565 0.863,9.713 -0.275,3.615 -1.262,10.031 2.492,12.285 0,0 0.838,0.737 1.675,-0.187 0.114,-0.126 0.229,-0.281 0.341,-0.477 0,0 1.224,-1.728 1.346,-1.885 1.4,-1.797 3.006,-3.361 4.748,-4.759 -0.027,0.091 -0.045,0.188 -0.07,0.281 0.962,-0.807 2.026,-1.623 3.181,-2.422 0.04,-0.052 0.075,-0.109 0.116,-0.16 0.35,-0.225 0.718,-0.421 1.074,-0.635 1.862,-1.193 3.926,-2.307 6.17,-3.2 l 0.082,-0.02 c 1.5,-0.671 3.011,-1.314 4.523,-1.912 6.995,-2.762 14.596,-5.35 22.198,-5.547 l 0.014,-0.005 0.013,0.004 c 1.971,-0.05 3.941,0.053 5.901,0.365 0.146,0.022 0.284,0.028 0.414,0.022 4.319,0.246 4.502,-1.328 4.502,-1.328 3.251,-6.903 -2.905,-17.22 -7.174,-22.507 z"
         transform="matrix(0.59873694,0,0,0.59873694,-173.85,-209.45)" />
    </g>
  </g>
</svg>
