<?xml version="1.0" encoding="UTF-8" standalone="no"?>
<svg
   version="1.1"
   width="81.705566"
   height="78.32"
   id="svg8"
   sodipodi:docname="X-glow.svg"
   xmlns:inkscape="http://www.inkscape.org/namespaces/inkscape"
   xmlns:sodipodi="http://sodipodi.sourceforge.net/DTD/sodipodi-0.dtd"
   xmlns="http://www.w3.org/2000/svg"
   xmlns:svg="http://www.w3.org/2000/svg">
  <defs
     id="defs12" />
  <sodipodi:namedview
     id="namedview10"
     pagecolor="#ffffff"
     bordercolor="#000000"
     borderopacity="0.25"
     inkscape:showpageshadow="2"
     inkscape:pageopacity="0.0"
     inkscape:pagecheckerboard="0"
     inkscape:deskcolor="#d1d1d1" />
  <!-- Exported by Scratch - http://scratch.mit.edu/ -->
  <g
     id="ID0.2443972434848547">
    <g
       id="ID0.37392420740798116">
      <g
         id="ID0.11921940511092544">
        <path
           id="ID0.6013165418989956"
           fill="#00cccc"
           d="m 75.58,70.5 c -2.4,1.65 -5.27,2.6 -8.3,2.76 -0.42,0.03 -0.83,0.03 -1.24,0 -1.49,-0.08 -4.08,-0.06 -7.43,0.08 -1.92,0.24 -4.37,0.37 -7.6,0.38 -0.26,0.04 -0.59,0.09 -0.99,0.16 -2.51,0.42 -4.38,0.53 -6.08,0.41 -2.08,2.28 -4.91,3.71 -8.11,3.97 -0.1,0.01 -0.19,0.01 -0.29,0.02 -0.53,0.03 -1.06,0.04 -1.57,0.04 -3.27,0 -6.27,-0.61 -8.9,-1.82 -0.06,-0.02 -0.12,-0.05 -0.18,-0.08 -0.25,-0.08 -0.97,-0.29 -2.44,-0.6 -1.42,-0.23 -3.44,-0.57 -6.09,-1.03 -1.33,-0.22 -2.75,-0.45 -4.2,-0.68 -0.4,-0.06 -0.79,-0.15 -1.18,-0.26 C 4.53,72.08 0.35,66.95 0.35,60.79 c 0,-1.65 0.33,-3.3 0.97,-4.9 0.43,-1.06 1.02,-2.05 1.75,-2.93 1.14,-1.36 2.91,-3.23 5.61,-4.34 2.65,-1.16 5.55,-1.76 8.63,-1.77 0.87,-1.6 1.16,-2.05 1.43,-2.46 0.41,-0.61 1.14,-1.67 2.91,-4.08 -0.83,-1.1 -1.72,-2.29 -2.68,-3.57 C 18.93,36.68 18.9,36.63 18.86,36.58 17.95,35.31 16.62,33.5 14.9,31.17 14.5,31.15 14.13,31.13 13.78,31.09 13.69,31.08 13.6,31.07 13.51,31.06 3.34,29.79 0.89,22.73 0.33,20.14 0.11,19.1 0,18.07 0,17.06 0,12.21 2.47,7.81 6.76,5.32 9.26,3.86 12.12,3 15.23,2.75 15.52,2.73 15.81,2.72 16.1,2.72 c 1.08,0 2.15,-0.03 3.18,-0.08 h 0.12 c 1.44,-0.05 3.59,-0.16 6.44,-0.31 0.39,-0.06 0.81,-0.15 1.24,-0.24 0.31,-0.07 0.63,-0.12 0.94,-0.16 2.11,-0.26 3.89,-0.33 5.33,-0.24 2.17,0.11 4.16,0.68 5.88,1.63 2.08,-1.3 4.61,-2.14 7.56,-2.52 2.96,-0.37 6.19,-0.54 9.95,-0.54 0.48,0 1.78,-0.02 5.16,-0.16 C 61.97,0.09 62.03,0.09 62.1,0.09 64.6,0.03 66.5,0 67.91,0 c 0.47,0 0.93,0.03 1.39,0.09 2.58,0.32 6.28,1.66 9.3,6.14 1.26,1.86 2.98,5.53 1.68,10.61 -1.04,4.54 -3.67,7.03 -5.43,8.23 -2.37,1.65 -5.24,2.46 -8.76,2.46 -0.6,0 -1.22,-0.03 -1.87,-0.07 -2.17,3.17 -4.72,6.95 -7.62,11.33 1.56,1.95 3.32,4.18 5.3,6.69 h 0.6 l 4.09,-0.17 c 0.27,-0.01 0.54,-0.01 0.8,0 8.27,0.27 11.62,4.88 12.88,7.61 0.05,0.09 0.09,0.19 0.13,0.29 0.49,1.13 0.84,2.28 1.05,3.42 1.05,5.42 -1.18,10.71 -5.87,13.87 z" />
      </g>
    </g>
    <g
       id="ID0.5475822952575982">
      <path
         id="ID0.31206753151491284"
         fill="#ffffff"
         d="m 70.64,58.674 c 0.233,1.115 -0.177,2.023 -1.232,2.727 -0.763,0.528 -1.671,0.822 -2.727,0.88 -1.994,-0.117 -5.014,-0.088 -9.06,0.088 -1.525,0.235 -3.93,0.352 -7.213,0.352 -0.234,0 -0.968,0.104 -2.199,0.309 -1.231,0.206 -2.198,0.308 -2.902,0.308 -2.639,0 -3.753,-1.261 -3.343,-3.782 0.88,-1.056 2.023,-1.686 3.431,-1.892 1.407,-0.204 2.785,-0.396 4.135,-0.571 -1.643,-2.228 -5.073,-6.45 -10.292,-12.666 -1.643,1.759 -3.549,4.397 -5.717,7.916 -1.467,2.405 -2.934,4.78 -4.398,7.125 0.704,0.646 2.257,1.174 4.662,1.583 1.816,0.294 2.902,1.262 3.254,2.902 -0.059,-0.176 -0.234,0.089 -0.527,0.792 0,0.235 -0.03,0.559 -0.088,0.968 -0.294,0.998 -0.792,1.525 -1.495,1.583 -2.111,0.118 -3.87,-0.146 -5.278,-0.791 -0.879,-0.469 -2.609,-0.968 -5.189,-1.495 -1.407,-0.234 -3.489,-0.586 -6.245,-1.057 -1.407,-0.233 -2.845,-0.468 -4.31,-0.703 -1.702,-0.469 -2.552,-1.289 -2.552,-2.463 0,-0.233 0.059,-0.498 0.177,-0.792 0.585,-0.703 1.055,-1.113 1.407,-1.231 2.169,-0.996 4.778,-1.172 7.828,-0.527 0.938,0.176 1.729,0.264 2.375,0.264 0.527,-0.527 1.319,-1.759 2.375,-3.694 1.349,-2.521 2.14,-3.958 2.375,-4.311 0.938,-1.407 3.459,-4.837 7.564,-10.291 -1.877,-2.345 -4.428,-5.688 -7.652,-10.027 -1.174,-1.641 -3.05,-4.192 -5.63,-7.652 -1.231,-1.584 -1.965,-2.375 -2.199,-2.375 -0.176,0 -0.967,0 -2.374,0 -1.231,0.059 -2.142,0.059 -2.728,0 -2.287,-0.286 -3.548,-1.057 -3.782,-2.316 -0.294,-1.371 0.102,-2.37 1.188,-3 1.085,-0.63 2.36,-1 3.826,-1.116 1.231,0 2.463,-0.027 3.694,-0.085 1.584,-0.058 3.987,-0.172 7.213,-0.344 0.762,-0.116 1.554,-0.264 2.375,-0.439 1.407,-0.176 2.521,-0.233 3.343,-0.176 1.465,0.059 2.199,0.851 2.199,2.375 0,0.997 -0.295,1.847 -0.88,2.551 -0.646,0.234 -1.481,0.455 -2.507,0.659 -1.026,0.206 -2.361,0.427 -4.002,0.66 -0.176,0.411 0.264,1.262 1.319,2.551 1.523,1.935 2.345,2.99 2.463,3.166 0.996,1.584 2.287,3.314 3.87,5.19 2.111,2.639 3.371,4.222 3.782,4.75 2.169,-2.463 4.398,-5.395 6.685,-8.797 1.7,-2.639 3.4,-5.277 5.102,-7.916 0.176,-0.233 0.265,-0.586 0.265,-1.056 -0.411,-0.058 -0.851,-0.088 -1.319,-0.088 -0.353,0 -0.836,0.044 -1.451,0.132 -0.616,0.088 -1.042,0.132 -1.276,0.132 -1.055,0 -2.053,-0.645 -2.99,-1.935 -0.352,-1.817 1.056,-2.932 4.222,-3.343 2.404,-0.293 5.248,-0.439 8.532,-0.439 0.997,0 2.873,-0.059 5.63,-0.177 2.342,-0.06 4.189,-0.09 5.538,-0.09 0.469,0.06 0.997,0.528 1.584,1.407 0.292,0.411 0.321,1.027 0.088,1.848 -0.177,0.88 -0.499,1.467 -0.97,1.759 -0.646,0.471 -1.995,0.616 -4.049,0.44 -1.35,-0.117 -3.404,-0.088 -6.162,0.088 -3.64,5.165 -8.774,12.794 -15.405,22.888 2.585,3.162 6.435,7.993 11.549,14.491 0.292,0.47 0.585,0.94 0.879,1.41 0.469,0.705 0.938,1.087 1.407,1.145 1.29,0 3.252,0 5.891,0 1.408,-0.058 2.844,-0.116 4.311,-0.176 1.817,0.06 2.901,0.471 3.253,1.231 0.175,0.411 0.292,0.792 0.352,1.143 z" />
    </g>
  </g>
</svg>
