<svg version="1.1" width="26" height="37" xmlns="http://www.w3.org/2000/svg" xmlns:xlink="http://www.w3.org/1999/xlink">
  <!-- Exported by Scratch - http://scratch.mit.edu/ -->
  <g id="ID0.212367273401469" transform="matrix(1.0196079015731812, 0, 0, 1.0196079015731812, 0.5, 0.5)">
    <path id="ID0.4898520754650235" fill="#39B54A" d="M 0 105 L 21 105 L 21 147 L 0 147 L 0 105 Z " transform="matrix(0.2428571581840515, 0, 0, 0.2428571581840515, 0.4, 0.4)"/>
    <path id="ID0.39248654805123806" fill="#39B54A" d="M 21 84 L 42 84 L 42 105 L 21 105 L 21 84 Z " transform="matrix(0.2428571581840515, 0, 0, 0.2428571581840515, 0.4, 0.4)"/>
    <path id="ID0.04076503310352564" fill="#39B54A" d="M 63 42 L 84 42 L 84 63 L 63 63 L 63 42 Z " transform="matrix(0.2428571581840515, 0, 0, 0.2428571581840515, 0.4, 0.4)"/>
    <path id="ID0.7691744077019393" fill="#39B54A" d="M 84 0 L 105 0 L 105 42 L 84 42 L 84 0 Z " transform="matrix(0.2428571581840515, 0, 0, 0.2428571581840515, 0.4, 0.4)"/>
    <path id="ID0.9613332296721637" fill="#39B54A" d="M 0 0 L 21 0 L 21 42 L 0 42 L 0 0 Z " transform="matrix(0.2428571581840515, 0, 0, 0.2428571581840515, 0.4, 0.4)"/>
    <path id="ID0.06853042589500546" fill="#39B54A" d="M 21 42 L 42 42 L 42 63 L 21 63 L 21 42 Z " transform="matrix(0.2428571581840515, 0, 0, 0.2428571581840515, 0.4, 0.4)"/>
    <path id="ID0.486909759696573" fill="#39B54A" d="M 42 63 L 63 63 L 63 84 L 42 84 L 42 63 Z " transform="matrix(0.2428571581840515, 0, 0, 0.2428571581840515, 0.4, 0.4)"/>
    <path id="ID0.9730939674191177" fill="#39B54A" d="M 63 84 L 84 84 L 84 105 L 63 105 L 63 84 Z " transform="matrix(0.2428571581840515, 0, 0, 0.2428571581840515, 0.4, 0.4)"/>
    <path id="ID0.4482258437201381" fill="#39B54A" d="M 84 105 L 105 105 L 105 147 L 84 147 L 84 105 Z " transform="matrix(0.2428571581840515, 0, 0, 0.2428571581840515, 0.4, 0.4)"/>
  </g>
</svg>