<?xml version="1.0" encoding="UTF-8" standalone="no"?>
<!-- Generator: Adobe Illustrator 18.0.0, SVG Export Plug-In . SVG Version: 6.00 Build 0)  -->

<svg
   version="1.1"
   id="Layer_2"
   x="0px"
   y="0px"
   viewBox="0 0 40.524035 49.424555"
   enable-background="new 0 0 40.4 49.4"
   xml:space="preserve"
   sodipodi:docname="X-story-3.svg"
   width="40.524036"
   height="49.424557"
   xmlns:inkscape="http://www.inkscape.org/namespaces/inkscape"
   xmlns:sodipodi="http://sodipodi.sourceforge.net/DTD/sodipodi-0.dtd"
   xmlns="http://www.w3.org/2000/svg"
   xmlns:svg="http://www.w3.org/2000/svg"><defs
   id="defs9" /><sodipodi:namedview
   id="namedview7"
   pagecolor="#ffffff"
   bordercolor="#000000"
   borderopacity="0.25"
   inkscape:showpageshadow="2"
   inkscape:pageopacity="0.0"
   inkscape:pagecheckerboard="0"
   inkscape:deskcolor="#d1d1d1" />
<g
   id="g4"
   transform="translate(0.225)">
	<path
   fill="#41a2f2"
   d="m 39,48.9 c -2.2,0.1 -4.5,0.3 -6.7,0.4 -1.5,0 -3,0 -4.6,0 -1,0 -2.1,0 -3.1,0.1 -0.6,0.1 -0.7,-0.1 -0.7,-0.7 0,-0.8 -0.1,-1.6 -0.1,-2.4 0.9,-0.1 1.9,-0.2 2.8,-0.4 1.1,-0.3 1.1,-0.6 0.7,-1.6 -1.3,-3.2 -3.1,-6 -4.9,-8.9 -1.1,-1.8 -1.9,-3.6 -2.9,-5.4 -0.1,-0.2 -0.2,-0.3 -0.4,-0.6 -0.3,0.6 -0.6,1.1 -0.9,1.7 -1.6,2.9 -3.1,5.7 -4.7,8.6 -0.7,1.3 -1.6,2.5 -2.4,3.8 -0.2,0.4 -0.4,0.8 -0.6,1.2 -0.3,0.8 -0.1,1.1 0.7,1.2 1.2,0.1 2.5,0.3 3.7,0.3 0.8,0.1 0.9,0.2 0.8,1 -0.4,1.8 -0.4,1.9 -2.1,2 -1.9,0.1 -3.8,0 -5.7,0 -2.5,0 -5,0 -7.5,0.1 -0.5,0 -0.7,-0.1 -0.6,-0.6 C -0.1,48 0,47.3 0,46.4 0.6,46.3 1.3,46.2 2,46.2 5.1,46 7,44 8.3,41.5 c 1.6,-3 3.1,-6 4.7,-9 1.1,-2.1 2.3,-4.1 3.4,-6.1 0.1,-0.2 0,-0.7 -0.1,-0.9 C 15,23.1 13.6,20.7 12.3,18.2 10.9,15.6 9.5,13.1 8.1,10.5 8,9.7 7.7,8.9 7.3,8.1 6.6,6.7 5.9,5.3 4.9,4.1 4.5,3.6 3.4,3.5 2.6,3.3 2.3,3.2 1.9,3.3 1.5,3.3 1.5,2.5 1.5,1.7 1.5,0.9 1.5,0.7 1.9,0.4 2.1,0.3 4.4,0.2 6.7,0 9,0 c 2.3,0 4.5,0.1 6.8,0.1 0.6,0 0.8,0.2 0.7,0.8 -0.1,0.5 -0.1,1 0,1.4 0.1,0.6 -0.1,0.8 -0.7,0.8 -0.9,0.1 -1.8,0.2 -2.7,0.3 -1,0.2 -1.3,0.5 -0.8,1.4 1,1.9 1.9,3.8 3.1,5.5 1.4,1.9 2.2,4.1 3.4,6.1 0.5,0.9 1,1.9 1.6,3 0.6,-1 1.2,-1.9 1.7,-2.8 1.5,-2.7 2.9,-5.3 4.3,-8 C 27,7.7 27.7,6.9 28.2,6 28.5,5.6 28.6,5.1 28.7,4.6 28.8,3.9 28.2,3.7 27.7,3.6 26.6,3.4 25.5,3.3 24.3,3.2 23.6,3.1 23.4,2.9 23.3,2.2 23.2,0.4 23.1,0.3 25,0.2 29.2,0.1 33.4,0.1 37.6,0.1 c 0.6,0 0.9,0.2 0.7,0.9 -0.1,0.7 -0.1,1.3 -0.2,2.1 -0.9,0.1 -1.7,0.2 -2.6,0.4 -1.8,0.3 -3,1.3 -3.8,3 -0.3,0.7 -0.8,1.2 -1.2,1.8 -0.6,1.1 -1.2,2.2 -1.8,3.3 -0.9,1.7 -1.9,3.4 -2.9,5.1 -0.6,1.1 -1,2.2 -1.6,3.3 -0.5,0.9 -1,1.9 -1.5,2.8 -0.3,0.5 -0.3,0.8 0,1.3 1.2,2.1 2.5,4.2 3.6,6.3 1.1,2.1 2.1,4.2 3.3,6.3 1.6,2.8 3.3,5.7 5,8.4 0.8,1.3 2.2,1.6 3.7,1.3 1.5,-0.3 1.4,-0.3 1.7,1.1 0.5,1.6 0.5,1.4 -1,1.4 z"
   id="path2" />
</g>
</svg>
