<?xml version="1.0" encoding="UTF-8" standalone="no"?>
<!-- Generator: Adobe Illustrator 18.0.0, SVG Export Plug-In . SVG Version: 6.00 Build 0)  -->

<svg
   version="1.1"
   id="Layer_2"
   x="0px"
   y="0px"
   viewBox="0 0 44.692227 53"
   enable-background="new 0 0 44.8 53"
   xml:space="preserve"
   sodipodi:docname="X-story-2.svg"
   width="44.692226"
   height="53"
   xmlns:inkscape="http://www.inkscape.org/namespaces/inkscape"
   xmlns:sodipodi="http://sodipodi.sourceforge.net/DTD/sodipodi-0.dtd"
   xmlns="http://www.w3.org/2000/svg"
   xmlns:svg="http://www.w3.org/2000/svg"><defs
   id="defs17" /><sodipodi:namedview
   id="namedview15"
   pagecolor="#ffffff"
   bordercolor="#000000"
   borderopacity="0.25"
   inkscape:showpageshadow="2"
   inkscape:pageopacity="0.0"
   inkscape:pagecheckerboard="0"
   inkscape:deskcolor="#d1d1d1" />
<g
   id="g12"
   transform="translate(-0.09237742)">
	<path
   fill="#f7941e"
   d="m 44.6,47.8 c 0,-0.1 -0.1,-0.3 -0.1,-0.5 C 44.4,46 44.4,46 43,46.3 41.4,46.6 40,46.2 39.1,44.9 37.9,43.2 36.8,41.4 35.8,39.6 32.9,34.4 30,29.1 27.2,23.9 27,23.6 27.1,23 27.3,22.7 c 0.8,-1.6 1.6,-3.2 2.4,-4.7 0.2,-0.5 0.5,-0.9 0.7,-1.4 1.1,-2.1 2.2,-4.2 3.4,-6.2 0.4,-0.7 0.8,-1.4 1.2,-2 0.4,-0.6 1,-1.2 1.3,-1.9 0.8,-1.7 2.1,-2.7 3.9,-3 0.8,-0.1 1.7,-0.2 2.5,-0.4 0,-0.3 0,-0.6 0,-0.9 0,-0.3 0,-0.6 0,-0.9 0.1,-1 0.1,-1.1 -1,-1.1 -4.6,0 -9.2,0.1 -13.8,0.2 -0.2,0 -0.4,0.1 -0.5,0.2 C 26.2,1.7 25,2.9 23.9,4.1 23.5,4.5 23.6,6 24,6.3 c 0.1,0.1 0.3,0.1 0.4,0.1 0.9,0 1.8,0 2.7,0 0.9,0 1.3,0.5 1.1,1.4 0,0.3 -0.2,0.6 -0.4,0.9 -0.8,1.4 -1.5,2.8 -2.3,4.2 -0.7,1.3 -1.5,2.5 -2.2,3.9 C 23.1,16.5 23,16.3 22.9,16 22.2,14.7 21.7,13.3 20.9,12.1 19.8,10.2 18.5,8.4 17.4,6.5 17.1,6 16.8,5.4 16.6,4.8 16.2,4 16.4,3.6 17.3,3.5 18,3.4 18.7,3.3 19.3,3.3 20.8,3 20.8,3 20.8,1.6 20.8,1.4 20.8,1.2 20.8,1 21,0.2 20.6,0 19.9,0 18.1,0 16.3,0 14.4,0 11.7,0 9,0.1 6.3,0.2 6.1,0.2 5.8,0.3 5.7,0.5 4.3,1.7 2.9,2.9 1.6,4.1 1.1,4.6 1,6.3 1.5,6.9 1.6,7 1.7,7.1 1.9,7.1 2.9,7.3 4,7.5 5,7.7 6.4,8 7.5,8.6 8.1,9.9 c 0.4,0.9 0.8,1.8 1.2,2.7 0.2,0.6 0.5,1.2 0.7,1.8 1.2,2.7 2.5,5.3 3.8,8 0.8,1.8 1.6,3.5 2.4,5.3 0.2,0.4 0.2,0.9 0.1,1.2 -0.3,0.8 -0.8,1.7 -1.2,2.5 -2.7,4.7 -5.4,9.3 -8.1,14 -0.4,0.7 -1,1 -1.8,1 -0.3,0 -0.8,0.1 -1,0.3 -1.1,1 -2.2,2.1 -3.3,3 -0.9,0.8 -0.9,1.6 -0.7,2.6 0,0.4 0.3,0.7 0.8,0.6 1.6,-0.1 3.3,-0.1 4.9,-0.1 3.4,0 6.8,0.1 10.2,0.2 0.2,0 0.6,-0.1 0.7,-0.2 0.6,-1.5 1.6,-2.7 2.9,-3.8 0.1,-0.1 0.2,-0.3 0.2,-0.5 0.1,-0.4 0.2,-0.9 0.3,-1.3 0.2,-0.8 0,-1 -0.8,-1 -1.2,-0.1 -2.5,-0.2 -3.7,-0.4 -0.8,-0.1 -1,-0.5 -0.7,-1.2 0.3,-0.6 0.6,-1.3 0.9,-1.9 0.9,-1.6 2,-3.2 2.9,-4.8 0.6,-1.1 1.2,-2.2 1.8,-3.5 0.8,1.6 1.6,3 2.2,4.5 1,2.8 2.6,5.2 4.3,7.6 0.3,0.4 0.3,0.7 -0.1,1 -1,0.9 -1.9,1.9 -2.9,2.8 -0.4,0.4 -0.7,1.8 -0.3,2.3 0.1,0.2 0.4,0.3 0.6,0.3 0.5,0 1.1,-0.1 1.6,-0.1 1.5,0 3.1,0 4.7,0 1.6,-0.1 3.3,-0.3 5,-0.3 1.8,0 3.6,0.1 5.4,0.1 0.3,0 0.6,0 0.8,-0.2 0.8,-0.7 1.4,-1.6 2.2,-2.3 0.8,-0.8 0.8,-1.5 0.5,-2.3 z m -1,0.4 c -3.4,0.2 -6.8,0.3 -10.1,0.4 -1.4,0 -2.9,0 -4.4,0 -0.1,-0.6 -0.2,-1.2 -0.3,-1.8 0.8,-0.1 1.6,-0.1 2.3,-0.3 1.5,-0.4 1.7,-1.3 1.1,-2.7 -1.6,-4.5 -4.7,-8.2 -6.7,-12.4 -0.5,-1 -1.1,-2 -1.7,-2.9 -0.2,-0.4 -0.4,-0.4 -0.7,0 -0.7,1.3 -1.3,2.6 -2.1,3.9 -1.9,3.4 -3.9,6.8 -5.9,10.2 -0.3,0.5 -0.6,1.1 -0.8,1.6 -0.5,1.2 -0.1,2 1.2,2.2 1.3,0.2 2.5,0.4 3.9,0.5 0,0 0,0.1 0,0.1 -0.3,1.7 -0.3,1.8 -2.1,1.8 -4,0 -8.1,0 -12.2,0 C 5.1,48 5,47.5 5,47 c 0.9,-0.1 1.9,-0.2 2.8,-0.3 1.7,-0.2 2.9,-1.2 4,-2.5 1.3,-1.4 2,-3.1 2.8,-4.9 0.4,-0.9 1,-1.8 1.5,-2.7 0.8,-1.5 1.5,-3 2.4,-4.4 1.1,-1.8 2,-3.6 2.8,-5.5 0.1,-0.3 0.4,-0.5 0.7,-0.8 C 21.3,24.7 20.5,23.4 19.8,22.1 18.6,19.9 17.5,17.6 16.2,15.3 15.2,13.4 14.1,11.5 13,9.7 12,7.9 11,6.2 10.2,4.3 9.8,3 8.7,2.9 7.6,2.7 7.3,2.6 6.9,2.7 6.4,2.7 6.5,2 6.6,1.4 6.7,0.7 8.5,0.6 10.2,0.4 12,0.4 c 2.5,0 4.9,0.1 7.4,0.1 0.5,0 0.9,0 0.8,0.6 -0.1,0.5 0.5,1.3 -0.7,1.4 -0.8,0 -1.7,0.2 -2.5,0.4 -1,0.2 -1.4,1.1 -0.9,2 1,1.9 2,3.9 3.2,5.7 1.3,1.8 2.1,3.9 3.2,5.8 0.6,1.1 1.2,2.2 1.8,3.3 0.1,0.2 0.4,0.4 0.6,0.5 0.1,-0.2 0.2,-0.4 0.4,-0.6 0.1,-0.1 0.1,-0.2 0.2,-0.3 1.8,-1.9 2.6,-4.4 3.8,-6.6 0.9,-1.6 1.9,-3.2 2.9,-4.8 C 32.7,7 33.3,6 33.7,5.1 34.1,4.3 33.6,3.4 32.7,3.1 31.9,2.9 31,2.7 30.1,2.7 29.4,2.7 28.9,2.3 28.5,1.9 28.4,1.8 28.3,1.4 28.4,1.2 28.4,1 28.7,0.9 29,0.9 c 2.6,-0.1 5.3,-0.2 7.9,-0.2 1.4,0 2.9,0 4.3,0 h 1 c 0,0.7 -0.1,1.2 -0.1,1.8 C 41.2,2.6 40.5,2.8 39.7,2.9 38,3 36.9,4 35.9,5.4 34.1,8 32.7,10.9 31.2,13.7 29.6,16.8 28,19.9 26.5,23 c -0.1,0.2 -0.1,0.6 0.1,0.8 1.1,2.1 2.2,4.3 3.4,6.4 0.3,0.5 0.6,1 0.9,1.5 2.2,4.7 4.7,9.1 7.5,13.5 1.1,1.7 2.4,2.2 4.4,1.8 0.3,-0.1 0.6,-0.1 1,-0.2 -0.1,0.4 -0.1,0.8 -0.2,1.4 z"
   id="path2" />
	<path
   fill="#ffffff"
   d="m 42.7,46.9 c -2,0.4 -3.3,-0.1 -4.4,-1.8 -2.7,-4.4 -5.3,-8.8 -7.5,-13.5 -0.2,-0.5 -0.6,-1 -0.9,-1.5 -1.1,-2.1 -2.3,-4.3 -3.4,-6.4 -0.1,-0.2 -0.2,-0.6 -0.1,-0.8 1.5,-3.1 3.1,-6.2 4.7,-9.3 1.5,-2.8 2.8,-5.7 4.7,-8.3 C 36.9,4 38,3 39.6,2.8 40.4,2.7 41.1,2.6 42,2.4 42,1.9 42.1,1.3 42.1,0.6 h -1 c -1.5,0 -2.9,-0.1 -4.3,0 -2.6,0 -5.3,0.1 -7.9,0.2 -0.2,0 -0.5,0.1 -0.6,0.3 -0.1,0.2 0,0.6 0.1,0.7 0.5,0.4 0.9,0.8 1.6,0.8 0.9,0 1.7,0.2 2.6,0.4 0.9,0.3 1.4,1.2 1,2 -0.5,1 -1,1.9 -1.5,2.8 -0.9,1.6 -2,3.2 -2.9,4.8 -1.2,2.2 -2,4.7 -3.8,6.6 -0.1,0.1 -0.1,0.2 -0.2,0.3 -0.1,0.2 -0.2,0.4 -0.4,0.6 C 24.6,19.9 24.3,19.8 24.2,19.6 23.6,18.5 23,17.4 22.4,16.3 21.3,14.4 20.5,12.3 19.2,10.5 17.9,8.8 17,6.8 16,4.9 15.5,4 15.9,3.2 16.9,2.9 17.7,2.7 18.5,2.6 19.4,2.5 20.6,2.5 20,1.6 20.1,1.1 20.2,0.5 19.8,0.5 19.3,0.5 16.8,0.5 14.3,0.3 11.9,0.4 10.1,0.4 8.4,0.6 6.6,0.7 6.5,1.4 6.4,2 6.3,2.7 c 0.5,0 0.9,-0.1 1.2,0 1.2,0.2 2.3,0.3 2.9,1.6 0.8,1.8 1.8,3.6 2.8,5.4 1,1.9 2.1,3.8 3.2,5.6 1.2,2.2 2.4,4.5 3.6,6.8 0.7,1.3 1.4,2.5 2.2,3.8 -0.3,0.3 -0.6,0.5 -0.7,0.8 -0.9,1.9 -1.7,3.8 -2.8,5.5 -0.9,1.4 -1.6,2.9 -2.4,4.4 -0.5,0.9 -1,1.8 -1.5,2.7 -0.8,1.7 -1.6,3.4 -2.8,4.9 -1.1,1.2 -2.3,2.3 -4,2.5 -0.9,0.1 -1.8,0.2 -2.8,0.3 0,0.5 0,1.1 0.1,1.8 4.1,0 8.2,0 12.2,0 1.8,0 1.8,0 2.1,-1.8 0,0 0,0 0,-0.1 -1.3,-0.2 -2.6,-0.3 -3.9,-0.5 -1.3,-0.2 -1.7,-1 -1.2,-2.2 0.2,-0.6 0.5,-1.1 0.8,-1.6 2,-3.4 3.9,-6.8 5.9,-10.2 0.7,-1.3 1.4,-2.6 2.1,-3.9 0.2,-0.5 0.5,-0.4 0.7,0 0.6,1 1.2,1.9 1.7,2.9 2,4.3 5,8 6.7,12.4 0.5,1.5 0.4,2.3 -1.1,2.7 -0.7,0.2 -1.5,0.2 -2.3,0.3 0.1,0.6 0.2,1.3 0.3,1.8 1.5,0 3,0 4.4,0 3.4,-0.1 6.7,-0.3 10.1,-0.4 0,-0.5 0.1,-1 0.1,-1.5 -0.6,0.1 -0.9,0.2 -1.2,0.2 z M 22.4,22.2 C 22.2,22.1 21.9,22 21.8,21.9 20.8,20.1 19.8,18.4 18.9,16.6 18,14.8 17.2,12.9 16.3,11 15.9,10.1 15.3,9.2 14.8,8.3 14.6,8 14.6,7.7 14.5,7.4 c 0.1,0 0.2,-0.1 0.3,-0.1 0.7,1.2 1.7,2.2 2.2,3.5 1.2,3.1 2.9,6 4.4,8.9 0.3,0.6 0.7,1.2 1,1.8 0,0.1 -0.1,0.4 0,0.7 z m 1.5,2.7 c -0.4,-0.1 -0.8,-0.4 -0.9,-0.7 -0.2,-0.5 0.4,-1 0.8,-1 0.5,0 0.8,0.4 0.8,1.2 -0.1,0.1 -0.4,0.6 -0.7,0.5 z m 9.7,17 c -1.1,-1 -2,-2.2 -2.6,-3.6 -0.6,-1.4 -1.3,-2.9 -2,-4.3 -1.1,-2.1 -2.2,-4.2 -3.3,-6.3 -0.1,-0.2 -0.3,-0.4 -0.4,-0.6 -0.1,-0.2 -0.1,-0.3 -0.1,-0.5 0.2,0 0.5,-0.1 0.6,0 0.2,0.2 0.4,0.4 0.6,0.7 1.3,2.4 2.5,4.7 3.7,7.1 0.5,1 0.9,2.1 1.4,3.1 0.6,1.2 1.2,2.3 1.8,3.4 0.2,0.3 0.3,0.6 0.5,1 -0.1,-0.1 -0.1,-0.1 -0.2,0 z"
   id="path4" />
	<path
   fill="#f7941e"
   d="m 33.8,41.8 c -0.1,0 -0.1,0.1 -0.2,0.1 -1.1,-1 -2,-2.2 -2.6,-3.6 -0.6,-1.4 -1.3,-2.9 -2,-4.3 -1.1,-2.1 -2.2,-4.2 -3.3,-6.3 -0.1,-0.2 -0.3,-0.4 -0.4,-0.6 -0.1,-0.2 -0.1,-0.3 -0.1,-0.5 0.2,0 0.5,-0.1 0.6,0 0.2,0.2 0.4,0.4 0.6,0.7 1.3,2.4 2.5,4.7 3.7,7.1 0.5,1 0.9,2.1 1.4,3.1 0.6,1.2 1.2,2.3 1.8,3.4 0.2,0.2 0.4,0.5 0.5,0.9 z"
   id="path6" />
	<path
   fill="#f7941e"
   d="M 22.4,22.2 C 22.2,22.1 21.9,22 21.8,21.9 20.8,20.1 19.8,18.4 18.9,16.6 18,14.8 17.2,12.9 16.3,11 15.9,10.1 15.3,9.2 14.8,8.3 14.6,8 14.6,7.7 14.5,7.4 c 0.1,0 0.2,-0.1 0.3,-0.1 0.7,1.2 1.7,2.2 2.2,3.5 1.2,3.1 2.9,6 4.4,8.9 0.3,0.6 0.7,1.2 1,1.8 0,0.1 -0.1,0.4 0,0.7 z"
   id="path8" />
	<path
   fill="#f7941e"
   d="m 24.6,24.4 c -0.1,0.1 -0.5,0.5 -0.7,0.5 -0.4,-0.1 -0.8,-0.4 -0.9,-0.7 -0.2,-0.5 0.4,-1 0.8,-1 0.5,0 0.8,0.4 0.8,1.2 z"
   id="path10" />
</g>
</svg>
