<?xml version="1.0" encoding="UTF-8" standalone="no"?>
<svg
   id="Layer_1"
   version="1.1"
   viewBox="0 0 29.659464 201.92325"
   sodipodi:docname="XylophoneStick.svg"
   width="29.659464"
   height="201.92325"
   xmlns:inkscape="http://www.inkscape.org/namespaces/inkscape"
   xmlns:sodipodi="http://sodipodi.sourceforge.net/DTD/sodipodi-0.dtd"
   xmlns="http://www.w3.org/2000/svg"
   xmlns:svg="http://www.w3.org/2000/svg">
  <sodipodi:namedview
     id="namedview19"
     pagecolor="#ffffff"
     bordercolor="#000000"
     borderopacity="0.25"
     inkscape:showpageshadow="2"
     inkscape:pageopacity="0.0"
     inkscape:pagecheckerboard="0"
     inkscape:deskcolor="#d1d1d1" />
  <!-- Generator: Adobe Illustrator 29.8.3, SVG Export Plug-In . SVG Version: 2.1.1 Build 3)  -->
  <defs
     id="defs4">
    <style
       id="style2">
      .st0 {
        fill: #4e2817;
      }

      .st1 {
        fill: #cd9c85;
      }

      .st2 {
        fill: #733c23;
      }

      .st3 {
        fill: #733b23;
      }

      .st4 {
        fill: #6e3921;
      }
    </style>
  </defs>
  <path
     d="m 2.2755091,24.288174 c -6.64,-9 2.29,-24.90000032 13.4099999,-24.27000032 3.64,0.21 11.76,5.73000002 13.17,9.14000002 0.97,2.3500003 1.04,7.7200003 0.33,10.2200003 -0.91,3.16 -4.63,5.76 -5.06,7.92 -0.73,3.64 -0.4,11.71 -0.48,15.92 -0.81,41.88 2.44,84.039996 2.83,125.909996 0.05,5.75 0.39,11.68 -0.04,17.41 -0.32,4.37 -0.33,13.96 -5.5,15.04 -4.88,1.02 -10.57,-0.05 -11.6799999,-5.53 -1.25,-6.15 -0.81,-18.64 -0.88,-25.46 -0.25,-21.96 1.14,-43.97 1.06,-65.92 -0.1,-24.899996 -2.71,-49.929996 -0.44,-74.809996 -0.16,-1.07 -5.36,-3.75 -6.7,-5.57 z"
     id="path6" />
  <path
     class="st3"
     d="m 17.705509,112.85817 c 0.35,20.14 4.46,61.21 0.61,78.73 -0.19,0.85 -0.03,3.18 -1.5,2.29 -1.04,-0.62 -0.95,-21.23 -0.98,-24.16 -0.15,-18.98 1.19,-38.04 1.16,-56.99 0.31,-0.58 0.55,-0.53 0.71,0.13 z"
     id="path8" />
  <path
     class="st2"
     d="m 17.775509,9.7581737 c -7.9399999,3.0300003 0.95,9.0200003 -0.51,1.4700003 l 0.51,-1.4700003 c 3.02,1.8400003 5.93,0.8200003 4.63,7.0100003 -2.3,10.93 -22.98999991,6.18 -12.8599999,-6.8000003 3.9299999,-5.04 5.0099999,-2.17 8.2299999,-0.22 v 0 z"
     id="path10" />
  <path
     class="st4"
     d="m 16.545509,78.278174 c -0.31,0.58 -0.55,0.53 -0.71,-0.13 -0.15,-12.62 -0.8,-26.04 -0.32,-38.57 0.05,-1.2 0.24,-10.45 1.34,-10.25 z"
     id="path12" />
  <path
     class="st0"
     d="m 17.705509,112.85817 -0.71,-0.13 c -0.02,-11.5 -1.02,-23.089996 -1.16,-34.579996 l 0.71,0.13 c 1.02,11.49 0.96,23.049996 1.16,34.579996 z"
     id="path14" />
  <path
     class="st1"
     d="m 17.775509,9.7581737 c 1.74,0.9900003 2.11,5.8900003 -0.88,6.3300003 -6.66,0.98 -3.81,-9.0100003 0.88,-6.3300003 z"
     id="path16" />
</svg>
