<?xml version="1.0" encoding="UTF-8" standalone="no"?>
<svg
   version="1.1"
   width="77.349998"
   height="82.199997"
   id="svg8"
   sodipodi:docname="Y-glow.svg"
   xmlns:inkscape="http://www.inkscape.org/namespaces/inkscape"
   xmlns:sodipodi="http://sodipodi.sourceforge.net/DTD/sodipodi-0.dtd"
   xmlns="http://www.w3.org/2000/svg"
   xmlns:svg="http://www.w3.org/2000/svg">
  <defs
     id="defs12" />
  <sodipodi:namedview
     id="namedview10"
     pagecolor="#ffffff"
     bordercolor="#000000"
     borderopacity="0.25"
     inkscape:showpageshadow="2"
     inkscape:pageopacity="0.0"
     inkscape:pagecheckerboard="0"
     inkscape:deskcolor="#d1d1d1" />
  <!-- Exported by Scratch - http://scratch.mit.edu/ -->
  <g
     id="ID0.1161401136778295">
    <g
       id="ID0.5282087507657707">
      <g
         id="ID0.07074214378371835">
        <path
           id="ID0.6677995841018856"
           fill="#00cccc"
           d="m 77.35,13.76 c 0,3.64 -1.44,7.16 -4.06,9.89 l -1.02,1.07 c -2.2,2.29 -5.31,3.53 -8.47,3.37 l -0.5,-0.02 c -1.67,3.7 -3.26,6.87 -4.8,9.59 -1.26,2.24 -2.35,4.49 -3.22,6.66 -0.15,0.36 -0.31,0.72 -0.49,1.06 -0.03,0.06 -0.08,0.16 -0.15,0.3 v 0.01 c 0.27,1.96 0.42,3.2 0.5,4.02 0.01,0.1 0.02,0.21 0.02,0.31 0.11,1.74 0.18,3.39 0.21,4.93 3.84,1.59 6.71,4.64 8,8.69 0.46,1.43 0.62,2.95 0.47,4.45 -0.14,1.37 -0.48,2.88 -1.07,4.75 -0.22,0.68 -0.5,1.33 -0.84,1.96 -2,3.66 -5.57,6.11 -9.84,6.75 -1.83,0.29 -3.86,0.36 -6.24,0.2 -1.23,-0.03 -2.23,-0.05 -2.75,-0.02 -1.21,0.09 -3.04,0.2 -5.55,0.33 -0.15,0.01 -0.3,0.01 -0.45,0.01 -0.19,0.01 -0.52,0.03 -0.98,0.05 -1.08,0.06 -1.87,0.08 -2.4,0.08 -5.96,0 -11.01,-2.88 -13.57,-7.73 -1.47,-2.72 -1.85,-5.9 -1.06,-9.03 0.03,-0.11 0.06,-0.22 0.09,-0.33 1.02,-3.59 3.65,-7.35 8.2,-9.38 v -1.67 c -0.12,-1.62 -0.27,-3.09 -0.45,-4.39 -1.27,-1.26 -2.34,-2.55 -3.23,-3.89 -2,-2.79 -4.03,-5.62 -6.08,-8.47 -0.03,-0.04 -0.05,-0.07 -0.07,-0.1 -1,-1.41 -1.89,-2.75 -2.69,-4.02 C 13.69,33.13 12.56,32.97 11.49,32.7 11.28,32.64 11.08,32.59 10.88,32.52 1.79,29.66 0.3,22.87 0.06,20.26 0.02,19.82 0,19.39 0,18.95 0,14.08 2.41,9.64 6.61,6.91 6.72,6.84 6.83,6.78 6.93,6.71 c 1.85,-1.11 3.8,-1.6 6.34,-2.03 2.05,-0.35 4.66,-0.51 8.22,-0.51 3.59,0 4.98,-0.13 5.41,-0.18 3.52,-0.42 6.47,-0.43 9.1,-0.07 0.08,0.01 0.17,0.02 0.25,0.04 1.7,-1.32 3.67,-2.22 5.78,-2.6 C 42.21,1.33 42.39,1.3 42.57,1.27 46.04,0.82 50.38,0.53 55.82,0.4 l 3.89,-0.33 c 0.05,0 0.09,0 0.14,-0.01 C 60.48,0.02 61.1,0 61.68,0 c 2.51,0 4.83,0.4 6.92,1.18 5.41,2.05 8.75,6.87 8.75,12.58 z" />
      </g>
    </g>
    <g
       id="ID0.1173640750348568">
      <path
         id="ID0.7870067665353417"
         fill="#ffffff"
         d="m 65.339,16.05 c -0.675,0.704 -1.012,1.056 -1.012,1.056 0,0 -1.202,-0.058 -3.606,-0.176 -0.118,0 -1.495,0.059 -4.134,0.176 -0.411,0.176 -0.792,0.646 -1.144,1.407 -2.347,5.63 -4.517,10.204 -6.51,13.722 -1.525,2.698 -2.814,5.366 -3.87,8.005 -0.527,0.998 -1.114,2.375 -1.759,4.134 0,0.411 0.146,1.35 0.439,2.815 0.233,1.701 0.381,2.873 0.439,3.518 0.176,2.815 0.234,5.309 0.176,7.478 -0.059,1.701 -0.029,3.577 0.089,5.629 0.058,0.411 0.292,0.675 0.703,0.792 1.056,0.06 2.58,0.118 4.574,0.176 1.7,0.176 2.756,0.91 3.167,2.199 -0.06,0.587 -0.265,1.438 -0.616,2.551 -0.352,0.645 -0.968,1.025 -1.847,1.144 -1.056,0.176 -2.405,0.205 -4.047,0.088 -2.053,-0.06 -3.431,-0.06 -4.134,0 -1.115,0.082 -2.874,0.188 -5.278,0.314 -0.176,0 -0.659,0.021 -1.451,0.063 -0.791,0.04 -1.394,0.062 -1.803,0.062 -1.936,0 -3.226,-0.646 -3.87,-1.935 -0.176,-0.293 -0.206,-0.674 -0.088,-1.144 0.585,-2.052 2.521,-3.02 5.805,-2.903 0.41,0 0.821,0 1.231,0 0.586,0.119 1.041,0.06 1.363,-0.174 0.322,-0.234 0.513,-0.759 0.572,-1.578 0.058,-0.583 0.058,-1.372 0,-2.365 -0.06,-1.227 -0.088,-1.912 -0.088,-2.058 0,-0.146 -0.044,-0.613 -0.132,-1.402 -0.088,-0.788 -0.132,-1.329 -0.132,-1.621 0,-2.104 0,-2.891 0,-2.365 -0.293,-4.03 -0.731,-7.33 -1.315,-9.9 -0.234,-0.115 -0.556,-0.32 -0.965,-0.612 -1.463,-1.227 -2.573,-2.425 -3.332,-3.593 -2.046,-2.861 -4.121,-5.752 -6.225,-8.673 -2.63,-3.738 -4.414,-6.805 -5.349,-9.198 -0.526,-0.058 -1.375,0 -2.543,0.176 -1.344,0.235 -2.309,0.352 -2.893,0.352 -0.586,0 -1.11,-0.058 -1.578,-0.176 -2.047,-0.645 -3.1,-1.553 -3.157,-2.727 -0.118,-1.349 0.41,-2.404 1.584,-3.167 0.292,-0.176 1.128,-0.381 2.507,-0.615 1.377,-0.233 3.503,-0.353 6.377,-0.353 3.107,0 5.365,-0.088 6.772,-0.264 2.463,-0.293 4.544,-0.321 6.245,-0.088 0.88,0.176 1.408,0.675 1.584,1.495 0.352,1.818 -0.528,3.021 -2.639,3.606 -0.88,0.295 -2.698,0.499 -5.454,0.616 0,0.587 -0.03,0.821 -0.088,0.703 1.289,2.874 2.492,5.073 3.606,6.598 0.762,1.056 2.169,2.786 4.222,5.189 0.762,1.174 2.023,2.698 3.783,4.574 0.761,-0.997 1.699,-2.639 2.814,-4.926 1.289,-2.756 2.199,-4.604 2.727,-5.542 1.173,-1.876 2.696,-5.071 4.574,-9.588 l -0.176,-0.176 c -3.694,0.235 -5.938,0.176 -6.729,-0.176 -0.791,-0.352 -1.188,-0.938 -1.188,-1.759 0,-0.704 0.249,-1.393 0.748,-2.067 0.497,-0.674 1.069,-1.069 1.715,-1.188 3.107,-0.409 7.242,-0.674 12.403,-0.792 1.407,-0.116 2.814,-0.233 4.222,-0.352 1.641,-0.117 3.004,0.03 4.09,0.439 1.085,0.411 1.628,1.174 1.628,2.287 0.005,0.824 -0.334,1.585 -1.007,2.289 z" />
    </g>
  </g>
</svg>
