<svg version="1.1" width="26" height="37" xmlns="http://www.w3.org/2000/svg" xmlns:xlink="http://www.w3.org/1999/xlink">
  <!-- Exported by Scratch - http://scratch.mit.edu/ -->
  <g id="ID0.32460648380219936" transform="matrix(1, 0, 0, 1, 0, -0.5)">
    <path id="ID0.529016871470958" fill="#39B54A" d="M 0 0 L 21 0 L 21 63 L 0 63 L 0 0 Z " transform="matrix(0.2429194301366806, 0, 0, 0.2429194301366806, 0.3, 0.9)"/>
    <path id="ID0.6445677867159247" fill="#39B54A" d="M 84 0 L 105 0 L 105 63 L 84 63 L 84 0 Z " transform="matrix(0.2429194301366806, 0, 0, 0.2429194301366806, 0.3, 0.9)"/>
    <path id="ID0.1726597580127418" fill="#39B54A" d="M 21 63 L 42 63 L 42 84 L 21 84 L 21 63 Z " transform="matrix(0.2429194301366806, 0, 0, 0.2429194301366806, 0.3, 0.9)"/>
    <path id="ID0.9017565953545272" fill="#39B54A" d="M 63 63 L 84 63 L 84 84 L 63 84 L 63 63 Z " transform="matrix(0.2429194301366806, 0, 0, 0.2429194301366806, 0.3, 0.9)"/>
    <path id="ID0.9560006158426404" fill="#39B54A" d="M 42 84 L 63 84 L 63 147 L 42 147 L 42 84 Z " transform="matrix(0.2429194301366806, 0, 0, 0.2429194301366806, 0.3, 0.9)"/>
  </g>
</svg>