<?xml version="1.0" encoding="UTF-8" standalone="no"?>
<!-- Generator: Adobe Illustrator 18.0.0, SVG Export Plug-In . SVG Version: 6.00 Build 0)  -->

<svg
   version="1.1"
   id="Layer_2"
   x="0px"
   y="0px"
   viewBox="0 0 45.374764 54.193609"
   enable-background="new 0 0 45.3 54.1"
   xml:space="preserve"
   sodipodi:docname="Y-story-2.svg"
   width="45.374763"
   height="54.193607"
   xmlns:inkscape="http://www.inkscape.org/namespaces/inkscape"
   xmlns:sodipodi="http://sodipodi.sourceforge.net/DTD/sodipodi-0.dtd"
   xmlns="http://www.w3.org/2000/svg"
   xmlns:svg="http://www.w3.org/2000/svg"><defs
   id="defs23" /><sodipodi:namedview
   id="namedview21"
   pagecolor="#ffffff"
   bordercolor="#000000"
   borderopacity="0.25"
   inkscape:showpageshadow="2"
   inkscape:pageopacity="0.0"
   inkscape:pagecheckerboard="0"
   inkscape:deskcolor="#d1d1d1" />
<g
   id="g18"
   transform="translate(-0.02523768,-0.00639167)">
	<path
   fill="#f7941e"
   d="m 44.4,0.3 c -2,0 -3.9,-0.1 -5.8,-0.2 -2.7,-0.2 -5.4,-0.1 -8,0.5 -0.2,0 -0.5,0.2 -0.6,0.4 -0.8,1 -1.7,1.9 -2.4,2.9 -0.7,1 -1.8,1.8 -1.5,3.3 0.2,1.2 0.4,1.4 1.6,1.4 0.9,0 1.9,0 3.1,0 -2.3,4.1 -4.5,8 -6.7,11.9 -0.1,-0.1 -0.2,-0.2 -0.3,-0.4 -2.7,-4.9 -5.4,-9.8 -8,-14.7 -0.3,-0.5 -0.1,-0.8 0.3,-1 0.6,-0.3 1.2,-0.7 1.9,-0.8 1.2,-0.2 1.8,-0.8 1.4,-2 0,-0.1 0,-0.2 0.1,-0.3 0.1,-0.5 -0.1,-0.7 -0.5,-0.7 -2.5,0 -4.9,0 -7.3,0 -2.3,0 -4.6,0 -6.9,0 C 4.6,0.6 4.4,0.7 4.3,0.9 3,1.8 2,3 0.9,4.1 c -1,1 -1,2.1 -0.7,3.2 0,0.2 0.4,0.5 0.6,0.5 1.1,0.2 2.3,0.3 3.5,0.5 0.9,0.1 1.3,0.8 1.6,1.6 0.1,0.3 0.2,0.6 0.4,0.9 1.2,2.3 2.5,4.6 3.7,6.9 1.5,2.8 2.8,5.7 4.2,8.6 1,2 2.2,3.9 2.2,6.4 0,4.2 0.2,8.4 0.5,12.5 0.1,1.7 -0.4,3 -1.7,4.1 -1.1,0.9 -2.4,1.9 -2,3.8 0.2,1 0.1,1.1 1.2,0.9 0.1,0 0.2,0 0.3,0 4.2,0.1 8.5,0.1 12.7,0.2 0.5,0 0.9,0 1.2,-0.5 0.6,-0.8 1.5,-1.4 2,-2.2 0.7,-1.1 2.1,-1.8 1.7,-3.5 -0.3,-1.1 0,-1.2 -1.3,-1.2 h -0.2 c -1.3,0 -2,-0.5 -2.2,-1.8 -0.1,-1 0,-1.9 0,-2.9 -0.1,-5.2 -0.3,-10.4 -0.4,-15.5 0,-0.3 0.1,-0.7 0.3,-1 0.7,-1.3 1.5,-2.5 2.2,-3.8 1.3,-2.5 2.5,-5 4,-7.4 1.6,-2.7 2.8,-5.7 4.7,-8.3 1.4,-1.9 3,-2.8 5.3,-2.4 0.5,0.1 0.7,-0.1 0.7,-0.7 0,-0.6 0,-1.2 0,-1.8 0,-0.7 -0.3,-0.9 -1,-0.9 z M 13.7,52.7 c 0,-0.1 -0.1,-0.2 -0.2,-0.3 0.1,-0.1 0.2,-0.1 0.2,-0.2 0.1,0.1 0,0.3 0,0.5 z M 44.7,3 c -0.8,0 -1.4,0 -2.1,0 -1.4,0 -2.4,0.7 -3.2,1.7 -1.3,1.6 -2.3,3.3 -3.1,5.2 -0.6,1.4 -1.6,2.5 -2.3,3.9 -1.4,2.5 -2.7,5.1 -4.1,7.6 -0.1,0.1 -0.1,0.3 -0.2,0.4 -2.1,2.5 -2.3,5.4 -2.2,8.5 0.1,2.4 0,4.8 0.1,7.2 0,0.9 0.1,1.7 0.1,2.6 0,1.3 0,2.7 0,4 0,2.4 1.2,3.5 3.3,3.3 0.2,0 0.3,0 0.5,0.1 0,0.5 0.1,0.9 0.1,1.5 -0.4,0 -0.8,0 -1.2,0 -2.7,-0.1 -5.3,-0.2 -8,-0.2 -1,0 -1.9,0.1 -2.9,0.2 -1.3,0.1 -1.3,0.1 -1.2,-1.1 0.9,-0.3 1.8,-0.5 2.5,-0.8 0.7,-0.3 1,-0.9 0.9,-1.8 -0.1,-1 0,-2 0.1,-3 0.1,-2.5 0.3,-4.9 0.2,-7.4 0,-2.3 -0.4,-4.7 -0.4,-7 0,-0.9 -0.5,-1.4 -0.8,-2 C 18.9,22.4 17.1,19 15.2,15.5 13.5,12.5 12.1,9.3 10,6.5 9.3,5.6 8.8,4.6 8,3.7 7.7,3.1 7,2.7 6.5,2.7 5,2.9 4.7,2.7 5,1 c 4.6,0.1 9.1,0.2 13.7,0.3 0.2,1.2 0.1,1.3 -1,1.6 -1.1,0.2 -2.2,0.5 -2.8,1.6 -0.1,0.2 -0.1,0.5 0,0.6 0.8,1.7 1.6,3.4 2.5,5.1 2,3.7 4,7.5 6,11.2 0.5,0.9 1,1.6 1.6,2.4 0.3,0.4 0.5,0.3 0.8,0 0.3,-0.4 0.5,-0.8 0.7,-1.2 1.6,-3.9 3.9,-7.5 6.3,-11 C 33.6,10.4 34.3,9.1 35,7.8 35.3,7.3 35.7,6.7 36,6.2 36.8,4.9 36.3,3.6 34.8,3.3 33.8,3.1 32.8,3 31.9,3 c -0.7,0 -1.1,-0.3 -1,-1 0,-0.3 0,-0.6 0.1,-1 4.6,-0.6 9.2,-0.2 13.8,0 v 2 z"
   id="path2" />
	<path
   fill="#ffffff"
   d="m 30.9,1 c 0,0.4 -0.1,0.7 -0.1,1 0,0.7 0.3,1 1,1 1,0 2,0.1 2.9,0.2 1.5,0.3 2,1.6 1.2,2.9 -0.3,0.5 -0.7,1.1 -1,1.6 -0.7,1.3 -1.4,2.6 -2.2,3.8 -2.3,3.5 -4.6,7.1 -6.3,11 -0.2,0.4 -0.5,0.8 -0.7,1.2 -0.2,0.3 -0.5,0.4 -0.8,0 -0.5,-0.8 -1.1,-1.6 -1.6,-2.4 -2,-3.7 -4,-7.4 -6,-11.2 C 16.4,8.4 15.6,6.7 14.8,5 14.7,4.8 14.8,4.6 14.8,4.4 15.4,3.3 16.5,3 17.6,2.8 18.7,2.6 18.8,2.5 18.6,1.2 14.1,1.2 9.6,1.1 5,1 4.7,2.7 5,2.9 6.5,2.7 7,2.7 7.7,3 8.1,3.4 c 0.8,0.8 1.3,1.9 2,2.8 2.1,2.8 3.6,6 5.2,9 1.9,3.5 3.7,6.9 5.6,10.4 0.3,0.6 0.8,1.1 0.8,2 0,2.3 0.4,4.7 0.4,7 0,2.5 -0.1,4.9 -0.2,7.4 0,1 -0.2,2 -0.1,3 0.1,0.9 -0.2,1.5 -0.9,1.8 -0.8,0.4 -1.7,0.5 -2.5,0.8 -0.1,1.2 0,1.2 1.2,1.1 1,-0.1 1.9,-0.2 2.9,-0.2 2.7,0 5.3,0.1 8,0.2 0.4,0 0.8,0 1.2,0 0,-0.6 -0.1,-1 -0.1,-1.5 -0.2,0 -0.4,-0.1 -0.5,-0.1 -2,0.2 -3.3,-0.9 -3.3,-3.3 0,-1.3 0,-2.7 0,-4 0,-0.9 -0.1,-1.7 -0.1,-2.6 0,-2.4 0,-4.8 -0.1,-7.2 -0.1,-3.1 0.1,-6 2.2,-8.5 0.1,-0.1 0.2,-0.3 0.2,-0.4 1.3,-2.5 2.7,-5.1 4.1,-7.6 0.7,-1.3 1.7,-2.5 2.3,-3.9 0.8,-1.9 1.8,-3.6 3.1,-5.2 0.8,-1 1.8,-1.7 3.2,-1.7 0.7,0 1.4,0 2.1,0 V 1 C 40.1,0.8 35.5,0.5 30.9,1 Z M 16.7,13.1 c -0.2,0 -0.4,0 -0.5,-0.2 -0.9,-1.5 -1.8,-2.9 -2.7,-4.4 0.1,-0.1 0.2,-0.1 0.3,-0.2 0.2,0.1 0.4,0.2 0.5,0.4 0.8,1.2 1.6,2.4 2.4,3.6 0.1,0.1 0.2,0.2 0.2,0.4 0,0.2 -0.1,0.4 -0.2,0.4 z m 1.1,3 c -0.2,-0.3 -0.5,-0.6 -0.7,-0.9 0,-0.1 0.4,-0.5 0.6,-0.5 0.2,0 0.5,0.3 0.8,0.6 -0.3,0.3 -0.5,0.5 -0.7,0.8 z m 3.6,7.2 c -0.4,-0.6 -0.8,-1.1 -1.1,-1.7 -0.5,-0.9 -1,-1.8 -1.5,-2.7 -0.1,-0.2 -0.2,-0.5 -0.2,-0.8 0,-0.1 0.1,-0.3 0.3,-0.3 0.1,0 0.3,0.1 0.3,0.2 0.8,1.6 1.5,3.2 2.3,4.8 0.1,0.1 0.1,0.3 0.1,0.4 0,0 -0.1,0.1 -0.2,0.1 z m 3,5.1 c 0,-0.1 0.1,-0.2 0.1,-0.3 h 0.2 c 0.1,1.9 0.3,3.9 0.4,5.8 -0.1,0 -0.2,0.1 -0.3,0.2 -0.2,-0.2 -0.5,-0.3 -0.5,-0.5 0,-1.7 0,-3.4 0.1,-5.2 z m 0.2,7 c 0.5,0 0.9,0.4 0.8,0.9 -0.1,0.3 -0.5,0.6 -0.7,0.9 -0.3,-0.3 -0.6,-0.6 -1.1,-1 0.4,-0.4 0.7,-0.9 1,-0.8 z m 0.5,8.5 c 0,0.3 -0.1,0.7 -0.1,1.1 -0.1,0 -0.2,0 -0.3,0 -0.3,-0.7 -0.3,-1.5 -0.2,-2.2 0,-1.3 0.2,-2.6 0.3,-3.9 0,-0.2 0.2,-0.4 0.4,-0.6 0.1,0.2 0.3,0.4 0.3,0.6 -0.2,1.7 -0.3,3.3 -0.4,5 z"
   id="path4" />
	<path
   fill="#f7941e"
   d="m 25.4,38.9 c -0.1,1.7 -0.2,3.3 -0.4,5 0,0.3 -0.1,0.7 -0.1,1.1 -0.1,0 -0.2,0 -0.3,0 -0.3,-0.7 -0.3,-1.5 -0.2,-2.2 0,-1.3 0.2,-2.6 0.3,-3.9 0,-0.2 0.2,-0.4 0.4,-0.6 0.1,0.2 0.3,0.4 0.3,0.6 z"
   id="path6" />
	<path
   fill="#f7941e"
   d="m 21.6,23.2 c -0.1,0 -0.2,0.1 -0.2,0.1 -0.4,-0.6 -0.8,-1.1 -1.1,-1.7 -0.5,-0.9 -1,-1.8 -1.5,-2.7 -0.1,-0.2 -0.2,-0.5 -0.2,-0.8 0,-0.1 0.1,-0.3 0.3,-0.3 0.1,0 0.3,0.1 0.3,0.2 0.8,1.6 1.5,3.2 2.3,4.8 0.1,0.1 0.1,0.3 0.1,0.4 z"
   id="path8" />
	<path
   fill="#f7941e"
   d="m 25.1,34 c -0.1,0 -0.2,0.1 -0.3,0.2 -0.2,-0.2 -0.5,-0.3 -0.5,-0.5 0,-1.7 0,-3.4 0,-5.2 0,-0.1 0.1,-0.2 0.1,-0.3 h 0.2 c 0.2,1.9 0.4,3.8 0.5,5.8 z"
   id="path10" />
	<path
   fill="#f7941e"
   d="m 16.9,12.7 c 0,0.2 -0.1,0.4 -0.2,0.4 -0.2,0 -0.4,0 -0.5,-0.2 -0.9,-1.5 -1.8,-2.9 -2.7,-4.4 0.1,-0.1 0.2,-0.1 0.3,-0.2 0.2,0.1 0.4,0.2 0.5,0.4 0.8,1.2 1.6,2.4 2.4,3.6 0.1,0.1 0.2,0.3 0.2,0.4 z"
   id="path12" />
	<path
   fill="#f7941e"
   d="m 25.4,36.3 c -0.1,0.3 -0.5,0.6 -0.7,0.9 -0.3,-0.3 -0.6,-0.6 -1.1,-1 0.4,-0.4 0.7,-0.9 1,-0.9 0.4,0.1 0.9,0.4 0.8,1 z"
   id="path14" />
	<path
   fill="#f7941e"
   d="m 18.6,15.2 c -0.4,0.4 -0.6,0.6 -0.8,0.9 -0.2,-0.3 -0.5,-0.6 -0.7,-0.9 0,-0.1 0.4,-0.5 0.6,-0.5 0.3,-0.1 0.5,0.2 0.9,0.5 z"
   id="path16" />
</g>
</svg>
