<?xml version="1.0" encoding="UTF-8" standalone="no"?>
<!-- Generator: Adobe Illustrator 18.0.0, SVG Export Plug-In . SVG Version: 6.00 Build 0)  -->

<svg
   version="1.1"
   id="Layer_2"
   x="0px"
   y="0px"
   viewBox="0 0 41 49.434849"
   enable-background="new 0 0 41 49.5"
   xml:space="preserve"
   sodipodi:docname="Y-story-3.svg"
   width="41"
   height="49.434849"
   xmlns:inkscape="http://www.inkscape.org/namespaces/inkscape"
   xmlns:sodipodi="http://sodipodi.sourceforge.net/DTD/sodipodi-0.dtd"
   xmlns="http://www.w3.org/2000/svg"
   xmlns:svg="http://www.w3.org/2000/svg"><defs
   id="defs9" /><sodipodi:namedview
   id="namedview7"
   pagecolor="#ffffff"
   bordercolor="#000000"
   borderopacity="0.25"
   inkscape:showpageshadow="2"
   inkscape:pageopacity="0.0"
   inkscape:pagecheckerboard="0"
   inkscape:deskcolor="#d1d1d1" />
<g
   id="g4"
   transform="translate(0,0.03484692)">
	<path
   fill="#41a2f2"
   d="m 41,1.2 c 0,0.6 0,1.2 0,1.7 0,0.6 -0.2,0.8 -0.8,0.7 -2.3,-0.4 -3.8,0.5 -5.2,2.3 -2,2.6 -3.2,5.6 -4.8,8.4 -1.4,2.4 -2.6,4.9 -3.9,7.4 -0.7,1.3 -1.5,2.5 -2.2,3.8 -0.2,0.3 -0.3,0.6 -0.3,0.9 0.1,5.2 0.2,10.4 0.4,15.5 0,1 -0.1,2 0,3 0.2,1.3 0.9,1.7 2.1,1.7 1.5,0 1.5,0 1.6,1.5 0.1,1.3 0.1,1.3 -1.2,1.3 -2.9,-0.1 -5.8,-0.1 -8.8,-0.2 -1.3,0 -2.7,0 -4,0 -0.2,0 -0.5,-0.1 -0.7,-0.1 0,-0.1 -0.1,-0.2 -0.1,-0.3 0.1,-0.6 -0.1,-1.4 0.2,-1.8 0.3,-0.3 1.1,-0.2 1.7,-0.3 1.2,-0.3 1.7,-0.8 1.7,-2.1 0.1,-2.5 0.4,-4.9 0.3,-7.4 0,-3.2 -0.2,-6.5 -0.4,-9.7 0,-0.4 -0.3,-0.9 -0.5,-1.3 C 14.1,22.4 12,18.7 10,15 8.5,12 6.8,8.8 4.7,5.9 4.5,5.6 4.4,5.2 4.2,4.9 3.4,3.7 2.3,3.2 0.8,3.3 0.6,3.3 0.3,3.3 0.1,3.3 0.1,2.6 0,1.8 0,1.1 0,0.7 0.2,0.5 0.6,0.5 c 2.5,0 5.1,0 7.6,0 1.9,0 3.9,0 5.8,0 1,0 1,-0.1 0.9,0.9 0,0 0,0.1 0,0.1 0.4,1.3 -0.2,1.8 -1.4,2 -0.7,0.1 -1.3,0.5 -1.9,0.8 -0.5,0.2 -0.5,0.6 -0.3,1.1 3,5.5 6,10.9 9,16.4 0.2,0.4 0.4,0.7 0.7,1.2 0.2,-0.4 0.3,-0.6 0.4,-0.9 1.4,-3.4 3.3,-6.5 5.3,-9.6 1.3,-2 2.5,-4 3.7,-6 C 30.5,6.3 30.6,6.1 30.7,6 31.8,5 31.4,4.3 30,4 28.8,3.7 27.6,3.7 26.4,3.6 26.2,3.6 26,3.6 25.8,3.5 25.7,2.8 25.7,2.1 25.6,1.4 25.5,0.8 25.7,0.6 26.2,0.5 28.7,0 31,-0.1 33.3,0 c 2.3,0.1 4.5,0.2 6.8,0.2 0.7,0.1 0.9,0.3 0.9,1 z"
   id="path2" />
</g>
</svg>
