<svg version="1.1" width="26" height="36" xmlns="http://www.w3.org/2000/svg" xmlns:xlink="http://www.w3.org/1999/xlink">
  <!-- Exported by Scratch - http://scratch.mit.edu/ -->
  <g id="ID0.2567954007536173">
    <path id="ID0.16419929265975952" fill="#39B54A" d="M 21 84 L 42 84 L 42 105 L 21 105 L 21 84 Z " transform="matrix(0.24223898351192474, 0, 0, 0.24223898351192474, 0, 0.4)"/>
    <path id="ID0.7264953912235796" fill="#39B54A" d="M 42 63 L 63 63 L 63 84 L 42 84 L 42 63 Z " transform="matrix(0.24223898351192474, 0, 0, 0.24223898351192474, 0, 0.4)"/>
    <path id="ID0.5767715661786497" fill="#39B54A" d="M 63 42 L 84 42 L 84 63 L 63 63 L 63 42 Z " transform="matrix(0.24223898351192474, 0, 0, 0.24223898351192474, 0, 0.4)"/>
    <path id="ID0.11456661252304912" fill="#39B54A" d="M 105 147 L 105 126 L 21 126 L 21 105 L 0 105 L 0 147 L 105 147 " transform="matrix(0.24223898351192474, 0, 0, 0.24223898351192474, 0, 0.4)"/>
    <path id="ID0.018796910997480154" fill="#39B54A" d="M 105 42 L 105 0 L 0 0 L 0 21 L 84 21 L 84 42 L 105 42 " transform="matrix(0.24223898351192474, 0, 0, 0.24223898351192474, 0, 0.4)"/>
  </g>
</svg>