<?xml version="1.0" encoding="UTF-8" standalone="no"?>
<!-- Generator: Adobe Illustrator 18.0.0, SVG Export Plug-In . SVG Version: 6.00 Build 0)  -->

<svg
   version="1.1"
   id="Layer_2"
   x="0px"
   y="0px"
   viewBox="0 0 39.80918 51.827999"
   enable-background="new 0 0 39.7 52"
   xml:space="preserve"
   sodipodi:docname="Z-story-1.svg"
   width="39.809181"
   height="51.827999"
   xmlns:inkscape="http://www.inkscape.org/namespaces/inkscape"
   xmlns:sodipodi="http://sodipodi.sourceforge.net/DTD/sodipodi-0.dtd"
   xmlns="http://www.w3.org/2000/svg"
   xmlns:svg="http://www.w3.org/2000/svg"><defs
   id="defs23" /><sodipodi:namedview
   id="namedview21"
   pagecolor="#ffffff"
   bordercolor="#000000"
   borderopacity="0.25"
   inkscape:showpageshadow="2"
   inkscape:pageopacity="0.0"
   inkscape:pagecheckerboard="0"
   inkscape:deskcolor="#d1d1d1" />
<g
   id="g18"
   transform="translate(0.12360475)">
	<path
   fill="#53ad4e"
   d="m 39.5,36.3 c -0.8,0 -1.9,-0.3 -2.4,0.1 -1.5,1.1 -3.2,2 -3.6,4.1 0,0.1 -0.1,0.2 -0.2,0.3 -1.6,2.2 -3.7,3.5 -6.4,3.5 -3.2,0.1 -6.5,0 -9.7,0 -1.1,0 -2.3,0.2 -3.6,0.3 0.8,-1.5 1.4,-3 2.3,-4.3 2.7,-4.3 5.4,-8.5 8.1,-12.7 1.7,-2.7 3.5,-5.5 5.2,-8.2 1.2,-1.8 2.5,-3.6 3.4,-5.5 1.5,-3 3.1,-6 5.2,-8.8 C 38.4,4.3 38.9,3.3 39.3,2.4 40,0.7 39.6,0 37.6,0 35.1,0 32.6,0.1 30.1,0.1 28.3,0.1 26.6,0 24.8,0 20.8,0 16.7,0.1 12.7,0.2 10.6,0.2 8.5,0.1 6.4,0.2 6,0.1 5.5,0.3 5.2,0.5 c -1,0.9 -2,1.8 -2.9,2.8 -0.2,0.2 -0.5,0.6 -0.5,1 0.1,3.4 0.1,6.8 -0.4,10.2 0,0.3 0.1,0.6 0.1,0.7 0.9,-0.1 1.6,-0.1 2.3,-0.2 0.3,0 0.7,-0.1 0.9,-0.2 1,-1.1 1.9,-2.2 2.8,-3.3 C 7.6,11.3 7.7,11 7.7,10.8 8,9.1 8.5,7.6 9.9,6.6 c 2.5,-1.7 5.3,-1.8 8.2,-1.7 1.2,0 2.4,0 3.5,0 h 6.6 c 0,0.1 0.1,0.1 0.1,0.2 -0.5,0.7 -1.1,1.4 -1.6,2.1 -1.5,2.2 -2.9,4.4 -4.4,6.6 -1.4,2.2 -2.9,4.4 -4.3,6.6 -1.5,2.4 -3,4.8 -4.5,7.2 -1.6,2.6 -3.9,4.8 -5.3,7.6 -1,2 -2.5,3.7 -3.7,5.6 -1.3,2.1 -2.4,4.2 -3.8,6.3 -0.9,1.3 -1,2.6 -0.6,4 0.1,0.5 0.4,0.6 0.9,0.6 2.5,0 5.1,0.2 7.7,0.1 8,-0.2 16,-0.5 23.9,-0.6 2,0 3.4,-0.5 4.7,-1.8 0.1,-0.1 0.2,-0.1 0.2,-0.2 0.8,-0.9 2,-1.6 1.4,-3.2 0,-0.1 0,-0.1 0,-0.2 -0.2,-3 0.1,-5.9 0.7,-8.9 0.2,0 0,-0.6 -0.1,-0.6 z M 2.4,5 C 2.4,4.5 2.5,4.1 3,3.7 3.7,3 4.5,2.3 5.3,1.5 c 0,0.3 0,0.5 0,0.7 -0.1,2.5 -0.2,5 -0.2,7.6 0,0.8 -0.1,1.5 -0.7,2.1 -0.7,0.6 -1.3,1.2 -2,1.8 0,-3 0,-5.9 0,-8.7 z M 5,13.5 C 4.4,14.2 3.7,14.6 2.8,14.4 2.7,14.3 2.6,14.2 2.6,14.2 2.9,14 3.3,13.9 3.5,13.6 4,13.2 4.6,12.7 5,12.2 5.4,11.6 5.9,11.4 6.8,11.5 6.1,12.2 5.5,12.8 5,13.5 Z m 28.5,28.2 c 0.3,-0.3 0.6,-0.6 0.6,-1 0.2,-1.5 1.6,-2 2.4,-3 -0.8,3.5 -2.6,6.4 -5.4,6.4 0.7,-0.7 1.6,-1.5 2.4,-2.4 z M 27.5,4.4 C 26.3,4.3 25.1,4.3 24,4.3 c -3.1,0 -6.2,0 -9.2,0.1 -1.2,0 -2.4,0.5 -3.7,0.8 -0.2,0.1 -0.5,0.2 -0.9,0.4 1,-1.3 2,-1.9 3.4,-2 C 18,3 22.4,3.4 26.8,3.3 c 1.4,0 2.8,0.1 4.2,0.2 -1.2,0.7 -2.2,1 -3.5,0.9 z M 2.3,46.1 c 1.3,-2.1 2.5,-4.2 3.8,-6.2 0.9,-1.4 2,-2.6 2.7,-4 1.4,-2.8 3.7,-5 5.4,-7.7 1.7,-2.8 3.4,-5.7 5.2,-8.5 0.7,-1.1 1.4,-2.2 2.1,-3.2 2.2,-3.3 4.6,-6.5 6.7,-10 0.7,-1.2 1.7,-1.6 2.8,-2 0,0 0,0 0.3,0 -1.2,1.7 -2.3,3.3 -3.4,5 -1.8,2.8 -3.5,5.7 -5.3,8.5 -1.5,2.3 -3.1,4.5 -4.5,6.8 -2.2,3.4 -4.4,6.9 -6.6,10.3 -1.6,2.5 -3.2,5 -4.8,7.5 -0.1,0.1 -0.2,0.2 -0.2,0.2 -1,2.5 -3.5,3.6 -5.1,5.6 -0.1,0.1 -0.2,0.1 -0.5,0.3 0.6,-1.1 1,-1.9 1.4,-2.6 z M 1,50.8 H 0.8 C 0.9,50.5 0.9,50 1.1,49.8 2.4,48.5 3.8,47.2 5.2,45.9 5.1,46.2 5.2,46.8 5,47 3.6,48.3 2.3,49.5 1,50.8 Z m 35.2,-1.1 c -0.7,0.8 -1.5,1 -2.6,1 -2.5,0 -4.9,0.2 -7.4,0.3 -6.9,0.1 -13.7,0.2 -20.5,0.3 -1.3,0 -2.6,0 -3.8,0 -0.1,0 -0.1,-0.1 -0.2,-0.2 1.1,-1.1 2.3,-2.2 3.5,-3.3 0.2,-0.2 0.6,-0.3 0.9,-0.2 5.9,0.1 11.8,0.2 17.7,0.2 4.2,0 8.3,-0.2 12.5,-0.3 0.7,0 1.4,-0.1 2,-0.1 0,0.1 0.1,0.1 0.1,0.2 -0.7,0.7 -1.5,1.4 -2.2,2.1 z"
   id="path2" />
	<path
   fill="#ffffff"
   d="m 30.8,3.4 c -1,0.8 -2.1,1.2 -3.3,1 C 26.3,4.3 25.1,4.3 24,4.3 c -3.1,0 -6.2,0 -9.2,0.1 -1.2,0 -2.4,0.5 -3.7,0.8 -0.2,0.1 -0.5,0.2 -0.9,0.4 1,-1.3 2,-1.9 3.4,-2 C 18,3 22.4,3.4 26.8,3.3 c 1.3,-0.1 2.7,0 4,0.1 z"
   id="path4" />
	<path
   fill="#ffffff"
   d="M 6.7,11.4 C 6,12.1 5.5,12.7 4.9,13.4 4.3,14.1 3.6,14.5 2.7,14.3 2.6,14.2 2.5,14.1 2.5,14.1 2.8,13.9 3.2,13.8 3.4,13.5 3.9,13.1 4.5,12.6 4.9,12.1 5.3,11.6 5.8,11.3 6.7,11.4 Z"
   id="path6" />
	<path
   fill="#ffffff"
   d="m 5.3,2.1 c -0.1,2.5 -0.2,5 -0.2,7.6 0,0.8 -0.1,1.5 -0.7,2.1 -0.7,0.6 -1.3,1.2 -2,1.8 0,-3 0,-5.8 0,-8.7 C 2.4,4.4 2.5,4 3,3.6 3.7,3 4.5,2.3 5.3,1.5 c 0,0.2 0,0.4 0,0.6 z"
   id="path8" />
	<path
   fill="#ffffff"
   d="m 31.2,4.4 c -1.2,1.7 -2.3,3.3 -3.4,5 -1.8,2.8 -3.5,5.7 -5.3,8.5 -1.5,2.3 -3.1,4.5 -4.5,6.8 -2.2,3.4 -4.4,6.9 -6.6,10.3 -1.6,2.5 -3.2,5 -4.8,7.5 -0.1,0.1 -0.2,0.2 -0.2,0.2 -1,2.5 -3.5,3.6 -5.1,5.6 -0.1,0.1 -0.2,0.1 -0.5,0.3 0.5,-1 1,-1.8 1.4,-2.5 1.3,-2.1 2.5,-4.2 3.8,-6.2 0.9,-1.4 2,-2.6 2.7,-4 1.4,-2.8 3.7,-5 5.4,-7.7 1.7,-2.8 3.4,-5.7 5.2,-8.5 0.7,-1.1 1.4,-2.2 2.1,-3.2 2.2,-3.3 4.6,-6.5 6.7,-10 0.7,-1.2 1.7,-1.6 2.8,-2 C 31,4.4 31,4.4 31.2,4.4 Z"
   id="path10" />
	<path
   fill="#ffffff"
   d="M 5.1,45.9 C 5,46.2 5.1,46.8 4.9,47 3.6,48.3 2.3,49.6 1,50.8 H 0.8 c 0.1,-0.3 0.1,-0.8 0.3,-1 1.2,-1.4 2.6,-2.6 4,-3.9 z"
   id="path12" />
	<path
   fill="#ffffff"
   d="m 38.5,47.6 c -0.8,0.7 -1.6,1.4 -2.3,2.2 -0.7,0.8 -1.5,1 -2.6,1 -2.5,0 -4.9,0.2 -7.4,0.3 -6.9,0.1 -13.7,0.2 -20.5,0.3 -1.3,0 -2.6,0 -3.8,0 -0.1,0 -0.1,-0.1 -0.2,-0.2 1.1,-1.2 2.3,-2.3 3.5,-3.4 0.2,-0.2 0.6,-0.3 0.9,-0.2 5.9,0.1 11.8,0.2 17.7,0.2 4.2,0 8.3,-0.2 12.5,-0.3 0.7,0 1.4,-0.1 2,-0.1 0.1,0 0.2,0.1 0.2,0.2 z"
   id="path14" />
	<path
   fill="#ffffff"
   d="m 36.5,37.8 c -0.8,3.5 -2.6,6.4 -5.4,6.4 0.8,-0.7 1.6,-1.5 2.5,-2.4 0.3,-0.3 0.6,-0.6 0.6,-1 0.1,-1.5 1.5,-2 2.3,-3 z"
   id="path16" />
</g>
</svg>
