<?xml version="1.0" encoding="UTF-8" standalone="no"?>
<!-- Generator: Adobe Illustrator 18.0.0, SVG Export Plug-In . SVG Version: 6.00 Build 0)  -->

<svg
   version="1.1"
   id="Layer_2"
   x="0px"
   y="0px"
   viewBox="0 0 39.820125 52.244446"
   enable-background="new 0 0 39.7 52"
   xml:space="preserve"
   sodipodi:docname="Z-story-2.svg"
   width="39.820126"
   height="52.244446"
   xmlns:inkscape="http://www.inkscape.org/namespaces/inkscape"
   xmlns:sodipodi="http://sodipodi.sourceforge.net/DTD/sodipodi-0.dtd"
   xmlns="http://www.w3.org/2000/svg"
   xmlns:svg="http://www.w3.org/2000/svg"><defs
   id="defs17" /><sodipodi:namedview
   id="namedview15"
   pagecolor="#ffffff"
   bordercolor="#000000"
   borderopacity="0.25"
   inkscape:showpageshadow="2"
   inkscape:pageopacity="0.0"
   inkscape:pagecheckerboard="0"
   inkscape:deskcolor="#d1d1d1" />
<g
   id="g12"
   transform="translate(0.1,0.2)">
	<path
   fill="#f7941e"
   d="m 39,46 c -0.2,-3 0.1,-5.9 0.7,-8.9 0.1,-0.3 -0.2,-0.9 -0.3,-0.9 -0.8,0 -1.8,-0.1 -2.5,0.2 -1.1,0.6 -1.9,1.5 -2.8,2.4 -0.2,0.1 -0.2,0.3 -0.3,0.5 -0.2,1.2 -0.9,2.1 -1.8,2.8 -1.6,1.4 -3.4,2.1 -5.5,2.1 -3.1,0 -6.2,0 -9.3,0 -1.1,0 -2.3,0.2 -3.6,0.3 0.8,-1.5 1.4,-3 2.2,-4.3 2.7,-4.3 5.4,-8.5 8.1,-12.7 1.8,-2.8 3.5,-5.5 5.2,-8.3 1.2,-1.9 2.5,-3.8 3.5,-5.8 1.4,-2.8 2.9,-5.6 4.8,-8.1 1,-1.3 1.9,-2.7 2,-4.5 0.1,-0.7 -0.1,-1 -0.9,-1 -0.8,0 -1.6,0 -2.5,0 -1.8,0 -3.5,0.1 -5.3,0.1 -3.7,0 -7.4,0 -11.1,0 -3,0 -6,0 -8.9,0 -1.5,0 -3,0 -4.6,0 C 5.7,-0.1 5.3,0.1 5,0.3 4,1.2 3,2.1 2.1,3.1 c 0,0.4 -0.3,0.8 -0.3,1.1 0.1,3.5 0,6.9 -0.4,10.3 0,0.3 0.1,0.5 0.1,0.7 0.9,-0.1 1.6,-0.1 2.2,-0.2 0.3,0 0.7,-0.1 0.9,-0.3 1,-1 1.9,-2.1 2.8,-3.2 C 7.6,11.3 7.6,11 7.6,10.7 7.9,9.1 8.4,7.6 9.8,6.6 c 2.4,-1.8 5.3,-1.8 8.1,-1.7 1.3,0 2.6,0 3.9,0 h 6.4 c 0,0.1 0,0.2 0.1,0.2 -0.5,0.7 -1.1,1.4 -1.6,2.1 -1.5,2.2 -2.9,4.4 -4.3,6.6 -1.2,1.8 -2.4,3.6 -3.6,5.4 -1.8,2.8 -3.4,5.7 -5.2,8.5 -1.7,2.7 -3.9,4.9 -5.4,7.7 -1,2 -2.5,3.7 -3.7,5.6 -1.3,2.1 -2.5,4.2 -3.8,6.3 -0.8,1.3 -1,2.5 -0.6,4 0.2,0.5 0.3,0.7 0.9,0.7 4.8,0 9.7,0.1 14.5,0 5.4,-0.1 10.8,-0.3 16.3,-0.5 0.9,0 1.8,0 2.7,0 0.3,0 0.6,-0.1 0.8,-0.2 0.8,-0.6 1.5,-1.2 2.2,-1.9 0.8,-0.8 2,-1.6 1.3,-3 C 39,46.2 39,46.1 39,46 Z m -0.8,0.6 C 27.5,47.2 16.7,47.1 5.8,46.8 5.6,46 5.7,45.3 6.2,44.5 c 2,-2.9 3.9,-6 5.8,-9 1.8,-2.8 3.5,-5.7 5.3,-8.5 2.5,-3.9 5,-7.7 7.6,-11.6 1.9,-2.9 3.8,-5.8 5.7,-8.7 C 31.3,5.6 32.1,4.5 32.8,3.4 32.9,3.2 33,2.9 32.9,2.7 32.7,2.5 32.4,2.4 32.2,2.4 31,2.4 29.8,2.5 28.7,2.5 24.6,2.5 20.4,2.5 16.3,2.6 15.1,2.6 14,2.7 12.9,3 10.9,3.5 9.8,5 8.9,6.7 8.3,7.8 7.9,9 7.4,10.2 7,10.9 6.5,10.9 6,10.8 5.9,10.8 5.7,10.2 5.7,9.8 5.7,8.3 5.8,6.7 5.8,5.1 5.9,3.6 6,2.1 6.1,0.4 c 0.8,0 1.4,0.1 2,0.1 4.3,0 8.6,0.1 12.9,0.1 4.3,0 8.7,0 13,0 1.3,0 2.5,-0.1 3.8,-0.1 0.3,0 0.7,0 1,0.1 0,1 -0.2,1.8 -0.7,2.5 -2.2,3.3 -4.5,6.6 -6.2,10.3 -0.9,2 -2.2,3.7 -3.4,5.6 -1.7,2.7 -3.4,5.4 -5.1,8.1 -2.7,4.3 -5.5,8.5 -8.2,12.8 -0.9,1.4 -1.6,2.9 -2.3,4.3 -0.2,0.5 -0.1,0.7 0.4,0.7 1.3,0 2.5,0 3.8,0 3.9,0 7.7,0 11.6,0 1.1,0 2.2,-0.2 3.3,-0.4 1.5,-0.3 2.7,-1.2 3.4,-2.6 0.7,-1.4 1.2,-2.8 1.8,-4.2 0.5,-1.2 0.4,-1.2 1.6,-0.9 -0.2,3.3 -0.4,6.5 -0.6,9.8 z"
   id="path2" />
	<path
   fill="#ffffff"
   d="m 37.2,37.8 c -0.6,1.4 -1.2,2.8 -1.8,4.2 -0.7,1.4 -1.8,2.3 -3.4,2.6 -1.1,0.2 -2.2,0.4 -3.3,0.4 -3.9,0.1 -7.7,0 -11.6,0 -1.3,0 -2.5,0 -3.8,0 -0.5,0 -0.7,-0.2 -0.4,-0.7 0.8,-1.4 1.4,-2.9 2.3,-4.3 2.7,-4.3 5.5,-8.5 8.2,-12.8 1.7,-2.7 3.4,-5.4 5.1,-8.1 1.2,-1.9 2.5,-3.6 3.4,-5.6 1.7,-3.7 4,-7 6.2,-10.3 0.5,-0.8 0.7,-1.6 0.7,-2.5 -0.4,0 -0.7,-0.1 -1,-0.1 -1.3,0 -2.5,0.1 -3.8,0.1 -4.3,0 -8.7,0 -13,0 C 16.7,0.7 12.4,0.6 8.1,0.6 7.5,0.6 6.8,0.5 6.1,0.5 6,2.2 5.9,3.7 5.8,5.2 5.7,6.8 5.7,8.3 5.7,9.9 c 0,0.3 0.2,1 0.3,1 0.5,0 1,0 1.3,-0.7 C 7.7,9 8.1,7.8 8.7,6.7 9.6,5 10.7,3.5 12.7,3 13.8,2.8 15,2.6 16.1,2.6 c 4.1,-0.1 8.3,0 12.4,-0.1 1.2,0 2.4,-0.1 3.5,-0.1 0.2,0 0.6,0.2 0.7,0.3 0.1,0.1 0.1,0.5 -0.1,0.7 -0.7,1.1 -1.4,2.2 -2.2,3.3 -1.9,2.9 -3.8,5.8 -5.7,8.7 -2.5,3.9 -5.1,7.7 -7.6,11.6 -1.8,2.8 -3.5,5.7 -5.3,8.5 -1.9,3 -3.8,6.1 -5.8,9 -0.6,0.8 -0.7,1.5 -0.4,2.3 10.9,0.2 21.7,0.3 32.4,-0.2 0.2,-3.3 0.4,-6.5 0.7,-9.8 -1,-0.2 -1,-0.2 -1.5,1 z M 23.1,22.6 C 24.6,20.1 26,17.4 27.8,15.1 29.1,13.5 30.1,11.8 31.1,10 31.9,8.6 32.7,7.2 33.6,5.8 33.8,5.4 34,5.2 34.2,5 34.3,5.1 34.4,5.1 34.5,5.1 34,6 33.7,7 33.2,7.9 32,10 31,12.3 29.5,14.1 c -1.8,2.2 -3.1,4.6 -4.6,6.9 -0.4,0.6 -0.8,1.4 -1.2,2 -0.1,0.2 -0.3,0.2 -0.5,0.3 C 23.1,23 23,22.7 23.1,22.6 Z m -1.5,1.8 c 0.5,0 0.8,0.2 0.9,0.8 0,0.6 -0.5,1 -1.4,1 -0.1,-0.1 -0.4,-0.3 -0.5,-0.6 -0.2,-0.5 0.6,-1.2 1,-1.2 z M 9.7,44.6 c -0.1,0 -0.1,0 -0.2,-0.1 0.1,-0.2 0.1,-0.5 0.2,-0.8 1.2,-1.9 2.4,-3.8 3.5,-5.8 0.7,-1.1 1.2,-2.2 1.8,-3.3 1.2,-2.1 2.5,-4.3 3.8,-6.4 0.1,-0.2 0.4,-0.3 0.6,-0.4 0,0.2 0.1,0.6 0,0.7 -2.1,3.2 -3.9,6.6 -5.7,9.9 -1.2,2.1 -2.6,4 -3.9,6 0,0.1 0,0.1 -0.1,0.2 z"
   id="path4" />
	<path
   fill="#f7941e"
   d="M 34.4,5.1 C 34,6 33.7,7 33.2,7.9 32,10 31,12.3 29.5,14.1 c -1.8,2.2 -3.1,4.6 -4.6,6.9 -0.4,0.6 -0.8,1.4 -1.2,2 -0.1,0.2 -0.3,0.2 -0.5,0.3 0,-0.2 -0.2,-0.5 -0.1,-0.7 1.5,-2.5 2.9,-5.2 4.7,-7.5 1.3,-1.6 2.3,-3.3 3.3,-5.1 0.8,-1.4 1.6,-2.8 2.5,-4.2 0.2,-0.4 0.4,-0.6 0.6,-0.8 0,0 0.1,0.1 0.2,0.1 z"
   id="path6" />
	<path
   fill="#f7941e"
   d="m 19.6,28.6 c -2.1,3.2 -3.9,6.6 -5.7,9.9 -1.2,2.1 -2.6,4 -3.9,6 0,0 -0.1,0.1 -0.2,0.1 -0.1,0 -0.1,0 -0.2,-0.1 0.1,-0.2 0.1,-0.5 0.2,-0.8 1.2,-1.9 2.4,-3.8 3.5,-5.8 0.7,-1.1 1.2,-2.2 1.8,-3.3 1.2,-2.1 2.5,-4.3 3.8,-6.4 0.1,-0.2 0.4,-0.3 0.6,-0.4 0.1,0.3 0.2,0.6 0.1,0.8 z"
   id="path8" />
	<path
   fill="#f7941e"
   d="m 22.5,25.2 c 0,0.6 -0.5,1 -1.4,1 -0.1,-0.1 -0.4,-0.3 -0.5,-0.6 -0.1,-0.4 0.6,-1.1 1.1,-1.1 0.4,-0.1 0.7,0.2 0.8,0.7 z"
   id="path10" />
</g>
</svg>
