<svg width="20px" height="20px" viewBox="0 0 20 20" version="1.1" xmlns="http://www.w3.org/2000/svg" xmlns:xlink="http://www.w3.org/1999/xlink">
  <svg version="1.1" id="Layer_1" xmlns="http://www.w3.org/2000/svg" xmlns:xlink="http://www.w3.org/1999/xlink" x="0px" y="0px"
	 width="12" height="16" viewBox="0 0 95 123" enable-background="new 0 0 95 123" xml:space="preserve" transform="translate(4, 2)">
<g id="ID0.8323829737491906" transform="">
	<path id="R_Leg" fill="#ffffff" d="M47.316,104.251c0-1.276,0.358-3.109,2.338-3.523
		c2.857-0.599,6.126,2.293,7.014,3.146c-0.065,0.338,1.047,7.173,1.047,7.765c0,2.004-0.535,2.083-0.743,2.116
		c-1.956,0.284-7.169-5.197-9.562-8.387C47.376,105.193,47.316,104.809,47.316,104.251L47.316,104.251L47.316,104.251z"/>
	<path id="Center_Leg" fill="#ffffff" d="M39.394,113.827c-1.418-1.538-1.621-5.707-1.621-7.482
		c0-0.752,0.039-1.253,0.041-1.268l0.002-0.039c0,0-0.004-0.16-0.004-0.219c0-3.341,3.075-4.501,3.597-4.675
		c1.781,0.021,4.858,0.864,5.593,2.136c0.075,0.128,0.144,0.289,0.144,0.495c0,0.181-0.054,0.4-0.208,0.666
		c-0.071,0.121-1.335,3.109-2.405,5.4l-0.765,2.119c-0.572,1.851-1.473,3.703-2.452,3.703
		C40.542,114.666,39.914,114.392,39.394,113.827L39.394,113.827L39.394,113.827z"/>
	<path fill="#ffffff" d="M79.505,89.611l-1.383-2.44
		c-1.516-2.637-3.265-5.052-4.807-7.177c-1.983-2.738-3.71-5.571-4.281-7.572c-0.207-0.721-0.107-1.41,0.189-1.79
		c0.028-0.102,0.327-0.265,0.539-0.309c2.541-0.55,13.06,5.491,15.685,8.719c3.845,4.727,5.382,11.358,4.524,14.699
		c-0.352,1.364-1.139,2.332-2.278,2.793C84.782,97.71,82.867,95.586,79.505,89.611L79.505,89.611L79.505,89.611z"/>
	<path id="Body" fill="#ffffff" d="
		M38.097,43.007c0,0-3.11-9.629-6.011-13.598c-1.72-2.79-4.2-6.267-7.477-6.049c-4.067,0.106-6.283,4.984-10.299,6.545
		c-2.602,1.003-9.461,2.314-8.406,0c2.813-5.814,14.04-9.079,16.844-16.379c1.263-3.305-4.272-7.252-7.941-7.942
		c-2.745-0.501-4.039,4.217-6.545,5.615c-1.151,0.643-4.339,1.305-3.753,0C6.629,6.836,9.052,1.172,13.845-0.495
		c3.617-1.254,7.562,2.473,10.299,5.119c8.464,8.185,15.617,17.938,23.24,26.65l4.511,5.139c0,0,3.225,3.956,5.692,6.566
		c0.044,0.045,2.378-0.317,3.989-1.657c1.314-1.096,1.141-2.323,1.559-4.902c0.384-2.371,0.802-6.659,2.072-6.681
		c1.916-0.029,3.176,7.868,3.666,10.793l0.272,1.565c0.643,3.479,3.999,13.94,4.144,14.384c0.046,0.108,0.121,0.249,0.121,0.249
		l0.027,0.056l0.038,0.047c5.185,6.429,9.038,14.223,9.038,21.524c0,15.464-13.555,26.349-31.697,26.349
		c-3.365,0-6.657-0.473-9.783-1.398l-0.168-0.049c0,0-4.908-0.412-11.186,7.84c-1.26,1.657-1.147,3.201-2.922,2.726
		c-0.592-0.158-1.026-0.593-1.382-1.383c-0.848-1.884-0.222-6.347,0.816-9.197l0.163-0.448l-0.375-0.297
		c-0.092-0.073-10.274-7.493-11.303-18.125c-0.896-9.268,3.785-14.545,5.728-17.444l1.117-1.858
		c1.409-3.428-1.243-8.195-3.583-12.401c-1.397-2.511-3.652-6.176-3.143-7.038c0.565-0.954,2.585,0.062,4.625,1.034
		c1.654,0.791,3.245,1.908,4.35,1.171c1.149-0.765,0.396-2.686-0.649-5.346c-0.982-2.498-2.841-6.443-2.127-8.072
		c0.197-0.447,0.542-0.762,1.055-0.961c1.897-0.734,4.609,2.461,6.805,4.961C31.532,41.469,34.57,44.927,38.097,43.007
		L38.097,43.007L38.097,43.007z"/>
	<path id="L_Arm" fill="#ffffff" d="M6.341,98.994c-1.036-0.661-1.633-1.753-1.729-3.161
		c-0.234-3.445,2.492-9.682,7.134-13.626c3.17-2.694,14.617-6.707,17.014-5.703c0.198,0.083,0.463,0.297,0.472,0.404
		c0.224,0.427,0.194,1.119-0.14,1.791c-0.927,1.864-3.142,4.335-5.594,6.66c-1.906,1.814-4.065,3.863-6.035,6.181l-1.807,2.141
		C11.259,98.943,8.986,100.685,6.341,98.994L6.341,98.994L6.341,98.994z"/>
</g>
</svg>
    <g id="Page-1" stroke="none" stroke-width="1" fill="none" fill-rule="evenodd">
        <g id="sprite-library" fill="#ffffff">
            <path d="M 18.5 2.5 L 19.25 2.5 C 19.6642 2.5 20 2.8358 20 3.25 C 20 3.6642 19.6642 4 19.25 4 L 18.5 4 L 18.5 4.75 C 18.5 5.1642 18.1642 5.5 17.75 5.5 C 17.3358 5.5 17 5.1642 17 4.75 L 17 4 L 16.25 4 C 15.8358 4 15.5 3.6642 15.5 3.25 C 15.5 2.8358 15.8358 2.5 16.25 2.5 L 17 2.5 L 17 1.75 C 17 1.3358 17.3358 1 17.75 1 C 18.1642 1 18.5 1.3358 18.5 1.75 L 18.5 2.5 Z Z Z" id="Combined-Shape"/>
        </g>
    </g>
</svg>