<svg xmlns="http://www.w3.org/2000/svg" viewBox="0 0 24 24" style="enable-background:new 0 0 24 24" xml:space="preserve"><path d="M23.3 11c-.3.6-.9 1-1.5 1h-1.6c-.1 1.3-.5 2.5-1.1 3.6-.9 1.7-2.3 3.2-4.1 4.1-1.7.9-3.6 1.2-5.5.9-1.8-.3-3.5-1.1-4.9-2.3-.7-.7-.7-1.9 0-2.6.6-.6 1.6-.7 2.3-.2H7c.9.6 1.9.9 2.9.9s1.9-.3 2.7-.9c1.1-.8 1.8-2.1 1.8-3.5h-1.5c-.9 0-1.7-.7-1.7-1.7 0-.4.2-.9.5-1.2l4.4-4.4c.7-.6 1.7-.6 2.4 0L23 9.2c.5.5.6 1.2.3 1.8z" style="fill:#0003"/><path d="M21.8 11h-2.6c0 1.5-.3 2.9-1 4.2-.8 1.6-2.1 2.8-3.7 3.6-1.5.8-3.3 1.1-4.9.8-1.6-.2-3.2-1-4.4-2.1-.4-.3-.4-.9-.1-1.2.3-.4.9-.4 1.2-.1 1 .7 2.2 1.1 3.4 1.1s2.3-.3 3.3-1c.9-.6 1.6-1.5 2-2.6.3-.9.4-1.8.2-2.8h-2.4c-.4 0-.7-.3-.7-.7 0-.2.1-.3.2-.4l4.4-4.4c.3-.3.7-.3.9 0L22 9.8c.3.3.4.6.3.9s-.3.3-.5.3z" style="fill:#fff"/></svg>