# Blender 3.3.0
# www.blender.org
mtllib beetle-color.mtl
o Wings
v 0.115115 0.137014 0.103495
v 0.089277 0.209365 0.148908
v 0.081059 0.093698 -0.293551
v 0.064029 0.179858 -0.253301
v 0.000000 0.098931 -0.329062
v 0.000000 0.182123 -0.266257
v 0.000000 0.154827 0.126231
v 0.000000 0.223911 0.141230
v 0.173804 0.120689 -0.110928
v 0.106092 0.242425 -0.118375
v 0.000000 0.251983 -0.157771
v 0.000000 0.120689 -0.110928
v 0.106092 0.240543 0.047637
v 0.000000 0.259100 0.047991
v 0.000000 0.113153 0.037697
v 0.173804 0.113153 0.037697
v 0.005789 0.179372 -0.284863
v 0.007916 0.148078 0.134006
v 0.007307 0.082771 -0.345909
v 0.012520 0.228516 0.149222
v 0.009537 0.259409 -0.154102
v 0.015570 0.120689 -0.110928
v 0.009537 0.267445 0.048151
v 0.015570 0.113153 0.037697
v -0.115115 0.137014 0.103495
v -0.089277 0.209365 0.148908
v -0.081059 0.093698 -0.293551
v -0.064029 0.179858 -0.253301
v -0.173804 0.120689 -0.110928
v -0.106092 0.242425 -0.118375
v -0.106092 0.240543 0.047637
v -0.173804 0.113153 0.037697
v -0.005789 0.179372 -0.284863
v -0.007916 0.148078 0.134006
v -0.007307 0.082771 -0.345909
v -0.012520 0.228516 0.149222
v -0.009537 0.259409 -0.154102
v -0.015570 0.120689 -0.110928
v -0.009537 0.267445 0.048151
v -0.015570 0.113153 0.037697
vn 0.4449 0.4683 -0.7634
vn 0.8662 0.2936 0.4043
vn -0.0000 -0.9401 0.3409
vn -0.5632 0.7691 0.3020
vn -0.6141 -0.1381 0.7771
vn -0.6097 0.6760 -0.4140
vn 0.0126 -0.9885 0.1506
vn 0.7992 0.3970 -0.4513
vn -0.6336 0.7732 -0.0287
vn -0.0000 -0.9987 -0.0506
vn 0.8786 0.4774 0.0143
vn 0.2244 0.9744 -0.0163
vn -0.5115 -0.8506 0.1214
vn 0.3005 0.8178 -0.4908
vn 0.0974 -0.3554 0.9296
vn 0.2437 0.9111 0.3323
vn -0.3627 -0.8661 0.3439
vn -0.8209 0.3193 -0.4735
vn -0.4449 0.4683 -0.7634
vn -0.8662 0.2936 0.4043
vn 0.5632 0.7691 0.3020
vn 0.6141 -0.1381 0.7771
vn 0.6097 0.6760 -0.4140
vn -0.0126 -0.9885 0.1506
vn -0.7992 0.3970 -0.4513
vn 0.6336 0.7732 -0.0287
vn -0.8786 0.4774 0.0143
vn -0.2244 0.9744 -0.0163
vn 0.5115 -0.8506 0.1214
vn -0.3005 0.8178 -0.4908
vn -0.0974 -0.3554 0.9296
vn -0.2437 0.9111 0.3323
vn 0.3627 -0.8661 0.3439
vn 0.8209 0.3193 -0.4735
vt 0.375000 0.731957
vt 0.625000 0.750000
vt 0.375000 0.516415
vt 0.625000 0.500000
vt 0.250000 0.500000
vt 0.375000 0.375000
vt 0.750000 0.500000
vt 0.625000 0.375000
vt 0.375000 0.875000
vt 0.250000 0.750000
vt 0.750000 0.750000
vt 0.625000 0.875000
vt 0.375000 0.628200
vt 0.625000 0.628199
vt 0.750000 0.628200
vt 0.250000 0.628200
vt 0.625000 0.693047
vt 0.750000 0.693047
vt 0.250000 0.693047
vt 0.375000 0.693047
vt 0.738863 0.500000
vt 0.625000 0.386137
vt 0.375000 0.863863
vt 0.261137 0.750000
vt 0.261137 0.501462
vt 0.375000 0.387600
vt 0.625000 0.863863
vt 0.738863 0.750000
vt 0.738863 0.628200
vt 0.261137 0.628200
vt 0.738863 0.693047
vt 0.261137 0.693047
vt 0.375000 0.731957
vt 0.625000 0.750000
vt 0.375000 0.516415
vt 0.625000 0.500000
vt 0.375000 0.628200
vt 0.625000 0.628199
vt 0.625000 0.693047
vt 0.375000 0.693047
vt 0.738863 0.500000
vt 0.625000 0.386137
vt 0.375000 0.863863
vt 0.261137 0.750000
vt 0.261137 0.501462
vt 0.375000 0.387600
vt 0.625000 0.863863
vt 0.738863 0.750000
vt 0.738863 0.628200
vt 0.261137 0.628200
vt 0.738863 0.693047
vt 0.261137 0.693047
s 0
f 19/26/1 17/22/1 4/4/1 3/3/1
f 16/20/2 13/17/2 2/2/2 1/1/2
f 24/32/3 16/20/3 1/1/3 18/24/3
f 23/31/4 14/18/4 8/11/4 20/28/4
f 18/23/5 20/27/5 8/12/5 7/9/5
f 17/21/6 6/7/6 11/15/6 21/29/6
f 19/25/7 3/3/7 9/13/7 22/30/7
f 3/3/8 4/4/8 10/14/8 9/13/8
f 21/29/9 11/15/9 14/18/9 23/31/9
f 22/30/10 9/13/10 16/20/10 24/32/10
f 9/13/11 10/14/11 13/17/11 16/20/11
f 12/16/10 22/30/10 24/32/10 15/19/10
f 10/14/12 21/29/12 23/31/12 13/17/12
f 5/5/13 19/25/13 22/30/13 12/16/13
f 4/4/14 17/21/14 21/29/14 10/14/14
f 1/1/15 2/2/15 20/27/15 18/23/15
f 13/17/16 23/31/16 20/28/16 2/2/16
f 15/19/17 24/32/17 18/24/17 7/10/17
f 5/6/18 6/8/18 17/22/18 19/26/18
f 35/46/19 27/35/19 28/36/19 33/42/19
f 32/40/20 25/33/20 26/34/20 31/39/20
f 40/52/3 34/44/3 25/33/3 32/40/3
f 39/51/21 36/48/21 8/11/21 14/18/21
f 34/43/22 7/9/22 8/12/22 36/47/22
f 33/41/23 37/49/23 11/15/23 6/7/23
f 35/45/24 38/50/24 29/37/24 27/35/24
f 27/35/25 29/37/25 30/38/25 28/36/25
f 37/49/26 39/51/26 14/18/26 11/15/26
f 38/50/10 40/52/10 32/40/10 29/37/10
f 29/37/27 32/40/27 31/39/27 30/38/27
f 12/16/10 15/19/10 40/52/10 38/50/10
f 30/38/28 31/39/28 39/51/28 37/49/28
f 5/5/29 12/16/29 38/50/29 35/45/29
f 28/36/30 30/38/30 37/49/30 33/41/30
f 25/33/31 34/43/31 36/47/31 26/34/31
f 31/39/32 26/34/32 36/48/32 39/51/32
f 15/19/33 7/10/33 34/44/33 40/52/33
f 5/6/34 35/46/34 33/42/34 6/8/34
